<svg xmlns="http://www.w3.org/2000/svg" viewBox="0 0 2540 1700"><rect width="2540" height="1700" fill="white"/><g transform="translate(20,70)"><rect width="2500" height="1600" fill="#eee" stroke="#333"/><rect x="20" y="20" width="2460" height="1560" fill="white" stroke="#777"/><polygon points="648.000,20.000 648.000,371.000 20.000,371.000 20.000,20.000 648.000,20.000" fill="#dbc59b" stroke="#344955" stroke-width="2"/><text x="25" y="38" font-size="16">M056</text><polygon points="648.000,386.000 648.000,737.000 20.000,737.000 20.000,386.000 648.000,386.000" fill="#dbc59b" stroke="#344955" stroke-width="2"/><text x="25" y="404.0" font-size="16">M057</text><polygon points="416.000,1081.000 20.000,1081.000 20.000,752.000 416.000,752.000 416.000,1081.000" fill="#dbc59b" stroke="#344955" stroke-width="2"/><text x="25" y="770.0" font-size="16">M007</text><polygon points="380.000,1326.000 20.000,1326.000 20.000,1096.000 380.000,1096.000 380.000,1326.000" fill="#dbc59b" stroke="#344955" stroke-width="2"/><text x="25" y="1114.0" font-size="16">M044</text><polygon points="611.000,752.000 611.000,932.000 431.000,932.000 431.000,752.000 611.000,752.000" fill="#dbc59b" stroke="#344955" stroke-width="2"/><text x="436.0" y="770.0" font-size="16">M024</text><polygon points="1083.000,200.000 663.000,200.000 663.000,20.000 1083.000,20.000 1083.000,200.000" fill="#dbc59b" stroke="#344955" stroke-width="2"/><text x="668.0" y="38" font-size="16">M052</text><polygon points="595.000,1096.000 595.000,1256.000 395.000,1256.000 395.000,1096.000 595.000,1096.000" fill="#dbc59b" stroke="#344955" stroke-width="2"/><text x="400.0" y="1114.0" font-size="16">M051</text><polygon points="595.000,1271.000 595.000,1431.000 395.000,1431.000 395.000,1271.000 595.000,1271.000" fill="#dbc59b" stroke="#344955" stroke-width="2"/><text x="400.0" y="1289.0" font-size="16">M051</text><polygon points="1658.000,20.000 1658.000,170.000 1098.000,170.000 1098.000,20.000 1658.000,20.000" fill="#dbc59b" stroke="#344955" stroke-width="2"/><text x="1103.0" y="38" font-size="16">M008</text><polygon points="2233.000,20.000 2233.000,170.000 1673.000,170.000 1673.000,20.000 2233.000,20.000" fill="#dbc59b" stroke="#344955" stroke-width="2"/><text x="1678.0" y="38" font-size="16">M008</text><polygon points="1658.000,185.000 1658.000,335.000 1098.000,335.000 1098.000,185.000 1658.000,185.000" fill="#dbc59b" stroke="#344955" stroke-width="2"/><text x="1103.0" y="203.0" font-size="16">M009</text><polygon points="2113.000,281.000 1673.000,281.000 1673.000,185.000 2113.000,185.000 2113.000,281.000" fill="#dbc59b" stroke="#344955" stroke-width="2"/><text x="1678.0" y="203.0" font-size="16">M053</text><polygon points="1098.000,445.375 1098.000,350.000 1638.000,350.000 1638.000,445.375 1098.000,445.375" fill="#dbc59b" stroke="#344955" stroke-width="2"/><text x="1103.0" y="368.0" font-size="16">M030</text><polygon points="2409.000,350.000 2409.000,387.000 1653.000,387.000 1653.000,350.000 2409.000,350.000" fill="#dbc59b" stroke="#344955" stroke-width="2"/><text x="1658.0" y="368.0" font-size="16">M038</text><polygon points="2257.000,402.000 2257.000,438.000 1653.000,438.000 1653.000,402.000 2257.000,402.000" fill="#dbc59b" stroke="#344955" stroke-width="2"/><text x="1658.0" y="420.0" font-size="16">M063</text><polygon points="642.000,1096.000 642.000,1118.000 610.000,1118.000 610.000,1096.000 642.000,1096.000" fill="#dbc59b" stroke="#344955" stroke-width="2"/><text x="615.0" y="1114.0" font-size="16">M055</text><polygon points="610.000,1133.000 642.000,1133.000 642.000,1155.000 610.000,1155.000 610.000,1133.000" fill="#dbc59b" stroke="#344955" stroke-width="2"/><text x="615.0" y="1151.0" font-size="16">M055</text><polygon points="642.000,1170.000 642.000,1192.000 610.000,1192.000 610.000,1170.000 642.000,1170.000" fill="#dbc59b" stroke="#344955" stroke-width="2"/><text x="615.0" y="1188.0" font-size="16">M055</text><polygon points="610.000,1207.000 642.000,1207.000 642.000,1229.000 610.000,1229.000 610.000,1207.000" fill="#dbc59b" stroke="#344955" stroke-width="2"/><text x="615.0" y="1225.0" font-size="16">M055</text><polygon points="642.000,1271.000 642.000,1293.000 610.000,1293.000 610.000,1271.000 642.000,1271.000" fill="#dbc59b" stroke="#344955" stroke-width="2"/><text x="615.0" y="1289.0" font-size="16">M055</text><polygon points="610.000,1308.000 642.000,1308.000 642.000,1330.000 610.000,1330.000 610.000,1308.000" fill="#dbc59b" stroke="#344955" stroke-width="2"/><text x="615.0" y="1326.0" font-size="16">M055</text><polygon points="642.000,1345.000 642.000,1367.000 610.000,1367.000 610.000,1345.000 642.000,1345.000" fill="#dbc59b" stroke="#344955" stroke-width="2"/><text x="615.0" y="1363.0" font-size="16">M055</text><polygon points="610.000,1382.000 642.000,1382.000 642.000,1404.000 610.000,1404.000 610.000,1382.000" fill="#dbc59b" stroke="#344955" stroke-width="2"/><text x="615.0" y="1400.0" font-size="16">M055</text><polygon points="2424.000,350.000 2452.000,350.000 2452.000,368.000 2424.000,368.000 2424.000,350.000" fill="#dbc59b" stroke="#344955" stroke-width="2"/><text x="2429.0" y="368.0" font-size="16">M047</text><polygon points="1673.000,296.000 1701.000,296.000 1701.000,314.000 1673.000,314.000 1673.000,296.000" fill="#dbc59b" stroke="#344955" stroke-width="2"/><text x="1678.0" y="314.0" font-size="16">M047</text></g><text x="20" y="40" font-family="sans-serif" font-size="26">T12-N1 · PRELIMINARY — NOT FOR CNC · 20 mm border / 15 mm spacing</text></svg>