DBRep_DrawableShape

CASCADE Topology V1, (c) Matra-Datavision
Locations 1
1
              1               0               0              18 
              0               1               0               0 
              0               0               1               0 
Curve2ds 0
Curves 16
1 125 353 340.97588241015455 1 0 0 
1 125 371 344.11954438198552 1 0 0 
1 125 353 340.97588241015455 0 0.98508930685912943 0.17204376626835391 
1 125 371 362.11954438198552 1 0 0 
1 125 371 344.11954438198552 0 0 1 
1 125 389 365.26320635381649 1 0 0 
1 125 371 362.11954438198552 0 0.98508930685912943 0.17204376626835391 
1 125 389 347.26320635381649 1 0 0 
1 125 389 365.26320635381649 0 0 -1 
1 125 407 350.40686832564745 1 0 0 
1 125 389 347.26320635381649 0 0.98508930685912943 0.17204376626835391 
1 125 407 390.73986884328093 1 0 0 
1 125 407 350.40686832564745 0 0 1 
1 125 353 381.30888292778798 1 0 0 
1 125 407 390.73986884328093 0 -0.98508930685912921 -0.17204376626835491 
1 125 353 381.30888292778798 0 0 -1 
Polygon3D 0
PolygonOnTriangulations 0
Surfaces 9
1 125 353 340.97588241015455 0 -0.17204376626835391 0.98508930685912943 0 0.98508930685912943 0.17204376626835391 -1 0 0 
1 125 371 344.11954438198552 0 -1 0 0 0 1 -1 0 0 
1 125 371 362.11954438198552 0 -0.17204376626835391 0.98508930685912943 0 0.98508930685912943 0.17204376626835391 -1 0 0 
1 125 389 365.26320635381649 -0 1 0 0 0 -1 -1 0 -0 
1 125 389 347.26320635381649 0 -0.17204376626835391 0.98508930685912943 0 0.98508930685912943 0.17204376626835391 -1 0 0 
1 125 407 350.40686832564745 0 -1 0 0 0 1 -1 0 0 
1 125 407 390.73986884328093 0 0.17204376626835491 -0.98508930685912921 0 -0.98508930685912921 -0.17204376626835491 -1 0 -0 
1 125 353 381.30888292778798 -0 1 0 0 0 -1 -1 0 -0 
1 124.99999999999997 379.99999999999989 365.53489911841547 1 0 0 -0 0 1 0 -1 0 
Triangulations 0

TShapes 44
Ve
1e-07
125 353 340.975882410155
0 0

0101101
*
Ed
 1e-07 1 1 0
1  1 0 0 18
0

0101000
+44 0 -44 1 *
Ve
1e-07
125 371 344.119544381986
0 0

0101101
*
Ed
 1e-07 1 1 0
1  2 0 0 18
0

0101000
+42 0 -42 1 *
Ed
 1e-07 1 1 0
1  3 0 0 18.2724549689727
0

0101000
+44 0 -42 0 *
Wi

0101100
+43 0 -41 0 -40 0 +40 1 *
Fa
0  1e-07 1 0

0101000
+39 0 *
Ve
1e-07
125 371 362.119544381986
0 0

0101101
*
Ed
 1e-07 1 1 0
1  4 0 0 18
0

0101000
+37 0 -37 1 *
Ed
 1e-07 1 1 0
1  5 0 0 18
0

0101000
+42 0 -37 0 *
Wi

0101100
+41 0 -36 0 -35 0 +35 1 *
Fa
0  1e-07 2 0

0101000
+34 0 *
Ve
1e-07
125 389 365.263206353816
0 0

0101101
*
Ed
 1e-07 1 1 0
1  6 0 0 18
0

0101000
+32 0 -32 1 *
Ed
 1e-07 1 1 0
1  7 0 0 18.2724549689727
0

0101000
+37 0 -32 0 *
Wi

0101100
+36 0 -31 0 -30 0 +30 1 *
Fa
0  1e-07 3 0

0101000
+29 0 *
Ve
1e-07
125 389 347.263206353816
0 0

0101101
*
Ed
 1e-07 1 1 0
1  8 0 0 18
0

0101000
+27 0 -27 1 *
Ed
 1e-07 1 1 0
1  9 0 0 18
0

0101000
+32 0 -27 0 *
Wi

0101100
+31 0 -26 0 -25 0 +25 1 *
Fa
0  1e-07 4 0

0101000
+24 0 *
Ve
1e-07
125 407 350.406868325647
0 0

0101101
*
Ed
 1e-07 1 1 0
1  10 0 0 18
0

0101000
+22 0 -22 1 *
Ed
 1e-07 1 1 0
1  11 0 0 18.2724549689727
0

0101000
+27 0 -22 0 *
Wi

0101100
+26 0 -21 0 -20 0 +20 1 *
Fa
0  1e-07 5 0

0101000
+19 0 *
Ve
1e-07
125 407 390.739868843281
0 0

0101101
*
Ed
 1e-07 1 1 0
1  12 0 0 18
0

0101000
+17 0 -17 1 *
Ed
 1e-07 1 1 0
1  13 0 0 40.3330005176335
0

0101000
+22 0 -17 0 *
Wi

0101100
+21 0 -16 0 -15 0 +15 1 *
Fa
0  1e-07 6 0

0101000
+14 0 *
Ve
1e-07
125 353 381.308882927788
0 0

0101101
*
Ed
 1e-07 1 1 0
1  14 0 0 18
0

0101000
+12 0 -12 1 *
Ed
 1e-07 1 1 0
1  15 0 0 54.8173649069182
0

0101000
+17 0 -12 0 *
Wi

0101100
+16 0 -11 0 -10 0 +10 1 *
Fa
0  1e-07 7 0

0101000
+9 0 *
Ed
 1e-07 1 1 0
1  16 0 0 40.3330005176334
0

0101000
+12 0 -44 0 *
Wi

0101100
+11 0 -43 0 -7 0 +7 1 *
Fa
0  1e-07 8 0

0101000
+6 0 *
Wi

0101100
+40 0 +35 0 +30 0 +25 0 +20 0 +15 0 +10 0 +7 0 *
Fa
0  1e-07 9 0

0101000
+4 0 *
Sh

0101100
+38 0 +33 0 +28 0 +23 0 +18 0 +13 0 +8 0 +5 0 +3 0 -3 1 
*
So

1100000
-2 0 *

+1 0 