DBRep_DrawableShape

CASCADE Topology V1, (c) Matra-Datavision
Locations 0
Curve2ds 306
1 0 0 1 0 
1 0 0 1 0 
1 448.79999999999995 0 0 -1 
1 0 0 0 1 
1 0 -18 1 0 
1 0 0 1 0 
1 0 0 0 -1 
1 0 0 0 1 
1 0 0 0 1 
1 0 0 1 0 
1 0 0 1 0 
1 0 752 1 0 
1 448.79999999999995 0 0 1 
1 0 0 1 0 
2 170 326 1 0 -0 1 2.5
1 0 1 1 0 
8 -90 -80
1 80 323.5 -1 0 
8 -90 -80
1 -80 -1 -1 -0 
8 -90 -80
1 80 328.5 -1 0 
8 -90 -80
1 -80 -1 -1 -0 
2 160 326 1 0 -0 1 2.5
1 0 1 1 0 
2 182.5 338.5 1 0 -0 1 2.5
1 0 1 1 0 
8 -96.25 -86.25
1 86.25 336 -1 0 
8 -96.25 -86.25
1 -86.25 -1 -1 -0 
8 -96.25 -86.25
1 86.25 341 -1 0 
8 -96.25 -86.25
1 -86.25 -1 -1 -0 
2 172.5 338.5 1 0 -0 1 2.5
1 0 1 1 0 
2 257.5 338.5 1 0 -0 1 2.5
1 0 1 1 0 
8 -133.75 -123.75
1 123.75 336 -1 0 
8 -133.75 -123.75
1 -123.75 -1 -1 -0 
8 -133.75 -123.75
1 123.75 341 -1 0 
8 -133.75 -123.75
1 -123.75 -1 -1 -0 
2 247.5 338.5 1 0 -0 1 2.5
1 0 1 1 0 
2 270 326 1 0 -0 1 2.5
1 0 1 1 0 
8 -140 -130
1 130 323.5 -1 0 
8 -140 -130
1 -130 -1 -1 -0 
8 -140 -130
1 130 328.5 -1 0 
8 -140 -130
1 -130 -1 -1 -0 
2 260 326 1 0 -0 1 2.5
1 0 1 1 0 
8 92 476
1 131 92 0 1 
8 92 476
1 -92 1 1 0 
2 123 184 1 0 -0 1 8
1 0 1 1 0 
2 123 568 1 0 -0 1 8
1 0 1 1 0 
8 -103.5 -19.5
1 19.5 176 -1 0 
8 -103.5 -19.5
1 -19.5 -1 -1 -0 
8 -103.5 -19.5
1 19.5 576 -1 0 
8 -103.5 -19.5
1 -19.5 -1 -1 -0 
2 39 184 1 0 -0 1 8
1 0 1 1 0 
2 39 568 1 0 -0 1 8
1 0 1 1 0 
8 92 476
1 31 92 0 1 
8 92 476
1 -92 1 1 0 
2 182.5 413.5 1 0 -0 1 2.5
1 0 1 1 0 
8 -96.25 -86.25
1 86.25 411 -1 0 
8 -96.25 -86.25
1 -86.25 -1 -1 -0 
8 -96.25 -86.25
1 86.25 416 -1 0 
8 -96.25 -86.25
1 -86.25 -1 -1 -0 
2 172.5 413.5 1 0 -0 1 2.5
1 0 1 1 0 
2 170 426 1 0 -0 1 2.5
1 0 1 1 0 
8 -90 -80
1 80 423.5 -1 0 
8 -90 -80
1 -80 -1 -1 -0 
8 -90 -80
1 80 428.5 -1 0 
8 -90 -80
1 -80 -1 -1 -0 
2 160 426 1 0 -0 1 2.5
1 0 1 1 0 
2 257.5 413.5 1 0 -0 1 2.5
1 0 1 1 0 
8 -133.75 -123.75
1 123.75 411 -1 0 
8 -133.75 -123.75
1 -123.75 -1 -1 -0 
8 -133.75 -123.75
1 123.75 416 -1 0 
8 -133.75 -123.75
1 -123.75 -1 -1 -0 
2 247.5 413.5 1 0 -0 1 2.5
1 0 1 1 0 
2 270 426 1 0 -0 1 2.5
1 0 1 1 0 
8 -140 -130
1 130 428.5 -1 0 
8 -140 -130
1 -130 -1 -1 -0 
2 260 426 1 0 -0 1 2.5
1 0 1 1 0 
8 -140 -130
1 130 423.5 -1 0 
8 -140 -130
1 -130 -1 -1 -0 
1 448.79999999999995 0 0 1 
1 0 18 1 0 
1 448.79999999999995 0 0 -1 
1 752 0 0 1 
1 0 0 0 1 
1 0 18 1 0 
1 0 -18 1 0 
1 0 752 1 0 
2 170 326 1 0 -0 1 2.5
1 0 19 1 0 
8 -90 -80
1 80 323.5 -1 0 
8 -90 -80
1 -80 -19 -1 -0 
8 -90 -80
1 80 328.5 -1 0 
8 -90 -80
1 -80 -19 -1 -0 
2 160 326 1 0 -0 1 2.5
1 0 19 1 0 
2 182.5 338.5 1 0 -0 1 2.5
1 0 19 1 0 
8 -96.25 -86.25
1 86.25 336 -1 0 
8 -96.25 -86.25
1 -86.25 -19 -1 -0 
8 -96.25 -86.25
1 86.25 341 -1 0 
8 -96.25 -86.25
1 -86.25 -19 -1 -0 
2 172.5 338.5 1 0 -0 1 2.5
1 0 19 1 0 
2 257.5 338.5 1 0 -0 1 2.5
1 0 19 1 0 
8 -133.75 -123.75
1 123.75 336 -1 0 
8 -133.75 -123.75
1 -123.75 -19 -1 -0 
8 -133.75 -123.75
1 123.75 341 -1 0 
8 -133.75 -123.75
1 -123.75 -19 -1 -0 
2 247.5 338.5 1 0 -0 1 2.5
1 0 19 1 0 
2 270 326 1 0 -0 1 2.5
1 0 19 1 0 
8 -140 -130
1 130 323.5 -1 0 
8 -140 -130
1 -130 -19 -1 -0 
8 -140 -130
1 130 328.5 -1 0 
8 -140 -130
1 -130 -19 -1 -0 
2 260 326 1 0 -0 1 2.5
1 0 19 1 0 
8 92 476
1 131 92 0 1 
8 92 476
1 -92 19 1 0 
2 123 184 1 0 -0 1 8
1 0 19 1 0 
2 123 568 1 0 -0 1 8
1 0 19 1 0 
8 -103.5 -19.5
1 19.5 176 -1 0 
8 -103.5 -19.5
1 -19.5 -19 -1 -0 
8 -103.5 -19.5
1 19.5 576 -1 0 
8 -103.5 -19.5
1 -19.5 -19 -1 -0 
2 39 184 1 0 -0 1 8
1 0 19 1 0 
2 39 568 1 0 -0 1 8
1 0 19 1 0 
8 92 476
1 31 92 0 1 
8 92 476
1 -92 19 1 0 
2 182.5 413.5 1 0 -0 1 2.5
1 0 19 1 0 
8 -96.25 -86.25
1 86.25 411 -1 0 
8 -96.25 -86.25
1 -86.25 -19 -1 -0 
8 -96.25 -86.25
1 86.25 416 -1 0 
8 -96.25 -86.25
1 -86.25 -19 -1 -0 
2 172.5 413.5 1 0 -0 1 2.5
1 0 19 1 0 
2 170 426 1 0 -0 1 2.5
1 0 19 1 0 
8 -90 -80
1 80 423.5 -1 0 
8 -90 -80
1 -80 -19 -1 -0 
8 -90 -80
1 80 428.5 -1 0 
8 -90 -80
1 -80 -19 -1 -0 
2 160 426 1 0 -0 1 2.5
1 0 19 1 0 
2 257.5 413.5 1 0 -0 1 2.5
1 0 19 1 0 
8 -133.75 -123.75
1 123.75 411 -1 0 
8 -133.75 -123.75
1 -123.75 -19 -1 -0 
8 -133.75 -123.75
1 123.75 416 -1 0 
8 -133.75 -123.75
1 -123.75 -19 -1 -0 
2 247.5 413.5 1 0 -0 1 2.5
1 0 19 1 0 
2 270 426 1 0 -0 1 2.5
1 0 19 1 0 
8 -140 -130
1 130 428.5 -1 0 
8 -140 -130
1 -130 -19 -1 -0 
2 260 426 1 0 -0 1 2.5
1 0 19 1 0 
8 -140 -130
1 130 423.5 -1 0 
8 -140 -130
1 -130 -19 -1 -0 
1 0 0 0 -1 
1 752 0 0 1 
1 10 0 0 -1 
1 5 0 0 1 
1 7.8539816339744828 0 0 1 
1 10 0 0 -1 
1 0 0 0 1 
1 4.7123889803846897 0 0 1 
1 0 0 0 -1 
1 0 0 0 1 
1 4.7123889803846897 0 0 1 
1 0 0 0 -1 
1 5 0 0 1 
1 1.5707963267948966 0 0 1 
1 10 0 0 -1 
1 5 0 0 1 
1 7.8539816339744828 0 0 1 
1 10 0 0 -1 
1 0 0 0 1 
1 4.7123889803846897 0 0 1 
1 0 0 0 -1 
1 0 0 0 1 
1 4.7123889803846897 0 0 1 
1 0 0 0 -1 
1 5 0 0 1 
1 1.5707963267948966 0 0 1 
1 10 0 0 -1 
1 5 0 0 1 
1 7.8539816339744828 0 0 1 
1 10 0 0 -1 
1 0 0 0 1 
1 4.7123889803846897 0 0 1 
1 0 0 0 -1 
1 0 0 0 1 
1 4.7123889803846897 0 0 1 
1 0 0 0 -1 
1 5 0 0 1 
1 1.5707963267948966 0 0 1 
1 10 0 0 -1 
1 5 0 0 1 
1 7.8539816339744828 0 0 1 
1 10 0 0 -1 
1 0 0 0 1 
1 4.7123889803846897 0 0 1 
1 0 0 0 -1 
1 0 0 0 1 
1 4.7123889803846897 0 0 1 
1 0 0 0 -1 
1 5 0 0 1 
1 1.5707963267948966 0 0 1 
1 100 0 0 -1 
1 0 0 0 1 
8 0 20
1 6.2831853071795862 -0 0 1 
8 0 20
1 0 0 0 1 
1 100 0 0 -1 
1 384 0 0 1 
8 0 20
1 6.2831853071795862 -0 0 1 
8 0 20
1 0 0 0 1 
1 84 0 0 -1 
1 0 0 0 1 
1 4.7123889803846897 0 0 1 
1 84 0 0 -1 
1 400 0 0 1 
1 1.5707963267948966 0 0 1 
1 0 0 0 -1 
1 0 0 0 1 
1 4.7123889803846897 0 0 1 
1 0 0 0 -1 
1 400 0 0 1 
1 1.5707963267948966 0 0 1 
1 0 0 0 -1 
1 0 0 0 1 
1 3.1415926535897931 0 0 1 
1 0 0 0 -1 
1 384 0 0 1 
1 3.1415926535897931 0 0 1 
1 10 0 0 -1 
1 5 0 0 1 
1 7.8539816339744828 0 0 1 
1 10 0 0 -1 
1 0 0 0 1 
1 4.7123889803846897 0 0 1 
1 0 0 0 -1 
1 0 0 0 1 
1 4.7123889803846897 0 0 1 
1 0 0 0 -1 
1 5 0 0 1 
1 1.5707963267948966 0 0 1 
1 10 0 0 -1 
1 5 0 0 1 
1 7.8539816339744828 0 0 1 
1 10 0 0 -1 
1 0 0 0 1 
1 4.7123889803846897 0 0 1 
1 0 0 0 -1 
1 0 0 0 1 
1 4.7123889803846897 0 0 1 
1 0 0 0 -1 
1 5 0 0 1 
1 1.5707963267948966 0 0 1 
1 10 0 0 -1 
1 5 0 0 1 
1 7.8539816339744828 0 0 1 
1 10 0 0 -1 
1 0 0 0 1 
1 4.7123889803846897 0 0 1 
1 0 0 0 -1 
1 0 0 0 1 
1 4.7123889803846897 0 0 1 
1 0 0 0 -1 
1 5 0 0 1 
1 1.5707963267948966 0 0 1 
1 10 0 0 -1 
1 5 0 0 1 
1 7.8539816339744828 0 0 1 
1 10 0 0 -1 
1 0 0 0 1 
1 4.7123889803846897 0 0 1 
1 0 0 0 -1 
1 5 0 0 1 
1 1.5707963267948966 0 0 1 
1 0 0 0 -1 
1 0 0 0 1 
1 4.7123889803846897 0 0 1 
Curves 132
1 -76 1240 854 0 0 1 
1 -76 1240 1302.8 -0 1 0 
1 -76 1258 854 0 0 1 
1 -76 1240 854 -0 1 0 
1 -76 1240 854 1 0 -0 
1 676 1240 854 0 0 1 
1 -76 1240 1302.8 1 0 -0 
2 250 1240 1024 0 1 0 0 -0 1 1 0 -0 2.5
1 247.5 1240 934 -0 0 -1 
1 252.5 1240 934 -0 0 -1 
2 250 1240 1014 0 1 0 0 -0 1 1 0 -0 2.5
2 262.5 1240 1036.5 0 1 0 0 -0 1 1 0 -0 2.5
1 260 1240 940.25 -0 0 -1 
1 265 1240 940.25 -0 0 -1 
2 262.5 1240 1026.5 0 1 0 0 -0 1 1 0 -0 2.5
2 262.5 1240 1111.5 0 1 0 0 -0 1 1 0 -0 2.5
1 260 1240 977.75 -0 0 -1 
1 265 1240 977.75 -0 0 -1 
2 262.5 1240 1101.5 0 1 0 0 -0 1 1 0 -0 2.5
2 250 1240 1124 0 1 0 0 -0 1 1 0 -0 2.5
1 247.5 1240 984 -0 0 -1 
1 252.5 1240 984 -0 0 -1 
2 250 1240 1114 0 1 0 0 -0 1 1 0 -0 2.5
1 16 1240 985 1 0 -0 
2 108 1240 977 0 1 0 0 -0 1 1 0 -0 8
2 492 1240 977 0 1 0 0 -0 1 1 0 -0 8
1 100 1240 873.5 -0 0 -1 
1 500 1240 873.5 -0 0 -1 
2 108 1240 893 0 1 0 0 -0 1 1 0 -0 8
2 492 1240 893 0 1 0 0 -0 1 1 0 -0 8
1 16 1240 885 1 0 -0 
2 337.5 1240 1036.5 0 1 0 0 -0 1 1 0 -0 2.5
1 335 1240 940.25 -0 0 -1 
1 340 1240 940.25 -0 0 -1 
2 337.5 1240 1026.5 0 1 0 0 -0 1 1 0 -0 2.5
2 350 1240 1024 0 1 0 0 -0 1 1 0 -0 2.5
1 347.5 1240 934 -0 0 -1 
1 352.5 1240 934 -0 0 -1 
2 350 1240 1014 0 1 0 0 -0 1 1 0 -0 2.5
2 337.5 1240 1111.5 0 1 0 0 -0 1 1 0 -0 2.5
1 335 1240 977.75 -0 0 -1 
1 340 1240 977.75 -0 0 -1 
2 337.5 1240 1101.5 0 1 0 0 -0 1 1 0 -0 2.5
2 350 1240 1124 0 1 0 0 -0 1 1 0 -0 2.5
1 352.5 1240 984 -0 0 -1 
2 350 1240 1114 0 1 0 0 -0 1 1 0 -0 2.5
1 347.5 1240 984 -0 0 -1 
1 -76 1258 1302.8 1 0 -0 
1 676 1240 1302.8 -0 1 0 
1 -76 1258 854 1 0 -0 
1 676 1258 854 0 0 1 
2 250 1258 1024 0 1 0 0 -0 1 1 0 -0 2.5
1 247.5 1258 934 -0 0 -1 
1 252.5 1258 934 -0 0 -1 
2 250 1258 1014 0 1 0 0 -0 1 1 0 -0 2.5
2 262.5 1258 1036.5 0 1 0 0 -0 1 1 0 -0 2.5
1 260 1258 940.25 -0 0 -1 
1 265 1258 940.25 -0 0 -1 
2 262.5 1258 1026.5 0 1 0 0 -0 1 1 0 -0 2.5
2 262.5 1258 1111.5 0 1 0 0 -0 1 1 0 -0 2.5
1 260 1258 977.75 -0 0 -1 
1 265 1258 977.75 -0 0 -1 
2 262.5 1258 1101.5 0 1 0 0 -0 1 1 0 -0 2.5
2 250 1258 1124 0 1 0 0 -0 1 1 0 -0 2.5
1 247.5 1258 984 -0 0 -1 
1 252.5 1258 984 -0 0 -1 
2 250 1258 1114 0 1 0 0 -0 1 1 0 -0 2.5
1 16 1258 985 1 0 -0 
2 108 1258 977 0 1 0 0 -0 1 1 0 -0 8
2 492 1258 977 0 1 0 0 -0 1 1 0 -0 8
1 100 1258 873.5 -0 0 -1 
1 500 1258 873.5 -0 0 -1 
2 108 1258 893 0 1 0 0 -0 1 1 0 -0 8
2 492 1258 893 0 1 0 0 -0 1 1 0 -0 8
1 16 1258 885 1 0 -0 
2 337.5 1258 1036.5 0 1 0 0 -0 1 1 0 -0 2.5
1 335 1258 940.25 -0 0 -1 
1 340 1258 940.25 -0 0 -1 
2 337.5 1258 1026.5 0 1 0 0 -0 1 1 0 -0 2.5
2 350 1258 1024 0 1 0 0 -0 1 1 0 -0 2.5
1 347.5 1258 934 -0 0 -1 
1 352.5 1258 934 -0 0 -1 
2 350 1258 1014 0 1 0 0 -0 1 1 0 -0 2.5
2 337.5 1258 1111.5 0 1 0 0 -0 1 1 0 -0 2.5
1 335 1258 977.75 -0 0 -1 
1 340 1258 977.75 -0 0 -1 
2 337.5 1258 1101.5 0 1 0 0 -0 1 1 0 -0 2.5
2 350 1258 1124 0 1 0 0 -0 1 1 0 -0 2.5
1 352.5 1258 984 -0 0 -1 
2 350 1258 1114 0 1 0 0 -0 1 1 0 -0 2.5
1 347.5 1258 984 -0 0 -1 
1 676 1240 854 -0 1 0 
1 252.5 1239 1024 -0 1 0 
1 247.5 1239 1024 -0 1 0 
1 247.5 1239 1014 -0 1 0 
1 252.5 1239 1014 -0 1 0 
1 265 1239 1036.5 -0 1 0 
1 260 1239 1036.5 -0 1 0 
1 260 1239 1026.5 -0 1 0 
1 265 1239 1026.5 -0 1 0 
1 265 1239 1111.5 -0 1 0 
1 260 1239 1111.5 -0 1 0 
1 260 1239 1101.5 -0 1 0 
1 265 1239 1101.5 -0 1 0 
1 252.5 1239 1124 -0 1 0 
1 247.5 1239 1124 -0 1 0 
1 247.5 1239 1114 -0 1 0 
1 252.5 1239 1114 -0 1 0 
1 108 1239 985 -0 1 0 
1 492 1239 985 -0 1 0 
1 100 1239 977 -0 1 0 
1 500 1239 977 -0 1 0 
1 100 1239 893 -0 1 0 
1 500 1239 893 -0 1 0 
1 108 1239 885 -0 1 0 
1 492 1239 885 -0 1 0 
1 340 1239 1036.5 -0 1 0 
1 335 1239 1036.5 -0 1 0 
1 335 1239 1026.5 -0 1 0 
1 340 1239 1026.5 -0 1 0 
1 352.5 1239 1024 -0 1 0 
1 347.5 1239 1024 -0 1 0 
1 347.5 1239 1014 -0 1 0 
1 352.5 1239 1014 -0 1 0 
1 340 1239 1111.5 -0 1 0 
1 335 1239 1111.5 -0 1 0 
1 335 1239 1101.5 -0 1 0 
1 340 1239 1101.5 -0 1 0 
1 352.5 1239 1124 -0 1 0 
1 347.5 1239 1124 -0 1 0 
1 352.5 1239 1114 -0 1 0 
1 347.5 1239 1114 -0 1 0 
Polygon3D 0
PolygonOnTriangulations 0
Surfaces 66
1 -76 1240 854 1 0 -0 0 0 1 0 -1 0 
1 -76 1240 854 -0 1 0 0 0 1 1 0 -0 
1 -76 1240 1302.8 0 0 1 1 0 -0 -0 1 0 
1 -76 1258 854 -0 1 0 0 0 1 1 0 -0 
1 -76 1240 854 0 0 1 1 0 -0 -0 1 0 
1 676 1240 854 1 0 -0 0 0 1 0 -1 0 
2 250 1239 1024 0 1 0 0 -0 1 1 0 -0 2.5
1 247.5 1239 1014 1 0 -0 0 0 1 0 -1 0 
1 252.5 1239 1014 1 0 -0 0 0 1 0 -1 0 
2 250 1239 1014 0 1 0 0 -0 1 1 0 -0 2.5
2 262.5 1239 1036.5 0 1 0 0 -0 1 1 0 -0 2.5
1 260 1239 1026.5 1 0 -0 0 0 1 0 -1 0 
1 265 1239 1026.5 1 0 -0 0 0 1 0 -1 0 
2 262.5 1239 1026.5 0 1 0 0 -0 1 1 0 -0 2.5
2 262.5 1239 1111.5 0 1 0 0 -0 1 1 0 -0 2.5
1 260 1239 1101.5 1 0 -0 0 0 1 0 -1 0 
1 265 1239 1101.5 1 0 -0 0 0 1 0 -1 0 
2 262.5 1239 1101.5 0 1 0 0 -0 1 1 0 -0 2.5
2 250 1239 1124 0 1 0 0 -0 1 1 0 -0 2.5
1 247.5 1239 1114 1 0 -0 0 0 1 0 -1 0 
1 252.5 1239 1114 1 0 -0 0 0 1 0 -1 0 
2 250 1239 1114 0 1 0 0 -0 1 1 0 -0 2.5
1 108 1239 985 0 0 1 1 0 -0 -0 1 0 
2 108 1239 977 0 1 0 0 -0 1 1 0 -0 8
2 492 1239 977 0 1 0 0 -0 1 1 0 -0 8
1 100 1239 893 1 0 -0 0 0 1 0 -1 0 
1 500 1239 893 1 0 -0 0 0 1 0 -1 0 
2 108 1239 893 0 1 0 0 -0 1 1 0 -0 8
2 492 1239 893 0 1 0 0 -0 1 1 0 -0 8
1 108 1239 885 0 0 1 1 0 -0 -0 1 0 
2 337.5 1239 1036.5 0 1 0 0 -0 1 1 0 -0 2.5
1 335 1239 1026.5 1 0 -0 0 0 1 0 -1 0 
1 340 1239 1026.5 1 0 -0 0 0 1 0 -1 0 
2 337.5 1239 1026.5 0 1 0 0 -0 1 1 0 -0 2.5
2 350 1239 1024 0 1 0 0 -0 1 1 0 -0 2.5
1 347.5 1239 1014 1 0 -0 0 0 1 0 -1 0 
1 352.5 1239 1014 1 0 -0 0 0 1 0 -1 0 
2 350 1239 1014 0 1 0 0 -0 1 1 0 -0 2.5
2 337.5 1239 1111.5 0 1 0 0 -0 1 1 0 -0 2.5
1 335 1239 1101.5 1 0 -0 0 0 1 0 -1 0 
1 340 1239 1101.5 1 0 -0 0 0 1 0 -1 0 
2 337.5 1239 1101.5 0 1 0 0 -0 1 1 0 -0 2.5
2 350 1239 1124 0 1 0 0 -0 1 1 0 -0 2.5
1 352.5 1239 1114 1 0 -0 0 0 1 0 -1 0 
2 350 1239 1114 0 1 0 0 -0 1 1 0 -0 2.5
1 347.5 1239 1114 1 0 -0 0 0 1 0 -1 0 
1 247.5 1239 1024 0 0 1 1 0 -0 -0 1 0 
1 247.5 1239 1014 0 0 1 1 0 -0 -0 1 0 
1 260 1239 1036.5 0 0 1 1 0 -0 -0 1 0 
1 260 1239 1026.5 0 0 1 1 0 -0 -0 1 0 
1 260 1239 1111.5 0 0 1 1 0 -0 -0 1 0 
1 260 1239 1101.5 0 0 1 1 0 -0 -0 1 0 
1 247.5 1239 1124 0 0 1 1 0 -0 -0 1 0 
1 247.5 1239 1114 0 0 1 1 0 -0 -0 1 0 
1 108 1239 885 1 0 -0 0 0 1 0 -1 0 
1 492 1239 885 1 0 -0 0 0 1 0 -1 0 
1 100 1239 977 0 0 1 1 0 -0 -0 1 0 
1 100 1239 893 0 0 1 1 0 -0 -0 1 0 
1 335 1239 1036.5 0 0 1 1 0 -0 -0 1 0 
1 335 1239 1026.5 0 0 1 1 0 -0 -0 1 0 
1 347.5 1239 1024 0 0 1 1 0 -0 -0 1 0 
1 347.5 1239 1014 0 0 1 1 0 -0 -0 1 0 
1 335 1239 1111.5 0 0 1 1 0 -0 -0 1 0 
1 335 1239 1101.5 0 0 1 1 0 -0 -0 1 0 
1 347.5 1239 1124 0 0 1 1 0 -0 -0 1 0 
1 347.5 1239 1114 0 0 1 1 0 -0 -0 1 0 
Triangulations 0

TShapes 333
Ve
1e-07
-76 1240 1302.8
0 0

0101101
*
Ve
1e-07
-76 1240 854
0 0

0101101
*
Ed
 1e-07 1 1 0
1  1 0 0 448.8
2  1 1 0 0 448.8
2  2 2 0 0 448.8
0

0101000
-333 0 +332 0 *
Ve
1e-07
-76 1258 1302.8
0 0

0101101
*
Ed
 1e-07 1 1 0
1  2 0 0 18
2  3 1 0 0 18
2  4 3 0 0 18
0

0101000
-330 0 +333 0 *
Ve
1e-07
-76 1258 854
0 0

0101101
*
Ed
 1e-07 1 1 0
1  3 0 0 448.8
2  5 1 0 0 448.8
2  6 4 0 0 448.8
0

0101000
-330 0 +328 0 *
Ed
 1e-07 1 1 0
1  4 0 0 18
2  7 1 0 0 18
2  8 5 0 0 18
0

0101000
-328 0 +332 0 *
Wi

0101100
-331 0 -329 0 +327 0 +326 0 *
Fa
0  1e-07 1 0

0111000
+325 0 *
Ve
1e-07
676 1240 854
0 0

0101101
*
Ed
 1e-07 1 1 0
1  5 0 0 752
2  9 2 0 0 752
2  10 5 0 0 752
0

0101000
-323 0 +332 0 *
Ve
1e-07
676 1240 1302.8
0 0

0101101
*
Ed
 1e-07 1 1 0
1  6 0 0 448.8
2  11 6 0 0 448.8
2  12 2 0 0 448.8
0

0101000
-321 0 +323 0 *
Ed
 1e-07 1 1 0
1  7 0 0 752
2  13 2 0 0 752
2  14 3 0 0 752
0

0101000
-321 0 +333 0 *
Wi

0101100
-322 0 -320 0 +331 0 +319 0 *
Ve
1.5e-07
247.5 1240 1024
0 0

0101101
*
Ve
1.5e-07
252.5 1240 1024
0 0

0101101
*
Ed
 1e-07 1 1 0
1  8 0 4.71238898038469 7.85398163397448
2  15 2 0 4.71238898038469 7.85398163397448
2  16 7 0 4.71238898038469 7.85398163397448
0

0101000
+317 0 -316 0 *
Ve
1.5e-07
247.5 1240 1014
0 0

0101101
*
Ed
 1.5e-07 1 1 0
1  9 0 -90 -80
2  17 2 0 -90 -80
2  18 8 0 -90 -80
0

0101000
+317 0 -314 0 *
Ve
1.5e-07
252.5 1240 1014
0 0

0101101
*
Ed
 1.5e-07 1 1 0
1  10 0 -90 -80
2  19 2 0 -90 -80
2  20 9 0 -90 -80
0

0101000
+316 0 -312 0 *
Ed
 1e-07 1 1 0
1  11 0 1.5707963267949 4.71238898038469
2  21 2 0 1.5707963267949 4.71238898038469
2  22 10 0 1.5707963267949 4.71238898038469
0

0101000
+312 0 -314 0 *
Wi

0101100
-315 0 +313 0 -311 0 -310 0 *
Ve
1.5e-07
260 1240 1036.5
0 0

0101101
*
Ve
1.5e-07
265 1240 1036.5
0 0

0101101
*
Ed
 1e-07 1 1 0
1  12 0 4.71238898038469 7.85398163397448
2  23 2 0 4.71238898038469 7.85398163397448
2  24 11 0 4.71238898038469 7.85398163397448
0

0101000
+308 0 -307 0 *
Ve
1.5e-07
260 1240 1026.5
0 0

0101101
*
Ed
 1.5e-07 1 1 0
1  13 0 -96.25 -86.25
2  25 2 0 -96.25 -86.25
2  26 12 0 -96.25 -86.25
0

0101000
+308 0 -305 0 *
Ve
1.5e-07
265 1240 1026.5
0 0

0101101
*
Ed
 1.5e-07 1 1 0
1  14 0 -96.25 -86.25
2  27 2 0 -96.25 -86.25
2  28 13 0 -96.25 -86.25
0

0101000
+307 0 -303 0 *
Ed
 1e-07 1 1 0
1  15 0 1.5707963267949 4.71238898038469
2  29 2 0 1.5707963267949 4.71238898038469
2  30 14 0 1.5707963267949 4.71238898038469
0

0101000
+303 0 -305 0 *
Wi

0101100
-306 0 +304 0 -302 0 -301 0 *
Ve
1.5e-07
260 1240 1111.5
0 0

0101101
*
Ve
1.5e-07
265 1240 1111.5
0 0

0101101
*
Ed
 1e-07 1 1 0
1  16 0 4.71238898038469 7.85398163397448
2  31 2 0 4.71238898038469 7.85398163397448
2  32 15 0 4.71238898038469 7.85398163397448
0

0101000
+299 0 -298 0 *
Ve
1.5e-07
260 1240 1101.5
0 0

0101101
*
Ed
 1.5e-07 1 1 0
1  17 0 -133.75 -123.75
2  33 2 0 -133.75 -123.75
2  34 16 0 -133.75 -123.75
0

0101000
+299 0 -296 0 *
Ve
1.5e-07
265 1240 1101.5
0 0

0101101
*
Ed
 1.5e-07 1 1 0
1  18 0 -133.75 -123.75
2  35 2 0 -133.75 -123.75
2  36 17 0 -133.75 -123.75
0

0101000
+298 0 -294 0 *
Ed
 1e-07 1 1 0
1  19 0 1.5707963267949 4.71238898038469
2  37 2 0 1.5707963267949 4.71238898038469
2  38 18 0 1.5707963267949 4.71238898038469
0

0101000
+294 0 -296 0 *
Wi

0101100
-297 0 +295 0 -293 0 -292 0 *
Ve
1.5e-07
247.5 1240 1124
0 0

0101101
*
Ve
1.5e-07
252.5 1240 1124
0 0

0101101
*
Ed
 1e-07 1 1 0
1  20 0 4.71238898038469 7.85398163397448
2  39 2 0 4.71238898038469 7.85398163397448
2  40 19 0 4.71238898038469 7.85398163397448
0

0101000
+290 0 -289 0 *
Ve
1.5e-07
247.5 1240 1114
0 0

0101101
*
Ed
 1.5e-07 1 1 0
1  21 0 -140 -130
2  41 2 0 -140 -130
2  42 20 0 -140 -130
0

0101000
+290 0 -287 0 *
Ve
1.5e-07
252.5 1240 1114
0 0

0101101
*
Ed
 1.5e-07 1 1 0
1  22 0 -140 -130
2  43 2 0 -140 -130
2  44 21 0 -140 -130
0

0101000
+289 0 -285 0 *
Ed
 1e-07 1 1 0
1  23 0 1.5707963267949 4.71238898038469
2  45 2 0 1.5707963267949 4.71238898038469
2  46 22 0 1.5707963267949 4.71238898038469
0

0101000
+285 0 -287 0 *
Wi

0101100
-288 0 +286 0 -284 0 -283 0 *
Ve
1.5e-07
108 1240 985
0 0

0101101
*
Ve
1.5e-07
492 1240 985
0 0

0101101
*
Ed
 1.5e-07 1 1 0
1  24 0 92 476
2  47 2 0 92 476
2  48 23 0 92 476
0

0101000
+281 0 -280 0 *
Ve
1.5e-07
100 1240 977
0 0

0101101
*
Ed
 1e-07 1 1 0
1  25 0 4.71238898038469 6.28318530717959
2  49 2 0 4.71238898038469 6.28318530717959
2  50 24 0 4.71238898038469 6.28318530717959
0

0101000
+278 0 -281 0 *
Ve
1.5e-07
500 1240 977
0 0

0101101
*
Ed
 1e-07 1 1 0
1  26 0 0 1.5707963267949
2  51 2 0 0 1.5707963267949
2  52 25 0 0 1.5707963267949
0

0101000
+280 0 -276 0 *
Ve
1.5e-07
100 1240 893
0 0

0101101
*
Ed
 1.5e-07 1 1 0
1  27 0 -103.5 -19.5
2  53 2 0 -103.5 -19.5
2  54 26 0 -103.5 -19.5
0

0101000
+278 0 -274 0 *
Ve
1.5e-07
500 1240 893
0 0

0101101
*
Ed
 1.5e-07 1 1 0
1  28 0 -103.5 -19.5
2  55 2 0 -103.5 -19.5
2  56 27 0 -103.5 -19.5
0

0101000
+276 0 -272 0 *
Ve
1.5e-07
108 1240 885
0 0

0101101
*
Ed
 1e-07 1 1 0
1  29 0 3.14159265358979 4.71238898038469
2  57 2 0 3.14159265358979 4.71238898038469
2  58 28 0 3.14159265358979 4.71238898038469
0

0101000
+270 0 -274 0 *
Ve
1.5e-07
492 1240 885
0 0

0101101
*
Ed
 1e-07 1 1 0
1  30 0 1.5707963267949 3.14159265358979
2  59 2 0 1.5707963267949 3.14159265358979
2  60 29 0 1.5707963267949 3.14159265358979
0

0101000
+272 0 -268 0 *
Ed
 1.5e-07 1 1 0
1  31 0 92 476
2  61 2 0 92 476
2  62 30 0 92 476
0

0101000
+270 0 -268 0 *
Wi

0101100
-279 0 -277 0 -275 0 +273 0 -271 0 -269 0 -267 0 +266 0 *
Ve
1.5e-07
335 1240 1036.5
0 0

0101101
*
Ve
1.5e-07
340 1240 1036.5
0 0

0101101
*
Ed
 1e-07 1 1 0
1  32 0 4.71238898038469 7.85398163397448
2  63 2 0 4.71238898038469 7.85398163397448
2  64 31 0 4.71238898038469 7.85398163397448
0

0101000
+264 0 -263 0 *
Ve
1.5e-07
335 1240 1026.5
0 0

0101101
*
Ed
 1.5e-07 1 1 0
1  33 0 -96.25 -86.25
2  65 2 0 -96.25 -86.25
2  66 32 0 -96.25 -86.25
0

0101000
+264 0 -261 0 *
Ve
1.5e-07
340 1240 1026.5
0 0

0101101
*
Ed
 1.5e-07 1 1 0
1  34 0 -96.25 -86.25
2  67 2 0 -96.25 -86.25
2  68 33 0 -96.25 -86.25
0

0101000
+263 0 -259 0 *
Ed
 1e-07 1 1 0
1  35 0 1.5707963267949 4.71238898038469
2  69 2 0 1.5707963267949 4.71238898038469
2  70 34 0 1.5707963267949 4.71238898038469
0

0101000
+259 0 -261 0 *
Wi

0101100
-262 0 +260 0 -258 0 -257 0 *
Ve
1.5e-07
347.5 1240 1024
0 0

0101101
*
Ve
1.5e-07
352.5 1240 1024
0 0

0101101
*
Ed
 1e-07 1 1 0
1  36 0 4.71238898038469 7.85398163397448
2  71 2 0 4.71238898038469 7.85398163397448
2  72 35 0 4.71238898038469 7.85398163397448
0

0101000
+255 0 -254 0 *
Ve
1.5e-07
347.5 1240 1014
0 0

0101101
*
Ed
 1.5e-07 1 1 0
1  37 0 -90 -80
2  73 2 0 -90 -80
2  74 36 0 -90 -80
0

0101000
+255 0 -252 0 *
Ve
1.5e-07
352.5 1240 1014
0 0

0101101
*
Ed
 1.5e-07 1 1 0
1  38 0 -90 -80
2  75 2 0 -90 -80
2  76 37 0 -90 -80
0

0101000
+254 0 -250 0 *
Ed
 1e-07 1 1 0
1  39 0 1.5707963267949 4.71238898038469
2  77 2 0 1.5707963267949 4.71238898038469
2  78 38 0 1.5707963267949 4.71238898038469
0

0101000
+250 0 -252 0 *
Wi

0101100
-253 0 +251 0 -249 0 -248 0 *
Ve
1.5e-07
335 1240 1111.5
0 0

0101101
*
Ve
1.5e-07
340 1240 1111.5
0 0

0101101
*
Ed
 1e-07 1 1 0
1  40 0 4.71238898038469 7.85398163397448
2  79 2 0 4.71238898038469 7.85398163397448
2  80 39 0 4.71238898038469 7.85398163397448
0

0101000
+246 0 -245 0 *
Ve
1.5e-07
335 1240 1101.5
0 0

0101101
*
Ed
 1.5e-07 1 1 0
1  41 0 -133.75 -123.75
2  81 2 0 -133.75 -123.75
2  82 40 0 -133.75 -123.75
0

0101000
+246 0 -243 0 *
Ve
1.5e-07
340 1240 1101.5
0 0

0101101
*
Ed
 1.5e-07 1 1 0
1  42 0 -133.75 -123.75
2  83 2 0 -133.75 -123.75
2  84 41 0 -133.75 -123.75
0

0101000
+245 0 -241 0 *
Ed
 1e-07 1 1 0
1  43 0 1.5707963267949 4.71238898038469
2  85 2 0 1.5707963267949 4.71238898038469
2  86 42 0 1.5707963267949 4.71238898038469
0

0101000
+241 0 -243 0 *
Wi

0101100
-244 0 +242 0 -240 0 -239 0 *
Ve
1.5e-07
347.5 1240 1124
0 0

0101101
*
Ve
1.5e-07
352.5 1240 1124
0 0

0101101
*
Ed
 1e-07 1 1 0
1  44 0 4.71238898038469 7.85398163397448
2  87 2 0 4.71238898038469 7.85398163397448
2  88 43 0 4.71238898038469 7.85398163397448
0

0101000
+237 0 -236 0 *
Ve
1.5e-07
352.5 1240 1114
0 0

0101101
*
Ed
 1.5e-07 1 1 0
1  45 0 -140 -130
2  89 2 0 -140 -130
2  90 44 0 -140 -130
0

0101000
+236 0 -234 0 *
Ve
1.5e-07
347.5 1240 1114
0 0

0101101
*
Ed
 1e-07 1 1 0
1  46 0 1.5707963267949 4.71238898038469
2  91 2 0 1.5707963267949 4.71238898038469
2  92 45 0 1.5707963267949 4.71238898038469
0

0101000
+234 0 -232 0 *
Ed
 1.5e-07 1 1 0
1  47 0 -140 -130
2  93 2 0 -140 -130
2  94 46 0 -140 -130
0

0101000
+237 0 -232 0 *
Wi

0101100
-235 0 -233 0 -231 0 +230 0 *
Fa
0  1e-07 2 0

0101000
+318 0 +309 0 +300 0 +291 0 +282 0 +265 0 +256 0 +247 0 +238 0 +229 0 
*
Ve
1e-07
676 1258 1302.8
0 0

0101101
*
Ed
 1e-07 1 1 0
1  48 0 0 752
2  95 4 0 0 752
2  96 3 0 0 752
0

0101000
-227 0 +330 0 *
Ed
 1e-07 1 1 0
1  49 0 0 18
2  97 6 0 0 18
2  98 3 0 0 18
0

0101000
-227 0 +321 0 *
Wi

0101100
-329 0 -226 0 +225 0 +319 0 *
Fa
0  1e-07 3 0

0111000
+224 0 *
Ve
1e-07
676 1258 854
0 0

0101101
*
Ed
 1e-07 1 1 0
1  50 0 0 752
2  99 4 0 0 752
2  100 5 0 0 752
0

0101000
-222 0 +328 0 *
Ed
 1e-07 1 1 0
1  51 0 0 448.8
2  101 6 0 0 448.8
2  102 4 0 0 448.8
0

0101000
-227 0 +222 0 *
Wi

0101100
-221 0 -220 0 +327 0 +226 0 *
Ve
1.5e-07
247.5 1258 1024
0 0

0101101
*
Ve
1.5e-07
252.5 1258 1024
0 0

0101101
*
Ed
 1e-07 1 1 0
1  52 0 4.71238898038469 7.85398163397448
2  103 4 0 4.71238898038469 7.85398163397448
2  104 7 0 4.71238898038469 7.85398163397448
0

0101000
+218 0 -217 0 *
Ve
1.5e-07
247.5 1258 1014
0 0

0101101
*
Ed
 1.5e-07 1 1 0
1  53 0 -90 -80
2  105 4 0 -90 -80
2  106 8 0 -90 -80
0

0101000
+218 0 -215 0 *
Ve
1.5e-07
252.5 1258 1014
0 0

0101101
*
Ed
 1.5e-07 1 1 0
1  54 0 -90 -80
2  107 4 0 -90 -80
2  108 9 0 -90 -80
0

0101000
+217 0 -213 0 *
Ed
 1e-07 1 1 0
1  55 0 1.5707963267949 4.71238898038469
2  109 4 0 1.5707963267949 4.71238898038469
2  110 10 0 1.5707963267949 4.71238898038469
0

0101000
+213 0 -215 0 *
Wi

0101100
-216 0 +214 0 -212 0 -211 0 *
Ve
1.5e-07
260 1258 1036.5
0 0

0101101
*
Ve
1.5e-07
265 1258 1036.5
0 0

0101101
*
Ed
 1e-07 1 1 0
1  56 0 4.71238898038469 7.85398163397448
2  111 4 0 4.71238898038469 7.85398163397448
2  112 11 0 4.71238898038469 7.85398163397448
0

0101000
+209 0 -208 0 *
Ve
1.5e-07
260 1258 1026.5
0 0

0101101
*
Ed
 1.5e-07 1 1 0
1  57 0 -96.25 -86.25
2  113 4 0 -96.25 -86.25
2  114 12 0 -96.25 -86.25
0

0101000
+209 0 -206 0 *
Ve
1.5e-07
265 1258 1026.5
0 0

0101101
*
Ed
 1.5e-07 1 1 0
1  58 0 -96.25 -86.25
2  115 4 0 -96.25 -86.25
2  116 13 0 -96.25 -86.25
0

0101000
+208 0 -204 0 *
Ed
 1e-07 1 1 0
1  59 0 1.5707963267949 4.71238898038469
2  117 4 0 1.5707963267949 4.71238898038469
2  118 14 0 1.5707963267949 4.71238898038469
0

0101000
+204 0 -206 0 *
Wi

0101100
-207 0 +205 0 -203 0 -202 0 *
Ve
1.5e-07
260 1258 1111.5
0 0

0101101
*
Ve
1.5e-07
265 1258 1111.5
0 0

0101101
*
Ed
 1e-07 1 1 0
1  60 0 4.71238898038469 7.85398163397448
2  119 4 0 4.71238898038469 7.85398163397448
2  120 15 0 4.71238898038469 7.85398163397448
0

0101000
+200 0 -199 0 *
Ve
1.5e-07
260 1258 1101.5
0 0

0101101
*
Ed
 1.5e-07 1 1 0
1  61 0 -133.75 -123.75
2  121 4 0 -133.75 -123.75
2  122 16 0 -133.75 -123.75
0

0101000
+200 0 -197 0 *
Ve
1.5e-07
265 1258 1101.5
0 0

0101101
*
Ed
 1.5e-07 1 1 0
1  62 0 -133.75 -123.75
2  123 4 0 -133.75 -123.75
2  124 17 0 -133.75 -123.75
0

0101000
+199 0 -195 0 *
Ed
 1e-07 1 1 0
1  63 0 1.5707963267949 4.71238898038469
2  125 4 0 1.5707963267949 4.71238898038469
2  126 18 0 1.5707963267949 4.71238898038469
0

0101000
+195 0 -197 0 *
Wi

0101100
-198 0 +196 0 -194 0 -193 0 *
Ve
1.5e-07
247.5 1258 1124
0 0

0101101
*
Ve
1.5e-07
252.5 1258 1124
0 0

0101101
*
Ed
 1e-07 1 1 0
1  64 0 4.71238898038469 7.85398163397448
2  127 4 0 4.71238898038469 7.85398163397448
2  128 19 0 4.71238898038469 7.85398163397448
0

0101000
+191 0 -190 0 *
Ve
1.5e-07
247.5 1258 1114
0 0

0101101
*
Ed
 1.5e-07 1 1 0
1  65 0 -140 -130
2  129 4 0 -140 -130
2  130 20 0 -140 -130
0

0101000
+191 0 -188 0 *
Ve
1.5e-07
252.5 1258 1114
0 0

0101101
*
Ed
 1.5e-07 1 1 0
1  66 0 -140 -130
2  131 4 0 -140 -130
2  132 21 0 -140 -130
0

0101000
+190 0 -186 0 *
Ed
 1e-07 1 1 0
1  67 0 1.5707963267949 4.71238898038469
2  133 4 0 1.5707963267949 4.71238898038469
2  134 22 0 1.5707963267949 4.71238898038469
0

0101000
+186 0 -188 0 *
Wi

0101100
-189 0 +187 0 -185 0 -184 0 *
Ve
1.5e-07
108 1258 985
0 0

0101101
*
Ve
1.5e-07
492 1258 985
0 0

0101101
*
Ed
 1.5e-07 1 1 0
1  68 0 92 476
2  135 4 0 92 476
2  136 23 0 92 476
0

0101000
+182 0 -181 0 *
Ve
1.5e-07
100 1258 977
0 0

0101101
*
Ed
 1e-07 1 1 0
1  69 0 4.71238898038469 6.28318530717959
2  137 4 0 4.71238898038469 6.28318530717959
2  138 24 0 4.71238898038469 6.28318530717959
0

0101000
+179 0 -182 0 *
Ve
1.5e-07
500 1258 977
0 0

0101101
*
Ed
 1e-07 1 1 0
1  70 0 0 1.5707963267949
2  139 4 0 0 1.5707963267949
2  140 25 0 0 1.5707963267949
0

0101000
+181 0 -177 0 *
Ve
1.5e-07
100 1258 893
0 0

0101101
*
Ed
 1.5e-07 1 1 0
1  71 0 -103.5 -19.5
2  141 4 0 -103.5 -19.5
2  142 26 0 -103.5 -19.5
0

0101000
+179 0 -175 0 *
Ve
1.5e-07
500 1258 893
0 0

0101101
*
Ed
 1.5e-07 1 1 0
1  72 0 -103.5 -19.5
2  143 4 0 -103.5 -19.5
2  144 27 0 -103.5 -19.5
0

0101000
+177 0 -173 0 *
Ve
1.5e-07
108 1258 885
0 0

0101101
*
Ed
 1e-07 1 1 0
1  73 0 3.14159265358979 4.71238898038469
2  145 4 0 3.14159265358979 4.71238898038469
2  146 28 0 3.14159265358979 4.71238898038469
0

0101000
+171 0 -175 0 *
Ve
1.5e-07
492 1258 885
0 0

0101101
*
Ed
 1e-07 1 1 0
1  74 0 1.5707963267949 3.14159265358979
2  147 4 0 1.5707963267949 3.14159265358979
2  148 29 0 1.5707963267949 3.14159265358979
0

0101000
+173 0 -169 0 *
Ed
 1.5e-07 1 1 0
1  75 0 92 476
2  149 4 0 92 476
2  150 30 0 92 476
0

0101000
+171 0 -169 0 *
Wi

0101100
-180 0 -178 0 -176 0 +174 0 -172 0 -170 0 -168 0 +167 0 *
Ve
1.5e-07
335 1258 1036.5
0 0

0101101
*
Ve
1.5e-07
340 1258 1036.5
0 0

0101101
*
Ed
 1e-07 1 1 0
1  76 0 4.71238898038469 7.85398163397448
2  151 4 0 4.71238898038469 7.85398163397448
2  152 31 0 4.71238898038469 7.85398163397448
0

0101000
+165 0 -164 0 *
Ve
1.5e-07
335 1258 1026.5
0 0

0101101
*
Ed
 1.5e-07 1 1 0
1  77 0 -96.25 -86.25
2  153 4 0 -96.25 -86.25
2  154 32 0 -96.25 -86.25
0

0101000
+165 0 -162 0 *
Ve
1.5e-07
340 1258 1026.5
0 0

0101101
*
Ed
 1.5e-07 1 1 0
1  78 0 -96.25 -86.25
2  155 4 0 -96.25 -86.25
2  156 33 0 -96.25 -86.25
0

0101000
+164 0 -160 0 *
Ed
 1e-07 1 1 0
1  79 0 1.5707963267949 4.71238898038469
2  157 4 0 1.5707963267949 4.71238898038469
2  158 34 0 1.5707963267949 4.71238898038469
0

0101000
+160 0 -162 0 *
Wi

0101100
-163 0 +161 0 -159 0 -158 0 *
Ve
1.5e-07
347.5 1258 1024
0 0

0101101
*
Ve
1.5e-07
352.5 1258 1024
0 0

0101101
*
Ed
 1e-07 1 1 0
1  80 0 4.71238898038469 7.85398163397448
2  159 4 0 4.71238898038469 7.85398163397448
2  160 35 0 4.71238898038469 7.85398163397448
0

0101000
+156 0 -155 0 *
Ve
1.5e-07
347.5 1258 1014
0 0

0101101
*
Ed
 1.5e-07 1 1 0
1  81 0 -90 -80
2  161 4 0 -90 -80
2  162 36 0 -90 -80
0

0101000
+156 0 -153 0 *
Ve
1.5e-07
352.5 1258 1014
0 0

0101101
*
Ed
 1.5e-07 1 1 0
1  82 0 -90 -80
2  163 4 0 -90 -80
2  164 37 0 -90 -80
0

0101000
+155 0 -151 0 *
Ed
 1e-07 1 1 0
1  83 0 1.5707963267949 4.71238898038469
2  165 4 0 1.5707963267949 4.71238898038469
2  166 38 0 1.5707963267949 4.71238898038469
0

0101000
+151 0 -153 0 *
Wi

0101100
-154 0 +152 0 -150 0 -149 0 *
Ve
1.5e-07
335 1258 1111.5
0 0

0101101
*
Ve
1.5e-07
340 1258 1111.5
0 0

0101101
*
Ed
 1e-07 1 1 0
1  84 0 4.71238898038469 7.85398163397448
2  167 4 0 4.71238898038469 7.85398163397448
2  168 39 0 4.71238898038469 7.85398163397448
0

0101000
+147 0 -146 0 *
Ve
1.5e-07
335 1258 1101.5
0 0

0101101
*
Ed
 1.5e-07 1 1 0
1  85 0 -133.75 -123.75
2  169 4 0 -133.75 -123.75
2  170 40 0 -133.75 -123.75
0

0101000
+147 0 -144 0 *
Ve
1.5e-07
340 1258 1101.5
0 0

0101101
*
Ed
 1.5e-07 1 1 0
1  86 0 -133.75 -123.75
2  171 4 0 -133.75 -123.75
2  172 41 0 -133.75 -123.75
0

0101000
+146 0 -142 0 *
Ed
 1e-07 1 1 0
1  87 0 1.5707963267949 4.71238898038469
2  173 4 0 1.5707963267949 4.71238898038469
2  174 42 0 1.5707963267949 4.71238898038469
0

0101000
+142 0 -144 0 *
Wi

0101100
-145 0 +143 0 -141 0 -140 0 *
Ve
1.5e-07
347.5 1258 1124
0 0

0101101
*
Ve
1.5e-07
352.5 1258 1124
0 0

0101101
*
Ed
 1e-07 1 1 0
1  88 0 4.71238898038469 7.85398163397448
2  175 4 0 4.71238898038469 7.85398163397448
2  176 43 0 4.71238898038469 7.85398163397448
0

0101000
+138 0 -137 0 *
Ve
1.5e-07
352.5 1258 1114
0 0

0101101
*
Ed
 1.5e-07 1 1 0
1  89 0 -140 -130
2  177 4 0 -140 -130
2  178 44 0 -140 -130
0

0101000
+137 0 -135 0 *
Ve
1.5e-07
347.5 1258 1114
0 0

0101101
*
Ed
 1e-07 1 1 0
1  90 0 1.5707963267949 4.71238898038469
2  179 4 0 1.5707963267949 4.71238898038469
2  180 45 0 1.5707963267949 4.71238898038469
0

0101000
+135 0 -133 0 *
Ed
 1.5e-07 1 1 0
1  91 0 -140 -130
2  181 4 0 -140 -130
2  182 46 0 -140 -130
0

0101000
+138 0 -133 0 *
Wi

0101100
-136 0 -134 0 -132 0 +131 0 *
Fa
0  1e-07 4 0

0101000
+219 0 +210 0 +201 0 +192 0 +183 0 +166 0 +157 0 +148 0 +139 0 +130 0 
*
Ed
 1e-07 1 1 0
1  92 0 0 18
2  183 6 0 0 18
2  184 5 0 0 18
0

0101000
-222 0 +323 0 *
Wi

0101100
-326 0 -221 0 +128 0 +322 0 *
Fa
0  1e-07 5 0

0111000
+127 0 *
Wi

0101100
-320 0 -225 0 +220 0 +128 0 *
Fa
0  1e-07 6 0

0111000
+125 0 *
Ed
 1e-07 1 1 0
1  93 0 1 19
2  185 9 0 1 19
2  186 47 0 1 19
2  187 7 0 1 19
0

0101000
+316 0 -217 0 *
Ed
 1e-07 1 1 0
1  94 0 1 19
2  188 8 0 1 19
2  189 47 0 1 19
2  190 7 0 1 19
0

0101000
+317 0 -218 0 *
Wi

0101100
-216 0 +123 0 +315 0 -122 0 *
Fa
0  1e-07 7 0

0101000
+121 0 *
Ed
 1e-07 1 1 0
1  95 0 1 19
2  191 8 0 1 19
2  192 48 0 1 19
2  193 10 0 1 19
0

0101000
+314 0 -215 0 *
Wi

0101100
+313 0 -122 0 -214 0 +119 0 *
Fa
0  1e-07 8 0

0101000
+118 0 *
Ed
 1e-07 1 1 0
1  96 0 1 19
2  194 9 0 1 19
2  195 48 0 1 19
2  196 10 0 1 19
0

0101000
+312 0 -213 0 *
Wi

0101100
+311 0 -123 0 -212 0 +116 0 *
Fa
0  1e-07 9 0

0101000
+115 0 *
Wi

0101100
-211 0 +119 0 +310 0 -116 0 *
Fa
0  1e-07 10 0

0101000
+113 0 *
Ed
 1e-07 1 1 0
1  97 0 1 19
2  197 13 0 1 19
2  198 49 0 1 19
2  199 11 0 1 19
0

0101000
+307 0 -208 0 *
Ed
 1e-07 1 1 0
1  98 0 1 19
2  200 12 0 1 19
2  201 49 0 1 19
2  202 11 0 1 19
0

0101000
+308 0 -209 0 *
Wi

0101100
-207 0 +111 0 +306 0 -110 0 *
Fa
0  1e-07 11 0

0101000
+109 0 *
Ed
 1e-07 1 1 0
1  99 0 1 19
2  203 12 0 1 19
2  204 50 0 1 19
2  205 14 0 1 19
0

0101000
+305 0 -206 0 *
Wi

0101100
+304 0 -110 0 -205 0 +107 0 *
Fa
0  1e-07 12 0

0101000
+106 0 *
Ed
 1e-07 1 1 0
1  100 0 1 19
2  206 13 0 1 19
2  207 50 0 1 19
2  208 14 0 1 19
0

0101000
+303 0 -204 0 *
Wi

0101100
+302 0 -111 0 -203 0 +104 0 *
Fa
0  1e-07 13 0

0101000
+103 0 *
Wi

0101100
-202 0 +107 0 +301 0 -104 0 *
Fa
0  1e-07 14 0

0101000
+101 0 *
Ed
 1e-07 1 1 0
1  101 0 1 19
2  209 17 0 1 19
2  210 51 0 1 19
2  211 15 0 1 19
0

0101000
+298 0 -199 0 *
Ed
 1e-07 1 1 0
1  102 0 1 19
2  212 16 0 1 19
2  213 51 0 1 19
2  214 15 0 1 19
0

0101000
+299 0 -200 0 *
Wi

0101100
-198 0 +99 0 +297 0 -98 0 *
Fa
0  1e-07 15 0

0101000
+97 0 *
Ed
 1e-07 1 1 0
1  103 0 1 19
2  215 16 0 1 19
2  216 52 0 1 19
2  217 18 0 1 19
0

0101000
+296 0 -197 0 *
Wi

0101100
+295 0 -98 0 -196 0 +95 0 *
Fa
0  1e-07 16 0

0101000
+94 0 *
Ed
 1e-07 1 1 0
1  104 0 1 19
2  218 17 0 1 19
2  219 52 0 1 19
2  220 18 0 1 19
0

0101000
+294 0 -195 0 *
Wi

0101100
+293 0 -99 0 -194 0 +92 0 *
Fa
0  1e-07 17 0

0101000
+91 0 *
Wi

0101100
-193 0 +95 0 +292 0 -92 0 *
Fa
0  1e-07 18 0

0101000
+89 0 *
Ed
 1e-07 1 1 0
1  105 0 1 19
2  221 21 0 1 19
2  222 53 0 1 19
2  223 19 0 1 19
0

0101000
+289 0 -190 0 *
Ed
 1e-07 1 1 0
1  106 0 1 19
2  224 20 0 1 19
2  225 53 0 1 19
2  226 19 0 1 19
0

0101000
+290 0 -191 0 *
Wi

0101100
-189 0 +87 0 +288 0 -86 0 *
Fa
0  1e-07 19 0

0101000
+85 0 *
Ed
 1e-07 1 1 0
1  107 0 1 19
2  227 20 0 1 19
2  228 54 0 1 19
2  229 22 0 1 19
0

0101000
+287 0 -188 0 *
Wi

0101100
+286 0 -86 0 -187 0 +83 0 *
Fa
0  1e-07 20 0

0101000
+82 0 *
Ed
 1e-07 1 1 0
1  108 0 1 19
2  230 21 0 1 19
2  231 54 0 1 19
2  232 22 0 1 19
0

0101000
+285 0 -186 0 *
Wi

0101100
+284 0 -87 0 -185 0 +80 0 *
Fa
0  1e-07 21 0

0101000
+79 0 *
Wi

0101100
-184 0 +83 0 +283 0 -80 0 *
Fa
0  1e-07 22 0

0101000
+77 0 *
Ed
 1e-07 1 1 0
1  109 0 1 19
2  233 55 0 1 19
2  234 23 0 1 19
3  235 236C0 24 0 1 19
0

0101000
+281 0 -182 0 *
Ed
 1e-07 1 1 0
1  110 0 1 19
2  237 56 0 1 19
2  238 23 0 1 19
3  239 240C0 25 0 1 19
0

0101000
+280 0 -181 0 *
Wi

0101100
-75 0 -180 0 +74 0 +279 0 *
Fa
0  1e-07 23 0

0101000
+73 0 *
Ed
 1e-07 1 1 0
1  111 0 1 19
2  241 26 0 1 19
2  242 57 0 1 19
2  243 24 0 1 19
0

0101000
+278 0 -179 0 *
Wi

0101100
-178 0 +75 0 +277 0 -71 0 *
Fa
0  1e-07 24 0

0101000
+70 0 *
Ed
 1e-07 1 1 0
1  112 0 1 19
2  244 27 0 1 19
2  245 57 0 1 19
2  246 25 0 1 19
0

0101000
+276 0 -177 0 *
Wi

0101100
-176 0 +68 0 +275 0 -74 0 *
Fa
0  1e-07 25 0

0101000
+67 0 *
Ed
 1e-07 1 1 0
1  113 0 1 19
2  247 26 0 1 19
2  248 58 0 1 19
2  249 28 0 1 19
0

0101000
+274 0 -175 0 *
Wi

0101100
+273 0 -71 0 -174 0 +65 0 *
Fa
0  1e-07 26 0

0101000
+64 0 *
Ed
 1e-07 1 1 0
1  114 0 1 19
2  250 27 0 1 19
2  251 58 0 1 19
2  252 29 0 1 19
0

0101000
+272 0 -173 0 *
Wi

0101100
+271 0 -68 0 -172 0 +62 0 *
Fa
0  1e-07 27 0

0101000
+61 0 *
Ed
 1e-07 1 1 0
1  115 0 1 19
2  253 55 0 1 19
2  254 30 0 1 19
2  255 28 0 1 19
0

0101000
+270 0 -171 0 *
Wi

0101100
-170 0 +65 0 +269 0 -59 0 *
Fa
0  1e-07 28 0

0101000
+58 0 *
Ed
 1e-07 1 1 0
1  116 0 1 19
2  256 56 0 1 19
2  257 30 0 1 19
2  258 29 0 1 19
0

0101000
+268 0 -169 0 *
Wi

0101100
-168 0 +56 0 +267 0 -62 0 *
Fa
0  1e-07 29 0

0101000
+55 0 *
Wi

0101100
-59 0 -167 0 +56 0 +266 0 *
Fa
0  1e-07 30 0

0101000
+53 0 *
Ed
 1e-07 1 1 0
1  117 0 1 19
2  259 33 0 1 19
2  260 59 0 1 19
2  261 31 0 1 19
0

0101000
+263 0 -164 0 *
Ed
 1e-07 1 1 0
1  118 0 1 19
2  262 32 0 1 19
2  263 59 0 1 19
2  264 31 0 1 19
0

0101000
+264 0 -165 0 *
Wi

0101100
-163 0 +51 0 +262 0 -50 0 *
Fa
0  1e-07 31 0

0101000
+49 0 *
Ed
 1e-07 1 1 0
1  119 0 1 19
2  265 32 0 1 19
2  266 60 0 1 19
2  267 34 0 1 19
0

0101000
+261 0 -162 0 *
Wi

0101100
+260 0 -50 0 -161 0 +47 0 *
Fa
0  1e-07 32 0

0101000
+46 0 *
Ed
 1e-07 1 1 0
1  120 0 1 19
2  268 33 0 1 19
2  269 60 0 1 19
2  270 34 0 1 19
0

0101000
+259 0 -160 0 *
Wi

0101100
+258 0 -51 0 -159 0 +44 0 *
Fa
0  1e-07 33 0

0101000
+43 0 *
Wi

0101100
-158 0 +47 0 +257 0 -44 0 *
Fa
0  1e-07 34 0

0101000
+41 0 *
Ed
 1e-07 1 1 0
1  121 0 1 19
2  271 37 0 1 19
2  272 61 0 1 19
2  273 35 0 1 19
0

0101000
+254 0 -155 0 *
Ed
 1e-07 1 1 0
1  122 0 1 19
2  274 36 0 1 19
2  275 61 0 1 19
2  276 35 0 1 19
0

0101000
+255 0 -156 0 *
Wi

0101100
-154 0 +39 0 +253 0 -38 0 *
Fa
0  1e-07 35 0

0101000
+37 0 *
Ed
 1e-07 1 1 0
1  123 0 1 19
2  277 36 0 1 19
2  278 62 0 1 19
2  279 38 0 1 19
0

0101000
+252 0 -153 0 *
Wi

0101100
+251 0 -38 0 -152 0 +35 0 *
Fa
0  1e-07 36 0

0101000
+34 0 *
Ed
 1e-07 1 1 0
1  124 0 1 19
2  280 37 0 1 19
2  281 62 0 1 19
2  282 38 0 1 19
0

0101000
+250 0 -151 0 *
Wi

0101100
+249 0 -39 0 -150 0 +32 0 *
Fa
0  1e-07 37 0

0101000
+31 0 *
Wi

0101100
-149 0 +35 0 +248 0 -32 0 *
Fa
0  1e-07 38 0

0101000
+29 0 *
Ed
 1e-07 1 1 0
1  125 0 1 19
2  283 41 0 1 19
2  284 63 0 1 19
2  285 39 0 1 19
0

0101000
+245 0 -146 0 *
Ed
 1e-07 1 1 0
1  126 0 1 19
2  286 40 0 1 19
2  287 63 0 1 19
2  288 39 0 1 19
0

0101000
+246 0 -147 0 *
Wi

0101100
-145 0 +27 0 +244 0 -26 0 *
Fa
0  1e-07 39 0

0101000
+25 0 *
Ed
 1e-07 1 1 0
1  127 0 1 19
2  289 40 0 1 19
2  290 64 0 1 19
2  291 42 0 1 19
0

0101000
+243 0 -144 0 *
Wi

0101100
+242 0 -26 0 -143 0 +23 0 *
Fa
0  1e-07 40 0

0101000
+22 0 *
Ed
 1e-07 1 1 0
1  128 0 1 19
2  292 41 0 1 19
2  293 64 0 1 19
2  294 42 0 1 19
0

0101000
+241 0 -142 0 *
Wi

0101100
+240 0 -27 0 -141 0 +20 0 *
Fa
0  1e-07 41 0

0101000
+19 0 *
Wi

0101100
-140 0 +23 0 +239 0 -20 0 *
Fa
0  1e-07 42 0

0101000
+17 0 *
Ed
 1e-07 1 1 0
1  129 0 1 19
2  295 44 0 1 19
2  296 65 0 1 19
2  297 43 0 1 19
0

0101000
+236 0 -137 0 *
Ed
 1e-07 1 1 0
1  130 0 1 19
2  298 46 0 1 19
2  299 65 0 1 19
2  300 43 0 1 19
0

0101000
+237 0 -138 0 *
Wi

0101100
-136 0 +15 0 +235 0 -14 0 *
Fa
0  1e-07 43 0

0101000
+13 0 *
Ed
 1e-07 1 1 0
1  131 0 1 19
2  301 44 0 1 19
2  302 66 0 1 19
2  303 45 0 1 19
0

0101000
+234 0 -135 0 *
Wi

0101100
+233 0 -15 0 -134 0 +11 0 *
Fa
0  1e-07 44 0

0101000
+10 0 *
Ed
 1e-07 1 1 0
1  132 0 1 19
2  304 46 0 1 19
2  305 66 0 1 19
2  306 45 0 1 19
0

0101000
+232 0 -133 0 *
Wi

0101100
-132 0 +8 0 +231 0 -11 0 *
Fa
0  1e-07 45 0

0101000
+7 0 *
Wi

0101100
+230 0 -14 0 -131 0 +8 0 *
Fa
0  1e-07 46 0

0101000
+5 0 *
Sh

0101100
-324 0 -228 0 +223 0 +129 0 -126 0 +124 0 -120 0 +117 0 -114 0 -112 0 
-108 0 +105 0 -102 0 -100 0 -96 0 +93 0 -90 0 -88 0 -84 0 +81 0 
-78 0 -76 0 -72 0 -69 0 -66 0 +63 0 -60 0 -57 0 -54 0 +52 0 
-48 0 +45 0 -42 0 -40 0 -36 0 +33 0 -30 0 -28 0 -24 0 +21 0 
-18 0 -16 0 -12 0 -9 0 -6 0 +4 0 *
So

0100000
+3 0 *
Co

1100000
+2 0 *

+1 0 