DBRep_DrawableShape

CASCADE Topology V1, (c) Matra-Datavision
Locations 17
1
              1               0               0               0 
              0               1               0               0 
              0               0               1               0 
1
              1               0               0               0 
              0               1               0               0 
              0               0               1               0 
2  1 1 2 1 0
2  2 -1 1 -1 0
1
              1               0               0              18 
              0               1               0               0 
              0               0               1               0 
2  5 -1 0
2  2 -1 1 -1 5 -1 0
1
1.11022302462516e-16              -1               0               0 
              1 1.11022302462516e-16               0               0 
              0               0               1               0 
2  8 -1 0
2  1 -1 0
1
1.11022302462516e-16              -1               0               0 
              1 1.11022302462516e-16               0               0 
              0               0               1               0 
2  5 1 1 1 2 1 0
2  11 -1 0
2  2 -1 0
1
1.11022302462516e-16              -1               0               0 
              1 1.11022302462516e-16               0               0 
              0               0               1               0 
2  15 -1 0
2  11 1 2 -1 0
Curve2ds 154
1 0 0 1 0 
1 -370.27444753653424 93.666007876056938 0 -1 
1 47.900000000000091 762 0 -1 
1 0 0 0 1 
1 47.400000000000091 -6 1 0 
8 0.5 162.59999999999991
1 1 -0.5 0 -1 
1 204 56.5 0 1 
1 361.9499999999997 -47.859363664628404 0 -1 
1 0 -18 1 0 
1 -370.27444753653424 93.666007876056938 0 -1 
1 0 0 0 -1 
1 725.23596849577177 0 0 -1 
8 -185.13722376826706 -167.13722376826706
1 -185.13722376826718 45.766007876056847 1 0 
8 -185.13722376826706 -167.13722376826706
1 185.13722376826706 762 1 0 
1 353.62555246346574 137.66600787605694 -0.9981578843937613 -0.060669908707453382 
1 0 0 1 0 
1 0 0 0 1 
1 0 4 1 0 
8 -18.5 -0.5
1 -0.5 768 -1 0 
8 -18.5 -0.5
1 0.5 -1 -1 -0 
1 18 0 0 1 
1 0 0 1 0 
8 42.300000000000068 43.200000000000045
1 60.300000000000068 766.00000000000034 -1 0 
8 42.300000000000068 43.200000000000045
1 60.299999999999955 47.400000000000091 1 0 
8 379.00000000000006 383.00000000000006
1 17.100000000000023 383.00000000000006 0 1 
8 379.00000000000006 383.00000000000006
1 144.00000000000009 383.00000000000006 1.1102230246251565e-16 -1 
8 0.5 162.59999999999991
1 19 -0.5 0 -1 
8 0.5 162.59999999999991
1 768 -0.5 0 1 
8 162.4749999999998 180.4749999999998
1 181.4749999999998 -157.09999999999945 -1 -0 
8 162.4749999999998 180.4749999999998
1 181.47499999999991 14.640636335371596 1 -0 
1 -361.95000000000027 -103.8593636646284 0 -1 
1 6 112.5 0 1 
1 362.4499999999997 26.640636335371596 -1 0 
1 -370.77444753653424 -110.33399212394306 1 0 
8 385.3203181676858 391.3203181676858
1 343.9499999999997 -376.6796818323142 0 1 
8 385.3203181676858 391.3203181676858
1 376.6796818323142 156.09999999999945 1 0 
8 -339.78777623173301 366.11222376826697
1 -4.1622237682672676 -110.33399212394261 -1 0 
8 -339.78777623173301 366.11222376826697
1 -4.1622237682672676 8.640636335371596 1 0 
8 385.3203181676858 391.3203181676858
1 -343.95000000000027 -376.6796818323142 0 1 
8 385.3203181676858 391.3203181676858
1 376.6796818323142 246.90592623290468 1 0 
8 -190.47500000000014 -172.47500000000014
1 -171.47500000000014 14.640636335371596 1 -0 
1 26.043642465886705 -163.29467337954316 1 0 
1 353.62555246346574 137.66600787605694 -0.9981578843937613 -0.060669908707453382 
1 0 -18 1 0 
1 353.62555246346574 -116.33399212394306 0 1 
1 0 -18 1 0 
1 120.60672498279459 -5.9999999999997726 1 -6.7357129548921016e-18 
8 -2.9999999999998774 3.0000000000001226
1 483.69101476689951 -3 0 -1 
8 -2.9999999999998774 3.0000000000001226
1 81.445489708523269 3.0000000000001226 1.1102230246251565e-16 -1 
8 -1.999999999999877 2.000000000000123
1 500.72238852629738 -2 0 -1 
8 -1.999999999999877 2.000000000000123
1 82.478781599668423 2.000000000000123 1.1102230246251565e-16 -1 
8 198.27815723017849 405.66017888872909
1 302.44423129611891 -4.0000000000003411 1 -6.7357129548921016e-18 
8 198.27815723017849 405.66017888872909
1 -301.41290594236852 -26.150736098168636 0.9981578843937613 0.060669908707453382 
8 -1.9999999999998757 2.0000000000001243
1 708.10441018484789 -2 0 -1 
8 -1.9999999999998757 2.0000000000001243
1 95.060629921259874 2.0000000000001243 1.1102230246251565e-16 -1 
1 0 0 0 -1 
1 254 0 0 -1 
1 0 0 0 1 
1 0 0 1 0 
8 23.700000000000045 74.900000000000091
1 766.00000000000034 -23.700000000000045 1.1102230246251565e-16 1 
8 23.700000000000045 74.900000000000091
1 102.60000000000002 23.700000000000045 0 1 
8 -6.0000002122251317e-07 4.0000006000000212
1 766.00000000000011 50.870329308849023 -1 1.1102230246251565e-16 
8 -6.0000002122251317e-07 4.0000006000000212
1 2.1531605646636578 1.8544380573903588e-16 0 1 
8 -139.21699606197149 22.883003938028423
1 -352.27444753653424 22.883003938028423 0 1 
8 -139.21699606197149 22.883003938028423
1 762 22.883003938028423 0 -1 
1 207 0 0 1 
1 0 0 1 0 
1 0 0 1 0 
2 0 0 1 0 -0 1 2
1 0 0 1 0 
1 0 197.20000000000005 1 0 
1 0 0 1 0 
2 0 0 1 0 -0 1 2
1 253.40592623290513 -6 -1 0 
1 0 4 1 0 
2 0 0 1 0 -0 1 2
1 0 -4 1 0 
1 0 197.20000000000005 1 0 
1 0 4 1 0 
2 0 0 1 0 -0 1 2
1 207 0 0 1 
1 0 4 1 0 
1 0 0 0 1 
1 0 6 1 0 
1 0 6 1 0 
2 0 0 1 0 -0 1 2
1 -127.17444753653422 71.766007876056847 1 0 
1 0 0 1 0 
8 -184.6199591784241 68.285967054481034
1 335.62555246346574 68.285967054481034 0 1 
8 -184.6199591784241 68.285967054481034
1 762 68.285967054481034 0 -1 
1 0 -4 1 0 
1 0 0 1 0 
1 0 4 1 0 
2 0 0 1 0 -0 1 2
1 0 0 0 1 
1 0 4 1 0 
1 0 4 1 0 
2 0 0 1 0 -0 1 2
1 0 -4 1 0 
1 0 18.400000000000091 1 0 
8 0.5 253.40592623290513
1 768 -0.5 0 1 
1 -146.43135753411343 84.11125285336152 0 -1 
8 -387 -381
1 462.79999999999995 -381 0 -1 
8 -387 -381
1 381 64.805926232905222 -1 0 
8 -383.00000000000006 -379.00000000000006
1 383.00000000000006 184.60592623290518 -1 1.1102230246251565e-16 
8 -383.00000000000006 -379.00000000000006
1 448.79999999999995 -383.00000000000006 0 -1 
8 87.702963116452565 106.10296311645266
1 766.00000000000023 96.902963116452611 1.1102230246251565e-16 1 
8 87.702963116452565 106.10296311645266
1 -215.79999999999973 -96.902963116452383 0 1 
8 -383.00000000000006 -379.00000000000006
1 383.00000000000006 203.00592623290527 -1 1.1102230246251565e-16 
8 -383.00000000000006 -379.00000000000006
1 448.79999999999995 -383.00000000000006 0 -1 
1 0 0 0 -1 
1 116 0 0 1 
1 3.1415926535897931 0 0 1 
1 0 0 0 1 
1 0 0 1 0 
1 207 0 0 -1 
1 193.20000000000005 0 0 1 
8 0 4
1 6.2831853071795862 -0 0 1 
8 0 4
1 0 0 0 1 
1 0 0 0 -1 
1 197.20000000000005 0 0 1 
1 1.5707963267948966 0 0 1 
1 203 0 0 -1 
1 197.20000000000005 0 0 1 
1 1.5707963267948966 0 0 1 
1 0 0 1 0 
2 0 0 1 0 -0 1 2
1 0 8 1 0 
1 0 0 0 1 
8 0 6
1 1.5707963267948966 6 -0 -1 
1 0 6 1 0 
1 316.36864246588652 18.805326620456299 -1 0 
1 0 0 1 0 
1 0 0 1 0 
1 0 0 0 -1 
1 0 0 0 1 
1 4.7123889803846897 0 0 1 
1 0 0 1 0 
2 0 0 1 0 -0 1 2
1 0 0 0 -1 
1 0 0 0 1 
1 3.1415926535897931 0 0 1 
1 0 0 0 -1 
1 14.400000000000091 0 0 1 
1 3.1415926535897931 0 0 1 
1 0 0 0 1 
1 0 0 1 0 
1 0 0 1 0 
2 0 0 1 0 -0 1 2
1 0 0 0 -1 
1 18.400000000000091 0 0 1 
1 1.5707963267948966 0 0 1 
1 0 0 1 0 
1 0 18.400000000000091 1 0 
Curves 73
1 672 1098.0999999999999 596.89999999999998 0 1 0 
1 -90 1146 596.89999999999998 1 0 -0 
1 678 1145.5 596.89999999999998 -0 1 0 
1 615.5 1302.0999999999999 596.89999999999998 -1 -0 0 
1 672 1098.0999999999999 596.89999999999998 0 1 0 
1 672 1098.0999999999999 596.89999999999998 1 0 0 
1 672 1146 782.03722376826704 0 -0 1 
1 672 1054.0999999999999 1320.8 0 0.060669908707453382 -0.9981578843937613 
1 1002 -672 614 1 0 -0 
1 678 1146 596.39999999999998 -0 0 -1 
1 -90 1146 614.89999999999998 1 0 -0 
1 676.00000000000034 1146 657.20000000000005 0 0 -1 
1 293.00000000000006 1146 614 1 0 0 
1 678 1145.5 614.89999999999998 -0 1 0 
1 678 1302.0999999999995 777.37499999999977 -0 0 -1 
1 559.5 1302.0999999999999 1320.8 -1 -0 0 
1 690 1302.0999999999999 596.39999999999998 0 0 1 
1 286.6796818323142 1302.0999999999995 614.89999999999998 1 0 0 
1 672 1302.0999999999995 963.01222376826695 0 0 -1 
1 286.6796818323142 1302.0999999999995 1302.8 1 0 0 
1 678 1302.0999999999995 1130.3249999999998 -0 0 -1 
1 672 1054.0999999999999 1320.8 0 0.060669908707453382 -0.9981578843937613 
1 672 1308.0999999999999 1320.8 0 -1 0 
1 677.99999999999977 1061.4171989942108 1200.4154465475135 6.7357129548921016e-18 0.060669908707453382 -0.9981578843937613 
1 675 1083.4454897085232 838 1 0 0 
1 674 1084.4787815996683 821 1 0 0 
1 676.00000000000034 1072.4492639018313 1018.9129059423685 6.7357129548921016e-18 0.060669908707453382 -0.9981578843937613 
1 674 1097.0606299212598 614 1 0 0 
1 672 1054.0999999999999 1320.8 1 0 0 
1 1002 -676 614 1 0 -0 
1 676.00000000000034 1122.3 614.89999999999998 1.1102230246251565e-16 1 -0 
1 676.00000000000011 1196.870329308849 614.89999999999998 -1 1.1102230246251565e-16 0 
1 672 1168.8830039380284 614.89999999999998 0 -1 0 
1 1002 -676 821 1 0 -0 
2 1195.2 -676 819 0 1 0 0 -0 1 1 0 -0 2
1 1197.2 -676 616 0 0 1 
2 1195.2 -676 616 0 1 0 0 -0 1 1 0 -0 2
1 678 1054.6940737670948 1320.8 0 1 0 
2 1195.2 -672 616 0 1 0 0 -0 1 1 0 -0 2
1 1197.2 -672 616 0 0 1 
2 1195.2 -672 819 0 1 0 0 -0 1 1 0 -0 2
1 1002 -672 821 1 0 -0 
1 1002 -672 838 1 0 -0 
2 1118 -672 840 0 1 0 0 -0 1 1 0 -0 2
1 672 1120 840 0 0 1 
1 672 1123.4800408215758 1302.8 0 -1 0 
1 1239.8 -672 854 0 0 1 
2 1241.8 -672 854 0 1 0 0 -0 1 1 0 -0 2
1 1241.8 -672 852 1 0 -0 
2 1256.2 -672 854 0 1 0 0 -0 1 1 0 -0 2
1 1258.2 -672 854 0 0 1 
1 678 1054.6940737670948 1302.8 -0 1 0 
1 291 1120 1302.8 -1 -0 0 
1 293.00000000000006 1239.8 1302.8 -1 1.1102230246251565e-16 0 
1 676.00000000000023 1152.0970368835474 1302.8 1.1102230246251565e-16 1 -0 
1 293.00000000000006 1258.2 1302.8 -1 1.1102230246251565e-16 0 
1 1118 -678 838 -0 1 0 
1 1002 -678 838 1 0 -0 
1 1195.2 -676 821 -0 1 0 
1 1197.2 -676 616 -0 1 0 
1 1197.2 -676 819 -0 1 0 
2 1118 -678 840 0 1 0 0 -0 1 1 0 -0 2
1 672 1120 840 1 0 -0 
1 678 1120 840 0 0 1 
1 1239.8 -676 854 0 0 1 
1 1239.8 -676 854 -0 1 0 
2 1241.8 -676 854 0 1 0 0 -0 1 1 0 -0 2
1 1241.8 -676 852 -0 1 0 
1 1256.2 -676 852 -0 1 0 
1 1241.8 -676 852 1 0 -0 
2 1256.2 -676 854 0 1 0 0 -0 1 1 0 -0 2
1 1258.2 -676 854 -0 1 0 
1 1258.2 -676 854 0 0 1 
Polygon3D 0
PolygonOnTriangulations 0
Surfaces 55
1 672 1098.0999999999999 596.89999999999998 0 0 1 0 1 0 -1 0 0 
1 672 1191.7660078760568 967.17444753653422 1 0 0 -0 0 1 0 -1 0 
1 -90 1146 596.89999999999998 -0 1 0 0 0 1 1 0 -0 
1 678 1145 595.89999999999998 1 0 -0 0 0 1 0 -1 0 
1 663.3593636646284 1302.0999999999995 958.84999999999968 -0 -1 -0 0 0 -1 1 -0 0 
1 672 1191.7660078760568 967.17444753653422 1 0 0 -0 0 1 0 -1 0 
1 672 1054.0999999999999 1320.8 -0 0.9981578843937613 0.060669908707453382 0 0.060669908707453382 -0.9981578843937613 -1 0 -0 
1 1002 -672 614 -0 1 0 0 0 1 1 0 -0 
1 1002 -676 614 0 0 1 1 0 -0 -0 1 0 
1 -90 1146 614.89999999999998 0 0 1 1 0 -0 -0 1 0 
1 1098.5999999999999 -676.00000000000023 717.5 -0 -1 -0 0 0 -1 1 -0 0 
1 672 1308.0999999999999 1320.8 0 0 -1 0 -1 0 -1 -0 -0 
1 -90 1055.1940737670948 1302.8 0 0 1 1 0 -0 -0 1 0 
1 678.00000000000011 1138.8053266204563 1156.3686424658865 -1 -0 -0 0 0 -1 0 -1 0 
1 1002 -678 838 0 0 1 1 0 -0 -0 1 0 
1 1002 -676 821 0 0 1 1 0 -0 -0 1 0 
1 1002 -676 614 -0 1 0 0 0 1 1 0 -0 
2 1195.2 -676 616 0 1 0 0 -0 1 1 0 -0 2
2 1195.2 -676 819 0 1 0 0 -0 1 1 0 -0 2
1 1195.2 -676 819 0 1 0 0 -0 1 1 0 -0 
1 1197.2 -676 616 1 0 -0 0 0 1 0 -1 0 
1 1000 -676 616 -0 1 0 0 0 1 1 0 -0 
1 1195.2 -676 616 0 1 0 0 -0 1 1 0 -0 
1 1195.2 -672 616 0 1 0 0 -0 1 1 0 -0 
1 1000 -672 616 -0 1 0 0 0 1 1 0 -0 
1 1195.2 -672 819 0 1 0 0 -0 1 1 0 -0 
1 1002 -672 838 -0 1 0 0 0 1 1 0 -0 
2 1118 -678 840 0 1 0 0 -0 1 1 0 -0 2
1 1118 -672 840 0 1 0 0 -0 1 1 0 -0 
1 672 1120 840 -0 1 0 0 0 1 1 0 -0 
1 1239.8 -676 854 1 0 -0 0 0 1 0 -1 0 
1 1239.8 -672 854 -0 1 0 0 0 1 1 0 -0 
2 1241.8 -676 854 0 1 0 0 -0 1 1 0 -0 2
1 1241.8 -672 854 0 1 0 0 -0 1 1 0 -0 
1 1241.8 -672 852 -0 1 0 0 0 1 1 0 -0 
1 1241.8 -676 852 0 0 1 1 0 -0 -0 1 0 
2 1256.2 -676 854 0 1 0 0 -0 1 1 0 -0 2
1 1256.2 -672 854 0 1 0 0 -0 1 1 0 -0 
1 1258.2 -676 854 1 0 -0 0 0 1 0 -1 0 
1 1248.9999999999998 -676.00000000000011 1087.0000000000002 -0 -1 -0 0 0 -1 1 -0 0 
1 1118 -678 838 1 0 -0 0 0 1 0 -1 0 
1 1002 -678 838 -0 1 0 0 0 1 1 0 -0 
1 1195.2 -676 614 1 0 -0 0 0 1 0 -1 0 
1 1000 -676 616 0 0 1 1 0 -0 -0 1 0 
1 1000 -676 819 0 0 1 1 0 -0 -0 1 0 
1 1118 -678 840 0 1 0 0 -0 1 1 0 -0 
1 672 1112 840 0 0 1 1 0 -0 -0 1 0 
1 1239.8 -676 854 -0 1 0 0 0 1 1 0 -0 
1 1239.8 -676 854 0 0 1 1 0 -0 -0 1 0 
1 1241.8 -676 854 0 1 0 0 -0 1 1 0 -0 
1 1241.8 -676 852 1 0 -0 0 0 1 0 -1 0 
1 1256.2 -676 852 1 0 -0 0 0 1 0 -1 0 
1 1241.8 -676 852 -0 1 0 0 0 1 1 0 -0 
1 1256.2 -676 854 0 1 0 0 -0 1 1 0 -0 
1 677.99999999999977 1126.1582611792021 1143.5928401243905 -1 7.5363438942805827e-16 -0 -7.5363438942805827e-16 -1 0 0 0 1 
Triangulations 0

TShapes 182
Ve
1e-07
672 1098.1 596.9
0 0

0101101
*
Ve
1.5e-07
672 1146 596.9
0 0

0101101
*
Ed
 1e-07 1 1 0
1  1 0 0 47.9000000000001
2  1 1 0 0 47.9000000000001
2  2 2 0 0 47.9000000000001
0

0101000
+182 4 -181 4 *
Ve
1.5e-07
678 1146 596.9
0 0

0101101
*
Ed
 1e-07 1 1 0
1  2 0 762 768
2  3 1 0 762 768
2  4 3 0 762 768
0

0101000
+181 4 -179 4 *
Ve
2.00000455e-07
678 1302.1 596.9
0 0

0101101
*
Ed
 1.5e-07 1 1 0
1  3 0 0.5 156.6
2  5 1 0 0.5 156.6
2  6 4 0 0.5 156.6
0

0101000
+179 4 -177 4 *
Ve
1.5e-07
690 1302.1 596.9
0 0

0101101
*
Ed
 1.5e-07 1 1 0
1  4 0 -74.5 -62.5
2  7 1 0 -74.5 -62.5
2  8 5 0 -74.5 -62.5
0

0101000
+175 4 -177 4 *
Ve
1e-07
690 1098.1 596.9
0 0

0101101
*
Ed
 1e-07 1 1 0
1  5 0 0 204
2  9 1 6 0 204
2  10 6 0 0 204
0

0101000
+173 7 -175 7 *
Ed
 1e-07 1 1 0
1  6 0 0 18
2  11 1 0 0 18
2  12 7 0 0 18
0

0101000
+182 4 -173 4 *
Wi

0101100
-180 0 -178 0 -176 0 +174 0 +172 5 +171 0 *
Fa
0  1e-07 1 0

0111000
+170 0 *
Ve
1.50000113686838e-07
672 1146 614
0 0

0101101
*
Ed
 1.5e-07 1 1 0
1  7 0 -185.137223768267 -168.037223768267
2  13 2 0 -185.137223768267 -168.037223768267
2  14 3 0 -185.137223768267 -168.037223768267
0

0101000
+181 4 -168 4 *
Ve
1.50000113686838e-07
672 1097.06062992126 614
0 0

0101101
*
Ed
 1e-07 1 1 0
1  8 0 708.104410184848 725.235968495772
2  15 2 0 708.104410184848 725.235968495772
2  16 7 0 708.104410184848 725.235968495772
0

0101000
+166 4 -182 4 *
Ed
 1.00000113686838e-07 1 1 0
1  9 0 95.0606299212599 144
2  17 8 0 95.0606299212599 144
2  18 9 0 95.0606299212599 144
0

0101000
+166 9 -168 9 *
Wi

0101100
+167 3 +180 3 +165 3 -164 8 *
Fa
0  1e-07 2 3

0101000
+163 0 *
Ve
1.5e-07
678 1146 614.9
0 0

0101101
*
Ed
 1.5e-07 1 1 0
1  10 0 -18.5 -0.5
2  19 3 0 -18.5 -0.5
2  20 4 0 -18.5 -0.5
0

0101000
+161 4 -179 4 *
Ve
1.5e-07
676 1146 614.9
0 0

0101101
*
Ed
 1e-07 1 1 0
1  11 0 766 768
2  21 3 0 766 768
2  22 10 0 766 768
0

0101000
+159 4 -161 4 *
Ve
1.50000227373675e-07
676 1146 614
0 0

0101101
*
Ed
 1.5e-07 1 1 0
1  12 0 42.3000000000001 43.2
2  23 3 3 42.3000000000001 43.2
2  24 11 8 42.3000000000001 43.2
0

0101000
+159 0 -157 0 *
Ed
 1.5e-07 1 1 0
1  13 0 379 383
2  25 3 3 379 383
2  26 9 8 379 383
0

0101000
+168 0 -157 0 *
Wi

0101100
-178 3 +160 3 +158 3 -156 0 +155 0 +167 3 *
Fa
0  1e-07 3 3

0101000
+154 0 *
Ve
2e-07
678 1302.1 614.9
0 0

0101101
*
Ed
 1.5e-07 1 1 0
1  14 0 0.5 156.599999999999
2  27 4 0 0.5 156.599999999999
2  28 10 0 0.5 156.599999999999
0

0101000
+161 4 -152 4 *
Ed
 2e-07 1 1 0
1  15 0 162.475 180.475
2  29 4 0 162.475 180.475
2  30 5 0 162.475 180.475
0

0101000
+152 4 -177 4 *
Wi

0101100
-151 0 -150 0 +176 0 +160 0 *
Fa
0  1e-07 4 0

0111000
+149 0 *
Ve
1.5e-07
690 1302.1 1320.8
0 0

0101101
*
Ve
2.00000455e-07
678 1302.1 1320.8
0 0

0101101
*
Ed
 1.5e-07 1 1 0
1  16 0 -130.5 -118.5
2  31 5 0 -130.5 -118.5
2  32 12 0 -130.5 -118.5
0

0101000
+147 4 -146 4 *
Ed
 1.5e-07 1 1 0
1  17 0 0.5 724.4
2  33 5 0 0.5 724.4
2  34 6 5 0.5 724.4
0

0101000
+175 4 -147 4 *
Ve
2e-07
672 1302.1 614.9
0 0

0101101
*
Ed
 2e-07 1 1 0
1  18 0 385.320318167686 391.320318167686
2  35 5 0 385.320318167686 391.320318167686
2  36 10 0 385.320318167686 391.320318167686
0

0101000
+143 4 -152 4 *
Ve
2e-07
672 1302.1 1302.8
0 0

0101101
*
Ed
 2e-07 1 1 0
1  19 0 -339.787776231733 348.112223768267
2  37 2 0 -339.787776231733 348.112223768267
2  38 5 0 -339.787776231733 348.112223768267
0

0101000
+141 4 -143 4 *
Ve
2e-07
678 1302.1 1302.8
0 0

0101101
*
Ed
 2e-07 1 1 0
1  20 0 385.320318167686 391.320318167686
2  39 5 0 385.320318167686 391.320318167686
2  40 13 0 385.320318167686 391.320318167686
0

0101000
+141 4 -139 4 *
Ed
 2e-07 1 1 0
1  21 0 -190.475 -172.475
2  41 5 0 -190.475 -172.475
2  42 14 10 -190.475 -172.475
0

0101000
+146 4 -139 4 *
Wi

0101100
+145 0 +144 0 -174 0 +150 0 +142 0 +140 0 -138 0 +137 0 *
Fa
0  1.5e-07 5 0

0111000
+136 0 *
Ve
1e-07
690 1054.1 1320.8
0 0

0101101
*
Ed
 1e-07 1 1 0
1  22 0 0 725.235968495772
2  43 6 0 0 725.235968495772
2  44 7 6 0 725.235968495772
0

0101000
+134 7 -173 7 *
Ed
 1e-07 1 1 0
1  23 0 6 254
2  45 6 0 6 254
2  46 12 6 6 254
0

0101000
+147 7 -134 7 *
Wi

0101100
+133 5 +132 5 +144 0 +172 5 *
Fa
0  1e-07 6 5

0111000
+131 0 *
Ve
2e-07
678 1054.1 1320.8
0 0

0101101
*
Ve
2e-07
678 1083.44548970852 838
0 0

0101101
*
Ed
 1e-07 1 1 0
1  24 0 -120.606724982795 363.084289784105
2  47 7 3 -120.606724982795 363.084289784105
0

0101000
+129 0 -128 0 *
Ve
1.50000113686838e-07
672 1083.44548970852 838
0 0

0101101
*
Ed
 1.5e-07 1 1 0
1  25 0 -2.99999999999988 3.00000000000012
2  48 7 3 -2.99999999999988 3.00000000000012
2  49 15 11 -2.99999999999988 3.00000000000012
0

0101000
+126 0 -128 0 *
Ve
1.50000113686838e-07
672 1084.47878159967 821
0 0

0101101
*
Ed
 1e-07 1 1 0
1  8 0 483.6910147669 500.722388526297
2  15 2 0 483.6910147669 500.722388526297
2  16 7 0 483.6910147669 500.722388526297
0

0101000
+126 4 -124 4 *
Ve
1.50000227373675e-07
676 1084.47878159967 821
0 0

0101101
*
Ed
 1.5e-07 1 1 0
1  26 0 -1.99999999999988 2.00000000000012
2  50 7 3 -1.99999999999988 2.00000000000012
2  51 16 8 -1.99999999999988 2.00000000000012
0

0101000
+124 0 -122 0 *
Ve
1.50000227373675e-07
676 1097.06062992126 614
0 0

0101101
*
Ed
 1.5e-07 1 1 0
1  27 0 198.278157230178 405.660178888729
2  52 7 3 198.278157230178 405.660178888729
2  53 11 8 198.278157230178 405.660178888729
0

0101000
+122 0 -120 0 *
Ed
 1.5e-07 1 1 0
1  28 0 -1.99999999999988 2.00000000000012
2  54 7 3 -1.99999999999988 2.00000000000012
2  55 9 8 -1.99999999999988 2.00000000000012
0

0101000
+166 0 -120 0 *
Ed
 1e-07 1 1 0
1  29 0 5.99999999999977 18
2  56 7 0 5.99999999999977 18
2  57 12 0 5.99999999999977 18
0

0101000
+129 4 -134 4 *
Wi

0101000
-127 0 +125 0 -123 3 -121 0 -119 0 +118 0 -165 3 -171 3 +133 12 +117 3 
*
Fa
0  1e-07 7 3

0101000
+116 0 *
Ed
 1e-07 1 1 0
1  30 0 95.0606299212599 144
2  58 17 0 95.0606299212599 144
2  59 9 0 95.0606299212599 144
0

0101000
+120 9 -157 9 *
Wi

0101100
+118 0 -164 8 -155 0 +114 8 *
Fa
0  1e-07 9 8

0101000
+113 0 *
Ve
1.50000227373675e-07
676 1196.87032930885 614.9
0 0

0101101
*
Ed
 1.5e-07 1 1 0
1  31 0 23.7 74.5703293088491
2  60 10 3 23.7 74.5703293088491
2  61 11 8 23.7 74.5703293088491
0

0101000
+159 0 -111 0 *
Ve
1.50001e-07
672 1196.87032930885 614.9
0 0

0101101
*
Ed
 1e-07 1 1 0
1  32 0 0 4.00000000000011
2  62 10 3 0 4.00000000000011
2  63 18 8 0 4.00000000000011
0

0101000
+111 0 -109 0 *
Ed
 1.5e-07 1 1 0
1  33 0 -133.216996061971 -27.9873253708206
2  64 2 0 -133.216996061971 -27.9873253708206
2  65 10 0 -133.216996061971 -27.9873253708206
0

0101000
+143 4 -109 4 *
Wi

0101100
-142 3 +151 3 +158 3 -110 0 -108 0 +107 3 *
Fa
0  1e-07 10 3

0101000
+106 0 *
Ve
1.00000079328311e-07
1195.2 -676 821
0 0

0101101
*
Ed
 1e-07 1 1 0
1  34 0 82.4787815996684 193.2
2  66 17 0 82.4787815996684 193.2
2  67 16 0 82.4787815996684 193.2
0

0101000
+122 9 -104 0 *
Ve
1e-07
1197.2 -676 819
0 0

0101101
*
Ed
 1e-07 1 1 0
1  35 0 0 1.5707963267949
2  68 19 0 0 1.5707963267949
2  69 20 0 0 1.5707963267949
0

0101000
+104 0 -102 0 *
Ve
1e-07
1197.2 -676 616
0 0

0101101
*
Ed
 1e-07 1 1 0
1  36 0 0 203
2  70 21 0 0 203
2  71 22 0 0 203
0

0101000
+100 0 -102 0 *
Ed
 1e-07 1 1 0
1  37 0 1.5707963267949 2.15316056466366
2  72 18 0 1.5707963267949 2.15316056466366
2  73 23 0 1.5707963267949 2.15316056466366
0

0101000
+100 0 -111 9 *
Wi

0101100
+119 0 -103 8 -101 8 +99 8 -98 8 +110 0 -156 0 +114 8 *
Fa
0  1e-07 11 8

0101000
+97 0 *
Ed
 1e-07 1 1 0
1  38 0 -0.594073767094869 247.405926232905
2  74 12 3 -0.594073767094869 247.405926232905
0

0101000
+129 0 -146 0 *
Wi

0101000
-117 3 +132 12 -145 3 +95 0 *
Fa
0  1e-07 12 3

0101000
+94 0 *
Ve
1.00000113686838e-07
672 1197.2 616
0 0

0101101
*
Ed
 1.00000113686838e-07 1 1 0
1  39 0 1.5707963267949 2.15316056466361
2  75 18 0 1.5707963267949 2.15316056466361
2  76 24 0 1.5707963267949 2.15316056466361
0

0101000
+92 9 -109 9 *
Ve
1.00000113686838e-07
672 1197.2 819
0 0

0101101
*
Ed
 1.00000113686838e-07 1 1 0
1  40 0 0 203
2  77 21 0 0 203
2  78 25 0 0 203
0

0101000
+92 9 -90 9 *
Ve
1.00000113686838e-07
672 1195.2 821
0 0

0101101
*
Ed
 1.00000113686838e-07 1 1 0
1  41 0 0 1.5707963267949
2  79 19 0 0 1.5707963267949
2  80 26 0 0 1.5707963267949
0

0101000
+88 9 -90 9 *
Ed
 1.00000113686838e-07 1 1 0
1  42 0 82.4787815996684 193.2
2  81 8 0 82.4787815996684 193.2
2  82 16 0 82.4787815996684 193.2
0

0101000
+124 9 -88 9 *
Ve
1.00000113686838e-07
672 1118 838
0 0

0101101
*
Ed
 1.00000113686838e-07 1 1 0
1  43 0 81.4454897085233 116
2  83 27 0 81.4454897085233 116
2  84 15 0 81.4454897085233 116
0

0101000
+126 13 -85 13 *
Ve
1.00000227373675e-07
672 1120 840
0 0

0101101
*
Ed
 1.00000113686838e-07 1 1 0
1  44 0 1.5707963267949 3.14159265358979
2  85 28 0 1.5707963267949 3.14159265358979
2  86 29 0 1.5707963267949 3.14159265358979
0

0101000
+83 13 -85 13 *
Ve
1.5e-07
672 1120 1302.8
0 0

0101101
*
Ed
 1.00000113686838e-07 1 1 0
1  45 0 0 462.8
2  87 2 1 0 462.8
2  88 30 0 0 462.8
0

0101000
+83 14 -81 14 *
Ve
1.50000113686838e-07
672 1239.8 1302.8
0 0

0101101
*
Ed
 1.5e-07 1 1 0
1  46 0 -116.319959178424 3.48004082157581
2  89 2 0 -116.319959178424 3.48004082157581
2  90 13 0 -116.319959178424 3.48004082157581
0

0101000
+79 4 -81 4 *
Ve
1.00000113686838e-07
672 1239.8 854
0 0

0101101
*
Ed
 1.00000113686838e-07 1 1 0
1  47 0 0 448.8
2  91 31 0 0 448.8
2  92 32 0 0 448.8
0

0101000
+77 16 -79 16 *
Ve
1.00000113686838e-07
672 1241.8 852
0 0

0101101
*
Ed
 1.00000113686838e-07 1 1 0
1  48 0 3.14159265358979 4.71238898038469
2  93 33 0 3.14159265358979 4.71238898038469
2  94 34 0 3.14159265358979 4.71238898038469
0

0101000
+75 16 -77 16 *
Ve
1.00000113686838e-07
672 1256.2 852
0 0

0101101
*
Ed
 1.00000113686838e-07 1 1 0
1  49 0 0 14.4000000000001
2  95 35 0 0 14.4000000000001
2  96 36 0 0 14.4000000000001
0

0101000
+75 16 -73 16 *
Ve
1.00000113686838e-07
672 1258.2 854
0 0

0101101
*
Ed
 1.00000113686838e-07 1 1 0
1  50 0 1.5707963267949 3.14159265358979
2  97 37 0 1.5707963267949 3.14159265358979
2  98 38 0 1.5707963267949 3.14159265358979
0

0101000
+71 16 -73 16 *
Ve
1.50000113686838e-07
672 1258.2 1302.8
0 0

0101101
*
Ed
 1.00000113686838e-07 1 1 0
1  51 0 0 448.8
2  99 39 0 0 448.8
2  100 32 0 0 448.8
0

0101000
+71 16 -69 16 *
Ed
 1.5e-07 1 1 0
1  46 0 -178.619959178424 -134.719959178424
2  89 2 0 -178.619959178424 -134.719959178424
2  90 13 0 -178.619959178424 -134.719959178424
0

0101000
+141 4 -69 4 *
Wi

0101100
-140 3 -107 3 +91 8 -89 8 +87 8 +86 8 +123 3 -84 11 +82 11 -80 2 
+78 3 +76 15 +74 15 -72 15 +70 15 -68 15 +67 3 *
Fa
0  1e-07 2 3

0101000
+66 0 *
Ve
2e-07
678 1120 1302.8
0 0

0101101
*
Ed
 2e-07 1 1 0
1  52 0 65.3059262329052 247.405926232905
2  101 13 0 65.3059262329052 247.405926232905
2  102 14 10 65.3059262329052 247.405926232905
0

0101000
+64 4 -139 4 *
Ed
 1.5e-07 1 1 0
1  53 0 -387 -381
2  103 30 0 -387 -381
2  104 13 1 -387 -381
0

0101000
+64 14 -81 14 *
Ve
1.50000113686838e-07
676 1239.8 1302.8
0 0

0101101
*
Ed
 1.5e-07 1 1 0
1  54 0 -383 -379
2  105 13 3 -383 -379
2  106 31 15 -383 -379
0

0101000
+61 0 -79 0 *
Ve
1.50000113686838e-07
676 1258.2 1302.8
0 0

0101101
*
Ed
 1.5e-07 1 1 0
1  55 0 87.7029631164526 106.102963116453
2  107 13 3 87.7029631164526 106.102963116453
2  108 40 15 87.7029631164526 106.102963116453
0

0101000
+61 0 -59 0 *
Ed
 1.5e-07 1 1 0
1  56 0 -383 -379
2  109 13 3 -383 -379
2  110 39 15 -383 -379
0

0101000
+59 0 -69 0 *
Wi

0101100
-138 3 +63 3 -62 2 +78 3 +60 0 -58 0 -57 0 +67 3 *
Fa
0  1e-07 13 3

0101000
+56 0 *
Ve
2e-07
1118 -678 838
0 0

0101101
*
Ed
 1e-07 1 1 0
1  57 0 0 6
2  111 41 0 0 6
2  112 15 0 0 6
2  113 28 0 0 6
0

0101000
+54 0 -85 13 *
Ed
 2e-07 1 1 0
1  58 0 81.4454897085233 116
2  114 42 0 81.4454897085233 116
2  115 15 0 81.4454897085233 116
0

0101000
+128 13 -54 0 *
Wi

0101100
+125 0 -84 11 +53 11 +52 11 *
Fa
0  1e-07 15 11

0101000
+51 0 *
Ed
 1e-07 1 1 0
1  59 0 0 4
2  116 43 0 0 4
2  117 16 0 0 4
3  118 119C0 19 0 0 4
0

0101000
+104 0 -88 9 *
Wi

0101100
+121 0 -86 8 +49 8 +103 8 *
Fa
0  1e-07 16 8

0101000
+48 0 *
Ed
 1e-07 1 1 0
1  60 0 0 4
2  120 21 0 0 4
2  121 44 0 0 4
2  122 18 0 0 4
0

0101000
+100 0 -92 9 *
Wi

0101100
-91 8 +108 0 +98 8 -46 8 *
Fa
0  1e-07 18 8

0101000
+45 0 *
Ed
 1e-07 1 1 0
1  61 0 0 4
2  123 21 0 0 4
2  124 45 0 0 4
2  125 19 0 0 4
0

0101000
+102 0 -90 9 *
Wi

0101100
-87 8 +43 8 +101 8 -49 8 *
Fa
0  1e-07 19 8

0101000
+42 0 *
Wi

0101100
-99 8 -43 8 +89 8 +46 8 *
Fa
0  1e-07 21 8

0101000
+40 0 *
Ve
2e-07
678 1120 840
0 0

0101101
*
Ed
 2e-07 1 1 0
1  62 0 1.5707963267949 3.14159265358979
2  126 28 0 1.5707963267949 3.14159265358979
2  127 46 0 1.5707963267949 3.14159265358979
0

0101000
+38 13 -54 0 *
Ed
 1e-07 1 1 0
1  63 0 0 6
2  128 47 0 0 6
2  129 30 0 0 6
2  130 28 17 0 6
0

0101000
+83 14 -38 14 *
Wi

0101100
-82 11 +53 11 +37 11 +36 2 *
Fa
0  1e-07 28 11

0101000
+35 0 *
Ed
 2e-07 1 1 0
1  64 0 0 462.8
2  131 30 0 0 462.8
2  132 14 0 0 462.8
0

0101000
+38 14 -64 14 *
Wi

0101100
-36 2 -33 2 -62 2 +80 2 *
Fa
0  1e-07 30 2

0101000
+32 0 *
Ve
1e-07
1239.8 -676 854
0 0

0101101
*
Ed
 1e-07 1 1 0
1  65 0 0 448.8
2  133 31 0 0 448.8
2  134 48 0 0 448.8
0

0101000
+30 0 -61 16 *
Ed
 1e-07 1 1 0
1  66 0 0 4
2  135 31 0 0 4
2  136 49 0 0 4
2  137 33 0 0 4
0

0101000
+30 0 -77 16 *
Wi

0101100
-29 15 -60 0 +76 15 +28 15 *
Fa
0  1e-07 31 15

0101000
+27 0 *
Ve
1.00000079328311e-07
1241.8 -676 852
0 0

0101101
*
Ed
 1e-07 1 1 0
1  67 0 3.14159265358979 4.71238898038469
2  138 33 0 3.14159265358979 4.71238898038469
2  139 50 0 3.14159265358979 4.71238898038469
0

0101000
+25 0 -30 0 *
Ed
 1e-07 1 1 0
1  68 0 0 4
2  140 51 0 0 4
2  141 36 0 0 4
2  142 33 0 0 4
0

0101000
+25 0 -75 16 *
Wi

0101100
-74 15 +28 15 +24 15 -23 15 *
Fa
0  1e-07 33 15

0101000
+22 0 *
Ve
1.00000079328311e-07
1256.2 -676 852
0 0

0101101
*
Ed
 1e-07 1 1 0
1  69 0 0 4
2  143 52 0 0 4
2  144 36 0 0 4
2  145 37 0 0 4
0

0101000
+20 0 -73 16 *
Ed
 1e-07 1 1 0
1  70 0 0 14.4000000000001
2  146 53 0 0 14.4000000000001
2  147 36 0 0 14.4000000000001
0

0101000
+25 0 -20 0 *
Wi

0101100
-23 15 -72 15 +19 15 +18 15 *
Fa
0  1e-07 36 15

0101000
+17 0 *
Ve
1e-07
1258.2 -676 854
0 0

0101101
*
Ed
 1e-07 1 1 0
1  71 0 1.5707963267949 3.14159265358979
2  148 37 0 1.5707963267949 3.14159265358979
2  149 54 0 1.5707963267949 3.14159265358979
0

0101000
+15 0 -20 0 *
Ed
 1e-07 1 1 0
1  72 0 0 4
2  150 39 0 0 4
2  151 49 0 0 4
2  152 37 0 0 4
0

0101000
+15 0 -71 16 *
Wi

0101100
-70 15 +19 15 +14 15 -13 15 *
Fa
0  1e-07 37 15

0101000
+12 0 *
Ed
 1e-07 1 1 0
1  73 0 0 448.8
2  153 39 0 0 448.8
2  154 48 0 0 448.8
0

0101000
+15 0 -59 16 *
Wi

0101100
-10 15 -57 0 +68 15 +13 15 *
Fa
0  1e-07 39 15

0101000
+9 0 *
Wi

0101100
-24 15 -29 15 -58 0 +10 15 -14 15 +18 15 *
Fa
0  1e-07 40 15

0101000
+7 0 *
Wi

0101000
-63 3 -33 2 +37 11 -52 11 -127 0 +95 0 +137 3 *
Fa
0  2e-07 55 0

0111000
+5 0 *
Sh

0101000
-169 3 -162 0 +153 0 -148 3 -135 3 +130 3 -115 0 +112 0 -105 0 -96 0 
-93 0 -65 0 +55 0 +50 0 -47 0 -44 0 -41 0 -39 0 -34 0 -31 0 
+26 0 -21 0 +16 0 -11 0 -8 0 -6 0 +4 0 *
So

0100000
+3 0 *
Co

0100000
+2 0 *

+1 0 