DBRep_DrawableShape

CASCADE Topology V1, (c) Matra-Datavision
Locations 8
1
              1               0               0               0 
              0               1               0               0 
              0               0               1               0 
1
              1               0               0               0 
              0               1               0               0 
              0               0               1               0 
2  1 1 2 1 0
2  2 -1 1 -1 0
1
              1               0               0               0 
              0               1               0               0 
              0               0               1               0 
1
              1               0               0               0 
              0               1               0               0 
              0               0               1               0 
2  5 1 6 1 0
2  6 -1 5 -1 0
Curve2ds 16
1 5.5 246.90592623290513 -1 0 
1 -8.9999999999997726 -384.5 0 -1 
8 1 19
1 0 -247.90592623290513 1 0 
1 -9.9999999999997726 -378 1 0 
1 9.0000000000002274 259.5 0 -1 
1 649.5 246.90592623290513 -1 0 
1 -9.9999999999997726 378 1 0 
8 1 19
1 0 -247.90592623290513 1 0 
1 0 0 0 1 
1 0 0 1 0 
8 -18.5 -0.5
1 -0.5 768 -1 0 
8 -18.5 -0.5
1 0.5 -1 -1 -0 
1 18 0 0 1 
1 0 0 1 0 
8 -18.5 -0.5
1 -0.5 12 -1 0 
8 -18.5 -0.5
1 0.5 -1 -1 -0 
Curves 12
1 -84.5 1302.0999999999999 1302.8 -1 -0 0 
1 -78 1302.0999999999999 1301.8 0 0 1 
1 559.5 1302.0999999999999 1320.8 -1 -0 0 
1 678 1302.0999999999999 1301.8 0 0 1 
1 678 1054.6940737670948 1302.8 0 1 0 
1 -90 1055.1940737670948 1302.8 1 0 -0 
1 -78 1054.6940737670948 1302.8 0 1 0 
1 678 1055.1940737670948 1302.3 -0 0 -1 
1 -90 1055.1940737670948 1320.8 1 0 -0 
1 -78 1055.1940737670948 1302.3 -0 0 -1 
1 -78 1054.6940737670948 1320.8 0 1 0 
1 678 1054.6940737670948 1320.8 0 1 0 
Polygon3D 0
PolygonOnTriangulations 0
Surfaces 14
1 300 1302.0999999999997 1311.7999999999997 0 1 0 0 -0 1 1 0 -0 
1 -90 1055.1940737670948 1302.8 0 0 1 1 0 -0 -0 1 0 
1 -78 1054.1940737670948 1301.8 1 0 -0 0 0 1 0 -1 0 
1 -90 1055.1940737670948 1320.8 0 0 1 1 0 -0 -0 1 0 
1 678 1054.1940737670948 1301.8 1 0 -0 0 0 1 0 -1 0 
1 299.99999999999994 1178.6470368835473 1302.8 -0 -0 -1 -1 0 0 0 1 -0 
1 -90 1055.1940737670948 1302.8 -0 1 0 0 0 1 1 0 -0 
1 -90 1055.1940737670948 1302.8 0 0 1 1 0 -0 -0 1 0 
1 678 1054.1940737670948 1301.8 1 0 -0 0 0 1 0 -1 0 
1 -90 1055.1940737670948 1320.8 0 0 1 1 0 -0 -0 1 0 
1 -78 1054.1940737670948 1301.8 1 0 -0 0 0 1 0 -1 0 
1 -78 1178.6470368835471 1311.7999999999997 -1 -0 -0 0 0 -1 0 -1 0 
1 678.00000000000011 1178.6470368835476 1311.8 1 0 0 -0 0 1 0 -1 0 
1 300.00000000000006 1178.6470368835473 1320.8 0 0 1 1 0 -0 -0 1 0 
Triangulations 0

TShapes 35
Ve
1.5e-07
678 1302.1 1302.8
0 0

0101101
*
Ve
1.5e-07
-78 1302.1 1302.8
0 0

0101101
*
Ed
 1.5e-07 1 1 0
1  1 0 -762.5 -6.5
2  1 2 0 -762.5 -6.5
2  2 1 0 -762.5 -6.5
0

0101000
+35 4 -34 4 *
Ve
1.5e-07
-78 1302.1 1320.8
0 0

0101101
*
Ed
 1.5e-07 1 1 0
1  2 0 1 19
2  3 3 0 1 19
2  4 1 0 1 19
0

0101000
+34 4 -32 4 *
Ve
1.5e-07
678 1302.1 1320.8
0 0

0101101
*
Ed
 1.5e-07 1 1 0
1  3 0 -118.5 637.5
2  5 1 0 -118.5 637.5
2  6 4 0 -118.5 637.5
0

0101000
+30 4 -32 4 *
Ed
 1.5e-07 1 1 0
1  4 0 1 19
2  7 1 0 1 19
2  8 5 0 1 19
0

0101000
+35 4 -30 4 *
Wi

0101000
+33 0 +31 0 -29 0 -28 0 *
Fa
0  1.5e-07 1 0

0111000
+27 0 *
Ve
1.5e-07
678 1055.19407376709 1302.8
0 0

0101101
*
Ed
 1e-07 1 1 0
1  5 0 0.5 247.405926232905
0

0101000
+25 0 -35 0 *
Ve
1.5e-07
-78 1055.19407376709 1302.8
0 0

0101101
*
Ed
 1.5e-07 1 1 0
1  6 0 12 768
2  9 7 0 12 768
2  10 8 0 12 768
0

0101000
+23 8 -25 8 *
Ed
 1e-07 1 1 0
1  7 0 0.5 247.405926232905
0

0101000
+23 0 -34 0 *
Wi

0101000
-33 3 -24 0 -22 7 +21 0 *
Fa
0  1.5e-07 6 0

0111000
+20 0 *
Ve
1.5e-07
678 1055.19407376709 1320.8
0 0

0101101
*
Ed
 1.5e-07 1 1 0
1  8 0 -18.5 -0.5
2  11 7 0 -18.5 -0.5
2  12 9 0 -18.5 -0.5
0

0101000
+18 8 -25 8 *
Ve
1.5e-07
-78 1055.19407376709 1320.8
0 0

0101101
*
Ed
 1.5e-07 1 1 0
1  9 0 12 768
2  13 7 0 12 768
2  14 10 0 12 768
0

0101000
+16 8 -18 8 *
Ed
 1.5e-07 1 1 0
1  10 0 -18.5 -0.5
2  15 7 0 -18.5 -0.5
2  16 11 0 -18.5 -0.5
0

0101000
+16 8 -23 8 *
Wi

0101100
-22 0 +17 0 +15 0 -14 0 *
Fa
0  1e-07 7 0

0111000
+13 0 *
Ed
 1e-07 1 1 0
1  11 0 0.5 247.405926232905
0

0101000
+16 0 -32 0 *
Wi

0101000
-31 3 -21 0 -14 7 +11 0 *
Fa
0  1.5e-07 12 0

0111000
+10 0 *
Ed
 1e-07 1 1 0
1  12 0 0.5 247.405926232905
0

0101000
+18 0 -30 0 *
Wi

0101000
-8 0 +17 7 +24 0 +28 3 *
Fa
0  1.5e-07 13 0

0111000
+7 0 *
Wi

0101000
+8 0 +29 3 -11 0 +15 7 *
Fa
0  1.5e-07 14 0

0111000
+5 0 *
Sh

0101000
+26 3 +19 0 -12 7 +9 0 +6 0 +4 0 *
So

0100000
+3 0 *
Co

1100000
+2 0 *

+1 0 