DBRep_DrawableShape

CASCADE Topology V1, (c) Matra-Datavision
Locations 19
1
              1               0               0               0 
              0               1               0               0 
              0               0               1               0 
1
              1               0               0               0 
              0               1               0               0 
              0               0               1               0 
2  1 1 2 1 0
1
              1               0               0               0 
              0               1               0               0 
              0               0               1               0 
1
              1               0               0               0 
              0               1               0               0 
              0               0               1               0 
2  4 1 5 1 0
2  1 -1 5 -1 4 -1 0
1
              1               0               0              18 
              0               1               0               0 
              0               0               1               0 
2  1 -1 5 -1 4 -1 8 -1 0
1
              0              -1               0               0 
              1               0               0               0 
              0               0               1               0 
2  1 -1 10 -1 0
2  1 -1 0
2  8 1 4 1 5 1 0
1
              0              -1               0               0 
              1               0               0               0 
              0               0               1               0 
2  1 -1 14 -1 0
2  1 -1 5 -1 0
1
              0              -1               0               0 
              1               0               0               0 
              0               0               1               0 
2  1 -1 17 -1 0
2  14 1 5 -1 0
Curve2ds 20
1 2.1531605646636578 1.9000000000000001e-16 0 1 
1 0 0 1 0 
1 0 0 1 0 
1 0 4 1 0 
1 0 4 1 0 
1 0 6 1 0 
1 0 4 1 0 
1 0 4 1 0 
1 3.1415926535897931 0 0 1 
1 0 0 0 1 
1 1.5707963267948966 0 0 1 
1 1.5707963267948966 0 0 1 
1 0 0 1 0 
1 1.5707963267948966 6 -0 -1 
1 4.7123889803846897 0 0 1 
1 0 0 1 0 
1 3.1415926535897931 0 0 1 
1 3.1415926535897931 0 0 1 
1 0 0 1 0 
1 1.5707963267948966 0 0 1 
Curves 75
1 723.90000000000009 44 1.1368683772161603e-13 0 1 0 
1 723.89999999999998 91.900000000000091 -761.99999999999989 2.2204460492503136e-16 0 1 
1 723.90000000000009 91.400000000000091 6.0000000000001137 0 1 0 
1 723.90000000000009 248 -56.499999999999886 -2.2204460492503136e-16 0 -1 
1 705.90000000000009 44 18.000000000000114 0 1 0 
1 723.90000000000009 44 1.1368683772161603e-13 2.2204460492503136e-16 0 1 
1 538.76277623173303 91.900000000000091 2.2737367544323206e-13 -1 0 2.2204460492503136e-16 
1 2.2737367544323206e-13 0 3.4106051316484809e-13 0.9981578843937613 0.060669908707453382 -2.2163557309301785e-16 
1 -52.099999999999909 -706.80000000000007 1.1368683772161603e-13 1 0 0 
1 724.40000000000009 91.900000000000091 6.0000000000001137 1 0 -2.2204460492503136e-16 
1 705.89999999999998 91.900000000000091 -761.99999999999989 2.2204460492503136e-16 0 1 
1 663.60000000000002 91.900000000000091 4.0000000000004547 1 0 -2.2204460492503136e-16 
1 706.80000000000007 91.900000000000091 -378.99999999999983 2.2204460492503136e-16 0 1 
1 705.90000000000009 91.400000000000091 6.0000000000001137 0 1 0 
1 543.4250000000003 247.99999999999955 6.0000000000002274 1 0 -2.2204460492503136e-16 
1 2.2737367544323206e-13 248 -112.49999999999966 -2.2204460492503136e-16 0 -1 
1 724.40000000000009 248 18.000000000000114 -1 0 2.2204460492503136e-16 
1 705.90000000000009 247.99999999999955 -385.32031816768568 2.2204460492503136e-16 0 1 
1 357.78777623173312 247.99999999999955 2.2737367544323206e-13 1 0 -2.2204460492503136e-16 
1 18 247.99999999999955 -385.32031816768551 2.2204460492503136e-16 0 1 
1 190.47500000000036 247.99999999999955 6.0000000000002274 1 0 -2.2204460492503136e-16 
1 -17.999999999999773 0 18.000000000000341 0.9981578843937613 0.060669908707453382 -2.2163557309301785e-16 
1 -17.999999999999773 254 18.000000000000341 0 -1 0 
1 120.38455345248667 7.3171989942109121 6 0.9981578843937613 0.060669908707453382 -2.1163557309301786e-16 
1 482.80000000000007 29.345489708523246 3.0000000000002274 2.2204460492503136e-16 0 1 
1 2.2737367544323206e-13 0 3.4106051316484809e-13 0.9981578843937613 0.060669908707453382 -2.2163557309301785e-16 
1 499.80000000000007 30.3787815996684 2.0000000000002274 2.2204460492503136e-16 0 1 
1 301.88709405763154 18.349263901831364 4.0000000000005684 0.9981578843937613 0.060669908707453382 -2.1163557309301786e-16 
1 706.80000000000007 42.960629921259851 2.0000000000001137 2.2204460492503136e-16 0 1 
1 2.2737367544323206e-13 0 3.4106051316484809e-13 2.2204460492503136e-16 0 1 
1 -52.099999999999909 -706.80000000000007 4.0000000000001137 1 0 0 
1 705.90000000000009 68.200000000000045 4.0000000000004547 2.4424906541753449e-32 1 1.1e-16 
1 705.90000000000009 142.77032930884911 4.0000000000002274 -2.2204460492503136e-16 1.1e-16 -1 
1 705.90000000000009 114.78300393802851 1.1368683772161603e-13 0 -1 0 
1 -52.099999999999909 -499.80000000000007 4.0000000000002274 1 0 0 
2 141.10000000000014 -501.80000000000007 4.0000000000002274 0 2.2204460492503136e-16 -1 0 1 2.2204460492503136e-16 1 0 0 2
1 143.10000000000014 -704.80000000000007 4.0000000000001137 0 1 2.2204460492503136e-16 
2 141.10000000000014 -704.80000000000007 4.0000000000001137 0 2.2204460492503136e-16 -1 0 1 2.2204460492503136e-16 1 0 0 2
1 2.2737367544323206e-13 0.59407376709486925 6.0000000000003411 0 1 0 
2 141.10000000000014 -704.80000000000007 1.1368683772161603e-13 0 2.2204460492503136e-16 -1 0 1 2.2204460492503136e-16 1 0 0 2
1 143.10000000000014 -704.80000000000007 1.1368683772161603e-13 0 1 2.2204460492503136e-16 
2 141.10000000000014 -501.80000000000007 2.2737367544323206e-13 0 2.2204460492503136e-16 -1 0 1 2.2204460492503136e-16 1 0 0 2
1 -52.099999999999909 -499.80000000000007 2.2737367544323206e-13 1 0 0 
1 -52.099999999999909 -482.80000000000007 2.2737367544323206e-13 1 0 0 
2 63.900000000000091 -480.80000000000007 2.2737367544323206e-13 0 2.2204460492503136e-16 -1 0 1 2.2204460492503136e-16 1 0 0 2
1 480.80000000000007 65.900000000000091 2.2737367544323206e-13 -1 0 2.2204460492503136e-16 
1 18.000000000000227 69.380040821575903 3.4106051316484809e-13 0 -1 0 
1 185.70000000000005 -466.80000000000007 2.2737367544323206e-13 0 1 2.2204460492503136e-16 
2 187.70000000000005 -466.80000000000007 2.2737367544323206e-13 0 2.2204460492503136e-16 -1 0 1 2.2204460492503136e-16 1 0 0 2
1 187.70000000000005 -468.80000000000007 2.2737367544323206e-13 1 0 0 
2 202.10000000000014 -466.80000000000007 2.2737367544323206e-13 0 2.2204460492503136e-16 -1 0 1 2.2204460492503136e-16 1 0 0 2
1 204.10000000000014 -466.80000000000007 2.2737367544323206e-13 0 1 2.2204460492503136e-16 
1 18.000000000000227 69.380040821575903 3.4106051316484809e-13 0 -1 0 
1 18.000000000000227 0.59407376709486925 6.0000000000003411 0 1 0 
1 18 65.900000000000091 -380.99999999999972 -2.2204460492503136e-16 0 -1 
1 18 185.70000000000005 -378.99999999999966 -2.2204460492503136e-16 1.1e-16 -1 
1 18.000000000000227 97.99703688354748 4.0000000000005684 2.4424906541753449e-32 1 1.1e-16 
1 18 204.10000000000014 -378.99999999999966 -2.2204460492503136e-16 1.1e-16 -1 
1 63.900000000000091 -482.80000000000007 6.0000000000002274 0 2.2204460492503136e-16 -1 
1 -52.099999999999909 -482.80000000000007 6.0000000000002274 1 0 0 
1 141.10000000000014 -499.80000000000007 4.0000000000002274 0 2.2204460492503136e-16 -1 
1 143.10000000000014 -704.80000000000007 4.0000000000001137 0 2.2204460492503136e-16 -1 
1 143.10000000000014 -501.80000000000007 4.0000000000002274 0 2.2204460492503136e-16 -1 
2 63.900000000000091 -480.80000000000007 6.0000000000002274 0 2.2204460492503136e-16 -1 0 1 2.2204460492503136e-16 1 0 0 2
1 480.80000000000007 65.900000000000091 2.2737367544323206e-13 2.2204460492503136e-16 0 1 
1 480.80000000000007 65.900000000000091 6.0000000000002274 -1 0 2.2204460492503136e-16 
1 185.70000000000005 -466.80000000000007 4.0000000000002274 0 1 2.2204460492503136e-16 
1 185.70000000000005 -466.80000000000007 4.0000000000002274 0 2.2204460492503136e-16 -1 
2 187.70000000000005 -466.80000000000007 4.0000000000002274 0 2.2204460492503136e-16 -1 0 1 2.2204460492503136e-16 1 0 0 2
1 187.70000000000005 -468.80000000000007 4.0000000000002274 0 2.2204460492503136e-16 -1 
1 202.10000000000014 -468.80000000000007 4.0000000000002274 0 2.2204460492503136e-16 -1 
1 187.70000000000005 -468.80000000000007 4.0000000000002274 1 0 0 
2 202.10000000000014 -466.80000000000007 4.0000000000002274 0 2.2204460492503136e-16 -1 0 1 2.2204460492503136e-16 1 0 0 2
1 204.10000000000014 -466.80000000000007 4.0000000000002274 0 2.2204460492503136e-16 -1 
1 204.10000000000014 -466.80000000000007 4.0000000000002274 0 1 2.2204460492503136e-16 
Polygon3D 0
PolygonOnTriangulations 0
Surfaces 27
1 723.90000000000009 44 1.1368683772161603e-13 -1 0 2.2204460492503136e-16 0 1 0 -2.2204460492503136e-16 0 -1 
1 353.62555246346585 137.66600787605694 2.2737367544323206e-13 2.2204460492503136e-16 0 1 -1 0 2.2204460492503136e-16 0 -1 0 
1 723.89999999999998 91.900000000000091 -761.99999999999989 0 1 0 -1 0 2.2204460492503136e-16 2.2204460492503136e-16 0 1 
1 724.90000000000009 90.900000000000091 6.0000000000001137 2.2204460492503136e-16 0 1 -1 0 2.2204460492503136e-16 0 -1 0 
1 361.95000000000039 247.99999999999955 -8.6406363353713687 0 -1 -0 1 0 -2.2204460492503136e-16 2.2204460492503136e-16 0 1 
1 335.62555246346585 137.66600787605694 18.000000000000227 2.2204460492503136e-16 0 1 -1 0 2.2204460492503136e-16 0 -1 0 
1 2.2737367544323206e-13 0 3.4106051316484809e-13 -0.060669908707453382 0.9981578843937613 1.3471425909784206e-17 0.9981578843937613 0.060669908707453382 -2.2163557309301785e-16 -2.2204460492503136e-16 0 -1 
1 -52.099999999999909 -706.80000000000007 4.0000000000001137 0 1 2.2204460492503136e-16 1 0 0 0 2.2204460492503136e-16 -1 
1 705.89999999999998 91.900000000000091 -761.99999999999989 -1 0 2.2204460492503136e-16 2.2204460492503136e-16 0 1 0 1 0 
2 141.10000000000014 -704.80000000000007 4.0000000000001137 0 2.2204460492503136e-16 -1 0 1 2.2204460492503136e-16 1 0 0 2
1 44.5 -603.30000000000007 4.0000000000003411 -0 -2.2204460492503136e-16 1 0 -1 -2.2204460492503136e-16 1 0 0 
2 141.10000000000014 -501.80000000000007 4.0000000000002274 0 2.2204460492503136e-16 -1 0 1 2.2204460492503136e-16 1 0 0 2
1 2.2737367544323206e-13 254 3.4106051316484809e-13 1 0 -2.2204460492503136e-16 0 -1 0 -2.2204460492503136e-16 -0 -1 
1 353.62555246346585 137.66600787605694 2.2737367544323206e-13 2.2204460492503136e-16 0 1 -1 0 2.2204460492503136e-16 0 -1 0 
2 63.900000000000091 -480.80000000000007 6.0000000000002274 0 2.2204460492503136e-16 -1 0 1 2.2204460492503136e-16 1 0 0 2
2 187.70000000000005 -466.80000000000007 4.0000000000002274 0 2.2204460492503136e-16 -1 0 1 2.2204460492503136e-16 1 0 0 2
2 202.10000000000014 -466.80000000000007 4.0000000000002274 0 2.2204460492503136e-16 -1 0 1 2.2204460492503136e-16 1 0 0 2
1 18 1.0940737670948693 -761.99999999999977 -1 0 2.2204460492503136e-16 2.2204460492503136e-16 0 1 0 1 0 
1 -52.099999999999909 -482.80000000000007 6.0000000000002274 0 1 2.2204460492503136e-16 1 0 0 0 2.2204460492503136e-16 -1 
1 -52.099999999999909 -499.80000000000007 4.0000000000002274 0 1 2.2204460492503136e-16 1 0 0 0 2.2204460492503136e-16 -1 
1 143.10000000000014 -704.80000000000007 4.0000000000001137 1 0 0 0 1 2.2204460492503136e-16 0 -2.2204460492503136e-16 1 
1 480.80000000000007 65.900000000000091 2.2737367544323206e-13 0 1 0 -1 0 2.2204460492503136e-16 2.2204460492503136e-16 0 1 
1 185.70000000000005 -466.80000000000007 4.0000000000002274 1 0 0 0 1 2.2204460492503136e-16 0 -2.2204460492503136e-16 1 
1 187.70000000000005 -468.80000000000007 4.0000000000002274 0 1 2.2204460492503136e-16 1 0 0 0 2.2204460492503136e-16 -1 
1 204.10000000000014 -466.80000000000007 4.0000000000002274 1 0 0 0 1 2.2204460492503136e-16 0 -2.2204460492503136e-16 1 
1 194.89999999999986 -233.79999999999995 4.0000000000003411 -0 -2.2204460492503136e-16 1 0 -1 -2.2204460492503136e-16 1 0 0 
1 177.2071598756097 72.058261179202191 6 -2.2204460492503136e-16 7.4999999999999996e-16 -1 -1.6653345369377352e-31 -1 -7.4999999999999996e-16 -1 0 2.2204460492503136e-16 
Triangulations 0

TShapes 182
Ve
1e-07
723.9 44 1.13686837721616e-13
0 0

0101101
*
Ve
1.5e-07
723.9 91.9000000000001 1.13686837721616e-13
0 0

0101101
*
Ed
 1e-07 1 1 0
1  1 0 0 47.9000000000001
0

0101000
+182 7 -181 7 *
Ve
1.5e-07
723.9 91.9000000000001 6.00000000000011
0 0

0101101
*
Ed
 1e-07 1 1 0
1  2 0 762 768
0

0101000
+181 7 -179 7 *
Ve
2.00000455e-07
723.9 248 6.00000000000011
0 0

0101101
*
Ed
 1.5e-07 1 1 0
1  3 0 0.5 156.6
0

0101000
+179 7 -177 7 *
Ve
1.5e-07
723.9 248 18.0000000000001
0 0

0101101
*
Ed
 1.5e-07 1 1 0
1  4 0 -74.5 -62.5
0

0101000
+175 7 -177 7 *
Ve
1e-07
723.9 44 18.0000000000001
0 0

0101101
*
Ed
 1e-07 1 1 0
1  5 0 0 204
0

0101000
+173 9 -175 9 *
Ed
 1e-07 1 1 0
1  6 0 0 18
0

0101000
+182 7 -173 7 *
Wi

0101100
-180 0 -178 0 -176 0 +174 0 +172 8 +171 0 *
Fa
0  1e-07 1 0

0111000
+170 0 *
Ve
1.50000114e-07
706.8 91.9000000000001 1.13686837721616e-13
0 0

0101101
*
Ed
 1.5e-07 1 1 0
1  7 0 -185.137223768267 -168.037223768267
0

0101000
+181 7 -168 7 *
Ve
1.50000114e-07
706.8 42.9606299212599 1.13686837721616e-13
0 0

0101101
*
Ed
 1e-07 1 1 0
1  8 0 708.104410184848 725.235968495772
0

0101000
+166 7 -182 7 *
Ed
 1.00000114e-07 1 1 0
1  9 0 95.0606299212599 144
0

0101000
+166 11 -168 11 *
Wi

0101100
+167 6 +180 6 +165 6 -164 10 *
Fa
0  1e-07 2 6

0111000
+163 0 *
Ve
1.5e-07
705.9 91.9000000000001 6.00000000000011
0 0

0101101
*
Ed
 1.5e-07 1 1 0
1  10 0 -18.5 -0.5
0

0101000
+161 7 -179 7 *
Ve
1.5e-07
705.9 91.9000000000001 4.00000000000045
0 0

0101101
*
Ed
 1e-07 1 1 0
1  11 0 766 768
0

0101000
+159 7 -161 7 *
Ve
1.50000227e-07
706.8 91.9000000000001 4.00000000000023
0 0

0101101
*
Ed
 1.5e-07 1 1 0
1  12 0 42.3000000000001 43.2
0

0101000
+159 12 -157 12 *
Ed
 1.5e-07 1 1 0
1  13 0 379 383
0

0101000
+168 12 -157 12 *
Wi

0101100
-178 6 +160 6 +158 6 -156 0 +155 0 +167 6 *
Fa
0  1e-07 3 6

0111000
+154 0 *
Ve
2e-07
705.9 248 6.00000000000011
0 0

0101101
*
Ed
 1.5e-07 1 1 0
1  14 0 0.5 156.599999999999
0

0101000
+161 7 -152 7 *
Ed
 2e-07 1 1 0
1  15 0 162.475 180.475
0

0101000
+152 7 -177 7 *
Wi

0101100
-151 0 -150 0 +176 0 +160 0 *
Fa
0  1e-07 4 0

0111000
+149 0 *
Ve
1.5e-07
2.27373675443232e-13 248 18.0000000000003
0 0

0101101
*
Ve
2.00000455e-07
2.27373675443232e-13 248 6.00000000000034
0 0

0101101
*
Ed
 1.5e-07 1 1 0
1  16 0 -130.5 -118.5
0

0101000
+147 7 -146 7 *
Ed
 1.5e-07 1 1 0
1  17 0 0.5 724.4
0

0101000
+175 7 -147 7 *
Ve
2e-07
705.9 248 1.13686837721616e-13
0 0

0101101
*
Ed
 2e-07 1 1 0
1  18 0 385.320318167686 391.320318167686
0

0101000
+143 7 -152 7 *
Ve
2e-07
18.0000000000002 248 3.41060513164848e-13
0 0

0101101
*
Ed
 2e-07 1 1 0
1  19 0 -339.787776231733 348.112223768267
0

0101000
+141 7 -143 7 *
Ve
2e-07
18.0000000000002 248 6.00000000000034
0 0

0101101
*
Ed
 2e-07 1 1 0
1  20 0 385.320318167686 391.320318167686
0

0101000
+141 7 -139 7 *
Ed
 2e-07 1 1 0
1  21 0 -190.475 -172.475
0

0101000
+146 7 -139 7 *
Wi

0101100
+145 0 +144 0 -174 0 +150 0 +142 0 +140 0 -138 0 +137 0 *
Fa
0  1.5e-07 5 0

0111000
+136 0 *
Ve
1e-07
2.27373675443232e-13 0 18.0000000000003
0 0

0101101
*
Ed
 1e-07 1 1 0
1  22 0 0 725.235968495772
0

0101000
+134 9 -173 9 *
Ed
 1e-07 1 1 0
1  23 0 6 254
0

0101000
+147 9 -134 9 *
Wi

0101100
+133 8 +132 8 +144 0 +172 8 *
Fa
0  1e-07 6 8

0111000
+131 0 *
Ve
2e-07
2.27373675443232e-13 0 6.00000000000011
0 0

0101101
*
Ve
2e-07
482.8 29.3454897085232 6.00000000000034
0 0

0101101
*
Ed
 1e-07 1 1 0
1  24 0 -120.606724982795 363.084289784105
0

0101000
+129 12 -128 12 *
Ve
1.50000114e-07
482.8 29.3454897085232 2.27373675443232e-13
0 0

0101101
*
Ed
 1.5e-07 1 1 0
1  25 0 -2.99999999999988 3.00000000000012
0

0101000
+126 12 -128 12 *
Ve
1.50000114e-07
499.8 30.3787815996684 2.27373675443232e-13
0 0

0101101
*
Ed
 1e-07 1 1 0
1  26 0 483.6910147669 500.722388526297
0

0101000
+126 7 -124 7 *
Ve
1.50000227e-07
499.8 30.3787815996684 4.00000000000034
0 0

0101101
*
Ed
 1.5e-07 1 1 0
1  27 0 -1.99999999999988 2.00000000000012
0

0101000
+124 12 -122 12 *
Ve
1.50000227e-07
706.8 42.9606299212599 4.00000000000023
0 0

0101101
*
Ed
 1.5e-07 1 1 0
1  28 0 198.278157230178 405.660178888729
0

0101000
+122 12 -120 12 *
Ed
 1.5e-07 1 1 0
1  29 0 -1.99999999999988 2.00000000000012
0

0101000
+166 12 -120 12 *
Ed
 1e-07 1 1 0
1  30 0 5.99999999999977 18
0

0101000
+129 7 -134 7 *
Wi

0101000
-127 0 +125 0 -123 6 -121 0 -119 0 +118 0 -165 6 -171 6 +133 13 +117 6 
*
Fa
0  1e-07 7 6

0111000
+116 0 *
Ed
 1e-07 1 1 0
1  31 0 95.0606299212599 144
0

0101000
+120 11 -157 11 *
Wi

0101100
+118 0 -164 10 -155 0 +114 10 *
Fa
0  1e-07 8 10

0111000
+113 0 *
Ve
1.50000227e-07
705.9 142.770329308849 4.00000000000023
0 0

0101101
*
Ed
 1.5e-07 1 1 0
1  32 0 23.7 74.5703293088491
0

0101000
+159 12 -111 12 *
Ve
1.50001e-07
705.9 142.770329308849 1.13686837721616e-13
0 0

0101101
*
Ed
 1e-07 1 1 0
1  33 0 0 4.00000000000011
2  1 10 10 0 4.00000000000011
0

0101000
+111 12 -109 12 *
Ed
 1.5e-07 1 1 0
1  34 0 -133.216996061971 -27.9873253708206
0

0101000
+143 7 -109 7 *
Wi

0101100
-142 6 +151 6 +158 6 -110 0 -108 0 +107 6 *
Fa
0  1e-07 9 6

0111000
+106 0 *
Ve
1.00000079e-07
499.8 141.1 4.00000000000023
0 0

0101101
*
Ed
 1e-07 1 1 0
1  35 0 82.4787815996684 193.2
0

0101000
+122 11 -104 11 *
Ve
1e-07
501.8 143.1 4.00000000000023
0 0

0101101
*
Ed
 1e-07 1 1 0
1  36 0 0 1.5707963267949
2  2 12 0 0 1.5707963267949
0

0101000
+104 11 -102 11 *
Ve
1e-07
704.8 143.1 4.00000000000011
0 0

0101101
*
Ed
 1e-07 1 1 0
1  37 0 0 203
0

0101000
+100 11 -102 11 *
Ed
 1e-07 1 1 0
1  38 0 1.5707963267949 2.15316056466366
2  3 10 0 1.5707963267949 2.15316056466366
0

0101000
+100 11 -111 11 *
Wi

0101100
+119 0 -103 10 -101 10 +99 10 -98 10 +110 0 -156 0 +114 10 *
Fa
0  1e-07 11 10

0111000
+97 0 *
Ed
 1e-07 1 1 0
1  39 0 -0.594073767094869 247.405926232905
0

0101000
+129 12 -146 12 *
Wi

0101000
-117 6 +132 13 -145 6 +95 0 *
Fa
0  1e-07 13 6

0111000
+94 0 *
Ve
1.00000114e-07
704.8 143.1 2.27373675443232e-13
0 0

0101101
*
Ed
 1.00000114e-07 1 1 0
1  40 0 1.5707963267949 2.15316056466361
2  4 10 0 1.5707963267949 2.15316056466361
0

0101000
+92 11 -109 11 *
Ve
1.00000114e-07
501.8 143.1 3.41060513164848e-13
0 0

0101101
*
Ed
 1.00000114e-07 1 1 0
1  41 0 0 203
0

0101000
+92 11 -90 11 *
Ve
1.00000114e-07
499.8 141.1 3.41060513164848e-13
0 0

0101101
*
Ed
 1.00000114e-07 1 1 0
1  42 0 0 1.5707963267949
2  5 12 0 0 1.5707963267949
0

0101000
+88 11 -90 11 *
Ed
 1.00000114e-07 1 1 0
1  43 0 82.4787815996684 193.2
0

0101000
+124 11 -88 11 *
Ve
1.00000114e-07
482.8 63.9000000000001 3.41060513164848e-13
0 0

0101101
*
Ed
 1.00000114e-07 1 1 0
1  44 0 81.4454897085233 116
0

0101000
+126 15 -85 15 *
Ve
1.00000227e-07
480.8 65.9000000000001 2.27373675443232e-13
0 0

0101101
*
Ed
 1.00000114e-07 1 1 0
1  45 0 1.5707963267949 3.14159265358979
2  6 15 0 1.5707963267949 3.14159265358979
0

0101000
+83 15 -85 15 *
Ve
1.5e-07
18.0000000000002 65.9000000000001 3.41060513164848e-13
0 0

0101101
*
Ed
 1.00000114e-07 1 1 0
1  46 0 0 462.8
0

0101000
+83 16 -81 16 *
Ve
1.50000114e-07
18.0000000000002 185.7 3.41060513164848e-13
0 0

0101101
*
Ed
 1.5e-07 1 1 0
1  47 0 -116.319959178424 3.48004082157581
0

0101000
+79 7 -81 7 *
Ve
1.00000114e-07
466.8 185.7 3.41060513164848e-13
0 0

0101101
*
Ed
 1.00000114e-07 1 1 0
1  48 0 0 448.8
0

0101000
+77 18 -79 18 *
Ve
1.00000114e-07
468.8 187.7 3.41060513164848e-13
0 0

0101101
*
Ed
 1.00000114e-07 1 1 0
1  49 0 3.14159265358979 4.71238898038469
2  7 16 0 3.14159265358979 4.71238898038469
0

0101000
+75 18 -77 18 *
Ve
1.00000114e-07
468.8 202.1 3.41060513164848e-13
0 0

0101101
*
Ed
 1.00000114e-07 1 1 0
1  50 0 0 14.4000000000001
0

0101000
+75 18 -73 18 *
Ve
1.00000114e-07
466.8 204.1 3.41060513164848e-13
0 0

0101101
*
Ed
 1.00000114e-07 1 1 0
1  51 0 1.5707963267949 3.14159265358979
2  8 17 0 1.5707963267949 3.14159265358979
0

0101000
+71 18 -73 18 *
Ve
1.50000114e-07
18.0000000000002 204.1 3.41060513164848e-13
0 0

0101101
*
Ed
 1.00000114e-07 1 1 0
1  52 0 0 448.8
0

0101000
+71 18 -69 18 *
Ed
 1.5e-07 1 1 0
1  53 0 -178.619959178424 -134.719959178424
0

0101000
+141 7 -69 7 *
Wi

0101100
-140 6 -107 6 +91 10 -89 10 +87 10 +86 10 +123 6 -84 14 +82 14 -80 5 
+78 6 +76 17 +74 17 -72 17 +70 17 -68 17 +67 6 *
Fa
0  1e-07 14 6

0111000
+66 0 *
Ve
2e-07
18.0000000000002 65.9000000000001 6.00000000000034
0 0

0101101
*
Ed
 2e-07 1 1 0
1  54 0 65.3059262329052 247.405926232905
0

0101000
+64 7 -139 7 *
Ed
 1.5e-07 1 1 0
1  55 0 -387 -381
0

0101000
+64 16 -81 16 *
Ve
1.50000114e-07
18.0000000000002 185.7 4.00000000000045
0 0

0101101
*
Ed
 1.5e-07 1 1 0
1  56 0 -383 -379
0

0101000
+61 12 -79 12 *
Ve
1.50000114e-07
18.0000000000002 204.1 4.00000000000045
0 0

0101101
*
Ed
 1.5e-07 1 1 0
1  57 0 87.7029631164526 106.102963116453
0

0101000
+61 12 -59 12 *
Ed
 1.5e-07 1 1 0
1  58 0 -383 -379
0

0101000
+59 12 -69 12 *
Wi

0101100
-138 6 +63 6 -62 5 +78 6 +60 0 -58 0 -57 0 +67 6 *
Fa
0  1e-07 18 6

0111000
+56 0 *
Ve
2e-07
482.8 63.9000000000001 6.00000000000023
0 0

0101101
*
Ed
 1e-07 1 1 0
1  59 0 0 6
2  9 15 0 0 6
0

0101000
+54 15 -85 15 *
Ed
 2e-07 1 1 0
1  60 0 81.4454897085233 116
0

0101000
+128 15 -54 15 *
Wi

0101100
+125 0 -84 14 +53 14 +52 14 *
Fa
0  1e-07 19 14

0111000
+51 0 *
Ed
 1e-07 1 1 0
1  61 0 0 4
2  10 12 0 0 4
0

0101000
+104 11 -88 11 *
Wi

0101100
+121 0 -86 10 +49 10 +103 10 *
Fa
0  1e-07 20 10

0111000
+48 0 *
Ed
 1e-07 1 1 0
1  62 0 0 4
2  11 10 0 0 4
0

0101000
+100 11 -92 11 *
Wi

0101100
-91 10 +108 0 +98 10 -46 10 *
Fa
0  1e-07 10 10

0111000
+45 0 *
Ed
 1e-07 1 1 0
1  63 0 0 4
2  12 12 0 0 4
0

0101000
+102 11 -90 11 *
Wi

0101100
-87 10 +43 10 +101 10 -49 10 *
Fa
0  1e-07 12 10

0111000
+42 0 *
Wi

0101100
-99 10 -43 10 +89 10 +46 10 *
Fa
0  1e-07 21 10

0111000
+40 0 *
Ve
2e-07
480.8 65.9000000000001 6.00000000000023
0 0

0101101
*
Ed
 2e-07 1 1 0
1  64 0 1.5707963267949 3.14159265358979
2  13 15 0 1.5707963267949 3.14159265358979
0

0101000
+38 15 -54 15 *
Ed
 1e-07 1 1 0
1  65 0 0 6
2  14 15 19 0 6
0

0101000
+83 16 -38 16 *
Wi

0101100
-82 14 +53 14 +37 14 +36 5 *
Fa
0  1e-07 15 14

0111000
+35 0 *
Ed
 2e-07 1 1 0
1  66 0 0 462.8
0

0101000
+38 16 -64 16 *
Wi

0101100
-36 5 -33 5 -62 5 +80 5 *
Fa
0  1e-07 22 5

0111000
+32 0 *
Ve
1e-07
466.8 185.7 4.00000000000023
0 0

0101101
*
Ed
 1e-07 1 1 0
1  67 0 0 448.8
0

0101000
+30 18 -61 18 *
Ed
 1e-07 1 1 0
1  68 0 0 4
2  15 16 0 0 4
0

0101000
+30 18 -77 18 *
Wi

0101100
-29 17 -60 0 +76 17 +28 17 *
Fa
0  1e-07 23 17

0111000
+27 0 *
Ve
1.00000079e-07
468.8 187.7 4.00000000000023
0 0

0101101
*
Ed
 1e-07 1 1 0
1  69 0 3.14159265358979 4.71238898038469
2  16 16 0 3.14159265358979 4.71238898038469
0

0101000
+25 18 -30 18 *
Ed
 1e-07 1 1 0
1  70 0 0 4
2  17 16 0 0 4
0

0101000
+25 18 -75 18 *
Wi

0101100
-74 17 +28 17 +24 17 -23 17 *
Fa
0  1e-07 16 17

0111000
+22 0 *
Ve
1.00000079e-07
468.8 202.1 4.00000000000023
0 0

0101101
*
Ed
 1e-07 1 1 0
1  71 0 0 4
2  18 17 0 0 4
0

0101000
+20 18 -73 18 *
Ed
 1e-07 1 1 0
1  72 0 0 14.4000000000001
0

0101000
+25 18 -20 18 *
Wi

0101100
-23 17 -72 17 +19 17 +18 17 *
Fa
0  1e-07 24 17

0111000
+17 0 *
Ve
1e-07
466.8 204.1 4.00000000000023
0 0

0101101
*
Ed
 1e-07 1 1 0
1  73 0 1.5707963267949 3.14159265358979
2  19 17 0 1.5707963267949 3.14159265358979
0

0101000
+15 18 -20 18 *
Ed
 1e-07 1 1 0
1  74 0 0 4
2  20 17 0 0 4
0

0101000
+15 18 -71 18 *
Wi

0101100
-70 17 +19 17 +14 17 -13 17 *
Fa
0  1e-07 17 17

0111000
+12 0 *
Ed
 1e-07 1 1 0
1  75 0 0 448.8
0

0101000
+15 18 -59 18 *
Wi

0101100
-10 17 -57 0 +68 17 +13 17 *
Fa
0  1e-07 25 17

0111000
+9 0 *
Wi

0101100
-24 17 -29 17 -58 0 +10 17 -14 17 +18 17 *
Fa
0  1e-07 26 17

0111000
+7 0 *
Wi

0101000
-63 6 -33 5 +37 14 -52 14 -127 0 +95 0 +137 6 *
Fa
0  2e-07 27 0

0111000
+5 0 *
Sh

0101000
-169 6 -162 0 +153 0 -148 6 -135 6 +130 6 -115 0 +112 0 -105 0 -96 0 
-93 0 -65 0 +55 0 +50 0 -47 0 -44 0 -41 0 -39 0 -34 0 -31 0 
+26 0 -21 0 +16 0 -11 0 -8 0 -6 0 +4 0 *
So

0100000
+3 0 *
Co

1100000
+2 0 *

+1 3 