DBRep_DrawableShape

CASCADE Topology V1, (c) Matra-Datavision
Locations 4
1
              1               0               0               0 
              0               1               0               0 
              0               0               1               0 
1
              1               0               0               0 
              0               1               0               0 
              0               0               1               0 
2  1 1 2 1 0
2  1 -1 0
Curve2ds 80
1 0 1 1 0 
1 0 1 1 0 
1 0 1 1 0 
1 0 1 1 0 
1 0 1 1 0 
1 0 1 1 0 
1 0 1 1 0 
1 0 1 1 0 
1 0 1 1 0 
1 0 1 1 0 
1 0 1 1 0 
1 0 1 1 0 
1 0 1 1 0 
1 0 1 1 0 
1 0 1 1 0 
1 0 1 1 0 
1 0 1 1 0 
1 0 1 1 0 
1 0 1 1 0 
1 0 1 1 0 
1 0 19 1 0 
1 0 19 1 0 
1 0 19 1 0 
1 0 19 1 0 
1 0 19 1 0 
1 0 19 1 0 
1 0 19 1 0 
1 0 19 1 0 
1 0 19 1 0 
1 0 19 1 0 
1 0 19 1 0 
1 0 19 1 0 
1 0 19 1 0 
1 0 19 1 0 
1 0 19 1 0 
1 0 19 1 0 
1 0 19 1 0 
1 0 19 1 0 
1 0 19 1 0 
1 0 19 1 0 
1 7.8539816339744828 0 0 1 
1 4.7123889803846897 0 0 1 
1 4.7123889803846897 0 0 1 
1 1.5707963267948966 0 0 1 
1 7.8539816339744828 0 0 1 
1 4.7123889803846897 0 0 1 
1 4.7123889803846897 0 0 1 
1 1.5707963267948966 0 0 1 
1 7.8539816339744828 0 0 1 
1 4.7123889803846897 0 0 1 
1 4.7123889803846897 0 0 1 
1 1.5707963267948966 0 0 1 
1 7.8539816339744828 0 0 1 
1 4.7123889803846897 0 0 1 
1 4.7123889803846897 0 0 1 
1 1.5707963267948966 0 0 1 
1 6.2831853071795862 -0 0 1 
1 0 0 0 1 
1 4.7123889803846897 0 0 1 
1 1.5707963267948966 0 0 1 
1 4.7123889803846897 0 0 1 
1 1.5707963267948966 0 0 1 
1 3.1415926535897931 0 0 1 
1 3.1415926535897931 0 0 1 
1 7.8539816339744828 0 0 1 
1 4.7123889803846897 0 0 1 
1 4.7123889803846897 0 0 1 
1 1.5707963267948966 0 0 1 
1 7.8539816339744828 0 0 1 
1 4.7123889803846897 0 0 1 
1 4.7123889803846897 0 0 1 
1 1.5707963267948966 0 0 1 
1 7.8539816339744828 0 0 1 
1 4.7123889803846897 0 0 1 
1 4.7123889803846897 0 0 1 
1 1.5707963267948966 0 0 1 
1 7.8539816339744828 0 0 1 
1 4.7123889803846897 0 0 1 
1 1.5707963267948966 0 0 1 
1 4.7123889803846897 0 0 1 
Curves 132
1 0 0 18 0 1 0 
1 0 448.79999999999995 18 0 0 -1 
1 0 0 0 0 1 0 
1 0 0 18 0 0 -1 
1 0 0 18 1 0 0 
1 752 0 18 0 1 0 
1 0 448.79999999999995 18 1 0 0 
2 326 170 18 0 0 -1 0 1 0 1 0 0 2.5
1 323.5 80 18 0 -1 -0 
1 328.5 80 18 0 -1 -0 
2 326 160 18 0 0 -1 0 1 0 1 0 0 2.5
2 338.5 182.5 18 0 0 -1 0 1 0 1 0 0 2.5
1 336 86.25 18 0 -1 -0 
1 341 86.25 18 0 -1 -0 
2 338.5 172.5 18 0 0 -1 0 1 0 1 0 0 2.5
2 338.5 257.5 18 0 0 -1 0 1 0 1 0 0 2.5
1 336 123.75 18 0 -1 -0 
1 341 123.75 18 0 -1 -0 
2 338.5 247.5 18 0 0 -1 0 1 0 1 0 0 2.5
2 326 270 18 0 0 -1 0 1 0 1 0 0 2.5
1 323.5 130 18 0 -1 -0 
1 328.5 130 18 0 -1 -0 
2 326 260 18 0 0 -1 0 1 0 1 0 0 2.5
1 92 131 18 1 0 0 
2 184 123 18 0 0 -1 0 1 0 1 0 0 8
2 568 123 18 0 0 -1 0 1 0 1 0 0 8
1 176 19.5 18 0 -1 -0 
1 576 19.5 18 0 -1 -0 
2 184 39 18 0 0 -1 0 1 0 1 0 0 8
2 568 39 18 0 0 -1 0 1 0 1 0 0 8
1 92 31 18 1 0 0 
2 413.5 182.5 18 0 0 -1 0 1 0 1 0 0 2.5
1 411 86.25 18 0 -1 -0 
1 416 86.25 18 0 -1 -0 
2 413.5 172.5 18 0 0 -1 0 1 0 1 0 0 2.5
2 426 170 18 0 0 -1 0 1 0 1 0 0 2.5
1 423.5 80 18 0 -1 -0 
1 428.5 80 18 0 -1 -0 
2 426 160 18 0 0 -1 0 1 0 1 0 0 2.5
2 413.5 257.5 18 0 0 -1 0 1 0 1 0 0 2.5
1 411 123.75 18 0 -1 -0 
1 416 123.75 18 0 -1 -0 
2 413.5 247.5 18 0 0 -1 0 1 0 1 0 0 2.5
2 426 270 18 0 0 -1 0 1 0 1 0 0 2.5
1 428.5 130 18 0 -1 -0 
2 426 260 18 0 0 -1 0 1 0 1 0 0 2.5
1 423.5 130 18 0 -1 -0 
1 0 448.79999999999995 0 1 0 0 
1 752 448.79999999999995 18 0 0 -1 
1 0 0 0 1 0 0 
1 752 0 0 0 1 0 
2 326 170 0 0 0 -1 0 1 0 1 0 0 2.5
1 323.5 80 0 0 -1 -0 
1 328.5 80 0 0 -1 -0 
2 326 160 0 0 0 -1 0 1 0 1 0 0 2.5
2 338.5 182.5 0 0 0 -1 0 1 0 1 0 0 2.5
1 336 86.25 0 0 -1 -0 
1 341 86.25 0 0 -1 -0 
2 338.5 172.5 0 0 0 -1 0 1 0 1 0 0 2.5
2 338.5 257.5 0 0 0 -1 0 1 0 1 0 0 2.5
1 336 123.75 0 0 -1 -0 
1 341 123.75 0 0 -1 -0 
2 338.5 247.5 0 0 0 -1 0 1 0 1 0 0 2.5
2 326 270 0 0 0 -1 0 1 0 1 0 0 2.5
1 323.5 130 0 0 -1 -0 
1 328.5 130 0 0 -1 -0 
2 326 260 0 0 0 -1 0 1 0 1 0 0 2.5
1 92 131 0 1 0 0 
2 184 123 0 0 0 -1 0 1 0 1 0 0 8
2 568 123 0 0 0 -1 0 1 0 1 0 0 8
1 176 19.5 0 0 -1 -0 
1 576 19.5 0 0 -1 -0 
2 184 39 0 0 0 -1 0 1 0 1 0 0 8
2 568 39 0 0 0 -1 0 1 0 1 0 0 8
1 92 31 0 1 0 0 
2 413.5 182.5 0 0 0 -1 0 1 0 1 0 0 2.5
1 411 86.25 0 0 -1 -0 
1 416 86.25 0 0 -1 -0 
2 413.5 172.5 0 0 0 -1 0 1 0 1 0 0 2.5
2 426 170 0 0 0 -1 0 1 0 1 0 0 2.5
1 423.5 80 0 0 -1 -0 
1 428.5 80 0 0 -1 -0 
2 426 160 0 0 0 -1 0 1 0 1 0 0 2.5
2 413.5 257.5 0 0 0 -1 0 1 0 1 0 0 2.5
1 411 123.75 0 0 -1 -0 
1 416 123.75 0 0 -1 -0 
2 413.5 247.5 0 0 0 -1 0 1 0 1 0 0 2.5
2 426 270 0 0 0 -1 0 1 0 1 0 0 2.5
1 428.5 130 0 0 -1 -0 
2 426 260 0 0 0 -1 0 1 0 1 0 0 2.5
1 423.5 130 0 0 -1 -0 
1 752 0 18 0 0 -1 
1 328.5 170 19 0 0 -1 
1 323.5 170 19 0 0 -1 
1 323.5 160 19 0 0 -1 
1 328.5 160 19 0 0 -1 
1 341 182.5 19 0 0 -1 
1 336 182.5 19 0 0 -1 
1 336 172.5 19 0 0 -1 
1 341 172.5 19 0 0 -1 
1 341 257.5 19 0 0 -1 
1 336 257.5 19 0 0 -1 
1 336 247.5 19 0 0 -1 
1 341 247.5 19 0 0 -1 
1 328.5 270 19 0 0 -1 
1 323.5 270 19 0 0 -1 
1 323.5 260 19 0 0 -1 
1 328.5 260 19 0 0 -1 
1 184 131 19 0 0 -1 
1 568 131 19 0 0 -1 
1 176 123 19 0 0 -1 
1 576 123 19 0 0 -1 
1 176 39 19 0 0 -1 
1 576 39 19 0 0 -1 
1 184 31 19 0 0 -1 
1 568 31 19 0 0 -1 
1 416 182.5 19 0 0 -1 
1 411 182.5 19 0 0 -1 
1 411 172.5 19 0 0 -1 
1 416 172.5 19 0 0 -1 
1 428.5 170 19 0 0 -1 
1 423.5 170 19 0 0 -1 
1 423.5 160 19 0 0 -1 
1 428.5 160 19 0 0 -1 
1 416 257.5 19 0 0 -1 
1 411 257.5 19 0 0 -1 
1 411 247.5 19 0 0 -1 
1 416 247.5 19 0 0 -1 
1 428.5 270 19 0 0 -1 
1 423.5 270 19 0 0 -1 
1 428.5 260 19 0 0 -1 
1 423.5 260 19 0 0 -1 
Polygon3D 0
PolygonOnTriangulations 0
Surfaces 46
1 0 0 18 1 0 0 0 1 0 0 0 1 
1 0 0 18 0 0 -1 0 1 0 1 0 0 
2 326 170 19 0 0 -1 0 1 0 1 0 0 2.5
2 326 160 19 0 0 -1 0 1 0 1 0 0 2.5
2 338.5 182.5 19 0 0 -1 0 1 0 1 0 0 2.5
2 338.5 172.5 19 0 0 -1 0 1 0 1 0 0 2.5
2 338.5 257.5 19 0 0 -1 0 1 0 1 0 0 2.5
2 338.5 247.5 19 0 0 -1 0 1 0 1 0 0 2.5
2 326 270 19 0 0 -1 0 1 0 1 0 0 2.5
2 326 260 19 0 0 -1 0 1 0 1 0 0 2.5
2 184 123 19 0 0 -1 0 1 0 1 0 0 8
2 568 123 19 0 0 -1 0 1 0 1 0 0 8
2 184 39 19 0 0 -1 0 1 0 1 0 0 8
2 568 39 19 0 0 -1 0 1 0 1 0 0 8
2 413.5 182.5 19 0 0 -1 0 1 0 1 0 0 2.5
2 413.5 172.5 19 0 0 -1 0 1 0 1 0 0 2.5
2 426 170 19 0 0 -1 0 1 0 1 0 0 2.5
2 426 160 19 0 0 -1 0 1 0 1 0 0 2.5
2 413.5 257.5 19 0 0 -1 0 1 0 1 0 0 2.5
2 413.5 247.5 19 0 0 -1 0 1 0 1 0 0 2.5
2 426 270 19 0 0 -1 0 1 0 1 0 0 2.5
2 426 260 19 0 0 -1 0 1 0 1 0 0 2.5
1 0 448.79999999999995 18 0 1 0 1 0 0 0 0 -1 
1 0 0 0 0 0 -1 0 1 0 1 0 0 
1 0 0 18 0 1 0 1 0 0 0 0 -1 
1 752 0 18 1 0 0 0 1 0 0 0 1 
1 323.5 160 19 1 0 0 0 1 0 0 0 1 
1 328.5 160 19 1 0 0 0 1 0 0 0 1 
1 336 172.5 19 1 0 0 0 1 0 0 0 1 
1 341 172.5 19 1 0 0 0 1 0 0 0 1 
1 336 247.5 19 1 0 0 0 1 0 0 0 1 
1 341 247.5 19 1 0 0 0 1 0 0 0 1 
1 323.5 260 19 1 0 0 0 1 0 0 0 1 
1 328.5 260 19 1 0 0 0 1 0 0 0 1 
1 184 131 19 0 1 0 1 0 0 0 0 -1 
1 176 39 19 1 0 0 0 1 0 0 0 1 
1 576 39 19 1 0 0 0 1 0 0 0 1 
1 184 31 19 0 1 0 1 0 0 0 0 -1 
1 411 172.5 19 1 0 0 0 1 0 0 0 1 
1 416 172.5 19 1 0 0 0 1 0 0 0 1 
1 423.5 160 19 1 0 0 0 1 0 0 0 1 
1 428.5 160 19 1 0 0 0 1 0 0 0 1 
1 411 247.5 19 1 0 0 0 1 0 0 0 1 
1 416 247.5 19 1 0 0 0 1 0 0 0 1 
1 428.5 260 19 1 0 0 0 1 0 0 0 1 
1 423.5 260 19 1 0 0 0 1 0 0 0 1 
Triangulations 0

TShapes 333
Ve
1e-07
0 448.8 18
0 0

0101101
*
Ve
1e-07
0 0 18
0 0

0101101
*
Ed
 1e-07 1 1 0
1  1 0 0 448.8
0

0101000
-333 4 +332 4 *
Ve
1e-07
0 448.8 0
0 0

0101101
*
Ed
 1e-07 1 1 0
1  2 0 0 18
0

0101000
-330 4 +333 4 *
Ve
1e-07
0 0 0
0 0

0101101
*
Ed
 1e-07 1 1 0
1  3 0 0 448.8
0

0101000
-330 4 +328 4 *
Ed
 1e-07 1 1 0
1  4 0 0 18
0

0101000
-328 4 +332 4 *
Wi

0101100
-331 0 -329 0 +327 0 +326 0 *
Fa
0  1e-07 1 0

0111000
+325 0 *
Ve
1e-07
752 0 18
0 0

0101101
*
Ed
 1e-07 1 1 0
1  5 0 0 752
0

0101000
-323 4 +332 4 *
Ve
1e-07
752 448.8 18
0 0

0101101
*
Ed
 1e-07 1 1 0
1  6 0 0 448.8
0

0101000
-321 4 +323 4 *
Ed
 1e-07 1 1 0
1  7 0 0 752
0

0101000
-321 4 +333 4 *
Wi

0101100
-322 0 -320 0 +331 0 +319 0 *
Ve
1.5e-07
323.5 170 18
0 0

0101101
*
Ve
1.5e-07
328.5 170 18
0 0

0101101
*
Ed
 1e-07 1 1 0
1  8 0 4.71238898038469 7.85398163397448
2  1 3 0 4.71238898038469 7.85398163397448
0

0101000
+317 4 -316 4 *
Ve
1.5e-07
323.5 160 18
0 0

0101101
*
Ed
 1.5e-07 1 1 0
1  9 0 -90 -80
0

0101000
+317 4 -314 4 *
Ve
1.5e-07
328.5 160 18
0 0

0101101
*
Ed
 1.5e-07 1 1 0
1  10 0 -90 -80
0

0101000
+316 4 -312 4 *
Ed
 1e-07 1 1 0
1  11 0 1.5707963267949 4.71238898038469
2  2 4 0 1.5707963267949 4.71238898038469
0

0101000
+312 4 -314 4 *
Wi

0101100
-315 0 +313 0 -311 0 -310 0 *
Ve
1.5e-07
336 182.5 18
0 0

0101101
*
Ve
1.5e-07
341 182.5 18
0 0

0101101
*
Ed
 1e-07 1 1 0
1  12 0 4.71238898038469 7.85398163397448
2  3 5 0 4.71238898038469 7.85398163397448
0

0101000
+308 4 -307 4 *
Ve
1.5e-07
336 172.5 18
0 0

0101101
*
Ed
 1.5e-07 1 1 0
1  13 0 -96.25 -86.25
0

0101000
+308 4 -305 4 *
Ve
1.5e-07
341 172.5 18
0 0

0101101
*
Ed
 1.5e-07 1 1 0
1  14 0 -96.25 -86.25
0

0101000
+307 4 -303 4 *
Ed
 1e-07 1 1 0
1  15 0 1.5707963267949 4.71238898038469
2  4 6 0 1.5707963267949 4.71238898038469
0

0101000
+303 4 -305 4 *
Wi

0101100
-306 0 +304 0 -302 0 -301 0 *
Ve
1.5e-07
336 257.5 18
0 0

0101101
*
Ve
1.5e-07
341 257.5 18
0 0

0101101
*
Ed
 1e-07 1 1 0
1  16 0 4.71238898038469 7.85398163397448
2  5 7 0 4.71238898038469 7.85398163397448
0

0101000
+299 4 -298 4 *
Ve
1.5e-07
336 247.5 18
0 0

0101101
*
Ed
 1.5e-07 1 1 0
1  17 0 -133.75 -123.75
0

0101000
+299 4 -296 4 *
Ve
1.5e-07
341 247.5 18
0 0

0101101
*
Ed
 1.5e-07 1 1 0
1  18 0 -133.75 -123.75
0

0101000
+298 4 -294 4 *
Ed
 1e-07 1 1 0
1  19 0 1.5707963267949 4.71238898038469
2  6 8 0 1.5707963267949 4.71238898038469
0

0101000
+294 4 -296 4 *
Wi

0101100
-297 0 +295 0 -293 0 -292 0 *
Ve
1.5e-07
323.5 270 18
0 0

0101101
*
Ve
1.5e-07
328.5 270 18
0 0

0101101
*
Ed
 1e-07 1 1 0
1  20 0 4.71238898038469 7.85398163397448
2  7 9 0 4.71238898038469 7.85398163397448
0

0101000
+290 4 -289 4 *
Ve
1.5e-07
323.5 260 18
0 0

0101101
*
Ed
 1.5e-07 1 1 0
1  21 0 -140 -130
0

0101000
+290 4 -287 4 *
Ve
1.5e-07
328.5 260 18
0 0

0101101
*
Ed
 1.5e-07 1 1 0
1  22 0 -140 -130
0

0101000
+289 4 -285 4 *
Ed
 1e-07 1 1 0
1  23 0 1.5707963267949 4.71238898038469
2  8 10 0 1.5707963267949 4.71238898038469
0

0101000
+285 4 -287 4 *
Wi

0101100
-288 0 +286 0 -284 0 -283 0 *
Ve
1.5e-07
184 131 18
0 0

0101101
*
Ve
1.5e-07
568 131 18
0 0

0101101
*
Ed
 1.5e-07 1 1 0
1  24 0 92 476
0

0101000
+281 4 -280 4 *
Ve
1.5e-07
176 123 18
0 0

0101101
*
Ed
 1e-07 1 1 0
1  25 0 4.71238898038469 6.28318530717959
2  9 11 0 4.71238898038469 6.28318530717959
0

0101000
+278 4 -281 4 *
Ve
1.5e-07
576 123 18
0 0

0101101
*
Ed
 1e-07 1 1 0
1  26 0 0 1.5707963267949
2  10 12 0 0 1.5707963267949
0

0101000
+280 4 -276 4 *
Ve
1.5e-07
176 39 18
0 0

0101101
*
Ed
 1.5e-07 1 1 0
1  27 0 -103.5 -19.5
0

0101000
+278 4 -274 4 *
Ve
1.5e-07
576 39 18
0 0

0101101
*
Ed
 1.5e-07 1 1 0
1  28 0 -103.5 -19.5
0

0101000
+276 4 -272 4 *
Ve
1.5e-07
184 31 18
0 0

0101101
*
Ed
 1e-07 1 1 0
1  29 0 3.14159265358979 4.71238898038469
2  11 13 0 3.14159265358979 4.71238898038469
0

0101000
+270 4 -274 4 *
Ve
1.5e-07
568 31 18
0 0

0101101
*
Ed
 1e-07 1 1 0
1  30 0 1.5707963267949 3.14159265358979
2  12 14 0 1.5707963267949 3.14159265358979
0

0101000
+272 4 -268 4 *
Ed
 1.5e-07 1 1 0
1  31 0 92 476
0

0101000
+270 4 -268 4 *
Wi

0101100
-279 0 -277 0 -275 0 +273 0 -271 0 -269 0 -267 0 +266 0 *
Ve
1.5e-07
411 182.5 18
0 0

0101101
*
Ve
1.5e-07
416 182.5 18
0 0

0101101
*
Ed
 1e-07 1 1 0
1  32 0 4.71238898038469 7.85398163397448
2  13 15 0 4.71238898038469 7.85398163397448
0

0101000
+264 4 -263 4 *
Ve
1.5e-07
411 172.5 18
0 0

0101101
*
Ed
 1.5e-07 1 1 0
1  33 0 -96.25 -86.25
0

0101000
+264 4 -261 4 *
Ve
1.5e-07
416 172.5 18
0 0

0101101
*
Ed
 1.5e-07 1 1 0
1  34 0 -96.25 -86.25
0

0101000
+263 4 -259 4 *
Ed
 1e-07 1 1 0
1  35 0 1.5707963267949 4.71238898038469
2  14 16 0 1.5707963267949 4.71238898038469
0

0101000
+259 4 -261 4 *
Wi

0101100
-262 0 +260 0 -258 0 -257 0 *
Ve
1.5e-07
423.5 170 18
0 0

0101101
*
Ve
1.5e-07
428.5 170 18
0 0

0101101
*
Ed
 1e-07 1 1 0
1  36 0 4.71238898038469 7.85398163397448
2  15 17 0 4.71238898038469 7.85398163397448
0

0101000
+255 4 -254 4 *
Ve
1.5e-07
423.5 160 18
0 0

0101101
*
Ed
 1.5e-07 1 1 0
1  37 0 -90 -80
0

0101000
+255 4 -252 4 *
Ve
1.5e-07
428.5 160 18
0 0

0101101
*
Ed
 1.5e-07 1 1 0
1  38 0 -90 -80
0

0101000
+254 4 -250 4 *
Ed
 1e-07 1 1 0
1  39 0 1.5707963267949 4.71238898038469
2  16 18 0 1.5707963267949 4.71238898038469
0

0101000
+250 4 -252 4 *
Wi

0101100
-253 0 +251 0 -249 0 -248 0 *
Ve
1.5e-07
411 257.5 18
0 0

0101101
*
Ve
1.5e-07
416 257.5 18
0 0

0101101
*
Ed
 1e-07 1 1 0
1  40 0 4.71238898038469 7.85398163397448
2  17 19 0 4.71238898038469 7.85398163397448
0

0101000
+246 4 -245 4 *
Ve
1.5e-07
411 247.5 18
0 0

0101101
*
Ed
 1.5e-07 1 1 0
1  41 0 -133.75 -123.75
0

0101000
+246 4 -243 4 *
Ve
1.5e-07
416 247.5 18
0 0

0101101
*
Ed
 1.5e-07 1 1 0
1  42 0 -133.75 -123.75
0

0101000
+245 4 -241 4 *
Ed
 1e-07 1 1 0
1  43 0 1.5707963267949 4.71238898038469
2  18 20 0 1.5707963267949 4.71238898038469
0

0101000
+241 4 -243 4 *
Wi

0101100
-244 0 +242 0 -240 0 -239 0 *
Ve
1.5e-07
423.5 270 18
0 0

0101101
*
Ve
1.5e-07
428.5 270 18
0 0

0101101
*
Ed
 1e-07 1 1 0
1  44 0 4.71238898038469 7.85398163397448
2  19 21 0 4.71238898038469 7.85398163397448
0

0101000
+237 4 -236 4 *
Ve
1.5e-07
428.5 260 18
0 0

0101101
*
Ed
 1.5e-07 1 1 0
1  45 0 -140 -130
0

0101000
+236 4 -234 4 *
Ve
1.5e-07
423.5 260 18
0 0

0101101
*
Ed
 1e-07 1 1 0
1  46 0 1.5707963267949 4.71238898038469
2  20 22 0 1.5707963267949 4.71238898038469
0

0101000
+234 4 -232 4 *
Ed
 1.5e-07 1 1 0
1  47 0 -140 -130
0

0101000
+237 4 -232 4 *
Wi

0101100
-235 0 -233 0 -231 0 +230 0 *
Fa
0  1e-07 2 0

0111000
+318 0 +309 0 +300 0 +291 0 +282 0 +265 0 +256 0 +247 0 +238 0 +229 0 
*
Ve
1e-07
752 448.8 0
0 0

0101101
*
Ed
 1e-07 1 1 0
1  48 0 0 752
0

0101000
-227 4 +330 4 *
Ed
 1e-07 1 1 0
1  49 0 0 18
0

0101000
-227 4 +321 4 *
Wi

0101100
-329 0 -226 0 +225 0 +319 0 *
Fa
0  1e-07 23 0

0111000
+224 0 *
Ve
1e-07
752 0 0
0 0

0101101
*
Ed
 1e-07 1 1 0
1  50 0 0 752
0

0101000
-222 4 +328 4 *
Ed
 1e-07 1 1 0
1  51 0 0 448.8
0

0101000
-227 4 +222 4 *
Wi

0101100
-221 0 -220 0 +327 0 +226 0 *
Ve
1.5e-07
323.5 170 0
0 0

0101101
*
Ve
1.5e-07
328.5 170 0
0 0

0101101
*
Ed
 1e-07 1 1 0
1  52 0 4.71238898038469 7.85398163397448
2  21 3 0 4.71238898038469 7.85398163397448
0

0101000
+218 4 -217 4 *
Ve
1.5e-07
323.5 160 0
0 0

0101101
*
Ed
 1.5e-07 1 1 0
1  53 0 -90 -80
0

0101000
+218 4 -215 4 *
Ve
1.5e-07
328.5 160 0
0 0

0101101
*
Ed
 1.5e-07 1 1 0
1  54 0 -90 -80
0

0101000
+217 4 -213 4 *
Ed
 1e-07 1 1 0
1  55 0 1.5707963267949 4.71238898038469
2  22 4 0 1.5707963267949 4.71238898038469
0

0101000
+213 4 -215 4 *
Wi

0101100
-216 0 +214 0 -212 0 -211 0 *
Ve
1.5e-07
336 182.5 0
0 0

0101101
*
Ve
1.5e-07
341 182.5 0
0 0

0101101
*
Ed
 1e-07 1 1 0
1  56 0 4.71238898038469 7.85398163397448
2  23 5 0 4.71238898038469 7.85398163397448
0

0101000
+209 4 -208 4 *
Ve
1.5e-07
336 172.5 0
0 0

0101101
*
Ed
 1.5e-07 1 1 0
1  57 0 -96.25 -86.25
0

0101000
+209 4 -206 4 *
Ve
1.5e-07
341 172.5 0
0 0

0101101
*
Ed
 1.5e-07 1 1 0
1  58 0 -96.25 -86.25
0

0101000
+208 4 -204 4 *
Ed
 1e-07 1 1 0
1  59 0 1.5707963267949 4.71238898038469
2  24 6 0 1.5707963267949 4.71238898038469
0

0101000
+204 4 -206 4 *
Wi

0101100
-207 0 +205 0 -203 0 -202 0 *
Ve
1.5e-07
336 257.5 0
0 0

0101101
*
Ve
1.5e-07
341 257.5 0
0 0

0101101
*
Ed
 1e-07 1 1 0
1  60 0 4.71238898038469 7.85398163397448
2  25 7 0 4.71238898038469 7.85398163397448
0

0101000
+200 4 -199 4 *
Ve
1.5e-07
336 247.5 0
0 0

0101101
*
Ed
 1.5e-07 1 1 0
1  61 0 -133.75 -123.75
0

0101000
+200 4 -197 4 *
Ve
1.5e-07
341 247.5 0
0 0

0101101
*
Ed
 1.5e-07 1 1 0
1  62 0 -133.75 -123.75
0

0101000
+199 4 -195 4 *
Ed
 1e-07 1 1 0
1  63 0 1.5707963267949 4.71238898038469
2  26 8 0 1.5707963267949 4.71238898038469
0

0101000
+195 4 -197 4 *
Wi

0101100
-198 0 +196 0 -194 0 -193 0 *
Ve
1.5e-07
323.5 270 0
0 0

0101101
*
Ve
1.5e-07
328.5 270 0
0 0

0101101
*
Ed
 1e-07 1 1 0
1  64 0 4.71238898038469 7.85398163397448
2  27 9 0 4.71238898038469 7.85398163397448
0

0101000
+191 4 -190 4 *
Ve
1.5e-07
323.5 260 0
0 0

0101101
*
Ed
 1.5e-07 1 1 0
1  65 0 -140 -130
0

0101000
+191 4 -188 4 *
Ve
1.5e-07
328.5 260 0
0 0

0101101
*
Ed
 1.5e-07 1 1 0
1  66 0 -140 -130
0

0101000
+190 4 -186 4 *
Ed
 1e-07 1 1 0
1  67 0 1.5707963267949 4.71238898038469
2  28 10 0 1.5707963267949 4.71238898038469
0

0101000
+186 4 -188 4 *
Wi

0101100
-189 0 +187 0 -185 0 -184 0 *
Ve
1.5e-07
184 131 0
0 0

0101101
*
Ve
1.5e-07
568 131 0
0 0

0101101
*
Ed
 1.5e-07 1 1 0
1  68 0 92 476
0

0101000
+182 4 -181 4 *
Ve
1.5e-07
176 123 0
0 0

0101101
*
Ed
 1e-07 1 1 0
1  69 0 4.71238898038469 6.28318530717959
2  29 11 0 4.71238898038469 6.28318530717959
0

0101000
+179 4 -182 4 *
Ve
1.5e-07
576 123 0
0 0

0101101
*
Ed
 1e-07 1 1 0
1  70 0 0 1.5707963267949
2  30 12 0 0 1.5707963267949
0

0101000
+181 4 -177 4 *
Ve
1.5e-07
176 39 0
0 0

0101101
*
Ed
 1.5e-07 1 1 0
1  71 0 -103.5 -19.5
0

0101000
+179 4 -175 4 *
Ve
1.5e-07
576 39 0
0 0

0101101
*
Ed
 1.5e-07 1 1 0
1  72 0 -103.5 -19.5
0

0101000
+177 4 -173 4 *
Ve
1.5e-07
184 31 0
0 0

0101101
*
Ed
 1e-07 1 1 0
1  73 0 3.14159265358979 4.71238898038469
2  31 13 0 3.14159265358979 4.71238898038469
0

0101000
+171 4 -175 4 *
Ve
1.5e-07
568 31 0
0 0

0101101
*
Ed
 1e-07 1 1 0
1  74 0 1.5707963267949 3.14159265358979
2  32 14 0 1.5707963267949 3.14159265358979
0

0101000
+173 4 -169 4 *
Ed
 1.5e-07 1 1 0
1  75 0 92 476
0

0101000
+171 4 -169 4 *
Wi

0101100
-180 0 -178 0 -176 0 +174 0 -172 0 -170 0 -168 0 +167 0 *
Ve
1.5e-07
411 182.5 0
0 0

0101101
*
Ve
1.5e-07
416 182.5 0
0 0

0101101
*
Ed
 1e-07 1 1 0
1  76 0 4.71238898038469 7.85398163397448
2  33 15 0 4.71238898038469 7.85398163397448
0

0101000
+165 4 -164 4 *
Ve
1.5e-07
411 172.5 0
0 0

0101101
*
Ed
 1.5e-07 1 1 0
1  77 0 -96.25 -86.25
0

0101000
+165 4 -162 4 *
Ve
1.5e-07
416 172.5 0
0 0

0101101
*
Ed
 1.5e-07 1 1 0
1  78 0 -96.25 -86.25
0

0101000
+164 4 -160 4 *
Ed
 1e-07 1 1 0
1  79 0 1.5707963267949 4.71238898038469
2  34 16 0 1.5707963267949 4.71238898038469
0

0101000
+160 4 -162 4 *
Wi

0101100
-163 0 +161 0 -159 0 -158 0 *
Ve
1.5e-07
423.5 170 0
0 0

0101101
*
Ve
1.5e-07
428.5 170 0
0 0

0101101
*
Ed
 1e-07 1 1 0
1  80 0 4.71238898038469 7.85398163397448
2  35 17 0 4.71238898038469 7.85398163397448
0

0101000
+156 4 -155 4 *
Ve
1.5e-07
423.5 160 0
0 0

0101101
*
Ed
 1.5e-07 1 1 0
1  81 0 -90 -80
0

0101000
+156 4 -153 4 *
Ve
1.5e-07
428.5 160 0
0 0

0101101
*
Ed
 1.5e-07 1 1 0
1  82 0 -90 -80
0

0101000
+155 4 -151 4 *
Ed
 1e-07 1 1 0
1  83 0 1.5707963267949 4.71238898038469
2  36 18 0 1.5707963267949 4.71238898038469
0

0101000
+151 4 -153 4 *
Wi

0101100
-154 0 +152 0 -150 0 -149 0 *
Ve
1.5e-07
411 257.5 0
0 0

0101101
*
Ve
1.5e-07
416 257.5 0
0 0

0101101
*
Ed
 1e-07 1 1 0
1  84 0 4.71238898038469 7.85398163397448
2  37 19 0 4.71238898038469 7.85398163397448
0

0101000
+147 4 -146 4 *
Ve
1.5e-07
411 247.5 0
0 0

0101101
*
Ed
 1.5e-07 1 1 0
1  85 0 -133.75 -123.75
0

0101000
+147 4 -144 4 *
Ve
1.5e-07
416 247.5 0
0 0

0101101
*
Ed
 1.5e-07 1 1 0
1  86 0 -133.75 -123.75
0

0101000
+146 4 -142 4 *
Ed
 1e-07 1 1 0
1  87 0 1.5707963267949 4.71238898038469
2  38 20 0 1.5707963267949 4.71238898038469
0

0101000
+142 4 -144 4 *
Wi

0101100
-145 0 +143 0 -141 0 -140 0 *
Ve
1.5e-07
423.5 270 0
0 0

0101101
*
Ve
1.5e-07
428.5 270 0
0 0

0101101
*
Ed
 1e-07 1 1 0
1  88 0 4.71238898038469 7.85398163397448
2  39 21 0 4.71238898038469 7.85398163397448
0

0101000
+138 4 -137 4 *
Ve
1.5e-07
428.5 260 0
0 0

0101101
*
Ed
 1.5e-07 1 1 0
1  89 0 -140 -130
0

0101000
+137 4 -135 4 *
Ve
1.5e-07
423.5 260 0
0 0

0101101
*
Ed
 1e-07 1 1 0
1  90 0 1.5707963267949 4.71238898038469
2  40 22 0 1.5707963267949 4.71238898038469
0

0101000
+135 4 -133 4 *
Ed
 1.5e-07 1 1 0
1  91 0 -140 -130
0

0101000
+138 4 -133 4 *
Wi

0101100
-136 0 -134 0 -132 0 +131 0 *
Fa
0  1e-07 24 0

0111000
+219 0 +210 0 +201 0 +192 0 +183 0 +166 0 +157 0 +148 0 +139 0 +130 0 
*
Ed
 1e-07 1 1 0
1  92 0 0 18
0

0101000
-222 4 +323 4 *
Wi

0101100
-326 0 -221 0 +128 0 +322 0 *
Fa
0  1e-07 25 0

0111000
+127 0 *
Wi

0101100
-320 0 -225 0 +220 0 +128 0 *
Fa
0  1e-07 26 0

0111000
+125 0 *
Ed
 1e-07 1 1 0
1  93 0 1 19
2  41 3 0 1 19
0

0101000
+316 4 -217 4 *
Ed
 1e-07 1 1 0
1  94 0 1 19
2  42 3 0 1 19
0

0101000
+317 4 -218 4 *
Wi

0101100
-216 0 +123 0 +315 0 -122 0 *
Fa
0  1e-07 3 0

0111000
+121 0 *
Ed
 1e-07 1 1 0
1  95 0 1 19
2  43 4 0 1 19
0

0101000
+314 4 -215 4 *
Wi

0101100
+313 0 -122 0 -214 0 +119 0 *
Fa
0  1e-07 27 0

0111000
+118 0 *
Ed
 1e-07 1 1 0
1  96 0 1 19
2  44 4 0 1 19
0

0101000
+312 4 -213 4 *
Wi

0101100
+311 0 -123 0 -212 0 +116 0 *
Fa
0  1e-07 28 0

0111000
+115 0 *
Wi

0101100
-211 0 +119 0 +310 0 -116 0 *
Fa
0  1e-07 4 0

0111000
+113 0 *
Ed
 1e-07 1 1 0
1  97 0 1 19
2  45 5 0 1 19
0

0101000
+307 4 -208 4 *
Ed
 1e-07 1 1 0
1  98 0 1 19
2  46 5 0 1 19
0

0101000
+308 4 -209 4 *
Wi

0101100
-207 0 +111 0 +306 0 -110 0 *
Fa
0  1e-07 5 0

0111000
+109 0 *
Ed
 1e-07 1 1 0
1  99 0 1 19
2  47 6 0 1 19
0

0101000
+305 4 -206 4 *
Wi

0101100
+304 0 -110 0 -205 0 +107 0 *
Fa
0  1e-07 29 0

0111000
+106 0 *
Ed
 1e-07 1 1 0
1  100 0 1 19
2  48 6 0 1 19
0

0101000
+303 4 -204 4 *
Wi

0101100
+302 0 -111 0 -203 0 +104 0 *
Fa
0  1e-07 30 0

0111000
+103 0 *
Wi

0101100
-202 0 +107 0 +301 0 -104 0 *
Fa
0  1e-07 6 0

0111000
+101 0 *
Ed
 1e-07 1 1 0
1  101 0 1 19
2  49 7 0 1 19
0

0101000
+298 4 -199 4 *
Ed
 1e-07 1 1 0
1  102 0 1 19
2  50 7 0 1 19
0

0101000
+299 4 -200 4 *
Wi

0101100
-198 0 +99 0 +297 0 -98 0 *
Fa
0  1e-07 7 0

0111000
+97 0 *
Ed
 1e-07 1 1 0
1  103 0 1 19
2  51 8 0 1 19
0

0101000
+296 4 -197 4 *
Wi

0101100
+295 0 -98 0 -196 0 +95 0 *
Fa
0  1e-07 31 0

0111000
+94 0 *
Ed
 1e-07 1 1 0
1  104 0 1 19
2  52 8 0 1 19
0

0101000
+294 4 -195 4 *
Wi

0101100
+293 0 -99 0 -194 0 +92 0 *
Fa
0  1e-07 32 0

0111000
+91 0 *
Wi

0101100
-193 0 +95 0 +292 0 -92 0 *
Fa
0  1e-07 8 0

0111000
+89 0 *
Ed
 1e-07 1 1 0
1  105 0 1 19
2  53 9 0 1 19
0

0101000
+289 4 -190 4 *
Ed
 1e-07 1 1 0
1  106 0 1 19
2  54 9 0 1 19
0

0101000
+290 4 -191 4 *
Wi

0101100
-189 0 +87 0 +288 0 -86 0 *
Fa
0  1e-07 9 0

0111000
+85 0 *
Ed
 1e-07 1 1 0
1  107 0 1 19
2  55 10 0 1 19
0

0101000
+287 4 -188 4 *
Wi

0101100
+286 0 -86 0 -187 0 +83 0 *
Fa
0  1e-07 33 0

0111000
+82 0 *
Ed
 1e-07 1 1 0
1  108 0 1 19
2  56 10 0 1 19
0

0101000
+285 4 -186 4 *
Wi

0101100
+284 0 -87 0 -185 0 +80 0 *
Fa
0  1e-07 34 0

0111000
+79 0 *
Wi

0101100
-184 0 +83 0 +283 0 -80 0 *
Fa
0  1e-07 10 0

0111000
+77 0 *
Ed
 1e-07 1 1 0
1  109 0 1 19
2  57 11 0 1 19
0

0101000
+281 4 -182 4 *
Ed
 1e-07 1 1 0
1  110 0 1 19
2  58 12 0 1 19
0

0101000
+280 4 -181 4 *
Wi

0101100
-75 0 -180 0 +74 0 +279 0 *
Fa
0  1e-07 35 0

0111000
+73 0 *
Ed
 1e-07 1 1 0
1  111 0 1 19
2  59 11 0 1 19
0

0101000
+278 4 -179 4 *
Wi

0101100
-178 0 +75 0 +277 0 -71 0 *
Fa
0  1e-07 11 0

0111000
+70 0 *
Ed
 1e-07 1 1 0
1  112 0 1 19
2  60 12 0 1 19
0

0101000
+276 4 -177 4 *
Wi

0101100
-176 0 +68 0 +275 0 -74 0 *
Fa
0  1e-07 12 0

0111000
+67 0 *
Ed
 1e-07 1 1 0
1  113 0 1 19
2  61 13 0 1 19
0

0101000
+274 4 -175 4 *
Wi

0101100
+273 0 -71 0 -174 0 +65 0 *
Fa
0  1e-07 36 0

0111000
+64 0 *
Ed
 1e-07 1 1 0
1  114 0 1 19
2  62 14 0 1 19
0

0101000
+272 4 -173 4 *
Wi

0101100
+271 0 -68 0 -172 0 +62 0 *
Fa
0  1e-07 37 0

0111000
+61 0 *
Ed
 1e-07 1 1 0
1  115 0 1 19
2  63 13 0 1 19
0

0101000
+270 4 -171 4 *
Wi

0101100
-170 0 +65 0 +269 0 -59 0 *
Fa
0  1e-07 13 0

0111000
+58 0 *
Ed
 1e-07 1 1 0
1  116 0 1 19
2  64 14 0 1 19
0

0101000
+268 4 -169 4 *
Wi

0101100
-168 0 +56 0 +267 0 -62 0 *
Fa
0  1e-07 14 0

0111000
+55 0 *
Wi

0101100
-59 0 -167 0 +56 0 +266 0 *
Fa
0  1e-07 38 0

0111000
+53 0 *
Ed
 1e-07 1 1 0
1  117 0 1 19
2  65 15 0 1 19
0

0101000
+263 4 -164 4 *
Ed
 1e-07 1 1 0
1  118 0 1 19
2  66 15 0 1 19
0

0101000
+264 4 -165 4 *
Wi

0101100
-163 0 +51 0 +262 0 -50 0 *
Fa
0  1e-07 15 0

0111000
+49 0 *
Ed
 1e-07 1 1 0
1  119 0 1 19
2  67 16 0 1 19
0

0101000
+261 4 -162 4 *
Wi

0101100
+260 0 -50 0 -161 0 +47 0 *
Fa
0  1e-07 39 0

0111000
+46 0 *
Ed
 1e-07 1 1 0
1  120 0 1 19
2  68 16 0 1 19
0

0101000
+259 4 -160 4 *
Wi

0101100
+258 0 -51 0 -159 0 +44 0 *
Fa
0  1e-07 40 0

0111000
+43 0 *
Wi

0101100
-158 0 +47 0 +257 0 -44 0 *
Fa
0  1e-07 16 0

0111000
+41 0 *
Ed
 1e-07 1 1 0
1  121 0 1 19
2  69 17 0 1 19
0

0101000
+254 4 -155 4 *
Ed
 1e-07 1 1 0
1  122 0 1 19
2  70 17 0 1 19
0

0101000
+255 4 -156 4 *
Wi

0101100
-154 0 +39 0 +253 0 -38 0 *
Fa
0  1e-07 17 0

0111000
+37 0 *
Ed
 1e-07 1 1 0
1  123 0 1 19
2  71 18 0 1 19
0

0101000
+252 4 -153 4 *
Wi

0101100
+251 0 -38 0 -152 0 +35 0 *
Fa
0  1e-07 41 0

0111000
+34 0 *
Ed
 1e-07 1 1 0
1  124 0 1 19
2  72 18 0 1 19
0

0101000
+250 4 -151 4 *
Wi

0101100
+249 0 -39 0 -150 0 +32 0 *
Fa
0  1e-07 42 0

0111000
+31 0 *
Wi

0101100
-149 0 +35 0 +248 0 -32 0 *
Fa
0  1e-07 18 0

0111000
+29 0 *
Ed
 1e-07 1 1 0
1  125 0 1 19
2  73 19 0 1 19
0

0101000
+245 4 -146 4 *
Ed
 1e-07 1 1 0
1  126 0 1 19
2  74 19 0 1 19
0

0101000
+246 4 -147 4 *
Wi

0101100
-145 0 +27 0 +244 0 -26 0 *
Fa
0  1e-07 19 0

0111000
+25 0 *
Ed
 1e-07 1 1 0
1  127 0 1 19
2  75 20 0 1 19
0

0101000
+243 4 -144 4 *
Wi

0101100
+242 0 -26 0 -143 0 +23 0 *
Fa
0  1e-07 43 0

0111000
+22 0 *
Ed
 1e-07 1 1 0
1  128 0 1 19
2  76 20 0 1 19
0

0101000
+241 4 -142 4 *
Wi

0101100
+240 0 -27 0 -141 0 +20 0 *
Fa
0  1e-07 44 0

0111000
+19 0 *
Wi

0101100
-140 0 +23 0 +239 0 -20 0 *
Fa
0  1e-07 20 0

0111000
+17 0 *
Ed
 1e-07 1 1 0
1  129 0 1 19
2  77 21 0 1 19
0

0101000
+236 4 -137 4 *
Ed
 1e-07 1 1 0
1  130 0 1 19
2  78 21 0 1 19
0

0101000
+237 4 -138 4 *
Wi

0101100
-136 0 +15 0 +235 0 -14 0 *
Fa
0  1e-07 21 0

0111000
+13 0 *
Ed
 1e-07 1 1 0
1  131 0 1 19
2  79 22 0 1 19
0

0101000
+234 4 -135 4 *
Wi

0101100
+233 0 -15 0 -134 0 +11 0 *
Fa
0  1e-07 45 0

0111000
+10 0 *
Ed
 1e-07 1 1 0
1  132 0 1 19
2  80 22 0 1 19
0

0101000
+232 4 -133 4 *
Wi

0101100
-132 0 +8 0 +231 0 -11 0 *
Fa
0  1e-07 22 0

0111000
+7 0 *
Wi

0101100
+230 0 -14 0 -131 0 +8 0 *
Fa
0  1e-07 46 0

0111000
+5 0 *
Sh

0101100
-324 0 -228 0 +223 0 +129 0 -126 0 +124 0 -120 0 +117 0 -114 0 -112 0 
-108 0 +105 0 -102 0 -100 0 -96 0 +93 0 -90 0 -88 0 -84 0 +81 0 
-78 0 -76 0 -72 0 -69 0 -66 0 +63 0 -60 0 -57 0 -54 0 +52 0 
-48 0 +45 0 -42 0 -40 0 -36 0 +33 0 -30 0 -28 0 -24 0 +21 0 
-18 0 -16 0 -12 0 -9 0 -6 0 +4 0 *
So

0100000
+3 0 *
Co

1100000
+2 0 *

+1 3 