DBRep_DrawableShape

CASCADE Topology V1, (c) Matra-Datavision
Locations 2
1
              1               0               0               0 
              0               1               0               0 
              0               0               1             126 
2  1 -1 0
Curve2ds 38
1 0 0 1 0 
1 -19.091883092036785 -19.091883092036785 1 0 
1 54 0 0 -1 
1 0 0 0 -1 
1 0 -126 1 0 
1 -19.091883092036785 -19.091883092036785 1 0 
1 0 0 0 -1 
1 54 0 0 -1 
3 0 -100 1 0 -0 1 7.7781745930520234 5.5
7 0 0  7 14 3  3.9450112469131176 24.465894629054546  4.112023679789294 25.127019203821575  4.2790361126659135 25.912401596342534  4.4460485455402008 26.791920347259293  4.6130609784190924 27.726969964627642  4.7800734112937207 28.673858238497814  4.9470858441701759 29.589283170541655  5.2811107099225287 31.280172854961329  5.448123142798714 32.055636927736487  5.6151355756751045 32.722607444298774  5.7821480085509265 33.247331275353645  5.9491604414273169 33.60528956822418  6.1161728743034098 33.784271247461902  6.2831853071795862 33.784271247461902 
 3.9450112469131184 8 5.1140982770463523 6 6.2831853071795862 8
3 0 -100 1 0 -0 1 7.7781745930520234 5.5
7 0 0  7 14 3  0 33.784271247461902  0.16701243287617626 33.784271247461902  0.33402486575241142 33.605289568221451  0.50103729862848922 33.247331275339093  0.66804973150493652 32.722607444291498  0.83506216438081537 32.055636927734668  1.0020745972570575 31.280172854961329  1.3360994630094098 29.589283170541655  1.503111895885695 28.673858238493267  1.6701243287616307 27.726969964653108  1.8371367616375665 26.791920347244741  2.0041491945139001 25.912401596355267  2.1711616273902923 25.127019203821579  2.3381740602664687 24.465894629054549 
 0 8 1.1690870301332339 6 2.3381740602664678 8
3 0 -42 1 0 -0 1 7.7781745930520234 5.5
7 0 0  7 14 3  3.9450112469131184 24.465894629054546  4.1120236797892948 25.127019203821575  4.279036112665402 25.912401596342534  4.4460485455417924 26.791920347259293  4.613060978417046 27.726969964627642  4.7800734112943459 28.673858238497814  4.9470858441701759 29.589283170541655  5.2811107099225287 31.280172854961329  5.4481231427987851 32.055636927736487  5.6151355756743087 32.722607444298774  5.7821480085513812 33.247331275353645  5.949160441427118 33.60528956822418  6.1161728743034098 33.784271247461902  6.2831853071795862 33.784271247461902 
 3.9450112469131184 8 5.1140982770463523 6 6.2831853071795862 8
3 0 -42 1 0 -0 1 7.7781745930520234 5.5
7 0 0  7 14 3  0 33.784271247461902  0.16701243287617626 33.784271247461902  0.33402486575243984 33.605289568221451  0.50103729862860291 33.247331275339093  0.66804973150482283 32.722607444291498  0.8350621643808438 32.055636927734668  1.0020745972570575 31.280172854961329  1.3360994630094098 29.589283170541655  1.5031118958855245 28.673858238493267  1.6701243287614034 27.726969964653108  1.8371367616389307 26.791920347244741  2.0041491945138432 25.912401596355267  2.1711616273902914 25.127019203821579  2.3381740602664678 24.465894629054549 
 0 8 1.1690870301332339 6 2.3381740602664678 8
1 0 0 1 0 
1 34.908116907963219 -19.091883092036785 -0.70710678118654757 0.70710678118654757 
1 0 0 1 0 
1 -19.091883092036785 34.908116907963219 0 -1 
1 0 -126 1 0 
1 34.908116907963219 -19.091883092036785 -0.70710678118654757 0.70710678118654757 
1 76.367532368147138 0 0 -1 
1 0 0 0 -1 
2 38.183766184073569 -100 -1 -0 -0 1 5.5
1 0 66.46803743153545 1 0 
2 38.183766184073569 -42 -1 -0 -0 1 5.5
1 0 66.46803743153545 1 0 
1 0 -126 1 0 
1 -19.091883092036785 34.908116907963219 0 -1 
3 54 -42 -1 0 -0 -1 7.7781745930520234 5.5
7 0 0  8 23 4  0.80341859332332544 24.465894629054553  0.94955447208997967 25.044378631975704  1.0956903508566167 25.716055998215023  1.2418262296232214 26.46210081567142  1.3879621083900133 27.259445155947105  1.5340979871566773 28.082053067330321  1.6802338659231189 28.902714471511501  1.8263697446899054 29.694963775817882  2.191709441606541 31.544374368151903  2.4109132597559437 32.535929472160205  2.6301170778988308 33.328142536629457  2.8493208960662741 33.851884926785715  3.0685247141973377 34.062567940622102  3.2877285323565957 33.949759334405826  3.5069323505064278 33.536357901331634  3.9453399868063905 32.205789360431943  4.1645438049490622 31.288621554951533  4.3837476231183246 30.168290255227475  4.6029514412148274 28.919291766273091  4.8221552594168315 27.63458693397115  5.0413590775506236 26.411032356729265  5.2605628957062791 25.333620633436279  5.4797667138562609 24.465894629054549 
 3.9450112469131189 9 5.1140982770463559 7 6.867728822246205 7 8.621359367446054 9
3 54 -100 -1 0 -0 -1 7.7781745930520234 5.5
7 0 0  8 23 4  0.80341859332332632 24.465894629054553  0.94955447208998056 25.044378631975704  1.0956903508566169 25.716055998215023  1.2418262296236477 26.46210081567142  1.387962108390127 27.259445155947105  1.5340979871564784 28.082053067330321  1.6802338659232894 28.902714471511501  1.8263697446899054 29.694963775817882  2.191709441606541 31.544374368151903  2.4109132597577627 32.535929472160205  2.6301170778915548 33.328142536629457  2.8493208960717311 33.851884926785715  3.0685247141918808 34.062567940622102  3.2877285323579599 33.949759334405826  3.5069323505064292 33.536357901331634  3.9453399868063919 32.205789360431943  4.1645438049445147 31.288621554951533  4.3837476231437904 30.168290255227475  4.6029514411820855 28.919291766273091  4.8221552594422974 27.63458693397115  5.0413590775424382 26.411032356729265  5.2605628957062782 25.333620633436279  5.47976671385626 24.465894629054549 
 3.9450112469131189 9 5.1140982770463559 7 6.867728822246205 7 8.621359367446054 9
1 6.2831853071795862 -0 0 1 
1 0 -0 0 1 
1 6.2831853071795862 -0 0 1 
1 0 -0 0 1 
Curves 19
1 0 0 0 1 0 0 
1 54 0 0 0 0 1 
1 0 0 0 1 0 0 
1 0 0 0 0 0 1 
3 0 0 100 0 1 0 1 -0 0 0 0 -1 7.7781745930520234 5.5
3 0 0 100 0 1 0 1 -0 0 0 0 -1 7.7781745930520234 5.5
3 0 0 42 0 1 0 1 -0 0 0 0 -1 7.7781745930520234 5.5
3 0 0 42 0 1 0 1 -0 0 0 0 -1 7.7781745930520234 5.5
1 54 0 0 -0.70710678118654746 0.70710678118654746 0 
1 0 54 0 0 -1 0 
1 54 0 0 -0.70710678118654746 0.70710678118654746 0 
1 0 54 0 0 0 1 
2 26.999999999999993 26.999999999999993 100 0.70710678118654757 0.70710678118654757 0 0.70710678118654757 -0.70710678118654757 0 0 0 -1 5.5
2 26.999999999999993 26.999999999999993 42 0.70710678118654757 0.70710678118654757 0 0.70710678118654757 -0.70710678118654757 0 0 0 -1 5.5
1 0 54 0 0 -1 0 
3 0 0 42 1 0 -0 0 1 0 0 -0 1 7.7781745930520234 5.5
3 0 0 100 1 0 -0 0 1 0 0 -0 1 7.7781745930520234 5.5
1 -16.110912703473989 -23.889087296526011 100 0.70710678118654757 0.70710678118654757 0 
1 -16.110912703473989 -23.889087296526011 42 0.70710678118654757 0.70710678118654757 0 
Polygon3D 0
PolygonOnTriangulations 0
Surfaces 7
1 0 0 0 0 1 0 1 0 0 0 0 -1 
1 19.091883092036785 19.091883092036785 0 0 0 1 1 0 -0 -0 1 0 
1 54 0 0 -0.70710678118654757 -0.70710678118654757 0 -0.70710678118654757 0.70710678118654757 0 -0 0 -1 
1 19.091883092036785 19.091883092036785 0 0 0 1 1 0 -0 -0 1 0 
1 0 54 0 1 0 -0 0 -1 0 0 -0 -1 
2 -20 -20 100 0.70710678118654746 0.70710678118654746 0 0.70710678118654757 -0.70710678118654757 0 0 0 -1 5.5
2 -20 -20 42 0.70710678118654746 0.70710678118654746 0 0.70710678118654757 -0.70710678118654757 0 0 0 -1 5.5
Triangulations 0

TShapes 55
Ve
1e-07
0 0 0
0 0

0101101
*
Ve
1e-07
54 0 0
0 0

0101101
*
Ed
 1e-07 1 1 0
1  1 0 0 54
2  1 1 0 0 54
2  2 2 0 0 54
0

0101000
+55 0 -54 0 *
Ve
1e-07
54 0 126
0 0

0101101
*
Ed
 1e-07 1 1 0
1  2 0 0 126
2  3 1 0 0 126
2  4 3 0 0 126
0

0101000
+54 0 -52 0 *
Ve
1e-07
0 0 126
0 0

0101101
*
Ed
 1e-07 1 1 0
1  3 0 0 54
2  5 1 2 0 54
2  6 4 0 0 54
0

0101000
+50 2 -52 2 *
Ve
1.00000002381379e-07
0 0 105.5
0 0

0101101
*
Ed
 1e-07 1 1 0
1  4 0 105.5 126
2  7 1 0 105.5 126
2  8 5 0 105.5 126
0

0101000
+48 0 -50 0 *
Ve
1.00000006404746e-07
7.77817459305202 -3.5527136788005e-15 100
0 0

0101101
*
Ed
 1e-07 1 1 0
1  5 0 4.71238898038469 6.28318530717959
2  9 1 0 4.71238898038469 6.28318530717959
2  10 6 0 4.71238898038469 6.28318530717959
0

0101000
+48 0 -46 0 *
Ve
1.00000001428827e-07
0 0 94.5
0 0

0101101
*
Ed
 1e-07 1 1 0
1  6 0 0 1.5707963267949
2  11 1 0 0 1.5707963267949
2  12 6 0 0 1.5707963267949
0

0101000
+46 0 -44 0 *
Ve
1.00000002381379e-07
0 0 47.5
0 0

0101101
*
Ed
 1e-07 1 1 0
1  4 0 47.5 94.5
2  7 1 0 47.5 94.5
2  8 5 0 47.5 94.5
0

0101000
+42 0 -44 0 *
Ve
1.00000006404746e-07
7.77817459305202 -3.5527136788005e-15 42
0 0

0101101
*
Ed
 1e-07 1 1 0
1  7 0 4.71238898038469 6.28318530717959
2  13 1 0 4.71238898038469 6.28318530717959
2  14 7 0 4.71238898038469 6.28318530717959
0

0101000
+42 0 -40 0 *
Ve
1.00000001428827e-07
0 0 36.5
0 0

0101101
*
Ed
 1e-07 1 1 0
1  8 0 0 1.5707963267949
2  15 1 0 0 1.5707963267949
2  16 7 0 0 1.5707963267949
0

0101000
+40 0 -38 0 *
Ed
 1e-07 1 1 0
1  4 0 0 36.5
2  7 1 0 0 36.5
2  8 5 0 0 36.5
0

0101000
+55 0 -38 0 *
Wi

0101100
-53 0 -51 0 +49 1 +47 0 -45 0 -43 0 +41 0 -39 0 -37 0 +36 0 
*
Fa
0  1e-07 1 0

0101000
+35 0 *
Ve
1e-07
0 54 0
0 0

0101101
*
Ed
 1e-07 1 1 0
1  9 0 0 76.3675323681471
2  17 3 0 0 76.3675323681471
2  18 2 0 0 76.3675323681471
0

0101000
+54 0 -33 0 *
Ed
 1e-07 1 1 0
1  10 0 0 54
2  19 5 0 0 54
2  20 2 0 0 54
0

0101000
+33 0 -55 0 *
Wi

0101100
+53 0 +32 0 +31 0 *
Fa
0  1e-07 2 0

0101000
+30 0 *
Ve
1e-07
0 54 126
0 0

0101101
*
Ed
 1e-07 1 1 0
1  11 0 0 76.3675323681471
2  21 3 2 0 76.3675323681471
2  22 4 0 0 76.3675323681471
0

0101000
+52 2 -28 2 *
Ed
 1e-07 1 1 0
1  12 0 0 126
2  23 3 0 0 126
2  24 5 0 0 126
0

0101000
+33 0 -28 0 *
Wi

0101100
+51 0 -32 0 +27 1 -26 0 *
Ve
1.00000020097183e-07
30.889087296526 23.110912703474 100
0 0

0101101
*
Ed
 1e-07 1 1 0
1  13 0 0 6.28318530717959
2  25 3 0 0 6.28318530717959
2  26 6 0 0 6.28318530717959
0

0101100
+24 0 -24 0 *
Wi

0101100
+23 0 *
Ve
1.00000020097183e-07
30.889087296526 23.110912703474 42
0 0

0101101
*
Ed
 1e-07 1 1 0
1  14 0 0 6.28318530717959
2  27 3 0 0 6.28318530717959
2  28 7 0 0 6.28318530717959
0

0101100
+21 0 -21 0 *
Wi

0101100
+20 0 *
Fa
0  1e-07 3 0

0101000
+25 0 +22 0 +19 0 *
Ed
 1e-07 1 1 0
1  15 0 0 54
2  29 5 2 0 54
2  30 4 0 0 54
0

0101000
+28 2 -50 2 *
Wi

0101100
+49 0 +27 0 +17 0 *
Fa
0  1e-07 4 0

0101000
+16 0 *
Ed
 1e-07 1 1 0
1  16 0 4.71238898038469 7.85398163397448
2  31 5 0 4.71238898038469 7.85398163397448
2  32 7 0 4.71238898038469 7.85398163397448
0

0101000
+38 0 -42 0 *
Ed
 1e-07 1 1 0
1  17 0 4.71238898038469 7.85398163397448
2  33 5 0 4.71238898038469 7.85398163397448
2  34 6 0 4.71238898038469 7.85398163397448
0

0101000
+44 0 -48 0 *
Wi

0101100
-31 0 -36 0 -14 0 -41 0 -13 0 -47 0 +17 1 +26 0 *
Fa
0  1e-07 5 0

0101000
+12 0 *
Ed
 1e-07 1 1 0
1  18 0 33.7842712474619 66.4680374315355
3  35 36CN 6 0 33.7842712474619 66.4680374315355
0

0101000
+46 0 -24 0 *
Wi

0101100
-23 0 +10 0 +45 0 +13 0 +43 0 -10 0 *
Fa
0  1e-07 6 0

0101000
+9 0 *
Ed
 1e-07 1 1 0
1  19 0 33.7842712474619 66.4680374315355
3  37 38CN 7 0 33.7842712474619 66.4680374315355
0

0101000
+40 0 -21 0 *
Wi

0101100
-20 0 +7 0 +39 0 +14 0 +37 0 -7 0 *
Fa
0  1e-07 7 0

0101000
+6 0 *
Sh

0101100
-34 0 -29 0 -18 0 +15 1 -11 0 -8 0 -5 0 *
So

0100000
+4 0 *
Co

0100000
+3 0 *
Co

1100000
+2 0 *

+1 0 