<svg xmlns="http://www.w3.org/2000/svg" viewBox="0 0 2540 1700"><rect width="2540" height="1700" fill="white"/><g transform="translate(20,70)"><rect width="2500" height="1600" fill="#eee" stroke="#333"/><rect x="20" y="20" width="2460" height="1560" fill="white" stroke="#777"/><polygon points="1292.100,592.000 20.000,592.000 20.000,20.000 1292.100,20.000 1292.100,592.000" fill="#dbc59b" stroke="#344955" stroke-width="2"/><text x="25" y="38" font-size="16">M005</text><polygon points="2051.100,62.000 1307.100,62.000 1307.100,20.000 2051.100,20.000 2051.100,62.000" fill="#dbc59b" stroke="#344955" stroke-width="2"/><text x="1312.1" y="38" font-size="16">M040</text><polygon points="2051.100,119.000 1307.100,119.000 1307.100,77.000 2051.100,77.000 2051.100,119.000" fill="#dbc59b" stroke="#344955" stroke-width="2"/><text x="1312.1" y="95.0" font-size="16">M040</text><polygon points="2047.100,334.000 1307.100,334.000 1307.100,134.000 2047.100,134.000 2047.100,334.000" fill="#dbc59b" stroke="#344955" stroke-width="2"/><text x="1312.1" y="152.0" font-size="16">M050</text><polygon points="2031.000,597.000 1307.100,597.000 1307.100,349.000 2031.000,393.000 2031.000,597.000" fill="#dbc59b" stroke="#344955" stroke-width="2"/><text x="1312.1" y="367.0" font-size="16">M032</text><polygon points="1307.100,656.000 2031.000,612.000 2031.000,860.000 1307.100,860.000 1307.100,656.000" fill="#dbc59b" stroke="#344955" stroke-width="2"/><text x="1312.1" y="630.0" font-size="16">M031</text><polygon points="1935.100,875.000 1935.100,898.000 1307.100,898.000 1307.100,875.000 1935.100,875.000" fill="#dbc59b" stroke="#344955" stroke-width="2"/><text x="1312.1" y="893.0" font-size="16">M062</text><polygon points="1904.000,1485.000 1307.100,1485.000 1307.100,913.000 1904.000,913.000 1904.000,1485.000" fill="#dbc59b" stroke="#344955" stroke-width="2"/><text x="1312.1" y="931.0" font-size="16">M004</text><polygon points="592.000,607.000 592.000,1007.050 163.000,1007.050 20.000,1007.050 20.000,607.000 592.000,607.000" fill="#dbc59b" stroke="#344955" stroke-width="2"/><text x="25" y="625.0" font-size="16">M003</text><polygon points="592.000,1022.050 592.000,1185.025 20.000,1185.025 20.000,1022.050 592.000,1022.050" fill="#dbc59b" stroke="#344955" stroke-width="2"/><text x="25" y="1040.05" font-size="16">M018</text><polygon points="1919.000,994.572 1919.000,913.000 2458.600,913.000 2458.600,994.572 1919.000,994.572" fill="#dbc59b" stroke="#344955" stroke-width="2"/><text x="1924.0" y="931.0" font-size="16">M014</text><polygon points="1919.000,1091.144 1919.000,1009.572 2458.600,1009.572 2458.600,1091.144 1919.000,1091.144" fill="#dbc59b" stroke="#344955" stroke-width="2"/><text x="1924.0" y="1027.5718309859155" font-size="16">M014</text><polygon points="1919.000,1187.715 1919.000,1106.144 2458.600,1106.144 2458.600,1187.715 1919.000,1187.715" fill="#dbc59b" stroke="#344955" stroke-width="2"/><text x="1924.0" y="1124.143661971831" font-size="16">M014</text><polygon points="1919.000,1202.715 2379.000,1202.715 2379.000,1487.715 1919.000,1487.715 1919.000,1202.715" fill="#dbc59b" stroke="#344955" stroke-width="2"/><text x="1924.0" y="1220.7154929577466" font-size="16">M017</text><polygon points="1919.000,1502.715 2285.000,1502.715 2285.000,1552.715 1919.000,1552.715 1919.000,1502.715" fill="#dbc59b" stroke="#344955" stroke-width="2"/><text x="1924.0" y="1520.7154929577466" font-size="16">M042</text><polygon points="1307.100,1500.000 1673.100,1500.000 1673.100,1550.000 1307.100,1550.000 1307.100,1500.000" fill="#dbc59b" stroke="#344955" stroke-width="2"/><text x="1312.1" y="1518.0" font-size="16">M042</text></g><text x="20" y="40" font-family="sans-serif" font-size="26">T18-N2 · PRELIMINARY — NOT FOR CNC · 20 mm border / 15 mm spacing</text></svg>