DBRep_DrawableShape

CASCADE Topology V1, (c) Matra-Datavision
Locations 11
1
              1               0               0               0 
              0               1               0               0 
              0               0               1               0 
1
              1               0               0               0 
              0               1               0               0 
              0               0               1               0 
1
              1               0               0               0 
              0               1               0               0 
              0               0               1               0 
1
              1               0               0               0 
              0               1               0               0 
              0               0               1               0 
1
1.11022302462516e-16               0               1               0 
              0               1               0               0 
             -1               0 1.11022302462516e-16               0 
1
              1               0               0              -0 
              0               1               0 3.88908730122752 
              0               0               1              18 
1
              1               0               0               0 
              0               1               0               0 
              0               0               1              -3 
1
              1               0               0               0 
              0               1               0               0 
              0               0               1               1 
1
              1               0               0               0 
              0               1               0               0 
              0               0               1              -1 
2  1 1 2 1 3 1 4 1 5 1 6 1 7 1 8 1 9 1 0
2  9 -1 8 -1 7 -1 6 -1 5 -1 4 -1 3 -1 2 -1 1 -1 0
Curve2ds 0
Curves 1
2 15.000000000000037 89 350.59366197183101 1 0 0 0 -0 1 0 -1 -0 7.9375
Polygon3D 0
PolygonOnTriangulations 0
Surfaces 1
1 350.59366197183095 92.889087301227519 1.7763568394002505e-15 0 0 1 1 0 -0 -0 1 0 
Triangulations 0

TShapes 5
Ve
8.42596118714767e-05
358.531161971831 92.8890873012275 2.02060590481778e-14
0 0

0101101
*
Ed
 8.42596118537557e-05 1 1 0
1  1 0 0 6.28318530717959
0

0101000
+5 11 -5 11 *
Wi

0101100
+4 10 *
Fa
0  1e-07 1 0

0101000
-3 0 *
Sh

1101000
+2 0 *

+1 0 