DBRep_DrawableShape

CASCADE Topology V1, (c) Matra-Datavision
Locations 13
1
              1               0               0               0 
              0               1               0               0 
              0               0               1              -1 
1
              1               0               0               0 
              0               1               0               0 
              0               0               1               0 
1
              1               0               0               0 
              0               1               0               0 
              0               0               1               0 
1
              1               0               0               0 
              0               1               0               0 
              0               0               1               0 
1
              1               0               0               0 
              0               1               0               0 
              0               0               1               0 
1
              1               0               0               0 
              0               1               0               0 
              0               0               1               0 
1
              1               0               0               0 
              0               1               0               0 
              0               0               1               0 
1
1.11022302462516e-16               0              -1               0 
              0               1               0               0 
              1               0 1.11022302462516e-16               0 
1
              1               0               0           596.9 
              0               1               0 3.88908730122752 
              0               0               1            -582 
1
              1               0               0               0 
              0               1               0               0 
              0               0               1             -18 
1
              1               0               0               0 
              0               1               0               0 
              0               0               1               1 
2  2 1 3 1 4 1 5 1 6 1 7 1 8 1 9 1 10 1 11 1 0
2  11 -1 10 -1 9 -1 8 -1 7 -1 6 -1 5 -1 4 -1 3 -1 2 -1 0
Curve2ds 5
1 257.9841237867119 619.00906562298189 -1 0 
1 -338.91587621328807 619.00906562298189 0 -1 
1 -338.91587621328807 438.03406562298198 0.17204376626835494 -0.98508930685912921 
1 -142.06587621328816 -689.09093437701813 1 0 
1 257.9841237867119 -689.09093437701813 0 1 
Curves 5
1 596.89999999999998 1311.9890873012275 1 -1 0 1.1102230246251565e-16 
1 600 1308.0999999999999 596.89999999999998 -0 -1 -0 
1 600 1127.125 596.89999999999998 -0 -0.98508930685912921 -0.17204376626835494 
1 196.84999999999991 3.8890873012275202 1 1 -0 -1.1102230246251565e-16 
1 596.89999999999998 3.8890873012275202 1 0 1 0 
Polygon3D 0
PolygonOnTriangulations 0
Surfaces 1
1 338.91587621328807 692.98002167824563 1.0000000000000338 0 0 1 1 0 -0 -0 1 0 
Triangulations 0

TShapes 11
Ve
8.42596121640909e-05
596.9 1311.98908730123 1.00000000000015
0 0

0101101
*
Ve
8.42596121640909e-05
0 1311.98908730123 1.00000000000027
0 0

0101101
*
Ed
 8.42596121342702e-05 1 1 0
1  1 0 1.6837249945811e-29 596.9
2  1 1 0 1.6837249945811e-29 596.9
0

0101000
+11 0 -10 0 *
Ve
8.42596121640909e-05
0 1131.01408730123 1.00000000000027
0 0

0101101
*
Ed
 8.42596121342702e-05 1 1 0
1  2 0 0 180.975
2  2 1 13 0 180.975
0

0101000
+10 13 -8 13 *
Ve
8.42596122099832e-05
196.85 3.88908730122752 1.00000000000015
0 0

0101101
*
Ed
 8.42596121342702e-05 1 1 0
1  3 0 0 1144.18560038352
2  3 1 13 0 1144.18560038352
0

0101000
+8 13 -6 13 *
Ve
8.42596122086121e-05
596.9 3.88908730122752 1.00000000000015
0 0

0101101
*
Ed
 8.42596121342702e-05 1 1 0
1  4 0 -1.6837249945811e-29 400.05
2  4 1 0 -1.6837249945811e-29 400.05
0

0101000
+6 0 -4 0 *
Ed
 8.42596121342702e-05 1 1 0
1  5 0 4.44089209850063e-16 1308.1
2  5 1 0 4.44089209850063e-16 1308.1
0

0101000
+4 0 -11 0 *
Wi

0101100
+9 0 +7 12 +5 12 +3 0 +2 0 *

+1 1 