DBRep_DrawableShape

CASCADE Topology V1, (c) Matra-Datavision
Locations 47
1
              1               0               0               0 
              0               1               0               0 
              0               0               1              -1 
1
              1               0               0               0 
              0               1               0               0 
              0               0               1               0 
1
1.11022302462516e-16               0              -1               0 
              0               1               0               0 
              1               0 1.11022302462516e-16               0 
1
              1               0               0           596.9 
              0               1               0 3.88908730122752 
              0               0               1            -582 
2  2 1 3 1 4 1 0
1
              1               0               0               0 
              0               1               0               0 
              0               0               1               0 
1
              1               0               0               0 
              0               1               0               0 
              0               0               1               0 
1
              1               0               0               0 
              0               1               0               0 
              0               0               1               0 
1
              1               0               0               0 
              0               1               0               0 
              0               0               1               0 
1
              1               0               0               0 
              0               1               0               0 
              0               0               1               0 
2  6 1 7 1 8 1 9 1 10 1 0
2  4 -1 3 -1 2 -1 0
2  1 -1 0
1
              1               0               0              18 
              0               1               0               0 
              0               0               1               0 
2  14 1 6 1 7 1 8 1 9 1 10 1 0
2  7 1 8 1 9 1 10 1 2 1 3 1 4 1 0
2  14 1 6 1 0
1
              1               0               0               0 
              0               1               0               0 
              0               0               1              -0 
2  18 -1 4 -1 3 -1 2 -1 10 -1 9 -1 8 -1 7 -1 0
1
              1               0               0               0 
              0               1               0               0 
              0               0               1               1 
2  20 -1 18 -1 4 -1 3 -1 2 -1 10 -1 9 -1 8 -1 7 -1 0
2  4 -1 3 -1 2 -1 10 -1 9 -1 8 -1 7 -1 0
1
              1               0               0               0 
              0               1               0               0 
              0               0               1             -18 
1
              1               0               0               0 
              0               1               0               0 
              0               0               1               1 
2  6 1 7 1 8 1 9 1 10 1 2 1 3 1 4 1 23 1 24 1 1 1 0
2  24 -1 23 -1 4 -1 3 -1 2 -1 10 -1 9 -1 8 -1 7 -1 6 -1 0
2  1 -1 24 -1 23 -1 4 -1 3 -1 2 -1 10 -1 9 -1 8 -1 7 -1 6 -1 0
1
              1               0               0               0 
              0               1               0               0 
              0               0               1 -3.99999999999977 
1
              1               0               0               0 
              0               1               0               0 
              0               0               1               1 
2  2 1 3 1 4 1 28 1 29 1 1 1 0
2  29 -1 28 -1 4 -1 3 -1 2 -1 0
2  1 -1 29 -1 28 -1 4 -1 3 -1 2 -1 0
1
              1               0               0               0 
              0               1               0               0 
              0               0               1              18 
2  33 -1 1 -1 29 -1 28 -1 4 -1 3 -1 2 -1 0
2  7 1 8 1 9 1 10 1 2 1 3 1 4 1 23 1 24 1 1 1 0
2  24 -1 23 -1 4 -1 3 -1 2 -1 10 -1 9 -1 8 -1 7 -1 0
2  1 -1 24 -1 23 -1 4 -1 3 -1 2 -1 10 -1 9 -1 8 -1 7 -1 0
2  33 -1 1 -1 24 -1 23 -1 4 -1 3 -1 2 -1 10 -1 9 -1 8 -1 7 -1 0
2  2 -1 0
2  7 1 8 1 9 1 10 1 0
2  28 -1 4 -1 3 -1 2 -1 0
2  23 -1 4 -1 3 -1 2 -1 10 -1 9 -1 8 -1 7 -1 0
2  7 1 8 1 9 1 10 1 2 1 3 1 4 1 23 1 24 1 1 1 33 1 0
2  7 1 8 1 9 1 10 1 2 1 3 1 4 1 33 -1 1 -1 24 -1 23 -1 4 -1 3 -1 2 -1 10 -1 9 -1 8 -1 7 -1 0
2  1 1 33 1 0
2  33 -1 1 -1 0
2  2 1 3 1 4 1 28 1 29 1 1 1 33 1 0
Curve2ds 264
1 257.9841237867119 619.00906562298189 -1 0 
1 0 -14 1 0 
1 161.1855311784123 -567.65438756838319 -1 0 
1 257.9841237867119 -689.09093437701813 0 1 
1 0 0 1 0 
1 -257.98412378671179 -601.00906562298144 1 0 
1 -239.98412378671179 671.09093437701847 0 -1 
1 0 0 0 1 
1 -257.98412378671179 671.09093437701847 1 0 
1 0 0 1 0 
1 -142.06587621328816 -689.09093437701813 1 0 
1 0 0 0 1 
1 142.06587621328822 689.09093437701847 0 -1 
1 0 0 1 0 
1 -257.98412378671179 671.09093437701847 1 0 
7 0 0  8 30 5  0 29.955844122715714  0.19634954084936207 29.955844122715714  0.39269908169967493 30.198178390597604  0.58904862254621548 30.682844867769745  0.78539816339889512 31.389920994464774  0.98174770424247981 32.279521185992053  1.17809724509641 33.295998916928511  1.3744467859455345 34.375921648044226  1.7180584824319183 36.265785978719329  1.8653206380687126 37.075727538303731  2.0125827937057608 37.858905788907123  2.1598449493428689 38.588550275502712  2.3071071049800622 39.239761326872895  2.454369260617252 39.791341859212395  2.6016314162540466 40.227230222056164  2.9697868053466006 41.002108545735211  3.1906800388010197 41.183677561741206  3.4115732722548273 41.047323746272014  3.6324665056999947 40.587959675234742  3.853359739174266 39.83544231185806  4.0742529726194334 38.85214357705263  4.2951462060797949 37.720409469330654  4.7369326729908598 35.337272318278188  4.9578259064437589 34.085867955946014  5.1787191399052972 32.863231245864881  5.3996123733231798 31.764154431351926  5.6205056068283739 30.875951861220528  5.8413988402635368 30.262548866703582  6.0622920737240431 29.955844122715714  6.2831853071795756 29.955844122715714 
 3.1415926535897931 9 4.7123889803847163 7 5.890486225480899 7 7.6576320931251391 7 9.4247779607693793 9
3 -103.98412378671179 671.09093437701847 0 -1 1 0 7.7781745930520216 5.5
1 0 0 1 0 
1 0 -1 1 0 
1 0 0 1 0 
1 -257.98412378671179 671.09093437701847 1 0 
7 0 0  8 30 5  0 29.955844122715714  0.19634954084936207 29.955844122715714  0.3926990816974012 30.198178390597604  0.58904862254667023 30.682844867769745  0.78539816339616664 31.389920994464774  0.98174770424611779 32.279521185992053  1.1780972450951595 33.295998916928511  1.3744467859455345 34.375921648044226  1.7180584824319183 36.265785978719329  1.8653206380690537 37.075727538303731  2.0125827937062155 37.858905788907123  2.1598449493433236 38.588550275502712  2.3071071049802612 39.239761326872895  2.4543692606170815 39.791341859212395  2.6016314162540466 40.227230222056164  2.9697868053466006 41.002108545735211  3.1906800388010197 41.183677561741206  3.4115732722548273 41.047323746272014  3.6324665057145467 40.587959675234742  3.85335973916699 39.83544231185806  4.0742529726212524 38.85214357705263  4.2951462060797949 37.720409469330654  4.7369326729908598 35.337272318278188  4.9578259064464874 34.085867955946014  5.1787191398980212 32.863231245864881  5.3996123733522836 31.764154431351926  5.6205056068174599 30.875951861220528  5.8413988402699033 30.262548866703582  6.0622920737240431 29.955844122715714  6.2831853071795756 29.955844122715714 
 3.1415926535897931 9 4.7123889803847163 7 5.890486225480899 7 7.6576320931251391 7 9.4247779607693793 9
3 -161.98412378671179 671.09093437701847 0 -1 1 0 7.7781745930520216 5.5
1 0 0 1 0 
1 0 -1 1 0 
1 0 0 1 0 
1 -257.98412378671179 671.09093437701847 1 0 
1 0 0 0 1 
1 -221.98412378671179 671.09093437701847 0 -1 
1 0 0 1 0 
1 -257.98412378671179 -601.00906562298144 1 0 
7 0 0  8 30 5  0 40.955844122715689  0.19634954084936207 40.955844122715689  0.39269908169796963 40.71350985475874  0.58904862254894397 40.228843377597514  0.78539816339525714 39.521767250815174  0.98174770424611779 38.632167059433414  1.1780972450956142 37.615689328420558  1.3744467859455138 36.535766597387294  1.7180584824318974 34.645902266712191  1.8653206380691763 33.835960707121203  2.0125827937052847 33.052782456544605  2.1598449493427552 32.323137969939125  2.3071071049803322 31.671926918550525  2.4543692606166534 31.120346386224135  2.6016314162540382 30.68445802337537  2.9697868053465921 29.90957969969633  3.1906800388023839 29.728010683626053  3.4115732722584653 29.864364499066141  3.6324665056999947 30.323728570016101  3.853359739176085 31.07624593359651  4.0742529726226167 32.059544668289163  4.2951462060798171 33.191278776100873  4.7369326729908821 35.574415927153339  4.9578259064446684 36.825820289450348  5.1787191399089352 38.048456999531481  5.3996123733704735 39.147533813986229  5.620505606806546 40.035736384132179  5.8413988402689938 40.649139378685504  6.0622920737240431 40.955844122715689  6.2831853071795756 40.955844122715689 
 0 9 1.5707963267949068 7 2.7488935718910765 7 4.5160394395353318 7 6.2831853071795862 9
3 -193.98412378671179 -601.00906562298144 0 1 -1 0 7.7781745930519719 5.5
1 0 0 1 0 
1 0 -1 1 0 
7 0 0  8 30 5  0 40.955844122715689  0.19634954084936207 40.955844122715689  0.39269908169796963 40.71350985475874  0.58904862254894397 40.228843377597514  0.78539816339525714 39.521767250815174  0.98174770424611779 38.632167059433414  1.1780972450956142 37.615689328420558  1.3744467859455138 36.535766597387294  1.7180584824318974 34.645902266712191  1.8653206380691763 33.835960707121203  2.0125827937052847 33.052782456544605  2.1598449493427552 32.323137969939125  2.3071071049803322 31.671926918550525  2.4543692606166534 31.120346386224135  2.6016314162540382 30.68445802337537  2.9697868053465921 29.90957969969633  3.1906800388023839 29.728010683626053  3.4115732722584653 29.864364499066141  3.6324665056999947 30.323728570016101  3.853359739176085 31.07624593359651  4.0742529726226167 32.059544668289163  4.2951462060798171 33.191278776100873  4.7369326729908821 35.574415927153339  4.9578259064446684 36.825820289450348  5.1787191399089352 38.048456999531481  5.3996123733704735 39.147533813986229  5.620505606806546 40.035736384132179  5.8413988402689938 40.649139378685504  6.0622920737240431 40.955844122715689  6.2831853071795756 40.955844122715689 
 0 9 1.5707963267949068 7 2.7488935718910765 7 4.5160394395353318 7 6.2831853071795862 9
3 -193.98412378671179 -601.00906562298144 0 1 -1 0 7.7781745930519719 5.5
1 0 0 1 0 
1 0 -1 1 0 
1 0 0 1 0 
1 -257.98412378671179 -601.00906562298144 1 0 
7 0 0  8 30 5  0 40.955844122715689  0.19634954084936207 40.955844122715689  0.39269908169865175 40.71350985475874  0.58904862254621548 40.228843377597514  0.78539816339798563 39.521767250815174  0.9817477042452083 38.632167059433414  1.1780972450962963 37.615689328420558  1.3744467859455138 36.535766597387294  1.7180584824318974 34.645902266712191  1.8653206380690057 33.835960707121203  2.0125827937057679 33.052782456544605  2.1598449493432099 32.323137969939125  2.3071071049803749 31.671926918550525  2.4543692606167387 31.120346386224135  2.6016314162540373 30.68445802337537  2.9697868053465908 29.90957969969633  3.1906800388042029 29.728010683626053  3.4115732722584653 29.864364499066141  3.6324665057072707 30.323728570016101  3.853359739176085 31.07624593359651  4.0742529726226167 32.059544668289163  4.2951462060798171 33.191278776100873  4.7369326729908821 35.574415927153339  4.9578259064446684 36.825820289450348  5.1787191399089352 38.048456999531481  5.3996123733704735 39.147533813986229  5.620505606806546 40.035736384132179  5.8413988402689938 40.649139378685504  6.0622920737240431 40.955844122715689  6.2831853071795756 40.955844122715689 
 0 9 1.5707963267949059 7 2.7488935718910752 7 4.51603943953533 7 6.2831853071795862 9
3 -135.98412378671179 -601.00906562298144 0 1 -1 0 7.7781745930519719 5.5
1 0 0 1 0 
1 0 -1 1 0 
7 0 0  8 30 5  0 40.955844122715689  0.19634954084936207 40.955844122715689  0.39269908169865175 40.71350985475874  0.58904862254621548 40.228843377597514  0.78539816339798563 39.521767250815174  0.9817477042452083 38.632167059433414  1.1780972450962963 37.615689328420558  1.3744467859455138 36.535766597387294  1.7180584824318974 34.645902266712191  1.8653206380690057 33.835960707121203  2.0125827937057679 33.052782456544605  2.1598449493432099 32.323137969939125  2.3071071049803749 31.671926918550525  2.4543692606167387 31.120346386224135  2.6016314162540373 30.68445802337537  2.9697868053465908 29.90957969969633  3.1906800388042029 29.728010683626053  3.4115732722584653 29.864364499066141  3.6324665057072707 30.323728570016101  3.853359739176085 31.07624593359651  4.0742529726226167 32.059544668289163  4.2951462060798171 33.191278776100873  4.7369326729908821 35.574415927153339  4.9578259064446684 36.825820289450348  5.1787191399089352 38.048456999531481  5.3996123733704735 39.147533813986229  5.620505606806546 40.035736384132179  5.8413988402689938 40.649139378685504  6.0622920737240431 40.955844122715689  6.2831853071795756 40.955844122715689 
 0 9 1.5707963267949059 7 2.7488935718910752 7 4.51603943953533 7 6.2831853071795862 9
3 -135.98412378671179 -601.00906562298144 0 1 -1 0 7.7781745930519719 5.5
1 0 0 1 0 
1 0 -1 1 0 
1 0 0 1 0 
1 -257.98412378671179 -601.00906562298144 1 0 
1 320.91587621328819 -438.03406562298153 0 -1 
1 0 0 0 1 
1 320.91587621328819 -438.03406562298153 1 0 
1 0 0 1 0 
1 -338.91587621328807 619.00906562298189 0 -1 
3 103.98412378671185 -675.09093437701813 0 1 -1 0 7.7781745930520216 5.5
1 0 0 1 0 
1 0 -18 1 0 
3 103.98412378671185 -675.09093437701813 0 1 -1 0 7.7781745930520216 5.5
1 0 0 1 0 
1 0 -18 1 0 
3 103.98412378671185 -689.09093437701813 0 1 -1 0 7.7781745930520225 5.5
1 0 0 1 0 
1 0 -18 1 0 
3 161.98412378671185 -675.09093437701813 0 1 -1 0 7.7781745930520216 5.5
1 0 0 1 0 
1 0 -18 1 0 
3 161.98412378671185 -675.09093437701813 0 1 -1 0 7.7781745930520216 5.5
1 0 0 1 0 
1 0 -18 1 0 
3 161.98412378671185 -689.09093437701813 0 1 -1 0 7.7781745930520225 5.5
1 0 0 1 0 
1 0 -18 1 0 
3 135.98412378671185 605.00906562298189 0 -1 1 0 7.7781745930519719 5.5
1 0 0 1 0 
1 0 -18 1 0 
3 135.98412378671185 619.00906562298189 0 -1 1 0 7.7781745930519719 5.5
1 0 0 1 0 
1 0 -18 1 0 
3 135.98412378671185 619.00906562298189 0 -1 1 0 7.7781745930519719 5.5
1 0 0 1 0 
1 0 -18 1 0 
3 193.9841237867119 605.00906562298189 0 -1 1 0 7.7781745930519719 5.5
1 0 0 1 0 
1 0 -18 1 0 
3 193.9841237867119 619.00906562298189 0 -1 1 0 7.7781745930519719 5.5
1 0 0 1 0 
1 0 -18 1 0 
3 193.9841237867119 619.00906562298189 0 -1 1 0 7.7781745930519719 5.5
1 0 0 1 0 
1 0 -18 1 0 
1 18 -14 -1 0 
1 -435.71446882158767 -549.65438756838319 0 -1 
1 0 4 1 0 
1 161.1855311784123 -549.65438756838319 -1 0 
1 4 0 0 1 
1 143.1855311784123 722.44561243161672 0 -1 
1 0 4 1 0 
1 161.1855311784123 722.44561243161672 -1 0 
1 0 -14 1 0 
1 161.1855311784123 740.44561243161672 0 -1 
1 400.05000000000001 -14 -1 0 
1 161.1855311784123 740.44561243161672 -1 0 
1 4 0 0 1 
1 -238.86446882158771 740.44561243161672 0 -1 
1 0 4 1 0 
1 161.1855311784123 722.44561243161672 -1 0 
7 0 0  7 14 3  4.1722450027088058 32.627416997967941  4.323026453028147 31.916182319279407  4.4738079033475273 31.129925800437377  4.6245893536666003 30.295058536452416  4.7753708039859006 29.442169313319027  4.926152254305542 28.603578512167587  5.0769337046248584 27.810085803993992  5.3784966052635408 26.366888350515829  5.5292780555828713 25.717183864159779  5.6800595059021575 25.166167235594912  5.8308409562214578 24.736638041824335  5.9816224065409287 24.44487336412385  6.132403856860245 24.298989873223263  6.2831853071795862 24.298989873223263 
 1.0306523491190176 8 2.0861225013544056 6 3.1415926535897931 8
3 7.1855311784123046 726.44561243161684 0 -1 -1 -0 7.7781745930520216 5.5
1 0 0 1 0 
1 0 -1 1 0 
7 0 0  1 2 2  2.6904605173475646 -3.9999999999997726  3.1415926535897905 -3.9999999999997726 
 2.6904605173475664 2 3.1415926535897931 2
7 0 0  7 14 3  0 24.298989873223263  0.15078145031934106 24.298989873223263  0.30156290063871438 24.444873364130217  0.45234435095795789 24.736638041813421  0.60312580127737192 25.166167235602188  0.75390725159667227 25.71718386415705  0.90468870191604556 26.366888350515829  1.2062516025547276 27.810085803993992  1.3570330528743852 28.603578512167587  1.5078145031930035 29.442169313315389  1.6585959535132133 30.295058536448778  1.8093774038320021 31.129925800434648  1.9601588541514301 31.916182319279351  2.1109403044707711 32.627416997967885 
 3.1415926535897931 8 4.1970628058251807 6 5.2525329580605682 8
3 7.1855311784123046 726.44561243161684 0 -1 -1 -0 7.7781745930520216 5.5
1 0 0 1 0 
1 0 -1 1 0 
7 0 0  1 2 2  3.1415926535897931 -3.9999999999997726  3.5927247898320225 -3.9999999999997726 
 3.1415926535897931 2 3.5927247898320198 2
1 0 4 1 0 
1 161.1855311784123 722.44561243161672 -1 0 
7 0 0  7 14 3  4.1722450027088076 32.627416997967941  4.3230264530281488 31.916182319279407  4.4738079033475273 31.129925800437377  4.6245893536663729 30.295058536452416  4.7753708039863554 29.442169313319027  4.926152254305542 28.603578512167587  5.0769337046248584 27.810085803993992  5.3784966052635408 26.366888350515829  5.5292780555828713 25.717183864159779  5.6800595059023848 25.166167235594912  5.8308409562214578 24.736638041824335  5.9816224065408719 24.44487336412385  6.132403856860245 24.298989873223263  6.2831853071795862 24.298989873223263 
 1.0306523491190176 8 2.0861225013544056 6 3.1415926535897931 8
3 65.185531178412305 726.44561243161684 0 -1 -1 -0 7.7781745930520216 5.5
1 0 0 1 0 
1 0 -1 1 0 
7 0 0  1 2 2  2.6904605173475646 -3.9999999999997726  3.1415926535897905 -3.9999999999997726 
 2.6904605173475664 2 3.1415926535897931 2
7 0 0  7 14 3  0 24.298989873223263  0.15078145031934106 24.298989873223263  0.30156290063865754 24.444873364130217  0.45234435095829895 24.736638041813421  0.60312580127725823 25.166167235602188  0.75390725159675753 25.71718386415705  0.90468870191604434 26.366888350515829  1.2062516025547263 27.810085803993992  1.3570330528738737 28.603578512167587  1.5078145031948225 29.442169313315389  1.6585959535113943 30.295058536448778  1.8093774038325705 31.129925800434648  1.9601588541514288 31.916182319279351  2.1109403044707697 32.627416997967885 
 3.1415926535897931 8 4.1970628058251807 6 5.2525329580605682 8
3 65.185531178412305 726.44561243161684 0 -1 -1 -0 7.7781745930520216 5.5
1 0 0 1 0 
1 0 -1 1 0 
7 0 0  1 2 2  3.1415926535897931 -3.9999999999997726  3.5927247898320225 -3.9999999999997726 
 3.1415926535897931 2 3.5927247898320198 2
1 0 4 1 0 
1 161.1855311784123 722.44561243161672 -1 0 
1 4 0 0 1 
1 125.1855311784123 722.44561243161672 0 -1 
1 0 4 1 0 
1 161.1855311784123 -549.65438756838319 -1 0 
7 0 0  8 23 4  1.030652349118671 32.627416997969704  1.1625861181481147 32.005086654117264  1.2945198871778441 31.326489930147652  1.4264536562070944 30.608133760450983  1.5583874252369014 29.868613924883903  1.6903211942664313 29.127697762881098  1.8222549632951797 28.405205335125785  1.9541887323247888 27.719885963152507  2.2840231548983985 26.141388748410375  2.481923808438296 25.315611383295618  2.6798244619931211 24.667678423356847  2.8777251155242993 24.243970640352927  3.0756257690827624 24.073669613018865  3.2735264226162144 24.163708895292075  3.4714270761634025 24.499144567424061  3.8672283832517338 25.595386817735765  4.0651290367909496 26.356193671534129  4.2630296903571434 27.296971475472674  4.4609303438774077 28.36725211321027  4.6588309974504227 29.502845219962182  4.8567316509670491 30.633826276109176  5.0546323045167494 31.693921482191037  5.2525329580609155 32.627416997969704 
 1.0306523491186923 9 2.086122501354251 7 3.6693277297075721 7 5.2525329580608942 9
3 97.185531178412305 -553.65438756838319 0 1 1 -0 7.7781745930519719 5.5
1 0 0 1 0 
1 0 -1 1 0 
7 0 0  1 2 2  2.6904605173475424 -3.9999999999997726  3.5927247898320216 -3.9999999999997726 
 2.6904605173475424 2 3.5927247898320065 2
1 0 4 1 0 
1 161.1855311784123 -549.65438756838319 -1 0 
7 0 0  8 23 4  1.030652349118671 32.627416997969704  1.1625861181481147 32.005086654117264  1.2945198871774604 31.326489930147652  1.4264536562073289 30.608133760450983  1.5583874252366741 29.868613924883903  1.6903211942658274 29.127697762881098  1.8222549632953928 28.405205335125785  1.9541887323247886 27.719885963152507  2.284023154898398 26.141388748410375  2.4819238084423887 25.315611383295618  2.6798244619858451 24.667678423356847  2.8777251155188424 24.243970640352927  3.0756257690700295 24.073669613018865  3.2735264226180334 24.163708895292075  3.4714270761634025 24.499144567424061  3.8672283832517338 25.595386817735765  4.0651290367909496 26.356193671534129  4.2630296903571434 27.296971475472674  4.4609303438774077 28.36725211321027  4.6588309974504227 29.502845219962182  4.8567316509670491 30.633826276109176  5.0546323045167494 31.693921482191037  5.2525329580609155 32.627416997969704 
 1.0306523491186923 9 2.086122501354251 7 3.6693277297075721 7 5.2525329580608942 9
3 39.185531178412305 -553.65438756838319 0 1 1 -0 7.7781745930519719 5.5
1 0 0 1 0 
1 0 -1 1 0 
7 0 0  1 2 2  2.6904605173475349 -3.9999999999997726  3.5927247898320345 -3.9999999999997726 
 2.6904605173475349 2 3.5927247898320358 2
1 0 4 1 0 
1 161.1855311784123 -549.65438756838319 -1 0 
1 4 0 0 1 
1 -417.71446882158767 -386.67938756838328 0 -1 
1 0 4 1 0 
1 -417.71446882158767 -386.67938756838328 -1 0 
1 1290.0999999999999 -14 1 0 
1 161.1855311784123 -549.65438756838319 0 -1 
1 1290.0999999999999 -18 0 1 
1 0 0 0 1 
1 18 0 0 1 
1 0 1272.0999999999999 1 0 
1 18 0 0 1 
1 0 0 1 0 
1 18 -18 0 1 
1 0 0 0 1 
1 0 18 1 0 
1 400.05000000000001 0 0 1 
7 0 0  5 6 2  4.7123889803846897 35.455844122715689  4.604360184849515 34.861685747272233  4.4963313893143635 34.267526389422414  4.3883025937791302 33.687817852951582  4.2802737982440018 33.136987807370041  4.1722450027088271 32.627416997971125 
 1.5707963267948966 6 2.1109403044707684 6
3 154 0 0 -1 1 0 7.7781745930520225 5.5
1 6.2831853071795862 -0 0 1 
1 0 -0 0 1 
3 246.05000000000001 0 -0 -1 1 -0 7.7781745930519719 5.5
7 0 0  8 9 2  4.4788552528189136 8.7272077938646202  4.7043965096139981 9.9340115970295528  4.9299377664094877 11.214811221796481  5.1554790232042009 12.476052954465558  5.381020279995731 13.616201535405708  5.606561536792718 14.540763941113255  5.8321027935899323 15.180251997151572  6.0576440503845017 15.5  6.2831853071795862 15.5 
 4.4788552528189136 9 6.2831853071795862 9
3 -103.98412378671179 689.09093437701847 0 -1 1 0 7.7781745930520225 5.5
7 0 0  8 30 5  0 4.5  0.19634954084936207 4.5  0.39269908169819701 4.742334267921251  0.58904862254894397 5.2270007451297715  0.78539816339161916 5.9340768718138861  0.98174770425021052 6.8236770633375272  1.1780972450959553 7.8401547942430625  1.3744467859455343 8.920077525328507  1.7180584824319181 10.809941856003615  1.8653206380687977 11.619883415588889  2.0125827937063718 12.403061666176654  2.1598449493434373 13.132706152780884  2.3071071049801617 13.783917204162947  2.4543692606171668 14.335497736493124  2.6016314162540466 14.771386099340463  2.9697868053466006 15.546264423019501  3.1906800388010197 15.727833439043025  3.4115732722548273 15.591479623566556  3.6324665057145467 15.132115552638425  3.85335973916699 14.379598189108947  4.0742529726212524 13.39629945438719  4.2951462060797949 12.26456534661494  4.7369326729908598 9.8814281955624743  4.9578259064473968 8.6300238332496519  5.1787191398907453 7.4073871230866644  5.3996123733522836 6.308310308635555  5.62050560679927 5.4201077384677774  5.8413988402708128 4.8067047440017632  6.0622920737240431 4.5000000000000009  6.2831853071795756 4.5 
 3.1415926535897931 9 4.7123889803846879 7 5.8904862254808563 7 7.6576320931251178 7 9.4247779607693793 9
1 0 0 1 0 
1 0 -1 1 0 
8 5.8320531709373586 6.7343174434218138
7 0 0  8 30 5  0 4.5  0.19634954084936207 4.5  0.39269908169819701 4.742334267921251  0.58904862254894397 5.2270007451297715  0.78539816339161916 5.9340768718138861  0.98174770425021052 6.8236770633375272  1.1780972450959553 7.8401547942430625  1.3744467859455343 8.920077525328507  1.7180584824319181 10.809941856003615  1.8653206380687977 11.619883415588889  2.0125827937063718 12.403061666176654  2.1598449493434373 13.132706152780884  2.3071071049801617 13.783917204162947  2.4543692606171668 14.335497736493124  2.6016314162540466 14.771386099340463  2.9697868053466006 15.546264423019501  3.1906800388010197 15.727833439043025  3.4115732722548273 15.591479623566556  3.6324665057145467 15.132115552638425  3.85335973916699 14.379598189108947  4.0742529726212524 13.39629945438719  4.2951462060797949 12.26456534661494  4.7369326729908598 9.8814281955624743  4.9578259064473968 8.6300238332496519  5.1787191398907453 7.4073871230866644  5.3996123733522836 6.308310308635555  5.62050560679927 5.4201077384677774  5.8413988402708128 4.8067047440017632  6.0622920737240431 4.5000000000000009  6.2831853071795756 4.5 
 3.1415926535897931 9 4.7123889803846879 7 5.8904862254808563 7 7.6576320931251178 7 9.4247779607693793 9
3 246.05000000000001 0 -0 -1 1 -0 7.7781745930519719 5.5
7 0 0  8 9 2  0 15.5  0.22554125679508411 15.5  0.45108251358954021 15.180251997160667  0.67662377038459454 14.540763941091427  0.90216502717612457 13.616201535442087  1.1277062839758401 12.47605295444373  1.3532475407698712 11.2148112217983  1.5787887975655888 9.9340115970295528  1.8043300543606728 8.7272077938646202 
 0 9 1.8043300543606728 9
7 0 0  5 6 2  2.1109403044707595 32.627416997971125  2.0029115089355853 33.136987807370041  1.8948827134004667 33.687817852951639  1.7868539178652227 34.267526389422358  1.6788251223300708 34.861685747272233  1.5707963267948966 35.455844122715689 
 4.1722450027088183 6 4.7123889803846897 6
3 154 0 0 -1 1 0 7.7781745930520225 5.5
7 0 0  5 6 2  4.7123889803846897 35.455844122715689  4.604360184849515 34.861685747272233  4.4963313893143635 34.267526389422414  4.3883025937791302 33.687817852951582  4.2802737982440018 33.136987807370041  4.1722450027088271 32.627416997971125 
 1.5707963267948966 6 2.1109403044707684 6
3 96 0 0 -1 1 0 7.7781745930520225 5.5
1 6.2831853071795862 -0 0 1 
1 0 -0 0 1 
3 304.05000000000001 0 -0 -1 1 -0 7.7781745930519719 5.5
7 0 0  8 9 2  4.4788552528189118 8.7272077938646095  4.7043965096139964 9.9340115970295439  4.9299377664096014 11.214811221794662  5.1554790232037462 12.47605295444373  5.3810202800043712 13.616201535391156  5.6065615367940822 14.540763941120531  5.8321027935899323 15.180251997142477  6.0576440503845017 15.5  6.2831853071795862 15.5 
 4.4788552528189118 9 6.2831853071795862 9
3 -161.98412378671179 689.09093437701847 0 -1 1 0 7.7781745930520225 5.5
7 0 0  8 30 5  0 4.5  0.19634954084936207 4.5  0.3926990816974012 4.742334267921251  0.58904862255030821 5.2270007451297715  0.78539816339161916 5.9340768718138861  0.98174770424930102 6.8236770633375272  1.1780972450948184 7.8401547942430625  1.3744467859455343 8.920077525328507  1.7180584824319181 10.809941856003615  1.8653206380690535 11.619883415588889  2.0125827937062155 12.403061666176654  2.1598449493433236 13.132706152780884  2.3071071049802612 13.783917204162947  2.4543692606170815 14.335497736493124  2.6016314162540466 14.771386099340463  2.9697868053466006 15.546264423019501  3.1906800388010197 15.727833439043025  3.4115732722566463 15.591479623566556  3.6324665057254606 15.132115552638425  3.8533597391615331 14.379598189108947  4.0742529726226167 13.39629945438719  4.2951462060797949 12.26456534661494  4.7369326729908598 9.8814281955624743  4.9578259064464874 8.6300238332496519  5.1787191398980212 7.4073871230866644  5.3996123733377317 6.308310308635555  5.6205056068174599 5.4201077384677774  5.8413988402662653 4.8067047440017632  6.0622920737240431 4.5000000000000009  6.2831853071795756 4.5 
 3.1415926535897931 9 4.7123889803846879 7 5.8904862254808563 7 7.6576320931251178 7 9.4247779607693793 9
1 0 0 1 0 
1 0 -1 1 0 
8 5.8320531709373586 6.7343174434218147
7 0 0  8 30 5  0 4.5  0.19634954084936207 4.5  0.3926990816974012 4.742334267921251  0.58904862255030821 5.2270007451297715  0.78539816339161916 5.9340768718138861  0.98174770424930102 6.8236770633375272  1.1780972450948184 7.8401547942430625  1.3744467859455343 8.920077525328507  1.7180584824319181 10.809941856003615  1.8653206380690535 11.619883415588889  2.0125827937062155 12.403061666176654  2.1598449493433236 13.132706152780884  2.3071071049802612 13.783917204162947  2.4543692606170815 14.335497736493124  2.6016314162540466 14.771386099340463  2.9697868053466006 15.546264423019501  3.1906800388010197 15.727833439043025  3.4115732722566463 15.591479623566556  3.6324665057254606 15.132115552638425  3.8533597391615331 14.379598189108947  4.0742529726226167 13.39629945438719  4.2951462060797949 12.26456534661494  4.7369326729908598 9.8814281955624743  4.9578259064464874 8.6300238332496519  5.1787191398980212 7.4073871230866644  5.3996123733377317 6.308310308635555  5.6205056068174599 5.4201077384677774  5.8413988402662653 4.8067047440017632  6.0622920737240431 4.5000000000000009  6.2831853071795756 4.5 
 3.1415926535897931 9 4.7123889803846879 7 5.8904862254808563 7 7.6576320931251178 7 9.4247779607693793 9
3 304.05000000000001 0 -0 -1 1 -0 7.7781745930519719 5.5
7 0 0  8 9 2  0 15.5  0.22554125679508424 15.5  0.45108251358988127 15.180251997144296  0.67662377038686827 14.540763941156911  0.90216502717703406 13.616201535369328  1.1277062839762948 12.47605295448011  1.3532475407698712 11.214811221781929  1.5787887975655894 9.9340115970295493  1.8043300543606737 8.7272077938646149 
 0 9 1.804330054360674 9
7 0 0  5 6 2  2.1109403044707595 32.627416997971125  2.0029115089355853 33.136987807370041  1.8948827134004631 33.687817852951639  1.7868539178652227 34.267526389422358  1.6788251223300708 34.861685747272233  1.5707963267948966 35.455844122715689 
 4.1722450027088183 6 4.7123889803846897 6
3 96 0 0 -1 1 0 7.7781745930520225 5.5
1 36 0 0 1 
1 0 0 1 0 
1 0 1272.0999999999999 1 0 
1 36 0 0 1 
7 0 0  5 6 2  1.030652349118667 32.627416997969704  1.1386811446539107 33.136987807368847  1.2467099401891826 33.687817852951014  1.3547387357243981 34.267526389421505  1.4627675312596427 34.861685747272077  1.5707963267948863 35.455844122715916 
 4.172245002708471 6 4.7123889803846897 6
3 64 -1.1368999999999999e-13 0 -1 1 0 7.7781745930520225 5.5
8 5.832053170937388 6.2831853071795862
7 0 0  8 30 5  0 15.5  0.19634954084936207 15.5  0.39269908169762857 15.257665732073292  0.58904862254848922 14.772999254826573  0.78539816339616664 14.065923128160648  0.9817477042452083 13.176322936604265  1.1780972450957279 12.159845205751481  1.3744467859455138 11.079922474671605  1.7180584824318974 9.1900581439964952  1.8653206380684941 8.3801165844099454  2.0125827937066489 7.5969383338267278  2.1598449493428689 6.8672938472222995  2.3071071049791527 6.216082795837309  2.4543692606174208 5.6645022635074227  2.6016314162540382 5.2286139006596812  2.9697868053465921 4.453735576980641  3.1906800388010197 4.2721665609587944  3.4115732722548273 4.4085203763715981  3.6324665056963568 4.8678844473615754  3.85335973916699 5.6204018108437594  4.0742529726226167 6.6037005456237239  4.2951462060798171 7.7354346533851848  4.7369326729908821 10.11857180443765  4.9578259064437589 11.369976166730339  5.1787191398980212 12.592612876942439  5.3996123733522836 13.691689691317151  5.620505606810184 14.579892261543137  5.8413988402644463 15.193295255981866  6.0622920737240431 15.5  6.2831853071795756 15.5 
 0 9 1.5707963267948961 7 2.7488935718910681 7 4.5160394395353265 7 6.2831853071795862 9
3 -193.98412378671179 -619.00906562298144 0 1 -1 0 7.7781745930519719 5.5
7 0 0  8 30 5  0 15.5  0.19634954084936207 15.5  0.39269908169762857 15.257665732073292  0.58904862254848922 14.772999254826573  0.78539816339616664 14.065923128160648  0.9817477042452083 13.176322936604265  1.1780972450957279 12.159845205751481  1.3744467859455138 11.079922474671605  1.7180584824318974 9.1900581439964952  1.8653206380684941 8.3801165844099454  2.0125827937066489 7.5969383338267278  2.1598449493428689 6.8672938472222995  2.3071071049791527 6.216082795837309  2.4543692606174208 5.6645022635074227  2.6016314162540382 5.2286139006596812  2.9697868053465921 4.453735576980641  3.1906800388010197 4.2721665609587944  3.4115732722548273 4.4085203763715981  3.6324665056963568 4.8678844473615754  3.85335973916699 5.6204018108437594  4.0742529726226167 6.6037005456237239  4.2951462060798171 7.7354346533851848  4.7369326729908821 10.11857180443765  4.9578259064437589 11.369976166730339  5.1787191398980212 12.592612876942439  5.3996123733522836 13.691689691317151  5.620505606810184 14.579892261543137  5.8413988402644463 15.193295255981866  6.0622920737240431 15.5  6.2831853071795756 15.5 
 0 9 1.5707963267948961 7 2.7488935718910681 7 4.5160394395353265 7 6.2831853071795862 9
1 0 0 1 0 
1 0 -1 1 0 
3 64 -1.1368999999999999e-13 0 -1 1 0 7.7781745930519719 5.5
7 0 0  8 16 3  1.3372625992285925 8.7272077938620214  1.5628038560237418 9.9340115970271547  1.7883451128188881 11.214811221796481  2.0138863696101907 12.476052954421903  2.2394276264058135 13.616201535507571  2.4649688832014363 14.540763941113255  2.690510140000697 15.180251997151572  2.9160513967946438 15.500000000000114  3.3671339103849425 15.500000000000114  3.5926751671763668 15.180251997151572  3.8182164239788108 14.540763941171463  4.0437576807416917 13.616201535442087  4.2692989375755133 12.476052954523766  4.4948401943565841 11.214811221796481  4.720381451155844 9.9340115970271547  4.9459227079509933 8.7272077938620214 
 4.4788552528183905 9 6.2831853071795862 7 8.0875153615407811 9
3 -193.98412378671179 -619.00906562298144 0 1 -1 0 7.7781745930519719 5.5
7 0 0  8 30 5  0 15.5  0.19634954084936207 15.5  0.39269908169762857 15.257665732073292  0.58904862254848922 14.772999254826573  0.78539816339616664 14.065923128160648  0.9817477042452083 13.176322936604265  1.1780972450957279 12.159845205751481  1.3744467859455138 11.079922474671605  1.7180584824318974 9.1900581439964952  1.8653206380684941 8.3801165844099454  2.0125827937066489 7.5969383338267278  2.1598449493428689 6.8672938472222995  2.3071071049791527 6.216082795837309  2.4543692606174208 5.6645022635074227  2.6016314162540382 5.2286139006596812  2.9697868053465921 4.453735576980641  3.1906800388010197 4.2721665609587944  3.4115732722548273 4.4085203763715981  3.6324665056963568 4.8678844473615754  3.85335973916699 5.6204018108437594  4.0742529726226167 6.6037005456237239  4.2951462060798171 7.7354346533851848  4.7369326729908821 10.11857180443765  4.9578259064437589 11.369976166730339  5.1787191398980212 12.592612876942439  5.3996123733522836 13.691689691317151  5.620505606810184 14.579892261543137  5.8413988402644463 15.193295255981866  6.0622920737240431 15.5  6.2831853071795756 15.5 
 0 9 1.5707963267948961 7 2.7488935718910681 7 4.5160394395353265 7 6.2831853071795862 9
1 0 0 1 0 
1 0 -1 1 0 
8 0 0.45113213624221354
7 0 0  8 30 5  0 15.5  0.19634954084936207 15.5  0.39269908169762857 15.257665732073292  0.58904862254848922 14.772999254826573  0.78539816339616664 14.065923128160648  0.9817477042452083 13.176322936604265  1.1780972450957279 12.159845205751481  1.3744467859455138 11.079922474671605  1.7180584824318974 9.1900581439964952  1.8653206380684941 8.3801165844099454  2.0125827937066489 7.5969383338267278  2.1598449493428689 6.8672938472222995  2.3071071049791527 6.216082795837309  2.4543692606174208 5.6645022635074227  2.6016314162540382 5.2286139006596812  2.9697868053465921 4.453735576980641  3.1906800388010197 4.2721665609587944  3.4115732722548273 4.4085203763715981  3.6324665056963568 4.8678844473615754  3.85335973916699 5.6204018108437594  4.0742529726226167 6.6037005456237239  4.2951462060798171 7.7354346533851848  4.7369326729908821 10.11857180443765  4.9578259064437589 11.369976166730339  5.1787191398980212 12.592612876942439  5.3996123733522836 13.691689691317151  5.620505606810184 14.579892261543137  5.8413988402644463 15.193295255981866  6.0622920737240431 15.5  6.2831853071795756 15.5 
 0 9 1.5707963267948961 7 2.7488935718910681 7 4.5160394395353265 7 6.2831853071795862 9
1 6.2831853071795862 -0 0 1 
1 0 -0 0 1 
7 0 0  5 6 2  4.7123889803847003 35.455844122715916  4.8204177759199442 34.861685747272077  4.9284465714551828 34.267526389421505  5.0364753669904161 33.687817852951014  5.1445041625256751 33.136987807368847  5.252532958060919 32.627416997969704 
 1.5707963267948966 6 2.1109403044711152 6
3 64 -1.1368999999999999e-13 0 -1 1 0 7.7781745930520225 5.5
7 0 0  5 6 2  1.030652349118667 32.627416997969704  1.1386811446539107 33.136987807368847  1.246709940189179 33.687817852951014  1.3547387357244016 34.267526389421505  1.4627675312596427 34.861685747272077  1.5707963267948863 35.455844122715916 
 4.172245002708471 6 4.7123889803846897 6
3 122 -1.1368999999999999e-13 0 -1 1 0 7.7781745930520225 5.5
8 5.8320531709373808 6.2831853071795862
7 0 0  8 30 5  0 15.5  0.19634954084936207 15.5  0.39269908169887913 15.257665732073292  0.58904862254803447 14.772999254826573  0.78539816339707613 14.065923128160648  0.98174770424566304 13.176322936604265  1.1780972450965237 12.159845205751481  1.3744467859455138 11.079922474671605  1.7180584824318974 9.1900581439964952  1.8653206380690484 8.3801165844099454  2.0125827937060734 7.5969383338267278  2.1598449493433236 6.8672938472222995  2.3071071049802327 6.216082795837309  2.4543692606167387 5.6645022635074227  2.6016314162540373 5.2286139006596812  2.9697868053465908 4.453735576980641  3.1906800388010197 4.2721665609587944  3.4115732722548273 4.4085203763715981  3.6324665056963568 4.8678844473615754  3.85335973916699 5.6204018108437594  4.0742529726226167 6.6037005456237239  4.2951462060798171 7.7354346533851848  4.7369326729908821 10.11857180443765  4.9578259064437589 11.369976166730339  5.1787191398980212 12.592612876942439  5.3996123733522836 13.691689691317151  5.620505606810184 14.579892261543137  5.8413988402644463 15.193295255981866  6.0622920737240431 15.5  6.2831853071795756 15.5 
 0 9 1.5707963267948954 7 2.7488935718910672 7 4.5160394395353265 7 6.2831853071795862 9
3 -135.98412378671179 -619.00906562298144 0 1 -1 0 7.7781745930519719 5.5
7 0 0  8 30 5  0 15.5  0.19634954084936207 15.5  0.39269908169887913 15.257665732073292  0.58904862254803447 14.772999254826573  0.78539816339707613 14.065923128160648  0.98174770424566304 13.176322936604265  1.1780972450965237 12.159845205751481  1.3744467859455138 11.079922474671605  1.7180584824318974 9.1900581439964952  1.8653206380690484 8.3801165844099454  2.0125827937060734 7.5969383338267278  2.1598449493433236 6.8672938472222995  2.3071071049802327 6.216082795837309  2.4543692606167387 5.6645022635074227  2.6016314162540373 5.2286139006596812  2.9697868053465908 4.453735576980641  3.1906800388010197 4.2721665609587944  3.4115732722548273 4.4085203763715981  3.6324665056963568 4.8678844473615754  3.85335973916699 5.6204018108437594  4.0742529726226167 6.6037005456237239  4.2951462060798171 7.7354346533851848  4.7369326729908821 10.11857180443765  4.9578259064437589 11.369976166730339  5.1787191398980212 12.592612876942439  5.3996123733522836 13.691689691317151  5.620505606810184 14.579892261543137  5.8413988402644463 15.193295255981866  6.0622920737240431 15.5  6.2831853071795756 15.5 
 0 9 1.5707963267948954 7 2.7488935718910672 7 4.5160394395353265 7 6.2831853071795862 9
1 0 0 1 0 
1 0 -1 1 0 
3 122 -1.1368999999999999e-13 0 -1 1 0 7.7781745930519719 5.5
7 0 0  8 16 3  1.3372625992285925 8.7272077938620214  1.5628038560237418 9.9340115970271547  1.7883451128184333 11.214811221796481  2.0138863696056433 12.476052954421903  2.2394276264149084 13.616201535507571  2.4649688831959793 14.540763941113255  2.6905101399993328 15.180251997151572  2.9160513967946438 15.500000000000114  3.3671339103849425 15.500000000000114  3.5926751671763668 15.180251997151572  3.8182164239788108 14.540763941171463  4.0437576807416917 13.616201535442087  4.2692989375755133 12.476052954523766  4.4948401943565841 11.214811221796481  4.720381451155844 9.9340115970271547  4.9459227079509933 8.7272077938620214 
 4.4788552528183905 9 6.2831853071795862 7 8.0875153615407811 9
3 -135.98412378671179 -619.00906562298144 0 1 -1 0 7.7781745930519719 5.5
7 0 0  8 30 5  0 15.5  0.19634954084936207 15.5  0.39269908169887913 15.257665732073292  0.58904862254803447 14.772999254826573  0.78539816339707613 14.065923128160648  0.98174770424566304 13.176322936604265  1.1780972450965237 12.159845205751481  1.3744467859455138 11.079922474671605  1.7180584824318974 9.1900581439964952  1.8653206380690484 8.3801165844099454  2.0125827937060734 7.5969383338267278  2.1598449493433236 6.8672938472222995  2.3071071049802327 6.216082795837309  2.4543692606167387 5.6645022635074227  2.6016314162540373 5.2286139006596812  2.9697868053465908 4.453735576980641  3.1906800388010197 4.2721665609587944  3.4115732722548273 4.4085203763715981  3.6324665056963568 4.8678844473615754  3.85335973916699 5.6204018108437594  4.0742529726226167 6.6037005456237239  4.2951462060798171 7.7354346533851848  4.7369326729908821 10.11857180443765  4.9578259064437589 11.369976166730339  5.1787191398980212 12.592612876942439  5.3996123733522836 13.691689691317151  5.620505606810184 14.579892261543137  5.8413988402644463 15.193295255981866  6.0622920737240431 15.5  6.2831853071795756 15.5 
 0 9 1.5707963267948954 7 2.7488935718910672 7 4.5160394395353265 7 6.2831853071795862 9
1 0 0 1 0 
1 0 -1 1 0 
8 0 0.45113213624220772
7 0 0  8 30 5  0 15.5  0.19634954084936207 15.5  0.39269908169887913 15.257665732073292  0.58904862254803447 14.772999254826573  0.78539816339707613 14.065923128160648  0.98174770424566304 13.176322936604265  1.1780972450965237 12.159845205751481  1.3744467859455138 11.079922474671605  1.7180584824318974 9.1900581439964952  1.8653206380690484 8.3801165844099454  2.0125827937060734 7.5969383338267278  2.1598449493433236 6.8672938472222995  2.3071071049802327 6.216082795837309  2.4543692606167387 5.6645022635074227  2.6016314162540373 5.2286139006596812  2.9697868053465908 4.453735576980641  3.1906800388010197 4.2721665609587944  3.4115732722548273 4.4085203763715981  3.6324665056963568 4.8678844473615754  3.85335973916699 5.6204018108437594  4.0742529726226167 6.6037005456237239  4.2951462060798171 7.7354346533851848  4.7369326729908821 10.11857180443765  4.9578259064437589 11.369976166730339  5.1787191398980212 12.592612876942439  5.3996123733522836 13.691689691317151  5.620505606810184 14.579892261543137  5.8413988402644463 15.193295255981866  6.0622920737240431 15.5  6.2831853071795756 15.5 
 0 9 1.5707963267948954 7 2.7488935718910672 7 4.5160394395353265 7 6.2831853071795862 9
1 6.2831853071795862 -0 0 1 
1 0 -0 0 1 
7 0 0  5 6 2  4.7123889803847003 35.455844122715916  4.8204177759199442 34.861685747272077  4.9284465714551828 34.267526389421505  5.0364753669904161 33.687817852951014  5.1445041625256751 33.136987807368847  5.252532958060919 32.627416997969704 
 1.5707963267948966 6 2.1109403044711152 6
3 122 -1.1368999999999999e-13 0 -1 1 0 7.7781745930520225 5.5
1 578.89999999999998 0 0 1 
1 0 162.97499999999991 1 0 
1 0 0 0 1 
1 0 0 1 0 
1 3.5927247898320132 0 0 -1 
1 5.8320531709373586 0 0 -1 
1 3.1415926535897931 0 0 -1 
1 3.1415926535897931 0 0 -1 
1 2.6904605173475731 0 0 -1 
1 6.7343174434218138 0 0 -1 
1 3.5927247898320136 0 0 -1 
1 5.8320531709373586 0 0 -1 
1 3.1415926535897931 0 0 -1 
1 3.1415926535897931 0 0 -1 
1 2.6904605173475731 0 0 -1 
1 6.7343174434218147 0 0 -1 
1 3.5927247898319989 0 0 -1 
1 5.8320531709373808 0 0 -1 
1 2.6904605173475424 0 0 -1 
1 0.45113213624220772 0 0 -1 
1 0 0 0 -1 
1 6.2831853071795862 0 0 -1 
1 3.592724789831991 0 0 -1 
1 5.832053170937388 0 0 -1 
1 2.6904605173475797 0 0 -1 
1 0.45113213624221354 0 0 -1 
1 0 0 0 -1 
1 6.2831853071795862 0 0 -1 
Curves 109
1 596.89999999999998 1311.9890873012275 1 -1 0 1.1102230246251565e-16 
1 0 1311.9890873012275 2.6534330288541241e-13 0 0 1 
1 586 1308.0999999999999 0 0 0 1 
1 596.89999999999998 1311.9890873012275 1.5165646516379638e-13 0 0 1 
1 596.89999999999998 3.8890873012275202 1 0 1 0 
1 582 1290.0999999999999 0 0 0 1 
1 582 18 18 -0 1 0 
1 582 18 0 0 0 1 
1 196.84999999999991 3.8890873012275202 1 1 -0 -1.1102230246251565e-16 
1 582 0 400.05000000000001 -0 1 0 
1 582 18 0 0 0 1 
3 582 18 154 1 0 0 -0 1 0 0 -0 1 7.7781745930520225 5.5
1 582 18 0 0 0 1 
3 582 18 96 1 0 0 -0 1 0 0 -0 1 7.7781745930520225 5.5
1 582 18 0 0 0 1 
1 582 18 36 -0 1 0 
1 582 1290.0999999999999 0 0 0 1 
3 582 1290.0999999999999 64 1 0 0 0 -1 0 0 0 -1 7.7781745930520225 5.5
3 582 1290.0999999999999 64 1 0 0 0 -1 0 0 0 -1 7.7781745930520225 5.5
1 582 1290.0999999999999 0 0 0 1 
3 582 1290.0999999999999 122 1 0 0 0 -1 0 0 0 -1 7.7781745930520225 5.5
3 582 1290.0999999999999 122 1 0 0 0 -1 0 0 0 -1 7.7781745930520225 5.5
1 582 1290.0999999999999 0 0 0 1 
1 582 1127.125 578.89999999999998 -0 1 0 
1 582 1127.125 578.89999999999998 0 0 1 
1 600 1308.0999999999999 596.89999999999998 -0 -1 -0 
3 586 13.999999999999943 154 1 0 -0 0 1 0 0 -0 1 7.7781745930520225 5.5
3 586 13.999999999999943 154 1 0 -0 0 1 0 0 -0 1 7.7781745930520225 5.5
3 600 0 154 1 0 0 -0 1 0 0 -0 1 7.7781745930520225 5.5
3 586 13.999999999999943 96 1 0 -0 0 1 0 0 -0 1 7.7781745930520225 5.5
3 586 13.999999999999943 96 1 0 -0 0 1 0 0 -0 1 7.7781745930520225 5.5
3 600 0 96 1 0 0 -0 1 0 0 -0 1 7.7781745930520225 5.5
3 586 1294.0999999999999 122 1 0 0 0 -1 0 0 0 -1 7.7781745930520225 5.5
3 600 1308.0999999999999 122 1 0 0 0 -1 0 0 0 -1 7.7781745930520225 5.5
3 600 1308.0999999999999 122 1 0 0 0 -1 0 0 0 -1 7.7781745930520225 5.5
3 586 1294.0999999999999 64 1 0 0 0 -1 0 0 0 -1 7.7781745930520225 5.5
3 600 1308.0999999999999 64 1 0 0 0 -1 0 0 0 -1 7.7781745930520225 5.5
3 600 1308.0999999999999 64 1 0 0 0 -1 0 0 0 -1 7.7781745930520225 5.5
1 0 1131.0140873012276 2.6534330288541241e-13 0 0 1 
1 586 1290.0999999999999 596.89999999999998 -0 1 0 
1 586 1290.0999999999999 0 0 0 1 
1 586 18 18 -0 1 0 
1 586 18 0 0 0 1 
1 586 0 0 -0 1 0 
1 586 0 0 0 0 1 
1 586 0 400.05000000000001 -0 1 0 
1 586 18 0 0 0 1 
3 586 13.999999999999943 154 1 0 -0 0 1 0 0 -0 1 7.7781745930520225 5.5
3 586 13.999999999999943 154 1 0 -0 0 1 0 0 -0 1 7.7781745930520225 5.5
1 586 18 0 0 0 1 
3 586 13.999999999999943 96 1 0 -0 0 1 0 0 -0 1 7.7781745930520225 5.5
3 586 13.999999999999943 96 1 0 -0 0 1 0 0 -0 1 7.7781745930520225 5.5
1 586 18 0 0 0 1 
1 586 18 36 -0 1 0 
1 586 1290.0999999999999 0 0 0 1 
3 586 1294.0999999999999 64 1 0 0 0 -1 0 0 0 -1 7.7781745930520225 5.5
1 586 1290.0999999999999 0 0 0 1 
3 586 1294.0999999999999 122 1 0 0 0 -1 0 0 0 -1 7.7781745930520225 5.5
1 586 1290.0999999999999 0 0 0 1 
1 586 1127.125 578.89999999999998 -0 1 0 
1 586 1127.125 578.89999999999998 0 0 1 
1 586 1290.0999999999999 0 -0 1 0 
1 582 1290.0999999999999 0 1 0 -0 
1 582 1290.0999999999999 18 1 0 -0 
1 582 18 18 1 0 -0 
1 582 18 0 1 0 -0 
1 596.89999999999998 3.8890873012275207 1.5165646516379638e-13 0 0 1 
1 196.84999999999991 3.8890873012275207 1.5165646516379638e-13 0 0 1 
1 582 18 400.05000000000001 1 0 -0 
3 582 18 154 -0 1 0 -1 -0 0 0 0 1 7.7781745930520225 5.5
1 603.18198051533943 -10.960155108391486 154 -0.70710678118654757 0.70710678118654757 -0 
3 600 0 154 0 -1 0 -1 0 0 -0 -0 -1 7.7781745930520225 5.5
3 600 0 154 1 0 0 -0 1 0 0 -0 1 7.7781745930520225 5.5
3 600 0 154 0 -1 0 -1 0 0 -0 -0 -1 7.7781745930520225 5.5
3 582 18 154 -0 1 0 -1 -0 0 0 0 1 7.7781745930520225 5.5
3 582 18 96 -0 1 0 -1 -0 0 0 0 1 7.7781745930520225 5.5
1 603.18198051533943 -10.960155108391486 96 -0.70710678118654757 0.70710678118654757 -0 
3 600 0 96 0 -1 0 -1 0 0 -0 -0 -1 7.7781745930520225 5.5
3 600 0 96 1 0 0 -0 1 0 0 -0 1 7.7781745930520225 5.5
3 600 0 96 0 -1 0 -1 0 0 -0 -0 -1 7.7781745930520225 5.5
3 582 18 96 -0 1 0 -1 -0 0 0 0 1 7.7781745930520225 5.5
1 582 18 36 1 0 -0 
1 582 1290.0999999999999 36 1 0 -0 
3 581.99999999999989 1290.0999999999999 64 -0 1 0 -1 -0 0 0 0 1 7.7781745930520225 5.5
3 600 1308.0999999999999 64 1 0 0 0 -1 0 0 0 -1 7.7781745930520225 5.5
3 599.99999999999989 1308.0999999999999 64 -0 1 0 -1 0 -0 -0 -0 1 7.7781745930520225 5.5
3 600 1308.0999999999999 64 1 0 0 0 -1 0 0 0 -1 7.7781745930520225 5.5
1 610.96015510839152 1311.2819805153395 64 -0.70710678118654757 -0.70710678118654757 -0 
3 581.99999999999989 1290.0999999999999 64 -0 1 0 -1 -0 0 0 0 1 7.7781745930520225 5.5
3 581.99999999999989 1290.0999999999999 122 -0 1 0 -1 -0 0 0 0 1 7.7781745930520225 5.5
3 600 1308.0999999999999 122 1 0 0 0 -1 0 0 0 -1 7.7781745930520225 5.5
3 599.99999999999989 1308.0999999999999 122 -0 1 0 -1 0 -0 -0 -0 1 7.7781745930520225 5.5
3 600 1308.0999999999999 122 1 0 0 0 -1 0 0 0 -1 7.7781745930520225 5.5
1 610.96015510839152 1311.2819805153395 122 -0.70710678118654757 -0.70710678118654757 -0 
3 581.99999999999989 1290.0999999999999 122 -0 1 0 -1 -0 0 0 0 1 7.7781745930520225 5.5
1 582 1290.0999999999999 578.89999999999998 1 0 -0 
1 582 1127.125 578.89999999999998 1 0 -0 
1 445.29791576165644 10.889087301227452 1.13464793116691e-13 0 0 1 
1 442.89999999999992 10.110912708175423 2.2737367544323206e-13 0 0 1 
1 440.5020842383434 10.88908730122745 1.1390888232654106e-13 0 0 1 
1 503.29791576165644 10.889087301227455 1.13464793116691e-13 0 0 1 
1 500.89999999999992 10.110912708175423 2.2737367544323206e-13 0 0 1 
1 498.5020842383434 10.889087301227448 1.1390888232654106e-13 0 0 1 
1 472.50208423834351 1304.9890873012275 1.1390888232654106e-13 0 0 1 
1 477.2979157616565 1304.9890873012273 1.13464793116691e-13 0 0 1 
1 474.89999999999992 1304.2109127081756 0 0 0 1 
1 530.50208423834363 1304.9890873012275 1.1390888232654106e-13 0 0 1 
1 535.29791576165644 1304.9890873012275 1.13464793116691e-13 0 0 1 
1 532.89999999999998 1304.2109127081756 0 0 0 1 
Polygon3D 0
PolygonOnTriangulations 0
Surfaces 60
1 596.89999999999998 1311.9890873012275 1.8693102561208009e-45 0 -1 0 -1 0 1.1102230246251565e-16 -1.1102230246251565e-16 -0 -1 
1 338.91587621328807 692.98002167824563 1.0000000000000338 0 0 1 1 0 -0 -0 1 0 
1 600 1308.0999999999999 0 -0 -1 -0 -0 0 1 1 -0 0 
1 585.99999999999977 740.44561243161672 161.1855311784123 -1 -0 -0 0 0 -1 0 -1 0 
1 582 1290.0999999999999 0 -0 1 0 0 0 1 1 0 -0 
1 564 689.09093437701847 257.98412378671179 -1 -0 -0 -0 0 1 -0 -1 0 
1 582 18 18 0 0 1 1 0 -0 -0 1 0 
1 582 18 0 -0 1 0 0 0 1 1 0 -0 
1 582 0 400.05000000000001 0 0 1 1 0 -0 -0 1 0 
1 564 689.09093437701847 257.98412378671179 -1 -0 -0 -0 0 1 -0 -1 0 
1 582 18 0 -0 1 0 0 0 1 1 0 -0 
2 607.07106781186542 -7.0710678118654746 154 -0.70710678118654757 0.70710678118654757 -0 -0.70710678118654757 -0.70710678118654757 -0 0 -0 -1 5.5
6 -0 -0 -1 
3 442.89999999999992 21.889087301227519 0 1.1102230246251565e-16 -0 1 0 1 0 -1 0 1.1102230246251565e-16 7.7781745930520225 5.5
1 582 18 0 -0 1 0 0 0 1 1 0 -0 
2 607.07106781186542 -7.0710678118654746 96 -0.70710678118654757 0.70710678118654757 -0 -0.70710678118654757 -0.70710678118654757 -0 0 -0 -1 5.5
6 -0 -0 -1 
3 500.89999999999992 21.889087301227519 0 1.1102230246251565e-16 -0 1 0 1 0 -1 0 1.1102230246251565e-16 7.7781745930520225 5.5
1 582 18 0 -0 1 0 0 0 1 1 0 -0 
1 582 18 36 0 0 1 1 0 -0 -0 1 0 
1 582 1290.0999999999999 0 -0 1 0 0 0 1 1 0 -0 
2 607.07106781186542 1315.1710678118654 64 -0.70710678118654757 -0.70710678118654757 -0 0.70710678118654757 -0.70710678118654757 0 0 -0 -1 5.5
6 -0 -0 -1 
3 532.89999999999998 1293.9890873012275 0 1.1102230246251565e-16 0 1 0 -1 0 1 0 -1.1102230246251565e-16 7.7781745930520225 5.5
6 -0 -0 -1 
3 532.89999999999998 1293.9890873012275 0 1.1102230246251565e-16 0 1 0 -1 0 1 0 -1.1102230246251565e-16 7.7781745930520225 5.5
1 582 1290.0999999999999 0 -0 1 0 0 0 1 1 0 -0 
2 607.07106781186542 1315.1710678118654 122 -0.70710678118654757 -0.70710678118654757 -0 0.70710678118654757 -0.70710678118654757 0 0 -0 -1 5.5
6 -0 -0 -1 
3 474.89999999999992 1293.9890873012275 0 1.1102230246251565e-16 0 1 0 -1 0 1 0 -1.1102230246251565e-16 7.7781745930520225 5.5
6 -0 -0 -1 
3 474.89999999999992 1293.9890873012275 0 1.1102230246251565e-16 0 1 0 -1 0 1 0 -1.1102230246251565e-16 7.7781745930520225 5.5
1 582 1290.0999999999999 0 -0 1 0 0 0 1 1 0 -0 
1 582 1127.125 578.89999999999998 0 0 1 1 0 -0 -0 1 0 
1 582 1127.125 578.89999999999998 -0 1 0 0 0 1 1 0 -0 
6 -0 -0 -1 
3 442.89999999999992 17.889087301227462 2.2737367544323206e-13 1.1102230246251565e-16 -0 1 0 1 0 -1 0 1.1102230246251565e-16 7.7781745930520225 5.5
6 -0 -0 -1 
3 442.89999999999992 17.889087301227462 2.2737367544323206e-13 1.1102230246251565e-16 -0 1 0 1 0 -1 0 1.1102230246251565e-16 7.7781745930520225 5.5
6 -0 -0 -1 
3 442.89999999999992 3.8890873012275202 0 1.1102230246251565e-16 -0 1 0 1 0 -1 0 1.1102230246251565e-16 7.7781745930520225 5.5
6 -0 -0 -1 
3 500.89999999999992 17.889087301227462 2.2737367544323206e-13 1.1102230246251565e-16 -0 1 0 1 0 -1 0 1.1102230246251565e-16 7.7781745930520225 5.5
6 -0 -0 -1 
3 500.89999999999992 17.889087301227462 2.2737367544323206e-13 1.1102230246251565e-16 -0 1 0 1 0 -1 0 1.1102230246251565e-16 7.7781745930520225 5.5
6 -0 -0 -1 
3 500.89999999999992 3.8890873012275202 0 1.1102230246251565e-16 -0 1 0 1 0 -1 0 1.1102230246251565e-16 7.7781745930520225 5.5
6 -0 -0 -1 
3 474.89999999999992 1297.9890873012275 2.2737367544323206e-13 1.1102230246251565e-16 0 1 0 -1 0 1 0 -1.1102230246251565e-16 7.7781745930520225 5.5
6 -0 -0 -1 
3 474.89999999999992 1311.9890873012275 0 1.1102230246251565e-16 0 1 0 -1 0 1 0 -1.1102230246251565e-16 7.7781745930520225 5.5
6 -0 -0 -1 
3 474.89999999999992 1311.9890873012275 0 1.1102230246251565e-16 0 1 0 -1 0 1 0 -1.1102230246251565e-16 7.7781745930520225 5.5
6 -0 -0 -1 
3 532.89999999999998 1297.9890873012275 2.2737367544323206e-13 1.1102230246251565e-16 0 1 0 -1 0 1 0 -1.1102230246251565e-16 7.7781745930520225 5.5
6 -0 -0 -1 
3 532.89999999999998 1311.9890873012275 0 1.1102230246251565e-16 0 1 0 -1 0 1 0 -1.1102230246251565e-16 7.7781745930520225 5.5
6 -0 -0 -1 
3 532.89999999999998 1311.9890873012275 0 1.1102230246251565e-16 0 1 0 -1 0 1 0 -1.1102230246251565e-16 7.7781745930520225 5.5
1 0 1311.9890873012275 1.1368683772161603e-13 1 0 -0 0 -1 0 0 -0 -1 
1 600 1308.0999999999999 596.89999999999998 -0 -0 -1 0 -1 0 1 -0 -0 
1 600 0 0 -0 -0 1 -0 1 0 1 -0 0 
1 600 0 400.05000000000001 -0 1 -0 0 0 -1 1 0 0 
6 -0 -0 -1 
3 442.89999999999992 17.889087301227462 2.2737367544323206e-13 1.1102230246251565e-16 -0 1 0 1 0 -1 0 1.1102230246251565e-16 7.7781745930520225 5.5
6 -0 -0 -1 
3 442.89999999999992 17.889087301227462 2.2737367544323206e-13 1.1102230246251565e-16 -0 1 0 1 0 -1 0 1.1102230246251565e-16 7.7781745930520225 5.5
6 -0 -0 -1 
3 500.89999999999992 17.889087301227462 2.2737367544323206e-13 1.1102230246251565e-16 -0 1 0 1 0 -1 0 1.1102230246251565e-16 7.7781745930520225 5.5
6 -0 -0 -1 
3 500.89999999999992 17.889087301227462 2.2737367544323206e-13 1.1102230246251565e-16 -0 1 0 1 0 -1 0 1.1102230246251565e-16 7.7781745930520225 5.5
6 -0 -0 -1 
3 532.89999999999998 1297.9890873012275 2.2737367544323206e-13 1.1102230246251565e-16 0 1 0 -1 0 1 0 -1.1102230246251565e-16 7.7781745930520225 5.5
6 -0 -0 -1 
3 474.89999999999992 1297.9890873012275 2.2737367544323206e-13 1.1102230246251565e-16 0 1 0 -1 0 1 0 -1.1102230246251565e-16 7.7781745930520225 5.5
1 596.89999999999998 3.8890873012275207 0 -1 0 0 0 1 0 0 0 -1 
1 196.84999999999991 3.8890873012275202 1.8693102561208009e-45 0 1 -0 1 -0 -1.1102230246251565e-16 -1.1102230246251565e-16 0 -1 
1 600 689.09093437701847 257.98412378671179 -1 -0 -0 -0 0 1 -0 -1 0 
6 -0 -0 -1 
3 442.89999999999992 3.8890873012275202 0 1.1102230246251565e-16 -0 1 0 1 0 -1 0 1.1102230246251565e-16 7.7781745930520225 5.5
6 -0 -0 -1 
3 500.89999999999992 3.8890873012275202 0 1.1102230246251565e-16 -0 1 0 1 0 -1 0 1.1102230246251565e-16 7.7781745930520225 5.5
6 -0 -0 -1 
3 532.89999999999998 1311.9890873012275 0 1.1102230246251565e-16 0 1 0 -1 0 1 0 -1.1102230246251565e-16 7.7781745930520225 5.5
6 -0 -0 -1 
3 532.89999999999998 1311.9890873012275 0 1.1102230246251565e-16 0 1 0 -1 0 1 0 -1.1102230246251565e-16 7.7781745930520225 5.5
6 -0 -0 -1 
3 474.89999999999992 1311.9890873012275 0 1.1102230246251565e-16 0 1 0 -1 0 1 0 -1.1102230246251565e-16 7.7781745930520225 5.5
6 -0 -0 -1 
3 474.89999999999992 1311.9890873012275 0 1.1102230246251565e-16 0 1 0 -1 0 1 0 -1.1102230246251565e-16 7.7781745930520225 5.5
Triangulations 0

TShapes 340
Ve
8.42596121640909e-05
596.9 1311.98908730123 1.00000000000015
0 0

0101101
*
Ve
8.42596121640909e-05
0 1311.98908730123 1.00000000000027
0 0

0101101
*
Ed
 8.42596121342702e-05 1 1 0
1  1 0 1.6837249945811e-29 596.9
2  1 2 0 1.6837249945811e-29 596.9
0

0101000
+340 0 -339 0 *
Ve
8.42596121640909e-05
0 1311.98908730123 4.00000000000011
0 0

0101101
*
Ed
 8.42596121640909e-05 1 1 0
1  2 0 0 3.99999999999985
0

0101000
+339 1 -337 0 *
Ve
8.42596121640909e-05
596.9 1311.98908730123 4
0 0

0101101
*
Ed
 8.4259611861e-05 1 1 0
1  3 0 0 596.9
2  2 3 11 0 596.9
2  3 4 0 0 596.9
0

0101000
+335 12 -337 12 *
Ed
 8.42596121640909e-05 1 1 0
1  4 0 0 3.99999999999985
0

0101000
+340 1 -335 0 *
Wi

0101100
-338 1 -336 0 +334 5 +333 0 *
Fa
0  1e-07 1 0

0101000
+332 0 *
Ve
8.42596121678544e-05
596.9 1293.98908730123 0
0 0

0101101
*
Ed
 8.42596121342702e-05 1 1 0
1  5 0 1290.1 1308.1
2  4 2 0 1290.1 1308.1
0

0101000
+330 13 -340 0 *
Ve
8.4259612168021e-05
578.9 1293.98908730123 0
0 0

0101101
*
Ed
 8.42596121678544e-05 1 1 0
1  6 0 0 18
2  5 5 0 0 18
2  6 6 15 0 18
0

0101000
+330 12 -328 12 *
Ve
8.4259612168021e-05
578.9 21.8890873012275 0
0 0

0101101
*
Ed
 8.4259612168021e-05 1 1 0
1  7 0 0 1272.1
2  7 6 15 0 1272.1
2  8 7 0 0 1272.1
0

0101000
+326 12 -328 12 *
Ve
8.42596121678544e-05
596.9 21.8890873012275 0
0 0

0101101
*
Ed
 8.42596121678544e-05 1 1 0
1  8 0 0 18
2  9 6 15 0 18
2  10 8 0 0 18
0

0101000
+324 12 -326 12 *
Ve
8.42596122086121e-05
596.9 3.88908730122752 1.00000000000015
0 0

0101101
*
Ed
 8.42596121342702e-05 1 1 0
1  5 0 4.44089209850063e-16 18
2  4 2 0 4.44089209850063e-16 18
0

0101000
+322 0 -324 13 *
Ve
8.42596122099832e-05
196.85 3.88908730122752 1.51656465163796e-13
0 0

0101101
*
Ed
 8.42596121342702e-05 1 1 0
1  9 0 -1.6837249945811e-29 400.05
2  11 2 0 -1.6837249945811e-29 400.05
0

0101000
+320 13 -322 0 *
Ve
8.4259612168021e-05
196.85 21.8890873012275 0
0 0

0101101
*
Ed
 8.4259612168021e-05 1 1 0
1  10 0 0 18
2  12 9 0 0 18
2  13 10 15 0 18
0

0101000
+320 12 -318 12 *
Ve
8.42596121686108e-05
437.4 21.8890873012276 0
0 0

0101101
*
Ed
 8.42596121480874e-05 1 1 0
1  11 0 159.5 400.05
2  14 11 0 159.5 400.05
2  15 10 15 159.5 400.05
0

0101000
+316 12 -318 12 *
Ve
8.42596121686108e-05
448.4 21.8890873012276 0
0 0

0101101
*
Ed
 8.42596121686108e-05 1 1 0
1  12 0 4.71238898038469 7.85398163397448
2  16 12 0 4.71238898038469 7.85398163397448
2  17 10 17 4.71238898038469 7.85398163397448
2  18 13 19 4.71238898038469 7.85398163397448
2  19 13 21 4.71238898038469 7.85398163397448
0

0101000
+314 22 -316 22 *
Ve
8.42596121686108e-05
495.4 21.8890873012276 0
0 0

0101101
*
Ed
 8.42596121563174e-05 1 1 0
1  13 0 101.5 148.5
2  20 14 0 101.5 148.5
2  21 10 15 101.5 148.5
0

0101000
+312 12 -314 12 *
Ve
8.42596121686108e-05
506.4 21.8890873012276 0
0 0

0101101
*
Ed
 8.42596121686108e-05 1 1 0
1  14 0 4.71238898038469 7.85398163397448
2  22 15 0 4.71238898038469 7.85398163397448
2  23 10 17 4.71238898038469 7.85398163397448
2  24 16 19 4.71238898038469 7.85398163397448
2  25 16 21 4.71238898038469 7.85398163397448
0

0101000
+310 22 -312 22 *
Ve
8.4259612168021e-05
560.9 21.8890873012275 0
0 0

0101101
*
Ed
 8.42596121635199e-05 1 1 0
1  15 0 36 90.5
2  26 17 0 36 90.5
2  27 10 15 36 90.5
0

0101000
+308 12 -310 12 *
Ve
8.4259612168021e-05
560.9 1293.98908730123 0
0 0

0101101
*
Ed
 8.4259612168021e-05 1 1 0
1  16 0 0 1272.1
2  28 18 0 0 1272.1
2  29 10 15 0 1272.1
0

0101000
+308 12 -306 12 *
Ve
8.42596121686264e-05
538.4 1293.98908730123 0
0 0

0101101
*
Ed
 8.4259612163816e-05 1 1 0
1  17 0 36 58.5
2  30 19 0 36 58.5
2  31 10 15 36 58.5
0

0101000
+306 12 -304 12 *
Ve
8.42596121686264e-05
532.9 1286.21091270818 0
0 0

0101101
*
Ed
 8.42596121686264e-05 1 1 0
1  18 0 0 1.5707963267949
2  32 20 0 0 1.5707963267949
2  33 10 17 0 1.5707963267949
2  34 21 19 0 1.5707963267949
2  35 21 21 0 1.5707963267949
0

0101000
+302 22 -304 22 *
Ve
8.4259612168021e-05
527.4 1293.98908730123 0
0 0

0101101
*
Ed
 8.42596121679413e-05 1 1 0
1  19 0 4.71238898038469 6.28318530717959
2  36 20 0 4.71238898038469 6.28318530717959
2  37 10 17 4.71238898038469 6.28318530717959
2  38 22 19 4.71238898038469 6.28318530717959
2  39 22 21 4.71238898038469 6.28318530717959
0

0101000
+300 22 -302 22 *
Ve
8.42596121686264e-05
480.4 1293.98908730123 0
0 0

0101101
*
Ed
 8.42596121598701e-05 1 1 0
1  20 0 69.5 116.5
2  40 23 0 69.5 116.5
2  41 10 15 69.5 116.5
0

0101000
+300 12 -298 12 *
Ve
8.42596121686264e-05
474.9 1286.21091270818 0
0 0

0101101
*
Ed
 8.42596121686264e-05 1 1 0
1  21 0 0 1.5707963267949
2  42 24 0 0 1.5707963267949
2  43 10 17 0 1.5707963267949
2  44 25 19 0 1.5707963267949
2  45 25 21 0 1.5707963267949
0

0101000
+296 22 -298 22 *
Ve
8.4259612168021e-05
469.4 1293.98908730123 0
0 0

0101101
*
Ed
 8.42596121679413e-05 1 1 0
1  22 0 4.71238898038469 6.28318530717959
2  46 24 0 4.71238898038469 6.28318530717959
2  47 10 17 4.71238898038469 6.28318530717959
2  48 26 19 4.71238898038469 6.28318530717959
2  49 26 21 4.71238898038469 6.28318530717959
0

0101000
+294 22 -296 22 *
Ve
8.42596122142062e-05
18 1293.98908730123 1.13686837721616e-13
0 0

0101101
*
Ed
 8.42596121606139e-05 1 1 0
1  23 0 127.5 578.9
2  50 27 0 127.5 578.9
2  51 10 15 127.5 578.9
0

0101000
+294 12 -292 12 *
Ve
8.42596122160381e-05
18 1131.01408730123 1.13686837721616e-13
0 0

0101101
*
Ed
 8.42596122142062e-05 1 1 0
1  24 0 0 162.975
2  52 10 15 0 162.975
2  53 28 0 0 162.975
0

0101000
+290 12 -292 12 *
Ve
8.42596122665903e-05
0 1131.01408730123 2.14791147830814e-13
0 0

0101101
*
Ed
 8.42596122160381e-05 1 1 0
1  25 0 0 18
2  54 10 15 0 18
2  55 29 0 0 18
0

0101000
+290 12 -288 12 *
Ed
 8.42596121342702e-05 1 1 0
1  26 0 0 180.975
2  56 2 26 0 180.975
0

0101000
+339 26 -288 27 *
Wi

0101100
+329 1 -327 5 +325 5 +323 5 +321 1 +319 1 -317 5 +315 5 +313 16 +311 5 
+309 16 +307 5 -305 5 -303 5 +301 16 +299 16 -297 5 +295 16 +293 16 -291 5 
+289 5 -287 5 +286 25 +338 1 *
Ve
8.4259611861e-05
442.9 10.1109127081754 1.00000000000023
0 0

0101101
*
Ve
8.4309612861e-05
445.297915761656 10.8890873012275 1.00000000000011
0 0

0101101
*
Ed
 8.4259611861e-05 1 1 0
1  27 0 3.14159265358979 3.59272478983201
2  57 2 31 3.14159265358979 3.59272478983201
2  58 30 32 3.14159265358979 3.59272478983201
2  59 30 34 3.14159265358979 3.59272478983201
0

0101000
+284 31 -283 31 *
Ve
8.4309612861e-05
440.502084238343 10.8890873012275 1.00000000000011
0 0

0101101
*
Ed
 8.4259611861e-05 1 1 0
1  28 0 2.69046051734757 3.14159265358979
2  60 2 31 2.69046051734757 3.14159265358979
2  61 31 32 2.69046051734757 3.14159265358979
2  62 31 34 2.69046051734757 3.14159265358979
0

0101000
+281 31 -284 31 *
Ed
 5.53059249e-06 1 1 0
1  29 0 5.83205317093736 6.73431744342181
2  63 2 36 5.83205317093736 6.73431744342181
2  64 32 37 5.83205317093736 6.73431744342181
2  65 32 38 5.83205317093736 6.73431744342181
0

0101000
+283 36 -281 36 *
Wi

0101100
-282 30 -280 30 -279 35 *
Ve
8.4259611861e-05
500.9 10.1109127081754 1.00000000000023
0 0

0101101
*
Ve
8.4309612861e-05
503.297915761656 10.8890873012275 1.00000000000011
0 0

0101101
*
Ed
 8.4259611861e-05 1 1 0
1  30 0 3.14159265358979 3.59272478983201
2  66 2 31 3.14159265358979 3.59272478983201
2  67 33 32 3.14159265358979 3.59272478983201
2  68 33 34 3.14159265358979 3.59272478983201
0

0101000
+277 31 -276 31 *
Ve
8.4309612861e-05
498.502084238343 10.8890873012274 1.00000000000011
0 0

0101101
*
Ed
 8.4259611861e-05 1 1 0
1  31 0 2.69046051734757 3.14159265358979
2  69 2 31 2.69046051734757 3.14159265358979
2  70 34 32 2.69046051734757 3.14159265358979
2  71 34 34 2.69046051734757 3.14159265358979
0

0101000
+274 31 -277 31 *
Ed
 5.53059249e-06 1 1 0
1  32 0 5.83205317093736 6.73431744342181
2  72 2 36 5.83205317093736 6.73431744342181
2  73 35 37 5.83205317093736 6.73431744342181
2  74 35 38 5.83205317093736 6.73431744342181
0

0101000
+276 36 -274 36 *
Wi

0101100
-275 30 -273 30 -272 35 *
Ve
8.4309612861e-05
477.297915761656 1304.98908730123 1.00000000000011
0 0

0101101
*
Ve
8.4309612861e-05
472.502084238344 1304.98908730123 1.00000000000011
0 0

0101101
*
Ed
 8.4259611861e-05 1 1 0
1  33 0 2.69046051734754 3.592724789832
2  75 2 31 2.69046051734754 3.592724789832
2  76 36 32 2.69046051734754 3.592724789832
2  77 36 34 2.69046051734754 3.592724789832
0

0101000
+270 31 -269 31 *
Ve
5.53059249e-06
474.9 1304.21091270818 1
0 0

0101101
*
Ed
 5.53059249e-06 1 1 0
1  34 0 0 0.451132136242208
2  78 2 36 0 0.451132136242208
2  79 37 37 0 0.451132136242208
2  80 37 38 0 0.451132136242208
0

0101000
+267 36 -270 36 *
Ed
 5.53059249e-06 1 1 0
1  35 0 5.83205317093738 6.28318530717959
2  81 2 36 5.83205317093738 6.28318530717959
2  82 38 37 5.83205317093738 6.28318530717959
2  83 38 38 5.83205317093738 6.28318530717959
0

0101000
+269 36 -267 36 *
Wi

0101100
-268 30 -266 35 -265 35 *
Ve
8.4309612861e-05
535.297915761656 1304.98908730123 1.00000000000011
0 0

0101101
*
Ve
8.4309612861e-05
530.502084238344 1304.98908730123 1.00000000000011
0 0

0101101
*
Ed
 8.4259611861e-05 1 1 0
1  36 0 2.69046051734758 3.59272478983199
2  84 2 31 2.69046051734758 3.59272478983199
2  85 39 32 2.69046051734758 3.59272478983199
2  86 39 34 2.69046051734758 3.59272478983199
0

0101000
+263 31 -262 31 *
Ve
5.53059249e-06
532.9 1304.21091270818 1
0 0

0101101
*
Ed
 5.53059249e-06 1 1 0
1  37 0 0 0.451132136242214
2  87 2 36 0 0.451132136242214
2  88 40 37 0 0.451132136242214
2  89 40 38 0 0.451132136242214
0

0101000
+260 36 -263 36 *
Ed
 5.53059249e-06 1 1 0
1  38 0 5.83205317093739 6.28318530717959
2  90 2 36 5.83205317093739 6.28318530717959
2  91 41 37 5.83205317093739 6.28318530717959
2  92 41 38 5.83205317093739 6.28318530717959
0

0101000
+262 36 -260 36 *
Wi

0101100
-261 30 -259 35 -258 35 *
Fa
0  8.42596121342702e-05 2 1

0101000
+285 0 +278 0 +271 0 +264 0 +257 0 *
Ve
8.42596121640909e-05
0 1131.01408730123 4.00000000000011
0 0

0101101
*
Ed
 8.42596121640909e-05 1 1 0
1  39 0 0 3.99999999999985
0

0101000
+288 0 -255 0 *
Ed
 8.42596121342702e-05 1 1 0
1  40 0 -162.975 18
2  93 43 11 -162.975 18
2  94 4 0 -162.975 18
0

0101000
+255 12 -337 12 *
Wi

0101100
-286 25 -254 0 -253 5 +336 0 *
Fa
0  8.42596121342702e-05 42 0

0101000
+252 0 *
Ve
8.4259611861e-05
596.9 1293.98908730123 4
0 0

0101101
*
Ve
8.4259611861e-05
586 1290.1 18
0 0

0101101
*
Ed
 8.4259611861e-05 1 1 0
1  41 0 0 18
2  95 5 0 0 18
2  96 4 0 0 18
0

0101000
+250 12 -249 39 *
Ve
8.4259611861e-05
586 18 18
0 0

0101101
*
Ed
 8.4259611861e-05 1 1 0
1  42 0 0 1272.1
2  97 7 0 0 1272.1
2  98 4 0 0 1272.1
0

0101000
+247 39 -249 39 *
Ve
8.4259611861e-05
596.9 21.8890873012275 4
0 0

0101101
*
Ed
 8.4259611861e-05 1 1 0
1  43 0 0 18
2  99 8 0 0 18
2  100 4 0 0 18
0

0101000
+245 12 -247 39 *
Ve
8.42596122090562e-05
596.9 3.88908730122752 4
0 0

0101101
*
Ed
 8.4259611861e-05 1 1 0
1  44 0 0 18
2  101 44 11 0 18
2  102 4 0 0 18
0

0101000
+243 12 -245 12 *
Ve
8.42596122104273e-05
196.85 3.88908730122752 4
0 0

0101101
*
Ed
 8.4259611861e-05 1 1 0
1  45 0 0 400.05
2  103 45 11 0 400.05
2  104 4 0 0 400.05
0

0101000
+243 12 -241 12 *
Ve
8.4259611861e-05
586 18 400.05
0 0

0101101
*
Ed
 8.4259611861e-05 1 1 0
1  46 0 0 18
2  105 9 0 0 18
2  106 4 0 0 18
0

0101000
+241 12 -239 39 *
Ve
8.4259611861e-05
586 18 158.716990566034
0 0

0101101
*
Ed
 8.4259611861e-05 1 1 0
1  47 0 158.716990566034 400.05
2  107 11 0 158.716990566034 400.05
2  108 4 0 158.716990566034 400.05
0

0101000
+237 39 -239 39 *
Ve
8.43096129311661e-05
440.502084238343 10.8890873012275 4
0 0

0101101
*
Ed
 8.4259611861e-05 1 1 0
1  48 0 1.03065234911902 2.69046051734757
2  109 12 40 1.03065234911902 2.69046051734757
2  110 4 0 1.03065234911902 2.69046051734757
2  111 46 41 1.03065234911902 2.69046051734757
2  112 46 31 1.03065234911902 2.69046051734757
0

0101000
+237 39 -235 12 *
Ve
8.425961187166e-05
442.9 10.1109127081754 4
0 0

0101101
*
Ed
 8.425961187166e-05 1 1 0
1  48 0 2.69046051734757 3.14159265358979
2  109 12 40 2.69046051734757 3.14159265358979
2  110 4 0 2.69046051734757 3.14159265358979
2  111 46 41 2.69046051734757 3.14159265358979
2  112 46 31 2.69046051734757 3.14159265358979
2  113 31 12 2.69046051734757 3.14159265358979
0

0101000
+235 12 -233 12 *
Ve
8.43096129302783e-05
445.297915761656 10.8890873012275 4
0 0

0101101
*
Ed
 8.42596118681083e-05 1 1 0
1  49 0 3.14159265358979 3.59272478983202
2  114 12 40 3.14159265358979 3.59272478983202
2  115 4 0 3.14159265358979 3.59272478983202
2  116 47 41 3.14159265358979 3.59272478983202
2  117 47 31 3.14159265358979 3.59272478983202
2  118 30 12 3.14159265358979 3.59272478983202
0

0101000
+233 12 -231 12 *
Ve
8.4259611861e-05
586 18 149.283009433966
0 0

0101101
*
Ed
 8.4259611861e-05 1 1 0
1  49 0 3.59272478983202 5.25253295806057
2  114 12 40 3.59272478983202 5.25253295806057
2  115 4 0 3.59272478983202 5.25253295806057
2  116 47 41 3.59272478983202 5.25253295806057
2  117 47 31 3.59272478983202 5.25253295806057
0

0101000
+231 12 -229 39 *
Ve
8.4259611861e-05
586 18 100.716990566034
0 0

0101101
*
Ed
 8.4259611861e-05 1 1 0
1  50 0 100.716990566034 149.283009433966
2  119 14 0 100.716990566034 149.283009433966
2  120 4 0 100.716990566034 149.283009433966
0

0101000
+227 39 -229 39 *
Ve
8.43096129408373e-05
498.502084238343 10.8890873012275 4
0 0

0101101
*
Ed
 8.4259611861e-05 1 1 0
1  51 0 1.03065234911902 2.69046051734757
2  121 15 40 1.03065234911902 2.69046051734757
2  122 4 0 1.03065234911902 2.69046051734757
2  123 48 41 1.03065234911902 2.69046051734757
2  124 48 31 1.03065234911902 2.69046051734757
0

0101000
+227 39 -225 12 *
Ve
8.425961187166e-05
500.9 10.1109127081754 4
0 0

0101101
*
Ed
 8.425961187166e-05 1 1 0
1  51 0 2.69046051734757 3.14159265358979
2  121 15 40 2.69046051734757 3.14159265358979
2  122 4 0 2.69046051734757 3.14159265358979
2  123 48 41 2.69046051734757 3.14159265358979
2  124 48 31 2.69046051734757 3.14159265358979
2  125 34 12 2.69046051734757 3.14159265358979
0

0101000
+225 12 -223 12 *
Ve
8.43096129267256e-05
503.297915761656 10.8890873012275 4
0 0

0101101
*
Ed
 8.42596118681083e-05 1 1 0
1  52 0 3.14159265358979 3.59272478983202
2  126 15 40 3.14159265358979 3.59272478983202
2  127 4 0 3.14159265358979 3.59272478983202
2  128 49 41 3.14159265358979 3.59272478983202
2  129 49 31 3.14159265358979 3.59272478983202
2  130 33 12 3.14159265358979 3.59272478983202
0

0101000
+223 12 -221 12 *
Ve
8.4259611861e-05
586 18 91.2830094339655
0 0

0101101
*
Ed
 8.4259611861e-05 1 1 0
1  52 0 3.59272478983202 5.25253295806057
2  126 15 40 3.59272478983202 5.25253295806057
2  127 4 0 3.59272478983202 5.25253295806057
2  128 49 41 3.59272478983202 5.25253295806057
2  129 49 31 3.59272478983202 5.25253295806057
0

0101000
+221 12 -219 39 *
Ve
8.4259611861e-05
586 18 36
0 0

0101101
*
Ed
 8.4259611861e-05 1 1 0
1  53 0 36 91.2830094339655
2  131 17 0 36 91.2830094339655
2  132 4 0 36 91.2830094339655
0

0101000
+217 39 -219 39 *
Ve
8.4259611861e-05
586 1290.1 36
0 0

0101101
*
Ed
 8.4259611861e-05 1 1 0
1  54 0 0 1272.1
2  133 18 0 0 1272.1
2  134 4 0 0 1272.1
0

0101000
+217 39 -215 39 *
Ve
8.4259611861e-05
586 1290.1 59.2830094339717
0 0

0101101
*
Ed
 8.4259611861e-05 1 1 0
1  55 0 36 59.2830094339717
2  135 19 0 36 59.2830094339717
2  136 4 0 36 59.2830094339717
0

0101000
+215 39 -213 39 *
Ve
8.43096131152115e-05
535.297915761657 1304.98908730123 4
0 0

0101101
*
Ed
 8.4259611861e-05 1 1 0
1  56 0 1.03065234911869 2.69046051734754
2  137 20 40 1.03065234911869 2.69046051734754
2  138 4 0 1.03065234911869 2.69046051734754
2  139 50 41 1.03065234911869 2.69046051734754
2  140 50 31 1.03065234911869 2.69046051734754
0

0101000
+213 39 -211 12 *
Ve
8.43096129746868e-05
530.502084238344 1304.98908730123 4
0 0

0101101
*
Ed
 8.42596119746868e-05 1 1 0
1  56 0 2.69046051734754 3.59272478983201
2  137 20 40 2.69046051734754 3.59272478983201
2  138 4 0 2.69046051734754 3.59272478983201
2  139 50 41 2.69046051734754 3.59272478983201
2  140 50 31 2.69046051734754 3.59272478983201
2  141 39 12 2.69046051734754 3.59272478983201
0

0101000
+211 12 -209 12 *
Ve
8.4259611861e-05
586 1290.1 68.7169905660283
0 0

0101101
*
Ed
 8.4259611861e-05 1 1 0
1  56 0 3.59272478983201 5.25253295806089
2  137 20 40 3.59272478983201 5.25253295806089
2  138 4 0 3.59272478983201 5.25253295806089
2  139 50 41 3.59272478983201 5.25253295806089
2  140 50 31 3.59272478983201 5.25253295806089
0

0101000
+209 12 -207 39 *
Ve
8.4259611861e-05
586 1290.1 117.283009433972
0 0

0101101
*
Ed
 8.4259611861e-05 1 1 0
1  57 0 68.7169905660283 117.283009433972
2  142 23 0 68.7169905660283 117.283009433972
2  143 4 0 68.7169905660283 117.283009433972
0

0101000
+207 39 -205 39 *
Ve
8.43096129178438e-05
477.297915761657 1304.98908730123 4
0 0

0101101
*
Ed
 8.4259611861e-05 1 1 0
1  58 0 1.03065234911869 2.69046051734753
2  144 24 40 1.03065234911869 2.69046051734753
2  145 4 0 1.03065234911869 2.69046051734753
2  146 51 41 1.03065234911869 2.69046051734753
2  147 51 31 1.03065234911869 2.69046051734753
0

0101000
+205 39 -203 12 *
Ve
8.43096131152115e-05
472.502084238343 1304.98908730123 4
0 0

0101101
*
Ed
 8.42596119178436e-05 1 1 0
1  58 0 2.69046051734753 3.59272478983204
2  144 24 40 2.69046051734753 3.59272478983204
2  145 4 0 2.69046051734753 3.59272478983204
2  146 51 41 2.69046051734753 3.59272478983204
2  147 51 31 2.69046051734753 3.59272478983204
2  148 36 12 2.69046051734753 3.59272478983204
0

0101000
+203 12 -201 12 *
Ve
8.4259611861e-05
586 1290.1 126.716990566028
0 0

0101101
*
Ed
 8.4259611861e-05 1 1 0
1  58 0 3.59272478983204 5.25253295806089
2  144 24 40 3.59272478983204 5.25253295806089
2  145 4 0 3.59272478983204 5.25253295806089
2  146 51 41 3.59272478983204 5.25253295806089
2  147 51 31 3.59272478983204 5.25253295806089
0

0101000
+201 12 -199 39 *
Ve
8.4259611861e-05
586 1290.1 578.9
0 0

0101101
*
Ed
 8.4259611861e-05 1 1 0
1  59 0 126.716990566028 578.9
2  149 27 0 126.716990566028 578.9
2  150 4 0 126.716990566028 578.9
0

0101000
+199 39 -197 39 *
Ve
8.4259611861e-05
586 1127.125 578.9
0 0

0101101
*
Ed
 8.4259611861e-05 1 1 0
1  60 0 0 162.975
2  151 28 0 0 162.975
2  152 4 0 0 162.975
0

0101000
+195 39 -197 39 *
Ed
 8.4259611861e-05 1 1 0
1  61 0 0 18
2  153 29 0 0 18
2  154 4 0 0 18
0

0101000
+195 39 -255 12 *
Ed
 8.4259611861e-05 1 1 0
1  62 0 0 18
2  155 44 11 0 18
2  156 4 0 0 18
0

0101000
+250 12 -335 12 *
Wi

0101100
+248 5 -246 5 -244 5 -242 5 +240 5 +238 5 -236 5 +234 5 +232 5 +230 5 
+228 5 -226 5 +224 5 +222 5 +220 5 +218 5 -216 5 +214 5 +212 5 +210 5 
+208 5 +206 5 +204 5 +202 5 +200 5 +198 5 +196 5 -194 5 +193 5 +253 5 
-334 5 -192 5 *
Fa
0  8.4259611861e-05 4 5

0101000
+191 0 *
Ed
 1e-07 1 1 0
1  63 0 0 4
2  157 44 11 0 4
2  158 5 0 0 4
0

0101000
+330 12 -250 12 *
Wi

0101100
-329 1 -333 0 +192 5 +189 5 *
Fa
0  1e-07 52 0

0101000
+188 0 *
Ed
 1e-07 1 1 0
1  64 0 0 4
2  159 5 0 0 4
2  160 7 0 0 4
0

0101000
+328 12 -249 39 *
Wi

0101100
-189 5 -248 5 +186 5 +327 5 *
Fa
0  1e-07 5 5

0101000
+185 0 *
Ed
 1e-07 1 1 0
1  65 0 0 4
2  161 8 0 0 4
2  162 7 0 0 4
0

0101000
+326 12 -247 39 *
Wi

0101100
-325 5 -186 5 +246 5 +183 5 *
Fa
0  1e-07 7 5

0101000
+182 0 *
Ed
 1e-07 1 1 0
1  66 0 0 4
2  163 44 11 0 4
2  164 8 0 0 4
0

0101000
+324 12 -245 12 *
Wi

0101100
-180 5 -244 5 +183 5 +323 5 *
Fa
0  1e-07 8 5

0101000
+179 0 *
Ed
 8.42596122086121e-05 1 1 0
1  67 0 0 3.99999999999985
0

0101000
+322 1 -243 0 *
Wi

0101100
-321 1 -180 5 +242 5 +177 0 *
Fa
0  1e-07 52 0

0101000
+176 0 *
Ed
 8.42596122099832e-05 1 1 0
1  68 0 0 3.99999999999985
0

0101000
+320 0 -241 0 *
Wi

0101100
-319 1 -177 0 -240 5 +174 0 *
Fa
0  1e-07 53 0

0101000
+173 0 *
Ed
 1e-07 1 1 0
1  69 0 0 4
2  165 9 0 0 4
2  166 11 0 0 4
0

0101000
+318 12 -239 39 *
Wi

0101100
-317 5 -171 5 +238 5 +174 0 *
Fa
0  1e-07 9 5

0101000
+170 0 *
Ed
 1.00000032e-07 1 1 0
1  70 0 1.5707963267949 2.11094030447077
2  167 12 40 1.5707963267949 2.11094030447077
2  168 11 0 1.5707963267949 2.11094030447077
0

0101000
+316 12 -237 39 *
Wi

0101100
-168 5 -236 5 +171 5 +315 5 *
Fa
0  1e-07 11 5

0101000
+167 0 *
Ve
5.53059252e-06
442.9 3.88908730122752 10.221825406948
0 0

0101101
*
Ed
 1e-07 1 1 0
1  71 0 15.5 24.2989898732233
3  169 170CN 12 0 15.5 24.2989898732233
0

0101000
+165 22 -233 22 *
Ve
8.42596121697973e-05
437.399999999999 3.88908730122752 18
0 0

0101101
*
Ed
 5.53059249e-06 1 1 0
1  72 0 4.71238898038469 6.28318530717959
2  171 45 6 4.71238898038469 6.28318530717959
2  172 12 0 4.71238898038469 6.28318530717959
0

0101000
+163 22 -165 22 *
Ve
8.4309612861e-05
440.502084238343 10.8890873012275 18.0000000000001
0 0

0101101
*
Ed
 8.42596121697973e-05 1 1 0
1  73 0 6.73431744342181 7.85398163397448
2  173 54 6 6.73431744342181 7.85398163397448
2  174 12 0 6.73431744342181 7.85398163397448
2  175 55 42 6.73431744342181 7.85398163397448
2  176 55 36 6.73431744342181 7.85398163397448
0

0101000
+161 22 -163 22 *
Ve
8.4309612861e-05
445.297915761656 10.8890873012275 18.0000000000001
0 0

0101101
*
Ed
 5.53059249710543e-06 1 1 0
1  29 0 5.83205317093736 6.73431744342181
2  63 2 36 5.83205317093736 6.73431744342181
2  64 32 37 5.83205317093736 6.73431744342181
2  65 32 38 5.83205317093736 6.73431744342181
2  177 12 44 5.83205317093736 6.73431744342181
0

0101000
+159 38 -161 38 *
Ve
8.42596121697973e-05
448.400000000001 3.88908730122752 18
0 0

0101101
*
Ed
 8.42596121697973e-05 1 1 0
1  73 0 4.71238898038469 5.83205317093736
2  173 54 6 4.71238898038469 5.83205317093736
2  174 12 0 4.71238898038469 5.83205317093736
2  175 55 42 4.71238898038469 5.83205317093736
2  176 55 36 4.71238898038469 5.83205317093736
0

0101000
+157 22 -159 22 *
Ed
 5.53059249e-06 1 1 0
1  74 0 0 1.5707963267949
2  178 45 6 0 1.5707963267949
2  179 12 0 0 1.5707963267949
0

0101000
+165 22 -157 22 *
Ed
 1.00000032e-07 1 1 0
1  75 0 4.17224500270882 4.71238898038469
2  180 12 40 4.17224500270882 4.71238898038469
2  181 14 0 4.17224500270882 4.71238898038469
0

0101000
+229 39 -314 12 *
Wi

0101100
-313 16 -168 5 -234 5 -232 5 +164 16 +162 16 +160 16 +158 43 +156 16 +155 16 
-164 16 -230 5 -228 5 -154 5 *
Fa
0  1e-07 12 16

0101000
+153 0 *
Ed
 1.00000029e-07 1 1 0
1  76 0 1.5707963267949 2.11094030447077
2  182 15 40 1.5707963267949 2.11094030447077
2  183 14 0 1.5707963267949 2.11094030447077
0

0101000
+312 12 -227 39 *
Wi

0101100
-151 5 -226 5 -154 5 +311 5 *
Fa
0  1e-07 14 5

0101000
+150 0 *
Ve
5.530592521e-06
500.9 3.88908730122752 10.221825406948
0 0

0101101
*
Ed
 1e-07 1 1 0
1  77 0 15.5 24.2989898732233
3  184 185CN 15 0 15.5 24.2989898732233
0

0101000
+148 22 -223 22 *
Ve
8.42596121697973e-05
495.399999999999 3.88908730122752 18
0 0

0101101
*
Ed
 5.53059249e-06 1 1 0
1  78 0 4.71238898038469 6.28318530717959
2  186 45 6 4.71238898038469 6.28318530717959
2  187 15 0 4.71238898038469 6.28318530717959
0

0101000
+146 22 -148 22 *
Ve
8.4309612861e-05
498.502084238343 10.8890873012274 18.0000000000001
0 0

0101101
*
Ed
 8.42596121697973e-05 1 1 0
1  79 0 6.73431744342181 7.85398163397448
2  188 54 6 6.73431744342181 7.85398163397448
2  189 15 0 6.73431744342181 7.85398163397448
2  190 56 42 6.73431744342181 7.85398163397448
2  191 56 36 6.73431744342181 7.85398163397448
0

0101000
+144 22 -146 22 *
Ve
8.4309612861e-05
503.297915761656 10.8890873012275 18.0000000000001
0 0

0101101
*
Ed
 5.53059249710543e-06 1 1 0
1  32 0 5.83205317093736 6.73431744342181
2  72 2 36 5.83205317093736 6.73431744342181
2  73 35 37 5.83205317093736 6.73431744342181
2  74 35 38 5.83205317093736 6.73431744342181
2  192 15 44 5.83205317093736 6.73431744342181
0

0101000
+142 38 -144 38 *
Ve
8.42596121697973e-05
506.400000000001 3.88908730122752 18
0 0

0101101
*
Ed
 8.42596121697973e-05 1 1 0
1  79 0 4.71238898038469 5.83205317093736
2  188 54 6 4.71238898038469 5.83205317093736
2  189 15 0 4.71238898038469 5.83205317093736
2  190 56 42 4.71238898038469 5.83205317093736
2  191 56 36 4.71238898038469 5.83205317093736
0

0101000
+140 22 -142 22 *
Ed
 5.53059249e-06 1 1 0
1  80 0 0 1.5707963267949
2  193 45 6 0 1.5707963267949
2  194 15 0 0 1.5707963267949
0

0101000
+148 22 -140 22 *
Ed
 1.00000029e-07 1 1 0
1  81 0 4.17224500270882 4.71238898038469
2  195 15 40 4.17224500270882 4.71238898038469
2  196 17 0 4.17224500270882 4.71238898038469
0

0101000
+219 39 -310 12 *
Wi

0101100
-309 16 -151 5 -224 5 -222 5 +147 16 +145 16 +143 16 +141 43 +139 16 +138 16 
-147 16 -220 5 -218 5 -137 5 *
Fa
0  1e-07 15 16

0101000
+136 0 *
Ed
 1e-07 1 1 0
1  82 0 0 4
2  197 17 0 0 4
2  198 18 0 0 4
0

0101000
+308 12 -217 39 *
Wi

0101100
-134 5 -216 5 -137 5 +307 5 *
Fa
0  1e-07 17 5

0101000
+133 0 *
Ed
 1e-07 1 1 0
1  83 0 0 4
2  199 18 0 0 4
2  200 19 0 0 4
0

0101000
+306 12 -215 39 *
Wi

0101100
-305 5 -131 5 +214 5 +134 5 *
Fa
0  1e-07 18 5

0101000
+130 0 *
Ed
 1.00000116e-07 1 1 0
1  84 0 4.17224500270847 4.71238898038469
2  201 20 40 4.17224500270847 4.71238898038469
2  202 19 0 4.17224500270847 4.71238898038469
0

0101000
+213 39 -304 12 *
Wi

0101100
-131 5 -212 5 -128 5 +303 5 *
Fa
0  1e-07 19 5

0101000
+127 0 *
Ve
8.4309612861e-05
530.502084238344 1304.98908730123 18.0000000000001
0 0

0101101
*
Ve
5.53059249e-06
532.9 1304.21091270818 18
0 0

0101101
*
Ed
 5.53059249e-06 1 1 0
1  38 0 5.83205317093739 6.28318530717959
2  90 2 36 5.83205317093739 6.28318530717959
2  91 41 37 5.83205317093739 6.28318530717959
2  92 41 38 5.83205317093739 6.28318530717959
2  203 20 44 5.83205317093739 6.28318530717959
0

0101000
+125 38 -124 38 *
Ve
8.42596121697973e-05
527.400000000021 1311.98908730123 18
0 0

0101101
*
Ed
 8.42596121697973e-05 1 1 0
1  85 0 4.71238898038469 5.83205317093739
2  204 54 6 4.71238898038469 5.83205317093739
2  205 20 0 4.71238898038469 5.83205317093739
2  206 57 42 4.71238898038469 5.83205317093739
2  207 57 36 4.71238898038469 5.83205317093739
0

0101000
+122 22 -125 22 *
Ve
8.42596121697973e-05
538.399999999979 1311.98908730123 18
0 0

0101101
*
Ed
 5.53059249e-06 1 1 0
1  86 0 4.71238898038469 7.85398163397448
2  208 3 6 4.71238898038469 7.85398163397448
2  209 20 0 4.71238898038469 7.85398163397448
0

0101000
+120 22 -122 22 *
Ve
8.4309612861e-05
535.297915761656 1304.98908730123 18.0000000000001
0 0

0101101
*
Ed
 8.42596121697973e-05 1 1 0
1  87 0 0.451132136242214 1.5707963267949
2  210 54 6 0.451132136242214 1.5707963267949
2  211 20 0 0.451132136242214 1.5707963267949
2  212 58 42 0.451132136242214 1.5707963267949
2  213 58 36 0.451132136242214 1.5707963267949
0

0101000
+118 22 -120 22 *
Ed
 5.53059249e-06 1 1 0
1  37 0 0 0.451132136242214
2  87 2 36 0 0.451132136242214
2  88 40 37 0 0.451132136242214
2  89 40 38 0 0.451132136242214
2  214 20 44 0 0.451132136242214
0

0101000
+124 38 -118 38 *
Ed
 1e-07 1 1 0
1  88 0 15.5 40.9558441227157
3  215 216CN 20 0 15.5 40.9558441227157
0

0101000
+124 22 -302 22 *
Ed
 1.00000115e-07 1 1 0
1  89 0 1.5707963267949 2.11094030447111
2  217 20 40 1.5707963267949 2.11094030447111
2  218 23 0 1.5707963267949 2.11094030447111
0

0101000
+300 12 -207 39 *
Wi

0101100
+123 43 +121 16 +119 16 +117 16 +116 43 -115 16 -301 16 +128 5 -210 5 -208 5 
-206 5 +114 5 -299 16 +115 16 *
Fa
0  1e-07 20 16

0101000
+113 0 *
Ed
 1.00000115e-07 1 1 0
1  90 0 4.17224500270847 4.71238898038469
2  219 24 40 4.17224500270847 4.71238898038469
2  220 23 0 4.17224500270847 4.71238898038469
0

0101000
+205 39 -298 12 *
Wi

0101100
-114 5 -204 5 -111 5 +297 5 *
Fa
0  1e-07 23 5

0101000
+110 0 *
Ve
8.4309612861e-05
472.502084238344 1304.98908730123 18.0000000000001
0 0

0101101
*
Ve
5.53059254684342e-06
474.9 1304.21091270818 18
0 0

0101101
*
Ed
 5.53059254684342e-06 1 1 0
1  35 0 5.83205317093738 6.28318530717959
2  81 2 36 5.83205317093738 6.28318530717959
2  82 38 37 5.83205317093738 6.28318530717959
2  83 38 38 5.83205317093738 6.28318530717959
2  221 24 44 5.83205317093738 6.28318530717959
0

0101000
+108 38 -107 38 *
Ve
8.42596121697973e-05
469.400000000021 1311.98908730123 18
0 0

0101101
*
Ed
 8.42596121697973e-05 1 1 0
1  91 0 4.71238898038469 5.83205317093738
2  222 54 6 4.71238898038469 5.83205317093738
2  223 24 0 4.71238898038469 5.83205317093738
2  224 59 42 4.71238898038469 5.83205317093738
2  225 59 36 4.71238898038469 5.83205317093738
0

0101000
+105 22 -108 22 *
Ve
8.42596121697973e-05
480.399999999979 1311.98908730123 18
0 0

0101101
*
Ed
 5.53059249e-06 1 1 0
1  92 0 4.71238898038469 7.85398163397448
2  226 3 6 4.71238898038469 7.85398163397448
2  227 24 0 4.71238898038469 7.85398163397448
0

0101000
+103 22 -105 22 *
Ve
8.4309612861e-05
477.297915761656 1304.98908730123 18.0000000000001
0 0

0101101
*
Ed
 8.42596121697973e-05 1 1 0
1  93 0 0.451132136242208 1.5707963267949
2  228 54 6 0.451132136242208 1.5707963267949
2  229 24 0 0.451132136242208 1.5707963267949
2  230 60 42 0.451132136242208 1.5707963267949
2  231 60 36 0.451132136242208 1.5707963267949
0

0101000
+101 22 -103 22 *
Ed
 5.53059254684342e-06 1 1 0
1  34 0 0 0.451132136242208
2  78 2 36 0 0.451132136242208
2  79 37 37 0 0.451132136242208
2  80 37 38 0 0.451132136242208
2  232 24 44 0 0.451132136242208
0

0101000
+107 38 -101 38 *
Ed
 1e-07 1 1 0
1  94 0 15.5 40.9558441227157
3  233 234CN 24 0 15.5 40.9558441227157
0

0101000
+107 22 -296 22 *
Ed
 1.00000115e-07 1 1 0
1  95 0 1.5707963267949 2.11094030447111
2  235 24 40 1.5707963267949 2.11094030447111
2  236 27 0 1.5707963267949 2.11094030447111
0

0101000
+294 12 -199 39 *
Wi

0101100
+106 43 +104 16 +102 16 +100 16 +99 43 -98 16 -295 16 +111 5 -202 5 -200 5 
-198 5 +97 5 -293 16 +98 16 *
Fa
0  1e-07 24 16

0101000
+96 0 *
Ed
 1e-07 1 1 0
1  96 0 0 4
2  237 27 0 0 4
2  238 28 0 0 4
0

0101000
+292 12 -197 39 *
Wi

0101100
-97 5 -196 5 +94 5 +291 5 *
Fa
0  1e-07 27 5

0101000
+93 0 *
Ed
 1e-07 1 1 0
1  97 0 0 4
2  239 29 0 0 4
2  240 28 0 0 4
0

0101000
+290 12 -195 39 *
Wi

0101100
-289 5 -94 5 +194 5 +91 5 *
Fa
0  1e-07 28 5

0101000
+90 0 *
Wi

0101100
-91 5 -193 5 +254 0 +287 5 *
Fa
0  1e-07 29 5

0101000
+88 0 *
Ed
 8.4309612861e-05 1 1 0
1  98 0 0 3.99999999999989
2  241 30 0 0 3.99999999999989
2  242 32 0 0 3.99999999999989
0

0101000
+283 1 -231 0 *
Ed
 8.4259611861e-05 1 1 0
1  99 0 0 3.99999999999977
2  243 30 0 0 3.99999999999977
2  244 31 0 0 3.99999999999977
4 C2 30 0 31 0
0

0101000
+284 1 -233 0 *
Wi

0101100
-282 30 -86 0 +230 5 +85 0 *
Fa
0  8.4259611861e-05 30 0

0101000
+84 0 *
Ed
 8.4309612861e-05 1 1 0
1  100 0 0 3.99999999999989
2  245 31 0 0 3.99999999999989
2  246 32 0 0 3.99999999999989
0

0101000
+281 1 -235 0 *
Wi

0101100
-280 30 -85 0 +232 5 +82 0 *
Fa
0  8.4259611861e-05 31 0

0101000
+81 0 *
Ed
 8.4309612861e-05 1 1 0
1  98 0 3.99999999999989 18
2  241 30 0 3.99999999999989 18
2  242 32 0 3.99999999999989 18
0

0101000
+231 0 -159 0 *
Ed
 8.4309612861e-05 1 1 0
1  100 0 3.99999999999989 18
2  245 31 0 3.99999999999989 18
2  246 32 0 3.99999999999989 18
0

0101000
+235 0 -161 0 *
Wi

0101100
+86 0 +79 0 -82 0 -78 0 -279 35 +158 43 *
Fa
0  5.53059249e-06 32 0

0101000
+77 0 *
Ed
 8.4309612861e-05 1 1 0
1  101 0 0 3.99999999999989
2  247 33 0 0 3.99999999999989
2  248 35 0 0 3.99999999999989
0

0101000
+276 1 -221 0 *
Ed
 8.4259611861e-05 1 1 0
1  102 0 0 3.99999999999977
2  249 33 0 0 3.99999999999977
2  250 34 0 0 3.99999999999977
4 C2 33 0 34 0
0

0101000
+277 1 -223 0 *
Wi

0101100
-275 30 -75 0 +220 5 +74 0 *
Fa
0  8.4259611861e-05 33 0

0101000
+73 0 *
Ed
 8.4309612861e-05 1 1 0
1  103 0 0 3.99999999999989
2  251 34 0 0 3.99999999999989
2  252 35 0 0 3.99999999999989
0

0101000
+274 1 -225 0 *
Wi

0101100
-273 30 -74 0 +222 5 +71 0 *
Fa
0  8.4259611861e-05 34 0

0101000
+70 0 *
Ed
 8.4309612861e-05 1 1 0
1  101 0 3.99999999999989 18
2  247 33 0 3.99999999999989 18
2  248 35 0 3.99999999999989 18
0

0101000
+221 0 -142 0 *
Ed
 8.4309612861e-05 1 1 0
1  103 0 3.99999999999989 18
2  251 34 0 3.99999999999989 18
2  252 35 0 3.99999999999989 18
0

0101000
+225 0 -144 0 *
Wi

0101100
+75 0 +68 0 -71 0 -67 0 -272 35 +141 43 *
Fa
0  5.53059249e-06 35 0

0101000
+66 0 *
Ed
 8.4309612861e-05 1 1 0
1  104 0 0 3.99999999999989
2  253 36 0 0 3.99999999999989
2  254 38 0 0 3.99999999999989
0

0101000
+269 1 -201 0 *
Ed
 8.4309612861e-05 1 1 0
1  105 0 0 3.99999999999989
2  255 36 0 0 3.99999999999989
2  256 37 0 0 3.99999999999989
0

0101000
+270 1 -203 0 *
Wi

0101100
-268 30 -64 0 +200 5 +63 0 *
Fa
0  8.4259611861e-05 36 0

0101000
+62 0 *
Ed
 5.53059249e-06 1 1 0
1  106 0 0 18
2  257 37 0 0 18
2  258 38 0 0 18
4 C2 37 0 38 0
0

0101000
+267 1 -107 0 *
Ed
 8.4309612861e-05 1 1 0
1  105 0 3.99999999999989 18
2  255 36 0 3.99999999999989 18
2  256 37 0 3.99999999999989 18
0

0101000
+203 0 -101 0 *
Wi

0101100
+60 0 -63 0 -59 0 -266 35 +99 43 *
Fa
0  5.53059249e-06 37 0

0101000
+58 0 *
Ed
 8.4309612861e-05 1 1 0
1  104 0 3.99999999999989 18
2  253 36 0 3.99999999999989 18
2  254 38 0 3.99999999999989 18
0

0101000
+201 0 -108 0 *
Wi

0101100
+64 0 +56 0 -60 0 -265 35 +106 43 *
Fa
0  5.53059249e-06 38 0

0101000
+55 0 *
Ed
 8.4309612861e-05 1 1 0
1  107 0 0 3.99999999999989
2  259 39 0 0 3.99999999999989
2  260 41 0 0 3.99999999999989
0

0101000
+262 1 -209 0 *
Ed
 8.4309612861e-05 1 1 0
1  108 0 0 3.99999999999989
2  261 39 0 0 3.99999999999989
2  262 40 0 0 3.99999999999989
0

0101000
+263 1 -211 0 *
Wi

0101100
-261 30 -53 0 +208 5 +52 0 *
Fa
0  8.4259611861e-05 39 0

0101000
+51 0 *
Ed
 5.53059249e-06 1 1 0
1  109 0 0 18
2  263 40 0 0 18
2  264 41 0 0 18
4 C2 40 0 41 0
0

0101000
+260 1 -124 0 *
Ed
 8.4309612861e-05 1 1 0
1  108 0 3.99999999999989 18
2  261 39 0 3.99999999999989 18
2  262 40 0 3.99999999999989 18
0

0101000
+211 0 -118 0 *
Wi

0101100
+49 0 -52 0 -48 0 -259 35 +116 43 *
Fa
0  5.53059249e-06 40 0

0101000
+47 0 *
Ed
 8.4309612861e-05 1 1 0
1  107 0 3.99999999999989 18
2  259 39 0 3.99999999999989 18
2  260 41 0 3.99999999999989 18
0

0101000
+209 0 -125 0 *
Wi

0101100
+53 0 +45 0 -49 0 -258 35 +123 43 *
Fa
0  5.53059249e-06 41 0

0101000
+44 0 *
Ed
 8.42596121342702e-05 1 1 0
1  9 0 240.549999999999 251.550000000001
2  11 2 0 240.549999999999 251.550000000001
0

0101000
+163 46 -157 46 *
Wi

0101100
-162 16 -155 16 +42 45 *
Fa
0  1e-07 53 0

0101000
+41 0 *
Ed
 8.42596121342702e-05 1 1 0
1  28 0 2.69046051734757 3.14159265358979
2  60 2 31 2.69046051734757 3.14159265358979
2  61 31 32 2.69046051734757 3.14159265358979
2  62 31 34 2.69046051734757 3.14159265358979
0

0101000
+161 34 -284 31 *
Ed
 8.42596121342702e-05 1 1 0
1  27 0 3.14159265358979 3.59272478983201
2  57 2 31 3.14159265358979 3.59272478983201
2  58 30 32 3.14159265358979 3.59272478983201
2  59 30 34 3.14159265358979 3.59272478983201
0

0101000
+284 31 -159 34 *
Wi

0101100
+42 45 +160 16 -39 47 -38 47 +156 16 *
Fa
0  8.42596121342702e-05 2 45

0101000
+37 0 *
Ed
 8.42596121342702e-05 1 1 0
1  9 0 298.549999999999 309.550000000001
2  11 2 0 298.549999999999 309.550000000001
0

0101000
+146 46 -140 46 *
Wi

0101100
+35 45 -145 16 -138 16 *
Fa
0  1e-07 53 0

0101000
+34 0 *
Ed
 8.42596121342702e-05 1 1 0
1  31 0 2.69046051734757 3.14159265358979
2  69 2 31 2.69046051734757 3.14159265358979
2  70 34 32 2.69046051734757 3.14159265358979
2  71 34 34 2.69046051734757 3.14159265358979
0

0101000
+144 34 -277 31 *
Ed
 8.42596121342702e-05 1 1 0
1  30 0 3.14159265358979 3.59272478983201
2  66 2 31 3.14159265358979 3.59272478983201
2  67 33 32 3.14159265358979 3.59272478983201
2  68 33 34 3.14159265358979 3.59272478983201
0

0101000
+277 31 -142 34 *
Wi

0101100
+35 45 +143 16 -32 47 -31 47 +139 16 *
Fa
0  8.42596121342702e-05 2 45

0101000
+30 0 *
Ed
 8.42596121342702e-05 1 1 0
1  36 0 2.69046051734758 3.59272478983199
2  84 2 31 2.69046051734758 3.59272478983199
2  85 39 32 2.69046051734758 3.59272478983199
2  86 39 34 2.69046051734758 3.59272478983199
0

0101000
+118 34 -125 34 *
Ed
 8.42596121342702e-05 1 1 0
1  1 0 58.5000000000213 69.4999999999789
2  1 2 0 58.5000000000213 69.4999999999789
0

0101000
+120 46 -122 46 *
Wi

0101100
+117 16 -28 47 +121 16 +27 45 *
Fa
0  8.42596121342702e-05 2 45

0101000
+26 0 *
Wi

0101100
-119 16 +27 45 *
Fa
0  1e-07 1 0

0101000
+24 0 *
Ed
 8.42596121342702e-05 1 1 0
1  33 0 2.69046051734754 3.592724789832
2  75 2 31 2.69046051734754 3.592724789832
2  76 36 32 2.69046051734754 3.592724789832
2  77 36 34 2.69046051734754 3.592724789832
0

0101000
+101 34 -108 34 *
Ed
 8.42596121342702e-05 1 1 0
1  1 0 116.500000000021 127.499999999979
2  1 2 0 116.500000000021 127.499999999979
0

0101000
+103 46 -105 46 *
Wi

0101100
+100 16 -22 47 +104 16 +21 45 *
Fa
0  8.42596121342702e-05 2 45

0101000
+20 0 *
Wi

0101100
+21 45 -102 16 *
Fa
0  1e-07 1 0

0101000
+18 0 *
Ed
 8.4259611861e-05 1 1 0
1  99 0 3.99999999999977 18
2  243 30 0 3.99999999999977 18
2  244 31 0 3.99999999999977 18
4 C2 30 0 31 0
0

0101000
+233 0 -284 45 *
Wi

0101100
-230 5 -79 0 +38 47 +16 0 *
Fa
0  8.4259611861e-05 30 0

0101000
+15 0 *
Wi

0101100
-232 5 -16 0 +39 47 +78 0 *
Fa
0  8.4259611861e-05 31 0

0101000
+13 0 *
Ed
 8.4259611861e-05 1 1 0
1  102 0 3.99999999999977 18
2  249 33 0 3.99999999999977 18
2  250 34 0 3.99999999999977 18
4 C2 33 0 34 0
0

0101000
+223 0 -277 45 *
Wi

0101100
-220 5 -68 0 +31 47 +11 0 *
Fa
0  8.4259611861e-05 33 0

0101000
+10 0 *
Wi

0101100
-222 5 -11 0 +32 47 +67 0 *
Fa
0  8.4259611861e-05 34 0

0101000
+8 0 *
Wi

0101100
-200 5 -56 0 +22 47 +59 0 *
Fa
0  8.4259611861e-05 36 0

0101000
+6 0 *
Wi

0101100
-208 5 -45 0 +28 47 +48 0 *
Fa
0  8.4259611861e-05 39 0

0101000
+4 0 *
Sh

0101100
-331 0 -256 0 -251 0 -190 0 -187 0 -184 0 -181 0 +178 0 -175 0 -172 0 
+169 0 +166 0 -152 0 +149 0 -135 0 +132 0 +129 0 -126 0 -112 0 -109 0 
-95 0 -92 0 -89 0 -87 0 +83 0 +80 0 +76 0 +72 0 +69 0 +65 0 
+61 0 +57 0 +54 0 +50 0 +46 0 +43 0 -40 0 +36 0 -33 0 +29 0 
+25 0 -23 0 +19 0 -17 0 +14 0 +12 0 +9 0 +7 0 +5 0 +3 0 
*
So

0100000
+2 0 *

+1 0 