DBRep_DrawableShape

CASCADE Topology V1, (c) Matra-Datavision
Locations 86
1
              1               0               0               0 
              0               1               0               0 
              0               0               1               0 
1
1.11022302462516e-16               0              -1               0 
              0               1               0               0 
              1               0 1.11022302462516e-16               0 
1
              1               0               0           596.9 
              0               1               0 3.88908730122752 
              0               0               1            -582 
2  1 1 2 1 3 1 0
1
              1               0               0               0 
              0               1               0               0 
              0               0               1               0 
1
              1               0               0               0 
              0               1               0               0 
              0               0               1               0 
1
              1               0               0               0 
              0               1               0               0 
              0               0               1               0 
1
              1               0               0               0 
              0               1               0               0 
              0               0               1               0 
1
              1               0               0               0 
              0               1               0               0 
              0               0               1               0 
2  5 1 6 1 7 1 8 1 9 1 0
2  1 -1 9 -1 8 -1 7 -1 6 -1 5 -1 0
2  1 -1 0
1
              1               0               0              18 
              0               1               0               0 
              0               0               1               0 
2  13 1 5 1 6 1 7 1 8 1 9 1 0
2  13 -1 0
2  1 -1 9 -1 8 -1 7 -1 6 -1 5 -1 13 -1 0
2  5 1 6 1 7 1 8 1 0
2  6 1 7 1 8 1 0
1
              1               0               0               0 
              0               1               0               0 
              0               0               1             -18 
2  19 -1 3 -1 2 -1 1 -1 9 -1 8 -1 7 -1 6 -1 0
1
              1               0               0               0 
              0               1               0               0 
              0               0               1               1 
2  21 -1 19 -1 3 -1 2 -1 1 -1 9 -1 8 -1 7 -1 6 -1 0
2  1 -1 9 -1 8 -1 7 -1 6 -1 0
2  7 1 8 1 0
2  5 1 6 1 0
2  1 -1 9 -1 8 -1 7 -1 0
2  6 1 7 1 8 1 9 1 0
2  13 1 5 1 0
1
              1               0               0               0 
              0               1               0               0 
              0               0               1              -0 
2  29 -1 3 -1 2 -1 1 -1 9 -1 8 -1 7 -1 6 -1 0
1
              1               0               0               0 
              0               1               0               0 
              0               0               1               1 
2  31 -1 29 -1 3 -1 2 -1 1 -1 9 -1 8 -1 7 -1 6 -1 0
1
              1               0               0               0 
              0               1               0               0 
              0               0               1 -3.99999999999977 
2  33 -1 3 -1 2 -1 1 -1 0
1
              1               0               0               0 
              0               1               0               0 
              0               0               1               1 
2  35 -1 33 -1 3 -1 2 -1 1 -1 0
2  9 -1 8 -1 7 -1 6 -1 5 -1 0
2  7 1 8 1 9 1 0
2  8 1 9 1 0
2  13 1 5 1 6 1 7 1 0
2  1 -1 9 -1 8 -1 0
2  13 1 5 1 6 1 0
1
              1               0               0               0 
              0               1               0               0 
              0               0               1              -3 
2  43 -1 3 -1 2 -1 1 -1 9 -1 8 -1 7 -1 0
1
              1               0               0               0 
              0               1               0               0 
              0               0               1               1 
2  45 -1 43 -1 3 -1 2 -1 1 -1 9 -1 8 -1 7 -1 0
1
              1               0               0               0 
              0               1               0               0 
              0               0               1              -3 
2  47 -1 3 -1 2 -1 1 -1 9 -1 8 -1 7 -1 0
1
              1               0               0               0 
              0               1               0               0 
              0               0               1               1 
2  49 -1 47 -1 3 -1 2 -1 1 -1 9 -1 8 -1 7 -1 0
1
              1               0               0               0 
              0               1               0               0 
              0               0               1              -1 
2  51 -1 3 -1 2 -1 1 -1 9 -1 8 -1 0
1
              1               0               0               0 
              0               1               0               0 
              0               0               1               1 
2  53 -1 51 -1 3 -1 2 -1 1 -1 9 -1 8 -1 0
1
              1               0               0               0 
              0               1               0               0 
              0               0               1             -13 
2  55 -1 3 -1 2 -1 1 -1 9 -1 8 -1 7 -1 6 -1 0
1
              1               0               0               0 
              0               1               0               0 
              0               0               1               1 
2  57 -1 55 -1 3 -1 2 -1 1 -1 9 -1 8 -1 7 -1 6 -1 0
1
              1               0               0               0 
              0               1               0               0 
              0               0               1             -13 
2  59 -1 3 -1 2 -1 1 -1 9 -1 8 -1 7 -1 6 -1 0
1
              1               0               0               0 
              0               1               0               0 
              0               0               1               1 
2  61 -1 59 -1 3 -1 2 -1 1 -1 9 -1 8 -1 7 -1 6 -1 0
1
              1               0               0               0 
              0               1               0               0 
              0               0               1             -13 
2  63 -1 3 -1 2 -1 1 -1 9 -1 8 -1 7 -1 6 -1 0
1
              1               0               0               0 
              0               1               0               0 
              0               0               1               1 
2  65 -1 63 -1 3 -1 2 -1 1 -1 9 -1 8 -1 7 -1 6 -1 0
1
              1               0               0               0 
              0               1               0               0 
              0               0               1             -13 
2  67 -1 3 -1 2 -1 1 -1 9 -1 8 -1 7 -1 6 -1 0
1
              1               0               0               0 
              0               1               0               0 
              0               0               1               1 
2  69 -1 67 -1 3 -1 2 -1 1 -1 9 -1 8 -1 7 -1 6 -1 0
1
              1               0               0               0 
              0               1               0               0 
              0               0               1              -1 
2  71 -1 3 -1 2 -1 1 -1 9 -1 8 -1 0
1
              1               0               0               0 
              0               1               0               0 
              0               0               1               1 
2  73 -1 71 -1 3 -1 2 -1 1 -1 9 -1 8 -1 0
1
              1               0               0               0 
              0               1               0               0 
              0               0               1              -1 
2  75 -1 3 -1 2 -1 1 -1 9 -1 8 -1 0
1
              1               0               0               0 
              0               1               0               0 
              0               0               1               1 
2  77 -1 75 -1 3 -1 2 -1 1 -1 9 -1 8 -1 0
1
              1               0               0               0 
              0               1               0               0 
              0               0               1             -13 
2  79 -1 3 -1 2 -1 1 -1 9 -1 8 -1 7 -1 6 -1 0
1
              1               0               0               0 
              0               1               0               0 
              0               0               1               1 
2  81 -1 79 -1 3 -1 2 -1 1 -1 9 -1 8 -1 7 -1 6 -1 0
1
              1               0               0               0 
              0               1               0               0 
              0               0               1             -13 
2  83 -1 3 -1 2 -1 1 -1 9 -1 8 -1 7 -1 6 -1 0
1
              1               0               0               0 
              0               1               0               0 
              0               0               1               1 
2  85 -1 83 -1 3 -1 2 -1 1 -1 9 -1 8 -1 7 -1 6 -1 0
Curve2ds 324
1 0 0 1 0 
1 -257.98412378671179 689.09093437701847 0 -1 
1 1308.0999999999999 0 0 -1 
1 0 0 0 -1 
1 1290.0999999999999 -14 1 0 
1 161.1855311784123 -549.65438756838319 0 -1 
1 1290.0999999999999 -18 0 1 
1 0 0 0 1 
1 0 -18 1 0 
1 -257.98412378671179 689.09093437701847 0 -1 
1 18 -18 0 1 
1 0 0 0 1 
1 0 -14 1 0 
1 161.1855311784123 740.44561243161672 0 -1 
1 0 0 0 -1 
1 400.05000000000001 0 0 -1 
3 -161.98412378671179 689.09093437701847 0 -1 1 0 7.7781745930520225 5.5
7 0 0  8 30 5  0 4.5  0.19634954084936207 4.5  0.3926990816974012 4.742334267921251  0.58904862255030821 5.2270007451297715  0.78539816339161916 5.9340768718138861  0.98174770424930102 6.8236770633375272  1.1780972450948184 7.8401547942430625  1.3744467859455343 8.920077525328507  1.7180584824319181 10.809941856003615  1.8653206380690535 11.619883415588889  2.0125827937062155 12.403061666176654  2.1598449493433236 13.132706152780884  2.3071071049802612 13.783917204162947  2.4543692606170815 14.335497736493124  2.6016314162540466 14.771386099340463  2.9697868053466006 15.546264423019501  3.1906800388010197 15.727833439043025  3.4115732722566463 15.591479623566556  3.6324665057254606 15.132115552638425  3.8533597391615331 14.379598189108947  4.0742529726226167 13.39629945438719  4.2951462060797949 12.26456534661494  4.7369326729908598 9.8814281955624743  4.9578259064464874 8.6300238332496519  5.1787191398980212 7.4073871230866644  5.3996123733377317 6.308310308635555  5.6205056068174599 5.4201077384677774  5.8413988402662653 4.8067047440017632  6.0622920737240431 4.5000000000000009  6.2831853071795756 4.5 
 3.1415926535897931 9 4.7123889803846879 7 5.8904862254808563 7 7.6576320931251178 7 9.4247779607693793 9
1 0 0 1 0 
1 0 -1 1 0 
1 142.06587621328822 689.09093437701847 -1 -0 
1 0 0 1 0 
1 -257.98412378671179 -619.00906562298144 1 0 
1 0 0 1 0 
3 -193.98412378671179 -619.00906562298144 0 1 -1 0 7.7781745930519719 5.5
7 0 0  8 30 5  0 15.5  0.19634954084936207 15.5  0.39269908169762857 15.257665732073292  0.58904862254848922 14.772999254826573  0.78539816339616664 14.065923128160648  0.9817477042452083 13.176322936604265  1.1780972450957279 12.159845205751481  1.3744467859455138 11.079922474671605  1.7180584824318974 9.1900581439964952  1.8653206380684941 8.3801165844099454  2.0125827937066489 7.5969383338267278  2.1598449493428689 6.8672938472222995  2.3071071049791527 6.216082795837309  2.4543692606174208 5.6645022635074227  2.6016314162540382 5.2286139006596812  2.9697868053465921 4.453735576980641  3.1906800388010197 4.2721665609587944  3.4115732722548273 4.4085203763715981  3.6324665056963568 4.8678844473615754  3.85335973916699 5.6204018108437594  4.0742529726226167 6.6037005456237239  4.2951462060798171 7.7354346533851848  4.7369326729908821 10.11857180443765  4.9578259064437589 11.369976166730339  5.1787191398980212 12.592612876942439  5.3996123733522836 13.691689691317151  5.620505606810184 14.579892261543137  5.8413988402644463 15.193295255981866  6.0622920737240431 15.5  6.2831853071795756 15.5 
 0 9 1.5707963267948961 7 2.7488935718910681 7 4.5160394395353265 7 6.2831853071795862 9
1 0 0 1 0 
1 0 -1 1 0 
3 -193.98412378671179 -619.00906562298144 0 1 -1 0 7.7781745930519719 5.5
7 0 0  8 30 5  0 15.5  0.19634954084936207 15.5  0.39269908169762857 15.257665732073292  0.58904862254848922 14.772999254826573  0.78539816339616664 14.065923128160648  0.9817477042452083 13.176322936604265  1.1780972450957279 12.159845205751481  1.3744467859455138 11.079922474671605  1.7180584824318974 9.1900581439964952  1.8653206380684941 8.3801165844099454  2.0125827937066489 7.5969383338267278  2.1598449493428689 6.8672938472222995  2.3071071049791527 6.216082795837309  2.4543692606174208 5.6645022635074227  2.6016314162540382 5.2286139006596812  2.9697868053465921 4.453735576980641  3.1906800388010197 4.2721665609587944  3.4115732722548273 4.4085203763715981  3.6324665056963568 4.8678844473615754  3.85335973916699 5.6204018108437594  4.0742529726226167 6.6037005456237239  4.2951462060798171 7.7354346533851848  4.7369326729908821 10.11857180443765  4.9578259064437589 11.369976166730339  5.1787191398980212 12.592612876942439  5.3996123733522836 13.691689691317151  5.620505606810184 14.579892261543137  5.8413988402644463 15.193295255981866  6.0622920737240431 15.5  6.2831853071795756 15.5 
 0 9 1.5707963267948961 7 2.7488935718910681 7 4.5160394395353265 7 6.2831853071795862 9
1 0 0 1 0 
1 0 -1 1 0 
1 -257.98412378671179 -619.00906562298144 1 0 
1 0 0 1 0 
3 -135.98412378671179 -619.00906562298144 0 1 -1 0 7.7781745930519719 5.5
7 0 0  8 30 5  0 15.5  0.19634954084936207 15.5  0.39269908169887913 15.257665732073292  0.58904862254803447 14.772999254826573  0.78539816339707613 14.065923128160648  0.98174770424566304 13.176322936604265  1.1780972450965237 12.159845205751481  1.3744467859455138 11.079922474671605  1.7180584824318974 9.1900581439964952  1.8653206380690484 8.3801165844099454  2.0125827937060734 7.5969383338267278  2.1598449493433236 6.8672938472222995  2.3071071049802327 6.216082795837309  2.4543692606167387 5.6645022635074227  2.6016314162540373 5.2286139006596812  2.9697868053465908 4.453735576980641  3.1906800388010197 4.2721665609587944  3.4115732722548273 4.4085203763715981  3.6324665056963568 4.8678844473615754  3.85335973916699 5.6204018108437594  4.0742529726226167 6.6037005456237239  4.2951462060798171 7.7354346533851848  4.7369326729908821 10.11857180443765  4.9578259064437589 11.369976166730339  5.1787191398980212 12.592612876942439  5.3996123733522836 13.691689691317151  5.620505606810184 14.579892261543137  5.8413988402644463 15.193295255981866  6.0622920737240431 15.5  6.2831853071795756 15.5 
 0 9 1.5707963267948954 7 2.7488935718910672 7 4.5160394395353265 7 6.2831853071795862 9
1 0 0 1 0 
1 0 -1 1 0 
3 -135.98412378671179 -619.00906562298144 0 1 -1 0 7.7781745930519719 5.5
7 0 0  8 30 5  0 15.5  0.19634954084936207 15.5  0.39269908169887913 15.257665732073292  0.58904862254803447 14.772999254826573  0.78539816339707613 14.065923128160648  0.98174770424566304 13.176322936604265  1.1780972450965237 12.159845205751481  1.3744467859455138 11.079922474671605  1.7180584824318974 9.1900581439964952  1.8653206380690484 8.3801165844099454  2.0125827937060734 7.5969383338267278  2.1598449493433236 6.8672938472222995  2.3071071049802327 6.216082795837309  2.4543692606167387 5.6645022635074227  2.6016314162540373 5.2286139006596812  2.9697868053465908 4.453735576980641  3.1906800388010197 4.2721665609587944  3.4115732722548273 4.4085203763715981  3.6324665056963568 4.8678844473615754  3.85335973916699 5.6204018108437594  4.0742529726226167 6.6037005456237239  4.2951462060798171 7.7354346533851848  4.7369326729908821 10.11857180443765  4.9578259064437589 11.369976166730339  5.1787191398980212 12.592612876942439  5.3996123733522836 13.691689691317151  5.620505606810184 14.579892261543137  5.8413988402644463 15.193295255981866  6.0622920737240431 15.5  6.2831853071795756 15.5 
 0 9 1.5707963267948954 7 2.7488935718910672 7 4.5160394395353265 7 6.2831853071795862 9
1 0 0 1 0 
1 0 -1 1 0 
1 -257.98412378671179 -619.00906562298144 1 0 
1 0 0 1 0 
1 338.91587621328819 -619.00906562298144 0 1 
1 0 0 1 0 
1 338.91587621328819 -438.03406562298153 -0.17204376626835494 0.98508930685912921 
1 0 0 1 0 
1 142.06587621328822 689.09093437701847 -1 -0 
1 0 0 1 0 
3 -103.98412378671179 689.09093437701847 0 -1 1 0 7.7781745930520225 5.5
7 0 0  8 30 5  0 4.5  0.19634954084936207 4.5  0.39269908169819701 4.742334267921251  0.58904862254894397 5.2270007451297715  0.78539816339161916 5.9340768718138861  0.98174770425021052 6.8236770633375272  1.1780972450959553 7.8401547942430625  1.3744467859455343 8.920077525328507  1.7180584824319181 10.809941856003615  1.8653206380687977 11.619883415588889  2.0125827937063718 12.403061666176654  2.1598449493434373 13.132706152780884  2.3071071049801617 13.783917204162947  2.4543692606171668 14.335497736493124  2.6016314162540466 14.771386099340463  2.9697868053466006 15.546264423019501  3.1906800388010197 15.727833439043025  3.4115732722548273 15.591479623566556  3.6324665057145467 15.132115552638425  3.85335973916699 14.379598189108947  4.0742529726212524 13.39629945438719  4.2951462060797949 12.26456534661494  4.7369326729908598 9.8814281955624743  4.9578259064473968 8.6300238332496519  5.1787191398907453 7.4073871230866644  5.3996123733522836 6.308310308635555  5.62050560679927 5.4201077384677774  5.8413988402708128 4.8067047440017632  6.0622920737240431 4.5000000000000009  6.2831853071795756 4.5 
 3.1415926535897931 9 4.7123889803846879 7 5.8904862254808563 7 7.6576320931251178 7 9.4247779607693793 9
1 0 0 1 0 
1 0 -1 1 0 
1 142.06587621328822 689.09093437701847 -1 -0 
1 0 0 1 0 
2 92.60953818511922 600.09093437701847 1 0 -0 1 7.9375
1 0 1 1 0 
2 99.246157903429037 562.09093437701847 1 0 -0 1 7.9375
1 0 1 1 0 
3 64 -1.1368999999999999e-13 0 -1 1 0 7.7781745930519719 5.5
7 0 0  8 16 3  1.3372625992285925 8.7272077938620214  1.5628038560237418 9.9340115970271547  1.7883451128188881 11.214811221796481  2.0138863696101907 12.476052954421903  2.2394276264058135 13.616201535507571  2.4649688832014363 14.540763941113255  2.690510140000697 15.180251997151572  2.9160513967946438 15.500000000000114  3.3671339103849425 15.500000000000114  3.5926751671763668 15.180251997151572  3.8182164239788108 14.540763941171463  4.0437576807416917 13.616201535442087  4.2692989375755133 12.476052954523766  4.4948401943565841 11.214811221796481  4.720381451155844 9.9340115970271547  4.9459227079509933 8.7272077938620214 
 4.4788552528183905 9 6.2831853071795862 7 8.0875153615407811 9
3 122 -1.1368999999999999e-13 0 -1 1 0 7.7781745930519719 5.5
7 0 0  8 16 3  1.3372625992285925 8.7272077938620214  1.5628038560237418 9.9340115970271547  1.7883451128184333 11.214811221796481  2.0138863696056433 12.476052954421903  2.2394276264149084 13.616201535507571  2.4649688831959793 14.540763941113255  2.6905101399993328 15.180251997151572  2.9160513967946438 15.500000000000114  3.3671339103849425 15.500000000000114  3.5926751671763668 15.180251997151572  3.8182164239788108 14.540763941171463  4.0437576807416917 13.616201535442087  4.2692989375755133 12.476052954523766  4.4948401943565841 11.214811221796481  4.720381451155844 9.9340115970271547  4.9459227079509933 8.7272077938620214 
 4.4788552528183905 9 6.2831853071795862 7 8.0875153615407811 9
1 596.89999999999998 0 0 -1 
1 0 0 0 -1 
1 0 -14 1 0 
1 161.1855311784123 -567.65438756838319 -1 0 
1 0 4 1 0 
1 161.1855311784123 -549.65438756838319 -1 0 
1 18 0 0 1 
1 0 1272.0999999999999 1 0 
1 0 0 1 0 
1 -257.98412378671179 -601.00906562298144 1 0 
1 -257.98412378671179 671.09093437701847 1 0 
1 0 0 1 0 
1 -239.98412378671179 671.09093437701847 0 -1 
1 0 0 0 1 
1 0 4 1 0 
1 161.1855311784123 722.44561243161672 -1 0 
1 18 0 0 1 
1 0 0 1 0 
3 246.05000000000001 0 -0 -1 1 -0 7.7781745930519719 5.5
7 0 0  8 9 2  4.4788552528189136 8.7272077938646202  4.7043965096139981 9.9340115970295528  4.9299377664094877 11.214811221796481  5.1554790232042009 12.476052954465558  5.381020279995731 13.616201535405708  5.606561536792718 14.540763941113255  5.8321027935899323 15.180251997151572  6.0576440503845017 15.5  6.2831853071795862 15.5 
 4.4788552528189136 9 6.2831853071795862 9
3 246.05000000000001 0 -0 -1 1 -0 7.7781745930519719 5.5
7 0 0  8 9 2  0 15.5  0.22554125679508411 15.5  0.45108251358954021 15.180251997160667  0.67662377038459454 14.540763941091427  0.90216502717612457 13.616201535442087  1.1277062839758401 12.47605295444373  1.3532475407698712 11.2148112217983  1.5787887975655888 9.9340115970295528  1.8043300543606728 8.7272077938646202 
 0 9 1.8043300543606728 9
3 304.05000000000001 0 -0 -1 1 -0 7.7781745930519719 5.5
7 0 0  8 9 2  4.4788552528189118 8.7272077938646095  4.7043965096139964 9.9340115970295439  4.9299377664096014 11.214811221794662  5.1554790232037462 12.47605295444373  5.3810202800043712 13.616201535391156  5.6065615367940822 14.540763941120531  5.8321027935899323 15.180251997142477  6.0576440503845017 15.5  6.2831853071795862 15.5 
 4.4788552528189118 9 6.2831853071795862 9
3 304.05000000000001 0 -0 -1 1 -0 7.7781745930519719 5.5
7 0 0  8 9 2  0 15.5  0.22554125679508424 15.5  0.45108251358988127 15.180251997144296  0.67662377038686827 14.540763941156911  0.90216502717703406 13.616201535369328  1.1277062839762948 12.47605295448011  1.3532475407698712 11.214811221781929  1.5787887975655894 9.9340115970295493  1.8043300543606737 8.7272077938646149 
 0 9 1.804330054360674 9
1 400.05000000000001 -14 -1 0 
1 161.1855311784123 740.44561243161672 -1 0 
1 0 0 0 -1 
1 1144.1856003835217 0 0 -1 
7 0 0  8 30 5  0 29.955844122715714  0.19634954084936207 29.955844122715714  0.3926990816974012 30.198178390597604  0.58904862254667023 30.682844867769745  0.78539816339616664 31.389920994464774  0.98174770424611779 32.279521185992053  1.1780972450951595 33.295998916928511  1.3744467859455345 34.375921648044226  1.7180584824319183 36.265785978719329  1.8653206380690537 37.075727538303731  2.0125827937062155 37.858905788907123  2.1598449493433236 38.588550275502712  2.3071071049802612 39.239761326872895  2.4543692606170815 39.791341859212395  2.6016314162540466 40.227230222056164  2.9697868053466006 41.002108545735211  3.1906800388010197 41.183677561741206  3.4115732722548273 41.047323746272014  3.6324665057145467 40.587959675234742  3.85335973916699 39.83544231185806  4.0742529726212524 38.85214357705263  4.2951462060797949 37.720409469330654  4.7369326729908598 35.337272318278188  4.9578259064464874 34.085867955946014  5.1787191398980212 32.863231245864881  5.3996123733522836 31.764154431351926  5.6205056068174599 30.875951861220528  5.8413988402699033 30.262548866703582  6.0622920737240431 29.955844122715714  6.2831853071795756 29.955844122715714 
 3.1415926535897931 9 4.7123889803847163 7 5.890486225480899 7 7.6576320931251391 7 9.4247779607693793 9
3 -161.98412378671179 671.09093437701847 0 -1 1 0 7.7781745930520216 5.5
1 0 0 1 0 
1 0 -1 1 0 
7 0 0  5 6 2  4.7123889803846897 35.455844122715689  4.604360184849515 34.861685747272233  4.4963313893143635 34.267526389422414  4.3883025937791302 33.687817852951582  4.2802737982440018 33.136987807370041  4.1722450027088271 32.627416997971125 
 1.5707963267948966 6 2.1109403044707684 6
3 96 0 0 -1 1 0 7.7781745930520225 5.5
7 0 0  7 14 3  4.1722450027088076 32.627416997967941  4.3230264530281488 31.916182319279407  4.4738079033475273 31.129925800437377  4.6245893536663729 30.295058536452416  4.7753708039863554 29.442169313319027  4.926152254305542 28.603578512167587  5.0769337046248584 27.810085803993992  5.3784966052635408 26.366888350515829  5.5292780555828713 25.717183864159779  5.6800595059023848 25.166167235594912  5.8308409562214578 24.736638041824335  5.9816224065408719 24.44487336412385  6.132403856860245 24.298989873223263  6.2831853071795862 24.298989873223263 
 1.0306523491190176 8 2.0861225013544056 6 3.1415926535897931 8
3 65.185531178412305 726.44561243161684 0 -1 -1 -0 7.7781745930520216 5.5
1 0 0 1 0 
1 0 -1 1 0 
1 6.2831853071795862 -0 0 1 
1 0 -0 0 1 
7 0 0  7 14 3  0 24.298989873223263  0.15078145031934106 24.298989873223263  0.30156290063865754 24.444873364130217  0.45234435095829895 24.736638041813421  0.60312580127725823 25.166167235602188  0.75390725159675753 25.71718386415705  0.90468870191604434 26.366888350515829  1.2062516025547263 27.810085803993992  1.3570330528738737 28.603578512167587  1.5078145031948225 29.442169313315389  1.6585959535113943 30.295058536448778  1.8093774038325705 31.129925800434648  1.9601588541514288 31.916182319279351  2.1109403044707697 32.627416997967885 
 3.1415926535897931 8 4.1970628058251807 6 5.2525329580605682 8
3 65.185531178412305 726.44561243161684 0 -1 -1 -0 7.7781745930520216 5.5
1 0 0 1 0 
1 0 -1 1 0 
7 0 0  5 6 2  2.1109403044707595 32.627416997971125  2.0029115089355853 33.136987807370041  1.8948827134004631 33.687817852951639  1.7868539178652227 34.267526389422358  1.6788251223300708 34.861685747272233  1.5707963267948966 35.455844122715689 
 4.1722450027088183 6 4.7123889803846897 6
3 96 0 0 -1 1 0 7.7781745930520225 5.5
1 6.2831853071795862 -0 0 1 
1 0 -0 0 1 
7 0 0  8 30 5  0 40.955844122715689  0.19634954084936207 40.955844122715689  0.39269908169796963 40.71350985475874  0.58904862254894397 40.228843377597514  0.78539816339525714 39.521767250815174  0.98174770424611779 38.632167059433414  1.1780972450956142 37.615689328420558  1.3744467859455138 36.535766597387294  1.7180584824318974 34.645902266712191  1.8653206380691763 33.835960707121203  2.0125827937052847 33.052782456544605  2.1598449493427552 32.323137969939125  2.3071071049803322 31.671926918550525  2.4543692606166534 31.120346386224135  2.6016314162540382 30.68445802337537  2.9697868053465921 29.90957969969633  3.1906800388023839 29.728010683626053  3.4115732722584653 29.864364499066141  3.6324665056999947 30.323728570016101  3.853359739176085 31.07624593359651  4.0742529726226167 32.059544668289163  4.2951462060798171 33.191278776100873  4.7369326729908821 35.574415927153339  4.9578259064446684 36.825820289450348  5.1787191399089352 38.048456999531481  5.3996123733704735 39.147533813986229  5.620505606806546 40.035736384132179  5.8413988402689938 40.649139378685504  6.0622920737240431 40.955844122715689  6.2831853071795756 40.955844122715689 
 0 9 1.5707963267949068 7 2.7488935718910765 7 4.5160394395353318 7 6.2831853071795862 9
3 -193.98412378671179 -601.00906562298144 0 1 -1 0 7.7781745930519719 5.5
1 0 0 1 0 
1 0 -1 1 0 
7 0 0  5 6 2  1.030652349118667 32.627416997969704  1.1386811446539107 33.136987807368847  1.2467099401891826 33.687817852951014  1.3547387357243981 34.267526389421505  1.4627675312596427 34.861685747272077  1.5707963267948863 35.455844122715916 
 4.172245002708471 6 4.7123889803846897 6
3 64 -1.1368999999999999e-13 0 -1 1 0 7.7781745930520225 5.5
7 0 0  8 23 4  1.030652349118671 32.627416997969704  1.1625861181481147 32.005086654117264  1.2945198871778441 31.326489930147652  1.4264536562070944 30.608133760450983  1.5583874252369014 29.868613924883903  1.6903211942664313 29.127697762881098  1.8222549632951797 28.405205335125785  1.9541887323247888 27.719885963152507  2.2840231548983985 26.141388748410375  2.481923808438296 25.315611383295618  2.6798244619931211 24.667678423356847  2.8777251155242993 24.243970640352927  3.0756257690827624 24.073669613018865  3.2735264226162144 24.163708895292075  3.4714270761634025 24.499144567424061  3.8672283832517338 25.595386817735765  4.0651290367909496 26.356193671534129  4.2630296903571434 27.296971475472674  4.4609303438774077 28.36725211321027  4.6588309974504227 29.502845219962182  4.8567316509670491 30.633826276109176  5.0546323045167494 31.693921482191037  5.2525329580609155 32.627416997969704 
 1.0306523491186923 9 2.086122501354251 7 3.6693277297075721 7 5.2525329580608942 9
3 97.185531178412305 -553.65438756838319 0 1 1 -0 7.7781745930519719 5.5
1 0 0 1 0 
1 0 -1 1 0 
7 0 0  5 6 2  4.7123889803847003 35.455844122715916  4.8204177759199442 34.861685747272077  4.9284465714551828 34.267526389421505  5.0364753669904161 33.687817852951014  5.1445041625256751 33.136987807368847  5.252532958060919 32.627416997969704 
 1.5707963267948966 6 2.1109403044711152 6
3 64 -1.1368999999999999e-13 0 -1 1 0 7.7781745930520225 5.5
7 0 0  8 30 5  0 40.955844122715689  0.19634954084936207 40.955844122715689  0.39269908169796963 40.71350985475874  0.58904862254894397 40.228843377597514  0.78539816339525714 39.521767250815174  0.98174770424611779 38.632167059433414  1.1780972450956142 37.615689328420558  1.3744467859455138 36.535766597387294  1.7180584824318974 34.645902266712191  1.8653206380691763 33.835960707121203  2.0125827937052847 33.052782456544605  2.1598449493427552 32.323137969939125  2.3071071049803322 31.671926918550525  2.4543692606166534 31.120346386224135  2.6016314162540382 30.68445802337537  2.9697868053465921 29.90957969969633  3.1906800388023839 29.728010683626053  3.4115732722584653 29.864364499066141  3.6324665056999947 30.323728570016101  3.853359739176085 31.07624593359651  4.0742529726226167 32.059544668289163  4.2951462060798171 33.191278776100873  4.7369326729908821 35.574415927153339  4.9578259064446684 36.825820289450348  5.1787191399089352 38.048456999531481  5.3996123733704735 39.147533813986229  5.620505606806546 40.035736384132179  5.8413988402689938 40.649139378685504  6.0622920737240431 40.955844122715689  6.2831853071795756 40.955844122715689 
 0 9 1.5707963267949068 7 2.7488935718910765 7 4.5160394395353318 7 6.2831853071795862 9
3 -193.98412378671179 -601.00906562298144 0 1 -1 0 7.7781745930519719 5.5
1 0 0 1 0 
1 0 -1 1 0 
1 6.2831853071795862 -0 0 1 
1 0 -0 0 1 
7 0 0  8 30 5  0 40.955844122715689  0.19634954084936207 40.955844122715689  0.39269908169865175 40.71350985475874  0.58904862254621548 40.228843377597514  0.78539816339798563 39.521767250815174  0.9817477042452083 38.632167059433414  1.1780972450962963 37.615689328420558  1.3744467859455138 36.535766597387294  1.7180584824318974 34.645902266712191  1.8653206380690057 33.835960707121203  2.0125827937057679 33.052782456544605  2.1598449493432099 32.323137969939125  2.3071071049803749 31.671926918550525  2.4543692606167387 31.120346386224135  2.6016314162540373 30.68445802337537  2.9697868053465908 29.90957969969633  3.1906800388042029 29.728010683626053  3.4115732722584653 29.864364499066141  3.6324665057072707 30.323728570016101  3.853359739176085 31.07624593359651  4.0742529726226167 32.059544668289163  4.2951462060798171 33.191278776100873  4.7369326729908821 35.574415927153339  4.9578259064446684 36.825820289450348  5.1787191399089352 38.048456999531481  5.3996123733704735 39.147533813986229  5.620505606806546 40.035736384132179  5.8413988402689938 40.649139378685504  6.0622920737240431 40.955844122715689  6.2831853071795756 40.955844122715689 
 0 9 1.5707963267949059 7 2.7488935718910752 7 4.51603943953533 7 6.2831853071795862 9
3 -135.98412378671179 -601.00906562298144 0 1 -1 0 7.7781745930519719 5.5
1 0 0 1 0 
1 0 -1 1 0 
7 0 0  5 6 2  1.030652349118667 32.627416997969704  1.1386811446539107 33.136987807368847  1.246709940189179 33.687817852951014  1.3547387357244016 34.267526389421505  1.4627675312596427 34.861685747272077  1.5707963267948863 35.455844122715916 
 4.172245002708471 6 4.7123889803846897 6
3 122 -1.1368999999999999e-13 0 -1 1 0 7.7781745930520225 5.5
7 0 0  8 23 4  1.030652349118671 32.627416997969704  1.1625861181481147 32.005086654117264  1.2945198871774604 31.326489930147652  1.4264536562073289 30.608133760450983  1.5583874252366741 29.868613924883903  1.6903211942658274 29.127697762881098  1.8222549632953928 28.405205335125785  1.9541887323247886 27.719885963152507  2.284023154898398 26.141388748410375  2.4819238084423887 25.315611383295618  2.6798244619858451 24.667678423356847  2.8777251155188424 24.243970640352927  3.0756257690700295 24.073669613018865  3.2735264226180334 24.163708895292075  3.4714270761634025 24.499144567424061  3.8672283832517338 25.595386817735765  4.0651290367909496 26.356193671534129  4.2630296903571434 27.296971475472674  4.4609303438774077 28.36725211321027  4.6588309974504227 29.502845219962182  4.8567316509670491 30.633826276109176  5.0546323045167494 31.693921482191037  5.2525329580609155 32.627416997969704 
 1.0306523491186923 9 2.086122501354251 7 3.6693277297075721 7 5.2525329580608942 9
3 39.185531178412305 -553.65438756838319 0 1 1 -0 7.7781745930519719 5.5
1 0 0 1 0 
1 0 -1 1 0 
7 0 0  5 6 2  4.7123889803847003 35.455844122715916  4.8204177759199442 34.861685747272077  4.9284465714551828 34.267526389421505  5.0364753669904161 33.687817852951014  5.1445041625256751 33.136987807368847  5.252532958060919 32.627416997969704 
 1.5707963267948966 6 2.1109403044711152 6
3 122 -1.1368999999999999e-13 0 -1 1 0 7.7781745930520225 5.5
7 0 0  8 30 5  0 40.955844122715689  0.19634954084936207 40.955844122715689  0.39269908169865175 40.71350985475874  0.58904862254621548 40.228843377597514  0.78539816339798563 39.521767250815174  0.9817477042452083 38.632167059433414  1.1780972450962963 37.615689328420558  1.3744467859455138 36.535766597387294  1.7180584824318974 34.645902266712191  1.8653206380690057 33.835960707121203  2.0125827937057679 33.052782456544605  2.1598449493432099 32.323137969939125  2.3071071049803749 31.671926918550525  2.4543692606167387 31.120346386224135  2.6016314162540373 30.68445802337537  2.9697868053465908 29.90957969969633  3.1906800388042029 29.728010683626053  3.4115732722584653 29.864364499066141  3.6324665057072707 30.323728570016101  3.853359739176085 31.07624593359651  4.0742529726226167 32.059544668289163  4.2951462060798171 33.191278776100873  4.7369326729908821 35.574415927153339  4.9578259064446684 36.825820289450348  5.1787191399089352 38.048456999531481  5.3996123733704735 39.147533813986229  5.620505606806546 40.035736384132179  5.8413988402689938 40.649139378685504  6.0622920737240431 40.955844122715689  6.2831853071795756 40.955844122715689 
 0 9 1.5707963267949059 7 2.7488935718910752 7 4.51603943953533 7 6.2831853071795862 9
3 -135.98412378671179 -601.00906562298144 0 1 -1 0 7.7781745930519719 5.5
1 0 0 1 0 
1 0 -1 1 0 
1 180.97499999999991 0 0 -1 
1 0 0 0 -1 
1 18 -14 -1 0 
1 -435.71446882158767 -549.65438756838319 0 -1 
1 0 0 0 -1 
1 18 18 -0 -1 
1 1144.1856003835217 0 0 -1 
1 18 0 -1 0 
1 -0 -18 1 0 
1 338.91587621328819 -438.03406562298153 -0.17204376626835494 0.98508930685912921 
7 0 0  8 30 5  0 29.955844122715714  0.19634954084936207 29.955844122715714  0.39269908169967493 30.198178390597604  0.58904862254621548 30.682844867769745  0.78539816339889512 31.389920994464774  0.98174770424247981 32.279521185992053  1.17809724509641 33.295998916928511  1.3744467859455345 34.375921648044226  1.7180584824319183 36.265785978719329  1.8653206380687126 37.075727538303731  2.0125827937057608 37.858905788907123  2.1598449493428689 38.588550275502712  2.3071071049800622 39.239761326872895  2.454369260617252 39.791341859212395  2.6016314162540466 40.227230222056164  2.9697868053466006 41.002108545735211  3.1906800388010197 41.183677561741206  3.4115732722548273 41.047323746272014  3.6324665056999947 40.587959675234742  3.853359739174266 39.83544231185806  4.0742529726194334 38.85214357705263  4.2951462060797949 37.720409469330654  4.7369326729908598 35.337272318278188  4.9578259064437589 34.085867955946014  5.1787191399052972 32.863231245864881  5.3996123733231798 31.764154431351926  5.6205056068283739 30.875951861220528  5.8413988402635368 30.262548866703582  6.0622920737240431 29.955844122715714  6.2831853071795756 29.955844122715714 
 3.1415926535897931 9 4.7123889803847163 7 5.890486225480899 7 7.6576320931251391 7 9.4247779607693793 9
3 -103.98412378671179 671.09093437701847 0 -1 1 0 7.7781745930520216 5.5
1 0 0 1 0 
1 0 -1 1 0 
7 0 0  5 6 2  4.7123889803846897 35.455844122715689  4.604360184849515 34.861685747272233  4.4963313893143635 34.267526389422414  4.3883025937791302 33.687817852951582  4.2802737982440018 33.136987807370041  4.1722450027088271 32.627416997971125 
 1.5707963267948966 6 2.1109403044707684 6
3 154 0 0 -1 1 0 7.7781745930520225 5.5
7 0 0  7 14 3  4.1722450027088058 32.627416997967941  4.323026453028147 31.916182319279407  4.4738079033475273 31.129925800437377  4.6245893536666003 30.295058536452416  4.7753708039859006 29.442169313319027  4.926152254305542 28.603578512167587  5.0769337046248584 27.810085803993992  5.3784966052635408 26.366888350515829  5.5292780555828713 25.717183864159779  5.6800595059021575 25.166167235594912  5.8308409562214578 24.736638041824335  5.9816224065409287 24.44487336412385  6.132403856860245 24.298989873223263  6.2831853071795862 24.298989873223263 
 1.0306523491190176 8 2.0861225013544056 6 3.1415926535897931 8
3 7.1855311784123046 726.44561243161684 0 -1 -1 -0 7.7781745930520216 5.5
1 0 0 1 0 
1 0 -1 1 0 
1 6.2831853071795862 -0 0 1 
1 0 -0 0 1 
7 0 0  7 14 3  0 24.298989873223263  0.15078145031934106 24.298989873223263  0.30156290063871438 24.444873364130217  0.45234435095795789 24.736638041813421  0.60312580127737192 25.166167235602188  0.75390725159667227 25.71718386415705  0.90468870191604556 26.366888350515829  1.2062516025547276 27.810085803993992  1.3570330528743852 28.603578512167587  1.5078145031930035 29.442169313315389  1.6585959535132133 30.295058536448778  1.8093774038320021 31.129925800434648  1.9601588541514301 31.916182319279351  2.1109403044707711 32.627416997967885 
 3.1415926535897931 8 4.1970628058251807 6 5.2525329580605682 8
3 7.1855311784123046 726.44561243161684 0 -1 -1 -0 7.7781745930520216 5.5
1 0 0 1 0 
1 0 -1 1 0 
7 0 0  5 6 2  2.1109403044707595 32.627416997971125  2.0029115089355853 33.136987807370041  1.8948827134004667 33.687817852951639  1.7868539178652227 34.267526389422358  1.6788251223300708 34.861685747272233  1.5707963267948966 35.455844122715689 
 4.1722450027088183 6 4.7123889803846897 6
3 154 0 0 -1 1 0 7.7781745930520225 5.5
1 0 16 1 0 
2 0 0 1 0 -0 1 7.9375
1 6.2831853071795862 -0 0 1 
1 0 -0 0 1 
1 0 16 1 0 
2 0 0 1 0 -0 1 7.9375
1 6.2831853071795862 -0 0 1 
1 0 -0 0 1 
1 4 0 0 1 
1 143.1855311784123 722.44561243161672 0 -1 
1 0 0 0 1 
1 142.06587621328822 689.09093437701847 0 -1 
1 0 18 1 0 
1 400.05000000000001 0 0 1 
1 4 0 0 1 
1 -238.86446882158771 740.44561243161672 0 -1 
1 0 4 1 0 
1 161.1855311784123 722.44561243161672 -1 0 
1 0 0 1 0 
1 -257.98412378671179 671.09093437701847 1 0 
1 0 4 1 0 
1 161.1855311784123 722.44561243161672 -1 0 
1 0 0 1 0 
1 -257.98412378671179 671.09093437701847 1 0 
1 36 0 0 1 
1 0 0 1 0 
1 0 4 1 0 
1 161.1855311784123 722.44561243161672 -1 0 
1 0 0 1 0 
1 -257.98412378671179 671.09093437701847 1 0 
1 0 0 0 1 
1 -221.98412378671179 671.09093437701847 0 -1 
1 0 1272.0999999999999 1 0 
1 36 0 0 1 
1 4 0 0 1 
1 125.1855311784123 722.44561243161672 0 -1 
1 0 4 1 0 
1 161.1855311784123 -549.65438756838319 -1 0 
1 0 0 1 0 
1 -257.98412378671179 -601.00906562298144 1 0 
1 0 4 1 0 
1 161.1855311784123 -549.65438756838319 -1 0 
1 0 0 1 0 
1 -257.98412378671179 -601.00906562298144 1 0 
1 0 4 1 0 
1 161.1855311784123 -549.65438756838319 -1 0 
1 578.89999999999998 0 0 1 
1 0 162.97499999999991 1 0 
1 0 0 1 0 
1 -257.98412378671179 -601.00906562298144 1 0 
1 320.91587621328819 -438.03406562298153 1 0 
1 0 0 1 0 
1 320.91587621328819 -438.03406562298153 0 -1 
1 0 0 0 1 
2 -65.984123786711791 -347.90906562298153 1 0 -0 1 1.5
1 0 0 1 0 
2 -26.984123786711791 -300.90906562298153 -1 -0 -0 1 1.25
1 0 1 1 0 
2 -26.984123786711791 -230.90906562298153 -1 -0 -0 1 1.25
1 0 1 1 0 
2 -86.984123786711791 -0.90906562298152949 -1 -0 -0 1 1.25
1 0 1 1 0 
2 -86.984123786711791 69.090934377018471 -1 -0 -0 1 1.25
1 0 1 1 0 
2 62.126041270741496 -353.40906562298153 1 0 -0 1 1.5
1 0 0 1 0 
2 190.23620632819473 -366.15968547016143 1 0 -0 1 1.5
1 0 0 1 0 
2 -106.98412378671179 444.09093437701847 -1 -0 -0 1 1.25
1 0 1 1 0 
2 -106.98412378671179 514.09093437701847 -1 -0 -0 1 1.25
1 0 1 1 0 
2 92.60953818511922 600.09093437701847 1 0 -0 1 12.5
1 0 3 1 0 
2 99.246157903429037 562.09093437701847 1 0 -0 1 12.5
1 0 3 1 0 
1 0 0 0 1 
1 0 0 1 0 
1 0 4 1 0 
1 -417.71446882158767 -386.67938756838328 -1 0 
2 0 0 1 0 -0 1 12.5
1 0 0 1 0 
1 0 0 1 0 
1 0 -1 1 0 
2 0 0 1 0 -0 1 12.5
1 0 0 1 0 
1 0 0 1 0 
1 0 -1 1 0 
1 4 0 0 1 
1 -417.71446882158767 -386.67938756838328 0 -1 
1 0 1 1 0 
2 0 0 1 0 -0 1 1.5
1 0 0 1 0 
1 0 -1 1 0 
1 6.2831853071795862 -0 0 1 
1 0 -0 0 1 
1 6.2831853071795862 -0 0 1 
1 0 -0 0 1 
1 0 14 1 0 
2 -0 0 1 -0 0 1 1.25
1 0 0 1 0 
1 0 -1 1 0 
1 6.2831853071795862 -0 0 1 
1 0 -0 0 1 
1 0 14 1 0 
2 -0 0 1 -0 0 1 1.25
1 0 0 1 0 
1 0 -1 1 0 
1 6.2831853071795862 -0 0 1 
1 0 -0 0 1 
1 0 14 1 0 
2 -0 0 1 -0 0 1 1.25
1 0 0 1 0 
1 0 -1 1 0 
1 6.2831853071795862 -0 0 1 
1 0 -0 0 1 
1 0 14 1 0 
2 -0 0 1 -0 0 1 1.25
1 0 0 1 0 
1 0 -1 1 0 
1 0 1 1 0 
2 0 0 1 0 -0 1 1.5
1 0 0 1 0 
1 0 -1 1 0 
1 6.2831853071795862 -0 0 1 
1 0 -0 0 1 
1 0 1 1 0 
2 0 0 1 0 -0 1 1.5
1 0 0 1 0 
1 0 -1 1 0 
1 6.2831853071795862 -0 0 1 
1 0 -0 0 1 
1 6.2831853071795862 -0 0 1 
1 0 -0 0 1 
1 0 14 1 0 
2 -0 0 1 -0 0 1 1.25
1 0 0 1 0 
1 0 -1 1 0 
1 6.2831853071795862 -0 0 1 
1 0 -0 0 1 
1 0 14 1 0 
2 -0 0 1 -0 0 1 1.25
1 0 0 1 0 
1 0 -1 1 0 
1 6.2831853071795862 -0 0 1 
1 0 -0 0 1 
1 6.2831853071795862 -0 0 1 
1 0 -0 0 1 
Curves 133
1 600 0 0 -0 1 -0 
1 600 1308.0999999999999 0 -1 -0 -0 
1 586 1290.0999999999999 0 -0 1 0 
1 582 1290.0999999999999 0 1 0 -0 
1 564 0 0 -0 1 -0 
1 582 18 0 1 0 -0 
1 586 0 0 -0 1 0 
1 600 0 0 -1 -0 -0 
3 600 0 96 1 0 0 -0 1 0 0 -0 1 7.7781745930520225 5.5
1 600 0 400.05000000000001 -0 -0 -1 
1 600 1308.0999999999999 0 -0 -0 1 
3 600 1308.0999999999999 64 1 0 0 0 -1 0 0 0 -1 7.7781745930520225 5.5
3 600 1308.0999999999999 64 1 0 0 0 -1 0 0 0 -1 7.7781745930520225 5.5
1 600 1308.0999999999999 0 -0 -0 1 
3 600 1308.0999999999999 122 1 0 0 0 -1 0 0 0 -1 7.7781745930520225 5.5
3 600 1308.0999999999999 122 1 0 0 0 -1 0 0 0 -1 7.7781745930520225 5.5
1 600 1308.0999999999999 0 -0 -0 1 
1 600 1308.0999999999999 596.89999999999998 -0 -1 -0 
1 600 1127.125 596.89999999999998 -0 -0.98508930685912921 -0.17204376626835494 
1 600 0 400.05000000000001 -0 -0 -1 
3 600 0 154 1 0 0 -0 1 0 0 -0 1 7.7781745930520225 5.5
1 600 0 400.05000000000001 -0 -0 -1 
2 600 89 350.59366197183101 1 -0 -0 0 -0 1 -0 -1 0 7.9375
2 600 127 357.23028169014083 1 -0 -0 0 -0 1 -0 -1 0 7.9375
3 599.99999999999989 1308.0999999999999 64 -0 1 0 -1 0 -0 -0 -0 1 7.7781745930520225 5.5
3 599.99999999999989 1308.0999999999999 122 -0 1 0 -1 0 -0 -0 -0 1 7.7781745930520225 5.5
1 600 1308.0999999999999 596.89999999999998 -1 -0 -0 
1 586 1308.0999999999999 0 0 0 1 
1 586 1290.0999999999999 0 0 0 1 
1 582 1290.0999999999999 18 1 0 -0 
1 582 1290.0999999999999 0 0 0 1 
1 582 18 0 0 0 1 
1 582 18 18 -0 1 0 
1 586 18 0 0 0 1 
1 582 18 18 1 0 -0 
3 600 0 154 0 -1 0 -1 0 0 -0 -0 -1 7.7781745930520225 5.5
3 600 0 154 0 -1 0 -1 0 0 -0 -0 -1 7.7781745930520225 5.5
3 600 0 96 0 -1 0 -1 0 0 -0 -0 -1 7.7781745930520225 5.5
3 600 0 96 0 -1 0 -1 0 0 -0 -0 -1 7.7781745930520225 5.5
1 586 0 0 0 0 1 
1 600 0 400.05000000000001 -1 -0 -0 
3 582 18 96 1 0 0 -0 1 0 0 -0 1 7.7781745930520225 5.5
3 582 18 96 -0 1 0 -1 -0 0 0 0 1 7.7781745930520225 5.5
3 586 13.999999999999943 96 1 0 -0 0 1 0 0 -0 1 7.7781745930520225 5.5
1 603.18198051533943 -10.960155108391486 96 -0.70710678118654757 0.70710678118654757 -0 
3 586 13.999999999999943 96 1 0 -0 0 1 0 0 -0 1 7.7781745930520225 5.5
3 582 18 96 -0 1 0 -1 -0 0 0 0 1 7.7781745930520225 5.5
1 610.96015510839152 1311.2819805153395 64 -0.70710678118654757 -0.70710678118654757 -0 
3 582 1290.0999999999999 64 1 0 0 0 -1 0 0 0 -1 7.7781745930520225 5.5
3 581.99999999999989 1290.0999999999999 64 -0 1 0 -1 -0 0 0 0 1 7.7781745930520225 5.5
3 586 1294.0999999999999 64 1 0 0 0 -1 0 0 0 -1 7.7781745930520225 5.5
3 581.99999999999989 1290.0999999999999 64 -0 1 0 -1 -0 0 0 0 1 7.7781745930520225 5.5
3 582 1290.0999999999999 64 1 0 0 0 -1 0 0 0 -1 7.7781745930520225 5.5
1 610.96015510839152 1311.2819805153395 122 -0.70710678118654757 -0.70710678118654757 -0 
3 582 1290.0999999999999 122 1 0 0 0 -1 0 0 0 -1 7.7781745930520225 5.5
3 581.99999999999989 1290.0999999999999 122 -0 1 0 -1 -0 0 0 0 1 7.7781745930520225 5.5
3 586 1294.0999999999999 122 1 0 0 0 -1 0 0 0 -1 7.7781745930520225 5.5
3 581.99999999999989 1290.0999999999999 122 -0 1 0 -1 -0 0 0 0 1 7.7781745930520225 5.5
3 582 1290.0999999999999 122 1 0 0 0 -1 0 0 0 -1 7.7781745930520225 5.5
1 600 1127.125 596.89999999999998 -1 -0 -0 
1 586 1290.0999999999999 596.89999999999998 -0 1 0 
1 600 1127.125 596.89999999999998 -1 -0 -0 
1 600 0 400.05000000000001 -1 -0 -0 
1 564 1127.125 596.89999999999998 -0 -0.98508930685912921 -0.17204376626835494 
3 582 18 154 1 0 0 -0 1 0 0 -0 1 7.7781745930520225 5.5
3 582 18 154 -0 1 0 -1 -0 0 0 0 1 7.7781745930520225 5.5
3 586 13.999999999999943 154 1 0 -0 0 1 0 0 -0 1 7.7781745930520225 5.5
1 603.18198051533943 -10.960155108391486 154 -0.70710678118654757 0.70710678118654757 -0 
3 586 13.999999999999943 154 1 0 -0 0 1 0 0 -0 1 7.7781745930520225 5.5
3 582 18 154 -0 1 0 -1 -0 0 0 0 1 7.7781745930520225 5.5
2 585 89 350.59366197183101 1 -0 -0 0 -0 1 -0 -1 0 7.9375
1 601 89 358.53116197183101 -1 -0 -0 
2 585 127 357.23028169014083 1 -0 -0 0 -0 1 -0 -1 0 7.9375
1 601 127 365.16778169014083 -1 -0 -0 
1 586 18 18 -0 1 0 
1 582 0 400.05000000000001 -0 1 0 
1 582 18 400.05000000000001 1 0 -0 
1 586 0 400.05000000000001 -0 1 0 
1 586 18 0 0 0 1 
1 582 18 0 0 0 1 
1 586 18 0 0 0 1 
1 582 18 0 0 0 1 
1 582 18 36 1 0 -0 
1 586 18 0 0 0 1 
1 582 18 0 0 0 1 
1 582 18 36 -0 1 0 
1 582 1290.0999999999999 36 1 0 -0 
1 586 18 36 -0 1 0 
1 586 1290.0999999999999 0 0 0 1 
1 582 1290.0999999999999 0 0 0 1 
1 586 1290.0999999999999 0 0 0 1 
1 582 1290.0999999999999 0 0 0 1 
1 586 1290.0999999999999 0 0 0 1 
1 582 1290.0999999999999 578.89999999999998 1 0 -0 
1 582 1290.0999999999999 0 0 0 1 
1 582 1127.125 578.89999999999998 0 0 1 
1 582 1127.125 578.89999999999998 -0 1 0 
2 582 1037 192 1 0 0 -0 0 1 0 -1 0 1.5
2 582 990 231 -1 -0 0 -0 0 -1 0 -1 -0 1.25
2 582 920 231 -1 -0 0 -0 0 -1 0 -1 -0 1.25
2 582 690 171 -1 -0 0 -0 0 -1 0 -1 -0 1.25
2 582 620 171 -1 -0 0 -0 0 -1 0 -1 -0 1.25
2 582 1042.5 320.11016505745329 1 0 0 -0 0 1 0 -1 0 1.5
2 582 1055.2506198471799 448.22033011490652 1 0 0 -0 0 1 0 -1 0 1.5
2 582 245 151 -1 -0 0 -0 0 -1 0 -1 -0 1.25
2 582 175 151 -1 -0 0 -0 0 -1 0 -1 -0 1.25
2 582 89 350.59366197183101 1 -0 -0 0 -0 1 -0 -1 0 12.5
2 582 127 357.23028169014083 1 -0 -0 0 -0 1 -0 -1 0 12.5
1 582 1127.125 578.89999999999998 1 0 -0 
1 586 1127.125 578.89999999999998 0 0 1 
2 585 89 350.59366197183101 1 -0 -0 0 -0 1 -0 -1 0 12.5
2 585 127 357.23028169014083 1 -0 -0 0 -0 1 -0 -1 0 12.5
1 586 1127.125 578.89999999999998 -0 1 0 
2 583 1037 192 1 0 0 -0 0 1 0 -1 0 1.5
1 582 1037 193.5 1 0 0 
1 581 990 229.75 1 -0 -0 
2 595 990 231 -1 -0 0 -0 0 -1 0 -1 -0 1.25
1 581 920 229.75 1 -0 -0 
2 595 920 231 -1 -0 0 -0 0 -1 0 -1 -0 1.25
1 581 690 169.75 1 -0 -0 
2 595 690 171 -1 -0 0 -0 0 -1 0 -1 -0 1.25
1 581 620 169.75 1 -0 -0 
2 595 620 171 -1 -0 0 -0 0 -1 0 -1 -0 1.25
2 583 1042.5 320.11016505745329 1 0 0 -0 0 1 0 -1 0 1.5
1 582 1042.5 321.61016505745329 1 0 0 
2 583 1055.2506198471799 448.22033011490652 1 0 0 -0 0 1 0 -1 0 1.5
1 582 1055.2506198471799 449.72033011490652 1 0 0 
1 581 245 149.75 1 -0 -0 
2 595 245 151 -1 -0 0 -0 0 -1 0 -1 -0 1.25
1 581 175 149.75 1 -0 -0 
2 595 175 151 -1 -0 0 -0 0 -1 0 -1 -0 1.25
1 585 89 363.09366197183101 -1 -0 -0 
1 585 127 369.73028169014083 -1 -0 -0 
Polygon3D 0
PolygonOnTriangulations 0
Surfaces 79
1 600 0 0 -0 -0 1 -0 1 0 1 -0 0 
1 600 689.09093437701847 257.98412378671179 -1 -0 -0 -0 0 1 -0 -1 0 
1 600 1308.0999999999999 0 -0 -1 -0 -0 0 1 1 -0 0 
1 585.99999999999977 740.44561243161672 161.1855311784123 -1 -0 -0 0 0 -1 0 -1 0 
1 582 1290.0999999999999 0 -0 1 0 0 0 1 1 0 -0 
1 564 689.09093437701847 257.98412378671179 -1 -0 -0 -0 0 1 -0 -1 0 
1 582 18 0 -0 1 0 0 0 1 1 0 -0 
1 600 0 400.05000000000001 -0 1 -0 0 0 -1 1 0 0 
2 607.07106781186542 -7.0710678118654746 96 -0.70710678118654757 0.70710678118654757 -0 -0.70710678118654757 -0.70710678118654757 -0 0 -0 -1 5.5
6 -0 -0 -1 
3 500.89999999999992 3.8890873012275202 0 1.1102230246251565e-16 -0 1 0 1 0 -1 0 1.1102230246251565e-16 7.7781745930520225 5.5
2 607.07106781186542 1315.1710678118654 64 -0.70710678118654757 -0.70710678118654757 -0 0.70710678118654757 -0.70710678118654757 0 0 -0 -1 5.5
6 -0 -0 -1 
3 532.89999999999998 1311.9890873012275 0 1.1102230246251565e-16 0 1 0 -1 0 1 0 -1.1102230246251565e-16 7.7781745930520225 5.5
6 -0 -0 -1 
3 532.89999999999998 1311.9890873012275 0 1.1102230246251565e-16 0 1 0 -1 0 1 0 -1.1102230246251565e-16 7.7781745930520225 5.5
2 607.07106781186542 1315.1710678118654 122 -0.70710678118654757 -0.70710678118654757 -0 0.70710678118654757 -0.70710678118654757 0 0 -0 -1 5.5
6 -0 -0 -1 
3 474.89999999999992 1311.9890873012275 0 1.1102230246251565e-16 0 1 0 -1 0 1 0 -1.1102230246251565e-16 7.7781745930520225 5.5
6 -0 -0 -1 
3 474.89999999999992 1311.9890873012275 0 1.1102230246251565e-16 0 1 0 -1 0 1 0 -1.1102230246251565e-16 7.7781745930520225 5.5
1 600 1308.0999999999999 596.89999999999998 -0 -0 -1 0 -1 0 1 -0 -0 
1 600 1127.125 596.89999999999998 -0 0.17204376626835494 -0.98508930685912921 0 -0.98508930685912921 -0.17204376626835494 1 0 -0 
2 607.07106781186542 -7.0710678118654746 154 -0.70710678118654757 0.70710678118654757 -0 -0.70710678118654757 -0.70710678118654757 -0 0 -0 -1 5.5
6 -0 -0 -1 
3 442.89999999999992 3.8890873012275202 0 1.1102230246251565e-16 -0 1 0 1 0 -1 0 1.1102230246251565e-16 7.7781745930520225 5.5
2 601 89 350.59366197183101 -1 -0 -0 0 -0 1 0 -1 -0 7.9375
2 601 127 357.23028169014083 -1 -0 -0 0 -0 1 0 -1 -0 7.9375
1 582 18 18 0 0 1 1 0 -0 -0 1 0 
1 564 689.09093437701847 257.98412378671179 -1 -0 -0 -0 0 1 -0 -1 0 
6 -0 -0 -1 
3 500.89999999999992 21.889087301227519 0 1.1102230246251565e-16 -0 1 0 1 0 -1 0 1.1102230246251565e-16 7.7781745930520225 5.5
1 582 18 0 -0 1 0 0 0 1 1 0 -0 
6 -0 -0 -1 
3 500.89999999999992 17.889087301227462 2.2737367544323206e-13 1.1102230246251565e-16 -0 1 0 1 0 -1 0 1.1102230246251565e-16 7.7781745930520225 5.5
6 -0 -0 -1 
3 500.89999999999992 17.889087301227462 2.2737367544323206e-13 1.1102230246251565e-16 -0 1 0 1 0 -1 0 1.1102230246251565e-16 7.7781745930520225 5.5
1 582 18 0 -0 1 0 0 0 1 1 0 -0 
6 -0 -0 -1 
3 532.89999999999998 1293.9890873012275 0 1.1102230246251565e-16 0 1 0 -1 0 1 0 -1.1102230246251565e-16 7.7781745930520225 5.5
1 582 1290.0999999999999 0 -0 1 0 0 0 1 1 0 -0 
6 -0 -0 -1 
3 532.89999999999998 1297.9890873012275 2.2737367544323206e-13 1.1102230246251565e-16 0 1 0 -1 0 1 0 -1.1102230246251565e-16 7.7781745930520225 5.5
1 582 1290.0999999999999 0 -0 1 0 0 0 1 1 0 -0 
6 -0 -0 -1 
3 532.89999999999998 1293.9890873012275 0 1.1102230246251565e-16 0 1 0 -1 0 1 0 -1.1102230246251565e-16 7.7781745930520225 5.5
6 -0 -0 -1 
3 474.89999999999992 1293.9890873012275 0 1.1102230246251565e-16 0 1 0 -1 0 1 0 -1.1102230246251565e-16 7.7781745930520225 5.5
6 -0 -0 -1 
3 474.89999999999992 1297.9890873012275 2.2737367544323206e-13 1.1102230246251565e-16 0 1 0 -1 0 1 0 -1.1102230246251565e-16 7.7781745930520225 5.5
1 582 1290.0999999999999 0 -0 1 0 0 0 1 1 0 -0 
6 -0 -0 -1 
3 474.89999999999992 1293.9890873012275 0 1.1102230246251565e-16 0 1 0 -1 0 1 0 -1.1102230246251565e-16 7.7781745930520225 5.5
1 582 1127.125 578.89999999999998 -0 1 0 0 0 1 1 0 -0 
1 582 0 400.05000000000001 0 0 1 1 0 -0 -0 1 0 
6 -0 -0 -1 
3 442.89999999999992 21.889087301227519 0 1.1102230246251565e-16 -0 1 0 1 0 -1 0 1.1102230246251565e-16 7.7781745930520225 5.5
1 582 18 0 -0 1 0 0 0 1 1 0 -0 
6 -0 -0 -1 
3 442.89999999999992 17.889087301227462 2.2737367544323206e-13 1.1102230246251565e-16 -0 1 0 1 0 -1 0 1.1102230246251565e-16 7.7781745930520225 5.5
6 -0 -0 -1 
3 442.89999999999992 17.889087301227462 2.2737367544323206e-13 1.1102230246251565e-16 -0 1 0 1 0 -1 0 1.1102230246251565e-16 7.7781745930520225 5.5
1 585 89 350.59366197183101 -1 -0 -0 0 -0 1 0 -1 -0 
1 585 127 357.23028169014083 -1 -0 -0 0 -0 1 0 -1 -0 
1 582 18 36 0 0 1 1 0 -0 -0 1 0 
1 582 1127.125 578.89999999999998 0 0 1 1 0 -0 -0 1 0 
2 582 1037 192 1 0 0 -0 0 1 0 -1 0 1.5
2 581 990 231 1 -0 -0 -0 -0 -1 -0 -1 0 1.25
2 581 920 231 1 -0 -0 -0 -0 -1 -0 -1 0 1.25
2 581 690 171 1 -0 -0 -0 -0 -1 -0 -1 0 1.25
2 581 620 171 1 -0 -0 -0 -0 -1 -0 -1 0 1.25
2 582 1042.5 320.11016505745329 1 0 0 -0 0 1 0 -1 0 1.5
2 582 1055.2506198471799 448.22033011490652 1 0 0 -0 0 1 0 -1 0 1.5
2 581 245 151 1 -0 -0 -0 -0 -1 -0 -1 0 1.25
2 581 175 151 1 -0 -0 -0 -0 -1 -0 -1 0 1.25
2 585 89 350.59366197183101 -1 -0 -0 0 -0 1 0 -1 -0 12.5
2 585 127 357.23028169014083 -1 -0 -0 0 -0 1 0 -1 -0 12.5
2 246.30633802816891 92.889087301227519 0 -1.1102230246251565e-16 -0 -1 -1 0 1.1102230246251565e-16 -0 -1 0 12.5
2 239.66971830985909 130.88908730122753 0 -1.1102230246251565e-16 -0 -1 -1 0 1.1102230246251565e-16 -0 -1 0 12.5
1 583 1037 192 1 0 0 -0 0 1 0 -1 0 
2 404.89999999999992 1040.8890873012276 0 -1.1102230246251565e-16 -0 -1 -1 0 1.1102230246251565e-16 0 -1 0 1.5
1 595 990 231 1 -0 -0 -0 -0 -1 -0 -1 0 
2 365.89999999999992 993.88908730122751 0 -1.1102230246251565e-16 -0 -1 1 0 -1.1102230246251565e-16 0 -1 0 1.25
1 595 920 231 1 -0 -0 -0 -0 -1 -0 -1 0 
2 365.89999999999992 923.88908730122751 0 -1.1102230246251565e-16 -0 -1 1 0 -1.1102230246251565e-16 0 -1 0 1.25
1 595 690 171 1 -0 -0 -0 -0 -1 -0 -1 0 
2 425.89999999999992 693.88908730122751 0 -1.1102230246251565e-16 -0 -1 1 0 -1.1102230246251565e-16 0 -1 0 1.25
1 595 620 171 1 -0 -0 -0 -0 -1 -0 -1 0 
2 425.89999999999992 623.88908730122751 0 -1.1102230246251565e-16 -0 -1 1 0 -1.1102230246251565e-16 0 -1 0 1.25
1 583 1042.5 320.11016505745329 1 0 0 -0 0 1 0 -1 0 
2 276.78983494254663 1046.3890873012276 0 -1.1102230246251565e-16 -0 -1 -1 0 1.1102230246251565e-16 0 -1 0 1.5
1 583 1055.2506198471799 448.22033011490652 1 0 0 -0 0 1 0 -1 0 
2 148.6796698850934 1059.1397071484075 0 -1.1102230246251565e-16 -0 -1 -1 0 1.1102230246251565e-16 0 -1 0 1.5
1 595 245 151 1 -0 -0 -0 -0 -1 -0 -1 0 
2 445.89999999999992 248.88908730122753 0 -1.1102230246251565e-16 -0 -1 1 0 -1.1102230246251565e-16 0 -1 0 1.25
1 595 175 151 1 -0 -0 -0 -0 -1 -0 -1 0 
2 445.89999999999992 178.88908730122753 0 -1.1102230246251565e-16 -0 -1 1 0 -1.1102230246251565e-16 0 -1 0 1.25
Triangulations 0

TShapes 339
Ve
5.53059249e-06
600 0 0
0 0

0101101
*
Ve
5.53059249e-06
600 1308.1 0
0 0

0101101
*
Ed
 5.53059249e-06 1 1 0
1  1 0 0 1308.1
2  1 1 0 0 1308.1
2  2 2 0 0 1308.1
0

0101000
+339 11 -338 11 *
Ve
8.4259611861e-05
586 1308.1 0
0 0

0101101
*
Ed
 1e-07 1 1 0
1  2 0 0 14
2  3 1 0 0 14
2  4 3 0 0 14
0

0101000
+338 11 -336 11 *
Ve
8.4259611861e-05
586 1290.1 0
0 0

0101101
*
Ed
 8.4259611861e-05 1 1 0
1  3 0 0 18
2  5 1 10 0 18
2  6 4 0 0 18
0

0101000
+334 12 -336 12 *
Ve
1e-07
582 1290.1 0
0 0

0101101
*
Ed
 1e-07 1 1 0
1  4 0 0 4
2  7 1 10 0 4
2  8 5 0 0 4
0

0101000
+332 12 -334 12 *
Ve
1e-07
582 18 0
0 0

0101101
*
Ed
 1e-07 1 1 0
1  5 0 18 1290.1
2  9 1 15 18 1290.1
2  10 6 0 18 1290.1
0

0101000
+330 16 -332 16 *
Ve
8.4259611861e-05
586 18 0
0 0

0101101
*
Ed
 1e-07 1 1 0
1  6 0 0 4
2  11 1 10 0 4
2  12 7 0 0 4
0

0101000
+330 12 -328 12 *
Ve
8.4259611861e-05
586 0 0
0 0

0101101
*
Ed
 8.4259611861e-05 1 1 0
1  7 0 0 18
2  13 1 10 0 18
2  14 4 0 0 18
0

0101000
+326 12 -328 12 *
Ed
 1e-07 1 1 0
1  8 0 0 14
2  15 1 0 0 14
2  16 8 0 0 14
0

0101000
+339 11 -326 11 *
Wi

0101100
-337 10 -335 10 +333 0 +331 0 +329 14 -327 0 +325 0 +324 10 *
Fa
0  1e-07 1 10

0111000
+323 0 *
Ve
5.53059249e-06
600 0 90.4999999999987
0 0

0101101
*
Ve
1.6040898921e-05
600 0 101.500000000001
0 0

0101101
*
Ed
 5.53059249e-06 1 1 0
1  9 0 4.71238898038469 7.85398163397448
2  17 2 5 4.71238898038469 7.85398163397448
2  18 9 0 4.71238898038469 7.85398163397448
2  19 10 20 4.71238898038469 7.85398163397448
2  20 10 22 4.71238898038469 7.85398163397448
0

0101000
+321 23 -320 23 *
Ed
 5.53059249e-06 1 1 0
1  10 0 309.550000000001 400.05
2  21 2 0 309.550000000001 400.05
2  22 8 0 309.550000000001 400.05
0

0101000
+321 11 -339 11 *
Ve
1.6040898856e-05
600 1308.1 58.5000000000212
0 0

0101101
*
Ed
 5.53059249e-06 1 1 0
1  11 0 0 58.5000000000212
2  23 2 0 0 58.5000000000212
2  24 3 0 0 58.5000000000212
0

0101000
+338 11 -317 11 *
Ve
5.53059249e-06
600 1300.32182540695 64
0 0

0101101
*
Ed
 5.53059249e-06 1 1 0
1  12 0 0 1.5707963267949
2  25 2 5 0 1.5707963267949
2  26 11 0 0 1.5707963267949
2  27 12 20 0 1.5707963267949
2  28 12 22 0 1.5707963267949
0

0101000
+315 23 -317 23 *
Ve
1.6040898856e-05
600 1308.1 69.4999999999788
0 0

0101101
*
Ed
 5.53059249e-06 1 1 0
1  13 0 4.71238898038469 6.28318530717959
2  29 2 5 4.71238898038469 6.28318530717959
2  30 11 0 4.71238898038469 6.28318530717959
2  31 13 20 4.71238898038469 6.28318530717959
2  32 13 22 4.71238898038469 6.28318530717959
0

0101000
+313 23 -315 23 *
Ve
1.6040898856e-05
600 1308.1 116.500000000021
0 0

0101101
*
Ed
 5.53059249e-06 1 1 0
1  14 0 69.4999999999788 116.500000000021
2  33 2 0 69.4999999999788 116.500000000021
2  34 3 0 69.4999999999788 116.500000000021
0

0101000
+313 11 -311 11 *
Ve
5.53059249e-06
600 1300.32182540695 122
0 0

0101101
*
Ed
 5.53059249e-06 1 1 0
1  15 0 0 1.5707963267949
2  35 2 5 0 1.5707963267949
2  36 14 0 0 1.5707963267949
2  37 15 20 0 1.5707963267949
2  38 15 22 0 1.5707963267949
0

0101000
+309 23 -311 23 *
Ve
1.6040898856e-05
600 1308.1 127.499999999979
0 0

0101101
*
Ed
 5.53059249e-06 1 1 0
1  16 0 4.71238898038469 6.28318530717959
2  39 2 5 4.71238898038469 6.28318530717959
2  40 14 0 4.71238898038469 6.28318530717959
2  41 16 20 4.71238898038469 6.28318530717959
2  42 16 22 4.71238898038469 6.28318530717959
0

0101000
+307 23 -309 23 *
Ve
5.53059249e-06
600 1308.1 596.9
0 0

0101101
*
Ed
 5.53059249e-06 1 1 0
1  17 0 127.499999999979 596.9
2  43 2 0 127.499999999979 596.9
2  44 3 0 127.499999999979 596.9
0

0101000
+307 11 -305 11 *
Ve
5.53059249e-06
600 1127.125 596.9
0 0

0101101
*
Ed
 5.53059249e-06 1 1 0
1  18 0 0 180.975
2  45 2 0 0 180.975
2  46 17 0 0 180.975
0

0101000
+305 11 -303 11 *
Ve
5.53059249e-06
600 0 400.05
0 0

0101101
*
Ed
 5.53059249e-06 1 1 0
1  19 0 0 1144.18560038352
2  47 2 0 0 1144.18560038352
2  48 18 0 0 1144.18560038352
0

0101000
+303 11 -301 11 *
Ve
1.6040898839e-05
600 0 159.500000000001
0 0

0101101
*
Ed
 5.53059249e-06 1 1 0
1  20 0 0 240.549999999999
2  49 2 0 0 240.549999999999
2  50 8 0 0 240.549999999999
0

0101000
+301 11 -299 11 *
Ve
5.53059249e-06
600 0 148.499999999999
0 0

0101101
*
Ed
 5.53059249e-06 1 1 0
1  21 0 4.71238898038469 7.85398163397448
2  51 2 5 4.71238898038469 7.85398163397448
2  52 19 0 4.71238898038469 7.85398163397448
2  53 20 20 4.71238898038469 7.85398163397448
2  54 20 22 4.71238898038469 7.85398163397448
0

0101000
+297 23 -299 23 *
Ed
 5.53059249e-06 1 1 0
1  22 0 251.550000000001 298.549999999999
2  55 2 0 251.550000000001 298.549999999999
2  56 8 0 251.550000000001 298.549999999999
0

0101000
+297 11 -320 11 *
Wi

0101100
-319 18 +318 17 +337 17 +316 17 -314 18 -312 18 +310 17 -308 18 -306 18 +304 17 
+302 17 +300 17 +298 17 -296 18 +295 17 *
Ve
1e-07
600 89 358.531161971831
0 0

0101101
*
Ed
 1e-07 1 1 0
1  23 0 0 6.28318530717959
2  57 2 25 0 6.28318530717959
2  58 21 0 0 6.28318530717959
0

0101100
+293 26 -293 26 *
Wi

0101100
-292 24 *
Ve
1e-07
600 127 365.167781690141
0 0

0101101
*
Ed
 1e-07 1 1 0
1  24 0 0 6.28318530717959
2  59 2 25 0 6.28318530717959
2  60 22 0 0 6.28318530717959
0

0101100
+290 26 -290 26 *
Wi

0101100
-289 24 *
Fa
0  1e-07 2 17

0111000
+294 0 +291 0 +288 0 *
Ed
 5.53059249e-06 1 1 0
1  25 0 4.71238898038469 7.85398163397448
2  61 3 5 4.71238898038469 7.85398163397448
2  62 11 0 4.71238898038469 7.85398163397448
0

0101000
+317 23 -313 23 *
Ed
 5.53059249e-06 1 1 0
1  26 0 4.71238898038469 7.85398163397448
2  63 3 5 4.71238898038469 7.85398163397448
2  64 14 0 4.71238898038469 7.85398163397448
0

0101000
+311 23 -307 23 *
Ve
8.4259611861e-05
586 1308.1 596.9
0 0

0101101
*
Ed
 1e-07 1 1 0
1  27 0 0 14
2  65 3 0 0 14
2  66 17 0 0 14
0

0101000
+305 11 -284 11 *
Ed
 8.4259611861e-05 1 1 0
1  28 0 0 596.9
2  67 3 10 0 596.9
2  68 4 0 0 596.9
0

0101000
+336 12 -284 12 *
Wi

0101100
-316 10 -286 27 -310 10 -285 27 -304 10 -283 10 +282 0 +335 10 *
Fa
0  1e-07 3 10

0111000
+281 0 *
Ve
8.4259611861e-05
586 1290.1 18
0 0

0101101
*
Ed
 8.4259611861e-05 1 1 0
1  29 0 0 18
2  69 5 0 0 18
2  70 4 0 0 18
0

0101000
+334 12 -279 12 *
Ve
1e-07
582 1290.1 18
0 0

0101101
*
Ed
 1e-07 1 1 0
1  30 0 0 4
2  71 5 0 0 4
2  72 23 0 0 4
0

0101000
+277 12 -279 12 *
Ed
 1e-07 1 1 0
1  31 0 0 18
2  73 5 0 0 18
2  74 6 14 0 18
0

0101000
+332 12 -277 12 *
Wi

0101100
-331 0 -278 0 +276 0 +275 0 *
Fa
0  1e-07 5 0

0111000
+274 0 *
Ve
1e-07
582 18 18
0 0

0101101
*
Ed
 1e-07 1 1 0
1  32 0 0 18
2  75 6 14 0 18
2  76 7 0 0 18
0

0101000
+330 12 -272 12 *
Ed
 1e-07 1 1 0
1  33 0 0 1272.1
2  77 6 14 0 1272.1
2  78 23 0 0 1272.1
0

0101000
+272 12 -277 12 *
Wi

0101100
-271 0 -270 0 +275 0 +329 14 *
Fa
0  1e-07 6 14

0111000
+269 0 *
Ve
8.4259611861e-05
586 18 18
0 0

0101101
*
Ed
 8.4259611861e-05 1 1 0
1  34 0 0 18
2  79 7 0 0 18
2  80 4 0 0 18
0

0101000
+328 12 -267 12 *
Ed
 1e-07 1 1 0
1  35 0 0 4
2  81 7 0 0 4
2  82 23 0 0 4
0

0101000
+272 12 -267 12 *
Wi

0101100
-327 0 -266 0 +265 0 +271 0 *
Fa
0  1e-07 7 0

0111000
+264 0 *
Ve
5.53059252e-06
592.221825406948 0 154
0 0

0101101
*
Ed
 5.53059249e-06 1 1 0
1  36 0 4.71238898038469 6.28318530717959
2  83 8 5 4.71238898038469 6.28318530717959
2  84 19 0 4.71238898038469 6.28318530717959
0

0101000
+299 23 -262 23 *
Ed
 5.53059249e-06 1 1 0
1  37 0 0 1.5707963267949
2  85 8 5 0 1.5707963267949
2  86 19 0 0 1.5707963267949
0

0101000
+262 23 -297 23 *
Ve
5.530592521e-06
592.221825406948 0 96
0 0

0101101
*
Ed
 5.53059249e-06 1 1 0
1  38 0 4.71238898038469 6.28318530717959
2  87 8 5 4.71238898038469 6.28318530717959
2  88 9 0 4.71238898038469 6.28318530717959
0

0101000
+320 23 -259 23 *
Ed
 5.53059249e-06 1 1 0
1  39 0 0 1.5707963267949
2  89 8 5 0 1.5707963267949
2  90 9 0 0 1.5707963267949
0

0101000
+259 23 -321 23 *
Ve
8.4259611861e-05
586 0 400.05
0 0

0101101
*
Ed
 8.4259611861e-05 1 1 0
1  40 0 0 400.05
2  91 8 10 0 400.05
2  92 4 0 0 400.05
0

0101000
+326 12 -256 12 *
Ed
 1e-07 1 1 0
1  41 0 0 14
2  93 8 0 0 14
2  94 18 0 0 14
0

0101000
+301 11 -256 11 *
Wi

0101100
-298 10 -261 27 -260 27 -295 10 -258 27 -257 27 -318 10 -324 10 -255 0 +254 10 
*
Fa
0  1e-07 8 10

0111000
+253 0 *
Ve
5.530592502e-06
582 18.0000000000001 90.5
0 0

0101101
*
Ve
5.530592502e-06
582 18.0000000000001 101.5
0 0

0101101
*
Ed
 1e-07 1 1 0
1  42 0 4.71238898038469 7.85398163397448
2  95 9 0 4.71238898038469 7.85398163397448
2  96 24 28 4.71238898038469 7.85398163397448
2  97 25 30 4.71238898038469 7.85398163397448
2  98 25 32 4.71238898038469 7.85398163397448
0

0101000
+251 23 -250 23 *
Ve
8.4259611861e-05
586 18 100.716990566034
0 0

0101101
*
Ed
 1.00000029e-07 1 1 0
1  43 0 1.5707963267949 2.11094030447077
2  99 9 27 1.5707963267949 2.11094030447077
2  100 26 0 1.5707963267949 2.11094030447077
0

0101000
+250 12 -248 12 *
Ve
8.4259611861e-05
586 6.2218254069479 96
0 0

0101101
*
Ed
 8.4259611861e-05 1 1 0
1  44 0 1.03065234911902 3.14159265358979
2  101 9 27 1.03065234911902 3.14159265358979
2  102 4 0 1.03065234911902 3.14159265358979
2  103 27 34 1.03065234911902 3.14159265358979
2  104 27 36 1.03065234911902 3.14159265358979
0

0101000
+248 12 -246 12 *
Ed
 1e-07 1 1 0
1  45 0 15.5 24.2989898732233
3  105 106CN 9 0 15.5 24.2989898732233
0

0101000
+259 23 -246 23 *
Ve
8.4259611861e-05
586 18 91.2830094339655
0 0

0101101
*
Ed
 8.4259611861e-05 1 1 0
1  46 0 3.14159265358979 5.25253295806057
2  107 9 27 3.14159265358979 5.25253295806057
2  108 4 0 3.14159265358979 5.25253295806057
2  109 28 34 3.14159265358979 5.25253295806057
2  110 28 36 3.14159265358979 5.25253295806057
0

0101000
+246 12 -243 12 *
Ed
 1.00000029e-07 1 1 0
1  47 0 4.17224500270882 4.71238898038469
2  111 9 27 4.17224500270882 4.71238898038469
2  112 29 0 4.17224500270882 4.71238898038469
0

0101000
+243 12 -251 12 *
Wi

0101100
-249 27 -247 0 -245 0 +244 27 +258 27 +319 27 +257 27 -244 27 -242 0 -241 0 
*
Fa
0  1e-07 9 27

0111000
+240 0 *
Ve
1.00000018e-07
582 1282.32182540695 64
0 0

0101101
*
Ed
 1e-07 1 1 0
1  48 0 15.5 40.9558441227157
3  113 114CN 11 0 15.5 40.9558441227157
0

0101000
+315 23 -238 23 *
Ve
1.00000116e-07
582 1290.1 58.5
0 0

0101101
*
Ed
 1e-07 1 1 0
1  49 0 0 1.5707963267949
2  115 11 0 0 1.5707963267949
2  116 24 28 0 1.5707963267949
2  117 30 30 0 1.5707963267949
2  118 30 32 0 1.5707963267949
0

0101000
+238 23 -236 23 *
Ve
8.4259611861e-05
586 1290.1 59.2830094339717
0 0

0101101
*
Ed
 1.00000116e-07 1 1 0
1  50 0 4.17224500270847 4.71238898038469
2  119 11 27 4.17224500270847 4.71238898038469
2  120 31 0 4.17224500270847 4.71238898038469
0

0101000
+234 12 -236 12 *
Ve
8.4259611861e-05
586 1290.1 68.7169905660283
0 0

0101101
*
Ed
 8.4259611861e-05 1 1 0
1  51 0 1.03065234911869 5.25253295806089
2  121 11 27 1.03065234911869 5.25253295806089
2  122 4 0 1.03065234911869 5.25253295806089
2  123 32 34 1.03065234911869 5.25253295806089
2  124 32 36 1.03065234911869 5.25253295806089
0

0101000
+234 12 -232 12 *
Ve
1.00000115e-07
582 1290.1 69.5
0 0

0101101
*
Ed
 1.00000115e-07 1 1 0
1  52 0 1.5707963267949 2.11094030447111
2  125 11 27 1.5707963267949 2.11094030447111
2  126 33 0 1.5707963267949 2.11094030447111
0

0101000
+230 12 -232 12 *
Ed
 1e-07 1 1 0
1  53 0 4.71238898038469 6.28318530717959
2  127 11 0 4.71238898038469 6.28318530717959
2  128 24 28 4.71238898038469 6.28318530717959
2  129 34 30 4.71238898038469 6.28318530717959
2  130 34 32 4.71238898038469 6.28318530717959
0

0101000
+230 23 -238 23 *
Wi

0101100
+237 27 +312 27 +286 27 +314 27 -237 27 -235 27 +233 0 -231 0 +229 0 -228 27 
*
Fa
0  1e-07 11 27

0111000
+227 0 *
Ve
1.00000018e-07
582 1282.32182540695 122
0 0

0101101
*
Ed
 1e-07 1 1 0
1  54 0 15.5 40.9558441227157
3  131 132CN 14 0 15.5 40.9558441227157
0

0101000
+309 23 -225 23 *
Ve
1.00000115e-07
582 1290.1 116.5
0 0

0101101
*
Ed
 1e-07 1 1 0
1  55 0 0 1.5707963267949
2  133 14 0 0 1.5707963267949
2  134 24 28 0 1.5707963267949
2  135 35 30 0 1.5707963267949
2  136 35 32 0 1.5707963267949
0

0101000
+225 23 -223 23 *
Ve
8.4259611861e-05
586 1290.1 117.283009433972
0 0

0101101
*
Ed
 1.00000115e-07 1 1 0
1  56 0 4.17224500270847 4.71238898038469
2  137 14 27 4.17224500270847 4.71238898038469
2  138 33 0 4.17224500270847 4.71238898038469
0

0101000
+221 12 -223 12 *
Ve
8.4259611861e-05
586 1290.1 126.716990566028
0 0

0101101
*
Ed
 8.4259611861e-05 1 1 0
1  57 0 1.03065234911869 5.25253295806089
2  139 14 27 1.03065234911869 5.25253295806089
2  140 4 0 1.03065234911869 5.25253295806089
2  141 36 34 1.03065234911869 5.25253295806089
2  142 36 36 1.03065234911869 5.25253295806089
0

0101000
+221 12 -219 12 *
Ve
1.00000115e-07
582 1290.1 127.5
0 0

0101101
*
Ed
 1.00000115e-07 1 1 0
1  58 0 1.5707963267949 2.11094030447111
2  143 14 27 1.5707963267949 2.11094030447111
2  144 37 0 1.5707963267949 2.11094030447111
0

0101000
+217 12 -219 12 *
Ed
 1e-07 1 1 0
1  59 0 4.71238898038469 6.28318530717959
2  145 14 0 4.71238898038469 6.28318530717959
2  146 24 28 4.71238898038469 6.28318530717959
2  147 38 30 4.71238898038469 6.28318530717959
2  148 38 32 4.71238898038469 6.28318530717959
0

0101000
+217 23 -225 23 *
Wi

0101100
+224 27 +306 27 +285 27 +308 27 -224 27 -222 27 +220 0 -218 0 +216 0 -215 27 
*
Fa
0  1e-07 14 27

0111000
+214 0 *
Ve
8.4259611861e-05
586 1127.125 596.9
0 0

0101101
*
Ed
 1e-07 1 1 0
1  60 0 0 14
2  149 17 0 0 14
2  150 18 0 0 14
0

0101000
+303 11 -212 11 *
Ed
 8.4259611861e-05 1 1 0
1  61 0 -162.975 18
2  151 17 10 -162.975 18
2  152 4 0 -162.975 18
0

0101000
+212 12 -284 12 *
Wi

0101000
-302 10 -211 10 -210 0 +283 10 *
Fa
0  1e-07 17 10

0111000
+209 0 *
Ve
1e-07
582 1127.125 596.9
0 0

0101101
*
Ed
 1e-07 1 1 0
1  62 0 14 18
2  153 18 0 14 18
2  154 39 37 14 18
0

0101000
+212 11 -207 11 *
Ve
1e-07
582 0 400.05
0 0

0101101
*
Ed
 1e-07 1 1 0
1  63 0 14 18
2  155 18 0 14 18
2  156 40 37 14 18
0

0101000
+256 11 -205 11 *
Ed
 1e-07 1 1 0
1  64 0 0 1144.18560038352
2  157 18 15 0 1144.18560038352
2  158 24 0 0 1144.18560038352
0

0101000
+207 16 -205 16 *
Wi

0101100
+211 10 +206 10 -254 10 -204 10 -300 10 +203 14 *
Fa
0  1e-07 18 10

0111000
+202 0 *
Ve
5.530592502e-06
582 18.0000000000001 148.5
0 0

0101101
*
Ve
5.530592502e-06
582 18.0000000000001 159.5
0 0

0101101
*
Ed
 1e-07 1 1 0
1  65 0 4.71238898038469 7.85398163397448
2  159 19 0 4.71238898038469 7.85398163397448
2  160 24 28 4.71238898038469 7.85398163397448
2  161 41 30 4.71238898038469 7.85398163397448
2  162 41 32 4.71238898038469 7.85398163397448
0

0101000
+200 23 -199 23 *
Ve
8.4259611861e-05
586 18 158.716990566034
0 0

0101101
*
Ed
 1.00000032e-07 1 1 0
1  66 0 1.5707963267949 2.11094030447077
2  163 19 27 1.5707963267949 2.11094030447077
2  164 42 0 1.5707963267949 2.11094030447077
0

0101000
+199 12 -197 12 *
Ve
8.4259611861e-05
586 6.2218254069479 154
0 0

0101101
*
Ed
 8.4259611861e-05 1 1 0
1  67 0 1.03065234911902 3.14159265358979
2  165 19 27 1.03065234911902 3.14159265358979
2  166 4 0 1.03065234911902 3.14159265358979
2  167 43 34 1.03065234911902 3.14159265358979
2  168 43 36 1.03065234911902 3.14159265358979
0

0101000
+197 12 -195 12 *
Ed
 1e-07 1 1 0
1  68 0 15.5 24.2989898732233
3  169 170CN 19 0 15.5 24.2989898732233
0

0101000
+262 23 -195 23 *
Ve
8.4259611861e-05
586 18 149.283009433966
0 0

0101101
*
Ed
 8.4259611861e-05 1 1 0
1  69 0 3.14159265358979 5.25253295806057
2  171 19 27 3.14159265358979 5.25253295806057
2  172 4 0 3.14159265358979 5.25253295806057
2  173 44 34 3.14159265358979 5.25253295806057
2  174 44 36 3.14159265358979 5.25253295806057
0

0101000
+195 12 -192 12 *
Ed
 1.00000032e-07 1 1 0
1  70 0 4.17224500270882 4.71238898038469
2  175 19 27 4.17224500270882 4.71238898038469
2  176 26 0 4.17224500270882 4.71238898038469
0

0101000
+192 12 -200 12 *
Wi

0101100
-198 27 -196 0 -194 0 +193 27 +261 27 +296 27 +260 27 -193 27 -191 0 -190 0 
*
Fa
0  1e-07 19 27

0111000
+189 0 *
Ve
1e-07
585 89 358.531161971831
0 0

0101101
*
Ed
 1e-07 1 1 0
1  71 0 0 6.28318530717959
2  177 21 0 0 6.28318530717959
2  178 45 0 0 6.28318530717959
0

0101100
+187 26 -187 26 *
Ed
 1e-07 1 1 0
1  72 0 1 16
3  179 180CN 21 0 1 16
0

0101000
+293 26 -187 26 *
Wi

0101100
-186 0 +185 0 +292 0 -185 0 *
Fa
0  1e-07 21 0

0111000
+184 0 *
Ve
1e-07
585 127 365.167781690141
0 0

0101101
*
Ed
 1e-07 1 1 0
1  73 0 0 6.28318530717959
2  181 22 0 0 6.28318530717959
2  182 46 0 0 6.28318530717959
0

0101100
+182 26 -182 26 *
Ed
 1e-07 1 1 0
1  74 0 1 16
3  183 184CN 22 0 1 16
0

0101000
+290 26 -182 26 *
Wi

0101100
-181 0 +180 0 +289 0 -180 0 *
Fa
0  1e-07 22 0

0111000
+179 0 *
Ed
 8.4259611861e-05 1 1 0
1  75 0 0 1272.1
2  185 23 0 0 1272.1
2  186 4 0 0 1272.1
0

0101000
+267 12 -279 12 *
Wi

0101100
-270 0 -276 0 +177 0 +265 0 *
Fa
0  1e-07 23 0

0111000
+176 0 *
Ve
1e-07
582 18 400.05
0 0

0101101
*
Ed
 1e-07 1 1 0
1  76 0 0 18
2  187 40 0 0 18
2  188 24 14 0 18
0

0101000
+205 12 -174 12 *
Ve
8.4259611861e-05
586 18 400.05
0 0

0101101
*
Ed
 1e-07 1 1 0
1  77 0 0 4
2  189 40 0 0 4
2  190 42 0 0 4
0

0101000
+174 12 -172 12 *
Ed
 8.4259611861e-05 1 1 0
1  78 0 0 18
2  191 40 0 0 18
2  192 4 0 0 18
0

0101000
+256 12 -172 12 *
Wi

0101100
-173 0 -171 0 +170 0 -204 10 *
Fa
0  1e-07 40 0

0111000
+169 0 *
Ed
 8.4259611861e-05 1 1 0
1  79 0 158.716990566034 400.05
2  193 42 0 158.716990566034 400.05
2  194 4 0 158.716990566034 400.05
0

0101000
+197 12 -172 12 *
Ed
 1e-07 1 1 0
1  80 0 159.5 400.05
2  195 42 0 159.5 400.05
2  196 24 14 159.5 400.05
0

0101000
+199 12 -174 12 *
Wi

0101100
-196 0 -167 0 +171 0 +166 0 *
Fa
0  1e-07 42 0

0111000
+165 0 *
Ed
 8.4259611861e-05 1 1 0
1  81 0 100.716990566034 149.283009433966
2  197 26 0 100.716990566034 149.283009433966
2  198 4 0 100.716990566034 149.283009433966
0

0101000
+248 12 -192 12 *
Ed
 1e-07 1 1 0
1  82 0 101.5 148.5
2  199 26 0 101.5 148.5
2  200 24 14 101.5 148.5
0

0101000
+250 12 -200 12 *
Wi

0101100
-247 0 -163 0 -190 0 +162 0 *
Fa
0  1e-07 26 0

0111000
+161 0 *
Ve
1e-07
582 18 36
0 0

0101101
*
Ve
8.4259611861e-05
586 18 36
0 0

0101101
*
Ed
 1e-07 1 1 0
1  83 0 0 4
2  201 29 0 0 4
2  202 47 0 0 4
0

0101000
+159 12 -158 12 *
Ed
 8.4259611861e-05 1 1 0
1  84 0 36 91.2830094339655
2  203 29 0 36 91.2830094339655
2  204 4 0 36 91.2830094339655
0

0101000
+158 12 -243 12 *
Ed
 1e-07 1 1 0
1  85 0 36 90.5
2  205 29 0 36 90.5
2  206 24 14 36 90.5
0

0101000
+159 12 -251 12 *
Wi

0101100
-157 0 -156 0 -241 0 +155 0 *
Fa
0  1e-07 29 0

0111000
+154 0 *
Ve
1e-07
582 1290.1 36
0 0

0101101
*
Ed
 1e-07 1 1 0
1  86 0 0 1272.1
2  207 47 0 0 1272.1
2  208 24 14 0 1272.1
0

0101000
+159 12 -152 12 *
Ve
8.4259611861e-05
586 1290.1 36
0 0

0101101
*
Ed
 1e-07 1 1 0
1  87 0 0 4
2  209 47 0 0 4
2  210 31 0 0 4
0

0101000
+152 12 -150 12 *
Ed
 8.4259611861e-05 1 1 0
1  88 0 0 1272.1
2  211 47 0 0 1272.1
2  212 4 0 0 1272.1
0

0101000
+158 12 -150 12 *
Wi

0101100
-151 0 -149 0 +148 0 +157 0 *
Fa
0  1e-07 47 0

0111000
+147 0 *
Ed
 8.4259611861e-05 1 1 0
1  89 0 36 59.2830094339717
2  213 31 0 36 59.2830094339717
2  214 4 0 36 59.2830094339717
0

0101000
+150 12 -234 12 *
Ed
 1e-07 1 1 0
1  90 0 36 58.5
2  215 31 0 36 58.5
2  216 24 14 36 58.5
0

0101000
+152 12 -236 12 *
Wi

0101100
-149 0 -145 0 -233 0 +144 0 *
Fa
0  1e-07 31 0

0111000
+143 0 *
Ed
 8.4259611861e-05 1 1 0
1  91 0 68.7169905660283 117.283009433972
2  217 33 0 68.7169905660283 117.283009433972
2  218 4 0 68.7169905660283 117.283009433972
0

0101000
+232 12 -221 12 *
Ed
 1e-07 1 1 0
1  92 0 69.5 116.5
2  219 33 0 69.5 116.5
2  220 24 14 69.5 116.5
0

0101000
+230 12 -223 12 *
Wi

0101100
-229 0 -141 0 -220 0 +140 0 *
Fa
0  1e-07 33 0

0111000
+139 0 *
Ve
8.4259611861e-05
586 1290.1 578.9
0 0

0101101
*
Ed
 8.4259611861e-05 1 1 0
1  93 0 126.716990566028 578.9
2  221 37 0 126.716990566028 578.9
2  222 4 0 126.716990566028 578.9
0

0101000
+219 12 -137 12 *
Ve
1e-07
582 1290.1 578.9
0 0

0101101
*
Ed
 1e-07 1 1 0
1  94 0 0 4
2  223 37 0 0 4
2  224 48 0 0 4
0

0101000
+135 12 -137 12 *
Ed
 1e-07 1 1 0
1  95 0 127.5 578.9
2  225 37 0 127.5 578.9
2  226 24 14 127.5 578.9
0

0101000
+217 12 -135 12 *
Wi

0101100
-216 0 -136 0 +134 0 +133 0 *
Fa
0  1e-07 37 0

0111000
+132 0 *
Ve
1e-07
582 1127.125 578.9
0 0

0101101
*
Ed
 1e-07 1 1 0
1  96 0 0 18
2  227 24 14 0 18
2  228 39 0 0 18
0

0101000
+130 12 -207 12 *
Ed
 1e-07 1 1 0
1  97 0 0 162.975
2  229 24 14 0 162.975
2  230 48 0 0 162.975
0

0101000
+130 12 -135 12 *
Wi

0101100
-155 0 -249 27 -162 0 -198 27 -166 0 +173 0 +203 14 +129 0 -128 0 +133 0 
-215 27 -222 27 +140 0 -228 27 -235 27 +144 0 +151 0 *
Ve
1e-07
582 1037 193.5
0 0

0101101
*
Ed
 1e-07 1 1 0
1  98 0 0 6.28318530717959
2  231 24 40 0 6.28318530717959
2  232 49 0 0 6.28318530717959
0

0101000
+126 41 -126 41 *
Wi

0101100
-125 39 *
Ve
1e-07
582 990 229.75
0 0

0101101
*
Ed
 1e-07 1 1 0
1  99 0 0 6.28318530717959
2  233 24 28 0 6.28318530717959
2  234 50 0 0 6.28318530717959
0

0101100
+123 23 -123 23 *
Wi

0101100
+122 27 *
Ve
1e-07
582 920 229.75
0 0

0101101
*
Ed
 1e-07 1 1 0
1  100 0 0 6.28318530717959
2  235 24 28 0 6.28318530717959
2  236 51 0 0 6.28318530717959
0

0101100
+120 23 -120 23 *
Wi

0101100
+119 27 *
Ve
1e-07
582 690 169.75
0 0

0101101
*
Ed
 1e-07 1 1 0
1  101 0 0 6.28318530717959
2  237 24 28 0 6.28318530717959
2  238 52 0 0 6.28318530717959
0

0101100
+117 23 -117 23 *
Wi

0101100
+116 27 *
Ve
1e-07
582 620 169.75
0 0

0101101
*
Ed
 1e-07 1 1 0
1  102 0 0 6.28318530717959
2  239 24 28 0 6.28318530717959
2  240 53 0 0 6.28318530717959
0

0101100
+114 23 -114 23 *
Wi

0101100
+113 27 *
Ve
1e-07
582 1042.5 321.610165057453
0 0

0101101
*
Ed
 1e-07 1 1 0
1  103 0 0 6.28318530717959
2  241 24 40 0 6.28318530717959
2  242 54 0 0 6.28318530717959
0

0101000
+111 41 -111 41 *
Wi

0101100
-110 39 *
Ve
1e-07
582 1055.25061984718 449.720330114907
0 0

0101101
*
Ed
 1e-07 1 1 0
1  104 0 0 6.28318530717959
2  243 24 40 0 6.28318530717959
2  244 55 0 0 6.28318530717959
0

0101000
+108 41 -108 41 *
Wi

0101100
-107 39 *
Ve
1e-07
582 245 149.75
0 0

0101101
*
Ed
 1e-07 1 1 0
1  105 0 0 6.28318530717959
2  245 24 28 0 6.28318530717959
2  246 56 0 0 6.28318530717959
0

0101100
+105 23 -105 23 *
Wi

0101100
+104 27 *
Ve
1e-07
582 175 149.75
0 0

0101101
*
Ed
 1e-07 1 1 0
1  106 0 0 6.28318530717959
2  247 24 28 0 6.28318530717959
2  248 57 0 0 6.28318530717959
0

0101100
+102 23 -102 23 *
Wi

0101100
+101 27 *
Ve
1e-07
582 89 363.093661971831
0 0

0101101
*
Ed
 1e-07 1 1 0
1  107 0 0 6.28318530717959
2  249 24 42 0 6.28318530717959
2  250 58 0 0 6.28318530717959
0

0101100
+99 26 -99 26 *
Wi

0101100
-98 38 *
Ve
1e-07
582 127 369.730281690141
0 0

0101101
*
Ed
 1e-07 1 1 0
1  108 0 0 6.28318530717959
2  251 24 42 0 6.28318530717959
2  252 59 0 0 6.28318530717959
0

0101100
+96 26 -96 26 *
Wi

0101100
-95 38 *
Fa
0  1e-07 24 14

0111000
+127 0 +124 0 +121 0 +118 0 +115 0 +112 0 +109 0 +106 0 +103 0 +100 0 
+97 0 +94 0 *
Ve
8.4259611861e-05
586 1127.125 578.9
0 0

0101101
*
Ed
 1e-07 1 1 0
1  109 0 0 4
2  253 39 0 0 4
2  254 48 0 0 4
0

0101000
+130 12 -92 12 *
Ed
 8.4259611861e-05 1 1 0
1  110 0 0 18
2  255 39 0 0 18
2  256 4 0 0 18
0

0101000
+92 12 -212 12 *
Wi

0101100
-91 0 -90 0 -206 10 +129 0 *
Fa
0  1e-07 39 0

0111000
+89 0 *
Ve
1e-07
585 89 363.093661971831
0 0

0101101
*
Ed
 1e-07 1 1 0
1  111 0 0 6.28318530717959
2  257 45 0 0 6.28318530717959
2  258 58 0 0 6.28318530717959
2  259 60 44 0 6.28318530717959
2  260 60 46 0 6.28318530717959
0

0101000
+87 26 -87 26 *
Wi

0101100
+86 0 *
Wi

0101100
-186 0 *
Fa
0  1e-07 45 0

0111000
+85 0 +84 0 *
Ve
1e-07
585 127 369.730281690141
0 0

0101101
*
Ed
 1e-07 1 1 0
1  112 0 0 6.28318530717959
2  261 46 0 0 6.28318530717959
2  262 59 0 0 6.28318530717959
2  263 61 48 0 6.28318530717959
2  264 61 50 0 6.28318530717959
0

0101000
+82 26 -82 26 *
Wi

0101100
+81 0 *
Wi

0101100
-181 0 *
Fa
0  1e-07 46 0

0111000
+80 0 +79 0 *
Ed
 8.4259611861e-05 1 1 0
1  113 0 0 162.975
2  265 48 0 0 162.975
2  266 4 0 0 162.975
0

0101000
+92 12 -137 12 *
Wi

0101100
-128 0 -134 0 +77 0 +91 0 *
Fa
0  1e-07 48 0

0111000
+76 0 *
Ve
1e-07
583 1037 193.5
0 0

0101101
*
Ed
 1e-07 1 1 0
1  114 0 0 6.28318530717959
2  267 49 0 0 6.28318530717959
2  268 62 0 0 6.28318530717959
2  269 63 52 0 6.28318530717959
2  270 63 54 0 6.28318530717959
0

0101000
+74 41 -74 41 *
Ed
 1e-07 1 1 0
1  115 0 0 1
3  271 272CN 49 0 0 1
0

0101000
+126 41 -74 41 *
Wi

0101100
-73 0 +72 0 +125 0 -72 0 *
Fa
0  1e-07 49 0

0111000
+71 0 *
Ve
1e-07
595 990 229.75
0 0

0101101
*
Ed
 1e-07 1 1 0
1  116 0 1 14
3  273 274CN 50 0 1 14
0

0101000
+123 23 -69 23 *
Ed
 1e-07 1 1 0
1  117 0 0 6.28318530717959
2  275 50 0 0 6.28318530717959
2  276 64 0 0 6.28318530717959
2  277 65 56 0 6.28318530717959
2  278 65 58 0 6.28318530717959
0

0101000
+69 23 -69 23 *
Wi

0101100
+68 0 +122 0 -68 0 -67 0 *
Fa
0  1e-07 50 0

0111000
+66 0 *
Ve
1e-07
595 920 229.75
0 0

0101101
*
Ed
 1e-07 1 1 0
1  118 0 1 14
3  279 280CN 51 0 1 14
0

0101000
+120 23 -64 23 *
Ed
 1e-07 1 1 0
1  119 0 0 6.28318530717959
2  281 51 0 0 6.28318530717959
2  282 66 0 0 6.28318530717959
2  283 67 60 0 6.28318530717959
2  284 67 62 0 6.28318530717959
0

0101000
+64 23 -64 23 *
Wi

0101100
+63 0 +119 0 -63 0 -62 0 *
Fa
0  1e-07 51 0

0111000
+61 0 *
Ve
1e-07
595 690 169.75
0 0

0101101
*
Ed
 1e-07 1 1 0
1  120 0 1 14
3  285 286CN 52 0 1 14
0

0101000
+117 23 -59 23 *
Ed
 1e-07 1 1 0
1  121 0 0 6.28318530717959
2  287 52 0 0 6.28318530717959
2  288 68 0 0 6.28318530717959
2  289 69 64 0 6.28318530717959
2  290 69 66 0 6.28318530717959
0

0101000
+59 23 -59 23 *
Wi

0101100
+58 0 +116 0 -58 0 -57 0 *
Fa
0  1e-07 52 0

0111000
+56 0 *
Ve
1e-07
595 620 169.75
0 0

0101101
*
Ed
 1e-07 1 1 0
1  122 0 1 14
3  291 292CN 53 0 1 14
0

0101000
+114 23 -54 23 *
Ed
 1e-07 1 1 0
1  123 0 0 6.28318530717959
2  293 53 0 0 6.28318530717959
2  294 70 0 0 6.28318530717959
2  295 71 68 0 6.28318530717959
2  296 71 70 0 6.28318530717959
0

0101000
+54 23 -54 23 *
Wi

0101100
+53 0 +113 0 -53 0 -52 0 *
Fa
0  1e-07 53 0

0111000
+51 0 *
Ve
1e-07
583 1042.5 321.610165057453
0 0

0101101
*
Ed
 1e-07 1 1 0
1  124 0 0 6.28318530717959
2  297 54 0 0 6.28318530717959
2  298 72 0 0 6.28318530717959
2  299 73 72 0 6.28318530717959
2  300 73 74 0 6.28318530717959
0

0101000
+49 41 -49 41 *
Ed
 1e-07 1 1 0
1  125 0 0 1
3  301 302CN 54 0 0 1
0

0101000
+111 41 -49 41 *
Wi

0101100
-48 0 +47 0 +110 0 -47 0 *
Fa
0  1e-07 54 0

0111000
+46 0 *
Ve
1e-07
583 1055.25061984718 449.720330114907
0 0

0101101
*
Ed
 1e-07 1 1 0
1  126 0 0 6.28318530717959
2  303 55 0 0 6.28318530717959
2  304 74 0 0 6.28318530717959
2  305 75 76 0 6.28318530717959
2  306 75 78 0 6.28318530717959
0

0101000
+44 41 -44 41 *
Ed
 1e-07 1 1 0
1  127 0 0 1
3  307 308CN 55 0 0 1
0

0101000
+108 41 -44 41 *
Wi

0101100
-43 0 +42 0 +107 0 -42 0 *
Fa
0  1e-07 55 0

0111000
+41 0 *
Ve
1e-07
595 245 149.75
0 0

0101101
*
Ed
 1e-07 1 1 0
1  128 0 1 14
3  309 310CN 56 0 1 14
0

0101000
+105 23 -39 23 *
Ed
 1e-07 1 1 0
1  129 0 0 6.28318530717959
2  311 56 0 0 6.28318530717959
2  312 76 0 0 6.28318530717959
2  313 77 80 0 6.28318530717959
2  314 77 82 0 6.28318530717959
0

0101000
+39 23 -39 23 *
Wi

0101100
+38 0 +104 0 -38 0 -37 0 *
Fa
0  1e-07 56 0

0111000
+36 0 *
Ve
1e-07
595 175 149.75
0 0

0101101
*
Ed
 1e-07 1 1 0
1  130 0 1 14
3  315 316CN 57 0 1 14
0

0101000
+102 23 -34 23 *
Ed
 1e-07 1 1 0
1  131 0 0 6.28318530717959
2  317 57 0 0 6.28318530717959
2  318 78 0 0 6.28318530717959
2  319 79 84 0 6.28318530717959
2  320 79 86 0 6.28318530717959
0

0101000
+34 23 -34 23 *
Wi

0101100
+33 0 +101 0 -33 0 -32 0 *
Fa
0  1e-07 57 0

0111000
+31 0 *
Ed
 1e-07 1 1 0
1  132 0 0 3
3  321 322CN 58 0 0 3
0

0101000
+87 26 -99 26 *
Wi

0101100
-98 0 +29 0 +86 0 -29 0 *
Fa
0  1e-07 58 0

0111000
+28 0 *
Ed
 1e-07 1 1 0
1  133 0 0 3
3  323 324CN 59 0 0 3
0

0101000
+82 26 -96 26 *
Wi

0101100
-95 0 +26 0 +81 0 -26 0 *
Fa
0  1e-07 59 0

0111000
+25 0 *
Wi

0101100
+73 0 *
Fa
0  1e-07 62 0

0111000
+23 0 *
Wi

0101100
+67 0 *
Fa
0  1e-07 64 0

0111000
+21 0 *
Wi

0101100
+62 0 *
Fa
0  1e-07 66 0

0111000
+19 0 *
Wi

0101100
+57 0 *
Fa
0  1e-07 68 0

0111000
+17 0 *
Wi

0101100
+52 0 *
Fa
0  1e-07 70 0

0111000
+15 0 *
Wi

0101100
+48 0 *
Fa
0  1e-07 72 0

0111000
+13 0 *
Wi

0101100
+43 0 *
Fa
0  1e-07 74 0

0111000
+11 0 *
Wi

0101100
+37 0 *
Fa
0  1e-07 76 0

0111000
+9 0 *
Wi

0101100
+32 0 *
Fa
0  1e-07 78 0

0111000
+7 0 *
Wi

0101100
+278 0 -177 0 -266 0 -325 0 +255 0 +170 0 -167 0 +194 0 +191 0 -163 0 
+245 0 +242 0 -156 0 +148 0 +145 0 +231 0 +141 0 +218 0 +136 0 -77 0 
+90 0 +210 0 -282 0 -333 0 *
Fa
0  8.4259611861e-05 4 0

0111000
+5 0 *
Sh

0101000
+322 0 +287 9 +280 0 +273 0 -268 0 -263 0 +252 0 +239 0 +226 0 +213 0 
+208 0 +201 0 +188 0 +183 38 +178 38 +175 0 -168 0 -164 0 -160 0 -153 0 
-146 0 +142 0 +138 0 +131 0 -93 0 +88 0 -83 38 -78 38 +75 0 -70 39 
+65 27 +60 27 +55 27 +50 27 -45 39 -40 39 +35 27 +30 27 +27 38 +24 38 
-22 39 +20 27 +18 27 +16 27 +14 27 -12 39 -10 39 +8 27 +6 27 +4 0 
*
So

0100000
+3 0 *
Co

1100000
+2 0 *

+1 4 