DBRep_DrawableShape

CASCADE Topology V1, (c) Matra-Datavision
Locations 100
1
              1               0               0               0 
              0               1               0               0 
              0               0               1              -1 
2  1 -1 0
1
              1               0               0               0 
              0               1               0               0 
              0               0               1              18 
2  1 1 3 1 0
2  3 -1 1 -1 0
1
              1               0               0               0 
              0               1               0               0 
              0               0               1               0 
1
              1               0               0               0 
              0 1.11022302462516e-16               1               0 
              0              -1 1.11022302462516e-16               0 
1
              1               0               0 -8.11088544250512 
              0               1               0              -0 
              0               0               1              18 
1
              1               0               0               0 
              0               1               0               0 
              0               0               1              -0 
1
              1               0               0               0 
              0               1               0               0 
              0               0               1               1 
2  6 1 7 1 8 1 9 1 10 1 1 1 0
2  1 -1 10 -1 9 -1 8 -1 7 -1 6 -1 0
2  10 -1 9 -1 8 -1 7 -1 6 -1 0
2  6 1 7 1 8 1 9 1 10 1 1 1 3 1 0
2  3 -1 1 -1 10 -1 9 -1 8 -1 7 -1 6 -1 0
1
              1               0               0               0 
              0               1               0               0 
              0               0               1               0 
1
              1               0               0               0 
              0               1               0               0 
              0               0               1               0 
1
              1               0               0               0 
              0               1               0               0 
              0               0               1               0 
1
              1               0               0               0 
              0               1               0               0 
              0               0               1 -8.88178419700125e-15 
1
              1               0               0               0 
              0               1               0               0 
              0               0               1               1 
1
              1               0               0               0 
              0               1               0               0 
              0               0               1              -1 
2  16 1 17 1 18 1 6 1 7 1 8 1 19 1 20 1 21 1 0
2  21 -1 20 -1 19 -1 8 -1 7 -1 6 -1 18 -1 17 -1 16 -1 0
1
              1               0               0               0 
              0               1               0               0 
              0               0               1              18 
2  24 -1 21 -1 20 -1 19 -1 8 -1 7 -1 6 -1 18 -1 17 -1 16 -1 0
1
              1               0               0               0 
              0               1               0               0 
              0               0               1 -8.88178419700125e-15 
1
              1               0               0               0 
              0               1               0               0 
              0               0               1               1 
1
              1               0               0               0 
              0               1               0               0 
              0               0               1              -1 
2  16 1 17 1 18 1 6 1 7 1 8 1 26 1 27 1 28 1 0
2  28 -1 27 -1 26 -1 8 -1 7 -1 6 -1 18 -1 17 -1 16 -1 0
1
              1               0               0               0 
              0               1               0               0 
              0               0               1              18 
2  31 -1 28 -1 27 -1 26 -1 8 -1 7 -1 6 -1 18 -1 17 -1 16 -1 0
1
              1               0               0               0 
              0               1               0               0 
              0               0               1 -8.88178419700125e-15 
1
              1               0               0               0 
              0               1               0               0 
              0               0               1               1 
1
              1               0               0               0 
              0               1               0               0 
              0               0               1              -1 
2  16 1 17 1 18 1 6 1 7 1 8 1 33 1 34 1 35 1 0
2  35 -1 34 -1 33 -1 8 -1 7 -1 6 -1 18 -1 17 -1 16 -1 0
1
              1               0               0               0 
              0               1               0               0 
              0               0               1              18 
2  38 -1 35 -1 34 -1 33 -1 8 -1 7 -1 6 -1 18 -1 17 -1 16 -1 0
1
              1               0               0               0 
              0               1               0               0 
              0               0               1 -8.88178419700125e-15 
1
              1               0               0               0 
              0               1               0               0 
              0               0               1               1 
1
              1               0               0               0 
              0               1               0               0 
              0               0               1              -1 
2  16 1 17 1 18 1 6 1 7 1 8 1 40 1 41 1 42 1 0
2  42 -1 41 -1 40 -1 8 -1 7 -1 6 -1 18 -1 17 -1 16 -1 0
1
              1               0               0               0 
              0               1               0               0 
              0               0               1              18 
2  45 -1 42 -1 41 -1 40 -1 8 -1 7 -1 6 -1 18 -1 17 -1 16 -1 0
1
              1               0               0               0 
              0               1               0               0 
              0               0               1 -8.88178419700125e-15 
1
              1               0               0               0 
              0               1               0               0 
              0               0               1               1 
1
              1               0               0               0 
              0               1               0               0 
              0               0               1              -1 
2  16 1 17 1 18 1 6 1 7 1 8 1 47 1 48 1 49 1 0
2  49 -1 48 -1 47 -1 8 -1 7 -1 6 -1 18 -1 17 -1 16 -1 0
1
              1               0               0               0 
              0               1               0               0 
              0               0               1              18 
2  52 -1 49 -1 48 -1 47 -1 8 -1 7 -1 6 -1 18 -1 17 -1 16 -1 0
1
              1               0               0               0 
              0               1               0               0 
              0               0               1 -8.88178419700125e-15 
1
              1               0               0               0 
              0               1               0               0 
              0               0               1               1 
1
              1               0               0               0 
              0               1               0               0 
              0               0               1              -1 
2  16 1 17 1 18 1 6 1 7 1 8 1 54 1 55 1 56 1 0
2  56 -1 55 -1 54 -1 8 -1 7 -1 6 -1 18 -1 17 -1 16 -1 0
1
              1               0               0               0 
              0               1               0               0 
              0               0               1              18 
2  59 -1 56 -1 55 -1 54 -1 8 -1 7 -1 6 -1 18 -1 17 -1 16 -1 0
1
              1               0               0               0 
              0               1               0               0 
              0               0               1 -8.88178419700124e-15 
1
              1               0               0               0 
              0               1               0               0 
              0               0               1               1 
1
              1               0               0               0 
              0               1               0               0 
              0               0               1              -1 
2  18 1 6 1 7 1 8 1 61 1 62 1 63 1 0
2  63 -1 62 -1 61 -1 8 -1 7 -1 6 -1 18 -1 0
1
              1               0               0               0 
              0               1               0               0 
              0               0               1              18 
2  66 -1 63 -1 62 -1 61 -1 8 -1 7 -1 6 -1 18 -1 0
1
              1               0               0               0 
              0               1               0               0 
              0               0               1              18 
2  68 -1 0
1
              1               0               0               0 
              0               1               0               0 
              0               0               1 -8.88178419700125e-15 
1
              1               0               0               0 
              0               1               0               0 
              0               0               1               1 
1
              1               0               0               0 
              0               1               0               0 
              0               0               1              -1 
2  16 1 17 1 18 1 6 1 7 1 8 1 70 1 71 1 72 1 0
2  72 -1 71 -1 70 -1 8 -1 7 -1 6 -1 18 -1 17 -1 16 -1 0
1
              1               0               0               0 
              0               1               0               0 
              0               0               1              18 
2  75 -1 72 -1 71 -1 70 -1 8 -1 7 -1 6 -1 18 -1 17 -1 16 -1 0
1
              1               0               0               0 
              0               1               0               0 
              0               0               1 -8.88178419700125e-15 
1
              1               0               0               0 
              0               1               0               0 
              0               0               1               1 
1
              1               0               0               0 
              0               1               0               0 
              0               0               1              -1 
2  16 1 17 1 18 1 6 1 7 1 8 1 77 1 78 1 79 1 0
2  79 -1 78 -1 77 -1 8 -1 7 -1 6 -1 18 -1 17 -1 16 -1 0
1
              1               0               0               0 
              0               1               0               0 
              0               0               1              18 
2  82 -1 79 -1 78 -1 77 -1 8 -1 7 -1 6 -1 18 -1 17 -1 16 -1 0
1
              1               0               0               0 
              0               1               0               0 
              0               0               1 -8.88178419700124e-15 
1
              1               0               0               0 
              0               1               0               0 
              0               0               1               1 
1
              1               0               0               0 
              0               1               0               0 
              0               0               1              -1 
2  18 1 6 1 7 1 8 1 84 1 85 1 86 1 0
2  86 -1 85 -1 84 -1 8 -1 7 -1 6 -1 18 -1 0
1
              1               0               0               0 
              0               1               0               0 
              0               0               1              18 
2  89 -1 86 -1 85 -1 84 -1 8 -1 7 -1 6 -1 18 -1 0
2  16 1 17 1 18 1 6 1 7 1 8 1 19 1 20 1 21 1 24 1 0
2  16 1 17 1 18 1 6 1 7 1 8 1 26 1 27 1 28 1 31 1 0
2  16 1 17 1 18 1 6 1 7 1 8 1 33 1 34 1 35 1 38 1 0
2  16 1 17 1 18 1 6 1 7 1 8 1 40 1 41 1 42 1 45 1 0
2  16 1 17 1 18 1 6 1 7 1 8 1 47 1 48 1 49 1 52 1 0
2  16 1 17 1 18 1 6 1 7 1 8 1 54 1 55 1 56 1 59 1 0
2  18 1 6 1 7 1 8 1 61 1 62 1 63 1 66 1 0
2  16 1 17 1 18 1 6 1 7 1 8 1 70 1 71 1 72 1 75 1 0
2  16 1 17 1 18 1 6 1 7 1 8 1 77 1 78 1 79 1 82 1 0
2  18 1 6 1 7 1 8 1 84 1 85 1 86 1 89 1 0
Curve2ds 80
1 0 0 1.1102230246251565e-16 -1 
1 572 0 0 -1 
1 400.05000000000001 -1.7708057242771234e-15 1.1102230246251565e-16 -1 
1 572 0 0 -1 
1 0 0 1 0 
1 285.99999999999989 -200.02500000000006 0 1 
1 1.9984014443252826e-15 -18.000000000000007 1 0 
1 285.99999999999989 -200.02500000000006 0 1 
1 0 0 1.1102230246251565e-16 -1 
1 3.3750779948604759e-14 0 0 -1 
1 568 0 1 0 
1 281.99999999999989 -200.02500000000006 1 0 
1 568 -18.000000000000007 1 0 
1 281.99999999999989 -200.02500000000006 1 0 
1 0 0 0 -1 
1 400.05000000000001 -1.7708057242771234e-15 1.1102230246251565e-16 -1 
1 0 0 1 0 
1 -286.00000000000006 200.02499999999995 1 0 
1 0 -18.000000000000007 1 0 
1 -286.00000000000006 200.02499999999995 1 0 
1 0 0 1 0 
1 -286.00000000000006 -200.02500000000006 0 1 
1 0 0 1 0 
1 0 -18.000000000000007 1 0 
1 0 0 1 0 
1 0 -17.999999999999996 1 0 
1 0 0 1 0 
1 0 -18.000000000000007 1 0 
1 0 0 1 0 
1 0 -18.000000000000007 1 0 
1 0 0 1 0 
1 0 -18.000000000000007 1 0 
1 0 0 1 0 
1 0 -18.000000000000007 1 0 
1 0 0 1 0 
1 0 -18.000000000000007 1 0 
1 0 0 1 0 
1 0 -18.000000000000007 1 0 
1 0 0 1 0 
1 0 -18.000000000000007 1 0 
1 0 0 1 0 
1 0 -18.000000000000007 1 0 
1 0 0 1 0 
1 0 -18.000000000000007 1 0 
1 0 0 1 0 
1 0 -18.000000000000007 1 0 
1 0 0 1 0 
1 0 -18.000000000000007 1 0 
1 0 0 1 0 
1 0 -18.000000000000007 1 0 
1 1.9984014443252826e-15 -18.000000000000007 1 0 
1 -286.00000000000006 -200.02500000000006 0 1 
1 0 0 0 -1 
1 6.2831853071795862 0 0 -1 
1 0 0 0 -1 
1 6.2831853071795862 0 0 -1 
1 0 0 0 -1 
1 6.2831853071795862 0 0 -1 
1 0 0 0 -1 
1 6.2831853071795862 0 0 -1 
1 0 0 0 -1 
1 6.2831853071795862 0 0 -1 
1 0 0 0 -1 
1 6.2831853071795862 0 0 -1 
1 0 0 0 -1 
1 6.2831853071795862 0 0 -1 
1 1.5707963267948823 0 0 -1 
1 3.1415926535898073 0 0 -1 
1 3.1415926535897931 0 0 -1 
1 1.570796326794925 0 0 -1 
1 1.5707963267948966 0 0 -1 
1 3.1415926535897505 0 0 -1 
1 3.1415926535897931 0 0 -1 
1 1.5707963267948823 0 0 -1 
1 0 0 0 -1 
1 6.2831853071795862 0 0 -1 
1 0 0 0 -1 
1 6.2831853071795862 0 0 -1 
1 0 0 0 -1 
1 6.2831853071795862 0 0 -1 
Curves 48
1 577.88911455749485 1.9984014443252818e-15 -1.4210854715202004e-14 0 0 1 
1 577.88911455749485 400.05000000000001 3.1974423109204508e-14 0 0 1 
1 577.88911455749485 1.9984014443252818e-15 0.99999999999998579 0 1 1.1102230246251565e-16 
1 577.88911455749485 1.9984014443252818e-15 0.99999999999998579 0 1 1.1102230246251565e-16 
1 5.8891145574948833 1.9984014443252818e-15 -1.4210854715202004e-14 0 0 1 
1 582 18 0 1 0 -0 
1 582 18 0 1 0 -0 
1 5.8891145574948833 400.05000000000001 3.1974423109204508e-14 0 0 1 
1 14 18 400.05000000000001 1 0 -0 
1 14 18 400.05000000000001 1 0 -0 
1 5.8891145574948833 1.9984014443252818e-15 0.99999999999998579 0 1 1.1102230246251565e-16 
2 90 17.999999999999996 210 -0 1 0 0 0 1 1 0 -0 12.699999999999989
2 300 17.999999999999986 84.903125000000003 -0 1 0 0 0 1 1 0 -0 3.5718750000000057
2 520 18 210 -0 1 0 0 0 1 1 0 -0 12.699999999999989
2 90 18.000000000000004 260 -0 1 0 0 0 1 1 0 -0 12.699999999999989
2 136.48750000000001 18 225 -0 1 0 0 0 1 1 0 -0 3.5718750000000057
2 90 18.000000000000011 310 -0 1 0 0 0 1 1 0 -0 12.699999999999989
2 68.224999999999994 18.000000000000018 365.09687500000001 -0 1 0 0 0 1 1 0 -0 3.5718749999999773
2 138.31411455749489 355.15937500000007 0 -0 0 -1 0 -1 -0 -1 -0 0 2
1 136.31411455749489 46.420312499999994 0 0 -1 -0 
1 73.101614557494884 357.15937500000001 0 1 0 0 
2 138.31411455749489 94.840625000000017 0 0 0 -1 1 0 0 0 -1 0 2
2 445.46411455749484 355.15937500000001 0 -0 0 -1 -1 -0 0 0 1 0 2
1 73.101614557494884 92.840625000000017 0 1 0 0 
1 447.4641145574949 46.420312499999994 0 0 -1 -0 
2 445.4641145574949 94.840624999999989 0 0 0 -1 0 1 0 1 -0 0 2
2 463.51249999999999 18 225 -0 1 0 0 0 1 1 0 -0 3.5718750000000057
2 300 18.000000000000018 365.09687500000001 -0 1 0 0 0 1 1 0 -0 3.5718749999999773
2 477.80000000000001 18.000000000000018 365.09687500000001 -0 1 0 0 0 1 1 0 -0 3.5718749999999773
1 5.8891145574948833 1.9984014443252818e-15 0.99999999999998579 0 1 1.1102230246251565e-16 
1 81.889114557494878 222.69999999999996 1.7023419710919068e-15 0 0 1 
1 291.88911455749491 88.475000000000009 -9.473903143468002e-15 0 0 1 
1 511.88911455749491 222.69999999999996 -9.9920072216264089e-16 0 0 1 
1 81.889114557494864 272.69999999999999 7.1054273576010019e-15 0 0 1 
1 128.37661455749489 228.57187500000001 3.7007434154171886e-16 0 0 1 
1 81.889114557494864 322.69999999999999 8.2896652505345027e-15 0 0 1 
1 60.114114557494879 368.66874999999999 1.3026616822268503e-14 0 0 1 
1 136.31411455749489 355.15937500000007 0 0 0 1 
1 138.31411455749492 357.15937500000001 0 0 0 1 
1 136.31411455749489 94.840625000000017 0 0 0 1 
1 445.4641145574949 357.15937500000001 0 0 0 1 
1 138.31411455749489 92.840625000000017 0 0 0 1 
1 447.46411455749484 355.15937500000013 0 0 0 1 
1 445.4641145574949 92.840624999999989 0 0 0 1 
1 447.4641145574949 94.840625000000017 0 0 0 1 
1 455.4016145574949 228.57187500000001 -1.2212453270876722e-15 0 0 1 
1 291.88911455749491 368.66874999999999 1.4210854715202004e-14 0 0 1 
1 469.68911455749486 368.66874999999999 1.4210854715202004e-14 0 0 1 
Polygon3D 0
PolygonOnTriangulations 0
Surfaces 24
1 577.88911455749485 1.9984014443252818e-15 -1.4210854715202004e-14 -1 0 0 0 1 1.1102230246251565e-16 0 1.1102230246251565e-16 -1 
1 5.8891145574948496 1.9984014443252818e-15 -1.4210854715202004e-14 0 1 0 1 0 0 0 0 -1 
1 5.8891145574948833 400.05000000000001 3.1974423109204508e-14 0 1 0 1 0 0 0 0 -1 
1 291.88911455749496 200.02500000000006 1.0000000000000089 0 0 1 1 0 -0 -0 1 0 
1 291.88911455749496 200.02500000000006 1.0000000000000089 0 0 1 1 0 -0 -0 1 0 
1 5.8891145574948833 1.9984014443252818e-15 -1.4210854715202004e-14 -1 0 0 0 1 1.1102230246251565e-16 0 1.1102230246251565e-16 -1 
2 81.889114557494878 210 7.1054273576010019e-15 0 1.1102230246251565e-16 -1 0 1 1.1102230246251565e-16 1 0 0 12.699999999999989
2 291.88911455749491 84.903125000000003 3.5527136788005009e-15 0 1.1102230246251565e-16 -1 0 1 1.1102230246251565e-16 1 0 0 3.5718750000000057
2 511.88911455749491 210 3.5527136788005009e-15 0 1.1102230246251565e-16 -1 0 1 1.1102230246251565e-16 1 0 0 12.699999999999989
2 81.889114557494878 260 3.5527136788005009e-15 0 1.1102230246251565e-16 -1 0 1 1.1102230246251565e-16 1 0 0 12.699999999999989
2 128.37661455749489 225 3.5527136788005009e-15 0 1.1102230246251565e-16 -1 0 1 1.1102230246251565e-16 1 0 0 3.5718750000000057
2 81.889114557494878 310 3.5527136788005009e-15 0 1.1102230246251565e-16 -1 0 1 1.1102230246251565e-16 1 0 0 12.699999999999989
2 60.114114557494879 365.09687500000001 0 0 1.1102230246251565e-16 -1 0 1 1.1102230246251565e-16 1 0 0 3.5718749999999773
2 138.31411455749489 355.15937500000007 0 -0 0 -1 0 -1 -0 -1 -0 0 2
2 138.31411455749489 94.840625000000017 0 0 0 -1 1 0 0 0 -1 0 2
2 445.46411455749484 355.15937500000001 0 -0 0 -1 -1 -0 0 0 1 0 2
2 445.4641145574949 94.840624999999989 0 0 0 -1 0 1 0 1 -0 0 2
2 455.4016145574949 225 3.5527136788005009e-15 0 1.1102230246251565e-16 -1 0 1 1.1102230246251565e-16 1 0 0 3.5718750000000057
2 291.88911455749491 365.09687500000001 0 0 1.1102230246251565e-16 -1 0 1 1.1102230246251565e-16 1 0 0 3.5718749999999773
2 469.68911455749492 365.09687500000001 0 0 1.1102230246251565e-16 -1 0 1 1.1102230246251565e-16 1 0 0 3.5718749999999773
1 136.31411455749489 355.15937500000007 0 1 0 -0 0 -1 0 0 -0 -1 
1 138.31411455749492 357.15937500000001 0 0 1 0 1 0 0 0 0 -1 
1 138.31411455749489 92.840625000000017 0 0 1 0 1 0 0 0 0 -1 
1 447.4641145574949 355.15937500000007 0 1 0 -0 0 -1 0 0 -0 -1 
Triangulations 0

TShapes 193
Ve
8.4259611861e-05
577.889114557495 1.99840144432528e-15 -1.4210854715202e-14
0 0

0101101
*
Ve
8.4259611861e-05
577.889114557495 1.99840144432528e-15 18
0 0

0101101
*
Ed
 8.4259611861e-05 1 1 0
1  1 0 0 18
2  1 1 0 0 18
2  2 2 0 0 18
0

0101000
+193 0 -192 0 *
Ve
8.4259611861e-05
577.889114557495 400.05 3.19744231092045e-14
0 0

0101101
*
Ve
8.4259611861e-05
577.889114557495 400.05 18
0 0

0101101
*
Ed
 8.4259611861e-05 1 1 0
1  2 0 0 18
2  3 1 0 0 18
2  4 3 0 0 18
0

0101000
+190 0 -189 0 *
Ed
 1e-07 1 1 0
1  3 0 0 400.05
2  5 1 2 0 400.05
2  6 4 0 0 400.05
0

0101000
+193 2 -190 2 *
Ed
 1e-07 1 1 0
1  4 0 0 400.05
2  7 1 5 0 400.05
2  8 5 0 0 400.05
0

0101000
+192 5 -189 5 *
Wi

0101100
+191 0 -188 0 -187 1 +186 4 *
Fa
0  1e-07 1 0

0101000
+185 0 *
Ve
8.4259611861e-05
5.88911455749488 1.99840144432528e-15 -1.4210854715202e-14
0 0

0101101
*
Ve
8.4259611861e-05
5.88911455749488 1.99840144432528e-15 18
0 0

0101101
*
Ed
 8.4259611861e-05 1 1 0
1  5 0 0 18
2  9 6 0 0 18
2  10 2 0 0 18
0

0101000
+183 0 -182 0 *
Ed
 8.4259611861e-05 1 1 0
1  6 0 -568 4
2  11 2 12 -568 4
2  12 4 13 -568 4
0

0101000
+183 12 -193 12 *
Ed
 8.4259611861e-05 1 1 0
1  7 0 -568 4
2  13 2 15 -568 4
2  14 5 13 -568 4
0

0101000
+182 15 -192 15 *
Wi

0101100
+181 0 -191 0 -180 11 +179 14 *
Fa
0  8.4259611861e-05 2 0

0101000
+178 0 *
Ve
8.4259611861e-05
5.88911455749488 400.05 3.19744231092045e-14
0 0

0101101
*
Ve
8.4259611861e-05
5.88911455749488 400.05 18
0 0

0101101
*
Ed
 8.4259611861e-05 1 1 0
1  8 0 0 18
2  15 3 0 0 18
2  16 6 0 0 18
0

0101000
+176 0 -175 0 *
Ed
 8.4259611861e-05 1 1 0
1  9 0 0 572
2  17 3 12 0 572
2  18 4 13 0 572
0

0101000
+176 12 -190 12 *
Ed
 8.4259611861e-05 1 1 0
1  10 0 0 572
2  19 3 15 0 572
2  20 5 13 0 572
0

0101000
+175 15 -189 15 *
Wi

0101100
+174 0 -188 0 -173 11 +172 14 *
Fa
0  8.4259611861e-05 3 0

0101000
+171 0 *
Ed
 1e-07 1 1 0
1  11 0 0 400.05
2  21 6 2 0 400.05
2  22 4 0 0 400.05
0

0101000
+183 2 -176 2 *
Wi

0101100
+187 1 +180 11 -173 11 -169 1 *
Ve
8.42596119159282e-05
81.8891145574949 222.7 1.70234197109191e-15
0 0

0101101
*
Ed
 8.42596119132267e-05 1 1 0
1  12 0 0 6.28318530717959
2  23 7 23 0 6.28318530717959
2  24 7 25 0 6.28318530717959
0

0101000
+167 23 -167 23 *
Wi

0101100
+166 22 *
Ve
8.42596119603404e-05
291.889114557495 88.475 -9.473903143468e-15
0 0

0101101
*
Ed
 8.42596119538271e-05 1 1 0
1  13 0 0 6.28318530717959
2  25 8 30 0 6.28318530717959
2  26 8 32 0 6.28318530717959
0

0101000
+164 30 -164 30 *
Wi

0101100
+163 29 *
Ve
8.4259611922687e-05
511.889114557495 222.7 -9.99200722162641e-16
0 0

0101101
*
Ed
 8.42596119226861e-05 1 1 0
1  14 0 0 6.28318530717959
2  27 9 37 0 6.28318530717959
2  28 9 39 0 6.28318530717959
0

0101000
+161 37 -161 37 *
Wi

0101100
+160 36 *
Ve
8.42596119087165e-05
81.8891145574949 272.7 7.105427357601e-15
0 0

0101101
*
Ed
 8.42596119087165e-05 1 1 0
1  15 0 0 6.28318530717959
2  29 10 44 0 6.28318530717959
2  30 10 46 0 6.28318530717959
0

0101000
+158 44 -158 44 *
Wi

0101100
+157 43 *
Ve
8.42596118961938e-05
128.376614557495 228.571875 3.70074341541719e-16
0 0

0101101
*
Ed
 8.42596118946024e-05 1 1 0
1  16 0 0 6.28318530717959
2  31 11 51 0 6.28318530717959
2  32 11 53 0 6.28318530717959
0

0101000
+155 51 -155 51 *
Wi

0101100
+154 50 *
Ve
8.42596119046523e-05
81.8891145574949 322.7 8.2896652505345e-15
0 0

0101101
*
Ed
 8.42596119022838e-05 1 1 0
1  17 0 0 6.28318530717959
2  33 12 58 0 6.28318530717959
2  34 12 60 0 6.28318530717959
0

0101000
+152 58 -152 58 *
Wi

0101100
+151 57 *
Ve
8.42596119131594e-05
60.1141145574949 368.66875 1.30266168222685e-14
0 0

0101101
*
Ed
 8.42596119084225e-05 1 1 0
1  18 0 0 6.28318530717959
2  35 13 65 0 6.28318530717959
2  36 13 67 0 6.28318530717959
0

0101000
+149 65 -149 65 *
Wi

0101100
+148 64 *
Ve
8.42596119027154e-05
136.314114557495 355.159375 0
0 0

0101101
*
Ve
8.42596119039656e-05
138.314114557495 357.159375 0
0 0

0101101
*
Ed
 8.42596118698818e-05 1 1 0
1  19 0 1.57079632679488 3.14159265358981
2  37 14 0 1.57079632679488 3.14159265358981
2  38 14 69 1.57079632679488 3.14159265358981
0

0101000
+146 0 -145 0 *
Ve
8.4259611900307e-05
136.314114557495 94.840625 0
0 0

0101101
*
Ed
 8.4259611900307e-05 1 1 0
1  20 0 -308.7390625 -48.4203125
0

0101000
+146 0 -143 0 *
Ve
8.42596119039656e-05
445.464114557495 357.159375 0
0 0

0101101
*
Ed
 8.42596119039656e-05 1 1 0
1  21 0 65.2125 372.3625
0

0101000
+145 0 -141 0 *
Ve
8.42596119039656e-05
138.314114557495 92.840625 0
0 0

0101101
*
Ed
 8.42596118698818e-05 1 1 0
1  22 0 1.5707963267949 3.14159265358979
2  39 15 0 1.5707963267949 3.14159265358979
2  40 15 69 1.5707963267949 3.14159265358979
0

0101000
+139 0 -143 0 *
Ve
8.42596119453955e-05
447.464114557495 355.159375 0
0 0

0101101
*
Ed
 8.42596118698818e-05 1 1 0
1  23 0 1.57079632679492 3.14159265358975
2  41 16 0 1.57079632679492 3.14159265358975
2  42 16 69 1.57079632679492 3.14159265358975
0

0101000
+141 0 -137 0 *
Ve
8.42596119039656e-05
445.464114557495 92.840625 0
0 0

0101101
*
Ed
 8.42596119039656e-05 1 1 0
1  24 0 65.2125 372.3625
0

0101000
+139 0 -135 0 *
Ve
8.4259611900307e-05
447.464114557495 94.840625 0
0 0

0101101
*
Ed
 8.4259611900307e-05 1 1 0
1  25 0 -308.7390625 -48.4203125
0

0101000
+137 0 -133 0 *
Ed
 8.42596118698818e-05 1 1 0
1  26 0 1.57079632679488 3.14159265358979
2  43 17 0 1.57079632679488 3.14159265358979
2  44 17 69 1.57079632679488 3.14159265358979
0

0101000
+133 0 -135 0 *
Wi

0101100
+144 0 -142 0 +140 0 +138 0 +136 0 -134 0 +132 0 +131 0 *
Ve
8.42596118719912e-05
455.401614557495 228.571875 -1.22124532708767e-15
0 0

0101101
*
Ed
 8.42596118716581e-05 1 1 0
1  27 0 0 6.28318530717959
2  45 18 74 0 6.28318530717959
2  46 18 76 0 6.28318530717959
0

0101000
+129 74 -129 74 *
Wi

0101100
+128 73 *
Ve
8.42596119004233e-05
291.889114557495 368.66875 1.4210854715202e-14
0 0

0101101
*
Ed
 8.42596118950942e-05 1 1 0
1  28 0 0 6.28318530717959
2  47 19 81 0 6.28318530717959
2  48 19 83 0 6.28318530717959
0

0101000
+126 81 -126 81 *
Wi

0101100
+125 80 *
Ve
8.42596119521869e-05
469.689114557495 368.66875 1.4210854715202e-14
0 0

0101101
*
Ed
 8.42596118950942e-05 1 1 0
1  29 0 0 6.28318530717959
2  49 20 88 0 6.28318530717959
2  50 20 90 0 6.28318530717959
0

0101000
+123 88 -123 88 *
Wi

0101100
+122 87 *
Fa
0  8.4259611861e-05 4 1

0101000
+168 0 +165 0 +162 0 +159 0 +156 0 +153 0 +150 0 +147 0 +130 0 +127 0 
+124 0 +121 0 *
Ed
 1e-07 1 1 0
1  30 0 0 400.05
2  51 6 5 0 400.05
2  52 5 0 0 400.05
0

0101000
+182 5 -175 5 *
Wi

0101100
+186 4 +179 14 -172 14 -119 4 *
Ve
8.42596119159282e-05
81.8891145574949 222.7 18
0 0

0101101
*
Ed
 8.42596119132267e-05 1 1 0
1  12 0 0 6.28318530717959
2  23 7 23 0 6.28318530717959
2  24 7 25 0 6.28318530717959
0

0101000
+117 25 -117 25 *
Wi

0101100
+116 91 *
Ve
8.42596119603404e-05
291.889114557495 88.475 18
0 0

0101101
*
Ed
 8.42596119538271e-05 1 1 0
1  13 0 0 6.28318530717959
2  25 8 30 0 6.28318530717959
2  26 8 32 0 6.28318530717959
0

0101000
+114 32 -114 32 *
Wi

0101100
+113 92 *
Ve
8.4259611922687e-05
511.889114557495 222.7 18
0 0

0101101
*
Ed
 8.42596119226861e-05 1 1 0
1  14 0 0 6.28318530717959
2  27 9 37 0 6.28318530717959
2  28 9 39 0 6.28318530717959
0

0101000
+111 39 -111 39 *
Wi

0101100
+110 93 *
Ve
8.42596119087165e-05
81.8891145574949 272.7 18
0 0

0101101
*
Ed
 8.42596119087165e-05 1 1 0
1  15 0 0 6.28318530717959
2  29 10 44 0 6.28318530717959
2  30 10 46 0 6.28318530717959
0

0101000
+108 46 -108 46 *
Wi

0101100
+107 94 *
Ve
8.42596118961938e-05
128.376614557495 228.571875 18
0 0

0101101
*
Ed
 8.42596118946024e-05 1 1 0
1  16 0 0 6.28318530717959
2  31 11 51 0 6.28318530717959
2  32 11 53 0 6.28318530717959
0

0101000
+105 53 -105 53 *
Wi

0101100
+104 95 *
Ve
8.42596119046523e-05
81.8891145574949 322.7 18
0 0

0101101
*
Ed
 8.42596119022838e-05 1 1 0
1  17 0 0 6.28318530717959
2  33 12 58 0 6.28318530717959
2  34 12 60 0 6.28318530717959
0

0101000
+102 60 -102 60 *
Wi

0101100
+101 96 *
Ve
8.42596119131594e-05
60.1141145574949 368.66875 18
0 0

0101101
*
Ed
 8.42596119084225e-05 1 1 0
1  18 0 0 6.28318530717959
2  35 13 65 0 6.28318530717959
2  36 13 67 0 6.28318530717959
0

0101000
+99 67 -99 67 *
Wi

0101100
+98 97 *
Ve
8.42596119027154e-05
136.314114557495 355.159375 18
0 0

0101101
*
Ve
8.42596119039656e-05
138.314114557495 357.159375 18
0 0

0101101
*
Ed
 8.42596118681054e-05 1 1 0
1  19 0 1.57079632679488 3.14159265358981
2  37 14 0 1.57079632679488 3.14159265358981
2  38 14 69 1.57079632679488 3.14159265358981
0

0101000
+96 69 -95 69 *
Ve
8.4259611900307e-05
136.314114557495 94.840625 18
0 0

0101101
*
Ed
 8.4259611900307e-05 1 1 0
1  20 0 -308.7390625 -48.4203125
0

0101000
+96 69 -93 69 *
Ve
8.42596119039656e-05
445.464114557495 357.159375 18
0 0

0101101
*
Ed
 8.42596119039656e-05 1 1 0
1  21 0 65.2125 372.3625
0

0101000
+95 69 -91 69 *
Ve
8.42596119039656e-05
138.314114557495 92.840625 18
0 0

0101101
*
Ed
 8.42596118681054e-05 1 1 0
1  22 0 1.5707963267949 3.14159265358979
2  39 15 0 1.5707963267949 3.14159265358979
2  40 15 69 1.5707963267949 3.14159265358979
0

0101000
+89 69 -93 69 *
Ve
8.42596119453955e-05
447.464114557495 355.159375 18
0 0

0101101
*
Ed
 8.42596118681054e-05 1 1 0
1  23 0 1.57079632679492 3.14159265358975
2  41 16 0 1.57079632679492 3.14159265358975
2  42 16 69 1.57079632679492 3.14159265358975
0

0101000
+91 69 -87 69 *
Ve
8.42596119039656e-05
445.464114557495 92.840625 18
0 0

0101101
*
Ed
 8.42596119039656e-05 1 1 0
1  24 0 65.2125 372.3625
0

0101000
+89 69 -85 69 *
Ve
8.4259611900307e-05
447.464114557495 94.840625 18
0 0

0101101
*
Ed
 8.4259611900307e-05 1 1 0
1  25 0 -308.7390625 -48.4203125
0

0101000
+87 69 -83 69 *
Ed
 8.42596118681054e-05 1 1 0
1  26 0 1.57079632679488 3.14159265358979
2  43 17 0 1.57079632679488 3.14159265358979
2  44 17 69 1.57079632679488 3.14159265358979
0

0101000
+83 69 -85 69 *
Wi

0101100
+94 68 -92 68 +90 68 +88 68 +86 68 -84 68 +82 68 +81 68 *
Ve
8.42596118719912e-05
455.401614557495 228.571875 18
0 0

0101101
*
Ed
 8.42596118716581e-05 1 1 0
1  27 0 0 6.28318530717959
2  45 18 74 0 6.28318530717959
2  46 18 76 0 6.28318530717959
0

0101000
+79 76 -79 76 *
Wi

0101100
+78 98 *
Ve
8.42596119004233e-05
291.889114557495 368.66875 18
0 0

0101101
*
Ed
 8.42596118950942e-05 1 1 0
1  28 0 0 6.28318530717959
2  47 19 81 0 6.28318530717959
2  48 19 83 0 6.28318530717959
0

0101000
+76 83 -76 83 *
Wi

0101100
+75 99 *
Ve
8.42596119521869e-05
469.689114557495 368.66875 18
0 0

0101101
*
Ed
 8.42596118950942e-05 1 1 0
1  29 0 0 6.28318530717959
2  49 20 88 0 6.28318530717959
2  50 20 90 0 6.28318530717959
0

0101000
+73 90 -73 90 *
Wi

0101100
+72 100 *
Fa
0  8.4259611861e-05 5 4

0101000
+118 0 +115 0 +112 0 +109 0 +106 0 +103 0 +100 0 +97 0 +80 0 +77 0 
+74 0 +71 0 *
Wi

0101100
+181 0 -174 0 -169 1 +119 4 *
Fa
0  1e-07 6 0

0101000
+69 0 *
Ed
 8.42596119159282e-05 1 1 0
1  31 0 0 18
3  53 54CN 7 0 0 18
0

0101000
+167 0 -117 0 *
Wi

0101100
+67 0 -67 0 -166 22 +116 91 *
Fa
0  8.42596119132267e-05 7 0

0101000
+66 0 *
Ed
 8.42596119603404e-05 1 1 0
1  32 0 0 18
3  55 56CN 8 0 0 18
0

0101000
+164 0 -114 0 *
Wi

0101100
+64 0 -64 0 -163 29 +113 92 *
Fa
0  8.42596119538271e-05 8 0

0101000
+63 0 *
Ed
 8.4259611922687e-05 1 1 0
1  33 0 0 18
3  57 58CN 9 0 0 18
0

0101000
+161 0 -111 0 *
Wi

0101100
+61 0 -61 0 -160 36 +110 93 *
Fa
0  8.42596119226861e-05 9 0

0101000
+60 0 *
Ed
 8.42596119087165e-05 1 1 0
1  34 0 0 18
3  59 60CN 10 0 0 18
0

0101000
+158 0 -108 0 *
Wi

0101100
+58 0 -58 0 -157 43 +107 94 *
Fa
0  8.42596119087165e-05 10 0

0101000
+57 0 *
Ed
 8.42596118961938e-05 1 1 0
1  35 0 0 18
3  61 62CN 11 0 0 18
0

0101000
+155 0 -105 0 *
Wi

0101100
+55 0 -55 0 -154 50 +104 95 *
Fa
0  8.42596118946024e-05 11 0

0101000
+54 0 *
Ed
 8.42596119046523e-05 1 1 0
1  36 0 0 18
3  63 64CN 12 0 0 18
0

0101000
+152 0 -102 0 *
Wi

0101100
+52 0 -52 0 -151 57 +101 96 *
Fa
0  8.42596119022838e-05 12 0

0101000
+51 0 *
Ed
 8.42596119131594e-05 1 1 0
1  37 0 0 18
3  65 66CN 13 0 0 18
0

0101000
+149 0 -99 0 *
Wi

0101100
+49 0 -49 0 -148 64 +98 97 *
Fa
0  8.42596119084225e-05 13 0

0101000
+48 0 *
Ed
 8.42596119027154e-05 1 1 0
1  38 0 0 18
2  67 14 0 0 18
4 G1 21 0 14 0
0

0101000
+146 0 -96 0 *
Ed
 8.42596119039656e-05 1 1 0
1  39 0 0 18
2  68 14 0 0 18
4 G1 22 0 14 0
0

0101000
+145 0 -95 0 *
Wi

0101100
+46 0 -45 0 -144 0 +94 68 *
Fa
0  8.4259611861e-05 14 0

0101000
+44 0 *
Ed
 8.4259611900307e-05 1 1 0
1  40 0 0 18
2  69 15 0 0 18
4 G1 15 0 21 0
0

0101000
+143 0 -93 0 *
Wi

0101100
+46 0 -42 0 -142 0 +92 68 *
Fa
0  8.4259611900307e-05 21 0

0101000
+41 0 *
Ed
 8.42596119039656e-05 1 1 0
1  41 0 0 18
2  70 16 0 0 18
4 G1 22 0 16 0
0

0101000
+141 0 -91 0 *
Wi

0101100
+45 0 -39 0 -140 0 +90 68 *
Fa
0  8.42596119039656e-05 22 0

0101000
+38 0 *
Ed
 8.42596119039656e-05 1 1 0
1  42 0 0 18
2  71 15 0 0 18
4 G1 23 0 15 0
0

0101000
+139 0 -89 0 *
Wi

0101100
+36 0 -42 0 -138 0 +88 68 *
Fa
0  8.4259611861e-05 15 0

0101000
+35 0 *
Ed
 8.42596119453955e-05 1 1 0
1  43 0 0 18
2  72 16 0 0 18
4 G1 16 0 24 0
0

0101000
+137 0 -87 0 *
Wi

0101100
+39 0 -33 0 -136 0 +86 68 *
Fa
0  8.4259611861e-05 16 0

0101000
+32 0 *
Ed
 8.42596119039656e-05 1 1 0
1  44 0 0 18
2  73 17 0 0 18
4 G1 17 0 23 0
0

0101000
+135 0 -85 0 *
Wi

0101100
+36 0 -30 0 -134 0 +84 68 *
Fa
0  8.42596119039656e-05 23 0

0101000
+29 0 *
Ed
 8.4259611900307e-05 1 1 0
1  45 0 0 18
2  74 17 0 0 18
4 G1 24 0 17 0
0

0101000
+133 0 -83 0 *
Wi

0101100
+33 0 -27 0 -132 0 +82 68 *
Fa
0  8.4259611900307e-05 24 0

0101000
+26 0 *
Wi

0101100
+27 0 -30 0 -131 0 +81 68 *
Fa
0  8.4259611861e-05 17 0

0101000
+24 0 *
Ed
 8.42596118719912e-05 1 1 0
1  46 0 0 18
3  75 76CN 18 0 0 18
0

0101000
+129 0 -79 0 *
Wi

0101100
+22 0 -22 0 -128 73 +78 98 *
Fa
0  8.42596118716581e-05 18 0

0101000
+21 0 *
Ed
 8.42596119004233e-05 1 1 0
1  47 0 0 18
3  77 78CN 19 0 0 18
0

0101000
+126 0 -76 0 *
Wi

0101100
+19 0 -19 0 -125 80 +75 99 *
Fa
0  8.42596118950942e-05 19 0

0101000
+18 0 *
Ed
 8.42596119521869e-05 1 1 0
1  48 0 0 18
3  79 80CN 20 0 0 18
0

0101000
+123 0 -73 0 *
Wi

0101100
+16 0 -16 0 -122 87 +72 100 *
Fa
0  8.42596118950942e-05 20 0

0101000
+15 0 *
Sh

0101100
-184 0 -177 0 +170 0 -120 0 +70 0 +68 0 -65 0 -62 0 -59 0 -56 0 
-53 0 -50 0 -47 0 -43 0 +40 0 -37 0 -34 0 -31 0 +28 0 -25 0 
-23 0 -20 0 -17 0 -14 0 *
So

0100000
+13 0 *
Co

0100000
+12 0 *
Co

0100000
+11 0 *
Co

0100000
+10 0 *
Co

0100000
+9 0 *
Co

0100000
+8 0 *
Co

0100000
+7 0 *
Co

0100000
+6 0 *
Co

0100000
+5 0 *
Co

0100000
+4 0 *
Co

0100000
+3 0 *
Co

1100000
+2 0 *

+1 0 