DBRep_DrawableShape

CASCADE Topology V1, (c) Matra-Datavision
Locations 10
1
              1               0               0               0 
              0               1               0               0 
              0               0               1              -1 
1
              1               0               0               0 
              0               1               0               0 
              0               0               1               0 
1
              1               0               0               0 
              0               1               0               0 
              0               0               1               0 
1
              1               0               0               0 
              0 1.11022302462516e-16               1               0 
              0              -1 1.11022302462516e-16               0 
1
              1               0               0 -8.11088544250512 
              0               1               0              -0 
              0               0               1              18 
2  2 1 3 1 4 1 5 1 0
2  2 -1 0
2  5 -1 4 -1 3 -1 2 -1 0
1
              1               0               0               0 
              0               1               0               0 
              0               0               1              18 
2  1 1 9 1 0
Curve2ds 6
2 167.91983695460533 177.99205472474375 1 0 -0 1 3.5718749999999773
1 0 19 1 0 
1 6.2831853071795862 -0 0 1 
1 0 -0 0 1 
1 0 1 1 0 
2 -165.07187500000001 177.80000000000001 -1 0 0 1 3.5718749999999773
Curves 3
2 477.80000000000001 18 365.09687500000001 0 1 0 0 -0 1 1 0 -0 3.5718749999999999
1 477.80000000000001 -1 368.66874999999999 0 1 0 
2 477.80000000000001 0 365.09687500000001 0 1 0 0 -0 1 1 0 -0 3.5718749999999999
Polygon3D 0
PolygonOnTriangulations 0
Surfaces 4
1 291.88911455749496 200.02500000000006 1.0000000000000089 0 0 1 1 0 -0 -0 1 0 
1 299.80794527525626 18.000000000000004 197.17703804539468 0 1 0 0 -0 1 1 0 -0 
2 477.80000000000001 -1 365.09687500000001 0 1 0 0 -0 1 1 0 -0 3.5718749999999999
1 300 0 200.02500000000001 -0 -1 -0 0 0 -1 1 -0 0 
Triangulations 0

TShapes 13
Ve
8.42596118805399e-05
469.689114557495 368.66875 2.8421709430404e-14
0 0

0101101
*
Ed
 8.42596118773306e-05 1 1 0
1  1 0 0 6.28318530717959
2  1 2 7 0 6.28318530717959
2  2 3 0 0 6.28318530717959
0

0101000
+13 8 -13 8 *
Wi

0101100
-12 6 *
Fa
0  8.4259611861e-05 1 1

0101000
+11 0 *
Ve
8.42596118752109e-05
469.689114557495 368.66875 18
0 0

0101101
*
Ed
 1e-07 1 1 0
1  2 0 1 19
3  3 4CN 3 0 1 19
0

0101000
+9 8 -13 8 *
Ed
 8.42596118716581e-05 1 1 0
1  3 0 0 6.28318530717959
2  5 3 0 0 6.28318530717959
2  6 4 7 0 6.28318530717959
0

0101000
+9 8 -9 8 *
Wi

0101100
-12 6 +8 6 +7 6 -8 6 *
Fa
0  1e-07 3 6

0101000
+6 0 *
Wi

0101100
-7 6 *
Fa
0  8.4259611861e-05 1 10

0101000
+4 0 *
Sh

0101100
-10 0 +5 0 +3 0 *
So

0100000
+2 0 *

+1 0 