DBRep_DrawableShape

CASCADE Topology V1, (c) Matra-Datavision
Locations 0
Curve2ds 0
Curves 8
1 73.101614557494884 357.15937500000001 0 1 0 0 
2 445.46411455749484 355.15937500000001 0 -0 0 -1 -1 -0 0 0 1 0 2
1 447.4641145574949 46.420312499999994 0 0 -1 -0 
2 445.4641145574949 94.840624999999989 0 0 0 -1 0 1 0 1 -0 0 2
1 73.101614557494884 92.840625000000017 0 1 0 0 
2 138.31411455749489 94.840625000000017 0 0 0 -1 1 0 0 0 -1 0 2
1 136.31411455749489 46.420312499999994 0 0 -1 -0 
2 138.31411455749489 355.15937500000007 0 -0 0 -1 0 -1 -0 -1 -0 0 2
Polygon3D 0
PolygonOnTriangulations 0
Surfaces 1
1 291.88911455749485 224.99999999999997 0 0 0 1 1 0 -0 -0 1 0 
Triangulations 0

TShapes 19
Ve
8.42596119039656e-05
138.314114557495 357.159375 0
0 0

0101101
*
Ve
8.42596119039656e-05
445.464114557495 357.159375 0
0 0

0101101
*
Ed
 8.42596119039656e-05 1 1 0
1  1 0 65.2125 372.3625
0

0101000
+19 0 -18 0 *
Ve
8.42596119453955e-05
447.464114557495 355.159375 0
0 0

0101101
*
Ed
 8.4259611861e-05 1 1 0
1  2 0 1.57079632679492 3.14159265358975
0

0101000
+18 0 -16 0 *
Ve
8.4259611900307e-05
447.464114557495 94.840625 0
0 0

0101101
*
Ed
 8.4259611900307e-05 1 1 0
1  3 0 -308.7390625 -48.4203125
0

0101000
+16 0 -14 0 *
Ve
8.42596119039656e-05
445.464114557495 92.840625 0
0 0

0101101
*
Ed
 8.4259611861e-05 1 1 0
1  4 0 1.57079632679488 3.14159265358979
0

0101000
+14 0 -12 0 *
Ve
8.42596119039656e-05
138.314114557495 92.840625 0
0 0

0101101
*
Ed
 8.42596119039656e-05 1 1 0
1  5 0 65.2125 372.3625
0

0101000
+10 0 -12 0 *
Ve
8.4259611900307e-05
136.314114557495 94.840625 0
0 0

0101101
*
Ed
 8.4259611861e-05 1 1 0
1  6 0 1.5707963267949 3.14159265358979
0

0101000
+10 0 -8 0 *
Ve
8.42596119027154e-05
136.314114557495 355.159375 0
0 0

0101101
*
Ed
 8.4259611900307e-05 1 1 0
1  7 0 -308.7390625 -48.4203125
0

0101000
+6 0 -8 0 *
Ed
 8.4259611861e-05 1 1 0
1  8 0 1.57079632679488 3.14159265358981
0

0101000
+6 0 -19 0 *
Wi

0101100
+17 0 +15 0 +13 0 +11 0 -9 0 +7 0 -5 0 +4 0 *
Fa
0  1e-07 1 0

0101000
-3 0 *
Sh

1101000
+2 0 *

+1 0 