DBRep_DrawableShape

CASCADE Topology V1, (c) Matra-Datavision
Locations 22
1
              1               0               0               0 
              0               1               0               0 
              0               0               1               0 
1
              1               0               0               0 
              0 1.11022302462516e-16               1               0 
              0              -1 1.11022302462516e-16               0 
1
              1               0               0 -8.11088544250512 
              0               1               0              -0 
              0               0               1              18 
2  1 1 2 1 3 1 0
2  1 -1 0
1
              1               0               0               0 
              0               1               0               0 
              0               0               1               0 
1
              1               0               0               0 
              0               1               0               0 
              0               0               1               0 
2  6 1 7 1 0
2  7 -1 6 -1 0
1
              1               0               0               0 
              0               1               0               0 
              0               0               1              -0 
2  10 -1 3 -1 2 -1 1 -1 7 -1 6 -1 0
1
              1               0               0               0 
              0               1               0               0 
              0               0               1               1 
2  12 -1 10 -1 3 -1 2 -1 1 -1 7 -1 6 -1 0
2  1 -1 7 -1 6 -1 0
2  10 -1 3 -1 2 -1 1 -1 0
2  12 -1 10 -1 3 -1 2 -1 1 -1 0
1
              1               0               0               0 
              0               1               0               0 
              0               0               1               0 
2  17 1 6 1 7 1 0
2  7 -1 6 -1 17 -1 0
2  1 -1 7 -1 6 -1 17 -1 0
2  7 -1 0
2  1 -1 7 -1 0
Curve2ds 188
1 0 0 1 0 
1 200.02500000000001 286 -1 0 
1 400.05000000000001 0 0 -1 
1 286 -9 0 1 
1 0 -18 1 0 
1 -197.17703804539468 286.19205472474374 1 0 
3 154 -13.999999999999943 0 -1 1 0 7.7781745930520225 5.5
7 0 0  3 25 23  5.2525329580605735 32.627416997967941  5.2205490140534385 32.476565038112454  5.1565811260391676 32.166119058485101  5.0606292940177653 31.678717522394113  4.9646774619963798 31.17401120130932  4.8687256299749668 30.656658286937407  4.7727737979535743 30.131414234732073  4.6768219659321817 29.603112208933172  4.5808701339107714 29.076612136242069  4.4849183018893877 28.556757733022774  4.3889664698679685 28.048331479170749  4.2930146378465786 27.556010745453097  4.1970628058251798 27.084324729829142  4.1011109738037801 26.637612798759786  4.0051591417823849 26.219984565526431  3.9092073097609785 25.835282077888955  3.8132554777395913 25.487044493924419  3.7173036457181778 25.178475442038337  3.6213518136967937 24.912413850359354  3.5253999816753869 24.691306703134941  3.4294481496539913 24.517190732787718  3.3334963176325876 24.391657994708147  3.2375444856111897 24.315899768855061  3.1735765975969259 24.298951320391385  3.1415926535897931 24.298989873223263 
 1.0306523491190176 4 1.1266041811404164 1 1.2225560131618154 1 1.3185078451832142 1 1.4144596772046132 1 1.510411509226012 1 1.6063633412474108 1 1.7023151732688098 1 1.7982670052902088 1 1.8942188373116076 1 1.9901706693330063 1 2.0861225013544056 1 2.1820743333758044 1 2.2780261653972032 1 2.3739779974186019 1 2.4699298294400007 1 2.5658816614613995 1 2.6618334934827983 1 2.7577853255041975 1 2.8537371575255963 1 2.9496889895469955 1 3.0456408215683943 1 3.1415926535897931 4
3 154 -13.999999999999943 0 -1 1 0 7.7781745930520225 5.5
7 0 0  3 25 23  3.1415926535897931 24.298989873223263  3.1096087095826608 24.298951320391385  3.0456408215683957 24.315899768855061  2.9496889895469995 24.39165799470814  2.8537371575255954 24.517190732787725  2.7577853255041993 24.691306703134941  2.6618334934827943 24.91241385035935  2.5658816614614071 25.178475442038341  2.4699298294399963 25.487044493924419  2.3739779974186064 25.835282077888966  2.2780261653972018 26.219984565526431  2.1820743333758053 26.637612798759779  2.086122501354406 27.084324729829145  1.9901706693330075 27.556010745453086  1.8942188373116176 28.048331479170763  1.7982670052901994 28.556757733022774  1.7023151732688151 29.076612136242076  1.6063633412474043 29.603112208933176  1.5104115092260122 30.131414234732059  1.4144596772046163 30.656658286937422  1.3185078451832224 31.174011201309217  1.2225560131618169 31.67871752239413  1.126604181140417 32.166119058485116  1.0626362931261526 32.476565038112433  1.030652349119022 32.627416997967885 
 3.1415926535897931 4 3.2375444856111919 1 3.3334963176325907 1 3.4294481496539895 1 3.5253999816753887 1 3.6213518136967875 1 3.7173036457181863 1 3.8132554777395851 1 3.9092073097609843 1 4.0051591417823831 1 4.1011109738037819 1 4.1970628058251807 1 4.2930146378465794 1 4.3889664698679782 1 4.484918301889377 1 4.5808701339107767 1 4.6768219659321755 1 4.7727737979535743 1 4.868725629974973 1 4.9646774619963718 1 5.0606292940177706 1 5.1565811260391694 1 5.2525329580605682 4
1 0 -18 1 0 
1 -197.17703804539468 286.19205472474374 1 0 
3 96 -13.999999999999943 0 -1 1 0 7.7781745930520225 5.5
7 0 0  3 25 23  5.2525329580605717 32.627416997967941  5.2205490140534385 32.476565038112454  5.1565811260391676 32.166119058485101  5.0606292940177644 31.678717522394113  4.9646774619963807 31.17401120130932  4.8687256299749651 30.656658286937407  4.772773797953576 30.131414234732073  4.6768219659321808 29.603112208933172  4.5808701339107722 29.076612136242069  4.4849183018893877 28.556757733022774  4.3889664698679685 28.048331479170749  4.2930146378465786 27.556010745453097  4.1970628058251807 27.084324729829142  4.1011109738037783 26.637612798759786  4.0051591417823866 26.219984565526431  3.9092073097609785 25.835282077888955  3.8132554777395895 25.487044493924419  3.7173036457181818 25.178475442038337  3.6213518136967915 24.912413850359354  3.5253999816753883 24.691306703134941  3.4294481496539904 24.517190732787718  3.3334963176325902 24.391657994708147  3.2375444856111932 24.315899768855061  3.1735765975969272 24.298951320391385  3.1415926535897931 24.298989873223263 
 1.0306523491190176 4 1.1266041811404164 1 1.2225560131618154 1 1.3185078451832142 1 1.4144596772046132 1 1.510411509226012 1 1.6063633412474108 1 1.7023151732688098 1 1.7982670052902088 1 1.8942188373116076 1 1.9901706693330063 1 2.0861225013544056 1 2.1820743333758044 1 2.2780261653972032 1 2.3739779974186019 1 2.4699298294400007 1 2.5658816614613995 1 2.6618334934827983 1 2.7577853255041975 1 2.8537371575255963 1 2.9496889895469955 1 3.0456408215683943 1 3.1415926535897931 4
3 96 -13.999999999999943 0 -1 1 0 7.7781745930520225 5.5
7 0 0  3 25 23  3.1415926535897931 24.298989873223263  3.1096087095826594 24.298951320391385  3.045640821568393 24.315899768855061  2.949688989546996 24.39165799470814  2.8537371575255959 24.517190732787725  2.7577853255041993 24.691306703134941  2.6618334934827943 24.91241385035935  2.5658816614614071 25.178475442038341  2.4699298294399963 25.487044493924419  2.3739779974186068 25.835282077888966  2.2780261653971996 26.219984565526431  2.182074333375807 26.637612798759779  2.0861225013544078 27.084324729829145  1.9901706693330072 27.556010745453086  1.8942188373116176 28.048331479170763  1.7982670052901999 28.556757733022774  1.7023151732688144 29.076612136242076  1.6063633412474045 29.603112208933176  1.510411509226012 30.131414234732059  1.4144596772046165 30.656658286937422  1.3185078451832211 31.174011201309217  1.2225560131618174 31.67871752239413  1.1266041811404164 32.166119058485116  1.062636293126153 32.476565038112433  1.0306523491190234 32.627416997967885 
 3.1415926535897931 4 3.2375444856111919 1 3.3334963176325907 1 3.4294481496539895 1 3.5253999816753887 1 3.6213518136967875 1 3.7173036457181863 1 3.8132554777395851 1 3.9092073097609843 1 4.0051591417823831 1 4.1011109738037819 1 4.1970628058251807 1 4.2930146378465794 1 4.3889664698679782 1 4.484918301889377 1 4.5808701339107767 1 4.6768219659321755 1 4.7727737979535743 1 4.868725629974973 1 4.9646774619963718 1 5.0606292940177706 1 5.1565811260391694 1 5.2525329580605682 4
1 0 -18 1 0 
1 -197.17703804539468 286.19205472474374 1 0 
1 0 0 0 -1 
1 -286 -9 0 1 
3 -43.177038045394681 282.19205472474374 0 -1 1 0 7.7781745930519719 5.5
7 0 0  3 25 23  1.5707963267948966 35.455844122715689  1.6183962154856475 35.71767593207263  1.7135959928671556 36.241225139068376  1.8563956589394237 37.010652514464148  1.9991953250116936 37.748403915136379  2.1419949910839442 38.439491990346845  2.2847946571562217 39.06983983580502  2.42759432322848 39.62661762292182  2.5703939893007286 40.098490362492491  2.7131936553730154 40.475852246830947  2.8559933214452622 40.751021233177241  2.9987929875175277 40.918395686032625  3.1415926535897931 40.974568341057122  3.2843923196620577 40.918395686032618  3.4271919857343232 40.751021233177255  3.5699916518065713 40.475852246830939  3.7127913178788563 40.098490362492491  3.8555909839511071 39.62661762292182  3.9983906500233646 39.069839835805006  4.1411903160956411 38.439491990346866  4.2839899821678937 37.748403915136365  4.4267896482401623 37.010652514464148  4.56958931431243 36.241225139068376  4.6647890916939385 35.71767593207263  4.7123889803846897 35.455844122715689 
 4.7123889803846897 4 4.8551886464569529 1 4.9979883125292162 1 5.1407879786014794 1 5.2835876446737426 1 5.4263873107460068 1 5.5691869768182691 1 5.7119866428905333 1 5.8547863089627965 1 5.9975859750350597 1 6.140385641107323 1 6.2831853071795862 1 6.4259849732518495 1 6.5687846393241127 1 6.711584305396376 1 6.8543839714686392 1 6.9971836375409033 1 7.1399833036131657 1 7.2827829696854298 1 7.4255826357576931 1 7.5683823018299563 1 7.7111819679022195 1 7.8539816339744828 4
1 0 0 1 0 
1 0 -1 1 0 
3 -43.177038045394681 282.19205472474374 0 -1 1 0 7.7781745930519719 5.5
7 0 0  3 25 23  1.0306523491190336 32.627416997971125  1.038836348780783 32.666020765771506  1.0552043481042861 32.743796937524493  1.0797563470895493 32.862095710432669  1.1043083460748233 32.981957978710057  1.128860345060096 33.10331141600777  1.1534123440453541 33.226082894680808  1.1779643430306277 33.350198406196313  1.202516342015896 33.475583138880694  1.227068341001162 33.60216151413524  1.2516203399864296 33.729857234371607  1.2761723389716919 33.858593328364236  1.3007243379569433 33.988292197817223  1.3252763369422353 34.118875664092684  1.3498283359275036 34.250265015346159  1.3743803349127628 34.382381053968679  1.3989323338980293 34.515144144328126  1.423484332883294 34.64847426076026  1.4480363318685534 34.782291035845283  1.4725883308538343 34.916513808704828  1.4971403298391017 35.051061674167066  1.5216923288243689 35.185853529498374  1.5462443278096378 35.320808130888317  1.5626123271331447 35.410832119670324  1.5707963267948966 35.455844122715689 
 4.1722450027088183 4 4.196797001694085 1 4.2213490006793517 1 4.2459009996646193 1 4.270452998649886 1 4.2950049976351528 1 4.3195569966204195 1 4.3441089956056862 1 4.3686609945909529 1 4.3932129935762205 1 4.4177649925614872 1 4.442316991546754 1 4.4668689905320207 1 4.4914209895172874 1 4.515972988502555 1 4.5405249874878217 1 4.5650769864730885 1 4.5896289854583552 1 4.6141809844436219 1 4.6387329834288895 1 4.6632849824141562 1 4.687836981399423 1 4.7123889803846897 4
1 0 0 1 0 
1 0 -1 1 0 
3 -101.17703804539468 282.19205472474374 0 -1 1 0 7.7781745930519719 5.5
7 0 0  3 25 23  4.7123889803846897 35.455844122715689  4.720572980046442 35.410832119670332  4.7369409793699493 35.32080813088831  4.7614929783552169 35.185853529498381  4.7860449773404836 35.051061674167066  4.8105969763257539 34.916513808704828  4.8351489753110313 34.782291035845283  4.8597009742962918 34.648474260760267  4.8842529732815576 34.515144144328126  4.9088049722668226 34.382381053968679  4.9333569712520831 34.250265015346159  4.9579089702373507 34.118875664092684  4.9824609692226414 33.988292197817231  5.0070129682078948 33.858593328364236  5.0315649671931562 33.729857234371622  5.0561169661784255 33.60216151413524  5.0806689651636896 33.475583138880694  5.105220964148959 33.350198406196327  5.1297729631342346 33.226082894680808  5.1543249621194924 33.103311416007777  5.1788769611047574 32.981957978710057  5.2034289600900392 32.862095710432669  5.2279809590753006 32.7437969375245  5.2443489583988017 32.666020765771513  5.2525329580605522 32.627416997971125 
 1.5707963267948966 4 1.5953483257801635 1 1.6199003247654304 1 1.6444523237506972 1 1.6690043227359641 1 1.6935563217212311 1 1.718108320706498 1 1.7426603196917649 1 1.7672123186770317 1 1.7917643176622986 1 1.8163163166475655 1 1.8408683156328325 1 1.8654203146180994 1 1.8899723136033661 1 1.9145243125886333 1 1.9390763115739 1 1.963628310559167 1 1.9881803095444339 1 2.0127323085297006 1 2.0372843075149678 1 2.0618363065002345 1 2.0863883054855012 1 2.1109403044707684 4
1 0 0 1 0 
1 0 -1 1 0 
3 -101.17703804539468 282.19205472474374 0 -1 1 0 7.7781745930519719 5.5
7 0 0  3 25 23  1.5707963267948966 35.455844122715689  1.6183962154856475 35.71767593207263  1.7135959928671554 36.241225139068376  1.8563956589394244 37.010652514464148  1.9991953250116914 37.748403915136379  2.1419949910839451 38.439491990346845  2.2847946571562194 39.06983983580502  2.4275943232284805 39.62661762292182  2.5703939893007295 40.098490362492491  2.7131936553730118 40.475852246830947  2.8559933214452622 40.751021233177241  2.9987929875175321 40.918395686032625  3.1415926535897922 40.974568341057122  3.284392319662055 40.918395686032618  3.4271919857343183 40.751021233177255  3.5699916518065757 40.475852246830939  3.7127913178788554 40.098490362492491  3.8555909839511067 39.62661762292182  3.9983906500233668 39.069839835805006  4.1411903160956411 38.439491990346866  4.2839899821678964 37.748403915136365  4.4267896482401605 37.010652514464148  4.5695893143124309 36.241225139068376  4.6647890916939385 35.71767593207263  4.7123889803846897 35.455844122715689 
 4.7123889803846897 4 4.8551886464569529 1 4.9979883125292162 1 5.1407879786014794 1 5.2835876446737426 1 5.4263873107460068 1 5.5691869768182691 1 5.7119866428905333 1 5.8547863089627965 1 5.9975859750350597 1 6.140385641107323 1 6.2831853071795862 1 6.4259849732518495 1 6.5687846393241127 1 6.711584305396376 1 6.8543839714686392 1 6.9971836375409033 1 7.1399833036131657 1 7.2827829696854298 1 7.4255826357576931 1 7.5683823018299563 1 7.7111819679022195 1 7.8539816339744828 4
1 0 0 1 0 
1 0 -1 1 0 
3 -101.17703804539468 282.19205472474374 0 -1 1 0 7.7781745930519719 5.5
7 0 0  3 25 23  1.0306523491190336 32.627416997971125  1.0388363487807846 32.666020765771506  1.0552043481042879 32.743796937524493  1.0797563470895482 32.862095710432669  1.1043083460748258 32.981957978710057  1.1288603450600958 33.10331141600777  1.1534123440453523 33.226082894680808  1.1779643430306281 33.350198406196313  1.202516342015896 33.475583138880694  1.2270683410011618 33.60216151413524  1.2516203399864303 33.729857234371607  1.2761723389716901 33.858593328364236  1.3007243379569453 33.988292197817223  1.3252763369422338 34.118875664092684  1.3498283359275041 34.250265015346159  1.374380334912763 34.382381053968679  1.3989323338980282 34.515144144328126  1.4234843328832953 34.64847426076026  1.448036331868553 34.782291035845283  1.4725883308538343 34.916513808704828  1.4971403298391019 35.051061674167066  1.5216923288243693 35.185853529498374  1.5462443278096378 35.320808130888317  1.5626123271331447 35.410832119670324  1.5707963267948966 35.455844122715689 
 4.1722450027088183 4 4.196797001694085 1 4.2213490006793517 1 4.2459009996646193 1 4.270452998649886 1 4.2950049976351528 1 4.3195569966204195 1 4.3441089956056862 1 4.3686609945909529 1 4.3932129935762205 1 4.4177649925614872 1 4.442316991546754 1 4.4668689905320207 1 4.4914209895172874 1 4.515972988502555 1 4.5405249874878217 1 4.5650769864730885 1 4.5896289854583552 1 4.6141809844436219 1 4.6387329834288895 1 4.6632849824141562 1 4.687836981399423 1 4.7123889803846897 4
1 0 0 1 0 
1 0 -1 1 0 
1 -197.17703804539468 282.19205472474374 0 1 
1 -282 9 -1 0 
1 -197.17703804539468 -285.80794527525626 1 0 
1 0 -18 1 0 
3 -101.17703804539468 -281.80794527525626 0 1 -1 0 7.7781745930520216 5.5
7 0 0  3 25 23  1.5707963267948966 35.455844122715718  1.5789803264566571 35.410832119670303  1.595348325780179 35.320808130888196  1.6199003247654609 35.185853529498203  1.6444523237507425 35.051061674166817  1.6690043227360256 34.916513808704487  1.693556321721307 34.782291035844949  1.7181083207065888 34.648474260759805  1.7426603196918713 34.515144144327571  1.7672123186771518 34.382381053968061  1.7917643176624352 34.250265015345398  1.8163163166477165 34.118875664091853  1.8408683156329984 33.988292197816456  1.8654203146182808 33.858593328363312  1.8899723136035631 33.729857234370591  1.9145243125888454 33.60216151413416  1.9390763115741267 33.475583138879543  1.9636283105594099 33.350198406195112  1.9881803095446902 33.226082894679571  2.0127323085299738 33.10331141600642  2.0372843075152538 32.981957978708678  2.0618363065005374 32.862095710431298  2.0863883054858201 32.743796937523015  2.1027563048093412 32.666020765769957  2.110940304471101 32.627416997969519 
 1.5707963267948966 4 1.5953483257801786 1 1.6199003247654606 1 1.6444523237507427 1 1.6690043227360247 1 1.6935563217213065 1 1.7181083207065888 1 1.7426603196918706 1 1.7672123186771527 1 1.7917643176624347 1 1.8163163166477168 1 1.8408683156329988 1 1.8654203146182808 1 1.8899723136035629 1 1.9145243125888449 1 1.939076311574127 1 1.9636283105594088 1 1.988180309544691 1 2.0127323085299729 1 2.0372843075152551 1 2.061836306500537 1 2.0863883054858192 1 2.110940304471101 4
1 0 0 1 0 
1 0 -1 1 0 
3 -101.17703804539468 -281.80794527525626 0 1 -1 0 7.7781745930520216 5.5
7 0 0  3 25 23  0 40.95584412271571  0.023799944345378861 40.955855983770803  0.071399833036133467 40.946488430483122  0.14279966607226116 40.904491036085538  0.21419949910839636 40.834719743539765  0.28559933214452798 40.737541303097956  0.35699916518065777 40.613447909641103  0.42839899821679023 40.463072719624058  0.49979883125292179 40.287181794856004  0.57119866428905197 40.086671492965671  0.64259849732518459 39.862563553004527  0.71399833036131743 39.615999981814355  0.78539816339744839 39.348237209722825  0.8567979964335799 39.060639694744687  0.9281978294697113 38.754672967787123  0.99959766250584314 38.431896165275532  1.0709974955419763 38.093954083439712  1.1423973285781064 37.742568799021733  1.2137971616142389 37.379530885829872  1.2851969946503707 37.006690320723301  1.3565968276865019 36.625946943338356  1.427996660722634 36.239241197465752  1.4993964937587658 35.848542666111342  1.5469963824495199 35.58674483534233  1.5707963267948972 35.45584412271571 
 0 4 0.071399833036131677 1 0.14279966607226335 1 0.21419949910839503 1 0.28559933214452671 1 0.35699916518065838 1 0.42839899821679006 1 0.49979883125292174 1 0.57119866428905341 1 0.64259849732518504 1 0.71399833036131677 1 0.7853981633974485 1 0.85679799643358012 1 0.92819782946971174 1 0.99959766250584348 1 1.0709974955419752 1 1.1423973285781068 1 1.2137971616142385 1 1.2851969946503701 1 1.3565968276865019 1 1.4279966607226335 1 1.4993964937587652 1 1.570796326794897 4
1 0 0 1 0 
1 0 -1 1 0 
3 -101.17703804539468 -281.80794527525626 0 1 -1 0 7.7781745930520216 5.5
7 0 0  3 25 23  -1.5707963267948966 35.455844122715718  -1.5469963824495183 35.586744835342337  -1.4993964937587645 35.848542666111349  -1.4279966607226342 36.239241197465738  -1.3565968276865021 36.62594694333837  -1.285196994650371 37.006690320723301  -1.213797161614238 37.379530885829872  -1.1423973285781077 37.74256879902174  -1.0709974955419757 38.093954083439712  -0.99959766250584536 38.431896165275532  -0.92819782946971152 38.754672967787123  -0.85679799643357857 39.06063969474468  -0.78539816339744828 39.348237209722818  -0.7139983303613171 39.615999981814369  -0.64259849732518415 39.862563553004534  -0.57119866428905208 40.086671492965678  -0.49979883125292268 40.287181794855989  -0.42839899821679062 40.463072719624073  -0.35699916518065855 40.613447909641096  -0.28559933214452826 40.737541303097949  -0.21419949910839797 40.834719743539772  -0.14279966607226147 40.904491036085538  -0.071399833036132065 40.946488430483114  -0.023799944345379132 40.95585598377081  8.9000000000000007e-16 40.95584412271571 
 4.7123889803846897 4 4.7837888134208217 1 4.8551886464569529 1 4.926588479493085 1 4.9979883125292162 1 5.0693881455653482 1 5.1407879786014794 1 5.2121878116376115 1 5.2835876446737426 1 5.3549874777098747 1 5.4263873107460068 1 5.497787143782138 1 5.5691869768182691 1 5.6405868098544012 1 5.7119866428905333 1 5.7833864759266644 1 5.8547863089627965 1 5.9261861419989277 1 5.9975859750350597 1 6.0689858080711918 1 6.140385641107323 1 6.2117854741434542 1 6.2831853071795862 4
1 0 0 1 0 
1 0 -1 1 0 
3 -101.17703804539468 -281.80794527525626 0 1 -1 0 7.7781745930520216 5.5
7 0 0  3 25 23  -2.1109403044711019 32.627416997969519  -2.1027563048093416 32.666020765769957  -2.086388305485821 32.743796937523022  -2.0618363065005374 32.862095710431284  -2.0372843075152538 32.981957978708671  -2.0127323085299738 33.103311416006427  -1.988180309544691 33.226082894679564  -1.9636283105594101 33.350198406195098  -1.9390763115741274 33.475583138879536  -1.9145243125888456 33.60216151413416  -1.8899723136035638 33.729857234370584  -1.8654203146182811 33.858593328363327  -1.8408683156330001 33.988292197816456  -1.8163163166477165 34.11887566409186  -1.7917643176624365 34.250265015345398  -1.7672123186771511 34.382381053968047  -1.7426603196918737 34.515144144327557  -1.7181083207065884 34.648474260759812  -1.6935563217213057 34.782291035844935  -1.6690043227360265 34.916513808704487  -1.6444523237507447 35.051061674166796  -1.6199003247654593 35.185853529498196  -1.5953483257801802 35.320808130888203  -1.5789803264566586 35.410832119670296  -1.5707963267948966 35.455844122715718 
 4.1722450027084852 4 4.196797001693767 1 4.2213490006790488 1 4.2459009996643315 1 4.2704529986496134 1 4.2950049976348952 1 4.319556996620177 1 4.3441089956054597 1 4.3686609945907415 1 4.3932129935760234 1 4.4177649925613052 1 4.442316991546587 1 4.4668689905318697 1 4.4914209895171515 1 4.5159729885024333 1 4.5405249874877152 1 4.5650769864729979 1 4.5896289854582797 1 4.6141809844435615 1 4.6387329834288433 1 4.663284982414126 1 4.6878369813994079 1 4.7123889803846897 4
1 0 0 1 0 
1 0 -1 1 0 
1 -197.17703804539468 -285.80794527525626 1 0 
1 0 -18 1 0 
3 -43.177038045394681 -281.80794527525626 0 1 -1 0 7.7781745930520216 5.5
7 0 0  3 25 23  1.5707963267948966 35.455844122715718  1.5789803264566571 35.410832119670303  1.595348325780179 35.320808130888196  1.6199003247654609 35.185853529498203  1.6444523237507427 35.051061674166817  1.6690043227360249 34.916513808704487  1.6935563217213077 34.782291035844949  1.7181083207065879 34.648474260759805  1.7426603196918713 34.515144144327571  1.7672123186771531 34.382381053968061  1.791764317662434 34.250265015345398  1.8163163166477181 34.118875664091853  1.8408683156329977 33.988292197816456  1.8654203146182819 33.858593328363312  1.8899723136035631 33.729857234370591  1.9145243125888454 33.60216151413416  1.9390763115741267 33.475583138879543  1.9636283105594097 33.350198406195112  1.9881803095446915 33.226082894679571  2.0127323085299746 33.10331141600642  2.0372843075152551 32.981957978708678  2.0618363065005387 32.862095710431298  2.0863883054858201 32.743796937523015  2.1027563048093407 32.666020765769957  2.110940304471101 32.627416997969519 
 1.5707963267948966 4 1.5953483257801786 1 1.6199003247654606 1 1.6444523237507427 1 1.6690043227360247 1 1.6935563217213065 1 1.7181083207065888 1 1.7426603196918706 1 1.7672123186771527 1 1.7917643176624347 1 1.8163163166477168 1 1.8408683156329988 1 1.8654203146182808 1 1.8899723136035629 1 1.9145243125888449 1 1.939076311574127 1 1.9636283105594088 1 1.988180309544691 1 2.0127323085299729 1 2.0372843075152551 1 2.061836306500537 1 2.0863883054858192 1 2.110940304471101 4
1 0 0 1 0 
1 0 -1 1 0 
3 -43.177038045394681 -281.80794527525626 0 1 -1 0 7.7781745930520216 5.5
7 0 0  3 25 23  0 40.95584412271571  0.023799944345374718 40.955855983770803  0.071399833036128971 40.946488430483122  0.14279966607226754 40.904491036085538  0.21419949910839065 40.834719743539765  0.28559933214452926 40.737541303097956  0.35699916518065855 40.613447909641103  0.42839899821678618 40.463072719624058  0.4997988312529229 40.287181794856004  0.57119866428905164 40.086671492965671  0.64259849732518459 39.862563553004527  0.71399833036131732 39.615999981814355  0.78539816339744917 39.348237209722825  0.85679799643357712 39.060639694744687  0.92819782946971208 38.754672967787123  0.9995976625058437 38.431896165275532  1.0709974955419743 38.093954083439712  1.1423973285781057 37.742568799021733  1.2137971616142376 37.379530885829872  1.2851969946503714 37.006690320723301  1.356596827686501 36.625946943338356  1.4279966607226342 36.239241197465752  1.4993964937587658 35.848542666111342  1.5469963824495199 35.58674483534233  1.5707963267948972 35.45584412271571 
 0 4 0.071399833036131677 1 0.14279966607226335 1 0.21419949910839503 1 0.28559933214452671 1 0.35699916518065838 1 0.42839899821679006 1 0.49979883125292174 1 0.57119866428905341 1 0.64259849732518504 1 0.71399833036131677 1 0.7853981633974485 1 0.85679799643358012 1 0.92819782946971174 1 0.99959766250584348 1 1.0709974955419752 1 1.1423973285781068 1 1.2137971616142385 1 1.2851969946503701 1 1.3565968276865019 1 1.4279966607226335 1 1.4993964937587652 1 1.570796326794897 4
1 0 0 1 0 
1 0 -1 1 0 
3 -43.177038045394681 -281.80794527525626 0 1 -1 0 7.7781745930520216 5.5
7 0 0  3 25 23  -1.5707963267948966 35.455844122715718  -1.5469963824495183 35.586744835342337  -1.4993964937587645 35.848542666111349  -1.4279966607226342 36.239241197465738  -1.3565968276865012 36.62594694333837  -1.2851969946503701 37.006690320723301  -1.2137971616142389 37.379530885829872  -1.1423973285781051 37.74256879902174  -1.0709974955419757 38.093954083439712  -0.99959766250584536 38.431896165275532  -0.92819782946971152 38.754672967787123  -0.85679799643357857 39.06063969474468  -0.78539816339744828 39.348237209722818  -0.7139983303613171 39.615999981814369  -0.64259849732518504 39.862563553004534  -0.57119866428905119 40.086671492965678  -0.49979883125292357 40.287181794855989  -0.42839899821678618 40.463072719624073  -0.35699916518066033 40.613447909641096  -0.28559933214452826 40.737541303097949  -0.21419949910839087 40.834719743539772  -0.14279966607226768 40.904491036085538  -0.071399833036128513 40.946488430483114  -0.023799944345374691 40.95585598377081  0 40.95584412271571 
 4.7123889803846897 4 4.7837888134208217 1 4.8551886464569529 1 4.926588479493085 1 4.9979883125292162 1 5.0693881455653482 1 5.1407879786014794 1 5.2121878116376115 1 5.2835876446737426 1 5.3549874777098747 1 5.4263873107460068 1 5.497787143782138 1 5.5691869768182691 1 5.6405868098544012 1 5.7119866428905333 1 5.7833864759266644 1 5.8547863089627965 1 5.9261861419989277 1 5.9975859750350597 1 6.0689858080711918 1 6.140385641107323 1 6.2117854741434542 1 6.2831853071795862 4
1 0 0 1 0 
1 0 -1 1 0 
3 -43.177038045394681 -281.80794527525626 0 1 -1 0 7.7781745930520216 5.5
7 0 0  3 25 23  -2.1109403044711019 32.627416997969519  -2.1027563048093416 32.666020765769957  -2.0863883054858201 32.743796937523022  -2.0618363065005392 32.862095710431284  -2.0372843075152565 32.981957978708671  -2.0127323085299738 33.103311416006427  -1.9881803095446937 33.226082894679564  -1.9636283105594083 33.350198406195098  -1.9390763115741274 33.475583138879536  -1.9145243125888456 33.60216151413416  -1.8899723136035629 33.729857234370584  -1.8654203146182828 33.858593328363327  -1.8408683156329992 33.988292197816456  -1.8163163166477183 34.11887566409186  -1.7917643176624356 34.250265015345398  -1.7672123186771529 34.382381053968047  -1.7426603196918737 34.515144144327557  -1.7181083207065884 34.648474260759812  -1.6935563217213065 34.782291035844935  -1.6690043227360256 34.916513808704487  -1.6444523237507456 35.051061674166796  -1.6199003247654593 35.185853529498196  -1.5953483257801802 35.320808130888203  -1.5789803264566586 35.410832119670296  -1.5707963267948966 35.455844122715718 
 4.1722450027084852 4 4.196797001693767 1 4.2213490006790488 1 4.2459009996643315 1 4.2704529986496134 1 4.2950049976348952 1 4.319556996620177 1 4.3441089956054597 1 4.3686609945907415 1 4.3932129935760234 1 4.4177649925613052 1 4.442316991546587 1 4.4668689905318697 1 4.4914209895171515 1 4.5159729885024333 1 4.5405249874877152 1 4.5650769864729979 1 4.5896289854582797 1 4.6141809844435615 1 4.6387329834288433 1 4.663284982414126 1 4.6878369813994079 1 4.7123889803846897 4
1 0 0 1 0 
1 0 -1 1 0 
1 -197.17703804539468 -285.80794527525626 1 0 
1 0 -18 1 0 
1 202.87296195460533 -285.80794527525626 0 1 
1 -286 9 1 0 
3 -43.177038045394681 282.19205472474374 0 -1 1 0 7.7781745930519719 5.5
7 0 0  3 25 23  4.7123889803846897 35.455844122715689  4.720572980046442 35.410832119670332  4.7369409793699493 35.32080813088831  4.7614929783552169 35.185853529498381  4.7860449773404836 35.051061674167066  4.8105969763257539 34.916513808704828  4.8351489753110304 34.782291035845283  4.8597009742962927 34.648474260760267  4.8842529732815558 34.515144144328126  4.9088049722668226 34.382381053968679  4.9333569712520831 34.250265015346159  4.9579089702373507 34.118875664092684  4.9824609692226431 33.988292197817231  5.0070129682078939 33.858593328364236  5.0315649671931562 33.729857234371622  5.0561169661784255 33.60216151413524  5.0806689651636887 33.475583138880694  5.1052209641489599 33.350198406196327  5.129772963134231 33.226082894680808  5.1543249621194915 33.103311416007777  5.1788769611047609 32.981957978710057  5.2034289600900383 32.862095710432669  5.2279809590753024 32.7437969375245  5.2443489583988026 32.666020765771513  5.2525329580605522 32.627416997971125 
 1.5707963267948966 4 1.5953483257801635 1 1.6199003247654304 1 1.6444523237506972 1 1.6690043227359641 1 1.6935563217212311 1 1.718108320706498 1 1.7426603196917649 1 1.7672123186770317 1 1.7917643176622986 1 1.8163163166475655 1 1.8408683156328325 1 1.8654203146180994 1 1.8899723136033661 1 1.9145243125886333 1 1.9390763115739 1 1.963628310559167 1 1.9881803095444339 1 2.0127323085297006 1 2.0372843075149678 1 2.0618363065002345 1 2.0863883054855012 1 2.1109403044707684 4
1 0 0 1 0 
1 0 -1 1 0 
1 159.98233695460533 -218.59544527525625 0 1 
8 63.212500000000006 374.36249999999995
1 -63.212500000000006 19 1 0 
1 -150.75672554539469 -155.38294527525625 -1 0 
8 -310.73906250000005 -46.420312500000001
1 -46.420312500000001 -19 -1 -0 
1 -104.33641304539468 -218.59544527525625 0 1 
8 63.212500000000006 374.36249999999995
1 -63.212500000000006 19 1 0 
1 -150.75672554539469 155.76705472474373 -1 0 
8 -310.73906250000005 -46.420312500000001
1 -46.420312500000001 -19 -1 -0 
2 12.822961954605319 220.19205472474374 1 0 -0 1 12.699999999999989
1 0 19 1 0 
2 12.822961954605319 -209.80794527525626 1 0 -0 1 12.699999999999989
1 0 19 1 0 
2 62.822961954605319 -209.80794527525626 1 0 -0 1 12.699999999999989
1 0 19 1 0 
2 112.82296195460532 -209.80794527525626 1 0 -0 1 12.699999999999989
1 0 19 1 0 
2 27.822961954605319 -163.32044527525625 1 0 -0 1 3.5718750000000057
1 0 19 1 0 
2 167.91983695460533 -231.58294527525626 1 0 -0 1 3.5718749999999773
1 0 19 1 0 
2 -112.27391304539468 0.19205472474374119 1 0 -0 1 3.5718750000000057
1 0 19 1 0 
2 27.822961954605319 163.70455472474373 1 0 -0 1 3.5718750000000057
1 0 19 1 0 
2 167.91983695460533 0.19205472474374119 1 0 -0 1 3.5718749999999773
1 0 19 1 0 
2 167.91983695460533 177.99205472474375 1 0 -0 1 3.5718749999999773
1 0 19 1 0 
1 0 0 1 0 
1 200.02500000000001 -286 -1 0 
1 400.05000000000001 0 0 -1 
1 -286 -9 0 1 
3 154 -14 0 -1 1 0 7.7781745930520225 5.5
7 0 0  3 25 23  -2.110940304471101 32.627416997969519  -2.0789563604639634 32.476565038114053  -2.014988472449688 32.166119058486728  -1.9190366404282724 31.678717522395743  -1.8230848084068612 31.174011201310833  -1.7271329763854446 30.656658286938963  -1.6311811443640352 30.131414234733523  -1.5352293123426177 29.603112208934498  -1.4392774803212047 29.076612136243384  -1.3433256482997917 28.556757733023908  -1.2473738162783761 28.048331479171878  -1.151421984256964 27.556010745454071  -1.0554701522355501 27.084324729829998  -0.95951832021413797 26.637612798760532  -0.8635664881927223 26.219984565527042  -0.76761465617130487 25.835282077889524  -0.67166282414989986 25.487044493924781  -0.57571099212848242 25.178475442038728  -0.47975916010707031 24.912413850359588  -0.38380732808565643 24.691306703135137  -0.28785549606424166 24.517190732787853  -0.19190366404282866 24.391657994708282  -0.095951832021410333 24.315899768855125  -0.031983944007137673 24.298951320391435  0 24.298989873223331 
 1.0306523491186923 4 1.126604181140106 1 1.2225560131615196 1 1.3185078451829333 1 1.414459677204347 1 1.5104115092257606 1 1.6063633412471745 1 1.7023151732685879 1 1.7982670052900018 1 1.8942188373114153 1 1.9901706693328292 1 2.086122501354243 1 2.1820743333756565 1 2.2780261653970699 1 2.3739779974184838 1 2.4699298294398977 1 2.5658816614613111 1 2.6618334934827246 1 2.7577853255041385 1 2.8537371575255523 1 2.9496889895469658 1 3.0456408215683792 1 3.1415926535897931 4
3 154 -14 0 -1 1 0 7.7781745930520225 5.5
7 0 0  3 25 23  0 24.298989873223331  0.031983944007136687 24.298951320391435  0.09595183202141197 24.315899768855129  0.1919036640428286 24.391657994708279  0.28785549606423866 24.517190732787856  0.38380732808565993 24.691306703135133  0.47975916010706271 24.912413850359577  0.57571099212848575 25.178475442038735  0.67166282414989731 25.487044493924781  0.76761465617130653 25.835282077889531  0.86356648819272319 26.219984565527021  0.95951832021413708 26.637612798760539  1.0554701522355492 27.084324729830001  1.1514219842569646 27.556010745454063  1.2473738162783781 28.048331479171878  1.343325648299792 28.5567577330239  1.4392774803212056 29.07661213624338  1.5352293123426184 29.603112208934498  1.6311811443640327 30.131414234733519  1.7271329763854457 30.656658286938963  1.8230848084068603 31.174011201310822  1.9190366404282708 31.678717522395743  2.0149884724496889 32.166119058486728  2.0789563604639634 32.476565038114039  2.110940304471101 32.627416997969519 
 3.1415926535897931 4 3.237544485611207 1 3.3334963176326204 1 3.4294481496540343 1 3.5253999816754478 1 3.6213518136968617 1 3.7173036457182751 1 3.813255477739689 1 3.9092073097611024 1 4.0051591417825163 1 4.1011109738039302 1 4.1970628058253432 1 4.2930146378467571 1 4.388966469868171 1 4.4849183018895848 1 4.5808701339109987 1 4.6768219659324117 1 4.7727737979538256 1 4.8687256299752395 1 4.9646774619966525 1 5.0606292940180664 1 5.1565811260394803 1 5.2525329580608942 4
3 96 -14 0 -1 1 0 7.7781745930520225 5.5
7 0 0  3 25 23  -2.110940304471101 32.627416997969519  -2.0789563604639634 32.476565038114053  -2.0149884724496872 32.166119058486728  -1.9190366404282742 31.678717522395743  -1.8230848084068603 31.174011201310833  -1.7271329763854455 30.656658286938963  -1.6311811443640343 30.131414234733523  -1.5352293123426186 29.603112208934498  -1.4392774803212047 29.076612136243384  -1.3433256482997917 28.556757733023908  -1.2473738162783761 28.048331479171878  -1.151421984256964 27.556010745454071  -1.0554701522355501 27.084324729829998  -0.95951832021413797 26.637612798760532  -0.8635664881927223 26.219984565527042  -0.76761465617130842 25.835282077889524  -0.67166282414989631 25.487044493924781  -0.57571099212848065 25.178475442038728  -0.47975916010706765 24.912413850359588  -0.38380732808565465 24.691306703135137  -0.28785549606424166 24.517190732787853  -0.19190366404282777 24.391657994708282  -0.095951832021413885 24.315899768855125  -0.03198394400714033 24.298951320391435  -8.9000000000000007e-16 24.298989873223331 
 1.0306523491186923 4 1.126604181140106 1 1.2225560131615196 1 1.3185078451829333 1 1.414459677204347 1 1.5104115092257606 1 1.6063633412471745 1 1.7023151732685879 1 1.7982670052900018 1 1.8942188373114153 1 1.9901706693328292 1 2.086122501354243 1 2.1820743333756565 1 2.2780261653970699 1 2.3739779974184838 1 2.4699298294398977 1 2.5658816614613111 1 2.6618334934827246 1 2.7577853255041385 1 2.8537371575255523 1 2.9496889895469658 1 3.0456408215683792 1 3.1415926535897931 4
3 96 -14 0 -1 1 0 7.7781745930520225 5.5
7 0 0  3 25 23  0 24.298989873223331  0.031983944007136687 24.298951320391435  0.095951832021412081 24.315899768855129  0.19190366404282819 24.391657994708279  0.2878554960642401 24.517190732787856  0.38380732808565454 24.691306703135133  0.47975916010706843 24.912413850359577  0.57571099212848187 25.178475442038735  0.67166282414989431 25.487044493924781  0.76761465617131042 25.835282077889531  0.86356648819272197 26.219984565527021  0.95951832021413752 26.637612798760539  1.055470152235549 27.084324729830001  1.1514219842569646 27.556010745454063  1.2473738162783781 28.048331479171878  1.343325648299792 28.5567577330239  1.4392774803212056 29.07661213624338  1.5352293123426184 29.603112208934498  1.6311811443640327 30.131414234733519  1.7271329763854457 30.656658286938963  1.8230848084068603 31.174011201310822  1.9190366404282722 31.678717522395743  2.0149884724496885 32.166119058486728  2.0789563604639629 32.476565038114039  2.110940304471101 32.627416997969519 
 3.1415926535897931 4 3.237544485611207 1 3.3334963176326204 1 3.4294481496540343 1 3.5253999816754478 1 3.6213518136968617 1 3.7173036457182751 1 3.813255477739689 1 3.9092073097611024 1 4.0051591417825163 1 4.1011109738039302 1 4.1970628058253432 1 4.2930146378467571 1 4.388966469868171 1 4.4849183018895848 1 4.5808701339109987 1 4.6768219659324117 1 4.7727737979538256 1 4.8687256299752395 1 4.9646774619966525 1 5.0606292940180664 1 5.1565811260394803 1 5.2525329580608942 4
1 0 0 0 -1 
1 286 -9 0 1 
1 0 0 0 1 
1 264.31875000000002 0 0 -1 
1 311.14999999999998 0 0 1 
1 264.31875000000002 0 0 -1 
8 63.212500000000006 374.36249999999995
1 -63.212500000000006 1 1 0 
1 -157.13437500000001 -218.78749999999999 0 1 
1 0 0 0 -1 
1 0 0 0 1 
8 -310.73906250000005 -46.420312500000001
1 -46.420312500000001 -1 -1 -0 
1 153.60468750000001 -155.57499999999999 1 0 
1 311.14999999999998 0 0 1 
1 0 0 0 -1 
8 63.212500000000006 374.36249999999995
1 -63.212500000000006 1 1 0 
1 107.184375 -218.78749999999999 0 1 
8 -310.73906250000005 -46.420312500000001
1 -46.420312500000001 -1 -1 -0 
1 153.60468750000001 155.57499999999999 1 0 
1 6.2831853071795862 -0 0 1 
1 0 -0 0 1 
1 0 1 1 0 
2 -9.9749999999999943 220 -1 0 0 1 12.699999999999989
1 6.2831853071795862 -0 0 1 
1 0 -0 0 1 
1 0 1 1 0 
2 -9.9749999999999943 -210 -1 0 0 1 12.699999999999989
1 6.2831853071795862 -0 0 1 
1 0 -0 0 1 
1 0 1 1 0 
2 -59.974999999999994 -210 -1 0 0 1 12.699999999999989
1 6.2831853071795862 -0 0 1 
1 0 -0 0 1 
1 0 1 1 0 
2 -109.97499999999999 -210 -1 0 0 1 12.699999999999989
1 6.2831853071795862 -0 0 1 
1 0 -0 0 1 
1 0 1 1 0 
2 -24.974999999999994 -163.51249999999999 -1 0 0 1 3.5718750000000057
1 6.2831853071795862 -0 0 1 
1 0 -0 0 1 
1 0 1 1 0 
2 -165.07187500000001 -231.77500000000001 -1 0 0 1 3.5718749999999773
1 6.2831853071795862 -0 0 1 
1 0 -0 0 1 
1 0 1 1 0 
2 115.121875 0 -1 0 0 1 3.5718750000000057
1 6.2831853071795862 -0 0 1 
1 0 -0 0 1 
1 0 1 1 0 
2 -24.974999999999994 163.51249999999999 -1 0 0 1 3.5718750000000057
1 6.2831853071795862 -0 0 1 
1 0 -0 0 1 
1 0 1 1 0 
2 -165.07187500000001 0 -1 0 0 1 3.5718749999999773
1 6.2831853071795862 -0 0 1 
1 0 -0 0 1 
1 0 1 1 0 
2 -165.07187500000001 177.80000000000001 -1 0 0 1 3.5718749999999773
1 -300 -9 1 0 
1 200.02500000000001 300 0 -1 
1 -300 -9 1 0 
1 -200.02500000000001 -300 0 1 
Curves 80
1 586 0 0 0 0 1 
1 586 0 400.05000000000001 -0 1 0 
1 586 18 0 0 0 1 
3 586 13.999999999999943 154 1 0 -0 0 1 0 0 -0 1 7.7781745930520225 5.5
3 586 13.999999999999943 154 1 0 -0 0 1 0 0 -0 1 7.7781745930520225 5.5
1 586 18 0 0 0 1 
3 586 13.999999999999943 96 1 0 -0 0 1 0 0 -0 1 7.7781745930520225 5.5
3 586 13.999999999999943 96 1 0 -0 0 1 0 0 -0 1 7.7781745930520225 5.5
1 586 18 0 0 0 1 
1 586 0 0 -0 1 0 
3 582 18 154 0 1 0 -1 0 0 0 -0 1 7.7781745930520225 5.5
3 582 18 154 -0 1 0 -1 -0 0 0 0 1 7.7781745930520225 5.5
3 582 18 96 -0 1 0 -1 -0 0 0 0 1 7.7781745930520225 5.5
3 582 18 96 0 1 0 -1 0 0 0 -0 1 7.7781745930520225 5.5
3 582 18 96 -0 1 0 -1 -0 0 0 0 1 7.7781745930520225 5.5
1 582 18 0 1 0 -0 
1 14 18 0 0 0 1 
3 18 18 96 -0 1 0 1 0 0 0 0 -1 7.7781745930520225 5.5
3 18 18 96 0 1 0 1 -0 0 0 0 -1 7.7781745930520225 5.5
3 18 18 96 0 1 0 1 -0 0 0 0 -1 7.7781745930520225 5.5
3 18 18 96 -0 1 0 1 0 0 0 0 -1 7.7781745930520225 5.5
1 14 18 0 0 0 1 
3 18 18 154 -0 1 0 1 0 0 0 0 -1 7.7781745930520225 5.5
3 18 18 154 0 1 0 1 -0 0 0 0 -1 7.7781745930520225 5.5
3 18 18 154 0 1 0 1 -0 0 0 0 -1 7.7781745930520225 5.5
3 18 18 154 -0 1 0 1 0 0 0 0 -1 7.7781745930520225 5.5
1 14 18 0 0 0 1 
1 14 18 400.05000000000001 1 0 -0 
3 582 18 154 -0 1 0 -1 -0 0 0 0 1 7.7781745930520225 5.5
1 81.212500000000006 18 357.15937500000001 1 0 -0 
1 144.42500000000001 18 46.420312500000001 -0 0 -1 
1 81.212500000000006 18 92.840625000000003 1 0 -0 
1 455.57499999999999 18 46.420312500000001 -0 0 -1 
2 520 18 210 0 1 0 0 -0 1 1 0 -0 12.699999999999999
2 90 18 210 0 1 0 0 -0 1 1 0 -0 12.699999999999999
2 90 18 260 0 1 0 0 -0 1 1 0 -0 12.699999999999999
2 90 18 310 0 1 0 0 -0 1 1 0 -0 12.699999999999999
2 136.48750000000001 18 225 0 1 0 0 -0 1 1 0 -0 3.5718749999999999
2 68.224999999999994 18 365.09687500000001 0 1 0 0 -0 1 1 0 -0 3.5718749999999999
2 300 18 84.903125000000003 0 1 0 0 -0 1 1 0 -0 3.5718749999999999
2 463.51249999999999 18 225 0 1 0 0 -0 1 1 0 -0 3.5718749999999999
2 300 18 365.09687500000001 0 1 0 0 -0 1 1 0 -0 3.5718749999999999
2 477.80000000000001 18 365.09687500000001 0 1 0 0 -0 1 1 0 -0 3.5718749999999999
1 14 0 0 0 0 1 
1 14 0 400.05000000000001 -0 1 0 
3 14 14 154 1 0 -0 0 1 0 0 -0 1 7.7781745930520225 5.5
3 14 14 154 1 0 -0 0 1 0 0 -0 1 7.7781745930520225 5.5
3 14 14 96 1 0 -0 0 1 0 0 -0 1 7.7781745930520225 5.5
3 14 14 96 1 0 -0 0 1 0 0 -0 1 7.7781745930520225 5.5
1 14 0 0 -0 1 0 
1 144.42500000000001 -1 357.15937500000001 -0 1 0 
1 455.57499999999999 -1 357.15937500000001 -0 1 0 
1 81.212500000000006 0 357.15937500000001 1 0 -0 
1 144.42500000000001 -1 92.840625000000003 -0 1 0 
1 144.42500000000001 0 46.420312500000001 -0 0 -1 
1 455.57499999999999 -1 92.840625000000003 -0 1 0 
1 81.212500000000006 0 92.840625000000003 1 0 -0 
1 455.57499999999999 0 46.420312500000001 -0 0 -1 
1 520 -1 222.69999999999999 0 1 0 
2 520 0 210 0 1 0 0 -0 1 1 0 -0 12.699999999999999
1 90 -1 222.69999999999999 0 1 0 
2 90 0 210 0 1 0 0 -0 1 1 0 -0 12.699999999999999
1 89.999999999999986 -1 272.69999999999999 0 1 0 
2 90 0 260 0 1 0 0 -0 1 1 0 -0 12.699999999999999
1 89.999999999999986 -1 322.69999999999999 0 1 0 
2 90 0 310 0 1 0 0 -0 1 1 0 -0 12.699999999999999
1 136.48750000000001 -1 228.57187500000001 0 1 0 
2 136.48750000000001 0 225 0 1 0 0 -0 1 1 0 -0 3.5718749999999999
1 68.224999999999994 -1 368.66874999999999 0 1 0 
2 68.224999999999994 0 365.09687500000001 0 1 0 0 -0 1 1 0 -0 3.5718749999999999
1 300 -1 88.475000000000009 0 1 0 
2 300 0 84.903125000000003 0 1 0 0 -0 1 1 0 -0 3.5718749999999999
1 463.51249999999999 -1 228.57187500000001 0 1 0 
2 463.51249999999999 0 225 0 1 0 0 -0 1 1 0 -0 3.5718749999999999
1 300 -1 368.66874999999999 0 1 0 
2 300 0 365.09687500000001 0 1 0 0 -0 1 1 0 -0 3.5718749999999999
1 477.80000000000001 -1 368.66874999999999 0 1 0 
2 477.80000000000001 0 365.09687500000001 0 1 0 0 -0 1 1 0 -0 3.5718749999999999
1 600 0 0 -1 -0 -0 
1 0 0 400.05000000000001 1 0 0 
Polygon3D 0
PolygonOnTriangulations 0
Surfaces 38
1 586 0 0 1 0 -0 0 0 1 0 -1 0 
1 300 0 200.02500000000001 -0 -1 -0 0 0 -1 1 -0 0 
1 300 9 400.04999999999995 0 0 1 1 0 -0 -0 1 0 
1 299.80794527525626 18.000000000000004 197.17703804539468 0 1 0 0 -0 1 1 0 -0 
2 607.07106781186542 -7.0710678118654746 154 -0.70710678118654757 0.70710678118654757 0 0.70710678118654757 0.70710678118654757 0 0 0 -1 5.5
2 607.07106781186542 -7.0710678118654746 96 -0.70710678118654757 0.70710678118654757 0 0.70710678118654757 0.70710678118654757 0 0 0 -1 5.5
1 300 9 0 -0 -0 -1 -1 0 0 0 1 -0 
6 -0 -0 -1 
3 573.88911455749485 154 3.5527136788005009e-15 0 1.1102230246251565e-16 -1 -1 0 0 0 1 1.1102230246251565e-16 7.7781745930520225 5.5
6 -0 -0 -1 
3 573.88911455749485 154 3.5527136788005009e-15 0 1.1102230246251565e-16 -1 -1 0 0 0 1 1.1102230246251565e-16 7.7781745930520225 5.5
6 -0 -0 -1 
3 573.88911455749485 96 -3.5527136788005009e-15 0 1.1102230246251565e-16 -1 -1 0 0 0 1 1.1102230246251565e-16 7.7781745930520225 5.5
6 -0 -0 -1 
3 573.88911455749485 96 -3.5527136788005009e-15 0 1.1102230246251565e-16 -1 -1 0 0 0 1 1.1102230246251565e-16 7.7781745930520225 5.5
6 -0 -0 -1 
3 573.88911455749485 96 -3.5527136788005009e-15 0 1.1102230246251565e-16 -1 -1 0 0 0 1 1.1102230246251565e-16 7.7781745930520225 5.5
1 14 0 0 1 0 -0 0 0 1 0 -1 0 
2 -7.0710678118654746 -7.0710678118654746 96 0.70710678118654757 0.70710678118654757 0 0.70710678118654757 -0.70710678118654757 0 0 0 -1 5.5
6 -0 -0 -1 
3 9.8891145574948833 96 -3.5527136788005009e-15 0 1.1102230246251565e-16 -1 1 0 0 0 -1 -1.1102230246251565e-16 7.7781745930520225 5.5
6 -0 -0 -1 
3 9.8891145574948833 96 -3.5527136788005009e-15 0 1.1102230246251565e-16 -1 1 0 0 0 -1 -1.1102230246251565e-16 7.7781745930520225 5.5
6 -0 -0 -1 
3 9.8891145574948833 96 -3.5527136788005009e-15 0 1.1102230246251565e-16 -1 1 0 0 0 -1 -1.1102230246251565e-16 7.7781745930520225 5.5
6 -0 -0 -1 
3 9.8891145574948833 96 -3.5527136788005009e-15 0 1.1102230246251565e-16 -1 1 0 0 0 -1 -1.1102230246251565e-16 7.7781745930520225 5.5
2 -7.0710678118654746 -7.0710678118654746 154 0.70710678118654757 0.70710678118654757 0 0.70710678118654757 -0.70710678118654757 0 0 0 -1 5.5
6 -0 -0 -1 
3 9.8891145574948833 154 3.5527136788005009e-15 0 1.1102230246251565e-16 -1 1 0 0 0 -1 -1.1102230246251565e-16 7.7781745930520225 5.5
6 -0 -0 -1 
3 9.8891145574948833 154 3.5527136788005009e-15 0 1.1102230246251565e-16 -1 1 0 0 0 -1 -1.1102230246251565e-16 7.7781745930520225 5.5
6 -0 -0 -1 
3 9.8891145574948833 154 3.5527136788005009e-15 0 1.1102230246251565e-16 -1 1 0 0 0 -1 -1.1102230246251565e-16 7.7781745930520225 5.5
6 -0 -0 -1 
3 9.8891145574948833 154 3.5527136788005009e-15 0 1.1102230246251565e-16 -1 1 0 0 0 -1 -1.1102230246251565e-16 7.7781745930520225 5.5
6 -0 -0 -1 
3 573.88911455749485 154 3.5527136788005009e-15 0 1.1102230246251565e-16 -1 -1 0 0 0 1 1.1102230246251565e-16 7.7781745930520225 5.5
1 144.42500000000001 -1 357.15937500000001 0 0 1 1 0 -0 -0 1 0 
1 144.42500000000001 -1 92.840625000000003 1 0 -0 0 0 1 0 -1 0 
1 144.42500000000001 -1 92.840625000000003 0 0 1 1 0 -0 -0 1 0 
1 455.57499999999999 -1 92.840625000000003 1 0 -0 0 0 1 0 -1 0 
2 520 -1 210 0 1 0 0 -0 1 1 0 -0 12.699999999999999
2 90 -1 210 0 1 0 0 -0 1 1 0 -0 12.699999999999999
2 90 -1 260 0 1 0 0 -0 1 1 0 -0 12.699999999999999
2 90 -1 310 0 1 0 0 -0 1 1 0 -0 12.699999999999999
2 136.48750000000001 -1 225 0 1 0 0 -0 1 1 0 -0 3.5718749999999999
2 68.224999999999994 -1 365.09687500000001 0 1 0 0 -0 1 1 0 -0 3.5718749999999999
2 300 -1 84.903125000000003 0 1 0 0 -0 1 1 0 -0 3.5718749999999999
2 463.51249999999999 -1 225 0 1 0 0 -0 1 1 0 -0 3.5718749999999999
2 300 -1 365.09687500000001 0 1 0 0 -0 1 1 0 -0 3.5718749999999999
2 477.80000000000001 -1 365.09687500000001 0 1 0 0 -0 1 1 0 -0 3.5718749999999999
Triangulations 0

TShapes 211
Ve
1e-07
586 0 0
0 0

0101101
*
Ve
1e-07
586 0 400.05
0 0

0101101
*
Ed
 1e-07 1 1 0
1  1 0 0 400.05
2  1 1 0 0 400.05
2  2 2 0 0 400.05
0

0101000
+211 5 -210 5 *
Ve
8.4259611861e-05
586 18 400.05
0 0

0101101
*
Ed
 1e-07 1 1 0
1  2 0 0 18
2  3 1 0 0 18
2  4 3 0 0 18
0

0101000
+210 5 -208 5 *
Ve
5.530592533e-06
586 18 158.716990566034
0 0

0101101
*
Ed
 5.530592533e-06 1 1 0
1  3 0 158.716990566034 400.05
2  5 1 0 158.716990566034 400.05
2  6 4 0 158.716990566034 400.05
0

0101000
+206 5 -208 5 *
Ve
1.00000021e-07
586 6.2218254069479 154
0 0

0101101
*
Ed
 1e-07 1 1 0
1  4 0 1.03065234911902 3.14159265358979
2  7 1 0 1.03065234911902 3.14159265358979
2  8 5 0 1.03065234911902 3.14159265358979
0

0101000
+206 5 -204 5 *
Ve
5.530592533e-06
586 18 149.283009433966
0 0

0101101
*
Ed
 1e-07 1 1 0
1  5 0 3.14159265358979 5.25253295806057
2  9 1 0 3.14159265358979 5.25253295806057
2  10 5 0 3.14159265358979 5.25253295806057
0

0101000
+204 5 -202 5 *
Ve
5.530592533e-06
586 18 100.716990566034
0 0

0101101
*
Ed
 5.530592533e-06 1 1 0
1  6 0 100.716990566034 149.283009433966
2  11 1 0 100.716990566034 149.283009433966
2  12 4 0 100.716990566034 149.283009433966
0

0101000
+200 5 -202 5 *
Ve
1.00000021e-07
586 6.2218254069479 96
0 0

0101101
*
Ed
 1e-07 1 1 0
1  7 0 1.03065234911902 3.14159265358979
2  13 1 0 1.03065234911902 3.14159265358979
2  14 6 0 1.03065234911902 3.14159265358979
0

0101000
+200 5 -198 5 *
Ve
5.530592533e-06
586 18 91.2830094339655
0 0

0101101
*
Ed
 1e-07 1 1 0
1  8 0 3.14159265358979 5.25253295806057
2  15 1 0 3.14159265358979 5.25253295806057
2  16 6 0 3.14159265358979 5.25253295806057
0

0101000
+198 5 -196 5 *
Ve
5.530592533e-06
586 18 0
0 0

0101101
*
Ed
 5.530592533e-06 1 1 0
1  9 0 0 91.2830094339655
2  17 1 0 0 91.2830094339655
2  18 4 0 0 91.2830094339655
0

0101000
+194 5 -196 5 *
Ed
 1e-07 1 1 0
1  10 0 0 18
2  19 1 0 0 18
2  20 7 0 0 18
0

0101000
+211 5 -194 5 *
Wi

0101100
-209 0 -207 0 +205 0 -203 0 -201 0 +199 0 -197 0 -195 0 +193 0 +192 0 
*
Fa
0  1e-07 1 0

0111000
+191 0 *
Ve
1.60408988457593e-05
582 18 148.499999999995
0 0

0101101
*
Ve
1.60408988457593e-05
582 18 159.500000000005
0 0

0101101
*
Ed
 1.60408988457593e-05 1 1 0
1  11 0 4.71238898038469 7.85398163397448
2  21 4 9 4.71238898038469 7.85398163397448
2  22 5 9 4.71238898038469 7.85398163397448
2  23 8 11 4.71238898038469 7.85398163397448
2  24 8 13 4.71238898038469 7.85398163397448
0

0101000
+189 14 -188 14 *
Ed
 5.530592533e-06 1 1 0
1  12 0 4.17224500270882 4.71238898038469
2  25 4 0 4.17224500270882 4.71238898038469
2  26 5 0 4.17224500270882 4.71238898038469
2  27 9 15 4.17224500270882 4.71238898038469
2  28 9 16 4.17224500270882 4.71238898038469
0

0101000
+202 5 -189 5 *
Ve
1.60408988457593e-05
582 18 101.500000000005
0 0

0101101
*
Ed
 5.530592533e-06 1 1 0
1  13 0 1.5707963267949 2.11094030447077
2  29 4 0 1.5707963267949 2.11094030447077
2  30 6 0 1.5707963267949 2.11094030447077
2  31 10 15 1.5707963267949 2.11094030447077
2  32 10 16 1.5707963267949 2.11094030447077
0

0101000
+185 5 -200 5 *
Ve
1.60408988457593e-05
582 18 90.4999999999948
0 0

0101101
*
Ed
 1.60408988457593e-05 1 1 0
1  14 0 4.71238898038469 7.85398163397448
2  33 4 9 4.71238898038469 7.85398163397448
2  34 6 9 4.71238898038469 7.85398163397448
2  35 11 11 4.71238898038469 7.85398163397448
2  36 11 13 4.71238898038469 7.85398163397448
0

0101000
+183 14 -185 14 *
Ed
 5.530592533e-06 1 1 0
1  15 0 4.17224500270882 4.71238898038469
2  37 4 0 4.17224500270882 4.71238898038469
2  38 6 0 4.17224500270882 4.71238898038469
2  39 12 15 4.17224500270882 4.71238898038469
2  40 12 16 4.17224500270882 4.71238898038469
0

0101000
+196 5 -183 5 *
Ve
5.530592533e-06
14 18 0
0 0

0101101
*
Ed
 5.530592533e-06 1 1 0
1  16 0 -568 4
2  41 4 0 -568 4
2  42 7 0 -568 4
0

0101000
+180 5 -194 5 *
Ve
5.530592533e-06
14 18 91.2830094339717
0 0

0101101
*
Ed
 5.530592533e-06 1 1 0
1  17 0 0 91.2830094339717
2  43 4 0 0 91.2830094339717
2  44 13 0 0 91.2830094339717
0

0101000
+180 5 -178 5 *
Ve
5.530592533e-06
18 18.0000000000001 90.5
0 0

0101101
*
Ed
 5.530592533e-06 1 1 0
1  18 0 1.5707963267949 2.1109403044711
2  45 4 0 1.5707963267949 2.1109403044711
2  46 14 0 1.5707963267949 2.1109403044711
2  47 15 15 1.5707963267949 2.1109403044711
2  48 15 16 1.5707963267949 2.1109403044711
0

0101000
+176 5 -178 5 *
Ve
5.530592533e-06
25.778174593052 18 96
0 0

0101101
*
Ed
 5.530592533e-06 1 1 0
1  19 0 0 1.5707963267949
2  49 4 9 0 1.5707963267949
2  50 14 9 0 1.5707963267949
2  51 16 11 0 1.5707963267949
2  52 16 13 0 1.5707963267949
0

0101000
+174 14 -176 14 *
Ve
5.530592533e-06
18 18.0000000000001 101.5
0 0

0101101
*
Ed
 5.530592533e-06 1 1 0
1  20 0 4.71238898038469 6.28318530717959
2  53 4 9 4.71238898038469 6.28318530717959
2  54 14 9 4.71238898038469 6.28318530717959
2  55 17 11 4.71238898038469 6.28318530717959
2  56 17 13 4.71238898038469 6.28318530717959
0

0101000
+172 14 -174 14 *
Ve
5.530592533e-06
14 18 100.716990566028
0 0

0101101
*
Ed
 5.530592533e-06 1 1 0
1  21 0 4.17224500270849 4.71238898038469
2  57 4 0 4.17224500270849 4.71238898038469
2  58 14 0 4.17224500270849 4.71238898038469
2  59 18 15 4.17224500270849 4.71238898038469
2  60 18 16 4.17224500270849 4.71238898038469
0

0101000
+170 5 -172 5 *
Ve
5.530592533e-06
14 18 149.283009433972
0 0

0101101
*
Ed
 5.530592533e-06 1 1 0
1  22 0 100.716990566028 149.283009433972
2  61 4 0 100.716990566028 149.283009433972
2  62 13 0 100.716990566028 149.283009433972
0

0101000
+170 5 -168 5 *
Ve
5.530592533e-06
18 18.0000000000001 148.5
0 0

0101101
*
Ed
 5.530592533e-06 1 1 0
1  23 0 1.5707963267949 2.1109403044711
2  63 4 0 1.5707963267949 2.1109403044711
2  64 19 0 1.5707963267949 2.1109403044711
2  65 20 15 1.5707963267949 2.1109403044711
2  66 20 16 1.5707963267949 2.1109403044711
0

0101000
+166 5 -168 5 *
Ve
5.530592533e-06
25.778174593052 18 154
0 0

0101101
*
Ed
 5.530592533e-06 1 1 0
1  24 0 0 1.5707963267949
2  67 4 9 0 1.5707963267949
2  68 19 9 0 1.5707963267949
2  69 21 11 0 1.5707963267949
2  70 21 13 0 1.5707963267949
0

0101000
+164 14 -166 14 *
Ve
5.530592533e-06
18 18.0000000000001 159.5
0 0

0101101
*
Ed
 5.530592533e-06 1 1 0
1  25 0 4.71238898038469 6.28318530717959
2  71 4 9 4.71238898038469 6.28318530717959
2  72 19 9 4.71238898038469 6.28318530717959
2  73 22 11 4.71238898038469 6.28318530717959
2  74 22 13 4.71238898038469 6.28318530717959
0

0101000
+162 14 -164 14 *
Ve
5.530592533e-06
14 18 158.716990566028
0 0

0101101
*
Ed
 5.530592533e-06 1 1 0
1  26 0 4.17224500270849 4.71238898038469
2  75 4 0 4.17224500270849 4.71238898038469
2  76 19 0 4.17224500270849 4.71238898038469
2  77 23 15 4.17224500270849 4.71238898038469
2  78 23 16 4.17224500270849 4.71238898038469
0

0101000
+160 5 -162 5 *
Ve
8.4259611748e-05
14 18 400.05
0 0

0101101
*
Ed
 5.530592533e-06 1 1 0
1  27 0 158.716990566028 400.05
2  79 4 0 158.716990566028 400.05
2  80 13 0 158.716990566028 400.05
0

0101000
+160 5 -158 5 *
Ed
 5.530592533e-06 1 1 0
1  28 0 0 572
2  81 4 0 0 572
2  82 3 0 0 572
0

0101000
+158 5 -208 5 *
Ed
 5.530592533e-06 1 1 0
1  29 0 1.5707963267949 2.11094030447077
2  83 4 0 1.5707963267949 2.11094030447077
2  84 5 0 1.5707963267949 2.11094030447077
2  85 24 15 1.5707963267949 2.11094030447077
2  86 24 16 1.5707963267949 2.11094030447077
0

0101000
+188 5 -206 5 *
Wi

0101100
-187 8 -186 0 -199 0 -184 0 -182 8 -181 0 -193 0 -179 0 +177 0 -175 0 
-173 8 -171 8 -169 0 +167 0 -165 0 -163 8 -161 8 -159 0 +157 0 +156 0 
-205 0 -155 0 *
Ve
1.50000057e-07
144.425 18 357.159375
0 0

0101101
*
Ve
1.50000057e-07
455.575 18 357.159375
0 0

0101101
*
Ed
 1.5e-07 1 1 0
1  30 0 63.2125 374.3625
2  87 4 19 63.2125 374.3625
2  88 25 0 63.2125 374.3625
0

0101000
+153 20 -152 20 *
Ve
1.5e-07
144.425 18 92.840625
0 0

0101101
*
Ed
 1.5e-07 1 1 0
1  31 0 -310.7390625 -46.4203125
2  89 4 19 -310.7390625 -46.4203125
2  90 26 0 -310.7390625 -46.4203125
0

0101000
+153 20 -150 20 *
Ve
1.50000057e-07
455.575 18 92.840625
0 0

0101101
*
Ed
 1.5e-07 1 1 0
1  32 0 63.2125 374.3625
2  91 4 19 63.2125 374.3625
2  92 27 0 63.2125 374.3625
0

0101000
+150 20 -148 20 *
Ed
 1.5e-07 1 1 0
1  33 0 -310.7390625 -46.4203125
2  93 4 19 -310.7390625 -46.4203125
2  94 28 0 -310.7390625 -46.4203125
0

0101000
+152 20 -148 20 *
Wi

0101100
-151 18 +149 18 +147 18 -146 18 *
Ve
1e-07
520 18 222.7
0 0

0101101
*
Ed
 1e-07 1 1 0
1  34 0 0 6.28318530717959
2  95 4 19 0 6.28318530717959
2  96 29 0 0 6.28318530717959
0

0101100
+144 20 -144 20 *
Wi

0101100
-143 18 *
Ve
1e-07
90 18 222.7
0 0

0101101
*
Ed
 1e-07 1 1 0
1  35 0 0 6.28318530717959
2  97 4 19 0 6.28318530717959
2  98 30 0 0 6.28318530717959
0

0101100
+141 20 -141 20 *
Wi

0101100
-140 18 *
Ve
1.00000014e-07
90 18 272.7
0 0

0101101
*
Ed
 1e-07 1 1 0
1  36 0 0 6.28318530717959
2  99 4 19 0 6.28318530717959
2  100 31 0 0 6.28318530717959
0

0101100
+138 20 -138 20 *
Wi

0101100
-137 18 *
Ve
1.00000014e-07
90 18 322.7
0 0

0101101
*
Ed
 1e-07 1 1 0
1  37 0 0 6.28318530717959
2  101 4 19 0 6.28318530717959
2  102 32 0 0 6.28318530717959
0

0101100
+135 20 -135 20 *
Wi

0101100
-134 18 *
Ve
1e-07
136.4875 18 228.571875
0 0

0101101
*
Ed
 1e-07 1 1 0
1  38 0 0 6.28318530717959
2  103 4 19 0 6.28318530717959
2  104 33 0 0 6.28318530717959
0

0101100
+132 20 -132 20 *
Wi

0101100
-131 18 *
Ve
1e-07
68.225 18 368.66875
0 0

0101101
*
Ed
 1e-07 1 1 0
1  39 0 0 6.28318530717959
2  105 4 21 0 6.28318530717959
2  106 34 0 0 6.28318530717959
0

0101100
+129 22 -129 22 *
Wi

0101100
-128 7 *
Ve
1e-07
300 18 88.475
0 0

0101101
*
Ed
 1e-07 1 1 0
1  40 0 0 6.28318530717959
2  107 4 19 0 6.28318530717959
2  108 35 0 0 6.28318530717959
0

0101100
+126 20 -126 20 *
Wi

0101100
-125 18 *
Ve
1e-07
463.5125 18 228.571875
0 0

0101101
*
Ed
 1e-07 1 1 0
1  41 0 0 6.28318530717959
2  109 4 19 0 6.28318530717959
2  110 36 0 0 6.28318530717959
0

0101100
+123 20 -123 20 *
Wi

0101100
-122 18 *
Ve
1e-07
300 18 368.66875
0 0

0101101
*
Ed
 1e-07 1 1 0
1  42 0 0 6.28318530717959
2  111 4 19 0 6.28318530717959
2  112 37 0 0 6.28318530717959
0

0101100
+120 20 -120 20 *
Wi

0101100
-119 18 *
Ve
1e-07
477.8 18 368.66875
0 0

0101101
*
Ed
 1e-07 1 1 0
1  43 0 0 6.28318530717959
2  113 4 21 0 6.28318530717959
2  114 38 0 0 6.28318530717959
0

0101100
+117 22 -117 22 *
Wi

0101100
-116 7 *
Fa
0  1e-07 4 0

0111000
+154 0 +145 0 +142 0 +139 0 +136 0 +133 0 +130 0 +127 0 +124 0 +121 0 
+118 0 +115 0 *
Ve
1e-07
14 0 0
0 0

0101101
*
Ve
1e-07
14 0 400.05
0 0

0101101
*
Ed
 1e-07 1 1 0
1  44 0 0 400.05
2  115 13 0 0 400.05
2  116 2 0 0 400.05
0

0101000
+113 5 -112 5 *
Ed
 1e-07 1 1 0
1  45 0 0 18
2  117 13 0 0 18
2  118 3 0 0 18
0

0101000
+112 5 -158 5 *
Ve
1.00000003e-07
14 6.22182540694797 154
0 0

0101101
*
Ed
 1e-07 1 1 0
1  46 0 1.03065234911869 3.14159265358979
2  119 13 0 1.03065234911869 3.14159265358979
2  120 19 0 1.03065234911869 3.14159265358979
0

0101000
+160 5 -109 5 *
Ed
 1e-07 1 1 0
1  47 0 3.14159265358979 5.25253295806089
2  121 13 0 3.14159265358979 5.25253295806089
2  122 19 0 3.14159265358979 5.25253295806089
0

0101000
+109 5 -168 5 *
Ve
1.00000003e-07
14 6.22182540694797 96
0 0

0101101
*
Ed
 1e-07 1 1 0
1  48 0 1.03065234911869 3.14159265358979
2  123 13 0 1.03065234911869 3.14159265358979
2  124 14 0 1.03065234911869 3.14159265358979
0

0101000
+170 5 -106 5 *
Ed
 1e-07 1 1 0
1  49 0 3.14159265358979 5.25253295806089
2  125 13 0 3.14159265358979 5.25253295806089
2  126 14 0 3.14159265358979 5.25253295806089
0

0101000
+106 5 -178 5 *
Ed
 1e-07 1 1 0
1  50 0 0 18
2  127 13 0 0 18
2  128 7 0 0 18
0

0101000
+113 5 -180 5 *
Wi

0101100
-111 0 -110 0 +157 0 -108 0 -107 0 +167 0 -105 0 -104 0 +177 0 +103 0 
*
Fa
0  1e-07 13 0

0111000
+102 0 *
Wi

0101100
-175 0 -173 8 -171 8 -169 0 +105 0 +104 0 *
Fa
0  1e-07 14 0

0111000
+100 0 *
Wi

0101100
-165 0 -163 8 -161 8 -159 0 +108 0 +107 0 *
Fa
0  1e-07 19 0

0111000
+98 0 *
Ve
1.50000057e-07
144.425 0 357.159375
0 0

0101101
*
Ed
 1e-07 1 1 0
1  51 0 1 19
2  129 25 0 1 19
2  130 26 0 1 19
0

0101000
+96 20 -153 20 *
Ve
1.50000057e-07
455.575 0 357.159375
0 0

0101101
*
Ed
 1e-07 1 1 0
1  52 0 1 19
2  131 25 0 1 19
2  132 28 0 1 19
0

0101000
+94 20 -152 20 *
Ed
 1.5e-07 1 1 0
1  53 0 63.2125 374.3625
2  133 25 0 63.2125 374.3625
2  134 2 19 63.2125 374.3625
0

0101000
+96 20 -94 20 *
Wi

0101100
-95 0 -151 0 +93 0 +92 0 *
Fa
0  1e-07 25 0

0111000
+91 0 *
Ve
1.5e-07
144.425 0 92.840625
0 0

0101101
*
Ed
 1e-07 1 1 0
1  54 0 1 19
2  135 26 0 1 19
2  136 27 0 1 19
0

0101000
+89 20 -150 20 *
Ed
 1.5e-07 1 1 0
1  55 0 -310.7390625 -46.4203125
2  137 26 0 -310.7390625 -46.4203125
2  138 2 19 -310.7390625 -46.4203125
0

0101000
+96 20 -89 20 *
Wi

0101100
-95 0 -149 0 +88 0 +87 0 *
Fa
0  1e-07 26 0

0111000
+86 0 *
Ve
1.50000057e-07
455.575 0 92.840625
0 0

0101101
*
Ed
 1e-07 1 1 0
1  56 0 1 19
2  139 27 0 1 19
2  140 28 0 1 19
0

0101000
+84 20 -148 20 *
Ed
 1.5e-07 1 1 0
1  57 0 63.2125 374.3625
2  141 27 0 63.2125 374.3625
2  142 2 19 63.2125 374.3625
0

0101000
+89 20 -84 20 *
Wi

0101100
-88 0 -147 0 +83 0 +82 0 *
Fa
0  1e-07 27 0

0111000
+81 0 *
Ed
 1.5e-07 1 1 0
1  58 0 -310.7390625 -46.4203125
2  143 28 0 -310.7390625 -46.4203125
2  144 2 19 -310.7390625 -46.4203125
0

0101000
+94 20 -84 20 *
Wi

0101100
-93 0 -146 0 +83 0 +79 0 *
Fa
0  1e-07 28 0

0111000
+78 0 *
Ve
1e-07
520 0 222.7
0 0

0101101
*
Ed
 1e-07 1 1 0
1  59 0 1 19
3  145 146CN 29 0 1 19
0

0101000
+76 20 -144 20 *
Ed
 1e-07 1 1 0
1  60 0 0 6.28318530717959
2  147 29 0 0 6.28318530717959
2  148 2 19 0 6.28318530717959
0

0101100
+76 20 -76 20 *
Wi

0101100
-143 0 +75 0 +74 0 -75 0 *
Fa
0  1e-07 29 0

0111000
+73 0 *
Ve
1e-07
90 0 222.7
0 0

0101101
*
Ed
 1e-07 1 1 0
1  61 0 1 19
3  149 150CN 30 0 1 19
0

0101000
+71 20 -141 20 *
Ed
 1e-07 1 1 0
1  62 0 0 6.28318530717959
2  151 30 0 0 6.28318530717959
2  152 2 19 0 6.28318530717959
0

0101100
+71 20 -71 20 *
Wi

0101100
-140 0 +70 0 +69 0 -70 0 *
Fa
0  1e-07 30 0

0111000
+68 0 *
Ve
1.00000014e-07
90 0 272.7
0 0

0101101
*
Ed
 1e-07 1 1 0
1  63 0 1 19
3  153 154CN 31 0 1 19
0

0101000
+66 20 -138 20 *
Ed
 1e-07 1 1 0
1  64 0 0 6.28318530717959
2  155 31 0 0 6.28318530717959
2  156 2 19 0 6.28318530717959
0

0101100
+66 20 -66 20 *
Wi

0101100
-137 0 +65 0 +64 0 -65 0 *
Fa
0  1e-07 31 0

0111000
+63 0 *
Ve
1.00000014e-07
90 0 322.7
0 0

0101101
*
Ed
 1e-07 1 1 0
1  65 0 1 19
3  157 158CN 32 0 1 19
0

0101000
+61 20 -135 20 *
Ed
 1e-07 1 1 0
1  66 0 0 6.28318530717959
2  159 32 0 0 6.28318530717959
2  160 2 19 0 6.28318530717959
0

0101100
+61 20 -61 20 *
Wi

0101100
-134 0 +60 0 +59 0 -60 0 *
Fa
0  1e-07 32 0

0111000
+58 0 *
Ve
1e-07
136.4875 0 228.571875
0 0

0101101
*
Ed
 1e-07 1 1 0
1  67 0 1 19
3  161 162CN 33 0 1 19
0

0101000
+56 20 -132 20 *
Ed
 1e-07 1 1 0
1  68 0 0 6.28318530717959
2  163 33 0 0 6.28318530717959
2  164 2 19 0 6.28318530717959
0

0101100
+56 20 -56 20 *
Wi

0101100
-131 0 +55 0 +54 0 -55 0 *
Fa
0  1e-07 33 0

0111000
+53 0 *
Ve
1e-07
68.225 0 368.66875
0 0

0101101
*
Ed
 1e-07 1 1 0
1  69 0 1 19
3  165 166CN 34 0 1 19
0

0101000
+51 22 -129 22 *
Ed
 1e-07 1 1 0
1  70 0 0 6.28318530717959
2  167 34 0 0 6.28318530717959
2  168 2 21 0 6.28318530717959
0

0101100
+51 22 -51 22 *
Wi

0101100
-128 0 +50 0 +49 0 -50 0 *
Fa
0  1e-07 34 0

0111000
+48 0 *
Ve
1e-07
300 0 88.475
0 0

0101101
*
Ed
 1e-07 1 1 0
1  71 0 1 19
3  169 170CN 35 0 1 19
0

0101000
+46 20 -126 20 *
Ed
 1e-07 1 1 0
1  72 0 0 6.28318530717959
2  171 35 0 0 6.28318530717959
2  172 2 19 0 6.28318530717959
0

0101100
+46 20 -46 20 *
Wi

0101100
-125 0 +45 0 +44 0 -45 0 *
Fa
0  1e-07 35 0

0111000
+43 0 *
Ve
1e-07
463.5125 0 228.571875
0 0

0101101
*
Ed
 1e-07 1 1 0
1  73 0 1 19
3  173 174CN 36 0 1 19
0

0101000
+41 20 -123 20 *
Ed
 1e-07 1 1 0
1  74 0 0 6.28318530717959
2  175 36 0 0 6.28318530717959
2  176 2 19 0 6.28318530717959
0

0101100
+41 20 -41 20 *
Wi

0101100
-122 0 +40 0 +39 0 -40 0 *
Fa
0  1e-07 36 0

0111000
+38 0 *
Ve
1e-07
300 0 368.66875
0 0

0101101
*
Ed
 1e-07 1 1 0
1  75 0 1 19
3  177 178CN 37 0 1 19
0

0101000
+36 20 -120 20 *
Ed
 1e-07 1 1 0
1  76 0 0 6.28318530717959
2  179 37 0 0 6.28318530717959
2  180 2 19 0 6.28318530717959
0

0101100
+36 20 -36 20 *
Wi

0101100
-119 0 +35 0 +34 0 -35 0 *
Fa
0  1e-07 37 0

0111000
+33 0 *
Ve
1e-07
477.8 0 368.66875
0 0

0101101
*
Ed
 1e-07 1 1 0
1  77 0 1 19
3  181 182CN 38 0 1 19
0

0101000
+31 22 -117 22 *
Ed
 1e-07 1 1 0
1  78 0 0 6.28318530717959
2  183 38 0 0 6.28318530717959
2  184 2 21 0 6.28318530717959
0

0101100
+31 22 -31 22 *
Wi

0101100
-116 0 +30 0 +29 0 -30 0 *
Fa
0  1e-07 38 0

0111000
+28 0 *
Ed
 1e-07 1 1 0
1  79 0 14 586
2  185 7 0 14 586
2  186 2 0 14 586
0

0101000
+211 5 -113 5 *
Wi

0101000
+179 0 -192 0 +26 0 +103 0 *
Fa
0  1e-07 7 0

0111000
+25 0 *
Ed
 1e-07 1 1 0
1  80 0 14 586
2  187 3 0 14 586
2  188 2 0 14 586
0

0101000
+112 5 -210 5 *
Wi

0101000
-156 0 -110 0 +23 0 +207 0 *
Fa
0  1e-07 3 0

0111000
+22 0 *
Wi

0101100
-26 0 +209 0 -23 0 -111 0 *
Wi

0101100
+92 18 +79 18 -82 18 -87 18 *
Wi

0101100
+74 18 *
Wi

0101100
+69 18 *
Wi

0101100
+64 18 *
Wi

0101100
+59 18 *
Wi

0101100
+54 18 *
Wi

0101100
+49 7 *
Wi

0101100
+44 18 *
Wi

0101100
+39 18 *
Wi

0101100
+34 18 *
Wi

0101100
+29 7 *
Fa
0  1e-07 2 0

0111000
+20 0 +19 0 +18 0 +17 0 +16 0 +15 0 +14 0 +13 0 +12 0 +11 0 
+10 0 +9 0 *
Wi

0101100
-155 0 -187 8 -186 0 -201 0 -203 0 *
Fa
0  1e-07 5 0

0111000
+7 0 *
Wi

0101100
-184 0 -182 8 -181 0 -195 0 -197 0 *
Fa
0  1e-07 6 0

0111000
+5 0 *
Sh

0101000
+190 0 +114 0 -101 0 -99 0 -97 0 -90 18 +85 18 +80 18 -77 18 -72 18 
-67 18 -62 18 -57 18 -52 18 -47 7 -42 18 -37 18 -32 18 -27 7 +24 0 
+21 0 +8 0 -6 0 -4 0 *
So

0100000
+3 0 *
Co

1100000
+2 0 *

+1 4 