DBRep_DrawableShape

CASCADE Topology V1, (c) Matra-Datavision
Locations 8
1
              1               0               0               0 
              0               1               0               0 
              0               0               1              -1 
1
              1               0               0               0 
              0               1               0               0 
              0               0               1               0 
1
              1               0               0               0 
              0 1.11022302462516e-16               1               0 
              0              -1 1.11022302462516e-16               0 
1
              1               0               0 -8.11088544250512 
              0               1               0              -0 
              0               0               1              18 
1
              1               0               0               0 
              0               1               0               0 
              0               0               1              -0 
1
              1               0               0               0 
              0               1               0               0 
              0               0               1               1 
2  2 1 3 1 4 1 5 1 6 1 0
2  6 -1 5 -1 4 -1 3 -1 2 -1 0
Curve2ds 4
1 285.99999999999989 -200.02500000000006 0 1 
1 -286.00000000000006 200.02499999999995 1 0 
1 -286.00000000000006 -200.02500000000006 0 1 
1 281.99999999999989 -200.02500000000006 1 0 
Curves 4
1 577.88911455749485 1.9984014443252818e-15 0.99999999999998579 0 1 1.1102230246251565e-16 
1 14 18 400.05000000000001 1 0 -0 
1 5.8891145574948833 1.9984014443252818e-15 0.99999999999998579 0 1 1.1102230246251565e-16 
1 582 18 0 1 0 -0 
Polygon3D 0
PolygonOnTriangulations 0
Surfaces 1
1 291.88911455749496 200.02500000000006 1.0000000000000089 0 0 1 1 0 -0 -0 1 0 
Triangulations 0

TShapes 9
Ve
8.4259611861e-05
577.889114557495 1.99840144432528e-15 0.999999999999986
0 0

0101101
*
Ve
8.4259611861e-05
577.889114557495 400.05 1.00000000000003
0 0

0101101
*
Ed
 8.4259611861e-05 1 1 0
1  1 0 0 400.05
2  1 1 0 0 400.05
0

0101000
+9 0 -8 0 *
Ve
8.4259611861e-05
5.88911455749488 400.05 1.00000000000003
0 0

0101101
*
Ed
 8.4259611861e-05 1 1 0
1  2 0 0 572
2  2 1 8 0 572
0

0101000
+6 8 -8 8 *
Ve
8.4259611861e-05
5.88911455749488 1.99840144432528e-15 0.999999999999986
0 0

0101101
*
Ed
 8.4259611861e-05 1 1 0
1  3 0 0 400.05
2  3 1 0 0 400.05
0

0101000
+4 0 -6 0 *
Ed
 8.4259611861e-05 1 1 0
1  4 0 -568 4
2  4 1 8 -568 4
0

0101000
+4 8 -9 8 *
Wi

0101100
+7 0 -5 7 -3 0 +2 7 *

+1 1 