DBRep_DrawableShape

CASCADE Topology V1, (c) Matra-Datavision
Locations 18
1
              1               0               0               0 
              0               1               0               0 
              0               0               1              -1 
2  1 -1 0
1
              1               0               0               0 
              0               1               0               0 
              0               0               1               0 
1
              1               0               0               0 
              0 1.11022302462516e-16               1               0 
              0              -1 1.11022302462516e-16               0 
1
              1               0               0 -8.11088544250512 
              0               1               0              -0 
              0               0               1              18 
2  3 1 4 1 5 1 0
2  5 -1 4 -1 3 -1 0
1
              1               0               0               0 
              0               1               0               0 
              0               0               1              -0 
2  8 -1 5 -1 4 -1 3 -1 0
1
              1               0               0               0 
              0               1               0               0 
              0               0               1               1 
2  10 -1 8 -1 5 -1 4 -1 3 -1 0
1
              1               0               0               0 
              0               1               0               0 
              0               0               1               0 
1
              1               0               0               0 
              0               1               0               0 
              0               0               1               0 
2  12 1 13 1 3 1 4 1 5 1 0
2  13 -1 12 -1 0
2  8 -1 5 -1 4 -1 3 -1 13 -1 12 -1 0
2  10 -1 8 -1 5 -1 4 -1 3 -1 13 -1 12 -1 0
2  5 -1 4 -1 3 -1 13 -1 12 -1 0
Curve2ds 17
1 285.99999999999989 -200.02500000000006 0 1 
3 96 -13.999999999999943 0 -1 1 0 7.7781745930520225 5.5
7 0 0  3 25 23  5.2525329580605717 32.627416997967941  5.2205490140534385 32.476565038112454  5.1565811260391676 32.166119058485101  5.0606292940177644 31.678717522394113  4.9646774619963807 31.17401120130932  4.8687256299749651 30.656658286937407  4.772773797953576 30.131414234732073  4.6768219659321808 29.603112208933172  4.5808701339107722 29.076612136242069  4.4849183018893877 28.556757733022774  4.3889664698679685 28.048331479170749  4.2930146378465786 27.556010745453097  4.1970628058251807 27.084324729829142  4.1011109738037783 26.637612798759786  4.0051591417823866 26.219984565526431  3.9092073097609785 25.835282077888955  3.8132554777395895 25.487044493924419  3.7173036457181818 25.178475442038337  3.6213518136967915 24.912413850359354  3.5253999816753883 24.691306703134941  3.4294481496539904 24.517190732787718  3.3334963176325902 24.391657994708147  3.2375444856111932 24.315899768855061  3.1735765975969272 24.298951320391385  3.1415926535897931 24.298989873223263 
 1.0306523491190176 4 1.1266041811404164 1 1.2225560131618154 1 1.3185078451832142 1 1.4144596772046132 1 1.510411509226012 1 1.6063633412474108 1 1.7023151732688098 1 1.7982670052902088 1 1.8942188373116076 1 1.9901706693330063 1 2.0861225013544056 1 2.1820743333758044 1 2.2780261653972032 1 2.3739779974186019 1 2.4699298294400007 1 2.5658816614613995 1 2.6618334934827983 1 2.7577853255041975 1 2.8537371575255963 1 2.9496889895469955 1 3.0456408215683943 1 3.1415926535897931 4
3 96 -13.999999999999943 0 -1 1 0 7.7781745930520225 5.5
7 0 0  3 25 23  3.1415926535897931 24.298989873223263  3.1096087095826594 24.298951320391385  3.045640821568393 24.315899768855061  2.949688989546996 24.39165799470814  2.8537371575255959 24.517190732787725  2.7577853255041993 24.691306703134941  2.6618334934827943 24.91241385035935  2.5658816614614071 25.178475442038341  2.4699298294399963 25.487044493924419  2.3739779974186068 25.835282077888966  2.2780261653971996 26.219984565526431  2.182074333375807 26.637612798759779  2.0861225013544078 27.084324729829145  1.9901706693330072 27.556010745453086  1.8942188373116176 28.048331479170763  1.7982670052901999 28.556757733022774  1.7023151732688144 29.076612136242076  1.6063633412474045 29.603112208933176  1.510411509226012 30.131414234732059  1.4144596772046165 30.656658286937422  1.3185078451832211 31.174011201309217  1.2225560131618174 31.67871752239413  1.1266041811404164 32.166119058485116  1.062636293126153 32.476565038112433  1.0306523491190234 32.627416997967885 
 3.1415926535897931 4 3.2375444856111919 1 3.3334963176325907 1 3.4294481496539895 1 3.5253999816753887 1 3.6213518136967875 1 3.7173036457181863 1 3.8132554777395851 1 3.9092073097609843 1 4.0051591417823831 1 4.1011109738037819 1 4.1970628058251807 1 4.2930146378465794 1 4.3889664698679782 1 4.484918301889377 1 4.5808701339107767 1 4.6768219659321755 1 4.7727737979535743 1 4.868725629974973 1 4.9646774619963718 1 5.0606292940177706 1 5.1565811260391694 1 5.2525329580605682 4
3 -101.17703804539468 282.19205472474374 0 -1 1 0 7.7781745930519719 5.5
7 0 0  3 25 23  1.0306523491190336 32.627416997971125  1.0388363487807846 32.666020765771506  1.0552043481042879 32.743796937524493  1.0797563470895482 32.862095710432669  1.1043083460748258 32.981957978710057  1.1288603450600958 33.10331141600777  1.1534123440453523 33.226082894680808  1.1779643430306281 33.350198406196313  1.202516342015896 33.475583138880694  1.2270683410011618 33.60216151413524  1.2516203399864303 33.729857234371607  1.2761723389716901 33.858593328364236  1.3007243379569453 33.988292197817223  1.3252763369422338 34.118875664092684  1.3498283359275041 34.250265015346159  1.374380334912763 34.382381053968679  1.3989323338980282 34.515144144328126  1.4234843328832953 34.64847426076026  1.448036331868553 34.782291035845283  1.4725883308538343 34.916513808704828  1.4971403298391019 35.051061674167066  1.5216923288243693 35.185853529498374  1.5462443278096378 35.320808130888317  1.5626123271331447 35.410832119670324  1.5707963267948966 35.455844122715689 
 4.1722450027088183 4 4.196797001694085 1 4.2213490006793517 1 4.2459009996646193 1 4.270452998649886 1 4.2950049976351528 1 4.3195569966204195 1 4.3441089956056862 1 4.3686609945909529 1 4.3932129935762205 1 4.4177649925614872 1 4.442316991546754 1 4.4668689905320207 1 4.4914209895172874 1 4.515972988502555 1 4.5405249874878217 1 4.5650769864730885 1 4.5896289854583552 1 4.6141809844436219 1 4.6387329834288895 1 4.6632849824141562 1 4.687836981399423 1 4.7123889803846897 4
1 0 0 1 0 
1 0 -1 1 0 
3 -101.17703804539468 282.19205472474374 0 -1 1 0 7.7781745930519719 5.5
7 0 0  3 25 23  1.5707963267948966 35.455844122715689  1.6183962154856475 35.71767593207263  1.7135959928671554 36.241225139068376  1.8563956589394244 37.010652514464148  1.9991953250116914 37.748403915136379  2.1419949910839451 38.439491990346845  2.2847946571562194 39.06983983580502  2.4275943232284805 39.62661762292182  2.5703939893007295 40.098490362492491  2.7131936553730118 40.475852246830947  2.8559933214452622 40.751021233177241  2.9987929875175321 40.918395686032625  3.1415926535897922 40.974568341057122  3.284392319662055 40.918395686032618  3.4271919857343183 40.751021233177255  3.5699916518065757 40.475852246830939  3.7127913178788554 40.098490362492491  3.8555909839511067 39.62661762292182  3.9983906500233668 39.069839835805006  4.1411903160956411 38.439491990346866  4.2839899821678964 37.748403915136365  4.4267896482401605 37.010652514464148  4.5695893143124309 36.241225139068376  4.6647890916939385 35.71767593207263  4.7123889803846897 35.455844122715689 
 4.7123889803846897 4 4.8551886464569529 1 4.9979883125292162 1 5.1407879786014794 1 5.2835876446737426 1 5.4263873107460068 1 5.5691869768182691 1 5.7119866428905333 1 5.8547863089627965 1 5.9975859750350597 1 6.140385641107323 1 6.2831853071795862 1 6.4259849732518495 1 6.5687846393241127 1 6.711584305396376 1 6.8543839714686392 1 6.9971836375409033 1 7.1399833036131657 1 7.2827829696854298 1 7.4255826357576931 1 7.5683823018299563 1 7.7111819679022195 1 7.8539816339744828 4
1 0 0 1 0 
1 0 -1 1 0 
3 -101.17703804539468 282.19205472474374 0 -1 1 0 7.7781745930519719 5.5
7 0 0  3 25 23  4.7123889803846897 35.455844122715689  4.720572980046442 35.410832119670332  4.7369409793699493 35.32080813088831  4.7614929783552169 35.185853529498381  4.7860449773404836 35.051061674167066  4.8105969763257539 34.916513808704828  4.8351489753110313 34.782291035845283  4.8597009742962918 34.648474260760267  4.8842529732815576 34.515144144328126  4.9088049722668226 34.382381053968679  4.9333569712520831 34.250265015346159  4.9579089702373507 34.118875664092684  4.9824609692226414 33.988292197817231  5.0070129682078948 33.858593328364236  5.0315649671931562 33.729857234371622  5.0561169661784255 33.60216151413524  5.0806689651636896 33.475583138880694  5.105220964148959 33.350198406196327  5.1297729631342346 33.226082894680808  5.1543249621194924 33.103311416007777  5.1788769611047574 32.981957978710057  5.2034289600900392 32.862095710432669  5.2279809590753006 32.7437969375245  5.2443489583988017 32.666020765771513  5.2525329580605522 32.627416997971125 
 1.5707963267948966 4 1.5953483257801635 1 1.6199003247654304 1 1.6444523237506972 1 1.6690043227359641 1 1.6935563217212311 1 1.718108320706498 1 1.7426603196917649 1 1.7672123186770317 1 1.7917643176622986 1 1.8163163166475655 1 1.8408683156328325 1 1.8654203146180994 1 1.8899723136033661 1 1.9145243125886333 1 1.9390763115739 1 1.963628310559167 1 1.9881803095444339 1 2.0127323085297006 1 2.0372843075149678 1 2.0618363065002345 1 2.0863883054855012 1 2.1109403044707684 4
1 0 0 1 0 
1 0 -1 1 0 
Curves 6
1 577.88911455749485 1.9984014443252818e-15 0.99999999999998579 0 1 1.1102230246251565e-16 
3 586 13.999999999999943 96 1 0 -0 0 1 0 0 -0 1 7.7781745930520225 5.5
3 586 13.999999999999943 96 1 0 -0 0 1 0 0 -0 1 7.7781745930520225 5.5
3 582 18 96 -0 1 0 -1 -0 0 0 0 1 7.7781745930520225 5.5
3 582 18 96 0 1 0 -1 0 0 0 -0 1 7.7781745930520225 5.5
3 582 18 96 -0 1 0 -1 -0 0 0 0 1 7.7781745930520225 5.5
Polygon3D 0
PolygonOnTriangulations 0
Surfaces 8
1 577.88911455749485 1.9984014443252818e-15 -1.4210854715202004e-14 -1 0 0 0 1 1.1102230246251565e-16 0 1.1102230246251565e-16 -1 
1 291.88911455749496 200.02500000000006 1.0000000000000089 0 0 1 1 0 -0 -0 1 0 
1 586 0 0 1 0 -0 0 0 1 0 -1 0 
2 607.07106781186542 -7.0710678118654746 96 -0.70710678118654757 0.70710678118654757 0 0.70710678118654757 0.70710678118654757 0 0 0 -1 5.5
1 299.80794527525626 18.000000000000004 197.17703804539468 0 1 0 0 -0 1 1 0 -0 
6 -0 -0 -1 
3 573.88911455749485 96 -3.5527136788005009e-15 0 1.1102230246251565e-16 -1 -1 0 0 0 1 1.1102230246251565e-16 7.7781745930520225 5.5
6 -0 -0 -1 
3 573.88911455749485 96 -3.5527136788005009e-15 0 1.1102230246251565e-16 -1 -1 0 0 0 1 1.1102230246251565e-16 7.7781745930520225 5.5
6 -0 -0 -1 
3 573.88911455749485 96 -3.5527136788005009e-15 0 1.1102230246251565e-16 -1 -1 0 0 0 1 1.1102230246251565e-16 7.7781745930520225 5.5
Triangulations 0

TShapes 19
Ve
8.42596118740445e-05
577.889114557495 91.2830094339655 -3.5527136788005e-15
0 0

0101101
*
Ve
8.42596118728972e-05
577.889114557495 100.716990566034 -3.5527136788005e-15
0 0

0101101
*
Ed
 8.4259611861e-05 1 1 0
1  1 0 91.2830094339655 100.716990566034
2  1 2 0 91.2830094339655 100.716990566034
0

0101000
+19 2 -18 2 *
Ve
1.00000021e-07
577.889114557495 96 11.7781745930521
0 0

0101101
*
Ed
 1e-07 1 1 0
1  2 0 1.03065234911902 3.14159265358979
2  2 3 0 1.03065234911902 3.14159265358979
2  3 4 0 1.03065234911902 3.14159265358979
0

0101000
+18 7 -16 7 *
Ed
 1e-07 1 1 0
1  3 0 3.14159265358979 5.25253295806057
2  4 3 0 3.14159265358979 5.25253295806057
2  5 4 0 3.14159265358979 5.25253295806057
0

0101000
+16 7 -19 7 *
Wi

0101100
-17 1 -15 6 -14 6 *
Fa
0  1e-07 1 0

0101000
+13 0 *
Ve
8.42596118740445e-05
573.889114557495 90.4999999999948 -3.5527136788005e-15
0 0

0101101
*
Ed
 8.42596118740445e-05 1 1 0
1  4 0 4.17224500270882 4.71238898038469
2  6 5 0 4.17224500270882 4.71238898038469
2  7 4 0 4.17224500270882 4.71238898038469
2  8 6 9 4.17224500270882 4.71238898038469
2  9 6 11 4.17224500270882 4.71238898038469
0

0101000
+19 7 -11 7 *
Ve
8.42596118740243e-05
573.889114557495 101.500000000005 -3.5527136788005e-15
0 0

0101101
*
Ed
 8.42596118740243e-05 1 1 0
1  5 0 4.71238898038469 7.85398163397448
2  10 5 15 4.71238898038469 7.85398163397448
2  11 4 15 4.71238898038469 7.85398163397448
2  12 7 16 4.71238898038469 7.85398163397448
2  13 7 17 4.71238898038469 7.85398163397448
0

0101000
+11 18 -9 18 *
Ed
 8.42596118728972e-05 1 1 0
1  6 0 1.5707963267949 2.11094030447077
2  14 5 0 1.5707963267949 2.11094030447077
2  15 4 0 1.5707963267949 2.11094030447077
2  16 8 9 1.5707963267949 2.11094030447077
2  17 8 11 1.5707963267949 2.11094030447077
0

0101000
+9 7 -18 7 *
Wi

0101100
-10 6 -8 14 -7 6 +17 1 *
Fa
0  8.4259611861e-05 2 1

0101000
+6 0 *
Wi

0101100
-7 6 -8 14 -10 6 -14 6 -15 6 *
Fa
0  1e-07 4 6

0101000
+4 0 *
Sh

0101100
-12 0 -5 0 +3 0 *
So

0100000
+2 0 *

+1 0 