DBRep_DrawableShape

CASCADE Topology V1, (c) Matra-Datavision
Locations 11
1
              1               0               0               0 
              0               1               0               0 
              0               0               1               0 
1
              1               0               0               0 
              0               1               0               0 
              0               0               1               0 
1
              1               0               0               0 
              0               1               0               0 
              0               0               1               0 
1
              1               0               0               0 
              0               1               0               0 
              0               0               1               0 
1
              1               0               0               0 
              0 1.11022302462516e-16               1               0 
              0              -1 1.11022302462516e-16               0 
1
              1               0               0 -8.11088544250512 
              0               1               0              -0 
              0               0               1              18 
1
              1               0               0               0 
              0               1               0               0 
              0               0               1 -8.88178419700125e-15 
1
              1               0               0               0 
              0               1               0               0 
              0               0               1               1 
1
              1               0               0               0 
              0               1               0               0 
              0               0               1              -1 
2  1 1 2 1 3 1 4 1 5 1 6 1 7 1 8 1 9 1 0
2  9 -1 8 -1 7 -1 6 -1 5 -1 4 -1 3 -1 2 -1 1 -1 0
Curve2ds 0
Curves 1
2 136.48750000000001 18 225 -0 1 0 0 0 1 1 0 -0 3.5718750000000057
Polygon3D 0
PolygonOnTriangulations 0
Surfaces 1
1 128.37661455749489 225 0 0 0 1 1 0 -0 -0 1 0 
Triangulations 0

TShapes 5
Ve
8.42596118961938e-05
128.376614557495 228.571875 3.70074341541719e-16
0 0

0101101
*
Ed
 8.42596118946024e-05 1 1 0
1  1 0 0 6.28318530717959
0

0101000
+5 11 -5 11 *
Wi

0101100
+4 10 *
Fa
0  1e-07 1 0

0101000
-3 0 *
Sh

1101000
+2 0 *

+1 0 