DBRep_DrawableShape

CASCADE Topology V1, (c) Matra-Datavision
Locations 12
1
              1               0               0               0 
              0               1               0               0 
              0               0               1              -1 
1
              1               0               0               0 
              0               1               0               0 
              0               0               1               0 
1
              1               0               0               0 
              0               1               0               0 
              0               0               1               0 
1
              1               0               0               0 
              0               1               0               0 
              0               0               1               0 
1
              1               0               0               0 
              0               1               0               0 
              0               0               1               0 
1
              1               0               0               0 
              0 1.11022302462516e-16               1               0 
              0              -1 1.11022302462516e-16               0 
1
              1               0               0 -8.11088544250512 
              0               1               0              -0 
              0               0               1              18 
2  2 1 3 1 4 1 5 1 6 1 7 1 0
2  4 -1 3 -1 2 -1 0
2  7 -1 6 -1 5 -1 4 -1 3 -1 2 -1 0
1
              1               0               0               0 
              0               1               0               0 
              0               0               1              18 
2  1 1 11 1 0
Curve2ds 24
1 159.98233695460533 -218.59544527525625 0 1 
8 63.212500000000006 374.36249999999995
1 -63.212500000000006 19 1 0 
1 -150.75672554539469 155.76705472474373 -1 0 
8 -310.73906250000005 -46.420312500000001
1 -46.420312500000001 -19 -1 -0 
1 -104.33641304539468 -218.59544527525625 0 1 
8 63.212500000000006 374.36249999999995
1 -63.212500000000006 19 1 0 
1 -150.75672554539469 -155.38294527525625 -1 0 
8 -310.73906250000005 -46.420312500000001
1 -46.420312500000001 -19 -1 -0 
1 0 0 0 1 
1 264.31875000000002 0 0 -1 
1 311.14999999999998 0 0 1 
1 264.31875000000002 0 0 -1 
8 63.212500000000006 374.36249999999995
1 -63.212500000000006 1 1 0 
1 -157.13437500000001 -218.78749999999999 0 1 
1 311.14999999999998 0 0 1 
1 0 0 0 -1 
8 -310.73906250000005 -46.420312500000001
1 -46.420312500000001 -1 -1 -0 
1 153.60468750000001 155.57499999999999 1 0 
1 0 0 0 -1 
1 0 0 0 1 
8 63.212500000000006 374.36249999999995
1 -63.212500000000006 1 1 0 
1 107.184375 -218.78749999999999 0 1 
8 -310.73906250000005 -46.420312500000001
1 -46.420312500000001 -1 -1 -0 
1 153.60468750000001 -155.57499999999999 1 0 
Curves 12
1 81.212500000000006 18 357.15937500000001 1 0 -0 
1 455.57499999999999 18 46.420312500000001 -0 0 -1 
1 81.212500000000006 18 92.840625000000003 1 0 -0 
1 144.42500000000001 18 46.420312500000001 -0 0 -1 
1 144.42500000000001 -1 357.15937500000001 -0 1 0 
1 455.57499999999999 -1 357.15937500000001 -0 1 0 
1 81.212500000000006 0 357.15937500000001 1 0 -0 
1 455.57499999999999 -1 92.840625000000003 -0 1 0 
1 455.57499999999999 0 46.420312500000001 -0 0 -1 
1 144.42500000000001 -1 92.840625000000003 -0 1 0 
1 81.212500000000006 0 92.840625000000003 1 0 -0 
1 144.42500000000001 0 46.420312500000001 -0 0 -1 
Polygon3D 0
PolygonOnTriangulations 0
Surfaces 7
1 291.88911455749496 200.02500000000006 1.0000000000000089 0 0 1 1 0 -0 -0 1 0 
1 299.80794527525626 18.000000000000004 197.17703804539468 0 1 0 0 -0 1 1 0 -0 
1 144.42500000000001 -1 357.15937500000001 0 0 1 1 0 -0 -0 1 0 
1 455.57499999999999 -1 92.840625000000003 1 0 -0 0 0 1 0 -1 0 
1 144.42500000000001 -1 92.840625000000003 0 0 1 1 0 -0 -0 1 0 
1 144.42500000000001 -1 92.840625000000003 1 0 -0 0 0 1 0 -1 0 
1 300 0 200.02500000000001 -0 -1 -0 0 0 -1 1 -0 0 
Triangulations 0

TShapes 34
Ve
8.42596118769872e-05
136.314114557495 357.159375 2.48689957516035e-14
0 0

0101101
*
Ve
8.42596118769872e-05
447.464114557495 357.159375 2.48689957516035e-14
0 0

0101101
*
Ed
 8.42596118769872e-05 1 1 0
1  1 0 63.2125 374.3625
2  1 2 9 63.2125 374.3625
2  2 3 0 63.2125 374.3625
0

0101000
+34 10 -33 10 *
Ve
8.42596118735136e-05
447.464114557495 92.840625 -3.5527136788005e-15
0 0

0101101
*
Ed
 8.42596118735136e-05 1 1 0
1  2 0 -310.7390625 -46.4203125
2  3 2 9 -310.7390625 -46.4203125
2  4 4 0 -310.7390625 -46.4203125
0

0101000
+33 10 -31 10 *
Ve
8.42596118735136e-05
136.314114557495 92.840625 -3.5527136788005e-15
0 0

0101101
*
Ed
 8.42596118734345e-05 1 1 0
1  3 0 63.2125 374.3625
2  5 2 9 63.2125 374.3625
2  6 5 0 63.2125 374.3625
0

0101000
+29 10 -31 10 *
Ed
 8.42596118735136e-05 1 1 0
1  4 0 -310.7390625 -46.4203125
2  7 2 9 -310.7390625 -46.4203125
2  8 6 0 -310.7390625 -46.4203125
0

0101000
+34 10 -29 10 *
Wi

0101100
-32 8 -30 8 +28 8 +27 8 *
Fa
0  8.4259611861e-05 1 1

0101000
+26 0 *
Ve
8.42596118787636e-05
136.314114557495 357.159375 18
0 0

0101101
*
Ed
 1e-07 1 1 0
1  5 0 1 19
2  9 3 0 1 19
2  10 6 0 1 19
0

0101000
+24 10 -34 10 *
Ve
8.42596118787636e-05
447.464114557495 357.159375 18
0 0

0101101
*
Ed
 1e-07 1 1 0
1  6 0 1 19
2  11 3 0 1 19
2  12 4 0 1 19
0

0101000
+22 10 -33 10 *
Ed
 8.42596118716581e-05 1 1 0
1  7 0 63.2125 374.3625
2  13 3 0 63.2125 374.3625
2  14 7 9 63.2125 374.3625
0

0101000
+24 10 -22 10 *
Wi

0101100
-23 8 -32 8 +21 8 +20 8 *
Fa
0  1e-07 3 8

0101000
+19 0 *
Ve
8.42596118787636e-05
447.464114557495 92.840625 18
0 0

0101101
*
Ed
 1e-07 1 1 0
1  8 0 1 19
2  15 5 0 1 19
2  16 4 0 1 19
0

0101000
+17 10 -31 10 *
Ed
 8.42596118787636e-05 1 1 0
1  9 0 -310.7390625 -46.4203125
2  17 4 0 -310.7390625 -46.4203125
2  18 7 9 -310.7390625 -46.4203125
0

0101000
+22 10 -17 10 *
Wi

0101100
-21 8 -30 8 +16 8 +15 8 *
Fa
0  1e-07 4 8

0101000
+14 0 *
Ve
8.42596118787636e-05
136.314114557495 92.840625 18
0 0

0101101
*
Ed
 1e-07 1 1 0
1  10 0 1 19
2  19 6 0 1 19
2  20 5 0 1 19
0

0101000
+12 10 -29 10 *
Ed
 8.42596118787636e-05 1 1 0
1  11 0 63.2125 374.3625
2  21 5 0 63.2125 374.3625
2  22 7 9 63.2125 374.3625
0

0101000
+12 10 -17 10 *
Wi

0101100
-11 8 -28 8 +16 8 +10 8 *
Fa
0  1e-07 5 8

0101000
+9 0 *
Ed
 8.42596118787636e-05 1 1 0
1  12 0 -310.7390625 -46.4203125
2  23 6 0 -310.7390625 -46.4203125
2  24 7 9 -310.7390625 -46.4203125
0

0101000
+24 10 -12 10 *
Wi

0101100
-23 8 -27 8 +11 8 +7 8 *
Fa
0  1e-07 6 8

0101000
+6 0 *
Wi

0101100
-20 8 -15 8 +10 8 +7 8 *
Fa
0  8.4259611861e-05 1 12

0101000
+4 0 *
Sh

0101100
-25 0 +18 0 +13 0 -8 0 -5 0 +3 0 *
So

0100000
+2 0 *

+1 0 