DBRep_DrawableShape

CASCADE Topology V1, (c) Matra-Datavision
Locations 61
1
              1               0               0               0 
              0               1               0               0 
              0               0               1              -1 
2  1 -1 0
1
              1               0               0               0 
              0               1               0               0 
              0               0               1 17.9999999999995 
2  1 1 3 1 0
2  3 -1 1 -1 0
1
              1               0               0               0 
              0               1               0               0 
              0               0               1               0 
1
              1               0               0               0 
              0 1.11022302462516e-16              -1               0 
              0               1 1.11022302462516e-16               0 
1
              1               0               0 -8.08696877660372 
              0               1               0           596.9 
              0               0               1         -1290.1 
1
              1               0               0               0 
              0               1               0               0 
              0               0               1              -0 
1
              1               0               0               0 
              0               1               0               0 
              0               0               1               1 
2  6 1 7 1 8 1 9 1 10 1 1 1 0
2  1 -1 10 -1 9 -1 8 -1 7 -1 6 -1 0
2  10 -1 9 -1 8 -1 7 -1 6 -1 0
2  6 1 7 1 8 1 9 1 10 1 1 1 3 1 0
2  3 -1 1 -1 10 -1 9 -1 8 -1 7 -1 6 -1 0
1
              1               0               0               0 
              0               1               0               0 
              0               0               1               0 
1
              1               0               0               0 
              0               1               0               0 
              0               0               1               0 
1
              1               0               0               0 
              0               1               0               0 
              0               0               1 2.20157225783169e-13 
1
              1               0               0               0 
              0               1               0               0 
              0               0               1               1 
1
              1               0               0               0 
              0               1               0               0 
              0               0               1              -1 
2  16 1 17 1 6 1 7 1 8 1 18 1 19 1 20 1 0
2  20 -1 19 -1 18 -1 8 -1 7 -1 6 -1 17 -1 16 -1 0
1
              1               0               0               0 
              0               1               0               0 
              0               0               1 17.9999999999995 
2  23 -1 20 -1 19 -1 18 -1 8 -1 7 -1 6 -1 17 -1 16 -1 0
1
              1               0               0               0 
              0               1               0               0 
              0               0               1 2.20157225783169e-13 
1
              1               0               0               0 
              0               1               0               0 
              0               0               1               1 
1
              1               0               0               0 
              0               1               0               0 
              0               0               1              -1 
2  16 1 17 1 6 1 7 1 8 1 25 1 26 1 27 1 0
2  27 -1 26 -1 25 -1 8 -1 7 -1 6 -1 17 -1 16 -1 0
1
              1               0               0               0 
              0               1               0               0 
              0               0               1 17.9999999999995 
2  30 -1 27 -1 26 -1 25 -1 8 -1 7 -1 6 -1 17 -1 16 -1 0
1
              1               0               0               0 
              0               1               0               0 
              0               0               1 17.9999999999995 
2  32 -1 0
1
              1               0               0               0 
              0               1               0               0 
              0               0               1 2.20157225783169e-13 
1
              1               0               0               0 
              0               1               0               0 
              0               0               1               1 
1
              1               0               0               0 
              0               1               0               0 
              0               0               1              -1 
2  16 1 17 1 6 1 7 1 8 1 34 1 35 1 36 1 0
2  36 -1 35 -1 34 -1 8 -1 7 -1 6 -1 17 -1 16 -1 0
1
              1               0               0               0 
              0               1               0               0 
              0               0               1 17.9999999999995 
2  39 -1 36 -1 35 -1 34 -1 8 -1 7 -1 6 -1 17 -1 16 -1 0
1
              1               0               0               0 
              0               1               0               0 
              0               0               1 2.20157225783169e-13 
1
              1               0               0               0 
              0               1               0               0 
              0               0               1               1 
1
              1               0               0               0 
              0               1               0               0 
              0               0               1              -1 
2  16 1 17 1 6 1 7 1 8 1 41 1 42 1 43 1 0
2  43 -1 42 -1 41 -1 8 -1 7 -1 6 -1 17 -1 16 -1 0
1
              1               0               0               0 
              0               1               0               0 
              0               0               1 17.9999999999995 
2  46 -1 43 -1 42 -1 41 -1 8 -1 7 -1 6 -1 17 -1 16 -1 0
1
              1               0               0               0 
              0               1               0               0 
              0               0               1 2.20157225783169e-13 
1
              1               0               0               0 
              0               1               0               0 
              0               0               1               1 
1
              1               0               0               0 
              0               1               0               0 
              0               0               1              -1 
2  16 1 17 1 6 1 7 1 8 1 48 1 49 1 50 1 0
2  50 -1 49 -1 48 -1 8 -1 7 -1 6 -1 17 -1 16 -1 0
1
              1               0               0               0 
              0               1               0               0 
              0               0               1 17.9999999999995 
2  53 -1 50 -1 49 -1 48 -1 8 -1 7 -1 6 -1 17 -1 16 -1 0
1
              1               0               0               0 
              0               1               0               0 
              0               0               1 17.9999999999995 
2  55 -1 0
2  16 1 17 1 6 1 7 1 8 1 18 1 19 1 20 1 23 1 0
2  16 1 17 1 6 1 7 1 8 1 25 1 26 1 27 1 30 1 0
2  16 1 17 1 6 1 7 1 8 1 34 1 35 1 36 1 39 1 0
2  16 1 17 1 6 1 7 1 8 1 41 1 42 1 43 1 46 1 0
2  16 1 17 1 6 1 7 1 8 1 48 1 49 1 50 1 53 1 0
Curve2ds 76
1 0 0 1.1102230246251565e-16 -1 
1 0 0 0 -1 
1 596.89999999999998 6.6269212339875591e-14 1.1102230246251565e-16 -1 
1 7.1054273576010019e-15 0 0 -1 
1 0 0 1 0 
1 -286 298.44999999999999 0 -1 
1 1.9984014443252313e-15 -17.999999999999545 1 0 
1 -286 298.44999999999999 0 -1 
1 0 0 1.1102230246251565e-16 -1 
1 572 0 0 -1 
1 0 0 1 0 
1 -286 298.44999999999999 1 0 
1 0 -17.999999999999545 1 0 
1 -286 298.44999999999999 1 0 
1 572 0 0 -1 
1 596.89999999999998 6.6269212339875591e-14 1.1102230246251565e-16 -1 
1 568 0 1 0 
1 282 -298.44999999999999 1 0 
1 568 -17.999999999999545 1 0 
1 282 -298.44999999999999 1 0 
1 0 0 1 0 
1 286 298.44999999999999 0 -1 
1 0 0 1 0 
1 0 -17.999999999999545 1 0 
1 0 0 1 0 
1 0 -17.999999999999545 1 0 
1 0 0 1 0 
1 0 -17.999999999999545 1 0 
1 0 0 1 0 
1 0 -17.999999999999545 1 0 
1 0 0 1 0 
1 0 -17.999999999999545 1 0 
1 0 0 1 0 
1 0 -17.999999999999545 1 0 
1 0 0 1 0 
1 0 -17.999999999999545 1 0 
1 0 0 1 0 
1 0 -17.999999999999545 1 0 
1 0 0 1 0 
1 0 -17.999999999999545 1 0 
1 0 0 1 0 
1 0 -17.999999999999545 1 0 
1 0 0 1 0 
1 0 -17.999999999999545 1 0 
1 0 0 1 0 
1 0 -17.999999999999545 1 0 
1 0 0 1 0 
1 0 -17.999999999999545 1 0 
1 1.9984014443252313e-15 -17.999999999999545 1 0 
1 286 298.44999999999999 0 -1 
1 0 0 0 -1 
1 6.2831853071795862 0 0 -1 
1 0 0 0 -1 
1 6.2831853071795862 0 0 -1 
1 4.7123889803846897 0 0 -1 
1 6.2831853071795862 0 0 -1 
1 4.7123889803846897 0 0 -1 
1 6.2831853071795862 0 0 -1 
1 3.1415926535897931 0 0 -1 
1 7.8539816339744828 0 0 -1 
1 3.1415926535897931 0 0 -1 
1 1.5707963267948966 0 0 -1 
1 0 0 0 -1 
1 6.2831853071795862 0 0 -1 
1 0 0 0 -1 
1 6.2831853071795862 0 0 -1 
1 0 0 0 -1 
1 6.2831853071795862 0 0 -1 
1 1.5707963267948966 0 0 -1 
1 3.1415926535897931 0 0 -1 
1 3.14159265358985 0 0 -1 
1 1.5707963267948966 0 0 -1 
1 3.1415926535897931 0 0 -1 
1 1.570796326794925 0 0 -1 
1 3.1415926535897931 0 0 -1 
1 1.5707963267948966 0 0 -1 
Curves 54
1 5.9130312233962812 596.89999999999998 -2.2737367544323206e-13 0 0 1 
1 5.9130312233962812 0 -2.2737367544323206e-13 0 0 1 
1 5.9130312233962812 596.89999999999998 0.99999999999977263 0 -1 1.1102230246251565e-16 
1 5.9130312233962812 596.89999999999998 0.99999999999977263 0 -1 1.1102230246251565e-16 
1 577.91303122339627 596.89999999999998 -2.2737367544323206e-13 0 0 1 
1 14 1290.0999999999999 0 1 0 -0 
1 14 1290.0999999999999 0 1 0 -0 
1 577.91303122339627 0 -2.2737367544323206e-13 0 0 1 
1 582 1290.0999999999999 596.89999999999998 1 0 -0 
1 582 1290.0999999999999 596.89999999999998 1 0 -0 
1 577.91303122339627 596.89999999999998 0.99999999999977263 0 -1 1.1102230246251565e-16 
2 230 1290.0999999999999 500 -0 1 0 0 0 1 1 0 -0 58
2 75 1290.0999999999999 430 -0 1 0 0 0 1 1 0 -0 2.25
2 75.913031223396274 145.90000000000003 0 0 -0 1 0 -1 -0 1 0 0 3
1 72.913031223396274 392.39999999999998 0 0 1 0 
1 42.913031223396274 142.90000000000003 0 1 0 0 
2 75.913031223396274 187.90000000000003 0 0 -0 1 0 -1 -0 1 0 0 3
2 97.913031223396274 145.90000000000003 0 0 -0 1 0 -1 -0 1 0 0 3
1 42.913031223396274 190.90000000000003 0 1 0 0 
1 100.91303122339627 392.39999999999998 0 0 1 0 
2 97.913031223396274 187.90000000000003 0 0 -0 1 0 -1 -0 1 0 0 3
2 115 1290.0999999999999 430 -0 1 0 0 0 1 1 0 -0 2.25
2 370 1290.0999999999997 500 -0 1 0 0 0 1 1 0 -0 58
2 530 1290.1000000000001 430 -0 1 0 0 0 1 1 0 -0 12
2 94.913031223396274 214.90000000000003 0 0 0 -1 1 0 0 0 -1 0 2
1 51.413031223396274 212.90000000000003 0 1 0 0 
2 488.91303122339627 214.90000000000003 0 -0 0 -1 0 1 0 1 0 -0 2
1 490.91303122339627 570.39999999999998 0 0 1 0 
2 488.91303122339622 541.89999999999998 0 -0 0 -1 -1 -0 0 0 1 0 2
1 51.413031223396274 543.89999999999998 0 1 0 0 
2 94.913031223396274 541.89999999999998 0 -0 -0 -1 0 -1 0 -1 0 0 2
1 92.913031223396274 570.39999999999998 0 0 1 0 
1 577.91303122339627 596.89999999999998 0.99999999999977263 0 -1 1.1102230246251565e-16 
1 221.91303122339625 38.899999999999977 2.9376501231581642e-13 0 0 1 
1 66.913031223396274 164.65000000000003 2.9376501231581642e-13 0 0 1 
1 72.913031223396274 145.90000000000003 2.9598545836506673e-13 0 0 1 
1 75.913031223396274 142.90000000000003 2.9376501231581642e-13 0 0 1 
1 72.913031223396274 187.90000000000001 2.9598545836506673e-13 0 0 1 
1 97.913031223396274 142.90000000000003 2.9376501231581642e-13 0 0 1 
1 75.913031223396274 190.90000000000001 2.9354296771089139e-13 0 0 1 
1 100.91303122339627 145.90000000000003 2.9598545836506673e-13 0 0 1 
1 97.913031223396274 190.90000000000001 2.9354296771089139e-13 0 0 1 
1 100.91303122339627 187.90000000000001 2.9598545836506673e-13 0 0 1 
1 106.91303122339627 164.65000000000003 2.9376501231581642e-13 0 0 1 
1 361.91303122339627 38.899999999999977 1.2005211639613359e-13 0 0 1 
1 521.91303122339627 154.90000000000003 2.7133850721838826e-13 0 0 1 
1 94.913031223396274 212.90000000000003 0 0 0 1 
1 92.913031223396274 214.90000000000003 0 0 0 1 
1 488.91303122339616 212.90000000000003 0 0 0 1 
1 490.91303122339627 214.90000000000003 0 0 0 1 
1 490.91303122339622 541.89999999999998 0 0 0 1 
1 488.91303122339627 543.89999999999998 0 0 0 1 
1 94.913031223396274 543.89999999999998 0 0 0 1 
1 92.913031223396274 541.89999999999998 0 0 0 1 
Polygon3D 0
PolygonOnTriangulations 0
Surfaces 27
1 5.9130312233962812 596.89999999999998 -2.2737367544323206e-13 1 0 -0 0 -1 1.1102230246251565e-16 0 -1.1102230246251565e-16 -1 
1 5.9130312233962812 596.89999999999998 -2.2737367544323206e-13 0 1 0 1 0 0 0 0 -1 
1 5.9130312233962741 0 -2.2737367544323206e-13 0 1 0 1 0 0 0 0 -1 
1 291.91303122339627 298.44999999999999 0.99999999999977984 0 0 1 1 0 -0 -0 1 0 
1 291.91303122339627 298.44999999999999 0.99999999999977984 0 0 1 1 0 -0 -0 1 0 
1 577.91303122339627 596.89999999999998 -2.2737367544323206e-13 1 0 -0 0 -1 1.1102230246251565e-16 0 -1.1102230246251565e-16 -1 
2 221.91303122339627 96.900000000000034 0 0 -1.1102230246251565e-16 -1 0 -1 1.1102230246251565e-16 1 0 0 58
2 66.913031223396274 166.90000000000003 0 0 -1.1102230246251565e-16 -1 0 -1 1.1102230246251565e-16 1 0 0 2.25
2 75.913031223396274 145.90000000000003 0 -0 0 -1 0 -1 -0 1 0 0 3
2 75.913031223396274 187.90000000000003 0 -0 0 -1 0 -1 -0 1 0 0 3
2 97.913031223396274 145.90000000000003 0 -0 0 -1 0 -1 -0 1 0 0 3
2 97.913031223396274 187.90000000000003 0 -0 0 -1 0 -1 -0 1 0 0 3
2 106.91303122339627 166.90000000000003 0 0 -1.1102230246251565e-16 -1 0 -1 1.1102230246251565e-16 1 0 0 2.25
2 361.91303122339627 96.900000000000034 -2.2737367544323206e-13 0 -1.1102230246251565e-16 -1 0 -1 1.1102230246251565e-16 1 0 0 58
2 521.91303122339627 166.90000000000003 2.2737367544323206e-13 0 -1.1102230246251565e-16 -1 0 -1 1.1102230246251565e-16 1 0 0 12
2 94.913031223396274 214.90000000000003 0 0 0 -1 1 0 0 0 -1 0 2
2 488.91303122339627 214.90000000000003 0 -0 0 -1 0 1 0 1 0 -0 2
2 488.91303122339622 541.89999999999998 0 -0 0 -1 -1 -0 0 0 1 0 2
2 94.913031223396274 541.89999999999998 0 -0 -0 -1 0 -1 0 -1 0 0 2
1 72.913031223396274 145.90000000000003 0 -1 0 0 0 1 0 0 0 -1 
1 75.913031223396274 142.90000000000003 0 0 1 0 1 0 0 0 0 -1 
1 75.913031223396274 190.90000000000003 0 0 1 0 1 0 0 0 0 -1 
1 100.91303122339627 145.90000000000003 0 -1 0 0 0 1 0 0 0 -1 
1 94.913031223396274 212.90000000000003 0 0 1 0 1 0 0 0 0 -1 
1 92.913031223396274 214.90000000000003 0 -1 0 0 0 1 0 0 0 -1 
1 490.91303122339627 214.90000000000003 0 -1 0 0 0 1 0 0 0 -1 
1 94.913031223396274 543.89999999999998 0 0 1 0 1 0 0 0 0 -1 
Triangulations 0

TShapes 202
Ve
1.6040898904e-05
5.91303122339628 596.9 -2.27373675443232e-13
0 0

0101101
*
Ve
1.6040898904e-05
5.91303122339628 596.9 17.9999999999993
0 0

0101101
*
Ed
 1.6040898904e-05 1 1 0
1  1 0 0 17.9999999999995
2  1 1 0 0 17.9999999999995
2  2 2 0 0 17.9999999999995
0

0101000
+202 0 -201 0 *
Ve
1.6040898904e-05
5.91303122339628 0 -2.27373675443232e-13
0 0

0101101
*
Ve
1.6040898904e-05
5.91303122339628 0 17.9999999999993
0 0

0101101
*
Ed
 1.6040898904e-05 1 1 0
1  2 0 0 17.9999999999995
2  3 1 0 0 17.9999999999995
2  4 3 0 0 17.9999999999995
0

0101000
+199 0 -198 0 *
Ed
 1e-07 1 1 0
1  3 0 0 596.9
2  5 1 2 0 596.9
2  6 4 0 0 596.9
0

0101000
+202 2 -199 2 *
Ed
 1e-07 1 1 0
1  4 0 0 596.9
2  7 1 5 0 596.9
2  8 5 0 0 596.9
0

0101000
+201 5 -198 5 *
Wi

0101100
+200 0 -197 0 -196 1 +195 4 *
Fa
0  1e-07 1 0

0101000
+194 0 *
Ve
1.6040898904e-05
577.913031223396 596.9 -2.27373675443232e-13
0 0

0101101
*
Ve
1.6040898904e-05
577.913031223396 596.9 17.9999999999993
0 0

0101101
*
Ed
 1.6040898904e-05 1 1 0
1  5 0 0 17.9999999999995
2  9 6 0 0 17.9999999999995
2  10 2 0 0 17.9999999999995
0

0101000
+192 0 -191 0 *
Ed
 1.6040898904e-05 1 1 0
1  6 0 0 572
2  11 2 12 0 572
2  12 4 13 0 572
0

0101000
+202 12 -192 12 *
Ed
 1.6040898904e-05 1 1 0
1  7 0 0 572
2  13 2 15 0 572
2  14 5 13 0 572
0

0101000
+201 15 -191 15 *
Wi

0101100
+200 0 -190 0 -189 11 +188 14 *
Fa
0  1.6040898904e-05 2 0

0101000
+187 0 *
Ve
1.6040898904e-05
577.913031223396 0 -2.27373675443232e-13
0 0

0101101
*
Ve
1.6040898904e-05
577.913031223396 0 17.9999999999993
0 0

0101101
*
Ed
 1.6040898904e-05 1 1 0
1  8 0 0 17.9999999999995
2  15 3 0 0 17.9999999999995
2  16 6 0 0 17.9999999999995
0

0101000
+185 0 -184 0 *
Ed
 1.6040898904e-05 1 1 0
1  9 0 -568 4
2  17 3 12 -568 4
2  18 4 13 -568 4
0

0101000
+199 12 -185 12 *
Ed
 1.6040898904e-05 1 1 0
1  10 0 -568 4
2  19 3 15 -568 4
2  20 5 13 -568 4
0

0101000
+198 15 -184 15 *
Wi

0101100
+197 0 -183 0 -182 11 +181 14 *
Fa
0  1.6040898904e-05 3 0

0101000
+180 0 *
Ed
 1e-07 1 1 0
1  11 0 0 596.9
2  21 6 2 0 596.9
2  22 4 0 0 596.9
0

0101000
+192 2 -185 2 *
Wi

0101100
+196 1 -189 11 +182 11 -178 1 *
Ve
1.60408999632554e-05
221.913031223396 38.9 2.93765012315816e-13
0 0

0101101
*
Ed
 1.60408998674998e-05 1 1 0
1  12 0 0 6.28318530717959
2  23 7 22 0 6.28318530717959
2  24 7 24 0 6.28318530717959
0

0101000
+176 22 -176 22 *
Wi

0101100
-175 21 *
Ve
1.60408999529387e-05
66.9130312233963 164.65 2.93765012315816e-13
0 0

0101101
*
Ed
 1.60408998063893e-05 1 1 0
1  13 0 0 6.28318530717959
2  25 8 29 0 6.28318530717959
2  26 8 31 0 6.28318530717959
0

0101000
+173 29 -173 29 *
Wi

0101100
-172 28 *
Ve
1.60408999864675e-05
72.9130312233963 145.9 2.95985458365067e-13
0 0

0101101
*
Ve
1.60408999533828e-05
75.9130312233963 142.9 2.93765012315816e-13
0 0

0101101
*
Ed
 1.60408998490233e-05 1 1 0
1  14 0 4.71238898038469 6.28318530717959
2  27 9 0 4.71238898038469 6.28318530717959
2  28 9 33 4.71238898038469 6.28318530717959
0

0101000
+170 0 -169 0 *
Ve
1.60408999891077e-05
72.9130312233963 187.9 2.95985458365067e-13
0 0

0101101
*
Ed
 1.60408998617894e-05 1 1 0
1  15 0 -246.5 -204.5
0

0101000
+170 0 -167 0 *
Ve
1.60408999531608e-05
97.9130312233963 142.9 2.93765012315816e-13
0 0

0101101
*
Ed
 1.6040899834811e-05 1 1 0
1  16 0 33 55
0

0101000
+169 0 -165 0 *
Ve
1.60408999559983e-05
75.9130312233963 190.9 2.93542967710891e-13
0 0

0101101
*
Ed
 1.60408998351412e-05 1 1 0
1  17 0 3.14159265358979 4.71238898038469
2  29 10 0 3.14159265358979 4.71238898038469
2  30 10 33 3.14159265358979 4.71238898038469
0

0101000
+163 0 -167 0 *
Ve
1.60408999864675e-05
100.913031223396 145.9 2.95985458365067e-13
0 0

0101101
*
Ed
 1.60408998351412e-05 1 1 0
1  18 0 6.28318530717959 7.85398163397448
2  31 11 0 6.28318530717959 7.85398163397448
2  32 11 33 6.28318530717959 7.85398163397448
0

0101000
+165 0 -161 0 *
Ve
1.60408999559983e-05
97.9130312233963 190.9 2.93542967710891e-13
0 0

0101101
*
Ed
 1.6040899834811e-05 1 1 0
1  19 0 33 55
0

0101000
+163 0 -159 0 *
Ve
1.60408999891077e-05
100.913031223396 187.9 2.95985458365067e-13
0 0

0101101
*
Ed
 1.60408998617894e-05 1 1 0
1  20 0 -246.5 -204.5
0

0101000
+161 0 -157 0 *
Ed
 1.60408998351412e-05 1 1 0
1  21 0 1.5707963267949 3.14159265358979
2  33 12 0 1.5707963267949 3.14159265358979
2  34 12 33 1.5707963267949 3.14159265358979
0

0101000
+157 0 -159 0 *
Wi

0101100
-168 0 +166 0 -164 0 -162 0 -160 0 +158 0 -156 0 -155 0 *
Ve
1.60408999529387e-05
106.913031223396 164.65 2.93765012315816e-13
0 0

0101101
*
Ed
 1.60408998063893e-05 1 1 0
1  22 0 0 6.28318530717959
2  35 13 38 0 6.28318530717959
2  36 13 40 0 6.28318530717959
0

0101000
+153 38 -153 38 *
Wi

0101100
-152 37 *
Ve
1.6040900225118e-05
361.913031223396 38.9 1.20052116396134e-13
0 0

0101101
*
Ed
 1.60409000514051e-05 1 1 0
1  23 0 0 6.28318530717959
2  37 14 45 0 6.28318530717959
2  38 14 47 0 6.28318530717959
0

0101000
+150 45 -150 45 *
Wi

0101100
-149 44 *
Ve
1.60409000557454e-05
521.913031223396 154.9 2.71338507218388e-13
0 0

0101101
*
Ed
 1.6040900033763e-05 1 1 0
1  24 0 0 6.28318530717959
2  39 15 52 0 6.28318530717959
2  40 15 54 0 6.28318530717959
0

0101000
+147 52 -147 52 *
Wi

0101100
-146 51 *
Ve
1.60408998419164e-05
94.9130312233963 212.9 0
0 0

0101101
*
Ve
1.60408998813848e-05
92.9130312233963 214.9 0
0 0

0101101
*
Ed
 1.60408991241572e-05 1 1 0
1  25 0 1.5707963267949 3.14159265358979
2  41 16 0 1.5707963267949 3.14159265358979
2  42 16 56 1.5707963267949 3.14159265358979
0

0101000
+144 0 -143 0 *
Ve
1.60408998419164e-05
488.913031223396 212.9 0
0 0

0101101
*
Ed
 1.60408998419164e-05 1 1 0
1  26 0 43.5 437.5
0

0101000
+144 0 -141 0 *
Ve
1.60408998813848e-05
490.913031223396 214.9 0
0 0

0101101
*
Ed
 1.60408991241572e-05 1 1 0
1  27 0 1.5707963267949 3.14159265358985
2  43 17 0 1.5707963267949 3.14159265358985
2  44 17 56 1.5707963267949 3.14159265358985
0

0101000
+139 0 -141 0 *
Ve
1.60408998988478e-05
490.913031223396 541.9 0
0 0

0101101
*
Ed
 1.60408998783595e-05 1 1 0
1  28 0 -355.5 -28.5
0

0101000
+139 0 -137 0 *
Ve
1.60408998419164e-05
488.913031223396 543.9 0
0 0

0101101
*
Ed
 1.60408991241572e-05 1 1 0
1  29 0 1.57079632679492 3.14159265358979
2  45 18 0 1.57079632679492 3.14159265358979
2  46 18 56 1.57079632679492 3.14159265358979
0

0101000
+135 0 -137 0 *
Ve
1.60408998419164e-05
94.9130312233963 543.9 0
0 0

0101101
*
Ed
 1.60408998419164e-05 1 1 0
1  30 0 43.5 437.5
0

0101000
+133 0 -135 0 *
Ve
1.60408998783595e-05
92.9130312233963 541.9 0
0 0

0101101
*
Ed
 1.60408991241572e-05 1 1 0
1  31 0 1.5707963267949 3.14159265358979
2  47 19 0 1.5707963267949 3.14159265358979
2  48 19 56 1.5707963267949 3.14159265358979
0

0101000
+131 0 -133 0 *
Ed
 1.60408998783595e-05 1 1 0
1  32 0 -355.5 -28.5
0

0101000
+143 0 -131 0 *
Wi

0101100
+142 0 -140 0 +138 0 -136 0 +134 0 +132 0 +130 0 +129 0 *
Fa
0  1.6040898904e-05 4 1

0101000
+177 0 +174 0 +171 0 +154 0 +151 0 +148 0 +145 0 +128 0 *
Ed
 1e-07 1 1 0
1  33 0 0 596.9
2  49 6 5 0 596.9
2  50 5 0 0 596.9
0

0101000
+191 5 -184 5 *
Wi

0101100
+195 4 -188 14 +181 14 -126 4 *
Ve
1.60408999632554e-05
221.913031223396 38.9 17.9999999999998
0 0

0101101
*
Ed
 1.60408998674998e-05 1 1 0
1  12 0 0 6.28318530717959
2  23 7 22 0 6.28318530717959
2  24 7 24 0 6.28318530717959
0

0101000
+124 24 -124 24 *
Wi

0101100
-123 57 *
Ve
1.60408999529387e-05
66.9130312233963 164.65 17.9999999999998
0 0

0101101
*
Ed
 1.60408998063893e-05 1 1 0
1  13 0 0 6.28318530717959
2  25 8 29 0 6.28318530717959
2  26 8 31 0 6.28318530717959
0

0101000
+121 31 -121 31 *
Wi

0101100
-120 58 *
Ve
1.60408999864675e-05
72.9130312233963 145.9 17.9999999999998
0 0

0101101
*
Ve
1.60408999533828e-05
75.9130312233963 142.9 17.9999999999998
0 0

0101101
*
Ed
 1.60408998490233e-05 1 1 0
1  14 0 4.71238898038469 6.28318530717959
2  27 9 0 4.71238898038469 6.28318530717959
2  28 9 33 4.71238898038469 6.28318530717959
0

0101000
+118 33 -117 33 *
Ve
1.60408999891077e-05
72.9130312233963 187.9 17.9999999999998
0 0

0101101
*
Ed
 1.60408998617894e-05 1 1 0
1  15 0 -246.5 -204.5
0

0101000
+118 33 -115 33 *
Ve
1.60408999531608e-05
97.9130312233963 142.9 17.9999999999998
0 0

0101101
*
Ed
 1.6040899834811e-05 1 1 0
1  16 0 33 55
0

0101000
+117 33 -113 33 *
Ve
1.60408999559983e-05
75.9130312233963 190.9 17.9999999999998
0 0

0101101
*
Ed
 1.60408998351412e-05 1 1 0
1  17 0 3.14159265358979 4.71238898038469
2  29 10 0 3.14159265358979 4.71238898038469
2  30 10 33 3.14159265358979 4.71238898038469
0

0101000
+111 33 -115 33 *
Ve
1.60408999864675e-05
100.913031223396 145.9 17.9999999999998
0 0

0101101
*
Ed
 1.60408998351412e-05 1 1 0
1  18 0 6.28318530717959 7.85398163397448
2  31 11 0 6.28318530717959 7.85398163397448
2  32 11 33 6.28318530717959 7.85398163397448
0

0101000
+113 33 -109 33 *
Ve
1.60408999559983e-05
97.9130312233963 190.9 17.9999999999998
0 0

0101101
*
Ed
 1.6040899834811e-05 1 1 0
1  19 0 33 55
0

0101000
+111 33 -107 33 *
Ve
1.60408999891077e-05
100.913031223396 187.9 17.9999999999998
0 0

0101101
*
Ed
 1.60408998617894e-05 1 1 0
1  20 0 -246.5 -204.5
0

0101000
+109 33 -105 33 *
Ed
 1.60408998351412e-05 1 1 0
1  21 0 1.5707963267949 3.14159265358979
2  33 12 0 1.5707963267949 3.14159265358979
2  34 12 33 1.5707963267949 3.14159265358979
0

0101000
+105 33 -107 33 *
Wi

0101100
-116 32 +114 32 -112 32 -110 32 -108 32 +106 32 -104 32 -103 32 *
Ve
1.60408999529387e-05
106.913031223396 164.65 17.9999999999998
0 0

0101101
*
Ed
 1.60408998063893e-05 1 1 0
1  22 0 0 6.28318530717959
2  35 13 38 0 6.28318530717959
2  36 13 40 0 6.28318530717959
0

0101000
+101 40 -101 40 *
Wi

0101100
-100 59 *
Ve
1.6040900225118e-05
361.913031223396 38.9 17.9999999999997
0 0

0101101
*
Ed
 1.60409000514051e-05 1 1 0
1  23 0 0 6.28318530717959
2  37 14 45 0 6.28318530717959
2  38 14 47 0 6.28318530717959
0

0101000
+98 47 -98 47 *
Wi

0101100
-97 60 *
Ve
1.60409000557454e-05
521.913031223396 154.9 17.9999999999998
0 0

0101101
*
Ed
 1.6040900033763e-05 1 1 0
1  24 0 0 6.28318530717959
2  39 15 52 0 6.28318530717959
2  40 15 54 0 6.28318530717959
0

0101000
+95 54 -95 54 *
Wi

0101100
-94 61 *
Ve
1.60408998419164e-05
94.9130312233963 212.9 17.9999999999995
0 0

0101101
*
Ve
1.60408998813848e-05
92.9130312233963 214.9 17.9999999999995
0 0

0101101
*
Ed
 1.60408991242683e-05 1 1 0
1  25 0 1.5707963267949 3.14159265358979
2  41 16 0 1.5707963267949 3.14159265358979
2  42 16 56 1.5707963267949 3.14159265358979
0

0101000
+92 56 -91 56 *
Ve
1.60408998419164e-05
488.913031223396 212.9 17.9999999999995
0 0

0101101
*
Ed
 1.60408998419164e-05 1 1 0
1  26 0 43.5 437.5
0

0101000
+92 56 -89 56 *
Ve
1.60408998813848e-05
490.913031223396 214.9 17.9999999999995
0 0

0101101
*
Ed
 1.60408991242683e-05 1 1 0
1  27 0 1.5707963267949 3.14159265358985
2  43 17 0 1.5707963267949 3.14159265358985
2  44 17 56 1.5707963267949 3.14159265358985
0

0101000
+87 56 -89 56 *
Ve
1.60408998988478e-05
490.913031223396 541.9 17.9999999999995
0 0

0101101
*
Ed
 1.60408998783595e-05 1 1 0
1  28 0 -355.5 -28.5
0

0101000
+87 56 -85 56 *
Ve
1.60408998419164e-05
488.913031223396 543.9 17.9999999999995
0 0

0101101
*
Ed
 1.60408991242683e-05 1 1 0
1  29 0 1.57079632679492 3.14159265358979
2  45 18 0 1.57079632679492 3.14159265358979
2  46 18 56 1.57079632679492 3.14159265358979
0

0101000
+83 56 -85 56 *
Ve
1.60408998419164e-05
94.9130312233963 543.9 17.9999999999995
0 0

0101101
*
Ed
 1.60408998419164e-05 1 1 0
1  30 0 43.5 437.5
0

0101000
+81 56 -83 56 *
Ve
1.60408998783595e-05
92.9130312233963 541.9 17.9999999999995
0 0

0101101
*
Ed
 1.60408991242683e-05 1 1 0
1  31 0 1.5707963267949 3.14159265358979
2  47 19 0 1.5707963267949 3.14159265358979
2  48 19 56 1.5707963267949 3.14159265358979
0

0101000
+79 56 -81 56 *
Ed
 1.60408998783595e-05 1 1 0
1  32 0 -355.5 -28.5
0

0101000
+91 56 -79 56 *
Wi

0101100
+90 55 -88 55 +86 55 -84 55 +82 55 +80 55 +78 55 +77 55 *
Fa
0  1.6040898904e-05 5 4

0101000
+125 0 +122 0 +119 0 +102 0 +99 0 +96 0 +93 0 +76 0 *
Wi

0101100
+190 0 -183 0 -178 1 +126 4 *
Fa
0  1e-07 6 0

0101000
+74 0 *
Ed
 1.60408999632554e-05 1 1 0
1  34 0 0 17.9999999999995
3  51 52CN 7 0 0 17.9999999999995
0

0101000
+176 0 -124 0 *
Wi

0101100
+72 0 -72 0 -175 21 +123 57 *
Fa
0  1.60408998674998e-05 7 0

0101000
+71 0 *
Ed
 1.60408999529387e-05 1 1 0
1  35 0 0 17.9999999999995
3  53 54CN 8 0 0 17.9999999999995
0

0101000
+173 0 -121 0 *
Wi

0101100
+69 0 -69 0 -172 28 +120 58 *
Fa
0  1.60408998063893e-05 8 0

0101000
+68 0 *
Ed
 1.60408999864675e-05 1 1 0
1  36 0 0 17.9999999999995
2  55 9 0 0 17.9999999999995
4 G1 9 0 20 0
0

0101000
+170 0 -118 0 *
Ed
 1.60408999533828e-05 1 1 0
1  37 0 0 17.9999999999995
2  56 9 0 0 17.9999999999995
4 G1 9 0 21 0
0

0101000
+169 0 -117 0 *
Wi

0101100
+66 0 -65 0 -168 0 +116 32 *
Fa
0  1.60408998490233e-05 9 0

0101000
+64 0 *
Ed
 1.60408999891077e-05 1 1 0
1  38 0 0 17.9999999999995
2  57 10 0 0 17.9999999999995
4 G1 10 0 20 0
0

0101000
+167 0 -115 0 *
Wi

0101100
+66 0 -62 0 -166 0 +114 32 *
Fa
0  1.60408998617894e-05 20 0

0101000
+61 0 *
Ed
 1.60408999531608e-05 1 1 0
1  39 0 0 17.9999999999995
2  58 11 0 0 17.9999999999995
4 G1 21 0 11 0
0

0101000
+165 0 -113 0 *
Wi

0101100
+65 0 -59 0 -164 0 +112 32 *
Fa
0  1.6040899834811e-05 21 0

0101000
+58 0 *
Ed
 1.60408999559983e-05 1 1 0
1  40 0 0 17.9999999999995
2  59 10 0 0 17.9999999999995
4 G1 22 0 10 0
0

0101000
+163 0 -111 0 *
Wi

0101100
+56 0 -62 0 -162 0 +110 32 *
Fa
0  1.60408998351412e-05 10 0

0101000
+55 0 *
Ed
 1.60408999864675e-05 1 1 0
1  41 0 0 17.9999999999995
2  60 11 0 0 17.9999999999995
4 G1 11 0 23 0
0

0101000
+161 0 -109 0 *
Wi

0101100
+59 0 -53 0 -160 0 +108 32 *
Fa
0  1.60408998351412e-05 11 0

0101000
+52 0 *
Ed
 1.60408999559983e-05 1 1 0
1  42 0 0 17.9999999999995
2  61 12 0 0 17.9999999999995
4 G1 12 0 22 0
0

0101000
+159 0 -107 0 *
Wi

0101100
+56 0 -50 0 -158 0 +106 32 *
Fa
0  1.6040899834811e-05 22 0

0101000
+49 0 *
Ed
 1.60408999891077e-05 1 1 0
1  43 0 0 17.9999999999995
2  62 12 0 0 17.9999999999995
4 G1 23 0 12 0
0

0101000
+157 0 -105 0 *
Wi

0101100
+53 0 -47 0 -156 0 +104 32 *
Fa
0  1.60408998617894e-05 23 0

0101000
+46 0 *
Wi

0101100
+47 0 -50 0 -155 0 +103 32 *
Fa
0  1.60408998351412e-05 12 0

0101000
+44 0 *
Ed
 1.60408999529387e-05 1 1 0
1  44 0 0 17.9999999999995
3  63 64CN 13 0 0 17.9999999999995
0

0101000
+153 0 -101 0 *
Wi

0101100
+42 0 -42 0 -152 37 +100 59 *
Fa
0  1.60408998063893e-05 13 0

0101000
+41 0 *
Ed
 1.6040900225118e-05 1 1 0
1  45 0 0 17.9999999999995
3  65 66CN 14 0 0 17.9999999999995
0

0101000
+150 0 -98 0 *
Wi

0101100
+39 0 -39 0 -149 44 +97 60 *
Fa
0  1.60409000514051e-05 14 0

0101000
+38 0 *
Ed
 1.60409000557454e-05 1 1 0
1  46 0 0 17.9999999999995
3  67 68CN 15 0 0 17.9999999999995
0

0101000
+147 0 -95 0 *
Wi

0101100
+36 0 -36 0 -146 51 +94 61 *
Fa
0  1.6040900033763e-05 15 0

0101000
+35 0 *
Ed
 1.60408998419164e-05 1 1 0
1  47 0 0 17.9999999999995
2  69 16 0 0 17.9999999999995
4 G1 24 0 16 0
0

0101000
+144 0 -92 0 *
Ed
 1.60408998813848e-05 1 1 0
1  48 0 0 17.9999999999995
2  70 16 0 0 17.9999999999995
4 G1 25 0 16 0
0

0101000
+143 0 -91 0 *
Wi

0101100
+33 0 -32 0 -142 0 +90 55 *
Fa
0  1.6040898904e-05 16 0

0101000
+31 0 *
Ed
 1.60408998419164e-05 1 1 0
1  49 0 0 17.9999999999995
2  71 17 0 0 17.9999999999995
4 G1 17 0 24 0
0

0101000
+141 0 -89 0 *
Wi

0101100
+33 0 -29 0 -140 0 +88 55 *
Fa
0  1.60408998419164e-05 24 0

0101000
+28 0 *
Ed
 1.60408998813848e-05 1 1 0
1  50 0 0 17.9999999999995
2  72 17 0 0 17.9999999999995
4 G1 26 0 17 0
0

0101000
+139 0 -87 0 *
Wi

0101100
+26 0 -29 0 -138 0 +86 55 *
Fa
0  1.6040898904e-05 17 0

0101000
+25 0 *
Ed
 1.60408998988478e-05 1 1 0
1  51 0 0 17.9999999999995
2  73 18 0 0 17.9999999999995
4 G1 18 0 26 0
0

0101000
+137 0 -85 0 *
Wi

0101100
+26 0 -23 0 -136 0 +84 55 *
Fa
0  1.60408998783595e-05 26 0

0101000
+22 0 *
Ed
 1.60408998419164e-05 1 1 0
1  52 0 0 17.9999999999995
2  74 18 0 0 17.9999999999995
4 G1 27 0 18 0
0

0101000
+135 0 -83 0 *
Wi

0101100
+20 0 -23 0 -134 0 +82 55 *
Fa
0  1.6040898904e-05 18 0

0101000
+19 0 *
Ed
 1.60408998419164e-05 1 1 0
1  53 0 0 17.9999999999995
2  75 19 0 0 17.9999999999995
4 G1 19 0 27 0
0

0101000
+133 0 -81 0 *
Wi

0101100
+17 0 -20 0 -132 0 +80 55 *
Fa
0  1.60408998419164e-05 27 0

0101000
+16 0 *
Ed
 1.60408998783595e-05 1 1 0
1  54 0 0 17.9999999999995
2  76 19 0 0 17.9999999999995
4 G1 25 0 19 0
0

0101000
+131 0 -79 0 *
Wi

0101100
+14 0 -17 0 -130 0 +78 55 *
Fa
0  1.6040898904e-05 19 0

0101000
+13 0 *
Wi

0101100
+32 0 -14 0 -129 0 +77 55 *
Fa
0  1.60408998783595e-05 25 0

0101000
+11 0 *
Sh

0101100
-193 0 +186 0 -179 0 -127 0 +75 0 +73 0 +70 0 +67 0 +63 0 -60 0 
+57 0 +54 0 +51 0 -48 0 +45 0 +43 0 +40 0 +37 0 +34 0 -30 0 
+27 0 -24 0 +21 0 -18 0 -15 0 -12 0 -10 0 *
So

0100000
+9 0 *
Co

0100000
+8 0 *
Co

0100000
+7 0 *
Co

0100000
+6 0 *
Co

0100000
+5 0 *
Co

0100000
+4 0 *
Co

0100000
+3 0 *
Co

1100000
+2 0 *

+1 0 