DBRep_DrawableShape

CASCADE Topology V1, (c) Matra-Datavision
Locations 0
Curve2ds 0
Curves 8
2 75.913031223396274 145.90000000000003 0 0 -0 1 0 -1 -0 1 0 0 3
1 42.913031223396274 142.90000000000003 0 1 0 0 
2 97.913031223396274 145.90000000000003 0 0 -0 1 0 -1 -0 1 0 0 3
1 100.91303122339627 392.39999999999998 0 0 1 0 
2 97.913031223396274 187.90000000000003 0 0 -0 1 0 -1 -0 1 0 0 3
1 42.913031223396274 190.90000000000003 0 1 0 0 
2 75.913031223396274 187.90000000000003 0 0 -0 1 0 -1 -0 1 0 0 3
1 72.913031223396274 392.39999999999998 0 0 1 0 
Polygon3D 0
PolygonOnTriangulations 0
Surfaces 1
1 86.913031223396274 166.90000000000012 0 0 0 1 1 0 -0 -0 1 0 
Triangulations 0

TShapes 19
Ve
1.60408999864675e-05
72.9130312233963 145.9 2.95985458365067e-13
0 0

0101101
*
Ve
1.60408999533828e-05
75.9130312233963 142.9 2.93765012315816e-13
0 0

0101101
*
Ed
 1.60408998490233e-05 1 1 0
1  1 0 4.71238898038469 6.28318530717959
0

0101000
+19 0 -18 0 *
Ve
1.60408999531608e-05
97.9130312233963 142.9 2.93765012315816e-13
0 0

0101101
*
Ed
 1.6040899834811e-05 1 1 0
1  2 0 33 55
0

0101000
+18 0 -16 0 *
Ve
1.60408999864675e-05
100.913031223396 145.9 2.95985458365067e-13
0 0

0101101
*
Ed
 1.60408998351412e-05 1 1 0
1  3 0 6.28318530717959 7.85398163397448
0

0101000
+16 0 -14 0 *
Ve
1.60408999891077e-05
100.913031223396 187.9 2.95985458365067e-13
0 0

0101101
*
Ed
 1.60408998617894e-05 1 1 0
1  4 0 -246.5 -204.5
0

0101000
+14 0 -12 0 *
Ve
1.60408999559983e-05
97.9130312233963 190.9 2.93542967710891e-13
0 0

0101101
*
Ed
 1.60408998351412e-05 1 1 0
1  5 0 1.5707963267949 3.14159265358979
0

0101000
+12 0 -10 0 *
Ve
1.60408999559983e-05
75.9130312233963 190.9 2.93542967710891e-13
0 0

0101101
*
Ed
 1.6040899834811e-05 1 1 0
1  6 0 33 55
0

0101000
+8 0 -10 0 *
Ve
1.60408999891077e-05
72.9130312233963 187.9 2.95985458365067e-13
0 0

0101101
*
Ed
 1.60408998351412e-05 1 1 0
1  7 0 3.14159265358979 4.71238898038469
0

0101000
+8 0 -6 0 *
Ed
 1.60408998617894e-05 1 1 0
1  8 0 -246.5 -204.5
0

0101000
+19 0 -6 0 *
Wi

0101100
-17 0 -15 0 -13 0 -11 0 -9 0 +7 0 -5 0 +4 0 *
Fa
0  1e-07 1 0

0101000
-3 0 *
Sh

1101000
+2 0 *

+1 0 