DBRep_DrawableShape

CASCADE Topology V1, (c) Matra-Datavision
Locations 19
1
              1               0               0               0 
              0               1               0               0 
              0               0               1              -1 
2  1 -1 0
1
              1               0               0               0 
              0               1               0               0 
              0               0               1               0 
1
              1               0               0               0 
              0 1.11022302462516e-16              -1               0 
              0               1 1.11022302462516e-16               0 
1
              1               0               0 -8.08696877660372 
              0               1               0           596.9 
              0               0               1         -1290.1 
2  3 1 4 1 5 1 0
2  5 -1 4 -1 3 -1 0
1
              1               0               0               0 
              0               1               0               0 
              0               0               1              -0 
2  8 -1 5 -1 4 -1 3 -1 0
1
              1               0               0               0 
              0               1               0               0 
              0               0               1               1 
2  10 -1 8 -1 5 -1 4 -1 3 -1 0
1
              1               0               0               0 
              0               1               0               0 
              0               0               1               0 
1
              1               0               0               0 
              0               1               0               0 
              0               0               1               0 
1
              1               0               0               0 
              0               1               0               0 
              0               0               1               0 
2  12 1 13 1 14 1 3 1 4 1 5 1 0
2  14 -1 13 -1 12 -1 0
2  8 -1 5 -1 4 -1 3 -1 14 -1 13 -1 12 -1 0
2  10 -1 8 -1 5 -1 4 -1 3 -1 14 -1 13 -1 12 -1 0
2  5 -1 4 -1 3 -1 14 -1 13 -1 12 -1 0
Curve2ds 15
1 -286 298.44999999999999 0 -1 
3 122 -4 0 1 -1 0 7.7781745930520225 5.5
7 0 0  3 25 23  1.030652349118671 32.62741699796959  1.0946202371329459 32.3258698459519  1.2225560131614921 31.687301996025425  1.4144596772043128 30.660638594364244  1.606363341247143 29.602202210318502  1.7982670052900074 28.551027771077141  1.9901706693327876 27.545661252883654  2.1820743333756445 26.623026408206968  2.3739779974184638 25.81699360468793  2.5658816614613205 25.157156544051432  2.7577853255041265 24.667740331545179  2.9496889895469631 24.366713525456046  3.1415926535897927 24.265128047107037  3.3334963176326236 24.366713525456039  3.5253999816754602 24.66774033154519  3.7173036457182649 25.157156544051425  3.9092073097611224 25.816993604687934  4.1011109738039435 26.623026408206982  4.2930146378467899 27.545661252883612  4.4849183018896133 28.55102777107734  4.6768219659324348 29.602202210318445  4.868725629975275 30.660638594364251  5.0606292940180939 31.687301996025425  5.188565070046641 32.3258698459519  5.2525329580609155 32.62741699796959 
 1.0306523491186923 4 1.2225560131615196 1 1.414459677204347 1 1.6063633412471745 1 1.7982670052900018 1 1.9901706693328292 1 2.1820743333756565 1 2.3739779974184838 1 2.5658816614613111 1 2.7577853255041385 1 2.9496889895469658 1 3.1415926535897931 1 3.3334963176326209 1 3.5253999816754478 1 3.7173036457182755 1 3.9092073097611024 1 4.1011109738039302 1 4.2930146378467571 1 4.4849183018895848 1 4.6768219659324117 1 4.8687256299752395 1 5.0606292940180664 1 5.2525329580608942 4
7 0 0  3 25 23  1.5707963267948759 35.455844122715803  1.5626123271331145 35.410832119670388  1.5462443278095943 35.32080813088831  1.5216923288243187 35.185853529498331  1.4971403298390396 35.051061674166952  1.4725883308537644 34.916513808704671  1.4480363318684568 34.782291035844985  1.423484332883191 34.648474260759933  1.398932333897916 34.515144144327742  1.3743803349126262 34.382381053968174  1.3498283359273435 34.250265015345519  1.325276336942063 34.118875664091995  1.3007243379567763 33.988292197816556  1.2761723389715078 33.858593328363519  1.2516203399862262 33.729857234370769  1.2270683410009275 33.602161514134245  1.2025163420156582 33.475583138879706  1.1779643430303577 33.350198406195148  1.1534123440450859 33.226082894679685  1.1288603450598147 33.103311416006584  1.1043083460745104 32.981957978708721  1.0797563470892404 32.862095710431397  1.055204348103947 32.743796937523072  1.0388363487804264 32.66602076577  1.0306523491186697 32.62741699796959 
 1.5707963267948966 4 1.5953483257801788 1 1.6199003247654613 1 1.6444523237507436 1 1.6690043227360258 1 1.6935563217213083 1 1.7181083207065906 1 1.7426603196918729 1 1.7672123186771553 1 1.7917643176624376 1 1.8163163166477201 1 1.8408683156330024 1 1.8654203146182846 1 1.8899723136035671 1 1.9145243125888494 1 1.9390763115741319 1 1.9636283105594141 1 1.9881803095446964 1 2.0127323085299786 1 2.0372843075152609 1 2.0618363065005436 1 2.0863883054858259 1 2.1109403044711081 4
3 169.92274154385387 -282.16073908078749 0 1 1 -0 7.7781745930520216 5.5
1 0 0 1 0 
1 0 -1 1 0 
7 0 0  3 25 23  4.7123889803847101 35.455844122715803  4.6647890916939536 35.717675932072765  4.5695893143124398 36.241225139068554  4.4267896482401685 37.01065251446434  4.2839899821679186 37.748403915136464  4.1411903160956554 38.439491990346973  3.9983906500233841 39.069839835805141  3.8555909839511218 39.626617622921898  3.7127913178788572 40.098490362492726  3.5699916518065868 40.47585224683101  3.427191985734324 40.751021233177418  3.2843923196620533 40.918395686032888  3.1415926535897927 40.974568341057257  2.9987929875175316 40.918395686032888  2.8559933214452644 40.751021233177418  2.7131936553729994 40.47585224683101  2.5703939893007268 40.098490362492711  2.4275943232284676 39.626617622921913  2.284794657156195 39.069839835805084  2.1419949910839593 38.439491990347172  1.9991953250116612 37.748403915136414  1.8563956589394193 37.010652514464347  1.7135959928671458 36.241225139068561  1.6183962154856324 35.717675932072765  1.5707963267948759 35.455844122715803 
 4.7123889803846897 4 4.8551886464569529 1 4.9979883125292162 1 5.1407879786014794 1 5.2835876446737426 1 5.4263873107460068 1 5.5691869768182691 1 5.7119866428905333 1 5.8547863089627965 1 5.9975859750350597 1 6.140385641107323 1 6.2831853071795862 1 6.4259849732518495 1 6.5687846393241127 1 6.711584305396376 1 6.8543839714686392 1 6.9971836375409033 1 7.1399833036131657 1 7.2827829696854298 1 7.4255826357576931 1 7.5683823018299563 1 7.7111819679022195 1 7.8539816339744828 4
3 169.92274154385387 -282.16073908078749 0 1 1 -0 7.7781745930520216 5.5
1 0 0 1 0 
1 0 -1 1 0 
7 0 0  3 25 23  5.2525329580609164 32.62741699796959  5.2443489583991596 32.66602076577  5.2279809590756416 32.743796937523072  5.2034289600903447 32.862095710431404  5.1788769611050771 32.981957978708714  5.1543249621197695 33.103311416006598  5.1297729631345002 33.226082894679692  5.105220964149229 33.350198406195133  5.0806689651639276 33.475583138879699  5.0561169661786591 33.602161514134245  5.0315649671933595 33.729857234370769  5.0070129682080786 33.858593328363504  4.9824609692228083 33.988292197816563  4.9579089702375247 34.118875664091988  4.933356971252242 34.250265015345519  4.9088049722669576 34.382381053968167  4.8842529732816695 34.515144144327735  4.8597009742963939 34.648474260759926  4.8351489753111299 34.782291035844978  4.8105969763258214 34.916513808704678  4.7860449773405467 35.051061674166952  4.7614929783552675 35.185853529498317  4.736940979369991 35.320808130888302  4.7205729800464704 35.410832119670388  4.7123889803847101 35.455844122715803 
 4.1722450027084781 4 4.1967970016937608 1 4.2213490006790426 1 4.2459009996643253 1 4.2704529986496071 1 4.2950049976348899 1 4.3195569966201726 1 4.3441089956054544 1 4.3686609945907371 1 4.3932129935760189 1 4.4177649925613016 1 4.4423169915465834 1 4.4668689905318661 1 4.4914209895171489 1 4.5159729885024307 1 4.5405249874877134 1 4.5650769864729952 1 4.5896289854582779 1 4.6141809844435606 1 4.6387329834288424 1 4.6632849824141251 1 4.687836981399407 1 4.7123889803846897 4
3 169.92274154385387 -282.16073908078749 0 1 1 -0 7.7781745930520216 5.5
1 0 0 1 0 
1 0 -1 1 0 
Curves 5
1 5.9130312233962812 596.89999999999998 0.99999999999977263 0 -1 1.1102230246251565e-16 
3 14 1294.0999999999999 122 1 0 0 0 -1 0 0 0 -1 7.7781745930520225 5.5
3 18.000000000000057 1290.0999999999999 122 -0 1 0 1 0 0 0 0 -1 7.7781745930520225 5.5
3 18.000000000000057 1290.0999999999999 122 0 1 0 1 -0 0 0 0 -1 7.7781745930520225 5.5
3 18.000000000000057 1290.0999999999999 122 -0 1 0 1 0 0 0 0 -1 7.7781745930520225 5.5
Polygon3D 0
PolygonOnTriangulations 0
Surfaces 8
1 5.9130312233962812 596.89999999999998 -2.2737367544323206e-13 1 0 -0 0 -1 1.1102230246251565e-16 0 -1.1102230246251565e-16 -1 
1 291.91303122339627 298.44999999999999 0.99999999999977984 0 0 1 1 0 -0 -0 1 0 
1 14 1290.0999999999999 0 1 0 -0 0 0 1 0 -1 0 
2 -7.0710678118654746 1315.1710678118654 122 0.70710678118654757 -0.70710678118654757 0 -0.70710678118654757 -0.70710678118654757 0 0 -0 -1 5.5
1 300.16073908078755 1290.1000000000001 291.92274154385387 -0 -1 -0 0 0 -1 1 -0 0 
6 -0 -0 -1 
3 9.913031223396338 474.89999999999998 -2.2737367544323206e-13 -0 1.1102230246251565e-16 1 1 0 0 0 1 -1.1102230246251565e-16 7.7781745930520225 5.5
6 -0 -0 -1 
3 9.913031223396338 474.89999999999998 -2.2737367544323206e-13 -0 1.1102230246251565e-16 1 1 0 0 0 1 -1.1102230246251565e-16 7.7781745930520225 5.5
6 -0 -0 -1 
3 9.913031223396338 474.89999999999998 -2.2737367544323206e-13 -0 1.1102230246251565e-16 1 1 0 0 0 1 -1.1102230246251565e-16 7.7781745930520225 5.5
Triangulations 0

TShapes 17
Ve
1.60408989118265e-05
5.91303122339628 479.616990566028 -2.27373675443232e-13
0 0

0101101
*
Ve
1.60408989106792e-05
5.91303122339628 470.183009433972 -2.27373675443232e-13
0 0

0101101
*
Ed
 1.6040898904e-05 1 1 0
1  1 0 117.283009433972 126.716990566028
2  1 2 0 117.283009433972 126.716990566028
0

0101000
+17 2 -16 2 *
Ed
 1e-07 1 1 0
1  2 0 1.03065234911869 5.25253295806089
2  2 3 0 1.03065234911869 5.25253295806089
2  3 4 0 1.03065234911869 5.25253295806089
0

0101000
+17 7 -16 7 *
Wi

0101100
-15 1 +14 6 *
Fa
0  1e-07 1 0

0101000
+13 0 *
Ve
1.60408989118265e-05
9.91303122339628 480.4 -2.27373675443232e-13
0 0

0101101
*
Ed
 1.60408989118265e-05 1 1 0
1  3 0 1.5707963267949 2.11094030447111
2  4 4 0 1.5707963267949 2.11094030447111
2  5 5 0 1.5707963267949 2.11094030447111
2  6 6 9 1.5707963267949 2.11094030447111
2  7 6 11 1.5707963267949 2.11094030447111
0

0101000
+11 7 -17 7 *
Ve
1.60408989118063e-05
9.91303122339628 469.4 -2.27373675443232e-13
0 0

0101101
*
Ed
 1.60408989118063e-05 1 1 0
1  4 0 4.71238898038469 7.85398163397448
2  8 4 16 4.71238898038469 7.85398163397448
2  9 5 16 4.71238898038469 7.85398163397448
2  10 7 17 4.71238898038469 7.85398163397448
2  11 7 18 4.71238898038469 7.85398163397448
0

0101000
+9 19 -11 19 *
Ed
 1.60408989106792e-05 1 1 0
1  5 0 4.17224500270848 4.71238898038469
2  12 4 0 4.17224500270848 4.71238898038469
2  13 5 0 4.17224500270848 4.71238898038469
2  14 8 9 4.17224500270848 4.71238898038469
2  15 8 11 4.17224500270848 4.71238898038469
0

0101000
+16 7 -9 7 *
Wi

0101100
+10 6 +8 15 +7 6 +15 1 *
Fa
0  1.6040898904e-05 2 1

0101000
+6 0 *
Wi

0101100
+14 6 +7 6 +8 15 +10 6 *
Fa
0  1e-07 4 6

0101000
+4 0 *
Sh

0101100
-12 0 -5 0 +3 0 *
So

0100000
+2 0 *

+1 0 