DBRep_DrawableShape

CASCADE Topology V1, (c) Matra-Datavision
Locations 0
Curve2ds 0
Curves 8
1 92.913031223396274 570.39999999999998 0 0 1 0 
2 94.913031223396274 541.89999999999998 0 -0 -0 -1 0 -1 0 -1 0 0 2
1 51.413031223396274 543.89999999999998 0 1 0 0 
2 488.91303122339622 541.89999999999998 0 -0 0 -1 -1 -0 0 0 1 0 2
1 490.91303122339627 570.39999999999998 0 0 1 0 
2 488.91303122339627 214.90000000000003 0 -0 0 -1 0 1 0 1 0 -0 2
1 51.413031223396274 212.90000000000003 0 1 0 0 
2 94.913031223396274 214.90000000000003 0 0 0 -1 1 0 0 0 -1 0 2
Polygon3D 0
PolygonOnTriangulations 0
Surfaces 1
1 291.91303122339627 378.40000000000003 0 0 0 1 1 0 -0 -0 1 0 
Triangulations 0

TShapes 19
Ve
1.60408998813848e-05
92.9130312233963 214.9 0
0 0

0101101
*
Ve
1.60408998783595e-05
92.9130312233963 541.9 0
0 0

0101101
*
Ed
 1.60408998783595e-05 1 1 0
1  1 0 -355.5 -28.5
0

0101000
+19 0 -18 0 *
Ve
1.60408998419164e-05
94.9130312233963 543.9 0
0 0

0101101
*
Ed
 1.6040898904e-05 1 1 0
1  2 0 1.5707963267949 3.14159265358979
0

0101000
+18 0 -16 0 *
Ve
1.60408998419164e-05
488.913031223396 543.9 0
0 0

0101101
*
Ed
 1.60408998419164e-05 1 1 0
1  3 0 43.5 437.5
0

0101000
+16 0 -14 0 *
Ve
1.60408998988478e-05
490.913031223396 541.9 0
0 0

0101101
*
Ed
 1.6040898904e-05 1 1 0
1  4 0 1.57079632679492 3.14159265358979
0

0101000
+14 0 -12 0 *
Ve
1.60408998813848e-05
490.913031223396 214.9 0
0 0

0101101
*
Ed
 1.60408998783595e-05 1 1 0
1  5 0 -355.5 -28.5
0

0101000
+10 0 -12 0 *
Ve
1.60408998419164e-05
488.913031223396 212.9 0
0 0

0101101
*
Ed
 1.6040898904e-05 1 1 0
1  6 0 1.5707963267949 3.14159265358985
0

0101000
+10 0 -8 0 *
Ve
1.60408998419164e-05
94.9130312233963 212.9 0
0 0

0101101
*
Ed
 1.60408998419164e-05 1 1 0
1  7 0 43.5 437.5
0

0101000
+6 0 -8 0 *
Ed
 1.6040898904e-05 1 1 0
1  8 0 1.5707963267949 3.14159265358979
0

0101000
+6 0 -19 0 *
Wi

0101100
+17 0 +15 0 +13 0 +11 0 -9 0 +7 0 -5 0 +4 0 *
Fa
0  1e-07 1 0

0101000
-3 0 *
Sh

1101000
+2 0 *

+1 0 