DBRep_DrawableShape

CASCADE Topology V1, (c) Matra-Datavision
Locations 0
Curve2ds 0
Curves 4
1 5.9130312233962741 596.89999999999998 -2.2015722578316854e-13 0 -1 -0 
1 573.91303122339627 0 -2.2015722578316854e-13 1 0 0 
1 577.91303122339627 596.89999999999998 -2.2015722578316854e-13 0 -1 -0 
1 5.9130312233962741 596.89999999999998 -2.2015722578316854e-13 1 0 0 
Polygon3D 0
PolygonOnTriangulations 0
Surfaces 0
Triangulations 0

TShapes 9
Ve
1e-07
5.91303122339627 596.9 -2.20157225783169e-13
0 0

0101101
*
Ve
1e-07
5.91303122339627 0 -2.20157225783169e-13
0 0

0101101
*
Ed
 1e-07 1 1 0
1  1 0 -0 596.9
0

0101000
+9 0 -8 0 *
Ve
1e-07
577.913031223396 0 -2.20157225783169e-13
0 0

0101101
*
Ed
 1e-07 1 1 0
1  2 0 -568 4
0

0101000
+8 0 -6 0 *
Ve
1e-07
577.913031223396 596.9 -2.20157225783169e-13
0 0

0101101
*
Ed
 1e-07 1 1 0
1  3 0 0 596.9
0

0101000
+4 0 -6 0 *
Ed
 1e-07 1 1 0
1  4 0 0 572
0

0101000
+9 0 -4 0 *
Wi

0101100
+7 0 +5 0 -3 0 -2 0 *

+1 0 