DBRep_DrawableShape

CASCADE Topology V1, (c) Matra-Datavision
Locations 11
1
              1               0               0               0 
              0               1               0               0 
              0               0               1              -1 
1
              1               0               0               0 
              0               1               0               0 
              0               0               1               0 
1
              1               0               0               0 
              0               1               0               0 
              0               0               1               0 
1
              1               0               0               0 
              0               1               0               0 
              0               0               1               0 
1
              1               0               0               0 
              0 1.11022302462516e-16              -1               0 
              0               1 1.11022302462516e-16               0 
1
              1               0               0 -8.08696877660372 
              0               1               0           596.9 
              0               0               1         -1290.1 
2  2 1 3 1 4 1 5 1 6 1 0
2  3 -1 2 -1 0
2  6 -1 5 -1 4 -1 3 -1 2 -1 0
1
              1               0               0               0 
              0               1               0               0 
              0               0               1 17.9999999999995 
2  1 1 10 1 0
Curve2ds 6
2 -126.07725845614613 220.33926091921245 -1 0 0 1 1.6000000000000227
1 0 1 1 0 
1 0 19 1 0 
2 119.55000000000007 220.5 1 0 -0 1 1.6000000000000227
1 6.2831853071795862 -0 0 1 
1 0 -0 0 1 
Curves 3
2 520.5 1290.0999999999999 418 0 1 0 0 -0 1 1 0 -0 1.6000000000000001
2 520.5 1308.0999999999999 418 0 1 0 0 -0 1 1 0 -0 1.6000000000000001
1 520.5 1289.0999999999999 419.60000000000002 0 1 0 
Polygon3D 0
PolygonOnTriangulations 0
Surfaces 4
1 291.91303122339627 298.44999999999999 0.99999999999977984 0 0 1 1 0 -0 -0 1 0 
1 300.16073908078755 1290.1000000000001 291.92274154385387 -0 -1 -0 0 0 -1 1 -0 0 
2 520.5 1289.0999999999999 418 0 1 0 0 -0 1 1 0 -0 1.6000000000000001
1 300 1308.0999999999997 298.44999999999993 0 1 0 0 -0 1 1 0 -0 
Triangulations 0

TShapes 13
Ve
1.60408989113941e-05
512.413031223396 177.3 -2.27373675443232e-13
0 0

0101101
*
Ed
 1.60408989113941e-05 1 1 0
1  1 0 0 6.28318530717959
2  1 2 8 0 6.28318530717959
2  2 3 0 0 6.28318530717959
0

0101000
+13 9 -13 9 *
Wi

0101100
+12 7 *
Fa
0  1.6040898904e-05 1 1

0101000
+11 0 *
Ve
1.60408993516419e-05
512.413031223396 177.3 17.9999999999998
0 0

0101101
*
Ed
 1.60408993516419e-05 1 1 0
1  2 0 0 6.28318530717959
2  3 3 0 0 6.28318530717959
2  4 4 8 0 6.28318530717959
0

0101000
+9 9 -9 9 *
Ed
 1e-07 1 1 0
1  3 0 1 19
3  5 6CN 3 0 1 19
0

0101000
+13 9 -9 9 *
Wi

0101100
-8 7 +7 7 +12 7 -7 7 *
Fa
0  1e-07 3 7

0101000
+6 0 *
Wi

0101100
+8 7 *
Fa
0  1.6040898904e-05 1 11

0101000
+4 0 *
Sh

0101100
-10 0 +5 0 +3 0 *
So

0100000
+2 0 *

+1 0 