DBRep_DrawableShape

CASCADE Topology V1, (c) Matra-Datavision
Locations 10
1
              1               0               0               0 
              0               1               0               0 
              0               0               1              -1 
1
              1               0               0               0 
              0               1               0               0 
              0               0               1               0 
1
              1               0               0               0 
              0               1               0               0 
              0               0               1               0 
1
              1               0               0               0 
              0 1.11022302462516e-16              -1               0 
              0               1 1.11022302462516e-16               0 
1
              1               0               0 -8.08696877660372 
              0               1               0           596.9 
              0               0               1         -1290.1 
2  2 1 3 1 4 1 5 1 0
2  2 -1 0
2  5 -1 4 -1 3 -1 2 -1 0
1
              1               0               0               0 
              0               1               0               0 
              0               0               1 17.9999999999995 
2  1 1 9 1 0
Curve2ds 24
1 265.42274154385387 -199.16073908078755 1 0 
8 -357.5 -26.5
1 -26.5 -5.0501898662234908 -1 -0 
1 238.92274154385387 -240.66073908078755 0 1 
8 41.5 439.5
1 -41.5 5.0501898662234908 1 0 
1 265.42274154385387 198.83926091921245 1 0 
8 -357.5 -26.5
1 -26.5 -5.0501898662234908 -1 -0 
1 -92.077258456146126 -240.66073908078755 0 1 
8 41.5 439.5
1 -41.5 5.0501898662234908 1 0 
1 0 0 0 1 
1 331 0 0 -1 
8 -357.5 -26.5
1 -26.5 -23.050189866223491 -1 -0 
1 -271.94999999999993 -199 -1 0 
1 0 0 0 1 
1 0 0 0 -1 
8 41.5 439.5
1 -41.5 23.050189866223491 1 0 
1 -245.44999999999993 -240.5 0 1 
1 0 0 0 -1 
1 398 0 0 1 
1 398 0 0 1 
1 331 0 0 -1 
8 -357.5 -26.5
1 -26.5 -23.050189866223491 -1 -0 
1 -271.94999999999993 199 -1 0 
8 41.5 439.5
1 -41.5 23.050189866223491 1 0 
1 85.550000000000068 -240.5 0 1 
Curves 12
1 101 1290.0999999999999 26.5 -0 0 -1 
1 59.5 1290.0999999999999 53 1 0 0 
1 499 1290.0999999999999 26.5 -0 0 -1 
1 59.5 1290.0999999999999 384 1 0 0 
1 101 1285.0498101337764 384 -0 1 0 
1 101 1308.0999999999999 26.5 -0 0 -1 
1 101 1285.0498101337764 53 -0 1 0 
1 59.5 1308.0999999999999 53 1 0 0 
1 499 1285.0498101337764 53 -0 1 0 
1 499 1285.0498101337764 384 -0 1 0 
1 499 1308.0999999999999 26.5 -0 0 -1 
1 59.5 1308.0999999999999 384 1 0 0 
Polygon3D 0
PolygonOnTriangulations 0
Surfaces 7
1 291.91303122339627 298.44999999999999 0.99999999999977984 0 0 1 1 0 -0 -0 1 0 
1 300.16073908078755 1290.1000000000001 291.92274154385387 -0 -1 -0 0 0 -1 1 -0 0 
1 101 1285.0498101337764 53 1 0 -0 0 0 1 0 -1 0 
1 101 1285.0498101337764 53 0 0 1 1 0 -0 -0 1 0 
1 499 1285.0498101337764 53 1 0 -0 0 0 1 0 -1 0 
1 101 1285.0498101337764 384 0 0 1 1 0 -0 -0 1 0 
1 300 1308.0999999999997 298.44999999999993 0 1 0 0 -0 1 1 0 -0 
Triangulations 0

TShapes 34
Ve
1.60408989334117e-05
92.9130312233963 212.9 -2.27373675443232e-13
0 0

0101101
*
Ve
1.60408989334117e-05
92.9130312233963 543.9 -2.27373675443232e-13
0 0

0101101
*
Ed
 1.60408989334117e-05 1 1 0
1  1 0 -357.5 -26.5
2  1 2 7 -357.5 -26.5
2  2 3 0 -357.5 -26.5
0

0101000
+34 8 -33 8 *
Ve
1.60408989334117e-05
490.913031223396 543.9 -2.27373675443232e-13
0 0

0101101
*
Ed
 1.60408989112165e-05 1 1 0
1  2 0 41.5 439.5
2  3 2 7 41.5 439.5
2  4 4 0 41.5 439.5
0

0101000
+33 8 -31 8 *
Ve
1.60408989334117e-05
490.913031223396 212.9 -2.27373675443232e-13
0 0

0101101
*
Ed
 1.60408989334117e-05 1 1 0
1  3 0 -357.5 -26.5
2  5 2 7 -357.5 -26.5
2  6 5 0 -357.5 -26.5
0

0101000
+29 8 -31 8 *
Ed
 1.60408989112165e-05 1 1 0
1  4 0 41.5 439.5
2  7 2 7 41.5 439.5
2  8 6 0 41.5 439.5
0

0101000
+34 8 -29 8 *
Wi

0101100
-32 6 -30 6 +28 6 +27 6 *
Fa
0  1.6040898904e-05 1 1

0101000
+26 0 *
Ve
1.60408993871691e-05
92.9130312233963 212.9 17.9999999999998
0 0

0101101
*
Ed
 1e-07 1 1 0
1  5 0 5.05018986622349 23.0501898662235
2  9 6 0 5.05018986622349 23.0501898662235
2  10 3 0 5.05018986622349 23.0501898662235
0

0101000
+34 8 -24 8 *
Ve
1.60408993871691e-05
92.9130312233963 543.9 17.9999999999998
0 0

0101101
*
Ed
 1.60408993871691e-05 1 1 0
1  6 0 -357.5 -26.5
2  11 3 0 -357.5 -26.5
2  12 7 7 -357.5 -26.5
0

0101000
+24 8 -22 8 *
Ed
 1e-07 1 1 0
1  7 0 5.05018986622349 23.0501898662235
2  13 4 0 5.05018986622349 23.0501898662235
2  14 3 0 5.05018986622349 23.0501898662235
0

0101000
+33 8 -22 8 *
Wi

0101100
-23 6 -21 6 +20 6 +32 6 *
Fa
0  1e-07 3 6

0101000
+19 0 *
Ve
1.60408993871691e-05
490.913031223396 543.9 17.9999999999998
0 0

0101101
*
Ed
 1.60408993516419e-05 1 1 0
1  8 0 41.5 439.5
2  15 4 0 41.5 439.5
2  16 7 7 41.5 439.5
0

0101000
+22 8 -17 8 *
Ed
 1e-07 1 1 0
1  9 0 5.05018986622349 23.0501898662235
2  17 5 0 5.05018986622349 23.0501898662235
2  18 4 0 5.05018986622349 23.0501898662235
0

0101000
+31 8 -17 8 *
Wi

0101100
-20 6 -16 6 +15 6 +30 6 *
Fa
0  1e-07 4 6

0101000
+14 0 *
Ve
1.60408993871691e-05
490.913031223396 212.9 17.9999999999998
0 0

0101101
*
Ed
 1e-07 1 1 0
1  10 0 5.05018986622349 23.0501898662235
2  19 6 0 5.05018986622349 23.0501898662235
2  20 5 0 5.05018986622349 23.0501898662235
0

0101000
+29 8 -12 8 *
Ed
 1.60408993871691e-05 1 1 0
1  11 0 -357.5 -26.5
2  21 5 0 -357.5 -26.5
2  22 7 7 -357.5 -26.5
0

0101000
+12 8 -17 8 *
Wi

0101100
-11 6 -10 6 +15 6 +28 6 *
Fa
0  1e-07 5 6

0101000
+9 0 *
Ed
 1.60408993516419e-05 1 1 0
1  12 0 41.5 439.5
2  23 6 0 41.5 439.5
2  24 7 7 41.5 439.5
0

0101000
+24 8 -12 8 *
Wi

0101100
-23 6 -7 6 +11 6 +27 6 *
Fa
0  1e-07 6 6

0101000
+6 0 *
Wi

0101100
-21 6 -16 6 +10 6 +7 6 *
Fa
0  1.6040898904e-05 1 10

0101000
+4 0 *
Sh

0101100
-25 0 -18 0 -13 0 +8 0 +5 0 +3 0 *
So

0100000
+2 0 *

+1 0 