DBRep_DrawableShape

CASCADE Topology V1, (c) Matra-Datavision
Locations 9
1
              1               0               0               0 
              0               1               0               0 
              0               0               1               0 
1
              1               0               0               0 
              0               1               0               0 
              0               0               1               0 
1
              1               0               0               0 
              0               1               0               0 
              0               0               1               0 
1
              1               0               0             -14 
              0               1               0             -18 
              0               0               1             -18 
1
              1               0               0               0 
              0               1               0               0 
              0               0               1 3.94430452610506e-31 
1
              1               0               0               0 
              0               1               0               0 
              0               0               1               1 
1
              1               0               0               0 
              0               1               0               0 
              0               0               1              -1 
2  1 1 2 1 3 1 4 1 5 1 6 1 7 1 0
2  7 -1 6 -1 5 -1 4 -1 3 -1 2 -1 1 -1 0
Curve2ds 0
Curves 1
2 202.5 657.5 18.000000000000007 0 -0 1 1 0 0 -0 1 0 2.25
Polygon3D 0
PolygonOnTriangulations 0
Surfaces 1
1 188.5 639.50000000000011 0 0 0 1 1 0 -0 -0 1 0 
Triangulations 0

TShapes 5
Ve
1.00000024461914e-07
190.75 639.5 -2.73855012740872e-15
0 0

0101101
*
Ed
 1.00000021316282e-07 1 1 0
1  1 0 0 6.28318530717959
0

0101000
+5 9 -5 9 *
Wi

0101100
-4 8 *
Fa
0  1e-07 1 0

0101000
-3 0 *
Sh

1101000
+2 0 *

+1 0 