DBRep_DrawableShape

CASCADE Topology V1, (c) Matra-Datavision
Locations 293
1
              1               0               0               0 
              0               1               0               0 
              0               0               1               0 
1
              1               0               0               0 
              0               1               0               0 
              0               0               1               0 
1
              1               0               0             -14 
              0               1               0             -18 
              0               0               1             -18 
1
              1               0               0               0 
              0               1               0               0 
              0               0               1             -18 
1
              1               0               0               0 
              0               1               0               0 
              0               0               1               1 
1
              1               0               0               0 
              0               1               0               0 
              0               0               1              -1 
2  1 1 2 1 3 1 4 1 5 1 6 1 0
2  6 -1 5 -1 4 -1 3 -1 2 -1 1 -1 0
1
              1               0               0               0 
              0               1               0               0 
              0               0               1              18 
2  1 1 2 1 3 1 4 1 5 1 6 1 9 1 0
2  9 -1 6 -1 5 -1 4 -1 3 -1 2 -1 1 -1 0
1
              1               0               0               0 
              0               1               0               0 
              0               0               1               0 
1
              1               0               0               0 
              0               1               0               0 
              0               0               1               0 
1
              1               0               0               0 
              0               1               0               0 
              0               0               1              -0 
1
              1               0               0               0 
              0               1               0               0 
              0               0               1               1 
1
              1               0               0               0 
              0               1               0               0 
              0               0               1              -1 
2  12 1 13 1 1 1 2 1 3 1 14 1 15 1 16 1 0
2  16 -1 15 -1 14 -1 3 -1 2 -1 1 -1 13 -1 12 -1 0
1
              1               0               0               0 
              0               1               0               0 
              0               0               1              18 
2  19 -1 16 -1 15 -1 14 -1 3 -1 2 -1 1 -1 13 -1 12 -1 0
1
              1               0               0               0 
              0               1               0               0 
              0               0               1              -0 
1
              1               0               0               0 
              0               1               0               0 
              0               0               1               1 
1
              1               0               0               0 
              0               1               0               0 
              0               0               1              -1 
2  12 1 13 1 1 1 2 1 3 1 21 1 22 1 23 1 0
2  23 -1 22 -1 21 -1 3 -1 2 -1 1 -1 13 -1 12 -1 0
1
              1               0               0               0 
              0               1               0               0 
              0               0               1              18 
2  26 -1 23 -1 22 -1 21 -1 3 -1 2 -1 1 -1 13 -1 12 -1 0
1
              1               0               0               0 
              0               1               0               0 
              0               0               1              -0 
1
              1               0               0               0 
              0               1               0               0 
              0               0               1               1 
1
              1               0               0               0 
              0               1               0               0 
              0               0               1              -1 
2  12 1 13 1 1 1 2 1 3 1 28 1 29 1 30 1 0
2  30 -1 29 -1 28 -1 3 -1 2 -1 1 -1 13 -1 12 -1 0
1
              1               0               0               0 
              0               1               0               0 
              0               0               1              18 
2  33 -1 30 -1 29 -1 28 -1 3 -1 2 -1 1 -1 13 -1 12 -1 0
1
              1               0               0               0 
              0               1               0               0 
              0               0               1              -0 
1
              1               0               0               0 
              0               1               0               0 
              0               0               1               1 
1
              1               0               0               0 
              0               1               0               0 
              0               0               1              -1 
2  12 1 13 1 1 1 2 1 3 1 35 1 36 1 37 1 0
2  37 -1 36 -1 35 -1 3 -1 2 -1 1 -1 13 -1 12 -1 0
1
              1               0               0               0 
              0               1               0               0 
              0               0               1              18 
2  40 -1 37 -1 36 -1 35 -1 3 -1 2 -1 1 -1 13 -1 12 -1 0
1
              1               0               0               0 
              0               1               0               0 
              0               0               1              -0 
1
              1               0               0               0 
              0               1               0               0 
              0               0               1               1 
1
              1               0               0               0 
              0               1               0               0 
              0               0               1              -1 
2  13 1 1 1 2 1 3 1 42 1 43 1 44 1 0
2  44 -1 43 -1 42 -1 3 -1 2 -1 1 -1 13 -1 0
1
              1               0               0               0 
              0               1               0               0 
              0               0               1               8 
2  47 -1 44 -1 43 -1 42 -1 3 -1 2 -1 1 -1 13 -1 0
1
              1               0               0               0 
              0               1               0               0 
              0               0               1              -0 
1
              1               0               0               0 
              0               1               0               0 
              0               0               1               1 
1
              1               0               0               0 
              0               1               0               0 
              0               0               1              -1 
2  13 1 1 1 2 1 3 1 49 1 50 1 51 1 0
2  51 -1 50 -1 49 -1 3 -1 2 -1 1 -1 13 -1 0
1
              1               0               0               0 
              0               1               0               0 
              0               0               1              18 
2  54 -1 51 -1 50 -1 49 -1 3 -1 2 -1 1 -1 13 -1 0
1
              1               0               0               0 
              0               1               0               0 
              0               0               1 3.94430452610506e-31 
1
              1               0               0               0 
              0               1               0               0 
              0               0               1               1 
1
              1               0               0               0 
              0               1               0               0 
              0               0               1              -1 
2  13 1 1 1 2 1 3 1 56 1 57 1 58 1 0
2  58 -1 57 -1 56 -1 3 -1 2 -1 1 -1 13 -1 0
1
              1               0               0               0 
              0               1               0               0 
              0               0               1              18 
2  61 -1 58 -1 57 -1 56 -1 3 -1 2 -1 1 -1 13 -1 0
1
              1               0               0               0 
              0               1               0               0 
              0               0               1              -0 
1
              1               0               0               0 
              0               1               0               0 
              0               0               1               1 
1
              1               0               0               0 
              0               1               0               0 
              0               0               1              -1 
2  12 1 13 1 1 1 2 1 3 1 63 1 64 1 65 1 0
2  65 -1 64 -1 63 -1 3 -1 2 -1 1 -1 13 -1 12 -1 0
1
              1               0               0               0 
              0               1               0               0 
              0               0               1              18 
2  68 -1 65 -1 64 -1 63 -1 3 -1 2 -1 1 -1 13 -1 12 -1 0
1
              1               0               0               0 
              0               1               0               0 
              0               0               1              -0 
1
              1               0               0               0 
              0               1               0               0 
              0               0               1               1 
1
              1               0               0               0 
              0               1               0               0 
              0               0               1              -1 
2  12 1 13 1 1 1 2 1 3 1 70 1 71 1 72 1 0
2  72 -1 71 -1 70 -1 3 -1 2 -1 1 -1 13 -1 12 -1 0
1
              1               0               0               0 
              0               1               0               0 
              0               0               1              18 
2  75 -1 72 -1 71 -1 70 -1 3 -1 2 -1 1 -1 13 -1 12 -1 0
1
              1               0               0               0 
              0               1               0               0 
              0               0               1              -0 
1
              1               0               0               0 
              0               1               0               0 
              0               0               1               1 
1
              1               0               0               0 
              0               1               0               0 
              0               0               1              -1 
2  13 1 1 1 2 1 3 1 77 1 78 1 79 1 0
2  79 -1 78 -1 77 -1 3 -1 2 -1 1 -1 13 -1 0
1
              1               0               0               0 
              0               1               0               0 
              0               0               1               8 
2  82 -1 79 -1 78 -1 77 -1 3 -1 2 -1 1 -1 13 -1 0
1
              1               0               0               0 
              0               1               0               0 
              0               0               1 3.94430452610506e-31 
1
              1               0               0               0 
              0               1               0               0 
              0               0               1               1 
1
              1               0               0               0 
              0               1               0               0 
              0               0               1              -1 
2  13 1 1 1 2 1 3 1 84 1 85 1 86 1 0
2  86 -1 85 -1 84 -1 3 -1 2 -1 1 -1 13 -1 0
1
              1               0               0               0 
              0               1               0               0 
              0               0               1              18 
2  89 -1 86 -1 85 -1 84 -1 3 -1 2 -1 1 -1 13 -1 0
1
              1               0               0               0 
              0               1               0               0 
              0               0               1              -0 
1
              1               0               0               0 
              0               1               0               0 
              0               0               1               1 
1
              1               0               0               0 
              0               1               0               0 
              0               0               1              -1 
2  12 1 13 1 1 1 2 1 3 1 91 1 92 1 93 1 0
2  93 -1 92 -1 91 -1 3 -1 2 -1 1 -1 13 -1 12 -1 0
1
              1               0               0               0 
              0               1               0               0 
              0               0               1              18 
2  96 -1 93 -1 92 -1 91 -1 3 -1 2 -1 1 -1 13 -1 12 -1 0
1
              1               0               0               0 
              0               1               0               0 
              0               0               1              -0 
1
              1               0               0               0 
              0               1               0               0 
              0               0               1               1 
1
              1               0               0               0 
              0               1               0               0 
              0               0               1              -1 
2  12 1 13 1 1 1 2 1 3 1 98 1 99 1 100 1 0
2  100 -1 99 -1 98 -1 3 -1 2 -1 1 -1 13 -1 12 -1 0
1
              1               0               0               0 
              0               1               0               0 
              0               0               1              18 
2  103 -1 100 -1 99 -1 98 -1 3 -1 2 -1 1 -1 13 -1 12 -1 0
1
              1               0               0               0 
              0               1               0               0 
              0               0               1              -0 
1
              1               0               0               0 
              0               1               0               0 
              0               0               1               1 
1
              1               0               0               0 
              0               1               0               0 
              0               0               1              -1 
2  12 1 13 1 1 1 2 1 3 1 105 1 106 1 107 1 0
2  107 -1 106 -1 105 -1 3 -1 2 -1 1 -1 13 -1 12 -1 0
1
              1               0               0               0 
              0               1               0               0 
              0               0               1              18 
2  110 -1 107 -1 106 -1 105 -1 3 -1 2 -1 1 -1 13 -1 12 -1 0
1
              1               0               0               0 
              0               1               0               0 
              0               0               1              -0 
1
              1               0               0               0 
              0               1               0               0 
              0               0               1               1 
1
              1               0               0               0 
              0               1               0               0 
              0               0               1              -1 
2  12 1 13 1 1 1 2 1 3 1 112 1 113 1 114 1 0
2  114 -1 113 -1 112 -1 3 -1 2 -1 1 -1 13 -1 12 -1 0
1
              1               0               0               0 
              0               1               0               0 
              0               0               1              18 
2  117 -1 114 -1 113 -1 112 -1 3 -1 2 -1 1 -1 13 -1 12 -1 0
1
              1               0               0               0 
              0               1               0               0 
              0               0               1              -0 
1
              1               0               0               0 
              0               1               0               0 
              0               0               1               1 
1
              1               0               0               0 
              0               1               0               0 
              0               0               1              -1 
2  12 1 13 1 1 1 2 1 3 1 119 1 120 1 121 1 0
2  121 -1 120 -1 119 -1 3 -1 2 -1 1 -1 13 -1 12 -1 0
1
              1               0               0               0 
              0               1               0               0 
              0               0               1              18 
2  124 -1 121 -1 120 -1 119 -1 3 -1 2 -1 1 -1 13 -1 12 -1 0
1
              1               0               0               0 
              0               1               0               0 
              0               0               1              -0 
1
              1               0               0               0 
              0               1               0               0 
              0               0               1               1 
1
              1               0               0               0 
              0               1               0               0 
              0               0               1              -1 
2  12 1 13 1 1 1 2 1 3 1 126 1 127 1 128 1 0
2  128 -1 127 -1 126 -1 3 -1 2 -1 1 -1 13 -1 12 -1 0
1
              1               0               0               0 
              0               1               0               0 
              0               0               1              18 
2  131 -1 128 -1 127 -1 126 -1 3 -1 2 -1 1 -1 13 -1 12 -1 0
1
              1               0               0               0 
              0               1               0               0 
              0               0               1              -0 
1
              1               0               0               0 
              0               1               0               0 
              0               0               1               1 
1
              1               0               0               0 
              0               1               0               0 
              0               0               1              -1 
2  12 1 13 1 1 1 2 1 3 1 133 1 134 1 135 1 0
2  135 -1 134 -1 133 -1 3 -1 2 -1 1 -1 13 -1 12 -1 0
1
              1               0               0               0 
              0               1               0               0 
              0               0               1              18 
2  138 -1 135 -1 134 -1 133 -1 3 -1 2 -1 1 -1 13 -1 12 -1 0
1
              1               0               0               0 
              0               1               0               0 
              0               0               1              -0 
1
              1               0               0               0 
              0               1               0               0 
              0               0               1               1 
1
              1               0               0               0 
              0               1               0               0 
              0               0               1              -1 
2  13 1 1 1 2 1 3 1 140 1 141 1 142 1 0
2  142 -1 141 -1 140 -1 3 -1 2 -1 1 -1 13 -1 0
1
              1               0               0               0 
              0               1               0               0 
              0               0               1               8 
2  145 -1 142 -1 141 -1 140 -1 3 -1 2 -1 1 -1 13 -1 0
1
              1               0               0               0 
              0               1               0               0 
              0               0               1 3.94430452610506e-31 
1
              1               0               0               0 
              0               1               0               0 
              0               0               1               1 
1
              1               0               0               0 
              0               1               0               0 
              0               0               1              -1 
2  13 1 1 1 2 1 3 1 147 1 148 1 149 1 0
2  149 -1 148 -1 147 -1 3 -1 2 -1 1 -1 13 -1 0
1
              1               0               0               0 
              0               1               0               0 
              0               0               1              18 
2  152 -1 149 -1 148 -1 147 -1 3 -1 2 -1 1 -1 13 -1 0
1
              1               0               0               0 
              0               1               0               0 
              0               0               1 3.94430452610506e-31 
1
              1               0               0               0 
              0               1               0               0 
              0               0               1               1 
1
              1               0               0               0 
              0               1               0               0 
              0               0               1              -1 
2  13 1 1 1 2 1 3 1 154 1 155 1 156 1 0
2  156 -1 155 -1 154 -1 3 -1 2 -1 1 -1 13 -1 0
1
              1               0               0               0 
              0               1               0               0 
              0               0               1              18 
2  159 -1 156 -1 155 -1 154 -1 3 -1 2 -1 1 -1 13 -1 0
1
              1               0               0               0 
              0               1               0               0 
              0               0               1              -0 
1
              1               0               0               0 
              0               1               0               0 
              0               0               1               1 
1
              1               0               0               0 
              0               1               0               0 
              0               0               1              -1 
2  13 1 1 1 2 1 3 1 161 1 162 1 163 1 0
2  163 -1 162 -1 161 -1 3 -1 2 -1 1 -1 13 -1 0
1
              1               0               0               0 
              0               1               0               0 
              0               0               1               8 
2  166 -1 163 -1 162 -1 161 -1 3 -1 2 -1 1 -1 13 -1 0
1
              1               0               0               0 
              0               1               0               0 
              0               0               1              -0 
1
              1               0               0               0 
              0               1               0               0 
              0               0               1               1 
1
              1               0               0               0 
              0               1               0               0 
              0               0               1              -1 
2  13 1 1 1 2 1 3 1 168 1 169 1 170 1 0
2  170 -1 169 -1 168 -1 3 -1 2 -1 1 -1 13 -1 0
1
              1               0               0               0 
              0               1               0               0 
              0               0               1              18 
2  173 -1 170 -1 169 -1 168 -1 3 -1 2 -1 1 -1 13 -1 0
1
              1               0               0               0 
              0               1               0               0 
              0               0               1              -0 
1
              1               0               0               0 
              0               1               0               0 
              0               0               1               1 
1
              1               0               0               0 
              0               1               0               0 
              0               0               1              -1 
2  13 1 1 1 2 1 3 1 175 1 176 1 177 1 0
2  177 -1 176 -1 175 -1 3 -1 2 -1 1 -1 13 -1 0
1
              1               0               0               0 
              0               1               0               0 
              0               0               1               8 
2  180 -1 177 -1 176 -1 175 -1 3 -1 2 -1 1 -1 13 -1 0
1
              1               0               0               0 
              0               1               0               0 
              0               0               1              -0 
1
              1               0               0               0 
              0               1               0               0 
              0               0               1               1 
1
              1               0               0               0 
              0               1               0               0 
              0               0               1              -1 
2  13 1 1 1 2 1 3 1 182 1 183 1 184 1 0
2  184 -1 183 -1 182 -1 3 -1 2 -1 1 -1 13 -1 0
1
              1               0               0               0 
              0               1               0               0 
              0               0               1              18 
2  187 -1 184 -1 183 -1 182 -1 3 -1 2 -1 1 -1 13 -1 0
1
              1               0               0               0 
              0               1               0               0 
              0               0               1              -0 
1
              1               0               0               0 
              0               1               0               0 
              0               0               1               1 
1
              1               0               0               0 
              0               1               0               0 
              0               0               1              -1 
2  12 1 13 1 1 1 2 1 3 1 189 1 190 1 191 1 0
2  191 -1 190 -1 189 -1 3 -1 2 -1 1 -1 13 -1 12 -1 0
1
              1               0               0               0 
              0               1               0               0 
              0               0               1              18 
2  194 -1 191 -1 190 -1 189 -1 3 -1 2 -1 1 -1 13 -1 12 -1 0
1
              1               0               0               0 
              0               1               0               0 
              0               0               1 3.94430452610506e-31 
1
              1               0               0               0 
              0               1               0               0 
              0               0               1               1 
1
              1               0               0               0 
              0               1               0               0 
              0               0               1              -1 
2  13 1 1 1 2 1 3 1 196 1 197 1 198 1 0
2  198 -1 197 -1 196 -1 3 -1 2 -1 1 -1 13 -1 0
1
              1               0               0               0 
              0               1               0               0 
              0               0               1              18 
2  201 -1 198 -1 197 -1 196 -1 3 -1 2 -1 1 -1 13 -1 0
1
              1               0               0               0 
              0               1               0               0 
              0               0               1              -0 
1
              1               0               0               0 
              0               1               0               0 
              0               0               1               1 
1
              1               0               0               0 
              0               1               0               0 
              0               0               1              -1 
2  13 1 1 1 2 1 3 1 203 1 204 1 205 1 0
2  205 -1 204 -1 203 -1 3 -1 2 -1 1 -1 13 -1 0
1
              1               0               0               0 
              0               1               0               0 
              0               0               1               8 
2  208 -1 205 -1 204 -1 203 -1 3 -1 2 -1 1 -1 13 -1 0
1
              1               0               0               0 
              0               1               0               0 
              0               0               1              -0 
1
              1               0               0               0 
              0               1               0               0 
              0               0               1               1 
1
              1               0               0               0 
              0               1               0               0 
              0               0               1              -1 
2  12 1 13 1 1 1 2 1 3 1 210 1 211 1 212 1 0
2  212 -1 211 -1 210 -1 3 -1 2 -1 1 -1 13 -1 12 -1 0
1
              1               0               0               0 
              0               1               0               0 
              0               0               1              18 
2  215 -1 212 -1 211 -1 210 -1 3 -1 2 -1 1 -1 13 -1 12 -1 0
1
              1               0               0               0 
              0               1               0               0 
              0               0               1              -0 
1
              1               0               0               0 
              0               1               0               0 
              0               0               1               1 
1
              1               0               0               0 
              0               1               0               0 
              0               0               1              -1 
2  13 1 1 1 2 1 3 1 217 1 218 1 219 1 0
2  219 -1 218 -1 217 -1 3 -1 2 -1 1 -1 13 -1 0
1
              1               0               0               0 
              0               1               0               0 
              0               0               1               8 
2  222 -1 219 -1 218 -1 217 -1 3 -1 2 -1 1 -1 13 -1 0
1
              1               0               0               0 
              0               1               0               0 
              0               0               1 3.94430452610506e-31 
1
              1               0               0               0 
              0               1               0               0 
              0               0               1               1 
1
              1               0               0               0 
              0               1               0               0 
              0               0               1              -1 
2  13 1 1 1 2 1 3 1 224 1 225 1 226 1 0
2  226 -1 225 -1 224 -1 3 -1 2 -1 1 -1 13 -1 0
1
              1               0               0               0 
              0               1               0               0 
              0               0               1              18 
2  229 -1 226 -1 225 -1 224 -1 3 -1 2 -1 1 -1 13 -1 0
1
              1               0               0               0 
              0               1               0               0 
              0               0               1              -0 
1
              1               0               0               0 
              0               1               0               0 
              0               0               1               1 
1
              1               0               0               0 
              0               1               0               0 
              0               0               1              -1 
2  12 1 13 1 1 1 2 1 3 1 231 1 232 1 233 1 0
2  233 -1 232 -1 231 -1 3 -1 2 -1 1 -1 13 -1 12 -1 0
1
              1               0               0               0 
              0               1               0               0 
              0               0               1              18 
2  236 -1 233 -1 232 -1 231 -1 3 -1 2 -1 1 -1 13 -1 12 -1 0
1
              1               0               0               0 
              0               1               0               0 
              0               0               1              -0 
1
              1               0               0               0 
              0               1               0               0 
              0               0               1               1 
1
              1               0               0               0 
              0               1               0               0 
              0               0               1              -1 
2  13 1 1 1 2 1 3 1 238 1 239 1 240 1 0
2  240 -1 239 -1 238 -1 3 -1 2 -1 1 -1 13 -1 0
1
              1               0               0               0 
              0               1               0               0 
              0               0               1              18 
2  243 -1 240 -1 239 -1 238 -1 3 -1 2 -1 1 -1 13 -1 0
1
              1               0               0               0 
              0               1               0               0 
              0               0               1              -0 
1
              1               0               0               0 
              0               1               0               0 
              0               0               1               1 
1
              1               0               0               0 
              0               1               0               0 
              0               0               1              -1 
2  13 1 1 1 2 1 3 1 245 1 246 1 247 1 0
2  247 -1 246 -1 245 -1 3 -1 2 -1 1 -1 13 -1 0
1
              1               0               0               0 
              0               1               0               0 
              0               0               1               8 
2  250 -1 247 -1 246 -1 245 -1 3 -1 2 -1 1 -1 13 -1 0
1
              1               0               0               0 
              0               1               0               0 
              0               0               1              -0 
1
              1               0               0               0 
              0               1               0               0 
              0               0               1               1 
1
              1               0               0               0 
              0               1               0               0 
              0               0               1              -1 
2  12 1 13 1 1 1 2 1 3 1 252 1 253 1 254 1 0
2  254 -1 253 -1 252 -1 3 -1 2 -1 1 -1 13 -1 12 -1 0
1
              1               0               0               0 
              0               1               0               0 
              0               0               1              18 
2  257 -1 254 -1 253 -1 252 -1 3 -1 2 -1 1 -1 13 -1 12 -1 0
2  12 1 13 1 1 1 2 1 3 1 14 1 15 1 16 1 19 1 0
2  12 1 13 1 1 1 2 1 3 1 21 1 22 1 23 1 26 1 0
2  12 1 13 1 1 1 2 1 3 1 28 1 29 1 30 1 33 1 0
2  12 1 13 1 1 1 2 1 3 1 35 1 36 1 37 1 40 1 0
2  13 1 1 1 2 1 3 1 49 1 50 1 51 1 54 1 0
2  13 1 1 1 2 1 3 1 56 1 57 1 58 1 61 1 0
2  12 1 13 1 1 1 2 1 3 1 63 1 64 1 65 1 68 1 0
2  12 1 13 1 1 1 2 1 3 1 70 1 71 1 72 1 75 1 0
2  13 1 1 1 2 1 3 1 84 1 85 1 86 1 89 1 0
2  12 1 13 1 1 1 2 1 3 1 91 1 92 1 93 1 96 1 0
2  12 1 13 1 1 1 2 1 3 1 98 1 99 1 100 1 103 1 0
2  12 1 13 1 1 1 2 1 3 1 105 1 106 1 107 1 110 1 0
2  12 1 13 1 1 1 2 1 3 1 112 1 113 1 114 1 117 1 0
2  12 1 13 1 1 1 2 1 3 1 119 1 120 1 121 1 124 1 0
2  12 1 13 1 1 1 2 1 3 1 126 1 127 1 128 1 131 1 0
2  12 1 13 1 1 1 2 1 3 1 133 1 134 1 135 1 138 1 0
2  13 1 1 1 2 1 3 1 147 1 148 1 149 1 152 1 0
2  13 1 1 1 2 1 3 1 154 1 155 1 156 1 159 1 0
2  13 1 1 1 2 1 3 1 168 1 169 1 170 1 173 1 0
2  13 1 1 1 2 1 3 1 182 1 183 1 184 1 187 1 0
2  12 1 13 1 1 1 2 1 3 1 189 1 190 1 191 1 194 1 0
2  13 1 1 1 2 1 3 1 196 1 197 1 198 1 201 1 0
2  12 1 13 1 1 1 2 1 3 1 210 1 211 1 212 1 215 1 0
2  13 1 1 1 2 1 3 1 224 1 225 1 226 1 229 1 0
2  12 1 13 1 1 1 2 1 3 1 231 1 232 1 233 1 236 1 0
2  13 1 1 1 2 1 3 1 238 1 239 1 240 1 243 1 0
2  12 1 13 1 1 1 2 1 3 1 252 1 253 1 254 1 257 1 0
2  13 1 1 1 2 1 3 1 42 1 43 1 44 1 47 1 0
2  13 1 1 1 2 1 3 1 77 1 78 1 79 1 82 1 0
2  13 1 1 1 2 1 3 1 140 1 141 1 142 1 145 1 0
2  13 1 1 1 2 1 3 1 161 1 162 1 163 1 166 1 0
2  13 1 1 1 2 1 3 1 175 1 176 1 177 1 180 1 0
2  13 1 1 1 2 1 3 1 203 1 204 1 205 1 208 1 0
2  13 1 1 1 2 1 3 1 217 1 218 1 219 1 222 1 0
2  13 1 1 1 2 1 3 1 245 1 246 1 247 1 250 1 0
Curve2ds 164
1 0 -1.7763568394002505e-15 0 -1 
1 0 -1.7763568394002505e-15 0 -1 
1 1272.0999999999999 -1.7763568394002505e-15 0 -1 
1 0 -1.7763568394002505e-15 0 -1 
1 0 0 1 0 
1 -286 -636.05000000000007 0 1 
1 0 -18.000000000000004 1 0 
1 -286 -636.05000000000007 0 1 
1 572 -1.7763568394002505e-15 0 -1 
1 0 -1.7763568394002505e-15 0 -1 
1 568 0 1 0 
1 282 -636.05000000000007 1 0 
1 568 -18.000000000000004 1 0 
1 282 -636.05000000000007 1 0 
1 1272.0999999999999 -1.7763568394002505e-15 0 -1 
1 572 -1.7763568394002505e-15 0 -1 
1 568 0 1 0 
1 282 636.04999999999984 1 0 
1 568 -18.000000000000004 1 0 
1 282 636.04999999999984 1 0 
1 0 0 1 0 
1 286 -636.05000000000007 0 1 
1 0 0 1 0 
1 0 -17.999999999999996 1 0 
1 0 0 1 0 
1 0 -17.999999999999996 1 0 
1 0 0 1 0 
1 0 -17.999999999999996 1 0 
1 0 0 1 0 
1 0 -17.999999999999996 1 0 
1 0 0 1 0 
1 0 -7.9999999999999964 1 0 
1 0 0 1 0 
1 0 -17.999999999999996 1 0 
1 0 0 1 0 
1 0 -17.999999999999996 1 0 
1 0 0 1 0 
1 0 -17.999999999999996 1 0 
1 0 0 1 0 
1 0 -17.999999999999996 1 0 
1 0 0 1 0 
1 0 -7.9999999999999964 1 0 
1 0 0 1 0 
1 0 -17.999999999999996 1 0 
1 0 0 1 0 
1 0 -17.999999999999996 1 0 
1 0 0 1 0 
1 0 -17.999999999999996 1 0 
1 0 0 1 0 
1 0 -17.999999999999996 1 0 
1 0 0 1 0 
1 0 -17.999999999999996 1 0 
1 0 0 1 0 
1 0 -17.999999999999996 1 0 
1 0 0 1 0 
1 0 -17.999999999999996 1 0 
1 0 0 1 0 
1 0 -17.999999999999996 1 0 
1 0 0 1 0 
1 0 -7.9999999999999964 1 0 
1 0 0 1 0 
1 0 -17.999999999999996 1 0 
1 0 0 1 0 
1 0 -17.999999999999996 1 0 
1 0 0 1 0 
1 0 -7.9999999999999964 1 0 
1 0 0 1 0 
1 0 -17.999999999999996 1 0 
1 0 0 1 0 
1 0 -7.9999999999999964 1 0 
1 0 0 1 0 
1 0 -17.999999999999996 1 0 
1 0 0 1 0 
1 0 -17.999999999999996 1 0 
1 0 0 1 0 
1 0 -17.999999999999996 1 0 
1 0 0 1 0 
1 0 -7.9999999999999964 1 0 
1 0 0 1 0 
1 0 -17.999999999999996 1 0 
1 0 0 1 0 
1 0 -7.9999999999999964 1 0 
1 0 0 1 0 
1 0 -17.999999999999996 1 0 
1 0 0 1 0 
1 0 -17.999999999999996 1 0 
1 0 0 1 0 
1 0 -17.999999999999996 1 0 
1 0 0 1 0 
1 0 -7.9999999999999964 1 0 
1 0 0 1 0 
1 0 -17.999999999999996 1 0 
1 0 -18.000000000000004 1 0 
1 286 -636.05000000000007 0 1 
1 0 0 0 -1 
1 6.2831853071795862 0 0 -1 
1 0 0 0 -1 
1 6.2831853071795862 0 0 -1 
1 0 0 0 -1 
1 6.2831853071795862 0 0 -1 
1 0 0 0 -1 
1 6.2831853071795862 0 0 -1 
1 0 0 0 -1 
1 6.2831853071795862 0 0 -1 
1 0 0 0 -1 
1 6.2831853071795862 0 0 -1 
1 0 0 0 -1 
1 6.2831853071795862 0 0 -1 
1 0 0 0 -1 
1 6.2831853071795862 0 0 -1 
1 0 0 0 -1 
1 6.2831853071795862 0 0 -1 
1 0 0 0 -1 
1 6.2831853071795862 0 0 -1 
1 0 0 0 -1 
1 6.2831853071795862 0 0 -1 
1 0 0 0 -1 
1 6.2831853071795862 0 0 -1 
1 0 0 0 -1 
1 6.2831853071795862 0 0 -1 
1 0 0 0 -1 
1 6.2831853071795862 0 0 -1 
1 0 0 0 -1 
1 6.2831853071795862 0 0 -1 
1 0 0 0 -1 
1 6.2831853071795862 0 0 -1 
1 0 0 0 -1 
1 6.2831853071795862 0 0 -1 
1 0 0 0 -1 
1 6.2831853071795862 0 0 -1 
1 0 0 0 -1 
1 6.2831853071795862 0 0 -1 
1 0 0 0 -1 
1 6.2831853071795862 0 0 -1 
1 0 0 0 -1 
1 6.2831853071795862 0 0 -1 
1 0 0 0 -1 
1 6.2831853071795862 0 0 -1 
1 0 0 0 -1 
1 6.2831853071795862 0 0 -1 
1 0 0 0 -1 
1 6.2831853071795862 0 0 -1 
1 0 0 0 -1 
1 6.2831853071795862 0 0 -1 
1 0 0 0 -1 
1 6.2831853071795862 0 0 -1 
1 0 0 0 -1 
1 6.2831853071795862 0 0 -1 
1 0 0 0 -1 
1 6.2831853071795862 0 0 -1 
1 0 0 0 -1 
1 6.2831853071795862 0 0 -1 
1 0 0 0 -1 
1 6.2831853071795862 0 0 -1 
1 0 0 0 -1 
1 6.2831853071795862 0 0 -1 
1 0 0 0 -1 
1 6.2831853071795862 0 0 -1 
1 0 0 0 -1 
1 6.2831853071795862 0 0 -1 
1 0 0 0 -1 
1 6.2831853071795862 0 0 -1 
1 0 0 0 -1 
1 6.2831853071795862 0 0 -1 
Curves 82
1 0 0 -5.3290705182007514e-15 0 0 1 
1 0 1272.0999999999999 -5.3290705182007514e-15 0 0 1 
1 14 18 36 -0 1 0 
1 14 18 36 -0 1 0 
1 572 0 -5.3290705182007514e-15 0 0 1 
1 582 18 36 1 0 -0 
1 582 18 36 1 0 -0 
1 572 1272.0999999999999 -5.3290705182007514e-15 0 0 1 
1 582 1290.0999999999999 36 1 0 -0 
1 582 1290.0999999999999 36 1 0 -0 
1 586 18 36 -0 1 0 
2 220 180 18.000000000000004 0 -0 1 1 0 0 -0 1 0 2.75
2 220 340 18.000000000000004 0 -0 1 1 0 0 -0 1 0 2.75
2 227.01351693160834 409.76800884315793 18.000000000000004 0 -0 1 1 0 0 -0 1 0 2.75
2 269.76800884315793 367.01351693160836 18.000000000000004 0 -0 1 1 0 0 -0 1 0 2.75
2 80 640 18.000000000000007 0 -0 1 1 0 0 -0 1 0 3
2 97.5 657.5 18.000000000000007 0 -0 1 1 0 0 -0 1 0 2.25
2 150 710 18.000000000000004 0 -0 1 1 0 0 -0 1 0 58
2 227.01351693160836 470.23199115684213 18.000000000000004 0 -0 1 1 0 0 -0 1 0 2.75
2 269.76800884315793 512.98648306839164 18.000000000000004 0 -0 1 1 0 0 -0 1 0 2.75
2 220 640 18.000000000000007 0 -0 1 1 0 0 -0 1 0 3
2 202.5 657.5 18.000000000000007 0 -0 1 1 0 0 -0 1 0 2.25
2 380 180 18.000000000000004 0 -0 1 1 0 0 -0 1 0 2.75
2 330.23199115684213 367.01351693160836 18.000000000000004 0 -0 1 1 0 0 -0 1 0 2.75
2 300 440 18.000000000000004 0 -0 1 1 0 0 -0 1 0 71.75
2 380 340 18.000000000000004 0 -0 1 1 0 0 -0 1 0 2.75
2 372.98648306839164 409.76800884315793 18.000000000000004 0 -0 1 1 0 0 -0 1 0 2.75
2 330.23199115684207 512.98648306839164 18.000000000000004 0 -0 1 1 0 0 -0 1 0 2.75
2 372.98648306839164 470.23199115684207 18.000000000000004 0 -0 1 1 0 0 -0 1 0 2.75
2 380 640 18.000000000000007 0 -0 1 1 0 0 -0 1 0 3
2 397.5 657.5 18.000000000000007 0 -0 1 1 0 0 -0 1 0 2.25
2 450 710 18.000000000000004 0 -0 1 1 0 0 -0 1 0 58
2 520 640 18.000000000000007 0 -0 1 1 0 0 -0 1 0 3
2 502.5 657.5 18.000000000000007 0 -0 1 1 0 0 -0 1 0 2.25
2 80 780 18.000000000000007 0 -0 1 1 0 0 -0 1 0 3
2 97.5 762.5 18.000000000000007 0 -0 1 1 0 0 -0 1 0 2.25
2 180 850 18.000000000000004 0 -0 1 1 0 0 -0 1 0 2.75
2 202.5 762.5 18.000000000000007 0 -0 1 1 0 0 -0 1 0 2.25
2 220 780 18.000000000000007 0 -0 1 1 0 0 -0 1 0 3
2 180 1270 18.000000000000004 0 -0 1 1 0 0 -0 1 0 2.75
2 380 780 18.000000000000007 0 -0 1 1 0 0 -0 1 0 3
2 397.5 762.5 18.000000000000007 0 -0 1 1 0 0 -0 1 0 2.25
2 420 850 18.000000000000004 0 -0 1 1 0 0 -0 1 0 2.75
2 502.5 762.5 18.000000000000007 0 -0 1 1 0 0 -0 1 0 2.25
2 520 780 18.000000000000007 0 -0 1 1 0 0 -0 1 0 3
2 420 1270 18.000000000000004 0 -0 1 1 0 0 -0 1 0 2.75
1 586 18 36 -0 1 0 
1 208.75 162 -3.92278802034222e-15 0 0 1 
1 208.75 322 -3.92278802034222e-15 0 0 1 
1 215.76351693160834 391.76800884315793 -3.92278802034222e-15 0 0 1 
1 258.51800884315793 349.01351693160836 -3.92278802034222e-15 0 0 1 
1 69 622 -3.7007434154171886e-16 0 0 1 
1 85.75 639.5 -2.7385501274087196e-15 0 0 1 
1 194 692 -3.92278802034222e-15 0 0 1 
1 215.76351693160836 452.23199115684218 -5.8841820305133297e-15 0 0 1 
1 258.51800884315793 494.98648306839164 -3.92278802034222e-15 0 0 1 
1 209 622 -3.7007434154171886e-16 0 0 1 
1 190.75 639.5 -2.7385501274087196e-15 0 0 1 
1 368.75 162 -3.92278802034222e-15 0 0 1 
1 318.98199115684213 349.01351693160836 -3.92278802034222e-15 0 0 1 
1 357.75 422 -3.5527136788005009e-15 0 0 1 
1 368.75 322 -3.92278802034222e-15 0 0 1 
1 361.73648306839164 391.76800884315793 -3.92278802034222e-15 0 0 1 
1 318.98199115684207 494.98648306839164 -3.92278802034222e-15 0 0 1 
1 361.73648306839164 452.23199115684207 -3.92278802034222e-15 0 0 1 
1 369 622 -1.1842378929335002e-15 0 0 1 
1 385.75 639.5 -2.7385501274087196e-15 0 0 1 
1 494 692 -3.92278802034222e-15 0 0 1 
1 509 622 -1.1842378929335002e-15 0 0 1 
1 490.75 639.5 -2.7385501274087196e-15 0 0 1 
1 69 762 -3.7007434154171886e-16 0 0 1 
1 85.75 744.5 -2.7385501274087196e-15 0 0 1 
1 168.75 832 -3.92278802034222e-15 0 0 1 
1 190.75 744.5 -2.7385501274087196e-15 0 0 1 
1 209 762 -3.7007434154171886e-16 0 0 1 
1 168.75 1252 -3.92278802034222e-15 0 0 1 
1 369 762 -1.1842378929335002e-15 0 0 1 
1 385.75 744.5 -2.7385501274087196e-15 0 0 1 
1 408.75 832 -3.92278802034222e-15 0 0 1 
1 490.75 744.5 -2.7385501274087196e-15 0 0 1 
1 509 762 -1.1842378929335002e-15 0 0 1 
1 408.75 1252 -3.92278802034222e-15 0 0 1 
Polygon3D 0
PolygonOnTriangulations 0
Surfaces 49
1 0 0 -7.1054273576010019e-15 -1 0 0 0 1 0 0 0 -1 
1 0 0 -7.1054273576010019e-15 0 1 0 1 0 0 0 0 -1 
1 0 1272.0999999999999 -7.1054273576010019e-15 0 1 0 1 0 0 0 0 -1 
1 300 654.05000000000007 36.000000000000007 0 0 1 1 0 -0 -0 1 0 
1 300 654.05000000000007 36.000000000000007 0 0 1 1 0 -0 -0 1 0 
1 572 0 -7.1054273576010019e-15 -1 0 0 0 1 0 0 0 -1 
2 206 162 0 -0 -0 -1 1 0 0 0 1 0 2.75
2 206 322 0 -0 -0 -1 1 0 0 0 1 0 2.75
2 213.01351693160834 391.76800884315793 0 -0 -0 -1 1 0 0 0 1 0 2.75
2 255.76800884315793 349.01351693160836 0 -0 -0 -1 1 0 0 0 1 0 2.75
2 66 622 3.5527136788005009e-15 -0 -0 -1 1 0 0 0 1 0 3
2 83.5 639.5 3.5527136788005009e-15 -0 -0 -1 1 0 0 0 1 0 2.25
2 136 692 0 -0 -0 -1 1 0 0 0 1 0 58
2 213.01351693160836 452.23199115684213 0 -0 -0 -1 1 0 0 0 1 0 2.75
2 255.76800884315793 494.98648306839164 0 -0 -0 -1 1 0 0 0 1 0 2.75
2 206 622 3.5527136788005009e-15 -0 -0 -1 1 0 0 0 1 0 3
2 188.5 639.5 3.5527136788005009e-15 -0 -0 -1 1 0 0 0 1 0 2.25
2 366 162 0 -0 -0 -1 1 0 0 0 1 0 2.75
2 316.23199115684213 349.01351693160836 0 -0 -0 -1 1 0 0 0 1 0 2.75
2 286 422 0 -0 -0 -1 1 0 0 0 1 0 71.75
2 366 322 0 -0 -0 -1 1 0 0 0 1 0 2.75
2 358.98648306839164 391.76800884315793 0 -0 -0 -1 1 0 0 0 1 0 2.75
2 316.23199115684207 494.98648306839164 0 -0 -0 -1 1 0 0 0 1 0 2.75
2 358.98648306839164 452.23199115684207 0 -0 -0 -1 1 0 0 0 1 0 2.75
2 366 622 3.5527136788005009e-15 -0 -0 -1 1 0 0 0 1 0 3
2 383.5 639.5 3.5527136788005009e-15 -0 -0 -1 1 0 0 0 1 0 2.25
2 436 692 0 -0 -0 -1 1 0 0 0 1 0 58
2 506 622 3.5527136788005009e-15 -0 -0 -1 1 0 0 0 1 0 3
2 488.5 639.5 3.5527136788005009e-15 -0 -0 -1 1 0 0 0 1 0 2.25
2 66 762 3.5527136788005009e-15 -0 -0 -1 1 0 0 0 1 0 3
2 83.5 744.5 3.5527136788005009e-15 -0 -0 -1 1 0 0 0 1 0 2.25
2 166 832 0 -0 -0 -1 1 0 0 0 1 0 2.75
2 188.5 744.5 3.5527136788005009e-15 -0 -0 -1 1 0 0 0 1 0 2.25
2 206 762 3.5527136788005009e-15 -0 -0 -1 1 0 0 0 1 0 3
2 166 1252 0 -0 -0 -1 1 0 0 0 1 0 2.75
2 366 762 3.5527136788005009e-15 -0 -0 -1 1 0 0 0 1 0 3
2 383.5 744.5 3.5527136788005009e-15 -0 -0 -1 1 0 0 0 1 0 2.25
2 406 832 0 -0 -0 -1 1 0 0 0 1 0 2.75
2 488.5 744.5 3.5527136788005009e-15 -0 -0 -1 1 0 0 0 1 0 2.25
2 506 762 3.5527136788005009e-15 -0 -0 -1 1 0 0 0 1 0 3
2 406 1252 0 -0 -0 -1 1 0 0 0 1 0 2.75
1 66.000000000000014 622 0 0 0 1 1 0 -0 -0 1 0 
1 206.00000000000003 622 0 0 0 1 1 0 -0 -0 1 0 
1 366 622 0 0 0 1 1 0 -0 -0 1 0 
1 506 622 0 0 0 1 1 0 -0 -0 1 0 
1 66.000000000000014 762 0 0 0 1 1 0 -0 -0 1 0 
1 206.00000000000003 762 0 0 0 1 1 0 -0 -0 1 0 
1 366 762 0 0 0 1 1 0 -0 -0 1 0 
1 506 762 0 0 0 1 1 0 -0 -0 1 0 
Triangulations 0

TShapes 392
Ve
1.00000003552714e-07
0 0 -5.32907051820075e-15
0 0

0101101
*
Ve
1.00000003552714e-07
0 0 18
0 0

0101101
*
Ed
 1.00000003552714e-07 1 1 0
1  1 0 0 18
2  1 1 0 0 18
2  2 2 0 0 18
0

0101000
+392 0 -391 0 *
Ve
1.00000012776357e-07
0 1272.1 -5.32907051820075e-15
0 0

0101101
*
Ve
1.00000012776357e-07
0 1272.1 18
0 0

0101101
*
Ed
 1.00000012776357e-07 1 1 0
1  2 0 0 18
2  3 1 0 0 18
2  4 3 0 0 18
0

0101000
+389 0 -388 0 *
Ed
 1.00000003552714e-07 1 1 0
1  3 0 0 1272.1
2  5 1 8 0 1272.1
2  6 4 0 0 1272.1
0

0101000
+392 8 -389 8 *
Ed
 1.00000003552714e-07 1 1 0
1  4 0 0 1272.1
2  7 1 11 0 1272.1
2  8 5 0 0 1272.1
0

0101000
+391 11 -388 11 *
Wi

0101100
+390 0 -387 0 -386 7 +385 10 *
Fa
0  1.00000003552714e-07 1 0

0101000
+384 0 *
Ve
1.00000003552714e-07
572 0 -5.32907051820075e-15
0 0

0101101
*
Ve
1.00000003552714e-07
572 0 18
0 0

0101101
*
Ed
 1.00000003552714e-07 1 1 0
1  5 0 0 18
2  9 2 0 0 18
2  10 6 0 0 18
0

0101000
+382 0 -381 0 *
Ed
 1.00000003552714e-07 1 1 0
1  6 0 -568 4
2  11 2 8 -568 4
2  12 4 0 -568 4
0

0101000
+392 8 -382 8 *
Ed
 1.00000003552714e-07 1 1 0
1  7 0 -568 4
2  13 2 11 -568 4
2  14 5 0 -568 4
0

0101000
+391 11 -381 11 *
Wi

0101100
+390 0 -380 0 -379 7 +378 10 *
Fa
0  1.00000003552714e-07 2 0

0101000
+377 0 *
Ve
1.00000033776357e-07
572 1272.1 -5.32907051820075e-15
0 0

0101101
*
Ve
1.00000033776357e-07
572 1272.1 18
0 0

0101101
*
Ed
 1.00000033776357e-07 1 1 0
1  8 0 0 18
2  15 6 0 0 18
2  16 3 0 0 18
0

0101000
+375 0 -374 0 *
Ed
 1.00000003552714e-07 1 1 0
1  9 0 -568 4
2  17 3 8 -568 4
2  18 4 0 -568 4
0

0101000
+389 8 -375 8 *
Ed
 1.00000003552714e-07 1 1 0
1  10 0 -568 4
2  19 3 11 -568 4
2  20 5 0 -568 4
0

0101000
+388 11 -374 11 *
Wi

0101100
+387 0 -373 0 -372 7 +371 10 *
Fa
0  1.00000003552714e-07 3 0

0101000
+370 0 *
Ed
 1.00000003552714e-07 1 1 0
1  11 0 0 1272.1
2  21 6 8 0 1272.1
2  22 4 0 0 1272.1
0

0101000
+382 8 -375 8 *
Wi

0101100
-386 7 +379 7 -372 7 +368 7 *
Ve
1.00000019724962e-07
208.75 162 -3.92278802034222e-15
0 0

0101101
*
Ed
 1.00000017763568e-07 1 1 0
1  12 0 0 6.28318530717959
2  23 7 18 0 6.28318530717959
2  24 7 20 0 6.28318530717959
0

0101000
+366 18 -366 18 *
Wi

0101100
-365 17 *
Ve
1.00000019724962e-07
208.75 322 -3.92278802034222e-15
0 0

0101101
*
Ed
 1.00000017763568e-07 1 1 0
1  13 0 0 6.28318530717959
2  25 8 25 0 6.28318530717959
2  26 8 27 0 6.28318530717959
0

0101000
+363 25 -363 25 *
Wi

0101100
-362 24 *
Ve
1.00000019724962e-07
215.763516931608 391.768008843158 -3.92278802034222e-15
0 0

0101101
*
Ed
 1.00000017763568e-07 1 1 0
1  14 0 0 6.28318530717959
2  27 9 32 0 6.28318530717959
2  28 9 34 0 6.28318530717959
0

0101000
+360 32 -360 32 *
Wi

0101100
-359 31 *
Ve
1.00000019724962e-07
258.518008843158 349.013516931608 -3.92278802034222e-15
0 0

0101101
*
Ed
 1.00000017763568e-07 1 1 0
1  15 0 0 6.28318530717959
2  29 10 39 0 6.28318530717959
2  30 10 41 0 6.28318530717959
0

0101000
+357 39 -357 39 *
Wi

0101100
-356 38 *
Ve
1.00000059900715e-07
69 622 -3.70074341541719e-16
0 0

0101101
*
Ed
 1.00000057939321e-07 1 1 0
1  16 0 0 6.28318530717959
2  31 11 46 0 6.28318530717959
2  32 11 48 0 6.28318530717959
0

0101000
+354 46 -354 46 *
Wi

0101100
-353 45 *
Ve
1.00000024461914e-07
85.75 639.5 -2.73855012740872e-15
0 0

0101101
*
Ed
 1.00000021316282e-07 1 1 0
1  17 0 0 6.28318530717959
2  33 12 53 0 6.28318530717959
2  34 12 55 0 6.28318530717959
0

0101000
+351 53 -351 53 *
Wi

0101100
-350 52 *
Ve
1.00000069905322e-07
194 692 -3.92278802034222e-15
0 0

0101101
*
Ed
 1.00000067943928e-07 1 1 0
1  18 0 0 6.28318530717959
2  35 13 60 0 6.28318530717959
2  36 13 62 0 6.28318530717959
0

0101000
+348 60 -348 60 *
Wi

0101100
-347 59 *
Ve
1.00000071067391e-07
215.763516931608 452.231991156842 -5.88418203051333e-15
0 0

0101101
*
Ed
 1.00000017763568e-07 1 1 0
1  19 0 0 6.28318530717959
2  37 14 67 0 6.28318530717959
2  38 14 69 0 6.28318530717959
0

0101000
+345 67 -345 67 *
Wi

0101100
-344 66 *
Ve
1.00000019724962e-07
258.518008843158 494.986483068392 -3.92278802034222e-15
0 0

0101101
*
Ed
 1.00000017763568e-07 1 1 0
1  20 0 0 6.28318530717959
2  39 15 74 0 6.28318530717959
2  40 15 76 0 6.28318530717959
0

0101000
+342 74 -342 74 *
Wi

0101100
-341 73 *
Ve
1.00000059900715e-07
209 622 -3.70074341541719e-16
0 0

0101101
*
Ed
 1.00000057939321e-07 1 1 0
1  21 0 0 6.28318530717959
2  41 16 81 0 6.28318530717959
2  42 16 83 0 6.28318530717959
0

0101000
+339 81 -339 81 *
Wi

0101100
-338 80 *
Ve
1.00000024461914e-07
190.75 639.5 -2.73855012740872e-15
0 0

0101101
*
Ed
 1.00000021316282e-07 1 1 0
1  22 0 0 6.28318530717959
2  43 17 88 0 6.28318530717959
2  44 17 90 0 6.28318530717959
0

0101000
+336 88 -336 88 *
Wi

0101100
-335 87 *
Ve
1.00000019724962e-07
368.75 162 -3.92278802034222e-15
0 0

0101101
*
Ed
 1.00000017763568e-07 1 1 0
1  23 0 0 6.28318530717959
2  45 18 95 0 6.28318530717959
2  46 18 97 0 6.28318530717959
0

0101000
+333 95 -333 95 *
Wi

0101100
-332 94 *
Ve
1.00000019724962e-07
318.981991156842 349.013516931608 -3.92278802034222e-15
0 0

0101101
*
Ed
 1.00000017763568e-07 1 1 0
1  24 0 0 6.28318530717959
2  47 19 102 0 6.28318530717959
2  48 19 104 0 6.28318530717959
0

0101000
+330 102 -330 102 *
Wi

0101100
-329 101 *
Ve
1.00000181437975e-07
357.75 422 -3.5527136788005e-15
0 0

0101101
*
Ed
 1.00000124566807e-07 1 1 0
1  25 0 0 6.28318530717959
2  49 20 109 0 6.28318530717959
2  50 20 111 0 6.28318530717959
0

0101000
+327 109 -327 109 *
Wi

0101100
-326 108 *
Ve
1.00000019724962e-07
368.75 322 -3.92278802034222e-15
0 0

0101101
*
Ed
 1.00000017763568e-07 1 1 0
1  26 0 0 6.28318530717959
2  51 21 116 0 6.28318530717959
2  52 21 118 0 6.28318530717959
0

0101000
+324 116 -324 116 *
Wi

0101100
-323 115 *
Ve
1.00000019724962e-07
361.736483068392 391.768008843158 -3.92278802034222e-15
0 0

0101101
*
Ed
 1.00000017763568e-07 1 1 0
1  27 0 0 6.28318530717959
2  53 22 123 0 6.28318530717959
2  54 22 125 0 6.28318530717959
0

0101000
+321 123 -321 123 *
Wi

0101100
-320 122 *
Ve
1.00000019724962e-07
318.981991156842 494.986483068392 -3.92278802034222e-15
0 0

0101101
*
Ed
 1.00000017763568e-07 1 1 0
1  28 0 0 6.28318530717959
2  55 23 130 0 6.28318530717959
2  56 23 132 0 6.28318530717959
0

0101000
+318 130 -318 130 *
Wi

0101100
-317 129 *
Ve
1.00000019724962e-07
361.736483068392 452.231991156842 -3.92278802034222e-15
0 0

0101101
*
Ed
 1.00000017763568e-07 1 1 0
1  29 0 0 6.28318530717959
2  57 24 137 0 6.28318530717959
2  58 24 139 0 6.28318530717959
0

0101000
+315 137 -315 137 *
Wi

0101100
-314 136 *
Ve
1.00000016579331e-07
369 622 -1.1842378929335e-15
0 0

0101101
*
Ed
 1.00000014210855e-07 1 1 0
1  30 0 0 6.28318530717959
2  59 25 144 0 6.28318530717959
2  60 25 146 0 6.28318530717959
0

0101000
+312 144 -312 144 *
Wi

0101100
-311 143 *
Ve
1.00000024461914e-07
385.75 639.5 -2.73855012740872e-15
0 0

0101101
*
Ed
 1.00000021316282e-07 1 1 0
1  31 0 0 6.28318530717959
2  61 26 151 0 6.28318530717959
2  62 26 153 0 6.28318530717959
0

0101000
+309 151 -309 151 *
Wi

0101100
-308 150 *
Ve
1.00000126528201e-07
494 692 -3.92278802034222e-15
0 0

0101101
*
Ed
 1.00000124566807e-07 1 1 0
1  32 0 0 6.28318530717959
2  63 27 158 0 6.28318530717959
2  64 27 160 0 6.28318530717959
0

0101000
+306 158 -306 158 *
Wi

0101100
-305 157 *
Ve
1.00000016579331e-07
509 622 -1.1842378929335e-15
0 0

0101101
*
Ed
 1.00000014210855e-07 1 1 0
1  33 0 0 6.28318530717959
2  65 28 165 0 6.28318530717959
2  66 28 167 0 6.28318530717959
0

0101000
+303 165 -303 165 *
Wi

0101100
-302 164 *
Ve
1.00000024461914e-07
490.75 639.5 -2.73855012740872e-15
0 0

0101101
*
Ed
 1.00000021316282e-07 1 1 0
1  34 0 0 6.28318530717959
2  67 29 172 0 6.28318530717959
2  68 29 174 0 6.28318530717959
0

0101000
+300 172 -300 172 *
Wi

0101100
-299 171 *
Ve
1.00000059900715e-07
69 762 -3.70074341541719e-16
0 0

0101101
*
Ed
 1.00000057939321e-07 1 1 0
1  35 0 0 6.28318530717959
2  69 30 179 0 6.28318530717959
2  70 30 181 0 6.28318530717959
0

0101000
+297 179 -297 179 *
Wi

0101100
-296 178 *
Ve
1.00000024461914e-07
85.75 744.5 -2.73855012740872e-15
0 0

0101101
*
Ed
 1.00000021316282e-07 1 1 0
1  36 0 0 6.28318530717959
2  71 31 186 0 6.28318530717959
2  72 31 188 0 6.28318530717959
0

0101000
+294 186 -294 186 *
Wi

0101100
-293 185 *
Ve
1.00000069905322e-07
168.75 832 -3.92278802034222e-15
0 0

0101101
*
Ed
 1.00000067943928e-07 1 1 0
1  37 0 0 6.28318530717959
2  73 32 193 0 6.28318530717959
2  74 32 195 0 6.28318530717959
0

0101000
+291 193 -291 193 *
Wi

0101100
-290 192 *
Ve
1.00000024461914e-07
190.75 744.5 -2.73855012740872e-15
0 0

0101101
*
Ed
 1.00000021316282e-07 1 1 0
1  38 0 0 6.28318530717959
2  75 33 200 0 6.28318530717959
2  76 33 202 0 6.28318530717959
0

0101000
+288 200 -288 200 *
Wi

0101100
-287 199 *
Ve
1.00000059900715e-07
209 762 -3.70074341541719e-16
0 0

0101101
*
Ed
 1.00000057939321e-07 1 1 0
1  39 0 0 6.28318530717959
2  77 34 207 0 6.28318530717959
2  78 34 209 0 6.28318530717959
0

0101000
+285 207 -285 207 *
Wi

0101100
-284 206 *
Ve
1.00000069905322e-07
168.75 1252 -3.92278802034222e-15
0 0

0101101
*
Ed
 1.00000067943928e-07 1 1 0
1  40 0 0 6.28318530717959
2  79 35 214 0 6.28318530717959
2  80 35 216 0 6.28318530717959
0

0101000
+282 214 -282 214 *
Wi

0101100
-281 213 *
Ve
1.00000016579331e-07
369 762 -1.1842378929335e-15
0 0

0101101
*
Ed
 1.00000014210855e-07 1 1 0
1  41 0 0 6.28318530717959
2  81 36 221 0 6.28318530717959
2  82 36 223 0 6.28318530717959
0

0101000
+279 221 -279 221 *
Wi

0101100
-278 220 *
Ve
1.00000024461914e-07
385.75 744.5 -2.73855012740872e-15
0 0

0101101
*
Ed
 1.00000021316282e-07 1 1 0
1  42 0 0 6.28318530717959
2  83 37 228 0 6.28318530717959
2  84 37 230 0 6.28318530717959
0

0101000
+276 228 -276 228 *
Wi

0101100
-275 227 *
Ve
1.00000019724962e-07
408.75 832 -3.92278802034222e-15
0 0

0101101
*
Ed
 1.00000017763568e-07 1 1 0
1  43 0 0 6.28318530717959
2  85 38 235 0 6.28318530717959
2  86 38 237 0 6.28318530717959
0

0101000
+273 235 -273 235 *
Wi

0101100
-272 234 *
Ve
1.00000024461914e-07
490.75 744.5 -2.73855012740872e-15
0 0

0101101
*
Ed
 1.00000021316282e-07 1 1 0
1  44 0 0 6.28318530717959
2  87 39 242 0 6.28318530717959
2  88 39 244 0 6.28318530717959
0

0101000
+270 242 -270 242 *
Wi

0101100
-269 241 *
Ve
1.00000016579331e-07
509 762 -1.1842378929335e-15
0 0

0101101
*
Ed
 1.00000014210855e-07 1 1 0
1  45 0 0 6.28318530717959
2  89 40 249 0 6.28318530717959
2  90 40 251 0 6.28318530717959
0

0101000
+267 249 -267 249 *
Wi

0101100
-266 248 *
Ve
1.00000126528201e-07
408.75 1252 -3.92278802034222e-15
0 0

0101101
*
Ed
 1.00000124566807e-07 1 1 0
1  46 0 0 6.28318530717959
2  91 41 256 0 6.28318530717959
2  92 41 258 0 6.28318530717959
0

0101000
+264 256 -264 256 *
Wi

0101100
-263 255 *
Fa
0  1.00000003552714e-07 4 7

0101000
+367 0 +364 0 +361 0 +358 0 +355 0 +352 0 +349 0 +346 0 +343 0 +340 0 
+337 0 +334 0 +331 0 +328 0 +325 0 +322 0 +319 0 +316 0 +313 0 +310 0 
+307 0 +304 0 +301 0 +298 0 +295 0 +292 0 +289 0 +286 0 +283 0 +280 0 
+277 0 +274 0 +271 0 +268 0 +265 0 +262 0 *
Ed
 1.00000003552714e-07 1 1 0
1  47 0 0 1272.1
2  93 6 11 0 1272.1
2  94 5 0 0 1272.1
0

0101000
+381 11 -374 11 *
Wi

0101100
-385 10 +378 10 -371 10 +260 10 *
Ve
1.00000019724962e-07
208.75 162 18
0 0

0101101
*
Ed
 1.00000017763568e-07 1 1 0
1  12 0 0 6.28318530717959
2  23 7 18 0 6.28318530717959
2  24 7 20 0 6.28318530717959
0

0101000
+258 20 -258 20 *
Wi

0101100
-257 259 *
Ve
1.00000019724962e-07
208.75 322 18
0 0

0101101
*
Ed
 1.00000017763568e-07 1 1 0
1  13 0 0 6.28318530717959
2  25 8 25 0 6.28318530717959
2  26 8 27 0 6.28318530717959
0

0101000
+255 27 -255 27 *
Wi

0101100
-254 260 *
Ve
1.00000019724962e-07
215.763516931608 391.768008843158 18
0 0

0101101
*
Ed
 1.00000017763568e-07 1 1 0
1  14 0 0 6.28318530717959
2  27 9 32 0 6.28318530717959
2  28 9 34 0 6.28318530717959
0

0101000
+252 34 -252 34 *
Wi

0101100
-251 261 *
Ve
1.00000019724962e-07
258.518008843158 349.013516931608 18
0 0

0101101
*
Ed
 1.00000017763568e-07 1 1 0
1  15 0 0 6.28318530717959
2  29 10 39 0 6.28318530717959
2  30 10 41 0 6.28318530717959
0

0101000
+249 41 -249 41 *
Wi

0101100
-248 262 *
Ve
1.00000024461914e-07
85.75 639.5 18
0 0

0101101
*
Ed
 1.00000021316282e-07 1 1 0
1  17 0 0 6.28318530717959
2  33 12 53 0 6.28318530717959
2  34 12 55 0 6.28318530717959
0

0101000
+246 55 -246 55 *
Wi

0101100
-245 263 *
Ve
1.00000069905322e-07
194 692 18
0 0

0101101
*
Ed
 1.00000067943928e-07 1 1 0
1  18 0 0 6.28318530717959
2  35 13 60 0 6.28318530717959
2  36 13 62 0 6.28318530717959
0

0101000
+243 62 -243 62 *
Wi

0101100
-242 264 *
Ve
1.00000071067391e-07
215.763516931608 452.231991156842 18
0 0

0101101
*
Ed
 1.00000017763568e-07 1 1 0
1  19 0 0 6.28318530717959
2  37 14 67 0 6.28318530717959
2  38 14 69 0 6.28318530717959
0

0101000
+240 69 -240 69 *
Wi

0101100
-239 265 *
Ve
1.00000019724962e-07
258.518008843158 494.986483068392 18
0 0

0101101
*
Ed
 1.00000017763568e-07 1 1 0
1  20 0 0 6.28318530717959
2  39 15 74 0 6.28318530717959
2  40 15 76 0 6.28318530717959
0

0101000
+237 76 -237 76 *
Wi

0101100
-236 266 *
Ve
1.00000024461914e-07
190.75 639.5 18
0 0

0101101
*
Ed
 1.00000021316282e-07 1 1 0
1  22 0 0 6.28318530717959
2  43 17 88 0 6.28318530717959
2  44 17 90 0 6.28318530717959
0

0101000
+234 90 -234 90 *
Wi

0101100
-233 267 *
Ve
1.00000019724962e-07
368.75 162 18
0 0

0101101
*
Ed
 1.00000017763568e-07 1 1 0
1  23 0 0 6.28318530717959
2  45 18 95 0 6.28318530717959
2  46 18 97 0 6.28318530717959
0

0101000
+231 97 -231 97 *
Wi

0101100
-230 268 *
Ve
1.00000019724962e-07
318.981991156842 349.013516931608 18
0 0

0101101
*
Ed
 1.00000017763568e-07 1 1 0
1  24 0 0 6.28318530717959
2  47 19 102 0 6.28318530717959
2  48 19 104 0 6.28318530717959
0

0101000
+228 104 -228 104 *
Wi

0101100
-227 269 *
Ve
1.00000181437975e-07
357.75 422 18
0 0

0101101
*
Ed
 1.00000124566807e-07 1 1 0
1  25 0 0 6.28318530717959
2  49 20 109 0 6.28318530717959
2  50 20 111 0 6.28318530717959
0

0101000
+225 111 -225 111 *
Wi

0101100
-224 270 *
Ve
1.00000019724962e-07
368.75 322 18
0 0

0101101
*
Ed
 1.00000017763568e-07 1 1 0
1  26 0 0 6.28318530717959
2  51 21 116 0 6.28318530717959
2  52 21 118 0 6.28318530717959
0

0101000
+222 118 -222 118 *
Wi

0101100
-221 271 *
Ve
1.00000019724962e-07
361.736483068392 391.768008843158 18
0 0

0101101
*
Ed
 1.00000017763568e-07 1 1 0
1  27 0 0 6.28318530717959
2  53 22 123 0 6.28318530717959
2  54 22 125 0 6.28318530717959
0

0101000
+219 125 -219 125 *
Wi

0101100
-218 272 *
Ve
1.00000019724962e-07
318.981991156842 494.986483068392 18
0 0

0101101
*
Ed
 1.00000017763568e-07 1 1 0
1  28 0 0 6.28318530717959
2  55 23 130 0 6.28318530717959
2  56 23 132 0 6.28318530717959
0

0101000
+216 132 -216 132 *
Wi

0101100
-215 273 *
Ve
1.00000019724962e-07
361.736483068392 452.231991156842 18
0 0

0101101
*
Ed
 1.00000017763568e-07 1 1 0
1  29 0 0 6.28318530717959
2  57 24 137 0 6.28318530717959
2  58 24 139 0 6.28318530717959
0

0101000
+213 139 -213 139 *
Wi

0101100
-212 274 *
Ve
1.00000024461914e-07
385.75 639.5 18
0 0

0101101
*
Ed
 1.00000021316282e-07 1 1 0
1  31 0 0 6.28318530717959
2  61 26 151 0 6.28318530717959
2  62 26 153 0 6.28318530717959
0

0101000
+210 153 -210 153 *
Wi

0101100
-209 275 *
Ve
1.00000126528201e-07
494 692 18
0 0

0101101
*
Ed
 1.00000124566807e-07 1 1 0
1  32 0 0 6.28318530717959
2  63 27 158 0 6.28318530717959
2  64 27 160 0 6.28318530717959
0

0101000
+207 160 -207 160 *
Wi

0101100
-206 276 *
Ve
1.00000024461914e-07
490.75 639.5 18
0 0

0101101
*
Ed
 1.00000021316282e-07 1 1 0
1  34 0 0 6.28318530717959
2  67 29 172 0 6.28318530717959
2  68 29 174 0 6.28318530717959
0

0101000
+204 174 -204 174 *
Wi

0101100
-203 277 *
Ve
1.00000024461914e-07
85.75 744.5 18
0 0

0101101
*
Ed
 1.00000021316282e-07 1 1 0
1  36 0 0 6.28318530717959
2  71 31 186 0 6.28318530717959
2  72 31 188 0 6.28318530717959
0

0101000
+201 188 -201 188 *
Wi

0101100
-200 278 *
Ve
1.00000069905322e-07
168.75 832 18
0 0

0101101
*
Ed
 1.00000067943928e-07 1 1 0
1  37 0 0 6.28318530717959
2  73 32 193 0 6.28318530717959
2  74 32 195 0 6.28318530717959
0

0101000
+198 195 -198 195 *
Wi

0101100
-197 279 *
Ve
1.00000024461914e-07
190.75 744.5 18
0 0

0101101
*
Ed
 1.00000021316282e-07 1 1 0
1  38 0 0 6.28318530717959
2  75 33 200 0 6.28318530717959
2  76 33 202 0 6.28318530717959
0

0101000
+195 202 -195 202 *
Wi

0101100
-194 280 *
Ve
1.00000069905322e-07
168.75 1252 18
0 0

0101101
*
Ed
 1.00000067943928e-07 1 1 0
1  40 0 0 6.28318530717959
2  79 35 214 0 6.28318530717959
2  80 35 216 0 6.28318530717959
0

0101000
+192 216 -192 216 *
Wi

0101100
-191 281 *
Ve
1.00000024461914e-07
385.75 744.5 18
0 0

0101101
*
Ed
 1.00000021316282e-07 1 1 0
1  42 0 0 6.28318530717959
2  83 37 228 0 6.28318530717959
2  84 37 230 0 6.28318530717959
0

0101000
+189 230 -189 230 *
Wi

0101100
-188 282 *
Ve
1.00000019724962e-07
408.75 832 18
0 0

0101101
*
Ed
 1.00000017763568e-07 1 1 0
1  43 0 0 6.28318530717959
2  85 38 235 0 6.28318530717959
2  86 38 237 0 6.28318530717959
0

0101000
+186 237 -186 237 *
Wi

0101100
-185 283 *
Ve
1.00000024461914e-07
490.75 744.5 18
0 0

0101101
*
Ed
 1.00000021316282e-07 1 1 0
1  44 0 0 6.28318530717959
2  87 39 242 0 6.28318530717959
2  88 39 244 0 6.28318530717959
0

0101000
+183 244 -183 244 *
Wi

0101100
-182 284 *
Ve
1.00000126528201e-07
408.75 1252 18
0 0

0101101
*
Ed
 1.00000124566807e-07 1 1 0
1  46 0 0 6.28318530717959
2  91 41 256 0 6.28318530717959
2  92 41 258 0 6.28318530717959
0

0101000
+180 258 -180 258 *
Wi

0101100
-179 285 *
Fa
0  1.00000003552714e-07 5 10

0101000
+259 0 +256 0 +253 0 +250 0 +247 0 +244 0 +241 0 +238 0 +235 0 +232 0 
+229 0 +226 0 +223 0 +220 0 +217 0 +214 0 +211 0 +208 0 +205 0 +202 0 
+199 0 +196 0 +193 0 +190 0 +187 0 +184 0 +181 0 +178 0 *
Wi

0101100
+380 0 -373 0 -368 7 +260 10 *
Fa
0  1.00000003552714e-07 6 0

0101000
+176 0 *
Ed
 1.00000019724962e-07 1 1 0
1  48 0 0 18
3  95 96CN 7 0 0 18
0

0101000
+366 0 -258 0 *
Wi

0101100
+174 0 -174 0 -365 17 +257 259 *
Fa
0  1.00000017763568e-07 7 0

0101000
+173 0 *
Ed
 1.00000019724962e-07 1 1 0
1  49 0 0 18
3  97 98CN 8 0 0 18
0

0101000
+363 0 -255 0 *
Wi

0101100
+171 0 -171 0 -362 24 +254 260 *
Fa
0  1.00000017763568e-07 8 0

0101000
+170 0 *
Ed
 1.00000019724962e-07 1 1 0
1  50 0 0 18
3  99 100CN 9 0 0 18
0

0101000
+360 0 -252 0 *
Wi

0101100
+168 0 -168 0 -359 31 +251 261 *
Fa
0  1.00000017763568e-07 9 0

0101000
+167 0 *
Ed
 1.00000019724962e-07 1 1 0
1  51 0 0 18
3  101 102CN 10 0 0 18
0

0101000
+357 0 -249 0 *
Wi

0101100
+165 0 -165 0 -356 38 +248 262 *
Fa
0  1.00000017763568e-07 10 0

0101000
+164 0 *
Ve
1.00000059900715e-07
69 622 -3.70074341541719e-16
0 0

0101101
*
Ed
 1.00000059900715e-07 1 1 0
1  52 0 0 8
3  103 104CN 11 0 0 8
0

0101000
+354 0 -162 47 *
Ed
 1.00000057939321e-07 1 1 0
1  16 0 0 6.28318530717959
2  31 11 46 0 6.28318530717959
2  32 11 48 0 6.28318530717959
0

0101000
+162 46 -162 46 *
Wi

0101100
+161 0 -161 0 -353 45 +160 286 *
Fa
0  1.00000057939321e-07 11 0

0101000
+159 0 *
Ed
 1.00000024461914e-07 1 1 0
1  53 0 0 18
3  105 106CN 12 0 0 18
0

0101000
+351 0 -246 0 *
Wi

0101100
+157 0 -157 0 -350 52 +245 263 *
Fa
0  1.00000021316282e-07 12 0

0101000
+156 0 *
Ed
 1.00000069905322e-07 1 1 0
1  54 0 0 18
3  107 108CN 13 0 0 18
0

0101000
+348 0 -243 0 *
Wi

0101100
+154 0 -154 0 -347 59 +242 264 *
Fa
0  1.00000067943928e-07 13 0

0101000
+153 0 *
Ed
 1.00000071067391e-07 1 1 0
1  55 0 0 18
3  109 110CN 14 0 0 18
0

0101000
+345 0 -240 0 *
Wi

0101100
+151 0 -151 0 -344 66 +239 265 *
Fa
0  1.00000017763568e-07 14 0

0101000
+150 0 *
Ed
 1.00000019724962e-07 1 1 0
1  56 0 0 18
3  111 112CN 15 0 0 18
0

0101000
+342 0 -237 0 *
Wi

0101100
+148 0 -148 0 -341 73 +236 266 *
Fa
0  1.00000017763568e-07 15 0

0101000
+147 0 *
Ve
1.00000059900715e-07
209 622 -3.70074341541719e-16
0 0

0101101
*
Ed
 1.00000059900715e-07 1 1 0
1  57 0 0 8
3  113 114CN 16 0 0 8
0

0101000
+339 0 -145 82 *
Ed
 1.00000057939321e-07 1 1 0
1  21 0 0 6.28318530717959
2  41 16 81 0 6.28318530717959
2  42 16 83 0 6.28318530717959
0

0101000
+145 81 -145 81 *
Wi

0101100
+144 0 -144 0 -338 80 +143 287 *
Fa
0  1.00000057939321e-07 16 0

0101000
+142 0 *
Ed
 1.00000024461914e-07 1 1 0
1  58 0 0 18
3  115 116CN 17 0 0 18
0

0101000
+336 0 -234 0 *
Wi

0101100
+140 0 -140 0 -335 87 +233 267 *
Fa
0  1.00000021316282e-07 17 0

0101000
+139 0 *
Ed
 1.00000019724962e-07 1 1 0
1  59 0 0 18
3  117 118CN 18 0 0 18
0

0101000
+333 0 -231 0 *
Wi

0101100
+137 0 -137 0 -332 94 +230 268 *
Fa
0  1.00000017763568e-07 18 0

0101000
+136 0 *
Ed
 1.00000019724962e-07 1 1 0
1  60 0 0 18
3  119 120CN 19 0 0 18
0

0101000
+330 0 -228 0 *
Wi

0101100
+134 0 -134 0 -329 101 +227 269 *
Fa
0  1.00000017763568e-07 19 0

0101000
+133 0 *
Ed
 1.00000181437975e-07 1 1 0
1  61 0 0 18
3  121 122CN 20 0 0 18
0

0101000
+327 0 -225 0 *
Wi

0101100
+131 0 -131 0 -326 108 +224 270 *
Fa
0  1.00000124566807e-07 20 0

0101000
+130 0 *
Ed
 1.00000019724962e-07 1 1 0
1  62 0 0 18
3  123 124CN 21 0 0 18
0

0101000
+324 0 -222 0 *
Wi

0101100
+128 0 -128 0 -323 115 +221 271 *
Fa
0  1.00000017763568e-07 21 0

0101000
+127 0 *
Ed
 1.00000019724962e-07 1 1 0
1  63 0 0 18
3  125 126CN 22 0 0 18
0

0101000
+321 0 -219 0 *
Wi

0101100
+125 0 -125 0 -320 122 +218 272 *
Fa
0  1.00000017763568e-07 22 0

0101000
+124 0 *
Ed
 1.00000019724962e-07 1 1 0
1  64 0 0 18
3  127 128CN 23 0 0 18
0

0101000
+318 0 -216 0 *
Wi

0101100
+122 0 -122 0 -317 129 +215 273 *
Fa
0  1.00000017763568e-07 23 0

0101000
+121 0 *
Ed
 1.00000019724962e-07 1 1 0
1  65 0 0 18
3  129 130CN 24 0 0 18
0

0101000
+315 0 -213 0 *
Wi

0101100
+119 0 -119 0 -314 136 +212 274 *
Fa
0  1.00000017763568e-07 24 0

0101000
+118 0 *
Ve
1.00000016579331e-07
369 622 -1.1842378929335e-15
0 0

0101101
*
Ed
 1.00000016579331e-07 1 1 0
1  66 0 0 8
3  131 132CN 25 0 0 8
0

0101000
+312 0 -116 145 *
Ed
 1.00000014210855e-07 1 1 0
1  30 0 0 6.28318530717959
2  59 25 144 0 6.28318530717959
2  60 25 146 0 6.28318530717959
0

0101000
+116 144 -116 144 *
Wi

0101100
+115 0 -115 0 -311 143 +114 288 *
Fa
0  1.00000014210855e-07 25 0

0101000
+113 0 *
Ed
 1.00000024461914e-07 1 1 0
1  67 0 0 18
3  133 134CN 26 0 0 18
0

0101000
+309 0 -210 0 *
Wi

0101100
+111 0 -111 0 -308 150 +209 275 *
Fa
0  1.00000021316282e-07 26 0

0101000
+110 0 *
Ed
 1.00000126528201e-07 1 1 0
1  68 0 0 18
3  135 136CN 27 0 0 18
0

0101000
+306 0 -207 0 *
Wi

0101100
+108 0 -108 0 -305 157 +206 276 *
Fa
0  1.00000124566807e-07 27 0

0101000
+107 0 *
Ve
1.00000016579331e-07
509 622 -1.1842378929335e-15
0 0

0101101
*
Ed
 1.00000016579331e-07 1 1 0
1  69 0 0 8
3  137 138CN 28 0 0 8
0

0101000
+303 0 -105 166 *
Ed
 1.00000014210855e-07 1 1 0
1  33 0 0 6.28318530717959
2  65 28 165 0 6.28318530717959
2  66 28 167 0 6.28318530717959
0

0101000
+105 165 -105 165 *
Wi

0101100
+104 0 -104 0 -302 164 +103 289 *
Fa
0  1.00000014210855e-07 28 0

0101000
+102 0 *
Ed
 1.00000024461914e-07 1 1 0
1  70 0 0 18
3  139 140CN 29 0 0 18
0

0101000
+300 0 -204 0 *
Wi

0101100
+100 0 -100 0 -299 171 +203 277 *
Fa
0  1.00000021316282e-07 29 0

0101000
+99 0 *
Ve
1.00000059900715e-07
69 762 -3.70074341541719e-16
0 0

0101101
*
Ed
 1.00000059900715e-07 1 1 0
1  71 0 0 8
3  141 142CN 30 0 0 8
0

0101000
+297 0 -97 180 *
Ed
 1.00000057939321e-07 1 1 0
1  35 0 0 6.28318530717959
2  69 30 179 0 6.28318530717959
2  70 30 181 0 6.28318530717959
0

0101000
+97 179 -97 179 *
Wi

0101100
+96 0 -96 0 -296 178 +95 290 *
Fa
0  1.00000057939321e-07 30 0

0101000
+94 0 *
Ed
 1.00000024461914e-07 1 1 0
1  72 0 0 18
3  143 144CN 31 0 0 18
0

0101000
+294 0 -201 0 *
Wi

0101100
+92 0 -92 0 -293 185 +200 278 *
Fa
0  1.00000021316282e-07 31 0

0101000
+91 0 *
Ed
 1.00000069905322e-07 1 1 0
1  73 0 0 18
3  145 146CN 32 0 0 18
0

0101000
+291 0 -198 0 *
Wi

0101100
+89 0 -89 0 -290 192 +197 279 *
Fa
0  1.00000067943928e-07 32 0

0101000
+88 0 *
Ed
 1.00000024461914e-07 1 1 0
1  74 0 0 18
3  147 148CN 33 0 0 18
0

0101000
+288 0 -195 0 *
Wi

0101100
+86 0 -86 0 -287 199 +194 280 *
Fa
0  1.00000021316282e-07 33 0

0101000
+85 0 *
Ve
1.00000059900715e-07
209 762 -3.70074341541719e-16
0 0

0101101
*
Ed
 1.00000059900715e-07 1 1 0
1  75 0 0 8
3  149 150CN 34 0 0 8
0

0101000
+285 0 -83 208 *
Ed
 1.00000057939321e-07 1 1 0
1  39 0 0 6.28318530717959
2  77 34 207 0 6.28318530717959
2  78 34 209 0 6.28318530717959
0

0101000
+83 207 -83 207 *
Wi

0101100
+82 0 -82 0 -284 206 +81 291 *
Fa
0  1.00000057939321e-07 34 0

0101000
+80 0 *
Ed
 1.00000069905322e-07 1 1 0
1  76 0 0 18
3  151 152CN 35 0 0 18
0

0101000
+282 0 -192 0 *
Wi

0101100
+78 0 -78 0 -281 213 +191 281 *
Fa
0  1.00000067943928e-07 35 0

0101000
+77 0 *
Ve
1.00000016579331e-07
369 762 -1.1842378929335e-15
0 0

0101101
*
Ed
 1.00000016579331e-07 1 1 0
1  77 0 0 8
3  153 154CN 36 0 0 8
0

0101000
+279 0 -75 222 *
Ed
 1.00000014210855e-07 1 1 0
1  41 0 0 6.28318530717959
2  81 36 221 0 6.28318530717959
2  82 36 223 0 6.28318530717959
0

0101000
+75 221 -75 221 *
Wi

0101100
+74 0 -74 0 -278 220 +73 292 *
Fa
0  1.00000014210855e-07 36 0

0101000
+72 0 *
Ed
 1.00000024461914e-07 1 1 0
1  78 0 0 18
3  155 156CN 37 0 0 18
0

0101000
+276 0 -189 0 *
Wi

0101100
+70 0 -70 0 -275 227 +188 282 *
Fa
0  1.00000021316282e-07 37 0

0101000
+69 0 *
Ed
 1.00000019724962e-07 1 1 0
1  79 0 0 18
3  157 158CN 38 0 0 18
0

0101000
+273 0 -186 0 *
Wi

0101100
+67 0 -67 0 -272 234 +185 283 *
Fa
0  1.00000017763568e-07 38 0

0101000
+66 0 *
Ed
 1.00000024461914e-07 1 1 0
1  80 0 0 18
3  159 160CN 39 0 0 18
0

0101000
+270 0 -183 0 *
Wi

0101100
+64 0 -64 0 -269 241 +182 284 *
Fa
0  1.00000021316282e-07 39 0

0101000
+63 0 *
Ve
1.00000016579331e-07
509 762 -1.1842378929335e-15
0 0

0101101
*
Ed
 1.00000016579331e-07 1 1 0
1  81 0 0 8
3  161 162CN 40 0 0 8
0

0101000
+267 0 -61 250 *
Ed
 1.00000014210855e-07 1 1 0
1  45 0 0 6.28318530717959
2  89 40 249 0 6.28318530717959
2  90 40 251 0 6.28318530717959
0

0101000
+61 249 -61 249 *
Wi

0101100
+60 0 -60 0 -266 248 +59 293 *
Fa
0  1.00000014210855e-07 40 0

0101000
+58 0 *
Ed
 1.00000126528201e-07 1 1 0
1  82 0 0 18
3  163 164CN 41 0 0 18
0

0101000
+264 0 -180 0 *
Wi

0101100
+56 0 -56 0 -263 255 +179 285 *
Fa
0  1.00000124566807e-07 41 0

0101000
+55 0 *
Wi

0101100
-160 45 *
Fa
0  1e-07 42 0

0101000
-53 0 *
Wi

0101100
-143 80 *
Fa
0  1e-07 43 0

0101000
-51 0 *
Wi

0101100
-114 143 *
Fa
0  1e-07 44 0

0101000
-49 0 *
Wi

0101100
-103 164 *
Fa
0  1e-07 45 0

0101000
-47 0 *
Wi

0101100
-95 178 *
Fa
0  1e-07 46 0

0101000
-45 0 *
Wi

0101100
-81 206 *
Fa
0  1e-07 47 0

0101000
-43 0 *
Wi

0101100
-73 220 *
Fa
0  1e-07 48 0

0101000
-41 0 *
Wi

0101100
-59 248 *
Fa
0  1e-07 49 0

0101000
-39 0 *
Sh

0101100
+383 0 -376 0 +369 0 -261 0 +177 0 -175 0 +172 0 +169 0 +166 0 +163 0 
+158 0 +155 0 +152 0 +149 0 +146 0 +141 0 +138 0 +135 0 +132 0 +129 0 
+126 0 +123 0 +120 0 +117 0 +112 0 +109 0 +106 0 +101 0 +98 0 +93 0 
+90 0 +87 0 +84 0 +79 0 +76 0 +71 0 +68 0 +65 0 +62 0 +57 0 
+54 0 -52 47 -50 82 -48 145 -46 166 -44 180 -42 208 -40 222 -38 250 *
So

0100000
+37 0 *
Co

0100000
+36 0 *
Co

0100000
+35 0 *
Co

0100000
+34 0 *
Co

0100000
+33 0 *
Co

0100000
+32 0 *
Co

0100000
+31 0 *
Co

0100000
+30 0 *
Co

0100000
+29 0 *
Co

0100000
+28 0 *
Co

0100000
+27 0 *
Co

0100000
+26 0 *
Co

0100000
+25 0 *
Co

0100000
+24 0 *
Co

0100000
+23 0 *
Co

0100000
+22 0 *
Co

0100000
+21 0 *
Co

0100000
+20 0 *
Co

0100000
+19 0 *
Co

0100000
+18 0 *
Co

0100000
+17 0 *
Co

0100000
+16 0 *
Co

0100000
+15 0 *
Co

0100000
+14 0 *
Co

0100000
+13 0 *
Co

0100000
+12 0 *
Co

0100000
+11 0 *
Co

0100000
+10 0 *
Co

0100000
+9 0 *
Co

0100000
+8 0 *
Co

0100000
+7 0 *
Co

0100000
+6 0 *
Co

0100000
+5 0 *
Co

0100000
+4 0 *
Co

0100000
+3 0 *
Co

1100000
+2 0 *

+1 0 