DBRep_DrawableShape

CASCADE Topology V1, (c) Matra-Datavision
Locations 16
1
              1               0               0               0 
              0               1               0               0 
              0               0               1               0 
1
              1               0               0               0 
              0               1               0               0 
              0               0               1               0 
1
              1               0               0             -14 
              0               1               0             -18 
              0               0               1             -18 
1
              1               0               0               0 
              0               1               0               0 
              0               0               1             -18 
1
              1               0               0               0 
              0               1               0               0 
              0               0               1               1 
1
              1               0               0               0 
              0               1               0               0 
              0               0               1              -1 
2  1 1 2 1 3 1 4 1 5 1 6 1 0
1
              1               0               0               0 
              0               1               0               0 
              0               0               1               0 
2  8 1 1 1 2 1 3 1 0
2  8 -1 0
2  3 -1 2 -1 1 -1 8 -1 0
1
              1               0               0               0 
              0               1               0               0 
              0               0               1              -8 
2  12 -1 3 -1 2 -1 1 -1 8 -1 0
1
              1               0               0               0 
              0               1               0               0 
              0               0               1               1 
2  14 -1 12 -1 3 -1 2 -1 1 -1 8 -1 0
2  1 -1 8 -1 0
Curve2ds 8
2 80 -14.049999999999841 -1 0 0 1 3
1 0 0 1 0 
1 0 8 1 0 
2 0 0 1 0 -0 1 3
1 0 0 1 0 
1 0 -1 1 0 
1 6.2831853071795862 -0 0 1 
1 0 -0 0 1 
Curves 3
2 220 640 18 0 0 1 1 0 -0 -0 1 0 3
2 220 640 26 0 0 1 1 0 -0 -0 1 0 3
1 223 640 18 0 0 1 
Polygon3D 0
PolygonOnTriangulations 0
Surfaces 5
1 300 654.05000000000007 36.000000000000007 0 0 1 1 0 -0 -0 1 0 
1 300 654.04999999999984 18.000000000000004 -0 -0 -1 -1 0 0 0 1 -0 
2 220 640 18 0 0 1 1 0 -0 -0 1 0 3
1 220 640 26 0 0 1 1 0 -0 -0 1 0 
2 206 622 0 -0 -0 -1 1 0 0 0 1 0 3
Triangulations 0

TShapes 13
Ve
1.00000007105427e-07
209 622 -3.5527136788005e-15
0 0

0101101
*
Ed
 1.00000007105427e-07 1 1 0
1  1 0 0 6.28318530717959
2  1 2 10 0 6.28318530717959
2  2 3 0 0 6.28318530717959
0

0101000
+13 11 -13 11 *
Wi

0101100
+12 9 *
Fa
0  1.00000003552714e-07 1 7

0101000
+11 0 *
Ve
1e-07
223 640 26
0 0

0101101
*
Ed
 1e-07 1 1 0
1  2 0 0 6.28318530717959
2  3 3 0 0 6.28318530717959
2  4 4 0 0 6.28318530717959
2  5 5 13 0 6.28318530717959
2  6 5 15 0 6.28318530717959
0

0101000
+9 16 -9 16 *
Ed
 1e-07 1 1 0
1  3 0 0 8
3  7 8CN 3 0 0 8
0

0101000
+13 11 -9 16 *
Wi

0101100
-8 9 +7 9 +12 9 -7 9 *
Fa
0  1e-07 3 9

0101000
+6 0 *
Wi

0101100
+8 0 *
Fa
0  1e-07 4 0

0111000
+4 0 *
Sh

0101100
-10 0 +5 0 +3 9 *
So

0100000
+2 0 *

+1 0 