DBRep_DrawableShape

CASCADE Topology V1, (c) Matra-Datavision
Locations 44
1
              1               0               0               0 
              0               1               0               0 
              0               0               1               0 
1
              1               0               0               0 
              0               1               0               0 
              0               0               1               0 
1
              1               0               0             -14 
              0               1               0             -18 
              0               0               1             -18 
2  1 1 2 1 3 1 0
2  1 -1 0
1
              1               0               0               0 
              0               1               0               0 
              0               0               1               0 
1
              1               0               0               0 
              0               1               0               0 
              0               0               1               0 
2  6 1 7 1 0
2  7 -1 6 -1 0
2  1 -1 7 -1 6 -1 0
2  7 -1 0
2  1 -1 7 -1 0
1
              1               0               0               0 
              0               1               0               0 
              0               0               1              -8 
2  13 -1 3 -1 2 -1 1 -1 7 -1 0
1
              1               0               0               0 
              0               1               0               0 
              0               0               1               1 
2  15 -1 13 -1 3 -1 2 -1 1 -1 7 -1 0
1
              1               0               0               0 
              0               1               0               0 
              0               0               1              -8 
2  17 -1 3 -1 2 -1 1 -1 7 -1 0
1
              1               0               0               0 
              0               1               0               0 
              0               0               1               1 
2  19 -1 17 -1 3 -1 2 -1 1 -1 7 -1 0
1
              1               0               0               0 
              0               1               0               0 
              0               0               1              -8 
2  21 -1 3 -1 2 -1 1 -1 7 -1 0
1
              1               0               0               0 
              0               1               0               0 
              0               0               1               1 
2  23 -1 21 -1 3 -1 2 -1 1 -1 7 -1 0
1
              1               0               0               0 
              0               1               0               0 
              0               0               1              -8 
2  25 -1 3 -1 2 -1 1 -1 7 -1 0
1
              1               0               0               0 
              0               1               0               0 
              0               0               1               1 
2  27 -1 25 -1 3 -1 2 -1 1 -1 7 -1 0
1
              1               0               0               0 
              0               1               0               0 
              0               0               1              -8 
2  29 -1 3 -1 2 -1 1 -1 7 -1 0
1
              1               0               0               0 
              0               1               0               0 
              0               0               1               1 
2  31 -1 29 -1 3 -1 2 -1 1 -1 7 -1 0
1
              1               0               0               0 
              0               1               0               0 
              0               0               1              -8 
2  33 -1 3 -1 2 -1 1 -1 7 -1 0
1
              1               0               0               0 
              0               1               0               0 
              0               0               1               1 
2  35 -1 33 -1 3 -1 2 -1 1 -1 7 -1 0
1
              1               0               0               0 
              0               1               0               0 
              0               0               1              -8 
2  37 -1 3 -1 2 -1 1 -1 7 -1 0
1
              1               0               0               0 
              0               1               0               0 
              0               0               1               1 
2  39 -1 37 -1 3 -1 2 -1 1 -1 7 -1 0
1
              1               0               0               0 
              0               1               0               0 
              0               0               1              -8 
2  41 -1 3 -1 2 -1 1 -1 7 -1 0
1
              1               0               0               0 
              0               1               0               0 
              0               0               1               1 
2  43 -1 41 -1 3 -1 2 -1 1 -1 7 -1 0
Curve2ds 250
1 0 0 1 0 
1 9 -286 -1 0 
1 18 0 0 -1 
1 -286 -636.05000000000007 0 1 
1 0 -1272.0999999999999 1 0 
1 -9 -286 1 0 
1 0 0 0 -1 
1 286 -636.04999999999984 0 1 
1 9 -286 0 1 
1 286 -636.04999999999984 -1 0 
1 9 286 -1 0 
1 0 0 1 0 
1 -9 282 0 1 
1 282 -636.05000000000007 1 0 
1 18 0 0 -1 
1 286 -636.05000000000007 0 1 
1 0 -1272.0999999999999 1 0 
1 -9 286 1 0 
1 0 0 0 -1 
1 -286 -636.04999999999984 0 1 
1 282 636.04999999999984 1 0 
1 9 282 0 1 
2 0 -214.05000000000007 1 0 -0 1 71.75
1 0 19 1 0 
2 150 55.949999999999932 1 0 -0 1 58
1 0 19 1 0 
2 -150 55.949999999999932 1 0 -0 1 58
1 0 19 1 0 
2 -30.231991156842071 -141.06351693160843 1 0 -0 1 2.75
1 0 19 1 0 
2 -80 -474.05000000000007 1 0 -0 1 2.75
1 0 19 1 0 
2 -80 -314.05000000000007 1 0 -0 1 2.75
1 0 19 1 0 
2 -72.986483068391664 -244.28199115684214 1 0 -0 1 2.75
1 0 19 1 0 
2 -30.231991156842071 -287.0364830683917 1 0 -0 1 2.75
1 0 19 1 0 
2 -72.986483068391635 -183.81800884315794 1 0 -0 1 2.75
1 0 19 1 0 
2 80 -474.05000000000007 1 0 -0 1 2.75
1 0 19 1 0 
2 30.231991156842128 -287.0364830683917 1 0 -0 1 2.75
1 0 19 1 0 
2 80 -314.05000000000007 1 0 -0 1 2.75
1 0 19 1 0 
2 30.231991156842071 -141.06351693160843 1 0 -0 1 2.75
1 0 19 1 0 
2 72.986483068391635 -183.818008843158 1 0 -0 1 2.75
1 0 19 1 0 
2 -120 195.94999999999993 1 0 -0 1 2.75
1 0 19 1 0 
2 -120 615.94999999999993 1 0 -0 1 2.75
1 0 19 1 0 
2 120 195.94999999999993 1 0 -0 1 2.75
1 0 19 1 0 
2 120 615.94999999999993 1 0 -0 1 2.75
1 0 19 1 0 
2 72.986483068391635 -244.28199115684214 1 0 -0 1 2.75
1 0 19 1 0 
2 -97.5 3.4499999999999318 1 0 -0 1 2.25
1 0 19 1 0 
2 97.5 3.4499999999999318 1 0 -0 1 2.25
1 0 19 1 0 
2 -202.5 3.4499999999999318 1 0 -0 1 2.25
1 0 19 1 0 
2 202.5 3.4499999999999318 1 0 -0 1 2.25
1 0 19 1 0 
2 -202.5 108.44999999999993 1 0 -0 1 2.25
1 0 19 1 0 
2 -97.5 108.44999999999993 1 0 -0 1 2.25
1 0 19 1 0 
2 97.5 108.44999999999993 1 0 -0 1 2.25
1 0 19 1 0 
2 202.5 108.44999999999993 1 0 -0 1 2.25
1 0 19 1 0 
1 6.2831853071795862 -0 0 1 
1 0 -0 0 1 
1 0 1 1 0 
2 0 -214.04999999999984 -1 0 0 1 71.75
1 6.2831853071795862 -0 0 1 
1 0 -0 0 1 
1 0 1 1 0 
2 -150 55.950000000000159 -1 0 0 1 58
1 6.2831853071795862 -0 0 1 
1 0 -0 0 1 
1 0 1 1 0 
2 150 55.950000000000159 -1 0 0 1 58
1 6.2831853071795862 -0 0 1 
1 0 -0 0 1 
1 0 1 1 0 
2 30.231991156842071 -141.06351693160821 -1 0 0 1 2.75
1 6.2831853071795862 -0 0 1 
1 0 -0 0 1 
1 0 1 1 0 
2 80 -474.04999999999984 -1 0 0 1 2.75
1 6.2831853071795862 -0 0 1 
1 0 -0 0 1 
1 0 1 1 0 
2 80 -314.04999999999984 -1 0 0 1 2.75
1 6.2831853071795862 -0 0 1 
1 0 -0 0 1 
1 0 1 1 0 
2 72.986483068391664 -244.28199115684191 -1 0 0 1 2.75
1 6.2831853071795862 -0 0 1 
1 0 -0 0 1 
1 0 1 1 0 
2 30.231991156842071 -287.03648306839148 -1 0 0 1 2.75
1 6.2831853071795862 -0 0 1 
1 0 -0 0 1 
1 0 1 1 0 
2 72.986483068391635 -183.81800884315771 -1 0 0 1 2.75
1 6.2831853071795862 -0 0 1 
1 0 -0 0 1 
1 0 1 1 0 
2 -80 -474.04999999999984 -1 0 0 1 2.75
1 6.2831853071795862 -0 0 1 
1 0 -0 0 1 
1 0 1 1 0 
2 -30.231991156842128 -287.03648306839148 -1 0 0 1 2.75
1 6.2831853071795862 -0 0 1 
1 0 -0 0 1 
1 0 1 1 0 
2 -80 -314.04999999999984 -1 0 0 1 2.75
1 6.2831853071795862 -0 0 1 
1 0 -0 0 1 
1 0 1 1 0 
2 -30.231991156842071 -141.06351693160821 -1 0 0 1 2.75
1 6.2831853071795862 -0 0 1 
1 0 -0 0 1 
1 0 1 1 0 
2 -72.986483068391635 -183.81800884315777 -1 0 0 1 2.75
1 6.2831853071795862 -0 0 1 
1 0 -0 0 1 
1 0 1 1 0 
2 120 195.95000000000016 -1 0 0 1 2.75
1 6.2831853071795862 -0 0 1 
1 0 -0 0 1 
1 0 1 1 0 
2 120 615.95000000000016 -1 0 0 1 2.75
1 6.2831853071795862 -0 0 1 
1 0 -0 0 1 
1 0 1 1 0 
2 -120 195.95000000000016 -1 0 0 1 2.75
1 6.2831853071795862 -0 0 1 
1 0 -0 0 1 
1 0 1 1 0 
2 -120 615.95000000000016 -1 0 0 1 2.75
1 6.2831853071795862 -0 0 1 
1 0 -0 0 1 
1 0 1 1 0 
2 -72.986483068391635 -244.28199115684191 -1 0 0 1 2.75
1 6.2831853071795862 -0 0 1 
1 0 -0 0 1 
1 0 1 1 0 
2 97.5 3.4500000000001592 -1 0 0 1 2.25
1 6.2831853071795862 -0 0 1 
1 0 -0 0 1 
1 0 1 1 0 
2 -97.5 3.4500000000001592 -1 0 0 1 2.25
1 6.2831853071795862 -0 0 1 
1 0 -0 0 1 
1 0 1 1 0 
2 202.5 3.4500000000001592 -1 0 0 1 2.25
1 6.2831853071795862 -0 0 1 
1 0 -0 0 1 
1 0 1 1 0 
2 -202.5 3.4500000000001592 -1 0 0 1 2.25
1 6.2831853071795862 -0 0 1 
1 0 -0 0 1 
1 0 1 1 0 
2 202.5 108.45000000000016 -1 0 0 1 2.25
1 6.2831853071795862 -0 0 1 
1 0 -0 0 1 
1 0 1 1 0 
2 97.5 108.45000000000016 -1 0 0 1 2.25
1 6.2831853071795862 -0 0 1 
1 0 -0 0 1 
1 0 1 1 0 
2 -97.5 108.45000000000016 -1 0 0 1 2.25
1 6.2831853071795862 -0 0 1 
1 0 -0 0 1 
1 0 1 1 0 
2 -202.5 108.45000000000016 -1 0 0 1 2.25
1 286 636.05000000000007 -1 0 
1 -9 -286 0 1 
2 -80 125.95000000000016 -1 0 0 1 3
1 0 0 1 0 
2 -220 125.95000000000016 -1 0 0 1 3
1 0 0 1 0 
2 220 -14.049999999999841 -1 0 0 1 3
1 0 0 1 0 
2 80 -14.049999999999841 -1 0 0 1 3
1 0 0 1 0 
2 220 125.95000000000016 -1 0 0 1 3
1 0 0 1 0 
2 -220 -14.049999999999841 -1 0 0 1 3
1 0 0 1 0 
2 -80 -14.049999999999841 -1 0 0 1 3
1 0 0 1 0 
2 80 125.95000000000016 -1 0 0 1 3
1 0 0 1 0 
1 0 8 1 0 
2 0 0 1 0 -0 1 3
1 0 0 1 0 
1 0 -1 1 0 
1 6.2831853071795862 -0 0 1 
1 0 -0 0 1 
1 0 8 1 0 
2 0 0 1 0 -0 1 3
1 0 0 1 0 
1 0 -1 1 0 
1 6.2831853071795862 -0 0 1 
1 0 -0 0 1 
1 0 8 1 0 
2 0 0 1 0 -0 1 3
1 0 0 1 0 
1 0 -1 1 0 
1 6.2831853071795862 -0 0 1 
1 0 -0 0 1 
1 0 8 1 0 
2 0 0 1 0 -0 1 3
1 0 0 1 0 
1 0 -1 1 0 
1 6.2831853071795862 -0 0 1 
1 0 -0 0 1 
1 0 8 1 0 
2 0 0 1 0 -0 1 3
1 0 0 1 0 
1 0 -1 1 0 
1 6.2831853071795862 -0 0 1 
1 0 -0 0 1 
1 0 8 1 0 
2 0 0 1 0 -0 1 3
1 0 0 1 0 
1 0 -1 1 0 
1 6.2831853071795862 -0 0 1 
1 0 -0 0 1 
1 0 8 1 0 
2 0 0 1 0 -0 1 3
1 0 0 1 0 
1 0 -1 1 0 
1 6.2831853071795862 -0 0 1 
1 0 -0 0 1 
1 0 8 1 0 
2 0 0 1 0 -0 1 3
1 0 0 1 0 
1 0 -1 1 0 
1 6.2831853071795862 -0 0 1 
1 0 -0 0 1 
Curves 117
1 14 18 18 0 0 1 
1 14 18 36 -0 1 0 
1 14 1290.0999999999999 18 0 0 1 
1 14 18 18 -0 1 0 
1 14 18 18 1 0 -0 
1 586 18 18 0 0 1 
1 582 18 36 1 0 -0 
1 586 18 36 -0 1 0 
1 586 1290.0999999999999 18 0 0 1 
1 586 18 18 -0 1 0 
1 582 1290.0999999999999 36 1 0 -0 
2 300 440 36 0 0 1 1 0 -0 -0 1 0 71.75
2 450 710 36 0 0 1 1 0 -0 -0 1 0 58
2 150 710 36 0 0 1 1 0 -0 -0 1 0 58
2 269.76800884315793 512.98648306839164 36 0 0 1 1 0 -0 -0 1 0 2.75
2 220 180 36 0 0 1 1 0 -0 -0 1 0 2.75
2 220 340 36 0 0 1 1 0 -0 -0 1 0 2.75
2 227.01351693160834 409.76800884315793 36 0 0 1 1 0 -0 -0 1 0 2.75
2 269.76800884315793 367.01351693160836 36 0 0 1 1 0 -0 -0 1 0 2.75
2 227.01351693160836 470.23199115684213 36 0 0 1 1 0 -0 -0 1 0 2.75
2 380 180 36 0 0 1 1 0 -0 -0 1 0 2.75
2 330.23199115684213 367.01351693160836 36 0 0 1 1 0 -0 -0 1 0 2.75
2 380 340 36 0 0 1 1 0 -0 -0 1 0 2.75
2 330.23199115684207 512.98648306839164 36 0 0 1 1 0 -0 -0 1 0 2.75
2 372.98648306839164 470.23199115684207 36 0 0 1 1 0 -0 -0 1 0 2.75
2 180 850 36 0 0 1 1 0 -0 -0 1 0 2.75
2 180 1270 36 0 0 1 1 0 -0 -0 1 0 2.75
2 420 850 36 0 0 1 1 0 -0 -0 1 0 2.75
2 420 1270 36 0 0 1 1 0 -0 -0 1 0 2.75
2 372.98648306839164 409.76800884315793 36 0 0 1 1 0 -0 -0 1 0 2.75
2 202.5 657.5 36 0 0 1 1 0 -0 -0 1 0 2.25
2 397.5 657.5 36 0 0 1 1 0 -0 -0 1 0 2.25
2 97.5 657.5 36 0 0 1 1 0 -0 -0 1 0 2.25
2 502.5 657.5 36 0 0 1 1 0 -0 -0 1 0 2.25
2 97.5 762.5 36 0 0 1 1 0 -0 -0 1 0 2.25
2 202.5 762.5 36 0 0 1 1 0 -0 -0 1 0 2.25
2 397.5 762.5 36 0 0 1 1 0 -0 -0 1 0 2.25
2 502.5 762.5 36 0 0 1 1 0 -0 -0 1 0 2.25
1 371.75 439.99999999999994 17 0 0 1 
2 300 440 18 0 0 1 1 0 -0 -0 1 0 71.75
1 508 710 17 0 0 1 
2 450 710 18 0 0 1 1 0 -0 -0 1 0 58
1 208 710 17 0 0 1 
2 150 710 18 0 0 1 1 0 -0 -0 1 0 58
1 272.51800884315793 512.98648306839164 17 0 0 1 
2 269.76800884315793 512.98648306839164 18 0 0 1 1 0 -0 -0 1 0 2.75
1 222.75 180 17 0 0 1 
2 220 180 18 0 0 1 1 0 -0 -0 1 0 2.75
1 222.75 340 17 0 0 1 
2 220 340 18 0 0 1 1 0 -0 -0 1 0 2.75
1 229.76351693160834 409.76800884315793 17 0 0 1 
2 227.01351693160834 409.76800884315793 18 0 0 1 1 0 -0 -0 1 0 2.75
1 272.51800884315793 367.01351693160836 17 0 0 1 
2 269.76800884315793 367.01351693160836 18 0 0 1 1 0 -0 -0 1 0 2.75
1 229.76351693160836 470.23199115684213 17 0 0 1 
2 227.01351693160836 470.23199115684213 18 0 0 1 1 0 -0 -0 1 0 2.75
1 382.75 180 17 0 0 1 
2 380 180 18 0 0 1 1 0 -0 -0 1 0 2.75
1 332.98199115684213 367.01351693160836 17 0 0 1 
2 330.23199115684213 367.01351693160836 18 0 0 1 1 0 -0 -0 1 0 2.75
1 382.75 340 17 0 0 1 
2 380 340 18 0 0 1 1 0 -0 -0 1 0 2.75
1 332.98199115684207 512.98648306839164 17 0 0 1 
2 330.23199115684207 512.98648306839164 18 0 0 1 1 0 -0 -0 1 0 2.75
1 375.73648306839164 470.23199115684207 17 0 0 1 
2 372.98648306839164 470.23199115684207 18 0 0 1 1 0 -0 -0 1 0 2.75
1 182.75 850 17 0 0 1 
2 180 850 18 0 0 1 1 0 -0 -0 1 0 2.75
1 182.75 1270 17 0 0 1 
2 180 1270 18 0 0 1 1 0 -0 -0 1 0 2.75
1 422.75 850 17 0 0 1 
2 420 850 18 0 0 1 1 0 -0 -0 1 0 2.75
1 422.75 1270 17 0 0 1 
2 420 1270 18 0 0 1 1 0 -0 -0 1 0 2.75
1 375.73648306839164 409.76800884315793 17 0 0 1 
2 372.98648306839164 409.76800884315793 18 0 0 1 1 0 -0 -0 1 0 2.75
1 204.75 657.5 17 0 0 1 
2 202.5 657.5 18 0 0 1 1 0 -0 -0 1 0 2.25
1 399.75 657.5 17 0 0 1 
2 397.5 657.5 18 0 0 1 1 0 -0 -0 1 0 2.25
1 99.75 657.5 17 0 0 1 
2 97.5 657.5 18 0 0 1 1 0 -0 -0 1 0 2.25
1 504.75 657.5 17 0 0 1 
2 502.5 657.5 18 0 0 1 1 0 -0 -0 1 0 2.25
1 99.75 762.5 17 0 0 1 
2 97.5 762.5 18 0 0 1 1 0 -0 -0 1 0 2.25
1 204.75 762.5 17 0 0 1 
2 202.5 762.5 18 0 0 1 1 0 -0 -0 1 0 2.25
1 399.75 762.5 17 0 0 1 
2 397.5 762.5 18 0 0 1 1 0 -0 -0 1 0 2.25
1 504.75 762.5 17 0 0 1 
2 502.5 762.5 18 0 0 1 1 0 -0 -0 1 0 2.25
1 14 1290.0999999999999 18 1 0 -0 
2 380 780 18 0 0 1 1 0 -0 -0 1 0 3
2 520 780 18 0 0 1 1 0 -0 -0 1 0 3
2 80 640 18 0 0 1 1 0 -0 -0 1 0 3
2 220 640 18 0 0 1 1 0 -0 -0 1 0 3
2 80 780 18 0 0 1 1 0 -0 -0 1 0 3
2 520 640 18 0 0 1 1 0 -0 -0 1 0 3
2 380 640 18 0 0 1 1 0 -0 -0 1 0 3
2 220 780 18 0 0 1 1 0 -0 -0 1 0 3
2 380 780 26 0 0 1 1 0 -0 -0 1 0 3
1 383 780 18 0 0 1 
2 520 780 26 0 0 1 1 0 -0 -0 1 0 3
1 523 780 18 0 0 1 
2 80 640 26 0 0 1 1 0 -0 -0 1 0 3
1 83 640 18 0 0 1 
2 220 640 26 0 0 1 1 0 -0 -0 1 0 3
1 223 640 18 0 0 1 
2 80 780 26 0 0 1 1 0 -0 -0 1 0 3
1 83 780 18 0 0 1 
2 520 640 26 0 0 1 1 0 -0 -0 1 0 3
1 523 640 18 0 0 1 
2 380 640 26 0 0 1 1 0 -0 -0 1 0 3
1 383 640 18 0 0 1 
2 220 780 26 0 0 1 1 0 -0 -0 1 0 3
1 223 780 18 0 0 1 
Polygon3D 0
PolygonOnTriangulations 0
Surfaces 57
1 14 18 18 1 0 -0 0 0 1 0 -1 0 
1 300 18 27 -0 -1 -0 0 0 -1 1 -0 0 
1 300 654.05000000000007 36.000000000000007 0 0 1 1 0 -0 -0 1 0 
1 300 1290.0999999999997 27 0 1 0 0 -0 1 1 0 -0 
1 300 654.04999999999984 18.000000000000004 -0 -0 -1 -1 0 0 0 1 -0 
1 586 18 18 1 0 -0 0 0 1 0 -1 0 
2 300 440 17 0 0 1 1 0 -0 -0 1 0 71.75
2 450 710 17 0 0 1 1 0 -0 -0 1 0 58
2 150 710 17 0 0 1 1 0 -0 -0 1 0 58
2 269.76800884315793 512.98648306839164 17 0 0 1 1 0 -0 -0 1 0 2.75
2 220 180 17 0 0 1 1 0 -0 -0 1 0 2.75
2 220 340 17 0 0 1 1 0 -0 -0 1 0 2.75
2 227.01351693160834 409.76800884315793 17 0 0 1 1 0 -0 -0 1 0 2.75
2 269.76800884315793 367.01351693160836 17 0 0 1 1 0 -0 -0 1 0 2.75
2 227.01351693160836 470.23199115684213 17 0 0 1 1 0 -0 -0 1 0 2.75
2 380 180 17 0 0 1 1 0 -0 -0 1 0 2.75
2 330.23199115684213 367.01351693160836 17 0 0 1 1 0 -0 -0 1 0 2.75
2 380 340 17 0 0 1 1 0 -0 -0 1 0 2.75
2 330.23199115684207 512.98648306839164 17 0 0 1 1 0 -0 -0 1 0 2.75
2 372.98648306839164 470.23199115684207 17 0 0 1 1 0 -0 -0 1 0 2.75
2 180 850 17 0 0 1 1 0 -0 -0 1 0 2.75
2 180 1270 17 0 0 1 1 0 -0 -0 1 0 2.75
2 420 850 17 0 0 1 1 0 -0 -0 1 0 2.75
2 420 1270 17 0 0 1 1 0 -0 -0 1 0 2.75
2 372.98648306839164 409.76800884315793 17 0 0 1 1 0 -0 -0 1 0 2.75
2 202.5 657.5 17 0 0 1 1 0 -0 -0 1 0 2.25
2 397.5 657.5 17 0 0 1 1 0 -0 -0 1 0 2.25
2 97.5 657.5 17 0 0 1 1 0 -0 -0 1 0 2.25
2 502.5 657.5 17 0 0 1 1 0 -0 -0 1 0 2.25
2 97.5 762.5 17 0 0 1 1 0 -0 -0 1 0 2.25
2 202.5 762.5 17 0 0 1 1 0 -0 -0 1 0 2.25
2 397.5 762.5 17 0 0 1 1 0 -0 -0 1 0 2.25
2 502.5 762.5 17 0 0 1 1 0 -0 -0 1 0 2.25
2 380 780 18 0 0 1 1 0 -0 -0 1 0 3
2 520 780 18 0 0 1 1 0 -0 -0 1 0 3
2 80 640 18 0 0 1 1 0 -0 -0 1 0 3
2 220 640 18 0 0 1 1 0 -0 -0 1 0 3
2 80 780 18 0 0 1 1 0 -0 -0 1 0 3
2 520 640 18 0 0 1 1 0 -0 -0 1 0 3
2 380 640 18 0 0 1 1 0 -0 -0 1 0 3
2 220 780 18 0 0 1 1 0 -0 -0 1 0 3
1 380 780 26 0 0 1 1 0 -0 -0 1 0 
2 366 762 0 -0 -0 -1 1 0 0 0 1 0 3
1 520 780 26 0 0 1 1 0 -0 -0 1 0 
2 506 762 0 -0 -0 -1 1 0 0 0 1 0 3
1 80 640 26 0 0 1 1 0 -0 -0 1 0 
2 66 622 0 -0 -0 -1 1 0 0 0 1 0 3
1 220 640 26 0 0 1 1 0 -0 -0 1 0 
2 206 622 0 -0 -0 -1 1 0 0 0 1 0 3
1 80 780 26 0 0 1 1 0 -0 -0 1 0 
2 66 762 0 -0 -0 -1 1 0 0 0 1 0 3
1 520 640 26 0 0 1 1 0 -0 -0 1 0 
2 506 622 0 -0 -0 -1 1 0 0 0 1 0 3
1 380 640 26 0 0 1 1 0 -0 -0 1 0 
2 366 622 0 -0 -0 -1 1 0 0 0 1 0 3
1 220 780 26 0 0 1 1 0 -0 -0 1 0 
2 206 762 0 -0 -0 -1 1 0 0 0 1 0 3
Triangulations 0

TShapes 358
Ve
1e-07
14 18 36
0 0

0101101
*
Ve
1e-07
14 18 18
0 0

0101101
*
Ed
 1e-07 1 1 0
1  1 0 0 18
2  1 1 0 0 18
2  2 2 0 0 18
0

0101000
-358 5 +357 5 *
Ve
1.00000011e-07
14 1290.1 36
0 0

0101101
*
Ed
 1e-07 1 1 0
1  2 0 0 1272.1
2  3 1 0 0 1272.1
2  4 3 0 0 1272.1
0

0101000
-355 5 +358 5 *
Ve
1.00000011e-07
14 1290.1 18
0 0

0101101
*
Ed
 1.00000011e-07 1 1 0
1  3 0 0 18
2  5 1 0 0 18
2  6 4 0 0 18
0

0101000
-355 5 +353 5 *
Ed
 1e-07 1 1 0
1  4 0 0 1272.1
2  7 1 0 0 1272.1
2  8 5 0 0 1272.1
0

0101000
-353 5 +357 5 *
Wi

0101100
-356 0 -354 0 +352 0 +351 0 *
Fa
0  1e-07 1 0

0111000
+350 0 *
Ve
1e-07
586 18 18
0 0

0101101
*
Ed
 1e-07 1 1 0
1  5 0 0 572
2  9 2 0 0 572
2  10 5 0 0 572
0

0101000
+357 5 -348 5 *
Ve
1e-07
586 18 36
0 0

0101101
*
Ed
 1e-07 1 1 0
1  6 0 0 18
2  11 2 0 0 18
2  12 6 0 0 18
0

0101000
-346 5 +348 5 *
Ed
 1e-07 1 1 0
1  7 0 -568 4
2  13 2 0 -568 4
2  14 3 0 -568 4
0

0101000
+358 5 -346 5 *
Wi

0101000
-356 0 +347 0 +345 0 -344 0 *
Fa
0  1e-07 2 0

0111000
+343 0 *
Ve
1.00000032e-07
586 1290.1 36
0 0

0101101
*
Ed
 1e-07 1 1 0
1  8 0 0 1272.1
2  15 6 0 0 1272.1
2  16 3 0 0 1272.1
0

0101000
-341 5 +346 5 *
Ve
1.00000032e-07
586 1290.1 18
0 0

0101101
*
Ed
 1.00000032e-07 1 1 0
1  9 0 0 18
2  17 6 0 0 18
2  18 4 0 0 18
0

0101000
-341 5 +339 5 *
Ed
 1e-07 1 1 0
1  10 0 0 1272.1
2  19 6 0 0 1272.1
2  20 5 0 0 1272.1
0

0101000
-339 5 +348 5 *
Wi

0101100
-345 0 -340 0 +338 0 +337 0 *
Fa
0  1e-07 6 0

0111000
+336 0 *
Ed
 1e-07 1 1 0
1  11 0 -568 4
2  21 3 0 -568 4
2  22 4 0 -568 4
0

0101000
+355 5 -341 5 *
Wi

0101100
-354 0 +344 0 +340 0 -334 0 *
Ve
1.00000057e-07
371.75 440 36
0 0

0101101
*
Ed
 1e-07 1 1 0
1  12 0 0 6.28318530717959
2  23 3 9 0 6.28318530717959
2  24 7 0 0 6.28318530717959
0

0101100
+332 10 -332 10 *
Wi

0101100
-331 8 *
Ve
1e-07
508 710 36
0 0

0101101
*
Ed
 1e-07 1 1 0
1  13 0 0 6.28318530717959
2  25 3 11 0 6.28318530717959
2  26 8 0 0 6.28318530717959
0

0101100
+329 12 -329 12 *
Wi

0101100
-328 7 *
Ve
1e-07
208 710 36
0 0

0101101
*
Ed
 1e-07 1 1 0
1  14 0 0 6.28318530717959
2  27 3 11 0 6.28318530717959
2  28 9 0 0 6.28318530717959
0

0101100
+326 12 -326 12 *
Wi

0101100
-325 7 *
Ve
1e-07
272.518008843158 512.986483068392 36
0 0

0101101
*
Ed
 1e-07 1 1 0
1  15 0 0 6.28318530717959
2  29 3 9 0 6.28318530717959
2  30 10 0 0 6.28318530717959
0

0101100
+323 10 -323 10 *
Wi

0101100
-322 8 *
Ve
1e-07
222.75 180 36
0 0

0101101
*
Ed
 1e-07 1 1 0
1  16 0 0 6.28318530717959
2  31 3 9 0 6.28318530717959
2  32 11 0 0 6.28318530717959
0

0101100
+320 10 -320 10 *
Wi

0101100
-319 8 *
Ve
1e-07
222.75 340 36
0 0

0101101
*
Ed
 1e-07 1 1 0
1  17 0 0 6.28318530717959
2  33 3 9 0 6.28318530717959
2  34 12 0 0 6.28318530717959
0

0101100
+317 10 -317 10 *
Wi

0101100
-316 8 *
Ve
1e-07
229.763516931608 409.768008843158 36
0 0

0101101
*
Ed
 1e-07 1 1 0
1  18 0 0 6.28318530717959
2  35 3 9 0 6.28318530717959
2  36 13 0 0 6.28318530717959
0

0101100
+314 10 -314 10 *
Wi

0101100
-313 8 *
Ve
1e-07
272.518008843158 367.013516931608 36
0 0

0101101
*
Ed
 1e-07 1 1 0
1  19 0 0 6.28318530717959
2  37 3 9 0 6.28318530717959
2  38 14 0 0 6.28318530717959
0

0101100
+311 10 -311 10 *
Wi

0101100
-310 8 *
Ve
1e-07
229.763516931608 470.231991156842 36
0 0

0101101
*
Ed
 1e-07 1 1 0
1  20 0 0 6.28318530717959
2  39 3 9 0 6.28318530717959
2  40 15 0 0 6.28318530717959
0

0101100
+308 10 -308 10 *
Wi

0101100
-307 8 *
Ve
1e-07
382.75 180 36
0 0

0101101
*
Ed
 1e-07 1 1 0
1  21 0 0 6.28318530717959
2  41 3 9 0 6.28318530717959
2  42 16 0 0 6.28318530717959
0

0101100
+305 10 -305 10 *
Wi

0101100
-304 8 *
Ve
1e-07
332.981991156842 367.013516931608 36
0 0

0101101
*
Ed
 1e-07 1 1 0
1  22 0 0 6.28318530717959
2  43 3 9 0 6.28318530717959
2  44 17 0 0 6.28318530717959
0

0101100
+302 10 -302 10 *
Wi

0101100
-301 8 *
Ve
1e-07
382.75 340 36
0 0

0101101
*
Ed
 1e-07 1 1 0
1  23 0 0 6.28318530717959
2  45 3 9 0 6.28318530717959
2  46 18 0 0 6.28318530717959
0

0101100
+299 10 -299 10 *
Wi

0101100
-298 8 *
Ve
1e-07
332.981991156842 512.986483068392 36
0 0

0101101
*
Ed
 1e-07 1 1 0
1  24 0 0 6.28318530717959
2  47 3 9 0 6.28318530717959
2  48 19 0 0 6.28318530717959
0

0101100
+296 10 -296 10 *
Wi

0101100
-295 8 *
Ve
1e-07
375.736483068392 470.231991156842 36
0 0

0101101
*
Ed
 1e-07 1 1 0
1  25 0 0 6.28318530717959
2  49 3 9 0 6.28318530717959
2  50 20 0 0 6.28318530717959
0

0101100
+293 10 -293 10 *
Wi

0101100
-292 8 *
Ve
1e-07
182.75 850 36
0 0

0101101
*
Ed
 1e-07 1 1 0
1  26 0 0 6.28318530717959
2  51 3 9 0 6.28318530717959
2  52 21 0 0 6.28318530717959
0

0101100
+290 10 -290 10 *
Wi

0101100
-289 8 *
Ve
1e-07
182.75 1270 36
0 0

0101101
*
Ed
 1e-07 1 1 0
1  27 0 0 6.28318530717959
2  53 3 9 0 6.28318530717959
2  54 22 0 0 6.28318530717959
0

0101100
+287 10 -287 10 *
Wi

0101100
-286 8 *
Ve
1e-07
422.75 850 36
0 0

0101101
*
Ed
 1e-07 1 1 0
1  28 0 0 6.28318530717959
2  55 3 9 0 6.28318530717959
2  56 23 0 0 6.28318530717959
0

0101100
+284 10 -284 10 *
Wi

0101100
-283 8 *
Ve
1e-07
422.75 1270 36
0 0

0101101
*
Ed
 1e-07 1 1 0
1  29 0 0 6.28318530717959
2  57 3 9 0 6.28318530717959
2  58 24 0 0 6.28318530717959
0

0101100
+281 10 -281 10 *
Wi

0101100
-280 8 *
Ve
1e-07
375.736483068392 409.768008843158 36
0 0

0101101
*
Ed
 1e-07 1 1 0
1  30 0 0 6.28318530717959
2  59 3 9 0 6.28318530717959
2  60 25 0 0 6.28318530717959
0

0101100
+278 10 -278 10 *
Wi

0101100
-277 8 *
Ve
1e-07
204.75 657.5 36
0 0

0101101
*
Ed
 1e-07 1 1 0
1  31 0 0 6.28318530717959
2  61 3 11 0 6.28318530717959
2  62 26 0 0 6.28318530717959
0

0101100
+275 12 -275 12 *
Wi

0101100
-274 7 *
Ve
1e-07
399.75 657.5 36
0 0

0101101
*
Ed
 1e-07 1 1 0
1  32 0 0 6.28318530717959
2  63 3 11 0 6.28318530717959
2  64 27 0 0 6.28318530717959
0

0101100
+272 12 -272 12 *
Wi

0101100
-271 7 *
Ve
1e-07
99.75 657.5 36
0 0

0101101
*
Ed
 1e-07 1 1 0
1  33 0 0 6.28318530717959
2  65 3 11 0 6.28318530717959
2  66 28 0 0 6.28318530717959
0

0101100
+269 12 -269 12 *
Wi

0101100
-268 7 *
Ve
1e-07
504.75 657.5 36
0 0

0101101
*
Ed
 1e-07 1 1 0
1  34 0 0 6.28318530717959
2  67 3 11 0 6.28318530717959
2  68 29 0 0 6.28318530717959
0

0101100
+266 12 -266 12 *
Wi

0101100
-265 7 *
Ve
1e-07
99.75 762.5 36
0 0

0101101
*
Ed
 1e-07 1 1 0
1  35 0 0 6.28318530717959
2  69 3 11 0 6.28318530717959
2  70 30 0 0 6.28318530717959
0

0101100
+263 12 -263 12 *
Wi

0101100
-262 7 *
Ve
1e-07
204.75 762.5 36
0 0

0101101
*
Ed
 1e-07 1 1 0
1  36 0 0 6.28318530717959
2  71 3 11 0 6.28318530717959
2  72 31 0 0 6.28318530717959
0

0101100
+260 12 -260 12 *
Wi

0101100
-259 7 *
Ve
1e-07
399.75 762.5 36
0 0

0101101
*
Ed
 1e-07 1 1 0
1  37 0 0 6.28318530717959
2  73 3 11 0 6.28318530717959
2  74 32 0 0 6.28318530717959
0

0101100
+257 12 -257 12 *
Wi

0101100
-256 7 *
Ve
1e-07
504.75 762.5 36
0 0

0101101
*
Ed
 1e-07 1 1 0
1  38 0 0 6.28318530717959
2  75 3 11 0 6.28318530717959
2  76 33 0 0 6.28318530717959
0

0101100
+254 12 -254 12 *
Wi

0101100
-253 7 *
Fa
0  1e-07 3 0

0111000
+333 0 +330 0 +327 0 +324 0 +321 0 +318 0 +315 0 +312 0 +309 0 +306 0 
+303 0 +300 0 +297 0 +294 0 +291 0 +288 0 +285 0 +282 0 +279 0 +276 0 
+273 0 +270 0 +267 0 +264 0 +261 0 +258 0 +255 0 +252 0 *
Ve
1.00000057e-07
371.75 440 18
0 0

0101101
*
Ed
 1e-07 1 1 0
1  39 0 1 19
3  77 78CN 7 0 1 19
0

0101000
+250 10 -332 10 *
Ed
 1e-07 1 1 0
1  40 0 0 6.28318530717959
2  79 7 0 0 6.28318530717959
2  80 5 9 0 6.28318530717959
0

0101100
+250 10 -250 10 *
Wi

0101100
-331 0 +249 0 +248 0 -249 0 *
Fa
0  1e-07 7 0

0111000
+247 0 *
Ve
1e-07
508 710 18
0 0

0101101
*
Ed
 1e-07 1 1 0
1  41 0 1 19
3  81 82CN 8 0 1 19
0

0101000
+245 12 -329 12 *
Ed
 1e-07 1 1 0
1  42 0 0 6.28318530717959
2  83 8 0 0 6.28318530717959
2  84 5 11 0 6.28318530717959
0

0101100
+245 12 -245 12 *
Wi

0101100
-328 0 +244 0 +243 0 -244 0 *
Fa
0  1e-07 8 0

0111000
+242 0 *
Ve
1e-07
208 710 18
0 0

0101101
*
Ed
 1e-07 1 1 0
1  43 0 1 19
3  85 86CN 9 0 1 19
0

0101000
+240 12 -326 12 *
Ed
 1e-07 1 1 0
1  44 0 0 6.28318530717959
2  87 9 0 0 6.28318530717959
2  88 5 11 0 6.28318530717959
0

0101100
+240 12 -240 12 *
Wi

0101100
-325 0 +239 0 +238 0 -239 0 *
Fa
0  1e-07 9 0

0111000
+237 0 *
Ve
1e-07
272.518008843158 512.986483068392 18
0 0

0101101
*
Ed
 1e-07 1 1 0
1  45 0 1 19
3  89 90CN 10 0 1 19
0

0101000
+235 10 -323 10 *
Ed
 1e-07 1 1 0
1  46 0 0 6.28318530717959
2  91 10 0 0 6.28318530717959
2  92 5 9 0 6.28318530717959
0

0101100
+235 10 -235 10 *
Wi

0101100
-322 0 +234 0 +233 0 -234 0 *
Fa
0  1e-07 10 0

0111000
+232 0 *
Ve
1e-07
222.75 180 18
0 0

0101101
*
Ed
 1e-07 1 1 0
1  47 0 1 19
3  93 94CN 11 0 1 19
0

0101000
+230 10 -320 10 *
Ed
 1e-07 1 1 0
1  48 0 0 6.28318530717959
2  95 11 0 0 6.28318530717959
2  96 5 9 0 6.28318530717959
0

0101100
+230 10 -230 10 *
Wi

0101100
-319 0 +229 0 +228 0 -229 0 *
Fa
0  1e-07 11 0

0111000
+227 0 *
Ve
1e-07
222.75 340 18
0 0

0101101
*
Ed
 1e-07 1 1 0
1  49 0 1 19
3  97 98CN 12 0 1 19
0

0101000
+225 10 -317 10 *
Ed
 1e-07 1 1 0
1  50 0 0 6.28318530717959
2  99 12 0 0 6.28318530717959
2  100 5 9 0 6.28318530717959
0

0101100
+225 10 -225 10 *
Wi

0101100
-316 0 +224 0 +223 0 -224 0 *
Fa
0  1e-07 12 0

0111000
+222 0 *
Ve
1e-07
229.763516931608 409.768008843158 18
0 0

0101101
*
Ed
 1e-07 1 1 0
1  51 0 1 19
3  101 102CN 13 0 1 19
0

0101000
+220 10 -314 10 *
Ed
 1e-07 1 1 0
1  52 0 0 6.28318530717959
2  103 13 0 0 6.28318530717959
2  104 5 9 0 6.28318530717959
0

0101100
+220 10 -220 10 *
Wi

0101100
-313 0 +219 0 +218 0 -219 0 *
Fa
0  1e-07 13 0

0111000
+217 0 *
Ve
1e-07
272.518008843158 367.013516931608 18
0 0

0101101
*
Ed
 1e-07 1 1 0
1  53 0 1 19
3  105 106CN 14 0 1 19
0

0101000
+215 10 -311 10 *
Ed
 1e-07 1 1 0
1  54 0 0 6.28318530717959
2  107 14 0 0 6.28318530717959
2  108 5 9 0 6.28318530717959
0

0101100
+215 10 -215 10 *
Wi

0101100
-310 0 +214 0 +213 0 -214 0 *
Fa
0  1e-07 14 0

0111000
+212 0 *
Ve
1e-07
229.763516931608 470.231991156842 18
0 0

0101101
*
Ed
 1e-07 1 1 0
1  55 0 1 19
3  109 110CN 15 0 1 19
0

0101000
+210 10 -308 10 *
Ed
 1e-07 1 1 0
1  56 0 0 6.28318530717959
2  111 15 0 0 6.28318530717959
2  112 5 9 0 6.28318530717959
0

0101100
+210 10 -210 10 *
Wi

0101100
-307 0 +209 0 +208 0 -209 0 *
Fa
0  1e-07 15 0

0111000
+207 0 *
Ve
1e-07
382.75 180 18
0 0

0101101
*
Ed
 1e-07 1 1 0
1  57 0 1 19
3  113 114CN 16 0 1 19
0

0101000
+205 10 -305 10 *
Ed
 1e-07 1 1 0
1  58 0 0 6.28318530717959
2  115 16 0 0 6.28318530717959
2  116 5 9 0 6.28318530717959
0

0101100
+205 10 -205 10 *
Wi

0101100
-304 0 +204 0 +203 0 -204 0 *
Fa
0  1e-07 16 0

0111000
+202 0 *
Ve
1e-07
332.981991156842 367.013516931608 18
0 0

0101101
*
Ed
 1e-07 1 1 0
1  59 0 1 19
3  117 118CN 17 0 1 19
0

0101000
+200 10 -302 10 *
Ed
 1e-07 1 1 0
1  60 0 0 6.28318530717959
2  119 17 0 0 6.28318530717959
2  120 5 9 0 6.28318530717959
0

0101100
+200 10 -200 10 *
Wi

0101100
-301 0 +199 0 +198 0 -199 0 *
Fa
0  1e-07 17 0

0111000
+197 0 *
Ve
1e-07
382.75 340 18
0 0

0101101
*
Ed
 1e-07 1 1 0
1  61 0 1 19
3  121 122CN 18 0 1 19
0

0101000
+195 10 -299 10 *
Ed
 1e-07 1 1 0
1  62 0 0 6.28318530717959
2  123 18 0 0 6.28318530717959
2  124 5 9 0 6.28318530717959
0

0101100
+195 10 -195 10 *
Wi

0101100
-298 0 +194 0 +193 0 -194 0 *
Fa
0  1e-07 18 0

0111000
+192 0 *
Ve
1e-07
332.981991156842 512.986483068392 18
0 0

0101101
*
Ed
 1e-07 1 1 0
1  63 0 1 19
3  125 126CN 19 0 1 19
0

0101000
+190 10 -296 10 *
Ed
 1e-07 1 1 0
1  64 0 0 6.28318530717959
2  127 19 0 0 6.28318530717959
2  128 5 9 0 6.28318530717959
0

0101100
+190 10 -190 10 *
Wi

0101100
-295 0 +189 0 +188 0 -189 0 *
Fa
0  1e-07 19 0

0111000
+187 0 *
Ve
1e-07
375.736483068392 470.231991156842 18
0 0

0101101
*
Ed
 1e-07 1 1 0
1  65 0 1 19
3  129 130CN 20 0 1 19
0

0101000
+185 10 -293 10 *
Ed
 1e-07 1 1 0
1  66 0 0 6.28318530717959
2  131 20 0 0 6.28318530717959
2  132 5 9 0 6.28318530717959
0

0101100
+185 10 -185 10 *
Wi

0101100
-292 0 +184 0 +183 0 -184 0 *
Fa
0  1e-07 20 0

0111000
+182 0 *
Ve
1e-07
182.75 850 18
0 0

0101101
*
Ed
 1e-07 1 1 0
1  67 0 1 19
3  133 134CN 21 0 1 19
0

0101000
+180 10 -290 10 *
Ed
 1e-07 1 1 0
1  68 0 0 6.28318530717959
2  135 21 0 0 6.28318530717959
2  136 5 9 0 6.28318530717959
0

0101100
+180 10 -180 10 *
Wi

0101100
-289 0 +179 0 +178 0 -179 0 *
Fa
0  1e-07 21 0

0111000
+177 0 *
Ve
1e-07
182.75 1270 18
0 0

0101101
*
Ed
 1e-07 1 1 0
1  69 0 1 19
3  137 138CN 22 0 1 19
0

0101000
+175 10 -287 10 *
Ed
 1e-07 1 1 0
1  70 0 0 6.28318530717959
2  139 22 0 0 6.28318530717959
2  140 5 9 0 6.28318530717959
0

0101100
+175 10 -175 10 *
Wi

0101100
-286 0 +174 0 +173 0 -174 0 *
Fa
0  1e-07 22 0

0111000
+172 0 *
Ve
1e-07
422.75 850 18
0 0

0101101
*
Ed
 1e-07 1 1 0
1  71 0 1 19
3  141 142CN 23 0 1 19
0

0101000
+170 10 -284 10 *
Ed
 1e-07 1 1 0
1  72 0 0 6.28318530717959
2  143 23 0 0 6.28318530717959
2  144 5 9 0 6.28318530717959
0

0101100
+170 10 -170 10 *
Wi

0101100
-283 0 +169 0 +168 0 -169 0 *
Fa
0  1e-07 23 0

0111000
+167 0 *
Ve
1e-07
422.75 1270 18
0 0

0101101
*
Ed
 1e-07 1 1 0
1  73 0 1 19
3  145 146CN 24 0 1 19
0

0101000
+165 10 -281 10 *
Ed
 1e-07 1 1 0
1  74 0 0 6.28318530717959
2  147 24 0 0 6.28318530717959
2  148 5 9 0 6.28318530717959
0

0101100
+165 10 -165 10 *
Wi

0101100
-280 0 +164 0 +163 0 -164 0 *
Fa
0  1e-07 24 0

0111000
+162 0 *
Ve
1e-07
375.736483068392 409.768008843158 18
0 0

0101101
*
Ed
 1e-07 1 1 0
1  75 0 1 19
3  149 150CN 25 0 1 19
0

0101000
+160 10 -278 10 *
Ed
 1e-07 1 1 0
1  76 0 0 6.28318530717959
2  151 25 0 0 6.28318530717959
2  152 5 9 0 6.28318530717959
0

0101100
+160 10 -160 10 *
Wi

0101100
-277 0 +159 0 +158 0 -159 0 *
Fa
0  1e-07 25 0

0111000
+157 0 *
Ve
1e-07
204.75 657.5 18
0 0

0101101
*
Ed
 1e-07 1 1 0
1  77 0 1 19
3  153 154CN 26 0 1 19
0

0101000
+155 12 -275 12 *
Ed
 1e-07 1 1 0
1  78 0 0 6.28318530717959
2  155 26 0 0 6.28318530717959
2  156 5 11 0 6.28318530717959
0

0101100
+155 12 -155 12 *
Wi

0101100
-274 0 +154 0 +153 0 -154 0 *
Fa
0  1e-07 26 0

0111000
+152 0 *
Ve
1e-07
399.75 657.5 18
0 0

0101101
*
Ed
 1e-07 1 1 0
1  79 0 1 19
3  157 158CN 27 0 1 19
0

0101000
+150 12 -272 12 *
Ed
 1e-07 1 1 0
1  80 0 0 6.28318530717959
2  159 27 0 0 6.28318530717959
2  160 5 11 0 6.28318530717959
0

0101100
+150 12 -150 12 *
Wi

0101100
-271 0 +149 0 +148 0 -149 0 *
Fa
0  1e-07 27 0

0111000
+147 0 *
Ve
1e-07
99.75 657.5 18
0 0

0101101
*
Ed
 1e-07 1 1 0
1  81 0 1 19
3  161 162CN 28 0 1 19
0

0101000
+145 12 -269 12 *
Ed
 1e-07 1 1 0
1  82 0 0 6.28318530717959
2  163 28 0 0 6.28318530717959
2  164 5 11 0 6.28318530717959
0

0101100
+145 12 -145 12 *
Wi

0101100
-268 0 +144 0 +143 0 -144 0 *
Fa
0  1e-07 28 0

0111000
+142 0 *
Ve
1e-07
504.75 657.5 18
0 0

0101101
*
Ed
 1e-07 1 1 0
1  83 0 1 19
3  165 166CN 29 0 1 19
0

0101000
+140 12 -266 12 *
Ed
 1e-07 1 1 0
1  84 0 0 6.28318530717959
2  167 29 0 0 6.28318530717959
2  168 5 11 0 6.28318530717959
0

0101100
+140 12 -140 12 *
Wi

0101100
-265 0 +139 0 +138 0 -139 0 *
Fa
0  1e-07 29 0

0111000
+137 0 *
Ve
1e-07
99.75 762.5 18
0 0

0101101
*
Ed
 1e-07 1 1 0
1  85 0 1 19
3  169 170CN 30 0 1 19
0

0101000
+135 12 -263 12 *
Ed
 1e-07 1 1 0
1  86 0 0 6.28318530717959
2  171 30 0 0 6.28318530717959
2  172 5 11 0 6.28318530717959
0

0101100
+135 12 -135 12 *
Wi

0101100
-262 0 +134 0 +133 0 -134 0 *
Fa
0  1e-07 30 0

0111000
+132 0 *
Ve
1e-07
204.75 762.5 18
0 0

0101101
*
Ed
 1e-07 1 1 0
1  87 0 1 19
3  173 174CN 31 0 1 19
0

0101000
+130 12 -260 12 *
Ed
 1e-07 1 1 0
1  88 0 0 6.28318530717959
2  175 31 0 0 6.28318530717959
2  176 5 11 0 6.28318530717959
0

0101100
+130 12 -130 12 *
Wi

0101100
-259 0 +129 0 +128 0 -129 0 *
Fa
0  1e-07 31 0

0111000
+127 0 *
Ve
1e-07
399.75 762.5 18
0 0

0101101
*
Ed
 1e-07 1 1 0
1  89 0 1 19
3  177 178CN 32 0 1 19
0

0101000
+125 12 -257 12 *
Ed
 1e-07 1 1 0
1  90 0 0 6.28318530717959
2  179 32 0 0 6.28318530717959
2  180 5 11 0 6.28318530717959
0

0101100
+125 12 -125 12 *
Wi

0101100
-256 0 +124 0 +123 0 -124 0 *
Fa
0  1e-07 32 0

0111000
+122 0 *
Ve
1e-07
504.75 762.5 18
0 0

0101101
*
Ed
 1e-07 1 1 0
1  91 0 1 19
3  181 182CN 33 0 1 19
0

0101000
+120 12 -254 12 *
Ed
 1e-07 1 1 0
1  92 0 0 6.28318530717959
2  183 33 0 0 6.28318530717959
2  184 5 11 0 6.28318530717959
0

0101100
+120 12 -120 12 *
Wi

0101100
-253 0 +119 0 +118 0 -119 0 *
Fa
0  1e-07 33 0

0111000
+117 0 *
Ed
 1e-07 1 1 0
1  93 0 0 572
2  185 5 0 0 572
2  186 4 0 0 572
0

0101000
+353 5 -339 5 *
Wi

0101100
-347 0 +351 0 +115 0 -337 0 *
Wi

0101100
+248 8 *
Wi

0101100
+243 7 *
Wi

0101100
+238 7 *
Ve
1e-07
383 780 18
0 0

0101101
*
Ed
 1e-07 1 1 0
1  94 0 0 6.28318530717959
2  187 5 11 0 6.28318530717959
2  188 34 0 0 6.28318530717959
0

0101000
+110 12 -110 12 *
Wi

0101100
+109 7 *
Ve
1e-07
523 780 18
0 0

0101101
*
Ed
 1e-07 1 1 0
1  95 0 0 6.28318530717959
2  189 5 11 0 6.28318530717959
2  190 35 0 0 6.28318530717959
0

0101000
+107 12 -107 12 *
Wi

0101100
+106 7 *
Ve
1e-07
83 640 18
0 0

0101101
*
Ed
 1e-07 1 1 0
1  96 0 0 6.28318530717959
2  191 5 11 0 6.28318530717959
2  192 36 0 0 6.28318530717959
0

0101000
+104 12 -104 12 *
Wi

0101100
+103 7 *
Ve
1e-07
223 640 18
0 0

0101101
*
Ed
 1e-07 1 1 0
1  97 0 0 6.28318530717959
2  193 5 11 0 6.28318530717959
2  194 37 0 0 6.28318530717959
0

0101000
+101 12 -101 12 *
Wi

0101100
+100 7 *
Ve
1e-07
83 780 18
0 0

0101101
*
Ed
 1e-07 1 1 0
1  98 0 0 6.28318530717959
2  195 5 11 0 6.28318530717959
2  196 38 0 0 6.28318530717959
0

0101000
+98 12 -98 12 *
Wi

0101100
+97 7 *
Ve
1e-07
523 640 18
0 0

0101101
*
Ed
 1e-07 1 1 0
1  99 0 0 6.28318530717959
2  197 5 11 0 6.28318530717959
2  198 39 0 0 6.28318530717959
0

0101000
+95 12 -95 12 *
Wi

0101100
+94 7 *
Ve
1e-07
383 640 18
0 0

0101101
*
Ed
 1e-07 1 1 0
1  100 0 0 6.28318530717959
2  199 5 11 0 6.28318530717959
2  200 40 0 0 6.28318530717959
0

0101000
+92 12 -92 12 *
Wi

0101100
+91 7 *
Ve
1e-07
223 780 18
0 0

0101101
*
Ed
 1e-07 1 1 0
1  101 0 0 6.28318530717959
2  201 5 11 0 6.28318530717959
2  202 41 0 0 6.28318530717959
0

0101000
+89 12 -89 12 *
Wi

0101100
+88 7 *
Wi

0101100
+228 8 *
Wi

0101100
+158 8 *
Wi

0101100
+193 8 *
Wi

0101100
+198 8 *
Wi

0101100
+203 8 *
Wi

0101100
+188 8 *
Wi

0101100
+208 8 *
Wi

0101100
+213 8 *
Wi

0101100
+218 8 *
Wi

0101100
+223 8 *
Wi

0101100
+233 8 *
Wi

0101100
+163 8 *
Wi

0101100
+168 8 *
Wi

0101100
+173 8 *
Wi

0101100
+183 8 *
Wi

0101100
+178 8 *
Wi

0101100
+153 7 *
Wi

0101100
+133 7 *
Wi

0101100
+138 7 *
Wi

0101100
+128 7 *
Wi

0101100
+143 7 *
Wi

0101100
+123 7 *
Wi

0101100
+148 7 *
Wi

0101100
+118 7 *
Fa
0  1e-07 5 0

0111000
+114 0 +113 0 +112 0 +111 0 +108 0 +105 0 +102 0 +99 0 +96 0 +93 0 
+90 0 +87 0 +86 0 +85 0 +84 0 +83 0 +82 0 +81 0 +80 0 +79 0 
+78 0 +77 0 +76 0 +75 0 +74 0 +73 0 +72 0 +71 0 +70 0 +69 0 
+68 0 +67 0 +66 0 +65 0 +64 0 +63 0 *
Ve
1e-07
383 780 26
0 0

0101101
*
Ed
 1e-07 1 1 0
1  102 0 0 6.28318530717959
2  203 34 0 0 6.28318530717959
2  204 42 0 0 6.28318530717959
2  205 43 14 0 6.28318530717959
2  206 43 16 0 6.28318530717959
0

0101000
+61 12 -61 12 *
Ed
 1e-07 1 1 0
1  103 0 0 8
3  207 208CN 34 0 0 8
0

0101000
+110 12 -61 12 *
Wi

0101100
-60 0 +59 0 +109 0 -59 0 *
Fa
0  1e-07 34 0

0111000
+58 0 *
Wi

0101100
+60 0 *
Fa
0  1e-07 42 0

0111000
+56 0 *
Ve
1e-07
523 780 26
0 0

0101101
*
Ed
 1e-07 1 1 0
1  104 0 0 6.28318530717959
2  209 35 0 0 6.28318530717959
2  210 44 0 0 6.28318530717959
2  211 45 18 0 6.28318530717959
2  212 45 20 0 6.28318530717959
0

0101000
+54 12 -54 12 *
Ed
 1e-07 1 1 0
1  105 0 0 8
3  213 214CN 35 0 0 8
0

0101000
+107 12 -54 12 *
Wi

0101100
-53 0 +52 0 +106 0 -52 0 *
Fa
0  1e-07 35 0

0111000
+51 0 *
Wi

0101100
+53 0 *
Fa
0  1e-07 44 0

0111000
+49 0 *
Ve
1e-07
83 640 26
0 0

0101101
*
Ed
 1e-07 1 1 0
1  106 0 0 6.28318530717959
2  215 36 0 0 6.28318530717959
2  216 46 0 0 6.28318530717959
2  217 47 22 0 6.28318530717959
2  218 47 24 0 6.28318530717959
0

0101000
+47 12 -47 12 *
Ed
 1e-07 1 1 0
1  107 0 0 8
3  219 220CN 36 0 0 8
0

0101000
+104 12 -47 12 *
Wi

0101100
-46 0 +45 0 +103 0 -45 0 *
Fa
0  1e-07 36 0

0111000
+44 0 *
Wi

0101100
+46 0 *
Fa
0  1e-07 46 0

0111000
+42 0 *
Ve
1e-07
223 640 26
0 0

0101101
*
Ed
 1e-07 1 1 0
1  108 0 0 6.28318530717959
2  221 37 0 0 6.28318530717959
2  222 48 0 0 6.28318530717959
2  223 49 26 0 6.28318530717959
2  224 49 28 0 6.28318530717959
0

0101000
+40 12 -40 12 *
Ed
 1e-07 1 1 0
1  109 0 0 8
3  225 226CN 37 0 0 8
0

0101000
+101 12 -40 12 *
Wi

0101100
-39 0 +38 0 +100 0 -38 0 *
Fa
0  1e-07 37 0

0111000
+37 0 *
Wi

0101100
+39 0 *
Fa
0  1e-07 48 0

0111000
+35 0 *
Ve
1e-07
83 780 26
0 0

0101101
*
Ed
 1e-07 1 1 0
1  110 0 0 6.28318530717959
2  227 38 0 0 6.28318530717959
2  228 50 0 0 6.28318530717959
2  229 51 30 0 6.28318530717959
2  230 51 32 0 6.28318530717959
0

0101000
+33 12 -33 12 *
Ed
 1e-07 1 1 0
1  111 0 0 8
3  231 232CN 38 0 0 8
0

0101000
+98 12 -33 12 *
Wi

0101100
-32 0 +31 0 +97 0 -31 0 *
Fa
0  1e-07 38 0

0111000
+30 0 *
Wi

0101100
+32 0 *
Fa
0  1e-07 50 0

0111000
+28 0 *
Ve
1e-07
523 640 26
0 0

0101101
*
Ed
 1e-07 1 1 0
1  112 0 0 6.28318530717959
2  233 39 0 0 6.28318530717959
2  234 52 0 0 6.28318530717959
2  235 53 34 0 6.28318530717959
2  236 53 36 0 6.28318530717959
0

0101000
+26 12 -26 12 *
Ed
 1e-07 1 1 0
1  113 0 0 8
3  237 238CN 39 0 0 8
0

0101000
+95 12 -26 12 *
Wi

0101100
-25 0 +24 0 +94 0 -24 0 *
Fa
0  1e-07 39 0

0111000
+23 0 *
Wi

0101100
+25 0 *
Fa
0  1e-07 52 0

0111000
+21 0 *
Ve
1e-07
383 640 26
0 0

0101101
*
Ed
 1e-07 1 1 0
1  114 0 0 6.28318530717959
2  239 40 0 0 6.28318530717959
2  240 54 0 0 6.28318530717959
2  241 55 38 0 6.28318530717959
2  242 55 40 0 6.28318530717959
0

0101000
+19 12 -19 12 *
Ed
 1e-07 1 1 0
1  115 0 0 8
3  243 244CN 40 0 0 8
0

0101000
+92 12 -19 12 *
Wi

0101100
-18 0 +17 0 +91 0 -17 0 *
Fa
0  1e-07 40 0

0111000
+16 0 *
Wi

0101100
+18 0 *
Fa
0  1e-07 54 0

0111000
+14 0 *
Ve
1e-07
223 780 26
0 0

0101101
*
Ed
 1e-07 1 1 0
1  116 0 0 6.28318530717959
2  245 41 0 0 6.28318530717959
2  246 56 0 0 6.28318530717959
2  247 57 42 0 6.28318530717959
2  248 57 44 0 6.28318530717959
0

0101000
+12 12 -12 12 *
Ed
 1e-07 1 1 0
1  117 0 0 8
3  249 250CN 41 0 0 8
0

0101000
+89 12 -12 12 *
Wi

0101100
-11 0 +10 0 +88 0 -10 0 *
Fa
0  1e-07 41 0

0111000
+9 0 *
Wi

0101100
+11 0 *
Fa
0  1e-07 56 0

0111000
+7 0 *
Wi

0101000
-115 0 +352 0 +334 0 -338 0 *
Fa
0  1e-07 4 0

0111000
+5 0 *
Sh

0101000
-349 0 +342 0 +335 0 +251 0 -246 8 -241 7 -236 7 -231 8 -226 8 -221 8 
-216 8 -211 8 -206 8 -201 8 -196 8 -191 8 -186 8 -181 8 -176 8 -171 8 
-166 8 -161 8 -156 8 -151 7 -146 7 -141 7 -136 7 -131 7 -126 7 -121 7 
-116 7 +62 0 -57 7 -55 7 -50 7 -48 7 -43 7 -41 7 -36 7 -34 7 
-29 7 -27 7 -22 7 -20 7 -15 7 -13 7 -8 7 -6 7 +4 0 *
So

0100000
+3 0 *
Co

1100000
+2 0 *

+1 4 