DBRep_DrawableShape

CASCADE Topology V1, (c) Matra-Datavision
Locations 30
1
              1               0               0               0 
              0               1               0               0 
              0               0               1               0 
1
             -1               0 -1.22464679914735e-16               0 
              0               1               0               0 
1.22464679914735e-16               0              -1               0 
1
              1               0               0             586 
              0               1               0       -1127.125 
              0               0               1           596.9 
1
              1               0               0               0 
              0               1               0               0 
              0               0               1              -0 
1
              1               0               0               0 
              0               1               0               0 
              0               0               1               1 
1
              1               0               0               0 
              0               1               0               0 
              0               0               1              -1 
2  1 1 2 1 3 1 4 1 5 1 6 1 0
2  6 -1 5 -1 4 -1 3 -1 2 -1 1 -1 0
1
              1               0               0               0 
              0               1               0               0 
              0               0               1 17.9999999999999 
2  1 1 2 1 3 1 4 1 5 1 6 1 9 1 0
2  9 -1 6 -1 5 -1 4 -1 3 -1 2 -1 1 -1 0
1
              1               0               0               0 
              0               1               0               0 
              0               0               1 17.9999999999999 
2  12 -1 0
1
              1               0               0               0 
              0               1               0               0 
              0               0               1               0 
1
              1               0               0               0 
              0               1               0               0 
              0               0               1              -0 
1
              1               0               0               0 
              0               1               0               0 
              0               0               1               1 
1
              1               0               0               0 
              0               1               0               0 
              0               0               1              -1 
2  14 1 1 1 2 1 3 1 15 1 16 1 17 1 0
2  17 -1 16 -1 15 -1 3 -1 2 -1 1 -1 14 -1 0
1
              1               0               0               0 
              0               1               0               0 
              0               0               1 17.9999999999999 
2  20 -1 17 -1 16 -1 15 -1 3 -1 2 -1 1 -1 14 -1 0
1
              1               0               0               0 
              0               1               0               0 
              0               0               1 -1.15173417829099e-13 
1
              1               0               0               0 
              0               1               0               0 
              0               0               1               1 
1
              1               0               0               0 
              0               1               0               0 
              0               0               1              -1 
2  14 1 1 1 2 1 3 1 22 1 23 1 24 1 0
2  24 -1 23 -1 22 -1 3 -1 2 -1 1 -1 14 -1 0
1
              1               0               0               0 
              0               1               0               0 
              0               0               1 17.9999999999999 
2  27 -1 24 -1 23 -1 22 -1 3 -1 2 -1 1 -1 14 -1 0
2  14 1 1 1 2 1 3 1 15 1 16 1 17 1 20 1 0
2  14 1 1 1 2 1 3 1 22 1 23 1 24 1 27 1 0
Curve2ds 48
1 0 -1.1368683772161603e-13 0 -1 
1 572 -7.1764302430034898e-14 -1.2246467991473532e-16 -1 
1 162.97499999999991 -5.6843418860808015e-14 0 -1 
1 1.5573244694712697e-30 -1.271651933076165e-14 1.2246467991473532e-16 -1 
1 0 0 1 0 
1 -286.00000000000006 -81.487499999999727 0 1 
1 0 -17.999999999999886 1 0 
1 -286.00000000000006 -81.487499999999727 0 1 
1 0 -1.1368683772161603e-13 0 -1 
1 -1.4132588561668823e-29 -1.1540134324042232e-13 -1.2246467991473532e-16 -1 
1 -14 2.3665827156630354e-30 1 0 
1 299.99999999999994 -81.487499999999727 -1 0 
1 -14.000000000000002 -17.999999999999886 1 0 
1 299.99999999999994 -81.487499999999727 -1 0 
1 572 -5.6353560141149074e-14 1.2246467991473532e-16 -1 
1 162.97499999999991 -5.6843418860808015e-14 0 -1 
1 568 0 1 0 
1 281.99999999999994 81.487500000000182 1 0 
1 568 -17.999999999999886 1 0 
1 281.99999999999994 81.487500000000182 1 0 
1 0 0 1 0 
1 285.99999999999994 -81.487499999999727 0 1 
1 0 0 1 0 
1 0 -17.999999999999886 1 0 
1 0 0 1 0 
1 0 -17.999999999999886 1 0 
1 0 0 1 0 
1 0 -17.999999999999886 1 0 
1 0 0 1 0 
1 0 -17.999999999999886 1 0 
1 0 0 1 0 
1 0 -17.999999999999886 1 0 
1 0 0 1 0 
1 0 -17.999999999999886 1 0 
1 0 -17.999999999999886 1 0 
1 285.99999999999994 -81.487499999999727 0 1 
1 1.5707963267948966 0 0 -1 
1 3.1415926535897967 0 0 -1 
1 3.1415926535897647 0 0 -1 
1 1.5707963267948895 0 0 -1 
1 1.570796326794925 0 0 -1 
1 3.1415926535897931 0 0 -1 
1 3.141592653589786 0 0 -1 
1 1.5707963267948966 0 0 -1 
1 0 0 0 -1 
1 6.2831853071795862 0 0 -1 
1 0 0 0 -1 
1 6.2831853071795862 0 0 -1 
Curves 32
1 572 0 2.2737367544323206e-13 0 0 1 
1 572 162.97499999999991 1.7053025658242404e-13 0 0 1 
1 14 1127.125 596.89999999999998 -0 1 0 
1 14 1127.125 596.89999999999998 -0 1 0 
1 0 0 3.4106051316484809e-13 0 0 1 
1 600 1127.125 596.89999999999998 -1 -0 -0 
1 600 1127.125 596.89999999999998 -1 -0 -0 
1 0 162.97499999999991 2.8421709430404007e-13 0 0 1 
1 582 1290.0999999999999 596.89999999999998 1 0 -0 
1 582 1290.0999999999999 596.89999999999998 1 0 -0 
1 586 1127.125 596.89999999999998 -0 1 0 
2 158.00000000000006 62.875 -1.9418114590055676e-30 0 0 -1 1 0 0 0 -1 0 2
1 492.00000000000006 60.875 -1.9418114590055676e-30 1 0 0 
1 156.00000000000006 30.4375 -1.9418114590055676e-30 0 1 0 
2 414 62.875000000000057 -1.9418114590055676e-30 -0 0 -1 0 1 0 1 0 -0 2
2 158.00000000000006 118.87500000000001 -1.9418114590055676e-30 -0 -0 -1 0 -1 0 -1 0 0 2
1 416 30.4375 -1.9418114590055676e-30 0 1 0 
1 492.00000000000006 120.875 -1.9418114590055676e-30 1 0 0 
2 414 118.875 -1.9418114590055676e-30 -0 0 -1 -1 -0 0 0 1 0 2
2 130 1260 596.90000000000009 0 -0 1 1 0 0 -0 1 0 6
2 470 1260 596.90000000000009 0 -0 1 1 0 0 -0 1 0 6
1 586 1127.125 596.89999999999998 -0 1 0 
1 158.00000000000006 60.875 -1.9418114590055676e-30 0 0 1 
1 156.00000000000006 62.875000000000007 -1.9418114590055676e-30 0 0 1 
1 414.00000000000006 60.875 -1.9418114590055676e-30 0 0 1 
1 156.00000000000006 118.875 -1.9418114590055676e-30 0 0 1 
1 416 62.875 -1.9418114590055676e-30 0 0 1 
1 158.00000000000006 120.875 -1.9418114590055676e-30 0 0 1 
1 416 118.87500000000001 -1.9418114590055676e-30 0 0 1 
1 414 120.875 -1.9418114590055676e-30 0 0 1 
1 450 132.875 1.2508512744110098e-13 0 0 1 
1 110.00000000000006 132.875 1.258252761241844e-13 0 0 1 
Polygon3D 0
PolygonOnTriangulations 0
Surfaces 16
1 572 0 1.1368683772161603e-13 -1 0 0 0 1 0 0 0 -1 
1 0 0 2.2565916992442577e-13 0 1 -0 1 -0 -1.2246467991473532e-16 -1.2246467991473532e-16 0 -1 
1 572 162.97499999999991 1.5781373725166239e-13 0 -1 0 -1 0 1.2246467991473532e-16 -1.2246467991473532e-16 -0 -1 
1 300.00000000000006 1208.6124999999997 596.90000000000009 0 0 1 1 0 -0 -0 1 0 
1 300.00000000000006 1208.6124999999997 596.90000000000009 0 0 1 1 0 -0 -0 1 0 
1 0 0 2.2737367544323206e-13 -1 0 0 0 1 0 0 0 -1 
2 158.00000000000006 62.875 -1.9418114590055676e-30 0 0 -1 1 0 0 0 -1 0 2
2 414 62.875000000000057 -1.9418114590055676e-30 -0 0 -1 0 1 0 1 0 -0 2
2 158.00000000000006 118.87500000000001 -1.9418114590055676e-30 -0 -0 -1 0 -1 0 -1 0 0 2
2 414 118.875 -1.9418114590055676e-30 -0 0 -1 -1 -0 0 0 1 0 2
2 456 132.875 0 -1.2246467991473532e-16 0 -1 -1 0 1.2246467991473532e-16 0 1 0 6
2 116.00000000000006 132.875 0 -1.2246467991473532e-16 0 -1 -1 0 1.2246467991473532e-16 0 1 0 6
1 158.00000000000006 60.875 -1.9418114590055676e-30 0 1 0 1 0 0 0 0 -1 
1 156.00000000000006 62.875000000000007 -1.9418114590055676e-30 -1 0 0 0 1 0 0 0 -1 
1 416 62.875 -1.9418114590055676e-30 -1 0 0 0 1 0 0 0 -1 
1 158.00000000000006 120.875 -1.9418114590055676e-30 0 1 0 1 0 0 0 0 -1 
Triangulations 0

TShapes 113
Ve
8.4259611748e-05
572 0 2.27373675443232e-13
0 0

0101101
*
Ve
8.4259611748e-05
572 0 18.0000000000001
0 0

0101101
*
Ed
 8.4259611748e-05 1 1 0
1  1 0 0 17.9999999999999
2  1 1 0 0 17.9999999999999
2  2 2 0 0 17.9999999999999
0

0101000
+113 0 -112 0 *
Ve
1.00000113686838e-07
572 162.975 1.70530256582424e-13
0 0

0101101
*
Ve
1.00000113686838e-07
572 162.975 18.0000000000001
0 0

0101101
*
Ed
 1.00000113686838e-07 1 1 0
1  2 0 0 17.9999999999999
2  3 1 0 0 17.9999999999999
2  4 3 0 0 17.9999999999999
0

0101000
+110 0 -109 0 *
Ed
 1.00000113686838e-07 1 1 0
1  3 0 0 162.975
2  5 1 8 0 162.975
2  6 4 0 0 162.975
0

0101000
+113 8 -110 8 *
Ed
 1.00000113686838e-07 1 1 0
1  4 0 0 162.975
2  7 1 11 0 162.975
2  8 5 0 0 162.975
0

0101000
+112 11 -109 11 *
Wi

0101100
+111 0 -108 0 -107 7 +106 10 *
Fa
0  1.00000113686838e-07 1 0

0101000
+105 0 *
Ve
8.4259611861e-05
0 0 3.41060513164848e-13
0 0

0101101
*
Ve
8.4259611861e-05
0 0 18.0000000000002
0 0

0101101
*
Ed
 8.4259611861e-05 1 1 0
1  5 0 0 17.9999999999999
2  9 6 0 0 17.9999999999999
2  10 2 0 0 17.9999999999999
0

0101000
+103 0 -102 0 *
Ed
 1.00000113686838e-07 1 1 0
1  6 0 14 586
2  11 2 8 14 586
2  12 4 0 14 586
0

0101000
+103 8 -113 8 *
Ed
 1.00000113686838e-07 1 1 0
1  7 0 14 586
2  13 2 11 14 586
2  14 5 0 14 586
0

0101000
+102 11 -112 11 *
Wi

0101100
+101 0 -111 0 -100 7 +99 10 *
Fa
0  1.00000113686838e-07 2 0

0101000
+98 0 *
Ve
1.00000113686838e-07
0 162.975 2.8421709430404e-13
0 0

0101101
*
Ve
1.00000113686838e-07
0 162.975 18.0000000000002
0 0

0101101
*
Ed
 1.00000113686838e-07 1 1 0
1  8 0 0 17.9999999999999
2  15 3 0 0 17.9999999999999
2  16 6 0 0 17.9999999999999
0

0101000
+96 0 -95 0 *
Ed
 1.00000113686838e-07 1 1 0
1  9 0 -568 4
2  17 3 8 -568 4
2  18 4 0 -568 4
0

0101000
+110 8 -96 8 *
Ed
 1.00000113686838e-07 1 1 0
1  10 0 -568 4
2  19 3 11 -568 4
2  20 5 0 -568 4
0

0101000
+109 11 -95 11 *
Wi

0101100
+108 0 -94 0 -93 7 +92 10 *
Fa
0  1.00000113686838e-07 3 0

0101000
+91 0 *
Ed
 1.00000113686838e-07 1 1 0
1  11 0 0 162.975
2  21 6 8 0 162.975
2  22 4 0 0 162.975
0

0101000
+103 8 -96 8 *
Wi

0101100
-107 7 -100 7 -93 7 +89 7 *
Ve
1.50000281695789e-07
158 60.875 -1.94181145900557e-30
0 0

0101101
*
Ve
1.50000240792586e-07
156 62.875 -1.94181145900557e-30
0 0

0101101
*
Ed
 1.00000129605151e-07 1 1 0
1  12 0 1.5707963267949 3.1415926535898
2  23 7 0 1.5707963267949 3.1415926535898
2  24 7 13 1.5707963267949 3.1415926535898
0

0101000
+87 0 -86 0 *
Ve
1.5000027908321e-07
414 60.875 -1.94181145900557e-30
0 0

0101101
*
Ed
 1.5000027908321e-07 1 1 0
1  13 0 -334 -78
0

0101000
+87 0 -84 0 *
Ve
1.50000240792586e-07
156 118.875 -1.94181145900557e-30
0 0

0101101
*
Ed
 1.50000240792586e-07 1 1 0
1  14 0 32.4375 88.4375
0

0101000
+86 0 -82 0 *
Ve
1.50000240792586e-07
416 62.875 -1.94181145900557e-30
0 0

0101101
*
Ed
 1.00000129605151e-07 1 1 0
1  15 0 1.57079632679492 3.14159265358976
2  25 8 0 1.57079632679492 3.14159265358976
2  26 8 13 1.57079632679492 3.14159265358976
0

0101000
+80 0 -84 0 *
Ve
1.50000281695789e-07
158 120.875 -1.94181145900557e-30
0 0

0101101
*
Ed
 1.00000129605151e-07 1 1 0
1  16 0 1.57079632679489 3.14159265358979
2  27 9 0 1.57079632679489 3.14159265358979
2  28 9 13 1.57079632679489 3.14159265358979
0

0101000
+82 0 -78 0 *
Ve
1.50000240792586e-07
416 118.875 -1.94181145900557e-30
0 0

0101101
*
Ed
 1.50000240792586e-07 1 1 0
1  17 0 32.4375 88.4375
0

0101000
+80 0 -76 0 *
Ve
1.5000027908321e-07
414 120.875 -1.94181145900557e-30
0 0

0101101
*
Ed
 1.5000027908321e-07 1 1 0
1  18 0 -334 -78.0000000000001
0

0101000
+78 0 -74 0 *
Ed
 1.00000129605151e-07 1 1 0
1  19 0 1.5707963267949 3.14159265358979
2  29 10 0 1.5707963267949 3.14159265358979
2  30 10 13 1.5707963267949 3.14159265358979
0

0101000
+74 0 -76 0 *
Wi

0101100
-85 0 +83 0 -81 0 -79 0 -77 0 +75 0 -73 0 -72 0 *
Ve
1.00000668850832e-07
450 132.875 1.25085127441101e-13
0 0

0101101
*
Ed
 1.00000606308268e-07 1 1 0
1  20 0 0 6.28318530717959
2  31 11 19 0 6.28318530717959
2  32 11 21 0 6.28318530717959
0

0101000
+70 19 -70 19 *
Wi

0101100
-69 18 *
Ve
1.00000723717382e-07
110 132.875 1.25825276124184e-13
0 0

0101101
*
Ed
 1.00000660804744e-07 1 1 0
1  21 0 0 6.28318530717959
2  33 12 26 0 6.28318530717959
2  34 12 28 0 6.28318530717959
0

0101000
+67 26 -67 26 *
Wi

0101100
-66 25 *
Fa
0  1.00000113686838e-07 4 7

0101000
+88 0 +71 0 +68 0 +65 0 *
Ed
 1.00000113686838e-07 1 1 0
1  22 0 0 162.975
2  35 6 11 0 162.975
2  36 5 0 0 162.975
0

0101000
+102 11 -95 11 *
Wi

0101100
-106 10 -99 10 -92 10 +63 10 *
Ve
1.50000281695789e-07
158 60.875 17.9999999999999
0 0

0101101
*
Ve
1.50000240792586e-07
156 62.875 17.9999999999999
0 0

0101101
*
Ed
 1.00000129605151e-07 1 1 0
1  12 0 1.5707963267949 3.1415926535898
2  23 7 0 1.5707963267949 3.1415926535898
2  24 7 13 1.5707963267949 3.1415926535898
0

0101000
+61 13 -60 13 *
Ve
1.5000027908321e-07
414 60.875 17.9999999999999
0 0

0101101
*
Ed
 1.5000027908321e-07 1 1 0
1  13 0 -334 -78
0

0101000
+61 13 -58 13 *
Ve
1.50000240792586e-07
156 118.875 17.9999999999999
0 0

0101101
*
Ed
 1.50000240792586e-07 1 1 0
1  14 0 32.4375 88.4375
0

0101000
+60 13 -56 13 *
Ve
1.50000240792586e-07
416 62.875 17.9999999999999
0 0

0101101
*
Ed
 1.00000129605151e-07 1 1 0
1  15 0 1.57079632679492 3.14159265358976
2  25 8 0 1.57079632679492 3.14159265358976
2  26 8 13 1.57079632679492 3.14159265358976
0

0101000
+54 13 -58 13 *
Ve
1.50000281695789e-07
158 120.875 17.9999999999999
0 0

0101101
*
Ed
 1.00000129605151e-07 1 1 0
1  16 0 1.57079632679489 3.14159265358979
2  27 9 0 1.57079632679489 3.14159265358979
2  28 9 13 1.57079632679489 3.14159265358979
0

0101000
+56 13 -52 13 *
Ve
1.50000240792586e-07
416 118.875 17.9999999999999
0 0

0101101
*
Ed
 1.50000240792586e-07 1 1 0
1  17 0 32.4375 88.4375
0

0101000
+54 13 -50 13 *
Ve
1.5000027908321e-07
414 120.875 17.9999999999999
0 0

0101101
*
Ed
 1.5000027908321e-07 1 1 0
1  18 0 -334 -78.0000000000001
0

0101000
+52 13 -48 13 *
Ed
 1.00000129605151e-07 1 1 0
1  19 0 1.5707963267949 3.14159265358979
2  29 10 0 1.5707963267949 3.14159265358979
2  30 10 13 1.5707963267949 3.14159265358979
0

0101000
+48 13 -50 13 *
Wi

0101100
-59 12 +57 12 -55 12 -53 12 -51 12 +49 12 -47 12 -46 12 *
Ve
1.00000668850832e-07
450 132.875 18
0 0

0101101
*
Ed
 1.00000606308268e-07 1 1 0
1  20 0 0 6.28318530717959
2  31 11 19 0 6.28318530717959
2  32 11 21 0 6.28318530717959
0

0101000
+44 21 -44 21 *
Wi

0101100
-43 29 *
Ve
1.00000723717382e-07
110 132.875 18
0 0

0101101
*
Ed
 1.00000660804744e-07 1 1 0
1  21 0 0 6.28318530717959
2  33 12 26 0 6.28318530717959
2  34 12 28 0 6.28318530717959
0

0101000
+41 28 -41 28 *
Wi

0101100
-40 30 *
Fa
0  1.00000113686838e-07 5 10

0101000
+62 0 +45 0 +42 0 +39 0 *
Wi

0101100
+101 0 -94 0 -89 7 +63 10 *
Fa
0  1.00000113686838e-07 6 0

0101000
+37 0 *
Ed
 1.50000281695789e-07 1 1 0
1  23 0 0 17.9999999999999
2  37 7 0 0 17.9999999999999
4 G1 13 0 7 0
0

0101000
+87 0 -61 0 *
Ed
 1.50000240792586e-07 1 1 0
1  24 0 0 17.9999999999999
2  38 7 0 0 17.9999999999999
4 G1 14 0 7 0
0

0101000
+86 0 -60 0 *
Wi

0101100
+35 0 -34 0 -85 0 +59 12 *
Fa
0  1.00000129605151e-07 7 0

0101000
+33 0 *
Ed
 1.5000027908321e-07 1 1 0
1  25 0 0 17.9999999999999
2  39 8 0 0 17.9999999999999
4 G1 13 0 8 0
0

0101000
+84 0 -58 0 *
Wi

0101100
+35 0 -31 0 -83 0 +57 12 *
Fa
0  1.5000027908321e-07 13 0

0101000
+30 0 *
Ed
 1.50000240792586e-07 1 1 0
1  26 0 0 17.9999999999999
2  40 9 0 0 17.9999999999999
4 G1 9 0 14 0
0

0101000
+82 0 -56 0 *
Wi

0101100
+34 0 -28 0 -81 0 +55 12 *
Fa
0  1.50000240792586e-07 14 0

0101000
+27 0 *
Ed
 1.50000240792586e-07 1 1 0
1  27 0 0 17.9999999999999
2  41 8 0 0 17.9999999999999
4 G1 8 0 15 0
0

0101000
+80 0 -54 0 *
Wi

0101100
+25 0 -31 0 -79 0 +53 12 *
Fa
0  1.00000129605151e-07 8 0

0101000
+24 0 *
Ed
 1.50000281695789e-07 1 1 0
1  28 0 0 17.9999999999999
2  42 9 0 0 17.9999999999999
4 G1 16 0 9 0
0

0101000
+78 0 -52 0 *
Wi

0101100
+28 0 -22 0 -77 0 +51 12 *
Fa
0  1.00000129605151e-07 9 0

0101000
+21 0 *
Ed
 1.50000240792586e-07 1 1 0
1  29 0 0 17.9999999999999
2  43 10 0 0 17.9999999999999
4 G1 15 0 10 0
0

0101000
+76 0 -50 0 *
Wi

0101100
+25 0 -19 0 -75 0 +49 12 *
Fa
0  1.50000240792586e-07 15 0

0101000
+18 0 *
Ed
 1.5000027908321e-07 1 1 0
1  30 0 0 17.9999999999999
2  44 10 0 0 17.9999999999999
4 G1 10 0 16 0
0

0101000
+74 0 -48 0 *
Wi

0101100
+22 0 -16 0 -73 0 +47 12 *
Fa
0  1.5000027908321e-07 16 0

0101000
+15 0 *
Wi

0101100
+16 0 -19 0 -72 0 +46 12 *
Fa
0  1.00000129605151e-07 10 0

0101000
+13 0 *
Ed
 1.00000668850832e-07 1 1 0
1  31 0 0 17.9999999999999
3  45 46CN 11 0 0 17.9999999999999
0

0101000
+70 0 -44 0 *
Wi

0101100
+11 0 -11 0 -69 18 +43 29 *
Fa
0  1.00000606308268e-07 11 0

0101000
+10 0 *
Ed
 1.00000723717382e-07 1 1 0
1  32 0 0 17.9999999999999
3  47 48CN 12 0 0 17.9999999999999
0

0101000
+67 0 -41 0 *
Wi

0101100
+8 0 -8 0 -66 25 +40 30 *
Fa
0  1.00000660804744e-07 12 0

0101000
+7 0 *
Sh

0101100
-104 0 -97 0 -90 0 +64 0 -38 0 +36 0 -32 0 +29 0 -26 0 -23 0 
-20 0 +17 0 -14 0 -12 0 -9 0 -6 0 *
So

0100000
+5 0 *
Co

0100000
+4 0 *
Co

0100000
+3 0 *
Co

1100000
+2 0 *

+1 0 