DBRep_DrawableShape

CASCADE Topology V1, (c) Matra-Datavision
Locations 14
1
              1               0               0               0 
              0               1               0               0 
              0               0               1               0 
1
             -1               0 -1.22464679914735e-16               0 
              0               1               0               0 
1.22464679914735e-16               0              -1               0 
1
              1               0               0             586 
              0               1               0       -1127.125 
              0               0               1           596.9 
1
              1               0               0               0 
              0               1               0               0 
              0               0               1              -0 
1
              1               0               0               0 
              0               1               0               0 
              0               0               1               1 
1
              1               0               0               0 
              0               1               0               0 
              0               0               1              -1 
2  1 1 2 1 3 1 4 1 5 1 6 1 0
1
              1               0               0               0 
              0               1               0               0 
              0               0               1               0 
1
              1               0               0               0 
              0               1               0               0 
              0               0               1               0 
2  8 1 9 1 1 1 2 1 3 1 0
2  9 -1 8 -1 0
2  3 -1 2 -1 1 -1 9 -1 8 -1 0
1
              1               0               0               0 
              0               1               0               0 
              0               0               1 17.9999999999999 
2  1 1 2 1 3 1 4 1 5 1 6 1 13 1 0
Curve2ds 24
1 -206.00000000000006 -20.612499999999727 -1 0 
8 -336 -76
1 26.899999999999977 -76 0 -1 
1 -130.00000000000006 -51.049999999999727 0 1 
8 30.4375 90.4375
1 26.899999999999977 30.4375 0 -1 
1 -206.00000000000006 39.387500000000273 -1 0 
8 -336 -76
1 26.899999999999977 -76 0 -1 
1 129.99999999999994 -51.049999999999727 0 1 
8 30.4375 90.4375
1 26.899999999999977 30.4375 0 -1 
1 0 260 1 0 
1 0 0 1 0 
1 0 0 1 0 
1 0 0 1 0 
8 -336 -76
1 8.8999999999999773 -76 0 -1 
1 206.00000000000006 -20.612499999999727 1 0 
1 0 -60 1 0 
1 0 0 1 0 
8 30.4375 90.4375
1 8.8999999999999773 30.4375 0 -1 
1 130.00000000000006 -51.049999999999727 0 1 
1 0 260 1 0 
1 0 -60 1 0 
8 -336 -76
1 8.8999999999999773 -76 0 -1 
1 206.00000000000006 39.387500000000273 1 0 
8 30.4375 90.4375
1 8.8999999999999773 30.4375 0 -1 
1 -129.99999999999994 -51.049999999999727 0 1 
Curves 12
1 94 1188 596.89999999999998 -1 -0 0 
1 170 1157.5625 596.89999999999998 -0 1 0 
1 94 1248 596.89999999999998 -1 -0 0 
1 430 1157.5625 596.89999999999998 -0 1 0 
1 430 1188 570 0 0 1 
1 170 1188 570 0 0 1 
1 94 1188 578.89999999999998 -1 -0 0 
1 170 1248 570 0 0 1 
1 170 1157.5625 578.89999999999998 -0 1 0 
1 430 1248 570 0 0 1 
1 94 1248 578.89999999999998 -1 -0 0 
1 430 1157.5625 578.89999999999998 -0 1 0 
Polygon3D 0
PolygonOnTriangulations 0
Surfaces 7
1 300.00000000000006 1208.6124999999997 596.90000000000009 0 0 1 1 0 -0 -0 1 0 
1 300.00000000000006 1208.6124999999997 596.90000000000009 0 0 1 1 0 -0 -0 1 0 
1 170 1188 570 -0 1 0 0 0 1 1 0 -0 
1 170 1188 570 1 0 -0 0 0 1 0 -1 0 
1 170 1248 570 -0 1 0 0 0 1 1 0 -0 
1 430 1188 570 1 0 -0 0 0 1 0 -1 0 
1 300.00000000000006 1208.6124999999997 578.9000000000002 -0 -0 -1 -1 0 0 0 1 -0 
Triangulations 0

TShapes 34
Ve
1.5e-07
156 60.875 1.13686837721616e-13
0 0

0101101
*
Ve
1.5e-07
416 60.875 1.13686837721616e-13
0 0

0101101
*
Ed
 1.5e-07 1 1 0
1  1 0 -336 -76
2  1 2 11 -336 -76
2  2 3 0 -336 -76
0

0101000
+34 12 -33 12 *
Ve
1.5e-07
416 120.875 1.13686837721616e-13
0 0

0101101
*
Ed
 1.5e-07 1 1 0
1  2 0 30.4375 90.4375
2  3 2 11 30.4375 90.4375
2  4 4 0 30.4375 90.4375
0

0101000
+33 12 -31 12 *
Ve
1.5e-07
156 120.875 1.13686837721616e-13
0 0

0101101
*
Ed
 1.5e-07 1 1 0
1  3 0 -336 -76
2  5 2 11 -336 -76
2  6 5 0 -336 -76
0

0101000
+29 12 -31 12 *
Ed
 1.5e-07 1 1 0
1  4 0 30.4375 90.4375
2  7 2 11 30.4375 90.4375
2  8 6 0 30.4375 90.4375
0

0101000
+34 12 -29 12 *
Wi

0101100
-32 10 -30 10 +28 10 +27 10 *
Fa
0  1.00000113686838e-07 1 7

0101000
+26 0 *
Ve
1.5e-07
156 60.875 18.0000000000001
0 0

0101101
*
Ed
 1e-07 1 1 0
1  5 0 8.89999999999998 26.9
2  9 3 0 8.89999999999998 26.9
2  10 6 0 8.89999999999998 26.9
0

0101000
+24 12 -34 12 *
Ve
1.5e-07
416 60.875 18.0000000000001
0 0

0101101
*
Ed
 1e-07 1 1 0
1  6 0 8.89999999999998 26.9
2  11 3 0 8.89999999999998 26.9
2  12 4 0 8.89999999999998 26.9
0

0101000
+22 12 -33 12 *
Ed
 1.5e-07 1 1 0
1  7 0 -336 -76
2  13 3 0 -336 -76
2  14 7 11 -336 -76
0

0101000
+24 12 -22 12 *
Wi

0101100
-23 10 -32 10 +21 10 +20 10 *
Fa
0  1e-07 3 10

0101000
+19 0 *
Ve
1.5e-07
416 120.875 18.0000000000001
0 0

0101101
*
Ed
 1e-07 1 1 0
1  8 0 8.89999999999998 26.9
2  15 4 0 8.89999999999998 26.9
2  16 5 0 8.89999999999998 26.9
0

0101000
+17 12 -31 12 *
Ed
 1.5e-07 1 1 0
1  9 0 30.4375 90.4375
2  17 4 0 30.4375 90.4375
2  18 7 11 30.4375 90.4375
0

0101000
+22 12 -17 12 *
Wi

0101100
-21 10 -30 10 +16 10 +15 10 *
Fa
0  1e-07 4 10

0101000
+14 0 *
Ve
1.5e-07
156 120.875 18.0000000000001
0 0

0101101
*
Ed
 1e-07 1 1 0
1  10 0 8.89999999999998 26.9
2  19 5 0 8.89999999999998 26.9
2  20 6 0 8.89999999999998 26.9
0

0101000
+12 12 -29 12 *
Ed
 1.5e-07 1 1 0
1  11 0 -336 -76
2  21 5 0 -336 -76
2  22 7 11 -336 -76
0

0101000
+12 12 -17 12 *
Wi

0101100
-11 10 -28 10 +16 10 +10 10 *
Fa
0  1e-07 5 10

0101000
+9 0 *
Ed
 1.5e-07 1 1 0
1  12 0 30.4375 90.4375
2  23 6 0 30.4375 90.4375
2  24 7 11 30.4375 90.4375
0

0101000
+24 12 -12 12 *
Wi

0101100
-23 10 -27 10 +11 10 +7 10 *
Fa
0  1e-07 6 10

0101000
+6 0 *
Wi

0101100
-20 10 -15 10 +10 10 +7 10 *
Fa
0  1.00000113686838e-07 1 14

0101000
+4 0 *
Sh

0101100
+25 0 -18 0 -13 0 +8 0 +5 0 -3 0 *
So

0100000
+2 0 *

+1 0 