DBRep_DrawableShape

CASCADE Topology V1, (c) Matra-Datavision
Locations 32
1
              1               0               0               0 
              0               1               0               0 
              0               0               1               0 
1
             -1               0 -1.22464679914735e-16               0 
              0               1               0               0 
1.22464679914735e-16               0              -1               0 
1
              1               0               0             586 
              0               1               0       -1127.125 
              0               0               1           596.9 
2  1 1 2 1 3 1 0
2  1 -1 0
1
              1               0               0               0 
              0               1               0               0 
              0               0               1               0 
1
              1               0               0               0 
              0               1               0               0 
              0               0               1               0 
2  6 1 7 1 0
2  7 -1 6 -1 0
2  1 -1 7 -1 6 -1 0
2  7 -1 0
2  1 -1 7 -1 0
1
              1               0               0               0 
              0               1               0               0 
              0               0               1               0 
2  13 1 6 1 7 1 0
2  7 -1 6 -1 13 -1 0
2  1 -1 7 -1 6 -1 13 -1 0
1
              1               0               0               0 
              0               1               0               0 
              0               0               1 -6.00000000000011 
2  17 -1 3 -1 2 -1 1 -1 7 -1 6 -1 13 -1 0
1
              1               0               0               0 
              0               1               0               0 
              0               0               1               1 
2  19 -1 17 -1 3 -1 2 -1 1 -1 7 -1 6 -1 13 -1 0
1
              1               0               0               0 
              0               1               0               0 
              0               0               1 -6.00000000000011 
2  21 -1 3 -1 2 -1 1 -1 7 -1 6 -1 13 -1 0
1
              1               0               0               0 
              0               1               0               0 
              0               0               1               1 
2  23 -1 21 -1 3 -1 2 -1 1 -1 7 -1 6 -1 13 -1 0
1
              1               0               0               0 
              0               1               0               0 
              0               0               1 -6.00000000000023 
2  25 -1 3 -1 2 -1 1 -1 7 -1 6 -1 13 -1 0
1
              1               0               0               0 
              0               1               0               0 
              0               0               1               1 
2  27 -1 25 -1 3 -1 2 -1 1 -1 7 -1 6 -1 13 -1 0
1
              1               0               0               0 
              0               1               0               0 
              0               0               1 -6.00000000000023 
2  29 -1 3 -1 2 -1 1 -1 7 -1 6 -1 13 -1 0
1
              1               0               0               0 
              0               1               0               0 
              0               0               1               1 
2  31 -1 29 -1 3 -1 2 -1 1 -1 7 -1 6 -1 13 -1 0
Curve2ds 92
1 0 0 1 0 
1 9.0000000000001137 -286 -1 0 
1 18 0 0 -1 
1 -286.00000000000006 -81.487499999999727 0 1 
1 0 -162.97499999999991 1 0 
1 -9.0000000000001137 -286 1 0 
1 0 0 0 -1 
1 286.00000000000006 -81.487499999999727 0 1 
1 9.0000000000001137 -286 0 1 
1 286.00000000000006 -81.487499999999727 -1 0 
1 9.0000000000001137 286 -1 0 
1 0 0 1 0 
1 -8.9999999999998863 300 0 -1 
1 299.99999999999994 -81.487499999999727 -1 0 
1 18 0 0 -1 
1 285.99999999999994 -81.487499999999727 0 1 
1 0 -162.97499999999991 1 0 
1 -9.0000000000001137 286 1 0 
1 0 0 0 -1 
1 -285.99999999999994 -81.487499999999727 0 1 
1 281.99999999999994 81.487500000000182 1 0 
1 8.9999999999998863 282 0 1 
1 -206.00000000000006 -20.612499999999727 -1 0 
8 -336 -76
1 26.899999999999977 -76 0 -1 
1 -130.00000000000006 -51.049999999999727 0 1 
8 30.4375 90.4375
1 26.899999999999977 30.4375 0 -1 
1 -206.00000000000006 39.387500000000273 -1 0 
8 -336 -76
1 26.899999999999977 -76 0 -1 
1 129.99999999999994 -51.049999999999727 0 1 
8 30.4375 90.4375
1 26.899999999999977 30.4375 0 -1 
2 -170.00000000000006 51.387500000000273 1 0 -0 1 6
1 0 18.899999999999977 1 0 
2 169.99999999999994 51.387500000000273 1 0 -0 1 6
1 0 18.899999999999977 1 0 
1 0 260 1 0 
1 0 0 1 0 
1 0 0 1 0 
1 0 0 1 0 
8 -336 -76
1 8.8999999999999773 -76 0 -1 
1 206.00000000000006 -20.612499999999727 1 0 
1 0 -60 1 0 
1 0 0 1 0 
8 30.4375 90.4375
1 8.8999999999999773 30.4375 0 -1 
1 130.00000000000006 -51.049999999999727 0 1 
1 0 260 1 0 
1 0 -60 1 0 
8 -336 -76
1 8.8999999999999773 -76 0 -1 
1 206.00000000000006 39.387500000000273 1 0 
8 30.4375 90.4375
1 8.8999999999999773 30.4375 0 -1 
1 -129.99999999999994 -51.049999999999727 0 1 
1 6.2831853071795862 -0 0 1 
1 0 -0 0 1 
1 0 0.89999999999997726 1 0 
2 170.00000000000006 51.387500000000273 -1 0 0 1 6
1 6.2831853071795862 -0 0 1 
1 0 -0 0 1 
1 0 0.89999999999997726 1 0 
2 -169.99999999999994 51.387500000000273 -1 0 0 1 6
1 286.00000000000006 81.487500000000182 -1 0 
1 -9.0000000000001137 -286 0 1 
2 255.00000000000006 -68.612499999999727 -1 0 0 1 1.5
1 0 0 1 0 
2 255.00000000000006 -28.612499999999727 -1 0 0 1 1.5
1 0 0 1 0 
2 -254.99999999999994 -68.612499999999727 -1 0 0 1 1.5
1 0 0 1 0 
2 -254.99999999999994 -28.612499999999727 -1 0 0 1 1.5
1 0 0 1 0 
1 0 12 1 0 
2 0 0 1 0 -0 1 1.5
1 0 0 1 0 
1 0 -1 1 0 
1 6.2831853071795862 -0 0 1 
1 0 -0 0 1 
1 0 12 1 0 
2 0 0 1 0 -0 1 1.5
1 0 0 1 0 
1 0 -1 1 0 
1 6.2831853071795862 -0 0 1 
1 0 -0 0 1 
1 0 12 1 0 
2 0 0 1 0 -0 1 1.5
1 0 0 1 0 
1 0 -1 1 0 
1 6.2831853071795862 -0 0 1 
1 0 -0 0 1 
1 0 12 1 0 
2 0 0 1 0 -0 1 1.5
1 0 0 1 0 
1 0 -1 1 0 
1 6.2831853071795862 -0 0 1 
1 0 -0 0 1 
Curves 42
1 14 1127.125 578.89999999999998 0 0 1 
1 14 1127.125 596.89999999999998 -0 1 0 
1 14 1290.0999999999999 578.89999999999998 0 0 1 
1 14 1127.125 578.89999999999998 -0 1 0 
1 14 1127.125 578.89999999999998 1 0 -0 
1 586 1127.125 578.89999999999998 0 0 1 
1 600 1127.125 596.89999999999998 -1 -0 -0 
1 586 1127.125 596.89999999999998 -0 1 0 
1 586 1290.0999999999999 578.89999999999998 0 0 1 
1 586 1127.125 578.89999999999998 -0 1 0 
1 582 1290.0999999999999 596.89999999999998 1 0 -0 
1 94 1188 596.89999999999998 -1 -0 0 
1 170 1157.5625 596.89999999999998 -0 1 0 
1 94 1248 596.89999999999998 -1 -0 0 
1 430 1157.5625 596.89999999999998 -0 1 0 
2 130 1260 596.89999999999998 0 0 1 1 0 -0 -0 1 0 6
2 470 1260 596.89999999999998 0 0 1 1 0 -0 -0 1 0 6
1 430 1188 570 0 0 1 
1 170 1188 570 0 0 1 
1 94 1188 578.89999999999998 -1 -0 0 
1 170 1248 570 0 0 1 
1 170 1157.5625 578.89999999999998 -0 1 0 
1 430 1248 570 0 0 1 
1 94 1248 578.89999999999998 -1 -0 0 
1 430 1157.5625 578.89999999999998 -0 1 0 
1 136 1260 578 0 0 1 
2 130 1260 578.89999999999998 0 0 1 1 0 -0 -0 1 0 6
1 476 1260 578 0 0 1 
2 470 1260 578.89999999999998 0 0 1 1 0 -0 -0 1 0 6
1 14 1290.0999999999999 578.89999999999998 1 0 -0 
2 45 1140 578.89999999999998 0 0 1 1 0 -0 -0 1 0 1.5
2 45 1180 578.89999999999998 0 0 1 1 0 -0 -0 1 0 1.5
2 555 1140 578.89999999999998 0 0 1 1 0 -0 -0 1 0 1.5
2 555 1180 578.89999999999998 0 0 1 1 0 -0 -0 1 0 1.5
2 45 1140 590.89999999999998 0 0 1 1 0 -0 -0 1 0 1.5
1 46.5 1140 578.89999999999998 0 0 1 
2 45 1180 590.89999999999998 0 0 1 1 0 -0 -0 1 0 1.5
1 46.5 1180 578.89999999999998 0 0 1 
2 555 1140 590.89999999999998 0 0 1 1 0 -0 -0 1 0 1.5
1 556.5 1140 578.89999999999998 0 0 1 
2 555 1180 590.89999999999998 0 0 1 1 0 -0 -0 1 0 1.5
1 556.5 1180 578.89999999999998 0 0 1 
Polygon3D 0
PolygonOnTriangulations 0
Surfaces 24
1 14 1127.125 578.89999999999998 1 0 -0 0 0 1 0 -1 0 
1 300 1127.125 587.90000000000009 -0 -1 -0 0 0 -1 1 -0 0 
1 300.00000000000006 1208.6124999999997 596.90000000000009 0 0 1 1 0 -0 -0 1 0 
1 300 1290.0999999999997 587.90000000000009 0 1 0 0 -0 1 1 0 -0 
1 300.00000000000006 1208.6124999999997 578.9000000000002 -0 -0 -1 -1 0 0 0 1 -0 
1 586 1127.125 578.89999999999998 1 0 -0 0 0 1 0 -1 0 
1 170 1188 570 -0 1 0 0 0 1 1 0 -0 
1 170 1188 570 1 0 -0 0 0 1 0 -1 0 
1 170 1248 570 -0 1 0 0 0 1 1 0 -0 
1 430 1188 570 1 0 -0 0 0 1 0 -1 0 
2 130 1260 578 0 0 1 1 0 -0 -0 1 0 6
2 470 1260 578 0 0 1 1 0 -0 -0 1 0 6
2 45 1140 578.89999999999998 0 0 1 1 0 -0 -0 1 0 1.5
2 45 1180 578.89999999999998 0 0 1 1 0 -0 -0 1 0 1.5
2 555 1140 578.89999999999998 0 0 1 1 0 -0 -0 1 0 1.5
2 555 1180 578.89999999999998 0 0 1 1 0 -0 -0 1 0 1.5
1 45 1140 590.89999999999998 0 0 1 1 0 -0 -0 1 0 
2 541 12.875 0 -1.2246467991473532e-16 0 -1 -1 0 1.2246467991473532e-16 0 1 0 1.5
1 45 1180 590.89999999999998 0 0 1 1 0 -0 -0 1 0 
2 541 52.875 0 -1.2246467991473532e-16 0 -1 -1 0 1.2246467991473532e-16 0 1 0 1.5
1 555 1140 590.89999999999998 0 0 1 1 0 -0 -0 1 0 
2 31 12.875 0 -1.2246467991473532e-16 0 -1 -1 0 1.2246467991473532e-16 0 1 0 1.5
1 555 1180 590.89999999999998 0 0 1 1 0 -0 -0 1 0 
2 31 52.875 0 -1.2246467991473532e-16 0 -1 -1 0 1.2246467991473532e-16 0 1 0 1.5
Triangulations 0

TShapes 123
Ve
8.4259611748e-05
14 1127.125 578.9
0 0

0101101
*
Ve
1e-07
14 1127.125 596.9
0 0

0101101
*
Ed
 1e-07 1 1 0
1  1 0 0 18
2  1 1 0 0 18
2  2 2 0 0 18
0

0101000
+123 5 -122 5 *
Ve
1e-07
14 1290.1 596.9
0 0

0101101
*
Ed
 1e-07 1 1 0
1  2 0 0 162.975
2  3 1 0 0 162.975
2  4 3 0 0 162.975
0

0101000
+122 5 -120 5 *
Ve
1e-07
14 1290.1 578.9
0 0

0101101
*
Ed
 1e-07 1 1 0
1  3 0 0 18
2  5 1 0 0 18
2  6 4 0 0 18
0

0101000
+118 5 -120 5 *
Ed
 1e-07 1 1 0
1  4 0 0 162.975
2  7 1 0 0 162.975
2  8 5 0 0 162.975
0

0101000
-118 5 +123 5 *
Wi

0101100
-121 0 -119 0 +117 0 +116 0 *
Fa
0  1e-07 1 0

0111000
+115 0 *
Ve
8.4259611861e-05
586 1127.125 578.9
0 0

0101101
*
Ed
 1e-07 1 1 0
1  5 0 0 572
2  9 2 0 0 572
2  10 5 0 0 572
0

0101000
+123 5 -113 5 *
Ve
1e-07
586 1127.125 596.9
0 0

0101101
*
Ed
 1e-07 1 1 0
1  6 0 0 18
2  11 2 0 0 18
2  12 6 0 0 18
0

0101000
+113 5 -111 5 *
Ed
 1e-07 1 1 0
1  7 0 14 586
2  13 2 0 14 586
2  14 3 0 14 586
0

0101000
+111 5 -122 5 *
Wi

0101000
-121 0 +112 0 +110 0 +109 0 *
Fa
0  1e-07 2 0

0111000
+108 0 *
Ve
1e-07
586 1290.1 596.9
0 0

0101101
*
Ed
 1e-07 1 1 0
1  8 0 0 162.975
2  15 6 0 0 162.975
2  16 3 0 0 162.975
0

0101000
+111 5 -106 5 *
Ve
1e-07
586 1290.1 578.9
0 0

0101101
*
Ed
 1e-07 1 1 0
1  9 0 0 18
2  17 6 0 0 18
2  18 4 0 0 18
0

0101000
+104 5 -106 5 *
Ed
 1e-07 1 1 0
1  10 0 0 162.975
2  19 6 0 0 162.975
2  20 5 0 0 162.975
0

0101000
-104 5 +113 5 *
Wi

0101100
-110 0 -105 0 +103 0 +102 0 *
Fa
0  1e-07 6 0

0111000
+101 0 *
Ed
 1e-07 1 1 0
1  11 0 -568 4
2  21 3 0 -568 4
2  22 4 0 -568 4
0

0101000
+120 5 -106 5 *
Wi

0101100
-119 0 -109 0 +105 0 -99 0 *
Ve
1.5e-07
430 1188 596.9
0 0

0101101
*
Ve
1.5e-07
170 1188 596.9
0 0

0101101
*
Ed
 1.5e-07 1 1 0
1  12 0 -336 -76
2  23 3 9 -336 -76
2  24 7 0 -336 -76
0

0101000
+97 10 -96 10 *
Ve
1.5e-07
170 1248 596.9
0 0

0101101
*
Ed
 1.5e-07 1 1 0
1  13 0 30.4375 90.4375
2  25 3 9 30.4375 90.4375
2  26 8 0 30.4375 90.4375
0

0101000
+96 10 -94 10 *
Ve
1.5e-07
430 1248 596.9
0 0

0101101
*
Ed
 1.5e-07 1 1 0
1  14 0 -336 -76
2  27 3 9 -336 -76
2  28 9 0 -336 -76
0

0101000
+92 10 -94 10 *
Ed
 1.5e-07 1 1 0
1  15 0 30.4375 90.4375
2  29 3 9 30.4375 90.4375
2  30 10 0 30.4375 90.4375
0

0101000
+97 10 -92 10 *
Wi

0101100
+95 8 +93 8 -91 8 -90 8 *
Ve
1e-07
136 1260 596.9
0 0

0101101
*
Ed
 1e-07 1 1 0
1  16 0 0 6.28318530717959
2  31 3 11 0 6.28318530717959
2  32 11 0 0 6.28318530717959
0

0101100
+88 12 -88 12 *
Wi

0101100
-87 7 *
Ve
1e-07
476 1260 596.9
0 0

0101101
*
Ed
 1e-07 1 1 0
1  17 0 0 6.28318530717959
2  33 3 11 0 6.28318530717959
2  34 12 0 0 6.28318530717959
0

0101100
+85 12 -85 12 *
Wi

0101100
-84 7 *
Fa
0  1e-07 3 0

0111000
+98 0 +89 0 +86 0 +83 0 *
Ve
1.5e-07
430 1188 578.9
0 0

0101101
*
Ed
 1e-07 1 1 0
1  18 0 8.89999999999998 26.9
2  35 7 0 8.89999999999998 26.9
2  36 10 0 8.89999999999998 26.9
0

0101000
+81 10 -97 10 *
Ve
1.5e-07
170 1188 578.9
0 0

0101101
*
Ed
 1e-07 1 1 0
1  19 0 8.89999999999998 26.9
2  37 7 0 8.89999999999998 26.9
2  38 8 0 8.89999999999998 26.9
0

0101000
+79 10 -96 10 *
Ed
 1.5e-07 1 1 0
1  20 0 -336 -76
2  39 7 0 -336 -76
2  40 5 9 -336 -76
0

0101000
+81 10 -79 10 *
Wi

0101100
-80 0 -95 0 +78 0 +77 0 *
Fa
0  1e-07 7 0

0111000
+76 0 *
Ve
1.5e-07
170 1248 578.9
0 0

0101101
*
Ed
 1e-07 1 1 0
1  21 0 8.89999999999998 26.9
2  41 8 0 8.89999999999998 26.9
2  42 9 0 8.89999999999998 26.9
0

0101000
+74 10 -94 10 *
Ed
 1.5e-07 1 1 0
1  22 0 30.4375 90.4375
2  43 8 0 30.4375 90.4375
2  44 5 9 30.4375 90.4375
0

0101000
+79 10 -74 10 *
Wi

0101100
-78 0 -93 0 +73 0 +72 0 *
Fa
0  1e-07 8 0

0111000
+71 0 *
Ve
1.5e-07
430 1248 578.9
0 0

0101101
*
Ed
 1e-07 1 1 0
1  23 0 8.89999999999998 26.9
2  45 9 0 8.89999999999998 26.9
2  46 10 0 8.89999999999998 26.9
0

0101000
+69 10 -92 10 *
Ed
 1.5e-07 1 1 0
1  24 0 -336 -76
2  47 9 0 -336 -76
2  48 5 9 -336 -76
0

0101000
+69 10 -74 10 *
Wi

0101100
-68 0 -91 0 +73 0 +67 0 *
Fa
0  1e-07 9 0

0111000
+66 0 *
Ed
 1.5e-07 1 1 0
1  25 0 30.4375 90.4375
2  49 10 0 30.4375 90.4375
2  50 5 9 30.4375 90.4375
0

0101000
+81 10 -69 10 *
Wi

0101100
-80 0 -90 0 +68 0 +64 0 *
Fa
0  1e-07 10 0

0111000
+63 0 *
Ve
1e-07
136 1260 578.9
0 0

0101101
*
Ed
 1e-07 1 1 0
1  26 0 0.899999999999977 18.9
3  51 52CN 11 0 0.899999999999977 18.9
0

0101000
+61 12 -88 12 *
Ed
 1e-07 1 1 0
1  27 0 0 6.28318530717959
2  53 11 0 0 6.28318530717959
2  54 5 11 0 6.28318530717959
0

0101100
+61 12 -61 12 *
Wi

0101100
-87 0 +60 0 +59 0 -60 0 *
Fa
0  1e-07 11 0

0111000
+58 0 *
Ve
1e-07
476 1260 578.9
0 0

0101101
*
Ed
 1e-07 1 1 0
1  28 0 0.899999999999977 18.9
3  55 56CN 12 0 0.899999999999977 18.9
0

0101000
+56 12 -85 12 *
Ed
 1e-07 1 1 0
1  29 0 0 6.28318530717959
2  57 12 0 0 6.28318530717959
2  58 5 11 0 6.28318530717959
0

0101100
+56 12 -56 12 *
Wi

0101100
-84 0 +55 0 +54 0 -55 0 *
Fa
0  1e-07 12 0

0111000
+53 0 *
Ed
 1e-07 1 1 0
1  30 0 0 572
2  59 5 0 0 572
2  60 4 0 0 572
0

0101000
+118 5 -104 5 *
Wi

0101100
-112 0 +116 0 +51 0 -102 0 *
Wi

0101100
-77 8 +64 8 +67 8 -72 8 *
Wi

0101100
+59 7 *
Wi

0101100
+54 7 *
Ve
1e-07
46.5 1140 578.9
0 0

0101101
*
Ed
 1e-07 1 1 0
1  31 0 0 6.28318530717959
2  61 5 15 0 6.28318530717959
2  62 13 0 0 6.28318530717959
0

0101000
+46 16 -46 16 *
Wi

0101100
+45 14 *
Ve
1e-07
46.5 1180 578.9
0 0

0101101
*
Ed
 1e-07 1 1 0
1  32 0 0 6.28318530717959
2  63 5 15 0 6.28318530717959
2  64 14 0 0 6.28318530717959
0

0101000
+43 16 -43 16 *
Wi

0101100
+42 14 *
Ve
1e-07
556.5 1140 578.9
0 0

0101101
*
Ed
 1e-07 1 1 0
1  33 0 0 6.28318530717959
2  65 5 15 0 6.28318530717959
2  66 15 0 0 6.28318530717959
0

0101000
+40 16 -40 16 *
Wi

0101100
+39 14 *
Ve
1e-07
556.5 1180 578.9
0 0

0101101
*
Ed
 1e-07 1 1 0
1  34 0 0 6.28318530717959
2  67 5 15 0 6.28318530717959
2  68 16 0 0 6.28318530717959
0

0101000
+37 16 -37 16 *
Wi

0101100
+36 14 *
Fa
0  1e-07 5 0

0111000
+50 0 +49 0 +48 0 +47 0 +44 0 +41 0 +38 0 +35 0 *
Ve
1e-07
46.5 1140 590.9
0 0

0101101
*
Ed
 1e-07 1 1 0
1  35 0 0 6.28318530717959
2  69 13 0 0 6.28318530717959
2  70 17 0 0 6.28318530717959
2  71 18 18 0 6.28318530717959
2  72 18 20 0 6.28318530717959
0

0101000
+33 16 -33 16 *
Ed
 1e-07 1 1 0
1  36 0 0 12
3  73 74CN 13 0 0 12
0

0101000
+46 16 -33 16 *
Wi

0101100
-32 0 +31 0 +45 0 -31 0 *
Fa
0  1e-07 13 0

0111000
+30 0 *
Wi

0101100
+32 0 *
Fa
0  1e-07 17 0

0111000
+28 0 *
Ve
1e-07
46.5 1180 590.9
0 0

0101101
*
Ed
 1e-07 1 1 0
1  37 0 0 6.28318530717959
2  75 14 0 0 6.28318530717959
2  76 19 0 0 6.28318530717959
2  77 20 22 0 6.28318530717959
2  78 20 24 0 6.28318530717959
0

0101000
+26 16 -26 16 *
Ed
 1e-07 1 1 0
1  38 0 0 12
3  79 80CN 14 0 0 12
0

0101000
+43 16 -26 16 *
Wi

0101100
-25 0 +24 0 +42 0 -24 0 *
Fa
0  1e-07 14 0

0111000
+23 0 *
Wi

0101100
+25 0 *
Fa
0  1e-07 19 0

0111000
+21 0 *
Ve
1e-07
556.5 1140 590.9
0 0

0101101
*
Ed
 1e-07 1 1 0
1  39 0 0 6.28318530717959
2  81 15 0 0 6.28318530717959
2  82 21 0 0 6.28318530717959
2  83 22 26 0 6.28318530717959
2  84 22 28 0 6.28318530717959
0

0101000
+19 16 -19 16 *
Ed
 1e-07 1 1 0
1  40 0 0 12
3  85 86CN 15 0 0 12
0

0101000
+40 16 -19 16 *
Wi

0101100
-18 0 +17 0 +39 0 -17 0 *
Fa
0  1e-07 15 0

0111000
+16 0 *
Wi

0101100
+18 0 *
Fa
0  1e-07 21 0

0111000
+14 0 *
Ve
1e-07
556.5 1180 590.9
0 0

0101101
*
Ed
 1e-07 1 1 0
1  41 0 0 6.28318530717959
2  87 16 0 0 6.28318530717959
2  88 23 0 0 6.28318530717959
2  89 24 30 0 6.28318530717959
2  90 24 32 0 6.28318530717959
0

0101000
+12 16 -12 16 *
Ed
 1e-07 1 1 0
1  42 0 0 12
3  91 92CN 16 0 0 12
0

0101000
+37 16 -12 16 *
Wi

0101100
-11 0 +10 0 +36 0 -10 0 *
Fa
0  1e-07 16 0

0111000
+9 0 *
Wi

0101100
+11 0 *
Fa
0  1e-07 23 0

0111000
+7 0 *
Wi

0101000
-51 0 +117 0 +99 0 -103 0 *
Fa
0  1e-07 4 0

0111000
+5 0 *
Sh

0101000
-114 0 +107 0 +100 0 +82 0 +75 8 +70 8 -65 8 -62 8 -57 7 -52 7 
+34 0 -29 14 -27 14 -22 14 -20 14 -15 14 -13 14 -8 14 -6 14 +4 0 
*
So

0100000
+3 0 *
Co

1100000
+2 0 *

+1 4 