DBRep_DrawableShape

CASCADE Topology V1, (c) Matra-Datavision
Locations 8
1
              1               0               0               0 
              0               1               0               0 
              0               0               1              -1 
1
              1               0               0               0 
              0               1               0               0 
              0               0               1               0 
1
             -1               0 -1.22464679914735e-16               0 
              0               1               0               0 
1.22464679914735e-16               0              -1               0 
1
              1               0               0             586 
              0               1               0       -1127.125 
              0               0               1           596.9 
1
              1               0               0               0 
              0               1               0               0 
              0               0               1              -0 
1
              1               0               0               0 
              0               1               0               0 
              0               0               1               1 
2  2 1 3 1 4 1 5 1 6 1 0
2  6 -1 5 -1 4 -1 3 -1 2 -1 0
Curve2ds 4
1 -286.00000000000006 -81.487499999999727 0 1 
1 281.99999999999994 81.487500000000182 1 0 
1 285.99999999999994 -81.487499999999727 0 1 
1 299.99999999999994 -81.487499999999727 -1 0 
Curves 4
1 14 1127.125 596.89999999999998 -0 1 0 
1 582 1290.0999999999999 596.89999999999998 1 0 -0 
1 586 1127.125 596.89999999999998 -0 1 0 
1 600 1127.125 596.89999999999998 -1 -0 -0 
Polygon3D 0
PolygonOnTriangulations 0
Surfaces 1
1 300.00000000000006 1208.6124999999997 596.90000000000009 0 0 1 1 0 -0 -0 1 0 
Triangulations 0

TShapes 9
Ve
8.4259611748e-05
572 0 1.00000000000023
0 0

0101101
*
Ve
1.00000113686838e-07
572 162.975 1.00000000000017
0 0

0101101
*
Ed
 1.00000113686838e-07 1 1 0
1  1 0 0 162.975
2  1 1 0 0 162.975
0

0101000
+9 8 -8 8 *
Ve
1.00000113686838e-07
0 162.975 1.00000000000028
0 0

0101101
*
Ed
 1.00000113686838e-07 1 1 0
1  2 0 -568 4
2  2 1 0 -568 4
0

0101000
+8 8 -6 8 *
Ve
8.4259611861e-05
0 0 1.00000000000034
0 0

0101101
*
Ed
 1.00000113686838e-07 1 1 0
1  3 0 0 162.975
2  3 1 0 0 162.975
0

0101000
+4 8 -6 8 *
Ed
 1.00000113686838e-07 1 1 0
1  4 0 14 586
2  4 1 0 14 586
0

0101000
+4 8 -9 8 *
Wi

0101100
+7 7 +5 7 -3 7 +2 7 *

+1 1 