DBRep_DrawableShape

CASCADE Topology V1, (c) Matra-Datavision
Locations 0
Curve2ds 0
Curves 4
1 21.75 236.50000000000011 -9.5131224731486826e-14 0 1 -7.07359189922033e-16 
2 25 107.00000000000023 -3.5282096365836255e-15 0 7.07359189922033e-16 1 0 -1 7.07359189922033e-16 1 0 -0 3.25
1 28.25 236.50000000000011 -9.5131224731486826e-14 0 1 -7.07359189922033e-16 
2 25 97.000000000000227 3.5453822626367045e-15 0 7.07359189922033e-16 1 0 -1 7.07359189922033e-16 1 0 -0 3.25
Polygon3D 0
PolygonOnTriangulations 0
Surfaces 1
1 24.999999999999989 102.00000000000024 8.5863130265292891e-18 0 7.07359189922033e-16 1 0 1 -7.07359189922033e-16 -1 0 0 
Triangulations 0

TShapes 11
Ve
1.50000380730248e-07
21.75 97.0000000000002 5.09197855907526e-14
0 0

0101101
*
Ve
1.50000383088112e-07
21.75 107 4.85619216243458e-14
0 0

0101101
*
Ed
 1.50000357043046e-07 1 1 0
1  1 0 -139.5 -129.5
0

0101000
+11 0 -10 0 *
Ve
1.50000383088112e-07
28.25 107 4.85619216243458e-14
0 0

0101101
*
Ed
 1.50000148411798e-07 1 1 0
1  2 0 1.5707963267949 4.71238898038469
0

0101000
+8 0 -10 0 *
Ve
1.50000380730248e-07
28.25 97.0000000000002 5.09197855907526e-14
0 0

0101101
*
Ed
 1.50000357043046e-07 1 1 0
1  3 0 -139.5 -129.5
0

0101000
+6 0 -8 0 *
Ed
 1.5000014842599e-07 1 1 0
1  4 0 4.71238898038469 7.85398163397448
0

0101000
+11 0 -6 0 *
Wi

0101100
+9 0 -7 0 -5 0 -4 0 *
Fa
0  1e-07 1 0

0101000
-3 0 *
Sh

1101000
+2 0 *

+1 0 