DBRep_DrawableShape

CASCADE Topology V1, (c) Matra-Datavision
Locations 29
1
              1               0               0               0 
              0               1               0               0 
              0               0               1              -1 
2  1 -1 0
1
              1               0               0               0 
              0               1               0               0 
              0               0               1               6 
2  3 -1 0
1
              1               0               0               0 
              0               1               0               0 
              0               0               1              18 
2  1 1 5 1 0
2  5 -1 1 -1 0
1
              1               0               0               0 
              0               1               0              10 
              0               0               1               0 
1
              1               0               0               0 
              0               1               0               0 
              0               0               1               0 
1
              1               0               0               0 
              0 1.11022302462516e-16              -1               0 
              0               1 1.11022302462516e-16               0 
1
              1               0               0            -415 
              0               1               0            1236 
              0               0               1           -1240 
1
              1               0               0               0 
              0               1               0               0 
              0               0               1              -0 
1
              1               0               0               0 
              0               1               0               0 
              0               0               1               1 
2  8 1 9 1 10 1 11 1 12 1 13 1 1 1 0
2  1 -1 13 -1 12 -1 11 -1 10 -1 9 -1 8 -1 0
2  13 -1 12 -1 11 -1 10 -1 9 -1 8 -1 0
1
              1               0               0               0 
              0               1               0               0 
              0               0               1              -0 
1
              1               0               0               0 
              0               1               0               0 
              0               0               1               1 
2  8 1 9 1 10 1 11 1 17 1 18 1 1 1 0
2  1 -1 18 -1 17 -1 11 -1 10 -1 9 -1 8 -1 0
2  18 -1 17 -1 11 -1 10 -1 9 -1 8 -1 0
1
              1               0               0               0 
              0               1               0               0 
              0               0               1              18 
2  22 -1 0
1
              1               0               0               0 
              0               1               0               0 
              0               0               1              18 
2  24 -1 0
2  8 1 9 1 10 1 11 1 17 1 18 1 1 1 5 1 0
2  5 -1 1 -1 18 -1 17 -1 11 -1 10 -1 9 -1 8 -1 0
2  8 1 9 1 10 1 11 1 12 1 13 1 1 1 5 1 0
2  5 -1 1 -1 13 -1 12 -1 11 -1 10 -1 9 -1 8 -1 0
Curve2ds 56
1 0 0 1 0 
1 182.99999999999997 -25.000000000000004 -1 0 
1 3.1415926535897931 0 0 -1 
1 1.5707963267948966 0 0 -1 
1 365.99999999999989 -1.8673951274195133e-13 1.1102230246251565e-16 -1 
1 50 0 0 -1 
1 1.9984014443252818e-15 -18 1 0 
1 182.99999999999997 -25.000000000000004 -1 0 
1 0 0 1.1102230246251565e-16 -1 
1 50 0 0 -1 
1 0 0 1 0 
1 0 -6.0000000000000044 1 0 
1 0 0 1 0 
1 0 -6.0000000000000044 1 0 
1 0 0 1 0 
1 182.99999999999997 24.999999999999996 -1 0 
1 0 0 1 0 
1 182.99999999999997 24.999999999999996 0 -1 
1 1.5707963267949161 0 0 -1 
1 0 0 1 0 
1 0 -6.0000000000000044 1 0 
1 0 0 1 0 
1 0 -6.0000000000000044 1 0 
1 3.1415926535898127 0 0 -1 
1 0 0 1 0 
1 -182.99999999999991 24.999999999999996 0 -1 
1 0 0 1 0 
1 0 -18 1 0 
1 0 0 1 0 
1 0 -18 1 0 
1 0 0 1 0 
1 0 -18 1 0 
1 0 0 1 0 
1 0 -18 1 0 
1 365.99999999999989 -1.8673951274195133e-13 1.1102230246251565e-16 -1 
1 0 0 0 -1 
1 0 -18 1 0 
1 -182.99999999999991 24.999999999999996 0 -1 
1 0 -18 1 0 
1 182.99999999999997 24.999999999999996 0 -1 
1 1.9984014443252818e-15 -18 1 0 
1 182.99999999999997 24.999999999999996 -1 0 
1 0 0 0 -1 
1 0 0 1.1102230246251565e-16 -1 
1 3.1415926535897878 0 0 -1 
1 1.5707963267948966 0 0 -1 
1 3.1415926535897967 0 0 -1 
1 1.5707963267948912 0 0 -1 
1 4.7123889803846897 0 0 -1 
1 7.8539816339744828 0 0 -1 
1 4.7123889803846897 0 0 -1 
1 1.5707963267948966 0 0 -1 
1 4.7123889803846897 0 0 -1 
1 7.8539816339744828 0 0 -1 
1 1.5707963267948966 0 0 -1 
1 4.7123889803846897 0 0 -1 
Curves 44
1 50 366.00000000000011 1 0 -1 1.1102230246251565e-16 
1 50 317.00000000000011 -4.8580664549146826e-15 0 0 1 
1 50 366.00000000000011 -3.9518666761094307e-14 -0 -1 7.073591899220331e-16 
1 50 303.00000000000011 5.0449622039937813e-15 0 0 1 
1 50 2.2737367544323206e-13 2.2737367544323206e-13 0 0 1 
1 50 366.00000000000011 1 0 -1 1.1102230246251565e-16 
1 50 366.00000000000011 0 0 0 1 
2 47.999999999999957 317.00000000000011 -4.8580664549146842e-15 -0 -7.073591899220331e-16 -1 -1 0 0 0 1 -7.073591899220331e-16 2
1 -140 319.00000000000011 -6.2727848347587498e-15 1 0 -0 
2 2 317.00000000000011 -4.8580664549146842e-15 -0 -7.073591899220331e-16 -1 -0 -1 7.073591899220331e-16 -1 0 0 2
1 0 366.00000000000011 1 0 -1 1.1102230246251565e-16 
1 415 1230 870 1 0 -0 
1 48 319.00000000000011 -6.2727848347587498e-15 0 0 1 
2 48 303.00000000000011 5.0449622039937797e-15 0 -7.073591899220331e-16 -1 0 1 -7.073591899220331e-16 1 0 0 2
1 -140 301.00000000000011 6.4596805838378454e-15 1 0 -0 
2 1.9999999999999893 303.00000000000011 5.0449622039937797e-15 0 -7.073591899220331e-16 -1 1 0 0 0 -1 7.073591899220331e-16 2
1 0 366.00000000000011 -3.9518666761094307e-14 -0 -1 7.073591899220331e-16 
1 47.999999999999964 301.00000000000011 6.4596805838378461e-15 0 0 1 
1 415 1230 1236 1 0 -0 
2 25 97.000000000000227 3.5453822626367045e-15 0 7.07359189922033e-16 1 0 -1 7.07359189922033e-16 1 0 -0 3.25
1 21.75 236.50000000000011 -9.5131224731486826e-14 0 1 -7.07359189922033e-16 
1 28.25 236.50000000000011 -9.5131224731486826e-14 0 1 -7.07359189922033e-16 
2 25 107.00000000000023 -3.5282096365836255e-15 0 7.07359189922033e-16 1 0 -1 7.07359189922033e-16 1 0 -0 3.25
2 25 237.00000000000011 3.5469894701161016e-15 0 7.073591899220328e-16 1 0 -1 7.073591899220328e-16 1 0 -0 3.25
1 28.25 306.50000000000011 -4.5614474229465176e-14 0 1 -7.073591899220328e-16 
2 25 247.00000000000011 -3.5266024291042265e-15 0 7.073591899220328e-16 1 0 -1 7.073591899220328e-16 1 0 -0 3.25
1 21.75 306.50000000000011 -4.5614474229465176e-14 0 1 -7.073591899220328e-16 
1 0 2.2737367544323206e-13 2.2737367544323206e-13 0 0 1 
1 415 1230 1236 1 0 -0 
1 415 1230 870 1 0 -0 
1 0 366.00000000000011 1 0 -1 1.1102230246251565e-16 
1 0 366.00000000000011 0 0 0 1 
1 1.9999999999999891 319.00000000000011 -6.2727848347587506e-15 0 0 1 
1 0 317.00000000000011 -4.8580664549146826e-15 0 0 1 
1 -1.0658141036401503e-14 303.00000000000011 5.044962203993775e-15 0 0 1 
1 2 301.00000000000011 6.4596805838378454e-15 0 0 1 
1 21.75 97.000000000000227 5.0919785590752575e-14 0 0 1 
1 28.25 97.000000000000227 5.0919785590752575e-14 0 0 1 
1 21.75 107.00000000000023 4.8561921624345798e-14 0 0 1 
1 28.25 107.00000000000023 4.8561921624345811e-14 0 0 1 
1 21.75 237.00000000000011 -3.4566851569558006e-14 0 0 1 
1 28.25 237.00000000000011 -3.4566851569558006e-14 0 0 1 
1 28.25 247.00000000000011 -3.7072745272581468e-14 0 0 1 
1 21.75 247.00000000000011 -3.7072745272581468e-14 0 0 1 
Polygon3D 0
PolygonOnTriangulations 0
Surfaces 23
1 50 366.00000000000011 0 1 0 -0 0 -1 1.1102230246251565e-16 0 -1.1102230246251565e-16 -1 
1 24.999999999999996 183.00000000000014 1.0000000000000959 0 7.07359189922033e-16 1 0 1 -7.07359189922033e-16 -1 0 0 
2 47.999999999999957 317.00000000000011 -4.8580664549146842e-15 -0 -7.073591899220331e-16 -1 -1 0 0 0 1 -7.073591899220331e-16 2
1 50 317.00000000000011 -4.8580664549146826e-15 1 -0 0 -0 -1 7.073591899220331e-16 0 -7.073591899220331e-16 -1 
2 48 303.00000000000011 5.0449622039937797e-15 0 -7.073591899220331e-16 -1 0 1 -7.073591899220331e-16 1 0 0 2
1 0 2.2737367544323206e-13 2.2737367544323206e-13 0 1 0 1 0 0 0 0 -1 
1 24.999999999999996 183.00000000000014 1.0000000000000959 0 7.07359189922033e-16 1 0 1 -7.07359189922033e-16 -1 0 0 
1 0 366.00000000000011 0 0 1 0 1 0 0 0 0 -1 
2 2 317.00000000000011 -4.8580664549146842e-15 -0 -7.073591899220331e-16 -1 -0 -1 7.073591899220331e-16 -1 0 0 2
1 0 366.00000000000011 0 1 0 -0 0 -1 1.1102230246251565e-16 0 -1.1102230246251565e-16 -1 
1 2 319.00000000000011 -6.2727848347587498e-15 -0 1 0 1 0 -0 -0 0 -1 
1 24.999999999999989 310.00000000000017 9.3447874539507841e-17 0 7.073591899220331e-16 1 0 1 -7.073591899220331e-16 -1 0 0 
2 1.9999999999999893 303.00000000000011 5.0449622039937797e-15 0 -7.073591899220331e-16 -1 1 0 0 0 -1 7.073591899220331e-16 2
1 2 301.00000000000011 6.4596805838378454e-15 -0 1 0 1 0 -0 -0 0 -1 
2 25 97.000000000000227 3.5453822626367045e-15 -0 -7.07359189922033e-16 -1 0 -1 7.07359189922033e-16 1 0 -0 3.25
2 25 107.00000000000023 -3.5282096365836255e-15 -0 -7.07359189922033e-16 -1 0 -1 7.07359189922033e-16 1 0 -0 3.25
2 25 237.00000000000011 3.5469894701161016e-15 -0 -7.073591899220328e-16 -1 0 -1 7.073591899220328e-16 1 0 -0 3.25
2 25 247.00000000000011 -3.5266024291042265e-15 -0 -7.073591899220328e-16 -1 0 -1 7.073591899220328e-16 1 0 -0 3.25
1 0 317.00000000000011 -4.8580664549146826e-15 1 -0 0 -0 -1 7.073591899220331e-16 0 -7.073591899220331e-16 -1 
1 21.75 97.000000000000227 3.5453822626366915e-15 -1 0 0 0 1 -7.07359189922033e-16 -0 -7.07359189922033e-16 -1 
1 28.25 97.000000000000227 3.5453822626366915e-15 -1 0 0 0 1 -7.07359189922033e-16 -0 -7.07359189922033e-16 -1 
1 21.75 237.00000000000011 3.5469894701161035e-15 -1 0 0 0 1 -7.073591899220328e-16 -0 -7.073591899220328e-16 -1 
1 28.25 237.00000000000011 3.5469894701161035e-15 -1 0 0 0 1 -7.073591899220328e-16 -0 -7.073591899220328e-16 -1 
Triangulations 0

TShapes 153
Ve
1.5e-07
50 366 0
0 0

0101101
*
Ve
1.50000041631371e-07
50 317 -4.85806645491468e-15
0 0

0101101
*
Ed
 1.5e-07 1 1 0
1  1 0 0 49
2  1 1 2 0 49
2  2 2 0 0 49
0

0101000
+153 2 -152 2 *
Ve
1.50000032724664e-07
50 317 6
0 0

0101101
*
Ed
 1.50000032724664e-07 1 1 0
1  2 0 0 6
2  3 3 0 0 6
4 G1 4 0 3 0
0

0101000
+152 0 -150 0 *
Ve
1.50000032467471e-07
50 303 6.00000000000001
0 0

0101101
*
Ed
 1.50000032028938e-07 1 1 0
1  3 0 49 63
0

0101000
+150 4 -148 4 *
Ve
1.50000041631371e-07
50 303 5.04496220399378e-15
0 0

0101101
*
Ed
 1.50000032467471e-07 1 1 0
1  4 0 0 6
2  4 5 0 0 6
4 G1 4 0 5 0
0

0101000
+146 0 -148 0 *
Ve
1.5e-07
50 2.27373675443232e-13 2.27373675443232e-13
0 0

0101101
*
Ed
 1.5e-07 1 1 0
1  1 0 63 366
2  1 1 2 63 366
2  2 2 0 63 366
0

0101000
+146 2 -144 2 *
Ve
1.5e-07
50 2.27373675443232e-13 18.0000000000002
0 0

0101101
*
Ed
 1.5e-07 1 1 0
1  5 0 0 18
2  5 1 0 0 18
2  6 6 0 0 18
0

0101000
+144 0 -142 0 *
Ve
1.5e-07
50 366 18
0 0

0101101
*
Ed
 1e-07 1 1 0
1  6 0 0 366
2  7 1 7 0 366
2  8 7 0 0 366
0

0101000
+140 7 -142 7 *
Ed
 1.5e-07 1 1 0
1  7 0 0 18
2  9 1 0 0 18
2  10 8 0 0 18
0

0101000
+153 0 -140 0 *
Wi

0101100
-151 1 -149 0 -147 3 +145 0 -143 1 -141 0 +139 6 +138 0 *
Fa
0  1e-07 1 0

0101000
+137 0 *
Ve
1.50000034694494e-07
48 319 -6.27278483475875e-15
0 0

0101101
*
Ed
 1.50000005995204e-07 1 1 0
1  8 0 1.57079632679492 3.14159265358979
2  11 3 0 1.57079632679492 3.14159265358979
2  12 3 4 1.57079632679492 3.14159265358979
0

0101000
+135 0 -152 0 *
Ve
1.50000040980621e-07
1.99999999999999 319 -6.27278483475875e-15
0 0

0101101
*
Ed
 1.50000034694494e-07 1 1 0
1  9 0 142 188
0

0101000
+133 0 -135 0 *
Ve
1.50000041631371e-07
0 317 -4.85806645491468e-15
0 0

0101101
*
Ed
 1.50000005995204e-07 1 1 0
1  10 0 1.5707963267949 3.14159265358979
2  13 9 0 1.5707963267949 3.14159265358979
2  14 9 4 1.5707963267949 3.14159265358979
0

0101000
+131 0 -133 0 *
Ve
1.5e-07
0 366 0
0 0

0101101
*
Ed
 1.5e-07 1 1 0
1  11 0 0 49
2  15 10 2 0 49
2  16 2 0 0 49
0

0101000
+129 2 -131 2 *
Ed
 1.5e-07 1 1 0
1  12 0 0 50
2  17 8 15 0 50
2  18 2 16 0 50
0

0101000
+129 15 -153 15 *
Wi

0101100
-151 1 +134 0 +132 0 +130 0 +128 1 -127 14 *
Fa
0  1.5e-07 2 1

0101000
+126 0 *
Ve
1.50000034694494e-07
48 319 -6.27278483475875e-15
0 0

0101101
*
Ed
 1.50000034694494e-07 1 1 0
1  13 0 0 6
2  19 3 0 0 6
4 G1 11 0 3 0
0

0101000
+135 0 -124 3 *
Ed
 1.5e-07 1 1 0
1  8 0 1.57079632679492 3.14159265358979
2  11 3 0 1.57079632679492 3.14159265358979
2  12 3 4 1.57079632679492 3.14159265358979
0

0101000
+124 0 -150 4 *
Wi

0101100
+123 0 -149 0 -134 0 +122 3 *
Fa
0  1.5e-07 3 0

0101000
+121 0 *
Ve
1.50000038024551e-07
48 301 6.45968058383785e-15
0 0

0101101
*
Ed
 1.5e-07 1 1 0
1  14 0 1.5707963267949 3.14159265358981
2  20 5 0 1.5707963267949 3.14159265358981
2  21 5 4 1.5707963267949 3.14159265358981
0

0101000
+148 4 -119 0 *
Ve
1.5000003488139e-07
2 301 6.45968058383785e-15
0 0

0101101
*
Ed
 1.5000003488139e-07 1 1 0
1  15 0 142 188
0

0101000
+117 0 -119 0 *
Ve
2.06476556741109e-07
-1.06581410364015e-14 303 6.00000000000001
0 0

0101101
*
Ed
 1.5e-07 1 1 0
1  16 0 1.57079632679489 3.1415926535898
2  22 13 0 1.57079632679489 3.1415926535898
2  23 13 4 1.57079632679489 3.1415926535898
0

0101000
+117 0 -115 4 *
Ve
1.50000032724664e-07
0 317 6
0 0

0101101
*
Ed
 1.50000032028938e-07 1 1 0
1  17 0 49 63
0

0101000
+113 4 -115 4 *
Ve
1.50000040980621e-07
1.99999999999999 319 -6.27278483475875e-15
0 0

0101101
*
Ed
 1.5e-07 1 1 0
1  10 0 1.5707963267949 3.14159265358979
2  13 9 0 1.5707963267949 3.14159265358979
2  14 9 4 1.5707963267949 3.14159265358979
0

0101000
+113 4 -111 0 *
Ed
 1.50000034694494e-07 1 1 0
1  9 0 142 188
0

0101000
+111 0 -124 0 *
Wi

0101100
+147 3 +118 3 -116 3 +114 3 -112 3 +110 3 +109 3 +122 3 *
Fa
0  1e-07 12 3

0101000
-108 0 *
Ve
1.50000038024551e-07
48 301 6.45968058383785e-15
0 0

0101101
*
Ed
 1.50000038024551e-07 1 1 0
1  18 0 0 6
2  24 5 0 0 6
4 G1 5 0 14 0
0

0101000
+106 0 -119 3 *
Ed
 1.50000005995204e-07 1 1 0
1  14 0 1.5707963267949 3.14159265358981
2  20 5 0 1.5707963267949 3.14159265358981
2  21 5 4 1.5707963267949 3.14159265358981
0

0101000
+146 0 -106 0 *
Wi

0101100
+145 0 -105 0 -104 0 +118 3 *
Fa
0  1.5e-07 5 0

0101000
+103 0 *
Ve
1.5e-07
0 2.27373675443232e-13 2.27373675443232e-13
0 0

0101101
*
Ed
 1.5e-07 1 1 0
1  19 0 0 50
2  25 6 20 0 50
2  26 2 21 0 50
0

0101000
+101 20 -144 20 *
Ve
1.5000003488139e-07
2 301 6.45968058383785e-15
0 0

0101101
*
Ed
 1.5000003488139e-07 1 1 0
1  15 0 142 188
0

0101000
+99 0 -106 0 *
Ve
2.06476556741109e-07
-1.06581410364015e-14 303 5.04496220399378e-15
0 0

0101101
*
Ed
 1.5e-07 1 1 0
1  11 0 63 366
2  15 10 2 63 366
2  16 2 0 63 366
0

0101000
+97 2 -101 2 *
Ed
 1.50000005995204e-07 1 1 0
1  16 0 1.57079632679489 3.1415926535898
2  22 13 0 1.57079632679489 3.1415926535898
2  23 13 4 1.57079632679489 3.1415926535898
0

0101000
+99 0 -97 0 *
Wi

0101100
-143 1 +104 0 +100 19 -98 0 +96 1 +95 0 *
Ve
1.50000380730248e-07
21.75 97.0000000000002 5.09197855907526e-14
0 0

0101101
*
Ve
1.50000380730248e-07
28.25 97.0000000000002 5.09197855907526e-14
0 0

0101101
*
Ed
 1.50000153210777e-07 1 1 0
1  20 0 4.71238898038469 7.85398163397448
2  27 15 0 4.71238898038469 7.85398163397448
2  28 15 23 4.71238898038469 7.85398163397448
0

0101000
+93 0 -92 0 *
Ve
1.50000383088112e-07
21.75 107 4.85619216243458e-14
0 0

0101101
*
Ed
 1.50000357043046e-07 1 1 0
1  21 0 -139.5 -129.5
0

0101000
+93 0 -90 0 *
Ve
1.50000383088112e-07
28.25 107 4.85619216243458e-14
0 0

0101101
*
Ed
 1.50000357043046e-07 1 1 0
1  22 0 -139.5 -129.5
0

0101000
+92 0 -88 0 *
Ed
 1.50000153210777e-07 1 1 0
1  23 0 1.5707963267949 4.71238898038469
2  29 16 0 1.5707963267949 4.71238898038469
2  30 16 23 1.5707963267949 4.71238898038469
0

0101000
+88 0 -90 0 *
Wi

0101100
-91 0 +89 0 -87 0 -86 0 *
Ve
1.50000096193962e-07
21.75 237 -3.4566851569558e-14
0 0

0101101
*
Ve
1.50000096193962e-07
28.25 237 -3.4566851569558e-14
0 0

0101101
*
Ed
 1.50000076142637e-07 1 1 0
1  24 0 4.71238898038469 7.85398163397448
2  31 17 0 4.71238898038469 7.85398163397448
2  32 17 25 4.71238898038469 7.85398163397448
0

0101000
+84 0 -83 0 *
Ve
1.50000093910113e-07
28.25 247 -3.70727452725815e-14
0 0

0101101
*
Ed
 1.50000077137042e-07 1 1 0
1  25 0 -69.5 -59.5
0

0101000
+83 0 -81 0 *
Ve
1.50000093910113e-07
21.75 247 -3.70727452725815e-14
0 0

0101101
*
Ed
 1.50000073803483e-07 1 1 0
1  26 0 1.5707963267949 4.71238898038469
2  33 18 0 1.5707963267949 4.71238898038469
2  34 18 25 1.5707963267949 4.71238898038469
0

0101000
+81 0 -79 0 *
Ed
 1.50000077137042e-07 1 1 0
1  27 0 -69.5 -59.5
0

0101000
+84 0 -79 0 *
Wi

0101100
-82 0 -80 0 -78 0 +77 0 *
Fa
0  1.5e-07 2 1

0101000
+94 0 +85 0 +76 0 *
Ve
1.5e-07
0 2.27373675443232e-13 18.0000000000002
0 0

0101101
*
Ed
 1.5e-07 1 1 0
1  28 0 0 18
2  35 10 0 0 18
2  36 6 0 0 18
0

0101000
+101 0 -74 0 *
Ed
 1.5e-07 1 1 0
1  29 0 0 50
2  37 6 27 0 50
2  38 7 21 0 50
0

0101000
+74 27 -142 27 *
Wi

0101100
+73 0 -141 0 -100 19 +72 26 *
Fa
0  1.5e-07 6 0

0101000
+71 0 *
Ve
1.5e-07
0 366 18
0 0

0101101
*
Ed
 1.5e-07 1 1 0
1  30 0 0 50
2  39 8 29 0 50
2  40 7 16 0 50
0

0101000
+69 29 -140 29 *
Ed
 1e-07 1 1 0
1  31 0 0 366
2  41 10 7 0 366
2  42 7 0 0 366
0

0101000
+69 7 -74 7 *
Wi

0101100
-139 6 -68 28 +72 26 +67 6 *
Ve
1.50000380730248e-07
21.75 97.0000000000002 18
0 0

0101101
*
Ve
1.50000380730248e-07
28.25 97.0000000000002 18
0 0

0101101
*
Ed
 1.50000156319402e-07 1 1 0
1  20 0 4.71238898038469 7.85398163397448
2  27 15 0 4.71238898038469 7.85398163397448
2  28 15 23 4.71238898038469 7.85398163397448
0

0101000
+65 23 -64 23 *
Ve
1.50000383088112e-07
21.75 107 18
0 0

0101101
*
Ed
 1.50000357043046e-07 1 1 0
1  21 0 -139.5 -129.5
0

0101000
+65 23 -62 23 *
Ve
1.50000383088112e-07
28.25 107 18
0 0

0101101
*
Ed
 1.50000357043046e-07 1 1 0
1  22 0 -139.5 -129.5
0

0101000
+64 23 -60 23 *
Ed
 1.50000156319402e-07 1 1 0
1  23 0 1.5707963267949 4.71238898038469
2  29 16 0 1.5707963267949 4.71238898038469
2  30 16 23 1.5707963267949 4.71238898038469
0

0101000
+60 23 -62 23 *
Wi

0101100
-63 22 +61 22 -59 22 -58 22 *
Ve
1.50000096193962e-07
21.75 237 18
0 0

0101101
*
Ve
1.50000096193962e-07
28.25 237 18
0 0

0101101
*
Ed
 1.50000076142637e-07 1 1 0
1  24 0 4.71238898038469 7.85398163397448
2  31 17 0 4.71238898038469 7.85398163397448
2  32 17 25 4.71238898038469 7.85398163397448
0

0101000
+56 25 -55 25 *
Ve
1.50000093910113e-07
28.25 247 18
0 0

0101101
*
Ed
 1.50000077137042e-07 1 1 0
1  25 0 -69.5 -59.5
0

0101000
+55 25 -53 25 *
Ve
1.50000093910113e-07
21.75 247 18
0 0

0101101
*
Ed
 1.50000073803483e-07 1 1 0
1  26 0 1.5707963267949 4.71238898038469
2  33 18 0 1.5707963267949 4.71238898038469
2  34 18 25 1.5707963267949 4.71238898038469
0

0101000
+53 25 -51 25 *
Ed
 1.50000077137042e-07 1 1 0
1  27 0 -69.5 -59.5
0

0101000
+56 25 -51 25 *
Wi

0101100
-54 24 -52 24 -50 24 +49 24 *
Fa
0  1.5e-07 7 6

0101000
+66 0 +57 0 +48 0 *
Ed
 1.5e-07 1 1 0
1  32 0 0 18
2  43 8 0 0 18
2  44 10 0 0 18
0

0101000
+129 0 -69 0 *
Wi

0101100
+46 0 -138 0 -127 14 +68 28 *
Fa
0  1.5e-07 8 0

0101000
+45 0 *
Ed
 1.50000040980621e-07 1 1 0
1  33 0 0 6
2  45 9 0 0 6
4 G1 9 0 11 0
0

0101000
+133 0 -111 3 *
Wi

0101100
+43 0 -123 0 -132 0 +109 3 *
Fa
0  1.50000034694494e-07 11 0

0101000
+42 0 *
Ed
 1.50000032724664e-07 1 1 0
1  34 0 0 6
2  46 9 0 0 6
4 G1 19 0 9 0
0

0101000
+131 0 -113 0 *
Wi

0101100
+40 0 -43 0 -130 0 +110 3 *
Fa
0  1.5e-07 9 0

0101000
+39 0 *
Ed
 1.50000039821892e-07 1 1 0
1  35 0 0 6
2  47 13 0 0 6
4 G1 13 0 19 0
0

0101000
+97 0 -115 0 *
Wi

0101100
-128 1 -40 0 -112 3 +37 0 -96 1 -73 0 +67 6 +46 0 *
Fa
0  1e-07 10 0

0101000
+36 0 *
Ed
 1.5000003488139e-07 1 1 0
1  36 0 0 6
2  48 13 0 0 6
4 G1 14 0 13 0
0

0101000
+99 0 -117 3 *
Wi

0101100
+34 0 -105 0 -98 0 +116 3 *
Fa
0  1.5000003488139e-07 14 0

0101000
+33 0 *
Wi

0101100
+34 0 -37 0 -95 0 +114 3 *
Fa
0  1.5e-07 13 0

0101000
+31 0 *
Ed
 1.50000380730248e-07 1 1 0
1  37 0 0 18
2  49 15 0 0 18
4 G1 20 0 15 0
0

0101000
+93 0 -65 0 *
Ed
 1.50000380730248e-07 1 1 0
1  38 0 0 18
2  50 15 0 0 18
4 G1 21 0 15 0
0

0101000
+92 0 -64 0 *
Wi

0101100
+29 0 -28 0 -91 0 +63 22 *
Fa
0  1.5000014842599e-07 15 0

0101000
+27 0 *
Ed
 1.50000383088112e-07 1 1 0
1  39 0 0 18
2  51 16 0 0 18
4 G1 20 0 16 0
0

0101000
+90 0 -62 0 *
Wi

0101100
+29 0 -25 0 -89 0 +61 22 *
Fa
0  1.50000357043046e-07 20 0

0101000
+24 0 *
Ed
 1.50000383088112e-07 1 1 0
1  40 0 0 18
2  52 16 0 0 18
4 G1 16 0 21 0
0

0101000
+88 0 -60 0 *
Wi

0101100
+28 0 -22 0 -87 0 +59 22 *
Fa
0  1.50000357043046e-07 21 0

0101000
+21 0 *
Wi

0101100
+22 0 -25 0 -86 0 +58 22 *
Fa
0  1.50000148411798e-07 16 0

0101000
+19 0 *
Ed
 1.50000096193962e-07 1 1 0
1  41 0 0 18
2  53 17 0 0 18
4 G1 22 0 17 0
0

0101000
+84 0 -56 0 *
Ed
 1.50000096193962e-07 1 1 0
1  42 0 0 18
2  54 17 0 0 18
4 G1 23 0 17 0
0

0101000
+83 0 -55 0 *
Wi

0101100
+17 0 -16 0 -82 0 +54 24 *
Fa
0  1.50000076142637e-07 17 0

0101000
+15 0 *
Ed
 1.50000093910113e-07 1 1 0
1  43 0 0 18
2  55 18 0 0 18
4 G1 18 0 23 0
0

0101000
+81 0 -53 0 *
Wi

0101100
+16 0 -13 0 -80 0 +52 24 *
Fa
0  1.50000077137042e-07 23 0

0101000
+12 0 *
Ed
 1.50000093910113e-07 1 1 0
1  44 0 0 18
2  56 18 0 0 18
4 G1 22 0 18 0
0

0101000
+79 0 -51 0 *
Wi

0101100
+13 0 -10 0 -78 0 +50 24 *
Fa
0  1.50000073803483e-07 18 0

0101000
+9 0 *
Wi

0101100
+17 0 -10 0 -77 0 +49 24 *
Fa
0  1.50000077137042e-07 22 0

0101000
+7 0 *
Sh

0101100
+136 0 -125 0 -120 0 -107 0 -102 0 -75 0 -70 0 +47 0 +44 0 -41 0 
-38 0 -35 0 +32 0 -30 0 +26 0 -23 0 +20 0 +18 0 +14 0 +11 0 
+8 0 -6 0 *
So

0100000
+5 0 *
Co

0100000
+4 0 *
Co

0100000
+3 0 *
Co

1100000
+2 0 *

+1 0 