DBRep_DrawableShape

CASCADE Topology V1, (c) Matra-Datavision
Locations 24
1
              1               0               0               0 
              0               1               0               0 
              0               0               1               0 
1
              1               0               0               0 
              0               1               0               0 
              0               0               1               0 
1
              1               0               0               0 
              0               1               0               0 
              0               0               1               0 
1
              1               0               0               0 
              0               1               0               0 
              0               0               1               0 
1
              1               0               0               0 
              0               1               0               0 
              0               0               1               0 
2  1 1 2 1 3 1 4 1 5 1 0
2  5 -1 4 -1 3 -1 2 -1 1 -1 0
1
              1               0               0              18 
              0               1               0               0 
              0               0               1               0 
2  8 1 1 1 2 1 3 1 4 1 5 1 0
2  8 -1 0
2  5 -1 4 -1 3 -1 2 -1 1 -1 8 -1 0
2  1 1 2 1 3 1 4 1 0
2  2 1 3 1 4 1 0
2  5 -1 4 -1 3 -1 2 -1 0
2  3 1 4 1 0
2  1 1 2 1 0
2  5 -1 4 -1 3 -1 0
2  2 1 3 1 4 1 5 1 0
2  8 1 1 1 0
2  3 1 4 1 5 1 0
2  4 1 5 1 0
2  8 1 1 1 2 1 3 1 0
2  5 -1 4 -1 0
2  8 1 1 1 2 1 0
Curve2ds 260
1 0 0 1 0 
1 -257.98412378671179 689.09093437701847 0 -1 
1 1308.0999999999999 0 0 -1 
1 0 0 0 -1 
1 0 0 0 -1 
1 0 0 0 1 
1 0 0 0 1 
1 0 0 1 0 
1 0 -18 1 0 
1 -257.98412378671179 689.09093437701847 0 -1 
1 0 0 0 1 
1 0 18 1 0 
1 0 0 0 -1 
1 0 0 0 1 
1 0 0 0 -1 
1 400.05000000000001 0 0 -1 
7 0 0  8 30 5  0 4.5  0.19634954084936207 4.5  0.3926990816974012 4.742334267921251  0.58904862255030821 5.2270007451297715  0.78539816339161916 5.9340768718138861  0.98174770424930102 6.8236770633375272  1.1780972450948184 7.8401547942430625  1.3744467859455343 8.920077525328507  1.7180584824319181 10.809941856003615  1.8653206380690535 11.619883415588889  2.0125827937062155 12.403061666176654  2.1598449493433236 13.132706152780884  2.3071071049802612 13.783917204162947  2.4543692606170815 14.335497736493124  2.6016314162540466 14.771386099340463  2.9697868053466006 15.546264423019501  3.1906800388010197 15.727833439043025  3.4115732722566463 15.591479623566556  3.6324665057254606 15.132115552638425  3.8533597391615331 14.379598189108947  4.0742529726226167 13.39629945438719  4.2951462060797949 12.26456534661494  4.7369326729908598 9.8814281955624743  4.9578259064464874 8.6300238332496519  5.1787191398980212 7.4073871230866644  5.3996123733377317 6.308310308635555  5.6205056068174599 5.4201077384677774  5.8413988402662653 4.8067047440017632  6.0622920737240431 4.5000000000000009  6.2831853071795756 4.5 
 3.1415926535897931 9 4.7123889803846879 7 5.8904862254808563 7 7.6576320931251178 7 9.4247779607693793 9
3 -161.98412378671179 689.09093437701847 0 -1 1 0 7.7781745930520225 5.5
1 0 0 1 0 
1 142.06587621328822 689.09093437701847 -1 0 
7 0 0  8 30 5  0 4.5  0.19634954084936207 4.5  0.39269908169819701 4.742334267921251  0.58904862254894397 5.2270007451297715  0.78539816339161916 5.9340768718138861  0.98174770425021052 6.8236770633375272  1.1780972450959553 7.8401547942430625  1.3744467859455343 8.920077525328507  1.7180584824319181 10.809941856003615  1.8653206380687977 11.619883415588889  2.0125827937063718 12.403061666176654  2.1598449493434373 13.132706152780884  2.3071071049801617 13.783917204162947  2.4543692606171668 14.335497736493124  2.6016314162540466 14.771386099340463  2.9697868053466006 15.546264423019501  3.1906800388010197 15.727833439043025  3.4115732722548273 15.591479623566556  3.6324665057145467 15.132115552638425  3.85335973916699 14.379598189108947  4.0742529726212524 13.39629945438719  4.2951462060797949 12.26456534661494  4.7369326729908598 9.8814281955624743  4.9578259064473968 8.6300238332496519  5.1787191398907453 7.4073871230866644  5.3996123733522836 6.308310308635555  5.62050560679927 5.4201077384677774  5.8413988402708128 4.8067047440017632  6.0622920737240431 4.5000000000000009  6.2831853071795756 4.5 
 3.1415926535897931 9 4.7123889803846879 7 5.8904862254808563 7 7.6576320931251178 7 9.4247779607693793 9
3 -103.98412378671179 689.09093437701847 0 -1 1 0 7.7781745930520225 5.5
1 0 0 1 0 
1 142.06587621328822 689.09093437701847 -1 0 
1 0 0 1 0 
1 338.91587621328819 -438.03406562298153 -0.17204376626835494 0.98508930685912921 
1 0 -0 1 0 
1 338.91587621328819 -619.00906562298144 0 1 
1 0 0 1 0 
1 -257.98412378671179 -619.00906562298144 1 0 
7 0 0  8 30 5  0 15.5  0.19634954084936207 15.5  0.39269908169887913 15.257665732073292  0.58904862254803447 14.772999254826573  0.78539816339707613 14.065923128160648  0.98174770424566304 13.176322936604265  1.1780972450965237 12.159845205751481  1.3744467859455138 11.079922474671605  1.7180584824318974 9.1900581439964952  1.8653206380690484 8.3801165844099454  2.0125827937060734 7.5969383338267278  2.1598449493433236 6.8672938472222995  2.3071071049802327 6.216082795837309  2.4543692606167387 5.6645022635074227  2.6016314162540373 5.2286139006596812  2.9697868053465908 4.453735576980641  3.1906800388010197 4.2721665609587944  3.4115732722548273 4.4085203763715981  3.6324665056963568 4.8678844473615754  3.85335973916699 5.6204018108437594  4.0742529726226167 6.6037005456237239  4.2951462060798171 7.7354346533851848  4.7369326729908821 10.11857180443765  4.9578259064437589 11.369976166730339  5.1787191398980212 12.592612876942439  5.3996123733522836 13.691689691317151  5.620505606810184 14.579892261543137  5.8413988402644463 15.193295255981866  6.0622920737240431 15.5  6.2831853071795756 15.5 
 0 9 1.5707963267948954 7 2.7488935718910672 7 4.5160394395353265 7 6.2831853071795862 9
3 -135.98412378671179 -619.00906562298144 0 1 -1 0 7.7781745930520225 5.5
7 0 0  8 30 5  0 15.5  0.19634954084936207 15.5  0.39269908169887913 15.257665732073292  0.58904862254803447 14.772999254826573  0.78539816339707613 14.065923128160648  0.98174770424566304 13.176322936604265  1.1780972450965237 12.159845205751481  1.3744467859455138 11.079922474671605  1.7180584824318974 9.1900581439964952  1.8653206380690484 8.3801165844099454  2.0125827937060734 7.5969383338267278  2.1598449493433236 6.8672938472222995  2.3071071049802327 6.216082795837309  2.4543692606167387 5.6645022635074227  2.6016314162540373 5.2286139006596812  2.9697868053465908 4.453735576980641  3.1906800388010197 4.2721665609587944  3.4115732722548273 4.4085203763715981  3.6324665056963568 4.8678844473615754  3.85335973916699 5.6204018108437594  4.0742529726226167 6.6037005456237239  4.2951462060798171 7.7354346533851848  4.7369326729908821 10.11857180443765  4.9578259064437589 11.369976166730339  5.1787191398980212 12.592612876942439  5.3996123733522836 13.691689691317151  5.620505606810184 14.579892261543137  5.8413988402644463 15.193295255981866  6.0622920737240431 15.5  6.2831853071795756 15.5 
 0 9 1.5707963267948954 7 2.7488935718910672 7 4.5160394395353265 7 6.2831853071795862 9
3 -135.98412378671179 -619.00906562298144 0 1 -1 0 7.7781745930520225 5.5
1 0 0 1 0 
1 -257.98412378671179 -619.00906562298144 1 0 
7 0 0  8 30 5  0 15.5  0.19634954084936207 15.5  0.39269908169762857 15.257665732073292  0.58904862254848922 14.772999254826573  0.78539816339616664 14.065923128160648  0.9817477042452083 13.176322936604265  1.1780972450957279 12.159845205751481  1.3744467859455138 11.079922474671605  1.7180584824318974 9.1900581439964952  1.8653206380684941 8.3801165844099454  2.0125827937066489 7.5969383338267278  2.1598449493428689 6.8672938472222995  2.3071071049791527 6.216082795837309  2.4543692606174208 5.6645022635074227  2.6016314162540382 5.2286139006596812  2.9697868053465921 4.453735576980641  3.1906800388010197 4.2721665609587944  3.4115732722548273 4.4085203763715981  3.6324665056963568 4.8678844473615754  3.85335973916699 5.6204018108437594  4.0742529726226167 6.6037005456237239  4.2951462060798171 7.7354346533851848  4.7369326729908821 10.11857180443765  4.9578259064437589 11.369976166730339  5.1787191398980212 12.592612876942439  5.3996123733522836 13.691689691317151  5.620505606810184 14.579892261543137  5.8413988402644463 15.193295255981866  6.0622920737240431 15.5  6.2831853071795756 15.5 
 0 9 1.5707963267948961 7 2.7488935718910681 7 4.5160394395353265 7 6.2831853071795862 9
3 -193.98412378671179 -619.00906562298144 0 1 -1 0 7.7781745930520225 5.5
7 0 0  8 30 5  0 15.5  0.19634954084936207 15.5  0.39269908169762857 15.257665732073292  0.58904862254848922 14.772999254826573  0.78539816339616664 14.065923128160648  0.9817477042452083 13.176322936604265  1.1780972450957279 12.159845205751481  1.3744467859455138 11.079922474671605  1.7180584824318974 9.1900581439964952  1.8653206380684941 8.3801165844099454  2.0125827937066489 7.5969383338267278  2.1598449493428689 6.8672938472222995  2.3071071049791527 6.216082795837309  2.4543692606174208 5.6645022635074227  2.6016314162540382 5.2286139006596812  2.9697868053465921 4.453735576980641  3.1906800388010197 4.2721665609587944  3.4115732722548273 4.4085203763715981  3.6324665056963568 4.8678844473615754  3.85335973916699 5.6204018108437594  4.0742529726226167 6.6037005456237239  4.2951462060798171 7.7354346533851848  4.7369326729908821 10.11857180443765  4.9578259064437589 11.369976166730339  5.1787191398980212 12.592612876942439  5.3996123733522836 13.691689691317151  5.620505606810184 14.579892261543137  5.8413988402644463 15.193295255981866  6.0622920737240431 15.5  6.2831853071795756 15.5 
 0 9 1.5707963267948961 7 2.7488935718910681 7 4.5160394395353265 7 6.2831853071795862 9
3 -193.98412378671179 -619.00906562298144 0 1 -1 0 7.7781745930520225 5.5
1 0 0 1 0 
1 -257.98412378671179 -619.00906562298144 1 0 
1 0 0 1 0 
1 142.06587621328822 689.09093437701847 -1 0 
2 92.60953818511922 600.09093437701847 1 0 -0 1 7.9375
1 0 1 1 0 
2 99.246157903429037 562.09093437701847 1 0 -0 1 7.9375
1 0 1 1 0 
3 64 -5.7729999999999997e-14 0 -1 1 0 7.7781745930520225 5.5
7 0 0  8 16 3  1.3372625992285925 8.7272077938620214  1.5628038560237418 9.9340115970271547  1.7883451128188881 11.214811221796481  2.0138863696101907 12.476052954421903  2.2394276264058135 13.616201535507571  2.4649688832014363 14.540763941113255  2.690510140000697 15.180251997151572  2.9160513967946438 15.500000000000114  3.3671339103849425 15.500000000000114  3.5926751671763668 15.180251997151572  3.8182164239788108 14.540763941171463  4.0437576807416917 13.616201535442087  4.2692989375755133 12.476052954523766  4.4948401943565841 11.214811221796481  4.720381451155844 9.9340115970271547  4.9459227079509933 8.7272077938620214 
 4.4788552528183905 9 6.2831853071795862 7 8.0875153615407811 9
3 122 -5.7729999999999997e-14 0 -1 1 0 7.7781745930520225 5.5
7 0 0  8 16 3  1.3372625992285925 8.7272077938620214  1.5628038560237418 9.9340115970271547  1.7883451128184333 11.214811221796481  2.0138863696056433 12.476052954421903  2.2394276264149084 13.616201535507571  2.4649688831959793 14.540763941113255  2.6905101399993328 15.180251997151572  2.9160513967946438 15.500000000000114  3.3671339103849425 15.500000000000114  3.5926751671763668 15.180251997151572  3.8182164239788108 14.540763941171463  4.0437576807416917 13.616201535442087  4.2692989375755133 12.476052954523766  4.4948401943565841 11.214811221796481  4.720381451155844 9.9340115970271547  4.9459227079509933 8.7272077938620214 
 4.4788552528183905 9 6.2831853071795862 7 8.0875153615407811 9
1 596.89999999999998 0 0 -1 
1 0 -0 0 -1 
1 0 -18 1 0 
1 0 0 1 0 
1 0 0 1 0 
1 0 4 1 0 
1 0 0 0 1 
1 0 1272.0999999999999 1 0 
1 0 0 1 0 
1 0 0 1 0 
1 0 -18 1 0 
1 0 4 1 0 
1 0 0 0 -1 
1 4 0 0 1 
1 0 0 0 1 
1 0 0 1 0 
1 0 -18 1 0 
1 0 0 1 0 
3 246.05000000000001 0 0 -1 1 0 7.7781745930520225 5.5
7 0 0  8 9 2  4.4788552528189136 8.7272077938646202  4.7043965096139981 9.9340115970295528  4.9299377664094877 11.214811221796481  5.1554790232042009 12.476052954465558  5.381020279995731 13.616201535405708  5.606561536792718 14.540763941113255  5.8321027935899323 15.180251997151572  6.0576440503845017 15.5  6.2831853071795862 15.5 
 4.4788552528189136 9 6.2831853071795862 9
3 246.05000000000001 0 0 -1 1 0 7.7781745930520225 5.5
7 0 0  8 9 2  0 15.5  0.22554125679508411 15.5  0.45108251358954021 15.180251997160667  0.67662377038459454 14.540763941091427  0.90216502717612457 13.616201535442087  1.1277062839758401 12.47605295444373  1.3532475407698712 11.2148112217983  1.5787887975655888 9.9340115970295528  1.8043300543606728 8.7272077938646202 
 0 9 1.8043300543606728 9
3 304.05000000000001 0 0 -1 1 0 7.7781745930520225 5.5
7 0 0  8 9 2  4.4788552528189118 8.7272077938646095  4.7043965096139964 9.9340115970295439  4.9299377664096014 11.214811221794662  5.1554790232037462 12.47605295444373  5.3810202800043712 13.616201535391156  5.6065615367940822 14.540763941120531  5.8321027935899323 15.180251997142477  6.0576440503845017 15.5  6.2831853071795862 15.5 
 4.4788552528189118 9 6.2831853071795862 9
3 304.05000000000001 0 0 -1 1 0 7.7781745930520225 5.5
7 0 0  8 9 2  0 15.5  0.22554125679508424 15.5  0.45108251358988127 15.180251997144296  0.67662377038686827 14.540763941156911  0.90216502717703406 13.616201535369328  1.1277062839762948 12.47605295448011  1.3532475407698712 11.214811221781929  1.5787887975655894 9.9340115970295493  1.8043300543606737 8.7272077938646149 
 0 9 1.804330054360674 9
1 0 0 1 0 
1 0 0 1 0 
1 0 0 0 -1 
1 1144.1856003835217 0 0 -1 
7 0 0  8 30 5  0 29.955844122715714  0.19634954084936207 29.955844122715714  0.3926990816974012 30.198178390597604  0.58904862254667023 30.682844867769745  0.78539816339616664 31.389920994464774  0.98174770424611779 32.279521185992053  1.1780972450951595 33.295998916928511  1.3744467859455345 34.375921648044226  1.7180584824319183 36.265785978719329  1.8653206380690537 37.075727538303731  2.0125827937062155 37.858905788907123  2.1598449493433236 38.588550275502712  2.3071071049802612 39.239761326872895  2.4543692606170815 39.791341859212395  2.6016314162540466 40.227230222056164  2.9697868053466006 41.002108545735211  3.1906800388010197 41.183677561741206  3.4115732722548273 41.047323746272014  3.6324665057145467 40.587959675234742  3.85335973916699 39.83544231185806  4.0742529726212524 38.85214357705263  4.2951462060797949 37.720409469330654  4.7369326729908598 35.337272318278188  4.9578259064464874 34.085867955946014  5.1787191398980212 32.863231245864881  5.3996123733522836 31.764154431351926  5.6205056068174599 30.875951861220528  5.8413988402699033 30.262548866703582  6.0622920737240431 29.955844122715714  6.2831853071795756 29.955844122715714 
 3.1415926535897931 9 4.7123889803847163 7 5.890486225480899 7 7.6576320931251391 7 9.4247779607693793 9
3 -161.98412378671179 671.09093437701847 0 -1 1 0 7.7781745930520225 5.5
7 0 0  6 7 2  4.1111247637055568 32.344574285494886  4.219910240122962 32.837961696277198  4.3286957165403237 33.375532369483153  4.4374811929578755 33.946778521137276  4.546266669375143 34.539613596909476  4.655052145792582 35.141158405774334  4.7638376222099872 35.738686835190329 
 4.1111247637055577 7 4.7638376222099881 7
3 96 4 0 1 -1 0 7.7781745930520225 5.5
7 0 0  3 25 23  -2.1109403044711019 32.627416997969519  -2.1027563048093416 32.666020765769957  -2.086388305485821 32.743796937523022  -2.0618363065005374 32.862095710431284  -2.0372843075152538 32.981957978708671  -2.0127323085299738 33.103311416006427  -1.988180309544691 33.226082894679564  -1.9636283105594101 33.350198406195098  -1.9390763115741274 33.475583138879536  -1.9145243125888456 33.60216151413416  -1.8899723136035638 33.729857234370584  -1.8654203146182811 33.858593328363327  -1.8408683156330001 33.988292197816456  -1.8163163166477165 34.11887566409186  -1.7917643176624365 34.250265015345398  -1.7672123186771511 34.382381053968047  -1.7426603196918737 34.515144144327557  -1.7181083207065884 34.648474260759812  -1.6935563217213057 34.782291035844935  -1.6690043227360265 34.916513808704487  -1.6444523237507447 35.051061674166796  -1.6199003247654593 35.185853529498196  -1.5953483257801802 35.320808130888203  -1.5789803264566586 35.410832119670296  -1.5707963267948966 35.455844122715718 
 4.1722450027084852 4 4.196797001693767 1 4.2213490006790488 1 4.2459009996643315 1 4.2704529986496134 1 4.2950049976348952 1 4.319556996620177 1 4.3441089956054597 1 4.3686609945907415 1 4.3932129935760234 1 4.4177649925613052 1 4.442316991546587 1 4.4668689905318697 1 4.4914209895171515 1 4.5159729885024333 1 4.5405249874877152 1 4.5650769864729979 1 4.5896289854582797 1 4.6141809844435615 1 4.6387329834288433 1 4.663284982414126 1 4.6878369813994079 1 4.7123889803846897 4
7 0 0  5 6 2  4.1722450027084843 32.627416997969519  4.2802737982437256 33.136987807368648  4.3883025937789739 33.6878178529509  4.4963313893142072 34.267526389421448  4.6043601848494484 34.861685747271892  4.7123889803846897 35.455844122715718 
 4.1722450027084852 6 4.7123889803846897 6
7 0 0  7 14 3  3.8708398065126026 33.900209204105288  4.0431501994173873 33.268743920589785  4.2154605923221524 32.495214806457625  4.3877709852268012 31.610247047745361  4.5600813781316205 30.654788210234983  4.7323917710366104 29.676446474226395  4.9047021639413089 28.723105889394649  5.2493229497508782 26.952299783780933  5.4216333426557455 26.134835173084866  5.5939437355600816 25.428240796285536  5.7662541284653557 24.870535060515977  5.9385645213699192 24.489507080498697  6.1108749142748016 24.298989873223331  6.2831853071795862 24.298989873223331 
 0.72924715292280906 8 1.9354199032563011 6 3.1415926535897931 8
3 96 -14 0 -1 1 0 7.7781745930520225 5.5
7 0 0  3 25 23  -2.110940304471101 32.627416997969519  -2.0789563604639634 32.476565038114053  -2.0149884724496872 32.166119058486728  -1.9190366404282742 31.678717522395743  -1.8230848084068603 31.174011201310833  -1.7271329763854455 30.656658286938963  -1.6311811443640343 30.131414234733523  -1.5352293123426186 29.603112208934498  -1.4392774803212047 29.076612136243384  -1.3433256482997917 28.556757733023908  -1.2473738162783761 28.048331479171878  -1.151421984256964 27.556010745454071  -1.0554701522355501 27.084324729829998  -0.95951832021413797 26.637612798760532  -0.8635664881927223 26.219984565527042  -0.76761465617130842 25.835282077889524  -0.67166282414989631 25.487044493924781  -0.57571099212848065 25.178475442038728  -0.47975916010706765 24.912413850359588  -0.38380732808565465 24.691306703135137  -0.28785549606424166 24.517190732787853  -0.19190366404282777 24.391657994708282  -0.095951832021413885 24.315899768855125  -0.03198394400714033 24.298951320391435  -8.8817841970012523e-16 24.298989873223331 
 1.0306523491186923 4 1.126604181140106 1 1.2225560131615196 1 1.3185078451829333 1 1.414459677204347 1 1.5104115092257606 1 1.6063633412471745 1 1.7023151732685879 1 1.7982670052900018 1 1.8942188373114153 1 1.9901706693328292 1 2.086122501354243 1 2.1820743333756565 1 2.2780261653970699 1 2.3739779974184838 1 2.4699298294398977 1 2.5658816614613111 1 2.6618334934827246 1 2.7577853255041385 1 2.8537371575255523 1 2.9496889895469658 1 3.0456408215683792 1 3.1415926535897931 4
7 0 0  3 25 23  -2.110940304471101 32.627416997969519  -2.0789563604639634 32.476565038114053  -2.0149884724496872 32.166119058486728  -1.9190366404282742 31.678717522395743  -1.8230848084068603 31.174011201310833  -1.7271329763854455 30.656658286938963  -1.6311811443640343 30.131414234733523  -1.5352293123426186 29.603112208934498  -1.4392774803212047 29.076612136243384  -1.3433256482997917 28.556757733023908  -1.2473738162783761 28.048331479171878  -1.151421984256964 27.556010745454071  -1.0554701522355501 27.084324729829998  -0.95951832021413797 26.637612798760532  -0.8635664881927223 26.219984565527042  -0.76761465617130842 25.835282077889524  -0.67166282414989631 25.487044493924781  -0.57571099212848065 25.178475442038728  -0.47975916010706765 24.912413850359588  -0.38380732808565465 24.691306703135137  -0.28785549606424166 24.517190732787853  -0.19190366404282777 24.391657994708282  -0.095951832021413885 24.315899768855125  -0.03198394400714033 24.298951320391435  -8.8817841970012523e-16 24.298989873223331 
 1.0306523491186923 4 1.126604181140106 1 1.2225560131615196 1 1.3185078451829333 1 1.414459677204347 1 1.5104115092257606 1 1.6063633412471745 1 1.7023151732685879 1 1.7982670052900018 1 1.8942188373114153 1 1.9901706693328292 1 2.086122501354243 1 2.1820743333756565 1 2.2780261653970699 1 2.3739779974184838 1 2.4699298294398977 1 2.5658816614613111 1 2.6618334934827246 1 2.7577853255041385 1 2.8537371575255523 1 2.9496889895469658 1 3.0456408215683792 1 3.1415926535897931 4
7 0 0  7 14 3  4.1722450027084852 32.627416997969519  4.3230264530278495 31.916182319281013  4.4738079033474136 31.129925800436467  4.6245893536663729 30.295058536459692  4.7753708039863554 29.442169313322665  4.9261522543050873 28.603578512165768  5.0769337046246701 27.81008580399503  5.3784966052633987 26.366888350516511  5.5292780555828003 25.71718386415796  5.6800595059019869 25.16616723559855  5.8308409562215715 24.736638041817059  5.9816224065407866 24.444873364125669  6.1324038568602219 24.298989873223331  6.2831853071795862 24.298989873223331 
 1.0306523491186923 8 2.086122501354243 6 3.1415926535897931 8
1 6.2831853071795862 -0 0 1 
1 0 -0 0 1 
7 0 0  7 14 3  0 24.298989873223331  0.17231039290478453 24.298989873223331  0.34462078580949651 24.489507080499607  0.51693117871451477 24.870535060523252  0.68924157161933408 25.428240796285536  0.8615519645238976 26.134835173083047  1.0338623574287078 26.95229978378093  1.3784831432382767 28.723105889394645  1.5507935361430327 29.676446474233671  1.7231039290479657 30.654788210231345  1.895414321952785 31.610247047763551  2.0677247148572633 32.495214806451258  2.2400351077621989 33.268743920589785  2.4123455006669836 33.900209204105288 
 3.1415926535897931 8 4.3477654039232849 6 5.5539381542567767 8
3 96 -14 0 -1 1 0 7.7781745930520225 5.5
7 0 0  3 25 23  0 24.298989873223331  0.031983944007136687 24.298951320391435  0.095951832021412081 24.315899768855129  0.19190366404282819 24.391657994708279  0.2878554960642401 24.517190732787856  0.38380732808565454 24.691306703135133  0.47975916010706843 24.912413850359577  0.57571099212848187 25.178475442038735  0.67166282414989431 25.487044493924781  0.76761465617131042 25.835282077889531  0.86356648819272197 26.219984565527021  0.95951832021413752 26.637612798760539  1.055470152235549 27.084324729830001  1.1514219842569646 27.556010745454063  1.2473738162783781 28.048331479171878  1.343325648299792 28.5567577330239  1.4392774803212056 29.07661213624338  1.5352293123426184 29.603112208934498  1.6311811443640327 30.131414234733519  1.7271329763854457 30.656658286938963  1.8230848084068603 31.174011201310822  1.9190366404282722 31.678717522395743  2.0149884724496885 32.166119058486728  2.0789563604639629 32.476565038114039  2.110940304471101 32.627416997969519 
 3.1415926535897931 4 3.237544485611207 1 3.3334963176326204 1 3.4294481496540343 1 3.5253999816754478 1 3.6213518136968617 1 3.7173036457182751 1 3.813255477739689 1 3.9092073097611024 1 4.0051591417825163 1 4.1011109738039302 1 4.1970628058253432 1 4.2930146378467571 1 4.388966469868171 1 4.4849183018895848 1 4.5808701339109987 1 4.6768219659324117 1 4.7727737979538256 1 4.8687256299752395 1 4.9646774619966525 1 5.0606292940180664 1 5.1565811260394803 1 5.2525329580608942 4
7 0 0  3 25 23  0 24.298989873223331  0.031983944007136687 24.298951320391435  0.095951832021412081 24.315899768855129  0.19190366404282819 24.391657994708279  0.2878554960642401 24.517190732787856  0.38380732808565454 24.691306703135133  0.47975916010706843 24.912413850359577  0.57571099212848187 25.178475442038735  0.67166282414989431 25.487044493924781  0.76761465617131042 25.835282077889531  0.86356648819272197 26.219984565527021  0.95951832021413752 26.637612798760539  1.055470152235549 27.084324729830001  1.1514219842569646 27.556010745454063  1.2473738162783781 28.048331479171878  1.343325648299792 28.5567577330239  1.4392774803212056 29.07661213624338  1.5352293123426184 29.603112208934498  1.6311811443640327 30.131414234733519  1.7271329763854457 30.656658286938963  1.8230848084068603 31.174011201310822  1.9190366404282722 31.678717522395743  2.0149884724496885 32.166119058486728  2.0789563604639629 32.476565038114039  2.110940304471101 32.627416997969519 
 3.1415926535897931 4 3.237544485611207 1 3.3334963176326204 1 3.4294481496540343 1 3.5253999816754478 1 3.6213518136968617 1 3.7173036457182751 1 3.813255477739689 1 3.9092073097611024 1 4.0051591417825163 1 4.1011109738039302 1 4.1970628058253432 1 4.2930146378467571 1 4.388966469868171 1 4.4849183018895848 1 4.5808701339109987 1 4.6768219659324117 1 4.7727737979538256 1 4.8687256299752395 1 4.9646774619966525 1 5.0606292940180664 1 5.1565811260394803 1 5.2525329580608942 4
7 0 0  7 14 3  0 24.298989873223331  0.1507814503193643 24.298989873223331  0.30156290063870017 24.444873364136583  0.45234435095841263 24.736638041802507  0.60312580127725823 25.166167235609464  0.75390725159687122 25.717183864155231  0.90468870191618511 26.366888350516504  1.2062516025549139 27.810085803995023  1.3570330528742716 28.603578512161221  1.5078145031930035 29.442169313333579  1.6585959535136681 30.295058536437864  1.8093774038322863 31.129925800443743  1.9601588541517365 31.916182319281013  2.110940304471101 32.627416997969519 
 3.1415926535897931 8 4.1970628058253432 6 5.2525329580608942 8
7 0 0  6 7 2  1.5193476849695984 35.738686835190329  1.6281331613870034 35.141158405774334  1.7369186378044219 34.539613596910385  1.8457041142217463 33.946778521135457  1.954489590639227 33.375532369484517  2.0632750670566242 32.837961696277198  2.172060543474029 32.344574285494886 
 1.5193476849695982 7 2.1720605434740281 7
3 96 4 0 1 -1 0 7.7781745930520225 5.5
7 0 0  3 25 23  1.5707963267948966 35.455844122715718  1.5789803264566571 35.410832119670303  1.595348325780179 35.320808130888196  1.6199003247654609 35.185853529498203  1.6444523237507425 35.051061674166817  1.6690043227360256 34.916513808704487  1.693556321721307 34.782291035844949  1.7181083207065888 34.648474260759805  1.7426603196918713 34.515144144327571  1.7672123186771518 34.382381053968061  1.7917643176624352 34.250265015345398  1.8163163166477165 34.118875664091853  1.8408683156329984 33.988292197816456  1.8654203146182808 33.858593328363312  1.8899723136035631 33.729857234370591  1.9145243125888454 33.60216151413416  1.9390763115741267 33.475583138879543  1.9636283105594099 33.350198406195112  1.9881803095446902 33.226082894679571  2.0127323085299738 33.10331141600642  2.0372843075152538 32.981957978708678  2.0618363065005374 32.862095710431298  2.0863883054858201 32.743796937523015  2.1027563048093412 32.666020765769957  2.110940304471101 32.627416997969519 
 1.5707963267948966 4 1.5953483257801786 1 1.6199003247654606 1 1.6444523237507427 1 1.6690043227360247 1 1.6935563217213065 1 1.7181083207065888 1 1.7426603196918706 1 1.7672123186771527 1 1.7917643176624347 1 1.8163163166477168 1 1.8408683156329988 1 1.8654203146182808 1 1.8899723136035629 1 1.9145243125888449 1 1.939076311574127 1 1.9636283105594088 1 1.988180309544691 1 2.0127323085299729 1 2.0372843075152551 1 2.061836306500537 1 2.0863883054858192 1 2.110940304471101 4
7 0 0  5 6 2  1.5707963267948966 35.455844122715718  1.6788251223301374 34.861685747271892  1.7868539178653755 34.267526389421391  1.8948827134006265 33.687817852950957  2.0029115089358602 33.136987807368648  2.110940304471101 32.627416997969519 
 1.5707963267948966 6 2.110940304471101 6
7 0 0  8 30 5  0 29.955844122715714  0.19634954084936207 29.955844122715714  0.39269908169967493 30.198178390597604  0.58904862254621548 30.682844867769745  0.78539816339889512 31.389920994464774  0.98174770424247981 32.279521185992053  1.17809724509641 33.295998916928511  1.3744467859455345 34.375921648044226  1.7180584824319183 36.265785978719329  1.8653206380687126 37.075727538303731  2.0125827937057608 37.858905788907123  2.1598449493428689 38.588550275502712  2.3071071049800622 39.239761326872895  2.454369260617252 39.791341859212395  2.6016314162540466 40.227230222056164  2.9697868053466006 41.002108545735211  3.1906800388010197 41.183677561741206  3.4115732722548273 41.047323746272014  3.6324665056999947 40.587959675234742  3.853359739174266 39.83544231185806  4.0742529726194334 38.85214357705263  4.2951462060797949 37.720409469330654  4.7369326729908598 35.337272318278188  4.9578259064437589 34.085867955946014  5.1787191399052972 32.863231245864881  5.3996123733231798 31.764154431351926  5.6205056068283739 30.875951861220528  5.8413988402635368 30.262548866703582  6.0622920737240431 29.955844122715714  6.2831853071795756 29.955844122715714 
 3.1415926535897931 9 4.7123889803847163 7 5.890486225480899 7 7.6576320931251391 7 9.4247779607693793 9
3 -103.98412378671179 671.09093437701847 0 -1 1 0 7.7781745930520225 5.5
7 0 0  6 7 2  4.1111247637055586 32.344574285494886  4.2199102401229638 32.837961696277191  4.3286957165404374 33.375532369483153  4.4374811929576481 33.94677852113773  4.5462666693752567 34.539613596909021  4.6550521457925811 35.141158405774327  4.7638376222099854 35.738686835190322 
 4.1111247637055577 7 4.7638376222099863 7
3 154 4 0 1 -1 0 7.7781745930520225 5.5
7 0 0  3 25 23  -2.1109403044711019 32.627416997969519  -2.1027563048093416 32.666020765769957  -2.0863883054858201 32.743796937523022  -2.0618363065005392 32.862095710431284  -2.0372843075152565 32.981957978708671  -2.0127323085299738 33.103311416006427  -1.9881803095446937 33.226082894679564  -1.9636283105594083 33.350198406195098  -1.9390763115741274 33.475583138879536  -1.9145243125888456 33.60216151413416  -1.8899723136035629 33.729857234370584  -1.8654203146182828 33.858593328363327  -1.8408683156329992 33.988292197816456  -1.8163163166477183 34.11887566409186  -1.7917643176624356 34.250265015345398  -1.7672123186771529 34.382381053968047  -1.7426603196918737 34.515144144327557  -1.7181083207065884 34.648474260759812  -1.6935563217213065 34.782291035844935  -1.6690043227360256 34.916513808704487  -1.6444523237507456 35.051061674166796  -1.6199003247654593 35.185853529498196  -1.5953483257801802 35.320808130888203  -1.5789803264566586 35.410832119670296  -1.5707963267948966 35.455844122715718 
 4.1722450027084852 4 4.196797001693767 1 4.2213490006790488 1 4.2459009996643315 1 4.2704529986496134 1 4.2950049976348952 1 4.319556996620177 1 4.3441089956054597 1 4.3686609945907415 1 4.3932129935760234 1 4.4177649925613052 1 4.442316991546587 1 4.4668689905318697 1 4.4914209895171515 1 4.5159729885024333 1 4.5405249874877152 1 4.5650769864729979 1 4.5896289854582797 1 4.6141809844435615 1 4.6387329834288433 1 4.663284982414126 1 4.6878369813994079 1 4.7123889803846897 4
7 0 0  5 6 2  4.1722450027084843 32.627416997969519  4.2802737982437256 33.136987807368648  4.3883025937789739 33.6878178529509  4.4963313893142072 34.267526389421448  4.6043601848494484 34.861685747271892  4.7123889803846897 35.455844122715718 
 4.1722450027084852 6 4.7123889803846897 6
7 0 0  7 14 3  3.8708398065126008 33.900209204105288  4.0431501994173855 33.268743920589785  4.2154605923228345 32.495214806457625  4.387770985225437 31.610247047745361  4.5600813781329848 30.654788210234983  4.7323917710359282 29.676446474226395  4.9047021639413089 28.723105889394649  5.2493229497508782 26.952299783780933  5.4216333426557171 26.134835173084866  5.5939437355601385 25.428240796285536  5.7662541284653557 24.870535060515977  5.9385645213700045 24.489507080498697  6.1108749142748016 24.298989873223331  6.2831853071795862 24.298989873223331 
 0.72924715292280906 8 1.9354199032563011 6 3.1415926535897931 8
3 154 -14 0 -1 1 0 7.7781745930520225 5.5
7 0 0  3 25 23  -2.110940304471101 32.627416997969519  -2.0789563604639634 32.476565038114053  -2.014988472449688 32.166119058486728  -1.9190366404282724 31.678717522395743  -1.8230848084068612 31.174011201310833  -1.7271329763854446 30.656658286938963  -1.6311811443640352 30.131414234733523  -1.5352293123426177 29.603112208934498  -1.4392774803212047 29.076612136243384  -1.3433256482997917 28.556757733023908  -1.2473738162783761 28.048331479171878  -1.151421984256964 27.556010745454071  -1.0554701522355501 27.084324729829998  -0.95951832021413797 26.637612798760532  -0.8635664881927223 26.219984565527042  -0.76761465617130487 25.835282077889524  -0.67166282414989986 25.487044493924781  -0.57571099212848242 25.178475442038728  -0.47975916010707031 24.912413850359588  -0.38380732808565643 24.691306703135137  -0.28785549606424166 24.517190732787853  -0.19190366404282866 24.391657994708282  -0.095951832021410333 24.315899768855125  -0.031983944007137666 24.298951320391435  0 24.298989873223331 
 1.0306523491186923 4 1.126604181140106 1 1.2225560131615196 1 1.3185078451829333 1 1.414459677204347 1 1.5104115092257606 1 1.6063633412471745 1 1.7023151732685879 1 1.7982670052900018 1 1.8942188373114153 1 1.9901706693328292 1 2.086122501354243 1 2.1820743333756565 1 2.2780261653970699 1 2.3739779974184838 1 2.4699298294398977 1 2.5658816614613111 1 2.6618334934827246 1 2.7577853255041385 1 2.8537371575255523 1 2.9496889895469658 1 3.0456408215683792 1 3.1415926535897931 4
7 0 0  3 25 23  -2.110940304471101 32.627416997969519  -2.0789563604639634 32.476565038114053  -2.014988472449688 32.166119058486728  -1.9190366404282724 31.678717522395743  -1.8230848084068612 31.174011201310833  -1.7271329763854446 30.656658286938963  -1.6311811443640352 30.131414234733523  -1.5352293123426177 29.603112208934498  -1.4392774803212047 29.076612136243384  -1.3433256482997917 28.556757733023908  -1.2473738162783761 28.048331479171878  -1.151421984256964 27.556010745454071  -1.0554701522355501 27.084324729829998  -0.95951832021413797 26.637612798760532  -0.8635664881927223 26.219984565527042  -0.76761465617130487 25.835282077889524  -0.67166282414989986 25.487044493924781  -0.57571099212848242 25.178475442038728  -0.47975916010707031 24.912413850359588  -0.38380732808565643 24.691306703135137  -0.28785549606424166 24.517190732787853  -0.19190366404282866 24.391657994708282  -0.095951832021410333 24.315899768855125  -0.031983944007137666 24.298951320391435  0 24.298989873223331 
 1.0306523491186923 4 1.126604181140106 1 1.2225560131615196 1 1.3185078451829333 1 1.414459677204347 1 1.5104115092257606 1 1.6063633412471745 1 1.7023151732685879 1 1.7982670052900018 1 1.8942188373114153 1 1.9901706693328292 1 2.086122501354243 1 2.1820743333756565 1 2.2780261653970699 1 2.3739779974184838 1 2.4699298294398977 1 2.5658816614613111 1 2.6618334934827246 1 2.7577853255041385 1 2.8537371575255523 1 2.9496889895469658 1 3.0456408215683792 1 3.1415926535897931 4
7 0 0  7 14 3  4.1722450027084852 32.627416997969519  4.3230264530278495 31.916182319281013  4.4738079033471294 31.129925800436467  4.6245893536661455 30.295058536459692  4.7753708039856733 29.442169313322665  4.9261522543052578 28.603578512165768  5.0769337046246719 27.81008580399503  5.3784966052634005 26.366888350516511  5.5292780555826582 25.71718386415796  5.6800595059022712 25.16616723559855  5.8308409562210599 24.736638041817059  5.9816224065409287 24.444873364125669  6.1324038568602219 24.298989873223331  6.2831853071795862 24.298989873223331 
 1.0306523491186923 8 2.086122501354243 6 3.1415926535897931 8
1 6.2831853071795862 -0 0 1 
1 0 -0 0 1 
7 0 0  7 14 3  0 24.298989873223331  0.17231039290478453 24.298989873223331  0.34462078580966704 24.489507080499607  0.51693117871406002 24.870535060523252  0.68924157161944777 25.428240796285536  0.86155196452378391 26.134835173083047  1.0338623574287078 26.95229978378093  1.3784831432382767 28.723105889394645  1.5507935361430896 29.676446474233671  1.7231039290481931 30.654788210231345  1.895414321952785 31.610247047763551  2.067724714857377 32.495214806451258  2.2400351077622007 33.268743920589785  2.4123455006669854 33.900209204105288 
 3.1415926535897931 8 4.3477654039232849 6 5.5539381542567767 8
3 154 -14 0 -1 1 0 7.7781745930520225 5.5
7 0 0  3 25 23  0 24.298989873223331  0.031983944007136687 24.298951320391435  0.09595183202141197 24.315899768855129  0.1919036640428286 24.391657994708279  0.28785549606423866 24.517190732787856  0.38380732808565993 24.691306703135133  0.47975916010706271 24.912413850359577  0.57571099212848575 25.178475442038735  0.67166282414989731 25.487044493924781  0.76761465617130653 25.835282077889531  0.86356648819272319 26.219984565527021  0.95951832021413708 26.637612798760539  1.0554701522355492 27.084324729830001  1.1514219842569646 27.556010745454063  1.2473738162783781 28.048331479171878  1.343325648299792 28.5567577330239  1.4392774803212056 29.07661213624338  1.5352293123426184 29.603112208934498  1.6311811443640327 30.131414234733519  1.7271329763854457 30.656658286938963  1.8230848084068603 31.174011201310822  1.9190366404282708 31.678717522395743  2.0149884724496889 32.166119058486728  2.0789563604639634 32.476565038114039  2.110940304471101 32.627416997969519 
 3.1415926535897931 4 3.237544485611207 1 3.3334963176326204 1 3.4294481496540343 1 3.5253999816754478 1 3.6213518136968617 1 3.7173036457182751 1 3.813255477739689 1 3.9092073097611024 1 4.0051591417825163 1 4.1011109738039302 1 4.1970628058253432 1 4.2930146378467571 1 4.388966469868171 1 4.4849183018895848 1 4.5808701339109987 1 4.6768219659324117 1 4.7727737979538256 1 4.8687256299752395 1 4.9646774619966525 1 5.0606292940180664 1 5.1565811260394803 1 5.2525329580608942 4
7 0 0  3 25 23  0 24.298989873223331  0.031983944007136687 24.298951320391435  0.09595183202141197 24.315899768855129  0.1919036640428286 24.391657994708279  0.28785549606423866 24.517190732787856  0.38380732808565993 24.691306703135133  0.47975916010706271 24.912413850359577  0.57571099212848575 25.178475442038735  0.67166282414989731 25.487044493924781  0.76761465617130653 25.835282077889531  0.86356648819272319 26.219984565527021  0.95951832021413708 26.637612798760539  1.0554701522355492 27.084324729830001  1.1514219842569646 27.556010745454063  1.2473738162783781 28.048331479171878  1.343325648299792 28.5567577330239  1.4392774803212056 29.07661213624338  1.5352293123426184 29.603112208934498  1.6311811443640327 30.131414234733519  1.7271329763854457 30.656658286938963  1.8230848084068603 31.174011201310822  1.9190366404282708 31.678717522395743  2.0149884724496889 32.166119058486728  2.0789563604639634 32.476565038114039  2.110940304471101 32.627416997969519 
 3.1415926535897931 4 3.237544485611207 1 3.3334963176326204 1 3.4294481496540343 1 3.5253999816754478 1 3.6213518136968617 1 3.7173036457182751 1 3.813255477739689 1 3.9092073097611024 1 4.0051591417825163 1 4.1011109738039302 1 4.1970628058253432 1 4.2930146378467571 1 4.388966469868171 1 4.4849183018895848 1 4.5808701339109987 1 4.6768219659324117 1 4.7727737979538256 1 4.8687256299752395 1 4.9646774619966525 1 5.0606292940180664 1 5.1565811260394803 1 5.2525329580608942 4
7 0 0  7 14 3  0 24.298989873223331  0.1507814503193643 24.298989873223331  0.3015629006388707 24.444873364136583  0.4523443509578442 24.736638041802507  0.60312580127788351 25.166167235609464  0.75390725159675753 25.717183864155231  0.90468870191618511 26.366888350516504  1.2062516025549139 27.810085803995023  1.3570330528742147 28.603578512161221  1.5078145031934582 29.442169313333579  1.6585959535132133 30.295058536437864  1.8093774038324568 31.129925800443743  1.9601588541517365 31.916182319281013  2.110940304471101 32.627416997969519 
 3.1415926535897931 8 4.1970628058253432 6 5.2525329580608942 8
7 0 0  6 7 2  1.5193476849695997 35.738686835190322  1.6281331613870045 35.141158405774327  1.7369186378044361 34.539613596910158  1.8457041142217463 33.946778521135911  1.9544895906392554 33.375532369484517  2.0632750670566224 32.837961696277191  2.1720605434740272 32.344574285494886 
 1.5193476849695997 7 2.1720605434740281 7
3 154 4 0 1 -1 0 7.7781745930520225 5.5
7 0 0  3 25 23  1.5707963267948966 35.455844122715718  1.5789803264566571 35.410832119670303  1.595348325780179 35.320808130888196  1.6199003247654609 35.185853529498203  1.6444523237507427 35.051061674166817  1.6690043227360249 34.916513808704487  1.6935563217213077 34.782291035844949  1.7181083207065879 34.648474260759805  1.7426603196918713 34.515144144327571  1.7672123186771531 34.382381053968061  1.791764317662434 34.250265015345398  1.8163163166477181 34.118875664091853  1.8408683156329977 33.988292197816456  1.8654203146182819 33.858593328363312  1.8899723136035631 33.729857234370591  1.9145243125888454 33.60216151413416  1.9390763115741267 33.475583138879543  1.9636283105594097 33.350198406195112  1.9881803095446915 33.226082894679571  2.0127323085299746 33.10331141600642  2.0372843075152551 32.981957978708678  2.0618363065005387 32.862095710431298  2.0863883054858201 32.743796937523015  2.1027563048093407 32.666020765769957  2.110940304471101 32.627416997969519 
 1.5707963267948966 4 1.5953483257801786 1 1.6199003247654606 1 1.6444523237507427 1 1.6690043227360247 1 1.6935563217213065 1 1.7181083207065888 1 1.7426603196918706 1 1.7672123186771527 1 1.7917643176624347 1 1.8163163166477168 1 1.8408683156329988 1 1.8654203146182808 1 1.8899723136035629 1 1.9145243125888449 1 1.939076311574127 1 1.9636283105594088 1 1.988180309544691 1 2.0127323085299729 1 2.0372843075152551 1 2.061836306500537 1 2.0863883054858192 1 2.110940304471101 4
7 0 0  5 6 2  1.5707963267948966 35.455844122715718  1.6788251223301374 34.861685747271892  1.7868539178653755 34.267526389421391  1.8948827134006265 33.687817852950957  2.0029115089358602 33.136987807368648  2.110940304471101 32.627416997969519 
 1.5707963267948966 6 2.110940304471101 6
1 0 0 0 -1 
1 180.97499999999991 0 0 -1 
1 0 -18 1 0 
1 338.91587621328819 -438.03406562298153 -0.17204376626835494 0.98508930685912921 
1 6.2831853071795862 -0 0 1 
1 0 -0 0 1 
7 0 0  8 30 5  0 40.955844122715689  0.19634954084936207 40.955844122715689  0.39269908169865175 40.71350985475874  0.58904862254621548 40.228843377597514  0.78539816339798563 39.521767250815174  0.9817477042452083 38.632167059433414  1.1780972450962963 37.615689328420558  1.3744467859455138 36.535766597387294  1.7180584824318974 34.645902266712191  1.8653206380690057 33.835960707121203  2.0125827937057679 33.052782456544605  2.1598449493432099 32.323137969939125  2.3071071049803749 31.671926918550525  2.4543692606167387 31.120346386224135  2.6016314162540373 30.68445802337537  2.9697868053465908 29.90957969969633  3.1906800388042029 29.728010683626053  3.4115732722584653 29.864364499066141  3.6324665057072707 30.323728570016101  3.853359739176085 31.07624593359651  4.0742529726226167 32.059544668289163  4.2951462060798171 33.191278776100873  4.7369326729908821 35.574415927153339  4.9578259064446684 36.825820289450348  5.1787191399089352 38.048456999531481  5.3996123733704735 39.147533813986229  5.620505606806546 40.035736384132179  5.8413988402689938 40.649139378685504  6.0622920737240431 40.955844122715689  6.2831853071795756 40.955844122715689 
 0 9 1.5707963267949059 7 2.7488935718910752 7 4.51603943953533 7 6.2831853071795862 9
3 -135.98412378671179 -601.00906562298144 0 1 -1 0 7.7781745930520225 5.5
7 0 0  6 7 2  1.6222449686204359 35.738686835191857  1.5134594922031113 35.141158405776309  1.40467401578573 34.539613596913568  1.2958885393684909 33.94677852113773  1.1871030629510813 33.375532369488155  1.0783175865338255 32.837961696280615  0.96953211011650087 32.344574285498425 
 1.5193476849693437 7 2.1720605434732914 7
3 122 4.0000000000000568 0 1 -1 0 7.7781745930520225 5.5
7 0 0  5 6 2  1.5707963267948759 35.455844122715803  1.4627675312596335 34.86168574727197  1.3547387357244087 34.267526389421676  1.2467099401891613 33.687817852951014  1.138681144653912 33.136987807368726  1.0306523491186697 32.62741699796959 
 1.5707963267948966 6 2.1109403044711081 6
7 0 0  8 23 4  0.72924715292157738 33.900209204109842  0.88001874671333935 33.347677081034256  1.0307903405054044 32.688597084989212  1.181561934296667 31.942109957272464  1.332333528088725 31.132517628997448  1.4831051218808042 30.287910059234264  1.6338767156720366 29.438111328028974  1.7846483094639047 28.612430507797576  2.1615772939433096 26.675611329781155  2.3877346846320506 25.628164273399307  2.6138920753001003 24.785937478009146  2.8400494660127151 24.2269743787474  3.0662068566853122 24.002064135624096  3.2923642473833752 24.123022643492732  3.5185216380692022 24.563745918521548  3.9708364194444878 25.974754957539787  4.1969938101319713 26.945041643073637  4.4231512008118443 28.125113526140922  4.6493085914989933 29.431140401109587  4.8754659821770474 30.759220547057339  5.1016233728796578 32.002879332430894  5.3277807635703658 33.071411019496452  5.5539381542580086 33.900209204109842 
 0.72924715292160125 9 1.9354199032556996 7 3.7446790287568419 7 5.5539381542579846 9
3 122 -4 0 1 -1 0 7.7781745930520225 5.5
7 0 0  3 25 23  1.030652349118671 32.62741699796959  1.0946202371329459 32.3258698459519  1.2225560131614921 31.687301996025425  1.4144596772043128 30.660638594364244  1.606363341247143 29.602202210318502  1.7982670052900074 28.551027771077141  1.9901706693327876 27.545661252883654  2.1820743333756445 26.623026408206968  2.3739779974184638 25.81699360468793  2.5658816614613205 25.157156544051432  2.7577853255041265 24.667740331545179  2.9496889895469631 24.366713525456046  3.1415926535897927 24.265128047107037  3.3334963176326236 24.366713525456039  3.5253999816754602 24.66774033154519  3.7173036457182649 25.157156544051425  3.9092073097611224 25.816993604687934  4.1011109738039435 26.623026408206982  4.2930146378467899 27.545661252883612  4.4849183018896133 28.55102777107734  4.6768219659324348 29.602202210318445  4.868725629975275 30.660638594364251  5.0606292940180939 31.687301996025425  5.188565070046641 32.3258698459519  5.2525329580609155 32.62741699796959 
 1.0306523491186923 4 1.2225560131615196 1 1.414459677204347 1 1.6063633412471745 1 1.7982670052900018 1 1.9901706693328292 1 2.1820743333756565 1 2.3739779974184838 1 2.5658816614613111 1 2.7577853255041385 1 2.9496889895469658 1 3.1415926535897931 1 3.3334963176326209 1 3.5253999816754478 1 3.7173036457182755 1 3.9092073097611024 1 4.1011109738039302 1 4.2930146378467571 1 4.4849183018895848 1 4.6768219659324117 1 4.8687256299752395 1 5.0606292940180664 1 5.2525329580608942 4
7 0 0  8 23 4  1.030652349118671 32.62741699796959  1.1625861181481147 32.00508665411715  1.2945198871774604 31.326489930143531  1.4264536562073289 30.608133760460305  1.5583874252366741 29.86861392488936  1.6903211942658274 29.127697762877915  1.8222549632953928 28.405205335128542  1.9541887323247886 27.71988596315262  2.284023154898398 26.141388748410488  2.4819238084423887 25.315611383244686  2.6798244619858451 24.667678423473262  2.8777251155188424 24.243970640090993  3.0756257690700295 24.073669613164384  3.2735264226180334 24.163708895241143  3.4714270761634025 24.499144567424061  3.8672283832517338 25.595386817735765  4.0651290367909496 26.356193671541405  4.2630296903571434 27.296971475385362  4.4609303438774077 28.367252113239374  4.6588309974504227 29.502845219903975  4.8567316509670491 30.633826276131003  5.0546323045167494 31.693921482190923  5.2525329580609155 32.62741699796959 
 1.0306523491186923 9 2.086122501354251 7 3.6693277297075721 7 5.2525329580608942 9
7 0 0  6 7 2  5.3136531970630854 32.344574285498425  5.204867720645761 32.837961696280615  5.0960822442285121 33.375532369486109  4.9872967678109035 33.946778521140914  4.8785112913938065 34.539613596911295  4.769725814976475 35.141158405776309  4.6609403385591506 35.738686835191857 
 4.1111247637062949 7 4.763837622210243 7
3 122 4.0000000000000568 0 1 -1 0 7.7781745930520225 5.5
7 0 0  5 6 2  5.2525329580609164 32.62741699796959  5.1445041625256742 33.136987807368726  5.0364753669904303 33.687817852951014  4.9284465714551899 34.267526389421676  4.8204177759199522 34.86168574727197  4.7123889803847101 35.455844122715803 
 4.1722450027084781 6 4.7123889803846897 6
1 6.2831853071795862 -0 0 1 
1 0 -0 0 1 
7 0 0  8 30 5  0 40.955844122715689  0.19634954084936207 40.955844122715689  0.39269908169796963 40.71350985475874  0.58904862254894397 40.228843377597514  0.78539816339525714 39.521767250815174  0.98174770424611779 38.632167059433414  1.1780972450956142 37.615689328420558  1.3744467859455138 36.535766597387294  1.7180584824318974 34.645902266712191  1.8653206380691763 33.835960707121203  2.0125827937052847 33.052782456544605  2.1598449493427552 32.323137969939125  2.3071071049803322 31.671926918550525  2.4543692606166534 31.120346386224135  2.6016314162540382 30.68445802337537  2.9697868053465921 29.90957969969633  3.1906800388023839 29.728010683626053  3.4115732722584653 29.864364499066141  3.6324665056999947 30.323728570016101  3.853359739176085 31.07624593359651  4.0742529726226167 32.059544668289163  4.2951462060798171 33.191278776100873  4.7369326729908821 35.574415927153339  4.9578259064446684 36.825820289450348  5.1787191399089352 38.048456999531481  5.3996123733704735 39.147533813986229  5.620505606806546 40.035736384132179  5.8413988402689938 40.649139378685504  6.0622920737240431 40.955844122715689  6.2831853071795756 40.955844122715689 
 0 9 1.5707963267949068 7 2.7488935718910765 7 4.5160394395353318 7 6.2831853071795862 9
3 -193.98412378671179 -601.00906562298144 0 1 -1 0 7.7781745930520225 5.5
7 0 0  6 7 2  1.6222449686204359 35.738686835191857  1.5134594922031113 35.141158405776309  1.4046740157857442 34.539613596913568  1.2958885393685478 33.94677852113773  1.1871030629510813 33.375532369488155  1.0783175865338246 32.837961696280615  0.96953211011650009 32.344574285498425 
 1.5193476849693437 7 2.1720605434732914 7
3 64 4.0000000000000568 0 1 -1 0 7.7781745930520225 5.5
7 0 0  5 6 2  1.5707963267948759 35.455844122715803  1.4627675312596335 34.86168574727197  1.3547387357244087 34.267526389421676  1.2467099401891648 33.687817852951014  1.1386811446539113 33.136987807368726  1.030652349118669 32.62741699796959 
 1.5707963267948966 6 2.1109403044711081 6
7 0 0  8 23 4  0.72924715292157738 33.900209204109842  0.88001874671333935 33.347677081034256  1.0307903405050634 32.688597084989212  1.1815619342970649 31.942109957272464  1.332333528088725 31.132517628997448  1.4831051218804063 30.287910059234264  1.6338767156723777 29.438111328028974  1.7846483094639047 28.612430507797576  2.1615772939433096 26.675611329781155  2.3877346846311411 25.628164273399307  2.6138920753146522 24.785937478009146  2.8400494659981632 24.2269743787474  3.0662068566925882 24.002064135624096  3.2923642473815562 24.123022643492732  3.5185216380692022 24.563745918521548  3.9708364194444878 25.974754957539787  4.1969938101319713 26.945041643073637  4.4231512008118443 28.125113526140922  4.6493085914989933 29.431140401109587  4.8754659821770474 30.759220547057339  5.1016233728796578 32.002879332430894  5.3277807635703658 33.071411019496452  5.5539381542580086 33.900209204109842 
 0.72924715292160125 9 1.9354199032556996 7 3.7446790287568419 7 5.5539381542579846 9
3 64 -4 0 1 -1 0 7.7781745930520225 5.5
7 0 0  3 25 23  1.030652349118671 32.62741699796959  1.0946202371329463 32.3258698459519  1.2225560131614928 31.687301996025425  1.4144596772043128 30.660638594364244  1.606363341247143 29.602202210318502  1.7982670052900074 28.551027771077141  1.9901706693327883 27.545661252883654  2.1820743333756445 26.623026408206968  2.3739779974184647 25.81699360468793  2.5658816614613191 25.157156544051432  2.7577853255041265 24.667740331545179  2.9496889895469631 24.366713525456046  3.1415926535897927 24.265128047107037  3.3334963176326236 24.366713525456039  3.5253999816754602 24.66774033154519  3.7173036457182649 25.157156544051425  3.9092073097611224 25.816993604687934  4.1011109738039435 26.623026408206982  4.2930146378467899 27.545661252883612  4.4849183018896133 28.55102777107734  4.6768219659324348 29.602202210318445  4.868725629975275 30.660638594364251  5.0606292940180939 31.687301996025425  5.188565070046641 32.3258698459519  5.2525329580609155 32.62741699796959 
 1.0306523491186923 4 1.2225560131615196 1 1.414459677204347 1 1.6063633412471745 1 1.7982670052900018 1 1.9901706693328292 1 2.1820743333756565 1 2.3739779974184838 1 2.5658816614613111 1 2.7577853255041385 1 2.9496889895469658 1 3.1415926535897931 1 3.3334963176326209 1 3.5253999816754478 1 3.7173036457182755 1 3.9092073097611024 1 4.1011109738039302 1 4.2930146378467571 1 4.4849183018895848 1 4.6768219659324117 1 4.8687256299752395 1 5.0606292940180664 1 5.2525329580608942 4
7 0 0  8 23 4  1.030652349118671 32.62741699796959  1.1625861181481147 32.00508665411715  1.2945198871778441 31.326489930143531  1.4264536562070944 30.608133760460305  1.5583874252369014 29.86861392488936  1.6903211942664313 29.127697762877915  1.8222549632951797 28.405205335128542  1.9541887323247888 27.71988596315262  2.2840231548983985 26.141388748410488  2.481923808438296 25.315611383244686  2.6798244619931211 24.667678423473262  2.8777251155242993 24.243970640090993  3.0756257690827624 24.073669613164384  3.2735264226162144 24.163708895241143  3.4714270761634025 24.499144567424061  3.8672283832517338 25.595386817735765  4.0651290367909496 26.356193671541405  4.2630296903571434 27.296971475385362  4.4609303438774077 28.367252113239374  4.6588309974504227 29.502845219903975  4.8567316509670491 30.633826276131003  5.0546323045167494 31.693921482190923  5.2525329580609155 32.62741699796959 
 1.0306523491186923 9 2.086122501354251 7 3.6693277297075721 7 5.2525329580608942 9
7 0 0  6 7 2  5.3136531970630854 32.344574285498425  5.204867720645761 32.837961696280615  5.0960822442285121 33.375532369486109  4.9872967678109035 33.946778521140914  4.8785112913938065 34.539613596911295  4.769725814976475 35.141158405776309  4.6609403385591506 35.738686835191857 
 4.1111247637062949 7 4.763837622210243 7
3 64 4.0000000000000568 0 1 -1 0 7.7781745930520225 5.5
7 0 0  5 6 2  5.2525329580609164 32.62741699796959  5.1445041625256742 33.136987807368726  5.0364753669904303 33.687817852951014  4.9284465714551899 34.267526389421676  4.8204177759199522 34.86168574727197  4.7123889803847101 35.455844122715803 
 4.1722450027084781 6 4.7123889803846897 6
2 0 0 1 0 -0 1 7.9375
1 0 16 1 0 
1 6.2831853071795862 -0 0 1 
1 0 -0 0 1 
2 0 0 1 0 -0 1 7.9375
1 0 16 1 0 
1 6.2831853071795862 -0 0 1 
1 0 -0 0 1 
1 0 0 0 1 
1 0 162.97499999999991 1 0 
1 18 0 0 1 
1 0 1272.0999999999999 1 0 
1 18 0 0 -1 
1 0 0 0 1 
1 18 0 0 -1 
1 4 0 0 1 
1 18 0 0 1 
1 0 0 1 0 
1 400.05000000000001 0 0 1 
1 0 18 1 0 
1 400.05000000000001 0 0 -1 
1 0 0 0 1 
1 400.05000000000001 0 0 -1 
1 4 0 0 1 
1 0 0 0 -1 
1 0 0 0 1 
1 0 0 1 0 
1 0 4 1 0 
1 0 0 0 -1 
1 4 0 0 1 
2 -65.984123786711791 -347.90906562298153 1 0 -0 1 1.5
1 0 1 1 0 
2 -26.984123786711791 -300.90906562298153 -1 0 0 1 1.25
1 0 1 1 0 
2 -26.984123786711791 -230.90906562298153 -1 0 0 1 1.25
1 0 1 1 0 
2 -86.984123786711791 -0.90906562298152949 -1 0 0 1 1.25
1 0 1 1 0 
2 -86.984123786711791 69.090934377018471 -1 0 0 1 1.25
1 0 1 1 0 
2 62.126041270741496 -353.40906562298153 1 0 -0 1 1.5
1 0 1 1 0 
2 190.23620632819473 -366.15968547016143 1 0 -0 1 1.5
1 0 1 1 0 
2 -106.98412378671179 444.09093437701847 -1 0 0 1 1.25
1 0 1 1 0 
2 -106.98412378671179 514.09093437701847 -1 0 0 1 1.25
1 0 1 1 0 
1 0 3 1 0 
2 92.60953818511922 600.09093437701847 1 0 -0 1 12.5
1 0 3 1 0 
2 99.246157903429037 562.09093437701847 1 0 -0 1 12.5
1 0 0 0 1 
1 0 0 1 0 
1 0 0 1 0 
1 0 0 1 0 
1 0 0 1 0 
2 0 0 1 0 -0 1 12.5
1 0 0 1 0 
2 0 0 1 0 -0 1 12.5
1 0 0 0 -1 
1 0 0 0 1 
1 6.2831853071795862 -0 0 1 
1 0 -0 0 1 
1 0 0 1 0 
2 0 0 1 0 -0 1 1.5
1 6.2831853071795862 -0 0 1 
1 0 -0 0 1 
1 0 14 1 0 
2 0 0 1 0 -0 1 1.25
1 6.2831853071795862 -0 0 1 
1 0 -0 0 1 
1 0 14 1 0 
2 0 0 1 0 -0 1 1.25
1 6.2831853071795862 -0 0 1 
1 0 -0 0 1 
1 0 14 1 0 
2 0 0 1 0 -0 1 1.25
1 6.2831853071795862 -0 0 1 
1 0 -0 0 1 
1 0 14 1 0 
2 0 0 1 0 -0 1 1.25
1 6.2831853071795862 -0 0 1 
1 0 -0 0 1 
1 0 0 1 0 
2 0 0 1 0 -0 1 1.5
1 6.2831853071795862 -0 0 1 
1 0 -0 0 1 
1 0 0 1 0 
2 0 0 1 0 -0 1 1.5
1 6.2831853071795862 -0 0 1 
1 0 -0 0 1 
1 0 14 1 0 
2 0 0 1 0 -0 1 1.25
1 6.2831853071795862 -0 0 1 
1 0 -0 0 1 
1 0 14 1 0 
2 0 0 1 0 -0 1 1.25
1 6.2831853071795862 -0 0 1 
1 0 -0 0 1 
1 6.2831853071795862 -0 0 1 
1 0 -0 0 1 
Curves 117
1 0 0 0 0 1 0 
1 0 1308.0999999999999 0 1 0 0 
1 14 1290.0999999999999 0 -0 1 0 
1 14 1290.0999999999999 0 1 0 -0 
1 0 0 0 0 1 0 
1 14 18 0 1 0 -0 
1 14 0 0 -0 1 0 
1 0 0 0 1 0 0 
3 0 0 96 1 0 0 -0 1 0 0 -0 1 7.7781745930520225 5.5
1 0 0 400.05000000000001 0 0 -1 
3 0 0 154 1 0 0 -0 1 0 0 -0 1 7.7781745930520225 5.5
1 0 0 400.05000000000001 0 0 -1 
1 0 1127.125 596.89999999999998 0 -0.98508930685912921 -0.17204376626835494 
1 0 1308.0999999999999 596.89999999999998 0 -1 0 
1 0 1308.0999999999999 0 0 0 1 
3 0 1308.0999999999999 122 1 0 0 0 -1 0 0 0 -1 7.7781745930520225 5.5
3 0 1308.0999999999999 122 1 0 0 0 -1 0 0 0 -1 7.7781745930520225 5.5
1 0 1308.0999999999999 0 0 0 1 
3 0 1308.0999999999999 64 1 0 0 0 -1 0 0 0 -1 7.7781745930520225 5.5
3 0 1308.0999999999999 64 1 0 0 0 -1 0 0 0 -1 7.7781745930520225 5.5
1 0 1308.0999999999999 0 0 0 1 
1 0 0 400.05000000000001 0 0 -1 
2 0 89 350.59366197183101 1 0 0 -0 0 1 0 -1 0 7.9375
2 0 127 357.23028169014083 1 0 0 -0 0 1 0 -1 0 7.9375
3 5.7729999999999997e-14 1308.0999999999999 64 0 -1 0 1 0 0 -0 0 1 7.7781745930520225 5.5
3 5.7729999999999997e-14 1308.0999999999999 122 0 -1 0 1 0 0 -0 0 1 7.7781745930520225 5.5
1 0 1308.0999999999999 596.89999999999998 1 0 0 
1 14 1308.0999999999999 0 0 0 1 
1 18 1290.0999999999999 0 0 0 1 
1 14 1290.0999999999999 18 1 0 -0 
1 14 1290.0999999999999 0 0 0 1 
1 18 18 0 0 0 1 
1 18 18 18 -0 1 0 
1 14 18 18 1 0 -0 
1 14 18 0 0 0 1 
3 0 0 154 0 1 0 1 -0 0 0 0 -1 7.7781745930520225 5.5
3 0 0 154 0 1 0 1 -0 0 0 0 -1 7.7781745930520225 5.5
3 0 0 96 0 1 0 1 -0 0 0 0 -1 7.7781745930520225 5.5
3 0 0 96 0 1 0 1 -0 0 0 0 -1 7.7781745930520225 5.5
1 14 0 0 0 0 1 
1 0 0 400.05000000000001 1 0 0 
3 18 18 96 1 0 0 -0 1 0 0 -0 1 7.7781745930520225 5.5
3 18 18 96 -0 1 0 1 0 0 0 0 -1 7.7781745930520225 5.5
3 14 14 96 1 0 -0 0 1 0 0 -0 1 7.7781745930520225 5.5
1 -3.1819805153394625 -10.960155108391486 96 0.70710678118654757 0.70710678118654757 0 
3 14 14 96 1 0 -0 0 1 0 0 -0 1 7.7781745930520225 5.5
3 18 18 96 -0 1 0 1 0 0 0 0 -1 7.7781745930520225 5.5
3 18 18 154 1 0 0 -0 1 0 0 -0 1 7.7781745930520225 5.5
3 18 18 154 -0 1 0 1 0 0 0 0 -1 7.7781745930520225 5.5
3 14 14 154 1 0 -0 0 1 0 0 -0 1 7.7781745930520225 5.5
1 -3.1819805153394629 -10.960155108391486 154 0.70710678118654757 0.70710678118654757 0 
3 14 14 154 1 0 -0 0 1 0 0 -0 1 7.7781745930520225 5.5
3 18 18 154 -0 1 0 1 0 0 0 0 -1 7.7781745930520225 5.5
1 0 1127.125 596.89999999999998 1 0 0 
1 0 1127.125 596.89999999999998 0 -0.98508930685912921 -0.17204376626835494 
1 14 1127.125 596.89999999999998 -0 1 0 
1 -10.960155108391486 1311.2819805153395 122 0.70710678118654757 -0.70710678118654757 0 
3 18 1290.0999999999999 122 1 0 0 0 -1 0 0 0 -1 7.7781745930520225 5.5
3 18.000000000000057 1290.0999999999999 122 -0 1 0 1 0 0 0 0 -1 7.7781745930520225 5.5
3 14 1294.0999999999999 122 1 0 0 0 -1 0 0 -0 -1 7.7781745930520225 5.5
3 18.000000000000057 1290.0999999999999 122 -0 1 0 1 0 0 0 0 -1 7.7781745930520225 5.5
1 -10.960155108391486 1311.2819805153395 64 0.70710678118654757 -0.70710678118654757 0 
3 18 1290.0999999999999 64 1 0 0 0 -1 0 0 0 -1 7.7781745930520225 5.5
3 18.000000000000057 1290.0999999999999 64 -0 1 0 1 0 0 0 0 -1 7.7781745930520225 5.5
3 14 1294.0999999999999 64 1 0 0 0 -1 0 0 -0 -1 7.7781745930520225 5.5
3 18.000000000000057 1290.0999999999999 64 -0 1 0 1 0 0 0 0 -1 7.7781745930520225 5.5
2 15 89 350.59366197183101 1 0 0 -0 0 1 0 -1 0 7.9375
1 -1 89 358.53116197183101 1 0 0 
2 15 127 357.23028169014083 1 0 0 -0 0 1 0 -1 0 7.9375
1 -1 127 365.16778169014083 1 0 0 
1 14 1290.0999999999999 578.89999999999998 1 0 -0 
1 14 1290.0999999999999 36 1 0 -0 
1 14 18 36 -0 1 0 
1 18 18 36 -0 1 0 
1 14 18 36 1 0 -0 
1 14 18 400.05000000000001 1 0 -0 
1 14 0 400.05000000000001 -0 1 0 
1 18 0 400.05000000000001 -0 1 0 
1 14 18 18 -0 1 0 
1 18 1127.125 578.89999999999998 0 0 1 
1 18 1127.125 578.89999999999998 -0 1 0 
2 18 1037 192 1 0 0 -0 0 1 0 -1 0 1.5
2 18 990 231 -1 0 0 0 0 -1 -0 -1 -0 1.25
2 18 920 231 -1 0 0 0 0 -1 -0 -1 -0 1.25
2 18 690 171 -1 0 0 0 0 -1 -0 -1 -0 1.25
2 18 620 171 -1 0 0 0 0 -1 -0 -1 -0 1.25
2 18 1042.5 320.11016505745329 1 0 0 -0 0 1 0 -1 0 1.5
2 18 1055.2506198471799 448.22033011490652 1 0 0 -0 0 1 0 -1 0 1.5
2 18 245 151 -1 0 0 0 0 -1 -0 -1 -0 1.25
2 18 175 151 -1 0 0 0 0 -1 -0 -1 -0 1.25
2 18 89 350.59366197183101 1 0 0 -0 0 1 0 -1 0 12.5
2 18 127 357.23028169014083 1 0 0 -0 0 1 0 -1 0 12.5
1 14 1127.125 578.89999999999998 1 0 -0 
1 14 1127.125 578.89999999999998 0 0 1 
2 15 89 350.59366197183101 1 0 0 -0 0 1 0 -1 0 12.5
2 15 127 357.23028169014083 1 0 0 -0 0 1 0 -1 0 12.5
1 14 1127.125 578.89999999999998 -0 1 0 
1 17 1037 193.5 1 0 0 
2 17 1037 192 1 0 0 -0 0 1 0 -1 0 1.5
1 19 990 229.75 -1 0 0 
2 5 990 231 -1 0 0 0 0 -1 -0 -1 -0 1.25
1 19 920 229.75 -1 0 0 
2 5 920 231 -1 0 0 0 0 -1 -0 -1 -0 1.25
1 19 690 169.75 -1 0 0 
2 5 690 171 -1 0 0 0 0 -1 -0 -1 -0 1.25
1 19 620 169.75 -1 0 0 
2 5 620 171 -1 0 0 0 0 -1 -0 -1 -0 1.25
1 17 1042.5 321.61016505745329 1 0 0 
2 17 1042.5 320.11016505745329 1 0 0 -0 0 1 0 -1 0 1.5
1 17 1055.2506198471799 449.72033011490652 1 0 0 
2 17 1055.2506198471799 448.22033011490652 1 0 0 -0 0 1 0 -1 0 1.5
1 19 245 149.75 -1 0 0 
2 5 245 151 -1 0 0 0 0 -1 -0 -1 -0 1.25
1 19 175 149.75 -1 0 0 
2 5 175 151 -1 0 0 0 0 -1 -0 -1 -0 1.25
1 15 89 363.09366197183101 1 0 0 
1 15 127 369.73028169014083 1 0 0 
Polygon3D 0
PolygonOnTriangulations 0
Surfaces 68
1 0 0 0 0 0 1 0 1 0 -1 0 0 
1 0 689.09093437701847 257.98412378671179 1 0 0 -0 0 1 0 -1 0 
1 0 1308.0999999999999 0 0 -1 0 0 0 1 -1 0 0 
1 14 1290.0999999999999 0 1 0 -0 0 0 1 0 -1 0 
1 14 1290.0999999999999 0 0 0 1 1 0 -0 -0 1 0 
1 14 1290.0999999999999 0 -0 1 0 0 0 1 1 0 -0 
1 0 689.09093437701847 257.98412378671179 1 0 0 -0 0 1 0 -1 0 
1 14 18 0 -0 1 0 0 0 1 1 0 -0 
1 14 0 0 0 0 1 1 0 -0 -0 1 0 
1 14 0 0 1 0 -0 0 0 1 0 -1 0 
1 0 0 400.05000000000001 -0 1 0 0 0 -1 -1 0 -0 
2 -7.0710678118654746 -7.0710678118654746 96 0.70710678118654757 0.70710678118654757 0 0.70710678118654757 -0.70710678118654757 0 0 0 -1 5.5
2 -7.0710678118654746 -7.0710678118654746 154 0.70710678118654757 0.70710678118654757 0 0.70710678118654757 -0.70710678118654757 0 0 0 -1 5.5
1 0 1127.125 596.89999999999998 0 0.17204376626835494 -0.98508930685912921 0 -0.98508930685912921 -0.17204376626835494 -1 0 -0 
1 0 1308.0999999999999 596.89999999999998 0 0 -1 0 -1 0 -1 -0 -0 
2 -7.0710678118654746 1315.1710678118654 122 0.70710678118654757 -0.70710678118654757 0 -0.70710678118654757 -0.70710678118654757 0 0 -0 -1 5.5
2 -7.0710678118654746 1315.1710678118654 64 0.70710678118654757 -0.70710678118654757 0 -0.70710678118654757 -0.70710678118654757 0 0 -0 -1 5.5
2 -1 89 350.59366197183101 1 0 0 -0 0 1 0 -1 0 7.9375
2 -1 127 357.23028169014083 1 0 0 -0 0 1 0 -1 0 7.9375
1 14 1308.0999999999999 0 -0 1 0 0 0 1 1 0 -0 
1 18 1290.0999999999999 0 1 0 -0 0 0 1 0 -1 0 
1 14 1290.0999999999999 18 -0 1 0 0 0 1 1 0 -0 
1 14 18 18 0 0 1 1 0 -0 -0 1 0 
1 18 0 0 1 0 -0 0 0 1 0 -1 0 
1 18 18 18 1 0 -0 0 0 1 0 -1 0 
1 14 18 18 -0 1 0 0 0 1 1 0 -0 
1 14 0 0 -0 1 0 0 0 1 1 0 -0 
2 -7.0710678118654746 -7.0710678118654746 96 0.70710678118654757 0.70710678118654757 0 0.70710678118654757 -0.70710678118654757 0 0 0 -1 5.5
2 -7.0710678118654746 -7.0710678118654746 96 0.70710678118654757 0.70710678118654757 0 0.70710678118654757 -0.70710678118654757 0 0 0 -1 5.5
2 -7.0710678118654746 -7.0710678118654746 96 0.70710678118654757 0.70710678118654757 0 0.70710678118654757 -0.70710678118654757 0 0 0 -1 5.5
2 -7.0710678118654746 -7.0710678118654746 154 0.70710678118654757 0.70710678118654757 0 0.70710678118654757 -0.70710678118654757 0 0 0 -1 5.5
2 -7.0710678118654746 -7.0710678118654746 154 0.70710678118654757 0.70710678118654757 0 0.70710678118654757 -0.70710678118654757 0 0 0 -1 5.5
2 -7.0710678118654746 -7.0710678118654746 154 0.70710678118654757 0.70710678118654757 0 0.70710678118654757 -0.70710678118654757 0 0 0 -1 5.5
2 -7.0710678118654746 1315.1710678118654 122 0.70710678118654757 -0.70710678118654757 0 -0.70710678118654757 -0.70710678118654757 0 0 -0 -1 5.5
2 -7.0710678118654746 1315.1710678118654 122 0.70710678118654757 -0.70710678118654757 0 -0.70710678118654757 -0.70710678118654757 0 0 0 -1 5.5
2 -7.0710678118654746 1315.1710678118654 64 0.70710678118654757 -0.70710678118654757 0 -0.70710678118654757 -0.70710678118654757 0 0 -0 -1 5.5
2 -7.0710678118654746 1315.1710678118654 64 0.70710678118654757 -0.70710678118654757 0 -0.70710678118654757 -0.70710678118654757 0 0 0 -1 5.5
1 15 89 350.59366197183101 1 0 0 -0 0 1 0 -1 0 
1 15 127 357.23028169014083 1 0 0 -0 0 1 0 -1 0 
1 14 1290.0999999999999 578.89999999999998 -0 1 0 0 0 1 1 0 -0 
1 14 1127.125 578.89999999999998 0 0 1 1 0 -0 -0 1 0 
1 14 18 36 0 0 1 1 0 -0 -0 1 0 
1 14 18 18 1 0 -0 0 0 1 0 -1 0 
1 14 0 400.05000000000001 0 0 1 1 0 -0 -0 1 0 
1 18 1127.125 578.89999999999998 1 0 -0 0 0 1 0 -1 0 
1 14 1127.125 578.89999999999998 -0 1 0 0 0 1 1 0 -0 
2 17 1037 192 1 0 0 -0 0 1 0 -1 0 1.5
2 19 990 231 -1 0 0 0 0 -1 -0 -1 -0 1.25
2 19 920 231 -1 0 0 0 0 -1 -0 -1 -0 1.25
2 19 690 171 -1 0 0 0 0 -1 -0 -1 -0 1.25
2 19 620 171 -1 0 0 0 0 -1 -0 -1 -0 1.25
2 17 1042.5 320.11016505745329 1 0 0 -0 0 1 0 -1 0 1.5
2 17 1055.2506198471799 448.22033011490652 1 0 0 -0 0 1 0 -1 0 1.5
2 19 245 151 -1 0 0 0 0 -1 -0 -1 -0 1.25
2 19 175 151 -1 0 0 0 0 -1 -0 -1 -0 1.25
2 15 89 350.59366197183101 1 0 0 -0 0 1 0 -1 0 12.5
2 15 127 357.23028169014083 1 0 0 -0 0 1 0 -1 0 12.5
1 14 1127.125 578.89999999999998 1 0 -0 0 0 1 0 -1 0 
1 17 1037 192 1 0 0 -0 0 1 0 -1 0 
1 5 990 231 -1 0 0 0 0 -1 -0 -1 -0 
1 5 920 231 -1 0 0 0 0 -1 -0 -1 -0 
1 5 690 171 -1 0 0 0 0 -1 -0 -1 -0 
1 5 620 171 -1 0 0 0 0 -1 -0 -1 -0 
1 17 1042.5 320.11016505745329 1 0 0 -0 0 1 0 -1 0 
1 17 1055.2506198471799 448.22033011490652 1 0 0 -0 0 1 0 -1 0 
1 5 245 151 -1 0 0 0 0 -1 -0 -1 -0 
1 5 175 151 -1 0 0 0 0 -1 -0 -1 -0 
1 14.000000000000011 740.44561243161263 161.18553117841208 1 0 0 -0 0 1 0 -1 0 
Triangulations 0

TShapes 339
Ve
1e-07
0 0 0
0 0

0101101
*
Ve
1e-07
0 1308.1 0
0 0

0101101
*
Ed
 1e-07 1 1 0
1  1 0 0 1308.1
2  1 1 0 0 1308.1
2  2 2 0 0 1308.1
0

0101000
+339 7 -338 7 *
Ve
8.42596117475649e-05
14 1308.1 0
0 0

0101101
*
Ed
 1e-07 1 1 0
1  2 0 0 14
2  3 1 0 0 14
2  4 3 0 0 14
0

0101000
+338 7 -336 7 *
Ve
8.42596117475649e-05
14 1290.1 0
0 0

0101101
*
Ed
 8.42596117475648e-05 1 1 0
1  3 0 0 18
2  5 4 0 0 18
2  6 5 0 0 18
0

0101000
+334 0 -336 0 *
Ve
1e-07
18 1290.1 0
0 0

0101101
*
Ed
 1e-07 1 1 0
1  4 0 0 4
2  7 6 0 0 4
2  8 5 0 0 4
0

0101000
+334 0 -332 0 *
Ve
1e-07
18 18 0
0 0

0101101
*
Ed
 1e-07 1 1 0
1  5 0 18 1290.1
2  9 1 10 18 1290.1
2  10 7 0 18 1290.1
0

0101000
+330 11 -332 11 *
Ve
8.42596117475649e-05
14 18 0
0 0

0101101
*
Ed
 1e-07 1 1 0
1  6 0 0 4
2  11 8 0 0 4
2  12 9 0 0 4
0

0101000
+328 0 -330 0 *
Ve
8.42596117475649e-05
14 0 0
0 0

0101101
*
Ed
 8.42596117475648e-05 1 1 0
1  7 0 0 18
2  13 10 0 0 18
2  14 9 0 0 18
0

0101000
+326 0 -328 0 *
Ed
 1e-07 1 1 0
1  8 0 0 14
2  15 1 0 0 14
2  16 11 0 0 14
0

0101000
+339 7 -326 7 *
Wi

0101100
-337 6 -335 6 +333 0 -331 0 +329 9 +327 0 +325 0 +324 6 *
Fa
0  1e-07 1 6

0101000
+323 0 *
Ve
1.00001307e-07
0 0 90.4999999999987
0 0

0101101
*
Ve
1.00001307e-07
0 0 101.500000000001
0 0

0101101
*
Ed
 1e-07 1 1 0
1  9 0 4.71238898038469 7.85398163397448
2  17 12 0 4.71238898038469 7.85398163397448
2  18 2 1 4.71238898038469 7.85398163397448
0

0101000
+321 14 -320 14 *
Ve
1.00001336e-07
0 0 148.499999999999
0 0

0101101
*
Ed
 1e-07 1 1 0
1  10 0 251.550000000001 298.549999999999
2  19 11 0 251.550000000001 298.549999999999
2  20 2 0 251.550000000001 298.549999999999
0

0101000
+318 7 -320 7 *
Ve
1.00001336e-07
0 0 159.500000000001
0 0

0101101
*
Ed
 1e-07 1 1 0
1  11 0 4.71238898038469 7.85398163397448
2  21 13 0 4.71238898038469 7.85398163397448
2  22 2 1 4.71238898038469 7.85398163397448
0

0101000
+318 14 -316 14 *
Ve
1e-07
0 0 400.05
0 0

0101101
*
Ed
 1e-07 1 1 0
1  12 0 0 240.549999999999
2  23 11 0 0 240.549999999999
2  24 2 0 0 240.549999999999
0

0101000
+314 7 -316 7 *
Ve
1e-07
0 1127.125 596.9
0 0

0101101
*
Ed
 1e-07 1 1 0
1  13 0 0 1144.18560038352
2  25 14 0 0 1144.18560038352
2  26 2 0 0 1144.18560038352
0

0101000
+312 7 -314 7 *
Ve
1e-07
0 1308.1 596.9
0 0

0101101
*
Ed
 1e-07 1 1 0
1  14 0 0 180.975
2  27 15 0 0 180.975
2  28 2 0 0 180.975
0

0101000
+310 7 -312 7 *
Ve
1.0002116e-07
0 1308.1 127.499999999979
0 0

0101101
*
Ed
 1e-07 1 1 0
1  15 0 127.499999999979 596.9
2  29 3 0 127.499999999979 596.9
2  30 2 0 127.499999999979 596.9
0

0101000
+308 7 -310 7 *
Ve
1.00000018e-07
0 1300.32182540695 122
0 0

0101101
*
Ed
 1e-07 1 1 0
1  16 0 4.71238898038469 6.28318530717959
2  31 16 0 4.71238898038469 6.28318530717959
2  32 2 1 4.71238898038469 6.28318530717959
0

0101000
+308 14 -306 14 *
Ve
1.0002116e-07
0 1308.1 116.500000000021
0 0

0101101
*
Ed
 1e-07 1 1 0
1  17 0 0 1.5707963267949
2  33 16 0 0 1.5707963267949
2  34 2 1 0 1.5707963267949
0

0101000
+306 14 -304 14 *
Ve
1.0002116e-07
0 1308.1 69.4999999999788
0 0

0101101
*
Ed
 1e-07 1 1 0
1  18 0 69.4999999999788 116.500000000021
2  35 3 0 69.4999999999788 116.500000000021
2  36 2 0 69.4999999999788 116.500000000021
0

0101000
+302 7 -304 7 *
Ve
1.00000018e-07
0 1300.32182540695 64
0 0

0101101
*
Ed
 1e-07 1 1 0
1  19 0 4.71238898038469 6.28318530717959
2  37 17 0 4.71238898038469 6.28318530717959
2  38 2 1 4.71238898038469 6.28318530717959
0

0101000
+302 14 -300 14 *
Ve
1.0002116e-07
0 1308.1 58.5000000000212
0 0

0101101
*
Ed
 1e-07 1 1 0
1  20 0 0 1.5707963267949
2  39 17 0 0 1.5707963267949
2  40 2 1 0 1.5707963267949
0

0101000
+300 14 -298 14 *
Ed
 1e-07 1 1 0
1  21 0 0 58.5000000000212
2  41 3 0 0 58.5000000000212
2  42 2 0 0 58.5000000000212
0

0101000
+338 7 -298 7 *
Ed
 1e-07 1 1 0
1  22 0 309.550000000001 400.05
2  43 11 0 309.550000000001 400.05
2  44 2 0 309.550000000001 400.05
0

0101000
+321 7 -339 7 *
Wi

0101100
+319 13 -317 12 +315 13 -313 12 -311 12 -309 12 -307 12 +305 13 +303 13 -301 12 
+299 13 +297 13 -296 12 -337 12 -295 12 *
Ve
1e-07
0 89 358.531161971831
0 0

0101101
*
Ed
 1e-07 1 1 0
1  23 0 0 6.28318530717959
2  45 2 16 0 6.28318530717959
2  46 18 0 0 6.28318530717959
0

0101100
+293 17 -293 17 *
Wi

0101100
-292 15 *
Ve
1e-07
0 127 365.167781690141
0 0

0101101
*
Ed
 1e-07 1 1 0
1  24 0 0 6.28318530717959
2  47 2 16 0 6.28318530717959
2  48 19 0 0 6.28318530717959
0

0101100
+290 17 -290 17 *
Wi

0101100
-289 15 *
Fa
0  1e-07 2 12

0111000
-294 0 +291 0 +288 0 *
Ed
 1e-07 1 1 0
1  25 0 4.71238898038469 7.85398163397448
2  49 3 1 4.71238898038469 7.85398163397448
2  50 17 0 4.71238898038469 7.85398163397448
0

0101000
+298 14 -302 14 *
Ed
 1e-07 1 1 0
1  26 0 4.71238898038469 7.85398163397448
2  51 3 1 4.71238898038469 7.85398163397448
2  52 16 0 4.71238898038469 7.85398163397448
0

0101000
+304 14 -308 14 *
Ve
8.42596117475649e-05
14 1308.1 596.9
0 0

0101101
*
Ed
 1e-07 1 1 0
1  27 0 0 14
2  53 3 0 0 14
2  54 15 0 0 14
0

0101000
+310 7 -284 7 *
Ed
 8.42596117475648e-05 1 1 0
1  28 0 0 596.9
2  55 4 0 0 596.9
2  56 20 0 0 596.9
0

0101000
+336 0 -284 0 *
Wi

0101100
-296 6 -286 18 -301 6 -285 18 -307 6 -283 6 +282 0 +335 6 *
Fa
0  1e-07 3 6

0101000
+281 0 *
Ve
1e-07
18 1290.1 18
0 0

0101101
*
Ed
 1e-07 1 1 0
1  29 0 0 18
2  57 21 0 0 18
2  58 6 0 0 18
0

0101000
+332 0 -279 0 *
Ve
8.42596117475649e-05
14 1290.1 18
0 0

0101101
*
Ed
 1e-07 1 1 0
1  30 0 0 4
2  59 22 0 0 4
2  60 23 0 0 4
0

0101000
+277 0 -279 0 *
Ed
 8.42596117475648e-05 1 1 0
1  31 0 0 18
2  61 4 0 0 18
2  62 6 0 0 18
0

0101000
+334 0 -277 0 *
Wi

0101100
-331 0 -278 0 +276 0 +275 0 *
Fa
0  1e-07 6 0

0101000
+274 0 *
Ve
1e-07
18 18 18
0 0

0101101
*
Ed
 1e-07 1 1 0
1  32 0 0 18
2  63 24 0 0 18
2  64 8 0 0 18
0

0101000
+330 0 -272 0 *
Ed
 1e-07 1 1 0
1  33 0 0 1272.1
2  65 25 0 0 1272.1
2  66 23 0 0 1272.1
0

0101000
+272 0 -279 0 *
Wi

0101100
-271 0 -270 0 +278 0 +329 9 *
Fa
0  1e-07 7 9

0101000
+269 0 *
Ve
8.42596117475649e-05
14 18 18
0 0

0101101
*
Ed
 1e-07 1 1 0
1  34 0 0 4
2  67 26 0 0 4
2  68 23 0 0 4
0

0101000
+267 0 -272 0 *
Ed
 8.42596117475648e-05 1 1 0
1  35 0 0 18
2  69 10 0 0 18
2  70 8 0 0 18
0

0101000
+328 0 -267 0 *
Wi

0101100
-327 0 -271 0 +266 0 +265 0 *
Fa
0  1e-07 8 0

0101000
+264 0 *
Ve
1.00000003e-07
7.77817459305202 0 154
0 0

0101101
*
Ed
 1e-07 1 1 0
1  36 0 4.71238898038469 6.28318530717959
2  71 11 1 4.71238898038469 6.28318530717959
2  72 13 0 4.71238898038469 6.28318530717959
0

0101000
+316 14 -262 14 *
Ed
 1e-07 1 1 0
1  37 0 0 1.5707963267949
2  73 11 1 0 1.5707963267949
2  74 13 0 0 1.5707963267949
0

0101000
+262 14 -318 14 *
Ve
1.00000003e-07
7.77817459305202 0 96
0 0

0101101
*
Ed
 1e-07 1 1 0
1  38 0 4.71238898038469 6.28318530717959
2  75 11 1 4.71238898038469 6.28318530717959
2  76 12 0 4.71238898038469 6.28318530717959
0

0101000
+320 14 -259 14 *
Ed
 1e-07 1 1 0
1  39 0 0 1.5707963267949
2  77 11 1 0 1.5707963267949
2  78 12 0 0 1.5707963267949
0

0101000
+259 14 -321 14 *
Ve
8.42596117475649e-05
14 0 400.05
0 0

0101101
*
Ed
 8.42596117475648e-05 1 1 0
1  40 0 0 400.05
2  79 10 0 0 400.05
2  80 27 0 0 400.05
0

0101000
+326 0 -256 0 *
Ed
 1e-07 1 1 0
1  41 0 0 14
2  81 11 0 0 14
2  82 14 0 0 14
0

0101000
+314 7 -256 7 *
Wi

0101100
-313 6 -261 18 -260 18 -317 6 -258 18 -257 18 -295 6 -324 6 -255 0 +254 6 
*
Fa
0  1e-07 11 6

0101000
+253 0 *
Ve
5.53059251799585e-06
18 18.0000000000001 90.5
0 0

0101101
*
Ve
5.53059252327136e-06
18 18.0000000000001 101.5
0 0

0101101
*
Ed
 1e-07 1 1 0
1  42 0 4.71238898038469 7.85398163397448
2  83 12 0 4.71238898038469 7.85398163397448
2  84 7 19 4.71238898038469 7.85398163397448
0

0101000
+251 14 -250 14 *
Ve
8.42596117475649e-05
14 18 100.716990566028
0 0

0101101
*
Ed
 1.00000010658141e-07 1 1 0
1  43 0 4.17224500270849 4.71238898038469
2  85 28 18 4.17224500270849 4.71238898038469
2  86 8 0 4.17224500270849 4.71238898038469
2  87 29 0 4.17224500270849 4.71238898038469
2  88 12 18 4.17224500270849 4.71238898038469
0

0101000
+248 0 -250 0 *
Ve
8.42596117475649e-05
14 6.22182540694797 96
0 0

0101101
*
Ed
 8.42596117475648e-05 1 1 0
1  44 0 1.03065234911869 3.14159265358979
2  89 28 18 1.03065234911869 3.14159265358979
2  90 10 0 1.03065234911869 3.14159265358979
2  91 29 0 1.03065234911869 3.14159265358979
2  92 30 0 1.03065234911869 3.14159265358979
2  93 12 18 1.03065234911869 3.14159265358979
0

0101000
+248 0 -246 0 *
Ed
 1e-07 1 1 0
1  45 0 15.5 24.2989898732233
3  94 95CN 12 0 15.5 24.2989898732233
0

0101000
+259 14 -246 14 *
Ve
8.42596117475649e-05
14 18 91.2830094339717
0 0

0101101
*
Ed
 8.42596117475648e-05 1 1 0
1  46 0 3.14159265358979 5.25253295806089
2  96 28 18 3.14159265358979 5.25253295806089
2  97 10 0 3.14159265358979 5.25253295806089
2  98 29 0 3.14159265358979 5.25253295806089
2  99 30 0 3.14159265358979 5.25253295806089
2  100 12 18 3.14159265358979 5.25253295806089
0

0101000
+246 0 -243 0 *
Ed
 1.00000007944109e-07 1 1 0
1  47 0 1.5707963267949 2.1109403044711
2  101 28 18 1.5707963267949 2.1109403044711
2  102 8 0 1.5707963267949 2.1109403044711
2  103 29 0 1.5707963267949 2.1109403044711
2  104 12 18 1.5707963267949 2.1109403044711
0

0101000
+251 0 -243 0 *
Wi

0101100
-249 18 +247 0 -245 0 +244 18 +258 18 +319 18 +257 18 -244 18 -242 0 +241 0 
*
Fa
0  1e-07 12 18

0101000
+240 0 *
Ve
5.53059251799585e-06
18 18.0000000000001 148.5
0 0

0101101
*
Ve
5.53059252327136e-06
18 18.0000000000001 159.5
0 0

0101101
*
Ed
 1e-07 1 1 0
1  48 0 4.71238898038469 7.85398163397448
2  105 13 0 4.71238898038469 7.85398163397448
2  106 7 19 4.71238898038469 7.85398163397448
0

0101000
+238 14 -237 14 *
Ve
8.42596117475649e-05
14 18 158.716990566028
0 0

0101101
*
Ed
 1.00000010658141e-07 1 1 0
1  49 0 4.17224500270849 4.71238898038469
2  107 31 18 4.17224500270849 4.71238898038469
2  108 8 0 4.17224500270849 4.71238898038469
2  109 32 0 4.17224500270849 4.71238898038469
2  110 13 18 4.17224500270849 4.71238898038469
0

0101000
+235 0 -237 0 *
Ve
8.42596117475649e-05
14 6.22182540694797 154
0 0

0101101
*
Ed
 8.42596117475648e-05 1 1 0
1  50 0 1.03065234911869 3.14159265358979
2  111 31 18 1.03065234911869 3.14159265358979
2  112 10 0 1.03065234911869 3.14159265358979
2  113 32 0 1.03065234911869 3.14159265358979
2  114 33 0 1.03065234911869 3.14159265358979
2  115 13 18 1.03065234911869 3.14159265358979
0

0101000
+235 0 -233 0 *
Ed
 1e-07 1 1 0
1  51 0 15.5 24.2989898732233
3  116 117CN 13 0 15.5 24.2989898732233
0

0101000
+262 14 -233 14 *
Ve
8.42596117475649e-05
14 18 149.283009433972
0 0

0101101
*
Ed
 8.42596117475648e-05 1 1 0
1  52 0 3.14159265358979 5.25253295806089
2  118 31 18 3.14159265358979 5.25253295806089
2  119 10 0 3.14159265358979 5.25253295806089
2  120 32 0 3.14159265358979 5.25253295806089
2  121 33 0 3.14159265358979 5.25253295806089
2  122 13 18 3.14159265358979 5.25253295806089
0

0101000
+233 0 -230 0 *
Ed
 1.00000007944109e-07 1 1 0
1  53 0 1.5707963267949 2.1109403044711
2  123 31 18 1.5707963267949 2.1109403044711
2  124 8 0 1.5707963267949 2.1109403044711
2  125 32 0 1.5707963267949 2.1109403044711
2  126 13 18 1.5707963267949 2.1109403044711
0

0101000
+238 0 -230 0 *
Wi

0101100
-236 18 +234 0 -232 0 +231 18 +261 18 +315 18 +260 18 -231 18 -229 0 +228 0 
*
Fa
0  1e-07 13 18

0101000
+227 0 *
Ve
8.42596117475649e-05
14 1127.125 596.9
0 0

0101101
*
Ed
 1e-07 1 1 0
1  54 0 0 14
2  127 14 0 0 14
2  128 15 0 0 14
0

0101000
+312 7 -225 7 *
Ve
1e-07
18 1127.125 596.9
0 0

0101101
*
Ed
 1e-07 1 1 0
1  54 0 14 18
2  127 14 0 14 18
2  128 15 0 14 18
0

0101000
+225 7 -223 7 *
Ve
1e-07
18 0 400.05
0 0

0101101
*
Ed
 1e-07 1 1 0
1  41 0 14 18
2  81 11 0 14 18
2  82 14 0 14 18
0

0101000
+256 7 -221 7 *
Ed
 1e-07 1 1 0
1  55 0 0 1144.18560038352
2  129 14 10 0 1144.18560038352
2  130 7 0 0 1144.18560038352
0

0101000
+223 11 -221 11 *
Wi

0101100
+224 6 +222 6 -254 6 -220 6 -311 6 +219 9 *
Fa
0  1e-07 14 6

0101000
+218 0 *
Ed
 1e-07 1 1 0
1  56 0 0 180.975
0

0101000
+225 0 -284 0 *
Wi

0101000
-309 6 -224 6 -216 0 +283 6 *
Fa
0  1e-07 15 6

0101000
+215 0 *
Ve
1.00000018e-07
18 1282.32182540695 122
0 0

0101101
*
Ed
 1e-07 1 1 0
1  57 0 15.5 40.9558441227157
3  131 132CN 16 0 15.5 40.9558441227157
0

0101000
+306 14 -213 14 *
Ve
1.00000056843419e-07
18 1290.1 116.5
0 0

0101101
*
Ed
 1e-07 1 1 0
1  58 0 0 1.5707963267949
2  133 16 0 0 1.5707963267949
2  134 7 19 0 1.5707963267949
0

0101000
+213 14 -211 14 *
Ve
8.42596117475649e-05
14 1290.1 117.283009433972
0 0

0101101
*
Ed
 1.00000051728292e-07 1 1 0
1  59 0 1.5707963267949 2.11094030447111
2  135 34 18 1.5707963267949 2.11094030447111
2  136 6 0 1.5707963267949 2.11094030447111
2  137 16 18 1.5707963267949 2.11094030447111
0

0101000
+211 0 -209 0 *
Ve
8.42596117475649e-05
14 1290.1 126.716990566028
0 0

0101101
*
Ed
 8.42596117475648e-05 1 1 0
1  60 0 1.03065234911869 5.25253295806089
2  138 34 18 1.03065234911869 5.25253295806089
2  139 4 0 1.03065234911869 5.25253295806089
2  140 35 0 1.03065234911869 5.25253295806089
2  141 16 18 1.03065234911869 5.25253295806089
0

0101000
+209 0 -207 0 *
Ve
1.00000056843419e-07
18 1290.1 127.5
0 0

0101101
*
Ed
 1.00000051728292e-07 1 1 0
1  61 0 4.17224500270848 4.71238898038469
2  142 34 18 4.17224500270848 4.71238898038469
2  143 6 0 4.17224500270848 4.71238898038469
2  144 16 18 4.17224500270848 4.71238898038469
0

0101000
+207 0 -205 0 *
Ed
 1e-07 1 1 0
1  58 0 4.71238898038469 6.28318530717959
2  133 16 0 4.71238898038469 6.28318530717959
2  134 7 19 4.71238898038469 6.28318530717959
0

0101000
+205 14 -213 14 *
Wi

0101100
+212 18 +305 18 +285 18 +303 18 -212 18 -210 18 -208 0 -206 0 -204 0 -203 18 
*
Fa
0  1e-07 16 18

0101000
+202 0 *
Ve
1.00000018e-07
18 1282.32182540695 64
0 0

0101101
*
Ed
 1e-07 1 1 0
1  62 0 15.5 40.9558441227157
3  145 146CN 17 0 15.5 40.9558441227157
0

0101000
+300 14 -200 14 *
Ve
1.00000056843419e-07
18 1290.1 58.5
0 0

0101101
*
Ed
 1e-07 1 1 0
1  63 0 0 1.5707963267949
2  147 17 0 0 1.5707963267949
2  148 7 19 0 1.5707963267949
0

0101000
+200 14 -198 14 *
Ve
8.42596117475649e-05
14 1290.1 59.2830094339717
0 0

0101101
*
Ed
 1.00000050242959e-07 1 1 0
1  64 0 1.5707963267949 2.11094030447111
2  149 36 18 1.5707963267949 2.11094030447111
2  150 6 0 1.5707963267949 2.11094030447111
2  151 17 18 1.5707963267949 2.11094030447111
0

0101000
+198 0 -196 0 *
Ve
8.42596117475649e-05
14 1290.1 68.7169905660283
0 0

0101101
*
Ed
 8.42596117475648e-05 1 1 0
1  65 0 1.03065234911869 5.25253295806089
2  152 36 18 1.03065234911869 5.25253295806089
2  153 4 0 1.03065234911869 5.25253295806089
2  154 37 0 1.03065234911869 5.25253295806089
2  155 17 18 1.03065234911869 5.25253295806089
0

0101000
+196 0 -194 0 *
Ve
1.00000056843419e-07
18 1290.1 69.5
0 0

0101101
*
Ed
 1.00000051728292e-07 1 1 0
1  66 0 4.17224500270848 4.71238898038469
2  156 36 18 4.17224500270848 4.71238898038469
2  157 6 0 4.17224500270848 4.71238898038469
2  158 17 18 4.17224500270848 4.71238898038469
0

0101000
+194 0 -192 0 *
Ed
 1e-07 1 1 0
1  63 0 4.71238898038469 6.28318530717959
2  147 17 0 4.71238898038469 6.28318530717959
2  148 7 19 4.71238898038469 6.28318530717959
0

0101000
+192 14 -200 14 *
Wi

0101100
+199 18 +299 18 +286 18 +297 18 -199 18 -197 18 -195 0 -193 0 -191 0 -190 18 
*
Fa
0  1e-07 17 18

0101000
+189 0 *
Ve
1e-07
15 89 358.531161971831
0 0

0101101
*
Ed
 1e-07 1 1 0
1  67 0 0 6.28318530717959
2  159 38 0 0 6.28318530717959
2  160 18 0 0 6.28318530717959
0

0101100
+187 17 -187 17 *
Ed
 1e-07 1 1 0
1  68 0 1 16
3  161 162CN 18 0 1 16
0

0101000
+293 17 -187 17 *
Wi

0101100
-186 0 +185 0 +292 0 -185 0 *
Fa
0  1e-07 18 0

0111000
+184 0 *
Ve
1e-07
15 127 365.167781690141
0 0

0101101
*
Ed
 1e-07 1 1 0
1  69 0 0 6.28318530717959
2  163 39 0 0 6.28318530717959
2  164 19 0 0 6.28318530717959
0

0101100
+182 17 -182 17 *
Ed
 1e-07 1 1 0
1  70 0 1 16
3  165 166CN 19 0 1 16
0

0101000
+290 17 -182 17 *
Wi

0101100
-181 0 +180 0 +289 0 -180 0 *
Fa
0  1e-07 19 0

0111000
+179 0 *
Ve
1e-07
18 1290.1 578.9
0 0

0101101
*
Ed
 1e-07 1 1 0
1  29 0 127.5 578.9
2  57 21 0 127.5 578.9
2  58 6 0 127.5 578.9
0

0101000
+205 0 -177 0 *
Ve
8.42596117475649e-05
14 1290.1 578.9
0 0

0101101
*
Ed
 1e-07 1 1 0
1  71 0 0 4
2  167 40 0 0 4
2  168 41 0 0 4
0

0101000
+175 0 -177 0 *
Ed
 8.42596117475648e-05 1 1 0
1  31 0 126.716990566028 578.9
2  61 4 0 126.716990566028 578.9
2  62 6 0 126.716990566028 578.9
0

0101000
+207 0 -175 0 *
Wi

0101100
-204 0 -176 0 +174 0 +173 0 *
Fa
0  1e-07 6 0

0101000
+172 0 *
Ed
 1e-07 1 1 0
1  29 0 69.5 116.5
2  57 21 0 69.5 116.5
2  58 6 0 69.5 116.5
0

0101000
+192 0 -211 0 *
Ed
 8.42596117475648e-05 1 1 0
1  31 0 68.7169905660283 117.283009433972
2  61 4 0 68.7169905660283 117.283009433972
2  62 6 0 68.7169905660283 117.283009433972
0

0101000
+194 0 -209 0 *
Wi

0101100
-191 0 -170 0 -208 0 +169 0 *
Fa
0  1e-07 6 0

0101000
+168 0 *
Ve
8.42596117475649e-05
14 1290.1 36
0 0

0101101
*
Ve
1e-07
18 1290.1 36
0 0

0101101
*
Ed
 1e-07 1 1 0
1  72 0 0 4
2  169 22 0 0 4
2  170 42 0 0 4
0

0101000
+166 0 -165 0 *
Ed
 1e-07 1 1 0
1  29 0 36 58.5
2  57 21 0 36 58.5
2  58 6 0 36 58.5
0

0101000
+165 0 -198 0 *
Ed
 8.42596117475648e-05 1 1 0
1  31 0 36 59.2830094339717
2  61 4 0 36 59.2830094339717
2  62 6 0 36 59.2830094339717
0

0101000
+166 0 -196 0 *
Wi

0101100
-164 0 -163 0 -195 0 +162 0 *
Fa
0  1e-07 6 0

0101000
+161 0 *
Ve
8.42596117475649e-05
14 18 36
0 0

0101101
*
Ed
 8.42596117475648e-05 1 1 0
1  73 0 0 1272.1
2  171 43 0 0 1272.1
2  172 42 0 0 1272.1
0

0101000
+159 0 -166 0 *
Ve
1e-07
18 18 36
0 0

0101101
*
Ed
 1e-07 1 1 0
1  74 0 0 1272.1
2  173 25 0 0 1272.1
2  174 42 0 0 1272.1
0

0101000
+157 0 -165 0 *
Ed
 1e-07 1 1 0
1  75 0 0 4
2  175 26 0 0 4
2  176 42 0 0 4
0

0101000
+159 0 -157 0 *
Wi

0101100
-158 0 -164 0 +156 0 +155 0 *
Fa
0  1e-07 42 0

0101000
+154 0 *
Ed
 1e-07 1 1 0
1  32 0 36 90.5
2  63 24 0 36 90.5
2  64 8 0 36 90.5
0

0101000
+157 0 -251 0 *
Ed
 8.42596117475648e-05 1 1 0
1  35 0 36 91.2830094339717
2  69 10 0 36 91.2830094339717
2  70 8 0 36 91.2830094339717
0

0101000
+159 0 -243 0 *
Wi

0101100
-155 0 -152 0 -241 0 +151 0 *
Fa
0  1e-07 8 0

0101000
+150 0 *
Ed
 1e-07 1 1 0
1  32 0 101.5 148.5
2  63 24 0 101.5 148.5
2  64 8 0 101.5 148.5
0

0101000
+250 0 -238 0 *
Ed
 8.42596117475648e-05 1 1 0
1  35 0 100.716990566028 149.283009433972
2  69 10 0 100.716990566028 149.283009433972
2  70 8 0 100.716990566028 149.283009433972
0

0101000
+248 0 -230 0 *
Wi

0101100
-247 0 -148 0 -228 0 +147 0 *
Fa
0  1e-07 8 0

0101000
+146 0 *
Ve
1e-07
18 18 400.05
0 0

0101101
*
Ed
 1e-07 1 1 0
1  32 0 159.5 400.05
2  63 24 0 159.5 400.05
2  64 8 0 159.5 400.05
0

0101000
+237 0 -144 0 *
Ve
8.42596117475649e-05
14 18 400.05
0 0

0101101
*
Ed
 1e-07 1 1 0
1  76 0 0 4
2  177 8 0 0 4
2  178 44 0 0 4
0

0101000
+142 0 -144 0 *
Ed
 8.42596117475648e-05 1 1 0
1  35 0 158.716990566028 400.05
2  69 10 0 158.716990566028 400.05
2  70 8 0 158.716990566028 400.05
0

0101000
+235 0 -142 0 *
Wi

0101100
-234 0 -143 0 +141 0 +140 0 *
Fa
0  1e-07 8 0

0101000
+139 0 *
Ed
 8.42596117475648e-05 1 1 0
1  77 0 0 18
2  179 10 0 0 18
2  180 44 0 0 18
0

0101000
+256 0 -142 0 *
Ed
 1e-07 1 1 0
1  78 0 0 18
2  181 24 0 0 18
2  182 44 0 0 18
0

0101000
+221 0 -144 0 *
Wi

0101100
-137 0 -141 0 +136 0 +220 6 *
Fa
0  1e-07 44 0

0101000
+135 0 *
Ed
 8.42596117475648e-05 1 1 0
1  79 0 0 1272.1
2  183 43 0 0 1272.1
2  184 23 0 0 1272.1
0

0101000
+267 0 -277 0 *
Wi

0101100
-133 0 -276 0 +270 0 +266 0 *
Fa
0  1e-07 23 0

0101000
+132 0 *
Ve
1e-07
18 1127.125 578.9
0 0

0101101
*
Ed
 1e-07 1 1 0
1  80 0 0 18
2  185 45 0 0 18
2  186 46 0 0 18
0

0101000
+130 0 -223 0 *
Ed
 1e-07 1 1 0
1  81 0 0 162.975
2  187 45 0 0 162.975
2  188 41 0 0 162.975
0

0101000
+130 0 -177 0 *
Wi

0101100
-152 0 -249 18 -148 0 -236 18 -143 0 +136 0 +219 9 +129 0 -128 0 +176 0 
-203 18 -210 18 +170 0 -190 18 -197 18 +163 0 +156 0 *
Ve
1e-07
18 1037 193.5
0 0

0101101
*
Ed
 1e-07 1 1 0
1  82 0 0 6.28318530717959
2  189 7 22 0 6.28318530717959
2  190 47 0 0 6.28318530717959
0

0101000
+126 23 -126 23 *
Wi

0101100
-125 21 *
Ve
1e-07
18 990 229.75
0 0

0101101
*
Ed
 1e-07 1 1 0
1  83 0 0 6.28318530717959
2  191 7 19 0 6.28318530717959
2  192 48 0 0 6.28318530717959
0

0101100
+123 14 -123 14 *
Wi

0101100
+122 18 *
Ve
1e-07
18 920 229.75
0 0

0101101
*
Ed
 1e-07 1 1 0
1  84 0 0 6.28318530717959
2  193 7 19 0 6.28318530717959
2  194 49 0 0 6.28318530717959
0

0101100
+120 14 -120 14 *
Wi

0101100
+119 18 *
Ve
1e-07
18 690 169.75
0 0

0101101
*
Ed
 1e-07 1 1 0
1  85 0 0 6.28318530717959
2  195 7 19 0 6.28318530717959
2  196 50 0 0 6.28318530717959
0

0101100
+117 14 -117 14 *
Wi

0101100
+116 18 *
Ve
1e-07
18 620 169.75
0 0

0101101
*
Ed
 1e-07 1 1 0
1  86 0 0 6.28318530717959
2  197 7 19 0 6.28318530717959
2  198 51 0 0 6.28318530717959
0

0101100
+114 14 -114 14 *
Wi

0101100
+113 18 *
Ve
1e-07
18 1042.5 321.610165057453
0 0

0101101
*
Ed
 1e-07 1 1 0
1  87 0 0 6.28318530717959
2  199 7 22 0 6.28318530717959
2  200 52 0 0 6.28318530717959
0

0101000
+111 23 -111 23 *
Wi

0101100
-110 21 *
Ve
1e-07
18 1055.25061984718 449.720330114907
0 0

0101101
*
Ed
 1e-07 1 1 0
1  88 0 0 6.28318530717959
2  201 7 22 0 6.28318530717959
2  202 53 0 0 6.28318530717959
0

0101000
+108 23 -108 23 *
Wi

0101100
-107 21 *
Ve
1e-07
18 245 149.75
0 0

0101101
*
Ed
 1e-07 1 1 0
1  89 0 0 6.28318530717959
2  203 7 19 0 6.28318530717959
2  204 54 0 0 6.28318530717959
0

0101100
+105 14 -105 14 *
Wi

0101100
+104 18 *
Ve
1e-07
18 175 149.75
0 0

0101101
*
Ed
 1e-07 1 1 0
1  90 0 0 6.28318530717959
2  205 7 19 0 6.28318530717959
2  206 55 0 0 6.28318530717959
0

0101100
+102 14 -102 14 *
Wi

0101100
+101 18 *
Ve
1e-07
18 89 363.093661971831
0 0

0101101
*
Ed
 1e-07 1 1 0
1  91 0 0 6.28318530717959
2  207 56 0 0 6.28318530717959
2  208 7 24 0 6.28318530717959
0

0101100
+99 17 -99 17 *
Wi

0101100
-98 20 *
Ve
1e-07
18 127 369.730281690141
0 0

0101101
*
Ed
 1e-07 1 1 0
1  92 0 0 6.28318530717959
2  209 57 0 0 6.28318530717959
2  210 7 24 0 6.28318530717959
0

0101100
+96 17 -96 17 *
Wi

0101100
-95 20 *
Fa
0  1e-07 7 9

0101000
+127 0 +124 0 +121 0 +118 0 +115 0 +112 0 +109 0 +106 0 +103 0 +100 0 
+97 0 +94 0 *
Ve
8.42596117475649e-05
14 1127.125 578.9
0 0

0101101
*
Ed
 1e-07 1 1 0
1  93 0 0 4
2  211 46 0 0 4
2  212 41 0 0 4
0

0101000
+92 0 -130 0 *
Ed
 8.42596117475648e-05 1 1 0
1  94 0 0 18
2  213 58 0 0 18
2  214 46 0 0 18
0

0101000
+92 0 -225 0 *
Wi

0101100
-91 0 -129 0 +222 6 +90 0 *
Fa
0  1e-07 46 0

0101000
+89 0 *
Ve
1e-07
15 89 363.093661971831
0 0

0101101
*
Ed
 1e-07 1 1 0
1  95 0 0 6.28318530717959
2  215 56 0 0 6.28318530717959
2  216 38 0 0 6.28318530717959
0

0101000
+87 17 -87 17 *
Wi

0101100
+86 0 *
Wi

0101100
-186 0 *
Fa
0  1e-07 38 0

0111000
+85 0 +84 0 *
Ve
1e-07
15 127 369.730281690141
0 0

0101101
*
Ed
 1e-07 1 1 0
1  96 0 0 6.28318530717959
2  217 57 0 0 6.28318530717959
2  218 39 0 0 6.28318530717959
0

0101000
+82 17 -82 17 *
Wi

0101100
+81 0 *
Wi

0101100
-181 0 *
Fa
0  1e-07 39 0

0111000
+80 0 +79 0 *
Ed
 8.42596117475648e-05 1 1 0
1  97 0 0 162.975
2  219 58 0 0 162.975
2  220 41 0 0 162.975
0

0101000
+92 0 -175 0 *
Wi

0101100
-77 0 -174 0 +128 0 +91 0 *
Fa
0  1e-07 41 0

0101000
+76 0 *
Ve
1e-07
17 1037 193.5
0 0

0101101
*
Ed
 1e-07 1 1 0
1  98 0 0 1
3  221 222CN 47 0 0 1
0

0101000
+74 23 -126 23 *
Ed
 1e-07 1 1 0
1  99 0 0 6.28318530717959
2  223 47 0 0 6.28318530717959
2  224 59 0 0 6.28318530717959
0

0101000
+74 23 -74 23 *
Wi

0101100
-125 0 +73 0 +72 0 -73 0 *
Fa
0  1e-07 47 0

0111000
+71 0 *
Ve
1e-07
5 990 229.75
0 0

0101101
*
Ed
 1e-07 1 1 0
1  100 0 1 14
3  225 226CN 48 0 1 14
0

0101000
+123 14 -69 14 *
Ed
 1e-07 1 1 0
1  101 0 0 6.28318530717959
2  227 48 0 0 6.28318530717959
2  228 60 0 0 6.28318530717959
0

0101000
+69 14 -69 14 *
Wi

0101100
+68 0 +122 0 -68 0 -67 0 *
Fa
0  1e-07 48 0

0111000
+66 0 *
Ve
1e-07
5 920 229.75
0 0

0101101
*
Ed
 1e-07 1 1 0
1  102 0 1 14
3  229 230CN 49 0 1 14
0

0101000
+120 14 -64 14 *
Ed
 1e-07 1 1 0
1  103 0 0 6.28318530717959
2  231 49 0 0 6.28318530717959
2  232 61 0 0 6.28318530717959
0

0101000
+64 14 -64 14 *
Wi

0101100
+63 0 +119 0 -63 0 -62 0 *
Fa
0  1e-07 49 0

0111000
+61 0 *
Ve
1e-07
5 690 169.75
0 0

0101101
*
Ed
 1e-07 1 1 0
1  104 0 1 14
3  233 234CN 50 0 1 14
0

0101000
+117 14 -59 14 *
Ed
 1e-07 1 1 0
1  105 0 0 6.28318530717959
2  235 50 0 0 6.28318530717959
2  236 62 0 0 6.28318530717959
0

0101000
+59 14 -59 14 *
Wi

0101100
+58 0 +116 0 -58 0 -57 0 *
Fa
0  1e-07 50 0

0111000
+56 0 *
Ve
1e-07
5 620 169.75
0 0

0101101
*
Ed
 1e-07 1 1 0
1  106 0 1 14
3  237 238CN 51 0 1 14
0

0101000
+114 14 -54 14 *
Ed
 1e-07 1 1 0
1  107 0 0 6.28318530717959
2  239 51 0 0 6.28318530717959
2  240 63 0 0 6.28318530717959
0

0101000
+54 14 -54 14 *
Wi

0101100
+53 0 +113 0 -53 0 -52 0 *
Fa
0  1e-07 51 0

0111000
+51 0 *
Ve
1e-07
17 1042.5 321.610165057453
0 0

0101101
*
Ed
 1e-07 1 1 0
1  108 0 0 1
3  241 242CN 52 0 0 1
0

0101000
+49 23 -111 23 *
Ed
 1e-07 1 1 0
1  109 0 0 6.28318530717959
2  243 52 0 0 6.28318530717959
2  244 64 0 0 6.28318530717959
0

0101000
+49 23 -49 23 *
Wi

0101100
-110 0 +48 0 +47 0 -48 0 *
Fa
0  1e-07 52 0

0111000
+46 0 *
Ve
1e-07
17 1055.25061984718 449.720330114907
0 0

0101101
*
Ed
 1e-07 1 1 0
1  110 0 0 1
3  245 246CN 53 0 0 1
0

0101000
+44 23 -108 23 *
Ed
 1e-07 1 1 0
1  111 0 0 6.28318530717959
2  247 53 0 0 6.28318530717959
2  248 65 0 0 6.28318530717959
0

0101000
+44 23 -44 23 *
Wi

0101100
-107 0 +43 0 +42 0 -43 0 *
Fa
0  1e-07 53 0

0111000
+41 0 *
Ve
1e-07
5 245 149.75
0 0

0101101
*
Ed
 1e-07 1 1 0
1  112 0 1 14
3  249 250CN 54 0 1 14
0

0101000
+105 14 -39 14 *
Ed
 1e-07 1 1 0
1  113 0 0 6.28318530717959
2  251 54 0 0 6.28318530717959
2  252 66 0 0 6.28318530717959
0

0101000
+39 14 -39 14 *
Wi

0101100
+38 0 +104 0 -38 0 -37 0 *
Fa
0  1e-07 54 0

0111000
+36 0 *
Ve
1e-07
5 175 149.75
0 0

0101101
*
Ed
 1e-07 1 1 0
1  114 0 1 14
3  253 254CN 55 0 1 14
0

0101000
+102 14 -34 14 *
Ed
 1e-07 1 1 0
1  115 0 0 6.28318530717959
2  255 55 0 0 6.28318530717959
2  256 67 0 0 6.28318530717959
0

0101000
+34 14 -34 14 *
Wi

0101100
+33 0 +101 0 -33 0 -32 0 *
Fa
0  1e-07 55 0

0111000
+31 0 *
Ed
 1e-07 1 1 0
1  116 0 0 3
3  257 258CN 56 0 0 3
0

0101000
+87 17 -99 17 *
Wi

0101100
-98 0 +29 0 +86 0 -29 0 *
Fa
0  1e-07 56 0

0111000
+28 0 *
Ed
 1e-07 1 1 0
1  117 0 0 3
3  259 260CN 57 0 0 3
0

0101000
+82 17 -96 17 *
Wi

0101100
-95 0 +26 0 +81 0 -26 0 *
Fa
0  1e-07 57 0

0111000
+25 0 *
Wi

0101100
-72 0 *
Fa
0  1e-07 59 0

0111000
-23 0 *
Wi

0101100
+67 0 *
Fa
0  1e-07 60 0

0111000
+21 0 *
Wi

0101100
+62 0 *
Fa
0  1e-07 61 0

0111000
+19 0 *
Wi

0101100
+57 0 *
Fa
0  1e-07 62 0

0111000
+17 0 *
Wi

0101100
+52 0 *
Fa
0  1e-07 63 0

0111000
+15 0 *
Wi

0101100
-47 0 *
Fa
0  1e-07 64 0

0111000
-13 0 *
Wi

0101100
-42 0 *
Fa
0  1e-07 65 0

0111000
-11 0 *
Wi

0101100
+37 0 *
Fa
0  1e-07 66 0

0111000
+9 0 *
Wi

0101100
+32 0 *
Fa
0  1e-07 67 0

0111000
+7 0 *
Wi

0101000
-275 0 +333 0 +282 0 -216 0 -90 0 +77 0 -173 0 -206 0 -169 0 -193 0 
-162 0 -158 0 +151 0 -242 0 -245 0 +147 0 -229 0 -232 0 +140 0 -137 0 
-255 0 +325 0 +265 0 +133 0 *
Fa
0  8.42596117475648e-05 68 0

0111000
+5 0 *
Sh

0101000
-322 0 -287 5 -280 0 +273 0 +268 0 -263 0 -252 0 -239 0 -226 0 -217 0 
-214 0 -201 0 -188 0 -183 20 -178 20 +171 0 +167 0 +160 0 -153 0 -149 0 
-145 0 -138 0 -134 0 +131 0 +93 0 +88 0 +83 20 +78 20 +75 0 -70 21 
-65 18 -60 18 -55 18 -50 18 -45 21 -40 21 -35 18 -30 18 -27 20 -24 20 
+22 21 -20 18 -18 18 -16 18 -14 18 +12 21 +10 21 -8 18 -6 18 +4 0 
*
So

0100000
+3 0 *
Co

0100000
+2 0 *

+1 0 