DBRep_DrawableShape

CASCADE Topology V1, (c) Matra-Datavision
Locations 4
1
              1               0               0               0 
              0               1               0               0 
              0               0               1               0 
1
              1               0               0               0 
              0               1               0             166 
              0               0               1 -80.593661971831 
2  1 1 2 1 0
2  1 -1 0
Curve2ds 48
1 0 -0 1 0 
1 1.0500000000001251 9.7531172069825516 -1 0 
1 0.60000000000002274 -0 0 -1 
1 20 0 0 1 
1 0 -14 1 0 
1 -1.0500000000000114 9.7531172069825516 1 0 
1 0 -0 0 -1 
1 20 0 0 1 
1 2 0 0 1 
1 0.60000000000002274 -0 0 -1 
1 0 14 1 0 
1 -0.44999999999998863 -10.246882793017448 0 1 
1 0 0 1 0 
1 0.45000000000010232 -10.246882793017448 0 1 
1 0 -0 1 0 
1 1.0500000000001251 -8.2468827930174484 -1 0 
1 1.5 -0 0 -1 
1 2 0 0 1 
1 0 -14 1 0 
1 -1.0500000000000114 -8.2468827930174484 1 0 
1 0 14 1 0 
1 0.44999999999998863 -10.246882793017448 0 1 
1 20 0 0 1 
1 0 -0 0 -1 
1 0 0 1 0 
1 -0.44999999999987494 -10.246882793017448 0 1 
1 0 -0 1 0 
1 -0.44999999999987494 9.7531172069825516 -1 0 
1 0.60000000000002274 -0 0 -1 
1 20 0 0 1 
1 0 -14 1 0 
1 0.44999999999998863 9.7531172069825516 1 0 
1 1.0500000000001251 -10.246882793017448 0 1 
1 0 0 1 0 
1 -1.0499999999998977 -10.246882793017448 0 1 
1 0 0 1 0 
1 -0.44999999999987494 -10.246882793017448 -1 0 
1 -0.44999999999998863 7 -1 0 
1 -1.0500000000000114 7 0 -1 
1 0 0 0 1 
1 -0.44999999999998863 -7 -1 0 
1 0.44999999999998863 -10.246882793017448 1 0 
1 1.0500000000000114 7 0 -1 
1 0 0 0 1 
1 1.0500000000000114 -10.246882793017448 0 1 
1 0 14 1 0 
1 -1.0500000000000114 -10.246882793017448 0 1 
1 0 14 1 0 
Curves 24
1 559 82 335.59366197183101 -0 -0 1 
1 559 82 336.19366197183103 0 1 -0 
1 559 96 335.59366197183101 -0 -0 1 
1 559 82 335.59366197183101 0 1 -0 
1 577 82 336.19366197183103 0 1 -0 
1 579 96 336.19366197183103 -1 0 -0 
1 579 82 336.19366197183103 -1 0 -0 
1 577 82 335.59366197183101 -0 -0 1 
1 577 82 337.09366197183101 0 1 -0 
1 577 96 335.59366197183101 -0 -0 1 
1 579 96 337.09366197183101 -1 0 -0 
1 559 82 337.09366197183101 0 1 -0 
1 579 82 337.09366197183101 -1 0 -0 
1 559 82 337.09366197183101 -0 -0 1 
1 559 82 337.69366197183103 0 1 -0 
1 559 96 337.09366197183101 -0 -0 1 
1 579 82 335.59366197183101 -1 0 -0 
1 579 82 337.69366197183103 -1 0 -0 
1 579 82 337.09366197183101 -0 -0 1 
1 579 82 337.69366197183103 0 1 -0 
1 579 96 337.09366197183101 -0 -0 1 
1 579 82 335.59366197183101 0 1 -0 
1 579 96 337.69366197183103 -1 0 -0 
1 579 96 335.59366197183101 -1 0 -0 
Polygon3D 0
PolygonOnTriangulations 0
Surfaces 10
1 559 82 335.59366197183101 -1 0 -0 -0 -0 1 -0 -1 -0 
1 568.75311720698255 82.000000000000014 336.64366197183114 -0 -1 -0 0 0 -1 -1 0 -0 
1 579 82 336.19366197183103 -0 -0 1 -1 0 0 0 1 0 
1 568.75311720698255 96 336.64366197183102 -0 1 -0 0 0 1 -1 -0 0 
1 579 82 335.59366197183101 -0 -0 1 -1 0 0 0 1 0 
1 577 82 335.59366197183101 -1 0 -0 -0 -0 1 -0 -1 -0 
1 579 82 337.09366197183101 -0 -0 1 -1 0 0 0 1 0 
1 559 82 337.09366197183101 -1 0 -0 -0 -0 1 -0 -1 -0 
1 579 82 337.69366197183103 -0 -0 1 -1 0 0 0 1 0 
1 579 89 336.64366197183102 1 -0 -0 -0 0 -1 -0 -1 -0 
Triangulations 0

TShapes 63
Ve
1e-07
559 82 336.193661971831
0 0

0101101
*
Ve
1e-07
559 82 335.593661971831
0 0

0101101
*
Ed
 1e-07 1 1 0
1  1 0 0 0.600000000000023
2  1 1 0 0 0.600000000000023
2  2 2 0 0 0.600000000000023
0

0101000
-63 4 +62 4 *
Ve
1e-07
559 96 336.193661971831
0 0

0101101
*
Ed
 1e-07 1 1 0
1  2 0 0 14
2  3 1 0 0 14
2  4 3 0 0 14
0

0101000
-60 4 +63 4 *
Ve
1e-07
559 96 335.593661971831
0 0

0101101
*
Ed
 1e-07 1 1 0
1  3 0 0 0.600000000000023
2  5 1 0 0 0.600000000000023
2  6 4 0 0 0.600000000000023
0

0101000
-60 4 +58 4 *
Ed
 1e-07 1 1 0
1  4 0 0 14
2  7 1 0 0 14
2  8 5 0 0 14
0

0101000
-58 4 +62 4 *
Wi

0101100
-61 0 -59 0 +57 0 +56 0 *
Fa
0  1e-07 1 0

0111000
+55 0 *
Ve
1.5e-07
577 82 336.193661971831
0 0

0101101
*
Ve
1.5e-07
577 96 336.193661971831
0 0

0101101
*
Ed
 1.5e-07 1 1 0
1  5 0 0 14
2  9 3 0 0 14
2  10 6 0 0 14
0

0101000
+53 4 -52 4 *
Ed
 1e-07 1 1 0
1  6 0 2 20
2  11 3 0 2 20
2  12 4 0 2 20
0

0101000
+52 4 -60 4 *
Ed
 1e-07 1 1 0
1  7 0 2 20
2  13 3 0 2 20
2  14 2 0 2 20
0

0101000
+53 4 -63 4 *
Wi

0101100
-51 0 -50 0 +59 0 +49 0 *
Fa
0  1e-07 3 0

0111000
+48 0 *
Ve
1.5e-07
577 82 337.093661971831
0 0

0101101
*
Ed
 1e-07 1 1 0
1  8 0 0.600000000000023 1.5
2  15 6 0 0.600000000000023 1.5
2  16 2 0 0.600000000000023 1.5
0

0101000
+53 4 -46 4 *
Ve
1.5e-07
577 96 337.093661971831
0 0

0101101
*
Ed
 1.5e-07 1 1 0
1  9 0 0 14
2  17 6 0 0 14
2  18 7 0 0 14
0

0101000
+46 4 -44 4 *
Ed
 1e-07 1 1 0
1  10 0 0.600000000000023 1.5
2  19 6 0 0.600000000000023 1.5
2  20 4 0 0.600000000000023 1.5
0

0101000
+52 4 -44 4 *
Wi

0101100
-45 0 -43 0 +42 0 +51 0 *
Fa
0  1e-07 6 0

0111000
+41 0 *
Ve
1e-07
559 96 337.093661971831
0 0

0101101
*
Ed
 1e-07 1 1 0
1  11 0 2 20
2  21 7 0 2 20
2  22 4 0 2 20
0

0101000
+44 4 -39 4 *
Ve
1e-07
559 82 337.093661971831
0 0

0101101
*
Ed
 1e-07 1 1 0
1  12 0 0 14
2  23 7 0 0 14
2  24 8 0 0 14
0

0101000
-39 4 +37 4 *
Ed
 1e-07 1 1 0
1  13 0 2 20
2  25 7 0 2 20
2  26 2 0 2 20
0

0101000
+46 4 -37 4 *
Wi

0101100
-43 0 -38 0 +36 0 +35 0 *
Fa
0  1e-07 7 0

0111000
+34 0 *
Ve
1e-07
559 82 337.693661971831
0 0

0101101
*
Ed
 1e-07 1 1 0
1  14 0 0 0.600000000000023
2  27 8 0 0 0.600000000000023
2  28 2 0 0 0.600000000000023
0

0101000
-32 4 +37 4 *
Ve
1e-07
559 96 337.693661971831
0 0

0101101
*
Ed
 1e-07 1 1 0
1  15 0 0 14
2  29 8 0 0 14
2  30 9 0 0 14
0

0101000
-30 4 +32 4 *
Ed
 1e-07 1 1 0
1  16 0 0 0.600000000000023
2  31 8 0 0 0.600000000000023
2  32 4 0 0 0.600000000000023
0

0101000
-30 4 +39 4 *
Wi

0101100
-31 0 -29 0 +28 0 +36 0 *
Fa
0  1e-07 8 0

0111000
+27 0 *
Ve
1e-07
579 82 335.593661971831
0 0

0101101
*
Ed
 1e-07 1 1 0
1  17 0 0 20
2  33 2 0 0 20
2  34 5 0 0 20
0

0101000
+25 4 -62 4 *
Ve
1e-07
579 82 337.693661971831
0 0

0101101
*
Ed
 1e-07 1 1 0
1  18 0 0 20
2  35 2 0 0 20
2  36 9 0 0 20
0

0101000
+23 4 -32 4 *
Ed
 1e-07 1 1 0
1  19 0 -1.5 0.600000000000023
2  37 2 0 -1.5 0.600000000000023
2  38 10 0 -1.5 0.600000000000023
0

0101000
+25 4 -23 4 *
Wi

0101000
+24 0 +61 0 -49 0 +45 0 +35 0 +31 0 -22 0 -21 0 *
Fa
0  1e-07 2 0

0111000
+20 0 *
Ve
1e-07
579 96 337.693661971831
0 0

0101101
*
Ed
 1e-07 1 1 0
1  20 0 0 14
2  39 10 0 0 14
2  40 9 0 0 14
0

0101000
+23 4 -18 4 *
Ve
1e-07
579 96 335.593661971831
0 0

0101101
*
Ed
 1e-07 1 1 0
1  21 0 -1.5 0.600000000000023
2  41 10 0 -1.5 0.600000000000023
2  42 4 0 -1.5 0.600000000000023
0

0101000
+16 4 -18 4 *
Ed
 1e-07 1 1 0
1  22 0 0 14
2  43 10 0 0 14
2  44 5 0 0 14
0

0101000
+25 4 -16 4 *
Wi

0101000
+21 0 +17 0 -15 0 -14 0 *
Fa
0  1e-07 10 0

0111000
+13 0 *
Ed
 1e-07 1 1 0
1  23 0 0 20
2  45 4 0 0 20
2  46 9 0 0 20
0

0101000
+18 4 -30 4 *
Ed
 1e-07 1 1 0
1  24 0 0 20
2  47 4 0 0 20
2  48 5 0 0 20
0

0101000
+16 4 -58 4 *
Wi

0101000
+15 0 +11 0 -28 0 -38 0 -42 0 +50 0 -57 0 -10 0 *
Fa
0  1e-07 4 0

0111000
+9 0 *
Wi

0101000
+14 0 +10 0 -56 0 -24 0 *
Fa
0  1e-07 5 0

0111000
-7 0 *
Wi

0101000
-17 0 +22 0 +29 0 -11 0 *
Fa
0  1e-07 9 0

0111000
+5 0 *
Sh

0101000
-54 0 -47 0 -40 0 +33 0 -26 0 -19 0 -12 0 -8 0 +6 0 -4 0 
*
So

0100000
+3 0 *
Co

1100000
+2 0 *

+1 3 