DBRep_DrawableShape

CASCADE Topology V1, (c) Matra-Datavision
Locations 8
1
              1               0               0               0 
              0               1               0               0 
              0               0               1               0 
1
1.11022302462516e-16               0               1               0 
              0               1               0               0 
             -1               0 1.11022302462516e-16               0 
1
              1               0               0              -0 
              0               1               0 3.88908730122752 
              0               0               1              18 
1
              1               0               0               0 
              0               1               0               0 
              0               0               1              -3 
1
              1               0               0               0 
              0               1               0               0 
              0               0               1               1 
1
              1               0               0               0 
              0               1               0               0 
              0               0               1              -1 
2  1 1 2 1 3 1 4 1 5 1 6 1 0
2  6 -1 5 -1 4 -1 3 -1 2 -1 1 -1 0
Curve2ds 0
Curves 1
2 15.000000000000032 255 270 1 0 0 0 -0 1 0 -1 -0 7.9375
Polygon3D 0
PolygonOnTriangulations 0
Surfaces 1
1 270 258.88908730122751 -5.9211894646675032e-16 0 0 1 1 0 -0 -0 1 0 
Triangulations 0

TShapes 5
Ve
8.42596118365588e-05
277.9375 258.889087301228 7.69754630406775e-15
0 0

0101101
*
Ed
 8.42596118318218e-05 1 1 0
1  1 0 0 6.28318530717959
0

0101000
+5 8 -5 8 *
Wi

0101100
+4 7 *
Fa
0  1e-07 1 0

0101000
-3 0 *
Sh

1101000
+2 0 *

+1 0 