DBRep_DrawableShape

CASCADE Topology V1, (c) Matra-Datavision
Locations 34
1
              1               0               0               0 
              0               1               0               0 
              0               0               1              18 
1
              1               0               0               0 
              0               1               0               0 
              0               0               1               0 
1
1.11022302462516e-16               0               1               0 
              0               1               0               0 
             -1               0 1.11022302462516e-16               0 
1
              1               0               0              -0 
              0               1               0 3.88908730122752 
              0               0               1              18 
1
              1               0               0               0 
              0               1               0               0 
              0               0               1 -4.44089209850069e-16 
1
              1               0               0               0 
              0               1               0               0 
              0               0               1               1 
1
              1               0               0               0 
              0               1               0               0 
              0               0               1              -1 
2  2 1 3 1 4 1 5 1 6 1 7 1 0
2  7 -1 6 -1 5 -1 4 -1 3 -1 2 -1 0
1
              1               0               0               0 
              0               1               0               0 
              0               0               1 3.00000000000003 
2  10 -1 7 -1 6 -1 5 -1 4 -1 3 -1 2 -1 0
1
              1               0               0               0 
              0               1               0               0 
              0               0               1 -4.44089209850069e-16 
1
              1               0               0               0 
              0               1               0               0 
              0               0               1               1 
1
              1               0               0               0 
              0               1               0               0 
              0               0               1              -1 
2  2 1 3 1 4 1 12 1 13 1 14 1 0
2  14 -1 13 -1 12 -1 4 -1 3 -1 2 -1 0
1
              1               0               0               0 
              0               1               0               0 
              0               0               1 3.00000000000003 
2  17 -1 14 -1 13 -1 12 -1 4 -1 3 -1 2 -1 0
1
              1               0               0               0 
              0               1               0               0 
              0               0               1              -3 
1
              1               0               0               0 
              0               1               0               0 
              0               0               1               1 
1
              1               0               0               0 
              0               1               0               0 
              0               0               1              -1 
1
              1               0               0               0 
              0               1               0               0 
              0               0               1              18 
2  2 1 3 1 4 1 19 1 20 1 21 1 22 1 0
2  21 -1 20 -1 19 -1 4 -1 3 -1 2 -1 0
2  22 -1 21 -1 20 -1 19 -1 4 -1 3 -1 2 -1 0
1
              1               0               0               0 
              0               1               0               0 
              0               0               1              -3 
1
              1               0               0               0 
              0               1               0               0 
              0               0               1               1 
1
              1               0               0               0 
              0               1               0               0 
              0               0               1              -1 
1
              1               0               0               0 
              0               1               0               0 
              0               0               1              18 
2  2 1 3 1 4 1 26 1 27 1 28 1 29 1 0
2  28 -1 27 -1 26 -1 4 -1 3 -1 2 -1 0
2  29 -1 28 -1 27 -1 26 -1 4 -1 3 -1 2 -1 0
2  2 1 3 1 4 1 5 1 6 1 7 1 10 1 0
2  2 1 3 1 4 1 12 1 13 1 14 1 17 1 0
Curve2ds 20
1 0 0 1 0 
1 0 -3.0000000000000315 1 0 
1 0 0 1 0 
1 0 -3.0000000000000315 1 0 
1 0 0 1 0 
1 0 -18.000000000000028 1 0 
1 0 0 1 0 
1 0 -18.000000000000028 1 0 
1 0 0 0 -1 
1 6.2831853071795862 0 0 -1 
1 0 0 0 -1 
1 6.2831853071795862 0 0 -1 
2 0 0 1 0 0 -1 7.9375
1 0 -3.0000000000000346 1 0 
1 0 0 0 -1 
1 6.2831853071795862 0 0 -1 
2 0 0 1 0 0 -1 7.9375
1 0 -3.0000000000000346 1 0 
1 0 0 0 -1 
1 6.2831853071795862 0 0 -1 
Curves 20
1 0 1311.9890873012275 4.4408920985006262e-16 0 0 1 
1 596.89999999999998 1311.9890873012275 4.4408920985006262e-16 0 0 1 
1 0 1311.9890873012275 4.4408920985006262e-16 1 0 0 
1 0 3.8890873012275051 4.4408920985006262e-16 0 0 1 
1 0 3.8890873012275051 4.4408920985006262e-16 0 1 0 
1 596.89999999999998 1131.0140873029482 4.4408920985006262e-16 0 0 1 
1 596.89999999999998 1311.9890873012275 4.4408920985006262e-16 0 -1 -0 
1 400.05000000000001 3.8890873012275051 4.4408920985006262e-16 -1 0 0 
1 596.90000000000009 1131.0140873012278 4.4408920985006262e-16 -0.17204376626835494 -0.98508930685912921 0 
2 18.000000000000028 255 270 1 0 0 0 -0 1 0 -1 -0 12.5
2 18.000000000000028 310 270 1 0 0 0 -0 1 0 -1 -0 12.5
2 15.000000000000032 255 270 1 0 0 0 -0 1 0 -1 -0 7.9375
2 15.000000000000032 310 270 1 0 0 0 -0 1 0 -1 -0 7.9375
1 400.05000000000013 3.8890873012278462 4.4408920985006262e-16 0 0 1 
1 282.5 258.88908730122751 2.2204460492503131e-14 0 0 1 
1 282.5 313.88908730122751 2.2204460492503131e-14 0 0 1 
2 270 258.88908730122751 3.0000000000000329 1.1102230246251565e-16 0 -1 1 0 1.1102230246251565e-16 0 -1 0 7.9375
1 277.9375 258.88908730122751 7.6975463040677515e-15 0 0 1 
2 270 313.88908730122751 3.0000000000000329 1.1102230246251565e-16 0 -1 1 0 1.1102230246251565e-16 0 -1 0 7.9375
1 277.9375 313.88908730122751 7.6975463040677515e-15 0 0 1 
Polygon3D 0
PolygonOnTriangulations 0
Surfaces 12
1 0 1311.9890873012275 4.4408920985006262e-16 0 1 0 1 0 0 0 0 -1 
1 0 3.8890873012275051 4.4408920985006262e-16 -1 0 0 0 1 0 0 0 -1 
1 596.89999999999998 1311.9890873012275 4.4408920985006262e-16 1 0 -0 0 -1 0 0 -0 -1 
1 257.97340023438585 692.96550766548819 4.4408920985006262e-16 0 0 1 1 0 -0 -0 1 0 
2 270 258.88908730122751 0 1.1102230246251565e-16 0 -1 1 0 1.1102230246251565e-16 0 -1 -0 12.5
2 270 313.88908730122751 0 1.1102230246251565e-16 0 -1 1 0 1.1102230246251565e-16 0 -1 -0 12.5
2 270 258.88908730122751 -1.7763568394002505e-15 1.1102230246251565e-16 0 -1 1 0 1.1102230246251565e-16 0 -1 -0 7.9375
2 270 313.88908730122751 -1.7763568394002505e-15 1.1102230246251565e-16 0 -1 1 0 1.1102230246251565e-16 0 -1 -0 7.9375
1 400.05000000000001 3.8890873012275051 4.4408920985006262e-16 0 -1 0 -1 0 0 -0 -0 -1 
1 596.90000000000009 1131.0140873012276 4.4408920985006262e-16 0.98508930685912921 -0.17204376626835494 0 -0.17204376626835494 -0.98508930685912921 0 0 -0 -1 
1 270 258.88908730122751 1.1842378929335004e-15 0 0 1 1 0 -0 -0 1 0 
1 270 313.88908730122751 1.1842378929335e-15 0 0 1 1 0 -0 -0 1 0 
Triangulations 0

TShapes 73
Ve
1e-07
0 1311.98908730123 4.44089209850063e-16
0 0

0101101
*
Ed
 1e-07 1 1 0
1  1 0 0 18
0

0101000
+73 0 -73 1 *
Ve
1e-07
596.9 1311.98908730123 4.44089209850063e-16
0 0

0101101
*
Ed
 1e-07 1 1 0
1  2 0 0 18
0

0101000
+71 0 -71 1 *
Ed
 1e-07 1 1 0
1  3 0 0 596.9
0

0101000
+73 0 -71 0 *
Wi

0101100
+72 0 -70 0 -69 0 +69 1 *
Fa
0  1e-07 1 0

0101000
+68 0 *
Ve
1e-07
0 3.88908730122751 4.44089209850063e-16
0 0

0101101
*
Ed
 1e-07 1 1 0
1  4 0 0 18
0

0101000
+66 0 -66 1 *
Ed
 1e-07 1 1 0
1  5 0 0 1308.1
0

0101000
+66 0 -73 0 *
Wi

0101100
+65 0 -72 0 -64 0 +64 1 *
Fa
0  1e-07 2 0

0101000
+63 0 *
Ve
1e-07
596.9 1131.01408730295 4.44089209850063e-16
0 0

0101101
*
Ed
 1e-07 1 1 0
1  6 0 0 18
0

0101000
+61 0 -61 1 *
Ed
 1e-07 1 1 0
1  7 0 0 180.974999998279
0

0101000
+71 0 -61 0 *
Wi

0101100
+70 0 -60 0 -59 0 +59 1 *
Fa
0  1e-07 3 0

0101000
+58 0 *
Ve
1e-07
400.05 3.88908730122785 4.44089209850063e-16
0 0

0101101
*
Ed
 1e-07 1 1 0
1  8 0 0 400.05
0

0101000
+56 0 -66 0 *
Ed
 1e-07 1 1 0
1  9 0 1.38806599421867e-13 1144.18560038352
0

0101000
+61 0 -56 0 *
Wi

0101100
-69 0 -64 0 -59 0 -55 0 -54 0 *
Ve
8.42596118381307e-05
282.5 258.889087301228 2.22044604925031e-14
0 0

0101101
*
Ed
 8.42596118288048e-05 1 1 0
1  10 0 0 6.28318530717959
2  1 5 9 0 6.28318530717959
2  2 5 11 0 6.28318530717959
0

0101000
+52 9 -52 9 *
Wi

0101100
+51 8 *
Ve
8.42596118381307e-05
282.5 313.889087301228 2.22044604925031e-14
0 0

0101101
*
Ed
 8.42596118288048e-05 1 1 0
1  11 0 0 6.28318530717959
2  3 6 16 0 6.28318530717959
2  4 6 18 0 6.28318530717959
0

0101000
+49 16 -49 16 *
Wi

0101100
+48 15 *
Fa
0  1e-07 4 0

0101000
+53 0 +50 0 +47 0 *
Wi

0101100
-69 1 -64 1 -59 1 -55 1 -54 1 *
Ve
8.42596118365588e-05
277.9375 258.889087301228 18
0 0

0101101
*
Ed
 8.42596118318218e-05 1 1 0
1  12 0 0 6.28318530717959
2  5 7 24 0 6.28318530717959
2  6 7 25 0 6.28318530717959
0

0101000
+44 25 -44 25 *
Wi

0101100
+43 23 *
Ve
8.42596118365588e-05
277.9375 313.889087301228 18
0 0

0101101
*
Ed
 8.42596118318218e-05 1 1 0
1  13 0 0 6.28318530717959
2  7 8 31 0 6.28318530717959
2  8 8 32 0 6.28318530717959
0

0101000
+41 32 -41 32 *
Wi

0101100
+40 30 *
Fa
0  1e-07 4 1

0101000
+45 0 +42 0 +39 0 *
Ed
 1e-07 1 1 0
1  14 0 0 18
0

0101000
+56 0 -56 1 *
Wi

0101100
+37 0 -65 0 -55 0 +55 1 *
Fa
0  1e-07 9 0

0101000
+36 0 *
Wi

0101100
+60 0 -37 0 -54 0 +54 1 *
Fa
0  1e-07 10 0

0101000
+34 0 *
Ve
8.42596118381307e-05
282.5 258.889087301228 2.22044604925031e-14
0 0

0101101
*
Ed
 8.42596118381307e-05 1 1 0
1  15 0 0 3.00000000000003
3  9 10CN 5 0 0 3.00000000000003
0

0101000
+52 0 -32 10 *
Ed
 8.42596118288048e-05 1 1 0
1  10 0 0 6.28318530717959
2  1 5 9 0 6.28318530717959
2  2 5 11 0 6.28318530717959
0

0101000
+32 9 -32 9 *
Wi

0101100
+31 0 -31 0 -51 8 +30 33 *
Fa
0  8.42596118288048e-05 5 0

0101000
+29 0 *
Ve
8.42596118381307e-05
282.5 313.889087301228 2.22044604925031e-14
0 0

0101101
*
Ed
 8.42596118381307e-05 1 1 0
1  16 0 0 3.00000000000003
3  11 12CN 6 0 0 3.00000000000003
0

0101000
+49 0 -27 17 *
Ed
 8.42596118288048e-05 1 1 0
1  11 0 0 6.28318530717959
2  3 6 16 0 6.28318530717959
2  4 6 18 0 6.28318530717959
0

0101000
+27 16 -27 16 *
Wi

0101100
+26 0 -26 0 -48 15 +25 34 *
Fa
0  8.42596118288048e-05 6 0

0101000
+24 0 *
Ve
8.42596118365588e-05
277.9375 258.889087301228 3.00000000000003
0 0

0101101
*
Ed
 8.42596118318218e-05 1 1 0
1  17 0 0 6.28318530717959
2  13 11 10 0 6.28318530717959
2  14 7 0 0 6.28318530717959
0

0101100
+22 0 -22 0 *
Ed
 8.42596118365588e-05 1 1 0
1  18 0 3.00000000000003 18
3  15 16CN 7 0 3.00000000000003 18
0

0101000
+22 0 -44 0 *
Wi

0101100
-21 0 -20 0 +43 23 +20 0 *
Fa
0  8.42596118318218e-05 7 0

0101000
+19 0 *
Ve
8.42596118365588e-05
277.9375 313.889087301228 3.00000000000003
0 0

0101101
*
Ed
 8.42596118318218e-05 1 1 0
1  19 0 0 6.28318530717959
2  17 12 17 0 6.28318530717959
2  18 8 0 0 6.28318530717959
0

0101100
+17 0 -17 0 *
Ed
 8.42596118365588e-05 1 1 0
1  20 0 3.00000000000003 18
3  19 20CN 8 0 3.00000000000003 18
0

0101000
+17 0 -41 0 *
Wi

0101100
-16 0 -15 0 +40 30 +15 0 *
Fa
0  8.42596118318218e-05 8 0

0101000
+14 0 *
Wi

0101100
-30 33 *
Wi

0101100
+21 0 *
Fa
0  1e-07 11 10

0101000
+12 0 +11 0 *
Wi

0101100
-25 34 *
Wi

0101100
+16 0 *
Fa
0  1e-07 12 17

0101000
+9 0 +8 0 *
Sh

0101100
+67 0 +62 0 +57 0 -46 0 +38 0 +35 0 +33 0 -28 0 -23 0 -18 0 
-13 0 -10 0 -7 0 *
So

0100000
+6 0 *
Co

0100000
+5 0 *
Co

0100000
+4 0 *
Co

0100000
+3 0 *
Co

1100000
+2 0 *

+1 0 