DBRep_DrawableShape

CASCADE Topology V1, (c) Matra-Datavision
Locations 84
1
              1               0               0               0 
              0               1               0               0 
              0               0               1               0 
1
1.11022302462516e-16               0              -1               0 
              0               1               0               0 
              1               0 1.11022302462516e-16               0 
1
              1               0               0           596.9 
              0               1               0 3.88908730122752 
              0               0               1            -582 
2  1 1 2 1 3 1 0
1
              1               0               0               0 
              0               1               0               0 
              0               0               1               0 
1
              1               0               0               0 
              0               1               0               0 
              0               0               1               0 
1
              1               0               0               0 
              0               1               0               0 
              0               0               1               0 
1
              1               0               0               0 
              0               1               0               0 
              0               0               1               0 
1
              1               0               0               0 
              0               1               0               0 
              0               0               1               0 
1
              1               0               0               0 
              0               1               0               0 
              0               0               1               0 
2  6 1 7 1 8 1 9 1 10 1 0
2  1 -1 5 -1 10 -1 9 -1 8 -1 7 -1 6 -1 0
2  1 -1 5 -1 0
1
              1               0               0              18 
              0               1               0               0 
              0               0               1               0 
2  14 1 6 1 7 1 8 1 9 1 10 1 0
2  14 -1 0
2  1 -1 5 -1 10 -1 9 -1 8 -1 7 -1 6 -1 14 -1 0
2  6 1 7 1 8 1 9 1 10 1 5 1 0
2  7 1 8 1 9 1 10 1 5 1 0
1
              1               0               0               0 
              0               1               0               0 
              0               0               1             -18 
2  20 -1 3 -1 2 -1 1 -1 5 -1 10 -1 9 -1 8 -1 7 -1 0
1
              1               0               0               0 
              0               1               0               0 
              0               0               1               1 
2  22 -1 20 -1 3 -1 2 -1 1 -1 5 -1 10 -1 9 -1 8 -1 7 -1 0
2  1 -1 5 -1 10 -1 9 -1 8 -1 7 -1 0
2  1 -1 0
2  7 1 8 1 9 1 10 1 0
1
              1               0               0               0 
              0               1               0               0 
              0               0               1              -4 
2  27 -1 3 -1 2 -1 1 -1 5 -1 0
1
              1               0               0               0 
              0               1               0               0 
              0               0               1               1 
2  29 -1 27 -1 3 -1 2 -1 1 -1 5 -1 0
2  14 1 6 1 0
1
              1               0               0               0 
              0               1               0               0 
              0               0               1              -0 
2  32 -1 3 -1 2 -1 1 -1 5 -1 10 -1 9 -1 8 -1 7 -1 0
1
              1               0               0               0 
              0               1               0               0 
              0               0               1               1 
2  34 -1 32 -1 3 -1 2 -1 1 -1 5 -1 10 -1 9 -1 8 -1 7 -1 0
2  10 -1 9 -1 8 -1 7 -1 6 -1 0
2  14 1 6 1 7 1 8 1 9 1 10 1 5 1 0
2  9 1 10 1 5 1 0
2  14 1 6 1 7 1 8 1 0
2  1 -1 5 -1 10 -1 9 -1 0
1
              1               0               0               0 
              0               1               0               0 
              0               0               1              -3 
2  41 -1 3 -1 2 -1 1 -1 0
1
              1               0               0               0 
              0               1               0               0 
              0               0               1               1 
2  43 -1 41 -1 3 -1 2 -1 1 -1 0
1
              1               0               0               0 
              0               1               0               0 
              0               0               1              -3 
2  45 -1 3 -1 2 -1 1 -1 0
1
              1               0               0               0 
              0               1               0               0 
              0               0               1               1 
2  47 -1 45 -1 3 -1 2 -1 1 -1 0
1
              1               0               0               0 
              0               1               0               0 
              0               0               1              -1 
2  49 -1 3 -1 2 -1 1 -1 5 -1 10 -1 9 -1 0
1
              1               0               0               0 
              0               1               0               0 
              0               0               1               1 
2  51 -1 49 -1 3 -1 2 -1 1 -1 5 -1 10 -1 9 -1 0
1
              1               0               0               0 
              0               1               0               0 
              0               0               1             -13 
2  53 -1 3 -1 2 -1 1 -1 5 -1 10 -1 9 -1 8 -1 7 -1 0
1
              1               0               0               0 
              0               1               0               0 
              0               0               1               1 
2  55 -1 53 -1 3 -1 2 -1 1 -1 5 -1 10 -1 9 -1 8 -1 7 -1 0
1
              1               0               0               0 
              0               1               0               0 
              0               0               1             -13 
2  57 -1 3 -1 2 -1 1 -1 5 -1 10 -1 9 -1 8 -1 7 -1 0
1
              1               0               0               0 
              0               1               0               0 
              0               0               1               1 
2  59 -1 57 -1 3 -1 2 -1 1 -1 5 -1 10 -1 9 -1 8 -1 7 -1 0
1
              1               0               0               0 
              0               1               0               0 
              0               0               1             -13 
2  61 -1 3 -1 2 -1 1 -1 5 -1 10 -1 9 -1 8 -1 7 -1 0
1
              1               0               0               0 
              0               1               0               0 
              0               0               1               1 
2  63 -1 61 -1 3 -1 2 -1 1 -1 5 -1 10 -1 9 -1 8 -1 7 -1 0
1
              1               0               0               0 
              0               1               0               0 
              0               0               1             -13 
2  65 -1 3 -1 2 -1 1 -1 5 -1 10 -1 9 -1 8 -1 7 -1 0
1
              1               0               0               0 
              0               1               0               0 
              0               0               1               1 
2  67 -1 65 -1 3 -1 2 -1 1 -1 5 -1 10 -1 9 -1 8 -1 7 -1 0
1
              1               0               0               0 
              0               1               0               0 
              0               0               1              -1 
2  69 -1 3 -1 2 -1 1 -1 5 -1 10 -1 9 -1 0
1
              1               0               0               0 
              0               1               0               0 
              0               0               1               1 
2  71 -1 69 -1 3 -1 2 -1 1 -1 5 -1 10 -1 9 -1 0
1
              1               0               0               0 
              0               1               0               0 
              0               0               1              -1 
2  73 -1 3 -1 2 -1 1 -1 5 -1 10 -1 9 -1 0
1
              1               0               0               0 
              0               1               0               0 
              0               0               1               1 
2  75 -1 73 -1 3 -1 2 -1 1 -1 5 -1 10 -1 9 -1 0
1
              1               0               0               0 
              0               1               0               0 
              0               0               1             -13 
2  77 -1 3 -1 2 -1 1 -1 5 -1 10 -1 9 -1 8 -1 7 -1 0
1
              1               0               0               0 
              0               1               0               0 
              0               0               1               1 
2  79 -1 77 -1 3 -1 2 -1 1 -1 5 -1 10 -1 9 -1 8 -1 7 -1 0
1
              1               0               0               0 
              0               1               0               0 
              0               0               1             -13 
2  81 -1 3 -1 2 -1 1 -1 5 -1 10 -1 9 -1 8 -1 7 -1 0
1
              1               0               0               0 
              0               1               0               0 
              0               0               1               1 
2  83 -1 81 -1 3 -1 2 -1 1 -1 5 -1 10 -1 9 -1 8 -1 7 -1 0
Curve2ds 324
1 0 0 1 0 
1 -257.98412378671179 689.09093437701847 0 -1 
1 1308.0999999999999 0 0 -1 
1 0 0 0 -1 
1 1290.0999999999999 -14 1 0 
1 -161.18553117841208 -549.65438756838728 0 -1 
1 1290.0999999999999 -14 0 -1 
1 0 -0 0 1 
1 0 -18 1 0 
1 -257.98412378671179 689.09093437701847 0 -1 
1 18 -14 0 -1 
1 0 -0 0 1 
1 0 -14 1 0 
1 -161.18553117841208 740.44561243161263 0 -1 
1 0 0 0 -1 
1 400.05000000000001 0 0 -1 
3 -161.98412378671179 689.09093437701847 0 -1 1 0 7.7781745930520225 5.5
7 0 0  8 30 5  0 4.5  0.19634954084936207 4.5  0.3926990816974012 4.742334267921251  0.58904862255030821 5.2270007451297715  0.78539816339161916 5.9340768718138861  0.98174770424930102 6.8236770633375272  1.1780972450948184 7.8401547942430625  1.3744467859455343 8.920077525328507  1.7180584824319181 10.809941856003615  1.8653206380690535 11.619883415588889  2.0125827937062155 12.403061666176654  2.1598449493433236 13.132706152780884  2.3071071049802612 13.783917204162947  2.4543692606170815 14.335497736493124  2.6016314162540466 14.771386099340463  2.9697868053466006 15.546264423019501  3.1906800388010197 15.727833439043025  3.4115732722566463 15.591479623566556  3.6324665057254606 15.132115552638425  3.8533597391615331 14.379598189108947  4.0742529726226167 13.39629945438719  4.2951462060797949 12.26456534661494  4.7369326729908598 9.8814281955624743  4.9578259064464874 8.6300238332496519  5.1787191398980212 7.4073871230866644  5.3996123733377317 6.308310308635555  5.6205056068174599 5.4201077384677774  5.8413988402662653 4.8067047440017632  6.0622920737240431 4.5000000000000009  6.2831853071795756 4.5 
 3.1415926535897931 9 4.7123889803846879 7 5.8904862254808563 7 7.6576320931251178 7 9.4247779607693793 9
1 0 0 1 0 
1 0 -1 1 0 
1 142.06587621328822 689.09093437701847 -1 -0 
1 0 0 1 0 
1 142.06587621328822 689.09093437701847 -1 -0 
1 0 0 1 0 
3 -103.98412378671179 689.09093437701847 0 -1 1 0 7.7781745930520225 5.5
7 0 0  8 30 5  0 4.5  0.19634954084936207 4.5  0.39269908169819701 4.742334267921251  0.58904862254894397 5.2270007451297715  0.78539816339161916 5.9340768718138861  0.98174770425021052 6.8236770633375272  1.1780972450959553 7.8401547942430625  1.3744467859455343 8.920077525328507  1.7180584824319181 10.809941856003615  1.8653206380687977 11.619883415588889  2.0125827937063718 12.403061666176654  2.1598449493434373 13.132706152780884  2.3071071049801617 13.783917204162947  2.4543692606171668 14.335497736493124  2.6016314162540466 14.771386099340463  2.9697868053466006 15.546264423019501  3.1906800388010197 15.727833439043025  3.4115732722548273 15.591479623566556  3.6324665057145467 15.132115552638425  3.85335973916699 14.379598189108947  4.0742529726212524 13.39629945438719  4.2951462060797949 12.26456534661494  4.7369326729908598 9.8814281955624743  4.9578259064473968 8.6300238332496519  5.1787191398907453 7.4073871230866644  5.3996123733522836 6.308310308635555  5.62050560679927 5.4201077384677774  5.8413988402708128 4.8067047440017632  6.0622920737240431 4.5000000000000009  6.2831853071795756 4.5 
 3.1415926535897931 9 4.7123889803846879 7 5.8904862254808563 7 7.6576320931251178 7 9.4247779607693793 9
1 0 0 1 0 
1 0 -1 1 0 
1 -257.98412378671179 -619.00906562298144 1 0 
1 0 0 1 0 
1 142.06587621328822 689.09093437701847 -1 -0 
1 0 0 1 0 
3 -193.98412378671179 -619.00906562298144 0 1 -1 0 7.7781745930519719 5.5
7 0 0  8 30 5  0 15.5  0.19634954084936207 15.5  0.39269908169762857 15.257665732073292  0.58904862254848922 14.772999254826573  0.78539816339616664 14.065923128160648  0.9817477042452083 13.176322936604265  1.1780972450957279 12.159845205751481  1.3744467859455138 11.079922474671605  1.7180584824318974 9.1900581439964952  1.8653206380684941 8.3801165844099454  2.0125827937066489 7.5969383338267278  2.1598449493428689 6.8672938472222995  2.3071071049791527 6.216082795837309  2.4543692606174208 5.6645022635074227  2.6016314162540382 5.2286139006596812  2.9697868053465921 4.453735576980641  3.1906800388010197 4.2721665609587944  3.4115732722548273 4.4085203763715981  3.6324665056963568 4.8678844473615754  3.85335973916699 5.6204018108437594  4.0742529726226167 6.6037005456237239  4.2951462060798171 7.7354346533851848  4.7369326729908821 10.11857180443765  4.9578259064437589 11.369976166730339  5.1787191398980212 12.592612876942439  5.3996123733522836 13.691689691317151  5.620505606810184 14.579892261543137  5.8413988402644463 15.193295255981866  6.0622920737240431 15.5  6.2831853071795756 15.5 
 0 9 1.5707963267948961 7 2.7488935718910681 7 4.5160394395353265 7 6.2831853071795862 9
1 0 0 1 0 
1 0 -1 1 0 
1 338.91587621328819 -438.03406562298153 -0.17204376626835494 0.98508930685912921 
1 0 0 1 0 
3 -193.98412378671179 -619.00906562298144 0 1 -1 0 7.7781745930519719 5.5
7 0 0  8 30 5  0 15.5  0.19634954084936207 15.5  0.39269908169762857 15.257665732073292  0.58904862254848922 14.772999254826573  0.78539816339616664 14.065923128160648  0.9817477042452083 13.176322936604265  1.1780972450957279 12.159845205751481  1.3744467859455138 11.079922474671605  1.7180584824318974 9.1900581439964952  1.8653206380684941 8.3801165844099454  2.0125827937066489 7.5969383338267278  2.1598449493428689 6.8672938472222995  2.3071071049791527 6.216082795837309  2.4543692606174208 5.6645022635074227  2.6016314162540382 5.2286139006596812  2.9697868053465921 4.453735576980641  3.1906800388010197 4.2721665609587944  3.4115732722548273 4.4085203763715981  3.6324665056963568 4.8678844473615754  3.85335973916699 5.6204018108437594  4.0742529726226167 6.6037005456237239  4.2951462060798171 7.7354346533851848  4.7369326729908821 10.11857180443765  4.9578259064437589 11.369976166730339  5.1787191398980212 12.592612876942439  5.3996123733522836 13.691689691317151  5.620505606810184 14.579892261543137  5.8413988402644463 15.193295255981866  6.0622920737240431 15.5  6.2831853071795756 15.5 
 0 9 1.5707963267948961 7 2.7488935718910681 7 4.5160394395353265 7 6.2831853071795862 9
1 0 0 1 0 
1 0 -1 1 0 
1 338.91587621328819 -619.00906562298144 0 1 
1 0 0 1 0 
1 -257.98412378671179 -619.00906562298144 1 0 
1 0 0 1 0 
1 -257.98412378671179 -619.00906562298144 1 0 
1 0 0 1 0 
3 -135.98412378671179 -619.00906562298144 0 1 -1 0 7.7781745930519719 5.5
7 0 0  8 30 5  0 15.5  0.19634954084936207 15.5  0.39269908169887913 15.257665732073292  0.58904862254803447 14.772999254826573  0.78539816339707613 14.065923128160648  0.98174770424566304 13.176322936604265  1.1780972450965237 12.159845205751481  1.3744467859455138 11.079922474671605  1.7180584824318974 9.1900581439964952  1.8653206380690484 8.3801165844099454  2.0125827937060734 7.5969383338267278  2.1598449493433236 6.8672938472222995  2.3071071049802327 6.216082795837309  2.4543692606167387 5.6645022635074227  2.6016314162540373 5.2286139006596812  2.9697868053465908 4.453735576980641  3.1906800388010197 4.2721665609587944  3.4115732722548273 4.4085203763715981  3.6324665056963568 4.8678844473615754  3.85335973916699 5.6204018108437594  4.0742529726226167 6.6037005456237239  4.2951462060798171 7.7354346533851848  4.7369326729908821 10.11857180443765  4.9578259064437589 11.369976166730339  5.1787191398980212 12.592612876942439  5.3996123733522836 13.691689691317151  5.620505606810184 14.579892261543137  5.8413988402644463 15.193295255981866  6.0622920737240431 15.5  6.2831853071795756 15.5 
 0 9 1.5707963267948954 7 2.7488935718910672 7 4.5160394395353265 7 6.2831853071795862 9
1 0 0 1 0 
1 0 -1 1 0 
3 -135.98412378671179 -619.00906562298144 0 1 -1 0 7.7781745930519719 5.5
7 0 0  8 30 5  0 15.5  0.19634954084936207 15.5  0.39269908169887913 15.257665732073292  0.58904862254803447 14.772999254826573  0.78539816339707613 14.065923128160648  0.98174770424566304 13.176322936604265  1.1780972450965237 12.159845205751481  1.3744467859455138 11.079922474671605  1.7180584824318974 9.1900581439964952  1.8653206380690484 8.3801165844099454  2.0125827937060734 7.5969383338267278  2.1598449493433236 6.8672938472222995  2.3071071049802327 6.216082795837309  2.4543692606167387 5.6645022635074227  2.6016314162540373 5.2286139006596812  2.9697868053465908 4.453735576980641  3.1906800388010197 4.2721665609587944  3.4115732722548273 4.4085203763715981  3.6324665056963568 4.8678844473615754  3.85335973916699 5.6204018108437594  4.0742529726226167 6.6037005456237239  4.2951462060798171 7.7354346533851848  4.7369326729908821 10.11857180443765  4.9578259064437589 11.369976166730339  5.1787191398980212 12.592612876942439  5.3996123733522836 13.691689691317151  5.620505606810184 14.579892261543137  5.8413988402644463 15.193295255981866  6.0622920737240431 15.5  6.2831853071795756 15.5 
 0 9 1.5707963267948954 7 2.7488935718910672 7 4.5160394395353265 7 6.2831853071795862 9
1 0 0 1 0 
1 0 -1 1 0 
2 12.015876213288209 379.09093437701847 1 0 -0 1 7.9375
1 0 1 1 0 
2 12.015876213288209 434.09093437701847 1 0 -0 1 7.9375
1 0 1 1 0 
3 64 -1.1368683772161603e-13 0 -1 1 0 7.7781745930519719 5.5
7 0 0  8 16 3  1.3372625992285925 8.7272077938620214  1.5628038560237418 9.9340115970271547  1.7883451128188881 11.214811221796481  2.0138863696101907 12.476052954421903  2.2394276264058135 13.616201535507571  2.4649688832014363 14.540763941113255  2.690510140000697 15.180251997151572  2.9160513967946438 15.500000000000114  3.3671339103849425 15.500000000000114  3.5926751671763668 15.180251997151572  3.8182164239788108 14.540763941171463  4.0437576807416917 13.616201535442087  4.2692989375755133 12.476052954523766  4.4948401943565841 11.214811221796481  4.720381451155844 9.9340115970271547  4.9459227079509933 8.7272077938620214 
 4.4788552528183905 9 6.2831853071795862 7 8.0875153615407811 9
3 122 -1.1368683772161603e-13 0 -1 1 0 7.7781745930519719 5.5
7 0 0  8 16 3  1.3372625992285925 8.7272077938620214  1.5628038560237418 9.9340115970271547  1.7883451128184333 11.214811221796481  2.0138863696056433 12.476052954421903  2.2394276264149084 13.616201535507571  2.4649688831959793 14.540763941113255  2.6905101399993328 15.180251997151572  2.9160513967946438 15.500000000000114  3.3671339103849425 15.500000000000114  3.5926751671763668 15.180251997151572  3.8182164239788108 14.540763941171463  4.0437576807416917 13.616201535442087  4.2692989375755133 12.476052954523766  4.4948401943565841 11.214811221796481  4.720381451155844 9.9340115970271547  4.9459227079509933 8.7272077938620214 
 4.4788552528183905 9 6.2831853071795862 7 8.0875153615407811 9
1 596.89999999999998 0 0 -1 
1 0 0 0 -1 
1 0 -14 1 0 
1 -161.18553117841208 -567.65438756838728 1 0 
1 -161.18553117841208 -549.65438756838728 1 0 
1 0 -0 1 0 
1 435.7144688215879 -386.67938756838737 0 -1 
1 180.97499999999991 -14 -1 0 
1 417.7144688215879 -386.67938756838737 1 0 
1 0 -0 1 0 
1 417.7144688215879 -386.67938756838737 0 -1 
1 0 0 0 1 
1 -161.18553117841208 -549.65438756838728 1 0 
1 0 -0 1 0 
3 -39.185531178412077 -553.65438756838728 0 1 -1 0 7.7781745930519719 5.5
7 0 0  8 23 4  1.030652349118671 32.62741699796959  1.1625861181481147 32.00508665411715  1.2945198871774604 31.326489930143531  1.4264536562073289 30.608133760460305  1.5583874252366741 29.86861392488936  1.6903211942658274 29.127697762877915  1.8222549632953928 28.405205335128542  1.9541887323247886 27.71988596315262  2.284023154898398 26.141388748410488  2.4819238084423887 25.315611383244686  2.6798244619858451 24.667678423473262  2.8777251155188424 24.243970640090993  3.0756257690700295 24.073669613164384  3.2735264226180334 24.163708895241143  3.4714270761634025 24.499144567424061  3.8672283832517338 25.595386817735765  4.0651290367909496 26.356193671541405  4.2630296903571434 27.296971475385362  4.4609303438774077 28.367252113239374  4.6588309974504227 29.502845219903975  4.8567316509670491 30.633826276131003  5.0546323045167494 31.693921482190923  5.2525329580609155 32.62741699796959 
 1.0306523491186923 9 2.086122501354251 7 3.6693277297075721 7 5.2525329580608942 9
1 0 0 1 0 
1 0 -1 1 0 
1 -161.18553117841208 -549.65438756838728 1 0 
1 0 -0 1 0 
3 -97.185531178412077 -553.65438756838728 0 1 -1 0 7.7781745930519719 5.5
7 0 0  8 23 4  1.030652349118671 32.62741699796959  1.1625861181481147 32.00508665411715  1.2945198871778441 31.326489930143531  1.4264536562070944 30.608133760460305  1.5583874252369014 29.86861392488936  1.6903211942664313 29.127697762877915  1.8222549632951797 28.405205335128542  1.9541887323247888 27.71988596315262  2.2840231548983985 26.141388748410488  2.481923808438296 25.315611383244686  2.6798244619931211 24.667678423473262  2.8777251155242993 24.243970640090993  3.0756257690827624 24.073669613164384  3.2735264226162144 24.163708895241143  3.4714270761634025 24.499144567424061  3.8672283832517338 25.595386817735765  4.0651290367909496 26.356193671541405  4.2630296903571434 27.296971475385362  4.4609303438774077 28.367252113239374  4.6588309974504227 29.502845219903975  4.8567316509670491 30.633826276131003  5.0546323045167494 31.693921482190923  5.2525329580609155 32.62741699796959 
 1.0306523491186923 9 2.086122501354251 7 3.6693277297075721 7 5.2525329580608942 9
1 0 0 1 0 
1 0 -1 1 0 
1 -161.18553117841208 -549.65438756838728 1 0 
1 0 -0 1 0 
1 -125.18553117841208 722.44561243161263 0 -1 
1 0 0 0 1 
1 -161.18553117841208 722.44561243161263 1 0 
1 0 -0 1 0 
3 -65.185531178412077 726.44561243161263 0 -1 1 0 7.7781745930520216 5.5
7 0 0  7 14 3  0 24.298989873223331  0.1507814503193643 24.298989873223331  0.30156290063870017 24.444873364136583  0.45234435095841263 24.736638041802507  0.60312580127725823 25.166167235609464  0.75390725159687122 25.717183864155231  0.90468870191618511 26.366888350516504  1.2062516025549139 27.810085803995023  1.3570330528742716 28.603578512161221  1.5078145031930035 29.442169313333579  1.6585959535136681 30.295058536437864  1.8093774038322863 31.129925800443743  1.9601588541517365 31.916182319281013  2.110940304471101 32.627416997969519 
 3.1415926535897931 8 4.1970628058253432 6 5.2525329580608942 8
1 0 0 1 0 
1 0 -1 1 0 
3 -65.185531178412077 726.44561243161263 0 -1 1 0 7.7781745930520216 5.5
7 0 0  7 14 3  4.1722450027084852 32.627416997969519  4.3230264530278495 31.916182319281013  4.4738079033474136 31.129925800436467  4.6245893536663729 30.295058536459692  4.7753708039863554 29.442169313322665  4.9261522543050873 28.603578512165768  5.0769337046246701 27.81008580399503  5.3784966052633987 26.366888350516511  5.5292780555828003 25.71718386415796  5.6800595059019869 25.16616723559855  5.8308409562215715 24.736638041817059  5.9816224065407866 24.444873364125669  6.1324038568602219 24.298989873223331  6.2831853071795862 24.298989873223331 
 1.0306523491186923 8 2.086122501354243 6 3.1415926535897931 8
1 0 0 1 0 
1 0 -1 1 0 
1 -161.18553117841208 722.44561243161263 1 0 
1 0 -0 1 0 
3 -7.1855311784120772 726.44561243161263 0 -1 1 0 7.7781745930520216 5.5
7 0 0  7 14 3  0 24.298989873223331  0.1507814503193643 24.298989873223331  0.3015629006388707 24.444873364136583  0.4523443509578442 24.736638041802507  0.60312580127788351 25.166167235609464  0.75390725159675753 25.717183864155231  0.90468870191618511 26.366888350516504  1.2062516025549139 27.810085803995023  1.3570330528742147 28.603578512161221  1.5078145031934582 29.442169313333579  1.6585959535132133 30.295058536437864  1.8093774038324568 31.129925800443743  1.9601588541517365 31.916182319281013  2.110940304471101 32.627416997969519 
 3.1415926535897931 8 4.1970628058253432 6 5.2525329580608942 8
1 0 0 1 0 
1 0 -1 1 0 
3 -7.1855311784120772 726.44561243161263 0 -1 1 0 7.7781745930520216 5.5
7 0 0  7 14 3  4.1722450027084852 32.627416997969519  4.3230264530278495 31.916182319281013  4.4738079033471294 31.129925800436467  4.6245893536661455 30.295058536459692  4.7753708039856733 29.442169313322665  4.9261522543052578 28.603578512165768  5.0769337046246719 27.81008580399503  5.3784966052634005 26.366888350516511  5.5292780555826582 25.71718386415796  5.6800595059022712 25.16616723559855  5.8308409562210599 24.736638041817059  5.9816224065409287 24.444873364125669  6.1324038568602219 24.298989873223331  6.2831853071795862 24.298989873223331 
 1.0306523491186923 8 2.086122501354243 6 3.1415926535897931 8
1 0 0 1 0 
1 0 -1 1 0 
1 -161.18553117841208 722.44561243161263 1 0 
1 0 -0 1 0 
1 238.86446882158793 740.44561243161263 0 -1 
1 0 0 0 1 
1 -161.18553117841208 740.44561243161263 1 0 
1 400.05000000000001 -14 -1 0 
1 -161.18553117841208 722.44561243161263 1 0 
1 0 -0 1 0 
1 -143.18553117841208 722.44561243161263 0 -1 
1 0 0 0 1 
1 0 4 1 0 
1 -257.98412378671179 -601.00906562298144 1 0 
1 18 -0 0 1 
1 0 1272.0999999999999 1 0 
1 -257.98412378671179 671.09093437701847 1 0 
1 0 4 1 0 
1 -239.98412378671179 671.09093437701847 0 -1 
1 4 0 0 1 
1 18 -0 0 1 
1 0 0 1 0 
3 246.05000000000001 0 -0 -1 1 -0 7.7781745930519719 5.5
7 0 0  8 9 2  4.4788552528189136 8.7272077938646202  4.7043965096139981 9.9340115970295528  4.9299377664094877 11.214811221796481  5.1554790232042009 12.476052954465558  5.381020279995731 13.616201535405708  5.606561536792718 14.540763941113255  5.8321027935899323 15.180251997151572  6.0576440503845017 15.5  6.2831853071795862 15.5 
 4.4788552528189136 9 6.2831853071795862 9
3 246.05000000000001 0 -0 -1 1 -0 7.7781745930519719 5.5
7 0 0  8 9 2  0 15.5  0.22554125679508411 15.5  0.45108251358954021 15.180251997160667  0.67662377038459454 14.540763941091427  0.90216502717612457 13.616201535442087  1.1277062839758401 12.47605295444373  1.3532475407698712 11.2148112217983  1.5787887975655888 9.9340115970295528  1.8043300543606728 8.7272077938646202 
 0 9 1.8043300543606728 9
3 304.05000000000001 0 -0 -1 1 -0 7.7781745930519719 5.5
7 0 0  8 9 2  4.4788552528189118 8.7272077938646095  4.7043965096139964 9.9340115970295439  4.9299377664096014 11.214811221794662  5.1554790232037462 12.47605295444373  5.3810202800043712 13.616201535391156  5.6065615367940822 14.540763941120531  5.8321027935899323 15.180251997142477  6.0576440503845017 15.5  6.2831853071795862 15.5 
 4.4788552528189118 9 6.2831853071795862 9
3 304.05000000000001 0 -0 -1 1 -0 7.7781745930519719 5.5
7 0 0  8 9 2  0 15.5  0.22554125679508424 15.5  0.45108251358988127 15.180251997144296  0.67662377038686827 14.540763941156911  0.90216502717703406 13.616201535369328  1.1277062839762948 12.47605295448011  1.3532475407698712 11.214811221781929  1.5787887975655894 9.9340115970295493  1.8043300543606737 8.7272077938646149 
 0 9 1.804330054360674 9
1 0 0 0 -1 
1 1144.1856003835217 0 0 -1 
7 0 0  8 30 5  0 29.955844122715714  0.19634954084936207 29.955844122715714  0.3926990816974012 30.198178390597604  0.58904862254667023 30.682844867769745  0.78539816339616664 31.389920994464774  0.98174770424611779 32.279521185992053  1.1780972450951595 33.295998916928511  1.3744467859455345 34.375921648044226  1.7180584824319183 36.265785978719329  1.8653206380690537 37.075727538303731  2.0125827937062155 37.858905788907123  2.1598449493433236 38.588550275502712  2.3071071049802612 39.239761326872895  2.4543692606170815 39.791341859212395  2.6016314162540466 40.227230222056164  2.9697868053466006 41.002108545735211  3.1906800388010197 41.183677561741206  3.4115732722548273 41.047323746272014  3.6324665057145467 40.587959675234742  3.85335973916699 39.83544231185806  4.0742529726212524 38.85214357705263  4.2951462060797949 37.720409469330654  4.7369326729908598 35.337272318278188  4.9578259064464874 34.085867955946014  5.1787191398980212 32.863231245864881  5.3996123733522836 31.764154431351926  5.6205056068174599 30.875951861220528  5.8413988402699033 30.262548866703582  6.0622920737240431 29.955844122715714  6.2831853071795756 29.955844122715714 
 3.1415926535897931 9 4.7123889803847163 7 5.890486225480899 7 7.6576320931251391 7 9.4247779607693793 9
3 -161.98412378671179 671.09093437701847 0 -1 1 0 7.7781745930520216 5.5
1 0 0 1 0 
1 0 -1 1 0 
7 0 0  5 6 2  4.1722450027084843 32.627416997969519  4.2802737982437256 33.136987807368648  4.3883025937789739 33.6878178529509  4.4963313893142072 34.267526389421448  4.6043601848494484 34.861685747271892  4.7123889803846897 35.455844122715718 
 4.1722450027084852 6 4.7123889803846897 6
3 96 4 0 1 -1 0 7.7781745930519719 5.5
1 6.2831853071795862 -0 0 1 
1 0 -0 0 1 
7 0 0  5 6 2  1.5707963267948966 35.455844122715718  1.6788251223301374 34.861685747271892  1.7868539178653755 34.267526389421391  1.8948827134006265 33.687817852950957  2.0029115089358602 33.136987807368648  2.110940304471101 32.627416997969519 
 1.5707963267948966 6 2.110940304471101 6
3 96 4 0 1 -1 0 7.7781745930519719 5.5
7 0 0  8 30 5  0 29.955844122715714  0.19634954084936207 29.955844122715714  0.39269908169967493 30.198178390597604  0.58904862254621548 30.682844867769745  0.78539816339889512 31.389920994464774  0.98174770424247981 32.279521185992053  1.17809724509641 33.295998916928511  1.3744467859455345 34.375921648044226  1.7180584824319183 36.265785978719329  1.8653206380687126 37.075727538303731  2.0125827937057608 37.858905788907123  2.1598449493428689 38.588550275502712  2.3071071049800622 39.239761326872895  2.454369260617252 39.791341859212395  2.6016314162540466 40.227230222056164  2.9697868053466006 41.002108545735211  3.1906800388010197 41.183677561741206  3.4115732722548273 41.047323746272014  3.6324665056999947 40.587959675234742  3.853359739174266 39.83544231185806  4.0742529726194334 38.85214357705263  4.2951462060797949 37.720409469330654  4.7369326729908598 35.337272318278188  4.9578259064437589 34.085867955946014  5.1787191399052972 32.863231245864881  5.3996123733231798 31.764154431351926  5.6205056068283739 30.875951861220528  5.8413988402635368 30.262548866703582  6.0622920737240431 29.955844122715714  6.2831853071795756 29.955844122715714 
 3.1415926535897931 9 4.7123889803847163 7 5.890486225480899 7 7.6576320931251391 7 9.4247779607693793 9
3 -103.98412378671179 671.09093437701847 0 -1 1 0 7.7781745930520216 5.5
1 0 0 1 0 
1 0 -1 1 0 
7 0 0  5 6 2  4.1722450027084843 32.627416997969519  4.2802737982437256 33.136987807368648  4.3883025937789739 33.6878178529509  4.4963313893142072 34.267526389421448  4.6043601848494484 34.861685747271892  4.7123889803846897 35.455844122715718 
 4.1722450027084852 6 4.7123889803846897 6
3 154 4 0 1 -1 0 7.7781745930519719 5.5
1 6.2831853071795862 -0 0 1 
1 0 -0 0 1 
7 0 0  5 6 2  1.5707963267948966 35.455844122715718  1.6788251223301374 34.861685747271892  1.7868539178653755 34.267526389421391  1.8948827134006265 33.687817852950957  2.0029115089358602 33.136987807368648  2.110940304471101 32.627416997969519 
 1.5707963267948966 6 2.110940304471101 6
3 154 4 0 1 -1 0 7.7781745930519719 5.5
1 6.2831853071795862 -0 0 1 
1 0 -0 0 1 
7 0 0  8 30 5  0 40.955844122715689  0.19634954084936207 40.955844122715689  0.39269908169796963 40.71350985475874  0.58904862254894397 40.228843377597514  0.78539816339525714 39.521767250815174  0.98174770424611779 38.632167059433414  1.1780972450956142 37.615689328420558  1.3744467859455138 36.535766597387294  1.7180584824318974 34.645902266712191  1.8653206380691763 33.835960707121203  2.0125827937052847 33.052782456544605  2.1598449493427552 32.323137969939125  2.3071071049803322 31.671926918550525  2.4543692606166534 31.120346386224135  2.6016314162540382 30.68445802337537  2.9697868053465921 29.90957969969633  3.1906800388023839 29.728010683626053  3.4115732722584653 29.864364499066141  3.6324665056999947 30.323728570016101  3.853359739176085 31.07624593359651  4.0742529726226167 32.059544668289163  4.2951462060798171 33.191278776100873  4.7369326729908821 35.574415927153339  4.9578259064446684 36.825820289450348  5.1787191399089352 38.048456999531481  5.3996123733704735 39.147533813986229  5.620505606806546 40.035736384132179  5.8413988402689938 40.649139378685504  6.0622920737240431 40.955844122715689  6.2831853071795756 40.955844122715689 
 0 9 1.5707963267949068 7 2.7488935718910765 7 4.5160394395353318 7 6.2831853071795862 9
3 -193.98412378671179 -601.00906562298144 0 1 -1 0 7.7781745930519719 5.5
1 0 0 1 0 
1 0 -1 1 0 
7 0 0  5 6 2  1.5707963267948759 35.455844122715803  1.4627675312596335 34.86168574727197  1.3547387357244087 34.267526389421676  1.2467099401891648 33.687817852951014  1.1386811446539113 33.136987807368726  1.030652349118669 32.62741699796959 
 1.5707963267948966 6 2.1109403044711081 6
3 64 4 0 1 -1 0 7.7781745930519719 5.5
7 0 0  5 6 2  5.2525329580609164 32.62741699796959  5.1445041625256742 33.136987807368726  5.0364753669904303 33.687817852951014  4.9284465714551899 34.267526389421676  4.8204177759199522 34.86168574727197  4.7123889803847101 35.455844122715803 
 4.1722450027084781 6 4.7123889803846897 6
3 64 4 0 1 -1 0 7.7781745930519719 5.5
7 0 0  8 30 5  0 40.955844122715689  0.19634954084936207 40.955844122715689  0.39269908169796963 40.71350985475874  0.58904862254894397 40.228843377597514  0.78539816339525714 39.521767250815174  0.98174770424611779 38.632167059433414  1.1780972450956142 37.615689328420558  1.3744467859455138 36.535766597387294  1.7180584824318974 34.645902266712191  1.8653206380691763 33.835960707121203  2.0125827937052847 33.052782456544605  2.1598449493427552 32.323137969939125  2.3071071049803322 31.671926918550525  2.4543692606166534 31.120346386224135  2.6016314162540382 30.68445802337537  2.9697868053465921 29.90957969969633  3.1906800388023839 29.728010683626053  3.4115732722584653 29.864364499066141  3.6324665056999947 30.323728570016101  3.853359739176085 31.07624593359651  4.0742529726226167 32.059544668289163  4.2951462060798171 33.191278776100873  4.7369326729908821 35.574415927153339  4.9578259064446684 36.825820289450348  5.1787191399089352 38.048456999531481  5.3996123733704735 39.147533813986229  5.620505606806546 40.035736384132179  5.8413988402689938 40.649139378685504  6.0622920737240431 40.955844122715689  6.2831853071795756 40.955844122715689 
 0 9 1.5707963267949068 7 2.7488935718910765 7 4.5160394395353318 7 6.2831853071795862 9
3 -193.98412378671179 -601.00906562298144 0 1 -1 0 7.7781745930519719 5.5
1 0 0 1 0 
1 0 -1 1 0 
1 0 0 0 -1 
1 180.97499999999991 0 0 -1 
1 0 0 0 -1 
1 18 -14 0 1 
1 1144.1856003835217 0 0 -1 
1 -14 0 1 0 
1 -0 -18 1 0 
1 338.91587621328819 -438.03406562298153 -0.17204376626835494 0.98508930685912921 
1 6.2831853071795862 -0 0 1 
1 0 -0 0 1 
7 0 0  8 30 5  0 40.955844122715689  0.19634954084936207 40.955844122715689  0.39269908169865175 40.71350985475874  0.58904862254621548 40.228843377597514  0.78539816339798563 39.521767250815174  0.9817477042452083 38.632167059433414  1.1780972450962963 37.615689328420558  1.3744467859455138 36.535766597387294  1.7180584824318974 34.645902266712191  1.8653206380690057 33.835960707121203  2.0125827937057679 33.052782456544605  2.1598449493432099 32.323137969939125  2.3071071049803749 31.671926918550525  2.4543692606167387 31.120346386224135  2.6016314162540373 30.68445802337537  2.9697868053465908 29.90957969969633  3.1906800388042029 29.728010683626053  3.4115732722584653 29.864364499066141  3.6324665057072707 30.323728570016101  3.853359739176085 31.07624593359651  4.0742529726226167 32.059544668289163  4.2951462060798171 33.191278776100873  4.7369326729908821 35.574415927153339  4.9578259064446684 36.825820289450348  5.1787191399089352 38.048456999531481  5.3996123733704735 39.147533813986229  5.620505606806546 40.035736384132179  5.8413988402689938 40.649139378685504  6.0622920737240431 40.955844122715689  6.2831853071795756 40.955844122715689 
 0 9 1.5707963267949059 7 2.7488935718910752 7 4.51603943953533 7 6.2831853071795862 9
3 -135.98412378671179 -601.00906562298144 0 1 -1 0 7.7781745930519719 5.5
1 0 0 1 0 
1 0 -1 1 0 
7 0 0  5 6 2  1.5707963267948759 35.455844122715803  1.4627675312596335 34.86168574727197  1.3547387357244087 34.267526389421676  1.2467099401891613 33.687817852951014  1.138681144653912 33.136987807368726  1.0306523491186697 32.62741699796959 
 1.5707963267948966 6 2.1109403044711081 6
3 122 4 0 1 -1 0 7.7781745930519719 5.5
7 0 0  5 6 2  5.2525329580609164 32.62741699796959  5.1445041625256742 33.136987807368726  5.0364753669904303 33.687817852951014  4.9284465714551899 34.267526389421676  4.8204177759199522 34.86168574727197  4.7123889803847101 35.455844122715803 
 4.1722450027084781 6 4.7123889803846897 6
3 122 4 0 1 -1 0 7.7781745930519719 5.5
7 0 0  8 30 5  0 40.955844122715689  0.19634954084936207 40.955844122715689  0.39269908169865175 40.71350985475874  0.58904862254621548 40.228843377597514  0.78539816339798563 39.521767250815174  0.9817477042452083 38.632167059433414  1.1780972450962963 37.615689328420558  1.3744467859455138 36.535766597387294  1.7180584824318974 34.645902266712191  1.8653206380690057 33.835960707121203  2.0125827937057679 33.052782456544605  2.1598449493432099 32.323137969939125  2.3071071049803749 31.671926918550525  2.4543692606167387 31.120346386224135  2.6016314162540373 30.68445802337537  2.9697868053465908 29.90957969969633  3.1906800388042029 29.728010683626053  3.4115732722584653 29.864364499066141  3.6324665057072707 30.323728570016101  3.853359739176085 31.07624593359651  4.0742529726226167 32.059544668289163  4.2951462060798171 33.191278776100873  4.7369326729908821 35.574415927153339  4.9578259064446684 36.825820289450348  5.1787191399089352 38.048456999531481  5.3996123733704735 39.147533813986229  5.620505606806546 40.035736384132179  5.8413988402689938 40.649139378685504  6.0622920737240431 40.955844122715689  6.2831853071795756 40.955844122715689 
 0 9 1.5707963267949059 7 2.7488935718910752 7 4.51603943953533 7 6.2831853071795862 9
3 -135.98412378671179 -601.00906562298144 0 1 -1 0 7.7781745930519719 5.5
1 0 0 1 0 
1 0 -1 1 0 
1 0 16 1 0 
2 0 0 1 0 -0 1 7.9375
1 6.2831853071795862 -0 0 1 
1 0 -0 0 1 
1 0 16 1 0 
2 0 0 1 0 -0 1 7.9375
1 6.2831853071795862 -0 0 1 
1 0 -0 0 1 
1 0 -0 0 1 
1 0 0 1 0 
1 0 4 1 0 
1 320.91587621328819 -438.03406562298153 1 0 
1 0 162.97499999999991 1 0 
1 578.89999999999998 -0 0 1 
1 4 0 0 1 
1 320.91587621328819 -438.03406562298153 0 -1 
1 0 4 1 0 
1 -257.98412378671179 -601.00906562298144 1 0 
1 0 4 1 0 
1 -257.98412378671179 -601.00906562298144 1 0 
1 36 -0 0 1 
1 0 1272.0999999999999 1 0 
1 0 4 1 0 
1 -257.98412378671179 -601.00906562298144 1 0 
1 4 0 0 1 
1 -221.98412378671179 671.09093437701847 0 -1 
1 0 0 1 0 
1 36 -0 0 1 
1 0 4 1 0 
1 -257.98412378671179 671.09093437701847 1 0 
1 0 4 1 0 
1 -257.98412378671179 671.09093437701847 1 0 
1 0 4 1 0 
1 -257.98412378671179 671.09093437701847 1 0 
1 400.05000000000001 -0 0 1 
1 0 18 1 0 
1 4 0 0 1 
1 142.06587621328822 689.09093437701847 0 -1 
2 -65.984123786711791 -347.90906562298153 1 0 -0 1 1.5
1 0 1 1 0 
2 -26.984123786711791 -300.90906562298153 -1 -0 -0 1 1.25
1 0 1 1 0 
2 -26.984123786711791 -230.90906562298153 -1 -0 -0 1 1.25
1 0 1 1 0 
2 -86.984123786711791 -0.90906562298152949 -1 -0 -0 1 1.25
1 0 1 1 0 
2 -86.984123786711791 69.090934377018471 -1 -0 -0 1 1.25
1 0 1 1 0 
2 62.126041270741496 -353.40906562298153 1 0 -0 1 1.5
1 0 1 1 0 
2 190.23620632819473 -366.15968547016143 1 0 -0 1 1.5
1 0 1 1 0 
2 -106.98412378671179 444.09093437701847 -1 -0 -0 1 1.25
1 0 1 1 0 
2 -106.98412378671179 514.09093437701847 -1 -0 -0 1 1.25
1 0 1 1 0 
2 12.015876213288209 379.09093437701847 1 0 -0 1 12.5
1 0 3 1 0 
2 12.015876213288209 434.09093437701847 1 0 -0 1 12.5
1 0 3 1 0 
2 0 0 1 0 -0 1 12.5
1 0 0 1 0 
1 0 0 1 0 
1 0 -1 1 0 
2 0 0 1 0 -0 1 12.5
1 0 0 1 0 
1 0 0 1 0 
1 0 -1 1 0 
1 6.2831853071795862 -0 0 1 
1 0 -0 0 1 
1 0 0 1 0 
2 0 0 1 0 -0 1 1.5
1 0 0 1 0 
1 0 -1 1 0 
1 6.2831853071795862 -0 0 1 
1 0 -0 0 1 
1 0 14 1 0 
2 -0 0 1 -0 0 1 1.25
1 0 0 1 0 
1 0 -1 1 0 
1 6.2831853071795862 -0 0 1 
1 0 -0 0 1 
1 0 14 1 0 
2 -0 0 1 -0 0 1 1.25
1 0 0 1 0 
1 0 -1 1 0 
1 6.2831853071795862 -0 0 1 
1 0 -0 0 1 
1 0 14 1 0 
2 -0 0 1 -0 0 1 1.25
1 0 0 1 0 
1 0 -1 1 0 
1 6.2831853071795862 -0 0 1 
1 0 -0 0 1 
1 0 14 1 0 
2 -0 0 1 -0 0 1 1.25
1 0 0 1 0 
1 0 -1 1 0 
1 6.2831853071795862 -0 0 1 
1 0 -0 0 1 
1 0 0 1 0 
2 0 0 1 0 -0 1 1.5
1 0 0 1 0 
1 0 -1 1 0 
1 6.2831853071795862 -0 0 1 
1 0 -0 0 1 
1 0 0 1 0 
2 0 0 1 0 -0 1 1.5
1 0 0 1 0 
1 0 -1 1 0 
1 6.2831853071795862 -0 0 1 
1 0 -0 0 1 
1 0 14 1 0 
2 -0 0 1 -0 0 1 1.25
1 0 0 1 0 
1 0 -1 1 0 
1 6.2831853071795862 -0 0 1 
1 0 -0 0 1 
1 0 14 1 0 
2 -0 0 1 -0 0 1 1.25
1 0 0 1 0 
1 0 -1 1 0 
1 6.2831853071795862 -0 0 1 
1 0 -0 0 1 
1 6.2831853071795862 -0 0 1 
1 0 -0 0 1 
Curves 133
1 600 0 0 -0 1 -0 
1 600 1308.0999999999999 0 -1 -0 -0 
1 586 1290.0999999999999 0 -0 1 -0 
1 586 1290.0999999999999 0 -1 -0 -0 
1 564 0 0 -0 1 -0 
1 586 18 0 -1 -0 -0 
1 586 0 0 -0 1 -0 
1 600 0 0 -1 -0 -0 
3 600 0 96 1 0 0 -0 1 0 0 -0 1 7.7781745930520225 5.5
1 600 0 400.05000000000001 -0 -0 -1 
1 600 0 400.05000000000001 -0 -0 -1 
3 600 0 154 1 0 0 -0 1 0 0 -0 1 7.7781745930520225 5.5
1 600 1308.0999999999999 0 -0 -0 1 
1 600 0 400.05000000000001 -0 -0 -1 
3 600 1308.0999999999999 64 1 0 0 0 -1 0 0 0 -1 7.7781745930520225 5.5
1 600 1127.125 596.89999999999998 -0 -0.98508930685912921 -0.17204376626835494 
3 600 1308.0999999999999 64 1 0 0 0 -1 0 0 0 -1 7.7781745930520225 5.5
1 600 1308.0999999999999 596.89999999999998 -0 -1 -0 
1 600 1308.0999999999999 0 -0 -0 1 
1 600 1308.0999999999999 0 -0 -0 1 
3 600 1308.0999999999999 122 1 0 0 0 -1 0 0 0 -1 7.7781745930520225 5.5
3 600 1308.0999999999999 122 1 0 0 0 -1 0 0 0 -1 7.7781745930520225 5.5
2 600 310 270 1 -0 -0 0 -0 1 -0 -1 0 7.9375
2 600 255 270 1 -0 -0 0 -0 1 -0 -1 0 7.9375
3 599.99999999999989 1308.0999999999999 64 -0 1 0 -1 0 -0 -0 -0 1 7.7781745930520225 5.5
3 599.99999999999989 1308.0999999999999 122 -0 1 0 -1 0 -0 -0 -0 1 7.7781745930520225 5.5
1 600 1308.0999999999999 596.89999999999998 -1 -0 -0 
1 586 1308.0999999999999 0 -0 -0 1 
1 586 1290.0999999999999 0 -0 -0 1 
1 586 1127.125 596.89999999999998 -0 1 -0 
1 586 1127.125 578.89999999999998 -0 -0 1 
1 586 1127.125 578.89999999999998 -0 1 -0 
1 586 1290.0999999999999 0 -0 -0 1 
3 586 1294.0999999999999 122 1 0 0 0 -1 0 0 0 -1 7.7781745930520225 5.5
1 586 1290.0999999999999 0 -0 -0 1 
3 586 1294.0999999999999 64 1 0 0 0 -1 0 0 0 -1 7.7781745930520225 5.5
1 586 1290.0999999999999 0 -0 -0 1 
1 586 18 36 -0 1 -0 
1 586 18 0 -0 -0 1 
3 586 14 96 1 0 0 -0 1 0 0 -0 1 7.7781745930520225 5.5
3 586 14 96 1 0 0 -0 1 0 0 -0 1 7.7781745930520225 5.5
1 586 18 0 -0 -0 1 
3 586 14 154 1 0 0 -0 1 0 0 -0 1 7.7781745930520225 5.5
3 586 14 154 1 0 0 -0 1 0 0 -0 1 7.7781745930520225 5.5
1 586 18 0 -0 -0 1 
1 586 0 400.05000000000001 -0 1 -0 
1 586 0 0 -0 -0 1 
1 586 18 0 -0 -0 1 
1 586 18 18 -0 1 -0 
1 582 1290.0999999999999 0 -0 -0 1 
1 586 1290.0999999999999 18 -1 -0 -0 
1 582 18 0 -0 -0 1 
1 582 18 18 -0 1 -0 
1 586 18 18 -1 -0 -0 
3 600 0 154 0 -1 0 -1 -0 0 0 -0 -1 7.7781745930520225 5.5
3 600 0 154 0 -1 0 -1 -0 0 0 -0 -1 7.7781745930520225 5.5
3 600 0 96 0 -1 0 -1 -0 0 0 -0 -1 7.7781745930520225 5.5
3 600 0 96 0 -1 0 -1 -0 0 0 -0 -1 7.7781745930520225 5.5
1 600 0 400.05000000000001 -1 -0 -0 
3 582 18 96 1 0 0 -0 1 0 0 -0 1 7.7781745930520225 5.5
3 582 18 96 0 -1 0 -1 -0 0 0 -0 -1 7.7781745930520225 5.5
1 603.18198051533943 -10.960155108391486 96 -0.70710678118654757 0.70710678118654757 -0 
3 582 18 96 0 -1 0 -1 -0 0 0 -0 -1 7.7781745930520225 5.5
3 582 18 154 1 0 0 -0 1 0 0 -0 1 7.7781745930520225 5.5
3 582 18 154 0 -1 0 -1 -0 0 0 -0 -1 7.7781745930520225 5.5
1 603.18198051533943 -10.960155108391486 154 -0.70710678118654757 0.70710678118654757 -0 
3 582 18 154 0 -1 0 -1 -0 0 0 -0 -1 7.7781745930520225 5.5
1 610.96015510839152 1311.2819805153395 64 -0.70710678118654757 -0.70710678118654757 -0 
3 582 1290.0999999999999 64 1 0 0 0 -1 0 0 0 -1 7.7781745930520225 5.5
3 582 1290.0999999999999 64 0 -1 0 -1 -0 0 0 -0 -1 7.7781745930520225 5.5
3 582 1290.0999999999999 64 0 -1 0 -1 -0 0 0 -0 -1 7.7781745930520225 5.5
3 582 1290.0999999999999 64 1 0 0 0 -1 0 0 0 -1 7.7781745930520225 5.5
1 600 1127.125 596.89999999999998 -1 -0 -0 
1 600 1127.125 596.89999999999998 -1 -0 -0 
1 600 0 400.05000000000001 -1 -0 -0 
1 564 1127.125 596.89999999999998 -0 -0.98508930685912921 -0.17204376626835494 
1 610.96015510839152 1311.2819805153395 122 -0.70710678118654757 -0.70710678118654757 -0 
3 582 1290.0999999999999 122 1 0 0 0 -1 0 0 0 -1 7.7781745930520225 5.5
3 582 1290.0999999999999 122 0 -1 0 -1 -0 0 0 -0 -1 7.7781745930520225 5.5
3 582 1290.0999999999999 122 0 -1 0 -1 -0 0 0 -0 -1 7.7781745930520225 5.5
3 582 1290.0999999999999 122 1 0 0 0 -1 0 0 0 -1 7.7781745930520225 5.5
2 585 310 270 1 -0 -0 0 -0 1 -0 -1 0 7.9375
1 601 310 277.9375 -1 -0 -0 
2 585 255 270 1 -0 -0 0 -0 1 -0 -1 0 7.9375
1 601 255 277.9375 -1 -0 -0 
1 586 1127.125 578.89999999999998 -1 -0 -0 
1 582 1127.125 578.89999999999998 -0 -0 1 
1 586 1290.0999999999999 578.89999999999998 -1 -0 -0 
1 582 1127.125 578.89999999999998 -0 1 -0 
1 582 1290.0999999999999 0 -0 -0 1 
1 582 1290.0999999999999 0 -0 -0 1 
1 586 1290.0999999999999 36 -1 -0 -0 
1 582 1290.0999999999999 0 -0 -0 1 
1 582 18 36 -0 1 -0 
1 586 18 36 -1 -0 -0 
1 582 18 0 -0 -0 1 
1 582 18 0 -0 -0 1 
1 582 18 0 -0 -0 1 
1 586 18 400.05000000000001 -1 -0 -0 
1 582 0 400.05000000000001 -0 1 -0 
2 582 1037 192 1 -0 0 -0 0 1 -0 -1 0 1.5
2 582 990 231 -1 -0 0 -0 0 -1 0 -1 -0 1.25
2 582 920 231 -1 -0 0 -0 0 -1 0 -1 -0 1.25
2 582 690 171 -1 -0 0 -0 0 -1 0 -1 -0 1.25
2 582 620 171 -1 -0 0 -0 0 -1 0 -1 -0 1.25
2 582 1042.5 320.11016505745329 1 -0 0 -0 0 1 -0 -1 0 1.5
2 582 1055.2506198471799 448.22033011490652 1 -0 0 -0 0 1 -0 -1 0 1.5
2 582 245 151 -1 -0 0 -0 0 -1 0 -1 -0 1.25
2 582 175 151 -1 -0 0 -0 0 -1 0 -1 -0 1.25
2 582 310 270 1 -0 -0 0 -0 1 -0 -1 0 12.5
2 582 255 270 1 -0 -0 0 -0 1 -0 -1 0 12.5
2 585 310 270 1 -0 -0 0 -0 1 -0 -1 0 12.5
2 585 255 270 1 -0 -0 0 -0 1 -0 -1 0 12.5
1 583 1037 193.5 -1 -0 -0 
2 583 1037 192 1 -0 0 -0 0 1 -0 -1 0 1.5
1 581 990 229.75 1 -0 -0 
2 595 990 231 -1 -0 0 -0 0 -1 0 -1 -0 1.25
1 581 920 229.75 1 -0 -0 
2 595 920 231 -1 -0 0 -0 0 -1 0 -1 -0 1.25
1 581 690 169.75 1 -0 -0 
2 595 690 171 -1 -0 0 -0 0 -1 0 -1 -0 1.25
1 581 620 169.75 1 -0 -0 
2 595 620 171 -1 -0 0 -0 0 -1 0 -1 -0 1.25
1 583 1042.5 321.61016505745329 -1 -0 -0 
2 583 1042.5 320.11016505745329 1 -0 0 -0 0 1 -0 -1 0 1.5
1 583 1055.2506198471799 449.72033011490652 -1 -0 -0 
2 583 1055.2506198471799 448.22033011490652 1 -0 0 -0 0 1 -0 -1 0 1.5
1 581 245 149.75 1 -0 -0 
2 595 245 151 -1 -0 0 -0 0 -1 0 -1 -0 1.25
1 581 175 149.75 1 -0 -0 
2 595 175 151 -1 -0 0 -0 0 -1 0 -1 -0 1.25
1 585 310 282.5 -1 -0 -0 
1 585 255 282.5 -1 -0 -0 
Polygon3D 0
PolygonOnTriangulations 0
Surfaces 79
1 600 0 0 -0 -0 1 -0 1 0 1 -0 0 
1 600 689.09093437701847 257.98412378671179 -1 -0 -0 -0 0 1 -0 -1 0 
1 600 1308.0999999999999 0 -0 -1 -0 -0 0 1 1 -0 0 
1 586 740.44561243161263 161.18553117841208 -1 -0 -0 -0 0 1 -0 -1 0 
1 586 1290.0999999999999 0 -0 1 -0 -0 0 1 -1 -0 -0 
1 564 689.09093437701847 257.98412378671179 -1 -0 -0 -0 0 1 -0 -1 0 
1 586 18 0 -0 1 -0 -0 0 1 -1 -0 -0 
1 600 0 400.05000000000001 -0 1 -0 0 -0 -1 1 0 -0 
2 607.07106781186542 -7.0710678118654746 96 -0.70710678118654757 0.70710678118654757 -0 -0.70710678118654757 -0.70710678118654757 -0 0 -0 -1 5.5
6 -0 -0 -1 
3 500.89999999999992 3.8890873012275202 0 1.1102230246251565e-16 -0 1 0 1 0 -1 0 1.1102230246251565e-16 7.7781745930520225 5.5
2 607.07106781186542 -7.0710678118654746 154 -0.70710678118654757 0.70710678118654757 -0 -0.70710678118654757 -0.70710678118654757 -0 0 -0 -1 5.5
6 -0 -0 -1 
3 442.89999999999992 3.8890873012275202 0 1.1102230246251565e-16 -0 1 0 1 0 -1 0 1.1102230246251565e-16 7.7781745930520225 5.5
2 607.07106781186542 1315.1710678118654 64 -0.70710678118654757 -0.70710678118654757 -0 0.70710678118654757 -0.70710678118654757 0 0 -0 -1 5.5
6 -0 -0 -1 
3 532.89999999999998 1311.9890873012275 0 1.1102230246251565e-16 0 1 0 -1 0 1 0 -1.1102230246251565e-16 7.7781745930520225 5.5
1 600 1127.125 596.89999999999998 -0 0.17204376626835494 -0.98508930685912921 0 -0.98508930685912921 -0.17204376626835494 1 0 -0 
6 -0 -0 -1 
3 532.89999999999998 1311.9890873012275 0 1.1102230246251565e-16 0 1 0 -1 0 1 0 -1.1102230246251565e-16 7.7781745930520225 5.5
1 600 1308.0999999999999 596.89999999999998 -0 -0 -1 0 -1 0 1 -0 -0 
2 607.07106781186542 1315.1710678118654 122 -0.70710678118654757 -0.70710678118654757 -0 0.70710678118654757 -0.70710678118654757 0 0 -0 -1 5.5
6 -0 -0 -1 
3 474.89999999999992 1311.9890873012275 0 1.1102230246251565e-16 0 1 0 -1 0 1 0 -1.1102230246251565e-16 7.7781745930520225 5.5
6 -0 -0 -1 
3 474.89999999999992 1311.9890873012275 0 1.1102230246251565e-16 0 1 0 -1 0 1 0 -1.1102230246251565e-16 7.7781745930520225 5.5
2 601 310 270 -1 -0 -0 0 -0 1 0 -1 -0 7.9375
2 601 255 270 -1 -0 -0 0 -0 1 0 -1 -0 7.9375
1 586 1127.125 578.89999999999998 -0 1 -0 -0 0 1 -1 -0 -0 
1 586 1127.125 578.89999999999998 -0 -0 1 -1 0 -0 -0 1 0 
1 586 1290.0999999999999 0 -0 1 -0 -0 0 1 -1 -0 -0 
6 -0 -0 -1 
3 474.89999999999992 1297.9890873012275 0 1.1102230246251565e-16 0 1 0 -1 0 1 0 -1.1102230246251565e-16 7.7781745930520225 5.5
1 586 1290.0999999999999 0 -0 1 -0 -0 0 1 -1 -0 -0 
6 -0 -0 -1 
3 532.89999999999998 1297.9890873012275 0 1.1102230246251565e-16 0 1 0 -1 0 1 0 -1.1102230246251565e-16 7.7781745930520225 5.5
1 586 1290.0999999999999 0 -0 1 -0 -0 0 1 -1 -0 -0 
1 586 18 36 -0 -0 1 -1 0 -0 -0 1 0 
1 586 18 0 -0 1 -0 -0 0 1 -1 -0 -0 
6 -0 -0 -1 
3 500.89999999999992 17.889087301227519 0 1.1102230246251565e-16 -0 1 0 1 0 -1 0 1.1102230246251565e-16 7.7781745930520225 5.5
6 -0 -0 -1 
3 500.89999999999992 17.889087301227519 0 1.1102230246251565e-16 -0 1 0 1 0 -1 0 1.1102230246251565e-16 7.7781745930520225 5.5
1 586 18 0 -0 1 -0 -0 0 1 -1 -0 -0 
6 -0 -0 -1 
3 442.89999999999992 17.889087301227519 0 1.1102230246251565e-16 -0 1 0 1 0 -1 0 1.1102230246251565e-16 7.7781745930520225 5.5
6 -0 -0 -1 
3 442.89999999999992 17.889087301227519 0 1.1102230246251565e-16 -0 1 0 1 0 -1 0 1.1102230246251565e-16 7.7781745930520225 5.5
1 586 18 0 -0 1 -0 -0 0 1 -1 -0 -0 
1 586 0 400.05000000000001 -0 -0 1 -1 0 -0 -0 1 0 
1 586 18 18 -0 -0 1 -1 0 -0 -0 1 0 
1 564 689.09093437701847 257.98412378671179 -1 -0 -0 -0 0 1 -0 -1 0 
6 -0 -0 -1 
3 500.89999999999992 21.889087301227519 0 1.1102230246251565e-16 -0 1 0 1 0 -1 0 1.1102230246251565e-16 7.7781745930520225 5.5
6 -0 -0 -1 
3 442.89999999999992 21.889087301227519 0 1.1102230246251565e-16 -0 1 0 1 0 -1 0 1.1102230246251565e-16 7.7781745930520225 5.5
6 -0 -0 -1 
3 532.89999999999998 1293.9890873012275 0 1.1102230246251565e-16 0 1 0 -1 0 1 0 -1.1102230246251565e-16 7.7781745930520225 5.5
6 -0 -0 -1 
3 532.89999999999998 1293.9890873012275 0 1.1102230246251565e-16 0 1 0 -1 0 1 0 -1.1102230246251565e-16 7.7781745930520225 5.5
6 -0 -0 -1 
3 474.89999999999992 1293.9890873012275 0 1.1102230246251565e-16 0 1 0 -1 0 1 0 -1.1102230246251565e-16 7.7781745930520225 5.5
6 -0 -0 -1 
3 474.89999999999992 1293.9890873012275 0 1.1102230246251565e-16 0 1 0 -1 0 1 0 -1.1102230246251565e-16 7.7781745930520225 5.5
1 585 310 270 -1 -0 -0 0 -0 1 0 -1 -0 
1 585 255 270 -1 -0 -0 0 -0 1 0 -1 -0 
2 583 1037 192 -1 -0 -0 -0 0 1 -0 -1 0 1.5
2 581 990 231 1 -0 -0 -0 -0 -1 -0 -1 0 1.25
2 581 920 231 1 -0 -0 -0 -0 -1 -0 -1 0 1.25
2 581 690 171 1 -0 -0 -0 -0 -1 -0 -1 0 1.25
2 581 620 171 1 -0 -0 -0 -0 -1 -0 -1 0 1.25
2 583 1042.5 320.11016505745329 -1 -0 -0 -0 0 1 -0 -1 0 1.5
2 583 1055.2506198471799 448.22033011490652 -1 -0 -0 -0 0 1 -0 -1 0 1.5
2 581 245 151 1 -0 -0 -0 -0 -1 -0 -1 0 1.25
2 581 175 151 1 -0 -0 -0 -0 -1 -0 -1 0 1.25
2 585 310 270 -1 -0 -0 0 -0 1 0 -1 -0 12.5
2 585 255 270 -1 -0 -0 0 -0 1 0 -1 -0 12.5
2 326.89999999999992 313.88908730122751 0 -1.1102230246251565e-16 -0 -1 -1 0 1.1102230246251565e-16 -0 -1 0 12.5
2 326.89999999999992 258.88908730122751 0 -1.1102230246251565e-16 -0 -1 -1 0 1.1102230246251565e-16 -0 -1 0 12.5
1 583 1037 192 -1 -0 -0 -0 0 1 -0 -1 0 
2 404.89999999999992 1040.8890873012276 0 -1.1102230246251565e-16 -0 -1 -1 0 1.1102230246251565e-16 -0 -1 0 1.5
1 595 990 231 1 -0 -0 -0 -0 -1 -0 -1 0 
2 365.89999999999992 993.88908730122751 0 -1.1102230246251565e-16 -0 -1 1 0 -1.1102230246251565e-16 0 -1 0 1.25
1 595 920 231 1 -0 -0 -0 -0 -1 -0 -1 0 
2 365.89999999999992 923.88908730122751 0 -1.1102230246251565e-16 -0 -1 1 0 -1.1102230246251565e-16 0 -1 0 1.25
1 595 690 171 1 -0 -0 -0 -0 -1 -0 -1 0 
2 425.89999999999992 693.88908730122751 0 -1.1102230246251565e-16 -0 -1 1 0 -1.1102230246251565e-16 0 -1 0 1.25
1 595 620 171 1 -0 -0 -0 -0 -1 -0 -1 0 
2 425.89999999999992 623.88908730122751 0 -1.1102230246251565e-16 -0 -1 1 0 -1.1102230246251565e-16 0 -1 0 1.25
1 583 1042.5 320.11016505745329 -1 -0 -0 -0 0 1 -0 -1 0 
2 276.78983494254663 1046.3890873012276 0 -1.1102230246251565e-16 -0 -1 -1 0 1.1102230246251565e-16 -0 -1 0 1.5
1 583 1055.2506198471799 448.22033011490652 -1 -0 -0 -0 0 1 -0 -1 0 
2 148.6796698850934 1059.1397071484075 0 -1.1102230246251565e-16 -0 -1 -1 0 1.1102230246251565e-16 -0 -1 0 1.5
1 595 245 151 1 -0 -0 -0 -0 -1 -0 -1 0 
2 445.89999999999992 248.88908730122753 0 -1.1102230246251565e-16 -0 -1 1 0 -1.1102230246251565e-16 0 -1 0 1.25
1 595 175 151 1 -0 -0 -0 -0 -1 -0 -1 0 
2 445.89999999999992 178.88908730122753 0 -1.1102230246251565e-16 -0 -1 1 0 -1.1102230246251565e-16 0 -1 0 1.25
Triangulations 0

TShapes 339
Ve
1e-07
600 0 0
0 0

0101101
*
Ve
1e-07
600 1308.1 0
0 0

0101101
*
Ed
 1e-07 1 1 0
1  1 0 0 1308.1
2  1 1 0 0 1308.1
2  2 2 0 0 1308.1
0

0101000
+339 12 -338 12 *
Ve
8.4259611748e-05
586 1308.1 0
0 0

0101101
*
Ed
 1e-07 1 1 0
1  2 0 0 14
2  3 1 0 0 14
2  4 3 0 0 14
0

0101000
+338 12 -336 12 *
Ve
8.4259611748e-05
586 1290.1 0
0 0

0101101
*
Ed
 8.4259611748e-05 1 1 0
1  3 0 0 18
2  5 1 11 0 18
2  6 4 0 0 18
0

0101000
+334 13 -336 13 *
Ve
1e-07
582 1290.1 0
0 0

0101101
*
Ed
 1e-07 1 1 0
1  4 0 0 4
2  7 1 11 0 4
2  8 5 0 0 4
0

0101000
+334 13 -332 13 *
Ve
1e-07
582 18 0
0 0

0101101
*
Ed
 1e-07 1 1 0
1  5 0 18 1290.1
2  9 1 16 18 1290.1
2  10 6 0 18 1290.1
0

0101000
+330 17 -332 17 *
Ve
8.4259611748e-05
586 18 0
0 0

0101101
*
Ed
 1e-07 1 1 0
1  6 0 0 4
2  11 1 11 0 4
2  12 7 0 0 4
0

0101000
+328 13 -330 13 *
Ve
8.4259611748e-05
586 0 0
0 0

0101101
*
Ed
 8.4259611748e-05 1 1 0
1  7 0 0 18
2  13 1 11 0 18
2  14 4 0 0 18
0

0101000
+326 13 -328 13 *
Ed
 1e-07 1 1 0
1  8 0 0 14
2  15 1 0 0 14
2  16 8 0 0 14
0

0101000
+339 12 -326 12 *
Wi

0101100
-337 11 -335 11 +333 0 -331 0 +329 15 +327 0 +325 0 +324 11 *
Fa
0  1e-07 1 11

0111000
+323 0 *
Ve
1.00001307e-07
600 0 90.4999999999987
0 0

0101101
*
Ve
1.00001307e-07
600 0 101.500000000001
0 0

0101101
*
Ed
 1e-07 1 1 0
1  9 0 4.71238898038469 7.85398163397448
2  17 2 6 4.71238898038469 7.85398163397448
2  18 9 0 4.71238898038469 7.85398163397448
2  19 10 21 4.71238898038469 7.85398163397448
2  20 10 23 4.71238898038469 7.85398163397448
0

0101000
+321 24 -320 24 *
Ed
 1e-07 1 1 0
1  10 0 309.550000000001 400.05
2  21 2 0 309.550000000001 400.05
2  22 8 0 309.550000000001 400.05
0

0101000
+321 12 -339 12 *
Ve
1.00001336e-07
600 0 148.499999999999
0 0

0101101
*
Ed
 1e-07 1 1 0
1  11 0 251.550000000001 298.549999999999
2  23 2 0 251.550000000001 298.549999999999
2  24 8 0 251.550000000001 298.549999999999
0

0101000
+317 12 -320 12 *
Ve
1.00001336e-07
600 0 159.500000000001
0 0

0101101
*
Ed
 1e-07 1 1 0
1  12 0 4.71238898038469 7.85398163397448
2  25 2 6 4.71238898038469 7.85398163397448
2  26 11 0 4.71238898038469 7.85398163397448
2  27 12 21 4.71238898038469 7.85398163397448
2  28 12 23 4.71238898038469 7.85398163397448
0

0101000
+317 24 -315 24 *
Ve
1.0002116e-07
600 1308.1 58.5000000000212
0 0

0101101
*
Ed
 1e-07 1 1 0
1  13 0 0 58.5000000000212
2  29 2 0 0 58.5000000000212
2  30 3 0 0 58.5000000000212
0

0101000
+338 12 -313 12 *
Ve
1e-07
600 0 400.05
0 0

0101101
*
Ed
 1e-07 1 1 0
1  14 0 0 240.549999999999
2  31 2 0 0 240.549999999999
2  32 8 0 0 240.549999999999
0

0101000
+311 12 -315 12 *
Ve
1.00000018e-07
600 1300.32182540695 64
0 0

0101101
*
Ed
 1e-07 1 1 0
1  15 0 0 1.5707963267949
2  33 2 6 0 1.5707963267949
2  34 13 0 0 1.5707963267949
2  35 14 21 0 1.5707963267949
2  36 14 23 0 1.5707963267949
0

0101000
+309 24 -313 24 *
Ve
1e-07
600 1127.125 596.9
0 0

0101101
*
Ed
 1e-07 1 1 0
1  16 0 0 1144.18560038352
2  37 2 0 0 1144.18560038352
2  38 15 0 0 1144.18560038352
0

0101000
+307 12 -311 12 *
Ve
1.0002116e-07
600 1308.1 69.4999999999788
0 0

0101101
*
Ed
 1e-07 1 1 0
1  17 0 4.71238898038469 6.28318530717959
2  39 2 6 4.71238898038469 6.28318530717959
2  40 13 0 4.71238898038469 6.28318530717959
2  41 16 21 4.71238898038469 6.28318530717959
2  42 16 23 4.71238898038469 6.28318530717959
0

0101000
+305 24 -309 24 *
Ve
1e-07
600 1308.1 596.9
0 0

0101101
*
Ed
 1e-07 1 1 0
1  18 0 0 180.975
2  43 2 0 0 180.975
2  44 17 0 0 180.975
0

0101000
+303 12 -307 12 *
Ve
1.0002116e-07
600 1308.1 116.500000000021
0 0

0101101
*
Ed
 1e-07 1 1 0
1  19 0 69.4999999999788 116.500000000021
2  45 2 0 69.4999999999788 116.500000000021
2  46 3 0 69.4999999999788 116.500000000021
0

0101000
+305 12 -301 12 *
Ve
1.0002116e-07
600 1308.1 127.499999999979
0 0

0101101
*
Ed
 1e-07 1 1 0
1  20 0 127.499999999979 596.9
2  47 2 0 127.499999999979 596.9
2  48 3 0 127.499999999979 596.9
0

0101000
+299 12 -303 12 *
Ve
1.00000018e-07
600 1300.32182540695 122
0 0

0101101
*
Ed
 1e-07 1 1 0
1  21 0 0 1.5707963267949
2  49 2 6 0 1.5707963267949
2  50 18 0 0 1.5707963267949
2  51 19 21 0 1.5707963267949
2  52 19 23 0 1.5707963267949
0

0101000
+297 24 -301 24 *
Ed
 1e-07 1 1 0
1  22 0 4.71238898038469 6.28318530717959
2  53 2 6 4.71238898038469 6.28318530717959
2  54 18 0 4.71238898038469 6.28318530717959
2  55 20 21 4.71238898038469 6.28318530717959
2  56 20 23 4.71238898038469 6.28318530717959
0

0101000
+299 24 -297 24 *
Wi

0101100
-319 19 +318 18 +316 18 +337 18 -314 19 +312 18 +310 18 -308 19 +306 18 -304 19 
+302 18 +300 18 +298 18 -296 19 -295 19 *
Ve
1e-07
600 310 277.9375
0 0

0101101
*
Ed
 1e-07 1 1 0
1  23 0 0 6.28318530717959
2  57 2 18 0 6.28318530717959
2  58 21 0 0 6.28318530717959
0

0101100
+293 25 -293 25 *
Wi

0101100
-292 0 *
Ve
1e-07
600 255 277.9375
0 0

0101101
*
Ed
 1e-07 1 1 0
1  24 0 0 6.28318530717959
2  59 2 18 0 6.28318530717959
2  60 22 0 0 6.28318530717959
0

0101100
+290 25 -290 25 *
Wi

0101100
-289 0 *
Fa
0  1e-07 2 18

0111000
+294 0 +291 0 +288 0 *
Ed
 1e-07 1 1 0
1  25 0 4.71238898038469 7.85398163397448
2  61 3 6 4.71238898038469 7.85398163397448
2  62 13 0 4.71238898038469 7.85398163397448
0

0101000
+313 24 -305 24 *
Ed
 1e-07 1 1 0
1  26 0 4.71238898038469 7.85398163397448
2  63 3 6 4.71238898038469 7.85398163397448
2  64 18 0 4.71238898038469 7.85398163397448
0

0101000
+301 24 -299 24 *
Ve
8.4259611748e-05
586 1308.1 596.9
0 0

0101101
*
Ed
 1e-07 1 1 0
1  27 0 0 14
2  65 3 0 0 14
2  66 17 0 0 14
0

0101000
+303 12 -284 12 *
Ed
 8.4259611748e-05 1 1 0
1  28 0 0 596.9
2  67 3 11 0 596.9
2  68 4 0 0 596.9
0

0101000
+336 13 -284 13 *
Wi

0101100
-312 11 -286 26 -300 11 -285 26 -298 11 -283 11 +282 0 +335 11 *
Fa
0  1e-07 3 11

0111000
+281 0 *
Ve
8.4259611748e-05
586 1290.1 18
0 0

0101101
*
Ed
 8.4259611748e-05 1 1 0
1  29 0 0 18
2  69 4 0 0 18
2  70 5 0 0 18
0

0101000
+334 13 -279 13 *
Ve
8.4259611748e-05
586 1127.125 596.9
0 0

0101101
*
Ed
 8.4259611748e-05 1 1 0
1  30 0 0 180.975
2  71 4 0 0 180.975
2  72 17 11 0 180.975
0

0101000
+277 13 -284 13 *
Ve
8.4259611748e-05
586 1127.125 578.9
0 0

0101101
*
Ed
 8.4259611748e-05 1 1 0
1  31 0 0 18
2  73 4 0 0 18
2  74 23 0 0 18
0

0101000
+275 13 -277 13 *
Ve
8.4259611748e-05
586 1290.1 578.9
0 0

0101101
*
Ed
 8.4259611748e-05 1 1 0
1  32 0 0 162.975
2  75 4 0 0 162.975
2  76 24 0 0 162.975
0

0101000
+275 13 -273 13 *
Ve
8.4259611748e-05
586 1290.1 126.716990566028
0 0

0101101
*
Ed
 8.4259611748e-05 1 1 0
1  33 0 126.716990566028 578.9
2  77 4 0 126.716990566028 578.9
2  78 25 0 126.716990566028 578.9
0

0101000
+271 13 -273 13 *
Ve
8.4259611748e-05
586 1290.1 117.283009433972
0 0

0101101
*
Ed
 8.4259611748e-05 1 1 0
1  34 0 1.03065234911869 5.25253295806089
2  79 4 0 1.03065234911869 5.25253295806089
2  80 18 26 1.03065234911869 5.25253295806089
2  81 26 28 1.03065234911869 5.25253295806089
2  82 26 30 1.03065234911869 5.25253295806089
0

0101000
+269 13 -271 13 *
Ve
8.4259611748e-05
586 1290.1 68.7169905660283
0 0

0101101
*
Ed
 8.4259611748e-05 1 1 0
1  35 0 68.7169905660283 117.283009433972
2  83 4 0 68.7169905660283 117.283009433972
2  84 27 0 68.7169905660283 117.283009433972
0

0101000
+267 13 -269 13 *
Ve
8.4259611748e-05
586 1290.1 59.2830094339717
0 0

0101101
*
Ed
 8.4259611748e-05 1 1 0
1  36 0 1.03065234911869 5.25253295806089
2  85 4 0 1.03065234911869 5.25253295806089
2  86 13 26 1.03065234911869 5.25253295806089
2  87 28 28 1.03065234911869 5.25253295806089
2  88 28 30 1.03065234911869 5.25253295806089
0

0101000
+265 13 -267 13 *
Ve
8.4259611748e-05
586 1290.1 36
0 0

0101101
*
Ed
 8.4259611748e-05 1 1 0
1  37 0 36 59.2830094339717
2  89 4 0 36 59.2830094339717
2  90 29 0 36 59.2830094339717
0

0101000
+263 13 -265 13 *
Ve
8.4259611748e-05
586 18 36
0 0

0101101
*
Ed
 8.4259611748e-05 1 1 0
1  38 0 0 1272.1
2  91 4 0 0 1272.1
2  92 30 0 0 1272.1
0

0101000
+261 13 -263 13 *
Ve
8.4259611748e-05
586 18 91.2830094339717
0 0

0101101
*
Ed
 8.4259611748e-05 1 1 0
1  39 0 36 91.2830094339717
2  93 4 0 36 91.2830094339717
2  94 31 0 36 91.2830094339717
0

0101000
+261 13 -259 13 *
Ve
8.4259611748e-05
586 6.22182540694797 96
0 0

0101101
*
Ed
 8.4259611748e-05 1 1 0
1  40 0 3.14159265358979 5.25253295806089
2  95 4 0 3.14159265358979 5.25253295806089
2  96 9 26 3.14159265358979 5.25253295806089
2  97 32 28 3.14159265358979 5.25253295806089
2  98 32 30 3.14159265358979 5.25253295806089
0

0101000
+257 13 -259 13 *
Ve
8.4259611748e-05
586 18 100.716990566028
0 0

0101101
*
Ed
 8.4259611748e-05 1 1 0
1  41 0 1.03065234911869 3.14159265358979
2  99 4 0 1.03065234911869 3.14159265358979
2  100 9 26 1.03065234911869 3.14159265358979
2  101 33 28 1.03065234911869 3.14159265358979
2  102 33 30 1.03065234911869 3.14159265358979
0

0101000
+255 13 -257 13 *
Ve
8.4259611748e-05
586 18 149.283009433972
0 0

0101101
*
Ed
 8.4259611748e-05 1 1 0
1  42 0 100.716990566028 149.283009433972
2  103 4 0 100.716990566028 149.283009433972
2  104 34 0 100.716990566028 149.283009433972
0

0101000
+255 13 -253 13 *
Ve
8.4259611748e-05
586 6.22182540694797 154
0 0

0101101
*
Ed
 8.4259611748e-05 1 1 0
1  43 0 3.14159265358979 5.25253295806089
2  105 4 0 3.14159265358979 5.25253295806089
2  106 11 26 3.14159265358979 5.25253295806089
2  107 35 28 3.14159265358979 5.25253295806089
2  108 35 30 3.14159265358979 5.25253295806089
0

0101000
+251 13 -253 13 *
Ve
8.4259611748e-05
586 18 158.716990566028
0 0

0101101
*
Ed
 8.4259611748e-05 1 1 0
1  44 0 1.03065234911869 3.14159265358979
2  109 4 0 1.03065234911869 3.14159265358979
2  110 11 26 1.03065234911869 3.14159265358979
2  111 36 28 1.03065234911869 3.14159265358979
2  112 36 30 1.03065234911869 3.14159265358979
0

0101000
+249 13 -251 13 *
Ve
8.4259611748e-05
586 18 400.05
0 0

0101101
*
Ed
 8.4259611748e-05 1 1 0
1  45 0 158.716990566028 400.05
2  113 4 0 158.716990566028 400.05
2  114 37 0 158.716990566028 400.05
0

0101000
+249 13 -247 13 *
Ve
8.4259611748e-05
586 0 400.05
0 0

0101101
*
Ed
 8.4259611748e-05 1 1 0
1  46 0 0 18
2  115 4 0 0 18
2  116 38 0 0 18
0

0101000
+245 13 -247 13 *
Ed
 8.4259611748e-05 1 1 0
1  47 0 0 400.05
2  117 4 0 0 400.05
2  118 8 11 0 400.05
0

0101000
+326 13 -245 13 *
Ve
8.4259611748e-05
586 18 18
0 0

0101101
*
Ed
 8.4259611748e-05 1 1 0
1  48 0 0 18
2  119 4 0 0 18
2  120 7 0 0 18
0

0101000
+328 13 -242 13 *
Ed
 8.4259611748e-05 1 1 0
1  49 0 0 1272.1
2  121 4 0 0 1272.1
2  122 39 0 0 1272.1
0

0101000
+242 13 -279 13 *
Wi

0101100
-278 0 +333 0 +282 0 -276 0 -274 0 +272 0 -270 0 -268 0 -266 0 -264 0 
-262 0 -260 0 +258 0 -256 0 -254 0 +252 0 -250 0 -248 0 +246 0 -244 0 
-243 0 +325 0 +241 0 +240 0 *
Fa
0  8.4259611748e-05 4 0

0111000
+239 0 *
Ve
1e-07
582 1290.1 18
0 0

0101101
*
Ed
 1e-07 1 1 0
1  50 0 0 18
2  123 5 0 0 18
2  124 6 15 0 18
0

0101000
+332 13 -237 13 *
Ed
 1e-07 1 1 0
1  51 0 0 4
2  125 5 0 0 4
2  126 39 0 0 4
0

0101000
+279 13 -237 13 *
Wi

0101100
-331 0 -236 0 +235 0 +278 0 *
Fa
0  1e-07 5 0

0111000
+234 0 *
Ve
1e-07
582 18 18
0 0

0101101
*
Ed
 1e-07 1 1 0
1  52 0 0 18
2  127 6 15 0 18
2  128 7 0 0 18
0

0101000
+330 13 -232 13 *
Ed
 1e-07 1 1 0
1  53 0 0 1272.1
2  129 6 15 0 1272.1
2  130 39 0 0 1272.1
0

0101000
+232 13 -237 13 *
Wi

0101100
-231 0 -230 0 +236 0 +329 15 *
Fa
0  1e-07 6 15

0111000
+229 0 *
Ed
 1e-07 1 1 0
1  54 0 0 4
2  131 7 0 0 4
2  132 39 0 0 4
0

0101000
+242 13 -232 13 *
Wi

0101100
-327 0 -231 0 +227 0 +241 0 *
Fa
0  1e-07 7 0

0111000
+226 0 *
Ve
1.00000003e-07
592.221825406948 0 154
0 0

0101101
*
Ed
 1e-07 1 1 0
1  55 0 4.71238898038469 6.28318530717959
2  133 8 6 4.71238898038469 6.28318530717959
2  134 11 0 4.71238898038469 6.28318530717959
0

0101000
+315 24 -224 24 *
Ed
 1e-07 1 1 0
1  56 0 0 1.5707963267949
2  135 8 6 0 1.5707963267949
2  136 11 0 0 1.5707963267949
0

0101000
+224 24 -317 24 *
Ve
1.00000003e-07
592.221825406948 0 96
0 0

0101101
*
Ed
 1e-07 1 1 0
1  57 0 4.71238898038469 6.28318530717959
2  137 8 6 4.71238898038469 6.28318530717959
2  138 9 0 4.71238898038469 6.28318530717959
0

0101000
+320 24 -221 24 *
Ed
 1e-07 1 1 0
1  58 0 0 1.5707963267949
2  139 8 6 0 1.5707963267949
2  140 9 0 0 1.5707963267949
0

0101000
+221 24 -321 24 *
Ed
 1e-07 1 1 0
1  59 0 0 14
2  141 8 0 0 14
2  142 15 0 0 14
0

0101000
+311 12 -245 12 *
Wi

0101100
-310 11 -223 26 -222 26 -316 11 -220 26 -219 26 -318 11 -324 11 -243 0 +218 11 
*
Fa
0  1e-07 8 11

0111000
+217 0 *
Ve
5.530592518e-06
582 18.0000000000001 90.5
0 0

0101101
*
Ve
5.530592523e-06
582 18.0000000000001 101.5
0 0

0101101
*
Ed
 1e-07 1 1 0
1  60 0 4.71238898038469 7.85398163397448
2  143 9 0 4.71238898038469 7.85398163397448
2  144 40 31 4.71238898038469 7.85398163397448
2  145 41 33 4.71238898038469 7.85398163397448
2  146 41 35 4.71238898038469 7.85398163397448
0

0101000
+215 24 -214 24 *
Ed
 1.00000011e-07 1 1 0
1  61 0 4.17224500270849 4.71238898038469
2  147 9 26 4.17224500270849 4.71238898038469
2  148 34 0 4.17224500270849 4.71238898038469
0

0101000
+255 13 -214 13 *
Ed
 1e-07 1 1 0
1  62 0 15.5 24.2989898732233
3  149 150CN 9 0 15.5 24.2989898732233
0

0101000
+221 24 -257 24 *
Ed
 1.00000008e-07 1 1 0
1  63 0 1.5707963267949 2.1109403044711
2  151 9 26 1.5707963267949 2.1109403044711
2  152 31 0 1.5707963267949 2.1109403044711
0

0101000
+215 13 -259 13 *
Wi

0101100
-213 26 +212 0 -254 0 +211 26 +220 26 +319 26 +219 26 -211 26 -256 0 +210 0 
*
Fa
0  1e-07 9 26

0111000
+209 0 *
Ve
5.530592518e-06
582 18.0000000000001 148.5
0 0

0101101
*
Ve
5.530592523e-06
582 18.0000000000001 159.5
0 0

0101101
*
Ed
 1e-07 1 1 0
1  64 0 4.71238898038469 7.85398163397448
2  153 11 0 4.71238898038469 7.85398163397448
2  154 40 31 4.71238898038469 7.85398163397448
2  155 42 33 4.71238898038469 7.85398163397448
2  156 42 35 4.71238898038469 7.85398163397448
0

0101000
+207 24 -206 24 *
Ed
 1.00000011e-07 1 1 0
1  65 0 4.17224500270849 4.71238898038469
2  157 11 26 4.17224500270849 4.71238898038469
2  158 37 0 4.17224500270849 4.71238898038469
0

0101000
+249 13 -206 13 *
Ed
 1e-07 1 1 0
1  66 0 15.5 24.2989898732233
3  159 160CN 11 0 15.5 24.2989898732233
0

0101000
+224 24 -251 24 *
Ed
 1.00000008e-07 1 1 0
1  67 0 1.5707963267949 2.1109403044711
2  161 11 26 1.5707963267949 2.1109403044711
2  162 34 0 1.5707963267949 2.1109403044711
0

0101000
+207 13 -253 13 *
Wi

0101100
-205 26 +204 0 -248 0 +203 26 +223 26 +314 26 +222 26 -203 26 -250 0 +202 0 
*
Fa
0  1e-07 11 26

0111000
+201 0 *
Ve
1.00000018e-07
582 1282.32182540695 64
0 0

0101101
*
Ed
 1e-07 1 1 0
1  68 0 15.5 40.9558441227157
3  163 164CN 13 0 15.5 40.9558441227157
0

0101000
+309 24 -199 24 *
Ve
1.00000057e-07
582 1290.1 58.5
0 0

0101101
*
Ed
 1e-07 1 1 0
1  69 0 0 1.5707963267949
2  165 13 0 0 1.5707963267949
2  166 40 31 0 1.5707963267949
2  167 43 33 0 1.5707963267949
2  168 43 35 0 1.5707963267949
0

0101000
+199 24 -197 24 *
Ed
 1.0000005e-07 1 1 0
1  70 0 1.5707963267949 2.11094030447111
2  169 13 26 1.5707963267949 2.11094030447111
2  170 29 0 1.5707963267949 2.11094030447111
0

0101000
+197 13 -265 13 *
Ve
1.00000057e-07
582 1290.1 69.5
0 0

0101101
*
Ed
 1.00000052e-07 1 1 0
1  71 0 4.17224500270848 4.71238898038469
2  171 13 26 4.17224500270848 4.71238898038469
2  172 27 0 4.17224500270848 4.71238898038469
0

0101000
+267 13 -194 13 *
Ed
 1e-07 1 1 0
1  72 0 4.71238898038469 6.28318530717959
2  173 13 0 4.71238898038469 6.28318530717959
2  174 40 31 4.71238898038469 6.28318530717959
2  175 44 33 4.71238898038469 6.28318530717959
2  176 44 35 4.71238898038469 6.28318530717959
0

0101000
+194 24 -199 24 *
Wi

0101100
+198 26 +304 26 +286 26 +308 26 -198 26 -196 26 -195 0 -264 0 -193 0 -192 26 
*
Fa
0  1e-07 13 26

0111000
+191 0 *
Ed
 1e-07 1 1 0
1  73 0 0 14
2  177 15 0 0 14
2  178 17 0 0 14
0

0101000
+307 12 -277 12 *
Ve
1e-07
582 1127.125 596.9
0 0

0101101
*
Ed
 1e-07 1 1 0
1  74 0 14 18
2  179 15 0 14 18
2  180 23 36 14 18
0

0101000
+277 12 -188 12 *
Ve
1e-07
582 0 400.05
0 0

0101101
*
Ed
 1e-07 1 1 0
1  75 0 14 18
2  181 15 0 14 18
2  182 38 36 14 18
0

0101000
+245 12 -186 12 *
Ed
 1e-07 1 1 0
1  76 0 0 1144.18560038352
2  183 15 16 0 1144.18560038352
2  184 40 0 0 1144.18560038352
0

0101000
+188 17 -186 17 *
Wi

0101100
+189 11 +187 11 -218 11 -185 11 -306 11 +184 15 *
Fa
0  1e-07 15 11

0111000
+183 0 *
Wi

0101000
-302 11 -189 11 -276 0 +283 11 *
Fa
0  1e-07 17 11

0111000
+181 0 *
Ve
1.00000018e-07
582 1282.32182540695 122
0 0

0101101
*
Ed
 1e-07 1 1 0
1  77 0 15.5 40.9558441227157
3  185 186CN 18 0 15.5 40.9558441227157
0

0101000
+297 24 -179 24 *
Ve
1.00000057e-07
582 1290.1 116.5
0 0

0101101
*
Ed
 1e-07 1 1 0
1  78 0 0 1.5707963267949
2  187 18 0 0 1.5707963267949
2  188 40 31 0 1.5707963267949
2  189 45 33 0 1.5707963267949
2  190 45 35 0 1.5707963267949
0

0101000
+179 24 -177 24 *
Ed
 1.00000052e-07 1 1 0
1  79 0 1.5707963267949 2.11094030447111
2  191 18 26 1.5707963267949 2.11094030447111
2  192 27 0 1.5707963267949 2.11094030447111
0

0101000
+177 13 -269 13 *
Ve
1.00000057e-07
582 1290.1 127.5
0 0

0101101
*
Ed
 1.00000052e-07 1 1 0
1  80 0 4.17224500270848 4.71238898038469
2  193 18 26 4.17224500270848 4.71238898038469
2  194 25 0 4.17224500270848 4.71238898038469
0

0101000
+271 13 -174 13 *
Ed
 1e-07 1 1 0
1  81 0 4.71238898038469 6.28318530717959
2  195 18 0 4.71238898038469 6.28318530717959
2  196 40 31 4.71238898038469 6.28318530717959
2  197 46 33 4.71238898038469 6.28318530717959
2  198 46 35 4.71238898038469 6.28318530717959
0

0101000
+174 24 -179 24 *
Wi

0101100
+178 26 +295 26 +285 26 +296 26 -178 26 -176 26 -175 0 -268 0 -173 0 -172 26 
*
Fa
0  1e-07 18 26

0111000
+171 0 *
Ve
1e-07
585 310 277.9375
0 0

0101101
*
Ed
 1e-07 1 1 0
1  82 0 0 6.28318530717959
2  199 21 0 0 6.28318530717959
2  200 47 0 0 6.28318530717959
0

0101100
+169 25 -169 25 *
Ed
 1e-07 1 1 0
1  83 0 1 16
3  201 202CN 21 0 1 16
0

0101000
+293 25 -169 25 *
Wi

0101100
-168 0 +167 0 +292 0 -167 0 *
Fa
0  1e-07 21 0

0111000
+166 0 *
Ve
1e-07
585 255 277.9375
0 0

0101101
*
Ed
 1e-07 1 1 0
1  84 0 0 6.28318530717959
2  203 22 0 0 6.28318530717959
2  204 48 0 0 6.28318530717959
0

0101100
+164 25 -164 25 *
Ed
 1e-07 1 1 0
1  85 0 1 16
3  205 206CN 22 0 1 16
0

0101000
+290 25 -164 25 *
Wi

0101100
-163 0 +162 0 +289 0 -162 0 *
Fa
0  1e-07 22 0

0111000
+161 0 *
Ve
1e-07
582 1127.125 578.9
0 0

0101101
*
Ed
 1e-07 1 1 0
1  86 0 0 4
2  207 23 0 0 4
2  208 24 0 0 4
0

0101000
+275 13 -159 13 *
Ed
 1e-07 1 1 0
1  87 0 0 18
2  209 23 0 0 18
2  210 40 15 0 18
0

0101000
+159 13 -188 13 *
Wi

0101100
-158 0 -157 0 +187 11 +274 0 *
Fa
0  1e-07 23 0

0111000
+156 0 *
Ve
1e-07
582 1290.1 578.9
0 0

0101101
*
Ed
 1e-07 1 1 0
1  88 0 0 4
2  211 24 0 0 4
2  212 25 0 0 4
0

0101000
+273 13 -154 13 *
Ed
 1e-07 1 1 0
1  89 0 0 162.975
2  213 24 0 0 162.975
2  214 40 15 0 162.975
0

0101000
+159 13 -154 13 *
Wi

0101100
-272 0 -153 0 +152 0 +158 0 *
Fa
0  1e-07 24 0

0111000
+151 0 *
Ed
 1e-07 1 1 0
1  90 0 127.5 578.9
2  215 25 0 127.5 578.9
2  216 40 15 127.5 578.9
0

0101000
+174 13 -154 13 *
Wi

0101100
-173 0 -149 0 +153 0 +270 0 *
Fa
0  1e-07 25 0

0111000
+148 0 *
Ed
 1e-07 1 1 0
1  91 0 69.5 116.5
2  217 27 0 69.5 116.5
2  218 40 15 69.5 116.5
0

0101000
+194 13 -177 13 *
Wi

0101100
-193 0 -146 0 -175 0 +266 0 *
Fa
0  1e-07 27 0

0111000
+145 0 *
Ve
1e-07
582 1290.1 36
0 0

0101101
*
Ed
 1e-07 1 1 0
1  92 0 0 4
2  219 29 0 0 4
2  220 30 0 0 4
0

0101000
+263 13 -143 13 *
Ed
 1e-07 1 1 0
1  93 0 36 58.5
2  221 29 0 36 58.5
2  222 40 15 36 58.5
0

0101000
+143 13 -197 13 *
Wi

0101100
-142 0 -141 0 -195 0 +262 0 *
Fa
0  1e-07 29 0

0111000
+140 0 *
Ve
1e-07
582 18 36
0 0

0101101
*
Ed
 1e-07 1 1 0
1  94 0 0 1272.1
2  223 30 0 0 1272.1
2  224 40 15 0 1272.1
0

0101000
+138 13 -143 13 *
Ed
 1e-07 1 1 0
1  95 0 0 4
2  225 30 0 0 4
2  226 31 0 0 4
0

0101000
+261 13 -138 13 *
Wi

0101100
-260 0 -142 0 +137 0 +136 0 *
Fa
0  1e-07 30 0

0111000
+135 0 *
Ed
 1e-07 1 1 0
1  96 0 36 90.5
2  227 31 0 36 90.5
2  228 40 15 36 90.5
0

0101000
+138 13 -215 13 *
Wi

0101100
-136 0 -133 0 -210 0 +258 0 *
Fa
0  1e-07 31 0

0111000
+132 0 *
Ed
 1e-07 1 1 0
1  97 0 101.5 148.5
2  229 34 0 101.5 148.5
2  230 40 15 101.5 148.5
0

0101000
+214 13 -207 13 *
Wi

0101100
-212 0 -130 0 -202 0 +252 0 *
Fa
0  1e-07 34 0

0111000
+129 0 *
Ve
1e-07
582 18 400.05
0 0

0101101
*
Ed
 1e-07 1 1 0
1  98 0 159.5 400.05
2  231 37 0 159.5 400.05
2  232 40 15 159.5 400.05
0

0101000
+206 13 -127 13 *
Ed
 1e-07 1 1 0
1  99 0 0 4
2  233 37 0 0 4
2  234 38 0 0 4
0

0101000
+247 13 -127 13 *
Wi

0101100
-204 0 -126 0 +125 0 +246 0 *
Fa
0  1e-07 37 0

0111000
+124 0 *
Ed
 1e-07 1 1 0
1  100 0 0 18
2  235 38 0 0 18
2  236 40 15 0 18
0

0101000
+186 13 -127 13 *
Wi

0101100
-244 0 -125 0 +122 0 +185 11 *
Fa
0  1e-07 38 0

0111000
+121 0 *
Wi

0101100
-240 0 -235 0 +230 0 +227 0 *
Fa
0  1e-07 39 0

0111000
+119 0 *
Wi

0101100
-133 5 +137 5 -213 19 +141 5 -130 5 -196 19 -205 19 -192 19 -126 5 +146 5 
+122 5 -176 19 +184 37 -172 19 +157 5 +149 5 -152 5 *
Ve
1e-07
582 1037 193.5
0 0

0101101
*
Ed
 1e-07 1 1 0
1  101 0 0 6.28318530717959
2  237 40 39 0 6.28318530717959
2  238 49 0 0 6.28318530717959
0

0101000
+116 40 -116 40 *
Wi

0101100
-115 38 *
Ve
1e-07
582 990 229.75
0 0

0101101
*
Ed
 1e-07 1 1 0
1  102 0 0 6.28318530717959
2  239 40 31 0 6.28318530717959
2  240 50 0 0 6.28318530717959
0

0101100
+113 24 -113 24 *
Wi

0101100
+112 19 *
Ve
1e-07
582 920 229.75
0 0

0101101
*
Ed
 1e-07 1 1 0
1  103 0 0 6.28318530717959
2  241 40 31 0 6.28318530717959
2  242 51 0 0 6.28318530717959
0

0101100
+110 24 -110 24 *
Wi

0101100
+109 19 *
Ve
1e-07
582 690 169.75
0 0

0101101
*
Ed
 1e-07 1 1 0
1  104 0 0 6.28318530717959
2  243 40 31 0 6.28318530717959
2  244 52 0 0 6.28318530717959
0

0101100
+107 24 -107 24 *
Wi

0101100
+106 19 *
Ve
1e-07
582 620 169.75
0 0

0101101
*
Ed
 1e-07 1 1 0
1  105 0 0 6.28318530717959
2  245 40 31 0 6.28318530717959
2  246 53 0 0 6.28318530717959
0

0101100
+104 24 -104 24 *
Wi

0101100
+103 19 *
Ve
1e-07
582 1042.5 321.610165057453
0 0

0101101
*
Ed
 1e-07 1 1 0
1  106 0 0 6.28318530717959
2  247 40 39 0 6.28318530717959
2  248 54 0 0 6.28318530717959
0

0101000
+101 40 -101 40 *
Wi

0101100
-100 38 *
Ve
1e-07
582 1055.25061984718 449.720330114907
0 0

0101101
*
Ed
 1e-07 1 1 0
1  107 0 0 6.28318530717959
2  249 40 39 0 6.28318530717959
2  250 55 0 0 6.28318530717959
0

0101000
+98 40 -98 40 *
Wi

0101100
-97 38 *
Ve
1e-07
582 245 149.75
0 0

0101101
*
Ed
 1e-07 1 1 0
1  108 0 0 6.28318530717959
2  251 40 31 0 6.28318530717959
2  252 56 0 0 6.28318530717959
0

0101100
+95 24 -95 24 *
Wi

0101100
+94 19 *
Ve
1e-07
582 175 149.75
0 0

0101101
*
Ed
 1e-07 1 1 0
1  109 0 0 6.28318530717959
2  253 40 31 0 6.28318530717959
2  254 57 0 0 6.28318530717959
0

0101100
+92 24 -92 24 *
Wi

0101100
+91 19 *
Ve
1e-07
582 310 282.5
0 0

0101101
*
Ed
 1e-07 1 1 0
1  110 0 0 6.28318530717959
2  255 40 37 0 6.28318530717959
2  256 58 0 0 6.28318530717959
0

0101100
+89 25 -89 25 *
Wi

0101100
-88 0 *
Ve
1e-07
582 255 282.5
0 0

0101101
*
Ed
 1e-07 1 1 0
1  111 0 0 6.28318530717959
2  257 40 37 0 6.28318530717959
2  258 59 0 0 6.28318530717959
0

0101100
+86 25 -86 25 *
Wi

0101100
-85 0 *
Fa
0  1e-07 40 37

0111000
+117 0 +114 0 +111 0 +108 0 +105 0 +102 0 +99 0 +96 0 +93 0 +90 0 
+87 0 +84 0 *
Ve
1e-07
585 310 282.5
0 0

0101101
*
Ed
 1e-07 1 1 0
1  112 0 0 6.28318530717959
2  259 47 0 0 6.28318530717959
2  260 58 0 0 6.28318530717959
2  261 60 42 0 6.28318530717959
2  262 60 44 0 6.28318530717959
0

0101000
+82 25 -82 25 *
Wi

0101100
+81 0 *
Wi

0101100
-168 0 *
Fa
0  1e-07 47 0

0111000
+80 0 +79 0 *
Ve
1e-07
585 255 282.5
0 0

0101101
*
Ed
 1e-07 1 1 0
1  113 0 0 6.28318530717959
2  263 48 0 0 6.28318530717959
2  264 59 0 0 6.28318530717959
2  265 61 46 0 6.28318530717959
2  266 61 48 0 6.28318530717959
0

0101000
+77 25 -77 25 *
Wi

0101100
+76 0 *
Wi

0101100
-163 0 *
Fa
0  1e-07 48 0

0111000
+75 0 +74 0 *
Ve
1e-07
583 1037 193.5
0 0

0101101
*
Ed
 1e-07 1 1 0
1  114 0 0 1
3  267 268CN 49 0 0 1
0

0101000
+72 40 -116 40 *
Ed
 1e-07 1 1 0
1  115 0 0 6.28318530717959
2  269 49 0 0 6.28318530717959
2  270 62 0 0 6.28318530717959
2  271 63 50 0 6.28318530717959
2  272 63 52 0 6.28318530717959
0

0101000
+72 40 -72 40 *
Wi

0101100
-115 0 +71 0 +70 0 -71 0 *
Fa
0  1e-07 49 0

0111000
+69 0 *
Ve
1e-07
595 990 229.75
0 0

0101101
*
Ed
 1e-07 1 1 0
1  116 0 1 14
3  273 274CN 50 0 1 14
0

0101000
+113 24 -67 24 *
Ed
 1e-07 1 1 0
1  117 0 0 6.28318530717959
2  275 50 0 0 6.28318530717959
2  276 64 0 0 6.28318530717959
2  277 65 54 0 6.28318530717959
2  278 65 56 0 6.28318530717959
0

0101000
+67 24 -67 24 *
Wi

0101100
+66 0 +112 0 -66 0 -65 0 *
Fa
0  1e-07 50 0

0111000
+64 0 *
Ve
1e-07
595 920 229.75
0 0

0101101
*
Ed
 1e-07 1 1 0
1  118 0 1 14
3  279 280CN 51 0 1 14
0

0101000
+110 24 -62 24 *
Ed
 1e-07 1 1 0
1  119 0 0 6.28318530717959
2  281 51 0 0 6.28318530717959
2  282 66 0 0 6.28318530717959
2  283 67 58 0 6.28318530717959
2  284 67 60 0 6.28318530717959
0

0101000
+62 24 -62 24 *
Wi

0101100
+61 0 +109 0 -61 0 -60 0 *
Fa
0  1e-07 51 0

0111000
+59 0 *
Ve
1e-07
595 690 169.75
0 0

0101101
*
Ed
 1e-07 1 1 0
1  120 0 1 14
3  285 286CN 52 0 1 14
0

0101000
+107 24 -57 24 *
Ed
 1e-07 1 1 0
1  121 0 0 6.28318530717959
2  287 52 0 0 6.28318530717959
2  288 68 0 0 6.28318530717959
2  289 69 62 0 6.28318530717959
2  290 69 64 0 6.28318530717959
0

0101000
+57 24 -57 24 *
Wi

0101100
+56 0 +106 0 -56 0 -55 0 *
Fa
0  1e-07 52 0

0111000
+54 0 *
Ve
1e-07
595 620 169.75
0 0

0101101
*
Ed
 1e-07 1 1 0
1  122 0 1 14
3  291 292CN 53 0 1 14
0

0101000
+104 24 -52 24 *
Ed
 1e-07 1 1 0
1  123 0 0 6.28318530717959
2  293 53 0 0 6.28318530717959
2  294 70 0 0 6.28318530717959
2  295 71 66 0 6.28318530717959
2  296 71 68 0 6.28318530717959
0

0101000
+52 24 -52 24 *
Wi

0101100
+51 0 +103 0 -51 0 -50 0 *
Fa
0  1e-07 53 0

0111000
+49 0 *
Ve
1e-07
583 1042.5 321.610165057453
0 0

0101101
*
Ed
 1e-07 1 1 0
1  124 0 0 1
3  297 298CN 54 0 0 1
0

0101000
+47 40 -101 40 *
Ed
 1e-07 1 1 0
1  125 0 0 6.28318530717959
2  299 54 0 0 6.28318530717959
2  300 72 0 0 6.28318530717959
2  301 73 70 0 6.28318530717959
2  302 73 72 0 6.28318530717959
0

0101000
+47 40 -47 40 *
Wi

0101100
-100 0 +46 0 +45 0 -46 0 *
Fa
0  1e-07 54 0

0111000
+44 0 *
Ve
1e-07
583 1055.25061984718 449.720330114907
0 0

0101101
*
Ed
 1e-07 1 1 0
1  126 0 0 1
3  303 304CN 55 0 0 1
0

0101000
+42 40 -98 40 *
Ed
 1e-07 1 1 0
1  127 0 0 6.28318530717959
2  305 55 0 0 6.28318530717959
2  306 74 0 0 6.28318530717959
2  307 75 74 0 6.28318530717959
2  308 75 76 0 6.28318530717959
0

0101000
+42 40 -42 40 *
Wi

0101100
-97 0 +41 0 +40 0 -41 0 *
Fa
0  1e-07 55 0

0111000
+39 0 *
Ve
1e-07
595 245 149.75
0 0

0101101
*
Ed
 1e-07 1 1 0
1  128 0 1 14
3  309 310CN 56 0 1 14
0

0101000
+95 24 -37 24 *
Ed
 1e-07 1 1 0
1  129 0 0 6.28318530717959
2  311 56 0 0 6.28318530717959
2  312 76 0 0 6.28318530717959
2  313 77 78 0 6.28318530717959
2  314 77 80 0 6.28318530717959
0

0101000
+37 24 -37 24 *
Wi

0101100
+36 0 +94 0 -36 0 -35 0 *
Fa
0  1e-07 56 0

0111000
+34 0 *
Ve
1e-07
595 175 149.75
0 0

0101101
*
Ed
 1e-07 1 1 0
1  130 0 1 14
3  315 316CN 57 0 1 14
0

0101000
+92 24 -32 24 *
Ed
 1e-07 1 1 0
1  131 0 0 6.28318530717959
2  317 57 0 0 6.28318530717959
2  318 78 0 0 6.28318530717959
2  319 79 82 0 6.28318530717959
2  320 79 84 0 6.28318530717959
0

0101000
+32 24 -32 24 *
Wi

0101100
+31 0 +91 0 -31 0 -30 0 *
Fa
0  1e-07 57 0

0111000
+29 0 *
Ed
 1e-07 1 1 0
1  132 0 0 3
3  321 322CN 58 0 0 3
0

0101000
+82 25 -89 25 *
Wi

0101100
-88 0 +27 0 +81 0 -27 0 *
Fa
0  1e-07 58 0

0111000
+26 0 *
Ed
 1e-07 1 1 0
1  133 0 0 3
3  323 324CN 59 0 0 3
0

0101000
+77 25 -86 25 *
Wi

0101100
-85 0 +24 0 +76 0 -24 0 *
Fa
0  1e-07 59 0

0111000
+23 0 *
Wi

0101100
-70 0 *
Fa
0  1e-07 62 0

0111000
-21 0 *
Wi

0101100
+65 0 *
Fa
0  1e-07 64 0

0111000
+19 0 *
Wi

0101100
+60 0 *
Fa
0  1e-07 66 0

0111000
+17 0 *
Wi

0101100
+55 0 *
Fa
0  1e-07 68 0

0111000
+15 0 *
Wi

0101100
+50 0 *
Fa
0  1e-07 70 0

0111000
+13 0 *
Wi

0101100
-45 0 *
Fa
0  1e-07 72 0

0111000
-11 0 *
Wi

0101100
-40 0 *
Fa
0  1e-07 74 0

0111000
-9 0 *
Wi

0101100
+35 0 *
Fa
0  1e-07 76 0

0111000
+7 0 *
Wi

0101100
+30 0 *
Fa
0  1e-07 78 0

0111000
+5 0 *
Sh

0101100
+322 5 +287 0 +280 5 -238 5 -233 5 -228 5 +225 5 +216 5 +208 5 +200 5 
+190 5 +182 5 +180 5 +170 5 +165 0 +160 0 -155 5 -150 5 -147 5 -144 5 
-139 5 +134 5 +131 5 +128 5 +123 5 +120 5 -118 5 -83 0 -78 0 -73 0 
+68 38 +63 19 +58 19 +53 19 +48 19 +43 38 +38 38 +33 19 +28 19 +25 0 
+22 0 -20 38 +18 19 +16 19 +14 19 +12 19 -10 38 -8 38 +6 19 +4 19 
*
So

0100000
+3 0 *
Co

1100000
+2 0 *

+1 4 