DBRep_DrawableShape

CASCADE Topology V1, (c) Matra-Datavision
Locations 0
Curve2ds 0
Curves 4
1 0 0 -4.4408920985006262e-16 0 1 0 
1 0 1019.9999999999998 -4.4408920985006262e-16 1 0 0 
1 499.99999999999989 0 -4.4408920985006262e-16 0 1 0 
1 0 0 -4.4408920985006262e-16 1 0 0 
Polygon3D 0
PolygonOnTriangulations 0
Surfaces 0
Triangulations 0

TShapes 9
Ve
1e-07
0 0 -4.44089209850063e-16
0 0

0101101
*
Ve
1e-07
0 1020 -4.44089209850063e-16
0 0

0101101
*
Ed
 1e-07 1 1 0
1  1 0 0 1020
0

0101000
+9 0 -8 0 *
Ve
1e-07
500 1020 -4.44089209850063e-16
0 0

0101101
*
Ed
 1e-07 1 1 0
1  2 0 2.27373675443232e-13 500
0

0101000
+8 0 -6 0 *
Ve
1e-07
500 0 -4.44089209850063e-16
0 0

0101101
*
Ed
 1e-07 1 1 0
1  3 0 0 1020
0

0101000
+4 0 -6 0 *
Ed
 1e-07 1 1 0
1  4 0 -0 500
0

0101000
+9 0 -4 0 *
Wi

0101100
-7 0 -5 0 +3 0 +2 0 *

+1 0 