DBRep_DrawableShape

CASCADE Topology V1, (c) Matra-Datavision
Locations 17
1
              1               0               0               0 
              0 0.985089306859129 -0.172043766268355              45 
              0 0.172043766268355 0.985089306859129 341.729243052325 
1
              1               0               0               0 
              0               1               0               0 
              0               0               1               0 
1
              1               0               0               0 
              0 0.985089306859129 0.172043766268355               0 
              0 -0.172043766268355 0.985089306859129               0 
1
              1               0               0             -50 
              0               1               0 -123.121404827417 
              0               0               1 -314.891853689834 
1
              1               0               0               0 
              0               1               0               0 
              0               0               1             -18 
1
              1               0               0               0 
              0               1               0               0 
              0               0               1               1 
1
              1               0               0               0 
              0               1               0               0 
              0               0               1              -1 
2  1 1 2 1 3 1 4 1 5 1 6 1 7 1 0
2  2 1 3 1 4 1 0
1
              1               0               0               0 
              0 0.985089306859129 -0.172043766268355               0 
              0 0.172043766268355 0.985089306859129               0 
1
              1               0               0               0 
              0               1               0              45 
              0               0               1 341.729243052325 
2  10 1 11 1 0
2  4 -1 3 -1 2 -1 0
2  10 1 11 1 2 1 3 1 4 1 0
2  4 -1 3 -1 2 -1 11 -1 10 -1 0
1
              1               0               0               0 
              0               1               0               0 
              0               0               1              18 
2  1 1 2 1 3 1 4 1 5 1 6 1 7 1 16 1 0
Curve2ds 24
8 424.5 440.5
1 264 424.5 0 1 
8 424.5 440.5
1 1.0000000000000568 424.5 3.0000000000000001e-17 -1 
2 267 865 1 0 -0 1 3
1 0 0.99999999999995726 1 0 
8 424.5 440.5
1 270 424.5 0 1 
8 424.5 440.5
1 1.0000000000000568 424.5 3.0000000000000001e-17 -1 
2 267 848.99999999999989 1 0 -0 1 3
1 0 1.0000000000000886 1 0 
1 3.1415926535897931 0 0 1 
1 0 0 1 0 
8 424.5 440.5
1 264 424.5 0 1 
8 424.5 440.5
1 19.000000000000014 424.5 3.0000000000000001e-17 -1 
1 3.1415926535897931 0 0 1 
1 0 -16 1 0 
2 267 865 1 0 -0 1 3
1 0 18.999999999999922 1 0 
1 0 -16 1 0 
8 0 20
1 0 0 0 1 
8 0 20
1 6.2831853071795862 -0 0 1 
1 0 0 1 0 
8 424.5 440.5
1 270 424.5 0 1 
8 424.5 440.5
1 19.000000000000014 424.5 3.0000000000000001e-17 -1 
2 267 849 1 0 -0 1 3
1 0 19.000000000000032 1 0 
Curves 12
1 314 485.28080962663989 404.41144686258144 -0 0.98508930685912921 0.17204376626835502 
2 317 919.21264929808638 480.19672590379173 0 -0.17204376626835499 0.98508930685912921 1 0 0 -0 0.98508930685912921 0.17204376626835499 3
1 320 485.28080962663989 404.41144686258144 -0 0.98508930685912921 0.17204376626835502 
2 317 903.45122038834018 477.44402564349815 0 -0.17204376626835499 0.98508930685912921 1 0 0 -0 0.98508930685912921 0.17204376626835499 3
1 314 869 -15 0 0 1 
1 314 482.18402183380948 422.14305438604572 -0 0.98508930685912921 0.17204376626835502 
1 314 885 -15 0 0 1 
2 317 916.11586150525591 497.92833342725601 0 -0.17204376626835499 0.98508930685912921 1 0 0 -0 0.98508930685912921 0.17204376626835499 3
1 320 885 -15 0 0 1 
1 320 869 -15 0 0 1 
1 320 482.18402183380948 422.14305438604572 -0 0.98508930685912921 0.17204376626835502 
2 317 900.35443259550982 495.17563316696243 0 -0.17204376626835499 0.98508930685912921 1 0 0 -0 0.98508930685912921 0.17204376626835499 3
Polygon3D 0
PolygonOnTriangulations 0
Surfaces 7
1 50 20 4 0 0 1 1 0 -0 -0 1 0 
1 50 20 -14 0 0 1 1 0 -0 -0 1 0 
1 314 869 -15 1 0 -0 0 0 1 0 -1 0 
2 317 885 -15 0 0 1 1 0 -0 -0 1 0 3
1 320 869 -15 1 0 -0 0 0 1 0 -1 0 
2 317 869 -15 0 0 1 1 0 -0 -0 1 0 3
1 50 20 4 0 0 1 1 0 -0 -0 1 0 
Triangulations 0

TShapes 34
Ve
1.50000114e-07
264 849 5.6843418860808e-14
0 0

0101101
*
Ve
1.50000127e-07
264 865 0
0 0

0101101
*
Ed
 1.5e-07 1 1 0
1  1 0 424.5 440.5
2  1 2 1 424.5 440.5
2  2 3 12 424.5 440.5
0

0101000
+34 13 -33 13 *
Ve
1.50000127e-07
270 865 0
0 0

0101101
*
Ed
 1.00000056482596e-07 1 1 0
1  2 0 0 3.14159265358979
2  3 2 1 0 3.14159265358979
2  4 4 12 0 3.14159265358979
0

0101000
+31 13 -33 13 *
Ve
1.50000114e-07
270 849 5.6843418860808e-14
0 0

0101101
*
Ed
 1.5e-07 1 1 0
1  3 0 424.5 440.5
2  5 2 1 424.5 440.5
2  6 5 12 424.5 440.5
0

0101000
+29 13 -31 13 *
Ed
 1.00000057370775e-07 1 1 0
1  4 0 3.14159265358979 6.28318530717959
2  7 2 1 3.14159265358979 6.28318530717959
2  8 6 12 3.14159265358979 6.28318530717959
0

0101000
+34 13 -29 13 *
Wi

0101100
-32 9 +30 9 +28 9 +27 9 *
Fa
0  1e-07 1 8

0101000
+26 0 *
Ve
1.5e-07
264 849 18.0000000000001
0 0

0101101
*
Ed
 1e-07 1 1 0
1  5 0 1.00000000000009 19
2  9 6 0 1.00000000000009 19
2  10 3 0 1.00000000000009 19
0

0101000
+34 15 -24 15 *
Ve
1.5e-07
264 865 18.0000000000001
0 0

0101101
*
Ed
 1.5e-07 1 1 0
1  6 0 424.5 440.5
2  11 7 1 424.5 440.5
2  12 3 12 424.5 440.5
0

0101000
+24 13 -22 13 *
Ed
 1e-07 1 1 0
1  7 0 1.00000000000001 19
2  13 4 0 1.00000000000001 19
2  14 3 0 1.00000000000001 19
0

0101000
+33 15 -22 15 *
Wi

0101100
-23 14 -21 9 +20 14 +32 9 *
Fa
0  1e-07 3 14

0101000
+19 0 *
Ve
1.5e-07
270 865 18.0000000000001
0 0

0101101
*
Ed
 1.00000056843419e-07 1 1 0
1  8 0 0 3.14159265358979
2  15 7 1 0 3.14159265358979
2  16 4 12 0 3.14159265358979
0

0101000
+17 13 -22 13 *
Ed
 1e-07 1 1 0
1  9 0 1.00000000000001 19
2  17 5 0 1.00000000000001 19
2  18 4 0 1.00000000000001 19
0

0101000
+31 15 -17 15 *
Wi

0101100
-16 9 +20 14 +30 9 -15 14 *
Fa
0  1e-07 4 14

0101000
+14 0 *
Ve
1.5e-07
270 849 18.0000000000001
0 0

0101101
*
Ed
 1e-07 1 1 0
1  10 0 1.00000000000009 19
2  19 6 0 1.00000000000009 19
2  20 5 0 1.00000000000009 19
0

0101000
+29 15 -12 15 *
Ed
 1.5e-07 1 1 0
1  11 0 424.5 440.5
2  21 7 1 424.5 440.5
2  22 5 12 424.5 440.5
0

0101000
+12 13 -17 13 *
Wi

0101100
-11 14 -10 9 +15 14 +28 9 *
Fa
0  1e-07 5 14

0101000
+9 0 *
Ed
 1.00000056843419e-07 1 1 0
1  12 0 3.14159265358979 6.28318530717959
2  23 7 1 3.14159265358979 6.28318530717959
2  24 6 12 3.14159265358979 6.28318530717959
0

0101000
+24 13 -12 13 *
Wi

0101100
+27 9 -23 14 -7 9 +11 14 *
Fa
0  1e-07 6 14

0101000
+6 0 *
Wi

0101100
-21 9 +16 9 +10 9 +7 9 *
Fa
0  1e-07 1 17

0101000
+4 0 *
Sh

0101100
-25 0 -18 0 +13 0 +8 0 +5 0 +3 0 *
So

0100000
+2 0 *

+1 0 