DBRep_DrawableShape

CASCADE Topology V1, (c) Matra-Datavision
Locations 9
1
              1               0               0               0 
              0               1               0               0 
              0               0               1              -1 
2  1 -1 0
1
              1               0               0               0 
              0               1               0               0 
              0               0               1               0 
1
              1               0               0               0 
              0               1               0               0 
              0               0               1               0 
1
              1               0               0               0 
              0 1.11022302462516e-16              -1               0 
              0               1 1.11022302462516e-16               0 
1
              1               0               0            -135 
              0               1               0            1236 
              0               0               1           -1240 
2  3 1 4 1 5 1 6 1 0
1
              1               0               0               0 
              0               1               0              10 
              0               0               1               0 
2  6 -1 5 -1 4 -1 3 -1 0
Curve2ds 22
1 182.99999999999997 -25.000000000000004 -1 0 
8 -12 -6
1 50 6 0 -1 
8 -12 -6
1 65 6 0 1 
8 23.5 41.5
1 -23.5 50 1 0 
8 23.5 41.5
1 23.5 -6 1 0 
8 -12 -6
1 50 6 0 -1 
8 -12 -6
1 47 6 0 1 
8 0 50
1 0 12 1 0 
8 0 50
1 65 0 0 1 
1 182.99999999999997 24.999999999999996 -1 0 
8 0 50
1 47 0 0 1 
8 0 50
1 0 12 1 0 
1 65 12 0 -1 
1 0 0 0 1 
1 18 0 0 1 
1 0 18 1 0 
1 0 18 1 0 
1 0 0 0 1 
1 47 -6 1 0 
1 0 0 1 0 
1 47 12 0 -1 
1 0 0 0 1 
Curves 12
1 50 366.00000000000011 1 0 -1 1.1102230246251565e-16 
1 185 1234 935 0 -1 0 
1 185 1246 893.5 0 -0 1 
1 185 1234 917 0 -1 0 
1 135 1240 935 1 0 0 
1 0 366.00000000000011 1 0 -1 1.1102230246251565e-16 
1 135 1240 917 1 0 0 
1 135 1228 935 -0 1 0 
1 135 1246 935 1 0 -0 
1 135 1246 917 1 0 -0 
1 135 1246 917 0 0 1 
1 135 1228 917 -0 1 0 
Polygon3D 0
PolygonOnTriangulations 0
Surfaces 10
1 50 366.00000000000011 0 1 0 -0 0 -1 1.1102230246251565e-16 0 -1.1102230246251565e-16 -1 
1 24.999999999999996 183.00000000000014 1.0000000000000959 0 7.07359189922033e-16 1 0 1 -7.07359189922033e-16 -1 0 0 
1 135 1228 935 0 0 1 1 0 -0 -0 1 0 
1 185 1230 870 1 0 -0 0 0 1 0 -1 0 
1 135 1246 917 -0 1 0 0 0 1 1 0 -0 
1 135 1228 917 0 0 1 1 0 -0 -0 1 0 
1 135 1230 870 -0 1 0 0 0 1 1 0 -0 
1 135 1230 870 -0 1 0 0 0 1 1 0 -0 
1 135 1230 870 1 0 -0 0 0 1 0 -1 0 
1 0 366.00000000000011 0 1 0 -0 0 -1 1.1102230246251565e-16 0 -1.1102230246251565e-16 -1 
Triangulations 0

TShapes 34
Ve
1.50000000277581e-07
50 319 0
0 0

0101101
*
Ve
1.50000012454885e-07
50 301 0
0 0

0101101
*
Ed
 1.5e-07 1 1 0
1  1 0 47 65
2  1 2 0 47 65
0

0101000
+34 2 -33 2 *
Ve
1.5e-07
50 301 6
0 0

0101101
*
Ed
 1.5e-07 1 1 0
1  2 0 -12 -6
2  2 3 0 -12 -6
2  3 4 8 -12 -6
0

0101000
+31 9 -33 9 *
Ve
1.5e-07
50 319 6
0 0

0101101
*
Ed
 1.5e-07 1 1 0
1  3 0 23.5 41.5
2  4 5 0 23.5 41.5
2  5 4 8 23.5 41.5
0

0101000
+29 9 -31 9 *
Ed
 1.5e-07 1 1 0
1  4 0 -12 -6
2  6 6 0 -12 -6
2  7 4 8 -12 -6
0

0101000
+29 9 -34 9 *
Wi

0101100
-32 1 +30 7 +28 7 -27 7 *
Fa
0  1e-07 1 0

0101000
+26 0 *
Ve
1.50000012454885e-07
0 301 0
0 0

0101101
*
Ed
 1.50000012454885e-07 1 1 0
1  5 0 0 50
2  8 3 0 0 50
2  9 7 8 0 50
0

0101000
+24 9 -33 9 *
Ve
1.50000000277581e-07
0 319 0
0 0

0101101
*
Ed
 1.5e-07 1 1 0
1  6 0 47 65
2  10 2 0 47 65
0

0101000
+22 2 -24 2 *
Ed
 1.50000000277581e-07 1 1 0
1  7 0 0 50
2  11 8 8 0 50
2  12 6 0 0 50
0

0101000
+22 9 -34 9 *
Wi

0101100
-32 1 +23 7 +21 1 -20 7 *
Fa
0  1.5e-07 2 1

0101000
+19 0 *
Ve
1.5e-07
0 301 6
0 0

0101101
*
Ed
 1e-07 1 1 0
1  8 0 12 18
2  13 9 8 12 18
2  14 3 0 12 18
0

0101000
+24 9 -17 9 *
Ed
 1.5e-07 1 1 0
1  9 0 0 50
2  15 5 0 0 50
2  16 3 0 0 50
0

0101000
+17 9 -31 9 *
Wi

0101100
-16 7 -15 7 -30 7 +23 7 *
Fa
0  1e-07 3 7

0101000
+14 0 *
Ve
1.5e-07
0 319 6
0 0

0101101
*
Ed
 1.5e-07 1 1 0
1  10 0 0 50
2  17 6 0 0 50
2  18 5 0 0 50
0

0101000
+12 9 -29 9 *
Ed
 1.5e-07 1 1 0
1  11 0 0 18
2  19 9 8 0 18
2  20 5 0 0 18
0

0101000
+12 9 -17 9 *
Wi

0101100
-11 7 -28 7 +15 7 +10 7 *
Fa
0  1e-07 5 7

0101000
+9 0 *
Ed
 1e-07 1 1 0
1  12 0 12 18
2  21 9 8 12 18
2  22 6 0 12 18
0

0101000
+22 9 -12 9 *
Wi

0101100
-7 7 -11 7 -27 7 +20 7 *
Fa
0  1e-07 6 7

0101000
+6 0 *
Wi

0101100
-21 1 -16 7 +10 7 +7 7 *
Fa
0  1e-07 10 0

0101000
+4 0 *
Sh

0101100
+25 0 -18 0 +13 0 +8 0 -5 0 -3 0 *
So

0100000
+2 0 *

+1 0 