DBRep_DrawableShape

CASCADE Topology V1, (c) Matra-Datavision
Locations 10
1
              1               0               0               0 
              0               1               0               0 
              0               0               1              -1 
1
              1               0               0               0 
              0               1               0              10 
              0               0               1               0 
1
              1               0               0               0 
              0               1               0               0 
              0               0               1               0 
1
              1               0               0               0 
              0               1               0               0 
              0               0               1               0 
1
              1               0               0               0 
              0 1.11022302462516e-16              -1               0 
              0               1 1.11022302462516e-16               0 
1
              1               0               0            -135 
              0               1               0            1236 
              0               0               1           -1240 
2  2 1 3 1 4 1 5 1 6 1 0
2  6 -1 5 -1 4 -1 3 -1 2 -1 0
1
              1               0               0               0 
              0               1               0               0 
              0               0               1              18 
2  1 1 9 1 0
Curve2ds 24
8 -139.5 -129.5
1 129.5 21.75 -1 0 
8 -139.5 -129.5
1 -129.5 -1 -1 -0 
2 259 25 1 0 -0 1 3.25
1 0 1 1 0 
8 -139.5 -129.5
1 129.5 28.25 -1 0 
8 -139.5 -129.5
1 -129.5 -1 -1 -0 
2 269 25 1 0 -0 1 3.25
1 0 1 1 0 
1 4.7123889803846897 0 0 1 
1 10 0 0 -1 
8 -139.5 -129.5
1 129.5 21.75 -1 0 
8 -139.5 -129.5
1 -129.5 -19 -1 -0 
1 0 0 0 -1 
1 4.7123889803846897 0 0 1 
2 259 25 1 0 -0 1 3.25
1 0 19 1 0 
1 0 0 0 -1 
1 1.5707963267948966 0 0 1 
1 7.8539816339744828 0 0 1 
1 10 0 0 -1 
8 -139.5 -129.5
1 129.5 28.25 -1 0 
8 -139.5 -129.5
1 -129.5 -19 -1 -0 
2 269 25 1 0 -0 1 3.25
1 0 19 1 0 
Curves 12
1 156.75 1230 999.5 -0 0 -1 
2 160 1230 1129 0 1 0 0 -0 1 1 0 -0 3.25
1 163.25 1230 999.5 -0 0 -1 
2 160 1230 1139 0 1 0 0 -0 1 1 0 -0 3.25
1 156.75 1229 1139 -0 1 0 
1 156.75 1248 999.5 -0 0 -1 
1 156.75 1229 1129 -0 1 0 
2 160 1248 1129 0 1 0 0 -0 1 1 0 -0 3.25
1 163.25 1229 1129 -0 1 0 
1 163.25 1229 1139 -0 1 0 
1 163.25 1248 999.5 -0 0 -1 
2 160 1248 1139 0 1 0 0 -0 1 1 0 -0 3.25
Polygon3D 0
PolygonOnTriangulations 0
Surfaces 7
1 24.999999999999996 183.00000000000014 1.0000000000000959 0 7.07359189922033e-16 1 0 1 -7.07359189922033e-16 -1 0 0 
1 135 1230 870 -0 1 0 0 0 1 1 0 -0 
1 156.75 1229 1129 1 0 -0 0 0 1 0 -1 0 
2 160 1229 1129 0 1 0 0 -0 1 1 0 -0 3.25
1 163.25 1229 1129 1 0 -0 0 0 1 0 -1 0 
2 160 1229 1139 0 1 0 0 -0 1 1 0 -0 3.25
1 135 1248 870 -0 1 0 0 0 1 1 0 -0 
Triangulations 0

TShapes 34
Ve
1.50000140771601e-07
21.75 97.0000000000002 2.27373675443232e-13
0 0

0101101
*
Ve
1.50000140771601e-07
21.75 107 2.27373675443232e-13
0 0

0101101
*
Ed
 1.50000140771601e-07 1 1 0
1  1 0 -139.5 -129.5
2  1 2 0 -139.5 -129.5
2  2 3 0 -139.5 -129.5
0

0101000
+34 8 -33 8 *
Ve
1.50000140771601e-07
28.25 107 2.27373675443232e-13
0 0

0101101
*
Ed
 1.50000079629203e-07 1 1 0
1  2 0 1.5707963267949 4.71238898038469
2  3 2 0 1.5707963267949 4.71238898038469
2  4 4 0 1.5707963267949 4.71238898038469
0

0101000
+31 8 -33 8 *
Ve
1.50000140771601e-07
28.25 97.0000000000002 2.27373675443232e-13
0 0

0101101
*
Ed
 1.50000140771601e-07 1 1 0
1  3 0 -139.5 -129.5
2  5 2 0 -139.5 -129.5
2  6 5 0 -139.5 -129.5
0

0101000
+29 8 -31 8 *
Ed
 1.500000701159e-07 1 1 0
1  4 0 4.71238898038469 7.85398163397448
2  7 2 0 4.71238898038469 7.85398163397448
2  8 6 0 4.71238898038469 7.85398163397448
0

0101000
+34 8 -29 8 *
Wi

0101100
-32 7 +30 7 +28 7 +27 7 *
Fa
0  1.5e-07 1 1

0101000
+26 0 *
Ve
1.50000142108547e-07
21.75 97.0000000000002 18.0000000000002
0 0

0101101
*
Ed
 1e-07 1 1 0
1  5 0 1 19
2  9 6 0 1 19
2  10 3 0 1 19
0

0101000
+34 8 -24 8 *
Ve
1.50000142108547e-07
21.75 107 18.0000000000002
0 0

0101101
*
Ed
 1.50000142108547e-07 1 1 0
1  6 0 -139.5 -129.5
2  11 7 0 -139.5 -129.5
2  12 3 0 -139.5 -129.5
0

0101000
+24 8 -22 8 *
Ed
 1e-07 1 1 0
1  7 0 1 19
2  13 3 0 1 19
2  14 4 0 1 19
0

0101000
+33 8 -22 8 *
Wi

0101100
+32 7 -23 7 -21 7 +20 7 *
Fa
0  1e-07 3 7

0101000
+19 0 *
Ve
1.50000142108547e-07
28.25 107 18.0000000000002
0 0

0101101
*
Ed
 1.50000081712415e-07 1 1 0
1  8 0 1.5707963267949 4.71238898038469
2  15 7 0 1.5707963267949 4.71238898038469
2  16 4 0 1.5707963267949 4.71238898038469
0

0101000
+17 8 -22 8 *
Ed
 1e-07 1 1 0
1  9 0 1 19
2  17 5 0 1 19
2  18 4 0 1 19
0

0101000
+31 8 -17 8 *
Wi

0101100
-16 7 +20 7 +30 7 -15 7 *
Fa
0  1e-07 4 7

0101000
+14 0 *
Ve
1.50000142108547e-07
28.25 97.0000000000002 18.0000000000002
0 0

0101101
*
Ed
 1e-07 1 1 0
1  10 0 1 19
2  19 6 0 1 19
2  20 5 0 1 19
0

0101000
+29 8 -12 8 *
Ed
 1.50000142108547e-07 1 1 0
1  11 0 -139.5 -129.5
2  21 7 0 -139.5 -129.5
2  22 5 0 -139.5 -129.5
0

0101000
+12 8 -17 8 *
Wi

0101100
+28 7 -11 7 -10 7 +15 7 *
Fa
0  1e-07 5 7

0101000
+9 0 *
Ed
 1.50000071054274e-07 1 1 0
1  12 0 4.71238898038469 7.85398163397448
2  23 7 0 4.71238898038469 7.85398163397448
2  24 6 0 4.71238898038469 7.85398163397448
0

0101000
+24 8 -12 8 *
Wi

0101100
-7 7 +11 7 +27 7 -23 7 *
Fa
0  1e-07 6 7

0101000
+6 0 *
Wi

0101100
-21 7 +16 7 +10 7 +7 7 *
Fa
0  1.5e-07 1 10

0101000
+4 0 *
Sh

0101100
-25 0 -18 0 +13 0 +8 0 +5 0 +3 0 *
So

0100000
+2 0 *

+1 0 