DBRep_DrawableShape

CASCADE Topology V1, (c) Matra-Datavision
Locations 14
1
              1               0               0               0 
              0               1               0               0 
              0               0               1              -1 
1
              1               0               0               0 
              0               1               0              10 
              0               0               1               0 
1
              1               0               0               0 
              0               1               0               0 
              0               0               1               0 
1
              1               0               0               0 
              0               1               0               0 
              0               0               1               0 
1
              1               0               0               0 
              0 1.11022302462516e-16              -1               0 
              0               1 1.11022302462516e-16               0 
1
              1               0               0            -135 
              0               1               0            1236 
              0               0               1           -1240 
1
              1               0               0               0 
              0               1               0               0 
              0               0               1              -0 
1
              1               0               0               0 
              0               1               0               0 
              0               0               1               1 
2  2 1 3 1 4 1 5 1 6 1 7 1 8 1 0
2  8 -1 7 -1 6 -1 5 -1 4 -1 3 -1 2 -1 0
1
              1               0               0               0 
              0               1               0               0 
              0               0               1              -0 
1
              1               0               0               0 
              0               1               0               0 
              0               0               1               1 
2  2 1 3 1 4 1 5 1 6 1 11 1 12 1 0
2  12 -1 11 -1 6 -1 5 -1 4 -1 3 -1 2 -1 0
Curve2ds 4
1 182.99999999999997 -25.000000000000004 -1 0 
1 182.99999999999997 24.999999999999996 0 -1 
1 182.99999999999997 24.999999999999996 -1 0 
1 -182.99999999999991 24.999999999999996 0 -1 
Curves 4
1 50 366.00000000000011 1 0 -1 1.1102230246251565e-16 
1 135 1230 870 1 0 -0 
1 0 366.00000000000011 1 0 -1 1.1102230246251565e-16 
1 135 1230 1236 1 0 -0 
Polygon3D 0
PolygonOnTriangulations 0
Surfaces 1
1 24.999999999999996 183.00000000000014 1.0000000000000959 0 7.07359189922033e-16 1 0 1 -7.07359189922033e-16 -1 0 0 
Triangulations 0

TShapes 9
Ve
1.5e-07
50 366 1
0 0

0101101
*
Ve
1.5e-07
50 2.27373675443232e-13 1.00000000000023
0 0

0101101
*
Ed
 1.5e-07 1 1 0
1  1 0 0 366
2  1 1 0 0 366
0

0101000
+9 0 -8 0 *
Ve
1.5e-07
0 366 1
0 0

0101101
*
Ed
 1.5e-07 1 1 0
1  2 0 0 50
2  2 1 10 0 50
0

0101000
+6 10 -9 10 *
Ve
1.5e-07
0 2.27373675443232e-13 1.00000000000023
0 0

0101101
*
Ed
 1.5e-07 1 1 0
1  3 0 0 366
2  3 1 0 0 366
0

0101000
+6 0 -4 0 *
Ed
 1.5e-07 1 1 0
1  4 0 0 50
2  4 1 14 0 50
0

0101000
+4 14 -8 14 *
Wi

0101100
-7 0 -5 9 +3 0 +2 13 *

+1 1 