DBRep_DrawableShape

CASCADE Topology V1, (c) Matra-Datavision
Locations 0
Curve2ds 0
Curves 4
1 21.75 306.50000000000011 -4.5614474229465176e-14 0 1 -7.073591899220328e-16 
2 25 247.00000000000011 -3.5266024291042265e-15 0 7.073591899220328e-16 1 0 -1 7.073591899220328e-16 1 0 -0 3.25
1 28.25 306.50000000000011 -4.5614474229465176e-14 0 1 -7.073591899220328e-16 
2 25 237.00000000000011 3.5469894701161016e-15 0 7.073591899220328e-16 1 0 -1 7.073591899220328e-16 1 0 -0 3.25
Polygon3D 0
PolygonOnTriangulations 0
Surfaces 1
1 24.999999999999989 242.00000000000009 1.0193520505957672e-17 0 7.073591899220328e-16 1 0 1 -7.073591899220328e-16 -1 0 0 
Triangulations 0

TShapes 11
Ve
1.50000096193962e-07
21.75 237 -3.4566851569558e-14
0 0

0101101
*
Ve
1.50000093910113e-07
21.75 247 -3.70727452725815e-14
0 0

0101101
*
Ed
 1.50000077137042e-07 1 1 0
1  1 0 -69.5 -59.5
0

0101000
+11 0 -10 0 *
Ve
1.50000093910113e-07
28.25 247 -3.70727452725815e-14
0 0

0101101
*
Ed
 1.50000073803483e-07 1 1 0
1  2 0 1.5707963267949 4.71238898038469
0

0101000
+8 0 -10 0 *
Ve
1.50000096193962e-07
28.25 237 -3.4566851569558e-14
0 0

0101101
*
Ed
 1.50000077137042e-07 1 1 0
1  3 0 -69.5 -59.5
0

0101000
+6 0 -8 0 *
Ed
 1.50000076142637e-07 1 1 0
1  4 0 4.71238898038469 7.85398163397448
0

0101000
+11 0 -6 0 *
Wi

0101100
+9 0 -7 0 -5 0 -4 0 *
Fa
0  1e-07 1 0

0101000
-3 0 *
Sh

1101000
+2 0 *

+1 0 