DBRep_DrawableShape

CASCADE Topology V1, (c) Matra-Datavision
Locations 0
Curve2ds 0
Curves 4
1 50 366.00000000000011 -3.3523462428118575e-14 -0 -1 7.073591899220331e-16 
1 0 2.2737367544323206e-13 2.2537000108334546e-13 1 0 -0 
1 0 366.00000000000011 -3.3523462428118575e-14 -0 -1 7.073591899220331e-16 
1 0 366.00000000000011 -3.3523462428118575e-14 1 0 -0 
Polygon3D 0
PolygonOnTriangulations 0
Surfaces 0
Triangulations 0

TShapes 9
Ve
1e-07
50 366 -3.35234624281186e-14
0 0

0101101
*
Ve
1e-07
50 2.27373675443232e-13 2.25370001083345e-13
0 0

0101101
*
Ed
 1e-07 1 1 0
1  1 0 -0 366
0

0101000
+9 0 -8 0 *
Ve
1e-07
0 2.27373675443232e-13 2.25370001083345e-13
0 0

0101101
*
Ed
 1e-07 1 1 0
1  2 0 -0 50
0

0101000
+6 0 -8 0 *
Ve
1e-07
0 366 -3.35234624281186e-14
0 0

0101101
*
Ed
 1e-07 1 1 0
1  3 0 -0 366
0

0101000
+4 0 -6 0 *
Ed
 1e-07 1 1 0
1  4 0 0 50
0

0101000
+4 0 -9 0 *
Wi

0101100
-7 0 +5 0 +3 0 -2 0 *

+1 0 