DBRep_DrawableShape

CASCADE Topology V1, (c) Matra-Datavision
Locations 10
1
              1               0               0               0 
              0               1               0               0 
              0               0               1               0 
1
              1               0               0               0 
              0 1.11022302462516e-16              -1               0 
              0               1 1.11022302462516e-16               0 
1
              1               0               0            -415 
              0               1               0            1236 
              0               0               1           -1240 
2  1 1 2 1 3 1 0
1
              1               0               0               0 
              0               1               0               0 
              0               0               1               0 
1
              1               0               0               0 
              0               1               0              10 
              0               0               1               0 
2  1 -1 5 -1 6 -1 0
2  1 -1 5 -1 0
2  6 1 5 1 0
2  1 -1 0
Curve2ds 144
1 0 0 1 0 
1 0 0 1 0 
8 -12 -6
1 47 6 0 1 
8 -12 -6
1 280 6 0 -1 
8 23.5 41.5
1 23.5 -6 1 0 
8 23.5 41.5
1 -23.5 280 1 0 
8 -12 -6
1 65 6 0 1 
8 -12 -6
1 280 6 0 -1 
1 0 0 1 0 
1 0 0 1 0 
1 366 0 0 -1 
1 0 0 0 1 
1 0 -18 1 0 
1 0 0 1 0 
1 0 0 0 -1 
1 0 0 0 1 
1 0 50 1 0 
1 0 0 1 0 
8 140 190
1 47 -140 0 1 
8 140 190
1 140 12 1 0 
1 0 0 0 1 
1 0 0 1 0 
1 0 18 1 0 
1 0 0 0 1 
1 330 0 0 1 
1 47 12 0 -1 
1 0 330 1 0 
1 47 -6 1 0 
1 18 0 0 1 
1 0 18 1 0 
1 330 0 0 1 
1 65 12 0 -1 
8 140 190
1 140 12 1 0 
8 140 190
1 65 -140 0 1 
1 0 50 1 0 
1 0 0 1 0 
1 366 0 0 1 
1 0 0 1 0 
2 333 13 1 0 -0 1 3
1 -6.2831853071795862 1 1 0 
8 -171.5 -161.5
1 161.5 16 -1 0 
8 -171.5 -161.5
1 -161.5 -1 -1 -0 
2 323 13 1 0 -0 1 3
1 0 1 1 0 
8 -171.5 -161.5
1 161.5 10 -1 0 
8 -171.5 -161.5
1 -161.5 -1 -1 -0 
2 129 25 1 0 -0 1 3.25
1 0 1 1 0 
8 -69.5 -59.5
1 59.5 21.75 -1 0 
8 -69.5 -59.5
1 -59.5 -1 -1 -0 
8 -69.5 -59.5
1 59.5 28.25 -1 0 
8 -69.5 -59.5
1 -59.5 -1 -1 -0 
2 119 25 1 0 -0 1 3.25
1 0 1 1 0 
2 269 25 1 0 -0 1 3.25
1 0 1 1 0 
8 -139.5 -129.5
1 129.5 21.75 -1 0 
8 -139.5 -129.5
1 -129.5 -1 -1 -0 
8 -139.5 -129.5
1 129.5 28.25 -1 0 
8 -139.5 -129.5
1 -129.5 -1 -1 -0 
2 259 25 1 0 -0 1 3.25
1 0 1 1 0 
2 333 37 1 0 -0 1 3
1 -6.2831853071795862 1 1 0 
8 -171.5 -161.5
1 161.5 40 -1 0 
8 -171.5 -161.5
1 -161.5 -1 -1 -0 
2 323 37 1 0 -0 1 3
1 0 1 1 0 
8 -171.5 -161.5
1 161.5 34 -1 0 
8 -171.5 -161.5
1 -161.5 -1 -1 -0 
1 0 18 1 0 
1 366 0 0 1 
1 50 0 0 1 
1 366 0 0 -1 
1 0 0 0 1 
1 0 18 1 0 
1 0 50 1 0 
1 0 -18 1 0 
2 333 13 1 0 -0 1 3
1 -6.2831853071795862 19 1 0 
8 -171.5 -161.5
1 161.5 16 -1 0 
8 -171.5 -161.5
1 -161.5 -19 -1 -0 
2 323 13 1 0 -0 1 3
1 0 19 1 0 
8 -171.5 -161.5
1 161.5 10 -1 0 
8 -171.5 -161.5
1 -161.5 -19 -1 -0 
2 129 25 1 0 -0 1 3.25
1 0 19 1 0 
8 -69.5 -59.5
1 59.5 21.75 -1 0 
8 -69.5 -59.5
1 -59.5 -19 -1 -0 
8 -69.5 -59.5
1 59.5 28.25 -1 0 
8 -69.5 -59.5
1 -59.5 -19 -1 -0 
2 119 25 1 0 -0 1 3.25
1 0 19 1 0 
2 269 25 1 0 -0 1 3.25
1 0 19 1 0 
8 -139.5 -129.5
1 129.5 21.75 -1 0 
8 -139.5 -129.5
1 -129.5 -19 -1 -0 
8 -139.5 -129.5
1 129.5 28.25 -1 0 
8 -139.5 -129.5
1 -129.5 -19 -1 -0 
2 259 25 1 0 -0 1 3.25
1 0 19 1 0 
2 333 37 1 0 -0 1 3
1 -6.2831853071795862 19 1 0 
8 -171.5 -161.5
1 161.5 40 -1 0 
8 -171.5 -161.5
1 -161.5 -19 -1 -0 
2 323 37 1 0 -0 1 3
1 0 19 1 0 
8 -171.5 -161.5
1 161.5 34 -1 0 
8 -171.5 -161.5
1 -161.5 -19 -1 -0 
1 50 0 0 1 
1 0 0 0 -1 
1 -1.5707963267948966 0 0 1 
1 10 0 0 -1 
1 1.5707963267948966 0 0 1 
1 10 0 0 -1 
1 0 0 0 -1 
1 1.5707963267948966 0 0 1 
1 4.7123889803846897 0 0 1 
1 0 0 0 -1 
1 7.8539816339744828 0 0 1 
1 10 0 0 -1 
1 4.7123889803846897 0 0 1 
1 10 0 0 -1 
1 0 0 0 -1 
1 4.7123889803846897 0 0 1 
1 0 0 0 -1 
1 1.5707963267948966 0 0 1 
1 7.8539816339744828 0 0 1 
1 10 0 0 -1 
1 4.7123889803846897 0 0 1 
1 10 0 0 -1 
1 0 0 0 -1 
1 4.7123889803846897 0 0 1 
1 0 0 0 -1 
1 1.5707963267948966 0 0 1 
1 -1.5707963267948966 0 0 1 
1 10 0 0 -1 
1 1.5707963267948966 0 0 1 
1 10 0 0 -1 
1 0 0 0 -1 
1 1.5707963267948966 0 0 1 
1 4.7123889803846897 0 0 1 
1 0 0 0 -1 
Curves 72
1 415 1230 870 0 0 1 
1 415 1234 917 0 -1 0 
1 415 1246 893.5 0 -0 1 
1 415 1234 935 0 -1 0 
1 415 1230 870 0 0 1 
1 415 1230 1236 -0 1 0 
1 415 1248 870 0 0 1 
1 415 1230 870 -0 1 0 
1 465 1230 870 0 0 1 
1 275 1240 917 1 0 0 
1 415 1230 870 1 0 -0 
1 135 1246 917 1 0 -0 
1 465 1228 917 -0 1 0 
1 465 1246 917 0 0 1 
1 135 1246 935 1 0 -0 
1 465 1228 935 -0 1 0 
1 275 1240 935 1 0 0 
1 465 1230 870 0 0 1 
1 415 1230 1236 1 0 -0 
2 428 1240 1203 0 1 0 0 -0 1 1 0 -0 3
1 431 1240 1031.5 -0 0 -1 
2 428 1240 1193 0 1 0 0 -0 1 1 0 -0 3
1 425 1240 1031.5 -0 0 -1 
2 440 1230 999 0 1 0 0 -0 1 1 0 -0 3.25
1 436.75 1230 929.5 -0 0 -1 
1 443.25 1230 929.5 -0 0 -1 
2 440 1230 989 0 1 0 0 -0 1 1 0 -0 3.25
2 440 1230 1139 0 1 0 0 -0 1 1 0 -0 3.25
1 436.75 1230 999.5 -0 0 -1 
1 443.25 1230 999.5 -0 0 -1 
2 440 1230 1129 0 1 0 0 -0 1 1 0 -0 3.25
2 452 1240 1203 0 1 0 0 -0 1 1 0 -0 3
1 455 1240 1031.5 -0 0 -1 
2 452 1240 1193 0 1 0 0 -0 1 1 0 -0 3
1 449 1240 1031.5 -0 0 -1 
1 415 1248 1236 1 0 -0 
1 465 1230 1236 -0 1 0 
1 415 1248 870 1 0 -0 
1 465 1248 870 0 0 1 
2 428 1258 1203 0 1 0 0 -0 1 1 0 -0 3
1 431 1258 1031.5 -0 0 -1 
2 428 1258 1193 0 1 0 0 -0 1 1 0 -0 3
1 425 1258 1031.5 -0 0 -1 
2 440 1248 999 0 1 0 0 -0 1 1 0 -0 3.25
1 436.75 1248 929.5 -0 0 -1 
1 443.25 1248 929.5 -0 0 -1 
2 440 1248 989 0 1 0 0 -0 1 1 0 -0 3.25
2 440 1248 1139 0 1 0 0 -0 1 1 0 -0 3.25
1 436.75 1248 999.5 -0 0 -1 
1 443.25 1248 999.5 -0 0 -1 
2 440 1248 1129 0 1 0 0 -0 1 1 0 -0 3.25
2 452 1258 1203 0 1 0 0 -0 1 1 0 -0 3
1 455 1258 1031.5 -0 0 -1 
2 452 1258 1193 0 1 0 0 -0 1 1 0 -0 3
1 449 1258 1031.5 -0 0 -1 
1 465 1230 870 -0 1 0 
1 425 1239 1203 -0 1 0 
1 431 1239 1203 -0 1 0 
1 431 1239 1193 -0 1 0 
1 425 1239 1193 -0 1 0 
1 443.25 1229 999 -0 1 0 
1 436.75 1229 999 -0 1 0 
1 436.75 1229 989 -0 1 0 
1 443.25 1229 989 -0 1 0 
1 443.25 1229 1139 -0 1 0 
1 436.75 1229 1139 -0 1 0 
1 436.75 1229 1129 -0 1 0 
1 443.25 1229 1129 -0 1 0 
1 449 1239 1203 -0 1 0 
1 455 1239 1203 -0 1 0 
1 455 1239 1193 -0 1 0 
1 449 1239 1193 -0 1 0 
Polygon3D 0
PolygonOnTriangulations 0
Surfaces 26
1 415 1230 870 1 0 -0 0 0 1 0 -1 0 
1 415 1230 870 -0 1 0 0 0 1 1 0 -0 
1 135 1228 917 0 0 1 1 0 -0 -0 1 0 
1 135 1246 917 -0 1 0 0 0 1 1 0 -0 
1 135 1228 935 0 0 1 1 0 -0 -0 1 0 
1 415 1230 870 -0 1 0 0 0 1 1 0 -0 
1 415 1230 1236 0 0 1 1 0 -0 -0 1 0 
1 415 1248 870 -0 1 0 0 0 1 1 0 -0 
1 415 1230 870 0 0 1 1 0 -0 -0 1 0 
1 465 1230 870 1 0 -0 0 0 1 0 -1 0 
2 428 1239 1203 0 1 0 0 -0 1 1 0 -0 3
1 431 1239 1193 1 0 -0 0 0 1 0 -1 0 
2 428 1239 1193 0 1 0 0 -0 1 1 0 -0 3
1 425 1239 1193 1 0 -0 0 0 1 0 -1 0 
2 440 1229 999 0 1 0 0 -0 1 1 0 -0 3.25
1 436.75 1229 989 1 0 -0 0 0 1 0 -1 0 
1 443.25 1229 989 1 0 -0 0 0 1 0 -1 0 
2 440 1229 989 0 1 0 0 -0 1 1 0 -0 3.25
2 440 1229 1139 0 1 0 0 -0 1 1 0 -0 3.25
1 436.75 1229 1129 1 0 -0 0 0 1 0 -1 0 
1 443.25 1229 1129 1 0 -0 0 0 1 0 -1 0 
2 440 1229 1129 0 1 0 0 -0 1 1 0 -0 3.25
2 452 1239 1203 0 1 0 0 -0 1 1 0 -0 3
1 455 1239 1193 1 0 -0 0 0 1 0 -1 0 
2 452 1239 1193 0 1 0 0 -0 1 1 0 -0 3
1 449 1239 1193 1 0 -0 0 0 1 0 -1 0 
Triangulations 0

TShapes 183
Ve
1.5e-07
415 1240 870
0 0

0101101
*
Ve
1.5e-07
415 1240 917
0 0

0101101
*
Ed
 1.5e-07 1 1 0
1  1 0 0 47
2  1 1 0 0 47
2  2 2 0 0 47
0

0101000
+183 7 -182 7 *
Ve
1.5e-07
415 1246 917
0 0

0101101
*
Ed
 1.5e-07 1 1 0
1  2 0 -12 -6
2  3 1 6 -12 -6
2  4 3 0 -12 -6
0

0101000
+180 8 -182 8 *
Ve
1.5e-07
415 1246 935
0 0

0101101
*
Ed
 1.5e-07 1 1 0
1  3 0 23.5 41.5
2  5 1 6 23.5 41.5
2  6 4 0 23.5 41.5
0

0101000
+180 8 -178 8 *
Ve
1.5e-07
415 1240 935
0 0

0101101
*
Ed
 1.5e-07 1 1 0
1  4 0 -12 -6
2  7 1 6 -12 -6
2  8 5 0 -12 -6
0

0101000
+178 8 -176 8 *
Ve
1.5e-07
415 1240 1236
0 0

0101101
*
Ed
 1.5e-07 1 1 0
1  5 0 65 366
2  9 1 0 65 366
2  10 6 0 65 366
0

0101000
+176 7 -174 7 *
Ve
1e-07
415 1258 1236
0 0

0101101
*
Ed
 1e-07 1 1 0
1  6 0 0 18
2  11 1 0 0 18
2  12 7 0 0 18
0

0101000
-172 7 +174 7 *
Ve
1e-07
415 1258 870
0 0

0101101
*
Ed
 1e-07 1 1 0
1  7 0 0 366
2  13 1 0 0 366
2  14 8 0 0 366
0

0101000
-172 7 +170 7 *
Ed
 1e-07 1 1 0
1  8 0 0 18
2  15 1 0 0 18
2  16 9 0 0 18
0

0101000
-170 7 +183 7 *
Wi

0101100
-181 6 +179 0 -177 0 -175 0 -173 6 -171 6 +169 6 +168 6 *
Fa
0  1e-07 1 6

0111000
+167 0 *
Ve
1.5e-07
465 1240 870
0 0

0101101
*
Ve
1.5e-07
465 1240 917
0 0

0101101
*
Ed
 1.5e-07 1 1 0
1  9 0 0 47
2  17 2 0 0 47
2  18 10 0 0 47
0

0101000
+165 7 -164 7 *
Ed
 1.5e-07 1 1 0
1  10 0 140 190
2  19 2 6 140 190
2  20 3 0 140 190
0

0101000
+182 8 -164 8 *
Ed
 1.5e-07 1 1 0
1  11 0 0 50
2  21 2 0 0 50
2  22 9 0 0 50
0

0101000
-165 7 +183 7 *
Wi

0101100
-163 6 +162 0 +181 6 -161 6 *
Fa
0  1e-07 2 6

0111000
+160 0 *
Ve
1.5e-07
465 1246 917
0 0

0101101
*
Ed
 1.5e-07 1 1 0
1  12 0 280 330
2  23 3 0 280 330
2  24 4 0 280 330
0

0101000
+180 8 -158 8 *
Ed
 1e-07 1 1 0
1  13 0 12 18
2  25 3 0 12 18
2  26 10 6 12 18
0

0101000
+164 8 -158 8 *
Wi

0101100
-157 0 +156 0 +162 0 +179 0 *
Fa
0  1e-07 3 0

0111000
+155 0 *
Ve
1.5e-07
465 1246 935
0 0

0101101
*
Ed
 1.5e-07 1 1 0
1  14 0 0 18
2  27 4 0 0 18
2  28 10 6 0 18
0

0101000
+158 8 -153 8 *
Ed
 1.5e-07 1 1 0
1  15 0 280 330
2  29 4 0 280 330
2  30 5 0 280 330
0

0101000
+178 8 -153 8 *
Wi

0101100
-157 0 -152 0 +151 0 +177 0 *
Fa
0  1e-07 4 0

0111000
+150 0 *
Ve
1.5e-07
465 1240 935
0 0

0101101
*
Ed
 1e-07 1 1 0
1  16 0 12 18
2  31 5 0 12 18
2  32 10 6 12 18
0

0101000
+148 8 -153 8 *
Ed
 1.5e-07 1 1 0
1  17 0 140 190
2  33 5 0 140 190
2  34 6 6 140 190
0

0101000
+176 8 -148 8 *
Wi

0101100
-151 0 +147 0 +146 0 +175 0 *
Fa
0  1e-07 5 0

0111000
+145 0 *
Ve
1.5e-07
465 1240 1236
0 0

0101101
*
Ed
 1.5e-07 1 1 0
1  18 0 65 366
2  35 6 0 65 366
2  36 10 0 65 366
0

0101000
+148 7 -143 7 *
Ed
 1.5e-07 1 1 0
1  19 0 0 50
2  37 6 0 0 50
2  38 7 0 0 50
0

0101000
-143 7 +174 7 *
Wi

0101100
-142 9 -146 5 +141 9 +173 9 *
Ve
1.5e-07
425 1240 1203
0 0

0101101
*
Ve
1.5e-07
431 1240 1203
0 0

0101101
*
Ed
 1e-07 1 1 0
1  20 0 4.71238898038469 7.85398163397448
2  39 6 9 4.71238898038469 7.85398163397448
2  40 11 0 4.71238898038469 7.85398163397448
0

0101000
+139 10 -138 10 *
Ve
1.5e-07
431 1240 1193
0 0

0101101
*
Ed
 1.5e-07 1 1 0
1  21 0 -171.5 -161.5
2  41 6 9 -171.5 -161.5
2  42 12 0 -171.5 -161.5
0

0101000
+138 10 -136 10 *
Ve
1.5e-07
425 1240 1193
0 0

0101101
*
Ed
 1e-07 1 1 0
1  22 0 1.5707963267949 4.71238898038469
2  43 6 9 1.5707963267949 4.71238898038469
2  44 13 0 1.5707963267949 4.71238898038469
0

0101000
+136 10 -134 10 *
Ed
 1.5e-07 1 1 0
1  23 0 -171.5 -161.5
2  45 6 9 -171.5 -161.5
2  46 14 0 -171.5 -161.5
0

0101000
+139 10 -134 10 *
Wi

0101100
-137 0 -135 0 -133 0 +132 0 *
Ve
1.5e-07
436.75 1240 999
0 0

0101101
*
Ve
1.5e-07
443.25 1240 999
0 0

0101101
*
Ed
 1e-07 1 1 0
1  24 0 4.71238898038469 7.85398163397448
2  47 6 0 4.71238898038469 7.85398163397448
2  48 15 0 4.71238898038469 7.85398163397448
0

0101000
+130 7 -129 7 *
Ve
1.5e-07
436.75 1240 989
0 0

0101101
*
Ed
 1.5e-07 1 1 0
1  25 0 -69.5 -59.5
2  49 6 0 -69.5 -59.5
2  50 16 0 -69.5 -59.5
0

0101000
+130 7 -127 7 *
Ve
1.5e-07
443.25 1240 989
0 0

0101101
*
Ed
 1.5e-07 1 1 0
1  26 0 -69.5 -59.5
2  51 6 0 -69.5 -59.5
2  52 17 0 -69.5 -59.5
0

0101000
+129 7 -125 7 *
Ed
 1e-07 1 1 0
1  27 0 1.5707963267949 4.71238898038469
2  53 6 0 1.5707963267949 4.71238898038469
2  54 18 0 1.5707963267949 4.71238898038469
0

0101000
+125 7 -127 7 *
Wi

0101100
-128 9 +126 9 -124 9 -123 9 *
Ve
1.5e-07
436.75 1240 1139
0 0

0101101
*
Ve
1.5e-07
443.25 1240 1139
0 0

0101101
*
Ed
 1e-07 1 1 0
1  28 0 4.71238898038469 7.85398163397448
2  55 6 0 4.71238898038469 7.85398163397448
2  56 19 0 4.71238898038469 7.85398163397448
0

0101000
+121 7 -120 7 *
Ve
1.5e-07
436.75 1240 1129
0 0

0101101
*
Ed
 1.5e-07 1 1 0
1  29 0 -139.5 -129.5
2  57 6 0 -139.5 -129.5
2  58 20 0 -139.5 -129.5
0

0101000
+121 7 -118 7 *
Ve
1.5e-07
443.25 1240 1129
0 0

0101101
*
Ed
 1.5e-07 1 1 0
1  30 0 -139.5 -129.5
2  59 6 0 -139.5 -129.5
2  60 21 0 -139.5 -129.5
0

0101000
+120 7 -116 7 *
Ed
 1e-07 1 1 0
1  31 0 1.5707963267949 4.71238898038469
2  61 6 0 1.5707963267949 4.71238898038469
2  62 22 0 1.5707963267949 4.71238898038469
0

0101000
+116 7 -118 7 *
Wi

0101100
-119 9 +117 9 -115 9 -114 9 *
Ve
1.5e-07
449 1240 1203
0 0

0101101
*
Ve
1.5e-07
455 1240 1203
0 0

0101101
*
Ed
 1e-07 1 1 0
1  32 0 4.71238898038469 7.85398163397448
2  63 6 9 4.71238898038469 7.85398163397448
2  64 23 0 4.71238898038469 7.85398163397448
0

0101000
+112 10 -111 10 *
Ve
1.5e-07
455 1240 1193
0 0

0101101
*
Ed
 1.5e-07 1 1 0
1  33 0 -171.5 -161.5
2  65 6 9 -171.5 -161.5
2  66 24 0 -171.5 -161.5
0

0101000
+111 10 -109 10 *
Ve
1.5e-07
449 1240 1193
0 0

0101101
*
Ed
 1e-07 1 1 0
1  34 0 1.5707963267949 4.71238898038469
2  67 6 9 1.5707963267949 4.71238898038469
2  68 25 0 1.5707963267949 4.71238898038469
0

0101000
+109 10 -107 10 *
Ed
 1.5e-07 1 1 0
1  35 0 -171.5 -161.5
2  69 6 9 -171.5 -161.5
2  70 26 0 -171.5 -161.5
0

0101000
+112 10 -107 10 *
Wi

0101100
-110 0 -108 0 -106 0 +105 0 *
Fa
0  1e-07 6 9

0111000
+140 0 +131 0 +122 0 +113 0 +104 0 *
Ve
1e-07
465 1258 1236
0 0

0101101
*
Ed
 1e-07 1 1 0
1  36 0 0 50
2  71 7 0 0 50
2  72 8 0 0 50
0

0101000
-102 7 +172 7 *
Ed
 1e-07 1 1 0
1  37 0 0 18
2  73 7 0 0 18
2  74 10 0 0 18
0

0101000
-102 7 +143 7 *
Wi

0101100
-171 0 -101 0 +100 0 +141 0 *
Fa
0  1e-07 7 0

0111000
+99 0 *
Ve
1e-07
465 1258 870
0 0

0101101
*
Ed
 1e-07 1 1 0
1  38 0 0 50
2  75 8 0 0 50
2  76 9 0 0 50
0

0101000
-97 7 +170 7 *
Ed
 1e-07 1 1 0
1  39 0 0 366
2  77 8 0 0 366
2  78 10 0 0 366
0

0101000
-102 7 +97 7 *
Wi

0101100
-96 9 -95 9 +169 9 +101 9 *
Ve
1.5e-07
425 1258 1203
0 0

0101101
*
Ve
1.5e-07
431 1258 1203
0 0

0101101
*
Ed
 1e-07 1 1 0
1  40 0 4.71238898038469 7.85398163397448
2  79 8 9 4.71238898038469 7.85398163397448
2  80 11 0 4.71238898038469 7.85398163397448
0

0101000
+93 10 -92 10 *
Ve
1.5e-07
431 1258 1193
0 0

0101101
*
Ed
 1.5e-07 1 1 0
1  41 0 -171.5 -161.5
2  81 8 9 -171.5 -161.5
2  82 12 0 -171.5 -161.5
0

0101000
+92 10 -90 10 *
Ve
1.5e-07
425 1258 1193
0 0

0101101
*
Ed
 1e-07 1 1 0
1  42 0 1.5707963267949 4.71238898038469
2  83 8 9 1.5707963267949 4.71238898038469
2  84 13 0 1.5707963267949 4.71238898038469
0

0101000
+90 10 -88 10 *
Ed
 1.5e-07 1 1 0
1  43 0 -171.5 -161.5
2  85 8 9 -171.5 -161.5
2  86 14 0 -171.5 -161.5
0

0101000
+93 10 -88 10 *
Wi

0101100
-91 0 -89 0 -87 0 +86 0 *
Ve
1.5e-07
436.75 1258 999
0 0

0101101
*
Ve
1.5e-07
443.25 1258 999
0 0

0101101
*
Ed
 1e-07 1 1 0
1  44 0 4.71238898038469 7.85398163397448
2  87 8 0 4.71238898038469 7.85398163397448
2  88 15 0 4.71238898038469 7.85398163397448
0

0101000
+84 7 -83 7 *
Ve
1.5e-07
436.75 1258 989
0 0

0101101
*
Ed
 1.5e-07 1 1 0
1  45 0 -69.5 -59.5
2  89 8 0 -69.5 -59.5
2  90 16 0 -69.5 -59.5
0

0101000
+84 7 -81 7 *
Ve
1.5e-07
443.25 1258 989
0 0

0101101
*
Ed
 1.5e-07 1 1 0
1  46 0 -69.5 -59.5
2  91 8 0 -69.5 -59.5
2  92 17 0 -69.5 -59.5
0

0101000
+83 7 -79 7 *
Ed
 1e-07 1 1 0
1  47 0 1.5707963267949 4.71238898038469
2  93 8 0 1.5707963267949 4.71238898038469
2  94 18 0 1.5707963267949 4.71238898038469
0

0101000
+79 7 -81 7 *
Wi

0101100
-82 9 +80 9 -78 9 -77 9 *
Ve
1.5e-07
436.75 1258 1139
0 0

0101101
*
Ve
1.5e-07
443.25 1258 1139
0 0

0101101
*
Ed
 1e-07 1 1 0
1  48 0 4.71238898038469 7.85398163397448
2  95 8 0 4.71238898038469 7.85398163397448
2  96 19 0 4.71238898038469 7.85398163397448
0

0101000
+75 7 -74 7 *
Ve
1.5e-07
436.75 1258 1129
0 0

0101101
*
Ed
 1.5e-07 1 1 0
1  49 0 -139.5 -129.5
2  97 8 0 -139.5 -129.5
2  98 20 0 -139.5 -129.5
0

0101000
+75 7 -72 7 *
Ve
1.5e-07
443.25 1258 1129
0 0

0101101
*
Ed
 1.5e-07 1 1 0
1  50 0 -139.5 -129.5
2  99 8 0 -139.5 -129.5
2  100 21 0 -139.5 -129.5
0

0101000
+74 7 -70 7 *
Ed
 1e-07 1 1 0
1  51 0 1.5707963267949 4.71238898038469
2  101 8 0 1.5707963267949 4.71238898038469
2  102 22 0 1.5707963267949 4.71238898038469
0

0101000
+70 7 -72 7 *
Wi

0101100
-73 9 +71 9 -69 9 -68 9 *
Ve
1.5e-07
449 1258 1203
0 0

0101101
*
Ve
1.5e-07
455 1258 1203
0 0

0101101
*
Ed
 1e-07 1 1 0
1  52 0 4.71238898038469 7.85398163397448
2  103 8 9 4.71238898038469 7.85398163397448
2  104 23 0 4.71238898038469 7.85398163397448
0

0101000
+66 10 -65 10 *
Ve
1.5e-07
455 1258 1193
0 0

0101101
*
Ed
 1.5e-07 1 1 0
1  53 0 -171.5 -161.5
2  105 8 9 -171.5 -161.5
2  106 24 0 -171.5 -161.5
0

0101000
+65 10 -63 10 *
Ve
1.5e-07
449 1258 1193
0 0

0101101
*
Ed
 1e-07 1 1 0
1  54 0 1.5707963267949 4.71238898038469
2  107 8 9 1.5707963267949 4.71238898038469
2  108 25 0 1.5707963267949 4.71238898038469
0

0101000
+63 10 -61 10 *
Ed
 1.5e-07 1 1 0
1  55 0 -171.5 -161.5
2  109 8 9 -171.5 -161.5
2  110 26 0 -171.5 -161.5
0

0101000
+66 10 -61 10 *
Wi

0101100
-64 0 -62 0 -60 0 +59 0 *
Fa
0  1e-07 8 9

0111000
+94 0 +85 0 +76 0 +67 0 +58 0 *
Ed
 1e-07 1 1 0
1  56 0 0 18
2  111 9 0 0 18
2  112 10 0 0 18
0

0101000
-97 7 +165 7 *
Wi

0101100
-168 0 -96 0 +56 0 +161 0 *
Fa
0  1e-07 9 0

0111000
+55 0 *
Wi

0101100
-163 6 -156 0 -152 0 +147 0 -142 6 -100 6 +95 6 +56 6 *
Fa
0  1e-07 10 6

0111000
+53 0 *
Ed
 1e-07 1 1 0
1  57 0 1 19
2  113 11 0 1 19
2  114 14 0 1 19
0

0101000
+139 10 -93 10 *
Ed
 1e-07 1 1 0
1  58 0 1 19
2  115 11 0 1 19
2  116 12 0 1 19
0

0101000
+138 10 -92 10 *
Wi

0101100
+137 0 -51 0 -91 0 +50 0 *
Fa
0  1e-07 11 0

0111000
+49 0 *
Ed
 1e-07 1 1 0
1  59 0 1 19
2  117 12 0 1 19
2  118 13 0 1 19
0

0101000
+136 10 -90 10 *
Wi

0101100
+135 0 -50 0 -89 0 +47 0 *
Fa
0  1e-07 12 0

0111000
+46 0 *
Ed
 1e-07 1 1 0
1  60 0 1 19
2  119 13 0 1 19
2  120 14 0 1 19
0

0101000
+134 10 -88 10 *
Wi

0101100
-87 0 +44 0 +133 0 -47 0 *
Fa
0  1e-07 13 0

0111000
+43 0 *
Wi

0101100
+132 0 -51 0 -86 0 +44 0 *
Fa
0  1e-07 14 0

0111000
+41 0 *
Ed
 1e-07 1 1 0
1  61 0 1 19
2  121 15 0 1 19
2  122 17 0 1 19
0

0101000
+129 7 -83 7 *
Ed
 1e-07 1 1 0
1  62 0 1 19
2  123 15 0 1 19
2  124 16 0 1 19
0

0101000
+130 7 -84 7 *
Wi

0101100
-82 0 +39 0 +128 0 -38 0 *
Fa
0  1e-07 15 0

0111000
+37 0 *
Ed
 1e-07 1 1 0
1  63 0 1 19
2  125 16 0 1 19
2  126 18 0 1 19
0

0101000
+127 7 -81 7 *
Wi

0101100
+126 0 -38 0 -80 0 +35 0 *
Fa
0  1e-07 16 0

0111000
+34 0 *
Ed
 1e-07 1 1 0
1  64 0 1 19
2  127 17 0 1 19
2  128 18 0 1 19
0

0101000
+125 7 -79 7 *
Wi

0101100
+124 0 -39 0 -78 0 +32 0 *
Fa
0  1e-07 17 0

0111000
+31 0 *
Wi

0101100
-77 0 +35 0 +123 0 -32 0 *
Fa
0  1e-07 18 0

0111000
+29 0 *
Ed
 1e-07 1 1 0
1  65 0 1 19
2  129 19 0 1 19
2  130 21 0 1 19
0

0101000
+120 7 -74 7 *
Ed
 1e-07 1 1 0
1  66 0 1 19
2  131 19 0 1 19
2  132 20 0 1 19
0

0101000
+121 7 -75 7 *
Wi

0101100
-73 0 +27 0 +119 0 -26 0 *
Fa
0  1e-07 19 0

0111000
+25 0 *
Ed
 1e-07 1 1 0
1  67 0 1 19
2  133 20 0 1 19
2  134 22 0 1 19
0

0101000
+118 7 -72 7 *
Wi

0101100
+117 0 -26 0 -71 0 +23 0 *
Fa
0  1e-07 20 0

0111000
+22 0 *
Ed
 1e-07 1 1 0
1  68 0 1 19
2  135 21 0 1 19
2  136 22 0 1 19
0

0101000
+116 7 -70 7 *
Wi

0101100
+115 0 -27 0 -69 0 +20 0 *
Fa
0  1e-07 21 0

0111000
+19 0 *
Wi

0101100
-68 0 +23 0 +114 0 -20 0 *
Fa
0  1e-07 22 0

0111000
+17 0 *
Ed
 1e-07 1 1 0
1  69 0 1 19
2  137 23 0 1 19
2  138 26 0 1 19
0

0101000
+112 10 -66 10 *
Ed
 1e-07 1 1 0
1  70 0 1 19
2  139 23 0 1 19
2  140 24 0 1 19
0

0101000
+111 10 -65 10 *
Wi

0101100
+110 0 -15 0 -64 0 +14 0 *
Fa
0  1e-07 23 0

0111000
+13 0 *
Ed
 1e-07 1 1 0
1  71 0 1 19
2  141 24 0 1 19
2  142 25 0 1 19
0

0101000
+109 10 -63 10 *
Wi

0101100
+108 0 -14 0 -62 0 +11 0 *
Fa
0  1e-07 24 0

0111000
+10 0 *
Ed
 1e-07 1 1 0
1  72 0 1 19
2  143 25 0 1 19
2  144 26 0 1 19
0

0101000
+107 10 -61 10 *
Wi

0101100
-60 0 +8 0 +106 0 -11 0 *
Fa
0  1e-07 25 0

0111000
+7 0 *
Wi

0101100
+105 0 -15 0 -59 0 +8 0 *
Fa
0  1e-07 26 0

0111000
+5 0 *
Sh

0101100
-166 5 -159 5 +154 5 -149 5 -144 5 -103 0 +98 9 +57 0 -54 9 +52 5 
-48 0 -45 0 -42 0 +40 0 -36 9 +33 9 -30 9 -28 9 -24 9 +21 9 
-18 9 -16 9 -12 0 -9 0 -6 0 +4 0 *
So

0100000
+3 0 *
Co

1100000
+2 0 *

+1 4 