DBRep_DrawableShape

CASCADE Topology V1, (c) Matra-Datavision
Locations 4
1
              1               0               0               0 
              0               1               0               0 
              0               0               1               0 
2  1 -1 0
1
              1               0               0               0 
              0               1               0             -12 
              0               0               1               0 
2  3 -1 1 -1 0
Curve2ds 56
1 0 0 1 0 
1 0 0 1 0 
1 128 0 0 -1 
1 0 0 0 1 
1 0 -6 1 0 
1 0 0 1 0 
1 0 0 0 -1 
1 0 0 0 1 
1 0 0 0 1 
1 0 0 1 0 
1 0 128 1 0 
1 0 0 1 0 
1 128 0 0 1 
1 0 0 1 0 
2 11.5 11.5 1 0 -0 1 2.25
1 0 322.09999999999991 1 0 
2 116.5 11.5 1 0 -0 1 2.25
1 0 322.09999999999991 1 0 
2 11.5 116.5 1 0 -0 1 2.25
1 0 322.09999999999991 1 0 
2 116.5 116.5 1 0 -0 1 2.25
1 0 322.09999999999991 1 0 
1 0 6 1 0 
1 128 0 0 1 
1 128 0 0 1 
1 128 0 0 -1 
1 0 0 0 1 
1 0 6 1 0 
1 0 128 1 0 
1 0 -6 1 0 
2 11.5 11.5 1 0 -0 1 2.25
1 0 328.09999999999991 1 0 
1 0 0 1 0 
1 0 -12 1 0 
2 116.5 11.5 1 0 -0 1 2.25
1 0 328.09999999999991 1 0 
1 0 0 1 0 
1 0 -12 1 0 
2 11.5 116.5 1 0 -0 1 2.25
1 0 328.09999999999991 1 0 
1 0 0 1 0 
1 0 -12 1 0 
2 116.5 116.5 1 0 -0 1 2.25
1 0 328.09999999999991 1 0 
1 0 0 1 0 
1 0 -12 1 0 
1 128 0 0 1 
1 0 0 0 -1 
1 6.2831853071795862 -0 0 1 
1 0 -0 0 1 
1 6.2831853071795862 -0 0 1 
1 0 -0 0 1 
1 6.2831853071795862 -0 0 1 
1 0 -0 0 1 
1 6.2831853071795862 -0 0 1 
1 0 -0 0 1 
Curves 24
1 381 1322.0999999999999 1096 0 0 1 
1 381 1322.0999999999999 1224 -0 1 0 
1 381 1328.0999999999999 1096 0 0 1 
1 381 1322.0999999999999 1096 -0 1 0 
1 381 1322.0999999999999 1096 1 0 -0 
1 509 1322.0999999999999 1096 0 0 1 
1 381 1322.0999999999999 1224 1 0 -0 
2 392.5 1322.0999999999999 1107.5 0 1 0 0 -0 1 1 0 -0 2.25
2 392.5 1322.0999999999999 1212.5 0 1 0 0 -0 1 1 0 -0 2.25
2 497.5 1322.0999999999999 1107.5 0 1 0 0 -0 1 1 0 -0 2.25
2 497.5 1322.0999999999999 1212.5 0 1 0 0 -0 1 1 0 -0 2.25
1 381 1328.0999999999999 1224 1 0 -0 
1 509 1322.0999999999999 1224 -0 1 0 
1 381 1328.0999999999999 1096 1 0 -0 
1 509 1328.0999999999999 1096 0 0 1 
2 392.5 1328.0999999999999 1107.5 0 1 0 0 -0 1 1 0 -0 2.25
2 392.5 1328.0999999999999 1212.5 0 1 0 0 -0 1 1 0 -0 2.25
2 497.5 1328.0999999999999 1107.5 0 1 0 0 -0 1 1 0 -0 2.25
2 497.5 1328.0999999999999 1212.5 0 1 0 0 -0 1 1 0 -0 2.25
1 509 1322.0999999999999 1096 -0 1 0 
1 392.5 1000 1109.75 0 1 0 
1 392.5 1000 1214.75 0 1 0 
1 497.5 1000 1109.75 0 1 0 
1 497.5 1000 1214.75 0 1 0 
Polygon3D 0
PolygonOnTriangulations 0
Surfaces 14
1 381 1322.0999999999999 1096 1 0 -0 0 0 1 0 -1 0 
1 381 1322.0999999999999 1096 -0 1 0 0 0 1 1 0 -0 
1 381 1322.0999999999999 1224 0 0 1 1 0 -0 -0 1 0 
1 381 1328.0999999999999 1096 -0 1 0 0 0 1 1 0 -0 
1 381 1322.0999999999999 1096 0 0 1 1 0 -0 -0 1 0 
1 509 1322.0999999999999 1096 1 0 -0 0 0 1 0 -1 0 
2 392.5 1000 1107.5 0 1 0 0 -0 1 1 0 -0 2.25
2 392.5 1000 1212.5 0 1 0 0 -0 1 1 0 -0 2.25
2 497.5 1000 1107.5 0 1 0 0 -0 1 1 0 -0 2.25
2 497.5 1000 1212.5 0 1 0 0 -0 1 1 0 -0 2.25
2 392.5 1328.0999999999999 1107.5 0 1 0 0 0 1 1 0 0 2.25
2 392.5 1328.0999999999999 1212.5 0 1 0 0 0 1 1 0 0 2.25
2 497.5 1328.0999999999999 1107.5 0 1 0 0 0 1 1 0 0 2.25
2 497.5 1328.0999999999999 1212.5 0 1 0 0 0 1 1 0 0 2.25
Triangulations 0

TShapes 71
Ve
1e-07
381 1322.1 1224
0 0

0101101
*
Ve
1e-07
381 1322.1 1096
0 0

0101101
*
Ed
 1e-07 1 1 0
1  1 0 0 128
2  1 1 0 0 128
2  2 2 0 0 128
0

0101000
-71 2 +70 2 *
Ve
1e-07
381 1328.1 1224
0 0

0101101
*
Ed
 1e-07 1 1 0
1  2 0 0 6
2  3 1 0 0 6
2  4 3 0 0 6
0

0101000
-68 2 +71 2 *
Ve
1e-07
381 1328.1 1096
0 0

0101101
*
Ed
 1e-07 1 1 0
1  3 0 0 128
2  5 1 0 0 128
2  6 4 0 0 128
0

0101000
-68 2 +66 2 *
Ed
 1e-07 1 1 0
1  4 0 0 6
2  7 1 0 0 6
2  8 5 0 0 6
0

0101000
-66 2 +70 2 *
Wi

0101100
-69 0 -67 0 +65 0 +64 0 *
Fa
0  1e-07 1 0

0111000
+63 0 *
Ve
1e-07
509 1322.1 1096
0 0

0101101
*
Ed
 1e-07 1 1 0
1  5 0 0 128
2  9 2 0 0 128
2  10 5 0 0 128
0

0101000
-61 2 +70 2 *
Ve
1e-07
509 1322.1 1224
0 0

0101101
*
Ed
 1e-07 1 1 0
1  6 0 0 128
2  11 2 0 0 128
2  12 6 0 0 128
0

0101000
-59 2 +61 2 *
Ed
 1e-07 1 1 0
1  7 0 0 128
2  13 2 0 0 128
2  14 3 0 0 128
0

0101000
-59 2 +71 2 *
Wi

0101100
-60 0 -58 0 +69 0 +57 0 *
Ve
1e-07
392.5 1322.1 1109.75
0 0

0101101
*
Ed
 1e-07 1 1 0
1  8 0 0 6.28318530717959
2  15 2 0 0 6.28318530717959
2  16 7 0 0 6.28318530717959
0

0101100
+55 2 -55 2 *
Wi

0101100
-54 0 *
Ve
1e-07
392.5 1322.1 1214.75
0 0

0101101
*
Ed
 1e-07 1 1 0
1  9 0 0 6.28318530717959
2  17 2 0 0 6.28318530717959
2  18 8 0 0 6.28318530717959
0

0101100
+52 2 -52 2 *
Wi

0101100
-51 0 *
Ve
1e-07
497.5 1322.1 1109.75
0 0

0101101
*
Ed
 1e-07 1 1 0
1  10 0 0 6.28318530717959
2  19 2 0 0 6.28318530717959
2  20 9 0 0 6.28318530717959
0

0101100
+49 2 -49 2 *
Wi

0101100
-48 0 *
Ve
1e-07
497.5 1322.1 1214.75
0 0

0101101
*
Ed
 1e-07 1 1 0
1  11 0 0 6.28318530717959
2  21 2 0 0 6.28318530717959
2  22 10 0 0 6.28318530717959
0

0101100
+46 2 -46 2 *
Wi

0101100
-45 0 *
Fa
0  1e-07 2 0

0111000
+56 0 +53 0 +50 0 +47 0 +44 0 *
Ve
1e-07
509 1328.1 1224
0 0

0101101
*
Ed
 1e-07 1 1 0
1  12 0 0 128
2  23 3 0 0 128
2  24 4 0 0 128
0

0101000
-42 2 +68 2 *
Ed
 1e-07 1 1 0
1  13 0 0 6
2  25 3 0 0 6
2  26 6 0 0 6
0

0101000
-42 2 +59 2 *
Wi

0101100
-67 0 -41 0 +40 0 +57 0 *
Fa
0  1e-07 3 0

0111000
+39 0 *
Ve
1e-07
509 1328.1 1096
0 0

0101101
*
Ed
 1e-07 1 1 0
1  14 0 0 128
2  27 4 0 0 128
2  28 5 0 0 128
0

0101000
-37 2 +66 2 *
Ed
 1e-07 1 1 0
1  15 0 0 128
2  29 4 0 0 128
2  30 6 0 0 128
0

0101000
-42 2 +37 2 *
Wi

0101100
-36 0 -35 0 +65 0 +41 0 *
Ve
1e-07
392.5 1328.1 1109.75
0 0

0101101
*
Ed
 1e-07 1 1 0
1  16 0 0 6.28318530717959
2  31 4 0 0 6.28318530717959
2  32 7 0 0 6.28318530717959
2  33 11 2 0 6.28318530717959
2  34 11 4 0 6.28318530717959
0

0101100
+33 2 -33 2 *
Wi

0101100
-32 0 *
Ve
1e-07
392.5 1328.1 1214.75
0 0

0101101
*
Ed
 1e-07 1 1 0
1  17 0 0 6.28318530717959
2  35 4 0 0 6.28318530717959
2  36 8 0 0 6.28318530717959
2  37 12 2 0 6.28318530717959
2  38 12 4 0 6.28318530717959
0

0101100
+30 2 -30 2 *
Wi

0101100
-29 0 *
Ve
1e-07
497.5 1328.1 1109.75
0 0

0101101
*
Ed
 1e-07 1 1 0
1  18 0 0 6.28318530717959
2  39 4 0 0 6.28318530717959
2  40 9 0 0 6.28318530717959
2  41 13 2 0 6.28318530717959
2  42 13 4 0 6.28318530717959
0

0101100
+27 2 -27 2 *
Wi

0101100
-26 0 *
Ve
1e-07
497.5 1328.1 1214.75
0 0

0101101
*
Ed
 1e-07 1 1 0
1  19 0 0 6.28318530717959
2  43 4 0 0 6.28318530717959
2  44 10 0 0 6.28318530717959
2  45 14 2 0 6.28318530717959
2  46 14 4 0 6.28318530717959
0

0101100
+24 2 -24 2 *
Wi

0101100
-23 0 *
Fa
0  1e-07 4 0

0101000
+34 0 +31 0 +28 0 +25 0 +22 0 *
Ed
 1e-07 1 1 0
1  20 0 0 6
2  47 5 0 0 6
2  48 6 0 0 6
0

0101000
-37 2 +61 2 *
Wi

0101100
-64 0 -36 0 +20 0 +60 0 *
Fa
0  1e-07 5 0

0111000
+19 0 *
Wi

0101100
-58 0 -40 0 +35 0 +20 0 *
Fa
0  1e-07 6 0

0111000
+17 0 *
Ed
 1e-07 1 1 0
1  21 0 322.1 328.1
3  49 50CN 7 0 322.1 328.1
0

0101000
+55 2 -33 2 *
Wi

0101100
-32 0 +15 0 +54 0 -15 0 *
Fa
0  1e-07 7 0

0111000
+14 0 *
Ed
 1e-07 1 1 0
1  22 0 322.1 328.1
3  51 52CN 8 0 322.1 328.1
0

0101000
+52 2 -30 2 *
Wi

0101100
-29 0 +12 0 +51 0 -12 0 *
Fa
0  1e-07 8 0

0111000
+11 0 *
Ed
 1e-07 1 1 0
1  23 0 322.1 328.1
3  53 54CN 9 0 322.1 328.1
0

0101000
+49 2 -27 2 *
Wi

0101100
-26 0 +9 0 +48 0 -9 0 *
Fa
0  1e-07 9 0

0111000
+8 0 *
Ed
 1e-07 1 1 0
1  24 0 322.1 328.1
3  55 56CN 10 0 322.1 328.1
0

0101000
+46 2 -24 2 *
Wi

0101100
-23 0 +6 0 +45 0 -6 0 *
Fa
0  1e-07 10 0

0111000
+5 0 *
Sh

0101100
-62 0 -43 0 +38 0 +21 0 -18 0 +16 0 -13 0 -10 0 -7 0 -4 0 
*
So

0100000
+3 0 *
Co

1100000
+2 0 *

+1 1 