DBRep_DrawableShape

CASCADE Topology V1, (c) Matra-Datavision
Locations 0
Curve2ds 72
1 0 0 0 1 
1 0 0 1 0 
1 0 0 1 0 
1 0 244 1 0 
1 110 0 0 1 
1 0 0 1 0 
1 0 0 1 0 
1 0 0 1 0 
1 32 0 0 -1 
1 0 0 0 1 
1 0 -12 1 0 
1 0 0 1 0 
1 0 0 0 -1 
1 0 0 0 1 
1 0 0 1 0 
1 0 3 1 0 
1 32 0 0 1 
1 0 0 1 0 
1 0 0 0 1 
1 0 12 1 0 
1 32 0 0 -1 
1 3 0 0 1 
1 0 -36 1 0 
1 0 3 1 0 
1 0 0 0 -1 
1 3 0 0 1 
1 32 0 0 1 
1 0 36 1 0 
1 12 0 0 1 
1 0 36 1 0 
1 0 0 0 1 
1 0 36 1 0 
1 0 0 0 -1 
1 12 0 0 1 
1 0 0 0 -1 
1 0 0 0 1 
1 0 0 0 1 
1 0 36 1 0 
1 0 0 0 -1 
1 0 0 0 1 
1 0 0 0 -1 
1 244 0 0 1 
1 0 0 1 0 
1 0 0 1 0 
1 0 0 0 1 
1 0 0 1 0 
1 0 0 1 0 
1 0 12 1 0 
1 98 0 0 -1 
1 12 0 0 1 
1 0 -36 1 0 
1 0 12 1 0 
1 0 0 0 1 
1 0 36 1 0 
1 98 0 0 -1 
1 0 0 0 1 
1 0 -36 1 0 
1 0 0 1 0 
1 0 -12 1 0 
1 0 244 1 0 
1 32 0 0 1 
1 0 0 1 0 
1 0 0 1 0 
1 0 0 1 0 
1 32 0 0 -1 
1 0 0 0 1 
1 0 -36 1 0 
1 0 0 1 0 
1 32 0 0 1 
1 0 36 1 0 
1 32 0 0 -1 
1 3 0 0 1 
Curves 40
1 3 1262.0999999999999 686 1 0 -0 
1 247 1262.0999999999999 686 0 0 1 
1 3 1262.0999999999999 796 1 0 -0 
1 3 1262.0999999999999 686 0 0 1 
1 3 1262.0999999999999 796 -0 1 0 
1 3 1310.0999999999999 784 0 0 1 
1 3 1274.0999999999999 718 -0 1 0 
1 3 1274.0999999999999 686 0 0 1 
1 3 1262.0999999999999 686 -0 1 0 
1 6 1274.0999999999999 686 0 0 1 
1 3 1274.0999999999999 718 1 0 -0 
1 3 1274.0999999999999 686 1 0 -0 
1 6 1274.0999999999999 718 -0 1 0 
1 6 1310.0999999999999 686 0 0 1 
1 6 1274.0999999999999 686 -0 1 0 
1 3 1310.0999999999999 718 1 0 -0 
1 247 1262.0999999999999 796 -0 1 0 
1 3 1310.0999999999999 796 1 0 -0 
1 3 1310.0999999999999 686 1 0 -0 
1 15 1274.0999999999999 686 -0 1 0 
1 235 1274.0999999999999 686 -0 1 0 
1 235 1310.0999999999999 686 1 0 -0 
1 244 1274.0999999999999 686 -0 1 0 
1 247 1262.0999999999999 686 -0 1 0 
1 235 1274.0999999999999 686 0 0 1 
1 3 1274.0999999999999 784 1 0 -0 
1 15 1274.0999999999999 686 0 0 1 
1 15 1274.0999999999999 784 -0 1 0 
1 15 1310.0999999999999 686 0 0 1 
1 3 1310.0999999999999 784 1 0 -0 
1 235 1274.0999999999999 784 -0 1 0 
1 235 1310.0999999999999 686 0 0 1 
1 247 1274.0999999999999 686 0 0 1 
1 244 1274.0999999999999 718 1 0 -0 
1 244 1274.0999999999999 686 0 0 1 
1 244 1274.0999999999999 718 -0 1 0 
1 244 1310.0999999999999 686 0 0 1 
1 244 1310.0999999999999 718 1 0 -0 
1 247 1274.0999999999999 718 -0 1 0 
1 247 1310.0999999999999 686 0 0 1 
Polygon3D 0
PolygonOnTriangulations 0
Surfaces 37
1 3 1262.0999999999999 686 -0 1 0 0 0 1 1 0 -0 
1 3 1262.0999999999999 686 0 0 1 1 0 -0 -0 1 0 
1 247 1262.0999999999999 686 1 0 -0 0 0 1 0 -1 0 
1 3 1262.0999999999999 796 0 0 1 1 0 -0 -0 1 0 
1 3 1262.0999999999999 686 1 0 -0 0 0 1 0 -1 0 
1 3 1282.4544303797463 744.64556962025313 -1 -0 -0 0 0 -1 0 -1 0 
1 3 1274.0999999999999 686 1 0 -0 0 0 1 0 -1 0 
1 3 1274.0999999999999 718 0 0 1 1 0 -0 -0 1 0 
1 3 1274.0999999999999 686 -0 1 0 0 0 1 1 0 -0 
1 6 1274.0999999999999 686 1 0 -0 0 0 1 0 -1 0 
1 3 1274.0999999999999 686 -0 1 0 0 0 1 1 0 -0 
1 3 1310.0999999999999 686 -0 1 0 0 0 1 1 0 -0 
1 3 1274.0999999999999 686 0 0 1 1 0 -0 -0 1 0 
1 125 1286.0999999999999 796 0 0 1 1 0 -0 -0 1 0 
1 3 1310.0999999999999 784 -0 1 0 0 0 1 1 0 -0 
1 3 1274.0999999999999 796 0 0 1 1 0 -0 -0 1 0 
1 125 1274.3560975609753 686 -0 -0 -1 -1 0 0 0 1 -0 
1 3 1310.0999999999999 686 -0 1 0 0 0 1 1 0 -0 
1 3 1274.0999999999999 686 0 0 1 1 0 -0 -0 1 0 
1 15 1274.0999999999999 686 1 0 -0 0 0 1 0 -1 0 
1 235 1274.0999999999999 686 1 0 -0 0 0 1 0 -1 0 
1 235 1274.0999999999999 686 0 0 1 1 0 -0 -0 1 0 
1 235 1310.0999999999999 686 -0 1 0 0 0 1 1 0 -0 
1 244 1274.0999999999999 686 1 0 -0 0 0 1 0 -1 0 
1 244 1274.0999999999999 686 0 0 1 1 0 -0 -0 1 0 
1 235 1274.0999999999999 686 -0 1 0 0 0 1 1 0 -0 
1 3 1274.0999999999999 784 -0 1 0 0 0 1 1 0 -0 
1 3 1274.0999999999999 784 0 0 1 1 0 -0 -0 1 0 
1 3 1274.0999999999999 686 -0 1 0 0 0 1 1 0 -0 
1 3 1274.0999999999999 784 0 0 1 1 0 -0 -0 1 0 
1 235 1274.0999999999999 784 0 0 1 1 0 -0 -0 1 0 
1 244 1274.0999999999999 686 -0 1 0 0 0 1 1 0 -0 
1 244 1274.0999999999999 718 0 0 1 1 0 -0 -0 1 0 
1 244 1310.0999999999999 686 -0 1 0 0 0 1 1 0 -0 
1 247 1274.0999999999999 686 1 0 -0 0 0 1 0 -1 0 
1 247 1282.4544303797463 744.64556962025313 1 0 0 -0 0 1 0 -1 0 
1 125 1310.0999999999999 763.7610619469026 0 1 0 0 -0 1 1 0 -0 
Triangulations 0

TShapes 105
Ve
1e-07
247 1262.1 686
0 0

0101101
*
Ve
1e-07
3 1262.1 686
0 0

0101101
*
Ed
 1e-07 1 1 0
1  1 0 0 244
2  1 1 0 0 244
2  2 2 0 0 244
0

0101000
-105 0 +104 0 *
Ve
1e-07
247 1262.1 796
0 0

0101101
*
Ed
 1e-07 1 1 0
1  2 0 0 110
2  3 3 0 0 110
2  4 1 0 0 110
0

0101000
-102 0 +105 0 *
Ve
1e-07
3 1262.1 796
0 0

0101101
*
Ed
 1e-07 1 1 0
1  3 0 0 244
2  5 1 0 0 244
2  6 4 0 0 244
0

0101000
-102 0 +100 0 *
Ed
 1e-07 1 1 0
1  4 0 0 110
2  7 5 0 0 110
2  8 1 0 0 110
0

0101000
-100 0 +104 0 *
Wi

0101100
-103 0 -101 0 +99 0 +98 0 *
Fa
0  1e-07 1 0

0101000
+97 0 *
Ve
1e-07
3 1310.1 796
0 0

0101101
*
Ed
 1e-07 1 1 0
1  5 0 0 48
0

0101000
+100 0 -95 0 *
Ve
1e-07
3 1310.1 718
0 0

0101101
*
Ed
 1e-07 1 1 0
1  6 0 -66 12
0

0101000
+93 0 -95 0 *
Ve
1e-07
3 1274.1 718
0 0

0101101
*
Ed
 1e-07 1 1 0
1  7 0 0 36
2  9 7 0 0 36
2  10 8 0 0 36
0

0101000
+91 0 -93 0 *
Ve
1e-07
3 1274.1 686
0 0

0101101
*
Ed
 1e-07 1 1 0
1  8 0 0 32
2  11 5 0 0 32
2  12 9 0 0 32
0

0101000
+89 0 -91 0 *
Ed
 1e-07 1 1 0
1  9 0 0 12
2  13 5 0 0 12
2  14 2 0 0 12
0

0101000
-89 0 +104 0 *
Wi

0101000
+98 0 +94 0 -92 0 -90 0 -88 0 -87 0 *
Fa
0  1e-07 6 0

0111000
+86 0 *
Ve
1e-07
6 1274.1 686
0 0

0101101
*
Ve
1e-07
6 1274.1 718
0 0

0101101
*
Ed
 1e-07 1 1 0
1  10 0 0 32
2  15 10 0 0 32
2  16 11 0 0 32
0

0101000
+84 0 -83 0 *
Ed
 1e-07 1 1 0
1  11 0 0 3
2  17 11 0 0 3
2  18 8 0 0 3
0

0101000
+91 0 -83 0 *
Ed
 1e-07 1 1 0
1  12 0 0 3
2  19 9 0 0 3
2  20 2 0 0 3
0

0101000
+89 0 -84 0 *
Wi

0101100
-82 0 +81 0 +88 0 -80 0 *
Fa
0  1e-07 9 0

0101000
+79 0 *
Ve
1e-07
6 1310.1 718
0 0

0101101
*
Ed
 1e-07 1 1 0
1  13 0 0 36
2  21 10 0 0 36
2  22 8 0 0 36
0

0101000
+83 0 -77 0 *
Ve
1e-07
6 1310.1 686
0 0

0101101
*
Ed
 1e-07 1 1 0
1  14 0 0 32
2  23 10 0 0 32
2  24 12 0 0 32
0

0101000
+75 0 -77 0 *
Ed
 1e-07 1 1 0
1  15 0 0 36
2  25 10 0 0 36
2  26 13 0 0 36
0

0101000
+84 0 -75 0 *
Wi

0101100
-82 0 -76 0 +74 0 +73 0 *
Fa
0  1e-07 10 0

0101000
+72 0 *
Ed
 1e-07 1 1 0
1  16 0 0 3
2  27 12 0 0 3
2  28 8 0 0 3
0

0101000
+93 0 -77 0 *
Wi

0101100
-90 0 -70 0 +76 0 +81 0 *
Fa
0  1e-07 8 0

0101000
+69 0 *
Ve
1e-07
247 1310.1 796
0 0

0101101
*
Ed
 1e-07 1 1 0
1  17 0 0 48
0

0101000
+102 0 -67 0 *
Ed
 1e-07 1 1 0
1  18 0 0 244
2  29 15 0 0 244
2  30 16 0 0 244
0

0101000
-67 0 +95 0 *
Wi

0101000
-94 0 +99 0 +66 0 -65 0 *
Fa
0  1e-07 14 0

0111000
+64 0 *
Ve
1e-07
15 1310.1 686
0 0

0101101
*
Ed
 1e-07 1 1 0
1  19 0 3 12
2  31 18 0 3 12
2  32 19 0 3 12
0

0101000
+75 0 -62 0 *
Ve
1e-07
15 1274.1 686
0 0

0101101
*
Ed
 1e-07 1 1 0
1  20 0 0 36
2  33 20 0 0 36
2  34 19 0 0 36
0

0101000
+60 0 -62 0 *
Ve
1e-07
235 1274.1 686
0 0

0101101
*
Ed
 1e-07 1 1 0
1  12 0 12 232
2  19 9 0 12 232
2  20 2 0 12 232
0

0101000
+60 0 -58 0 *
Ve
1e-07
235 1310.1 686
0 0

0101101
*
Ed
 1e-07 1 1 0
1  21 0 0 36
2  35 21 0 0 36
2  36 22 0 0 36
0

0101000
+58 0 -56 0 *
Ve
1e-07
244 1310.1 686
0 0

0101101
*
Ed
 1e-07 1 1 0
1  22 0 0 9
2  37 23 0 0 9
2  38 22 0 0 9
0

0101000
+56 0 -54 0 *
Ve
1e-07
244 1274.1 686
0 0

0101101
*
Ed
 1e-07 1 1 0
1  23 0 0 36
2  39 24 0 0 36
2  40 25 0 0 36
0

0101000
+52 0 -54 0 *
Ve
1e-07
247 1274.1 686
0 0

0101101
*
Ed
 1e-07 1 1 0
1  12 0 241 244
2  19 9 0 241 244
2  20 2 0 241 244
0

0101000
+52 0 -50 0 *
Ed
 1e-07 1 1 0
1  24 0 0 12
2  41 3 0 0 12
2  42 2 0 0 12
0

0101000
-50 0 +105 0 *
Wi

0101100
+87 0 +80 0 +73 0 +61 0 -59 0 +57 0 +55 0 +53 0 -51 0 +49 0 
-48 0 -103 0 *
Fa
0  1e-07 17 0

0101000
+47 0 *
Ve
1e-07
235 1274.1 784
0 0

0101101
*
Ed
 1e-07 1 1 0
1  25 0 0 98
2  43 21 0 0 98
2  44 26 0 0 98
0

0101000
+58 0 -45 0 *
Ve
1e-07
15 1274.1 784
0 0

0101101
*
Ed
 1e-07 1 1 0
1  26 0 12 232
2  45 27 0 12 232
2  46 28 0 12 232
0

0101000
+43 0 -45 0 *
Ed
 1e-07 1 1 0
1  27 0 0 98
2  47 20 0 0 98
2  48 29 0 0 98
0

0101000
+60 0 -43 0 *
Wi

0101100
-44 0 +42 0 +41 0 -57 0 *
Fa
0  1e-07 9 0

0101000
+40 0 *
Ve
1e-07
15 1310.1 784
0 0

0101101
*
Ed
 1e-07 1 1 0
1  28 0 0 36
2  49 20 0 0 36
2  50 30 0 0 36
0

0101000
+43 0 -38 0 *
Ed
 1e-07 1 1 0
1  29 0 0 98
2  51 20 0 0 98
2  52 18 0 0 98
0

0101000
+62 0 -38 0 *
Wi

0101100
-41 0 -37 0 +36 0 +59 0 *
Fa
0  1e-07 20 0

0101000
+35 0 *
Ve
1e-07
235 1310.1 784
0 0

0101101
*
Ed
 1e-07 1 1 0
1  30 0 12 232
2  53 15 0 12 232
2  54 28 0 12 232
0

0101000
+38 0 -33 0 *
Ed
 1e-07 1 1 0
1  31 0 0 36
2  55 21 0 0 36
2  56 31 0 0 36
0

0101000
+45 0 -33 0 *
Wi

0101100
-37 0 -32 0 +31 0 +42 0 *
Fa
0  1e-07 28 0

0101000
+30 0 *
Ed
 1e-07 1 1 0
1  32 0 0 98
2  57 21 0 0 98
2  58 23 0 0 98
0

0101000
+56 0 -33 0 *
Wi

0101100
-44 0 -31 0 +28 0 +55 0 *
Fa
0  1e-07 21 0

0101000
+27 0 *
Ve
1e-07
247 1274.1 718
0 0

0101101
*
Ed
 1e-07 1 1 0
1  33 0 0 32
2  59 3 0 0 32
2  60 9 0 0 32
0

0101000
+50 0 -25 0 *
Ve
1e-07
244 1274.1 718
0 0

0101101
*
Ed
 1e-07 1 1 0
1  34 0 0 3
2  61 32 0 0 3
2  62 33 0 0 3
0

0101000
+23 0 -25 0 *
Ed
 1e-07 1 1 0
1  35 0 0 32
2  63 24 0 0 32
2  64 32 0 0 32
0

0101000
+52 0 -23 0 *
Wi

0101100
-24 0 +22 0 +21 0 -49 0 *
Fa
0  1e-07 9 0

0101000
+20 0 *
Ve
1e-07
244 1310.1 718
0 0

0101101
*
Ed
 1e-07 1 1 0
1  36 0 0 36
2  65 24 0 0 36
2  66 33 0 0 36
0

0101000
+23 0 -18 0 *
Ed
 1e-07 1 1 0
1  37 0 0 32
2  67 24 0 0 32
2  68 34 0 0 32
0

0101000
+54 0 -18 0 *
Wi

0101100
-21 0 -17 0 +16 0 +51 0 *
Fa
0  1e-07 24 0

0101000
+15 0 *
Ve
1e-07
247 1310.1 718
0 0

0101101
*
Ed
 1e-07 1 1 0
1  38 0 0 3
2  69 34 0 0 3
2  70 33 0 0 3
0

0101000
+18 0 -13 0 *
Ed
 1e-07 1 1 0
1  39 0 0 36
2  71 35 0 0 36
2  72 33 0 0 36
0

0101000
+25 0 -13 0 *
Wi

0101100
-17 0 -12 0 +11 0 +22 0 *
Fa
0  1e-07 33 0

0101000
+10 0 *
Ed
 1e-07 1 1 0
1  40 0 32 110
0

0101000
+13 0 -67 0 *
Wi

0101000
-101 0 +48 0 +24 0 +11 0 +8 0 -66 0 *
Fa
0  1e-07 36 0

0111000
+7 0 *
Wi

0101000
-61 0 +74 0 -70 0 +92 0 +65 0 -8 0 -12 0 -16 0 -53 0 +28 0 
-32 0 -36 0 *
Fa
0  1e-07 37 0

0111000
+5 0 *
Sh

0101000
-96 0 +85 0 +78 0 -71 0 -68 0 +63 0 +46 0 +39 0 +34 0 -29 0 
-26 0 +19 0 +14 0 -9 0 +6 0 +4 0 *
So

0100000
+3 0 *
Co

1100000
+2 0 *

+1 0 