DBRep_DrawableShape

CASCADE Topology V1, (c) Matra-Datavision
Locations 4
1
              1               0               0               0 
              0               1               0               0 
              0               0               1               0 
2  1 -1 0
1
              1               0               0               0 
              0               1               0               0 
              0               0               1             -12 
2  3 -1 1 -1 0
Curve2ds 96
1 0 0 1 0 
1 0 0 1 0 
1 8 0 0 -1 
1 0 0 0 1 
1 0 -170 1 0 
1 0 0 1 0 
1 0 0 0 -1 
1 0 0 0 1 
1 0 0 0 1 
1 0 0 1 0 
1 0 170 1 0 
1 0 0 1 0 
1 8 0 0 1 
1 0 0 1 0 
1 0 170 1 0 
1 8 0 0 1 
1 170 0 0 1 
1 8 0 0 -1 
2 15 15 1 0 -0 1 2.25
1 0 9 1 0 
1 0 0 1 0 
1 0 -12 1 0 
2 32.5 32.5 1 0 -0 1 6
1 0 9 1 0 
1 0 0 1 0 
1 0 -12 1 0 
2 155 15 1 0 -0 1 2.25
1 0 9 1 0 
1 0 0 1 0 
1 0 -12 1 0 
2 137.5 32.5 1 0 -0 1 6
1 0 9 1 0 
1 0 0 1 0 
1 0 -12 1 0 
2 32.5 137.5 1 0 -0 1 6
1 0 9 1 0 
1 0 0 1 0 
1 0 -12 1 0 
2 15 155 1 0 -0 1 2.25
1 0 9 1 0 
1 0 0 1 0 
1 0 -12 1 0 
2 85 85 1 0 -0 1 58
1 0 9 1 0 
1 0 0 1 0 
1 0 -12 1 0 
2 137.5 137.5 1 0 -0 1 6
1 0 9 1 0 
1 0 0 1 0 
1 0 -12 1 0 
2 155 155 1 0 -0 1 2.25
1 0 9 1 0 
1 0 0 1 0 
1 0 -12 1 0 
1 0 0 0 1 
1 0 170 1 0 
1 0 170 1 0 
1 0 -170 1 0 
1 170 0 0 1 
1 0 0 0 -1 
2 15 15 1 0 -0 1 2.25
1 0 1 1 0 
2 32.5 32.5 1 0 -0 1 6
1 0 1 1 0 
2 155 15 1 0 -0 1 2.25
1 0 1 1 0 
2 137.5 32.5 1 0 -0 1 6
1 0 1 1 0 
2 32.5 137.5 1 0 -0 1 6
1 0 1 1 0 
2 15 155 1 0 -0 1 2.25
1 0 1 1 0 
2 85 85 1 0 -0 1 58
1 0 1 1 0 
2 137.5 137.5 1 0 -0 1 6
1 0 1 1 0 
2 155 155 1 0 -0 1 2.25
1 0 1 1 0 
1 6.2831853071795862 -0 0 1 
1 0 -0 0 1 
1 6.2831853071795862 -0 0 1 
1 0 -0 0 1 
1 6.2831853071795862 -0 0 1 
1 0 -0 0 1 
1 6.2831853071795862 -0 0 1 
1 0 -0 0 1 
1 6.2831853071795862 -0 0 1 
1 0 -0 0 1 
1 6.2831853071795862 -0 0 1 
1 0 -0 0 1 
1 6.2831853071795862 -0 0 1 
1 0 -0 0 1 
1 6.2831853071795862 -0 0 1 
1 0 -0 0 1 
1 6.2831853071795862 -0 0 1 
1 0 -0 0 1 
Curves 39
1 65 625 10 0 0 1 
1 65 625 18 -0 1 0 
1 65 795 10 0 0 1 
1 65 625 10 -0 1 0 
1 65 625 10 1 0 -0 
1 235 625 10 0 0 1 
1 65 625 18 1 0 -0 
1 65 795 18 1 0 -0 
1 235 625 18 -0 1 0 
2 80 640 18 0 0 1 1 0 -0 -0 1 0 2.25
2 97.5 657.5 18 0 0 1 1 0 -0 -0 1 0 6
2 220 640 18 0 0 1 1 0 -0 -0 1 0 2.25
2 202.5 657.5 18 0 0 1 1 0 -0 -0 1 0 6
2 97.5 762.5 18 0 0 1 1 0 -0 -0 1 0 6
2 80 780 18 0 0 1 1 0 -0 -0 1 0 2.25
2 150 710 18 0 0 1 1 0 -0 -0 1 0 58
2 202.5 762.5 18 0 0 1 1 0 -0 -0 1 0 6
2 220 780 18 0 0 1 1 0 -0 -0 1 0 2.25
1 65 795 10 1 0 -0 
1 235 795 10 0 0 1 
1 235 625 10 -0 1 0 
2 80 640 10 0 0 1 1 0 -0 -0 1 0 2.25
2 97.5 657.5 10 0 0 1 1 0 -0 -0 1 0 6
2 220 640 10 0 0 1 1 0 -0 -0 1 0 2.25
2 202.5 657.5 10 0 0 1 1 0 -0 -0 1 0 6
2 97.5 762.5 10 0 0 1 1 0 -0 -0 1 0 6
2 80 780 10 0 0 1 1 0 -0 -0 1 0 2.25
2 150 710 10 0 0 1 1 0 -0 -0 1 0 58
2 202.5 762.5 10 0 0 1 1 0 -0 -0 1 0 6
2 220 780 10 0 0 1 1 0 -0 -0 1 0 2.25
1 82.25 640 9 0 0 1 
1 103.5 657.5 9 0 0 1 
1 222.25 640 9 0 0 1 
1 208.5 657.5 9 0 0 1 
1 103.5 762.5 9 0 0 1 
1 82.25 780 9 0 0 1 
1 208 710 9 0 0 1 
1 208.5 762.5 9 0 0 1 
1 222.25 780 9 0 0 1 
Polygon3D 0
PolygonOnTriangulations 0
Surfaces 24
1 65 625 10 1 0 -0 0 0 1 0 -1 0 
1 65 625 10 -0 1 0 0 0 1 1 0 -0 
1 65 625 18 0 0 1 1 0 -0 -0 1 0 
1 65 795 10 -0 1 0 0 0 1 1 0 -0 
1 65 625 10 0 0 1 1 0 -0 -0 1 0 
1 235 625 10 1 0 -0 0 0 1 0 -1 0 
2 80 640 9 0 0 1 1 0 -0 -0 1 0 2.25
2 80 640 18 0 0 1 1 0 0 0 1 0 2.25
2 97.5 657.5 9 0 0 1 1 0 -0 -0 1 0 6
2 97.5 657.5 18 0 0 1 1 0 0 0 1 0 6
2 220 640 9 0 0 1 1 0 -0 -0 1 0 2.25
2 220 640 18 0 0 1 1 0 0 0 1 0 2.25
2 202.5 657.5 9 0 0 1 1 0 -0 -0 1 0 6
2 202.5 657.5 18 0 0 1 1 0 0 0 1 0 6
2 97.5 762.5 9 0 0 1 1 0 -0 -0 1 0 6
2 97.5 762.5 18 0 0 1 1 0 0 0 1 0 6
2 80 780 9 0 0 1 1 0 -0 -0 1 0 2.25
2 80 780 18 0 0 1 1 0 0 0 1 0 2.25
2 150 710 9 0 0 1 1 0 -0 -0 1 0 58
2 150 710 18 0 0 1 1 0 0 0 1 0 58
2 202.5 762.5 9 0 0 1 1 0 -0 -0 1 0 6
2 202.5 762.5 18 0 0 1 1 0 0 0 1 0 6
2 220 780 9 0 0 1 1 0 -0 -0 1 0 2.25
2 220 780 18 0 0 1 1 0 0 0 1 0 2.25
Triangulations 0

TShapes 116
Ve
1e-07
65 625 18
0 0

0101101
*
Ve
1e-07
65 625 10
0 0

0101101
*
Ed
 1e-07 1 1 0
1  1 0 0 8
2  1 1 0 0 8
2  2 2 0 0 8
0

0101000
-116 2 +115 2 *
Ve
1e-07
65 795 18
0 0

0101101
*
Ed
 1e-07 1 1 0
1  2 0 0 170
2  3 1 0 0 170
2  4 3 0 0 170
0

0101000
-113 2 +116 2 *
Ve
1e-07
65 795 10
0 0

0101101
*
Ed
 1e-07 1 1 0
1  3 0 0 8
2  5 1 0 0 8
2  6 4 0 0 8
0

0101000
-113 2 +111 2 *
Ed
 1e-07 1 1 0
1  4 0 0 170
2  7 1 0 0 170
2  8 5 0 0 170
0

0101000
-111 2 +115 2 *
Wi

0101100
-114 0 -112 0 +110 0 +109 0 *
Fa
0  1e-07 1 0

0111000
+108 0 *
Ve
1e-07
235 625 10
0 0

0101101
*
Ed
 1e-07 1 1 0
1  5 0 0 170
2  9 2 0 0 170
2  10 5 0 0 170
0

0101000
-106 2 +115 2 *
Ve
1e-07
235 625 18
0 0

0101101
*
Ed
 1e-07 1 1 0
1  6 0 0 8
2  11 2 0 0 8
2  12 6 0 0 8
0

0101000
-104 2 +106 2 *
Ed
 1e-07 1 1 0
1  7 0 0 170
2  13 2 0 0 170
2  14 3 0 0 170
0

0101000
-104 2 +116 2 *
Wi

0101100
-105 0 -103 0 +102 0 +114 0 *
Fa
0  1e-07 2 0

0111000
+101 0 *
Ve
1e-07
235 795 18
0 0

0101101
*
Ed
 1e-07 1 1 0
1  8 0 0 170
2  15 3 0 0 170
2  16 4 0 0 170
0

0101000
-99 2 +113 2 *
Ed
 1e-07 1 1 0
1  9 0 0 170
2  17 3 0 0 170
2  18 6 0 0 170
0

0101000
-99 2 +104 2 *
Wi

0101100
-112 0 -98 0 +102 0 +97 0 *
Ve
1e-07
82.25 640 18
0 0

0101101
*
Ed
 1e-07 1 1 0
1  10 0 0 6.28318530717959
2  19 3 0 0 6.28318530717959
2  20 7 0 0 6.28318530717959
2  21 8 2 0 6.28318530717959
2  22 8 4 0 6.28318530717959
0

0101100
+95 2 -95 2 *
Wi

0101100
-94 0 *
Ve
1e-07
103.5 657.5 18
0 0

0101101
*
Ed
 1e-07 1 1 0
1  11 0 0 6.28318530717959
2  23 3 0 0 6.28318530717959
2  24 9 0 0 6.28318530717959
2  25 10 2 0 6.28318530717959
2  26 10 4 0 6.28318530717959
0

0101100
+92 2 -92 2 *
Wi

0101100
-91 0 *
Ve
1e-07
222.25 640 18
0 0

0101101
*
Ed
 1e-07 1 1 0
1  12 0 0 6.28318530717959
2  27 3 0 0 6.28318530717959
2  28 11 0 0 6.28318530717959
2  29 12 2 0 6.28318530717959
2  30 12 4 0 6.28318530717959
0

0101100
+89 2 -89 2 *
Wi

0101100
-88 0 *
Ve
1e-07
208.5 657.5 18
0 0

0101101
*
Ed
 1e-07 1 1 0
1  13 0 0 6.28318530717959
2  31 3 0 0 6.28318530717959
2  32 13 0 0 6.28318530717959
2  33 14 2 0 6.28318530717959
2  34 14 4 0 6.28318530717959
0

0101100
+86 2 -86 2 *
Wi

0101100
-85 0 *
Ve
1e-07
103.5 762.5 18
0 0

0101101
*
Ed
 1e-07 1 1 0
1  14 0 0 6.28318530717959
2  35 3 0 0 6.28318530717959
2  36 15 0 0 6.28318530717959
2  37 16 2 0 6.28318530717959
2  38 16 4 0 6.28318530717959
0

0101100
+83 2 -83 2 *
Wi

0101100
-82 0 *
Ve
1e-07
82.25 780 18
0 0

0101101
*
Ed
 1e-07 1 1 0
1  15 0 0 6.28318530717959
2  39 3 0 0 6.28318530717959
2  40 17 0 0 6.28318530717959
2  41 18 2 0 6.28318530717959
2  42 18 4 0 6.28318530717959
0

0101100
+80 2 -80 2 *
Wi

0101100
-79 0 *
Ve
1e-07
208 710 18
0 0

0101101
*
Ed
 1e-07 1 1 0
1  16 0 0 6.28318530717959
2  43 3 0 0 6.28318530717959
2  44 19 0 0 6.28318530717959
2  45 20 2 0 6.28318530717959
2  46 20 4 0 6.28318530717959
0

0101100
+77 2 -77 2 *
Wi

0101100
-76 0 *
Ve
1e-07
208.5 762.5 18
0 0

0101101
*
Ed
 1e-07 1 1 0
1  17 0 0 6.28318530717959
2  47 3 0 0 6.28318530717959
2  48 21 0 0 6.28318530717959
2  49 22 2 0 6.28318530717959
2  50 22 4 0 6.28318530717959
0

0101100
+74 2 -74 2 *
Wi

0101100
-73 0 *
Ve
1e-07
222.25 780 18
0 0

0101101
*
Ed
 1e-07 1 1 0
1  18 0 0 6.28318530717959
2  51 3 0 0 6.28318530717959
2  52 23 0 0 6.28318530717959
2  53 24 2 0 6.28318530717959
2  54 24 4 0 6.28318530717959
0

0101100
+71 2 -71 2 *
Wi

0101100
-70 0 *
Fa
0  1e-07 3 0

0101000
+96 0 +93 0 +90 0 +87 0 +84 0 +81 0 +78 0 +75 0 +72 0 +69 0 
*
Ve
1e-07
235 795 10
0 0

0101101
*
Ed
 1e-07 1 1 0
1  19 0 0 170
2  55 4 0 0 170
2  56 5 0 0 170
0

0101000
-67 2 +111 2 *
Ed
 1e-07 1 1 0
1  20 0 0 8
2  57 4 0 0 8
2  58 6 0 0 8
0

0101000
-99 2 +67 2 *
Wi

0101100
-66 0 -65 0 +98 0 +110 0 *
Fa
0  1e-07 4 0

0111000
+64 0 *
Ed
 1e-07 1 1 0
1  21 0 0 170
2  59 5 0 0 170
2  60 6 0 0 170
0

0101000
-67 2 +106 2 *
Wi

0101100
-109 0 -66 0 +105 0 +62 0 *
Ve
1e-07
82.25 640 10
0 0

0101101
*
Ed
 1e-07 1 1 0
1  22 0 0 6.28318530717959
2  61 5 0 0 6.28318530717959
2  62 7 0 0 6.28318530717959
0

0101100
+60 2 -60 2 *
Wi

0101100
-59 0 *
Ve
1e-07
103.5 657.5 10
0 0

0101101
*
Ed
 1e-07 1 1 0
1  23 0 0 6.28318530717959
2  63 5 0 0 6.28318530717959
2  64 9 0 0 6.28318530717959
0

0101100
+57 2 -57 2 *
Wi

0101100
-56 0 *
Ve
1e-07
222.25 640 10
0 0

0101101
*
Ed
 1e-07 1 1 0
1  24 0 0 6.28318530717959
2  65 5 0 0 6.28318530717959
2  66 11 0 0 6.28318530717959
0

0101100
+54 2 -54 2 *
Wi

0101100
-53 0 *
Ve
1e-07
208.5 657.5 10
0 0

0101101
*
Ed
 1e-07 1 1 0
1  25 0 0 6.28318530717959
2  67 5 0 0 6.28318530717959
2  68 13 0 0 6.28318530717959
0

0101100
+51 2 -51 2 *
Wi

0101100
-50 0 *
Ve
1e-07
103.5 762.5 10
0 0

0101101
*
Ed
 1e-07 1 1 0
1  26 0 0 6.28318530717959
2  69 5 0 0 6.28318530717959
2  70 15 0 0 6.28318530717959
0

0101100
+48 2 -48 2 *
Wi

0101100
-47 0 *
Ve
1e-07
82.25 780 10
0 0

0101101
*
Ed
 1e-07 1 1 0
1  27 0 0 6.28318530717959
2  71 5 0 0 6.28318530717959
2  72 17 0 0 6.28318530717959
0

0101100
+45 2 -45 2 *
Wi

0101100
-44 0 *
Ve
1e-07
208 710 10
0 0

0101101
*
Ed
 1e-07 1 1 0
1  28 0 0 6.28318530717959
2  73 5 0 0 6.28318530717959
2  74 19 0 0 6.28318530717959
0

0101100
+42 2 -42 2 *
Wi

0101100
-41 0 *
Ve
1e-07
208.5 762.5 10
0 0

0101101
*
Ed
 1e-07 1 1 0
1  29 0 0 6.28318530717959
2  75 5 0 0 6.28318530717959
2  76 21 0 0 6.28318530717959
0

0101100
+39 2 -39 2 *
Wi

0101100
-38 0 *
Ve
1e-07
222.25 780 10
0 0

0101101
*
Ed
 1e-07 1 1 0
1  30 0 0 6.28318530717959
2  77 5 0 0 6.28318530717959
2  78 23 0 0 6.28318530717959
0

0101100
+36 2 -36 2 *
Wi

0101100
-35 0 *
Fa
0  1e-07 5 0

0111000
+61 0 +58 0 +55 0 +52 0 +49 0 +46 0 +43 0 +40 0 +37 0 +34 0 
*
Wi

0101100
-103 0 -97 0 +65 0 +62 0 *
Fa
0  1e-07 6 0

0111000
+32 0 *
Ed
 1e-07 1 1 0
1  31 0 1 9
3  79 80CN 7 0 1 9
0

0101000
+60 2 -95 2 *
Wi

0101100
-94 0 +30 0 +59 0 -30 0 *
Fa
0  1e-07 7 0

0111000
+29 0 *
Ed
 1e-07 1 1 0
1  32 0 1 9
3  81 82CN 9 0 1 9
0

0101000
+57 2 -92 2 *
Wi

0101100
-91 0 +27 0 +56 0 -27 0 *
Fa
0  1e-07 9 0

0111000
+26 0 *
Ed
 1e-07 1 1 0
1  33 0 1 9
3  83 84CN 11 0 1 9
0

0101000
+54 2 -89 2 *
Wi

0101100
-88 0 +24 0 +53 0 -24 0 *
Fa
0  1e-07 11 0

0111000
+23 0 *
Ed
 1e-07 1 1 0
1  34 0 1 9
3  85 86CN 13 0 1 9
0

0101000
+51 2 -86 2 *
Wi

0101100
-85 0 +21 0 +50 0 -21 0 *
Fa
0  1e-07 13 0

0111000
+20 0 *
Ed
 1e-07 1 1 0
1  35 0 1 9
3  87 88CN 15 0 1 9
0

0101000
+48 2 -83 2 *
Wi

0101100
-82 0 +18 0 +47 0 -18 0 *
Fa
0  1e-07 15 0

0111000
+17 0 *
Ed
 1e-07 1 1 0
1  36 0 1 9
3  89 90CN 17 0 1 9
0

0101000
+45 2 -80 2 *
Wi

0101100
-79 0 +15 0 +44 0 -15 0 *
Fa
0  1e-07 17 0

0111000
+14 0 *
Ed
 1e-07 1 1 0
1  37 0 1 9
3  91 92CN 19 0 1 9
0

0101000
+42 2 -77 2 *
Wi

0101100
-76 0 +12 0 +41 0 -12 0 *
Fa
0  1e-07 19 0

0111000
+11 0 *
Ed
 1e-07 1 1 0
1  38 0 1 9
3  93 94CN 21 0 1 9
0

0101000
+39 2 -74 2 *
Wi

0101100
-73 0 +9 0 +38 0 -9 0 *
Fa
0  1e-07 21 0

0111000
+8 0 *
Ed
 1e-07 1 1 0
1  39 0 1 9
3  95 96CN 23 0 1 9
0

0101000
+36 2 -71 2 *
Wi

0101100
-70 0 +6 0 +35 0 -6 0 *
Fa
0  1e-07 23 0

0111000
+5 0 *
Sh

0101100
-107 0 -100 0 +68 0 +63 0 -33 0 +31 0 -28 0 -25 0 -22 0 -19 0 
-16 0 -13 0 -10 0 -7 0 -4 0 *
So

0100000
+3 0 *
Co

1100000
+2 0 *

+1 1 