0
SECTION
2
HEADER
9
$ACADVER
1
AC1015
9
$INSUNITS
70
4
0
ENDSEC
0
SECTION
2
TABLES
0
TABLE
2
LAYER
70
5
0
LAYER
2
CUT
70
0
62
7
6
CONTINUOUS
0
LAYER
2
POCKET
70
0
62
7
6
CONTINUOUS
0
LAYER
2
LOCATOR
70
0
62
7
6
CONTINUOUS
0
LAYER
2
ENGRAVE
70
0
62
7
6
CONTINUOUS
0
LAYER
2
REFERENCE
70
0
62
7
6
CONTINUOUS
0
ENDTAB
0
ENDSEC
0
SECTION
2
ENTITIES
0
LINE
8
CUT
10
400.05
20
3.889087301227505
30
0
11
0.0
21
3.889087301227505
31
0
0
LINE
8
CUT
10
0.0
20
3.889087301227505
30
0
11
0.0
21
1311.9890873012273
31
0
0
LINE
8
CUT
10
0.0
20
1311.9890873012275
30
0
11
596.9
21
1311.9890873012275
31
0
0
LINE
8
CUT
10
596.9
20
1311.9890873012275
30
0
11
596.9
21
1131.0140873029486
31
0
0
LINE
8
CUT
10
596.9000000000001
20
1131.0140873012276
30
0
11
400.0500000000004
21
3.889087301229438
31
0
0
CIRCLE
8
CUT
10
350.593661971831
20
92.88908730122752
30
0
40
7.9375
0
CIRCLE
8
CUT
10
357.2302816901408
20
130.88908730122753
30
0
40
7.9375
0
CIRCLE
8
POCKET
10
350.593661971831
20
92.88908730122752
30
0
40
12.5
0
CIRCLE
8
POCKET
10
357.2302816901408
20
130.88908730122753
30
0
40
12.5
0
LINE
8
REFERENCE
10
400.05
20
3.88908730122752
30
0
11
0.0
21
3.88908730122752
31
0
0
LINE
8
REFERENCE
10
596.9
20
1131.0140873012276
30
0
11
400.0500000000003
21
3.889087301229112
31
0
0
LINE
8
REFERENCE
10
596.9
20
1311.9890873012275
30
0
11
596.9
21
1131.0140873012276
31
0
0
LINE
8
REFERENCE
10
9.99200722162641e-16
20
1311.9890873012275
30
0
11
596.9
21
1311.9890873012275
31
0
0
LINE
8
REFERENCE
10
0.0
20
3.88908730122752
30
0
11
0.0
21
1311.9890873012275
31
0
0
LINE
8
REFERENCE
10
95.0
20
21.88908730122739
30
0
11
97.0
21
21.88908730122739
31
0
0
LINE
8
REFERENCE
10
96.0
20
20.88908730122739
30
0
11
96.0
21
22.88908730122739
31
0
0
LINE
8
REFERENCE
10
153.0
20
21.88908730122739
30
0
11
155.0
21
21.88908730122739
31
0
0
LINE
8
REFERENCE
10
154.0
20
20.88908730122739
30
0
11
154.0
21
22.88908730122739
31
0
0
LINE
8
REFERENCE
10
150.0
20
178.88908730122753
30
0
11
152.0
21
178.88908730122753
31
0
0
LINE
8
REFERENCE
10
151.0
20
177.88908730122753
30
0
11
151.0
21
179.88908730122753
31
0
0
LINE
8
REFERENCE
10
150.0
20
248.88908730122753
30
0
11
152.0
21
248.88908730122753
31
0
0
LINE
8
REFERENCE
10
151.0
20
247.88908730122753
30
0
11
151.0
21
249.88908730122753
31
0
0
LINE
8
REFERENCE
10
170.0
20
623.8890873012275
30
0
11
172.0
21
623.8890873012275
31
0
0
LINE
8
REFERENCE
10
171.0
20
622.8890873012275
30
0
11
171.0
21
624.8890873012275
31
0
0
LINE
8
REFERENCE
10
170.0
20
693.8890873012275
30
0
11
172.0
21
693.8890873012275
31
0
0
LINE
8
REFERENCE
10
171.0
20
692.8890873012275
30
0
11
171.0
21
694.8890873012275
31
0
0
LINE
8
REFERENCE
10
230.0
20
923.8890873012275
30
0
11
232.0
21
923.8890873012275
31
0
0
LINE
8
REFERENCE
10
231.0
20
922.8890873012275
30
0
11
231.0
21
924.8890873012275
31
0
0
LINE
8
REFERENCE
10
63.0
20
1293.9890873012278
30
0
11
65.0
21
1293.9890873012278
31
0
0
LINE
8
REFERENCE
10
64.0
20
1292.9890873012278
30
0
11
64.0
21
1294.9890873012278
31
0
0
LINE
8
REFERENCE
10
121.0
20
1293.9890873012278
30
0
11
123.0
21
1293.9890873012278
31
0
0
LINE
8
REFERENCE
10
122.0
20
1292.9890873012278
30
0
11
122.0
21
1294.9890873012278
31
0
0
LINE
8
REFERENCE
10
191.0
20
1040.8890873012276
30
0
11
193.0
21
1040.8890873012276
31
0
0
LINE
8
REFERENCE
10
192.0
20
1039.8890873012276
30
0
11
192.0
21
1041.8890873012276
31
0
0
LINE
8
REFERENCE
10
230.0
20
993.8890873012275
30
0
11
232.0
21
993.8890873012275
31
0
0
LINE
8
REFERENCE
10
231.0
20
992.8890873012275
30
0
11
231.0
21
994.8890873012275
31
0
0
LINE
8
REFERENCE
10
319.1101650574533
20
1046.3890873012276
30
0
11
321.1101650574533
21
1046.3890873012276
31
0
0
LINE
8
REFERENCE
10
320.1101650574533
20
1045.3890873012276
30
0
11
320.1101650574533
21
1047.3890873012276
31
0
0
LINE
8
REFERENCE
10
447.2203301149065
20
1059.1397071484075
30
0
11
449.2203301149065
21
1059.1397071484075
31
0
0
LINE
8
REFERENCE
10
448.2203301149065
20
1058.1397071484075
30
0
11
448.2203301149065
21
1060.1397071484075
31
0
0
TEXT
8
REFERENCE
10
0
20
-12
30
0
40
4
1
PRELIMINARY - NOT FOR CNC - FACE A ONLY
0
ENDSEC
0
EOF
