0
SECTION
2
HEADER
9
$ACADVER
1
AC1015
9
$INSUNITS
70
4
0
ENDSEC
0
SECTION
2
TABLES
0
TABLE
2
LAYER
70
5
0
LAYER
2
CUT
70
0
62
7
6
CONTINUOUS
0
LAYER
2
POCKET
70
0
62
7
6
CONTINUOUS
0
LAYER
2
LOCATOR
70
0
62
7
6
CONTINUOUS
0
LAYER
2
ENGRAVE
70
0
62
7
6
CONTINUOUS
0
LAYER
2
REFERENCE
70
0
62
7
6
CONTINUOUS
0
ENDTAB
0
ENDSEC
0
SECTION
2
ENTITIES
0
LINE
8
CUT
10
196.8499999999999
20
3.889087301227505
30
0
11
596.8999999999999
21
3.889087301227505
31
0
0
LINE
8
CUT
10
596.9
20
3.889087301227505
30
0
11
596.9
21
1311.9890873012273
31
0
0
LINE
8
CUT
10
596.9
20
1311.9890873012275
30
0
11
0.0
21
1311.9890873012275
31
0
0
LINE
8
CUT
10
0.0
20
1311.9890873012275
30
0
11
0.0
21
1131.0140873012276
31
0
0
LINE
8
CUT
10
2.9601007739414935e-10
20
1131.014087299533
30
0
11
196.84999999999968
21
3.889087301229438
31
0
0
CIRCLE
8
CUT
10
239.6697183098592
20
130.88908730122753
30
0
40
7.9375
0
CIRCLE
8
CUT
10
246.30633802816902
20
92.88908730122752
30
0
40
7.9375
0
CIRCLE
8
POCKET
10
239.6697183098592
20
130.88908730122753
30
0
40
12.5
0
CIRCLE
8
POCKET
10
246.30633802816902
20
92.88908730122752
30
0
40
12.5
0
LINE
8
REFERENCE
10
196.8499999999999
20
3.88908730122752
30
0
11
596.8999999999999
21
3.88908730122752
31
0
0
LINE
8
REFERENCE
10
596.9000000000001
20
3.88908730122752
30
0
11
596.9000000000001
21
1311.9890873012275
31
0
0
LINE
8
REFERENCE
10
596.9
20
1311.9890873012275
30
0
11
0.0
21
1311.9890873012275
31
0
0
LINE
8
REFERENCE
10
1.1368683772161603e-13
20
1311.9890873012275
30
0
11
1.1368683772161603e-13
21
1131.0140873012276
31
0
0
LINE
8
REFERENCE
10
1.1368683772161603e-13
20
1131.0140873012276
30
0
11
196.84999999999974
21
3.889087301229112
31
0
0
LINE
8
REFERENCE
10
499.8999999999999
20
21.88908730122739
30
0
11
501.8999999999999
21
21.88908730122739
31
0
0
LINE
8
REFERENCE
10
500.8999999999999
20
20.88908730122739
30
0
11
500.8999999999999
21
22.88908730122739
31
0
0
LINE
8
REFERENCE
10
441.8999999999999
20
21.88908730122739
30
0
11
443.8999999999999
21
21.88908730122739
31
0
0
LINE
8
REFERENCE
10
442.8999999999999
20
20.88908730122739
30
0
11
442.8999999999999
21
22.88908730122739
31
0
0
LINE
8
REFERENCE
10
444.8999999999999
20
178.88908730122753
30
0
11
446.8999999999999
21
178.88908730122753
31
0
0
LINE
8
REFERENCE
10
445.8999999999999
20
177.88908730122753
30
0
11
445.8999999999999
21
179.88908730122753
31
0
0
LINE
8
REFERENCE
10
444.8999999999999
20
248.88908730122753
30
0
11
446.8999999999999
21
248.88908730122753
31
0
0
LINE
8
REFERENCE
10
445.8999999999999
20
247.88908730122753
30
0
11
445.8999999999999
21
249.88908730122753
31
0
0
LINE
8
REFERENCE
10
424.8999999999999
20
623.8890873012275
30
0
11
426.8999999999999
21
623.8890873012275
31
0
0
LINE
8
REFERENCE
10
425.8999999999999
20
622.8890873012275
30
0
11
425.8999999999999
21
624.8890873012275
31
0
0
LINE
8
REFERENCE
10
147.6796698850934
20
1059.1397071484075
30
0
11
149.6796698850934
21
1059.1397071484075
31
0
0
LINE
8
REFERENCE
10
148.6796698850934
20
1058.1397071484075
30
0
11
148.6796698850934
21
1060.1397071484075
31
0
0
LINE
8
REFERENCE
10
275.78983494254663
20
1046.3890873012276
30
0
11
277.78983494254663
21
1046.3890873012276
31
0
0
LINE
8
REFERENCE
10
276.78983494254663
20
1045.3890873012276
30
0
11
276.78983494254663
21
1047.3890873012276
31
0
0
LINE
8
REFERENCE
10
424.8999999999999
20
693.8890873012275
30
0
11
426.8999999999999
21
693.8890873012275
31
0
0
LINE
8
REFERENCE
10
425.8999999999999
20
692.8890873012275
30
0
11
425.8999999999999
21
694.8890873012275
31
0
0
LINE
8
REFERENCE
10
364.8999999999999
20
923.8890873012275
30
0
11
366.8999999999999
21
923.8890873012275
31
0
0
LINE
8
REFERENCE
10
365.8999999999999
20
922.8890873012275
30
0
11
365.8999999999999
21
924.8890873012275
31
0
0
LINE
8
REFERENCE
10
364.8999999999999
20
993.8890873012275
30
0
11
366.8999999999999
21
993.8890873012275
31
0
0
LINE
8
REFERENCE
10
365.8999999999999
20
992.8890873012275
30
0
11
365.8999999999999
21
994.8890873012275
31
0
0
LINE
8
REFERENCE
10
403.8999999999999
20
1040.8890873012276
30
0
11
405.8999999999999
21
1040.8890873012276
31
0
0
LINE
8
REFERENCE
10
404.8999999999999
20
1039.8890873012276
30
0
11
404.8999999999999
21
1041.8890873012276
31
0
0
LINE
8
REFERENCE
10
473.8999999999999
20
1293.9890873012278
30
0
11
475.8999999999999
21
1293.9890873012278
31
0
0
LINE
8
REFERENCE
10
474.8999999999999
20
1292.9890873012278
30
0
11
474.8999999999999
21
1294.9890873012278
31
0
0
LINE
8
REFERENCE
10
531.9
20
1293.9890873012278
30
0
11
533.9
21
1293.9890873012278
31
0
0
LINE
8
REFERENCE
10
532.9
20
1292.9890873012278
30
0
11
532.9
21
1294.9890873012278
31
0
0
TEXT
8
REFERENCE
10
0
20
-12
30
0
40
4
1
PRELIMINARY - NOT FOR CNC - FACE A ONLY
0
ENDSEC
0
EOF
