0
SECTION
2
HEADER
9
$ACADVER
1
AC1015
9
$INSUNITS
70
4
0
ENDSEC
0
SECTION
2
TABLES
0
TABLE
2
LAYER
70
5
0
LAYER
2
CUT
70
0
62
7
6
CONTINUOUS
0
LAYER
2
POCKET
70
0
62
7
6
CONTINUOUS
0
LAYER
2
LOCATOR
70
0
62
7
6
CONTINUOUS
0
LAYER
2
ENGRAVE
70
0
62
7
6
CONTINUOUS
0
LAYER
2
REFERENCE
70
0
62
7
6
CONTINUOUS
0
ENDTAB
0
ENDSEC
0
SECTION
2
ENTITIES
0
LINE
8
CUT
10
3.889087296527407
20
400.05
30
0
11
567.8890872965274
21
400.05
31
0
0
LINE
8
CUT
10
567.8890872965274
20
0.0
30
0
11
567.8890872965274
21
400.05
31
0
0
LINE
8
CUT
10
3.889087296527407
20
0.0
30
0
11
567.8890872965274
21
0.0
31
0
0
LINE
8
CUT
10
3.889087296527407
20
0.0
30
0
11
3.889087296527407
21
400.05
31
0
0
CIRCLE
8
CUT
10
75.8890872965274
20
210.0
30
0
40
12.699999999999989
0
CIRCLE
8
CUT
10
285.8890872965274
20
84.903125
30
0
40
3.5718750000000057
0
CIRCLE
8
CUT
10
505.8890872965274
20
210.0
30
0
40
12.699999999999989
0
CIRCLE
8
CUT
10
75.8890872965274
20
260.0
30
0
40
12.699999999999989
0
CIRCLE
8
CUT
10
122.37658729652742
20
225.0
30
0
40
3.5718750000000057
0
CIRCLE
8
CUT
10
75.8890872965274
20
310.0
30
0
40
12.699999999999989
0
CIRCLE
8
CUT
10
54.114087296527394
20
365.096875
30
0
40
3.5718749999999773
0
LINE
8
CUT
10
132.3140872965274
20
357.159375
30
0
11
439.4640872965274
21
357.159375
31
0
0
ARC
8
CUT
10
439.46408729652734
20
355.159375
30
0
40
2.0
50
3.256887993818641e-12
51
89.99999999999837
0
LINE
8
CUT
10
441.4640872965274
20
355.15937499999995
30
0
11
441.4640872965274
21
94.84062499999999
31
0
0
ARC
8
CUT
10
439.4640872965274
20
94.84062499999999
30
0
40
2.0
50
270.0
51
8.142219984546603e-13
0
LINE
8
CUT
10
132.3140872965274
20
92.84062500000002
30
0
11
439.4640872965274
21
92.84062500000002
31
0
0
ARC
8
CUT
10
132.3140872965274
20
94.84062500000002
30
0
40
2.0
50
180.0
51
270.0
0
LINE
8
CUT
10
130.3140872965274
20
355.15937499999995
30
0
11
130.3140872965274
21
94.84062499999999
31
0
0
ARC
8
CUT
10
132.3140872965274
20
355.15937500000007
30
0
40
2.0
50
89.99999999999919
51
180.00000000000162
0
CIRCLE
8
CUT
10
449.4015872965274
20
225.0
30
0
40
3.5718750000000057
0
CIRCLE
8
CUT
10
285.8890872965274
20
365.096875
30
0
40
3.5718749999999773
0
CIRCLE
8
CUT
10
463.6890872965274
20
365.096875
30
0
40
3.5718749999999773
0
LINE
8
REFERENCE
10
3.8890872965274
20
400.05
30
0
11
567.8890872965274
21
400.05
31
0
0
LINE
8
REFERENCE
10
3.889087296527382
20
9.992007221626407e-16
30
0
11
3.889087296527382
21
400.05
31
0
0
LINE
8
REFERENCE
10
3.8890872965274
20
1.998401444325288e-15
30
0
11
567.8890872965274
21
1.998401444325288e-15
31
0
0
LINE
8
REFERENCE
10
567.8890872965274
20
9.992007221626407e-16
30
0
11
567.8890872965274
21
400.05
31
0
0
TEXT
8
REFERENCE
10
0
20
-12
30
0
40
4
1
PRELIMINARY - NOT FOR CNC - FACE A ONLY
0
ENDSEC
0
EOF
