0
SECTION
2
HEADER
9
$ACADVER
1
AC1015
9
$INSUNITS
70
4
0
ENDSEC
0
SECTION
2
TABLES
0
TABLE
2
LAYER
70
5
0
LAYER
2
CUT
70
0
62
7
6
CONTINUOUS
0
LAYER
2
POCKET
70
0
62
7
6
CONTINUOUS
0
LAYER
2
LOCATOR
70
0
62
7
6
CONTINUOUS
0
LAYER
2
ENGRAVE
70
0
62
7
6
CONTINUOUS
0
LAYER
2
REFERENCE
70
0
62
7
6
CONTINUOUS
0
ENDTAB
0
ENDSEC
0
SECTION
2
ENTITIES
0
LINE
8
CUT
10
3.8890872965279186
20
0.0
30
0
11
567.8890872965279
21
0.0
31
0
0
LINE
8
CUT
10
567.8890872965279
20
596.9
30
0
11
567.8890872965279
21
0.0
31
0
0
LINE
8
CUT
10
3.8890872965279186
20
596.9
30
0
11
567.8890872965279
21
596.9
31
0
0
LINE
8
CUT
10
3.8890872965279186
20
596.9
30
0
11
3.8890872965279186
21
0.0
31
0
0
CIRCLE
8
CUT
10
163.3890872965279
20
44.40000000000009
30
0
40
2.25
0
CIRCLE
8
CUT
10
163.3890872965279
20
149.40000000000015
30
0
40
2.25
0
CIRCLE
8
CUT
10
215.8890872965279
20
96.90000000000015
30
0
40
58.0
0
CIRCLE
8
CUT
10
268.3890872965279
20
44.40000000000009
30
0
40
2.25
0
CIRCLE
8
CUT
10
268.3890872965279
20
149.40000000000015
30
0
40
2.25
0
CIRCLE
8
CUT
10
60.889087296527904
20
166.90000000000015
30
0
40
2.25
0
ARC
8
CUT
10
69.88908729652789
20
145.90000000000003
30
0
40
3.0
50
180.0
51
270.0000000000003
0
LINE
8
CUT
10
69.88908729652789
20
142.90000000000003
30
0
11
91.88908729652789
21
142.90000000000003
31
0
0
ARC
8
CUT
10
91.88908729652789
20
145.90000000000003
30
0
40
3.0
50
270.0000000000003
51
0.0
0
LINE
8
CUT
10
94.88908729652789
20
145.89999999999998
30
0
11
94.88908729652789
21
187.89999999999998
31
0
0
ARC
8
CUT
10
91.88908729652789
20
187.90000000000003
30
0
40
3.0
50
0.0
51
89.99999999999973
0
LINE
8
CUT
10
69.88908729652789
20
190.90000000000003
30
0
11
91.88908729652789
21
190.90000000000003
31
0
0
ARC
8
CUT
10
69.88908729652789
20
187.90000000000003
30
0
40
3.0
50
89.99999999999973
51
180.0
0
LINE
8
CUT
10
66.88908729652789
20
145.89999999999998
30
0
11
66.88908729652789
21
187.89999999999998
31
0
0
CIRCLE
8
CUT
10
100.8890872965279
20
166.90000000000015
30
0
40
2.25
0
CIRCLE
8
CUT
10
303.3890872965279
20
44.40000000000009
30
0
40
2.25
0
CIRCLE
8
CUT
10
408.3890872965279
20
44.40000000000009
30
0
40
2.25
0
CIRCLE
8
CUT
10
355.8890872965279
20
96.90000000000015
30
0
40
58.0
0
CIRCLE
8
CUT
10
303.3890872965279
20
149.40000000000015
30
0
40
2.25
0
CIRCLE
8
CUT
10
408.3890872965279
20
149.40000000000015
30
0
40
2.25
0
CIRCLE
8
CUT
10
515.8890872965279
20
166.90000000000015
30
0
40
12.0
0
LINE
8
CUT
10
86.88908729652789
20
214.89999999999998
30
0
11
86.88908729652789
21
541.9
31
0
0
ARC
8
CUT
10
88.88908729652789
20
541.9
30
0
40
2.0
50
90.0
51
180.0
0
LINE
8
CUT
10
88.88908729652789
20
543.9
30
0
11
482.8890872965279
21
543.9
31
0
0
ARC
8
CUT
10
482.8890872965278
20
541.9
30
0
40
2.0
50
0.0
51
89.99999999999675
0
LINE
8
CUT
10
484.8890872965279
20
214.89999999999998
30
0
11
484.8890872965279
21
541.9
31
0
0
ARC
8
CUT
10
482.8890872965279
20
214.90000000000003
30
0
40
2.0
50
269.99999999999676
51
0.0
0
LINE
8
CUT
10
88.88908729652789
20
212.90000000000003
30
0
11
482.8890872965279
21
212.90000000000003
31
0
0
ARC
8
CUT
10
88.88908729652789
20
214.90000000000003
30
0
40
2.0
50
180.0
51
270.0
0
LINE
8
POCKET
10
425.8890872965279
20
209.9000000000001
30
0
11
425.8890872965279
21
211.9000000000001
31
0
0
LINE
8
POCKET
10
425.8890872965279
20
211.9000000000001
30
0
11
445.8890872965279
21
211.9000000000001
31
0
0
LINE
8
POCKET
10
445.8890872965279
20
209.9000000000001
30
0
11
445.8890872965279
21
211.9000000000001
31
0
0
LINE
8
POCKET
10
425.8890872965279
20
209.9000000000001
30
0
11
445.8890872965279
21
209.9000000000001
31
0
0
LINE
8
REFERENCE
10
3.889087296527901
20
1.1368683772161603e-13
30
0
11
567.8890872965279
21
1.1368683772161603e-13
31
0
0
LINE
8
REFERENCE
10
567.8890872965279
20
596.9
30
0
11
567.8890872965279
21
0.0
31
0
0
LINE
8
REFERENCE
10
3.889087296527901
20
596.9000000000001
30
0
11
567.8890872965279
21
596.9000000000001
31
0
0
LINE
8
REFERENCE
10
3.8890872965278938
20
596.9
30
0
11
3.8890872965278938
21
0.0
31
0
0
LINE
8
REFERENCE
10
524.3890872965279
20
154.90000000000003
30
0
11
526.3890872965279
21
154.90000000000003
31
0
0
LINE
8
REFERENCE
10
525.3890872965279
20
153.90000000000003
30
0
11
525.3890872965279
21
155.90000000000003
31
0
0
LINE
8
REFERENCE
10
505.3890872965279
20
178.90000000000003
30
0
11
507.3890872965279
21
178.90000000000003
31
0
0
LINE
8
REFERENCE
10
506.3890872965279
20
177.90000000000003
30
0
11
506.3890872965279
21
179.90000000000003
31
0
0
TEXT
8
REFERENCE
10
0
20
-12
30
0
40
4
1
PRELIMINARY - NOT FOR CNC - FACE A ONLY
0
ENDSEC
0
EOF
