0
SECTION
2
HEADER
9
$ACADVER
1
AC1015
9
$INSUNITS
70
4
0
ENDSEC
0
SECTION
2
TABLES
0
TABLE
2
LAYER
70
5
0
LAYER
2
CUT
70
0
62
7
6
CONTINUOUS
0
LAYER
2
POCKET
70
0
62
7
6
CONTINUOUS
0
LAYER
2
LOCATOR
70
0
62
7
6
CONTINUOUS
0
LAYER
2
ENGRAVE
70
0
62
7
6
CONTINUOUS
0
LAYER
2
REFERENCE
70
0
62
7
6
CONTINUOUS
0
ENDTAB
0
ENDSEC
0
SECTION
2
ENTITIES
0
LINE
8
CUT
10
0.0
20
0.0
30
0
11
0.0
21
1272.1
31
0
0
LINE
8
CUT
10
0.0
20
1272.1
30
0
11
564.0
21
1272.1
31
0
0
LINE
8
CUT
10
564.0
20
0.0
30
0
11
564.0
21
1272.1
31
0
0
LINE
8
CUT
10
0.0
20
0.0
30
0
11
564.0
21
0.0
31
0
0
CIRCLE
8
CUT
10
202.0
20
162.0
30
0
40
2.75
0
CIRCLE
8
CUT
10
202.0
20
322.0
30
0
40
2.75
0
CIRCLE
8
CUT
10
209.01351693160834
20
391.76800884315793
30
0
40
2.75
0
CIRCLE
8
CUT
10
251.76800884315793
20
349.01351693160836
30
0
40
2.75
0
CIRCLE
8
CUT
10
79.5
20
639.5
30
0
40
2.25
0
CIRCLE
8
CUT
10
132.0
20
692.0
30
0
40
58.0
0
CIRCLE
8
CUT
10
209.01351693160836
20
452.2319911568421
30
0
40
2.75
0
CIRCLE
8
CUT
10
251.76800884315793
20
494.98648306839164
30
0
40
2.75
0
CIRCLE
8
CUT
10
184.5
20
639.5
30
0
40
2.25
0
CIRCLE
8
CUT
10
362.0
20
162.0
30
0
40
2.75
0
CIRCLE
8
CUT
10
312.2319911568421
20
349.01351693160836
30
0
40
2.75
0
CIRCLE
8
CUT
10
282.0
20
422.0
30
0
40
71.75
0
CIRCLE
8
CUT
10
362.0
20
322.0
30
0
40
2.75
0
CIRCLE
8
CUT
10
354.98648306839164
20
391.76800884315793
30
0
40
2.75
0
CIRCLE
8
CUT
10
312.23199115684207
20
494.98648306839164
30
0
40
2.75
0
CIRCLE
8
CUT
10
354.98648306839164
20
452.23199115684207
30
0
40
2.75
0
CIRCLE
8
CUT
10
379.5
20
639.5
30
0
40
2.25
0
CIRCLE
8
CUT
10
432.0
20
692.0
30
0
40
58.0
0
CIRCLE
8
CUT
10
484.5
20
639.5
30
0
40
2.25
0
CIRCLE
8
CUT
10
79.5
20
744.5
30
0
40
2.25
0
CIRCLE
8
CUT
10
162.0
20
832.0
30
0
40
2.75
0
CIRCLE
8
CUT
10
184.5
20
744.5
30
0
40
2.25
0
CIRCLE
8
CUT
10
162.0
20
1252.0
30
0
40
2.75
0
CIRCLE
8
CUT
10
379.5
20
744.5
30
0
40
2.25
0
CIRCLE
8
CUT
10
402.0
20
832.0
30
0
40
2.75
0
CIRCLE
8
CUT
10
484.5
20
744.5
30
0
40
2.25
0
CIRCLE
8
CUT
10
402.0
20
1252.0
30
0
40
2.75
0
CIRCLE
8
POCKET
10
62.0
20
622.0
30
0
40
3.0
0
CIRCLE
8
POCKET
10
202.0
20
622.0
30
0
40
3.0
0
CIRCLE
8
POCKET
10
362.0
20
622.0
30
0
40
3.0
0
CIRCLE
8
POCKET
10
502.0
20
622.0
30
0
40
3.0
0
CIRCLE
8
POCKET
10
62.0
20
762.0
30
0
40
3.0
0
CIRCLE
8
POCKET
10
202.0
20
762.0
30
0
40
3.0
0
CIRCLE
8
POCKET
10
362.0
20
762.0
30
0
40
3.0
0
CIRCLE
8
POCKET
10
502.0
20
762.0
30
0
40
3.0
0
LINE
8
REFERENCE
10
0.0
20
0.0
30
0
11
0.0
21
1272.1
31
0
0
LINE
8
REFERENCE
10
0.0
20
0.0
30
0
11
564.0
21
0.0
31
0
0
LINE
8
REFERENCE
10
564.0
20
0.0
30
0
11
564.0
21
1272.1
31
0
0
LINE
8
REFERENCE
10
0.0
20
1272.1
30
0
11
564.0
21
1272.1
31
0
0
TEXT
8
REFERENCE
10
0
20
-12
30
0
40
4
1
PRELIMINARY - NOT FOR CNC - FACE A ONLY
0
ENDSEC
0
EOF
