0
SECTION
2
HEADER
9
$ACADVER
1
AC1015
9
$INSUNITS
70
4
0
ENDSEC
0
SECTION
2
TABLES
0
TABLE
2
LAYER
70
5
0
LAYER
2
CUT
70
0
62
7
6
CONTINUOUS
0
LAYER
2
POCKET
70
0
62
7
6
CONTINUOUS
0
LAYER
2
LOCATOR
70
0
62
7
6
CONTINUOUS
0
LAYER
2
ENGRAVE
70
0
62
7
6
CONTINUOUS
0
LAYER
2
REFERENCE
70
0
62
7
6
CONTINUOUS
0
ENDTAB
0
ENDSEC
0
SECTION
2
ENTITIES
0
LINE
8
CUT
10
0.0
20
81.57183098591548
30
0
11
0.0
21
-1.4210854715202004e-14
31
0
0
LINE
8
CUT
10
0.0
20
0.0
30
0
11
539.6
21
0.0
31
0
0
LINE
8
CUT
10
539.6
20
81.57183098591548
30
0
11
539.6
21
-1.4210854715202004e-14
31
0
0
LINE
8
CUT
10
0.0
20
81.57183098591548
30
0
11
539.6
21
81.57183098591548
31
0
0
LINE
8
POCKET
10
0.0
20
2.794366197183079
30
0
11
539.6
21
2.794366197183079
31
0
0
LINE
8
POCKET
10
539.6
20
2.794366197183038
30
0
11
539.6
21
4.263256414560601e-14
31
0
0
LINE
8
POCKET
10
0.0
20
0.0
30
0
11
539.6
21
0.0
31
0
0
LINE
8
POCKET
10
0.0
20
2.794366197183038
30
0
11
0.0
21
4.263256414560601e-14
31
0
0
LINE
8
POCKET
10
0.0
20
2.6197183098591363
30
0
11
539.6
21
2.6197183098591363
31
0
0
LINE
8
POCKET
10
539.6
20
2.619718309859138
30
0
11
539.6
21
4.263256414560601e-14
31
0
0
LINE
8
POCKET
10
0.0
20
0.0
30
0
11
539.6
21
0.0
31
0
0
LINE
8
POCKET
10
0.0
20
2.619718309859138
30
0
11
0.0
21
4.263256414560601e-14
31
0
0
LINE
8
POCKET
10
0.0
20
2.4450704225351942
30
0
11
539.6
21
2.4450704225351942
31
0
0
LINE
8
POCKET
10
539.6
20
2.445070422535238
30
0
11
539.6
21
4.263256414560601e-14
31
0
0
LINE
8
POCKET
10
0.0
20
0.0
30
0
11
539.6
21
0.0
31
0
0
LINE
8
POCKET
10
0.0
20
2.445070422535238
30
0
11
0.0
21
4.263256414560601e-14
31
0
0
LINE
8
POCKET
10
0.0
20
2.2704225352112517
30
0
11
539.6
21
2.2704225352112517
31
0
0
LINE
8
POCKET
10
539.6
20
2.270422535211239
30
0
11
539.6
21
4.263256414560601e-14
31
0
0
LINE
8
POCKET
10
0.0
20
0.0
30
0
11
539.6
21
0.0
31
0
0
LINE
8
POCKET
10
0.0
20
2.270422535211239
30
0
11
0.0
21
4.263256414560601e-14
31
0
0
LINE
8
POCKET
10
0.0
20
2.0957746478873096
30
0
11
539.6
21
2.0957746478873096
31
0
0
LINE
8
POCKET
10
539.6
20
2.095774647887339
30
0
11
539.6
21
4.263256414560601e-14
31
0
0
LINE
8
POCKET
10
0.0
20
0.0
30
0
11
539.6
21
0.0
31
0
0
LINE
8
POCKET
10
0.0
20
2.095774647887339
30
0
11
0.0
21
4.263256414560601e-14
31
0
0
LINE
8
POCKET
10
0.0
20
1.9211267605633668
30
0
11
539.6
21
1.9211267605633668
31
0
0
LINE
8
POCKET
10
539.6
20
1.9211267605633395
30
0
11
539.6
21
4.263256414560601e-14
31
0
0
LINE
8
POCKET
10
0.0
20
0.0
30
0
11
539.6
21
0.0
31
0
0
LINE
8
POCKET
10
0.0
20
1.9211267605633395
30
0
11
0.0
21
4.263256414560601e-14
31
0
0
LINE
8
POCKET
10
0.0
20
1.7464788732394245
30
0
11
539.6
21
1.7464788732394245
31
0
0
LINE
8
POCKET
10
539.6
20
1.7464788732394396
30
0
11
539.6
21
4.263256414560601e-14
31
0
0
LINE
8
POCKET
10
0.0
20
0.0
30
0
11
539.6
21
0.0
31
0
0
LINE
8
POCKET
10
0.0
20
1.7464788732394396
30
0
11
0.0
21
4.263256414560601e-14
31
0
0
LINE
8
POCKET
10
0.0
20
1.571830985915482
30
0
11
539.6
21
1.571830985915482
31
0
0
LINE
8
POCKET
10
539.6
20
1.5718309859154402
30
0
11
539.6
21
4.263256414560601e-14
31
0
0
LINE
8
POCKET
10
0.0
20
0.0
30
0
11
539.6
21
0.0
31
0
0
LINE
8
POCKET
10
0.0
20
1.5718309859154402
30
0
11
0.0
21
4.263256414560601e-14
31
0
0
LINE
8
POCKET
10
0.0
20
1.3971830985915394
30
0
11
539.6
21
1.3971830985915394
31
0
0
LINE
8
POCKET
10
539.6
20
1.3971830985915403
30
0
11
539.6
21
4.263256414560601e-14
31
0
0
LINE
8
POCKET
10
0.0
20
0.0
30
0
11
539.6
21
0.0
31
0
0
LINE
8
POCKET
10
0.0
20
1.3971830985915403
30
0
11
0.0
21
4.263256414560601e-14
31
0
0
LINE
8
POCKET
10
0.0
20
1.2225352112675971
30
0
11
539.6
21
1.2225352112675971
31
0
0
LINE
8
POCKET
10
539.6
20
1.2225352112676404
30
0
11
539.6
21
4.263256414560601e-14
31
0
0
LINE
8
POCKET
10
0.0
20
0.0
30
0
11
539.6
21
0.0
31
0
0
LINE
8
POCKET
10
0.0
20
1.2225352112676404
30
0
11
0.0
21
4.263256414560601e-14
31
0
0
LINE
8
POCKET
10
0.0
20
1.0478873239436548
30
0
11
539.6
21
1.0478873239436548
31
0
0
LINE
8
POCKET
10
539.6
20
1.047887323943641
30
0
11
539.6
21
4.263256414560601e-14
31
0
0
LINE
8
POCKET
10
0.0
20
0.0
30
0
11
539.6
21
0.0
31
0
0
LINE
8
POCKET
10
0.0
20
1.047887323943641
30
0
11
0.0
21
4.263256414560601e-14
31
0
0
LINE
8
POCKET
10
0.0
20
0.8732394366197123
30
0
11
539.6
21
0.8732394366197123
31
0
0
LINE
8
POCKET
10
539.6
20
0.8732394366197411
30
0
11
539.6
21
4.263256414560601e-14
31
0
0
LINE
8
POCKET
10
0.0
20
0.0
30
0
11
539.6
21
0.0
31
0
0
LINE
8
POCKET
10
0.0
20
0.8732394366197411
30
0
11
0.0
21
4.263256414560601e-14
31
0
0
LINE
8
POCKET
10
0.0
20
0.6985915492957697
30
0
11
539.6
21
0.6985915492957697
31
0
0
LINE
8
POCKET
10
539.6
20
0.6985915492957417
30
0
11
539.6
21
4.263256414560601e-14
31
0
0
LINE
8
POCKET
10
0.0
20
0.0
30
0
11
539.6
21
0.0
31
0
0
LINE
8
POCKET
10
0.0
20
0.6985915492957417
30
0
11
0.0
21
4.263256414560601e-14
31
0
0
LINE
8
POCKET
10
0.0
20
0.5239436619718272
30
0
11
539.6
21
0.5239436619718272
31
0
0
LINE
8
POCKET
10
539.6
20
0.5239436619718418
30
0
11
539.6
21
4.263256414560601e-14
31
0
0
LINE
8
POCKET
10
0.0
20
0.0
30
0
11
539.6
21
0.0
31
0
0
LINE
8
POCKET
10
0.0
20
0.5239436619718418
30
0
11
0.0
21
4.263256414560601e-14
31
0
0
LINE
8
POCKET
10
0.0
20
0.34929577464788486
30
0
11
539.6
21
0.34929577464788486
31
0
0
LINE
8
POCKET
10
539.6
20
0.34929577464784245
30
0
11
539.6
21
4.263256414560601e-14
31
0
0
LINE
8
POCKET
10
0.0
20
0.0
30
0
11
539.6
21
0.0
31
0
0
LINE
8
POCKET
10
0.0
20
0.34929577464784245
30
0
11
0.0
21
4.263256414560601e-14
31
0
0
LINE
8
POCKET
10
0.0
20
0.17464788732394254
30
0
11
539.6
21
0.17464788732394254
31
0
0
LINE
8
POCKET
10
539.6
20
0.17464788732394254
30
0
11
539.6
21
4.263256414560601e-14
31
0
0
LINE
8
POCKET
10
0.0
20
0.0
30
0
11
539.6
21
0.0
31
0
0
LINE
8
POCKET
10
0.0
20
0.17464788732394254
30
0
11
0.0
21
4.263256414560601e-14
31
0
0
LINE
8
REFERENCE
10
0.0
20
81.57183098591548
30
0
11
0.0
21
-1.4210854715202004e-14
31
0
0
LINE
8
REFERENCE
10
0.0
20
-4.547473508864641e-13
30
0
11
539.6
21
-4.547473508864641e-13
31
0
0
LINE
8
REFERENCE
10
539.6
20
81.57183098591548
30
0
11
539.6
21
-1.4210854715202004e-14
31
0
0
LINE
8
REFERENCE
10
0.0
20
81.57183098591503
30
0
11
539.6
21
81.57183098591503
31
0
0
TEXT
8
REFERENCE
10
0
20
-12
30
0
40
4
1
PRELIMINARY - NOT FOR CNC - FACE A ONLY
0
ENDSEC
0
EOF
