0
SECTION
2
HEADER
9
$ACADVER
1
AC1015
9
$INSUNITS
70
4
0
ENDSEC
0
SECTION
2
TABLES
0
TABLE
2
LAYER
70
5
0
LAYER
2
CUT
70
0
62
7
6
CONTINUOUS
0
LAYER
2
POCKET
70
0
62
7
6
CONTINUOUS
0
LAYER
2
LOCATOR
70
0
62
7
6
CONTINUOUS
0
LAYER
2
ENGRAVE
70
0
62
7
6
CONTINUOUS
0
LAYER
2
REFERENCE
70
0
62
7
6
CONTINUOUS
0
ENDTAB
0
ENDSEC
0
SECTION
2
ENTITIES
0
LINE
8
CUT
10
0.0
20
0.0
30
0
11
145.0
21
0.0
31
0
0
LINE
8
CUT
10
145.0
20
0.0
30
0
11
145.0
21
60.0
31
0
0
LINE
8
CUT
10
0.0
20
60.0
30
0
11
145.0
21
60.0
31
0
0
LINE
8
CUT
10
0.0
20
0.0
30
0
11
0.0
21
60.0
31
0
0
CIRCLE
8
CUT
10
13.0
20
50.0
30
0
40
2.75
0
CIRCLE
8
CUT
10
23.0
20
50.0
30
0
40
2.75
0
CIRCLE
8
CUT
10
33.0
20
50.0
30
0
40
2.75
0
CIRCLE
8
CUT
10
65.0
20
52.0
30
0
40
2.75
0
CIRCLE
8
CUT
10
120.0
20
52.0
30
0
40
2.75
0
CIRCLE
8
CUT
10
13.0
20
10.0
30
0
40
2.75
0
CIRCLE
8
CUT
10
23.0
20
10.0
30
0
40
2.75
0
CIRCLE
8
CUT
10
33.0
20
10.0
30
0
40
2.75
0
CIRCLE
8
CUT
10
65.0
20
8.0
30
0
40
2.75
0
CIRCLE
8
CUT
10
120.0
20
8.0
30
0
40
2.75
0
LINE
8
POCKET
10
145.0
20
22.8
30
0
11
145.0
21
37.2
31
0
0
ARC
8
POCKET
10
143.0
20
37.19999999999999
30
0
40
2.0
50
2.0355549961366507e-13
51
90.0
0
LINE
8
POCKET
10
22.0
20
39.19999999999999
30
0
11
143.0
21
39.19999999999999
31
0
0
ARC
8
POCKET
10
22.0
20
37.19999999999999
30
0
40
2.0
50
90.0000000000002
51
180.0000000000004
0
LINE
8
POCKET
10
20.0
20
22.80000000000001
30
0
11
20.0
21
37.20000000000001
31
0
0
ARC
8
POCKET
10
22.0
20
22.80000000000001
30
0
40
2.0
50
180.0000000000002
51
269.9999999999998
0
LINE
8
POCKET
10
22.0
20
20.80000000000001
30
0
11
143.0
21
20.80000000000001
31
0
0
ARC
8
POCKET
10
143.0
20
22.80000000000001
30
0
40
2.0
50
270.0
51
359.9999999999998
0
LINE
8
REFERENCE
10
0.0
20
0.0
30
0
11
145.0
21
0.0
31
0
0
LINE
8
REFERENCE
10
145.0
20
0.0
30
0
11
145.0
21
60.0
31
0
0
LINE
8
REFERENCE
10
0.0
20
60.0
30
0
11
145.0
21
60.0
31
0
0
LINE
8
REFERENCE
10
0.0
20
0.0
30
0
11
0.0
21
60.0
31
0
0
TEXT
8
REFERENCE
10
0
20
-12
30
0
40
4
1
PRELIMINARY - NOT FOR CNC - FACE A ONLY
0
ENDSEC
0
EOF
