0
SECTION
2
HEADER
9
$ACADVER
1
AC1015
9
$INSUNITS
70
4
0
ENDSEC
0
SECTION
2
TABLES
0
TABLE
2
LAYER
70
5
0
LAYER
2
CUT
70
0
62
7
6
CONTINUOUS
0
LAYER
2
POCKET
70
0
62
7
6
CONTINUOUS
0
LAYER
2
LOCATOR
70
0
62
7
6
CONTINUOUS
0
LAYER
2
ENGRAVE
70
0
62
7
6
CONTINUOUS
0
LAYER
2
REFERENCE
70
0
62
7
6
CONTINUOUS
0
ENDTAB
0
ENDSEC
0
SECTION
2
ENTITIES
0
LINE
8
CUT
10
285.0
20
0.0
30
0
11
285.0
21
460.0
31
0
0
LINE
8
CUT
10
285.0
20
460.0
30
0
11
0.0
21
460.0
31
0
0
LINE
8
CUT
10
0.0
20
0.0
30
0
11
0.0
21
460.0
31
0
0
LINE
8
CUT
10
285.0
20
0.0
30
0
11
0.0
21
0.0
31
0
0
LINE
8
REFERENCE
10
285.0
20
0.0
30
0
11
285.0
21
460.0
31
0
0
LINE
8
REFERENCE
10
285.0
20
460.0
30
0
11
0.0
21
460.0
31
0
0
LINE
8
REFERENCE
10
285.0
20
0.0
30
0
11
0.0
21
0.0
31
0
0
LINE
8
REFERENCE
10
0.0
20
0.0
30
0
11
0.0
21
460.0
31
0
0
LINE
8
REFERENCE
10
261.5
20
20.0
30
0
11
263.5
21
20.0
31
0
0
LINE
8
REFERENCE
10
262.5
20
19.0
30
0
11
262.5
21
21.0
31
0
0
LINE
8
REFERENCE
10
261.5
20
20.0
30
0
11
263.5
21
20.0
31
0
0
LINE
8
REFERENCE
10
262.5
20
19.0
30
0
11
262.5
21
21.0
31
0
0
LINE
8
REFERENCE
10
21.5
20
20.0
30
0
11
23.5
21
20.0
31
0
0
LINE
8
REFERENCE
10
22.5
20
19.0
30
0
11
22.5
21
21.0
31
0
0
LINE
8
REFERENCE
10
21.499999999999996
20
20.0
30
0
11
23.499999999999996
21
20.0
31
0
0
LINE
8
REFERENCE
10
22.499999999999996
20
19.0
30
0
11
22.499999999999996
21
21.0
31
0
0
LINE
8
REFERENCE
10
261.5
20
440.0
30
0
11
263.5
21
440.0
31
0
0
LINE
8
REFERENCE
10
262.5
20
439.0
30
0
11
262.5
21
441.0
31
0
0
LINE
8
REFERENCE
10
261.5
20
440.0
30
0
11
263.5
21
440.0
31
0
0
LINE
8
REFERENCE
10
262.5
20
439.0
30
0
11
262.5
21
441.0
31
0
0
LINE
8
REFERENCE
10
21.5
20
440.0
30
0
11
23.5
21
440.0
31
0
0
LINE
8
REFERENCE
10
22.5
20
439.0
30
0
11
22.5
21
441.0
31
0
0
LINE
8
REFERENCE
10
21.499999999999996
20
440.0
30
0
11
23.499999999999996
21
440.0
31
0
0
LINE
8
REFERENCE
10
22.499999999999996
20
439.0
30
0
11
22.499999999999996
21
441.0
31
0
0
TEXT
8
REFERENCE
10
0
20
-12
30
0
40
4
1
PRELIMINARY - NOT FOR CNC - FACE A ONLY
0
ENDSEC
0
EOF
