0
SECTION
2
HEADER
9
$ACADVER
1
AC1015
9
$INSUNITS
70
4
0
ENDSEC
0
SECTION
2
TABLES
0
TABLE
2
LAYER
70
5
0
LAYER
2
CUT
70
0
62
7
6
CONTINUOUS
0
LAYER
2
POCKET
70
0
62
7
6
CONTINUOUS
0
LAYER
2
LOCATOR
70
0
62
7
6
CONTINUOUS
0
LAYER
2
ENGRAVE
70
0
62
7
6
CONTINUOUS
0
LAYER
2
REFERENCE
70
0
62
7
6
CONTINUOUS
0
ENDTAB
0
ENDSEC
0
SECTION
2
ENTITIES
0
LINE
8
CUT
10
564.0
20
0.0
30
0
11
564.0
21
162.975
31
0
0
LINE
8
CUT
10
564.0
20
162.9749999999999
30
0
11
0.0
21
162.9749999999999
31
0
0
LINE
8
CUT
10
0.0
20
0.0
30
0
11
0.0
21
162.975
31
0
0
LINE
8
CUT
10
564.0
20
0.0
30
0
11
0.0
21
0.0
31
0
0
LINE
8
CUT
10
154.00000000000006
20
60.875
30
0
11
410.00000000000006
21
60.875
31
0
0
ARC
8
CUT
10
410.0
20
62.87500000000006
30
0
40
2.0
50
270.00000000000165
51
359.9999999999986
0
LINE
8
CUT
10
412.0
20
62.875
30
0
11
412.0
21
118.875
31
0
0
ARC
8
CUT
10
410.0
20
118.875
30
0
40
2.0
50
0.0
51
90.0
0
LINE
8
CUT
10
154.00000000000006
20
120.875
30
0
11
409.99999999999994
21
120.875
31
0
0
ARC
8
CUT
10
154.00000000000006
20
118.87500000000001
30
0
40
2.0
50
90.0
51
180.0000000000004
0
LINE
8
CUT
10
152.00000000000006
20
62.875
30
0
11
152.00000000000006
21
118.875
31
0
0
ARC
8
CUT
10
154.00000000000006
20
62.875
30
0
40
2.0
50
179.9999999999996
51
270.0
0
CIRCLE
8
CUT
10
451.9999999999999
20
132.875
30
0
40
6.0
0
CIRCLE
8
CUT
10
111.99999999999994
20
132.875
30
0
40
6.0
0
LINE
8
REFERENCE
10
563.9999999999999
20
0.0
30
0
11
563.9999999999999
21
162.9749999999999
31
0
0
LINE
8
REFERENCE
10
563.9999999999999
20
162.9749999999999
30
0
11
-1.1368683772161603e-13
21
162.9749999999999
31
0
0
LINE
8
REFERENCE
10
-1.1368683772161603e-13
20
0.0
30
0
11
-1.1368683772161603e-13
21
162.9749999999999
31
0
0
LINE
8
REFERENCE
10
563.9999999999999
20
0.0
30
0
11
-1.1368683772161603e-13
21
0.0
31
0
0
LINE
8
REFERENCE
10
536.0
20
12.875
30
0
11
538.0
21
12.875
31
0
0
LINE
8
REFERENCE
10
537.0
20
11.875
30
0
11
537.0
21
13.875
31
0
0
LINE
8
REFERENCE
10
536.0
20
52.875
30
0
11
538.0
21
52.875
31
0
0
LINE
8
REFERENCE
10
537.0
20
51.875
30
0
11
537.0
21
53.875
31
0
0
LINE
8
REFERENCE
10
26.0
20
12.875
30
0
11
28.0
21
12.875
31
0
0
LINE
8
REFERENCE
10
27.0
20
11.875
30
0
11
27.0
21
13.875
31
0
0
LINE
8
REFERENCE
10
26.0
20
52.875
30
0
11
28.0
21
52.875
31
0
0
LINE
8
REFERENCE
10
27.0
20
51.875
30
0
11
27.0
21
53.875
31
0
0
TEXT
8
REFERENCE
10
0
20
-12
30
0
40
4
1
PRELIMINARY - NOT FOR CNC - FACE A ONLY
0
ENDSEC
0
EOF
