<svg xmlns="http://www.w3.org/2000/svg" width="584.0mm" height="197.9749999999999mm" viewBox="-10.0 -20.0 584.0 197.9749999999999">
<title>M018 PRELIMINARY — NOT FOR CNC</title>
<metadata>CERN-OHL-S-2.0; Source Location: https://github.com/advpeterrobinson-hash/vpin-cabinet</metadata>
<g id="CUT" fill="none" stroke="black" stroke-width="0.15">
<g data-operation="OUTLINE_OR_REFERENCE"><path d="M 564.0 0.0 L 564.0 162.975"/></g>
<g data-operation="OUTLINE_OR_REFERENCE"><path d="M 564.0 162.9749999999999 L 0.0 162.9749999999999"/></g>
<g data-operation="OUTLINE_OR_REFERENCE"><path d="M 0.0 0.0 L 0.0 162.975"/></g>
<g data-operation="OUTLINE_OR_REFERENCE"><path d="M 564.0 0.0 L 0.0 0.0"/></g>
<g data-operation="P028-Main-R1"><path d="M 154.00000000000006 60.875 L 410.00000000000006 60.875"/></g>
<g data-operation="P028-Main-R1"><path d="M 412.0 62.87500000000001 A 2.0 2.0 0 0 0 410.00000000000006 60.87500000000006"/></g>
<g data-operation="P028-Main-R1"><path d="M 412.0 62.875 L 412.0 118.875"/></g>
<g data-operation="P028-Main-R1"><path d="M 410.0 120.875 A 2.0 2.0 0 0 0 412.0 118.875"/></g>
<g data-operation="P028-Main-R1"><path d="M 154.00000000000006 120.875 L 409.99999999999994 120.875"/></g>
<g data-operation="P028-Main-R1"><path d="M 152.00000000000006 118.875 A 2.0 2.0 0 0 0 154.00000000000006 120.87500000000001"/></g>
<g data-operation="P028-Main-R1"><path d="M 152.00000000000006 62.875 L 152.00000000000006 118.875"/></g>
<g data-operation="P028-Main-R1"><path d="M 154.00000000000006 60.875 A 2.0 2.0 0 0 0 152.00000000000006 62.875000000000014"/></g>
<g data-operation="P028-Main-R2"><circle cx="451.9999999999999" cy="132.875" r="6.0"/></g>
<g data-operation="P028-Main-R3"><circle cx="111.99999999999994" cy="132.875" r="6.0"/></g>
</g>
<g id="POCKET" fill="none" stroke="black" stroke-width="0.15">
</g>
<g id="LOCATOR" fill="none" stroke="black" stroke-width="0.15">
</g>
<g id="ENGRAVE" fill="none" stroke="black" stroke-width="0.15">
</g>
<g id="REFERENCE" fill="none" stroke="black" stroke-width="0.15" stroke-dasharray="1 1">
<g data-operation="OUTLINE_OR_REFERENCE"><path d="M 563.9999999999999 0.0 L 563.9999999999999 162.9749999999999"/></g>
<g data-operation="OUTLINE_OR_REFERENCE"><path d="M 563.9999999999999 162.9749999999999 L -1.1368683772161603e-13 162.9749999999999"/></g>
<g data-operation="OUTLINE_OR_REFERENCE"><path d="M -1.1368683772161603e-13 0.0 L -1.1368683772161603e-13 162.9749999999999"/></g>
<g data-operation="OUTLINE_OR_REFERENCE"><path d="M 563.9999999999999 0.0 L -1.1368683772161603e-13 0.0"/></g>
<g data-operation="OUTLINE_OR_REFERENCE"><path d="M 536.0 12.875 L 538.0 12.875"/></g>
<g data-operation="OUTLINE_OR_REFERENCE"><path d="M 537.0 11.875 L 537.0 13.875"/></g>
<g data-operation="OUTLINE_OR_REFERENCE"><path d="M 536.0 52.875 L 538.0 52.875"/></g>
<g data-operation="OUTLINE_OR_REFERENCE"><path d="M 537.0 51.875 L 537.0 53.875"/></g>
<g data-operation="OUTLINE_OR_REFERENCE"><path d="M 26.0 12.875 L 28.0 12.875"/></g>
<g data-operation="OUTLINE_OR_REFERENCE"><path d="M 27.0 11.875 L 27.0 13.875"/></g>
<g data-operation="OUTLINE_OR_REFERENCE"><path d="M 26.0 52.875 L 28.0 52.875"/></g>
<g data-operation="OUTLINE_OR_REFERENCE"><path d="M 27.0 51.875 L 27.0 53.875"/></g>
</g>
<g id="REVIEW_LABELS"><text x="0.0" y="-8.0" font-family="sans-serif" font-size="5">M018 — PRELIMINARY — NOT FOR CNC</text></g></svg>
