0
SECTION
2
HEADER
9
$ACADVER
1
AC1015
9
$INSUNITS
70
4
0
ENDSEC
0
SECTION
2
TABLES
0
TABLE
2
LAYER
70
5
0
LAYER
2
CUT
70
0
62
7
6
CONTINUOUS
0
LAYER
2
POCKET
70
0
62
7
6
CONTINUOUS
0
LAYER
2
LOCATOR
70
0
62
7
6
CONTINUOUS
0
LAYER
2
ENGRAVE
70
0
62
7
6
CONTINUOUS
0
LAYER
2
REFERENCE
70
0
62
7
6
CONTINUOUS
0
ENDTAB
0
ENDSEC
0
SECTION
2
ENTITIES
0
LINE
8
CUT
10
54.000000000000014
20
57.889087300016186
30
0
11
54.000000000000014
21
3.889087300016186
31
0
0
LINE
8
CUT
10
54.000000000000014
20
3.8890873000161825
30
0
11
7.105427357601002e-15
21
3.8890873000161825
31
0
0
LINE
8
CUT
10
-1.7763568394002505e-15
20
3.889087300016177
30
0
11
53.999999999999986
21
57.88908730001616
31
0
0
LINE
8
REFERENCE
10
53.999999999999986
20
57.8890873000162
30
0
11
53.999999999999986
21
3.8890873000162074
31
0
0
LINE
8
REFERENCE
10
-2.842170943040401e-14
20
3.889087300016193
30
0
11
54.000000000000014
21
57.88908730001624
31
0
0
LINE
8
REFERENCE
10
53.999999999999986
20
3.8890873000162003
30
0
11
-2.842170943040401e-14
21
3.8890873000162003
31
0
0
LINE
8
REFERENCE
10
53.00000000000001
20
3.8890873000160635
30
0
11
55.00000000000001
21
3.8890873000160635
31
0
0
LINE
8
REFERENCE
10
54.00000000000001
20
2.8890873000160635
30
0
11
54.00000000000001
21
4.8890873000160635
31
0
0
TEXT
8
REFERENCE
10
0
20
-12
30
0
40
4
1
PRELIMINARY - NOT FOR CNC - FACE A ONLY
0
ENDSEC
0
EOF
