0
SECTION
2
HEADER
9
$ACADVER
1
AC1015
9
$INSUNITS
70
4
0
ENDSEC
0
SECTION
2
TABLES
0
TABLE
2
LAYER
70
5
0
LAYER
2
CUT
70
0
62
7
6
CONTINUOUS
0
LAYER
2
POCKET
70
0
62
7
6
CONTINUOUS
0
LAYER
2
LOCATOR
70
0
62
7
6
CONTINUOUS
0
LAYER
2
ENGRAVE
70
0
62
7
6
CONTINUOUS
0
LAYER
2
REFERENCE
70
0
62
7
6
CONTINUOUS
0
ENDTAB
0
ENDSEC
0
SECTION
2
ENTITIES
0
ARC
8
CUT
10
8.0
20
0.0
30
0
40
7.9999999999999964
50
90.00000000000018
51
179.99999999999983
0
LINE
8
CUT
10
14.0
20
8.0
30
0
11
8.0
21
8.0
31
0
0
ARC
8
CUT
10
14.0
20
16.0
30
0
40
8.000000000000009
50
269.9999999999999
51
1.0177774980683245e-13
0
LINE
8
CUT
10
22.00000000000003
20
86.961305592029
30
0
11
22.00000000000003
21
16.0
31
0
0
ARC
8
CUT
10
14.000000000000028
20
86.96130559202902
30
0
40
7.999999999999993
50
3.0533324942049786e-13
51
89.99999999999991
0
LINE
8
CUT
10
8.0
20
94.96130559202902
30
0
11
14.000000000000028
21
94.96130559202902
31
0
0
ARC
8
CUT
10
8.0
20
102.96130559202896
30
0
40
7.999999999999986
50
180.0000000000002
51
269.9999999999999
0
LINE
8
CUT
10
0.0
20
102.961305592029
30
0
11
0.0
21
1020.0
31
0
0
LINE
8
CUT
10
2.27373675443232e-13
20
1019.9999999999998
30
0
11
500.0
21
1019.9999999999998
31
0
0
LINE
8
CUT
10
499.9999999999999
20
102.961305592029
30
0
11
499.9999999999999
21
1020.0
31
0
0
ARC
8
CUT
10
492.0
20
102.96130559202896
30
0
40
7.999999999999986
50
269.9999999999996
51
0.0
0
LINE
8
CUT
10
492.0
20
94.96130559202902
30
0
11
486.0
21
94.96130559202902
31
0
0
ARC
8
CUT
10
486.0
20
86.96130559202902
30
0
40
8.0
50
90.00000000000041
51
179.9999999999999
0
LINE
8
CUT
10
478.0
20
86.961305592029
30
0
11
478.0
21
16.0
31
0
0
ARC
8
CUT
10
486.0
20
16.0
30
0
40
8.000000000000009
50
180.00000000000006
51
270.0000000000004
0
LINE
8
CUT
10
486.0
20
8.0
30
0
11
492.0
21
8.0
31
0
0
ARC
8
CUT
10
492.0
20
0.0
30
0
40
8.0
50
359.99999999999983
51
90.0
0
LINE
8
CUT
10
0.0
20
0.0
30
0
11
500.0
21
0.0
31
0
0
ARC
8
REFERENCE
10
7.999999999999979
20
-5.684341886080802e-14
30
0
40
7.999999999999996
50
89.9999999999998
51
180.0
0
LINE
8
REFERENCE
10
13.999999999999986
20
7.999999999999915
30
0
11
7.999999999999986
21
7.999999999999915
31
0
0
ARC
8
REFERENCE
10
13.999999999999979
20
15.999999999999943
30
0
40
8.000000000000007
50
269.9999999999999
51
0.0
0
LINE
8
REFERENCE
10
21.999999999999986
20
86.96130559202896
30
0
11
21.999999999999986
21
15.999999999999943
31
0
0
ARC
8
REFERENCE
10
13.999999999999993
20
86.96130559202894
30
0
40
7.999999999999992
50
4.071109992273305e-13
51
89.99999999999994
0
LINE
8
REFERENCE
10
7.999999999999986
20
94.96130559202896
30
0
11
13.999999999999993
21
94.96130559202896
31
0
0
ARC
8
REFERENCE
10
7.999999999999979
20
102.9613055920289
30
0
40
7.9999999999999885
50
179.9999999999998
51
270.00000000000006
0
LINE
8
REFERENCE
10
-1.4210854715202004e-14
20
102.96130559202886
30
0
11
-1.4210854715202004e-14
21
1019.9999999999997
31
0
0
LINE
8
REFERENCE
10
-1.4210854715202004e-14
20
1019.9999999999997
30
0
11
499.9999999999999
21
1019.9999999999997
31
0
0
LINE
8
REFERENCE
10
499.9999999999999
20
102.96130559202886
30
0
11
499.9999999999999
21
1019.9999999999997
31
0
0
ARC
8
REFERENCE
10
491.9999999999999
20
102.9613055920289
30
0
40
7.9999999999999885
50
270.0
51
0.0
0
LINE
8
REFERENCE
10
491.9999999999999
20
94.96130559202896
30
0
11
485.9999999999999
21
94.96130559202896
31
0
0
ARC
8
REFERENCE
10
485.9999999999999
20
86.96130559202894
30
0
40
7.999999999999992
50
90.0
51
180.0
0
LINE
8
REFERENCE
10
477.9999999999999
20
86.96130559202896
30
0
11
477.9999999999999
21
15.999999999999943
31
0
0
ARC
8
REFERENCE
10
485.9999999999999
20
15.999999999999943
30
0
40
8.000000000000007
50
179.9999999999998
51
270.0
0
LINE
8
REFERENCE
10
485.9999999999999
20
7.999999999999915
30
0
11
491.9999999999999
21
7.999999999999915
31
0
0
ARC
8
REFERENCE
10
491.9999999999999
20
-5.684341886080802e-14
30
0
40
7.999999999999996
50
359.9999999999998
51
90.0
0
LINE
8
REFERENCE
10
-1.4210854715202004e-14
20
-1.1723955140041653e-13
30
0
11
499.9999999999999
21
-1.1723955140041653e-13
31
0
0
TEXT
8
REFERENCE
10
0
20
-12
30
0
40
4
1
PRELIMINARY - NOT FOR CNC - FACE A ONLY
0
ENDSEC
0
EOF
