0
SECTION
2
HEADER
9
$ACADVER
1
AC1015
9
$INSUNITS
70
4
0
ENDSEC
0
SECTION
2
TABLES
0
TABLE
2
LAYER
70
5
0
LAYER
2
CUT
70
0
62
7
6
CONTINUOUS
0
LAYER
2
POCKET
70
0
62
7
6
CONTINUOUS
0
LAYER
2
LOCATOR
70
0
62
7
6
CONTINUOUS
0
LAYER
2
ENGRAVE
70
0
62
7
6
CONTINUOUS
0
LAYER
2
REFERENCE
70
0
62
7
6
CONTINUOUS
0
ENDTAB
0
ENDSEC
0
SECTION
2
ENTITIES
0
LINE
8
CUT
10
417.2203301149065
20
15.249380152820095
30
0
11
417.2203301149065
21
19.749380152820095
31
0
0
ARC
8
CUT
10
415.2203301149065
20
19.749380152820095
30
0
40
2.0
50
2.0355549961366507e-13
51
90.0
0
LINE
8
CUT
10
415.2203301149065
20
21.749380152820095
30
0
11
-4.547473508864641e-13
21
21.749380152820095
31
0
0
LINE
8
CUT
10
0.0
20
21.749380152820095
30
0
11
0.0
21
80.0
31
0
0
LINE
8
CUT
10
0.0
20
80.0
30
0
11
458.0
21
80.0
31
0
0
LINE
8
CUT
10
458.0
20
80.00000000000003
30
0
11
458.0
21
59.50000000000002
31
0
0
ARC
8
CUT
10
455.0
20
59.5
30
0
40
3.0
50
270.0
51
359.9999999999999
0
LINE
8
CUT
10
448.72033011490623
20
56.5
30
0
11
455.0000000000002
21
56.5
31
0
0
ARC
8
CUT
10
448.7203301149065
20
40.0
30
0
40
16.5
50
90.0
51
269.9999999999998
0
LINE
8
CUT
10
448.72033011490623
20
23.5
30
0
11
478.22033011490623
21
23.5
31
0
0
LINE
8
CUT
10
478.2203301149066
20
23.5
30
0
11
478.2203301149066
21
0.0
31
0
0
LINE
8
CUT
10
478.2203301149066
20
0.0
30
0
11
453.48010776226715
21
0.0
31
0
0
LINE
8
CUT
10
453.4801077622672
20
0.0
30
0
11
453.4801077622672
21
13.2493801528201
31
0
0
ARC
8
CUT
10
451.4801077622672
20
13.249380152820095
30
0
40
2.0
50
2.0355549961366507e-13
51
90.0
0
LINE
8
CUT
10
451.4801077622672
20
15.249380152820095
30
0
11
417.2203301149065
21
15.249380152820095
31
0
0
LINE
8
REFERENCE
10
417.2203301149065
20
15.249380152819981
30
0
11
417.2203301149065
21
21.74938015281998
31
0
0
LINE
8
REFERENCE
10
453.4801077622672
20
15.249380152819981
30
0
11
417.2203301149065
21
15.249380152819981
31
0
0
LINE
8
REFERENCE
10
453.4801077622672
20
-1.1368683772161603e-13
30
0
11
453.4801077622672
21
15.249380152819981
31
0
0
LINE
8
REFERENCE
10
478.2203301149066
20
-1.1368683772161603e-13
30
0
11
453.48010776226715
21
-1.1368683772161603e-13
31
0
0
LINE
8
REFERENCE
10
478.2203301149066
20
23.499999999999886
30
0
11
478.2203301149066
21
-1.1368683772161603e-13
31
0
0
LINE
8
REFERENCE
10
448.72033011490623
20
23.499999999999886
30
0
11
478.22033011490623
21
23.499999999999886
31
0
0
ARC
8
REFERENCE
10
448.7203301149065
20
39.999999999999886
30
0
40
16.5
50
90.00000000000118
51
269.9999999999992
0
LINE
8
REFERENCE
10
448.72033011490623
20
56.499999999999886
30
0
11
455.0000000000002
21
56.499999999999886
31
0
0
ARC
8
REFERENCE
10
455.0
20
59.499999999999886
30
0
40
3.0
50
270.0
51
0.0
0
LINE
8
REFERENCE
10
458.0
20
79.99999999999989
30
0
11
458.0
21
59.499999999999886
31
0
0
LINE
8
REFERENCE
10
0.0
20
79.99999999999989
30
0
11
458.0
21
79.99999999999989
31
0
0
LINE
8
REFERENCE
10
0.0
20
21.74938015281998
30
0
11
0.0
21
79.99999999999989
31
0
0
LINE
8
REFERENCE
10
417.2203301149065
20
21.74938015281998
30
0
11
-4.547473508864641e-13
21
21.74938015281998
31
0
0
LINE
8
REFERENCE
10
411.2203301149065
20
60.0
30
0
11
413.2203301149065
21
60.0
31
0
0
LINE
8
REFERENCE
10
412.2203301149065
20
59.0
30
0
11
412.2203301149065
21
61.0
31
0
0
LINE
8
REFERENCE
10
411.2203301149065
20
60.0
30
0
11
413.2203301149065
21
60.0
31
0
0
LINE
8
REFERENCE
10
412.2203301149065
20
59.0
30
0
11
412.2203301149065
21
61.0
31
0
0
LINE
8
REFERENCE
10
155.0
20
41.749380152820095
30
0
11
157.0
21
41.749380152820095
31
0
0
LINE
8
REFERENCE
10
156.0
20
40.749380152820095
30
0
11
156.0
21
42.749380152820095
31
0
0
LINE
8
REFERENCE
10
155.0
20
41.749380152820095
30
0
11
157.0
21
41.749380152820095
31
0
0
LINE
8
REFERENCE
10
156.0
20
40.749380152820095
30
0
11
156.0
21
42.749380152820095
31
0
0
LINE
8
REFERENCE
10
283.1101650574533
20
47.249380152820095
30
0
11
285.1101650574533
21
47.249380152820095
31
0
0
LINE
8
REFERENCE
10
284.1101650574533
20
46.249380152820095
30
0
11
284.1101650574533
21
48.249380152820095
31
0
0
LINE
8
REFERENCE
10
283.1101650574533
20
47.249380152820095
30
0
11
285.1101650574533
21
47.249380152820095
31
0
0
LINE
8
REFERENCE
10
284.1101650574533
20
46.249380152820095
30
0
11
284.1101650574533
21
48.249380152820095
31
0
0
TEXT
8
REFERENCE
10
0
20
-12
30
0
40
4
1
PRELIMINARY - NOT FOR CNC - FACE A ONLY
0
ENDSEC
0
EOF
