0
SECTION
2
HEADER
9
$ACADVER
1
AC1015
9
$INSUNITS
70
4
0
ENDSEC
0
SECTION
2
TABLES
0
TABLE
2
LAYER
70
5
0
LAYER
2
CUT
70
0
62
7
6
CONTINUOUS
0
LAYER
2
POCKET
70
0
62
7
6
CONTINUOUS
0
LAYER
2
LOCATOR
70
0
62
7
6
CONTINUOUS
0
LAYER
2
ENGRAVE
70
0
62
7
6
CONTINUOUS
0
LAYER
2
REFERENCE
70
0
62
7
6
CONTINUOUS
0
ENDTAB
0
ENDSEC
0
SECTION
2
ENTITIES
0
LINE
8
CUT
10
61.000000000000114
20
15.249380152820095
30
0
11
61.000000000000114
21
19.749380152820095
31
0
0
ARC
8
CUT
10
63.000000000000114
20
19.749380152820095
30
0
40
2.0
50
90.0000000000002
51
179.9999999999998
0
LINE
8
CUT
10
63.000000000000114
20
21.749380152820095
30
0
11
478.2203301149071
21
21.749380152820095
31
0
0
LINE
8
CUT
10
478.22033011490663
20
21.749380152820095
30
0
11
478.22033011490663
21
80.0
31
0
0
LINE
8
CUT
10
478.22033011490663
20
80.0
30
0
11
20.22033011490663
21
80.0
31
0
0
LINE
8
CUT
10
20.22033011490663
20
80.00000000000003
30
0
11
20.22033011490663
21
59.50000000000002
31
0
0
ARC
8
CUT
10
23.22033011490663
20
59.5
30
0
40
3.0
50
180.00000000000014
51
269.9999999999998
0
LINE
8
CUT
10
29.500000000000426
20
56.5
30
0
11
23.220330114906417
21
56.5
31
0
0
ARC
8
CUT
10
29.500000000000114
20
40.0
30
0
40
16.5
50
270.00000000000017
51
89.99999999999999
0
LINE
8
CUT
10
29.500000000000426
20
23.5
30
0
11
4.263256414560601e-13
21
23.5
31
0
0
LINE
8
CUT
10
1.1368683772161603e-13
20
23.5
30
0
11
1.1368683772161603e-13
21
0.0
31
0
0
LINE
8
CUT
10
1.1368683772161603e-13
20
0.0
30
0
11
24.740222352639414
21
0.0
31
0
0
LINE
8
CUT
10
24.74022235263942
20
0.0
30
0
11
24.74022235263942
21
13.2493801528201
31
0
0
ARC
8
CUT
10
26.74022235263942
20
13.249380152820095
30
0
40
2.0
50
90.0000000000002
51
179.9999999999998
0
LINE
8
CUT
10
26.74022235263942
20
15.249380152820095
30
0
11
61.00000000000012
21
15.249380152820095
31
0
0
LINE
8
REFERENCE
10
61.00000000000057
20
15.249380152819981
30
0
11
61.00000000000057
21
21.74938015281998
31
0
0
LINE
8
REFERENCE
10
24.740222352639876
20
15.249380152819981
30
0
11
61.00000000000057
21
15.249380152819981
31
0
0
LINE
8
REFERENCE
10
24.740222352639876
20
-1.1368683772161603e-13
30
0
11
24.740222352639876
21
15.249380152819981
31
0
0
LINE
8
REFERENCE
10
5.684341886080801e-13
20
-1.1368683772161603e-13
30
0
11
24.740222352639933
21
-1.1368683772161603e-13
31
0
0
LINE
8
REFERENCE
10
5.684341886080801e-13
20
23.499999999999886
30
0
11
5.684341886080801e-13
21
-1.1368683772161603e-13
31
0
0
LINE
8
REFERENCE
10
29.500000000000853
20
23.499999999999886
30
0
11
9.094947017729282e-13
21
23.499999999999886
31
0
0
ARC
8
REFERENCE
10
29.50000000000057
20
39.999999999999886
30
0
40
16.5
50
270.0000000000008
51
89.99999999999882
0
LINE
8
REFERENCE
10
29.500000000000853
20
56.499999999999886
30
0
11
23.220330114906858
21
56.499999999999886
31
0
0
ARC
8
REFERENCE
10
23.220330114907085
20
59.499999999999886
30
0
40
3.0
50
180.0
51
270.0
0
LINE
8
REFERENCE
10
20.220330114907085
20
79.99999999999989
30
0
11
20.220330114907085
21
59.499999999999886
31
0
0
LINE
8
REFERENCE
10
478.2203301149071
20
79.99999999999989
30
0
11
20.220330114907085
21
79.99999999999989
31
0
0
LINE
8
REFERENCE
10
478.2203301149071
20
21.74938015281998
30
0
11
478.2203301149071
21
79.99999999999989
31
0
0
LINE
8
REFERENCE
10
61.00000000000057
20
21.74938015281998
30
0
11
478.22033011490754
21
21.74938015281998
31
0
0
LINE
8
REFERENCE
10
65.00000000000011
20
60.0
30
0
11
67.00000000000011
21
60.0
31
0
0
LINE
8
REFERENCE
10
66.00000000000011
20
59.0
30
0
11
66.00000000000011
21
61.0
31
0
0
LINE
8
REFERENCE
10
65.00000000000011
20
60.0
30
0
11
67.00000000000011
21
60.0
31
0
0
LINE
8
REFERENCE
10
66.00000000000011
20
59.0
30
0
11
66.00000000000011
21
61.0
31
0
0
LINE
8
REFERENCE
10
321.22033011490663
20
41.749380152820095
30
0
11
323.22033011490663
21
41.749380152820095
31
0
0
LINE
8
REFERENCE
10
322.22033011490663
20
40.749380152820095
30
0
11
322.22033011490663
21
42.749380152820095
31
0
0
LINE
8
REFERENCE
10
321.22033011490663
20
41.749380152820095
30
0
11
323.22033011490663
21
41.749380152820095
31
0
0
LINE
8
REFERENCE
10
322.22033011490663
20
40.749380152820095
30
0
11
322.22033011490663
21
42.749380152820095
31
0
0
LINE
8
REFERENCE
10
193.11016505745334
20
47.249380152820095
30
0
11
195.11016505745334
21
47.249380152820095
31
0
0
LINE
8
REFERENCE
10
194.11016505745334
20
46.249380152820095
30
0
11
194.11016505745334
21
48.249380152820095
31
0
0
LINE
8
REFERENCE
10
193.11016505745334
20
47.249380152820095
30
0
11
195.11016505745334
21
47.249380152820095
31
0
0
LINE
8
REFERENCE
10
194.11016505745334
20
46.249380152820095
30
0
11
194.11016505745334
21
48.249380152820095
31
0
0
TEXT
8
REFERENCE
10
0
20
-12
30
0
40
4
1
PRELIMINARY - NOT FOR CNC - FACE A ONLY
0
ENDSEC
0
EOF
