0
SECTION
2
HEADER
9
$ACADVER
1
AC1015
9
$INSUNITS
70
4
0
ENDSEC
0
SECTION
2
TABLES
0
TABLE
2
LAYER
70
5
0
LAYER
2
CUT
70
0
62
7
6
CONTINUOUS
0
LAYER
2
POCKET
70
0
62
7
6
CONTINUOUS
0
LAYER
2
LOCATOR
70
0
62
7
6
CONTINUOUS
0
LAYER
2
ENGRAVE
70
0
62
7
6
CONTINUOUS
0
LAYER
2
REFERENCE
70
0
62
7
6
CONTINUOUS
0
ENDTAB
0
ENDSEC
0
SECTION
2
ENTITIES
0
LINE
8
CUT
10
170.0
20
0.0
30
0
11
170.0
21
170.0
31
0
0
LINE
8
CUT
10
170.0
20
170.0
30
0
11
0.0
21
170.0
31
0
0
LINE
8
CUT
10
0.0
20
0.0
30
0
11
0.0
21
170.0
31
0
0
LINE
8
CUT
10
170.0
20
0.0
30
0
11
0.0
21
0.0
31
0
0
CIRCLE
8
CUT
10
155.0
20
15.0
30
0
40
2.25
0
CIRCLE
8
CUT
10
137.5
20
32.5
30
0
40
6.0
0
CIRCLE
8
CUT
10
15.0
20
15.0
30
0
40
2.25
0
CIRCLE
8
CUT
10
32.5
20
32.5
30
0
40
6.0
0
CIRCLE
8
CUT
10
137.5
20
137.5
30
0
40
6.0
0
CIRCLE
8
CUT
10
155.0
20
155.0
30
0
40
2.25
0
CIRCLE
8
CUT
10
85.0
20
85.0
30
0
40
58.0
0
CIRCLE
8
CUT
10
32.5
20
137.5
30
0
40
6.0
0
CIRCLE
8
CUT
10
15.0
20
155.0
30
0
40
2.25
0
LINE
8
REFERENCE
10
170.0
20
0.0
30
0
11
170.0
21
170.0
31
0
0
LINE
8
REFERENCE
10
170.0
20
170.0
30
0
11
0.0
21
170.0
31
0
0
LINE
8
REFERENCE
10
170.0
20
0.0
30
0
11
0.0
21
0.0
31
0
0
LINE
8
REFERENCE
10
0.0
20
0.0
30
0
11
0.0
21
170.0
31
0
0
TEXT
8
REFERENCE
10
0
20
-12
30
0
40
4
1
PRELIMINARY - NOT FOR CNC - FACE A ONLY
0
ENDSEC
0
EOF
