0
SECTION
2
HEADER
9
$ACADVER
1
AC1015
9
$INSUNITS
70
4
0
ENDSEC
0
SECTION
2
TABLES
0
TABLE
2
LAYER
70
5
0
LAYER
2
CUT
70
0
62
7
6
CONTINUOUS
0
LAYER
2
POCKET
70
0
62
7
6
CONTINUOUS
0
LAYER
2
LOCATOR
70
0
62
7
6
CONTINUOUS
0
LAYER
2
ENGRAVE
70
0
62
7
6
CONTINUOUS
0
LAYER
2
REFERENCE
70
0
62
7
6
CONTINUOUS
0
ENDTAB
0
ENDSEC
0
SECTION
2
ENTITIES
0
LINE
8
CUT
10
0.0
20
52.125
30
0
11
15.9
21
52.125
31
0
0
ARC
8
CUT
10
15.899999999999977
20
49.125
30
0
40
3.0
50
1.3570366640911003e-13
51
89.9999999999998
0
LINE
8
CUT
10
18.899999999999977
20
49.125
30
0
11
18.899999999999977
21
45.0
31
0
0
ARC
8
CUT
10
15.899999999999977
20
45.0
30
0
40
3.0
50
270.0
51
1.3570366640911003e-13
0
LINE
8
CUT
10
15.899999999999977
20
42.0
30
0
11
6.929843420380877
21
42.0
31
0
0
ARC
8
CUT
10
5.158289056961422
20
42.928221491590016
30
0
40
2.0
50
294.9999999999998
51
332.3473137847204
0
LINE
8
CUT
10
6.003525580442822
20
41.11560591751672
30
0
11
5.290524327617321
21
40.78312797305008
31
0
0
LINE
8
CUT
10
6.980997374580082
20
37.15789682490355
30
0
11
5.290524327617322
21
40.78312797305008
31
0
0
ARC
8
CUT
10
7.826233898061522
20
35.345281250830176
30
0
40
2.0
50
25.000000000002608
51
115.00000000000283
0
LINE
8
CUT
10
9.638849472134691
20
36.19051777431161
30
0
11
26.514765062890795
21
-4.263256414560601e-14
31
0
0
LINE
8
CUT
10
26.514765071953853
20
0.0
30
0
11
38.89999999999998
21
0.0
31
0
0
LINE
8
CUT
10
38.89999999999998
20
0.0
30
0
11
38.89999999999998
21
115.0
31
0
0
LINE
8
CUT
10
38.89999999999998
20
115.0
30
0
11
-2.1316282072803006e-14
21
115.0
31
0
0
LINE
8
CUT
10
0.0
20
115.0
30
0
11
0.0
21
52.125
31
0
0
LINE
8
REFERENCE
10
0.0
20
52.125
30
0
11
15.899999999999977
21
52.125
31
0
0
LINE
8
REFERENCE
10
0.0
20
115.0
30
0
11
0.0
21
52.125
31
0
0
LINE
8
REFERENCE
10
38.89999999999998
20
115.0
30
0
11
0.0
21
115.0
31
0
0
LINE
8
REFERENCE
10
38.89999999999998
20
0.0
30
0
11
38.89999999999998
21
115.0
31
0
0
LINE
8
REFERENCE
10
26.514765062890774
20
0.0
30
0
11
38.89999999999998
21
0.0
31
0
0
LINE
8
REFERENCE
10
8.79361294865339
20
38.003133348384836
30
0
11
26.514765062890774
21
0.0
31
0
0
LINE
8
REFERENCE
10
8.793612948653422
20
38.00313334838374
30
0
11
6.98099737458012
21
37.15789682490234
31
0
0
LINE
8
REFERENCE
10
6.98099737458012
20
37.15789682490234
30
0
11
5.2905243276173195
21
40.783127973048934
31
0
0
LINE
8
REFERENCE
10
7.103139901690621
20
41.62836449653034
30
0
11
5.2905243276173195
21
40.783127973048934
31
0
0
LINE
8
REFERENCE
10
6.929843420380848
20
42.0
30
0
11
7.103139901690497
21
41.6283644965315
31
0
0
LINE
8
REFERENCE
10
15.899999999999977
20
42.0
30
0
11
6.929843420380848
21
42.0
31
0
0
ARC
8
REFERENCE
10
15.899999999999977
20
45.0
30
0
40
3.0
50
270.0
51
0.0
0
LINE
8
REFERENCE
10
18.899999999999977
20
49.125
30
0
11
18.899999999999977
21
45.0
31
0
0
ARC
8
REFERENCE
10
15.899999999999977
20
49.125
30
0
40
3.0
50
0.0
51
90.0
0
LINE
8
REFERENCE
10
37.899999999999636
20
105.0
30
0
11
39.899999999999636
21
105.0
31
0
0
LINE
8
REFERENCE
10
38.899999999999636
20
104.0
30
0
11
38.899999999999636
21
106.0
31
0
0
LINE
8
REFERENCE
10
37.899999999999636
20
105.0
30
0
11
39.899999999999636
21
105.0
31
0
0
LINE
8
REFERENCE
10
38.899999999999636
20
104.0
30
0
11
38.899999999999636
21
106.0
31
0
0
LINE
8
REFERENCE
10
37.899999999999636
20
65.0
30
0
11
39.899999999999636
21
65.0
31
0
0
LINE
8
REFERENCE
10
38.899999999999636
20
64.0
30
0
11
38.899999999999636
21
66.0
31
0
0
LINE
8
REFERENCE
10
37.899999999999636
20
65.0
30
0
11
39.899999999999636
21
65.0
31
0
0
LINE
8
REFERENCE
10
38.899999999999636
20
64.0
30
0
11
38.899999999999636
21
66.0
31
0
0
LINE
8
REFERENCE
10
19.204306015652037
20
13.532823098395056
30
0
11
21.204306015652037
21
13.532823098395056
31
0
0
LINE
8
REFERENCE
10
20.204306015652037
20
12.532823098395056
30
0
11
20.204306015652037
21
14.532823098395056
31
0
0
TEXT
8
REFERENCE
10
0
20
-12
30
0
40
4
1
PRELIMINARY - NOT FOR CNC - FACE A ONLY
0
ENDSEC
0
EOF
