0
SECTION
2
HEADER
9
$ACADVER
1
AC1015
9
$INSUNITS
70
4
0
ENDSEC
0
SECTION
2
TABLES
0
TABLE
2
LAYER
70
5
0
LAYER
2
CUT
70
0
62
7
6
CONTINUOUS
0
LAYER
2
POCKET
70
0
62
7
6
CONTINUOUS
0
LAYER
2
LOCATOR
70
0
62
7
6
CONTINUOUS
0
LAYER
2
ENGRAVE
70
0
62
7
6
CONTINUOUS
0
LAYER
2
REFERENCE
70
0
62
7
6
CONTINUOUS
0
ENDTAB
0
ENDSEC
0
SECTION
2
ENTITIES
0
LINE
8
CUT
10
0.0
20
95.375
30
0
11
0.0
21
0.0
31
0
0
LINE
8
CUT
10
0.0
20
0.0
30
0
11
540.0
21
0.0
31
0
0
LINE
8
CUT
10
539.9999999999999
20
95.375
30
0
11
539.9999999999999
21
0.0
31
0
0
LINE
8
CUT
10
0.0
20
95.375
30
0
11
540.0
21
95.375
31
0
0
CIRCLE
8
CUT
10
14.999999999999993
20
40.3749999999975
30
0
40
2.2500000000001683
0
CIRCLE
8
CUT
10
524.9999999999999
20
40.3749999999975
30
0
40
2.2500000000001203
0
LINE
8
REFERENCE
10
-7.105427357601002e-15
20
95.37499999999841
30
0
11
-7.105427357601002e-15
21
-1.5916157281026244e-12
31
0
0
LINE
8
REFERENCE
10
1.13686837721616e-13
20
0.0
30
0
11
540.0
21
0.0
31
0
0
LINE
8
REFERENCE
10
539.9999999999999
20
95.37499999999841
30
0
11
539.9999999999999
21
-1.5916157281026244e-12
31
0
0
LINE
8
REFERENCE
10
-7.105427357601002e-15
20
95.37499999999841
30
0
11
539.9999999999999
21
95.37499999999841
31
0
0
LINE
8
REFERENCE
10
517.4999999999999
20
2.3749999999999996
30
0
11
519.4999999999999
21
2.3749999999999996
31
0
0
LINE
8
REFERENCE
10
518.4999999999999
20
1.3749999999999996
30
0
11
518.4999999999999
21
3.3749999999999996
31
0
0
LINE
8
REFERENCE
10
530.4999999999999
20
2.3749999999999996
30
0
11
532.4999999999999
21
2.3749999999999996
31
0
0
LINE
8
REFERENCE
10
531.4999999999999
20
1.3749999999999996
30
0
11
531.4999999999999
21
3.3749999999999996
31
0
0
LINE
8
REFERENCE
10
530.4999999999999
20
14.375
30
0
11
532.4999999999999
21
14.375
31
0
0
LINE
8
REFERENCE
10
531.4999999999999
20
13.375
30
0
11
531.4999999999999
21
15.375
31
0
0
LINE
8
REFERENCE
10
517.4999999999999
20
14.375
30
0
11
519.4999999999999
21
14.375
31
0
0
LINE
8
REFERENCE
10
518.4999999999999
20
13.375
30
0
11
518.4999999999999
21
15.375
31
0
0
LINE
8
REFERENCE
10
7.4999999999999964
20
2.3749999999999996
30
0
11
9.499999999999996
21
2.3749999999999996
31
0
0
LINE
8
REFERENCE
10
8.499999999999996
20
1.3749999999999996
30
0
11
8.499999999999996
21
3.3749999999999996
31
0
0
LINE
8
REFERENCE
10
20.499999999999996
20
2.3749999999999996
30
0
11
22.499999999999996
21
2.3749999999999996
31
0
0
LINE
8
REFERENCE
10
21.499999999999996
20
1.3749999999999996
30
0
11
21.499999999999996
21
3.3749999999999996
31
0
0
LINE
8
REFERENCE
10
20.499999999999996
20
14.375
30
0
11
22.499999999999996
21
14.375
31
0
0
LINE
8
REFERENCE
10
21.499999999999996
20
13.375
30
0
11
21.499999999999996
21
15.375
31
0
0
LINE
8
REFERENCE
10
7.4999999999999964
20
14.375
30
0
11
9.499999999999996
21
14.375
31
0
0
LINE
8
REFERENCE
10
8.499999999999996
20
13.375
30
0
11
8.499999999999996
21
15.375
31
0
0
TEXT
8
REFERENCE
10
0
20
-12
30
0
40
4
1
PRELIMINARY - NOT FOR CNC - FACE A ONLY
0
ENDSEC
0
EOF
