0
SECTION
2
HEADER
9
$ACADVER
1
AC1015
9
$INSUNITS
70
4
0
ENDSEC
0
SECTION
2
TABLES
0
TABLE
2
LAYER
70
5
0
LAYER
2
CUT
70
0
62
7
6
CONTINUOUS
0
LAYER
2
POCKET
70
0
62
7
6
CONTINUOUS
0
LAYER
2
LOCATOR
70
0
62
7
6
CONTINUOUS
0
LAYER
2
ENGRAVE
70
0
62
7
6
CONTINUOUS
0
LAYER
2
REFERENCE
70
0
62
7
6
CONTINUOUS
0
ENDTAB
0
ENDSEC
0
SECTION
2
ENTITIES
0
LINE
8
CUT
10
723.9000000000001
20
248.0
30
0
11
1.1368683772161603e-13
21
248.0
31
0
0
LINE
8
CUT
10
0.0
20
248.0
30
0
11
0.0
21
0.0
31
0
0
LINE
8
CUT
10
0.0
20
0.0
30
0
11
723.9000000000003
21
44.00000000000002
31
0
0
LINE
8
CUT
10
723.9000000000001
20
44.0
30
0
11
723.9000000000001
21
248.0
31
0
0
LINE
8
POCKET
10
723.9000000000001
20
93.90000000000009
30
0
11
723.9000000000001
21
246.0
31
0
0
ARC
8
POCKET
10
721.9000000000001
20
246.0
30
0
40
2.0
50
0.0
51
90.0
0
LINE
8
POCKET
10
721.9000000000001
20
248.0
30
0
11
707.8999999999996
21
248.0
31
0
0
ARC
8
POCKET
10
707.9000000000001
20
245.99999999999955
30
0
40
2.0
50
90.00000000001303
51
179.99999999998698
0
LINE
8
POCKET
10
705.9000000000001
20
245.99999999999952
30
0
11
705.9000000000001
21
93.90000000000012
31
0
0
ARC
8
POCKET
10
707.9000000000001
20
93.90000000000009
30
0
40
2.0
50
180.0
51
270.0
0
LINE
8
POCKET
10
721.9000000000001
20
91.90000000000009
30
0
11
707.9000000000001
21
91.90000000000009
31
0
0
ARC
8
POCKET
10
721.9000000000001
20
93.90000000000009
30
0
40
2.0
50
270.0
51
0.0
0
LINE
8
POCKET
10
18.0
20
245.99999999999991
30
0
11
18.0
21
65.90000000000009
31
0
0
LINE
8
POCKET
10
478.80000000000007
20
65.90000000000009
30
0
11
18.000000000000057
21
65.90000000000009
31
0
0
ARC
8
POCKET
10
478.80000000000007
20
63.90000000000009
30
0
40
2.0
50
2.0355549961366507e-13
51
90.0
0
LINE
8
POCKET
10
480.80000000000007
20
59.90000000000009
30
0
11
480.80000000000007
21
63.90000000000009
31
0
0
ARC
8
POCKET
10
478.80000000000007
20
59.90000000000009
30
0
40
2.0
50
270.0
51
359.9999999999998
0
LINE
8
POCKET
10
478.80000000000007
20
57.90000000000009
30
0
11
18.000000000000057
21
57.90000000000009
31
0
0
LINE
8
POCKET
10
18.0
20
57.900000000000105
30
0
11
18.0
21
3.0940737670948977
31
0
0
ARC
8
POCKET
10
16.0
20
3.0940737670948693
30
0
40
2.0
50
270.0000000000002
51
359.9999999999998
0
LINE
8
POCKET
10
15.999999999999858
20
1.0940737670948693
30
0
11
1.999999999999858
21
1.0940737670948693
31
0
0
ARC
8
POCKET
10
2.0
20
3.0940737670948693
30
0
40
2.0
50
179.99999999999963
51
269.9999999999998
0
LINE
8
POCKET
10
0.0
20
246.0
30
0
11
0.0
21
3.0940737670950114
31
0
0
ARC
8
POCKET
10
2.0
20
246.0
30
0
40
2.0
50
90.00000000000018
51
180.0
0
LINE
8
POCKET
10
16.000000000000114
20
248.0
30
0
11
2.0000000000001137
21
248.0
31
0
0
ARC
8
POCKET
10
16.0
20
246.0
30
0
40
2.0
50
0.0
51
89.9999999999998
0
LINE
8
REFERENCE
10
723.9000000000001
20
248.0
30
0
11
1.1368683772161603e-13
21
248.0
31
0
0
LINE
8
REFERENCE
10
0.0
20
248.0
30
0
11
0.0
21
0.0
31
0
0
LINE
8
REFERENCE
10
0.0
20
0.0
30
0
11
723.9000000000003
21
44.00000000000002
31
0
0
LINE
8
REFERENCE
10
723.9000000000001
20
44.0
30
0
11
723.9000000000001
21
248.0
31
0
0
TEXT
8
REFERENCE
10
0
20
-12
30
0
40
4
1
PRELIMINARY - NOT FOR CNC - FACE A ONLY
0
ENDSEC
0
EOF
