0
SECTION
2
HEADER
9
$ACADVER
1
AC1015
9
$INSUNITS
70
4
0
ENDSEC
0
SECTION
2
TABLES
0
TABLE
2
LAYER
70
5
0
LAYER
2
CUT
70
0
62
7
6
CONTINUOUS
0
LAYER
2
POCKET
70
0
62
7
6
CONTINUOUS
0
LAYER
2
LOCATOR
70
0
62
7
6
CONTINUOUS
0
LAYER
2
ENGRAVE
70
0
62
7
6
CONTINUOUS
0
LAYER
2
REFERENCE
70
0
62
7
6
CONTINUOUS
0
ENDTAB
0
ENDSEC
0
SECTION
2
ENTITIES
0
LINE
8
CUT
10
780.0
20
723.8999999999999
30
0
11
0.0
21
723.8999999999999
31
0
0
LINE
8
CUT
10
0.0
20
723.8999999999999
30
0
11
0.0
21
-1.1368683772161603e-13
31
0
0
LINE
8
CUT
10
780.0
20
0.0
30
0
11
0.0
21
0.0
31
0
0
LINE
8
CUT
10
780.0
20
723.8999999999999
30
0
11
780.0
21
-1.1368683772161603e-13
31
0
0
LINE
8
CUT
10
50.0
20
58.799999999999955
30
0
11
730.0
21
58.799999999999955
31
0
0
ARC
8
CUT
10
730.0
20
60.799999999999955
30
0
40
2.0
50
270.0
51
359.9999999999998
0
LINE
8
CUT
10
732.0
20
60.79999999999984
30
0
11
732.0
21
302.7999999999998
31
0
0
ARC
8
CUT
10
730.0
20
302.79999999999984
30
0
40
2.0
50
0.0
51
90.0
0
LINE
8
CUT
10
730.0
20
304.79999999999984
30
0
11
702.0
21
304.79999999999984
31
0
0
LINE
8
CUT
10
702.0
20
334.79999999999984
30
0
11
702.0
21
304.79999999999984
31
0
0
LINE
8
CUT
10
730.0
20
334.79999999999984
30
0
11
702.0
21
334.79999999999984
31
0
0
ARC
8
CUT
10
730.0
20
336.79999999999984
30
0
40
2.0
50
270.0
51
0.0
0
LINE
8
CUT
10
732.0
20
336.7999999999998
30
0
11
732.0
21
664.7999999999998
31
0
0
ARC
8
CUT
10
730.0
20
664.7999999999998
30
0
40
2.0
50
0.0
51
90.0
0
LINE
8
CUT
10
50.0
20
666.7999999999998
30
0
11
730.0
21
666.7999999999998
31
0
0
ARC
8
CUT
10
50.0
20
664.7999999999998
30
0
40
2.0
50
90.0000000000002
51
180.0
0
LINE
8
CUT
10
48.0
20
336.7999999999998
30
0
11
48.0
21
664.7999999999998
31
0
0
ARC
8
CUT
10
50.0
20
336.79999999999984
30
0
40
2.0
50
180.0
51
269.9999999999998
0
LINE
8
CUT
10
50.0
20
334.79999999999984
30
0
11
78.0
21
334.79999999999984
31
0
0
LINE
8
CUT
10
78.0
20
334.79999999999984
30
0
11
78.0
21
304.79999999999984
31
0
0
LINE
8
CUT
10
50.0
20
304.79999999999984
30
0
11
78.0
21
304.79999999999984
31
0
0
ARC
8
CUT
10
50.0
20
302.79999999999984
30
0
40
2.0
50
90.0000000000002
51
180.0
0
LINE
8
CUT
10
48.0
20
60.79999999999984
30
0
11
48.0
21
302.7999999999998
31
0
0
ARC
8
CUT
10
50.000000000000114
20
60.799999999999955
30
0
40
2.0
50
180.00000000000304
51
269.99999999999693
0
LINE
8
POCKET
10
778.0
20
723.8999999999999
30
0
11
2.0
21
723.8999999999999
31
0
0
ARC
8
POCKET
10
2.0
20
721.8999999999999
30
0
40
2.0
50
90.00000000000018
51
180.0
0
LINE
8
POCKET
10
0.0
20
721.8999999999999
30
0
11
0.0
21
1.9999999999998863
31
0
0
ARC
8
POCKET
10
2.0000000000001137
20
2.0
30
0
40
2.0
50
180.00000000000017
51
269.99999999999693
0
LINE
8
POCKET
10
778.0
20
0.0
30
0
11
2.0
21
0.0
31
0
0
ARC
8
POCKET
10
778.0
20
2.0
30
0
40
2.0
50
270.0
51
359.99999999999983
0
LINE
8
POCKET
10
780.0
20
721.8999999999999
30
0
11
780.0
21
1.9999999999998863
31
0
0
ARC
8
POCKET
10
778.0
20
721.8999999999999
30
0
40
2.0
50
0.0
51
90.0
0
LINE
8
POCKET
10
762.0
20
17.999999999999773
30
0
11
762.0
21
705.8999999999999
31
0
0
LINE
8
POCKET
10
18.0
20
705.8999999999999
30
0
11
762.0
21
705.8999999999999
31
0
0
LINE
8
POCKET
10
18.0
20
17.999999999999773
30
0
11
18.0
21
705.8999999999999
31
0
0
LINE
8
POCKET
10
18.0000000000001
20
18.0
30
0
11
762.0
21
18.0
31
0
0
LINE
8
REFERENCE
10
780.0
20
723.9000000000001
30
0
11
0.0
21
723.9000000000001
31
0
0
LINE
8
REFERENCE
10
0.0
20
723.9000000000001
30
0
11
0.0
21
2.2737367544323206e-13
31
0
0
LINE
8
REFERENCE
10
780.0
20
2.2737367544323206e-13
30
0
11
0.0
21
2.2737367544323206e-13
31
0
0
LINE
8
REFERENCE
10
780.0
20
723.9000000000001
30
0
11
780.0
21
2.2737367544323206e-13
31
0
0
TEXT
8
REFERENCE
10
0
20
-12
30
0
40
4
1
PRELIMINARY - NOT FOR CNC - FACE A ONLY
0
ENDSEC
0
EOF
