0
SECTION
2
HEADER
9
$ACADVER
1
AC1015
9
$INSUNITS
70
4
0
ENDSEC
0
SECTION
2
TABLES
0
TABLE
2
LAYER
70
5
0
LAYER
2
CUT
70
0
62
7
6
CONTINUOUS
0
LAYER
2
POCKET
70
0
62
7
6
CONTINUOUS
0
LAYER
2
LOCATOR
70
0
62
7
6
CONTINUOUS
0
LAYER
2
ENGRAVE
70
0
62
7
6
CONTINUOUS
0
LAYER
2
REFERENCE
70
0
62
7
6
CONTINUOUS
0
ENDTAB
0
ENDSEC
0
SECTION
2
ENTITIES
0
LINE
8
CUT
10
0.0
20
0.0
30
0
11
756.0
21
0.0
31
0
0
LINE
8
CUT
10
756.0
20
0.0
30
0
11
756.0
21
56.8059262329052
31
0
0
LINE
8
CUT
10
0.0
20
56.80592623290522
30
0
11
756.0
21
56.80592623290522
31
0
0
LINE
8
CUT
10
0.0
20
0.0
30
0
11
0.0
21
56.8059262329052
31
0
0
LINE
8
REFERENCE
10
0.0
20
4.774847184307873e-12
30
0
11
756.0
21
4.774847184307873e-12
31
0
0
LINE
8
REFERENCE
10
0.0
20
4.774847184307873e-12
30
0
11
0.0
21
56.80592623291
31
0
0
LINE
8
REFERENCE
10
0.0
20
56.80592623291
30
0
11
756.0
21
56.80592623291
31
0
0
LINE
8
REFERENCE
10
756.0
20
4.774847184307873e-12
30
0
11
756.0
21
56.80592623291
31
0
0
TEXT
8
REFERENCE
10
0
20
-12
30
0
40
4
1
PRELIMINARY - NOT FOR CNC - FACE A ONLY
0
ENDSEC
0
EOF
