0
SECTION
2
HEADER
9
$ACADVER
1
AC1015
9
$INSUNITS
70
4
0
ENDSEC
0
SECTION
2
TABLES
0
TABLE
2
LAYER
70
5
0
LAYER
2
CUT
70
0
62
7
6
CONTINUOUS
0
LAYER
2
POCKET
70
0
62
7
6
CONTINUOUS
0
LAYER
2
LOCATOR
70
0
62
7
6
CONTINUOUS
0
LAYER
2
ENGRAVE
70
0
62
7
6
CONTINUOUS
0
LAYER
2
REFERENCE
70
0
62
7
6
CONTINUOUS
0
ENDTAB
0
ENDSEC
0
SECTION
2
ENTITIES
0
LINE
8
CUT
10
744.0
20
0.0
30
0
11
744.0
21
18.0
31
0
0
LINE
8
CUT
10
744.0
20
18.0
30
0
11
0.0
21
18.0
31
0
0
LINE
8
CUT
10
0.0
20
0.0
30
0
11
0.0
21
18.0
31
0
0
LINE
8
CUT
10
744.0
20
0.0
30
0
11
0.0
21
0.0
31
0
0
LINE
8
POCKET
10
2.0
20
4.0
30
0
11
742.0
21
4.0
31
0
0
ARC
8
POCKET
10
742.0
20
6.0
30
0
40
2.0
50
270.0
51
359.9999999999998
0
LINE
8
POCKET
10
744.0
20
6.0
30
0
11
744.0
21
10.0
31
0
0
ARC
8
POCKET
10
742.0
20
10.0
30
0
40
2.0
50
2.0355549961366507e-13
51
90.0
0
LINE
8
POCKET
10
2.0
20
12.0
30
0
11
742.0
21
12.0
31
0
0
ARC
8
POCKET
10
2.0
20
10.0
30
0
40
2.0
50
90.00000000000018
51
179.9999999999998
0
LINE
8
POCKET
10
0.0
20
6.0
30
0
11
0.0
21
10.0
31
0
0
ARC
8
POCKET
10
2.0
20
6.0
30
0
40
2.0
50
180.00000000000017
51
269.9999999999998
0
LINE
8
REFERENCE
10
744.0
20
0.0
30
0
11
744.0
21
18.0
31
0
0
LINE
8
REFERENCE
10
743.9999999999999
20
18.0
30
0
11
-1.1368683772161603e-13
21
18.0
31
0
0
LINE
8
REFERENCE
10
0.0
20
0.0
30
0
11
0.0
21
18.0
31
0
0
LINE
8
REFERENCE
10
743.9999999999999
20
0.0
30
0
11
-1.1368683772161603e-13
21
0.0
31
0
0
TEXT
8
REFERENCE
10
0
20
-12
30
0
40
4
1
PRELIMINARY - NOT FOR CNC - FACE A ONLY
0
ENDSEC
0
EOF
