0
SECTION
2
HEADER
9
$ACADVER
1
AC1015
9
$INSUNITS
70
4
0
ENDSEC
0
SECTION
2
TABLES
0
TABLE
2
LAYER
70
5
0
LAYER
2
CUT
70
0
62
7
6
CONTINUOUS
0
LAYER
2
POCKET
70
0
62
7
6
CONTINUOUS
0
LAYER
2
LOCATOR
70
0
62
7
6
CONTINUOUS
0
LAYER
2
ENGRAVE
70
0
62
7
6
CONTINUOUS
0
LAYER
2
REFERENCE
70
0
62
7
6
CONTINUOUS
0
ENDTAB
0
ENDSEC
0
SECTION
2
ENTITIES
0
LINE
8
CUT
10
0.0
20
366.0000000000001
30
0
11
50.0
21
366.0000000000001
31
0
0
LINE
8
CUT
10
50.0
20
366.0000000000001
30
0
11
50.0
21
1.1368683772161603e-13
31
0
0
LINE
8
CUT
10
0.0
20
2.2737367544323206e-13
30
0
11
50.0
21
2.2737367544323206e-13
31
0
0
LINE
8
CUT
10
0.0
20
366.0000000000001
30
0
11
0.0
21
1.1368683772161603e-13
31
0
0
LINE
8
CUT
10
21.75
20
237.0000000000001
30
0
11
21.75
21
247.0000000000001
31
0
0
ARC
8
CUT
10
25.0
20
247.0000000000001
30
0
40
3.25
50
0.0
51
180.0
0
LINE
8
CUT
10
28.25
20
237.0000000000001
30
0
11
28.25
21
247.0000000000001
31
0
0
ARC
8
CUT
10
25.0
20
237.0000000000001
30
0
40
3.25
50
180.0
51
0.0
0
LINE
8
CUT
10
21.75
20
97.00000000000011
30
0
11
21.75
21
107.00000000000011
31
0
0
ARC
8
CUT
10
25.0
20
107.00000000000023
30
0
40
3.25
50
2.5052984567835703e-13
51
180.0
0
LINE
8
CUT
10
28.25
20
97.00000000000011
30
0
11
28.25
21
107.00000000000011
31
0
0
ARC
8
CUT
10
25.0
20
97.00000000000023
30
0
40
3.25
50
180.0
51
359.9999999999998
0
LINE
8
REFERENCE
10
0.0
20
366.0000000000001
30
0
11
50.0
21
366.0000000000001
31
0
0
LINE
8
REFERENCE
10
50.0
20
366.0000000000001
30
0
11
50.0
21
2.2737367544323206e-13
31
0
0
LINE
8
REFERENCE
10
0.0
20
366.0000000000001
30
0
11
0.0
21
2.2737367544323206e-13
31
0
0
LINE
8
REFERENCE
10
0.0
20
2.2737367544323206e-13
30
0
11
50.0
21
2.2737367544323206e-13
31
0
0
TEXT
8
REFERENCE
10
0
20
-12
30
0
40
4
1
PRELIMINARY - NOT FOR CNC - FACE A ONLY
0
ENDSEC
0
EOF
