0
SECTION
2
HEADER
9
$ACADVER
1
AC1015
9
$INSUNITS
70
4
0
ENDSEC
0
SECTION
2
TABLES
0
TABLE
2
LAYER
70
5
0
LAYER
2
CUT
70
0
62
7
6
CONTINUOUS
0
LAYER
2
POCKET
70
0
62
7
6
CONTINUOUS
0
LAYER
2
LOCATOR
70
0
62
7
6
CONTINUOUS
0
LAYER
2
ENGRAVE
70
0
62
7
6
CONTINUOUS
0
LAYER
2
REFERENCE
70
0
62
7
6
CONTINUOUS
0
ENDTAB
0
ENDSEC
0
SECTION
2
ENTITIES
0
LINE
8
CUT
10
0.0
20
230.0000000000001
30
0
11
360.0
21
230.0000000000001
31
0
0
LINE
8
CUT
10
360.0
20
230.0000000000001
30
0
11
360.0
21
1.1368683772161603e-13
31
0
0
LINE
8
CUT
10
0.0
20
2.2737367544323206e-13
30
0
11
360.0
21
2.2737367544323206e-13
31
0
0
LINE
8
CUT
10
0.0
20
230.0000000000001
30
0
11
0.0
21
1.1368683772161603e-13
31
0
0
LINE
8
CUT
10
55.0
20
181.75
30
0
11
25.0
21
181.75
31
0
0
ARC
8
CUT
10
25.0
20
185.0
30
0
40
3.25
50
90.00000000000018
51
270.0
0
LINE
8
CUT
10
55.0
20
188.25
30
0
11
25.0
21
188.25
31
0
0
ARC
8
CUT
10
55.0
20
185.0
30
0
40
3.25
50
270.0
51
89.99999999999987
0
LINE
8
CUT
10
55.0
20
41.75000000000022
30
0
11
25.0
21
41.75000000000023
31
0
0
ARC
8
CUT
10
25.0
20
45.00000000000023
30
0
40
3.25
50
90.00000000000018
51
270.0
0
LINE
8
CUT
10
55.0
20
48.25000000000022
30
0
11
25.0
21
48.25000000000023
31
0
0
ARC
8
CUT
10
55.0
20
45.00000000000023
30
0
40
3.25
50
270.0
51
89.99999999999987
0
LINE
8
CUT
10
335.0
20
181.74999999999997
30
0
11
305.0
21
181.74999999999997
31
0
0
ARC
8
CUT
10
305.0
20
185.0
30
0
40
3.25
50
90.0
51
270.0
0
LINE
8
CUT
10
335.0
20
188.24999999999997
30
0
11
305.0
21
188.24999999999997
31
0
0
ARC
8
CUT
10
335.0
20
185.0
30
0
40
3.25
50
270.0
51
90.0
0
LINE
8
CUT
10
335.0
20
41.750000000000206
30
0
11
305.0
21
41.75000000000021
31
0
0
ARC
8
CUT
10
305.0
20
45.00000000000023
30
0
40
3.25
50
90.0
51
270.0
0
LINE
8
CUT
10
335.0
20
48.250000000000206
30
0
11
305.0
21
48.25000000000021
31
0
0
ARC
8
CUT
10
335.0
20
45.00000000000023
30
0
40
3.25
50
270.0
51
90.0
0
LINE
8
REFERENCE
10
0.0
20
230.0000000000001
30
0
11
360.0
21
230.0000000000001
31
0
0
LINE
8
REFERENCE
10
360.0
20
230.0000000000001
30
0
11
360.0
21
2.2737367544323206e-13
31
0
0
LINE
8
REFERENCE
10
0.0
20
230.0000000000001
30
0
11
0.0
21
2.2737367544323206e-13
31
0
0
LINE
8
REFERENCE
10
0.0
20
2.2737367544323206e-13
30
0
11
360.0
21
2.2737367544323206e-13
31
0
0
TEXT
8
REFERENCE
10
0
20
-12
30
0
40
4
1
PRELIMINARY - NOT FOR CNC - FACE A ONLY
0
ENDSEC
0
EOF
