0
SECTION
2
HEADER
9
$ACADVER
1
AC1015
9
$INSUNITS
70
4
0
ENDSEC
0
SECTION
2
TABLES
0
TABLE
2
LAYER
70
5
0
LAYER
2
CUT
70
0
62
7
6
CONTINUOUS
0
LAYER
2
POCKET
70
0
62
7
6
CONTINUOUS
0
LAYER
2
LOCATOR
70
0
62
7
6
CONTINUOUS
0
LAYER
2
ENGRAVE
70
0
62
7
6
CONTINUOUS
0
LAYER
2
REFERENCE
70
0
62
7
6
CONTINUOUS
0
ENDTAB
0
ENDSEC
0
SECTION
2
ENTITIES
0
LINE
8
CUT
10
0.0
20
457.0000000000001
30
0
11
740.0
21
457.0000000000001
31
0
0
LINE
8
CUT
10
740.0
20
457.0000000000001
30
0
11
740.0
21
1.1368683772161603e-13
31
0
0
LINE
8
CUT
10
0.0
20
2.2737367544323206e-13
30
0
11
740.0
21
2.2737367544323206e-13
31
0
0
LINE
8
CUT
10
0.0
20
457.0000000000001
30
0
11
0.0
21
1.1368683772161603e-13
31
0
0
LINE
8
CUT
10
20.0
20
34.000000000000114
30
0
11
20.0
21
426.0000000000001
31
0
0
ARC
8
CUT
10
22.0
20
426.0000000000001
30
0
40
2.0
50
90.0000000000002
51
180.0
0
LINE
8
CUT
10
22.0
20
428.0000000000001
30
0
11
718.0
21
428.0000000000001
31
0
0
ARC
8
CUT
10
718.0
20
426.0000000000001
30
0
40
2.0
50
0.0
51
90.0
0
LINE
8
CUT
10
720.0
20
34.000000000000114
30
0
11
720.0
21
426.0000000000001
31
0
0
ARC
8
CUT
10
718.0
20
34.00000000000017
30
0
40
2.0
50
269.99999999999676
51
1.6284439969093206e-12
0
LINE
8
CUT
10
22.0
20
32.00000000000023
30
0
11
718.0
21
32.00000000000023
31
0
0
ARC
8
CUT
10
22.0
20
34.00000000000023
30
0
40
2.0
50
180.0000000000002
51
269.9999999999998
0
LINE
8
REFERENCE
10
0.0
20
457.0000000000001
30
0
11
740.0
21
457.0000000000001
31
0
0
LINE
8
REFERENCE
10
740.0
20
457.0000000000001
30
0
11
740.0
21
2.2737367544323206e-13
31
0
0
LINE
8
REFERENCE
10
0.0
20
457.0000000000001
30
0
11
0.0
21
2.2737367544323206e-13
31
0
0
LINE
8
REFERENCE
10
0.0
20
2.2737367544323206e-13
30
0
11
740.0
21
2.2737367544323206e-13
31
0
0
TEXT
8
REFERENCE
10
0
20
-12
30
0
40
4
1
PRELIMINARY - NOT FOR CNC - FACE A ONLY
0
ENDSEC
0
EOF
