0
SECTION
2
HEADER
9
$ACADVER
1
AC1015
9
$INSUNITS
70
4
0
ENDSEC
0
SECTION
2
TABLES
0
TABLE
2
LAYER
70
5
0
LAYER
2
CUT
70
0
62
7
6
CONTINUOUS
0
LAYER
2
POCKET
70
0
62
7
6
CONTINUOUS
0
LAYER
2
LOCATOR
70
0
62
7
6
CONTINUOUS
0
LAYER
2
ENGRAVE
70
0
62
7
6
CONTINUOUS
0
LAYER
2
REFERENCE
70
0
62
7
6
CONTINUOUS
0
ENDTAB
0
ENDSEC
0
SECTION
2
ENTITIES
0
LINE
8
CUT
10
18.0
20
0.0
30
0
11
18.0
21
8.0
31
0
0
ARC
8
CUT
10
20.0
20
8.0
30
0
40
2.0
50
90.0000000000002
51
179.9999999999998
0
LINE
8
CUT
10
38.0
20
10.0
30
0
11
20.0
21
10.0
31
0
0
LINE
8
CUT
10
38.0
20
10.0
30
0
11
38.0
21
28.0
31
0
0
LINE
8
CUT
10
38.0
20
28.0
30
0
11
0.0
21
28.0
31
0
0
LINE
8
CUT
10
0.0
20
0.0
30
0
11
0.0
21
28.0
31
0
0
LINE
8
CUT
10
18.0
20
1.7763568394002505e-15
30
0
11
0.0
21
1.7763568394002505e-15
31
0
0
LINE
8
REFERENCE
10
17.999999999999886
20
0.0
30
0
11
17.999999999999886
21
10.0
31
0
0
LINE
8
REFERENCE
10
37.999999999999886
20
10.0
30
0
11
17.999999999999886
21
10.0
31
0
0
LINE
8
REFERENCE
10
37.999999999999886
20
10.0
30
0
11
37.999999999999886
21
28.0
31
0
0
LINE
8
REFERENCE
10
37.999999999999886
20
28.0
30
0
11
-1.1368683772161603e-13
21
28.0
31
0
0
LINE
8
REFERENCE
10
-1.1368683772161603e-13
20
0.0
30
0
11
-1.1368683772161603e-13
21
28.0
31
0
0
LINE
8
REFERENCE
10
17.999999999999886
20
0.0
30
0
11
-1.1368683772161603e-13
21
0.0
31
0
0
TEXT
8
REFERENCE
10
0
20
-12
30
0
40
4
1
PRELIMINARY - NOT FOR CNC - FACE A ONLY
0
ENDSEC
0
EOF
