0
SECTION
2
HEADER
9
$ACADVER
1
AC1015
9
$INSUNITS
70
4
0
ENDSEC
0
SECTION
2
TABLES
0
TABLE
2
LAYER
70
5
0
LAYER
2
CUT
70
0
62
7
6
CONTINUOUS
0
LAYER
2
POCKET
70
0
62
7
6
CONTINUOUS
0
LAYER
2
LOCATOR
70
0
62
7
6
CONTINUOUS
0
LAYER
2
ENGRAVE
70
0
62
7
6
CONTINUOUS
0
LAYER
2
REFERENCE
70
0
62
7
6
CONTINUOUS
0
ENDTAB
0
ENDSEC
0
SECTION
2
ENTITIES
0
LINE
8
CUT
10
0.0
20
180.0
30
0
11
420.0
21
180.0
31
0
0
LINE
8
CUT
10
420.0
20
180.0
30
0
11
420.0
21
0.0
31
0
0
LINE
8
CUT
10
0.0
20
0.0
30
0
11
420.0
21
0.0
31
0
0
LINE
8
CUT
10
0.0
20
180.0
30
0
11
0.0
21
0.0
31
0
0
LINE
8
CUT
10
16.0
20
18.0
30
0
11
16.0
21
162.0
31
0
0
ARC
8
CUT
10
18.0
20
162.0
30
0
40
2.0
50
90.0000000000002
51
180.0
0
LINE
8
CUT
10
18.0
20
164.0
30
0
11
402.0
21
164.0
31
0
0
ARC
8
CUT
10
402.0
20
162.0
30
0
40
2.0
50
0.0
51
90.0
0
LINE
8
CUT
10
404.0
20
18.0
30
0
11
404.0
21
162.0
31
0
0
ARC
8
CUT
10
402.0
20
18.0
30
0
40
2.0
50
270.0
51
359.9999999999998
0
LINE
8
CUT
10
18.0
20
16.0
30
0
11
402.0
21
16.0
31
0
0
ARC
8
CUT
10
18.0
20
18.0
30
0
40
2.0
50
180.0000000000002
51
269.9999999999998
0
LINE
8
REFERENCE
10
0.0
20
180.0000000000001
30
0
11
420.0
21
180.0000000000001
31
0
0
LINE
8
REFERENCE
10
420.0
20
180.0000000000001
30
0
11
420.0
21
1.1368683772161603e-13
31
0
0
LINE
8
REFERENCE
10
0.0
20
180.0000000000001
30
0
11
0.0
21
1.1368683772161603e-13
31
0
0
LINE
8
REFERENCE
10
0.0
20
1.1368683772161603e-13
30
0
11
420.0
21
1.1368683772161603e-13
31
0
0
TEXT
8
REFERENCE
10
0
20
-12
30
0
40
4
1
PRELIMINARY - NOT FOR CNC - FACE A ONLY
0
ENDSEC
0
EOF
