0
SECTION
2
HEADER
9
$ACADVER
1
AC1015
9
$INSUNITS
70
4
0
ENDSEC
0
SECTION
2
TABLES
0
TABLE
2
LAYER
70
5
0
LAYER
2
CUT
70
0
62
7
6
CONTINUOUS
0
LAYER
2
POCKET
70
0
62
7
6
CONTINUOUS
0
LAYER
2
LOCATOR
70
0
62
7
6
CONTINUOUS
0
LAYER
2
ENGRAVE
70
0
62
7
6
CONTINUOUS
0
LAYER
2
REFERENCE
70
0
62
7
6
CONTINUOUS
0
ENDTAB
0
ENDSEC
0
SECTION
2
ENTITIES
0
LINE
8
CUT
10
0.0
20
628.0000000000001
30
0
11
351.0
21
628.0000000000001
31
0
0
LINE
8
CUT
10
351.0
20
628.0000000000001
30
0
11
351.0
21
1.1368683772161603e-13
31
0
0
LINE
8
CUT
10
0.0
20
2.2737367544323206e-13
30
0
11
351.0
21
2.2737367544323206e-13
31
0
0
LINE
8
CUT
10
0.0
20
628.0000000000001
30
0
11
0.0
21
1.1368683772161603e-13
31
0
0
CIRCLE
8
CUT
10
154.5
20
164.50000000000023
30
0
40
2.25
0
CIRCLE
8
CUT
10
154.5
20
59.50000000000023
30
0
40
2.25
0
LINE
8
CUT
10
67.0
20
496.0000000000001
30
0
11
67.0
21
572.0000000000001
31
0
0
ARC
8
CUT
10
69.0
20
572.0000000000001
30
0
40
2.0
50
90.0
51
180.0
0
LINE
8
CUT
10
69.0
20
574.0000000000001
30
0
11
285.0
21
574.0000000000001
31
0
0
ARC
8
CUT
10
285.0
20
572.0000000000001
30
0
40
2.0
50
0.0
51
90.0
0
LINE
8
CUT
10
287.0
20
496.0000000000001
30
0
11
287.0
21
572.0000000000001
31
0
0
ARC
8
CUT
10
285.0
20
496.0000000000001
30
0
40
2.0
50
270.0
51
0.0
0
LINE
8
CUT
10
69.0
20
494.0000000000001
30
0
11
285.0
21
494.0000000000001
31
0
0
ARC
8
CUT
10
69.0
20
496.0000000000001
30
0
40
2.0
50
180.0
51
270.0
0
CIRCLE
8
CUT
10
207.0
20
112.00000000000023
30
0
40
58.0
0
CIRCLE
8
CUT
10
259.5
20
164.50000000000023
30
0
40
2.25
0
CIRCLE
8
CUT
10
259.5
20
59.50000000000023
30
0
40
2.25
0
LINE
8
REFERENCE
10
0.0
20
628.0000000000001
30
0
11
351.0
21
628.0000000000001
31
0
0
LINE
8
REFERENCE
10
351.0
20
628.0000000000001
30
0
11
351.0
21
2.2737367544323206e-13
31
0
0
LINE
8
REFERENCE
10
0.0
20
628.0000000000001
30
0
11
0.0
21
2.2737367544323206e-13
31
0
0
LINE
8
REFERENCE
10
0.0
20
2.2737367544323206e-13
30
0
11
351.0
21
2.2737367544323206e-13
31
0
0
TEXT
8
REFERENCE
10
0
20
-12
30
0
40
4
1
PRELIMINARY - NOT FOR CNC - FACE A ONLY
0
ENDSEC
0
EOF
