0
SECTION
2
HEADER
9
$ACADVER
1
AC1015
9
$INSUNITS
70
4
0
ENDSEC
0
SECTION
2
TABLES
0
TABLE
2
LAYER
70
5
0
LAYER
2
CUT
70
0
62
7
6
CONTINUOUS
0
LAYER
2
POCKET
70
0
62
7
6
CONTINUOUS
0
LAYER
2
LOCATOR
70
0
62
7
6
CONTINUOUS
0
LAYER
2
ENGRAVE
70
0
62
7
6
CONTINUOUS
0
LAYER
2
REFERENCE
70
0
62
7
6
CONTINUOUS
0
ENDTAB
0
ENDSEC
0
SECTION
2
ENTITIES
0
LINE
8
CUT
10
50.0
20
0.0
30
0
11
50.0
21
32.0
31
0
0
LINE
8
CUT
10
50.0
20
32.0
30
0
11
0.0
21
32.0
31
0
0
LINE
8
CUT
10
0.0
20
0.0
30
0
11
0.0
21
32.0
31
0
0
LINE
8
CUT
10
50.0
20
-1.7763568394002505e-15
30
0
11
0.0
21
-1.7763568394002505e-15
31
0
0
CIRCLE
8
CUT
10
24.999999999999915
20
16.0
30
0
40
6.0
0
LINE
8
REFERENCE
10
49.999999999999915
20
0.0
30
0
11
49.999999999999915
21
32.0
31
0
0
LINE
8
REFERENCE
10
49.999999999999915
20
32.0
30
0
11
-8.526512829121202e-14
21
32.0
31
0
0
LINE
8
REFERENCE
10
49.999999999999915
20
0.0
30
0
11
-8.526512829121202e-14
21
0.0
31
0
0
LINE
8
REFERENCE
10
-8.526512829121202e-14
20
0.0
30
0
11
-8.526512829121202e-14
21
32.0
31
0
0
LINE
8
REFERENCE
10
41.0
20
16.0
30
0
11
43.0
21
16.0
31
0
0
LINE
8
REFERENCE
10
42.0
20
15.0
30
0
11
42.0
21
17.0
31
0
0
LINE
8
REFERENCE
10
40.99999999999999
20
16.0
30
0
11
42.99999999999999
21
16.0
31
0
0
LINE
8
REFERENCE
10
41.99999999999999
20
15.0
30
0
11
41.99999999999999
21
17.0
31
0
0
LINE
8
REFERENCE
10
7.0
20
16.0
30
0
11
9.0
21
16.0
31
0
0
LINE
8
REFERENCE
10
8.0
20
15.0
30
0
11
8.0
21
17.0
31
0
0
LINE
8
REFERENCE
10
6.999999999999996
20
16.0
30
0
11
8.999999999999996
21
16.0
31
0
0
LINE
8
REFERENCE
10
7.999999999999996
20
15.0
30
0
11
7.999999999999996
21
17.0
31
0
0
TEXT
8
REFERENCE
10
0
20
-12
30
0
40
4
1
PRELIMINARY - NOT FOR CNC - FACE A ONLY
0
ENDSEC
0
EOF
