<svg xmlns="http://www.w3.org/2000/svg" width="70.0mm" height="67.0mm" viewBox="-10.0 -20.0 70.0 67.0">
<title>M065 PRELIMINARY — NOT FOR CNC</title>
<metadata>CERN-OHL-S-2.0; Source Location: https://github.com/advpeterrobinson-hash/vpin-cabinet</metadata>
<g id="CUT" fill="none" stroke="black" stroke-width="0.15">
<g data-operation="OUTLINE_OR_REFERENCE"><path d="M 50.0 0.0 L 50.0 32.0"/></g>
<g data-operation="OUTLINE_OR_REFERENCE"><path d="M 50.0 32.0 L 0.0 32.0"/></g>
<g data-operation="OUTLINE_OR_REFERENCE"><path d="M 0.0 0.0 L 0.0 32.0"/></g>
<g data-operation="OUTLINE_OR_REFERENCE"><path d="M 50.0 -1.7763568394002505e-15 L 0.0 -1.7763568394002505e-15"/></g>
<g data-operation="P089-Main-R2"><circle cx="24.999999999999915" cy="16.0" r="6.0"/></g>
</g>
<g id="POCKET" fill="none" stroke="black" stroke-width="0.15">
</g>
<g id="LOCATOR" fill="none" stroke="black" stroke-width="0.15">
</g>
<g id="ENGRAVE" fill="none" stroke="black" stroke-width="0.15">
</g>
<g id="REFERENCE" fill="none" stroke="black" stroke-width="0.15" stroke-dasharray="1 1">
<g data-operation="OUTLINE_OR_REFERENCE"><path d="M 49.999999999999915 0.0 L 49.999999999999915 32.0"/></g>
<g data-operation="OUTLINE_OR_REFERENCE"><path d="M 49.999999999999915 32.0 L -8.526512829121202e-14 32.0"/></g>
<g data-operation="OUTLINE_OR_REFERENCE"><path d="M 49.999999999999915 0.0 L -8.526512829121202e-14 0.0"/></g>
<g data-operation="OUTLINE_OR_REFERENCE"><path d="M -8.526512829121202e-14 0.0 L -8.526512829121202e-14 32.0"/></g>
<g data-operation="OUTLINE_OR_REFERENCE"><path d="M 41.0 16.0 L 43.0 16.0"/></g>
<g data-operation="OUTLINE_OR_REFERENCE"><path d="M 42.0 15.0 L 42.0 17.0"/></g>
<g data-operation="OUTLINE_OR_REFERENCE"><path d="M 40.99999999999999 16.0 L 42.99999999999999 16.0"/></g>
<g data-operation="OUTLINE_OR_REFERENCE"><path d="M 41.99999999999999 15.0 L 41.99999999999999 17.0"/></g>
<g data-operation="OUTLINE_OR_REFERENCE"><path d="M 7.0 16.0 L 9.0 16.0"/></g>
<g data-operation="OUTLINE_OR_REFERENCE"><path d="M 8.0 15.0 L 8.0 17.0"/></g>
<g data-operation="OUTLINE_OR_REFERENCE"><path d="M 6.999999999999996 16.0 L 8.999999999999996 16.0"/></g>
<g data-operation="OUTLINE_OR_REFERENCE"><path d="M 7.999999999999996 15.0 L 7.999999999999996 17.0"/></g>
</g>
<g id="REVIEW_LABELS"><text x="0.0" y="-8.0" font-family="sans-serif" font-size="1.2">M065 — PRELIMINARY — NOT FOR CNC</text></g></svg>
