DBRep_DrawableShape

CASCADE Topology V1, (c) Matra-Datavision
Locations 0
Curve2ds 90
1 0 0 1 0 
1 0 0 1 0 
1 54 0 0 -1 
1 0 0 0 1 
1 0 0 0 -1 
1 0 0 0 1 
1 0 -70 1 0 
1 0 0 1 0 
2 9 -61 1 0 -0 1 2.5
1 0 1 1 0 
2 45 -61 1 0 -0 1 2.5
1 0 1 1 0 
2 9 -9 1 0 -0 1 2.5
1 0 1 1 0 
2 45 -9 1 0 -0 1 2.5
1 0 1 1 0 
1 0 0 0 1 
1 0 0 1 0 
1 0 0 1 0 
1 0 68 1 0 
1 54 0 0 1 
1 0 0 1 0 
1 54 0 0 1 
1 0 70 1 0 
1 54 0 0 -1 
1 68 0 0 1 
2 54 20 1 0 -0 1 6
1 0 16 1 0 
2 54 50 1 0 -0 1 3.5
1 0 55 1 0 
1 0 0 0 1 
1 0 70 1 0 
1 0 0 0 -1 
1 68 0 0 1 
2 54 20 1 0 -0 1 4.5
1 0 1 1 0 
2 54 50 1 0 -0 1 3.5
1 0 1 1 0 
1 0 -70 1 0 
1 0 68 1 0 
1 0 67.222222222222229 1 0 
1 3.1415926535897931 2.6759099063982785 -1 0 
1 0 67.222222222222229 1 0 
1 9.4247779607693793 2.6759099063982785 -1 0 
1 6.2831853071795862 -0 0 1 
1 0 -0 0 1 
1 0 67.222222222222229 1 0 
1 3.1415926535897931 2.6759099063982785 -1 0 
1 0 67.222222222222229 1 0 
1 9.4247779607693793 2.6759099063982785 -1 0 
1 6.2831853071795862 -0 0 1 
1 0 -0 0 1 
1 0 67.222222222222229 1 0 
1 3.1415926535897931 2.6759099063982785 -1 0 
1 0 67.222222222222229 1 0 
1 9.4247779607693793 2.6759099063982785 -1 0 
1 6.2831853071795862 -0 0 1 
1 0 -0 0 1 
1 0 67.222222222222229 1 0 
1 3.1415926535897931 2.6759099063982785 -1 0 
1 0 67.222222222222229 1 0 
1 9.4247779607693793 2.6759099063982785 -1 0 
1 6.2831853071795862 -0 0 1 
1 0 -0 0 1 
1 0 0 1 0 
2 0 0 1 0 -0 1 4.5
1 0 0 1 0 
2 0 0 1 0 -0 1 4.5
1 0 0 1 0 
2 0 0 1 0 -0 1 4.5
1 0 0 1 0 
2 0 0 1 0 -0 1 4.5
1 6.2831853071795862 -0 0 1 
1 0 -0 0 1 
1 0 0 1 0 
2 0 0 1 0 -0 1 6
1 6.2831853071795862 -0 0 1 
1 0 -0 0 1 
1 0 39 1 0 
2 0 0 1 0 -0 1 4.5
1 6.2831853071795862 -0 0 1 
1 0 -0 0 1 
1 6.2831853071795862 -0 0 1 
1 0 -0 0 1 
1 6.2831853071795862 -0 0 1 
1 0 -0 0 1 
1 6.2831853071795862 -0 0 1 
1 0 -0 0 1 
1 6.2831853071795862 -0 0 1 
1 0 -0 0 1 
Curves 45
1 18 225 286.44691109680201 0 0 1 
1 18 225 340.44691109680201 -0 1 0 
1 18 225 286.44691109680201 -0 1 0 
1 18 295 286.44691109680201 0 0 1 
2 18 286 295.44691109680201 1 0 0 -0 0 1 0 -1 0 2.5
2 18 286 331.44691109680201 1 0 0 -0 0 1 0 -1 0 2.5
2 18 234 295.44691109680201 1 0 0 -0 0 1 0 -1 0 2.5
2 18 234 331.44691109680201 1 0 0 -0 0 1 0 -1 0 2.5
1 18 225 286.44691109680201 1 0 -0 
1 86 225 286.44691109680201 0 0 1 
1 18 225 340.44691109680201 1 0 -0 
1 18 295 340.44691109680201 1 0 -0 
1 86 225 340.44691109680201 -0 1 0 
2 72 245 340.44691109680201 0 0 1 1 0 -0 -0 1 0 6
2 72 275 340.44691109680201 0 0 1 1 0 -0 -0 1 0 3.5
1 18 295 286.44691109680201 1 0 -0 
1 86 225 286.44691109680201 -0 1 0 
2 72 245 286.44691109680201 0 0 1 1 0 -0 -0 1 0 4.5
2 72 275 286.44691109680201 0 0 1 1 0 -0 -0 1 0 3.5
1 86 295 286.44691109680201 0 0 1 
2 84.222222222222229 286 295.44691109680201 1 0 0 -0 0 1 0 -1 0 2.5
2 84.222222222222229 286 295.44691109680201 1 0 0 -0 0 1 0 -1 0 2.5
1 17 286 297.94691109680201 1 0 0 
2 84.222222222222229 286 331.44691109680201 1 0 0 -0 0 1 0 -1 0 2.5
2 84.222222222222229 286 331.44691109680201 1 0 0 -0 0 1 0 -1 0 2.5
1 17 286 333.94691109680201 1 0 0 
2 84.222222222222229 234 295.44691109680201 1 0 0 -0 0 1 0 -1 0 2.5
2 84.222222222222229 234 295.44691109680201 1 0 0 -0 0 1 0 -1 0 2.5
1 17 234 297.94691109680201 1 0 0 
2 84.222222222222229 234 331.44691109680201 1 0 0 -0 0 1 0 -1 0 2.5
2 84.222222222222229 234 331.44691109680201 1 0 0 -0 0 1 0 -1 0 2.5
1 17 234 333.94691109680201 1 0 0 
2 86 286 295.44691109680201 -1 0 0 0 0 -1 -0 -1 -0 4.5
2 86 286 331.44691109680201 -1 0 0 0 0 -1 -0 -1 -0 4.5
2 86 234 295.44691109680201 -1 0 0 0 0 -1 -0 -1 -0 4.5
2 86 234 331.44691109680201 -1 0 0 0 0 -1 -0 -1 -0 4.5
1 78 245 324.44691109680201 0 0 1 
2 72 245 324.44691109680201 0 0 1 1 0 -0 -0 1 0 6
1 75.5 275 285.44691109680201 0 0 1 
2 72 245 324.44691109680201 0 0 1 1 0 -0 -0 1 0 4.5
1 76.5 245 285.44691109680201 0 0 1 
1 86 286 290.94691109680201 -0.66436383882991967 -1.8306248595576961e-16 0.74740931868365978 
1 86 286 326.94691109680201 -0.66436383882991967 -1.8306248595576961e-16 0.74740931868365978 
1 86 234 290.94691109680201 -0.66436383882991967 -1.8306248595576961e-16 0.74740931868365978 
1 86 234 326.94691109680201 -0.66436383882991967 -1.8306248595576961e-16 0.74740931868365978 
Polygon3D 0
PolygonOnTriangulations 0
Surfaces 22
1 18 225 286.44691109680201 1 0 -0 0 0 1 0 -1 0 
1 18 225 286.44691109680201 -0 1 0 0 0 1 1 0 -0 
1 18 225 340.44691109680201 0 0 1 1 0 -0 -0 1 0 
1 18 225 286.44691109680201 0 0 1 1 0 -0 -0 1 0 
1 18 295 286.44691109680201 -0 1 0 0 0 1 1 0 -0 
2 17 286 295.44691109680201 1 0 0 -0 0 1 0 -1 0 2.5
2 17 286 331.44691109680201 1 0 0 -0 0 1 0 -1 0 2.5
2 17 234 295.44691109680201 1 0 0 -0 0 1 0 -1 0 2.5
2 17 234 331.44691109680201 1 0 0 -0 0 1 0 -1 0 2.5
1 86 225 286.44691109680201 1 0 -0 0 0 1 0 -1 0 
2 72 245 324.44691109680201 0 0 1 1 0 -0 -0 1 0 6
2 72 275 285.44691109680201 0 0 1 1 0 -0 -0 1 0 3.5
2 72 245 285.44691109680201 0 0 1 1 0 -0 -0 1 0 4.5
3 86 286 295.44691109680201 -1 0 0 0 0 -1 -0 -1 -0 4.5
-0.84415398611317105
3 86 286 331.44691109680201 -1 0 0 0 0 -1 -0 -1 -0 4.5
-0.84415398611317105
3 86 234 295.44691109680201 -1 0 0 0 0 -1 -0 -1 -0 4.5
-0.84415398611317105
3 86 234 331.44691109680201 -1 0 0 0 0 -1 -0 -1 -0 4.5
-0.84415398611317105
1 86 286 295.44691109680201 -1 0 0 0 0 -1 -0 -1 -0 
1 86 286 331.44691109680201 -1 0 0 0 0 -1 -0 -1 -0 
1 86 234 295.44691109680201 -1 0 0 0 0 -1 -0 -1 -0 
1 86 234 331.44691109680201 -1 0 0 0 0 -1 -0 -1 -0 
1 72 245 324.44691109680201 0 0 1 1 0 -0 -0 1 0 
Triangulations 0

TShapes 127
Ve
1e-07
18 225 340.446911096802
0 0

0101101
*
Ve
1e-07
18 225 286.446911096802
0 0

0101101
*
Ed
 1e-07 1 1 0
1  1 0 0 54
2  1 1 0 0 54
2  2 2 0 0 54
0

0101000
-127 0 +126 0 *
Ve
1e-07
18 295 340.446911096802
0 0

0101101
*
Ed
 1e-07 1 1 0
1  2 0 0 70
2  3 1 0 0 70
2  4 3 0 0 70
0

0101000
-124 0 +127 0 *
Ve
1e-07
18 295 286.446911096802
0 0

0101101
*
Ed
 1e-07 1 1 0
1  3 0 0 70
2  5 1 0 0 70
2  6 4 0 0 70
0

0101000
-122 0 +126 0 *
Ed
 1e-07 1 1 0
1  4 0 0 54
2  7 1 0 0 54
2  8 5 0 0 54
0

0101000
-124 0 +122 0 *
Wi

0101100
-125 0 -123 0 +121 0 +120 0 *
Ve
1e-07
18 286 297.946911096802
0 0

0101101
*
Ed
 1e-07 1 1 0
1  5 0 0 6.28318530717959
2  9 1 0 0 6.28318530717959
2  10 6 0 0 6.28318530717959
0

0101100
+118 0 -118 0 *
Wi

0101100
-117 0 *
Ve
1e-07
18 286 333.946911096802
0 0

0101101
*
Ed
 1e-07 1 1 0
1  6 0 0 6.28318530717959
2  11 1 0 0 6.28318530717959
2  12 7 0 0 6.28318530717959
0

0101100
+115 0 -115 0 *
Wi

0101100
-114 0 *
Ve
1e-07
18 234 297.946911096802
0 0

0101101
*
Ed
 1e-07 1 1 0
1  7 0 0 6.28318530717959
2  13 1 0 0 6.28318530717959
2  14 8 0 0 6.28318530717959
0

0101100
+112 0 -112 0 *
Wi

0101100
-111 0 *
Ve
1e-07
18 234 333.946911096802
0 0

0101101
*
Ed
 1e-07 1 1 0
1  8 0 0 6.28318530717959
2  15 1 0 0 6.28318530717959
2  16 9 0 0 6.28318530717959
0

0101100
+109 0 -109 0 *
Wi

0101100
-108 0 *
Fa
0  1e-07 1 0

0101000
+119 0 +116 0 +113 0 +110 0 +107 0 *
Ve
1e-07
86 225 286.446911096802
0 0

0101101
*
Ed
 1e-07 1 1 0
1  9 0 0 68
2  17 2 0 0 68
2  18 4 0 0 68
0

0101000
-105 0 +126 0 *
Ve
1e-07
86 225 340.446911096802
0 0

0101101
*
Ed
 1e-07 1 1 0
1  10 0 0 54
2  19 10 0 0 54
2  20 2 0 0 54
0

0101000
-103 0 +105 0 *
Ed
 1e-07 1 1 0
1  11 0 0 68
2  21 2 0 0 68
2  22 3 0 0 68
0

0101000
-103 0 +127 0 *
Wi

0101100
-104 0 -102 0 +101 0 +125 0 *
Fa
0  1e-07 2 0

0111000
+100 0 *
Ve
1e-07
86 295 340.446911096802
0 0

0101101
*
Ed
 1e-07 1 1 0
1  12 0 0 68
2  23 5 0 0 68
2  24 3 0 0 68
0

0101000
-98 0 +124 0 *
Ed
 1e-07 1 1 0
1  13 0 0 70
2  25 10 0 0 70
2  26 3 0 0 70
0

0101000
-98 0 +103 0 *
Wi

0101100
-123 0 -97 0 +101 0 +96 0 *
Ve
1e-07
78 245 340.446911096802
0 0

0101101
*
Ed
 1e-07 1 1 0
1  14 0 0 6.28318530717959
2  27 3 0 0 6.28318530717959
2  28 11 0 0 6.28318530717959
0

0101100
+94 0 -94 0 *
Wi

0101100
-93 0 *
Ve
1e-07
75.5 275 340.446911096802
0 0

0101101
*
Ed
 1e-07 1 1 0
1  15 0 0 6.28318530717959
2  29 3 0 0 6.28318530717959
2  30 12 0 0 6.28318530717959
0

0101100
+91 0 -91 0 *
Wi

0101100
-90 0 *
Fa
0  1e-07 3 0

0101000
+95 0 +92 0 +89 0 *
Ve
1e-07
86 295 286.446911096802
0 0

0101101
*
Ed
 1e-07 1 1 0
1  16 0 0 68
2  31 5 0 0 68
2  32 4 0 0 68
0

0101000
-87 0 +122 0 *
Ed
 1e-07 1 1 0
1  17 0 0 70
2  33 10 0 0 70
2  34 4 0 0 70
0

0101000
-87 0 +105 0 *
Wi

0101100
-121 0 -86 0 +104 0 +85 0 *
Ve
1e-07
76.5 245 286.446911096802
0 0

0101101
*
Ed
 1e-07 1 1 0
1  18 0 0 6.28318530717959
2  35 4 0 0 6.28318530717959
2  36 13 0 0 6.28318530717959
0

0101100
+83 0 -83 0 *
Wi

0101100
-82 0 *
Ve
1e-07
75.5 275 286.446911096802
0 0

0101101
*
Ed
 1e-07 1 1 0
1  19 0 0 6.28318530717959
2  37 4 0 0 6.28318530717959
2  38 12 0 0 6.28318530717959
0

0101100
+80 0 -80 0 *
Wi

0101100
-79 0 *
Fa
0  1e-07 4 0

0101000
+84 0 +81 0 +78 0 *
Ed
 1e-07 1 1 0
1  20 0 0 54
2  39 10 0 0 54
2  40 5 0 0 54
0

0101000
-98 0 +87 0 *
Wi

0101100
-86 0 -76 0 +97 0 +120 0 *
Fa
0  1e-07 5 0

0111000
+75 0 *
Ve
1.00000014210855e-07
84.2222222222222 286 297.946911096802
0 0

0101101
*
Ve
1e-07
84.2222222222222 286 292.946911096802
0 0

0101101
*
Ed
 1e-07 1 1 0
1  21 0 0 3.14159265358979
2  41 6 0 0 3.14159265358979
2  42 14 0 0 3.14159265358979
0

0101000
+73 0 -72 0 *
Ed
 1e-07 1 1 0
1  22 0 3.14159265358979 6.28318530717959
2  43 6 0 3.14159265358979 6.28318530717959
2  44 14 0 3.14159265358979 6.28318530717959
0

0101000
+72 0 -73 0 *
Ed
 1e-07 1 1 0
1  23 0 1 67.2222222222222
3  45 46CN 6 0 1 67.2222222222222
0

0101000
+118 0 -73 0 *
Wi

0101100
-71 0 -70 0 +69 0 +117 0 -69 0 *
Fa
0  1e-07 6 0

0101000
+68 0 *
Ve
1.00000014210855e-07
84.2222222222222 286 333.946911096802
0 0

0101101
*
Ve
1e-07
84.2222222222222 286 328.946911096802
0 0

0101101
*
Ed
 1e-07 1 1 0
1  24 0 0 3.14159265358979
2  47 7 0 0 3.14159265358979
2  48 15 0 0 3.14159265358979
0

0101000
+66 0 -65 0 *
Ed
 1e-07 1 1 0
1  25 0 3.14159265358979 6.28318530717959
2  49 7 0 3.14159265358979 6.28318530717959
2  50 15 0 3.14159265358979 6.28318530717959
0

0101000
+65 0 -66 0 *
Ed
 1e-07 1 1 0
1  26 0 1 67.2222222222222
3  51 52CN 7 0 1 67.2222222222222
0

0101000
+115 0 -66 0 *
Wi

0101100
-64 0 -63 0 +62 0 +114 0 -62 0 *
Fa
0  1e-07 7 0

0101000
+61 0 *
Ve
1.00000014210855e-07
84.2222222222222 234 297.946911096802
0 0

0101101
*
Ve
1e-07
84.2222222222222 234 292.946911096802
0 0

0101101
*
Ed
 1e-07 1 1 0
1  27 0 0 3.14159265358979
2  53 8 0 0 3.14159265358979
2  54 16 0 0 3.14159265358979
0

0101000
+59 0 -58 0 *
Ed
 1e-07 1 1 0
1  28 0 3.14159265358979 6.28318530717959
2  55 8 0 3.14159265358979 6.28318530717959
2  56 16 0 3.14159265358979 6.28318530717959
0

0101000
+58 0 -59 0 *
Ed
 1e-07 1 1 0
1  29 0 1 67.2222222222222
3  57 58CN 8 0 1 67.2222222222222
0

0101000
+112 0 -59 0 *
Wi

0101100
-57 0 -56 0 +55 0 +111 0 -55 0 *
Fa
0  1e-07 8 0

0101000
+54 0 *
Ve
1.00000014210855e-07
84.2222222222222 234 333.946911096802
0 0

0101101
*
Ve
1e-07
84.2222222222222 234 328.946911096802
0 0

0101101
*
Ed
 1e-07 1 1 0
1  30 0 0 3.14159265358979
2  59 9 0 0 3.14159265358979
2  60 17 0 0 3.14159265358979
0

0101000
+52 0 -51 0 *
Ed
 1e-07 1 1 0
1  31 0 3.14159265358979 6.28318530717959
2  61 9 0 3.14159265358979 6.28318530717959
2  62 17 0 3.14159265358979 6.28318530717959
0

0101000
+51 0 -52 0 *
Ed
 1e-07 1 1 0
1  32 0 1 67.2222222222222
3  63 64CN 9 0 1 67.2222222222222
0

0101000
+109 0 -52 0 *
Wi

0101100
-50 0 -49 0 +48 0 +108 0 -48 0 *
Fa
0  1e-07 9 0

0101000
+47 0 *
Wi

0101100
-102 0 -96 0 +85 0 +76 0 *
Ve
1e-07
86 286 290.946911096802
0 0

0101101
*
Ed
 1e-07 1 1 0
1  33 0 0 6.28318530717959
2  65 14 0 0 6.28318530717959
2  66 18 0 0 6.28318530717959
0

0101000
+44 0 -44 0 *
Wi

0101100
+43 0 *
Ve
1e-07
86 286 326.946911096802
0 0

0101101
*
Ed
 1e-07 1 1 0
1  34 0 0 6.28318530717959
2  67 15 0 0 6.28318530717959
2  68 19 0 0 6.28318530717959
0

0101000
+41 0 -41 0 *
Wi

0101100
+40 0 *
Ve
1e-07
86 234 290.946911096802
0 0

0101101
*
Ed
 1e-07 1 1 0
1  35 0 0 6.28318530717959
2  69 16 0 0 6.28318530717959
2  70 20 0 0 6.28318530717959
0

0101000
+38 0 -38 0 *
Wi

0101100
+37 0 *
Ve
1e-07
86 234 326.946911096802
0 0

0101101
*
Ed
 1e-07 1 1 0
1  36 0 0 6.28318530717959
2  71 17 0 0 6.28318530717959
2  72 21 0 0 6.28318530717959
0

0101000
+35 0 -35 0 *
Wi

0101100
+34 0 *
Fa
0  1e-07 10 0

0101000
+45 0 +42 0 +39 0 +36 0 +33 0 *
Ve
1e-07
78 245 324.446911096802
0 0

0101101
*
Ed
 1e-07 1 1 0
1  37 0 0 16
3  73 74CN 11 0 0 16
0

0101000
+31 0 -94 0 *
Ed
 1e-07 1 1 0
1  38 0 0 6.28318530717959
2  75 11 0 0 6.28318530717959
2  76 22 0 0 6.28318530717959
0

0101000
+31 0 -31 0 *
Wi

0101100
-93 0 +30 0 +29 0 -30 0 *
Fa
0  1e-07 11 0

0101000
+28 0 *
Ed
 1e-07 1 1 0
1  39 0 1 55
3  77 78CN 12 0 1 55
0

0101000
+80 0 -91 0 *
Wi

0101100
-90 0 +26 0 +79 0 -26 0 *
Fa
0  1e-07 12 0

0101000
+25 0 *
Ve
1e-07
76.5 245 324.446911096802
0 0

0101101
*
Ed
 1e-07 1 1 0
1  40 0 0 6.28318530717959
2  79 13 0 0 6.28318530717959
2  80 22 0 0 6.28318530717959
0

0101100
+23 0 -23 0 *
Ed
 1e-07 1 1 0
1  41 0 1 39
3  81 82CN 13 0 1 39
0

0101000
+83 0 -23 0 *
Wi

0101100
-22 0 +21 0 +82 0 -21 0 *
Fa
0  1e-07 13 0

0101000
+20 0 *
Ed
 1e-07 1 1 0
1  42 0 0 2.67590990639828
3  83 84CN 14 0 0 2.67590990639828
0

0101000
+44 0 -72 0 *
Wi

0101100
+71 0 +70 0 +18 0 +43 0 -18 0 *
Fa
0  1e-07 14 0

0101000
+17 0 *
Ed
 1e-07 1 1 0
1  43 0 0 2.67590990639828
3  85 86CN 15 0 0 2.67590990639828
0

0101000
+41 0 -65 0 *
Wi

0101100
+64 0 +63 0 +15 0 +40 0 -15 0 *
Fa
0  1e-07 15 0

0101000
+14 0 *
Ed
 1e-07 1 1 0
1  44 0 0 2.67590990639828
3  87 88CN 16 0 0 2.67590990639828
0

0101000
+38 0 -58 0 *
Wi

0101100
+57 0 +56 0 +12 0 +37 0 -12 0 *
Fa
0  1e-07 16 0

0101000
+11 0 *
Ed
 1e-07 1 1 0
1  45 0 0 2.67590990639828
3  89 90CN 17 0 0 2.67590990639828
0

0101000
+35 0 -51 0 *
Wi

0101100
+50 0 +49 0 +9 0 +34 0 -9 0 *
Fa
0  1e-07 17 0

0101000
+8 0 *
Wi

0101100
+29 0 *
Wi

0101100
-22 0 *
Fa
0  1e-07 22 0

0101000
+6 0 +5 0 *
Sh

0101100
-106 0 -99 0 +88 0 -77 0 +74 0 -67 0 -60 0 -53 0 -46 0 +32 0 
-27 0 -24 0 -19 0 -16 0 -13 0 -10 0 -7 0 +4 0 *
So

0100000
+3 0 *
Co

1100000
+2 0 *

+1 0 