DBRep_DrawableShape

CASCADE Topology V1, (c) Matra-Datavision
Locations 3
1
              1               0               0               0 
              0               1               0               0 
              0               0               1               0 
1
              1               0               0               0 
              0               1               0               0 
              0               0               1               4 
2  2 -1 0
Curve2ds 4
1 0 100 1 0 
1 6.2831853071795862 -0 0 1 
1 0 -0 0 1 
1 0 0 1 0 
Curves 21
2 528 275 374.68634771652034 0 -0 -1 -1 0 -0 0 1 -0 3
1 525 275 274.68634771652034 -0 -0 1 
2 528 275 274.68634771652034 0 -0 -1 -1 0 -0 0 1 -0 3
1 522.22649730810372 275 270.68634771652034 0.49999999999999983 0.86602540378443882 -0 
1 525.11324865405186 270 270.68634771652034 -0.49999999999999983 0.86602540378443882 -0 
1 525.11324865405186 280 270.68634771652034 1 -0 -0 
1 530.88675134594814 270 270.68634771652034 -1 -0 -0 
1 530.88675134594814 280 270.68634771652034 0.49999999999999983 -0.86602540378443882 -0 
1 533.77350269189628 275 270.68634771652034 -0.49999999999999983 -0.86602540378443882 0 
1 522.22649730810372 275 270.68634771652034 -0 -0 1 
1 525.11324865405186 280 270.68634771652034 -0 -0 1 
1 522.22649730810372 275 270.68634771652034 0.49999999999999983 0.86602540378443882 -0 
1 525.11324865405186 270 270.68634771652034 -0 -0 1 
1 525.11324865405186 270 270.68634771652034 -0.49999999999999983 0.86602540378443882 -0 
1 530.88675134594814 280 270.68634771652034 -0 -0 1 
1 525.11324865405186 280 270.68634771652034 1 -0 -0 
1 530.88675134594814 270 270.68634771652034 -0 -0 1 
1 530.88675134594814 270 270.68634771652034 -1 -0 -0 
1 533.77350269189628 275 270.68634771652034 -0 -0 1 
1 530.88675134594814 280 270.68634771652034 0.49999999999999983 -0.86602540378443882 -0 
1 533.77350269189628 275 270.68634771652034 -0.49999999999999983 -0.86602540378443882 0 
Polygon3D 0
PolygonOnTriangulations 0
Surfaces 10
2 528 275 274.68634771652034 -0 -0 1 -1 0 -0 0 1 -0 3
1 528 275 374.68634771652034 -0 -0 1 -1 0 -0 0 1 -0 
1 528 275.00000000000006 270.68634771652046 -0 -0 1 -1 0 -0 0 1 -0 
1 522.22649730810372 275 270.68634771652034 0.86602540378443882 -0.49999999999999983 -0 0.49999999999999983 0.86602540378443882 -0 -0 -0 -1 
1 525.11324865405186 270 270.68634771652034 0.86602540378443882 0.49999999999999983 -0 -0.49999999999999983 0.86602540378443882 -0 -0 0 -1 
1 525.11324865405186 280 270.68634771652034 -0 -1 0 1 -0 -0 -0 -0 -1 
1 530.88675134594814 270 270.68634771652034 -0 1 -0 -1 -0 -0 -0 0 -1 
1 530.88675134594814 280 270.68634771652034 -0.86602540378443882 -0.49999999999999983 0 0.49999999999999983 -0.86602540378443882 -0 -0 -0 -1 
1 533.77350269189628 275 270.68634771652034 -0.86602540378443882 0.49999999999999983 -0 -0.49999999999999983 -0.86602540378443882 0 -0 -0 -1 
1 528 275.00000000000006 270.68634771652046 -0 -0 1 -1 0 -0 0 1 -0 
Triangulations 0

TShapes 59
Ve
1e-07
525 275 374.68634771652
0 0

0101101
*
Ed
 1e-07 1 1 0
1  1 0 0 6.28318530717959
2  1 1 0 0 6.28318530717959
0

0101000
+59 0 -59 0 *
Ve
1.00000113686838e-07
525 275 274.68634771652
0 0

0101101
*
Ed
 1e-07 1 1 0
1  2 0 0 100
3  2 3CN 1 0 0 100
0

0101000
+57 0 -59 0 *
Ed
 1.00000113686838e-07 1 1 0
1  3 0 0 6.28318530717959
2  4 1 0 0 6.28318530717959
0

0101000
+57 0 -57 0 *
Wi

0101100
-58 0 +56 0 +55 0 -56 0 *
Fa
0  1e-07 1 0

0101000
+54 0 *
Wi

0101100
+58 0 *
Fa
0  1e-07 2 0

0111000
+52 0 *
Ve
1e-07
522.226497308104 275 274.68634771652
0 0

0101101
*
Ve
1e-07
525.113248654052 280 274.68634771652
0 0

0101101
*
Ed
 1e-07 1 1 0
1  4 0 0 5.77350269189626
0

0101000
+50 3 -49 3 *
Ve
1e-07
525.113248654052 270 274.68634771652
0 0

0101101
*
Ed
 1e-07 1 1 0
1  5 0 0 5.77350269189626
0

0101000
+47 3 -50 3 *
Ve
1e-07
530.886751345948 280 274.68634771652
0 0

0101101
*
Ed
 1e-07 1 1 0
1  6 0 0 5.77350269189625
0

0101000
+49 3 -45 3 *
Ve
1e-07
530.886751345948 270 274.68634771652
0 0

0101101
*
Ed
 1e-07 1 1 0
1  7 0 0 5.77350269189625
0

0101000
+43 3 -47 3 *
Ve
1e-07
533.773502691896 275 274.68634771652
0 0

0101101
*
Ed
 1e-07 1 1 0
1  8 0 0 5.77350269189626
0

0101000
+45 3 -41 3 *
Ed
 1e-07 1 1 0
1  9 0 0 5.77350269189626
0

0101000
+41 3 -43 3 *
Wi

0101100
+48 2 +46 2 +44 2 +42 2 +40 2 +39 2 *
Wi

0101100
-55 0 *
Fa
0  1e-07 3 2

0101000
+38 0 +37 0 *
Ve
1e-07
522.226497308104 275 270.68634771652
0 0

0101101
*
Ed
 1e-07 1 1 0
1  10 0 0 4
0

0101000
+35 0 -50 0 *
Ve
1e-07
525.113248654052 280 270.68634771652
0 0

0101101
*
Ed
 1e-07 1 1 0
1  11 0 0 4
0

0101000
+33 0 -49 0 *
Ed
 1e-07 1 1 0
1  12 0 0 5.77350269189626
0

0101000
+35 0 -33 0 *
Wi

0101100
+34 0 -32 0 -31 0 +48 2 *
Fa
0  1e-07 4 0

0101000
+30 0 *
Ve
1e-07
525.113248654052 270 270.68634771652
0 0

0101101
*
Ed
 1e-07 1 1 0
1  13 0 0 4
0

0101000
+28 0 -47 0 *
Ed
 1e-07 1 1 0
1  14 0 0 5.77350269189626
0

0101000
+28 0 -35 0 *
Wi

0101100
+27 0 -34 0 -26 0 +46 2 *
Fa
0  1e-07 5 0

0101000
+25 0 *
Ve
1e-07
530.886751345948 280 270.68634771652
0 0

0101101
*
Ed
 1e-07 1 1 0
1  15 0 0 4
0

0101000
+23 0 -45 0 *
Ed
 1e-07 1 1 0
1  16 0 0 5.77350269189625
0

0101000
+33 0 -23 0 *
Wi

0101100
+32 0 -22 0 -21 0 +44 2 *
Fa
0  1e-07 6 0

0101000
+20 0 *
Ve
1e-07
530.886751345948 270 270.68634771652
0 0

0101101
*
Ed
 1e-07 1 1 0
1  17 0 0 4
0

0101000
+18 0 -43 0 *
Ed
 1e-07 1 1 0
1  18 0 0 5.77350269189625
0

0101000
+18 0 -28 0 *
Wi

0101100
+17 0 -27 0 -16 0 +42 2 *
Fa
0  1e-07 7 0

0101000
+15 0 *
Ve
1e-07
533.773502691896 275 270.68634771652
0 0

0101101
*
Ed
 1e-07 1 1 0
1  19 0 0 4
0

0101000
+13 0 -41 0 *
Ed
 1e-07 1 1 0
1  20 0 0 5.77350269189626
0

0101000
+23 0 -13 0 *
Wi

0101100
+22 0 -12 0 -11 0 +40 2 *
Fa
0  1e-07 8 0

0101000
+10 0 *
Ed
 1e-07 1 1 0
1  21 0 0 5.77350269189626
0

0101000
+13 0 -18 0 *
Wi

0101100
+12 0 -17 0 -8 0 +39 2 *
Fa
0  1e-07 9 0

0101000
+7 0 *
Wi

0101100
+31 0 +21 0 +11 0 +8 0 +16 0 +26 0 *
Fa
0  1e-07 10 0

0101000
+5 0 *
Sh

0101100
-53 0 -51 0 -36 0 +29 0 +24 0 +19 0 +14 0 +9 0 +6 0 +4 0 
*
So

0100000
+3 0 *
Co

1100000
+2 0 *

+1 1 