DBRep_DrawableShape

CASCADE Topology V1, (c) Matra-Datavision
Locations 0
Curve2ds 88
1 0 0 1 0 
1 0 0 1 0 
1 18 0 0 -1 
1 0 0 0 1 
1 0 0 0 -1 
1 0 0 0 1 
1 0 -70 1 0 
1 0 0 1 0 
2 9 -61 1 0 -0 1 2.5
1 0 1 1 0 
2 9 -9 1 0 -0 1 2.5
1 0 1 1 0 
1 0 0 0 1 
1 0 0 1 0 
1 0 0 1 0 
1 0 68 1 0 
1 18 0 0 1 
1 0 0 1 0 
1 18 0 0 1 
1 0 70 1 0 
1 18 0 0 -1 
1 68 0 0 1 
2 54 20 1 0 -0 1 6
1 0 16 1 0 
1 0 3.0103986446980739 1 0 
2 0 0 1 0 -0 1 4.5
1 0 3.0103986446980739 1 0 
2 0 0 1 0 -0 1 4.5
2 54 50 1 0 -0 1 3.5
1 0 55 1 0 
1 0 0 0 1 
1 0 70 1 0 
1 0 0 0 -1 
1 68 0 0 1 
2 54 20 1 0 -0 1 4.5
1 0 37 1 0 
2 20 35 1 0 -0 1 2.25
1 0 32 1 0 
2 52 35 1 0 -0 1 2.25
1 0 32 1 0 
2 54 50 1 0 -0 1 3.5
1 0 37 1 0 
1 0 -70 1 0 
1 0 68 1 0 
1 0 67.222222222222229 1 0 
1 3.1415926535897931 2.6759099063982785 -1 0 
1 0 67.222222222222229 1 0 
1 9.4247779607693793 2.6759099063982785 -1 0 
1 6.2831853071795862 -0 0 1 
1 0 -0 0 1 
1 0 67.222222222222229 1 0 
1 3.1415926535897931 2.6759099063982785 -1 0 
1 0 67.222222222222229 1 0 
1 9.4247779607693793 2.6759099063982785 -1 0 
1 6.2831853071795862 -0 0 1 
1 0 -0 0 1 
1 0 0 1 0 
2 0 0 1 0 -0 1 4.5
1 0 0 1 0 
2 0 0 1 0 -0 1 4.5
1 6.2831853071795862 -0 0 1 
1 0 -0 0 1 
1 0 0 1 0 
2 0 0 1 0 -0 1 6
1 6.2831853071795862 -0 0 1 
1 0 -0 0 1 
1 0 0 1 0 
2 0 0 1 0 -0 1 2.25
1 0 48 1 0 
1 6.2831853071795862 -0 0 1 
1 0 -0 0 1 
1 0 0 1 0 
2 0 0 1 0 -0 1 2.25
1 0 48 1 0 
1 6.2831853071795862 -0 0 1 
1 0 -0 0 1 
1 0 39 1 0 
2 0 0 1 0 -0 1 4.5
1 6.2831853071795862 -0 0 1 
1 0 -0 0 1 
1 6.2831853071795862 -0 0 1 
1 0 -0 0 1 
1 6.2831853071795862 -0 0 1 
1 0 -0 0 1 
1 6.2831853071795862 -0 0 1 
1 0 -0 0 1 
1 6.2831853071795862 -0 0 1 
1 0 -0 0 1 
Curves 43
1 18 225 322.44691109680201 0 0 1 
1 18 225 340.44691109680201 -0 1 0 
1 18 225 322.44691109680201 -0 1 0 
1 18 295 322.44691109680201 0 0 1 
2 18 286 331.44691109680201 1 0 0 -0 0 1 0 -1 0 2.5
2 18 234 331.44691109680201 1 0 0 -0 0 1 0 -1 0 2.5
1 18 225 322.44691109680201 1 0 -0 
1 86 225 322.44691109680201 0 0 1 
1 18 225 340.44691109680201 1 0 -0 
1 18 295 340.44691109680201 1 0 -0 
1 86 225 340.44691109680201 -0 1 0 
2 72 245 340.44691109680201 0 0 1 1 0 -0 -0 1 0 6
2 38 260 340.44691109680201 0 0 1 1 0 -0 -0 1 0 4.5
2 70 260 340.44691109680201 0 0 1 1 0 -0 -0 1 0 4.5
2 72 275 340.44691109680201 0 0 1 1 0 -0 -0 1 0 3.5
1 18 295 322.44691109680201 1 0 -0 
1 86 225 322.44691109680201 -0 1 0 
2 72 245 322.44691109680201 0 0 1 1 0 -0 -0 1 0 4.5
2 38 260 322.44691109680201 0 0 1 1 0 -0 -0 1 0 2.25
2 70 260 322.44691109680201 0 0 1 1 0 -0 -0 1 0 2.25
2 72 275 322.44691109680201 0 0 1 1 0 -0 -0 1 0 3.5
1 86 295 322.44691109680201 0 0 1 
2 84.222222222222229 286 331.44691109680201 1 0 0 -0 0 1 0 -1 0 2.5
2 84.222222222222229 286 331.44691109680201 1 0 0 -0 0 1 0 -1 0 2.5
1 17 286 333.94691109680201 1 0 0 
2 84.222222222222229 234 331.44691109680201 1 0 0 -0 0 1 0 -1 0 2.5
2 84.222222222222229 234 331.44691109680201 1 0 0 -0 0 1 0 -1 0 2.5
1 17 234 333.94691109680201 1 0 0 
2 86 286 331.44691109680201 -1 0 0 0 0 -1 -0 -1 -0 4.5
2 86 234 331.44691109680201 -1 0 0 0 0 -1 -0 -1 -0 4.5
1 78 245 324.44691109680201 0 0 1 
2 72 245 324.44691109680201 0 0 1 1 0 -0 -0 1 0 6
1 40.25 260 338.44691109680201 0.74740931868365978 -1.8306248595576961e-16 0.66436383882991967 
2 38 260 338.44691109680201 0 0 1 1 0 -0 -0 1 0 2.25
1 72.25 260 338.44691109680201 0.74740931868365978 -1.8306248595576961e-16 0.66436383882991967 
2 70 260 338.44691109680201 0 0 1 1 0 -0 -0 1 0 2.25
1 75.5 275 285.44691109680201 0 0 1 
2 72 245 324.44691109680201 0 0 1 1 0 -0 -0 1 0 4.5
1 76.5 245 285.44691109680201 0 0 1 
1 40.25 260 290.44691109680201 0 0 1 
1 72.25 260 290.44691109680201 0 0 1 
1 86 286 326.94691109680201 -0.66436383882991967 -1.8306248595576961e-16 0.74740931868365978 
1 86 234 326.94691109680201 -0.66436383882991967 -1.8306248595576961e-16 0.74740931868365978 
Polygon3D 0
PolygonOnTriangulations 0
Surfaces 24
1 18 225 322.44691109680201 1 0 -0 0 0 1 0 -1 0 
1 18 225 322.44691109680201 -0 1 0 0 0 1 1 0 -0 
1 18 225 340.44691109680201 0 0 1 1 0 -0 -0 1 0 
1 18 225 322.44691109680201 0 0 1 1 0 -0 -0 1 0 
1 18 295 322.44691109680201 -0 1 0 0 0 1 1 0 -0 
2 17 286 331.44691109680201 1 0 0 -0 0 1 0 -1 0 2.5
2 17 234 331.44691109680201 1 0 0 -0 0 1 0 -1 0 2.5
1 86 225 322.44691109680201 1 0 -0 0 0 1 0 -1 0 
2 72 245 324.44691109680201 0 0 1 1 0 -0 -0 1 0 6
3 38 260 338.44691109680201 0 0 1 1 0 -0 -0 1 0 2.25
0.84415398611317105
1 38 260 340.44691109680201 0 0 1 1 0 -0 -0 1 0 
3 70 260 338.44691109680201 0 0 1 1 0 -0 -0 1 0 2.25
0.84415398611317105
1 70 260 340.44691109680201 0 0 1 1 0 -0 -0 1 0 
2 72 275 285.44691109680201 0 0 1 1 0 -0 -0 1 0 3.5
2 72 245 285.44691109680201 0 0 1 1 0 -0 -0 1 0 4.5
2 38 260 290.44691109680201 0 0 1 1 0 -0 -0 1 0 2.25
2 70 260 290.44691109680201 0 0 1 1 0 -0 -0 1 0 2.25
3 86 286 331.44691109680201 -1 0 0 0 0 -1 -0 -1 -0 4.5
-0.84415398611317105
3 86 234 331.44691109680201 -1 0 0 0 0 -1 -0 -1 -0 4.5
-0.84415398611317105
1 86 286 331.44691109680201 -1 0 0 0 0 -1 -0 -1 -0 
1 86 234 331.44691109680201 -1 0 0 0 0 -1 -0 -1 -0 
1 72 245 324.44691109680201 0 0 1 1 0 -0 -0 1 0 
1 38 260 338.44691109680201 0 0 1 1 0 -0 -0 1 0 
1 70 260 338.44691109680201 0 0 1 1 0 -0 -0 1 0 
Triangulations 0

TShapes 123
Ve
1e-07
18 225 340.446911096802
0 0

0101101
*
Ve
1e-07
18 225 322.446911096802
0 0

0101101
*
Ed
 1e-07 1 1 0
1  1 0 0 18
2  1 1 0 0 18
2  2 2 0 0 18
0

0101000
-123 0 +122 0 *
Ve
1e-07
18 295 340.446911096802
0 0

0101101
*
Ed
 1e-07 1 1 0
1  2 0 0 70
2  3 1 0 0 70
2  4 3 0 0 70
0

0101000
-120 0 +123 0 *
Ve
1e-07
18 295 322.446911096802
0 0

0101101
*
Ed
 1e-07 1 1 0
1  3 0 0 70
2  5 1 0 0 70
2  6 4 0 0 70
0

0101000
-118 0 +122 0 *
Ed
 1e-07 1 1 0
1  4 0 0 18
2  7 1 0 0 18
2  8 5 0 0 18
0

0101000
-120 0 +118 0 *
Wi

0101100
-121 0 -119 0 +117 0 +116 0 *
Ve
1e-07
18 286 333.946911096802
0 0

0101101
*
Ed
 1e-07 1 1 0
1  5 0 0 6.28318530717959
2  9 1 0 0 6.28318530717959
2  10 6 0 0 6.28318530717959
0

0101100
+114 0 -114 0 *
Wi

0101100
-113 0 *
Ve
1e-07
18 234 333.946911096802
0 0

0101101
*
Ed
 1e-07 1 1 0
1  6 0 0 6.28318530717959
2  11 1 0 0 6.28318530717959
2  12 7 0 0 6.28318530717959
0

0101100
+111 0 -111 0 *
Wi

0101100
-110 0 *
Fa
0  1e-07 1 0

0101000
+115 0 +112 0 +109 0 *
Ve
1e-07
86 225 322.446911096802
0 0

0101101
*
Ed
 1e-07 1 1 0
1  7 0 0 68
2  13 2 0 0 68
2  14 4 0 0 68
0

0101000
-107 0 +122 0 *
Ve
1e-07
86 225 340.446911096802
0 0

0101101
*
Ed
 1e-07 1 1 0
1  8 0 0 18
2  15 8 0 0 18
2  16 2 0 0 18
0

0101000
-105 0 +107 0 *
Ed
 1e-07 1 1 0
1  9 0 0 68
2  17 2 0 0 68
2  18 3 0 0 68
0

0101000
-105 0 +123 0 *
Wi

0101100
-106 0 -104 0 +103 0 +121 0 *
Fa
0  1e-07 2 0

0111000
+102 0 *
Ve
1e-07
86 295 340.446911096802
0 0

0101101
*
Ed
 1e-07 1 1 0
1  10 0 0 68
2  19 5 0 0 68
2  20 3 0 0 68
0

0101000
-100 0 +120 0 *
Ed
 1e-07 1 1 0
1  11 0 0 70
2  21 8 0 0 70
2  22 3 0 0 70
0

0101000
-100 0 +105 0 *
Wi

0101100
-119 0 -99 0 +103 0 +98 0 *
Ve
1e-07
78 245 340.446911096802
0 0

0101101
*
Ed
 1e-07 1 1 0
1  12 0 0 6.28318530717959
2  23 3 0 0 6.28318530717959
2  24 9 0 0 6.28318530717959
0

0101100
+96 0 -96 0 *
Wi

0101100
-95 0 *
Ve
1e-07
42.5 260 340.446911096802
0 0

0101101
*
Ed
 1e-07 1 1 0
1  13 0 0 6.28318530717959
2  25 10 0 0 6.28318530717959
2  26 11 0 0 6.28318530717959
0

0101000
+93 0 -93 0 *
Wi

0101100
-92 0 *
Ve
1e-07
74.5 260 340.446911096802
0 0

0101101
*
Ed
 1e-07 1 1 0
1  14 0 0 6.28318530717959
2  27 12 0 0 6.28318530717959
2  28 13 0 0 6.28318530717959
0

0101000
+90 0 -90 0 *
Wi

0101100
-89 0 *
Ve
1e-07
75.5 275 340.446911096802
0 0

0101101
*
Ed
 1e-07 1 1 0
1  15 0 0 6.28318530717959
2  29 3 0 0 6.28318530717959
2  30 14 0 0 6.28318530717959
0

0101100
+87 0 -87 0 *
Wi

0101100
-86 0 *
Fa
0  1e-07 3 0

0101000
+97 0 +94 0 +91 0 +88 0 +85 0 *
Ve
1e-07
86 295 322.446911096802
0 0

0101101
*
Ed
 1e-07 1 1 0
1  16 0 0 68
2  31 5 0 0 68
2  32 4 0 0 68
0

0101000
-83 0 +118 0 *
Ed
 1e-07 1 1 0
1  17 0 0 70
2  33 8 0 0 70
2  34 4 0 0 70
0

0101000
-83 0 +107 0 *
Wi

0101100
-117 0 -82 0 +106 0 +81 0 *
Ve
1e-07
76.5 245 322.446911096802
0 0

0101101
*
Ed
 1e-07 1 1 0
1  18 0 0 6.28318530717959
2  35 4 0 0 6.28318530717959
2  36 15 0 0 6.28318530717959
0

0101100
+79 0 -79 0 *
Wi

0101100
-78 0 *
Ve
1e-07
40.25 260 322.446911096802
0 0

0101101
*
Ed
 1e-07 1 1 0
1  19 0 0 6.28318530717959
2  37 4 0 0 6.28318530717959
2  38 16 0 0 6.28318530717959
0

0101100
+76 0 -76 0 *
Wi

0101100
-75 0 *
Ve
1e-07
72.25 260 322.446911096802
0 0

0101101
*
Ed
 1e-07 1 1 0
1  20 0 0 6.28318530717959
2  39 4 0 0 6.28318530717959
2  40 17 0 0 6.28318530717959
0

0101100
+73 0 -73 0 *
Wi

0101100
-72 0 *
Ve
1e-07
75.5 275 322.446911096802
0 0

0101101
*
Ed
 1e-07 1 1 0
1  21 0 0 6.28318530717959
2  41 4 0 0 6.28318530717959
2  42 14 0 0 6.28318530717959
0

0101100
+70 0 -70 0 *
Wi

0101100
-69 0 *
Fa
0  1e-07 4 0

0101000
+80 0 +77 0 +74 0 +71 0 +68 0 *
Ed
 1e-07 1 1 0
1  22 0 0 18
2  43 8 0 0 18
2  44 5 0 0 18
0

0101000
-100 0 +83 0 *
Wi

0101100
-82 0 -66 0 +99 0 +116 0 *
Fa
0  1e-07 5 0

0111000
+65 0 *
Ve
1.00000014210855e-07
84.2222222222222 286 333.946911096802
0 0

0101101
*
Ve
1e-07
84.2222222222222 286 328.946911096802
0 0

0101101
*
Ed
 1e-07 1 1 0
1  23 0 0 3.14159265358979
2  45 6 0 0 3.14159265358979
2  46 18 0 0 3.14159265358979
0

0101000
+63 0 -62 0 *
Ed
 1e-07 1 1 0
1  24 0 3.14159265358979 6.28318530717959
2  47 6 0 3.14159265358979 6.28318530717959
2  48 18 0 3.14159265358979 6.28318530717959
0

0101000
+62 0 -63 0 *
Ed
 1e-07 1 1 0
1  25 0 1 67.2222222222222
3  49 50CN 6 0 1 67.2222222222222
0

0101000
+114 0 -63 0 *
Wi

0101100
-61 0 -60 0 +59 0 +113 0 -59 0 *
Fa
0  1e-07 6 0

0101000
+58 0 *
Ve
1.00000014210855e-07
84.2222222222222 234 333.946911096802
0 0

0101101
*
Ve
1e-07
84.2222222222222 234 328.946911096802
0 0

0101101
*
Ed
 1e-07 1 1 0
1  26 0 0 3.14159265358979
2  51 7 0 0 3.14159265358979
2  52 19 0 0 3.14159265358979
0

0101000
+56 0 -55 0 *
Ed
 1e-07 1 1 0
1  27 0 3.14159265358979 6.28318530717959
2  53 7 0 3.14159265358979 6.28318530717959
2  54 19 0 3.14159265358979 6.28318530717959
0

0101000
+55 0 -56 0 *
Ed
 1e-07 1 1 0
1  28 0 1 67.2222222222222
3  55 56CN 7 0 1 67.2222222222222
0

0101000
+111 0 -56 0 *
Wi

0101100
-54 0 -53 0 +52 0 +110 0 -52 0 *
Fa
0  1e-07 7 0

0101000
+51 0 *
Wi

0101100
-104 0 -98 0 +81 0 +66 0 *
Ve
1e-07
86 286 326.946911096802
0 0

0101101
*
Ed
 1e-07 1 1 0
1  29 0 0 6.28318530717959
2  57 18 0 0 6.28318530717959
2  58 20 0 0 6.28318530717959
0

0101000
+48 0 -48 0 *
Wi

0101100
+47 0 *
Ve
1e-07
86 234 326.946911096802
0 0

0101101
*
Ed
 1e-07 1 1 0
1  30 0 0 6.28318530717959
2  59 19 0 0 6.28318530717959
2  60 21 0 0 6.28318530717959
0

0101000
+45 0 -45 0 *
Wi

0101100
+44 0 *
Fa
0  1e-07 8 0

0101000
+49 0 +46 0 +43 0 *
Ve
1e-07
78 245 324.446911096802
0 0

0101101
*
Ed
 1e-07 1 1 0
1  31 0 0 16
3  61 62CN 9 0 0 16
0

0101000
+41 0 -96 0 *
Ed
 1e-07 1 1 0
1  32 0 0 6.28318530717959
2  63 9 0 0 6.28318530717959
2  64 22 0 0 6.28318530717959
0

0101000
+41 0 -41 0 *
Wi

0101100
-95 0 +40 0 +39 0 -40 0 *
Fa
0  1e-07 9 0

0101000
+38 0 *
Ve
1.00000007105427e-07
40.25 260 338.446911096802
0 0

0101101
*
Ed
 1e-07 1 1 0
1  33 0 0 3.01039864469807
3  65 66CN 10 0 0 3.01039864469807
0

0101000
+36 0 -93 0 *
Ed
 1.00000007105427e-07 1 1 0
1  34 0 0 6.28318530717959
2  67 10 0 0 6.28318530717959
2  68 23 0 0 6.28318530717959
2  69 16 0 0 6.28318530717959
0

0101000
+36 0 -36 0 *
Wi

0101100
-92 0 +35 0 +34 0 -35 0 *
Fa
0  1e-07 10 0

0101000
+33 0 *
Ve
1e-07
72.25 260 338.446911096802
0 0

0101101
*
Ed
 1e-07 1 1 0
1  35 0 0 3.01039864469807
3  70 71CN 12 0 0 3.01039864469807
0

0101000
+31 0 -90 0 *
Ed
 1e-07 1 1 0
1  36 0 0 6.28318530717959
2  72 12 0 0 6.28318530717959
2  73 24 0 0 6.28318530717959
2  74 17 0 0 6.28318530717959
0

0101000
+31 0 -31 0 *
Wi

0101100
-89 0 +30 0 +29 0 -30 0 *
Fa
0  1e-07 12 0

0101000
+28 0 *
Ed
 1e-07 1 1 0
1  37 0 37 55
3  75 76CN 14 0 37 55
0

0101000
+70 0 -87 0 *
Wi

0101100
-86 0 +26 0 +69 0 -26 0 *
Fa
0  1e-07 14 0

0101000
+25 0 *
Ve
1e-07
76.5 245 324.446911096802
0 0

0101101
*
Ed
 1e-07 1 1 0
1  38 0 0 6.28318530717959
2  77 15 0 0 6.28318530717959
2  78 22 0 0 6.28318530717959
0

0101100
+23 0 -23 0 *
Ed
 1e-07 1 1 0
1  39 0 37 39
3  79 80CN 15 0 37 39
0

0101000
+79 0 -23 0 *
Wi

0101100
-22 0 +21 0 +78 0 -21 0 *
Fa
0  1e-07 15 0

0101000
+20 0 *
Ed
 1e-07 1 1 0
1  40 0 32 48
3  81 82CN 16 0 32 48
0

0101000
+76 0 -36 0 *
Wi

0101100
-34 0 +18 0 +75 0 -18 0 *
Fa
0  1e-07 16 0

0101000
+17 0 *
Ed
 1e-07 1 1 0
1  41 0 32 48
3  83 84CN 17 0 32 48
0

0101000
+73 0 -31 0 *
Wi

0101100
-29 0 +15 0 +72 0 -15 0 *
Fa
0  1e-07 17 0

0101000
+14 0 *
Ed
 1e-07 1 1 0
1  42 0 0 2.67590990639828
3  85 86CN 18 0 0 2.67590990639828
0

0101000
+48 0 -62 0 *
Wi

0101100
+61 0 +60 0 +12 0 +47 0 -12 0 *
Fa
0  1e-07 18 0

0101000
+11 0 *
Ed
 1e-07 1 1 0
1  43 0 0 2.67590990639828
3  87 88CN 19 0 0 2.67590990639828
0

0101000
+45 0 -55 0 *
Wi

0101100
+54 0 +53 0 +9 0 +44 0 -9 0 *
Fa
0  1e-07 19 0

0101000
+8 0 *
Wi

0101100
+39 0 *
Wi

0101100
-22 0 *
Fa
0  1e-07 22 0

0101000
+6 0 +5 0 *
Sh

0101100
-108 0 -101 0 +84 0 -67 0 +64 0 -57 0 -50 0 +42 0 -37 0 -32 0 
-27 0 -24 0 -19 0 -16 0 -13 0 -10 0 -7 0 +4 0 *
So

0100000
+3 0 *
Co

0100000
+2 0 *

+1 0 