DBRep_DrawableShape

CASCADE Topology V1, (c) Matra-Datavision
Locations 1
1
              1               0               0               0 
              0               1               0               0 
              0               0               1               0 
Curve2ds 8
1 0 3.0103986446980739 1 0 
1 6.2831853071795862 -0 0 1 
1 0 -0 0 1 
1 0 0 1 0 
1 0 48 1 0 
1 6.2831853071795862 -0 0 1 
1 0 -0 0 1 
1 0 0 1 0 
Curves 6
2 530 260 340.44691109680201 0 -0 -1 -1 0 -0 0 1 -0 2.25
2 530 260 340.44691109680201 0 -0 -1 -1 0 -0 0 1 -0 4.5
1 527.75 260 338.44691109680201 -0.74740931868365978 -1.8306248595576961e-16 0.66436383882991967 
2 530 260 338.44691109680201 0 -0 -1 -1 0 -0 0 1 -0 2.25
1 527.75 260 290.44691109680201 -0 -0 1 
2 530 260 290.44691109680201 0 -0 -1 -1 0 -0 0 1 -0 2.25
Polygon3D 0
PolygonOnTriangulations 0
Surfaces 5
1 530 260 340.44691109680201 -0 -0 1 -1 0 -0 0 1 -0 
1 530 260 340.44691109680201 -0 -0 1 -1 0 -0 0 1 -0 
3 530 260 338.44691109680201 -0 -0 1 -1 0 -0 0 1 -0 2.25
0.84415398611317105
2 530 260 290.44691109680201 -0 -0 1 -1 0 -0 0 1 -0 2.25
1 530 260 290.44691109680201 -0 -0 1 -1 0 -0 0 1 -0 
Triangulations 0

TShapes 24
Ve
1e-07
527.75 260 340.446911096802
0 0

0101101
*
Ed
 1e-07 1 1 0
1  1 0 0 6.28318530717959
0

0101000
+24 0 -24 0 *
Wi

0101100
+23 0 *
Fa
0  1e-07 1 0

0101000
+22 0 *
Ve
1e-07
525.5 260 340.446911096802
0 0

0101101
*
Ed
 1e-07 1 1 0
1  2 0 0 6.28318530717959
2  1 3 0 0 6.28318530717959
0

0101000
+20 0 -20 0 *
Wi

0101100
+19 0 *
Wi

0101100
-23 0 *
Fa
0  1e-07 2 0

0101000
+18 0 +17 0 *
Ve
1e-07
527.75 260 338.446911096802
0 0

0101101
*
Ed
 1e-07 1 1 0
1  3 0 0 3.01039864469807
3  2 3CN 3 0 0 3.01039864469807
0

0101000
+15 0 -20 0 *
Ed
 1e-07 1 1 0
1  4 0 0 6.28318530717959
2  4 3 0 0 6.28318530717959
2  5 4 0 0 6.28318530717959
0

0101000
+15 0 -15 0 *
Wi

0101100
-19 0 +14 0 +13 0 -14 0 *
Fa
0  1e-07 3 0

0101000
+12 0 *
Ve
1e-07
527.75 260 290.446911096802
0 0

0101101
*
Ed
 1e-07 1 1 0
1  5 0 0 48
3  6 7CN 4 0 0 48
0

0101000
+10 0 -15 0 *
Ed
 1e-07 1 1 0
1  6 0 0 6.28318530717959
2  8 4 0 0 6.28318530717959
0

0101000
+10 0 -10 0 *
Wi

0101100
-13 0 +9 0 +8 0 -9 0 *
Fa
0  1e-07 4 0

0101000
+7 0 *
Wi

0101100
-8 0 *
Fa
0  1e-07 5 0

0111000
-5 0 *
Sh

0101100
-21 0 -16 0 -11 0 -6 0 +4 0 *
So

0100000
+3 0 *
Co

1100000
+2 0 *

+1 1 