DBRep_DrawableShape

CASCADE Topology V1, (c) Matra-Datavision
Locations 0
Curve2ds 6
1 0 3 1 0 
2 0 0 1 0 -0 1 12
1 6.2831853071795862 -0 0 1 
1 0 -0 0 1 
1 0 0 1 0 
2 0 0 1 0 -0 1 12
Curves 3
2 72 245 362.44691109680201 0 -0.17204376626835499 0.98508930685912921 0 0.98508930685912921 0.17204376626835499 -1 0 0 12
1 72 257.33720298111461 361.55616837144487 -6.1629758220391547e-33 -0.17204376626835499 0.98508930685912921 
2 72 245.51613129880508 359.49164317622461 0 -0.17204376626835499 0.98508930685912921 0 0.98508930685912921 0.17204376626835499 -1 0 0 12
Polygon3D 0
PolygonOnTriangulations 0
Surfaces 3
2 72 245.51613129880508 359.49164317622461 0 -0.17204376626835499 0.98508930685912921 0 0.98508930685912921 0.17204376626835499 -1 0 0 12
1 72 245 362.44691109680201 0 -0.17204376626835499 0.98508930685912921 0 0.98508930685912921 0.17204376626835499 -1 0 0 
1 72 245.51613129880508 359.49164317622461 0 -0.17204376626835499 0.98508930685912921 0 0.98508930685912921 0.17204376626835499 -1 0 0 
Triangulations 0

TShapes 13
Ve
1e-07
72 256.82107168231 364.511436292022
0 0

0101101
*
Ed
 1e-07 1 1 0
1  1 0 0 6.28318530717959
2  1 1 0 0 6.28318530717959
2  2 2 0 0 6.28318530717959
0

0101000
+13 0 -13 0 *
Ve
1e-07
72 257.337202981115 361.556168371445
0 0

0101101
*
Ed
 1e-07 1 1 0
1  2 0 0 3
3  3 4CN 1 0 0 3
0

0101000
-13 0 +11 0 *
Ed
 1e-07 1 1 0
1  3 0 0 6.28318530717959
2  5 1 0 0 6.28318530717959
2  6 3 0 0 6.28318530717959
0

0101000
+11 0 -11 0 *
Wi

0101100
-12 0 +10 0 +9 0 -10 0 *
Fa
0  1e-07 1 0

0111000
+8 0 *
Wi

0101100
+12 0 *
Fa
0  1e-07 2 0

0111000
+6 0 *
Wi

0101100
-9 0 *
Fa
0  1e-07 3 0

0111000
-4 0 *
Sh

0101100
+7 0 +5 0 -3 0 *
So

1100000
+2 0 *

+1 0 