DBRep_DrawableShape

CASCADE Topology V1, (c) Matra-Datavision
Locations 1
1
              1               0               0               0 
              0               1               0               0 
              0               0               1               0 
Curve2ds 8
1 0 1 1 0 
1 6.2831853071795862 -0 0 1 
1 0 -0 0 1 
1 0 0 1 0 
1 0 1 1 0 
1 0 0 1 0 
1 6.2831853071795862 -0 0 1 
1 0 -0 0 1 
Curves 6
2 528 275 351.94691109680201 0 -0 -1 -1 0 -0 0 1 -0 4.5
1 523.5 275 350.94691109680201 -0 -0 1 
2 528 275 350.94691109680201 0 -0 -1 -1 0 -0 0 1 -0 4.5
2 528 275 351.94691109680201 0 -0 -1 -1 0 -0 0 1 -0 3
2 528 275 350.94691109680201 0 -0 -1 -1 0 -0 0 1 -0 3
1 525 275 350.94691109680201 -0 -0 1 
Polygon3D 0
PolygonOnTriangulations 0
Surfaces 4
2 528 275 350.94691109680201 -0 -0 1 -1 0 -0 0 1 -0 4.5
1 528 275 351.94691109680201 -0 -0 1 -1 0 -0 0 1 -0 
2 528 275 350.94691109680201 -0 -0 1 -1 0 -0 0 1 -0 3
1 528 275 350.94691109680201 -0 -0 1 -1 0 -0 0 1 -0 
Triangulations 0

TShapes 23
Ve
1e-07
523.5 275 351.946911096802
0 0

0101101
*
Ed
 1e-07 1 1 0
1  1 0 0 6.28318530717959
2  1 1 0 0 6.28318530717959
0

0101000
+23 0 -23 0 *
Ve
1e-07
523.5 275 350.946911096802
0 0

0101101
*
Ed
 1e-07 1 1 0
1  2 0 0 1
3  2 3CN 1 0 0 1
0

0101000
-23 0 +21 0 *
Ed
 1e-07 1 1 0
1  3 0 0 6.28318530717959
2  4 1 0 0 6.28318530717959
0

0101000
+21 0 -21 0 *
Wi

0101100
-22 0 +20 0 +19 0 -20 0 *
Fa
0  1e-07 1 0

0111000
+18 0 *
Wi

0101100
+22 0 *
Ve
1e-07
525 275 351.946911096802
0 0

0101101
*
Ed
 1e-07 1 1 0
1  4 0 0 6.28318530717959
2  5 3 0 0 6.28318530717959
0

0101000
+15 0 -15 0 *
Wi

0101100
-14 0 *
Fa
0  1e-07 2 0

0101000
+16 0 +13 0 *
Wi

0101100
+19 0 *
Ve
1e-07
525 275 350.946911096802
0 0

0101101
*
Ed
 1e-07 1 1 0
1  5 0 0 6.28318530717959
2  6 3 0 0 6.28318530717959
0

0101000
+10 0 -10 0 *
Wi

0101100
-9 0 *
Fa
0  1e-07 4 0

0101000
+11 0 +8 0 *
Ed
 1e-07 1 1 0
1  6 0 0 1
3  7 8CN 3 0 0 1
0

0101000
+10 0 -15 0 *
Wi

0101100
-14 0 +6 0 +9 0 -6 0 *
Fa
0  1e-07 3 0

0101000
+5 0 *
Sh

0101100
-17 0 -12 0 +7 0 +4 0 *
So

0100000
+3 0 *
Co

1100000
+2 0 *

+1 1 