DBRep_DrawableShape

CASCADE Topology V1, (c) Matra-Datavision
Locations 3
1
              1               0               0               0 
              0               1               0               0 
              0               0               1               0 
1
              1               0               0               0 
              0               1               0               0 
              0               0               1             6.5 
2  2 -1 0
Curve2ds 4
1 0 0 1 0 
1 0 6.5 1 0 
1 6.2831853071795862 -0 0 1 
1 0 -0 0 1 
Curves 21
1 520.49444650053488 245 342.04691109680203 -0 -0 1 
1 524.24722325026744 251.5 342.04691109680203 -0 -0 1 
1 520.49444650053488 245 342.04691109680203 0.50000000000000078 0.86602540378443826 -0 
1 520.49444650053488 245 342.04691109680203 0.50000000000000078 0.86602540378443826 -0 
1 524.24722325026744 238.5 342.04691109680203 -0 -0 1 
1 524.24722325026744 238.5 342.04691109680203 -0.50000000000000078 0.86602540378443826 -0 
1 524.24722325026744 238.5 342.04691109680203 -0.50000000000000078 0.86602540378443826 -0 
1 531.75277674973256 251.5 342.04691109680203 -0 -0 1 
1 524.24722325026744 251.5 342.04691109680203 1 -0 -0 
1 524.24722325026744 251.5 342.04691109680203 1 -0 -0 
1 531.75277674973256 238.5 342.04691109680203 -1 -0 -0 
1 531.75277674973256 251.5 342.04691109680203 0.50000000000000078 -0.86602540378443826 -0 
1 535.50555349946512 245 342.04691109680203 -0.49999999999999939 -0.86602540378443904 0 
2 528 245 342.04691109680203 0 -0 -1 -1 0 -0 0 1 -0 4.0499999999999998
1 531.75277674973256 238.5 342.04691109680203 -1 -0 -0 
1 531.75277674973256 251.5 342.04691109680203 0.50000000000000078 -0.86602540378443826 -0 
1 535.50555349946512 245 342.04691109680203 -0.49999999999999939 -0.86602540378443904 0 
2 528 245 348.54691109680203 0 -0 -1 -1 0 -0 0 1 -0 4.0499999999999998
1 531.75277674973256 238.5 342.04691109680203 -0 -0 1 
1 535.50555349946512 245 342.04691109680203 -0 -0 1 
1 523.95000000000005 245 342.04691109680203 -0 -0 1 
Polygon3D 0
PolygonOnTriangulations 0
Surfaces 9
1 520.49444650053488 245 342.04691109680203 0.86602540378443826 -0.50000000000000078 -0 0.50000000000000078 0.86602540378443826 -0 -0 -0 -1 
1 524.24722325026744 238.5 342.04691109680203 0.86602540378443826 0.50000000000000078 -0 -0.50000000000000078 0.86602540378443826 -0 -0 0 -1 
1 524.24722325026744 251.5 342.04691109680203 -0 -1 0 1 -0 -0 -0 -0 -1 
1 528 245.00000000000006 342.04691109680215 -0 -0 1 -1 0 -0 0 1 -0 
2 528 245 342.04691109680203 -0 -0 1 -1 0 -0 0 1 -0 4.0499999999999998
1 528 245.00000000000006 342.04691109680215 -0 -0 1 -1 0 -0 0 1 -0 
1 531.75277674973256 238.5 342.04691109680203 -0 1 -0 -1 -0 -0 -0 0 -1 
1 531.75277674973256 251.5 342.04691109680203 -0.86602540378443826 -0.50000000000000078 0 0.50000000000000078 -0.86602540378443826 -0 -0 -0 -1 
1 535.50555349946512 245 342.04691109680203 -0.86602540378443904 0.49999999999999939 -0 -0.49999999999999939 -0.86602540378443904 0 -0 -0 -1 
Triangulations 0

TShapes 58
Ve
1e-07
520.494446500535 245 342.046911096802
0 0

0101101
*
Ve
1e-07
520.494446500535 245 348.546911096802
0 0

0101101
*
Ed
 1e-07 1 1 0
1  1 0 0 6.5
0

0101000
+58 0 -57 0 *
Ve
1e-07
524.247223250267 251.5 342.046911096802
0 0

0101101
*
Ve
1e-07
524.247223250267 251.5 348.546911096802
0 0

0101101
*
Ed
 1e-07 1 1 0
1  2 0 0 6.5
0

0101000
+55 0 -54 0 *
Ed
 1e-07 1 1 0
1  3 0 0 7.50555349946514
0

0101000
+58 0 -55 0 *
Ed
 1e-07 1 1 0
1  4 0 0 7.50555349946514
0

0101000
+57 3 -54 3 *
Wi

0101100
+56 0 -53 0 -52 0 +51 2 *
Fa
0  1e-07 1 0

0101000
+50 0 *
Ve
1e-07
524.247223250267 238.5 342.046911096802
0 0

0101101
*
Ve
1e-07
524.247223250267 238.5 348.546911096802
0 0

0101101
*
Ed
 1e-07 1 1 0
1  5 0 0 6.5
0

0101000
+48 0 -47 0 *
Ed
 1e-07 1 1 0
1  6 0 0 7.50555349946514
0

0101000
+48 0 -58 0 *
Ed
 1e-07 1 1 0
1  7 0 0 7.50555349946514
0

0101000
+47 3 -57 3 *
Wi

0101100
+46 0 -56 0 -45 0 +44 2 *
Fa
0  1e-07 2 0

0101000
+43 0 *
Ve
1e-07
531.752776749733 251.5 342.046911096802
0 0

0101101
*
Ve
1e-07
531.752776749733 251.5 348.546911096802
0 0

0101101
*
Ed
 1e-07 1 1 0
1  8 0 0 6.5
0

0101000
+41 0 -40 0 *
Ed
 1e-07 1 1 0
1  9 0 0 7.50555349946512
0

0101000
+55 0 -41 0 *
Ed
 1e-07 1 1 0
1  10 0 0 7.50555349946512
0

0101000
+54 3 -40 3 *
Wi

0101100
+53 0 -39 0 -38 0 +37 2 *
Fa
0  1e-07 3 0

0101000
+36 0 *
Ve
1e-07
531.752776749733 238.5 342.046911096802
0 0

0101101
*
Ed
 1e-07 1 1 0
1  11 0 0 7.50555349946514
0

0101000
+34 0 -48 0 *
Ve
1e-07
535.505553499465 245 342.046911096802
0 0

0101101
*
Ed
 1e-07 1 1 0
1  12 0 0 7.50555349946514
0

0101000
+41 0 -32 0 *
Ed
 1e-07 1 1 0
1  13 0 0 7.50555349946513
0

0101000
+32 0 -34 0 *
Wi

0101100
+52 0 +45 0 +38 0 +33 0 +31 0 +30 0 *
Ve
1.00000113686838e-07
523.95 245 342.046911096802
0 0

0101101
*
Ed
 1.00000113686838e-07 1 1 0
1  14 0 0 6.28318530717959
2  1 5 0 0 6.28318530717959
0

0101000
+28 0 -28 0 *
Wi

0101100
-27 0 *
Fa
0  1e-07 4 0

0101000
+29 0 +26 0 *
Ve
1e-07
531.752776749733 238.5 348.546911096802
0 0

0101101
*
Ed
 1e-07 1 1 0
1  15 0 0 7.50555349946514
0

0101000
+24 3 -47 3 *
Ve
1e-07
535.505553499465 245 348.546911096802
0 0

0101101
*
Ed
 1e-07 1 1 0
1  16 0 0 7.50555349946514
0

0101000
+40 3 -22 3 *
Ed
 1e-07 1 1 0
1  17 0 0 7.50555349946513
0

0101000
+22 3 -24 3 *
Wi

0101100
+51 2 +44 2 +37 2 +23 2 +21 2 +20 2 *
Ve
1.00000113686838e-07
523.95 245 348.546911096802
0 0

0101101
*
Ed
 1.00000113686838e-07 1 1 0
1  18 0 0 6.28318530717959
2  2 5 0 0 6.28318530717959
0

0101000
+18 0 -18 0 *
Wi

0101100
-17 0 *
Fa
0  1e-07 6 2

0101000
+19 0 +16 0 *
Ed
 1e-07 1 1 0
1  19 0 0 6.5
0

0101000
+34 0 -24 0 *
Wi

0101100
+14 0 -46 0 -33 0 +23 2 *
Fa
0  1e-07 7 0

0101000
+13 0 *
Ed
 1e-07 1 1 0
1  20 0 0 6.5
0

0101000
+32 0 -22 0 *
Wi

0101100
+39 0 -11 0 -31 0 +21 2 *
Fa
0  1e-07 8 0

0101000
+10 0 *
Wi

0101100
+11 0 -14 0 -30 0 +20 2 *
Fa
0  1e-07 9 0

0101000
+8 0 *
Ed
 1e-07 1 1 0
1  21 0 0 6.5
3  3 4CN 5 0 0 6.5
0

0101000
+28 0 -18 0 *
Wi

0101100
-17 0 +6 0 +27 0 -6 0 *
Fa
0  1e-07 5 0

0101000
+5 0 *
Sh

0101100
+49 0 +42 0 +35 0 +25 0 -15 0 +12 0 +9 0 +7 0 +4 0 *
So

0100000
+3 0 *
Co

1100000
+2 0 *

+1 1 