DBRep_DrawableShape

CASCADE Topology V1, (c) Matra-Datavision
Locations 1
1
              1               0               0               0 
              0               1               0               0 
              0               0               1               0 
Curve2ds 48
1 0 1 1 0 
1 0 1 1 0 
1 0 16 1 0 
1 0 3.0103986446980739 1 0 
1 0 3.0103986446980739 1 0 
1 0 55 1 0 
1 0 37 1 0 
1 0 32 1 0 
1 0 32 1 0 
1 0 37 1 0 
1 0 67.222222222222229 1 0 
1 3.1415926535897931 2.6759099063982785 -1 0 
1 0 67.222222222222229 1 0 
1 9.4247779607693793 2.6759099063982785 -1 0 
1 6.2831853071795862 -0 0 1 
1 0 -0 0 1 
1 0 67.222222222222229 1 0 
1 3.1415926535897931 2.6759099063982785 -1 0 
1 0 67.222222222222229 1 0 
1 9.4247779607693793 2.6759099063982785 -1 0 
1 6.2831853071795862 -0 0 1 
1 0 -0 0 1 
1 0 0 1 0 
1 0 0 1 0 
1 6.2831853071795862 -0 0 1 
1 0 -0 0 1 
1 0 0 1 0 
1 6.2831853071795862 -0 0 1 
1 0 -0 0 1 
1 0 0 1 0 
1 0 48 1 0 
1 6.2831853071795862 -0 0 1 
1 0 -0 0 1 
1 0 0 1 0 
1 0 48 1 0 
1 6.2831853071795862 -0 0 1 
1 0 -0 0 1 
1 0 39 1 0 
1 6.2831853071795862 -0 0 1 
1 0 -0 0 1 
1 6.2831853071795862 -0 0 1 
1 0 -0 0 1 
1 6.2831853071795862 -0 0 1 
1 0 -0 0 1 
1 6.2831853071795862 -0 0 1 
1 0 -0 0 1 
1 6.2831853071795862 -0 0 1 
1 0 -0 0 1 
Curves 43
1 582 225 322.44691109680201 -0 -0 1 
1 582 225 340.44691109680201 0 1 -0 
1 582 225 322.44691109680201 0 1 -0 
1 582 295 322.44691109680201 -0 -0 1 
2 582 286 331.44691109680201 1 -0 -0 0 -0 1 -0 -1 0 2.5
2 582 234 331.44691109680201 1 -0 -0 0 -0 1 -0 -1 0 2.5
1 582 225 322.44691109680201 -1 0 -0 
1 514 225 322.44691109680201 -0 -0 1 
1 582 225 340.44691109680201 -1 0 -0 
1 582 295 340.44691109680201 -1 0 -0 
1 514 225 340.44691109680201 0 1 -0 
2 528 245 340.44691109680201 0 -0 -1 -1 0 -0 0 1 -0 6
2 562 260 340.44691109680201 0 -0 -1 -1 0 -0 0 1 -0 4.5
2 530 260 340.44691109680201 0 -0 -1 -1 0 -0 0 1 -0 4.5
2 528 275 340.44691109680201 0 -0 -1 -1 0 -0 0 1 -0 3.5
1 582 295 322.44691109680201 -1 0 -0 
1 514 225 322.44691109680201 0 1 -0 
2 528 245 322.44691109680201 0 -0 -1 -1 0 -0 0 1 -0 4.5
2 562 260 322.44691109680201 0 -0 -1 -1 0 -0 0 1 -0 2.25
2 530 260 322.44691109680201 0 -0 -1 -1 0 -0 0 1 -0 2.25
2 528 275 322.44691109680201 0 -0 -1 -1 0 -0 0 1 -0 3.5
1 514 295 322.44691109680201 -0 -0 1 
2 515.77777777777783 286 331.44691109680201 1 -0 -0 0 -0 1 -0 -1 0 2.5
2 515.77777777777783 286 331.44691109680201 1 -0 -0 0 -0 1 -0 -1 0 2.5
1 583 286 333.94691109680201 -1 -0 -0 
2 515.77777777777783 234 331.44691109680201 1 -0 -0 0 -0 1 -0 -1 0 2.5
2 515.77777777777783 234 331.44691109680201 1 -0 -0 0 -0 1 -0 -1 0 2.5
1 583 234 333.94691109680201 -1 -0 -0 
2 514 286 331.44691109680201 -1 0 0 -0 0 -1 -0 -1 -0 4.5
2 514 234 331.44691109680201 -1 0 0 -0 0 -1 -0 -1 -0 4.5
1 522 245 324.44691109680201 -0 -0 1 
2 528 245 324.44691109680201 0 -0 -1 -1 0 -0 0 1 -0 6
1 559.75 260 338.44691109680201 -0.74740931868365978 -1.8306248595576961e-16 0.66436383882991967 
2 562 260 338.44691109680201 0 -0 -1 -1 0 -0 0 1 -0 2.25
1 527.75 260 338.44691109680201 -0.74740931868365978 -1.8306248595576961e-16 0.66436383882991967 
2 530 260 338.44691109680201 0 -0 -1 -1 0 -0 0 1 -0 2.25
1 524.5 275 285.44691109680201 -0 -0 1 
2 528 245 324.44691109680201 0 -0 -1 -1 0 -0 0 1 -0 4.5
1 523.5 245 285.44691109680201 -0 -0 1 
1 559.75 260 290.44691109680201 -0 -0 1 
1 527.75 260 290.44691109680201 -0 -0 1 
1 514 286 326.94691109680201 0.66436383882991967 -1.8306248595576961e-16 0.74740931868365978 
1 514 234 326.94691109680201 0.66436383882991967 -1.8306248595576961e-16 0.74740931868365978 
Polygon3D 0
PolygonOnTriangulations 0
Surfaces 18
1 582 225 322.44691109680201 -1 0 -0 -0 -0 1 -0 -1 0 
2 583 286 331.44691109680201 -1 -0 -0 0 -0 1 -0 -1 0 2.5
2 583 234 331.44691109680201 -1 -0 -0 0 -0 1 -0 -1 0 2.5
1 582 225 322.44691109680201 0 1 -0 -0 -0 1 -1 0 -0 
1 582 225 340.44691109680201 -0 -0 1 -1 0 -0 0 1 -0 
2 528 245 324.44691109680201 -0 -0 1 -1 0 -0 0 1 -0 6
3 562 260 338.44691109680201 -0 -0 1 -1 0 -0 0 1 -0 2.25
0.84415398611317105
3 530 260 338.44691109680201 -0 -0 1 -1 0 -0 0 1 -0 2.25
0.84415398611317105
2 528 275 285.44691109680201 -0 -0 1 -1 0 -0 0 1 -0 3.5
1 582 225 322.44691109680201 -0 -0 1 -1 0 -0 0 1 -0 
2 528 245 285.44691109680201 -0 -0 1 -1 0 -0 0 1 -0 4.5
2 562 260 290.44691109680201 -0 -0 1 -1 0 -0 0 1 -0 2.25
2 530 260 290.44691109680201 -0 -0 1 -1 0 -0 0 1 -0 2.25
1 582 295 322.44691109680201 0 1 -0 -0 -0 1 -1 0 -0 
3 514 286 331.44691109680201 1 -0 -0 -0 0 -1 -0 -1 -0 4.5
-0.84415398611317105
3 514 234 331.44691109680201 1 -0 -0 -0 0 -1 -0 -1 -0 4.5
-0.84415398611317105
1 514 225 322.44691109680201 -1 0 -0 -0 -0 1 -0 -1 0 
1 528 245 324.44691109680201 -0 -0 1 -1 0 -0 0 1 -0 
Triangulations 0

TShapes 123
Ve
1e-07
582 225 340.446911096802
0 0

0101101
*
Ve
1e-07
582 225 322.446911096802
0 0

0101101
*
Ed
 1e-07 1 1 0
1  1 0 0 18
0

0101000
-123 0 +122 0 *
Ve
1e-07
582 295 340.446911096802
0 0

0101101
*
Ed
 1e-07 1 1 0
1  2 0 0 70
0

0101000
-120 0 +123 0 *
Ve
1e-07
582 295 322.446911096802
0 0

0101101
*
Ed
 1e-07 1 1 0
1  3 0 0 70
0

0101000
-118 0 +122 0 *
Ed
 1e-07 1 1 0
1  4 0 0 18
0

0101000
-120 0 +118 0 *
Wi

0101100
-121 0 -119 0 +117 0 +116 0 *
Ve
1e-07
582 286 333.946911096802
0 0

0101101
*
Ed
 1e-07 1 1 0
1  5 0 0 6.28318530717959
2  1 2 0 0 6.28318530717959
0

0101100
+114 0 -114 0 *
Wi

0101100
-113 0 *
Ve
1e-07
582 234 333.946911096802
0 0

0101101
*
Ed
 1e-07 1 1 0
1  6 0 0 6.28318530717959
2  2 3 0 0 6.28318530717959
0

0101100
+111 0 -111 0 *
Wi

0101100
-110 0 *
Fa
0  1e-07 1 0

0101000
+115 0 +112 0 +109 0 *
Ve
1e-07
514 225 322.446911096802
0 0

0101101
*
Ed
 1e-07 1 1 0
1  7 0 0 68
0

0101000
-107 0 +122 0 *
Ve
1e-07
514 225 340.446911096802
0 0

0101101
*
Ed
 1e-07 1 1 0
1  8 0 0 18
0

0101000
-105 0 +107 0 *
Ed
 1e-07 1 1 0
1  9 0 0 68
0

0101000
-105 0 +123 0 *
Wi

0101100
-106 0 -104 0 +103 0 +121 0 *
Fa
0  1e-07 4 0

0111000
+102 0 *
Ve
1e-07
514 295 340.446911096802
0 0

0101101
*
Ed
 1e-07 1 1 0
1  10 0 0 68
0

0101000
-100 0 +120 0 *
Ed
 1e-07 1 1 0
1  11 0 0 70
0

0101000
-100 0 +105 0 *
Wi

0101100
-119 0 -99 0 +103 0 +98 0 *
Ve
1e-07
522 245 340.446911096802
0 0

0101101
*
Ed
 1e-07 1 1 0
1  12 0 0 6.28318530717959
2  3 6 0 0 6.28318530717959
0

0101100
+96 0 -96 0 *
Wi

0101100
-95 0 *
Ve
1e-07
557.5 260 340.446911096802
0 0

0101101
*
Ed
 1e-07 1 1 0
1  13 0 0 6.28318530717959
2  4 7 0 0 6.28318530717959
0

0101000
+93 0 -93 0 *
Wi

0101100
-92 0 *
Ve
1e-07
525.5 260 340.446911096802
0 0

0101101
*
Ed
 1e-07 1 1 0
1  14 0 0 6.28318530717959
2  5 8 0 0 6.28318530717959
0

0101000
+90 0 -90 0 *
Wi

0101100
-89 0 *
Ve
1e-07
524.5 275 340.446911096802
0 0

0101101
*
Ed
 1e-07 1 1 0
1  15 0 0 6.28318530717959
2  6 9 0 0 6.28318530717959
0

0101100
+87 0 -87 0 *
Wi

0101100
-86 0 *
Fa
0  1e-07 5 0

0101000
+97 0 +94 0 +91 0 +88 0 +85 0 *
Ve
1e-07
514 295 322.446911096802
0 0

0101101
*
Ed
 1e-07 1 1 0
1  16 0 0 68
0

0101000
-83 0 +118 0 *
Ed
 1e-07 1 1 0
1  17 0 0 70
0

0101000
-83 0 +107 0 *
Wi

0101100
-117 0 -82 0 +106 0 +81 0 *
Ve
1e-07
523.5 245 322.446911096802
0 0

0101101
*
Ed
 1e-07 1 1 0
1  18 0 0 6.28318530717959
2  7 11 0 0 6.28318530717959
0

0101100
+79 0 -79 0 *
Wi

0101100
-78 0 *
Ve
1e-07
559.75 260 322.446911096802
0 0

0101101
*
Ed
 1e-07 1 1 0
1  19 0 0 6.28318530717959
2  8 12 0 0 6.28318530717959
0

0101100
+76 0 -76 0 *
Wi

0101100
-75 0 *
Ve
1e-07
527.75 260 322.446911096802
0 0

0101101
*
Ed
 1e-07 1 1 0
1  20 0 0 6.28318530717959
2  9 13 0 0 6.28318530717959
0

0101100
+73 0 -73 0 *
Wi

0101100
-72 0 *
Ve
1e-07
524.5 275 322.446911096802
0 0

0101101
*
Ed
 1e-07 1 1 0
1  21 0 0 6.28318530717959
2  10 9 0 0 6.28318530717959
0

0101100
+70 0 -70 0 *
Wi

0101100
-69 0 *
Fa
0  1e-07 10 0

0101000
+80 0 +77 0 +74 0 +71 0 +68 0 *
Ed
 1e-07 1 1 0
1  22 0 0 18
0

0101000
-100 0 +83 0 *
Wi

0101100
-82 0 -66 0 +99 0 +116 0 *
Fa
0  1e-07 14 0

0111000
+65 0 *
Ve
1.00000014210855e-07
515.777777777778 286 333.946911096802
0 0

0101101
*
Ve
1e-07
515.777777777778 286 328.946911096802
0 0

0101101
*
Ed
 1e-07 1 1 0
1  23 0 0 3.14159265358979
2  11 2 0 0 3.14159265358979
2  12 15 0 0 3.14159265358979
0

0101000
+63 0 -62 0 *
Ed
 1e-07 1 1 0
1  24 0 3.14159265358979 6.28318530717959
2  13 2 0 3.14159265358979 6.28318530717959
2  14 15 0 3.14159265358979 6.28318530717959
0

0101000
+62 0 -63 0 *
Ed
 1e-07 1 1 0
1  25 0 1 67.2222222222222
3  15 16CN 2 0 1 67.2222222222222
0

0101000
+114 0 -63 0 *
Wi

0101100
-61 0 -60 0 +59 0 +113 0 -59 0 *
Fa
0  1e-07 2 0

0101000
+58 0 *
Ve
1.00000014210855e-07
515.777777777778 234 333.946911096802
0 0

0101101
*
Ve
1e-07
515.777777777778 234 328.946911096802
0 0

0101101
*
Ed
 1e-07 1 1 0
1  26 0 0 3.14159265358979
2  17 3 0 0 3.14159265358979
2  18 16 0 0 3.14159265358979
0

0101000
+56 0 -55 0 *
Ed
 1e-07 1 1 0
1  27 0 3.14159265358979 6.28318530717959
2  19 3 0 3.14159265358979 6.28318530717959
2  20 16 0 3.14159265358979 6.28318530717959
0

0101000
+55 0 -56 0 *
Ed
 1e-07 1 1 0
1  28 0 1 67.2222222222222
3  21 22CN 3 0 1 67.2222222222222
0

0101000
+111 0 -56 0 *
Wi

0101100
-54 0 -53 0 +52 0 +110 0 -52 0 *
Fa
0  1e-07 3 0

0101000
+51 0 *
Wi

0101100
-104 0 -98 0 +81 0 +66 0 *
Ve
1e-07
514 286 326.946911096802
0 0

0101101
*
Ed
 1e-07 1 1 0
1  29 0 0 6.28318530717959
2  23 15 0 0 6.28318530717959
0

0101000
+48 0 -48 0 *
Wi

0101100
+47 0 *
Ve
1e-07
514 234 326.946911096802
0 0

0101101
*
Ed
 1e-07 1 1 0
1  30 0 0 6.28318530717959
2  24 16 0 0 6.28318530717959
0

0101000
+45 0 -45 0 *
Wi

0101100
+44 0 *
Fa
0  1e-07 17 0

0101000
+49 0 +46 0 +43 0 *
Ve
1e-07
522 245 324.446911096802
0 0

0101101
*
Ed
 1e-07 1 1 0
1  31 0 0 16
3  25 26CN 6 0 0 16
0

0101000
+41 0 -96 0 *
Ed
 1e-07 1 1 0
1  32 0 0 6.28318530717959
2  27 6 0 0 6.28318530717959
0

0101000
+41 0 -41 0 *
Wi

0101100
-95 0 +40 0 +39 0 -40 0 *
Fa
0  1e-07 6 0

0101000
+38 0 *
Ve
1.00000007105427e-07
559.75 260 338.446911096802
0 0

0101101
*
Ed
 1e-07 1 1 0
1  33 0 0 3.01039864469807
3  28 29CN 7 0 0 3.01039864469807
0

0101000
+36 0 -93 0 *
Ed
 1.00000007105427e-07 1 1 0
1  34 0 0 6.28318530717959
2  30 7 0 0 6.28318530717959
2  31 12 0 0 6.28318530717959
0

0101000
+36 0 -36 0 *
Wi

0101100
-92 0 +35 0 +34 0 -35 0 *
Fa
0  1e-07 7 0

0101000
+33 0 *
Ve
1e-07
527.75 260 338.446911096802
0 0

0101101
*
Ed
 1e-07 1 1 0
1  35 0 0 3.01039864469807
3  32 33CN 8 0 0 3.01039864469807
0

0101000
+31 0 -90 0 *
Ed
 1e-07 1 1 0
1  36 0 0 6.28318530717959
2  34 8 0 0 6.28318530717959
2  35 13 0 0 6.28318530717959
0

0101000
+31 0 -31 0 *
Wi

0101100
-89 0 +30 0 +29 0 -30 0 *
Fa
0  1e-07 8 0

0101000
+28 0 *
Ed
 1e-07 1 1 0
1  37 0 37 55
3  36 37CN 9 0 37 55
0

0101000
+70 0 -87 0 *
Wi

0101100
-86 0 +26 0 +69 0 -26 0 *
Fa
0  1e-07 9 0

0101000
+25 0 *
Ve
1e-07
523.5 245 324.446911096802
0 0

0101101
*
Ed
 1e-07 1 1 0
1  38 0 0 6.28318530717959
2  38 11 0 0 6.28318530717959
0

0101100
+23 0 -23 0 *
Ed
 1e-07 1 1 0
1  39 0 37 39
3  39 40CN 11 0 37 39
0

0101000
+79 0 -23 0 *
Wi

0101100
-22 0 +21 0 +78 0 -21 0 *
Fa
0  1e-07 11 0

0101000
+20 0 *
Ed
 1e-07 1 1 0
1  40 0 32 48
3  41 42CN 12 0 32 48
0

0101000
+76 0 -36 0 *
Wi

0101100
-34 0 +18 0 +75 0 -18 0 *
Fa
0  1e-07 12 0

0101000
+17 0 *
Ed
 1e-07 1 1 0
1  41 0 32 48
3  43 44CN 13 0 32 48
0

0101000
+73 0 -31 0 *
Wi

0101100
-29 0 +15 0 +72 0 -15 0 *
Fa
0  1e-07 13 0

0101000
+14 0 *
Ed
 1e-07 1 1 0
1  42 0 0 2.67590990639828
3  45 46CN 15 0 0 2.67590990639828
0

0101000
+48 0 -62 0 *
Wi

0101100
+61 0 +60 0 +12 0 +47 0 -12 0 *
Fa
0  1e-07 15 0

0101000
+11 0 *
Ed
 1e-07 1 1 0
1  43 0 0 2.67590990639828
3  47 48CN 16 0 0 2.67590990639828
0

0101000
+45 0 -55 0 *
Wi

0101100
+54 0 +53 0 +9 0 +44 0 -9 0 *
Fa
0  1e-07 16 0

0101000
+8 0 *
Wi

0101100
+39 0 *
Wi

0101100
-22 0 *
Fa
0  1e-07 18 0

0101000
+6 0 +5 0 *
Sh

0101100
+108 0 +101 0 -84 0 +67 0 -64 0 +57 0 +50 0 -42 0 +37 0 +32 0 
+27 0 +24 0 +19 0 +16 0 +13 0 +10 0 +7 0 -4 0 *
So

0100000
+3 0 *
Co

0100000
+2 0 *

+1 1 