DBRep_DrawableShape

CASCADE Topology V1, (c) Matra-Datavision
Locations 0
Curve2ds 72
1 0 0 1 0 
1 0 0 1 0 
1 18 0 0 -1 
1 0 0 0 1 
1 0 0 0 -1 
1 0 0 0 1 
1 0 -70 1 0 
1 0 0 1 0 
2 9 -61 1 0 -0 1 2.5
1 0 1 1 0 
2 9 -9 1 0 -0 1 2.5
1 0 1 1 0 
1 0 0 0 1 
1 0 0 1 0 
1 0 0 1 0 
1 0 68 1 0 
1 18 0 0 1 
1 0 0 1 0 
1 18 0 0 1 
1 0 70 1 0 
1 18 0 0 -1 
1 68 0 0 1 
2 54 20 1 0 -0 1 4.5
1 0 19 1 0 
2 20 35 1 0 -0 1 2.25
1 0 14 1 0 
2 52 35 1 0 -0 1 2.25
1 0 14 1 0 
2 54 50 1 0 -0 1 3.5
1 0 19 1 0 
1 0 0 0 1 
1 0 70 1 0 
1 0 0 0 -1 
1 68 0 0 1 
2 54 20 1 0 -0 1 4.5
1 0 1 1 0 
2 54 50 1 0 -0 1 3.5
1 0 1 1 0 
1 0 -70 1 0 
1 0 68 1 0 
1 0 67.222222222222229 1 0 
1 3.1415926535897931 2.6759099063982785 -1 0 
1 0 67.222222222222229 1 0 
1 9.4247779607693793 2.6759099063982785 -1 0 
1 6.2831853071795862 -0 0 1 
1 0 -0 0 1 
1 0 67.222222222222229 1 0 
1 3.1415926535897931 2.6759099063982785 -1 0 
1 0 67.222222222222229 1 0 
1 9.4247779607693793 2.6759099063982785 -1 0 
1 6.2831853071795862 -0 0 1 
1 0 -0 0 1 
1 0 0 1 0 
2 0 0 1 0 -0 1 4.5
1 0 0 1 0 
2 0 0 1 0 -0 1 4.5
1 6.2831853071795862 -0 0 1 
1 0 -0 0 1 
1 6.2831853071795862 -0 0 1 
1 0 -0 0 1 
1 0 0 1 0 
2 0 0 1 0 -0 1 2.25
1 6.2831853071795862 -0 0 1 
1 0 -0 0 1 
1 0 0 1 0 
2 0 0 1 0 -0 1 2.25
1 6.2831853071795862 -0 0 1 
1 0 -0 0 1 
1 6.2831853071795862 -0 0 1 
1 0 -0 0 1 
1 6.2831853071795862 -0 0 1 
1 0 -0 0 1 
Curves 36
1 18 225 286.44691109680201 0 0 1 
1 18 225 304.44691109680201 -0 1 0 
1 18 225 286.44691109680201 -0 1 0 
1 18 295 286.44691109680201 0 0 1 
2 18 286 295.44691109680201 1 0 0 -0 0 1 0 -1 0 2.5
2 18 234 295.44691109680201 1 0 0 -0 0 1 0 -1 0 2.5
1 18 225 286.44691109680201 1 0 -0 
1 86 225 286.44691109680201 0 0 1 
1 18 225 304.44691109680201 1 0 -0 
1 18 295 304.44691109680201 1 0 -0 
1 86 225 304.44691109680201 -0 1 0 
2 72 245 304.44691109680201 0 0 1 1 0 -0 -0 1 0 4.5
2 38 260 304.44691109680201 0 0 1 1 0 -0 -0 1 0 2.25
2 70 260 304.44691109680201 0 0 1 1 0 -0 -0 1 0 2.25
2 72 275 304.44691109680201 0 0 1 1 0 -0 -0 1 0 3.5
1 18 295 286.44691109680201 1 0 -0 
1 86 225 286.44691109680201 -0 1 0 
2 72 245 286.44691109680201 0 0 1 1 0 -0 -0 1 0 4.5
2 72 275 286.44691109680201 0 0 1 1 0 -0 -0 1 0 3.5
1 86 295 286.44691109680201 0 0 1 
2 84.222222222222229 286 295.44691109680201 1 0 0 -0 0 1 0 -1 0 2.5
2 84.222222222222229 286 295.44691109680201 1 0 0 -0 0 1 0 -1 0 2.5
1 17 286 297.94691109680201 1 0 0 
2 84.222222222222229 234 295.44691109680201 1 0 0 -0 0 1 0 -1 0 2.5
2 84.222222222222229 234 295.44691109680201 1 0 0 -0 0 1 0 -1 0 2.5
1 17 234 297.94691109680201 1 0 0 
2 86 286 295.44691109680201 -1 0 0 0 0 -1 -0 -1 -0 4.5
2 86 234 295.44691109680201 -1 0 0 0 0 -1 -0 -1 -0 4.5
1 76.5 245 285.44691109680201 0 0 1 
1 40.25 260 290.44691109680201 0 0 1 
2 38 260 290.44691109680201 0 0 1 1 0 -0 -0 1 0 2.25
1 72.25 260 290.44691109680201 0 0 1 
2 70 260 290.44691109680201 0 0 1 1 0 -0 -0 1 0 2.25
1 75.5 275 285.44691109680201 0 0 1 
1 86 286 290.94691109680201 -0.66436383882991967 -1.8306248595576961e-16 0.74740931868365978 
1 86 234 290.94691109680201 -0.66436383882991967 -1.8306248595576961e-16 0.74740931868365978 
Polygon3D 0
PolygonOnTriangulations 0
Surfaces 18
1 18 225 286.44691109680201 1 0 -0 0 0 1 0 -1 0 
1 18 225 286.44691109680201 -0 1 0 0 0 1 1 0 -0 
1 18 225 304.44691109680201 0 0 1 1 0 -0 -0 1 0 
1 18 225 286.44691109680201 0 0 1 1 0 -0 -0 1 0 
1 18 295 286.44691109680201 -0 1 0 0 0 1 1 0 -0 
2 17 286 295.44691109680201 1 0 0 -0 0 1 0 -1 0 2.5
2 17 234 295.44691109680201 1 0 0 -0 0 1 0 -1 0 2.5
1 86 225 286.44691109680201 1 0 -0 0 0 1 0 -1 0 
2 72 245 285.44691109680201 0 0 1 1 0 -0 -0 1 0 4.5
2 38 260 290.44691109680201 0 0 1 1 0 -0 -0 1 0 2.25
2 70 260 290.44691109680201 0 0 1 1 0 -0 -0 1 0 2.25
2 72 275 285.44691109680201 0 0 1 1 0 -0 -0 1 0 3.5
3 86 286 295.44691109680201 -1 0 0 0 0 -1 -0 -1 -0 4.5
-0.84415398611317105
3 86 234 295.44691109680201 -1 0 0 0 0 -1 -0 -1 -0 4.5
-0.84415398611317105
1 86 286 295.44691109680201 -1 0 0 0 0 -1 -0 -1 -0 
1 86 234 295.44691109680201 -1 0 0 0 0 -1 -0 -1 -0 
1 38 260 290.44691109680201 0 0 1 1 0 -0 -0 1 0 
1 70 260 290.44691109680201 0 0 1 1 0 -0 -0 1 0 
Triangulations 0

TShapes 105
Ve
1e-07
18 225 304.446911096802
0 0

0101101
*
Ve
1e-07
18 225 286.446911096802
0 0

0101101
*
Ed
 1e-07 1 1 0
1  1 0 0 18
2  1 1 0 0 18
2  2 2 0 0 18
0

0101000
-105 0 +104 0 *
Ve
1e-07
18 295 304.446911096802
0 0

0101101
*
Ed
 1e-07 1 1 0
1  2 0 0 70
2  3 1 0 0 70
2  4 3 0 0 70
0

0101000
-102 0 +105 0 *
Ve
1e-07
18 295 286.446911096802
0 0

0101101
*
Ed
 1e-07 1 1 0
1  3 0 0 70
2  5 1 0 0 70
2  6 4 0 0 70
0

0101000
-100 0 +104 0 *
Ed
 1e-07 1 1 0
1  4 0 0 18
2  7 1 0 0 18
2  8 5 0 0 18
0

0101000
-102 0 +100 0 *
Wi

0101100
-103 0 -101 0 +99 0 +98 0 *
Ve
1e-07
18 286 297.946911096802
0 0

0101101
*
Ed
 1e-07 1 1 0
1  5 0 0 6.28318530717959
2  9 1 0 0 6.28318530717959
2  10 6 0 0 6.28318530717959
0

0101100
+96 0 -96 0 *
Wi

0101100
-95 0 *
Ve
1e-07
18 234 297.946911096802
0 0

0101101
*
Ed
 1e-07 1 1 0
1  6 0 0 6.28318530717959
2  11 1 0 0 6.28318530717959
2  12 7 0 0 6.28318530717959
0

0101100
+93 0 -93 0 *
Wi

0101100
-92 0 *
Fa
0  1e-07 1 0

0101000
+97 0 +94 0 +91 0 *
Ve
1e-07
86 225 286.446911096802
0 0

0101101
*
Ed
 1e-07 1 1 0
1  7 0 0 68
2  13 2 0 0 68
2  14 4 0 0 68
0

0101000
-89 0 +104 0 *
Ve
1e-07
86 225 304.446911096802
0 0

0101101
*
Ed
 1e-07 1 1 0
1  8 0 0 18
2  15 8 0 0 18
2  16 2 0 0 18
0

0101000
-87 0 +89 0 *
Ed
 1e-07 1 1 0
1  9 0 0 68
2  17 2 0 0 68
2  18 3 0 0 68
0

0101000
-87 0 +105 0 *
Wi

0101100
-88 0 -86 0 +85 0 +103 0 *
Fa
0  1e-07 2 0

0111000
+84 0 *
Ve
1e-07
86 295 304.446911096802
0 0

0101101
*
Ed
 1e-07 1 1 0
1  10 0 0 68
2  19 5 0 0 68
2  20 3 0 0 68
0

0101000
-82 0 +102 0 *
Ed
 1e-07 1 1 0
1  11 0 0 70
2  21 8 0 0 70
2  22 3 0 0 70
0

0101000
-82 0 +87 0 *
Wi

0101100
-101 0 -81 0 +85 0 +80 0 *
Ve
1e-07
76.5 245 304.446911096802
0 0

0101101
*
Ed
 1e-07 1 1 0
1  12 0 0 6.28318530717959
2  23 3 0 0 6.28318530717959
2  24 9 0 0 6.28318530717959
0

0101100
+78 0 -78 0 *
Wi

0101100
-77 0 *
Ve
1e-07
40.25 260 304.446911096802
0 0

0101101
*
Ed
 1e-07 1 1 0
1  13 0 0 6.28318530717959
2  25 3 0 0 6.28318530717959
2  26 10 0 0 6.28318530717959
0

0101100
+75 0 -75 0 *
Wi

0101100
-74 0 *
Ve
1e-07
72.25 260 304.446911096802
0 0

0101101
*
Ed
 1e-07 1 1 0
1  14 0 0 6.28318530717959
2  27 3 0 0 6.28318530717959
2  28 11 0 0 6.28318530717959
0

0101100
+72 0 -72 0 *
Wi

0101100
-71 0 *
Ve
1e-07
75.5 275 304.446911096802
0 0

0101101
*
Ed
 1e-07 1 1 0
1  15 0 0 6.28318530717959
2  29 3 0 0 6.28318530717959
2  30 12 0 0 6.28318530717959
0

0101100
+69 0 -69 0 *
Wi

0101100
-68 0 *
Fa
0  1e-07 3 0

0101000
+79 0 +76 0 +73 0 +70 0 +67 0 *
Ve
1e-07
86 295 286.446911096802
0 0

0101101
*
Ed
 1e-07 1 1 0
1  16 0 0 68
2  31 5 0 0 68
2  32 4 0 0 68
0

0101000
-65 0 +100 0 *
Ed
 1e-07 1 1 0
1  17 0 0 70
2  33 8 0 0 70
2  34 4 0 0 70
0

0101000
-65 0 +89 0 *
Wi

0101100
-99 0 -64 0 +88 0 +63 0 *
Ve
1e-07
76.5 245 286.446911096802
0 0

0101101
*
Ed
 1e-07 1 1 0
1  18 0 0 6.28318530717959
2  35 4 0 0 6.28318530717959
2  36 9 0 0 6.28318530717959
0

0101100
+61 0 -61 0 *
Wi

0101100
-60 0 *
Ve
1e-07
75.5 275 286.446911096802
0 0

0101101
*
Ed
 1e-07 1 1 0
1  19 0 0 6.28318530717959
2  37 4 0 0 6.28318530717959
2  38 12 0 0 6.28318530717959
0

0101100
+58 0 -58 0 *
Wi

0101100
-57 0 *
Fa
0  1e-07 4 0

0101000
+62 0 +59 0 +56 0 *
Ed
 1e-07 1 1 0
1  20 0 0 18
2  39 8 0 0 18
2  40 5 0 0 18
0

0101000
-82 0 +65 0 *
Wi

0101100
-64 0 -54 0 +81 0 +98 0 *
Fa
0  1e-07 5 0

0111000
+53 0 *
Ve
1.00000014210855e-07
84.2222222222222 286 297.946911096802
0 0

0101101
*
Ve
1e-07
84.2222222222222 286 292.946911096802
0 0

0101101
*
Ed
 1e-07 1 1 0
1  21 0 0 3.14159265358979
2  41 6 0 0 3.14159265358979
2  42 13 0 0 3.14159265358979
0

0101000
+51 0 -50 0 *
Ed
 1e-07 1 1 0
1  22 0 3.14159265358979 6.28318530717959
2  43 6 0 3.14159265358979 6.28318530717959
2  44 13 0 3.14159265358979 6.28318530717959
0

0101000
+50 0 -51 0 *
Ed
 1e-07 1 1 0
1  23 0 1 67.2222222222222
3  45 46CN 6 0 1 67.2222222222222
0

0101000
+96 0 -51 0 *
Wi

0101100
-49 0 -48 0 +47 0 +95 0 -47 0 *
Fa
0  1e-07 6 0

0101000
+46 0 *
Ve
1.00000014210855e-07
84.2222222222222 234 297.946911096802
0 0

0101101
*
Ve
1e-07
84.2222222222222 234 292.946911096802
0 0

0101101
*
Ed
 1e-07 1 1 0
1  24 0 0 3.14159265358979
2  47 7 0 0 3.14159265358979
2  48 14 0 0 3.14159265358979
0

0101000
+44 0 -43 0 *
Ed
 1e-07 1 1 0
1  25 0 3.14159265358979 6.28318530717959
2  49 7 0 3.14159265358979 6.28318530717959
2  50 14 0 3.14159265358979 6.28318530717959
0

0101000
+43 0 -44 0 *
Ed
 1e-07 1 1 0
1  26 0 1 67.2222222222222
3  51 52CN 7 0 1 67.2222222222222
0

0101000
+93 0 -44 0 *
Wi

0101100
-42 0 -41 0 +40 0 +92 0 -40 0 *
Fa
0  1e-07 7 0

0101000
+39 0 *
Wi

0101100
-86 0 -80 0 +63 0 +54 0 *
Ve
1e-07
86 286 290.946911096802
0 0

0101101
*
Ed
 1e-07 1 1 0
1  27 0 0 6.28318530717959
2  53 13 0 0 6.28318530717959
2  54 15 0 0 6.28318530717959
0

0101000
+36 0 -36 0 *
Wi

0101100
+35 0 *
Ve
1e-07
86 234 290.946911096802
0 0

0101101
*
Ed
 1e-07 1 1 0
1  28 0 0 6.28318530717959
2  55 14 0 0 6.28318530717959
2  56 16 0 0 6.28318530717959
0

0101000
+33 0 -33 0 *
Wi

0101100
+32 0 *
Fa
0  1e-07 8 0

0101000
+37 0 +34 0 +31 0 *
Ed
 1e-07 1 1 0
1  29 0 1 19
3  57 58CN 9 0 1 19
0

0101000
+61 0 -78 0 *
Wi

0101100
-77 0 +29 0 +60 0 -29 0 *
Fa
0  1e-07 9 0

0101000
+28 0 *
Ve
1e-07
40.25 260 290.446911096802
0 0

0101101
*
Ed
 1e-07 1 1 0
1  30 0 0 14
3  59 60CN 10 0 0 14
0

0101000
+26 0 -75 0 *
Ed
 1e-07 1 1 0
1  31 0 0 6.28318530717959
2  61 10 0 0 6.28318530717959
2  62 17 0 0 6.28318530717959
0

0101000
+26 0 -26 0 *
Wi

0101100
-74 0 +25 0 +24 0 -25 0 *
Fa
0  1e-07 10 0

0101000
+23 0 *
Ve
1e-07
72.25 260 290.446911096802
0 0

0101101
*
Ed
 1e-07 1 1 0
1  32 0 0 14
3  63 64CN 11 0 0 14
0

0101000
+21 0 -72 0 *
Ed
 1e-07 1 1 0
1  33 0 0 6.28318530717959
2  65 11 0 0 6.28318530717959
2  66 18 0 0 6.28318530717959
0

0101000
+21 0 -21 0 *
Wi

0101100
-71 0 +20 0 +19 0 -20 0 *
Fa
0  1e-07 11 0

0101000
+18 0 *
Ed
 1e-07 1 1 0
1  34 0 1 19
3  67 68CN 12 0 1 19
0

0101000
+58 0 -69 0 *
Wi

0101100
-68 0 +16 0 +57 0 -16 0 *
Fa
0  1e-07 12 0

0101000
+15 0 *
Ed
 1e-07 1 1 0
1  35 0 0 2.67590990639828
3  69 70CN 13 0 0 2.67590990639828
0

0101000
+36 0 -50 0 *
Wi

0101100
+49 0 +48 0 +13 0 +35 0 -13 0 *
Fa
0  1e-07 13 0

0101000
+12 0 *
Ed
 1e-07 1 1 0
1  36 0 0 2.67590990639828
3  71 72CN 14 0 0 2.67590990639828
0

0101000
+33 0 -43 0 *
Wi

0101100
+42 0 +41 0 +10 0 +32 0 -10 0 *
Fa
0  1e-07 14 0

0101000
+9 0 *
Wi

0101100
-24 0 *
Fa
0  1e-07 17 0

0111000
-7 0 *
Wi

0101100
-19 0 *
Fa
0  1e-07 18 0

0111000
-5 0 *
Sh

0101100
-90 0 -83 0 +66 0 -55 0 +52 0 -45 0 -38 0 +30 0 -27 0 -22 0 
-17 0 -14 0 -11 0 -8 0 +6 0 +4 0 *
So

0100000
+3 0 *
Co

0100000
+2 0 *

+1 0 