DBRep_DrawableShape

CASCADE Topology V1, (c) Matra-Datavision
Locations 6
1
              1               0               0               0 
              0               1               0               0 
              0               0               1               0 
1
             -1               0 -1.22464679914735e-16               0 
              0               1               0               0 
1.22464679914735e-16               0              -1               0 
1
              1               0               0              86 
              0               1               0            -225 
              0               0               1 304.446911096802 
2  1 1 2 1 3 1 0
2  3 -1 2 -1 1 -1 0
2  1 -1 0
Curve2ds 12
2 9 -9 1 0 -0 1 2.5
1 0 1 1 0 
1 6.2831853071795862 -0 0 1 
1 0 -0 0 1 
1 0 67.222222222222229 1 0 
1 3.1415926535897931 2.6759099063982785 -1 0 
1 0 67.222222222222229 1 0 
1 9.4247779607693793 2.6759099063982785 -1 0 
1 6.2831853071795862 -0 0 1 
1 0 -0 0 1 
2 9 -9 -1 0 0 1 4.5
1 0 0 1 0 
Curves 6
2 18 234 295.44691109680201 1 0 0 -0 0 1 0 -1 0 2.5
1 17 234 297.94691109680201 1 0 0 
2 84.222222222222229 234 295.44691109680201 1 0 0 -0 0 1 0 -1 0 2.5
2 84.222222222222229 234 295.44691109680201 1 0 0 -0 0 1 0 -1 0 2.5
1 86 234 290.94691109680201 -0.66436383882991967 -1.7999999999999999e-16 0.74740931868365978 
2 86 234 295.44691109680201 -1 0 0 0 0 -1 -0 -1 -0 4.5
Polygon3D 0
PolygonOnTriangulations 0
Surfaces 6
1 68 0 0 -1 0 0 0 1 0 0 0 -1 
1 18 225 286.44691109680201 1 0 -0 0 0 1 0 -1 0 
2 17 234 295.44691109680201 1 0 0 -0 0 1 0 -1 0 2.5
3 86 234 295.44691109680201 -1 0 0 0 0 -1 -0 -1 -0 4.5
-0.84415398611317105
1 86 225 286.44691109680201 1 0 -0 0 0 1 0 -1 0 
1 0 0 0 -1 0 0 0 1 0 0 0 -1 
Triangulations 0

TShapes 20
Ve
1.00000014210855e-07
68 9 6.5
0 0

0101101
*
Ed
 1.00000014210855e-07 1 1 0
1  1 0 0 6.28318530717959
2  1 2 0 0 6.28318530717959
2  2 3 0 0 6.28318530717959
0

0101000
+20 5 -20 5 *
Wi

0101100
+19 4 *
Fa
0  1.00000014210855e-07 1 0

0101000
+18 0 *
Ve
1.00000014e-07
84.2222222222222 234 297.946911096802
0 0

0101101
*
Ed
 1e-07 1 1 0
1  2 0 1 67.2222222222222
3  3 4CN 3 0 1 67.2222222222222
0

0101000
+20 5 -16 6 *
Ve
1e-07
84.2222222222222 234 292.946911096802
0 0

0101101
*
Ed
 1e-07 1 1 0
1  3 0 0 3.14159265358979
2  5 3 0 0 3.14159265358979
2  6 4 0 0 3.14159265358979
0

0101000
+16 6 -14 6 *
Ed
 1e-07 1 1 0
1  4 0 3.14159265358979 6.28318530717959
2  7 3 0 3.14159265358979 6.28318530717959
2  8 4 0 3.14159265358979 6.28318530717959
0

0101000
+14 6 -16 6 *
Wi

0101100
+15 4 +19 4 -15 4 -13 4 -12 4 *
Fa
0  1e-07 3 4

0101000
+11 0 *
Ve
1.00000014761946e-07
0 9 13.5
0 0

0101101
*
Ed
 1e-07 1 1 0
1  5 0 0 2.67590990639828
3  9 10CN 4 0 0 2.67590990639828
0

0101000
+9 5 -14 6 *
Ed
 1.00000014761946e-07 1 1 0
1  6 0 0 6.28318530717959
2  11 5 0 0 6.28318530717959
2  12 4 0 0 6.28318530717959
0

0101000
+9 5 -9 5 *
Wi

0101100
+12 4 +8 4 +7 4 -8 4 +13 4 *
Fa
0  1e-07 4 4

0101000
+6 0 *
Wi

0101100
-7 4 *
Fa
0  1.00000014210855e-07 6 0

0101000
+4 0 *
Sh

0101100
-17 0 +10 0 +5 0 +3 0 *
So

0100000
+2 0 *

+1 0 