DBRep_DrawableShape

CASCADE Topology V1, (c) Matra-Datavision
Locations 12
1
              1               0               0               0 
              0               1               0               0 
              0               0               1               0 
1
             -1               0 -1.22464679914735e-16               0 
              0               1               0               0 
1.22464679914735e-16               0              -1               0 
1
              1               0               0              86 
              0               1               0            -225 
              0               0               1 340.446911096802 
1
              1               0               0               0 
              0               1               0               0 
              0               0               1              -0 
1
              1               0               0               0 
              0               1               0               0 
              0               0               1               1 
1
              1               0               0               0 
              0               1               0               0 
              0               0               1              -1 
2  1 1 2 1 3 1 4 1 5 1 6 1 0
2  1 1 2 1 3 1 0
2  3 -1 2 -1 1 -1 0
2  1 -1 0
1
              1               0               0               0 
              0               1               0               0 
              0               0               1              18 
2  1 1 2 1 3 1 4 1 5 1 6 1 11 1 0
Curve2ds 10
2 52 35 1 0 -0 1 4.5
1 0 3.0103986446980739 1 0 
1 6.2831853071795862 -0 0 1 
1 0 -0 0 1 
1 0 0 1 0 
1 0 48 1 0 
1 6.2831853071795862 -0 0 1 
1 0 -0 0 1 
2 52 35 1 0 -0 1 2.25
1 0 32 1 0 
Curves 5
2 70 260 340.44691109680201 0 0 1 1 0 -0 -0 1 0 4.5
1 72.25 260 338.44691109680201 0.74740931868365978 -1.7999999999999999e-16 0.66436383882991967 
2 70 260 338.44691109680201 0 0 1 1 0 -0 -0 1 0 2.25
1 72.25 260 290.44691109680201 0 0 1 
2 70 260 322.44691109680201 0 0 1 1 0 -0 -0 1 0 2.25
Polygon3D 0
PolygonOnTriangulations 0
Surfaces 5
1 18 225 340.44691109680201 0 0 1 1 0 -0 -0 1 0 
1 18 225 340.44691109680201 0 0 1 1 0 -0 -0 1 0 
3 70 260 338.44691109680201 0 0 1 1 0 -0 -0 1 0 2.25
0.84415398611317105
2 70 260 290.44691109680201 0 0 1 1 0 -0 -0 1 0 2.25
1 18 225 322.44691109680201 0 0 1 1 0 -0 -0 1 0 
Triangulations 0

TShapes 18
Ve
1.00000006919254e-07
11.5 35 0
0 0

0101101
*
Ed
 1.00000006368163e-07 1 1 0
1  1 0 0 6.28318530717959
2  1 2 0 0 6.28318530717959
2  2 3 0 0 6.28318530717959
0

0101000
+18 9 -18 9 *
Wi

0101100
+17 8 *
Fa
0  1e-07 1 7

0101000
+16 0 *
Ve
1e-07
72.25 260 338.446911096802
0 0

0101101
*
Ed
 1e-07 1 1 0
1  2 0 0 3.01039864469807
3  3 4CN 3 0 0 3.01039864469807
0

0101000
+14 10 -18 9 *
Ed
 1e-07 1 1 0
1  3 0 0 6.28318530717959
2  5 3 0 0 6.28318530717959
2  6 4 0 0 6.28318530717959
0

0101000
+14 10 -14 10 *
Wi

0101100
-17 8 +13 8 +12 8 -13 8 *
Fa
0  1e-07 3 8

0101000
+11 0 *
Ve
1.00000007105427e-07
13.75 35 18
0 0

0101101
*
Ed
 1e-07 1 1 0
1  4 0 32 48
3  7 8CN 4 0 32 48
0

0101000
+9 9 -14 10 *
Ed
 1.00000007105427e-07 1 1 0
1  5 0 0 6.28318530717959
2  9 5 0 0 6.28318530717959
2  10 4 0 0 6.28318530717959
0

0101000
+9 9 -9 9 *
Wi

0101100
-12 8 +8 8 +7 8 -8 8 *
Fa
0  1e-07 4 8

0101000
+6 0 *
Wi

0101100
+7 8 *
Fa
0  1e-07 1 12

0101000
+4 0 *
Sh

0101100
+15 0 +10 0 +5 0 -3 0 *
So

0100000
+2 0 *

+1 0 