DBRep_DrawableShape

CASCADE Topology V1, (c) Matra-Datavision
Locations 11
1
              1               0               0               0 
              0               1               0               0 
              0               0               1               0 
1
             -1               0 -1.22464679914735e-16               0 
              0               1               0               0 
1.22464679914735e-16               0              -1               0 
1
              1               0               0             582 
              0               1               0            -225 
              0               0               1 322.446911096802 
1
              1               0               0               0 
              0               1               0               0 
              0               0               1              -0 
1
              1               0               0               0 
              0               1               0               0 
              0               0               1               1 
1
              1               0               0               0 
              0               1               0               0 
              0               0               1              -1 
2  1 1 2 1 3 1 4 1 5 1 6 1 0
2  1 1 2 1 3 1 0
2  3 -1 2 -1 1 -1 0
1
              1               0               0               0 
              0               1               0               0 
              0               0               1              18 
2  1 1 2 1 3 1 4 1 5 1 6 1 10 1 0
Curve2ds 6
2 52 35 1 0 -0 1 2.25
1 0 32 1 0 
1 6.2831853071795862 -0 0 1 
1 0 -0 0 1 
2 52 35 1 0 -0 1 2.25
1 0 14 1 0 
Curves 3
2 530 260 322.44691109680201 0 -0 -1 -1 0 -0 0 1 0 2.25
1 527.75 260 290.44691109680201 -0 -0 1 
2 530 260 304.44691109680201 0 -0 -1 -1 0 -0 0 1 0 2.25
Polygon3D 0
PolygonOnTriangulations 0
Surfaces 4
1 582 225 322.44691109680201 -0 -0 1 -1 0 0 0 1 0 
1 582 225 322.44691109680201 -0 -0 1 -1 0 0 0 1 0 
2 530 260 290.44691109680201 -0 -0 1 -1 0 0 0 1 0 2.25
1 582 225 304.44691109680201 -0 -0 1 -1 0 0 0 1 0 
Triangulations 0

TShapes 13
Ve
1.00000006643709e-07
54.25 35 0
0 0

0101101
*
Ed
 1.00000006368163e-07 1 1 0
1  1 0 0 6.28318530717959
2  1 2 0 0 6.28318530717959
2  2 3 0 0 6.28318530717959
0

0101000
+13 9 -13 9 *
Wi

0101100
+12 8 *
Fa
0  1e-07 1 7

0101000
+11 0 *
Ve
1.00000007105427e-07
54.25 35 18
0 0

0101101
*
Ed
 1e-07 1 1 0
1  2 0 14 32
3  3 4CN 3 0 14 32
0

0101000
+9 9 -13 9 *
Ed
 1.00000007105427e-07 1 1 0
1  3 0 0 6.28318530717959
2  5 4 0 0 6.28318530717959
2  6 3 0 0 6.28318530717959
0

0101000
+9 9 -9 9 *
Wi

0101100
-12 8 +8 8 +7 8 -8 8 *
Fa
0  1e-07 3 8

0101000
+6 0 *
Wi

0101100
+7 8 *
Fa
0  1e-07 1 11

0101000
+4 0 *
Sh

0101100
-10 0 -5 0 +3 0 *
So

0100000
+2 0 *

+1 0 