DBRep_DrawableShape

CASCADE Topology V1, (c) Matra-Datavision
Locations 0
Curve2ds 84
1 0 0 1 0 
1 0 0 1 0 
1 628 0 0 -1 
1 0 0 0 1 
1 0 -12 1 0 
1 0 0 1 0 
1 0 0 0 -1 
1 0 0 0 1 
1 0 0 0 1 
1 0 0 1 0 
1 0 0 1 0 
1 0 351 1 0 
1 628 0 0 1 
1 0 0 1 0 
2 41.5 91.5 1 0 -0 1 2.25
1 0 1.0999999999999091 1 0 
2 146.5 91.5 1 0 -0 1 2.25
1 0 1.0999999999999091 1 0 
2 463.5 91.5 1 0 -0 1 2.25
1 0 1.0999999999999091 1 0 
2 568.5 91.5 1 0 -0 1 2.25
1 0 1.0999999999999091 1 0 
2 94 144 1 0 -0 1 58
1 0 1.0999999999999091 1 0 
2 41.5 196.5 1 0 -0 1 2.25
1 0 1.0999999999999091 1 0 
2 146.5 196.5 1 0 -0 1 2.25
1 0 1.0999999999999091 1 0 
2 516 144 1 0 -0 1 58
1 0 1.0999999999999091 1 0 
2 463.5 196.5 1 0 -0 1 2.25
1 0 1.0999999999999091 1 0 
2 568.5 196.5 1 0 -0 1 2.25
1 0 1.0999999999999091 1 0 
1 628 0 0 1 
1 0 12 1 0 
1 628 0 0 -1 
1 351 0 0 1 
1 0 0 0 1 
1 0 12 1 0 
1 0 -12 1 0 
1 0 351 1 0 
2 41.5 91.5 1 0 -0 1 2.25
1 0 13.099999999999909 1 0 
2 146.5 91.5 1 0 -0 1 2.25
1 0 13.099999999999909 1 0 
2 463.5 91.5 1 0 -0 1 2.25
1 0 13.099999999999909 1 0 
2 568.5 91.5 1 0 -0 1 2.25
1 0 13.099999999999909 1 0 
2 94 144 1 0 -0 1 58
1 0 13.099999999999909 1 0 
2 41.5 196.5 1 0 -0 1 2.25
1 0 13.099999999999909 1 0 
2 146.5 196.5 1 0 -0 1 2.25
1 0 13.099999999999909 1 0 
2 516 144 1 0 -0 1 58
1 0 13.099999999999909 1 0 
2 463.5 196.5 1 0 -0 1 2.25
1 0 13.099999999999909 1 0 
2 568.5 196.5 1 0 -0 1 2.25
1 0 13.099999999999909 1 0 
1 0 0 0 -1 
1 351 0 0 1 
1 6.2831853071795862 -0 0 1 
1 0 -0 0 1 
1 6.2831853071795862 -0 0 1 
1 0 -0 0 1 
1 6.2831853071795862 -0 0 1 
1 0 -0 0 1 
1 6.2831853071795862 -0 0 1 
1 0 -0 0 1 
1 6.2831853071795862 -0 0 1 
1 0 -0 0 1 
1 6.2831853071795862 -0 0 1 
1 0 -0 0 1 
1 6.2831853071795862 -0 0 1 
1 0 -0 0 1 
1 6.2831853071795862 -0 0 1 
1 0 -0 0 1 
1 6.2831853071795862 -0 0 1 
1 0 -0 0 1 
1 6.2831853071795862 -0 0 1 
1 0 -0 0 1 
Curves 42
1 301 1310.0999999999999 644 0 0 1 
1 301 1310.0999999999999 1272 -0 1 0 
1 301 1322.0999999999999 644 0 0 1 
1 301 1310.0999999999999 644 -0 1 0 
1 301 1310.0999999999999 644 1 0 -0 
1 652 1310.0999999999999 644 0 0 1 
1 301 1310.0999999999999 1272 1 0 -0 
2 392.5 1310.0999999999999 685.5 0 1 0 0 -0 1 1 0 -0 2.25
2 392.5 1310.0999999999999 790.5 0 1 0 0 -0 1 1 0 -0 2.25
2 392.5 1310.0999999999999 1107.5 0 1 0 0 -0 1 1 0 -0 2.25
2 392.5 1310.0999999999999 1212.5 0 1 0 0 -0 1 1 0 -0 2.25
2 445 1310.0999999999999 738 0 1 0 0 -0 1 1 0 -0 58
2 497.5 1310.0999999999999 685.5 0 1 0 0 -0 1 1 0 -0 2.25
2 497.5 1310.0999999999999 790.5 0 1 0 0 -0 1 1 0 -0 2.25
2 445 1310.0999999999999 1160 0 1 0 0 -0 1 1 0 -0 58
2 497.5 1310.0999999999999 1107.5 0 1 0 0 -0 1 1 0 -0 2.25
2 497.5 1310.0999999999999 1212.5 0 1 0 0 -0 1 1 0 -0 2.25
1 301 1322.0999999999999 1272 1 0 -0 
1 652 1310.0999999999999 1272 -0 1 0 
1 301 1322.0999999999999 644 1 0 -0 
1 652 1322.0999999999999 644 0 0 1 
2 392.5 1322.0999999999999 685.5 0 1 0 0 -0 1 1 0 -0 2.25
2 392.5 1322.0999999999999 790.5 0 1 0 0 -0 1 1 0 -0 2.25
2 392.5 1322.0999999999999 1107.5 0 1 0 0 -0 1 1 0 -0 2.25
2 392.5 1322.0999999999999 1212.5 0 1 0 0 -0 1 1 0 -0 2.25
2 445 1322.0999999999999 738 0 1 0 0 -0 1 1 0 -0 58
2 497.5 1322.0999999999999 685.5 0 1 0 0 -0 1 1 0 -0 2.25
2 497.5 1322.0999999999999 790.5 0 1 0 0 -0 1 1 0 -0 2.25
2 445 1322.0999999999999 1160 0 1 0 0 -0 1 1 0 -0 58
2 497.5 1322.0999999999999 1107.5 0 1 0 0 -0 1 1 0 -0 2.25
2 497.5 1322.0999999999999 1212.5 0 1 0 0 -0 1 1 0 -0 2.25
1 652 1310.0999999999999 644 -0 1 0 
1 392.5 1309 687.75 0 1 0 
1 392.5 1309 792.75 0 1 0 
1 392.5 1309 1109.75 0 1 0 
1 392.5 1309 1214.75 0 1 0 
1 445 1309 796 0 1 0 
1 497.5 1309 687.75 0 1 0 
1 497.5 1309 792.75 0 1 0 
1 445 1309 1218 0 1 0 
1 497.5 1309 1109.75 0 1 0 
1 497.5 1309 1214.75 0 1 0 
Polygon3D 0
PolygonOnTriangulations 0
Surfaces 16
1 301 1310.0999999999999 644 1 0 -0 0 0 1 0 -1 0 
1 301 1310.0999999999999 644 -0 1 0 0 0 1 1 0 -0 
1 301 1310.0999999999999 1272 0 0 1 1 0 -0 -0 1 0 
1 301 1322.0999999999999 644 -0 1 0 0 0 1 1 0 -0 
1 301 1310.0999999999999 644 0 0 1 1 0 -0 -0 1 0 
1 652 1310.0999999999999 644 1 0 -0 0 0 1 0 -1 0 
2 392.5 1309 685.5 0 1 0 0 -0 1 1 0 -0 2.25
2 392.5 1309 790.5 0 1 0 0 -0 1 1 0 -0 2.25
2 392.5 1309 1107.5 0 1 0 0 -0 1 1 0 -0 2.25
2 392.5 1309 1212.5 0 1 0 0 -0 1 1 0 -0 2.25
2 445 1309 738 0 1 0 0 -0 1 1 0 -0 58
2 497.5 1309 685.5 0 1 0 0 -0 1 1 0 -0 2.25
2 497.5 1309 790.5 0 1 0 0 -0 1 1 0 -0 2.25
2 445 1309 1160 0 1 0 0 -0 1 1 0 -0 58
2 497.5 1309 1107.5 0 1 0 0 -0 1 1 0 -0 2.25
2 497.5 1309 1212.5 0 1 0 0 -0 1 1 0 -0 2.25
Triangulations 0

TShapes 125
Ve
1e-07
301 1310.1 1272
0 0

0101101
*
Ve
1e-07
301 1310.1 644
0 0

0101101
*
Ed
 1e-07 1 1 0
1  1 0 0 628
2  1 1 0 0 628
2  2 2 0 0 628
0

0101000
-125 0 +124 0 *
Ve
1e-07
301 1322.1 1272
0 0

0101101
*
Ed
 1e-07 1 1 0
1  2 0 0 12
2  3 1 0 0 12
2  4 3 0 0 12
0

0101000
-122 0 +125 0 *
Ve
1e-07
301 1322.1 644
0 0

0101101
*
Ed
 1e-07 1 1 0
1  3 0 0 628
2  5 1 0 0 628
2  6 4 0 0 628
0

0101000
-122 0 +120 0 *
Ed
 1e-07 1 1 0
1  4 0 0 12
2  7 1 0 0 12
2  8 5 0 0 12
0

0101000
-120 0 +124 0 *
Wi

0101100
-123 0 -121 0 +119 0 +118 0 *
Fa
0  1e-07 1 0

0111000
+117 0 *
Ve
1e-07
652 1310.1 644
0 0

0101101
*
Ed
 1e-07 1 1 0
1  5 0 0 351
2  9 2 0 0 351
2  10 5 0 0 351
0

0101000
-115 0 +124 0 *
Ve
1e-07
652 1310.1 1272
0 0

0101101
*
Ed
 1e-07 1 1 0
1  6 0 0 628
2  11 6 0 0 628
2  12 2 0 0 628
0

0101000
-113 0 +115 0 *
Ed
 1e-07 1 1 0
1  7 0 0 351
2  13 2 0 0 351
2  14 3 0 0 351
0

0101000
-113 0 +125 0 *
Wi

0101100
-114 0 -112 0 +123 0 +111 0 *
Ve
1e-07
392.5 1310.1 687.75
0 0

0101101
*
Ed
 1e-07 1 1 0
1  8 0 0 6.28318530717959
2  15 2 0 0 6.28318530717959
2  16 7 0 0 6.28318530717959
0

0101100
+109 0 -109 0 *
Wi

0101100
-108 0 *
Ve
1e-07
392.5 1310.1 792.75
0 0

0101101
*
Ed
 1e-07 1 1 0
1  9 0 0 6.28318530717959
2  17 2 0 0 6.28318530717959
2  18 8 0 0 6.28318530717959
0

0101100
+106 0 -106 0 *
Wi

0101100
-105 0 *
Ve
1e-07
392.5 1310.1 1109.75
0 0

0101101
*
Ed
 1e-07 1 1 0
1  10 0 0 6.28318530717959
2  19 2 0 0 6.28318530717959
2  20 9 0 0 6.28318530717959
0

0101100
+103 0 -103 0 *
Wi

0101100
-102 0 *
Ve
1e-07
392.5 1310.1 1214.75
0 0

0101101
*
Ed
 1e-07 1 1 0
1  11 0 0 6.28318530717959
2  21 2 0 0 6.28318530717959
2  22 10 0 0 6.28318530717959
0

0101100
+100 0 -100 0 *
Wi

0101100
-99 0 *
Ve
1e-07
445 1310.1 796
0 0

0101101
*
Ed
 1e-07 1 1 0
1  12 0 0 6.28318530717959
2  23 2 0 0 6.28318530717959
2  24 11 0 0 6.28318530717959
0

0101100
+97 0 -97 0 *
Wi

0101100
-96 0 *
Ve
1e-07
497.5 1310.1 687.75
0 0

0101101
*
Ed
 1e-07 1 1 0
1  13 0 0 6.28318530717959
2  25 2 0 0 6.28318530717959
2  26 12 0 0 6.28318530717959
0

0101100
+94 0 -94 0 *
Wi

0101100
-93 0 *
Ve
1e-07
497.5 1310.1 792.75
0 0

0101101
*
Ed
 1e-07 1 1 0
1  14 0 0 6.28318530717959
2  27 2 0 0 6.28318530717959
2  28 13 0 0 6.28318530717959
0

0101100
+91 0 -91 0 *
Wi

0101100
-90 0 *
Ve
1e-07
445 1310.1 1218
0 0

0101101
*
Ed
 1e-07 1 1 0
1  15 0 0 6.28318530717959
2  29 2 0 0 6.28318530717959
2  30 14 0 0 6.28318530717959
0

0101100
+88 0 -88 0 *
Wi

0101100
-87 0 *
Ve
1e-07
497.5 1310.1 1109.75
0 0

0101101
*
Ed
 1e-07 1 1 0
1  16 0 0 6.28318530717959
2  31 2 0 0 6.28318530717959
2  32 15 0 0 6.28318530717959
0

0101100
+85 0 -85 0 *
Wi

0101100
-84 0 *
Ve
1e-07
497.5 1310.1 1214.75
0 0

0101101
*
Ed
 1e-07 1 1 0
1  17 0 0 6.28318530717959
2  33 2 0 0 6.28318530717959
2  34 16 0 0 6.28318530717959
0

0101100
+82 0 -82 0 *
Wi

0101100
-81 0 *
Fa
0  1e-07 2 0

0101000
+110 0 +107 0 +104 0 +101 0 +98 0 +95 0 +92 0 +89 0 +86 0 +83 0 
+80 0 *
Ve
1e-07
652 1322.1 1272
0 0

0101101
*
Ed
 1e-07 1 1 0
1  18 0 0 351
2  35 4 0 0 351
2  36 3 0 0 351
0

0101000
-78 0 +122 0 *
Ed
 1e-07 1 1 0
1  19 0 0 12
2  37 6 0 0 12
2  38 3 0 0 12
0

0101000
-78 0 +113 0 *
Wi

0101100
-121 0 -77 0 +76 0 +111 0 *
Fa
0  1e-07 3 0

0111000
+75 0 *
Ve
1e-07
652 1322.1 644
0 0

0101101
*
Ed
 1e-07 1 1 0
1  20 0 0 351
2  39 4 0 0 351
2  40 5 0 0 351
0

0101000
-73 0 +120 0 *
Ed
 1e-07 1 1 0
1  21 0 0 628
2  41 6 0 0 628
2  42 4 0 0 628
0

0101000
-78 0 +73 0 *
Wi

0101100
-72 0 -71 0 +119 0 +77 0 *
Ve
1e-07
392.5 1322.1 687.75
0 0

0101101
*
Ed
 1e-07 1 1 0
1  22 0 0 6.28318530717959
2  43 4 0 0 6.28318530717959
2  44 7 0 0 6.28318530717959
0

0101100
+69 0 -69 0 *
Wi

0101100
-68 0 *
Ve
1e-07
392.5 1322.1 792.75
0 0

0101101
*
Ed
 1e-07 1 1 0
1  23 0 0 6.28318530717959
2  45 4 0 0 6.28318530717959
2  46 8 0 0 6.28318530717959
0

0101100
+66 0 -66 0 *
Wi

0101100
-65 0 *
Ve
1e-07
392.5 1322.1 1109.75
0 0

0101101
*
Ed
 1e-07 1 1 0
1  24 0 0 6.28318530717959
2  47 4 0 0 6.28318530717959
2  48 9 0 0 6.28318530717959
0

0101100
+63 0 -63 0 *
Wi

0101100
-62 0 *
Ve
1e-07
392.5 1322.1 1214.75
0 0

0101101
*
Ed
 1e-07 1 1 0
1  25 0 0 6.28318530717959
2  49 4 0 0 6.28318530717959
2  50 10 0 0 6.28318530717959
0

0101100
+60 0 -60 0 *
Wi

0101100
-59 0 *
Ve
1e-07
445 1322.1 796
0 0

0101101
*
Ed
 1e-07 1 1 0
1  26 0 0 6.28318530717959
2  51 4 0 0 6.28318530717959
2  52 11 0 0 6.28318530717959
0

0101100
+57 0 -57 0 *
Wi

0101100
-56 0 *
Ve
1e-07
497.5 1322.1 687.75
0 0

0101101
*
Ed
 1e-07 1 1 0
1  27 0 0 6.28318530717959
2  53 4 0 0 6.28318530717959
2  54 12 0 0 6.28318530717959
0

0101100
+54 0 -54 0 *
Wi

0101100
-53 0 *
Ve
1e-07
497.5 1322.1 792.75
0 0

0101101
*
Ed
 1e-07 1 1 0
1  28 0 0 6.28318530717959
2  55 4 0 0 6.28318530717959
2  56 13 0 0 6.28318530717959
0

0101100
+51 0 -51 0 *
Wi

0101100
-50 0 *
Ve
1e-07
445 1322.1 1218
0 0

0101101
*
Ed
 1e-07 1 1 0
1  29 0 0 6.28318530717959
2  57 4 0 0 6.28318530717959
2  58 14 0 0 6.28318530717959
0

0101100
+48 0 -48 0 *
Wi

0101100
-47 0 *
Ve
1e-07
497.5 1322.1 1109.75
0 0

0101101
*
Ed
 1e-07 1 1 0
1  30 0 0 6.28318530717959
2  59 4 0 0 6.28318530717959
2  60 15 0 0 6.28318530717959
0

0101100
+45 0 -45 0 *
Wi

0101100
-44 0 *
Ve
1e-07
497.5 1322.1 1214.75
0 0

0101101
*
Ed
 1e-07 1 1 0
1  31 0 0 6.28318530717959
2  61 4 0 0 6.28318530717959
2  62 16 0 0 6.28318530717959
0

0101100
+42 0 -42 0 *
Wi

0101100
-41 0 *
Fa
0  1e-07 4 0

0101000
+70 0 +67 0 +64 0 +61 0 +58 0 +55 0 +52 0 +49 0 +46 0 +43 0 
+40 0 *
Ed
 1e-07 1 1 0
1  32 0 0 12
2  63 6 0 0 12
2  64 5 0 0 12
0

0101000
-73 0 +115 0 *
Wi

0101100
-118 0 -72 0 +38 0 +114 0 *
Fa
0  1e-07 5 0

0111000
+37 0 *
Wi

0101100
-112 0 -76 0 +71 0 +38 0 *
Fa
0  1e-07 6 0

0111000
+35 0 *
Ed
 1e-07 1 1 0
1  33 0 1.09999999999991 13.0999999999999
3  65 66CN 7 0 1.09999999999991 13.0999999999999
0

0101000
+109 0 -69 0 *
Wi

0101100
-68 0 +33 0 +108 0 -33 0 *
Fa
0  1e-07 7 0

0101000
+32 0 *
Ed
 1e-07 1 1 0
1  34 0 1.09999999999991 13.0999999999999
3  67 68CN 8 0 1.09999999999991 13.0999999999999
0

0101000
+106 0 -66 0 *
Wi

0101100
-65 0 +30 0 +105 0 -30 0 *
Fa
0  1e-07 8 0

0101000
+29 0 *
Ed
 1e-07 1 1 0
1  35 0 1.09999999999991 13.0999999999999
3  69 70CN 9 0 1.09999999999991 13.0999999999999
0

0101000
+103 0 -63 0 *
Wi

0101100
-62 0 +27 0 +102 0 -27 0 *
Fa
0  1e-07 9 0

0101000
+26 0 *
Ed
 1e-07 1 1 0
1  36 0 1.09999999999991 13.0999999999999
3  71 72CN 10 0 1.09999999999991 13.0999999999999
0

0101000
+100 0 -60 0 *
Wi

0101100
-59 0 +24 0 +99 0 -24 0 *
Fa
0  1e-07 10 0

0101000
+23 0 *
Ed
 1e-07 1 1 0
1  37 0 1.09999999999991 13.0999999999999
3  73 74CN 11 0 1.09999999999991 13.0999999999999
0

0101000
+97 0 -57 0 *
Wi

0101100
-56 0 +21 0 +96 0 -21 0 *
Fa
0  1e-07 11 0

0101000
+20 0 *
Ed
 1e-07 1 1 0
1  38 0 1.09999999999991 13.0999999999999
3  75 76CN 12 0 1.09999999999991 13.0999999999999
0

0101000
+94 0 -54 0 *
Wi

0101100
-53 0 +18 0 +93 0 -18 0 *
Fa
0  1e-07 12 0

0101000
+17 0 *
Ed
 1e-07 1 1 0
1  39 0 1.09999999999991 13.0999999999999
3  77 78CN 13 0 1.09999999999991 13.0999999999999
0

0101000
+91 0 -51 0 *
Wi

0101100
-50 0 +15 0 +90 0 -15 0 *
Fa
0  1e-07 13 0

0101000
+14 0 *
Ed
 1e-07 1 1 0
1  40 0 1.09999999999991 13.0999999999999
3  79 80CN 14 0 1.09999999999991 13.0999999999999
0

0101000
+88 0 -48 0 *
Wi

0101100
-47 0 +12 0 +87 0 -12 0 *
Fa
0  1e-07 14 0

0101000
+11 0 *
Ed
 1e-07 1 1 0
1  41 0 1.09999999999991 13.0999999999999
3  81 82CN 15 0 1.09999999999991 13.0999999999999
0

0101000
+85 0 -45 0 *
Wi

0101100
-44 0 +9 0 +84 0 -9 0 *
Fa
0  1e-07 15 0

0101000
+8 0 *
Ed
 1e-07 1 1 0
1  42 0 1.09999999999991 13.0999999999999
3  83 84CN 16 0 1.09999999999991 13.0999999999999
0

0101000
+82 0 -42 0 *
Wi

0101100
-41 0 +6 0 +81 0 -6 0 *
Fa
0  1e-07 16 0

0101000
+5 0 *
Sh

0101100
-116 0 -79 0 +74 0 +39 0 -36 0 +34 0 -31 0 -28 0 -25 0 -22 0 
-19 0 -16 0 -13 0 -10 0 -7 0 -4 0 *
So

0100000
+3 0 *
Co

1100000
+2 0 *

+1 0 