DBRep_DrawableShape

CASCADE Topology V1, (c) Matra-Datavision
Locations 27
1
              1               0               0               0 
              0               1               0               0 
              0               0               1               0 
1
              1               0               0               0 
              0               1               0               0 
              0               0               1               0 
1
              1               0               0               0 
              0               1               0               0 
              0               0               1               0 
2  1 1 2 1 3 1 0
2  3 -1 2 -1 1 -1 0
1
              1               0               0              18 
              0               1               0               0 
              0               0               1               0 
2  6 -1 0
2  3 -1 2 -1 1 -1 6 -1 0
2  1 1 2 1 0
1
              0              -1               0               0 
              1               0               0               0 
              0               0               1               0 
2  1 1 2 1 10 -1 0
2  3 -1 10 -1 0
2  3 -1 0
2  2 -1 1 -1 0
1
              0              -1               0               0 
              1               0               0               0 
              0               0               1               0 
2  6 1 1 1 2 1 0
2  2 -1 0
2  3 -1 2 -1 0
2  15 -1 0
2  3 -1 15 -1 0
2  1 1 2 1 15 -1 0
2  15 1 2 -1 0
2  10 1 3 1 0
2  15 1 3 1 0
2  2 1 3 1 0
1
1.11022302462516e-16              -1               0               0 
              1 1.11022302462516e-16               0               0 
              0               0               1               0 
2  26 -1 0
Curve2ds 152
1 0 0 1 0 
1 -370.27444753653424 93.666007876056938 0 -1 
1 47.900000000000091 762 0 -1 
1 0 0 0 1 
1 47.400000000000091 -6 1 0 
8 0.5 162.59999999999991
1 1 -0.5 0 -1 
1 204 56.5 0 1 
1 361.9499999999997 -47.859363664628404 0 -1 
1 0 -18 1 0 
1 -370.27444753653424 93.666007876056938 0 -1 
1 0 0 0 -1 
1 725.23596849577177 0 0 -1 
8 -185.13722376826706 -167.13722376826706
1 -185.13722376826718 45.766007876056847 1 0 
8 -185.13722376826706 -167.13722376826706
1 185.13722376826706 762 1 0 
1 353.62555246346574 137.66600787605694 -0.9981578843937613 -0.060669908707453382 
1 0 0 1 0 
1 -353.17444753653422 189.76600787605685 0 -1 
1 0 4 1 0 
8 -18.5 -0.5
1 -0.5 768 -1 0 
8 -18.5 -0.5
1 0.5 -1 -1 -0 
1 18 0 0 1 
1 0 0 1 0 
8 42.300000000000068 43.200000000000045
1 60.300000000000068 766.00000000000034 -1 0 
8 42.300000000000068 43.200000000000045
1 60.299999999999955 47.400000000000091 1 0 
8 379.00000000000006 383.00000000000006
1 17.100000000000023 383.00000000000006 0 1 
8 379.00000000000006 383.00000000000006
1 144.00000000000009 383.00000000000006 1.1e-16 -1 
8 0.5 162.59999999999991
1 19 -0.5 0 -1 
8 0.5 162.59999999999991
1 768 -0.5 0 1 
8 162.4749999999998 180.4749999999998
1 181.4749999999998 -157.09999999999945 -1 -0 
8 162.4749999999998 180.4749999999998
1 181.47499999999991 14.640636335371596 1 -0 
1 -361.95000000000027 -103.8593636646284 0 -1 
1 6 112.5 0 1 
1 362.4499999999997 26.640636335371596 -1 0 
1 -370.77444753653424 -110.33399212394306 1 0 
8 385.3203181676858 391.3203181676858
1 343.9499999999997 -376.6796818323142 0 1 
8 385.3203181676858 391.3203181676858
1 376.6796818323142 156.09999999999945 1 0 
8 -339.78777623173301 366.11222376826697
1 -4.1622237682672676 8.640636335371596 1 0 
8 -339.78777623173301 366.11222376826697
1 -4.1622237682672676 -110.33399212394261 -1 0 
8 385.3203181676858 391.3203181676858
1 -343.95000000000027 -376.6796818323142 0 1 
8 385.3203181676858 391.3203181676858
1 376.6796818323142 246.90592623290468 1 0 
8 -190.47500000000014 -172.47500000000014
1 -171.47500000000014 14.640636335371596 1 -0 
1 -175.94173882079735 -13.267840124390659 -0 -1 
1 353.62555246346574 137.66600787605694 -0.9981578843937613 -0.060669908707453382 
1 0 -18 1 0 
1 353.62555246346574 -116.33399212394306 0 1 
1 0 -18 1 0 
1 120.60672498279459 -5.9999999999997726 1 -1.0000000000000001e-17 
1 64.741062184991279 56.822606423123034 -0.060669908707453382 -0.9981578843937613 
8 -2.9999999999998774 3.0000000000001226
1 483.69101476689951 -3 0 -1 
8 -2.9999999999998774 3.0000000000001226
1 81.445489708523269 3.0000000000001226 1.1e-16 -1 
1 0 0 1 0 
1 353.62555246346574 137.66600787605694 -0.9981578843937613 -0.060669908707453382 
8 -1.999999999999877 2.000000000000123
1 500.72238852629738 -2 0 -1 
8 -1.999999999999877 2.000000000000123
1 82.478781599668423 2.000000000000123 1.1e-16 -1 
8 198.27815723017849 405.66017888872909
1 302.44423129611891 -4.0000000000003411 1 -1.0000000000000001e-17 
8 198.27815723017849 405.66017888872909
1 -301.41290594236852 -26.150736098168636 0.9981578843937613 0.060669908707453382 
8 -1.9999999999998757 2.0000000000001243
1 708.10441018484789 -2 0 -1 
8 -1.9999999999998757 2.0000000000001243
1 95.060629921259874 2.0000000000001243 1.1e-16 -1 
1 0 0 0 -1 
1 254 0 0 -1 
1 0 0 1 0 
1 103.5 -96.599999999999909 0 1 
8 23.700000000000045 74.900000000000091
1 766.00000000000034 -23.700000000000045 1.1e-16 1 
8 23.700000000000045 74.900000000000091
1 102.60000000000002 23.700000000000045 0 1 
8 -6.0000002122000002e-07 4.0000006000000212
1 766.00000000000011 50.870329308849023 -1 1.1e-16 
8 -6.0000002122000002e-07 4.0000006000000212
1 2.1531605646636578 1.9000000000000001e-16 0 1 
8 -139.21699606197149 22.883003938028423
1 762 22.883003938028423 0 -1 
8 -139.21699606197149 22.883003938028423
1 -352.27444753653424 22.883003938028423 0 1 
1 -103.5 -96.599999999999909 0 1 
1 0 0 1 0 
2 -101.5 96.600000000000136 -1 0 0 1 2
1 0 0 1 0 
1 101.5 98.600000000000136 -1 0 
1 0 0 1 0 
2 101.5 96.600000000000136 -1 0 0 1 2
1 0 0 1 0 
1 253.40592623290513 -6 -1 0 
1 71.464187412107322 177.20715987560948 -1 0 
8 0.5 253.40592623290513
1 768 -0.5 0 1 
1 71.464187412107322 159.20715987560948 -1 0 
1 0 6 1 0 
1 6.1582611792020998 -303.59284012439048 0 1 
1 0 0 1 0 
2 8.1582611792020998 -303.59284012439048 0 1 -1 0 2
1 0 0 1 0 
1 124.1582611792021 -305.59284012439048 -1 0 
1 -129.17444753653422 189.76600787605685 0 -1 
1 0 6 1 0 
1 116 0 0 1 
1 3.1415926535897931 0 0 1 
1 -146.17444753653422 189.76600787605685 0 -1 
1 0 4 1 0 
1 193.20000000000005 0 0 1 
8 0 4
1 0 0 0 1 
2 -351.17444753653422 -3.4339921239431987 1 0 0 -1 2
1 0 4 1 0 
1 1.5707963267948966 0 0 1 
1 0 0 0 -1 
2 -148.17444753653422 -3.4339921239431987 1 0 0 -1 2
1 0 4 1 0 
1 1.5707963267948966 0 0 1 
1 203 0 0 -1 
1 -351.17444753653422 -5.4339921239431987 1 0 
1 0 -4 1 0 
2 -127.17444753653422 73.766007876056847 1 0 0 -1 2
1 0 6 1 0 
8 0 6
1 1.5707963267948966 6 -0 -1 
1 0 0 0 1 
8 -387 -381
1 381 64.805926232905222 -1 0 
8 -387 -381
1 462.79999999999995 -381 0 -1 
1 -127.17444753653422 71.766007876056847 1 0 
1 0 0 1 0 
8 -184.6199591784241 68.285967054481034
1 335.62555246346574 68.285967054481034 0 1 
8 -184.6199591784241 68.285967054481034
1 762 68.285967054481034 0 -1 
1 0 -4 1 0 
1 0 0 1 0 
1 0 4 1 0 
2 0 0 1 0 -0 1 2
1 0 0 0 1 
1 0 4 1 0 
1 0 4 1 0 
2 0 0 1 0 -0 1 2
1 0 -4 1 0 
1 0 18.400000000000091 1 0 
1 0 0 1 0 
1 0 0 1 0 
8 -383.00000000000006 -379.00000000000006
1 383.00000000000006 153.60592623290518 -1 1.1102230246251565e-16 
8 -383.00000000000006 -379.00000000000006
1 448.79999999999995 -383.00000000000006 0 -1 
1 0 0 0 -1 
1 0 0 0 1 
1 4.7123889803846897 0 0 1 
1 0 0 1 0 
2 0 0 1 0 -0 1 2
1 0 0 0 -1 
1 0 0 0 1 
1 3.1415926535897931 0 0 1 
1 0 0 0 -1 
1 14.400000000000091 0 0 1 
1 3.1415926535897931 0 0 1 
1 0 0 0 1 
1 0 0 1 0 
1 0 0 1 0 
2 0 0 1 0 -0 1 2
1 0 0 0 -1 
1 18.400000000000091 0 0 1 
1 1.5707963267948966 0 0 1 
1 0 0 1 0 
1 0 18.400000000000091 1 0 
8 -383.00000000000006 -379.00000000000006
1 383.00000000000006 172.00592623290527 -1 1.1102230246251565e-16 
8 -383.00000000000006 -379.00000000000006
1 448.79999999999995 -383.00000000000006 0 -1 
8 72.202963116452793 90.602963116452884
1 766.00000000000023 81.402963116452383 1.1102230246251565e-16 1 
8 72.202963116452793 90.602963116452884
1 -215.79999999999973 -81.402963116452383 0 1 
Curves 75
1 672 1098.0999999999999 596.89999999999998 0 1 0 
1 -90 1146 596.89999999999998 1 0 -0 
1 678 1145.5 596.89999999999998 -0 1 0 
1 615.5 1302.0999999999999 596.89999999999998 -1 -0 0 
1 672 1098.0999999999999 596.89999999999998 0 1 0 
1 672 1098.0999999999999 596.89999999999998 1 0 0 
1 672 1146 782.03722376826704 0 -0 1 
1 672 1054.0999999999999 1320.8 0 0.060669908707453382 -0.9981578843937613 
1 1002 -672 614 1 0 -0 
1 678 1146 596.39999999999998 -0 0 -1 
1 -90 1146 614.89999999999998 1 0 -0 
1 676.00000000000034 1146 657.20000000000005 0 0 -1 
1 293.00000000000006 1146 614 1 0 0 
1 678 1145.5 614.89999999999998 -0 1 0 
1 678 1302.0999999999995 777.37499999999977 -0 0 -1 
1 559.5 1302.0999999999999 1320.8 -1 -0 0 
1 690 1302.0999999999999 596.39999999999998 0 0 1 
1 286.6796818323142 1302.0999999999995 614.89999999999998 1 0 0 
1 672 1302.0999999999995 963.01222376826695 0 0 -1 
1 286.6796818323142 1302.0999999999995 1302.8 1 0 0 
1 678 1302.0999999999995 1130.3249999999998 -0 0 -1 
1 672 1054.0999999999999 1320.8 0 0.060669908707453382 -0.9981578843937613 
1 672 1308.0999999999999 1320.8 0 -1 0 
1 677.99999999999977 1061.4171989942108 1200.4154465475135 1.0000000000000001e-17 0.060669908707453382 -0.9981578843937613 
1 675 1083.4454897085232 838 1 0 0 
1 672 1054.0999999999999 1320.8 0 0.060669908707453382 -0.9981578843937613 
1 674 1084.4787815996683 821 1 0 0 
1 676.00000000000034 1072.4492639018313 1018.9129059423685 1.0000000000000001e-17 0.060669908707453382 -0.9981578843937613 
1 674 1097.0606299212598 614 1 0 0 
1 672 1054.0999999999999 1320.8 1 0 0 
1 1002 -676 614 1 0 -0 
1 676.00000000000034 1122.3 614.89999999999998 1.1e-16 1 -0 
1 676.00000000000011 1196.870329308849 614.89999999999998 -1 1.1e-16 0 
1 672 1168.8830039380284 614.89999999999998 0 -1 0 
1 1002 -676 821 1 0 -0 
2 1195.2 -676 819 0 1 0 0 -0 1 1 0 -0 2
1 1197.2 -676 616 0 0 1 
2 1195.2 -676 616 0 1 0 0 -0 1 1 0 -0 2
1 678 1054.6940737670948 1320.8 0 1 0 
1 678 1054.6940737670948 1302.8 -0 1 0 
1 678 1120 840 0 0 1 
2 1118 -678 840 0 1 0 0 -0 1 1 0 -0 2
1 1002 -678 838 1 0 -0 
1 1002 -672 838 1 0 -0 
1 1118 -678 838 -0 1 0 
1 1002 -672 821 1 0 -0 
1 1195.2 -676 821 -0 1 0 
2 1195.2 -672 616 0 1 0 0 -0 1 1 0 -0 2
1 1197.2 -676 616 -0 1 0 
2 1195.2 -672 819 0 1 0 0 -0 1 1 0 -0 2
1 1197.2 -676 819 -0 1 0 
1 1197.2 -672 616 0 0 1 
2 1118 -672 840 0 1 0 0 -0 1 1 0 -0 2
1 672 1120 840 1 0 -0 
1 291 1120 1302.8 -1 -0 0 
1 672 1120 840 0 0 1 
1 672 1123.4800408215758 1302.8 0 -1 0 
1 1208.8 -672 854 0 0 1 
2 1210.8 -672 854 0 1 0 0 -0 1 1 0 -0 2
1 1210.8 -672 852 1 0 -0 
2 1225.2 -672 854 0 1 0 0 -0 1 1 0 -0 2
1 1227.2 -672 854 0 0 1 
1 672 1123.4800408215758 1302.8 0 -1 0 
1 1208.8 -676 854 0 0 1 
1 293.00000000000006 1208.8 1302.8 -1 1.1102230246251565e-16 0 
1 1208.8 -676 854 -0 1 0 
2 1210.8 -676 854 0 1 0 0 -0 1 1 0 -0 2
1 1210.8 -676 852 -0 1 0 
1 1225.2 -676 852 -0 1 0 
1 1210.8 -676 852 1 0 -0 
2 1225.2 -676 854 0 1 0 0 -0 1 1 0 -0 2
1 1227.2 -676 854 -0 1 0 
1 1227.2 -676 854 0 0 1 
1 293.00000000000006 1227.2 1302.8 -1 1.1102230246251565e-16 0 
1 676.00000000000023 1136.5970368835472 1302.8 1.1102230246251565e-16 1 -0 
Polygon3D 0
PolygonOnTriangulations 0
Surfaces 40
1 672 1098.0999999999999 596.89999999999998 0 0 1 0 1 0 -1 0 0 
1 672 1191.7660078760568 967.17444753653422 1 0 0 -0 0 1 0 -1 0 
1 -90 1146 596.89999999999998 -0 1 0 0 0 1 1 0 -0 
1 678 1145 595.89999999999998 1 0 -0 0 0 1 0 -1 0 
1 663.3593636646284 1302.0999999999995 958.84999999999968 -0 -1 -0 0 0 -1 1 -0 0 
1 672 1191.7660078760568 967.17444753653422 1 0 0 -0 0 1 0 -1 0 
1 672 1054.0999999999999 1320.8 -0 0.9981578843937613 0.060669908707453382 0 0.060669908707453382 -0.9981578843937613 -1 0 -0 
1 1002 -676 614 0 0 1 1 0 -0 -0 1 0 
1 -90 1146 614.89999999999998 0 0 1 1 0 -0 -0 1 0 
1 1098.5999999999999 -676.00000000000023 717.5 -0 -1 -0 0 0 -1 1 -0 0 
1 672 1308.0999999999999 1320.8 0 0 -1 0 -1 0 -1 -0 -0 
1 672 1191.7660078760568 967.17444753653422 1 0 0 -0 0 1 0 -1 0 
1 -90 1055.1940737670948 1302.8 0 0 1 1 0 -0 -0 1 0 
1 677.99999999999977 1126.1582611792021 1143.5928401243905 -1 7.4999999999999996e-16 -0 -7.4999999999999996e-16 -1 0 0 0 1 
1 1002 -678 838 0 0 1 1 0 -0 -0 1 0 
1 1002 -676 821 0 0 1 1 0 -0 -0 1 0 
2 1195.2 -676 616 0 1 0 0 -0 1 1 0 -0 2
2 1195.2 -676 819 0 1 0 0 -0 1 1 0 -0 2
1 1197.2 -676 616 1 0 -0 0 0 1 0 -1 0 
1 672 1120 840 -0 1 0 0 0 1 1 0 -0 
2 1118 -678 840 0 1 0 0 -0 1 1 0 -0 2
1 672.00000000000034 1216.1316634069365 997.76156995378983 -1 -0 -0 0 0 -1 0 -1 0 
1 1208.8 -676 854 1 0 -0 0 0 1 0 -1 0 
1 1208.8 -672 854 -0 1 0 0 0 1 1 0 -0 
2 1210.8 -676 854 0 1 0 0 -0 1 1 0 -0 2
1 1210.8 -672 854 0 1 0 0 -0 1 1 0 -0 
1 1210.8 -672 852 -0 1 0 0 0 1 1 0 -0 
1 1210.8 -676 852 0 0 1 1 0 -0 -0 1 0 
2 1225.2 -676 854 0 1 0 0 -0 1 1 0 -0 2
1 1225.2 -672 854 0 1 0 0 -0 1 1 0 -0 
1 1227.2 -676 854 1 0 -0 0 0 1 0 -1 0 
1 1208.8 -676 854 -0 1 0 0 0 1 1 0 -0 
1 1208.8 -676 854 0 0 1 1 0 -0 -0 1 0 
1 1210.8 -676 854 0 1 0 0 -0 1 1 0 -0 
1 1210.8 -676 852 1 0 -0 0 0 1 0 -1 0 
1 1225.2 -676 852 1 0 -0 0 0 1 0 -1 0 
1 1210.8 -676 852 -0 1 0 0 0 1 1 0 -0 
1 1225.2 -676 854 0 1 0 0 -0 1 1 0 -0 
1 1217.9999999999995 -676.00000000000011 1087.0000000000002 -0 -1 -0 0 0 -1 1 -0 0 
1 675.17074440395629 1211.1947162935969 1302.8000000000002 0 0 1 1 0 -0 -0 1 0 
Triangulations 0

TShapes 182
Ve
1e-07
672 1098.1 596.9
0 0

0101101
*
Ve
1.5e-07
672 1146 596.9
0 0

0101101
*
Ed
 1e-07 1 1 0
1  1 0 0 47.9000000000001
2  1 1 0 0 47.9000000000001
2  2 2 0 0 47.9000000000001
0

0101000
+182 5 -181 5 *
Ve
1.5e-07
678 1146 596.9
0 0

0101101
*
Ed
 1e-07 1 1 0
1  2 0 762 768
2  3 1 0 762 768
2  4 3 0 762 768
0

0101000
+181 5 -179 5 *
Ve
2.00000455e-07
678 1302.1 596.9
0 0

0101101
*
Ed
 1.5e-07 1 1 0
1  3 0 0.5 156.6
2  5 1 0 0.5 156.6
2  6 4 0 0.5 156.6
0

0101000
+179 5 -177 5 *
Ve
1.5e-07
690 1302.1 596.9
0 0

0101101
*
Ed
 1.5e-07 1 1 0
1  4 0 -74.5 -62.5
2  7 1 0 -74.5 -62.5
2  8 5 0 -74.5 -62.5
0

0101000
+175 5 -177 5 *
Ve
1e-07
690 1098.1 596.9
0 0

0101101
*
Ed
 1e-07 1 1 0
1  5 0 0 204
2  9 1 7 0 204
2  10 6 0 0 204
0

0101000
+173 8 -175 8 *
Ed
 1e-07 1 1 0
1  6 0 0 18
2  11 1 0 0 18
2  12 7 0 0 18
0

0101000
+182 5 -173 5 *
Wi

0101100
-180 0 -178 0 -176 0 +174 0 +172 6 +171 0 *
Fa
0  1e-07 1 0

0111000
+170 0 *
Ve
1.50000114e-07
672 1146 614
0 0

0101101
*
Ed
 1.5e-07 1 1 0
1  7 0 -185.137223768267 -168.037223768267
2  13 2 0 -185.137223768267 -168.037223768267
2  14 3 0 -185.137223768267 -168.037223768267
0

0101000
+181 5 -168 5 *
Ve
1.50000114e-07
672 1097.06062992126 614
0 0

0101101
*
Ed
 1e-07 1 1 0
1  8 0 708.104410184848 725.235968495772
2  15 2 0 708.104410184848 725.235968495772
2  16 7 0 708.104410184848 725.235968495772
0

0101000
+166 5 -182 5 *
Ed
 1.00000114e-07 1 1 0
1  9 0 95.0606299212599 144
2  17 2 11 95.0606299212599 144
2  18 8 0 95.0606299212599 144
0

0101000
+166 12 -168 12 *
Wi

0101100
+167 9 +180 9 +165 9 -164 10 *
Fa
0  1e-07 2 9

0111000
+163 0 *
Ve
1.5e-07
678 1146 614.9
0 0

0101101
*
Ed
 1.5e-07 1 1 0
1  10 0 -18.5 -0.5
2  19 3 0 -18.5 -0.5
2  20 4 0 -18.5 -0.5
0

0101000
+161 5 -179 5 *
Ve
1.5e-07
676 1146 614.9
0 0

0101101
*
Ed
 1e-07 1 1 0
1  11 0 766 768
2  21 3 0 766 768
2  22 9 0 766 768
0

0101000
+159 5 -161 5 *
Ve
1.50000227e-07
676 1146 614
0 0

0101101
*
Ed
 1.5e-07 1 1 0
1  12 0 42.3000000000001 43.2
2  23 3 9 42.3000000000001 43.2
2  24 10 10 42.3000000000001 43.2
0

0101000
+159 13 -157 13 *
Ed
 1.5e-07 1 1 0
1  13 0 379 383
2  25 3 9 379 383
2  26 8 10 379 383
0

0101000
+168 13 -157 13 *
Wi

0101100
-178 9 +160 9 +158 9 -156 0 +155 0 +167 9 *
Fa
0  1e-07 3 9

0111000
+154 0 *
Ve
2e-07
678 1302.1 614.9
0 0

0101101
*
Ed
 1.5e-07 1 1 0
1  14 0 0.5 156.599999999999
2  27 4 0 0.5 156.599999999999
2  28 9 0 0.5 156.599999999999
0

0101000
+161 5 -152 5 *
Ed
 2e-07 1 1 0
1  15 0 162.475 180.475
2  29 4 0 162.475 180.475
2  30 5 0 162.475 180.475
0

0101000
+152 5 -177 5 *
Wi

0101100
-151 0 -150 0 +176 0 +160 0 *
Fa
0  1e-07 4 0

0111000
+149 0 *
Ve
1.5e-07
690 1302.1 1320.8
0 0

0101101
*
Ve
2.00000455e-07
678 1302.1 1320.8
0 0

0101101
*
Ed
 1.5e-07 1 1 0
1  16 0 -130.5 -118.5
2  31 5 0 -130.5 -118.5
2  32 11 0 -130.5 -118.5
0

0101000
+147 5 -146 5 *
Ed
 1.5e-07 1 1 0
1  17 0 0.5 724.4
2  33 5 0 0.5 724.4
2  34 6 6 0.5 724.4
0

0101000
+175 5 -147 5 *
Ve
2e-07
672 1302.1 614.9
0 0

0101101
*
Ed
 2e-07 1 1 0
1  18 0 385.320318167686 391.320318167686
2  35 5 0 385.320318167686 391.320318167686
2  36 9 0 385.320318167686 391.320318167686
0

0101000
+143 5 -152 5 *
Ve
2e-07
672 1302.1 1302.8
0 0

0101101
*
Ed
 2e-07 1 1 0
1  19 0 -339.787776231733 348.112223768267
2  37 5 0 -339.787776231733 348.112223768267
2  38 12 0 -339.787776231733 348.112223768267
0

0101000
+141 5 -143 5 *
Ve
2e-07
678 1302.1 1302.8
0 0

0101101
*
Ed
 2e-07 1 1 0
1  20 0 385.320318167686 391.320318167686
2  39 5 0 385.320318167686 391.320318167686
2  40 13 0 385.320318167686 391.320318167686
0

0101000
+141 5 -139 5 *
Ed
 2e-07 1 1 0
1  21 0 -190.475 -172.475
2  41 5 0 -190.475 -172.475
2  42 14 14 -190.475 -172.475
0

0101000
+146 5 -139 5 *
Wi

0101100
+145 0 +144 0 -174 0 +150 0 +142 0 +140 0 -138 0 +137 0 *
Fa
0  1.5e-07 5 0

0111000
+136 0 *
Ve
1e-07
690 1054.1 1320.8
0 0

0101101
*
Ed
 1e-07 1 1 0
1  22 0 0 725.235968495772
2  43 6 0 0 725.235968495772
2  44 7 7 0 725.235968495772
0

0101000
+134 8 -173 8 *
Ed
 1e-07 1 1 0
1  23 0 6 254
2  45 6 0 6 254
2  46 11 7 6 254
0

0101000
+147 8 -134 8 *
Wi

0101100
+133 6 +132 6 +144 0 +172 6 *
Fa
0  1e-07 6 6

0111000
+131 0 *
Ve
2e-07
678 1054.1 1320.8
0 0

0101101
*
Ve
2e-07
678 1083.44548970852 838
0 0

0101101
*
Ed
 1e-07 1 1 0
1  24 0 -120.606724982795 363.084289784105
2  47 7 9 -120.606724982795 363.084289784105
2  48 14 0 -120.606724982795 363.084289784105
0

0101000
+129 13 -128 13 *
Ve
2e-07
672 1083.44548970852 838
0 0

0101101
*
Ed
 1.5e-07 1 1 0
1  25 0 -2.99999999999988 3.00000000000012
2  49 7 9 -2.99999999999988 3.00000000000012
2  50 15 15 -2.99999999999988 3.00000000000012
0

0101000
+126 13 -128 13 *
Ve
2e-07
672 1084.47878159967 821
0 0

0101101
*
Ed
 2e-07 1 1 0
1  26 0 483.6910147669 500.722388526297
2  51 7 0 483.6910147669 500.722388526297
2  52 12 0 483.6910147669 500.722388526297
0

0101000
+126 5 -124 5 *
Ve
1.50000227e-07
676 1084.47878159967 821
0 0

0101101
*
Ed
 1.5e-07 1 1 0
1  27 0 -1.99999999999988 2.00000000000012
2  53 7 9 -1.99999999999988 2.00000000000012
2  54 16 10 -1.99999999999988 2.00000000000012
0

0101000
+124 13 -122 13 *
Ve
1.50000227e-07
676 1097.06062992126 614
0 0

0101101
*
Ed
 1.5e-07 1 1 0
1  28 0 198.278157230178 405.660178888729
2  55 7 9 198.278157230178 405.660178888729
2  56 10 10 198.278157230178 405.660178888729
0

0101000
+122 13 -120 13 *
Ed
 1.5e-07 1 1 0
1  29 0 -1.99999999999988 2.00000000000012
2  57 7 9 -1.99999999999988 2.00000000000012
2  58 8 10 -1.99999999999988 2.00000000000012
0

0101000
+166 13 -120 13 *
Ed
 1e-07 1 1 0
1  30 0 5.99999999999977 18
2  59 7 0 5.99999999999977 18
2  60 11 0 5.99999999999977 18
0

0101000
+129 5 -134 5 *
Wi

0101000
-127 0 +125 0 -123 9 -121 0 -119 0 +118 0 -165 9 -171 9 +133 16 +117 9 
*
Fa
0  1e-07 7 9

0111000
+116 0 *
Ed
 1e-07 1 1 0
1  31 0 95.0606299212599 144
2  61 8 0 95.0606299212599 144
2  62 10 0 95.0606299212599 144
0

0101000
+120 12 -157 12 *
Wi

0101100
+118 0 -164 10 -155 0 +114 10 *
Fa
0  1e-07 8 10

0111000
+113 0 *
Ve
1.50000227e-07
676 1196.87032930885 614.9
0 0

0101101
*
Ed
 1.5e-07 1 1 0
1  32 0 23.7 74.5703293088491
2  63 9 9 23.7 74.5703293088491
2  64 10 10 23.7 74.5703293088491
0

0101000
+159 13 -111 13 *
Ve
2e-07
672 1196.87032930885 614.9
0 0

0101101
*
Ed
 1e-07 1 1 0
1  33 0 0 4.00000000000011
2  65 9 9 0 4.00000000000011
2  66 17 10 0 4.00000000000011
0

0101000
+111 13 -109 13 *
Ed
 2e-07 1 1 0
1  34 0 -133.216996061971 -27.9873253708206
2  67 9 0 -133.216996061971 -27.9873253708206
2  68 12 0 -133.216996061971 -27.9873253708206
0

0101000
+143 5 -109 5 *
Wi

0101100
-142 9 +151 9 +158 9 -110 0 -108 0 +107 9 *
Fa
0  1e-07 9 9

0111000
+106 0 *
Ve
1.00000079e-07
676 1195.2 821
0 0

0101101
*
Ed
 1e-07 1 1 0
1  35 0 82.4787815996684 193.2
2  69 10 0 82.4787815996684 193.2
2  70 16 0 82.4787815996684 193.2
0

0101000
+122 12 -104 12 *
Ve
1e-07
676 1197.2 819
0 0

0101101
*
Ed
 1e-07 1 1 0
1  36 0 0 1.5707963267949
2  71 10 0 0 1.5707963267949
2  72 18 0 0 1.5707963267949
0

0101000
+104 12 -102 12 *
Ve
1e-07
676 1197.2 616
0 0

0101101
*
Ed
 1e-07 1 1 0
1  37 0 0 203
2  73 10 0 0 203
2  74 19 0 0 203
0

0101000
+100 12 -102 12 *
Ed
 1e-07 1 1 0
1  38 0 1.5707963267949 2.15316056466366
2  75 10 0 1.5707963267949 2.15316056466366
2  76 17 0 1.5707963267949 2.15316056466366
0

0101000
+100 12 -111 12 *
Wi

0101100
+119 0 -103 10 -101 10 +99 10 -98 10 +110 0 -156 0 +114 10 *
Fa
0  1e-07 10 10

0111000
+97 0 *
Ed
 1e-07 1 1 0
1  39 0 -0.594073767094869 247.405926232905
2  77 11 9 -0.594073767094869 247.405926232905
2  78 14 0 -0.594073767094869 247.405926232905
0

0101000
+129 13 -146 13 *
Wi

0101000
-117 9 +132 16 -145 9 +95 0 *
Fa
0  1e-07 11 9

0111000
+94 0 *
Ve
2e-07
678 1120 1302.8
0 0

0101101
*
Ed
 2e-07 1 1 0
1  40 0 65.3059262329052 247.405926232905
2  79 13 0 65.3059262329052 247.405926232905
2  80 14 14 65.3059262329052 247.405926232905
0

0101000
+92 5 -139 5 *
Ve
2e-07
678 1120 840
0 0

0101101
*
Ed
 2e-07 1 1 0
1  41 0 0 462.8
2  81 20 0 0 462.8
2  82 14 17 0 462.8
0

0101000
+90 18 -92 18 *
Ve
2e-07
678 1118 838
0 0

0101101
*
Ed
 2e-07 1 1 0
1  42 0 1.5707963267949 3.14159265358979
2  83 21 0 1.5707963267949 3.14159265358979
2  84 14 19 1.5707963267949 3.14159265358979
0

0101000
+90 20 -88 20 *
Ed
 2e-07 1 1 0
1  43 0 81.4454897085233 116
2  85 15 0 81.4454897085233 116
2  86 14 19 81.4454897085233 116
0

0101000
+128 20 -88 20 *
Wi

0101000
-91 9 -89 2 +87 15 -86 15 -127 0 +95 0 +137 9 *
Fa
0  2e-07 14 0

0111000
+85 0 *
Ve
2e-07
672 1118 838
0 0

0101101
*
Ed
 2e-07 1 1 0
1  44 0 81.4454897085233 116
2  87 12 21 81.4454897085233 116
2  88 15 0 81.4454897085233 116
0

0101000
+126 20 -83 20 *
Ed
 1e-07 1 1 0
1  45 0 0 6
2  89 15 0 0 6
2  90 21 0 0 6
0

0101000
+88 20 -83 20 *
Wi

0101100
+125 0 -82 15 +81 15 +86 15 *
Fa
0  1e-07 15 15

0111000
+80 0 *
Ve
2e-07
672 1195.2 821
0 0

0101101
*
Ed
 2e-07 1 1 0
1  46 0 82.4787815996684 193.2
2  91 12 11 82.4787815996684 193.2
2  92 16 0 82.4787815996684 193.2
0

0101000
+124 12 -78 12 *
Ed
 1e-07 1 1 0
1  47 0 0 4
2  93 16 0 0 4
2  94 18 0 0 4
0

0101000
+104 12 -78 12 *
Wi

0101100
+121 0 -77 10 +76 10 +103 10 *
Fa
0  1e-07 16 10

0111000
+75 0 *
Ve
2e-07
672 1197.2 616
0 0

0101101
*
Ed
 2e-07 1 1 0
1  48 0 1.5707963267949 2.15316056466361
2  95 12 11 1.5707963267949 2.15316056466361
2  96 17 0 1.5707963267949 2.15316056466361
0

0101000
+73 12 -109 12 *
Ed
 1e-07 1 1 0
1  49 0 0 4
2  97 17 0 0 4
2  98 19 0 0 4
0

0101000
+100 12 -73 12 *
Wi

0101100
-72 10 +108 0 +98 10 -71 10 *
Fa
0  1e-07 17 10

0111000
+70 0 *
Ve
2e-07
672 1197.2 819
0 0

0101101
*
Ed
 2e-07 1 1 0
1  50 0 0 1.5707963267949
2  99 12 11 0 1.5707963267949
2  100 18 0 0 1.5707963267949
0

0101000
+78 12 -68 12 *
Ed
 1e-07 1 1 0
1  51 0 0 4
2  101 18 0 0 4
2  102 19 0 0 4
0

0101000
+102 12 -68 12 *
Wi

0101100
-67 10 +66 10 +101 10 -76 10 *
Fa
0  1e-07 18 10

0111000
+65 0 *
Ed
 2e-07 1 1 0
1  52 0 0 203
2  103 12 11 0 203
2  104 19 0 0 203
0

0101000
+73 12 -68 12 *
Wi

0101100
-99 10 -66 10 +63 10 +71 10 *
Fa
0  1e-07 19 10

0111000
+62 0 *
Ve
2e-07
672 1120 840
0 0

0101101
*
Ed
 2e-07 1 1 0
1  53 0 1.5707963267949 3.14159265358979
2  105 12 21 1.5707963267949 3.14159265358979
2  106 21 0 1.5707963267949 3.14159265358979
0

0101000
+60 20 -83 20 *
Ed
 1e-07 1 1 0
1  54 0 0 6
2  107 21 22 0 6
2  108 20 0 0 6
0

0101000
+60 18 -90 18 *
Wi

0101100
-59 15 +81 15 +87 15 +58 2 *
Fa
0  1e-07 21 15

0111000
+57 0 *
Ve
2e-07
672 1120 1302.8
0 0

0101101
*
Ed
 2e-07 1 1 0
1  55 0 -387 -381
2  109 13 1 -387 -381
2  110 20 0 -387 -381
0

0101000
+92 18 -55 18 *
Ed
 2e-07 1 1 0
1  56 0 0 462.8
2  111 12 1 0 462.8
2  112 20 0 0 462.8
0

0101000
+60 18 -55 18 *
Wi

0101100
-58 2 -89 2 -54 2 +53 2 *
Fa
0  1e-07 20 2

0111000
+52 0 *
Ve
2e-07
672 1208.8 1302.8
0 0

0101101
*
Ed
 2e-07 1 1 0
1  57 0 -85.3199591784241 3.48004082157581
2  113 12 0 -85.3199591784241 3.48004082157581
2  114 13 0 -85.3199591784241 3.48004082157581
0

0101000
+50 5 -55 5 *
Ve
2e-07
672 1208.8 854
0 0

0101101
*
Ed
 2e-07 1 1 0
1  58 0 0 448.8
2  115 23 0 0 448.8
2  116 24 0 0 448.8
0

0101000
+48 27 -50 27 *
Ve
2e-07
672 1210.8 852
0 0

0101101
*
Ed
 2e-07 1 1 0
1  59 0 3.14159265358979 4.71238898038469
2  117 25 0 3.14159265358979 4.71238898038469
2  118 26 0 3.14159265358979 4.71238898038469
0

0101000
+46 27 -48 27 *
Ve
2e-07
672 1225.2 852
0 0

0101101
*
Ed
 2e-07 1 1 0
1  60 0 0 14.4000000000001
2  119 27 0 0 14.4000000000001
2  120 28 0 0 14.4000000000001
0

0101000
+46 27 -44 27 *
Ve
2e-07
672 1227.2 854
0 0

0101101
*
Ed
 2e-07 1 1 0
1  61 0 1.5707963267949 3.14159265358979
2  121 29 0 1.5707963267949 3.14159265358979
2  122 30 0 1.5707963267949 3.14159265358979
0

0101000
+42 27 -44 27 *
Ve
2e-07
672 1227.2 1302.8
0 0

0101101
*
Ed
 2e-07 1 1 0
1  62 0 0 448.8
2  123 31 0 0 448.8
2  124 24 0 0 448.8
0

0101000
+42 27 -40 27 *
Ed
 1e-07 1 1 0
1  63 0 -178.619959178424 -103.719959178424
0

0101000
+141 0 -40 0 *
Wi

0101000
+140 4 +107 4 -72 23 +63 23 -67 23 -77 23 -123 4 +82 24 -59 24 +53 25 
-49 4 -47 26 -45 26 +43 26 -41 26 +39 26 -38 0 *
Fa
0  2e-07 22 0

0111000
+37 0 *
Ve
1e-07
1208.8 -676 854
0 0

0101101
*
Ve
2e-07
676 1208.8 1302.8
0 0

0101101
*
Ed
 1e-07 1 1 0
1  64 0 0 448.8
2  125 23 0 0 448.8
2  126 32 0 0 448.8
0

0101000
+35 0 -34 27 *
Ed
 2e-07 1 1 0
1  65 0 -383 -379
2  127 13 4 -383 -379
2  128 23 26 -383 -379
0

0101000
+34 0 -50 0 *
Ed
 1e-07 1 1 0
1  66 0 0 4
2  129 23 0 0 4
2  130 33 0 0 4
2  131 25 0 0 4
0

0101000
+35 0 -48 27 *
Wi

0101100
-33 26 -32 0 +47 26 +31 26 *
Fa
0  1e-07 23 26

0101000
+30 0 *
Ve
1.00000079328311e-07
1210.8 -676 852
0 0

0101101
*
Ed
 1e-07 1 1 0
1  67 0 3.14159265358979 4.71238898038469
2  132 25 0 3.14159265358979 4.71238898038469
2  133 34 0 3.14159265358979 4.71238898038469
0

0101000
+28 0 -35 0 *
Ed
 1e-07 1 1 0
1  68 0 0 4
2  134 35 0 0 4
2  135 28 0 0 4
2  136 25 0 0 4
0

0101000
+28 0 -46 27 *
Wi

0101100
-45 26 +31 26 +27 26 -26 26 *
Fa
0  1e-07 25 26

0101000
+25 0 *
Ve
1.00000079328311e-07
1225.2 -676 852
0 0

0101101
*
Ed
 1e-07 1 1 0
1  69 0 0 4
2  137 36 0 0 4
2  138 28 0 0 4
2  139 29 0 0 4
0

0101000
+23 0 -44 27 *
Ed
 1e-07 1 1 0
1  70 0 0 14.4000000000001
2  140 37 0 0 14.4000000000001
2  141 28 0 0 14.4000000000001
0

0101000
+28 0 -23 0 *
Wi

0101100
-26 26 -43 26 +22 26 +21 26 *
Fa
0  1e-07 28 26

0101000
+20 0 *
Ve
1e-07
1227.2 -676 854
0 0

0101101
*
Ed
 1e-07 1 1 0
1  71 0 1.5707963267949 3.14159265358979
2  142 29 0 1.5707963267949 3.14159265358979
2  143 38 0 1.5707963267949 3.14159265358979
0

0101000
+18 0 -23 0 *
Ed
 1e-07 1 1 0
1  72 0 0 4
2  144 31 0 0 4
2  145 33 0 0 4
2  146 29 0 0 4
0

0101000
+18 0 -42 27 *
Wi

0101100
-41 26 +22 26 +17 26 -16 26 *
Fa
0  1e-07 29 26

0101000
+15 0 *
Ve
2e-07
676 1227.2 1302.8
0 0

0101101
*
Ed
 1e-07 1 1 0
1  73 0 0 448.8
2  147 31 0 0 448.8
2  148 32 0 0 448.8
0

0101000
+18 0 -13 27 *
Ed
 2e-07 1 1 0
1  74 0 -383 -379
2  149 13 4 -383 -379
2  150 31 26 -383 -379
0

0101000
+13 0 -40 0 *
Wi

0101100
-12 26 -11 0 +39 26 +16 26 *
Fa
0  1e-07 31 26

0101000
+10 0 *
Ed
 2e-07 1 1 0
1  75 0 72.2029631164528 90.6029631164529
2  151 13 4 72.2029631164528 90.6029631164529
2  152 39 26 72.2029631164528 90.6029631164529
0

0101000
+34 0 -13 0 *
Wi

0101100
-27 26 -33 26 -8 0 +12 26 -17 26 +21 26 *
Fa
0  1e-07 39 26

0101000
+7 0 *
Wi

0101000
-138 4 +38 0 -11 0 -8 0 +32 0 +49 4 -54 25 +91 4 *
Fa
0  2e-07 40 0

0111000
+5 0 *
Sh

0101000
-169 4 -162 3 +153 3 -148 4 -135 4 +130 4 -115 3 +112 3 -105 3 -96 3 
-93 3 +84 3 +79 3 -74 3 -69 3 -64 3 -61 3 -56 3 -51 3 +36 0 
+29 0 -24 0 +19 0 -14 0 -9 0 -6 0 +4 0 *
So

0100000
+3 0 *
Co

0100000
+2 0 *

+1 0 