DBRep_DrawableShape

CASCADE Topology V1, (c) Matra-Datavision
Locations 2
1
              1               0               0               0 
              0               1               0               0 
              0               0               1               0 
2  1 -1 0
Curve2ds 84
1 0 0 0 1 
1 122 -12.256097560975377 -1 0 
1 0 244 1 0 
1 -58.645569620253127 20.354430379746418 1 0 
1 110 0 0 1 
1 -122 -24 1 0 
1 0 0 1 0 
1 58.645569620253127 20.354430379746418 -1 0 
1 -51.354430379746873 20.354430379746418 0 -1 
1 -122 -24 0 1 
1 -39.354430379746873 -27.645569620253582 -1 0 
1 20.238938053097399 -122 1 0 
1 26.645569620253127 8.3544303797464181 0 -1 
1 0 0 0 1 
1 58.645569620253127 8.3544303797464181 -1 0 
1 0 0 1 0 
1 58.645569620253127 20.354430379746418 0 -1 
1 122 -12.256097560975377 0 1 
1 0 3 1 0 
1 0 0 1 0 
1 32 0 0 1 
1 0 0 1 0 
1 0 0 0 1 
1 122 -0.25609756097537684 -1 0 
1 32 0 0 -1 
1 3 0 0 1 
1 0 -36 1 0 
1 -77.761061946902601 -119 1 0 
1 0 0 0 -1 
1 119 -0.25609756097537684 0 1 
1 0 36 1 0 
1 -45.761061946902601 -122 0 1 
1 122 -24 0 1 
1 51.354430379746873 20.354430379746418 0 -1 
1 -122 24 1 0 
1 32.238938053097399 -122 0 1 
1 122 35.743902439024623 -1 0 
1 -77.761061946902601 -122 0 1 
1 110 -0.25609756097537684 0 1 
1 0 0 0 -1 
1 122 -0.25609756097537684 -1 0 
1 0 0 0 1 
1 -110 -0.25609756097537684 0 1 
1 0 0 0 -1 
1 -110 35.743902439024623 -1 0 
1 -77.761061946902601 110 0 1 
1 -119 -0.25609756097537684 0 1 
1 0 0 0 -1 
1 122 -0.25609756097537684 -1 0 
1 0 0 0 1 
1 -122 -12.256097560975377 0 1 
1 -58.645569620253127 20.354430379746418 0 -1 
1 0 232 1 0 
1 0 0 1 0 
1 98 0 0 1 
1 0 0 1 0 
1 0 12 1 0 
1 0 0 1 0 
1 98 0 0 -1 
1 12 0 0 1 
1 0 -36 1 0 
1 -77.761061946902601 -110 1 0 
1 0 36 1 0 
1 20.238938053097399 -122 0 1 
1 232 0 0 1 
1 98 0 0 -1 
1 0 -36 1 0 
1 -77.761061946902601 110 1 0 
1 0 244 1 0 
1 -58.645569620253127 8.3544303797464181 1 0 
1 32 241 0 1 
1 0 0 1 0 
1 0 241 1 0 
1 0 0 1 0 
1 32 0 0 -1 
1 0 0 0 1 
1 0 -36 1 0 
1 -77.761061946902601 119 1 0 
1 0 36 1 0 
1 -45.761061946902601 119 0 1 
1 3 0 0 1 
1 -26.645569620253127 8.3544303797464181 0 -1 
1 -58.645569620253127 -27.645569620253582 1 0 
1 -77.761061946902601 122 1 0 
Curves 42
1 3 1262.0999999999999 686 1 0 -0 
1 247 1262.0999999999999 686 0 0 1 
1 3 1262.0999999999999 796 1 0 -0 
1 3 1262.0999999999999 686 0 0 1 
1 3 1262.0999999999999 796 -0 1 0 
1 3 1310.0999999999999 784 0 0 1 
1 3 1274.0999999999999 718 -0 1 0 
1 3 1274.0999999999999 686 0 0 1 
1 3 1262.0999999999999 686 -0 1 0 
1 6 1274.0999999999999 686 0 0 1 
1 3 1274.0999999999999 718 1 0 -0 
1 3 1274.0999999999999 686 1 0 -0 
1 6 1274.0999999999999 718 -0 1 0 
1 6 1310.0999999999999 686 0 0 1 
1 6 1274.0999999999999 686 -0 1 0 
1 3 1310.0999999999999 718 1 0 -0 
1 247 1262.0999999999999 796 -0 1 0 
1 3 1310.0999999999999 796 1 0 -0 
1 3 1310.0999999999999 686 1 0 -0 
1 15 1274.0999999999999 686 -0 1 0 
1 3 1274.0999999999999 686 1 0 -0 
1 235 1274.0999999999999 686 -0 1 0 
1 235 1310.0999999999999 686 1 0 -0 
1 244 1274.0999999999999 686 -0 1 0 
1 3 1274.0999999999999 686 1 0 -0 
1 247 1262.0999999999999 686 -0 1 0 
1 235 1274.0999999999999 686 0 0 1 
1 3 1274.0999999999999 784 1 0 -0 
1 15 1274.0999999999999 686 0 0 1 
1 15 1274.0999999999999 784 -0 1 0 
1 15 1310.0999999999999 686 0 0 1 
1 3 1310.0999999999999 784 1 0 -0 
1 235 1274.0999999999999 784 -0 1 0 
1 235 1310.0999999999999 686 0 0 1 
1 247 1274.0999999999999 686 0 0 1 
1 244 1274.0999999999999 718 1 0 -0 
1 244 1274.0999999999999 686 0 0 1 
1 244 1274.0999999999999 718 -0 1 0 
1 244 1310.0999999999999 686 0 0 1 
1 244 1310.0999999999999 718 1 0 -0 
1 247 1274.0999999999999 718 -0 1 0 
1 247 1310.0999999999999 686 0 0 1 
Polygon3D 0
PolygonOnTriangulations 0
Surfaces 16
1 3 1262.0999999999999 686 -0 1 0 0 0 1 1 0 -0 
1 125 1274.3560975609753 686 -0 -0 -1 -1 0 0 0 1 -0 
1 247 1282.4544303797463 744.64556962025313 1 0 0 -0 0 1 0 -1 0 
1 125 1286.0999999999999 796 0 0 1 1 0 -0 -0 1 0 
1 3 1282.4544303797463 744.64556962025313 -1 -0 -0 0 0 -1 0 -1 0 
1 125 1310.0999999999999 763.7610619469026 0 1 0 0 -0 1 1 0 -0 
1 3 1274.0999999999999 718 0 0 1 1 0 -0 -0 1 0 
1 3 1274.0999999999999 686 -0 1 0 0 0 1 1 0 -0 
1 6 1274.0999999999999 686 1 0 -0 0 0 1 0 -1 0 
1 15 1274.0999999999999 686 1 0 -0 0 0 1 0 -1 0 
1 3 1274.0999999999999 686 -0 1 0 0 0 1 1 0 -0 
1 235 1274.0999999999999 686 1 0 -0 0 0 1 0 -1 0 
1 244 1274.0999999999999 686 1 0 -0 0 0 1 0 -1 0 
1 3 1274.0999999999999 686 -0 1 0 0 0 1 1 0 -0 
1 3 1274.0999999999999 784 0 0 1 1 0 -0 -0 1 0 
1 244 1274.0999999999999 718 0 0 1 1 0 -0 -0 1 0 
Triangulations 0

TShapes 105
Ve
1e-07
247 1262.1 686
0 0

0101101
*
Ve
1e-07
3 1262.1 686
0 0

0101101
*
Ed
 1e-07 1 1 0
1  1 0 0 244
2  1 1 0 0 244
2  2 2 0 0 244
0

0101000
-105 2 +104 2 *
Ve
1e-07
247 1262.1 796
0 0

0101101
*
Ed
 1e-07 1 1 0
1  2 0 0 110
2  3 1 0 0 110
2  4 3 0 0 110
0

0101000
-102 2 +105 2 *
Ve
1e-07
3 1262.1 796
0 0

0101101
*
Ed
 1e-07 1 1 0
1  3 0 0 244
2  5 1 0 0 244
2  6 4 0 0 244
0

0101000
-102 2 +100 2 *
Ed
 1e-07 1 1 0
1  4 0 0 110
2  7 1 0 0 110
2  8 5 0 0 110
0

0101000
-100 2 +104 2 *
Wi

0101100
-103 0 -101 0 +99 0 +98 0 *
Fa
0  1e-07 1 0

0111000
+97 0 *
Ve
1e-07
3 1310.1 796
0 0

0101101
*
Ed
 1e-07 1 1 0
1  5 0 0 48
2  9 5 0 0 48
2  10 4 0 0 48
0

0101000
+100 2 -95 2 *
Ve
1e-07
3 1310.1 718
0 0

0101101
*
Ed
 1e-07 1 1 0
1  6 0 -66 12
2  11 5 0 -66 12
2  12 6 0 -66 12
0

0101000
+93 2 -95 2 *
Ve
1e-07
3 1274.1 718
0 0

0101101
*
Ed
 1e-07 1 1 0
1  7 0 0 36
2  13 5 0 0 36
2  14 7 0 0 36
0

0101000
+91 2 -93 2 *
Ve
1e-07
3 1274.1 686
0 0

0101101
*
Ed
 1e-07 1 1 0
1  8 0 0 32
2  15 5 0 0 32
2  16 8 0 0 32
0

0101000
+89 2 -91 2 *
Ed
 1e-07 1 1 0
1  9 0 0 12
2  17 5 0 0 12
2  18 2 0 0 12
0

0101000
-89 2 +104 2 *
Wi

0101000
+98 0 +94 0 -92 0 -90 0 -88 0 -87 0 *
Fa
0  1e-07 5 0

0111000
+86 0 *
Ve
1e-07
6 1274.1 686
0 0

0101101
*
Ve
1e-07
6 1274.1 718
0 0

0101101
*
Ed
 1e-07 1 1 0
1  10 0 0 32
2  19 8 0 0 32
2  20 9 0 0 32
0

0101000
+84 2 -83 2 *
Ed
 1e-07 1 1 0
1  11 0 0 3
2  21 8 0 0 3
2  22 7 0 0 3
0

0101000
+91 2 -83 2 *
Ed
 1e-07 1 1 0
1  12 0 0 3
2  23 8 0 0 3
2  24 2 0 0 3
0

0101000
+89 2 -84 2 *
Wi

0101100
-82 0 +81 0 +88 0 -80 0 *
Fa
0  1e-07 8 0

0111000
+79 0 *
Ve
1e-07
6 1310.1 718
0 0

0101101
*
Ed
 1e-07 1 1 0
1  13 0 0 36
2  25 9 0 0 36
2  26 7 0 0 36
0

0101000
+83 2 -77 2 *
Ve
1e-07
6 1310.1 686
0 0

0101101
*
Ed
 1e-07 1 1 0
1  14 0 0 32
2  27 9 0 0 32
2  28 6 0 0 32
0

0101000
+75 2 -77 2 *
Ed
 1e-07 1 1 0
1  15 0 0 36
2  29 9 0 0 36
2  30 2 0 0 36
0

0101000
+84 2 -75 2 *
Wi

0101100
-82 0 -76 0 +74 0 +73 0 *
Fa
0  1e-07 9 0

0111000
+72 0 *
Ed
 1e-07 1 1 0
1  16 0 0 3
2  31 7 0 0 3
2  32 6 0 0 3
0

0101000
+93 2 -77 2 *
Wi

0101100
-90 0 -70 0 +76 0 +81 0 *
Fa
0  1e-07 7 0

0111000
+69 0 *
Ve
1e-07
247 1310.1 796
0 0

0101101
*
Ed
 1e-07 1 1 0
1  17 0 0 48
2  33 4 0 0 48
2  34 3 0 0 48
0

0101000
+102 2 -67 2 *
Ed
 1e-07 1 1 0
1  18 0 0 244
2  35 4 0 0 244
2  36 6 0 0 244
0

0101000
-67 2 +95 2 *
Wi

0101000
-94 0 +99 0 +66 0 -65 0 *
Fa
0  1e-07 4 0

0111000
+64 0 *
Ve
1e-07
15 1310.1 686
0 0

0101101
*
Ed
 1e-07 1 1 0
1  19 0 3 12
2  37 2 0 3 12
2  38 6 0 3 12
0

0101000
+75 2 -62 2 *
Ve
1e-07
15 1274.1 686
0 0

0101101
*
Ed
 1e-07 1 1 0
1  20 0 0 36
2  39 2 0 0 36
2  40 10 0 0 36
0

0101000
+60 2 -62 2 *
Ve
1e-07
235 1274.1 686
0 0

0101101
*
Ed
 1e-07 1 1 0
1  21 0 12 232
2  41 2 0 12 232
2  42 11 0 12 232
0

0101000
+60 2 -58 2 *
Ve
1e-07
235 1310.1 686
0 0

0101101
*
Ed
 1e-07 1 1 0
1  22 0 0 36
2  43 2 0 0 36
2  44 12 0 0 36
0

0101000
+58 2 -56 2 *
Ve
1e-07
244 1310.1 686
0 0

0101101
*
Ed
 1e-07 1 1 0
1  23 0 0 9
2  45 2 0 0 9
2  46 6 0 0 9
0

0101000
+56 2 -54 2 *
Ve
1e-07
244 1274.1 686
0 0

0101101
*
Ed
 1e-07 1 1 0
1  24 0 0 36
2  47 2 0 0 36
2  48 13 0 0 36
0

0101000
+52 2 -54 2 *
Ve
1e-07
247 1274.1 686
0 0

0101101
*
Ed
 1e-07 1 1 0
1  25 0 241 244
2  49 2 0 241 244
2  50 14 0 241 244
0

0101000
+52 2 -50 2 *
Ed
 1e-07 1 1 0
1  26 0 0 12
2  51 2 0 0 12
2  52 3 0 0 12
0

0101000
-50 2 +105 2 *
Wi

0101100
+87 0 +80 0 +73 0 +61 0 -59 0 +57 0 +55 0 +53 0 -51 0 +49 0 
-48 0 -103 0 *
Fa
0  1e-07 2 0

0111000
+47 0 *
Ve
1e-07
235 1274.1 784
0 0

0101101
*
Ed
 1e-07 1 1 0
1  27 0 0 98
2  53 11 0 0 98
2  54 12 0 0 98
0

0101000
+58 2 -45 2 *
Ve
1e-07
15 1274.1 784
0 0

0101101
*
Ed
 1e-07 1 1 0
1  28 0 12 232
2  55 11 0 12 232
2  56 15 0 12 232
0

0101000
+43 2 -45 2 *
Ed
 1e-07 1 1 0
1  29 0 0 98
2  57 11 0 0 98
2  58 10 0 0 98
0

0101000
+60 2 -43 2 *
Wi

0101100
-44 0 +42 0 +41 0 -57 0 *
Fa
0  1e-07 11 0

0111000
+40 0 *
Ve
1e-07
15 1310.1 784
0 0

0101101
*
Ed
 1e-07 1 1 0
1  30 0 0 36
2  59 10 0 0 36
2  60 15 0 0 36
0

0101000
+43 2 -38 2 *
Ed
 1e-07 1 1 0
1  31 0 0 98
2  61 10 0 0 98
2  62 6 0 0 98
0

0101000
+62 2 -38 2 *
Wi

0101100
-41 0 -37 0 +36 0 +59 0 *
Fa
0  1e-07 10 0

0111000
+35 0 *
Ve
1e-07
235 1310.1 784
0 0

0101101
*
Ed
 1e-07 1 1 0
1  32 0 12 232
2  63 15 0 12 232
2  64 6 0 12 232
0

0101000
+38 2 -33 2 *
Ed
 1e-07 1 1 0
1  33 0 0 36
2  65 15 0 0 36
2  66 12 0 0 36
0

0101000
+45 2 -33 2 *
Wi

0101100
-37 0 -32 0 +31 0 +42 0 *
Fa
0  1e-07 15 0

0111000
+30 0 *
Ed
 1e-07 1 1 0
1  34 0 0 98
2  67 12 0 0 98
2  68 6 0 0 98
0

0101000
+56 2 -33 2 *
Wi

0101100
-44 0 -31 0 +28 0 +55 0 *
Fa
0  1e-07 12 0

0111000
+27 0 *
Ve
1e-07
247 1274.1 718
0 0

0101101
*
Ed
 1e-07 1 1 0
1  35 0 0 32
2  69 14 0 0 32
2  70 3 0 0 32
0

0101000
+50 2 -25 2 *
Ve
1e-07
244 1274.1 718
0 0

0101101
*
Ed
 1e-07 1 1 0
1  36 0 0 3
2  71 14 0 0 3
2  72 16 0 0 3
0

0101000
+23 2 -25 2 *
Ed
 1e-07 1 1 0
1  37 0 0 32
2  73 14 0 0 32
2  74 13 0 0 32
0

0101000
+52 2 -23 2 *
Wi

0101100
-24 0 +22 0 +21 0 -49 0 *
Fa
0  1e-07 14 0

0111000
+20 0 *
Ve
1e-07
244 1310.1 718
0 0

0101101
*
Ed
 1e-07 1 1 0
1  38 0 0 36
2  75 13 0 0 36
2  76 16 0 0 36
0

0101000
+23 2 -18 2 *
Ed
 1e-07 1 1 0
1  39 0 0 32
2  77 13 0 0 32
2  78 6 0 0 32
0

0101000
+54 2 -18 2 *
Wi

0101100
-21 0 -17 0 +16 0 +51 0 *
Fa
0  1e-07 13 0

0111000
+15 0 *
Ve
1e-07
247 1310.1 718
0 0

0101101
*
Ed
 1e-07 1 1 0
1  40 0 0 3
2  79 16 0 0 3
2  80 6 0 0 3
0

0101000
+18 2 -13 2 *
Ed
 1e-07 1 1 0
1  41 0 0 36
2  81 16 0 0 36
2  82 3 0 0 36
0

0101000
+25 2 -13 2 *
Wi

0101100
-17 0 -12 0 +11 0 +22 0 *
Fa
0  1e-07 16 0

0111000
+10 0 *
Ed
 1e-07 1 1 0
1  42 0 32 110
2  83 3 0 32 110
2  84 6 0 32 110
0

0101000
+13 2 -67 2 *
Wi

0101000
-101 0 +48 0 +24 0 +11 0 +8 0 -66 0 *
Fa
0  1e-07 3 0

0111000
+7 0 *
Wi

0101000
-61 0 +74 0 -70 0 +92 0 +65 0 -8 0 -12 0 -16 0 -53 0 +28 0 
-32 0 -36 0 *
Fa
0  1e-07 6 0

0111000
+5 0 *
Sh

0101000
-96 0 +85 0 +78 0 -71 0 -68 0 +63 0 +46 0 +39 0 +34 0 -29 0 
-26 0 +19 0 +14 0 -9 0 +6 0 +4 0 *
So

0100000
+3 0 *
Co

1100000
+2 0 *

+1 1 