DBRep_DrawableShape

CASCADE Topology V1, (c) Matra-Datavision
Locations 10
1
              1               0               0               0 
              0               1               0               0 
              0               0               1               0 
1
              1               0               0               0 
              0               1               0               6 
              0               0               1               0 
2  1 -1 2 -1 0
1
              1               0               0               0 
              0               1               0               0 
              0               0               1               0 
2  4 -1 0
2  1 -1 2 -1 4 -1 0
1
              1               0               0               0 
              0               1               0             -12 
              0               0               1               0 
2  4 1 7 1 0
2  7 -1 4 -1 0
2  1 -1 2 -1 7 -1 4 -1 0
Curve2ds 48
1 240 0 0 -1 
1 0 0 0 -1 
1 0 0 0 -1 
1 0 0 0 -1 
1 0 0 1 0 
1 0 0 0 1 
1 0 -12 1 0 
1 0 0 0 1 
1 100 0 0 -1 
1 240 0 0 -1 
1 0 0 1 0 
1 0 240 1 0 
1 0 -12 1 0 
1 0 240 1 0 
1 100 0 0 -1 
1 0 0 0 -1 
1 0 0 1 0 
1 0 0 1 0 
1 0 -12 1 0 
1 0 0 1 0 
1 0 0 1 0 
1 100 0 0 1 
1 0 -12 1 0 
1 100 0 0 1 
1 0 0 0 -1 
1 0 0 0 -1 
1 220 0 0 -1 
1 0 0 0 -1 
1 -5 0 1 0 
8 5 225
1 90 5 0 1 
1 -5 -12 1 0 
8 5 225
1 90 5 0 1 
1 80 0 0 -1 
1 220 0 0 -1 
1 85 0 1 0 
8 -85 -5
1 5 230 -1 0 
1 85 -12 1 0 
8 -85 -5
1 5 230 -1 0 
1 0 0 0 -1 
1 80 0 0 -1 
1 -5 0 1 0 
8 5 225
1 10 5 0 1 
1 -5 -12 1 0 
8 5 225
1 10 5 0 1 
1 85 0 1 0 
8 -85 -5
1 5 10 -1 0 
1 85 -12 1 0 
8 -85 -5
1 5 10 -1 0 
Curves 24
1 595 1328.0999999999999 688 0 -1 0 
1 355 1328.0999999999999 688 0 -1 0 
1 355 1328.0999999999999 688 1 0 -0 
1 355 1328.0999999999999 688 1 0 -0 
1 595 1328.0999999999999 788 0 -1 0 
1 595 1328.0999999999999 688 0 0 1 
1 595 1328.0999999999999 688 0 0 1 
1 355 1328.0999999999999 788 0 -1 0 
1 355 1328.0999999999999 688 0 0 1 
1 355 1328.0999999999999 688 0 0 1 
1 355 1328.0999999999999 788 1 0 -0 
1 355 1328.0999999999999 788 1 0 -0 
1 365 1328.0999999999999 778 0 -1 0 
1 585 1328.0999999999999 778 0 -1 0 
1 360 1328.0999999999999 778 1 0 -0 
1 360 1328.0999999999999 778 1 0 -0 
1 585 1328.0999999999999 698 0 -1 0 
1 585 1328.0999999999999 693 -0 0 -1 
1 585 1328.0999999999999 693 -0 0 -1 
1 365 1328.0999999999999 698 0 -1 0 
1 360 1328.0999999999999 698 1 0 -0 
1 360 1328.0999999999999 698 1 0 -0 
1 365 1328.0999999999999 693 -0 0 -1 
1 365 1328.0999999999999 693 -0 0 -1 
Polygon3D 0
PolygonOnTriangulations 0
Surfaces 10
1 355 1328.0999999999999 688 -0 0 1 1 0 0 0 1 -0 
1 595 1328.0999999999999 688 -1 0 0 0 0 1 0 1 -0 
1 355 1328.0999999999999 688 -1 0 0 0 0 1 0 1 -0 
1 355 1328.0999999999999 688 -0 1 0 0 0 1 1 0 -0 
1 355 1328.0999999999999 688 -0 1 0 0 0 1 1 0 -0 
1 355 1328.0999999999999 788 -0 0 1 1 0 0 0 1 -0 
1 365 1328.0999999999999 778 -0 0 1 1 0 0 0 1 -0 
1 365 1328.0999999999999 778 1 0 0 0 0 -1 -0 1 0 
1 585 1328.0999999999999 778 1 0 0 0 0 -1 -0 1 0 
1 365 1328.0999999999999 698 -0 0 1 1 0 0 0 1 -0 
Triangulations 0

TShapes 64
Ve
1e-07
595 1334.1 688
0 0

0101101
*
Ve
1e-07
595 1322.1 688
0 0

0101101
*
Ed
 1e-07 1 1 0
1  1 0 0 12
2  1 1 0 0 12
2  2 2 0 0 12
0

0101000
+64 3 -63 3 *
Ve
1e-07
355 1334.1 688
0 0

0101101
*
Ve
1e-07
355 1322.1 688
0 0

0101101
*
Ed
 1e-07 1 1 0
1  2 0 0 12
2  3 1 0 0 12
2  4 3 0 0 12
0

0101000
+61 3 -60 3 *
Ed
 1e-07 1 1 0
1  3 0 0 240
2  5 1 5 0 240
2  6 4 0 0 240
0

0101000
-64 6 +61 6 *
Ed
 1e-07 1 1 0
1  4 0 0 240
2  7 1 9 0 240
2  8 5 0 0 240
0

0101000
-63 10 +60 10 *
Wi

0101100
-62 0 +59 0 -58 4 +57 8 *
Fa
0  1e-07 1 0

0111000
+56 0 *
Ve
1e-07
595 1334.1 788
0 0

0101101
*
Ve
1e-07
595 1322.1 788
0 0

0101101
*
Ed
 1e-07 1 1 0
1  5 0 0 12
2  9 2 0 0 12
2  10 6 0 0 12
0

0101000
+54 3 -53 3 *
Ed
 1e-07 1 1 0
1  6 0 0 100
2  11 2 5 0 100
2  12 4 0 0 100
0

0101000
-54 6 +64 6 *
Ed
 1e-07 1 1 0
1  7 0 0 100
2  13 2 9 0 100
2  14 5 0 0 100
0

0101000
-53 10 +63 10 *
Wi

0101100
-52 0 +62 0 -51 4 +50 8 *
Fa
0  1e-07 2 0

0111000
+49 0 *
Ve
1e-07
355 1334.1 788
0 0

0101101
*
Ve
1e-07
355 1322.1 788
0 0

0101101
*
Ed
 1e-07 1 1 0
1  8 0 0 12
2  15 3 0 0 12
2  16 6 0 0 12
0

0101000
+47 3 -46 3 *
Ed
 1e-07 1 1 0
1  9 0 0 100
2  17 3 5 0 100
2  18 4 0 0 100
0

0101000
-47 6 +61 6 *
Ed
 1e-07 1 1 0
1  10 0 0 100
2  19 3 9 0 100
2  20 5 0 0 100
0

0101000
-46 10 +60 10 *
Wi

0101100
-45 0 +59 0 -44 4 +43 8 *
Fa
0  1e-07 3 0

0111000
+42 0 *
Ed
 1e-07 1 1 0
1  11 0 0 240
2  21 6 5 0 240
2  22 4 0 0 240
0

0101000
-54 6 +47 6 *
Ed
 1e-07 1 1 0
1  12 0 0 240
2  23 6 9 0 240
2  24 5 0 0 240
0

0101000
-53 10 +46 10 *
Wi

0101100
-52 0 +45 0 -40 4 +39 8 *
Fa
0  1e-07 6 0

0111000
+38 0 *
Ve
1.5e-07
365 1334.1 778
0 0

0101101
*
Ve
1.5e-07
365 1322.1 778
0 0

0101101
*
Ed
 1.5e-07 1 1 0
1  13 0 0 12
2  25 7 0 0 12
2  26 8 0 0 12
0

0101000
+36 3 -35 3 *
Ve
1.5e-07
585 1334.1 778
0 0

0101101
*
Ve
1.5e-07
585 1322.1 778
0 0

0101101
*
Ed
 1.5e-07 1 1 0
1  14 0 0 12
2  27 7 0 0 12
2  28 9 0 0 12
0

0101000
+33 3 -32 3 *
Ed
 1.5e-07 1 1 0
1  15 0 5 225
2  29 7 5 5 225
2  30 4 0 5 225
0

0101000
+36 6 -33 6 *
Ed
 1.5e-07 1 1 0
1  16 0 5 225
2  31 7 9 5 225
2  32 5 0 5 225
0

0101000
+35 10 -32 10 *
Wi

0101100
+34 0 -31 0 -30 4 +29 8 *
Fa
0  1.5e-07 7 0

0111000
+28 0 *
Ve
1.5e-07
585 1334.1 698
0 0

0101101
*
Ve
1.5e-07
585 1322.1 698
0 0

0101101
*
Ed
 1.5e-07 1 1 0
1  17 0 0 12
2  33 9 0 0 12
2  34 10 0 0 12
0

0101000
+26 3 -25 3 *
Ed
 1.5e-07 1 1 0
1  18 0 -85 -5
2  35 9 5 -85 -5
2  36 4 0 -85 -5
0

0101000
+33 6 -26 6 *
Ed
 1.5e-07 1 1 0
1  19 0 -85 -5
2  37 9 9 -85 -5
2  38 5 0 -85 -5
0

0101000
+32 10 -25 10 *
Wi

0101100
+31 0 -24 0 -23 4 +22 8 *
Fa
0  1.5e-07 9 0

0111000
+21 0 *
Ve
1.5e-07
365 1334.1 698
0 0

0101101
*
Ve
1.5e-07
365 1322.1 698
0 0

0101101
*
Ed
 1.5e-07 1 1 0
1  20 0 0 12
2  39 10 0 0 12
2  40 8 0 0 12
0

0101000
+19 3 -18 3 *
Ed
 1.5e-07 1 1 0
1  21 0 5 225
2  41 10 5 5 225
2  42 4 0 5 225
0

0101000
+19 6 -26 6 *
Ed
 1.5e-07 1 1 0
1  22 0 5 225
2  43 10 9 5 225
2  44 5 0 5 225
0

0101000
+18 10 -25 10 *
Wi

0101100
+17 0 -24 0 -16 4 +15 8 *
Fa
0  1.5e-07 10 0

0111000
+14 0 *
Ed
 1.5e-07 1 1 0
1  23 0 -85 -5
2  45 8 5 -85 -5
2  46 4 0 -85 -5
0

0101000
+36 6 -19 6 *
Ed
 1.5e-07 1 1 0
1  24 0 -85 -5
2  47 8 9 -85 -5
2  48 5 0 -85 -5
0

0101000
+35 10 -18 10 *
Wi

0101100
+34 0 -17 0 -12 4 +11 8 *
Fa
0  1.5e-07 8 0

0111000
+10 0 *
Wi

0101100
-58 0 -51 0 +44 0 +40 0 *
Wi

0101100
-30 0 -23 0 +16 0 +12 0 *
Fa
0  1e-07 4 0

0111000
+8 0 +7 0 *
Wi

0101100
-57 0 -50 0 +43 0 +39 0 *
Wi

0101100
-29 0 -22 0 +15 0 +11 0 *
Fa
0  1e-07 5 0

0111000
+5 0 +4 0 *
Sh

0101100
-55 0 -48 0 +41 0 +37 0 -27 0 -20 0 +13 0 +9 0 +6 4 -3 8 
*
So

1100000
+2 2 *

+1 1 