DBRep_DrawableShape

CASCADE Topology V1, (c) Matra-Datavision
Locations 12
1
              1               0               0               0 
              0               1               0               0 
              0               0               1               0 
1
              1               0               0               0 
              0               1               0               0 
              0               0               1               0 
2  1 -1 2 -1 0
1
              1               0               0               0 
              0               1               0               0 
              0               0               1               0 
1
              1               0               0               0 
              0               1               0               0 
              0               0               1               0 
2  4 1 5 1 2 1 0
2  5 -1 4 -1 0
2  1 -1 2 -1 5 -1 4 -1 0
2  5 1 2 1 0
2  5 -1 0
2  1 -1 2 -1 5 -1 0
2  1 -1 0
Curve2ds 330
1 0 0 1 0 
1 9 -286 -1 0 
1 18 0 0 -1 
1 -286 -636.05000000000007 0 1 
1 0 -1272.0999999999999 1 0 
1 -9 -286 1 0 
1 0 0 0 -1 
1 286 -636.04999999999984 0 1 
1 9 -286 0 1 
1 286 -636.04999999999984 -1 0 
1 9 286 -1 0 
1 0 0 1 0 
1 -9 282 0 1 
1 282 -636.05000000000007 1 0 
1 282 636.04999999999984 1 0 
1 9 282 0 1 
1 286 -636.05000000000007 0 1 
1 18 0 0 -1 
2 -80 -474.05000000000007 1 0 -0 1 2.75
1 0 19 1 0 
2 -80 -314.05000000000007 1 0 -0 1 2.75
1 0 19 1 0 
2 -30.231991156842071 -287.0364830683917 1 0 -0 1 2.75
1 0 19 1 0 
2 -202.5 3.4499999999999318 1 0 -0 1 2.25
1 0 19 1 0 
2 -72.986483068391664 -244.28199115684214 1 0 -0 1 2.75
1 0 19 1 0 
2 -72.986483068391635 -183.81800884315794 1 0 -0 1 2.75
1 0 19 1 0 
2 -30.231991156842071 -141.06351693160843 1 0 -0 1 2.75
1 0 19 1 0 
2 -97.5 3.4499999999999318 1 0 -0 1 2.25
1 0 19 1 0 
2 -58 -580.05000000000007 1 0 -0 1 8
1 0 19.000000000000007 1 0 
8 -87 29
1 -29 -588.05000000000007 -1 0 
8 -87 29
1 19.000000000000007 29 0 -1 
2 58 -580.05000000000007 1 0 -0 1 8
1 0 19.000000000000007 1 0 
8 -290.02500000000003 -218.02500000000003
1 66 -290.02500000000003 0 1 
8 -290.02500000000003 -218.02500000000003
1 19.000000000000007 -290.02500000000003 0 -1 
2 58 -508.05000000000007 1 0 -0 1 8
1 0 19.000000000000007 1 0 
8 -87 29
1 -29 -500.05000000000007 -1 0 
8 -87 29
1 19.000000000000007 29 0 -1 
2 -58 -508.05000000000007 1 0 -0 1 8
1 0 19.000000000000007 1 0 
8 -290.02500000000003 -218.02500000000003
1 -66 -290.02500000000003 0 1 
8 -290.02500000000003 -218.02500000000003
1 19.000000000000007 -290.02500000000003 0 -1 
2 80 -474.05000000000007 1 0 -0 1 2.75
1 0 19 1 0 
2 30.231991156842128 -287.0364830683917 1 0 -0 1 2.75
1 0 19 1 0 
2 80 -314.05000000000007 1 0 -0 1 2.75
1 0 19 1 0 
2 0 -214.05000000000007 1 0 -0 1 71.75
1 0 19 1 0 
2 30.231991156842071 -141.06351693160843 1 0 -0 1 2.75
1 0 19 1 0 
2 72.986483068391635 -244.28199115684214 1 0 -0 1 2.75
1 0 19 1 0 
2 72.986483068391635 -183.818008843158 1 0 -0 1 2.75
1 0 19 1 0 
2 97.5 3.4499999999999318 1 0 -0 1 2.25
1 0 19 1 0 
2 202.5 3.4499999999999318 1 0 -0 1 2.25
1 0 19 1 0 
2 -202.5 108.44999999999993 1 0 -0 1 2.25
1 0 19 1 0 
2 -150 55.949999999999932 1 0 -0 1 58
1 0 19 1 0 
2 -120 195.94999999999993 1 0 -0 1 2.75
1 0 19 1 0 
2 -97.5 108.44999999999993 1 0 -0 1 2.25
1 0 19 1 0 
2 -120 615.94999999999993 1 0 -0 1 2.75
1 0 19 1 0 
2 97.5 108.44999999999993 1 0 -0 1 2.25
1 0 19 1 0 
2 150 55.949999999999932 1 0 -0 1 58
1 0 19 1 0 
2 202.5 108.44999999999993 1 0 -0 1 2.25
1 0 19 1 0 
2 120 195.94999999999993 1 0 -0 1 2.75
1 0 19 1 0 
2 120 615.94999999999993 1 0 -0 1 2.75
1 0 19 1 0 
1 -9 -286 0 1 
1 286 636.05000000000007 -1 0 
1 -9 286 1 0 
1 0 -1272.0999999999999 1 0 
1 -286 -636.04999999999984 0 1 
1 0 0 0 -1 
2 -80 -474.04999999999984 -1 0 0 1 2.75
1 0 1 1 0 
1 80.199999999999989 -596.04999999999984 0 1 
1 0 0 0 -1 
2 74 -492.04999999999984 -1 0 0 1 6.1999999999999886
1 0 0 1 0 
1 74 -485.84999999999985 -1 0 
1 0 0 0 1 
2 -74.000000000000057 -492.04999999999984 -1 0 0 1 6.1999999999999886
1 0 0 1 0 
1 -80.200000000000045 -596.04999999999984 0 1 
1 0 0 0 -1 
2 -74.000000000000057 -596.04999999999984 -1 0 0 1 6.1999999999999886
1 0 0 1 0 
1 74 -602.24999999999989 -1 0 
1 0 0 0 1 
2 74 -596.04999999999984 -1 0 0 1 6.1999999999999886
1 0 0 1 0 
2 -80 -314.04999999999984 -1 0 0 1 2.75
1 0 1 1 0 
2 -220 -14.049999999999841 -1 0 0 1 3
1 0 0 1 0 
2 -202.5 3.4500000000001592 -1 0 0 1 2.25
1 0 1 1 0 
2 -72.986483068391635 -244.28199115684191 -1 0 0 1 2.75
1 0 1 1 0 
2 -72.986483068391635 -183.81800884315777 -1 0 0 1 2.75
1 0 1 1 0 
2 -30.231991156842128 -287.03648306839148 -1 0 0 1 2.75
1 0 1 1 0 
2 -97.5 3.4500000000001592 -1 0 0 1 2.25
1 0 1 1 0 
2 -80 -14.049999999999841 -1 0 0 1 3
1 0 0 1 0 
2 -30.231991156842071 -141.06351693160821 -1 0 0 1 2.75
1 0 1 1 0 
2 80 -474.04999999999984 -1 0 0 1 2.75
1 0 1 1 0 
2 80 -314.04999999999984 -1 0 0 1 2.75
1 0 1 1 0 
2 30.231991156842071 -287.03648306839148 -1 0 0 1 2.75
1 0 1 1 0 
2 0 -214.04999999999984 -1 0 0 1 71.75
1 0 1 1 0 
2 72.986483068391664 -244.28199115684191 -1 0 0 1 2.75
1 0 1 1 0 
2 72.986483068391635 -183.81800884315771 -1 0 0 1 2.75
1 0 1 1 0 
2 30.231991156842071 -141.06351693160821 -1 0 0 1 2.75
1 0 1 1 0 
2 80 -14.049999999999841 -1 0 0 1 3
1 0 0 1 0 
2 97.5 3.4500000000001592 -1 0 0 1 2.25
1 0 1 1 0 
2 202.5 3.4500000000001592 -1 0 0 1 2.25
1 0 1 1 0 
2 220 -14.049999999999841 -1 0 0 1 3
1 0 0 1 0 
2 -202.5 108.45000000000016 -1 0 0 1 2.25
1 0 1 1 0 
2 -220 125.95000000000016 -1 0 0 1 3
1 0 0 1 0 
2 -150 55.950000000000159 -1 0 0 1 58
1 0 1 1 0 
2 -120 195.95000000000016 -1 0 0 1 2.75
1 0 1 1 0 
2 -97.5 108.45000000000016 -1 0 0 1 2.25
1 0 1 1 0 
2 -80 125.95000000000016 -1 0 0 1 3
1 0 0 1 0 
2 -120 615.95000000000016 -1 0 0 1 2.75
1 0 1 1 0 
2 80 125.95000000000016 -1 0 0 1 3
1 0 0 1 0 
2 97.5 108.45000000000016 -1 0 0 1 2.25
1 0 1 1 0 
2 150 55.950000000000159 -1 0 0 1 58
1 0 1 1 0 
2 202.5 108.45000000000016 -1 0 0 1 2.25
1 0 1 1 0 
2 220 125.95000000000016 -1 0 0 1 3
1 0 0 1 0 
2 120 195.95000000000016 -1 0 0 1 2.75
1 0 1 1 0 
2 120 615.95000000000016 -1 0 0 1 2.75
1 0 1 1 0 
1 6.2831853071795862 -0 0 1 
1 0 -0 0 1 
1 6.2831853071795862 -0 0 1 
1 0 -0 0 1 
1 6.2831853071795862 -0 0 1 
1 0 -0 0 1 
1 6.2831853071795862 -0 0 1 
1 0 -0 0 1 
1 6.2831853071795862 -0 0 1 
1 0 -0 0 1 
1 6.2831853071795862 -0 0 1 
1 0 -0 0 1 
1 6.2831853071795862 -0 0 1 
1 0 -0 0 1 
1 6.2831853071795862 -0 0 1 
1 0 -0 0 1 
1 4.7123889803846897 0 0 1 
1 0 0 1 0 
1 0 3.0000000000000036 1 0 
2 -58.000000000000114 -36.000000000000028 1 0 -0 1 8
1 3.1415926535897931 0 0 1 
1 0 0 1 0 
8 -29.000000000000057 86.999999999999943
1 3.0000000000000036 29.000000000000057 0 1 
8 -29.000000000000057 86.999999999999943
1 -29.000000000000057 -44.000000000000028 1 0 
1 0 116 1 0 
1 4.7123889803846897 0 0 1 
8 0 20
1 6.2831853071795862 -0 0 1 
1 0 0 1 0 
1 0 3.0000000000000036 1 0 
2 57.999999999999886 -36.000000000000028 1 0 -0 1 8
1 0 -72 1 0 
8 0 20
1 0 0 0 1 
8 -53.999999999999986 18.000000000000014
1 3.0000000000000036 -18.000000000000014 0 1 
8 -53.999999999999986 18.000000000000014
1 65.999999999999886 -18.000000000000014 0 -1 
1 1.5707963267948966 0 0 1 
1 0 116 1 0 
1 0 3.0000000000000036 1 0 
2 57.999999999999886 35.999999999999972 1 0 -0 1 8
8 -29.000000000000057 86.999999999999943
1 3.0000000000000036 29.000000000000057 0 1 
8 -29.000000000000057 86.999999999999943
1 -29.000000000000057 43.999999999999972 1 0 
1 0 0 1 0 
1 1.5707963267948966 0 0 1 
1 3.1415926535897931 0 0 1 
1 0 -72 1 0 
1 0 3.0000000000000036 1 0 
2 -58.000000000000114 35.999999999999972 1 0 -0 1 8
8 -53.999999999999986 18.000000000000014
1 3.0000000000000036 -18.000000000000014 0 1 
8 -53.999999999999986 18.000000000000014
1 -66.000000000000114 -18.000000000000014 0 -1 
1 6.2831853071795862 -0 0 1 
1 0 -0 0 1 
1 6.2831853071795862 -0 0 1 
1 0 -0 0 1 
1 6.2831853071795862 -0 0 1 
1 0 -0 0 1 
1 6.2831853071795862 -0 0 1 
1 0 -0 0 1 
1 6.2831853071795862 -0 0 1 
1 0 -0 0 1 
1 6.2831853071795862 -0 0 1 
1 0 -0 0 1 
1 6.2831853071795862 -0 0 1 
1 0 -0 0 1 
1 6.2831853071795862 -0 0 1 
1 0 -0 0 1 
1 6.2831853071795862 -0 0 1 
1 0 -0 0 1 
1 6.2831853071795862 -0 0 1 
1 0 -0 0 1 
1 6.2831853071795862 -0 0 1 
1 0 -0 0 1 
1 6.2831853071795862 -0 0 1 
1 0 -0 0 1 
1 6.2831853071795862 -0 0 1 
1 0 -0 0 1 
1 6.2831853071795862 -0 0 1 
1 0 -0 0 1 
1 6.2831853071795862 -0 0 1 
1 0 -0 0 1 
1 6.2831853071795862 -0 0 1 
1 0 -0 0 1 
1 6.2831853071795862 -0 0 1 
1 0 -0 0 1 
1 6.2831853071795862 -0 0 1 
1 0 -0 0 1 
1 6.2831853071795862 -0 0 1 
1 0 -0 0 1 
1 0 0 1 0 
1 3.1415926535897931 0 0 1 
1 2 0 0 -1 
1 -80.200000000000102 -52.000000000000028 0 1 
1 0 -104 1 0 
1 3.1415926535897931 0 0 1 
1 0 2 1 0 
2 -74.000000000000114 51.999999999999972 1 0 -0 1 6.1999999999999886
1 1.5707963267948966 0 0 1 
1 0 0 1 0 
1 0 148 1 0 
1 1.5707963267949059 0 0 1 
1 2 0 0 1 
1 -74.000000000000114 58.19999999999996 1 0 
1 0 2 1 0 
2 73.999999999999943 51.999999999999972 1 0 -0 1 6.1999999999999886
8 0 2
1 0 0 0 1 
1 0 -104 1 0 
1 0 0 1 0 
8 0 2
1 6.2831853071795862 -0 0 1 
1 2 0 0 -1 
1 80.199999999999932 -52.000000000000028 0 1 
1 0 2 1 0 
2 73.999999999999943 -52.000000000000028 1 0 -0 1 6.1999999999999886
1 4.7123889803846808 0 0 1 
1 0 148 1 0 
1 2 0 0 1 
1 -74.000000000000114 -58.200000000000031 1 0 
1 0 0 1 0 
1 4.7123889803846897 0 0 1 
1 0 2 1 0 
2 -74.000000000000114 -52.000000000000028 1 0 -0 1 6.1999999999999886
1 0 8 1 0 
2 0 0 1 0 -0 1 3
1 6.2831853071795862 -0 0 1 
1 0 -0 0 1 
1 0 8 1 0 
2 0 0 1 0 -0 1 3
1 6.2831853071795862 -0 0 1 
1 0 -0 0 1 
1 0 8 1 0 
2 0 0 1 0 -0 1 3
1 6.2831853071795862 -0 0 1 
1 0 -0 0 1 
1 0 8 1 0 
2 0 0 1 0 -0 1 3
1 6.2831853071795862 -0 0 1 
1 0 -0 0 1 
1 0 8 1 0 
2 0 0 1 0 -0 1 3
1 6.2831853071795862 -0 0 1 
1 0 -0 0 1 
1 0 8 1 0 
2 0 0 1 0 -0 1 3
1 6.2831853071795862 -0 0 1 
1 0 -0 0 1 
1 0 8 1 0 
2 0 0 1 0 -0 1 3
1 6.2831853071795862 -0 0 1 
1 0 -0 0 1 
1 0 8 1 0 
2 0 0 1 0 -0 1 3
1 6.2831853071795862 -0 0 1 
1 0 -0 0 1 
Curves 165
1 14 18 18 0 0 1 
1 14 18 36 -0 1 0 
1 14 1290.0999999999999 18 0 0 1 
1 14 18 18 -0 1 0 
1 14 18 18 1 0 -0 
1 586 18 18 0 0 1 
1 582 18 36 1 0 -0 
1 582 1290.0999999999999 36 1 0 -0 
1 586 18 36 -0 1 0 
2 220 180 36 0 0 1 1 0 -0 -0 1 0 2.75
2 220 340 36 0 0 1 1 0 -0 -0 1 0 2.75
2 269.76800884315793 367.01351693160836 36 0 0 1 1 0 -0 -0 1 0 2.75
2 97.5 657.5 36 0 0 1 1 0 -0 -0 1 0 2.25
2 227.01351693160834 409.76800884315793 36 0 0 1 1 0 -0 -0 1 0 2.75
2 227.01351693160836 470.23199115684213 36 0 0 1 1 0 -0 -0 1 0 2.75
2 269.76800884315793 512.98648306839164 36 0 0 1 1 0 -0 -0 1 0 2.75
2 202.5 657.5 36 0 0 1 1 0 -0 -0 1 0 2.25
2 242 74 36.000000000000007 0 0 1 1 0 -0 -0 1 0 8
1 271 66 36.000000000000007 -1 -0 0 
2 358 74 36.000000000000007 0 0 1 1 0 -0 -0 1 0 8
1 366 364.02500000000003 36.000000000000007 -0 1 0 
2 358 146 36.000000000000007 0 0 1 1 0 -0 -0 1 0 8
1 271 154 36.000000000000007 -1 -0 0 
2 242 146 36.000000000000007 0 0 1 1 0 -0 -0 1 0 8
1 234 364.02500000000003 36.000000000000007 -0 1 0 
2 380 180 36 0 0 1 1 0 -0 -0 1 0 2.75
2 330.23199115684213 367.01351693160836 36 0 0 1 1 0 -0 -0 1 0 2.75
2 380 340 36 0 0 1 1 0 -0 -0 1 0 2.75
2 300 440 36 0 0 1 1 0 -0 -0 1 0 71.75
2 330.23199115684207 512.98648306839164 36 0 0 1 1 0 -0 -0 1 0 2.75
2 372.98648306839164 409.76800884315793 36 0 0 1 1 0 -0 -0 1 0 2.75
2 372.98648306839164 470.23199115684207 36 0 0 1 1 0 -0 -0 1 0 2.75
2 397.5 657.5 36 0 0 1 1 0 -0 -0 1 0 2.25
2 502.5 657.5 36 0 0 1 1 0 -0 -0 1 0 2.25
2 97.5 762.5 36 0 0 1 1 0 -0 -0 1 0 2.25
2 150 710 36 0 0 1 1 0 -0 -0 1 0 58
2 180 850 36 0 0 1 1 0 -0 -0 1 0 2.75
2 202.5 762.5 36 0 0 1 1 0 -0 -0 1 0 2.25
2 180 1270 36 0 0 1 1 0 -0 -0 1 0 2.75
2 397.5 762.5 36 0 0 1 1 0 -0 -0 1 0 2.25
2 450 710 36 0 0 1 1 0 -0 -0 1 0 58
2 502.5 762.5 36 0 0 1 1 0 -0 -0 1 0 2.25
2 420 850 36 0 0 1 1 0 -0 -0 1 0 2.75
2 420 1270 36 0 0 1 1 0 -0 -0 1 0 2.75
1 14 1290.0999999999999 18 1 0 -0 
1 586 1290.0999999999999 18 0 0 1 
1 586 18 18 -0 1 0 
2 380 180 18 0 0 1 1 0 -0 -0 1 0 2.75
1 219.80000000000001 58 18 -0 1 0 
2 226 162 18 0 0 1 1 0 -0 -0 1 0 6.2000000000000002
1 226 168.19999999999999 18 1 0 -0 
2 374.00000000000006 162 18 0 0 1 1 0 -0 -0 1 0 6.2000000000000002
1 380.20000000000005 58 18 -0 1 0 
2 374.00000000000006 58 18 0 0 1 1 0 -0 -0 1 0 6.2000000000000002
1 226 51.799999999999997 18 1 0 -0 
2 226 58 18 0 0 1 1 0 -0 -0 1 0 6.2000000000000002
2 380 340 18 0 0 1 1 0 -0 -0 1 0 2.75
2 520 640 18 0 0 1 1 0 -0 -0 1 0 3
2 502.5 657.5 18 0 0 1 1 0 -0 -0 1 0 2.25
2 372.98648306839164 409.76800884315793 18 0 0 1 1 0 -0 -0 1 0 2.75
2 372.98648306839164 470.23199115684207 18 0 0 1 1 0 -0 -0 1 0 2.75
2 330.23199115684213 367.01351693160836 18 0 0 1 1 0 -0 -0 1 0 2.75
2 397.5 657.5 18 0 0 1 1 0 -0 -0 1 0 2.25
2 380 640 18 0 0 1 1 0 -0 -0 1 0 3
2 330.23199115684207 512.98648306839164 18 0 0 1 1 0 -0 -0 1 0 2.75
2 220 180 18 0 0 1 1 0 -0 -0 1 0 2.75
2 220 340 18 0 0 1 1 0 -0 -0 1 0 2.75
2 269.76800884315793 367.01351693160836 18 0 0 1 1 0 -0 -0 1 0 2.75
2 300 440 18 0 0 1 1 0 -0 -0 1 0 71.75
2 227.01351693160834 409.76800884315793 18 0 0 1 1 0 -0 -0 1 0 2.75
2 227.01351693160836 470.23199115684213 18 0 0 1 1 0 -0 -0 1 0 2.75
2 269.76800884315793 512.98648306839164 18 0 0 1 1 0 -0 -0 1 0 2.75
2 220 640 18 0 0 1 1 0 -0 -0 1 0 3
2 202.5 657.5 18 0 0 1 1 0 -0 -0 1 0 2.25
2 97.5 657.5 18 0 0 1 1 0 -0 -0 1 0 2.25
2 80 640 18 0 0 1 1 0 -0 -0 1 0 3
2 502.5 762.5 18 0 0 1 1 0 -0 -0 1 0 2.25
2 520 780 18 0 0 1 1 0 -0 -0 1 0 3
2 450 710 18 0 0 1 1 0 -0 -0 1 0 58
2 420 850 18 0 0 1 1 0 -0 -0 1 0 2.75
2 397.5 762.5 18 0 0 1 1 0 -0 -0 1 0 2.25
2 380 780 18 0 0 1 1 0 -0 -0 1 0 3
2 420 1270 18 0 0 1 1 0 -0 -0 1 0 2.75
2 220 780 18 0 0 1 1 0 -0 -0 1 0 3
2 202.5 762.5 18 0 0 1 1 0 -0 -0 1 0 2.25
2 150 710 18 0 0 1 1 0 -0 -0 1 0 58
2 97.5 762.5 18 0 0 1 1 0 -0 -0 1 0 2.25
2 80 780 18 0 0 1 1 0 -0 -0 1 0 3
2 180 850 18 0 0 1 1 0 -0 -0 1 0 2.75
2 180 1270 18 0 0 1 1 0 -0 -0 1 0 2.75
1 222.75 180 17 0 0 1 
1 222.75 340 17 0 0 1 
1 272.51800884315793 367.01351693160836 17 0 0 1 
1 99.75 657.5 17 0 0 1 
1 229.76351693160834 409.76800884315793 17 0 0 1 
1 229.76351693160836 470.23199115684213 17 0 0 1 
1 272.51800884315793 512.98648306839164 17 0 0 1 
1 204.75 657.5 17 0 0 1 
1 242 66 17 0 0 1 
2 242 74 20.000000000000004 0 0 1 1 0 -0 -0 1 0 8
1 234 74 17 0 0 1 
1 271.00000000000006 66 20.000000000000004 1 0 -0 
1 358 66 17 0 0 1 
1 366 74 17 0 0 1 
2 358 74 20.000000000000004 0 0 1 1 0 -0 -0 1 0 8
1 366 146 17 0 0 1 
1 366 92.000000000000014 20.000000000000004 0 -1 0 
1 358 154 17 0 0 1 
2 358 146 20.000000000000004 0 0 1 1 0 -0 -0 1 0 8
1 271.00000000000006 154 20.000000000000004 1 0 -0 
1 242 154 17 0 0 1 
1 234 146 17 0 0 1 
2 242 146 20.000000000000004 0 0 1 1 0 -0 -0 1 0 8
1 234 92.000000000000014 20.000000000000004 0 -1 0 
1 382.75 180 17 0 0 1 
1 332.98199115684213 367.01351693160836 17 0 0 1 
1 382.75 340 17 0 0 1 
1 371.75 439.99999999999994 17 0 0 1 
1 332.98199115684207 512.98648306839164 17 0 0 1 
1 375.73648306839164 409.76800884315793 17 0 0 1 
1 375.73648306839164 470.23199115684207 17 0 0 1 
1 399.75 657.5 17 0 0 1 
1 504.75 657.5 17 0 0 1 
1 99.75 762.5 17 0 0 1 
1 208 710 17 0 0 1 
1 182.75 850 17 0 0 1 
1 204.75 762.5 17 0 0 1 
1 182.75 1270 17 0 0 1 
1 399.75 762.5 17 0 0 1 
1 508 710 17 0 0 1 
1 504.75 762.5 17 0 0 1 
1 422.75 850 17 0 0 1 
1 422.75 1270 17 0 0 1 
1 219.80000000000001 58 18 0 0 1 
1 219.80000000000001 58 20 -0 1 0 
1 219.80000000000001 162 18 0 0 1 
2 226 162 20 0 0 1 1 0 -0 -0 1 0 6.2000000000000002
1 226 168.19999999999999 18 0 0 1 
1 374 168.19999999999999 18 0 0 1 
1 226 168.19999999999999 20 1 0 -0 
2 374.00000000000006 162 20 0 0 1 1 0 -0 -0 1 0 6.2000000000000002
1 380.20000000000005 162 18 0 0 1 
1 380.20000000000005 58 18 0 0 1 
1 380.20000000000005 58 20 -0 1 0 
2 374.00000000000006 58 20 0 0 1 1 0 -0 -0 1 0 6.2000000000000002
1 374 51.799999999999997 18 0 0 1 
1 226 51.799999999999997 20 1 0 -0 
1 226 51.799999999999997 18 0 0 1 
2 226 58 20 0 0 1 1 0 -0 -0 1 0 6.2000000000000002
2 520 640 26 0 0 1 1 0 -0 -0 1 0 3
1 523 640 18 0 0 1 
2 380 640 26 0 0 1 1 0 -0 -0 1 0 3
1 383 640 18 0 0 1 
2 220 640 26 0 0 1 1 0 -0 -0 1 0 3
1 223 640 18 0 0 1 
2 80 640 26 0 0 1 1 0 -0 -0 1 0 3
1 83 640 18 0 0 1 
2 520 780 26 0 0 1 1 0 -0 -0 1 0 3
1 523 780 18 0 0 1 
2 380 780 26 0 0 1 1 0 -0 -0 1 0 3
1 383 780 18 0 0 1 
2 220 780 26 0 0 1 1 0 -0 -0 1 0 3
1 223 780 18 0 0 1 
2 80 780 26 0 0 1 1 0 -0 -0 1 0 3
1 83 780 18 0 0 1 
Polygon3D 0
PolygonOnTriangulations 0
Surfaces 66
1 14 18 18 1 0 -0 0 0 1 0 -1 0 
1 300 18 27 -0 -1 -0 0 0 -1 1 -0 0 
1 300 654.05000000000007 36.000000000000007 0 0 1 1 0 -0 -0 1 0 
1 300 1290.0999999999997 27 0 1 0 0 -0 1 1 0 -0 
1 300 654.04999999999984 18.000000000000004 -0 -0 -1 -1 0 0 0 1 -0 
1 586 18 18 1 0 -0 0 0 1 0 -1 0 
2 220 180 17 0 0 1 1 0 -0 -0 1 0 2.75
2 220 340 17 0 0 1 1 0 -0 -0 1 0 2.75
2 269.76800884315793 367.01351693160836 17 0 0 1 1 0 -0 -0 1 0 2.75
2 97.5 657.5 17 0 0 1 1 0 -0 -0 1 0 2.25
2 227.01351693160834 409.76800884315793 17 0 0 1 1 0 -0 -0 1 0 2.75
2 227.01351693160836 470.23199115684213 17 0 0 1 1 0 -0 -0 1 0 2.75
2 269.76800884315793 512.98648306839164 17 0 0 1 1 0 -0 -0 1 0 2.75
2 202.5 657.5 17 0 0 1 1 0 -0 -0 1 0 2.25
2 242 74 17 0 0 1 1 0 -0 -0 1 0 8
1 242 66 17 -0 1 0 0 0 1 1 0 -0 
2 358 74 17 0 0 1 1 0 -0 -0 1 0 8
1 366 74 17 1 0 -0 0 0 1 0 -1 0 
2 358 146 17 0 0 1 1 0 -0 -0 1 0 8
1 242 154 17 -0 1 0 0 0 1 1 0 -0 
2 242 146 17 0 0 1 1 0 -0 -0 1 0 8
1 234 74 17 1 0 -0 0 0 1 0 -1 0 
2 380 180 17 0 0 1 1 0 -0 -0 1 0 2.75
2 330.23199115684213 367.01351693160836 17 0 0 1 1 0 -0 -0 1 0 2.75
2 380 340 17 0 0 1 1 0 -0 -0 1 0 2.75
2 300 440 17 0 0 1 1 0 -0 -0 1 0 71.75
2 330.23199115684207 512.98648306839164 17 0 0 1 1 0 -0 -0 1 0 2.75
2 372.98648306839164 409.76800884315793 17 0 0 1 1 0 -0 -0 1 0 2.75
2 372.98648306839164 470.23199115684207 17 0 0 1 1 0 -0 -0 1 0 2.75
2 397.5 657.5 17 0 0 1 1 0 -0 -0 1 0 2.25
2 502.5 657.5 17 0 0 1 1 0 -0 -0 1 0 2.25
2 97.5 762.5 17 0 0 1 1 0 -0 -0 1 0 2.25
2 150 710 17 0 0 1 1 0 -0 -0 1 0 58
2 180 850 17 0 0 1 1 0 -0 -0 1 0 2.75
2 202.5 762.5 17 0 0 1 1 0 -0 -0 1 0 2.25
2 180 1270 17 0 0 1 1 0 -0 -0 1 0 2.75
2 397.5 762.5 17 0 0 1 1 0 -0 -0 1 0 2.25
2 450 710 17 0 0 1 1 0 -0 -0 1 0 58
2 502.5 762.5 17 0 0 1 1 0 -0 -0 1 0 2.25
2 420 850 17 0 0 1 1 0 -0 -0 1 0 2.75
2 420 1270 17 0 0 1 1 0 -0 -0 1 0 2.75
1 219.80000000000001 58 18 1 0 -0 0 0 1 0 -1 0 
2 226 162 18 0 0 1 1 0 -0 -0 1 0 6.2000000000000002
1 226 168.19999999999999 18 -0 1 0 0 0 1 1 0 -0 
2 374.00000000000006 162 18 0 0 1 1 0 -0 -0 1 0 6.2000000000000002
1 380.20000000000005 58 18 1 0 -0 0 0 1 0 -1 0 
2 374.00000000000006 58 18 0 0 1 1 0 -0 -0 1 0 6.2000000000000002
1 226 51.799999999999997 18 -0 1 0 0 0 1 1 0 -0 
2 226 58 18 0 0 1 1 0 -0 -0 1 0 6.2000000000000002
2 520 640 18 0 0 1 1 0 -0 -0 1 0 3
2 380 640 18 0 0 1 1 0 -0 -0 1 0 3
2 220 640 18 0 0 1 1 0 -0 -0 1 0 3
2 80 640 18 0 0 1 1 0 -0 -0 1 0 3
2 520 780 18 0 0 1 1 0 -0 -0 1 0 3
2 380 780 18 0 0 1 1 0 -0 -0 1 0 3
2 220 780 18 0 0 1 1 0 -0 -0 1 0 3
2 80 780 18 0 0 1 1 0 -0 -0 1 0 3
1 300.00000000000011 110.00000000000003 20.000000000000004 0 0 1 1 0 -0 -0 1 0 
1 520 640 26 0 0 1 1 0 -0 -0 1 0 
1 380 640 26 0 0 1 1 0 -0 -0 1 0 
1 220 640 26 0 0 1 1 0 -0 -0 1 0 
1 80 640 26 0 0 1 1 0 -0 -0 1 0 
1 520 780 26 0 0 1 1 0 -0 -0 1 0 
1 380 780 26 0 0 1 1 0 -0 -0 1 0 
1 220 780 26 0 0 1 1 0 -0 -0 1 0 
1 80 780 26 0 0 1 1 0 -0 -0 1 0 
Triangulations 0

TShapes 475
Ve
1e-07
14 18 36
0 0

0101101
*
Ve
1e-07
14 18 18
0 0

0101101
*
Ed
 1e-07 1 1 0
1  1 0 0 18
2  1 1 0 0 18
2  2 2 0 0 18
0

0101000
-475 3 +474 3 *
Ve
1.00000011e-07
14 1290.1 36
0 0

0101101
*
Ed
 1e-07 1 1 0
1  2 0 0 1272.1
2  3 1 0 0 1272.1
2  4 3 0 0 1272.1
0

0101000
-472 3 +475 3 *
Ve
1.00000011e-07
14 1290.1 18
0 0

0101101
*
Ed
 1.00000011e-07 1 1 0
1  3 0 0 18
2  5 1 0 0 18
2  6 4 0 0 18
0

0101000
-472 3 +470 3 *
Ed
 1e-07 1 1 0
1  4 0 0 1272.1
2  7 1 0 0 1272.1
2  8 5 0 0 1272.1
0

0101000
-470 3 +474 3 *
Wi

0101100
-473 0 -471 0 +469 0 +468 0 *
Fa
0  1e-07 1 0

0111000
+467 0 *
Ve
1e-07
586 18 18
0 0

0101101
*
Ed
 1e-07 1 1 0
1  5 0 0 572
2  9 2 0 0 572
2  10 5 0 0 572
0

0101000
+474 3 -465 3 *
Ve
1e-07
586 18 36
0 0

0101101
*
Ed
 1e-07 1 1 0
1  6 0 0 18
2  11 2 0 0 18
2  12 6 0 0 18
0

0101000
-463 3 +465 3 *
Ed
 1e-07 1 1 0
1  7 0 -568 4
2  13 2 0 -568 4
2  14 3 0 -568 4
0

0101000
+475 3 -463 3 *
Wi

0101000
-473 0 +464 0 +462 0 -461 0 *
Fa
0  1e-07 2 0

0111000
+460 0 *
Ve
1.00000032e-07
586 1290.1 36
0 0

0101101
*
Ed
 1e-07 1 1 0
1  8 0 -568 4
2  15 3 0 -568 4
2  16 4 0 -568 4
0

0101000
+472 3 -458 3 *
Ed
 1e-07 1 1 0
1  9 0 0 1272.1
2  17 3 0 0 1272.1
2  18 6 0 0 1272.1
0

0101000
-458 3 +463 3 *
Wi

0101100
-471 2 -457 2 +461 2 +456 2 *
Ve
1e-07
222.75 180 36
0 0

0101101
*
Ed
 1e-07 1 1 0
1  10 0 0 6.28318530717959
2  19 3 7 0 6.28318530717959
2  20 7 0 0 6.28318530717959
0

0101100
+454 8 -454 8 *
Wi

0101100
-453 6 *
Ve
1e-07
222.75 340 36
0 0

0101101
*
Ed
 1e-07 1 1 0
1  11 0 0 6.28318530717959
2  21 3 7 0 6.28318530717959
2  22 8 0 0 6.28318530717959
0

0101100
+451 8 -451 8 *
Wi

0101100
-450 6 *
Ve
1e-07
272.518008843158 367.013516931608 36
0 0

0101101
*
Ed
 1e-07 1 1 0
1  12 0 0 6.28318530717959
2  23 3 7 0 6.28318530717959
2  24 9 0 0 6.28318530717959
0

0101100
+448 8 -448 8 *
Wi

0101100
-447 6 *
Ve
1e-07
99.75 657.5 36
0 0

0101101
*
Ed
 1e-07 1 1 0
1  13 0 0 6.28318530717959
2  25 3 10 0 6.28318530717959
2  26 10 0 0 6.28318530717959
0

0101100
+445 11 -445 11 *
Wi

0101100
-444 9 *
Ve
1e-07
229.763516931608 409.768008843158 36
0 0

0101101
*
Ed
 1e-07 1 1 0
1  14 0 0 6.28318530717959
2  27 3 7 0 6.28318530717959
2  28 11 0 0 6.28318530717959
0

0101100
+442 8 -442 8 *
Wi

0101100
-441 6 *
Ve
1e-07
229.763516931608 470.231991156842 36
0 0

0101101
*
Ed
 1e-07 1 1 0
1  15 0 0 6.28318530717959
2  29 3 7 0 6.28318530717959
2  30 12 0 0 6.28318530717959
0

0101100
+439 8 -439 8 *
Wi

0101100
-438 6 *
Ve
1e-07
272.518008843158 512.986483068392 36
0 0

0101101
*
Ed
 1e-07 1 1 0
1  16 0 0 6.28318530717959
2  31 3 7 0 6.28318530717959
2  32 13 0 0 6.28318530717959
0

0101100
+436 8 -436 8 *
Wi

0101100
-435 6 *
Ve
1e-07
204.75 657.5 36
0 0

0101101
*
Ed
 1e-07 1 1 0
1  17 0 0 6.28318530717959
2  33 3 10 0 6.28318530717959
2  34 14 0 0 6.28318530717959
0

0101100
+433 11 -433 11 *
Wi

0101100
-432 9 *
Ve
1.5e-07
234 74 36
0 0

0101101
*
Ve
1.5e-07
242 66 36
0 0

0101101
*
Ed
 1e-07 1 1 0
1  18 0 3.14159265358979 4.71238898038469
2  35 3 2 3.14159265358979 4.71238898038469
2  36 15 0 3.14159265358979 4.71238898038469
0

0101000
+430 12 -429 12 *
Ve
1.5e-07
358 66 36
0 0

0101101
*
Ed
 1.5e-07 1 1 0
1  19 0 -87 29
2  37 3 2 -87 29
2  38 16 0 -87 29
0

0101000
+427 12 -429 12 *
Ve
1.5e-07
366 74 36
0 0

0101101
*
Ed
 1e-07 1 1 0
1  20 0 4.71238898038469 6.28318530717959
2  39 3 2 4.71238898038469 6.28318530717959
2  40 17 0 4.71238898038469 6.28318530717959
0

0101000
+427 12 -425 12 *
Ve
1.5e-07
366 146 36
0 0

0101101
*
Ed
 1.5e-07 1 1 0
1  21 0 -290.025 -218.025
2  41 3 2 -290.025 -218.025
2  42 18 0 -290.025 -218.025
0

0101000
+425 12 -423 12 *
Ve
1.5e-07
358 154 36
0 0

0101101
*
Ed
 1e-07 1 1 0
1  22 0 0 1.5707963267949
2  43 3 2 0 1.5707963267949
2  44 19 0 0 1.5707963267949
0

0101000
+423 12 -421 12 *
Ve
1.5e-07
242 154 36
0 0

0101101
*
Ed
 1.5e-07 1 1 0
1  23 0 -87 29
2  45 3 2 -87 29
2  46 20 0 -87 29
0

0101000
+421 12 -419 12 *
Ve
1.5e-07
234 146 36
0 0

0101101
*
Ed
 1e-07 1 1 0
1  24 0 1.5707963267949 3.14159265358979
2  47 3 2 1.5707963267949 3.14159265358979
2  48 21 0 1.5707963267949 3.14159265358979
0

0101000
+419 12 -417 12 *
Ed
 1.5e-07 1 1 0
1  25 0 -290.025 -218.025
2  49 3 2 -290.025 -218.025
2  50 22 0 -290.025 -218.025
0

0101000
+430 12 -417 12 *
Wi

0101100
-428 0 +426 0 -424 0 -422 0 -420 0 -418 0 -416 0 +415 0 *
Ve
1e-07
382.75 180 36
0 0

0101101
*
Ed
 1e-07 1 1 0
1  26 0 0 6.28318530717959
2  51 3 7 0 6.28318530717959
2  52 23 0 0 6.28318530717959
0

0101100
+413 8 -413 8 *
Wi

0101100
-412 6 *
Ve
1e-07
332.981991156842 367.013516931608 36
0 0

0101101
*
Ed
 1e-07 1 1 0
1  27 0 0 6.28318530717959
2  53 3 7 0 6.28318530717959
2  54 24 0 0 6.28318530717959
0

0101100
+410 8 -410 8 *
Wi

0101100
-409 6 *
Ve
1e-07
382.75 340 36
0 0

0101101
*
Ed
 1e-07 1 1 0
1  28 0 0 6.28318530717959
2  55 3 7 0 6.28318530717959
2  56 25 0 0 6.28318530717959
0

0101100
+407 8 -407 8 *
Wi

0101100
-406 6 *
Ve
1.00000057e-07
371.75 440 36
0 0

0101101
*
Ed
 1e-07 1 1 0
1  29 0 0 6.28318530717959
2  57 3 7 0 6.28318530717959
2  58 26 0 0 6.28318530717959
0

0101100
+404 8 -404 8 *
Wi

0101100
-403 6 *
Ve
1e-07
332.981991156842 512.986483068392 36
0 0

0101101
*
Ed
 1e-07 1 1 0
1  30 0 0 6.28318530717959
2  59 3 7 0 6.28318530717959
2  60 27 0 0 6.28318530717959
0

0101100
+401 8 -401 8 *
Wi

0101100
-400 6 *
Ve
1e-07
375.736483068392 409.768008843158 36
0 0

0101101
*
Ed
 1e-07 1 1 0
1  31 0 0 6.28318530717959
2  61 3 7 0 6.28318530717959
2  62 28 0 0 6.28318530717959
0

0101100
+398 8 -398 8 *
Wi

0101100
-397 6 *
Ve
1e-07
375.736483068392 470.231991156842 36
0 0

0101101
*
Ed
 1e-07 1 1 0
1  32 0 0 6.28318530717959
2  63 3 7 0 6.28318530717959
2  64 29 0 0 6.28318530717959
0

0101100
+395 8 -395 8 *
Wi

0101100
-394 6 *
Ve
1e-07
399.75 657.5 36
0 0

0101101
*
Ed
 1e-07 1 1 0
1  33 0 0 6.28318530717959
2  65 3 10 0 6.28318530717959
2  66 30 0 0 6.28318530717959
0

0101100
+392 11 -392 11 *
Wi

0101100
-391 9 *
Ve
1e-07
504.75 657.5 36
0 0

0101101
*
Ed
 1e-07 1 1 0
1  34 0 0 6.28318530717959
2  67 3 10 0 6.28318530717959
2  68 31 0 0 6.28318530717959
0

0101100
+389 11 -389 11 *
Wi

0101100
-388 9 *
Ve
1e-07
99.75 762.5 36
0 0

0101101
*
Ed
 1e-07 1 1 0
1  35 0 0 6.28318530717959
2  69 3 10 0 6.28318530717959
2  70 32 0 0 6.28318530717959
0

0101100
+386 11 -386 11 *
Wi

0101100
-385 9 *
Ve
1e-07
208 710 36
0 0

0101101
*
Ed
 1e-07 1 1 0
1  36 0 0 6.28318530717959
2  71 3 10 0 6.28318530717959
2  72 33 0 0 6.28318530717959
0

0101100
+383 11 -383 11 *
Wi

0101100
-382 9 *
Ve
1e-07
182.75 850 36
0 0

0101101
*
Ed
 1e-07 1 1 0
1  37 0 0 6.28318530717959
2  73 3 7 0 6.28318530717959
2  74 34 0 0 6.28318530717959
0

0101100
+380 8 -380 8 *
Wi

0101100
-379 6 *
Ve
1e-07
204.75 762.5 36
0 0

0101101
*
Ed
 1e-07 1 1 0
1  38 0 0 6.28318530717959
2  75 3 10 0 6.28318530717959
2  76 35 0 0 6.28318530717959
0

0101100
+377 11 -377 11 *
Wi

0101100
-376 9 *
Ve
1e-07
182.75 1270 36
0 0

0101101
*
Ed
 1e-07 1 1 0
1  39 0 0 6.28318530717959
2  77 3 7 0 6.28318530717959
2  78 36 0 0 6.28318530717959
0

0101100
+374 8 -374 8 *
Wi

0101100
-373 6 *
Ve
1e-07
399.75 762.5 36
0 0

0101101
*
Ed
 1e-07 1 1 0
1  40 0 0 6.28318530717959
2  79 3 10 0 6.28318530717959
2  80 37 0 0 6.28318530717959
0

0101100
+371 11 -371 11 *
Wi

0101100
-370 9 *
Ve
1e-07
508 710 36
0 0

0101101
*
Ed
 1e-07 1 1 0
1  41 0 0 6.28318530717959
2  81 3 10 0 6.28318530717959
2  82 38 0 0 6.28318530717959
0

0101100
+368 11 -368 11 *
Wi

0101100
-367 9 *
Ve
1e-07
504.75 762.5 36
0 0

0101101
*
Ed
 1e-07 1 1 0
1  42 0 0 6.28318530717959
2  83 3 10 0 6.28318530717959
2  84 39 0 0 6.28318530717959
0

0101100
+365 11 -365 11 *
Wi

0101100
-364 9 *
Ve
1e-07
422.75 850 36
0 0

0101101
*
Ed
 1e-07 1 1 0
1  43 0 0 6.28318530717959
2  85 3 7 0 6.28318530717959
2  86 40 0 0 6.28318530717959
0

0101100
+362 8 -362 8 *
Wi

0101100
-361 6 *
Ve
1e-07
422.75 1270 36
0 0

0101101
*
Ed
 1e-07 1 1 0
1  44 0 0 6.28318530717959
2  87 3 7 0 6.28318530717959
2  88 41 0 0 6.28318530717959
0

0101100
+359 8 -359 8 *
Wi

0101100
-358 6 *
Fa
0  1e-07 3 2

0111000
+455 0 +452 0 +449 0 +446 0 +443 0 +440 0 +437 0 +434 0 +431 0 +414 0 
+411 0 +408 0 +405 0 +402 0 +399 0 +396 0 +393 0 +390 0 +387 0 +384 0 
+381 0 +378 0 +375 0 +372 0 +369 0 +366 0 +363 0 +360 0 +357 0 *
Ve
1.00000032e-07
586 1290.1 18
0 0

0101101
*
Ed
 1e-07 1 1 0
1  45 0 0 572
2  89 4 0 0 572
2  90 5 0 0 572
0

0101000
+470 3 -355 3 *
Ed
 1.00000032e-07 1 1 0
1  46 0 0 18
2  91 4 0 0 18
2  92 6 0 0 18
0

0101000
-458 3 +355 3 *
Wi

0101000
-354 0 +469 0 +457 0 -353 0 *
Fa
0  1e-07 4 0

0111000
+352 0 *
Ed
 1e-07 1 1 0
1  47 0 0 1272.1
2  93 5 0 0 1272.1
2  94 6 0 0 1272.1
0

0101000
-355 3 +465 3 *
Wi

0101100
-464 2 +468 2 -350 2 +354 2 *
Ve
1e-07
382.75 180 18
0 0

0101101
*
Ed
 1e-07 1 1 0
1  48 0 0 6.28318530717959
2  95 5 7 0 6.28318530717959
2  96 23 0 0 6.28318530717959
0

0101100
+348 8 -348 8 *
Wi

0101100
+347 6 *
Ve
3.86282245e-07
219.8 58 18
0 0

0101101
*
Ve
3.86282238e-07
219.8 162 18
0 0

0101101
*
Ed
 1.00000004e-07 1 1 0
1  49 0 0 104
2  97 5 2 0 104
2  98 42 0 0 104
0

0101000
+345 12 -344 12 *
Ve
3.86282238e-07
226 168.2 18
0 0

0101101
*
Ed
 1.00000004e-07 1 1 0
1  50 0 1.5707963267949 3.14159265358979
2  99 5 2 1.5707963267949 3.14159265358979
2  100 43 0 1.5707963267949 3.14159265358979
0

0101000
+342 12 -344 12 *
Ve
3.86282181e-07
374 168.2 18
0 0

0101101
*
Ed
 1.00000004e-07 1 1 0
1  51 0 0 148
2  101 5 2 0 148
2  102 44 0 0 148
0

0101000
+342 12 -340 12 *
Ve
3.86282238e-07
380.2 162 18
0 0

0101101
*
Ed
 1.00000004e-07 1 1 0
1  52 0 0 1.57079632679491
2  103 5 2 0 1.57079632679491
2  104 45 0 0 1.57079632679491
0

0101000
+338 12 -340 12 *
Ve
3.86282245e-07
380.2 58 18
0 0

0101101
*
Ed
 1.00000004e-07 1 1 0
1  53 0 0 104
2  105 5 2 0 104
2  106 46 0 0 104
0

0101000
+336 12 -338 12 *
Ve
1.00000022e-07
374 51.8 18
0 0

0101101
*
Ed
 1.00000004e-07 1 1 0
1  54 0 4.71238898038468 6.28318530717959
2  107 5 2 4.71238898038468 6.28318530717959
2  108 47 0 4.71238898038468 6.28318530717959
0

0101000
+334 12 -336 12 *
Ve
1.00000004e-07
226 51.8 18
0 0

0101101
*
Ed
 1.00000004e-07 1 1 0
1  55 0 0 148
2  109 5 2 0 148
2  110 48 0 0 148
0

0101000
+332 12 -334 12 *
Ed
 1.00000004e-07 1 1 0
1  56 0 3.14159265358979 4.71238898038469
2  111 5 2 3.14159265358979 4.71238898038469
2  112 49 0 3.14159265358979 4.71238898038469
0

0101000
+345 12 -332 12 *
Wi

0101100
-343 0 +341 0 -339 0 +337 0 +335 0 +333 0 +331 0 +330 0 *
Ve
1e-07
382.75 340 18
0 0

0101101
*
Ed
 1e-07 1 1 0
1  57 0 0 6.28318530717959
2  113 5 7 0 6.28318530717959
2  114 25 0 0 6.28318530717959
0

0101100
+328 8 -328 8 *
Wi

0101100
+327 6 *
Ve
1e-07
523 640 18
0 0

0101101
*
Ed
 1e-07 1 1 0
1  58 0 0 6.28318530717959
2  115 5 10 0 6.28318530717959
2  116 50 0 0 6.28318530717959
0

0101000
+325 11 -325 11 *
Wi

0101100
+324 9 *
Ve
1e-07
504.75 657.5 18
0 0

0101101
*
Ed
 1e-07 1 1 0
1  59 0 0 6.28318530717959
2  117 5 10 0 6.28318530717959
2  118 31 0 0 6.28318530717959
0

0101100
+322 11 -322 11 *
Wi

0101100
+321 9 *
Ve
1e-07
375.736483068392 409.768008843158 18
0 0

0101101
*
Ed
 1e-07 1 1 0
1  60 0 0 6.28318530717959
2  119 5 7 0 6.28318530717959
2  120 28 0 0 6.28318530717959
0

0101100
+319 8 -319 8 *
Wi

0101100
+318 6 *
Ve
1e-07
375.736483068392 470.231991156842 18
0 0

0101101
*
Ed
 1e-07 1 1 0
1  61 0 0 6.28318530717959
2  121 5 7 0 6.28318530717959
2  122 29 0 0 6.28318530717959
0

0101100
+316 8 -316 8 *
Wi

0101100
+315 6 *
Ve
1e-07
332.981991156842 367.013516931608 18
0 0

0101101
*
Ed
 1e-07 1 1 0
1  62 0 0 6.28318530717959
2  123 5 7 0 6.28318530717959
2  124 24 0 0 6.28318530717959
0

0101100
+313 8 -313 8 *
Wi

0101100
+312 6 *
Ve
1e-07
399.75 657.5 18
0 0

0101101
*
Ed
 1e-07 1 1 0
1  63 0 0 6.28318530717959
2  125 5 10 0 6.28318530717959
2  126 30 0 0 6.28318530717959
0

0101100
+310 11 -310 11 *
Wi

0101100
+309 9 *
Ve
1e-07
383 640 18
0 0

0101101
*
Ed
 1e-07 1 1 0
1  64 0 0 6.28318530717959
2  127 5 10 0 6.28318530717959
2  128 51 0 0 6.28318530717959
0

0101000
+307 11 -307 11 *
Wi

0101100
+306 9 *
Ve
1e-07
332.981991156842 512.986483068392 18
0 0

0101101
*
Ed
 1e-07 1 1 0
1  65 0 0 6.28318530717959
2  129 5 7 0 6.28318530717959
2  130 27 0 0 6.28318530717959
0

0101100
+304 8 -304 8 *
Wi

0101100
+303 6 *
Ve
1e-07
222.75 180 18
0 0

0101101
*
Ed
 1e-07 1 1 0
1  66 0 0 6.28318530717959
2  131 5 7 0 6.28318530717959
2  132 7 0 0 6.28318530717959
0

0101100
+301 8 -301 8 *
Wi

0101100
+300 6 *
Ve
1e-07
222.75 340 18
0 0

0101101
*
Ed
 1e-07 1 1 0
1  67 0 0 6.28318530717959
2  133 5 7 0 6.28318530717959
2  134 8 0 0 6.28318530717959
0

0101100
+298 8 -298 8 *
Wi

0101100
+297 6 *
Ve
1e-07
272.518008843158 367.013516931608 18
0 0

0101101
*
Ed
 1e-07 1 1 0
1  68 0 0 6.28318530717959
2  135 5 7 0 6.28318530717959
2  136 9 0 0 6.28318530717959
0

0101100
+295 8 -295 8 *
Wi

0101100
+294 6 *
Ve
1.00000057e-07
371.75 440 18
0 0

0101101
*
Ed
 1e-07 1 1 0
1  69 0 0 6.28318530717959
2  137 5 7 0 6.28318530717959
2  138 26 0 0 6.28318530717959
0

0101100
+292 8 -292 8 *
Wi

0101100
+291 6 *
Ve
1e-07
229.763516931608 409.768008843158 18
0 0

0101101
*
Ed
 1e-07 1 1 0
1  70 0 0 6.28318530717959
2  139 5 7 0 6.28318530717959
2  140 11 0 0 6.28318530717959
0

0101100
+289 8 -289 8 *
Wi

0101100
+288 6 *
Ve
1e-07
229.763516931608 470.231991156842 18
0 0

0101101
*
Ed
 1e-07 1 1 0
1  71 0 0 6.28318530717959
2  141 5 7 0 6.28318530717959
2  142 12 0 0 6.28318530717959
0

0101100
+286 8 -286 8 *
Wi

0101100
+285 6 *
Ve
1e-07
272.518008843158 512.986483068392 18
0 0

0101101
*
Ed
 1e-07 1 1 0
1  72 0 0 6.28318530717959
2  143 5 7 0 6.28318530717959
2  144 13 0 0 6.28318530717959
0

0101100
+283 8 -283 8 *
Wi

0101100
+282 6 *
Ve
1e-07
223 640 18
0 0

0101101
*
Ed
 1e-07 1 1 0
1  73 0 0 6.28318530717959
2  145 5 10 0 6.28318530717959
2  146 52 0 0 6.28318530717959
0

0101000
+280 11 -280 11 *
Wi

0101100
+279 9 *
Ve
1e-07
204.75 657.5 18
0 0

0101101
*
Ed
 1e-07 1 1 0
1  74 0 0 6.28318530717959
2  147 5 10 0 6.28318530717959
2  148 14 0 0 6.28318530717959
0

0101100
+277 11 -277 11 *
Wi

0101100
+276 9 *
Ve
1e-07
99.75 657.5 18
0 0

0101101
*
Ed
 1e-07 1 1 0
1  75 0 0 6.28318530717959
2  149 5 10 0 6.28318530717959
2  150 10 0 0 6.28318530717959
0

0101100
+274 11 -274 11 *
Wi

0101100
+273 9 *
Ve
1e-07
83 640 18
0 0

0101101
*
Ed
 1e-07 1 1 0
1  76 0 0 6.28318530717959
2  151 5 10 0 6.28318530717959
2  152 53 0 0 6.28318530717959
0

0101000
+271 11 -271 11 *
Wi

0101100
+270 9 *
Ve
1e-07
504.75 762.5 18
0 0

0101101
*
Ed
 1e-07 1 1 0
1  77 0 0 6.28318530717959
2  153 5 10 0 6.28318530717959
2  154 39 0 0 6.28318530717959
0

0101100
+268 11 -268 11 *
Wi

0101100
+267 9 *
Ve
1e-07
523 780 18
0 0

0101101
*
Ed
 1e-07 1 1 0
1  78 0 0 6.28318530717959
2  155 5 10 0 6.28318530717959
2  156 54 0 0 6.28318530717959
0

0101000
+265 11 -265 11 *
Wi

0101100
+264 9 *
Ve
1e-07
508 710 18
0 0

0101101
*
Ed
 1e-07 1 1 0
1  79 0 0 6.28318530717959
2  157 5 10 0 6.28318530717959
2  158 38 0 0 6.28318530717959
0

0101100
+262 11 -262 11 *
Wi

0101100
+261 9 *
Ve
1e-07
422.75 850 18
0 0

0101101
*
Ed
 1e-07 1 1 0
1  80 0 0 6.28318530717959
2  159 5 7 0 6.28318530717959
2  160 40 0 0 6.28318530717959
0

0101100
+259 8 -259 8 *
Wi

0101100
+258 6 *
Ve
1e-07
399.75 762.5 18
0 0

0101101
*
Ed
 1e-07 1 1 0
1  81 0 0 6.28318530717959
2  161 5 10 0 6.28318530717959
2  162 37 0 0 6.28318530717959
0

0101100
+256 11 -256 11 *
Wi

0101100
+255 9 *
Ve
1e-07
383 780 18
0 0

0101101
*
Ed
 1e-07 1 1 0
1  82 0 0 6.28318530717959
2  163 5 10 0 6.28318530717959
2  164 55 0 0 6.28318530717959
0

0101000
+253 11 -253 11 *
Wi

0101100
+252 9 *
Ve
1e-07
422.75 1270 18
0 0

0101101
*
Ed
 1e-07 1 1 0
1  83 0 0 6.28318530717959
2  165 5 7 0 6.28318530717959
2  166 41 0 0 6.28318530717959
0

0101100
+250 8 -250 8 *
Wi

0101100
+249 6 *
Ve
1e-07
223 780 18
0 0

0101101
*
Ed
 1e-07 1 1 0
1  84 0 0 6.28318530717959
2  167 5 10 0 6.28318530717959
2  168 56 0 0 6.28318530717959
0

0101000
+247 11 -247 11 *
Wi

0101100
+246 9 *
Ve
1e-07
204.75 762.5 18
0 0

0101101
*
Ed
 1e-07 1 1 0
1  85 0 0 6.28318530717959
2  169 5 10 0 6.28318530717959
2  170 35 0 0 6.28318530717959
0

0101100
+244 11 -244 11 *
Wi

0101100
+243 9 *
Ve
1e-07
208 710 18
0 0

0101101
*
Ed
 1e-07 1 1 0
1  86 0 0 6.28318530717959
2  171 5 10 0 6.28318530717959
2  172 33 0 0 6.28318530717959
0

0101100
+241 11 -241 11 *
Wi

0101100
+240 9 *
Ve
1e-07
99.75 762.5 18
0 0

0101101
*
Ed
 1e-07 1 1 0
1  87 0 0 6.28318530717959
2  173 5 10 0 6.28318530717959
2  174 32 0 0 6.28318530717959
0

0101100
+238 11 -238 11 *
Wi

0101100
+237 9 *
Ve
1e-07
83 780 18
0 0

0101101
*
Ed
 1e-07 1 1 0
1  88 0 0 6.28318530717959
2  175 5 10 0 6.28318530717959
2  176 57 0 0 6.28318530717959
0

0101000
+235 11 -235 11 *
Wi

0101100
+234 9 *
Ve
1e-07
182.75 850 18
0 0

0101101
*
Ed
 1e-07 1 1 0
1  89 0 0 6.28318530717959
2  177 5 7 0 6.28318530717959
2  178 34 0 0 6.28318530717959
0

0101100
+232 8 -232 8 *
Wi

0101100
+231 6 *
Ve
1e-07
182.75 1270 18
0 0

0101101
*
Ed
 1e-07 1 1 0
1  90 0 0 6.28318530717959
2  179 5 7 0 6.28318530717959
2  180 36 0 0 6.28318530717959
0

0101100
+229 8 -229 8 *
Wi

0101100
+228 6 *
Fa
0  1e-07 5 2

0111000
+349 0 +346 0 +329 0 +326 0 +323 0 +320 0 +317 0 +314 0 +311 0 +308 0 
+305 0 +302 0 +299 0 +296 0 +293 0 +290 0 +287 0 +284 0 +281 0 +278 0 
+275 0 +272 0 +269 0 +266 0 +263 0 +260 0 +257 0 +254 0 +251 0 +248 0 
+245 0 +242 0 +239 0 +236 0 +233 0 +230 0 +227 0 *
Wi

0101100
-462 0 -456 0 +353 0 +350 0 *
Fa
0  1e-07 6 0

0111000
+225 0 *
Ed
 1e-07 1 1 0
1  91 0 1 19
3  181 182CN 7 0 1 19
0

0101000
+301 8 -454 8 *
Wi

0101100
-453 0 +223 0 +300 0 -223 0 *
Fa
0  1e-07 7 0

0111000
+222 0 *
Ed
 1e-07 1 1 0
1  92 0 1 19
3  183 184CN 8 0 1 19
0

0101000
+298 8 -451 8 *
Wi

0101100
-450 0 +220 0 +297 0 -220 0 *
Fa
0  1e-07 8 0

0111000
+219 0 *
Ed
 1e-07 1 1 0
1  93 0 1 19
3  185 186CN 9 0 1 19
0

0101000
+295 8 -448 8 *
Wi

0101100
-447 0 +217 0 +294 0 -217 0 *
Fa
0  1e-07 9 0

0111000
+216 0 *
Ed
 1e-07 1 1 0
1  94 0 1 19
3  187 188CN 10 0 1 19
0

0101000
+274 11 -445 11 *
Wi

0101100
-444 0 +214 0 +273 0 -214 0 *
Fa
0  1e-07 10 0

0111000
+213 0 *
Ed
 1e-07 1 1 0
1  95 0 1 19
3  189 190CN 11 0 1 19
0

0101000
+289 8 -442 8 *
Wi

0101100
-441 0 +211 0 +288 0 -211 0 *
Fa
0  1e-07 11 0

0111000
+210 0 *
Ed
 1e-07 1 1 0
1  96 0 1 19
3  191 192CN 12 0 1 19
0

0101000
+286 8 -439 8 *
Wi

0101100
-438 0 +208 0 +285 0 -208 0 *
Fa
0  1e-07 12 0

0111000
+207 0 *
Ed
 1e-07 1 1 0
1  97 0 1 19
3  193 194CN 13 0 1 19
0

0101000
+283 8 -436 8 *
Wi

0101100
-435 0 +205 0 +282 0 -205 0 *
Fa
0  1e-07 13 0

0111000
+204 0 *
Ed
 1e-07 1 1 0
1  98 0 1 19
3  195 196CN 14 0 1 19
0

0101000
+277 11 -433 11 *
Wi

0101100
-432 0 +202 0 +276 0 -202 0 *
Fa
0  1e-07 14 0

0111000
+201 0 *
Ve
1.5e-07
242 66 20
0 0

0101101
*
Ed
 1e-07 1 1 0
1  99 0 3 19
2  197 15 0 3 19
2  198 16 0 3 19
0

0101000
+199 12 -429 12 *
Ve
1.5e-07
234 74 20
0 0

0101101
*
Ed
 1e-07 1 1 0
1  100 0 3.14159265358979 4.71238898038469
2  199 15 0 3.14159265358979 4.71238898038469
2  200 58 0 3.14159265358979 4.71238898038469
0

0101000
+197 12 -199 12 *
Ed
 1e-07 1 1 0
1  101 0 3 19
2  201 15 0 3 19
2  202 22 0 3 19
0

0101000
+197 12 -430 12 *
Wi

0101100
-428 0 +198 0 +196 0 -195 0 *
Fa
0  1e-07 15 0

0111000
+194 0 *
Ve
1.5e-07
358 66 20
0 0

0101101
*
Ed
 1.5e-07 1 1 0
1  102 0 -29.0000000000001 86.9999999999999
2  203 16 0 -29.0000000000001 86.9999999999999
2  204 58 0 -29.0000000000001 86.9999999999999
0

0101000
+199 12 -192 12 *
Ed
 1e-07 1 1 0
1  103 0 3 19
2  205 16 0 3 19
2  206 17 0 3 19
0

0101000
+192 12 -427 12 *
Wi

0101100
-191 0 -190 0 -426 0 +198 0 *
Fa
0  1e-07 16 0

0111000
+189 0 *
Ve
1.5e-07
366 74 20
0 0

0101101
*
Ed
 1e-07 1 1 0
1  104 0 3 19
2  207 17 0 3 19
2  208 18 0 3 19
0

0101000
+187 12 -425 12 *
Ed
 1e-07 1 1 0
1  105 0 4.71238898038469 6.28318530717959
2  209 17 0 4.71238898038469 6.28318530717959
2  210 58 0 4.71238898038469 6.28318530717959
0

0101000
+192 12 -187 12 *
Wi

0101100
-424 0 +186 0 +185 0 -190 0 *
Fa
0  1e-07 17 0

0111000
+184 0 *
Ve
1.5e-07
366 146 20
0 0

0101101
*
Ed
 1e-07 1 1 0
1  106 0 3 19
2  211 18 0 3 19
2  212 19 0 3 19
0

0101000
+182 12 -423 12 *
Ed
 1.5e-07 1 1 0
1  107 0 -54 18
2  213 18 0 -54 18
2  214 58 0 -54 18
0

0101000
+182 12 -187 12 *
Wi

0101100
-186 0 -422 0 +181 0 -180 0 *
Fa
0  1e-07 18 0

0111000
+179 0 *
Ve
1.5e-07
358 154 20
0 0

0101101
*
Ed
 1e-07 1 1 0
1  108 0 3 19
2  215 19 0 3 19
2  216 20 0 3 19
0

0101000
+177 12 -421 12 *
Ed
 1e-07 1 1 0
1  109 0 0 1.5707963267949
2  217 19 0 0 1.5707963267949
2  218 58 0 0 1.5707963267949
0

0101000
+182 12 -177 12 *
Wi

0101100
-420 0 +176 0 +175 0 -181 0 *
Fa
0  1e-07 19 0

0111000
+174 0 *
Ve
1.5e-07
242 154 20
0 0

0101101
*
Ed
 1.5e-07 1 1 0
1  110 0 -29.0000000000001 86.9999999999999
2  219 20 0 -29.0000000000001 86.9999999999999
2  220 58 0 -29.0000000000001 86.9999999999999
0

0101000
+172 12 -177 12 *
Ed
 1e-07 1 1 0
1  111 0 3 19
2  221 20 0 3 19
2  222 21 0 3 19
0

0101000
+172 12 -419 12 *
Wi

0101100
-171 0 -176 0 -418 0 +170 0 *
Fa
0  1e-07 20 0

0111000
+169 0 *
Ve
1.5e-07
234 146 20
0 0

0101101
*
Ed
 1e-07 1 1 0
1  112 0 3 19
2  223 21 0 3 19
2  224 22 0 3 19
0

0101000
+167 12 -417 12 *
Ed
 1e-07 1 1 0
1  113 0 1.5707963267949 3.14159265358979
2  225 21 0 1.5707963267949 3.14159265358979
2  226 58 0 1.5707963267949 3.14159265358979
0

0101000
+172 12 -167 12 *
Wi

0101100
-416 0 +166 0 +165 0 -170 0 *
Fa
0  1e-07 21 0

0111000
+164 0 *
Ed
 1.5e-07 1 1 0
1  114 0 -54 18
2  227 22 0 -54 18
2  228 58 0 -54 18
0

0101000
+167 12 -197 12 *
Wi

0101100
-195 0 -415 0 +166 0 -162 0 *
Fa
0  1e-07 22 0

0111000
+161 0 *
Ed
 1e-07 1 1 0
1  115 0 1 19
3  229 230CN 23 0 1 19
0

0101000
+348 8 -413 8 *
Wi

0101100
-412 0 +159 0 +347 0 -159 0 *
Fa
0  1e-07 23 0

0111000
+158 0 *
Ed
 1e-07 1 1 0
1  116 0 1 19
3  231 232CN 24 0 1 19
0

0101000
+313 8 -410 8 *
Wi

0101100
-409 0 +156 0 +312 0 -156 0 *
Fa
0  1e-07 24 0

0111000
+155 0 *
Ed
 1e-07 1 1 0
1  117 0 1 19
3  233 234CN 25 0 1 19
0

0101000
+328 8 -407 8 *
Wi

0101100
-406 0 +153 0 +327 0 -153 0 *
Fa
0  1e-07 25 0

0111000
+152 0 *
Ed
 1e-07 1 1 0
1  118 0 1 19
3  235 236CN 26 0 1 19
0

0101000
+292 8 -404 8 *
Wi

0101100
-403 0 +150 0 +291 0 -150 0 *
Fa
0  1e-07 26 0

0111000
+149 0 *
Ed
 1e-07 1 1 0
1  119 0 1 19
3  237 238CN 27 0 1 19
0

0101000
+304 8 -401 8 *
Wi

0101100
-400 0 +147 0 +303 0 -147 0 *
Fa
0  1e-07 27 0

0111000
+146 0 *
Ed
 1e-07 1 1 0
1  120 0 1 19
3  239 240CN 28 0 1 19
0

0101000
+319 8 -398 8 *
Wi

0101100
-397 0 +144 0 +318 0 -144 0 *
Fa
0  1e-07 28 0

0111000
+143 0 *
Ed
 1e-07 1 1 0
1  121 0 1 19
3  241 242CN 29 0 1 19
0

0101000
+316 8 -395 8 *
Wi

0101100
-394 0 +141 0 +315 0 -141 0 *
Fa
0  1e-07 29 0

0111000
+140 0 *
Ed
 1e-07 1 1 0
1  122 0 1 19
3  243 244CN 30 0 1 19
0

0101000
+310 11 -392 11 *
Wi

0101100
-391 0 +138 0 +309 0 -138 0 *
Fa
0  1e-07 30 0

0111000
+137 0 *
Ed
 1e-07 1 1 0
1  123 0 1 19
3  245 246CN 31 0 1 19
0

0101000
+322 11 -389 11 *
Wi

0101100
-388 0 +135 0 +321 0 -135 0 *
Fa
0  1e-07 31 0

0111000
+134 0 *
Ed
 1e-07 1 1 0
1  124 0 1 19
3  247 248CN 32 0 1 19
0

0101000
+238 11 -386 11 *
Wi

0101100
-385 0 +132 0 +237 0 -132 0 *
Fa
0  1e-07 32 0

0111000
+131 0 *
Ed
 1e-07 1 1 0
1  125 0 1 19
3  249 250CN 33 0 1 19
0

0101000
+241 11 -383 11 *
Wi

0101100
-382 0 +129 0 +240 0 -129 0 *
Fa
0  1e-07 33 0

0111000
+128 0 *
Ed
 1e-07 1 1 0
1  126 0 1 19
3  251 252CN 34 0 1 19
0

0101000
+232 8 -380 8 *
Wi

0101100
-379 0 +126 0 +231 0 -126 0 *
Fa
0  1e-07 34 0

0111000
+125 0 *
Ed
 1e-07 1 1 0
1  127 0 1 19
3  253 254CN 35 0 1 19
0

0101000
+244 11 -377 11 *
Wi

0101100
-376 0 +123 0 +243 0 -123 0 *
Fa
0  1e-07 35 0

0111000
+122 0 *
Ed
 1e-07 1 1 0
1  128 0 1 19
3  255 256CN 36 0 1 19
0

0101000
+229 8 -374 8 *
Wi

0101100
-373 0 +120 0 +228 0 -120 0 *
Fa
0  1e-07 36 0

0111000
+119 0 *
Ed
 1e-07 1 1 0
1  129 0 1 19
3  257 258CN 37 0 1 19
0

0101000
+256 11 -371 11 *
Wi

0101100
-370 0 +117 0 +255 0 -117 0 *
Fa
0  1e-07 37 0

0111000
+116 0 *
Ed
 1e-07 1 1 0
1  130 0 1 19
3  259 260CN 38 0 1 19
0

0101000
+262 11 -368 11 *
Wi

0101100
-367 0 +114 0 +261 0 -114 0 *
Fa
0  1e-07 38 0

0111000
+113 0 *
Ed
 1e-07 1 1 0
1  131 0 1 19
3  261 262CN 39 0 1 19
0

0101000
+268 11 -365 11 *
Wi

0101100
-364 0 +111 0 +267 0 -111 0 *
Fa
0  1e-07 39 0

0111000
+110 0 *
Ed
 1e-07 1 1 0
1  132 0 1 19
3  263 264CN 40 0 1 19
0

0101000
+259 8 -362 8 *
Wi

0101100
-361 0 +108 0 +258 0 -108 0 *
Fa
0  1e-07 40 0

0111000
+107 0 *
Ed
 1e-07 1 1 0
1  133 0 1 19
3  265 266CN 41 0 1 19
0

0101000
+250 8 -359 8 *
Wi

0101100
-358 0 +105 0 +249 0 -105 0 *
Fa
0  1e-07 41 0

0111000
+104 0 *
Ve
3.86282245e-07
219.8 58 20
0 0

0101101
*
Ed
 1e-07 1 1 0
1  134 0 0 2
2  267 42 0 0 2
2  268 49 0 0 2
0

0101000
+345 12 -102 12 *
Ve
3.86282238e-07
219.8 162 20
0 0

0101101
*
Ed
 1e-07 1 1 0
1  135 0 0 104
2  269 42 0 0 104
2  270 58 0 0 104
0

0101000
+102 12 -100 12 *
Ed
 1e-07 1 1 0
1  136 0 0 2
2  271 42 0 0 2
2  272 43 0 0 2
0

0101000
+344 12 -100 12 *
Wi

0101100
-101 0 -99 0 +98 0 +343 0 *
Fa
0  1e-07 42 0

0111000
+97 0 *
Ve
3.86282238e-07
226 168.2 20
0 0

0101101
*
Ed
 1e-07 1 1 0
1  137 0 1.5707963267949 3.14159265358979
2  273 43 0 1.5707963267949 3.14159265358979
2  274 58 0 1.5707963267949 3.14159265358979
0

0101000
+95 12 -100 12 *
Ed
 1e-07 1 1 0
1  138 0 0 2
2  275 43 0 0 2
2  276 44 0 0 2
0

0101000
+342 12 -95 12 *
Wi

0101100
-94 0 +98 0 +341 0 -93 0 *
Fa
0  1e-07 43 0

0111000
+92 0 *
Ve
3.86282181e-07
374 168.2 20
0 0

0101101
*
Ed
 1e-07 1 1 0
1  139 0 0 2
2  277 44 0 0 2
2  278 45 0 0 2
0

0101000
+340 12 -90 12 *
Ed
 1e-07 1 1 0
1  140 0 0 148
2  279 44 0 0 148
2  280 58 0 0 148
0

0101000
+95 12 -90 12 *
Wi

0101100
-339 0 -89 0 +88 0 +93 0 *
Fa
0  1e-07 44 0

0111000
+87 0 *
Ve
3.86282238e-07
380.2 162 20
0 0

0101101
*
Ed
 1e-07 1 1 0
1  141 0 0 1.57079632679491
2  281 45 0 0 1.57079632679491
2  282 58 0 0 1.57079632679491
0

0101000
+85 12 -90 12 *
Ed
 1e-07 1 1 0
1  142 0 0 2
2  283 45 0 0 2
2  284 46 0 0 2
0

0101000
+338 12 -85 12 *
Wi

0101100
-84 0 +89 0 +337 0 -83 0 *
Fa
0  1e-07 45 0

0111000
+82 0 *
Ve
3.86282245e-07
380.2 58 20
0 0

0101101
*
Ed
 1e-07 1 1 0
1  143 0 0 2
2  285 46 0 0 2
2  286 47 0 0 2
0

0101000
+336 12 -80 12 *
Ed
 1e-07 1 1 0
1  144 0 0 104
2  287 46 0 0 104
2  288 58 0 0 104
0

0101000
+80 12 -85 12 *
Wi

0101100
-79 0 -78 0 +83 0 +335 0 *
Fa
0  1e-07 46 0

0111000
+77 0 *
Ve
1.00000022e-07
374 51.8 20
0 0

0101101
*
Ed
 1e-07 1 1 0
1  145 0 4.71238898038468 6.28318530717959
2  289 47 0 4.71238898038468 6.28318530717959
2  290 58 0 4.71238898038468 6.28318530717959
0

0101000
+75 12 -80 12 *
Ed
 1e-07 1 1 0
1  146 0 0 2
2  291 47 0 0 2
2  292 48 0 0 2
0

0101000
+334 12 -75 12 *
Wi

0101100
-74 0 +79 0 +333 0 -73 0 *
Fa
0  1e-07 47 0

0111000
+72 0 *
Ve
1e-07
226 51.8 20
0 0

0101101
*
Ed
 1e-07 1 1 0
1  147 0 0 148
2  293 48 0 0 148
2  294 58 0 0 148
0

0101000
+70 12 -75 12 *
Ed
 1e-07 1 1 0
1  148 0 0 2
2  295 48 0 0 2
2  296 49 0 0 2
0

0101000
+332 12 -70 12 *
Wi

0101100
-331 0 -73 0 +69 0 +68 0 *
Fa
0  1e-07 48 0

0111000
+67 0 *
Ed
 1e-07 1 1 0
1  149 0 3.14159265358979 4.71238898038469
2  297 49 0 3.14159265358979 4.71238898038469
2  298 58 0 3.14159265358979 4.71238898038469
0

0101000
+102 12 -70 12 *
Wi

0101100
-65 0 +68 0 +330 0 -101 0 *
Fa
0  1e-07 49 0

0111000
+64 0 *
Ve
1e-07
523 640 26
0 0

0101101
*
Ed
 1e-07 1 1 0
1  150 0 0 6.28318530717959
2  299 50 0 0 6.28318530717959
2  300 59 0 0 6.28318530717959
0

0101000
+62 11 -62 11 *
Ed
 1e-07 1 1 0
1  151 0 0 8
3  301 302CN 50 0 0 8
0

0101000
+325 11 -62 11 *
Wi

0101100
-61 0 +60 0 +324 0 -60 0 *
Fa
0  1e-07 50 0

0111000
+59 0 *
Ve
1e-07
383 640 26
0 0

0101101
*
Ed
 1e-07 1 1 0
1  152 0 0 6.28318530717959
2  303 51 0 0 6.28318530717959
2  304 60 0 0 6.28318530717959
0

0101000
+57 11 -57 11 *
Ed
 1e-07 1 1 0
1  153 0 0 8
3  305 306CN 51 0 0 8
0

0101000
+307 11 -57 11 *
Wi

0101100
-56 0 +55 0 +306 0 -55 0 *
Fa
0  1e-07 51 0

0111000
+54 0 *
Ve
1e-07
223 640 26
0 0

0101101
*
Ed
 1e-07 1 1 0
1  154 0 0 6.28318530717959
2  307 52 0 0 6.28318530717959
2  308 61 0 0 6.28318530717959
0

0101000
+52 11 -52 11 *
Ed
 1e-07 1 1 0
1  155 0 0 8
3  309 310CN 52 0 0 8
0

0101000
+280 11 -52 11 *
Wi

0101100
-51 0 +50 0 +279 0 -50 0 *
Fa
0  1e-07 52 0

0111000
+49 0 *
Ve
1e-07
83 640 26
0 0

0101101
*
Ed
 1e-07 1 1 0
1  156 0 0 6.28318530717959
2  311 53 0 0 6.28318530717959
2  312 62 0 0 6.28318530717959
0

0101000
+47 11 -47 11 *
Ed
 1e-07 1 1 0
1  157 0 0 8
3  313 314CN 53 0 0 8
0

0101000
+271 11 -47 11 *
Wi

0101100
-46 0 +45 0 +270 0 -45 0 *
Fa
0  1e-07 53 0

0111000
+44 0 *
Ve
1e-07
523 780 26
0 0

0101101
*
Ed
 1e-07 1 1 0
1  158 0 0 6.28318530717959
2  315 54 0 0 6.28318530717959
2  316 63 0 0 6.28318530717959
0

0101000
+42 11 -42 11 *
Ed
 1e-07 1 1 0
1  159 0 0 8
3  317 318CN 54 0 0 8
0

0101000
+265 11 -42 11 *
Wi

0101100
-41 0 +40 0 +264 0 -40 0 *
Fa
0  1e-07 54 0

0111000
+39 0 *
Ve
1e-07
383 780 26
0 0

0101101
*
Ed
 1e-07 1 1 0
1  160 0 0 6.28318530717959
2  319 55 0 0 6.28318530717959
2  320 64 0 0 6.28318530717959
0

0101000
+37 11 -37 11 *
Ed
 1e-07 1 1 0
1  161 0 0 8
3  321 322CN 55 0 0 8
0

0101000
+253 11 -37 11 *
Wi

0101100
-36 0 +35 0 +252 0 -35 0 *
Fa
0  1e-07 55 0

0111000
+34 0 *
Ve
1e-07
223 780 26
0 0

0101101
*
Ed
 1e-07 1 1 0
1  162 0 0 6.28318530717959
2  323 56 0 0 6.28318530717959
2  324 65 0 0 6.28318530717959
0

0101000
+32 11 -32 11 *
Ed
 1e-07 1 1 0
1  163 0 0 8
3  325 326CN 56 0 0 8
0

0101000
+247 11 -32 11 *
Wi

0101100
-31 0 +30 0 +246 0 -30 0 *
Fa
0  1e-07 56 0

0111000
+29 0 *
Ve
1e-07
83 780 26
0 0

0101101
*
Ed
 1e-07 1 1 0
1  164 0 0 6.28318530717959
2  327 57 0 0 6.28318530717959
2  328 66 0 0 6.28318530717959
0

0101000
+27 11 -27 11 *
Ed
 1e-07 1 1 0
1  165 0 0 8
3  329 330CN 57 0 0 8
0

0101000
+235 11 -27 11 *
Wi

0101100
-26 0 +25 0 +234 0 -25 0 *
Fa
0  1e-07 57 0

0111000
+24 0 *
Wi

0101100
+65 0 -99 0 +69 0 +94 0 +74 0 -88 0 +78 0 +84 0 *
Wi

0101100
-196 0 -191 0 -185 0 +180 0 -175 0 +171 0 -165 0 -162 0 *
Fa
0  1e-07 58 0

0111000
+22 0 +21 0 *
Wi

0101100
+61 0 *
Fa
0  1e-07 59 0

0111000
+19 0 *
Wi

0101100
+56 0 *
Fa
0  1e-07 60 0

0111000
+17 0 *
Wi

0101100
+51 0 *
Fa
0  1e-07 61 0

0111000
+15 0 *
Wi

0101100
+46 0 *
Fa
0  1e-07 62 0

0111000
+13 0 *
Wi

0101100
+41 0 *
Fa
0  1e-07 63 0

0111000
+11 0 *
Wi

0101100
+36 0 *
Fa
0  1e-07 64 0

0111000
+9 0 *
Wi

0101100
+31 0 *
Fa
0  1e-07 65 0

0111000
+7 0 *
Wi

0101100
+26 0 *
Fa
0  1e-07 66 0

0111000
+5 0 *
Sh

0101100
-466 2 +459 2 +356 0 +351 2 +226 0 +224 2 -221 6 -218 6 -215 6 -212 9 
-209 6 -206 6 -203 6 -200 9 -193 0 +188 0 -183 0 -178 0 -173 0 -168 0 
-163 0 +160 0 -157 6 -154 6 -151 6 -148 6 -145 6 -142 6 -139 6 -136 9 
-133 9 -130 9 -127 9 -124 6 -121 9 -118 6 -115 9 -112 9 -109 9 -106 6 
-103 6 +96 0 -91 0 -86 0 -81 0 -76 0 -71 0 +66 0 -63 0 -58 9 
-53 9 -48 9 -43 9 -38 9 -33 9 -28 9 -23 9 -20 0 -18 9 -16 9 
-14 9 -12 9 -10 9 -8 9 -6 9 -4 9 *
So

0100000
+3 0 *
Co

1100000
+2 0 *

+1 1 