DBRep_DrawableShape

CASCADE Topology V1, (c) Matra-Datavision
Locations 9
1
              1               0               0               0 
              0               1               0               0 
              0               0               1              -1 
1
              1               0               0               0 
              0               1               0               0 
              0               0               1               0 
1
              1               0               0               0 
              0               1               0               0 
              0               0               1               0 
1
              1               0               0               0 
              0               1               0               0 
              0               0               1               0 
1
              1               0               0               0 
              0               1               0               0 
              0               0               1               0 
2  2 1 3 1 4 1 5 1 0
2  5 -1 4 -1 3 -1 2 -1 0
1
              1               0               0               0 
              0               1               0               0 
              0               0               1              18 
2  1 1 8 1 0
Curve2ds 4
1 0 1 1 0 
1 0 19 1 0 
1 6.2831853071795862 -0 0 1 
1 0 -0 0 1 
Curves 3
2 316.23199115684213 349.01351693160836 -3.5527136788005009e-15 0 0 1 1 0 -0 -0 1 0 2.75
2 316.23199115684213 349.01351693160836 17.999999999999996 0 0 1 1 0 -0 -0 1 0 2.75
1 318.98199115684213 349.01351693160836 -1.0000000000000036 0 0 1 
Polygon3D 0
PolygonOnTriangulations 0
Surfaces 2
1 286 636.04999999999995 0.99999999999999312 0 0 1 1 0 -0 -0 1 0 
2 316.23199115684213 349.01351693160836 -1.0000000000000036 0 0 1 1 0 -0 -0 1 0 2.75
Triangulations 0

TShapes 13
Ve
1.00000006883383e-07
318.981991156842 349.013516931608 -3.5527136788005e-15
0 0

0101101
*
Ed
 1.00000006883383e-07 1 1 0
1  1 0 0 6.28318530717959
2  1 2 0 0 6.28318530717959
0

0101000
+13 7 -13 7 *
Wi

0101100
+12 6 *
Fa
0  1.00000003552714e-07 1 1

0101000
+11 0 *
Ve
1.00000007105427e-07
318.981991156842 349.013516931608 18
0 0

0101101
*
Ed
 1.00000007105427e-07 1 1 0
1  2 0 0 6.28318530717959
2  2 2 0 0 6.28318530717959
0

0101000
+9 7 -9 7 *
Ed
 1e-07 1 1 0
1  3 0 1 19
3  3 4CN 2 0 1 19
0

0101000
+13 7 -9 7 *
Wi

0101100
-8 6 +7 6 +12 6 -7 6 *
Fa
0  1e-07 2 6

0101000
+6 0 *
Wi

0101100
+8 6 *
Fa
0  1.00000003552714e-07 1 9

0101000
+4 0 *
Sh

0101100
-10 0 +5 0 +3 0 *
So

0100000
+2 0 *

+1 0 