DBRep_DrawableShape

CASCADE Topology V1, (c) Matra-Datavision
Locations 9
1
              1               0               0               0 
              0               1               0               0 
              0               0               1               0 
1
              1               0               0               0 
              0               1               0               0 
              0               0               1               0 
1
              1               0               0               0 
              0               1               0               0 
              0               0               1               0 
1
              1               0               0               0 
              0               1               0               0 
              0               0               1               0 
1
              1               0               0               0 
              0               1               0               0 
              0               0               1 6.88338275267597e-15 
1
              1               0               0               0 
              0               1               0               0 
              0               0               1               1 
1
              1               0               0               0 
              0               1               0               0 
              0               0               1              -1 
2  1 1 2 1 3 1 4 1 5 1 6 1 7 1 0
2  7 -1 6 -1 5 -1 4 -1 3 -1 2 -1 1 -1 0
Curve2ds 0
Curves 1
2 406 832 -6.8833827526759713e-15 0 -0 1 1 0 0 -0 1 0 2.75
Polygon3D 0
PolygonOnTriangulations 0
Surfaces 1
1 406 832 7.8886090522101181e-31 0 0 1 1 0 -0 -0 1 0 
Triangulations 0

TShapes 5
Ve
1.00000017911598e-07
408.75 832 1.1842378929335e-15
0 0

0101101
*
Ed
 1.00000017319479e-07 1 1 0
1  1 0 0 6.28318530717959
0

0101000
+5 9 -5 9 *
Wi

0101100
-4 8 *
Fa
0  1e-07 1 0

0101000
-3 0 *
Sh

1101000
+2 0 *

+1 0 