DBRep_DrawableShape

CASCADE Topology V1, (c) Matra-Datavision
Locations 8
1
              1               0               0               0 
              0               1               0               0 
              0               0               1              -1 
1
              1               0               0               0 
              0               1               0               0 
              0               0               1               0 
1
              1               0               0               0 
              0               1               0               0 
              0               0               1               0 
1
              1               0               0               0 
              0               1               0               0 
              0               0               1               0 
2  2 1 3 1 4 1 0
2  4 -1 3 -1 2 -1 0
1
              1               0               0               0 
              0               1               0               0 
              0               0               1              18 
2  1 1 7 1 0
Curve2ds 4
1 0 1 1 0 
1 0 19 1 0 
1 6.2831853071795862 -0 0 1 
1 0 -0 0 1 
Curves 3
2 488.5 639.5 -3.5527136788005009e-15 0 0 1 1 0 -0 -0 1 0 2.25
2 488.5 639.5 17.999999999999996 0 0 1 1 0 -0 -0 1 0 2.25
1 490.75 639.5 -1.0000000000000036 0 0 1 
Polygon3D 0
PolygonOnTriangulations 0
Surfaces 2
1 286 636.04999999999995 0.99999999999999312 0 0 1 1 0 -0 -0 1 0 
2 488.5 639.5 -1.0000000000000036 0 0 1 1 0 -0 -0 1 0 2.25
Triangulations 0

TShapes 13
Ve
1.00000006883383e-07
490.75 639.5 -3.5527136788005e-15
0 0

0101101
*
Ed
 1.00000006883383e-07 1 1 0
1  1 0 0 6.28318530717959
2  1 2 0 0 6.28318530717959
0

0101000
+13 6 -13 6 *
Wi

0101100
+12 5 *
Fa
0  1.00000003552714e-07 1 1

0101000
+11 0 *
Ve
1.00000007105427e-07
490.75 639.5 18
0 0

0101101
*
Ed
 1.00000007105427e-07 1 1 0
1  2 0 0 6.28318530717959
2  2 2 0 0 6.28318530717959
0

0101000
+9 6 -9 6 *
Ed
 1e-07 1 1 0
1  3 0 1 19
3  3 4CN 2 0 1 19
0

0101000
+13 6 -9 6 *
Wi

0101100
-8 5 +7 5 +12 5 -7 5 *
Fa
0  1e-07 2 5

0101000
+6 0 *
Wi

0101100
+8 5 *
Fa
0  1.00000003552714e-07 1 8

0101000
+4 0 *
Sh

0101100
-10 0 +5 0 +3 0 *
So

0100000
+2 0 *

+1 0 