DBRep_DrawableShape

CASCADE Topology V1, (c) Matra-Datavision
Locations 298
1
              1               0               0               0 
              0               1               0               0 
              0               0               1               0 
1
              1               0               0               0 
              0               1               0               0 
              0               0               1               0 
1
              1               0               0               0 
              0               1               0               0 
              0               0               1             -18 
1
              1               0               0               0 
              0               1               0               0 
              0               0               1               1 
1
              1               0               0               0 
              0               1               0               0 
              0               0               1              -1 
2  1 1 2 1 3 1 4 1 5 1 0
2  5 -1 4 -1 3 -1 2 -1 1 -1 0
2  4 -1 3 -1 2 -1 1 -1 0
1
              1               0               0               0 
              0               1               0               0 
              0               0               1              18 
2  1 1 2 1 3 1 4 1 5 1 9 1 0
2  9 -1 5 -1 4 -1 3 -1 2 -1 1 -1 0
1
              1               0               0               0 
              0               1               0               0 
              0               0               1               0 
1
              1               0               0               0 
              0               1               0               0 
              0               0               1               0 
1
              1               0               0               0 
              0               1               0               0 
              0               0               1 6.88338275267597e-15 
1
              1               0               0               0 
              0               1               0               0 
              0               0               1               1 
1
              1               0               0               0 
              0               1               0               0 
              0               0               1              -1 
2  12 1 13 1 1 1 2 1 14 1 15 1 16 1 0
2  16 -1 15 -1 14 -1 2 -1 1 -1 13 -1 12 -1 0
1
              1               0               0               0 
              0               1               0               0 
              0               0               1              18 
2  19 -1 16 -1 15 -1 14 -1 2 -1 1 -1 13 -1 12 -1 0
1
              1               0               0               0 
              0               1               0               0 
              0               0               1 6.88338275267597e-15 
1
              1               0               0               0 
              0               1               0               0 
              0               0               1               1 
1
              1               0               0               0 
              0               1               0               0 
              0               0               1              -1 
2  12 1 13 1 1 1 2 1 21 1 22 1 23 1 0
2  23 -1 22 -1 21 -1 2 -1 1 -1 13 -1 12 -1 0
1
              1               0               0               0 
              0               1               0               0 
              0               0               1              18 
2  26 -1 23 -1 22 -1 21 -1 2 -1 1 -1 13 -1 12 -1 0
1
              1               0               0               0 
              0               1               0               0 
              0               0               1 6.88338275267597e-15 
1
              1               0               0               0 
              0               1               0               0 
              0               0               1               1 
1
              1               0               0               0 
              0               1               0               0 
              0               0               1              -1 
2  13 1 1 1 2 1 28 1 29 1 30 1 0
2  30 -1 29 -1 28 -1 2 -1 1 -1 13 -1 0
1
              1               0               0               0 
              0               1               0               0 
              0               0               1               8 
2  33 -1 30 -1 29 -1 28 -1 2 -1 1 -1 13 -1 0
1
              1               0               0               0 
              0               1               0               0 
              0               0               1 6.88338275267597e-15 
1
              1               0               0               0 
              0               1               0               0 
              0               0               1               1 
1
              1               0               0               0 
              0               1               0               0 
              0               0               1              -1 
2  13 1 1 1 2 1 35 1 36 1 37 1 0
2  37 -1 36 -1 35 -1 2 -1 1 -1 13 -1 0
1
              1               0               0               0 
              0               1               0               0 
              0               0               1              18 
2  40 -1 37 -1 36 -1 35 -1 2 -1 1 -1 13 -1 0
1
              1               0               0               0 
              0               1               0               0 
              0               0               1 6.88338275267597e-15 
1
              1               0               0               0 
              0               1               0               0 
              0               0               1               1 
1
              1               0               0               0 
              0               1               0               0 
              0               0               1              -1 
2  12 1 13 1 1 1 2 1 42 1 43 1 44 1 0
2  44 -1 43 -1 42 -1 2 -1 1 -1 13 -1 12 -1 0
1
              1               0               0               0 
              0               1               0               0 
              0               0               1              18 
2  47 -1 44 -1 43 -1 42 -1 2 -1 1 -1 13 -1 12 -1 0
1
              1               0               0               0 
              0               1               0               0 
              0               0               1 6.88338275267597e-15 
1
              1               0               0               0 
              0               1               0               0 
              0               0               1               1 
1
              1               0               0               0 
              0               1               0               0 
              0               0               1              -1 
2  12 1 13 1 1 1 2 1 49 1 50 1 51 1 0
2  51 -1 50 -1 49 -1 2 -1 1 -1 13 -1 12 -1 0
1
              1               0               0               0 
              0               1               0               0 
              0               0               1              18 
2  54 -1 51 -1 50 -1 49 -1 2 -1 1 -1 13 -1 12 -1 0
1
              1               0               0               0 
              0               1               0               0 
              0               0               1 6.88338275267597e-15 
1
              1               0               0               0 
              0               1               0               0 
              0               0               1               1 
1
              1               0               0               0 
              0               1               0               0 
              0               0               1              -1 
2  12 1 13 1 1 1 2 1 56 1 57 1 58 1 0
2  58 -1 57 -1 56 -1 2 -1 1 -1 13 -1 12 -1 0
1
              1               0               0               0 
              0               1               0               0 
              0               0               1              18 
2  61 -1 58 -1 57 -1 56 -1 2 -1 1 -1 13 -1 12 -1 0
1
              1               0               0               0 
              0               1               0               0 
              0               0               1 6.88338275267597e-15 
1
              1               0               0               0 
              0               1               0               0 
              0               0               1               1 
1
              1               0               0               0 
              0               1               0               0 
              0               0               1              -1 
2  13 1 1 1 2 1 63 1 64 1 65 1 0
2  65 -1 64 -1 63 -1 2 -1 1 -1 13 -1 0
1
              1               0               0               0 
              0               1               0               0 
              0               0               1              18 
2  68 -1 65 -1 64 -1 63 -1 2 -1 1 -1 13 -1 0
1
              1               0               0               0 
              0               1               0               0 
              0               0               1 6.88338275267597e-15 
1
              1               0               0               0 
              0               1               0               0 
              0               0               1               1 
1
              1               0               0               0 
              0               1               0               0 
              0               0               1              -1 
2  13 1 1 1 2 1 70 1 71 1 72 1 0
2  72 -1 71 -1 70 -1 2 -1 1 -1 13 -1 0
1
              1               0               0               0 
              0               1               0               0 
              0               0               1               8 
2  75 -1 72 -1 71 -1 70 -1 2 -1 1 -1 13 -1 0
1
              1               0               0               0 
              0               1               0               0 
              0               0               1 6.88338275267597e-15 
1
              1               0               0               0 
              0               1               0               0 
              0               0               1               1 
1
              1               0               0               0 
              0               1               0               0 
              0               0               1              -1 
2  12 1 13 1 1 1 2 1 77 1 78 1 79 1 0
2  79 -1 78 -1 77 -1 2 -1 1 -1 13 -1 12 -1 0
1
              1               0               0               0 
              0               1               0               0 
              0               0               1              18 
2  82 -1 79 -1 78 -1 77 -1 2 -1 1 -1 13 -1 12 -1 0
1
              1               0               0               0 
              0               1               0               0 
              0               0               1               2 
2  84 -1 0
1
              1               0               0               0 
              0               1               0               0 
              0               0               1 6.88338275267597e-15 
1
              1               0               0               0 
              0               1               0               0 
              0               0               1               1 
1
              1               0               0               0 
              0               1               0               0 
              0               0               1              -1 
2  12 1 13 1 1 1 2 1 86 1 87 1 88 1 0
2  88 -1 87 -1 86 -1 2 -1 1 -1 13 -1 12 -1 0
1
              1               0               0               0 
              0               1               0               0 
              0               0               1              18 
2  91 -1 88 -1 87 -1 86 -1 2 -1 1 -1 13 -1 12 -1 0
1
              1               0               0               0 
              0               1               0               0 
              0               0               1 6.88338275267597e-15 
1
              1               0               0               0 
              0               1               0               0 
              0               0               1               1 
1
              1               0               0               0 
              0               1               0               0 
              0               0               1              -1 
2  12 1 13 1 1 1 2 1 93 1 94 1 95 1 0
2  95 -1 94 -1 93 -1 2 -1 1 -1 13 -1 12 -1 0
1
              1               0               0               0 
              0               1               0               0 
              0               0               1              18 
2  98 -1 95 -1 94 -1 93 -1 2 -1 1 -1 13 -1 12 -1 0
1
              1               0               0               0 
              0               1               0               0 
              0               0               1 6.88338275267597e-15 
1
              1               0               0               0 
              0               1               0               0 
              0               0               1               1 
1
              1               0               0               0 
              0               1               0               0 
              0               0               1              -1 
2  12 1 13 1 1 1 2 1 100 1 101 1 102 1 0
2  102 -1 101 -1 100 -1 2 -1 1 -1 13 -1 12 -1 0
1
              1               0               0               0 
              0               1               0               0 
              0               0               1              18 
2  105 -1 102 -1 101 -1 100 -1 2 -1 1 -1 13 -1 12 -1 0
1
              1               0               0               0 
              0               1               0               0 
              0               0               1 6.88338275267597e-15 
1
              1               0               0               0 
              0               1               0               0 
              0               0               1               1 
1
              1               0               0               0 
              0               1               0               0 
              0               0               1              -1 
2  12 1 13 1 1 1 2 1 107 1 108 1 109 1 0
2  109 -1 108 -1 107 -1 2 -1 1 -1 13 -1 12 -1 0
1
              1               0               0               0 
              0               1               0               0 
              0               0               1              18 
2  112 -1 109 -1 108 -1 107 -1 2 -1 1 -1 13 -1 12 -1 0
1
              1               0               0               0 
              0               1               0               0 
              0               0               1 6.88338275267597e-15 
1
              1               0               0               0 
              0               1               0               0 
              0               0               1               1 
1
              1               0               0               0 
              0               1               0               0 
              0               0               1              -1 
2  12 1 13 1 1 1 2 1 114 1 115 1 116 1 0
2  116 -1 115 -1 114 -1 2 -1 1 -1 13 -1 12 -1 0
1
              1               0               0               0 
              0               1               0               0 
              0               0               1              18 
2  119 -1 116 -1 115 -1 114 -1 2 -1 1 -1 13 -1 12 -1 0
1
              1               0               0               0 
              0               1               0               0 
              0               0               1 6.88338275267597e-15 
1
              1               0               0               0 
              0               1               0               0 
              0               0               1               1 
1
              1               0               0               0 
              0               1               0               0 
              0               0               1              -1 
2  12 1 13 1 1 1 2 1 121 1 122 1 123 1 0
2  123 -1 122 -1 121 -1 2 -1 1 -1 13 -1 12 -1 0
1
              1               0               0               0 
              0               1               0               0 
              0               0               1              18 
2  126 -1 123 -1 122 -1 121 -1 2 -1 1 -1 13 -1 12 -1 0
1
              1               0               0               0 
              0               1               0               0 
              0               0               1 6.88338275267597e-15 
1
              1               0               0               0 
              0               1               0               0 
              0               0               1               1 
1
              1               0               0               0 
              0               1               0               0 
              0               0               1              -1 
2  12 1 13 1 1 1 2 1 128 1 129 1 130 1 0
2  130 -1 129 -1 128 -1 2 -1 1 -1 13 -1 12 -1 0
1
              1               0               0               0 
              0               1               0               0 
              0               0               1              18 
2  133 -1 130 -1 129 -1 128 -1 2 -1 1 -1 13 -1 12 -1 0
1
              1               0               0               0 
              0               1               0               0 
              0               0               1 6.88338275267597e-15 
1
              1               0               0               0 
              0               1               0               0 
              0               0               1               1 
1
              1               0               0               0 
              0               1               0               0 
              0               0               1              -1 
2  13 1 1 1 2 1 135 1 136 1 137 1 0
2  137 -1 136 -1 135 -1 2 -1 1 -1 13 -1 0
1
              1               0               0               0 
              0               1               0               0 
              0               0               1               8 
2  140 -1 137 -1 136 -1 135 -1 2 -1 1 -1 13 -1 0
1
              1               0               0               0 
              0               1               0               0 
              0               0               1 6.88338275267597e-15 
1
              1               0               0               0 
              0               1               0               0 
              0               0               1               1 
1
              1               0               0               0 
              0               1               0               0 
              0               0               1              -1 
2  13 1 1 1 2 1 142 1 143 1 144 1 0
2  144 -1 143 -1 142 -1 2 -1 1 -1 13 -1 0
1
              1               0               0               0 
              0               1               0               0 
              0               0               1              18 
2  147 -1 144 -1 143 -1 142 -1 2 -1 1 -1 13 -1 0
1
              1               0               0               0 
              0               1               0               0 
              0               0               1 6.88338275267597e-15 
1
              1               0               0               0 
              0               1               0               0 
              0               0               1               1 
1
              1               0               0               0 
              0               1               0               0 
              0               0               1              -1 
2  13 1 1 1 2 1 149 1 150 1 151 1 0
2  151 -1 150 -1 149 -1 2 -1 1 -1 13 -1 0
1
              1               0               0               0 
              0               1               0               0 
              0               0               1              18 
2  154 -1 151 -1 150 -1 149 -1 2 -1 1 -1 13 -1 0
1
              1               0               0               0 
              0               1               0               0 
              0               0               1 6.88338275267597e-15 
1
              1               0               0               0 
              0               1               0               0 
              0               0               1               1 
1
              1               0               0               0 
              0               1               0               0 
              0               0               1              -1 
2  13 1 1 1 2 1 156 1 157 1 158 1 0
2  158 -1 157 -1 156 -1 2 -1 1 -1 13 -1 0
1
              1               0               0               0 
              0               1               0               0 
              0               0               1               8 
2  161 -1 158 -1 157 -1 156 -1 2 -1 1 -1 13 -1 0
1
              1               0               0               0 
              0               1               0               0 
              0               0               1 6.88338275267597e-15 
1
              1               0               0               0 
              0               1               0               0 
              0               0               1               1 
1
              1               0               0               0 
              0               1               0               0 
              0               0               1              -1 
2  13 1 1 1 2 1 163 1 164 1 165 1 0
2  165 -1 164 -1 163 -1 2 -1 1 -1 13 -1 0
1
              1               0               0               0 
              0               1               0               0 
              0               0               1              18 
2  168 -1 165 -1 164 -1 163 -1 2 -1 1 -1 13 -1 0
1
              1               0               0               0 
              0               1               0               0 
              0               0               1 6.88338275267597e-15 
1
              1               0               0               0 
              0               1               0               0 
              0               0               1               1 
1
              1               0               0               0 
              0               1               0               0 
              0               0               1              -1 
2  13 1 1 1 2 1 170 1 171 1 172 1 0
2  172 -1 171 -1 170 -1 2 -1 1 -1 13 -1 0
1
              1               0               0               0 
              0               1               0               0 
              0               0               1               8 
2  175 -1 172 -1 171 -1 170 -1 2 -1 1 -1 13 -1 0
1
              1               0               0               0 
              0               1               0               0 
              0               0               1 6.88338275267597e-15 
1
              1               0               0               0 
              0               1               0               0 
              0               0               1               1 
1
              1               0               0               0 
              0               1               0               0 
              0               0               1              -1 
2  13 1 1 1 2 1 177 1 178 1 179 1 0
2  179 -1 178 -1 177 -1 2 -1 1 -1 13 -1 0
1
              1               0               0               0 
              0               1               0               0 
              0               0               1              18 
2  182 -1 179 -1 178 -1 177 -1 2 -1 1 -1 13 -1 0
1
              1               0               0               0 
              0               1               0               0 
              0               0               1 6.88338275267597e-15 
1
              1               0               0               0 
              0               1               0               0 
              0               0               1               1 
1
              1               0               0               0 
              0               1               0               0 
              0               0               1              -1 
2  12 1 13 1 1 1 2 1 184 1 185 1 186 1 0
2  186 -1 185 -1 184 -1 2 -1 1 -1 13 -1 12 -1 0
1
              1               0               0               0 
              0               1               0               0 
              0               0               1              18 
2  189 -1 186 -1 185 -1 184 -1 2 -1 1 -1 13 -1 12 -1 0
1
              1               0               0               0 
              0               1               0               0 
              0               0               1 6.88338275267597e-15 
1
              1               0               0               0 
              0               1               0               0 
              0               0               1               1 
1
              1               0               0               0 
              0               1               0               0 
              0               0               1              -1 
2  13 1 1 1 2 1 191 1 192 1 193 1 0
2  193 -1 192 -1 191 -1 2 -1 1 -1 13 -1 0
1
              1               0               0               0 
              0               1               0               0 
              0               0               1              18 
2  196 -1 193 -1 192 -1 191 -1 2 -1 1 -1 13 -1 0
1
              1               0               0               0 
              0               1               0               0 
              0               0               1 6.88338275267597e-15 
1
              1               0               0               0 
              0               1               0               0 
              0               0               1               1 
1
              1               0               0               0 
              0               1               0               0 
              0               0               1              -1 
2  13 1 1 1 2 1 198 1 199 1 200 1 0
2  200 -1 199 -1 198 -1 2 -1 1 -1 13 -1 0
1
              1               0               0               0 
              0               1               0               0 
              0               0               1               8 
2  203 -1 200 -1 199 -1 198 -1 2 -1 1 -1 13 -1 0
1
              1               0               0               0 
              0               1               0               0 
              0               0               1 6.88338275267597e-15 
1
              1               0               0               0 
              0               1               0               0 
              0               0               1               1 
1
              1               0               0               0 
              0               1               0               0 
              0               0               1              -1 
2  12 1 13 1 1 1 2 1 205 1 206 1 207 1 0
2  207 -1 206 -1 205 -1 2 -1 1 -1 13 -1 12 -1 0
1
              1               0               0               0 
              0               1               0               0 
              0               0               1              18 
2  210 -1 207 -1 206 -1 205 -1 2 -1 1 -1 13 -1 12 -1 0
1
              1               0               0               0 
              0               1               0               0 
              0               0               1 6.88338275267597e-15 
1
              1               0               0               0 
              0               1               0               0 
              0               0               1               1 
1
              1               0               0               0 
              0               1               0               0 
              0               0               1              -1 
2  13 1 1 1 2 1 212 1 213 1 214 1 0
2  214 -1 213 -1 212 -1 2 -1 1 -1 13 -1 0
1
              1               0               0               0 
              0               1               0               0 
              0               0               1               8 
2  217 -1 214 -1 213 -1 212 -1 2 -1 1 -1 13 -1 0
1
              1               0               0               0 
              0               1               0               0 
              0               0               1 6.88338275267597e-15 
1
              1               0               0               0 
              0               1               0               0 
              0               0               1               1 
1
              1               0               0               0 
              0               1               0               0 
              0               0               1              -1 
2  13 1 1 1 2 1 219 1 220 1 221 1 0
2  221 -1 220 -1 219 -1 2 -1 1 -1 13 -1 0
1
              1               0               0               0 
              0               1               0               0 
              0               0               1              18 
2  224 -1 221 -1 220 -1 219 -1 2 -1 1 -1 13 -1 0
1
              1               0               0               0 
              0               1               0               0 
              0               0               1 6.88338275267597e-15 
1
              1               0               0               0 
              0               1               0               0 
              0               0               1               1 
1
              1               0               0               0 
              0               1               0               0 
              0               0               1              -1 
2  13 1 1 1 2 1 226 1 227 1 228 1 0
2  228 -1 227 -1 226 -1 2 -1 1 -1 13 -1 0
1
              1               0               0               0 
              0               1               0               0 
              0               0               1              18 
2  231 -1 228 -1 227 -1 226 -1 2 -1 1 -1 13 -1 0
1
              1               0               0               0 
              0               1               0               0 
              0               0               1 6.88338275267597e-15 
1
              1               0               0               0 
              0               1               0               0 
              0               0               1               1 
1
              1               0               0               0 
              0               1               0               0 
              0               0               1              -1 
2  13 1 1 1 2 1 233 1 234 1 235 1 0
2  235 -1 234 -1 233 -1 2 -1 1 -1 13 -1 0
1
              1               0               0               0 
              0               1               0               0 
              0               0               1              18 
2  238 -1 235 -1 234 -1 233 -1 2 -1 1 -1 13 -1 0
1
              1               0               0               0 
              0               1               0               0 
              0               0               1 6.88338275267597e-15 
1
              1               0               0               0 
              0               1               0               0 
              0               0               1               1 
1
              1               0               0               0 
              0               1               0               0 
              0               0               1              -1 
2  13 1 1 1 2 1 240 1 241 1 242 1 0
2  242 -1 241 -1 240 -1 2 -1 1 -1 13 -1 0
1
              1               0               0               0 
              0               1               0               0 
              0               0               1               8 
2  245 -1 242 -1 241 -1 240 -1 2 -1 1 -1 13 -1 0
1
              1               0               0               0 
              0               1               0               0 
              0               0               1 6.88338275267597e-15 
1
              1               0               0               0 
              0               1               0               0 
              0               0               1               1 
1
              1               0               0               0 
              0               1               0               0 
              0               0               1              -1 
2  12 1 13 1 1 1 2 1 247 1 248 1 249 1 0
2  249 -1 248 -1 247 -1 2 -1 1 -1 13 -1 12 -1 0
1
              1               0               0               0 
              0               1               0               0 
              0               0               1              18 
2  252 -1 249 -1 248 -1 247 -1 2 -1 1 -1 13 -1 12 -1 0
1
              1               0               0               0 
              0               1               0               0 
              0               0               1 6.88338275267597e-15 
1
              1               0               0               0 
              0               1               0               0 
              0               0               1               1 
1
              1               0               0               0 
              0               1               0               0 
              0               0               1              -1 
2  12 1 13 1 1 1 2 1 254 1 255 1 256 1 0
2  256 -1 255 -1 254 -1 2 -1 1 -1 13 -1 12 -1 0
1
              1               0               0               0 
              0               1               0               0 
              0               0               1              18 
2  259 -1 256 -1 255 -1 254 -1 2 -1 1 -1 13 -1 12 -1 0
2  5 1 9 1 0
2  12 1 13 1 1 1 2 1 14 1 15 1 16 1 19 1 0
2  12 1 13 1 1 1 2 1 21 1 22 1 23 1 26 1 0
2  12 1 13 1 1 1 2 1 56 1 57 1 58 1 61 1 0
2  13 1 1 1 2 1 35 1 36 1 37 1 40 1 0
2  12 1 13 1 1 1 2 1 42 1 43 1 44 1 47 1 0
2  12 1 13 1 1 1 2 1 49 1 50 1 51 1 54 1 0
2  12 1 13 1 1 1 2 1 77 1 78 1 79 1 82 1 0
2  13 1 1 1 2 1 63 1 64 1 65 1 68 1 0
1
              1               0               0               0 
              0               1               0               0 
              0               0               1              18 
2  270 -1 0
2  12 1 13 1 1 1 2 1 86 1 87 1 88 1 91 1 0
2  12 1 13 1 1 1 2 1 100 1 101 1 102 1 105 1 0
2  12 1 13 1 1 1 2 1 93 1 94 1 95 1 98 1 0
2  12 1 13 1 1 1 2 1 107 1 108 1 109 1 112 1 0
2  12 1 13 1 1 1 2 1 128 1 129 1 130 1 133 1 0
2  12 1 13 1 1 1 2 1 114 1 115 1 116 1 119 1 0
2  12 1 13 1 1 1 2 1 121 1 122 1 123 1 126 1 0
2  13 1 1 1 2 1 142 1 143 1 144 1 147 1 0
2  13 1 1 1 2 1 149 1 150 1 151 1 154 1 0
2  13 1 1 1 2 1 163 1 164 1 165 1 168 1 0
2  13 1 1 1 2 1 177 1 178 1 179 1 182 1 0
2  12 1 13 1 1 1 2 1 184 1 185 1 186 1 189 1 0
2  13 1 1 1 2 1 191 1 192 1 193 1 196 1 0
2  12 1 13 1 1 1 2 1 205 1 206 1 207 1 210 1 0
2  13 1 1 1 2 1 219 1 220 1 221 1 224 1 0
2  13 1 1 1 2 1 226 1 227 1 228 1 231 1 0
2  13 1 1 1 2 1 233 1 234 1 235 1 238 1 0
2  12 1 13 1 1 1 2 1 247 1 248 1 249 1 252 1 0
2  12 1 13 1 1 1 2 1 254 1 255 1 256 1 259 1 0
2  13 1 1 1 2 1 28 1 29 1 30 1 33 1 0
2  13 1 1 1 2 1 70 1 71 1 72 1 75 1 0
2  13 1 1 1 2 1 135 1 136 1 137 1 140 1 0
2  13 1 1 1 2 1 156 1 157 1 158 1 161 1 0
2  13 1 1 1 2 1 170 1 171 1 172 1 175 1 0
2  13 1 1 1 2 1 198 1 199 1 200 1 203 1 0
2  13 1 1 1 2 1 212 1 213 1 214 1 217 1 0
2  13 1 1 1 2 1 240 1 241 1 242 1 245 1 0
Curve2ds 212
1 0 -3.5527136788005009e-15 0 -1 
1 -1.7763568394002499e-15 -3.5527136788005009e-15 0 -1 
1 1272.0999999999999 -3.5527136788005009e-15 0 -1 
1 -1.7763568394002501e-15 -3.5527136788005009e-15 0 -1 
1 0 0 1 0 
1 -286 -636.04999999999995 0 1 
1 0 -18.000000000000007 1 0 
1 -286 -636.04999999999995 0 1 
1 572 -3.5527136788005009e-15 0 -1 
1 0 -3.5527136788005009e-15 0 -1 
1 568 0 1 0 
1 282 -636.04999999999995 1 0 
1 568 -18.000000000000007 1 0 
1 282 -636.04999999999995 1 0 
1 1272.0999999999999 -3.5527136788005009e-15 0 -1 
1 572 -3.5527136788005009e-15 0 -1 
1 568 0 1 0 
1 282 636.04999999999995 1 0 
1 568 -18.000000000000007 1 0 
1 282 636.04999999999995 1 0 
1 0 0 1 0 
1 286 -636.04999999999995 0 1 
1 0 0 1 0 
1 0 -17.999999999999996 1 0 
1 0 0 1 0 
1 0 -17.999999999999996 1 0 
1 0 0 1 0 
1 0 -7.9999999999999964 1 0 
1 0 0 1 0 
1 0 -17.999999999999996 1 0 
1 0 0 1 0 
1 0 -17.999999999999996 1 0 
1 0 0 1 0 
1 0 -17.999999999999996 1 0 
1 0 0 1 0 
1 0 -17.999999999999996 1 0 
1 0 0 1 0 
1 0 -17.999999999999996 1 0 
1 0 0 1 0 
1 0 -7.9999999999999964 1 0 
1 0 0 1 0 
1 0 -17.999999999999996 1 0 
1 0 0 1 0 
1 0 -1.9999999999999964 1 0 
1 0 0 1 0 
1 0 -1.9999999999999964 1 0 
1 0 0 1 0 
1 0 -1.9999999999999964 1 0 
1 0 0 1 0 
1 0 -1.9999999999999964 1 0 
1 0 0 1 0 
1 0 -17.999999999999996 1 0 
1 0 0 1 0 
1 0 -17.999999999999996 1 0 
1 0 0 1 0 
1 0 -17.999999999999996 1 0 
1 0 0 1 0 
1 0 -17.999999999999996 1 0 
1 0 0 1 0 
1 0 -17.999999999999996 1 0 
1 0 0 1 0 
1 0 -17.999999999999996 1 0 
1 0 0 1 0 
1 0 -17.999999999999996 1 0 
1 0 0 1 0 
1 0 -7.9999999999999964 1 0 
1 0 0 1 0 
1 0 -17.999999999999996 1 0 
1 0 0 1 0 
1 0 -17.999999999999996 1 0 
1 0 0 1 0 
1 0 -7.9999999999999964 1 0 
1 0 0 1 0 
1 0 -17.999999999999996 1 0 
1 0 0 1 0 
1 0 -7.9999999999999964 1 0 
1 0 0 1 0 
1 0 -17.999999999999996 1 0 
1 0 0 1 0 
1 0 -17.999999999999996 1 0 
1 0 0 1 0 
1 0 -17.999999999999996 1 0 
1 0 0 1 0 
1 0 -7.9999999999999964 1 0 
1 0 0 1 0 
1 0 -17.999999999999996 1 0 
1 0 0 1 0 
1 0 -7.9999999999999964 1 0 
1 0 0 1 0 
1 0 -17.999999999999996 1 0 
1 0 0 1 0 
1 0 -17.999999999999996 1 0 
1 0 0 1 0 
1 0 -17.999999999999996 1 0 
1 0 0 1 0 
1 0 -7.9999999999999964 1 0 
1 0 0 1 0 
1 0 -17.999999999999996 1 0 
1 0 0 1 0 
1 0 -17.999999999999996 1 0 
1 0 -18.000000000000007 1 0 
1 286 -636.04999999999995 0 1 
1 0 0 1 0 
1 0 -18.000000000000004 1 0 
1 0 0 1 0 
1 0 -18.000000000000004 1 0 
1 0 0 1 0 
1 0 -18.000000000000004 1 0 
1 0 0 1 0 
1 0 -18.000000000000004 1 0 
1 0 0 0 -1 
1 6.2831853071795898 0 0 -1 
1 0 0 0 -1 
1 6.2831853071795898 0 0 -1 
1 0 0 0 -1 
1 6.2831853071795898 0 0 -1 
1 0 0 0 -1 
1 6.2831853071795898 0 0 -1 
1 0 0 0 -1 
1 6.2831853071795898 0 0 -1 
1 0 0 0 -1 
1 6.2831853071795898 0 0 -1 
1 0 0 0 -1 
1 6.2831853071795898 0 0 -1 
1 0 0 0 -1 
1 6.2831853071795898 0 0 -1 
1 0 0 0 -1 
1 6.2831853071795898 0 0 -1 
1 0 0 0 -1 
1 6.2831853071795898 0 0 -1 
1 3.1415926535897931 0 0 -1 
1 4.7123889803846897 0 0 -1 
1 3.1415926535897931 0 0 -1 
1 4.7123889803846897 0 0 -1 
1 1.5707963267948966 0 0 -1 
1 6.2831853071795862 0 0 -1 
1 7.8539816339744828 0 0 -1 
1 6.2831853071795862 0 0 -1 
1 0 0 0 -1 
1 6.2831853071795898 0 0 -1 
1 0 0 0 -1 
1 6.2831853071795898 0 0 -1 
1 0 0 0 -1 
1 6.2831853071795898 0 0 -1 
1 0 0 0 -1 
1 6.2831853071795898 0 0 -1 
1 0 0 0 -1 
1 6.2831853071795898 0 0 -1 
1 0 0 0 -1 
1 6.2831853071795898 0 0 -1 
1 0 0 0 -1 
1 6.2831853071795898 0 0 -1 
1 0 0 0 -1 
1 6.2831853071795898 0 0 -1 
1 0 0 0 -1 
1 6.2831853071795898 0 0 -1 
1 0 0 0 -1 
1 6.2831853071795898 0 0 -1 
1 0 0 0 -1 
1 6.2831853071795898 0 0 -1 
1 0 0 0 -1 
1 6.2831853071795898 0 0 -1 
1 0 0 0 -1 
1 6.2831853071795898 0 0 -1 
1 0 0 0 -1 
1 6.2831853071795898 0 0 -1 
1 0 0 0 -1 
1 6.2831853071795898 0 0 -1 
1 0 0 0 -1 
1 6.2831853071795898 0 0 -1 
1 0 0 0 -1 
1 6.2831853071795898 0 0 -1 
1 0 0 0 -1 
1 6.2831853071795898 0 0 -1 
1 0 0 0 -1 
1 6.2831853071795898 0 0 -1 
1 0 0 0 -1 
1 6.2831853071795898 0 0 -1 
1 0 0 0 -1 
1 6.2831853071795898 0 0 -1 
1 0 0 0 -1 
1 6.2831853071795898 0 0 -1 
1 0 0 0 -1 
1 6.2831853071795898 0 0 -1 
1 0 0 0 -1 
1 6.2831853071795898 0 0 -1 
1 0 0 0 -1 
1 6.2831853071795898 0 0 -1 
2 -58 -36 1 0 0 -1 8
1 6.2831853071795862 -1.9999999999999962 -1 0 
1 4.7123889803846897 0 0 -1 
1 3.1415926535897931 0 0 -1 
8 -54 18
1 -66 -18 0 -1 
8 -54 18
1 18 -1.9999999999999962 -1 0 
1 3.1415926535897931 0 0 -1 
8 -87 29
1 29 -44 1 0 
8 -87 29
1 29 -1.9999999999999962 -1 0 
1 4.7123889803846897 0 0 -1 
2 -58 36 1 0 0 -1 8
1 6.2831853071795862 -1.9999999999999962 -1 0 
1 1.5707963267948966 0 0 -1 
2 58 -36 1 0 0 -1 8
1 6.2831853071795862 -1.9999999999999962 -1 0 
1 6.2831853071795862 0 0 -1 
8 -87 29
1 29 44 1 0 
8 -87 29
1 29 -1.9999999999999962 -1 0 
1 7.8539816339744828 0 0 -1 
8 -54 18
1 66 -18 0 -1 
8 -54 18
1 18 -1.9999999999999962 -1 0 
1 6.2831853071795862 0 0 -1 
2 58 36 1 0 0 -1 8
1 12.566370614359172 -1.9999999999999962 -1 0 
Curves 122
1 -1.7763568394002499e-15 0 -3.5527136788005009e-15 0 0 1 
1 -1.7763568394002501e-15 1272.0999999999999 -3.5527136788005009e-15 0 0 1 
1 -1.7763568394002505e-15 0 17.999999999999996 0 1 0 
1 -1.7763568394002505e-15 0 17.999999999999996 0 1 0 
1 572 0 -3.5527136788005009e-15 0 0 1 
1 568 0 17.999999999999996 1 0 0 
1 568 0 17.999999999999996 1 0 0 
1 572 1272.0999999999999 -3.5527136788005009e-15 0 0 1 
1 568 1272.0999999999999 17.999999999999996 1 0 0 
1 568 1272.0999999999999 17.999999999999996 1 0 0 
1 572 0 17.999999999999996 0 1 0 
2 206 162 -6.8833827526759706e-15 0 -0 1 1 0 0 -0 1 0 2.75
2 206 322 -6.8833827526759713e-15 0 -0 1 1 0 0 -0 1 0 2.75
2 66 622 -6.8833827526759706e-15 0 -0 1 1 0 0 -0 1 0 3
2 83.5 639.5 -6.8833827526759706e-15 0 -0 1 1 0 0 -0 1 0 2.25
2 213.01351693160834 391.76800884315793 -6.8833827526759713e-15 0 -0 1 1 0 0 -0 1 0 2.75
2 213.01351693160836 452.23199115684213 -6.8833827526759713e-15 0 -0 1 1 0 0 -0 1 0 2.75
2 255.76800884315793 349.01351693160836 -6.8833827526759713e-15 0 -0 1 1 0 0 -0 1 0 2.75
2 188.5 639.5 -6.8833827526759706e-15 0 -0 1 1 0 0 -0 1 0 2.25
2 206 622 -6.8833827526759706e-15 0 -0 1 1 0 0 -0 1 0 3
2 255.76800884315793 494.98648306839164 -6.8833827526759713e-15 0 -0 1 1 0 0 -0 1 0 2.75
2 212 40 0 0 -0 1 1 0 0 -0 1 0 6.1999999999999886
1 205.80000000000001 40 0 0 1 0 
1 212 33.799999999999955 0 1 0 0 
2 212 144 0 0 -0 1 1 0 0 -0 1 0 6.1999999999999886
2 360.00000000000006 40 0 0 -0 1 1 0 0 -0 1 0 6.1999999999999886
1 212 150.19999999999999 0 1 0 0 
1 366.20000000000005 40 0 0 1 0 
2 360.00000000000006 144 0 0 -0 1 1 0 0 -0 1 0 6.1999999999999886
2 366 162 -6.8833827526759706e-15 0 -0 1 1 0 0 -0 1 0 2.75
2 366 322 -6.8833827526759713e-15 0 -0 1 1 0 0 -0 1 0 2.75
2 316.23199115684213 349.01351693160836 -6.8833827526759713e-15 0 -0 1 1 0 0 -0 1 0 2.75
2 286 422 -6.8833827526759698e-15 0 -0 1 1 0 0 -0 1 0 71.75
2 358.98648306839164 391.76800884315793 -6.8833827526759713e-15 0 -0 1 1 0 0 -0 1 0 2.75
2 358.98648306839164 452.23199115684207 -6.8833827526759713e-15 0 -0 1 1 0 0 -0 1 0 2.75
2 316.23199115684207 494.98648306839164 -6.8833827526759713e-15 0 -0 1 1 0 0 -0 1 0 2.75
2 366 622 -6.8833827526759706e-15 0 -0 1 1 0 0 -0 1 0 3
2 383.5 639.5 -6.8833827526759706e-15 0 -0 1 1 0 0 -0 1 0 2.25
2 488.5 639.5 -6.8833827526759706e-15 0 -0 1 1 0 0 -0 1 0 2.25
2 506 622 -6.8833827526759706e-15 0 -0 1 1 0 0 -0 1 0 3
2 83.5 744.5 -6.8833827526759706e-15 0 -0 1 1 0 0 -0 1 0 2.25
2 66 762 -6.8833827526759706e-15 0 -0 1 1 0 0 -0 1 0 3
2 136 692 -6.8833827526759698e-15 0 -0 1 1 0 0 -0 1 0 58
2 166 832 -6.8833827526759713e-15 0 -0 1 1 0 0 -0 1 0 2.75
2 188.5 744.5 -6.8833827526759706e-15 0 -0 1 1 0 0 -0 1 0 2.25
2 206 762 -6.8833827526759706e-15 0 -0 1 1 0 0 -0 1 0 3
2 166 1252 -6.8833827526759713e-15 0 -0 1 1 0 0 -0 1 0 2.75
2 366 762 -6.8833827526759706e-15 0 -0 1 1 0 0 -0 1 0 3
2 383.5 744.5 -6.8833827526759706e-15 0 -0 1 1 0 0 -0 1 0 2.25
2 436 692 -6.8833827526759698e-15 0 -0 1 1 0 0 -0 1 0 58
2 488.5 744.5 -6.8833827526759706e-15 0 -0 1 1 0 0 -0 1 0 2.25
2 506 762 -6.8833827526759706e-15 0 -0 1 1 0 0 -0 1 0 3
2 406 832 -6.8833827526759713e-15 0 -0 1 1 0 0 -0 1 0 2.75
2 406 1252 -6.8833827526759713e-15 0 -0 1 1 0 0 -0 1 0 2.75
1 572 0 17.999999999999996 0 1 0 
2 228 56 2.2204460492503131e-16 0 -0 1 1 0 0 -0 1 0 8
1 220 346.02500000000003 2.2204460492503131e-16 0 1 0 
1 257 48 2.2204460492503131e-16 -1 0 0 
2 228 128 2.2204460492503131e-16 0 -0 1 1 0 0 -0 1 0 8
2 344 56 2.2204460492503131e-16 0 -0 1 1 0 0 -0 1 0 8
1 257 136 2.2204460492503131e-16 -1 0 0 
1 352 346.02500000000003 2.2204460492503131e-16 0 1 0 
2 344 128 2.2204460492503131e-16 0 -0 1 1 0 0 -0 1 0 8
1 208.75 162 1.1842378929335006e-15 0 0 1 
1 208.75 322 1.1842378929335002e-15 0 0 1 
1 69 622 2.5165055224836883e-15 0 0 1 
1 85.75 639.5 1.1842378929335002e-15 0 0 1 
1 215.76351693160817 391.76800884315799 9.2411148012306474e-16 0 0 1 
1 215.76351693160819 452.23199115684207 9.203180108240087e-16 0 0 1 
1 258.51800884315799 349.01351693160808 1.0446954831371892e-15 0 0 1 
1 190.75 639.5 1.1842378929335006e-15 0 0 1 
1 209 622 2.5165055224836887e-15 0 0 1 
1 258.51800884315799 494.98648306839192 1.0446954831371892e-15 0 0 1 
1 205.80000000000001 40 3.5527136788005009e-15 0 0 1 
1 212 33.799999999999976 2.0829281493877414e-15 0 0 1 
1 205.80000000000001 144 3.5527136788005009e-15 0 0 1 
1 360 33.800000000000004 2.100848714052115e-15 0 0 1 
1 212 150.19999999999999 3.5527136788005009e-15 0 0 1 
1 366.19999999999999 40 3.5527136788005009e-15 0 0 1 
1 360 150.19999999999999 3.5527136788005009e-15 0 0 1 
1 366.19999999999999 144 3.5527136788005009e-15 0 0 1 
1 368.75 162 1.1842378929335006e-15 0 0 1 
1 368.75 322 1.1842378929335002e-15 0 0 1 
1 318.98199115684207 349.01351693160808 1.0402013146664846e-15 0 0 1 
1 357.75 422 1.1842378929335006e-15 0 0 1 
1 361.73648306839192 391.76800884315799 1.0446954831371892e-15 0 0 1 
1 361.73648306839192 452.23199115684201 1.0446954831371892e-15 0 0 1 
1 318.98199115684201 494.98648306839192 1.0446954831371892e-15 0 0 1 
1 369 622 2.2204460492503135e-15 0 0 1 
1 385.75 639.5 1.1842378929335006e-15 0 0 1 
1 490.75 639.5 1.1842378929335002e-15 0 0 1 
1 509 622 2.2204460492503131e-15 0 0 1 
1 85.75 744.5 1.1842378929335002e-15 0 0 1 
1 69 762 2.5165055224836883e-15 0 0 1 
1 194 692 1.1842378929335006e-15 0 0 1 
1 168.75 832 1.1842378929335002e-15 0 0 1 
1 190.75 744.5 1.1842378929335006e-15 0 0 1 
1 209 762 2.5165055224836887e-15 0 0 1 
1 168.75 1252 1.1842378929335002e-15 0 0 1 
1 369 762 2.2204460492503135e-15 0 0 1 
1 385.75 744.5 1.1842378929335006e-15 0 0 1 
1 494 692 1.1842378929335006e-15 0 0 1 
1 490.75 744.5 1.1842378929335002e-15 0 0 1 
1 509 762 2.2204460492503131e-15 0 0 1 
1 408.75 832 1.1842378929335002e-15 0 0 1 
1 408.75 1252 1.1842378929335002e-15 0 0 1 
2 228 56 1.9999999999999964 0 0 -1 1 0 0 0 -1 -0 8
1 228 48 7.4014868308343765e-17 0 0 1 
1 220 56 7.4014868308343765e-17 0 0 1 
1 220 74 1.9999999999999964 0 -1 0 
1 220 128 7.4014868308343765e-17 0 0 1 
1 315 48 1.9999999999999964 1 0 -0 
1 344 48 7.4014868308343765e-17 0 0 1 
2 228 128 1.9999999999999964 0 0 -1 1 0 0 0 -1 -0 8
1 228 136 7.4014868308343765e-17 0 0 1 
2 344 56 1.9999999999999964 0 0 -1 1 0 0 0 -1 -0 8
1 352 56 7.4014868308343765e-17 0 0 1 
1 315 136 1.9999999999999964 1 0 -0 
1 344 136 7.4014868308343765e-17 0 0 1 
1 352 74 1.9999999999999964 0 -1 0 
1 352 128 7.4014868308343765e-17 0 0 1 
2 344 128 1.9999999999999964 0 0 -1 1 0 0 0 -1 -0 8
Polygon3D 0
PolygonOnTriangulations 0
Surfaces 66
1 -1.7763568394002505e-15 0 -7.1054273576010019e-15 -1 0 0 0 1 0 0 0 -1 
1 0 0 -7.1054273576010019e-15 0 1 0 1 0 0 0 0 -1 
1 0 1272.0999999999999 -7.1054273576010019e-15 0 1 0 1 0 0 0 0 -1 
1 286 636.04999999999995 0.99999999999999312 0 0 1 1 0 -0 -0 1 0 
1 286 636.04999999999995 0.99999999999999312 0 0 1 1 0 -0 -0 1 0 
1 572 0 -7.1054273576010019e-15 -1 0 0 0 1 0 0 0 -1 
2 206 162 7.8886090522101181e-31 -0 -0 -1 1 0 0 0 1 0 2.75
2 206 322 0 -0 -0 -1 1 0 0 0 1 0 2.75
2 66 622 0 -0 -0 -1 1 0 0 0 1 0 3
2 83.5 639.5 0 -0 -0 -1 1 0 0 0 1 0 2.25
2 213.01351693160834 391.76800884315793 0 -0 -0 -1 1 0 0 0 1 0 2.75
2 213.01351693160836 452.23199115684213 0 -0 -0 -1 1 0 0 0 1 0 2.75
2 255.76800884315793 349.01351693160836 0 -0 -0 -1 1 0 0 0 1 0 2.75
2 188.5 639.5 7.8886090522101181e-31 -0 -0 -1 1 0 0 0 1 0 2.25
2 206 622 1.5777218104420236e-30 -0 -0 -1 1 0 0 0 1 0 3
2 255.76800884315793 494.98648306839164 0 -0 -0 -1 1 0 0 0 1 0 2.75
2 212 40 0 -0 0 -1 1 0 0 -0 1 0 6.1999999999999886
2 212 144 0 -0 0 -1 1 0 0 -0 1 0 6.1999999999999886
2 360.00000000000006 40 0 -0 0 -1 1 0 0 -0 1 0 6.1999999999999886
2 360.00000000000006 144 0 -0 0 -1 1 0 0 -0 1 0 6.1999999999999886
2 366 162 7.8886090522101181e-31 -0 -0 -1 1 0 0 0 1 0 2.75
2 366 322 0 -0 -0 -1 1 0 0 0 1 0 2.75
2 316.23199115684213 349.01351693160836 0 -0 -0 -1 1 0 0 0 1 0 2.75
2 286 422 7.8886090522101181e-31 -0 -0 -1 1 0 0 0 1 0 71.75
2 358.98648306839164 391.76800884315793 0 -0 -0 -1 1 0 0 0 1 0 2.75
2 358.98648306839164 452.23199115684207 0 -0 -0 -1 1 0 0 0 1 0 2.75
2 316.23199115684207 494.98648306839164 0 -0 -0 -1 1 0 0 0 1 0 2.75
2 366 622 1.5777218104420236e-30 -0 -0 -1 1 0 0 0 1 0 3
2 383.5 639.5 7.8886090522101181e-31 -0 -0 -1 1 0 0 0 1 0 2.25
2 488.5 639.5 0 -0 -0 -1 1 0 0 0 1 0 2.25
2 506 622 0 -0 -0 -1 1 0 0 0 1 0 3
2 83.5 744.5 0 -0 -0 -1 1 0 0 0 1 0 2.25
2 66 762 0 -0 -0 -1 1 0 0 0 1 0 3
2 136 692 7.8886090522101181e-31 -0 -0 -1 1 0 0 0 1 0 58
2 166 832 0 -0 -0 -1 1 0 0 0 1 0 2.75
2 188.5 744.5 7.8886090522101181e-31 -0 -0 -1 1 0 0 0 1 0 2.25
2 206 762 1.5777218104420236e-30 -0 -0 -1 1 0 0 0 1 0 3
2 166 1252 0 -0 -0 -1 1 0 0 0 1 0 2.75
2 366 762 1.5777218104420236e-30 -0 -0 -1 1 0 0 0 1 0 3
2 383.5 744.5 7.8886090522101181e-31 -0 -0 -1 1 0 0 0 1 0 2.25
2 436 692 7.8886090522101181e-31 -0 -0 -1 1 0 0 0 1 0 58
2 488.5 744.5 0 -0 -0 -1 1 0 0 0 1 0 2.25
2 506 762 0 -0 -0 -1 1 0 0 0 1 0 3
2 406 832 0 -0 -0 -1 1 0 0 0 1 0 2.75
2 406 1252 0 -0 -0 -1 1 0 0 0 1 0 2.75
2 228 56 2.2204460492503131e-16 -0 0 -1 1 0 0 -0 1 0 8
2 228 128 2.2204460492503131e-16 -0 0 -1 1 0 0 -0 1 0 8
2 344 56 2.2204460492503131e-16 -0 0 -1 1 0 0 -0 1 0 8
2 344 128 2.2204460492503131e-16 -0 0 -1 1 0 0 -0 1 0 8
1 205.80000000000001 40 0 -1 0 0 0 1 0 0 0 -1 
1 212 33.799999999999955 0 0 1 0 1 0 0 0 0 -1 
1 212 150.19999999999999 0 0 1 0 1 0 0 0 0 -1 
1 366.20000000000005 40 0 -1 0 0 0 1 0 0 0 -1 
1 286 92 0 0 0 1 1 0 -0 -0 1 0 
1 344 48 2.2204460492503131e-16 0 -1 0 -1 0 0 -0 -0 -1 
1 220 56 2.2204460492503131e-16 -1 0 0 0 1 0 0 0 -1 
1 344 136 2.2204460492503131e-16 0 -1 0 -1 0 0 -0 -0 -1 
1 352 56 2.2204460492503131e-16 -1 0 0 0 1 0 0 0 -1 
1 66.000000000000014 622 0 0 0 1 1 0 -0 -0 1 0 
1 206.00000000000003 622 1.5777218104420236e-30 0 0 1 1 0 -0 -0 1 0 
1 366 622 1.5777218104420236e-30 0 0 1 1 0 -0 -0 1 0 
1 506 622 0 0 0 1 1 0 -0 -0 1 0 
1 66.000000000000014 762 0 0 0 1 1 0 -0 -0 1 0 
1 206.00000000000003 762 1.5777218104420236e-30 0 0 1 1 0 -0 -0 1 0 
1 366 762 1.5777218104420236e-30 0 0 1 1 0 -0 -0 1 0 
1 506 762 0 0 0 1 1 0 -0 -0 1 0 
Triangulations 0

TShapes 511
Ve
1.00000003552714e-07
-1.77635683940025e-15 0 -3.5527136788005e-15
0 0

0101101
*
Ve
1.00000003552714e-07
-1.77635683940025e-15 0 18
0 0

0101101
*
Ed
 1.00000003552714e-07 1 1 0
1  1 0 0 18
2  1 1 0 0 18
2  2 2 0 0 18
0

0101000
+511 0 -510 0 *
Ve
1.00000011e-07
-1.77635683940025e-15 1272.1 -3.5527136788005e-15
0 0

0101101
*
Ve
1.00000011e-07
-1.77635683940025e-15 1272.1 18
0 0

0101101
*
Ed
 1.00000011e-07 1 1 0
1  2 0 0 18
2  3 1 0 0 18
2  4 3 0 0 18
0

0101000
+508 0 -507 0 *
Ed
 1.00000003552714e-07 1 1 0
1  3 0 0 1272.1
2  5 1 7 0 1272.1
2  6 4 8 0 1272.1
0

0101000
+511 7 -508 7 *
Ed
 1.00000003552714e-07 1 1 0
1  4 0 0 1272.1
2  7 1 11 0 1272.1
2  8 5 8 0 1272.1
0

0101000
+510 11 -507 11 *
Wi

0101100
+509 0 -506 0 -505 6 +504 10 *
Fa
0  1.00000003552714e-07 1 0

0101000
+503 0 *
Ve
1.00000003552714e-07
572 0 -3.5527136788005e-15
0 0

0101101
*
Ve
1.00000003552714e-07
572 0 18
0 0

0101101
*
Ed
 1.00000003552714e-07 1 1 0
1  5 0 0 18
2  9 2 0 0 18
2  10 6 0 0 18
0

0101000
+501 0 -500 0 *
Ed
 1.00000003552714e-07 1 1 0
1  6 0 -568 4
2  11 2 7 -568 4
2  12 4 8 -568 4
0

0101000
+511 7 -501 7 *
Ed
 1.00000003552714e-07 1 1 0
1  7 0 -568 4
2  13 2 11 -568 4
2  14 5 8 -568 4
0

0101000
+510 11 -500 11 *
Wi

0101100
+509 0 -499 0 -498 6 +497 10 *
Fa
0  1.00000003552714e-07 2 0

0101000
+496 0 *
Ve
1.00000032e-07
572 1272.1 -3.5527136788005e-15
0 0

0101101
*
Ve
1.00000032e-07
572 1272.1 18
0 0

0101101
*
Ed
 1.00000032e-07 1 1 0
1  8 0 0 18
2  15 6 0 0 18
2  16 3 0 0 18
0

0101000
+494 0 -493 0 *
Ed
 1.00000003552714e-07 1 1 0
1  9 0 -568 4
2  17 3 7 -568 4
2  18 4 8 -568 4
0

0101000
+508 7 -494 7 *
Ed
 1.00000003552714e-07 1 1 0
1  10 0 -568 4
2  19 3 11 -568 4
2  20 5 8 -568 4
0

0101000
+507 11 -493 11 *
Wi

0101100
+506 0 -492 0 -491 6 +490 10 *
Fa
0  1.00000003552714e-07 3 0

0101000
+489 0 *
Ed
 1.00000003552714e-07 1 1 0
1  11 0 0 1272.1
2  21 6 7 0 1272.1
2  22 4 8 0 1272.1
0

0101000
+501 7 -494 7 *
Wi

0101100
-505 6 +498 6 -491 6 +487 6 *
Ve
1.00000017911598e-07
208.75 162 1.1842378929335e-15
0 0

0101101
*
Ed
 1.00000017319479e-07 1 1 0
1  12 0 0 6.28318530717959
2  23 7 18 0 6.28318530717959
2  24 7 20 0 6.28318530717959
0

0101000
+485 18 -485 18 *
Wi

0101100
-484 17 *
Ve
1.00000017911598e-07
208.75 322 1.1842378929335e-15
0 0

0101101
*
Ed
 1.00000017319479e-07 1 1 0
1  13 0 0 6.28318530717959
2  25 8 25 0 6.28318530717959
2  26 8 27 0 6.28318530717959
0

0101000
+482 25 -482 25 *
Wi

0101100
-481 24 *
Ve
1.0000005840092e-07
69 622 2.51650552248369e-15
0 0

0101101
*
Ed
 1.00000057142668e-07 1 1 0
1  14 0 0 6.28318530717959
2  27 9 32 0 6.28318530717959
2  28 9 34 0 6.28318530717959
0

0101000
+479 32 -479 32 *
Wi

0101100
-478 31 *
Ve
1.00000017911598e-07
85.75 639.5 1.1842378929335e-15
0 0

0101101
*
Ed
 1.00000017319479e-07 1 1 0
1  15 0 0 6.28318530717959
2  29 10 39 0 6.28318530717959
2  30 10 41 0 6.28318530717959
0

0101000
+476 39 -476 39 *
Wi

0101100
-475 38 *
Ve
1.00000179879196e-07
215.763516931608 391.768008843158 9.24111480123065e-16
0 0

0101101
*
Ed
 1.00000017319479e-07 1 1 0
1  16 0 0 6.28318530717959
2  31 11 46 0 6.28318530717959
2  32 11 48 0 6.28318530717959
0

0101000
+473 46 -473 46 *
Wi

0101100
-472 45 *
Ve
1.00000200284967e-07
215.763516931608 452.231991156842 9.20318010824009e-16
0 0

0101101
*
Ed
 1.00000017319479e-07 1 1 0
1  17 0 0 6.28318530717959
2  33 12 53 0 6.28318530717959
2  34 12 55 0 6.28318530717959
0

0101000
+470 53 -470 53 *
Wi

0101100
-469 52 *
Ve
1.00000236389912e-07
258.518008843158 349.013516931608 1.04469548313719e-15
0 0

0101101
*
Ed
 1.00000017319479e-07 1 1 0
1  18 0 0 6.28318530717959
2  35 13 60 0 6.28318530717959
2  36 13 62 0 6.28318530717959
0

0101000
+467 60 -467 60 *
Wi

0101100
-466 59 *
Ve
1.00000017911598e-07
190.75 639.5 1.1842378929335e-15
0 0

0101101
*
Ed
 1.00000017319479e-07 1 1 0
1  19 0 0 6.28318530717959
2  37 14 67 0 6.28318530717959
2  38 14 69 0 6.28318530717959
0

0101000
+464 67 -464 67 *
Wi

0101100
-463 66 *
Ve
1.0000005840092e-07
209 622 2.51650552248369e-15
0 0

0101101
*
Ed
 1.00000057142668e-07 1 1 0
1  20 0 0 6.28318530717959
2  39 15 74 0 6.28318530717959
2  40 15 76 0 6.28318530717959
0

0101000
+461 74 -461 74 *
Wi

0101100
-460 73 *
Ve
1.00000236389912e-07
258.518008843158 494.986483068392 1.04469548313719e-15
0 0

0101101
*
Ed
 1.00000017319479e-07 1 1 0
1  21 0 0 6.28318530717959
2  41 16 81 0 6.28318530717959
2  42 16 83 0 6.28318530717959
0

0101000
+458 81 -458 81 *
Wi

0101100
-457 80 *
Ve
3.86282245412594e-07
205.8 40 3.5527136788005e-15
0 0

0101101
*
Ve
1.00000089166761e-07
212 33.8 2.08292814938774e-15
0 0

0101101
*
Ed
 1.00000064119428e-07 1 1 0
1  22 0 3.14159265358979 4.71238898038469
2  43 17 0 3.14159265358979 4.71238898038469
2  44 17 85 3.14159265358979 4.71238898038469
0

0101000
+455 0 -454 0 *
Ve
3.86282238307167e-07
205.8 144 3.5527136788005e-15
0 0

0101101
*
Ed
 1.00000035499583e-07 1 1 0
1  23 0 0 104
0

0101000
+455 0 -452 0 *
Ve
1.00000082066388e-07
360 33.8 2.10084871405212e-15
0 0

0101101
*
Ed
 1.00000074931385e-07 1 1 0
1  24 0 0 148
0

0101000
+454 0 -450 0 *
Ve
3.86282238307167e-07
212 150.2 3.5527136788005e-15
0 0

0101101
*
Ed
 1.00000072501041e-07 1 1 0
1  25 0 1.5707963267949 3.14159265358979
2  45 18 0 1.5707963267949 3.14159265358979
2  46 18 85 1.5707963267949 3.14159265358979
0

0101000
+448 0 -452 0 *
Ve
3.86282245412594e-07
366.2 40 3.5527136788005e-15
0 0

0101101
*
Ed
 1.00000053743836e-07 1 1 0
1  26 0 4.71238898038469 6.28318530717959
2  47 19 0 4.71238898038469 6.28318530717959
2  48 19 85 4.71238898038469 6.28318530717959
0

0101000
+450 0 -446 0 *
Ve
3.86282181463748e-07
360 150.2 3.5527136788005e-15
0 0

0101101
*
Ed
 1.00000035499583e-07 1 1 0
1  27 0 -0 148
0

0101000
+448 0 -444 0 *
Ve
3.86282238307167e-07
366.2 144 3.5527136788005e-15
0 0

0101101
*
Ed
 1.00000035499583e-07 1 1 0
1  28 0 0 104
0

0101000
+446 0 -442 0 *
Ed
 1.00000060785114e-07 1 1 0
1  29 0 6.28318530717959 7.85398163397448
2  49 20 0 6.28318530717959 7.85398163397448
2  50 20 85 6.28318530717959 7.85398163397448
0

0101000
+442 0 -444 0 *
Wi

0101100
-453 0 +451 0 -449 0 -447 0 -445 0 +443 0 -441 0 -440 0 *
Ve
1.00000017911598e-07
368.75 162 1.1842378929335e-15
0 0

0101101
*
Ed
 1.00000017319479e-07 1 1 0
1  30 0 0 6.28318530717959
2  51 21 90 0 6.28318530717959
2  52 21 92 0 6.28318530717959
0

0101000
+438 90 -438 90 *
Wi

0101100
-437 89 *
Ve
1.00000017911598e-07
368.75 322 1.1842378929335e-15
0 0

0101101
*
Ed
 1.00000017319479e-07 1 1 0
1  31 0 0 6.28318530717959
2  53 22 97 0 6.28318530717959
2  54 22 99 0 6.28318530717959
0

0101000
+435 97 -435 97 *
Wi

0101100
-434 96 *
Ve
1.00000242331189e-07
318.981991156842 349.013516931608 1.04020131466648e-15
0 0

0101101
*
Ed
 1.00000017319479e-07 1 1 0
1  32 0 0 6.28318530717959
2  55 23 104 0 6.28318530717959
2  56 23 106 0 6.28318530717959
0

0101000
+432 104 -432 104 *
Wi

0101100
-431 103 *
Ve
1.00000235328193e-07
357.75 422 1.1842378929335e-15
0 0

0101101
*
Ed
 1.00000234736074e-07 1 1 0
1  33 0 0 6.28318530717959
2  57 24 111 0 6.28318530717959
2  58 24 113 0 6.28318530717959
0

0101000
+429 111 -429 111 *
Wi

0101100
-428 110 *
Ve
1.00000236389912e-07
361.736483068392 391.768008843158 1.04469548313719e-15
0 0

0101101
*
Ed
 1.00000017319479e-07 1 1 0
1  34 0 0 6.28318530717959
2  59 25 118 0 6.28318530717959
2  60 25 120 0 6.28318530717959
0

0101000
+426 118 -426 118 *
Wi

0101100
-425 117 *
Ve
1.00000236389912e-07
361.736483068392 452.231991156842 1.04469548313719e-15
0 0

0101101
*
Ed
 1.00000017319479e-07 1 1 0
1  35 0 0 6.28318530717959
2  61 26 125 0 6.28318530717959
2  62 26 127 0 6.28318530717959
0

0101000
+423 125 -423 125 *
Wi

0101100
-422 124 *
Ve
1.00000236389912e-07
318.981991156842 494.986483068392 1.04469548313719e-15
0 0

0101101
*
Ed
 1.00000017319479e-07 1 1 0
1  36 0 0 6.28318530717959
2  63 27 132 0 6.28318530717959
2  64 27 134 0 6.28318530717959
0

0101000
+420 132 -420 132 *
Wi

0101100
-419 131 *
Ve
1.00000012656542e-07
369 622 2.22044604925031e-15
0 0

0101101
*
Ed
 1.00000010436096e-07 1 1 0
1  37 0 0 6.28318530717959
2  65 28 139 0 6.28318530717959
2  66 28 141 0 6.28318530717959
0

0101000
+417 139 -417 139 *
Wi

0101100
-416 138 *
Ve
1.00000017911598e-07
385.75 639.5 1.1842378929335e-15
0 0

0101101
*
Ed
 1.00000017319479e-07 1 1 0
1  38 0 0 6.28318530717959
2  67 29 146 0 6.28318530717959
2  68 29 148 0 6.28318530717959
0

0101000
+414 146 -414 146 *
Wi

0101100
-413 145 *
Ve
1.00000017911598e-07
490.75 639.5 1.1842378929335e-15
0 0

0101101
*
Ed
 1.00000017319479e-07 1 1 0
1  39 0 0 6.28318530717959
2  69 30 153 0 6.28318530717959
2  70 30 155 0 6.28318530717959
0

0101000
+411 153 -411 153 *
Wi

0101100
-410 152 *
Ve
1.00000012656542e-07
509 622 2.22044604925031e-15
0 0

0101101
*
Ed
 1.00000010436096e-07 1 1 0
1  40 0 0 6.28318530717959
2  71 31 160 0 6.28318530717959
2  72 31 162 0 6.28318530717959
0

0101000
+408 160 -408 160 *
Wi

0101100
-407 159 *
Ve
1.00000017911598e-07
85.75 744.5 1.1842378929335e-15
0 0

0101101
*
Ed
 1.00000017319479e-07 1 1 0
1  41 0 0 6.28318530717959
2  73 32 167 0 6.28318530717959
2  74 32 169 0 6.28318530717959
0

0101000
+405 167 -405 167 *
Wi

0101100
-404 166 *
Ve
1.0000005840092e-07
69 762 2.51650552248369e-15
0 0

0101101
*
Ed
 1.00000057142668e-07 1 1 0
1  42 0 0 6.28318530717959
2  75 33 174 0 6.28318530717959
2  76 33 176 0 6.28318530717959
0

0101000
+402 174 -402 174 *
Wi

0101100
-401 173 *
Ve
1.00000235328193e-07
194 692 1.1842378929335e-15
0 0

0101101
*
Ed
 1.00000234736074e-07 1 1 0
1  43 0 0 6.28318530717959
2  77 34 181 0 6.28318530717959
2  78 34 183 0 6.28318530717959
0

0101000
+399 181 -399 181 *
Wi

0101100
-398 180 *
Ve
1.00000065557114e-07
168.75 832 1.1842378929335e-15
0 0

0101101
*
Ed
 1.00000064964995e-07 1 1 0
1  44 0 0 6.28318530717959
2  79 35 188 0 6.28318530717959
2  80 35 190 0 6.28318530717959
0

0101000
+396 188 -396 188 *
Wi

0101100
-395 187 *
Ve
1.00000017911598e-07
190.75 744.5 1.1842378929335e-15
0 0

0101101
*
Ed
 1.00000017319479e-07 1 1 0
1  45 0 0 6.28318530717959
2  81 36 195 0 6.28318530717959
2  82 36 197 0 6.28318530717959
0

0101000
+393 195 -393 195 *
Wi

0101100
-392 194 *
Ve
1.0000005840092e-07
209 762 2.51650552248369e-15
0 0

0101101
*
Ed
 1.00000057142668e-07 1 1 0
1  46 0 0 6.28318530717959
2  83 37 202 0 6.28318530717959
2  84 37 204 0 6.28318530717959
0

0101000
+390 202 -390 202 *
Wi

0101100
-389 201 *
Ve
1.00000065557114e-07
168.75 1252 1.1842378929335e-15
0 0

0101101
*
Ed
 1.00000064964995e-07 1 1 0
1  47 0 0 6.28318530717959
2  85 38 209 0 6.28318530717959
2  86 38 211 0 6.28318530717959
0

0101000
+387 209 -387 209 *
Wi

0101100
-386 208 *
Ve
1.00000012656542e-07
369 762 2.22044604925031e-15
0 0

0101101
*
Ed
 1.00000010436096e-07 1 1 0
1  48 0 0 6.28318530717959
2  87 39 216 0 6.28318530717959
2  88 39 218 0 6.28318530717959
0

0101000
+384 216 -384 216 *
Wi

0101100
-383 215 *
Ve
1.00000017911598e-07
385.75 744.5 1.1842378929335e-15
0 0

0101101
*
Ed
 1.00000017319479e-07 1 1 0
1  49 0 0 6.28318530717959
2  89 40 223 0 6.28318530717959
2  90 40 225 0 6.28318530717959
0

0101000
+381 223 -381 223 *
Wi

0101100
-380 222 *
Ve
1.00000235328193e-07
494 692 1.1842378929335e-15
0 0

0101101
*
Ed
 1.00000234736074e-07 1 1 0
1  50 0 0 6.28318530717959
2  91 41 230 0 6.28318530717959
2  92 41 232 0 6.28318530717959
0

0101000
+378 230 -378 230 *
Wi

0101100
-377 229 *
Ve
1.00000017911598e-07
490.75 744.5 1.1842378929335e-15
0 0

0101101
*
Ed
 1.00000017319479e-07 1 1 0
1  51 0 0 6.28318530717959
2  93 42 237 0 6.28318530717959
2  94 42 239 0 6.28318530717959
0

0101000
+375 237 -375 237 *
Wi

0101100
-374 236 *
Ve
1.00000012656542e-07
509 762 2.22044604925031e-15
0 0

0101101
*
Ed
 1.00000010436096e-07 1 1 0
1  52 0 0 6.28318530717959
2  95 43 244 0 6.28318530717959
2  96 43 246 0 6.28318530717959
0

0101000
+372 244 -372 244 *
Wi

0101100
-371 243 *
Ve
1.00000017911598e-07
408.75 832 1.1842378929335e-15
0 0

0101101
*
Ed
 1.00000017319479e-07 1 1 0
1  53 0 0 6.28318530717959
2  97 44 251 0 6.28318530717959
2  98 44 253 0 6.28318530717959
0

0101000
+369 251 -369 251 *
Wi

0101100
-368 250 *
Ve
1.00000121897129e-07
408.75 1252 1.1842378929335e-15
0 0

0101101
*
Ed
 1.0000012130501e-07 1 1 0
1  54 0 0 6.28318530717959
2  99 45 258 0 6.28318530717959
2  100 45 260 0 6.28318530717959
0

0101000
+366 258 -366 258 *
Wi

0101100
-365 257 *
Fa
0  1.00000003552714e-07 4 5

0101000
+486 0 +483 0 +480 0 +477 0 +474 0 +471 0 +468 0 +465 0 +462 0 +459 0 
+456 0 +439 0 +436 0 +433 0 +430 0 +427 0 +424 0 +421 0 +418 0 +415 0 
+412 0 +409 0 +406 0 +403 0 +400 0 +397 0 +394 0 +391 0 +388 0 +385 0 
+382 0 +379 0 +376 0 +373 0 +370 0 +367 0 +364 0 *
Ed
 1.00000003552714e-07 1 1 0
1  55 0 0 1272.1
2  101 6 11 0 1272.1
2  102 5 8 0 1272.1
0

0101000
+500 11 -493 11 *
Wi

0101100
-504 10 +497 10 -490 10 +362 10 *
Ve
1.00000017911598e-07
208.75 162 18
0 0

0101101
*
Ed
 1.00000017319479e-07 1 1 0
1  12 0 0 6.28318530717959
2  23 7 18 0 6.28318530717959
2  24 7 20 0 6.28318530717959
0

0101000
+360 20 -360 20 *
Wi

0101100
-359 262 *
Ve
1.00000017911598e-07
208.75 322 18
0 0

0101101
*
Ed
 1.00000017319479e-07 1 1 0
1  13 0 0 6.28318530717959
2  25 8 25 0 6.28318530717959
2  26 8 27 0 6.28318530717959
0

0101000
+357 27 -357 27 *
Wi

0101100
-356 263 *
Ve
1.00000236389912e-07
258.518008843158 349.013516931608 18
0 0

0101101
*
Ed
 1.00000017319479e-07 1 1 0
1  18 0 0 6.28318530717959
2  35 13 60 0 6.28318530717959
2  36 13 62 0 6.28318530717959
0

0101000
+354 62 -354 62 *
Wi

0101100
-353 264 *
Ve
1.00000017911598e-07
85.75 639.5 18
0 0

0101101
*
Ed
 1.00000017319479e-07 1 1 0
1  15 0 0 6.28318530717959
2  29 10 39 0 6.28318530717959
2  30 10 41 0 6.28318530717959
0

0101000
+351 41 -351 41 *
Wi

0101100
-350 265 *
Ve
1.00000179879196e-07
215.763516931608 391.768008843158 18
0 0

0101101
*
Ed
 1.00000017319479e-07 1 1 0
1  16 0 0 6.28318530717959
2  31 11 46 0 6.28318530717959
2  32 11 48 0 6.28318530717959
0

0101000
+348 48 -348 48 *
Wi

0101100
-347 266 *
Ve
1.00000200284967e-07
215.763516931608 452.231991156842 18
0 0

0101101
*
Ed
 1.00000017319479e-07 1 1 0
1  17 0 0 6.28318530717959
2  33 12 53 0 6.28318530717959
2  34 12 55 0 6.28318530717959
0

0101000
+345 55 -345 55 *
Wi

0101100
-344 267 *
Ve
1.00000236389912e-07
258.518008843158 494.986483068392 18
0 0

0101101
*
Ed
 1.00000017319479e-07 1 1 0
1  21 0 0 6.28318530717959
2  41 16 81 0 6.28318530717959
2  42 16 83 0 6.28318530717959
0

0101000
+342 83 -342 83 *
Wi

0101100
-341 268 *
Ve
1.00000017911598e-07
190.75 639.5 18
0 0

0101101
*
Ed
 1.00000017319479e-07 1 1 0
1  19 0 0 6.28318530717959
2  37 14 67 0 6.28318530717959
2  38 14 69 0 6.28318530717959
0

0101000
+339 69 -339 69 *
Wi

0101100
-338 269 *
Ve
1.5000001147405e-07
220 56 18
0 0

0101101
*
Ve
1.5000001147405e-07
228 48 18
0 0

0101101
*
Ed
 1.50000011400035e-07 1 1 0
1  56 0 3.14159265358979 4.71238898038469
2  103 46 0 3.14159265358979 4.71238898038469
2  104 46 271 3.14159265358979 4.71238898038469
0

0101000
+336 271 -335 271 *
Ve
1.50000006957398e-07
220 128 18
0 0

0101101
*
Ed
 1.50000006883383e-07 1 1 0
1  57 0 -290.025 -218.025
0

0101000
+336 271 -333 271 *
Ve
1.50000018222678e-07
344 48 18
0 0

0101101
*
Ed
 1.50000006883383e-07 1 1 0
1  58 0 -87 29
0

0101000
+331 271 -335 271 *
Ve
1.50000006957398e-07
228 136 18
0 0

0101101
*
Ed
 1.50000006883383e-07 1 1 0
1  59 0 1.5707963267949 3.14159265358979
2  105 47 0 1.5707963267949 3.14159265358979
2  106 47 271 1.5707963267949 3.14159265358979
0

0101000
+329 271 -333 271 *
Ve
1.50000018222678e-07
352 56 18
0 0

0101101
*
Ed
 1.50000018148663e-07 1 1 0
1  60 0 4.71238898038469 6.28318530717959
2  107 48 0 4.71238898038469 6.28318530717959
2  108 48 271 4.71238898038469 6.28318530717959
0

0101000
+331 271 -327 271 *
Ve
1.50000006957398e-07
344 136 18
0 0

0101101
*
Ed
 1.50000006883383e-07 1 1 0
1  61 0 -87 29
0

0101000
+325 271 -329 271 *
Ve
1.50000006957398e-07
352 128 18
0 0

0101101
*
Ed
 1.50000006883383e-07 1 1 0
1  62 0 -290.025 -218.025
0

0101000
+327 271 -323 271 *
Ed
 1.50000006883383e-07 1 1 0
1  63 0 6.28318530717959 7.85398163397448
2  109 49 0 6.28318530717959 7.85398163397448
2  110 49 271 6.28318530717959 7.85398163397448
0

0101000
+323 271 -325 271 *
Wi

0101100
-334 270 +332 270 +330 270 -328 270 -326 270 -324 270 -322 270 -321 270 *
Ve
1.00000017911598e-07
368.75 162 18
0 0

0101101
*
Ed
 1.00000017319479e-07 1 1 0
1  30 0 0 6.28318530717959
2  51 21 90 0 6.28318530717959
2  52 21 92 0 6.28318530717959
0

0101000
+319 92 -319 92 *
Wi

0101100
-318 272 *
Ve
1.00000242331189e-07
318.981991156842 349.013516931608 18
0 0

0101101
*
Ed
 1.00000017319479e-07 1 1 0
1  32 0 0 6.28318530717959
2  55 23 104 0 6.28318530717959
2  56 23 106 0 6.28318530717959
0

0101000
+316 106 -316 106 *
Wi

0101100
-315 273 *
Ve
1.00000017911598e-07
368.75 322 18
0 0

0101101
*
Ed
 1.00000017319479e-07 1 1 0
1  31 0 0 6.28318530717959
2  53 22 97 0 6.28318530717959
2  54 22 99 0 6.28318530717959
0

0101000
+313 99 -313 99 *
Wi

0101100
-312 274 *
Ve
1.00000235328193e-07
357.75 422 18
0 0

0101101
*
Ed
 1.00000234736074e-07 1 1 0
1  33 0 0 6.28318530717959
2  57 24 111 0 6.28318530717959
2  58 24 113 0 6.28318530717959
0

0101000
+310 113 -310 113 *
Wi

0101100
-309 275 *
Ve
1.00000236389912e-07
318.981991156842 494.986483068392 18
0 0

0101101
*
Ed
 1.00000017319479e-07 1 1 0
1  36 0 0 6.28318530717959
2  63 27 132 0 6.28318530717959
2  64 27 134 0 6.28318530717959
0

0101000
+307 134 -307 134 *
Wi

0101100
-306 276 *
Ve
1.00000236389912e-07
361.736483068392 391.768008843158 18
0 0

0101101
*
Ed
 1.00000017319479e-07 1 1 0
1  34 0 0 6.28318530717959
2  59 25 118 0 6.28318530717959
2  60 25 120 0 6.28318530717959
0

0101000
+304 120 -304 120 *
Wi

0101100
-303 277 *
Ve
1.00000236389912e-07
361.736483068392 452.231991156842 18
0 0

0101101
*
Ed
 1.00000017319479e-07 1 1 0
1  35 0 0 6.28318530717959
2  61 26 125 0 6.28318530717959
2  62 26 127 0 6.28318530717959
0

0101000
+301 127 -301 127 *
Wi

0101100
-300 278 *
Ve
1.00000017911598e-07
385.75 639.5 18
0 0

0101101
*
Ed
 1.00000017319479e-07 1 1 0
1  38 0 0 6.28318530717959
2  67 29 146 0 6.28318530717959
2  68 29 148 0 6.28318530717959
0

0101000
+298 148 -298 148 *
Wi

0101100
-297 279 *
Ve
1.00000017911598e-07
490.75 639.5 18
0 0

0101101
*
Ed
 1.00000017319479e-07 1 1 0
1  39 0 0 6.28318530717959
2  69 30 153 0 6.28318530717959
2  70 30 155 0 6.28318530717959
0

0101000
+295 155 -295 155 *
Wi

0101100
-294 280 *
Ve
1.00000017911598e-07
85.75 744.5 18
0 0

0101101
*
Ed
 1.00000017319479e-07 1 1 0
1  41 0 0 6.28318530717959
2  73 32 167 0 6.28318530717959
2  74 32 169 0 6.28318530717959
0

0101000
+292 169 -292 169 *
Wi

0101100
-291 281 *
Ve
1.00000235328193e-07
194 692 18
0 0

0101101
*
Ed
 1.00000234736074e-07 1 1 0
1  43 0 0 6.28318530717959
2  77 34 181 0 6.28318530717959
2  78 34 183 0 6.28318530717959
0

0101000
+289 183 -289 183 *
Wi

0101100
-288 282 *
Ve
1.00000065557114e-07
168.75 832 18
0 0

0101101
*
Ed
 1.00000064964995e-07 1 1 0
1  44 0 0 6.28318530717959
2  79 35 188 0 6.28318530717959
2  80 35 190 0 6.28318530717959
0

0101000
+286 190 -286 190 *
Wi

0101100
-285 283 *
Ve
1.00000017911598e-07
190.75 744.5 18
0 0

0101101
*
Ed
 1.00000017319479e-07 1 1 0
1  45 0 0 6.28318530717959
2  81 36 195 0 6.28318530717959
2  82 36 197 0 6.28318530717959
0

0101000
+283 197 -283 197 *
Wi

0101100
-282 284 *
Ve
1.00000065557114e-07
168.75 1252 18
0 0

0101101
*
Ed
 1.00000064964995e-07 1 1 0
1  47 0 0 6.28318530717959
2  85 38 209 0 6.28318530717959
2  86 38 211 0 6.28318530717959
0

0101000
+280 211 -280 211 *
Wi

0101100
-279 285 *
Ve
1.00000017911598e-07
385.75 744.5 18
0 0

0101101
*
Ed
 1.00000017319479e-07 1 1 0
1  49 0 0 6.28318530717959
2  89 40 223 0 6.28318530717959
2  90 40 225 0 6.28318530717959
0

0101000
+277 225 -277 225 *
Wi

0101100
-276 286 *
Ve
1.00000235328193e-07
494 692 18
0 0

0101101
*
Ed
 1.00000234736074e-07 1 1 0
1  50 0 0 6.28318530717959
2  91 41 230 0 6.28318530717959
2  92 41 232 0 6.28318530717959
0

0101000
+274 232 -274 232 *
Wi

0101100
-273 287 *
Ve
1.00000017911598e-07
490.75 744.5 18
0 0

0101101
*
Ed
 1.00000017319479e-07 1 1 0
1  51 0 0 6.28318530717959
2  93 42 237 0 6.28318530717959
2  94 42 239 0 6.28318530717959
0

0101000
+271 239 -271 239 *
Wi

0101100
-270 288 *
Ve
1.00000017911598e-07
408.75 832 18
0 0

0101101
*
Ed
 1.00000017319479e-07 1 1 0
1  53 0 0 6.28318530717959
2  97 44 251 0 6.28318530717959
2  98 44 253 0 6.28318530717959
0

0101000
+268 253 -268 253 *
Wi

0101100
-267 289 *
Ve
1.00000121897129e-07
408.75 1252 18
0 0

0101101
*
Ed
 1.0000012130501e-07 1 1 0
1  54 0 0 6.28318530717959
2  99 45 258 0 6.28318530717959
2  100 45 260 0 6.28318530717959
0

0101000
+265 260 -265 260 *
Wi

0101100
-264 290 *
Fa
0  1.00000003552714e-07 5 261

0101000
+361 0 +358 0 +355 0 +352 0 +349 0 +346 0 +343 0 +340 0 +337 0 +320 0 
+317 0 +314 0 +311 0 +308 0 +305 0 +302 0 +299 0 +296 0 +293 0 +290 0 
+287 0 +284 0 +281 0 +278 0 +275 0 +272 0 +269 0 +266 0 +263 0 *
Wi

0101100
+499 0 -492 0 -487 6 +362 10 *
Fa
0  1.00000003552714e-07 6 0

0101000
+261 0 *
Ed
 1.00000017911598e-07 1 1 0
1  64 0 0 18
3  111 112CN 7 0 0 18
0

0101000
+485 0 -360 0 *
Wi

0101100
+259 0 -259 0 -484 17 +359 262 *
Fa
0  1.00000017319479e-07 7 0

0101000
+258 0 *
Ed
 1.00000017911598e-07 1 1 0
1  65 0 0 18
3  113 114CN 8 0 0 18
0

0101000
+482 0 -357 0 *
Wi

0101100
+256 0 -256 0 -481 24 +356 263 *
Fa
0  1.00000017319479e-07 8 0

0101000
+255 0 *
Ve
1.0000005840092e-07
69 622 2.51650552248369e-15
0 0

0101101
*
Ed
 1.0000005840092e-07 1 1 0
1  66 0 0 8
3  115 116CN 9 0 0 8
0

0101000
+479 0 -253 33 *
Ed
 1.00000057142668e-07 1 1 0
1  14 0 0 6.28318530717959
2  27 9 32 0 6.28318530717959
2  28 9 34 0 6.28318530717959
0

0101000
+253 32 -253 32 *
Wi

0101100
+252 0 -252 0 -478 31 +251 291 *
Fa
0  1.00000057142668e-07 9 0

0101000
+250 0 *
Ed
 1.00000017911598e-07 1 1 0
1  67 0 0 18
3  117 118CN 10 0 0 18
0

0101000
+476 0 -351 0 *
Wi

0101100
+248 0 -248 0 -475 38 +350 265 *
Fa
0  1.00000017319479e-07 10 0

0101000
+247 0 *
Ed
 1.00000179879196e-07 1 1 0
1  68 0 0 18
3  119 120CN 11 0 0 18
0

0101000
+473 0 -348 0 *
Wi

0101100
+245 0 -245 0 -472 45 +347 266 *
Fa
0  1.00000017319479e-07 11 0

0101000
+244 0 *
Ed
 1.00000200284967e-07 1 1 0
1  69 0 0 18
3  121 122CN 12 0 0 18
0

0101000
+470 0 -345 0 *
Wi

0101100
+242 0 -242 0 -469 52 +344 267 *
Fa
0  1.00000017319479e-07 12 0

0101000
+241 0 *
Ed
 1.00000236389912e-07 1 1 0
1  70 0 0 18
3  123 124CN 13 0 0 18
0

0101000
+467 0 -354 0 *
Wi

0101100
+239 0 -239 0 -466 59 +353 264 *
Fa
0  1.00000017319479e-07 13 0

0101000
+238 0 *
Ed
 1.00000017911598e-07 1 1 0
1  71 0 0 18
3  125 126CN 14 0 0 18
0

0101000
+464 0 -339 0 *
Wi

0101100
+236 0 -236 0 -463 66 +338 269 *
Fa
0  1.00000017319479e-07 14 0

0101000
+235 0 *
Ve
1.0000005840092e-07
209 622 2.51650552248369e-15
0 0

0101101
*
Ed
 1.0000005840092e-07 1 1 0
1  72 0 0 8
3  127 128CN 15 0 0 8
0

0101000
+461 0 -233 75 *
Ed
 1.00000057142668e-07 1 1 0
1  20 0 0 6.28318530717959
2  39 15 74 0 6.28318530717959
2  40 15 76 0 6.28318530717959
0

0101000
+233 74 -233 74 *
Wi

0101100
+232 0 -232 0 -460 73 +231 292 *
Fa
0  1.00000057142668e-07 15 0

0101000
+230 0 *
Ed
 1.00000236389912e-07 1 1 0
1  73 0 0 18
3  129 130CN 16 0 0 18
0

0101000
+458 0 -342 0 *
Wi

0101100
+228 0 -228 0 -457 80 +341 268 *
Fa
0  1.00000017319479e-07 16 0

0101000
+227 0 *
Ve
3.86282245412594e-07
205.8 40 3.5527136788005e-15
0 0

0101101
*
Ed
 3.86282245412594e-07 1 1 0
1  74 0 0 2
2  131 17 0 0 2
4 G1 50 0 17 0
0

0101000
+455 0 -225 84 *
Ve
1.00000089166761e-07
212 33.8 2.08292814938774e-15
0 0

0101101
*
Ed
 1.00000089166761e-07 1 1 0
1  75 0 0 2
2  132 17 0 0 2
4 G1 51 0 17 0
0

0101000
+454 0 -223 84 *
Ed
 1.00000064119428e-07 1 1 0
1  22 0 3.14159265358979 4.71238898038469
2  43 17 0 3.14159265358979 4.71238898038469
2  44 17 85 3.14159265358979 4.71238898038469
0

0101000
+225 0 -223 0 *
Wi

0101100
+224 0 -222 0 -453 0 +221 84 *
Fa
0  1.00000064119428e-07 17 0

0101000
+220 0 *
Ve
3.86282238307167e-07
205.8 144 3.5527136788005e-15
0 0

0101101
*
Ed
 3.86282238307167e-07 1 1 0
1  76 0 0 2
2  133 18 0 0 2
4 G1 50 0 18 0
0

0101000
+452 0 -218 84 *
Ed
 1.00000035499583e-07 1 1 0
1  23 0 0 104
0

0101000
+225 0 -218 0 *
Wi

0101100
+224 0 -217 0 -451 0 +216 84 *
Fa
0  1.00000035499583e-07 50 0

0101000
+215 0 *
Ve
1.00000082066388e-07
360 33.8 2.10084871405212e-15
0 0

0101101
*
Ed
 1.00000082066388e-07 1 1 0
1  77 0 0 2
2  134 19 0 0 2
4 G1 19 0 51 0
0

0101000
+450 0 -213 84 *
Ed
 1.00000074931385e-07 1 1 0
1  24 0 0 148
0

0101000
+223 0 -213 0 *
Wi

0101100
+222 0 -212 0 -449 0 +211 84 *
Fa
0  1.00000074931385e-07 51 0

0101000
+210 0 *
Ve
3.86282238307167e-07
212 150.2 3.5527136788005e-15
0 0

0101101
*
Ed
 3.86282238307167e-07 1 1 0
1  78 0 0 2
2  135 18 0 0 2
4 G1 18 0 52 0
0

0101000
+448 0 -208 84 *
Ed
 1.00000072501041e-07 1 1 0
1  25 0 1.5707963267949 3.14159265358979
2  45 18 0 1.5707963267949 3.14159265358979
2  46 18 85 1.5707963267949 3.14159265358979
0

0101000
+208 0 -218 0 *
Wi

0101100
+207 0 -217 0 -447 0 +206 84 *
Fa
0  1.00000072501041e-07 18 0

0101000
+205 0 *
Ve
3.86282245412594e-07
366.2 40 3.5527136788005e-15
0 0

0101101
*
Ed
 3.86282245412594e-07 1 1 0
1  79 0 0 2
2  136 19 0 0 2
4 G1 53 0 19 0
0

0101000
+446 0 -203 84 *
Ed
 1.00000053743836e-07 1 1 0
1  26 0 4.71238898038469 6.28318530717959
2  47 19 0 4.71238898038469 6.28318530717959
2  48 19 85 4.71238898038469 6.28318530717959
0

0101000
+213 0 -203 0 *
Wi

0101100
+212 0 -202 0 -445 0 +201 84 *
Fa
0  1.00000053743836e-07 19 0

0101000
+200 0 *
Ve
3.86282181463748e-07
360 150.2 3.5527136788005e-15
0 0

0101101
*
Ed
 3.86282181463748e-07 1 1 0
1  80 0 0 2
2  137 20 0 0 2
4 G1 52 0 20 0
0

0101000
+444 0 -198 84 *
Ed
 1.00000035499583e-07 1 1 0
1  27 0 -0 148
0

0101000
+208 0 -198 0 *
Wi

0101100
+207 0 -197 0 -443 0 +196 84 *
Fa
0  1.00000035499583e-07 52 0

0101000
+195 0 *
Ve
3.86282238307167e-07
366.2 144 3.5527136788005e-15
0 0

0101101
*
Ed
 3.86282238307167e-07 1 1 0
1  81 0 0 2
2  138 20 0 0 2
4 G1 20 0 53 0
0

0101000
+442 0 -193 84 *
Ed
 1.00000035499583e-07 1 1 0
1  28 0 0 104
0

0101000
+203 0 -193 0 *
Wi

0101100
+202 0 -192 0 -441 0 +191 84 *
Fa
0  1.00000035499583e-07 53 0

0101000
+190 0 *
Ed
 1.00000060785114e-07 1 1 0
1  29 0 6.28318530717959 7.85398163397448
2  49 20 0 6.28318530717959 7.85398163397448
2  50 20 85 6.28318530717959 7.85398163397448
0

0101000
+193 0 -198 0 *
Wi

0101100
+192 0 -197 0 -440 0 +188 84 *
Fa
0  1.00000060785114e-07 20 0

0101000
+187 0 *
Ed
 1.00000017911598e-07 1 1 0
1  82 0 0 18
3  139 140CN 21 0 0 18
0

0101000
+438 0 -319 0 *
Wi

0101100
+185 0 -185 0 -437 89 +318 272 *
Fa
0  1.00000017319479e-07 21 0

0101000
+184 0 *
Ed
 1.00000017911598e-07 1 1 0
1  83 0 0 18
3  141 142CN 22 0 0 18
0

0101000
+435 0 -313 0 *
Wi

0101100
+182 0 -182 0 -434 96 +312 274 *
Fa
0  1.00000017319479e-07 22 0

0101000
+181 0 *
Ed
 1.00000242331189e-07 1 1 0
1  84 0 0 18
3  143 144CN 23 0 0 18
0

0101000
+432 0 -316 0 *
Wi

0101100
+179 0 -179 0 -431 103 +315 273 *
Fa
0  1.00000017319479e-07 23 0

0101000
+178 0 *
Ed
 1.00000235328193e-07 1 1 0
1  85 0 0 18
3  145 146CN 24 0 0 18
0

0101000
+429 0 -310 0 *
Wi

0101100
+176 0 -176 0 -428 110 +309 275 *
Fa
0  1.00000234736074e-07 24 0

0101000
+175 0 *
Ed
 1.00000236389912e-07 1 1 0
1  86 0 0 18
3  147 148CN 25 0 0 18
0

0101000
+426 0 -304 0 *
Wi

0101100
+173 0 -173 0 -425 117 +303 277 *
Fa
0  1.00000017319479e-07 25 0

0101000
+172 0 *
Ed
 1.00000236389912e-07 1 1 0
1  87 0 0 18
3  149 150CN 26 0 0 18
0

0101000
+423 0 -301 0 *
Wi

0101100
+170 0 -170 0 -422 124 +300 278 *
Fa
0  1.00000017319479e-07 26 0

0101000
+169 0 *
Ed
 1.00000236389912e-07 1 1 0
1  88 0 0 18
3  151 152CN 27 0 0 18
0

0101000
+420 0 -307 0 *
Wi

0101100
+167 0 -167 0 -419 131 +306 276 *
Fa
0  1.00000017319479e-07 27 0

0101000
+166 0 *
Ve
1.00000011324275e-07
369 622 2.22044604925031e-15
0 0

0101101
*
Ed
 1.00000011324275e-07 1 1 0
1  89 0 0 8
3  153 154CN 28 0 0 8
0

0101000
+417 0 -164 140 *
Ed
 1.00000010214052e-07 1 1 0
1  37 0 0 6.28318530717959
2  65 28 139 0 6.28318530717959
2  66 28 141 0 6.28318530717959
0

0101000
+164 139 -164 139 *
Wi

0101100
+163 0 -163 0 -416 138 +162 293 *
Fa
0  1.00000010214052e-07 28 0

0101000
+161 0 *
Ed
 1.00000017911598e-07 1 1 0
1  90 0 0 18
3  155 156CN 29 0 0 18
0

0101000
+414 0 -298 0 *
Wi

0101100
+159 0 -159 0 -413 145 +297 279 *
Fa
0  1.00000017319479e-07 29 0

0101000
+158 0 *
Ed
 1.00000017911598e-07 1 1 0
1  91 0 0 18
3  157 158CN 30 0 0 18
0

0101000
+411 0 -295 0 *
Wi

0101100
+156 0 -156 0 -410 152 +294 280 *
Fa
0  1.00000017319479e-07 30 0

0101000
+155 0 *
Ve
1.00000011324275e-07
509 622 2.22044604925031e-15
0 0

0101101
*
Ed
 1.00000011324275e-07 1 1 0
1  92 0 0 8
3  159 160CN 31 0 0 8
0

0101000
+408 0 -153 161 *
Ed
 1.00000010214052e-07 1 1 0
1  40 0 0 6.28318530717959
2  71 31 160 0 6.28318530717959
2  72 31 162 0 6.28318530717959
0

0101000
+153 160 -153 160 *
Wi

0101100
+152 0 -152 0 -407 159 +151 294 *
Fa
0  1.00000010214052e-07 31 0

0101000
+150 0 *
Ed
 1.00000017911598e-07 1 1 0
1  93 0 0 18
3  161 162CN 32 0 0 18
0

0101000
+405 0 -292 0 *
Wi

0101100
+148 0 -148 0 -404 166 +291 281 *
Fa
0  1.00000017319479e-07 32 0

0101000
+147 0 *
Ve
1.0000005840092e-07
69 762 2.51650552248369e-15
0 0

0101101
*
Ed
 1.0000005840092e-07 1 1 0
1  94 0 0 8
3  163 164CN 33 0 0 8
0

0101000
+402 0 -145 175 *
Ed
 1.00000057142668e-07 1 1 0
1  42 0 0 6.28318530717959
2  75 33 174 0 6.28318530717959
2  76 33 176 0 6.28318530717959
0

0101000
+145 174 -145 174 *
Wi

0101100
+144 0 -144 0 -401 173 +143 295 *
Fa
0  1.00000057142668e-07 33 0

0101000
+142 0 *
Ed
 1.00000235328193e-07 1 1 0
1  95 0 0 18
3  165 166CN 34 0 0 18
0

0101000
+399 0 -289 0 *
Wi

0101100
+140 0 -140 0 -398 180 +288 282 *
Fa
0  1.00000234736074e-07 34 0

0101000
+139 0 *
Ed
 1.00000065557114e-07 1 1 0
1  96 0 0 18
3  167 168CN 35 0 0 18
0

0101000
+396 0 -286 0 *
Wi

0101100
+137 0 -137 0 -395 187 +285 283 *
Fa
0  1.00000064964995e-07 35 0

0101000
+136 0 *
Ed
 1.00000017911598e-07 1 1 0
1  97 0 0 18
3  169 170CN 36 0 0 18
0

0101000
+393 0 -283 0 *
Wi

0101100
+134 0 -134 0 -392 194 +282 284 *
Fa
0  1.00000017319479e-07 36 0

0101000
+133 0 *
Ve
1.0000005840092e-07
209 762 2.51650552248369e-15
0 0

0101101
*
Ed
 1.0000005840092e-07 1 1 0
1  98 0 0 8
3  171 172CN 37 0 0 8
0

0101000
+390 0 -131 203 *
Ed
 1.00000057142668e-07 1 1 0
1  46 0 0 6.28318530717959
2  83 37 202 0 6.28318530717959
2  84 37 204 0 6.28318530717959
0

0101000
+131 202 -131 202 *
Wi

0101100
+130 0 -130 0 -389 201 +129 296 *
Fa
0  1.00000057142668e-07 37 0

0101000
+128 0 *
Ed
 1.00000065557114e-07 1 1 0
1  99 0 0 18
3  173 174CN 38 0 0 18
0

0101000
+387 0 -280 0 *
Wi

0101100
+126 0 -126 0 -386 208 +279 285 *
Fa
0  1.00000064964995e-07 38 0

0101000
+125 0 *
Ve
1.00000011324275e-07
369 762 2.22044604925031e-15
0 0

0101101
*
Ed
 1.00000011324275e-07 1 1 0
1  100 0 0 8
3  175 176CN 39 0 0 8
0

0101000
+384 0 -123 217 *
Ed
 1.00000010214052e-07 1 1 0
1  48 0 0 6.28318530717959
2  87 39 216 0 6.28318530717959
2  88 39 218 0 6.28318530717959
0

0101000
+123 216 -123 216 *
Wi

0101100
+122 0 -122 0 -383 215 +121 297 *
Fa
0  1.00000010214052e-07 39 0

0101000
+120 0 *
Ed
 1.00000017911598e-07 1 1 0
1  101 0 0 18
3  177 178CN 40 0 0 18
0

0101000
+381 0 -277 0 *
Wi

0101100
+118 0 -118 0 -380 222 +276 286 *
Fa
0  1.00000017319479e-07 40 0

0101000
+117 0 *
Ed
 1.00000235328193e-07 1 1 0
1  102 0 0 18
3  179 180CN 41 0 0 18
0

0101000
+378 0 -274 0 *
Wi

0101100
+115 0 -115 0 -377 229 +273 287 *
Fa
0  1.00000234736074e-07 41 0

0101000
+114 0 *
Ed
 1.00000017911598e-07 1 1 0
1  103 0 0 18
3  181 182CN 42 0 0 18
0

0101000
+375 0 -271 0 *
Wi

0101100
+112 0 -112 0 -374 236 +270 288 *
Fa
0  1.00000017319479e-07 42 0

0101000
+111 0 *
Ve
1.00000011324275e-07
509 762 2.22044604925031e-15
0 0

0101101
*
Ed
 1.00000011324275e-07 1 1 0
1  104 0 0 8
3  183 184CN 43 0 0 8
0

0101000
+372 0 -109 245 *
Ed
 1.00000010214052e-07 1 1 0
1  52 0 0 6.28318530717959
2  95 43 244 0 6.28318530717959
2  96 43 246 0 6.28318530717959
0

0101000
+109 244 -109 244 *
Wi

0101100
+108 0 -108 0 -371 243 +107 298 *
Fa
0  1.00000010214052e-07 43 0

0101000
+106 0 *
Ed
 1.00000017911598e-07 1 1 0
1  105 0 0 18
3  185 186CN 44 0 0 18
0

0101000
+369 0 -268 0 *
Wi

0101100
+104 0 -104 0 -368 250 +267 289 *
Fa
0  1.00000017319479e-07 44 0

0101000
+103 0 *
Ed
 1.00000121897129e-07 1 1 0
1  106 0 0 18
3  187 188CN 45 0 0 18
0

0101000
+366 0 -265 0 *
Wi

0101100
+101 0 -101 0 -365 257 +264 290 *
Fa
0  1.0000012130501e-07 45 0

0101000
+100 0 *
Ve
2.00000006883383e-07
228 48 2
0 0

0101101
*
Ve
2.00000006883383e-07
220 56 2
0 0

0101101
*
Ed
 1.50000011400035e-07 1 1 0
1  107 0 1.5707963267949 3.14159265358979
2  189 54 84 1.5707963267949 3.14159265358979
2  190 46 0 1.5707963267949 3.14159265358979
0

0101000
+98 0 -97 0 *
Ed
 1.5000001147405e-07 1 1 0
1  108 0 2 18
2  191 46 0 2 18
4 G1 55 0 46 0
0

0101000
+98 0 -335 0 *
Ed
 1.5000001147405e-07 1 1 0
1  109 0 2 18
2  192 46 0 2 18
4 G1 56 0 46 0
0

0101000
+97 0 -336 0 *
Wi

0101100
+96 0 -95 0 +334 270 +94 0 *
Fa
0  1.50000011400035e-07 46 0

0101000
+93 0 *
Ve
2.00000006883383e-07
220 128 2
0 0

0101101
*
Ed
 2.00000006883383e-07 1 1 0
1  110 0 -54 18
2  193 54 84 -54 18
2  194 56 0 -54 18
0

0101000
+91 0 -97 0 *
Ed
 1.50000006957398e-07 1 1 0
1  111 0 2 18
2  195 47 0 2 18
4 G1 56 0 47 0
0

0101000
+91 0 -333 0 *
Wi

0101100
+90 0 -89 0 +332 270 +94 0 *
Fa
0  1.50000006883383e-07 56 0

0101000
+88 0 *
Ve
2.00000006883383e-07
344 48 2
0 0

0101101
*
Ed
 2.00000006883383e-07 1 1 0
1  112 0 -87 29
2  196 54 84 -87 29
2  197 55 0 -87 29
0

0101000
+98 0 -86 0 *
Ed
 1.50000018222678e-07 1 1 0
1  113 0 2 18
2  198 48 0 2 18
4 G1 48 0 55 0
0

0101000
+86 0 -331 0 *
Wi

0101100
+85 0 -95 0 +330 270 +84 0 *
Fa
0  1.50000006883383e-07 55 0

0101000
+83 0 *
Ve
2.00000006883383e-07
228 136 2
0 0

0101101
*
Ed
 1.50000006883383e-07 1 1 0
1  114 0 3.14159265358979 4.71238898038469
2  199 54 84 3.14159265358979 4.71238898038469
2  200 47 0 3.14159265358979 4.71238898038469
0

0101000
+91 0 -81 0 *
Ed
 1.50000006957398e-07 1 1 0
1  115 0 2 18
2  201 47 0 2 18
4 G1 47 0 57 0
0

0101000
+81 0 -329 0 *
Wi

0101100
+80 0 -89 0 +328 270 +79 0 *
Fa
0  1.50000006883383e-07 47 0

0101000
+78 0 *
Ve
2.00000006883383e-07
352 56 2
0 0

0101101
*
Ed
 1.50000018148663e-07 1 1 0
1  116 0 0 1.5707963267949
2  202 54 84 0 1.5707963267949
2  203 48 0 0 1.5707963267949
0

0101000
+76 0 -86 0 *
Ed
 1.50000018222678e-07 1 1 0
1  117 0 2 18
2  204 48 0 2 18
4 G1 58 0 48 0
0

0101000
+76 0 -327 0 *
Wi

0101100
+75 0 -74 0 +326 270 +84 0 *
Fa
0  1.50000018148663e-07 48 0

0101000
+73 0 *
Ve
2.00000006883383e-07
344 136 2
0 0

0101101
*
Ed
 2.00000006883383e-07 1 1 0
1  118 0 -87 29
2  205 54 84 -87 29
2  206 57 0 -87 29
0

0101000
+81 0 -71 0 *
Ed
 1.50000006957398e-07 1 1 0
1  119 0 2 18
2  207 49 0 2 18
4 G1 57 0 49 0
0

0101000
+71 0 -325 0 *
Wi

0101100
+70 0 -79 0 +324 270 +69 0 *
Fa
0  1.50000006883383e-07 57 0

0101000
+68 0 *
Ve
2.00000006883383e-07
352 128 2
0 0

0101101
*
Ed
 2.00000006883383e-07 1 1 0
1  120 0 -54 18
2  208 54 84 -54 18
2  209 58 0 -54 18
0

0101000
+66 0 -76 0 *
Ed
 1.50000006957398e-07 1 1 0
1  121 0 2 18
2  210 49 0 2 18
4 G1 49 0 58 0
0

0101000
+66 0 -323 0 *
Wi

0101100
+65 0 -64 0 +322 270 +74 0 *
Fa
0  1.50000006883383e-07 58 0

0101000
+63 0 *
Ed
 1.50000006883383e-07 1 1 0
1  122 0 4.71238898038469 6.28318530717959
2  211 54 84 4.71238898038469 6.28318530717959
2  212 49 0 4.71238898038469 6.28318530717959
0

0101000
+71 0 -66 0 *
Wi

0101100
+61 0 -69 0 +321 270 +64 0 *
Fa
0  1.50000006883383e-07 49 0

0101000
+60 0 *
Wi

0101100
-251 31 *
Fa
0  1e-07 59 0

0101000
-58 0 *
Wi

0101100
-231 73 *
Fa
0  1e-07 60 0

0101000
-56 0 *
Wi

0101100
-216 84 +221 84 +206 84 +211 84 -196 84 +201 84 +188 84 +191 84 *
Wi

0101100
-90 0 +96 0 -85 0 +75 0 +65 0 +61 0 +70 0 +80 0 *
Fa
0  1e-07 54 84

0101000
+54 0 +53 0 *
Wi

0101100
-162 138 *
Fa
0  1e-07 61 0

0101000
-51 0 *
Wi

0101100
-151 159 *
Fa
0  1e-07 62 0

0101000
-49 0 *
Wi

0101100
-143 173 *
Fa
0  1e-07 63 0

0101000
-47 0 *
Wi

0101100
-129 201 *
Fa
0  1e-07 64 0

0101000
-45 0 *
Wi

0101100
-121 215 *
Fa
0  1e-07 65 0

0101000
-43 0 *
Wi

0101100
-107 243 *
Fa
0  1e-07 66 0

0101000
-41 0 *
Sh

0101100
+502 0 -495 0 +488 0 -363 0 +262 0 -260 0 +257 0 +254 0 +249 0 +246 0 
+243 0 +240 0 +237 0 +234 0 +229 0 +226 0 +219 0 -214 0 +209 0 +204 0 
+199 0 -194 0 +189 0 +186 0 +183 0 +180 0 +177 0 +174 0 +171 0 +168 0 
+165 0 +160 0 +157 0 +154 0 +149 0 +146 0 +141 0 +138 0 +135 0 +132 0 
+127 0 +124 0 +119 0 +116 0 +113 0 +110 0 +105 0 +102 0 +99 0 +92 0 
-87 0 -82 0 +77 0 +72 0 +67 0 +62 0 +59 0 -57 33 -55 75 -52 0 
-50 140 -48 161 -46 175 -44 203 -42 217 -40 245 *
So

0100000
+39 0 *
Co

0100000
+38 0 *
Co

0100000
+37 0 *
Co

0100000
+36 0 *
Co

0100000
+35 0 *
Co

0100000
+34 0 *
Co

0100000
+33 0 *
Co

0100000
+32 0 *
Co

0100000
+31 0 *
Co

0100000
+30 0 *
Co

0100000
+29 0 *
Co

0100000
+28 0 *
Co

0100000
+27 0 *
Co

0100000
+26 0 *
Co

0100000
+25 0 *
Co

0100000
+24 0 *
Co

0100000
+23 0 *
Co

0100000
+22 0 *
Co

0100000
+21 0 *
Co

0100000
+20 0 *
Co

0100000
+19 0 *
Co

0100000
+18 0 *
Co

0100000
+17 0 *
Co

0100000
+16 0 *
Co

0100000
+15 0 *
Co

0100000
+14 0 *
Co

0100000
+13 0 *
Co

0100000
+12 0 *
Co

0100000
+11 0 *
Co

0100000
+10 0 *
Co

0100000
+9 0 *
Co

0100000
+8 0 *
Co

0100000
+7 0 *
Co

0100000
+6 0 *
Co

0100000
+5 0 *
Co

0100000
+4 0 *
Co

0100000
+3 0 *
Co

1100000
+2 0 *

+1 0 