DBRep_DrawableShape

CASCADE Topology V1, (c) Matra-Datavision
Locations 189
1
              1               0               0               0 
              0               1               0               0 
              0               0               1               0 
1
              1               0               0               0 
              0               1               0               0 
              0               0               1               0 
2  2 -1 0
1
              1               0               0               0 
              0               1               0               0 
              0               0               1               0 
1
              1               0               0               0 
              0               1               0               0 
              0               0               1               0 
2  4 1 5 1 2 1 0
2  2 -1 5 -1 4 -1 0
2  5 1 2 1 0
2  2 -1 5 -1 0
1
              1               0               0               0 
              0               1               0               0 
              0               0               1              -2 
2  10 -1 1 -1 0
1
              1               0               0               0 
              0               1               0               0 
              0               0               1               1 
2  12 -1 10 -1 1 -1 0
1
              1               0               0               0 
              0               1               0               0 
              0               0               1              -2 
2  14 -1 1 -1 0
1
              1               0               0               0 
              0               1               0               0 
              0               0               1               1 
2  16 -1 14 -1 1 -1 0
1
              1               0               0               0 
              0               1               0               0 
              0               0               1              -2 
2  18 -1 1 -1 0
1
              1               0               0               0 
              0               1               0               0 
              0               0               1               1 
2  20 -1 18 -1 1 -1 0
1
              1               0               0               0 
              0               1               0               0 
              0               0               1              -2 
2  22 -1 1 -1 0
1
              1               0               0               0 
              0               1               0               0 
              0               0               1               1 
2  24 -1 22 -1 1 -1 0
1
              1               0               0               0 
              0               1               0               0 
              0               0               1              -2 
2  26 -1 1 -1 0
1
              1               0               0               0 
              0               1               0               0 
              0               0               1               1 
2  28 -1 26 -1 1 -1 0
1
              1               0               0               0 
              0               1               0               0 
              0               0               1              -8 
2  30 -1 1 -1 2 -1 5 -1 0
1
              1               0               0               0 
              0               1               0               0 
              0               0               1               1 
2  32 -1 30 -1 1 -1 2 -1 5 -1 0
1
              1               0               0               0 
              0               1               0               0 
              0               0               1              -8 
2  34 -1 1 -1 2 -1 5 -1 0
1
              1               0               0               0 
              0               1               0               0 
              0               0               1               1 
2  36 -1 34 -1 1 -1 2 -1 5 -1 0
1
              1               0               0               0 
              0               1               0               0 
              0               0               1              -8 
2  38 -1 1 -1 2 -1 5 -1 0
1
              1               0               0               0 
              0               1               0               0 
              0               0               1               1 
2  40 -1 38 -1 1 -1 2 -1 5 -1 0
1
              1               0               0               0 
              0               1               0               0 
              0               0               1              -8 
2  42 -1 1 -1 2 -1 5 -1 0
1
              1               0               0               0 
              0               1               0               0 
              0               0               1               1 
2  44 -1 42 -1 1 -1 2 -1 5 -1 0
1
              1               0               0               0 
              0               1               0               0 
              0               0               1              -8 
2  46 -1 1 -1 2 -1 5 -1 0
1
              1               0               0               0 
              0               1               0               0 
              0               0               1               1 
2  48 -1 46 -1 1 -1 2 -1 5 -1 0
1
              1               0               0               0 
              0               1               0               0 
              0               0               1              -8 
2  50 -1 1 -1 2 -1 5 -1 0
1
              1               0               0               0 
              0               1               0               0 
              0               0               1               1 
2  52 -1 50 -1 1 -1 2 -1 5 -1 0
1
              1               0               0               0 
              0               1               0               0 
              0               0               1              -8 
2  54 -1 1 -1 2 -1 5 -1 0
1
              1               0               0               0 
              0               1               0               0 
              0               0               1               1 
2  56 -1 54 -1 1 -1 2 -1 5 -1 0
1
              1               0               0               0 
              0               1               0               0 
              0               0               1              -8 
2  58 -1 1 -1 2 -1 5 -1 0
1
              1               0               0               0 
              0               1               0               0 
              0               0               1               1 
2  60 -1 58 -1 1 -1 2 -1 5 -1 0
1
              1               0               0               0 
              0               1               0               0 
              0               0               1              -8 
2  62 -1 1 -1 2 -1 5 -1 0
1
              1               0               0               0 
              0               1               0               0 
              0               0               1               1 
2  64 -1 62 -1 1 -1 2 -1 5 -1 0
1
              1               0               0               0 
              0               1               0               0 
              0               0               1              -8 
2  66 -1 1 -1 2 -1 5 -1 0
1
              1               0               0               0 
              0               1               0               0 
              0               0               1               1 
2  68 -1 66 -1 1 -1 2 -1 5 -1 0
1
              1               0               0               0 
              0               1               0               0 
              0               0               1              -8 
2  70 -1 1 -1 2 -1 5 -1 0
1
              1               0               0               0 
              0               1               0               0 
              0               0               1               1 
2  72 -1 70 -1 1 -1 2 -1 5 -1 0
1
              1               0               0               0 
              0               1               0               0 
              0               0               1              -8 
2  74 -1 1 -1 2 -1 5 -1 0
1
              1               0               0               0 
              0               1               0               0 
              0               0               1               1 
2  76 -1 74 -1 1 -1 2 -1 5 -1 0
1
              1               0               0               0 
              0               1               0               0 
              0               0               1              -8 
2  78 -1 1 -1 2 -1 5 -1 0
1
              1               0               0               0 
              0               1               0               0 
              0               0               1               1 
2  80 -1 78 -1 1 -1 2 -1 5 -1 0
1
              1               0               0               0 
              0               1               0               0 
              0               0               1              -8 
2  82 -1 1 -1 2 -1 5 -1 0
1
              1               0               0               0 
              0               1               0               0 
              0               0               1               1 
2  84 -1 82 -1 1 -1 2 -1 5 -1 0
1
              1               0               0               0 
              0               1               0               0 
              0               0               1              -8 
2  86 -1 1 -1 2 -1 5 -1 0
1
              1               0               0               0 
              0               1               0               0 
              0               0               1               1 
2  88 -1 86 -1 1 -1 2 -1 5 -1 0
1
              1               0               0               0 
              0               1               0               0 
              0               0               1              -8 
2  90 -1 1 -1 2 -1 5 -1 0
1
              1               0               0               0 
              0               1               0               0 
              0               0               1               1 
2  92 -1 90 -1 1 -1 2 -1 5 -1 0
1
              1               0               0               0 
              0               1               0               0 
              0               0               1              -8 
2  94 -1 1 -1 2 -1 5 -1 0
1
              1               0               0               0 
              0               1               0               0 
              0               0               1               1 
2  96 -1 94 -1 1 -1 2 -1 5 -1 0
1
              1               0               0               0 
              0               1               0               0 
              0               0               1              -8 
2  98 -1 1 -1 2 -1 5 -1 0
1
              1               0               0               0 
              0               1               0               0 
              0               0               1               1 
2  100 -1 98 -1 1 -1 2 -1 5 -1 0
1
              1               0               0               0 
              0               1               0               0 
              0               0               1              -8 
2  102 -1 1 -1 2 -1 5 -1 0
1
              1               0               0               0 
              0               1               0               0 
              0               0               1               1 
2  104 -1 102 -1 1 -1 2 -1 5 -1 0
1
              1               0               0               0 
              0               1               0               0 
              0               0               1              -8 
2  106 -1 1 -1 2 -1 5 -1 0
1
              1               0               0               0 
              0               1               0               0 
              0               0               1               1 
2  108 -1 106 -1 1 -1 2 -1 5 -1 0
1
              1               0               0               0 
              0               1               0               0 
              0               0               1              -8 
2  110 -1 1 -1 2 -1 5 -1 0
1
              1               0               0               0 
              0               1               0               0 
              0               0               1               1 
2  112 -1 110 -1 1 -1 2 -1 5 -1 0
1
              1               0               0               0 
              0               1               0               0 
              0               0               1              -8 
2  114 -1 1 -1 2 -1 5 -1 0
1
              1               0               0               0 
              0               1               0               0 
              0               0               1               1 
2  116 -1 114 -1 1 -1 2 -1 5 -1 0
1
              1               0               0               0 
              0               1               0               0 
              0               0               1              -8 
2  118 -1 1 -1 2 -1 5 -1 0
1
              1               0               0               0 
              0               1               0               0 
              0               0               1               1 
2  120 -1 118 -1 1 -1 2 -1 5 -1 0
1
              1               0               0               0 
              0               1               0               0 
              0               0               1              -8 
2  122 -1 1 -1 2 -1 5 -1 0
1
              1               0               0               0 
              0               1               0               0 
              0               0               1               1 
2  124 -1 122 -1 1 -1 2 -1 5 -1 0
1
              1               0               0               0 
              0               1               0               0 
              0               0               1              -8 
2  126 -1 1 -1 2 -1 5 -1 0
1
              1               0               0               0 
              0               1               0               0 
              0               0               1               1 
2  128 -1 126 -1 1 -1 2 -1 5 -1 0
1
              1               0               0               0 
              0               1               0               0 
              0               0               1              -8 
2  130 -1 1 -1 2 -1 5 -1 0
1
              1               0               0               0 
              0               1               0               0 
              0               0               1               1 
2  132 -1 130 -1 1 -1 2 -1 5 -1 0
1
              1               0               0               0 
              0               1               0               0 
              0               0               1              -8 
2  134 -1 1 -1 2 -1 5 -1 0
1
              1               0               0               0 
              0               1               0               0 
              0               0               1               1 
2  136 -1 134 -1 1 -1 2 -1 5 -1 0
1
              1               0               0               0 
              0               1               0               0 
              0               0               1              -8 
2  138 -1 1 -1 2 -1 5 -1 0
1
              1               0               0               0 
              0               1               0               0 
              0               0               1               1 
2  140 -1 138 -1 1 -1 2 -1 5 -1 0
1
              1               0               0               0 
              0               1               0               0 
              0               0               1              -8 
2  142 -1 1 -1 2 -1 5 -1 0
1
              1               0               0               0 
              0               1               0               0 
              0               0               1               1 
2  144 -1 142 -1 1 -1 2 -1 5 -1 0
1
              1               0               0               0 
              0               1               0               0 
              0               0               1              -8 
2  146 -1 1 -1 2 -1 5 -1 0
1
              1               0               0               0 
              0               1               0               0 
              0               0               1               1 
2  148 -1 146 -1 1 -1 2 -1 5 -1 0
1
              1               0               0               0 
              0               1               0               0 
              0               0               1              -8 
2  150 -1 1 -1 2 -1 5 -1 0
1
              1               0               0               0 
              0               1               0               0 
              0               0               1               1 
2  152 -1 150 -1 1 -1 2 -1 5 -1 0
1
              1               0               0               0 
              0               1               0               0 
              0               0               1              -8 
2  154 -1 1 -1 2 -1 5 -1 0
1
              1               0               0               0 
              0               1               0               0 
              0               0               1               1 
2  156 -1 154 -1 1 -1 2 -1 5 -1 0
1
              1               0               0               0 
              0               1               0               0 
              0               0               1              -8 
2  158 -1 1 -1 2 -1 5 -1 0
1
              1               0               0               0 
              0               1               0               0 
              0               0               1               1 
2  160 -1 158 -1 1 -1 2 -1 5 -1 0
1
              1               0               0               0 
              0               1               0               0 
              0               0               1              -8 
2  162 -1 1 -1 2 -1 5 -1 0
1
              1               0               0               0 
              0               1               0               0 
              0               0               1               1 
2  164 -1 162 -1 1 -1 2 -1 5 -1 0
1
              1               0               0               0 
              0               1               0               0 
              0               0               1              -8 
2  166 -1 1 -1 2 -1 5 -1 0
1
              1               0               0               0 
              0               1               0               0 
              0               0               1               1 
2  168 -1 166 -1 1 -1 2 -1 5 -1 0
1
              1               0               0               0 
              0               1               0               0 
              0               0               1              -8 
2  170 -1 1 -1 2 -1 5 -1 0
1
              1               0               0               0 
              0               1               0               0 
              0               0               1               1 
2  172 -1 170 -1 1 -1 2 -1 5 -1 0
1
              1               0               0               0 
              0               1               0               0 
              0               0               1              -8 
2  174 -1 1 -1 2 -1 5 -1 0
1
              1               0               0               0 
              0               1               0               0 
              0               0               1               1 
2  176 -1 174 -1 1 -1 2 -1 5 -1 0
1
              1               0               0               0 
              0               1               0               0 
              0               0               1              -8 
2  178 -1 1 -1 2 -1 5 -1 0
1
              1               0               0               0 
              0               1               0               0 
              0               0               1               1 
2  180 -1 178 -1 1 -1 2 -1 5 -1 0
1
              1               0               0               0 
              0               1               0               0 
              0               0               1              -8 
2  182 -1 1 -1 2 -1 5 -1 0
1
              1               0               0               0 
              0               1               0               0 
              0               0               1               1 
2  184 -1 182 -1 1 -1 2 -1 5 -1 0
1
              1               0               0               0 
              0               1               0               0 
              0               0               1              -8 
2  186 -1 1 -1 2 -1 5 -1 0
1
              1               0               0               0 
              0               1               0               0 
              0               0               1               1 
2  188 -1 186 -1 1 -1 2 -1 5 -1 0
Curve2ds 292
1 0 19 1 0 
1 0 19 1 0 
1 0 19 1 0 
1 0 19 1 0 
1 0 19 1 0 
1 0 19 1 0 
1 0 19 1 0 
1 0 19 1 0 
1 0 19.000000000000007 1 0 
1 0 19.000000000000007 1 0 
1 0 19.000000000000007 1 0 
1 0 19.000000000000007 1 0 
1 0 19 1 0 
1 0 19 1 0 
1 0 19 1 0 
1 0 19 1 0 
1 0 19 1 0 
1 0 19 1 0 
1 0 19 1 0 
1 0 19 1 0 
1 0 19 1 0 
1 0 19 1 0 
1 0 19 1 0 
1 0 19 1 0 
1 0 19 1 0 
1 0 19 1 0 
1 0 19 1 0 
1 0 19 1 0 
1 0 19 1 0 
1 0 19 1 0 
1 0 19 1 0 
1 0 1 1 0 
1 0 0 1 0 
1 0 0 1 0 
1 0 0 1 0 
1 0 0 1 0 
1 0 1 1 0 
1 0 0 1 0 
1 0 1 1 0 
1 0 1 1 0 
1 0 1 1 0 
1 0 1 1 0 
1 0 1 1 0 
1 0 0 1 0 
1 0 1 1 0 
1 0 1 1 0 
1 0 1 1 0 
1 0 1 1 0 
1 0 1 1 0 
1 0 1 1 0 
1 0 1 1 0 
1 0 1 1 0 
1 0 0 1 0 
1 0 1 1 0 
1 0 1 1 0 
1 0 0 1 0 
1 0 1 1 0 
1 0 0 1 0 
1 0 1 1 0 
1 0 1 1 0 
1 0 1 1 0 
1 0 0 1 0 
1 0 1 1 0 
1 0 0 1 0 
1 0 1 1 0 
1 0 1 1 0 
1 0 1 1 0 
1 0 0 1 0 
1 0 1 1 0 
1 0 1 1 0 
1 6.2831853071795862 -0 0 1 
1 0 -0 0 1 
1 6.2831853071795862 -0 0 1 
1 0 -0 0 1 
1 6.2831853071795862 -0 0 1 
1 0 -0 0 1 
1 6.2831853071795862 -0 0 1 
1 0 -0 0 1 
1 6.2831853071795862 -0 0 1 
1 0 -0 0 1 
1 6.2831853071795862 -0 0 1 
1 0 -0 0 1 
1 6.2831853071795862 -0 0 1 
1 0 -0 0 1 
1 6.2831853071795862 -0 0 1 
1 0 -0 0 1 
1 4.7123889803846897 0 0 1 
1 0 3.0000000000000036 1 0 
1 3.1415926535897931 0 0 1 
1 4.7123889803846897 0 0 1 
1 6.2831853071795862 -0 0 1 
1 0 3.0000000000000036 1 0 
1 0 0 0 1 
1 1.5707963267948966 0 0 1 
1 0 3.0000000000000036 1 0 
1 1.5707963267948966 0 0 1 
1 3.1415926535897931 0 0 1 
1 0 3.0000000000000036 1 0 
1 6.2831853071795862 -0 0 1 
1 0 -0 0 1 
1 6.2831853071795862 -0 0 1 
1 0 -0 0 1 
1 6.2831853071795862 -0 0 1 
1 0 -0 0 1 
1 6.2831853071795862 -0 0 1 
1 0 -0 0 1 
1 6.2831853071795862 -0 0 1 
1 0 -0 0 1 
1 6.2831853071795862 -0 0 1 
1 0 -0 0 1 
1 6.2831853071795862 -0 0 1 
1 0 -0 0 1 
1 6.2831853071795862 -0 0 1 
1 0 -0 0 1 
1 6.2831853071795862 -0 0 1 
1 0 -0 0 1 
1 6.2831853071795862 -0 0 1 
1 0 -0 0 1 
1 6.2831853071795862 -0 0 1 
1 0 -0 0 1 
1 6.2831853071795862 -0 0 1 
1 0 -0 0 1 
1 6.2831853071795862 -0 0 1 
1 0 -0 0 1 
1 6.2831853071795862 -0 0 1 
1 0 -0 0 1 
1 6.2831853071795862 -0 0 1 
1 0 -0 0 1 
1 6.2831853071795862 -0 0 1 
1 0 -0 0 1 
1 6.2831853071795862 -0 0 1 
1 0 -0 0 1 
1 6.2831853071795862 -0 0 1 
1 0 -0 0 1 
1 6.2831853071795862 -0 0 1 
1 0 -0 0 1 
1 3.1415926535897931 0 0 1 
1 3.1415926535897931 0 0 1 
1 0 2 1 0 
1 0 0 1 0 
1 0 -1 1 0 
1 0 0 1 0 
1 0 -1 1 0 
1 0 0 1 0 
1 0 -1 1 0 
1 0 0 1 0 
1 0 -1 1 0 
1 0 0 1 0 
1 0 -1 1 0 
1 1.5707963267948966 0 0 1 
1 1.5707963267949059 0 0 1 
1 0 2 1 0 
1 0 0 1 0 
1 0 -1 1 0 
1 0 0 1 0 
1 0 -1 1 0 
1 0 0 1 0 
1 0 -1 1 0 
1 0 0 1 0 
1 0 -1 1 0 
1 0 0 1 0 
1 0 -1 1 0 
1 0 0 0 1 
1 6.2831853071795862 -0 0 1 
1 0 2 1 0 
1 0 0 1 0 
1 0 -1 1 0 
1 0 0 1 0 
1 0 -1 1 0 
1 0 0 1 0 
1 0 -1 1 0 
1 0 0 1 0 
1 0 -1 1 0 
1 0 0 1 0 
1 0 -1 1 0 
1 4.7123889803846808 0 0 1 
1 4.7123889803846897 0 0 1 
1 0 2 1 0 
1 0 0 1 0 
1 0 -1 1 0 
1 0 0 1 0 
1 0 -1 1 0 
1 0 0 1 0 
1 0 -1 1 0 
1 0 0 1 0 
1 0 -1 1 0 
1 0 0 1 0 
1 0 -1 1 0 
1 0 8 1 0 
1 0 0 1 0 
1 0 -1 1 0 
1 0 0 1 0 
1 0 -1 1 0 
1 0 0 1 0 
1 0 -1 1 0 
1 0 0 1 0 
1 0 -1 1 0 
1 0 0 1 0 
1 0 -1 1 0 
1 6.2831853071795862 -0 0 1 
1 0 -0 0 1 
1 0 8 1 0 
1 0 0 1 0 
1 0 -1 1 0 
1 0 0 1 0 
1 0 -1 1 0 
1 0 0 1 0 
1 0 -1 1 0 
1 0 0 1 0 
1 0 -1 1 0 
1 0 0 1 0 
1 0 -1 1 0 
1 6.2831853071795862 -0 0 1 
1 0 -0 0 1 
1 0 8 1 0 
1 0 0 1 0 
1 0 -1 1 0 
1 0 0 1 0 
1 0 -1 1 0 
1 0 0 1 0 
1 0 -1 1 0 
1 0 0 1 0 
1 0 -1 1 0 
1 0 0 1 0 
1 0 -1 1 0 
1 6.2831853071795862 -0 0 1 
1 0 -0 0 1 
1 0 8 1 0 
1 0 0 1 0 
1 0 -1 1 0 
1 0 0 1 0 
1 0 -1 1 0 
1 0 0 1 0 
1 0 -1 1 0 
1 0 0 1 0 
1 0 -1 1 0 
1 0 0 1 0 
1 0 -1 1 0 
1 6.2831853071795862 -0 0 1 
1 0 -0 0 1 
1 0 8 1 0 
1 0 0 1 0 
1 0 -1 1 0 
1 0 0 1 0 
1 0 -1 1 0 
1 0 0 1 0 
1 0 -1 1 0 
1 0 0 1 0 
1 0 -1 1 0 
1 0 0 1 0 
1 0 -1 1 0 
1 6.2831853071795862 -0 0 1 
1 0 -0 0 1 
1 0 8 1 0 
1 0 0 1 0 
1 0 -1 1 0 
1 0 0 1 0 
1 0 -1 1 0 
1 0 0 1 0 
1 0 -1 1 0 
1 0 0 1 0 
1 0 -1 1 0 
1 0 0 1 0 
1 0 -1 1 0 
1 6.2831853071795862 -0 0 1 
1 0 -0 0 1 
1 0 8 1 0 
1 0 0 1 0 
1 0 -1 1 0 
1 0 0 1 0 
1 0 -1 1 0 
1 0 0 1 0 
1 0 -1 1 0 
1 0 0 1 0 
1 0 -1 1 0 
1 0 0 1 0 
1 0 -1 1 0 
1 6.2831853071795862 -0 0 1 
1 0 -0 0 1 
1 0 8 1 0 
1 0 0 1 0 
1 0 -1 1 0 
1 0 0 1 0 
1 0 -1 1 0 
1 0 0 1 0 
1 0 -1 1 0 
1 0 0 1 0 
1 0 -1 1 0 
1 0 0 1 0 
1 0 -1 1 0 
1 6.2831853071795862 -0 0 1 
1 0 -0 0 1 
Curves 165
1 -1.7763568394002505e-15 0 -3.5527136788005009e-15 0 0 1 
1 -1.7763568394002505e-15 0 17.999999999999996 0 1 0 
1 -1.7763568394002505e-15 1272.0999999999999 -3.5527136788005009e-15 0 0 1 
1 -1.7763568394002505e-15 0 -3.5527136788005009e-15 0 1 0 
1 -1.7763568394002505e-15 0 -3.5527136788005009e-15 1 0 0 
1 572 0 -3.5527136788005009e-15 0 0 1 
1 568 0 17.999999999999996 1 0 0 
1 568 1272.0999999999999 17.999999999999996 1 0 0 
1 572 0 17.999999999999996 0 1 0 
2 206 162 17.999999999999996 0 0 1 1 0 -0 -0 1 0 2.75
2 206 322 17.999999999999996 0 0 1 1 0 -0 -0 1 0 2.75
2 255.76800884315793 349.01351693160836 17.999999999999996 0 0 1 1 0 -0 -0 1 0 2.75
2 83.5 639.5 17.999999999999996 0 0 1 1 0 -0 -0 1 0 2.25
2 213.01351693160834 391.76800884315793 17.999999999999996 0 0 1 1 0 -0 -0 1 0 2.75
2 213.01351693160836 452.23199115684213 17.999999999999996 0 0 1 1 0 -0 -0 1 0 2.75
2 255.76800884315793 494.98648306839164 17.999999999999996 0 0 1 1 0 -0 -0 1 0 2.75
2 188.5 639.5 17.999999999999996 0 0 1 1 0 -0 -0 1 0 2.25
2 228 56 18.000000000000004 0 0 1 1 0 -0 -0 1 0 8
1 257 48 18.000000000000004 -1 0 0 
2 344 56 18.000000000000004 0 0 1 1 0 -0 -0 1 0 8
1 352 346.02500000000003 18.000000000000004 0 1 0 
2 344 128 18.000000000000004 0 0 1 1 0 -0 -0 1 0 8
1 257 136 18.000000000000004 -1 0 0 
2 228 128 18.000000000000004 0 0 1 1 0 -0 -0 1 0 8
1 220 346.02500000000003 18.000000000000004 0 1 0 
2 366 162 17.999999999999996 0 0 1 1 0 -0 -0 1 0 2.75
2 316.23199115684213 349.01351693160836 17.999999999999996 0 0 1 1 0 -0 -0 1 0 2.75
2 366 322 17.999999999999996 0 0 1 1 0 -0 -0 1 0 2.75
2 286 422 17.999999999999996 0 0 1 1 0 -0 -0 1 0 71.75
2 316.23199115684207 494.98648306839164 17.999999999999996 0 0 1 1 0 -0 -0 1 0 2.75
2 358.98648306839164 391.76800884315793 17.999999999999996 0 0 1 1 0 -0 -0 1 0 2.75
2 358.98648306839164 452.23199115684207 17.999999999999996 0 0 1 1 0 -0 -0 1 0 2.75
2 383.5 639.5 17.999999999999996 0 0 1 1 0 -0 -0 1 0 2.25
2 488.5 639.5 17.999999999999996 0 0 1 1 0 -0 -0 1 0 2.25
2 83.5 744.5 17.999999999999996 0 0 1 1 0 -0 -0 1 0 2.25
2 136 692 17.999999999999996 0 0 1 1 0 -0 -0 1 0 58
2 166 832 17.999999999999996 0 0 1 1 0 -0 -0 1 0 2.75
2 188.5 744.5 17.999999999999996 0 0 1 1 0 -0 -0 1 0 2.25
2 166 1252 17.999999999999996 0 0 1 1 0 -0 -0 1 0 2.75
2 383.5 744.5 17.999999999999996 0 0 1 1 0 -0 -0 1 0 2.25
2 436 692 17.999999999999996 0 0 1 1 0 -0 -0 1 0 58
2 488.5 744.5 17.999999999999996 0 0 1 1 0 -0 -0 1 0 2.25
2 406 832 17.999999999999996 0 0 1 1 0 -0 -0 1 0 2.75
2 406 1252 17.999999999999996 0 0 1 1 0 -0 -0 1 0 2.75
1 -1.7763568394002505e-15 1272.0999999999999 -3.5527136788005009e-15 1 0 0 
1 572 1272.0999999999999 -3.5527136788005009e-15 0 0 1 
1 572 0 -3.5527136788005009e-15 0 1 0 
2 366 162 -3.5527136788005009e-15 0 0 1 1 0 -0 -0 1 0 2.75
1 205.80000000000001 40 -3.5527136788005009e-15 0 1 0 
2 212 144 -3.5527136788005009e-15 0 0 1 1 0 -0 -0 1 0 6.2000000000000002
1 212 150.19999999999999 -3.5527136788005009e-15 1 0 0 
2 360.00000000000006 144 -3.5527136788005009e-15 0 0 1 1 0 -0 -0 1 0 6.2000000000000002
1 366.20000000000005 40 -3.5527136788005009e-15 0 1 0 
2 360.00000000000006 40 -3.5527136788005009e-15 0 0 1 1 0 -0 -0 1 0 6.2000000000000002
1 212 33.799999999999997 -3.5527136788005009e-15 1 0 0 
2 212 40 -3.5527136788005009e-15 0 0 1 1 0 -0 -0 1 0 6.2000000000000002
2 366 322 -3.5527136788005009e-15 0 0 1 1 0 -0 -0 1 0 2.75
2 506 622 -3.5527136788005009e-15 0 0 1 1 0 -0 -0 1 0 3
2 488.5 639.5 -3.5527136788005009e-15 0 0 1 1 0 -0 -0 1 0 2.25
2 358.98648306839164 391.76800884315793 -3.5527136788005009e-15 0 0 1 1 0 -0 -0 1 0 2.75
2 358.98648306839164 452.23199115684207 -3.5527136788005009e-15 0 0 1 1 0 -0 -0 1 0 2.75
2 316.23199115684213 349.01351693160836 -3.5527136788005009e-15 0 0 1 1 0 -0 -0 1 0 2.75
2 383.5 639.5 -3.5527136788005009e-15 0 0 1 1 0 -0 -0 1 0 2.25
2 366 622 -3.5527136788005009e-15 0 0 1 1 0 -0 -0 1 0 3
2 316.23199115684207 494.98648306839164 -3.5527136788005009e-15 0 0 1 1 0 -0 -0 1 0 2.75
2 206 162 -3.5527136788005009e-15 0 0 1 1 0 -0 -0 1 0 2.75
2 206 322 -3.5527136788005009e-15 0 0 1 1 0 -0 -0 1 0 2.75
2 255.76800884315793 349.01351693160836 -3.5527136788005009e-15 0 0 1 1 0 -0 -0 1 0 2.75
2 286 422 -3.5527136788005009e-15 0 0 1 1 0 -0 -0 1 0 71.75
2 213.01351693160834 391.76800884315793 -3.5527136788005009e-15 0 0 1 1 0 -0 -0 1 0 2.75
2 213.01351693160836 452.23199115684213 -3.5527136788005009e-15 0 0 1 1 0 -0 -0 1 0 2.75
2 255.76800884315793 494.98648306839164 -3.5527136788005009e-15 0 0 1 1 0 -0 -0 1 0 2.75
2 206 622 -3.5527136788005009e-15 0 0 1 1 0 -0 -0 1 0 3
2 188.5 639.5 -3.5527136788005009e-15 0 0 1 1 0 -0 -0 1 0 2.25
2 83.5 639.5 -3.5527136788005009e-15 0 0 1 1 0 -0 -0 1 0 2.25
2 66 622 -3.5527136788005009e-15 0 0 1 1 0 -0 -0 1 0 3
2 488.5 744.5 -3.5527136788005009e-15 0 0 1 1 0 -0 -0 1 0 2.25
2 506 762 -3.5527136788005009e-15 0 0 1 1 0 -0 -0 1 0 3
2 436 692 -3.5527136788005009e-15 0 0 1 1 0 -0 -0 1 0 58
2 406 832 -3.5527136788005009e-15 0 0 1 1 0 -0 -0 1 0 2.75
2 383.5 744.5 -3.5527136788005009e-15 0 0 1 1 0 -0 -0 1 0 2.25
2 366 762 -3.5527136788005009e-15 0 0 1 1 0 -0 -0 1 0 3
2 406 1252 -3.5527136788005009e-15 0 0 1 1 0 -0 -0 1 0 2.75
2 206 762 -3.5527136788005009e-15 0 0 1 1 0 -0 -0 1 0 3
2 188.5 744.5 -3.5527136788005009e-15 0 0 1 1 0 -0 -0 1 0 2.25
2 136 692 -3.5527136788005009e-15 0 0 1 1 0 -0 -0 1 0 58
2 83.5 744.5 -3.5527136788005009e-15 0 0 1 1 0 -0 -0 1 0 2.25
2 66 762 -3.5527136788005009e-15 0 0 1 1 0 -0 -0 1 0 3
2 166 832 -3.5527136788005009e-15 0 0 1 1 0 -0 -0 1 0 2.75
2 166 1252 -3.5527136788005009e-15 0 0 1 1 0 -0 -0 1 0 2.75
1 208.75 162 -1.0000000000000036 0 0 1 
1 208.75 322 -1.0000000000000036 0 0 1 
1 258.51800884315793 349.01351693160836 -1.0000000000000036 0 0 1 
1 85.75 639.5 -1.0000000000000036 0 0 1 
1 215.76351693160834 391.76800884315793 -1.0000000000000036 0 0 1 
1 215.76351693160836 452.23199115684213 -1.0000000000000036 0 0 1 
1 258.51800884315793 494.98648306839164 -1.0000000000000036 0 0 1 
1 190.75 639.5 -1.0000000000000036 0 0 1 
1 228 48 -1.0000000000000036 0 0 1 
2 228 56 2 0 0 1 1 0 -0 -0 1 0 8
1 220 56 -1.0000000000000036 0 0 1 
1 257.00000000000006 48 2 1 0 0 
1 344 48 -1.0000000000000036 0 0 1 
1 352 56 -1.0000000000000036 0 0 1 
2 344 56 2 0 0 1 1 0 -0 -0 1 0 8
1 352 128 -1.0000000000000036 0 0 1 
1 352 74.000000000000014 2 0 -1 0 
1 344 136 -1.0000000000000036 0 0 1 
2 344 128 2 0 0 1 1 0 -0 -0 1 0 8
1 257.00000000000006 136 2 1 0 0 
1 228 136 -1.0000000000000036 0 0 1 
1 220 128 -1.0000000000000036 0 0 1 
2 228 128 2 0 0 1 1 0 -0 -0 1 0 8
1 220 74.000000000000014 2 0 -1 0 
1 368.75 162 -1.0000000000000036 0 0 1 
1 318.98199115684213 349.01351693160836 -1.0000000000000036 0 0 1 
1 368.75 322 -1.0000000000000036 0 0 1 
1 357.75 421.99999999999994 -1.0000000000000036 0 0 1 
1 318.98199115684207 494.98648306839164 -1.0000000000000036 0 0 1 
1 361.73648306839164 391.76800884315793 -1.0000000000000036 0 0 1 
1 361.73648306839164 452.23199115684207 -1.0000000000000036 0 0 1 
1 385.75 639.5 -1.0000000000000036 0 0 1 
1 490.75 639.5 -1.0000000000000036 0 0 1 
1 85.75 744.5 -1.0000000000000036 0 0 1 
1 194 692 -1.0000000000000036 0 0 1 
1 168.75 832 -1.0000000000000036 0 0 1 
1 190.75 744.5 -1.0000000000000036 0 0 1 
1 168.75 1252 -1.0000000000000036 0 0 1 
1 385.75 744.5 -1.0000000000000036 0 0 1 
1 494 692 -1.0000000000000036 0 0 1 
1 490.75 744.5 -1.0000000000000036 0 0 1 
1 408.75 832 -1.0000000000000036 0 0 1 
1 408.75 1252 -1.0000000000000036 0 0 1 
1 205.80000000000001 40 -3.5527136788005009e-15 0 0 1 
1 205.80000000000001 40 1.9999999999999964 0 1 0 
1 205.80000000000001 144 -3.5527136788005009e-15 0 0 1 
2 212 144 1.9999999999999964 0 0 1 1 0 -0 -0 1 0 6.2000000000000002
1 212 150.19999999999999 -3.5527136788005009e-15 0 0 1 
1 360 150.19999999999999 -3.5527136788005009e-15 0 0 1 
1 212 150.19999999999999 1.9999999999999964 1 0 0 
2 360.00000000000006 144 1.9999999999999964 0 0 1 1 0 -0 -0 1 0 6.2000000000000002
1 366.20000000000005 144 -3.5527136788005009e-15 0 0 1 
1 366.20000000000005 40 -3.5527136788005009e-15 0 0 1 
1 366.20000000000005 40 1.9999999999999964 0 1 0 
2 360.00000000000006 40 1.9999999999999964 0 0 1 1 0 -0 -0 1 0 6.2000000000000002
1 360 33.799999999999997 -3.5527136788005009e-15 0 0 1 
1 212 33.799999999999997 1.9999999999999964 1 0 0 
1 212 33.799999999999997 -3.5527136788005009e-15 0 0 1 
2 212 40 1.9999999999999964 0 0 1 1 0 -0 -0 1 0 6.2000000000000002
2 506 622 7.9999999999999964 0 0 1 1 0 -0 -0 1 0 3
1 509 622 -3.5527136788005009e-15 0 0 1 
2 366 622 7.9999999999999964 0 0 1 1 0 -0 -0 1 0 3
1 369 622 -3.5527136788005009e-15 0 0 1 
2 206 622 7.9999999999999964 0 0 1 1 0 -0 -0 1 0 3
1 209 622 -3.5527136788005009e-15 0 0 1 
2 66 622 7.9999999999999964 0 0 1 1 0 -0 -0 1 0 3
1 69 622 -3.5527136788005009e-15 0 0 1 
2 506 762 7.9999999999999964 0 0 1 1 0 -0 -0 1 0 3
1 509 762 -3.5527136788005009e-15 0 0 1 
2 366 762 7.9999999999999964 0 0 1 1 0 -0 -0 1 0 3
1 369 762 -3.5527136788005009e-15 0 0 1 
2 206 762 7.9999999999999964 0 0 1 1 0 -0 -0 1 0 3
1 209 762 -3.5527136788005009e-15 0 0 1 
2 66 762 7.9999999999999964 0 0 1 1 0 -0 -0 1 0 3
1 69 762 -3.5527136788005009e-15 0 0 1 
Polygon3D 0
PolygonOnTriangulations 0
Surfaces 126
1 -1.7763568394002505e-15 0 -3.5527136788005009e-15 1 0 0 0 0 1 0 -1 0 
1 286 0 8.9999999999999964 -0 -1 -0 0 0 -1 1 -0 0 
1 286 636.05000000000007 18.000000000000004 0 0 1 1 0 -0 -0 1 0 
2 206 162 -1.0000000000000036 0 0 1 1 0 -0 -0 1 0 2.75
2 206 322 -1.0000000000000036 0 0 1 1 0 -0 -0 1 0 2.75
2 255.76800884315793 349.01351693160836 -1.0000000000000036 0 0 1 1 0 -0 -0 1 0 2.75
2 83.5 639.5 -1.0000000000000036 0 0 1 1 0 -0 -0 1 0 2.25
2 213.01351693160834 391.76800884315793 -1.0000000000000036 0 0 1 1 0 -0 -0 1 0 2.75
2 213.01351693160836 452.23199115684213 -1.0000000000000036 0 0 1 1 0 -0 -0 1 0 2.75
2 255.76800884315793 494.98648306839164 -1.0000000000000036 0 0 1 1 0 -0 -0 1 0 2.75
2 188.5 639.5 -1.0000000000000036 0 0 1 1 0 -0 -0 1 0 2.25
2 228 56 -1.0000000000000036 0 0 1 1 0 -0 -0 1 0 8
2 344 56 -1.0000000000000036 0 0 1 1 0 -0 -0 1 0 8
2 344 128 -1.0000000000000036 0 0 1 1 0 -0 -0 1 0 8
2 228 128 -1.0000000000000036 0 0 1 1 0 -0 -0 1 0 8
2 366 162 -1.0000000000000036 0 0 1 1 0 -0 -0 1 0 2.75
2 316.23199115684213 349.01351693160836 -1.0000000000000036 0 0 1 1 0 -0 -0 1 0 2.75
2 366 322 -1.0000000000000036 0 0 1 1 0 -0 -0 1 0 2.75
2 286 422 -1.0000000000000036 0 0 1 1 0 -0 -0 1 0 71.75
2 316.23199115684207 494.98648306839164 -1.0000000000000036 0 0 1 1 0 -0 -0 1 0 2.75
2 358.98648306839164 391.76800884315793 -1.0000000000000036 0 0 1 1 0 -0 -0 1 0 2.75
2 358.98648306839164 452.23199115684207 -1.0000000000000036 0 0 1 1 0 -0 -0 1 0 2.75
2 383.5 639.5 -1.0000000000000036 0 0 1 1 0 -0 -0 1 0 2.25
2 488.5 639.5 -1.0000000000000036 0 0 1 1 0 -0 -0 1 0 2.25
2 83.5 744.5 -1.0000000000000036 0 0 1 1 0 -0 -0 1 0 2.25
2 136 692 -1.0000000000000036 0 0 1 1 0 -0 -0 1 0 58
2 166 832 -1.0000000000000036 0 0 1 1 0 -0 -0 1 0 2.75
2 188.5 744.5 -1.0000000000000036 0 0 1 1 0 -0 -0 1 0 2.25
2 166 1252 -1.0000000000000036 0 0 1 1 0 -0 -0 1 0 2.75
2 383.5 744.5 -1.0000000000000036 0 0 1 1 0 -0 -0 1 0 2.25
2 436 692 -1.0000000000000036 0 0 1 1 0 -0 -0 1 0 58
2 488.5 744.5 -1.0000000000000036 0 0 1 1 0 -0 -0 1 0 2.25
2 406 832 -1.0000000000000036 0 0 1 1 0 -0 -0 1 0 2.75
2 406 1252 -1.0000000000000036 0 0 1 1 0 -0 -0 1 0 2.75
1 286 1272.0999999999997 8.9999999999999964 0 1 0 0 -0 1 1 0 -0 
1 286 636.04999999999984 0 -0 -0 -1 -1 0 0 0 1 -0 
2 212 144 -3.5527136788005009e-15 0 0 1 1 0 -0 -0 1 0 6.2000000000000002
2 360.00000000000006 144 -3.5527136788005009e-15 0 0 1 1 0 -0 -0 1 0 6.2000000000000002
2 360.00000000000006 40 -3.5527136788005009e-15 0 0 1 1 0 -0 -0 1 0 6.2000000000000002
2 212 40 -3.5527136788005009e-15 0 0 1 1 0 -0 -0 1 0 6.2000000000000002
2 506 622 -3.5527136788005009e-15 0 0 1 1 0 -0 -0 1 0 3
2 366 622 -3.5527136788005009e-15 0 0 1 1 0 -0 -0 1 0 3
2 206 622 -3.5527136788005009e-15 0 0 1 1 0 -0 -0 1 0 3
2 66 622 -3.5527136788005009e-15 0 0 1 1 0 -0 -0 1 0 3
2 506 762 -3.5527136788005009e-15 0 0 1 1 0 -0 -0 1 0 3
2 366 762 -3.5527136788005009e-15 0 0 1 1 0 -0 -0 1 0 3
2 206 762 -3.5527136788005009e-15 0 0 1 1 0 -0 -0 1 0 3
2 66 762 -3.5527136788005009e-15 0 0 1 1 0 -0 -0 1 0 3
1 572 0 -3.5527136788005009e-15 1 0 0 0 0 1 0 -1 0 
1 228 48 -1.0000000000000036 0 1 0 0 -0 1 1 0 -0 
1 352 56 -1.0000000000000036 1 0 0 0 0 1 0 -1 0 
1 228 136 -1.0000000000000036 0 1 0 0 -0 1 1 0 -0 
1 220 56 -1.0000000000000036 1 0 0 0 0 1 0 -1 0 
1 205.80000000000001 40 -3.5527136788005009e-15 1 0 0 0 0 1 0 -1 0 
2 212 144 -3.5527136788005009e-15 -0 -0 -1 1 0 0 -0 1 -0 6.2000000000000002
2 212 144 -3.5527136788005009e-15 -0 -0 -1 1 0 0 -0 1 -0 6.2000000000000002
2 212 144 -3.5527136788005009e-15 -0 -0 -1 1 0 0 -0 1 -0 6.2000000000000002
2 212 144 -3.5527136788005009e-15 -0 -0 -1 1 0 0 -0 1 -0 6.2000000000000002
2 212 144 -3.5527136788005009e-15 -0 -0 -1 1 0 0 0 1 0 6.2000000000000002
1 212 150.19999999999999 -3.5527136788005009e-15 0 1 0 0 -0 1 1 0 -0 
2 360.00000000000006 144 -3.5527136788005009e-15 -0 -0 -1 1 0 0 -0 1 -0 6.2000000000000002
2 360.00000000000006 144 -3.5527136788005009e-15 -0 -0 -1 1 0 0 -0 1 -0 6.2000000000000002
2 360.00000000000006 144 -3.5527136788005009e-15 -0 -0 -1 1 0 0 -0 1 -0 6.2000000000000002
2 360.00000000000006 144 -3.5527136788005009e-15 -0 -0 -1 1 0 0 -0 1 -0 6.2000000000000002
2 360.00000000000006 144 -3.5527136788005009e-15 -0 -0 -1 1 0 0 0 1 0 6.2000000000000002
1 366.20000000000005 40 -3.5527136788005009e-15 1 0 0 0 0 1 0 -1 0 
2 360.00000000000006 40 -3.5527136788005009e-15 -0 -0 -1 1 0 0 -0 1 -0 6.2000000000000002
2 360.00000000000006 40 -3.5527136788005009e-15 -0 -0 -1 1 0 0 -0 1 -0 6.2000000000000002
2 360.00000000000006 40 -3.5527136788005009e-15 -0 -0 -1 1 0 0 -0 1 -0 6.2000000000000002
2 360.00000000000006 40 -3.5527136788005009e-15 -0 -0 -1 1 0 0 -0 1 -0 6.2000000000000002
2 360.00000000000006 40 -3.5527136788005009e-15 -0 -0 -1 1 0 0 0 1 0 6.2000000000000002
1 212 33.799999999999997 -3.5527136788005009e-15 0 1 0 0 -0 1 1 0 -0 
2 212 40 -3.5527136788005009e-15 -0 -0 -1 1 0 0 -0 1 -0 6.2000000000000002
2 212 40 -3.5527136788005009e-15 -0 -0 -1 1 0 0 -0 1 -0 6.2000000000000002
2 212 40 -3.5527136788005009e-15 -0 -0 -1 1 0 0 -0 1 -0 6.2000000000000002
2 212 40 -3.5527136788005009e-15 -0 -0 -1 1 0 0 -0 1 -0 6.2000000000000002
2 212 40 -3.5527136788005009e-15 -0 -0 -1 1 0 0 0 1 0 6.2000000000000002
2 506 622 8.8817841970012523e-16 -0 -0 -1 1 0 0 -0 1 -0 3
2 506 622 8.8817841970012523e-16 -0 -0 -1 1 0 0 -0 1 -0 3
2 506 622 8.8817841970012523e-16 -0 -0 -1 1 0 0 -0 1 -0 3
2 506 622 8.8817841970012523e-16 -0 -0 -1 1 0 0 -0 1 -0 3
2 506 622 8.8817841970012523e-16 -0 -0 -1 1 0 0 0 1 0 3
2 366 622 8.8817841970012523e-16 -0 -0 -1 1 0 0 -0 1 -0 3
2 366 622 8.8817841970012523e-16 -0 -0 -1 1 0 0 -0 1 -0 3
2 366 622 8.8817841970012523e-16 -0 -0 -1 1 0 0 -0 1 -0 3
2 366 622 8.8817841970012523e-16 -0 -0 -1 1 0 0 -0 1 -0 3
2 366 622 8.8817841970012523e-16 -0 -0 -1 1 0 0 0 1 0 3
2 206 622 8.8817841970012523e-16 -0 -0 -1 1 0 0 -0 1 -0 3
2 206 622 8.8817841970012523e-16 -0 -0 -1 1 0 0 -0 1 -0 3
2 206 622 8.8817841970012523e-16 -0 -0 -1 1 0 0 -0 1 -0 3
2 206 622 8.8817841970012523e-16 -0 -0 -1 1 0 0 -0 1 -0 3
2 206 622 8.8817841970012523e-16 -0 -0 -1 1 0 0 0 1 0 3
2 66 622 8.8817841970012523e-16 -0 -0 -1 1 0 0 -0 1 -0 3
2 66 622 8.8817841970012523e-16 -0 -0 -1 1 0 0 -0 1 -0 3
2 66 622 8.8817841970012523e-16 -0 -0 -1 1 0 0 -0 1 -0 3
2 66 622 8.8817841970012523e-16 -0 -0 -1 1 0 0 -0 1 -0 3
2 66 622 8.8817841970012523e-16 -0 -0 -1 1 0 0 0 1 0 3
2 506 762 8.8817841970012523e-16 -0 -0 -1 1 0 0 -0 1 -0 3
2 506 762 8.8817841970012523e-16 -0 -0 -1 1 0 0 -0 1 -0 3
2 506 762 8.8817841970012523e-16 -0 -0 -1 1 0 0 -0 1 -0 3
2 506 762 8.8817841970012523e-16 -0 -0 -1 1 0 0 -0 1 -0 3
2 506 762 8.8817841970012523e-16 -0 -0 -1 1 0 0 0 1 0 3
2 366 762 8.8817841970012523e-16 -0 -0 -1 1 0 0 -0 1 -0 3
2 366 762 8.8817841970012523e-16 -0 -0 -1 1 0 0 -0 1 -0 3
2 366 762 8.8817841970012523e-16 -0 -0 -1 1 0 0 -0 1 -0 3
2 366 762 8.8817841970012523e-16 -0 -0 -1 1 0 0 -0 1 -0 3
2 366 762 8.8817841970012523e-16 -0 -0 -1 1 0 0 0 1 0 3
2 206 762 8.8817841970012523e-16 -0 -0 -1 1 0 0 -0 1 -0 3
2 206 762 8.8817841970012523e-16 -0 -0 -1 1 0 0 -0 1 -0 3
2 206 762 8.8817841970012523e-16 -0 -0 -1 1 0 0 -0 1 -0 3
2 206 762 8.8817841970012523e-16 -0 -0 -1 1 0 0 -0 1 -0 3
2 206 762 8.8817841970012523e-16 -0 -0 -1 1 0 0 0 1 0 3
2 66 762 8.8817841970012523e-16 -0 -0 -1 1 0 0 -0 1 -0 3
2 66 762 8.8817841970012523e-16 -0 -0 -1 1 0 0 -0 1 -0 3
2 66 762 8.8817841970012523e-16 -0 -0 -1 1 0 0 -0 1 -0 3
2 66 762 8.8817841970012523e-16 -0 -0 -1 1 0 0 -0 1 -0 3
2 66 762 8.8817841970012523e-16 -0 -0 -1 1 0 0 0 1 0 3
1 286.00000000000011 92.000000000000028 2 0 0 1 1 0 -0 -0 1 0 
1 506 622 7.9999999999999964 0 0 1 1 0 -0 -0 1 0 
1 366 622 7.9999999999999964 0 0 1 1 0 -0 -0 1 0 
1 206 622 7.9999999999999964 0 0 1 1 0 -0 -0 1 0 
1 66 622 7.9999999999999964 0 0 1 1 0 -0 -0 1 0 
1 506 762 7.9999999999999964 0 0 1 1 0 -0 -0 1 0 
1 366 762 7.9999999999999964 0 0 1 1 0 -0 -0 1 0 
1 206 762 7.9999999999999964 0 0 1 1 0 -0 -0 1 0 
1 66 762 7.9999999999999964 0 0 1 1 0 -0 -0 1 0 
Triangulations 0

TShapes 475
Ve
1e-07
-1.77635683940025e-15 0 18
0 0

0101101
*
Ve
1e-07
-1.77635683940025e-15 0 -3.5527136788005e-15
0 0

0101101
*
Ed
 1e-07 1 1 0
1  1 0 0 18
0

0101000
-475 3 +474 3 *
Ve
1.00000011e-07
-1.77635683940025e-15 1272.1 18
0 0

0101101
*
Ed
 1e-07 1 1 0
1  2 0 0 1272.1
0

0101000
-472 3 +475 3 *
Ve
1.00000011e-07
-1.77635683940025e-15 1272.1 -3.5527136788005e-15
0 0

0101101
*
Ed
 1.00000011e-07 1 1 0
1  3 0 0 18
0

0101000
-472 3 +470 3 *
Ed
 1e-07 1 1 0
1  4 0 0 1272.1
0

0101000
-470 3 +474 3 *
Wi

0101100
-473 0 -471 0 +469 0 +468 0 *
Fa
0  1e-07 1 0

0111000
+467 0 *
Ve
1e-07
572 0 -3.5527136788005e-15
0 0

0101101
*
Ed
 1e-07 1 1 0
1  5 0 0 572
0

0101000
+474 3 -465 3 *
Ve
1e-07
572 0 18
0 0

0101101
*
Ed
 1e-07 1 1 0
1  6 0 0 18
0

0101000
-463 3 +465 3 *
Ed
 1e-07 1 1 0
1  7 0 -568 4
0

0101000
+475 3 -463 3 *
Wi

0101000
-473 0 +464 0 +462 0 -461 0 *
Fa
0  1e-07 2 0

0111000
+460 0 *
Ve
1.00000032e-07
572 1272.1 18
0 0

0101101
*
Ed
 1e-07 1 1 0
1  8 0 -568 4
0

0101000
+472 3 -458 3 *
Ed
 1e-07 1 1 0
1  9 0 0 1272.1
0

0101000
-458 3 +463 3 *
Wi

0101100
-471 2 -457 2 +461 2 +456 2 *
Ve
1e-07
208.75 162 18
0 0

0101101
*
Ed
 1e-07 1 1 0
1  10 0 0 6.28318530717959
2  1 4 0 0 6.28318530717959
0

0101100
+454 7 -454 7 *
Wi

0101100
-453 6 *
Ve
1e-07
208.75 322 18
0 0

0101101
*
Ed
 1e-07 1 1 0
1  11 0 0 6.28318530717959
2  2 5 0 0 6.28318530717959
0

0101100
+451 7 -451 7 *
Wi

0101100
-450 6 *
Ve
1e-07
258.518008843158 349.013516931608 18
0 0

0101101
*
Ed
 1e-07 1 1 0
1  12 0 0 6.28318530717959
2  3 6 0 0 6.28318530717959
0

0101100
+448 7 -448 7 *
Wi

0101100
-447 6 *
Ve
1e-07
85.75 639.5 18
0 0

0101101
*
Ed
 1e-07 1 1 0
1  13 0 0 6.28318530717959
2  4 7 0 0 6.28318530717959
0

0101100
+445 9 -445 9 *
Wi

0101100
-444 8 *
Ve
1e-07
215.763516931608 391.768008843158 18
0 0

0101101
*
Ed
 1e-07 1 1 0
1  14 0 0 6.28318530717959
2  5 8 0 0 6.28318530717959
0

0101100
+442 7 -442 7 *
Wi

0101100
-441 6 *
Ve
1e-07
215.763516931608 452.231991156842 18
0 0

0101101
*
Ed
 1e-07 1 1 0
1  15 0 0 6.28318530717959
2  6 9 0 0 6.28318530717959
0

0101100
+439 7 -439 7 *
Wi

0101100
-438 6 *
Ve
1e-07
258.518008843158 494.986483068392 18
0 0

0101101
*
Ed
 1e-07 1 1 0
1  16 0 0 6.28318530717959
2  7 10 0 0 6.28318530717959
0

0101100
+436 7 -436 7 *
Wi

0101100
-435 6 *
Ve
1e-07
190.75 639.5 18
0 0

0101101
*
Ed
 1e-07 1 1 0
1  17 0 0 6.28318530717959
2  8 11 0 0 6.28318530717959
0

0101100
+433 9 -433 9 *
Wi

0101100
-432 8 *
Ve
1.5e-07
220 56 18
0 0

0101101
*
Ve
1.5e-07
228 48 18
0 0

0101101
*
Ed
 1e-07 1 1 0
1  18 0 3.14159265358979 4.71238898038469
2  9 12 0 3.14159265358979 4.71238898038469
0

0101000
+430 0 -429 0 *
Ve
1.5e-07
344 48 18
0 0

0101101
*
Ed
 1.5e-07 1 1 0
1  19 0 -87 29
0

0101000
+427 0 -429 0 *
Ve
1.5e-07
352 56 18
0 0

0101101
*
Ed
 1e-07 1 1 0
1  20 0 4.71238898038469 6.28318530717959
2  10 13 0 4.71238898038469 6.28318530717959
0

0101000
+427 0 -425 0 *
Ve
1.5e-07
352 128 18
0 0

0101101
*
Ed
 1.5e-07 1 1 0
1  21 0 -290.025 -218.025
0

0101000
+425 0 -423 0 *
Ve
1.5e-07
344 136 18
0 0

0101101
*
Ed
 1e-07 1 1 0
1  22 0 0 1.5707963267949
2  11 14 0 0 1.5707963267949
0

0101000
+423 0 -421 0 *
Ve
1.5e-07
228 136 18
0 0

0101101
*
Ed
 1.5e-07 1 1 0
1  23 0 -87 29
0

0101000
+421 0 -419 0 *
Ve
1.5e-07
220 128 18
0 0

0101101
*
Ed
 1e-07 1 1 0
1  24 0 1.5707963267949 3.14159265358979
2  12 15 0 1.5707963267949 3.14159265358979
0

0101000
+419 0 -417 0 *
Ed
 1.5e-07 1 1 0
1  25 0 -290.025 -218.025
0

0101000
+430 0 -417 0 *
Wi

0101100
-428 0 +426 0 -424 0 -422 0 -420 0 -418 0 -416 0 +415 0 *
Ve
1e-07
368.75 162 18
0 0

0101101
*
Ed
 1e-07 1 1 0
1  26 0 0 6.28318530717959
2  13 16 0 0 6.28318530717959
0

0101100
+413 7 -413 7 *
Wi

0101100
-412 6 *
Ve
1e-07
318.981991156842 349.013516931608 18
0 0

0101101
*
Ed
 1e-07 1 1 0
1  27 0 0 6.28318530717959
2  14 17 0 0 6.28318530717959
0

0101100
+410 7 -410 7 *
Wi

0101100
-409 6 *
Ve
1e-07
368.75 322 18
0 0

0101101
*
Ed
 1e-07 1 1 0
1  28 0 0 6.28318530717959
2  15 18 0 0 6.28318530717959
0

0101100
+407 7 -407 7 *
Wi

0101100
-406 6 *
Ve
1.00000057e-07
357.75 422 18
0 0

0101101
*
Ed
 1e-07 1 1 0
1  29 0 0 6.28318530717959
2  16 19 0 0 6.28318530717959
0

0101100
+404 7 -404 7 *
Wi

0101100
-403 6 *
Ve
1e-07
318.981991156842 494.986483068392 18
0 0

0101101
*
Ed
 1e-07 1 1 0
1  30 0 0 6.28318530717959
2  17 20 0 0 6.28318530717959
0

0101100
+401 7 -401 7 *
Wi

0101100
-400 6 *
Ve
1e-07
361.736483068392 391.768008843158 18
0 0

0101101
*
Ed
 1e-07 1 1 0
1  31 0 0 6.28318530717959
2  18 21 0 0 6.28318530717959
0

0101100
+398 7 -398 7 *
Wi

0101100
-397 6 *
Ve
1e-07
361.736483068392 452.231991156842 18
0 0

0101101
*
Ed
 1e-07 1 1 0
1  32 0 0 6.28318530717959
2  19 22 0 0 6.28318530717959
0

0101100
+395 7 -395 7 *
Wi

0101100
-394 6 *
Ve
1e-07
385.75 639.5 18
0 0

0101101
*
Ed
 1e-07 1 1 0
1  33 0 0 6.28318530717959
2  20 23 0 0 6.28318530717959
0

0101100
+392 9 -392 9 *
Wi

0101100
-391 8 *
Ve
1e-07
490.75 639.5 18
0 0

0101101
*
Ed
 1e-07 1 1 0
1  34 0 0 6.28318530717959
2  21 24 0 0 6.28318530717959
0

0101100
+389 9 -389 9 *
Wi

0101100
-388 8 *
Ve
1e-07
85.75 744.5 18
0 0

0101101
*
Ed
 1e-07 1 1 0
1  35 0 0 6.28318530717959
2  22 25 0 0 6.28318530717959
0

0101100
+386 9 -386 9 *
Wi

0101100
-385 8 *
Ve
1e-07
194 692 18
0 0

0101101
*
Ed
 1e-07 1 1 0
1  36 0 0 6.28318530717959
2  23 26 0 0 6.28318530717959
0

0101100
+383 9 -383 9 *
Wi

0101100
-382 8 *
Ve
1e-07
168.75 832 18
0 0

0101101
*
Ed
 1e-07 1 1 0
1  37 0 0 6.28318530717959
2  24 27 0 0 6.28318530717959
0

0101100
+380 7 -380 7 *
Wi

0101100
-379 6 *
Ve
1e-07
190.75 744.5 18
0 0

0101101
*
Ed
 1e-07 1 1 0
1  38 0 0 6.28318530717959
2  25 28 0 0 6.28318530717959
0

0101100
+377 9 -377 9 *
Wi

0101100
-376 8 *
Ve
1e-07
168.75 1252 18
0 0

0101101
*
Ed
 1e-07 1 1 0
1  39 0 0 6.28318530717959
2  26 29 0 0 6.28318530717959
0

0101100
+374 7 -374 7 *
Wi

0101100
-373 6 *
Ve
1e-07
385.75 744.5 18
0 0

0101101
*
Ed
 1e-07 1 1 0
1  40 0 0 6.28318530717959
2  27 30 0 0 6.28318530717959
0

0101100
+371 9 -371 9 *
Wi

0101100
-370 8 *
Ve
1e-07
494 692 18
0 0

0101101
*
Ed
 1e-07 1 1 0
1  41 0 0 6.28318530717959
2  28 31 0 0 6.28318530717959
0

0101100
+368 9 -368 9 *
Wi

0101100
-367 8 *
Ve
1e-07
490.75 744.5 18
0 0

0101101
*
Ed
 1e-07 1 1 0
1  42 0 0 6.28318530717959
2  29 32 0 0 6.28318530717959
0

0101100
+365 9 -365 9 *
Wi

0101100
-364 8 *
Ve
1e-07
408.75 832 18
0 0

0101101
*
Ed
 1e-07 1 1 0
1  43 0 0 6.28318530717959
2  30 33 0 0 6.28318530717959
0

0101100
+362 7 -362 7 *
Wi

0101100
-361 6 *
Ve
1e-07
408.75 1252 18
0 0

0101101
*
Ed
 1e-07 1 1 0
1  44 0 0 6.28318530717959
2  31 34 0 0 6.28318530717959
0

0101100
+359 7 -359 7 *
Wi

0101100
-358 6 *
Fa
0  1e-07 3 2

0111000
+455 0 +452 0 +449 0 +446 0 +443 0 +440 0 +437 0 +434 0 +431 0 +414 0 
+411 0 +408 0 +405 0 +402 0 +399 0 +396 0 +393 0 +390 0 +387 0 +384 0 
+381 0 +378 0 +375 0 +372 0 +369 0 +366 0 +363 0 +360 0 +357 0 *
Ve
1.00000032e-07
572 1272.1 -3.5527136788005e-15
0 0

0101101
*
Ed
 1e-07 1 1 0
1  45 0 0 572
0

0101000
+470 3 -355 3 *
Ed
 1.00000032e-07 1 1 0
1  46 0 0 18
0

0101000
-458 3 +355 3 *
Wi

0101000
-354 0 +469 0 +457 0 -353 0 *
Fa
0  1e-07 35 0

0111000
+352 0 *
Ed
 1e-07 1 1 0
1  47 0 0 1272.1
0

0101000
-355 3 +465 3 *
Wi

0101100
-464 2 +468 2 -350 2 +354 2 *
Ve
1e-07
368.75 162 -3.5527136788005e-15
0 0

0101101
*
Ed
 1e-07 1 1 0
1  48 0 0 6.28318530717959
2  32 16 0 0 6.28318530717959
0

0101100
+348 7 -348 7 *
Wi

0101100
+347 6 *
Ve
3.86282245301572e-07
205.8 40 -3.5527136788005e-15
0 0

0101101
*
Ve
3.86282238196145e-07
205.8 144 -3.5527136788005e-15
0 0

0101101
*
Ed
 1.00000003552714e-07 1 1 0
1  49 0 0 104
0

0101000
+345 0 -344 0 *
Ve
3.86282238196145e-07
212 150.2 -3.5527136788005e-15
0 0

0101101
*
Ed
 1.00000003552714e-07 1 1 0
1  50 0 1.5707963267949 3.14159265358979
2  33 37 0 1.5707963267949 3.14159265358979
0

0101000
+342 0 -344 0 *
Ve
3.86282181352726e-07
360 150.2 -3.5527136788005e-15
0 0

0101101
*
Ed
 1.00000003552714e-07 1 1 0
1  51 0 0 148
0

0101000
+342 0 -340 0 *
Ve
3.86282238196145e-07
366.2 144 -3.5527136788005e-15
0 0

0101101
*
Ed
 1.00000003552714e-07 1 1 0
1  52 0 0 1.57079632679491
2  34 38 0 0 1.57079632679491
0

0101000
+338 0 -340 0 *
Ve
3.86282245301572e-07
366.2 40 -3.5527136788005e-15
0 0

0101101
*
Ed
 1.00000003552714e-07 1 1 0
1  53 0 0 104
0

0101000
+336 0 -338 0 *
Ve
1.00000022484892e-07
360 33.8 -3.5527136788005e-15
0 0

0101101
*
Ed
 1.00000003552714e-07 1 1 0
1  54 0 4.71238898038468 6.28318530717959
2  35 39 0 4.71238898038468 6.28318530717959
0

0101000
+334 0 -336 0 *
Ve
1.00000003552714e-07
212 33.8 -3.5527136788005e-15
0 0

0101101
*
Ed
 1.00000003552714e-07 1 1 0
1  55 0 0 148
0

0101000
+332 0 -334 0 *
Ed
 1.00000003552714e-07 1 1 0
1  56 0 3.14159265358979 4.71238898038469
2  36 40 0 3.14159265358979 4.71238898038469
0

0101000
+345 0 -332 0 *
Wi

0101100
-343 0 +341 0 -339 0 +337 0 +335 0 +333 0 +331 0 +330 0 *
Ve
1e-07
368.75 322 -3.5527136788005e-15
0 0

0101101
*
Ed
 1e-07 1 1 0
1  57 0 0 6.28318530717959
2  37 18 0 0 6.28318530717959
0

0101100
+328 7 -328 7 *
Wi

0101100
+327 6 *
Ve
1e-07
509 622 -3.5527136788005e-15
0 0

0101101
*
Ed
 1e-07 1 1 0
1  58 0 0 6.28318530717959
2  38 41 0 0 6.28318530717959
0

0101000
+325 9 -325 9 *
Wi

0101100
+324 8 *
Ve
1e-07
490.75 639.5 -3.5527136788005e-15
0 0

0101101
*
Ed
 1e-07 1 1 0
1  59 0 0 6.28318530717959
2  39 24 0 0 6.28318530717959
0

0101100
+322 9 -322 9 *
Wi

0101100
+321 8 *
Ve
1e-07
361.736483068392 391.768008843158 -3.5527136788005e-15
0 0

0101101
*
Ed
 1e-07 1 1 0
1  60 0 0 6.28318530717959
2  40 21 0 0 6.28318530717959
0

0101100
+319 7 -319 7 *
Wi

0101100
+318 6 *
Ve
1e-07
361.736483068392 452.231991156842 -3.5527136788005e-15
0 0

0101101
*
Ed
 1e-07 1 1 0
1  61 0 0 6.28318530717959
2  41 22 0 0 6.28318530717959
0

0101100
+316 7 -316 7 *
Wi

0101100
+315 6 *
Ve
1e-07
318.981991156842 349.013516931608 -3.5527136788005e-15
0 0

0101101
*
Ed
 1e-07 1 1 0
1  62 0 0 6.28318530717959
2  42 17 0 0 6.28318530717959
0

0101100
+313 7 -313 7 *
Wi

0101100
+312 6 *
Ve
1e-07
385.75 639.5 -3.5527136788005e-15
0 0

0101101
*
Ed
 1e-07 1 1 0
1  63 0 0 6.28318530717959
2  43 23 0 0 6.28318530717959
0

0101100
+310 9 -310 9 *
Wi

0101100
+309 8 *
Ve
1e-07
369 622 -3.5527136788005e-15
0 0

0101101
*
Ed
 1e-07 1 1 0
1  64 0 0 6.28318530717959
2  44 42 0 0 6.28318530717959
0

0101000
+307 9 -307 9 *
Wi

0101100
+306 8 *
Ve
1e-07
318.981991156842 494.986483068392 -3.5527136788005e-15
0 0

0101101
*
Ed
 1e-07 1 1 0
1  65 0 0 6.28318530717959
2  45 20 0 0 6.28318530717959
0

0101100
+304 7 -304 7 *
Wi

0101100
+303 6 *
Ve
1e-07
208.75 162 -3.5527136788005e-15
0 0

0101101
*
Ed
 1e-07 1 1 0
1  66 0 0 6.28318530717959
2  46 4 0 0 6.28318530717959
0

0101100
+301 7 -301 7 *
Wi

0101100
+300 6 *
Ve
1e-07
208.75 322 -3.5527136788005e-15
0 0

0101101
*
Ed
 1e-07 1 1 0
1  67 0 0 6.28318530717959
2  47 5 0 0 6.28318530717959
0

0101100
+298 7 -298 7 *
Wi

0101100
+297 6 *
Ve
1e-07
258.518008843158 349.013516931608 -3.5527136788005e-15
0 0

0101101
*
Ed
 1e-07 1 1 0
1  68 0 0 6.28318530717959
2  48 6 0 0 6.28318530717959
0

0101100
+295 7 -295 7 *
Wi

0101100
+294 6 *
Ve
1.00000057e-07
357.75 422 -3.5527136788005e-15
0 0

0101101
*
Ed
 1e-07 1 1 0
1  69 0 0 6.28318530717959
2  49 19 0 0 6.28318530717959
0

0101100
+292 7 -292 7 *
Wi

0101100
+291 6 *
Ve
1e-07
215.763516931608 391.768008843158 -3.5527136788005e-15
0 0

0101101
*
Ed
 1e-07 1 1 0
1  70 0 0 6.28318530717959
2  50 8 0 0 6.28318530717959
0

0101100
+289 7 -289 7 *
Wi

0101100
+288 6 *
Ve
1e-07
215.763516931608 452.231991156842 -3.5527136788005e-15
0 0

0101101
*
Ed
 1e-07 1 1 0
1  71 0 0 6.28318530717959
2  51 9 0 0 6.28318530717959
0

0101100
+286 7 -286 7 *
Wi

0101100
+285 6 *
Ve
1e-07
258.518008843158 494.986483068392 -3.5527136788005e-15
0 0

0101101
*
Ed
 1e-07 1 1 0
1  72 0 0 6.28318530717959
2  52 10 0 0 6.28318530717959
0

0101100
+283 7 -283 7 *
Wi

0101100
+282 6 *
Ve
1e-07
209 622 -3.5527136788005e-15
0 0

0101101
*
Ed
 1e-07 1 1 0
1  73 0 0 6.28318530717959
2  53 43 0 0 6.28318530717959
0

0101000
+280 9 -280 9 *
Wi

0101100
+279 8 *
Ve
1e-07
190.75 639.5 -3.5527136788005e-15
0 0

0101101
*
Ed
 1e-07 1 1 0
1  74 0 0 6.28318530717959
2  54 11 0 0 6.28318530717959
0

0101100
+277 9 -277 9 *
Wi

0101100
+276 8 *
Ve
1e-07
85.75 639.5 -3.5527136788005e-15
0 0

0101101
*
Ed
 1e-07 1 1 0
1  75 0 0 6.28318530717959
2  55 7 0 0 6.28318530717959
0

0101100
+274 9 -274 9 *
Wi

0101100
+273 8 *
Ve
1e-07
69 622 -3.5527136788005e-15
0 0

0101101
*
Ed
 1e-07 1 1 0
1  76 0 0 6.28318530717959
2  56 44 0 0 6.28318530717959
0

0101000
+271 9 -271 9 *
Wi

0101100
+270 8 *
Ve
1e-07
490.75 744.5 -3.5527136788005e-15
0 0

0101101
*
Ed
 1e-07 1 1 0
1  77 0 0 6.28318530717959
2  57 32 0 0 6.28318530717959
0

0101100
+268 9 -268 9 *
Wi

0101100
+267 8 *
Ve
1e-07
509 762 -3.5527136788005e-15
0 0

0101101
*
Ed
 1e-07 1 1 0
1  78 0 0 6.28318530717959
2  58 45 0 0 6.28318530717959
0

0101000
+265 9 -265 9 *
Wi

0101100
+264 8 *
Ve
1e-07
494 692 -3.5527136788005e-15
0 0

0101101
*
Ed
 1e-07 1 1 0
1  79 0 0 6.28318530717959
2  59 31 0 0 6.28318530717959
0

0101100
+262 9 -262 9 *
Wi

0101100
+261 8 *
Ve
1e-07
408.75 832 -3.5527136788005e-15
0 0

0101101
*
Ed
 1e-07 1 1 0
1  80 0 0 6.28318530717959
2  60 33 0 0 6.28318530717959
0

0101100
+259 7 -259 7 *
Wi

0101100
+258 6 *
Ve
1e-07
385.75 744.5 -3.5527136788005e-15
0 0

0101101
*
Ed
 1e-07 1 1 0
1  81 0 0 6.28318530717959
2  61 30 0 0 6.28318530717959
0

0101100
+256 9 -256 9 *
Wi

0101100
+255 8 *
Ve
1e-07
369 762 -3.5527136788005e-15
0 0

0101101
*
Ed
 1e-07 1 1 0
1  82 0 0 6.28318530717959
2  62 46 0 0 6.28318530717959
0

0101000
+253 9 -253 9 *
Wi

0101100
+252 8 *
Ve
1e-07
408.75 1252 -3.5527136788005e-15
0 0

0101101
*
Ed
 1e-07 1 1 0
1  83 0 0 6.28318530717959
2  63 34 0 0 6.28318530717959
0

0101100
+250 7 -250 7 *
Wi

0101100
+249 6 *
Ve
1e-07
209 762 -3.5527136788005e-15
0 0

0101101
*
Ed
 1e-07 1 1 0
1  84 0 0 6.28318530717959
2  64 47 0 0 6.28318530717959
0

0101000
+247 9 -247 9 *
Wi

0101100
+246 8 *
Ve
1e-07
190.75 744.5 -3.5527136788005e-15
0 0

0101101
*
Ed
 1e-07 1 1 0
1  85 0 0 6.28318530717959
2  65 28 0 0 6.28318530717959
0

0101100
+244 9 -244 9 *
Wi

0101100
+243 8 *
Ve
1e-07
194 692 -3.5527136788005e-15
0 0

0101101
*
Ed
 1e-07 1 1 0
1  86 0 0 6.28318530717959
2  66 26 0 0 6.28318530717959
0

0101100
+241 9 -241 9 *
Wi

0101100
+240 8 *
Ve
1e-07
85.75 744.5 -3.5527136788005e-15
0 0

0101101
*
Ed
 1e-07 1 1 0
1  87 0 0 6.28318530717959
2  67 25 0 0 6.28318530717959
0

0101100
+238 9 -238 9 *
Wi

0101100
+237 8 *
Ve
1e-07
69 762 -3.5527136788005e-15
0 0

0101101
*
Ed
 1e-07 1 1 0
1  88 0 0 6.28318530717959
2  68 48 0 0 6.28318530717959
0

0101000
+235 9 -235 9 *
Wi

0101100
+234 8 *
Ve
1e-07
168.75 832 -3.5527136788005e-15
0 0

0101101
*
Ed
 1e-07 1 1 0
1  89 0 0 6.28318530717959
2  69 27 0 0 6.28318530717959
0

0101100
+232 7 -232 7 *
Wi

0101100
+231 6 *
Ve
1e-07
168.75 1252 -3.5527136788005e-15
0 0

0101101
*
Ed
 1e-07 1 1 0
1  90 0 0 6.28318530717959
2  70 29 0 0 6.28318530717959
0

0101100
+229 7 -229 7 *
Wi

0101100
+228 6 *
Fa
0  1e-07 36 2

0111000
+349 0 +346 0 +329 0 +326 0 +323 0 +320 0 +317 0 +314 0 +311 0 +308 0 
+305 0 +302 0 +299 0 +296 0 +293 0 +290 0 +287 0 +284 0 +281 0 +278 0 
+275 0 +272 0 +269 0 +266 0 +263 0 +260 0 +257 0 +254 0 +251 0 +248 0 
+245 0 +242 0 +239 0 +236 0 +233 0 +230 0 +227 0 *
Wi

0101100
-462 0 -456 0 +353 0 +350 0 *
Fa
0  1e-07 49 0

0111000
+225 0 *
Ed
 1e-07 1 1 0
1  91 0 1 19
3  71 72CN 4 0 1 19
0

0101000
+301 7 -454 7 *
Wi

0101100
-453 0 +223 0 +300 0 -223 0 *
Fa
0  1e-07 4 0

0111000
+222 0 *
Ed
 1e-07 1 1 0
1  92 0 1 19
3  73 74CN 5 0 1 19
0

0101000
+298 7 -451 7 *
Wi

0101100
-450 0 +220 0 +297 0 -220 0 *
Fa
0  1e-07 5 0

0111000
+219 0 *
Ed
 1e-07 1 1 0
1  93 0 1 19
3  75 76CN 6 0 1 19
0

0101000
+295 7 -448 7 *
Wi

0101100
-447 0 +217 0 +294 0 -217 0 *
Fa
0  1e-07 6 0

0111000
+216 0 *
Ed
 1e-07 1 1 0
1  94 0 1 19
3  77 78CN 7 0 1 19
0

0101000
+274 9 -445 9 *
Wi

0101100
-444 0 +214 0 +273 0 -214 0 *
Fa
0  1e-07 7 0

0111000
+213 0 *
Ed
 1e-07 1 1 0
1  95 0 1 19
3  79 80CN 8 0 1 19
0

0101000
+289 7 -442 7 *
Wi

0101100
-441 0 +211 0 +288 0 -211 0 *
Fa
0  1e-07 8 0

0111000
+210 0 *
Ed
 1e-07 1 1 0
1  96 0 1 19
3  81 82CN 9 0 1 19
0

0101000
+286 7 -439 7 *
Wi

0101100
-438 0 +208 0 +285 0 -208 0 *
Fa
0  1e-07 9 0

0111000
+207 0 *
Ed
 1e-07 1 1 0
1  97 0 1 19
3  83 84CN 10 0 1 19
0

0101000
+283 7 -436 7 *
Wi

0101100
-435 0 +205 0 +282 0 -205 0 *
Fa
0  1e-07 10 0

0111000
+204 0 *
Ed
 1e-07 1 1 0
1  98 0 1 19
3  85 86CN 11 0 1 19
0

0101000
+277 9 -433 9 *
Wi

0101100
-432 0 +202 0 +276 0 -202 0 *
Fa
0  1e-07 11 0

0111000
+201 0 *
Ve
1.5e-07
228 48 2
0 0

0101101
*
Ed
 1e-07 1 1 0
1  99 0 3 19
2  87 12 0 3 19
0

0101000
+199 0 -429 0 *
Ve
1.5e-07
220 56 2
0 0

0101101
*
Ed
 1e-07 1 1 0
1  100 0 3.14159265358979 4.71238898038469
2  88 12 0 3.14159265358979 4.71238898038469
0

0101000
+197 0 -199 0 *
Ed
 1e-07 1 1 0
1  101 0 3 19
2  89 12 0 3 19
0

0101000
+197 0 -430 0 *
Wi

0101100
-428 0 +198 0 +196 0 -195 0 *
Fa
0  1e-07 12 0

0111000
+194 0 *
Ve
1.5e-07
344 48 2
0 0

0101101
*
Ed
 1.5e-07 1 1 0
1  102 0 -29.0000000000001 86.9999999999999
0

0101000
+199 0 -192 0 *
Ed
 1e-07 1 1 0
1  103 0 3 19
2  90 13 0 3 19
0

0101000
+192 0 -427 0 *
Wi

0101100
-191 0 -190 0 -426 0 +198 0 *
Fa
0  1e-07 50 0

0111000
+189 0 *
Ve
1.5e-07
352 56 2
0 0

0101101
*
Ed
 1e-07 1 1 0
1  104 0 3 19
2  91 13 0 3 19
0

0101000
+187 0 -425 0 *
Ed
 1e-07 1 1 0
1  105 0 4.71238898038469 6.28318530717959
2  92 13 0 4.71238898038469 6.28318530717959
0

0101000
+192 0 -187 0 *
Wi

0101100
-424 0 +186 0 +185 0 -190 0 *
Fa
0  1e-07 13 0

0111000
+184 0 *
Ve
1.5e-07
352 128 2
0 0

0101101
*
Ed
 1e-07 1 1 0
1  106 0 3 19
2  93 14 0 3 19
0

0101000
+182 0 -423 0 *
Ed
 1.5e-07 1 1 0
1  107 0 -54 18
0

0101000
+182 0 -187 0 *
Wi

0101100
-186 0 -422 0 +181 0 -180 0 *
Fa
0  1e-07 51 0

0111000
+179 0 *
Ve
1.5e-07
344 136 2
0 0

0101101
*
Ed
 1e-07 1 1 0
1  108 0 3 19
2  94 14 0 3 19
0

0101000
+177 0 -421 0 *
Ed
 1e-07 1 1 0
1  109 0 0 1.5707963267949
2  95 14 0 0 1.5707963267949
0

0101000
+182 0 -177 0 *
Wi

0101100
-420 0 +176 0 +175 0 -181 0 *
Fa
0  1e-07 14 0

0111000
+174 0 *
Ve
1.5e-07
228 136 2
0 0

0101101
*
Ed
 1.5e-07 1 1 0
1  110 0 -29.0000000000001 86.9999999999999
0

0101000
+172 0 -177 0 *
Ed
 1e-07 1 1 0
1  111 0 3 19
2  96 15 0 3 19
0

0101000
+172 0 -419 0 *
Wi

0101100
-171 0 -176 0 -418 0 +170 0 *
Fa
0  1e-07 52 0

0111000
+169 0 *
Ve
1.5e-07
220 128 2
0 0

0101101
*
Ed
 1e-07 1 1 0
1  112 0 3 19
2  97 15 0 3 19
0

0101000
+167 0 -417 0 *
Ed
 1e-07 1 1 0
1  113 0 1.5707963267949 3.14159265358979
2  98 15 0 1.5707963267949 3.14159265358979
0

0101000
+172 0 -167 0 *
Wi

0101100
-416 0 +166 0 +165 0 -170 0 *
Fa
0  1e-07 15 0

0111000
+164 0 *
Ed
 1.5e-07 1 1 0
1  114 0 -54 18
0

0101000
+167 0 -197 0 *
Wi

0101100
-195 0 -415 0 +166 0 -162 0 *
Fa
0  1e-07 53 0

0111000
+161 0 *
Ed
 1e-07 1 1 0
1  115 0 1 19
3  99 100CN 16 0 1 19
0

0101000
+348 7 -413 7 *
Wi

0101100
-412 0 +159 0 +347 0 -159 0 *
Fa
0  1e-07 16 0

0111000
+158 0 *
Ed
 1e-07 1 1 0
1  116 0 1 19
3  101 102CN 17 0 1 19
0

0101000
+313 7 -410 7 *
Wi

0101100
-409 0 +156 0 +312 0 -156 0 *
Fa
0  1e-07 17 0

0111000
+155 0 *
Ed
 1e-07 1 1 0
1  117 0 1 19
3  103 104CN 18 0 1 19
0

0101000
+328 7 -407 7 *
Wi

0101100
-406 0 +153 0 +327 0 -153 0 *
Fa
0  1e-07 18 0

0111000
+152 0 *
Ed
 1e-07 1 1 0
1  118 0 1 19
3  105 106CN 19 0 1 19
0

0101000
+292 7 -404 7 *
Wi

0101100
-403 0 +150 0 +291 0 -150 0 *
Fa
0  1e-07 19 0

0111000
+149 0 *
Ed
 1e-07 1 1 0
1  119 0 1 19
3  107 108CN 20 0 1 19
0

0101000
+304 7 -401 7 *
Wi

0101100
-400 0 +147 0 +303 0 -147 0 *
Fa
0  1e-07 20 0

0111000
+146 0 *
Ed
 1e-07 1 1 0
1  120 0 1 19
3  109 110CN 21 0 1 19
0

0101000
+319 7 -398 7 *
Wi

0101100
-397 0 +144 0 +318 0 -144 0 *
Fa
0  1e-07 21 0

0111000
+143 0 *
Ed
 1e-07 1 1 0
1  121 0 1 19
3  111 112CN 22 0 1 19
0

0101000
+316 7 -395 7 *
Wi

0101100
-394 0 +141 0 +315 0 -141 0 *
Fa
0  1e-07 22 0

0111000
+140 0 *
Ed
 1e-07 1 1 0
1  122 0 1 19
3  113 114CN 23 0 1 19
0

0101000
+310 9 -392 9 *
Wi

0101100
-391 0 +138 0 +309 0 -138 0 *
Fa
0  1e-07 23 0

0111000
+137 0 *
Ed
 1e-07 1 1 0
1  123 0 1 19
3  115 116CN 24 0 1 19
0

0101000
+322 9 -389 9 *
Wi

0101100
-388 0 +135 0 +321 0 -135 0 *
Fa
0  1e-07 24 0

0111000
+134 0 *
Ed
 1e-07 1 1 0
1  124 0 1 19
3  117 118CN 25 0 1 19
0

0101000
+238 9 -386 9 *
Wi

0101100
-385 0 +132 0 +237 0 -132 0 *
Fa
0  1e-07 25 0

0111000
+131 0 *
Ed
 1e-07 1 1 0
1  125 0 1 19
3  119 120CN 26 0 1 19
0

0101000
+241 9 -383 9 *
Wi

0101100
-382 0 +129 0 +240 0 -129 0 *
Fa
0  1e-07 26 0

0111000
+128 0 *
Ed
 1e-07 1 1 0
1  126 0 1 19
3  121 122CN 27 0 1 19
0

0101000
+232 7 -380 7 *
Wi

0101100
-379 0 +126 0 +231 0 -126 0 *
Fa
0  1e-07 27 0

0111000
+125 0 *
Ed
 1e-07 1 1 0
1  127 0 1 19
3  123 124CN 28 0 1 19
0

0101000
+244 9 -377 9 *
Wi

0101100
-376 0 +123 0 +243 0 -123 0 *
Fa
0  1e-07 28 0

0111000
+122 0 *
Ed
 1e-07 1 1 0
1  128 0 1 19
3  125 126CN 29 0 1 19
0

0101000
+229 7 -374 7 *
Wi

0101100
-373 0 +120 0 +228 0 -120 0 *
Fa
0  1e-07 29 0

0111000
+119 0 *
Ed
 1e-07 1 1 0
1  129 0 1 19
3  127 128CN 30 0 1 19
0

0101000
+256 9 -371 9 *
Wi

0101100
-370 0 +117 0 +255 0 -117 0 *
Fa
0  1e-07 30 0

0111000
+116 0 *
Ed
 1e-07 1 1 0
1  130 0 1 19
3  129 130CN 31 0 1 19
0

0101000
+262 9 -368 9 *
Wi

0101100
-367 0 +114 0 +261 0 -114 0 *
Fa
0  1e-07 31 0

0111000
+113 0 *
Ed
 1e-07 1 1 0
1  131 0 1 19
3  131 132CN 32 0 1 19
0

0101000
+268 9 -365 9 *
Wi

0101100
-364 0 +111 0 +267 0 -111 0 *
Fa
0  1e-07 32 0

0111000
+110 0 *
Ed
 1e-07 1 1 0
1  132 0 1 19
3  133 134CN 33 0 1 19
0

0101000
+259 7 -362 7 *
Wi

0101100
-361 0 +108 0 +258 0 -108 0 *
Fa
0  1e-07 33 0

0111000
+107 0 *
Ed
 1e-07 1 1 0
1  133 0 1 19
3  135 136CN 34 0 1 19
0

0101000
+250 7 -359 7 *
Wi

0101100
-358 0 +105 0 +249 0 -105 0 *
Fa
0  1e-07 34 0

0111000
+104 0 *
Ve
3.86282245301572e-07
205.8 40 2
0 0

0101101
*
Ed
 1e-07 1 1 0
1  134 0 0 2
2  137 40 0 0 2
0

0101000
+345 0 -102 0 *
Ve
3.86282238196145e-07
205.8 144 2
0 0

0101101
*
Ed
 1e-07 1 1 0
1  135 0 0 104
0

0101000
+102 0 -100 0 *
Ed
 1e-07 1 1 0
1  136 0 0 2
2  138 37 0 0 2
0

0101000
+344 0 -100 0 *
Wi

0101100
-101 0 -99 0 +98 0 +343 0 *
Fa
0  1e-07 54 0

0111000
+97 0 *
Ve
3.86282238196145e-07
212 150.2 2
0 0

0101101
*
Ed
 1e-07 1 1 0
1  137 0 1.5707963267949 3.14159265358979
2  139 37 0 1.5707963267949 3.14159265358979
2  140 55 11 1.5707963267949 3.14159265358979
2  141 55 13 1.5707963267949 3.14159265358979
2  142 56 15 1.5707963267949 3.14159265358979
2  143 56 17 1.5707963267949 3.14159265358979
2  144 57 19 1.5707963267949 3.14159265358979
2  145 57 21 1.5707963267949 3.14159265358979
2  146 58 23 1.5707963267949 3.14159265358979
2  147 58 25 1.5707963267949 3.14159265358979
2  148 59 27 1.5707963267949 3.14159265358979
2  149 59 29 1.5707963267949 3.14159265358979
0

0101000
+95 0 -100 0 *
Ed
 1e-07 1 1 0
1  138 0 0 2
2  150 37 0 0 2
0

0101000
+342 0 -95 0 *
Wi

0101100
-94 0 +98 0 +341 0 -93 0 *
Fa
0  1e-07 37 0

0111000
+92 0 *
Ve
3.86282181352726e-07
360 150.2 2
0 0

0101101
*
Ed
 1e-07 1 1 0
1  139 0 0 2
2  151 38 0 0 2
0

0101000
+340 0 -90 0 *
Ed
 1e-07 1 1 0
1  140 0 0 148
0

0101000
+95 0 -90 0 *
Wi

0101100
-339 0 -89 0 +88 0 +93 0 *
Fa
0  1e-07 60 0

0111000
+87 0 *
Ve
3.86282238196145e-07
366.2 144 2
0 0

0101101
*
Ed
 1e-07 1 1 0
1  141 0 0 1.57079632679491
2  152 38 0 0 1.57079632679491
2  153 61 11 0 1.57079632679491
2  154 61 13 0 1.57079632679491
2  155 62 15 0 1.57079632679491
2  156 62 17 0 1.57079632679491
2  157 63 19 0 1.57079632679491
2  158 63 21 0 1.57079632679491
2  159 64 23 0 1.57079632679491
2  160 64 25 0 1.57079632679491
2  161 65 27 0 1.57079632679491
2  162 65 29 0 1.57079632679491
0

0101000
+85 0 -90 0 *
Ed
 1e-07 1 1 0
1  142 0 0 2
2  163 38 0 0 2
0

0101000
+338 0 -85 0 *
Wi

0101100
-84 0 +89 0 +337 0 -83 0 *
Fa
0  1e-07 38 0

0111000
+82 0 *
Ve
3.86282245301572e-07
366.2 40 2
0 0

0101101
*
Ed
 1e-07 1 1 0
1  143 0 0 2
2  164 39 0 0 2
0

0101000
+336 0 -80 0 *
Ed
 1e-07 1 1 0
1  144 0 0 104
0

0101000
+80 0 -85 0 *
Wi

0101100
-79 0 -78 0 +83 0 +335 0 *
Fa
0  1e-07 66 0

0111000
+77 0 *
Ve
1.00000022484892e-07
360 33.8 2
0 0

0101101
*
Ed
 1e-07 1 1 0
1  145 0 4.71238898038468 6.28318530717959
2  165 39 0 4.71238898038468 6.28318530717959
2  166 67 11 4.71238898038468 6.28318530717959
2  167 67 13 4.71238898038468 6.28318530717959
2  168 68 15 4.71238898038468 6.28318530717959
2  169 68 17 4.71238898038468 6.28318530717959
2  170 69 19 4.71238898038468 6.28318530717959
2  171 69 21 4.71238898038468 6.28318530717959
2  172 70 23 4.71238898038468 6.28318530717959
2  173 70 25 4.71238898038468 6.28318530717959
2  174 71 27 4.71238898038468 6.28318530717959
2  175 71 29 4.71238898038468 6.28318530717959
0

0101000
+75 0 -80 0 *
Ed
 1e-07 1 1 0
1  146 0 0 2
2  176 39 0 0 2
0

0101000
+334 0 -75 0 *
Wi

0101100
-74 0 +79 0 +333 0 -73 0 *
Fa
0  1e-07 39 0

0111000
+72 0 *
Ve
1e-07
212 33.8 2
0 0

0101101
*
Ed
 1e-07 1 1 0
1  147 0 0 148
0

0101000
+70 0 -75 0 *
Ed
 1e-07 1 1 0
1  148 0 0 2
2  177 40 0 0 2
0

0101000
+332 0 -70 0 *
Wi

0101100
-331 0 -73 0 +69 0 +68 0 *
Fa
0  1e-07 72 0

0111000
+67 0 *
Ed
 1e-07 1 1 0
1  149 0 3.14159265358979 4.71238898038469
2  178 40 0 3.14159265358979 4.71238898038469
2  179 73 11 3.14159265358979 4.71238898038469
2  180 73 13 3.14159265358979 4.71238898038469
2  181 74 15 3.14159265358979 4.71238898038469
2  182 74 17 3.14159265358979 4.71238898038469
2  183 75 19 3.14159265358979 4.71238898038469
2  184 75 21 3.14159265358979 4.71238898038469
2  185 76 23 3.14159265358979 4.71238898038469
2  186 76 25 3.14159265358979 4.71238898038469
2  187 77 27 3.14159265358979 4.71238898038469
2  188 77 29 3.14159265358979 4.71238898038469
0

0101000
+102 0 -70 0 *
Wi

0101100
-65 0 +68 0 +330 0 -101 0 *
Fa
0  1e-07 40 0

0111000
+64 0 *
Ve
1e-07
509 622 8
0 0

0101101
*
Ed
 1e-07 1 1 0
1  150 0 0 6.28318530717959
2  189 41 0 0 6.28318530717959
2  190 78 31 0 6.28318530717959
2  191 78 33 0 6.28318530717959
2  192 79 35 0 6.28318530717959
2  193 79 37 0 6.28318530717959
2  194 80 39 0 6.28318530717959
2  195 80 41 0 6.28318530717959
2  196 81 43 0 6.28318530717959
2  197 81 45 0 6.28318530717959
2  198 82 47 0 6.28318530717959
2  199 82 49 0 6.28318530717959
0

0101000
+62 9 -62 9 *
Ed
 1e-07 1 1 0
1  151 0 0 8
3  200 201CN 41 0 0 8
0

0101000
+325 9 -62 9 *
Wi

0101100
-61 0 +60 0 +324 0 -60 0 *
Fa
0  1e-07 41 0

0111000
+59 0 *
Ve
1e-07
369 622 8
0 0

0101101
*
Ed
 1e-07 1 1 0
1  152 0 0 6.28318530717959
2  202 42 0 0 6.28318530717959
2  203 83 51 0 6.28318530717959
2  204 83 53 0 6.28318530717959
2  205 84 55 0 6.28318530717959
2  206 84 57 0 6.28318530717959
2  207 85 59 0 6.28318530717959
2  208 85 61 0 6.28318530717959
2  209 86 63 0 6.28318530717959
2  210 86 65 0 6.28318530717959
2  211 87 67 0 6.28318530717959
2  212 87 69 0 6.28318530717959
0

0101000
+57 9 -57 9 *
Ed
 1e-07 1 1 0
1  153 0 0 8
3  213 214CN 42 0 0 8
0

0101000
+307 9 -57 9 *
Wi

0101100
-56 0 +55 0 +306 0 -55 0 *
Fa
0  1e-07 42 0

0111000
+54 0 *
Ve
1e-07
209 622 8
0 0

0101101
*
Ed
 1e-07 1 1 0
1  154 0 0 6.28318530717959
2  215 43 0 0 6.28318530717959
2  216 88 71 0 6.28318530717959
2  217 88 73 0 6.28318530717959
2  218 89 75 0 6.28318530717959
2  219 89 77 0 6.28318530717959
2  220 90 79 0 6.28318530717959
2  221 90 81 0 6.28318530717959
2  222 91 83 0 6.28318530717959
2  223 91 85 0 6.28318530717959
2  224 92 87 0 6.28318530717959
2  225 92 89 0 6.28318530717959
0

0101000
+52 9 -52 9 *
Ed
 1e-07 1 1 0
1  155 0 0 8
3  226 227CN 43 0 0 8
0

0101000
+280 9 -52 9 *
Wi

0101100
-51 0 +50 0 +279 0 -50 0 *
Fa
0  1e-07 43 0

0111000
+49 0 *
Ve
1e-07
69 622 8
0 0

0101101
*
Ed
 1e-07 1 1 0
1  156 0 0 6.28318530717959
2  228 44 0 0 6.28318530717959
2  229 93 91 0 6.28318530717959
2  230 93 93 0 6.28318530717959
2  231 94 95 0 6.28318530717959
2  232 94 97 0 6.28318530717959
2  233 95 99 0 6.28318530717959
2  234 95 101 0 6.28318530717959
2  235 96 103 0 6.28318530717959
2  236 96 105 0 6.28318530717959
2  237 97 107 0 6.28318530717959
2  238 97 109 0 6.28318530717959
0

0101000
+47 9 -47 9 *
Ed
 1e-07 1 1 0
1  157 0 0 8
3  239 240CN 44 0 0 8
0

0101000
+271 9 -47 9 *
Wi

0101100
-46 0 +45 0 +270 0 -45 0 *
Fa
0  1e-07 44 0

0111000
+44 0 *
Ve
1e-07
509 762 8
0 0

0101101
*
Ed
 1e-07 1 1 0
1  158 0 0 6.28318530717959
2  241 45 0 0 6.28318530717959
2  242 98 111 0 6.28318530717959
2  243 98 113 0 6.28318530717959
2  244 99 115 0 6.28318530717959
2  245 99 117 0 6.28318530717959
2  246 100 119 0 6.28318530717959
2  247 100 121 0 6.28318530717959
2  248 101 123 0 6.28318530717959
2  249 101 125 0 6.28318530717959
2  250 102 127 0 6.28318530717959
2  251 102 129 0 6.28318530717959
0

0101000
+42 9 -42 9 *
Ed
 1e-07 1 1 0
1  159 0 0 8
3  252 253CN 45 0 0 8
0

0101000
+265 9 -42 9 *
Wi

0101100
-41 0 +40 0 +264 0 -40 0 *
Fa
0  1e-07 45 0

0111000
+39 0 *
Ve
1e-07
369 762 8
0 0

0101101
*
Ed
 1e-07 1 1 0
1  160 0 0 6.28318530717959
2  254 46 0 0 6.28318530717959
2  255 103 131 0 6.28318530717959
2  256 103 133 0 6.28318530717959
2  257 104 135 0 6.28318530717959
2  258 104 137 0 6.28318530717959
2  259 105 139 0 6.28318530717959
2  260 105 141 0 6.28318530717959
2  261 106 143 0 6.28318530717959
2  262 106 145 0 6.28318530717959
2  263 107 147 0 6.28318530717959
2  264 107 149 0 6.28318530717959
0

0101000
+37 9 -37 9 *
Ed
 1e-07 1 1 0
1  161 0 0 8
3  265 266CN 46 0 0 8
0

0101000
+253 9 -37 9 *
Wi

0101100
-36 0 +35 0 +252 0 -35 0 *
Fa
0  1e-07 46 0

0111000
+34 0 *
Ve
1e-07
209 762 8
0 0

0101101
*
Ed
 1e-07 1 1 0
1  162 0 0 6.28318530717959
2  267 47 0 0 6.28318530717959
2  268 108 151 0 6.28318530717959
2  269 108 153 0 6.28318530717959
2  270 109 155 0 6.28318530717959
2  271 109 157 0 6.28318530717959
2  272 110 159 0 6.28318530717959
2  273 110 161 0 6.28318530717959
2  274 111 163 0 6.28318530717959
2  275 111 165 0 6.28318530717959
2  276 112 167 0 6.28318530717959
2  277 112 169 0 6.28318530717959
0

0101000
+32 9 -32 9 *
Ed
 1e-07 1 1 0
1  163 0 0 8
3  278 279CN 47 0 0 8
0

0101000
+247 9 -32 9 *
Wi

0101100
-31 0 +30 0 +246 0 -30 0 *
Fa
0  1e-07 47 0

0111000
+29 0 *
Ve
1e-07
69 762 8
0 0

0101101
*
Ed
 1e-07 1 1 0
1  164 0 0 6.28318530717959
2  280 48 0 0 6.28318530717959
2  281 113 171 0 6.28318530717959
2  282 113 173 0 6.28318530717959
2  283 114 175 0 6.28318530717959
2  284 114 177 0 6.28318530717959
2  285 115 179 0 6.28318530717959
2  286 115 181 0 6.28318530717959
2  287 116 183 0 6.28318530717959
2  288 116 185 0 6.28318530717959
2  289 117 187 0 6.28318530717959
2  290 117 189 0 6.28318530717959
0

0101000
+27 9 -27 9 *
Ed
 1e-07 1 1 0
1  165 0 0 8
3  291 292CN 48 0 0 8
0

0101000
+235 9 -27 9 *
Wi

0101100
-26 0 +25 0 +234 0 -25 0 *
Fa
0  1e-07 48 0

0111000
+24 0 *
Wi

0101100
+65 0 -99 0 +69 0 +94 0 +74 0 -88 0 +78 0 +84 0 *
Wi

0101100
-196 0 -191 0 -185 0 +180 0 -175 0 +171 0 -165 0 -162 0 *
Fa
0  1e-07 118 0

0111000
+22 0 +21 0 *
Wi

0101100
+61 0 *
Fa
0  1e-07 119 0

0111000
+19 0 *
Wi

0101100
+56 0 *
Fa
0  1e-07 120 0

0111000
+17 0 *
Wi

0101100
+51 0 *
Fa
0  1e-07 121 0

0111000
+15 0 *
Wi

0101100
+46 0 *
Fa
0  1e-07 122 0

0111000
+13 0 *
Wi

0101100
+41 0 *
Fa
0  1e-07 123 0

0111000
+11 0 *
Wi

0101100
+36 0 *
Fa
0  1e-07 124 0

0111000
+9 0 *
Wi

0101100
+31 0 *
Fa
0  1e-07 125 0

0111000
+7 0 *
Wi

0101100
+26 0 *
Fa
0  1e-07 126 0

0111000
+5 0 *
Sh

0101100
-466 2 +459 2 +356 0 +351 2 +226 0 +224 2 -221 6 -218 6 -215 6 -212 8 
-209 6 -206 6 -203 6 -200 8 -193 0 +188 0 -183 0 -178 0 -173 0 -168 0 
-163 0 +160 0 -157 6 -154 6 -151 6 -148 6 -145 6 -142 6 -139 6 -136 8 
-133 8 -130 8 -127 8 -124 6 -121 8 -118 6 -115 8 -112 8 -109 8 -106 6 
-103 6 +96 0 -91 0 -86 0 -81 0 -76 0 -71 0 +66 0 -63 0 -58 8 
-53 8 -48 8 -43 8 -38 8 -33 8 -28 8 -23 8 -20 0 -18 8 -16 8 
-14 8 -12 8 -10 8 -8 8 -6 8 -4 8 *
So

0100000
+3 0 *
Co

1100000
+2 0 *

+1 1 