DBRep_DrawableShape

CASCADE Topology V1, (c) Matra-Datavision
Locations 0
Curve2ds 0
Curves 8
1 220 346.02500000000003 2.2204460492503131e-16 0 1 0 
2 228 128 2.2204460492503131e-16 0 -0 1 1 0 0 -0 1 0 8
1 257 136 2.2204460492503131e-16 -1 0 0 
2 344 128 2.2204460492503131e-16 0 -0 1 1 0 0 -0 1 0 8
1 352 346.02500000000003 2.2204460492503131e-16 0 1 0 
2 344 56 2.2204460492503131e-16 0 -0 1 1 0 0 -0 1 0 8
1 257 48 2.2204460492503131e-16 -1 0 0 
2 228 56 2.2204460492503131e-16 0 -0 1 1 0 0 -0 1 0 8
Polygon3D 0
PolygonOnTriangulations 0
Surfaces 1
1 285.99999999999994 91.999999999999986 2.2204460492503131e-16 0 0 1 1 0 -0 -0 1 0 
Triangulations 0

TShapes 19
Ve
1.5000001147405e-07
220 56 7.40148683083438e-17
0 0

0101101
*
Ve
1.50000006957398e-07
220 128 7.40148683083438e-17
0 0

0101101
*
Ed
 1.50000006883383e-07 1 1 0
1  1 0 -290.025 -218.025
0

0101000
+19 0 -18 0 *
Ve
1.50000006957398e-07
228 136 7.40148683083438e-17
0 0

0101101
*
Ed
 1.50000006883383e-07 1 1 0
1  2 0 1.5707963267949 3.14159265358979
0

0101000
+16 0 -18 0 *
Ve
1.50000006957398e-07
344 136 7.40148683083438e-17
0 0

0101101
*
Ed
 1.50000006883383e-07 1 1 0
1  3 0 -87 29
0

0101000
+14 0 -16 0 *
Ve
1.50000006957398e-07
352 128 7.40148683083438e-17
0 0

0101101
*
Ed
 1.50000006883383e-07 1 1 0
1  4 0 6.28318530717959 7.85398163397448
0

0101000
+12 0 -14 0 *
Ve
1.50000018222678e-07
352 56 7.40148683083438e-17
0 0

0101101
*
Ed
 1.50000006883383e-07 1 1 0
1  5 0 -290.025 -218.025
0

0101000
+10 0 -12 0 *
Ve
1.50000018222678e-07
344 48 7.40148683083438e-17
0 0

0101101
*
Ed
 1.50000018148663e-07 1 1 0
1  6 0 4.71238898038469 6.28318530717959
0

0101000
+8 0 -10 0 *
Ve
1.5000001147405e-07
228 48 7.40148683083438e-17
0 0

0101101
*
Ed
 1.50000006883383e-07 1 1 0
1  7 0 -87 29
0

0101000
+8 0 -6 0 *
Ed
 1.50000011400035e-07 1 1 0
1  8 0 3.14159265358979 4.71238898038469
0

0101000
+19 0 -6 0 *
Wi

0101100
+17 0 -15 0 -13 0 -11 0 -9 0 -7 0 +5 0 -4 0 *
Fa
0  1e-07 1 0

0101000
-3 0 *
Sh

1101000
+2 0 *

+1 0 