DBRep_DrawableShape

CASCADE Topology V1, (c) Matra-Datavision
Locations 0
Curve2ds 0
Curves 8
1 205.80000000000001 40 0 0 1 0 
2 212 144 0 0 -0 1 1 0 0 -0 1 0 6.1999999999999886
1 212 150.19999999999999 0 1 0 0 
2 360.00000000000006 144 0 0 -0 1 1 0 0 -0 1 0 6.1999999999999886
1 366.20000000000005 40 0 0 1 0 
2 360.00000000000006 40 0 0 -0 1 1 0 0 -0 1 0 6.1999999999999886
1 212 33.799999999999955 0 1 0 0 
2 212 40 0 0 -0 1 1 0 0 -0 1 0 6.1999999999999886
Polygon3D 0
PolygonOnTriangulations 0
Surfaces 1
1 286 92 0 0 0 1 1 0 -0 -0 1 0 
Triangulations 0

TShapes 19
Ve
3.86282245412594e-07
205.8 40 3.5527136788005e-15
0 0

0101101
*
Ve
3.86282238307167e-07
205.8 144 3.5527136788005e-15
0 0

0101101
*
Ed
 1.00000035499583e-07 1 1 0
1  1 0 0 104
0

0101000
+19 0 -18 0 *
Ve
3.86282238307167e-07
212 150.2 3.5527136788005e-15
0 0

0101101
*
Ed
 1.00000072501041e-07 1 1 0
1  2 0 1.5707963267949 3.14159265358979
0

0101000
+16 0 -18 0 *
Ve
3.86282181463748e-07
360 150.2 3.5527136788005e-15
0 0

0101101
*
Ed
 1.00000035499583e-07 1 1 0
1  3 0 -0 148
0

0101000
+16 0 -14 0 *
Ve
3.86282238307167e-07
366.2 144 3.5527136788005e-15
0 0

0101101
*
Ed
 1.00000060785114e-07 1 1 0
1  4 0 6.28318530717959 7.85398163397448
0

0101000
+12 0 -14 0 *
Ve
3.86282245412594e-07
366.2 40 3.5527136788005e-15
0 0

0101101
*
Ed
 1.00000035499583e-07 1 1 0
1  5 0 0 104
0

0101000
+10 0 -12 0 *
Ve
1.00000082066388e-07
360 33.8 2.10084871405212e-15
0 0

0101101
*
Ed
 1.00000053743836e-07 1 1 0
1  6 0 4.71238898038469 6.28318530717959
0

0101000
+8 0 -10 0 *
Ve
1.00000089166761e-07
212 33.8 2.08292814938774e-15
0 0

0101101
*
Ed
 1.00000074931385e-07 1 1 0
1  7 0 0 148
0

0101000
+6 0 -8 0 *
Ed
 1.00000064119428e-07 1 1 0
1  8 0 3.14159265358979 4.71238898038469
0

0101000
+19 0 -6 0 *
Wi

0101100
+17 0 -15 0 +13 0 -11 0 -9 0 -7 0 -5 0 -4 0 *
Fa
0  1e-07 1 0

0101000
-3 0 *
Sh

1101000
+2 0 *

+1 0 