DBRep_DrawableShape

CASCADE Topology V1, (c) Matra-Datavision
Locations 7
1
              1               0               0               0 
              0               1               0               0 
              0               0               1               0 
1
              1               0               0 -64.9999999999994 
              0               1               0 -624.999999999999 
              0               0               1              -6 
1
              1               0               0               0 
              0               1               0               0 
              0               0               1              -0 
1
              1               0               0               0 
              0               1               0               0 
              0               0               1               1 
1
              1               0               0               0 
              0               1               0               0 
              0               0               1              -1 
2  1 1 2 1 3 1 4 1 5 1 0
2  5 -1 4 -1 3 -1 2 -1 1 -1 0
Curve2ds 0
Curves 1
2 80 640 6.0000000000000009 0 -0 1 1 0 0 -0 1 0 7
Polygon3D 0
PolygonOnTriangulations 0
Surfaces 1
1 15.000000000000597 15.000000000001025 0 0 0 1 1 0 -0 -0 1 0 
Triangulations 0

TShapes 5
Ve
1.50000012762238e-07
22.0000000000006 15.000000000001 2.96059473233375e-16
0 0

0101101
*
Ed
 1.50000012466178e-07 1 1 0
1  1 0 0 6.28318530717959
0

0101000
+5 7 -5 7 *
Wi

0101100
-4 6 *
Fa
0  1e-07 1 0

0101000
-3 0 *
Sh

1101000
+2 0 *

+1 0 