DBRep_DrawableShape

CASCADE Topology V1, (c) Matra-Datavision
Locations 11
1
              1               0               0               0 
              0               1               0               0 
              0               0               1               0 
1
              1               0               0 -64.9999999999994 
              0               1               0 -624.999999999999 
              0               0               1              -6 
2  1 1 2 1 0
1
              1               0               0               0 
              0               1               0               0 
              0               0               1               0 
2  4 1 1 1 2 1 0
2  4 -1 0
2  2 -1 1 -1 4 -1 0
2  2 -1 1 -1 0
1
              1               0               0               0 
              0               1               0               0 
              0               0               1              -1 
1
              1               0               0               0 
              0               1               0               0 
              0               0               1              12 
2  9 1 10 1 0
Curve2ds 6
2 32.5 32.5 1 0 -0 1 6
1 0 0 1 0 
1 0 0 0 -1 
1 6.2831853071795862 0 0 -1 
2 -52.5 -52.5 1 0 -0 1 6
1 0 -8 1 0 
Curves 3
2 97.5 657.5 18 0 0 1 1 0 -0 -0 1 0 6
1 103.5 657.5 18 0 0 -1 
2 97.5 657.5 10 0 0 1 1 0 -0 -0 1 0 6
Polygon3D 0
PolygonOnTriangulations 0
Surfaces 5
2 97.5 657.5 18 0 0 1 1 0 -0 -0 1 0 6
1 65 625 18 0 0 1 1 0 -0 -0 1 0 
1 150 710 10 0 0 1 1 0 -0 -0 1 0 
1 84.999999999999616 85.000000000001023 1 0 0 1 1 0 -0 -0 1 0 
1 -10 -9.999999999999531 4 0 0 1 1 0 -0 -0 1 0 
Triangulations 0

TShapes 13
Ve
1.5e-07
38.5000000000006 32.500000000001 12
0 0

0101101
*
Ed
 1.5e-07 1 1 0
1  1 0 0 6.28318530717959
2  1 2 0 0 6.28318530717959
2  2 1 6 0 6.28318530717959
0

0101000
+13 7 -13 7 *
Ve
1e-07
38.5000000000006 32.500000000001 4
0 0

0101101
*
Ed
 1e-07 1 1 0
1  2 0 0 8
3  3 4CN 1 0 0 8
0

0101000
+13 8 -11 8 *
Ed
 1e-07 1 1 0
1  3 0 0 6.28318530717959
2  5 3 0 0 6.28318530717959
2  6 1 0 0 6.28318530717959
0

0101000
+11 8 -11 8 *
Wi

0101100
-12 5 -10 3 +9 3 +10 3 *
Fa
0  1e-07 1 3

0101000
+8 0 *
Wi

0101100
+12 5 *
Fa
0  1.5e-07 4 11

0101000
+6 0 *
Wi

0101100
+9 3 *
Fa
0  1e-07 5 0

0101000
+4 0 *
Sh

0101100
+7 0 +5 0 -3 0 *
So

0100000
+2 0 *

+1 0 