DBRep_DrawableShape

CASCADE Topology V1, (c) Matra-Datavision
Locations 1
1
              1               0               0               0 
              0               1               0               0 
              0               0               1              -1 
Curve2ds 4
1 -84.999999999999091 -85.000000000000014 0 1 
1 -84.999999999999091 -85.000000000000014 1 0 
1 85.000000000000909 -85.000000000000014 0 1 
1 -84.999999999999091 84.999999999999986 1 0 
Curves 4
1 1.0231815394945443e-12 1.0231815394945443e-12 1 0 1 0 
1 1.0231815394945443e-12 1.0231815394945443e-12 1 1 0 0 
1 170.00000000000102 1.0231815394945443e-12 1 0 1 0 
1 1.0231815394945443e-12 170.00000000000102 1 1 0 0 
Polygon3D 0
PolygonOnTriangulations 0
Surfaces 1
1 85.000000000000114 85.000000000001037 1 0 0 1 1 0 -0 -0 1 0 
Triangulations 0

TShapes 9
Ve
1.5e-07
1.02318153949454e-12 1.02318153949454e-12 1
0 0

0101101
*
Ve
1.5e-07
1.02318153949454e-12 170.000000000001 1
0 0

0101101
*
Ed
 1e-07 1 1 0
1  1 0 0 170
2  1 1 0 0 170
0

0101000
+9 0 -8 0 *
Ve
1.5e-07
170.000000000001 1.02318153949454e-12 1
0 0

0101101
*
Ed
 1e-07 1 1 0
1  2 0 0 170
2  2 1 0 0 170
0

0101000
+9 0 -6 0 *
Ve
1.5e-07
170.000000000001 170.000000000001 1
0 0

0101101
*
Ed
 1e-07 1 1 0
1  3 0 0 170
2  3 1 0 0 170
0

0101000
+6 0 -4 0 *
Ed
 1e-07 1 1 0
1  4 0 0 170
2  4 1 0 0 170
0

0101000
+8 0 -4 0 *
Wi

0101100
-7 0 +5 0 +3 0 -2 0 *

+1 1 