DBRep_DrawableShape

CASCADE Topology V1, (c) Matra-Datavision
Locations 0
Curve2ds 0
Curves 16
1 1.0231815394945443e-12 1.0231815394945443e-12 0 0 1 0 
2 2.0000000000010232 97.922847983321105 0 -0 -0 -1 0 -1 0 -1 0 0 2
2 85.000000000001023 85.000000000001023 0 0 -0 1 1 0 0 -0 1 0 86
2 72.077152016680941 168.00000000000102 0 -0 0 -1 -0.98809523809523814 -0.15384342837285808 0 -0.15384342837285808 0.98809523809523814 0 2
1 1.0231815394945443e-12 170.00000000000102 0 1 0 0 
2 97.922847983321105 168.00000000000102 0 -0 0 -1 -1 -0 0 0 1 0 2
2 85.000000000001023 85.000000000001023 0 0 -0 1 1 0 0 -0 1 0 86
2 168.00000000000102 97.92284798332102 0 0 0 -1 -0.15384342837285706 0.98809523809523836 0 0.98809523809523836 0.15384342837285706 0 2
1 170.00000000000102 1.0231815394945443e-12 0 0 1 0 
2 168.00000000000102 72.077152016680941 0 -0 0 -1 0 1 0 1 0 -0 2
2 85.000000000001023 85.000000000001023 0 0 -0 1 1 0 0 -0 1 0 86
2 97.922847983321091 2.0000000000010232 0 0 0 -1 0.98809523809523814 0.15384342837285797 0 0.15384342837285797 -0.98809523809523814 0 2
1 1.0231815394945443e-12 1.0231815394945443e-12 0 1 0 0 
2 72.077152016680941 2.0000000000010232 0 0 0 -1 1 0 0 0 -1 0 2
2 85.000000000001023 85.000000000001023 0 0 -0 1 1 0 0 -0 1 0 86
2 2.0000000000010232 72.077152016680941 0 -0 0 -1 0.15384342837285803 -0.98809523809523814 -0 -0.98809523809523814 -0.15384342837285803 0 2
Polygon3D 0
PolygonOnTriangulations 0
Surfaces 1
1 85.000000000001037 85.000000000000995 0 0 0 1 1 0 -0 -0 1 0 
Triangulations 0

TShapes 35
Ve
1.50000090993868e-07
1.02318153949454e-12 72.0771520166809 0
0 0

0101101
*
Ve
1.50000090993868e-07
1.02318153949454e-12 97.9228479833211 0
0 0

0101101
*
Ed
 1.50000090993868e-07 1 1 0
1  1 0 72.0771520166799 97.9228479833201
0

0101000
+35 0 -34 0 *
Ve
1.50000121120829e-07
0.0238095238105458 98.2305348400668 0
0 0

0101101
*
Ed
 1.5e-07 1 1 0
1  2 0 1.57079632679489 1.72525316696816
0

0101000
+34 0 -32 0 *
Ve
1.50000090993868e-07
71.7694651599352 169.976190476192 0
0 0

0101101
*
Ed
 1.50000090993868e-07 1 1 0
1  3 0 1.72525316696816 2.98713581341652
0

0101000
+30 0 -32 0 *
Ve
1.50000090993868e-07
72.0771520166809 170.000000000001 0
0 0

0101101
*
Ed
 1.5e-07 1 1 0
1  4 0 1.57079632679489 1.72525316696816
0

0101000
+30 0 -28 0 *
Ve
1.50000090993868e-07
97.9228479833212 170.000000000001 0
0 0

0101101
*
Ed
 1.50000090993868e-07 1 1 0
1  5 0 72.0771520166799 97.9228479833201
0

0101000
+28 0 -26 0 *
Ve
1.50000119415578e-07
98.2305348400669 169.976190476191 0
0 0

0101101
*
Ed
 1.5e-07 1 1 0
1  6 0 1.57079632679493 1.7252531669682
0

0101000
+26 0 -24 0 *
Ve
1.50000090993868e-07
169.976190476192 98.2305348400668 0
0 0

0101101
*
Ed
 1.50000090993868e-07 1 1 0
1  7 0 6.43764214735285 7.69952479380121
0

0101000
+22 0 -24 0 *
Ve
1.50000090993868e-07
170.000000000001 97.9228479833211 0
0 0

0101101
*
Ed
 1.5e-07 1 1 0
1  8 0 1.57079632679485 1.72525316696812
0

0101000
+22 0 -20 0 *
Ve
1.50000090993868e-07
170.000000000001 72.0771520166809 0
0 0

0101101
*
Ed
 1.50000090993868e-07 1 1 0
1  9 0 72.0771520166799 97.9228479833201
0

0101000
+18 0 -20 0 *
Ve
1.50000105204723e-07
169.976190476192 71.7694651599352 0
0 0

0101101
*
Ed
 1.5e-07 1 1 0
1  10 0 1.5707963267949 1.72525316696817
0

0101000
+18 0 -16 0 *
Ve
1.50000090993868e-07
98.2305348400668 0.0238095238105416 0
0 0

0101101
*
Ed
 1.50000090993868e-07 1 1 0
1  11 0 4.86684582055796 6.12872846700632
0

0101000
+14 0 -16 0 *
Ve
1.50000090993868e-07
97.9228479833211 1.02318153949454e-12 0
0 0

0101101
*
Ed
 1.5e-07 1 1 0
1  12 0 1.57079632679489 1.72525316696816
0

0101000
+14 0 -12 0 *
Ve
1.50000090993868e-07
72.0771520166809 1.02318153949454e-12 0
0 0

0101101
*
Ed
 1.50000090993868e-07 1 1 0
1  13 0 72.0771520166799 97.9228479833201
0

0101000
+10 0 -12 0 *
Ve
1.50000107991524e-07
71.7694651599352 0.0238095238105465 0
0 0

0101101
*
Ed
 1.5e-07 1 1 0
1  14 0 1.57079632679489 1.72525316696816
0

0101000
+10 0 -8 0 *
Ve
1.50000090993868e-07
0.0238095238105416 71.7694651599352 0
0 0

0101101
*
Ed
 1.50000090993868e-07 1 1 0
1  15 0 3.29604949376306 4.55793214021142
0

0101000
+6 0 -8 0 *
Ed
 1.5e-07 1 1 0
1  16 0 1.57079632679489 1.72525316696816
0

0101000
+6 0 -35 0 *
Wi

0101100
+33 0 +31 0 -29 0 +27 0 +25 0 +23 0 -21 0 +19 0 -17 0 +15 0 
-13 0 +11 0 -9 0 +7 0 -5 0 +4 0 *
Fa
0  1e-07 1 0

0101000
-3 0 *
Sh

1101000
+2 0 *

+1 0 