DBRep_DrawableShape

CASCADE Topology V1, (c) Matra-Datavision
Locations 0
Curve2ds 0
Curves 8
1 20 14.500000000000114 -2.0217161278424093e-13 0 -1 -0 
2 22 31.000000000000114 -2.0217161278424093e-13 0 0 -1 1 0 0 0 -1 0 2
1 10 29.000000000000114 -2.0217161278424093e-13 1 0 0 
2 718 31.000000000000114 -2.0217161278424093e-13 0 0 -1 0 1 0 1 -0 0 2
1 720 14.500000000000114 -2.0217161278424093e-13 0 -1 -0 
2 718.00000000000011 423.00000000000023 -2.0217161278424093e-13 -0 0 -1 -1 -0 0 0 1 0 2
1 10 425.00000000000023 -2.0217161278424093e-13 1 0 0 
2 22 423.00000000000023 -2.0217161278424093e-13 -0 0 -1 0 -1 -0 -1 -0 0 2
Polygon3D 0
PolygonOnTriangulations 0
Surfaces 1
1 370.00000000000006 227.00000000000023 -2.0217161278424093e-13 0 0 1 1 0 -0 -0 1 0 
Triangulations 0

TShapes 19
Ve
1.50000474897899e-07
20 423 -2.02171612784241e-13
0 0

0101101
*
Ve
1.5000047127117e-07
20 31.0000000000001 -2.02171612784241e-13
0 0

0101101
*
Ed
 1.5000047127117e-07 1 1 0
1  1 0 -408.5 -16.5
0

0101000
+19 0 -18 0 *
Ve
1.50000429545288e-07
22 29.0000000000001 -2.02171612784241e-13
0 0

0101101
*
Ed
 1.00000021980516e-07 1 1 0
1  2 0 1.5707963267949 3.14159265358979
0

0101000
+16 0 -18 0 *
Ve
1.50000429545288e-07
718 29.0000000000001 -2.02171612784241e-13
0 0

0101101
*
Ed
 1.50000429545288e-07 1 1 0
1  3 0 12 708
0

0101000
+16 0 -14 0 *
Ve
1.5000047127117e-07
720 31.0000000000001 -2.02171612784241e-13
0 0

0101101
*
Ed
 1.00000021980516e-07 1 1 0
1  4 0 1.5707963267949 3.14159265358979
0

0101000
+12 0 -14 0 *
Ve
1.50000474897899e-07
720 423 -2.02171612784241e-13
0 0

0101101
*
Ed
 1.5000047127117e-07 1 1 0
1  5 0 -408.5 -16.5
0

0101000
+10 0 -12 0 *
Ve
1.50000656918964e-07
718 425 -2.02171612784241e-13
0 0

0101101
*
Ed
 1.00000021980516e-07 1 1 0
1  6 0 1.57079632679484 3.14159265358988
0

0101000
+8 0 -10 0 *
Ve
1.50000656918964e-07
22 425 -2.02171612784241e-13
0 0

0101101
*
Ed
 1.50000656918964e-07 1 1 0
1  7 0 12 708
0

0101000
+6 0 -8 0 *
Ed
 1.00000021980516e-07 1 1 0
1  8 0 1.5707963267949 3.14159265358979
0

0101000
+19 0 -6 0 *
Wi

0101100
-17 0 +15 0 -13 0 +11 0 +9 0 +7 0 +5 0 +4 0 *
Fa
0  1e-07 1 0

0101000
-3 0 *
Sh

1101000
+2 0 *

+1 0 