DBRep_DrawableShape

CASCADE Topology V1, (c) Matra-Datavision
Locations 8
1
              1               0               0               0 
              0               1               0               0 
              0               0               1              -1 
1
              1               0               0               0 
              0               1               0              14 
              0               0               1               0 
1
              1               0               0               0 
              0 1.11022302462516e-16               1               0 
              0              -1 1.11022302462516e-16               0 
1
              1               0               0              70 
              0               1               0            -842 
              0               0               1            1126 
1
              1               0               0               0 
              0               1               0               0 
              0               0               1 -6.00000000000023 
1
              1               0               0               0 
              0               1               0               0 
              0               0               1               1 
2  2 1 3 1 4 1 5 1 6 1 0
2  6 -1 5 -1 4 -1 3 -1 2 -1 0
Curve2ds 4
1 0 0 0 1 
1 0 740 1 0 
1 0 0 1 0 
1 457 0 0 1 
Curves 4
1 -70 1106 842 1 0 -0 
1 670 1106 842 0 0 1 
1 -70 1106 842 0 0 1 
1 -70 1106 1299 1 0 -0 
Polygon3D 0
PolygonOnTriangulations 0
Surfaces 1
1 -70 1106 842 -0 1 0 0 0 1 1 0 -0 
Triangulations 0

TShapes 9
Ve
1e-07
0 1.13686837721616e-13 0.999999999999773
0 0

0101101
*
Ve
1e-07
740 1.13686837721616e-13 0.999999999999773
0 0

0101101
*
Ed
 1e-07 1 1 0
1  1 0 0 740
2  1 1 0 0 740
0

0101000
+9 8 -8 8 *
Ve
1e-07
740 457 1
0 0

0101101
*
Ed
 1e-07 1 1 0
1  2 0 0 457
2  2 1 0 0 457
0

0101000
+8 8 -6 8 *
Ve
1e-07
0 457 1
0 0

0101101
*
Ed
 1e-07 1 1 0
1  3 0 0 457
2  3 1 0 0 457
0

0101000
+9 8 -4 8 *
Ed
 1e-07 1 1 0
1  4 0 0 740
2  4 1 0 0 740
0

0101000
+4 8 -6 8 *
Wi

0101100
-7 7 -5 7 +3 7 +2 7 *

-1 1 