DBRep_DrawableShape

CASCADE Topology V1, (c) Matra-Datavision
Locations 13
1
              1               0               0               0 
              0               1               0              14 
              0               0               1               0 
1
              1               0               0               0 
              0 1.11022302462516e-16               1               0 
              0              -1 1.11022302462516e-16               0 
1
              1               0               0              70 
              0               1               0            -842 
              0               0               1            1126 
1
              1               0               0               0 
              0               1               0               0 
              0               0               1 -6.00000000000023 
1
              1               0               0               0 
              0               1               0               0 
              0               0               1               1 
1
              1               0               0               0 
              0               1               0               0 
              0               0               1              -1 
2  1 1 2 1 3 1 4 1 5 1 6 1 0
2  6 -1 5 -1 4 -1 3 -1 2 -1 1 -1 0
1
              1               0               0               0 
              0               1               0               0 
              0               0               1 6.00000000000023 
2  1 1 2 1 3 1 4 1 5 1 6 1 9 1 0
2  9 -1 6 -1 5 -1 4 -1 3 -1 2 -1 1 -1 0
1
              1               0               0               0 
              0               1               0               0 
              0               0               1 6.00000000000023 
2  12 -1 0
Curve2ds 40
1 0 0 0 -1 
1 0 0 1.11022302462516e-16 -1 
1 740 0 0 -1 
1 0 0 1.11022302462516e-16 -1 
1 0 0 1 0 
1 0 0 0 1 
1 0 -6.0000000000002274 1 0 
1 0 0 0 1 
1 457.00000000000011 -1.7663648321786223e-13 1.11022302462516e-16 -1 
1 0 0 0 -1 
1 0 0 1 0 
1 0 0 1 0 
1 6.6613381477512124e-16 -6.0000000000002274 1 0 
1 0 0 1 0 
1 457.00000000000011 -1.7663648321786223e-13 1.11022302462516e-16 -1 
1 740 0 0 -1 
1 0 0 1 0 
1 0 740 1 0 
1 6.6613381477512124e-16 -6.0000000000002274 1 0 
1 0 740 1 0 
1 0 0 1 0 
1 457 0 0 1 
1 0 0 1 0 
1 0 -6.0000000000002274 1 0 
1 0 0 1 0 
1 0 -6.0000000000002274 1 0 
1 0 0 1 0 
1 0 -6.0000000000002274 1 0 
1 0 0 1 0 
1 0 -6.0000000000002274 1 0 
1 0 -6.0000000000002274 1 0 
1 457 0 0 1 
1 1.5707963267948966 0 0 -1 
1 3.1415926535897931 0 0 -1 
1 1.5707963267948397 0 0 -1 
1 3.1415926535898784 0 0 -1 
1 1.5707963267948966 0 0 -1 
1 3.1415926535897931 0 0 -1 
1 1.5707963267948966 0 0 -1 
1 3.1415926535897931 0 0 -1 
Curves 28
1 0 1.1368683772161603e-13 -2.2737367544323206e-13 0 0 1 
1 740 1.1368683772161603e-13 -2.2737367544323206e-13 0 0 1 
1 -70 1106 842 1 0 -0 
1 -70 1106 842 1 0 -0 
1 0 457.00000000000023 0 0 0 1 
1 -70 1106 842 0 0 1 
1 -70 1106 842 0 0 1 
1 740 457.00000000000023 0 0 0 1 
1 670 1106 842 0 0 1 
1 670 1106 842 0 0 1 
1 -70 1106 1299 1 0 -0 
2 22 423.00000000000023 -2.0217161278424093e-13 -0 0 -1 0 -1 -0 -1 -0 0 2
1 10 425.00000000000023 -2.0217161278424093e-13 1 0 0 
2 718.00000000000011 423.00000000000023 -2.0217161278424093e-13 -0 0 -1 -1 -0 0 0 1 0 2
1 720 14.500000000000114 -2.0217161278424093e-13 0 -1 -0 
2 718 31.000000000000114 -2.0217161278424093e-13 0 0 -1 0 1 0 1 -0 0 2
1 10 29.000000000000114 -2.0217161278424093e-13 1 0 0 
2 22 31.000000000000114 -2.0217161278424093e-13 0 0 -1 1 0 0 0 -1 0 2
1 20 14.500000000000114 -2.0217161278424093e-13 0 -1 -0 
1 -70 1106 1299 1 0 -0 
1 20 423.00000000000023 -2.0217161278424093e-13 0 0 1 
1 22 425.00000000000023 -2.0217161278424093e-13 0 0 1 
1 718 425.00000000000023 -2.0217161278424093e-13 0 0 1 
1 720 423.00000000000006 -2.0217161278424093e-13 0 0 1 
1 720 31.000000000000114 -2.0217161278424093e-13 0 0 1 
1 718 29.000000000000114 -2.0217161278424093e-13 0 0 1 
1 22 29.000000000000114 -2.0217161278424093e-13 0 0 1 
1 20 31.000000000000114 -2.0217161278424093e-13 0 0 1 
Polygon3D 0
PolygonOnTriangulations 0
Surfaces 14
1 0 1.1368683772161603e-13 -2.2737367544323206e-13 0 1 0 1 0 0 0 0 -1 
1 0 1.1368683772161603e-13 -2.2737367544323206e-13 -1 0 0 0 1 1.11022302462516e-16 0 1.11022302462516e-16 -1 
1 740 1.1368683772161603e-13 -2.2737367544323206e-13 -1 0 0 0 1 1.11022302462516e-16 0 1.11022302462516e-16 -1 
1 -70 1106 842 -0 1 0 0 0 1 1 0 -0 
1 -70 1106 842 -0 1 0 0 0 1 1 0 -0 
1 0 457.00000000000023 0 0 1 0 1 0 0 0 0 -1 
2 22 423.00000000000023 -2.0217161278424093e-13 -0 0 -1 0 -1 -0 -1 -0 0 2
2 718.00000000000011 423.00000000000023 -2.0217161278424093e-13 -0 0 -1 -1 -0 0 0 1 0 2
2 718 31.000000000000114 -2.0217161278424093e-13 0 0 -1 0 1 0 1 -0 0 2
2 22 31.000000000000114 -2.0217161278424093e-13 0 0 -1 1 0 0 0 -1 0 2
1 20 423.00000000000023 -2.0217161278424093e-13 1 0 -0 0 -1 0 0 -0 -1 
1 22 425.00000000000023 -2.0217161278424093e-13 0 1 0 1 0 0 0 0 -1 
1 720 423.00000000000006 -2.0217161278424093e-13 1 0 -0 0 -1 0 0 -0 -1 
1 22 29.000000000000114 -2.0217161278424093e-13 0 1 0 1 0 0 0 0 -1 
Triangulations 0

TShapes 93
Ve
1e-07
0 1.13686837721616e-13 -2.27373675443232e-13
0 0

0101101
*
Ve
1e-07
0 1.13686837721616e-13 6
0 0

0101101
*
Ed
 1e-07 1 1 0
1  1 0 0 6.00000000000023
2  1 1 0 0 6.00000000000023
2  2 2 0 0 6.00000000000023
0

0101000
+93 0 -92 0 *
Ve
1e-07
740 1.13686837721616e-13 -2.27373675443232e-13
0 0

0101101
*
Ve
1e-07
740 1.13686837721616e-13 6
0 0

0101101
*
Ed
 1e-07 1 1 0
1  2 0 0 6.00000000000023
2  3 1 0 0 6.00000000000023
2  4 3 0 0 6.00000000000023
0

0101000
+90 0 -89 0 *
Ed
 1e-07 1 1 0
1  3 0 0 740
2  5 1 8 0 740
2  6 4 0 0 740
0

0101000
+93 8 -90 8 *
Ed
 1e-07 1 1 0
1  4 0 0 740
2  7 1 11 0 740
2  8 5 0 0 740
0

0101000
+92 11 -89 11 *
Wi

0101100
+91 0 -88 0 -87 7 +86 10 *
Fa
0  1e-07 1 0

0101000
+85 0 *
Ve
1e-07
0 457 0
0 0

0101101
*
Ve
1e-07
0 457 6.00000000000023
0 0

0101101
*
Ed
 1e-07 1 1 0
1  5 0 0 6.00000000000023
2  9 2 0 0 6.00000000000023
2  10 6 0 0 6.00000000000023
0

0101000
+83 0 -82 0 *
Ed
 1e-07 1 1 0
1  6 0 0 457
2  11 2 8 0 457
2  12 4 0 0 457
0

0101000
+93 8 -83 8 *
Ed
 1e-07 1 1 0
1  7 0 0 457
2  13 2 11 0 457
2  14 5 0 0 457
0

0101000
+92 11 -82 11 *
Wi

0101100
+91 0 -81 0 -80 7 +79 10 *
Fa
0  1e-07 2 0

0101000
+78 0 *
Ve
1e-07
740 457 0
0 0

0101101
*
Ve
1e-07
740 457 6.00000000000023
0 0

0101101
*
Ed
 1e-07 1 1 0
1  8 0 0 6.00000000000023
2  15 3 0 0 6.00000000000023
2  16 6 0 0 6.00000000000023
0

0101000
+76 0 -75 0 *
Ed
 1e-07 1 1 0
1  9 0 0 457
2  17 3 8 0 457
2  18 4 0 0 457
0

0101000
+90 8 -76 8 *
Ed
 1e-07 1 1 0
1  10 0 0 457
2  19 3 11 0 457
2  20 5 0 0 457
0

0101000
+89 11 -75 11 *
Wi

0101100
+88 0 -74 0 -73 7 +72 10 *
Fa
0  1e-07 3 0

0101000
+71 0 *
Ed
 1e-07 1 1 0
1  11 0 0 740
2  21 6 8 0 740
2  22 4 0 0 740
0

0101000
+83 8 -76 8 *
Wi

0101100
-87 7 +80 7 -73 7 +69 7 *
Ve
1.50000474897899e-07
20 423 -2.02171612784241e-13
0 0

0101101
*
Ve
1.50000656918964e-07
22 425 -2.02171612784241e-13
0 0

0101101
*
Ed
 1.00000021980516e-07 1 1 0
1  12 0 1.5707963267949 3.14159265358979
2  23 7 0 1.5707963267949 3.14159265358979
2  24 7 13 1.5707963267949 3.14159265358979
0

0101000
+67 0 -66 0 *
Ve
1.50000656918964e-07
718 425 -2.02171612784241e-13
0 0

0101101
*
Ed
 1.50000656918964e-07 1 1 0
1  13 0 12 708
0

0101000
+66 0 -64 0 *
Ve
1.50000474897899e-07
720 423 -2.02171612784241e-13
0 0

0101101
*
Ed
 1.00000021980516e-07 1 1 0
1  14 0 1.57079632679484 3.14159265358988
2  25 8 0 1.57079632679484 3.14159265358988
2  26 8 13 1.57079632679484 3.14159265358988
0

0101000
+64 0 -62 0 *
Ve
1.5000047127117e-07
720 31.0000000000001 -2.02171612784241e-13
0 0

0101101
*
Ed
 1.5000047127117e-07 1 1 0
1  15 0 -408.5 -16.5
0

0101000
+62 0 -60 0 *
Ve
1.50000429545288e-07
718 29.0000000000001 -2.02171612784241e-13
0 0

0101101
*
Ed
 1.00000021980516e-07 1 1 0
1  16 0 1.5707963267949 3.14159265358979
2  27 9 0 1.5707963267949 3.14159265358979
2  28 9 13 1.5707963267949 3.14159265358979
0

0101000
+60 0 -58 0 *
Ve
1.50000429545288e-07
22 29.0000000000001 -2.02171612784241e-13
0 0

0101101
*
Ed
 1.50000429545288e-07 1 1 0
1  17 0 12 708
0

0101000
+56 0 -58 0 *
Ve
1.5000047127117e-07
20 31.0000000000001 -2.02171612784241e-13
0 0

0101101
*
Ed
 1.00000021980516e-07 1 1 0
1  18 0 1.5707963267949 3.14159265358979
2  29 10 0 1.5707963267949 3.14159265358979
2  30 10 13 1.5707963267949 3.14159265358979
0

0101000
+56 0 -54 0 *
Ed
 1.5000047127117e-07 1 1 0
1  19 0 -408.5 -16.5
0

0101000
+67 0 -54 0 *
Wi

0101100
-65 0 -63 0 -61 0 -59 0 -57 0 +55 0 -53 0 +52 0 *
Fa
0  1e-07 4 7

0101000
+68 0 +51 0 *
Ed
 1e-07 1 1 0
1  20 0 0 740
2  31 6 11 0 740
2  32 5 0 0 740
0

0101000
+82 11 -75 11 *
Wi

0101100
-86 10 +79 10 -72 10 +49 10 *
Ve
1.50000474897899e-07
20 423 6.00000000000002
0 0

0101101
*
Ve
1.50000656918964e-07
22 425 6.00000000000002
0 0

0101101
*
Ed
 1.0000002220446e-07 1 1 0
1  12 0 1.5707963267949 3.14159265358979
2  23 7 0 1.5707963267949 3.14159265358979
2  24 7 13 1.5707963267949 3.14159265358979
0

0101000
+47 13 -46 13 *
Ve
1.50000656918964e-07
718 425 6.00000000000002
0 0

0101101
*
Ed
 1.50000656918964e-07 1 1 0
1  13 0 12 708
0

0101000
+46 13 -44 13 *
Ve
1.50000474897899e-07
720 423 6.00000000000002
0 0

0101101
*
Ed
 1.0000002220446e-07 1 1 0
1  14 0 1.57079632679484 3.14159265358988
2  25 8 0 1.57079632679484 3.14159265358988
2  26 8 13 1.57079632679484 3.14159265358988
0

0101000
+44 13 -42 13 *
Ve
1.5000047127117e-07
720 31.0000000000001 6.00000000000002
0 0

0101101
*
Ed
 1.5000047127117e-07 1 1 0
1  15 0 -408.5 -16.5
0

0101000
+42 13 -40 13 *
Ve
1.50000429545288e-07
718 29.0000000000001 6.00000000000002
0 0

0101101
*
Ed
 1.00000021980516e-07 1 1 0
1  16 0 1.5707963267949 3.14159265358979
2  27 9 0 1.5707963267949 3.14159265358979
2  28 9 13 1.5707963267949 3.14159265358979
0

0101000
+40 13 -38 13 *
Ve
1.50000429545288e-07
22 29.0000000000001 6.00000000000002
0 0

0101101
*
Ed
 1.50000429545288e-07 1 1 0
1  17 0 12 708
0

0101000
+36 13 -38 13 *
Ve
1.5000047127117e-07
20 31.0000000000001 6.00000000000002
0 0

0101101
*
Ed
 1.00000021980516e-07 1 1 0
1  18 0 1.5707963267949 3.14159265358979
2  29 10 0 1.5707963267949 3.14159265358979
2  30 10 13 1.5707963267949 3.14159265358979
0

0101000
+36 13 -34 13 *
Ed
 1.5000047127117e-07 1 1 0
1  19 0 -408.5 -16.5
0

0101000
+47 13 -34 13 *
Wi

0101100
-45 12 -43 12 -41 12 -39 12 -37 12 +35 12 -33 12 +32 12 *
Fa
0  1e-07 5 10

0101000
+48 0 +31 0 *
Wi

0101100
+81 0 -74 0 -69 7 +49 10 *
Fa
0  1e-07 6 0

0101000
+29 0 *
Ed
 1.50000474897899e-07 1 1 0
1  21 0 0 6.00000000000023
2  33 7 0 0 6.00000000000023
4 G1 11 0 7 0
0

0101000
+67 0 -47 0 *
Ed
 1.50000656918964e-07 1 1 0
1  22 0 0 6.00000000000023
2  34 7 0 0 6.00000000000023
4 G1 12 0 7 0
0

0101000
+66 0 -46 0 *
Wi

0101100
+27 0 -26 0 -65 0 +45 12 *
Fa
0  1.00000021980516e-07 7 0

0101000
+25 0 *
Ed
 1.50000656918964e-07 1 1 0
1  23 0 0 6.00000000000023
2  35 8 0 0 6.00000000000023
4 G1 8 0 12 0
0

0101000
+64 0 -44 0 *
Wi

0101100
+26 0 -23 0 -63 0 +43 12 *
Fa
0  1.50000656918964e-07 12 0

0101000
+22 0 *
Ed
 1.50000474897899e-07 1 1 0
1  24 0 0 6.00000000000023
2  36 8 0 0 6.00000000000023
4 G1 13 0 8 0
0

0101000
+62 0 -42 0 *
Wi

0101100
+23 0 -20 0 -61 0 +41 12 *
Fa
0  1.00000021980516e-07 8 0

0101000
+19 0 *
Ed
 1.5000047127117e-07 1 1 0
1  25 0 0 6.00000000000023
2  37 9 0 0 6.00000000000023
4 G1 9 0 13 0
0

0101000
+60 0 -40 0 *
Wi

0101100
+20 0 -17 0 -59 0 +39 12 *
Fa
0  1.5000047127117e-07 13 0

0101000
+16 0 *
Ed
 1.50000429545288e-07 1 1 0
1  26 0 0 6.00000000000023
2  38 9 0 0 6.00000000000023
4 G1 14 0 9 0
0

0101000
+58 0 -38 0 *
Wi

0101100
+17 0 -14 0 -57 0 +37 12 *
Fa
0  1.00000021980516e-07 9 0

0101000
+13 0 *
Ed
 1.50000429545288e-07 1 1 0
1  27 0 0 6.00000000000023
2  39 10 0 0 6.00000000000023
4 G1 10 0 14 0
0

0101000
+56 0 -36 0 *
Wi

0101100
+11 0 -14 0 -55 0 +35 12 *
Fa
0  1.50000429545288e-07 14 0

0101000
+10 0 *
Ed
 1.5000047127117e-07 1 1 0
1  28 0 0 6.00000000000023
2  40 10 0 0 6.00000000000023
4 G1 11 0 10 0
0

0101000
+54 0 -34 0 *
Wi

0101100
+11 0 -8 0 -53 0 +33 12 *
Fa
0  1.00000021980516e-07 10 0

0101000
+7 0 *
Wi

0101100
+27 0 -8 0 -52 0 +32 12 *
Fa
0  1.5000047127117e-07 11 0

0101000
+5 0 *
Sh

0101100
-84 0 +77 0 -70 0 +50 0 -30 0 +28 0 -24 0 -21 0 -18 0 -15 0 
-12 0 +9 0 -6 0 +4 0 *
So

0100000
+3 0 *
Co

1100000
+2 0 *

+1 0 