DBRep_DrawableShape

CASCADE Topology V1, (c) Matra-Datavision
Locations 11
1
              1               0               0               0 
              0               1               0              14 
              0               0               1               0 
1
              1               0               0               0 
              0 1.11022302462516e-16               1               0 
              0              -1 1.11022302462516e-16               0 
1
              1               0               0              70 
              0               1               0            -842 
              0               0               1            1126 
1
              1               0               0               0 
              0               1               0               0 
              0               0               1 -6.00000000000023 
1
              1               0               0               0 
              0               1               0               0 
              0               0               1               1 
1
              1               0               0               0 
              0               1               0               0 
              0               0               1              -1 
2  1 1 2 1 3 1 4 1 5 1 6 1 0
2  1 1 2 1 3 1 0
2  3 -1 2 -1 1 -1 0
1
              1               0               0               0 
              0               1               0               0 
              0               0               1 6.00000000000023 
2  1 1 2 1 3 1 4 1 5 1 6 1 10 1 0
Curve2ds 24
8 -410.5 -14.5
1 14.5 20 -1 0 
8 -410.5 -14.5
1 -14.5 -7 -1 -0 
8 10 710
1 29 10 0 1 
8 10 710
1 -10 7 1 0 
8 -410.5 -14.5
1 14.5 720 -1 0 
8 -410.5 -14.5
1 -14.5 -7 -1 -0 
8 10 710
1 425 10 0 1 
8 10 710
1 -10 7 1 0 
1 0 0 0 1 
1 396 0 0 -1 
1 0 0 0 1 
1 0 0 0 -1 
8 -410.5 -14.5
1 14.5 20 -1 0 
8 -410.5 -14.5
1 -14.5 -1 -1 -0 
1 0 0 0 -1 
1 700 0 0 1 
8 10 710
1 29 10 0 1 
8 10 710
1 -10 1 1 0 
1 700 0 0 1 
1 396 0 0 -1 
8 -410.5 -14.5
1 14.5 720 -1 0 
8 -410.5 -14.5
1 -14.5 -1 -1 -0 
8 10 710
1 425 10 0 1 
8 10 710
1 -10 1 1 0 
Curves 12
1 -50 1112 856.5 -0 0 -1 
1 -60 1112 871 1 0 -0 
1 650 1112 856.5 -0 0 -1 
1 -60 1112 1267 1 0 -0 
1 -50 1105 1267 -0 1 0 
1 -50 1105 871 -0 1 0 
1 -50 1106 856.5 -0 0 -1 
1 650 1105 871 -0 1 0 
1 -60 1106 871 1 0 -0 
1 650 1105 1267 -0 1 0 
1 650 1106 856.5 -0 0 -1 
1 -60 1106 1267 1 0 -0 
Polygon3D 0
PolygonOnTriangulations 0
Surfaces 7
1 -70 1106 842 -0 1 0 0 0 1 1 0 -0 
1 -70 1112 842 -0 1 0 0 0 1 1 0 -0 
1 -50 1105 871 1 0 -0 0 0 1 0 -1 0 
1 -50 1105 871 0 0 1 1 0 -0 -0 1 0 
1 650 1105 871 1 0 -0 0 0 1 0 -1 0 
1 -50 1105 1267 0 0 1 1 0 -0 -0 1 0 
1 -70 1106 842 -0 1 0 0 0 1 1 0 -0 
Triangulations 0

TShapes 34
Ve
1.5e-07
20 425 2.27373675443232e-13
0 0

0101101
*
Ve
1.5e-07
20 29.0000000000001 0
0 0

0101101
*
Ed
 1.5e-07 1 1 0
1  1 0 -410.5 -14.5
2  1 2 0 -410.5 -14.5
2  2 3 0 -410.5 -14.5
0

0101000
+34 9 -33 9 *
Ve
1.5e-07
720 29.0000000000001 0
0 0

0101101
*
Ed
 1.5e-07 1 1 0
1  2 0 10 710
2  3 2 0 10 710
2  4 4 0 10 710
0

0101000
+33 9 -31 9 *
Ve
1.5e-07
720 425 2.27373675443232e-13
0 0

0101101
*
Ed
 1.5e-07 1 1 0
1  3 0 -410.5 -14.5
2  5 2 0 -410.5 -14.5
2  6 5 0 -410.5 -14.5
0

0101000
+29 9 -31 9 *
Ed
 1.5e-07 1 1 0
1  4 0 10 710
2  7 2 0 10 710
2  8 6 0 10 710
0

0101000
+34 9 -29 9 *
Wi

0101100
-32 8 -30 8 +28 8 +27 8 *
Fa
0  1e-07 1 7

0101000
+26 0 *
Ve
1.5e-07
20 425 6.00000000000023
0 0

0101101
*
Ed
 1e-07 1 1 0
1  5 0 1 7
2  9 6 0 1 7
2  10 3 0 1 7
0

0101000
+24 9 -34 9 *
Ve
1.5e-07
20 29.0000000000001 6
0 0

0101101
*
Ed
 1e-07 1 1 0
1  6 0 1 7
2  11 4 0 1 7
2  12 3 0 1 7
0

0101000
+22 9 -33 9 *
Ed
 1.5e-07 1 1 0
1  7 0 -410.5 -14.5
2  13 7 0 -410.5 -14.5
2  14 3 0 -410.5 -14.5
0

0101000
+24 9 -22 9 *
Wi

0101100
-23 8 -32 8 +21 8 +20 8 *
Fa
0  1e-07 3 8

0101000
+19 0 *
Ve
1.5e-07
720 29.0000000000001 6
0 0

0101101
*
Ed
 1e-07 1 1 0
1  8 0 1 7
2  15 5 0 1 7
2  16 4 0 1 7
0

0101000
+17 9 -31 9 *
Ed
 1.5e-07 1 1 0
1  9 0 10 710
2  17 7 0 10 710
2  18 4 0 10 710
0

0101000
+22 9 -17 9 *
Wi

0101100
-21 8 -30 8 +16 8 +15 8 *
Fa
0  1e-07 4 8

0101000
+14 0 *
Ve
1.5e-07
720 425 6.00000000000023
0 0

0101101
*
Ed
 1e-07 1 1 0
1  10 0 1 7
2  19 6 0 1 7
2  20 5 0 1 7
0

0101000
+12 9 -29 9 *
Ed
 1.5e-07 1 1 0
1  11 0 -410.5 -14.5
2  21 7 0 -410.5 -14.5
2  22 5 0 -410.5 -14.5
0

0101000
+12 9 -17 9 *
Wi

0101100
-11 8 -28 8 +16 8 +10 8 *
Fa
0  1e-07 5 8

0101000
+9 0 *
Ed
 1.5e-07 1 1 0
1  12 0 10 710
2  23 7 0 10 710
2  24 6 0 10 710
0

0101000
+24 9 -12 9 *
Wi

0101100
-23 8 -27 8 +11 8 +7 8 *
Fa
0  1e-07 6 8

0101000
+6 0 *
Wi

0101100
-20 8 -15 8 +10 8 +7 8 *
Fa
0  1e-07 1 11

0101000
+4 0 *
Sh

0101100
+25 0 -18 0 -13 0 +8 0 +5 0 -3 0 *
So

0100000
+2 0 *

+1 0 