DBRep_DrawableShape

CASCADE Topology V1, (c) Matra-Datavision
Locations 9
1
              1               0               0               0 
              0               1               0               0 
              0               0               1              -1 
1
              1               0               0               0 
              0               1               0               0 
              0               0               1               0 
1
              1               0               0               0 
              0               1               0               6 
              0               0               1               0 
1
              1               0               0               0 
              0 1.11022302462516e-16               1               0 
              0              -1 1.11022302462516e-16               0 
1
              1               0               0            -355 
              0               1               0            -688 
              0               0               1          1334.1 
1
              1               0               0               0 
              0               1               0               0 
              0               0               1              -0 
1
              1               0               0               0 
              0               1               0               0 
              0               0               1               1 
2  2 1 3 1 4 1 5 1 6 1 7 1 0
2  7 -1 6 -1 5 -1 4 -1 3 -1 2 -1 0
Curve2ds 4
1 0 0 0 1 
1 0 240 1 0 
1 0 0 1 0 
1 100 0 0 1 
Curves 4
1 355 1328.0999999999999 688 1 0 -0 
1 595 1328.0999999999999 688 0 0 1 
1 355 1328.0999999999999 688 0 0 1 
1 355 1328.0999999999999 788 1 0 -0 
Polygon3D 0
PolygonOnTriangulations 0
Surfaces 1
1 355 1328.0999999999999 688 -0 1 0 0 0 1 1 0 -0 
Triangulations 0

TShapes 9
Ve
1e-07
0 1.13686837721616e-13 1
0 0

0101101
*
Ve
1e-07
240 1.13686837721616e-13 1
0 0

0101101
*
Ed
 1e-07 1 1 0
1  1 0 0 240
2  1 1 0 0 240
0

0101000
+9 9 -8 9 *
Ve
1e-07
240 100 1
0 0

0101101
*
Ed
 1e-07 1 1 0
1  2 0 0 100
2  2 1 0 0 100
0

0101000
+8 9 -6 9 *
Ve
1e-07
0 100 1
0 0

0101101
*
Ed
 1e-07 1 1 0
1  3 0 0 100
2  3 1 0 0 100
0

0101000
+9 9 -4 9 *
Ed
 1e-07 1 1 0
1  4 0 0 240
2  4 1 0 0 240
0

0101000
+4 9 -6 9 *
Wi

0101100
-7 8 -5 8 +3 8 +2 8 *

-1 1 