DBRep_DrawableShape

CASCADE Topology V1, (c) Matra-Datavision
Locations 14
1
              1               0               0               0 
              0               1               0               0 
              0               0               1               0 
1
              1               0               0               0 
              0               1               0               6 
              0               0               1               0 
1
              1               0               0               0 
              0 1.11022302462516e-16               1               0 
              0              -1 1.11022302462516e-16               0 
1
              1               0               0            -355 
              0               1               0            -688 
              0               0               1          1334.1 
1
              1               0               0               0 
              0               1               0               0 
              0               0               1              -0 
1
              1               0               0               0 
              0               1               0               0 
              0               0               1               1 
1
              1               0               0               0 
              0               1               0               0 
              0               0               1              -1 
2  1 1 2 1 3 1 4 1 5 1 6 1 7 1 0
2  7 -1 6 -1 5 -1 4 -1 3 -1 2 -1 1 -1 0
1
              1               0               0               0 
              0               1               0               0 
              0               0               1              12 
2  1 1 2 1 3 1 4 1 5 1 6 1 7 1 10 1 0
2  10 -1 7 -1 6 -1 5 -1 4 -1 3 -1 2 -1 1 -1 0
1
              1               0               0               0 
              0               1               0               0 
              0               0               1              12 
2  13 -1 0
Curve2ds 40
1 0 0 0 -1 
1 0 0 1.11022302462516e-16 -1 
1 240 0 0 -1 
1 0 0 1.11022302462516e-16 -1 
1 0 0 1 0 
1 0 0 0 1 
1 0 -12 1 0 
1 0 0 0 1 
1 100 1.11022302462516e-14 1.11022302462516e-16 -1 
1 0 0 0 -1 
1 0 0 1 0 
1 0 0 1 0 
1 1.332267629550192e-15 -12 1 0 
1 0 0 1 0 
1 100 1.11022302462516e-14 1.11022302462516e-16 -1 
1 240 0 0 -1 
1 0 0 1 0 
1 0 240 1 0 
1 1.332267629550192e-15 -12 1 0 
1 0 240 1 0 
1 0 0 1 0 
1 100 0 0 1 
1 0 0 1 0 
1 0 -12.000000000000009 1 0 
1 0 0 1 0 
1 0 -12.000000000000009 1 0 
1 0 0 1 0 
1 0 -12.000000000000009 1 0 
1 0 0 1 0 
1 0 -12.000000000000009 1 0 
1 0 -12 1 0 
1 100 0 0 1 
1 1.5707963267948966 0 0 -1 
1 3.1415926535897931 0 0 -1 
1 1.5707963267949108 0 0 -1 
1 3.1415926535897931 0 0 -1 
1 1.5707963267948966 0 0 -1 
1 3.1415926535898073 0 0 -1 
1 1.5707963267948966 0 0 -1 
1 3.1415926535897931 0 0 -1 
Curves 28
1 0 1.1368683772161603e-13 0 0 0 1 
1 240 1.1368683772161603e-13 0 0 0 1 
1 355 1328.0999999999999 688 1 0 -0 
1 355 1328.0999999999999 688 1 0 -0 
1 0 100.00000000000011 0 0 0 1 
1 355 1328.0999999999999 688 0 0 1 
1 355 1328.0999999999999 688 0 0 1 
1 240 100.00000000000011 0 0 0 1 
1 595 1328.0999999999999 688 0 0 1 
1 595 1328.0999999999999 688 0 0 1 
1 355 1328.0999999999999 788 1 0 -0 
2 12 88.000000000000114 5.5511151231257993e-15 -0 0 -1 0 -1 -0 -1 -0 0 2
1 5 90.000000000000114 5.5511151231257993e-15 1 0 0 
2 227.99999999999997 88.000000000000114 5.5511151231257993e-15 -0 0 -1 -1 -0 0 0 1 0 2
1 230 5.0000000000001137 5.5511151231257993e-15 0 -1 -0 
2 228 12.000000000000114 5.5511151231257993e-15 0 0 -1 0 1 0 1 -0 0 2
1 5 10.000000000000114 5.5511151231257993e-15 1 0 0 
2 12 12.000000000000114 5.5511151231257993e-15 0 0 -1 1 0 0 0 -1 0 2
1 10 5.0000000000001137 5.5511151231257993e-15 0 -1 -0 
1 355 1328.0999999999999 788 1 0 -0 
1 10 88.000000000000114 5.5511151231257993e-15 0 0 1 
1 12 90.000000000000114 5.5511151231257993e-15 0 0 1 
1 228 90.000000000000114 5.5511151231257993e-15 0 0 1 
1 230 88.000000000000114 5.5511151231257993e-15 0 0 1 
1 230 12.000000000000114 5.5511151231257993e-15 0 0 1 
1 227.99999999999997 10.000000000000114 5.5511151231257993e-15 0 0 1 
1 12 10.000000000000114 5.5511151231257993e-15 0 0 1 
1 10 12.000000000000114 5.5511151231257993e-15 0 0 1 
Polygon3D 0
PolygonOnTriangulations 0
Surfaces 14
1 0 1.1368683772161603e-13 0 0 1 0 1 0 0 0 0 -1 
1 0 1.1368683772161603e-13 0 -1 0 0 0 1 1.11022302462516e-16 0 1.11022302462516e-16 -1 
1 240 1.1368683772161603e-13 0 -1 0 0 0 1 1.11022302462516e-16 0 1.11022302462516e-16 -1 
1 355 1328.0999999999999 688 -0 1 0 0 0 1 1 0 -0 
1 355 1328.0999999999999 688 -0 1 0 0 0 1 1 0 -0 
1 0 100.00000000000011 0 0 1 0 1 0 0 0 0 -1 
2 12 88.000000000000114 5.5511151231257993e-15 -0 0 -1 0 -1 -0 -1 -0 0 2
2 227.99999999999997 88.000000000000114 5.5511151231257993e-15 -0 0 -1 -1 -0 0 0 1 0 2
2 228 12.000000000000114 5.5511151231257993e-15 0 0 -1 0 1 0 1 -0 0 2
2 12 12.000000000000114 5.5511151231257993e-15 0 0 -1 1 0 0 0 -1 0 2
1 10 88.000000000000114 5.5511151231257993e-15 1 0 -0 0 -1 0 0 -0 -1 
1 12 90.000000000000114 5.5511151231257993e-15 0 1 0 1 0 0 0 0 -1 
1 230 88.000000000000114 5.5511151231257993e-15 1 0 -0 0 -1 0 0 -0 -1 
1 12 10.000000000000114 5.5511151231257993e-15 0 1 0 1 0 0 0 0 -1 
Triangulations 0

TShapes 93
Ve
1e-07
0 1.13686837721616e-13 0
0 0

0101101
*
Ve
1e-07
0 1.13686837721616e-13 12
0 0

0101101
*
Ed
 1e-07 1 1 0
1  1 0 0 12
2  1 1 0 0 12
2  2 2 0 0 12
0

0101000
+93 0 -92 0 *
Ve
1e-07
240 1.13686837721616e-13 0
0 0

0101101
*
Ve
1e-07
240 1.13686837721616e-13 12
0 0

0101101
*
Ed
 1e-07 1 1 0
1  2 0 0 12
2  3 1 0 0 12
2  4 3 0 0 12
0

0101000
+90 0 -89 0 *
Ed
 1e-07 1 1 0
1  3 0 0 240
2  5 1 9 0 240
2  6 4 0 0 240
0

0101000
+93 9 -90 9 *
Ed
 1e-07 1 1 0
1  4 0 0 240
2  7 1 12 0 240
2  8 5 0 0 240
0

0101000
+92 12 -89 12 *
Wi

0101100
+91 0 -88 0 -87 8 +86 11 *
Fa
0  1e-07 1 0

0101000
+85 0 *
Ve
1e-07
0 100 0
0 0

0101101
*
Ve
1e-07
0 100 12
0 0

0101101
*
Ed
 1e-07 1 1 0
1  5 0 0 12
2  9 2 0 0 12
2  10 6 0 0 12
0

0101000
+83 0 -82 0 *
Ed
 1e-07 1 1 0
1  6 0 0 100
2  11 2 9 0 100
2  12 4 0 0 100
0

0101000
+93 9 -83 9 *
Ed
 1e-07 1 1 0
1  7 0 0 100
2  13 2 12 0 100
2  14 5 0 0 100
0

0101000
+92 12 -82 12 *
Wi

0101100
+91 0 -81 0 -80 8 +79 11 *
Fa
0  1e-07 2 0

0101000
+78 0 *
Ve
1e-07
240 100 0
0 0

0101101
*
Ve
1e-07
240 100 12
0 0

0101101
*
Ed
 1e-07 1 1 0
1  8 0 0 12
2  15 3 0 0 12
2  16 6 0 0 12
0

0101000
+76 0 -75 0 *
Ed
 1e-07 1 1 0
1  9 0 0 100
2  17 3 9 0 100
2  18 4 0 0 100
0

0101000
+90 9 -76 9 *
Ed
 1e-07 1 1 0
1  10 0 0 100
2  19 3 12 0 100
2  20 5 0 0 100
0

0101000
+89 12 -75 12 *
Wi

0101100
+88 0 -74 0 -73 8 +72 11 *
Fa
0  1e-07 3 0

0101000
+71 0 *
Ed
 1e-07 1 1 0
1  11 0 0 240
2  21 6 9 0 240
2  22 4 0 0 240
0

0101000
+83 9 -76 9 *
Wi

0101100
-87 8 +80 8 -73 8 +69 8 *
Ve
1.50000004070818e-07
10 88.0000000000001 5.5511151231258e-15
0 0

0101101
*
Ve
1.50000005551115e-07
12 90.0000000000001 5.5511151231258e-15
0 0

0101101
*
Ed
 1.00000004438992e-07 1 1 0
1  12 0 1.5707963267949 3.14159265358979
2  23 7 0 1.5707963267949 3.14159265358979
2  24 7 14 1.5707963267949 3.14159265358979
0

0101000
+67 0 -66 0 *
Ve
1.50000005551115e-07
228 90.0000000000001 5.5511151231258e-15
0 0

0101101
*
Ed
 1.50000005551115e-07 1 1 0
1  13 0 7 223
0

0101000
+66 0 -64 0 *
Ve
1.50000004070818e-07
230 88.0000000000001 5.5511151231258e-15
0 0

0101101
*
Ed
 1.00000004438992e-07 1 1 0
1  14 0 1.57079632679491 3.14159265358979
2  25 8 0 1.57079632679491 3.14159265358979
2  26 8 14 1.57079632679491 3.14159265358979
0

0101000
+64 0 -62 0 *
Ve
1.50000004773959e-07
230 12.0000000000001 5.5511151231258e-15
0 0

0101101
*
Ed
 1.50000004070818e-07 1 1 0
1  15 0 -83 -7
0

0101000
+62 0 -60 0 *
Ve
1.50000005551115e-07
228 10.0000000000001 5.5511151231258e-15
0 0

0101101
*
Ed
 1.00000004438992e-07 1 1 0
1  16 0 1.5707963267949 3.14159265358981
2  27 9 0 1.5707963267949 3.14159265358981
2  28 9 14 1.5707963267949 3.14159265358981
0

0101000
+60 0 -58 0 *
Ve
1.50000005551115e-07
12 10.0000000000001 5.5511151231258e-15
0 0

0101101
*
Ed
 1.50000005551115e-07 1 1 0
1  17 0 7 223
0

0101000
+56 0 -58 0 *
Ve
1.50000004773959e-07
10 12.0000000000001 5.5511151231258e-15
0 0

0101101
*
Ed
 1.00000004438992e-07 1 1 0
1  18 0 1.5707963267949 3.14159265358979
2  29 10 0 1.5707963267949 3.14159265358979
2  30 10 14 1.5707963267949 3.14159265358979
0

0101000
+56 0 -54 0 *
Ed
 1.50000004070818e-07 1 1 0
1  19 0 -83 -7
0

0101000
+67 0 -54 0 *
Wi

0101100
-65 0 -63 0 -61 0 -59 0 -57 0 +55 0 -53 0 +52 0 *
Fa
0  1e-07 4 8

0101000
+68 0 +51 0 *
Ed
 1e-07 1 1 0
1  20 0 0 240
2  31 6 12 0 240
2  32 5 0 0 240
0

0101000
+82 12 -75 12 *
Wi

0101100
-86 11 +79 11 -72 11 +49 11 *
Ve
1.50000004070818e-07
10 88.0000000000001 12
0 0

0101101
*
Ve
1.50000005551115e-07
12 90.0000000000001 12
0 0

0101101
*
Ed
 1.00000004438992e-07 1 1 0
1  12 0 1.5707963267949 3.14159265358979
2  23 7 0 1.5707963267949 3.14159265358979
2  24 7 14 1.5707963267949 3.14159265358979
0

0101000
+47 14 -46 14 *
Ve
1.50000005551115e-07
228 90.0000000000001 12
0 0

0101101
*
Ed
 1.50000005551115e-07 1 1 0
1  13 0 7 223
0

0101000
+46 14 -44 14 *
Ve
1.50000004070818e-07
230 88.0000000000001 12
0 0

0101101
*
Ed
 1.00000004438992e-07 1 1 0
1  14 0 1.57079632679491 3.14159265358979
2  25 8 0 1.57079632679491 3.14159265358979
2  26 8 14 1.57079632679491 3.14159265358979
0

0101000
+44 14 -42 14 *
Ve
1.50000004773959e-07
230 12.0000000000001 12
0 0

0101101
*
Ed
 1.50000004070818e-07 1 1 0
1  15 0 -83 -7
0

0101000
+42 14 -40 14 *
Ve
1.50000005551115e-07
228 10.0000000000001 12
0 0

0101101
*
Ed
 1.00000012434498e-07 1 1 0
1  16 0 1.5707963267949 3.14159265358981
2  27 9 0 1.5707963267949 3.14159265358981
2  28 9 14 1.5707963267949 3.14159265358981
0

0101000
+40 14 -38 14 *
Ve
1.50000005551115e-07
12 10.0000000000001 12
0 0

0101101
*
Ed
 1.50000005551115e-07 1 1 0
1  17 0 7 223
0

0101000
+36 14 -38 14 *
Ve
1.50000004773959e-07
10 12.0000000000001 12
0 0

0101101
*
Ed
 1.00000012434498e-07 1 1 0
1  18 0 1.5707963267949 3.14159265358979
2  29 10 0 1.5707963267949 3.14159265358979
2  30 10 14 1.5707963267949 3.14159265358979
0

0101000
+36 14 -34 14 *
Ed
 1.50000004070818e-07 1 1 0
1  19 0 -83 -7
0

0101000
+47 14 -34 14 *
Wi

0101100
-45 13 -43 13 -41 13 -39 13 -37 13 +35 13 -33 13 +32 13 *
Fa
0  1e-07 5 11

0101000
+48 0 +31 0 *
Wi

0101100
+81 0 -74 0 -69 8 +49 11 *
Fa
0  1e-07 6 0

0101000
+29 0 *
Ed
 1.50000004070818e-07 1 1 0
1  21 0 0 12
2  33 7 0 0 12
4 G1 11 0 7 0
0

0101000
+67 0 -47 0 *
Ed
 1.50000005551115e-07 1 1 0
1  22 0 0 12
2  34 7 0 0 12
4 G1 12 0 7 0
0

0101000
+66 0 -46 0 *
Wi

0101100
+27 0 -26 0 -65 0 +45 13 *
Fa
0  1.00000004438992e-07 7 0

0101000
+25 0 *
Ed
 1.50000005551115e-07 1 1 0
1  23 0 0 12
2  35 8 0 0 12
4 G1 8 0 12 0
0

0101000
+64 0 -44 0 *
Wi

0101100
+26 0 -23 0 -63 0 +43 13 *
Fa
0  1.50000005551115e-07 12 0

0101000
+22 0 *
Ed
 1.50000004070818e-07 1 1 0
1  24 0 0 12
2  36 8 0 0 12
4 G1 13 0 8 0
0

0101000
+62 0 -42 0 *
Wi

0101100
+23 0 -20 0 -61 0 +41 13 *
Fa
0  1.00000004438992e-07 8 0

0101000
+19 0 *
Ed
 1.50000004773959e-07 1 1 0
1  25 0 0 12
2  37 9 0 0 12
4 G1 9 0 13 0
0

0101000
+60 0 -40 0 *
Wi

0101100
+20 0 -17 0 -59 0 +39 13 *
Fa
0  1.50000004070818e-07 13 0

0101000
+16 0 *
Ed
 1.50000005551115e-07 1 1 0
1  26 0 0 12
2  38 9 0 0 12
4 G1 14 0 9 0
0

0101000
+58 0 -38 0 *
Wi

0101100
+17 0 -14 0 -57 0 +37 13 *
Fa
0  1.00000004438992e-07 9 0

0101000
+13 0 *
Ed
 1.50000005551115e-07 1 1 0
1  27 0 0 12
2  39 10 0 0 12
4 G1 10 0 14 0
0

0101000
+56 0 -36 0 *
Wi

0101100
+11 0 -14 0 -55 0 +35 13 *
Fa
0  1.50000005551115e-07 14 0

0101000
+10 0 *
Ed
 1.50000004773959e-07 1 1 0
1  28 0 0 12
2  40 10 0 0 12
4 G1 11 0 10 0
0

0101000
+54 0 -34 0 *
Wi

0101100
+11 0 -8 0 -53 0 +33 13 *
Fa
0  1.00000004438992e-07 10 0

0101000
+7 0 *
Wi

0101100
+27 0 -8 0 -52 0 +32 13 *
Fa
0  1.50000004070818e-07 11 0

0101000
+5 0 *
Sh

0101100
-84 0 +77 0 -70 0 +50 0 -30 0 +28 0 -24 0 -21 0 -18 0 -15 0 
-12 0 +9 0 -6 0 +4 0 *
So

0100000
+3 0 *
Co

1100000
+2 0 *

+1 0 