DBRep_DrawableShape

CASCADE Topology V1, (c) Matra-Datavision
Locations 16
1
1.11022302462516e-16               0               1               0 
              0               1               0               0 
             -1               0 1.11022302462516e-16               0 
1
              1               0               0            -686 
              0               1               0         -1274.1 
              0               0               1             247 
1
              1               0               0               0 
              0               1               0               0 
              0               0               1 -12.0000000000001 
1
              1               0               0               0 
              0               1               0               0 
              0               0               1               1 
1
              1               0               0               0 
              0               1               0               0 
              0               0               1              -1 
1
              1               0               0               0 
              0               1               0               0 
              0               0               1              -0 
1
              1               0               0               0 
              0               1               0               0 
              0               0               1               1 
1
              1               0               0               0 
              0               1               0               0 
              0               0               1              -1 
2  1 1 2 1 3 1 4 1 5 1 6 1 7 1 8 1 0
2  5 1 6 1 7 1 8 1 0
2  1 1 2 1 3 1 4 1 0
2  8 -1 7 -1 6 -1 5 -1 0
2  1 1 2 1 6 1 7 1 8 1 0
2  1 1 2 1 3 1 4 1 5 1 2 -1 1 -1 0
2  8 -1 7 -1 6 -1 2 -1 1 -1 0
2  8 -1 7 -1 6 -1 5 -1 4 -1 3 -1 2 -1 1 -1 0
Curve2ds 4
1 0 0 1 0 
1 32 0 0 -1 
1 0 -36 1 0 
1 0 0 0 -1 
Curves 4
1 0 0 1 1 0 1.11022302462516e-16 
1 247 1274.0999999999999 718 -0 1 0 
1 0 36 1 1 0 1.11022302462516e-16 
1 235 1274.0999999999999 686 -0 1 0 
Polygon3D 0
PolygonOnTriangulations 0
Surfaces 1
1 235 1274.0999999999999 686 1 0 -0 0 0 1 0 -1 0 
Triangulations 0

TShapes 11
Ve
1.00000035638159e-07
0 0 -7.105427357601e-15
0 0

0101101
*
Ve
1.00000110245146e-07
32 0 8.5265128291212e-14
0 0

0101101
*
Ed
 1.00000028532732e-07 1 1 0
1  1 0 -1.57772181044203e-30 32
2  1 1 11 -1.57772181044203e-30 32
0

0101000
+11 12 -10 12 *
Ve
1.00000110245146e-07
32 36 8.5265128291212e-14
0 0

0101101
*
Ed
 1.00000110245146e-07 1 1 0
1  2 0 0 36
2  2 1 14 0 36
0

0101000
+10 15 -8 15 *
Ve
1.00000035638159e-07
0 36 -7.105427357601e-15
0 0

0101101
*
Ed
 1.00000028532732e-07 1 1 0
1  3 0 -1.57772181044203e-30 32
2  3 1 11 -1.57772181044203e-30 32
0

0101000
+6 12 -8 12 *
Ed
 1.00000028532732e-07 1 1 0
1  4 0 0 36
2  4 1 0 0 36
0

0101000
+11 16 -6 16 *
Wi

0101100
-9 10 -7 13 +5 10 +4 9 *
Fa
0  1.00000028532732e-07 1 9

0101000
+3 0 *
Sh

1101000
-2 0 *

+1 0 