DBRep_DrawableShape

CASCADE Topology V1, (c) Matra-Datavision
Locations 10
1
              1               0               0               0 
              0               1               0               0 
              0               0               1              -1 
2  1 -1 0
1
1.11022302462516e-16               0              -1               0 
              0               1               0               0 
              1               0 1.11022302462516e-16               0 
1
              1               0               0             784 
              0               1               0         -1274.1 
              0               0               1 -3.00000000000008 
2  3 1 4 1 0
2  4 -1 3 -1 0
1
              1               0               0               0 
              0               1               0               0 
              0               0               1             -12 
1
              1               0               0               0 
              0               1               0               0 
              0               0               1               1 
2  3 1 4 1 7 1 8 1 1 1 0
2  8 -1 7 -1 4 -1 3 -1 0
Curve2ds 17
1 49 -18 -1 0 
1 32 0 0 1 
1 0 0 1 0 
1 0 3 1 0 
1 0 0 1 0 
1 32 0 0 -1 
1 0 0 0 1 
1 49 18 -1 0 
1 49 -18 0 1 
1 32 0 0 1 
1 0 36 1 0 
1 3 0 0 1 
1 32 0 0 -1 
1 0 3 1 0 
1 0 -36 1 0 
1 3 0 0 1 
1 0 0 0 -1 
Curves 12
1 98 0 0.99999999999999467 -1 0 1.11022302462516e-16 
1 3 1274.0999999999999 718 1 0 -0 
1 6 1274.0999999999999 686 0 0 1 
1 98 0 -3.5527136788005009e-15 0 0 1 
1 3 1274.0999999999999 718 -0 1 0 
1 98 36 0.99999999999999467 -1 0 1.11022302462516e-16 
1 15 1274.0999999999999 686 -0 1 0 
1 3 1310.0999999999999 718 1 0 -0 
1 6 1274.0999999999999 718 -0 1 0 
1 6 1310.0999999999999 686 0 0 1 
1 6 1274.0999999999999 686 -0 1 0 
1 98 36 -3.5527136788005009e-15 0 0 1 
Polygon3D 0
PolygonOnTriangulations 0
Surfaces 10
1 98 0 -5.3290705182007514e-15 0 -1 0 -1 0 1.11022302462516e-16 -1.11022302462516e-16 -0 -1 
1 49 18 0.99999999999999889 0 0 1 1 0 -0 -0 1 0 
1 3 1274.0999999999999 686 -0 1 0 0 0 1 1 0 -0 
1 3 1274.0999999999999 718 0 0 1 1 0 -0 -0 1 0 
1 6 1274.0999999999999 686 1 0 -0 0 0 1 0 -1 0 
1 3 1274.0999999999999 686 1 0 -0 0 0 1 0 -1 0 
1 3 1310.0999999999999 686 -0 1 0 0 0 1 1 0 -0 
1 3 1274.0999999999999 686 0 0 1 1 0 -0 -0 1 0 
1 98 0 -5.3290705182007514e-15 -1 0 0 0 1 0 0 0 -1 
1 98 36 -5.3290705182007514e-15 0 -1 0 -1 0 1.11022302462516e-16 -1.11022302462516e-16 -0 -1 
Triangulations 0

TShapes 34
Ve
1.00000003663736e-07
98 0 0.999999999999996
0 0

0101101
*
Ve
1.00000004773959e-07
66 0 0
0 0

0101101
*
Ed
 1.00000003663736e-07 1 1 0
1  1 0 1.97215226305254e-31 32
2  1 2 0 1.97215226305254e-31 32
0

0101000
+34 0 -33 2 *
Ve
1e-07
66 0 3
0 0

0101101
*
Ed
 1e-07 1 1 0
1  2 0 0 3
2  2 3 0 0 3
2  3 4 0 0 3
0

0101000
+33 6 -31 6 *
Ve
1.00000003663736e-07
98 0 3
0 0

0101101
*
Ed
 1e-07 1 1 0
1  3 0 0 32
2  4 3 0 0 32
2  5 5 0 0 32
0

0101000
+29 6 -31 6 *
Ed
 1.00000003663736e-07 1 1 0
1  4 0 0 3
0

0101000
+34 1 -29 0 *
Wi

0101100
-32 1 -30 5 +28 5 +27 0 *
Fa
0  1e-07 1 0

0101000
+26 0 *
Ve
1.00000004773959e-07
66 36 0
0 0

0101101
*
Ed
 1.00000004773959e-07 1 1 0
1  5 0 0 36
2  6 6 0 0 36
2  7 4 0 0 36
0

0101000
+33 6 -24 6 *
Ve
1.00000003663736e-07
98 36 0.999999999999996
0 0

0101101
*
Ed
 1.00000003663736e-07 1 1 0
1  6 0 1.97215226305254e-31 32
2  8 2 0 1.97215226305254e-31 32
0

0101000
+22 0 -24 2 *
Ed
 1.00000003663736e-07 1 1 0
1  7 0 0 36
2  9 2 10 0 36
0

0101000
+34 10 -22 10 *
Wi

0101100
-32 1 -23 5 +21 1 +20 9 *
Fa
0  1.00000003663736e-07 2 1

0101000
+19 0 *
Ve
1e-07
66 36 3
0 0

0101101
*
Ed
 1e-07 1 1 0
1  8 0 0 3
2  10 7 0 0 3
2  11 4 0 0 3
0

0101000
+24 6 -17 6 *
Ed
 1e-07 1 1 0
1  9 0 0 36
2  12 4 0 0 36
2  13 5 0 0 36
0

0101000
+31 6 -17 6 *
Wi

0101100
-23 5 -16 5 +15 5 +30 5 *
Fa
0  1e-07 4 5

0101000
+14 0 *
Ve
1.00000003663736e-07
98 36 3
0 0

0101101
*
Ed
 1e-07 1 1 0
1  10 0 0 32
2  14 7 0 0 32
2  15 5 0 0 32
0

0101000
+12 6 -17 6 *
Ed
 1.00000003663736e-07 1 1 0
1  11 0 0 36
2  16 8 0 0 36
2  17 5 0 0 36
0

0101000
+29 6 -12 6 *
Wi

0101100
-28 5 -15 5 +11 5 +10 5 *
Fa
0  1e-07 5 5

0101000
+9 0 *
Ed
 1.00000003663736e-07 1 1 0
1  12 0 0 3
0

0101000
+22 1 -12 0 *
Wi

0101100
-20 9 -7 0 +10 5 +27 0 *
Fa
0  1.00000003663736e-07 9 0

0101000
+6 0 *
Wi

0101100
-21 1 -16 5 +11 5 +7 0 *
Fa
0  1e-07 10 0

0101000
+4 0 *
Sh

0101100
+25 0 -18 0 +13 0 +8 0 -5 0 -3 0 *
So

0100000
+2 0 *

+1 0 