DBRep_DrawableShape

CASCADE Topology V1, (c) Matra-Datavision
Locations 0
Curve2ds 0
Curves 4
1 243.99999999999991 0 1.4940690949597666e-14 0 1 0 
1 243.99999999999991 36 1.4940690949597666e-14 -1 0 0 
1 -8.5265128291212022e-14 0 1.4940690949597666e-14 0 1 0 
1 243.99999999999991 0 1.4940690949597666e-14 -1 0 0 
Polygon3D 0
PolygonOnTriangulations 0
Surfaces 0
Triangulations 0

TShapes 9
Ve
1e-07
244 0 1.49406909495977e-14
0 0

0101101
*
Ve
1e-07
244 36 1.49406909495977e-14
0 0

0101101
*
Ed
 1e-07 1 1 0
1  1 0 0 36
0

0101000
+9 0 -8 0 *
Ve
1e-07
-8.5265128291212e-14 36 1.49406909495977e-14
0 0

0101101
*
Ed
 1e-07 1 1 0
1  2 0 -0 244
0

0101000
+8 0 -6 0 *
Ve
1e-07
-8.5265128291212e-14 0 1.49406909495977e-14
0 0

0101101
*
Ed
 1e-07 1 1 0
1  3 0 0 36
0

0101000
+4 0 -6 0 *
Ed
 1e-07 1 1 0
1  4 0 -0 244
0

0101000
+9 0 -4 0 *
Wi

0101100
+7 0 +5 0 -3 0 -2 0 *

+1 0 