DBRep_DrawableShape

CASCADE Topology V1, (c) Matra-Datavision
Locations 12
1
             -1               0 -1.22464679914735e-16               0 
              0               1               0               0 
1.22464679914735e-16               0              -1               0 
1
              1               0               0             597 
              0               1               0         -1274.1 
              0               0               1             796 
1
              1               0               0               0 
              0               1               0               0 
              0               0               1             -12 
1
              1               0               0               0 
              0               1               0               0 
              0               0               1               1 
1
              1               0               0               0 
              0               1               0               0 
              0               0               1              -1 
2  1 1 2 1 3 1 4 1 5 1 0
2  5 -1 4 -1 3 -1 2 -1 1 -1 0
1
              1               0               0               0 
              0               1               0               0 
              0               0               1 12.0000000000001 
2  1 1 2 1 3 1 4 1 5 1 8 1 0
2  8 -1 5 -1 4 -1 3 -1 2 -1 1 -1 0
2  1 1 2 1 3 1 4 1 0
2  5 1 8 1 0
Curve2ds 24
1 0 0 0 -1 
1 0 -0 1.22464679914735e-16 -1 
1 36 0 0 -1 
1 0 -0 1.22464679914735e-16 -1 
1 0 0 1 0 
1 0 0 0 1 
1 0 -12.000000000000114 1 0 
1 0 0 0 1 
1 244 -8.3805455822420691e-14 1.22464679914735e-16 -1 
1 36 0 0 -1 
1 0 -0 1 0 
1 0 36 1 0 
1 1.469576158976834e-15 -12.000000000000114 1 0 
1 0 36 1 0 
1 0 0 0 -1 
1 244 -8.3805455822420691e-14 1.22464679914735e-16 -1 
1 0 0 1 0 
1 244 0 0 1 
1 0 -12.000000000000114 1 0 
1 244 0 0 1 
1 0 -0 1 0 
1 0 0 1 0 
1 1.469576158976834e-15 -12.000000000000114 1 0 
1 0 0 1 0 
Curves 12
1 243.99999999999989 0 0 0 0 1 
1 243.99999999999989 36 0 0 0 1 
1 353 1274.0999999999999 784 -0 1 0 
1 353 1274.0999999999999 784 -0 1 0 
1 -1.1368683772161603e-13 36 1.1368683772161603e-13 0 0 1 
1 353 1310.0999999999999 784 1 0 -0 
1 353 1310.0999999999999 784 1 0 -0 
1 -1.1368683772161603e-13 0 1.1368683772161603e-13 0 0 1 
1 597 1274.0999999999999 784 -0 1 0 
1 597 1274.0999999999999 784 -0 1 0 
1 353 1274.0999999999999 784 1 0 -0 
1 353 1274.0999999999999 784 1 0 -0 
Polygon3D 0
PolygonOnTriangulations 0
Surfaces 6
1 243.99999999999989 0 0 -1 0 0 0 1 0 0 0 -1 
1 243.99999999999989 0 0 0 -1 0 -1 0 1.22464679914735e-16 -1.22464679914735e-16 -0 -1 
1 243.99999999999989 36 0 0 -1 0 -1 0 1.22464679914735e-16 -1.22464679914735e-16 -0 -1 
1 353 1274.0999999999999 784 0 0 1 1 0 -0 -0 1 0 
1 353 1274.0999999999999 784 0 0 1 1 0 -0 -0 1 0 
1 -1.1368683772161603e-13 0 1.1368683772161603e-13 -1 0 0 0 1 0 0 0 -1 
Triangulations 0

TShapes 34
Ve
1e-07
244 0 0
0 0

0101101
*
Ve
1e-07
244 0 12.0000000000001
0 0

0101101
*
Ed
 1e-07 1 1 0
1  1 0 0 12.0000000000001
2  1 1 0 0 12.0000000000001
2  2 2 0 0 12.0000000000001
0

0101000
+34 0 -33 0 *
Ve
1e-07
244 36 0
0 0

0101101
*
Ve
1e-07
244 36 12.0000000000001
0 0

0101101
*
Ed
 1e-07 1 1 0
1  2 0 0 12.0000000000001
2  3 1 0 0 12.0000000000001
2  4 3 0 0 12.0000000000001
0

0101000
+31 0 -30 0 *
Ed
 1e-07 1 1 0
1  3 0 0 36
2  5 1 7 0 36
2  6 4 0 0 36
0

0101000
+34 7 -31 7 *
Ed
 1e-07 1 1 0
1  4 0 0 36
2  7 1 10 0 36
2  8 5 0 0 36
0

0101000
+33 10 -30 10 *
Wi

0101100
+32 0 -29 0 -28 6 +27 9 *
Fa
0  1e-07 1 0

0101000
+26 0 *
Ve
1e-07
-1.13686837721616e-13 36 1.13686837721616e-13
0 0

0101101
*
Ve
1e-07
-1.13686837721616e-13 36 12.0000000000002
0 0

0101101
*
Ed
 1e-07 1 1 0
1  5 0 0 12.0000000000001
2  9 3 0 0 12.0000000000001
2  10 6 0 0 12.0000000000001
0

0101000
+24 0 -23 0 *
Ed
 1e-07 1 1 0
1  6 0 0 244
2  11 3 7 0 244
2  12 4 0 0 244
0

0101000
+31 7 -24 7 *
Ed
 1e-07 1 1 0
1  7 0 0 244
2  13 3 10 0 244
2  14 5 0 0 244
0

0101000
+30 10 -23 10 *
Wi

0101100
+29 0 -22 0 -21 6 +20 9 *
Fa
0  1e-07 3 0

0101000
+19 0 *
Ve
1e-07
-1.13686837721616e-13 0 1.13686837721616e-13
0 0

0101101
*
Ve
1e-07
-1.13686837721616e-13 0 12.0000000000002
0 0

0101101
*
Ed
 1e-07 1 1 0
1  8 0 0 12.0000000000001
2  15 6 0 0 12.0000000000001
2  16 2 0 0 12.0000000000001
0

0101000
+17 0 -16 0 *
Ed
 1e-07 1 1 0
1  9 0 0 36
2  17 6 7 0 36
2  18 4 0 0 36
0

0101000
+17 7 -24 7 *
Ed
 1e-07 1 1 0
1  10 0 0 36
2  19 6 10 0 36
2  20 5 0 0 36
0

0101000
+16 10 -23 10 *
Wi

0101100
+15 0 -22 0 -14 6 +13 9 *
Fa
0  1e-07 6 0

0101000
+12 0 *
Ed
 1e-07 1 1 0
1  11 0 0 244
2  21 2 7 0 244
2  22 4 0 0 244
0

0101000
+34 7 -17 7 *
Ed
 1e-07 1 1 0
1  12 0 0 244
2  23 2 10 0 244
2  24 5 0 0 244
0

0101000
+33 10 -16 10 *
Wi

0101100
+32 0 -15 0 -10 6 +9 9 *
Fa
0  1e-07 2 0

0101000
+8 0 *
Wi

0101100
-28 11 -21 11 +14 11 +10 11 *
Fa
0  1e-07 4 11

0101000
+6 0 *
Wi

0101100
-27 11 -20 11 +13 11 +9 11 *
Fa
0  1e-07 5 11

0101000
+4 0 *
Sh

0101100
-25 0 -18 0 +11 0 +7 0 +5 5 -3 12 *
So

1100000
+2 0 *

+1 0 