DBRep_DrawableShape

CASCADE Topology V1, (c) Matra-Datavision
Locations 27
1
              1               0               0               0 
              0               1               0               0 
              0               0               1              -1 
1
              1               0               0               0 
              0               1               0               0 
              0               0               1              -0 
1
              1               0               0               0 
              0               1               0               0 
              0               0               1               1 
1
              1               0               0               0 
              0               1               0               0 
              0               0               1              -1 
1
              1               0               0               0 
              0               1               0               0 
              0               0               1 3.00000000000012 
2  1 1 2 1 3 1 4 1 5 1 0
1
1.11022302462516e-16               0               1               0 
              0               1               0               0 
             -1               0 1.11022302462516e-16               0 
1
              1               0               0            -686 
              0               1               0         -1274.1 
              0               0               1             597 
1
              1               0               0               0 
              0               1               0               0 
              0               0               1 -12.0000000000001 
1
              1               0               0               0 
              0               1               0               0 
              0               0               1               1 
2  7 1 8 1 9 1 10 1 0
2  5 -1 4 -1 3 -1 2 -1 1 -1 0
2  1 -1 0
1
              1               0               0               0 
              0               1               0               0 
              0               0               1              12 
2  1 1 14 1 0
2  14 -1 1 -1 0
2  7 1 8 1 9 1 10 1 1 1 2 1 3 1 4 1 5 1 0
2  7 1 8 1 2 1 3 1 4 1 5 1 0
2  7 1 8 1 9 1 10 1 1 1 8 -1 7 -1 0
2  5 -1 4 -1 3 -1 2 -1 8 -1 7 -1 0
2  5 -1 4 -1 3 -1 2 -1 1 -1 10 -1 9 -1 8 -1 7 -1 0
2  7 1 8 1 2 1 3 1 4 1 0
2  4 -1 3 -1 2 -1 8 -1 7 -1 0
2  7 1 8 1 9 1 10 1 1 1 0
2  1 -1 10 -1 9 -1 8 -1 7 -1 0
2  7 1 8 1 9 1 10 1 1 1 14 1 0
2  14 -1 1 -1 10 -1 9 -1 8 -1 7 -1 0
Curve2ds 26
1 0 0 1 0 
1 0 0 1 0 
1 0 0 1 0 
1 98 1.0880185641326567e-14 1.11022302462516e-16 -1 
1 0 0 0 -1 
1 1.3322676295501932e-15 -12.000000000000011 1 0 
1 0 0 1 0 
1 0 0 1.11022302462516e-16 -1 
1 0 0 0 -1 
1 32 0 0 -1 
1 0 -36 1 0 
1 0 0 0 -1 
1 0 0 1 0 
1 98 0 0 -1 
1 0 0 1 0 
1 0 -36 1 0 
1 36 0 0 -1 
1 98 1.0880185641326567e-14 1.11022302462516e-16 -1 
1 0 -12 1 0 
1 98 0 0 -1 
1 1.3322676295501932e-15 -12.000000000000011 1 0 
1 0 -36 1 0 
1 0 -12 1 0 
1 0 0 0 -1 
1 0 0 1.11022302462516e-16 -1 
1 36 0 0 -1 
Curves 17
1 1.1368683772161603e-13 0 1 1 0 1.11022302462516e-16 
1 32.000000000000114 0 1.1368683772161603e-13 0 0 1 
1 1.1368683772161603e-13 0 1 1 0 1.11022302462516e-16 
1 98.000000000000114 0 0 0 0 1 
1 1.1368683772161603e-13 0 1 1 0 1.11022302462516e-16 
1 1.1368683772161603e-13 0 0 0 0 1 
1 597 1274.0999999999999 718 -0 1 0 
1 1.1368683772161603e-13 36 1 1 0 1.11022302462516e-16 
1 585 1274.0999999999999 686 -0 1 0 
1 32.000000000000114 36 1.1368683772161603e-13 0 0 1 
1 585 1274.0999999999999 784 -0 1 0 
1 1.1368683772161603e-13 36 1 1 0 1.11022302462516e-16 
1 98.000000000000114 36 0 0 0 1 
1 585 1274.0999999999999 784 -0 1 0 
1 1.1368683772161603e-13 36 1 1 0 1.11022302462516e-16 
1 585 1274.0999999999999 686 -0 1 0 
1 1.1368683772161603e-13 36 0 0 0 1 
Polygon3D 0
PolygonOnTriangulations 0
Surfaces 8
1 1.1368683772161603e-13 0 0 0 1 0 1 -0 1.11022302462516e-16 1.11022302462516e-16 0 -1 
1 585 1274.0999999999999 686 1 0 -0 0 0 1 0 -1 0 
1 585 1274.0999999999999 686 1 0 -0 0 0 1 0 -1 0 
1 98.000000000000114 0 0 -1 0 0 0 1 0 0 0 -1 
1 585 1274.0999999999999 686 1 0 -0 0 0 1 0 -1 0 
1 1.1368683772161603e-13 0 0 -1 0 0 0 1 0 0 0 -1 
1 32.000000000000114 0 1.1368683772161603e-13 -1 0 0 0 1 0 0 0 -1 
1 1.1368683772161603e-13 36 0 0 1 0 1 -0 1.11022302462516e-16 1.11022302462516e-16 0 -1 
Triangulations 0

TShapes 49
Ve
1.00000001017915e-07
1.13686837721616e-13 0 3.00000000000012
0 0

0101101
*
Ve
1.00000113686838e-07
32.0000000000001 0 3.00000000000023
0 0

0101101
*
Ed
 1e-07 1 1 0
1  1 0 0 32
2  1 2 11 0 32
0

0101000
+49 12 -48 12 *
Ve
1.00000113686838e-07
32.0000000000001 0 1.13686837721616e-13
0 0

0101101
*
Ed
 1.00000113686838e-07 1 1 0
1  2 0 0 3.00000000000012
0

0101000
+46 0 -48 0 *
Ve
1e-07
98.0000000000001 0 0
0 0

0101101
*
Ed
 1e-07 1 1 0
1  3 0 32 98
2  2 1 13 32 98
2  3 3 11 32 98
0

0101000
+46 13 -44 13 *
Ve
1e-07
98.0000000000001 0 12
0 0

0101101
*
Ed
 1e-07 1 1 0
1  4 0 0 12
2  4 1 0 0 12
2  5 4 0 0 12
0

0101000
+44 0 -42 0 *
Ve
1e-07
1.13686837721616e-13 0 12
0 0

0101101
*
Ed
 1e-07 1 1 0
1  5 0 0 98
2  6 1 16 0 98
2  7 5 11 0 98
0

0101000
+40 16 -42 16 *
Ed
 1e-07 1 1 0
1  6 0 3.00000000000012 12
2  8 1 0 3.00000000000012 12
2  9 6 0 3.00000000000012 12
0

0101000
+49 0 -40 0 *
Wi

0101100
-47 6 +45 0 -43 1 -41 0 +39 15 +38 0 *
Fa
0  1e-07 1 0

0101000
+37 0 *
Ve
1.00000113686838e-07
32.0000000000001 36 3.00000000000023
0 0

0101101
*
Ed
 1.00000113686838e-07 1 1 0
1  7 0 0 36
2  10 2 19 0 36
0

0101000
+48 20 -35 20 *
Ve
1.00000001017915e-07
1.13686837721616e-13 36 3.00000000000012
0 0

0101101
*
Ed
 1e-07 1 1 0
1  8 0 0 32
2  11 2 11 0 32
0

0101000
+33 12 -35 12 *
Ed
 1e-07 1 1 0
1  9 0 0 36
2  12 2 0 0 36
0

0101000
+49 21 -33 21 *
Wi

0101100
-47 6 -34 18 +32 6 +31 17 *
Fa
0  1e-07 2 17

0101000
+30 0 *
Ve
1.00000113686838e-07
32.0000000000001 36 1.13686837721616e-13
0 0

0101101
*
Ed
 1.00000113686838e-07 1 1 0
1  10 0 0 3.00000000000012
0

0101000
+28 0 -35 0 *
Ed
 1.00000113686838e-07 1 1 0
1  7 0 0 36
2  10 2 19 0 36
0

0101000
+46 23 -28 23 *
Wi

0101100
+45 0 -27 0 -26 22 +34 18 *
Fa
0  1.00000113686838e-07 7 0

0101000
+25 0 *
Ve
1e-07
98.0000000000001 36 0
0 0

0101101
*
Ed
 1e-07 1 1 0
1  11 0 0 36
2  13 4 25 0 36
2  14 3 0 0 36
0

0101000
+44 25 -23 25 *
Ed
 1e-07 1 1 0
1  12 0 32 98
2  15 8 13 32 98
2  16 3 11 32 98
0

0101000
+28 13 -23 13 *
Wi

0101100
-43 1 -22 24 +21 1 +26 22 *
Fa
0  1e-07 3 24

0101000
+20 0 *
Ve
1e-07
98.0000000000001 36 12
0 0

0101101
*
Ed
 1e-07 1 1 0
1  13 0 0 12
2  17 4 0 0 12
2  18 8 0 0 12
0

0101000
+23 0 -18 0 *
Ed
 1e-07 1 1 0
1  14 0 0 36
2  19 4 27 0 36
2  20 5 0 0 36
0

0101000
+42 27 -18 27 *
Wi

0101100
+41 0 -17 0 -22 24 +16 26 *
Fa
0  1e-07 4 0

0101000
+15 0 *
Ve
1e-07
1.13686837721616e-13 36 12
0 0

0101101
*
Ed
 1e-07 1 1 0
1  15 0 0 98
2  21 8 16 0 98
2  22 5 11 0 98
0

0101000
+13 16 -18 16 *
Ed
 1e-07 1 1 0
1  16 0 0 36
2  23 6 27 0 36
2  24 5 0 0 36
0

0101000
+40 27 -13 27 *
Wi

0101100
+39 0 +16 11 -12 0 -11 11 *
Fa
0  1e-07 5 11

0111000
-10 0 *
Ed
 1e-07 1 1 0
1  17 0 3.00000000000012 12
2  25 8 0 3.00000000000012 12
2  26 6 0 3.00000000000012 12
0

0101000
+33 0 -13 0 *
Wi

0101100
-31 17 -8 0 +11 26 +38 0 *
Fa
0  1e-07 6 0

0101000
+7 0 *
Wi

0101100
-32 6 +27 0 -21 1 -17 0 +12 15 +8 0 *
Fa
0  1e-07 8 0

0101000
+5 0 *
Sh

0101100
-36 0 +29 0 +24 0 +19 0 -14 0 -9 15 +6 0 +4 0 *
So

0100000
+3 0 *
Co

1100000
+2 0 *

+1 0 