DBRep_DrawableShape

CASCADE Topology V1, (c) Matra-Datavision
Locations 7
1
              1               0               0               0 
              0               1               0               0 
              0               0               1              -1 
1
              1               0               0               0 
              0 1.11022302462516e-16              -1               0 
              0               1 1.11022302462516e-16               0 
1
              1               0               0            -353 
              0               1               0             796 
              0               0               1         -1262.1 
1
              1               0               0               0 
              0               1               0               0 
              0               0               1              -0 
1
              1               0               0               0 
              0               1               0               0 
              0               0               1               1 
2  2 1 3 1 4 1 5 1 0
2  5 -1 4 -1 3 -1 2 -1 0
Curve2ds 4
1 0 0 0 1 
1 0 244 1 0 
1 110 0 0 1 
1 0 0 1 0 
Curves 4
1 353 1262.0999999999999 686 1 0 -0 
1 597 1262.0999999999999 686 0 0 1 
1 353 1262.0999999999999 796 1 0 -0 
1 353 1262.0999999999999 686 0 0 1 
Polygon3D 0
PolygonOnTriangulations 0
Surfaces 1
1 353 1262.0999999999999 686 -0 1 0 0 0 1 1 0 -0 
Triangulations 0

TShapes 9
Ve
1e-07
0 110 1
0 0

0101101
*
Ve
1e-07
244 110 1
0 0

0101101
*
Ed
 1e-07 1 1 0
1  1 0 0 244
2  1 1 0 0 244
0

0101000
+9 7 -8 7 *
Ve
1e-07
244 1.13686837721616e-13 1
0 0

0101101
*
Ed
 1e-07 1 1 0
1  2 0 0 110
2  2 1 0 0 110
0

0101000
+8 7 -6 7 *
Ve
1e-07
0 1.13686837721616e-13 1
0 0

0101101
*
Ed
 1e-07 1 1 0
1  3 0 0 244
2  3 1 0 0 244
0

0101000
+4 7 -6 7 *
Ed
 1e-07 1 1 0
1  4 0 0 110
2  4 1 0 0 110
0

0101000
+9 7 -4 7 *
Wi

0101100
-7 6 -5 6 +3 6 +2 6 *

+1 1 