DBRep_DrawableShape

CASCADE Topology V1, (c) Matra-Datavision
Locations 0
Curve2ds 0
Curves 4
1 98 0 -6.708713313458227e-14 -1 0 6.5087884191764902e-16 
1 0 0 -3.3010066266526606e-15 0 1 0 
1 98 36 -6.708713313458227e-14 -1 0 6.5087884191764902e-16 
1 98 0 -6.708713313458227e-14 0 1 0 
Polygon3D 0
PolygonOnTriangulations 0
Surfaces 0
Triangulations 0

TShapes 9
Ve
1e-07
98 0 -6.70871331345823e-14
0 0

0101101
*
Ve
1e-07
0 0 -3.30100662665267e-15
0 0

0101101
*
Ed
 1e-07 1 1 0
1  1 0 -0 98
0

0101000
+9 0 -8 0 *
Ve
1e-07
0 36 -3.30100662665266e-15
0 0

0101101
*
Ed
 1e-07 1 1 0
1  2 0 0 36
0

0101000
+8 0 -6 0 *
Ve
1e-07
98 36 -6.70871331345823e-14
0 0

0101101
*
Ed
 1e-07 1 1 0
1  3 0 -0 98
0

0101000
+4 0 -6 0 *
Ed
 1e-07 1 1 0
1  4 0 0 36
0

0101000
+9 0 -4 0 *
Wi

0101100
-7 0 -5 0 +3 0 +2 0 *

+1 0 