DBRep_DrawableShape

CASCADE Topology V1, (c) Matra-Datavision
Locations 11
1
              1               0               0               0 
              0               1               0               0 
              0               0               1              -1 
1
1.11022302462516e-16               0              -1               0 
              0               1               0               0 
              1               0 1.11022302462516e-16               0 
1
              1               0               0             784 
              0               1               0         -1274.1 
              0               0               1            -353 
1
              1               0               0               0 
              0               1               0               0 
              0               0               1 -12.0000000000001 
1
              1               0               0               0 
              0               1               0               0 
              0               0               1               1 
2  2 1 3 1 4 1 5 1 0
2  5 -1 4 -1 3 -1 2 -1 0
1
              1               0               0               0 
              0               1               0               0 
              0               0               1 -1.13686837721616e-13 
1
              1               0               0               0 
              0               1               0               0 
              0               0               1               1 
2  2 1 3 1 8 1 9 1 0
2  9 -1 8 -1 3 -1 2 -1 0
Curve2ds 4
1 49 -18 -1 0 
1 49 -18 0 1 
1 49 18 -1 0 
1 -49 -18 0 1 
Curves 4
1 98 0 0.99999999999994316 -1 0 1.11022302462516e-16 
1 365 1274.0999999999999 686 -0 1 0 
1 98 36 0.99999999999994316 -1 0 1.11022302462516e-16 
1 353 1274.0999999999999 784 -0 1 0 
Polygon3D 0
PolygonOnTriangulations 0
Surfaces 1
1 49 18 0.99999999999996481 6.5087884191764902e-16 0 1 1 0 -6.5087884191764902e-16 -0 1 0 
Triangulations 0

TShapes 9
Ve
1.00000056954441e-07
98 0 0.999999999999972
0 0

0101101
*
Ve
1.00000056954441e-07
0 0 1
0 0

0101101
*
Ed
 1.00000056954441e-07 1 1 0
1  1 0 3.15544362088406e-30 98
2  1 1 0 3.15544362088406e-30 98
0

0101000
+9 0 -8 0 *
Ve
1.00000056954441e-07
98 36 0.999999999999972
0 0

0101101
*
Ed
 1.00000056954441e-07 1 1 0
1  2 0 0 36
2  2 1 7 0 36
0

0101000
+9 7 -6 7 *
Ve
1.00000056954441e-07
0 36 1
0 0

0101101
*
Ed
 1.00000056954441e-07 1 1 0
1  3 0 3.15544362088406e-30 98
2  3 1 0 3.15544362088406e-30 98
0

0101000
+6 0 -4 0 *
Ed
 1.00000056954441e-07 1 1 0
1  4 0 0 36
2  4 1 11 0 36
0

0101000
+8 11 -4 11 *
Wi

0101100
-7 0 +5 6 +3 0 -2 10 *

+1 1 