DBRep_DrawableShape

CASCADE Topology V1, (c) Matra-Datavision
Locations 16
1
              1               0               0               0 
              0               1               0               0 
              0               0               1              -1 
1
              1               0               0               0 
              0               1               0               0 
              0               0               1 5.66768854071142e-14 
1
              1               0               0               0 
              0               1               0               0 
              0               0               1               1 
1
              1               0               0               0 
              0               1               0               0 
              0               0               1              -1 
2  1 1 2 1 3 1 4 1 0
2  4 -1 3 -1 2 -1 1 -1 0
1
1.11022302462516e-16               0              -1               0 
              0               1               0               0 
              1               0 1.11022302462516e-16               0 
1
              1               0               0             784 
              0               1               0         -1274.1 
              0               0               1            -353 
2  7 1 8 1 2 1 3 1 4 1 0
2  1 1 8 -1 7 -1 0
2  4 -1 3 -1 2 -1 8 -1 7 -1 0
1
              1               0               0               0 
              0               1               0               0 
              0               0               1 -12.0000000000001 
1
              1               0               0               0 
              0               1               0               0 
              0               0               1               1 
2  7 1 8 1 12 1 13 1 1 1 2 1 3 1 4 1 0
2  13 -1 12 -1 8 -1 7 -1 0
2  4 -1 3 -1 2 -1 1 -1 13 -1 12 -1 8 -1 7 -1 0
Curve2ds 4
1 49 -18 -1 0 
1 17 -18 0 1 
1 49 18 -1 0 
1 49 -18 0 1 
Curves 4
1 98 0 0.99999999999994316 -1 0 1.11022302462516e-16 
1 353 1274.0999999999999 718 -0 1 0 
1 98 36 0.99999999999994316 -1 0 1.11022302462516e-16 
1 365 1274.0999999999999 686 -0 1 0 
Polygon3D 0
PolygonOnTriangulations 0
Surfaces 1
1 49 18 0.99999999999996481 6.5087884191764902e-16 0 1 1 0 -6.5087884191764902e-16 -0 1 0 
Triangulations 0

TShapes 11
Ve
1.00000071054274e-07
98 0 1.4210854715202e-14
0 0

0101101
*
Ve
1.0000016005687e-07
66 0 1.13464793116691e-13
0 0

0101101
*
Ed
 1.00000056954441e-07 1 1 0
1  1 0 3.15544362088406e-30 32
2  1 1 0 3.15544362088406e-30 32
0

0101000
+11 6 -10 6 *
Ve
1.0000016005687e-07
66 36 1.13464793116691e-13
0 0

0101101
*
Ed
 1.0000016005687e-07 1 1 0
1  2 0 0 36
2  2 1 10 0 36
0

0101000
+10 11 -8 11 *
Ve
1.00000071054274e-07
98 36 1.4210854715202e-14
0 0

0101101
*
Ed
 1.00000056954441e-07 1 1 0
1  3 0 3.15544362088406e-30 32
2  3 1 0 3.15544362088406e-30 32
0

0101000
+6 6 -8 6 *
Ed
 1.00000056954441e-07 1 1 0
1  4 0 0 36
2  4 1 15 0 36
0

0101000
+11 16 -6 16 *
Wi

0101100
-9 5 -7 9 +5 5 +4 14 *
Fa
0  1.00000056954441e-07 1 5

0101000
+3 0 *
Sh

1101000
+2 0 *

+1 0 