DBRep_DrawableShape

CASCADE Topology V1, (c) Matra-Datavision
Locations 44
1
              1               0               0               0 
              0               1               0               0 
              0               0               1               0 
1
              1               0               0               0 
              0               1               0               6 
              0               0               1               0 
1
              1               0               0               0 
              0 1.11022302462516e-16               1               0 
              0              -1 1.11022302462516e-16               0 
1
              1               0               0             -91 
              0               1               0           -1096 
              0               0               1          1334.1 
1
              1               0               0               0 
              0               1               0               0 
              0               0               1 -2.27373675443232e-13 
1
              1               0               0               0 
              0               1               0               0 
              0               0               1               1 
1
              1               0               0               0 
              0               1               0               0 
              0               0               1              -1 
2  1 1 2 1 3 1 4 1 5 1 6 1 7 1 0
2  7 -1 6 -1 5 -1 4 -1 3 -1 2 -1 1 -1 0
1
              1               0               0               0 
              0               1               0               0 
              0               0               1              12 
2  1 1 2 1 3 1 4 1 5 1 6 1 7 1 10 1 0
2  10 -1 7 -1 6 -1 5 -1 4 -1 3 -1 2 -1 1 -1 0
1
              1               0               0               0 
              0               1               0               0 
              0               0               1              -0 
1
              1               0               0               0 
              0               1               0               0 
              0               0               1               1 
1
              1               0               0               0 
              0               1               0               0 
              0               0               1              -1 
2  1 1 2 1 3 1 4 1 13 1 14 1 15 1 0
2  15 -1 14 -1 13 -1 4 -1 3 -1 2 -1 1 -1 0
1
              1               0               0               0 
              0               1               0               0 
              0               0               1              12 
2  18 -1 15 -1 14 -1 13 -1 4 -1 3 -1 2 -1 1 -1 0
1
              1               0               0               0 
              0               1               0               0 
              0               0               1              -0 
1
              1               0               0               0 
              0               1               0               0 
              0               0               1               1 
1
              1               0               0               0 
              0               1               0               0 
              0               0               1              -1 
2  1 1 2 1 3 1 4 1 20 1 21 1 22 1 0
2  22 -1 21 -1 20 -1 4 -1 3 -1 2 -1 1 -1 0
1
              1               0               0               0 
              0               1               0               0 
              0               0               1              12 
2  25 -1 22 -1 21 -1 20 -1 4 -1 3 -1 2 -1 1 -1 0
1
              1               0               0               0 
              0               1               0               0 
              0               0               1              -0 
1
              1               0               0               0 
              0               1               0               0 
              0               0               1               1 
1
              1               0               0               0 
              0               1               0               0 
              0               0               1              -1 
2  1 1 2 1 3 1 4 1 27 1 28 1 29 1 0
2  29 -1 28 -1 27 -1 4 -1 3 -1 2 -1 1 -1 0
1
              1               0               0               0 
              0               1               0               0 
              0               0               1              12 
2  32 -1 29 -1 28 -1 27 -1 4 -1 3 -1 2 -1 1 -1 0
1
              1               0               0               0 
              0               1               0               0 
              0               0               1              -0 
1
              1               0               0               0 
              0               1               0               0 
              0               0               1               1 
1
              1               0               0               0 
              0               1               0               0 
              0               0               1              -1 
2  1 1 2 1 3 1 4 1 34 1 35 1 36 1 0
2  36 -1 35 -1 34 -1 4 -1 3 -1 2 -1 1 -1 0
1
              1               0               0               0 
              0               1               0               0 
              0               0               1              12 
2  39 -1 36 -1 35 -1 34 -1 4 -1 3 -1 2 -1 1 -1 0
2  1 1 2 1 3 1 4 1 13 1 14 1 15 1 18 1 0
2  1 1 2 1 3 1 4 1 20 1 21 1 22 1 25 1 0
2  1 1 2 1 3 1 4 1 27 1 28 1 29 1 32 1 0
2  1 1 2 1 3 1 4 1 34 1 35 1 36 1 39 1 0
Curve2ds 40
1 0 0 0 -1 
1 0 0 1.11022302462516e-16 -1 
1 128 0 0 -1 
1 0 0 1.11022302462516e-16 -1 
1 0 0 1 0 
1 0 0 0 1 
1 0 -12 1 0 
1 0 0 0 1 
1 128 1.4210854715202048e-14 1.11022302462516e-16 -1 
1 0 0 0 -1 
1 0 0 1 0 
1 0 0 1 0 
1 1.332267629550192e-15 -12 1 0 
1 0 0 1 0 
1 128 1.4210854715202048e-14 1.11022302462516e-16 -1 
1 128 0 0 -1 
1 0 0 1 0 
1 0 128 1 0 
1 1.332267629550192e-15 -12 1 0 
1 0 128 1 0 
1 0 0 1 0 
1 128 0 0 1 
1 0 0 1 0 
1 0 -12.000000000000014 1 0 
1 0 0 1 0 
1 0 -12.000000000000014 1 0 
1 0 0 1 0 
1 0 -12.000000000000014 1 0 
1 0 0 1 0 
1 0 -12.000000000000014 1 0 
1 0 -12 1 0 
1 128 0 0 1 
1 0 0 0 -1 
1 6.2831853071795898 0 0 -1 
1 0 0 0 -1 
1 6.2831853071795898 0 0 -1 
1 0 0 0 -1 
1 6.2831853071795898 0 0 -1 
1 0 0 0 -1 
1 6.2831853071795898 0 0 -1 
Curves 20
1 0 2.2737367544323206e-13 0 0 0 1 
1 128 2.2737367544323206e-13 0 0 0 1 
1 91 1328.0999999999999 1096 1 0 -0 
1 91 1328.0999999999999 1096 1 0 -0 
1 0 128.00000000000023 0 0 0 1 
1 91 1328.0999999999999 1096 0 0 1 
1 91 1328.0999999999999 1096 0 0 1 
1 128 128.00000000000023 0 0 0 1 
1 219 1328.0999999999999 1096 0 0 1 
1 219 1328.0999999999999 1096 0 0 1 
1 91 1328.0999999999999 1224 1 0 -0 
2 102.5 1328.1000000000001 1107.5 -0 1 0 0 0 1 1 0 -0 2.25
2 102.5 1328.1000000000001 1212.5 -0 1 0 0 0 1 1 0 -0 2.25
2 207.5 1328.1000000000001 1107.5 -0 1 0 0 0 1 1 0 -0 2.25
2 207.5 1328.1000000000001 1212.5 -0 1 0 0 0 1 1 0 -0 2.25
1 91 1328.0999999999999 1224 1 0 -0 
1 11.5 13.750000000000227 1.5158245029548803e-13 0 0 1 
1 11.5 118.75000000000023 1.4969507114921365e-13 0 0 1 
1 116.5 13.750000000000227 1.5158245029548803e-13 0 0 1 
1 116.5 118.75000000000023 1.4906131883932344e-13 0 0 1 
Polygon3D 0
PolygonOnTriangulations 0
Surfaces 10
1 0 2.2737367544323206e-13 0 0 1 0 1 0 0 0 0 -1 
1 0 2.2737367544323206e-13 0 -1 0 0 0 1 1.11022302462516e-16 0 1.11022302462516e-16 -1 
1 128 2.2737367544323206e-13 0 -1 0 0 0 1 1.11022302462516e-16 0 1.11022302462516e-16 -1 
1 91 1328.0999999999999 1096 -0 1 0 0 0 1 1 0 -0 
1 91 1328.0999999999999 1096 -0 1 0 0 0 1 1 0 -0 
1 0 128.00000000000023 0 0 1 0 1 0 0 0 0 -1 
2 11.5 11.500000000000227 0 0 1.11022302462516e-16 -1 0 1 1.11022302462516e-16 1 0 0 2.25
2 11.5 116.50000000000023 0 0 1.11022302462516e-16 -1 0 1 1.11022302462516e-16 1 0 0 2.25
2 116.5 11.500000000000227 0 0 1.11022302462516e-16 -1 0 1 1.11022302462516e-16 1 0 0 2.25
2 116.5 116.50000000000023 0 0 1.11022302462516e-16 -1 0 1 1.11022302462516e-16 1 0 0 2.25
Triangulations 0

TShapes 74
Ve
1e-07
0 2.27373675443232e-13 0
0 0

0101101
*
Ve
1e-07
0 2.27373675443232e-13 12
0 0

0101101
*
Ed
 1e-07 1 1 0
1  1 0 0 12
2  1 1 0 0 12
2  2 2 0 0 12
0

0101000
+74 0 -73 0 *
Ve
1e-07
128 2.27373675443232e-13 0
0 0

0101101
*
Ve
1e-07
128 2.27373675443232e-13 12
0 0

0101101
*
Ed
 1e-07 1 1 0
1  2 0 0 12
2  3 1 0 0 12
2  4 3 0 0 12
0

0101000
+71 0 -70 0 *
Ed
 1e-07 1 1 0
1  3 0 0 128
2  5 1 9 0 128
2  6 4 0 0 128
0

0101000
+74 9 -71 9 *
Ed
 1e-07 1 1 0
1  4 0 0 128
2  7 1 12 0 128
2  8 5 0 0 128
0

0101000
+73 12 -70 12 *
Wi

0101100
+72 0 -69 0 -68 8 +67 11 *
Fa
0  1e-07 1 0

0101000
+66 0 *
Ve
1e-07
0 128 0
0 0

0101101
*
Ve
1e-07
0 128 12
0 0

0101101
*
Ed
 1e-07 1 1 0
1  5 0 0 12
2  9 2 0 0 12
2  10 6 0 0 12
0

0101000
+64 0 -63 0 *
Ed
 1e-07 1 1 0
1  6 0 0 128
2  11 2 9 0 128
2  12 4 0 0 128
0

0101000
+74 9 -64 9 *
Ed
 1e-07 1 1 0
1  7 0 0 128
2  13 2 12 0 128
2  14 5 0 0 128
0

0101000
+73 12 -63 12 *
Wi

0101100
+72 0 -62 0 -61 8 +60 11 *
Fa
0  1e-07 2 0

0101000
+59 0 *
Ve
1e-07
128 128 0
0 0

0101101
*
Ve
1e-07
128 128 12
0 0

0101101
*
Ed
 1e-07 1 1 0
1  8 0 0 12
2  15 3 0 0 12
2  16 6 0 0 12
0

0101000
+57 0 -56 0 *
Ed
 1e-07 1 1 0
1  9 0 0 128
2  17 3 9 0 128
2  18 4 0 0 128
0

0101000
+71 9 -57 9 *
Ed
 1e-07 1 1 0
1  10 0 0 128
2  19 3 12 0 128
2  20 5 0 0 128
0

0101000
+70 12 -56 12 *
Wi

0101100
+69 0 -55 0 -54 8 +53 11 *
Fa
0  1e-07 3 0

0101000
+52 0 *
Ed
 1e-07 1 1 0
1  11 0 0 128
2  21 6 9 0 128
2  22 4 0 0 128
0

0101000
+64 9 -57 9 *
Wi

0101100
-68 8 +61 8 -54 8 +50 8 *
Ve
1.00000532342687e-07
11.5 13.7500000000002 1.51582450295488e-13
0 0

0101101
*
Ed
 1.00000456551462e-07 1 1 0
1  12 0 0 6.28318530717959
2  23 7 17 0 6.28318530717959
2  24 7 19 0 6.28318530717959
0

0101000
+48 17 -48 17 *
Wi

0101100
-47 16 *
Ve
1.00000518797966e-07
11.5 118.75 1.49695071149214e-13
0 0

0101101
*
Ed
 1.00000445893321e-07 1 1 0
1  13 0 0 6.28318530717959
2  25 8 24 0 6.28318530717959
2  26 8 26 0 6.28318530717959
0

0101000
+45 24 -45 24 *
Wi

0101100
-44 23 *
Ve
1.00000532342687e-07
116.5 13.7500000000002 1.51582450295488e-13
0 0

0101101
*
Ed
 1.00000456551462e-07 1 1 0
1  14 0 0 6.28318530717959
2  27 9 31 0 6.28318530717959
2  28 9 33 0 6.28318530717959
0

0101000
+42 31 -42 31 *
Wi

0101100
-41 30 *
Ve
1.00000514172038e-07
116.5 118.75 1.49061318839323e-13
0 0

0101101
*
Ed
 1.00000442312853e-07 1 1 0
1  15 0 0 6.28318530717959
2  29 10 38 0 6.28318530717959
2  30 10 40 0 6.28318530717959
0

0101000
+39 38 -39 38 *
Wi

0101100
-38 37 *
Fa
0  1e-07 4 8

0101000
+49 0 +46 0 +43 0 +40 0 +37 0 *
Ed
 1e-07 1 1 0
1  16 0 0 128
2  31 6 12 0 128
2  32 5 0 0 128
0

0101000
+63 12 -56 12 *
Wi

0101100
-67 11 +60 11 -53 11 +35 11 *
Ve
1.00000532342687e-07
11.5 13.7500000000002 12.0000000000002
0 0

0101101
*
Ed
 1.00000456551462e-07 1 1 0
1  12 0 0 6.28318530717959
2  23 7 17 0 6.28318530717959
2  24 7 19 0 6.28318530717959
0

0101000
+33 19 -33 19 *
Wi

0101100
-32 41 *
Ve
1.00000518797966e-07
11.5 118.75 12.0000000000002
0 0

0101101
*
Ed
 1.00000445893321e-07 1 1 0
1  13 0 0 6.28318530717959
2  25 8 24 0 6.28318530717959
2  26 8 26 0 6.28318530717959
0

0101000
+30 26 -30 26 *
Wi

0101100
-29 42 *
Ve
1.00000532342687e-07
116.5 13.7500000000002 12.0000000000002
0 0

0101101
*
Ed
 1.00000456551462e-07 1 1 0
1  14 0 0 6.28318530717959
2  27 9 31 0 6.28318530717959
2  28 9 33 0 6.28318530717959
0

0101000
+27 33 -27 33 *
Wi

0101100
-26 43 *
Ve
1.00000514172038e-07
116.5 118.75 12.0000000000002
0 0

0101101
*
Ed
 1.00000442312853e-07 1 1 0
1  15 0 0 6.28318530717959
2  29 10 38 0 6.28318530717959
2  30 10 40 0 6.28318530717959
0

0101000
+24 40 -24 40 *
Wi

0101100
-23 44 *
Fa
0  1e-07 5 11

0101000
+34 0 +31 0 +28 0 +25 0 +22 0 *
Wi

0101100
+62 0 -55 0 -50 8 +35 11 *
Fa
0  1e-07 6 0

0101000
+20 0 *
Ed
 1.00000532342687e-07 1 1 0
1  17 0 0 12
3  33 34CN 7 0 0 12
0

0101000
+48 0 -33 0 *
Wi

0101100
+18 0 -18 0 -47 16 +32 41 *
Fa
0  1.00000456551462e-07 7 0

0101000
+17 0 *
Ed
 1.00000518797966e-07 1 1 0
1  18 0 0 12
3  35 36CN 8 0 0 12
0

0101000
+45 0 -30 0 *
Wi

0101100
+15 0 -15 0 -44 23 +29 42 *
Fa
0  1.00000445893321e-07 8 0

0101000
+14 0 *
Ed
 1.00000532342687e-07 1 1 0
1  19 0 0 12
3  37 38CN 9 0 0 12
0

0101000
+42 0 -27 0 *
Wi

0101100
+12 0 -12 0 -41 30 +26 43 *
Fa
0  1.00000456551462e-07 9 0

0101000
+11 0 *
Ed
 1.00000514172038e-07 1 1 0
1  20 0 0 12
3  39 40CN 10 0 0 12
0

0101000
+39 0 -24 0 *
Wi

0101100
+9 0 -9 0 -38 37 +23 44 *
Fa
0  1.00000442312853e-07 10 0

0101000
+8 0 *
Sh

0101100
-65 0 +58 0 -51 0 +36 0 -21 0 +19 0 -16 0 -13 0 -10 0 -7 0 
*
So

0100000
+6 0 *
Co

0100000
+5 0 *
Co

0100000
+4 0 *
Co

0100000
+3 0 *
Co

1100000
+2 0 *

+1 0 