DBRep_DrawableShape

CASCADE Topology V1, (c) Matra-Datavision
Locations 19
1
              1               0               0               0 
              0               1               0               0 
              0               0               1               0 
1
              1               0               0               0 
              0               1               0               6 
              0               0               1               0 
1
              1               0               0               0 
              0 1.11022302462516e-16               1               0 
              0              -1 1.11022302462516e-16               0 
1
              1               0               0             -91 
              0               1               0           -1096 
              0               0               1          1334.1 
1
              1               0               0               0 
              0               1               0               0 
              0               0               1 -2.27373675443232e-13 
1
              1               0               0               0 
              0               1               0               0 
              0               0               1               1 
1
              1               0               0               0 
              0               1               0               0 
              0               0               1              -1 
2  1 1 2 1 3 1 4 1 5 1 6 1 7 1 0
2  1 1 2 1 3 1 4 1 0
2  1 -1 0
2  4 -1 3 -1 2 -1 1 -1 0
2  2 1 3 1 4 1 0
2  4 -1 3 -1 2 -1 0
1
              1               0               0               0 
              0               1               0             -12 
              0               0               1               0 
2  1 1 14 1 2 1 3 1 4 1 0
2  14 -1 1 -1 0
2  4 -1 3 -1 2 -1 14 -1 1 -1 0
1
              1               0               0               0 
              0               1               0               0 
              0               0               1              12 
2  1 1 2 1 3 1 4 1 5 1 6 1 7 1 18 1 0
Curve2ds 6
1 0 0 1 0 
2 11.5 11.5 1 0 -0 1 2.25
1 0 0 0 -1 
1 6.2831853071795862 0 0 -1 
1 0 -12 1 0 
2 11.5 11.5 1 0 -0 1 2.25
Curves 3
2 102.5 1328.0999999999999 1107.5 0 1 0 0 -0 1 1 0 -0 2.25
1 102.5 1328.0999999999999 1109.75 0 -1 0 
2 102.5 1328.0999999999999 1107.5 0 1 0 0 -0 1 1 0 -0 2.25
Polygon3D 0
PolygonOnTriangulations 0
Surfaces 4
1 91 1328.0999999999999 1096 -0 1 0 0 0 1 1 0 -0 
2 102.5 1328.0999999999999 1107.5 0 1 0 0 -0 1 1 0 -0 2.25
1 91 1328.0999999999999 1096 -0 1 0 0 0 1 1 0 -0 
1 91 1328.0999999999999 1096 -0 1 0 0 0 1 1 0 -0 
Triangulations 0

TShapes 13
Ve
1.00000226096919e-07
11.5 13.7500000000002 2.27373675443232e-13
0 0

0101101
*
Ed
 1.00000226096919e-07 1 1 0
1  1 0 0 6.28318530717959
2  1 2 10 0 6.28318530717959
2  2 3 0 0 6.28318530717959
0

0101000
+13 11 -13 11 *
Wi

0101100
+12 9 *
Fa
0  1e-07 1 8

0101000
+11 0 *
Ve
1.00000225597319e-07
11.5 13.7500000000002 12.0000000000002
0 0

0101101
*
Ed
 1e-07 1 1 0
1  2 0 0 12
3  3 4CN 2 0 0 12
0

0101000
+13 13 -9 13 *
Ed
 1.00000225597319e-07 1 1 0
1  3 0 0 6.28318530717959
2  5 2 16 0 6.28318530717959
2  6 4 0 0 6.28318530717959
0

0101000
+9 17 -9 17 *
Wi

0101100
+8 12 -8 12 -12 9 +7 15 *
Fa
0  1e-07 2 12

0101000
+6 0 *
Wi

0101100
+7 15 *
Fa
0  1e-07 1 19

0101000
+4 0 *
Sh

0101100
+10 0 +5 0 -3 0 *
So

0100000
+2 0 *

+1 0 