DBRep_DrawableShape

CASCADE Topology V1, (c) Matra-Datavision
Locations 1
1
              1               0               0               0 
              0               1               0               0 
              0               0               1               0 
Curve2ds 8
1 6.2831853071795862 -0 0 1 
1 0 0 1 0 
1 3.1415926535897931 0 0 1 
1 0 14 1 0 
1 0 -0 0 1 
1 3.1415926535897931 0 0 1 
1 0 14 1 0 
1 0 0 1 0 
Curves 12
1 103 62.000000000000014 13 0 0 -1 
2 101 62.000000000000014 13 0 0 -1 1 1.1102230246251565e-16 0 1.1102230246251565e-16 -1 0 2
1 99 62 13 0 0 -1 
2 101 62.000000000000014 -1 0 0 -1 1 1.1102230246251565e-16 0 1.1102230246251565e-16 -1 0 2
1 103 62.000000000000014 -1 1.1102230246251565e-16 -1 0 
1 103 54.000000000000014 13 0 0 -1 
1 103 62.000000000000014 13 1.1102230246251565e-16 -1 0 
1 99 62 -1 1.1102230246251565e-16 -1 0 
1 99 54 13 0 0 -1 
1 99 62 13 1.1102230246251565e-16 -1 0 
2 101 54.000000000000014 -1 0 0 -1 1 1.1102230246251565e-16 0 1.1102230246251565e-16 -1 0 2
2 101 54.000000000000014 13 0 0 -1 1 1.1102230246251565e-16 0 1.1102230246251565e-16 -1 0 2
Polygon3D 0
PolygonOnTriangulations 0
Surfaces 6
2 101 62.000000000000014 13 0 0 -1 1 1.1102230246251565e-16 0 1.1102230246251565e-16 -1 0 2
1 103 62.000000000000014 13 1 1.1102230246251565e-16 0 0 0 -1 -1.1102230246251565e-16 1 0 
2 101 54.000000000000014 13 0 0 -1 1 1.1102230246251565e-16 0 1.1102230246251565e-16 -1 0 2
1 99 62 13 1 1.1102230246251565e-16 0 0 0 -1 -1.1102230246251565e-16 1 0 
1 101.00000000000006 58.000000000000014 13 0 0 1 -1 -1.1102230246251565e-16 0 1.1102230246251565e-16 -1 0 
1 101.00000000000006 58.000000000000014 -1.0000000000000036 0 0 -1 1 1.1102230246251565e-16 0 1.1102230246251565e-16 -1 0 
Triangulations 0

TShapes 35
Ve
1e-07
103 62 13
0 0

0101101
*
Ve
1e-07
103 62 -1
0 0

0101101
*
Ed
 1e-07 1 1 0
1  1 0 0 14
2  1 1 0 0 14
0

0101000
+35 0 -34 0 *
Ve
1e-07
99 62 13
0 0

0101101
*
Ed
 1e-07 1 1 0
1  2 0 3.14159265358979 6.28318530717959
2  2 1 0 3.14159265358979 6.28318530717959
0

0101000
+32 0 -35 0 *
Ve
1e-07
99 62 -1
0 0

0101101
*
Ed
 1e-07 1 1 0
1  3 0 0 14
2  3 1 0 0 14
0

0101000
+32 0 -30 0 *
Ed
 1e-07 1 1 0
1  4 0 3.14159265358979 6.28318530717959
2  4 1 0 3.14159265358979 6.28318530717959
0

0101000
+30 0 -34 0 *
Wi

0101100
+33 0 +31 0 -29 0 -28 0 *
Fa
0  1e-07 1 0

0101000
+27 0 *
Ve
1e-07
103 54 -1
0 0

0101101
*
Ed
 1e-07 1 1 0
1  5 0 0 8
0

0101000
+34 0 -25 0 *
Ve
1e-07
103 54 13
0 0

0101101
*
Ed
 1e-07 1 1 0
1  6 0 0 14
2  5 3 0 0 14
0

0101000
+23 0 -25 0 *
Ed
 1e-07 1 1 0
1  7 0 0 8
0

0101000
+35 0 -23 0 *
Wi

0101100
-33 0 -24 0 +22 0 +21 0 *
Fa
0  1e-07 2 0

0101000
+20 0 *
Ve
1e-07
99 54 -1
0 0

0101101
*
Ed
 1e-07 1 1 0
1  8 0 0 8
0

0101000
+30 0 -18 0 *
Ve
1e-07
99 54 13
0 0

0101101
*
Ed
 1e-07 1 1 0
1  9 0 0 14
2  6 3 0 0 14
0

0101000
+16 0 -18 0 *
Ed
 1e-07 1 1 0
1  10 0 0 8
0

0101000
+32 0 -16 0 *
Wi

0101100
-29 0 -17 0 +15 0 +14 0 *
Fa
0  1e-07 4 0

0101000
+13 0 *
Ed
 1e-07 1 1 0
1  11 0 0 3.14159265358979
2  7 3 0 0 3.14159265358979
0

0101000
+25 0 -18 0 *
Ed
 1e-07 1 1 0
1  12 0 0 3.14159265358979
2  8 3 0 0 3.14159265358979
0

0101000
+23 0 -16 0 *
Wi

0101100
-11 0 +15 0 +10 0 -22 0 *
Fa
0  1e-07 3 0

0101000
+9 0 *
Wi

0101100
-31 0 +14 0 -10 0 -21 0 *
Fa
0  1e-07 5 0

0101000
+7 0 *
Wi

0101100
+28 0 +24 0 +11 0 -17 0 *
Fa
0  1e-07 6 0

0101000
+5 0 *
Sh

0101100
+26 0 +19 0 -12 0 +8 0 +6 0 +4 0 *
So

0100000
+3 0 *
Co

1100000
+2 0 *

+1 1 