DBRep_DrawableShape

CASCADE Topology V1, (c) Matra-Datavision
Locations 16
1
              1               0               0               0 
              0               1               0               0 
              0               0               1               0 
1
              1               0               0               0 
              0               1               0               0 
              0               0               1 -7.105427357601e-15 
1
              1               0               0               0 
              0               1               0               0 
              0               0               1               1 
1
              1               0               0               0 
              0               1               0               0 
              0               0               1              -1 
2  1 1 2 1 3 1 4 1 0
2  4 -1 3 -1 2 -1 1 -1 0
2  1 -1 0
1
              1               0               0               0 
              0               1               0               0 
              0               0               1              12 
2  1 1 2 1 3 1 4 1 8 1 0
2  8 -1 4 -1 3 -1 2 -1 1 -1 0
2  2 1 3 1 4 1 0
1
              1               0               0               0 
              0               1               0               0 
              0               0               1              12 
2  12 -1 0
1
              1               0               0               0 
              0               1               0               0 
              0               0               1              12 
2  14 -1 0
2  2 1 3 1 4 1 8 1 0
Curve2ds 64
1 3.14159265358979 0 0 -1 
1 0 -3.5527136788005009e-15 0 -1 
1 4.7123889803846897 0 0 -1 
1 0 -3.5527136788005009e-15 0 -1 
1 0 0 1 0 
2 74 51.999999999999986 -1 1.1102230246251565e-16 -1.1102230246251565e-16 -1 6
1 0 -12 1 0 
2 74 51.999999999999986 -1 1.1102230246251565e-16 -1.1102230246251565e-16 -1 6
1 104 -3.5527136788005009e-15 0 -1 
1 3.14159265358979 0 0 -1 
1 0 0 1 0 
1 80 51.999999999999986 -1.1102230246251565e-16 -1 
1 0 -12 1 0 
1 80 51.999999999999986 -1.1102230246251565e-16 -1 
1 148 -3.5527136788005009e-15 0 -1 
1 4.7123889803846897 0 0 -1 
1 0 0 1 0 
1 74 57.999999999999986 -1 1.1102230246251565e-16 
1 0 -12 1 0 
1 74 57.999999999999986 -1 1.1102230246251565e-16 
1 0 0 1 0 
2 73.999999999999972 -52.000000000000014 -1 1.1102230246251565e-16 -1.1102230246251565e-16 -1 6
1 0 0 1 0 
2 -74 52 -1 1.1102230246251565e-16 -1.1102230246251565e-16 -1 6
1 0 0 1 0 
1 73.999999999999972 -58.000000000000014 -1 1.1102230246251565e-16 
1 0 0 1 0 
1 -80 52 -1.1102230246251565e-16 -1 
1 0 0 1 0 
2 -74 -52.000000000000014 -1 1.1102230246251565e-16 -1.1102230246251565e-16 -1 6
1 0 0 1 0 
1 0 -12 1 0 
1 0 0 1 0 
1 0 -12 1 0 
1 0 0 1 0 
1 0 -12 1 0 
1 0 0 1 0 
1 0 -12 1 0 
1 0 -12 1 0 
2 73.999999999999972 -52.000000000000014 -1 1.1102230246251565e-16 -1.1102230246251565e-16 -1 6
1 0 -12 1 0 
2 -74 52 -1 1.1102230246251565e-16 -1.1102230246251565e-16 -1 6
1 0 -12 1 0 
1 73.999999999999972 -58.000000000000014 -1 1.1102230246251565e-16 
1 0 -12 1 0 
1 -80 52 -1.1102230246251565e-16 -1 
1 0 -12 1 0 
2 -74 -52.000000000000014 -1 1.1102230246251565e-16 -1.1102230246251565e-16 -1 6
1 1.5707963267949001 0 0 -1 
1 2.6645352591003757e-15 -3.5527136788005009e-15 0 -1 
1 6.2831853071795898 0 0 -1 
1 1.4210854715202004e-14 -3.5527136788005009e-15 0 -1 
1 147.99999999999997 -3.5527136788005009e-15 0 -1 
1 1.5707963267949001 0 0 -1 
1 104.00000000000001 -3.5527136788005009e-15 0 -1 
1 0 0 0 -1 
1 1.5707963267948966 0 0 -1 
1 4.7123889803846897 0 0 -1 
1 4.7123889803846897 0 0 -1 
1 1.5707963267948966 0 0 -1 
1 1.5707963267948966 0 0 -1 
1 4.7123889803846897 0 0 -1 
1 4.7123889803846897 0 0 -1 
1 1.5707963267948966 0 0 -1 
Curves 44
1 0 110 -3.5527136788005009e-15 0 0 1 
1 6 116 -3.5527136788005009e-15 0 0 1 
2 6 110 0 0 0 -1 1 1.1102230246251565e-16 0 1.1102230246251565e-16 -1 0 6
2 6 110 0 0 0 -1 1 1.1102230246251565e-16 0 1.1102230246251565e-16 -1 0 6
1 2.8421709430403998e-14 6 -3.5527136788005009e-15 0 0 1 
1 0 110 0 1.1102230246251565e-16 -1 0 
1 0 110 0 1.1102230246251565e-16 -1 0 
1 154 116 -3.5527136788005009e-15 0 0 1 
1 6 116 0 1 1.1102230246251565e-16 0 
1 6 116 0 1 1.1102230246251565e-16 0 
2 6.0000000000000284 6 0 0 0 -1 1 1.1102230246251565e-16 0 1.1102230246251565e-16 -1 0 6
2 154 110.00000000000001 0 0 0 -1 1 1.1102230246251565e-16 0 1.1102230246251565e-16 -1 0 6
1 6.0000000000000284 0 0 1 1.1102230246251565e-16 0 
1 160 110.00000000000001 0 1.1102230246251565e-16 -1 0 
2 154 6 0 0 0 -1 1 1.1102230246251565e-16 0 1.1102230246251565e-16 -1 0 6
1 61 60 0 1.1102230246251565e-16 -1 0 
2 59 62 0 0 0 1 1.1102230246251565e-16 -1 0 1 1.1102230246251565e-16 -0 2
2 59 54 0 0 0 1 -1.1102230246251565e-16 1 0 -1 -1.1102230246251565e-16 0 2
1 57 60 0 1.1102230246251565e-16 -1 0 
1 57 60 0 1.1102230246251565e-16 -1 0 
2 101 62.000000000000014 0 0 0 1 1.1102230246251565e-16 -1 0 1 1.1102230246251565e-16 -0 2
1 103 60.000000000000014 0 1.1102230246251565e-16 -1 0 
1 103 60.000000000000014 0 1.1102230246251565e-16 -1 0 
2 101 54.000000000000014 0 0 0 1 -1.1102230246251565e-16 1 0 -1 -1.1102230246251565e-16 0 2
1 99 60 0 1.1102230246251565e-16 -1 0 
2 6.0000000000000284 6 0 0 0 -1 1 1.1102230246251565e-16 0 1.1102230246251565e-16 -1 0 6
2 154 110.00000000000001 0 0 0 -1 1 1.1102230246251565e-16 0 1.1102230246251565e-16 -1 0 6
1 6.0000000000000284 0 0 1 1.1102230246251565e-16 0 
1 160 110.00000000000001 0 1.1102230246251565e-16 -1 0 
2 154 6 0 0 0 -1 1 1.1102230246251565e-16 0 1.1102230246251565e-16 -1 0 6
1 6.0000000000000311 0 -3.5527136788005009e-15 0 0 1 
1 160 110 -3.5527136788005009e-15 0 0 1 
1 154 0 -3.5527136788005009e-15 0 0 1 
1 160 6 -3.5527136788005009e-15 0 0 1 
1 61 62 7.1054273576010019e-15 0 0 1 
1 61 54 7.1054273576010019e-15 0 0 1 
1 57 62 7.1054273576010019e-15 0 0 1 
1 57 54 7.1054273576010019e-15 0 0 1 
1 57 58 0 0 0 1 
1 103 62 7.1054273576010019e-15 0 0 1 
1 99 62 7.1054273576010019e-15 0 0 1 
1 103 58.000000000000014 0 0 0 1 
1 103 54 7.1054273576010019e-15 0 0 1 
1 99 54 7.1054273576010019e-15 0 0 1 
Polygon3D 0
PolygonOnTriangulations 0
Surfaces 20
2 6 110 -7.1054273576010019e-15 0 0 -1 1 1.1102230246251565e-16 0 1.1102230246251565e-16 -1 0 6
1 0 110 -7.1054273576010019e-15 1 1.1102230246251565e-16 -0 1.1102230246251565e-16 -1 0 0 -0 -1 
1 6 116 -7.1054273576010019e-15 -1.1102230246251565e-16 1 0 1 1.1102230246251565e-16 0 0 0 -1 
1 80 58.000000000000014 0 -0 -0 -1 -1 0 0 0 1 -0 
1 80 58.000000000000014 0 -0 -0 -1 -1 0 0 0 1 -0 
2 6.0000000000000284 6 -7.1054273576010019e-15 0 0 -1 1 1.1102230246251565e-16 0 1.1102230246251565e-16 -1 0 6
2 154 110.00000000000001 -7.1054273576010019e-15 0 0 -1 1 1.1102230246251565e-16 0 1.1102230246251565e-16 -1 0 6
1 6.0000000000000284 0 -7.1054273576010019e-15 -1.1102230246251565e-16 1 0 1 1.1102230246251565e-16 0 0 0 -1 
1 160 110.00000000000001 -7.1054273576010019e-15 1 1.1102230246251565e-16 -0 1.1102230246251565e-16 -1 0 0 -0 -1 
2 154 6 -7.1054273576010019e-15 0 0 -1 1 1.1102230246251565e-16 0 1.1102230246251565e-16 -1 0 6
2 59 62 0 -0 -0 -1 1.1102230246251565e-16 -1 0 1 1.1102230246251565e-16 -0 2
2 59 54 0 -0 -0 -1 -1.1102230246251565e-16 1 0 -1 -1.1102230246251565e-16 0 2
2 101 62.000000000000014 0 -0 -0 -1 1.1102230246251565e-16 -1 0 1 1.1102230246251565e-16 -0 2
2 101 54.000000000000014 0 -0 -0 -1 -1.1102230246251565e-16 1 0 -1 -1.1102230246251565e-16 0 2
1 61 62 0 1 1.1102230246251565e-16 -0 1.1102230246251565e-16 -1 0 0 -0 -1 
1 57 62 0 1 1.1102230246251565e-16 -0 1.1102230246251565e-16 -1 0 0 -0 -1 
1 57 58 0 1 1.1102230246251565e-16 -0 1.1102230246251565e-16 -1 0 0 -0 -1 
1 103 62.000000000000014 0 1 1.1102230246251565e-16 -0 1.1102230246251565e-16 -1 0 0 -0 -1 
1 99 62.000000000000014 0 1 1.1102230246251565e-16 -0 1.1102230246251565e-16 -1 0 0 -0 -1 
1 103 58.000000000000014 0 1 1.1102230246251565e-16 -0 1.1102230246251565e-16 -1 0 0 -0 -1 
Triangulations 0

TShapes 138
Ve
1.00000008622653e-07
0 110 -3.5527136788005e-15
0 0

0101101
*
Ve
1.00000008622653e-07
0 110 12
0 0

0101101
*
Ed
 1.00000008622653e-07 1 1 0
1  1 0 0 12
2  1 1 0 0 12
2  2 2 0 0 12
4 G1 1 0 2 0
0

0101000
+138 0 -137 0 *
Ve
1.00000008622653e-07
6 116 -3.5527136788005e-15
0 0

0101101
*
Ve
1.00000008622653e-07
6 116 12
0 0

0101101
*
Ed
 1.00000008622653e-07 1 1 0
1  2 0 0 12
2  3 1 0 0 12
2  4 3 0 0 12
4 G1 1 0 3 0
0

0101000
+135 0 -134 0 *
Ed
 1.00000008622653e-07 1 1 0
1  3 0 3.14159265358979 4.71238898038469
2  5 1 6 3.14159265358979 4.71238898038469
2  6 4 7 3.14159265358979 4.71238898038469
0

0101000
+138 6 -135 6 *
Ed
 1.00000008622653e-07 1 1 0
1  4 0 3.14159265358979 4.71238898038469
2  7 1 10 3.14159265358979 4.71238898038469
2  8 5 7 3.14159265358979 4.71238898038469
0

0101000
+137 10 -134 10 *
Wi

0101100
+136 0 -133 0 -132 5 +131 9 *
Fa
0  1.00000008622653e-07 1 0

0101000
+130 0 *
Ve
1.00000007105427e-07
2.8421709430404e-14 6 -3.5527136788005e-15
0 0

0101101
*
Ve
1.00000007105427e-07
2.8421709430404e-14 6 12
0 0

0101101
*
Ed
 1.00000007105427e-07 1 1 0
1  5 0 0 12
2  9 2 0 0 12
2  10 6 0 0 12
4 G1 2 0 6 0
0

0101000
+128 0 -127 0 *
Ed
 1.00000007105427e-07 1 1 0
1  6 0 0 104
2  11 2 6 0 104
2  12 4 7 0 104
0

0101000
+138 6 -128 6 *
Ed
 1.00000007105427e-07 1 1 0
1  7 0 0 104
2  13 2 10 0 104
2  14 5 7 0 104
0

0101000
+137 10 -127 10 *
Wi

0101100
+136 0 -126 0 -125 5 +124 9 *
Fa
0  1.00000007105427e-07 2 0

0101000
+123 0 *
Ve
1.00000026037606e-07
154 116 -3.5527136788005e-15
0 0

0101101
*
Ve
1.00000026037606e-07
154 116 12
0 0

0101101
*
Ed
 1.00000026037606e-07 1 1 0
1  8 0 0 12
2  15 3 0 0 12
2  16 7 0 0 12
4 G1 3 0 7 0
0

0101000
+121 0 -120 0 *
Ed
 1.00000007105427e-07 1 1 0
1  9 0 0 148
2  17 3 6 0 148
2  18 4 7 0 148
0

0101000
+135 6 -121 6 *
Ed
 1.00000007105427e-07 1 1 0
1  10 0 0 148
2  19 3 10 0 148
2  20 5 7 0 148
0

0101000
+134 10 -120 10 *
Wi

0101100
+133 0 -119 0 -118 5 +117 9 *
Fa
0  1.00000007105427e-07 3 0

0101000
+116 0 *
Ve
1.00000007993606e-07
6.00000000000003 0 -3.5527136788005e-15
0 0

0101101
*
Ed
 1.00000007105427e-07 1 1 0
1  11 0 1.5707963267949 3.14159265358979
2  21 6 6 1.5707963267949 3.14159265358979
2  22 4 7 1.5707963267949 3.14159265358979
0

0101000
+114 6 -128 6 *
Ve
1.00000015888219e-07
160 110 -3.5527136788005e-15
0 0

0101101
*
Ed
 1.00000015888219e-07 1 1 0
1  12 0 4.71238898038469 6.28318530717959
2  23 7 6 4.71238898038469 6.28318530717959
2  24 4 7 4.71238898038469 6.28318530717959
0

0101000
+121 6 -112 6 *
Ve
1.00000026037606e-07
154 0 -3.5527136788005e-15
0 0

0101101
*
Ed
 1.00000007105427e-07 1 1 0
1  13 0 0 148
2  25 8 6 0 148
2  26 4 7 0 148
0

0101000
+114 6 -110 6 *
Ve
1.00000010048592e-07
160 6 -3.5527136788005e-15
0 0

0101101
*
Ed
 1.00000007105427e-07 1 1 0
1  14 0 0 104
2  27 9 6 0 104
2  28 4 7 0 104
0

0101000
+112 6 -108 6 *
Ed
 1.00000010048592e-07 1 1 0
1  15 0 0 1.5707963267949
2  29 10 6 0 1.5707963267949
2  30 4 7 0 1.5707963267949
0

0101000
+108 6 -110 6 *
Wi

0101100
+132 5 -125 5 +118 5 +113 5 +111 5 -109 5 +107 5 +106 5 *
Ve
1.50000024868996e-07
61 62 7.105427357601e-15
0 0

0101101
*
Ve
1.50000024868996e-07
61 54 7.105427357601e-15
0 0

0101101
*
Ed
 1.50000021316282e-07 1 1 0
1  16 0 -2 6
0

0101000
+104 0 -103 0 *
Ve
1.50000024868996e-07
57 62 7.105427357601e-15
0 0

0101101
*
Ed
 1.50000021316282e-07 1 1 0
1  17 0 1.5707963267949 4.71238898038469
2  31 11 0 1.5707963267949 4.71238898038469
2  32 11 13 1.5707963267949 4.71238898038469
0

0101000
+104 0 -101 0 *
Ve
1.50000024868996e-07
57 54 7.105427357601e-15
0 0

0101101
*
Ed
 1.50000021316282e-07 1 1 0
1  18 0 1.5707963267949 4.71238898038469
2  33 12 0 1.5707963267949 4.71238898038469
2  34 12 13 1.5707963267949 4.71238898038469
0

0101000
+99 0 -103 0 *
Ve
1.50000021316282e-07
57 58 0
0 0

0101101
*
Ed
 1.50000021316282e-07 1 1 0
1  19 0 -2 2
0

0101000
+101 0 -97 0 *
Ed
 1.50000021316282e-07 1 1 0
1  20 0 2 6
0

0101000
+97 0 -99 0 *
Wi

0101100
-102 0 +100 0 +98 0 +96 0 +95 0 *
Ve
1.50000024868996e-07
103 62 7.105427357601e-15
0 0

0101101
*
Ve
1.50000024868996e-07
99 62 7.105427357601e-15
0 0

0101101
*
Ed
 1.50000021316282e-07 1 1 0
1  21 0 1.5707963267949 4.71238898038469
2  35 13 0 1.5707963267949 4.71238898038469
2  36 13 15 1.5707963267949 4.71238898038469
0

0101000
+93 0 -92 0 *
Ve
1.50000021316282e-07
103 58 0
0 0

0101101
*
Ed
 1.50000021316282e-07 1 1 0
1  22 0 -2 2
0

0101000
+93 0 -90 0 *
Ve
1.50000024868996e-07
103 54 7.105427357601e-15
0 0

0101101
*
Ed
 1.50000021316282e-07 1 1 0
1  23 0 2 6
0

0101000
+90 0 -88 0 *
Ve
1.50000024868996e-07
99 54 7.105427357601e-15
0 0

0101101
*
Ed
 1.50000021316282e-07 1 1 0
1  24 0 1.5707963267949 4.71238898038469
2  37 14 0 1.5707963267949 4.71238898038469
2  38 14 15 1.5707963267949 4.71238898038469
0

0101000
+86 0 -88 0 *
Ed
 1.50000021316282e-07 1 1 0
1  25 0 -2.00000000000001 5.99999999999999
0

0101000
+92 0 -86 0 *
Wi

0101100
+91 0 -89 0 -87 0 +85 0 +84 0 *
Fa
0  1e-07 4 11

0101000
+105 0 +94 0 +83 0 *
Ve
1.00000007993606e-07
6.00000000000003 0 12
0 0

0101101
*
Ed
 1.00000007105427e-07 1 1 0
1  26 0 1.5707963267949 3.14159265358979
2  39 6 10 1.5707963267949 3.14159265358979
2  40 5 7 1.5707963267949 3.14159265358979
0

0101000
+81 10 -127 10 *
Ve
1.00000015888219e-07
160 110 12
0 0

0101101
*
Ed
 1.00000015888219e-07 1 1 0
1  27 0 4.71238898038469 6.28318530717959
2  41 7 10 4.71238898038469 6.28318530717959
2  42 5 7 4.71238898038469 6.28318530717959
0

0101000
+120 10 -79 10 *
Ve
1.00000026037606e-07
154 0 12
0 0

0101101
*
Ed
 1.00000007105427e-07 1 1 0
1  28 0 0 148
2  43 8 10 0 148
2  44 5 7 0 148
0

0101000
+81 10 -77 10 *
Ve
1.00000010048592e-07
160 6 12
0 0

0101101
*
Ed
 1.00000007105427e-07 1 1 0
1  29 0 0 104
2  45 9 10 0 104
2  46 5 7 0 104
0

0101000
+79 10 -75 10 *
Ed
 1.00000010048592e-07 1 1 0
1  30 0 0 1.5707963267949
2  47 10 10 0 1.5707963267949
2  48 5 7 0 1.5707963267949
0

0101000
+75 10 -77 10 *
Wi

0101100
+131 9 -124 9 +117 9 +80 9 +78 9 -76 9 +74 9 +73 9 *
Ve
1.50000024868996e-07
61 62 12
0 0

0101101
*
Ve
1.50000024868996e-07
61 54 12
0 0

0101101
*
Ed
 1.50000021316282e-07 1 1 0
1  16 0 -2 6
0

0101000
+71 13 -70 13 *
Ve
1.50000024868996e-07
57 62 12
0 0

0101101
*
Ed
 1.50000021316282e-07 1 1 0
1  17 0 1.5707963267949 4.71238898038469
2  31 11 0 1.5707963267949 4.71238898038469
2  32 11 13 1.5707963267949 4.71238898038469
0

0101000
+71 13 -68 13 *
Ve
1.50000024868996e-07
57 54 12
0 0

0101101
*
Ed
 1.50000021316282e-07 1 1 0
1  18 0 1.5707963267949 4.71238898038469
2  33 12 0 1.5707963267949 4.71238898038469
2  34 12 13 1.5707963267949 4.71238898038469
0

0101000
+66 13 -70 13 *
Ve
1.50000021316282e-07
57 58 12
0 0

0101101
*
Ed
 1.50000021316282e-07 1 1 0
1  19 0 -2 2
0

0101000
+68 13 -64 13 *
Ed
 1.50000021316282e-07 1 1 0
1  20 0 2 6
0

0101000
+64 13 -66 13 *
Wi

0101100
-69 12 +67 12 +65 12 +63 12 +62 12 *
Ve
1.50000024868996e-07
103 62 12
0 0

0101101
*
Ve
1.50000024868996e-07
99 62 12
0 0

0101101
*
Ed
 1.50000021316282e-07 1 1 0
1  21 0 1.5707963267949 4.71238898038469
2  35 13 0 1.5707963267949 4.71238898038469
2  36 13 15 1.5707963267949 4.71238898038469
0

0101000
+60 15 -59 15 *
Ve
1.50000021316282e-07
103 58 12
0 0

0101101
*
Ed
 1.50000021316282e-07 1 1 0
1  22 0 -2 2
0

0101000
+60 15 -57 15 *
Ve
1.50000024868996e-07
103 54 12
0 0

0101101
*
Ed
 1.50000021316282e-07 1 1 0
1  23 0 2 6
0

0101000
+57 15 -55 15 *
Ve
1.50000024868996e-07
99 54 12
0 0

0101101
*
Ed
 1.50000021316282e-07 1 1 0
1  24 0 1.5707963267949 4.71238898038469
2  37 14 0 1.5707963267949 4.71238898038469
2  38 14 15 1.5707963267949 4.71238898038469
0

0101000
+53 15 -55 15 *
Ed
 1.50000021316282e-07 1 1 0
1  25 0 -2.00000000000001 5.99999999999999
0

0101000
+59 15 -53 15 *
Wi

0101100
+58 14 -56 14 -54 14 +52 14 +51 14 *
Fa
0  1e-07 5 16

0101000
+72 0 +61 0 +50 0 *
Ed
 1.00000007993606e-07 1 1 0
1  31 0 0 12
2  49 6 0 0 12
2  50 8 0 0 12
4 G1 6 0 8 0
0

0101000
+114 0 -81 0 *
Wi

0101100
+48 0 -126 0 -113 5 +80 9 *
Fa
0  1.00000007105427e-07 6 0

0101000
+47 0 *
Ed
 1.00000015888219e-07 1 1 0
1  32 0 0 12
2  51 7 0 0 12
2  52 9 0 0 12
4 G1 7 0 9 0
0

0101000
+112 0 -79 0 *
Wi

0101100
+119 0 -45 0 -111 5 +78 9 *
Fa
0  1.00000015888219e-07 7 0

0101000
+44 0 *
Ed
 1.00000026037606e-07 1 1 0
1  33 0 0 12
2  53 8 0 0 12
2  54 10 0 0 12
4 G1 8 0 10 0
0

0101000
+110 0 -77 0 *
Wi

0101100
+48 0 -42 0 -109 5 +76 9 *
Fa
0  1.00000007105427e-07 8 0

0101000
+41 0 *
Ed
 1.00000010048592e-07 1 1 0
1  34 0 0 12
2  55 9 0 0 12
2  56 10 0 0 12
4 G1 9 0 10 0
0

0101000
+108 0 -75 0 *
Wi

0101100
+45 0 -39 0 -107 5 +74 9 *
Fa
0  1.00000007105427e-07 9 0

0101000
+38 0 *
Wi

0101100
+39 0 -42 0 -106 5 +73 9 *
Fa
0  1.00000010048592e-07 10 0

0101000
+36 0 *
Ed
 1.50000024868996e-07 1 1 0
1  35 0 0 12
2  57 11 0 0 12
4 G1 15 0 11 0
0

0101000
+104 0 -71 0 *
Ed
 1.50000024868996e-07 1 1 0
1  36 0 0 12
2  58 12 0 0 12
4 G1 15 0 12 0
0

0101000
+103 0 -70 0 *
Wi

0101100
+34 0 -33 0 -102 0 +69 12 *
Fa
0  1.50000021316282e-07 15 0

0101000
+32 0 *
Ed
 1.50000024868996e-07 1 1 0
1  37 0 0 12
2  59 11 0 0 12
4 G1 16 0 11 0
0

0101000
+101 0 -68 0 *
Wi

0101100
+34 0 -30 0 -100 0 +67 12 *
Fa
0  1.50000021316282e-07 11 0

0101000
+29 0 *
Ed
 1.50000024868996e-07 1 1 0
1  38 0 0 12
2  60 12 0 0 12
4 G1 12 0 17 0
0

0101000
+99 0 -66 0 *
Wi

0101100
+27 0 -33 0 -98 0 +65 12 *
Fa
0  1.50000021316282e-07 12 0

0101000
+26 0 *
Ed
 1.50000021316282e-07 1 1 0
1  39 0 0 12
4 C2 17 0 16 0
0

0101000
+97 0 -64 0 *
Wi

0101100
+30 0 -24 0 -96 0 +63 12 *
Fa
0  1.50000021316282e-07 16 0

0101000
+23 0 *
Wi

0101100
+24 0 -27 0 -95 0 +62 12 *
Fa
0  1.50000021316282e-07 17 0

0101000
+21 0 *
Ed
 1.50000024868996e-07 1 1 0
1  40 0 0 12
2  61 13 0 0 12
4 G1 18 0 13 0
0

0101000
+93 0 -60 0 *
Ed
 1.50000024868996e-07 1 1 0
1  41 0 0 12
2  62 13 0 0 12
4 G1 19 0 13 0
0

0101000
+92 0 -59 0 *
Wi

0101100
+19 0 -18 0 -91 0 +58 14 *
Fa
0  1.50000021316282e-07 13 0

0101000
+17 0 *
Ed
 1.50000021316282e-07 1 1 0
1  42 0 0 12
4 C2 20 0 18 0
0

0101000
+90 0 -57 0 *
Wi

0101100
+19 0 -15 0 -89 0 +56 14 *
Fa
0  1.50000021316282e-07 18 0

0101000
+14 0 *
Ed
 1.50000024868996e-07 1 1 0
1  43 0 0 12
2  63 14 0 0 12
4 G1 14 0 20 0
0

0101000
+88 0 -55 0 *
Wi

0101100
+15 0 -12 0 -87 0 +54 14 *
Fa
0  1.50000021316282e-07 20 0

0101000
+11 0 *
Ed
 1.50000024868996e-07 1 1 0
1  44 0 0 12
2  64 14 0 0 12
4 G1 19 0 14 0
0

0101000
+86 0 -53 0 *
Wi

0101100
+9 0 -12 0 -85 0 +52 14 *
Fa
0  1.50000021316282e-07 14 0

0101000
+8 0 *
Wi

0101100
+18 0 -9 0 -84 0 +51 14 *
Fa
0  1.50000021316282e-07 19 0

0101000
+6 0 *
Sh

0101100
+129 0 -122 0 +115 0 +82 0 -49 0 +46 0 +43 0 -40 0 +37 0 +35 0 
-31 0 +28 0 +25 0 +22 0 +20 0 +16 0 -13 0 -10 0 +7 0 +5 0 
*
So

0100000
+4 0 *
Co

0100000
+3 0 *
Co

1100000
+2 0 *

+1 0 