DBRep_DrawableShape

CASCADE Topology V1, (c) Matra-Datavision
Locations 0
Curve2ds 0
Curves 5
1 99 60 0 1.1102230246251565e-16 -1 0 
2 101 54.000000000000014 0 0 0 1 -1.1102230246251565e-16 1 0 -1 -1.1102230246251565e-16 0 2
1 103 60.000000000000014 0 1.1102230246251565e-16 -1 0 
1 103 60.000000000000014 0 1.1102230246251565e-16 -1 0 
2 101 62.000000000000014 0 0 0 1 1.1102230246251565e-16 -1 0 1 1.1102230246251565e-16 -0 2
Polygon3D 0
PolygonOnTriangulations 0
Surfaces 1
1 101 58.000000000000014 0 -0 -0 -1 -1 0 0 0 1 -0 
Triangulations 0

TShapes 13
Ve
1.50000024868996e-07
99 62 7.105427357601e-15
0 0

0101101
*
Ve
1.50000024868996e-07
99 54 7.105427357601e-15
0 0

0101101
*
Ed
 1.50000021316282e-07 1 1 0
1  1 0 -2.00000000000001 5.99999999999999
0

0101000
+13 0 -12 0 *
Ve
1.50000024868996e-07
103 54 7.105427357601e-15
0 0

0101101
*
Ed
 1.50000021316282e-07 1 1 0
1  2 0 1.5707963267949 4.71238898038469
0

0101000
+12 0 -10 0 *
Ve
1.50000021316282e-07
103 58 0
0 0

0101101
*
Ed
 1.50000021316282e-07 1 1 0
1  3 0 2 6
0

0101000
+8 0 -10 0 *
Ve
1.50000024868996e-07
103 62 7.105427357601e-15
0 0

0101101
*
Ed
 1.50000021316282e-07 1 1 0
1  4 0 -2 2
0

0101000
+6 0 -8 0 *
Ed
 1.50000021316282e-07 1 1 0
1  5 0 1.5707963267949 4.71238898038469
0

0101000
+6 0 -13 0 *
Wi

0101100
+11 0 +9 0 -7 0 -5 0 +4 0 *
Fa
0  1e-07 1 0

0101000
-3 0 *
Sh

1101000
+2 0 *

+1 0 