DBRep_DrawableShape

CASCADE Topology V1, (c) Matra-Datavision
Locations 0
Curve2ds 0
Curves 8
2 6 110 -7.1054273576010019e-15 0 0 -1 1 1.1102230246251565e-16 0 1.1102230246251565e-16 -1 0 6
1 6 116 -7.1054273576010019e-15 1 1.1102230246251565e-16 0 
2 154 110.00000000000001 -7.1054273576010019e-15 0 0 -1 1 1.1102230246251565e-16 0 1.1102230246251565e-16 -1 0 6
1 160 110.00000000000001 -7.1054273576010019e-15 1.1102230246251565e-16 -1 -0 
2 154 6 -7.1054273576010019e-15 0 0 -1 1 1.1102230246251565e-16 0 1.1102230246251565e-16 -1 0 6
1 6.0000000000000284 0 -7.1054273576010019e-15 1 1.1102230246251565e-16 0 
2 6.0000000000000284 6 -7.1054273576010019e-15 0 0 -1 1 1.1102230246251565e-16 0 1.1102230246251565e-16 -1 0 6
1 0 110 -7.1054273576010019e-15 1.1102230246251565e-16 -1 -0 
Polygon3D 0
PolygonOnTriangulations 0
Surfaces 0
Triangulations 0

TShapes 17
Ve
1e-07
0 110 -7.105427357601e-15
0 0

0101101
*
Ve
1e-07
6 116 -7.105427357601e-15
0 0

0101101
*
Ed
 1e-07 1 1 0
1  1 0 3.14159265358979 4.71238898038469
0

0101000
+17 0 -16 0 *
Ve
1e-07
154 116 -7.105427357601e-15
0 0

0101101
*
Ed
 1e-07 1 1 0
1  2 0 -6.66133814775094e-16 148
0

0101000
+16 0 -14 0 *
Ve
1e-07
160 110 -7.105427357601e-15
0 0

0101101
*
Ed
 1e-07 1 1 0
1  3 0 4.71238898038469 6.28318530717959
0

0101000
+14 0 -12 0 *
Ve
1e-07
160 6 -7.105427357601e-15
0 0

0101101
*
Ed
 1e-07 1 1 0
1  4 0 -6.66133814775094e-16 104
0

0101000
+12 0 -10 0 *
Ve
1e-07
154 0 -7.105427357601e-15
0 0

0101101
*
Ed
 1e-07 1 1 0
1  5 0 6.28318530717959 7.85398163397448
0

0101000
+10 0 -8 0 *
Ve
1e-07
6.00000000000003 7.39557098644699e-32 -7.105427357601e-15
0 0

0101101
*
Ed
 1e-07 1 1 0
1  6 0 6.66133814775094e-16 148
0

0101000
+6 0 -8 0 *
Ve
1e-07
2.8421709430404e-14 6 -7.105427357601e-15
0 0

0101101
*
Ed
 1e-07 1 1 0
1  7 0 1.5707963267949 3.14159265358979
0

0101000
+6 0 -4 0 *
Ed
 1e-07 1 1 0
1  8 0 6.66133814775094e-16 104
0

0101000
+17 0 -4 0 *
Wi

0101100
-15 0 -13 0 -11 0 -9 0 -7 0 +5 0 -3 0 +2 0 *

+1 0 