DBRep_DrawableShape

CASCADE Topology V1, (c) Matra-Datavision
Locations 8
1
              1               0               0               0 
              0               1               0               0 
              0               0               1 -7.105427357601e-15 
1
              1               0               0               0 
              0               1               0               0 
              0               0               1               1 
1
              1               0               0               0 
              0               1               0               0 
              0               0               1              -1 
2  1 1 2 1 3 1 0
1
              1               0               0               0 
              0               1               0               0 
              0               0               1               0 
2  5 -1 0
1
              1               0               0               0 
              0               1               0               0 
              0               0               1              12 
2  1 1 2 1 3 1 7 1 0
Curve2ds 8
1 0 12.999999999999993 1 0 
1 0 12.999999999999993 1 0 
1 3.1415926535897931 0 0 1 
1 3.1415926535897931 0 0 1 
1 0 1 1 0 
1 0 -0 0 1 
1 6.2831853071795862 -0 0 1 
1 0 1 1 0 
Curves 12
1 57 60 7.1054273576010019e-15 1.1102230246251565e-16 -1 0 
2 59 54 7.1054273576010019e-15 0 0 -1 1 1.1102230246251565e-16 0 1.1102230246251565e-16 -1 0 2
1 61 60 7.1054273576010019e-15 1.1102230246251565e-16 -1 0 
2 59 62 7.1054273576010019e-15 0 0 -1 1 1.1102230246251565e-16 0 1.1102230246251565e-16 -1 0 2
1 57 62 13 0 0 -1 
1 57 54 13 0 0 -1 
1 57 60.000000000000014 12 -1.1102230246251565e-16 1 0 
2 59 54 12 0 0 -1 1 1.1102230246251565e-16 0 1.1102230246251565e-16 -1 0 2
1 61 54 13 0 0 -1 
1 61 62 13 0 0 -1 
1 61 60.000000000000014 12 -1.1102230246251565e-16 1 0 
2 59 62 12 0 0 -1 1 1.1102230246251565e-16 0 1.1102230246251565e-16 -1 0 2
Polygon3D 0
PolygonOnTriangulations 0
Surfaces 5
1 80 58.000000000000014 0 -0 -0 -1 -1 0 0 0 1 -0 
2 59 54 13 0 0 -1 1 1.1102230246251565e-16 0 1.1102230246251565e-16 -1 0 2
2 59 62 13 0 0 -1 1 1.1102230246251565e-16 0 1.1102230246251565e-16 -1 0 2
1 57 62 13 1 1.1102230246251565e-16 0 0 0 -1 -1.1102230246251565e-16 1 0 
1 61 62 13 1 1.1102230246251565e-16 0 0 0 -1 -1.1102230246251565e-16 1 0 
Triangulations 0

TShapes 34
Ve
1.5e-07
57 62 7.105427357601e-15
0 0

0101101
*
Ve
1.5e-07
57 54 7.105427357601e-15
0 0

0101101
*
Ed
 1.5e-07 1 1 0
1  1 0 -2 6
0

0101000
+34 6 -33 6 *
Ve
1.5e-07
61 54 7.105427357601e-15
0 0

0101101
*
Ed
 1.00000014210855e-07 1 1 0
1  2 0 0 3.14159265358979
2  1 2 0 0 3.14159265358979
0

0101000
+31 6 -33 6 *
Ve
1.5e-07
61 62 7.105427357601e-15
0 0

0101101
*
Ed
 1.5e-07 1 1 0
1  3 0 -2 6
0

0101000
+29 6 -31 6 *
Ed
 1.00000014210855e-07 1 1 0
1  4 0 3.14159265358979 6.28318530717959
2  2 3 0 3.14159265358979 6.28318530717959
0

0101000
+34 6 -29 6 *
Wi

0101100
-32 5 +30 5 +28 5 +27 5 *
Fa
0  1e-07 1 4

0101000
+26 0 *
Ve
1.5e-07
57 62 12
0 0

0101101
*
Ed
 1e-07 1 1 0
1  5 0 1 13
2  3 3 0 1 13
0

0101000
+24 6 -34 6 *
Ve
1.5e-07
57 54 12
0 0

0101101
*
Ed
 1e-07 1 1 0
1  6 0 1 13
2  4 2 0 1 13
0

0101000
+22 6 -33 6 *
Ed
 1.5e-07 1 1 0
1  7 0 -6.00000000000001 1.99999999999999
0

0101000
+22 6 -24 6 *
Wi

0101100
-23 5 -32 5 +21 5 -20 5 *
Fa
0  1e-07 4 5

0101000
+19 0 *
Ve
1.5e-07
61 54 12
0 0

0101101
*
Ed
 1.00000007105427e-07 1 1 0
1  8 0 0 3.14159265358979
2  5 2 0 0 3.14159265358979
0

0101000
+17 6 -22 6 *
Ed
 1e-07 1 1 0
1  9 0 1 13
2  6 2 0 1 13
0

0101000
+17 6 -31 6 *
Wi

0101100
-30 5 +21 5 +16 5 -15 5 *
Fa
0  1e-07 2 5

0101000
+14 0 *
Ve
1.5e-07
61 62 12
0 0

0101101
*
Ed
 1e-07 1 1 0
1  10 0 1 13
2  7 3 0 1 13
0

0101000
+12 6 -29 6 *
Ed
 1.5e-07 1 1 0
1  11 0 -6.00000000000001 1.99999999999999
0

0101000
+17 6 -12 6 *
Wi

0101100
-11 5 -28 5 +15 5 -10 5 *
Fa
0  1e-07 5 5

0101000
+9 0 *
Ed
 1.00000007105427e-07 1 1 0
1  12 0 3.14159265358979 6.28318530717959
2  8 3 0 3.14159265358979 6.28318530717959
0

0101000
+24 6 -12 6 *
Wi

0101100
+7 5 -23 5 -27 5 +11 5 *
Fa
0  1e-07 3 5

0101000
+6 0 *
Wi

0101100
+16 5 -10 5 +7 5 +20 5 *
Fa
0  1e-07 1 8

0101000
+4 0 *
Sh

0101100
+25 0 -18 0 +13 0 +8 0 +5 0 -3 0 *
So

0100000
+2 0 *

+1 0 