DBRep_DrawableShape

CASCADE Topology V1, (c) Matra-Datavision
Locations 61
1
              1               0               0               0 
              0               1               0               0 
              0               0               1               0 
1
              1               0               0               0 
              0 0.999390827019096 -0.034899496702501 0.229755587983817 
              0 0.034899496702501 0.999390827019096 -5.16268882004653 
1
              1               0               0               0 
              0 0.997564050259824 -0.0697564737441253 0.639546456522538 
              0 0.0697564737441253 0.997564050259824 -10.3142143151698 
1
              1               0               0               0 
              0 0.994521895368273 -0.104528463267653 1.22887333856619 
              0 0.104528463267653 0.994521895368273 -15.4483001450858 
1
              1               0               0               0 
              0 0.99026806874157 -0.139173100960065 1.99701823008783 
              0 0.139173100960065 0.99026806874157 -20.558691217056 
1
              1               0               0               0 
              0 0.984807753012208 -0.17364817766693 2.94304526486096 
              0 0.17364817766693 0.984807753012208 -25.6391613067545 
1
              1               0               0               0 
              0 0.978147600733806 -0.207911690817759 4.0658018546678 
              0 0.207911690817759 0.978147600733806 -30.6835206439636 
1
              1               0               0               0 
              0 0.970295726275996 -0.241921895599668 5.3639200935512 
              0 0.241921895599668 0.970295726275996 -35.6856234538548 
1
              1               0               0               0 
              0 0.961261695938319 -0.275637355816999 6.83581842439679 
              0 0.275637355816999 0.961261695938319 -40.6393754446691 
1
              1               0               0               0 
              0 0.951056516295154 -0.309016994374947 8.47970356581709 
              0 0.309016994374947 0.951056516295154 -45.5387412326728 
1
              1               0               0               0 
              0 0.939692620785908 -0.342020143325669 10.2935726969882 
              0 0.342020143325669 0.939692620785908 -50.3777516953426 
1
              1               0               0               0 
              0 0.927183854566787 -0.374606593415912 12.2752158977791 
              0 0.374606593415912 0.927183854566787 -55.1505112438221 
1
              1               0               0               0 
              0 0.913545457642601 -0.4067366430758 14.4222188411983 
              0 0.4067366430758 0.913545457642601 -59.8512050057888 
1
              1               0               0               0 
              0 0.898794046299167 -0.438371146789077 16.7319657348796 
              0 0.438371146789077 0.898794046299167 -64.4741059099801 
1
              1               0               0               0 
              0 0.882947592858927 -0.469471562785891 19.2016425080224 
              0 0.469471562785891 0.882947592858927 -69.0135816637475 
1
              1               0               0               0 
              0 0.866025403784439            -0.5 21.8282402399031 
              0             0.5 0.866025403784439 -73.4641016151377 
1
              1               0               0               0 
              0 0.848048096156426 -0.529919264233205 24.6085588257818 
              0 0.529919264233205 0.848048096156426 -77.82024349114 
1
              1               0               0               0 
              0 0.829037572555042 -0.559192903470747 27.5392108757368 
              0 0.559192903470747 0.829037572555042 -82.0767000038907 
1
              1               0               0               0 
              0 0.809016994374947 -0.587785252292473 30.6166258416777 
              0 0.587785252292473 0.809016994374947 -86.2282853167858 
1
              1               0               0               0 
              0 0.788010753606722 -0.615661475325658 33.8370543675078 
              0 0.615661475325658 0.788010753606722 -90.2699413626243 
1
              1               0               0               0 
              0 0.766044443118978 -0.642787609686539 37.1965728571374 
              0 0.642787609686539 0.766044443118978 -94.1967440060837 
1
              1               0               0               0 
              0 0.743144825477394 -0.669130606358858 40.6910882547811 
              0 0.669130606358858 0.743144825477394 -98.0039090430206 
1
              1               0               0               0 
              0 0.719339800338651 -0.694658370458997 44.3163430317156 
              0 0.694658370458997 0.719339800338651 -101.686798029286 
1
              1               0               0               0 
              0 0.694658370458997 -0.719339800338651 48.067920373423 
              0 0.719339800338651 0.694658370458997 -105.240923931956 
1
              1               0               0               0 
              0 0.669130606358858 -0.743144825477394 51.9412495607986 
              0 0.743144825477394 0.669130606358858 -108.66195659609 
1
              1               0               0               0 
              0 0.642787609686539 -0.766044443118978 55.9316115388681 
              0 0.766044443118978 0.642787609686539 -111.945728020355 
1
              1               0               0               0 
              0 0.615661475325658 -0.788010753606722 60.0341446662295 
              0 0.788010753606722 0.615661475325658 -115.088237435097 
1
              1               0               0               0 
              0 0.587785252292473 -0.809016994374947 64.2438506382138 
              0 0.809016994374947 0.587785252292473 -118.085656176662 
1
              1               0               0               0 
              0 0.559192903470747 -0.829037572555042 68.5556005765496 
              0 0.829037572555042 0.559192903470747 -120.934332352029 
1
              1               0               0               0 
              0 0.529919264233205 -0.848048096156426 72.9641412781114 
              0 0.848048096156426 0.529919264233205 -123.630795288084 
1
              1               0               0               0 
              0             0.5 -0.866025403784439 77.4641016151377 
              0 0.866025403784439             0.5 -126.171759760097 
1
              1               0               0               0 
              0 0.469471562785891 -0.882947592858927 82.0499990791239 
              0 0.882947592858927 0.469471562785891 -128.554129994265 
1
              1               0               0               0 
              0 0.438371146789077 -0.898794046299167 86.7162464604132 
              0 0.898794046299167 0.438371146789077 -130.775003439433 
1
              1               0               0               0 
              0 0.4067366430758 -0.913545457642601 91.457158655352 
              0 0.913545457642601 0.4067366430758 -132.831674303408 
1
              1               0               0               0 
              0 0.374606593415912 -0.927183854566787 96.2669595927122 
              0 0.927183854566787 0.374606593415912 -134.721636849548 
1
              1               0               0               0 
              0 0.342020143325669 -0.939692620785908 101.139789270945 
              0 0.939692620785908 0.342020143325669 -136.442588449617 
1
              1               0               0               0 
              0 0.309016994374947 -0.951056516295154 106.069710897688 
              0 0.951056516295154 0.309016994374947 -137.992432389183 
1
              1               0               0               0 
              0 0.275637355816999 -0.961261695938319 111.050718122837 
              0 0.961261695938319 0.275637355816999 -139.369280422139 
1
              1               0               0               0 
              0 0.241921895599668 -0.970295726275996 116.076742356353 
              0 0.970295726275996 0.241921895599668 -140.571455071246 
1
              1               0               0               0 
              0 0.207911690817759 -0.978147600733806 121.141660161907 
              0 0.978147600733806 0.207911690817759 -141.597491671874 
1
              1               0               0               0 
              0 0.17364817766693 -0.984807753012208 126.239300717343 
              0 0.984807753012208 0.17364817766693 -142.446140156475 
1
              1               0               0               0 
              0 0.139173100960065 -0.99026806874157 131.363453332877 
              0 0.99026806874157 0.139173100960065 -143.116366577593 
1
              1               0               0               0 
              0 0.104528463267653 -0.994521895368273 136.50787501786 
              0 0.994521895368273 0.104528463267653 -143.607354367575 
1
              1               0               0               0 
              0 0.0697564737441252 -0.997564050259824 141.666298086909 
              0 0.997564050259824 0.0697564737441252 -143.91850533343 
1
              1               0               0               0 
              0 0.034899496702501 -0.999390827019096 146.832437796106 
              0 0.999390827019096 0.034899496702501 -144.049440385636 
1
              1               0               0               0 
              0 1.11022302462516e-16              -1             152 
              0               1 1.11022302462516e-16            -144 
1
              1               0               0               0 
              0 -0.0348994967025009 -0.999390827019096 157.162688820047 
              0 0.999390827019096 -0.0348994967025009 -143.770244412016 
1
              1               0               0               0 
              0 -0.0697564737441254 -0.997564050259824 162.31421431517 
              0 0.997564050259824 -0.0697564737441254 -143.360453543477 
1
              1               0               0               0 
              0 -0.104528463267654 -0.994521895368273 167.448300145086 
              0 0.994521895368273 -0.104528463267654 -142.771126661434 
1
              1               0               0               0 
              0 -0.139173100960065 -0.99026806874157 172.558691217056 
              0 0.99026806874157 -0.139173100960065 -142.002981769912 
1
              1               0               0               0 
              0 -0.17364817766693 -0.984807753012208 177.639161306755 
              0 0.984807753012208 -0.17364817766693 -141.056954735139 
1
              1               0               0               0 
              0 -0.207911690817759 -0.978147600733806 182.683520643964 
              0 0.978147600733806 -0.207911690817759 -139.934198145332 
1
              1               0               0               0 
              0 -0.241921895599668 -0.970295726275996 187.685623453855 
              0 0.970295726275996 -0.241921895599668 -138.636079906449 
1
              1               0               0               0 
              0 -0.275637355816999 -0.961261695938319 192.639375444669 
              0 0.961261695938319 -0.275637355816999 -137.164181575603 
1
              1               0               0               0 
              0 -0.309016994374947 -0.951056516295154 197.538741232673 
              0 0.951056516295154 -0.309016994374947 -135.520296434183 
1
              1               0               0               0 
              0 -0.342020143325669 -0.939692620785908 202.377751695343 
              0 0.939692620785908 -0.342020143325669 -133.706427303012 
1
              1               0               0               0 
              0 -0.374606593415912 -0.927183854566787 207.150511243822 
              0 0.927183854566787 -0.374606593415912 -131.724784102221 
1
              1               0               0               0 
              0 -0.4067366430758 -0.913545457642601 211.851205005789 
              0 0.913545457642601 -0.4067366430758 -129.577781158802 
1
              1               0               0               0 
              0 -0.438371146789077 -0.898794046299167 216.47410590998 
              0 0.898794046299167 -0.438371146789077 -127.26803426512 
1
              1               0               0               0 
              0 -0.469471562785891 -0.882947592858927 221.013581663748 
              0 0.882947592858927 -0.469471562785891 -124.798357491978 
1
              1               0               0               0 
              0            -0.5 -0.866025403784439 225.464101615138 
              0 0.866025403784439            -0.5 -122.171759760097 
Curve2ds 366
1 0 2 1 0 
2 0 0 1 0 -0 1 17
1 6.2831853071795862 -0 0 1 
1 0 -0 0 1 
1 0 0 1 0 
2 0 0 1 0 -0 1 17
1 0 2 1 0 
2 0 0 1 0 -0 1 17
1 6.2831853071795862 -0 0 1 
1 0 -0 0 1 
1 0 0 1 0 
2 0 0 1 0 -0 1 17
1 0 2 1 0 
2 0 0 1 0 -0 1 17
1 6.2831853071795862 -0 0 1 
1 0 -0 0 1 
1 0 0 1 0 
2 0 0 1 0 -0 1 17
1 0 2 1 0 
2 0 0 1 0 -0 1 17
1 6.2831853071795862 -0 0 1 
1 0 -0 0 1 
1 0 0 1 0 
2 0 0 1 0 -0 1 17
1 0 2 1 0 
2 0 0 1 0 -0 1 17
1 6.2831853071795862 -0 0 1 
1 0 -0 0 1 
1 0 0 1 0 
2 0 0 1 0 -0 1 17
1 0 2 1 0 
2 0 0 1 0 -0 1 17
1 6.2831853071795862 -0 0 1 
1 0 -0 0 1 
1 0 0 1 0 
2 0 0 1 0 -0 1 17
1 0 2 1 0 
2 0 0 1 0 -0 1 17
1 6.2831853071795862 -0 0 1 
1 0 -0 0 1 
1 0 0 1 0 
2 0 0 1 0 -0 1 17
1 0 2 1 0 
2 0 0 1 0 -0 1 17
1 6.2831853071795862 -0 0 1 
1 0 -0 0 1 
1 0 0 1 0 
2 0 0 1 0 -0 1 17
1 0 2 1 0 
2 0 0 1 0 -0 1 17
1 6.2831853071795862 -0 0 1 
1 0 -0 0 1 
1 0 0 1 0 
2 0 0 1 0 -0 1 17
1 0 2 1 0 
2 0 0 1 0 -0 1 17
1 6.2831853071795862 -0 0 1 
1 0 -0 0 1 
1 0 0 1 0 
2 0 0 1 0 -0 1 17
1 0 2 1 0 
2 0 0 1 0 -0 1 17
1 6.2831853071795862 -0 0 1 
1 0 -0 0 1 
1 0 0 1 0 
2 0 0 1 0 -0 1 17
1 0 2 1 0 
2 0 0 1 0 -0 1 17
1 6.2831853071795862 -0 0 1 
1 0 -0 0 1 
1 0 0 1 0 
2 0 0 1 0 -0 1 17
1 0 2 1 0 
2 0 0 1 0 -0 1 17
1 6.2831853071795862 -0 0 1 
1 0 -0 0 1 
1 0 0 1 0 
2 0 0 1 0 -0 1 17
1 0 2 1 0 
2 0 0 1 0 -0 1 17
1 6.2831853071795862 -0 0 1 
1 0 -0 0 1 
1 0 0 1 0 
2 0 0 1 0 -0 1 17
1 0 2 1 0 
2 0 0 1 0 -0 1 17
1 6.2831853071795862 -0 0 1 
1 0 -0 0 1 
1 0 0 1 0 
2 0 0 1 0 -0 1 17
1 0 2 1 0 
2 0 0 1 0 -0 1 17
1 6.2831853071795862 -0 0 1 
1 0 -0 0 1 
1 0 0 1 0 
2 0 0 1 0 -0 1 17
1 0 2 1 0 
2 0 0 1 0 -0 1 17
1 6.2831853071795862 -0 0 1 
1 0 -0 0 1 
1 0 0 1 0 
2 0 0 1 0 -0 1 17
1 0 2 1 0 
2 0 0 1 0 -0 1 17
1 6.2831853071795862 -0 0 1 
1 0 -0 0 1 
1 0 0 1 0 
2 0 0 1 0 -0 1 17
1 0 2 1 0 
2 0 0 1 0 -0 1 17
1 6.2831853071795862 -0 0 1 
1 0 -0 0 1 
1 0 0 1 0 
2 0 0 1 0 -0 1 17
1 0 2 1 0 
2 0 0 1 0 -0 1 17
1 6.2831853071795862 -0 0 1 
1 0 -0 0 1 
1 0 0 1 0 
2 0 0 1 0 -0 1 17
1 0 2 1 0 
2 0 0 1 0 -0 1 17
1 6.2831853071795862 -0 0 1 
1 0 -0 0 1 
1 0 0 1 0 
2 0 0 1 0 -0 1 17
1 0 2 1 0 
2 0 0 1 0 -0 1 17
1 6.2831853071795862 -0 0 1 
1 0 -0 0 1 
1 0 0 1 0 
2 0 0 1 0 -0 1 17
1 0 2 1 0 
2 0 0 1 0 -0 1 17
1 6.2831853071795862 -0 0 1 
1 0 -0 0 1 
1 0 0 1 0 
2 0 0 1 0 -0 1 17
1 0 2 1 0 
2 0 0 1 0 -0 1 17
1 6.2831853071795862 -0 0 1 
1 0 -0 0 1 
1 0 0 1 0 
2 0 0 1 0 -0 1 17
1 0 2 1 0 
2 0 0 1 0 -0 1 17
1 6.2831853071795862 -0 0 1 
1 0 -0 0 1 
1 0 0 1 0 
2 0 0 1 0 -0 1 17
1 0 2 1 0 
2 0 0 1 0 -0 1 17
1 6.2831853071795862 -0 0 1 
1 0 -0 0 1 
1 0 0 1 0 
2 0 0 1 0 -0 1 17
1 0 2 1 0 
2 0 0 1 0 -0 1 17
1 6.2831853071795862 -0 0 1 
1 0 -0 0 1 
1 0 0 1 0 
2 0 0 1 0 -0 1 17
1 0 2 1 0 
2 0 0 1 0 -0 1 17
1 6.2831853071795862 -0 0 1 
1 0 -0 0 1 
1 0 0 1 0 
2 0 0 1 0 -0 1 17
1 0 2 1 0 
2 0 0 1 0 -0 1 17
1 6.2831853071795862 -0 0 1 
1 0 -0 0 1 
1 0 0 1 0 
2 0 0 1 0 -0 1 17
1 0 2 1 0 
2 0 0 1 0 -0 1 17
1 6.2831853071795862 -0 0 1 
1 0 -0 0 1 
1 0 0 1 0 
2 0 0 1 0 -0 1 17
1 0 2 1 0 
2 0 0 1 0 -0 1 17
1 6.2831853071795862 -0 0 1 
1 0 -0 0 1 
1 0 0 1 0 
2 0 0 1 0 -0 1 17
1 0 2 1 0 
2 0 0 1 0 -0 1 17
1 6.2831853071795862 -0 0 1 
1 0 -0 0 1 
1 0 0 1 0 
2 0 0 1 0 -0 1 17
1 0 2 1 0 
2 0 0 1 0 -0 1 17
1 6.2831853071795862 -0 0 1 
1 0 -0 0 1 
1 0 0 1 0 
2 0 0 1 0 -0 1 17
1 0 2 1 0 
2 0 0 1 0 -0 1 17
1 6.2831853071795862 -0 0 1 
1 0 -0 0 1 
1 0 0 1 0 
2 0 0 1 0 -0 1 17
1 0 2 1 0 
2 0 0 1 0 -0 1 17
1 6.2831853071795862 -0 0 1 
1 0 -0 0 1 
1 0 0 1 0 
2 0 0 1 0 -0 1 17
1 0 2 1 0 
2 0 0 1 0 -0 1 17
1 6.2831853071795862 -0 0 1 
1 0 -0 0 1 
1 0 0 1 0 
2 0 0 1 0 -0 1 17
1 0 2 1 0 
2 0 0 1 0 -0 1 17
1 6.2831853071795862 -0 0 1 
1 0 -0 0 1 
1 0 0 1 0 
2 0 0 1 0 -0 1 17
1 0 2 1 0 
2 0 0 1 0 -0 1 17
1 6.2831853071795862 -0 0 1 
1 0 -0 0 1 
1 0 0 1 0 
2 0 0 1 0 -0 1 17
1 0 2 1 0 
2 0 0 1 0 -0 1 17
1 6.2831853071795862 -0 0 1 
1 0 -0 0 1 
1 0 0 1 0 
2 0 0 1 0 -0 1 17
1 0 2 1 0 
2 0 0 1 0 -0 1 17
1 6.2831853071795862 -0 0 1 
1 0 -0 0 1 
1 0 0 1 0 
2 0 0 1 0 -0 1 17
1 0 2 1 0 
2 0 0 1 0 -0 1 17
1 6.2831853071795862 -0 0 1 
1 0 -0 0 1 
1 0 0 1 0 
2 0 0 1 0 -0 1 17
1 0 2 1 0 
2 0 0 1 0 -0 1 17
1 6.2831853071795862 -0 0 1 
1 0 -0 0 1 
1 0 0 1 0 
2 0 0 1 0 -0 1 17
1 0 2 1 0 
2 0 0 1 0 -0 1 17
1 6.2831853071795862 -0 0 1 
1 0 -0 0 1 
1 0 0 1 0 
2 0 0 1 0 -0 1 17
1 0 2 1 0 
2 0 0 1 0 -0 1 17
1 6.2831853071795862 -0 0 1 
1 0 -0 0 1 
1 0 0 1 0 
2 0 0 1 0 -0 1 17
1 0 2 1 0 
2 0 0 1 0 -0 1 17
1 6.2831853071795862 -0 0 1 
1 0 -0 0 1 
1 0 0 1 0 
2 0 0 1 0 -0 1 17
1 0 2 1 0 
2 0 0 1 0 -0 1 17
1 6.2831853071795862 -0 0 1 
1 0 -0 0 1 
1 0 0 1 0 
2 0 0 1 0 -0 1 17
1 0 2 1 0 
2 0 0 1 0 -0 1 17
1 6.2831853071795862 -0 0 1 
1 0 -0 0 1 
1 0 0 1 0 
2 0 0 1 0 -0 1 17
1 0 2 1 0 
2 0 0 1 0 -0 1 17
1 6.2831853071795862 -0 0 1 
1 0 -0 0 1 
1 0 0 1 0 
2 0 0 1 0 -0 1 17
1 0 2 1 0 
2 0 0 1 0 -0 1 17
1 6.2831853071795862 -0 0 1 
1 0 -0 0 1 
1 0 0 1 0 
2 0 0 1 0 -0 1 17
1 0 2 1 0 
2 0 0 1 0 -0 1 17
1 6.2831853071795862 -0 0 1 
1 0 -0 0 1 
1 0 0 1 0 
2 0 0 1 0 -0 1 17
1 0 2 1 0 
2 0 0 1 0 -0 1 17
1 6.2831853071795862 -0 0 1 
1 0 -0 0 1 
1 0 0 1 0 
2 0 0 1 0 -0 1 17
1 0 2 1 0 
2 0 0 1 0 -0 1 17
1 6.2831853071795862 -0 0 1 
1 0 -0 0 1 
1 0 0 1 0 
2 0 0 1 0 -0 1 17
1 0 2 1 0 
2 0 0 1 0 -0 1 17
1 6.2831853071795862 -0 0 1 
1 0 -0 0 1 
1 0 0 1 0 
2 0 0 1 0 -0 1 17
1 0 2 1 0 
2 0 0 1 0 -0 1 17
1 6.2831853071795862 -0 0 1 
1 0 -0 0 1 
1 0 0 1 0 
2 0 0 1 0 -0 1 17
1 0 2 1 0 
2 0 0 1 0 -0 1 17
1 6.2831853071795862 -0 0 1 
1 0 -0 0 1 
1 0 0 1 0 
2 0 0 1 0 -0 1 17
1 0 2 1 0 
2 0 0 1 0 -0 1 17
1 6.2831853071795862 -0 0 1 
1 0 -0 0 1 
1 0 0 1 0 
2 0 0 1 0 -0 1 17
1 0 2 1 0 
2 0 0 1 0 -0 1 17
1 6.2831853071795862 -0 0 1 
1 0 -0 0 1 
1 0 0 1 0 
2 0 0 1 0 -0 1 17
1 0 2 1 0 
2 0 0 1 0 -0 1 17
1 6.2831853071795862 -0 0 1 
1 0 -0 0 1 
1 0 0 1 0 
2 0 0 1 0 -0 1 17
1 0 2 1 0 
2 0 0 1 0 -0 1 17
1 6.2831853071795862 -0 0 1 
1 0 -0 0 1 
1 0 0 1 0 
2 0 0 1 0 -0 1 17
1 0 2 1 0 
2 0 0 1 0 -0 1 17
1 6.2831853071795862 -0 0 1 
1 0 -0 0 1 
1 0 0 1 0 
2 0 0 1 0 -0 1 17
1 0 2 1 0 
2 0 0 1 0 -0 1 17
1 6.2831853071795862 -0 0 1 
1 0 -0 0 1 
1 0 0 1 0 
2 0 0 1 0 -0 1 17
Curves 183
2 342 131 4 0 0 1 1 0 -0 -0 1 0 17
1 359 131 2 0 0 1 
2 342 131 2 0 0 1 1 0 -0 -0 1 0 17
2 342 131 4 0 0 1 1 0 -0 -0 1 0 17
1 359 131 2 0 0 1 
2 342 131 2 0 0 1 1 0 -0 -0 1 0 17
2 342 131 4 0 0 1 1 0 -0 -0 1 0 17
1 359 131 2 0 0 1 
2 342 131 2 0 0 1 1 0 -0 -0 1 0 17
2 342 131 4 0 0 1 1 0 -0 -0 1 0 17
1 359 131 2 0 0 1 
2 342 131 2 0 0 1 1 0 -0 -0 1 0 17
2 342 131 4 0 0 1 1 0 -0 -0 1 0 17
1 359 131 2 0 0 1 
2 342 131 2 0 0 1 1 0 -0 -0 1 0 17
2 342 131 4 0 0 1 1 0 -0 -0 1 0 17
1 359 131 2 0 0 1 
2 342 131 2 0 0 1 1 0 -0 -0 1 0 17
2 342 131 4 0 0 1 1 0 -0 -0 1 0 17
1 359 131 2 0 0 1 
2 342 131 2 0 0 1 1 0 -0 -0 1 0 17
2 342 131 4 0 0 1 1 0 -0 -0 1 0 17
1 359 131 2 0 0 1 
2 342 131 2 0 0 1 1 0 -0 -0 1 0 17
2 342 131 4 0 0 1 1 0 -0 -0 1 0 17
1 359 131 2 0 0 1 
2 342 131 2 0 0 1 1 0 -0 -0 1 0 17
2 342 131 4 0 0 1 1 0 -0 -0 1 0 17
1 359 131 2 0 0 1 
2 342 131 2 0 0 1 1 0 -0 -0 1 0 17
2 342 131 4 0 0 1 1 0 -0 -0 1 0 17
1 359 131 2 0 0 1 
2 342 131 2 0 0 1 1 0 -0 -0 1 0 17
2 342 131 4 0 0 1 1 0 -0 -0 1 0 17
1 359 131 2 0 0 1 
2 342 131 2 0 0 1 1 0 -0 -0 1 0 17
2 342 131 4 0 0 1 1 0 -0 -0 1 0 17
1 359 131 2 0 0 1 
2 342 131 2 0 0 1 1 0 -0 -0 1 0 17
2 342 131 4 0 0 1 1 0 -0 -0 1 0 17
1 359 131 2 0 0 1 
2 342 131 2 0 0 1 1 0 -0 -0 1 0 17
2 342 131 4 0 0 1 1 0 -0 -0 1 0 17
1 359 131 2 0 0 1 
2 342 131 2 0 0 1 1 0 -0 -0 1 0 17
2 342 131 4 0 0 1 1 0 -0 -0 1 0 17
1 359 131 2 0 0 1 
2 342 131 2 0 0 1 1 0 -0 -0 1 0 17
2 342 131 4 0 0 1 1 0 -0 -0 1 0 17
1 359 131 2 0 0 1 
2 342 131 2 0 0 1 1 0 -0 -0 1 0 17
2 342 131 4 0 0 1 1 0 -0 -0 1 0 17
1 359 131 2 0 0 1 
2 342 131 2 0 0 1 1 0 -0 -0 1 0 17
2 342 131 4 0 0 1 1 0 -0 -0 1 0 17
1 359 131 2 0 0 1 
2 342 131 2 0 0 1 1 0 -0 -0 1 0 17
2 342 131 4 0 0 1 1 0 -0 -0 1 0 17
1 359 131 2 0 0 1 
2 342 131 2 0 0 1 1 0 -0 -0 1 0 17
2 342 131 4 0 0 1 1 0 -0 -0 1 0 17
1 359 131 2 0 0 1 
2 342 131 2 0 0 1 1 0 -0 -0 1 0 17
2 342 131 4 0 0 1 1 0 -0 -0 1 0 17
1 359 131 2 0 0 1 
2 342 131 2 0 0 1 1 0 -0 -0 1 0 17
2 342 131 4 0 0 1 1 0 -0 -0 1 0 17
1 359 131 2 0 0 1 
2 342 131 2 0 0 1 1 0 -0 -0 1 0 17
2 342 131 4 0 0 1 1 0 -0 -0 1 0 17
1 359 131 2 0 0 1 
2 342 131 2 0 0 1 1 0 -0 -0 1 0 17
2 342 131 4 0 0 1 1 0 -0 -0 1 0 17
1 359 131 2 0 0 1 
2 342 131 2 0 0 1 1 0 -0 -0 1 0 17
2 342 131 4 0 0 1 1 0 -0 -0 1 0 17
1 359 131 2 0 0 1 
2 342 131 2 0 0 1 1 0 -0 -0 1 0 17
2 342 131 4 0 0 1 1 0 -0 -0 1 0 17
1 359 131 2 0 0 1 
2 342 131 2 0 0 1 1 0 -0 -0 1 0 17
2 342 131 4 0 0 1 1 0 -0 -0 1 0 17
1 359 131 2 0 0 1 
2 342 131 2 0 0 1 1 0 -0 -0 1 0 17
2 342 131 4 0 0 1 1 0 -0 -0 1 0 17
1 359 131 2 0 0 1 
2 342 131 2 0 0 1 1 0 -0 -0 1 0 17
2 342 131 4 0 0 1 1 0 -0 -0 1 0 17
1 359 131 2 0 0 1 
2 342 131 2 0 0 1 1 0 -0 -0 1 0 17
2 342 131 4 0 0 1 1 0 -0 -0 1 0 17
1 359 131 2 0 0 1 
2 342 131 2 0 0 1 1 0 -0 -0 1 0 17
2 342 131 4 0 0 1 1 0 -0 -0 1 0 17
1 359 131 2 0 0 1 
2 342 131 2 0 0 1 1 0 -0 -0 1 0 17
2 342 131 4 0 0 1 1 0 -0 -0 1 0 17
1 359 131 2 0 0 1 
2 342 131 2 0 0 1 1 0 -0 -0 1 0 17
2 342 131 4 0 0 1 1 0 -0 -0 1 0 17
1 359 131 2 0 0 1 
2 342 131 2 0 0 1 1 0 -0 -0 1 0 17
2 342 131 4 0 0 1 1 0 -0 -0 1 0 17
1 359 131 2 0 0 1 
2 342 131 2 0 0 1 1 0 -0 -0 1 0 17
2 342 131 4 0 0 1 1 0 -0 -0 1 0 17
1 359 131 2 0 0 1 
2 342 131 2 0 0 1 1 0 -0 -0 1 0 17
2 342 131 4 0 0 1 1 0 -0 -0 1 0 17
1 359 131 2 0 0 1 
2 342 131 2 0 0 1 1 0 -0 -0 1 0 17
2 342 131 4 0 0 1 1 0 -0 -0 1 0 17
1 359 131 2 0 0 1 
2 342 131 2 0 0 1 1 0 -0 -0 1 0 17
2 342 131 4 0 0 1 1 0 -0 -0 1 0 17
1 359 131 2 0 0 1 
2 342 131 2 0 0 1 1 0 -0 -0 1 0 17
2 342 131 4 0 0 1 1 0 -0 -0 1 0 17
1 359 131 2 0 0 1 
2 342 131 2 0 0 1 1 0 -0 -0 1 0 17
2 342 131 4 0 0 1 1 0 -0 -0 1 0 17
1 359 131 2 0 0 1 
2 342 131 2 0 0 1 1 0 -0 -0 1 0 17
2 342 131 4 0 0 1 1 0 -0 -0 1 0 17
1 359 131 2 0 0 1 
2 342 131 2 0 0 1 1 0 -0 -0 1 0 17
2 342 131 4 0 0 1 1 0 -0 -0 1 0 17
1 359 131 2 0 0 1 
2 342 131 2 0 0 1 1 0 -0 -0 1 0 17
2 342 131 4 0 0 1 1 0 -0 -0 1 0 17
1 359 131 2 0 0 1 
2 342 131 2 0 0 1 1 0 -0 -0 1 0 17
2 342 131 4 0 0 1 1 0 -0 -0 1 0 17
1 359 131 2 0 0 1 
2 342 131 2 0 0 1 1 0 -0 -0 1 0 17
2 342 131 4 0 0 1 1 0 -0 -0 1 0 17
1 359 131 2 0 0 1 
2 342 131 2 0 0 1 1 0 -0 -0 1 0 17
2 342 131 4 0 0 1 1 0 -0 -0 1 0 17
1 359 131 2 0 0 1 
2 342 131 2 0 0 1 1 0 -0 -0 1 0 17
2 342 131 4 0 0 1 1 0 -0 -0 1 0 17
1 359 131 2 0 0 1 
2 342 131 2 0 0 1 1 0 -0 -0 1 0 17
2 342 131 4 0 0 1 1 0 -0 -0 1 0 17
1 359 131 2 0 0 1 
2 342 131 2 0 0 1 1 0 -0 -0 1 0 17
2 342 131 4 0 0 1 1 0 -0 -0 1 0 17
1 359 131 2 0 0 1 
2 342 131 2 0 0 1 1 0 -0 -0 1 0 17
2 342 131 4 0 0 1 1 0 -0 -0 1 0 17
1 359 131 2 0 0 1 
2 342 131 2 0 0 1 1 0 -0 -0 1 0 17
2 342 131 4 0 0 1 1 0 -0 -0 1 0 17
1 359 131 2 0 0 1 
2 342 131 2 0 0 1 1 0 -0 -0 1 0 17
2 342 131 4 0 0 1 1 0 -0 -0 1 0 17
1 359 131 2 0 0 1 
2 342 131 2 0 0 1 1 0 -0 -0 1 0 17
2 342 131 4 0 0 1 1 0 -0 -0 1 0 17
1 359 131 2 0 0 1 
2 342 131 2 0 0 1 1 0 -0 -0 1 0 17
2 342 131 4 0 0 1 1 0 -0 -0 1 0 17
1 359 131 2 0 0 1 
2 342 131 2 0 0 1 1 0 -0 -0 1 0 17
2 342 131 4 0 0 1 1 0 -0 -0 1 0 17
1 359 131 2 0 0 1 
2 342 131 2 0 0 1 1 0 -0 -0 1 0 17
2 342 131 4 0 0 1 1 0 -0 -0 1 0 17
1 359 131 2 0 0 1 
2 342 131 2 0 0 1 1 0 -0 -0 1 0 17
2 342 131 4 0 0 1 1 0 -0 -0 1 0 17
1 359 131 2 0 0 1 
2 342 131 2 0 0 1 1 0 -0 -0 1 0 17
2 342 131 4 0 0 1 1 0 -0 -0 1 0 17
1 359 131 2 0 0 1 
2 342 131 2 0 0 1 1 0 -0 -0 1 0 17
2 342 131 4 0 0 1 1 0 -0 -0 1 0 17
1 359 131 2 0 0 1 
2 342 131 2 0 0 1 1 0 -0 -0 1 0 17
2 342 131 4 0 0 1 1 0 -0 -0 1 0 17
1 359 131 2 0 0 1 
2 342 131 2 0 0 1 1 0 -0 -0 1 0 17
Polygon3D 0
PolygonOnTriangulations 0
Surfaces 183
2 342 131 2 0 0 1 1 0 -0 -0 1 0 17
1 342 131 4 0 0 1 1 0 -0 -0 1 0 
1 342 131 2 0 0 1 1 0 -0 -0 1 0 
2 342 131 2 0 0 1 1 0 -0 -0 1 0 17
1 342 131 4 0 0 1 1 0 -0 -0 1 0 
1 342 131 2 0 0 1 1 0 -0 -0 1 0 
2 342 131 2 0 0 1 1 0 -0 -0 1 0 17
1 342 131 4 0 0 1 1 0 -0 -0 1 0 
1 342 131 2 0 0 1 1 0 -0 -0 1 0 
2 342 131 2 0 0 1 1 0 -0 -0 1 0 17
1 342 131 4 0 0 1 1 0 -0 -0 1 0 
1 342 131 2 0 0 1 1 0 -0 -0 1 0 
2 342 131 2 0 0 1 1 0 -0 -0 1 0 17
1 342 131 4 0 0 1 1 0 -0 -0 1 0 
1 342 131 2 0 0 1 1 0 -0 -0 1 0 
2 342 131 2 0 0 1 1 0 -0 -0 1 0 17
1 342 131 4 0 0 1 1 0 -0 -0 1 0 
1 342 131 2 0 0 1 1 0 -0 -0 1 0 
2 342 131 2 0 0 1 1 0 -0 -0 1 0 17
1 342 131 4 0 0 1 1 0 -0 -0 1 0 
1 342 131 2 0 0 1 1 0 -0 -0 1 0 
2 342 131 2 0 0 1 1 0 -0 -0 1 0 17
1 342 131 4 0 0 1 1 0 -0 -0 1 0 
1 342 131 2 0 0 1 1 0 -0 -0 1 0 
2 342 131 2 0 0 1 1 0 -0 -0 1 0 17
1 342 131 4 0 0 1 1 0 -0 -0 1 0 
1 342 131 2 0 0 1 1 0 -0 -0 1 0 
2 342 131 2 0 0 1 1 0 -0 -0 1 0 17
1 342 131 4 0 0 1 1 0 -0 -0 1 0 
1 342 131 2 0 0 1 1 0 -0 -0 1 0 
2 342 131 2 0 0 1 1 0 -0 -0 1 0 17
1 342 131 4 0 0 1 1 0 -0 -0 1 0 
1 342 131 2 0 0 1 1 0 -0 -0 1 0 
2 342 131 2 0 0 1 1 0 -0 -0 1 0 17
1 342 131 4 0 0 1 1 0 -0 -0 1 0 
1 342 131 2 0 0 1 1 0 -0 -0 1 0 
2 342 131 2 0 0 1 1 0 -0 -0 1 0 17
1 342 131 4 0 0 1 1 0 -0 -0 1 0 
1 342 131 2 0 0 1 1 0 -0 -0 1 0 
2 342 131 2 0 0 1 1 0 -0 -0 1 0 17
1 342 131 4 0 0 1 1 0 -0 -0 1 0 
1 342 131 2 0 0 1 1 0 -0 -0 1 0 
2 342 131 2 0 0 1 1 0 -0 -0 1 0 17
1 342 131 4 0 0 1 1 0 -0 -0 1 0 
1 342 131 2 0 0 1 1 0 -0 -0 1 0 
2 342 131 2 0 0 1 1 0 -0 -0 1 0 17
1 342 131 4 0 0 1 1 0 -0 -0 1 0 
1 342 131 2 0 0 1 1 0 -0 -0 1 0 
2 342 131 2 0 0 1 1 0 -0 -0 1 0 17
1 342 131 4 0 0 1 1 0 -0 -0 1 0 
1 342 131 2 0 0 1 1 0 -0 -0 1 0 
2 342 131 2 0 0 1 1 0 -0 -0 1 0 17
1 342 131 4 0 0 1 1 0 -0 -0 1 0 
1 342 131 2 0 0 1 1 0 -0 -0 1 0 
2 342 131 2 0 0 1 1 0 -0 -0 1 0 17
1 342 131 4 0 0 1 1 0 -0 -0 1 0 
1 342 131 2 0 0 1 1 0 -0 -0 1 0 
2 342 131 2 0 0 1 1 0 -0 -0 1 0 17
1 342 131 4 0 0 1 1 0 -0 -0 1 0 
1 342 131 2 0 0 1 1 0 -0 -0 1 0 
2 342 131 2 0 0 1 1 0 -0 -0 1 0 17
1 342 131 4 0 0 1 1 0 -0 -0 1 0 
1 342 131 2 0 0 1 1 0 -0 -0 1 0 
2 342 131 2 0 0 1 1 0 -0 -0 1 0 17
1 342 131 4 0 0 1 1 0 -0 -0 1 0 
1 342 131 2 0 0 1 1 0 -0 -0 1 0 
2 342 131 2 0 0 1 1 0 -0 -0 1 0 17
1 342 131 4 0 0 1 1 0 -0 -0 1 0 
1 342 131 2 0 0 1 1 0 -0 -0 1 0 
2 342 131 2 0 0 1 1 0 -0 -0 1 0 17
1 342 131 4 0 0 1 1 0 -0 -0 1 0 
1 342 131 2 0 0 1 1 0 -0 -0 1 0 
2 342 131 2 0 0 1 1 0 -0 -0 1 0 17
1 342 131 4 0 0 1 1 0 -0 -0 1 0 
1 342 131 2 0 0 1 1 0 -0 -0 1 0 
2 342 131 2 0 0 1 1 0 -0 -0 1 0 17
1 342 131 4 0 0 1 1 0 -0 -0 1 0 
1 342 131 2 0 0 1 1 0 -0 -0 1 0 
2 342 131 2 0 0 1 1 0 -0 -0 1 0 17
1 342 131 4 0 0 1 1 0 -0 -0 1 0 
1 342 131 2 0 0 1 1 0 -0 -0 1 0 
2 342 131 2 0 0 1 1 0 -0 -0 1 0 17
1 342 131 4 0 0 1 1 0 -0 -0 1 0 
1 342 131 2 0 0 1 1 0 -0 -0 1 0 
2 342 131 2 0 0 1 1 0 -0 -0 1 0 17
1 342 131 4 0 0 1 1 0 -0 -0 1 0 
1 342 131 2 0 0 1 1 0 -0 -0 1 0 
2 342 131 2 0 0 1 1 0 -0 -0 1 0 17
1 342 131 4 0 0 1 1 0 -0 -0 1 0 
1 342 131 2 0 0 1 1 0 -0 -0 1 0 
2 342 131 2 0 0 1 1 0 -0 -0 1 0 17
1 342 131 4 0 0 1 1 0 -0 -0 1 0 
1 342 131 2 0 0 1 1 0 -0 -0 1 0 
2 342 131 2 0 0 1 1 0 -0 -0 1 0 17
1 342 131 4 0 0 1 1 0 -0 -0 1 0 
1 342 131 2 0 0 1 1 0 -0 -0 1 0 
2 342 131 2 0 0 1 1 0 -0 -0 1 0 17
1 342 131 4 0 0 1 1 0 -0 -0 1 0 
1 342 131 2 0 0 1 1 0 -0 -0 1 0 
2 342 131 2 0 0 1 1 0 -0 -0 1 0 17
1 342 131 4 0 0 1 1 0 -0 -0 1 0 
1 342 131 2 0 0 1 1 0 -0 -0 1 0 
2 342 131 2 0 0 1 1 0 -0 -0 1 0 17
1 342 131 4 0 0 1 1 0 -0 -0 1 0 
1 342 131 2 0 0 1 1 0 -0 -0 1 0 
2 342 131 2 0 0 1 1 0 -0 -0 1 0 17
1 342 131 4 0 0 1 1 0 -0 -0 1 0 
1 342 131 2 0 0 1 1 0 -0 -0 1 0 
2 342 131 2 0 0 1 1 0 -0 -0 1 0 17
1 342 131 4 0 0 1 1 0 -0 -0 1 0 
1 342 131 2 0 0 1 1 0 -0 -0 1 0 
2 342 131 2 0 0 1 1 0 -0 -0 1 0 17
1 342 131 4 0 0 1 1 0 -0 -0 1 0 
1 342 131 2 0 0 1 1 0 -0 -0 1 0 
2 342 131 2 0 0 1 1 0 -0 -0 1 0 17
1 342 131 4 0 0 1 1 0 -0 -0 1 0 
1 342 131 2 0 0 1 1 0 -0 -0 1 0 
2 342 131 2 0 0 1 1 0 -0 -0 1 0 17
1 342 131 4 0 0 1 1 0 -0 -0 1 0 
1 342 131 2 0 0 1 1 0 -0 -0 1 0 
2 342 131 2 0 0 1 1 0 -0 -0 1 0 17
1 342 131 4 0 0 1 1 0 -0 -0 1 0 
1 342 131 2 0 0 1 1 0 -0 -0 1 0 
2 342 131 2 0 0 1 1 0 -0 -0 1 0 17
1 342 131 4 0 0 1 1 0 -0 -0 1 0 
1 342 131 2 0 0 1 1 0 -0 -0 1 0 
2 342 131 2 0 0 1 1 0 -0 -0 1 0 17
1 342 131 4 0 0 1 1 0 -0 -0 1 0 
1 342 131 2 0 0 1 1 0 -0 -0 1 0 
2 342 131 2 0 0 1 1 0 -0 -0 1 0 17
1 342 131 4 0 0 1 1 0 -0 -0 1 0 
1 342 131 2 0 0 1 1 0 -0 -0 1 0 
2 342 131 2 0 0 1 1 0 -0 -0 1 0 17
1 342 131 4 0 0 1 1 0 -0 -0 1 0 
1 342 131 2 0 0 1 1 0 -0 -0 1 0 
2 342 131 2 0 0 1 1 0 -0 -0 1 0 17
1 342 131 4 0 0 1 1 0 -0 -0 1 0 
1 342 131 2 0 0 1 1 0 -0 -0 1 0 
2 342 131 2 0 0 1 1 0 -0 -0 1 0 17
1 342 131 4 0 0 1 1 0 -0 -0 1 0 
1 342 131 2 0 0 1 1 0 -0 -0 1 0 
2 342 131 2 0 0 1 1 0 -0 -0 1 0 17
1 342 131 4 0 0 1 1 0 -0 -0 1 0 
1 342 131 2 0 0 1 1 0 -0 -0 1 0 
2 342 131 2 0 0 1 1 0 -0 -0 1 0 17
1 342 131 4 0 0 1 1 0 -0 -0 1 0 
1 342 131 2 0 0 1 1 0 -0 -0 1 0 
2 342 131 2 0 0 1 1 0 -0 -0 1 0 17
1 342 131 4 0 0 1 1 0 -0 -0 1 0 
1 342 131 2 0 0 1 1 0 -0 -0 1 0 
2 342 131 2 0 0 1 1 0 -0 -0 1 0 17
1 342 131 4 0 0 1 1 0 -0 -0 1 0 
1 342 131 2 0 0 1 1 0 -0 -0 1 0 
2 342 131 2 0 0 1 1 0 -0 -0 1 0 17
1 342 131 4 0 0 1 1 0 -0 -0 1 0 
1 342 131 2 0 0 1 1 0 -0 -0 1 0 
2 342 131 2 0 0 1 1 0 -0 -0 1 0 17
1 342 131 4 0 0 1 1 0 -0 -0 1 0 
1 342 131 2 0 0 1 1 0 -0 -0 1 0 
2 342 131 2 0 0 1 1 0 -0 -0 1 0 17
1 342 131 4 0 0 1 1 0 -0 -0 1 0 
1 342 131 2 0 0 1 1 0 -0 -0 1 0 
2 342 131 2 0 0 1 1 0 -0 -0 1 0 17
1 342 131 4 0 0 1 1 0 -0 -0 1 0 
1 342 131 2 0 0 1 1 0 -0 -0 1 0 
2 342 131 2 0 0 1 1 0 -0 -0 1 0 17
1 342 131 4 0 0 1 1 0 -0 -0 1 0 
1 342 131 2 0 0 1 1 0 -0 -0 1 0 
2 342 131 2 0 0 1 1 0 -0 -0 1 0 17
1 342 131 4 0 0 1 1 0 -0 -0 1 0 
1 342 131 2 0 0 1 1 0 -0 -0 1 0 
2 342 131 2 0 0 1 1 0 -0 -0 1 0 17
1 342 131 4 0 0 1 1 0 -0 -0 1 0 
1 342 131 2 0 0 1 1 0 -0 -0 1 0 
2 342 131 2 0 0 1 1 0 -0 -0 1 0 17
1 342 131 4 0 0 1 1 0 -0 -0 1 0 
1 342 131 2 0 0 1 1 0 -0 -0 1 0 
2 342 131 2 0 0 1 1 0 -0 -0 1 0 17
1 342 131 4 0 0 1 1 0 -0 -0 1 0 
1 342 131 2 0 0 1 1 0 -0 -0 1 0 
2 342 131 2 0 0 1 1 0 -0 -0 1 0 17
1 342 131 4 0 0 1 1 0 -0 -0 1 0 
1 342 131 2 0 0 1 1 0 -0 -0 1 0 
Triangulations 0

TShapes 794
Ve
1e-07
359 131 4
0 0

0101101
*
Ed
 1e-07 1 1 0
1  1 0 0 6.28318530717959
2  1 1 0 0 6.28318530717959
2  2 2 0 0 6.28318530717959
0

0101000
+794 0 -794 0 *
Ve
1e-07
359 131 2
0 0

0101101
*
Ed
 1e-07 1 1 0
1  2 0 0 2
3  3 4CN 1 0 0 2
0

0101000
-794 0 +792 0 *
Ed
 1e-07 1 1 0
1  3 0 0 6.28318530717959
2  5 1 0 0 6.28318530717959
2  6 3 0 0 6.28318530717959
0

0101000
+792 0 -792 0 *
Wi

0101100
-793 0 +791 0 +790 0 -791 0 *
Fa
0  1e-07 1 0

0111000
+789 0 *
Wi

0101100
+793 0 *
Fa
0  1e-07 2 0

0111000
+787 0 *
Wi

0101100
-790 0 *
Fa
0  1e-07 3 0

0111000
-785 0 *
Sh

0101100
+788 0 +786 0 -784 0 *
So

0100000
+783 0 *
Ve
1e-07
359 131 4
0 0

0101101
*
Ed
 1e-07 1 1 0
1  4 0 0 6.28318530717959
2  7 4 0 0 6.28318530717959
2  8 5 0 0 6.28318530717959
0

0101000
+781 0 -781 0 *
Ve
1e-07
359 131 2
0 0

0101101
*
Ed
 1e-07 1 1 0
1  5 0 0 2
3  9 10CN 4 0 0 2
0

0101000
-781 0 +779 0 *
Ed
 1e-07 1 1 0
1  6 0 0 6.28318530717959
2  11 4 0 0 6.28318530717959
2  12 6 0 0 6.28318530717959
0

0101000
+779 0 -779 0 *
Wi

0101100
-780 0 +778 0 +777 0 -778 0 *
Fa
0  1e-07 4 0

0111000
+776 0 *
Wi

0101100
+780 0 *
Fa
0  1e-07 5 0

0111000
+774 0 *
Wi

0101100
-777 0 *
Fa
0  1e-07 6 0

0111000
-772 0 *
Sh

0101100
+775 0 +773 0 -771 0 *
So

0100000
+770 0 *
Ve
1e-07
359 131 4
0 0

0101101
*
Ed
 1e-07 1 1 0
1  7 0 0 6.28318530717959
2  13 7 0 0 6.28318530717959
2  14 8 0 0 6.28318530717959
0

0101000
+768 0 -768 0 *
Ve
1e-07
359 131 2
0 0

0101101
*
Ed
 1e-07 1 1 0
1  8 0 0 2
3  15 16CN 7 0 0 2
0

0101000
-768 0 +766 0 *
Ed
 1e-07 1 1 0
1  9 0 0 6.28318530717959
2  17 7 0 0 6.28318530717959
2  18 9 0 0 6.28318530717959
0

0101000
+766 0 -766 0 *
Wi

0101100
-767 0 +765 0 +764 0 -765 0 *
Fa
0  1e-07 7 0

0111000
+763 0 *
Wi

0101100
+767 0 *
Fa
0  1e-07 8 0

0111000
+761 0 *
Wi

0101100
-764 0 *
Fa
0  1e-07 9 0

0111000
-759 0 *
Sh

0101100
+762 0 +760 0 -758 0 *
So

0100000
+757 0 *
Ve
1e-07
359 131 4
0 0

0101101
*
Ed
 1e-07 1 1 0
1  10 0 0 6.28318530717959
2  19 10 0 0 6.28318530717959
2  20 11 0 0 6.28318530717959
0

0101000
+755 0 -755 0 *
Ve
1e-07
359 131 2
0 0

0101101
*
Ed
 1e-07 1 1 0
1  11 0 0 2
3  21 22CN 10 0 0 2
0

0101000
-755 0 +753 0 *
Ed
 1e-07 1 1 0
1  12 0 0 6.28318530717959
2  23 10 0 0 6.28318530717959
2  24 12 0 0 6.28318530717959
0

0101000
+753 0 -753 0 *
Wi

0101100
-754 0 +752 0 +751 0 -752 0 *
Fa
0  1e-07 10 0

0111000
+750 0 *
Wi

0101100
+754 0 *
Fa
0  1e-07 11 0

0111000
+748 0 *
Wi

0101100
-751 0 *
Fa
0  1e-07 12 0

0111000
-746 0 *
Sh

0101100
+749 0 +747 0 -745 0 *
So

0100000
+744 0 *
Ve
1e-07
359 131 4
0 0

0101101
*
Ed
 1e-07 1 1 0
1  13 0 0 6.28318530717959
2  25 13 0 0 6.28318530717959
2  26 14 0 0 6.28318530717959
0

0101000
+742 0 -742 0 *
Ve
1e-07
359 131 2
0 0

0101101
*
Ed
 1e-07 1 1 0
1  14 0 0 2
3  27 28CN 13 0 0 2
0

0101000
-742 0 +740 0 *
Ed
 1e-07 1 1 0
1  15 0 0 6.28318530717959
2  29 13 0 0 6.28318530717959
2  30 15 0 0 6.28318530717959
0

0101000
+740 0 -740 0 *
Wi

0101100
-741 0 +739 0 +738 0 -739 0 *
Fa
0  1e-07 13 0

0111000
+737 0 *
Wi

0101100
+741 0 *
Fa
0  1e-07 14 0

0111000
+735 0 *
Wi

0101100
-738 0 *
Fa
0  1e-07 15 0

0111000
-733 0 *
Sh

0101100
+736 0 +734 0 -732 0 *
So

0100000
+731 0 *
Ve
1e-07
359 131 4
0 0

0101101
*
Ed
 1e-07 1 1 0
1  16 0 0 6.28318530717959
2  31 16 0 0 6.28318530717959
2  32 17 0 0 6.28318530717959
0

0101000
+729 0 -729 0 *
Ve
1e-07
359 131 2
0 0

0101101
*
Ed
 1e-07 1 1 0
1  17 0 0 2
3  33 34CN 16 0 0 2
0

0101000
-729 0 +727 0 *
Ed
 1e-07 1 1 0
1  18 0 0 6.28318530717959
2  35 16 0 0 6.28318530717959
2  36 18 0 0 6.28318530717959
0

0101000
+727 0 -727 0 *
Wi

0101100
-728 0 +726 0 +725 0 -726 0 *
Fa
0  1e-07 16 0

0111000
+724 0 *
Wi

0101100
+728 0 *
Fa
0  1e-07 17 0

0111000
+722 0 *
Wi

0101100
-725 0 *
Fa
0  1e-07 18 0

0111000
-720 0 *
Sh

0101100
+723 0 +721 0 -719 0 *
So

0100000
+718 0 *
Ve
1e-07
359 131 4
0 0

0101101
*
Ed
 1e-07 1 1 0
1  19 0 0 6.28318530717959
2  37 19 0 0 6.28318530717959
2  38 20 0 0 6.28318530717959
0

0101000
+716 0 -716 0 *
Ve
1e-07
359 131 2
0 0

0101101
*
Ed
 1e-07 1 1 0
1  20 0 0 2
3  39 40CN 19 0 0 2
0

0101000
-716 0 +714 0 *
Ed
 1e-07 1 1 0
1  21 0 0 6.28318530717959
2  41 19 0 0 6.28318530717959
2  42 21 0 0 6.28318530717959
0

0101000
+714 0 -714 0 *
Wi

0101100
-715 0 +713 0 +712 0 -713 0 *
Fa
0  1e-07 19 0

0111000
+711 0 *
Wi

0101100
+715 0 *
Fa
0  1e-07 20 0

0111000
+709 0 *
Wi

0101100
-712 0 *
Fa
0  1e-07 21 0

0111000
-707 0 *
Sh

0101100
+710 0 +708 0 -706 0 *
So

0100000
+705 0 *
Ve
1e-07
359 131 4
0 0

0101101
*
Ed
 1e-07 1 1 0
1  22 0 0 6.28318530717959
2  43 22 0 0 6.28318530717959
2  44 23 0 0 6.28318530717959
0

0101000
+703 0 -703 0 *
Ve
1e-07
359 131 2
0 0

0101101
*
Ed
 1e-07 1 1 0
1  23 0 0 2
3  45 46CN 22 0 0 2
0

0101000
-703 0 +701 0 *
Ed
 1e-07 1 1 0
1  24 0 0 6.28318530717959
2  47 22 0 0 6.28318530717959
2  48 24 0 0 6.28318530717959
0

0101000
+701 0 -701 0 *
Wi

0101100
-702 0 +700 0 +699 0 -700 0 *
Fa
0  1e-07 22 0

0111000
+698 0 *
Wi

0101100
+702 0 *
Fa
0  1e-07 23 0

0111000
+696 0 *
Wi

0101100
-699 0 *
Fa
0  1e-07 24 0

0111000
-694 0 *
Sh

0101100
+697 0 +695 0 -693 0 *
So

0100000
+692 0 *
Ve
1e-07
359 131 4
0 0

0101101
*
Ed
 1e-07 1 1 0
1  25 0 0 6.28318530717959
2  49 25 0 0 6.28318530717959
2  50 26 0 0 6.28318530717959
0

0101000
+690 0 -690 0 *
Ve
1e-07
359 131 2
0 0

0101101
*
Ed
 1e-07 1 1 0
1  26 0 0 2
3  51 52CN 25 0 0 2
0

0101000
-690 0 +688 0 *
Ed
 1e-07 1 1 0
1  27 0 0 6.28318530717959
2  53 25 0 0 6.28318530717959
2  54 27 0 0 6.28318530717959
0

0101000
+688 0 -688 0 *
Wi

0101100
-689 0 +687 0 +686 0 -687 0 *
Fa
0  1e-07 25 0

0111000
+685 0 *
Wi

0101100
+689 0 *
Fa
0  1e-07 26 0

0111000
+683 0 *
Wi

0101100
-686 0 *
Fa
0  1e-07 27 0

0111000
-681 0 *
Sh

0101100
+684 0 +682 0 -680 0 *
So

0100000
+679 0 *
Ve
1e-07
359 131 4
0 0

0101101
*
Ed
 1e-07 1 1 0
1  28 0 0 6.28318530717959
2  55 28 0 0 6.28318530717959
2  56 29 0 0 6.28318530717959
0

0101000
+677 0 -677 0 *
Ve
1e-07
359 131 2
0 0

0101101
*
Ed
 1e-07 1 1 0
1  29 0 0 2
3  57 58CN 28 0 0 2
0

0101000
-677 0 +675 0 *
Ed
 1e-07 1 1 0
1  30 0 0 6.28318530717959
2  59 28 0 0 6.28318530717959
2  60 30 0 0 6.28318530717959
0

0101000
+675 0 -675 0 *
Wi

0101100
-676 0 +674 0 +673 0 -674 0 *
Fa
0  1e-07 28 0

0111000
+672 0 *
Wi

0101100
+676 0 *
Fa
0  1e-07 29 0

0111000
+670 0 *
Wi

0101100
-673 0 *
Fa
0  1e-07 30 0

0111000
-668 0 *
Sh

0101100
+671 0 +669 0 -667 0 *
So

0100000
+666 0 *
Ve
1e-07
359 131 4
0 0

0101101
*
Ed
 1e-07 1 1 0
1  31 0 0 6.28318530717959
2  61 31 0 0 6.28318530717959
2  62 32 0 0 6.28318530717959
0

0101000
+664 0 -664 0 *
Ve
1e-07
359 131 2
0 0

0101101
*
Ed
 1e-07 1 1 0
1  32 0 0 2
3  63 64CN 31 0 0 2
0

0101000
-664 0 +662 0 *
Ed
 1e-07 1 1 0
1  33 0 0 6.28318530717959
2  65 31 0 0 6.28318530717959
2  66 33 0 0 6.28318530717959
0

0101000
+662 0 -662 0 *
Wi

0101100
-663 0 +661 0 +660 0 -661 0 *
Fa
0  1e-07 31 0

0111000
+659 0 *
Wi

0101100
+663 0 *
Fa
0  1e-07 32 0

0111000
+657 0 *
Wi

0101100
-660 0 *
Fa
0  1e-07 33 0

0111000
-655 0 *
Sh

0101100
+658 0 +656 0 -654 0 *
So

0100000
+653 0 *
Ve
1e-07
359 131 4
0 0

0101101
*
Ed
 1e-07 1 1 0
1  34 0 0 6.28318530717959
2  67 34 0 0 6.28318530717959
2  68 35 0 0 6.28318530717959
0

0101000
+651 0 -651 0 *
Ve
1e-07
359 131 2
0 0

0101101
*
Ed
 1e-07 1 1 0
1  35 0 0 2
3  69 70CN 34 0 0 2
0

0101000
-651 0 +649 0 *
Ed
 1e-07 1 1 0
1  36 0 0 6.28318530717959
2  71 34 0 0 6.28318530717959
2  72 36 0 0 6.28318530717959
0

0101000
+649 0 -649 0 *
Wi

0101100
-650 0 +648 0 +647 0 -648 0 *
Fa
0  1e-07 34 0

0111000
+646 0 *
Wi

0101100
+650 0 *
Fa
0  1e-07 35 0

0111000
+644 0 *
Wi

0101100
-647 0 *
Fa
0  1e-07 36 0

0111000
-642 0 *
Sh

0101100
+645 0 +643 0 -641 0 *
So

0100000
+640 0 *
Ve
1e-07
359 131 4
0 0

0101101
*
Ed
 1e-07 1 1 0
1  37 0 0 6.28318530717959
2  73 37 0 0 6.28318530717959
2  74 38 0 0 6.28318530717959
0

0101000
+638 0 -638 0 *
Ve
1e-07
359 131 2
0 0

0101101
*
Ed
 1e-07 1 1 0
1  38 0 0 2
3  75 76CN 37 0 0 2
0

0101000
-638 0 +636 0 *
Ed
 1e-07 1 1 0
1  39 0 0 6.28318530717959
2  77 37 0 0 6.28318530717959
2  78 39 0 0 6.28318530717959
0

0101000
+636 0 -636 0 *
Wi

0101100
-637 0 +635 0 +634 0 -635 0 *
Fa
0  1e-07 37 0

0111000
+633 0 *
Wi

0101100
+637 0 *
Fa
0  1e-07 38 0

0111000
+631 0 *
Wi

0101100
-634 0 *
Fa
0  1e-07 39 0

0111000
-629 0 *
Sh

0101100
+632 0 +630 0 -628 0 *
So

0100000
+627 0 *
Ve
1e-07
359 131 4
0 0

0101101
*
Ed
 1e-07 1 1 0
1  40 0 0 6.28318530717959
2  79 40 0 0 6.28318530717959
2  80 41 0 0 6.28318530717959
0

0101000
+625 0 -625 0 *
Ve
1e-07
359 131 2
0 0

0101101
*
Ed
 1e-07 1 1 0
1  41 0 0 2
3  81 82CN 40 0 0 2
0

0101000
-625 0 +623 0 *
Ed
 1e-07 1 1 0
1  42 0 0 6.28318530717959
2  83 40 0 0 6.28318530717959
2  84 42 0 0 6.28318530717959
0

0101000
+623 0 -623 0 *
Wi

0101100
-624 0 +622 0 +621 0 -622 0 *
Fa
0  1e-07 40 0

0111000
+620 0 *
Wi

0101100
+624 0 *
Fa
0  1e-07 41 0

0111000
+618 0 *
Wi

0101100
-621 0 *
Fa
0  1e-07 42 0

0111000
-616 0 *
Sh

0101100
+619 0 +617 0 -615 0 *
So

0100000
+614 0 *
Ve
1e-07
359 131 4
0 0

0101101
*
Ed
 1e-07 1 1 0
1  43 0 0 6.28318530717959
2  85 43 0 0 6.28318530717959
2  86 44 0 0 6.28318530717959
0

0101000
+612 0 -612 0 *
Ve
1e-07
359 131 2
0 0

0101101
*
Ed
 1e-07 1 1 0
1  44 0 0 2
3  87 88CN 43 0 0 2
0

0101000
-612 0 +610 0 *
Ed
 1e-07 1 1 0
1  45 0 0 6.28318530717959
2  89 43 0 0 6.28318530717959
2  90 45 0 0 6.28318530717959
0

0101000
+610 0 -610 0 *
Wi

0101100
-611 0 +609 0 +608 0 -609 0 *
Fa
0  1e-07 43 0

0111000
+607 0 *
Wi

0101100
+611 0 *
Fa
0  1e-07 44 0

0111000
+605 0 *
Wi

0101100
-608 0 *
Fa
0  1e-07 45 0

0111000
-603 0 *
Sh

0101100
+606 0 +604 0 -602 0 *
So

0100000
+601 0 *
Ve
1e-07
359 131 4
0 0

0101101
*
Ed
 1e-07 1 1 0
1  46 0 0 6.28318530717959
2  91 46 0 0 6.28318530717959
2  92 47 0 0 6.28318530717959
0

0101000
+599 0 -599 0 *
Ve
1e-07
359 131 2
0 0

0101101
*
Ed
 1e-07 1 1 0
1  47 0 0 2
3  93 94CN 46 0 0 2
0

0101000
-599 0 +597 0 *
Ed
 1e-07 1 1 0
1  48 0 0 6.28318530717959
2  95 46 0 0 6.28318530717959
2  96 48 0 0 6.28318530717959
0

0101000
+597 0 -597 0 *
Wi

0101100
-598 0 +596 0 +595 0 -596 0 *
Fa
0  1e-07 46 0

0111000
+594 0 *
Wi

0101100
+598 0 *
Fa
0  1e-07 47 0

0111000
+592 0 *
Wi

0101100
-595 0 *
Fa
0  1e-07 48 0

0111000
-590 0 *
Sh

0101100
+593 0 +591 0 -589 0 *
So

0100000
+588 0 *
Ve
1e-07
359 131 4
0 0

0101101
*
Ed
 1e-07 1 1 0
1  49 0 0 6.28318530717959
2  97 49 0 0 6.28318530717959
2  98 50 0 0 6.28318530717959
0

0101000
+586 0 -586 0 *
Ve
1e-07
359 131 2
0 0

0101101
*
Ed
 1e-07 1 1 0
1  50 0 0 2
3  99 100CN 49 0 0 2
0

0101000
-586 0 +584 0 *
Ed
 1e-07 1 1 0
1  51 0 0 6.28318530717959
2  101 49 0 0 6.28318530717959
2  102 51 0 0 6.28318530717959
0

0101000
+584 0 -584 0 *
Wi

0101100
-585 0 +583 0 +582 0 -583 0 *
Fa
0  1e-07 49 0

0111000
+581 0 *
Wi

0101100
+585 0 *
Fa
0  1e-07 50 0

0111000
+579 0 *
Wi

0101100
-582 0 *
Fa
0  1e-07 51 0

0111000
-577 0 *
Sh

0101100
+580 0 +578 0 -576 0 *
So

0100000
+575 0 *
Ve
1e-07
359 131 4
0 0

0101101
*
Ed
 1e-07 1 1 0
1  52 0 0 6.28318530717959
2  103 52 0 0 6.28318530717959
2  104 53 0 0 6.28318530717959
0

0101000
+573 0 -573 0 *
Ve
1e-07
359 131 2
0 0

0101101
*
Ed
 1e-07 1 1 0
1  53 0 0 2
3  105 106CN 52 0 0 2
0

0101000
-573 0 +571 0 *
Ed
 1e-07 1 1 0
1  54 0 0 6.28318530717959
2  107 52 0 0 6.28318530717959
2  108 54 0 0 6.28318530717959
0

0101000
+571 0 -571 0 *
Wi

0101100
-572 0 +570 0 +569 0 -570 0 *
Fa
0  1e-07 52 0

0111000
+568 0 *
Wi

0101100
+572 0 *
Fa
0  1e-07 53 0

0111000
+566 0 *
Wi

0101100
-569 0 *
Fa
0  1e-07 54 0

0111000
-564 0 *
Sh

0101100
+567 0 +565 0 -563 0 *
So

0100000
+562 0 *
Ve
1e-07
359 131 4
0 0

0101101
*
Ed
 1e-07 1 1 0
1  55 0 0 6.28318530717959
2  109 55 0 0 6.28318530717959
2  110 56 0 0 6.28318530717959
0

0101000
+560 0 -560 0 *
Ve
1e-07
359 131 2
0 0

0101101
*
Ed
 1e-07 1 1 0
1  56 0 0 2
3  111 112CN 55 0 0 2
0

0101000
-560 0 +558 0 *
Ed
 1e-07 1 1 0
1  57 0 0 6.28318530717959
2  113 55 0 0 6.28318530717959
2  114 57 0 0 6.28318530717959
0

0101000
+558 0 -558 0 *
Wi

0101100
-559 0 +557 0 +556 0 -557 0 *
Fa
0  1e-07 55 0

0111000
+555 0 *
Wi

0101100
+559 0 *
Fa
0  1e-07 56 0

0111000
+553 0 *
Wi

0101100
-556 0 *
Fa
0  1e-07 57 0

0111000
-551 0 *
Sh

0101100
+554 0 +552 0 -550 0 *
So

0100000
+549 0 *
Ve
1e-07
359 131 4
0 0

0101101
*
Ed
 1e-07 1 1 0
1  58 0 0 6.28318530717959
2  115 58 0 0 6.28318530717959
2  116 59 0 0 6.28318530717959
0

0101000
+547 0 -547 0 *
Ve
1e-07
359 131 2
0 0

0101101
*
Ed
 1e-07 1 1 0
1  59 0 0 2
3  117 118CN 58 0 0 2
0

0101000
-547 0 +545 0 *
Ed
 1e-07 1 1 0
1  60 0 0 6.28318530717959
2  119 58 0 0 6.28318530717959
2  120 60 0 0 6.28318530717959
0

0101000
+545 0 -545 0 *
Wi

0101100
-546 0 +544 0 +543 0 -544 0 *
Fa
0  1e-07 58 0

0111000
+542 0 *
Wi

0101100
+546 0 *
Fa
0  1e-07 59 0

0111000
+540 0 *
Wi

0101100
-543 0 *
Fa
0  1e-07 60 0

0111000
-538 0 *
Sh

0101100
+541 0 +539 0 -537 0 *
So

0100000
+536 0 *
Ve
1e-07
359 131 4
0 0

0101101
*
Ed
 1e-07 1 1 0
1  61 0 0 6.28318530717959
2  121 61 0 0 6.28318530717959
2  122 62 0 0 6.28318530717959
0

0101000
+534 0 -534 0 *
Ve
1e-07
359 131 2
0 0

0101101
*
Ed
 1e-07 1 1 0
1  62 0 0 2
3  123 124CN 61 0 0 2
0

0101000
-534 0 +532 0 *
Ed
 1e-07 1 1 0
1  63 0 0 6.28318530717959
2  125 61 0 0 6.28318530717959
2  126 63 0 0 6.28318530717959
0

0101000
+532 0 -532 0 *
Wi

0101100
-533 0 +531 0 +530 0 -531 0 *
Fa
0  1e-07 61 0

0111000
+529 0 *
Wi

0101100
+533 0 *
Fa
0  1e-07 62 0

0111000
+527 0 *
Wi

0101100
-530 0 *
Fa
0  1e-07 63 0

0111000
-525 0 *
Sh

0101100
+528 0 +526 0 -524 0 *
So

0100000
+523 0 *
Ve
1e-07
359 131 4
0 0

0101101
*
Ed
 1e-07 1 1 0
1  64 0 0 6.28318530717959
2  127 64 0 0 6.28318530717959
2  128 65 0 0 6.28318530717959
0

0101000
+521 0 -521 0 *
Ve
1e-07
359 131 2
0 0

0101101
*
Ed
 1e-07 1 1 0
1  65 0 0 2
3  129 130CN 64 0 0 2
0

0101000
-521 0 +519 0 *
Ed
 1e-07 1 1 0
1  66 0 0 6.28318530717959
2  131 64 0 0 6.28318530717959
2  132 66 0 0 6.28318530717959
0

0101000
+519 0 -519 0 *
Wi

0101100
-520 0 +518 0 +517 0 -518 0 *
Fa
0  1e-07 64 0

0111000
+516 0 *
Wi

0101100
+520 0 *
Fa
0  1e-07 65 0

0111000
+514 0 *
Wi

0101100
-517 0 *
Fa
0  1e-07 66 0

0111000
-512 0 *
Sh

0101100
+515 0 +513 0 -511 0 *
So

0100000
+510 0 *
Ve
1e-07
359 131 4
0 0

0101101
*
Ed
 1e-07 1 1 0
1  67 0 0 6.28318530717959
2  133 67 0 0 6.28318530717959
2  134 68 0 0 6.28318530717959
0

0101000
+508 0 -508 0 *
Ve
1e-07
359 131 2
0 0

0101101
*
Ed
 1e-07 1 1 0
1  68 0 0 2
3  135 136CN 67 0 0 2
0

0101000
-508 0 +506 0 *
Ed
 1e-07 1 1 0
1  69 0 0 6.28318530717959
2  137 67 0 0 6.28318530717959
2  138 69 0 0 6.28318530717959
0

0101000
+506 0 -506 0 *
Wi

0101100
-507 0 +505 0 +504 0 -505 0 *
Fa
0  1e-07 67 0

0111000
+503 0 *
Wi

0101100
+507 0 *
Fa
0  1e-07 68 0

0111000
+501 0 *
Wi

0101100
-504 0 *
Fa
0  1e-07 69 0

0111000
-499 0 *
Sh

0101100
+502 0 +500 0 -498 0 *
So

0100000
+497 0 *
Ve
1e-07
359 131 4
0 0

0101101
*
Ed
 1e-07 1 1 0
1  70 0 0 6.28318530717959
2  139 70 0 0 6.28318530717959
2  140 71 0 0 6.28318530717959
0

0101000
+495 0 -495 0 *
Ve
1e-07
359 131 2
0 0

0101101
*
Ed
 1e-07 1 1 0
1  71 0 0 2
3  141 142CN 70 0 0 2
0

0101000
-495 0 +493 0 *
Ed
 1e-07 1 1 0
1  72 0 0 6.28318530717959
2  143 70 0 0 6.28318530717959
2  144 72 0 0 6.28318530717959
0

0101000
+493 0 -493 0 *
Wi

0101100
-494 0 +492 0 +491 0 -492 0 *
Fa
0  1e-07 70 0

0111000
+490 0 *
Wi

0101100
+494 0 *
Fa
0  1e-07 71 0

0111000
+488 0 *
Wi

0101100
-491 0 *
Fa
0  1e-07 72 0

0111000
-486 0 *
Sh

0101100
+489 0 +487 0 -485 0 *
So

0100000
+484 0 *
Ve
1e-07
359 131 4
0 0

0101101
*
Ed
 1e-07 1 1 0
1  73 0 0 6.28318530717959
2  145 73 0 0 6.28318530717959
2  146 74 0 0 6.28318530717959
0

0101000
+482 0 -482 0 *
Ve
1e-07
359 131 2
0 0

0101101
*
Ed
 1e-07 1 1 0
1  74 0 0 2
3  147 148CN 73 0 0 2
0

0101000
-482 0 +480 0 *
Ed
 1e-07 1 1 0
1  75 0 0 6.28318530717959
2  149 73 0 0 6.28318530717959
2  150 75 0 0 6.28318530717959
0

0101000
+480 0 -480 0 *
Wi

0101100
-481 0 +479 0 +478 0 -479 0 *
Fa
0  1e-07 73 0

0111000
+477 0 *
Wi

0101100
+481 0 *
Fa
0  1e-07 74 0

0111000
+475 0 *
Wi

0101100
-478 0 *
Fa
0  1e-07 75 0

0111000
-473 0 *
Sh

0101100
+476 0 +474 0 -472 0 *
So

0100000
+471 0 *
Ve
1e-07
359 131 4
0 0

0101101
*
Ed
 1e-07 1 1 0
1  76 0 0 6.28318530717959
2  151 76 0 0 6.28318530717959
2  152 77 0 0 6.28318530717959
0

0101000
+469 0 -469 0 *
Ve
1e-07
359 131 2
0 0

0101101
*
Ed
 1e-07 1 1 0
1  77 0 0 2
3  153 154CN 76 0 0 2
0

0101000
-469 0 +467 0 *
Ed
 1e-07 1 1 0
1  78 0 0 6.28318530717959
2  155 76 0 0 6.28318530717959
2  156 78 0 0 6.28318530717959
0

0101000
+467 0 -467 0 *
Wi

0101100
-468 0 +466 0 +465 0 -466 0 *
Fa
0  1e-07 76 0

0111000
+464 0 *
Wi

0101100
+468 0 *
Fa
0  1e-07 77 0

0111000
+462 0 *
Wi

0101100
-465 0 *
Fa
0  1e-07 78 0

0111000
-460 0 *
Sh

0101100
+463 0 +461 0 -459 0 *
So

0100000
+458 0 *
Ve
1e-07
359 131 4
0 0

0101101
*
Ed
 1e-07 1 1 0
1  79 0 0 6.28318530717959
2  157 79 0 0 6.28318530717959
2  158 80 0 0 6.28318530717959
0

0101000
+456 0 -456 0 *
Ve
1e-07
359 131 2
0 0

0101101
*
Ed
 1e-07 1 1 0
1  80 0 0 2
3  159 160CN 79 0 0 2
0

0101000
-456 0 +454 0 *
Ed
 1e-07 1 1 0
1  81 0 0 6.28318530717959
2  161 79 0 0 6.28318530717959
2  162 81 0 0 6.28318530717959
0

0101000
+454 0 -454 0 *
Wi

0101100
-455 0 +453 0 +452 0 -453 0 *
Fa
0  1e-07 79 0

0111000
+451 0 *
Wi

0101100
+455 0 *
Fa
0  1e-07 80 0

0111000
+449 0 *
Wi

0101100
-452 0 *
Fa
0  1e-07 81 0

0111000
-447 0 *
Sh

0101100
+450 0 +448 0 -446 0 *
So

0100000
+445 0 *
Ve
1e-07
359 131 4
0 0

0101101
*
Ed
 1e-07 1 1 0
1  82 0 0 6.28318530717959
2  163 82 0 0 6.28318530717959
2  164 83 0 0 6.28318530717959
0

0101000
+443 0 -443 0 *
Ve
1e-07
359 131 2
0 0

0101101
*
Ed
 1e-07 1 1 0
1  83 0 0 2
3  165 166CN 82 0 0 2
0

0101000
-443 0 +441 0 *
Ed
 1e-07 1 1 0
1  84 0 0 6.28318530717959
2  167 82 0 0 6.28318530717959
2  168 84 0 0 6.28318530717959
0

0101000
+441 0 -441 0 *
Wi

0101100
-442 0 +440 0 +439 0 -440 0 *
Fa
0  1e-07 82 0

0111000
+438 0 *
Wi

0101100
+442 0 *
Fa
0  1e-07 83 0

0111000
+436 0 *
Wi

0101100
-439 0 *
Fa
0  1e-07 84 0

0111000
-434 0 *
Sh

0101100
+437 0 +435 0 -433 0 *
So

0100000
+432 0 *
Ve
1e-07
359 131 4
0 0

0101101
*
Ed
 1e-07 1 1 0
1  85 0 0 6.28318530717959
2  169 85 0 0 6.28318530717959
2  170 86 0 0 6.28318530717959
0

0101000
+430 0 -430 0 *
Ve
1e-07
359 131 2
0 0

0101101
*
Ed
 1e-07 1 1 0
1  86 0 0 2
3  171 172CN 85 0 0 2
0

0101000
-430 0 +428 0 *
Ed
 1e-07 1 1 0
1  87 0 0 6.28318530717959
2  173 85 0 0 6.28318530717959
2  174 87 0 0 6.28318530717959
0

0101000
+428 0 -428 0 *
Wi

0101100
-429 0 +427 0 +426 0 -427 0 *
Fa
0  1e-07 85 0

0111000
+425 0 *
Wi

0101100
+429 0 *
Fa
0  1e-07 86 0

0111000
+423 0 *
Wi

0101100
-426 0 *
Fa
0  1e-07 87 0

0111000
-421 0 *
Sh

0101100
+424 0 +422 0 -420 0 *
So

0100000
+419 0 *
Ve
1e-07
359 131 4
0 0

0101101
*
Ed
 1e-07 1 1 0
1  88 0 0 6.28318530717959
2  175 88 0 0 6.28318530717959
2  176 89 0 0 6.28318530717959
0

0101000
+417 0 -417 0 *
Ve
1e-07
359 131 2
0 0

0101101
*
Ed
 1e-07 1 1 0
1  89 0 0 2
3  177 178CN 88 0 0 2
0

0101000
-417 0 +415 0 *
Ed
 1e-07 1 1 0
1  90 0 0 6.28318530717959
2  179 88 0 0 6.28318530717959
2  180 90 0 0 6.28318530717959
0

0101000
+415 0 -415 0 *
Wi

0101100
-416 0 +414 0 +413 0 -414 0 *
Fa
0  1e-07 88 0

0111000
+412 0 *
Wi

0101100
+416 0 *
Fa
0  1e-07 89 0

0111000
+410 0 *
Wi

0101100
-413 0 *
Fa
0  1e-07 90 0

0111000
-408 0 *
Sh

0101100
+411 0 +409 0 -407 0 *
So

0100000
+406 0 *
Ve
1e-07
359 131 4
0 0

0101101
*
Ed
 1e-07 1 1 0
1  91 0 0 6.28318530717959
2  181 91 0 0 6.28318530717959
2  182 92 0 0 6.28318530717959
0

0101000
+404 0 -404 0 *
Ve
1e-07
359 131 2
0 0

0101101
*
Ed
 1e-07 1 1 0
1  92 0 0 2
3  183 184CN 91 0 0 2
0

0101000
-404 0 +402 0 *
Ed
 1e-07 1 1 0
1  93 0 0 6.28318530717959
2  185 91 0 0 6.28318530717959
2  186 93 0 0 6.28318530717959
0

0101000
+402 0 -402 0 *
Wi

0101100
-403 0 +401 0 +400 0 -401 0 *
Fa
0  1e-07 91 0

0111000
+399 0 *
Wi

0101100
+403 0 *
Fa
0  1e-07 92 0

0111000
+397 0 *
Wi

0101100
-400 0 *
Fa
0  1e-07 93 0

0111000
-395 0 *
Sh

0101100
+398 0 +396 0 -394 0 *
So

0100000
+393 0 *
Ve
1e-07
359 131 4
0 0

0101101
*
Ed
 1e-07 1 1 0
1  94 0 0 6.28318530717959
2  187 94 0 0 6.28318530717959
2  188 95 0 0 6.28318530717959
0

0101000
+391 0 -391 0 *
Ve
1e-07
359 131 2
0 0

0101101
*
Ed
 1e-07 1 1 0
1  95 0 0 2
3  189 190CN 94 0 0 2
0

0101000
-391 0 +389 0 *
Ed
 1e-07 1 1 0
1  96 0 0 6.28318530717959
2  191 94 0 0 6.28318530717959
2  192 96 0 0 6.28318530717959
0

0101000
+389 0 -389 0 *
Wi

0101100
-390 0 +388 0 +387 0 -388 0 *
Fa
0  1e-07 94 0

0111000
+386 0 *
Wi

0101100
+390 0 *
Fa
0  1e-07 95 0

0111000
+384 0 *
Wi

0101100
-387 0 *
Fa
0  1e-07 96 0

0111000
-382 0 *
Sh

0101100
+385 0 +383 0 -381 0 *
So

0100000
+380 0 *
Ve
1e-07
359 131 4
0 0

0101101
*
Ed
 1e-07 1 1 0
1  97 0 0 6.28318530717959
2  193 97 0 0 6.28318530717959
2  194 98 0 0 6.28318530717959
0

0101000
+378 0 -378 0 *
Ve
1e-07
359 131 2
0 0

0101101
*
Ed
 1e-07 1 1 0
1  98 0 0 2
3  195 196CN 97 0 0 2
0

0101000
-378 0 +376 0 *
Ed
 1e-07 1 1 0
1  99 0 0 6.28318530717959
2  197 97 0 0 6.28318530717959
2  198 99 0 0 6.28318530717959
0

0101000
+376 0 -376 0 *
Wi

0101100
-377 0 +375 0 +374 0 -375 0 *
Fa
0  1e-07 97 0

0111000
+373 0 *
Wi

0101100
+377 0 *
Fa
0  1e-07 98 0

0111000
+371 0 *
Wi

0101100
-374 0 *
Fa
0  1e-07 99 0

0111000
-369 0 *
Sh

0101100
+372 0 +370 0 -368 0 *
So

0100000
+367 0 *
Ve
1e-07
359 131 4
0 0

0101101
*
Ed
 1e-07 1 1 0
1  100 0 0 6.28318530717959
2  199 100 0 0 6.28318530717959
2  200 101 0 0 6.28318530717959
0

0101000
+365 0 -365 0 *
Ve
1e-07
359 131 2
0 0

0101101
*
Ed
 1e-07 1 1 0
1  101 0 0 2
3  201 202CN 100 0 0 2
0

0101000
-365 0 +363 0 *
Ed
 1e-07 1 1 0
1  102 0 0 6.28318530717959
2  203 100 0 0 6.28318530717959
2  204 102 0 0 6.28318530717959
0

0101000
+363 0 -363 0 *
Wi

0101100
-364 0 +362 0 +361 0 -362 0 *
Fa
0  1e-07 100 0

0111000
+360 0 *
Wi

0101100
+364 0 *
Fa
0  1e-07 101 0

0111000
+358 0 *
Wi

0101100
-361 0 *
Fa
0  1e-07 102 0

0111000
-356 0 *
Sh

0101100
+359 0 +357 0 -355 0 *
So

0100000
+354 0 *
Ve
1e-07
359 131 4
0 0

0101101
*
Ed
 1e-07 1 1 0
1  103 0 0 6.28318530717959
2  205 103 0 0 6.28318530717959
2  206 104 0 0 6.28318530717959
0

0101000
+352 0 -352 0 *
Ve
1e-07
359 131 2
0 0

0101101
*
Ed
 1e-07 1 1 0
1  104 0 0 2
3  207 208CN 103 0 0 2
0

0101000
-352 0 +350 0 *
Ed
 1e-07 1 1 0
1  105 0 0 6.28318530717959
2  209 103 0 0 6.28318530717959
2  210 105 0 0 6.28318530717959
0

0101000
+350 0 -350 0 *
Wi

0101100
-351 0 +349 0 +348 0 -349 0 *
Fa
0  1e-07 103 0

0111000
+347 0 *
Wi

0101100
+351 0 *
Fa
0  1e-07 104 0

0111000
+345 0 *
Wi

0101100
-348 0 *
Fa
0  1e-07 105 0

0111000
-343 0 *
Sh

0101100
+346 0 +344 0 -342 0 *
So

0100000
+341 0 *
Ve
1e-07
359 131 4
0 0

0101101
*
Ed
 1e-07 1 1 0
1  106 0 0 6.28318530717959
2  211 106 0 0 6.28318530717959
2  212 107 0 0 6.28318530717959
0

0101000
+339 0 -339 0 *
Ve
1e-07
359 131 2
0 0

0101101
*
Ed
 1e-07 1 1 0
1  107 0 0 2
3  213 214CN 106 0 0 2
0

0101000
-339 0 +337 0 *
Ed
 1e-07 1 1 0
1  108 0 0 6.28318530717959
2  215 106 0 0 6.28318530717959
2  216 108 0 0 6.28318530717959
0

0101000
+337 0 -337 0 *
Wi

0101100
-338 0 +336 0 +335 0 -336 0 *
Fa
0  1e-07 106 0

0111000
+334 0 *
Wi

0101100
+338 0 *
Fa
0  1e-07 107 0

0111000
+332 0 *
Wi

0101100
-335 0 *
Fa
0  1e-07 108 0

0111000
-330 0 *
Sh

0101100
+333 0 +331 0 -329 0 *
So

0100000
+328 0 *
Ve
1e-07
359 131 4
0 0

0101101
*
Ed
 1e-07 1 1 0
1  109 0 0 6.28318530717959
2  217 109 0 0 6.28318530717959
2  218 110 0 0 6.28318530717959
0

0101000
+326 0 -326 0 *
Ve
1e-07
359 131 2
0 0

0101101
*
Ed
 1e-07 1 1 0
1  110 0 0 2
3  219 220CN 109 0 0 2
0

0101000
-326 0 +324 0 *
Ed
 1e-07 1 1 0
1  111 0 0 6.28318530717959
2  221 109 0 0 6.28318530717959
2  222 111 0 0 6.28318530717959
0

0101000
+324 0 -324 0 *
Wi

0101100
-325 0 +323 0 +322 0 -323 0 *
Fa
0  1e-07 109 0

0111000
+321 0 *
Wi

0101100
+325 0 *
Fa
0  1e-07 110 0

0111000
+319 0 *
Wi

0101100
-322 0 *
Fa
0  1e-07 111 0

0111000
-317 0 *
Sh

0101100
+320 0 +318 0 -316 0 *
So

0100000
+315 0 *
Ve
1e-07
359 131 4
0 0

0101101
*
Ed
 1e-07 1 1 0
1  112 0 0 6.28318530717959
2  223 112 0 0 6.28318530717959
2  224 113 0 0 6.28318530717959
0

0101000
+313 0 -313 0 *
Ve
1e-07
359 131 2
0 0

0101101
*
Ed
 1e-07 1 1 0
1  113 0 0 2
3  225 226CN 112 0 0 2
0

0101000
-313 0 +311 0 *
Ed
 1e-07 1 1 0
1  114 0 0 6.28318530717959
2  227 112 0 0 6.28318530717959
2  228 114 0 0 6.28318530717959
0

0101000
+311 0 -311 0 *
Wi

0101100
-312 0 +310 0 +309 0 -310 0 *
Fa
0  1e-07 112 0

0111000
+308 0 *
Wi

0101100
+312 0 *
Fa
0  1e-07 113 0

0111000
+306 0 *
Wi

0101100
-309 0 *
Fa
0  1e-07 114 0

0111000
-304 0 *
Sh

0101100
+307 0 +305 0 -303 0 *
So

0100000
+302 0 *
Ve
1e-07
359 131 4
0 0

0101101
*
Ed
 1e-07 1 1 0
1  115 0 0 6.28318530717959
2  229 115 0 0 6.28318530717959
2  230 116 0 0 6.28318530717959
0

0101000
+300 0 -300 0 *
Ve
1e-07
359 131 2
0 0

0101101
*
Ed
 1e-07 1 1 0
1  116 0 0 2
3  231 232CN 115 0 0 2
0

0101000
-300 0 +298 0 *
Ed
 1e-07 1 1 0
1  117 0 0 6.28318530717959
2  233 115 0 0 6.28318530717959
2  234 117 0 0 6.28318530717959
0

0101000
+298 0 -298 0 *
Wi

0101100
-299 0 +297 0 +296 0 -297 0 *
Fa
0  1e-07 115 0

0111000
+295 0 *
Wi

0101100
+299 0 *
Fa
0  1e-07 116 0

0111000
+293 0 *
Wi

0101100
-296 0 *
Fa
0  1e-07 117 0

0111000
-291 0 *
Sh

0101100
+294 0 +292 0 -290 0 *
So

0100000
+289 0 *
Ve
1e-07
359 131 4
0 0

0101101
*
Ed
 1e-07 1 1 0
1  118 0 0 6.28318530717959
2  235 118 0 0 6.28318530717959
2  236 119 0 0 6.28318530717959
0

0101000
+287 0 -287 0 *
Ve
1e-07
359 131 2
0 0

0101101
*
Ed
 1e-07 1 1 0
1  119 0 0 2
3  237 238CN 118 0 0 2
0

0101000
-287 0 +285 0 *
Ed
 1e-07 1 1 0
1  120 0 0 6.28318530717959
2  239 118 0 0 6.28318530717959
2  240 120 0 0 6.28318530717959
0

0101000
+285 0 -285 0 *
Wi

0101100
-286 0 +284 0 +283 0 -284 0 *
Fa
0  1e-07 118 0

0111000
+282 0 *
Wi

0101100
+286 0 *
Fa
0  1e-07 119 0

0111000
+280 0 *
Wi

0101100
-283 0 *
Fa
0  1e-07 120 0

0111000
-278 0 *
Sh

0101100
+281 0 +279 0 -277 0 *
So

0100000
+276 0 *
Ve
1e-07
359 131 4
0 0

0101101
*
Ed
 1e-07 1 1 0
1  121 0 0 6.28318530717959
2  241 121 0 0 6.28318530717959
2  242 122 0 0 6.28318530717959
0

0101000
+274 0 -274 0 *
Ve
1e-07
359 131 2
0 0

0101101
*
Ed
 1e-07 1 1 0
1  122 0 0 2
3  243 244CN 121 0 0 2
0

0101000
-274 0 +272 0 *
Ed
 1e-07 1 1 0
1  123 0 0 6.28318530717959
2  245 121 0 0 6.28318530717959
2  246 123 0 0 6.28318530717959
0

0101000
+272 0 -272 0 *
Wi

0101100
-273 0 +271 0 +270 0 -271 0 *
Fa
0  1e-07 121 0

0111000
+269 0 *
Wi

0101100
+273 0 *
Fa
0  1e-07 122 0

0111000
+267 0 *
Wi

0101100
-270 0 *
Fa
0  1e-07 123 0

0111000
-265 0 *
Sh

0101100
+268 0 +266 0 -264 0 *
So

0100000
+263 0 *
Ve
1e-07
359 131 4
0 0

0101101
*
Ed
 1e-07 1 1 0
1  124 0 0 6.28318530717959
2  247 124 0 0 6.28318530717959
2  248 125 0 0 6.28318530717959
0

0101000
+261 0 -261 0 *
Ve
1e-07
359 131 2
0 0

0101101
*
Ed
 1e-07 1 1 0
1  125 0 0 2
3  249 250CN 124 0 0 2
0

0101000
-261 0 +259 0 *
Ed
 1e-07 1 1 0
1  126 0 0 6.28318530717959
2  251 124 0 0 6.28318530717959
2  252 126 0 0 6.28318530717959
0

0101000
+259 0 -259 0 *
Wi

0101100
-260 0 +258 0 +257 0 -258 0 *
Fa
0  1e-07 124 0

0111000
+256 0 *
Wi

0101100
+260 0 *
Fa
0  1e-07 125 0

0111000
+254 0 *
Wi

0101100
-257 0 *
Fa
0  1e-07 126 0

0111000
-252 0 *
Sh

0101100
+255 0 +253 0 -251 0 *
So

0100000
+250 0 *
Ve
1e-07
359 131 4
0 0

0101101
*
Ed
 1e-07 1 1 0
1  127 0 0 6.28318530717959
2  253 127 0 0 6.28318530717959
2  254 128 0 0 6.28318530717959
0

0101000
+248 0 -248 0 *
Ve
1e-07
359 131 2
0 0

0101101
*
Ed
 1e-07 1 1 0
1  128 0 0 2
3  255 256CN 127 0 0 2
0

0101000
-248 0 +246 0 *
Ed
 1e-07 1 1 0
1  129 0 0 6.28318530717959
2  257 127 0 0 6.28318530717959
2  258 129 0 0 6.28318530717959
0

0101000
+246 0 -246 0 *
Wi

0101100
-247 0 +245 0 +244 0 -245 0 *
Fa
0  1e-07 127 0

0111000
+243 0 *
Wi

0101100
+247 0 *
Fa
0  1e-07 128 0

0111000
+241 0 *
Wi

0101100
-244 0 *
Fa
0  1e-07 129 0

0111000
-239 0 *
Sh

0101100
+242 0 +240 0 -238 0 *
So

0100000
+237 0 *
Ve
1e-07
359 131 4
0 0

0101101
*
Ed
 1e-07 1 1 0
1  130 0 0 6.28318530717959
2  259 130 0 0 6.28318530717959
2  260 131 0 0 6.28318530717959
0

0101000
+235 0 -235 0 *
Ve
1e-07
359 131 2
0 0

0101101
*
Ed
 1e-07 1 1 0
1  131 0 0 2
3  261 262CN 130 0 0 2
0

0101000
-235 0 +233 0 *
Ed
 1e-07 1 1 0
1  132 0 0 6.28318530717959
2  263 130 0 0 6.28318530717959
2  264 132 0 0 6.28318530717959
0

0101000
+233 0 -233 0 *
Wi

0101100
-234 0 +232 0 +231 0 -232 0 *
Fa
0  1e-07 130 0

0111000
+230 0 *
Wi

0101100
+234 0 *
Fa
0  1e-07 131 0

0111000
+228 0 *
Wi

0101100
-231 0 *
Fa
0  1e-07 132 0

0111000
-226 0 *
Sh

0101100
+229 0 +227 0 -225 0 *
So

0100000
+224 0 *
Ve
1e-07
359 131 4
0 0

0101101
*
Ed
 1e-07 1 1 0
1  133 0 0 6.28318530717959
2  265 133 0 0 6.28318530717959
2  266 134 0 0 6.28318530717959
0

0101000
+222 0 -222 0 *
Ve
1e-07
359 131 2
0 0

0101101
*
Ed
 1e-07 1 1 0
1  134 0 0 2
3  267 268CN 133 0 0 2
0

0101000
-222 0 +220 0 *
Ed
 1e-07 1 1 0
1  135 0 0 6.28318530717959
2  269 133 0 0 6.28318530717959
2  270 135 0 0 6.28318530717959
0

0101000
+220 0 -220 0 *
Wi

0101100
-221 0 +219 0 +218 0 -219 0 *
Fa
0  1e-07 133 0

0111000
+217 0 *
Wi

0101100
+221 0 *
Fa
0  1e-07 134 0

0111000
+215 0 *
Wi

0101100
-218 0 *
Fa
0  1e-07 135 0

0111000
-213 0 *
Sh

0101100
+216 0 +214 0 -212 0 *
So

0100000
+211 0 *
Ve
1e-07
359 131 4
0 0

0101101
*
Ed
 1e-07 1 1 0
1  136 0 0 6.28318530717959
2  271 136 0 0 6.28318530717959
2  272 137 0 0 6.28318530717959
0

0101000
+209 0 -209 0 *
Ve
1e-07
359 131 2
0 0

0101101
*
Ed
 1e-07 1 1 0
1  137 0 0 2
3  273 274CN 136 0 0 2
0

0101000
-209 0 +207 0 *
Ed
 1e-07 1 1 0
1  138 0 0 6.28318530717959
2  275 136 0 0 6.28318530717959
2  276 138 0 0 6.28318530717959
0

0101000
+207 0 -207 0 *
Wi

0101100
-208 0 +206 0 +205 0 -206 0 *
Fa
0  1e-07 136 0

0111000
+204 0 *
Wi

0101100
+208 0 *
Fa
0  1e-07 137 0

0111000
+202 0 *
Wi

0101100
-205 0 *
Fa
0  1e-07 138 0

0111000
-200 0 *
Sh

0101100
+203 0 +201 0 -199 0 *
So

0100000
+198 0 *
Ve
1e-07
359 131 4
0 0

0101101
*
Ed
 1e-07 1 1 0
1  139 0 0 6.28318530717959
2  277 139 0 0 6.28318530717959
2  278 140 0 0 6.28318530717959
0

0101000
+196 0 -196 0 *
Ve
1e-07
359 131 2
0 0

0101101
*
Ed
 1e-07 1 1 0
1  140 0 0 2
3  279 280CN 139 0 0 2
0

0101000
-196 0 +194 0 *
Ed
 1e-07 1 1 0
1  141 0 0 6.28318530717959
2  281 139 0 0 6.28318530717959
2  282 141 0 0 6.28318530717959
0

0101000
+194 0 -194 0 *
Wi

0101100
-195 0 +193 0 +192 0 -193 0 *
Fa
0  1e-07 139 0

0111000
+191 0 *
Wi

0101100
+195 0 *
Fa
0  1e-07 140 0

0111000
+189 0 *
Wi

0101100
-192 0 *
Fa
0  1e-07 141 0

0111000
-187 0 *
Sh

0101100
+190 0 +188 0 -186 0 *
So

0100000
+185 0 *
Ve
1e-07
359 131 4
0 0

0101101
*
Ed
 1e-07 1 1 0
1  142 0 0 6.28318530717959
2  283 142 0 0 6.28318530717959
2  284 143 0 0 6.28318530717959
0

0101000
+183 0 -183 0 *
Ve
1e-07
359 131 2
0 0

0101101
*
Ed
 1e-07 1 1 0
1  143 0 0 2
3  285 286CN 142 0 0 2
0

0101000
-183 0 +181 0 *
Ed
 1e-07 1 1 0
1  144 0 0 6.28318530717959
2  287 142 0 0 6.28318530717959
2  288 144 0 0 6.28318530717959
0

0101000
+181 0 -181 0 *
Wi

0101100
-182 0 +180 0 +179 0 -180 0 *
Fa
0  1e-07 142 0

0111000
+178 0 *
Wi

0101100
+182 0 *
Fa
0  1e-07 143 0

0111000
+176 0 *
Wi

0101100
-179 0 *
Fa
0  1e-07 144 0

0111000
-174 0 *
Sh

0101100
+177 0 +175 0 -173 0 *
So

0100000
+172 0 *
Ve
1e-07
359 131 4
0 0

0101101
*
Ed
 1e-07 1 1 0
1  145 0 0 6.28318530717959
2  289 145 0 0 6.28318530717959
2  290 146 0 0 6.28318530717959
0

0101000
+170 0 -170 0 *
Ve
1e-07
359 131 2
0 0

0101101
*
Ed
 1e-07 1 1 0
1  146 0 0 2
3  291 292CN 145 0 0 2
0

0101000
-170 0 +168 0 *
Ed
 1e-07 1 1 0
1  147 0 0 6.28318530717959
2  293 145 0 0 6.28318530717959
2  294 147 0 0 6.28318530717959
0

0101000
+168 0 -168 0 *
Wi

0101100
-169 0 +167 0 +166 0 -167 0 *
Fa
0  1e-07 145 0

0111000
+165 0 *
Wi

0101100
+169 0 *
Fa
0  1e-07 146 0

0111000
+163 0 *
Wi

0101100
-166 0 *
Fa
0  1e-07 147 0

0111000
-161 0 *
Sh

0101100
+164 0 +162 0 -160 0 *
So

0100000
+159 0 *
Ve
1e-07
359 131 4
0 0

0101101
*
Ed
 1e-07 1 1 0
1  148 0 0 6.28318530717959
2  295 148 0 0 6.28318530717959
2  296 149 0 0 6.28318530717959
0

0101000
+157 0 -157 0 *
Ve
1e-07
359 131 2
0 0

0101101
*
Ed
 1e-07 1 1 0
1  149 0 0 2
3  297 298CN 148 0 0 2
0

0101000
-157 0 +155 0 *
Ed
 1e-07 1 1 0
1  150 0 0 6.28318530717959
2  299 148 0 0 6.28318530717959
2  300 150 0 0 6.28318530717959
0

0101000
+155 0 -155 0 *
Wi

0101100
-156 0 +154 0 +153 0 -154 0 *
Fa
0  1e-07 148 0

0111000
+152 0 *
Wi

0101100
+156 0 *
Fa
0  1e-07 149 0

0111000
+150 0 *
Wi

0101100
-153 0 *
Fa
0  1e-07 150 0

0111000
-148 0 *
Sh

0101100
+151 0 +149 0 -147 0 *
So

0100000
+146 0 *
Ve
1e-07
359 131 4
0 0

0101101
*
Ed
 1e-07 1 1 0
1  151 0 0 6.28318530717959
2  301 151 0 0 6.28318530717959
2  302 152 0 0 6.28318530717959
0

0101000
+144 0 -144 0 *
Ve
1e-07
359 131 2
0 0

0101101
*
Ed
 1e-07 1 1 0
1  152 0 0 2
3  303 304CN 151 0 0 2
0

0101000
-144 0 +142 0 *
Ed
 1e-07 1 1 0
1  153 0 0 6.28318530717959
2  305 151 0 0 6.28318530717959
2  306 153 0 0 6.28318530717959
0

0101000
+142 0 -142 0 *
Wi

0101100
-143 0 +141 0 +140 0 -141 0 *
Fa
0  1e-07 151 0

0111000
+139 0 *
Wi

0101100
+143 0 *
Fa
0  1e-07 152 0

0111000
+137 0 *
Wi

0101100
-140 0 *
Fa
0  1e-07 153 0

0111000
-135 0 *
Sh

0101100
+138 0 +136 0 -134 0 *
So

0100000
+133 0 *
Ve
1e-07
359 131 4
0 0

0101101
*
Ed
 1e-07 1 1 0
1  154 0 0 6.28318530717959
2  307 154 0 0 6.28318530717959
2  308 155 0 0 6.28318530717959
0

0101000
+131 0 -131 0 *
Ve
1e-07
359 131 2
0 0

0101101
*
Ed
 1e-07 1 1 0
1  155 0 0 2
3  309 310CN 154 0 0 2
0

0101000
-131 0 +129 0 *
Ed
 1e-07 1 1 0
1  156 0 0 6.28318530717959
2  311 154 0 0 6.28318530717959
2  312 156 0 0 6.28318530717959
0

0101000
+129 0 -129 0 *
Wi

0101100
-130 0 +128 0 +127 0 -128 0 *
Fa
0  1e-07 154 0

0111000
+126 0 *
Wi

0101100
+130 0 *
Fa
0  1e-07 155 0

0111000
+124 0 *
Wi

0101100
-127 0 *
Fa
0  1e-07 156 0

0111000
-122 0 *
Sh

0101100
+125 0 +123 0 -121 0 *
So

0100000
+120 0 *
Ve
1e-07
359 131 4
0 0

0101101
*
Ed
 1e-07 1 1 0
1  157 0 0 6.28318530717959
2  313 157 0 0 6.28318530717959
2  314 158 0 0 6.28318530717959
0

0101000
+118 0 -118 0 *
Ve
1e-07
359 131 2
0 0

0101101
*
Ed
 1e-07 1 1 0
1  158 0 0 2
3  315 316CN 157 0 0 2
0

0101000
-118 0 +116 0 *
Ed
 1e-07 1 1 0
1  159 0 0 6.28318530717959
2  317 157 0 0 6.28318530717959
2  318 159 0 0 6.28318530717959
0

0101000
+116 0 -116 0 *
Wi

0101100
-117 0 +115 0 +114 0 -115 0 *
Fa
0  1e-07 157 0

0111000
+113 0 *
Wi

0101100
+117 0 *
Fa
0  1e-07 158 0

0111000
+111 0 *
Wi

0101100
-114 0 *
Fa
0  1e-07 159 0

0111000
-109 0 *
Sh

0101100
+112 0 +110 0 -108 0 *
So

0100000
+107 0 *
Ve
1e-07
359 131 4
0 0

0101101
*
Ed
 1e-07 1 1 0
1  160 0 0 6.28318530717959
2  319 160 0 0 6.28318530717959
2  320 161 0 0 6.28318530717959
0

0101000
+105 0 -105 0 *
Ve
1e-07
359 131 2
0 0

0101101
*
Ed
 1e-07 1 1 0
1  161 0 0 2
3  321 322CN 160 0 0 2
0

0101000
-105 0 +103 0 *
Ed
 1e-07 1 1 0
1  162 0 0 6.28318530717959
2  323 160 0 0 6.28318530717959
2  324 162 0 0 6.28318530717959
0

0101000
+103 0 -103 0 *
Wi

0101100
-104 0 +102 0 +101 0 -102 0 *
Fa
0  1e-07 160 0

0111000
+100 0 *
Wi

0101100
+104 0 *
Fa
0  1e-07 161 0

0111000
+98 0 *
Wi

0101100
-101 0 *
Fa
0  1e-07 162 0

0111000
-96 0 *
Sh

0101100
+99 0 +97 0 -95 0 *
So

0100000
+94 0 *
Ve
1e-07
359 131 4
0 0

0101101
*
Ed
 1e-07 1 1 0
1  163 0 0 6.28318530717959
2  325 163 0 0 6.28318530717959
2  326 164 0 0 6.28318530717959
0

0101000
+92 0 -92 0 *
Ve
1e-07
359 131 2
0 0

0101101
*
Ed
 1e-07 1 1 0
1  164 0 0 2
3  327 328CN 163 0 0 2
0

0101000
-92 0 +90 0 *
Ed
 1e-07 1 1 0
1  165 0 0 6.28318530717959
2  329 163 0 0 6.28318530717959
2  330 165 0 0 6.28318530717959
0

0101000
+90 0 -90 0 *
Wi

0101100
-91 0 +89 0 +88 0 -89 0 *
Fa
0  1e-07 163 0

0111000
+87 0 *
Wi

0101100
+91 0 *
Fa
0  1e-07 164 0

0111000
+85 0 *
Wi

0101100
-88 0 *
Fa
0  1e-07 165 0

0111000
-83 0 *
Sh

0101100
+86 0 +84 0 -82 0 *
So

0100000
+81 0 *
Ve
1e-07
359 131 4
0 0

0101101
*
Ed
 1e-07 1 1 0
1  166 0 0 6.28318530717959
2  331 166 0 0 6.28318530717959
2  332 167 0 0 6.28318530717959
0

0101000
+79 0 -79 0 *
Ve
1e-07
359 131 2
0 0

0101101
*
Ed
 1e-07 1 1 0
1  167 0 0 2
3  333 334CN 166 0 0 2
0

0101000
-79 0 +77 0 *
Ed
 1e-07 1 1 0
1  168 0 0 6.28318530717959
2  335 166 0 0 6.28318530717959
2  336 168 0 0 6.28318530717959
0

0101000
+77 0 -77 0 *
Wi

0101100
-78 0 +76 0 +75 0 -76 0 *
Fa
0  1e-07 166 0

0111000
+74 0 *
Wi

0101100
+78 0 *
Fa
0  1e-07 167 0

0111000
+72 0 *
Wi

0101100
-75 0 *
Fa
0  1e-07 168 0

0111000
-70 0 *
Sh

0101100
+73 0 +71 0 -69 0 *
So

0100000
+68 0 *
Ve
1e-07
359 131 4
0 0

0101101
*
Ed
 1e-07 1 1 0
1  169 0 0 6.28318530717959
2  337 169 0 0 6.28318530717959
2  338 170 0 0 6.28318530717959
0

0101000
+66 0 -66 0 *
Ve
1e-07
359 131 2
0 0

0101101
*
Ed
 1e-07 1 1 0
1  170 0 0 2
3  339 340CN 169 0 0 2
0

0101000
-66 0 +64 0 *
Ed
 1e-07 1 1 0
1  171 0 0 6.28318530717959
2  341 169 0 0 6.28318530717959
2  342 171 0 0 6.28318530717959
0

0101000
+64 0 -64 0 *
Wi

0101100
-65 0 +63 0 +62 0 -63 0 *
Fa
0  1e-07 169 0

0111000
+61 0 *
Wi

0101100
+65 0 *
Fa
0  1e-07 170 0

0111000
+59 0 *
Wi

0101100
-62 0 *
Fa
0  1e-07 171 0

0111000
-57 0 *
Sh

0101100
+60 0 +58 0 -56 0 *
So

0100000
+55 0 *
Ve
1e-07
359 131 4
0 0

0101101
*
Ed
 1e-07 1 1 0
1  172 0 0 6.28318530717959
2  343 172 0 0 6.28318530717959
2  344 173 0 0 6.28318530717959
0

0101000
+53 0 -53 0 *
Ve
1e-07
359 131 2
0 0

0101101
*
Ed
 1e-07 1 1 0
1  173 0 0 2
3  345 346CN 172 0 0 2
0

0101000
-53 0 +51 0 *
Ed
 1e-07 1 1 0
1  174 0 0 6.28318530717959
2  347 172 0 0 6.28318530717959
2  348 174 0 0 6.28318530717959
0

0101000
+51 0 -51 0 *
Wi

0101100
-52 0 +50 0 +49 0 -50 0 *
Fa
0  1e-07 172 0

0111000
+48 0 *
Wi

0101100
+52 0 *
Fa
0  1e-07 173 0

0111000
+46 0 *
Wi

0101100
-49 0 *
Fa
0  1e-07 174 0

0111000
-44 0 *
Sh

0101100
+47 0 +45 0 -43 0 *
So

0100000
+42 0 *
Ve
1e-07
359 131 4
0 0

0101101
*
Ed
 1e-07 1 1 0
1  175 0 0 6.28318530717959
2  349 175 0 0 6.28318530717959
2  350 176 0 0 6.28318530717959
0

0101000
+40 0 -40 0 *
Ve
1e-07
359 131 2
0 0

0101101
*
Ed
 1e-07 1 1 0
1  176 0 0 2
3  351 352CN 175 0 0 2
0

0101000
-40 0 +38 0 *
Ed
 1e-07 1 1 0
1  177 0 0 6.28318530717959
2  353 175 0 0 6.28318530717959
2  354 177 0 0 6.28318530717959
0

0101000
+38 0 -38 0 *
Wi

0101100
-39 0 +37 0 +36 0 -37 0 *
Fa
0  1e-07 175 0

0111000
+35 0 *
Wi

0101100
+39 0 *
Fa
0  1e-07 176 0

0111000
+33 0 *
Wi

0101100
-36 0 *
Fa
0  1e-07 177 0

0111000
-31 0 *
Sh

0101100
+34 0 +32 0 -30 0 *
So

0100000
+29 0 *
Ve
1e-07
359 131 4
0 0

0101101
*
Ed
 1e-07 1 1 0
1  178 0 0 6.28318530717959
2  355 178 0 0 6.28318530717959
2  356 179 0 0 6.28318530717959
0

0101000
+27 0 -27 0 *
Ve
1e-07
359 131 2
0 0

0101101
*
Ed
 1e-07 1 1 0
1  179 0 0 2
3  357 358CN 178 0 0 2
0

0101000
-27 0 +25 0 *
Ed
 1e-07 1 1 0
1  180 0 0 6.28318530717959
2  359 178 0 0 6.28318530717959
2  360 180 0 0 6.28318530717959
0

0101000
+25 0 -25 0 *
Wi

0101100
-26 0 +24 0 +23 0 -24 0 *
Fa
0  1e-07 178 0

0111000
+22 0 *
Wi

0101100
+26 0 *
Fa
0  1e-07 179 0

0111000
+20 0 *
Wi

0101100
-23 0 *
Fa
0  1e-07 180 0

0111000
-18 0 *
Sh

0101100
+21 0 +19 0 -17 0 *
So

0100000
+16 0 *
Ve
1e-07
359 131 4
0 0

0101101
*
Ed
 1e-07 1 1 0
1  181 0 0 6.28318530717959
2  361 181 0 0 6.28318530717959
2  362 182 0 0 6.28318530717959
0

0101000
+14 0 -14 0 *
Ve
1e-07
359 131 2
0 0

0101101
*
Ed
 1e-07 1 1 0
1  182 0 0 2
3  363 364CN 181 0 0 2
0

0101000
-14 0 +12 0 *
Ed
 1e-07 1 1 0
1  183 0 0 6.28318530717959
2  365 181 0 0 6.28318530717959
2  366 183 0 0 6.28318530717959
0

0101000
+12 0 -12 0 *
Wi

0101100
-13 0 +11 0 +10 0 -11 0 *
Fa
0  1e-07 181 0

0111000
+9 0 *
Wi

0101100
+13 0 *
Fa
0  1e-07 182 0

0111000
+7 0 *
Wi

0101100
-10 0 *
Fa
0  1e-07 183 0

0111000
-5 0 *
Sh

0101100
+8 0 +6 0 -4 0 *
So

0100000
+3 0 *
Co

1100000
+782 1 +769 2 +756 3 +743 4 +730 5 +717 6 +704 7 +691 8 +678 9 +665 10 
+652 11 +639 12 +626 13 +613 14 +600 15 +587 16 +574 17 +561 18 +548 19 +535 20 
+522 21 +509 22 +496 23 +483 24 +470 25 +457 26 +444 27 +431 28 +418 29 +405 30 
+392 31 +379 32 +366 33 +353 34 +340 35 +327 36 +314 37 +301 38 +288 39 +275 40 
+262 41 +249 42 +236 43 +223 44 +210 45 +197 46 +184 47 +171 48 +158 49 +145 50 
+132 51 +119 52 +106 53 +93 54 +80 55 +67 56 +54 57 +41 58 +28 59 +15 60 
+2 61 *

+1 0 