DBRep_DrawableShape

CASCADE Topology V1, (c) Matra-Datavision
Locations 2
1
              1               0               0               0 
              0               1               0               0 
              0               0               1               0 
2  1 -1 0
Curve2ds 6
1 0 8 1 0 
2 0 0 1 0 -0 1 17.5
1 6.2831853071795862 -0 0 1 
1 0 -0 0 1 
1 0 0 1 0 
2 0 0 1 0 -0 1 17.5
Curves 3
2 300 89 8 0 0 1 1 0 -0 -0 1 0 17.5
1 317.5 89 0 0 0 1 
2 300 89 0 0 0 1 1 0 -0 -0 1 0 17.5
Polygon3D 0
PolygonOnTriangulations 0
Surfaces 3
2 300 89 0 0 0 1 1 0 -0 -0 1 0 17.5
1 300 89 8 0 0 1 1 0 -0 -0 1 0 
1 300 89 0 0 0 1 1 0 -0 -0 1 0 
Triangulations 0

TShapes 13
Ve
1e-07
317.5 89 8
0 0

0101101
*
Ed
 1e-07 1 1 0
1  1 0 0 6.28318530717959
2  1 1 0 0 6.28318530717959
2  2 2 0 0 6.28318530717959
0

0101000
+13 2 -13 2 *
Ve
1e-07
317.5 89 0
0 0

0101101
*
Ed
 1e-07 1 1 0
1  2 0 0 8
3  3 4CN 1 0 0 8
0

0101000
-13 2 +11 2 *
Ed
 1e-07 1 1 0
1  3 0 0 6.28318530717959
2  5 1 0 0 6.28318530717959
2  6 3 0 0 6.28318530717959
0

0101000
+11 2 -11 2 *
Wi

0101100
-12 0 +10 0 +9 0 -10 0 *
Fa
0  1e-07 1 0

0111000
+8 0 *
Wi

0101100
+12 0 *
Fa
0  1e-07 2 0

0111000
+6 0 *
Wi

0101100
-9 0 *
Fa
0  1e-07 3 0

0111000
-4 0 *
Sh

0101100
+7 0 +5 0 -3 0 *
So

1100000
+2 0 *

+1 1 