DBRep_DrawableShape

CASCADE Topology V1, (c) Matra-Datavision
Locations 0
Curve2ds 58
1 0 2 1 0 
2 0 0 1 0 -0 1 6.2000000000000002
1 0 0 1 0 
1 0 0 1 0 
1 4.7123889803846897 0 0 1 
1 0 0 1 0 
2 0 0 1 0 -0 1 6.2000000000000002
1 0 0 1 0 
1 0 0 1 0 
1 3.1415926535897931 0 0 1 
1 0 0 0 1 
1 0 0 1 0 
1 0 0 1 0 
1 0 148 1 0 
1 4.7123889803846808 0 0 1 
1 2 0 0 1 
1 0 0 1 0 
1 2 0 0 -1 
1 0 0 0 1 
1 0 -104 1 0 
1 0 0 1 0 
1 3.1415926535897931 0 0 1 
1 0 0 0 -1 
1 0 0 0 1 
1 0 2 1 0 
2 0 0 1 0 -0 1 6.2000000000000002
1 0 0 1 0 
1 0 160.40000000000003 1 0 
8 0 2
1 6.2831853071795862 -0 0 1 
8 0 2
1 0 0 0 1 
1 0 0 1 0 
2 0 0 1 0 -0 1 6.2000000000000002
1 0 2 1 0 
2 0 0 1 0 -0 1 6.2000000000000002
1 0 0 1 0 
2 0 0 1 0 -0 1 6.2000000000000002
1 0 -116.39999999999999 1 0 
1 0 0 1 0 
1 1.5707963267948966 0 0 1 
1 0 0 0 1 
1 0 116.39999999999999 1 0 
1 0 -116.39999999999999 1 0 
1 0 148 1 0 
1 1.5707963267949059 0 0 1 
1 2 0 0 1 
1 0 116.39999999999999 1 0 
1 2 0 0 -1 
1 160.40000000000003 0 0 1 
1 0 -104 1 0 
1 0 160.40000000000003 1 0 
8 0 2
1 6.2831853071795862 -0 0 1 
8 0 2
1 0 0 0 1 
1 0 0 0 -1 
1 160.40000000000003 0 0 1 
1 0 2 1 0 
2 0 0 1 0 -0 1 6.2000000000000002
1 0 0 1 0 
2 0 0 1 0 -0 1 6.2000000000000002
Curves 24
2 226 58 20 0 0 1 1 0 -0 -0 1 0 6.2000000000000002
1 226 51.799999999999997 18 0 0 1 
2 226 58 18 0 0 1 1 0 -0 -0 1 0 6.2000000000000002
1 219.80000000000001 58 18 0 0 1 
1 226 51.799999999999997 18 1 0 -0 
1 374 51.799999999999997 18 0 0 1 
1 226 51.799999999999997 20 1 0 -0 
1 219.80000000000001 58 20 -0 1 0 
1 219.80000000000001 162 18 0 0 1 
1 219.80000000000001 58 18 -0 1 0 
2 374.00000000000006 58 20 0 0 1 1 0 -0 -0 1 0 6.2000000000000002
1 380.20000000000005 58 18 0 0 1 
2 374.00000000000006 58 18 0 0 1 1 0 -0 -0 1 0 6.2000000000000002
2 226 162 20 0 0 1 1 0 -0 -0 1 0 6.2000000000000002
2 226 162 18 0 0 1 1 0 -0 -0 1 0 6.2000000000000002
1 226 168.19999999999999 18 0 0 1 
1 226 168.19999999999999 18 1 0 -0 
1 374 168.19999999999999 18 0 0 1 
1 226 168.19999999999999 20 1 0 -0 
1 380.20000000000005 58 20 -0 1 0 
1 380.20000000000005 162 18 0 0 1 
1 380.20000000000005 58 18 -0 1 0 
2 374.00000000000006 162 20 0 0 1 1 0 -0 -0 1 0 6.2000000000000002
2 374.00000000000006 162 18 0 0 1 1 0 -0 -0 1 0 6.2000000000000002
Polygon3D 0
PolygonOnTriangulations 0
Surfaces 26
2 226 58 18 0 0 1 1 0 -0 -0 1 0 6.2000000000000002
1 226 58 20 0 0 1 1 0 -0 -0 1 0 
1 226 51.799999999999997 18 1 0 -0 0 0 1 0 -1 0 
1 226 51.799999999999997 18 -0 1 0 0 0 1 1 0 -0 
1 226 58 18 0 0 1 1 0 -0 -0 1 0 
1 219.80000000000001 58 18 1 0 -0 0 0 1 0 -1 0 
1 219.80000000000001 58 18 -0 1 0 0 0 1 1 0 -0 
1 226 51.799999999999997 18 0 0 1 1 0 -0 -0 1 0 
1 374 51.799999999999997 18 1 0 -0 0 0 1 0 -1 0 
2 374.00000000000006 58 18 0 0 1 1 0 -0 -0 1 0 6.2000000000000002
1 226 51.799999999999997 20 0 0 1 1 0 -0 -0 1 0 
1 219.80000000000001 58 20 0 0 1 1 0 -0 -0 1 0 
1 219.80000000000001 162 18 -0 1 0 0 0 1 1 0 -0 
2 226 162 18 0 0 1 1 0 -0 -0 1 0 6.2000000000000002
1 219.80000000000001 58 18 0 0 1 1 0 -0 -0 1 0 
1 374.00000000000006 58 20 0 0 1 1 0 -0 -0 1 0 
1 380.20000000000005 58 18 1 0 -0 0 0 1 0 -1 0 
1 374.00000000000006 58 18 0 0 1 1 0 -0 -0 1 0 
1 226 162 20 0 0 1 1 0 -0 -0 1 0 
1 226 162 18 0 0 1 1 0 -0 -0 1 0 
1 226 168.19999999999999 18 -0 1 0 0 0 1 1 0 -0 
2 374.00000000000006 162 18 0 0 1 1 0 -0 -0 1 0 6.2000000000000002
1 374.00000000000006 162 20 0 0 1 1 0 -0 -0 1 0 
1 374.00000000000006 162 18 0 0 1 1 0 -0 -0 1 0 
1 300.00000000000011 110.00000000000003 20.000000000000004 0 0 1 1 0 -0 -0 1 0 
1 300 109.99999999999997 18.000000000000004 -0 -0 -1 -1 0 0 0 1 -0 
Triangulations 0

TShapes 63
Ve
3.86282245301572e-07
219.8 58 20
0 0

0101101
*
Ve
1e-07
226 51.8 20
0 0

0101101
*
Ed
 1e-07 1 1 0
1  1 0 3.14159265358979 4.71238898038469
2  1 1 0 3.14159265358979 4.71238898038469
2  2 2 0 3.14159265358979 4.71238898038469
0

0101000
+63 0 -62 0 *
Ve
1e-07
226 51.8 18
0 0

0101101
*
Ed
 1e-07 1 1 0
1  2 0 0 2
2  3 3 0 0 2
2  4 4 0 0 2
2  5 1 0 0 2
0

0101000
+60 0 -62 0 *
Ve
3.86282245301572e-07
219.8 58 18
0 0

0101101
*
Ed
 1e-07 1 1 0
1  3 0 3.14159265358979 4.71238898038469
2  6 1 0 3.14159265358979 4.71238898038469
2  7 5 0 3.14159265358979 4.71238898038469
0

0101000
+58 0 -60 0 *
Ed
 1e-07 1 1 0
1  4 0 0 2
2  8 6 0 0 2
2  9 7 0 0 2
2  10 1 0 0 2
0

0101000
+58 0 -63 0 *
Wi

0101100
-61 0 +59 0 +57 0 -56 0 *
Fa
0  1e-07 1 0

0101000
+55 0 *
Ve
1.00000022484892e-07
374 51.8 18
0 0

0101101
*
Ed
 1e-07 1 1 0
1  5 0 0 148
2  11 4 0 0 148
2  12 8 0 0 148
0

0101000
+60 0 -53 0 *
Ve
1.00000022484892e-07
374 51.8 20
0 0

0101101
*
Ed
 1e-07 1 1 0
1  6 0 0 2
2  13 9 0 0 2
2  14 4 0 0 2
2  15 10 0 0 2
0

0101000
+53 0 -51 0 *
Ed
 1e-07 1 1 0
1  7 0 0 148
2  16 4 0 0 148
2  17 11 0 0 148
0

0101000
+62 0 -51 0 *
Wi

0101100
-52 0 -50 0 +49 0 +59 0 *
Fa
0  1e-07 4 0

0101000
+48 0 *
Ve
3.86282238196145e-07
219.8 162 20
0 0

0101101
*
Ed
 1e-07 1 1 0
1  8 0 0 104
2  18 6 0 0 104
2  19 12 0 0 104
0

0101000
+63 0 -46 0 *
Ve
3.86282238196145e-07
219.8 162 18
0 0

0101101
*
Ed
 1e-07 1 1 0
1  9 0 0 2
2  20 6 0 0 2
2  21 13 0 0 2
2  22 14 0 0 2
0

0101000
+44 0 -46 0 *
Ed
 1e-07 1 1 0
1  10 0 0 104
2  23 6 0 0 104
2  24 15 0 0 104
0

0101000
+58 0 -44 0 *
Wi

0101100
-56 0 -45 0 +43 0 +42 0 *
Fa
0  1e-07 6 0

0101000
+41 0 *
Ve
3.86282245301572e-07
380.2 58 20
0 0

0101101
*
Ed
 1e-07 1 1 0
1  11 0 4.71238898038468 6.28318530717959
2  25 10 0 4.71238898038468 6.28318530717959
2  26 16 0 4.71238898038468 6.28318530717959
0

0101000
+51 0 -39 0 *
Ve
3.86282245301572e-07
380.2 58 18
0 0

0101101
*
Ed
 1e-07 1 1 0
1  12 0 0 2
2  27 17 0 0 2
2  28 7 0 0 2
3  29 30C0 10 0 0 2
0

0101000
+37 0 -39 0 *
Ed
 1e-07 1 1 0
1  13 0 4.71238898038468 6.28318530717959
2  31 10 0 4.71238898038468 6.28318530717959
2  32 18 0 4.71238898038468 6.28318530717959
0

0101000
+53 0 -37 0 *
Wi

0101100
-38 0 +36 0 +35 0 -50 0 *
Fa
0  1e-07 10 0

0101000
+34 0 *
Ve
3.86282238196145e-07
226 168.2 20
0 0

0101101
*
Ed
 1e-07 1 1 0
1  14 0 1.5707963267949 3.14159265358979
2  33 14 0 1.5707963267949 3.14159265358979
2  34 19 0 1.5707963267949 3.14159265358979
0

0101000
+32 0 -46 0 *
Ve
3.86282238196145e-07
226 168.2 18
0 0

0101101
*
Ed
 1e-07 1 1 0
1  15 0 1.5707963267949 3.14159265358979
2  35 14 0 1.5707963267949 3.14159265358979
2  36 20 0 1.5707963267949 3.14159265358979
0

0101000
+30 0 -44 0 *
Ed
 1e-07 1 1 0
1  16 0 0 2
2  37 3 0 0 2
2  38 21 0 0 2
2  39 14 0 0 2
0

0101000
+30 0 -32 0 *
Wi

0101100
-31 0 +43 0 +29 0 -28 0 *
Fa
0  1e-07 14 0

0101000
+27 0 *
Ve
3.86282181352726e-07
374 168.2 18
0 0

0101101
*
Ed
 1e-07 1 1 0
1  17 0 0 148
2  40 21 0 0 148
2  41 8 0 0 148
0

0101000
+30 0 -25 0 *
Ve
3.86282181352726e-07
374 168.2 20
0 0

0101101
*
Ed
 1e-07 1 1 0
1  18 0 0 2
2  42 9 0 0 2
2  43 21 0 0 2
2  44 22 0 0 2
0

0101000
+25 0 -23 0 *
Ed
 1e-07 1 1 0
1  19 0 0 148
2  45 21 0 0 148
2  46 11 0 0 148
0

0101000
+32 0 -23 0 *
Wi

0101100
-24 0 -22 0 +21 0 +28 0 *
Fa
0  1e-07 21 0

0101000
+20 0 *
Ve
3.86282238196145e-07
380.2 162 20
0 0

0101101
*
Ed
 1e-07 1 1 0
1  20 0 0 104
2  47 17 0 0 104
2  48 12 0 0 104
0

0101000
+39 0 -18 0 *
Ve
3.86282238196145e-07
380.2 162 18
0 0

0101101
*
Ed
 1e-07 1 1 0
1  21 0 0 2
2  49 17 0 0 2
2  50 13 0 0 2
3  51 52C0 22 0 0 2
0

0101000
+16 0 -18 0 *
Ed
 1e-07 1 1 0
1  22 0 0 104
2  53 17 0 0 104
2  54 15 0 0 104
0

0101000
+37 0 -16 0 *
Wi

0101100
-36 0 -17 0 +15 0 +14 0 *
Fa
0  1e-07 17 0

0101000
+13 0 *
Ed
 1e-07 1 1 0
1  23 0 0 1.57079632679491
2  55 22 0 0 1.57079632679491
2  56 23 0 0 1.57079632679491
0

0101000
+18 0 -23 0 *
Ed
 1e-07 1 1 0
1  24 0 0 1.57079632679491
2  57 22 0 0 1.57079632679491
2  58 24 0 0 1.57079632679491
0

0101000
+16 0 -25 0 *
Wi

0101100
-11 0 +22 0 +10 0 -15 0 *
Fa
0  1e-07 22 0

0101000
+9 0 *
Wi

0101100
+61 0 +49 0 +38 0 +17 0 +11 0 -21 0 +31 0 -45 0 *
Fa
0  1e-07 25 0

0101000
+7 0 *
Wi

0101100
-57 0 +42 0 -29 0 +24 0 -10 0 -14 0 -35 0 -52 0 *
Fa
0  1e-07 26 0

0101000
+5 0 *
Sh

0101100
+54 0 -47 0 -40 0 +33 0 +26 0 +19 0 +12 0 +8 0 +6 0 +4 0 
*
So

0100000
+3 0 *
Co

1100000
+2 0 *

+1 0 