DBRep_DrawableShape

CASCADE Topology V1, (c) Matra-Datavision
Locations 0
Curve2ds 58
1 0 20 1 0 
2 0 0 1 0 -0 1 8
1 0 0 1 0 
1 0 0 1 0 
1 4.7123889803846897 0 0 1 
1 0 0 1 0 
2 0 0 1 0 -0 1 8
1 0 0 1 0 
1 0 0 1 0 
1 3.1415926535897931 0 0 1 
1 0 0 0 1 
1 0 0 1 0 
1 0 0 1 0 
1 0 116 1 0 
1 4.7123889803846897 0 0 1 
1 20 0 0 1 
1 0 0 1 0 
1 20 0 0 -1 
1 0 0 0 1 
1 0 -72 1 0 
1 0 0 1 0 
1 3.1415926535897931 0 0 1 
1 0 0 0 -1 
1 0 0 0 1 
1 0 20 1 0 
2 0 0 1 0 -0 1 8
1 0 0 1 0 
1 0 132 1 0 
8 0 20
1 6.2831853071795862 -0 0 1 
8 0 20
1 0 0 0 1 
1 0 0 1 0 
2 0 0 1 0 -0 1 8
1 0 20 1 0 
2 0 0 1 0 -0 1 8
1 0 0 1 0 
2 0 0 1 0 -0 1 8
1 0 -88 1 0 
1 0 0 1 0 
1 1.5707963267948966 0 0 1 
1 0 0 0 1 
1 0 88 1 0 
1 0 -88 1 0 
1 0 116 1 0 
1 1.5707963267948966 0 0 1 
1 20 0 0 1 
1 0 88 1 0 
1 20 0 0 -1 
1 132 0 0 1 
1 0 -72 1 0 
1 0 132 1 0 
8 0 20
1 6.2831853071795862 -0 0 1 
8 0 20
1 0 0 0 1 
1 0 0 0 -1 
1 132 0 0 1 
1 0 20 1 0 
2 0 0 1 0 -0 1 8
1 0 0 1 0 
2 0 0 1 0 -0 1 8
Curves 24
2 242 74 37 0 0 1 1 0 -0 -0 1 0 8
1 242 66 17 0 0 1 
2 242 74 17 0 0 1 1 0 -0 -0 1 0 8
1 234 74 17 0 0 1 
1 242 66 17 1 0 -0 
1 358 66 17 0 0 1 
1 242 66 37 1 0 -0 
1 234 74 37 -0 1 0 
1 234 146 17 0 0 1 
1 234 74 17 -0 1 0 
2 358 74 37 0 0 1 1 0 -0 -0 1 0 8
1 366 74 17 0 0 1 
2 358 74 17 0 0 1 1 0 -0 -0 1 0 8
2 242 146 37 0 0 1 1 0 -0 -0 1 0 8
2 242 146 17 0 0 1 1 0 -0 -0 1 0 8
1 242 154 17 0 0 1 
1 242 154 17 1 0 -0 
1 358 154 17 0 0 1 
1 242 154 37 1 0 -0 
1 366 74 37 -0 1 0 
1 366 146 17 0 0 1 
1 366 74 17 -0 1 0 
2 358 146 37 0 0 1 1 0 -0 -0 1 0 8
2 358 146 17 0 0 1 1 0 -0 -0 1 0 8
Polygon3D 0
PolygonOnTriangulations 0
Surfaces 26
2 242 74 17 0 0 1 1 0 -0 -0 1 0 8
1 242 74 37 0 0 1 1 0 -0 -0 1 0 
1 242 66 17 1 0 -0 0 0 1 0 -1 0 
1 242 66 17 -0 1 0 0 0 1 1 0 -0 
1 242 74 17 0 0 1 1 0 -0 -0 1 0 
1 234 74 17 1 0 -0 0 0 1 0 -1 0 
1 234 74 17 -0 1 0 0 0 1 1 0 -0 
1 242 66 17 0 0 1 1 0 -0 -0 1 0 
1 358 66 17 1 0 -0 0 0 1 0 -1 0 
2 358 74 17 0 0 1 1 0 -0 -0 1 0 8
1 242 66 37 0 0 1 1 0 -0 -0 1 0 
1 234 74 37 0 0 1 1 0 -0 -0 1 0 
1 234 146 17 -0 1 0 0 0 1 1 0 -0 
2 242 146 17 0 0 1 1 0 -0 -0 1 0 8
1 234 74 17 0 0 1 1 0 -0 -0 1 0 
1 358 74 37 0 0 1 1 0 -0 -0 1 0 
1 366 74 17 1 0 -0 0 0 1 0 -1 0 
1 358 74 17 0 0 1 1 0 -0 -0 1 0 
1 242 146 37 0 0 1 1 0 -0 -0 1 0 
1 242 146 17 0 0 1 1 0 -0 -0 1 0 
1 242 154 17 -0 1 0 0 0 1 1 0 -0 
2 358 146 17 0 0 1 1 0 -0 -0 1 0 8
1 358 146 37 0 0 1 1 0 -0 -0 1 0 
1 358 146 17 0 0 1 1 0 -0 -0 1 0 
1 300.00000000000006 110.00000000000004 37 0 0 1 1 0 -0 -0 1 0 
1 300.00000000000006 110.00000000000001 17.000000000000004 -0 -0 -1 -1 0 0 0 1 -0 
Triangulations 0

TShapes 63
Ve
1.00000008274037e-07
234 74 37
0 0

0101101
*
Ve
1e-07
242 66 37
0 0

0101101
*
Ed
 1e-07 1 1 0
1  1 0 3.14159265358979 4.71238898038469
2  1 1 0 3.14159265358979 4.71238898038469
2  2 2 0 3.14159265358979 4.71238898038469
0

0101000
+63 0 -62 0 *
Ve
1e-07
242 66 17
0 0

0101101
*
Ed
 1e-07 1 1 0
1  2 0 0 20
2  3 3 0 0 20
2  4 4 0 0 20
2  5 1 0 0 20
0

0101000
+60 0 -62 0 *
Ve
1.00000008274037e-07
234 74 17
0 0

0101101
*
Ed
 1e-07 1 1 0
1  3 0 3.14159265358979 4.71238898038469
2  6 1 0 3.14159265358979 4.71238898038469
2  7 5 0 3.14159265358979 4.71238898038469
0

0101000
+58 0 -60 0 *
Ed
 1e-07 1 1 0
1  4 0 0 20
2  8 6 0 0 20
2  9 7 0 0 20
2  10 1 0 0 20
0

0101000
+58 0 -63 0 *
Wi

0101100
-61 0 +59 0 +57 0 -56 0 *
Fa
0  1e-07 1 0

0101000
+55 0 *
Ve
1.00000022484892e-07
358 66 17
0 0

0101101
*
Ed
 1e-07 1 1 0
1  5 0 0 116
2  11 4 0 0 116
2  12 8 0 0 116
0

0101000
+60 0 -53 0 *
Ve
1.00000022484892e-07
358 66 37
0 0

0101101
*
Ed
 1e-07 1 1 0
1  6 0 0 20
2  13 9 0 0 20
2  14 4 0 0 20
2  15 10 0 0 20
0

0101000
+53 0 -51 0 *
Ed
 1e-07 1 1 0
1  7 0 0 116
2  16 4 0 0 116
2  17 11 0 0 116
0

0101000
+62 0 -51 0 *
Wi

0101100
-52 0 -50 0 +49 0 +59 0 *
Fa
0  1e-07 4 0

0101000
+48 0 *
Ve
1e-07
234 146 37
0 0

0101101
*
Ed
 1e-07 1 1 0
1  8 0 0 72
2  18 6 0 0 72
2  19 12 0 0 72
0

0101000
+63 0 -46 0 *
Ve
1e-07
234 146 17
0 0

0101101
*
Ed
 1e-07 1 1 0
1  9 0 0 20
2  20 6 0 0 20
2  21 13 0 0 20
2  22 14 0 0 20
0

0101000
+44 0 -46 0 *
Ed
 1e-07 1 1 0
1  10 0 0 72
2  23 6 0 0 72
2  24 15 0 0 72
0

0101000
+58 0 -44 0 *
Wi

0101100
-56 0 -45 0 +43 0 +42 0 *
Fa
0  1e-07 6 0

0101000
+41 0 *
Ve
1e-07
366 74 37
0 0

0101101
*
Ed
 1e-07 1 1 0
1  11 0 4.71238898038469 6.28318530717959
2  25 10 0 4.71238898038469 6.28318530717959
2  26 16 0 4.71238898038469 6.28318530717959
0

0101000
+51 0 -39 0 *
Ve
1e-07
366 74 17
0 0

0101101
*
Ed
 1e-07 1 1 0
1  12 0 0 20
2  27 17 0 0 20
2  28 7 0 0 20
3  29 30C0 10 0 0 20
0

0101000
+37 0 -39 0 *
Ed
 1e-07 1 1 0
1  13 0 4.71238898038469 6.28318530717959
2  31 10 0 4.71238898038469 6.28318530717959
2  32 18 0 4.71238898038469 6.28318530717959
0

0101000
+53 0 -37 0 *
Wi

0101100
-38 0 +36 0 +35 0 -50 0 *
Fa
0  1e-07 10 0

0101000
+34 0 *
Ve
1e-07
242 154 37
0 0

0101101
*
Ed
 1e-07 1 1 0
1  14 0 1.5707963267949 3.14159265358979
2  33 14 0 1.5707963267949 3.14159265358979
2  34 19 0 1.5707963267949 3.14159265358979
0

0101000
+32 0 -46 0 *
Ve
1e-07
242 154 17
0 0

0101101
*
Ed
 1e-07 1 1 0
1  15 0 1.5707963267949 3.14159265358979
2  35 14 0 1.5707963267949 3.14159265358979
2  36 20 0 1.5707963267949 3.14159265358979
0

0101000
+30 0 -44 0 *
Ed
 1e-07 1 1 0
1  16 0 0 20
2  37 3 0 0 20
2  38 21 0 0 20
2  39 14 0 0 20
0

0101000
+30 0 -32 0 *
Wi

0101100
-31 0 +43 0 +29 0 -28 0 *
Fa
0  1e-07 14 0

0101000
+27 0 *
Ve
1.00000022484892e-07
358 154 17
0 0

0101101
*
Ed
 1e-07 1 1 0
1  17 0 0 116
2  40 21 0 0 116
2  41 8 0 0 116
0

0101000
+30 0 -25 0 *
Ve
1.00000022484892e-07
358 154 37
0 0

0101101
*
Ed
 1e-07 1 1 0
1  18 0 0 20
2  42 9 0 0 20
2  43 21 0 0 20
2  44 22 0 0 20
0

0101000
+25 0 -23 0 *
Ed
 1e-07 1 1 0
1  19 0 0 116
2  45 21 0 0 116
2  46 11 0 0 116
0

0101000
+32 0 -23 0 *
Wi

0101100
-24 0 -22 0 +21 0 +28 0 *
Fa
0  1e-07 21 0

0101000
+20 0 *
Ve
1e-07
366 146 37
0 0

0101101
*
Ed
 1e-07 1 1 0
1  20 0 0 72
2  47 17 0 0 72
2  48 12 0 0 72
0

0101000
+39 0 -18 0 *
Ve
1e-07
366 146 17
0 0

0101101
*
Ed
 1e-07 1 1 0
1  21 0 0 20
2  49 17 0 0 20
2  50 13 0 0 20
3  51 52C0 22 0 0 20
0

0101000
+16 0 -18 0 *
Ed
 1e-07 1 1 0
1  22 0 0 72
2  53 17 0 0 72
2  54 15 0 0 72
0

0101000
+37 0 -16 0 *
Wi

0101100
-36 0 -17 0 +15 0 +14 0 *
Fa
0  1e-07 17 0

0101000
+13 0 *
Ed
 1e-07 1 1 0
1  23 0 0 1.5707963267949
2  55 22 0 0 1.5707963267949
2  56 23 0 0 1.5707963267949
0

0101000
+18 0 -23 0 *
Ed
 1e-07 1 1 0
1  24 0 0 1.5707963267949
2  57 22 0 0 1.5707963267949
2  58 24 0 0 1.5707963267949
0

0101000
+16 0 -25 0 *
Wi

0101100
-11 0 +22 0 +10 0 -15 0 *
Fa
0  1e-07 22 0

0101000
+9 0 *
Wi

0101100
+61 0 +49 0 +38 0 +17 0 +11 0 -21 0 +31 0 -45 0 *
Fa
0  1e-07 25 0

0101000
+7 0 *
Wi

0101100
-57 0 +42 0 -29 0 +24 0 -10 0 -14 0 -35 0 -52 0 *
Fa
0  1e-07 26 0

0101000
+5 0 *
Sh

0101100
+54 0 -47 0 -40 0 +33 0 +26 0 +19 0 +12 0 +8 0 +6 0 +4 0 
*
So

0100000
+3 0 *
Co

1100000
+2 0 *

+1 0 