DBRep_DrawableShape

CASCADE Topology V1, (c) Matra-Datavision
Locations 5
1
              1               0               0               0 
              0               1               0               0 
              0               0               1               0 
1
              1               0               0               0 
              0               1               0              10 
              0               0               1               0 
2  1 -1 2 -1 0
2  1 -1 0
2  2 1 1 1 0
Curve2ds 148
1 0 0 1 0 
1 0 0 1 0 
1 47 12 0 -1 
1 0 0 0 1 
1 47 -6 1 0 
1 0 0 1 0 
1 65 12 0 -1 
1 0 0 0 1 
1 0 0 1 0 
1 0 0 1 0 
1 366 0 0 -1 
1 0 0 0 1 
1 0 -18 1 0 
1 0 0 1 0 
1 0 0 0 -1 
1 0 0 0 1 
1 0 50 1 0 
1 0 0 1 0 
8 0 50
1 47 0 0 1 
8 0 50
1 0 12 1 0 
1 0 0 0 1 
1 0 0 1 0 
1 0 18 1 0 
1 0 0 0 1 
8 -12 -6
1 50 6 0 -1 
8 -12 -6
1 47 6 0 1 
8 23.5 41.5
1 -23.5 50 1 0 
8 23.5 41.5
1 23.5 -6 1 0 
1 18 0 0 1 
1 0 18 1 0 
8 -12 -6
1 50 6 0 -1 
8 -12 -6
1 65 6 0 1 
8 0 50
1 0 12 1 0 
8 0 50
1 65 0 0 1 
1 0 50 1 0 
1 0 0 1 0 
1 366 0 0 1 
1 0 0 1 0 
2 333 13 1 0 -0 1 3
1 -6.2831853071795862 1 1 0 
8 -171.5 -161.5
1 161.5 16 -1 0 
8 -171.5 -161.5
1 -161.5 -1 -1 -0 
2 323 13 1 0 -0 1 3
1 0 1 1 0 
8 -171.5 -161.5
1 161.5 10 -1 0 
8 -171.5 -161.5
1 -161.5 -1 -1 -0 
2 129 25 1 0 -0 1 3.25
1 0 1 1 0 
8 -69.5 -59.5
1 59.5 21.75 -1 0 
8 -69.5 -59.5
1 -59.5 -1 -1 -0 
8 -69.5 -59.5
1 59.5 28.25 -1 0 
8 -69.5 -59.5
1 -59.5 -1 -1 -0 
2 119 25 1 0 -0 1 3.25
1 0 1 1 0 
2 269 25 1 0 -0 1 3.25
1 0 1 1 0 
8 -139.5 -129.5
1 129.5 21.75 -1 0 
8 -139.5 -129.5
1 -129.5 -1 -1 -0 
8 -139.5 -129.5
1 129.5 28.25 -1 0 
8 -139.5 -129.5
1 -129.5 -1 -1 -0 
2 259 25 1 0 -0 1 3.25
1 0 1 1 0 
2 333 37 1 0 -0 1 3
1 -6.2831853071795862 1 1 0 
8 -171.5 -161.5
1 161.5 40 -1 0 
8 -171.5 -161.5
1 -161.5 -1 -1 -0 
2 323 37 1 0 -0 1 3
1 0 1 1 0 
8 -171.5 -161.5
1 161.5 34 -1 0 
8 -171.5 -161.5
1 -161.5 -1 -1 -0 
1 0 18 1 0 
1 366 0 0 1 
1 50 0 0 1 
1 366 0 0 -1 
1 0 0 0 1 
1 0 18 1 0 
1 0 50 1 0 
1 0 -18 1 0 
2 333 13 1 0 -0 1 3
1 -6.2831853071795862 19 1 0 
8 -171.5 -161.5
1 161.5 16 -1 0 
8 -171.5 -161.5
1 -161.5 -19 -1 -0 
2 323 13 1 0 -0 1 3
1 0 19 1 0 
8 -171.5 -161.5
1 161.5 10 -1 0 
8 -171.5 -161.5
1 -161.5 -19 -1 -0 
2 129 25 1 0 -0 1 3.25
1 0 19 1 0 
8 -69.5 -59.5
1 59.5 21.75 -1 0 
8 -69.5 -59.5
1 -59.5 -19 -1 -0 
8 -69.5 -59.5
1 59.5 28.25 -1 0 
8 -69.5 -59.5
1 -59.5 -19 -1 -0 
2 119 25 1 0 -0 1 3.25
1 0 19 1 0 
2 269 25 1 0 -0 1 3.25
1 0 19 1 0 
8 -139.5 -129.5
1 129.5 21.75 -1 0 
8 -139.5 -129.5
1 -129.5 -19 -1 -0 
8 -139.5 -129.5
1 129.5 28.25 -1 0 
8 -139.5 -129.5
1 -129.5 -19 -1 -0 
2 259 25 1 0 -0 1 3.25
1 0 19 1 0 
2 333 37 1 0 -0 1 3
1 -6.2831853071795862 19 1 0 
8 -171.5 -161.5
1 161.5 40 -1 0 
8 -171.5 -161.5
1 -161.5 -19 -1 -0 
2 323 37 1 0 -0 1 3
1 0 19 1 0 
8 -171.5 -161.5
1 161.5 34 -1 0 
8 -171.5 -161.5
1 -161.5 -19 -1 -0 
1 50 0 0 1 
1 0 0 0 -1 
1 10 0 0 -1 
1 -1.5707963267948966 0 0 1 
1 10 0 0 -1 
1 1.5707963267948966 0 0 1 
1 1.5707963267948966 0 0 1 
1 0 0 0 -1 
1 0 0 0 -1 
1 4.7123889803846897 0 0 1 
1 7.8539816339744828 0 0 1 
1 10 0 0 -1 
1 4.7123889803846897 0 0 1 
1 10 0 0 -1 
1 0 0 0 -1 
1 4.7123889803846897 0 0 1 
1 0 0 0 -1 
1 1.5707963267948966 0 0 1 
1 7.8539816339744828 0 0 1 
1 10 0 0 -1 
1 4.7123889803846897 0 0 1 
1 10 0 0 -1 
1 0 0 0 -1 
1 4.7123889803846897 0 0 1 
1 0 0 0 -1 
1 1.5707963267948966 0 0 1 
1 10 0 0 -1 
1 0 0 0 1 
1 -1.5707963267948966 0 0 1 
1 10 0 0 -1 
1 6 0 0 1 
1 1.5707963267948966 0 0 1 
1 0 0 0 -1 
1 6 0 0 1 
1 1.5707963267948966 0 0 1 
1 0 0 0 -1 
1 0 0 0 1 
1 4.7123889803846897 0 0 1 
Curves 72
1 135 1230 870 0 0 1 
1 135 1228 917 -0 1 0 
1 135 1246 917 0 0 1 
1 135 1228 935 -0 1 0 
1 135 1230 870 0 0 1 
1 135 1230 1236 -0 1 0 
1 135 1248 870 0 0 1 
1 135 1230 870 -0 1 0 
1 185 1230 870 0 0 1 
1 135 1240 917 1 0 0 
1 135 1230 870 1 0 -0 
1 135 1246 917 1 0 -0 
1 185 1234 917 0 -1 0 
1 185 1246 893.5 0 -0 1 
1 135 1246 935 1 0 -0 
1 185 1234 935 0 -1 0 
1 135 1240 935 1 0 0 
1 185 1230 870 0 0 1 
1 135 1230 1236 1 0 -0 
2 148 1240 1203 0 1 0 0 -0 1 1 0 -0 3
1 151 1240 1031.5 -0 0 -1 
2 148 1240 1193 0 1 0 0 -0 1 1 0 -0 3
1 145 1240 1031.5 -0 0 -1 
2 160 1230 999 0 1 0 0 -0 1 1 0 -0 3.25
1 156.75 1230 929.5 -0 0 -1 
1 163.25 1230 929.5 -0 0 -1 
2 160 1230 989 0 1 0 0 -0 1 1 0 -0 3.25
2 160 1230 1139 0 1 0 0 -0 1 1 0 -0 3.25
1 156.75 1230 999.5 -0 0 -1 
1 163.25 1230 999.5 -0 0 -1 
2 160 1230 1129 0 1 0 0 -0 1 1 0 -0 3.25
2 172 1240 1203 0 1 0 0 -0 1 1 0 -0 3
1 175 1240 1031.5 -0 0 -1 
2 172 1240 1193 0 1 0 0 -0 1 1 0 -0 3
1 169 1240 1031.5 -0 0 -1 
1 135 1248 1236 1 0 -0 
1 185 1230 1236 -0 1 0 
1 135 1248 870 1 0 -0 
1 185 1248 870 0 0 1 
2 148 1258 1203 0 1 0 0 -0 1 1 0 -0 3
1 151 1258 1031.5 -0 0 -1 
2 148 1258 1193 0 1 0 0 -0 1 1 0 -0 3
1 145 1258 1031.5 -0 0 -1 
2 160 1248 999 0 1 0 0 -0 1 1 0 -0 3.25
1 156.75 1248 929.5 -0 0 -1 
1 163.25 1248 929.5 -0 0 -1 
2 160 1248 989 0 1 0 0 -0 1 1 0 -0 3.25
2 160 1248 1139 0 1 0 0 -0 1 1 0 -0 3.25
1 156.75 1248 999.5 -0 0 -1 
1 163.25 1248 999.5 -0 0 -1 
2 160 1248 1129 0 1 0 0 -0 1 1 0 -0 3.25
2 172 1258 1203 0 1 0 0 -0 1 1 0 -0 3
1 175 1258 1031.5 -0 0 -1 
2 172 1258 1193 0 1 0 0 -0 1 1 0 -0 3
1 169 1258 1031.5 -0 0 -1 
1 185 1230 870 -0 1 0 
1 145 1239 1203 -0 1 0 
1 151 1239 1203 -0 1 0 
1 151 1239 1193 -0 1 0 
1 145 1239 1193 -0 1 0 
1 163.25 1229 999 -0 1 0 
1 156.75 1229 999 -0 1 0 
1 156.75 1229 989 -0 1 0 
1 163.25 1229 989 -0 1 0 
1 163.25 1229 1139 -0 1 0 
1 156.75 1229 1139 -0 1 0 
1 156.75 1229 1129 -0 1 0 
1 163.25 1229 1129 -0 1 0 
1 169 1239 1203 -0 1 0 
1 175 1239 1203 -0 1 0 
1 175 1239 1193 -0 1 0 
1 169 1239 1193 -0 1 0 
Polygon3D 0
PolygonOnTriangulations 0
Surfaces 28
1 135 1230 870 1 0 -0 0 0 1 0 -1 0 
1 135 1230 870 -0 1 0 0 0 1 1 0 -0 
1 135 1228 917 0 0 1 1 0 -0 -0 1 0 
1 135 1246 917 -0 1 0 0 0 1 1 0 -0 
1 135 1228 935 0 0 1 1 0 -0 -0 1 0 
1 135 1230 870 -0 1 0 0 0 1 1 0 -0 
1 135 1230 1236 0 0 1 1 0 -0 -0 1 0 
1 135 1248 870 -0 1 0 0 0 1 1 0 -0 
1 135 1230 870 0 0 1 1 0 -0 -0 1 0 
1 185 1230 870 1 0 -0 0 0 1 0 -1 0 
2 148 1239 1203 0 1 0 0 -0 1 1 0 -0 3
1 151 1239 1193 1 0 -0 0 0 1 0 -1 0 
2 148 1239 1193 0 1 0 0 -0 1 1 0 -0 3
1 145 1239 1193 1 0 -0 0 0 1 0 -1 0 
2 160 1229 999 0 1 0 0 -0 1 1 0 -0 3.25
1 156.75 1229 989 1 0 -0 0 0 1 0 -1 0 
1 163.25 1229 989 1 0 -0 0 0 1 0 -1 0 
2 160 1229 989 0 1 0 0 -0 1 1 0 -0 3.25
2 160 1229 1139 0 1 0 0 -0 1 1 0 -0 3.25
1 156.75 1229 1129 1 0 -0 0 0 1 0 -1 0 
1 163.25 1229 1129 1 0 -0 0 0 1 0 -1 0 
2 160 1229 1129 0 1 0 0 -0 1 1 0 -0 3.25
2 172 1239 1203 0 1 0 0 -0 1 1 0 -0 3
1 175 1239 1193 1 0 -0 0 0 1 0 -1 0 
2 172 1239 1193 0 1 0 0 -0 1 1 0 -0 3
1 169 1239 1193 1 0 -0 0 0 1 0 -1 0 
1 169 1239 1203 0 0 1 1 0 -0 -0 1 0 
1 169 1239 1193 0 0 1 1 0 -0 -0 1 0 
Triangulations 0

TShapes 183
Ve
1e-07
135 1240 870
0 0

0101101
*
Ve
1.5e-07
135 1240 917
0 0

0101101
*
Ed
 1e-07 1 1 0
1  1 0 0 47
2  1 1 0 0 47
2  2 2 0 0 47
0

0101000
+183 3 -182 3 *
Ve
1e-07
135 1246 917
0 0

0101101
*
Ed
 1e-07 1 1 0
1  2 0 12 18
2  3 1 2 12 18
2  4 3 0 12 18
0

0101000
+182 4 -180 4 *
Ve
1e-07
135 1246 935
0 0

0101101
*
Ed
 1e-07 1 1 0
1  3 0 0 18
2  5 1 2 0 18
2  6 4 0 0 18
0

0101000
+180 4 -178 4 *
Ve
1.5e-07
135 1240 935
0 0

0101101
*
Ed
 1e-07 1 1 0
1  4 0 12 18
2  7 1 2 12 18
2  8 5 0 12 18
0

0101000
+176 4 -178 4 *
Ve
1e-07
135 1240 1236
0 0

0101101
*
Ed
 1e-07 1 1 0
1  5 0 65 366
2  9 1 0 65 366
2  10 6 0 65 366
0

0101000
+176 3 -174 3 *
Ve
1e-07
135 1258 1236
0 0

0101101
*
Ed
 1e-07 1 1 0
1  6 0 0 18
2  11 1 0 0 18
2  12 7 0 0 18
0

0101000
-172 3 +174 3 *
Ve
1e-07
135 1258 870
0 0

0101101
*
Ed
 1e-07 1 1 0
1  7 0 0 366
2  13 1 0 0 366
2  14 8 0 0 366
0

0101000
-172 3 +170 3 *
Ed
 1e-07 1 1 0
1  8 0 0 18
2  15 1 0 0 18
2  16 9 0 0 18
0

0101000
-170 3 +183 3 *
Wi

0101100
-181 2 -179 0 -177 0 +175 0 -173 2 -171 2 +169 2 +168 2 *
Fa
0  1e-07 1 2

0111000
+167 0 *
Ve
1e-07
185 1240 870
0 0

0101101
*
Ve
1.5e-07
185 1240 917
0 0

0101101
*
Ed
 1e-07 1 1 0
1  9 0 0 47
2  17 2 0 0 47
2  18 10 0 0 47
0

0101000
+165 3 -164 3 *
Ed
 1.5e-07 1 1 0
1  10 0 0 50
2  19 2 2 0 50
2  20 3 0 0 50
0

0101000
+182 4 -164 4 *
Ed
 1e-07 1 1 0
1  11 0 0 50
2  21 2 0 0 50
2  22 9 0 0 50
0

0101000
-165 3 +183 3 *
Wi

0101100
-163 2 +162 0 +181 2 -161 2 *
Fa
0  1e-07 2 2

0111000
+160 0 *
Ve
1.5e-07
185 1246 917
0 0

0101101
*
Ed
 1e-07 1 1 0
1  12 0 0 50
2  23 3 0 0 50
2  24 4 0 0 50
0

0101000
+180 4 -158 4 *
Ed
 1.5e-07 1 1 0
1  13 0 -12 -6
2  25 3 0 -12 -6
2  26 10 2 -12 -6
0

0101000
+158 4 -164 4 *
Wi

0101100
-179 0 -157 0 -156 0 +162 0 *
Fa
0  1e-07 3 0

0111000
+155 0 *
Ve
1.5e-07
185 1246 935
0 0

0101101
*
Ed
 1.5e-07 1 1 0
1  14 0 23.5 41.5
2  27 4 0 23.5 41.5
2  28 10 2 23.5 41.5
0

0101000
+158 4 -153 4 *
Ed
 1e-07 1 1 0
1  15 0 0 50
2  29 4 0 0 50
2  30 5 0 0 50
0

0101000
+178 4 -153 4 *
Wi

0101100
-157 0 -152 0 +151 0 +177 0 *
Fa
0  1e-07 4 0

0111000
+150 0 *
Ve
1.5e-07
185 1240 935
0 0

0101101
*
Ed
 1.5e-07 1 1 0
1  16 0 -12 -6
2  31 5 0 -12 -6
2  32 10 2 -12 -6
0

0101000
+153 4 -148 4 *
Ed
 1.5e-07 1 1 0
1  17 0 0 50
2  33 5 0 0 50
2  34 6 2 0 50
0

0101000
+176 4 -148 4 *
Wi

0101100
-175 0 -151 0 -147 0 +146 0 *
Fa
0  1e-07 5 0

0111000
+145 0 *
Ve
1e-07
185 1240 1236
0 0

0101101
*
Ed
 1e-07 1 1 0
1  18 0 65 366
2  35 6 0 65 366
2  36 10 0 65 366
0

0101000
+148 3 -143 3 *
Ed
 1e-07 1 1 0
1  19 0 0 50
2  37 6 0 0 50
2  38 7 0 0 50
0

0101000
-143 3 +174 3 *
Wi

0101100
-142 5 -146 1 +141 5 +173 5 *
Ve
1.5e-07
145 1240 1203
0 0

0101101
*
Ve
1.5e-07
151 1240 1203
0 0

0101101
*
Ed
 1e-07 1 1 0
1  20 0 4.71238898038469 7.85398163397448
2  39 6 5 4.71238898038469 7.85398163397448
2  40 11 0 4.71238898038469 7.85398163397448
0

0101000
+139 0 -138 0 *
Ve
1.5e-07
151 1240 1193
0 0

0101101
*
Ed
 1.5e-07 1 1 0
1  21 0 -171.5 -161.5
2  41 6 5 -171.5 -161.5
2  42 12 0 -171.5 -161.5
0

0101000
+138 0 -136 0 *
Ve
1.5e-07
145 1240 1193
0 0

0101101
*
Ed
 1e-07 1 1 0
1  22 0 1.5707963267949 4.71238898038469
2  43 6 5 1.5707963267949 4.71238898038469
2  44 13 0 1.5707963267949 4.71238898038469
0

0101000
+136 0 -134 0 *
Ed
 1.5e-07 1 1 0
1  23 0 -171.5 -161.5
2  45 6 5 -171.5 -161.5
2  46 14 0 -171.5 -161.5
0

0101000
+139 0 -134 0 *
Wi

0101100
-137 0 -135 0 -133 0 +132 0 *
Ve
1.5e-07
156.75 1240 999
0 0

0101101
*
Ve
1.5e-07
163.25 1240 999
0 0

0101101
*
Ed
 1e-07 1 1 0
1  24 0 4.71238898038469 7.85398163397448
2  47 6 0 4.71238898038469 7.85398163397448
2  48 15 0 4.71238898038469 7.85398163397448
0

0101000
+130 3 -129 3 *
Ve
1.5e-07
156.75 1240 989
0 0

0101101
*
Ed
 1.5e-07 1 1 0
1  25 0 -69.5 -59.5
2  49 6 0 -69.5 -59.5
2  50 16 0 -69.5 -59.5
0

0101000
+130 3 -127 3 *
Ve
1.5e-07
163.25 1240 989
0 0

0101101
*
Ed
 1.5e-07 1 1 0
1  26 0 -69.5 -59.5
2  51 6 0 -69.5 -59.5
2  52 17 0 -69.5 -59.5
0

0101000
+129 3 -125 3 *
Ed
 1e-07 1 1 0
1  27 0 1.5707963267949 4.71238898038469
2  53 6 0 1.5707963267949 4.71238898038469
2  54 18 0 1.5707963267949 4.71238898038469
0

0101000
+125 3 -127 3 *
Wi

0101100
-128 5 +126 5 -124 5 -123 5 *
Ve
1.5e-07
156.75 1240 1139
0 0

0101101
*
Ve
1.5e-07
163.25 1240 1139
0 0

0101101
*
Ed
 1e-07 1 1 0
1  28 0 4.71238898038469 7.85398163397448
2  55 6 0 4.71238898038469 7.85398163397448
2  56 19 0 4.71238898038469 7.85398163397448
0

0101000
+121 3 -120 3 *
Ve
1.5e-07
156.75 1240 1129
0 0

0101101
*
Ed
 1.5e-07 1 1 0
1  29 0 -139.5 -129.5
2  57 6 0 -139.5 -129.5
2  58 20 0 -139.5 -129.5
0

0101000
+121 3 -118 3 *
Ve
1.5e-07
163.25 1240 1129
0 0

0101101
*
Ed
 1.5e-07 1 1 0
1  30 0 -139.5 -129.5
2  59 6 0 -139.5 -129.5
2  60 21 0 -139.5 -129.5
0

0101000
+120 3 -116 3 *
Ed
 1e-07 1 1 0
1  31 0 1.5707963267949 4.71238898038469
2  61 6 0 1.5707963267949 4.71238898038469
2  62 22 0 1.5707963267949 4.71238898038469
0

0101000
+116 3 -118 3 *
Wi

0101100
-119 5 +117 5 -115 5 -114 5 *
Ve
1.5e-07
169 1240 1203
0 0

0101101
*
Ve
1.5e-07
175 1240 1203
0 0

0101101
*
Ed
 1e-07 1 1 0
1  32 0 4.71238898038469 7.85398163397448
2  63 6 5 4.71238898038469 7.85398163397448
2  64 23 0 4.71238898038469 7.85398163397448
0

0101000
+112 0 -111 0 *
Ve
1.5e-07
175 1240 1193
0 0

0101101
*
Ed
 1.5e-07 1 1 0
1  33 0 -171.5 -161.5
2  65 6 5 -171.5 -161.5
2  66 24 0 -171.5 -161.5
0

0101000
+111 0 -109 0 *
Ve
1.5e-07
169 1240 1193
0 0

0101101
*
Ed
 1e-07 1 1 0
1  34 0 1.5707963267949 4.71238898038469
2  67 6 5 1.5707963267949 4.71238898038469
2  68 25 0 1.5707963267949 4.71238898038469
0

0101000
+109 0 -107 0 *
Ed
 1.5e-07 1 1 0
1  35 0 -171.5 -161.5
2  69 6 5 -171.5 -161.5
2  70 26 0 -171.5 -161.5
0

0101000
+112 0 -107 0 *
Wi

0101100
-110 0 -108 0 -106 0 +105 0 *
Fa
0  1e-07 6 5

0101000
+140 0 +131 0 +122 0 +113 0 +104 0 *
Ve
1e-07
185 1258 1236
0 0

0101101
*
Ed
 1e-07 1 1 0
1  36 0 0 50
2  71 7 0 0 50
2  72 8 0 0 50
0

0101000
-102 3 +172 3 *
Ed
 1e-07 1 1 0
1  37 0 0 18
2  73 7 0 0 18
2  74 10 0 0 18
0

0101000
-102 3 +143 3 *
Wi

0101100
-171 0 -101 0 +100 0 +141 0 *
Fa
0  1e-07 7 0

0111000
+99 0 *
Ve
1e-07
185 1258 870
0 0

0101101
*
Ed
 1e-07 1 1 0
1  38 0 0 50
2  75 8 0 0 50
2  76 9 0 0 50
0

0101000
-97 3 +170 3 *
Ed
 1e-07 1 1 0
1  39 0 0 366
2  77 8 0 0 366
2  78 10 0 0 366
0

0101000
-102 3 +97 3 *
Wi

0101100
-96 5 -95 5 +169 5 +101 5 *
Ve
1.5e-07
145 1258 1203
0 0

0101101
*
Ve
1.5e-07
151 1258 1203
0 0

0101101
*
Ed
 1e-07 1 1 0
1  40 0 4.71238898038469 7.85398163397448
2  79 8 5 4.71238898038469 7.85398163397448
2  80 11 0 4.71238898038469 7.85398163397448
0

0101000
+93 0 -92 0 *
Ve
1.5e-07
151 1258 1193
0 0

0101101
*
Ed
 1.5e-07 1 1 0
1  41 0 -171.5 -161.5
2  81 8 5 -171.5 -161.5
2  82 12 0 -171.5 -161.5
0

0101000
+92 0 -90 0 *
Ve
1.5e-07
145 1258 1193
0 0

0101101
*
Ed
 1e-07 1 1 0
1  42 0 1.5707963267949 4.71238898038469
2  83 8 5 1.5707963267949 4.71238898038469
2  84 13 0 1.5707963267949 4.71238898038469
0

0101000
+90 0 -88 0 *
Ed
 1.5e-07 1 1 0
1  43 0 -171.5 -161.5
2  85 8 5 -171.5 -161.5
2  86 14 0 -171.5 -161.5
0

0101000
+93 0 -88 0 *
Wi

0101100
-91 0 -89 0 -87 0 +86 0 *
Ve
1.5e-07
156.75 1258 999
0 0

0101101
*
Ve
1.5e-07
163.25 1258 999
0 0

0101101
*
Ed
 1e-07 1 1 0
1  44 0 4.71238898038469 7.85398163397448
2  87 8 0 4.71238898038469 7.85398163397448
2  88 15 0 4.71238898038469 7.85398163397448
0

0101000
+84 3 -83 3 *
Ve
1.5e-07
156.75 1258 989
0 0

0101101
*
Ed
 1.5e-07 1 1 0
1  45 0 -69.5 -59.5
2  89 8 0 -69.5 -59.5
2  90 16 0 -69.5 -59.5
0

0101000
+84 3 -81 3 *
Ve
1.5e-07
163.25 1258 989
0 0

0101101
*
Ed
 1.5e-07 1 1 0
1  46 0 -69.5 -59.5
2  91 8 0 -69.5 -59.5
2  92 17 0 -69.5 -59.5
0

0101000
+83 3 -79 3 *
Ed
 1e-07 1 1 0
1  47 0 1.5707963267949 4.71238898038469
2  93 8 0 1.5707963267949 4.71238898038469
2  94 18 0 1.5707963267949 4.71238898038469
0

0101000
+79 3 -81 3 *
Wi

0101100
-82 5 +80 5 -78 5 -77 5 *
Ve
1.5e-07
156.75 1258 1139
0 0

0101101
*
Ve
1.5e-07
163.25 1258 1139
0 0

0101101
*
Ed
 1e-07 1 1 0
1  48 0 4.71238898038469 7.85398163397448
2  95 8 0 4.71238898038469 7.85398163397448
2  96 19 0 4.71238898038469 7.85398163397448
0

0101000
+75 3 -74 3 *
Ve
1.5e-07
156.75 1258 1129
0 0

0101101
*
Ed
 1.5e-07 1 1 0
1  49 0 -139.5 -129.5
2  97 8 0 -139.5 -129.5
2  98 20 0 -139.5 -129.5
0

0101000
+75 3 -72 3 *
Ve
1.5e-07
163.25 1258 1129
0 0

0101101
*
Ed
 1.5e-07 1 1 0
1  50 0 -139.5 -129.5
2  99 8 0 -139.5 -129.5
2  100 21 0 -139.5 -129.5
0

0101000
+74 3 -70 3 *
Ed
 1e-07 1 1 0
1  51 0 1.5707963267949 4.71238898038469
2  101 8 0 1.5707963267949 4.71238898038469
2  102 22 0 1.5707963267949 4.71238898038469
0

0101000
+70 3 -72 3 *
Wi

0101100
-73 5 +71 5 -69 5 -68 5 *
Ve
1.5e-07
169 1258 1203
0 0

0101101
*
Ve
1.5e-07
175 1258 1203
0 0

0101101
*
Ed
 1e-07 1 1 0
1  52 0 4.71238898038469 7.85398163397448
2  103 8 5 4.71238898038469 7.85398163397448
2  104 23 0 4.71238898038469 7.85398163397448
0

0101000
+66 0 -65 0 *
Ve
1.5e-07
175 1258 1193
0 0

0101101
*
Ed
 1.5e-07 1 1 0
1  53 0 -171.5 -161.5
2  105 8 5 -171.5 -161.5
2  106 24 0 -171.5 -161.5
0

0101000
+65 0 -63 0 *
Ve
1.5e-07
169 1258 1193
0 0

0101101
*
Ed
 1e-07 1 1 0
1  54 0 1.5707963267949 4.71238898038469
2  107 8 5 1.5707963267949 4.71238898038469
2  108 25 0 1.5707963267949 4.71238898038469
0

0101000
+63 0 -61 0 *
Ed
 1.5e-07 1 1 0
1  55 0 -171.5 -161.5
2  109 8 5 -171.5 -161.5
2  110 26 0 -171.5 -161.5
0

0101000
+66 0 -61 0 *
Wi

0101100
-64 0 -62 0 -60 0 +59 0 *
Fa
0  1e-07 8 5

0101000
+94 0 +85 0 +76 0 +67 0 +58 0 *
Ed
 1e-07 1 1 0
1  56 0 0 18
2  111 9 0 0 18
2  112 10 0 0 18
0

0101000
-97 3 +165 3 *
Wi

0101100
-168 0 -96 0 +56 0 +161 0 *
Fa
0  1e-07 9 0

0111000
+55 0 *
Wi

0101100
-163 2 +156 0 -152 0 -147 0 -142 2 -100 2 +95 2 +56 2 *
Fa
0  1e-07 10 2

0111000
+53 0 *
Ed
 1e-07 1 1 0
1  57 0 1 19
2  113 14 0 1 19
2  114 11 0 1 19
0

0101000
+139 0 -93 0 *
Ed
 1e-07 1 1 0
1  58 0 1 19
2  115 12 0 1 19
2  116 11 0 1 19
0

0101000
+138 0 -92 0 *
Wi

0101100
+137 0 -51 0 -91 0 +50 0 *
Fa
0  1e-07 11 0

0101000
+49 0 *
Ed
 1e-07 1 1 0
1  59 0 1 19
2  117 13 0 1 19
2  118 12 0 1 19
0

0101000
+136 0 -90 0 *
Wi

0101100
+135 0 -50 0 -89 0 +47 0 *
Fa
0  1e-07 12 0

0101000
+46 0 *
Ed
 1e-07 1 1 0
1  60 0 1 19
2  119 14 0 1 19
2  120 13 0 1 19
0

0101000
+134 0 -88 0 *
Wi

0101100
-87 0 +44 0 +133 0 -47 0 *
Fa
0  1e-07 13 0

0101000
+43 0 *
Wi

0101100
+132 0 -51 0 -86 0 +44 0 *
Fa
0  1e-07 14 0

0101000
+41 0 *
Ed
 1e-07 1 1 0
1  61 0 1 19
2  121 15 0 1 19
2  122 17 0 1 19
0

0101000
+129 3 -83 3 *
Ed
 1e-07 1 1 0
1  62 0 1 19
2  123 15 0 1 19
2  124 16 0 1 19
0

0101000
+130 3 -84 3 *
Wi

0101100
-82 0 +39 0 +128 0 -38 0 *
Fa
0  1e-07 15 0

0111000
+37 0 *
Ed
 1e-07 1 1 0
1  63 0 1 19
2  125 16 0 1 19
2  126 18 0 1 19
0

0101000
+127 3 -81 3 *
Wi

0101100
+126 0 -38 0 -80 0 +35 0 *
Fa
0  1e-07 16 0

0111000
+34 0 *
Ed
 1e-07 1 1 0
1  64 0 1 19
2  127 17 0 1 19
2  128 18 0 1 19
0

0101000
+125 3 -79 3 *
Wi

0101100
+124 0 -39 0 -78 0 +32 0 *
Fa
0  1e-07 17 0

0111000
+31 0 *
Wi

0101100
-77 0 +35 0 +123 0 -32 0 *
Fa
0  1e-07 18 0

0111000
+29 0 *
Ed
 1e-07 1 1 0
1  65 0 1 19
2  129 19 0 1 19
2  130 21 0 1 19
0

0101000
+120 3 -74 3 *
Ed
 1e-07 1 1 0
1  66 0 1 19
2  131 19 0 1 19
2  132 20 0 1 19
0

0101000
+121 3 -75 3 *
Wi

0101100
-73 0 +27 0 +119 0 -26 0 *
Fa
0  1e-07 19 0

0111000
+25 0 *
Ed
 1e-07 1 1 0
1  67 0 1 19
2  133 20 0 1 19
2  134 22 0 1 19
0

0101000
+118 3 -72 3 *
Wi

0101100
+117 0 -26 0 -71 0 +23 0 *
Fa
0  1e-07 20 0

0111000
+22 0 *
Ed
 1e-07 1 1 0
1  68 0 1 19
2  135 21 0 1 19
2  136 22 0 1 19
0

0101000
+116 3 -70 3 *
Wi

0101100
+115 0 -27 0 -69 0 +20 0 *
Fa
0  1e-07 21 0

0111000
+19 0 *
Wi

0101100
-68 0 +23 0 +114 0 -20 0 *
Fa
0  1e-07 22 0

0111000
+17 0 *
Ed
 1e-07 1 1 0
1  69 0 1 19
2  137 26 0 1 19
2  138 27 0 1 19
2  139 23 0 1 19
0

0101000
+112 0 -66 0 *
Ed
 1e-07 1 1 0
1  70 0 1 19
2  140 24 0 1 19
2  141 27 0 1 19
2  142 23 0 1 19
0

0101000
+111 0 -65 0 *
Wi

0101100
+110 0 -15 0 -64 0 +14 0 *
Fa
0  1e-07 23 0

0101000
+13 0 *
Ed
 1e-07 1 1 0
1  71 0 1 19
2  143 24 0 1 19
2  144 28 0 1 19
2  145 25 0 1 19
0

0101000
+109 0 -63 0 *
Wi

0101100
+108 0 -14 0 -62 0 +11 0 *
Fa
0  1e-07 24 0

0101000
+10 0 *
Ed
 1e-07 1 1 0
1  72 0 1 19
2  146 26 0 1 19
2  147 28 0 1 19
2  148 25 0 1 19
0

0101000
+107 0 -61 0 *
Wi

0101100
-60 0 +8 0 +106 0 -11 0 *
Fa
0  1e-07 25 0

0101000
+7 0 *
Wi

0101100
+105 0 -15 0 -59 0 +8 0 *
Fa
0  1e-07 26 0

0101000
+5 0 *
Sh

0101100
-166 1 -159 1 +154 1 -149 1 -144 1 -103 0 +98 5 +57 0 -54 5 +52 1 
-48 0 -45 0 -42 0 +40 0 -36 5 +33 5 -30 5 -28 5 -24 5 +21 5 
-18 5 -16 5 -12 0 -9 0 -6 0 +4 0 *
So

0100000
+3 0 *
Co

1100000
+2 0 *

+1 0 