DBRep_DrawableShape

CASCADE Topology V1, (c) Matra-Datavision
Locations 4
1
              1               0               0               0 
              0               1               0               0 
              0               0               1               0 
1
              1               0               0               0 
              0               1               0              10 
              0               0               1               0 
2  1 -1 2 -1 0
2  1 -1 0
Curve2ds 96
1 0 0 1 0 
1 0 0 1 0 
8 -12 -6
1 47 6 0 1 
8 -12 -6
1 280 6 0 -1 
8 23.5 41.5
1 23.5 -6 1 0 
8 23.5 41.5
1 -23.5 280 1 0 
8 -12 -6
1 65 6 0 1 
8 -12 -6
1 280 6 0 -1 
1 0 0 1 0 
1 0 0 1 0 
1 366 0 0 -1 
1 0 0 0 1 
1 0 -18 1 0 
1 0 0 1 0 
1 0 0 0 -1 
1 0 0 0 1 
1 0 50 1 0 
1 0 0 1 0 
8 140 190
1 47 -140 0 1 
8 140 190
1 140 12 1 0 
1 0 0 0 1 
1 0 0 1 0 
1 0 18 1 0 
1 0 0 0 1 
1 330 0 0 1 
1 47 12 0 -1 
1 0 330 1 0 
1 47 -6 1 0 
1 18 0 0 1 
1 0 18 1 0 
1 330 0 0 1 
1 65 12 0 -1 
8 140 190
1 140 12 1 0 
8 140 190
1 65 -140 0 1 
1 0 50 1 0 
1 0 0 1 0 
1 366 0 0 1 
1 0 0 1 0 
2 129 25 1 0 -0 1 3.25
1 0 1 1 0 
8 -69.5 -59.5
1 59.5 21.75 -1 0 
8 -69.5 -59.5
1 -59.5 -1 -1 -0 
8 -69.5 -59.5
1 59.5 28.25 -1 0 
8 -69.5 -59.5
1 -59.5 -1 -1 -0 
2 119 25 1 0 -0 1 3.25
1 0 1 1 0 
2 269 25 1 0 -0 1 3.25
1 0 1 1 0 
8 -139.5 -129.5
1 129.5 21.75 -1 0 
8 -139.5 -129.5
1 -129.5 -1 -1 -0 
8 -139.5 -129.5
1 129.5 28.25 -1 0 
8 -139.5 -129.5
1 -129.5 -1 -1 -0 
2 259 25 1 0 -0 1 3.25
1 0 1 1 0 
1 0 18 1 0 
1 366 0 0 1 
1 50 0 0 1 
1 366 0 0 -1 
1 0 0 0 1 
1 0 18 1 0 
1 0 50 1 0 
1 0 -18 1 0 
2 129 25 1 0 -0 1 3.25
1 0 19 1 0 
8 -69.5 -59.5
1 59.5 21.75 -1 0 
8 -69.5 -59.5
1 -59.5 -19 -1 -0 
8 -69.5 -59.5
1 59.5 28.25 -1 0 
8 -69.5 -59.5
1 -59.5 -19 -1 -0 
2 119 25 1 0 -0 1 3.25
1 0 19 1 0 
2 269 25 1 0 -0 1 3.25
1 0 19 1 0 
8 -139.5 -129.5
1 129.5 28.25 -1 0 
8 -139.5 -129.5
1 -129.5 -19 -1 -0 
2 259 25 1 0 -0 1 3.25
1 0 19 1 0 
8 -139.5 -129.5
1 129.5 21.75 -1 0 
8 -139.5 -129.5
1 -129.5 -19 -1 -0 
1 50 0 0 1 
1 0 0 0 -1 
1 7.8539816339744828 0 0 1 
1 10 0 0 -1 
1 4.7123889803846897 0 0 1 
1 10 0 0 -1 
1 0 0 0 -1 
1 4.7123889803846897 0 0 1 
1 0 0 0 -1 
1 1.5707963267948966 0 0 1 
1 7.8539816339744828 0 0 1 
1 10 0 0 -1 
1 4.7123889803846897 0 0 1 
1 10 0 0 -1 
1 0 0 0 -1 
1 4.7123889803846897 0 0 1 
1 0 0 0 -1 
1 1.5707963267948966 0 0 1 
Curves 48
1 415 1230 870 0 0 1 
1 415 1234 917 0 -1 0 
1 415 1246 893.5 0 -0 1 
1 415 1234 935 0 -1 0 
1 415 1230 870 0 0 1 
1 415 1230 1236 -0 1 0 
1 415 1248 870 0 0 1 
1 415 1230 870 -0 1 0 
1 465 1230 870 0 0 1 
1 275 1240 917 1 0 0 
1 415 1230 870 1 0 -0 
1 135 1246 917 1 0 -0 
1 465 1228 917 -0 1 0 
1 465 1246 917 0 0 1 
1 135 1246 935 1 0 -0 
1 465 1228 935 -0 1 0 
1 275 1240 935 1 0 0 
1 465 1230 870 0 0 1 
1 415 1230 1236 1 0 -0 
2 440 1230 999 0 1 0 0 -0 1 1 0 -0 3.25
1 436.75 1230 929.5 -0 0 -1 
1 443.25 1230 929.5 -0 0 -1 
2 440 1230 989 0 1 0 0 -0 1 1 0 -0 3.25
2 440 1230 1139 0 1 0 0 -0 1 1 0 -0 3.25
1 436.75 1230 999.5 -0 0 -1 
1 443.25 1230 999.5 -0 0 -1 
2 440 1230 1129 0 1 0 0 -0 1 1 0 -0 3.25
1 415 1248 1236 1 0 -0 
1 465 1230 1236 -0 1 0 
1 415 1248 870 1 0 -0 
1 465 1248 870 0 0 1 
2 440 1248 999 0 1 0 0 -0 1 1 0 -0 3.25
1 436.75 1248 929.5 -0 0 -1 
1 443.25 1248 929.5 -0 0 -1 
2 440 1248 989 0 1 0 0 -0 1 1 0 -0 3.25
2 440 1248 1139 0 1 0 0 -0 1 1 0 -0 3.25
1 443.25 1248 999.5 -0 0 -1 
2 440 1248 1129 0 1 0 0 -0 1 1 0 -0 3.25
1 436.75 1248 999.5 -0 0 -1 
1 465 1230 870 -0 1 0 
1 443.25 1229 999 -0 1 0 
1 436.75 1229 999 -0 1 0 
1 436.75 1229 989 -0 1 0 
1 443.25 1229 989 -0 1 0 
1 443.25 1229 1139 -0 1 0 
1 436.75 1229 1139 -0 1 0 
1 436.75 1229 1129 -0 1 0 
1 443.25 1229 1129 -0 1 0 
Polygon3D 0
PolygonOnTriangulations 0
Surfaces 18
1 415 1230 870 1 0 -0 0 0 1 0 -1 0 
1 415 1230 870 -0 1 0 0 0 1 1 0 -0 
1 135 1228 917 0 0 1 1 0 -0 -0 1 0 
1 135 1246 917 -0 1 0 0 0 1 1 0 -0 
1 135 1228 935 0 0 1 1 0 -0 -0 1 0 
1 415 1230 870 -0 1 0 0 0 1 1 0 -0 
1 415 1230 1236 0 0 1 1 0 -0 -0 1 0 
1 415 1248 870 -0 1 0 0 0 1 1 0 -0 
1 415 1230 870 0 0 1 1 0 -0 -0 1 0 
1 465 1230 870 1 0 -0 0 0 1 0 -1 0 
2 440 1229 999 0 1 0 0 -0 1 1 0 -0 3.25
1 436.75 1229 989 1 0 -0 0 0 1 0 -1 0 
1 443.25 1229 989 1 0 -0 0 0 1 0 -1 0 
2 440 1229 989 0 1 0 0 -0 1 1 0 -0 3.25
2 440 1229 1139 0 1 0 0 -0 1 1 0 -0 3.25
1 436.75 1229 1129 1 0 -0 0 0 1 0 -1 0 
1 443.25 1229 1129 1 0 -0 0 0 1 0 -1 0 
2 440 1229 1129 0 1 0 0 -0 1 1 0 -0 3.25
Triangulations 0

TShapes 123
Ve
1e-07
415 1240 870
0 0

0101101
*
Ve
1.5e-07
415 1240 917
0 0

0101101
*
Ed
 1e-07 1 1 0
1  1 0 0 47
2  1 1 0 0 47
2  2 2 0 0 47
0

0101000
+123 3 -122 3 *
Ve
1.5e-07
415 1246 917
0 0

0101101
*
Ed
 1.5e-07 1 1 0
1  2 0 -12 -6
2  3 1 2 -12 -6
2  4 3 0 -12 -6
0

0101000
+120 4 -122 4 *
Ve
1.5e-07
415 1246 935
0 0

0101101
*
Ed
 1.5e-07 1 1 0
1  3 0 23.5 41.5
2  5 1 2 23.5 41.5
2  6 4 0 23.5 41.5
0

0101000
+120 4 -118 4 *
Ve
1.5e-07
415 1240 935
0 0

0101101
*
Ed
 1.5e-07 1 1 0
1  4 0 -12 -6
2  7 1 2 -12 -6
2  8 5 0 -12 -6
0

0101000
+118 4 -116 4 *
Ve
1e-07
415 1240 1236
0 0

0101101
*
Ed
 1e-07 1 1 0
1  5 0 65 366
2  9 1 0 65 366
2  10 6 0 65 366
0

0101000
+116 3 -114 3 *
Ve
1e-07
415 1258 1236
0 0

0101101
*
Ed
 1e-07 1 1 0
1  6 0 0 18
2  11 1 0 0 18
2  12 7 0 0 18
0

0101000
-112 3 +114 3 *
Ve
1e-07
415 1258 870
0 0

0101101
*
Ed
 1e-07 1 1 0
1  7 0 0 366
2  13 1 0 0 366
2  14 8 0 0 366
0

0101000
-112 3 +110 3 *
Ed
 1e-07 1 1 0
1  8 0 0 18
2  15 1 0 0 18
2  16 9 0 0 18
0

0101000
-110 3 +123 3 *
Wi

0101100
-121 2 +119 0 -117 0 -115 0 -113 2 -111 2 +109 2 +108 2 *
Fa
0  1e-07 1 2

0111000
+107 0 *
Ve
1e-07
465 1240 870
0 0

0101101
*
Ve
1.5e-07
465 1240 917
0 0

0101101
*
Ed
 1e-07 1 1 0
1  9 0 0 47
2  17 2 0 0 47
2  18 10 0 0 47
0

0101000
+105 3 -104 3 *
Ed
 1.5e-07 1 1 0
1  10 0 140 190
2  19 2 2 140 190
2  20 3 0 140 190
0

0101000
+122 4 -104 4 *
Ed
 1e-07 1 1 0
1  11 0 0 50
2  21 2 0 0 50
2  22 9 0 0 50
0

0101000
-105 3 +123 3 *
Wi

0101100
-103 2 +102 0 +121 2 -101 2 *
Fa
0  1e-07 2 2

0111000
+100 0 *
Ve
1e-07
465 1246 917
0 0

0101101
*
Ed
 1e-07 1 1 0
1  12 0 280 330
2  23 3 0 280 330
2  24 4 0 280 330
0

0101000
+120 4 -98 4 *
Ed
 1e-07 1 1 0
1  13 0 12 18
2  25 3 0 12 18
2  26 10 2 12 18
0

0101000
+104 4 -98 4 *
Wi

0101100
-97 0 +96 0 +102 0 +119 0 *
Fa
0  1e-07 3 0

0111000
+95 0 *
Ve
1e-07
465 1246 935
0 0

0101101
*
Ed
 1e-07 1 1 0
1  14 0 0 18
2  27 4 0 0 18
2  28 10 2 0 18
0

0101000
+98 4 -93 4 *
Ed
 1e-07 1 1 0
1  15 0 280 330
2  29 4 0 280 330
2  30 5 0 280 330
0

0101000
+118 4 -93 4 *
Wi

0101100
-97 0 -92 0 +91 0 +117 0 *
Fa
0  1e-07 4 0

0111000
+90 0 *
Ve
1.5e-07
465 1240 935
0 0

0101101
*
Ed
 1e-07 1 1 0
1  16 0 12 18
2  31 5 0 12 18
2  32 10 2 12 18
0

0101000
+88 4 -93 4 *
Ed
 1.5e-07 1 1 0
1  17 0 140 190
2  33 5 0 140 190
2  34 6 2 140 190
0

0101000
+116 4 -88 4 *
Wi

0101100
-91 0 +87 0 +86 0 +115 0 *
Fa
0  1e-07 5 0

0111000
+85 0 *
Ve
1e-07
465 1240 1236
0 0

0101101
*
Ed
 1e-07 1 1 0
1  18 0 65 366
2  35 6 0 65 366
2  36 10 0 65 366
0

0101000
+88 3 -83 3 *
Ed
 1e-07 1 1 0
1  19 0 0 50
2  37 6 0 0 50
2  38 7 0 0 50
0

0101000
-83 3 +114 3 *
Wi

0101100
-82 2 +81 2 +113 2 -86 0 *
Ve
1.5e-07
436.75 1240 999
0 0

0101101
*
Ve
1.5e-07
443.25 1240 999
0 0

0101101
*
Ed
 1e-07 1 1 0
1  20 0 4.71238898038469 7.85398163397448
2  39 6 0 4.71238898038469 7.85398163397448
2  40 11 0 4.71238898038469 7.85398163397448
0

0101000
+79 3 -78 3 *
Ve
1.5e-07
436.75 1240 989
0 0

0101101
*
Ed
 1.5e-07 1 1 0
1  21 0 -69.5 -59.5
2  41 6 0 -69.5 -59.5
2  42 12 0 -69.5 -59.5
0

0101000
+79 3 -76 3 *
Ve
1.5e-07
443.25 1240 989
0 0

0101101
*
Ed
 1.5e-07 1 1 0
1  22 0 -69.5 -59.5
2  43 6 0 -69.5 -59.5
2  44 13 0 -69.5 -59.5
0

0101000
+78 3 -74 3 *
Ed
 1e-07 1 1 0
1  23 0 1.5707963267949 4.71238898038469
2  45 6 0 1.5707963267949 4.71238898038469
2  46 14 0 1.5707963267949 4.71238898038469
0

0101000
+74 3 -76 3 *
Wi

0101100
-77 2 +75 2 -73 2 -72 2 *
Ve
1.5e-07
436.75 1240 1139
0 0

0101101
*
Ve
1.5e-07
443.25 1240 1139
0 0

0101101
*
Ed
 1e-07 1 1 0
1  24 0 4.71238898038469 7.85398163397448
2  47 6 0 4.71238898038469 7.85398163397448
2  48 15 0 4.71238898038469 7.85398163397448
0

0101000
+70 3 -69 3 *
Ve
1.5e-07
436.75 1240 1129
0 0

0101101
*
Ed
 1.5e-07 1 1 0
1  25 0 -139.5 -129.5
2  49 6 0 -139.5 -129.5
2  50 16 0 -139.5 -129.5
0

0101000
+70 3 -67 3 *
Ve
1.5e-07
443.25 1240 1129
0 0

0101101
*
Ed
 1.5e-07 1 1 0
1  26 0 -139.5 -129.5
2  51 6 0 -139.5 -129.5
2  52 17 0 -139.5 -129.5
0

0101000
+69 3 -65 3 *
Ed
 1e-07 1 1 0
1  27 0 1.5707963267949 4.71238898038469
2  53 6 0 1.5707963267949 4.71238898038469
2  54 18 0 1.5707963267949 4.71238898038469
0

0101000
+65 3 -67 3 *
Wi

0101100
-68 2 +66 2 -64 2 -63 2 *
Fa
0  1e-07 6 2

0111000
+80 0 +71 0 +62 0 *
Ve
1e-07
465 1258 1236
0 0

0101101
*
Ed
 1e-07 1 1 0
1  28 0 0 50
2  55 7 0 0 50
2  56 8 0 0 50
0

0101000
-60 3 +112 3 *
Ed
 1e-07 1 1 0
1  29 0 0 18
2  57 7 0 0 18
2  58 10 0 0 18
0

0101000
-60 3 +83 3 *
Wi

0101100
-111 0 -59 0 +58 0 +81 0 *
Fa
0  1e-07 7 0

0111000
+57 0 *
Ve
1e-07
465 1258 870
0 0

0101101
*
Ed
 1e-07 1 1 0
1  30 0 0 50
2  59 8 0 0 50
2  60 9 0 0 50
0

0101000
-55 3 +110 3 *
Ed
 1e-07 1 1 0
1  31 0 0 366
2  61 8 0 0 366
2  62 10 0 0 366
0

0101000
-60 3 +55 3 *
Wi

0101100
-54 0 -53 0 +109 0 +59 0 *
Ve
1.5e-07
436.75 1258 999
0 0

0101101
*
Ve
1.5e-07
443.25 1258 999
0 0

0101101
*
Ed
 1e-07 1 1 0
1  32 0 4.71238898038469 7.85398163397448
2  63 8 0 4.71238898038469 7.85398163397448
2  64 11 0 4.71238898038469 7.85398163397448
0

0101000
+51 3 -50 3 *
Ve
1.5e-07
436.75 1258 989
0 0

0101101
*
Ed
 1.5e-07 1 1 0
1  33 0 -69.5 -59.5
2  65 8 0 -69.5 -59.5
2  66 12 0 -69.5 -59.5
0

0101000
+51 3 -48 3 *
Ve
1.5e-07
443.25 1258 989
0 0

0101101
*
Ed
 1.5e-07 1 1 0
1  34 0 -69.5 -59.5
2  67 8 0 -69.5 -59.5
2  68 13 0 -69.5 -59.5
0

0101000
+50 3 -46 3 *
Ed
 1e-07 1 1 0
1  35 0 1.5707963267949 4.71238898038469
2  69 8 0 1.5707963267949 4.71238898038469
2  70 14 0 1.5707963267949 4.71238898038469
0

0101000
+46 3 -48 3 *
Wi

0101100
-49 0 +47 0 -45 0 -44 0 *
Ve
1.5e-07
436.75 1258 1139
0 0

0101101
*
Ve
1.5e-07
443.25 1258 1139
0 0

0101101
*
Ed
 1e-07 1 1 0
1  36 0 4.71238898038469 7.85398163397448
2  71 8 0 4.71238898038469 7.85398163397448
2  72 15 0 4.71238898038469 7.85398163397448
0

0101000
+42 3 -41 3 *
Ve
1.5e-07
443.25 1258 1129
0 0

0101101
*
Ed
 1.5e-07 1 1 0
1  37 0 -139.5 -129.5
2  73 8 0 -139.5 -129.5
2  74 17 0 -139.5 -129.5
0

0101000
+41 3 -39 3 *
Ve
1.5e-07
436.75 1258 1129
0 0

0101101
*
Ed
 1e-07 1 1 0
1  38 0 1.5707963267949 4.71238898038469
2  75 8 0 1.5707963267949 4.71238898038469
2  76 18 0 1.5707963267949 4.71238898038469
0

0101000
+39 3 -37 3 *
Ed
 1.5e-07 1 1 0
1  39 0 -139.5 -129.5
2  77 8 0 -139.5 -129.5
2  78 16 0 -139.5 -129.5
0

0101000
+42 3 -37 3 *
Wi

0101100
-40 0 -38 0 -36 0 +35 0 *
Fa
0  1e-07 8 0

0111000
+52 0 +43 0 +34 0 *
Ed
 1e-07 1 1 0
1  40 0 0 18
2  79 9 0 0 18
2  80 10 0 0 18
0

0101000
-55 3 +105 3 *
Wi

0101100
-108 0 -54 0 +32 0 +101 0 *
Fa
0  1e-07 9 0

0111000
+31 0 *
Wi

0101100
-103 2 -96 0 -92 0 +87 0 -82 2 -58 2 +53 2 +32 2 *
Fa
0  1e-07 10 2

0111000
+29 0 *
Ed
 1e-07 1 1 0
1  41 0 1 19
2  81 11 0 1 19
2  82 13 0 1 19
0

0101000
+78 3 -50 3 *
Ed
 1e-07 1 1 0
1  42 0 1 19
2  83 11 0 1 19
2  84 12 0 1 19
0

0101000
+79 3 -51 3 *
Wi

0101100
-49 0 +27 0 +77 0 -26 0 *
Fa
0  1e-07 11 0

0111000
+25 0 *
Ed
 1e-07 1 1 0
1  43 0 1 19
2  85 12 0 1 19
2  86 14 0 1 19
0

0101000
+76 3 -48 3 *
Wi

0101100
+75 0 -26 0 -47 0 +23 0 *
Fa
0  1e-07 12 0

0111000
+22 0 *
Ed
 1e-07 1 1 0
1  44 0 1 19
2  87 13 0 1 19
2  88 14 0 1 19
0

0101000
+74 3 -46 3 *
Wi

0101100
+73 0 -27 0 -45 0 +20 0 *
Fa
0  1e-07 13 0

0111000
+19 0 *
Wi

0101100
-44 0 +23 0 +72 0 -20 0 *
Fa
0  1e-07 14 0

0111000
+17 0 *
Ed
 1e-07 1 1 0
1  45 0 1 19
2  89 15 0 1 19
2  90 17 0 1 19
0

0101000
+69 3 -41 3 *
Ed
 1e-07 1 1 0
1  46 0 1 19
2  91 15 0 1 19
2  92 16 0 1 19
0

0101000
+70 3 -42 3 *
Wi

0101100
-40 0 +15 0 +68 0 -14 0 *
Fa
0  1e-07 15 0

0111000
+13 0 *
Ed
 1e-07 1 1 0
1  47 0 1 19
2  93 16 0 1 19
2  94 18 0 1 19
0

0101000
+67 3 -37 3 *
Wi

0101100
+66 0 -14 0 -35 0 +11 0 *
Fa
0  1e-07 16 0

0111000
+10 0 *
Ed
 1e-07 1 1 0
1  48 0 1 19
2  95 17 0 1 19
2  96 18 0 1 19
0

0101000
+65 3 -39 3 *
Wi

0101100
+64 0 -15 0 -38 0 +8 0 *
Fa
0  1e-07 17 0

0111000
+7 0 *
Wi

0101100
-36 0 +11 0 +63 0 -8 0 *
Fa
0  1e-07 18 0

0111000
+5 0 *
Sh

0101100
-106 0 -99 0 +94 0 -89 0 -84 0 -61 0 +56 2 +33 2 -30 2 +28 0 
-24 2 +21 2 -18 2 -16 2 -12 2 +9 2 -6 2 -4 2 *
So

0100000
+3 0 *
Co

1100000
+2 0 *

+1 1 