0
SECTION
2
HEADER
9
$INSUNITS
70
4
0
ENDSEC
0
SECTION
2
ENTITIES
0
LINE
8
FLOOR_THROUGH
10
18.0
20
1290.1
11
18.0
21
18.0
0
LINE
8
FLOOR_THROUGH
10
582.0
20
1290.1
11
18.0
21
1290.1
0
LINE
8
FLOOR_THROUGH
10
582.0
20
18.0
11
18.0
21
18.0
0
LINE
8
FLOOR_THROUGH
10
582.0
20
1290.1
11
582.0
21
18.0
0
CIRCLE
8
DRILL_THROUGH
10
220.0
20
180.0
40
2.75
0
CIRCLE
8
DRILL_THROUGH
10
220.0
20
340.0
40
2.75
0
CIRCLE
8
DRILL_THROUGH
10
227.01351693160834
20
409.76800884315793
40
2.75
0
CIRCLE
8
DRILL_THROUGH
10
269.76800884315793
20
367.01351693160836
40
2.75
0
CIRCLE
8
DRILL_THROUGH
10
92.5
20
622.5
40
2.25
0
ARC
8
FLOOR_THROUGH
10
103.0
20
633.0
40
3.0
50
180.0
51
270.0
0
LINE
8
FLOOR_THROUGH
10
100.0
20
633.0
11
100.0
21
787.0
0
LINE
8
FLOOR_THROUGH
10
197.0
20
630.0
11
103.0
21
630.0
0
ARC
8
FLOOR_THROUGH
10
103.0
20
787.0
40
3.0
50
90.0
51
180.0
0
ARC
8
FLOOR_THROUGH
10
197.0
20
633.0
40
3.0
50
270.0
51
0.0
0
LINE
8
FLOOR_THROUGH
10
197.0
20
790.0
11
103.0
21
790.0
0
LINE
8
FLOOR_THROUGH
10
200.0
20
633.0
11
200.0
21
787.0
0
ARC
8
FLOOR_THROUGH
10
197.0
20
787.0
40
3.0
50
0.0
51
90.0
0
CIRCLE
8
DRILL_THROUGH
10
227.01351693160836
20
470.2319911568421
40
2.75
0
CIRCLE
8
DRILL_THROUGH
10
269.76800884315793
20
512.9864830683916
40
2.75
0
CIRCLE
8
DRILL_THROUGH
10
207.5
20
622.5
40
2.25
0
CIRCLE
8
DRILL_THROUGH
10
380.0
20
180.0
40
2.75
0
CIRCLE
8
DRILL_THROUGH
10
330.2319911568421
20
367.01351693160836
40
2.75
0
CIRCLE
8
FLOOR_THROUGH
10
300.0
20
440.0
40
71.75
0
CIRCLE
8
DRILL_THROUGH
10
380.0
20
340.0
40
2.75
0
CIRCLE
8
DRILL_THROUGH
10
372.98648306839164
20
409.76800884315793
40
2.75
0
CIRCLE
8
DRILL_THROUGH
10
330.23199115684207
20
512.9864830683916
40
2.75
0
CIRCLE
8
DRILL_THROUGH
10
372.98648306839164
20
470.23199115684207
40
2.75
0
CIRCLE
8
DRILL_THROUGH
10
392.5
20
622.5
40
2.25
0
ARC
8
FLOOR_THROUGH
10
403.0
20
633.0
40
3.0
50
180.0
51
270.0
0
LINE
8
FLOOR_THROUGH
10
400.0
20
633.0
11
400.0
21
787.0
0
LINE
8
FLOOR_THROUGH
10
497.0
20
630.0
11
403.0
21
630.0
0
ARC
8
FLOOR_THROUGH
10
403.0
20
787.0
40
3.0
50
90.0
51
180.0
0
ARC
8
FLOOR_THROUGH
10
497.0
20
633.0
40
3.0
50
270.0
51
0.0
0
LINE
8
FLOOR_THROUGH
10
497.0
20
790.0
11
403.0
21
790.0
0
LINE
8
FLOOR_THROUGH
10
500.0
20
633.0
11
500.0
21
787.0
0
ARC
8
FLOOR_THROUGH
10
497.0
20
787.0
40
3.0
50
0.0
51
90.0
0
CIRCLE
8
DRILL_THROUGH
10
507.5
20
622.5
40
2.25
0
CIRCLE
8
DRILL_THROUGH
10
92.5
20
797.5
40
2.25
0
CIRCLE
8
DRILL_THROUGH
10
180.0
20
850.0
40
2.75
0
CIRCLE
8
DRILL_THROUGH
10
207.5
20
797.5
40
2.25
0
CIRCLE
8
DRILL_THROUGH
10
180.0
20
1270.0
40
2.75
0
CIRCLE
8
DRILL_THROUGH
10
392.5
20
797.5
40
2.25
0
CIRCLE
8
DRILL_THROUGH
10
420.0
20
850.0
40
2.75
0
CIRCLE
8
DRILL_THROUGH
10
507.5
20
797.5
40
2.25
0
CIRCLE
8
DRILL_THROUGH
10
420.0
20
1270.0
40
2.75
0
ENDSEC
0
EOF
