0
SECTION
2
HEADER
9
$INSUNITS
70
4
0
ENDSEC
0
SECTION
2
ENTITIES
0
LINE
8
COUPON_OUTLINE
10
0
20
0
11
200
21
0
0
LINE
8
COUPON_OUTLINE
10
200
20
0
11
200
21
120
0
LINE
8
COUPON_OUTLINE
10
200
20
120
11
0
21
120
0
LINE
8
COUPON_OUTLINE
10
0
20
120
11
0
21
0
0
LINE
8
THROUGH_BODY
10
44
20
36
11
66
21
36
0
LINE
8
THROUGH_BODY
10
69
20
39
11
69
21
81
0
LINE
8
THROUGH_BODY
10
66
20
84
11
44
21
84
0
LINE
8
THROUGH_BODY
10
41
20
81
11
41
21
39
0
ARC
8
THROUGH_BODY
10
66
20
39
40
3
50
270
51
360
0
ARC
8
THROUGH_BODY
10
66
20
81
40
3
50
0
51
90
0
ARC
8
THROUGH_BODY
10
44
20
81
40
3
50
90
51
180
0
ARC
8
THROUGH_BODY
10
44
20
39
40
3
50
180
51
270
0
CIRCLE
8
DRILL_THROUGH
10
35
20
60
40
2.25
0
CIRCLE
8
DRILL_THROUGH
10
75
20
60
40
2.25
0
CIRCLE
8
THROUGH_BODY
10
145
20
60
40
12.0
0
CIRCLE
8
DRILL_THROUGH
10
135.5
20
72
40
1.6
0
CIRCLE
8
DRILL_THROUGH
10
154.5
20
48
40
1.6
0
ENDSEC
0
EOF
