DBRep_DrawableShape

CASCADE Topology V1, (c) Matra-Datavision
Locations 0
Curve2ds 0
Curves 10
1 0 0 -4.4408920985006262e-16 0 1 0 
1 0 1019.9999999999998 -4.4408920985006262e-16 1 0 0 
1 499.99999999999989 0 -4.4408920985006262e-16 0 1 0 
1 228 87 -4.4408920985006262e-16 -1 0 0 
2 456 79 -4.4408920985006262e-16 0 0 -1 -1 0 0 0 1 0 8
1 448 -0.5 -4.4408920985006262e-16 0 -1 -0 
1 0 0 -4.4408920985006262e-16 1 0 0 
1 52 -0.5 -4.4408920985006262e-16 0 -1 -0 
2 44 79 -4.4408920985006262e-16 0 0 -1 1 0 0 0 -1 0 8
1 7 87 -4.4408920985006262e-16 1 0 0 
Polygon3D 0
PolygonOnTriangulations 0
Surfaces 0
Triangulations 0

TShapes 21
Ve
1e-07
0 87 -4.44089209850063e-16
0 0

0101101
*
Ve
1e-07
0 1020 -4.44089209850063e-16
0 0

0101101
*
Ed
 1e-07 1 1 0
1  1 0 87 1020
0

0101000
+21 0 -20 0 *
Ve
1e-07
500 1020 -4.44089209850063e-16
0 0

0101101
*
Ed
 1e-07 1 1 0
1  2 0 2.27373675443232e-13 500
0

0101000
+20 0 -18 0 *
Ve
1e-07
500 87 -4.44089209850063e-16
0 0

0101101
*
Ed
 1e-07 1 1 0
1  3 0 87 1020
0

0101000
+16 0 -18 0 *
Ve
1e-07
456 87 -4.44089209850063e-16
0 0

0101101
*
Ed
 1e-07 1 1 0
1  4 0 -272 -228
0

0101000
+16 0 -14 0 *
Ve
1e-07
448 79 -4.44089209850063e-16
0 0

0101101
*
Ed
 1e-07 1 1 0
1  5 0 6.28318530717959 7.85398163397448
0

0101000
+12 0 -14 0 *
Ve
1e-07
448 0 -4.44089209850063e-16
0 0

0101101
*
Ed
 1e-07 1 1 0
1  6 0 -79.5 -0.5
0

0101000
+12 0 -10 0 *
Ve
1e-07
52 0 -4.44089209850063e-16
0 0

0101101
*
Ed
 1e-07 1 1 0
1  7 0 52 448
0

0101000
+8 0 -10 0 *
Ve
1e-07
52 79 -4.44089209850063e-16
0 0

0101101
*
Ed
 1e-07 1 1 0
1  8 0 -79.5 -0.5
0

0101000
+6 0 -8 0 *
Ve
1e-07
44 87 -4.44089209850063e-16
0 0

0101101
*
Ed
 1e-07 1 1 0
1  9 0 4.71238898038469 6.28318530717959
0

0101000
+4 0 -6 0 *
Ed
 1e-07 1 1 0
1  10 0 -7 37
0

0101000
+21 0 -4 0 *
Wi

0101100
-19 0 -17 0 +15 0 -13 0 +11 0 -9 0 +7 0 +5 0 +3 0 +2 0 
*

+1 0 