DBRep_DrawableShape

CASCADE Topology V1, (c) Matra-Datavision
Locations 17
1
              1               0               0               0 
              0               1               0               0 
              0               0               1              -1 
1
              1               0               0               0 
              0 0.985089306859129 -0.172043766268355              45 
              0 0.172043766268355 0.985089306859129 341.729243052325 
1
              1               0               0               0 
              0               1               0               0 
              0               0               1               0 
1
              1               0               0               0 
              0               1               0               0 
              0               0               1               0 
1
              1               0               0               0 
              0               1               0               0 
              0               0               1               0 
1
              1               0               0               0 
              0 0.985089306859129 0.172043766268355               0 
              0 -0.172043766268355 0.985089306859129               0 
1
              1               0               0             -50 
              0               1               0 -123.121404827417 
              0               0               1 -314.891853689834 
1
              1               0               0               0 
              0               1               0               0 
              0               0               1             -18 
1
              1               0               0               0 
              0               1               0               0 
              0               0               1               1 
2  2 1 3 1 4 1 5 1 6 1 7 1 8 1 9 1 0
2  9 -1 8 -1 7 -1 6 -1 5 -1 4 -1 3 -1 2 -1 0
2  5 1 6 1 7 1 8 1 9 1 0
2  2 1 3 1 4 1 0
2  9 -1 8 -1 7 -1 6 -1 5 -1 0
2  1 -1 9 -1 8 -1 7 -1 6 -1 5 -1 0
1
              1               0               0               0 
              0               1               0               0 
              0               0               1              18 
2  16 -1 1 -1 9 -1 8 -1 7 -1 6 -1 5 -1 0
Curve2ds 14
1 0 0 0 1 
1 0 1020 1 0 
1 500 0 0 1 
1 228 87.000000000000014 -1 0 
2 456 79.000000000000028 -1 0 0 1 8.0000000000000018
1 0 0 1 0 
1 0 -18 1 0 
8 -79.500000000000014 -0.499999999999995
1 448 -0.49999999999999539 0 -1 
1 0 0 1 0 
8 -79.500000000000014 -0.499999999999995
1 52.000000000000007 -0.49999999999999539 -0 -1 
2 44.000000000000007 79.000000000000028 1 0 0 -1 8.0000000000000018
1 0 0 1 0 
1 0 -18 1 0 
1 7.0000000000000071 87.000000000000014 1 0 
Curves 10
1 50 20 4 -0 1 0 
1 50 1040 4 1 0 -0 
1 550 20 4 -0 1 0 
1 278 149.71638076885341 364.07828327047582 -1 0 0 
2 506 141.8356663139804 362.701933140329 0 0.17204376626835499 -0.98508930685912921 -1 0 -0 0 0.98508930685912921 0.17204376626835499 8.0000000000000018
1 498 63.521066418679602 349.0244537219948 0 -0.98508930685912921 -0.17204376626835502 
1 50 20 4 1 0 -0 
1 102 63.521066418679602 349.0244537219948 -0 -0.98508930685912921 -0.17204376626835502 
2 94 141.8356663139804 362.701933140329 0 0.17204376626835499 -0.98508930685912921 1 0 0 0 -0.98508930685912921 -0.17204376626835499 8.0000000000000018
1 57 149.71638076885341 364.07828327047582 1 0 0 
Polygon3D 0
PolygonOnTriangulations 0
Surfaces 3
1 50 20 4 0 0 1 1 0 -0 -0 1 0 
2 456 79.000000000000028 -5.6843418860808015e-14 0 -2.7755575615628914e-17 -1 -1 0 -0 0 1 -2.7755575615628914e-17 8.0000000000000018
2 44.000000000000007 79.000000000000028 -5.6843418860808015e-14 0 -2.7755575615628914e-17 -1 1 0 0 0 -1 2.7755575615628914e-17 8.0000000000000018
Triangulations 0

TShapes 21
Ve
1.50000064e-07
0 87 1
0 0

0101101
*
Ve
1.5000006355908e-07
0 1020 1.00000000000003
0 0

0101101
*
Ed
 1.5000006355908e-07 1 1 0
1  1 0 87 1020
2  1 1 0 87 1020
0

0101000
+21 11 -20 11 *
Ve
1.5000006355908e-07
500 1020 1.00000000000003
0 0

0101101
*
Ed
 1.5000006355908e-07 1 1 0
1  2 0 0 500
2  2 1 0 0 500
0

0101000
+20 11 -18 11 *
Ve
1.5000013e-07
500 87 1
0 0

0101101
*
Ed
 1.5000006355908e-07 1 1 0
1  3 0 87 1020
2  3 1 0 87 1020
0

0101000
+16 11 -18 11 *
Ve
1.5000006355908e-07
456 87 1
0 0

0101101
*
Ed
 1.5000006355908e-07 1 1 0
1  4 0 -272 -228
2  4 1 13 -272 -228
0

0101000
+16 14 -14 14 *
Ve
1.50000085421709e-07
448 79 1
0 0

0101101
*
Ed
 1.5000006355908e-07 1 1 0
1  5 0 0 1.5707963267949
2  5 1 13 0 1.5707963267949
2  6 2 15 0 1.5707963267949
2  7 2 17 0 1.5707963267949
0

0101000
+12 14 -14 14 *
Ve
1.5000006355908e-07
448 0 1
0 0

0101101
*
Ed
 1.5000006355908e-07 1 1 0
1  6 0 -79.5 -0.499999999999995
2  8 1 13 -79.5 -0.499999999999995
0

0101000
+12 14 -10 14 *
Ve
1.5000006355908e-07
52 0 1
0 0

0101101
*
Ed
 1.5000006355908e-07 1 1 0
1  7 0 52 448
2  9 1 0 52 448
0

0101000
+8 11 -10 11 *
Ve
1.50000085421709e-07
52 79 1
0 0

0101101
*
Ed
 1.5000006355908e-07 1 1 0
1  8 0 -79.5 -0.499999999999995
2  10 1 13 -79.5 -0.499999999999995
0

0101000
+6 14 -8 14 *
Ve
1.5000006355908e-07
44 87 1
0 0

0101101
*
Ed
 1.5000006355908e-07 1 1 0
1  9 0 4.71238898038469 6.28318530717959
2  11 1 13 4.71238898038469 6.28318530717959
2  12 3 15 4.71238898038469 6.28318530717959
2  13 3 17 4.71238898038469 6.28318530717959
0

0101000
+4 14 -6 14 *
Ed
 1.5000006355908e-07 1 1 0
1  10 0 -7.00000000000001 37
2  14 1 13 -7.00000000000001 37
0

0101000
+21 14 -4 14 *
Wi

0101100
-19 10 -17 10 +15 10 -13 12 +11 12 -9 12 +7 10 +5 12 +3 12 +2 12 
*

+1 1 