DBRep_DrawableShape

CASCADE Topology V1, (c) Matra-Datavision
Locations 19
1
              1               0               0               0 
              0 0.985089306859129 -0.172043766268355              45 
              0 0.172043766268355 0.985089306859129 341.729243052325 
1
              1               0               0               0 
              0               1               0               0 
              0               0               1               0 
1
              1               0               0               0 
              0               1               0               0 
              0               0               1               0 
1
              1               0               0               0 
              0               1               0               0 
              0               0               1               0 
1
              1               0               0               0 
              0 0.985089306859129 0.172043766268355               0 
              0 -0.172043766268355 0.985089306859129               0 
1
              1               0               0             -50 
              0               1               0 -123.121404827417 
              0               0               1 -314.891853689834 
1
              1               0               0               0 
              0               1               0               0 
              0               0               1             -18 
1
              1               0               0               0 
              0               1               0               0 
              0               0               1               1 
1
              1               0               0               0 
              0               1               0               0 
              0               0               1              -1 
2  1 1 2 1 3 1 4 1 5 1 6 1 7 1 8 1 9 1 0
2  2 1 3 1 4 1 5 1 6 1 0
1
              1               0               0               0 
              0 0.985089306859129 -0.172043766268355               0 
              0 0.172043766268355 0.985089306859129               0 
1
              1               0               0               0 
              0               1               0              45 
              0               0               1 341.729243052325 
2  12 1 13 1 0
2  6 -1 5 -1 4 -1 3 -1 2 -1 0
2  12 1 13 1 2 1 3 1 4 1 5 1 6 1 0
2  6 -1 5 -1 4 -1 3 -1 2 -1 13 -1 12 -1 0
1
              1               0               0               0 
              0               1               0               0 
              0               0               1              18 
2  1 1 2 1 3 1 4 1 5 1 6 1 7 1 8 1 9 1 18 1 0
Curve2ds 24
8 424.5 440.5
1 230 424.5 0 1 
8 424.5 440.5
1 1.0000000000000568 424.5 3.0000000000000001e-17 -1 
2 233 865 1 0 -0 1 3
1 0 0.99999999999995726 1 0 
8 424.5 440.5
1 236 424.5 0 1 
8 424.5 440.5
1 1.0000000000000568 424.5 3.0000000000000001e-17 -1 
2 233 848.99999999999989 1 0 -0 1 3
1 0 1.0000000000000886 1 0 
1 3.1415926535897931 0 0 1 
1 0 0 1 0 
8 424.5 440.5
1 230 424.5 0 1 
8 424.5 440.5
1 19.000000000000014 424.5 3.0000000000000001e-17 -1 
1 0 -16 1 0 
1 3.1415926535897931 0 0 1 
2 233 865 1 0 -0 1 3
1 0 18.999999999999922 1 0 
1 0 -16 1 0 
8 0 20
1 0 0 0 1 
8 0 20
1 6.2831853071795862 -0 0 1 
1 0 0 1 0 
8 424.5 440.5
1 236 424.5 0 1 
8 424.5 440.5
1 19.000000000000014 424.5 3.0000000000000001e-17 -1 
2 233 849 1 0 -0 1 3
1 0 19.000000000000032 1 0 
Curves 12
1 280 485.28080962663989 404.41144686258144 -0 0.98508930685912921 0.17204376626835502 
2 283 919.21264929808638 480.19672590379173 0 -0.17204376626835499 0.98508930685912921 1 0 0 -0 0.98508930685912921 0.17204376626835499 3
1 286 485.28080962663989 404.41144686258144 -0 0.98508930685912921 0.17204376626835502 
2 283 903.45122038834018 477.44402564349815 0 -0.17204376626835499 0.98508930685912921 1 0 0 -0 0.98508930685912921 0.17204376626835499 3
1 280 869 -15 0 0 1 
1 280 482.18402183380948 422.14305438604572 -0 0.98508930685912921 0.17204376626835502 
1 280 885 -15 0 0 1 
2 283 916.11586150525591 497.92833342725601 0 -0.17204376626835499 0.98508930685912921 1 0 0 -0 0.98508930685912921 0.17204376626835499 3
1 286 885 -15 0 0 1 
1 286 869 -15 0 0 1 
1 286 482.18402183380948 422.14305438604572 -0 0.98508930685912921 0.17204376626835502 
2 283 900.35443259550982 495.17563316696243 0 -0.17204376626835499 0.98508930685912921 1 0 0 -0 0.98508930685912921 0.17204376626835499 3
Polygon3D 0
PolygonOnTriangulations 0
Surfaces 7
1 50 20 4 0 0 1 1 0 -0 -0 1 0 
1 50 20 -14 0 0 1 1 0 -0 -0 1 0 
1 280 869 -15 1 0 -0 0 0 1 0 -1 0 
2 283 885 -15 0 0 1 1 0 -0 -0 1 0 3
1 286 869 -15 1 0 -0 0 0 1 0 -1 0 
2 283 869 -15 0 0 1 1 0 -0 -0 1 0 3
1 50 20 4 0 0 1 1 0 -0 -0 1 0 
Triangulations 0

TShapes 34
Ve
1.50000114e-07
230 849 5.6843418860808e-14
0 0

0101101
*
Ve
1.50000127e-07
230 865 0
0 0

0101101
*
Ed
 1.50000057287508e-07 1 1 0
1  1 0 424.5 440.5
2  1 2 1 424.5 440.5
2  2 3 14 424.5 440.5
0

0101000
+34 15 -33 15 *
Ve
1.50000127e-07
236 865 0
0 0

0101101
*
Ed
 1.50000056482596e-07 1 1 0
1  2 0 0 3.14159265358979
2  3 2 1 0 3.14159265358979
2  4 4 14 0 3.14159265358979
0

0101000
+31 15 -33 15 *
Ve
1.50000114e-07
236 849 5.6843418860808e-14
0 0

0101101
*
Ed
 1.50000057287508e-07 1 1 0
1  3 0 424.5 440.5
2  5 2 1 424.5 440.5
2  6 5 14 424.5 440.5
0

0101000
+29 15 -31 15 *
Ed
 1.50000057370775e-07 1 1 0
1  4 0 3.14159265358979 6.28318530717959
2  7 2 1 3.14159265358979 6.28318530717959
2  8 6 14 3.14159265358979 6.28318530717959
0

0101000
+34 15 -29 15 *
Wi

0101100
-32 11 +30 11 +28 11 +27 11 *
Fa
0  1.5e-07 1 10

0101000
+26 0 *
Ve
1.50000056843419e-07
230 849 18.0000000000001
0 0

0101101
*
Ed
 1e-07 1 1 0
1  5 0 1.00000000000009 19
2  9 6 0 1.00000000000009 19
2  10 3 0 1.00000000000009 19
0

0101000
+34 17 -24 17 *
Ve
1.50000056843419e-07
230 865 18.0000000000001
0 0

0101101
*
Ed
 1.5e-07 1 1 0
1  6 0 424.5 440.5
2  11 7 1 424.5 440.5
2  12 3 14 424.5 440.5
0

0101000
+24 15 -22 15 *
Ed
 1e-07 1 1 0
1  7 0 1.00000000000001 19
2  13 3 0 1.00000000000001 19
2  14 4 0 1.00000000000001 19
0

0101000
+33 17 -22 17 *
Wi

0101100
-23 16 -21 11 +20 16 +32 11 *
Fa
0  1e-07 3 16

0101000
+19 0 *
Ve
1.50000056843419e-07
236 865 18.0000000000001
0 0

0101101
*
Ed
 1.50000056843419e-07 1 1 0
1  8 0 0 3.14159265358979
2  15 7 1 0 3.14159265358979
2  16 4 14 0 3.14159265358979
0

0101000
+17 15 -22 15 *
Ed
 1e-07 1 1 0
1  9 0 1.00000000000001 19
2  17 5 0 1.00000000000001 19
2  18 4 0 1.00000000000001 19
0

0101000
+31 17 -17 17 *
Wi

0101100
-16 11 +20 16 +30 11 -15 16 *
Fa
0  1e-07 4 16

0101000
+14 0 *
Ve
1.50000056843419e-07
236 849 18.0000000000001
0 0

0101101
*
Ed
 1e-07 1 1 0
1  10 0 1.00000000000009 19
2  19 6 0 1.00000000000009 19
2  20 5 0 1.00000000000009 19
0

0101000
+29 17 -12 17 *
Ed
 1.5e-07 1 1 0
1  11 0 424.5 440.5
2  21 7 1 424.5 440.5
2  22 5 14 424.5 440.5
0

0101000
+12 15 -17 15 *
Wi

0101100
-11 16 -10 11 +15 16 +28 11 *
Fa
0  1e-07 5 16

0101000
+9 0 *
Ed
 1.50000056843419e-07 1 1 0
1  12 0 3.14159265358979 6.28318530717959
2  23 7 1 3.14159265358979 6.28318530717959
2  24 6 14 3.14159265358979 6.28318530717959
0

0101000
+24 15 -12 15 *
Wi

0101100
+27 11 -23 16 -7 11 +11 16 *
Fa
0  1e-07 6 16

0101000
+6 0 *
Wi

0101100
-21 11 +16 11 +10 11 +7 11 *
Fa
0  1.5e-07 1 19

0101000
+4 0 *
Sh

0101100
-25 0 -18 0 +13 0 +8 0 +5 0 +3 0 *
So

0100000
+2 0 *

+1 0 