DBRep_DrawableShape

CASCADE Topology V1, (c) Matra-Datavision
Locations 25
1
              1               0               0               0 
              0 0.985089306859129 -0.172043766268355              45 
              0 0.172043766268355 0.985089306859129 341.729243052325 
1
              1               0               0               0 
              0               1               0               0 
              0               0               1               0 
1
              1               0               0               0 
              0               1               0               0 
              0               0               1               0 
1
              1               0               0               0 
              0               1               0               0 
              0               0               1               0 
1
              1               0               0               0 
              0 0.985089306859129 0.172043766268355               0 
              0 -0.172043766268355 0.985089306859129               0 
1
              1               0               0             -50 
              0               1               0 -123.121404827417 
              0               0               1 -314.891853689834 
1
              1               0               0               0 
              0               1               0               0 
              0               0               1             -18 
1
              1               0               0               0 
              0               1               0               0 
              0               0               1               1 
1
              1               0               0               0 
              0               1               0               0 
              0               0               1              -1 
2  1 1 2 1 3 1 4 1 5 1 6 1 7 1 8 1 9 1 0
2  9 -1 8 -1 7 -1 6 -1 5 -1 4 -1 3 -1 2 -1 1 -1 0
1
              1               0               0               0 
              0               1               0               0 
              0               0               1              18 
2  1 1 2 1 3 1 4 1 5 1 6 1 7 1 8 1 9 1 12 1 0
2  12 -1 9 -1 8 -1 7 -1 6 -1 5 -1 4 -1 3 -1 2 -1 1 -1 0
2  4 1 5 1 6 1 7 1 8 1 9 1 0
2  9 -1 8 -1 7 -1 6 -1 5 -1 4 -1 0
2  1 1 2 1 3 1 0
2  4 1 5 1 6 1 7 1 8 1 9 1 12 1 0
2  12 -1 9 -1 8 -1 7 -1 6 -1 5 -1 4 -1 0
1
              1               0               0               0 
              0               1               0               0 
              0               0               1              18 
2  20 -1 0
1
              1               0               0               0 
              0               1               0               0 
              0               0               1              18 
2  22 -1 0
1
              1               0               0               0 
              0               1               0               0 
              0               0               1              18 
2  24 -1 0
Curve2ds 92
1 -1.4210854715202004e-14 -4.4408920985006262e-16 0 -1 
1 0 -5.6843418860808015e-14 0 -1 
1 932.99999999999989 -2.886579864025407e-14 0 -1 
1 0 -2.886579864025407e-14 0 -1 
1 -86.999999999999986 0 1 0 
1 0 0 0 1 
1 -86.999999999999986 -18 1 0 
1 0 0 0 1 
1 4.7123889803846897 0 0 -1 
1 44.000000000000007 -5.6843418860808015e-14 0 -1 
1 7.0000000000000071 0 1 0 
1 7.0000000000000071 87.000000000000014 1 0 
1 7.0000000000000071 -18 1 0 
1 7.0000000000000071 87.000000000000014 1 0 
1 499.99999999999989 -2.886579864025407e-14 0 -1 
1 932.99999999999989 -2.886579864025407e-14 0 -1 
1 0 0 1 0 
1 0 1020 1 0 
1 0 -18 1 0 
1 0 1020 1 0 
1 0 0 1 0 
2 44.000000000000007 79.000000000000028 1 0 0 -1 8.0000000000000018
1 -86.999999999999986 0 1 0 
1 500 0 0 1 
1 79.500000000000014 0 1 0 
8 -79.500000000000014 -0.499999999999995
1 52.000000000000007 -0.49999999999999539 -0 -1 
1 271.99999999999989 0 1 0 
1 228 87.000000000000014 -1 0 
1 -52.000000000000007 0 1 0 
1 0 0 1 0 
1 0 0 1 0 
2 456 79.000000000000028 -1 0 0 1 8.0000000000000018
1 79.500000000000014 0 1 0 
8 -79.500000000000014 -0.499999999999995
1 448 -0.49999999999999539 0 -1 
1 0 0 1 0 
1 0 -18 1 0 
1 0 0 1 0 
1 0 -18 1 0 
1 0 0 1 0 
1 0 -18 1 0 
1 0 0 1 0 
1 0 -18 1 0 
1 0 0 1 0 
1 0 -18 1 0 
1 0 0 1 0 
1 0 -18 1 0 
1 0 0 1 0 
1 0 -18 1 0 
1 0 0 1 0 
1 0 -18 1 0 
1 0 -18 1 0 
2 44.000000000000007 79.000000000000028 1 0 0 -1 8.0000000000000018
1 -86.999999999999986 -18 1 0 
1 500 0 0 1 
1 79.500000000000014 -18 1 0 
8 -79.500000000000014 -0.499999999999995
1 52.000000000000007 -0.49999999999999539 -0 -1 
1 271.99999999999989 -18 1 0 
1 228 87.000000000000014 -1 0 
1 -52.000000000000007 -18 1 0 
1 0 0 1 0 
1 0 -18 1 0 
2 456 79.000000000000028 -1 0 0 1 8.0000000000000018
1 79.500000000000014 -18 1 0 
8 -79.500000000000014 -0.499999999999995
1 448 -0.49999999999999539 0 -1 
1 0 0 0 -1 
1 6.2831853071795862 0 0 -1 
1 -1.4210854715202004e-14 -4.4408920985006262e-16 0 -1 
1 0 -5.6843418860808015e-14 0 -1 
1 0 -4.4408920985006262e-16 0 -1 
1 79.000000000000014 0 0 -1 
1 43.999999999999886 -5.6843418860808015e-14 0 -1 
1 1.570796326794897 0 0 -1 
1 79.000000000000014 0 0 -1 
1 396 -4.4408920985006262e-16 0 -1 
1 0 0 0 -1 
1 0 0 0 -1 
1 3.1415926535897931 0 0 -1 
1 4.7123889803846897 0 0 -1 
1 3.1415926535897931 0 0 -1 
1 4.7123889803846897 0 0 -1 
1 1.5707963267948966 0 0 -1 
1 6.2831853071795862 0 0 -1 
1 7.8539816339744828 0 0 -1 
1 6.2831853071795862 0 0 -1 
1 3.1415926535897931 0 0 -1 
1 6.2831853071795862 0 0 -1 
1 9.4247779607693793 0 0 -1 
1 6.2831853071795862 0 0 -1 
1 3.1415926535897931 0 0 -1 
1 6.2831853071795862 0 0 -1 
1 6.2831853071795862 0 0 -1 
1 9.4247779607693793 0 0 -1 
Curves 62
1 0 86.999999999999972 0 0 0 1 
1 0 1019.9999999999999 2.8421709430404007e-14 0 0 1 
1 50 20 4 -0 1 0 
1 50 20 4 -0 1 0 
1 44.000000000000007 87 0 0 0 1 
1 57 149.71638076885341 364.07828327047582 1 0 0 
1 57 149.71638076885341 364.07828327047582 1 0 0 
1 499.99999999999989 1019.9999999999999 2.8421709430404007e-14 0 0 1 
1 50 1040 4 1 0 -0 
1 50 1040 4 1 0 -0 
2 94 141.8356663139804 362.701933140329 0 0.17204376626835499 -0.98508930685912921 1 0 0 0 -0.98508930685912921 -0.17204376626835499 8.0000000000000018
1 550 20 4 -0 1 0 
1 102 63.521066418679602 349.0244537219948 -0 -0.98508930685912921 -0.17204376626835502 
1 278 149.71638076885341 364.07828327047582 -1 0 0 
1 50 20 4 1 0 -0 
2 506 141.8356663139804 362.701933140329 0 0.17204376626835499 -0.98508930685912921 -1 0 -0 0 0.98508930685912921 0.17204376626835499 8.0000000000000018
1 498 63.521066418679602 349.0244537219948 0 -0.98508930685912921 -0.17204376626835502 
2 168 718 -4.4408920985006262e-16 0 -0 1 1 0 0 -0 1 0 8
1 160 359 -4.4408920985006262e-16 0 1 0 
1 84 709.99999999999989 -4.4408920985006262e-16 -1 0 0 
2 168 811.99999999999989 -4.4408920985006262e-16 0 -0 1 1 0 0 -0 1 0 8
2 332 718 -4.4408920985006262e-16 0 -0 1 1 0 0 -0 1 0 8
1 84 819.99999999999977 -4.4408920985006262e-16 -1 0 0 
1 340 359 -4.4408920985006262e-16 0 1 0 
2 332 811.99999999999989 -4.4408920985006262e-16 0 -0 1 1 0 0 -0 1 0 8
2 233 848.99999999999989 -4.4408920985006262e-16 0 -0 1 1 0 0 -0 1 0 3
1 230 424.49999999999989 -4.4408920985006262e-16 0 1 0 
1 236 424.49999999999989 -4.4408920985006262e-16 0 1 0 
2 233 865.00000000000011 -4.4408920985006262e-16 0 -0 1 1 0 0 -0 1 0 3
2 267 848.99999999999989 -4.4408920985006262e-16 0 -0 1 1 0 0 -0 1 0 3
1 270 424.49999999999989 -4.4408920985006262e-16 0 1 0 
2 267 865.00000000000011 -4.4408920985006262e-16 0 -0 1 1 0 0 -0 1 0 3
1 264 424.49999999999989 -4.4408920985006262e-16 0 1 0 
2 94 141.8356663139804 362.701933140329 0 0.17204376626835499 -0.98508930685912921 1 0 0 0 -0.98508930685912921 -0.17204376626835499 8.0000000000000018
1 550 20 4 -0 1 0 
1 102 63.521066418679602 349.0244537219948 -0 -0.98508930685912921 -0.17204376626835502 
1 278 149.71638076885341 364.07828327047582 -1 0 0 
1 50 20 4 1 0 -0 
2 506 141.8356663139804 362.701933140329 0 0.17204376626835499 -0.98508930685912921 -1 0 -0 0 0.98508930685912921 0.17204376626835499 8.0000000000000018
1 498 63.521066418679602 349.0244537219948 0 -0.98508930685912921 -0.17204376626835502 
1 52.000000000000007 79.000000000000014 0 0 0 1 
1 499.99999999999989 86.999999999999972 0 0 0 1 
1 52.000000000000007 0 0 0 0 1 
1 456 87 0 0 0 1 
1 448 0 0 0 0 1 
1 448 79.000000000000014 0 0 0 1 
1 160 718 3.7895612573872008e-14 0 0 1 
1 168 710 -1.6135241291218943e-14 0 0 1 
1 160 811.99999999999989 3.7895612573872008e-14 0 0 1 
1 332 710 -1.6135241291218943e-14 0 0 1 
1 168 819.99999999999989 1.8947806286936004e-14 0 0 1 
1 340 718 3.7895612573872008e-14 0 0 1 
1 332 819.99999999999989 1.8947806286936004e-14 0 0 1 
1 340 811.99999999999989 3.7895612573872008e-14 0 0 1 
1 230 848.99999999999989 3.80436423104887e-14 0 0 1 
1 236 848.99999999999989 3.80436423104887e-14 0 0 1 
1 230 865 1.5543122344752192e-14 0 0 1 
1 236 865 1.5543122344752192e-14 0 0 1 
1 264 848.99999999999989 3.80436423104887e-14 0 0 1 
1 270 848.99999999999989 3.80436423104887e-14 0 0 1 
1 270 865 1.5543122344752192e-14 0 0 1 
1 264 865 1.5543122344752192e-14 0 0 1 
Polygon3D 0
PolygonOnTriangulations 0
Surfaces 28
1 0 86.999999999999986 -4.4408920985006262e-16 -1 0 0 0 1 0 0 0 -1 
1 0 87 -5.6843418860808015e-14 0 1 0 1 0 0 0 0 -1 
1 0 1019.9999999999998 -4.4408920985006262e-16 0 1 0 1 0 0 0 0 -1 
1 50 20 4 0 0 1 1 0 -0 -0 1 0 
1 50 20 4 0 0 1 1 0 -0 -0 1 0 
2 44.000000000000007 79.000000000000028 -5.6843418860808015e-14 0 -2.7755575615628914e-17 -1 1 0 0 0 -1 2.7755575615628914e-17 8.0000000000000018
1 499.99999999999989 86.999999999999986 -4.4408920985006262e-16 -1 0 0 0 1 0 0 0 -1 
1 52.000000000000007 79.000000000000014 0 1 -0 0 -0 -1 0 0 -0 -1 
1 499.99999999999989 87 -5.6843418860808015e-14 0 -1 0 -1 0 0 -0 -0 -1 
1 52.000000000000007 -3.5527136788005009e-15 -4.4408920985006262e-16 0 1 0 1 0 0 0 0 -1 
2 456 79.000000000000028 -5.6843418860808015e-14 0 -2.7755575615628914e-17 -1 -1 0 -0 0 1 -2.7755575615628914e-17 8.0000000000000018
1 448 79.000000000000014 0 1 0 -0 0 -1 0 0 -0 -1 
2 168 718 -4.4408920985006262e-16 -0 0 -1 1 0 0 -0 1 0 8
2 168 811.99999999999989 -4.4408920985006262e-16 -0 0 -1 1 0 0 -0 1 0 8
2 332 718 -4.4408920985006262e-16 -0 0 -1 1 0 0 -0 1 0 8
2 332 811.99999999999989 -4.4408920985006262e-16 -0 0 -1 1 0 0 -0 1 0 8
2 233 848.99999999999989 -4.4408920985006262e-16 -0 0 -1 1 0 0 -0 1 0 3
2 233 865.00000000000011 -4.4408920985006262e-16 -0 0 -1 1 0 0 -0 1 0 3
2 267 848.99999999999989 -4.4408920985006262e-16 -0 0 -1 1 0 0 -0 1 0 3
2 267 865.00000000000011 -4.4408920985006262e-16 -0 0 -1 1 0 0 -0 1 0 3
1 160 718 -4.4408920985006262e-16 -1 0 0 0 1 0 0 0 -1 
1 332 709.99999999999989 -4.4408920985006262e-16 0 -1 0 -1 0 0 -0 -0 -1 
1 332 819.99999999999977 -4.4408920985006262e-16 0 -1 0 -1 0 0 -0 -0 -1 
1 340 718 -4.4408920985006262e-16 -1 0 0 0 1 0 0 0 -1 
1 230 848.99999999999989 -4.4408920985006262e-16 -1 0 0 0 1 0 0 0 -1 
1 236 848.99999999999989 -4.4408920985006262e-16 -1 0 0 0 1 0 0 0 -1 
1 264 848.99999999999989 -4.4408920985006262e-16 -1 0 0 0 1 0 0 0 -1 
1 270 848.99999999999989 -4.4408920985006262e-16 -1 0 0 0 1 0 0 0 -1 
Triangulations 0

TShapes 197
Ve
1.50000064e-07
0 87 0
0 0

0101101
*
Ve
1.50000064e-07
0 87 18
0 0

0101101
*
Ed
 1.50000064e-07 1 1 0
1  1 0 0 18
2  1 1 0 0 18
2  2 2 0 0 18
0

0101000
+197 0 -196 0 *
Ve
1.50000028421709e-07
0 1020 2.8421709430404e-14
0 0

0101101
*
Ve
1.50000028421709e-07
0 1020 18
0 0

0101101
*
Ed
 1.50000028421709e-07 1 1 0
1  2 0 0 18
2  3 1 0 0 18
2  4 3 0 0 18
0

0101000
+194 0 -193 0 *
Ed
 1.50000002220446e-07 1 1 0
1  3 0 87 1020
2  5 1 11 87 1020
2  6 4 0 87 1020
0

0101000
+197 11 -194 11 *
Ed
 1.50000002220446e-07 1 1 0
1  4 0 87 1020
2  7 1 14 87 1020
2  8 5 0 87 1020
0

0101000
+196 14 -193 14 *
Wi

0101100
+195 0 -192 0 -191 10 +190 13 *
Fa
0  1.50000002220446e-07 1 0

0101000
+189 0 *
Ve
1.5000006355908e-07
44 87 0
0 0

0101101
*
Ve
1.5000006355908e-07
44 87 18
0 0

0101101
*
Ed
 1.5000006355908e-07 1 1 0
1  5 0 0 18
2  9 6 0 0 18
2  10 2 0 0 18
4 G1 6 0 2 0
0

0101000
+187 0 -186 0 *
Ed
 1.5000006355908e-07 1 1 0
1  6 0 -7.00000000000001 37
2  11 2 16 -7.00000000000001 37
2  12 4 17 -7.00000000000001 37
0

0101000
+197 16 -187 16 *
Ed
 1.5000006355908e-07 1 1 0
1  7 0 -7.00000000000001 37
2  13 2 19 -7.00000000000001 37
2  14 5 17 -7.00000000000001 37
0

0101000
+196 19 -186 19 *
Wi

0101100
+195 0 -185 0 -184 15 +183 18 *
Fa
0  1.5000006355908e-07 2 0

0101000
+182 0 *
Ve
1.50000028421709e-07
500 1020 2.8421709430404e-14
0 0

0101101
*
Ve
1.50000028421709e-07
500 1020 18
0 0

0101101
*
Ed
 1.50000028421709e-07 1 1 0
1  8 0 0 18
2  15 3 0 0 18
2  16 7 0 0 18
0

0101000
+180 0 -179 0 *
Ed
 1.50000002220446e-07 1 1 0
1  9 0 0 500
2  17 3 11 0 500
2  18 4 0 0 500
0

0101000
+194 11 -180 11 *
Ed
 1.50000002220446e-07 1 1 0
1  10 0 0 500
2  19 3 14 0 500
2  20 5 0 0 500
0

0101000
+193 14 -179 14 *
Wi

0101100
+192 0 -178 0 -177 10 +176 13 *
Fa
0  1.50000002220446e-07 3 0

0101000
+175 0 *
Ve
1.50000085421709e-07
52 79 0
0 0

0101101
*
Ed
 1.50000057285787e-07 1 1 0
1  11 0 4.71238898038469 6.28318530717959
2  21 6 16 4.71238898038469 6.28318530717959
2  22 4 17 4.71238898038469 6.28318530717959
0

0101000
+187 16 -173 16 *
Ve
1.5000013e-07
500 87 0
0 0

0101101
*
Ed
 1.50000002220446e-07 1 1 0
1  12 0 87 1020
2  23 7 11 87 1020
2  24 4 0 87 1020
0

0101000
+171 11 -180 11 *
Ve
1.50000057e-07
52 0 0
0 0

0101101
*
Ed
 1.5e-07 1 1 0
1  13 0 -79.5 -0.499999999999995
2  25 8 16 -79.5 -0.499999999999995
2  26 4 17 -79.5 -0.499999999999995
0

0101000
+173 16 -169 16 *
Ve
1.50000063552874e-07
456 87 0
0 0

0101101
*
Ed
 1.50000063552874e-07 1 1 0
1  14 0 -272 -228
2  27 9 16 -272 -228
2  28 4 17 -272 -228
0

0101000
+171 16 -167 16 *
Ve
1.50000057e-07
448 0 0
0 0

0101101
*
Ed
 1.50000002220446e-07 1 1 0
1  15 0 52 448
2  29 10 11 52 448
2  30 4 0 52 448
0

0101000
+169 11 -165 11 *
Ve
1.50000085421709e-07
448 79 0
0 0

0101101
*
Ed
 1.50000058592855e-07 1 1 0
1  16 0 0 1.5707963267949
2  31 11 16 0 1.5707963267949
2  32 4 17 0 1.5707963267949
0

0101000
+163 16 -167 16 *
Ed
 1.5e-07 1 1 0
1  17 0 -79.5 -0.499999999999995
2  33 12 16 -79.5 -0.499999999999995
2  34 4 17 -79.5 -0.499999999999995
0

0101000
+163 16 -165 16 *
Wi

0101100
-191 10 +184 15 -177 10 +172 15 +170 10 +168 15 -166 15 +164 10 +162 15 -161 15 
*
Ve
1.50000253834329e-07
160 718 3.7895612573872e-14
0 0

0101101
*
Ve
1.50000242510055e-07
168 710 -1.61352412912189e-14
0 0

0101101
*
Ed
 1.50000234664479e-07 1 1 0
1  18 0 3.14159265358979 4.71238898038469
2  35 13 0 3.14159265358979 4.71238898038469
2  36 13 21 3.14159265358979 4.71238898038469
0

0101000
+159 0 -158 0 *
Ve
1.50000253599019e-07
160 812 3.7895612573872e-14
0 0

0101101
*
Ed
 1.50000227817765e-07 1 1 0
1  19 0 359 453
0

0101000
+159 0 -156 0 *
Ve
1.50000235883486e-07
332 710 -1.61352412912189e-14
0 0

0101101
*
Ed
 1.50000227817765e-07 1 1 0
1  20 0 -248 -84
0

0101000
+154 0 -158 0 *
Ve
1.50000244125116e-07
168 820 1.8947806286936e-14
0 0

0101101
*
Ed
 1.50000234429168e-07 1 1 0
1  21 0 1.5707963267949 3.14159265358979
2  37 14 0 1.5707963267949 3.14159265358979
2  38 14 21 1.5707963267949 3.14159265358979
0

0101000
+152 0 -156 0 *
Ve
1.50000247207761e-07
340 718 3.7895612573872e-14
0 0

0101101
*
Ed
 1.5000022803791e-07 1 1 0
1  22 0 4.71238898038469 6.28318530717959
2  39 15 0 4.71238898038469 6.28318530717959
2  40 15 21 4.71238898038469 6.28318530717959
0

0101000
+154 0 -150 0 *
Ve
1.50000260908997e-07
332 820 1.8947806286936e-14
0 0

0101101
*
Ed
 1.50000227817765e-07 1 1 0
1  23 0 -248 -84
0

0101000
+148 0 -152 0 *
Ve
1.500002703829e-07
340 812 3.7895612573872e-14
0 0

0101101
*
Ed
 1.50000227817765e-07 1 1 0
1  24 0 359 453
0

0101000
+150 0 -146 0 *
Ed
 1.50000251213049e-07 1 1 0
1  25 0 6.28318530717959 7.85398163397448
2  41 16 0 6.28318530717959 7.85398163397448
2  42 16 21 6.28318530717959 7.85398163397448
0

0101000
+146 0 -148 0 *
Wi

0101100
-157 0 +155 0 +153 0 -151 0 -149 0 -147 0 -145 0 -144 0 *
Ve
1.50000374473699e-07
230 849 3.80436423104887e-14
0 0

0101101
*
Ve
1.50000374473699e-07
236 849 3.80436423104887e-14
0 0

0101101
*
Ed
 1.50000355229833e-07 1 1 0
1  26 0 3.14159265358979 6.28318530717959
2  43 17 0 3.14159265358979 6.28318530717959
2  44 17 23 3.14159265358979 6.28318530717959
0

0101000
+142 0 -141 0 *
Ve
1.50000362428831e-07
230 865 1.55431223447522e-14
0 0

0101101
*
Ed
 1.50000348502347e-07 1 1 0
1  27 0 424.5 440.5
0

0101000
+142 0 -139 0 *
Ve
1.50000362428831e-07
236 865 1.55431223447522e-14
0 0

0101101
*
Ed
 1.50000348502347e-07 1 1 0
1  28 0 424.5 440.5
0

0101000
+141 0 -137 0 *
Ed
 1.50000354435225e-07 1 1 0
1  29 0 6.28318530717959 9.42477796076938
2  45 18 0 6.28318530717959 9.42477796076938
2  46 18 23 6.28318530717959 9.42477796076938
0

0101000
+137 0 -139 0 *
Wi

0101100
-140 0 +138 0 -136 0 -135 0 *
Ve
1.50000391177367e-07
264 849 3.80436423104887e-14
0 0

0101101
*
Ve
1.50000391177367e-07
270 849 3.80436423104887e-14
0 0

0101101
*
Ed
 1.50000371933502e-07 1 1 0
1  30 0 3.14159265358979 6.28318530717959
2  47 19 0 3.14159265358979 6.28318530717959
2  48 19 25 3.14159265358979 6.28318530717959
0

0101000
+133 0 -132 0 *
Ve
1.50000379298956e-07
270 865 1.55431223447522e-14
0 0

0101101
*
Ed
 1.50000348502347e-07 1 1 0
1  31 0 424.5 440.5
0

0101000
+132 0 -130 0 *
Ve
1.50000379298956e-07
264 865 1.55431223447522e-14
0 0

0101101
*
Ed
 1.5000037130535e-07 1 1 0
1  32 0 6.28318530717959 9.42477796076938
2  49 20 0 6.28318530717959 9.42477796076938
2  50 20 25 6.28318530717959 9.42477796076938
0

0101000
+130 0 -128 0 *
Ed
 1.50000348502347e-07 1 1 0
1  33 0 424.5 440.5
0

0101000
+133 0 -128 0 *
Wi

0101100
-131 0 -129 0 -127 0 +126 0 *
Fa
0  1.5e-07 4 10

0101000
+160 0 +143 0 +134 0 +125 0 *
Ve
1.50000085421709e-07
52 79 18
0 0

0101101
*
Ed
 1.50000057285787e-07 1 1 0
1  34 0 4.71238898038469 6.28318530717959
2  51 6 19 4.71238898038469 6.28318530717959
2  52 5 17 4.71238898038469 6.28318530717959
0

0101000
+186 19 -123 19 *
Ve
1.5000013e-07
500 87 18
0 0

0101101
*
Ed
 1.50000002220446e-07 1 1 0
1  35 0 87 1020
2  53 7 14 87 1020
2  54 5 0 87 1020
0

0101000
+121 14 -179 14 *
Ve
1.50000057e-07
52 0 18
0 0

0101101
*
Ed
 1.5e-07 1 1 0
1  36 0 -79.5 -0.499999999999995
2  55 8 19 -79.5 -0.499999999999995
2  56 5 17 -79.5 -0.499999999999995
0

0101000
+123 19 -119 19 *
Ve
1.50000063552874e-07
456 87 18
0 0

0101101
*
Ed
 1.50000063552874e-07 1 1 0
1  37 0 -272 -228
2  57 9 19 -272 -228
2  58 5 17 -272 -228
0

0101000
+121 19 -117 19 *
Ve
1.50000057e-07
448 0 18
0 0

0101101
*
Ed
 1.50000002220446e-07 1 1 0
1  38 0 52 448
2  59 10 14 52 448
2  60 5 0 52 448
0

0101000
+119 14 -115 14 *
Ve
1.50000085421709e-07
448 79 18
0 0

0101101
*
Ed
 1.50000058592855e-07 1 1 0
1  39 0 0 1.5707963267949
2  61 11 19 0 1.5707963267949
2  62 5 17 0 1.5707963267949
0

0101000
+113 19 -117 19 *
Ed
 1.5e-07 1 1 0
1  40 0 -79.5 -0.499999999999995
2  63 12 19 -79.5 -0.499999999999995
2  64 5 17 -79.5 -0.499999999999995
0

0101000
+113 19 -115 19 *
Wi

0101100
-190 13 +183 18 -176 13 +122 18 +120 13 +118 18 -116 18 +114 13 +112 18 -111 18 
*
Ve
1.50000253834329e-07
160 718 18
0 0

0101101
*
Ve
1.50000242510055e-07
168 710 18
0 0

0101101
*
Ed
 1.50000234664479e-07 1 1 0
1  18 0 3.14159265358979 4.71238898038469
2  35 13 0 3.14159265358979 4.71238898038469
2  36 13 21 3.14159265358979 4.71238898038469
0

0101000
+109 21 -108 21 *
Ve
1.50000253599019e-07
160 812 18
0 0

0101101
*
Ed
 1.50000227817765e-07 1 1 0
1  19 0 359 453
0

0101000
+109 21 -106 21 *
Ve
1.50000235883486e-07
332 710 18
0 0

0101101
*
Ed
 1.50000227817765e-07 1 1 0
1  20 0 -248 -84
0

0101000
+104 21 -108 21 *
Ve
1.50000244125116e-07
168 820 18
0 0

0101101
*
Ed
 1.50000234429168e-07 1 1 0
1  21 0 1.5707963267949 3.14159265358979
2  37 14 0 1.5707963267949 3.14159265358979
2  38 14 21 1.5707963267949 3.14159265358979
0

0101000
+102 21 -106 21 *
Ve
1.50000247207761e-07
340 718 18
0 0

0101101
*
Ed
 1.5000022803791e-07 1 1 0
1  22 0 4.71238898038469 6.28318530717959
2  39 15 0 4.71238898038469 6.28318530717959
2  40 15 21 4.71238898038469 6.28318530717959
0

0101000
+104 21 -100 21 *
Ve
1.50000260908997e-07
332 820 18
0 0

0101101
*
Ed
 1.50000227817765e-07 1 1 0
1  23 0 -248 -84
0

0101000
+98 21 -102 21 *
Ve
1.500002703829e-07
340 812 18
0 0

0101101
*
Ed
 1.50000227817765e-07 1 1 0
1  24 0 359 453
0

0101000
+100 21 -96 21 *
Ed
 1.50000251213049e-07 1 1 0
1  25 0 6.28318530717959 7.85398163397448
2  41 16 0 6.28318530717959 7.85398163397448
2  42 16 21 6.28318530717959 7.85398163397448
0

0101000
+96 21 -98 21 *
Wi

0101100
-107 20 +105 20 +103 20 -101 20 -99 20 -97 20 -95 20 -94 20 *
Ve
1.50000374473699e-07
230 849 18
0 0

0101101
*
Ve
1.50000374473699e-07
236 849 18
0 0

0101101
*
Ed
 1.50000355229833e-07 1 1 0
1  26 0 3.14159265358979 6.28318530717959
2  43 17 0 3.14159265358979 6.28318530717959
2  44 17 23 3.14159265358979 6.28318530717959
0

0101000
+92 23 -91 23 *
Ve
1.50000362428831e-07
230 865 18
0 0

0101101
*
Ed
 1.50000348502347e-07 1 1 0
1  27 0 424.5 440.5
0

0101000
+92 23 -89 23 *
Ve
1.50000362428831e-07
236 865 18
0 0

0101101
*
Ed
 1.50000348502347e-07 1 1 0
1  28 0 424.5 440.5
0

0101000
+91 23 -87 23 *
Ed
 1.50000354435225e-07 1 1 0
1  29 0 6.28318530717959 9.42477796076938
2  45 18 0 6.28318530717959 9.42477796076938
2  46 18 23 6.28318530717959 9.42477796076938
0

0101000
+87 23 -89 23 *
Wi

0101100
-90 22 +88 22 -86 22 -85 22 *
Ve
1.50000391177367e-07
264 849 18
0 0

0101101
*
Ve
1.50000391177367e-07
270 849 18
0 0

0101101
*
Ed
 1.50000371933502e-07 1 1 0
1  30 0 3.14159265358979 6.28318530717959
2  47 19 0 3.14159265358979 6.28318530717959
2  48 19 25 3.14159265358979 6.28318530717959
0

0101000
+83 25 -82 25 *
Ve
1.50000379298956e-07
270 865 18
0 0

0101101
*
Ed
 1.50000348502347e-07 1 1 0
1  31 0 424.5 440.5
0

0101000
+82 25 -80 25 *
Ve
1.50000379298956e-07
264 865 18
0 0

0101101
*
Ed
 1.5000037130535e-07 1 1 0
1  32 0 6.28318530717959 9.42477796076938
2  49 20 0 6.28318530717959 9.42477796076938
2  50 20 25 6.28318530717959 9.42477796076938
0

0101000
+80 25 -78 25 *
Ed
 1.50000348502347e-07 1 1 0
1  33 0 424.5 440.5
0

0101000
+83 25 -78 25 *
Wi

0101100
-81 24 -79 24 -77 24 +76 24 *
Fa
0  1.5e-07 5 13

0101000
+110 0 +93 0 +84 0 +75 0 *
Ed
 1.50000085421709e-07 1 1 0
1  41 0 0 18
2  65 8 0 0 18
2  66 6 0 0 18
4 G1 8 0 6 0
0

0101000
+173 0 -123 0 *
Wi

0101100
+185 0 -73 0 -172 15 +122 18 *
Fa
0  1.50000057285787e-07 6 0

0101000
+72 0 *
Ed
 1.5000013e-07 1 1 0
1  42 0 0 18
2  67 7 0 0 18
2  68 9 0 0 18
0

0101000
+171 0 -121 0 *
Wi

0101100
+70 0 -178 0 -170 10 +120 13 *
Fa
0  1.50000002220446e-07 7 0

0101000
+69 0 *
Ed
 1.50000057e-07 1 1 0
1  43 0 0 18
2  69 10 0 0 18
2  70 8 0 0 18
0

0101000
+169 0 -119 0 *
Wi

0101100
+73 0 -67 0 -168 15 +118 18 *
Fa
0  1.5e-07 8 0

0101000
+66 0 *
Ed
 1.50000063552874e-07 1 1 0
1  44 0 0 18
2  71 9 0 0 18
2  72 11 0 0 18
4 G1 9 0 11 0
0

0101000
+167 0 -117 0 *
Wi

0101100
+70 0 -64 0 -166 15 +116 18 *
Fa
0  1.50000063552874e-07 9 0

0101000
+63 0 *
Ed
 1.50000057e-07 1 1 0
1  45 0 0 18
2  73 12 0 0 18
2  74 10 0 0 18
0

0101000
+165 0 -115 0 *
Wi

0101100
+67 0 -61 0 -164 10 +114 13 *
Fa
0  1.50000002220446e-07 10 0

0101000
+60 0 *
Ed
 1.50000085421709e-07 1 1 0
1  46 0 0 18
2  75 11 0 0 18
2  76 12 0 0 18
4 G1 11 0 12 0
0

0101000
+163 0 -113 0 *
Wi

0101100
+58 0 -64 0 -162 15 +112 18 *
Fa
0  1.50000058592855e-07 11 0

0101000
+57 0 *
Wi

0101100
+58 0 -61 0 -161 15 +111 18 *
Fa
0  1.5e-07 12 0

0101000
+55 0 *
Ed
 1.50000253834329e-07 1 1 0
1  47 0 0 18
2  77 13 0 0 18
4 G1 21 0 13 0
0

0101000
+159 0 -109 0 *
Ed
 1.50000242510055e-07 1 1 0
1  48 0 0 18
2  78 13 0 0 18
4 G1 22 0 13 0
0

0101000
+158 0 -108 0 *
Wi

0101100
+53 0 -52 0 -157 0 +107 20 *
Fa
0  1.50000234664479e-07 13 0

0101000
+51 0 *
Ed
 1.50000253599019e-07 1 1 0
1  49 0 0 18
2  79 14 0 0 18
4 G1 21 0 14 0
0

0101000
+156 0 -106 0 *
Wi

0101100
+53 0 -49 0 -155 0 +105 20 *
Fa
0  1.50000227817765e-07 21 0

0101000
+48 0 *
Ed
 1.50000235883486e-07 1 1 0
1  50 0 0 18
2  80 15 0 0 18
4 G1 15 0 22 0
0

0101000
+154 0 -104 0 *
Wi

0101100
+46 0 -52 0 -153 0 +103 20 *
Fa
0  1.50000227817765e-07 22 0

0101000
+45 0 *
Ed
 1.50000244125116e-07 1 1 0
1  51 0 0 18
2  81 14 0 0 18
4 G1 14 0 23 0
0

0101000
+152 0 -102 0 *
Wi

0101100
+43 0 -49 0 -151 0 +101 20 *
Fa
0  1.50000234429168e-07 14 0

0101000
+42 0 *
Ed
 1.50000247207761e-07 1 1 0
1  52 0 0 18
2  82 15 0 0 18
4 G1 24 0 15 0
0

0101000
+150 0 -100 0 *
Wi

0101100
+46 0 -40 0 -149 0 +99 20 *
Fa
0  1.5000022803791e-07 15 0

0101000
+39 0 *
Ed
 1.50000260908997e-07 1 1 0
1  53 0 0 18
2  83 16 0 0 18
4 G1 23 0 16 0
0

0101000
+148 0 -98 0 *
Wi

0101100
+37 0 -43 0 -147 0 +97 20 *
Fa
0  1.50000227817765e-07 23 0

0101000
+36 0 *
Ed
 1.500002703829e-07 1 1 0
1  54 0 0 18
2  84 16 0 0 18
4 G1 16 0 24 0
0

0101000
+146 0 -96 0 *
Wi

0101100
+40 0 -34 0 -145 0 +95 20 *
Fa
0  1.50000227817765e-07 24 0

0101000
+33 0 *
Wi

0101100
+34 0 -37 0 -144 0 +94 20 *
Fa
0  1.50000251213049e-07 16 0

0101000
+31 0 *
Ed
 1.50000374473699e-07 1 1 0
1  55 0 0 18
2  85 17 0 0 18
4 G1 25 0 17 0
0

0101000
+142 0 -92 0 *
Ed
 1.50000374473699e-07 1 1 0
1  56 0 0 18
2  86 17 0 0 18
4 G1 26 0 17 0
0

0101000
+141 0 -91 0 *
Wi

0101100
+29 0 -28 0 -140 0 +90 22 *
Fa
0  1.50000355229833e-07 17 0

0101000
+27 0 *
Ed
 1.50000362428831e-07 1 1 0
1  57 0 0 18
2  87 18 0 0 18
4 G1 25 0 18 0
0

0101000
+139 0 -89 0 *
Wi

0101100
+29 0 -25 0 -138 0 +88 22 *
Fa
0  1.50000348502347e-07 25 0

0101000
+24 0 *
Ed
 1.50000362428831e-07 1 1 0
1  58 0 0 18
2  88 18 0 0 18
4 G1 18 0 26 0
0

0101000
+137 0 -87 0 *
Wi

0101100
+28 0 -22 0 -136 0 +86 22 *
Fa
0  1.50000348502347e-07 26 0

0101000
+21 0 *
Wi

0101100
+22 0 -25 0 -135 0 +85 22 *
Fa
0  1.50000354435225e-07 18 0

0101000
+19 0 *
Ed
 1.50000391177367e-07 1 1 0
1  59 0 0 18
2  89 19 0 0 18
4 G1 27 0 19 0
0

0101000
+133 0 -83 0 *
Ed
 1.50000391177367e-07 1 1 0
1  60 0 0 18
2  90 19 0 0 18
4 G1 28 0 19 0
0

0101000
+132 0 -82 0 *
Wi

0101100
+17 0 -16 0 -131 0 +81 24 *
Fa
0  1.50000371933502e-07 19 0

0101000
+15 0 *
Ed
 1.50000379298956e-07 1 1 0
1  61 0 0 18
2  91 20 0 0 18
4 G1 20 0 28 0
0

0101000
+130 0 -80 0 *
Wi

0101100
+16 0 -13 0 -129 0 +79 24 *
Fa
0  1.50000348502347e-07 28 0

0101000
+12 0 *
Ed
 1.50000379298956e-07 1 1 0
1  62 0 0 18
2  92 20 0 0 18
4 G1 27 0 20 0
0

0101000
+128 0 -78 0 *
Wi

0101100
+13 0 -10 0 -127 0 +77 24 *
Fa
0  1.5000037130535e-07 20 0

0101000
+9 0 *
Wi

0101100
+17 0 -10 0 -126 0 +76 24 *
Fa
0  1.50000348502347e-07 27 0

0101000
+7 0 *
Sh

0101100
+188 0 -181 0 +174 0 -124 0 +74 0 -71 0 -68 0 -65 0 +62 0 -59 0 
-56 0 +54 0 +50 0 -47 0 -44 0 +41 0 +38 0 +35 0 +32 0 +30 0 
+26 0 -23 0 +20 0 +18 0 +14 0 +11 0 +8 0 -6 0 *
So

0100000
+5 0 *
Co

0100000
+4 0 *
Co

0100000
+3 0 *
Co

1100000
+2 0 *

+1 0 