DBRep_DrawableShape

CASCADE Topology V1, (c) Matra-Datavision
Locations 33
1
              1               0               0               0 
              0 0.985089306859129 -0.172043766268355              45 
              0 0.172043766268355 0.985089306859129 341.729243052325 
1
              1               0               0               0 
              0               1               0               0 
              0               0               1               0 
1
              1               0               0               0 
              0               1               0               0 
              0               0               1               0 
2  1 1 2 1 3 1 0
2  3 -1 2 -1 1 -1 0
2  1 1 2 1 0
1
              1               0               0               0 
              0 0.985089306859129 -0.172043766268355               0 
              0 0.172043766268355 0.985089306859129               0 
1
              1               0               0               0 
              0               1               0              45 
              0               0               1 341.729243052325 
2  7 1 8 1 0
2  3 -1 0
1
              1               0               0               0 
              0 0.985089306859129 -0.172043766268355               0 
              0 0.172043766268355 0.985089306859129               0 
1
              1               0               0               0 
              0               1               0              45 
              0               0               1 341.729243052325 
1
              1               0               0               0 
              0               1               0               0 
              0               0               1               0 
2  11 1 12 1 13 1 0
2  11 1 12 1 0
2  2 1 3 1 0
1
              1               0               0               0 
              0 0.985089306859129 -0.172043766268355               0 
              0 0.172043766268355 0.985089306859129               0 
1
              1               0               0               0 
              0               1               0              45 
              0               0               1 341.729243052325 
2  17 1 18 1 0
2  3 -1 2 -1 0
1
              1               0               0               0 
              0 0.985089306859129 -0.172043766268355               0 
              0 0.172043766268355 0.985089306859129               0 
1
              1               0               0               0 
              0               1               0              45 
              0               0               1 341.729243052325 
2  21 1 22 1 0
1
              1               0               0               0 
              0 0.985089306859129 -0.172043766268355               0 
              0 0.172043766268355 0.985089306859129               0 
1
              1               0               0               0 
              0               1               0              45 
              0               0               1 341.729243052325 
2  24 1 25 1 0
1
              1               0               0               0 
              0               1               0               0 
              0               0               1               0 
2  7 1 8 1 27 1 0
2  13 -1 12 -1 11 -1 0
2  12 -1 11 -1 0
2  3 -1 2 -1 18 -1 17 -1 0
2  3 -1 2 -1 22 -1 21 -1 0
2  3 -1 2 -1 25 -1 24 -1 0
Curve2ds 150
1 18 0 0 -1 
1 0 0 0 1 
1 0 -1020 1 0 
1 0 0 1 0 
1 0 0 0 -1 
1 0 0 0 1 
8 -18.500000000000057 -0.50000000000005684
1 -0.50000000000005684 -87 -1 3.0000000000000001e-17 
8 -18.500000000000057 -0.50000000000005684
1 14.000000000000007 -0.49999999999998351 0 1 
1 0 1020 1 0 
1 18 0 0 1 
1 500 0 0 1 
1 18 0 0 -1 
1 228 87.000000000000014 -1 0 
2 456 79.000000000000028 -1 0 0 1 8.0000000000000018
1 0 -19.000000000000028 1 0 
8 -79.500000000000014 -0.499999999999995
1 448 -0.49999999999999539 0 -1 
8 -79.500000000000014 -0.499999999999995
1 0.49999999999999245 -19.000000000000007 -1 2.7755575615628914e-17 
1 0 0 1 0 
1 18 0 0 1 
8 -79.500000000000014 -0.499999999999995
1 52.000000000000007 -0.49999999999999539 -0 -1 
8 -79.500000000000014 -0.499999999999995
1 0.49999999999999245 -19.000000000000007 -1 2.7755575615628914e-17 
2 44.000000000000007 79.000000000000028 1 0 0 -1 8.0000000000000018
1 6.2831853071795862 -19.000000000000028 -1 0 
1 7.0000000000000071 87.000000000000014 1 0 
2 168 718 1 0 -0 1 8
1 0 19.000000000000032 1 0 
8 359.00000000000006 453.00000000000006
1 160 359 0 1 
8 359.00000000000006 453.00000000000006
1 19 359.00000000000006 3.0000000000000001e-17 -1 
8 -248 -84
1 84 710 -1 0 
8 -248 -84
1 18.999999999999975 -84 0 -1 
2 168 812 1 0 -0 1 8
1 0 19.000000000000032 1 0 
2 332 718 1 0 -0 1 8
1 0 19.000000000000032 1 0 
8 -248 -84
1 84 819.99999999999989 -1 0 
8 -248 -84
1 19.000000000000053 -84 0 -1 
8 359.00000000000006 453.00000000000006
1 340 359 0 1 
8 359.00000000000006 453.00000000000006
1 19 359.00000000000006 3.0000000000000001e-17 -1 
2 332 812 1 0 -0 1 8
1 0 19.000000000000032 1 0 
2 233 849 1 0 -0 1 3
1 0 19.000000000000032 1 0 
8 424.5 440.5
1 230 424.5 0 1 
8 424.5 440.5
1 19.000000000000014 424.5 3.0000000000000001e-17 -1 
8 424.5 440.5
1 236 424.5 0 1 
8 424.5 440.5
1 19.000000000000014 424.5 3.0000000000000001e-17 -1 
2 233 865 1 0 -0 1 3
1 0 18.999999999999922 1 0 
2 267 849 1 0 -0 1 3
1 0 19.000000000000032 1 0 
8 424.5 440.5
1 264 424.5 0 1 
8 424.5 440.5
1 19.000000000000014 424.5 3.0000000000000001e-17 -1 
8 424.5 440.5
1 270 424.5 0 1 
8 424.5 440.5
1 19.000000000000014 424.5 3.0000000000000001e-17 -1 
2 267 865 1 0 -0 1 3
1 0 18.999999999999922 1 0 
1 0 0 0 1 
1 0 1020 1 0 
1 0 500 1 0 
1 0 -1020 1 0 
1 500 0 0 1 
1 0 0 0 -1 
1 243 86.999999999999972 -1 0 
2 456 79.000000000000028 -1 0 0 1 8.0000000000000018
1 0 -1.0000000000000788 1 0 
8 -79.500000000000014 -0.500000000000002
1 448 -0.50000000000000233 0 -1 
8 -79.500000000000014 -0.500000000000002
1 0.49999999999999212 -0.99999999999999756 -1 2.7755575615628914e-17 
1 0 0 1 0 
1 0 0 0 1 
8 -79.500000000000014 -0.500000000000002
1 52.000000000000007 -0.50000000000000233 -0 -1 
8 -79.500000000000014 -0.500000000000002
1 0.49999999999999212 -0.99999999999999756 -1 2.7755575615628914e-17 
2 44.000000000000007 79.000000000000028 1 0 0 -1 8.0000000000000018
1 6.2831853071795862 -1.0000000000000788 -1 0 
1 22.000000000000007 86.999999999999972 1 0 
2 168 717.99999999999989 1 0 -0 1 8
1 0 1.0000000000000886 1 0 
8 359.00000000000006 453.00000000000006
1 160 359 0 1 
8 359.00000000000006 453.00000000000006
1 1.0000000000000426 359.00000000000006 3.0000000000000001e-17 -1 
8 -248 -84
1 84 710 -1 0 
8 -248 -84
1 1.0000000000000326 -84 0 -1 
2 168 811.99999999999989 1 0 -0 1 8
1 0 1.0000000000000886 1 0 
2 332 717.99999999999989 1 0 -0 1 8
1 0 1.0000000000000886 1 0 
8 -248 -84
1 84 819.99999999999989 -1 0 
8 -248 -84
1 1.0000000000001084 -84 0 -1 
8 359.00000000000006 453.00000000000006
1 340 359 0 1 
8 359.00000000000006 453.00000000000006
1 1.0000000000000426 359.00000000000006 3.0000000000000001e-17 -1 
2 332 811.99999999999989 1 0 -0 1 8
1 0 1.0000000000000886 1 0 
2 233 848.99999999999989 1 0 -0 1 3
1 0 1.0000000000000886 1 0 
8 424.5 440.5
1 230 424.5 0 1 
8 424.5 440.5
1 1.0000000000000568 424.5 3.0000000000000001e-17 -1 
8 424.5 440.5
1 236 424.5 0 1 
8 424.5 440.5
1 1.0000000000000568 424.5 3.0000000000000001e-17 -1 
2 233 865 1 0 -0 1 3
1 0 0.99999999999995726 1 0 
2 267 848.99999999999989 1 0 -0 1 3
1 0 1.0000000000000886 1 0 
8 424.5 440.5
1 264 424.5 0 1 
8 424.5 440.5
1 1.0000000000000568 424.5 3.0000000000000001e-17 -1 
8 424.5 440.5
1 270 424.5 0 1 
8 424.5 440.5
1 1.0000000000000568 424.5 3.0000000000000001e-17 -1 
2 267 865 1 0 -0 1 3
1 0 0.99999999999995726 1 0 
8 0.50000000000005684 18.500000000000057
1 -0.50000000000005684 -87 1 -3.0000000000000001e-17 
8 0.50000000000005684 18.500000000000057
1 13.999999999999886 -0.49999999999998351 0 -1 
1 1.5707963267948966 0 0 -1 
1 0 0 0 -1 
8 0.50000000000003897 18.500000000000039
1 -0.50000000000003941 448 1 0 
8 0.50000000000003897 18.500000000000039
1 0.99999999999998979 -0.49999999999998879 -2.7755575615628914e-17 -1 
8 0.50000000000003897 18.500000000000039
1 -0.50000000000003941 52.000000000000007 1 0 
8 0.50000000000003897 18.500000000000039
1 0.99999999999998979 -0.49999999999998879 -2.7755575615628914e-17 -1 
1 80 0 0 -1 
1 0 0 0 -1 
1 1.5707963267948966 0 0 -1 
1 0 -0 0 -1 
1 4.7123889803846897 0 0 1 
1 0 0 1 0 
1 3.1415926535897931 0 0 1 
1 0 0 1 0 
1 0 -94 1 0 
1 3.1415926535897931 0 0 1 
1 0 164 1 0 
1 4.7123889803846897 0 0 1 
1 1.5707963267948966 0 0 1 
1 0 0 1 0 
8 0 20
1 6.2831853071795862 -0 0 1 
1 0 0 1 0 
1 0 164 1 0 
1 1.5707963267948966 0 0 1 
1 0 -94 1 0 
8 0 20
1 0 0 0 1 
1 3.1415926535897931 0 0 1 
1 0 0 1 0 
8 0 20
1 6.2831853071795862 -0 0 1 
1 0 0 1 0 
1 0 -16 1 0 
1 3.1415926535897931 0 0 1 
1 0 -16 1 0 
8 0 20
1 0 0 0 1 
1 3.1415926535897931 0 0 1 
1 0 0 1 0 
8 0 20
1 6.2831853071795862 -0 0 1 
1 0 0 1 0 
1 0 -16 1 0 
1 3.1415926535897931 0 0 1 
1 0 -16 1 0 
8 0 20
1 0 0 0 1 
Curves 78
1 50 20 4 -0 1 0 
1 50 1040 -14 0 0 1 
1 50 20 -14 -0 1 0 
1 49.999999999999993 152.89919044481798 345.85413109358194 0 0.17204376626835499 -0.98508930685912921 
1 50 1040 4 1 0 -0 
1 550 20 4 -0 1 0 
1 278 149.71638076885341 364.07828327047582 -1 0 0 
2 506 141.8356663139804 362.701933140329 0 0.17204376626835499 -0.98508930685912921 -1 0 -0 0 0.98508930685912921 0.17204376626835499 8.0000000000000018
1 498 63.521066418679602 349.0244537219948 0 -0.98508930685912921 -0.17204376626835502 
1 50 20 4 1 0 -0 
1 102 63.521066418679602 349.0244537219948 -0 -0.98508930685912921 -0.17204376626835502 
2 94 141.8356663139804 362.701933140329 0 0.17204376626835499 -0.98508930685912921 1 0 0 0 -0.98508930685912921 -0.17204376626835499 8.0000000000000018
1 57 149.71638076885341 364.07828327047582 1 0 0 
2 218 771.30773339696395 472.63789978580792 0 -0.17204376626835499 0.98508930685912921 1 0 0 -0 0.98508930685912921 0.17204376626835499 8
1 210 417.66067223453655 410.87418769546844 -0 0.98508930685912921 0.17204376626835502 
1 134 763.42701894209085 471.26154965566104 -1 0 0 
2 218 863.90612824172206 488.8100138150333 0 -0.17204376626835499 0.98508930685912921 1 0 0 -0 0.98508930685912921 0.17204376626835499 8
2 382 771.30773339696395 472.63789978580792 0 -0.17204376626835499 0.98508930685912921 1 0 0 -0 0.98508930685912921 0.17204376626835499 8
1 134 871.78684269659493 490.18636394518012 -1 0 0 
1 390 417.66067223453655 410.87418769546844 -0 0.98508930685912921 0.17204376626835502 
2 382 863.90612824172206 488.8100138150333 0 -0.17204376626835499 0.98508930685912921 1 0 0 -0 0.98508930685912921 0.17204376626835499 8
2 283 900.35443259550982 495.17563316696243 0 -0.17204376626835499 0.98508930685912921 1 0 0 -0 0.98508930685912921 0.17204376626835499 3
1 280 482.18402183380948 422.14305438604572 -0 0.98508930685912921 0.17204376626835502 
1 286 482.18402183380948 422.14305438604572 -0 0.98508930685912921 0.17204376626835502 
2 283 916.11586150525591 497.92833342725601 0 -0.17204376626835499 0.98508930685912921 1 0 0 -0 0.98508930685912921 0.17204376626835499 3
2 317 900.35443259550982 495.17563316696243 0 -0.17204376626835499 0.98508930685912921 1 0 0 -0 0.98508930685912921 0.17204376626835499 3
1 314 482.18402183380948 422.14305438604572 -0 0.98508930685912921 0.17204376626835502 
1 320 482.18402183380948 422.14305438604572 -0 0.98508930685912921 0.17204376626835502 
2 317 916.11586150525591 497.92833342725601 0 -0.17204376626835499 0.98508930685912921 1 0 0 -0 0.98508930685912921 0.17204376626835499 3
1 50 1040 -14 1 0 -0 
1 550 1040 -14 0 0 1 
1 550 20 -14 -0 1 0 
1 293 152.81316856168377 346.34667574701155 -1 0 0 
2 506 144.93245410681078 344.97032561686473 0 0.17204376626835499 -0.98508930685912921 -1 0 -0 0 0.98508930685912921 0.17204376626835499 8.0000000000000018
1 498 66.617854211509993 331.29284619853047 0 -0.98508930685912921 -0.17204376626835502 
1 50 20 -14 1 0 -0 
1 102 66.617854211509993 331.29284619853047 -0 -0.98508930685912921 -0.17204376626835502 
2 94 144.93245410681078 344.97032561686473 0 0.17204376626835499 -0.98508930685912921 1 0 0 0 -0.98508930685912921 -0.17204376626835499 8.0000000000000018
1 72 152.81316856168377 346.34667574701155 1 0 0 
2 218 774.40452118979431 454.90629226234364 0 -0.17204376626835499 0.98508930685912921 1 0 0 -0 0.98508930685912921 0.17204376626835499 8
1 210 420.75746002736696 393.14258017200416 -0 0.98508930685912921 0.17204376626835502 
1 134 766.52380673492121 453.52994213219677 -1 0 0 
2 218 867.00291603455241 471.07840629156902 0 -0.17204376626835499 0.98508930685912921 1 0 0 -0 0.98508930685912921 0.17204376626835499 8
2 382 774.40452118979431 454.90629226234364 0 -0.17204376626835499 0.98508930685912921 1 0 0 -0 0.98508930685912921 0.17204376626835499 8
1 134 874.88363048942529 472.45475642171584 -1 0 0 
1 390 420.75746002736696 393.14258017200416 -0 0.98508930685912921 0.17204376626835502 
2 382 867.00291603455241 471.07840629156902 0 -0.17204376626835499 0.98508930685912921 1 0 0 -0 0.98508930685912921 0.17204376626835499 8
2 283 903.45122038834018 477.44402564349815 0 -0.17204376626835499 0.98508930685912921 1 0 0 -0 0.98508930685912921 0.17204376626835499 3
1 280 485.28080962663989 404.41144686258144 -0 0.98508930685912921 0.17204376626835502 
1 286 485.28080962663989 404.41144686258144 -0 0.98508930685912921 0.17204376626835502 
2 283 919.21264929808638 480.19672590379173 0 -0.17204376626835499 0.98508930685912921 1 0 0 -0 0.98508930685912921 0.17204376626835499 3
2 317 903.45122038834018 477.44402564349815 0 -0.17204376626835499 0.98508930685912921 1 0 0 -0 0.98508930685912921 0.17204376626835499 3
1 314 485.28080962663989 404.41144686258144 -0 0.98508930685912921 0.17204376626835502 
1 320 485.28080962663989 404.41144686258144 -0 0.98508930685912921 0.17204376626835502 
2 317 919.21264929808638 480.19672590379173 0 -0.17204376626835499 0.98508930685912921 1 0 0 -0 0.98508930685912921 0.17204376626835499 3
1 549.99999999999989 152.89919044481798 345.85413109358194 0 -0.17204376626835499 0.98508930685912921 
1 506 107 -15.000000000000057 -0 -0 1 
1 498 99 -15.000000000000057 -0 -0 1 
1 498 67.196420748073734 330.88632342823507 0 -0.17204376626835502 0.98508930685912921 
1 102 67.196420748073734 330.88632342823507 0 -0.17204376626835502 0.98508930685912921 
1 102 99 -15.000000000000057 0 0 1 
1 94 107 -15.000000000000057 0 0 1 
1 218 730 -15 0 0 1 
1 210 738 -15 0 0 1 
1 210 832 -15 0 0 1 
1 382 730 -15 0 0 1 
1 218 840 -15 0 0 1 
1 390 738 -15 0 0 1 
1 382 840 -15 0 0 1 
1 390 832 -15 0 0 1 
1 280 869 -15 0 0 1 
1 286 869 -15 0 0 1 
1 280 885 -15 0 0 1 
1 286 885 -15 0 0 1 
1 314 869 -15 0 0 1 
1 320 869 -15 0 0 1 
1 314 885 -15 0 0 1 
1 320 885 -15 0 0 1 
Polygon3D 0
PolygonOnTriangulations 0
Surfaces 32
1 50 20 -14 1 0 -0 0 0 1 0 -1 0 
1 50 20 4 0 0 1 1 0 -0 -0 1 0 
1 50 1040 -14 -0 1 0 0 0 1 1 0 -0 
1 50 20 -14 0 0 1 1 0 -0 -0 1 0 
1 64 107 -15.000000000000057 0 -1 0 -1 0 0 -0 -0 -1 
1 550 20 -14 1 0 -0 0 0 1 0 -1 0 
2 506 99 -15.000000000000057 0 -0 -1 -1 -0 -0 -0 1 -0 8.0000000000000018
1 498 18.999999999999996 -15.000000000000057 1 -0 -0 -0 1 -0 -0 -0 -1 
1 50 20 -14 -0 1 0 0 0 1 1 0 -0 
1 102 18.999999999999996 -15.000000000000057 -1 0 0 0 1 0 0 0 -1 
2 94 99 -15.000000000000057 -0 -0 -1 1 0 -0 -0 1 0 8.0000000000000018
2 218 738 -15 0 0 1 1 0 -0 -0 1 0 8
1 210 738 -15 1 0 -0 0 0 1 0 -1 0 
1 218 730 -15 -0 1 0 0 0 1 1 0 -0 
2 218 832 -15 0 0 1 1 0 -0 -0 1 0 8
2 382 738 -15 0 0 1 1 0 -0 -0 1 0 8
1 218 840 -15 -0 1 0 0 0 1 1 0 -0 
1 390 738 -15 1 0 -0 0 0 1 0 -1 0 
2 382 832 -15 0 0 1 1 0 -0 -0 1 0 8
2 283 869 -15 0 0 1 1 0 -0 -0 1 0 3
1 280 869 -15 1 0 -0 0 0 1 0 -1 0 
1 286 869 -15 1 0 -0 0 0 1 0 -1 0 
2 283 885 -15 0 0 1 1 0 -0 -0 1 0 3
2 317 869 -15 0 0 1 1 0 -0 -0 1 0 3
1 314 869 -15 1 0 -0 0 0 1 0 -1 0 
1 320 869 -15 1 0 -0 0 0 1 0 -1 0 
2 317 885 -15 0 0 1 1 0 -0 -0 1 0 3
1 536 107 -15.000000000000057 -0 -1 -0 1 -0 0 0 -0 -1 
1 506 107 -15.000000000000057 -0 -1 -0 1 -0 -0 0 -0 -1 
1 94 107 -15.000000000000057 0 -1 0 -1 0 0 -0 -0 -1 
1 72 151.26477466526862 355.21247950874374 -0 -0.98508930685912943 -0.17204376626835388 0 0.17204376626835388 -0.98508930685912943 1 -0 0 
1 528 151.26477466526862 355.21247950874374 -0 -0.98508930685912943 -0.17204376626835391 0 0.17204376626835391 -0.98508930685912943 1 -0 0 
Triangulations 0

TShapes 195
Ve
1.50000064e-07
50 149.716380768853 364.078283270476
0 0

0101101
*
Ve
1e-07
50 1068.80470406842 524.595117198851
0 0

0101101
*
Ed
 1e-07 1 1 0
1  1 0 87 1020
2  1 1 0 87 1020
2  2 2 0 87 1020
0

0101000
+195 5 -194 5 *
Ve
1e-07
50 1071.90149186125 506.863509675387
0 0

0101101
*
Ed
 1e-07 1 1 0
1  2 0 0 18
2  3 1 0 0 18
2  4 3 0 0 18
0

0101000
-194 5 +192 5 *
Ve
1.50000028e-07
50 152.813168561684 346.346675747012
0 0

0101101
*
Ed
 1e-07 1 1 0
1  3 0 87 1020
2  5 1 0 87 1020
2  6 4 0 87 1020
0

0101000
+190 5 -192 5 *
Ed
 1.5e-07 1 1 0
1  4 0 -18.5000000000001 -0.500000000000057
2  7 1 6 -18.5000000000001 -0.500000000000057
2  8 5 9 -18.5000000000001 -0.500000000000057
0

0101000
+195 10 -190 10 *
Wi

0101100
-193 4 +191 4 +189 4 +188 3 *
Fa
0  1e-07 1 4

0101000
+187 0 *
Ve
1e-07
550 1068.80470406842 524.595117198851
0 0

0101101
*
Ed
 1e-07 1 1 0
1  5 0 0 500
2  9 2 0 0 500
2  10 3 0 0 500
0

0101000
-185 5 +194 5 *
Ve
1.5000013e-07
550 149.716380768853 364.078283270476
0 0

0101101
*
Ed
 1e-07 1 1 0
1  6 0 87 1020
2  11 2 0 87 1020
2  12 6 0 87 1020
0

0101000
+183 5 -185 5 *
Ve
1.50000056843419e-07
506 149.716380768853 364.078283270476
0 0

0101101
*
Ed
 1e-07 1 1 0
1  7 0 -272 -228
2  13 2 4 -272 -228
0

0101000
+183 0 -181 0 *
Ve
1.50000063552874e-07
498 141.83566631398 362.701933140329
0 0

0101101
*
Ed
 1e-07 1 1 0
1  8 0 0 1.5707963267949
2  14 2 4 0 1.5707963267949
2  15 7 14 0 1.5707963267949
0

0101000
+179 0 -181 0 *
Ve
1.50000056843419e-07
498 64.0136110721092 349.110475605129
0 0

0101101
*
Ed
 1.5e-07 1 1 0
1  9 0 -79.5 -0.499999999999995
2  16 2 4 -79.5 -0.499999999999995
2  17 8 14 -79.5 -0.499999999999995
0

0101000
+179 0 -177 0 *
Ve
1.50000056843419e-07
102 64.0136110721092 349.110475605129
0 0

0101101
*
Ed
 1e-07 1 1 0
1  10 0 52 448
2  18 2 0 52 448
2  19 9 0 52 448
0

0101000
+175 5 -177 5 *
Ve
1.50000063552874e-07
102 141.83566631398 362.701933140329
0 0

0101101
*
Ed
 1.5e-07 1 1 0
1  11 0 -79.5 -0.499999999999995
2  20 2 4 -79.5 -0.499999999999995
2  21 10 15 -79.5 -0.499999999999995
0

0101000
+173 0 -175 0 *
Ve
1.50000056843419e-07
94 149.716380768853 364.078283270476
0 0

0101101
*
Ed
 1e-07 1 1 0
1  12 0 4.71238898038469 6.28318530717959
2  22 2 4 4.71238898038469 6.28318530717959
2  23 11 15 4.71238898038469 6.28318530717959
0

0101000
+171 0 -173 0 *
Ed
 1e-07 1 1 0
1  13 0 -7.00000000000001 37
2  24 2 4 -7.00000000000001 37
0

0101000
+195 0 -171 0 *
Wi

0101000
-193 4 -184 4 +182 4 -180 0 +178 0 -176 0 +174 4 +172 0 +170 0 +169 0 
*
Ve
1.50000114e-07
210 771.307733396964 472.637899785808
0 0

0101101
*
Ve
1.5e-07
218 763.427018942091 471.261549655661
0 0

0101101
*
Ed
 1e-07 1 1 0
1  14 0 3.14159265358979 4.71238898038469
2  25 2 1 3.14159265358979 4.71238898038469
2  26 12 19 3.14159265358979 4.71238898038469
0

0101000
+167 20 -166 20 *
Ve
1.50000127e-07
210 863.906128241722 488.810013815033
0 0

0101101
*
Ed
 1.5e-07 1 1 0
1  15 0 359 453
2  27 2 1 359 453
2  28 13 19 359 453
0

0101000
+167 20 -164 20 *
Ve
1.5e-07
382 763.427018942091 471.261549655661
0 0

0101101
*
Ed
 1.5e-07 1 1 0
1  16 0 -248 -84
2  29 2 1 -248 -84
2  30 14 19 -248 -84
0

0101000
+162 20 -166 20 *
Ve
1.50000114e-07
218 871.786842696595 490.18636394518
0 0

0101101
*
Ed
 1e-07 1 1 0
1  17 0 1.5707963267949 3.14159265358979
2  31 2 1 1.5707963267949 3.14159265358979
2  32 15 19 1.5707963267949 3.14159265358979
0

0101000
+160 20 -164 20 *
Ve
1.50000114e-07
390 771.307733396964 472.637899785808
0 0

0101101
*
Ed
 1e-07 1 1 0
1  18 0 4.71238898038469 6.28318530717959
2  33 2 1 4.71238898038469 6.28318530717959
2  34 16 19 4.71238898038469 6.28318530717959
0

0101000
+162 20 -158 20 *
Ve
1.50000114e-07
382 871.786842696595 490.18636394518
0 0

0101101
*
Ed
 1.5e-07 1 1 0
1  19 0 -248 -84
2  35 2 1 -248 -84
2  36 17 19 -248 -84
0

0101000
+156 20 -160 20 *
Ve
1.50000127e-07
390 863.906128241722 488.810013815033
0 0

0101101
*
Ed
 1.5e-07 1 1 0
1  20 0 359 453
2  37 2 1 359 453
2  38 18 19 359 453
0

0101000
+158 20 -154 20 *
Ed
 1e-07 1 1 0
1  21 0 0 1.5707963267949
2  39 2 1 0 1.5707963267949
2  40 19 19 0 1.5707963267949
0

0101000
+154 20 -156 20 *
Wi

0101100
-165 16 +163 16 +161 16 -159 16 -157 16 -155 16 -153 16 -152 16 *
Ve
1.5e-07
280 900.35443259551 495.175633166962
0 0

0101101
*
Ve
1.5e-07
286 900.35443259551 495.175633166962
0 0

0101101
*
Ed
 1e-07 1 1 0
1  22 0 3.14159265358979 6.28318530717959
2  41 2 1 3.14159265358979 6.28318530717959
2  42 20 23 3.14159265358979 6.28318530717959
0

0101000
+150 20 -149 20 *
Ve
1.5e-07
280 916.115861505256 497.928333427256
0 0

0101101
*
Ed
 1.5e-07 1 1 0
1  23 0 424.5 440.5
2  43 2 1 424.5 440.5
2  44 21 23 424.5 440.5
0

0101000
+150 20 -147 20 *
Ve
1.5e-07
286 916.115861505256 497.928333427256
0 0

0101101
*
Ed
 1.5e-07 1 1 0
1  24 0 424.5 440.5
2  45 2 1 424.5 440.5
2  46 22 23 424.5 440.5
0

0101000
+149 20 -145 20 *
Ed
 1e-07 1 1 0
1  25 0 0 3.14159265358979
2  47 2 1 0 3.14159265358979
2  48 23 23 0 3.14159265358979
0

0101000
+145 20 -147 20 *
Wi

0101100
-148 16 +146 16 -144 16 -143 16 *
Ve
1.5e-07
314 900.35443259551 495.175633166962
0 0

0101101
*
Ve
1.5e-07
320 900.35443259551 495.175633166962
0 0

0101101
*
Ed
 1e-07 1 1 0
1  26 0 3.14159265358979 6.28318530717959
2  49 2 1 3.14159265358979 6.28318530717959
2  50 24 26 3.14159265358979 6.28318530717959
0

0101000
+141 20 -140 20 *
Ve
1.5e-07
314 916.115861505256 497.928333427256
0 0

0101101
*
Ed
 1.5e-07 1 1 0
1  27 0 424.5 440.5
2  51 2 1 424.5 440.5
2  52 25 26 424.5 440.5
0

0101000
+141 20 -138 20 *
Ve
1.5e-07
320 916.115861505256 497.928333427256
0 0

0101101
*
Ed
 1.5e-07 1 1 0
1  28 0 424.5 440.5
2  53 2 1 424.5 440.5
2  54 26 26 424.5 440.5
0

0101000
+140 20 -136 20 *
Ed
 1e-07 1 1 0
1  29 0 0 3.14159265358979
2  55 2 1 0 3.14159265358979
2  56 27 26 0 3.14159265358979
0

0101000
+136 20 -138 20 *
Wi

0101100
-139 16 +137 16 -135 16 -134 16 *
Fa
0  1e-07 2 4

0101000
+168 0 +151 0 +142 0 +133 0 *
Ve
1e-07
550 1071.90149186125 506.863509675387
0 0

0101101
*
Ed
 1e-07 1 1 0
1  30 0 0 500
2  57 3 0 0 500
2  58 4 0 0 500
0

0101000
-131 5 +192 5 *
Ed
 1e-07 1 1 0
1  31 0 0 18
2  59 3 0 0 18
2  60 6 0 0 18
0

0101000
-185 5 +131 5 *
Wi

0101100
-130 0 -129 0 +184 0 +191 0 *
Fa
0  1e-07 3 0

0111000
+128 0 *
Ve
1.50000114e-07
550 152.813168561684 346.346675747012
0 0

0101101
*
Ed
 1e-07 1 1 0
1  32 0 87 1020
2  61 4 0 87 1020
2  62 6 0 87 1020
0

0101000
+126 5 -131 5 *
Ve
1.50000028421709e-07
506 152.813168561684 346.346675747012
0 0

0101101
*
Ed
 1e-07 1 1 0
1  33 0 -257 -213
2  63 4 4 -257 -213
0

0101000
+126 0 -124 0 *
Ve
1.50000056843419e-07
498 144.932454106811 344.970325616865
0 0

0101101
*
Ed
 1e-07 1 1 0
1  34 0 0 1.5707963267949
2  64 4 4 0 1.5707963267949
2  65 7 14 0 1.5707963267949
0

0101000
+122 0 -124 0 *
Ve
1.50000056843419e-07
498 67.1103988649396 331.378868081665
0 0

0101101
*
Ed
 1.5e-07 1 1 0
1  35 0 -79.5 -0.500000000000002
2  66 4 4 -79.5 -0.500000000000002
2  67 8 14 -79.5 -0.500000000000002
0

0101000
+122 0 -120 0 *
Ve
1.50000056843419e-07
102 67.1103988649396 331.378868081665
0 0

0101101
*
Ed
 1e-07 1 1 0
1  36 0 52 448
2  68 4 0 52 448
2  69 9 0 52 448
0

0101000
+118 5 -120 5 *
Ve
1.50000056843419e-07
102 144.932454106811 344.970325616865
0 0

0101101
*
Ed
 1.5e-07 1 1 0
1  37 0 -79.5 -0.500000000000002
2  70 4 4 -79.5 -0.500000000000002
2  71 10 15 -79.5 -0.500000000000002
0

0101000
+116 0 -118 0 *
Ve
1.50000028421709e-07
94 152.813168561684 346.346675747012
0 0

0101101
*
Ed
 1e-07 1 1 0
1  38 0 4.71238898038469 6.28318530717959
2  72 4 4 4.71238898038469 6.28318530717959
2  73 11 15 4.71238898038469 6.28318530717959
0

0101000
+114 0 -116 0 *
Ed
 1e-07 1 1 0
1  39 0 -22 22
2  74 4 4 -22 22
0

0101000
+190 0 -114 0 *
Wi

0101000
-189 4 -130 4 +125 4 -123 0 +121 0 -119 0 +117 4 +115 0 +113 0 +112 0 
*
Ve
1.50000114e-07
210 774.404521189794 454.906292262344
0 0

0101101
*
Ve
1.50000114e-07
218 766.523806734921 453.529942132197
0 0

0101101
*
Ed
 1e-07 1 1 0
1  40 0 3.14159265358979 4.71238898038469
2  75 4 1 3.14159265358979 4.71238898038469
2  76 12 19 3.14159265358979 4.71238898038469
0

0101000
+110 20 -109 20 *
Ve
1.50000127e-07
210 867.002916034552 471.078406291569
0 0

0101101
*
Ed
 1.5e-07 1 1 0
1  41 0 359 453
2  77 4 1 359 453
2  78 13 19 359 453
0

0101000
+110 20 -107 20 *
Ve
1.50000114e-07
382 766.523806734921 453.529942132197
0 0

0101101
*
Ed
 1.5e-07 1 1 0
1  42 0 -248 -84
2  79 4 1 -248 -84
2  80 14 19 -248 -84
0

0101000
+105 20 -109 20 *
Ve
1.50000114e-07
218 874.883630489425 472.454756421716
0 0

0101101
*
Ed
 1e-07 1 1 0
1  43 0 1.5707963267949 3.14159265358979
2  81 4 1 1.5707963267949 3.14159265358979
2  82 15 19 1.5707963267949 3.14159265358979
0

0101000
+103 20 -107 20 *
Ve
1.50000114e-07
390 774.404521189794 454.906292262344
0 0

0101101
*
Ed
 1e-07 1 1 0
1  44 0 4.71238898038469 6.28318530717959
2  83 4 1 4.71238898038469 6.28318530717959
2  84 16 19 4.71238898038469 6.28318530717959
0

0101000
+105 20 -101 20 *
Ve
1.50000114e-07
382 874.883630489425 472.454756421716
0 0

0101101
*
Ed
 1.5e-07 1 1 0
1  45 0 -248 -84
2  85 4 1 -248 -84
2  86 17 19 -248 -84
0

0101000
+99 20 -103 20 *
Ve
1.50000127e-07
390 867.002916034552 471.078406291569
0 0

0101101
*
Ed
 1.5e-07 1 1 0
1  46 0 359 453
2  87 4 1 359 453
2  88 18 19 359 453
0

0101000
+101 20 -97 20 *
Ed
 1e-07 1 1 0
1  47 0 0 1.5707963267949
2  89 4 1 0 1.5707963267949
2  90 19 19 0 1.5707963267949
0

0101000
+97 20 -99 20 *
Wi

0101100
-108 16 +106 16 +104 16 -102 16 -100 16 -98 16 -96 16 -95 16 *
Ve
1.50000114e-07
280 903.45122038834 477.444025643498
0 0

0101101
*
Ve
1.50000114e-07
286 903.45122038834 477.444025643498
0 0

0101101
*
Ed
 1e-07 1 1 0
1  48 0 3.14159265358979 6.28318530717959
2  91 4 1 3.14159265358979 6.28318530717959
2  92 20 23 3.14159265358979 6.28318530717959
0

0101000
+93 20 -92 20 *
Ve
1.50000127e-07
280 919.212649298086 480.196725903792
0 0

0101101
*
Ed
 1.5e-07 1 1 0
1  49 0 424.5 440.5
2  93 4 1 424.5 440.5
2  94 21 23 424.5 440.5
0

0101000
+93 20 -90 20 *
Ve
1.50000127e-07
286 919.212649298086 480.196725903792
0 0

0101101
*
Ed
 1.5e-07 1 1 0
1  50 0 424.5 440.5
2  95 4 1 424.5 440.5
2  96 22 23 424.5 440.5
0

0101000
+92 20 -88 20 *
Ed
 1e-07 1 1 0
1  51 0 0 3.14159265358979
2  97 4 1 0 3.14159265358979
2  98 23 23 0 3.14159265358979
0

0101000
+88 20 -90 20 *
Wi

0101100
-91 16 +89 16 -87 16 -86 16 *
Ve
1.50000114e-07
314 903.45122038834 477.444025643498
0 0

0101101
*
Ve
1.50000114e-07
320 903.45122038834 477.444025643498
0 0

0101101
*
Ed
 1e-07 1 1 0
1  52 0 3.14159265358979 6.28318530717959
2  99 4 1 3.14159265358979 6.28318530717959
2  100 24 26 3.14159265358979 6.28318530717959
0

0101000
+84 20 -83 20 *
Ve
1.50000127e-07
314 919.212649298086 480.196725903792
0 0

0101101
*
Ed
 1.5e-07 1 1 0
1  53 0 424.5 440.5
2  101 4 1 424.5 440.5
2  102 25 26 424.5 440.5
0

0101000
+84 20 -81 20 *
Ve
1.50000127e-07
320 919.212649298086 480.196725903792
0 0

0101101
*
Ed
 1.5e-07 1 1 0
1  54 0 424.5 440.5
2  103 4 1 424.5 440.5
2  104 26 26 424.5 440.5
0

0101000
+83 20 -79 20 *
Ed
 1e-07 1 1 0
1  55 0 0 3.14159265358979
2  105 4 1 0 3.14159265358979
2  106 27 26 0 3.14159265358979
0

0101000
+79 20 -81 20 *
Wi

0101100
-82 16 +80 16 -78 16 -77 16 *
Fa
0  1e-07 4 4

0101000
+111 0 +94 0 +85 0 +76 0 *
Ed
 1.5e-07 1 1 0
1  56 0 0.500000000000057 18.5000000000001
2  107 6 6 0.500000000000057 18.5000000000001
2  108 28 28 0.500000000000057 18.5000000000001
0

0101000
+126 10 -183 10 *
Wi

0101100
-182 4 +129 4 +125 4 -74 3 *
Fa
0  1e-07 6 4

0101000
+73 0 *
Ed
 1.5e-07 1 1 0
1  57 0 1.00000000000002 19
2  109 7 0 1.00000000000002 19
4 G1 7 0 29 0
0

0101000
+124 29 -181 29 *
Ed
 1e-07 1 1 0
1  58 0 1.00000000000008 19.0000000000001
2  110 7 0 1.00000000000008 19.0000000000001
4 G1 8 0 7 0
0

0101000
+122 29 -179 29 *
Wi

0101100
-121 0 -71 14 +178 0 +70 14 *
Fa
0  1e-07 7 14

0101000
+69 0 *
Ed
 1.5e-07 1 1 0
1  59 0 0.500000000000039 18.5
2  111 9 4 0.500000000000039 18.5
2  112 8 14 0.500000000000039 18.5
0

0101000
+120 0 -177 0 *
Wi

0101100
-70 14 -176 0 +67 0 +119 0 *
Fa
0  1e-07 8 14

0101000
+66 0 *
Ed
 1.5e-07 1 1 0
1  60 0 0.500000000000039 18.5
2  113 9 4 0.500000000000039 18.5
2  114 10 15 0.500000000000039 18.5
0

0101000
+118 0 -175 0 *
Wi

0101100
-117 4 -67 0 +174 4 +64 0 *
Fa
0  1e-07 9 4

0101000
+63 0 *
Ed
 1e-07 1 1 0
1  61 0 1.00000000000008 19.0000000000001
2  115 10 0 1.00000000000008 19.0000000000001
2  116 11 0 1.00000000000008 19.0000000000001
4 G1 10 0 11 0
0

0101000
+116 30 -173 30 *
Wi

0101100
-61 15 -172 0 +64 0 +115 0 *
Fa
0  1e-07 10 15

0101000
+60 0 *
Ed
 1.5e-07 1 1 0
1  62 0 1.00000000000002 19
2  117 11 0 1.00000000000002 19
2  118 30 0 1.00000000000002 19
4 G1 11 0 30 0
0

0101000
+114 30 -171 30 *
Wi

0101100
+113 0 -58 15 -170 0 +61 15 *
Fa
0  1e-07 11 15

0101000
+57 0 *
Ed
 1e-07 1 1 0
1  63 0 1.00000000000001 19
2  119 12 0 1.00000000000001 19
2  120 14 0 1.00000000000001 19
0

0101000
+109 31 -166 31 *
Ed
 1e-07 1 1 0
1  64 0 1.00000000000009 19
2  121 12 0 1.00000000000009 19
2  122 13 0 1.00000000000009 19
0

0101000
+110 31 -167 31 *
Wi

0101100
-165 0 +55 19 +108 0 -54 19 *
Fa
0  1e-07 12 19

0111000
+53 0 *
Ed
 1e-07 1 1 0
1  65 0 1.00000000000009 19
2  123 13 0 1.00000000000009 19
2  124 15 0 1.00000000000009 19
0

0101000
+107 31 -164 31 *
Wi

0101100
-54 19 -163 0 +51 19 +106 0 *
Fa
0  1e-07 13 19

0111000
+50 0 *
Ed
 1e-07 1 1 0
1  66 0 1.00000000000001 19
2  125 14 0 1.00000000000001 19
2  126 16 0 1.00000000000001 19
0

0101000
+105 31 -162 31 *
Wi

0101100
+104 0 -48 19 -161 0 +55 19 *
Fa
0  1e-07 14 19

0111000
+47 0 *
Ed
 1e-07 1 1 0
1  67 0 1.00000000000009 19
2  127 15 0 1.00000000000009 19
2  128 17 0 1.00000000000009 19
0

0101000
+103 31 -160 31 *
Wi

0101100
-159 0 +51 19 +102 0 -45 19 *
Fa
0  1e-07 15 19

0111000
+44 0 *
Ed
 1e-07 1 1 0
1  68 0 1.00000000000009 19
2  129 16 0 1.00000000000009 19
2  130 18 0 1.00000000000009 19
0

0101000
+101 31 -158 31 *
Wi

0101100
-157 0 +42 19 +100 0 -48 19 *
Fa
0  1e-07 16 19

0111000
+41 0 *
Ed
 1e-07 1 1 0
1  69 0 1.00000000000009 19
2  131 17 0 1.00000000000009 19
2  132 19 0 1.00000000000009 19
0

0101000
+99 31 -156 31 *
Wi

0101100
+98 0 -39 19 -155 0 +45 19 *
Fa
0  1e-07 17 19

0111000
+38 0 *
Ed
 1e-07 1 1 0
1  70 0 1.00000000000009 19
2  133 18 0 1.00000000000009 19
2  134 19 0 1.00000000000009 19
0

0101000
+97 31 -154 31 *
Wi

0101100
-42 19 -153 0 +36 19 +96 0 *
Fa
0  1e-07 18 19

0111000
+35 0 *
Wi

0101100
-152 0 +39 19 +95 0 -36 19 *
Fa
0  1e-07 19 19

0111000
+33 0 *
Ed
 1e-07 1 1 0
1  71 0 1.00000000000009 19
2  135 20 0 1.00000000000009 19
2  136 21 0 1.00000000000009 19
0

0101000
+93 32 -150 32 *
Ed
 1e-07 1 1 0
1  72 0 1.00000000000009 19
2  137 20 0 1.00000000000009 19
2  138 22 0 1.00000000000009 19
0

0101000
+92 32 -149 32 *
Wi

0101100
+91 0 -31 23 -148 0 +30 23 *
Fa
0  1e-07 20 23

0111000
+29 0 *
Ed
 1e-07 1 1 0
1  73 0 1.00000000000001 19
2  139 21 0 1.00000000000001 19
2  140 23 0 1.00000000000001 19
0

0101000
+90 32 -147 32 *
Wi

0101100
-31 23 -146 0 +27 23 +89 0 *
Fa
0  1e-07 21 23

0111000
+26 0 *
Ed
 1e-07 1 1 0
1  74 0 1.00000000000001 19
2  141 22 0 1.00000000000001 19
2  142 23 0 1.00000000000001 19
0

0101000
+88 32 -145 32 *
Wi

0101100
-30 23 -144 0 +24 23 +87 0 *
Fa
0  1e-07 22 23

0111000
+23 0 *
Wi

0101100
-143 0 +27 23 +86 0 -24 23 *
Fa
0  1e-07 23 23

0111000
+21 0 *
Ed
 1e-07 1 1 0
1  75 0 1.00000000000009 19
2  143 24 0 1.00000000000009 19
2  144 25 0 1.00000000000009 19
0

0101000
+84 33 -141 33 *
Ed
 1e-07 1 1 0
1  76 0 1.00000000000009 19
2  145 24 0 1.00000000000009 19
2  146 26 0 1.00000000000009 19
0

0101000
+83 33 -140 33 *
Wi

0101100
+82 0 -19 26 -139 0 +18 26 *
Fa
0  1e-07 24 26

0111000
+17 0 *
Ed
 1e-07 1 1 0
1  77 0 1.00000000000001 19
2  147 25 0 1.00000000000001 19
2  148 27 0 1.00000000000001 19
0

0101000
+81 33 -138 33 *
Wi

0101100
-19 26 -137 0 +15 26 +80 0 *
Fa
0  1e-07 25 26

0111000
+14 0 *
Ed
 1e-07 1 1 0
1  78 0 1.00000000000001 19
2  149 26 0 1.00000000000001 19
2  150 27 0 1.00000000000001 19
0

0101000
+79 33 -136 33 *
Wi

0101100
-18 26 -135 0 +12 26 +78 0 *
Fa
0  1e-07 26 26

0111000
+11 0 *
Wi

0101100
-134 0 +15 26 +77 0 -12 26 *
Fa
0  1e-07 27 26

0111000
+9 0 *
Wi

0101000
+112 0 +58 15 -169 0 +188 3 *
Fa
0  1.5e-07 31 0

0111000
+7 0 *
Wi

0101000
-123 0 +74 3 +180 0 -71 14 *
Fa
0  1.5e-07 32 0

0111000
+5 0 *
Sh

0101000
-186 0 +132 0 +127 4 -75 0 +72 0 -68 0 -65 0 -62 0 +59 0 +56 0 
-52 16 +49 16 +46 16 -43 16 -40 16 -37 16 -34 16 -32 16 -28 16 +25 16 
-22 16 -20 16 -16 16 +13 16 -10 16 -8 16 +6 0 +4 0 *
So

0100000
+3 0 *
Co

0100000
+2 0 *

+1 0 