DBRep_DrawableShape

CASCADE Topology V1, (c) Matra-Datavision
Locations 19
1
              1               0               0               0 
              0               1               0               0 
              0               0               1               0 
1
              1               0               0               0 
              0               1               0               0 
              0               0               1               0 
1
              1               0               0               0 
              0               1               0               0 
              0               0               1               0 
1
              1               0               0               0 
              0               1               0               0 
              0               0               1               0 
1
1.11022302462516e-16               0               1               0 
              0               1               0               0 
             -1               0 1.11022302462516e-16               0 
1
              1               0               0              -0 
              0               1               0 3.88908730122752 
              0               0               1              18 
2  1 1 2 1 3 1 4 1 5 1 6 1 0
1
              1               0               0               0 
              0               1               0               0 
              0               0               1               0 
2  6 -1 5 -1 4 -1 3 -1 2 -1 1 -1 0
1
              1               0               0               0 
              0               1               0               0 
              0               0               1              -1 
1
              1               0               0               0 
              0               1               0               0 
              0               0               1              18 
2  10 1 11 1 0
2  11 -1 10 -1 0
1
              1               0               0               0 
              0               1               0               0 
              0               0               1             -18 
2  14 -1 6 -1 5 -1 4 -1 3 -1 2 -1 1 -1 0
1
              1               0               0               0 
              0               1               0               0 
              0               0               1               1 
2  16 -1 14 -1 6 -1 5 -1 4 -1 3 -1 2 -1 1 -1 0
1
              1               0               0              18 
              0               1               0               0 
              0               0               1               0 
2  18 1 8 1 0
Curve2ds 13
3 246.05000000000001 0 0 -1 1 0 7.7781745930520225 5.5
7 0 0  8 9 2  4.4788552528189136 8.7272077938646202  4.7043965096139981 9.9340115970295528  4.9299377664094877 11.214811221796481  5.1554790232042009 12.476052954465558  5.381020279995731 13.616201535405708  5.606561536792718 14.540763941113255  5.8321027935899323 15.180251997151572  6.0576440503845017 15.5  6.2831853071795862 15.5 
 4.4788552528189136 9 6.2831853071795862 9
3 246.05000000000001 0 0 -1 1 0 7.7781745930520225 5.5
7 0 0  8 9 2  0 15.5  0.22554125679508411 15.5  0.45108251358954021 15.180251997160667  0.67662377038459454 14.540763941091427  0.90216502717612457 13.616201535442087  1.1277062839758401 12.47605295444373  1.3532475407698712 11.2148112217983  1.5787887975655888 9.9340115970295528  1.8043300543606728 8.7272077938646202 
 0 9 1.8043300543606728 9
1 142.06587621328811 -689.09093437701881 -1 0 
1 6.2831853071795862 -0 0 1 
1 0 -0 0 1 
7 0 0  8 30 5  0 4.5  0.19634954084936207 4.5  0.39269908169819701 4.742334267921251  0.58904862254894397 5.2270007451297715  0.78539816339161916 5.9340768718138861  0.98174770425021052 6.8236770633375272  1.1780972450959553 7.8401547942430625  1.3744467859455343 8.920077525328507  1.7180584824319181 10.809941856003615  1.8653206380687977 11.619883415588889  2.0125827937063718 12.403061666176654  2.1598449493434373 13.132706152780884  2.3071071049801617 13.783917204162947  2.4543692606171668 14.335497736493124  2.6016314162540466 14.771386099340463  2.9697868053466006 15.546264423019501  3.1906800388010197 15.727833439043025  3.4115732722548273 15.591479623566556  3.6324665057145467 15.132115552638425  3.85335973916699 14.379598189108947  4.0742529726212524 13.39629945438719  4.2951462060797949 12.26456534661494  4.7369326729908598 9.8814281955624743  4.9578259064473968 8.6300238332496519  5.1787191398907453 7.4073871230866644  5.3996123733522836 6.308310308635555  5.62050560679927 5.4201077384677774  5.8413988402708128 4.8067047440017632  6.0622920737240431 4.5000000000000009  6.2831853071795756 4.5 
 3.1415926535897931 9 4.7123889803846879 7 5.8904862254808563 7 7.6576320931251178 7 9.4247779607693793 9
3 -103.98412378671179 689.09093437701847 0 -1 1 0 7.7781745930520225 5.5
1 0 0 1 0 
1 0 -1 1 0 
7 0 0  8 30 5  0 29.955844122715714  0.19634954084936207 29.955844122715714  0.39269908169967493 30.198178390597604  0.58904862254621548 30.682844867769745  0.78539816339889512 31.389920994464774  0.98174770424247981 32.279521185992053  1.17809724509641 33.295998916928511  1.3744467859455345 34.375921648044226  1.7180584824319183 36.265785978719329  1.8653206380687126 37.075727538303731  2.0125827937057608 37.858905788907123  2.1598449493428689 38.588550275502712  2.3071071049800622 39.239761326872895  2.454369260617252 39.791341859212395  2.6016314162540466 40.227230222056164  2.9697868053466006 41.002108545735211  3.1906800388010197 41.183677561741206  3.4115732722548273 41.047323746272014  3.6324665056999947 40.587959675234742  3.853359739174266 39.83544231185806  4.0742529726194334 38.85214357705263  4.2951462060797949 37.720409469330654  4.7369326729908598 35.337272318278188  4.9578259064437589 34.085867955946014  5.1787191399052972 32.863231245864881  5.3996123733231798 31.764154431351926  5.6205056068283739 30.875951861220528  5.8413988402635368 30.262548866703582  6.0622920737240431 29.955844122715714  6.2831853071795756 29.955844122715714 
 3.1415926535897931 9 4.7123889803847163 7 5.890486225480899 7 7.6576320931251391 7 9.4247779607693793 9
3 -103.98412378671179 671.09093437701847 0 -1 1 0 7.7781745930520225 5.5
Curves 6
3 0 0 154 0 1 0 1 -0 0 0 0 -1 7.7781745930520225 5.5
3 0 0 154 0 1 0 1 -0 0 0 0 -1 7.7781745930520225 5.5
1 400.05000000000001 3.8890873012275202 1.000000000000016 -1 0 -1.1102230246251565e-16 
1 -3.1819805153394629 -10.960155108391486 154 0.70710678118654757 0.70710678118654757 0 
3 0 0 154 1 0 0 -0 1 0 0 -0 1 7.7781745930520225 5.5
3 18 18 154 1 0 0 -0 1 0 0 -0 1 7.7781745930520225 5.5
Polygon3D 0
PolygonOnTriangulations 0
Surfaces 7
1 400.05000000000001 3.8890873012275202 1.5987211554602254e-14 -0 -1 0 -1 0 -1.1102230246251565e-16 1.1102230246251565e-16 -0 -1 
1 0 0 400.05000000000001 -0 1 0 0 0 -1 -1 0 -0 
2 -7.0710678118654746 -7.0710678118654746 154 0.70710678118654757 0.70710678118654757 0 0.70710678118654757 -0.70710678118654757 0 0 0 -1 5.5
1 257.9841237867119 692.98002167824632 1 0 0 1 1 0 -0 -0 1 0 
1 0 689.09093437701847 257.98412378671179 1 0 0 -0 0 1 0 -1 0 
6 -0 -0 -1 
3 154 3.8890873012275202 -1.1324274851176597e-14 1.1102230246251565e-16 0 -1 0 1 0 1 0 1.1102230246251565e-16 7.7781745930520225 5.5
1 0 689.09093437701847 257.98412378671179 1 0 0 -0 0 1 0 -1 0 
Triangulations 0

TShapes 20
Ve
1.00001336e-07
159.500000000001 3.88908730122752 18
0 0

0101101
*
Ve
1.00000003e-07
154 3.88908730122752 10.221825406948
0 0

0101101
*
Ed
 1e-07 1 1 0
1  1 0 4.71238898038469 6.28318530717959
2  1 2 8 4.71238898038469 6.28318530717959
2  2 3 0 4.71238898038469 6.28318530717959
0

0101000
+20 9 -19 9 *
Ve
1.00001336e-07
148.499999999999 3.88908730122752 18
0 0

0101101
*
Ed
 1e-07 1 1 0
1  2 0 0 1.5707963267949
2  3 2 8 0 1.5707963267949
2  4 3 0 0 1.5707963267949
0

0101000
+19 9 -17 9 *
Ed
 1.00000004076197e-07 1 1 0
1  3 0 240.549999999999 251.550000000001
2  5 4 0 240.549999999999 251.550000000001
0

0101000
+20 13 -17 13 *
Wi

0101100
-18 7 -16 7 +15 12 *
Fa
0  1e-07 1 0

0101000
+14 0 *
Ve
1.00000015344961e-07
154 14.1109127081755 -1.06581410364015e-14
0 0

0101101
*
Ed
 1e-07 1 1 0
1  4 0 15.5 29.9558441227157
3  6 7CN 3 0 15.5 29.9558441227157
0

0101000
+19 9 -12 9 *
Ed
 1.00000014734338e-07 1 1 0
1  5 0 4.71238898038469 7.85398163397448
2  8 3 0 4.71238898038469 7.85398163397448
2  9 5 8 4.71238898038469 7.85398163397448
2  10 6 15 4.71238898038469 7.85398163397448
2  11 6 17 4.71238898038469 7.85398163397448
0

0101000
+17 9 -20 9 *
Ed
 1.00000015344961e-07 1 1 0
1  6 0 3.14159265358979 9.42477796076938
2  12 3 0 3.14159265358979 9.42477796076938
2  13 7 19 3.14159265358979 9.42477796076938
0

0101000
+12 9 -12 9 *
Wi

0101100
+11 7 +18 7 +10 7 +16 7 -11 7 -9 7 *
Fa
0  1e-07 3 7

0101000
+8 0 *
Wi

0101100
-15 12 -10 7 *
Fa
0  1.00000004076197e-07 4 12

0101000
+6 0 *
Wi

0101100
-9 7 *
Fa
0  1.00000004076197e-07 4 10

0101000
+4 0 *
Sh

0101100
+13 0 +7 0 +5 0 -3 0 *
So

0100000
+2 0 *

+1 0 