DBRep_DrawableShape

CASCADE Topology V1, (c) Matra-Datavision
Locations 17
1
              1               0               0               0 
              0               1               0               0 
              0               0               1              -1 
1
              1               0               0               0 
              0               1               0               0 
              0               0               1               0 
1
              1               0               0               0 
              0               1               0               0 
              0               0               1               0 
1
              1               0               0               0 
              0               1               0               0 
              0               0               1               0 
1
              1               0               0               0 
              0               1               0               0 
              0               0               1               0 
1
1.11022302462516e-16               0               1               0 
              0               1               0               0 
             -1               0 1.11022302462516e-16               0 
1
              1               0               0              -0 
              0               1               0 3.88908730122752 
              0               0               1              18 
2  2 1 3 1 4 1 5 1 6 1 7 1 0
1
              1               0               0              18 
              0               1               0               0 
              0               0               1               0 
1
              1               0               0               0 
              0               1               0               0 
              0               0               1               0 
2  9 1 10 1 0
2  7 -1 6 -1 5 -1 4 -1 3 -1 2 -1 0
2  5 -1 4 -1 3 -1 2 -1 0
1
              1               0               0               0 
              0               1               0               0 
              0               0               1             -13 
2  14 -1 7 -1 6 -1 5 -1 4 -1 3 -1 2 -1 0
1
              1               0               0               0 
              0               1               0               0 
              0               0               1               1 
2  16 -1 14 -1 7 -1 6 -1 5 -1 4 -1 3 -1 2 -1 0
Curve2ds 8
2 -26.984123786711791 -230.90906562298153 -1 0 0 1 1.25
1 0 1 1 0 
1 6.2831853071795862 -0 0 1 
1 0 -0 0 1 
1 0 14 1 0 
2 0 0 1 0 -0 1 1.25
1 0 0 1 0 
1 0 -1 1 0 
Curves 3
2 18 920 231 -1 0 0 0 0 -1 -0 -1 -0 1.25
1 19 920 229.75 -1 0 0 
2 5 920 231 -1 0 0 0 0 -1 -0 -1 -0 1.25
Polygon3D 0
PolygonOnTriangulations 0
Surfaces 5
1 257.9841237867119 692.98002167824632 1 0 0 1 1 0 -0 -0 1 0 
1 0 689.09093437701847 257.98412378671179 1 0 0 -0 0 1 0 -1 0 
2 19 920 231 -1 0 0 0 0 -1 -0 -1 -0 1.25
1 5 920 231 -1 0 0 0 0 -1 -0 -1 -0 
2 231 923.88908730122751 8.8817841970012523e-16 1.1102230246251565e-16 -0 -1 -1 0 -1.1102230246251565e-16 -0 -1 0 1.25
Triangulations 0

TShapes 13
Ve
1.00000007749096e-07
229.75 923.889087301228 -3.5527136788005e-15
0 0

0101101
*
Ed
 1.00000007749096e-07 1 1 0
1  1 0 0 6.28318530717959
2  1 2 11 0 6.28318530717959
2  2 3 0 0 6.28318530717959
0

0101000
+13 12 -13 12 *
Wi

0101100
+12 8 *
Fa
0  1.00000004076197e-07 1 1

0101000
+11 0 *
Ve
1e-07
5 920 229.75
0 0

0101101
*
Ed
 1e-07 1 1 0
1  2 0 1 14
3  3 4CN 3 0 1 14
0

0101000
+13 12 -9 13 *
Ed
 1e-07 1 1 0
1  3 0 0 6.28318530717959
2  5 3 0 0 6.28318530717959
2  6 4 0 0 6.28318530717959
2  7 5 15 0 6.28318530717959
2  8 5 17 0 6.28318530717959
0

0101000
+9 13 -9 13 *
Wi

0101100
+8 8 +12 8 -8 8 -7 8 *
Fa
0  1e-07 3 8

0101000
+6 0 *
Wi

0101100
+7 0 *
Fa
0  1e-07 4 0

0111000
+4 0 *
Sh

0101100
-10 0 +5 0 +3 8 *
So

0100000
+2 0 *

+1 0 