DBRep_DrawableShape

CASCADE Topology V1, (c) Matra-Datavision
Locations 12
1
              1               0               0               0 
              0               1               0               0 
              0               0               1              -1 
1
              1               0               0               0 
              0               1               0               0 
              0               0               1               0 
1
              1               0               0               0 
              0               1               0               0 
              0               0               1               0 
1
              1               0               0               0 
              0               1               0               0 
              0               0               1               0 
1
              1               0               0               0 
              0               1               0               0 
              0               0               1               0 
1
              1               0               0               0 
              0               1               0               0 
              0               0               1               0 
1
1.11022302462516e-16               0               1               0 
              0               1               0               0 
             -1               0 1.11022302462516e-16               0 
1
              1               0               0              -0 
              0               1               0 3.88908730122752 
              0               0               1              18 
1
              1               0               0               0 
              0               1               0               0 
              0               0               1             -18 
1
              1               0               0               0 
              0               1               0               0 
              0               0               1               1 
2  2 1 3 1 4 1 5 1 6 1 7 1 8 1 9 1 10 1 0
2  10 -1 9 -1 8 -1 7 -1 6 -1 5 -1 4 -1 3 -1 2 -1 0
Curve2ds 5
1 142.06587621328811 -689.09093437701881 -1 0 
1 338.91587621328807 438.0340656229813 -0.17204376626835494 -0.98508930685912921 
1 338.91587621328807 619.00906562298121 0 -1 
1 -257.9841237867119 619.00906562298121 1 0 
1 -257.9841237867119 -689.09093437701881 0 1 
Curves 5
1 400.05000000000001 3.8890873012275202 1.000000000000016 -1 0 -1.1102230246251565e-16 
1 0 1127.125 596.89999999999998 0 -0.98508930685912921 -0.17204376626835494 
1 0 1308.0999999999999 596.89999999999998 0 -1 0 
1 0 1311.9890873012275 0.99999999999997158 1 0 1.1102230246251565e-16 
1 0 0 0 0 1 0 
Polygon3D 0
PolygonOnTriangulations 0
Surfaces 1
1 257.9841237867119 692.98002167824632 1 0 0 1 1 0 -0 -0 1 0 
Triangulations 0

TShapes 11
Ve
1.00000004076197e-07
400.05 3.88908730122752 1.00000000000002
0 0

0101101
*
Ve
1.00000004520286e-07
9.99200722162641e-16 3.88908730122752 0.99999999999997
0 0

0101101
*
Ed
 1.00000004076197e-07 1 1 0
1  1 0 9.86076131526265e-32 400.05
2  1 1 0 9.86076131526265e-32 400.05
0

0101000
+11 0 -10 0 *
Ve
1.00000004076197e-07
596.9 1131.01408730123 1.00000000000004
0 0

0101101
*
Ed
 1.00000004076197e-07 1 1 0
1  2 0 0 1144.18560038352
2  2 1 12 0 1144.18560038352
0

0101000
+8 12 -11 12 *
Ve
1.00000004076197e-07
596.9 1311.98908730123 1.00000000000004
0 0

0101101
*
Ed
 1.00000004076197e-07 1 1 0
1  3 0 0 180.975
2  3 1 12 0 180.975
0

0101000
+6 12 -8 12 *
Ve
1.00000004076197e-07
9.99200722162641e-16 1311.98908730123 0.99999999999997
0 0

0101101
*
Ed
 1.00000004076197e-07 1 1 0
1  4 0 9.99200722162641e-16 596.9
2  4 1 0 9.99200722162641e-16 596.9
0

0101000
+4 0 -6 0 *
Ed
 1.00000004076197e-07 1 1 0
1  5 0 0 1308.1
2  5 1 12 0 1308.1
0

0101000
+10 12 -4 12 *
Wi

0101100
-9 0 -7 11 -5 11 -3 0 -2 11 *

+1 1 