DBRep_DrawableShape

CASCADE Topology V1, (c) Matra-Datavision
Locations 17
1
              1               0               0               0 
              0               1               0               0 
              0               0               1              -1 
1
              1               0               0               0 
              0               1               0               0 
              0               0               1               0 
1
              1               0               0               0 
              0               1               0               0 
              0               0               1               0 
1
1.11022302462516e-16               0               1               0 
              0               1               0               0 
             -1               0 1.11022302462516e-16               0 
1
              1               0               0              -0 
              0               1               0 3.88908730122752 
              0               0               1              18 
2  2 1 3 1 4 1 5 1 0
1
              1               0               0              18 
              0               1               0               0 
              0               0               1               0 
1
              1               0               0               0 
              0               1               0               0 
              0               0               1               0 
1
              1               0               0               0 
              0               1               0               0 
              0               0               1               0 
1
              1               0               0               0 
              0               1               0               0 
              0               0               1               0 
2  7 1 8 1 9 1 10 1 0
2  5 -1 4 -1 3 -1 2 -1 0
2  3 -1 2 -1 0
1
              1               0               0               0 
              0               1               0               0 
              0               0               1 -1.00000000000001 
2  14 -1 5 -1 4 -1 3 -1 2 -1 0
1
              1               0               0               0 
              0               1               0               0 
              0               0               1               1 
2  16 -1 14 -1 5 -1 4 -1 3 -1 2 -1 0
Curve2ds 8
2 62.126041270741496 -353.40906562298153 1 0 -0 1 1.5
1 0 1 1 0 
1 6.2831853071795862 -0 0 1 
1 0 -0 0 1 
1 0 0 1 0 
2 0 0 1 0 -0 1 1.5
1 0 0 1 0 
1 0 -1 1 0 
Curves 3
2 18 1042.5 320.11016505745329 1 0 0 -0 0 1 0 -1 0 1.5
1 17 1042.5 321.61016505745329 1 0 0 
2 17 1042.5 320.11016505745329 1 0 0 -0 0 1 0 -1 0 1.5
Polygon3D 0
PolygonOnTriangulations 0
Surfaces 5
1 257.9841237867119 692.98002167824632 1 0 0 1 1 0 -0 -0 1 0 
1 0 689.09093437701847 257.98412378671179 1 0 0 -0 0 1 0 -1 0 
2 17 1042.5 320.11016505745329 1 0 0 -0 0 1 0 -1 0 1.5
1 17 1042.5 320.11016505745329 1 0 0 -0 0 1 0 -1 0 
2 320.11016505745329 1046.3890873012276 0 1.1102230246251565e-16 0 -1 1 0 1.1102230246251565e-16 0 -1 0 1.5
Triangulations 0

TShapes 13
Ve
1.00000011325847e-07
321.610165057453 1046.38908730123 7.105427357601e-15
0 0

0101101
*
Ed
 1.00000011325847e-07 1 1 0
1  1 0 0 6.28318530717959
2  1 2 11 0 6.28318530717959
2  2 3 0 0 6.28318530717959
0

0101000
+13 12 -13 12 *
Wi

0101100
-12 6 *
Fa
0  1.00000004076197e-07 1 1

0101000
+11 0 *
Ve
1e-07
17 1042.5 321.610165057453
0 0

0101101
*
Ed
 1e-07 1 1 0
1  2 0 0 1
3  3 4CN 3 0 0 1
0

0101000
+9 13 -13 12 *
Ed
 1e-07 1 1 0
1  3 0 0 6.28318530717959
2  5 3 0 0 6.28318530717959
2  6 4 0 0 6.28318530717959
2  7 5 15 0 6.28318530717959
2  8 5 17 0 6.28318530717959
0

0101000
+9 13 -9 13 *
Wi

0101100
-12 6 +8 6 +7 6 -8 6 *
Fa
0  1e-07 3 6

0101000
+6 0 *
Wi

0101100
-7 0 *
Fa
0  1e-07 4 0

0111000
-4 0 *
Sh

0101100
-10 0 +5 0 -3 6 *
So

0100000
+2 0 *

+1 0 