DBRep_DrawableShape

CASCADE Topology V1, (c) Matra-Datavision
Locations 12
1
              1               0               0               0 
              0               1               0               0 
              0               0               1              -1 
1
              1               0               0               0 
              0               1               0               0 
              0               0               1               0 
1
              1               0               0               0 
              0               1               0               0 
              0               0               1               0 
1
              1               0               0               0 
              0               1               0               0 
              0               0               1               0 
1
              1               0               0               0 
              0               1               0               0 
              0               0               1               0 
1
              1               0               0               0 
              0               1               0               0 
              0               0               1               0 
1
1.11022302462516e-16               0              -1               0 
              0               1               0               0 
              1               0 1.11022302462516e-16               0 
1
              1               0               0           596.9 
              0               1               0 3.88908730122752 
              0               0               1            -582 
1
              1               0               0               0 
              0               1               0               0 
              0               0               1             -18 
1
              1               0               0               0 
              0               1               0               0 
              0               0               1               1 
2  2 1 3 1 4 1 5 1 6 1 7 1 8 1 9 1 10 1 0
2  10 -1 9 -1 8 -1 7 -1 6 -1 5 -1 4 -1 3 -1 2 -1 0
Curve2ds 5
1 -142.06587621328822 -689.09093437701881 1 0 
1 257.98412378671185 -689.09093437701881 0 1 
1 257.98412378671185 619.00906562298121 -1 0 
1 -338.91587621328813 619.00906562298121 0 -1 
1 -338.91587621328813 438.0340656229813 0.17204376626835494 -0.98508930685912921 
Curves 5
1 196.84999999999991 3.8890873012275202 1 1 -0 -1.1102230246251565e-16 
1 600 0 0 -0 1 -0 
1 596.89999999999998 1311.9890873012275 1 -1 0 1.1102230246251565e-16 
1 600 1308.0999999999999 596.89999999999998 -0 -1 -0 
1 600 1127.125 596.89999999999998 -0 -0.98508930685912921 -0.17204376626835494 
Polygon3D 0
PolygonOnTriangulations 0
Surfaces 1
1 338.91587621328813 692.98002167824632 1.0000000000000309 0 0 1 1 0 -0 -0 1 0 
Triangulations 0

TShapes 11
Ve
1.00000014654944e-07
196.85 3.88908730122752 1
0 0

0101101
*
Ve
1.00000014210855e-07
596.9 3.88908730122752 1
0 0

0101101
*
Ed
 1.00000014210855e-07 1 1 0
1  1 0 0 400.05
2  1 1 0 0 400.05
0

0101000
+11 0 -10 0 *
Ve
1.00000014210855e-07
596.9 1311.98908730123 1
0 0

0101101
*
Ed
 1.00000014210855e-07 1 1 0
1  2 0 0 1308.1
2  2 1 12 0 1308.1
0

0101000
+10 12 -8 12 *
Ve
1.00000014210855e-07
0 1311.98908730123 1.00000000000011
0 0

0101101
*
Ed
 1.00000014210855e-07 1 1 0
1  3 0 0 596.9
2  3 1 0 0 596.9
0

0101000
+8 0 -6 0 *
Ve
1.00000014210855e-07
0 1131.01408730123 1.00000000000011
0 0

0101101
*
Ed
 1.00000014210855e-07 1 1 0
1  4 0 0 180.975
2  4 1 12 0 180.975
0

0101000
+6 12 -4 12 *
Ed
 1.00000014210855e-07 1 1 0
1  5 0 0 1144.18560038352
2  5 1 12 0 1144.18560038352
0

0101000
+4 12 -11 12 *
Wi

0101100
+9 0 +7 11 +5 0 +3 11 +2 11 *

+1 1 