DBRep_DrawableShape

CASCADE Topology V1, (c) Matra-Datavision
Locations 71
1
              1               0               0               0 
              0               1               0               0 
              0               0               1               0 
1
1.11022302462516e-16               0              -1               0 
              0               1               0               0 
              1               0 1.11022302462516e-16               0 
1
              1               0               0           596.9 
              0               1               0 3.88908730122752 
              0               0               1            -582 
2  1 1 2 1 3 1 0
1
              1               0               0               0 
              0               1               0               0 
              0               0               1               0 
1
              1               0               0               0 
              0               1               0               0 
              0               0               1               0 
1
              1               0               0               0 
              0               1               0               0 
              0               0               1               0 
1
              1               0               0               0 
              0               1               0               0 
              0               0               1               0 
2  5 1 6 1 7 1 8 1 0
2  1 -1 8 -1 7 -1 6 -1 5 -1 0
1
              1               0               0              18 
              0               1               0               0 
              0               0               1               0 
2  11 -1 0
2  1 -1 8 -1 7 -1 6 -1 5 -1 11 -1 0
2  6 1 7 1 8 1 0
2  1 -1 8 -1 7 -1 6 -1 0
2  11 1 5 1 0
1
              1               0               0               0 
              0               1               0               0 
              0               0               1             -18 
2  17 -1 3 -1 2 -1 1 -1 8 -1 7 -1 6 -1 0
1
              1               0               0               0 
              0               1               0               0 
              0               0               1               1 
2  19 -1 17 -1 3 -1 2 -1 1 -1 8 -1 7 -1 6 -1 0
2  7 1 8 1 0
2  5 1 6 1 0
2  1 -1 8 -1 7 -1 0
2  11 1 5 1 6 1 0
1
              1               0               0               0 
              0               1               0               0 
              0               0               1              -3 
2  25 -1 3 -1 2 -1 1 -1 8 -1 7 -1 0
1
              1               0               0               0 
              0               1               0               0 
              0               0               1               1 
2  27 -1 25 -1 3 -1 2 -1 1 -1 8 -1 7 -1 0
1
              1               0               0               0 
              0               1               0               0 
              0               0               1              -3 
2  29 -1 3 -1 2 -1 1 -1 8 -1 7 -1 0
1
              1               0               0               0 
              0               1               0               0 
              0               0               1               1 
2  31 -1 29 -1 3 -1 2 -1 1 -1 8 -1 7 -1 0
2  11 1 5 1 6 1 7 1 8 1 0
2  11 1 5 1 6 1 7 1 0
2  1 -1 8 -1 0
1
              1               0               0               0 
              0               1               0               0 
              0               0               1              -1 
2  36 -1 3 -1 2 -1 1 -1 8 -1 0
1
              1               0               0               0 
              0               1               0               0 
              0               0               1               1 
2  38 -1 36 -1 3 -1 2 -1 1 -1 8 -1 0
1
              1               0               0               0 
              0               1               0               0 
              0               0               1              -1 
2  40 -1 3 -1 2 -1 1 -1 8 -1 0
1
              1               0               0               0 
              0               1               0               0 
              0               0               1               1 
2  42 -1 40 -1 3 -1 2 -1 1 -1 8 -1 0
1
              1               0               0               0 
              0               1               0               0 
              0               0               1              -1 
2  44 -1 3 -1 2 -1 1 -1 8 -1 0
1
              1               0               0               0 
              0               1               0               0 
              0               0               1               1 
2  46 -1 44 -1 3 -1 2 -1 1 -1 8 -1 0
1
              1               0               0               0 
              0               1               0               0 
              0               0               1             -13 
2  48 -1 3 -1 2 -1 1 -1 8 -1 7 -1 6 -1 0
1
              1               0               0               0 
              0               1               0               0 
              0               0               1               1 
2  50 -1 48 -1 3 -1 2 -1 1 -1 8 -1 7 -1 6 -1 0
1
              1               0               0               0 
              0               1               0               0 
              0               0               1             -13 
2  52 -1 3 -1 2 -1 1 -1 8 -1 7 -1 6 -1 0
1
              1               0               0               0 
              0               1               0               0 
              0               0               1               1 
2  54 -1 52 -1 3 -1 2 -1 1 -1 8 -1 7 -1 6 -1 0
1
              1               0               0               0 
              0               1               0               0 
              0               0               1             -13 
2  56 -1 3 -1 2 -1 1 -1 8 -1 7 -1 6 -1 0
1
              1               0               0               0 
              0               1               0               0 
              0               0               1               1 
2  58 -1 56 -1 3 -1 2 -1 1 -1 8 -1 7 -1 6 -1 0
1
              1               0               0               0 
              0               1               0               0 
              0               0               1             -13 
2  60 -1 3 -1 2 -1 1 -1 8 -1 7 -1 6 -1 0
1
              1               0               0               0 
              0               1               0               0 
              0               0               1               1 
2  62 -1 60 -1 3 -1 2 -1 1 -1 8 -1 7 -1 6 -1 0
1
              1               0               0               0 
              0               1               0               0 
              0               0               1             -13 
2  64 -1 3 -1 2 -1 1 -1 8 -1 7 -1 6 -1 0
1
              1               0               0               0 
              0               1               0               0 
              0               0               1               1 
2  66 -1 64 -1 3 -1 2 -1 1 -1 8 -1 7 -1 6 -1 0
1
              1               0               0               0 
              0               1               0               0 
              0               0               1             -13 
2  68 -1 3 -1 2 -1 1 -1 8 -1 7 -1 6 -1 0
1
              1               0               0               0 
              0               1               0               0 
              0               0               1               1 
2  70 -1 68 -1 3 -1 2 -1 1 -1 8 -1 7 -1 6 -1 0
Curve2ds 190
1 0 0 0 -1 
1 400.05000000000001 0 0 -1 
1 1308.0999999999999 0 0 -1 
1 0 0 0 -1 
1 0 0 1 0 
1 -257.98412378671179 689.09093437701847 0 -1 
1 0 -18 1 0 
1 -257.98412378671179 689.09093437701847 0 -1 
1 0 0 1 0 
1 142.06587621328822 689.09093437701847 -1 -0 
3 246.05000000000001 0 -0 -1 1 -0 7.7781745930519719 5.5
7 0 0  8 9 2  4.4788552528189136 8.7272077938646202  4.7043965096139981 9.9340115970295528  4.9299377664094877 11.214811221796481  5.1554790232042009 12.476052954465558  5.381020279995731 13.616201535405708  5.606561536792718 14.540763941113255  5.8321027935899323 15.180251997151572  6.0576440503845017 15.5  6.2831853071795862 15.5 
 4.4788552528189136 9 6.2831853071795862 9
3 246.05000000000001 0 -0 -1 1 -0 7.7781745930519719 5.5
7 0 0  8 9 2  0 15.5  0.22554125679508411 15.5  0.45108251358954021 15.180251997160667  0.67662377038459454 14.540763941091427  0.90216502717612457 13.616201535442087  1.1277062839758401 12.47605295444373  1.3532475407698712 11.2148112217983  1.5787887975655888 9.9340115970295528  1.8043300543606728 8.7272077938646202 
 0 9 1.8043300543606728 9
1 0 0 1 0 
1 142.06587621328822 689.09093437701847 -1 -0 
3 304.05000000000001 0 -0 -1 1 -0 7.7781745930519719 5.5
7 0 0  8 9 2  4.4788552528189118 8.7272077938646095  4.7043965096139964 9.9340115970295439  4.9299377664096014 11.214811221794662  5.1554790232037462 12.47605295444373  5.3810202800043712 13.616201535391156  5.6065615367940822 14.540763941120531  5.8321027935899323 15.180251997142477  6.0576440503845017 15.5  6.2831853071795862 15.5 
 4.4788552528189118 9 6.2831853071795862 9
3 304.05000000000001 0 -0 -1 1 -0 7.7781745930519719 5.5
7 0 0  8 9 2  0 15.5  0.22554125679508424 15.5  0.45108251358988127 15.180251997144296  0.67662377038686827 14.540763941156911  0.90216502717703406 13.616201535369328  1.1277062839762948 12.47605295448011  1.3532475407698712 11.214811221781929  1.5787887975655894 9.9340115970295493  1.8043300543606737 8.7272077938646149 
 0 9 1.804330054360674 9
1 0 0 1 0 
1 142.06587621328822 689.09093437701847 -1 -0 
1 -0 -18 1 0 
1 142.06587621328822 689.09093437701847 -1 -0 
1 0 0 0 -1 
1 1144.1856003835217 0 0 -1 
1 0 0 1 0 
1 -257.98412378671179 -619.00906562298144 1 0 
3 64 -1.1368999999999999e-13 0 -1 1 0 7.7781745930519719 5.5
7 0 0  8 16 3  1.3372625992285925 8.7272077938620214  1.5628038560237418 9.9340115970271547  1.7883451128188881 11.214811221796481  2.0138863696101907 12.476052954421903  2.2394276264058135 13.616201535507571  2.4649688832014363 14.540763941113255  2.690510140000697 15.180251997151572  2.9160513967946438 15.500000000000114  3.3671339103849425 15.500000000000114  3.5926751671763668 15.180251997151572  3.8182164239788108 14.540763941171463  4.0437576807416917 13.616201535442087  4.2692989375755133 12.476052954523766  4.4948401943565841 11.214811221796481  4.720381451155844 9.9340115970271547  4.9459227079509933 8.7272077938620214 
 4.4788552528183905 9 6.2831853071795862 7 8.0875153615407811 9
1 0 0 1 0 
1 -257.98412378671179 -619.00906562298144 1 0 
3 122 -1.1368999999999999e-13 0 -1 1 0 7.7781745930519719 5.5
7 0 0  8 16 3  1.3372625992285925 8.7272077938620214  1.5628038560237418 9.9340115970271547  1.7883451128184333 11.214811221796481  2.0138863696056433 12.476052954421903  2.2394276264149084 13.616201535507571  2.4649688831959793 14.540763941113255  2.6905101399993328 15.180251997151572  2.9160513967946438 15.500000000000114  3.3671339103849425 15.500000000000114  3.5926751671763668 15.180251997151572  3.8182164239788108 14.540763941171463  4.0437576807416917 13.616201535442087  4.2692989375755133 12.476052954523766  4.4948401943565841 11.214811221796481  4.720381451155844 9.9340115970271547  4.9459227079509933 8.7272077938620214 
 4.4788552528183905 9 6.2831853071795862 7 8.0875153615407811 9
1 0 0 1 0 
1 -257.98412378671179 -619.00906562298144 1 0 
1 596.89999999999998 0 0 -1 
1 0 0 0 -1 
1 0 -18 1 0 
1 -257.98412378671179 -619.00906562298144 1 0 
7 0 0  8 30 5  0 29.955844122715714  0.19634954084936207 29.955844122715714  0.39269908169967493 30.198178390597604  0.58904862254621548 30.682844867769745  0.78539816339889512 31.389920994464774  0.98174770424247981 32.279521185992053  1.17809724509641 33.295998916928511  1.3744467859455345 34.375921648044226  1.7180584824319183 36.265785978719329  1.8653206380687126 37.075727538303731  2.0125827937057608 37.858905788907123  2.1598449493428689 38.588550275502712  2.3071071049800622 39.239761326872895  2.454369260617252 39.791341859212395  2.6016314162540466 40.227230222056164  2.9697868053466006 41.002108545735211  3.1906800388010197 41.183677561741206  3.4115732722548273 41.047323746272014  3.6324665056999947 40.587959675234742  3.853359739174266 39.83544231185806  4.0742529726194334 38.85214357705263  4.2951462060797949 37.720409469330654  4.7369326729908598 35.337272318278188  4.9578259064437589 34.085867955946014  5.1787191399052972 32.863231245864881  5.3996123733231798 31.764154431351926  5.6205056068283739 30.875951861220528  5.8413988402635368 30.262548866703582  6.0622920737240431 29.955844122715714  6.2831853071795756 29.955844122715714 
 3.1415926535897931 9 4.7123889803847163 7 5.890486225480899 7 7.6576320931251391 7 9.4247779607693793 9
3 -103.98412378671179 671.09093437701847 0 -1 1 0 7.7781745930520216 5.5
1 6.2831853071795862 -0 0 1 
1 0 -0 0 1 
7 0 0  8 30 5  0 4.5  0.19634954084936207 4.5  0.39269908169819701 4.742334267921251  0.58904862254894397 5.2270007451297715  0.78539816339161916 5.9340768718138861  0.98174770425021052 6.8236770633375272  1.1780972450959553 7.8401547942430625  1.3744467859455343 8.920077525328507  1.7180584824319181 10.809941856003615  1.8653206380687977 11.619883415588889  2.0125827937063718 12.403061666176654  2.1598449493434373 13.132706152780884  2.3071071049801617 13.783917204162947  2.4543692606171668 14.335497736493124  2.6016314162540466 14.771386099340463  2.9697868053466006 15.546264423019501  3.1906800388010197 15.727833439043025  3.4115732722548273 15.591479623566556  3.6324665057145467 15.132115552638425  3.85335973916699 14.379598189108947  4.0742529726212524 13.39629945438719  4.2951462060797949 12.26456534661494  4.7369326729908598 9.8814281955624743  4.9578259064473968 8.6300238332496519  5.1787191398907453 7.4073871230866644  5.3996123733522836 6.308310308635555  5.62050560679927 5.4201077384677774  5.8413988402708128 4.8067047440017632  6.0622920737240431 4.5000000000000009  6.2831853071795756 4.5 
 3.1415926535897931 9 4.7123889803846879 7 5.8904862254808563 7 7.6576320931251178 7 9.4247779607693793 9
3 -103.98412378671179 689.09093437701847 0 -1 1 0 7.7781745930520225 5.5
1 0 0 1 0 
1 0 -1 1 0 
7 0 0  8 30 5  0 29.955844122715714  0.19634954084936207 29.955844122715714  0.3926990816974012 30.198178390597604  0.58904862254667023 30.682844867769745  0.78539816339616664 31.389920994464774  0.98174770424611779 32.279521185992053  1.1780972450951595 33.295998916928511  1.3744467859455345 34.375921648044226  1.7180584824319183 36.265785978719329  1.8653206380690537 37.075727538303731  2.0125827937062155 37.858905788907123  2.1598449493433236 38.588550275502712  2.3071071049802612 39.239761326872895  2.4543692606170815 39.791341859212395  2.6016314162540466 40.227230222056164  2.9697868053466006 41.002108545735211  3.1906800388010197 41.183677561741206  3.4115732722548273 41.047323746272014  3.6324665057145467 40.587959675234742  3.85335973916699 39.83544231185806  4.0742529726212524 38.85214357705263  4.2951462060797949 37.720409469330654  4.7369326729908598 35.337272318278188  4.9578259064464874 34.085867955946014  5.1787191398980212 32.863231245864881  5.3996123733522836 31.764154431351926  5.6205056068174599 30.875951861220528  5.8413988402699033 30.262548866703582  6.0622920737240431 29.955844122715714  6.2831853071795756 29.955844122715714 
 3.1415926535897931 9 4.7123889803847163 7 5.890486225480899 7 7.6576320931251391 7 9.4247779607693793 9
3 -161.98412378671179 671.09093437701847 0 -1 1 0 7.7781745930520216 5.5
1 6.2831853071795862 -0 0 1 
1 0 -0 0 1 
7 0 0  8 30 5  0 4.5  0.19634954084936207 4.5  0.3926990816974012 4.742334267921251  0.58904862255030821 5.2270007451297715  0.78539816339161916 5.9340768718138861  0.98174770424930102 6.8236770633375272  1.1780972450948184 7.8401547942430625  1.3744467859455343 8.920077525328507  1.7180584824319181 10.809941856003615  1.8653206380690535 11.619883415588889  2.0125827937062155 12.403061666176654  2.1598449493433236 13.132706152780884  2.3071071049802612 13.783917204162947  2.4543692606170815 14.335497736493124  2.6016314162540466 14.771386099340463  2.9697868053466006 15.546264423019501  3.1906800388010197 15.727833439043025  3.4115732722566463 15.591479623566556  3.6324665057254606 15.132115552638425  3.8533597391615331 14.379598189108947  4.0742529726226167 13.39629945438719  4.2951462060797949 12.26456534661494  4.7369326729908598 9.8814281955624743  4.9578259064464874 8.6300238332496519  5.1787191398980212 7.4073871230866644  5.3996123733377317 6.308310308635555  5.6205056068174599 5.4201077384677774  5.8413988402662653 4.8067047440017632  6.0622920737240431 4.5000000000000009  6.2831853071795756 4.5 
 3.1415926535897931 9 4.7123889803846879 7 5.8904862254808563 7 7.6576320931251178 7 9.4247779607693793 9
3 -161.98412378671179 689.09093437701847 0 -1 1 0 7.7781745930520225 5.5
1 0 0 1 0 
1 0 -1 1 0 
1 0 0 0 -1 
1 180.97499999999991 0 0 -1 
1 0 0 1 0 
1 338.91587621328819 -438.03406562298153 -0.17204376626835494 0.98508930685912921 
1 -0 -18 1 0 
1 338.91587621328819 -438.03406562298153 -0.17204376626835494 0.98508930685912921 
7 0 0  8 30 5  0 40.955844122715689  0.19634954084936207 40.955844122715689  0.39269908169796963 40.71350985475874  0.58904862254894397 40.228843377597514  0.78539816339525714 39.521767250815174  0.98174770424611779 38.632167059433414  1.1780972450956142 37.615689328420558  1.3744467859455138 36.535766597387294  1.7180584824318974 34.645902266712191  1.8653206380691763 33.835960707121203  2.0125827937052847 33.052782456544605  2.1598449493427552 32.323137969939125  2.3071071049803322 31.671926918550525  2.4543692606166534 31.120346386224135  2.6016314162540382 30.68445802337537  2.9697868053465921 29.90957969969633  3.1906800388023839 29.728010683626053  3.4115732722584653 29.864364499066141  3.6324665056999947 30.323728570016101  3.853359739176085 31.07624593359651  4.0742529726226167 32.059544668289163  4.2951462060798171 33.191278776100873  4.7369326729908821 35.574415927153339  4.9578259064446684 36.825820289450348  5.1787191399089352 38.048456999531481  5.3996123733704735 39.147533813986229  5.620505606806546 40.035736384132179  5.8413988402689938 40.649139378685504  6.0622920737240431 40.955844122715689  6.2831853071795756 40.955844122715689 
 0 9 1.5707963267949068 7 2.7488935718910765 7 4.5160394395353318 7 6.2831853071795862 9
3 -193.98412378671179 -601.00906562298144 0 1 -1 0 7.7781745930519719 5.5
1 6.2831853071795862 -0 0 1 
1 0 -0 0 1 
7 0 0  8 30 5  0 15.5  0.19634954084936207 15.5  0.39269908169762857 15.257665732073292  0.58904862254848922 14.772999254826573  0.78539816339616664 14.065923128160648  0.9817477042452083 13.176322936604265  1.1780972450957279 12.159845205751481  1.3744467859455138 11.079922474671605  1.7180584824318974 9.1900581439964952  1.8653206380684941 8.3801165844099454  2.0125827937066489 7.5969383338267278  2.1598449493428689 6.8672938472222995  2.3071071049791527 6.216082795837309  2.4543692606174208 5.6645022635074227  2.6016314162540382 5.2286139006596812  2.9697868053465921 4.453735576980641  3.1906800388010197 4.2721665609587944  3.4115732722548273 4.4085203763715981  3.6324665056963568 4.8678844473615754  3.85335973916699 5.6204018108437594  4.0742529726226167 6.6037005456237239  4.2951462060798171 7.7354346533851848  4.7369326729908821 10.11857180443765  4.9578259064437589 11.369976166730339  5.1787191398980212 12.592612876942439  5.3996123733522836 13.691689691317151  5.620505606810184 14.579892261543137  5.8413988402644463 15.193295255981866  6.0622920737240431 15.5  6.2831853071795756 15.5 
 0 9 1.5707963267948961 7 2.7488935718910681 7 4.5160394395353265 7 6.2831853071795862 9
3 -193.98412378671179 -619.00906562298144 0 1 -1 0 7.7781745930519719 5.5
1 0 0 1 0 
1 0 -1 1 0 
7 0 0  8 30 5  0 15.5  0.19634954084936207 15.5  0.39269908169762857 15.257665732073292  0.58904862254848922 14.772999254826573  0.78539816339616664 14.065923128160648  0.9817477042452083 13.176322936604265  1.1780972450957279 12.159845205751481  1.3744467859455138 11.079922474671605  1.7180584824318974 9.1900581439964952  1.8653206380684941 8.3801165844099454  2.0125827937066489 7.5969383338267278  2.1598449493428689 6.8672938472222995  2.3071071049791527 6.216082795837309  2.4543692606174208 5.6645022635074227  2.6016314162540382 5.2286139006596812  2.9697868053465921 4.453735576980641  3.1906800388010197 4.2721665609587944  3.4115732722548273 4.4085203763715981  3.6324665056963568 4.8678844473615754  3.85335973916699 5.6204018108437594  4.0742529726226167 6.6037005456237239  4.2951462060798171 7.7354346533851848  4.7369326729908821 10.11857180443765  4.9578259064437589 11.369976166730339  5.1787191398980212 12.592612876942439  5.3996123733522836 13.691689691317151  5.620505606810184 14.579892261543137  5.8413988402644463 15.193295255981866  6.0622920737240431 15.5  6.2831853071795756 15.5 
 0 9 1.5707963267948961 7 2.7488935718910681 7 4.5160394395353265 7 6.2831853071795862 9
3 -193.98412378671179 -619.00906562298144 0 1 -1 0 7.7781745930519719 5.5
1 0 0 1 0 
1 0 -1 1 0 
7 0 0  8 30 5  0 40.955844122715689  0.19634954084936207 40.955844122715689  0.39269908169865175 40.71350985475874  0.58904862254621548 40.228843377597514  0.78539816339798563 39.521767250815174  0.9817477042452083 38.632167059433414  1.1780972450962963 37.615689328420558  1.3744467859455138 36.535766597387294  1.7180584824318974 34.645902266712191  1.8653206380690057 33.835960707121203  2.0125827937057679 33.052782456544605  2.1598449493432099 32.323137969939125  2.3071071049803749 31.671926918550525  2.4543692606167387 31.120346386224135  2.6016314162540373 30.68445802337537  2.9697868053465908 29.90957969969633  3.1906800388042029 29.728010683626053  3.4115732722584653 29.864364499066141  3.6324665057072707 30.323728570016101  3.853359739176085 31.07624593359651  4.0742529726226167 32.059544668289163  4.2951462060798171 33.191278776100873  4.7369326729908821 35.574415927153339  4.9578259064446684 36.825820289450348  5.1787191399089352 38.048456999531481  5.3996123733704735 39.147533813986229  5.620505606806546 40.035736384132179  5.8413988402689938 40.649139378685504  6.0622920737240431 40.955844122715689  6.2831853071795756 40.955844122715689 
 0 9 1.5707963267949059 7 2.7488935718910752 7 4.51603943953533 7 6.2831853071795862 9
3 -135.98412378671179 -601.00906562298144 0 1 -1 0 7.7781745930519719 5.5
1 6.2831853071795862 -0 0 1 
1 0 -0 0 1 
7 0 0  8 30 5  0 15.5  0.19634954084936207 15.5  0.39269908169887913 15.257665732073292  0.58904862254803447 14.772999254826573  0.78539816339707613 14.065923128160648  0.98174770424566304 13.176322936604265  1.1780972450965237 12.159845205751481  1.3744467859455138 11.079922474671605  1.7180584824318974 9.1900581439964952  1.8653206380690484 8.3801165844099454  2.0125827937060734 7.5969383338267278  2.1598449493433236 6.8672938472222995  2.3071071049802327 6.216082795837309  2.4543692606167387 5.6645022635074227  2.6016314162540373 5.2286139006596812  2.9697868053465908 4.453735576980641  3.1906800388010197 4.2721665609587944  3.4115732722548273 4.4085203763715981  3.6324665056963568 4.8678844473615754  3.85335973916699 5.6204018108437594  4.0742529726226167 6.6037005456237239  4.2951462060798171 7.7354346533851848  4.7369326729908821 10.11857180443765  4.9578259064437589 11.369976166730339  5.1787191398980212 12.592612876942439  5.3996123733522836 13.691689691317151  5.620505606810184 14.579892261543137  5.8413988402644463 15.193295255981866  6.0622920737240431 15.5  6.2831853071795756 15.5 
 0 9 1.5707963267948954 7 2.7488935718910672 7 4.5160394395353265 7 6.2831853071795862 9
3 -135.98412378671179 -619.00906562298144 0 1 -1 0 7.7781745930519719 5.5
1 0 0 1 0 
1 0 -1 1 0 
7 0 0  8 30 5  0 15.5  0.19634954084936207 15.5  0.39269908169887913 15.257665732073292  0.58904862254803447 14.772999254826573  0.78539816339707613 14.065923128160648  0.98174770424566304 13.176322936604265  1.1780972450965237 12.159845205751481  1.3744467859455138 11.079922474671605  1.7180584824318974 9.1900581439964952  1.8653206380690484 8.3801165844099454  2.0125827937060734 7.5969383338267278  2.1598449493433236 6.8672938472222995  2.3071071049802327 6.216082795837309  2.4543692606167387 5.6645022635074227  2.6016314162540373 5.2286139006596812  2.9697868053465908 4.453735576980641  3.1906800388010197 4.2721665609587944  3.4115732722548273 4.4085203763715981  3.6324665056963568 4.8678844473615754  3.85335973916699 5.6204018108437594  4.0742529726226167 6.6037005456237239  4.2951462060798171 7.7354346533851848  4.7369326729908821 10.11857180443765  4.9578259064437589 11.369976166730339  5.1787191398980212 12.592612876942439  5.3996123733522836 13.691689691317151  5.620505606810184 14.579892261543137  5.8413988402644463 15.193295255981866  6.0622920737240431 15.5  6.2831853071795756 15.5 
 0 9 1.5707963267948954 7 2.7488935718910672 7 4.5160394395353265 7 6.2831853071795862 9
3 -135.98412378671179 -619.00906562298144 0 1 -1 0 7.7781745930519719 5.5
1 0 0 1 0 
1 0 -1 1 0 
1 0 0 1 0 
1 338.91587621328819 -619.00906562298144 0 1 
1 0 -18 1 0 
1 338.91587621328819 -619.00906562298144 0 1 
2 92.60953818511922 600.09093437701847 1 0 -0 1 7.9375
1 0 1 1 0 
2 99.246157903429037 562.09093437701847 1 0 -0 1 7.9375
1 0 1 1 0 
1 0 3 1 0 
2 92.60953818511922 600.09093437701847 1 0 -0 1 12.5
1 6.2831853071795862 -0 0 1 
1 0 -0 0 1 
1 0 0 1 0 
2 0 0 1 0 -0 1 12.5
1 0 0 1 0 
1 0 -1 1 0 
2 0 0 1 0 -0 1 7.9375
1 0 16 1 0 
1 6.2831853071795862 -0 0 1 
1 0 -0 0 1 
1 0 3 1 0 
2 99.246157903429037 562.09093437701847 1 0 -0 1 12.5
1 6.2831853071795862 -0 0 1 
1 0 -0 0 1 
1 0 0 1 0 
2 0 0 1 0 -0 1 12.5
1 0 0 1 0 
1 0 -1 1 0 
2 0 0 1 0 -0 1 7.9375
1 0 16 1 0 
1 6.2831853071795862 -0 0 1 
1 0 -0 0 1 
2 -65.984123786711791 -347.90906562298153 1 0 -0 1 1.5
1 0 0 1 0 
2 62.126041270741496 -353.40906562298153 1 0 -0 1 1.5
1 0 0 1 0 
2 190.23620632819473 -366.15968547016143 1 0 -0 1 1.5
1 0 0 1 0 
2 -26.984123786711791 -300.90906562298153 -1 -0 -0 1 1.25
1 0 1 1 0 
2 -86.984123786711791 -0.90906562298152949 -1 -0 -0 1 1.25
1 0 1 1 0 
2 -26.984123786711791 -230.90906562298153 -1 -0 -0 1 1.25
1 0 1 1 0 
2 -86.984123786711791 69.090934377018471 -1 -0 -0 1 1.25
1 0 1 1 0 
2 -106.98412378671179 444.09093437701847 -1 -0 -0 1 1.25
1 0 1 1 0 
2 -106.98412378671179 514.09093437701847 -1 -0 -0 1 1.25
1 0 1 1 0 
1 0 1 1 0 
2 0 0 1 0 -0 1 1.5
1 0 0 1 0 
1 0 -1 1 0 
1 6.2831853071795862 -0 0 1 
1 0 -0 0 1 
1 0 1 1 0 
2 0 0 1 0 -0 1 1.5
1 0 0 1 0 
1 0 -1 1 0 
1 6.2831853071795862 -0 0 1 
1 0 -0 0 1 
1 0 1 1 0 
2 0 0 1 0 -0 1 1.5
1 0 0 1 0 
1 0 -1 1 0 
1 6.2831853071795862 -0 0 1 
1 0 -0 0 1 
1 6.2831853071795862 -0 0 1 
1 0 -0 0 1 
1 0 14 1 0 
2 -0 0 1 -0 0 1 1.25
1 0 0 1 0 
1 0 -1 1 0 
1 6.2831853071795862 -0 0 1 
1 0 -0 0 1 
1 0 14 1 0 
2 -0 0 1 -0 0 1 1.25
1 0 0 1 0 
1 0 -1 1 0 
1 6.2831853071795862 -0 0 1 
1 0 -0 0 1 
1 0 14 1 0 
2 -0 0 1 -0 0 1 1.25
1 0 0 1 0 
1 0 -1 1 0 
1 6.2831853071795862 -0 0 1 
1 0 -0 0 1 
1 0 14 1 0 
2 -0 0 1 -0 0 1 1.25
1 0 0 1 0 
1 0 -1 1 0 
1 6.2831853071795862 -0 0 1 
1 0 -0 0 1 
1 0 14 1 0 
2 -0 0 1 -0 0 1 1.25
1 0 0 1 0 
1 0 -1 1 0 
1 6.2831853071795862 -0 0 1 
1 0 -0 0 1 
1 0 14 1 0 
2 -0 0 1 -0 0 1 1.25
1 0 0 1 0 
1 0 -1 1 0 
Curves 78
1 600 0 0 -1 -0 -0 
1 600 1308.0999999999999 0 -1 -0 -0 
1 600 0 0 -0 1 -0 
1 564 0 0 -0 1 -0 
1 600 0 400.05000000000001 -0 -0 -1 
3 600 0 154 0 -1 0 -1 0 0 -0 -0 -1 7.7781745930520225 5.5
3 600 0 154 0 -1 0 -1 0 0 -0 -0 -1 7.7781745930520225 5.5
1 600 0 400.05000000000001 -0 -0 -1 
3 600 0 96 0 -1 0 -1 0 0 -0 -0 -1 7.7781745930520225 5.5
3 600 0 96 0 -1 0 -1 0 0 -0 -0 -1 7.7781745930520225 5.5
1 600 0 400.05000000000001 -0 -0 -1 
1 564 0 400.05000000000001 -0 -0 -1 
1 600 0 400.05000000000001 -1 -0 -0 
1 600 1308.0999999999999 0 -0 -0 1 
3 599.99999999999989 1308.0999999999999 64 -0 1 0 -1 0 -0 -0 -0 1 7.7781745930520225 5.5
1 600 1308.0999999999999 0 -0 -0 1 
3 599.99999999999989 1308.0999999999999 122 -0 1 0 -1 0 -0 -0 -0 1 7.7781745930520225 5.5
1 600 1308.0999999999999 0 -0 -0 1 
1 600 1308.0999999999999 596.89999999999998 -1 -0 -0 
1 564 1308.0999999999999 0 -0 -0 1 
3 582 18 154 1 0 0 -0 1 0 0 -0 1 7.7781745930520225 5.5
1 603.18198051533943 -10.960155108391486 154 -0.70710678118654757 0.70710678118654757 -0 
3 600 0 154 1 0 0 -0 1 0 0 -0 1 7.7781745930520225 5.5
3 582 18 96 1 0 0 -0 1 0 0 -0 1 7.7781745930520225 5.5
1 603.18198051533943 -10.960155108391486 96 -0.70710678118654757 0.70710678118654757 -0 
3 600 0 96 1 0 0 -0 1 0 0 -0 1 7.7781745930520225 5.5
1 600 1127.125 596.89999999999998 -1 -0 -0 
1 600 1127.125 596.89999999999998 -0 -0.98508930685912921 -0.17204376626835494 
1 564 1127.125 596.89999999999998 -0 -0.98508930685912921 -0.17204376626835494 
3 582 1290.0999999999999 64 1 0 0 0 -1 0 0 0 -1 7.7781745930520225 5.5
1 610.96015510839152 1311.2819805153395 64 -0.70710678118654757 -0.70710678118654757 -0 
3 600 1308.0999999999999 64 1 0 0 0 -1 0 0 0 -1 7.7781745930520225 5.5
3 600 1308.0999999999999 64 1 0 0 0 -1 0 0 0 -1 7.7781745930520225 5.5
3 582 1290.0999999999999 122 1 0 0 0 -1 0 0 0 -1 7.7781745930520225 5.5
1 610.96015510839152 1311.2819805153395 122 -0.70710678118654757 -0.70710678118654757 -0 
3 600 1308.0999999999999 122 1 0 0 0 -1 0 0 0 -1 7.7781745930520225 5.5
3 600 1308.0999999999999 122 1 0 0 0 -1 0 0 0 -1 7.7781745930520225 5.5
1 600 1308.0999999999999 596.89999999999998 -0 -1 -0 
1 564 1308.0999999999999 596.89999999999998 -0 -1 -0 
2 600 89 350.59366197183101 1 -0 -0 0 -0 1 -0 -1 0 7.9375
2 600 127 357.23028169014083 1 -0 -0 0 -0 1 -0 -1 0 7.9375
2 582 89 350.59366197183101 1 -0 -0 0 -0 1 -0 -1 0 12.5
1 585 89 363.09366197183101 -1 -0 -0 
2 585 89 350.59366197183101 1 -0 -0 0 -0 1 -0 -1 0 12.5
2 585 89 350.59366197183101 1 -0 -0 0 -0 1 -0 -1 0 7.9375
1 601 89 358.53116197183101 -1 -0 -0 
2 582 127 357.23028169014083 1 -0 -0 0 -0 1 -0 -1 0 12.5
1 585 127 369.73028169014083 -1 -0 -0 
2 585 127 357.23028169014083 1 -0 -0 0 -0 1 -0 -1 0 12.5
2 585 127 357.23028169014083 1 -0 -0 0 -0 1 -0 -1 0 7.9375
1 601 127 365.16778169014083 -1 -0 -0 
2 582 1037 192 1 0 0 -0 0 1 0 -1 0 1.5
2 582 1042.5 320.11016505745329 1 0 0 -0 0 1 0 -1 0 1.5
2 582 1055.2506198471799 448.22033011490652 1 0 0 -0 0 1 0 -1 0 1.5
2 582 990 231 -1 -0 0 -0 0 -1 0 -1 -0 1.25
2 582 690 171 -1 -0 0 -0 0 -1 0 -1 -0 1.25
2 582 920 231 -1 -0 0 -0 0 -1 0 -1 -0 1.25
2 582 620 171 -1 -0 0 -0 0 -1 0 -1 -0 1.25
2 582 245 151 -1 -0 0 -0 0 -1 0 -1 -0 1.25
2 582 175 151 -1 -0 0 -0 0 -1 0 -1 -0 1.25
2 583 1037 192 1 0 0 -0 0 1 0 -1 0 1.5
1 582 1037 193.5 1 0 0 
2 583 1042.5 320.11016505745329 1 0 0 -0 0 1 0 -1 0 1.5
1 582 1042.5 321.61016505745329 1 0 0 
2 583 1055.2506198471799 448.22033011490652 1 0 0 -0 0 1 0 -1 0 1.5
1 582 1055.2506198471799 449.72033011490652 1 0 0 
1 581 990 229.75 1 -0 -0 
2 595 990 231 -1 -0 0 -0 0 -1 0 -1 -0 1.25
1 581 690 169.75 1 -0 -0 
2 595 690 171 -1 -0 0 -0 0 -1 0 -1 -0 1.25
1 581 920 229.75 1 -0 -0 
2 595 920 231 -1 -0 0 -0 0 -1 0 -1 -0 1.25
1 581 620 169.75 1 -0 -0 
2 595 620 171 -1 -0 0 -0 0 -1 0 -1 -0 1.25
1 581 245 149.75 1 -0 -0 
2 595 245 151 -1 -0 0 -0 0 -1 0 -1 -0 1.25
1 581 175 149.75 1 -0 -0 
2 595 175 151 -1 -0 0 -0 0 -1 0 -1 -0 1.25
Polygon3D 0
PolygonOnTriangulations 0
Surfaces 52
1 600 0 0 -0 -0 1 -0 1 0 1 -0 0 
1 600 0 400.05000000000001 -0 1 -0 0 0 -1 1 0 0 
1 600 1308.0999999999999 0 -0 -1 -0 -0 0 1 1 -0 0 
1 600 689.09093437701847 257.98412378671179 -1 -0 -0 -0 0 1 -0 -1 0 
1 564 689.09093437701847 257.98412378671179 -1 -0 -0 -0 0 1 -0 -1 0 
2 607.07106781186542 -7.0710678118654746 154 -0.70710678118654757 0.70710678118654757 -0 -0.70710678118654757 -0.70710678118654757 -0 0 -0 -1 5.5
2 607.07106781186542 -7.0710678118654746 96 -0.70710678118654757 0.70710678118654757 -0 -0.70710678118654757 -0.70710678118654757 -0 0 -0 -1 5.5
1 600 1127.125 596.89999999999998 -0 0.17204376626835494 -0.98508930685912921 0 -0.98508930685912921 -0.17204376626835494 1 0 -0 
2 607.07106781186542 1315.1710678118654 64 -0.70710678118654757 -0.70710678118654757 -0 0.70710678118654757 -0.70710678118654757 0 0 -0 -1 5.5
2 607.07106781186542 1315.1710678118654 122 -0.70710678118654757 -0.70710678118654757 -0 0.70710678118654757 -0.70710678118654757 0 0 -0 -1 5.5
1 600 1308.0999999999999 596.89999999999998 -0 -0 -1 0 -1 0 1 -0 -0 
6 -0 -0 -1 
3 442.89999999999992 3.8890873012275202 0 1.1102230246251565e-16 -0 1 0 1 0 -1 0 1.1102230246251565e-16 7.7781745930520225 5.5
6 -0 -0 -1 
3 500.89999999999992 3.8890873012275202 0 1.1102230246251565e-16 -0 1 0 1 0 -1 0 1.1102230246251565e-16 7.7781745930520225 5.5
6 -0 -0 -1 
3 532.89999999999998 1311.9890873012275 0 1.1102230246251565e-16 0 1 0 -1 0 1 0 -1.1102230246251565e-16 7.7781745930520225 5.5
6 -0 -0 -1 
3 532.89999999999998 1311.9890873012275 0 1.1102230246251565e-16 0 1 0 -1 0 1 0 -1.1102230246251565e-16 7.7781745930520225 5.5
6 -0 -0 -1 
3 474.89999999999992 1311.9890873012275 0 1.1102230246251565e-16 0 1 0 -1 0 1 0 -1.1102230246251565e-16 7.7781745930520225 5.5
6 -0 -0 -1 
3 474.89999999999992 1311.9890873012275 0 1.1102230246251565e-16 0 1 0 -1 0 1 0 -1.1102230246251565e-16 7.7781745930520225 5.5
2 601 89 350.59366197183101 -1 -0 -0 0 -0 1 0 -1 -0 7.9375
2 601 127 357.23028169014083 -1 -0 -0 0 -0 1 0 -1 -0 7.9375
2 585 89 350.59366197183101 -1 -0 -0 0 -0 1 0 -1 -0 12.5
1 585 89 350.59366197183101 -1 -0 -0 0 -0 1 0 -1 -0 
2 246.30633802816891 92.889087301227519 0 -1.1102230246251565e-16 -0 -1 -1 0 1.1102230246251565e-16 -0 -1 0 12.5
2 585 127 357.23028169014083 -1 -0 -0 0 -0 1 0 -1 -0 12.5
1 585 127 357.23028169014083 -1 -0 -0 0 -0 1 0 -1 -0 
2 239.66971830985909 130.88908730122753 0 -1.1102230246251565e-16 -0 -1 -1 0 1.1102230246251565e-16 -0 -1 0 12.5
2 582 1037 192 1 0 0 -0 0 1 0 -1 0 1.5
2 582 1042.5 320.11016505745329 1 0 0 -0 0 1 0 -1 0 1.5
2 582 1055.2506198471799 448.22033011490652 1 0 0 -0 0 1 0 -1 0 1.5
2 581 990 231 1 -0 -0 -0 -0 -1 -0 -1 0 1.25
2 581 690 171 1 -0 -0 -0 -0 -1 -0 -1 0 1.25
2 581 920 231 1 -0 -0 -0 -0 -1 -0 -1 0 1.25
2 581 620 171 1 -0 -0 -0 -0 -1 -0 -1 0 1.25
2 581 245 151 1 -0 -0 -0 -0 -1 -0 -1 0 1.25
2 581 175 151 1 -0 -0 -0 -0 -1 -0 -1 0 1.25
1 583 1037 192 1 0 0 -0 0 1 0 -1 0 
2 404.89999999999992 1040.8890873012276 0 -1.1102230246251565e-16 -0 -1 -1 0 1.1102230246251565e-16 0 -1 0 1.5
1 583 1042.5 320.11016505745329 1 0 0 -0 0 1 0 -1 0 
2 276.78983494254663 1046.3890873012276 0 -1.1102230246251565e-16 -0 -1 -1 0 1.1102230246251565e-16 0 -1 0 1.5
1 583 1055.2506198471799 448.22033011490652 1 0 0 -0 0 1 0 -1 0 
2 148.6796698850934 1059.1397071484075 0 -1.1102230246251565e-16 -0 -1 -1 0 1.1102230246251565e-16 0 -1 0 1.5
1 595 990 231 1 -0 -0 -0 -0 -1 -0 -1 0 
2 365.89999999999992 993.88908730122751 0 -1.1102230246251565e-16 -0 -1 1 0 -1.1102230246251565e-16 0 -1 0 1.25
1 595 690 171 1 -0 -0 -0 -0 -1 -0 -1 0 
2 425.89999999999992 693.88908730122751 0 -1.1102230246251565e-16 -0 -1 1 0 -1.1102230246251565e-16 0 -1 0 1.25
1 595 920 231 1 -0 -0 -0 -0 -1 -0 -1 0 
2 365.89999999999992 923.88908730122751 0 -1.1102230246251565e-16 -0 -1 1 0 -1.1102230246251565e-16 0 -1 0 1.25
1 595 620 171 1 -0 -0 -0 -0 -1 -0 -1 0 
2 425.89999999999992 623.88908730122751 0 -1.1102230246251565e-16 -0 -1 1 0 -1.1102230246251565e-16 0 -1 0 1.25
1 595 245 151 1 -0 -0 -0 -0 -1 -0 -1 0 
2 445.89999999999992 248.88908730122753 0 -1.1102230246251565e-16 -0 -1 1 0 -1.1102230246251565e-16 0 -1 0 1.25
1 595 175 151 1 -0 -0 -0 -0 -1 -0 -1 0 
2 445.89999999999992 178.88908730122753 0 -1.1102230246251565e-16 -0 -1 1 0 -1.1102230246251565e-16 0 -1 0 1.25
Triangulations 0

TShapes 222
Ve
1e-07
600 0 0
0 0

0101101
*
Ve
1e-07
582 0 0
0 0

0101101
*
Ed
 1e-07 1 1 0
1  1 0 0 18
2  1 1 0 0 18
2  2 2 0 0 18
0

0101000
+222 10 -221 10 *
Ve
1e-07
600 1308.1 0
0 0

0101101
*
Ve
1e-07
582 1308.1 0
0 0

0101101
*
Ed
 1e-07 1 1 0
1  2 0 0 18
2  3 1 0 0 18
2  4 3 0 0 18
0

0101000
+219 10 -218 10 *
Ed
 1e-07 1 1 0
1  3 0 0 1308.1
2  5 1 0 0 1308.1
2  6 4 0 0 1308.1
0

0101000
+222 10 -219 10 *
Ed
 1e-07 1 1 0
1  4 0 0 1308.1
2  7 1 12 0 1308.1
2  8 5 0 0 1308.1
0

0101000
+221 13 -218 13 *
Wi

0101100
+220 0 -217 0 -216 0 +215 11 *
Fa
0  1e-07 1 0

0111000
+214 0 *
Ve
1e-07
600 0 400.05
0 0

0101101
*
Ve
1.00001336e-07
600 0 159.500000000001
0 0

0101101
*
Ed
 1e-07 1 1 0
1  5 0 0 240.549999999999
2  9 2 0 0 240.549999999999
2  10 4 0 0 240.549999999999
0

0101000
+212 10 -211 10 *
Ve
1.00000003e-07
592.221825406948 0 154
0 0

0101101
*
Ed
 1e-07 1 1 0
1  6 0 4.71238898038469 6.28318530717959
2  11 2 5 4.71238898038469 6.28318530717959
2  12 6 0 4.71238898038469 6.28318530717959
0

0101000
+211 15 -209 15 *
Ve
1.00001336e-07
600 0 148.499999999999
0 0

0101101
*
Ed
 1e-07 1 1 0
1  7 0 0 1.5707963267949
2  13 2 5 0 1.5707963267949
2  14 6 0 0 1.5707963267949
0

0101000
+209 15 -207 15 *
Ve
1.00001307e-07
600 0 101.500000000001
0 0

0101101
*
Ed
 1e-07 1 1 0
1  8 0 251.550000000001 298.549999999999
2  15 2 0 251.550000000001 298.549999999999
2  16 4 0 251.550000000001 298.549999999999
0

0101000
+207 10 -205 10 *
Ve
1.00000003e-07
592.221825406948 0 96
0 0

0101101
*
Ed
 1e-07 1 1 0
1  9 0 4.71238898038469 6.28318530717959
2  17 2 5 4.71238898038469 6.28318530717959
2  18 7 0 4.71238898038469 6.28318530717959
0

0101000
+205 15 -203 15 *
Ve
1.00001307e-07
600 0 90.4999999999987
0 0

0101101
*
Ed
 1e-07 1 1 0
1  10 0 0 1.5707963267949
2  19 2 5 0 1.5707963267949
2  20 7 0 0 1.5707963267949
0

0101000
+203 15 -201 15 *
Ed
 1e-07 1 1 0
1  11 0 309.550000000001 400.05
2  21 2 0 309.550000000001 400.05
2  22 4 0 309.550000000001 400.05
0

0101000
+201 10 -222 10 *
Ve
1e-07
582 0 400.05
0 0

0101101
*
Ed
 1e-07 1 1 0
1  12 0 0 400.05
2  23 2 12 0 400.05
2  24 5 0 0 400.05
0

0101000
+198 13 -221 13 *
Ed
 1e-07 1 1 0
1  13 0 0 18
2  25 2 0 0 18
2  26 8 0 0 18
0

0101000
+212 10 -198 10 *
Wi

0101100
-210 5 -208 0 -206 0 -204 5 -202 0 -200 0 -199 5 -220 5 +197 16 +196 5 
*
Fa
0  1e-07 2 5

0111000
+195 0 *
Ve
1.0002116e-07
600 1308.1 58.5000000000212
0 0

0101101
*
Ed
 1e-07 1 1 0
1  14 0 0 58.5000000000212
2  27 3 0 0 58.5000000000212
2  28 4 0 0 58.5000000000212
0

0101000
+219 10 -193 10 *
Ve
1.0002116e-07
600 1308.1 69.4999999999788
0 0

0101101
*
Ed
 1e-07 1 1 0
1  15 0 4.71238898038469 7.85398163397448
2  29 3 5 4.71238898038469 7.85398163397448
2  30 9 0 4.71238898038469 7.85398163397448
0

0101000
+193 15 -191 15 *
Ve
1.0002116e-07
600 1308.1 116.500000000021
0 0

0101101
*
Ed
 1e-07 1 1 0
1  16 0 69.4999999999788 116.500000000021
2  31 3 0 69.4999999999788 116.500000000021
2  32 4 0 69.4999999999788 116.500000000021
0

0101000
+191 10 -189 10 *
Ve
1.0002116e-07
600 1308.1 127.499999999979
0 0

0101101
*
Ed
 1e-07 1 1 0
1  17 0 4.71238898038469 7.85398163397448
2  33 3 5 4.71238898038469 7.85398163397448
2  34 10 0 4.71238898038469 7.85398163397448
0

0101000
+189 15 -187 15 *
Ve
1e-07
600 1308.1 596.9
0 0

0101101
*
Ed
 1e-07 1 1 0
1  18 0 127.499999999979 596.9
2  35 3 0 127.499999999979 596.9
2  36 4 0 127.499999999979 596.9
0

0101000
+187 10 -185 10 *
Ve
1e-07
582 1308.1 596.9
0 0

0101101
*
Ed
 1e-07 1 1 0
1  19 0 0 18
2  37 3 0 0 18
2  38 11 0 0 18
0

0101000
+185 10 -183 10 *
Ed
 1e-07 1 1 0
1  20 0 0 596.9
2  39 3 12 0 596.9
2  40 5 0 0 596.9
0

0101000
+218 13 -183 13 *
Wi

0101100
-192 5 -190 0 -188 5 -186 0 -184 5 -182 5 +181 16 +217 5 *
Fa
0  1e-07 3 5

0111000
+180 0 *
Ve
1.00000004e-07
582 10.221825406948 154
0 0

0101101
*
Ed
 1e-07 1 1 0
1  21 0 3.14159265358979 9.42477796076938
2  41 6 0 3.14159265358979 9.42477796076938
2  42 5 16 3.14159265358979 9.42477796076938
0

0101100
+178 15 -178 15 *
Ed
 1e-07 1 1 0
1  22 0 15.5 29.9558441227157
3  43 44CN 6 0 15.5 29.9558441227157
0

0101000
+209 15 -178 15 *
Ed
 1e-07 1 1 0
1  23 0 4.71238898038469 7.85398163397448
2  45 6 0 4.71238898038469 7.85398163397448
2  46 4 5 4.71238898038469 7.85398163397448
2  47 12 18 4.71238898038469 7.85398163397448
2  48 12 20 4.71238898038469 7.85398163397448
0

0101000
+207 15 -211 15 *
Wi

0101100
-177 0 +176 0 +208 0 +175 0 +206 0 -176 0 *
Fa
0  1e-07 6 0

0111000
+174 0 *
Ve
1.00000005e-07
582 10.221825406948 96
0 0

0101101
*
Ed
 1e-07 1 1 0
1  24 0 3.14159265358979 9.42477796076938
2  49 7 0 3.14159265358979 9.42477796076938
2  50 5 16 3.14159265358979 9.42477796076938
0

0101100
+172 15 -172 15 *
Ed
 1e-07 1 1 0
1  25 0 15.5 29.9558441227157
3  51 52CN 7 0 15.5 29.9558441227157
0

0101000
+203 15 -172 15 *
Ed
 1e-07 1 1 0
1  26 0 4.71238898038469 7.85398163397448
2  53 7 0 4.71238898038469 7.85398163397448
2  54 4 5 4.71238898038469 7.85398163397448
2  55 13 18 4.71238898038469 7.85398163397448
2  56 13 20 4.71238898038469 7.85398163397448
0

0101000
+201 15 -205 15 *
Wi

0101100
-171 0 +170 0 +202 0 +169 0 +200 0 -170 0 *
Fa
0  1e-07 7 0

0111000
+168 0 *
Ve
1e-07
600 1127.125 596.9
0 0

0101101
*
Ve
1e-07
582 1127.125 596.9
0 0

0101101
*
Ed
 1e-07 1 1 0
1  27 0 0 18
2  57 8 0 0 18
2  58 11 0 0 18
0

0101000
+166 10 -165 10 *
Ed
 1e-07 1 1 0
1  28 0 0 1144.18560038352
2  59 8 0 0 1144.18560038352
2  60 4 0 0 1144.18560038352
0

0101000
+166 10 -212 10 *
Ed
 1e-07 1 1 0
1  29 0 0 1144.18560038352
2  61 8 12 0 1144.18560038352
2  62 5 0 0 1144.18560038352
0

0101000
+165 13 -198 13 *
Wi

0101100
+164 0 -196 0 -163 0 +162 11 *
Fa
0  1e-07 8 0

0111000
+161 0 *
Ve
1.00000018e-07
582 1282.32182540695 64
0 0

0101101
*
Ed
 1e-07 1 1 0
1  30 0 0 6.28318530717959
2  63 9 0 0 6.28318530717959
2  64 5 16 0 6.28318530717959
0

0101100
+159 15 -159 15 *
Ve
1.00000018e-07
600 1300.32182540695 64
0 0

0101101
*
Ed
 1e-07 1 1 0
1  31 0 15.5 40.9558441227157
3  65 66CN 9 0 15.5 40.9558441227157
0

0101000
+157 15 -159 15 *
Ed
 1e-07 1 1 0
1  32 0 4.71238898038469 6.28318530717959
2  67 9 0 4.71238898038469 6.28318530717959
2  68 4 5 4.71238898038469 6.28318530717959
2  69 14 18 4.71238898038469 6.28318530717959
2  70 14 20 4.71238898038469 6.28318530717959
0

0101000
+191 15 -157 15 *
Ed
 1e-07 1 1 0
1  33 0 0 1.5707963267949
2  71 9 0 0 1.5707963267949
2  72 4 5 0 1.5707963267949
2  73 15 18 0 1.5707963267949
2  74 15 20 0 1.5707963267949
0

0101000
+157 15 -193 15 *
Wi

0101100
-158 0 +156 0 +155 0 +190 0 +154 0 -156 0 *
Fa
0  1e-07 9 0

0111000
+153 0 *
Ve
1.00000018e-07
582 1282.32182540695 122
0 0

0101101
*
Ed
 1e-07 1 1 0
1  34 0 0 6.28318530717959
2  75 10 0 0 6.28318530717959
2  76 5 16 0 6.28318530717959
0

0101100
+151 15 -151 15 *
Ve
1.00000018e-07
600 1300.32182540695 122
0 0

0101101
*
Ed
 1e-07 1 1 0
1  35 0 15.5 40.9558441227157
3  77 78CN 10 0 15.5 40.9558441227157
0

0101000
+149 15 -151 15 *
Ed
 1e-07 1 1 0
1  36 0 4.71238898038469 6.28318530717959
2  79 10 0 4.71238898038469 6.28318530717959
2  80 4 5 4.71238898038469 6.28318530717959
2  81 16 18 4.71238898038469 6.28318530717959
2  82 16 20 4.71238898038469 6.28318530717959
0

0101000
+187 15 -149 15 *
Ed
 1e-07 1 1 0
1  37 0 0 1.5707963267949
2  83 10 0 0 1.5707963267949
2  84 4 5 0 1.5707963267949
2  85 17 18 0 1.5707963267949
2  86 17 20 0 1.5707963267949
0

0101000
+149 15 -189 15 *
Wi

0101100
-150 0 +148 0 +147 0 +186 0 +146 0 -148 0 *
Fa
0  1e-07 10 0

0111000
+145 0 *
Ed
 1e-07 1 1 0
1  38 0 0 180.975
2  87 11 0 0 180.975
2  88 4 0 0 180.975
0

0101000
+185 10 -166 10 *
Ed
 1e-07 1 1 0
1  39 0 0 180.975
2  89 11 12 0 180.975
2  90 5 0 0 180.975
0

0101000
+183 13 -165 13 *
Wi

0101100
+182 0 -164 0 -143 0 +142 11 *
Fa
0  1e-07 11 0

0111000
+141 0 *
Wi

0101100
-169 14 +199 9 +216 9 +192 9 -154 14 -155 14 +188 9 -146 14 -147 14 +184 9 
+143 9 +163 9 +210 9 -175 14 +204 9 *
Ve
1e-07
600 89 358.531161971831
0 0

0101101
*
Ed
 1e-07 1 1 0
1  40 0 0 6.28318530717959
2  91 4 22 0 6.28318530717959
2  92 18 0 0 6.28318530717959
0

0101100
+138 23 -138 23 *
Wi

0101100
-137 21 *
Ve
1e-07
600 127 365.167781690141
0 0

0101101
*
Ed
 1e-07 1 1 0
1  41 0 0 6.28318530717959
2  93 4 22 0 6.28318530717959
2  94 19 0 0 6.28318530717959
0

0101100
+135 23 -135 23 *
Wi

0101100
-134 21 *
Fa
0  1e-07 4 9

0111000
+139 0 +136 0 +133 0 *
Ve
1e-07
582 89 363.093661971831
0 0

0101101
*
Ed
 1e-07 1 1 0
1  42 0 0 6.28318530717959
2  95 20 0 0 6.28318530717959
2  96 5 24 0 6.28318530717959
0

0101100
+131 23 -131 23 *
Ve
1e-07
585 89 363.093661971831
0 0

0101101
*
Ed
 1e-07 1 1 0
1  43 0 0 3
3  97 98CN 20 0 0 3
0

0101000
+129 23 -131 23 *
Ed
 1e-07 1 1 0
1  44 0 0 6.28318530717959
2  99 20 0 0 6.28318530717959
2  100 21 0 0 6.28318530717959
2  101 22 26 0 6.28318530717959
2  102 22 28 0 6.28318530717959
0

0101000
+129 23 -129 23 *
Wi

0101100
-130 0 +128 0 +127 0 -128 0 *
Fa
0  1e-07 20 0

0111000
+126 0 *
Wi

0101100
+127 0 *
Ve
1e-07
585 89 358.531161971831
0 0

0101101
*
Ed
 1e-07 1 1 0
1  45 0 0 6.28318530717959
2  103 21 0 0 6.28318530717959
2  104 18 0 0 6.28318530717959
0

0101100
+123 23 -123 23 *
Wi

0101100
-122 0 *
Fa
0  1e-07 21 0

0111000
+124 0 +121 0 *
Ed
 1e-07 1 1 0
1  46 0 1 16
3  105 106CN 18 0 1 16
0

0101000
+138 23 -123 23 *
Wi

0101100
-122 0 +119 0 +137 0 -119 0 *
Fa
0  1e-07 18 0

0111000
+118 0 *
Ve
1e-07
582 127 369.730281690141
0 0

0101101
*
Ed
 1e-07 1 1 0
1  47 0 0 6.28318530717959
2  107 23 0 0 6.28318530717959
2  108 5 24 0 6.28318530717959
0

0101100
+116 23 -116 23 *
Ve
1e-07
585 127 369.730281690141
0 0

0101101
*
Ed
 1e-07 1 1 0
1  48 0 0 3
3  109 110CN 23 0 0 3
0

0101000
+114 23 -116 23 *
Ed
 1e-07 1 1 0
1  49 0 0 6.28318530717959
2  111 23 0 0 6.28318530717959
2  112 24 0 0 6.28318530717959
2  113 25 30 0 6.28318530717959
2  114 25 32 0 6.28318530717959
0

0101000
+114 23 -114 23 *
Wi

0101100
-115 0 +113 0 +112 0 -113 0 *
Fa
0  1e-07 23 0

0111000
+111 0 *
Wi

0101100
+112 0 *
Ve
1e-07
585 127 365.167781690141
0 0

0101101
*
Ed
 1e-07 1 1 0
1  50 0 0 6.28318530717959
2  115 24 0 0 6.28318530717959
2  116 19 0 0 6.28318530717959
0

0101100
+108 23 -108 23 *
Wi

0101100
-107 0 *
Fa
0  1e-07 24 0

0111000
+109 0 +106 0 *
Ed
 1e-07 1 1 0
1  51 0 1 16
3  117 118CN 19 0 1 16
0

0101000
+135 23 -108 23 *
Wi

0101100
-107 0 +104 0 +134 0 -104 0 *
Fa
0  1e-07 19 0

0111000
+103 0 *
Wi

0101100
-215 33 -197 33 -162 33 -142 33 -181 33 *
Wi

0101100
-115 21 *
Wi

0101100
-130 21 *
Wi

0101100
-171 14 *
Wi

0101100
-177 14 *
Wi

0101100
-158 14 *
Wi

0101100
-150 14 *
Ve
1e-07
582 1037 193.5
0 0

0101101
*
Ed
 1e-07 1 1 0
1  52 0 0 6.28318530717959
2  119 5 34 0 6.28318530717959
2  120 26 0 0 6.28318530717959
0

0101000
+94 35 -94 35 *
Wi

0101100
-93 8 *
Ve
1e-07
582 1042.5 321.610165057453
0 0

0101101
*
Ed
 1e-07 1 1 0
1  53 0 0 6.28318530717959
2  121 5 34 0 6.28318530717959
2  122 27 0 0 6.28318530717959
0

0101000
+91 35 -91 35 *
Wi

0101100
-90 8 *
Ve
1e-07
582 1055.25061984718 449.720330114907
0 0

0101101
*
Ed
 1e-07 1 1 0
1  54 0 0 6.28318530717959
2  123 5 34 0 6.28318530717959
2  124 28 0 0 6.28318530717959
0

0101000
+88 35 -88 35 *
Wi

0101100
-87 8 *
Ve
1e-07
582 990 229.75
0 0

0101101
*
Ed
 1e-07 1 1 0
1  55 0 0 6.28318530717959
2  125 5 16 0 6.28318530717959
2  126 29 0 0 6.28318530717959
0

0101100
+85 15 -85 15 *
Wi

0101100
+84 14 *
Ve
1e-07
582 690 169.75
0 0

0101101
*
Ed
 1e-07 1 1 0
1  56 0 0 6.28318530717959
2  127 5 16 0 6.28318530717959
2  128 30 0 0 6.28318530717959
0

0101100
+82 15 -82 15 *
Wi

0101100
+81 14 *
Ve
1e-07
582 920 229.75
0 0

0101101
*
Ed
 1e-07 1 1 0
1  57 0 0 6.28318530717959
2  129 5 16 0 6.28318530717959
2  130 31 0 0 6.28318530717959
0

0101100
+79 15 -79 15 *
Wi

0101100
+78 14 *
Ve
1e-07
582 620 169.75
0 0

0101101
*
Ed
 1e-07 1 1 0
1  58 0 0 6.28318530717959
2  131 5 16 0 6.28318530717959
2  132 32 0 0 6.28318530717959
0

0101100
+76 15 -76 15 *
Wi

0101100
+75 14 *
Ve
1e-07
582 245 149.75
0 0

0101101
*
Ed
 1e-07 1 1 0
1  59 0 0 6.28318530717959
2  133 5 16 0 6.28318530717959
2  134 33 0 0 6.28318530717959
0

0101100
+73 15 -73 15 *
Wi

0101100
+72 14 *
Ve
1e-07
582 175 149.75
0 0

0101101
*
Ed
 1e-07 1 1 0
1  60 0 0 6.28318530717959
2  135 5 16 0 6.28318530717959
2  136 34 0 0 6.28318530717959
0

0101100
+70 15 -70 15 *
Wi

0101100
+69 14 *
Fa
0  1e-07 5 33

0111000
-101 0 +100 0 +99 0 +98 0 +97 0 +96 0 +95 0 +92 0 +89 0 +86 0 
+83 0 +80 0 +77 0 +74 0 +71 0 +68 0 *
Ve
1e-07
583 1037 193.5
0 0

0101101
*
Ed
 1e-07 1 1 0
1  61 0 0 6.28318530717959
2  137 26 0 0 6.28318530717959
2  138 35 0 0 6.28318530717959
2  139 36 37 0 6.28318530717959
2  140 36 39 0 6.28318530717959
0

0101000
+66 35 -66 35 *
Ed
 1e-07 1 1 0
1  62 0 0 1
3  141 142CN 26 0 0 1
0

0101000
+94 35 -66 35 *
Wi

0101100
-65 0 +64 0 +93 0 -64 0 *
Fa
0  1e-07 26 0

0111000
+63 0 *
Wi

0101100
+65 0 *
Fa
0  1e-07 35 0

0111000
+61 0 *
Ve
1e-07
583 1042.5 321.610165057453
0 0

0101101
*
Ed
 1e-07 1 1 0
1  63 0 0 6.28318530717959
2  143 27 0 0 6.28318530717959
2  144 37 0 0 6.28318530717959
2  145 38 41 0 6.28318530717959
2  146 38 43 0 6.28318530717959
0

0101000
+59 35 -59 35 *
Ed
 1e-07 1 1 0
1  64 0 0 1
3  147 148CN 27 0 0 1
0

0101000
+91 35 -59 35 *
Wi

0101100
-58 0 +57 0 +90 0 -57 0 *
Fa
0  1e-07 27 0

0111000
+56 0 *
Wi

0101100
+58 0 *
Fa
0  1e-07 37 0

0111000
+54 0 *
Ve
1e-07
583 1055.25061984718 449.720330114907
0 0

0101101
*
Ed
 1e-07 1 1 0
1  65 0 0 6.28318530717959
2  149 28 0 0 6.28318530717959
2  150 39 0 0 6.28318530717959
2  151 40 45 0 6.28318530717959
2  152 40 47 0 6.28318530717959
0

0101000
+52 35 -52 35 *
Ed
 1e-07 1 1 0
1  66 0 0 1
3  153 154CN 28 0 0 1
0

0101000
+88 35 -52 35 *
Wi

0101100
-51 0 +50 0 +87 0 -50 0 *
Fa
0  1e-07 28 0

0111000
+49 0 *
Wi

0101100
+51 0 *
Fa
0  1e-07 39 0

0111000
+47 0 *
Ve
1e-07
595 990 229.75
0 0

0101101
*
Ed
 1e-07 1 1 0
1  67 0 1 14
3  155 156CN 29 0 1 14
0

0101000
+85 15 -45 15 *
Ed
 1e-07 1 1 0
1  68 0 0 6.28318530717959
2  157 29 0 0 6.28318530717959
2  158 41 0 0 6.28318530717959
2  159 42 49 0 6.28318530717959
2  160 42 51 0 6.28318530717959
0

0101000
+45 15 -45 15 *
Wi

0101100
+44 0 +84 0 -44 0 -43 0 *
Fa
0  1e-07 29 0

0111000
+42 0 *
Wi

0101100
+43 0 *
Fa
0  1e-07 41 0

0111000
+40 0 *
Ve
1e-07
595 690 169.75
0 0

0101101
*
Ed
 1e-07 1 1 0
1  69 0 1 14
3  161 162CN 30 0 1 14
0

0101000
+82 15 -38 15 *
Ed
 1e-07 1 1 0
1  70 0 0 6.28318530717959
2  163 30 0 0 6.28318530717959
2  164 43 0 0 6.28318530717959
2  165 44 53 0 6.28318530717959
2  166 44 55 0 6.28318530717959
0

0101000
+38 15 -38 15 *
Wi

0101100
+37 0 +81 0 -37 0 -36 0 *
Fa
0  1e-07 30 0

0111000
+35 0 *
Wi

0101100
+36 0 *
Fa
0  1e-07 43 0

0111000
+33 0 *
Ve
1e-07
595 920 229.75
0 0

0101101
*
Ed
 1e-07 1 1 0
1  71 0 1 14
3  167 168CN 31 0 1 14
0

0101000
+79 15 -31 15 *
Ed
 1e-07 1 1 0
1  72 0 0 6.28318530717959
2  169 31 0 0 6.28318530717959
2  170 45 0 0 6.28318530717959
2  171 46 57 0 6.28318530717959
2  172 46 59 0 6.28318530717959
0

0101000
+31 15 -31 15 *
Wi

0101100
+30 0 +78 0 -30 0 -29 0 *
Fa
0  1e-07 31 0

0111000
+28 0 *
Wi

0101100
+29 0 *
Fa
0  1e-07 45 0

0111000
+26 0 *
Ve
1e-07
595 620 169.75
0 0

0101101
*
Ed
 1e-07 1 1 0
1  73 0 1 14
3  173 174CN 32 0 1 14
0

0101000
+76 15 -24 15 *
Ed
 1e-07 1 1 0
1  74 0 0 6.28318530717959
2  175 32 0 0 6.28318530717959
2  176 47 0 0 6.28318530717959
2  177 48 61 0 6.28318530717959
2  178 48 63 0 6.28318530717959
0

0101000
+24 15 -24 15 *
Wi

0101100
+23 0 +75 0 -23 0 -22 0 *
Fa
0  1e-07 32 0

0111000
+21 0 *
Wi

0101100
+22 0 *
Fa
0  1e-07 47 0

0111000
+19 0 *
Ve
1e-07
595 245 149.75
0 0

0101101
*
Ed
 1e-07 1 1 0
1  75 0 1 14
3  179 180CN 33 0 1 14
0

0101000
+73 15 -17 15 *
Ed
 1e-07 1 1 0
1  76 0 0 6.28318530717959
2  181 33 0 0 6.28318530717959
2  182 49 0 0 6.28318530717959
2  183 50 65 0 6.28318530717959
2  184 50 67 0 6.28318530717959
0

0101000
+17 15 -17 15 *
Wi

0101100
+16 0 +72 0 -16 0 -15 0 *
Fa
0  1e-07 33 0

0111000
+14 0 *
Wi

0101100
+15 0 *
Fa
0  1e-07 49 0

0111000
+12 0 *
Ve
1e-07
595 175 149.75
0 0

0101101
*
Ed
 1e-07 1 1 0
1  77 0 1 14
3  185 186CN 34 0 1 14
0

0101000
+70 15 -10 15 *
Ed
 1e-07 1 1 0
1  78 0 0 6.28318530717959
2  187 34 0 0 6.28318530717959
2  188 51 0 0 6.28318530717959
2  189 52 69 0 6.28318530717959
2  190 52 71 0 6.28318530717959
0

0101000
+10 15 -10 15 *
Wi

0101100
+9 0 +69 0 -9 0 -8 0 *
Fa
0  1e-07 34 0

0111000
+7 0 *
Wi

0101100
+8 0 *
Fa
0  1e-07 51 0

0111000
+5 0 *
Sh

0101100
+213 9 +194 14 +179 14 +173 14 +167 14 +160 9 +152 14 +144 14 +140 9 +132 0 
+125 21 -120 21 +117 21 +110 21 -105 21 +102 21 -67 0 -62 8 -60 8 -55 8 
-53 8 -48 8 -46 8 +41 14 +39 14 +34 14 +32 14 +27 14 +25 14 +20 14 
+18 14 +13 14 +11 14 +6 14 +4 14 *
So

0100000
+3 0 *
Co

1100000
+2 0 *

+1 4 