DBRep_DrawableShape

CASCADE Topology V1, (c) Matra-Datavision
Locations 19
1
              1               0               0               0 
              0               1               0               0 
              0               0               1              -1 
1
              1               0               0               0 
              0               1               0               0 
              0               0               1               0 
1
              1               0               0               0 
              0               1               0               0 
              0               0               1               0 
1
              1               0               0               0 
              0               1               0               0 
              0               0               1               0 
1
              1               0               0               0 
              0               1               0               0 
              0               0               1               0 
1
1.11022302462516e-16               0              -1               0 
              0               1               0               0 
              1               0 1.11022302462516e-16               0 
1
              1               0               0           596.9 
              0               1               0 3.88908730122752 
              0               0               1            -582 
2  2 1 3 1 4 1 5 1 6 1 7 1 0
1
              1               0               0              18 
              0               1               0               0 
              0               0               1               0 
1
              1               0               0               0 
              0               1               0               0 
              0               0               1               0 
2  9 1 10 1 0
2  7 -1 6 -1 5 -1 4 -1 3 -1 2 -1 0
1
              1               0               0               0 
              0               1               0               0 
              0               0               1             -18 
2  13 -1 7 -1 6 -1 5 -1 4 -1 3 -1 2 -1 0
1
              1               0               0               0 
              0               1               0               0 
              0               0               1               1 
2  15 -1 13 -1 7 -1 6 -1 5 -1 4 -1 3 -1 2 -1 0
1
              1               0               0               0 
              0               1               0               0 
              0               0               1              18 
2  1 1 17 1 0
2  17 -1 1 -1 0
Curve2ds 15
7 0 0  8 30 5  0 40.955844122715689  0.19634954084936207 40.955844122715689  0.39269908169865175 40.71350985475874  0.58904862254621548 40.228843377597514  0.78539816339798563 39.521767250815174  0.9817477042452083 38.632167059433414  1.1780972450962963 37.615689328420558  1.3744467859455138 36.535766597387294  1.7180584824318974 34.645902266712191  1.8653206380690057 33.835960707121203  2.0125827937057679 33.052782456544605  2.1598449493432099 32.323137969939125  2.3071071049803749 31.671926918550525  2.4543692606167387 31.120346386224135  2.6016314162540373 30.68445802337537  2.9697868053465908 29.90957969969633  3.1906800388042029 29.728010683626053  3.4115732722584653 29.864364499066141  3.6324665057072707 30.323728570016101  3.853359739176085 31.07624593359651  4.0742529726226167 32.059544668289163  4.2951462060798171 33.191278776100873  4.7369326729908821 35.574415927153339  4.9578259064446684 36.825820289450348  5.1787191399089352 38.048456999531481  5.3996123733704735 39.147533813986229  5.620505606806546 40.035736384132179  5.8413988402689938 40.649139378685504  6.0622920737240431 40.955844122715689  6.2831853071795756 40.955844122715689 
 0 9 1.5707963267949059 7 2.7488935718910752 7 4.51603943953533 7 6.2831853071795862 9
3 -135.98412378671179 -601.00906562298144 0 1 -1 0 7.7781745930519719 5.5
1 6.2831853071795862 -0 0 1 
1 0 -0 0 1 
7 0 0  8 30 5  0 15.5  0.19634954084936207 15.5  0.39269908169887913 15.257665732073292  0.58904862254803447 14.772999254826573  0.78539816339707613 14.065923128160648  0.98174770424566304 13.176322936604265  1.1780972450965237 12.159845205751481  1.3744467859455138 11.079922474671605  1.7180584824318974 9.1900581439964952  1.8653206380690484 8.3801165844099454  2.0125827937060734 7.5969383338267278  2.1598449493433236 6.8672938472222995  2.3071071049802327 6.216082795837309  2.4543692606167387 5.6645022635074227  2.6016314162540373 5.2286139006596812  2.9697868053465908 4.453735576980641  3.1906800388010197 4.2721665609587944  3.4115732722548273 4.4085203763715981  3.6324665056963568 4.8678844473615754  3.85335973916699 5.6204018108437594  4.0742529726226167 6.6037005456237239  4.2951462060798171 7.7354346533851848  4.7369326729908821 10.11857180443765  4.9578259064437589 11.369976166730339  5.1787191398980212 12.592612876942439  5.3996123733522836 13.691689691317151  5.620505606810184 14.579892261543137  5.8413988402644463 15.193295255981866  6.0622920737240431 15.5  6.2831853071795756 15.5 
 0 9 1.5707963267948954 7 2.7488935718910672 7 4.5160394395353265 7 6.2831853071795862 9
3 -135.98412378671179 -619.00906562298144 0 1 -1 0 7.7781745930519719 5.5
1 0 0 1 0 
1 0 -1 1 0 
3 122 -1.1368999999999999e-13 0 -1 1 0 7.7781745930519719 5.5
7 0 0  8 16 3  1.3372625992285925 8.7272077938620214  1.5628038560237418 9.9340115970271547  1.7883451128184333 11.214811221796481  2.0138863696056433 12.476052954421903  2.2394276264149084 13.616201535507571  2.4649688831959793 14.540763941113255  2.6905101399993328 15.180251997151572  2.9160513967946438 15.500000000000114  3.3671339103849425 15.500000000000114  3.5926751671763668 15.180251997151572  3.8182164239788108 14.540763941171463  4.0437576807416917 13.616201535442087  4.2692989375755133 12.476052954523766  4.4948401943565841 11.214811221796481  4.720381451155844 9.9340115970271547  4.9459227079509933 8.7272077938620214 
 4.4788552528183905 9 6.2831853071795862 7 8.0875153615407811 9
7 0 0  8 30 5  0 15.5  0.19634954084936207 15.5  0.39269908169887913 15.257665732073292  0.58904862254803447 14.772999254826573  0.78539816339707613 14.065923128160648  0.98174770424566304 13.176322936604265  1.1780972450965237 12.159845205751481  1.3744467859455138 11.079922474671605  1.7180584824318974 9.1900581439964952  1.8653206380690484 8.3801165844099454  2.0125827937060734 7.5969383338267278  2.1598449493433236 6.8672938472222995  2.3071071049802327 6.216082795837309  2.4543692606167387 5.6645022635074227  2.6016314162540373 5.2286139006596812  2.9697868053465908 4.453735576980641  3.1906800388010197 4.2721665609587944  3.4115732722548273 4.4085203763715981  3.6324665056963568 4.8678844473615754  3.85335973916699 5.6204018108437594  4.0742529726226167 6.6037005456237239  4.2951462060798171 7.7354346533851848  4.7369326729908821 10.11857180443765  4.9578259064437589 11.369976166730339  5.1787191398980212 12.592612876942439  5.3996123733522836 13.691689691317151  5.620505606810184 14.579892261543137  5.8413988402644463 15.193295255981866  6.0622920737240431 15.5  6.2831853071795756 15.5 
 0 9 1.5707963267948954 7 2.7488935718910672 7 4.5160394395353265 7 6.2831853071795862 9
3 -135.98412378671179 -619.00906562298144 0 1 -1 0 7.7781745930519719 5.5
1 0 0 1 0 
1 0 -1 1 0 
1 257.98412378671185 619.00906562298121 -1 0 
Curves 6
3 582 1290.0999999999999 122 1 0 0 0 -1 0 0 0 -1 7.7781745930520225 5.5
1 610.96015510839152 1311.2819805153395 122 -0.70710678118654757 -0.70710678118654757 -0 
3 600 1308.0999999999999 122 1 0 0 0 -1 0 0 0 -1 7.7781745930520225 5.5
3 599.99999999999989 1308.0999999999999 122 -0 1 0 -1 0 -0 -0 -0 1 7.7781745930520225 5.5
3 600 1308.0999999999999 122 1 0 0 0 -1 0 0 0 -1 7.7781745930520225 5.5
1 596.89999999999998 1311.9890873012275 1 -1 0 1.1102230246251565e-16 
Polygon3D 0
PolygonOnTriangulations 0
Surfaces 8
1 338.91587621328813 692.98002167824632 1.0000000000000309 0 0 1 1 0 -0 -0 1 0 
2 607.07106781186542 1315.1710678118654 122 -0.70710678118654757 -0.70710678118654757 -0 0.70710678118654757 -0.70710678118654757 0 0 -0 -1 5.5
1 564 689.09093437701847 257.98412378671179 -1 -0 -0 -0 0 1 -0 -1 0 
1 600 689.09093437701847 257.98412378671179 -1 -0 -0 -0 0 1 -0 -1 0 
6 -0 -0 -1 
3 474.89999999999992 1311.9890873012275 0 1.1102230246251565e-16 0 1 0 -1 0 1 0 -1.1102230246251565e-16 7.7781745930520225 5.5
1 600 1308.0999999999999 0 -0 -1 -0 -0 0 1 1 -0 0 
6 -0 -0 -1 
3 474.89999999999992 1311.9890873012275 0 1.1102230246251565e-16 0 1 0 -1 0 1 0 -1.1102230246251565e-16 7.7781745930520225 5.5
1 596.89999999999998 1311.9890873012275 0 0 -1 0 -1 0 1.1102230246251565e-16 -1.1102230246251565e-16 -0 -1 
Triangulations 0

TShapes 20
Ve
1.00000045685677e-07
474.9 1286.21091270818 0
0 0

0101101
*
Ed
 1.00000045685677e-07 1 1 0
1  1 0 0 6.28318530717959
2  1 2 0 0 6.28318530717959
2  2 3 11 0 6.28318530717959
0

0101000
+20 12 -20 12 *
Wi

0101100
+19 8 *
Fa
0  1.00000014210855e-07 1 1

0101000
+18 0 *
Ve
1.00000046185278e-07
474.9 1304.21091270818 18
0 0

0101101
*
Ed
 1e-07 1 1 0
1  2 0 15.5 40.9558441227157
3  3 4CN 2 0 15.5 40.9558441227157
0

0101000
+16 12 -20 12 *
Ve
1.0002116e-07
469.400000000021 1311.98908730123 18
0 0

0101101
*
Ed
 1.00000046185278e-07 1 1 0
1  3 0 4.71238898038469 6.28318530717959
2  5 2 0 4.71238898038469 6.28318530717959
2  6 4 10 4.71238898038469 6.28318530717959
2  7 5 14 4.71238898038469 6.28318530717959
2  8 5 16 4.71238898038469 6.28318530717959
0

0101000
+14 12 -16 12 *
Ve
1.0002116e-07
480.399999999979 1311.98908730123 18
0 0

0101101
*
Ed
 1e-07 1 1 0
1  4 0 4.71238898038469 7.85398163397448
2  9 6 10 4.71238898038469 7.85398163397448
2  10 2 0 4.71238898038469 7.85398163397448
0

0101000
+12 12 -14 12 *
Ed
 1.00000046185278e-07 1 1 0
1  5 0 0 1.5707963267949
2  11 2 0 0 1.5707963267949
2  12 4 10 0 1.5707963267949
2  13 7 14 0 1.5707963267949
2  14 7 16 0 1.5707963267949
0

0101000
+16 12 -12 12 *
Wi

0101100
+15 8 +13 8 +11 8 +10 8 -15 8 -19 8 *
Fa
0  1e-07 2 8

0101000
+9 0 *
Ed
 1.00000014210855e-07 1 1 0
1  6 0 116.500000000021 127.499999999979
2  15 1 0 116.500000000021 127.499999999979
0

0101000
+12 19 -14 19 *
Wi

0101100
+7 18 +10 8 +13 8 *
Fa
0  1.00000014210855e-07 1 18

0101000
+6 0 *
Wi

0101100
+7 18 -11 8 *
Fa
0  1e-07 8 0

0101000
+4 0 *
Sh

0101100
-17 0 -8 0 +5 0 -3 0 *
So

0100000
+2 0 *

+1 0 