DBRep_DrawableShape

CASCADE Topology V1, (c) Matra-Datavision
Locations 19
1
              1               0               0               0 
              0               1               0               0 
              0               0               1              -1 
1
              1               0               0               0 
              0               1               0               0 
              0               0               1              18 
2  1 1 2 1 0
2  2 -1 1 -1 0
1
              1               0               0               0 
              0               1               0               0 
              0               0               1               0 
1
              1               0               0               0 
              0               1               0               0 
              0               0               1               0 
1
              1               0               0               0 
              0               1               0               0 
              0               0               1               0 
1
              1               0               0               0 
              0               1               0               0 
              0               0               1               0 
1
1.11022302462516e-16               0              -1               0 
              0               1               0               0 
              1               0 1.11022302462516e-16               0 
1
              1               0               0           596.9 
              0               1               0 3.88908730122752 
              0               0               1            -582 
2  5 1 6 1 7 1 8 1 9 1 10 1 0
1
              1               0               0               0 
              0               1               0               0 
              0               0               1               0 
2  10 -1 9 -1 8 -1 7 -1 6 -1 5 -1 0
1
              1               0               0               0 
              0               1               0               0 
              0               0               1             -18 
2  14 -1 10 -1 9 -1 8 -1 7 -1 6 -1 5 -1 0
1
              1               0               0               0 
              0               1               0               0 
              0               0               1               1 
2  16 -1 14 -1 10 -1 9 -1 8 -1 7 -1 6 -1 5 -1 0
1
              1               0               0              18 
              0               1               0               0 
              0               0               1               0 
2  18 1 12 1 0
Curve2ds 13
1 -142.06587621328822 -689.09093437701881 1 0 
3 304.05000000000001 0 -0 -1 1 -0 7.7781745930519719 5.5
7 0 0  8 9 2  4.4788552528189118 8.7272077938646095  4.7043965096139964 9.9340115970295439  4.9299377664096014 11.214811221794662  5.1554790232037462 12.47605295444373  5.3810202800043712 13.616201535391156  5.6065615367940822 14.540763941120531  5.8321027935899323 15.180251997142477  6.0576440503845017 15.5  6.2831853071795862 15.5 
 4.4788552528189118 9 6.2831853071795862 9
3 304.05000000000001 0 -0 -1 1 -0 7.7781745930519719 5.5
7 0 0  8 9 2  0 15.5  0.22554125679508424 15.5  0.45108251358988127 15.180251997144296  0.67662377038686827 14.540763941156911  0.90216502717703406 13.616201535369328  1.1277062839762948 12.47605295448011  1.3532475407698712 11.214811221781929  1.5787887975655894 9.9340115970295493  1.8043300543606737 8.7272077938646149 
 0 9 1.804330054360674 9
7 0 0  8 30 5  0 4.5  0.19634954084936207 4.5  0.3926990816974012 4.742334267921251  0.58904862255030821 5.2270007451297715  0.78539816339161916 5.9340768718138861  0.98174770424930102 6.8236770633375272  1.1780972450948184 7.8401547942430625  1.3744467859455343 8.920077525328507  1.7180584824319181 10.809941856003615  1.8653206380690535 11.619883415588889  2.0125827937062155 12.403061666176654  2.1598449493433236 13.132706152780884  2.3071071049802612 13.783917204162947  2.4543692606170815 14.335497736493124  2.6016314162540466 14.771386099340463  2.9697868053466006 15.546264423019501  3.1906800388010197 15.727833439043025  3.4115732722566463 15.591479623566556  3.6324665057254606 15.132115552638425  3.8533597391615331 14.379598189108947  4.0742529726226167 13.39629945438719  4.2951462060797949 12.26456534661494  4.7369326729908598 9.8814281955624743  4.9578259064464874 8.6300238332496519  5.1787191398980212 7.4073871230866644  5.3996123733377317 6.308310308635555  5.6205056068174599 5.4201077384677774  5.8413988402662653 4.8067047440017632  6.0622920737240431 4.5000000000000009  6.2831853071795756 4.5 
 3.1415926535897931 9 4.7123889803846879 7 5.8904862254808563 7 7.6576320931251178 7 9.4247779607693793 9
3 -161.98412378671179 689.09093437701847 0 -1 1 0 7.7781745930520225 5.5
1 0 0 1 0 
1 0 -1 1 0 
1 6.2831853071795862 -0 0 1 
1 0 -0 0 1 
7 0 0  8 30 5  0 29.955844122715714  0.19634954084936207 29.955844122715714  0.3926990816974012 30.198178390597604  0.58904862254667023 30.682844867769745  0.78539816339616664 31.389920994464774  0.98174770424611779 32.279521185992053  1.1780972450951595 33.295998916928511  1.3744467859455345 34.375921648044226  1.7180584824319183 36.265785978719329  1.8653206380690537 37.075727538303731  2.0125827937062155 37.858905788907123  2.1598449493433236 38.588550275502712  2.3071071049802612 39.239761326872895  2.4543692606170815 39.791341859212395  2.6016314162540466 40.227230222056164  2.9697868053466006 41.002108545735211  3.1906800388010197 41.183677561741206  3.4115732722548273 41.047323746272014  3.6324665057145467 40.587959675234742  3.85335973916699 39.83544231185806  4.0742529726212524 38.85214357705263  4.2951462060797949 37.720409469330654  4.7369326729908598 35.337272318278188  4.9578259064464874 34.085867955946014  5.1787191398980212 32.863231245864881  5.3996123733522836 31.764154431351926  5.6205056068174599 30.875951861220528  5.8413988402699033 30.262548866703582  6.0622920737240431 29.955844122715714  6.2831853071795756 29.955844122715714 
 3.1415926535897931 9 4.7123889803847163 7 5.890486225480899 7 7.6576320931251391 7 9.4247779607693793 9
3 -161.98412378671179 671.09093437701847 0 -1 1 0 7.7781745930520216 5.5
Curves 6
1 196.84999999999991 3.8890873012275202 1 1 -0 -1.1102230246251565e-16 
3 600 0 96 0 -1 0 -1 0 0 -0 -0 -1 7.7781745930520225 5.5
3 600 0 96 0 -1 0 -1 0 0 -0 -0 -1 7.7781745930520225 5.5
3 600 0 96 1 0 0 -0 1 0 0 -0 1 7.7781745930520225 5.5
1 603.18198051533943 -10.960155108391486 96 -0.70710678118654757 0.70710678118654757 -0 
3 582 18 96 1 0 0 -0 1 0 0 -0 1 7.7781745930520225 5.5
Polygon3D 0
PolygonOnTriangulations 0
Surfaces 7
1 196.84999999999991 3.8890873012275202 0 0 1 -0 1 -0 -1.1102230246251565e-16 -1.1102230246251565e-16 0 -1 
1 338.91587621328813 692.98002167824632 1.0000000000000309 0 0 1 1 0 -0 -0 1 0 
1 600 0 400.05000000000001 -0 1 -0 0 0 -1 1 0 0 
2 607.07106781186542 -7.0710678118654746 96 -0.70710678118654757 0.70710678118654757 -0 -0.70710678118654757 -0.70710678118654757 -0 0 -0 -1 5.5
1 600 689.09093437701847 257.98412378671179 -1 -0 -0 -0 0 1 -0 -1 0 
6 -0 -0 -1 
3 500.89999999999992 3.8890873012275202 0 1.1102230246251565e-16 -0 1 0 1 0 -1 0 1.1102230246251565e-16 7.7781745930520225 5.5
1 564 689.09093437701847 257.98412378671179 -1 -0 -0 -0 0 1 -0 -1 0 
Triangulations 0

TShapes 20
Ve
1.00001307e-07
495.399999999999 3.88908730122752 18
0 0

0101101
*
Ve
1.00001307e-07
506.400000000001 3.88908730122752 18
0 0

0101101
*
Ed
 1.00000014210855e-07 1 1 0
1  1 0 298.549999999999 309.550000000001
2  1 2 0 298.549999999999 309.550000000001
0

0101000
+20 4 -19 4 *
Ve
1.00000003e-07
500.9 3.88908730122752 10.221825406948
0 0

0101101
*
Ed
 1e-07 1 1 0
1  2 0 4.71238898038469 6.28318530717959
2  2 3 12 4.71238898038469 6.28318530717959
2  3 4 0 4.71238898038469 6.28318530717959
0

0101000
+20 13 -17 13 *
Ed
 1e-07 1 1 0
1  3 0 0 1.5707963267949
2  4 3 12 0 1.5707963267949
2  5 4 0 0 1.5707963267949
0

0101000
+17 13 -19 13 *
Wi

0101100
+18 3 -16 11 -15 11 *
Fa
0  1e-07 1 0

0101000
+14 0 *
Ed
 1.00000046185278e-07 1 1 0
1  4 0 4.71238898038469 7.85398163397448
2  6 4 0 4.71238898038469 7.85398163397448
2  7 5 12 4.71238898038469 7.85398163397448
2  8 6 15 4.71238898038469 7.85398163397448
2  9 6 17 4.71238898038469 7.85398163397448
0

0101000
+19 13 -20 13 *
Wi

0101100
+12 11 +18 3 *
Fa
0  1.00000014210855e-07 2 3

0101000
+11 0 *
Ve
1.00000045685677e-07
500.9 14.1109127081755 0
0 0

0101101
*
Ed
 1e-07 1 1 0
1  5 0 15.5 29.9558441227157
3  10 11CN 4 0 15.5 29.9558441227157
0

0101000
+17 13 -9 13 *
Ed
 1.00000045685677e-07 1 1 0
1  6 0 3.14159265358979 9.42477796076938
2  12 4 0 3.14159265358979 9.42477796076938
2  13 7 19 3.14159265358979 9.42477796076938
0

0101000
+9 13 -9 13 *
Wi

0101100
+8 11 +16 11 +12 11 +15 11 -8 11 -7 11 *
Fa
0  1e-07 4 11

0101000
+6 0 *
Wi

0101100
+7 11 *
Fa
0  1.00000014210855e-07 2 1

0101000
+4 0 *
Sh

0101100
-13 0 +10 0 -5 0 -3 0 *
So

0100000
+2 0 *

+1 0 