DBRep_DrawableShape

CASCADE Topology V1, (c) Matra-Datavision
Locations 13
1
              1               0               0               0 
              0               1               0               0 
              0               0               1               0 
1
              1               0               0               0 
              0               1               0               0 
              0               0               1               0 
1
              1               0               0               0 
              0               1               0               0 
              0               0               1               0 
1
1.11022302462516e-16               0              -1               0 
              0               1               0               0 
              1               0 1.11022302462516e-16               0 
1
              1               0               0           596.9 
              0               1               0 3.88908730122752 
              0               0               1            -582 
2  1 1 2 1 3 1 4 1 5 1 0
2  5 -1 4 -1 3 -1 2 -1 1 -1 0
1
              1               0               0               0 
              0               1               0               0 
              0               0               1               0 
1
              1               0               0               0 
              0               1               0               0 
              0               0               1               0 
2  8 1 9 1 0
1
              1               0               0               0 
              0               1               0               0 
              0               0               1              -1 
1
              1               0               0               0 
              0               1               0               0 
              0               0               1              18 
2  11 1 12 1 0
Curve2ds 6
2 0 0 1 0 -0 1 7.9375
1 0 16 1 0 
1 6.2831853071795862 -0 0 1 
1 0 -0 0 1 
2 92.60953818511922 600.09093437701847 1 0 -0 1 7.9375
1 0 1 1 0 
Curves 3
2 585 89 350.59366197183101 1 -0 -0 0 -0 1 -0 -1 0 7.9375
1 601 89 358.53116197183101 -1 -0 -0 
2 600 89 350.59366197183101 1 -0 -0 0 -0 1 -0 -1 0 7.9375
Polygon3D 0
PolygonOnTriangulations 0
Surfaces 5
2 601 89 350.59366197183101 -1 -0 -0 0 -0 1 0 -1 -0 7.9375
1 585 89 350.59366197183101 -1 -0 -0 0 -0 1 0 -1 -0 
1 600 689.09093437701847 257.98412378671179 -1 -0 -0 -0 0 1 -0 -1 0 
1 223.80633802816891 70.389087301227519 3 0 0 1 1 0 -0 -0 1 0 
1 338.91587621328813 692.98002167824632 1.0000000000000309 0 0 1 1 0 -0 -0 1 0 
Triangulations 0

TShapes 13
Ve
1.00000000888178e-07
238.368838028169 92.8890873012275 3
0 0

0101101
*
Ed
 1.00000000888178e-07 1 1 0
1  1 0 0 6.28318530717959
2  1 2 0 0 6.28318530717959
2  2 1 0 0 6.28318530717959
0

0101000
+13 7 -13 7 *
Ve
1.00000046185278e-07
238.368838028169 92.8890873012275 18
0 0

0101101
*
Ed
 1e-07 1 1 0
1  2 0 1 16
3  3 4CN 1 0 1 16
0

0101000
+11 7 -13 7 *
Ed
 1.00000046185278e-07 1 1 0
1  3 0 0 6.28318530717959
2  5 3 10 0 6.28318530717959
2  6 1 0 0 6.28318530717959
0

0101000
+11 7 -11 7 *
Wi

0101100
-12 6 +10 6 +9 6 -10 6 *
Fa
0  1e-07 1 6

0101000
+8 0 *
Wi

0101100
+12 6 *
Fa
0  1e-07 4 0

0101000
+6 0 *
Wi

0101100
+9 6 *
Fa
0  1.00000014210855e-07 5 13

0101000
+4 0 *
Sh

0101100
-7 0 -5 0 +3 0 *
So

0100000
+2 0 *

+1 0 