DBRep_DrawableShape

CASCADE Topology V1, (c) Matra-Datavision
Locations 10
1
              1               0               0               0 
              0               1               0               0 
              0               0               1               0 
1
              1               0               0               0 
              0               1               0               0 
              0               0               1               0 
1
              1               0               0               0 
              0               1               0               0 
              0               0               1               0 
1
              1               0               0               0 
              0 1.11022302462516e-16               1               0 
              0              -1 1.11022302462516e-16               0 
1
              1               0               0 -14.1109127034726 
              0               1               0              -0 
              0               0               1              18 
1
              1               0               0               0 
              0               1               0               0 
              0               0               1 -5.32907051820075e-15 
1
              1               0               0               0 
              0               1               0               0 
              0               0               1               1 
1
              1               0               0               0 
              0               1               0               0 
              0               0               1              -1 
2  1 1 2 1 3 1 4 1 5 1 6 1 7 1 8 1 0
2  8 -1 7 -1 6 -1 5 -1 4 -1 3 -1 2 -1 1 -1 0
Curve2ds 0
Curves 1
2 90 17.999999999999996 210 -0 1 0 0 0 1 1 0 -0 12.699999999999989
Polygon3D 0
PolygonOnTriangulations 0
Surfaces 1
1 75.889087296527379 210 1.1842378929335002e-15 0 0 1 1 0 -0 -0 1 0 
Triangulations 0

TShapes 5
Ve
1.000000511098e-07
75.8890872965274 222.7 3.10862446895044e-15
0 0

0101101
*
Ed
 1.00000049111398e-07 1 1 0
1  1 0 0 6.28318530717959
0

0101000
+5 10 -5 10 *
Wi

0101100
+4 9 *
Fa
0  1e-07 1 0

0101000
-3 0 *
Sh

1101000
+2 0 *

+1 0 