DBRep_DrawableShape

CASCADE Topology V1, (c) Matra-Datavision
Locations 10
1
              1               0               0               0 
              0               1               0               0 
              0               0               1              -1 
1
              1               0               0               0 
              0               1               0               0 
              0               0               1               0 
1
              1               0               0               0 
              0               1               0               0 
              0               0               1               0 
1
              1               0               0               0 
              0               1               0               0 
              0               0               1               0 
1
              1               0               0               0 
              0 1.11022302462516e-16               1               0 
              0              -1 1.11022302462516e-16               0 
1
              1               0               0 -14.1109127034726 
              0               1               0              -0 
              0               0               1              18 
2  2 1 3 1 4 1 5 1 6 1 0
2  6 -1 5 -1 4 -1 3 -1 2 -1 0
1
              1               0               0               0 
              0               1               0               0 
              0               0               1              18 
2  1 1 9 1 0
Curve2ds 24
8 63.212500000000006 374.36249999999995
1 357.15937500000001 63.212500000000006 0 1 
8 63.212500000000006 374.36249999999995
1 -63.212500000000006 19 1 0 
8 -310.73906250000005 -46.420312500000001
1 46.420312500000001 437.57499999999999 -1 0 
8 -310.73906250000005 -46.420312500000001
1 -46.420312500000001 -19 -1 -0 
8 63.212500000000006 374.36249999999995
1 92.840625000000003 63.212500000000006 0 1 
8 63.212500000000006 374.36249999999995
1 -63.212500000000006 19 1 0 
8 -310.73906250000005 -46.420312500000001
1 46.420312500000001 126.42500000000001 -1 0 
8 -310.73906250000005 -46.420312500000001
1 -46.420312500000001 -19 -1 -0 
1 0 0 0 1 
1 264.31875000000002 0 0 -1 
1 311.14999999999998 0 0 1 
1 264.31875000000002 0 0 -1 
8 63.212500000000006 374.36249999999995
1 357.15937500000001 63.212500000000006 0 1 
8 63.212500000000006 374.36249999999995
1 -63.212500000000006 1 1 0 
1 0 0 0 -1 
1 311.14999999999998 0 0 1 
8 -310.73906250000005 -46.420312500000001
1 46.420312500000001 437.57499999999999 -1 0 
8 -310.73906250000005 -46.420312500000001
1 -46.420312500000001 -1 -1 -0 
1 0 0 0 -1 
1 0 0 0 1 
8 63.212500000000006 374.36249999999995
1 92.840625000000003 63.212500000000006 0 1 
8 63.212500000000006 374.36249999999995
1 -63.212500000000006 1 1 0 
8 -310.73906250000005 -46.420312500000001
1 46.420312500000001 126.42500000000001 -1 0 
8 -310.73906250000005 -46.420312500000001
1 -46.420312500000001 -1 -1 -0 
Curves 12
1 81.212500000000006 18 357.15937500000001 1 0 -0 
1 455.57499999999999 18 46.420312500000001 -0 0 -1 
1 81.212500000000006 18 92.840625000000003 1 0 -0 
1 144.42500000000001 18 46.420312500000001 -0 0 -1 
1 144.42500000000001 -1 357.15937500000001 -0 1 0 
1 455.57499999999999 -1 357.15937500000001 -0 1 0 
1 81.212500000000006 0 357.15937500000001 1 0 -0 
1 455.57499999999999 -1 92.840625000000003 -0 1 0 
1 455.57499999999999 0 46.420312500000001 -0 0 -1 
1 144.42500000000001 -1 92.840625000000003 -0 1 0 
1 81.212500000000006 0 92.840625000000003 1 0 -0 
1 144.42500000000001 0 46.420312500000001 -0 0 -1 
Polygon3D 0
PolygonOnTriangulations 0
Surfaces 7
1 285.88908729652735 200.02500000000003 1.0000000000000053 0 0 1 1 0 -0 -0 1 0 
1 18 18 0 -0 1 0 0 0 1 1 0 -0 
1 144.42500000000001 -1 357.15937500000001 0 0 1 1 0 -0 -0 1 0 
1 455.57499999999999 -1 92.840625000000003 1 0 -0 0 0 1 0 -1 0 
1 144.42500000000001 -1 92.840625000000003 0 0 1 1 0 -0 -0 1 0 
1 144.42500000000001 -1 92.840625000000003 1 0 -0 0 0 1 0 -1 0 
1 18 0 0 -0 1 0 0 0 1 1 0 -0 
Triangulations 0

TShapes 34
Ve
1.50000057e-07
130.314087296527 357.159375 2.1316282072803e-14
0 0

0101101
*
Ve
1.50000057e-07
441.464087296527 357.159375 2.1316282072803e-14
0 0

0101101
*
Ed
 1.5e-07 1 1 0
1  1 0 63.2125 374.3625
2  1 2 0 63.2125 374.3625
2  2 3 0 63.2125 374.3625
0

0101000
+34 8 -33 8 *
Ve
1.50000057e-07
441.464087296527 92.840625 -7.105427357601e-15
0 0

0101101
*
Ed
 1.5e-07 1 1 0
1  2 0 -310.7390625 -46.4203125
2  3 2 0 -310.7390625 -46.4203125
2  4 4 0 -310.7390625 -46.4203125
0

0101000
+33 8 -31 8 *
Ve
1.5e-07
130.314087296527 92.840625 -7.105427357601e-15
0 0

0101101
*
Ed
 1.5e-07 1 1 0
1  3 0 63.2125 374.3625
2  5 2 0 63.2125 374.3625
2  6 5 0 63.2125 374.3625
0

0101000
+29 8 -31 8 *
Ed
 1.5e-07 1 1 0
1  4 0 -310.7390625 -46.4203125
2  7 2 0 -310.7390625 -46.4203125
2  8 6 0 -310.7390625 -46.4203125
0

0101000
+34 8 -29 8 *
Wi

0101100
-32 7 -30 7 +28 7 +27 7 *
Fa
0  1.00000001998401e-07 1 1

0101000
+26 0 *
Ve
1.50000057e-07
130.314087296527 357.159375 18
0 0

0101101
*
Ed
 1e-07 1 1 0
1  5 0 1 19
2  9 3 0 1 19
2  10 6 0 1 19
0

0101000
+24 8 -34 8 *
Ve
1.50000057e-07
441.464087296527 357.159375 18
0 0

0101101
*
Ed
 1e-07 1 1 0
1  6 0 1 19
2  11 3 0 1 19
2  12 4 0 1 19
0

0101000
+22 8 -33 8 *
Ed
 1.5e-07 1 1 0
1  7 0 63.2125 374.3625
2  13 7 0 63.2125 374.3625
2  14 3 0 63.2125 374.3625
0

0101000
+24 8 -22 8 *
Wi

0101100
-23 7 -32 7 +21 7 +20 7 *
Fa
0  1e-07 3 7

0101000
+19 0 *
Ve
1.50000057e-07
441.464087296527 92.840625 18
0 0

0101101
*
Ed
 1e-07 1 1 0
1  8 0 1 19
2  15 4 0 1 19
2  16 5 0 1 19
0

0101000
+17 8 -31 8 *
Ed
 1.5e-07 1 1 0
1  9 0 -310.7390625 -46.4203125
2  17 7 0 -310.7390625 -46.4203125
2  18 4 0 -310.7390625 -46.4203125
0

0101000
+22 8 -17 8 *
Wi

0101100
-21 7 -30 7 +16 7 +15 7 *
Fa
0  1e-07 4 7

0101000
+14 0 *
Ve
1.5e-07
130.314087296527 92.840625 18
0 0

0101101
*
Ed
 1e-07 1 1 0
1  10 0 1 19
2  19 6 0 1 19
2  20 5 0 1 19
0

0101000
+12 8 -29 8 *
Ed
 1.5e-07 1 1 0
1  11 0 63.2125 374.3625
2  21 7 0 63.2125 374.3625
2  22 5 0 63.2125 374.3625
0

0101000
+12 8 -17 8 *
Wi

0101100
-11 7 -28 7 +16 7 +10 7 *
Fa
0  1e-07 5 7

0101000
+9 0 *
Ed
 1.5e-07 1 1 0
1  12 0 -310.7390625 -46.4203125
2  23 7 0 -310.7390625 -46.4203125
2  24 6 0 -310.7390625 -46.4203125
0

0101000
+24 8 -12 8 *
Wi

0101100
-23 7 -27 7 +11 7 +7 7 *
Fa
0  1e-07 6 7

0101000
+6 0 *
Wi

0101100
-20 7 -15 7 +10 7 +7 7 *
Fa
0  1.00000001998401e-07 1 10

0101000
+4 0 *
Sh

0101100
-25 0 +18 0 +13 0 -8 0 -5 0 +3 0 *
So

0100000
+2 0 *

+1 0 