DBRep_DrawableShape

CASCADE Topology V1, (c) Matra-Datavision
Locations 99
1
              1               0               0               0 
              0               1               0               0 
              0               0               1               0 
1
              1               0               0               0 
              0               1               0               0 
              0               0               1               0 
1
              1               0               0               0 
              0               1               0               0 
              0               0               1               0 
1
              1               0               0               0 
              0 1.11022302462516e-16               1               0 
              0              -1 1.11022302462516e-16               0 
1
              1               0               0 -14.1109127034726 
              0               1               0              -0 
              0               0               1              18 
1
              1               0               0               0 
              0               1               0               0 
              0               0               1              -0 
1
              1               0               0               0 
              0               1               0               0 
              0               0               1               1 
1
              1               0               0               0 
              0               1               0               0 
              0               0               1              -1 
2  1 1 2 1 3 1 4 1 5 1 6 1 7 1 8 1 0
2  8 -1 7 -1 6 -1 5 -1 4 -1 3 -1 2 -1 1 -1 0
2  7 -1 6 -1 5 -1 4 -1 3 -1 2 -1 1 -1 0
1
              1               0               0               0 
              0               1               0               0 
              0               0               1              18 
2  1 1 2 1 3 1 4 1 5 1 6 1 7 1 8 1 12 1 0
2  12 -1 8 -1 7 -1 6 -1 5 -1 4 -1 3 -1 2 -1 1 -1 0
2  8 -1 0
2  8 1 12 1 0
2  12 -1 8 -1 0
1
              1               0               0               0 
              0               1               0               0 
              0               0               1 -5.32907051820075e-15 
1
              1               0               0               0 
              0               1               0               0 
              0               0               1               1 
1
              1               0               0               0 
              0               1               0               0 
              0               0               1              -1 
2  1 1 2 1 3 1 4 1 5 1 18 1 19 1 20 1 0
2  20 -1 19 -1 18 -1 5 -1 4 -1 3 -1 2 -1 1 -1 0
1
              1               0               0               0 
              0               1               0               0 
              0               0               1              18 
2  23 -1 20 -1 19 -1 18 -1 5 -1 4 -1 3 -1 2 -1 1 -1 0
1
              1               0               0               0 
              0               1               0               0 
              0               0               1 -5.32907051820075e-15 
1
              1               0               0               0 
              0               1               0               0 
              0               0               1               1 
1
              1               0               0               0 
              0               1               0               0 
              0               0               1              -1 
2  1 1 2 1 3 1 4 1 5 1 25 1 26 1 27 1 0
2  27 -1 26 -1 25 -1 5 -1 4 -1 3 -1 2 -1 1 -1 0
1
              1               0               0               0 
              0               1               0               0 
              0               0               1              18 
2  30 -1 27 -1 26 -1 25 -1 5 -1 4 -1 3 -1 2 -1 1 -1 0
1
              1               0               0               0 
              0               1               0               0 
              0               0               1 -5.32907051820075e-15 
1
              1               0               0               0 
              0               1               0               0 
              0               0               1               1 
1
              1               0               0               0 
              0               1               0               0 
              0               0               1              -1 
2  1 1 2 1 3 1 4 1 5 1 32 1 33 1 34 1 0
2  34 -1 33 -1 32 -1 5 -1 4 -1 3 -1 2 -1 1 -1 0
1
              1               0               0               0 
              0               1               0               0 
              0               0               1              18 
2  37 -1 34 -1 33 -1 32 -1 5 -1 4 -1 3 -1 2 -1 1 -1 0
1
              1               0               0               0 
              0               1               0               0 
              0               0               1 -5.32907051820075e-15 
1
              1               0               0               0 
              0               1               0               0 
              0               0               1               1 
1
              1               0               0               0 
              0               1               0               0 
              0               0               1              -1 
2  1 1 2 1 3 1 4 1 5 1 39 1 40 1 41 1 0
2  41 -1 40 -1 39 -1 5 -1 4 -1 3 -1 2 -1 1 -1 0
1
              1               0               0               0 
              0               1               0               0 
              0               0               1              18 
2  44 -1 41 -1 40 -1 39 -1 5 -1 4 -1 3 -1 2 -1 1 -1 0
1
              1               0               0               0 
              0               1               0               0 
              0               0               1 -5.32907051820075e-15 
1
              1               0               0               0 
              0               1               0               0 
              0               0               1               1 
1
              1               0               0               0 
              0               1               0               0 
              0               0               1              -1 
2  1 1 2 1 3 1 4 1 5 1 46 1 47 1 48 1 0
2  48 -1 47 -1 46 -1 5 -1 4 -1 3 -1 2 -1 1 -1 0
1
              1               0               0               0 
              0               1               0               0 
              0               0               1              18 
2  51 -1 48 -1 47 -1 46 -1 5 -1 4 -1 3 -1 2 -1 1 -1 0
1
              1               0               0               0 
              0               1               0               0 
              0               0               1 -5.32907051820075e-15 
1
              1               0               0               0 
              0               1               0               0 
              0               0               1               1 
1
              1               0               0               0 
              0               1               0               0 
              0               0               1              -1 
2  1 1 2 1 3 1 4 1 5 1 53 1 54 1 55 1 0
2  55 -1 54 -1 53 -1 5 -1 4 -1 3 -1 2 -1 1 -1 0
1
              1               0               0               0 
              0               1               0               0 
              0               0               1              18 
2  58 -1 55 -1 54 -1 53 -1 5 -1 4 -1 3 -1 2 -1 1 -1 0
1
              1               0               0               0 
              0               1               0               0 
              0               0               1 -5.32907051820074e-15 
1
              1               0               0               0 
              0               1               0               0 
              0               0               1               1 
1
              1               0               0               0 
              0               1               0               0 
              0               0               1              -1 
2  3 1 4 1 5 1 60 1 61 1 62 1 0
2  62 -1 61 -1 60 -1 5 -1 4 -1 3 -1 0
1
              1               0               0               0 
              0               1               0               0 
              0               0               1              18 
2  65 -1 62 -1 61 -1 60 -1 5 -1 4 -1 3 -1 0
1
              1               0               0               0 
              0               1               0               0 
              0               0               1              18 
2  67 -1 0
1
              1               0               0               0 
              0               1               0               0 
              0               0               1 -5.32907051820075e-15 
1
              1               0               0               0 
              0               1               0               0 
              0               0               1               1 
1
              1               0               0               0 
              0               1               0               0 
              0               0               1              -1 
2  1 1 2 1 3 1 4 1 5 1 69 1 70 1 71 1 0
2  71 -1 70 -1 69 -1 5 -1 4 -1 3 -1 2 -1 1 -1 0
1
              1               0               0               0 
              0               1               0               0 
              0               0               1              18 
2  74 -1 71 -1 70 -1 69 -1 5 -1 4 -1 3 -1 2 -1 1 -1 0
1
              1               0               0               0 
              0               1               0               0 
              0               0               1 -5.32907051820075e-15 
1
              1               0               0               0 
              0               1               0               0 
              0               0               1               1 
1
              1               0               0               0 
              0               1               0               0 
              0               0               1              -1 
2  1 1 2 1 3 1 4 1 5 1 76 1 77 1 78 1 0
2  78 -1 77 -1 76 -1 5 -1 4 -1 3 -1 2 -1 1 -1 0
1
              1               0               0               0 
              0               1               0               0 
              0               0               1              18 
2  81 -1 78 -1 77 -1 76 -1 5 -1 4 -1 3 -1 2 -1 1 -1 0
1
              1               0               0               0 
              0               1               0               0 
              0               0               1 -5.32907051820074e-15 
1
              1               0               0               0 
              0               1               0               0 
              0               0               1               1 
1
              1               0               0               0 
              0               1               0               0 
              0               0               1              -1 
2  3 1 4 1 5 1 83 1 84 1 85 1 0
2  85 -1 84 -1 83 -1 5 -1 4 -1 3 -1 0
1
              1               0               0               0 
              0               1               0               0 
              0               0               1              18 
2  88 -1 85 -1 84 -1 83 -1 5 -1 4 -1 3 -1 0
2  1 1 2 1 3 1 4 1 5 1 18 1 19 1 20 1 23 1 0
2  1 1 2 1 3 1 4 1 5 1 25 1 26 1 27 1 30 1 0
2  1 1 2 1 3 1 4 1 5 1 32 1 33 1 34 1 37 1 0
2  1 1 2 1 3 1 4 1 5 1 39 1 40 1 41 1 44 1 0
2  1 1 2 1 3 1 4 1 5 1 46 1 47 1 48 1 51 1 0
2  1 1 2 1 3 1 4 1 5 1 53 1 54 1 55 1 58 1 0
2  3 1 4 1 5 1 60 1 61 1 62 1 65 1 0
2  1 1 2 1 3 1 4 1 5 1 69 1 70 1 71 1 74 1 0
2  1 1 2 1 3 1 4 1 5 1 76 1 77 1 78 1 81 1 0
2  3 1 4 1 5 1 83 1 84 1 85 1 88 1 0
Curve2ds 80
1 0 8.8817841970012523e-16 0 -1 
1 400.05000000000001 -8.8262730457699819e-16 1.1102230246251565e-16 -1 
1 564 8.8817841970012523e-16 0 -1 
1 400.05000000000001 -8.8262730457699819e-16 1.1102230246251565e-16 -1 
1 0 0 1 0 
1 -281.99999999999994 200.02499999999998 1 0 
1 0 -18.000000000000004 1 0 
1 -281.99999999999994 200.02499999999998 1 0 
1 0 0 1.1102230246251565e-16 -1 
1 0 0 0 -1 
1 9.9920072216264089e-16 1.1093356479670479e-31 1 0 
1 -281.99999999999994 -200.02500000000003 0 1 
1 2.9976021664879231e-15 -18.000000000000004 1 0 
1 -281.99999999999994 -200.02500000000003 0 1 
1 564 0 0 -1 
1 0 0 1.1102230246251565e-16 -1 
1 9.9920072216264089e-16 1.1093356479670479e-31 1 0 
1 282 -200.02500000000003 0 1 
1 2.9976021664879231e-15 -18.000000000000004 1 0 
1 282 -200.02500000000003 0 1 
1 0 0 1 0 
1 -281.99999999999994 -200.02500000000003 1 0 
1 0 0 1 0 
1 0 -18.000000000000004 1 0 
1 0 0 1 0 
1 0 -17.999999999999993 1 0 
1 0 0 1 0 
1 0 -18.000000000000004 1 0 
1 0 0 1 0 
1 0 -18.000000000000004 1 0 
1 0 0 1 0 
1 0 -18.000000000000004 1 0 
1 0 0 1 0 
1 0 -18.000000000000004 1 0 
1 0 0 1 0 
1 0 -18.000000000000004 1 0 
1 0 0 1 0 
1 0 -18.000000000000004 1 0 
1 0 0 1 0 
1 0 -18.000000000000004 1 0 
1 0 0 1 0 
1 0 -18.000000000000004 1 0 
1 0 0 1 0 
1 0 -18.000000000000004 1 0 
1 0 0 1 0 
1 0 -18.000000000000004 1 0 
1 0 0 1 0 
1 0 -18.000000000000004 1 0 
1 0 0 1 0 
1 0 -18.000000000000004 1 0 
1 0 -18.000000000000004 1 0 
1 -281.99999999999994 -200.02500000000003 1 0 
1 0 0 0 -1 
1 6.2831853071795862 0 0 -1 
1 0 0 0 -1 
1 6.2831853071795862 0 0 -1 
1 0 0 0 -1 
1 6.2831853071795862 0 0 -1 
1 0 0 0 -1 
1 6.2831853071795862 0 0 -1 
1 0 0 0 -1 
1 6.2831853071795862 0 0 -1 
1 0 0 0 -1 
1 6.2831853071795862 0 0 -1 
1 0 0 0 -1 
1 6.2831853071795862 0 0 -1 
1 1.5707963267948823 0 0 -1 
1 3.1415926535898073 0 0 -1 
1 3.1415926535897931 0 0 -1 
1 1.570796326794925 0 0 -1 
1 1.5707963267948966 0 0 -1 
1 3.1415926535897505 0 0 -1 
1 3.1415926535897931 0 0 -1 
1 1.5707963267948823 0 0 -1 
1 0 0 0 -1 
1 6.2831853071795862 0 0 -1 
1 0 0 0 -1 
1 6.2831853071795862 0 0 -1 
1 0 0 0 -1 
1 6.2831853071795862 0 0 -1 
Curves 48
1 3.8890872965273822 400.05000000000001 2.7533531010703882e-14 0 0 1 
1 567.88908729652735 400.05000000000001 2.7533531010703882e-14 0 0 1 
1 18 18 400.05000000000001 1 0 -0 
1 18 18 400.05000000000001 1 0 -0 
1 3.8890872965273822 9.9920072216264089e-16 -1.7763568394002505e-14 0 0 1 
1 3.8890872965273822 1.9984014443252818e-15 0.99999999999998224 0 1 1.1102230246251565e-16 
1 3.8890872965273822 1.9984014443252818e-15 0.99999999999998224 0 1 1.1102230246251565e-16 
1 567.88908729652735 9.9920072216264089e-16 -1.7763568394002505e-14 0 0 1 
1 567.88908729652735 1.9984014443252818e-15 0.99999999999998224 0 1 1.1102230246251565e-16 
1 567.88908729652735 1.9984014443252818e-15 0.99999999999998224 0 1 1.1102230246251565e-16 
1 18 18 0 1 0 -0 
2 90 17.999999999999996 210 -0 1 0 0 0 1 1 0 -0 12.699999999999989
2 300 17.999999999999986 84.903125000000003 -0 1 0 0 0 1 1 0 -0 3.5718750000000057
2 520 18 210 -0 1 0 0 0 1 1 0 -0 12.699999999999989
2 90 18.000000000000004 260 -0 1 0 0 0 1 1 0 -0 12.699999999999989
2 136.48750000000001 18 225 -0 1 0 0 0 1 1 0 -0 3.5718750000000057
2 90 18.000000000000011 310 -0 1 0 0 0 1 1 0 -0 12.699999999999989
2 68.224999999999994 18.000000000000018 365.09687500000001 -0 1 0 0 0 1 1 0 -0 3.5718749999999773
2 132.31408729652739 355.15937500000007 0 -0 0 -1 0 -1 -0 -1 -0 0 2
1 130.31408729652739 46.420312499999994 0 0 -1 -0 
1 67.101587296527384 357.15937500000001 0 1 0 0 
2 132.31408729652739 94.840625000000017 0 0 0 -1 1 0 0 0 -1 0 2
2 439.46408729652734 355.15937500000001 0 -0 0 -1 -1 -0 0 0 1 0 2
1 67.101587296527384 92.840625000000017 0 1 0 0 
1 441.4640872965274 46.420312499999994 0 0 -1 -0 
2 439.4640872965274 94.840624999999989 0 0 0 -1 0 1 0 1 -0 0 2
2 463.51249999999999 18 225 -0 1 0 0 0 1 1 0 -0 3.5718750000000057
2 300 18.000000000000018 365.09687500000001 -0 1 0 0 0 1 1 0 -0 3.5718749999999773
2 477.80000000000001 18.000000000000018 365.09687500000001 -0 1 0 0 0 1 1 0 -0 3.5718749999999773
1 18 18 0 1 0 -0 
1 75.889087296527379 222.69999999999996 3.1086244689504383e-15 0 0 1 
1 285.88908729652741 88.475000000000009 -7.9195909089927828e-15 0 0 1 
1 505.88908729652741 222.69999999999996 1.1102230246251565e-15 0 0 1 
1 75.889087296527364 272.69999999999999 7.6975463040677515e-15 0 0 1 
1 122.37658729652738 228.57187500000001 1.1102230246251565e-15 0 0 1 
1 75.889087296527364 322.69999999999999 9.0298139336179393e-15 0 0 1 
1 54.114087296527373 368.66874999999999 1.3766765505351941e-14 0 0 1 
1 130.31408729652739 355.15937500000007 0 0 0 1 
1 132.31408729652742 357.15937500000001 0 0 0 1 
1 130.31408729652739 94.840625000000017 0 0 0 1 
1 439.4640872965274 357.15937500000001 0 0 0 1 
1 132.31408729652739 92.840625000000017 0 0 0 1 
1 441.46408729652734 355.15937500000013 0 0 0 1 
1 439.4640872965274 92.840624999999989 0 0 0 1 
1 441.4640872965274 94.840625000000017 0 0 0 1 
1 449.4015872965274 228.57187500000001 1.1102230246251565e-15 0 0 1 
1 285.88908729652741 368.66874999999999 1.4210854715202004e-14 0 0 1 
1 463.68908729652748 368.66874999999999 1.4210854715202004e-14 0 0 1 
Polygon3D 0
PolygonOnTriangulations 0
Surfaces 24
1 3.8890872965273822 400.05000000000001 2.8421709430404007e-14 0 1 0 1 0 0 0 0 -1 
1 3.8890872965273822 9.9920072216264089e-16 -1.7763568394002505e-14 -1 0 0 0 1 1.1102230246251565e-16 0 1.1102230246251565e-16 -1 
1 567.88908729652735 9.9920072216264089e-16 -1.7763568394002505e-14 -1 0 0 0 1 1.1102230246251565e-16 0 1.1102230246251565e-16 -1 
1 285.88908729652735 200.02500000000003 1.0000000000000053 0 0 1 1 0 -0 -0 1 0 
1 285.88908729652735 200.02500000000003 1.0000000000000053 0 0 1 1 0 -0 -0 1 0 
1 3.8890872965273822 1.9984014443252818e-15 -1.7763568394002505e-14 0 1 0 1 0 0 0 0 -1 
2 75.889087296527379 210 7.1054273576010019e-15 0 1.1102230246251565e-16 -1 0 1 1.1102230246251565e-16 1 0 0 12.699999999999989
2 285.88908729652741 84.903125000000003 3.5527136788005009e-15 0 1.1102230246251565e-16 -1 0 1 1.1102230246251565e-16 1 0 0 3.5718750000000057
2 505.88908729652741 210 3.5527136788005009e-15 0 1.1102230246251565e-16 -1 0 1 1.1102230246251565e-16 1 0 0 12.699999999999989
2 75.889087296527379 260 3.5527136788005009e-15 0 1.1102230246251565e-16 -1 0 1 1.1102230246251565e-16 1 0 0 12.699999999999989
2 122.37658729652739 225 3.5527136788005009e-15 0 1.1102230246251565e-16 -1 0 1 1.1102230246251565e-16 1 0 0 3.5718750000000057
2 75.889087296527379 310 3.5527136788005009e-15 0 1.1102230246251565e-16 -1 0 1 1.1102230246251565e-16 1 0 0 12.699999999999989
2 54.114087296527373 365.09687500000001 0 0 1.1102230246251565e-16 -1 0 1 1.1102230246251565e-16 1 0 0 3.5718749999999773
2 132.31408729652739 355.15937500000007 0 -0 0 -1 0 -1 -0 -1 -0 0 2
2 132.31408729652739 94.840625000000017 0 0 0 -1 1 0 0 0 -1 0 2
2 439.46408729652734 355.15937500000001 0 -0 0 -1 -1 -0 0 0 1 0 2
2 439.4640872965274 94.840624999999989 0 0 0 -1 0 1 0 1 -0 0 2
2 449.4015872965274 225 3.5527136788005009e-15 0 1.1102230246251565e-16 -1 0 1 1.1102230246251565e-16 1 0 0 3.5718750000000057
2 285.88908729652741 365.09687500000001 0 0 1.1102230246251565e-16 -1 0 1 1.1102230246251565e-16 1 0 0 3.5718749999999773
2 463.68908729652742 365.09687500000001 0 0 1.1102230246251565e-16 -1 0 1 1.1102230246251565e-16 1 0 0 3.5718749999999773
1 130.31408729652739 355.15937500000007 0 1 0 -0 0 -1 0 0 -0 -1 
1 132.31408729652742 357.15937500000001 0 0 1 0 1 0 0 0 0 -1 
1 132.31408729652739 92.840625000000017 0 0 1 0 1 0 0 0 0 -1 
1 441.4640872965274 355.15937500000007 0 1 0 -0 0 -1 0 0 -0 -1 
Triangulations 0

TShapes 193
Ve
1.00000001998401e-07
3.88908729652738 400.05 2.75335310107039e-14
0 0

0101101
*
Ve
1.00000001998401e-07
3.88908729652738 400.05 18
0 0

0101101
*
Ed
 1.00000001998401e-07 1 1 0
1  1 0 0 18
2  1 1 0 0 18
2  2 2 0 0 18
0

0101000
+193 0 -192 0 *
Ve
1.00000001998401e-07
567.889087296527 400.05 2.75335310107039e-14
0 0

0101101
*
Ve
1.00000001998401e-07
567.889087296527 400.05 18
0 0

0101101
*
Ed
 1.00000001998401e-07 1 1 0
1  2 0 0 18
2  3 1 0 0 18
2  4 3 0 0 18
0

0101000
+190 0 -189 0 *
Ed
 1.00000001998401e-07 1 1 0
1  3 0 0 564
2  5 1 10 0 564
2  6 4 11 0 564
0

0101000
+193 10 -190 10 *
Ed
 1.00000001998401e-07 1 1 0
1  4 0 0 564
2  7 1 14 0 564
2  8 5 11 0 564
0

0101000
+192 14 -189 14 *
Wi

0101100
+191 0 -188 0 -187 9 +186 13 *
Fa
0  1.00000001998401e-07 1 0

0101000
+185 0 *
Ve
1.00000001998401e-07
3.88908729652738 9.99200722162641e-16 -1.77635683940025e-14
0 0

0101101
*
Ve
1.00000001998401e-07
3.88908729652738 9.99200722162641e-16 18
0 0

0101101
*
Ed
 1.00000001998401e-07 1 1 0
1  5 0 0 18
2  9 2 0 0 18
2  10 6 0 0 18
0

0101000
+183 0 -182 0 *
Ed
 1e-07 1 1 0
1  6 0 -9.99200722162641e-16 400.05
2  11 2 15 -9.99200722162641e-16 400.05
2  12 4 0 -9.99200722162641e-16 400.05
0

0101000
+183 15 -193 15 *
Ed
 1e-07 1 1 0
1  7 0 -9.99200722162641e-16 400.05
2  13 2 17 -9.99200722162641e-16 400.05
2  14 5 0 -9.99200722162641e-16 400.05
0

0101000
+182 17 -192 17 *
Wi

0101100
+181 0 -191 0 -180 8 +179 16 *
Fa
0  1e-07 2 0

0101000
+178 0 *
Ve
1.00000001998401e-07
567.889087296527 9.99200722162641e-16 -1.77635683940025e-14
0 0

0101101
*
Ve
1.00000001998401e-07
567.889087296527 9.99200722162641e-16 18
0 0

0101101
*
Ed
 1.00000001998401e-07 1 1 0
1  8 0 0 18
2  15 6 0 0 18
2  16 3 0 0 18
0

0101000
+176 0 -175 0 *
Ed
 1e-07 1 1 0
1  9 0 -9.99200722162641e-16 400.05
2  17 3 15 -9.99200722162641e-16 400.05
2  18 4 0 -9.99200722162641e-16 400.05
0

0101000
+176 15 -190 15 *
Ed
 1e-07 1 1 0
1  10 0 -9.99200722162641e-16 400.05
2  19 3 17 -9.99200722162641e-16 400.05
2  20 5 0 -9.99200722162641e-16 400.05
0

0101000
+175 17 -189 17 *
Wi

0101100
+174 0 -188 0 -173 8 +172 16 *
Fa
0  1e-07 3 0

0101000
+171 0 *
Ed
 1.00000001998401e-07 1 1 0
1  11 0 0 564
2  21 6 10 0 564
2  22 4 11 0 564
0

0101000
+183 10 -176 10 *
Wi

0101100
-187 9 -180 8 +173 8 +169 9 *
Ve
1.000000511098e-07
75.8890872965274 222.7 3.10862446895044e-15
0 0

0101101
*
Ed
 1.00000049111398e-07 1 1 0
1  12 0 0 6.28318530717959
2  23 7 22 0 6.28318530717959
2  24 7 24 0 6.28318530717959
0

0101000
+167 22 -167 22 *
Wi

0101100
+166 21 *
Ve
1.00000095529564e-07
285.889087296527 88.475 -7.91959090899278e-15
0 0

0101101
*
Ed
 1.00000089793411e-07 1 1 0
1  13 0 0 6.28318530717959
2  25 8 29 0 6.28318530717959
2  26 8 31 0 6.28318530717959
0

0101000
+164 29 -164 29 *
Wi

0101100
+163 28 *
Ve
1.00000059304815e-07
505.889087296527 222.7 1.11022302462516e-15
0 0

0101101
*
Ed
 1.0000005929701e-07 1 1 0
1  14 0 0 6.28318530717959
2  27 9 36 0 6.28318530717959
2  28 9 38 0 6.28318530717959
0

0101000
+161 36 -161 36 *
Wi

0101100
+160 35 *
Ve
1.00000052368485e-07
75.8890872965274 272.7 7.69754630406775e-15
0 0

0101101
*
Ed
 1.00000052072426e-07 1 1 0
1  15 0 0 6.28318530717959
2  29 10 43 0 6.28318530717959
2  30 10 45 0 6.28318530717959
0

0101000
+158 43 -158 43 *
Wi

0101100
+157 42 *
Ve
1.00000030873074e-07
122.376587296527 228.571875 1.11022302462516e-15
0 0

0101101
*
Ed
 1.0000003085747e-07 1 1 0
1  16 0 0 6.28318530717959
2  31 11 50 0 6.28318530717959
2  32 11 52 0 6.28318530717959
0

0101000
+155 50 -155 50 *
Wi

0101100
+154 49 *
Ve
1.00000048114976e-07
75.8890872965274 322.7 9.02981393361794e-15
0 0

0101101
*
Ed
 1.00000045376426e-07 1 1 0
1  17 0 0 6.28318530717959
2  33 12 57 0 6.28318530717959
2  34 12 59 0 6.28318530717959
0

0101000
+152 57 -152 57 *
Wi

0101100
+151 56 *
Ve
1.00000056444968e-07
54.1140872965274 368.66875 1.37667655053519e-14
0 0

0101101
*
Ed
 1.00000051337942e-07 1 1 0
1  18 0 0 6.28318530717959
2  35 13 64 0 6.28318530717959
2  36 13 66 0 6.28318530717959
0

0101000
+149 64 -149 64 *
Wi

0101100
+148 63 *
Ve
1.50000020399134e-07
130.314087296527 355.159375 0
0 0

0101101
*
Ve
1.50000021649349e-07
132.314087296527 357.159375 0
0 0

0101101
*
Ed
 1.00000007327472e-07 1 1 0
1  19 0 1.57079632679488 3.14159265358981
2  37 14 0 1.57079632679488 3.14159265358981
2  38 14 68 1.57079632679488 3.14159265358981
0

0101000
+146 0 -145 0 *
Ve
1.50000017990702e-07
130.314087296527 94.840625 0
0 0

0101101
*
Ed
 1.50000017990702e-07 1 1 0
1  20 0 -308.7390625 -48.4203125
0

0101000
+146 0 -143 0 *
Ve
1.50000021649349e-07
439.464087296527 357.159375 0
0 0

0101101
*
Ed
 1.50000021649349e-07 1 1 0
1  21 0 65.2125 372.3625
0

0101000
+145 0 -141 0 *
Ve
1.50000021649349e-07
132.314087296527 92.840625 0
0 0

0101101
*
Ed
 1.00000007327472e-07 1 1 0
1  22 0 1.5707963267949 3.14159265358979
2  39 15 0 1.5707963267949 3.14159265358979
2  40 15 68 1.5707963267949 3.14159265358979
0

0101000
+139 0 -143 0 *
Ve
1.50000063079235e-07
441.464087296527 355.159375 0
0 0

0101101
*
Ed
 1.00000007327472e-07 1 1 0
1  23 0 1.57079632679492 3.14159265358975
2  41 16 0 1.57079632679492 3.14159265358975
2  42 16 68 1.57079632679492 3.14159265358975
0

0101000
+141 0 -137 0 *
Ve
1.50000021649349e-07
439.464087296527 92.840625 0
0 0

0101101
*
Ed
 1.50000021649349e-07 1 1 0
1  24 0 65.2125 372.3625
0

0101000
+139 0 -135 0 *
Ve
1.50000017990702e-07
441.464087296527 94.840625 0
0 0

0101101
*
Ed
 1.50000017990702e-07 1 1 0
1  25 0 -308.7390625 -48.4203125
0

0101000
+137 0 -133 0 *
Ed
 1.00000007327472e-07 1 1 0
1  26 0 1.57079632679488 3.14159265358979
2  43 17 0 1.57079632679488 3.14159265358979
2  44 17 68 1.57079632679488 3.14159265358979
0

0101000
+133 0 -135 0 *
Wi

0101100
+144 0 -142 0 +140 0 +138 0 +136 0 -134 0 +132 0 +131 0 *
Ve
1.00000006217249e-07
449.401587296527 228.571875 1.11022302462516e-15
0 0

0101101
*
Ed
 1.00000005551115e-07 1 1 0
1  27 0 0 6.28318530717959
2  45 18 73 0 6.28318530717959
2  46 18 75 0 6.28318530717959
0

0101000
+129 73 -129 73 *
Wi

0101100
+128 72 *
Ve
1.00000041421681e-07
285.889087296527 368.66875 1.4210854715202e-14
0 0

0101101
*
Ed
 1.00000036092611e-07 1 1 0
1  28 0 0 6.28318530717959
2  47 19 80 0 6.28318530717959
2  48 19 82 0 6.28318530717959
0

0101000
+126 80 -126 80 *
Wi

0101100
+125 79 *
Ve
1.00000093185283e-07
463.689087296527 368.66875 1.4210854715202e-14
0 0

0101101
*
Ed
 1.00000036092611e-07 1 1 0
1  29 0 0 6.28318530717959
2  49 20 87 0 6.28318530717959
2  50 20 89 0 6.28318530717959
0

0101000
+123 87 -123 87 *
Wi

0101100
+122 86 *
Fa
0  1.00000001998401e-07 4 8

0101000
+168 0 +165 0 +162 0 +159 0 +156 0 +153 0 +150 0 +147 0 +130 0 +127 0 
+124 0 +121 0 *
Ed
 1.00000001998401e-07 1 1 0
1  30 0 0 564
2  51 6 14 0 564
2  52 5 11 0 564
0

0101000
+182 14 -175 14 *
Wi

0101100
-186 13 -179 16 +172 16 +119 13 *
Ve
1.000000511098e-07
75.8890872965274 222.7 18
0 0

0101101
*
Ed
 1.00000049111398e-07 1 1 0
1  12 0 0 6.28318530717959
2  23 7 22 0 6.28318530717959
2  24 7 24 0 6.28318530717959
0

0101000
+117 24 -117 24 *
Wi

0101100
+116 90 *
Ve
1.00000095529564e-07
285.889087296527 88.475 18
0 0

0101101
*
Ed
 1.00000089793411e-07 1 1 0
1  13 0 0 6.28318530717959
2  25 8 29 0 6.28318530717959
2  26 8 31 0 6.28318530717959
0

0101000
+114 31 -114 31 *
Wi

0101100
+113 91 *
Ve
1.00000059304815e-07
505.889087296527 222.7 18
0 0

0101101
*
Ed
 1.0000005929701e-07 1 1 0
1  14 0 0 6.28318530717959
2  27 9 36 0 6.28318530717959
2  28 9 38 0 6.28318530717959
0

0101000
+111 38 -111 38 *
Wi

0101100
+110 92 *
Ve
1.00000052368485e-07
75.8890872965274 272.7 18
0 0

0101101
*
Ed
 1.00000052072426e-07 1 1 0
1  15 0 0 6.28318530717959
2  29 10 43 0 6.28318530717959
2  30 10 45 0 6.28318530717959
0

0101000
+108 45 -108 45 *
Wi

0101100
+107 93 *
Ve
1.00000030873074e-07
122.376587296527 228.571875 18
0 0

0101101
*
Ed
 1.0000003085747e-07 1 1 0
1  16 0 0 6.28318530717959
2  31 11 50 0 6.28318530717959
2  32 11 52 0 6.28318530717959
0

0101000
+105 52 -105 52 *
Wi

0101100
+104 94 *
Ve
1.00000048114976e-07
75.8890872965274 322.7 18
0 0

0101101
*
Ed
 1.00000045376426e-07 1 1 0
1  17 0 0 6.28318530717959
2  33 12 57 0 6.28318530717959
2  34 12 59 0 6.28318530717959
0

0101000
+102 59 -102 59 *
Wi

0101100
+101 95 *
Ve
1.00000056444968e-07
54.1140872965274 368.66875 18
0 0

0101101
*
Ed
 1.00000051337942e-07 1 1 0
1  18 0 0 6.28318530717959
2  35 13 64 0 6.28318530717959
2  36 13 66 0 6.28318530717959
0

0101000
+99 66 -99 66 *
Wi

0101100
+98 96 *
Ve
1.50000020399134e-07
130.314087296527 355.159375 18
0 0

0101101
*
Ve
1.50000021649349e-07
132.314087296527 357.159375 18
0 0

0101101
*
Ed
 1.00000005551115e-07 1 1 0
1  19 0 1.57079632679488 3.14159265358981
2  37 14 0 1.57079632679488 3.14159265358981
2  38 14 68 1.57079632679488 3.14159265358981
0

0101000
+96 68 -95 68 *
Ve
1.50000017990702e-07
130.314087296527 94.840625 18
0 0

0101101
*
Ed
 1.50000017990702e-07 1 1 0
1  20 0 -308.7390625 -48.4203125
0

0101000
+96 68 -93 68 *
Ve
1.50000021649349e-07
439.464087296527 357.159375 18
0 0

0101101
*
Ed
 1.50000021649349e-07 1 1 0
1  21 0 65.2125 372.3625
0

0101000
+95 68 -91 68 *
Ve
1.50000021649349e-07
132.314087296527 92.840625 18
0 0

0101101
*
Ed
 1.00000005551115e-07 1 1 0
1  22 0 1.5707963267949 3.14159265358979
2  39 15 0 1.5707963267949 3.14159265358979
2  40 15 68 1.5707963267949 3.14159265358979
0

0101000
+89 68 -93 68 *
Ve
1.50000063079235e-07
441.464087296527 355.159375 18
0 0

0101101
*
Ed
 1.00000005551115e-07 1 1 0
1  23 0 1.57079632679492 3.14159265358975
2  41 16 0 1.57079632679492 3.14159265358975
2  42 16 68 1.57079632679492 3.14159265358975
0

0101000
+91 68 -87 68 *
Ve
1.50000021649349e-07
439.464087296527 92.840625 18
0 0

0101101
*
Ed
 1.50000021649349e-07 1 1 0
1  24 0 65.2125 372.3625
0

0101000
+89 68 -85 68 *
Ve
1.50000017990702e-07
441.464087296527 94.840625 18
0 0

0101101
*
Ed
 1.50000017990702e-07 1 1 0
1  25 0 -308.7390625 -48.4203125
0

0101000
+87 68 -83 68 *
Ed
 1.00000005551115e-07 1 1 0
1  26 0 1.57079632679488 3.14159265358979
2  43 17 0 1.57079632679488 3.14159265358979
2  44 17 68 1.57079632679488 3.14159265358979
0

0101000
+83 68 -85 68 *
Wi

0101100
+94 67 -92 67 +90 67 +88 67 +86 67 -84 67 +82 67 +81 67 *
Ve
1.00000006217249e-07
449.401587296527 228.571875 18
0 0

0101101
*
Ed
 1.00000005551115e-07 1 1 0
1  27 0 0 6.28318530717959
2  45 18 73 0 6.28318530717959
2  46 18 75 0 6.28318530717959
0

0101000
+79 75 -79 75 *
Wi

0101100
+78 97 *
Ve
1.00000041421681e-07
285.889087296527 368.66875 18
0 0

0101101
*
Ed
 1.00000036092611e-07 1 1 0
1  28 0 0 6.28318530717959
2  47 19 80 0 6.28318530717959
2  48 19 82 0 6.28318530717959
0

0101000
+76 82 -76 82 *
Wi

0101100
+75 98 *
Ve
1.00000093185283e-07
463.689087296527 368.66875 18
0 0

0101101
*
Ed
 1.00000036092611e-07 1 1 0
1  29 0 0 6.28318530717959
2  49 20 87 0 6.28318530717959
2  50 20 89 0 6.28318530717959
0

0101000
+73 89 -73 89 *
Wi

0101100
+72 99 *
Fa
0  1.00000001998401e-07 5 16

0101000
+118 0 +115 0 +112 0 +109 0 +106 0 +103 0 +100 0 +97 0 +80 0 +77 0 
+74 0 +71 0 *
Wi

0101100
+181 0 -174 0 -169 9 +119 13 *
Fa
0  1.00000001998401e-07 6 0

0101000
+69 0 *
Ed
 1.000000511098e-07 1 1 0
1  31 0 0 18
3  53 54CN 7 0 0 18
0

0101000
+167 0 -117 0 *
Wi

0101100
+67 0 -67 0 -166 21 +116 90 *
Fa
0  1.00000049111398e-07 7 0

0101000
+66 0 *
Ed
 1.00000095529564e-07 1 1 0
1  32 0 0 18
3  55 56CN 8 0 0 18
0

0101000
+164 0 -114 0 *
Wi

0101100
+64 0 -64 0 -163 28 +113 91 *
Fa
0  1.00000089793411e-07 8 0

0101000
+63 0 *
Ed
 1.00000059304815e-07 1 1 0
1  33 0 0 18
3  57 58CN 9 0 0 18
0

0101000
+161 0 -111 0 *
Wi

0101100
+61 0 -61 0 -160 35 +110 92 *
Fa
0  1.0000005929701e-07 9 0

0101000
+60 0 *
Ed
 1.00000052368485e-07 1 1 0
1  34 0 0 18
3  59 60CN 10 0 0 18
0

0101000
+158 0 -108 0 *
Wi

0101100
+58 0 -58 0 -157 42 +107 93 *
Fa
0  1.00000052072426e-07 10 0

0101000
+57 0 *
Ed
 1.00000030873074e-07 1 1 0
1  35 0 0 18
3  61 62CN 11 0 0 18
0

0101000
+155 0 -105 0 *
Wi

0101100
+55 0 -55 0 -154 49 +104 94 *
Fa
0  1.0000003085747e-07 11 0

0101000
+54 0 *
Ed
 1.00000048114976e-07 1 1 0
1  36 0 0 18
3  63 64CN 12 0 0 18
0

0101000
+152 0 -102 0 *
Wi

0101100
+52 0 -52 0 -151 56 +101 95 *
Fa
0  1.00000045376426e-07 12 0

0101000
+51 0 *
Ed
 1.00000056444968e-07 1 1 0
1  37 0 0 18
3  65 66CN 13 0 0 18
0

0101000
+149 0 -99 0 *
Wi

0101100
+49 0 -49 0 -148 63 +98 96 *
Fa
0  1.00000051337942e-07 13 0

0101000
+48 0 *
Ed
 1.50000020399134e-07 1 1 0
1  38 0 0 18
2  67 14 0 0 18
4 G1 21 0 14 0
0

0101000
+146 0 -96 0 *
Ed
 1.50000021649349e-07 1 1 0
1  39 0 0 18
2  68 14 0 0 18
4 G1 22 0 14 0
0

0101000
+145 0 -95 0 *
Wi

0101100
+46 0 -45 0 -144 0 +94 67 *
Fa
0  1.00000001998401e-07 14 0

0101000
+44 0 *
Ed
 1.50000017990702e-07 1 1 0
1  40 0 0 18
2  69 15 0 0 18
4 G1 15 0 21 0
0

0101000
+143 0 -93 0 *
Wi

0101100
+46 0 -42 0 -142 0 +92 67 *
Fa
0  1.50000017990702e-07 21 0

0101000
+41 0 *
Ed
 1.50000021649349e-07 1 1 0
1  41 0 0 18
2  70 16 0 0 18
4 G1 22 0 16 0
0

0101000
+141 0 -91 0 *
Wi

0101100
+45 0 -39 0 -140 0 +90 67 *
Fa
0  1.50000021649349e-07 22 0

0101000
+38 0 *
Ed
 1.50000021649349e-07 1 1 0
1  42 0 0 18
2  71 15 0 0 18
4 G1 23 0 15 0
0

0101000
+139 0 -89 0 *
Wi

0101100
+36 0 -42 0 -138 0 +88 67 *
Fa
0  1.00000001998401e-07 15 0

0101000
+35 0 *
Ed
 1.50000063079235e-07 1 1 0
1  43 0 0 18
2  72 16 0 0 18
4 G1 16 0 24 0
0

0101000
+137 0 -87 0 *
Wi

0101100
+39 0 -33 0 -136 0 +86 67 *
Fa
0  1.00000001998401e-07 16 0

0101000
+32 0 *
Ed
 1.50000021649349e-07 1 1 0
1  44 0 0 18
2  73 17 0 0 18
4 G1 17 0 23 0
0

0101000
+135 0 -85 0 *
Wi

0101100
+36 0 -30 0 -134 0 +84 67 *
Fa
0  1.50000021649349e-07 23 0

0101000
+29 0 *
Ed
 1.50000017990702e-07 1 1 0
1  45 0 0 18
2  74 17 0 0 18
4 G1 24 0 17 0
0

0101000
+133 0 -83 0 *
Wi

0101100
+33 0 -27 0 -132 0 +82 67 *
Fa
0  1.50000017990702e-07 24 0

0101000
+26 0 *
Wi

0101100
+27 0 -30 0 -131 0 +81 67 *
Fa
0  1.00000001998401e-07 17 0

0101000
+24 0 *
Ed
 1.00000006217249e-07 1 1 0
1  46 0 0 18
3  75 76CN 18 0 0 18
0

0101000
+129 0 -79 0 *
Wi

0101100
+22 0 -22 0 -128 72 +78 97 *
Fa
0  1.00000005551115e-07 18 0

0101000
+21 0 *
Ed
 1.00000041421681e-07 1 1 0
1  47 0 0 18
3  77 78CN 19 0 0 18
0

0101000
+126 0 -76 0 *
Wi

0101100
+19 0 -19 0 -125 79 +75 98 *
Fa
0  1.00000036092611e-07 19 0

0101000
+18 0 *
Ed
 1.00000093185283e-07 1 1 0
1  48 0 0 18
3  79 80CN 20 0 0 18
0

0101000
+123 0 -73 0 *
Wi

0101100
+16 0 -16 0 -122 86 +72 99 *
Fa
0  1.00000036092611e-07 20 0

0101000
+15 0 *
Sh

0101100
+184 0 +177 0 -170 0 -120 0 +70 0 -68 0 -65 0 -62 0 -59 0 -56 0 
-53 0 -50 0 -47 0 -43 0 +40 0 -37 0 -34 0 -31 0 +28 0 -25 0 
-23 0 -20 0 -17 0 -14 0 *
So

0100000
+13 0 *
Co

0100000
+12 0 *
Co

0100000
+11 0 *
Co

0100000
+10 0 *
Co

0100000
+9 0 *
Co

0100000
+8 0 *
Co

0100000
+7 0 *
Co

0100000
+6 0 *
Co

0100000
+5 0 *
Co

0100000
+4 0 *
Co

0100000
+3 0 *
Co

1100000
+2 0 *

+1 0 