DBRep_DrawableShape

CASCADE Topology V1, (c) Matra-Datavision
Locations 0
Curve2ds 0
Curves 8
1 67.101587296527384 357.15937500000001 0 1 0 0 
2 439.46408729652734 355.15937500000001 0 -0 0 -1 -1 -0 0 0 1 0 2
1 441.4640872965274 46.420312499999994 0 0 -1 -0 
2 439.4640872965274 94.840624999999989 0 0 0 -1 0 1 0 1 -0 0 2
1 67.101587296527384 92.840625000000017 0 1 0 0 
2 132.31408729652739 94.840625000000017 0 0 0 -1 1 0 0 0 -1 0 2
1 130.31408729652739 46.420312499999994 0 0 -1 -0 
2 132.31408729652739 355.15937500000007 0 -0 0 -1 0 -1 -0 -1 -0 0 2
Polygon3D 0
PolygonOnTriangulations 0
Surfaces 1
1 285.88908729652735 224.99999999999997 0 0 0 1 1 0 -0 -0 1 0 
Triangulations 0

TShapes 19
Ve
1.50000021649349e-07
132.314087296527 357.159375 0
0 0

0101101
*
Ve
1.50000021649349e-07
439.464087296527 357.159375 0
0 0

0101101
*
Ed
 1.50000021649349e-07 1 1 0
1  1 0 65.2125 372.3625
0

0101000
+19 0 -18 0 *
Ve
1.50000063079235e-07
441.464087296527 355.159375 0
0 0

0101101
*
Ed
 1.00000001998401e-07 1 1 0
1  2 0 1.57079632679492 3.14159265358975
0

0101000
+18 0 -16 0 *
Ve
1.50000017990702e-07
441.464087296527 94.840625 0
0 0

0101101
*
Ed
 1.50000017990702e-07 1 1 0
1  3 0 -308.7390625 -48.4203125
0

0101000
+16 0 -14 0 *
Ve
1.50000021649349e-07
439.464087296527 92.840625 0
0 0

0101101
*
Ed
 1.00000001998401e-07 1 1 0
1  4 0 1.57079632679488 3.14159265358979
0

0101000
+14 0 -12 0 *
Ve
1.50000021649349e-07
132.314087296527 92.840625 0
0 0

0101101
*
Ed
 1.50000021649349e-07 1 1 0
1  5 0 65.2125 372.3625
0

0101000
+10 0 -12 0 *
Ve
1.50000017990702e-07
130.314087296527 94.840625 0
0 0

0101101
*
Ed
 1.00000001998401e-07 1 1 0
1  6 0 1.5707963267949 3.14159265358979
0

0101000
+10 0 -8 0 *
Ve
1.50000020399134e-07
130.314087296527 355.159375 0
0 0

0101101
*
Ed
 1.50000017990702e-07 1 1 0
1  7 0 -308.7390625 -48.4203125
0

0101000
+6 0 -8 0 *
Ed
 1.00000001998401e-07 1 1 0
1  8 0 1.57079632679488 3.14159265358981
0

0101000
+6 0 -19 0 *
Wi

0101100
+17 0 +15 0 +13 0 +11 0 -9 0 +7 0 -5 0 +4 0 *
Fa
0  1e-07 1 0

0101000
-3 0 *
Sh

1101000
+2 0 *

+1 0 