DBRep_DrawableShape

CASCADE Topology V1, (c) Matra-Datavision
Locations 12
1
              1               0               0               0 
              0               1               0               0 
              0               0               1              -1 
1
              1               0               0               0 
              0               1               0               0 
              0               0               1               0 
1
              1               0               0               0 
              0 1.11022302462516e-16              -1               0 
              0               1 1.11022302462516e-16               0 
1
              1               0               0 -14.1109127034721 
              0               1               0           596.9 
              0               0               1         -1290.1 
2  2 1 3 1 4 1 0
1
              1               0               0               0 
              0               1               0               0 
              0               0               1               0 
1
              1               0               0               0 
              0               1               0               0 
              0               0               1               0 
1
              1               0               0               0 
              0               1               0               0 
              0               0               1               0 
2  6 1 7 1 8 1 0
2  4 -1 3 -1 2 -1 0
1
              1               0               0               0 
              0               1               0               0 
              0               0               1              18 
2  1 1 11 1 0
Curve2ds 24
8 -357.5 -26.5
1 26.5 83 -1 0 
8 -357.5 -26.5
1 -26.5 -5.0501898662234908 -1 -0 
8 41.5 439.5
1 53 41.5 0 1 
8 41.5 439.5
1 -41.5 5.0501898662234908 1 0 
8 -357.5 -26.5
1 26.5 481 -1 0 
8 -357.5 -26.5
1 -26.5 -5.0501898662234908 -1 -0 
8 41.5 439.5
1 384 41.5 0 1 
8 41.5 439.5
1 -41.5 5.0501898662234908 1 0 
1 0 0 0 1 
1 331 0 0 -1 
8 -357.5 -26.5
1 26.5 83 -1 0 
8 -357.5 -26.5
1 -26.5 -23.050189866223491 -1 -0 
1 0 0 0 -1 
1 0 0 0 1 
8 41.5 439.5
1 53 41.5 0 1 
8 41.5 439.5
1 -41.5 23.050189866223491 1 0 
1 0 0 0 -1 
1 398 0 0 1 
1 398 0 0 1 
1 331 0 0 -1 
8 -357.5 -26.5
1 26.5 481 -1 0 
8 -357.5 -26.5
1 -26.5 -23.050189866223491 -1 -0 
8 41.5 439.5
1 384 41.5 0 1 
8 41.5 439.5
1 -41.5 23.050189866223491 1 0 
Curves 12
1 101 1290.0999999999999 26.5 -0 0 -1 
1 59.5 1290.0999999999999 53 1 0 0 
1 499 1290.0999999999999 26.5 -0 0 -1 
1 59.5 1290.0999999999999 384 1 0 0 
1 101 1285.0498101337764 384 -0 1 0 
1 101 1308.0999999999999 26.5 -0 0 -1 
1 101 1285.0498101337764 53 -0 1 0 
1 59.5 1308.0999999999999 53 1 0 0 
1 499 1285.0498101337764 53 -0 1 0 
1 499 1285.0498101337764 384 -0 1 0 
1 499 1308.0999999999999 26.5 -0 0 -1 
1 59.5 1308.0999999999999 384 1 0 0 
Polygon3D 0
PolygonOnTriangulations 0
Surfaces 7
1 285.88908729652798 298.44999999999993 1 0 0 1 1 0 -0 -0 1 0 
1 18 1290.0999999999999 0 -0 1 0 0 0 1 1 0 -0 
1 101 1285.0498101337764 53 1 0 -0 0 0 1 0 -1 0 
1 101 1285.0498101337764 53 0 0 1 1 0 -0 -0 1 0 
1 499 1285.0498101337764 53 1 0 -0 0 0 1 0 -1 0 
1 101 1285.0498101337764 384 0 0 1 1 0 -0 -0 1 0 
1 18 1308.0999999999999 0 -0 1 0 0 0 1 1 0 -0 
Triangulations 0

TShapes 34
Ve
1.5e-07
86.8890872965279 212.9 0
0 0

0101101
*
Ve
1.5e-07
86.8890872965279 543.9 0
0 0

0101101
*
Ed
 1.5e-07 1 1 0
1  1 0 -357.5 -26.5
2  1 2 9 -357.5 -26.5
2  2 3 0 -357.5 -26.5
0

0101000
+34 10 -33 10 *
Ve
1.5e-07
484.889087296528 543.9 0
0 0

0101101
*
Ed
 1.5e-07 1 1 0
1  2 0 41.5 439.5
2  3 2 9 41.5 439.5
2  4 4 0 41.5 439.5
0

0101000
+33 10 -31 10 *
Ve
1.5e-07
484.889087296528 212.9 0
0 0

0101101
*
Ed
 1.5e-07 1 1 0
1  3 0 -357.5 -26.5
2  5 2 9 -357.5 -26.5
2  6 5 0 -357.5 -26.5
0

0101000
+29 10 -31 10 *
Ed
 1.5e-07 1 1 0
1  4 0 41.5 439.5
2  7 2 9 41.5 439.5
2  8 6 0 41.5 439.5
0

0101000
+34 10 -29 10 *
Wi

0101100
-32 5 -30 5 +28 5 +27 5 *
Fa
0  1.00000000222045e-07 1 1

0101000
+26 0 *
Ve
1.5e-07
86.8890872965279 212.9 18
0 0

0101101
*
Ed
 1e-07 1 1 0
1  5 0 5.05018986622349 23.0501898662235
2  9 6 0 5.05018986622349 23.0501898662235
2  10 3 0 5.05018986622349 23.0501898662235
0

0101000
+34 10 -24 10 *
Ve
1.5e-07
86.8890872965279 543.9 18
0 0

0101101
*
Ed
 1.5e-07 1 1 0
1  6 0 -357.5 -26.5
2  11 7 9 -357.5 -26.5
2  12 3 0 -357.5 -26.5
0

0101000
+24 10 -22 10 *
Ed
 1e-07 1 1 0
1  7 0 5.05018986622349 23.0501898662235
2  13 3 0 5.05018986622349 23.0501898662235
2  14 4 0 5.05018986622349 23.0501898662235
0

0101000
+33 10 -22 10 *
Wi

0101100
-23 5 -21 5 +20 5 +32 5 *
Fa
0  1e-07 3 5

0101000
+19 0 *
Ve
1.5e-07
484.889087296528 543.9 18
0 0

0101101
*
Ed
 1.5e-07 1 1 0
1  8 0 41.5 439.5
2  15 7 9 41.5 439.5
2  16 4 0 41.5 439.5
0

0101000
+22 10 -17 10 *
Ed
 1e-07 1 1 0
1  9 0 5.05018986622349 23.0501898662235
2  17 5 0 5.05018986622349 23.0501898662235
2  18 4 0 5.05018986622349 23.0501898662235
0

0101000
+31 10 -17 10 *
Wi

0101100
-20 5 -16 5 +15 5 +30 5 *
Fa
0  1e-07 4 5

0101000
+14 0 *
Ve
1.5e-07
484.889087296528 212.9 18
0 0

0101101
*
Ed
 1e-07 1 1 0
1  10 0 5.05018986622349 23.0501898662235
2  19 6 0 5.05018986622349 23.0501898662235
2  20 5 0 5.05018986622349 23.0501898662235
0

0101000
+29 10 -12 10 *
Ed
 1.5e-07 1 1 0
1  11 0 -357.5 -26.5
2  21 7 9 -357.5 -26.5
2  22 5 0 -357.5 -26.5
0

0101000
+12 10 -17 10 *
Wi

0101100
-11 5 -10 5 +15 5 +28 5 *
Fa
0  1e-07 5 5

0101000
+9 0 *
Ed
 1.5e-07 1 1 0
1  12 0 41.5 439.5
2  23 7 9 41.5 439.5
2  24 6 0 41.5 439.5
0

0101000
+24 10 -12 10 *
Wi

0101100
-23 5 -7 5 +11 5 +27 5 *
Fa
0  1e-07 6 5

0101000
+6 0 *
Wi

0101100
-21 5 -16 5 +10 5 +7 5 *
Fa
0  1.00000000222045e-07 1 12

0101000
+4 0 *
Sh

0101100
-25 0 -18 0 -13 0 +8 0 +5 0 +3 0 *
So

0100000
+2 0 *

+1 0 