DBRep_DrawableShape

CASCADE Topology V1, (c) Matra-Datavision
Locations 16
1
              1               0               0               0 
              0               1               0               0 
              0               0               1              -1 
2  1 -1 0
1
              1               0               0               0 
              0               1               0               0 
              0               0               1               0 
1
              1               0               0               0 
              0               1               0               0 
              0               0               1               0 
1
              1               0               0               0 
              0               1               0               0 
              0               0               1               0 
1
              1               0               0               0 
              0 1.11022302462516e-16              -1               0 
              0               1 1.11022302462516e-16               0 
1
              1               0               0 -14.1109127034721 
              0               1               0           596.9 
              0               0               1         -1290.1 
2  3 1 4 1 5 1 6 1 7 1 0
1
              1               0               0               0 
              0               1               0               0 
              0               0               1               0 
2  4 -1 3 -1 0
2  7 -1 6 -1 5 -1 4 -1 3 -1 0
1
              1               0               0               0 
              0               1               0               0 
              0               0               1              -0 
2  12 -1 7 -1 6 -1 5 -1 4 -1 3 -1 0
1
              1               0               0               0 
              0               1               0               0 
              0               0               1               1 
2  14 -1 12 -1 7 -1 6 -1 5 -1 4 -1 3 -1 0
2  5 1 6 1 7 1 0
Curve2ds 13
1 281.99999999999994 298.45000000000005 0 -1 
3 64 -2.2736999999999999e-13 0 1 -1 0 7.7781745930520225 5.5
7 0 0  3 25 23  6.2831853071795862 29.95584412271559  6.259385362834208 29.955832261660461  6.2117854741434524 29.965199814948086  6.1403856411073248 30.007197209345584  6.0689858080711909 30.076968501891567  5.9975859750350571 30.17414694233355  5.9261861419989357 30.298240335790258  5.8547863089627992 30.448615525807142  5.7833864759266733 30.624506450575232  5.7119866428905146 30.825016752466006  5.6405868098544207 31.049124692426574  5.5691869768182514 31.295688263617073  5.4977871437821495 31.563451035708628  5.4263873107459988 31.851048550686624  5.3549874777098756 32.157015277644426  5.2835876446737604 32.479792080155711  5.2121878116376053 32.817734161991496  5.1407879786014572 33.169119446409866  5.0693881455653207 33.532157359601506  4.9979883125292144 33.904997924707963  4.926588479493053 34.285741302093193  4.8551886464569396 34.672447047965903  4.7837888134208182 35.063145579320029  4.7361889247300573 35.324943410089112  4.7123889803846692 35.455844122715916 
 3.1415926535897931 4 3.2129924866259261 1 3.284392319662059 1 3.355792152698192 1 3.4271919857343249 1 3.4985918187704579 1 3.5699916518065908 1 3.6413914848427242 1 3.7127913178788572 1 3.7841911509149901 1 3.8555909839511231 1 3.926990816987256 1 3.998390650023389 1 4.0697904830595224 1 4.1411903160956554 1 4.2125901491317883 1 4.2839899821679213 1 4.3553898152040542 1 4.4267896482401872 1 4.4981894812763201 1 4.5695893143124531 1 4.640989147348586 1 4.712388980384719 4
3 64 -2.2736999999999999e-13 0 1 -1 0 7.7781745930520225 5.5
7 0 0  3 25 23  7.8539816339745032 35.455844122715916  7.8301816896291161 35.324943410089112  7.7825818009383543 35.063145579320022  7.7111819679022329 34.67244704796591  7.6397821348661186 34.285741302093186  7.5683823018299581 33.904997924707978  7.4969824687938518 33.532157359601506  7.4255826357577144 33.169119446409859  7.3541828027215672 32.817734161991496  7.2827829696854121 32.479792080155718  7.2113831366492978 32.157015277644426  7.1399833036131728 31.851048550686624  7.068583470577023 31.563451035708631  6.9971836375409184 31.295688263617073  6.9257838045047508 31.049124692426581  6.854383971468657 30.825016752466009  6.7829841384325018 30.624506450575225  6.7115843053963706 30.448615525807153  6.6401844723602386 30.298240335790251  6.5687846393241172 30.17414694233355  6.4973848062879807 30.07696850189156  6.4259849732518495 30.007197209345588  6.3545851402157174 29.965199814948086  6.3069852515249636 29.955832261660461  6.2831853071795862 29.95584412271559 
 1.570796326794867 4 1.642196159831 1 1.7135959928671332 1 1.7849958259032661 1 1.8563956589393991 1 1.927795491975532 1 1.999195325011665 1 2.0705951580477979 1 2.1419949910839309 1 2.2133948241200638 1 2.2847946571561972 1 2.3561944901923302 1 2.4275943232284631 1 2.4989941562645961 1 2.570393989300729 1 2.6417938223368624 1 2.7131936553729954 1 2.7845934884091283 1 2.8559933214452613 1 2.9273931544813943 1 2.9987929875175272 1 3.0701928205536602 1 3.1415926535897931 4
3 64 563.99999999999989 0 -1 1 0 7.7781745930520225 5.5
7 0 0  3 25 23  6.2831853071795862 40.95584412271576  6.2593853628342071 40.955855983770931  6.2117854741434542 40.946488430483306  6.1403856411073221 40.904491036085709  6.0689858080711891 40.834719743540099  5.9975859750350571 40.737541303098105  5.9261861419989215 40.61344790964106  5.8547863089627938 40.463072719624165  5.7833864759266662 40.287181794856437  5.7119866428905253 40.086671492965678  5.6405868098543976 39.862563553004641  5.5691869768182736 39.615999981814632  5.4977871437821317 39.348237209722953  5.426387310746005 39.060639694744978  5.3549874777098632 38.754672967787251  5.2835876446737338 38.431896165275596  5.2121878116375973 38.093954083439826  5.1407879786014865 37.742568799021782  5.0693881455653509 37.379530885830199  4.9979883125292011 37.006690320723173  4.9265884794930912 36.625946943338796  4.8551886464569325 36.239241197465958  4.7837888134208182 35.848542666111506  4.7361889247300626 35.586744835342493  4.712388980384679 35.455844122715916 
 0 4 0.071399833036131677 1 0.14279966607226335 1 0.21419949910839503 1 0.28559933214452671 1 0.35699916518065838 1 0.42839899821679006 1 0.49979883125292174 1 0.57119866428905341 1 0.64259849732518504 1 0.71399833036131677 1 0.7853981633974485 1 0.85679799643358012 1 0.92819782946971174 1 0.99959766250584348 1 1.0709974955419752 1 1.1423973285781068 1 1.2137971616142385 1 1.2851969946503701 1 1.3565968276865019 1 1.4279966607226335 1 1.4993964937587652 1 1.570796326794897 4
1 0 0 1 0 
1 0 -1 1 0 
3 64 563.99999999999989 0 -1 1 0 7.7781745930520225 5.5
7 0 0  3 25 23  7.8539816339744934 35.455844122715916  7.8301816896291099 35.586744835342493  7.7825818009383552 35.848542666111506  7.71118196790224 36.239241197465951  7.6397821348660813 36.625946943338803  7.5683823018299714 37.006690320723173  7.4969824687938234 37.379530885830192  7.425582635757686 37.74256879902179  7.3541828027215743 38.093954083439812  7.2827829696854378 38.431896165275603  7.2113831366493084 38.754672967787258  7.1399833036131675 39.060639694744964  7.0685834705770407 39.348237209722953  6.997183637540898 39.615999981814632  6.9257838045047757 39.862563553004648  6.8543839714686472 40.086671492965678  6.7829841384325062 40.287181794856423  6.7115843053963768 40.463072719624179  6.6401844723602501 40.61344790964106  6.5687846393241154 40.737541303098105  6.4973848062879824 40.834719743540099  6.4259849732518521 40.904491036085709  6.3545851402157192 40.946488430483313  6.3069852515249636 40.955855983770931  6.2831853071795862 40.95584412271576 
 4.7123889803846897 4 4.7837888134208217 1 4.8551886464569529 1 4.926588479493085 1 4.9979883125292162 1 5.0693881455653482 1 5.1407879786014794 1 5.2121878116376115 1 5.2835876446737426 1 5.3549874777098747 1 5.4263873107460068 1 5.497787143782138 1 5.5691869768182691 1 5.6405868098544012 1 5.7119866428905333 1 5.7833864759266644 1 5.8547863089627965 1 5.9261861419989277 1 5.9975859750350597 1 6.0689858080711918 1 6.140385641107323 1 6.2117854741434542 1 6.2831853071795862 4
1 0 0 1 0 
1 0 -1 1 0 
Curves 5
1 567.88908729652792 596.89999999999998 1 0 -1 1.1102230246251565e-16 
3 582 1290.1000000000001 64 1 0 0 0 -1 0 0 0 -1 7.7781745930520225 5.5
3 582 1290.1000000000001 64 1 0 0 0 -1 0 0 0 -1 7.7781745930520225 5.5
3 581.99999999999989 1290.0999999999999 64 0 1 0 -1 0 0 0 -0 1 7.7781745930520225 5.5
3 581.99999999999989 1290.0999999999999 64 0 1 0 -1 0 0 0 -0 1 7.7781745930520225 5.5
Polygon3D 0
PolygonOnTriangulations 0
Surfaces 7
1 567.88908729652792 596.89999999999998 0 1 0 -0 0 -1 1.1102230246251565e-16 0 -1.1102230246251565e-16 -1 
1 285.88908729652798 298.44999999999993 1 0 0 1 1 0 -0 -0 1 0 
1 582 1290.0999999999999 0 1 0 -0 0 0 1 0 -1 0 
2 607.07106781186542 1315.1710678118654 64 -0.70710678118654757 -0.70710678118654757 0 -0.70710678118654757 0.70710678118654757 0 -0 0 -1 5.5
1 18 1290.0999999999999 0 -0 1 0 0 0 1 1 0 -0 
6 -0 -0 -1 
3 567.8890872965278 532.89999999999998 0 0 1.1102230246251565e-16 1 -1 0 0 0 -1 1.1102230246251565e-16 7.7781745930520225 5.5
6 -0 -0 -1 
3 567.8890872965278 532.89999999999998 0 0 1.1102230246251565e-16 1 -1 0 0 0 -1 1.1102230246251565e-16 7.7781745930520225 5.5
Triangulations 0

TShapes 17
Ve
5.53059249029942e-06
567.889087296528 538.4 0
0 0

0101101
*
Ve
5.53059249029942e-06
567.889087296528 527.4 0
0 0

0101101
*
Ed
 1.00000000222045e-07 1 1 0
1  1 0 58.5 69.5
2  1 2 0 58.5 69.5
0

0101000
+17 2 -16 2 *
Ve
1.00000227e-07
567.889087296528 532.9 7.77817459305197
0 0

0101101
*
Ed
 1e-07 1 1 0
1  2 0 3.14159265358979 4.71238898038472
2  2 3 9 3.14159265358979 4.71238898038472
2  3 4 10 3.14159265358979 4.71238898038472
0

0101000
+14 11 -16 11 *
Ed
 1e-07 1 1 0
1  3 0 1.57079632679487 3.14159265358979
2  4 3 9 1.57079632679487 3.14159265358979
2  5 4 10 1.57079632679487 3.14159265358979
0

0101000
+17 11 -14 11 *
Wi

0101100
-15 1 +13 8 +12 8 *
Fa
0  1e-07 1 0

0101000
+11 0 *
Ve
5.53059249029942e-06
560.110912703476 532.9 0
0 0

0101101
*
Ed
 5.53059249029942e-06 1 1 0
1  4 0 0 1.5707963267949
2  6 5 9 0 1.5707963267949
2  7 4 10 0 1.5707963267949
2  8 6 13 0 1.5707963267949
2  9 6 15 0 1.5707963267949
0

0101000
+9 11 -16 11 *
Ed
 5.53059249029942e-06 1 1 0
1  5 0 4.71238898038469 6.28318530717959
2  10 5 9 4.71238898038469 6.28318530717959
2  11 4 10 4.71238898038469 6.28318530717959
2  12 7 13 4.71238898038469 6.28318530717959
2  13 7 15 4.71238898038469 6.28318530717959
0

0101000
+17 11 -9 11 *
Wi

0101100
+8 8 +7 8 -15 1 *
Fa
0  1.00000000222045e-07 2 1

0101000
+6 0 *
Wi

0101100
+7 8 +8 8 -13 8 -12 8 *
Fa
0  1e-07 4 16

0101000
+4 0 *
Sh

0101100
+10 0 -5 0 +3 0 *
So

0100000
+2 0 *

+1 0 