DBRep_DrawableShape

CASCADE Topology V1, (c) Matra-Datavision
Locations 18
1
              1               0               0               0 
              0               1               0               0 
              0               0               1              -1 
1
              1               0               0               0 
              0               1               0               0 
              0               0               1              18 
2  1 1 2 1 0
1
              1               0               0               0 
              0               1               0               0 
              0               0               1               0 
1
              1               0               0               0 
              0 1.11022302462516e-16              -1               0 
              0               1 1.11022302462516e-16               0 
1
              1               0               0 -14.1109127034721 
              0               1               0           596.9 
              0               0               1         -1290.1 
2  4 1 5 1 6 1 0
1
              1               0               0               0 
              0               1               0               0 
              0               0               1               0 
1
              1               0               0               0 
              0               1               0               0 
              0               0               1               0 
1
              1               0               0               0 
              0               1               0               0 
              0               0               1               0 
2  8 1 9 1 10 1 0
1
              1               0               0               0 
              0               1               0               0 
              0               0               1               0 
1
              1               0               0               0 
              0               1               0             -12 
              0               0               1               0 
2  12 1 13 1 0
2  6 -1 5 -1 4 -1 0
2  12 1 13 1 4 1 5 1 6 1 0
2  4 -1 13 -1 12 -1 0
2  6 -1 5 -1 4 -1 13 -1 12 -1 0
Curve2ds 78
8 177 225
1 52 177 0 1 
8 177 225
1 -177 10 1 0 
8 22.653729685066089 31.153729685066089
1 26.846270314933911 385.99999999999994 1 0 
8 22.653729685066089 31.153729685066089
1 26.846270314933911 3.6942911742739852 -1 0 
8 -6.0000002122000002e-07 16.000000600000021
1 51.938447187191173 370 0 1 
8 -6.0000002122000002e-07 16.000000600000021
1 2.0466785764553124 0 0 1 
8 -31.153729685066093 -22.653729685066093
1 26.846270314933907 369.99999999999994 -1 0 
8 -31.153729685066093 -22.653729685066093
1 -26.846270314933907 3.6942911742739852 -1 0 
8 177 225
1 52 177 0 1 
8 177 225
1 -177 10 1 0 
8 2.1100167971224515 36.110016797122455
1 21.889983202877549 354.00000000000006 1 0 
8 2.1100167971224515 36.110016797122455
1 21.889983202877549 -5.9746554680380086 -1 0 
8 177 225
1 48 177 0 1 
8 177 225
1 -177 10 1 0 
8 -36.110016797122455 -2.110016797122455
1 21.889983202877545 402 -1 0 
8 -36.110016797122455 -2.110016797122455
1 -21.889983202877545 -5.9746554680384634 -1 0 
1 -8.220033594244903 4.0253445319619914 0 -1 
1 0 0 0 1 
8 2.5 7
1 16 7 0 1 
1 -1.6925406298678141 6.6942911742739852 0 -1 
8 -6.0000002122000002e-07 16.000000600000021
1 16 9.9688711258506828 1 0 
8 -6.0000002122000002e-07 16.000000600000021
1 2.0313503184762149 0 0 1 
8 2.5 7
1 32 7 0 1 
1 1.6925406298678212 6.6942911742739852 0 -1 
1 8.2200335942449101 4.0253445319615366 0 -1 
1 48 0 0 1 
1 0 0 1 0 
1 4 0 0 1 
1 0 16 1 0 
2 -0.30745937013217883 -0.30570882572601477 -1 0 0 1 4.5
2 0.30745937013218594 -0.30570882572601477 1 0 -0 1 4.5
1 0 0 1 0 
1 19.779966405755097 6.0253445319619914 -1 0 
1 0 0 1 0 
1 19.779966405755097 6.0253445319619914 0 -1 
1 0 0 0 1 
1 19.779966405755097 4.0253445319619914 -1 0 
1 0 0 1 0 
1 0 0 0 1 
1 -4.220033594244903 4.0253445319619914 0 -1 
1 -4.220033594244903 4.0253445319619914 -1 0 
1 0 0 1 0 
1 -6.220033594244903 6.0253445319619914 0 -1 
1 0 0 0 1 
1 4.2200335942449101 4.0253445319615366 0 -1 
1 48 0 0 1 
1 0 0 1 0 
1 24 0 0 1 
1 6.2200335942449101 6.0253445319615366 0 -1 
1 48 0 0 1 
1 4.2200335942449101 4.0253445319615366 1 0 
1 0 48 1 0 
1 -19.77996640575509 4.0253445319615366 1 0 
1 0 48 1 0 
1 -19.77996640575509 6.0253445319615366 0 -1 
1 48 0 0 1 
1 -19.77996640575509 6.0253445319615366 1 0 
1 0 48 1 0 
1 0 2 1 0 
1 2 0 0 1 
1 0 0 1 0 
1 0 0 0 1 
1 0 0 1 0 
1 26 0 0 1 
2 12 10 1 0 -0 1 2.25
1 0 1 1 0 
2 12 38 1 0 -0 1 2.25
1 0 1 1 0 
1 0 0 0 1 
1 0 2 1 0 
2 12 10 1 0 -0 1 2.25
1 0 3 1 0 
2 12 38 1 0 -0 1 2.25
1 0 3 1 0 
1 6.2831853071795862 -0 0 1 
1 0 -0 0 1 
1 6.2831853071795862 -0 0 1 
1 0 -0 0 1 
Curves 39
1 195 1308.0999999999999 52 1 0 0 
1 403.99999999999994 1308.0999999999999 26.846270314933911 0 0 1 
1 388 1308.0999999999999 51.938447187191173 1 0 0 
1 387.99999999999994 1308.0999999999999 26.846270314933907 0 0 -1 
1 195 1308.0999999999999 52 1 0 0 
1 372.00000000000006 1308.0999999999999 21.889983202877549 0 0 1 
1 195 1308.0999999999999 48 1 0 0 
1 420 1308.0999999999999 21.889983202877545 0 0 -1 
1 372 1310.0999999999999 52 -0 1 0 
1 388 1317.0999999999999 52 0 1 0 
1 388 1320.0688711258506 52 1 0 0 
1 404 1317.0999999999999 52 0 1 0 
1 420 1310.0999999999999 52 -0 1 0 
1 372 1310.0999999999999 52 1 0 -0 
2 404 1324.0999999999999 54 1 0 0 -0 0 1 0 -1 0 4.5
2 388 1324.0999999999999 54 1 0 0 -0 0 1 0 -1 0 4.5
1 372 1308.0999999999999 24 0 0 1 
1 372 1308.0999999999999 24 -0 1 0 
1 372 1310.0999999999999 24 0 0 1 
1 372 1310.0999999999999 48 -0 1 0 
1 372 1310.0999999999999 48 0 0 1 
1 372 1308.0999999999999 50 -0 1 0 
1 420 1310.0999999999999 48 -0 1 0 
1 372 1310.0999999999999 48 1 0 -0 
1 420 1308.0999999999999 50 -0 1 0 
1 420 1310.0999999999999 48 0 0 1 
1 420 1310.0999999999999 24 0 0 1 
1 420 1308.0999999999999 24 -0 1 0 
1 420 1308.0999999999999 24 0 0 1 
1 372 1310.0999999999999 50 1 0 -0 
1 372 1308.0999999999999 24 1 0 -0 
1 372 1308.0999999999999 50 1 0 -0 
2 382 1308.0999999999999 36 0 1 0 0 -0 1 1 0 -0 2.25
2 410 1308.0999999999999 36 0 1 0 0 -0 1 1 0 -0 2.25
1 372 1310.0999999999999 24 1 0 -0 
2 382 1310.0999999999999 36 0 1 0 0 -0 1 1 0 -0 2.25
2 410 1310.0999999999999 36 0 1 0 0 -0 1 1 0 -0 2.25
1 382 1307.0999999999999 38.25 0 1 0 
1 410 1307.0999999999999 38.25 0 1 0 
Polygon3D 0
PolygonOnTriangulations 0
Surfaces 16
1 285.88908729652798 298.44999999999993 1 0 0 1 1 0 -0 -0 1 0 
1 18 1308.0999999999999 0 -0 1 0 0 0 1 1 0 -0 
1 372 1310.0999999999999 52 0 0 1 1 0 -0 -0 1 0 
1 403.99999999999994 1323.7942911742739 53.692540629867821 -1 -0 -0 0 0 -1 0 -1 0 
2 388 1324.0999999999999 54 1 0 0 -0 0 1 0 -1 0 4.5
1 387.99999999999994 1323.7942911742739 53.692540629867814 1 0 0 -0 0 1 0 -1 0 
1 372.00000000000006 1314.1253445319619 43.779966405755097 -1 -0 -0 0 0 -1 0 -1 0 
1 372 1310.0999999999999 48 0 0 1 1 0 -0 -0 1 0 
1 420 1314.1253445319614 43.77996640575509 1 0 0 -0 0 1 0 -1 0 
1 372 1310.0999999999999 48 -0 1 0 0 0 1 1 0 -0 
1 372 1308.0999999999999 24 -0 1 0 0 0 1 1 0 -0 
1 372 1308.0999999999999 24 0 0 1 1 0 -0 -0 1 0 
1 372 1310.0999999999999 24 -0 1 0 0 0 1 1 0 -0 
1 372 1308.0999999999999 50 0 0 1 1 0 -0 -0 1 0 
2 382 1307.0999999999999 36 0 1 0 0 -0 1 1 0 -0 2.25
2 410 1307.0999999999999 36 0 1 0 0 -0 1 1 0 -0 2.25
Triangulations 0

TShapes 101
Ve
2.00000057e-07
389.889087296528 544.9 18
0 0

0101101
*
Ve
1.5e-07
405.889087296528 544.9 18
0 0

0101101
*
Ed
 1.5e-07 1 1 0
1  1 0 209 225
2  1 2 11 209 225
2  2 3 14 209 225
0

0101000
+101 15 -100 15 *
Ve
2.00000057e-07
389.889087296528 544.961552812809 18
0 0

0101101
*
Ed
 2e-07 1 1 0
1  2 0 25.0921768722573 25.1537296850661
2  3 2 11 25.0921768722573 25.1537296850661
2  4 4 14 25.0921768722573 25.1537296850661
0

0101000
+98 15 -101 15 *
Ve
2.00000057e-07
373.889087296528 544.961552812809 18
0 0

0101101
*
Ed
 1.00000000222045e-07 1 1 0
1  3 0 0 16
2  5 2 11 0 16
2  6 5 14 0 16
0

0101000
+96 15 -98 15 *
Ve
2.00000057e-07
373.889087296528 544.9 18
0 0

0101101
*
Ed
 2e-07 1 1 0
1  4 0 -25.1537296850661 -25.0921768722573
2  7 2 11 -25.1537296850661 -25.0921768722573
2  8 6 14 -25.1537296850661 -25.0921768722573
0

0101000
+94 15 -96 15 *
Ve
1.50000057e-07
357.889087296528 544.9 18
0 0

0101101
*
Ed
 1.5e-07 1 1 0
1  5 0 177 193
2  9 2 11 177 193
2  10 3 14 177 193
0

0101000
+92 15 -94 15 *
Ve
1.50000057e-07
357.889087296528 548.9 18
0 0

0101101
*
Ed
 1.5e-07 1 1 0
1  6 0 26.1100167971225 30.1100167971225
2  11 2 11 26.1100167971225 30.1100167971225
2  12 7 14 26.1100167971225 30.1100167971225
0

0101000
+90 15 -92 15 *
Ve
1.5e-07
405.889087296528 548.9 18
0 0

0101101
*
Ed
 1.5e-07 1 1 0
1  7 0 177 225
2  13 2 11 177 225
2  14 8 14 177 225
0

0101000
+90 15 -88 15 *
Ed
 1.5e-07 1 1 0
1  8 0 -30.1100167971225 -26.1100167971225
2  15 2 11 -30.1100167971225 -26.1100167971225
2  16 9 14 -30.1100167971225 -26.1100167971225
0

0101000
+100 15 -88 15 *
Wi

0101100
+99 7 +97 7 +95 7 +93 7 +91 7 +89 7 -87 7 +86 7 *
Fa
0  1.00000000222045e-07 1 3

0101000
+85 0 *
Ve
1e-07
372 1298.1 52
0 0

0101101
*
Ed
 1e-07 1 1 0
1  9 0 0 10
2  17 7 0 0 10
2  18 3 0 0 10
0

0101000
+83 17 -92 18 *
Ve
1.5e-07
388 1308.06887112585 52
0 0

0101101
*
Ed
 1.5e-07 1 1 0
1  10 0 2.96887112585068 3
2  19 3 0 2.96887112585068 3
2  20 6 0 2.96887112585068 3
0

0101000
+81 17 -94 18 *
Ve
1.5e-07
404 1308.06887112585 52
0 0

0101101
*
Ed
 1e-07 1 1 0
1  11 0 0 16
2  21 3 0 0 16
2  22 5 0 0 16
0

0101000
+81 17 -79 17 *
Ed
 1.5e-07 1 1 0
1  12 0 2.96887112585068 3
2  23 3 0 2.96887112585068 3
2  24 4 0 2.96887112585068 3
0

0101000
+79 17 -101 18 *
Ve
1e-07
420 1298.1 52
0 0

0101101
*
Ed
 1e-07 1 1 0
1  13 0 0 10
2  25 9 0 0 10
2  26 3 0 0 10
0

0101000
+76 17 -100 18 *
Ed
 1e-07 1 1 0
1  14 0 0 48
2  27 3 0 0 48
2  28 10 0 0 48
0

0101000
-76 17 +83 17 *
Wi

0101100
-82 16 -91 7 +80 16 -78 16 -77 16 -99 7 +75 16 +74 16 *
Fa
0  1e-07 3 16

0101000
+73 0 *
Ed
 1.5e-07 1 1 0
1  15 0 2.03135031847621 2.04667857645531
2  29 5 0 2.03135031847621 2.04667857645531
2  30 4 0 2.03135031847621 2.04667857645531
0

0101000
+79 17 -98 18 *
Wi

0101100
-71 16 -97 7 +77 16 *
Fa
0  1.5e-07 4 16

0101000
+70 0 *
Ed
 1.5e-07 1 1 0
1  16 0 2.03135031847621 2.04667857645531
2  31 6 0 2.03135031847621 2.04667857645531
2  32 5 0 2.03135031847621 2.04667857645531
0

0101000
+81 17 -96 18 *
Wi

0101100
-71 16 +95 7 +68 16 -78 16 *
Fa
0  1e-07 5 16

0101000
+67 0 *
Wi

0101100
-80 16 -93 7 +68 16 *
Fa
0  1.5e-07 6 16

0101000
+65 0 *
Ve
1e-07
372 1296.1 50
0 0

0101101
*
Ve
1e-07
372 1296.1 24
0 0

0101101
*
Ed
 1e-07 1 1 0
1  17 0 0 26
2  33 7 0 0 26
2  34 11 0 0 26
0

0101000
-63 17 +62 17 *
Ve
1e-07
372 1298.1 24
0 0

0101101
*
Ed
 1e-07 1 1 0
1  18 0 0 2
2  35 7 0 0 2
2  36 12 0 0 2
0

0101000
-60 17 +62 17 *
Ve
1e-07
372 1298.1 48
0 0

0101101
*
Ed
 1e-07 1 1 0
1  19 0 0 24
2  37 7 0 0 24
2  38 13 0 0 24
0

0101000
+60 17 -58 17 *
Ed
 1e-07 1 1 0
1  20 0 0 10
2  39 8 0 0 10
2  40 7 0 0 10
0

0101000
+58 17 -90 18 *
Ve
1e-07
372 1298.1 50
0 0

0101101
*
Ed
 1e-07 1 1 0
1  21 0 2 4
2  41 7 0 2 4
2  42 10 0 2 4
0

0101000
+55 17 -83 17 *
Ed
 1e-07 1 1 0
1  22 0 0 2
2  43 7 0 0 2
2  44 14 0 0 2
0

0101000
+63 17 -55 17 *
Wi

0101100
+61 16 -59 16 -57 16 -56 16 -89 7 +82 16 +54 16 +53 16 *
Fa
0  1e-07 7 16

0101000
+52 0 *
Ve
1e-07
420 1298.1 48
0 0

0101101
*
Ed
 1e-07 1 1 0
1  23 0 0 10
2  45 9 0 0 10
2  46 8 0 0 10
0

0101000
+50 17 -88 18 *
Ed
 1e-07 1 1 0
1  24 0 0 48
2  47 8 0 0 48
2  48 13 0 0 48
0

0101000
+58 17 -50 17 *
Wi

0101100
-56 16 -87 7 +49 16 +48 16 *
Fa
0  1e-07 8 16

0101000
+47 0 *
Ve
1e-07
420 1296.1 50
0 0

0101101
*
Ve
1e-07
420 1298.1 50
0 0

0101101
*
Ed
 1e-07 1 1 0
1  25 0 0 2
2  49 9 0 0 2
2  50 14 0 0 2
0

0101000
+45 17 -44 17 *
Ed
 1e-07 1 1 0
1  26 0 2 4
2  51 9 0 2 4
2  52 10 0 2 4
0

0101000
+44 17 -76 17 *
Ve
1e-07
420 1298.1 24
0 0

0101101
*
Ed
 1e-07 1 1 0
1  27 0 0 24
2  53 9 0 0 24
2  54 13 0 0 24
0

0101000
+41 17 -50 17 *
Ve
1e-07
420 1296.1 24
0 0

0101101
*
Ed
 1e-07 1 1 0
1  28 0 0 2
2  55 9 0 0 2
2  56 12 0 0 2
0

0101000
-41 17 +39 17 *
Ed
 1e-07 1 1 0
1  29 0 0 26
2  57 9 0 0 26
2  58 11 0 0 26
0

0101000
-45 17 +39 17 *
Wi

0101100
-43 16 -42 16 -75 16 -86 7 +49 16 +40 16 +38 16 -37 16 *
Fa
0  1e-07 9 16

0101000
+36 0 *
Ed
 1e-07 1 1 0
1  30 0 0 48
2  59 14 0 0 48
2  60 10 0 0 48
0

0101000
+55 17 -44 17 *
Wi

0101100
-34 0 -42 0 +74 0 +54 0 *
Fa
0  1e-07 10 0

0111000
+33 0 *
Ed
 1e-07 1 1 0
1  31 0 0 48
2  61 12 0 0 48
2  62 11 0 0 48
0

0101000
-39 17 +62 17 *
Ed
 1e-07 1 1 0
1  32 0 0 48
2  63 14 0 0 48
2  64 11 0 0 48
0

0101000
-45 17 +63 17 *
Wi

0101100
-31 0 -37 0 +61 0 +30 0 *
Ve
1e-07
382 1296.1 38.25
0 0

0101101
*
Ed
 1e-07 1 1 0
1  33 0 0 6.28318530717959
2  65 11 0 0 6.28318530717959
2  66 15 0 0 6.28318530717959
0

0101100
+28 17 -28 17 *
Wi

0101100
-27 0 *
Ve
1e-07
410 1296.1 38.25
0 0

0101101
*
Ed
 1e-07 1 1 0
1  34 0 0 6.28318530717959
2  67 11 0 0 6.28318530717959
2  68 16 0 0 6.28318530717959
0

0101100
+25 17 -25 17 *
Wi

0101100
-24 0 *
Fa
0  1e-07 11 0

0111000
+29 0 +26 0 +23 0 *
Ed
 1e-07 1 1 0
1  35 0 0 48
2  69 13 0 0 48
2  70 12 0 0 48
0

0101000
-41 17 +60 17 *
Wi

0101100
-59 0 -21 0 +38 0 +31 0 *
Fa
0  1e-07 12 0

0111000
+20 0 *
Wi

0101100
-40 0 -21 0 +48 0 +57 0 *
Ve
1e-07
382 1298.1 38.25
0 0

0101101
*
Ed
 1e-07 1 1 0
1  36 0 0 6.28318530717959
2  71 13 0 0 6.28318530717959
2  72 15 0 0 6.28318530717959
0

0101100
+17 17 -17 17 *
Wi

0101100
-16 0 *
Ve
1e-07
410 1298.1 38.25
0 0

0101101
*
Ed
 1e-07 1 1 0
1  37 0 0 6.28318530717959
2  73 13 0 0 6.28318530717959
2  74 16 0 0 6.28318530717959
0

0101100
+14 17 -14 17 *
Wi

0101100
-13 0 *
Fa
0  1e-07 13 0

0111000
+18 0 +15 0 +12 0 *
Wi

0101100
-53 0 -34 0 +43 0 +30 0 *
Fa
0  1e-07 14 0

0111000
+10 0 *
Ed
 1e-07 1 1 0
1  38 0 1 3
3  75 76CN 15 0 1 3
0

0101000
+28 17 -17 17 *
Wi

0101100
-16 0 +8 0 +27 0 -8 0 *
Fa
0  1e-07 15 0

0111000
+7 0 *
Ed
 1e-07 1 1 0
1  39 0 1 3
3  77 78CN 16 0 1 3
0

0101000
+25 17 -14 17 *
Wi

0101100
-13 0 +5 0 +24 0 -5 0 *
Fa
0  1e-07 16 0

0111000
+4 0 *
Sh

0101100
+84 0 +72 0 +69 0 -66 0 +64 0 +51 0 -46 0 +35 0 -32 16 -22 16 
-19 16 +11 16 +9 16 -6 16 -3 16 *
So

0100000
+2 0 *

+1 0 