DBRep_DrawableShape

CASCADE Topology V1, (c) Matra-Datavision
Locations 33
1
              1               0               0               0 
              0               1               0               0 
              0               0               1               0 
1
              1               0               0               0 
              0 1.11022302462516e-16              -1               0 
              0               1 1.11022302462516e-16               0 
1
              1               0               0 -14.1109127034721 
              0               1               0           596.9 
              0               0               1         -1290.1 
2  1 1 2 1 3 1 0
1
              1               0               0               0 
              0               1               0               0 
              0               0               1               0 
1
              1               0               0               0 
              0               1               0               0 
              0               0               1               0 
2  5 1 6 1 0
1
              1               0               0               0 
              0               1               0               0 
              0               0               1               0 
2  1 -1 6 -1 5 -1 8 -1 0
2  1 -1 6 -1 5 -1 0
2  8 1 5 1 6 1 0
2  6 -1 5 -1 0
1
              1               0               0               0 
              0               1               0               0 
              0               0               1              -0 
2  13 -1 3 -1 2 -1 1 -1 6 -1 5 -1 0
1
              1               0               0               0 
              0               1               0               0 
              0               0               1               1 
2  15 -1 13 -1 3 -1 2 -1 1 -1 6 -1 5 -1 0
2  1 -1 0
2  8 1 5 1 0
2  1 -1 6 -1 0
1
              1               0               0               0 
              0               1               0               0 
              0               0               1               0 
1
              1               0               0               0 
              0               1               0             -12 
              0               0               1               0 
1
              1               0               0               0 
              0               0               1           897.1 
              0              -1               0          1657.1 
1
              1               0               0               0 
              0               1               0               9 
              0               0               1               6 
2  20 1 21 1 22 1 23 1 0
1
              1               0               0               0 
              0               1               0               0 
              0               0               1               0 
1
              1               0               0               0 
              0               1               0             -12 
              0               0               1               0 
2  25 1 26 1 0
1
              1               0               0               0 
              0               1               0               0 
              0               0               1               0 
1
              1               0               0               0 
              0               1               0             -12 
              0               0               1               0 
2  28 1 29 1 0
2  1 -1 23 -1 22 -1 21 -1 20 -1 0
2  1 -1 26 -1 25 -1 0
2  1 -1 29 -1 28 -1 0
Curve2ds 410
1 0 0 1 0 
1 0 0 1 0 
3 64 0 0 1 -1 0 7.7781745930520225 5.5
7 0 0  8 16 3  1.3372625992285931 36.728636328853895  1.5628038560237409 35.521832525688765  1.7883451128138859 34.241032900899881  2.0138863696274711 32.979791168225347  2.2394276263858046 31.839642587117851  2.4649688832187167 30.915080181555822  2.690510139993421 30.275592125537514  2.9160513967946455 29.955844122715803  3.3671339103849407 29.955844122715803  3.5926751671818238 30.275592125548428  3.8182164239642589 30.915080181541271  4.0437576807635196 31.839642587176058  4.2692989375518664 32.979791168225347  4.4948401943611316 34.241032900907157  4.7203814511558457 35.521832525688765  4.9459227079509933 36.728636328853895 
 1.3372625992286107 9 3.1415926535897931 7 4.9459227079509755 9
1 0 0 1 0 
1 0 0 1 0 
3 122 0 0 1 -1 0 7.7781745930520225 5.5
7 0 0  8 16 3  1.3372625992285931 36.728636328853895  1.5628038560237409 35.521832525688765  1.7883451128166143 34.241032900899881  2.0138863696165572 32.979791168225347  2.2394276264003565 31.839642587117851  2.4649688832041647 30.915080181555822  2.690510139997059 30.275592125537514  2.9160513967946455 29.955844122715803  3.3671339103849407 29.955844122715803  3.5926751671818238 30.275592125548428  3.8182164239642589 30.915080181541271  4.0437576807635196 31.839642587176058  4.2692989375518664 32.979791168225347  4.4948401943611316 34.241032900907157  4.7203814511558457 35.521832525688765  4.9459227079509933 36.728636328853895 
 1.3372625992286107 9 3.1415926535897931 7 4.9459227079509755 9
1 0 0 1 0 
1 0 0 1 0 
1 596.89999999999998 0 0 -1 
1 0 0 0 1 
1 0 -18 1 0 
1 0 0 1 0 
1 0 0 0 -1 
1 0 0 0 1 
1 596.89999999999998 0 0 1 
1 0 0 1 0 
1 0 564 1 0 
1 0 0 1 0 
3 122 563.99999999999989 0 -1 1 0 7.7781745930520225 5.5
7 0 0  3 25 23  6.2831853071795862 40.95584412271576  6.2593853628342071 40.955855983770931  6.2117854741434542 40.946488430483306  6.1403856411073221 40.904491036085709  6.0689858080711891 40.834719743540099  5.9975859750350571 40.737541303098105  5.9261861419989215 40.61344790964106  5.8547863089627938 40.463072719624165  5.7833864759266662 40.287181794856437  5.7119866428905253 40.086671492965678  5.6405868098543976 39.862563553004641  5.5691869768182736 39.615999981814632  5.4977871437821317 39.348237209722953  5.426387310746005 39.060639694744978  5.3549874777098632 38.754672967787251  5.2835876446737338 38.431896165275596  5.2121878116375973 38.093954083439826  5.1407879786014865 37.742568799021782  5.0693881455653509 37.379530885830199  4.9979883125292011 37.006690320723173  4.9265884794930912 36.625946943338796  4.8551886464569325 36.239241197465958  4.7837888134208182 35.848542666111506  4.7361889247300626 35.586744835342493  4.712388980384679 35.455844122715916 
 0 4 0.071399833036131677 1 0.14279966607226335 1 0.21419949910839503 1 0.28559933214452671 1 0.35699916518065838 1 0.42839899821679006 1 0.49979883125292174 1 0.57119866428905341 1 0.64259849732518504 1 0.71399833036131677 1 0.7853981633974485 1 0.85679799643358012 1 0.92819782946971174 1 0.99959766250584348 1 1.0709974955419752 1 1.1423973285781068 1 1.2137971616142385 1 1.2851969946503701 1 1.3565968276865019 1 1.4279966607226335 1 1.4993964937587652 1 1.570796326794897 4
1 0 0 1 0 
1 0 -1 1 0 
3 122 5.6840000000000001e-14 0 1 -1 0 7.7781745930520225 5.5
7 0 0  8 30 5  6.2831853071795862 29.955844122715803  6.0868357663302239 29.955844122715803  5.8904862254815029 30.198178390586691  5.6941366846283685 30.682844867929816  5.4977871437879671 31.389920994173735  5.3014376029316495 32.279521186152124  5.1050880620840857 33.295998916906683  4.9087385212340724 34.375921648044311  4.565126824747689 36.265785978719414  4.4178646691104948 37.075727538302388  4.2706025134739178 37.858905788899619  4.1233403578367174 38.588550275495436  3.9760782021994956 39.239761326871303  3.8288160465628458 39.791341859213802  3.6815538909255414 40.227230222056349  3.3133985018329875 41.002108545735389  3.0925052683758381 41.183677561712102  2.8716120349356729 41.047323746315669  2.6507188014577636 40.587959675322054  2.4298255680216911 39.835442311916267  2.2089323345515126 38.852143577038078  1.9880391010997895 37.720409469330846  1.5462526341887246 35.33727231827838  1.3253594007312799 34.085867955920548  1.104466167274289 32.863231245850329  0.88357293381638868 31.764154431206407  0.66267970037304025 30.875951861264184  0.44178646691241141 30.262548866667203  0.22089323345554313 29.955844122715803  1.066e-14 29.955844122715803 
 3.1415926535897931 9 4.7123889803847003 7 5.8904862254808705 7 7.6576320931251258 7 9.4247779607693793 9
1 0 0 1 0 
1 0 -1 1 0 
3 122 563.99999999999989 0 -1 1 0 7.7781745930520225 5.5
7 0 0  3 25 23  7.8539816339744934 35.455844122715916  7.8301816896291099 35.586744835342493  7.7825818009383552 35.848542666111506  7.71118196790224 36.239241197465951  7.6397821348660822 36.625946943338803  7.5683823018299714 37.006690320723173  7.4969824687938234 37.379530885830192  7.4255826357576851 37.74256879902179  7.3541828027215761 38.093954083439812  7.2827829696854369 38.431896165275603  7.2113831366493084 38.754672967787258  7.1399833036131675 39.060639694744964  7.0685834705770407 39.348237209722953  6.997183637540898 39.615999981814632  6.9257838045047748 39.862563553004648  6.8543839714686463 40.086671492965678  6.7829841384325062 40.287181794856423  6.7115843053963777 40.463072719624179  6.6401844723602492 40.61344790964106  6.5687846393241163 40.737541303098105  6.4973848062879842 40.834719743540099  6.4259849732518495 40.904491036085709  6.3545851402157192 40.946488430483313  6.3069852515249645 40.955855983770931  6.2831853071795862 40.95584412271576 
 4.7123889803846897 4 4.7837888134208217 1 4.8551886464569529 1 4.926588479493085 1 4.9979883125292162 1 5.0693881455653482 1 5.1407879786014794 1 5.2121878116376115 1 5.2835876446737426 1 5.3549874777098747 1 5.4263873107460068 1 5.497787143782138 1 5.5691869768182691 1 5.6405868098544012 1 5.7119866428905333 1 5.7833864759266644 1 5.8547863089627965 1 5.9261861419989277 1 5.9975859750350597 1 6.0689858080711918 1 6.140385641107323 1 6.2117854741434542 1 6.2831853071795862 4
1 0 0 1 0 
1 0 -1 1 0 
1 0 564 1 0 
1 0 0 1 0 
3 64 5.6840000000000001e-14 0 1 -1 0 7.7781745930520225 5.5
7 0 0  8 30 5  6.2831853071795862 29.955844122715803  6.0868357663302239 29.955844122715803  5.8904862254815029 30.198178390586691  5.6941366846283685 30.682844867929816  5.4977871437879671 31.389920994173735  5.3014376029316495 32.279521186152124  5.1050880620840857 33.295998916906683  4.9087385212340724 34.375921648044311  4.565126824747689 36.265785978719414  4.4178646691104948 37.075727538302388  4.2706025134739178 37.858905788899619  4.1233403578367174 38.588550275495436  3.9760782021994956 39.239761326871303  3.8288160465628458 39.791341859213802  3.6815538909255414 40.227230222056349  3.3133985018329875 41.002108545735389  3.0925052683758381 41.183677561712102  2.8716120349356729 41.047323746315669  2.6507188014577636 40.587959675322054  2.4298255680071392 39.835442311916267  2.2089323345533316 38.852143577038078  1.9880391010997895 37.720409469330846  1.5462526341887246 35.33727231827838  1.3253594007330989 34.085867955920548  1.104466167285203 32.863231245850329  0.88357293382366464 31.764154431206407  0.66267970038031621 30.875951861264184  0.44178646691059242 30.262548866667203  0.22089323345554135 29.955844122715803  8.8800000000000007e-15 29.955844122715803 
 3.1415926535897931 9 4.7123889803847003 7 5.8904862254808705 7 7.6576320931251258 7 9.4247779607693793 9
1 0 0 1 0 
1 0 -1 1 0 
3 64 563.99999999999989 0 -1 1 0 7.7781745930520225 5.5
7 0 0  3 25 23  6.2831853071795862 40.95584412271576  6.2593853628342071 40.955855983770931  6.2117854741434542 40.946488430483306  6.1403856411073221 40.904491036085709  6.0689858080711891 40.834719743540099  5.9975859750350571 40.737541303098105  5.9261861419989215 40.61344790964106  5.8547863089627938 40.463072719624165  5.7833864759266662 40.287181794856437  5.7119866428905253 40.086671492965678  5.6405868098543976 39.862563553004641  5.5691869768182736 39.615999981814632  5.4977871437821317 39.348237209722953  5.426387310746005 39.060639694744978  5.3549874777098632 38.754672967787251  5.2835876446737338 38.431896165275596  5.2121878116375973 38.093954083439826  5.1407879786014865 37.742568799021782  5.0693881455653509 37.379530885830199  4.9979883125292011 37.006690320723173  4.9265884794930912 36.625946943338796  4.8551886464569325 36.239241197465958  4.7837888134208182 35.848542666111506  4.7361889247300626 35.586744835342493  4.712388980384679 35.455844122715916 
 0 4 0.071399833036131677 1 0.14279966607226335 1 0.21419949910839503 1 0.28559933214452671 1 0.35699916518065838 1 0.42839899821679006 1 0.49979883125292174 1 0.57119866428905341 1 0.64259849732518504 1 0.71399833036131677 1 0.7853981633974485 1 0.85679799643358012 1 0.92819782946971174 1 0.99959766250584348 1 1.0709974955419752 1 1.1423973285781068 1 1.2137971616142385 1 1.2851969946503701 1 1.3565968276865019 1 1.4279966607226335 1 1.4993964937587652 1 1.570796326794897 4
1 0 0 1 0 
1 0 -1 1 0 
3 64 563.99999999999989 0 -1 1 0 7.7781745930520225 5.5
7 0 0  3 25 23  7.8539816339744934 35.455844122715916  7.8301816896291099 35.586744835342493  7.7825818009383552 35.848542666111506  7.71118196790224 36.239241197465951  7.6397821348660813 36.625946943338803  7.5683823018299714 37.006690320723173  7.4969824687938234 37.379530885830192  7.425582635757686 37.74256879902179  7.3541828027215743 38.093954083439812  7.2827829696854378 38.431896165275603  7.2113831366493084 38.754672967787258  7.1399833036131675 39.060639694744964  7.0685834705770407 39.348237209722953  6.997183637540898 39.615999981814632  6.9257838045047757 39.862563553004648  6.8543839714686472 40.086671492965678  6.7829841384325062 40.287181794856423  6.7115843053963768 40.463072719624179  6.6401844723602501 40.61344790964106  6.5687846393241154 40.737541303098105  6.4973848062879824 40.834719743540099  6.4259849732518521 40.904491036085709  6.3545851402157192 40.946488430483313  6.3069852515249636 40.955855983770931  6.2831853071795862 40.95584412271576 
 4.7123889803846897 4 4.7837888134208217 1 4.8551886464569529 1 4.926588479493085 1 4.9979883125292162 1 5.0693881455653482 1 5.1407879786014794 1 5.2121878116376115 1 5.2835876446737426 1 5.3549874777098747 1 5.4263873107460068 1 5.497787143782138 1 5.5691869768182691 1 5.6405868098544012 1 5.7119866428905333 1 5.7833864759266644 1 5.8547863089627965 1 5.9261861419989277 1 5.9975859750350597 1 6.0689858080711918 1 6.140385641107323 1 6.2117854741434542 1 6.2831853071795862 4
1 0 0 1 0 
1 0 -1 1 0 
1 0 0 0 1 
1 0 0 1 0 
1 0 564 1 0 
1 0 0 1 0 
8 41.5 439.5
1 384 41.5 0 1 
8 41.5 439.5
1 -41.5 5.0501898662234908 1 0 
8 -357.5 -26.5
1 26.5 83 -1 0 
8 -357.5 -26.5
1 -26.5 -5.0501898662234908 -1 -0 
8 -357.5 -26.5
1 26.5 481 -1 0 
8 -357.5 -26.5
1 -26.5 -5.0501898662234908 -1 -0 
8 41.5 439.5
1 53 41.5 0 1 
8 41.5 439.5
1 -41.5 5.0501898662234908 1 0 
2 430 57 1 0 -0 1 2.25
1 0 1 1 0 
8 33 55
1 454 33 0 1 
8 33 55
1 -33 1 1 0 
2 451 66 1 0 -0 1 3
1 0 1 1 0 
2 451 88 1 0 -0 1 3
1 0 1 1 0 
8 -246.5 -204.5
1 204.5 63 -1 0 
8 -246.5 -204.5
1 -204.5 -1 -1 -0 
8 -246.5 -204.5
1 204.5 91 -1 0 
8 -246.5 -204.5
1 -204.5 -1 -1 -0 
2 409 66 1 0 -0 1 3
1 0 1 1 0 
2 409 88 1 0 -0 1 3
1 0 1 1 0 
8 33 55
1 406 33 0 1 
8 33 55
1 -33 1 1 0 
2 430 97 1 0 -0 1 2.25
1 0 1 1 0 
2 447.5 159.5 1 0 -0 1 2.25
1 0 1 1 0 
2 552.5 159.5 1 0 -0 1 2.25
1 0 1 1 0 
2 500 212 1 0 -0 1 58
1 0 1 1 0 
2 447.5 264.5 1 0 -0 1 2.25
1 0 1 1 0 
2 552.5 264.5 1 0 -0 1 2.25
1 0 1 1 0 
2 447.5 299.5 1 0 -0 1 2.25
1 0 1 1 0 
2 552.5 299.5 1 0 -0 1 2.25
1 0 1 1 0 
2 447.5 404.5 1 0 -0 1 2.25
1 0 1 1 0 
2 500 352 1 0 -0 1 58
1 0 1 1 0 
2 552.5 404.5 1 0 -0 1 2.25
1 0 1 1 0 
8 -231 -211
1 387 211 0 -1 
8 -231 -211
1 16 -211 0 -1 
8 -193.5 -191.5
1 193.5 442 -1 0 
8 -193.5 -191.5
1 15.999999999999979 -193.5 -1.1e-16 -1 
8 -231 -211
1 385 211 0 -1 
8 -231 -211
1 16 -211 0 -1 
8 -193.5 -191.5
1 193.5 422 -1 0 
8 -193.5 -191.5
1 15.999999999999979 -193.5 -1.1e-16 -1 
2 418 502.5 1 0 -0 1 1.6000000000000001
1 0 1 1 0 
2 430 512 1 0 -0 1 12
1 0 1 1 0 
2 442 521.5 1 0 -0 1 1.6000000000000001
1 0 1 1 0 
1 0 18 1 0 
1 596.89999999999998 0 0 1 
1 564 0 0 1 
1 596.89999999999998 0 0 -1 
1 0 0 0 1 
1 0 18 1 0 
1 0 564 1 0 
1 0 -18 1 0 
8 -36.110016797122455 -2.110016797122455
1 21.889983202877545 209.99999999999997 -1 0 
8 -36.110016797122455 -2.110016797122455
1 -21.889983202877545 -5.9746554680384634 -1 0 
8 81 129
1 52 81 0 1 
8 81 129
1 -81 10 1 0 
8 81 129
1 48 81 0 1 
8 81 129
1 -81 10 1 0 
8 22.653729685066089 31.153729685066089
1 26.846270314933911 193.99999999999997 1 0 
8 22.653729685066089 31.153729685066089
1 26.846270314933911 3.6942911742739852 -1 0 
8 2.1100167971224515 36.110016797122455
1 21.889983202877549 162.00000000000006 1 0 
8 2.1100167971224515 36.110016797122455
1 21.889983202877549 -5.9746554680380086 -1 0 
8 -5.9999999280000001e-07 16.000000599999993
1 51.938447187191173 178 0 1 
8 -5.9999999280000001e-07 16.000000599999993
1 2.0466785764553124 0 0 1 
8 81 129
1 52 81 0 1 
8 81 129
1 -81 10 1 0 
8 -31.153729685066093 -22.653729685066093
1 26.846270314933907 177.99999999999997 -1 0 
8 -31.153729685066093 -22.653729685066093
1 -26.846270314933907 3.6942911742739852 -1 0 
8 41.5 439.5
1 384 41.5 0 1 
8 41.5 439.5
1 -41.5 23.050189866223491 1 0 
8 -357.5 -26.5
1 26.5 83 -1 0 
8 -357.5 -26.5
1 -26.5 -23.050189866223491 -1 -0 
8 -357.5 -26.5
1 26.5 481 -1 0 
8 -357.5 -26.5
1 -26.5 -23.050189866223491 -1 -0 
8 41.5 439.5
1 53 41.5 0 1 
8 41.5 439.5
1 -41.5 23.050189866223491 1 0 
2 430 57 1 0 -0 1 2.25
1 0 19 1 0 
8 33 55
1 454 33 0 1 
8 33 55
1 -33 19 1 0 
2 451 66 1 0 -0 1 3
1 0 19 1 0 
2 451 88 1 0 -0 1 3
1 0 19 1 0 
8 -246.5 -204.5
1 204.5 63 -1 0 
8 -246.5 -204.5
1 -204.5 -19 -1 -0 
8 -246.5 -204.5
1 204.5 91 -1 0 
8 -246.5 -204.5
1 -204.5 -19 -1 -0 
2 409 66 1 0 -0 1 3
1 0 19 1 0 
2 409 88 1 0 -0 1 3
1 0 19 1 0 
8 33 55
1 406 33 0 1 
8 33 55
1 -33 19 1 0 
2 430 97 1 0 -0 1 2.25
1 0 19 1 0 
2 447.5 159.5 1 0 -0 1 2.25
1 0 19 1 0 
2 552.5 159.5 1 0 -0 1 2.25
1 0 19 1 0 
2 500 212 1 0 -0 1 58
1 0 19 1 0 
2 447.5 264.5 1 0 -0 1 2.25
1 0 19 1 0 
2 552.5 264.5 1 0 -0 1 2.25
1 0 19 1 0 
8 -36.110016797122455 -2.110016797122455
1 21.889983202877545 402 -1 0 
8 -36.110016797122455 -2.110016797122455
1 -21.889983202877545 -5.9746554680384634 -1 0 
8 177 225
1 48 177 0 1 
8 177 225
1 -177 10 1 0 
8 2.1100167971224515 36.110016797122455
1 21.889983202877549 354.00000000000006 1 0 
8 2.1100167971224515 36.110016797122455
1 21.889983202877549 -5.9746554680380086 -1 0 
8 177 225
1 52 177 0 1 
8 177 225
1 -177 10 1 0 
8 -31.153729685066093 -22.653729685066093
1 26.846270314933907 369.99999999999994 -1 0 
8 -31.153729685066093 -22.653729685066093
1 -26.846270314933907 3.6942911742739852 -1 0 
8 -6.0000002122000002e-07 16.000000600000021
1 51.938447187191173 370 0 1 
8 -6.0000002122000002e-07 16.000000600000021
1 2.0466785764553124 0 0 1 
8 22.653729685066089 31.153729685066089
1 26.846270314933911 385.99999999999994 1 0 
8 22.653729685066089 31.153729685066089
1 26.846270314933911 3.6942911742739852 -1 0 
8 177 225
1 52 177 0 1 
8 177 225
1 -177 10 1 0 
2 447.5 299.5 1 0 -0 1 2.25
1 0 19 1 0 
2 552.5 299.5 1 0 -0 1 2.25
1 0 19 1 0 
2 447.5 404.5 1 0 -0 1 2.25
1 0 19 1 0 
2 500 352 1 0 -0 1 58
1 0 19 1 0 
2 552.5 404.5 1 0 -0 1 2.25
1 0 19 1 0 
2 418 502.5 1 0 -0 1 1.6000000000000001
1 0 19 1 0 
2 430 512 1 0 -0 1 12
1 0 19 1 0 
2 442 521.5 1 0 -0 1 1.6000000000000001
1 0 19 1 0 
1 564 0 0 1 
1 0 0 0 -1 
3 64 -2.2736999999999999e-13 0 1 -1 0 7.7781745930520225 5.5
7 0 0  3 25 23  7.8539816339745032 35.455844122715916  7.8301816896291161 35.324943410089112  7.7825818009383543 35.063145579320022  7.7111819679022329 34.67244704796591  7.6397821348661186 34.285741302093186  7.5683823018299581 33.904997924707978  7.4969824687938518 33.532157359601506  7.4255826357577144 33.169119446409859  7.3541828027215672 32.817734161991496  7.2827829696854121 32.479792080155718  7.2113831366492978 32.157015277644426  7.1399833036131728 31.851048550686624  7.068583470577023 31.563451035708631  6.9971836375409184 31.295688263617073  6.9257838045047508 31.049124692426581  6.854383971468657 30.825016752466009  6.7829841384325018 30.624506450575225  6.7115843053963706 30.448615525807153  6.6401844723602386 30.298240335790251  6.5687846393241172 30.17414694233355  6.4973848062879807 30.07696850189156  6.4259849732518495 30.007197209345588  6.3545851402157174 29.965199814948086  6.3069852515249636 29.955832261660461  6.2831853071795862 29.95584412271559 
 1.570796326794867 4 1.642196159831 1 1.7135959928671332 1 1.7849958259032661 1 1.8563956589393991 1 1.927795491975532 1 1.999195325011665 1 2.0705951580477979 1 2.1419949910839309 1 2.2133948241200638 1 2.2847946571561972 1 2.3561944901923302 1 2.4275943232284631 1 2.4989941562645961 1 2.570393989300729 1 2.6417938223368624 1 2.7131936553729954 1 2.7845934884091283 1 2.8559933214452613 1 2.9273931544813943 1 2.9987929875175272 1 3.0701928205536602 1 3.1415926535897931 4
3 64 -2.2736999999999999e-13 0 1 -1 0 7.7781745930520225 5.5
7 0 0  3 25 23  6.2831853071795862 29.95584412271559  6.259385362834208 29.955832261660461  6.2117854741434524 29.965199814948086  6.1403856411073248 30.007197209345584  6.0689858080711909 30.076968501891567  5.9975859750350571 30.17414694233355  5.9261861419989357 30.298240335790258  5.8547863089627992 30.448615525807142  5.7833864759266733 30.624506450575232  5.7119866428905146 30.825016752466006  5.6405868098544207 31.049124692426574  5.5691869768182514 31.295688263617073  5.4977871437821495 31.563451035708628  5.4263873107459988 31.851048550686624  5.3549874777098756 32.157015277644426  5.2835876446737604 32.479792080155711  5.2121878116376053 32.817734161991496  5.1407879786014572 33.169119446409866  5.0693881455653207 33.532157359601506  4.9979883125292144 33.904997924707963  4.926588479493053 34.285741302093193  4.8551886464569396 34.672447047965903  4.7837888134208182 35.063145579320029  4.7361889247300573 35.324943410089112  4.7123889803846692 35.455844122715916 
 3.1415926535897931 4 3.2129924866259261 1 3.284392319662059 1 3.355792152698192 1 3.4271919857343249 1 3.4985918187704579 1 3.5699916518065908 1 3.6413914848427242 1 3.7127913178788572 1 3.7841911509149901 1 3.8555909839511231 1 3.926990816987256 1 3.998390650023389 1 4.0697904830595224 1 4.1411903160956554 1 4.2125901491317883 1 4.2839899821679213 1 4.3553898152040542 1 4.4267896482401872 1 4.4981894812763201 1 4.5695893143124531 1 4.640989147348586 1 4.712388980384719 4
3 122 -2.2736999999999999e-13 0 1 -1 0 7.7781745930520225 5.5
7 0 0  3 25 23  7.8539816339745032 35.455844122715916  7.8301816896291161 35.324943410089112  7.7825818009383543 35.063145579320022  7.7111819679022329 34.67244704796591  7.6397821348661195 34.285741302093186  7.5683823018299572 33.904997924707978  7.4969824687938518 33.532157359601506  7.4255826357577135 33.169119446409859  7.3541828027215663 32.817734161991496  7.2827829696854121 32.479792080155718  7.2113831366492978 32.157015277644426  7.1399833036131737 31.851048550686624  7.068583470577023 31.563451035708631  6.9971836375409202 31.295688263617073  6.9257838045047508 31.049124692426581  6.8543839714686579 30.825016752466009  6.7829841384325009 30.624506450575225  6.7115843053963733 30.448615525807153  6.6401844723602359 30.298240335790251  6.5687846393241198 30.17414694233355  6.4973848062879807 30.07696850189156  6.4259849732518477 30.007197209345588  6.3545851402157183 29.965199814948086  6.3069852515249645 29.955832261660461  6.2831853071795862 29.95584412271559 
 1.570796326794867 4 1.642196159831 1 1.7135959928671332 1 1.7849958259032661 1 1.8563956589393991 1 1.927795491975532 1 1.999195325011665 1 2.0705951580477979 1 2.1419949910839309 1 2.2133948241200638 1 2.2847946571561972 1 2.3561944901923302 1 2.4275943232284631 1 2.4989941562645961 1 2.570393989300729 1 2.6417938223368624 1 2.7131936553729954 1 2.7845934884091283 1 2.8559933214452613 1 2.9273931544813943 1 2.9987929875175272 1 3.0701928205536602 1 3.1415926535897931 4
3 122 -2.2736999999999999e-13 0 1 -1 0 7.7781745930520225 5.5
7 0 0  3 25 23  6.2831853071795862 29.95584412271559  6.259385362834208 29.955832261660461  6.2117854741434524 29.965199814948086  6.1403856411073248 30.007197209345584  6.0689858080711909 30.076968501891567  5.9975859750350571 30.17414694233355  5.9261861419989357 30.298240335790258  5.8547863089627992 30.448615525807142  5.7833864759266733 30.624506450575232  5.7119866428905146 30.825016752466006  5.6405868098544207 31.049124692426574  5.5691869768182514 31.295688263617073  5.4977871437821495 31.563451035708628  5.4263873107459988 31.851048550686624  5.3549874777098756 32.157015277644426  5.2835876446737604 32.479792080155711  5.2121878116376053 32.817734161991496  5.1407879786014572 33.169119446409866  5.0693881455653207 33.532157359601506  4.9979883125292144 33.904997924707963  4.926588479493053 34.285741302093193  4.8551886464569396 34.672447047965903  4.7837888134208182 35.063145579320029  4.7361889247300573 35.324943410089112  4.7123889803846692 35.455844122715916 
 3.1415926535897931 4 3.2129924866259261 1 3.284392319662059 1 3.355792152698192 1 3.4271919857343249 1 3.4985918187704579 1 3.5699916518065908 1 3.6413914848427242 1 3.7127913178788572 1 3.7841911509149901 1 3.8555909839511231 1 3.926990816987256 1 3.998390650023389 1 4.0697904830595224 1 4.1411903160956554 1 4.2125901491317883 1 4.2839899821679213 1 4.3553898152040542 1 4.4267896482401872 1 4.4981894812763201 1 4.5695893143124531 1 4.640989147348586 1 4.712388980384719 4
1 0 0 0 1 
1 331 0 0 -1 
1 398 0 0 1 
1 331 0 0 -1 
1 0 0 0 -1 
1 0 0 0 1 
1 0 0 0 -1 
1 398 0 0 1 
1 6.2831853071795862 -0 0 1 
1 0 -0 0 1 
1 0 0 0 1 
8 0 20
1 6.2831853071795862 -0 0 1 
1 22 0 0 1 
8 0 20
1 0 0 0 1 
1 4.7123889803846897 0 0 1 
1 42 0 0 -1 
1 1.5707963267948966 0 0 1 
1 42 0 0 -1 
1 0 0 0 -1 
1 4.7123889803846897 0 0 1 
1 0 0 0 -1 
1 1.5707963267948966 0 0 1 
1 3.1415926535897931 0 0 1 
1 0 0 0 1 
1 3.1415926535897931 0 0 1 
1 22 0 0 1 
1 6.2831853071795862 -0 0 1 
1 0 -0 0 1 
1 6.2831853071795862 -0 0 1 
1 0 -0 0 1 
1 6.2831853071795862 -0 0 1 
1 0 -0 0 1 
1 6.2831853071795862 -0 0 1 
1 0 -0 0 1 
1 6.2831853071795862 -0 0 1 
1 0 -0 0 1 
1 6.2831853071795862 -0 0 1 
1 0 -0 0 1 
1 6.2831853071795862 -0 0 1 
1 0 -0 0 1 
1 6.2831853071795862 -0 0 1 
1 0 -0 0 1 
1 6.2831853071795862 -0 0 1 
1 0 -0 0 1 
1 6.2831853071795862 -0 0 1 
1 0 -0 0 1 
1 6.2831853071795862 -0 0 1 
1 0 -0 0 1 
1 0 20 1 0 
1 0 0 1 0 
1 24 0 0 1 
1 0 0 1 0 
1 0 0 1 0 
1 0 0 1 0 
1 24 0 0 -1 
1 20 0 0 1 
1 0 -2 1 0 
1 0 20 1 0 
1 24 0 0 1 
1 0 2 1 0 
1 0 0 1 0 
1 0 -2 1 0 
1 24 0 0 -1 
1 0 0 0 1 
1 6.2831853071795862 -0 0 1 
1 0 -0 0 1 
1 6.2831853071795862 -0 0 1 
1 0 -0 0 1 
1 6.2831853071795862 -0 0 1 
1 0 -0 0 1 
1 6.2200335942449101 6.0253445319615366 0 -1 
1 48 0 0 1 
1 4.2200335942449101 4.0253445319615366 1 0 
1 0 48 1 0 
1 8.2200335942449101 4.0253445319615366 0 -1 
1 48 0 0 1 
1 4.2200335942449101 4.0253445319615366 0 -1 
1 48 0 0 1 
1 -19.77996640575509 4.0253445319615366 1 0 
1 0 48 1 0 
1 -19.77996640575509 6.0253445319615366 0 -1 
1 48 0 0 1 
1 -19.77996640575509 6.0253445319615366 1 0 
1 0 48 1 0 
1 0 0 0 1 
1 -8.220033594244903 4.0253445319619914 0 -1 
8 2.5 7
1 16 7 0 1 
1 -1.6925406298678141 6.6942911742739852 0 -1 
8 -5.9999999280000001e-07 16.000000599999993
1 16 9.9688711258506828 1 0 
8 -5.9999999280000001e-07 16.000000599999993
1 2.0313503184762149 0 0 1 
8 2.5 7
1 32 7 0 1 
1 1.6925406298678212 6.6942911742739852 0 -1 
1 0 0 1 0 
1 4 0 0 1 
1 0 0 0 1 
1 -4.220033594244903 4.0253445319619914 0 -1 
1 0 0 1 0 
1 24 0 0 1 
2 -0.30745937013217883 -0.30570882572601477 -1 0 0 1 4.5
1 0 16 1 0 
1 19.779966405755097 6.0253445319619914 -1 0 
1 0 0 1 0 
1 19.779966405755097 6.0253445319619914 0 -1 
1 0 0 0 1 
1 19.779966405755097 4.0253445319619914 -1 0 
1 0 0 1 0 
1 -4.220033594244903 4.0253445319619914 -1 0 
1 0 0 1 0 
1 -6.220033594244903 6.0253445319619914 0 -1 
1 0 0 0 1 
1 0 0 1 0 
2 0.30745937013218594 -0.30570882572601477 1 0 -0 1 4.5
1 6.2200335942449101 6.0253445319615366 0 -1 
1 48 0 0 1 
1 4.2200335942449101 4.0253445319615366 1 0 
1 0 48 1 0 
1 8.2200335942449101 4.0253445319615366 0 -1 
1 48 0 0 1 
1 4.2200335942449101 4.0253445319615366 0 -1 
1 48 0 0 1 
1 -19.77996640575509 4.0253445319615366 1 0 
1 0 48 1 0 
1 -19.77996640575509 6.0253445319615366 0 -1 
1 48 0 0 1 
1 -19.77996640575509 6.0253445319615366 1 0 
1 0 48 1 0 
1 0 0 0 1 
1 -4.220033594244903 4.0253445319619914 0 -1 
1 0 0 1 0 
1 24 0 0 1 
1 19.779966405755097 6.0253445319619914 -1 0 
1 0 0 1 0 
1 19.779966405755097 6.0253445319619914 0 -1 
1 0 0 0 1 
1 19.779966405755097 4.0253445319619914 -1 0 
1 0 0 1 0 
1 -8.220033594244903 4.0253445319619914 0 -1 
1 0 0 0 1 
1 -4.220033594244903 4.0253445319619914 -1 0 
1 0 0 1 0 
1 -6.220033594244903 6.0253445319619914 0 -1 
1 0 0 0 1 
8 2.5 7
1 16 7 0 1 
1 -1.6925406298678141 6.6942911742739852 0 -1 
8 -6.0000002122000002e-07 16.000000600000021
1 16 9.9688711258506828 1 0 
8 -6.0000002122000002e-07 16.000000600000021
1 2.0313503184762149 0 0 1 
8 2.5 7
1 32 7 0 1 
1 1.6925406298678212 6.6942911742739852 0 -1 
1 0 0 1 0 
1 4 0 0 1 
2 0.30745937013218594 -0.30570882572601477 1 0 -0 1 4.5
1 0 0 1 0 
1 0 16 1 0 
2 -0.30745937013217883 -0.30570882572601477 -1 0 0 1 4.5
1 0 2 1 0 
1 2 0 0 1 
1 0 0 1 0 
1 26 0 0 1 
1 0 0 0 1 
1 0 2 1 0 
2 12 10 1 0 -0 1 2.25
1 0 3 1 0 
2 12 38 1 0 -0 1 2.25
1 0 3 1 0 
1 0 0 1 0 
1 0 0 0 1 
2 12 10 1 0 -0 1 2.25
1 0 1 1 0 
2 12 38 1 0 -0 1 2.25
1 0 1 1 0 
1 0 2 1 0 
1 2 0 0 1 
1 0 0 1 0 
1 26 0 0 1 
1 0 0 0 1 
1 0 2 1 0 
2 12 10 1 0 -0 1 2.25
1 0 3 1 0 
2 12 38 1 0 -0 1 2.25
1 0 3 1 0 
1 0 0 1 0 
1 0 0 0 1 
2 12 10 1 0 -0 1 2.25
1 0 1 1 0 
2 12 38 1 0 -0 1 2.25
1 0 1 1 0 
1 6.2831853071795862 -0 0 1 
1 0 -0 0 1 
1 6.2831853071795862 -0 0 1 
1 0 -0 0 1 
1 6.2831853071795862 -0 0 1 
1 0 -0 0 1 
1 6.2831853071795862 -0 0 1 
1 0 -0 0 1 
Curves 199
1 18 1290.0999999999999 0 0 0 1 
3 18 1290.0999999999999 64 1 0 0 0 -1 0 0 0 -1 7.7781745930520225 5.5
1 18 1290.0999999999999 0 0 0 1 
3 18 1290.0999999999999 122 1 0 0 0 -1 0 0 0 -1 7.7781745930520225 5.5
1 18 1290.0999999999999 0 0 0 1 
1 18 1290.0999999999999 596.89999999999998 -0 1 0 
1 18 1308.0999999999999 0 0 0 1 
1 18 1290.0999999999999 0 -0 1 0 
1 18 1290.0999999999999 596.89999999999998 1 0 -0 
1 582 1290.0999999999999 0 0 0 1 
3 581.99999999999989 1290.0999999999999 122 0 1 0 -1 0 0 0 -0 1 7.7781745930520225 5.5
3 18.000000000000057 1290.0999999999999 122 0 1 0 1 -0 0 0 0 -1 7.7781745930520225 5.5
3 581.99999999999989 1290.0999999999999 122 0 1 0 -1 0 0 0 -0 1 7.7781745930520225 5.5
1 582 1290.0999999999999 0 0 0 1 
3 18.000000000000057 1290.0999999999999 64 0 1 0 1 -0 0 0 0 -1 7.7781745930520225 5.5
3 581.99999999999989 1290.0999999999999 64 0 1 0 -1 0 0 0 -0 1 7.7781745930520225 5.5
3 581.99999999999989 1290.0999999999999 64 0 1 0 -1 0 0 0 -0 1 7.7781745930520225 5.5
1 18 1290.0999999999999 0 1 0 -0 
1 582 1290.0999999999999 0 0 0 1 
1 59.5 1290.0999999999999 384 1 0 0 
1 101 1290.0999999999999 26.5 -0 0 -1 
1 499 1290.0999999999999 26.5 -0 0 -1 
1 59.5 1290.0999999999999 53 1 0 0 
2 75 1290.0999999999999 430 0 1 0 0 -0 1 1 0 -0 2.25
1 51 1290.0999999999999 454 1 0 0 
2 84 1290.0999999999999 451 0 1 0 0 -0 1 1 0 -0 3
2 106 1290.0999999999999 451 0 1 0 0 -0 1 1 0 -0 3
1 81 1290.0999999999999 204.5 -0 0 -1 
1 109 1290.0999999999999 204.5 -0 0 -1 
2 84 1290.0999999999999 409 0 1 0 0 -0 1 1 0 -0 3
2 106 1290.0999999999999 409 0 1 0 0 -0 1 1 0 -0 3
1 51 1290.0999999999999 406 1 0 0 
2 115 1290.0999999999999 430 0 1 0 0 -0 1 1 0 -0 2.25
2 177.5 1290.0999999999999 447.5 0 1 0 0 -0 1 1 0 -0 2.25
2 177.5 1290.0999999999999 552.5 0 1 0 0 -0 1 1 0 -0 2.25
2 230 1290.0999999999999 500 0 1 0 0 -0 1 1 0 -0 58
2 282.5 1290.0999999999999 447.5 0 1 0 0 -0 1 1 0 -0 2.25
2 282.5 1290.0999999999999 552.5 0 1 0 0 -0 1 1 0 -0 2.25
2 317.5 1290.0999999999999 447.5 0 1 0 0 -0 1 1 0 -0 2.25
2 317.5 1290.0999999999999 552.5 0 1 0 0 -0 1 1 0 -0 2.25
2 422.5 1290.0999999999999 447.5 0 1 0 0 -0 1 1 0 -0 2.25
2 370 1290.0999999999999 500 0 1 0 0 -0 1 1 0 -0 58
2 422.5 1290.0999999999999 552.5 0 1 0 0 -0 1 1 0 -0 2.25
1 229 1290.0999999999999 387 -1 0 0 
1 460 1290.0999999999999 193.5 0 0 -1 
1 229 1290.0999999999999 385 -1 0 0 
1 440 1290.0999999999999 193.5 0 0 -1 
2 520.5 1290.0999999999999 418 0 1 0 0 -0 1 1 0 -0 1.6000000000000001
2 530 1290.0999999999999 430 0 1 0 0 -0 1 1 0 -0 12
2 539.5 1290.0999999999999 442 0 1 0 0 -0 1 1 0 -0 1.6000000000000001
1 18 1308.0999999999999 596.89999999999998 1 0 -0 
1 582 1290.0999999999999 596.89999999999998 -0 1 0 
1 18 1308.0999999999999 0 1 0 -0 
1 582 1308.0999999999999 0 0 0 1 
1 227.99999999999997 1308.0999999999999 21.889983202877545 0 0 -1 
1 99 1308.0999999999999 52 1 0 0 
1 99 1308.0999999999999 48 1 0 0 
1 211.99999999999997 1308.0999999999999 26.846270314933911 0 0 1 
1 180.00000000000006 1308.0999999999999 21.889983202877549 0 0 1 
1 196 1308.0999999999999 51.938447187191173 1 0 0 
1 99 1308.0999999999999 52 1 0 0 
1 195.99999999999997 1308.0999999999999 26.846270314933907 0 0 -1 
1 59.5 1308.0999999999999 384 1 0 0 
1 101 1308.0999999999999 26.5 -0 0 -1 
1 499 1308.0999999999999 26.5 -0 0 -1 
1 59.5 1308.0999999999999 53 1 0 0 
2 75 1308.0999999999999 430 0 1 0 0 -0 1 1 0 -0 2.25
1 51 1308.0999999999999 454 1 0 0 
2 84 1308.0999999999999 451 0 1 0 0 -0 1 1 0 -0 3
2 106 1308.0999999999999 451 0 1 0 0 -0 1 1 0 -0 3
1 81 1308.0999999999999 204.5 -0 0 -1 
1 109 1308.0999999999999 204.5 -0 0 -1 
2 84 1308.0999999999999 409 0 1 0 0 -0 1 1 0 -0 3
2 106 1308.0999999999999 409 0 1 0 0 -0 1 1 0 -0 3
1 51 1308.0999999999999 406 1 0 0 
2 115 1308.0999999999999 430 0 1 0 0 -0 1 1 0 -0 2.25
2 177.5 1308.0999999999999 447.5 0 1 0 0 -0 1 1 0 -0 2.25
2 177.5 1308.0999999999999 552.5 0 1 0 0 -0 1 1 0 -0 2.25
2 230 1308.0999999999999 500 0 1 0 0 -0 1 1 0 -0 58
2 282.5 1308.0999999999999 447.5 0 1 0 0 -0 1 1 0 -0 2.25
2 282.5 1308.0999999999999 552.5 0 1 0 0 -0 1 1 0 -0 2.25
1 420 1308.0999999999999 21.889983202877545 0 0 -1 
1 195 1308.0999999999999 48 1 0 0 
1 372.00000000000006 1308.0999999999999 21.889983202877549 0 0 1 
1 195 1308.0999999999999 52 1 0 0 
1 387.99999999999994 1308.0999999999999 26.846270314933907 0 0 -1 
1 388 1308.0999999999999 51.938447187191173 1 0 0 
1 403.99999999999994 1308.0999999999999 26.846270314933911 0 0 1 
1 195 1308.0999999999999 52 1 0 0 
2 317.5 1308.0999999999999 447.5 0 1 0 0 -0 1 1 0 -0 2.25
2 317.5 1308.0999999999999 552.5 0 1 0 0 -0 1 1 0 -0 2.25
2 422.5 1308.0999999999999 447.5 0 1 0 0 -0 1 1 0 -0 2.25
2 370 1308.0999999999999 500 0 1 0 0 -0 1 1 0 -0 58
2 422.5 1308.0999999999999 552.5 0 1 0 0 -0 1 1 0 -0 2.25
2 520.5 1308.0999999999999 418 0 1 0 0 -0 1 1 0 -0 1.6000000000000001
2 530 1308.0999999999999 430 0 1 0 0 -0 1 1 0 -0 12
2 539.5 1308.0999999999999 442 0 1 0 0 -0 1 1 0 -0 1.6000000000000001
1 582 1290.0999999999999 0 -0 1 0 
3 582 1290.1000000000001 64 1 0 0 0 -1 0 0 0 -1 7.7781745930520225 5.5
3 582 1290.1000000000001 64 1 0 0 0 -1 0 0 0 -1 7.7781745930520225 5.5
3 582 1290.1000000000001 122 1 0 0 0 -1 0 0 0 -1 7.7781745930520225 5.5
3 582 1290.1000000000001 122 1 0 0 0 -1 0 0 0 -1 7.7781745930520225 5.5
1 101 1285.0498101337764 384 -0 1 0 
1 499 1285.0498101337764 384 -0 1 0 
1 101 1285.0498101337764 53 -0 1 0 
1 499 1285.0498101337764 53 -0 1 0 
1 75 1289.0999999999999 432.25 0 1 0 
1 84 1289.0999999999999 454 -0 1 0 
1 106 1289.0999999999999 454 -0 1 0 
1 81 1289.0999999999999 451 -0 1 0 
1 109 1289.0999999999999 451 -0 1 0 
1 81 1289.0999999999999 409 -0 1 0 
1 109 1289.0999999999999 409 -0 1 0 
1 84 1289.0999999999999 406 -0 1 0 
1 106 1289.0999999999999 406 -0 1 0 
1 115 1289.0999999999999 432.25 0 1 0 
1 177.5 1289.0999999999999 449.75 0 1 0 
1 177.5 1289.0999999999999 554.75 0 1 0 
1 229.99999999999997 1289.0999999999999 558 0 1 0 
1 282.5 1289.0999999999999 449.75 0 1 0 
1 282.5 1289.0999999999999 554.75 0 1 0 
1 317.5 1289.0999999999999 449.75 0 1 0 
1 317.5 1289.0999999999999 554.75 0 1 0 
1 422.5 1289.0999999999999 449.75 0 1 0 
1 370 1289.0999999999999 558 0 1 0 
1 422.5 1289.0999999999999 554.75 0 1 0 
1 460 1288.0999999999999 368 0 0 1 
1 440 1288.0999999999999 392 1 0 -0 
1 440 1288.0999999999999 368 0 0 1 
1 460 1288.0999999999999 392 -0 1 0 
1 460 1290.0999999999999 368 0 0 1 
1 440 1290.0999999999999 392 1 0 -0 
1 440 1290.0999999999999 368 0 0 1 
1 440 1288.0999999999999 392 -0 1 0 
1 520.5 1289.0999999999999 419.60000000000002 0 1 0 
1 530 1289.0999999999999 442 0 1 0 
1 539.5 1289.0999999999999 443.60000000000002 0 1 0 
1 228 1308.0999999999999 50 -0 1 0 
1 228 1310.0999999999999 48 0 0 1 
1 228 1310.0999999999999 52 -0 1 0 
1 228 1310.0999999999999 48 -0 1 0 
1 228 1310.0999999999999 24 0 0 1 
1 228 1308.0999999999999 24 -0 1 0 
1 228 1308.0999999999999 24 0 0 1 
1 180 1310.0999999999999 52 -0 1 0 
1 196 1317.0999999999999 52 0 1 0 
1 196 1320.0688711258506 52 1 0 0 
1 212 1317.0999999999999 52 0 1 0 
1 180 1310.0999999999999 52 1 0 -0 
1 180 1310.0999999999999 48 -0 1 0 
1 180 1310.0999999999999 48 1 0 -0 
2 212 1324.0999999999999 54 1 0 0 -0 0 1 0 -1 0 4.5
1 180 1308.0999999999999 24 0 0 1 
1 180 1308.0999999999999 24 -0 1 0 
1 180 1310.0999999999999 24 0 0 1 
1 180 1310.0999999999999 48 0 0 1 
1 180 1308.0999999999999 50 -0 1 0 
2 196 1324.0999999999999 54 1 0 0 -0 0 1 0 -1 0 4.5
1 420 1308.0999999999999 50 -0 1 0 
1 420 1310.0999999999999 48 0 0 1 
1 420 1310.0999999999999 52 -0 1 0 
1 420 1310.0999999999999 48 -0 1 0 
1 420 1310.0999999999999 24 0 0 1 
1 420 1308.0999999999999 24 -0 1 0 
1 420 1308.0999999999999 24 0 0 1 
1 372 1310.0999999999999 48 -0 1 0 
1 372 1310.0999999999999 48 1 0 -0 
1 372 1308.0999999999999 24 0 0 1 
1 372 1308.0999999999999 24 -0 1 0 
1 372 1310.0999999999999 24 0 0 1 
1 372 1310.0999999999999 52 -0 1 0 
1 372 1310.0999999999999 48 0 0 1 
1 372 1308.0999999999999 50 -0 1 0 
1 388 1317.0999999999999 52 0 1 0 
1 388 1320.0688711258506 52 1 0 0 
1 404 1317.0999999999999 52 0 1 0 
1 372 1310.0999999999999 52 1 0 -0 
2 388 1324.0999999999999 54 1 0 0 -0 0 1 0 -1 0 4.5
2 404 1324.0999999999999 54 1 0 0 -0 0 1 0 -1 0 4.5
1 180 1310.0999999999999 50 1 0 -0 
1 180 1308.0999999999999 50 1 0 -0 
1 180 1310.0999999999999 24 1 0 -0 
2 190 1310.0999999999999 36 0 1 0 0 -0 1 1 0 -0 2.25
2 218 1310.0999999999999 36 0 1 0 0 -0 1 1 0 -0 2.25
1 180 1308.0999999999999 24 1 0 -0 
2 190 1308.0999999999999 36 0 1 0 0 -0 1 1 0 -0 2.25
2 218 1308.0999999999999 36 0 1 0 0 -0 1 1 0 -0 2.25
1 372 1310.0999999999999 50 1 0 -0 
1 372 1308.0999999999999 50 1 0 -0 
1 372 1310.0999999999999 24 1 0 -0 
2 382 1310.0999999999999 36 0 1 0 0 -0 1 1 0 -0 2.25
2 410 1310.0999999999999 36 0 1 0 0 -0 1 1 0 -0 2.25
1 372 1308.0999999999999 24 1 0 -0 
2 382 1308.0999999999999 36 0 1 0 0 -0 1 1 0 -0 2.25
2 410 1308.0999999999999 36 0 1 0 0 -0 1 1 0 -0 2.25
1 190 1307.0999999999999 38.25 0 1 0 
1 218 1307.0999999999999 38.25 0 1 0 
1 382 1307.0999999999999 38.25 0 1 0 
1 410 1307.0999999999999 38.25 0 1 0 
Polygon3D 0
PolygonOnTriangulations 0
Surfaces 76
1 18 1290.0999999999999 0 1 0 -0 0 0 1 0 -1 0 
1 18 1290.0999999999999 0 -0 1 0 0 0 1 1 0 -0 
2 -7.0710678118654746 1315.1710678118654 64 0.70710678118654757 -0.70710678118654757 0 -0.70710678118654757 -0.70710678118654757 0 0 -0 -1 5.5
2 -7.0710678118654746 1315.1710678118654 122 0.70710678118654757 -0.70710678118654757 0 -0.70710678118654757 -0.70710678118654757 0 0 -0 -1 5.5
1 18 1290.0999999999999 596.89999999999998 0 0 1 1 0 -0 -0 1 0 
1 18 1308.0999999999999 0 -0 1 0 0 0 1 1 0 -0 
1 18 1290.0999999999999 0 0 0 1 1 0 -0 -0 1 0 
1 582 1290.0999999999999 0 1 0 -0 0 0 1 0 -1 0 
2 607.07106781186542 1315.1710678118654 122 -0.70710678118654757 -0.70710678118654757 0 -0.70710678118654757 0.70710678118654757 0 -0 0 -1 5.5
6 -0 -0 -1 
3 567.8890872965278 474.89999999999998 0 0 1.1102230246251565e-16 1 -1 0 0 0 -1 1.1102230246251565e-16 7.7781745930520225 5.5
6 -0 -0 -1 
3 3.8890872965279506 474.89999999999998 0 -0 1.1102230246251565e-16 1 1 0 0 0 1 -1.1102230246251565e-16 7.7781745930520225 5.5
6 -0 -0 -1 
3 567.8890872965278 474.89999999999998 0 0 1.1102230246251565e-16 1 -1 0 0 0 -1 1.1102230246251565e-16 7.7781745930520225 5.5
6 -0 -0 -1 
3 3.8890872965279506 532.89999999999998 0 -0 1.1102230246251565e-16 1 1 0 0 0 1 -1.1102230246251565e-16 7.7781745930520225 5.5
2 607.07106781186542 1315.1710678118654 64 -0.70710678118654757 -0.70710678118654757 0 -0.70710678118654757 0.70710678118654757 0 -0 0 -1 5.5
6 -0 -0 -1 
3 567.8890872965278 532.89999999999998 0 0 1.1102230246251565e-16 1 -1 0 0 0 -1 1.1102230246251565e-16 7.7781745930520225 5.5
6 -0 -0 -1 
3 567.8890872965278 532.89999999999998 0 0 1.1102230246251565e-16 1 -1 0 0 0 -1 1.1102230246251565e-16 7.7781745930520225 5.5
1 101 1285.0498101337764 384 0 0 1 1 0 -0 -0 1 0 
1 101 1285.0498101337764 53 1 0 -0 0 0 1 0 -1 0 
1 499 1285.0498101337764 53 1 0 -0 0 0 1 0 -1 0 
1 101 1285.0498101337764 53 0 0 1 1 0 -0 -0 1 0 
2 75 1289.0999999999999 430 0 1 0 0 -0 1 1 0 -0 2.25
1 84 1289.0999999999999 454 0 0 1 1 0 -0 -0 1 0 
2 84 1289.0999999999999 451 0 1 0 0 -0 1 1 0 -0 3
2 106 1289.0999999999999 451 0 1 0 0 -0 1 1 0 -0 3
1 81 1289.0999999999999 409 1 0 -0 0 0 1 0 -1 0 
1 109 1289.0999999999999 409 1 0 -0 0 0 1 0 -1 0 
2 84 1289.0999999999999 409 0 1 0 0 -0 1 1 0 -0 3
2 106 1289.0999999999999 409 0 1 0 0 -0 1 1 0 -0 3
1 84 1289.0999999999999 406 0 0 1 1 0 -0 -0 1 0 
2 115 1289.0999999999999 430 0 1 0 0 -0 1 1 0 -0 2.25
2 177.5 1289.0999999999999 447.5 0 1 0 0 -0 1 1 0 -0 2.25
2 177.5 1289.0999999999999 552.5 0 1 0 0 -0 1 1 0 -0 2.25
2 230 1289.0999999999999 500 0 1 0 0 -0 1 1 0 -0 58
2 282.5 1289.0999999999999 447.5 0 1 0 0 -0 1 1 0 -0 2.25
2 282.5 1289.0999999999999 552.5 0 1 0 0 -0 1 1 0 -0 2.25
2 317.5 1289.0999999999999 447.5 0 1 0 0 -0 1 1 0 -0 2.25
2 317.5 1289.0999999999999 552.5 0 1 0 0 -0 1 1 0 -0 2.25
2 422.5 1289.0999999999999 447.5 0 1 0 0 -0 1 1 0 -0 2.25
2 370 1289.0999999999999 500 0 1 0 0 -0 1 1 0 -0 58
2 422.5 1289.0999999999999 552.5 0 1 0 0 -0 1 1 0 -0 2.25
1 440 1288.0999999999999 368 -0 1 0 0 0 1 1 0 -0 
1 460 1288.0999999999999 368 1 0 -0 0 0 1 0 -1 0 
1 440 1290.0999999999999 368 -0 1 0 0 0 1 1 0 -0 
1 440 1288.0999999999999 368 1 0 -0 0 0 1 0 -1 0 
2 520.5 1289.0999999999999 418 0 1 0 0 -0 1 1 0 -0 1.6000000000000001
2 530 1289.0999999999999 430 0 1 0 0 -0 1 1 0 -0 12
2 539.5 1289.0999999999999 442 0 1 0 0 -0 1 1 0 -0 1.6000000000000001
1 227.99999999999997 1314.1253445319614 43.77996640575509 1 0 0 -0 0 1 0 -1 0 
1 180 1310.0999999999999 52 0 0 1 1 0 -0 -0 1 0 
1 180 1310.0999999999999 48 0 0 1 1 0 -0 -0 1 0 
1 211.99999999999997 1323.7942911742739 53.692540629867821 -1 -0 -0 0 0 -1 0 -1 0 
1 180.00000000000006 1314.1253445319619 43.779966405755097 -1 -0 -0 0 0 -1 0 -1 0 
2 196 1324.0999999999999 54 1 0 0 -0 0 1 0 -1 0 4.5
1 195.99999999999997 1323.7942911742739 53.692540629867814 1 0 0 -0 0 1 0 -1 0 
1 420 1314.1253445319614 43.77996640575509 1 0 0 -0 0 1 0 -1 0 
1 372 1310.0999999999999 48 0 0 1 1 0 -0 -0 1 0 
1 372.00000000000006 1314.1253445319619 43.779966405755097 -1 -0 -0 0 0 -1 0 -1 0 
1 372 1310.0999999999999 52 0 0 1 1 0 -0 -0 1 0 
1 387.99999999999994 1323.7942911742739 53.692540629867814 1 0 0 -0 0 1 0 -1 0 
2 388 1324.0999999999999 54 1 0 0 -0 0 1 0 -1 0 4.5
1 403.99999999999994 1323.7942911742739 53.692540629867821 -1 -0 -0 0 0 -1 0 -1 0 
1 440 1288.0999999999999 392 0 0 1 1 0 -0 -0 1 0 
1 180 1308.0999999999999 50 0 0 1 1 0 -0 -0 1 0 
1 180 1310.0999999999999 48 -0 1 0 0 0 1 1 0 -0 
1 180 1310.0999999999999 24 -0 1 0 0 0 1 1 0 -0 
1 180 1308.0999999999999 24 0 0 1 1 0 -0 -0 1 0 
1 180 1308.0999999999999 24 -0 1 0 0 0 1 1 0 -0 
1 372 1308.0999999999999 50 0 0 1 1 0 -0 -0 1 0 
1 372 1310.0999999999999 48 -0 1 0 0 0 1 1 0 -0 
1 372 1310.0999999999999 24 -0 1 0 0 0 1 1 0 -0 
1 372 1308.0999999999999 24 0 0 1 1 0 -0 -0 1 0 
1 372 1308.0999999999999 24 -0 1 0 0 0 1 1 0 -0 
2 190 1307.0999999999999 36 0 1 0 0 -0 1 1 0 -0 2.25
2 218 1307.0999999999999 36 0 1 0 0 -0 1 1 0 -0 2.25
2 382 1307.0999999999999 36 0 1 0 0 -0 1 1 0 -0 2.25
2 410 1307.0999999999999 36 0 1 0 0 -0 1 1 0 -0 2.25
Triangulations 0

TShapes 521
Ve
1e-07
18 1290.1 0
0 0

0101101
*
Ve
1.0000006e-07
18 1290.1 58.5
0 0

0101101
*
Ed
 1e-07 1 1 0
1  1 0 0 58.5
2  1 1 0 0 58.5
2  2 2 0 0 58.5
0

0101000
+521 9 -520 9 *
Ve
1.00000057e-07
18 1290.1 69.5
0 0

0101101
*
Ed
 1e-07 1 1 0
1  2 0 1.5707963267949 4.71238898038469
2  3 1 8 1.5707963267949 4.71238898038469
2  4 3 0 1.5707963267949 4.71238898038469
0

0101000
+520 10 -518 10 *
Ve
1.0000006e-07
18 1290.1 116.5
0 0

0101101
*
Ed
 1e-07 1 1 0
1  3 0 69.5 116.5
2  5 1 0 69.5 116.5
2  6 2 0 69.5 116.5
0

0101000
+518 9 -516 9 *
Ve
1.00000057e-07
18 1290.1 127.5
0 0

0101101
*
Ed
 1e-07 1 1 0
1  4 0 1.5707963267949 4.71238898038469
2  7 1 8 1.5707963267949 4.71238898038469
2  8 4 0 1.5707963267949 4.71238898038469
0

0101000
+516 10 -514 10 *
Ve
1e-07
18 1290.1 596.9
0 0

0101101
*
Ed
 1e-07 1 1 0
1  5 0 127.5 596.9
2  9 1 0 127.5 596.9
2  10 2 0 127.5 596.9
0

0101000
+514 9 -512 9 *
Ve
1e-07
18 1308.1 596.9
0 0

0101101
*
Ed
 1e-07 1 1 0
1  6 0 0 18
2  11 1 0 0 18
2  12 5 0 0 18
0

0101000
-510 9 +512 9 *
Ve
1e-07
18 1308.1 0
0 0

0101101
*
Ed
 1e-07 1 1 0
1  7 0 0 596.9
2  13 1 0 0 596.9
2  14 6 0 0 596.9
0

0101000
-510 9 +508 9 *
Ed
 1e-07 1 1 0
1  8 0 0 18
2  15 1 0 0 18
2  16 7 0 0 18
0

0101000
-508 9 +521 9 *
Wi

0101100
-519 8 -517 0 -515 8 -513 0 -511 8 -509 8 +507 8 +506 8 *
Fa
0  1e-07 1 8

0111000
+505 0 *
Ve
1e-07
582 1290.1 596.9
0 0

0101101
*
Ed
 1e-07 1 1 0
1  9 0 0 564
2  17 2 0 0 564
2  18 5 0 0 564
0

0101000
-503 9 +512 9 *
Ve
5.53059249029942e-06
582 1290.1 127.5
0 0

0101101
*
Ed
 1e-07 1 1 0
1  10 0 127.5 596.9
2  19 2 0 127.5 596.9
2  20 8 0 127.5 596.9
0

0101000
+501 9 -503 9 *
Ve
5.53059249029942e-06
574.221825406948 1290.1 122
0 0

0101101
*
Ed
 5.53059249029942e-06 1 1 0
1  11 0 0 1.5707963267949
2  21 2 8 0 1.5707963267949
2  22 9 12 0 1.5707963267949
2  23 10 14 0 1.5707963267949
2  24 10 16 0 1.5707963267949
0

0101000
+499 10 -501 10 *
Ed
 1e-07 1 1 0
1  12 0 4.71238898038469 7.85398163397448
2  25 2 8 4.71238898038469 7.85398163397448
2  26 4 0 4.71238898038469 7.85398163397448
2  27 11 14 4.71238898038469 7.85398163397448
2  28 11 16 4.71238898038469 7.85398163397448
0

0101000
+514 10 -516 10 *
Ve
5.53059249029942e-06
582 1290.1 116.5
0 0

0101101
*
Ed
 5.53059249029942e-06 1 1 0
1  13 0 4.71238898038469 6.28318530717959
2  29 2 8 4.71238898038469 6.28318530717959
2  30 9 12 4.71238898038469 6.28318530717959
2  31 12 14 4.71238898038469 6.28318530717959
2  32 12 16 4.71238898038469 6.28318530717959
0

0101000
+496 10 -499 10 *
Ve
5.53059249029942e-06
582 1290.1 69.5
0 0

0101101
*
Ed
 1e-07 1 1 0
1  14 0 69.5 116.5
2  33 2 0 69.5 116.5
2  34 8 0 69.5 116.5
0

0101000
+494 9 -496 9 *
Ed
 1e-07 1 1 0
1  15 0 4.71238898038469 7.85398163397448
2  35 2 8 4.71238898038469 7.85398163397448
2  36 3 0 4.71238898038469 7.85398163397448
2  37 13 14 4.71238898038469 7.85398163397448
2  38 13 16 4.71238898038469 7.85398163397448
0

0101000
+518 10 -520 10 *
Ve
5.53059249029942e-06
574.221825406948 1290.1 64
0 0

0101101
*
Ed
 5.53059249029942e-06 1 1 0
1  16 0 0 1.5707963267949
2  39 2 8 0 1.5707963267949
2  40 14 12 0 1.5707963267949
2  41 15 14 0 1.5707963267949
2  42 15 16 0 1.5707963267949
0

0101000
+491 10 -494 10 *
Ve
5.53059249029942e-06
582 1290.1 58.5
0 0

0101101
*
Ed
 5.53059249029942e-06 1 1 0
1  17 0 4.71238898038469 6.28318530717959
2  43 2 8 4.71238898038469 6.28318530717959
2  44 14 12 4.71238898038469 6.28318530717959
2  45 16 14 4.71238898038469 6.28318530717959
2  46 16 16 4.71238898038469 6.28318530717959
0

0101000
+489 10 -491 10 *
Ve
1e-07
582 1290.1 0
0 0

0101101
*
Ed
 1e-07 1 1 0
1  18 0 0 564
2  47 2 0 0 564
2  48 7 0 0 564
0

0101000
-487 9 +521 9 *
Ed
 1e-07 1 1 0
1  19 0 0 58.5
2  49 2 0 0 58.5
2  50 8 0 0 58.5
0

0101000
+487 9 -489 9 *
Wi

0101100
+502 11 -500 11 +511 11 -498 7 -497 7 -495 7 +515 11 -493 11 -492 7 -490 7 
+519 11 -488 7 -486 11 -485 11 *
Ve
1.5e-07
101 1290.1 384
0 0

0101101
*
Ve
1.5e-07
499 1290.1 384
0 0

0101101
*
Ed
 1.5e-07 1 1 0
1  20 0 41.5 439.5
2  51 2 11 41.5 439.5
2  52 17 0 41.5 439.5
0

0101000
+483 17 -482 17 *
Ve
1.5e-07
101 1290.1 53
0 0

0101101
*
Ed
 1.5e-07 1 1 0
1  21 0 -357.5 -26.5
2  53 2 11 -357.5 -26.5
2  54 18 0 -357.5 -26.5
0

0101000
+483 17 -480 17 *
Ve
1.5e-07
499 1290.1 53
0 0

0101101
*
Ed
 1.5e-07 1 1 0
1  22 0 -357.5 -26.5
2  55 2 11 -357.5 -26.5
2  56 19 0 -357.5 -26.5
0

0101000
+482 17 -478 17 *
Ed
 1.5e-07 1 1 0
1  23 0 41.5 439.5
2  57 2 11 41.5 439.5
2  58 20 0 41.5 439.5
0

0101000
+480 17 -478 17 *
Wi

0101100
-481 0 +479 0 -477 0 +476 0 *
Ve
1e-07
75 1290.1 432.25
0 0

0101101
*
Ed
 1e-07 1 1 0
1  24 0 0 6.28318530717959
2  59 2 18 0 6.28318530717959
2  60 21 0 0 6.28318530717959
0

0101100
+474 19 -474 19 *
Wi

0101100
-473 6 *
Ve
1.5e-07
84 1290.1 454
0 0

0101101
*
Ve
1.5e-07
106 1290.1 454
0 0

0101101
*
Ed
 1.5e-07 1 1 0
1  25 0 33 55
2  61 2 18 33 55
2  62 22 0 33 55
0

0101000
+471 19 -470 19 *
Ve
1.5e-07
81 1290.1 451
0 0

0101101
*
Ed
 1e-07 1 1 0
1  26 0 4.71238898038469 6.28318530717959
2  63 2 18 4.71238898038469 6.28318530717959
2  64 23 0 4.71238898038469 6.28318530717959
0

0101000
+468 19 -471 19 *
Ve
1.5e-07
109 1290.1 451
0 0

0101101
*
Ed
 1e-07 1 1 0
1  27 0 0 1.5707963267949
2  65 2 18 0 1.5707963267949
2  66 24 0 0 1.5707963267949
0

0101000
+470 19 -466 19 *
Ve
1.5e-07
81 1290.1 409
0 0

0101101
*
Ed
 1.5e-07 1 1 0
1  28 0 -246.5 -204.5
2  67 2 18 -246.5 -204.5
2  68 25 0 -246.5 -204.5
0

0101000
+468 19 -464 19 *
Ve
1.5e-07
109 1290.1 409
0 0

0101101
*
Ed
 1.5e-07 1 1 0
1  29 0 -246.5 -204.5
2  69 2 18 -246.5 -204.5
2  70 26 0 -246.5 -204.5
0

0101000
+466 19 -462 19 *
Ve
1.5e-07
84 1290.1 406
0 0

0101101
*
Ed
 1e-07 1 1 0
1  30 0 3.14159265358979 4.71238898038469
2  71 2 18 3.14159265358979 4.71238898038469
2  72 27 0 3.14159265358979 4.71238898038469
0

0101000
+460 19 -464 19 *
Ve
1.5e-07
106 1290.1 406
0 0

0101101
*
Ed
 1e-07 1 1 0
1  31 0 1.5707963267949 3.14159265358979
2  73 2 18 1.5707963267949 3.14159265358979
2  74 28 0 1.5707963267949 3.14159265358979
0

0101000
+462 19 -458 19 *
Ed
 1.5e-07 1 1 0
1  32 0 33 55
2  75 2 18 33 55
2  76 29 0 33 55
0

0101000
+460 19 -458 19 *
Wi

0101100
-469 6 -467 6 -465 6 +463 6 -461 6 -459 6 -457 6 +456 6 *
Ve
1e-07
115 1290.1 432.25
0 0

0101101
*
Ed
 1e-07 1 1 0
1  33 0 0 6.28318530717959
2  77 2 18 0 6.28318530717959
2  78 30 0 0 6.28318530717959
0

0101100
+454 19 -454 19 *
Wi

0101100
-453 6 *
Ve
1e-07
177.5 1290.1 449.75
0 0

0101101
*
Ed
 1e-07 1 1 0
1  34 0 0 6.28318530717959
2  79 2 18 0 6.28318530717959
2  80 31 0 0 6.28318530717959
0

0101100
+451 19 -451 19 *
Wi

0101100
-450 6 *
Ve
1e-07
177.5 1290.1 554.75
0 0

0101101
*
Ed
 1e-07 1 1 0
1  35 0 0 6.28318530717959
2  81 2 18 0 6.28318530717959
2  82 32 0 0 6.28318530717959
0

0101100
+448 19 -448 19 *
Wi

0101100
-447 6 *
Ve
1.00000028e-07
230 1290.1 558
0 0

0101101
*
Ed
 1e-07 1 1 0
1  36 0 0 6.28318530717959
2  83 2 18 0 6.28318530717959
2  84 33 0 0 6.28318530717959
0

0101100
+445 19 -445 19 *
Wi

0101100
-444 6 *
Ve
1e-07
282.5 1290.1 449.75
0 0

0101101
*
Ed
 1e-07 1 1 0
1  37 0 0 6.28318530717959
2  85 2 18 0 6.28318530717959
2  86 34 0 0 6.28318530717959
0

0101100
+442 19 -442 19 *
Wi

0101100
-441 6 *
Ve
1e-07
282.5 1290.1 554.75
0 0

0101101
*
Ed
 1e-07 1 1 0
1  38 0 0 6.28318530717959
2  87 2 18 0 6.28318530717959
2  88 35 0 0 6.28318530717959
0

0101100
+439 19 -439 19 *
Wi

0101100
-438 6 *
Ve
1e-07
317.5 1290.1 449.75
0 0

0101101
*
Ed
 1e-07 1 1 0
1  39 0 0 6.28318530717959
2  89 2 18 0 6.28318530717959
2  90 36 0 0 6.28318530717959
0

0101100
+436 19 -436 19 *
Wi

0101100
-435 6 *
Ve
1e-07
317.5 1290.1 554.75
0 0

0101101
*
Ed
 1e-07 1 1 0
1  40 0 0 6.28318530717959
2  91 2 18 0 6.28318530717959
2  92 37 0 0 6.28318530717959
0

0101100
+433 19 -433 19 *
Wi

0101100
-432 6 *
Ve
1e-07
422.5 1290.1 449.75
0 0

0101101
*
Ed
 1e-07 1 1 0
1  41 0 0 6.28318530717959
2  93 2 18 0 6.28318530717959
2  94 38 0 0 6.28318530717959
0

0101100
+430 19 -430 19 *
Wi

0101100
-429 6 *
Ve
1e-07
370 1290.1 558
0 0

0101101
*
Ed
 1e-07 1 1 0
1  42 0 0 6.28318530717959
2  95 2 18 0 6.28318530717959
2  96 39 0 0 6.28318530717959
0

0101100
+427 19 -427 19 *
Wi

0101100
-426 6 *
Ve
1e-07
422.5 1290.1 554.75
0 0

0101101
*
Ed
 1e-07 1 1 0
1  43 0 0 6.28318530717959
2  97 2 18 0 6.28318530717959
2  98 40 0 0 6.28318530717959
0

0101100
+424 19 -424 19 *
Wi

0101100
-423 6 *
Ve
1.5e-07
460 1290.1 387
0 0

0101101
*
Ve
1.5e-07
440 1290.1 387
0 0

0101101
*
Ed
 1.5e-07 1 1 0
1  44 0 -231 -211
2  99 2 11 -231 -211
2  100 41 24 -231 -211
0

0101000
+421 17 -420 17 *
Ve
1.5e-07
460 1290.1 385
0 0

0101101
*
Ed
 1.5e-07 1 1 0
1  45 0 -193.5 -191.5
2  101 2 11 -193.5 -191.5
2  102 42 24 -193.5 -191.5
0

0101000
+421 17 -418 17 *
Ve
1.5e-07
440 1290.1 385
0 0

0101101
*
Ed
 1.5e-07 1 1 0
1  46 0 -231 -211
2  103 2 11 -231 -211
2  104 43 24 -231 -211
0

0101000
+418 17 -416 17 *
Ed
 1.5e-07 1 1 0
1  47 0 -193.5 -191.5
2  105 2 11 -193.5 -191.5
2  106 44 24 -193.5 -191.5
0

0101000
+420 17 -416 17 *
Wi

0101100
+419 0 -417 0 -415 0 +414 0 *
Ve
1e-07
520.5 1290.1 419.6
0 0

0101101
*
Ed
 1e-07 1 1 0
1  48 0 0 6.28318530717959
2  107 2 18 0 6.28318530717959
2  108 45 0 0 6.28318530717959
0

0101100
+412 19 -412 19 *
Wi

0101100
-411 6 *
Ve
1e-07
530 1290.1 442
0 0

0101101
*
Ed
 1e-07 1 1 0
1  49 0 0 6.28318530717959
2  109 2 18 0 6.28318530717959
2  110 46 0 0 6.28318530717959
0

0101100
+409 19 -409 19 *
Wi

0101100
-408 6 *
Ve
1e-07
539.5 1290.1 443.6
0 0

0101101
*
Ed
 1e-07 1 1 0
1  50 0 0 6.28318530717959
2  111 2 18 0 6.28318530717959
2  112 47 0 0 6.28318530717959
0

0101100
+406 19 -406 19 *
Wi

0101100
-405 6 *
Fa
0  1e-07 2 11

0111000
+484 0 +475 0 +472 0 +455 0 +452 0 +449 0 +446 0 +443 0 +440 0 +437 0 
+434 0 +431 0 +428 0 +425 0 +422 0 +413 0 +410 0 +407 0 +404 0 *
Wi

0101100
+492 0 +517 0 *
Fa
0  1e-07 3 0

0111000
+402 0 *
Wi

0101100
+497 0 +513 0 *
Fa
0  1e-07 4 0

0111000
+400 0 *
Ve
1e-07
582 1308.1 596.9
0 0

0101101
*
Ed
 1e-07 1 1 0
1  51 0 0 564
2  113 5 0 0 564
2  114 6 0 0 564
0

0101000
-398 9 +510 9 *
Ed
 1e-07 1 1 0
1  52 0 0 18
2  115 5 0 0 18
2  116 8 0 0 18
0

0101000
-398 9 +503 9 *
Wi

0101100
-509 0 -397 0 +396 0 +502 0 *
Fa
0  1e-07 5 0

0111000
+395 0 *
Ve
1e-07
582 1308.1 0
0 0

0101101
*
Ed
 1e-07 1 1 0
1  53 0 0 564
2  117 6 0 0 564
2  118 7 0 0 564
0

0101000
-393 9 +508 9 *
Ed
 1e-07 1 1 0
1  54 0 0 596.9
2  119 6 0 0 596.9
2  120 8 0 0 596.9
0

0101000
-398 9 +393 9 *
Wi

0101100
-392 11 -391 11 +507 11 +397 11 *
Ve
1.50000028e-07
228 1308.1 52
0 0

0101101
*
Ve
1.50000028e-07
228 1308.1 48
0 0

0101101
*
Ed
 1.5e-07 1 1 0
1  55 0 -30.1100167971225 -26.1100167971225
2  121 6 11 -30.1100167971225 -26.1100167971225
2  122 48 27 -30.1100167971225 -26.1100167971225
0

0101000
+389 17 -388 17 *
Ve
2.00000028e-07
212 1308.1 52
0 0

0101101
*
Ed
 1.5e-07 1 1 0
1  56 0 113 129
2  123 6 11 113 129
2  124 49 27 113 129
0

0101000
+386 17 -389 17 *
Ve
1.50000057e-07
180 1308.1 48
0 0

0101101
*
Ed
 1.5e-07 1 1 0
1  57 0 81 129
2  125 6 11 81 129
2  126 50 27 81 129
0

0101000
+384 17 -388 17 *
Ve
2.00000028e-07
212 1308.1 51.9384471871912
0 0

0101101
*
Ed
 2e-07 1 1 0
1  58 0 25.0921768722573 25.1537296850661
2  127 6 11 25.0921768722573 25.1537296850661
2  128 51 27 25.0921768722573 25.1537296850661
0

0101000
+382 17 -386 17 *
Ve
1.50000057e-07
180 1308.1 52
0 0

0101101
*
Ed
 1.5e-07 1 1 0
1  59 0 26.1100167971225 30.1100167971225
2  129 6 11 26.1100167971225 30.1100167971225
2  130 52 27 26.1100167971225 30.1100167971225
0

0101000
+384 17 -380 17 *
Ve
2.00000028e-07
196 1308.1 51.9384471871912
0 0

0101101
*
Ed
 1e-07 1 1 0
1  60 0 0 16
2  131 6 11 0 16
2  132 53 27 0 16
0

0101000
+378 17 -382 17 *
Ve
2.00000028e-07
196 1308.1 52
0 0

0101101
*
Ed
 1.5e-07 1 1 0
1  61 0 81 97
2  133 6 11 81 97
2  134 49 27 81 97
0

0101000
+380 17 -376 17 *
Ed
 2e-07 1 1 0
1  62 0 -25.1537296850661 -25.0921768722573
2  135 6 11 -25.1537296850661 -25.0921768722573
2  136 54 27 -25.1537296850661 -25.0921768722573
0

0101000
+376 17 -378 17 *
Wi

0101100
-387 0 -385 0 +383 0 -381 0 -379 0 -377 0 -375 0 -374 0 *
Ve
1.5e-07
101 1308.1 384
0 0

0101101
*
Ve
1.5e-07
499 1308.1 384
0 0

0101101
*
Ed
 1.5e-07 1 1 0
1  63 0 41.5 439.5
2  137 6 11 41.5 439.5
2  138 17 0 41.5 439.5
0

0101000
+372 17 -371 17 *
Ve
1.5e-07
101 1308.1 53
0 0

0101101
*
Ed
 1.5e-07 1 1 0
1  64 0 -357.5 -26.5
2  139 6 11 -357.5 -26.5
2  140 18 0 -357.5 -26.5
0

0101000
+372 17 -369 17 *
Ve
1.5e-07
499 1308.1 53
0 0

0101101
*
Ed
 1.5e-07 1 1 0
1  65 0 -357.5 -26.5
2  141 6 11 -357.5 -26.5
2  142 19 0 -357.5 -26.5
0

0101000
+371 17 -367 17 *
Ed
 1.5e-07 1 1 0
1  66 0 41.5 439.5
2  143 6 11 41.5 439.5
2  144 20 0 41.5 439.5
0

0101000
+369 17 -367 17 *
Wi

0101100
-370 0 +368 0 -366 0 +365 0 *
Ve
1e-07
75 1308.1 432.25
0 0

0101101
*
Ed
 1e-07 1 1 0
1  67 0 0 6.28318530717959
2  145 6 18 0 6.28318530717959
2  146 21 0 0 6.28318530717959
0

0101100
+363 19 -363 19 *
Wi

0101100
-362 6 *
Ve
1.5e-07
84 1308.1 454
0 0

0101101
*
Ve
1.5e-07
106 1308.1 454
0 0

0101101
*
Ed
 1.5e-07 1 1 0
1  68 0 33 55
2  147 6 18 33 55
2  148 22 0 33 55
0

0101000
+360 19 -359 19 *
Ve
1.5e-07
81 1308.1 451
0 0

0101101
*
Ed
 1e-07 1 1 0
1  69 0 4.71238898038469 6.28318530717959
2  149 6 18 4.71238898038469 6.28318530717959
2  150 23 0 4.71238898038469 6.28318530717959
0

0101000
+357 19 -360 19 *
Ve
1.5e-07
109 1308.1 451
0 0

0101101
*
Ed
 1e-07 1 1 0
1  70 0 0 1.5707963267949
2  151 6 18 0 1.5707963267949
2  152 24 0 0 1.5707963267949
0

0101000
+359 19 -355 19 *
Ve
1.5e-07
81 1308.1 409
0 0

0101101
*
Ed
 1.5e-07 1 1 0
1  71 0 -246.5 -204.5
2  153 6 18 -246.5 -204.5
2  154 25 0 -246.5 -204.5
0

0101000
+357 19 -353 19 *
Ve
1.5e-07
109 1308.1 409
0 0

0101101
*
Ed
 1.5e-07 1 1 0
1  72 0 -246.5 -204.5
2  155 6 18 -246.5 -204.5
2  156 26 0 -246.5 -204.5
0

0101000
+355 19 -351 19 *
Ve
1.5e-07
84 1308.1 406
0 0

0101101
*
Ed
 1e-07 1 1 0
1  73 0 3.14159265358979 4.71238898038469
2  157 6 18 3.14159265358979 4.71238898038469
2  158 27 0 3.14159265358979 4.71238898038469
0

0101000
+349 19 -353 19 *
Ve
1.5e-07
106 1308.1 406
0 0

0101101
*
Ed
 1e-07 1 1 0
1  74 0 1.5707963267949 3.14159265358979
2  159 6 18 1.5707963267949 3.14159265358979
2  160 28 0 1.5707963267949 3.14159265358979
0

0101000
+351 19 -347 19 *
Ed
 1.5e-07 1 1 0
1  75 0 33 55
2  161 6 18 33 55
2  162 29 0 33 55
0

0101000
+349 19 -347 19 *
Wi

0101100
-358 6 -356 6 -354 6 +352 6 -350 6 -348 6 -346 6 +345 6 *
Ve
1e-07
115 1308.1 432.25
0 0

0101101
*
Ed
 1e-07 1 1 0
1  76 0 0 6.28318530717959
2  163 6 18 0 6.28318530717959
2  164 30 0 0 6.28318530717959
0

0101100
+343 19 -343 19 *
Wi

0101100
-342 6 *
Ve
1e-07
177.5 1308.1 449.75
0 0

0101101
*
Ed
 1e-07 1 1 0
1  77 0 0 6.28318530717959
2  165 6 18 0 6.28318530717959
2  166 31 0 0 6.28318530717959
0

0101100
+340 19 -340 19 *
Wi

0101100
-339 6 *
Ve
1e-07
177.5 1308.1 554.75
0 0

0101101
*
Ed
 1e-07 1 1 0
1  78 0 0 6.28318530717959
2  167 6 18 0 6.28318530717959
2  168 32 0 0 6.28318530717959
0

0101100
+337 19 -337 19 *
Wi

0101100
-336 6 *
Ve
1.00000028e-07
230 1308.1 558
0 0

0101101
*
Ed
 1e-07 1 1 0
1  79 0 0 6.28318530717959
2  169 6 18 0 6.28318530717959
2  170 33 0 0 6.28318530717959
0

0101100
+334 19 -334 19 *
Wi

0101100
-333 6 *
Ve
1e-07
282.5 1308.1 449.75
0 0

0101101
*
Ed
 1e-07 1 1 0
1  80 0 0 6.28318530717959
2  171 6 18 0 6.28318530717959
2  172 34 0 0 6.28318530717959
0

0101100
+331 19 -331 19 *
Wi

0101100
-330 6 *
Ve
1e-07
282.5 1308.1 554.75
0 0

0101101
*
Ed
 1e-07 1 1 0
1  81 0 0 6.28318530717959
2  173 6 18 0 6.28318530717959
2  174 35 0 0 6.28318530717959
0

0101100
+328 19 -328 19 *
Wi

0101100
-327 6 *
Ve
1.5e-07
420 1308.1 52
0 0

0101101
*
Ve
1.5e-07
420 1308.1 48
0 0

0101101
*
Ed
 1.5e-07 1 1 0
1  82 0 -30.1100167971225 -26.1100167971225
2  175 6 11 -30.1100167971225 -26.1100167971225
2  176 55 30 -30.1100167971225 -26.1100167971225
0

0101000
+325 17 -324 17 *
Ve
1.50000057e-07
372 1308.1 48
0 0

0101101
*
Ed
 1.5e-07 1 1 0
1  83 0 177 225
2  177 6 11 177 225
2  178 56 30 177 225
0

0101000
+322 17 -324 17 *
Ve
1.50000057e-07
372 1308.1 52
0 0

0101101
*
Ed
 1.5e-07 1 1 0
1  84 0 26.1100167971225 30.1100167971225
2  179 6 11 26.1100167971225 30.1100167971225
2  180 57 30 26.1100167971225 30.1100167971225
0

0101000
+322 17 -320 17 *
Ve
2.00000057e-07
388 1308.1 52
0 0

0101101
*
Ed
 1.5e-07 1 1 0
1  85 0 177 193
2  181 6 11 177 193
2  182 58 30 177 193
0

0101000
+320 17 -318 17 *
Ve
2.00000057e-07
388 1308.1 51.9384471871912
0 0

0101101
*
Ed
 2e-07 1 1 0
1  86 0 -25.1537296850661 -25.0921768722573
2  183 6 11 -25.1537296850661 -25.0921768722573
2  184 59 30 -25.1537296850661 -25.0921768722573
0

0101000
+318 17 -316 17 *
Ve
2.00000057e-07
404 1308.1 51.9384471871912
0 0

0101101
*
Ed
 1e-07 1 1 0
1  87 0 0 16
2  185 6 11 0 16
2  186 60 30 0 16
0

0101000
+316 17 -314 17 *
Ve
2.00000057e-07
404 1308.1 52
0 0

0101101
*
Ed
 2e-07 1 1 0
1  88 0 25.0921768722573 25.1537296850661
2  187 6 11 25.0921768722573 25.1537296850661
2  188 61 30 25.0921768722573 25.1537296850661
0

0101000
+314 17 -312 17 *
Ed
 1.5e-07 1 1 0
1  89 0 209 225
2  189 6 11 209 225
2  190 58 30 209 225
0

0101000
+312 17 -325 17 *
Wi

0101100
-323 0 +321 0 -319 0 -317 0 -315 0 -313 0 -311 0 -310 0 *
Ve
1e-07
317.5 1308.1 449.75
0 0

0101101
*
Ed
 1e-07 1 1 0
1  90 0 0 6.28318530717959
2  191 6 18 0 6.28318530717959
2  192 36 0 0 6.28318530717959
0

0101100
+308 19 -308 19 *
Wi

0101100
-307 6 *
Ve
1e-07
317.5 1308.1 554.75
0 0

0101101
*
Ed
 1e-07 1 1 0
1  91 0 0 6.28318530717959
2  193 6 18 0 6.28318530717959
2  194 37 0 0 6.28318530717959
0

0101100
+305 19 -305 19 *
Wi

0101100
-304 6 *
Ve
1e-07
422.5 1308.1 449.75
0 0

0101101
*
Ed
 1e-07 1 1 0
1  92 0 0 6.28318530717959
2  195 6 18 0 6.28318530717959
2  196 38 0 0 6.28318530717959
0

0101100
+302 19 -302 19 *
Wi

0101100
-301 6 *
Ve
1e-07
370 1308.1 558
0 0

0101101
*
Ed
 1e-07 1 1 0
1  93 0 0 6.28318530717959
2  197 6 18 0 6.28318530717959
2  198 39 0 0 6.28318530717959
0

0101100
+299 19 -299 19 *
Wi

0101100
-298 6 *
Ve
1e-07
422.5 1308.1 554.75
0 0

0101101
*
Ed
 1e-07 1 1 0
1  94 0 0 6.28318530717959
2  199 6 18 0 6.28318530717959
2  200 40 0 0 6.28318530717959
0

0101100
+296 19 -296 19 *
Wi

0101100
-295 6 *
Ve
1e-07
520.5 1308.1 419.6
0 0

0101101
*
Ed
 1e-07 1 1 0
1  95 0 0 6.28318530717959
2  201 6 18 0 6.28318530717959
2  202 45 0 0 6.28318530717959
0

0101100
+293 19 -293 19 *
Wi

0101100
-292 6 *
Ve
1e-07
530 1308.1 442
0 0

0101101
*
Ed
 1e-07 1 1 0
1  96 0 0 6.28318530717959
2  203 6 18 0 6.28318530717959
2  204 46 0 0 6.28318530717959
0

0101100
+290 19 -290 19 *
Wi

0101100
-289 6 *
Ve
1e-07
539.5 1308.1 443.6
0 0

0101101
*
Ed
 1e-07 1 1 0
1  97 0 0 6.28318530717959
2  205 6 18 0 6.28318530717959
2  206 47 0 0 6.28318530717959
0

0101100
+287 19 -287 19 *
Wi

0101100
-286 6 *
Fa
0  1e-07 6 11

0111000
+390 0 +373 0 +364 0 +361 0 +344 0 +341 0 +338 0 +335 0 +332 0 +329 0 
+326 0 +309 0 +306 0 +303 0 +300 0 +297 0 +294 0 +291 0 +288 0 +285 0 
*
Ed
 1e-07 1 1 0
1  98 0 0 18
2  207 7 0 0 18
2  208 8 0 0 18
0

0101000
-393 9 +487 9 *
Wi

0101100
-506 0 -392 0 +283 0 +486 0 *
Fa
0  1e-07 7 0

0111000
+282 0 *
Ve
1.00000227e-07
582 1297.87817459305 64
0 0

0101101
*
Ed
 1e-07 1 1 0
1  99 0 1.57079632679487 3.14159265358979
2  209 8 8 1.57079632679487 3.14159265358979
2  210 14 12 1.57079632679487 3.14159265358979
0

0101000
+489 10 -280 10 *
Ed
 1e-07 1 1 0
1  100 0 3.14159265358979 4.71238898038472
2  211 8 8 3.14159265358979 4.71238898038472
2  212 14 12 3.14159265358979 4.71238898038472
0

0101000
+280 10 -494 10 *
Ve
1.00000227e-07
582 1297.87817459305 122
0 0

0101101
*
Ed
 1e-07 1 1 0
1  101 0 1.57079632679487 3.14159265358979
2  213 8 8 1.57079632679487 3.14159265358979
2  214 9 12 1.57079632679487 3.14159265358979
0

0101000
+496 10 -277 10 *
Ed
 1e-07 1 1 0
1  102 0 3.14159265358979 4.71238898038472
2  215 8 8 3.14159265358979 4.71238898038472
2  216 9 12 3.14159265358979 4.71238898038472
0

0101000
+277 10 -501 10 *
Wi

0101100
-485 8 -279 0 -278 0 -493 8 -276 0 -275 0 -500 8 -396 8 +391 8 +283 8 
*
Fa
0  1e-07 8 8

0111000
+274 0 *
Wi

0101100
+495 7 +498 7 -275 7 -276 7 *
Fa
0  1e-07 9 0

0111000
+272 0 *
Wi

0101100
+488 7 +490 7 -278 7 -279 7 *
Fa
0  1e-07 14 0

0111000
+270 0 *
Ed
 1e-07 1 1 0
1  103 0 5.05018986622349 23.0501898662235
2  217 17 0 5.05018986622349 23.0501898662235
2  218 18 0 5.05018986622349 23.0501898662235
0

0101000
+483 17 -372 17 *
Ed
 1e-07 1 1 0
1  104 0 5.05018986622349 23.0501898662235
2  219 17 0 5.05018986622349 23.0501898662235
2  220 19 0 5.05018986622349 23.0501898662235
0

0101000
+482 17 -371 17 *
Wi

0101100
-268 0 -370 0 +267 0 +481 0 *
Fa
0  1e-07 17 0

0111000
+266 0 *
Ed
 1e-07 1 1 0
1  105 0 5.05018986622349 23.0501898662235
2  221 18 0 5.05018986622349 23.0501898662235
2  222 20 0 5.05018986622349 23.0501898662235
0

0101000
+480 17 -369 17 *
Wi

0101100
-268 0 -368 0 +264 0 +479 0 *
Fa
0  1e-07 18 0

0111000
+263 0 *
Ed
 1e-07 1 1 0
1  106 0 5.05018986622349 23.0501898662235
2  223 19 0 5.05018986622349 23.0501898662235
2  224 20 0 5.05018986622349 23.0501898662235
0

0101000
+478 17 -367 17 *
Wi

0101100
-267 0 -366 0 +261 0 +477 0 *
Fa
0  1e-07 19 0

0111000
+260 0 *
Wi

0101100
-264 0 -365 0 +261 0 +476 0 *
Fa
0  1e-07 20 0

0111000
+258 0 *
Ed
 1e-07 1 1 0
1  107 0 1 19
3  225 226CN 21 0 1 19
0

0101000
+474 19 -363 19 *
Wi

0101100
-362 0 +256 0 +473 0 -256 0 *
Fa
0  1e-07 21 0

0111000
+255 0 *
Ed
 1e-07 1 1 0
1  108 0 1 19
2  227 22 0 1 19
2  228 23 0 1 19
0

0101000
+471 19 -360 19 *
Ed
 1e-07 1 1 0
1  109 0 1 19
2  229 22 0 1 19
2  230 24 0 1 19
0

0101000
+470 19 -359 19 *
Wi

0101100
-253 0 -358 0 +252 0 +469 0 *
Fa
0  1e-07 22 0

0111000
+251 0 *
Ed
 1e-07 1 1 0
1  110 0 1 19
2  231 23 0 1 19
2  232 25 0 1 19
0

0101000
+468 19 -357 19 *
Wi

0101100
-356 0 +253 0 +467 0 -249 0 *
Fa
0  1e-07 23 0

0111000
+248 0 *
Ed
 1e-07 1 1 0
1  111 0 1 19
2  233 24 0 1 19
2  234 26 0 1 19
0

0101000
+466 19 -355 19 *
Wi

0101100
-354 0 +246 0 +465 0 -252 0 *
Fa
0  1e-07 24 0

0111000
+245 0 *
Ed
 1e-07 1 1 0
1  112 0 1 19
2  235 25 0 1 19
2  236 27 0 1 19
0

0101000
+464 19 -353 19 *
Wi

0101100
+463 0 -249 0 -352 0 +243 0 *
Fa
0  1e-07 25 0

0111000
+242 0 *
Ed
 1e-07 1 1 0
1  113 0 1 19
2  237 26 0 1 19
2  238 28 0 1 19
0

0101000
+462 19 -351 19 *
Wi

0101100
+461 0 -246 0 -350 0 +240 0 *
Fa
0  1e-07 26 0

0111000
+239 0 *
Ed
 1e-07 1 1 0
1  114 0 1 19
2  239 27 0 1 19
2  240 29 0 1 19
0

0101000
+460 19 -349 19 *
Wi

0101100
-348 0 +243 0 +459 0 -237 0 *
Fa
0  1e-07 27 0

0111000
+236 0 *
Ed
 1e-07 1 1 0
1  115 0 1 19
2  241 28 0 1 19
2  242 29 0 1 19
0

0101000
+458 19 -347 19 *
Wi

0101100
-346 0 +234 0 +457 0 -240 0 *
Fa
0  1e-07 28 0

0111000
+233 0 *
Wi

0101100
-237 0 -345 0 +234 0 +456 0 *
Fa
0  1e-07 29 0

0111000
+231 0 *
Ed
 1e-07 1 1 0
1  116 0 1 19
3  243 244CN 30 0 1 19
0

0101000
+454 19 -343 19 *
Wi

0101100
-342 0 +229 0 +453 0 -229 0 *
Fa
0  1e-07 30 0

0111000
+228 0 *
Ed
 1e-07 1 1 0
1  117 0 1 19
3  245 246CN 31 0 1 19
0

0101000
+451 19 -340 19 *
Wi

0101100
-339 0 +226 0 +450 0 -226 0 *
Fa
0  1e-07 31 0

0111000
+225 0 *
Ed
 1e-07 1 1 0
1  118 0 1 19
3  247 248CN 32 0 1 19
0

0101000
+448 19 -337 19 *
Wi

0101100
-336 0 +223 0 +447 0 -223 0 *
Fa
0  1e-07 32 0

0111000
+222 0 *
Ed
 1e-07 1 1 0
1  119 0 1 19
3  249 250CN 33 0 1 19
0

0101000
+445 19 -334 19 *
Wi

0101100
-333 0 +220 0 +444 0 -220 0 *
Fa
0  1e-07 33 0

0111000
+219 0 *
Ed
 1e-07 1 1 0
1  120 0 1 19
3  251 252CN 34 0 1 19
0

0101000
+442 19 -331 19 *
Wi

0101100
-330 0 +217 0 +441 0 -217 0 *
Fa
0  1e-07 34 0

0111000
+216 0 *
Ed
 1e-07 1 1 0
1  121 0 1 19
3  253 254CN 35 0 1 19
0

0101000
+439 19 -328 19 *
Wi

0101100
-327 0 +214 0 +438 0 -214 0 *
Fa
0  1e-07 35 0

0111000
+213 0 *
Ed
 1e-07 1 1 0
1  122 0 1 19
3  255 256CN 36 0 1 19
0

0101000
+436 19 -308 19 *
Wi

0101100
-307 0 +211 0 +435 0 -211 0 *
Fa
0  1e-07 36 0

0111000
+210 0 *
Ed
 1e-07 1 1 0
1  123 0 1 19
3  257 258CN 37 0 1 19
0

0101000
+433 19 -305 19 *
Wi

0101100
-304 0 +208 0 +432 0 -208 0 *
Fa
0  1e-07 37 0

0111000
+207 0 *
Ed
 1e-07 1 1 0
1  124 0 1 19
3  259 260CN 38 0 1 19
0

0101000
+430 19 -302 19 *
Wi

0101100
-301 0 +205 0 +429 0 -205 0 *
Fa
0  1e-07 38 0

0111000
+204 0 *
Ed
 1e-07 1 1 0
1  125 0 1 19
3  261 262CN 39 0 1 19
0

0101000
+427 19 -299 19 *
Wi

0101100
-298 0 +202 0 +426 0 -202 0 *
Fa
0  1e-07 39 0

0111000
+201 0 *
Ed
 1e-07 1 1 0
1  126 0 1 19
3  263 264CN 40 0 1 19
0

0101000
+424 19 -296 19 *
Wi

0101100
-295 0 +199 0 +423 0 -199 0 *
Fa
0  1e-07 40 0

0111000
+198 0 *
Ve
1e-07
460 1298.1 387
0 0

0101101
*
Ed
 1e-07 1 1 0
1  127 0 16 24
2  265 41 0 16 24
2  266 42 0 16 24
0

0101000
+421 31 -196 31 *
Ve
1e-07
440 1298.1 387
0 0

0101101
*
Ed
 1e-07 1 1 0
1  128 0 0 20
2  267 41 0 0 20
2  268 62 0 0 20
0

0101000
-196 31 +194 31 *
Ed
 1e-07 1 1 0
1  129 0 16 24
2  269 41 0 16 24
2  270 44 0 16 24
0

0101000
+420 31 -194 31 *
Wi

0101100
-195 24 +193 24 +192 24 +419 0 *
Fa
0  1e-07 41 24

0111000
+191 0 *
Ve
1e-07
460 1298.1 385
0 0

0101101
*
Ed
 1e-07 1 1 0
1  130 0 0 2
2  271 42 0 0 2
2  272 62 0 0 2
0

0101000
-189 31 +196 31 *
Ed
 1e-07 1 1 0
1  131 0 16 24
2  273 42 0 16 24
2  274 43 0 16 24
0

0101000
+418 31 -189 31 *
Wi

0101100
-195 24 -188 24 +187 24 +417 0 *
Fa
0  1e-07 42 24

0111000
+186 0 *
Ve
1e-07
440 1298.1 385
0 0

0101101
*
Ed
 1e-07 1 1 0
1  132 0 0 20
2  275 43 0 0 20
2  276 62 0 0 20
0

0101000
-189 31 +184 31 *
Ed
 1e-07 1 1 0
1  133 0 16 24
2  277 43 0 16 24
2  278 44 0 16 24
0

0101000
+416 31 -184 31 *
Wi

0101100
-187 24 +183 24 +182 24 +415 0 *
Fa
0  1e-07 43 24

0111000
+181 0 *
Ed
 1e-07 1 1 0
1  134 0 0 2
2  279 44 0 0 2
2  280 62 0 0 2
0

0101000
-184 31 +194 31 *
Wi

0101100
-192 24 -179 24 +182 24 +414 0 *
Fa
0  1e-07 44 24

0111000
+178 0 *
Ed
 1e-07 1 1 0
1  135 0 1 19
3  281 282CN 45 0 1 19
0

0101000
+412 19 -293 19 *
Wi

0101100
-292 0 +176 0 +411 0 -176 0 *
Fa
0  1e-07 45 0

0111000
+175 0 *
Ed
 1e-07 1 1 0
1  136 0 1 19
3  283 284CN 46 0 1 19
0

0101000
+409 19 -290 19 *
Wi

0101100
-289 0 +173 0 +408 0 -173 0 *
Fa
0  1e-07 46 0

0111000
+172 0 *
Ed
 1e-07 1 1 0
1  137 0 1 19
3  285 286CN 47 0 1 19
0

0101000
+406 19 -287 19 *
Wi

0101100
-286 0 +170 0 +405 0 -170 0 *
Fa
0  1e-07 47 0

0111000
+169 0 *
Ve
1e-07
228 1296.1 50
0 0

0101101
*
Ve
1e-07
228 1298.1 50
0 0

0101101
*
Ed
 1e-07 1 1 0
1  138 0 0 2
2  287 48 0 0 2
2  288 63 0 0 2
0

0101000
+167 32 -166 32 *
Ve
1e-07
228 1298.1 52
0 0

0101101
*
Ed
 1e-07 1 1 0
1  139 0 2 4
2  289 48 0 2 4
2  290 64 0 2 4
0

0101000
+166 32 -164 32 *
Ed
 1e-07 1 1 0
1  140 0 0 10
2  291 48 0 0 10
2  292 49 0 0 10
0

0101000
+164 32 -389 32 *
Ve
1e-07
228 1298.1 48
0 0

0101101
*
Ed
 1e-07 1 1 0
1  141 0 0 10
2  293 48 0 0 10
2  294 50 0 0 10
0

0101000
+161 32 -388 32 *
Ve
1e-07
228 1298.1 24
0 0

0101101
*
Ed
 1e-07 1 1 0
1  142 0 0 24
2  295 48 0 0 24
2  296 65 0 0 24
0

0101000
+159 32 -161 32 *
Ve
1e-07
228 1296.1 24
0 0

0101101
*
Ed
 1e-07 1 1 0
1  143 0 0 2
2  297 48 0 0 2
2  298 66 0 0 2
0

0101000
-159 32 +157 32 *
Ed
 1e-07 1 1 0
1  144 0 0 26
2  299 48 0 0 26
2  300 67 0 0 26
0

0101000
-167 32 +157 32 *
Wi

0101100
-165 27 -163 27 -162 27 -387 0 +160 27 +158 27 +156 27 -155 27 *
Fa
0  1e-07 48 27

0111000
+154 0 *
Ve
1e-07
180 1298.1 52
0 0

0101101
*
Ed
 1e-07 1 1 0
1  145 0 0 10
2  301 49 0 0 10
2  302 52 0 0 10
0

0101000
+152 32 -380 32 *
Ve
1.5e-07
196 1308.06887112585 52
0 0

0101101
*
Ed
 1.5e-07 1 1 0
1  146 0 2.96887112585068 3
2  303 49 0 2.96887112585068 3
2  304 54 0 2.96887112585068 3
0

0101000
+150 32 -376 32 *
Ve
1.5e-07
212 1308.06887112585 52
0 0

0101101
*
Ed
 1e-07 1 1 0
1  147 0 0 16
2  305 49 0 0 16
2  306 53 0 0 16
0

0101000
+150 32 -148 32 *
Ed
 1.5e-07 1 1 0
1  148 0 2.96887112585068 3
2  307 49 0 2.96887112585068 3
2  308 51 0 2.96887112585068 3
0

0101000
+148 32 -386 32 *
Ed
 1e-07 1 1 0
1  149 0 0 48
2  309 49 0 0 48
2  310 64 0 0 48
0

0101000
-164 32 +152 32 *
Wi

0101100
-151 27 -375 0 +149 27 -147 27 -146 27 -385 0 +162 27 +145 27 *
Fa
0  1e-07 49 27

0111000
+144 0 *
Ve
1e-07
180 1298.1 48
0 0

0101101
*
Ed
 1e-07 1 1 0
1  150 0 0 10
2  311 50 0 0 10
2  312 52 0 0 10
0

0101000
+142 32 -384 32 *
Ed
 1e-07 1 1 0
1  151 0 0 48
2  313 50 0 0 48
2  314 65 0 0 48
0

0101000
+142 32 -161 32 *
Wi

0101100
-141 27 -383 0 +160 27 +140 27 *
Fa
0  1e-07 50 27

0111000
+139 0 *
Ed
 1.5e-07 1 1 0
1  152 0 2.03135031847621 2.04667857645531
2  315 51 0 2.03135031847621 2.04667857645531
2  316 53 0 2.03135031847621 2.04667857645531
0

0101000
+148 32 -382 32 *
Wi

0101100
-137 27 -381 0 +146 27 *
Fa
0  1.5e-07 51 27

0111000
+136 0 *
Ve
1e-07
180 1296.1 50
0 0

0101101
*
Ve
1e-07
180 1296.1 24
0 0

0101101
*
Ed
 1e-07 1 1 0
1  153 0 0 26
2  317 52 0 0 26
2  318 67 0 0 26
0

0101000
-134 32 +133 32 *
Ve
1e-07
180 1298.1 24
0 0

0101101
*
Ed
 1e-07 1 1 0
1  154 0 0 2
2  319 52 0 0 2
2  320 66 0 0 2
0

0101000
-131 32 +133 32 *
Ed
 1e-07 1 1 0
1  155 0 0 24
2  321 52 0 0 24
2  322 65 0 0 24
0

0101000
+131 32 -142 32 *
Ve
1e-07
180 1298.1 50
0 0

0101101
*
Ed
 1e-07 1 1 0
1  156 0 2 4
2  323 52 0 2 4
2  324 64 0 2 4
0

0101000
+128 32 -152 32 *
Ed
 1e-07 1 1 0
1  157 0 0 2
2  325 52 0 0 2
2  326 63 0 0 2
0

0101000
+134 32 -128 32 *
Wi

0101100
+132 27 -130 27 -129 27 -141 27 -379 0 +151 27 +127 27 +126 27 *
Fa
0  1e-07 52 27

0111000
+125 0 *
Ed
 1.5e-07 1 1 0
1  158 0 2.03135031847621 2.04667857645531
2  327 53 0 2.03135031847621 2.04667857645531
2  328 54 0 2.03135031847621 2.04667857645531
0

0101000
+150 32 -378 32 *
Wi

0101100
-137 27 +377 0 +123 27 -147 27 *
Fa
0  1e-07 53 27

0111000
+122 0 *
Wi

0101100
-149 27 -374 0 +123 27 *
Fa
0  1.5e-07 54 27

0111000
+120 0 *
Ve
1e-07
420 1296.1 50
0 0

0101101
*
Ve
1e-07
420 1298.1 50
0 0

0101101
*
Ed
 1e-07 1 1 0
1  159 0 0 2
2  329 55 0 0 2
2  330 68 0 0 2
0

0101000
+118 33 -117 33 *
Ve
1e-07
420 1298.1 52
0 0

0101101
*
Ed
 1e-07 1 1 0
1  160 0 2 4
2  331 55 0 2 4
2  332 69 0 2 4
0

0101000
+117 33 -115 33 *
Ed
 1e-07 1 1 0
1  161 0 0 10
2  333 55 0 0 10
2  334 58 0 0 10
0

0101000
+115 33 -325 33 *
Ve
1e-07
420 1298.1 48
0 0

0101101
*
Ed
 1e-07 1 1 0
1  162 0 0 10
2  335 55 0 0 10
2  336 56 0 0 10
0

0101000
+112 33 -324 33 *
Ve
1e-07
420 1298.1 24
0 0

0101101
*
Ed
 1e-07 1 1 0
1  163 0 0 24
2  337 55 0 0 24
2  338 70 0 0 24
0

0101000
+110 33 -112 33 *
Ve
1e-07
420 1296.1 24
0 0

0101101
*
Ed
 1e-07 1 1 0
1  164 0 0 2
2  339 55 0 0 2
2  340 71 0 0 2
0

0101000
-110 33 +108 33 *
Ed
 1e-07 1 1 0
1  165 0 0 26
2  341 55 0 0 26
2  342 72 0 0 26
0

0101000
-118 33 +108 33 *
Wi

0101100
-116 30 -114 30 -113 30 -323 0 +111 30 +109 30 +107 30 -106 30 *
Fa
0  1e-07 55 30

0111000
+105 0 *
Ve
1e-07
372 1298.1 48
0 0

0101101
*
Ed
 1e-07 1 1 0
1  166 0 0 10
2  343 56 0 0 10
2  344 57 0 0 10
0

0101000
+103 33 -322 33 *
Ed
 1e-07 1 1 0
1  167 0 0 48
2  345 56 0 0 48
2  346 70 0 0 48
0

0101000
+103 33 -112 33 *
Wi

0101100
-102 30 -321 0 +111 30 +101 30 *
Fa
0  1e-07 56 30

0111000
+100 0 *
Ve
1e-07
372 1296.1 50
0 0

0101101
*
Ve
1e-07
372 1296.1 24
0 0

0101101
*
Ed
 1e-07 1 1 0
1  168 0 0 26
2  347 57 0 0 26
2  348 72 0 0 26
0

0101000
-98 33 +97 33 *
Ve
1e-07
372 1298.1 24
0 0

0101101
*
Ed
 1e-07 1 1 0
1  169 0 0 2
2  349 57 0 0 2
2  350 71 0 0 2
0

0101000
-95 33 +97 33 *
Ed
 1e-07 1 1 0
1  170 0 0 24
2  351 57 0 0 24
2  352 70 0 0 24
0

0101000
+95 33 -103 33 *
Ve
1e-07
372 1298.1 52
0 0

0101101
*
Ed
 1e-07 1 1 0
1  171 0 0 10
2  353 57 0 0 10
2  354 58 0 0 10
0

0101000
+92 33 -320 33 *
Ve
1e-07
372 1298.1 50
0 0

0101101
*
Ed
 1e-07 1 1 0
1  172 0 2 4
2  355 57 0 2 4
2  356 69 0 2 4
0

0101000
+90 33 -92 33 *
Ed
 1e-07 1 1 0
1  173 0 0 2
2  357 57 0 0 2
2  358 68 0 0 2
0

0101000
+98 33 -90 33 *
Wi

0101100
+96 30 -94 30 -93 30 -102 30 -319 0 +91 30 +89 30 +88 30 *
Fa
0  1e-07 57 30

0111000
+87 0 *
Ve
1.5e-07
388 1308.06887112585 52
0 0

0101101
*
Ed
 1.5e-07 1 1 0
1  174 0 2.96887112585068 3
2  359 58 0 2.96887112585068 3
2  360 59 0 2.96887112585068 3
0

0101000
+85 33 -318 33 *
Ve
1.5e-07
404 1308.06887112585 52
0 0

0101101
*
Ed
 1e-07 1 1 0
1  175 0 0 16
2  361 58 0 0 16
2  362 60 0 0 16
0

0101000
+85 33 -83 33 *
Ed
 1.5e-07 1 1 0
1  176 0 2.96887112585068 3
2  363 58 0 2.96887112585068 3
2  364 61 0 2.96887112585068 3
0

0101000
+83 33 -312 33 *
Ed
 1e-07 1 1 0
1  177 0 0 48
2  365 58 0 0 48
2  366 69 0 0 48
0

0101000
-115 33 +92 33 *
Wi

0101100
-91 30 -317 0 +84 30 -82 30 -81 30 -310 0 +113 30 +80 30 *
Fa
0  1e-07 58 30

0111000
+79 0 *
Ed
 1.5e-07 1 1 0
1  178 0 2.03135031847621 2.04667857645531
2  367 59 0 2.03135031847621 2.04667857645531
2  368 60 0 2.03135031847621 2.04667857645531
0

0101000
+85 33 -316 33 *
Wi

0101100
-84 30 -315 0 +77 30 *
Fa
0  1.5e-07 59 30

0111000
+76 0 *
Ed
 1.5e-07 1 1 0
1  179 0 2.03135031847621 2.04667857645531
2  369 60 0 2.03135031847621 2.04667857645531
2  370 61 0 2.03135031847621 2.04667857645531
0

0101000
+83 33 -314 33 *
Wi

0101100
-74 30 +313 0 +77 30 -82 30 *
Fa
0  1e-07 60 30

0111000
+73 0 *
Wi

0101100
-74 30 -311 0 +81 30 *
Fa
0  1.5e-07 61 30

0111000
+71 0 *
Wi

0101100
-179 0 -183 0 +188 0 +193 0 *
Fa
0  1e-07 62 0

0111000
+69 0 *
Ed
 1e-07 1 1 0
1  180 0 0 48
2  371 63 0 0 48
2  372 64 0 0 48
0

0101000
+128 32 -166 32 *
Ed
 1e-07 1 1 0
1  181 0 0 48
2  373 63 0 0 48
2  374 67 0 0 48
0

0101000
-167 32 +134 32 *
Wi

0101100
-126 0 -67 0 +165 0 +66 0 *
Fa
0  1e-07 63 0

0111000
+65 0 *
Wi

0101100
-67 0 -163 0 +145 0 +127 0 *
Fa
0  1e-07 64 0

0111000
+63 0 *
Ed
 1e-07 1 1 0
1  182 0 0 48
2  375 65 0 0 48
2  376 66 0 0 48
0

0101000
-159 32 +131 32 *
Wi

0101100
-158 0 -61 0 +140 0 +129 0 *
Ve
1e-07
190 1298.1 38.25
0 0

0101101
*
Ed
 1e-07 1 1 0
1  183 0 0 6.28318530717959
2  377 65 0 0 6.28318530717959
2  378 73 0 0 6.28318530717959
0

0101100
+59 32 -59 32 *
Wi

0101100
-58 0 *
Ve
1e-07
218 1298.1 38.25
0 0

0101101
*
Ed
 1e-07 1 1 0
1  184 0 0 6.28318530717959
2  379 65 0 0 6.28318530717959
2  380 74 0 0 6.28318530717959
0

0101100
+56 32 -56 32 *
Wi

0101100
-55 0 *
Fa
0  1e-07 65 0

0111000
+60 0 +57 0 +54 0 *
Ed
 1e-07 1 1 0
1  185 0 0 48
2  381 66 0 0 48
2  382 67 0 0 48
0

0101000
-157 32 +133 32 *
Wi

0101100
-130 0 -61 0 +156 0 +52 0 *
Fa
0  1e-07 66 0

0111000
+51 0 *
Wi

0101100
-52 0 -155 0 +132 0 +66 0 *
Ve
1e-07
190 1296.1 38.25
0 0

0101101
*
Ed
 1e-07 1 1 0
1  186 0 0 6.28318530717959
2  383 67 0 0 6.28318530717959
2  384 73 0 0 6.28318530717959
0

0101100
+48 32 -48 32 *
Wi

0101100
-47 0 *
Ve
1e-07
218 1296.1 38.25
0 0

0101101
*
Ed
 1e-07 1 1 0
1  187 0 0 6.28318530717959
2  385 67 0 0 6.28318530717959
2  386 74 0 0 6.28318530717959
0

0101100
+45 32 -45 32 *
Wi

0101100
-44 0 *
Fa
0  1e-07 67 0

0111000
+49 0 +46 0 +43 0 *
Ed
 1e-07 1 1 0
1  188 0 0 48
2  387 68 0 0 48
2  388 69 0 0 48
0

0101000
+90 33 -117 33 *
Ed
 1e-07 1 1 0
1  189 0 0 48
2  389 68 0 0 48
2  390 72 0 0 48
0

0101000
-118 33 +98 33 *
Wi

0101100
-88 0 -41 0 +116 0 +40 0 *
Fa
0  1e-07 68 0

0111000
+39 0 *
Wi

0101100
-41 0 -114 0 +80 0 +89 0 *
Fa
0  1e-07 69 0

0111000
+37 0 *
Ed
 1e-07 1 1 0
1  190 0 0 48
2  391 70 0 0 48
2  392 71 0 0 48
0

0101000
-110 33 +95 33 *
Wi

0101100
-109 0 -35 0 +101 0 +93 0 *
Ve
1e-07
382 1298.1 38.25
0 0

0101101
*
Ed
 1e-07 1 1 0
1  191 0 0 6.28318530717959
2  393 70 0 0 6.28318530717959
2  394 75 0 0 6.28318530717959
0

0101100
+33 33 -33 33 *
Wi

0101100
-32 0 *
Ve
1e-07
410 1298.1 38.25
0 0

0101101
*
Ed
 1e-07 1 1 0
1  192 0 0 6.28318530717959
2  395 70 0 0 6.28318530717959
2  396 76 0 0 6.28318530717959
0

0101100
+30 33 -30 33 *
Wi

0101100
-29 0 *
Fa
0  1e-07 70 0

0111000
+34 0 +31 0 +28 0 *
Ed
 1e-07 1 1 0
1  193 0 0 48
2  397 71 0 0 48
2  398 72 0 0 48
0

0101000
-108 33 +97 33 *
Wi

0101100
-94 0 -35 0 +107 0 +26 0 *
Fa
0  1e-07 71 0

0111000
+25 0 *
Wi

0101100
-26 0 -106 0 +96 0 +40 0 *
Ve
1e-07
382 1296.1 38.25
0 0

0101101
*
Ed
 1e-07 1 1 0
1  194 0 0 6.28318530717959
2  399 72 0 0 6.28318530717959
2  400 75 0 0 6.28318530717959
0

0101100
+22 33 -22 33 *
Wi

0101100
-21 0 *
Ve
1e-07
410 1296.1 38.25
0 0

0101101
*
Ed
 1e-07 1 1 0
1  195 0 0 6.28318530717959
2  401 72 0 0 6.28318530717959
2  402 76 0 0 6.28318530717959
0

0101100
+19 33 -19 33 *
Wi

0101100
-18 0 *
Fa
0  1e-07 72 0

0111000
+23 0 +20 0 +17 0 *
Ed
 1e-07 1 1 0
1  196 0 1 3
3  403 404CN 73 0 1 3
0

0101000
+48 32 -59 32 *
Wi

0101100
-58 0 +15 0 +47 0 -15 0 *
Fa
0  1e-07 73 0

0111000
+14 0 *
Ed
 1e-07 1 1 0
1  197 0 1 3
3  405 406CN 74 0 1 3
0

0101000
+45 32 -56 32 *
Wi

0101100
-55 0 +12 0 +44 0 -12 0 *
Fa
0  1e-07 74 0

0111000
+11 0 *
Ed
 1e-07 1 1 0
1  198 0 1 3
3  407 408CN 75 0 1 3
0

0101000
+22 33 -33 33 *
Wi

0101100
-32 0 +9 0 +21 0 -9 0 *
Fa
0  1e-07 75 0

0111000
+8 0 *
Ed
 1e-07 1 1 0
1  199 0 1 3
3  409 410CN 76 0 1 3
0

0101000
+19 33 -30 33 *
Wi

0101100
-29 0 +6 0 +18 0 -6 0 *
Fa
0  1e-07 76 0

0111000
+5 0 *
Sh

0101100
-504 7 -403 0 -401 7 -399 7 +394 11 +284 0 -281 11 +273 7 -271 0 -269 0 
-265 0 +262 0 -259 0 +257 0 -254 6 -250 6 -247 6 -244 6 +241 6 -238 6 
-235 6 -232 6 +230 6 -227 6 -224 6 -221 6 -218 6 -215 6 -212 6 -209 6 
-206 6 -203 6 -200 6 -197 6 +190 0 -185 0 -180 0 +177 0 -174 6 -171 6 
-168 6 -153 0 -143 0 +138 0 -135 0 -124 0 +121 0 -119 0 -104 0 +99 0 
-86 0 -78 0 -75 0 +72 0 -70 0 -68 24 -64 27 +62 27 -53 27 +50 27 
+42 27 -38 30 +36 30 -27 30 +24 30 +16 30 +13 27 +10 27 +7 30 +4 30 
*
So

0100000
+3 0 *
Co

1100000
+2 0 *

+1 4 