DBRep_DrawableShape

CASCADE Topology V1, (c) Matra-Datavision
Locations 11
1
              1               0               0               0 
              0               1               0               0 
              0               0               1              -1 
1
              1               0               0               0 
              0               1               0               0 
              0               0               1               0 
1
              1               0               0               0 
              0               1               0               0 
              0               0               1               0 
1
              1               0               0               0 
              0               1               0               0 
              0               0               1               0 
1
              1               0               0               0 
              0               1               0               0 
              0               0               1               0 
1
              1               0               0               0 
              0 1.11022302462516e-16              -1               0 
              0               1 1.11022302462516e-16               0 
1
              1               0               0 -14.1109127034721 
              0               1               0           596.9 
              0               0               1         -1290.1 
1
              1               0               0               0 
              0               1               0               0 
              0               0               1              -0 
1
              1               0               0               0 
              0               1               0               0 
              0               0               1               1 
2  2 1 3 1 4 1 5 1 6 1 7 1 8 1 9 1 0
2  9 -1 8 -1 7 -1 6 -1 5 -1 4 -1 3 -1 2 -1 0
Curve2ds 4
1 -282.00000000000006 -298.44999999999993 1 0 
1 281.99999999999994 298.45000000000005 0 -1 
1 -282.00000000000006 298.45000000000005 1 0 
1 -282.00000000000006 298.45000000000005 0 -1 
Curves 4
1 18 1290.0999999999999 596.89999999999998 1 0 -0 
1 567.88908729652792 596.89999999999998 1 0 -1 1.1102230246251565e-16 
1 18 1290.0999999999999 0 1 0 -0 
1 3.8890872965278938 596.89999999999998 1 0 -1 1.1102230246251565e-16 
Polygon3D 0
PolygonOnTriangulations 0
Surfaces 1
1 285.88908729652798 298.44999999999993 1 0 0 1 1 0 -0 -0 1 0 
Triangulations 0

TShapes 9
Ve
1.00000000222045e-07
3.88908729652789 0 1
0 0

0101101
*
Ve
1.00000000222045e-07
567.889087296528 0 1
0 0

0101101
*
Ed
 1.00000000222045e-07 1 1 0
1  1 0 0 564
2  1 1 11 0 564
0

0101000
+9 11 -8 11 *
Ve
1.00000000222045e-07
567.889087296528 596.9 1
0 0

0101101
*
Ed
 1.00000000222045e-07 1 1 0
1  2 0 0 596.9
2  2 1 0 0 596.9
0

0101000
+6 0 -8 0 *
Ve
1.00000000222045e-07
3.88908729652789 596.9 1
0 0

0101101
*
Ed
 1.00000000222045e-07 1 1 0
1  3 0 0 564
2  3 1 11 0 564
0

0101000
+4 11 -6 11 *
Ed
 1.00000000222045e-07 1 1 0
1  4 0 0 596.9
2  4 1 0 0 596.9
0

0101000
+4 0 -9 0 *
Wi

0101100
+7 10 -5 0 -3 10 +2 0 *

+1 1 