DBRep_DrawableShape

CASCADE Topology V1, (c) Matra-Datavision
Locations 12
1
              1               0               0               0 
              0               1               0               0 
              0               0               1              -1 
1
              1               0               0               0 
              0               1               0               0 
              0               0               1               0 
1
              1               0               0               0 
              0               1               0               0 
              0               0               1               0 
1
              1               0               0               0 
              0 1.11022302462516e-16              -1               0 
              0               1 1.11022302462516e-16               0 
1
              1               0               0 -14.1109127034721 
              0               1               0           596.9 
              0               0               1         -1290.1 
2  2 1 3 1 4 1 5 1 0
1
              1               0               0               0 
              0               1               0               0 
              0               0               1               0 
1
              1               0               0               0 
              0               1               0               0 
              0               0               1               0 
2  7 1 8 1 0
2  5 -1 4 -1 3 -1 2 -1 0
1
              1               0               0               0 
              0               1               0               0 
              0               0               1              18 
2  1 1 11 1 0
Curve2ds 6
2 430 512 1 0 -0 1 12
1 0 1 1 0 
2 430 512 1 0 -0 1 12
1 0 19 1 0 
1 6.2831853071795862 -0 0 1 
1 0 -0 0 1 
Curves 3
2 530 1290.0999999999999 430 0 1 0 0 -0 1 1 0 -0 12
2 530 1308.0999999999999 430 0 1 0 0 -0 1 1 0 -0 12
1 530 1289.0999999999999 442 0 1 0 
Polygon3D 0
PolygonOnTriangulations 0
Surfaces 4
1 285.88908729652798 298.44999999999993 1 0 0 1 1 0 -0 -0 1 0 
1 18 1290.0999999999999 0 -0 1 0 0 0 1 1 0 -0 
2 530 1289.0999999999999 430 0 1 0 0 -0 1 1 0 -0 12
1 18 1308.0999999999999 0 -0 1 0 0 0 1 1 0 -0 
Triangulations 0

TShapes 13
Ve
1.00000001554312e-07
515.889087296528 154.9 0
0 0

0101101
*
Ed
 1.00000001554312e-07 1 1 0
1  1 0 0 6.28318530717959
2  1 2 9 0 6.28318530717959
2  2 3 0 0 6.28318530717959
0

0101000
+13 10 -13 10 *
Wi

0101100
+12 6 *
Fa
0  1.00000000222045e-07 1 1

0101000
+11 0 *
Ve
1.00000000222045e-07
515.889087296528 154.9 18
0 0

0101101
*
Ed
 1.00000000222045e-07 1 1 0
1  2 0 0 6.28318530717959
2  3 4 9 0 6.28318530717959
2  4 3 0 0 6.28318530717959
0

0101000
+9 10 -9 10 *
Ed
 1e-07 1 1 0
1  3 0 1 19
3  5 6CN 3 0 1 19
0

0101000
+13 10 -9 10 *
Wi

0101100
-8 6 +7 6 +12 6 -7 6 *
Fa
0  1e-07 3 6

0101000
+6 0 *
Wi

0101100
+8 6 *
Fa
0  1.00000000222045e-07 1 12

0101000
+4 0 *
Sh

0101100
-10 0 +5 0 +3 0 *
So

0100000
+2 0 *

+1 0 