DBRep_DrawableShape

CASCADE Topology V1, (c) Matra-Datavision
Locations 0
Curve2ds 0
Curves 8
1 86.88908729652789 570.39999999999998 0 0 1 0 
2 88.88908729652789 541.89999999999998 0 -0 -0 -1 0 -1 0 -1 0 0 2
1 45.38908729652789 543.89999999999998 0 1 0 0 
2 482.8890872965278 541.89999999999998 0 -0 0 -1 -1 -0 0 0 1 0 2
1 484.88908729652792 570.39999999999998 0 0 1 0 
2 482.88908729652792 214.90000000000003 0 -0 0 -1 0 1 0 1 0 -0 2
1 45.38908729652789 212.90000000000003 0 1 0 0 
2 88.88908729652789 214.90000000000003 0 0 0 -1 1 0 0 0 -1 0 2
Polygon3D 0
PolygonOnTriangulations 0
Surfaces 1
1 285.8890872965278 378.40000000000003 0 0 0 1 1 0 -0 -0 1 0 
Triangulations 0

TShapes 19
Ve
1.50000039468429e-07
86.8890872965279 214.9 0
0 0

0101101
*
Ve
1.50000036443071e-07
86.8890872965279 541.9 0
0 0

0101101
*
Ed
 1.50000036443071e-07 1 1 0
1  1 0 -355.5 -28.5
0

0101000
+19 0 -18 0 *
Ve
1.5e-07
88.8890872965279 543.9 0
0 0

0101101
*
Ed
 1.00000000222045e-07 1 1 0
1  2 0 1.5707963267949 3.14159265358979
0

0101000
+18 0 -16 0 *
Ve
1.5e-07
482.889087296528 543.9 0
0 0

0101101
*
Ed
 1.5e-07 1 1 0
1  3 0 43.5 437.5
0

0101000
+16 0 -14 0 *
Ve
1.50000113730861e-07
484.889087296528 541.9 0
0 0

0101101
*
Ed
 1.00000000222045e-07 1 1 0
1  4 0 1.57079632679494 3.14159265358978
0

0101000
+14 0 -12 0 *
Ve
1.50000039468429e-07
484.889087296528 214.9 0
0 0

0101101
*
Ed
 1.50000036443071e-07 1 1 0
1  5 0 -355.5 -28.5
0

0101000
+10 0 -12 0 *
Ve
1.5e-07
482.889087296528 212.9 0
0 0

0101101
*
Ed
 1.00000000222045e-07 1 1 0
1  6 0 1.5707963267949 3.14159265358986
0

0101000
+10 0 -8 0 *
Ve
1.5e-07
88.8890872965279 212.9 0
0 0

0101101
*
Ed
 1.5e-07 1 1 0
1  7 0 43.5 437.5
0

0101000
+6 0 -8 0 *
Ed
 1.00000000222045e-07 1 1 0
1  8 0 1.5707963267949 3.14159265358979
0

0101000
+6 0 -19 0 *
Wi

0101100
+17 0 +15 0 +13 0 +11 0 -9 0 +7 0 -5 0 +4 0 *
Fa
0  1e-07 1 0

0101000
-3 0 *
Sh

1101000
+2 0 *

+1 0 