DBRep_DrawableShape

CASCADE Topology V1, (c) Matra-Datavision
Locations 9
1
              1               0               0               0 
              0               1               0               0 
              0               0               1               0 
1
              1               0               0               0 
              0               1               0               0 
              0               0               1               0 
1
              1               0               0               0 
              0 1.11022302462516e-16              -1               0 
              0               1 1.11022302462516e-16               0 
1
              1               0               0 -14.1109127034721 
              0               1               0           596.9 
              0               0               1         -1290.1 
1
              1               0               0               0 
              0               1               0               0 
              0               0               1              -0 
1
              1               0               0               0 
              0               1               0               0 
              0               0               1               1 
1
              1               0               0               0 
              0               1               0               0 
              0               0               1              -1 
2  1 1 2 1 3 1 4 1 5 1 6 1 7 1 0
2  7 -1 6 -1 5 -1 4 -1 3 -1 2 -1 1 -1 0
Curve2ds 0
Curves 1
2 282.5 1290.0999999999999 552.5 -0 1 0 0 0 1 1 0 -0 2.25
Polygon3D 0
PolygonOnTriangulations 0
Surfaces 1
1 268.38908729652792 44.399999999999977 0 0 0 1 1 0 -0 -0 1 0 
Triangulations 0

TShapes 5
Ve
1.00000014432899e-07
268.389087296528 42.15 0
0 0

0101101
*
Ed
 1.00000014432899e-07 1 1 0
1  1 0 0 6.28318530717959
0

0101000
+5 9 -5 9 *
Wi

0101100
-4 8 *
Fa
0  1e-07 1 0

0101000
-3 0 *
Sh

1101000
+2 0 *

+1 0 