DBRep_DrawableShape

CASCADE Topology V1, (c) Matra-Datavision
Locations 14
1
              1               0               0               0 
              0               1               0               0 
              0               0               1              -1 
2  1 -1 0
1
              1               0               0               0 
              0               1               0               0 
              0               0               1               0 
1
              1               0               0               0 
              0               1               0               0 
              0               0               1               0 
1
              1               0               0               0 
              0               1               0               0 
              0               0               1               0 
1
              1               0               0               0 
              0 1.11022302462516e-16              -1               0 
              0               1 1.11022302462516e-16               0 
1
              1               0               0 -14.1109127034721 
              0               1               0           596.9 
              0               0               1         -1290.1 
2  3 1 4 1 5 1 6 1 7 1 0
1
              1               0               0               0 
              0               1               0               0 
              0               0               1               0 
2  7 -1 6 -1 5 -1 4 -1 3 -1 0
1
              1               0               0               0 
              0               1               0               0 
              0               0               1              -0 
2  11 -1 7 -1 6 -1 5 -1 4 -1 3 -1 0
1
              1               0               0               0 
              0               1               0               0 
              0               0               1               1 
2  13 -1 11 -1 7 -1 6 -1 5 -1 4 -1 3 -1 0
Curve2ds 7
1 -282.00000000000006 298.45000000000005 0 -1 
3 64 0 0 1 -1 0 7.7781745930520225 5.5
7 0 0  8 16 3  1.3372625992285931 36.728636328853895  1.5628038560237409 35.521832525688765  1.7883451128138859 34.241032900899881  2.0138863696274711 32.979791168225347  2.2394276263858046 31.839642587117851  2.4649688832187167 30.915080181555822  2.690510139993421 30.275592125537514  2.9160513967946455 29.955844122715803  3.3671339103849407 29.955844122715803  3.5926751671818238 30.275592125548428  3.8182164239642589 30.915080181541271  4.0437576807635196 31.839642587176058  4.2692989375518664 32.979791168225347  4.4948401943611316 34.241032900907157  4.7203814511558457 35.521832525688765  4.9459227079509933 36.728636328853895 
 1.3372625992286107 9 3.1415926535897931 7 4.9459227079509755 9
3 64 5.6840000000000001e-14 0 1 -1 0 7.7781745930520225 5.5
7 0 0  8 30 5  6.2831853071795862 29.955844122715803  6.0868357663302239 29.955844122715803  5.8904862254815029 30.198178390586691  5.6941366846283685 30.682844867929816  5.4977871437879671 31.389920994173735  5.3014376029316495 32.279521186152124  5.1050880620840857 33.295998916906683  4.9087385212340724 34.375921648044311  4.565126824747689 36.265785978719414  4.4178646691104948 37.075727538302388  4.2706025134739178 37.858905788899619  4.1233403578367174 38.588550275495436  3.9760782021994956 39.239761326871303  3.8288160465628458 39.791341859213802  3.6815538909255414 40.227230222056349  3.3133985018329875 41.002108545735389  3.0925052683758381 41.183677561712102  2.8716120349356729 41.047323746315669  2.6507188014577636 40.587959675322054  2.4298255680071392 39.835442311916267  2.2089323345533316 38.852143577038078  1.9880391010997895 37.720409469330846  1.5462526341887246 35.33727231827838  1.3253594007330989 34.085867955920548  1.104466167285203 32.863231245850329  0.88357293382366464 31.764154431206407  0.66267970038031621 30.875951861264184  0.44178646691059242 30.262548866667203  0.22089323345554135 29.955844122715803  8.8800000000000007e-15 29.955844122715803 
 3.1415926535897931 9 4.7123889803847003 7 5.8904862254808705 7 7.6576320931251258 7 9.4247779607693793 9
1 0 0 1 0 
1 0 -1 1 0 
Curves 3
1 3.8890872965278938 596.89999999999998 1 0 -1 1.1102230246251565e-16 
3 18 1290.0999999999999 64 1 0 0 0 -1 0 0 0 -1 7.7781745930520225 5.5
3 18.000000000000057 1290.0999999999999 64 0 1 0 1 -0 0 0 0 -1 7.7781745930520225 5.5
Polygon3D 0
PolygonOnTriangulations 0
Surfaces 6
1 3.8890872965278938 596.89999999999998 0 1 0 -0 0 -1 1.1102230246251565e-16 0 -1.1102230246251565e-16 -1 
1 285.88908729652798 298.44999999999993 1 0 0 1 1 0 -0 -0 1 0 
1 18 1290.0999999999999 0 1 0 -0 0 0 1 0 -1 0 
2 -7.0710678118654746 1315.1710678118654 64 0.70710678118654757 -0.70710678118654757 0 -0.70710678118654757 -0.70710678118654757 0 0 -0 -1 5.5
1 18 1290.0999999999999 0 -0 1 0 0 0 1 1 0 -0 
6 -0 -0 -1 
3 3.8890872965279506 532.89999999999998 0 -0 1.1102230246251565e-16 1 1 0 0 0 1 -1.1102230246251565e-16 7.7781745930520225 5.5
Triangulations 0

TShapes 13
Ve
1.0000006e-07
3.88908729652789 538.4 0
0 0

0101101
*
Ve
1.00000057e-07
3.88908729652789 527.4 0
0 0

0101101
*
Ed
 1.00000000222045e-07 1 1 0
1  1 0 58.5 69.5
2  1 2 0 58.5 69.5
0

0101000
+13 2 -12 2 *
Ed
 1e-07 1 1 0
1  2 0 1.5707963267949 4.71238898038469
2  2 3 9 1.5707963267949 4.71238898038469
2  3 4 0 1.5707963267949 4.71238898038469
0

0101000
+13 10 -12 10 *
Wi

0101100
-11 1 +10 8 *
Fa
0  1e-07 1 0

0101000
+9 0 *
Ed
 1.00000000811861e-07 1 1 0
1  3 0 4.71238898038469 7.85398163397448
2  4 5 9 4.71238898038469 7.85398163397448
2  5 4 0 4.71238898038469 7.85398163397448
2  6 6 12 4.71238898038469 7.85398163397448
2  7 6 14 4.71238898038469 7.85398163397448
0

0101000
+12 10 -13 10 *
Wi

0101100
+11 1 +7 8 *
Fa
0  1.00000000222045e-07 2 1

0101000
+6 0 *
Wi

0101100
+7 8 +10 8 *
Fa
0  1e-07 4 8

0101000
+4 0 *
Sh

0101100
-8 0 -5 0 +3 0 *
So

0100000
+2 0 *

+1 0 