DBRep_DrawableShape

CASCADE Topology V1, (c) Matra-Datavision
Locations 42
1
              1               0               0               0 
              0               1               0               0 
              0               0               1               0 
1
              1               0               0               0 
              0               1               0               0 
              0               0               1               0 
1
              1               0               0             -18 
              0               1               0             -18 
              0               0               1             -18 
2  1 1 2 1 3 1 0
1
              1               0               0               0 
              0               1               0               0 
              0               0               1               0 
1
              1               0               0               0 
              0               1               0               0 
              0               0               1               0 
2  5 1 6 1 0
2  1 -1 6 -1 5 -1 0
2  1 -1 6 -1 0
2  1 -1 0
1
              1               0               0               0 
              0               1               0               0 
              0               0               1              -8 
2  11 -1 3 -1 2 -1 1 -1 0
1
              1               0               0               0 
              0               1               0               0 
              0               0               1               1 
2  13 -1 11 -1 3 -1 2 -1 1 -1 0
1
              1               0               0               0 
              0               1               0               0 
              0               0               1              -8 
2  15 -1 3 -1 2 -1 1 -1 0
1
              1               0               0               0 
              0               1               0               0 
              0               0               1               1 
2  17 -1 15 -1 3 -1 2 -1 1 -1 0
1
              1               0               0               0 
              0               1               0               0 
              0               0               1              -8 
2  19 -1 3 -1 2 -1 1 -1 0
1
              1               0               0               0 
              0               1               0               0 
              0               0               1               1 
2  21 -1 19 -1 3 -1 2 -1 1 -1 0
1
              1               0               0               0 
              0               1               0               0 
              0               0               1              -8 
2  23 -1 3 -1 2 -1 1 -1 0
1
              1               0               0               0 
              0               1               0               0 
              0               0               1               1 
2  25 -1 23 -1 3 -1 2 -1 1 -1 0
1
              1               0               0               0 
              0               1               0               0 
              0               0               1              -8 
2  27 -1 3 -1 2 -1 1 -1 0
1
              1               0               0               0 
              0               1               0               0 
              0               0               1               1 
2  29 -1 27 -1 3 -1 2 -1 1 -1 0
1
              1               0               0               0 
              0               1               0               0 
              0               0               1              -8 
2  31 -1 3 -1 2 -1 1 -1 0
1
              1               0               0               0 
              0               1               0               0 
              0               0               1               1 
2  33 -1 31 -1 3 -1 2 -1 1 -1 0
1
              1               0               0               0 
              0               1               0               0 
              0               0               1              -8 
2  35 -1 3 -1 2 -1 1 -1 0
1
              1               0               0               0 
              0               1               0               0 
              0               0               1               1 
2  37 -1 35 -1 3 -1 2 -1 1 -1 0
1
              1               0               0               0 
              0               1               0               0 
              0               0               1              -8 
2  39 -1 3 -1 2 -1 1 -1 0
1
              1               0               0               0 
              0               1               0               0 
              0               0               1               1 
2  41 -1 39 -1 3 -1 2 -1 1 -1 0
Curve2ds 250
1 0 0 1 0 
1 0 0 1 0 
1 18 0 0 -1 
1 0 0 0 1 
1 0 -1272.0999999999999 1 0 
1 0 0 1 0 
1 0 0 0 -1 
1 0 0 0 1 
1 0 0 0 1 
1 0 0 1 0 
1 0 564 1 0 
1 0 0 1 0 
1 18 0 0 1 
1 0 0 1 0 
1 0 1272.0999999999999 1 0 
1 18 0 0 1 
1 564 0 0 1 
1 18 0 0 -1 
2 202 162 1 0 -0 1 2.75
1 0 19 1 0 
2 202 322 1 0 -0 1 2.75
1 0 19 1 0 
2 209.01351693160834 391.76800884315793 1 0 -0 1 2.75
1 0 19 1 0 
2 251.76800884315793 349.01351693160836 1 0 -0 1 2.75
1 0 19 1 0 
2 79.5 639.5 1 0 -0 1 2.25
1 0 19 1 0 
2 132 692 1 0 -0 1 58
1 0 19 1 0 
2 209.01351693160836 452.23199115684213 1 0 -0 1 2.75
1 0 19 1 0 
2 251.76800884315793 494.98648306839164 1 0 -0 1 2.75
1 0 19 1 0 
2 184.5 639.5 1 0 -0 1 2.25
1 0 19 1 0 
2 362 162 1 0 -0 1 2.75
1 0 19 1 0 
2 312.23199115684213 349.01351693160836 1 0 -0 1 2.75
1 0 19 1 0 
2 282 422 1 0 -0 1 71.75
1 0 19 1 0 
2 362 322 1 0 -0 1 2.75
1 0 19 1 0 
2 354.98648306839164 391.76800884315793 1 0 -0 1 2.75
1 0 19 1 0 
2 312.23199115684207 494.98648306839164 1 0 -0 1 2.75
1 0 19 1 0 
2 354.98648306839164 452.23199115684207 1 0 -0 1 2.75
1 0 19 1 0 
2 379.5 639.5 1 0 -0 1 2.25
1 0 19 1 0 
2 432 692 1 0 -0 1 58
1 0 19 1 0 
2 484.5 639.5 1 0 -0 1 2.25
1 0 19 1 0 
2 79.5 744.5 1 0 -0 1 2.25
1 0 19 1 0 
2 162 832 1 0 -0 1 2.75
1 0 19 1 0 
2 184.5 744.5 1 0 -0 1 2.25
1 0 19 1 0 
2 162 1252 1 0 -0 1 2.75
1 0 19 1 0 
2 379.5 744.5 1 0 -0 1 2.25
1 0 19 1 0 
2 402 832 1 0 -0 1 2.75
1 0 19 1 0 
2 484.5 744.5 1 0 -0 1 2.25
1 0 19 1 0 
2 402 1252 1 0 -0 1 2.75
1 0 19 1 0 
1 0 0 0 1 
1 0 1272.0999999999999 1 0 
1 0 564 1 0 
1 0 -1272.0999999999999 1 0 
1 564 0 0 1 
1 0 0 0 -1 
2 202 162 1 0 -0 1 2.75
1 0 1 1 0 
2 202 322 1 0 -0 1 2.75
1 0 1 1 0 
2 209.01351693160834 391.76800884315793 1 0 -0 1 2.75
1 0 1 1 0 
2 251.76800884315793 349.01351693160836 1 0 -0 1 2.75
1 0 1 1 0 
2 62 622 1 0 -0 1 3
1 0 0 1 0 
2 79.5 639.5 1 0 -0 1 2.25
1 0 1 1 0 
2 132 692 1 0 -0 1 58
1 0 1 1 0 
2 209.01351693160836 452.23199115684213 1 0 -0 1 2.75
1 0 1 1 0 
2 251.76800884315793 494.98648306839164 1 0 -0 1 2.75
1 0 1 1 0 
2 202 622 1 0 -0 1 3
1 0 0 1 0 
2 184.5 639.5 1 0 -0 1 2.25
1 0 1 1 0 
2 362 162 1 0 -0 1 2.75
1 0 1 1 0 
2 312.23199115684213 349.01351693160836 1 0 -0 1 2.75
1 0 1 1 0 
2 282 422 1 0 -0 1 71.75
1 0 1 1 0 
2 362 322 1 0 -0 1 2.75
1 0 1 1 0 
2 354.98648306839164 391.76800884315793 1 0 -0 1 2.75
1 0 1 1 0 
2 312.23199115684207 494.98648306839164 1 0 -0 1 2.75
1 0 1 1 0 
2 354.98648306839164 452.23199115684207 1 0 -0 1 2.75
1 0 1 1 0 
2 362 622 1 0 -0 1 3
1 0 0 1 0 
2 379.5 639.5 1 0 -0 1 2.25
1 0 1 1 0 
2 432 692 1 0 -0 1 58
1 0 1 1 0 
2 502 622 1 0 -0 1 3
1 0 0 1 0 
2 484.5 639.5 1 0 -0 1 2.25
1 0 1 1 0 
2 62 762 1 0 -0 1 3
1 0 0 1 0 
2 79.5 744.5 1 0 -0 1 2.25
1 0 1 1 0 
2 162 832 1 0 -0 1 2.75
1 0 1 1 0 
2 184.5 744.5 1 0 -0 1 2.25
1 0 1 1 0 
2 202 762 1 0 -0 1 3
1 0 0 1 0 
2 162 1252 1 0 -0 1 2.75
1 0 1 1 0 
2 362 762 1 0 -0 1 3
1 0 0 1 0 
2 379.5 744.5 1 0 -0 1 2.25
1 0 1 1 0 
2 402 832 1 0 -0 1 2.75
1 0 1 1 0 
2 484.5 744.5 1 0 -0 1 2.25
1 0 1 1 0 
2 502 762 1 0 -0 1 3
1 0 0 1 0 
2 402 1252 1 0 -0 1 2.75
1 0 1 1 0 
1 6.2831853071795862 -0 0 1 
1 0 -0 0 1 
1 6.2831853071795862 -0 0 1 
1 0 -0 0 1 
1 6.2831853071795862 -0 0 1 
1 0 -0 0 1 
1 6.2831853071795862 -0 0 1 
1 0 -0 0 1 
1 6.2831853071795862 -0 0 1 
1 0 -0 0 1 
1 6.2831853071795862 -0 0 1 
1 0 -0 0 1 
1 6.2831853071795862 -0 0 1 
1 0 -0 0 1 
1 6.2831853071795862 -0 0 1 
1 0 -0 0 1 
1 6.2831853071795862 -0 0 1 
1 0 -0 0 1 
1 6.2831853071795862 -0 0 1 
1 0 -0 0 1 
1 6.2831853071795862 -0 0 1 
1 0 -0 0 1 
1 6.2831853071795862 -0 0 1 
1 0 -0 0 1 
1 6.2831853071795862 -0 0 1 
1 0 -0 0 1 
1 6.2831853071795862 -0 0 1 
1 0 -0 0 1 
1 6.2831853071795862 -0 0 1 
1 0 -0 0 1 
1 6.2831853071795862 -0 0 1 
1 0 -0 0 1 
1 6.2831853071795862 -0 0 1 
1 0 -0 0 1 
1 6.2831853071795862 -0 0 1 
1 0 -0 0 1 
1 6.2831853071795862 -0 0 1 
1 0 -0 0 1 
1 6.2831853071795862 -0 0 1 
1 0 -0 0 1 
1 6.2831853071795862 -0 0 1 
1 0 -0 0 1 
1 6.2831853071795862 -0 0 1 
1 0 -0 0 1 
1 6.2831853071795862 -0 0 1 
1 0 -0 0 1 
1 6.2831853071795862 -0 0 1 
1 0 -0 0 1 
1 6.2831853071795862 -0 0 1 
1 0 -0 0 1 
1 6.2831853071795862 -0 0 1 
1 0 -0 0 1 
1 6.2831853071795862 -0 0 1 
1 0 -0 0 1 
1 0 8 1 0 
2 0 0 1 0 -0 1 3
1 0 0 1 0 
1 0 -1 1 0 
1 6.2831853071795862 -0 0 1 
1 0 -0 0 1 
1 0 8 1 0 
2 0 0 1 0 -0 1 3
1 0 0 1 0 
1 0 -1 1 0 
1 6.2831853071795862 -0 0 1 
1 0 -0 0 1 
1 0 8 1 0 
2 0 0 1 0 -0 1 3
1 0 0 1 0 
1 0 -1 1 0 
1 6.2831853071795862 -0 0 1 
1 0 -0 0 1 
1 0 8 1 0 
2 0 0 1 0 -0 1 3
1 0 0 1 0 
1 0 -1 1 0 
1 6.2831853071795862 -0 0 1 
1 0 -0 0 1 
1 0 8 1 0 
2 0 0 1 0 -0 1 3
1 0 0 1 0 
1 0 -1 1 0 
1 6.2831853071795862 -0 0 1 
1 0 -0 0 1 
1 0 8 1 0 
2 0 0 1 0 -0 1 3
1 0 0 1 0 
1 0 -1 1 0 
1 6.2831853071795862 -0 0 1 
1 0 -0 0 1 
1 0 8 1 0 
2 0 0 1 0 -0 1 3
1 0 0 1 0 
1 0 -1 1 0 
1 6.2831853071795862 -0 0 1 
1 0 -0 0 1 
1 0 8 1 0 
2 0 0 1 0 -0 1 3
1 0 0 1 0 
1 0 -1 1 0 
1 6.2831853071795862 -0 0 1 
1 0 -0 0 1 
Curves 117
1 18 18 18 0 0 1 
1 18 18 36 -0 1 0 
1 18 1290.0999999999999 18 0 0 1 
1 18 18 18 -0 1 0 
1 18 18 18 1 0 -0 
1 582 18 18 0 0 1 
1 18 18 36 1 0 -0 
1 18 1290.0999999999999 36 1 0 -0 
1 582 18 36 -0 1 0 
2 220 180 36 0 0 1 1 0 -0 -0 1 0 2.75
2 220 340 36 0 0 1 1 0 -0 -0 1 0 2.75
2 227.01351693160834 409.76800884315793 36 0 0 1 1 0 -0 -0 1 0 2.75
2 269.76800884315793 367.01351693160836 36 0 0 1 1 0 -0 -0 1 0 2.75
2 97.5 657.5 36 0 0 1 1 0 -0 -0 1 0 2.25
2 150 710 36 0 0 1 1 0 -0 -0 1 0 58
2 227.01351693160836 470.23199115684213 36 0 0 1 1 0 -0 -0 1 0 2.75
2 269.76800884315793 512.98648306839164 36 0 0 1 1 0 -0 -0 1 0 2.75
2 202.5 657.5 36 0 0 1 1 0 -0 -0 1 0 2.25
2 380 180 36 0 0 1 1 0 -0 -0 1 0 2.75
2 330.23199115684213 367.01351693160836 36 0 0 1 1 0 -0 -0 1 0 2.75
2 300 440 36 0 0 1 1 0 -0 -0 1 0 71.75
2 380 340 36 0 0 1 1 0 -0 -0 1 0 2.75
2 372.98648306839164 409.76800884315793 36 0 0 1 1 0 -0 -0 1 0 2.75
2 330.23199115684207 512.98648306839164 36 0 0 1 1 0 -0 -0 1 0 2.75
2 372.98648306839164 470.23199115684207 36 0 0 1 1 0 -0 -0 1 0 2.75
2 397.5 657.5 36 0 0 1 1 0 -0 -0 1 0 2.25
2 450 710 36 0 0 1 1 0 -0 -0 1 0 58
2 502.5 657.5 36 0 0 1 1 0 -0 -0 1 0 2.25
2 97.5 762.5 36 0 0 1 1 0 -0 -0 1 0 2.25
2 180 850 36 0 0 1 1 0 -0 -0 1 0 2.75
2 202.5 762.5 36 0 0 1 1 0 -0 -0 1 0 2.25
2 180 1270 36 0 0 1 1 0 -0 -0 1 0 2.75
2 397.5 762.5 36 0 0 1 1 0 -0 -0 1 0 2.25
2 420 850 36 0 0 1 1 0 -0 -0 1 0 2.75
2 502.5 762.5 36 0 0 1 1 0 -0 -0 1 0 2.25
2 420 1270 36 0 0 1 1 0 -0 -0 1 0 2.75
1 18 1290.0999999999999 18 1 0 -0 
1 582 1290.0999999999999 18 0 0 1 
1 582 18 18 -0 1 0 
2 220 180 18 0 0 1 1 0 -0 -0 1 0 2.75
2 220 340 18 0 0 1 1 0 -0 -0 1 0 2.75
2 227.01351693160834 409.76800884315793 18 0 0 1 1 0 -0 -0 1 0 2.75
2 269.76800884315793 367.01351693160836 18 0 0 1 1 0 -0 -0 1 0 2.75
2 80 640 18 0 0 1 1 0 -0 -0 1 0 3
2 97.5 657.5 18 0 0 1 1 0 -0 -0 1 0 2.25
2 150 710 18 0 0 1 1 0 -0 -0 1 0 58
2 227.01351693160836 470.23199115684213 18 0 0 1 1 0 -0 -0 1 0 2.75
2 269.76800884315793 512.98648306839164 18 0 0 1 1 0 -0 -0 1 0 2.75
2 220 640 18 0 0 1 1 0 -0 -0 1 0 3
2 202.5 657.5 18 0 0 1 1 0 -0 -0 1 0 2.25
2 380 180 18 0 0 1 1 0 -0 -0 1 0 2.75
2 330.23199115684213 367.01351693160836 18 0 0 1 1 0 -0 -0 1 0 2.75
2 300 440 18 0 0 1 1 0 -0 -0 1 0 71.75
2 380 340 18 0 0 1 1 0 -0 -0 1 0 2.75
2 372.98648306839164 409.76800884315793 18 0 0 1 1 0 -0 -0 1 0 2.75
2 330.23199115684207 512.98648306839164 18 0 0 1 1 0 -0 -0 1 0 2.75
2 372.98648306839164 470.23199115684207 18 0 0 1 1 0 -0 -0 1 0 2.75
2 380 640 18 0 0 1 1 0 -0 -0 1 0 3
2 397.5 657.5 18 0 0 1 1 0 -0 -0 1 0 2.25
2 450 710 18 0 0 1 1 0 -0 -0 1 0 58
2 520 640 18 0 0 1 1 0 -0 -0 1 0 3
2 502.5 657.5 18 0 0 1 1 0 -0 -0 1 0 2.25
2 80 780 18 0 0 1 1 0 -0 -0 1 0 3
2 97.5 762.5 18 0 0 1 1 0 -0 -0 1 0 2.25
2 180 850 18 0 0 1 1 0 -0 -0 1 0 2.75
2 202.5 762.5 18 0 0 1 1 0 -0 -0 1 0 2.25
2 220 780 18 0 0 1 1 0 -0 -0 1 0 3
2 180 1270 18 0 0 1 1 0 -0 -0 1 0 2.75
2 380 780 18 0 0 1 1 0 -0 -0 1 0 3
2 397.5 762.5 18 0 0 1 1 0 -0 -0 1 0 2.25
2 420 850 18 0 0 1 1 0 -0 -0 1 0 2.75
2 502.5 762.5 18 0 0 1 1 0 -0 -0 1 0 2.25
2 520 780 18 0 0 1 1 0 -0 -0 1 0 3
2 420 1270 18 0 0 1 1 0 -0 -0 1 0 2.75
1 222.75 180 17 0 0 1 
1 222.75 340 17 0 0 1 
1 229.76351693160834 409.76800884315793 17 0 0 1 
1 272.51800884315793 367.01351693160836 17 0 0 1 
1 99.75 657.5 17 0 0 1 
1 208 710 17 0 0 1 
1 229.76351693160836 470.23199115684213 17 0 0 1 
1 272.51800884315793 512.98648306839164 17 0 0 1 
1 204.75 657.5 17 0 0 1 
1 382.75 180 17 0 0 1 
1 332.98199115684213 367.01351693160836 17 0 0 1 
1 371.75 439.99999999999994 17 0 0 1 
1 382.75 340 17 0 0 1 
1 375.73648306839164 409.76800884315793 17 0 0 1 
1 332.98199115684207 512.98648306839164 17 0 0 1 
1 375.73648306839164 470.23199115684207 17 0 0 1 
1 399.75 657.5 17 0 0 1 
1 508 710 17 0 0 1 
1 504.75 657.5 17 0 0 1 
1 99.75 762.5 17 0 0 1 
1 182.75 850 17 0 0 1 
1 204.75 762.5 17 0 0 1 
1 182.75 1270 17 0 0 1 
1 399.75 762.5 17 0 0 1 
1 422.75 850 17 0 0 1 
1 504.75 762.5 17 0 0 1 
1 422.75 1270 17 0 0 1 
2 80 640 26 0 0 1 1 0 -0 -0 1 0 3
1 83 640 18 0 0 1 
2 220 640 26 0 0 1 1 0 -0 -0 1 0 3
1 223 640 18 0 0 1 
2 380 640 26 0 0 1 1 0 -0 -0 1 0 3
1 383 640 18 0 0 1 
2 520 640 26 0 0 1 1 0 -0 -0 1 0 3
1 523 640 18 0 0 1 
2 80 780 26 0 0 1 1 0 -0 -0 1 0 3
1 83 780 18 0 0 1 
2 220 780 26 0 0 1 1 0 -0 -0 1 0 3
1 223 780 18 0 0 1 
2 380 780 26 0 0 1 1 0 -0 -0 1 0 3
1 383 780 18 0 0 1 
2 520 780 26 0 0 1 1 0 -0 -0 1 0 3
1 523 780 18 0 0 1 
Polygon3D 0
PolygonOnTriangulations 0
Surfaces 57
1 18 18 18 1 0 -0 0 0 1 0 -1 0 
1 18 18 18 -0 1 0 0 0 1 1 0 -0 
1 18 18 36 0 0 1 1 0 -0 -0 1 0 
1 18 1290.0999999999999 18 -0 1 0 0 0 1 1 0 -0 
1 18 18 18 0 0 1 1 0 -0 -0 1 0 
1 582 18 18 1 0 -0 0 0 1 0 -1 0 
2 220 180 17 0 0 1 1 0 -0 -0 1 0 2.75
2 220 340 17 0 0 1 1 0 -0 -0 1 0 2.75
2 227.01351693160834 409.76800884315793 17 0 0 1 1 0 -0 -0 1 0 2.75
2 269.76800884315793 367.01351693160836 17 0 0 1 1 0 -0 -0 1 0 2.75
2 97.5 657.5 17 0 0 1 1 0 -0 -0 1 0 2.25
2 150 710 17 0 0 1 1 0 -0 -0 1 0 58
2 227.01351693160836 470.23199115684213 17 0 0 1 1 0 -0 -0 1 0 2.75
2 269.76800884315793 512.98648306839164 17 0 0 1 1 0 -0 -0 1 0 2.75
2 202.5 657.5 17 0 0 1 1 0 -0 -0 1 0 2.25
2 380 180 17 0 0 1 1 0 -0 -0 1 0 2.75
2 330.23199115684213 367.01351693160836 17 0 0 1 1 0 -0 -0 1 0 2.75
2 300 440 17 0 0 1 1 0 -0 -0 1 0 71.75
2 380 340 17 0 0 1 1 0 -0 -0 1 0 2.75
2 372.98648306839164 409.76800884315793 17 0 0 1 1 0 -0 -0 1 0 2.75
2 330.23199115684207 512.98648306839164 17 0 0 1 1 0 -0 -0 1 0 2.75
2 372.98648306839164 470.23199115684207 17 0 0 1 1 0 -0 -0 1 0 2.75
2 397.5 657.5 17 0 0 1 1 0 -0 -0 1 0 2.25
2 450 710 17 0 0 1 1 0 -0 -0 1 0 58
2 502.5 657.5 17 0 0 1 1 0 -0 -0 1 0 2.25
2 97.5 762.5 17 0 0 1 1 0 -0 -0 1 0 2.25
2 180 850 17 0 0 1 1 0 -0 -0 1 0 2.75
2 202.5 762.5 17 0 0 1 1 0 -0 -0 1 0 2.25
2 180 1270 17 0 0 1 1 0 -0 -0 1 0 2.75
2 397.5 762.5 17 0 0 1 1 0 -0 -0 1 0 2.25
2 420 850 17 0 0 1 1 0 -0 -0 1 0 2.75
2 502.5 762.5 17 0 0 1 1 0 -0 -0 1 0 2.25
2 420 1270 17 0 0 1 1 0 -0 -0 1 0 2.75
2 80 640 18 0 0 1 1 0 -0 -0 1 0 3
2 220 640 18 0 0 1 1 0 -0 -0 1 0 3
2 380 640 18 0 0 1 1 0 -0 -0 1 0 3
2 520 640 18 0 0 1 1 0 -0 -0 1 0 3
2 80 780 18 0 0 1 1 0 -0 -0 1 0 3
2 220 780 18 0 0 1 1 0 -0 -0 1 0 3
2 380 780 18 0 0 1 1 0 -0 -0 1 0 3
2 520 780 18 0 0 1 1 0 -0 -0 1 0 3
1 80 640 26 0 0 1 1 0 -0 -0 1 0 
2 62 622 0 -0 -0 -1 1 0 0 0 1 0 3
1 220 640 26 0 0 1 1 0 -0 -0 1 0 
2 202 622 0 -0 -0 -1 1 0 0 0 1 0 3
1 380 640 26 0 0 1 1 0 -0 -0 1 0 
2 362 622 0 -0 -0 -1 1 0 0 0 1 0 3
1 520 640 26 0 0 1 1 0 -0 -0 1 0 
2 502 622 0 -0 -0 -1 1 0 0 0 1 0 3
1 80 780 26 0 0 1 1 0 -0 -0 1 0 
2 62 762 0 -0 -0 -1 1 0 0 0 1 0 3
1 220 780 26 0 0 1 1 0 -0 -0 1 0 
2 202 762 0 -0 -0 -1 1 0 0 0 1 0 3
1 380 780 26 0 0 1 1 0 -0 -0 1 0 
2 362 762 0 -0 -0 -1 1 0 0 0 1 0 3
1 520 780 26 0 0 1 1 0 -0 -0 1 0 
2 502 762 0 -0 -0 -1 1 0 0 0 1 0 3
Triangulations 0

TShapes 358
Ve
1e-07
18 18 36
0 0

0101101
*
Ve
1e-07
18 18 18
0 0

0101101
*
Ed
 1e-07 1 1 0
1  1 0 0 18
2  1 1 0 0 18
2  2 2 0 0 18
0

0101000
-358 8 +357 8 *
Ve
1e-07
18 1290.1 36
0 0

0101101
*
Ed
 1e-07 1 1 0
1  2 0 0 1272.1
2  3 1 0 0 1272.1
2  4 3 0 0 1272.1
0

0101000
-355 8 +358 8 *
Ve
1e-07
18 1290.1 18
0 0

0101101
*
Ed
 1e-07 1 1 0
1  3 0 0 18
2  5 1 0 0 18
2  6 4 0 0 18
0

0101000
-355 8 +353 8 *
Ed
 1e-07 1 1 0
1  4 0 0 1272.1
2  7 1 0 0 1272.1
2  8 5 0 0 1272.1
0

0101000
-353 8 +357 8 *
Wi

0101100
-356 0 -354 0 +352 0 +351 0 *
Fa
0  1e-07 1 0

0111000
+350 0 *
Ve
1e-07
582 18 18
0 0

0101101
*
Ed
 1e-07 1 1 0
1  5 0 0 564
2  9 2 0 0 564
2  10 5 0 0 564
0

0101000
-348 8 +357 8 *
Ve
1e-07
582 18 36
0 0

0101101
*
Ed
 1e-07 1 1 0
1  6 0 0 18
2  11 2 0 0 18
2  12 6 0 0 18
0

0101000
-346 8 +348 8 *
Ed
 1e-07 1 1 0
1  7 0 0 564
2  13 2 0 0 564
2  14 3 0 0 564
0

0101000
-346 8 +358 8 *
Wi

0101100
-347 0 -345 0 +344 0 +356 0 *
Fa
0  1e-07 2 0

0111000
+343 0 *
Ve
1e-07
582 1290.1 36
0 0

0101101
*
Ed
 1e-07 1 1 0
1  8 0 0 564
2  15 3 0 0 564
2  16 4 0 0 564
0

0101000
-341 8 +355 8 *
Ed
 1e-07 1 1 0
1  9 0 0 1272.1
2  17 3 0 0 1272.1
2  18 6 0 0 1272.1
0

0101000
-341 8 +346 8 *
Wi

0101100
-354 7 -340 7 +344 7 +339 7 *
Ve
1e-07
222.75 180 36
0 0

0101101
*
Ed
 1e-07 1 1 0
1  10 0 0 6.28318530717959
2  19 3 5 0 6.28318530717959
2  20 7 0 0 6.28318530717959
0

0101100
+337 9 -337 9 *
Wi

0101100
-336 6 *
Ve
1e-07
222.75 340 36
0 0

0101101
*
Ed
 1e-07 1 1 0
1  11 0 0 6.28318530717959
2  21 3 5 0 6.28318530717959
2  22 8 0 0 6.28318530717959
0

0101100
+334 9 -334 9 *
Wi

0101100
-333 6 *
Ve
1e-07
229.763516931608 409.768008843158 36
0 0

0101101
*
Ed
 1e-07 1 1 0
1  12 0 0 6.28318530717959
2  23 3 5 0 6.28318530717959
2  24 9 0 0 6.28318530717959
0

0101100
+331 9 -331 9 *
Wi

0101100
-330 6 *
Ve
1e-07
272.518008843158 367.013516931608 36
0 0

0101101
*
Ed
 1e-07 1 1 0
1  13 0 0 6.28318530717959
2  25 3 5 0 6.28318530717959
2  26 10 0 0 6.28318530717959
0

0101100
+328 9 -328 9 *
Wi

0101100
-327 6 *
Ve
1e-07
99.75 657.5 36
0 0

0101101
*
Ed
 1e-07 1 1 0
1  14 0 0 6.28318530717959
2  27 3 7 0 6.28318530717959
2  28 11 0 0 6.28318530717959
0

0101100
+325 10 -325 10 *
Wi

0101100
-324 0 *
Ve
1e-07
208 710 36
0 0

0101101
*
Ed
 1e-07 1 1 0
1  15 0 0 6.28318530717959
2  29 3 7 0 6.28318530717959
2  30 12 0 0 6.28318530717959
0

0101100
+322 10 -322 10 *
Wi

0101100
-321 0 *
Ve
1e-07
229.763516931608 470.231991156842 36
0 0

0101101
*
Ed
 1e-07 1 1 0
1  16 0 0 6.28318530717959
2  31 3 5 0 6.28318530717959
2  32 13 0 0 6.28318530717959
0

0101100
+319 9 -319 9 *
Wi

0101100
-318 6 *
Ve
1e-07
272.518008843158 512.986483068392 36
0 0

0101101
*
Ed
 1e-07 1 1 0
1  17 0 0 6.28318530717959
2  33 3 5 0 6.28318530717959
2  34 14 0 0 6.28318530717959
0

0101100
+316 9 -316 9 *
Wi

0101100
-315 6 *
Ve
1e-07
204.75 657.5 36
0 0

0101101
*
Ed
 1e-07 1 1 0
1  18 0 0 6.28318530717959
2  35 3 7 0 6.28318530717959
2  36 15 0 0 6.28318530717959
0

0101100
+313 10 -313 10 *
Wi

0101100
-312 0 *
Ve
1e-07
382.75 180 36
0 0

0101101
*
Ed
 1e-07 1 1 0
1  19 0 0 6.28318530717959
2  37 3 5 0 6.28318530717959
2  38 16 0 0 6.28318530717959
0

0101100
+310 9 -310 9 *
Wi

0101100
-309 6 *
Ve
1e-07
332.981991156842 367.013516931608 36
0 0

0101101
*
Ed
 1e-07 1 1 0
1  20 0 0 6.28318530717959
2  39 3 5 0 6.28318530717959
2  40 17 0 0 6.28318530717959
0

0101100
+307 9 -307 9 *
Wi

0101100
-306 6 *
Ve
1.00000057e-07
371.75 440 36
0 0

0101101
*
Ed
 1e-07 1 1 0
1  21 0 0 6.28318530717959
2  41 3 5 0 6.28318530717959
2  42 18 0 0 6.28318530717959
0

0101100
+304 9 -304 9 *
Wi

0101100
-303 6 *
Ve
1e-07
382.75 340 36
0 0

0101101
*
Ed
 1e-07 1 1 0
1  22 0 0 6.28318530717959
2  43 3 5 0 6.28318530717959
2  44 19 0 0 6.28318530717959
0

0101100
+301 9 -301 9 *
Wi

0101100
-300 6 *
Ve
1e-07
375.736483068392 409.768008843158 36
0 0

0101101
*
Ed
 1e-07 1 1 0
1  23 0 0 6.28318530717959
2  45 3 5 0 6.28318530717959
2  46 20 0 0 6.28318530717959
0

0101100
+298 9 -298 9 *
Wi

0101100
-297 6 *
Ve
1e-07
332.981991156842 512.986483068392 36
0 0

0101101
*
Ed
 1e-07 1 1 0
1  24 0 0 6.28318530717959
2  47 3 5 0 6.28318530717959
2  48 21 0 0 6.28318530717959
0

0101100
+295 9 -295 9 *
Wi

0101100
-294 6 *
Ve
1e-07
375.736483068392 470.231991156842 36
0 0

0101101
*
Ed
 1e-07 1 1 0
1  25 0 0 6.28318530717959
2  49 3 5 0 6.28318530717959
2  50 22 0 0 6.28318530717959
0

0101100
+292 9 -292 9 *
Wi

0101100
-291 6 *
Ve
1e-07
399.75 657.5 36
0 0

0101101
*
Ed
 1e-07 1 1 0
1  26 0 0 6.28318530717959
2  51 3 7 0 6.28318530717959
2  52 23 0 0 6.28318530717959
0

0101100
+289 10 -289 10 *
Wi

0101100
-288 0 *
Ve
1e-07
508 710 36
0 0

0101101
*
Ed
 1e-07 1 1 0
1  27 0 0 6.28318530717959
2  53 3 7 0 6.28318530717959
2  54 24 0 0 6.28318530717959
0

0101100
+286 10 -286 10 *
Wi

0101100
-285 0 *
Ve
1e-07
504.75 657.5 36
0 0

0101101
*
Ed
 1e-07 1 1 0
1  28 0 0 6.28318530717959
2  55 3 7 0 6.28318530717959
2  56 25 0 0 6.28318530717959
0

0101100
+283 10 -283 10 *
Wi

0101100
-282 0 *
Ve
1e-07
99.75 762.5 36
0 0

0101101
*
Ed
 1e-07 1 1 0
1  29 0 0 6.28318530717959
2  57 3 7 0 6.28318530717959
2  58 26 0 0 6.28318530717959
0

0101100
+280 10 -280 10 *
Wi

0101100
-279 0 *
Ve
1e-07
182.75 850 36
0 0

0101101
*
Ed
 1e-07 1 1 0
1  30 0 0 6.28318530717959
2  59 3 5 0 6.28318530717959
2  60 27 0 0 6.28318530717959
0

0101100
+277 9 -277 9 *
Wi

0101100
-276 6 *
Ve
1e-07
204.75 762.5 36
0 0

0101101
*
Ed
 1e-07 1 1 0
1  31 0 0 6.28318530717959
2  61 3 7 0 6.28318530717959
2  62 28 0 0 6.28318530717959
0

0101100
+274 10 -274 10 *
Wi

0101100
-273 0 *
Ve
1e-07
182.75 1270 36
0 0

0101101
*
Ed
 1e-07 1 1 0
1  32 0 0 6.28318530717959
2  63 3 5 0 6.28318530717959
2  64 29 0 0 6.28318530717959
0

0101100
+271 9 -271 9 *
Wi

0101100
-270 6 *
Ve
1e-07
399.75 762.5 36
0 0

0101101
*
Ed
 1e-07 1 1 0
1  33 0 0 6.28318530717959
2  65 3 7 0 6.28318530717959
2  66 30 0 0 6.28318530717959
0

0101100
+268 10 -268 10 *
Wi

0101100
-267 0 *
Ve
1e-07
422.75 850 36
0 0

0101101
*
Ed
 1e-07 1 1 0
1  34 0 0 6.28318530717959
2  67 3 5 0 6.28318530717959
2  68 31 0 0 6.28318530717959
0

0101100
+265 9 -265 9 *
Wi

0101100
-264 6 *
Ve
1e-07
504.75 762.5 36
0 0

0101101
*
Ed
 1e-07 1 1 0
1  35 0 0 6.28318530717959
2  69 3 7 0 6.28318530717959
2  70 32 0 0 6.28318530717959
0

0101100
+262 10 -262 10 *
Wi

0101100
-261 0 *
Ve
1e-07
422.75 1270 36
0 0

0101101
*
Ed
 1e-07 1 1 0
1  36 0 0 6.28318530717959
2  71 3 5 0 6.28318530717959
2  72 33 0 0 6.28318530717959
0

0101100
+259 9 -259 9 *
Wi

0101100
-258 6 *
Fa
0  1e-07 3 7

0111000
+338 0 +335 0 +332 0 +329 0 +326 0 +323 0 +320 0 +317 0 +314 0 +311 0 
+308 0 +305 0 +302 0 +299 0 +296 0 +293 0 +290 0 +287 0 +284 0 +281 0 
+278 0 +275 0 +272 0 +269 0 +266 0 +263 0 +260 0 +257 0 *
Ve
1e-07
582 1290.1 18
0 0

0101101
*
Ed
 1e-07 1 1 0
1  37 0 0 564
2  73 4 0 0 564
2  74 5 0 0 564
0

0101000
-255 8 +353 8 *
Ed
 1e-07 1 1 0
1  38 0 0 18
2  75 4 0 0 18
2  76 6 0 0 18
0

0101000
-341 8 +255 8 *
Wi

0101100
-254 0 -253 0 +340 0 +352 0 *
Fa
0  1e-07 4 0

0111000
+252 0 *
Ed
 1e-07 1 1 0
1  39 0 0 1272.1
2  77 5 0 0 1272.1
2  78 6 0 0 1272.1
0

0101000
-255 8 +348 8 *
Wi

0101100
-351 7 -254 7 +347 7 +250 7 *
Ve
1e-07
222.75 180 18
0 0

0101101
*
Ed
 1e-07 1 1 0
1  40 0 0 6.28318530717959
2  79 5 5 0 6.28318530717959
2  80 7 0 0 6.28318530717959
0

0101100
+248 9 -248 9 *
Wi

0101100
-247 6 *
Ve
1e-07
222.75 340 18
0 0

0101101
*
Ed
 1e-07 1 1 0
1  41 0 0 6.28318530717959
2  81 5 5 0 6.28318530717959
2  82 8 0 0 6.28318530717959
0

0101100
+245 9 -245 9 *
Wi

0101100
-244 6 *
Ve
1e-07
229.763516931608 409.768008843158 18
0 0

0101101
*
Ed
 1e-07 1 1 0
1  42 0 0 6.28318530717959
2  83 5 5 0 6.28318530717959
2  84 9 0 0 6.28318530717959
0

0101100
+242 9 -242 9 *
Wi

0101100
-241 6 *
Ve
1e-07
272.518008843158 367.013516931608 18
0 0

0101101
*
Ed
 1e-07 1 1 0
1  43 0 0 6.28318530717959
2  85 5 5 0 6.28318530717959
2  86 10 0 0 6.28318530717959
0

0101100
+239 9 -239 9 *
Wi

0101100
-238 6 *
Ve
1e-07
83 640 18
0 0

0101101
*
Ed
 1e-07 1 1 0
1  44 0 0 6.28318530717959
2  87 5 7 0 6.28318530717959
2  88 34 0 0 6.28318530717959
0

0101000
+236 10 -236 10 *
Wi

0101100
-235 0 *
Ve
1e-07
99.75 657.5 18
0 0

0101101
*
Ed
 1e-07 1 1 0
1  45 0 0 6.28318530717959
2  89 5 7 0 6.28318530717959
2  90 11 0 0 6.28318530717959
0

0101100
+233 10 -233 10 *
Wi

0101100
-232 0 *
Ve
1e-07
208 710 18
0 0

0101101
*
Ed
 1e-07 1 1 0
1  46 0 0 6.28318530717959
2  91 5 7 0 6.28318530717959
2  92 12 0 0 6.28318530717959
0

0101100
+230 10 -230 10 *
Wi

0101100
-229 0 *
Ve
1e-07
229.763516931608 470.231991156842 18
0 0

0101101
*
Ed
 1e-07 1 1 0
1  47 0 0 6.28318530717959
2  93 5 5 0 6.28318530717959
2  94 13 0 0 6.28318530717959
0

0101100
+227 9 -227 9 *
Wi

0101100
-226 6 *
Ve
1e-07
272.518008843158 512.986483068392 18
0 0

0101101
*
Ed
 1e-07 1 1 0
1  48 0 0 6.28318530717959
2  95 5 5 0 6.28318530717959
2  96 14 0 0 6.28318530717959
0

0101100
+224 9 -224 9 *
Wi

0101100
-223 6 *
Ve
1e-07
223 640 18
0 0

0101101
*
Ed
 1e-07 1 1 0
1  49 0 0 6.28318530717959
2  97 5 7 0 6.28318530717959
2  98 35 0 0 6.28318530717959
0

0101000
+221 10 -221 10 *
Wi

0101100
-220 0 *
Ve
1e-07
204.75 657.5 18
0 0

0101101
*
Ed
 1e-07 1 1 0
1  50 0 0 6.28318530717959
2  99 5 7 0 6.28318530717959
2  100 15 0 0 6.28318530717959
0

0101100
+218 10 -218 10 *
Wi

0101100
-217 0 *
Ve
1e-07
382.75 180 18
0 0

0101101
*
Ed
 1e-07 1 1 0
1  51 0 0 6.28318530717959
2  101 5 5 0 6.28318530717959
2  102 16 0 0 6.28318530717959
0

0101100
+215 9 -215 9 *
Wi

0101100
-214 6 *
Ve
1e-07
332.981991156842 367.013516931608 18
0 0

0101101
*
Ed
 1e-07 1 1 0
1  52 0 0 6.28318530717959
2  103 5 5 0 6.28318530717959
2  104 17 0 0 6.28318530717959
0

0101100
+212 9 -212 9 *
Wi

0101100
-211 6 *
Ve
1.00000057e-07
371.75 440 18
0 0

0101101
*
Ed
 1e-07 1 1 0
1  53 0 0 6.28318530717959
2  105 5 5 0 6.28318530717959
2  106 18 0 0 6.28318530717959
0

0101100
+209 9 -209 9 *
Wi

0101100
-208 6 *
Ve
1e-07
382.75 340 18
0 0

0101101
*
Ed
 1e-07 1 1 0
1  54 0 0 6.28318530717959
2  107 5 5 0 6.28318530717959
2  108 19 0 0 6.28318530717959
0

0101100
+206 9 -206 9 *
Wi

0101100
-205 6 *
Ve
1e-07
375.736483068392 409.768008843158 18
0 0

0101101
*
Ed
 1e-07 1 1 0
1  55 0 0 6.28318530717959
2  109 5 5 0 6.28318530717959
2  110 20 0 0 6.28318530717959
0

0101100
+203 9 -203 9 *
Wi

0101100
-202 6 *
Ve
1e-07
332.981991156842 512.986483068392 18
0 0

0101101
*
Ed
 1e-07 1 1 0
1  56 0 0 6.28318530717959
2  111 5 5 0 6.28318530717959
2  112 21 0 0 6.28318530717959
0

0101100
+200 9 -200 9 *
Wi

0101100
-199 6 *
Ve
1e-07
375.736483068392 470.231991156842 18
0 0

0101101
*
Ed
 1e-07 1 1 0
1  57 0 0 6.28318530717959
2  113 5 5 0 6.28318530717959
2  114 22 0 0 6.28318530717959
0

0101100
+197 9 -197 9 *
Wi

0101100
-196 6 *
Ve
1e-07
383 640 18
0 0

0101101
*
Ed
 1e-07 1 1 0
1  58 0 0 6.28318530717959
2  115 5 7 0 6.28318530717959
2  116 36 0 0 6.28318530717959
0

0101000
+194 10 -194 10 *
Wi

0101100
-193 0 *
Ve
1e-07
399.75 657.5 18
0 0

0101101
*
Ed
 1e-07 1 1 0
1  59 0 0 6.28318530717959
2  117 5 7 0 6.28318530717959
2  118 23 0 0 6.28318530717959
0

0101100
+191 10 -191 10 *
Wi

0101100
-190 0 *
Ve
1e-07
508 710 18
0 0

0101101
*
Ed
 1e-07 1 1 0
1  60 0 0 6.28318530717959
2  119 5 7 0 6.28318530717959
2  120 24 0 0 6.28318530717959
0

0101100
+188 10 -188 10 *
Wi

0101100
-187 0 *
Ve
1e-07
523 640 18
0 0

0101101
*
Ed
 1e-07 1 1 0
1  61 0 0 6.28318530717959
2  121 5 7 0 6.28318530717959
2  122 37 0 0 6.28318530717959
0

0101000
+185 10 -185 10 *
Wi

0101100
-184 0 *
Ve
1e-07
504.75 657.5 18
0 0

0101101
*
Ed
 1e-07 1 1 0
1  62 0 0 6.28318530717959
2  123 5 7 0 6.28318530717959
2  124 25 0 0 6.28318530717959
0

0101100
+182 10 -182 10 *
Wi

0101100
-181 0 *
Ve
1e-07
83 780 18
0 0

0101101
*
Ed
 1e-07 1 1 0
1  63 0 0 6.28318530717959
2  125 5 7 0 6.28318530717959
2  126 38 0 0 6.28318530717959
0

0101000
+179 10 -179 10 *
Wi

0101100
-178 0 *
Ve
1e-07
99.75 762.5 18
0 0

0101101
*
Ed
 1e-07 1 1 0
1  64 0 0 6.28318530717959
2  127 5 7 0 6.28318530717959
2  128 26 0 0 6.28318530717959
0

0101100
+176 10 -176 10 *
Wi

0101100
-175 0 *
Ve
1e-07
182.75 850 18
0 0

0101101
*
Ed
 1e-07 1 1 0
1  65 0 0 6.28318530717959
2  129 5 5 0 6.28318530717959
2  130 27 0 0 6.28318530717959
0

0101100
+173 9 -173 9 *
Wi

0101100
-172 6 *
Ve
1e-07
204.75 762.5 18
0 0

0101101
*
Ed
 1e-07 1 1 0
1  66 0 0 6.28318530717959
2  131 5 7 0 6.28318530717959
2  132 28 0 0 6.28318530717959
0

0101100
+170 10 -170 10 *
Wi

0101100
-169 0 *
Ve
1e-07
223 780 18
0 0

0101101
*
Ed
 1e-07 1 1 0
1  67 0 0 6.28318530717959
2  133 5 7 0 6.28318530717959
2  134 39 0 0 6.28318530717959
0

0101000
+167 10 -167 10 *
Wi

0101100
-166 0 *
Ve
1e-07
182.75 1270 18
0 0

0101101
*
Ed
 1e-07 1 1 0
1  68 0 0 6.28318530717959
2  135 5 5 0 6.28318530717959
2  136 29 0 0 6.28318530717959
0

0101100
+164 9 -164 9 *
Wi

0101100
-163 6 *
Ve
1e-07
383 780 18
0 0

0101101
*
Ed
 1e-07 1 1 0
1  69 0 0 6.28318530717959
2  137 5 7 0 6.28318530717959
2  138 40 0 0 6.28318530717959
0

0101000
+161 10 -161 10 *
Wi

0101100
-160 0 *
Ve
1e-07
399.75 762.5 18
0 0

0101101
*
Ed
 1e-07 1 1 0
1  70 0 0 6.28318530717959
2  139 5 7 0 6.28318530717959
2  140 30 0 0 6.28318530717959
0

0101100
+158 10 -158 10 *
Wi

0101100
-157 0 *
Ve
1e-07
422.75 850 18
0 0

0101101
*
Ed
 1e-07 1 1 0
1  71 0 0 6.28318530717959
2  141 5 5 0 6.28318530717959
2  142 31 0 0 6.28318530717959
0

0101100
+155 9 -155 9 *
Wi

0101100
-154 6 *
Ve
1e-07
504.75 762.5 18
0 0

0101101
*
Ed
 1e-07 1 1 0
1  72 0 0 6.28318530717959
2  143 5 7 0 6.28318530717959
2  144 32 0 0 6.28318530717959
0

0101100
+152 10 -152 10 *
Wi

0101100
-151 0 *
Ve
1e-07
523 780 18
0 0

0101101
*
Ed
 1e-07 1 1 0
1  73 0 0 6.28318530717959
2  145 5 7 0 6.28318530717959
2  146 41 0 0 6.28318530717959
0

0101000
+149 10 -149 10 *
Wi

0101100
-148 0 *
Ve
1e-07
422.75 1270 18
0 0

0101101
*
Ed
 1e-07 1 1 0
1  74 0 0 6.28318530717959
2  147 5 5 0 6.28318530717959
2  148 33 0 0 6.28318530717959
0

0101100
+146 9 -146 9 *
Wi

0101100
-145 6 *
Fa
0  1e-07 5 7

0111000
+249 0 +246 0 +243 0 +240 0 +237 0 +234 0 +231 0 +228 0 +225 0 +222 0 
+219 0 +216 0 +213 0 +210 0 +207 0 +204 0 +201 0 +198 0 +195 0 +192 0 
+189 0 +186 0 +183 0 +180 0 +177 0 +174 0 +171 0 +168 0 +165 0 +162 0 
+159 0 +156 0 +153 0 +150 0 +147 0 +144 0 *
Wi

0101100
-345 0 -339 0 +253 0 +250 0 *
Fa
0  1e-07 6 0

0111000
+142 0 *
Ed
 1e-07 1 1 0
1  75 0 1 19
3  149 150CN 7 0 1 19
0

0101000
+248 9 -337 9 *
Wi

0101100
-336 0 +140 0 +247 0 -140 0 *
Fa
0  1e-07 7 0

0111000
+139 0 *
Ed
 1e-07 1 1 0
1  76 0 1 19
3  151 152CN 8 0 1 19
0

0101000
+245 9 -334 9 *
Wi

0101100
-333 0 +137 0 +244 0 -137 0 *
Fa
0  1e-07 8 0

0111000
+136 0 *
Ed
 1e-07 1 1 0
1  77 0 1 19
3  153 154CN 9 0 1 19
0

0101000
+242 9 -331 9 *
Wi

0101100
-330 0 +134 0 +241 0 -134 0 *
Fa
0  1e-07 9 0

0111000
+133 0 *
Ed
 1e-07 1 1 0
1  78 0 1 19
3  155 156CN 10 0 1 19
0

0101000
+239 9 -328 9 *
Wi

0101100
-327 0 +131 0 +238 0 -131 0 *
Fa
0  1e-07 10 0

0111000
+130 0 *
Ed
 1e-07 1 1 0
1  79 0 1 19
3  157 158CN 11 0 1 19
0

0101000
+233 10 -325 10 *
Wi

0101100
-324 0 +128 0 +232 0 -128 0 *
Fa
0  1e-07 11 0

0111000
+127 0 *
Ed
 1e-07 1 1 0
1  80 0 1 19
3  159 160CN 12 0 1 19
0

0101000
+230 10 -322 10 *
Wi

0101100
-321 0 +125 0 +229 0 -125 0 *
Fa
0  1e-07 12 0

0111000
+124 0 *
Ed
 1e-07 1 1 0
1  81 0 1 19
3  161 162CN 13 0 1 19
0

0101000
+227 9 -319 9 *
Wi

0101100
-318 0 +122 0 +226 0 -122 0 *
Fa
0  1e-07 13 0

0111000
+121 0 *
Ed
 1e-07 1 1 0
1  82 0 1 19
3  163 164CN 14 0 1 19
0

0101000
+224 9 -316 9 *
Wi

0101100
-315 0 +119 0 +223 0 -119 0 *
Fa
0  1e-07 14 0

0111000
+118 0 *
Ed
 1e-07 1 1 0
1  83 0 1 19
3  165 166CN 15 0 1 19
0

0101000
+218 10 -313 10 *
Wi

0101100
-312 0 +116 0 +217 0 -116 0 *
Fa
0  1e-07 15 0

0111000
+115 0 *
Ed
 1e-07 1 1 0
1  84 0 1 19
3  167 168CN 16 0 1 19
0

0101000
+215 9 -310 9 *
Wi

0101100
-309 0 +113 0 +214 0 -113 0 *
Fa
0  1e-07 16 0

0111000
+112 0 *
Ed
 1e-07 1 1 0
1  85 0 1 19
3  169 170CN 17 0 1 19
0

0101000
+212 9 -307 9 *
Wi

0101100
-306 0 +110 0 +211 0 -110 0 *
Fa
0  1e-07 17 0

0111000
+109 0 *
Ed
 1e-07 1 1 0
1  86 0 1 19
3  171 172CN 18 0 1 19
0

0101000
+209 9 -304 9 *
Wi

0101100
-303 0 +107 0 +208 0 -107 0 *
Fa
0  1e-07 18 0

0111000
+106 0 *
Ed
 1e-07 1 1 0
1  87 0 1 19
3  173 174CN 19 0 1 19
0

0101000
+206 9 -301 9 *
Wi

0101100
-300 0 +104 0 +205 0 -104 0 *
Fa
0  1e-07 19 0

0111000
+103 0 *
Ed
 1e-07 1 1 0
1  88 0 1 19
3  175 176CN 20 0 1 19
0

0101000
+203 9 -298 9 *
Wi

0101100
-297 0 +101 0 +202 0 -101 0 *
Fa
0  1e-07 20 0

0111000
+100 0 *
Ed
 1e-07 1 1 0
1  89 0 1 19
3  177 178CN 21 0 1 19
0

0101000
+200 9 -295 9 *
Wi

0101100
-294 0 +98 0 +199 0 -98 0 *
Fa
0  1e-07 21 0

0111000
+97 0 *
Ed
 1e-07 1 1 0
1  90 0 1 19
3  179 180CN 22 0 1 19
0

0101000
+197 9 -292 9 *
Wi

0101100
-291 0 +95 0 +196 0 -95 0 *
Fa
0  1e-07 22 0

0111000
+94 0 *
Ed
 1e-07 1 1 0
1  91 0 1 19
3  181 182CN 23 0 1 19
0

0101000
+191 10 -289 10 *
Wi

0101100
-288 0 +92 0 +190 0 -92 0 *
Fa
0  1e-07 23 0

0111000
+91 0 *
Ed
 1e-07 1 1 0
1  92 0 1 19
3  183 184CN 24 0 1 19
0

0101000
+188 10 -286 10 *
Wi

0101100
-285 0 +89 0 +187 0 -89 0 *
Fa
0  1e-07 24 0

0111000
+88 0 *
Ed
 1e-07 1 1 0
1  93 0 1 19
3  185 186CN 25 0 1 19
0

0101000
+182 10 -283 10 *
Wi

0101100
-282 0 +86 0 +181 0 -86 0 *
Fa
0  1e-07 25 0

0111000
+85 0 *
Ed
 1e-07 1 1 0
1  94 0 1 19
3  187 188CN 26 0 1 19
0

0101000
+176 10 -280 10 *
Wi

0101100
-279 0 +83 0 +175 0 -83 0 *
Fa
0  1e-07 26 0

0111000
+82 0 *
Ed
 1e-07 1 1 0
1  95 0 1 19
3  189 190CN 27 0 1 19
0

0101000
+173 9 -277 9 *
Wi

0101100
-276 0 +80 0 +172 0 -80 0 *
Fa
0  1e-07 27 0

0111000
+79 0 *
Ed
 1e-07 1 1 0
1  96 0 1 19
3  191 192CN 28 0 1 19
0

0101000
+170 10 -274 10 *
Wi

0101100
-273 0 +77 0 +169 0 -77 0 *
Fa
0  1e-07 28 0

0111000
+76 0 *
Ed
 1e-07 1 1 0
1  97 0 1 19
3  193 194CN 29 0 1 19
0

0101000
+164 9 -271 9 *
Wi

0101100
-270 0 +74 0 +163 0 -74 0 *
Fa
0  1e-07 29 0

0111000
+73 0 *
Ed
 1e-07 1 1 0
1  98 0 1 19
3  195 196CN 30 0 1 19
0

0101000
+158 10 -268 10 *
Wi

0101100
-267 0 +71 0 +157 0 -71 0 *
Fa
0  1e-07 30 0

0111000
+70 0 *
Ed
 1e-07 1 1 0
1  99 0 1 19
3  197 198CN 31 0 1 19
0

0101000
+155 9 -265 9 *
Wi

0101100
-264 0 +68 0 +154 0 -68 0 *
Fa
0  1e-07 31 0

0111000
+67 0 *
Ed
 1e-07 1 1 0
1  100 0 1 19
3  199 200CN 32 0 1 19
0

0101000
+152 10 -262 10 *
Wi

0101100
-261 0 +65 0 +151 0 -65 0 *
Fa
0  1e-07 32 0

0111000
+64 0 *
Ed
 1e-07 1 1 0
1  101 0 1 19
3  201 202CN 33 0 1 19
0

0101000
+146 9 -259 9 *
Wi

0101100
-258 0 +62 0 +145 0 -62 0 *
Fa
0  1e-07 33 0

0111000
+61 0 *
Ve
1e-07
83 640 26
0 0

0101101
*
Ed
 1e-07 1 1 0
1  102 0 0 6.28318530717959
2  203 34 0 0 6.28318530717959
2  204 42 0 0 6.28318530717959
2  205 43 12 0 6.28318530717959
2  206 43 14 0 6.28318530717959
0

0101000
+59 10 -59 10 *
Ed
 1e-07 1 1 0
1  103 0 0 8
3  207 208CN 34 0 0 8
0

0101000
+236 10 -59 10 *
Wi

0101100
-58 0 +57 0 +235 0 -57 0 *
Fa
0  1e-07 34 0

0111000
+56 0 *
Ve
1e-07
223 640 26
0 0

0101101
*
Ed
 1e-07 1 1 0
1  104 0 0 6.28318530717959
2  209 35 0 0 6.28318530717959
2  210 44 0 0 6.28318530717959
2  211 45 16 0 6.28318530717959
2  212 45 18 0 6.28318530717959
0

0101000
+54 10 -54 10 *
Ed
 1e-07 1 1 0
1  105 0 0 8
3  213 214CN 35 0 0 8
0

0101000
+221 10 -54 10 *
Wi

0101100
-53 0 +52 0 +220 0 -52 0 *
Fa
0  1e-07 35 0

0111000
+51 0 *
Ve
1e-07
383 640 26
0 0

0101101
*
Ed
 1e-07 1 1 0
1  106 0 0 6.28318530717959
2  215 36 0 0 6.28318530717959
2  216 46 0 0 6.28318530717959
2  217 47 20 0 6.28318530717959
2  218 47 22 0 6.28318530717959
0

0101000
+49 10 -49 10 *
Ed
 1e-07 1 1 0
1  107 0 0 8
3  219 220CN 36 0 0 8
0

0101000
+194 10 -49 10 *
Wi

0101100
-48 0 +47 0 +193 0 -47 0 *
Fa
0  1e-07 36 0

0111000
+46 0 *
Ve
1e-07
523 640 26
0 0

0101101
*
Ed
 1e-07 1 1 0
1  108 0 0 6.28318530717959
2  221 37 0 0 6.28318530717959
2  222 48 0 0 6.28318530717959
2  223 49 24 0 6.28318530717959
2  224 49 26 0 6.28318530717959
0

0101000
+44 10 -44 10 *
Ed
 1e-07 1 1 0
1  109 0 0 8
3  225 226CN 37 0 0 8
0

0101000
+185 10 -44 10 *
Wi

0101100
-43 0 +42 0 +184 0 -42 0 *
Fa
0  1e-07 37 0

0111000
+41 0 *
Ve
1e-07
83 780 26
0 0

0101101
*
Ed
 1e-07 1 1 0
1  110 0 0 6.28318530717959
2  227 38 0 0 6.28318530717959
2  228 50 0 0 6.28318530717959
2  229 51 28 0 6.28318530717959
2  230 51 30 0 6.28318530717959
0

0101000
+39 10 -39 10 *
Ed
 1e-07 1 1 0
1  111 0 0 8
3  231 232CN 38 0 0 8
0

0101000
+179 10 -39 10 *
Wi

0101100
-38 0 +37 0 +178 0 -37 0 *
Fa
0  1e-07 38 0

0111000
+36 0 *
Ve
1e-07
223 780 26
0 0

0101101
*
Ed
 1e-07 1 1 0
1  112 0 0 6.28318530717959
2  233 39 0 0 6.28318530717959
2  234 52 0 0 6.28318530717959
2  235 53 32 0 6.28318530717959
2  236 53 34 0 6.28318530717959
0

0101000
+34 10 -34 10 *
Ed
 1e-07 1 1 0
1  113 0 0 8
3  237 238CN 39 0 0 8
0

0101000
+167 10 -34 10 *
Wi

0101100
-33 0 +32 0 +166 0 -32 0 *
Fa
0  1e-07 39 0

0111000
+31 0 *
Ve
1e-07
383 780 26
0 0

0101101
*
Ed
 1e-07 1 1 0
1  114 0 0 6.28318530717959
2  239 40 0 0 6.28318530717959
2  240 54 0 0 6.28318530717959
2  241 55 36 0 6.28318530717959
2  242 55 38 0 6.28318530717959
0

0101000
+29 10 -29 10 *
Ed
 1e-07 1 1 0
1  115 0 0 8
3  243 244CN 40 0 0 8
0

0101000
+161 10 -29 10 *
Wi

0101100
-28 0 +27 0 +160 0 -27 0 *
Fa
0  1e-07 40 0

0111000
+26 0 *
Ve
1e-07
523 780 26
0 0

0101101
*
Ed
 1e-07 1 1 0
1  116 0 0 6.28318530717959
2  245 41 0 0 6.28318530717959
2  246 56 0 0 6.28318530717959
2  247 57 40 0 6.28318530717959
2  248 57 42 0 6.28318530717959
0

0101000
+24 10 -24 10 *
Ed
 1e-07 1 1 0
1  117 0 0 8
3  249 250CN 41 0 0 8
0

0101000
+149 10 -24 10 *
Wi

0101100
-23 0 +22 0 +148 0 -22 0 *
Fa
0  1e-07 41 0

0111000
+21 0 *
Wi

0101100
+58 0 *
Fa
0  1e-07 42 0

0111000
+19 0 *
Wi

0101100
+53 0 *
Fa
0  1e-07 44 0

0111000
+17 0 *
Wi

0101100
+48 0 *
Fa
0  1e-07 46 0

0111000
+15 0 *
Wi

0101100
+43 0 *
Fa
0  1e-07 48 0

0111000
+13 0 *
Wi

0101100
+38 0 *
Fa
0  1e-07 50 0

0111000
+11 0 *
Wi

0101100
+33 0 *
Fa
0  1e-07 52 0

0111000
+9 0 *
Wi

0101100
+28 0 *
Fa
0  1e-07 54 0

0111000
+7 0 *
Wi

0101100
+23 0 *
Fa
0  1e-07 56 0

0111000
+5 0 *
Sh

0101100
-349 7 -342 7 +256 0 +251 7 -143 0 +141 7 -138 6 -135 6 -132 6 -129 6 
-126 0 -123 0 -120 6 -117 6 -114 0 -111 6 -108 6 -105 6 -102 6 -99 6 
-96 6 -93 6 -90 0 -87 0 -84 0 -81 0 -78 6 -75 0 -72 6 -69 0 
-66 6 -63 0 -60 6 -55 0 -50 0 -45 0 -40 0 -35 0 -30 0 -25 0 
-20 0 -18 0 -16 0 -14 0 -12 0 -10 0 -8 0 -6 0 -4 0 *
So

0100000
+3 0 *
Co

1100000
+2 0 *

+1 4 