DBRep_DrawableShape

CASCADE Topology V1, (c) Matra-Datavision
Locations 13
1
              1               0               0               0 
              0               1               0               0 
              0               0               1               0 
1
              1               0               0               0 
              0               1               0               0 
              0               0               1               0 
1
              1               0               0               0 
              0               1               0               0 
              0               0               1               0 
1
              1               0               0               0 
              0               1               0               0 
              0               0               1               0 
1
              1               0               0             -18 
              0               1               0             -18 
              0               0               1             -18 
1
              1               0               0               0 
              0               1               0               0 
              0               0               1             -18 
1
              1               0               0               0 
              0               1               0               0 
              0               0               1               1 
1
              1               0               0               0 
              0               1               0               0 
              0               0               1              -1 
2  1 1 2 1 3 1 4 1 5 1 6 1 7 1 8 1 0
2  2 1 3 1 4 1 5 1 0
2  5 -1 4 -1 3 -1 2 -1 0
1
              1               0               0               0 
              0               1               0               0 
              0               0               1              18 
2  1 1 2 1 3 1 4 1 5 1 6 1 7 1 8 1 12 1 0
Curve2ds 6
2 354.98648306839164 391.76800884315793 1 0 -0 1 2.75
1 0 1 1 0 
2 354.98648306839164 391.76800884315793 1 0 -0 1 2.75
1 0 19 1 0 
1 6.2831853071795862 -0 0 1 
1 0 -0 0 1 
Curves 3
2 372.98648306839164 409.76800884315793 18 0 0 1 1 0 -0 -0 1 0 2.75
2 372.98648306839164 409.76800884315793 36 0 0 1 1 0 -0 -0 1 0 2.75
1 375.73648306839164 409.76800884315793 17 0 0 1 
Polygon3D 0
PolygonOnTriangulations 0
Surfaces 4
1 18 18 36 0 0 1 1 0 -0 -0 1 0 
1 18 18 18 0 0 1 1 0 -0 -0 1 0 
2 372.98648306839164 409.76800884315793 17 0 0 1 1 0 -0 -0 1 0 2.75
1 18 18 36 0 0 1 1 0 -0 -0 1 0 
Triangulations 0

TShapes 13
Ve
1e-07
357.736483068392 391.768008843158 0
0 0

0101101
*
Ed
 1e-07 1 1 0
1  1 0 0 6.28318530717959
2  1 2 1 0 6.28318530717959
2  2 3 0 0 6.28318530717959
0

0101000
+13 11 -13 11 *
Wi

0101100
+12 10 *
Fa
0  1e-07 1 9

0101000
+11 0 *
Ve
1e-07
357.736483068392 391.768008843158 18
0 0

0101101
*
Ed
 1e-07 1 1 0
1  2 0 0 6.28318530717959
2  3 4 1 0 6.28318530717959
2  4 3 0 0 6.28318530717959
0

0101000
+9 11 -9 11 *
Ed
 1e-07 1 1 0
1  3 0 1 19
3  5 6CN 3 0 1 19
0

0101000
+13 11 -9 11 *
Wi

0101100
-8 10 +7 10 +12 10 -7 10 *
Fa
0  1e-07 3 10

0101000
+6 0 *
Wi

0101100
+8 10 *
Fa
0  1e-07 1 13

0101000
+4 0 *
Sh

0101100
-10 0 +5 0 +3 0 *
So

0100000
+2 0 *

+1 0 