DBRep_DrawableShape

CASCADE Topology V1, (c) Matra-Datavision
Locations 14
1
              1               0               0               0 
              0               1               0               0 
              0               0               1               0 
1
              1               0               0               0 
              0               1               0               0 
              0               0               1               0 
1
              1               0               0               0 
              0               1               0               0 
              0               0               1               0 
1
              1               0               0               0 
              0               1               0               0 
              0               0               1               0 
1
              1               0               0             -18 
              0               1               0             -18 
              0               0               1             -18 
1
              1               0               0               0 
              0               1               0               0 
              0               0               1             -18 
1
              1               0               0               0 
              0               1               0               0 
              0               0               1               1 
1
              1               0               0               0 
              0               1               0               0 
              0               0               1              -1 
2  1 1 2 1 3 1 4 1 5 1 6 1 7 1 8 1 0
2  3 1 4 1 5 1 0
2  1 1 2 1 0
2  5 -1 4 -1 3 -1 0
1
              1               0               0               0 
              0               1               0               0 
              0               0               1              18 
2  1 1 2 1 3 1 4 1 5 1 6 1 7 1 8 1 13 1 0
Curve2ds 6
2 484.5 744.5 1 0 -0 1 2.25
1 0 1 1 0 
2 484.5 744.5 1 0 -0 1 2.25
1 0 19 1 0 
1 6.2831853071795862 -0 0 1 
1 0 -0 0 1 
Curves 3
2 502.5 762.5 18 0 0 1 1 0 -0 -0 1 0 2.25
2 502.5 762.5 36 0 0 1 1 0 -0 -0 1 0 2.25
1 504.75 762.5 17 0 0 1 
Polygon3D 0
PolygonOnTriangulations 0
Surfaces 4
1 18 18 36 0 0 1 1 0 -0 -0 1 0 
1 18 18 18 0 0 1 1 0 -0 -0 1 0 
2 502.5 762.5 17 0 0 1 1 0 -0 -0 1 0 2.25
1 18 18 36 0 0 1 1 0 -0 -0 1 0 
Triangulations 0

TShapes 13
Ve
1e-07
486.75 744.5 0
0 0

0101101
*
Ed
 1e-07 1 1 0
1  1 0 0 6.28318530717959
2  1 2 11 0 6.28318530717959
2  2 3 0 0 6.28318530717959
0

0101000
+13 12 -13 12 *
Wi

0101100
+12 10 *
Fa
0  1e-07 1 9

0101000
+11 0 *
Ve
1e-07
486.75 744.5 18
0 0

0101101
*
Ed
 1e-07 1 1 0
1  2 0 0 6.28318530717959
2  3 4 11 0 6.28318530717959
2  4 3 0 0 6.28318530717959
0

0101000
+9 12 -9 12 *
Ed
 1e-07 1 1 0
1  3 0 1 19
3  5 6CN 3 0 1 19
0

0101000
+13 12 -9 12 *
Wi

0101100
-8 10 +7 10 +12 10 -7 10 *
Fa
0  1e-07 3 10

0101000
+6 0 *
Wi

0101100
+8 10 *
Fa
0  1e-07 1 14

0101000
+4 0 *
Sh

0101100
-10 0 +5 0 +3 0 *
So

0100000
+2 0 *

+1 0 