DBRep_DrawableShape

CASCADE Topology V1, (c) Matra-Datavision
Locations 29
1
              1               0               0               0 
              0               1               0             -12 
              0               0               1               0 
1
              1               0               0               0 
              0 1.11022302462516e-16              -1               0 
              0               1 1.11022302462516e-16               0 
1
              1               0               0            -102 
              0               1               0             383 
              0               0               1         -1296.1 
1
              1               0               0               0 
              0               1               0               0 
              0               0               1              -0 
1
              1               0               0               0 
              0               1               0               0 
              0               0               1               1 
1
              1               0               0               0 
              0               1               0               0 
              0               0               1              -1 
2  1 1 2 1 3 1 4 1 5 1 6 1 0
2  6 -1 5 -1 4 -1 3 -1 2 -1 1 -1 0
1
              1               0               0               0 
              0               1               0               0 
              0               0               1              12 
2  1 1 2 1 3 1 4 1 5 1 6 1 9 1 0
2  9 -1 6 -1 5 -1 4 -1 3 -1 2 -1 1 -1 0
1
              1               0               0               0 
              0               1               0               0 
              0               0               1              -0 
1
              1               0               0               0 
              0               1               0               0 
              0               0               1               1 
1
              1               0               0               0 
              0               1               0               0 
              0               0               1              -1 
2  1 1 2 1 3 1 12 1 13 1 14 1 0
2  14 -1 13 -1 12 -1 3 -1 2 -1 1 -1 0
1
              1               0               0               0 
              0               1               0               0 
              0               0               1              12 
2  17 -1 14 -1 13 -1 12 -1 3 -1 2 -1 1 -1 0
1
              1               0               0               0 
              0               1               0               0 
              0               0               1              -0 
1
              1               0               0               0 
              0               1               0               0 
              0               0               1               1 
1
              1               0               0               0 
              0               1               0               0 
              0               0               1              -1 
2  1 1 2 1 3 1 19 1 20 1 21 1 0
2  21 -1 20 -1 19 -1 3 -1 2 -1 1 -1 0
1
              1               0               0               0 
              0               1               0               0 
              0               0               1              12 
2  24 -1 21 -1 20 -1 19 -1 3 -1 2 -1 1 -1 0
1
              1               0               0               0 
              0               1               0               0 
              0               0               1              12 
2  26 -1 0
2  1 1 2 1 3 1 12 1 13 1 14 1 17 1 0
2  1 1 2 1 3 1 19 1 20 1 21 1 24 1 0
Curve2ds 64
1 0 0 0 -1 
1 0 0 1.1102230246251565e-16 -1 
1 396 0 0 -1 
1 0 0 1.1102230246251565e-16 -1 
1 0 0 1 0 
1 0 0 0 1 
1 0 -12 1 0 
1 0 0 0 1 
1 328.99999999999994 3.6526337510167644e-14 1.1102230246251565e-16 -1 
1 0 0 0 -1 
1 0 0 1 0 
1 0 0 1 0 
1 1.3322676295501878e-15 -12 1 0 
1 0 0 1 0 
1 328.99999999999994 3.6526337510167644e-14 1.1102230246251565e-16 -1 
1 396 0 0 -1 
1 0 0 1 0 
1 0 396 1 0 
1 1.3322676295501878e-15 -12 1 0 
1 0 396 1 0 
1 0 0 1 0 
1 329 0 0 1 
1 0 0 1 0 
1 0 -12 1 0 
1 0 0 1 0 
1 0 -12 1 0 
1 0 0 1 0 
1 0 -12 1 0 
1 0 0 1 0 
1 0 -12 1 0 
1 0 0 1 0 
1 0 -12 1 0 
1 0 0 1 0 
1 0 -12 1 0 
1 0 0 1 0 
1 0 -12 1 0 
1 0 0 1 0 
1 0 -12 1 0 
1 0 0 1 0 
1 0 -12 1 0 
1 0 0 1 0 
1 0 -12 1 0 
1 0 -12 1 0 
1 329 0 0 1 
1 0 0 0 -1 
1 6.2831853071795862 0 0 -1 
1 0 0 0 -1 
1 6.2831853071795862 0 0 -1 
1 5.2347038021907419 0 0 -1 
1 1.5707963267948919 0 0 -1 
1 2.0931111486009408 0 0 -1 
1 6.2831853071795862 0 0 -1 
1 6.2831853071795862 0 0 -1 
1 2.0931111486009444 0 0 -1 
1 7.3316668121684314 0 0 -1 
1 1.5707963267948892 0 0 -1 
1 2.0931111486009479 0 0 -1 
1 2.093111148600947 0 0 -1 
1 1.5707963267949001 0 0 -1 
1 3.1415926535897931 0 0 -1 
1 3.1415926535897931 0 0 -1 
1 2.0931111486009506 0 0 -1 
1 4.1900741585786383 0 0 -1 
1 1.5707963267948966 0 0 -1 
Curves 36
1 0 329 0 0 0 1 
1 396 329 0 0 0 1 
1 102 1308.0999999999999 54 1 0 -0 
1 102 1308.0999999999999 54 1 0 -0 
1 0 5.6843418860808015e-14 0 0 0 1 
1 102 1308.0999999999999 54 0 0 1 
1 102 1308.0999999999999 54 0 0 1 
1 396 5.6843418860808015e-14 0 0 0 1 
1 498 1308.0999999999999 54 0 0 1 
1 498 1308.0999999999999 54 0 0 1 
1 102 1308.0999999999999 383 1 0 -0 
2 268 1308.0999999999999 190 -0 1 0 0 0 1 1 0 -0 2.25
2 332 1308.0999999999999 190 -0 1 0 0 0 1 1 0 -0 2.25
2 341.5 29.258342613226098 3.2862601528904627e-14 -0 0 -1 0.49888765156986109 -0.86666666666666536 -0 -0.86666666666666536 -0.49888765156986109 0 2
2 348 33.000000000000057 3.2862601528904627e-14 0 -0 1 0 -1 -0 1 0 0 9.5
2 348 33.000000000000057 3.2862601528904627e-14 0 -0 1 0 -1 -0 1 0 0 9.5
2 354.5 29.258342613226084 3.2862601528904627e-14 -0 0 -1 0 1 0 1 0 -0 2
1 356.5 185.75000000000003 3.2862601528904627e-14 0 1 0 
2 354.5 36.741657386774015 3.2862601528904627e-14 0 0 -1 -0.4988876515698612 0.86666666666666536 0 0.86666666666666536 0.4988876515698612 0 2
2 348 33.000000000000057 3.2862601528904627e-14 0 -0 1 0 -1 -0 1 0 0 9.5
2 348 33.000000000000057 3.2862601528904627e-14 0 -0 1 0 -1 -0 1 0 0 9.5
2 341.5 36.741657386774015 3.2862601528904627e-14 -0 -0 -1 0 -1 0 -1 0 0 2
1 339.5 185.75000000000003 3.2862601528904627e-14 0 1 0 
1 102 1308.0999999999999 383 1 0 -0 
1 166 190.75000000000003 0 0 0 1 
1 230 190.75000000000003 0 0 0 1 
1 339.76666666666671 28.260567310086369 3.2862601528904627e-14 0 0 1 
1 339.5 29.258342613226091 3.2862601528904627e-14 0 0 1 
1 348 23.500000000000057 1.0954200509634875e-14 0 0 1 
1 356.23333333333335 28.260567310086369 3.2862601528904627e-14 0 0 1 
1 356.5 29.25834261322612 3.2862601528904627e-14 0 0 1 
1 356.5 36.741657386774015 3.2862601528904627e-14 0 0 1 
1 356.23333333333335 37.739432689913727 3.2862601528904627e-14 0 0 1 
1 348 42.500000000000057 1.0954200509634875e-14 0 0 1 
1 339.76666666666665 37.739432689913741 3.2862601528904627e-14 0 0 1 
1 339.5 36.741657386774023 3.2862601528904627e-14 0 0 1 
Polygon3D 0
PolygonOnTriangulations 0
Surfaces 18
1 0 329 0 0 1 0 1 0 0 0 0 -1 
1 0 329 0 1 0 -0 0 -1 1.1102230246251565e-16 0 -1.1102230246251565e-16 -1 
1 396 329 0 1 0 -0 0 -1 1.1102230246251565e-16 0 -1.1102230246251565e-16 -1 
1 102 1308.0999999999999 54 -0 1 0 0 0 1 1 0 -0 
1 102 1308.0999999999999 54 -0 1 0 0 0 1 1 0 -0 
1 0 5.6843418860808015e-14 0 0 1 0 1 0 0 0 0 -1 
2 166 193.00000000000003 0 0 -1.1102230246251565e-16 -1 0 -1 1.1102230246251565e-16 1 0 0 2.25
2 230 193.00000000000003 0 0 -1.1102230246251565e-16 -1 0 -1 1.1102230246251565e-16 1 0 0 2.25
2 341.5 29.258342613226098 3.2862601528904627e-14 -0 0 -1 0.49888765156986109 -0.86666666666666536 -0 -0.86666666666666536 -0.49888765156986109 0 2
2 348 33.000000000000057 3.2862601528904627e-14 -0 0 -1 0 -1 -0 1 0 0 9.5
2 348 33.000000000000057 3.2862601528904627e-14 -0 0 -1 0 -1 -0 1 0 0 9.5
2 354.5 29.258342613226084 3.2862601528904627e-14 -0 0 -1 0 1 0 1 0 -0 2
2 354.5 36.741657386774015 3.2862601528904627e-14 0 0 -1 -0.4988876515698612 0.86666666666666536 0 0.86666666666666536 0.4988876515698612 0 2
2 348 33.000000000000057 3.2862601528904627e-14 -0 0 -1 0 -1 -0 1 0 0 9.5
2 348 33.000000000000057 3.2862601528904627e-14 -0 0 -1 0 -1 -0 1 0 0 9.5
2 341.5 36.741657386774015 3.2862601528904627e-14 -0 -0 -1 0 -1 0 -1 0 0 2
1 339.5 29.258342613226091 3.2862601528904627e-14 -1 0 0 0 1 0 0 0 -1 
1 356.5 29.25834261322612 3.2862601528904627e-14 -1 0 0 0 1 0 0 0 -1 
Triangulations 0

TShapes 127
Ve
1.00000056843419e-07
0 329 0
0 0

0101101
*
Ve
1.00000056843419e-07
0 329 12
0 0

0101101
*
Ed
 1.00000056843419e-07 1 1 0
1  1 0 0 12
2  1 1 0 0 12
2  2 2 0 0 12
0

0101000
+127 0 -126 0 *
Ve
1.00000056843419e-07
396 329 0
0 0

0101101
*
Ve
1.00000056843419e-07
396 329 12
0 0

0101101
*
Ed
 1.00000056843419e-07 1 1 0
1  2 0 0 12
2  3 1 0 0 12
2  4 3 0 0 12
0

0101000
+124 0 -123 0 *
Ed
 1.00000056843419e-07 1 1 0
1  3 0 0 396
2  5 1 8 0 396
2  6 4 0 0 396
0

0101000
+127 8 -124 8 *
Ed
 1.00000056843419e-07 1 1 0
1  4 0 0 396
2  7 1 11 0 396
2  8 5 0 0 396
0

0101000
+126 11 -123 11 *
Wi

0101100
+125 0 -122 0 -121 7 +120 10 *
Fa
0  1.00000056843419e-07 1 0

0101000
+119 0 *
Ve
1e-07
0 5.6843418860808e-14 0
0 0

0101101
*
Ve
1e-07
0 5.6843418860808e-14 12
0 0

0101101
*
Ed
 1e-07 1 1 0
1  5 0 0 12
2  9 2 0 0 12
2  10 6 0 0 12
0

0101000
+117 0 -116 0 *
Ed
 1e-07 1 1 0
1  6 0 0 329
2  11 2 8 0 329
2  12 4 0 0 329
0

0101000
+127 8 -117 8 *
Ed
 1e-07 1 1 0
1  7 0 0 329
2  13 2 11 0 329
2  14 5 0 0 329
0

0101000
+126 11 -116 11 *
Wi

0101100
+125 0 -115 0 -114 7 +113 10 *
Fa
0  1e-07 2 0

0101000
+112 0 *
Ve
1e-07
396 5.6843418860808e-14 0
0 0

0101101
*
Ve
1e-07
396 5.6843418860808e-14 12
0 0

0101101
*
Ed
 1e-07 1 1 0
1  8 0 0 12
2  15 3 0 0 12
2  16 6 0 0 12
0

0101000
+110 0 -109 0 *
Ed
 1e-07 1 1 0
1  9 0 0 329
2  17 3 8 0 329
2  18 4 0 0 329
0

0101000
+124 8 -110 8 *
Ed
 1e-07 1 1 0
1  10 0 0 329
2  19 3 11 0 329
2  20 5 0 0 329
0

0101000
+123 11 -109 11 *
Wi

0101100
+122 0 -108 0 -107 7 +106 10 *
Fa
0  1e-07 3 0

0101000
+105 0 *
Ed
 1e-07 1 1 0
1  11 0 0 396
2  21 6 8 0 396
2  22 4 0 0 396
0

0101000
+117 8 -110 8 *
Wi

0101100
-121 7 +114 7 -107 7 +103 7 *
Ve
1.00000015987212e-07
166 190.75 0
0 0

0101101
*
Ed
 1.00000015987212e-07 1 1 0
1  12 0 0 6.28318530717959
2  23 7 16 0 6.28318530717959
2  24 7 18 0 6.28318530717959
0

0101000
+101 16 -101 16 *
Wi

0101100
-100 15 *
Ve
1.00000015987212e-07
230 190.75 0
0 0

0101101
*
Ed
 1.00000015987212e-07 1 1 0
1  13 0 0 6.28318530717959
2  25 8 23 0 6.28318530717959
2  26 8 25 0 6.28318530717959
0

0101000
+98 23 -98 23 *
Wi

0101100
-97 22 *
Ve
1.50000035250101e-07
339.766666666667 28.2605673100864 3.28626015289046e-14
0 0

0101101
*
Ve
1.50000016250118e-07
339.5 29.2583426132261 3.28626015289046e-14
0 0

0101101
*
Ed
 1.00000000517704e-07 1 1 0
1  14 0 1.57079632679489 2.09311114860094
2  27 9 0 1.57079632679489 2.09311114860094
2  28 9 27 1.57079632679489 2.09311114860094
0

0101000
+95 0 -94 0 *
Ve
1.50000046204301e-07
348 23.5000000000001 1.09542005096349e-14
0 0

0101101
*
Ed
 1.50000035250101e-07 1 1 0
1  15 0 5.23470380219074 6.28318530717959
2  29 10 0 5.23470380219074 6.28318530717959
2  30 10 27 5.23470380219074 6.28318530717959
0

0101000
+95 0 -92 0 *
Ve
1.50000035321274e-07
356.233333333333 28.2605673100864 3.28626015289046e-14
0 0

0101101
*
Ed
 1.50000033973772e-07 1 1 0
1  16 0 6.28318530717959 7.33166681216843
2  31 11 0 6.28318530717959 7.33166681216843
2  32 11 27 6.28318530717959 7.33166681216843
0

0101000
+92 0 -90 0 *
Ve
1.50000016250118e-07
356.5 29.2583426132261 3.28626015289046e-14
0 0

0101101
*
Ed
 1.00000000517704e-07 1 1 0
1  17 0 1.57079632679489 2.09311114860094
2  33 12 0 1.57079632679489 2.09311114860094
2  34 12 27 1.57079632679489 2.09311114860094
0

0101000
+88 0 -90 0 *
Ve
1.50000017799111e-07
356.5 36.741657386774 3.28626015289046e-14
0 0

0101101
*
Ed
 1.50000016250118e-07 1 1 0
1  18 0 -156.491657386774 -149.008342613226
0

0101000
+88 0 -86 0 *
Ve
1.50000036546077e-07
356.233333333333 37.7394326899137 3.28626015289046e-14
0 0

0101101
*
Ed
 1.00000000517704e-07 1 1 0
1  19 0 1.5707963267949 2.09311114860095
2  35 13 0 1.5707963267949 2.09311114860095
2  36 13 27 1.5707963267949 2.09311114860095
0

0101000
+84 0 -86 0 *
Ve
1.50000050632826e-07
348 42.5000000000001 1.09542005096349e-14
0 0

0101101
*
Ed
 1.50000036546077e-07 1 1 0
1  20 0 2.09311114860095 3.14159265358979
2  37 14 0 2.09311114860095 3.14159265358979
2  38 14 27 2.09311114860095 3.14159265358979
0

0101000
+84 0 -82 0 *
Ve
1.50000039678626e-07
339.766666666667 37.7394326899137 3.28626015289046e-14
0 0

0101101
*
Ed
 1.50000039678626e-07 1 1 0
1  21 0 3.14159265358979 4.19007415857864
2  39 15 0 3.14159265358979 4.19007415857864
2  40 15 27 3.14159265358979 4.19007415857864
0

0101000
+82 0 -80 0 *
Ve
1.50000016319352e-07
339.5 36.741657386774 3.28626015289046e-14
0 0

0101101
*
Ed
 1.00000000517704e-07 1 1 0
1  22 0 1.5707963267949 2.09311114860095
2  41 16 0 1.5707963267949 2.09311114860095
2  42 16 27 1.5707963267949 2.09311114860095
0

0101000
+78 0 -80 0 *
Ed
 1.50000016250118e-07 1 1 0
1  23 0 -156.491657386774 -149.008342613226
0

0101000
+94 0 -78 0 *
Wi

0101100
+93 0 -91 0 -89 0 +87 0 -85 0 +83 0 -81 0 -79 0 +77 0 +76 0 
*
Fa
0  1e-07 4 7

0101000
+102 0 +99 0 +96 0 +75 0 *
Ed
 1e-07 1 1 0
1  24 0 0 396
2  43 6 11 0 396
2  44 5 0 0 396
0

0101000
+116 11 -109 11 *
Wi

0101100
-120 10 +113 10 -106 10 +73 10 *
Ve
1.00000015987212e-07
166 190.75 12
0 0

0101101
*
Ed
 1.00000015987212e-07 1 1 0
1  12 0 0 6.28318530717959
2  23 7 16 0 6.28318530717959
2  24 7 18 0 6.28318530717959
0

0101000
+71 18 -71 18 *
Wi

0101100
-70 28 *
Ve
1.00000015987212e-07
230 190.75 12
0 0

0101101
*
Ed
 1.00000015987212e-07 1 1 0
1  13 0 0 6.28318530717959
2  25 8 23 0 6.28318530717959
2  26 8 25 0 6.28318530717959
0

0101000
+68 25 -68 25 *
Wi

0101100
-67 29 *
Ve
1.50000035250101e-07
339.766666666667 28.2605673100864 12
0 0

0101101
*
Ve
1.50000016250118e-07
339.5 29.2583426132261 12
0 0

0101101
*
Ed
 1.00000001776357e-07 1 1 0
1  14 0 1.57079632679489 2.09311114860094
2  27 9 0 1.57079632679489 2.09311114860094
2  28 9 27 1.57079632679489 2.09311114860094
0

0101000
+65 27 -64 27 *
Ve
1.50000046204301e-07
348 23.5000000000001 12
0 0

0101101
*
Ed
 1.50000035250101e-07 1 1 0
1  15 0 5.23470380219074 6.28318530717959
2  29 10 0 5.23470380219074 6.28318530717959
2  30 10 27 5.23470380219074 6.28318530717959
0

0101000
+65 27 -62 27 *
Ve
1.50000035321274e-07
356.233333333333 28.2605673100864 12
0 0

0101101
*
Ed
 1.50000033973772e-07 1 1 0
1  16 0 6.28318530717959 7.33166681216843
2  31 11 0 6.28318530717959 7.33166681216843
2  32 11 27 6.28318530717959 7.33166681216843
0

0101000
+62 27 -60 27 *
Ve
1.50000016250118e-07
356.5 29.2583426132261 12
0 0

0101101
*
Ed
 1.00000001776357e-07 1 1 0
1  17 0 1.57079632679489 2.09311114860094
2  33 12 0 1.57079632679489 2.09311114860094
2  34 12 27 1.57079632679489 2.09311114860094
0

0101000
+58 27 -60 27 *
Ve
1.50000017799111e-07
356.5 36.741657386774 12
0 0

0101101
*
Ed
 1.50000016250118e-07 1 1 0
1  18 0 -156.491657386774 -149.008342613226
0

0101000
+58 27 -56 27 *
Ve
1.50000036546077e-07
356.233333333333 37.7394326899137 12
0 0

0101101
*
Ed
 1.00000000517704e-07 1 1 0
1  19 0 1.5707963267949 2.09311114860095
2  35 13 0 1.5707963267949 2.09311114860095
2  36 13 27 1.5707963267949 2.09311114860095
0

0101000
+54 27 -56 27 *
Ve
1.50000050632826e-07
348 42.5000000000001 12
0 0

0101101
*
Ed
 1.50000036546077e-07 1 1 0
1  20 0 2.09311114860095 3.14159265358979
2  37 14 0 2.09311114860095 3.14159265358979
2  38 14 27 2.09311114860095 3.14159265358979
0

0101000
+54 27 -52 27 *
Ve
1.50000039678626e-07
339.766666666667 37.7394326899137 12
0 0

0101101
*
Ed
 1.50000039678626e-07 1 1 0
1  21 0 3.14159265358979 4.19007415857864
2  39 15 0 3.14159265358979 4.19007415857864
2  40 15 27 3.14159265358979 4.19007415857864
0

0101000
+52 27 -50 27 *
Ve
1.50000016319352e-07
339.5 36.741657386774 12
0 0

0101101
*
Ed
 1.00000000517704e-07 1 1 0
1  22 0 1.5707963267949 2.09311114860095
2  41 16 0 1.5707963267949 2.09311114860095
2  42 16 27 1.5707963267949 2.09311114860095
0

0101000
+48 27 -50 27 *
Ed
 1.50000016250118e-07 1 1 0
1  23 0 -156.491657386774 -149.008342613226
0

0101000
+64 27 -48 27 *
Wi

0101100
+63 26 -61 26 -59 26 +57 26 -55 26 +53 26 -51 26 -49 26 +47 26 +46 26 
*
Fa
0  1e-07 5 10

0101000
+72 0 +69 0 +66 0 +45 0 *
Wi

0101100
+115 0 -108 0 -103 7 +73 10 *
Fa
0  1e-07 6 0

0101000
+43 0 *
Ed
 1.00000015987212e-07 1 1 0
1  25 0 0 12
3  45 46CN 7 0 0 12
0

0101000
+101 0 -71 0 *
Wi

0101100
+41 0 -41 0 -100 15 +70 28 *
Fa
0  1.00000015987212e-07 7 0

0101000
+40 0 *
Ed
 1.00000015987212e-07 1 1 0
1  26 0 0 12
3  47 48CN 8 0 0 12
0

0101000
+98 0 -68 0 *
Wi

0101100
+38 0 -38 0 -97 22 +67 29 *
Fa
0  1.00000015987212e-07 8 0

0101000
+37 0 *
Ed
 1.50000035250101e-07 1 1 0
1  27 0 0 12
2  49 10 0 0 12
2  50 9 0 0 12
4 G1 10 0 9 0
0

0101000
+95 0 -65 0 *
Ed
 1.50000016250118e-07 1 1 0
1  28 0 0 12
2  51 9 0 0 12
4 G1 17 0 9 0
0

0101000
+94 0 -64 0 *
Wi

0101100
+35 0 -34 0 -93 0 +63 26 *
Fa
0  1.00000000517704e-07 9 0

0101000
+33 0 *
Ed
 1.50000046204301e-07 1 1 0
1  29 0 0 12
2  52 11 0 0 12
2  53 10 0 0 12
4 C2 11 0 10 0
0

0101000
+92 0 -62 0 *
Wi

0101100
+35 0 -31 0 -91 0 +61 26 *
Fa
0  1.50000035250101e-07 10 0

0101000
+30 0 *
Ed
 1.50000035321274e-07 1 1 0
1  30 0 0 12
2  54 12 0 0 12
2  55 11 0 0 12
4 G1 12 0 11 0
0

0101000
+90 0 -60 0 *
Wi

0101100
+31 0 -28 0 -89 0 +59 26 *
Fa
0  1.50000033973772e-07 11 0

0101000
+27 0 *
Ed
 1.50000016250118e-07 1 1 0
1  31 0 0 12
2  56 12 0 0 12
4 G1 18 0 12 0
0

0101000
+88 0 -58 0 *
Wi

0101100
+25 0 -28 0 -87 0 +57 26 *
Fa
0  1.00000000517704e-07 12 0

0101000
+24 0 *
Ed
 1.50000017799111e-07 1 1 0
1  32 0 0 12
2  57 13 0 0 12
4 G1 13 0 18 0
0

0101000
+86 0 -56 0 *
Wi

0101100
+25 0 -22 0 -85 0 +55 26 *
Fa
0  1.50000016250118e-07 18 0

0101000
+21 0 *
Ed
 1.50000036546077e-07 1 1 0
1  33 0 0 12
2  58 14 0 0 12
2  59 13 0 0 12
4 G1 14 0 13 0
0

0101000
+84 0 -54 0 *
Wi

0101100
+19 0 -22 0 -83 0 +53 26 *
Fa
0  1.00000000517704e-07 13 0

0101000
+18 0 *
Ed
 1.50000050632826e-07 1 1 0
1  34 0 0 12
2  60 15 0 0 12
2  61 14 0 0 12
4 C2 15 0 14 0
0

0101000
+82 0 -52 0 *
Wi

0101100
+19 0 -16 0 -81 0 +51 26 *
Fa
0  1.50000036546077e-07 14 0

0101000
+15 0 *
Ed
 1.50000039678626e-07 1 1 0
1  35 0 0 12
2  62 16 0 0 12
2  63 15 0 0 12
4 G1 16 0 15 0
0

0101000
+80 0 -50 0 *
Wi

0101100
+16 0 -13 0 -79 0 +49 26 *
Fa
0  1.50000039678626e-07 15 0

0101000
+12 0 *
Ed
 1.50000016319352e-07 1 1 0
1  36 0 0 12
2  64 16 0 0 12
4 G1 17 0 16 0
0

0101000
+78 0 -48 0 *
Wi

0101100
+10 0 -13 0 -77 0 +47 26 *
Fa
0  1.00000000517704e-07 16 0

0101000
+9 0 *
Wi

0101100
+34 0 -10 0 -76 0 +46 26 *
Fa
0  1.50000016250118e-07 17 0

0101000
+7 0 *
Sh

0101100
+118 0 -111 0 +104 0 -74 0 +44 0 -42 0 +39 0 +36 0 -32 0 +29 0 
+26 0 -23 0 +20 0 -17 0 +14 0 +11 0 -8 0 -6 0 *
So

0100000
+5 0 *
Co

0100000
+4 0 *
Co

0100000
+3 0 *
Co

1100000
+2 0 *

+1 0 