DBRep_DrawableShape

CASCADE Topology V1, (c) Matra-Datavision
Locations 5
1
              1               0               0               0 
              0               1               0             -12 
              0               0               1               0 
1
              1               0               0               0 
              0 1.11022302462516e-16              -1               0 
              0               1 1.11022302462516e-16               0 
1
              1               0               0            -102 
              0               1               0             383 
              0               0               1         -1296.1 
2  1 1 2 1 3 1 0
2  1 -1 0
Curve2ds 72
1 0 0 1 0 
1 0 0 1 0 
1 329 0 0 -1 
1 0 0 0 1 
1 0 -12 1 0 
1 0 0 1 0 
1 0 0 0 -1 
1 0 0 0 1 
1 0 0 0 1 
1 0 0 1 0 
1 0 396 1 0 
1 0 0 1 0 
1 329 0 0 1 
1 0 0 1 0 
2 136 166 1 0 -0 1 2.25
1 0 1 1 0 
2 136 230 1 0 -0 1 2.25
1 0 1 1 0 
2 296 348 1 0 -0 1 9.5
1 0 1 1 0 
2 296 348 1 0 -0 1 9.5
1 0 1 1 0 
8 -156.99264068711932 -148.5073593128804
1 143.25 356.5 -1 0 
8 -156.99264068711932 -148.5073593128804
1 -143.25 -1 -1 -0 
2 296 348 1 0 -0 1 9.5
1 0 1 1 0 
2 296 348 1 0 -0 1 9.5
1 0 1 1 0 
8 -156.99264068711938 -148.5073593128804
1 143.25 339.5 -1 0 
8 -156.99264068711938 -148.5073593128804
1 -143.25 -1 -1 -0 
1 0 12 1 0 
1 329 0 0 1 
1 396 0 0 1 
1 329 0 0 -1 
1 0 0 0 1 
1 0 12 1 0 
1 0 396 1 0 
1 0 -12 1 0 
2 136 166 1 0 -0 1 2.25
1 0 13 1 0 
2 136 230 1 0 -0 1 2.25
1 0 13 1 0 
2 296 348 1 0 -0 1 9.5
1 0 13 1 0 
2 296 348 1 0 -0 1 9.5
1 0 13 1 0 
8 -156.99264068711932 -148.5073593128804
1 143.25 356.5 -1 0 
8 -156.99264068711932 -148.5073593128804
1 -143.25 -13 -1 -0 
2 296 348 1 0 -0 1 9.5
1 0 13 1 0 
2 296 348 1 0 -0 1 9.5
1 0 13 1 0 
8 -156.99264068711938 -148.5073593128804
1 143.25 339.5 -1 0 
8 -156.99264068711938 -148.5073593128804
1 -143.25 -13 -1 -0 
1 396 0 0 1 
1 0 0 0 -1 
1 6.2831853071795862 -0 0 1 
1 0 -0 0 1 
1 6.2831853071795862 -0 0 1 
1 0 -0 0 1 
8 -6.0000002122000002e-07 14.000000600000021
1 5.1753437083250446 0 0 1 
8 -6.0000002122000002e-07 14.000000600000021
1 13.742640687119263 0 0 -1 
1 6.2831853071795862 -0 0 1 
1 0 -0 0 1 
8 -6.0000002122000002e-07 14.000000600000021
1 1.107841598854542 0 0 1 
8 -6.0000002122000002e-07 14.000000600000021
1 13.742640687119263 0 0 -1 
8 -6.0000002122000002e-07 14.000000600000021
1 5.2573593128807374 0 0 -1 
8 -6.0000002122000002e-07 14.000000600000021
1 2.0337510547352511 0 0 1 
8 -6.0000002122000002e-07 14.000000600000021
1 3.1415926535897931 0 0 1 
8 -6.0000002122000002e-07 14.000000600000021
1 3.1415926535897931 0 0 1 
8 -6.0000002122000002e-07 14.000000600000021
1 4.2494342524443347 0 0 1 
8 -6.0000002122000002e-07 14.000000600000021
1 5.2573593128807374 0 0 -1 
Curves 36
1 102 1308.0999999999999 54 0 0 1 
1 102 1308.0999999999999 383 -0 1 0 
1 102 1320.0999999999999 54 0 0 1 
1 102 1308.0999999999999 54 -0 1 0 
1 102 1308.0999999999999 54 1 0 -0 
1 498 1308.0999999999999 54 0 0 1 
1 102 1308.0999999999999 383 1 0 -0 
2 268 1308.0999999999999 190 0 1 0 0 -0 1 1 0 -0 2.25
2 332 1308.0999999999999 190 0 1 0 0 -0 1 1 0 -0 2.25
2 450 1308.0999999999999 350 0 1 0 0 -0 1 1 0 -0 9.5
2 450 1308.0999999999999 350 0 1 0 0 -0 1 1 0 -0 9.5
1 458.5 1308.0999999999999 197.25 -0 0 -1 
2 450 1308.0999999999999 350 0 1 0 0 -0 1 1 0 -0 9.5
2 450 1308.0999999999999 350 0 1 0 0 -0 1 1 0 -0 9.5
1 441.5 1308.0999999999999 197.25 -0 0 -1 
1 102 1320.0999999999999 383 1 0 -0 
1 498 1308.0999999999999 383 -0 1 0 
1 102 1320.0999999999999 54 1 0 -0 
1 498 1320.0999999999999 54 0 0 1 
2 268 1320.0999999999999 190 0 1 0 0 -0 1 1 0 -0 2.25
2 332 1320.0999999999999 190 0 1 0 0 -0 1 1 0 -0 2.25
2 450 1320.0999999999999 350 0 1 0 0 -0 1 1 0 -0 9.5
2 450 1320.0999999999999 350 0 1 0 0 -0 1 1 0 -0 9.5
1 458.5 1320.0999999999999 197.25 -0 0 -1 
2 450 1320.0999999999999 350 0 1 0 0 -0 1 1 0 -0 9.5
2 450 1320.0999999999999 350 0 1 0 0 -0 1 1 0 -0 9.5
1 441.5 1320.0999999999999 197.25 -0 0 -1 
1 498 1308.0999999999999 54 -0 1 0 
1 268 1307.0999999999999 192.25 0 1 0 
1 332 1307.0999999999999 192.25 0 1 0 
1 441.5 1307.0999999999999 354.24264068711926 0 1 0 
1 450 1307.0999999999999 359.5 0 1 0 
1 458.5 1307.0999999999999 354.24264068711926 0 1 0 
1 458.5 1307.0999999999999 345.75735931288074 0 1 0 
1 450 1307.0999999999999 340.5 0 1 0 
1 441.5 1307.0999999999999 345.75735931288074 0 1 0 
Polygon3D 0
PolygonOnTriangulations 0
Surfaces 14
1 102 1308.0999999999999 54 1 0 -0 0 0 1 0 -1 0 
1 102 1308.0999999999999 54 -0 1 0 0 0 1 1 0 -0 
1 102 1308.0999999999999 383 0 0 1 1 0 -0 -0 1 0 
1 102 1320.0999999999999 54 -0 1 0 0 0 1 1 0 -0 
1 102 1308.0999999999999 54 0 0 1 1 0 -0 -0 1 0 
1 498 1308.0999999999999 54 1 0 -0 0 0 1 0 -1 0 
2 268 1307.0999999999999 190 0 1 0 0 -0 1 1 0 -0 2.25
2 332 1307.0999999999999 190 0 1 0 0 -0 1 1 0 -0 2.25
2 450 1307.0999999999999 350 0 1 0 0 -0 1 1 0 -0 9.5
2 450 1307.0999999999999 350 0 1 0 0 -0 1 1 0 -0 9.5
1 458.5 1307.0999999999999 340.5 1 0 -0 0 0 1 0 -1 0 
2 450 1307.0999999999999 350 0 1 0 0 -0 1 1 0 -0 9.5
2 450 1307.0999999999999 350 0 1 0 0 -0 1 1 0 -0 9.5
1 441.5 1307.0999999999999 340.5 1 0 -0 0 0 1 0 -1 0 
Triangulations 0

TShapes 99
Ve
1e-07
102 1296.1 383
0 0

0101101
*
Ve
1e-07
102 1296.1 54
0 0

0101101
*
Ed
 1e-07 1 1 0
1  1 0 0 329
2  1 1 0 0 329
2  2 2 0 0 329
0

0101000
-99 5 +98 5 *
Ve
1e-07
102 1308.1 383
0 0

0101101
*
Ed
 1e-07 1 1 0
1  2 0 0 12
2  3 1 0 0 12
2  4 3 0 0 12
0

0101000
-96 5 +99 5 *
Ve
1e-07
102 1308.1 54
0 0

0101101
*
Ed
 1e-07 1 1 0
1  3 0 0 329
2  5 1 0 0 329
2  6 4 0 0 329
0

0101000
-96 5 +94 5 *
Ed
 1e-07 1 1 0
1  4 0 0 12
2  7 1 0 0 12
2  8 5 0 0 12
0

0101000
-94 5 +98 5 *
Wi

0101100
-97 0 -95 0 +93 0 +92 0 *
Fa
0  1e-07 1 0

0111000
+91 0 *
Ve
1e-07
498 1296.1 54
0 0

0101101
*
Ed
 1e-07 1 1 0
1  5 0 0 396
2  9 2 0 0 396
2  10 5 0 0 396
0

0101000
-89 5 +98 5 *
Ve
1e-07
498 1296.1 383
0 0

0101101
*
Ed
 1e-07 1 1 0
1  6 0 0 329
2  11 2 0 0 329
2  12 6 0 0 329
0

0101000
-87 5 +89 5 *
Ed
 1e-07 1 1 0
1  7 0 0 396
2  13 2 0 0 396
2  14 3 0 0 396
0

0101000
-87 5 +99 5 *
Wi

0101100
-88 0 -86 0 +97 0 +85 0 *
Ve
1e-07
268 1296.1 192.25
0 0

0101101
*
Ed
 1e-07 1 1 0
1  8 0 0 6.28318530717959
2  15 2 0 0 6.28318530717959
2  16 7 0 0 6.28318530717959
0

0101100
+83 5 -83 5 *
Wi

0101100
-82 0 *
Ve
1e-07
332 1296.1 192.25
0 0

0101101
*
Ed
 1e-07 1 1 0
1  9 0 0 6.28318530717959
2  17 2 0 0 6.28318530717959
2  18 8 0 0 6.28318530717959
0

0101100
+80 5 -80 5 *
Wi

0101100
-79 0 *
Ve
1.50000114e-07
441.5 1296.1 354.242640687119
0 0

0101101
*
Ve
1e-07
450 1296.1 359.5
0 0

0101101
*
Ed
 1e-07 1 1 0
1  10 0 5.17534370832504 6.28318530717959
2  19 2 0 5.17534370832504 6.28318530717959
2  20 9 0 5.17534370832504 6.28318530717959
0

0101000
+77 5 -76 5 *
Ve
1.50000057e-07
458.5 1296.1 354.242640687119
0 0

0101101
*
Ed
 1e-07 1 1 0
1  11 0 0 1.10784159885454
2  21 2 0 0 1.10784159885454
2  22 10 0 0 1.10784159885454
0

0101000
+76 5 -74 5 *
Ve
1.50000341e-07
458.5 1296.1 345.757359312881
0 0

0101101
*
Ed
 1.5e-07 1 1 0
1  12 0 -156.992640687119 -148.50735931288
2  23 2 0 -156.992640687119 -148.50735931288
2  24 11 0 -156.992640687119 -148.50735931288
0

0101000
+74 5 -72 5 *
Ve
1e-07
450 1296.1 340.5
0 0

0101101
*
Ed
 1e-07 1 1 0
1  13 0 2.03375105473525 3.14159265358979
2  25 2 0 2.03375105473525 3.14159265358979
2  26 12 0 2.03375105473525 3.14159265358979
0

0101000
+72 5 -70 5 *
Ve
1.50000341e-07
441.5 1296.1 345.757359312881
0 0

0101101
*
Ed
 1e-07 1 1 0
1  14 0 3.14159265358979 4.24943425244433
2  27 2 0 3.14159265358979 4.24943425244433
2  28 13 0 3.14159265358979 4.24943425244433
0

0101000
+70 5 -68 5 *
Ed
 1.5e-07 1 1 0
1  15 0 -156.992640687119 -148.50735931288
2  29 2 0 -156.992640687119 -148.50735931288
2  30 14 0 -156.992640687119 -148.50735931288
0

0101000
+77 5 -68 5 *
Wi

0101100
-75 0 -73 0 -71 0 -69 0 -67 0 +66 0 *
Fa
0  1e-07 2 0

0111000
+84 0 +81 0 +78 0 +65 0 *
Ve
1e-07
498 1308.1 383
0 0

0101101
*
Ed
 1e-07 1 1 0
1  16 0 0 396
2  31 3 0 0 396
2  32 4 0 0 396
0

0101000
-63 5 +96 5 *
Ed
 1e-07 1 1 0
1  17 0 0 12
2  33 3 0 0 12
2  34 6 0 0 12
0

0101000
-63 5 +87 5 *
Wi

0101100
-95 0 -62 0 +61 0 +85 0 *
Fa
0  1e-07 3 0

0111000
+60 0 *
Ve
1e-07
498 1308.1 54
0 0

0101101
*
Ed
 1e-07 1 1 0
1  18 0 0 396
2  35 4 0 0 396
2  36 5 0 0 396
0

0101000
-58 5 +94 5 *
Ed
 1e-07 1 1 0
1  19 0 0 329
2  37 4 0 0 329
2  38 6 0 0 329
0

0101000
-63 5 +58 5 *
Wi

0101100
-57 0 -56 0 +93 0 +62 0 *
Ve
1e-07
268 1308.1 192.25
0 0

0101101
*
Ed
 1e-07 1 1 0
1  20 0 0 6.28318530717959
2  39 4 0 0 6.28318530717959
2  40 7 0 0 6.28318530717959
0

0101100
+54 5 -54 5 *
Wi

0101100
-53 0 *
Ve
1e-07
332 1308.1 192.25
0 0

0101101
*
Ed
 1e-07 1 1 0
1  21 0 0 6.28318530717959
2  41 4 0 0 6.28318530717959
2  42 8 0 0 6.28318530717959
0

0101100
+51 5 -51 5 *
Wi

0101100
-50 0 *
Ve
1.50000114e-07
441.5 1308.1 354.242640687119
0 0

0101101
*
Ve
1e-07
450 1308.1 359.5
0 0

0101101
*
Ed
 1e-07 1 1 0
1  22 0 5.17534370832504 6.28318530717959
2  43 4 0 5.17534370832504 6.28318530717959
2  44 9 0 5.17534370832504 6.28318530717959
0

0101000
+48 5 -47 5 *
Ve
1.50000057e-07
458.5 1308.1 354.242640687119
0 0

0101101
*
Ed
 1e-07 1 1 0
1  23 0 0 1.10784159885454
2  45 4 0 0 1.10784159885454
2  46 10 0 0 1.10784159885454
0

0101000
+47 5 -45 5 *
Ve
1.50000341e-07
458.5 1308.1 345.757359312881
0 0

0101101
*
Ed
 1.5e-07 1 1 0
1  24 0 -156.992640687119 -148.50735931288
2  47 4 0 -156.992640687119 -148.50735931288
2  48 11 0 -156.992640687119 -148.50735931288
0

0101000
+45 5 -43 5 *
Ve
1e-07
450 1308.1 340.5
0 0

0101101
*
Ed
 1e-07 1 1 0
1  25 0 2.03375105473525 3.14159265358979
2  49 4 0 2.03375105473525 3.14159265358979
2  50 12 0 2.03375105473525 3.14159265358979
0

0101000
+43 5 -41 5 *
Ve
1.50000341e-07
441.5 1308.1 345.757359312881
0 0

0101101
*
Ed
 1e-07 1 1 0
1  26 0 3.14159265358979 4.24943425244433
2  51 4 0 3.14159265358979 4.24943425244433
2  52 13 0 3.14159265358979 4.24943425244433
0

0101000
+41 5 -39 5 *
Ed
 1.5e-07 1 1 0
1  27 0 -156.992640687119 -148.50735931288
2  53 4 0 -156.992640687119 -148.50735931288
2  54 14 0 -156.992640687119 -148.50735931288
0

0101000
+48 5 -39 5 *
Wi

0101100
-46 0 -44 0 -42 0 -40 0 -38 0 +37 0 *
Fa
0  1e-07 4 0

0111000
+55 0 +52 0 +49 0 +36 0 *
Ed
 1e-07 1 1 0
1  28 0 0 12
2  55 5 0 0 12
2  56 6 0 0 12
0

0101000
-58 5 +89 5 *
Wi

0101100
-92 0 -57 0 +34 0 +88 0 *
Fa
0  1e-07 5 0

0111000
+33 0 *
Wi

0101100
-86 0 -61 0 +56 0 +34 0 *
Fa
0  1e-07 6 0

0111000
+31 0 *
Ed
 1e-07 1 1 0
1  29 0 1 13
3  57 58CN 7 0 1 13
0

0101000
+83 5 -54 5 *
Wi

0101100
-53 0 +29 0 +82 0 -29 0 *
Fa
0  1e-07 7 0

0111000
+28 0 *
Ed
 1e-07 1 1 0
1  30 0 1 13
3  59 60CN 8 0 1 13
0

0101000
+80 5 -51 5 *
Wi

0101100
-50 0 +26 0 +79 0 -26 0 *
Fa
0  1e-07 8 0

0111000
+25 0 *
Ed
 1e-07 1 1 0
1  31 0 1 13
2  61 9 0 1 13
2  62 14 0 1 13
0

0101000
+77 5 -48 5 *
Ed
 1e-07 1 1 0
1  32 0 1 13
2  63 9 0 1 13
2  64 10 0 1 13
4 CN 9 0 10 0
0

0101000
+76 5 -47 5 *
Wi

0101100
+75 0 -23 0 -46 0 +22 0 *
Fa
0  1e-07 9 0

0111000
+21 0 *
Ed
 1e-07 1 1 0
1  33 0 1 13
2  65 10 0 1 13
2  66 11 0 1 13
0

0101000
+74 5 -45 5 *
Wi

0101100
-44 0 +19 0 +73 0 -22 0 *
Fa
0  1e-07 10 0

0111000
+18 0 *
Ed
 1e-07 1 1 0
1  34 0 1 13
2  67 11 0 1 13
2  68 12 0 1 13
0

0101000
+72 5 -43 5 *
Wi

0101100
+71 0 -19 0 -42 0 +16 0 *
Fa
0  1e-07 11 0

0111000
+15 0 *
Ed
 1e-07 1 1 0
1  35 0 1 13
2  69 12 0 1 13
2  70 13 0 1 13
0

0101000
+70 5 -41 5 *
Wi

0101100
-40 0 +13 0 +69 0 -16 0 *
Fa
0  1e-07 12 0

0111000
+12 0 *
Ed
 1e-07 1 1 0
1  36 0 1 13
2  71 13 0 1 13
2  72 14 0 1 13
0

0101000
+68 5 -39 5 *
Wi

0101100
+67 0 -13 0 -38 0 +10 0 *
Fa
0  1e-07 13 0

0111000
+9 0 *
Wi

0101100
+66 0 -23 0 -37 0 +10 0 *
Fa
0  1e-07 14 0

0111000
+7 0 *
Sh

0101100
-90 0 -64 0 +59 0 +35 0 -32 0 +30 0 -27 0 -24 0 -20 0 -17 0 
-14 0 -11 0 -8 0 +6 0 *
So

0100000
+5 0 *
Co

0100000
+4 0 *
Co

0100000
+3 0 *
Co

1100000
+2 0 *

+1 4 