DBRep_DrawableShape

CASCADE Topology V1, (c) Matra-Datavision
Locations 8
1
              1               0               0               0 
              0               1               0               0 
              0               0               1              -1 
1
              1               0               0               0 
              0               1               0             -12 
              0               0               1               0 
1
              1               0               0               0 
              0 1.11022302462516e-16              -1               0 
              0               1 1.11022302462516e-16               0 
1
              1               0               0            -102 
              0               1               0             383 
              0               0               1         -1296.1 
1
              1               0               0               0 
              0               1               0               0 
              0               0               1              -0 
1
              1               0               0               0 
              0               1               0               0 
              0               0               1               1 
2  2 1 3 1 4 1 5 1 6 1 0
2  6 -1 5 -1 4 -1 3 -1 2 -1 0
Curve2ds 4
1 0 0 0 1 
1 0 396 1 0 
1 0 0 1 0 
1 329 0 0 1 
Curves 4
1 102 1308.0999999999999 54 1 0 -0 
1 498 1308.0999999999999 54 0 0 1 
1 102 1308.0999999999999 54 0 0 1 
1 102 1308.0999999999999 383 1 0 -0 
Polygon3D 0
PolygonOnTriangulations 0
Surfaces 1
1 102 1308.0999999999999 54 -0 1 0 0 0 1 1 0 -0 
Triangulations 0

TShapes 9
Ve
1.00000056843419e-07
0 329 1
0 0

0101101
*
Ve
1.00000056843419e-07
396 329 1
0 0

0101101
*
Ed
 1.00000056843419e-07 1 1 0
1  1 0 0 396
2  1 1 0 0 396
0

0101000
+9 8 -8 8 *
Ve
1.00000056843419e-07
396 5.6843418860808e-14 1
0 0

0101101
*
Ed
 1.00000056843419e-07 1 1 0
1  2 0 0 329
2  2 1 0 0 329
0

0101000
+8 8 -6 8 *
Ve
1.00000056843419e-07
0 5.6843418860808e-14 1
0 0

0101101
*
Ed
 1.00000056843419e-07 1 1 0
1  3 0 0 329
2  3 1 0 0 329
0

0101000
+9 8 -4 8 *
Ed
 1.00000056843419e-07 1 1 0
1  4 0 0 396
2  4 1 0 0 396
0

0101000
+4 8 -6 8 *
Wi

0101100
-7 7 -5 7 +3 7 +2 7 *

+1 1 