DBRep_DrawableShape

CASCADE Topology V1, (c) Matra-Datavision
Locations 0
Curve2ds 0
Curves 10
1 339.5 185.75000000000003 3.2862601528904627e-14 0 1 0 
2 341.5 36.741657386774015 3.2862601528904627e-14 -0 -0 -1 0 -1 0 -1 0 0 2
2 348 33.000000000000057 3.2862601528904627e-14 0 -0 1 0 -1 -0 1 0 0 9.5
2 348 33.000000000000057 3.2862601528904627e-14 0 -0 1 0 -1 -0 1 0 0 9.5
2 354.5 36.741657386774015 3.2862601528904627e-14 0 0 -1 -0.4988876515698612 0.86666666666666536 0 0.86666666666666536 0.4988876515698612 0 2
1 356.5 185.75000000000003 3.2862601528904627e-14 0 1 0 
2 354.5 29.258342613226084 3.2862601528904627e-14 -0 0 -1 0 1 0 1 0 -0 2
2 348 33.000000000000057 3.2862601528904627e-14 0 -0 1 0 -1 -0 1 0 0 9.5
2 348 33.000000000000057 3.2862601528904627e-14 0 -0 1 0 -1 -0 1 0 0 9.5
2 341.5 29.258342613226098 3.2862601528904627e-14 -0 0 -1 0.49888765156986109 -0.86666666666666536 -0 -0.86666666666666536 -0.49888765156986109 0 2
Polygon3D 0
PolygonOnTriangulations 0
Surfaces 1
1 347.99999999999994 33.00000000000005 3.2862601528904627e-14 0 0 1 1 0 -0 -0 1 0 
Triangulations 0

TShapes 23
Ve
1.50000016250118e-07
339.5 29.2583426132261 3.28626015289046e-14
0 0

0101101
*
Ve
1.50000016319352e-07
339.5 36.741657386774 3.28626015289046e-14
0 0

0101101
*
Ed
 1.50000016250118e-07 1 1 0
1  1 0 -156.491657386774 -149.008342613226
0

0101000
+23 0 -22 0 *
Ve
1.50000039678626e-07
339.766666666667 37.7394326899137 3.28626015289046e-14
0 0

0101101
*
Ed
 1.00000000517704e-07 1 1 0
1  2 0 1.5707963267949 2.09311114860095
0

0101000
+22 0 -20 0 *
Ve
1.50000050632826e-07
348 42.5000000000001 1.09542005096349e-14
0 0

0101101
*
Ed
 1.50000039678626e-07 1 1 0
1  3 0 3.14159265358979 4.19007415857864
0

0101000
+18 0 -20 0 *
Ve
1.50000036546077e-07
356.233333333333 37.7394326899137 3.28626015289046e-14
0 0

0101101
*
Ed
 1.50000036546077e-07 1 1 0
1  4 0 2.09311114860095 3.14159265358979
0

0101000
+16 0 -18 0 *
Ve
1.50000017799111e-07
356.5 36.741657386774 3.28626015289046e-14
0 0

0101101
*
Ed
 1.00000000517704e-07 1 1 0
1  5 0 1.5707963267949 2.09311114860095
0

0101000
+16 0 -14 0 *
Ve
1.50000016250118e-07
356.5 29.2583426132261 3.28626015289046e-14
0 0

0101101
*
Ed
 1.50000016250118e-07 1 1 0
1  6 0 -156.491657386774 -149.008342613226
0

0101000
+12 0 -14 0 *
Ve
1.50000035321274e-07
356.233333333333 28.2605673100864 3.28626015289046e-14
0 0

0101101
*
Ed
 1.00000000517704e-07 1 1 0
1  7 0 1.57079632679489 2.09311114860094
0

0101000
+12 0 -10 0 *
Ve
1.50000046204301e-07
348 23.5000000000001 1.09542005096349e-14
0 0

0101101
*
Ed
 1.50000033973772e-07 1 1 0
1  8 0 6.28318530717959 7.33166681216843
0

0101000
+8 0 -10 0 *
Ve
1.50000035250101e-07
339.766666666667 28.2605673100864 3.28626015289046e-14
0 0

0101101
*
Ed
 1.50000035250101e-07 1 1 0
1  9 0 5.23470380219074 6.28318530717959
0

0101000
+6 0 -8 0 *
Ed
 1.00000000517704e-07 1 1 0
1  10 0 1.57079632679489 2.09311114860094
0

0101000
+6 0 -23 0 *
Wi

0101100
+21 0 +19 0 -17 0 -15 0 +13 0 -11 0 +9 0 -7 0 -5 0 +4 0 
*
Fa
0  1e-07 1 0

0101000
-3 0 *
Sh

1101000
+2 0 *

+1 0 