DBRep_DrawableShape

CASCADE Topology V1, (c) Matra-Datavision
Locations 11
1
              1               0               0               0 
              0               1               0             -12 
              0               0               1               0 
1
              1               0               0               0 
              0 1.11022302462516e-16              -1               0 
              0               1 1.11022302462516e-16               0 
1
              1               0               0            -102 
              0               1               0             383 
              0               0               1         -1296.1 
1
              1               0               0               0 
              0               1               0               0 
              0               0               1              -0 
1
              1               0               0               0 
              0               1               0               0 
              0               0               1               1 
1
              1               0               0               0 
              0               1               0               0 
              0               0               1              -1 
2  1 1 2 1 3 1 4 1 5 1 6 1 0
2  1 1 2 1 3 1 0
2  3 -1 2 -1 1 -1 0
1
              1               0               0               0 
              0               1               0               0 
              0               0               1              12 
2  1 1 2 1 3 1 4 1 5 1 6 1 10 1 0
Curve2ds 44
8 -156.99264068711938 -148.5073593128804
1 143.25 339.5 -1 0 
8 -156.99264068711938 -148.5073593128804
1 -143.25 -1 -1 -0 
2 296 348 1 0 -0 1 9.5
1 0 1 1 0 
1 0 1 1 0 
2 296 348 1 0 -0 1 9.5
1 0 1 1 0 
1 0 1 1 0 
8 -156.99264068711932 -148.5073593128804
1 143.25 356.5 -1 0 
8 -156.99264068711932 -148.5073593128804
1 -143.25 -1 -1 -0 
2 296 348 1 0 -0 1 9.5
1 0 1 1 0 
1 0 1 1 0 
2 296 348 1 0 -0 1 9.5
1 0 1 1 0 
1 -6.2831853071795862 1 1 0 
8 -6.0000002122000002e-07 14.000000600000021
1 5.1753437083250446 0 0 1 
8 -6.0000002122000002e-07 14.000000600000021
1 13.742640687119263 0 0 -1 
1 -1.1078415988545416 -4.4408920985006262e-16 0 1 
8 -156.99264068711938 -148.5073593128804
1 143.25 339.5 -1 0 
8 -156.99264068711938 -148.5073593128804
1 -143.25 -13 -1 -0 
8 -6.0000002122000002e-07 14.000000600000021
1 4.2494342524443347 0 0 1 
8 -6.0000002122000002e-07 14.000000600000021
1 5.2573593128807374 0 0 -1 
1 4.2494342524443347 4.4408920985006262e-16 0 1 
8 -6.0000002122000002e-07 14.000000600000021
1 1.107841598854542 0 0 1 
8 -6.0000002122000002e-07 14.000000600000021
1 13.742640687119263 0 0 -1 
1 1.107841598854542 -4.4408920985006262e-16 0 1 
8 -156.99264068711932 -148.5073593128804
1 143.25 356.5 -1 0 
8 -156.99264068711932 -148.5073593128804
1 -143.25 -13 -1 -0 
8 -6.0000002122000002e-07 14.000000600000021
1 5.2573593128807374 0 0 -1 
8 -6.0000002122000002e-07 14.000000600000021
1 2.0337510547352511 0 0 1 
1 2.0337510547352511 4.4408920985006262e-16 0 1 
2 296 348 1 0 -0 1 9.5
1 0 13 1 0 
1 0 13 1 0 
2 296 348 1 0 -0 1 9.5
1 0 13 1 0 
1 0 13 1 0 
2 296 348 1 0 -0 1 9.5
1 0 13 1 0 
1 0 13 1 0 
2 296 348 1 0 -0 1 9.5
1 0 13 1 0 
1 -6.2831853071795862 13 1 0 
Curves 16
1 441.5 1308.0999999999999 197.25 -0 0 -1 
2 450 1308.0999999999999 350 0 1 0 0 -0 1 1 0 -0 9.5
2 450 1308.0999999999999 350 0 1 0 0 -0 1 1 0 -0 9.5
1 458.5 1308.0999999999999 197.25 -0 0 -1 
2 450 1308.0999999999999 350 0 1 0 0 -0 1 1 0 -0 9.5
2 450 1308.0999999999999 350 0 1 0 0 -0 1 1 0 -0 9.5
1 441.5 1307.0999999999999 354.24264068711926 0 1 0 
1 441.5 1320.0999999999999 197.25 -0 0 -1 
1 441.5 1307.0999999999999 345.75735931288074 0 1 0 
1 458.5 1307.0999999999999 354.24264068711926 0 1 0 
1 458.5 1320.0999999999999 197.25 -0 0 -1 
1 458.5 1307.0999999999999 345.75735931288074 0 1 0 
2 450 1320.0999999999999 350 0 1 0 0 -0 1 1 0 -0 9.5
2 450 1320.0999999999999 350 0 1 0 0 -0 1 1 0 -0 9.5
2 450 1320.0999999999999 350 0 1 0 0 -0 1 1 0 -0 9.5
2 450 1320.0999999999999 350 0 1 0 0 -0 1 1 0 -0 9.5
Polygon3D 0
PolygonOnTriangulations 0
Surfaces 11
1 102 1308.0999999999999 54 -0 1 0 0 0 1 1 0 -0 
1 102 1308.0999999999999 54 -0 1 0 0 0 1 1 0 -0 
1 441.5 1307.0999999999999 340.5 1 0 -0 0 0 1 0 -1 0 
2 450 1307.0999999999999 350 0 1 0 0 -0 1 1 0 -0 9.5
2 348 33.000000000000057 -1 0 1.1102230246251565e-16 1 0 -1 1.1102230246251565e-16 1 0 0 9.5
2 450 1307.0999999999999 350 0 1 0 0 -0 1 1 0 -0 9.5
1 458.5 1307.0999999999999 340.5 1 0 -0 0 0 1 0 -1 0 
2 450 1307.0999999999999 350 0 1 0 0 -0 1 1 0 -0 9.5
2 348 33.000000000000057 -1 0 1.1102230246251565e-16 1 0 -1 1.1102230246251565e-16 1 0 0 9.5
2 450 1307.0999999999999 350 0 1 0 0 -0 1 1 0 -0 9.5
1 102 1320.0999999999999 54 -0 1 0 0 0 1 1 0 -0 
Triangulations 0

TShapes 42
Ve
1.50000114e-07
339.5 28.7573593128808 0
0 0

0101101
*
Ve
1.50000341e-07
339.5 37.2426406871193 0
0 0

0101101
*
Ed
 1.5e-07 1 1 0
1  1 0 -156.992640687119 -148.50735931288
2  1 2 0 -156.992640687119 -148.50735931288
2  2 3 0 -156.992640687119 -148.50735931288
0

0101000
+42 9 -41 9 *
Ve
1.00000032862602e-07
348 42.5000000000001 0
0 0

0101101
*
Ed
 1.00000032862602e-07 1 1 0
1  2 0 3.14159265358979 4.24943425244433
2  3 2 0 3.14159265358979 4.24943425244433
2  4 4 0 3.14159265358979 4.24943425244433
2  5 5 9 3.14159265358979 4.24943425244433
0

0101000
+39 9 -41 9 *
Ve
1.50000341e-07
356.5 37.2426406871193 0
0 0

0101101
*
Ed
 1.00000032862602e-07 1 1 0
1  3 0 2.03375105473525 3.14159265358979
2  6 2 0 2.03375105473525 3.14159265358979
2  7 6 0 2.03375105473525 3.14159265358979
2  8 5 9 2.03375105473525 3.14159265358979
0

0101000
+37 9 -39 9 *
Ve
1.50000057e-07
356.5 28.7573593128808 0
0 0

0101101
*
Ed
 1.5e-07 1 1 0
1  4 0 -156.992640687119 -148.50735931288
2  9 2 0 -156.992640687119 -148.50735931288
2  10 7 0 -156.992640687119 -148.50735931288
0

0101000
+35 9 -37 9 *
Ve
1.00000033917313e-07
348 23.5000000000001 0
0 0

0101101
*
Ed
 1.00000032862602e-07 1 1 0
1  5 0 0 1.10784159885454
2  11 2 0 0 1.10784159885454
2  12 8 0 0 1.10784159885454
2  13 9 9 0 1.10784159885454
0

0101000
+33 9 -35 9 *
Ed
 1.00000032862602e-07 1 1 0
1  6 0 5.17534370832504 6.28318530717959
2  14 2 0 5.17534370832504 6.28318530717959
2  15 10 0 5.17534370832504 6.28318530717959
2  16 9 9 5.17534370832504 6.28318530717959
0

0101000
+42 9 -33 9 *
Wi

0101100
-40 8 +38 8 +36 8 +34 8 +32 8 +31 8 *
Fa
0  1e-07 1 7

0101000
+30 0 *
Ve
1.50000114e-07
339.5 28.7573593128808 12
0 0

0101101
*
Ed
 1e-07 1 1 0
1  7 0 1 13
2  17 10 0 1 13
2  18 3 0 1 13
2  19 9 9 1 13
0

0101000
+42 9 -28 9 *
Ve
1.50000341e-07
339.5 37.2426406871193 12
0 0

0101101
*
Ed
 1.5e-07 1 1 0
1  8 0 -156.992640687119 -148.50735931288
2  20 11 0 -156.992640687119 -148.50735931288
2  21 3 0 -156.992640687119 -148.50735931288
0

0101000
+28 9 -26 9 *
Ed
 1e-07 1 1 0
1  9 0 1 13
2  22 4 0 1 13
2  23 3 0 1 13
2  24 5 9 1 13
0

0101000
+41 9 -26 9 *
Wi

0101100
+40 8 -27 8 -25 8 +24 8 *
Fa
0  1e-07 3 8

0101000
+23 0 *
Ve
1.50000057e-07
356.5 28.7573593128808 12
0 0

0101101
*
Ed
 1e-07 1 1 0
1  10 0 1 13
2  25 8 0 1 13
2  26 7 0 1 13
2  27 9 9 1 13
0

0101000
+35 9 -21 9 *
Ve
1.50000341e-07
356.5 37.2426406871193 12
0 0

0101101
*
Ed
 1.5e-07 1 1 0
1  11 0 -156.992640687119 -148.50735931288
2  28 11 0 -156.992640687119 -148.50735931288
2  29 7 0 -156.992640687119 -148.50735931288
0

0101000
+21 9 -19 9 *
Ed
 1e-07 1 1 0
1  12 0 1 13
2  30 7 0 1 13
2  31 6 0 1 13
2  32 5 9 1 13
0

0101000
+37 9 -19 9 *
Wi

0101100
+34 8 -20 8 -18 8 +17 8 *
Fa
0  1e-07 7 8

0101000
+16 0 *
Ve
1.0000003375078e-07
348 42.5000000000001 12
0 0

0101101
*
Ed
 1.0000003375078e-07 1 1 0
1  13 0 3.14159265358979 4.24943425244433
2  33 11 0 3.14159265358979 4.24943425244433
2  34 4 0 3.14159265358979 4.24943425244433
2  35 5 9 3.14159265358979 4.24943425244433
0

0101000
+14 9 -26 9 *
Ed
 1.0000003375078e-07 1 1 0
1  14 0 2.03375105473525 3.14159265358979
2  36 11 0 2.03375105473525 3.14159265358979
2  37 6 0 2.03375105473525 3.14159265358979
2  38 5 9 2.03375105473525 3.14159265358979
0

0101000
+19 9 -14 9 *
Ve
1.0000003375078e-07
348 23.5000000000001 12
0 0

0101101
*
Ed
 1.0000003375078e-07 1 1 0
1  15 0 0 1.10784159885454
2  39 11 0 0 1.10784159885454
2  40 8 0 0 1.10784159885454
2  41 9 9 0 1.10784159885454
0

0101000
+11 9 -21 9 *
Ed
 1.0000003375078e-07 1 1 0
1  16 0 5.17534370832504 6.28318530717959
2  42 11 0 5.17534370832504 6.28318530717959
2  43 10 0 5.17534370832504 6.28318530717959
2  44 9 9 5.17534370832504 6.28318530717959
0

0101000
+28 9 -11 9 *
Wi

0101100
-25 8 +13 8 +12 8 +18 8 +10 8 +9 8 *
Fa
0  1e-07 1 11

0101000
+8 0 *
Wi

0101100
-17 8 +36 8 +38 8 +24 8 -13 8 -12 8 *
Fa
0  1e-07 5 0

0111000
+6 0 *
Wi

0101100
-9 8 -27 8 +31 8 +32 8 +20 8 -10 8 *
Fa
0  1e-07 9 0

0111000
+4 0 *
Sh

0101100
-29 0 -22 0 +15 0 +7 0 +5 0 +3 0 *
So

0100000
+2 0 *

+1 0 