DBRep_DrawableShape

CASCADE Topology V1, (c) Matra-Datavision
Locations 9
1
              1               0               0               0 
              0               1               0               0 
              0               0               1               0 
1
             -1               0 -1.22464679914735e-16               0 
              0               1               0               0 
1.22464679914735e-16               0              -1               0 
1
              1               0               0             580 
              0               1               0            -120 
              0               0               1             172 
2  1 1 2 1 3 1 0
1
              1               0               0               0 
              0               1               0               0 
              0               0               1               0 
1
              1               0               0               0 
              0               1               0               0 
              0               0               1               0 
2  5 1 6 1 0
2  1 -1 6 -1 5 -1 0
2  1 -1 0
Curve2ds 48
1 0 0 1 0 
1 0 0 1 0 
1 12 0 0 -1 
1 0 0 0 1 
1 0 -150 1 0 
1 0 0 1 0 
1 0 0 0 -1 
1 0 0 0 1 
1 0 0 0 1 
1 0 0 1 0 
1 0 560 1 0 
1 0 0 1 0 
1 12 0 0 1 
1 0 0 1 0 
1 0 150 1 0 
1 12 0 0 1 
1 560 0 0 1 
1 12 0 0 -1 
2 28 25 1 0 -0 1 2.75
1 0 13 1 0 
2 532 25 1 0 -0 1 2.75
1 0 13 1 0 
2 28 100 1 0 -0 1 2.75
1 0 13 1 0 
2 532 100 1 0 -0 1 2.75
1 0 13 1 0 
1 0 0 0 1 
1 0 150 1 0 
1 0 560 1 0 
1 0 -150 1 0 
1 560 0 0 1 
1 0 0 0 -1 
2 28 25 1 0 -0 1 2.75
1 0 1 1 0 
2 532 25 1 0 -0 1 2.75
1 0 1 1 0 
2 28 100 1 0 -0 1 2.75
1 0 1 1 0 
2 532 100 1 0 -0 1 2.75
1 0 1 1 0 
1 6.2831853071795862 -0 0 1 
1 0 -0 0 1 
1 6.2831853071795862 -0 0 1 
1 0 -0 0 1 
1 6.2831853071795862 -0 0 1 
1 0 -0 0 1 
1 6.2831853071795862 -0 0 1 
1 0 -0 0 1 
Curves 24
1 20 120 160 0 0 1 
1 20 120 172 -0 1 0 
1 20 270 160 0 0 1 
1 20 120 160 -0 1 0 
1 20 120 160 1 0 -0 
1 580 120 160 0 0 1 
1 20 120 172 1 0 -0 
1 20 270 172 1 0 -0 
1 580 120 172 -0 1 0 
2 48 145 172 0 0 1 1 0 -0 -0 1 0 2.75
2 552 145 172 0 0 1 1 0 -0 -0 1 0 2.75
2 48 220 172 0 0 1 1 0 -0 -0 1 0 2.75
2 552 220 172 0 0 1 1 0 -0 -0 1 0 2.75
1 20 270 160 1 0 -0 
1 580 270 160 0 0 1 
1 580 120 160 -0 1 0 
2 48 145 160 0 0 1 1 0 -0 -0 1 0 2.75
2 552 145 160 0 0 1 1 0 -0 -0 1 0 2.75
2 48 220 160 0 0 1 1 0 -0 -0 1 0 2.75
2 552 220 160 0 0 1 1 0 -0 -0 1 0 2.75
1 50.75 145 159 0 0 1 
1 554.75 145 159 0 0 1 
1 50.75 220 159 0 0 1 
1 554.75 220 159 0 0 1 
Polygon3D 0
PolygonOnTriangulations 0
Surfaces 10
1 20 120 160 1 0 -0 0 0 1 0 -1 0 
1 20 120 160 -0 1 0 0 0 1 1 0 -0 
1 20 120 172 0 0 1 1 0 -0 -0 1 0 
1 20 270 160 -0 1 0 0 0 1 1 0 -0 
1 20 120 160 0 0 1 1 0 -0 -0 1 0 
1 580 120 160 1 0 -0 0 0 1 0 -1 0 
2 48 145 159 0 0 1 1 0 -0 -0 1 0 2.75
2 552 145 159 0 0 1 1 0 -0 -0 1 0 2.75
2 48 220 159 0 0 1 1 0 -0 -0 1 0 2.75
2 552 220 159 0 0 1 1 0 -0 -0 1 0 2.75
Triangulations 0

TShapes 74
Ve
1e-07
20 120 172
0 0

0101101
*
Ve
1e-07
20 120 160
0 0

0101101
*
Ed
 1e-07 1 1 0
1  1 0 0 12
2  1 1 0 0 12
2  2 2 0 0 12
0

0101000
-74 8 +73 8 *
Ve
1e-07
20 270 172
0 0

0101101
*
Ed
 1e-07 1 1 0
1  2 0 0 150
2  3 1 0 0 150
2  4 3 0 0 150
0

0101000
-71 8 +74 8 *
Ve
1e-07
20 270 160
0 0

0101101
*
Ed
 1e-07 1 1 0
1  3 0 0 12
2  5 1 0 0 12
2  6 4 0 0 12
0

0101000
-71 8 +69 8 *
Ed
 1e-07 1 1 0
1  4 0 0 150
2  7 1 0 0 150
2  8 5 0 0 150
0

0101000
-69 8 +73 8 *
Wi

0101100
-72 0 -70 0 +68 0 +67 0 *
Fa
0  1e-07 1 0

0111000
+66 0 *
Ve
1e-07
580 120 160
0 0

0101101
*
Ed
 1e-07 1 1 0
1  5 0 0 560
2  9 2 0 0 560
2  10 5 0 0 560
0

0101000
-64 8 +73 8 *
Ve
1e-07
580 120 172
0 0

0101101
*
Ed
 1e-07 1 1 0
1  6 0 0 12
2  11 2 0 0 12
2  12 6 0 0 12
0

0101000
-62 8 +64 8 *
Ed
 1e-07 1 1 0
1  7 0 0 560
2  13 2 0 0 560
2  14 3 0 0 560
0

0101000
-62 8 +74 8 *
Wi

0101100
-63 0 -61 0 +60 0 +72 0 *
Fa
0  1e-07 2 0

0111000
+59 0 *
Ve
1e-07
580 270 172
0 0

0101101
*
Ed
 1e-07 1 1 0
1  8 0 0 560
2  15 3 0 0 560
2  16 4 0 0 560
0

0101000
-57 8 +71 8 *
Ed
 1e-07 1 1 0
1  9 0 0 150
2  17 3 0 0 150
2  18 6 0 0 150
0

0101000
-57 8 +62 8 *
Wi

0101100
-70 7 -56 7 +60 7 +55 7 *
Ve
1e-07
50.75 145 172
0 0

0101101
*
Ed
 1e-07 1 1 0
1  10 0 0 6.28318530717959
2  19 3 7 0 6.28318530717959
2  20 7 0 0 6.28318530717959
0

0101100
+53 9 -53 9 *
Wi

0101100
-52 0 *
Ve
1e-07
554.75 145 172
0 0

0101101
*
Ed
 1e-07 1 1 0
1  11 0 0 6.28318530717959
2  21 3 7 0 6.28318530717959
2  22 8 0 0 6.28318530717959
0

0101100
+50 9 -50 9 *
Wi

0101100
-49 0 *
Ve
1e-07
50.75 220 172
0 0

0101101
*
Ed
 1e-07 1 1 0
1  12 0 0 6.28318530717959
2  23 3 7 0 6.28318530717959
2  24 9 0 0 6.28318530717959
0

0101100
+47 9 -47 9 *
Wi

0101100
-46 0 *
Ve
1e-07
554.75 220 172
0 0

0101101
*
Ed
 1e-07 1 1 0
1  13 0 0 6.28318530717959
2  25 3 7 0 6.28318530717959
2  26 10 0 0 6.28318530717959
0

0101100
+44 9 -44 9 *
Wi

0101100
-43 0 *
Fa
0  1e-07 3 7

0111000
+54 0 +51 0 +48 0 +45 0 +42 0 *
Ve
1e-07
580 270 160
0 0

0101101
*
Ed
 1e-07 1 1 0
1  14 0 0 560
2  27 4 0 0 560
2  28 5 0 0 560
0

0101000
-40 8 +69 8 *
Ed
 1e-07 1 1 0
1  15 0 0 12
2  29 4 0 0 12
2  30 6 0 0 12
0

0101000
-57 8 +40 8 *
Wi

0101100
-39 0 -38 0 +56 0 +68 0 *
Fa
0  1e-07 4 0

0111000
+37 0 *
Ed
 1e-07 1 1 0
1  16 0 0 150
2  31 5 0 0 150
2  32 6 0 0 150
0

0101000
-40 8 +64 8 *
Wi

0101100
-67 7 -39 7 +63 7 +35 7 *
Ve
1e-07
50.75 145 160
0 0

0101101
*
Ed
 1e-07 1 1 0
1  17 0 0 6.28318530717959
2  33 5 7 0 6.28318530717959
2  34 7 0 0 6.28318530717959
0

0101100
+33 9 -33 9 *
Wi

0101100
-32 0 *
Ve
1e-07
554.75 145 160
0 0

0101101
*
Ed
 1e-07 1 1 0
1  18 0 0 6.28318530717959
2  35 5 7 0 6.28318530717959
2  36 8 0 0 6.28318530717959
0

0101100
+30 9 -30 9 *
Wi

0101100
-29 0 *
Ve
1e-07
50.75 220 160
0 0

0101101
*
Ed
 1e-07 1 1 0
1  19 0 0 6.28318530717959
2  37 5 7 0 6.28318530717959
2  38 9 0 0 6.28318530717959
0

0101100
+27 9 -27 9 *
Wi

0101100
-26 0 *
Ve
1e-07
554.75 220 160
0 0

0101101
*
Ed
 1e-07 1 1 0
1  20 0 0 6.28318530717959
2  39 5 7 0 6.28318530717959
2  40 10 0 0 6.28318530717959
0

0101100
+24 9 -24 9 *
Wi

0101100
-23 0 *
Fa
0  1e-07 5 7

0111000
+34 0 +31 0 +28 0 +25 0 +22 0 *
Wi

0101100
-61 0 -55 0 +38 0 +35 0 *
Fa
0  1e-07 6 0

0111000
+20 0 *
Ed
 1e-07 1 1 0
1  21 0 1 13
3  41 42CN 7 0 1 13
0

0101000
+33 9 -53 9 *
Wi

0101100
-52 0 +18 0 +32 0 -18 0 *
Fa
0  1e-07 7 0

0111000
+17 0 *
Ed
 1e-07 1 1 0
1  22 0 1 13
3  43 44CN 8 0 1 13
0

0101000
+30 9 -50 9 *
Wi

0101100
-49 0 +15 0 +29 0 -15 0 *
Fa
0  1e-07 8 0

0111000
+14 0 *
Ed
 1e-07 1 1 0
1  23 0 1 13
3  45 46CN 9 0 1 13
0

0101000
+27 9 -47 9 *
Wi

0101100
-46 0 +12 0 +26 0 -12 0 *
Fa
0  1e-07 9 0

0111000
+11 0 *
Ed
 1e-07 1 1 0
1  24 0 1 13
3  47 48CN 10 0 1 13
0

0101000
+24 9 -44 9 *
Wi

0101100
-43 0 +9 0 +23 0 -9 0 *
Fa
0  1e-07 10 0

0111000
+8 0 *
Sh

0101100
-65 7 -58 7 +41 0 +36 7 -21 0 +19 7 -16 0 -13 0 -10 0 -7 0 
*
So

0100000
+6 0 *
Co

0100000
+5 0 *
Co

0100000
+4 0 *
Co

0100000
+3 0 *
Co

1100000
+2 0 *

+1 4 