DBRep_DrawableShape

CASCADE Topology V1, (c) Matra-Datavision
Locations 45
1
              1               0               0               0 
              0               1               0               0 
              0               0               1               0 
1
              1               0               0               0 
              0               1               0             -35 
              0               0               1               0 
1
              1               0               0               0 
              0               1               0               0 
              0               0               1               0 
1
             -1               0 -1.22464679914735e-16               0 
              0               1               0               0 
1.22464679914735e-16               0              -1               0 
1
              1               0               0             580 
              0               1               0            -565 
              0               0               1             192 
1
              1               0               0               0 
              0               1               0               0 
              0               0               1              -0 
1
              1               0               0               0 
              0               1               0               0 
              0               0               1               1 
1
              1               0               0               0 
              0               1               0               0 
              0               0               1              -1 
2  1 1 2 1 3 1 4 1 5 1 6 1 7 1 8 1 0
2  8 -1 7 -1 6 -1 5 -1 4 -1 3 -1 2 -1 1 -1 0
1
              1               0               0               0 
              0               1               0               0 
              0               0               1              12 
2  1 1 2 1 3 1 4 1 5 1 6 1 7 1 8 1 11 1 0
2  11 -1 8 -1 7 -1 6 -1 5 -1 4 -1 3 -1 2 -1 1 -1 0
1
              1               0               0               0 
              0               1               0               0 
              0               0               1 2.8421709430404e-14 
1
              1               0               0               0 
              0               1               0               0 
              0               0               1               1 
1
              1               0               0               0 
              0               1               0               0 
              0               0               1              -1 
2  3 1 4 1 5 1 14 1 15 1 16 1 0
2  16 -1 15 -1 14 -1 5 -1 4 -1 3 -1 0
1
              1               0               0               0 
              0               1               0               0 
              0               0               1              12 
2  19 -1 16 -1 15 -1 14 -1 5 -1 4 -1 3 -1 0
1
              1               0               0               0 
              0               1               0               0 
              0               0               1 -2.8421709430404e-14 
1
              1               0               0               0 
              0               1               0               0 
              0               0               1               1 
1
              1               0               0               0 
              0               1               0               0 
              0               0               1              -1 
2  3 1 4 1 5 1 21 1 22 1 23 1 0
2  23 -1 22 -1 21 -1 5 -1 4 -1 3 -1 0
1
              1               0               0               0 
              0               1               0               0 
              0               0               1              12 
2  26 -1 23 -1 22 -1 21 -1 5 -1 4 -1 3 -1 0
1
              1               0               0               0 
              0               1               0               0 
              0               0               1 2.8421709430404e-14 
1
              1               0               0               0 
              0               1               0               0 
              0               0               1               1 
1
              1               0               0               0 
              0               1               0               0 
              0               0               1              -1 
2  3 1 4 1 5 1 28 1 29 1 30 1 0
2  30 -1 29 -1 28 -1 5 -1 4 -1 3 -1 0
1
              1               0               0               0 
              0               1               0               0 
              0               0               1              12 
2  33 -1 30 -1 29 -1 28 -1 5 -1 4 -1 3 -1 0
1
              1               0               0               0 
              0               1               0               0 
              0               0               1 -2.8421709430404e-14 
1
              1               0               0               0 
              0               1               0               0 
              0               0               1               1 
1
              1               0               0               0 
              0               1               0               0 
              0               0               1              -1 
2  3 1 4 1 5 1 35 1 36 1 37 1 0
2  37 -1 36 -1 35 -1 5 -1 4 -1 3 -1 0
1
              1               0               0               0 
              0               1               0               0 
              0               0               1              12 
2  40 -1 37 -1 36 -1 35 -1 5 -1 4 -1 3 -1 0
2  3 1 4 1 5 1 14 1 15 1 16 1 19 1 0
2  3 1 4 1 5 1 21 1 22 1 23 1 26 1 0
2  3 1 4 1 5 1 28 1 29 1 30 1 33 1 0
2  3 1 4 1 5 1 35 1 36 1 37 1 40 1 0
Curve2ds 40
1 0 0 0 -1 
1 0 -0 1.2246467991473532e-16 -1 
1 150 0 0 -1 
1 0 -0 1.2246467991473532e-16 -1 
1 0 0 1 0 
1 0 0 0 1 
1 0 -12 1 0 
1 0 0 0 1 
1 560 1.1736801891443769e-14 1.2246467991473532e-16 -1 
1 0 0 0 -1 
1 0 -0 1 0 
1 0 0 1 0 
1 1.4695761589768238e-15 -12 1 0 
1 0 0 1 0 
1 560 1.1736801891443769e-14 1.2246467991473532e-16 -1 
1 150 0 0 -1 
1 0 -0 1 0 
1 0 150 1 0 
1 1.4695761589768238e-15 -12 1 0 
1 0 150 1 0 
1 0 0 1 0 
1 560 0 0 1 
1 0 0 1 0 
1 0 -11.999999999999972 1 0 
1 0 0 1 0 
1 0 -12 1 0 
1 0 0 1 0 
1 0 -11.999999999999972 1 0 
1 0 0 1 0 
1 0 -12 1 0 
1 0 -12 1 0 
1 560 0 0 1 
1 0 0 0 -1 
1 6.2831853071795862 0 0 -1 
1 0 0 0 -1 
1 6.2831853071795862 0 0 -1 
1 0 0 0 -1 
1 6.2831853071795862 0 0 -1 
1 0 0 0 -1 
1 6.2831853071795862 0 0 -1 
Curves 20
1 560 0 -2.8421709430404007e-14 0 0 1 
1 560 150 -2.8421709430404007e-14 0 0 1 
1 20 600 192 -0 1 0 
1 20 600 192 -0 1 0 
1 0 0 2.8421709430404007e-14 0 0 1 
1 20 600 192 1 0 -0 
1 20 600 192 1 0 -0 
1 0 150 2.8421709430404007e-14 0 0 1 
1 20 750 192 1 0 -0 
1 20 750 192 1 0 -0 
1 580 600 192 -0 1 0 
2 48 590 192 0 -0 1 1 0 0 -0 1 0 2.75
2 552 590 192 0 -0 1 1 0 0 -0 1 0 2.75
2 48 665 192 0 -0 1 1 0 0 -0 1 0 2.75
2 552 665 192 0 -0 1 1 0 0 -0 1 0 2.75
1 580 600 192 -0 1 0 
1 529.25 25 -5.9211894646675012e-16 0 0 1 
1 25.25 25 0 0 0 1 
1 529.25 100 -5.9211894646675012e-16 0 0 1 
1 25.25 100 0 0 0 1 
Polygon3D 0
PolygonOnTriangulations 0
Surfaces 10
1 560 0 -2.8421709430404007e-14 -1 0 0 0 1 0 0 0 -1 
1 560 0 -2.8421709430404007e-14 0 -1 0 -1 0 1.2246467991473532e-16 -1.2246467991473532e-16 -0 -1 
1 560 150 -2.8421709430404007e-14 0 -1 0 -1 0 1.2246467991473532e-16 -1.2246467991473532e-16 -0 -1 
1 20 600 192 0 0 1 1 0 -0 -0 1 0 
1 20 600 192 0 0 1 1 0 -0 -0 1 0 
1 0 0 2.8421709430404007e-14 -1 0 0 0 1 0 0 0 -1 
2 532 25 0 -1.2246467991473532e-16 0 -1 -1 0 1.2246467991473532e-16 0 1 0 2.75
2 28 25 0 -1.2246467991473532e-16 0 -1 -1 0 1.2246467991473532e-16 0 1 0 2.75
2 532 100 0 -1.2246467991473532e-16 0 -1 -1 0 1.2246467991473532e-16 0 1 0 2.75
2 28 100 0 -1.2246467991473532e-16 0 -1 -1 0 1.2246467991473532e-16 0 1 0 2.75
Triangulations 0

TShapes 74
Ve
1e-07
560 0 -2.8421709430404e-14
0 0

0101101
*
Ve
1e-07
560 0 12
0 0

0101101
*
Ed
 1e-07 1 1 0
1  1 0 0 12
2  1 1 0 0 12
2  2 2 0 0 12
0

0101000
+74 0 -73 0 *
Ve
1e-07
560 150 -2.8421709430404e-14
0 0

0101101
*
Ve
1e-07
560 150 12
0 0

0101101
*
Ed
 1e-07 1 1 0
1  2 0 0 12
2  3 1 0 0 12
2  4 3 0 0 12
0

0101000
+71 0 -70 0 *
Ed
 1e-07 1 1 0
1  3 0 0 150
2  5 1 10 0 150
2  6 4 0 0 150
0

0101000
+74 10 -71 10 *
Ed
 1e-07 1 1 0
1  4 0 0 150
2  7 1 13 0 150
2  8 5 0 0 150
0

0101000
+73 13 -70 13 *
Wi

0101100
+72 0 -69 0 -68 9 +67 12 *
Fa
0  1e-07 1 0

0101000
+66 0 *
Ve
1e-07
0 0 2.8421709430404e-14
0 0

0101101
*
Ve
1e-07
0 0 12
0 0

0101101
*
Ed
 1e-07 1 1 0
1  5 0 0 12
2  9 2 0 0 12
2  10 6 0 0 12
0

0101000
+64 0 -63 0 *
Ed
 1e-07 1 1 0
1  6 0 0 560
2  11 2 10 0 560
2  12 4 0 0 560
0

0101000
+74 10 -64 10 *
Ed
 1e-07 1 1 0
1  7 0 0 560
2  13 2 13 0 560
2  14 5 0 0 560
0

0101000
+73 13 -63 13 *
Wi

0101100
+72 0 -62 0 -61 9 +60 12 *
Fa
0  1e-07 2 0

0101000
+59 0 *
Ve
1e-07
0 150 2.8421709430404e-14
0 0

0101101
*
Ve
1e-07
0 150 12
0 0

0101101
*
Ed
 1e-07 1 1 0
1  8 0 0 12
2  15 3 0 0 12
2  16 6 0 0 12
0

0101000
+57 0 -56 0 *
Ed
 1e-07 1 1 0
1  9 0 0 560
2  17 3 10 0 560
2  18 4 0 0 560
0

0101000
+71 10 -57 10 *
Ed
 1e-07 1 1 0
1  10 0 0 560
2  19 3 13 0 560
2  20 5 0 0 560
0

0101000
+70 13 -56 13 *
Wi

0101100
+69 0 -55 0 -54 9 +53 12 *
Fa
0  1e-07 3 0

0101000
+52 0 *
Ed
 1e-07 1 1 0
1  11 0 0 150
2  21 6 10 0 150
2  22 4 0 0 150
0

0101000
+64 10 -57 10 *
Wi

0101100
-68 9 +61 9 -54 9 +50 9 *
Ve
1.00000032270483e-07
529.25 25 -5.9211894646675e-16
0 0

0101101
*
Ed
 1.00000031974423e-07 1 1 0
1  12 0 0 6.28318530717959
2  23 7 18 0 6.28318530717959
2  24 7 20 0 6.28318530717959
0

0101000
+48 18 -48 18 *
Wi

0101100
-47 17 *
Ve
1.00000037066278e-07
25.25 25 0
0 0

0101101
*
Ed
 1.000000367295e-07 1 1 0
1  13 0 0 6.28318530717959
2  25 8 25 0 6.28318530717959
2  26 8 27 0 6.28318530717959
0

0101000
+45 25 -45 25 *
Wi

0101100
-44 24 *
Ve
1.00000032270483e-07
529.25 100 -5.9211894646675e-16
0 0

0101101
*
Ed
 1.00000031974423e-07 1 1 0
1  14 0 0 6.28318530717959
2  27 9 32 0 6.28318530717959
2  28 9 34 0 6.28318530717959
0

0101000
+42 32 -42 32 *
Wi

0101100
-41 31 *
Ve
1.00000037066278e-07
25.25 100 0
0 0

0101101
*
Ed
 1.000000367295e-07 1 1 0
1  15 0 0 6.28318530717959
2  29 10 39 0 6.28318530717959
2  30 10 41 0 6.28318530717959
0

0101000
+39 39 -39 39 *
Wi

0101100
-38 38 *
Fa
0  1e-07 4 9

0101000
+49 0 +46 0 +43 0 +40 0 +37 0 *
Ed
 1e-07 1 1 0
1  16 0 0 150
2  31 6 13 0 150
2  32 5 0 0 150
0

0101000
+63 13 -56 13 *
Wi

0101100
-67 12 +60 12 -53 12 +35 12 *
Ve
1.00000032270483e-07
529.25 25 12
0 0

0101101
*
Ed
 1.00000031974423e-07 1 1 0
1  12 0 0 6.28318530717959
2  23 7 18 0 6.28318530717959
2  24 7 20 0 6.28318530717959
0

0101000
+33 20 -33 20 *
Wi

0101100
-32 42 *
Ve
1.00000037303494e-07
25.25 25 12
0 0

0101101
*
Ed
 1.00000037303494e-07 1 1 0
1  13 0 0 6.28318530717959
2  25 8 25 0 6.28318530717959
2  26 8 27 0 6.28318530717959
0

0101000
+30 27 -30 27 *
Wi

0101100
-29 43 *
Ve
1.00000032270483e-07
529.25 100 12
0 0

0101101
*
Ed
 1.00000031974423e-07 1 1 0
1  14 0 0 6.28318530717959
2  27 9 32 0 6.28318530717959
2  28 9 34 0 6.28318530717959
0

0101000
+27 34 -27 34 *
Wi

0101100
-26 44 *
Ve
1.00000037303494e-07
25.25 100 12
0 0

0101101
*
Ed
 1.00000037303494e-07 1 1 0
1  15 0 0 6.28318530717959
2  29 10 39 0 6.28318530717959
2  30 10 41 0 6.28318530717959
0

0101000
+24 41 -24 41 *
Wi

0101100
-23 45 *
Fa
0  1e-07 5 12

0101000
+34 0 +31 0 +28 0 +25 0 +22 0 *
Wi

0101100
+62 0 -55 0 -50 9 +35 12 *
Fa
0  1e-07 6 0

0101000
+20 0 *
Ed
 1.00000032270483e-07 1 1 0
1  17 0 0 12
3  33 34CN 7 0 0 12
0

0101000
+48 0 -33 0 *
Wi

0101100
+18 0 -18 0 -47 17 +32 42 *
Fa
0  1.00000031974423e-07 7 0

0101000
+17 0 *
Ed
 1.00000008881784e-07 1 1 0
1  18 0 0 12
3  35 36CN 8 0 0 12
0

0101000
+45 0 -30 0 *
Wi

0101100
+15 0 -15 0 -44 24 +29 43 *
Fa
0  1.00000008881784e-07 8 0

0101000
+14 0 *
Ed
 1.00000032270483e-07 1 1 0
1  19 0 0 12
3  37 38CN 9 0 0 12
0

0101000
+42 0 -27 0 *
Wi

0101100
+12 0 -12 0 -41 31 +26 44 *
Fa
0  1.00000031974423e-07 9 0

0101000
+11 0 *
Ed
 1.00000008881784e-07 1 1 0
1  20 0 0 12
3  39 40CN 10 0 0 12
0

0101000
+39 0 -24 0 *
Wi

0101100
+9 0 -9 0 -38 38 +23 45 *
Fa
0  1.00000008881784e-07 10 0

0101000
+8 0 *
Sh

0101100
-65 0 +58 0 -51 0 +36 0 -21 0 +19 0 -16 0 -13 0 -10 0 -7 0 
*
So

0100000
+6 0 *
Co

0100000
+5 0 *
Co

0100000
+4 0 *
Co

0100000
+3 0 *
Co

1100000
+2 0 *

+1 0 