DBRep_DrawableShape

CASCADE Topology V1, (c) Matra-Datavision
Locations 10
1
              1               0               0               0 
              0               1               0               0 
              0               0               1              -1 
1
              1               0               0               0 
              0               1               0               0 
              0               0               1               0 
1
              1               0               0               0 
              0               1               0            -215 
              0               0               1               0 
1
              1               0               0               0 
              0               1               0               0 
              0               0               1               0 
1
             -1               0 -1.22464679914735e-16               0 
              0               1               0               0 
1.22464679914735e-16               0              -1               0 
1
              1               0               0             580 
              0               1               0            -865 
              0               0               1             252 
1
              1               0               0               0 
              0               1               0               0 
              0               0               1              -0 
1
              1               0               0               0 
              0               1               0               0 
              0               0               1               1 
2  2 1 3 1 4 1 5 1 6 1 7 1 8 1 0
2  8 -1 7 -1 6 -1 5 -1 4 -1 3 -1 2 -1 0
Curve2ds 4
1 0 0 0 1 
1 0 150 1 0 
1 0 0 1 0 
1 560 0 0 1 
Curves 4
1 20 1080 252 -0 1 0 
1 20 1230 252 1 0 -0 
1 20 1080 252 1 0 -0 
1 580 1080 252 -0 1 0 
Polygon3D 0
PolygonOnTriangulations 0
Surfaces 1
1 20 1080 252 0 0 1 1 0 -0 -0 1 0 
Triangulations 0

TShapes 9
Ve
1e-07
560 0 0.999999999999972
0 0

0101101
*
Ve
1e-07
560 150 0.999999999999972
0 0

0101101
*
Ed
 1e-07 1 1 0
1  1 0 0 150
2  1 1 0 0 150
0

0101000
+9 10 -8 10 *
Ve
1e-07
0 150 1.00000000000003
0 0

0101101
*
Ed
 1e-07 1 1 0
1  2 0 0 560
2  2 1 0 0 560
0

0101000
+8 10 -6 10 *
Ve
1e-07
0 0 1.00000000000003
0 0

0101101
*
Ed
 1e-07 1 1 0
1  3 0 0 560
2  3 1 0 0 560
0

0101000
+9 10 -4 10 *
Ed
 1e-07 1 1 0
1  4 0 0 150
2  4 1 0 0 150
0

0101000
+4 10 -6 10 *
Wi

0101100
-7 9 -5 9 +3 9 +2 9 *

-1 1 