DBRep_DrawableShape

CASCADE Topology V1, (c) Matra-Datavision
Locations 0
Curve2ds 0
Curves 4
1 560 0 5.8684009457218861e-15 0 1 0 
1 560 150 5.8684009457218861e-15 -1 0 0 
1 0 0 5.8684009457218861e-15 0 1 0 
1 560 0 5.8684009457218861e-15 -1 0 0 
Polygon3D 0
PolygonOnTriangulations 0
Surfaces 0
Triangulations 0

TShapes 9
Ve
1e-07
560 0 5.86840094572189e-15
0 0

0101101
*
Ve
1e-07
560 150 5.86840094572189e-15
0 0

0101101
*
Ed
 1e-07 1 1 0
1  1 0 0 150
0

0101000
+9 0 -8 0 *
Ve
1e-07
0 150 5.86840094572189e-15
0 0

0101101
*
Ed
 1e-07 1 1 0
1  2 0 -0 560
0

0101000
+8 0 -6 0 *
Ve
1e-07
0 0 5.86840094572189e-15
0 0

0101101
*
Ed
 1e-07 1 1 0
1  3 0 0 150
0

0101000
+4 0 -6 0 *
Ed
 1e-07 1 1 0
1  4 0 -0 560
0

0101000
+9 0 -4 0 *
Wi

0101100
+7 0 +5 0 -3 0 -2 0 *

+1 0 