DBRep_DrawableShape

CASCADE Topology V1, (c) Matra-Datavision
Locations 14
1
              1               0               0               0 
              0               1               0               0 
              0               0               1               0 
1
              1               0               0               0 
              0               1               0            -215 
              0               0               1               0 
1
              1               0               0               0 
              0               1               0               0 
              0               0               1               0 
1
             -1               0 -1.22464679914735e-16               0 
              0               1               0               0 
1.22464679914735e-16               0              -1               0 
1
              1               0               0             580 
              0               1               0            -865 
              0               0               1             252 
1
              1               0               0               0 
              0               1               0               0 
              0               0               1              -0 
1
              1               0               0               0 
              0               1               0               0 
              0               0               1               1 
1
              1               0               0               0 
              0               1               0               0 
              0               0               1              -1 
2  1 1 2 1 3 1 4 1 5 1 6 1 7 1 8 1 0
2  3 1 4 1 5 1 0
2  1 1 2 1 0
2  5 -1 4 -1 3 -1 0
1
              1               0               0               0 
              0               1               0               0 
              0               0               1              12 
2  1 1 2 1 3 1 4 1 5 1 6 1 7 1 8 1 13 1 0
Curve2ds 6
2 28 75 1 0 -0 1 2.75
1 0 13 1 0 
1 6.2831853071795862 -0 0 1 
1 0 -0 0 1 
2 28 75 1 0 -0 1 2.75
1 0 1 1 0 
Curves 3
2 48 940 252 0 0 1 1 0 -0 -0 1 0 2.75
1 50.75 940 239 0 0 1 
2 48 940 240 0 0 1 1 0 -0 -0 1 0 2.75
Polygon3D 0
PolygonOnTriangulations 0
Surfaces 4
1 20 1080 252 0 0 1 1 0 -0 -0 1 0 
1 20 1080 252 0 0 1 1 0 -0 -0 1 0 
2 48 940 239 0 0 1 1 0 -0 -0 1 0 2.75
1 20 1080 240 0 0 1 1 0 -0 -0 1 0 
Triangulations 0

TShapes 13
Ve
1.00000003765789e-07
529.25 75 -2.8421709430404e-14
0 0

0101101
*
Ed
 1.00000003429011e-07 1 1 0
1  1 0 0 6.28318530717959
2  1 2 11 0 6.28318530717959
2  2 3 0 0 6.28318530717959
0

0101000
+13 12 -13 12 *
Wi

0101100
+12 10 *
Fa
0  1e-07 1 9

0101000
+11 0 *
Ve
1.00000031974423e-07
529.25 75 12
0 0

0101101
*
Ed
 1e-07 1 1 0
1  2 0 1 13
3  3 4CN 3 0 1 13
0

0101000
+9 12 -13 12 *
Ed
 1.00000031974423e-07 1 1 0
1  3 0 0 6.28318530717959
2  5 4 11 0 6.28318530717959
2  6 3 0 0 6.28318530717959
0

0101000
+9 12 -9 12 *
Wi

0101100
-12 10 +8 10 +7 10 -8 10 *
Fa
0  1e-07 3 10

0101000
+6 0 *
Wi

0101100
+7 10 *
Fa
0  1e-07 1 14

0101000
+4 0 *
Sh

0101100
+10 0 +5 0 -3 0 *
So

0100000
+2 0 *

+1 0 