DBRep_DrawableShape

CASCADE Topology V1, (c) Matra-Datavision
Locations 6
1
              1               0               0               0 
              0               1               0               0 
              0               0               1               0 
1
             -1               0 -1.22464679914735e-16               0 
              0               1               0               0 
1.22464679914735e-16               0              -1               0 
1
              1               0               0             582 
              0               1               0            -120 
              0               0               1             160 
2  1 1 2 1 3 1 0
1
              1               0               0               0 
              0               1               0               0 
              0               0               1               0 
2  3 -1 2 -1 1 -1 0
Curve2ds 6
2 9 -55 1 0 -0 1 2.25
1 0 1 1 0 
1 0 43 1 0 
2 9 -55 1 0 -0 1 2.25
1 6.2831853071795862 -0 0 1 
1 0 -0 0 1 
Curves 3
2 540 175 151 1 0 0 -0 0 1 0 -1 0 2.25
2 582 175 151 1 0 0 -0 0 1 0 -1 0 2.25
1 539 175 153.25 1 0 0 
Polygon3D 0
PolygonOnTriangulations 0
Surfaces 5
1 42 0 0 -1 0 0 0 1 0 0 0 -1 
1 540 120 142 1 0 -0 0 0 1 0 -1 0 
2 539 175 151 1 0 0 -0 0 1 0 -1 0 2.25
1 582 120 142 1 0 -0 0 0 1 0 -1 0 
1 0 0 2.8421709430404007e-14 -1 0 0 0 1 0 0 0 -1 
Triangulations 0

TShapes 13
Ve
1e-07
42 55 6.75
0 0

0101101
*
Ed
 1e-07 1 1 0
1  1 0 0 6.28318530717959
2  1 2 5 0 6.28318530717959
2  2 3 0 0 6.28318530717959
0

0101000
+13 6 -13 6 *
Wi

0101100
+12 4 *
Fa
0  1e-07 1 0

0101000
+11 0 *
Ve
1.00000000275546e-07
0 55 6.75000000000003
0 0

0101101
*
Ed
 1.00000000275546e-07 1 1 0
1  2 0 0 6.28318530717959
2  3 3 0 0 6.28318530717959
2  4 4 5 0 6.28318530717959
0

0101000
+9 6 -9 6 *
Ed
 1e-07 1 1 0
1  3 0 1 43
3  5 6CN 3 0 1 43
0

0101000
+13 6 -9 6 *
Wi

0101100
-8 4 +7 4 +12 4 -7 4 *
Fa
0  1e-07 3 4

0101000
+6 0 *
Wi

0101100
+8 4 *
Fa
0  1e-07 5 0

0101000
+4 0 *
Sh

0101100
-10 0 +5 0 +3 0 *
So

0100000
+2 0 *

+1 0 