DBRep_DrawableShape

CASCADE Topology V1, (c) Matra-Datavision
Locations 9
1
              1               0               0               0 
              0               1               0               0 
              0               0               1              -1 
1
              1               0               0               0 
              0               1               0               0 
              0               0               1               0 
1
              1               0               0               0 
              0               1               0               0 
              0               0               1               0 
1
             -1               0 -1.22464679914735e-16               0 
              0               1               0               0 
1.22464679914735e-16               0              -1               0 
1
              1               0               0              60 
              0               1               0            -565 
              0               0               1             180 
1
              1               0               0               0 
              0               1               0               0 
              0               0               1              -0 
1
              1               0               0               0 
              0               1               0               0 
              0               0               1               1 
2  2 1 3 1 4 1 5 1 6 1 7 1 0
2  7 -1 6 -1 5 -1 4 -1 3 -1 2 -1 0
Curve2ds 4
1 0 0 0 1 
1 0 150 1 0 
1 42 0 0 1 
1 0 0 1 0 
Curves 4
1 18 565 180 -0 1 0 
1 18 715 180 1 0 -0 
1 60 565 180 -0 1 0 
1 18 565 180 1 0 -0 
Polygon3D 0
PolygonOnTriangulations 0
Surfaces 1
1 18 565 180 0 0 1 1 0 -0 -0 1 0 
Triangulations 0

TShapes 9
Ve
1.00000028421709e-07
42 0 1.00000000000001
0 0

0101101
*
Ve
1.00000028421709e-07
42 150 1.00000000000001
0 0

0101101
*
Ed
 1.00000028421709e-07 1 1 0
1  1 0 0 150
2  1 1 0 0 150
0

0101000
+9 9 -8 9 *
Ve
1.00000028421709e-07
0 150 1.00000000000001
0 0

0101101
*
Ed
 1.00000028421709e-07 1 1 0
1  2 0 0 42
2  2 1 0 0 42
0

0101000
+8 9 -6 9 *
Ve
1.00000028421709e-07
0 0 1.00000000000001
0 0

0101101
*
Ed
 1.00000028421709e-07 1 1 0
1  3 0 0 150
2  3 1 0 0 150
0

0101000
+4 9 -6 9 *
Ed
 1.00000028421709e-07 1 1 0
1  4 0 0 42
2  4 1 0 0 42
0

0101000
+9 9 -4 9 *
Wi

0101100
+7 8 +5 8 -3 8 -2 8 *

+1 1 