DBRep_DrawableShape

CASCADE Topology V1, (c) Matra-Datavision
Locations 9
1
              1               0               0               0 
              0               1               0               0 
              0               0               1               0 
1
              1               0               0               0 
              0               1               0               0 
              0               0               1               0 
1
             -1               0 -1.22464679914735e-16               0 
              0               1               0               0 
1.22464679914735e-16               0              -1               0 
1
              1               0               0              60 
              0               1               0            -565 
              0               0               1             180 
1
              1               0               0               0 
              0               1               0               0 
              0               0               1           -10.5 
1
              1               0               0               0 
              0               1               0               0 
              0               0               1               1 
1
              1               0               0               0 
              0               1               0               0 
              0               0               1              -1 
2  1 1 2 1 3 1 4 1 5 1 6 1 7 1 0
2  7 -1 6 -1 5 -1 4 -1 3 -1 2 -1 1 -1 0
Curve2ds 0
Curves 1
2 48 590 169.50000000000003 0 -0 1 1 0 0 -0 1 0 2.75
Polygon3D 0
PolygonOnTriangulations 0
Surfaces 1
1 12 25 0 0 0 1 1 0 -0 -0 1 0 
Triangulations 0

TShapes 5
Ve
1.00000090168559e-07
9.25 25 9.473903143468e-15
0 0

0101101
*
Ed
 1.00000085431608e-07 1 1 0
1  1 0 0 6.28318530717959
0

0101000
+5 9 -5 9 *
Wi

0101100
+4 8 *
Fa
0  1e-07 1 0

0101000
-3 0 *
Sh

1101000
+2 0 *

+1 0 