DBRep_DrawableShape

CASCADE Topology V1, (c) Matra-Datavision
Locations 9
1
              1               0               0               0 
              0               1               0               0 
              0               0               1               0 
1
              1               0               0               0 
              0               1               0               0 
              0               0               1               0 
1
             -1               0 -1.22464679914735e-16               0 
              0               1               0               0 
1.22464679914735e-16               0              -1               0 
1
              1               0               0              60 
              0               1               0            -865 
              0               0               1             240 
1
              1               0               0               0 
              0               1               0               0 
              0               0               1              -0 
1
              1               0               0               0 
              0               1               0               0 
              0               0               1               1 
1
              1               0               0               0 
              0               1               0               0 
              0               0               1              -1 
2  1 1 2 1 3 1 4 1 5 1 6 1 7 1 0
2  7 -1 6 -1 5 -1 4 -1 3 -1 2 -1 1 -1 0
Curve2ds 0
Curves 1
2 48 940 239.99999999999997 0 -0 1 1 0 0 -0 1 0 4.25
Polygon3D 0
PolygonOnTriangulations 0
Surfaces 1
1 11.999999999999998 75 0 0 0 1 1 0 -0 -0 1 0 
Triangulations 0

TShapes 5
Ve
1.00000033714972e-07
7.75 75 1.35117855043748e-14
0 0

0101101
*
Ed
 1.00000032316834e-07 1 1 0
1  1 0 0 6.28318530717959
0

0101000
+5 9 -5 9 *
Wi

0101100
-4 8 *
Fa
0  1e-07 1 0

0101000
+3 0 *
Sh

1101000
+2 0 *

+1 0 