DBRep_DrawableShape

CASCADE Topology V1, (c) Matra-Datavision
Locations 8
1
              1               0               0               0 
              0               1               0               0 
              0               0               1               0 
1
              1               0               0               0 
              0 1.11022302462516e-16              -1               0 
              0               1 1.11022302462516e-16               0 
1
              1               0               0           -30.2 
              0               1               0 421.150530297478 
              0               0               1            -691 
2  1 1 2 1 3 1 0
2  1 -1 0
1
              1               0               0           539.6 
              0               1               0               0 
              0               0               1               0 
2  6 -1 0
2  1 -1 6 -1 0
Curve2ds 24
1 0 0 0 -1 
1 78.42816901408446 0 0 -1 
1 18 0 0 -1 
1 0 0 0 -1 
1 0 0 1 0 
1 -40.068113742243156 9.1441514437211708 0 -1 
1 0 -539.60000000000002 1 0 
1 -40.068113742243156 9.1441514437211708 0 -1 
1 81.571830985915483 0 0 -1 
1 0 0 0 -1 
1 0 0 1 0 
1 -40.068113742243156 -8.8558485562788292 1 0 
1 0 -539.60000000000002 1 0 
1 -40.068113742243156 -8.8558485562788292 1 0 
1 18.272454968972738 0 0 -1 
1 0 0 0 -1 
1 0 0 1 0 
1 41.503717243672327 -8.8558485562788292 -0.17204376626835691 0.98508930685912888 
1 0 -539.60000000000002 1 0 
1 41.503717243672327 -8.8558485562788292 -0.17204376626835691 0.98508930685912888 
1 0 0 1 0 
1 38.360055271841304 9.1441514437211708 -1 0 
1 0 -539.60000000000002 1 0 
1 38.360055271841304 9.1441514437211708 -1 0 
Curves 12
1 30.199999999999999 691 339.57869931156301 1 0 0 
1 30.199999999999999 709 339.57869931156301 1 0 0 
1 30.199999999999999 691 339.57869931156301 0 1 0 
1 30.199999999999999 691 339.57869931156301 0 1 0 
1 30.199999999999999 709 421.1505302974785 1 0 0 
1 30.199999999999999 709 339.57869931156301 0 0 1 
1 30.199999999999999 709 339.57869931156301 0 0 1 
1 30.199999999999999 691 418.00686832564747 1 0 0 
1 30.199999999999999 709 421.1505302974785 0 -0.98508930685912888 -0.17204376626835691 
1 30.199999999999999 709 421.1505302974785 0 -0.98508930685912888 -0.17204376626835691 
1 30.199999999999999 691 418.00686832564747 0 0 -1 
1 30.199999999999999 691 418.00686832564747 0 0 -1 
Polygon3D 0
PolygonOnTriangulations 0
Surfaces 6
1 30.199999999999999 691 339.57869931156301 0 0 1 0 1 0 -1 0 0 
1 30.199999999999999 691 418.00686832564747 -0 1 0 0 0 -1 -1 0 -0 
1 30.199999999999999 709 339.57869931156301 0 -1 0 0 0 1 -1 0 0 
1 30.200000000000003 700.14415144372117 379.64681305380617 1 0 0 -0 0 1 0 -1 0 
1 30.200000000000003 700.14415144372117 379.64681305380617 1 0 0 -0 0 1 0 -1 0 
1 30.199999999999999 709 421.1505302974785 0 0.17204376626835691 -0.98508930685912888 0 -0.98508930685912888 -0.17204376626835691 -1 0 -0 
Triangulations 0

TShapes 34
Ve
1e-07
30.2 691 339.578699311563
0 0

0101101
*
Ve
1e-07
569.8 691 339.578699311563
0 0

0101101
*
Ed
 1e-07 1 1 0
1  1 0 0 539.6
2  1 1 0 0 539.6
2  2 2 0 0 539.6
0

0101000
+34 5 -33 5 *
Ve
1e-07
30.2 709 339.578699311563
0 0

0101101
*
Ve
1e-07
569.8 709 339.578699311563
0 0

0101101
*
Ed
 1e-07 1 1 0
1  2 0 0 539.6
2  3 1 0 0 539.6
2  4 3 0 0 539.6
0

0101000
+31 5 -30 5 *
Ed
 1e-07 1 1 0
1  3 0 0 18
2  5 1 0 0 18
2  6 4 0 0 18
0

0101000
+34 5 -31 5 *
Ed
 1e-07 1 1 0
1  4 0 0 18
2  7 1 7 0 18
2  8 5 0 0 18
0

0101000
+33 8 -30 8 *
Wi

0101100
+32 0 -29 0 -28 0 +27 6 *
Fa
0  1e-07 1 0

0111000
+26 0 *
Ve
1.00000008770762e-07
30.2 709 421.150530297478
0 0

0101101
*
Ve
1.00000008770762e-07
569.8 709 421.150530297478
0 0

0101101
*
Ed
 1.00000008770762e-07 1 1 0
1  5 0 0 539.6
2  9 3 0 0 539.6
2  10 6 0 0 539.6
0

0101000
+24 5 -23 5 *
Ed
 1e-07 1 1 0
1  6 0 0 81.5718309859155
2  11 3 0 0 81.5718309859155
2  12 4 0 0 81.5718309859155
0

0101000
+31 5 -24 5 *
Ed
 1e-07 1 1 0
1  7 0 0 81.5718309859155
2  13 3 7 0 81.5718309859155
2  14 5 0 0 81.5718309859155
0

0101000
+30 8 -23 8 *
Wi

0101100
+29 0 -22 0 -21 0 +20 6 *
Fa
0  1e-07 3 0

0111000
+19 0 *
Ve
1e-07
30.2 691 418.006868325647
0 0

0101101
*
Ve
1e-07
569.8 691 418.006868325647
0 0

0101101
*
Ed
 1e-07 1 1 0
1  8 0 0 539.6
2  15 6 0 0 539.6
2  16 2 0 0 539.6
0

0101000
+17 5 -16 5 *
Ed
 1e-07 1 1 0
1  9 0 0 18.2724549689727
2  17 6 0 0 18.2724549689727
2  18 4 0 0 18.2724549689727
0

0101000
+24 5 -17 5 *
Ed
 1e-07 1 1 0
1  10 0 0 18.2724549689727
2  19 6 7 0 18.2724549689727
2  20 5 0 0 18.2724549689727
0

0101000
+23 8 -16 8 *
Wi

0101100
+22 0 -15 0 -14 0 +13 6 *
Fa
0  1e-07 6 0

0111000
+12 0 *
Ed
 1e-07 1 1 0
1  11 0 0 78.4281690140845
2  21 2 0 0 78.4281690140845
2  22 4 0 0 78.4281690140845
0

0101000
+17 5 -34 5 *
Ed
 1e-07 1 1 0
1  12 0 0 78.4281690140845
2  23 2 7 0 78.4281690140845
2  24 5 0 0 78.4281690140845
0

0101000
+16 8 -33 8 *
Wi

0101100
+15 0 -32 0 -10 0 +9 6 *
Fa
0  1e-07 2 0

0111000
+8 0 *
Wi

0101100
+28 0 +21 0 +14 0 +10 0 *
Fa
0  1e-07 4 0

0111000
+6 0 *
Wi

0101100
+27 0 +20 0 +13 0 +9 0 *
Fa
0  1e-07 5 0

0111000
+4 0 *
Sh

0101100
+25 0 +18 0 +11 0 +7 0 +5 0 -3 6 *
So

1100000
-2 0 *

+1 4 