DBRep_DrawableShape

CASCADE Topology V1, (c) Matra-Datavision
Locations 19
1
              1               0               0               0 
              0               1               0               0 
              0               0               1              -1 
1
              1               0               0               0 
              0               1               0               0 
              0               0               1               0 
1
              1               0               0               0 
              0 1.11022302462516e-16              -1               0 
              0               1 1.11022302462516e-16               0 
1
              1               0               0           -30.2 
              0               1               0 470.051938748183 
              0               0               1            -971 
1
              1               0               0               0 
              0               1               0               0 
              0               0               1 -18.0000000000001 
1
              1               0               0               0 
              0               1               0               0 
              0               0               1               1 
2  2 1 3 1 4 1 5 1 6 1 0
2  1 -1 0
2  2 1 3 1 4 1 0
2  4 -1 3 -1 2 -1 0
2  2 1 3 1 4 1 5 1 6 1 1 1 0
2  6 -1 5 -1 4 -1 3 -1 2 -1 0
1
              1               0               0               0 
              0               1               0               0 
              0               0               1 18.0000000000001 
2  2 1 3 1 4 1 5 1 6 1 1 1 13 1 0
2  13 -1 1 -1 6 -1 5 -1 4 -1 3 -1 2 -1 0
1
              1               0               0           539.6 
              0               1               0               0 
              0               0               1               0 
2  16 1 2 1 3 1 4 1 0
2  16 -1 0
2  4 -1 3 -1 2 -1 16 -1 0
Curve2ds 9
1 0 0 1 0 
1 0 0 1 0 
1 41.503717243672384 -8.8558485562790565 -0.17204376626835391 0.98508930685912943 
1 81.571830985915483 0 0 -1 
1 0 -539.60000000000002 1 0 
1 18.272454968972728 0 0 -1 
1 0 0 0 -1 
1 0 -539.60000000000002 1 0 
1 41.503717243672384 -8.8558485562790565 -0.17204376626835391 0.98508930685912943 
Curves 8
1 0 81.571830985915483 1 0 -1 1.1102230246251565e-16 
1 0 0 0 0 0 1 
1 30.199999999999999 989 470.05193874818269 0 -0.98508930685912943 -0.17204376626835391 
1 30.199999999999999 989 470.05193874818269 1 0 0 
1 539.60000000000002 81.571830985915483 1 0 -1 1.1102230246251565e-16 
1 30.199999999999999 971 466.90827677635173 1 0 0 
1 539.60000000000002 0 0 0 0 1 
1 30.199999999999999 989 470.05193874818269 0 -0.98508930685912943 -0.17204376626835391 
Polygon3D 0
PolygonOnTriangulations 0
Surfaces 8
1 0 81.571830985915483 7.0064923216240854e-46 1 0 -0 0 -1 1.1102230246251565e-16 0 -1.1102230246251565e-16 -1 
1 30.199999999999999 989 388.48010776226721 0 -1 0 0 0 1 -1 0 0 
1 30.199999999999999 989 470.05193874818269 0 0.17204376626835391 -0.98508930685912943 0 -0.98508930685912943 -0.17204376626835391 -1 0 -0 
1 30.200000000000003 980.14415144372094 428.54822150451031 1 0 0 -0 0 1 0 -1 0 
1 30.199999999999999 971 466.90827677635173 -0 1 0 0 0 -1 -1 0 -0 
1 0 0 0 0 1 0 1 0 0 0 0 -1 
1 30.200000000000003 980.14415144372094 428.54822150451031 1 0 0 -0 0 1 0 -1 0 
1 539.60000000000002 81.571830985915483 0 1 0 -0 0 -1 1.1102230246251565e-16 0 -1.1102230246251565e-16 -1 
Triangulations 0

TShapes 27
Ve
1.000002186664e-07
0 3.14366197183097 1.13686837721616e-13
0 0

0101101
*
Ve
1.00000113686838e-07
0 0 1
0 0

0101101
*
Ed
 1.00000113686838e-07 1 1 0
1  1 0 78.4281690140845 81.5718309859155
2  1 2 7 78.4281690140845 81.5718309859155
0

0101000
+27 8 -26 0 *
Ve
1.00000113686838e-07
0 0 18.0000000000001
0 0

0101101
*
Ed
 1.00000113686838e-07 1 1 0
1  2 0 0 18.0000000000001
0

0101000
+26 1 -24 0 *
Ed
 1e-07 1 1 0
1  3 0 0 18.2724549689727
2  2 3 0 0 18.2724549689727
2  3 4 0 0 18.2724549689727
0

0101000
+24 10 -27 10 *
Wi

0101100
-25 1 -23 0 -22 9 *
Fa
0  1e-07 1 0

0101000
+21 0 *
Ve
1.00000113686838e-07
539.6 0 1
0 0

0101101
*
Ed
 1.00000113686838e-07 1 1 0
1  4 0 0 539.6
2  4 2 0 0 539.6
0

0101000
+26 12 -19 12 *
Ve
1.000002186664e-07
539.6 3.14366197183097 1.13686837721616e-13
0 0

0101101
*
Ed
 1.00000113686838e-07 1 1 0
1  5 0 78.4281690140845 81.5718309859155
2  5 2 7 78.4281690140845 81.5718309859155
0

0101000
+17 8 -19 0 *
Ed
 1.000002186664e-07 1 1 0
1  6 0 0 539.6
2  6 3 0 0 539.6
2  7 5 0 0 539.6
0

0101000
+27 10 -17 10 *
Wi

0101100
-25 1 -18 11 +16 1 +15 9 *
Fa
0  1.00000113686838e-07 2 11

0101000
+14 0 *
Ve
1.00000113686838e-07
539.6 0 18.0000000000001
0 0

0101101
*
Ed
 1.00000113686838e-07 1 1 0
1  7 0 0 18.0000000000001
0

0101000
+19 1 -12 0 *
Ed
 1.00000113686838e-07 1 1 0
1  4 0 0 539.6
2  4 2 0 0 539.6
0

0101000
+24 15 -12 15 *
Wi

0101100
+23 0 -11 0 -18 11 +10 14 *
Fa
0  1.00000113686838e-07 6 0

0101000
+9 0 *
Ed
 1e-07 1 1 0
1  8 0 0 18.2724549689727
2  8 3 18 0 18.2724549689727
2  9 7 0 0 18.2724549689727
0

0101000
+12 19 -17 19 *
Wi

0101100
+10 14 -15 9 -22 9 +7 17 *
Fa
0  1e-07 3 9

0101000
+6 0 *
Wi

0101100
-16 1 -11 0 -7 17 *
Fa
0  1e-07 8 0

0101000
+4 0 *
Sh

0101100
-20 0 +13 0 -8 0 +5 0 +3 0 *
So

0100000
+2 0 *

+1 0 