DBRep_DrawableShape

CASCADE Topology V1, (c) Matra-Datavision
Locations 8
1
              1               0               0               0 
              0               1               0               0 
              0               0               1              -1 
1
              1               0               0               0 
              0               1               0               0 
              0               0               1               0 
1
              1               0               0               0 
              0 1.11022302462516e-16              -1               0 
              0               1 1.11022302462516e-16               0 
1
              1               0               0           -30.2 
              0               1               0 470.051938748183 
              0               0               1            -971 
1
              1               0               0               0 
              0               1               0               0 
              0               0               1 -18.0000000000001 
1
              1               0               0               0 
              0               1               0               0 
              0               0               1               1 
2  2 1 3 1 4 1 5 1 6 1 0
2  6 -1 5 -1 4 -1 3 -1 2 -1 0
Curve2ds 4
1 0 0 1 0 
1 81.571830985915483 0 0 -1 
1 0 -539.60000000000002 1 0 
1 0 0 0 -1 
Curves 4
1 0 81.571830985915483 1 0 -1 1.1102230246251565e-16 
1 30.199999999999999 989 470.05193874818269 1 0 0 
1 539.60000000000002 81.571830985915483 1 0 -1 1.1102230246251565e-16 
1 30.199999999999999 989 388.48010776226721 1 0 0 
Polygon3D 0
PolygonOnTriangulations 0
Surfaces 1
1 30.199999999999999 989 388.48010776226721 0 -1 0 0 0 1 -1 0 0 
Triangulations 0

TShapes 9
Ve
1.00000113686838e-07
0 81.5718309859155 1.00000000000006
0 0

0101101
*
Ve
1.00000113686838e-07
0 0 1
0 0

0101101
*
Ed
 1.00000113686838e-07 1 1 0
1  1 0 6.31088724176809e-30 81.5718309859155
2  1 1 7 6.31088724176809e-30 81.5718309859155
0

0101000
+9 0 -8 0 *
Ve
1.00000113686838e-07
539.6 0 1
0 0

0101101
*
Ed
 1.00000113686838e-07 1 1 0
1  2 0 0 539.6
2  2 1 0 0 539.6
0

0101000
+8 8 -6 8 *
Ve
1.00000113686838e-07
539.6 81.5718309859155 1.00000000000006
0 0

0101101
*
Ed
 1.00000113686838e-07 1 1 0
1  3 0 0 81.5718309859155
2  3 1 7 0 81.5718309859155
0

0101000
+4 0 -6 0 *
Ed
 1.00000113686838e-07 1 1 0
1  4 0 0 539.6
2  4 1 0 0 539.6
0

0101000
+9 8 -4 8 *
Wi

0101100
+7 0 +5 7 -3 0 -2 7 *

+1 1 