DBRep_DrawableShape

CASCADE Topology V1, (c) Matra-Datavision
Locations 128
1
              1               0               0               0 
              0               1               0               0 
              0               0               1              -1 
2  1 -1 0
1
              1               0               0               0 
              0               1               0               0 
              0               0               1               0 
1
              1               0               0               0 
              0 1.11022302462516e-16              -1               0 
              0               1 1.11022302462516e-16               0 
1
              1               0               0           -30.2 
              0               1               0 470.051938748183 
              0               0               1            -971 
1
              1               0               0               0 
              0               1               0               0 
              0               0               1 -18.0000000000001 
1
              1               0               0               0 
              0               1               0               0 
              0               0               1               1 
2  3 1 4 1 5 1 6 1 7 1 0
1
              1               0               0               0 
              0               1               0               0 
              0               0               1              -1 
1
              1               0               0               0 
              0               1               0               0 
              0               0               1               2 
2  9 1 10 1 0
2  10 -1 9 -1 0
1
              1               0               0               0 
              0               1               0               0 
              0               0               1              -2 
1
              1               0               0               0 
              0               1               0               0 
              0               0               1               3 
2  13 1 14 1 0
2  14 -1 13 -1 0
1
              1               0               0               0 
              0               1               0               0 
              0               0               1              -3 
1
              1               0               0               0 
              0               1               0               0 
              0               0               1               4 
2  17 1 18 1 0
2  18 -1 17 -1 0
1
              1               0               0               0 
              0               1               0               0 
              0               0               1              -4 
1
              1               0               0               0 
              0               1               0               0 
              0               0               1               5 
2  21 1 22 1 0
2  22 -1 21 -1 0
1
              1               0               0               0 
              0               1               0               0 
              0               0               1              -5 
1
              1               0               0               0 
              0               1               0               0 
              0               0               1               6 
2  25 1 26 1 0
2  26 -1 25 -1 0
1
              1               0               0               0 
              0               1               0               0 
              0               0               1              -6 
1
              1               0               0               0 
              0               1               0               0 
              0               0               1               7 
2  29 1 30 1 0
2  30 -1 29 -1 0
1
              1               0               0               0 
              0               1               0               0 
              0               0               1              -7 
1
              1               0               0               0 
              0               1               0               0 
              0               0               1               8 
2  33 1 34 1 0
2  34 -1 33 -1 0
1
              1               0               0               0 
              0               1               0               0 
              0               0               1              -8 
1
              1               0               0               0 
              0               1               0               0 
              0               0               1               9 
2  37 1 38 1 0
2  38 -1 37 -1 0
1
              1               0               0               0 
              0               1               0               0 
              0               0               1              -9 
1
              1               0               0               0 
              0               1               0               0 
              0               0               1              10 
2  41 1 42 1 0
2  42 -1 41 -1 0
1
              1               0               0               0 
              0               1               0               0 
              0               0               1             -10 
1
              1               0               0               0 
              0               1               0               0 
              0               0               1              11 
2  45 1 46 1 0
2  46 -1 45 -1 0
1
              1               0               0               0 
              0               1               0               0 
              0               0               1             -11 
1
              1               0               0               0 
              0               1               0               0 
              0               0               1              12 
2  49 1 50 1 0
2  50 -1 49 -1 0
1
              1               0               0               0 
              0               1               0               0 
              0               0               1             -12 
1
              1               0               0               0 
              0               1               0               0 
              0               0               1              13 
2  53 1 54 1 0
2  54 -1 53 -1 0
1
              1               0               0               0 
              0               1               0               0 
              0               0               1             -13 
1
              1               0               0               0 
              0               1               0               0 
              0               0               1              14 
2  57 1 58 1 0
2  58 -1 57 -1 0
1
              1               0               0               0 
              0               1               0               0 
              0               0               1             -14 
1
              1               0               0               0 
              0               1               0               0 
              0               0               1              15 
2  61 1 62 1 0
2  62 -1 61 -1 0
1
              1               0               0               0 
              0               1               0               0 
              0               0               1             -15 
1
              1               0               0               0 
              0               1               0               0 
              0               0               1              16 
2  65 1 66 1 0
2  66 -1 65 -1 0
1
              1               0               0               0 
              0               1               0               0 
              0               0               1             -16 
1
              1               0               0               0 
              0               1               0               0 
              0               0               1              17 
2  69 1 70 1 0
2  70 -1 69 -1 0
1
              1               0               0               0 
              0               1               0               0 
              0               0               1 18.0000000000001 
2  1 1 73 1 0
2  73 -1 1 -1 0
2  3 1 4 1 5 1 6 1 7 1 1 1 0
1
              1               0               0               0 
              0               1               0               0 
              0               0               1              -2 
2  77 -1 0
2  1 -1 7 -1 6 -1 5 -1 4 -1 3 -1 0
2  77 1 10 1 0
2  10 -1 77 -1 0
1
              1               0               0               0 
              0               1               0               0 
              0               0               1              -3 
2  82 1 14 1 0
2  14 -1 82 -1 0
1
              1               0               0               0 
              0               1               0               0 
              0               0               1              -4 
2  85 1 18 1 0
2  18 -1 85 -1 0
1
              1               0               0               0 
              0               1               0               0 
              0               0               1              -5 
2  88 1 22 1 0
2  22 -1 88 -1 0
1
              1               0               0               0 
              0               1               0               0 
              0               0               1              -6 
2  91 1 26 1 0
2  26 -1 91 -1 0
1
              1               0               0               0 
              0               1               0               0 
              0               0               1              -7 
2  94 1 30 1 0
2  30 -1 94 -1 0
1
              1               0               0               0 
              0               1               0               0 
              0               0               1              -8 
2  97 1 34 1 0
2  34 -1 97 -1 0
1
              1               0               0               0 
              0               1               0               0 
              0               0               1              -9 
2  100 1 38 1 0
2  38 -1 100 -1 0
1
              1               0               0               0 
              0               1               0               0 
              0               0               1             -10 
2  103 1 42 1 0
2  42 -1 103 -1 0
1
              1               0               0               0 
              0               1               0               0 
              0               0               1             -11 
2  106 1 46 1 0
2  46 -1 106 -1 0
1
              1               0               0               0 
              0               1               0               0 
              0               0               1             -12 
2  109 1 50 1 0
2  50 -1 109 -1 0
1
              1               0               0               0 
              0               1               0               0 
              0               0               1             -13 
2  112 1 54 1 0
2  54 -1 112 -1 0
1
              1               0               0               0 
              0               1               0               0 
              0               0               1             -14 
2  115 1 58 1 0
2  58 -1 115 -1 0
1
              1               0               0               0 
              0               1               0               0 
              0               0               1             -15 
2  118 1 62 1 0
2  62 -1 118 -1 0
1
              1               0               0               0 
              0               1               0               0 
              0               0               1             -16 
2  121 1 66 1 0
2  66 -1 121 -1 0
1
              1               0               0               0 
              0               1               0               0 
              0               0               1             -17 
2  124 1 70 1 0
2  70 -1 124 -1 0
2  3 1 4 1 5 1 6 1 7 1 1 1 73 1 0
2  73 -1 1 -1 7 -1 6 -1 5 -1 4 -1 3 -1 0
Curve2ds 101
1 -7.7787690973264271e-62 7.0064923216240854e-46 1 0 
1 0 0 1 0 
8 37.642253521126776 40.785915492957741
1 0 40.785915492957741 0 -1 
8 37.642253521126776 40.785915492957741
1 0 40.785915492957741 0 -1 
8 37.642253521126776 40.785915492957741
1 0 40.785915492957741 0 -1 
8 37.642253521126776 40.785915492957741
1 0 40.785915492957741 0 -1 
8 37.642253521126776 40.785915492957741
1 0 40.785915492957741 0 -1 
8 37.642253521126776 40.785915492957741
1 0 40.785915492957741 0 -1 
8 37.642253521126776 40.785915492957741
1 0 40.785915492957741 0 -1 
8 37.642253521126776 40.785915492957741
1 0 40.785915492957741 0 -1 
8 37.642253521126776 40.785915492957741
1 0 40.785915492957741 0 -1 
8 37.642253521126776 40.785915492957741
1 0 40.785915492957741 0 -1 
8 37.642253521126776 40.785915492957741
1 0 40.785915492957741 0 -1 
8 37.642253521126776 40.785915492957741
1 0 40.785915492957741 0 -1 
8 37.642253521126776 40.785915492957741
1 0 40.785915492957741 0 -1 
8 37.642253521126776 40.785915492957741
1 0 40.785915492957741 0 -1 
8 37.642253521126776 40.785915492957741
1 0 40.785915492957741 0 -1 
8 37.642253521126776 40.785915492957741
1 0 40.785915492957741 0 -1 
1 81.571830985915483 9.0562924921395152e-15 1.1102230246251565e-16 -1 
1 0 0 0 -1 
1 1.9984014443252944e-15 -18.000000000000114 1 0 
1 0 0 1 0 
1 6.3108872417680944e-30 -5.6843418860808015e-14 1.1102230246251565e-16 -1 
1 0 -5.6843418860808015e-14 0 -1 
8 0 539.60000000000002
1 0 2.7943661971830989 1 0 
1 0 0 1 0 
1 0 -539.60000000000002 1 0 
1 0 0 1 0 
1 0 0 0 -1 
8 37.642253521126776 40.785915492957741
1 539.60000000000002 40.785915492957741 0 -1 
8 -539.60000000000002 0
1 0 2.6197183098591568 -1 0 
8 -539.60000000000002 0
1 0 -2 -1 0 
8 0 539.60000000000002
1 0 2.6197183098591568 1 0 
8 37.642253521126776 40.785915492957741
1 539.60000000000002 40.785915492957741 0 -1 
8 -539.60000000000002 0
1 0 2.4450704225352138 -1 0 
8 -539.60000000000002 0
1 0 -3 -1 0 
8 0 539.60000000000002
1 0 2.4450704225352138 1 0 
8 37.642253521126776 40.785915492957741
1 539.60000000000002 40.785915492957741 0 -1 
8 -539.60000000000002 0
1 0 2.2704225352112717 -1 0 
8 -539.60000000000002 0
1 0 -4 -1 0 
8 0 539.60000000000002
1 0 2.2704225352112717 1 0 
8 37.642253521126776 40.785915492957741
1 539.60000000000002 40.785915492957741 0 -1 
8 -539.60000000000002 0
1 0 2.0957746478873291 -1 0 
8 -539.60000000000002 0
1 0 -5 -1 0 
8 0 539.60000000000002
1 0 2.0957746478873291 1 0 
8 37.642253521126776 40.785915492957741
1 539.60000000000002 40.785915492957741 0 -1 
8 -539.60000000000002 0
1 0 1.9211267605633866 -1 0 
8 -539.60000000000002 0
1 0 -6 -1 0 
8 0 539.60000000000002
1 0 1.9211267605633866 1 0 
8 37.642253521126776 40.785915492957741
1 539.60000000000002 40.785915492957741 0 -1 
8 -539.60000000000002 0
1 0 1.7464788732394443 -1 0 
8 -539.60000000000002 0
1 0 -7 -1 0 
8 0 539.60000000000002
1 0 1.7464788732394443 1 0 
8 37.642253521126776 40.785915492957741
1 539.60000000000002 40.785915492957741 0 -1 
8 -539.60000000000002 0
1 0 1.571830985915502 -1 0 
8 -539.60000000000002 0
1 0 -8 -1 0 
8 0 539.60000000000002
1 0 1.571830985915502 1 0 
8 37.642253521126776 40.785915492957741
1 539.60000000000002 40.785915492957741 0 -1 
8 -539.60000000000002 0
1 0 1.3971830985915594 -1 0 
8 -539.60000000000002 0
1 0 -9 -1 0 
8 0 539.60000000000002
1 0 1.3971830985915594 1 0 
8 37.642253521126776 40.785915492957741
1 539.60000000000002 40.785915492957741 0 -1 
8 -539.60000000000002 0
1 0 1.2225352112676169 -1 0 
8 -539.60000000000002 0
1 0 -10 -1 0 
8 0 539.60000000000002
1 0 1.2225352112676169 1 0 
8 37.642253521126776 40.785915492957741
1 539.60000000000002 40.785915492957741 0 -1 
8 -539.60000000000002 0
1 0 1.0478873239436743 -1 0 
8 -539.60000000000002 0
1 0 -11 -1 0 
8 0 539.60000000000002
1 0 1.0478873239436743 1 0 
8 37.642253521126776 40.785915492957741
1 539.60000000000002 40.785915492957741 0 -1 
8 -539.60000000000002 0
1 0 0.87323943661973202 -1 0 
8 -539.60000000000002 0
1 0 -12 -1 0 
8 0 539.60000000000002
1 0 0.87323943661973202 1 0 
8 37.642253521126776 40.785915492957741
1 539.60000000000002 40.785915492957741 0 -1 
8 -539.60000000000002 0
1 0 0.6985915492957897 -1 0 
8 -539.60000000000002 0
1 0 -13 -1 0 
8 0 539.60000000000002
1 0 0.6985915492957897 1 0 
8 37.642253521126776 40.785915492957741
1 539.60000000000002 40.785915492957741 0 -1 
8 -539.60000000000002 0
1 0 0.52394366197184716 -1 0 
8 -539.60000000000002 0
1 0 -14 -1 0 
8 0 539.60000000000002
1 0 0.52394366197184716 1 0 
8 37.642253521126776 40.785915492957741
1 539.60000000000002 40.785915492957741 0 -1 
8 -539.60000000000002 0
1 0 0.34929577464790473 -1 0 
8 -539.60000000000002 0
1 0 -15 -1 0 
8 0 539.60000000000002
1 0 0.34929577464790473 1 0 
8 37.642253521126776 40.785915492957741
1 539.60000000000002 40.785915492957741 0 -1 
8 -539.60000000000002 0
1 0 0.17464788732396241 -1 0 
8 -539.60000000000002 0
1 0 -16 -1 0 
8 0 539.60000000000002
1 0 0.17464788732396241 1 0 
8 37.642253521126776 40.785915492957741
1 539.60000000000002 40.785915492957741 0 -1 
8 0 539.60000000000002
1 0 0 1 0 
1 539.60000000000002 0 0 -1 
1 81.571830985915483 9.0562924921395152e-15 1.1102230246251565e-16 -1 
1 0 -18.000000000000114 1 0 
1 81.571830985915483 0 0 -1 
1 1.9984014443252944e-15 -18.000000000000114 1 0 
1 0 -539.60000000000002 1 0 
1 0 -18.000000000000114 1 0 
1 0 0 0 -1 
1 6.3108872417680944e-30 -5.6843418860808015e-14 1.1102230246251565e-16 -1 
1 539.60000000000002 -5.6843418860808015e-14 0 -1 
Curves 107
1 0 81.571830985915483 1 0 -1 1.1102230246251565e-16 
1 0 2.7943661971830993 0 0 0 1 
1 0 40.785915492957741 1 0 -1 0 
1 0 2.6197183098591563 0 0 0 1 
1 0 40.785915492957741 2 0 -1 0 
1 0 2.4450704225352142 0 0 0 1 
1 0 40.785915492957741 3 0 -1 0 
1 0 2.2704225352112717 0 0 0 1 
1 0 40.785915492957741 4 0 -1 0 
1 0 2.0957746478873291 0 0 0 1 
1 0 40.785915492957741 5 0 -1 0 
1 0 1.9211267605633866 0 0 0 1 
1 0 40.785915492957741 6 0 -1 0 
1 0 1.7464788732394443 0 0 0 1 
1 0 40.785915492957741 7 0 -1 0 
1 0 1.5718309859155017 0 0 0 1 
1 0 40.785915492957741 8 0 -1 0 
1 0 1.3971830985915594 0 0 0 1 
1 0 40.785915492957741 9 0 -1 0 
1 0 1.2225352112676171 0 0 0 1 
1 0 40.785915492957741 10 0 -1 0 
1 0 1.0478873239436746 0 0 0 1 
1 0 40.785915492957741 11 0 -1 0 
1 0 0.87323943661973225 0 0 0 1 
1 0 40.785915492957741 12 0 -1 0 
1 0 0.69859154929578982 0 0 0 1 
1 0 40.785915492957741 13 0 -1 0 
1 0 0.52394366197184705 0 0 0 1 
1 0 40.785915492957741 14 0 -1 0 
1 0 0.34929577464790468 0 0 0 1 
1 0 40.785915492957741 15 0 -1 0 
1 0 0.17464788732396258 0 0 0 1 
1 0 40.785915492957741 16 0 -1 0 
1 0 0 0 0 0 1 
1 0 81.571830985915483 1 0 -1 1.1102230246251565e-16 
1 0 81.571830985915483 5.6843418860808015e-14 0 0 1 
1 0 2.7943661971830989 2 1 0 0 
1 539.60000000000002 81.571830985915483 1 0 -1 1.1102230246251565e-16 
1 30.199999999999999 989 388.48010776226721 1 0 0 
1 539.60000000000002 2.7943661971830993 0 0 0 1 
1 539.60000000000002 40.785915492957741 1 0 -1 0 
1 0 2.6197183098591568 2 -1 0 0 
1 539.60000000000002 2.6197183098591563 0 0 0 1 
1 0 2.6197183098591568 3 1 0 0 
1 539.60000000000002 40.785915492957741 2 0 -1 0 
1 0 2.4450704225352138 3 -1 0 0 
1 539.60000000000002 2.4450704225352142 0 0 0 1 
1 0 2.4450704225352138 4 1 0 0 
1 539.60000000000002 40.785915492957741 3 0 -1 0 
1 0 2.2704225352112717 4 -1 0 0 
1 539.60000000000002 2.2704225352112717 0 0 0 1 
1 0 2.2704225352112717 5 1 0 0 
1 539.60000000000002 40.785915492957741 4 0 -1 0 
1 0 2.0957746478873291 5 -1 0 0 
1 539.60000000000002 2.0957746478873291 0 0 0 1 
1 0 2.0957746478873291 6 1 0 0 
1 539.60000000000002 40.785915492957741 5 0 -1 0 
1 0 1.9211267605633866 6 -1 0 0 
1 539.60000000000002 1.9211267605633866 0 0 0 1 
1 0 1.9211267605633866 7 1 0 0 
1 539.60000000000002 40.785915492957741 6 0 -1 0 
1 0 1.7464788732394443 7 -1 0 0 
1 539.60000000000002 1.7464788732394443 0 0 0 1 
1 0 1.7464788732394443 8 1 0 0 
1 539.60000000000002 40.785915492957741 7 0 -1 0 
1 0 1.571830985915502 8 -1 0 0 
1 539.60000000000002 1.5718309859155017 0 0 0 1 
1 0 1.571830985915502 9 1 0 0 
1 539.60000000000002 40.785915492957741 8 0 -1 0 
1 0 1.3971830985915594 9 -1 0 0 
1 539.60000000000002 1.3971830985915594 0 0 0 1 
1 0 1.3971830985915594 10 1 0 0 
1 539.60000000000002 40.785915492957741 9 0 -1 0 
1 0 1.2225352112676169 10 -1 0 0 
1 539.60000000000002 1.2225352112676171 0 0 0 1 
1 0 1.2225352112676169 11 1 0 0 
1 539.60000000000002 40.785915492957741 10 0 -1 0 
1 0 1.0478873239436743 11 -1 0 0 
1 539.60000000000002 1.0478873239436746 0 0 0 1 
1 0 1.0478873239436743 12 1 0 0 
1 539.60000000000002 40.785915492957741 11 0 -1 0 
1 0 0.87323943661973202 12 -1 0 0 
1 539.60000000000002 0.87323943661973225 0 0 0 1 
1 0 0.87323943661973202 13 1 0 0 
1 539.60000000000002 40.785915492957741 12 0 -1 0 
1 0 0.6985915492957897 13 -1 0 0 
1 539.60000000000002 0.69859154929578982 0 0 0 1 
1 0 0.6985915492957897 14 1 0 0 
1 539.60000000000002 40.785915492957741 13 0 -1 0 
1 0 0.52394366197184716 14 -1 0 0 
1 539.60000000000002 0.52394366197184705 0 0 0 1 
1 0 0.52394366197184716 15 1 0 0 
1 539.60000000000002 40.785915492957741 14 0 -1 0 
1 0 0.34929577464790473 15 -1 0 0 
1 539.60000000000002 0.34929577464790468 0 0 0 1 
1 0 0.34929577464790473 16 1 0 0 
1 539.60000000000002 40.785915492957741 15 0 -1 0 
1 0 0.17464788732396241 16 -1 0 0 
1 539.60000000000002 0.17464788732396258 0 0 0 1 
1 0 0.17464788732396241 17 1 0 0 
1 539.60000000000002 40.785915492957741 16 0 -1 0 
1 0 0 16 1 0 0 
1 539.60000000000002 0 0 0 0 1 
1 30.199999999999999 989 470.05193874818269 1 0 0 
1 539.60000000000002 81.571830985915483 1 0 -1 1.1102230246251565e-16 
1 30.199999999999999 989 388.48010776226721 1 0 0 
1 539.60000000000002 81.571830985915483 5.6843418860808015e-14 0 0 1 
Polygon3D 0
PolygonOnTriangulations 0
Surfaces 54
1 0 81.571830985915483 7.0064923216240854e-46 1 0 -0 0 -1 1.1102230246251565e-16 0 -1.1102230246251565e-16 -1 
1 30.199999999999999 989 388.48010776226721 0 -1 0 0 0 1 -1 0 0 
1 0 0 1 0 0 1 1 0 -0 -0 1 0 
1 0 0 2 0 0 1 1 0 -0 -0 1 0 
1 0 0 3 0 0 1 1 0 -0 -0 1 0 
1 0 0 4 0 0 1 1 0 -0 -0 1 0 
1 0 0 5 0 0 1 1 0 -0 -0 1 0 
1 0 0 6 0 0 1 1 0 -0 -0 1 0 
1 0 0 7 0 0 1 1 0 -0 -0 1 0 
1 0 0 8 0 0 1 1 0 -0 -0 1 0 
1 0 0 9 0 0 1 1 0 -0 -0 1 0 
1 0 0 10 0 0 1 1 0 -0 -0 1 0 
1 0 0 11 0 0 1 1 0 -0 -0 1 0 
1 0 0 12 0 0 1 1 0 -0 -0 1 0 
1 0 0 13 0 0 1 1 0 -0 -0 1 0 
1 0 0 14 0 0 1 1 0 -0 -0 1 0 
1 0 0 15 0 0 1 1 0 -0 -0 1 0 
1 0 0 16 0 0 1 1 0 -0 -0 1 0 
1 0 0 0 0 1 0 1 0 0 0 0 -1 
1 30.199999999999999 989 388.48010776226721 0 -1 0 0 0 1 -1 0 0 
1 0 81.571830985915483 0 0 1 0 1 0 0 0 0 -1 
1 0 0 2 0 0 1 1 0 -0 -0 1 0 
1 539.60000000000002 81.571830985915483 0 1 0 -0 0 -1 1.1102230246251565e-16 0 -1.1102230246251565e-16 -1 
1 0 2.7943661971830989 0 0 1 0 1 0 0 0 0 -1 
1 0 2.6197183098591568 0 0 1 0 1 0 0 0 0 -1 
1 0 0 3 0 0 1 1 0 -0 -0 1 0 
1 0 2.4450704225352138 0 0 1 0 1 0 0 0 0 -1 
1 0 0 4 0 0 1 1 0 -0 -0 1 0 
1 0 2.2704225352112717 0 0 1 0 1 0 0 0 0 -1 
1 0 0 5 0 0 1 1 0 -0 -0 1 0 
1 0 2.0957746478873291 0 0 1 0 1 0 0 0 0 -1 
1 0 0 6 0 0 1 1 0 -0 -0 1 0 
1 0 1.9211267605633866 0 0 1 0 1 0 0 0 0 -1 
1 0 0 7 0 0 1 1 0 -0 -0 1 0 
1 0 1.7464788732394443 0 0 1 0 1 0 0 0 0 -1 
1 0 0 8 0 0 1 1 0 -0 -0 1 0 
1 0 1.571830985915502 0 0 1 0 1 0 0 0 0 -1 
1 0 0 9 0 0 1 1 0 -0 -0 1 0 
1 0 1.3971830985915594 0 0 1 0 1 0 0 0 0 -1 
1 0 0 10 0 0 1 1 0 -0 -0 1 0 
1 0 1.2225352112676169 0 0 1 0 1 0 0 0 0 -1 
1 0 0 11 0 0 1 1 0 -0 -0 1 0 
1 0 1.0478873239436743 0 0 1 0 1 0 0 0 0 -1 
1 0 0 12 0 0 1 1 0 -0 -0 1 0 
1 0 0.87323943661973202 0 0 1 0 1 0 0 0 0 -1 
1 0 0 13 0 0 1 1 0 -0 -0 1 0 
1 0 0.6985915492957897 0 0 1 0 1 0 0 0 0 -1 
1 0 0 14 0 0 1 1 0 -0 -0 1 0 
1 0 0.52394366197184716 0 0 1 0 1 0 0 0 0 -1 
1 0 0 15 0 0 1 1 0 -0 -0 1 0 
1 0 0.34929577464790473 0 0 1 0 1 0 0 0 0 -1 
1 0 0 16 0 0 1 1 0 -0 -0 1 0 
1 0 0.17464788732396241 0 0 1 0 1 0 0 0 0 -1 
1 0 0 17 0 0 1 1 0 -0 -0 1 0 
Triangulations 0

TShapes 259
Ve
1.00000113686838e-07
0 81.5718309859155 5.6843418860808e-14
0 0

0101101
*
Ve
0.000270054645768103
0 2.7943661971831 0
0 0

0101101
*
Ed
 1.00000113686838e-07 1 1 0
1  1 0 6.31088724176809e-30 78.7774647887324
2  1 1 2 6.31088724176809e-30 78.7774647887324
2  2 2 8 6.31088724176809e-30 78.7774647887324
0

0101000
+259 2 -258 2 *
Ve
0.000270054645768103
0 2.7943661971831 2
0 0

0101101
*
Ed
 0.000270054645768103 1 1 0
1  2 0 0 2
0

0101000
+258 0 -256 0 *
Ve
0.000270104645765882
0 2.61971830985916 2
0 0

0101101
*
Ed
 0.000270054645768103 1 1 0
1  3 0 37.9915492957746 38.1661971830986
2  3 3 0 37.9915492957746 38.1661971830986
0

0101000
+256 12 -254 12 *
Ve
0.000270054645768103
0 2.61971830985916 3
0 0

0101101
*
Ed
 0.000270054645768103 1 1 0
1  4 0 2 3
0

0101000
+254 0 -252 0 *
Ve
0.00027010464576677
0 2.44507042253522 3
0 0

0101101
*
Ed
 0.000270054645768103 1 1 0
1  5 0 38.1661971830986 38.3408450704225
2  4 4 0 38.1661971830986 38.3408450704225
0

0101000
+252 16 -250 16 *
Ve
0.000270054645768103
0 2.44507042253521 4
0 0

0101101
*
Ed
 0.000270054645768103 1 1 0
1  6 0 3 4
0

0101000
+250 0 -248 0 *
Ve
0.000270104645766326
0 2.27042253521127 4
0 0

0101101
*
Ed
 0.000270054645768103 1 1 0
1  7 0 38.3408450704225 38.5154929577465
2  5 5 0 38.3408450704225 38.5154929577465
0

0101000
+248 20 -246 20 *
Ve
0.000270054645768103
0 2.27042253521127 5
0 0

0101101
*
Ed
 0.000270054645768103 1 1 0
1  8 0 4 5
0

0101000
+246 0 -244 0 *
Ve
0.000270104645766326
0 2.09577464788733 5
0 0

0101101
*
Ed
 0.000270054645768103 1 1 0
1  9 0 38.5154929577465 38.6901408450704
2  6 6 0 38.5154929577465 38.6901408450704
0

0101000
+244 24 -242 24 *
Ve
0.000270054645768103
0 2.09577464788733 6
0 0

0101101
*
Ed
 0.000270054645768103 1 1 0
1  10 0 5 6
0

0101000
+242 0 -240 0 *
Ve
0.000270104645766326
0 1.92112676056339 6
0 0

0101101
*
Ed
 0.000270054645768103 1 1 0
1  11 0 38.6901408450704 38.8647887323944
2  7 7 0 38.6901408450704 38.8647887323944
0

0101000
+240 28 -238 28 *
Ve
0.000270054645768103
0 1.92112676056339 7
0 0

0101101
*
Ed
 0.000270054645768103 1 1 0
1  12 0 6 7
0

0101000
+238 0 -236 0 *
Ve
0.000270104645766104
0 1.74647887323945 7
0 0

0101101
*
Ed
 0.000270054645768103 1 1 0
1  13 0 38.8647887323944 39.0394366197183
2  8 8 0 38.8647887323944 39.0394366197183
0

0101000
+236 32 -234 32 *
Ve
0.000270054645768103
0 1.74647887323944 8
0 0

0101101
*
Ed
 0.000270054645768103 1 1 0
1  14 0 7 8
0

0101000
+234 0 -232 0 *
Ve
0.000270104645765882
0 1.5718309859155 8
0 0

0101101
*
Ed
 0.000270054645768103 1 1 0
1  15 0 39.0394366197183 39.2140845070422
2  9 9 0 39.0394366197183 39.2140845070422
0

0101000
+232 36 -230 36 *
Ve
0.000270054645768103
0 1.5718309859155 9
0 0

0101101
*
Ed
 0.000270054645768103 1 1 0
1  16 0 8 9
0

0101000
+230 0 -228 0 *
Ve
0.000270104645766104
0 1.39718309859156 9
0 0

0101101
*
Ed
 0.000270054645768103 1 1 0
1  17 0 39.2140845070422 39.3887323943662
2  10 10 0 39.2140845070422 39.3887323943662
0

0101000
+228 40 -226 40 *
Ve
0.000270054645768103
0 1.39718309859156 10
0 0

0101101
*
Ed
 0.000270054645768103 1 1 0
1  18 0 9 10
0

0101000
+226 0 -224 0 *
Ve
0.000270104645766326
0 1.22253521126762 10
0 0

0101101
*
Ed
 0.000270054645768103 1 1 0
1  19 0 39.3887323943662 39.5633802816901
2  11 11 0 39.3887323943662 39.5633802816901
0

0101000
+224 44 -222 44 *
Ve
0.000270054645768103
0 1.22253521126762 11
0 0

0101101
*
Ed
 0.000270054645768103 1 1 0
1  20 0 10 11
0

0101000
+222 0 -220 0 *
Ve
0.000270104645766326
0 1.04788732394368 11
0 0

0101101
*
Ed
 0.000270054645768103 1 1 0
1  21 0 39.5633802816901 39.7380281690141
2  12 12 0 39.5633802816901 39.7380281690141
0

0101000
+220 48 -218 48 *
Ve
0.000270054645768103
0 1.04788732394367 12
0 0

0101101
*
Ed
 0.000270054645768103 1 1 0
1  22 0 11 12
0

0101000
+218 0 -216 0 *
Ve
0.000270104645766104
0 0.873239436619733 12
0 0

0101101
*
Ed
 0.000270054645768103 1 1 0
1  23 0 39.7380281690141 39.912676056338
2  13 13 0 39.7380281690141 39.912676056338
0

0101000
+216 52 -214 52 *
Ve
0.000270054645768103
0 0.873239436619732 13
0 0

0101101
*
Ed
 0.000270054645768103 1 1 0
1  24 0 12 13
0

0101000
+214 0 -212 0 *
Ve
0.000270104645765882
0 0.698591549295791 13
0 0

0101101
*
Ed
 0.000270054645768103 1 1 0
1  25 0 39.912676056338 40.0873239436619
2  14 14 0 39.912676056338 40.0873239436619
0

0101000
+212 56 -210 56 *
Ve
0.000270054645768103
0 0.69859154929579 14
0 0

0101101
*
Ed
 0.000270054645768103 1 1 0
1  26 0 13 14
0

0101000
+210 0 -208 0 *
Ve
0.000270104645765882
0 0.523943661971848 14
0 0

0101101
*
Ed
 0.000270054645768103 1 1 0
1  27 0 40.0873239436619 40.2619718309859
2  15 15 0 40.0873239436619 40.2619718309859
0

0101000
+208 60 -206 60 *
Ve
0.000270054645768103
0 0.523943661971847 15
0 0

0101101
*
Ed
 0.000270054645768103 1 1 0
1  28 0 14 15
0

0101000
+206 0 -204 0 *
Ve
0.000270104645765771
0 0.349295774647906 15
0 0

0101101
*
Ed
 0.000270054645768103 1 1 0
1  29 0 40.2619718309859 40.4366197183098
2  16 16 0 40.2619718309859 40.4366197183098
0

0101000
+204 64 -202 64 *
Ve
0.000270054645768103
0 0.349295774647905 16
0 0

0101101
*
Ed
 0.000270054645768103 1 1 0
1  30 0 15 16
0

0101000
+202 0 -200 0 *
Ve
0.000270104645765799
0 0.174647887323963 16
0 0

0101101
*
Ed
 0.000270054645768103 1 1 0
1  31 0 40.4366197183098 40.6112676056338
2  17 17 0 40.4366197183098 40.6112676056338
0

0101000
+200 68 -198 68 *
Ve
0.000270054645768103
0 0.174647887323963 17
0 0

0101101
*
Ed
 0.000270054645768103 1 1 0
1  32 0 16 17
0

0101000
+198 0 -196 0 *
Ve
0.000270054645768103
0 0 17
0 0

0101101
*
Ed
 0.000270054645768103 1 1 0
1  33 0 40.6112676056338 40.7859154929577
2  18 18 0 40.6112676056338 40.7859154929577
0

0101000
+196 72 -194 72 *
Ve
1.00000113686838e-07
0 0 18.0000000000001
0 0

0101101
*
Ed
 1.00000113686838e-07 1 1 0
1  34 0 17 18.0000000000001
2  19 1 0 17 18.0000000000001
2  20 19 0 17 18.0000000000001
0

0101000
+194 0 -192 0 *
Ve
1.00000113686838e-07
0 81.5718309859155 18.0000000000002
0 0

0101101
*
Ed
 1e-07 1 1 0
1  35 0 6.31088724176809e-30 81.5718309859155
2  21 1 75 6.31088724176809e-30 81.5718309859155
2  22 20 8 6.31088724176809e-30 81.5718309859155
0

0101000
+190 75 -192 75 *
Ed
 1.00000113686838e-07 1 1 0
1  36 0 0 18.0000000000001
2  23 1 0 0 18.0000000000001
2  24 21 0 0 18.0000000000001
0

0101000
+259 0 -190 0 *
Wi

0101100
-257 1 -255 0 -253 11 -251 0 -249 15 -247 0 -245 19 -243 0 -241 23 -239 0 
-237 27 -235 0 -233 31 -231 0 -229 35 -227 0 -225 39 -223 0 -221 43 -219 0 
-217 47 -215 0 -213 51 -211 0 -209 55 -207 0 -205 59 -203 0 -201 63 -199 0 
-197 67 -195 0 -193 71 -191 0 +189 74 +188 0 *
Fa
0  1e-07 1 0

0101000
+187 0 *
Ve
0.000270054645768103
539.6 2.7943661971831 0
0 0

0101101
*
Ed
 0.000270054645768103 1 1 0
1  37 0 0 539.6
2  25 22 0 0 539.6
0

0101000
+258 78 -185 78 *
Ve
1.00000113686838e-07
539.6 81.5718309859155 5.6843418860808e-14
0 0

0101101
*
Ed
 1.00000113686838e-07 1 1 0
1  38 0 0 78.7774647887324
2  26 23 2 0 78.7774647887324
2  27 2 8 0 78.7774647887324
0

0101000
+183 2 -185 2 *
Ed
 1.00000113686838e-07 1 1 0
1  39 0 0 539.6
2  28 21 79 0 539.6
2  29 2 0 0 539.6
0

0101000
+259 79 -183 79 *
Wi

0101100
-257 1 -184 77 +182 1 +181 76 *
Fa
0  1.00000113686838e-07 2 76

0101000
+180 0 *
Ve
0.000270054645768103
539.6 2.7943661971831 2
0 0

0101101
*
Ed
 0.000270054645768103 1 1 0
1  40 0 0 2
0

0101000
+185 0 -178 0 *
Ed
 0.000270054645768103 1 1 0
1  37 0 0 539.6
2  25 22 0 0 539.6
0

0101000
+256 81 -178 81 *
Wi

0101100
+255 0 -177 0 -184 77 +176 80 *
Fa
0  0.000270054645764994 24 0

0101000
+175 0 *
Ve
0.000270104645765882
539.6 2.61971830985916 2
0 0

0101101
*
Ed
 0.000270054645768103 1 1 0
1  41 0 37.9915492957746 38.1661971830986
2  30 3 0 37.9915492957746 38.1661971830986
0

0101000
+178 12 -173 12 *
Ed
 0.000270104645764994 1 1 0
1  42 0 -539.6 0
2  31 3 11 -539.6 0
2  32 25 0 -539.6 0
0

0101000
+173 0 -254 0 *
Wi

0101100
-176 80 -172 11 -171 0 +253 11 *
Fa
0  0.000270054645764994 3 11

0101000
+170 0 *
Ve
0.000270054645768103
539.6 2.61971830985916 3
0 0

0101101
*
Ed
 0.000270054645768103 1 1 0
1  43 0 2 3
0

0101000
+173 0 -168 0 *
Ed
 0.000270054645764994 1 1 0
1  44 0 0 539.6
2  33 26 0 0 539.6
0

0101000
+252 84 -168 84 *
Wi

0101100
+171 0 -167 0 +166 83 +251 0 *
Fa
0  0.000270054645764994 25 0

0101000
+165 0 *
Ve
0.00027010464576677
539.6 2.44507042253522 3
0 0

0101101
*
Ed
 0.000270054645768103 1 1 0
1  45 0 38.1661971830986 38.3408450704225
2  34 4 0 38.1661971830986 38.3408450704225
0

0101000
+168 16 -163 16 *
Ed
 0.000270104645764994 1 1 0
1  46 0 -539.6 0
2  35 4 15 -539.6 0
2  36 27 0 -539.6 0
0

0101000
+163 0 -250 0 *
Wi

0101100
-166 83 -162 15 -161 0 +249 15 *
Fa
0  0.000270054645764994 4 15

0101000
+160 0 *
Ve
0.000270054645768103
539.6 2.44507042253521 4
0 0

0101101
*
Ed
 0.000270054645768103 1 1 0
1  47 0 3 4
0

0101000
+163 0 -158 0 *
Ed
 0.000270054645764994 1 1 0
1  48 0 0 539.6
2  37 28 0 0 539.6
0

0101000
+248 87 -158 87 *
Wi

0101100
+161 0 -157 0 +156 86 +247 0 *
Fa
0  0.000270054645764994 27 0

0101000
+155 0 *
Ve
0.000270104645766326
539.6 2.27042253521127 4
0 0

0101101
*
Ed
 0.000270054645768103 1 1 0
1  49 0 38.3408450704225 38.5154929577465
2  38 5 0 38.3408450704225 38.5154929577465
0

0101000
+158 20 -153 20 *
Ed
 0.000270104645764994 1 1 0
1  50 0 -539.6 0
2  39 5 19 -539.6 0
2  40 29 0 -539.6 0
0

0101000
+153 0 -246 0 *
Wi

0101100
-156 86 -152 19 -151 0 +245 19 *
Fa
0  0.000270054645764994 5 19

0101000
+150 0 *
Ve
0.000270054645768103
539.6 2.27042253521127 5
0 0

0101101
*
Ed
 0.000270054645768103 1 1 0
1  51 0 4 5
0

0101000
+153 0 -148 0 *
Ed
 0.000270054645764994 1 1 0
1  52 0 0 539.6
2  41 30 0 0 539.6
0

0101000
+244 90 -148 90 *
Wi

0101100
+151 0 -147 0 +146 89 +243 0 *
Fa
0  0.000270054645764994 29 0

0101000
+145 0 *
Ve
0.000270104645766326
539.6 2.09577464788733 5
0 0

0101101
*
Ed
 0.000270054645768103 1 1 0
1  53 0 38.5154929577465 38.6901408450704
2  42 6 0 38.5154929577465 38.6901408450704
0

0101000
+148 24 -143 24 *
Ed
 0.000270104645764994 1 1 0
1  54 0 -539.6 0
2  43 6 23 -539.6 0
2  44 31 0 -539.6 0
0

0101000
+143 0 -242 0 *
Wi

0101100
-146 89 -142 23 -141 0 +241 23 *
Fa
0  0.000270054645764994 6 23

0101000
+140 0 *
Ve
0.000270054645768103
539.6 2.09577464788733 6
0 0

0101101
*
Ed
 0.000270054645768103 1 1 0
1  55 0 5 6
0

0101000
+143 0 -138 0 *
Ed
 0.000270054645764994 1 1 0
1  56 0 0 539.6
2  45 32 0 0 539.6
0

0101000
+240 93 -138 93 *
Wi

0101100
+141 0 -137 0 +136 92 +239 0 *
Fa
0  0.000270054645764994 31 0

0101000
+135 0 *
Ve
0.000270104645766326
539.6 1.92112676056339 6
0 0

0101101
*
Ed
 0.000270054645768103 1 1 0
1  57 0 38.6901408450704 38.8647887323944
2  46 7 0 38.6901408450704 38.8647887323944
0

0101000
+138 28 -133 28 *
Ed
 0.000270104645764994 1 1 0
1  58 0 -539.6 0
2  47 7 27 -539.6 0
2  48 33 0 -539.6 0
0

0101000
+133 0 -238 0 *
Wi

0101100
-136 92 -132 27 -131 0 +237 27 *
Fa
0  0.000270054645764994 7 27

0101000
+130 0 *
Ve
0.000270054645768103
539.6 1.92112676056339 7
0 0

0101101
*
Ed
 0.000270054645768103 1 1 0
1  59 0 6 7
0

0101000
+133 0 -128 0 *
Ed
 0.000270054645764994 1 1 0
1  60 0 0 539.6
2  49 34 0 0 539.6
0

0101000
+236 96 -128 96 *
Wi

0101100
+131 0 -127 0 +126 95 +235 0 *
Fa
0  0.000270054645764994 33 0

0101000
+125 0 *
Ve
0.000270104645766104
539.6 1.74647887323945 7
0 0

0101101
*
Ed
 0.000270054645768103 1 1 0
1  61 0 38.8647887323944 39.0394366197183
2  50 8 0 38.8647887323944 39.0394366197183
0

0101000
+128 32 -123 32 *
Ed
 0.000270104645764994 1 1 0
1  62 0 -539.6 0
2  51 8 31 -539.6 0
2  52 35 0 -539.6 0
0

0101000
+123 0 -234 0 *
Wi

0101100
-126 95 -122 31 -121 0 +233 31 *
Fa
0  0.000270054645764994 8 31

0101000
+120 0 *
Ve
0.000270054645768103
539.6 1.74647887323944 8
0 0

0101101
*
Ed
 0.000270054645768103 1 1 0
1  63 0 7 8
0

0101000
+123 0 -118 0 *
Ed
 0.000270054645764994 1 1 0
1  64 0 0 539.6
2  53 36 0 0 539.6
0

0101000
+232 99 -118 99 *
Wi

0101100
+121 0 -117 0 +116 98 +231 0 *
Fa
0  0.000270054645764994 35 0

0101000
+115 0 *
Ve
0.000270104645765882
539.6 1.5718309859155 8
0 0

0101101
*
Ed
 0.000270054645768103 1 1 0
1  65 0 39.0394366197183 39.2140845070422
2  54 9 0 39.0394366197183 39.2140845070422
0

0101000
+118 36 -113 36 *
Ed
 0.000270104645764994 1 1 0
1  66 0 -539.6 0
2  55 9 35 -539.6 0
2  56 37 0 -539.6 0
0

0101000
+113 0 -230 0 *
Wi

0101100
-116 98 -112 35 -111 0 +229 35 *
Fa
0  0.000270054645764994 9 35

0101000
+110 0 *
Ve
0.000270054645768103
539.6 1.5718309859155 9
0 0

0101101
*
Ed
 0.000270054645768103 1 1 0
1  67 0 8 9
0

0101000
+113 0 -108 0 *
Ed
 0.000270054645764994 1 1 0
1  68 0 0 539.6
2  57 38 0 0 539.6
0

0101000
+228 102 -108 102 *
Wi

0101100
+111 0 -107 0 +106 101 +227 0 *
Fa
0  0.000270054645764994 37 0

0101000
+105 0 *
Ve
0.000270104645766104
539.6 1.39718309859156 9
0 0

0101101
*
Ed
 0.000270054645768103 1 1 0
1  69 0 39.2140845070422 39.3887323943662
2  58 10 0 39.2140845070422 39.3887323943662
0

0101000
+108 40 -103 40 *
Ed
 0.000270104645764994 1 1 0
1  70 0 -539.6 0
2  59 10 39 -539.6 0
2  60 39 0 -539.6 0
0

0101000
+103 0 -226 0 *
Wi

0101100
-106 101 -102 39 -101 0 +225 39 *
Fa
0  0.000270054645764994 10 39

0101000
+100 0 *
Ve
0.000270054645768103
539.6 1.39718309859156 10
0 0

0101101
*
Ed
 0.000270054645768103 1 1 0
1  71 0 9 10
0

0101000
+103 0 -98 0 *
Ed
 0.000270054645764994 1 1 0
1  72 0 0 539.6
2  61 40 0 0 539.6
0

0101000
+224 105 -98 105 *
Wi

0101100
+101 0 -97 0 +96 104 +223 0 *
Fa
0  0.000270054645764994 39 0

0101000
+95 0 *
Ve
0.000270104645766326
539.6 1.22253521126762 10
0 0

0101101
*
Ed
 0.000270054645768103 1 1 0
1  73 0 39.3887323943662 39.5633802816901
2  62 11 0 39.3887323943662 39.5633802816901
0

0101000
+98 44 -93 44 *
Ed
 0.000270104645764994 1 1 0
1  74 0 -539.6 0
2  63 11 43 -539.6 0
2  64 41 0 -539.6 0
0

0101000
+93 0 -222 0 *
Wi

0101100
-96 104 -92 43 -91 0 +221 43 *
Fa
0  0.000270054645764994 11 43

0101000
+90 0 *
Ve
0.000270054645768103
539.6 1.22253521126762 11
0 0

0101101
*
Ed
 0.000270054645768103 1 1 0
1  75 0 10 11
0

0101000
+93 0 -88 0 *
Ed
 0.000270054645764994 1 1 0
1  76 0 0 539.6
2  65 42 0 0 539.6
0

0101000
+220 108 -88 108 *
Wi

0101100
+91 0 -87 0 +86 107 +219 0 *
Fa
0  0.000270054645764994 41 0

0101000
+85 0 *
Ve
0.000270104645766326
539.6 1.04788732394368 11
0 0

0101101
*
Ed
 0.000270054645768103 1 1 0
1  77 0 39.5633802816901 39.7380281690141
2  66 12 0 39.5633802816901 39.7380281690141
0

0101000
+88 48 -83 48 *
Ed
 0.000270104645764994 1 1 0
1  78 0 -539.6 0
2  67 12 47 -539.6 0
2  68 43 0 -539.6 0
0

0101000
+83 0 -218 0 *
Wi

0101100
-86 107 -82 47 -81 0 +217 47 *
Fa
0  0.000270054645764994 12 47

0101000
+80 0 *
Ve
0.000270054645768103
539.6 1.04788732394367 12
0 0

0101101
*
Ed
 0.000270054645768103 1 1 0
1  79 0 11 12
0

0101000
+83 0 -78 0 *
Ed
 0.000270054645764994 1 1 0
1  80 0 0 539.6
2  69 44 0 0 539.6
0

0101000
+216 111 -78 111 *
Wi

0101100
+81 0 -77 0 +76 110 +215 0 *
Fa
0  0.000270054645764994 43 0

0101000
+75 0 *
Ve
0.000270104645766104
539.6 0.873239436619733 12
0 0

0101101
*
Ed
 0.000270054645768103 1 1 0
1  81 0 39.7380281690141 39.912676056338
2  70 13 0 39.7380281690141 39.912676056338
0

0101000
+78 52 -73 52 *
Ed
 0.000270104645764994 1 1 0
1  82 0 -539.6 0
2  71 13 51 -539.6 0
2  72 45 0 -539.6 0
0

0101000
+73 0 -214 0 *
Wi

0101100
-76 110 -72 51 -71 0 +213 51 *
Fa
0  0.000270054645764994 13 51

0101000
+70 0 *
Ve
0.000270054645768103
539.6 0.873239436619732 13
0 0

0101101
*
Ed
 0.000270054645768103 1 1 0
1  83 0 12 13
0

0101000
+73 0 -68 0 *
Ed
 0.000270054645764994 1 1 0
1  84 0 0 539.6
2  73 46 0 0 539.6
0

0101000
+212 114 -68 114 *
Wi

0101100
+71 0 -67 0 +66 113 +211 0 *
Fa
0  0.000270054645764994 45 0

0101000
+65 0 *
Ve
0.000270104645765882
539.6 0.698591549295791 13
0 0

0101101
*
Ed
 0.000270054645768103 1 1 0
1  85 0 39.912676056338 40.0873239436619
2  74 14 0 39.912676056338 40.0873239436619
0

0101000
+68 56 -63 56 *
Ed
 0.000270104645764994 1 1 0
1  86 0 -539.6 0
2  75 14 55 -539.6 0
2  76 47 0 -539.6 0
0

0101000
+63 0 -210 0 *
Wi

0101100
-66 113 -62 55 -61 0 +209 55 *
Fa
0  0.000270054645764994 14 55

0101000
+60 0 *
Ve
0.000270054645768103
539.6 0.69859154929579 14
0 0

0101101
*
Ed
 0.000270054645768103 1 1 0
1  87 0 13 14
0

0101000
+63 0 -58 0 *
Ed
 0.000270054645764994 1 1 0
1  88 0 0 539.6
2  77 48 0 0 539.6
0

0101000
+208 117 -58 117 *
Wi

0101100
+61 0 -57 0 +56 116 +207 0 *
Fa
0  0.000270054645764994 47 0

0101000
+55 0 *
Ve
0.000270104645765882
539.6 0.523943661971848 14
0 0

0101101
*
Ed
 0.000270054645768103 1 1 0
1  89 0 40.0873239436619 40.2619718309859
2  78 15 0 40.0873239436619 40.2619718309859
0

0101000
+58 60 -53 60 *
Ed
 0.000270104645764994 1 1 0
1  90 0 -539.6 0
2  79 15 59 -539.6 0
2  80 49 0 -539.6 0
0

0101000
+53 0 -206 0 *
Wi

0101100
-56 116 -52 59 -51 0 +205 59 *
Fa
0  0.000270054645764994 15 59

0101000
+50 0 *
Ve
0.000270054645768103
539.6 0.523943661971847 15
0 0

0101101
*
Ed
 0.000270054645768103 1 1 0
1  91 0 14 15
0

0101000
+53 0 -48 0 *
Ed
 0.000270054645764994 1 1 0
1  92 0 0 539.6
2  81 50 0 0 539.6
0

0101000
+204 120 -48 120 *
Wi

0101100
+51 0 -47 0 +46 119 +203 0 *
Fa
0  0.000270054645764994 49 0

0101000
+45 0 *
Ve
0.000270104645765771
539.6 0.349295774647906 15
0 0

0101101
*
Ed
 0.000270054645768103 1 1 0
1  93 0 40.2619718309859 40.4366197183098
2  82 16 0 40.2619718309859 40.4366197183098
0

0101000
+48 64 -43 64 *
Ed
 0.000270104645764994 1 1 0
1  94 0 -539.6 0
2  83 16 63 -539.6 0
2  84 51 0 -539.6 0
0

0101000
+43 0 -202 0 *
Wi

0101100
-46 119 -42 63 -41 0 +201 63 *
Fa
0  0.000270054645764994 16 63

0101000
+40 0 *
Ve
0.000270054645768103
539.6 0.349295774647905 16
0 0

0101101
*
Ed
 0.000270054645768103 1 1 0
1  95 0 15 16
0

0101000
+43 0 -38 0 *
Ed
 0.000270054645764994 1 1 0
1  96 0 0 539.6
2  85 52 0 0 539.6
0

0101000
+200 123 -38 123 *
Wi

0101100
+41 0 -37 0 +36 122 +199 0 *
Fa
0  0.000270054645764994 51 0

0101000
+35 0 *
Ve
0.000270104645765799
539.6 0.174647887323963 16
0 0

0101101
*
Ed
 0.000270054645768103 1 1 0
1  97 0 40.4366197183098 40.6112676056338
2  86 17 0 40.4366197183098 40.6112676056338
0

0101000
+38 68 -33 68 *
Ed
 0.000270104645764994 1 1 0
1  98 0 -539.6 0
2  87 17 67 -539.6 0
2  88 53 0 -539.6 0
0

0101000
+33 0 -198 0 *
Wi

0101100
-36 122 -32 67 -31 0 +197 67 *
Fa
0  0.000270054645764994 17 67

0101000
+30 0 *
Ve
0.000270054645768103
539.6 0.174647887323963 17
0 0

0101101
*
Ed
 0.000270054645768103 1 1 0
1  99 0 16 17
0

0101000
+33 0 -28 0 *
Ed
 0.000270054645764994 1 1 0
1  100 0 0 539.6
2  89 54 0 0 539.6
0

0101000
+196 126 -28 126 *
Wi

0101100
+31 0 -27 0 +26 125 +195 0 *
Fa
0  0.000270054645764994 53 0

0101000
+25 0 *
Ve
0.000270054645768103
539.6 0 17
0 0

0101101
*
Ed
 0.000270054645768103 1 1 0
1  101 0 40.6112676056338 40.7859154929577
2  90 18 0 40.6112676056338 40.7859154929577
0

0101000
+28 72 -23 72 *
Ed
 0.000270054645768103 1 1 0
1  102 0 0 539.6
2  91 18 0 0 539.6
0

0101000
+194 72 -23 72 *
Wi

0101100
-26 125 -22 71 +21 71 +193 71 *
Fa
0  0.000270054645764994 18 71

0101000
+20 0 *
Ve
1.00000113686838e-07
539.6 0 18.0000000000001
0 0

0101101
*
Ed
 1.00000113686838e-07 1 1 0
1  103 0 17 18.0000000000001
2  92 19 0 17 18.0000000000001
2  93 23 0 17 18.0000000000001
0

0101000
+23 0 -18 0 *
Ed
 1.00000113686838e-07 1 1 0
1  104 0 0 539.6
2  94 19 128 0 539.6
2  95 20 0 0 539.6
0

0101000
+192 128 -18 128 *
Wi

0101100
-21 71 -17 0 +16 127 +191 0 *
Fa
0  1.00000113686838e-07 19 0

0101000
+15 0 *
Ve
1.00000113686838e-07
539.6 81.5718309859155 18.0000000000002
0 0

0101101
*
Ed
 1e-07 1 1 0
1  105 0 0 81.5718309859155
2  96 23 75 0 81.5718309859155
2  97 20 8 0 81.5718309859155
0

0101000
+13 75 -18 75 *
Ed
 1.00000113686838e-07 1 1 0
1  106 0 0 539.6
2  98 21 128 0 539.6
2  99 20 0 0 539.6
0

0101000
+190 128 -13 128 *
Wi

0101100
+189 0 +16 8 -12 0 -11 8 *
Fa
0  1.00000113686838e-07 20 8

0111000
-10 0 *
Ed
 1.00000113686838e-07 1 1 0
1  107 0 0 18.0000000000001
2  100 23 0 0 18.0000000000001
2  101 21 0 0 18.0000000000001
0

0101000
+183 0 -13 0 *
Wi

0101100
+188 0 -8 0 -181 76 +11 127 *
Fa
0  1.00000113686838e-07 21 0

0101000
+7 0 *
Wi

0101100
-182 1 -177 0 -172 11 -167 0 -162 15 -157 0 -152 19 -147 0 -142 23 -137 0 
-132 27 -127 0 -122 31 -117 0 -112 35 -107 0 -102 39 -97 0 -92 43 -87 0 
-82 47 -77 0 -72 51 -67 0 -62 55 -57 0 -52 59 -47 0 -42 63 -37 0 
-32 67 -27 0 -22 71 -17 0 +12 74 +8 0 *
Fa
0  1e-07 23 0

0101000
+5 0 *
Sh

0101100
-186 0 +179 0 -174 0 -169 0 -164 0 -159 0 -154 0 -149 0 -144 0 -139 0 
-134 0 -129 0 -124 0 -119 0 -114 0 -109 0 -104 0 -99 0 -94 0 -89 0 
-84 0 -79 0 -74 0 -69 0 -64 0 -59 0 -54 0 -49 0 -44 0 -39 0 
-34 0 -29 0 -24 0 -19 0 -14 0 -9 74 +6 0 +4 0 *
So

0100000
+3 0 *
Co

1100000
+2 0 *

+1 0 