DBRep_DrawableShape

CASCADE Topology V1, (c) Matra-Datavision
Locations 0
Curve2ds 0
Curves 8
1 145 0 -1.4988010832439613e-15 0 1 0 
2 143 37.199999999999989 -1.4988010832439613e-15 -0 0 -1 -1 -0 0 0 1 0 2
1 20 39.199999999999989 -1.4988010832439613e-15 1 0 0 
2 22 37.199999999999989 -1.4988010832439613e-15 -0 -0 -1 0 -1 0 -1 0 0 2
1 20 20.800000000000011 -1.4988010832439613e-15 0 1 0 
2 22 22.800000000000011 -1.4988010832439613e-15 0 0 -1 1 0 0 0 -1 0 2
1 20 20.800000000000011 -1.4988010832439613e-15 1 0 0 
2 143 22.800000000000011 -1.4988010832439613e-15 -0 0 -1 0 1 0 1 0 -0 2
Polygon3D 0
PolygonOnTriangulations 0
Surfaces 1
1 82.5 30 -1.4988010832439613e-15 0 0 1 1 0 -0 -0 1 0 
Triangulations 0

TShapes 19
Ve
1.50000009936496e-07
145 22.8 -1.49880108324396e-15
0 0

0101101
*
Ve
1.50000009936496e-07
145 37.2 -1.49880108324396e-15
0 0

0101101
*
Ed
 1.50000009936496e-07 1 1 0
1  1 0 22.8 37.2
0

0101000
+19 0 -18 0 *
Ve
1.50000009381385e-07
143 39.2 -1.49880108324396e-15
0 0

0101101
*
Ed
 1.50000006936994e-07 1 1 0
1  2 0 1.5707963267949 3.14159265358979
0

0101000
+16 0 -18 0 *
Ve
1.5000000826191e-07
22 39.2 -1.49880108324396e-15
0 0

0101101
*
Ed
 1.5000000826191e-07 1 1 0
1  3 0 2 123
0

0101000
+14 0 -16 0 *
Ve
1.50000006938894e-07
20 37.2 -1.49880108324396e-15
0 0

0101101
*
Ed
 1.50000006936994e-07 1 1 0
1  4 0 1.57079632679489 3.14159265358979
0

0101000
+12 0 -14 0 *
Ve
1.50000006938894e-07
20 22.8 -1.49880108324396e-15
0 0

0101101
*
Ed
 1.50000006938894e-07 1 1 0
1  5 0 2 16.4
0

0101000
+10 0 -12 0 *
Ve
1.5000000826191e-07
22 20.8 -1.49880108324396e-15
0 0

0101101
*
Ed
 1.50000006936994e-07 1 1 0
1  6 0 1.5707963267949 3.14159265358979
0

0101000
+8 0 -10 0 *
Ve
1.50000009381385e-07
143 20.8 -1.49880108324396e-15
0 0

0101101
*
Ed
 1.5000000826191e-07 1 1 0
1  7 0 2 123
0

0101000
+8 0 -6 0 *
Ed
 1.50000006936994e-07 1 1 0
1  8 0 1.5707963267949 3.14159265358979
0

0101000
+19 0 -6 0 *
Wi

0101100
-17 0 +15 0 +13 0 +11 0 +9 0 +7 0 -5 0 +4 0 *
Fa
0  1e-07 1 0

0101000
-3 0 *
Sh

1101000
+2 0 *

+1 0 