DBRep_DrawableShape

CASCADE Topology V1, (c) Matra-Datavision
Locations 8
1
              1               0               0               0 
              0               1               0               0 
              0               0               1              -1 
1
              1               0               0               0 
              0               1               0               0 
              0               0               1               0 
1
1.11022302462516e-16               0               1               0 
              0               1               0               0 
             -1               0 1.11022302462516e-16               0 
1
              1               0               0 -238.691375367901 
              0               1               0            -350 
              0               0               1              36 
1
              1               0               0               0 
              0               1               0               0 
              0               0               1             -18 
1
              1               0               0               0 
              0               1               0               0 
              0               0               1               1 
2  2 1 3 1 4 1 5 1 6 1 0
2  6 -1 5 -1 4 -1 3 -1 2 -1 0
Curve2ds 4
1 0 0 1 0 
1 145 0 0 -1 
1 0 -60 1 0 
1 0 0 0 -1 
Curves 4
1 18 350 238.691375367901 0 0 1 
1 145 0 1.0000000000000071 0 1 0 
1 18 410 238.691375367901 0 0 1 
1 18 350 238.691375367901 -0 1 0 
Polygon3D 0
PolygonOnTriangulations 0
Surfaces 1
1 18 350 238.691375367901 1 0 -0 0 0 1 0 -1 0 
Triangulations 0

TShapes 9
Ve
1.5e-07
0 0 0.999999999999991
0 0

0101101
*
Ve
1.5e-07
145 0 1.00000000000001
0 0

0101101
*
Ed
 1.5e-07 1 1 0
1  1 0 0 145
2  1 1 0 0 145
0

0101000
+9 8 -8 8 *
Ve
1.5e-07
145 60 1.00000000000001
0 0

0101101
*
Ed
 1.5e-07 1 1 0
1  2 0 0 60
2  2 1 7 0 60
0

0101000
+8 0 -6 0 *
Ve
1.5e-07
0 60 0.999999999999991
0 0

0101101
*
Ed
 1.5e-07 1 1 0
1  3 0 0 145
2  3 1 0 0 145
0

0101000
+4 8 -6 8 *
Ed
 1.5e-07 1 1 0
1  4 0 0 60
2  4 1 0 0 60
0

0101000
+9 8 -4 8 *
Wi

0101100
+7 7 +5 0 -3 7 -2 7 *

+1 1 