DBRep_DrawableShape

CASCADE Topology V1, (c) Matra-Datavision
Locations 97
1
              1               0               0               0 
              0               1               0               0 
              0               0               1              -1 
2  1 -1 0
1
              1               0               0               0 
              0               1               0               0 
              0               0               1 6.00000000000001 
2  3 -1 0
1
              1               0               0               0 
              0               1               0               0 
              0               0               1              18 
2  1 1 5 1 0
2  5 -1 1 -1 0
1
              1               0               0               0 
              0               1               0               0 
              0               0               1               0 
1
1.11022302462516e-16               0              -1               0 
              0               1               0               0 
              1               0 1.11022302462516e-16               0 
1
              1               0               0 439.578699311563 
              0               1               0            -670 
              0               0               1            -564 
1
              1               0               0               0 
              0               1               0               0 
              0               0               1              -0 
1
              1               0               0               0 
              0               1               0               0 
              0               0               1               1 
2  8 1 9 1 10 1 11 1 12 1 1 1 0
2  1 -1 12 -1 11 -1 10 -1 9 -1 8 -1 0
2  12 -1 11 -1 10 -1 9 -1 8 -1 0
1
              1               0               0               0 
              0               1               0               0 
              0               0               1              -0 
1
              1               0               0               0 
              0               1               0               0 
              0               0               1               1 
1
              1               0               0               0 
              0               1               0               0 
              0               0               1              -1 
2  8 1 9 1 10 1 16 1 17 1 18 1 0
2  18 -1 17 -1 16 -1 10 -1 9 -1 8 -1 0
1
              1               0               0               0 
              0               1               0               0 
              0               0               1              18 
2  21 -1 18 -1 17 -1 16 -1 10 -1 9 -1 8 -1 0
1
              1               0               0               0 
              0               1               0               0 
              0               0               1              -0 
1
              1               0               0               0 
              0               1               0               0 
              0               0               1               1 
1
              1               0               0               0 
              0               1               0               0 
              0               0               1              -1 
2  8 1 9 1 10 1 23 1 24 1 25 1 0
2  25 -1 24 -1 23 -1 10 -1 9 -1 8 -1 0
1
              1               0               0               0 
              0               1               0               0 
              0               0               1              18 
2  28 -1 25 -1 24 -1 23 -1 10 -1 9 -1 8 -1 0
1
              1               0               0               0 
              0               1               0               0 
              0               0               1              -0 
1
              1               0               0               0 
              0               1               0               0 
              0               0               1               1 
1
              1               0               0               0 
              0               1               0               0 
              0               0               1              -1 
2  8 1 9 1 10 1 30 1 31 1 32 1 0
2  32 -1 31 -1 30 -1 10 -1 9 -1 8 -1 0
1
              1               0               0               0 
              0               1               0               0 
              0               0               1              18 
2  35 -1 32 -1 31 -1 30 -1 10 -1 9 -1 8 -1 0
1
              1               0               0               0 
              0               1               0               0 
              0               0               1              -0 
1
              1               0               0               0 
              0               1               0               0 
              0               0               1               1 
1
              1               0               0               0 
              0               1               0               0 
              0               0               1              -1 
2  8 1 9 1 10 1 37 1 38 1 39 1 0
2  39 -1 38 -1 37 -1 10 -1 9 -1 8 -1 0
1
              1               0               0               0 
              0               1               0               0 
              0               0               1              18 
2  42 -1 39 -1 38 -1 37 -1 10 -1 9 -1 8 -1 0
1
              1               0               0               0 
              0               1               0               0 
              0               0               1              -0 
1
              1               0               0               0 
              0               1               0               0 
              0               0               1               1 
1
              1               0               0               0 
              0               1               0               0 
              0               0               1              -1 
2  8 1 9 1 10 1 44 1 45 1 46 1 0
2  46 -1 45 -1 44 -1 10 -1 9 -1 8 -1 0
1
              1               0               0               0 
              0               1               0               0 
              0               0               1              18 
2  49 -1 46 -1 45 -1 44 -1 10 -1 9 -1 8 -1 0
1
              1               0               0               0 
              0               1               0               0 
              0               0               1              -0 
1
              1               0               0               0 
              0               1               0               0 
              0               0               1               1 
1
              1               0               0               0 
              0               1               0               0 
              0               0               1              -1 
2  8 1 9 1 10 1 51 1 52 1 53 1 0
2  53 -1 52 -1 51 -1 10 -1 9 -1 8 -1 0
1
              1               0               0               0 
              0               1               0               0 
              0               0               1              18 
2  56 -1 53 -1 52 -1 51 -1 10 -1 9 -1 8 -1 0
1
              1               0               0               0 
              0               1               0               0 
              0               0               1              -0 
1
              1               0               0               0 
              0               1               0               0 
              0               0               1               1 
1
              1               0               0               0 
              0               1               0               0 
              0               0               1              -1 
2  8 1 9 1 10 1 58 1 59 1 60 1 0
2  60 -1 59 -1 58 -1 10 -1 9 -1 8 -1 0
1
              1               0               0               0 
              0               1               0               0 
              0               0               1              18 
2  63 -1 60 -1 59 -1 58 -1 10 -1 9 -1 8 -1 0
1
              1               0               0               0 
              0               1               0               0 
              0               0               1              -0 
1
              1               0               0               0 
              0               1               0               0 
              0               0               1               1 
1
              1               0               0               0 
              0               1               0               0 
              0               0               1              -1 
2  8 1 9 1 10 1 65 1 66 1 67 1 0
2  67 -1 66 -1 65 -1 10 -1 9 -1 8 -1 0
1
              1               0               0               0 
              0               1               0               0 
              0               0               1              18 
2  70 -1 67 -1 66 -1 65 -1 10 -1 9 -1 8 -1 0
1
              1               0               0               0 
              0               1               0               0 
              0               0               1              -0 
1
              1               0               0               0 
              0               1               0               0 
              0               0               1               1 
1
              1               0               0               0 
              0               1               0               0 
              0               0               1              -1 
2  8 1 9 1 10 1 72 1 73 1 74 1 0
2  74 -1 73 -1 72 -1 10 -1 9 -1 8 -1 0
1
              1               0               0               0 
              0               1               0               0 
              0               0               1              18 
2  77 -1 74 -1 73 -1 72 -1 10 -1 9 -1 8 -1 0
1
              1               0               0               0 
              0               1               0               0 
              0               0               1              -0 
1
              1               0               0               0 
              0               1               0               0 
              0               0               1               1 
1
              1               0               0               0 
              0               1               0               0 
              0               0               1              -1 
2  8 1 9 1 10 1 79 1 80 1 81 1 0
2  81 -1 80 -1 79 -1 10 -1 9 -1 8 -1 0
1
              1               0               0               0 
              0               1               0               0 
              0               0               1              18 
2  84 -1 81 -1 80 -1 79 -1 10 -1 9 -1 8 -1 0
2  8 1 9 1 10 1 11 1 12 1 1 1 5 1 0
2  5 -1 1 -1 12 -1 11 -1 10 -1 9 -1 8 -1 0
2  8 1 9 1 10 1 16 1 17 1 18 1 21 1 0
2  8 1 9 1 10 1 23 1 24 1 25 1 28 1 0
2  8 1 9 1 10 1 30 1 31 1 32 1 35 1 0
2  8 1 9 1 10 1 37 1 38 1 39 1 42 1 0
2  8 1 9 1 10 1 44 1 45 1 46 1 49 1 0
2  8 1 9 1 10 1 51 1 52 1 53 1 56 1 0
2  8 1 9 1 10 1 58 1 59 1 60 1 63 1 0
2  8 1 9 1 10 1 65 1 66 1 67 1 70 1 0
2  8 1 9 1 10 1 72 1 73 1 74 1 77 1 0
2  8 1 9 1 10 1 79 1 80 1 81 1 84 1 0
Curve2ds 80
1 0 0 1 0 
1 -72.5 -30 0 1 
1 3.1415926535897913 0 0 -1 
1 1.5707963267948966 0 0 -1 
1 60 0 0 -1 
1 145 1.609823385706477e-14 1.1102230246251565e-16 -1 
1 0 -18 1 0 
1 -72.5 -30 0 1 
1 0 0 0 -1 
1 145 1.609823385706477e-14 1.1102230246251565e-16 -1 
1 0 -0 1 0 
1 72.5 -30 -1 0 
1 0 0 1 0 
1 0 -6.0000000000000142 1 0 
1 0 0 1 0 
1 72.5 -30 0 1 
1 0 -0 1 0 
1 72.5 30 -1 0 
1 0 0 1 0 
1 0 -6.0000000000000142 1 0 
1 0 0 1 0 
1 0 -6.0000000000000142 1 0 
1 0 0 1 0 
1 0 -6.0000000000000142 1 0 
1 0 0 1 0 
1 0 -18 1 0 
1 0 0 1 0 
1 0 -18 1 0 
1 0 0 1 0 
1 0 -18 1 0 
1 0 0 1 0 
1 0 -18 1 0 
1 0 0 1 0 
1 0 -18 1 0 
1 0 0 1 0 
1 0 -18 1 0 
1 0 0 1 0 
1 0 -18 1 0 
1 0 0 1 0 
1 0 -18 1 0 
1 0 0 1 0 
1 0 -18 1 0 
1 0 0 1 0 
1 0 -18 1 0 
1 1.5707963267948966 0 0 -1 
1 3.1415926535897931 0 0 -1 
1 60 0 0 -1 
1 0 -0 1.1102230246251565e-16 -1 
1 1.9984014443252818e-15 -18 1 0 
1 72.5 30 -1 0 
1 1.9984014443252818e-15 -18 1 0 
1 72.5 -30 -1 0 
1 0 -18 1 0 
1 72.5 -30 0 1 
1 0 -0 1.1102230246251565e-16 -1 
1 0 0 0 -1 
1 3.1415926535897931 0 0 -1 
1 1.5707963267948966 0 0 -1 
1 3.1415926535897913 0 0 -1 
1 1.5707963267948966 0 0 -1 
1 0 0 0 -1 
1 6.2831853071795862 0 0 -1 
1 0 0 0 -1 
1 6.2831853071795862 0 0 -1 
1 0 0 0 -1 
1 6.2831853071795862 0 0 -1 
1 0 0 0 -1 
1 6.2831853071795862 0 0 -1 
1 0 0 0 -1 
1 6.2831853071795862 0 0 -1 
1 0 0 0 -1 
1 6.2831853071795862 0 0 -1 
1 0 0 0 -1 
1 6.2831853071795862 0 0 -1 
1 0 0 0 -1 
1 6.2831853071795862 0 0 -1 
1 0 0 0 -1 
1 6.2831853071795862 0 0 -1 
1 0 0 0 -1 
1 6.2831853071795862 0 0 -1 
Curves 48
1 0 0 1 0 1 0 
1 0 22.799999999999951 0 0 0 1 
1 0 0 0 0 1 0 
1 0 37.199999999999932 0 0 0 1 
1 0 60 0 0 0 1 
1 0 0 1 0 1 0 
1 0 0 0 0 0 1 
1 564 670 294.57869931156301 0 0 1 
2 2 22.799999999999955 0 0 -0 -1 1 0 0 0 -1 0 2
1 564 670 294.57869931156301 -0 1 0 
1 125 20.799999999999955 0 -1 0 0 
1 564 730 294.57869931156301 0 0 1 
2 123 22.799999999999955 0 -0 0 -1 0 1 0 1 0 -0 2
1 125 20.799999999999955 0 0 1 0 
2 2 37.199999999999932 0 -0 -0 -1 0 -1 0 -1 0 0 2
2 123 37.199999999999932 0 0 0 -1 -1 0 0 0 1 0 2
1 125 39.199999999999932 0 -1 0 0 
2 564 678 414.57869931156301 1 0 -0 0 0 1 0 -1 0 2.75
2 564 678 359.57869931156301 1 0 -0 0 0 1 0 -1 0 2.75
2 564 680 327.57869931156301 1 0 -0 0 0 1 0 -1 0 2.75
2 564 680 317.57869931156301 1 0 -0 0 0 1 0 -1 0 2.75
2 564 680 307.57869931156301 1 0 -0 0 0 1 0 -1 0 2.75
2 564 722 414.57869931156301 1 0 -0 0 0 1 0 -1 0 2.75
2 564 722 359.57869931156301 1 0 -0 0 0 1 0 -1 0 2.75
2 564 720 327.57869931156301 1 0 -0 0 0 1 0 -1 0 2.75
2 564 720 317.57869931156301 1 0 -0 0 0 1 0 -1 0 2.75
2 564 720 307.57869931156301 1 0 -0 0 0 1 0 -1 0 2.75
1 2 20.799999999999955 0 0 0 1 
1 1.9999999999999998 39.199999999999932 0 0 0 1 
1 145 60 0 0 0 1 
1 564 730 294.57869931156301 0 0 1 
1 564 670 294.57869931156301 0 0 1 
1 564 670 294.57869931156301 -0 1 0 
1 145 0 0 0 0 1 
1 123 20.799999999999955 0 0 0 1 
1 125 22.799999999999955 0 0 0 1 
1 125 37.199999999999939 0 0 0 1 
1 123 39.199999999999932 0 0 0 1 
1 22.25 8 0 0 0 1 
1 77.25 8 0 0 0 1 
1 109.25 10 0 0 0 1 
1 119.25 10 0 0 0 1 
1 129.25 10 0 0 0 1 
1 22.25 52 0 0 0 1 
1 77.25 52 0 0 0 1 
1 109.25 50 0 0 0 1 
1 119.25 50 0 0 0 1 
1 129.25 50 0 0 0 1 
Polygon3D 0
PolygonOnTriangulations 0
Surfaces 25
1 0 0 0 -1 0 0 0 1 0 0 0 -1 
1 72.5 30 1 0 0 1 1 0 -0 -0 1 0 
2 2 22.799999999999955 0 0 0 -1 1 0 0 0 -1 0 2
1 0 22.799999999999951 0 -1 0 0 0 1 0 0 0 -1 
2 2 37.199999999999932 0 -0 -0 -1 0 -1 0 -1 0 0 2
1 145 60 0 0 -1 0 -1 0 1.1102230246251565e-16 -1.1102230246251565e-16 -0 -1 
1 72.5 30 1 0 0 1 1 0 -0 -0 1 0 
1 145 0 0 0 -1 0 -1 0 1.1102230246251565e-16 -1.1102230246251565e-16 -0 -1 
1 145 0 0 -1 0 0 0 1 0 0 0 -1 
2 123 22.799999999999955 0 -0 0 -1 0 1 0 1 0 -0 2
2 123 37.199999999999932 0 0 0 -1 -1 0 0 0 1 0 2
2 25 8 0 -1.1102230246251565e-16 -0 -1 -1 0 1.1102230246251565e-16 0 -1 0 2.75
2 80 8 0 -1.1102230246251565e-16 -0 -1 -1 0 1.1102230246251565e-16 0 -1 0 2.75
2 112 10 0 -1.1102230246251565e-16 -0 -1 -1 0 1.1102230246251565e-16 0 -1 0 2.75
2 122 10 0 -1.1102230246251565e-16 -0 -1 -1 0 1.1102230246251565e-16 0 -1 0 2.75
2 132 10 0 -1.1102230246251565e-16 -0 -1 -1 0 1.1102230246251565e-16 0 -1 0 2.75
2 25 52 0 -1.1102230246251565e-16 -0 -1 -1 0 1.1102230246251565e-16 0 -1 0 2.75
2 80 52 0 -1.1102230246251565e-16 -0 -1 -1 0 1.1102230246251565e-16 0 -1 0 2.75
2 112 50 0 -1.1102230246251565e-16 -0 -1 -1 0 1.1102230246251565e-16 0 -1 0 2.75
2 122 50 0 -1.1102230246251565e-16 -0 -1 -1 0 1.1102230246251565e-16 0 -1 0 2.75
2 132 50 0 -1.1102230246251565e-16 -0 -1 -1 0 1.1102230246251565e-16 0 -1 0 2.75
1 123 20.799999999999955 0 0 -1 0 -1 0 0 -0 -0 -1 
1 62.5 29.999999999999943 0 0 0 1 1 0 -0 -0 1 0 
1 123 39.199999999999932 0 0 -1 0 -1 0 0 -0 -0 -1 
1 125 22.799999999999955 0 -1 0 0 0 1 0 0 0 -1 
Triangulations 0

TShapes 191
Ve
1.5e-07
0 0 0
0 0

0101101
*
Ve
1.50000012721305e-07
0 22.8 0
0 0

0101101
*
Ed
 1.5e-07 1 1 0
1  1 0 0 22.8
2  1 1 2 0 22.8
2  2 2 0 0 22.8
0

0101000
+191 2 -190 2 *
Ve
1.50000012721305e-07
0 22.8 6.00000000000001
0 0

0101101
*
Ed
 1.50000012721305e-07 1 1 0
1  2 0 0 6.00000000000001
2  3 3 0 0 6.00000000000001
4 G1 4 0 3 0
0

0101000
+190 0 -188 0 *
Ve
1.50000012721305e-07
0 37.1999999999999 6.00000000000001
0 0

0101101
*
Ed
 1.50000012721305e-07 1 1 0
1  3 0 22.8 37.1999999999999
0

0101000
+188 4 -186 4 *
Ve
1.50000012721305e-07
0 37.1999999999999 0
0 0

0101101
*
Ed
 1.50000012721305e-07 1 1 0
1  4 0 0 6.00000000000001
2  4 5 0 0 6.00000000000001
4 G1 4 0 5 0
0

0101000
+184 0 -186 0 *
Ve
1.5e-07
0 60 0
0 0

0101101
*
Ed
 1.5e-07 1 1 0
1  1 0 37.1999999999999 60
2  1 1 2 37.1999999999999 60
2  2 2 0 37.1999999999999 60
0

0101000
+184 2 -182 2 *
Ve
1.5e-07
0 60 18
0 0

0101101
*
Ed
 1.5e-07 1 1 0
1  5 0 0 18
2  5 1 0 0 18
2  6 6 0 0 18
0

0101000
+182 0 -180 0 *
Ve
1.5e-07
0 0 18
0 0

0101101
*
Ed
 1e-07 1 1 0
1  6 0 0 60
2  7 1 7 0 60
2  8 7 0 0 60
0

0101000
+178 7 -180 7 *
Ed
 1.5e-07 1 1 0
1  7 0 0 18
2  9 1 0 0 18
2  10 8 0 0 18
0

0101000
+191 0 -178 0 *
Wi

0101100
-189 1 -187 0 -185 3 +183 0 -181 1 -179 0 +177 6 +176 0 *
Fa
0  1e-07 1 0

0101000
+175 0 *
Ve
1.5e-07
145 0 0
0 0

0101101
*
Ed
 1.5e-07 1 1 0
1  8 0 0 145
2  11 8 14 0 145
2  12 2 15 0 145
0

0101000
+173 14 -191 14 *
Ve
1.50000026377049e-07
2 20.8 0
0 0

0101101
*
Ed
 1.5e-07 1 1 0
1  9 0 1.5707963267949 3.14159265358979
2  13 3 0 1.5707963267949 3.14159265358979
2  14 3 4 1.5707963267949 3.14159265358979
0

0101000
+171 0 -190 0 *
Ve
1.5e-07
145 60 0
0 0

0101101
*
Ed
 1.5e-07 1 1 0
1  10 0 0 60
2  15 9 14 0 60
2  16 2 15 0 60
0

0101000
+173 14 -169 14 *
Ve
1.50000025257574e-07
123 20.8 0
0 0

0101101
*
Ed
 1.50000025257574e-07 1 1 0
1  11 0 2 123
0

0101000
+167 0 -171 0 *
Ed
 1.5e-07 1 1 0
1  12 0 0 145
2  17 6 14 0 145
2  18 2 15 0 145
0

0101000
+169 14 -182 14 *
Ve
1.50000012721305e-07
125 22.8 0
0 0

0101101
*
Ed
 1.5e-07 1 1 0
1  13 0 1.5707963267949 3.14159265358979
2  19 10 0 1.5707963267949 3.14159265358979
2  20 10 4 1.5707963267949 3.14159265358979
0

0101000
+164 0 -167 0 *
Ve
1.50000012721305e-07
125 37.1999999999999 0
0 0

0101101
*
Ed
 1.50000012721305e-07 1 1 0
1  14 0 2 16.4
0

0101000
+164 0 -162 0 *
Ve
1.50000026378854e-07
2 39.1999999999999 0
0 0

0101101
*
Ed
 1.5e-07 1 1 0
1  15 0 1.5707963267949 3.14159265358979
2  21 5 0 1.5707963267949 3.14159265358979
2  22 5 4 1.5707963267949 3.14159265358979
0

0101000
+184 0 -160 0 *
Ve
1.50000025257574e-07
123 39.1999999999999 0
0 0

0101101
*
Ed
 1.5e-07 1 1 0
1  16 0 1.5707963267949 3.14159265358979
2  23 11 0 1.5707963267949 3.14159265358979
2  24 11 4 1.5707963267949 3.14159265358979
0

0101000
+158 0 -162 0 *
Ed
 1.50000025257574e-07 1 1 0
1  17 0 2 123
0

0101000
+158 0 -160 0 *
Wi

0101100
-189 1 -172 13 +170 0 +168 13 +166 0 +165 13 +163 0 -181 1 -161 0 +159 0 
+157 0 -156 0 *
Ve
1.50000003552714e-07
22.25 8 0
0 0

0101101
*
Ed
 1.50000003552714e-07 1 1 0
1  18 0 0 6.28318530717959
2  25 12 20 0 6.28318530717959
2  26 12 22 0 6.28318530717959
0

0101000
+154 20 -154 20 *
Wi

0101100
-153 19 *
Ve
1.50000005329071e-07
77.25 8 0
0 0

0101101
*
Ed
 1.50000005329071e-07 1 1 0
1  19 0 0 6.28318530717959
2  27 13 27 0 6.28318530717959
2  28 13 29 0 6.28318530717959
0

0101000
+151 27 -151 27 *
Wi

0101100
-150 26 *
Ve
1.50000003552714e-07
109.25 10 0
0 0

0101101
*
Ed
 1.50000003552714e-07 1 1 0
1  20 0 0 6.28318530717959
2  29 14 34 0 6.28318530717959
2  30 14 36 0 6.28318530717959
0

0101000
+148 34 -148 34 *
Wi

0101100
-147 33 *
Ve
1.50000003552714e-07
119.25 10 0
0 0

0101101
*
Ed
 1.50000003552714e-07 1 1 0
1  21 0 0 6.28318530717959
2  31 15 41 0 6.28318530717959
2  32 15 43 0 6.28318530717959
0

0101000
+145 41 -145 41 *
Wi

0101100
-144 40 *
Ve
1.50000003552714e-07
129.25 10 0
0 0

0101101
*
Ed
 1.50000003552714e-07 1 1 0
1  22 0 0 6.28318530717959
2  33 16 48 0 6.28318530717959
2  34 16 50 0 6.28318530717959
0

0101000
+142 48 -142 48 *
Wi

0101100
-141 47 *
Ve
1.50000000305311e-07
22.25 52 0
0 0

0101101
*
Ed
 1.50000000305311e-07 1 1 0
1  23 0 0 6.28318530717959
2  35 17 55 0 6.28318530717959
2  36 17 57 0 6.28318530717959
0

0101000
+139 55 -139 55 *
Wi

0101100
-138 54 *
Ve
1.50000000305311e-07
77.25 52 0
0 0

0101101
*
Ed
 1.50000000305311e-07 1 1 0
1  24 0 0 6.28318530717959
2  37 18 62 0 6.28318530717959
2  38 18 64 0 6.28318530717959
0

0101000
+136 62 -136 62 *
Wi

0101100
-135 61 *
Ve
1.50000000305311e-07
109.25 50 0
0 0

0101101
*
Ed
 1.50000000305311e-07 1 1 0
1  25 0 0 6.28318530717959
2  39 19 69 0 6.28318530717959
2  40 19 71 0 6.28318530717959
0

0101000
+133 69 -133 69 *
Wi

0101100
-132 68 *
Ve
1.50000000305311e-07
119.25 50 0
0 0

0101101
*
Ed
 1.50000000305311e-07 1 1 0
1  26 0 0 6.28318530717959
2  41 20 76 0 6.28318530717959
2  42 20 78 0 6.28318530717959
0

0101000
+130 76 -130 76 *
Wi

0101100
-129 75 *
Ve
1.50000000305311e-07
129.25 50 0
0 0

0101101
*
Ed
 1.50000000305311e-07 1 1 0
1  27 0 0 6.28318530717959
2  43 21 83 0 6.28318530717959
2  44 21 85 0 6.28318530717959
0

0101000
+127 83 -127 83 *
Wi

0101100
-126 82 *
Fa
0  1.5e-07 2 1

0101000
+155 0 +152 0 +149 0 +146 0 +143 0 +140 0 +137 0 +134 0 +131 0 +128 0 
+125 0 *
Ve
1.50000026377049e-07
2 20.8 0
0 0

0101101
*
Ed
 1.50000026377049e-07 1 1 0
1  28 0 0 6.00000000000001
2  45 3 0 0 6.00000000000001
4 G1 22 0 3 0
0

0101000
+171 0 -123 3 *
Ed
 1.5e-07 1 1 0
1  9 0 1.5707963267949 3.14159265358979
2  13 3 0 1.5707963267949 3.14159265358979
2  14 3 4 1.5707963267949 3.14159265358979
0

0101000
+123 0 -188 4 *
Wi

0101100
+122 0 -187 0 -170 0 +121 3 *
Fa
0  1.5e-07 3 0

0101000
+120 0 *
Ve
1.50000026378854e-07
2 39.1999999999999 0
0 0

0101101
*
Ed
 1.5e-07 1 1 0
1  15 0 1.5707963267949 3.14159265358979
2  21 5 0 1.5707963267949 3.14159265358979
2  22 5 4 1.5707963267949 3.14159265358979
0

0101000
+186 4 -118 0 *
Ve
1.50000025257574e-07
123 39.1999999999999 0
0 0

0101101
*
Ed
 1.50000025257574e-07 1 1 0
1  17 0 2 123
0

0101000
+116 0 -118 0 *
Ve
1.50000012721305e-07
125 37.1999999999999 0
0 0

0101101
*
Ed
 1.5e-07 1 1 0
1  16 0 1.5707963267949 3.14159265358979
2  23 11 0 1.5707963267949 3.14159265358979
2  24 11 4 1.5707963267949 3.14159265358979
0

0101000
+116 0 -114 0 *
Ve
1.50000012721305e-07
125 22.8 0
0 0

0101101
*
Ed
 1.50000012721305e-07 1 1 0
1  14 0 2 16.4
0

0101000
+112 0 -114 0 *
Ve
1.50000025257574e-07
123 20.8 0
0 0

0101101
*
Ed
 1.5e-07 1 1 0
1  13 0 1.5707963267949 3.14159265358979
2  19 10 0 1.5707963267949 3.14159265358979
2  20 10 4 1.5707963267949 3.14159265358979
0

0101000
+112 0 -110 0 *
Ed
 1.50000025257574e-07 1 1 0
1  11 0 2 123
0

0101000
+110 0 -123 0 *
Wi

0101100
+185 3 +117 3 -115 3 +113 3 -111 3 +109 3 +108 3 +121 3 *
Fa
0  1e-07 23 3

0101000
-107 0 *
Ed
 1.50000026378854e-07 1 1 0
1  29 0 0 6.00000000000001
2  46 5 0 0 6.00000000000001
4 G1 5 0 24 0
0

0101000
+160 0 -118 3 *
Wi

0101100
+183 0 -105 0 -159 0 +117 3 *
Fa
0  1.5e-07 5 0

0101000
+104 0 *
Ve
1.5e-07
145 60 18
0 0

0101101
*
Ed
 1.5e-07 1 1 0
1  30 0 0 18
2  47 9 0 0 18
2  48 6 0 0 18
0

0101000
+169 0 -102 0 *
Ed
 1.5e-07 1 1 0
1  31 0 0 145
2  49 6 87 0 145
2  50 7 15 0 145
0

0101000
+102 87 -180 87 *
Wi

0101100
+101 0 -179 0 -165 13 +100 86 *
Fa
0  1.5e-07 6 0

0101000
+99 0 *
Ve
1.5e-07
145 0 18
0 0

0101101
*
Ed
 1.5e-07 1 1 0
1  32 0 0 145
2  51 8 87 0 145
2  52 7 15 0 145
0

0101000
+97 87 -178 87 *
Ed
 1.5e-07 1 1 0
1  33 0 0 60
2  53 9 87 0 60
2  54 7 15 0 60
0

0101000
+97 87 -102 87 *
Wi

0101100
-177 6 -96 86 +100 86 +95 86 *
Ve
1.50000003552714e-07
22.25 8 18
0 0

0101101
*
Ed
 1.50000003552714e-07 1 1 0
1  18 0 0 6.28318530717959
2  25 12 20 0 6.28318530717959
2  26 12 22 0 6.28318530717959
0

0101000
+93 22 -93 22 *
Wi

0101100
-92 88 *
Ve
1.50000005329071e-07
77.25 8 18
0 0

0101101
*
Ed
 1.50000005329071e-07 1 1 0
1  19 0 0 6.28318530717959
2  27 13 27 0 6.28318530717959
2  28 13 29 0 6.28318530717959
0

0101000
+90 29 -90 29 *
Wi

0101100
-89 89 *
Ve
1.50000003552714e-07
109.25 10 18
0 0

0101101
*
Ed
 1.50000003552714e-07 1 1 0
1  20 0 0 6.28318530717959
2  29 14 34 0 6.28318530717959
2  30 14 36 0 6.28318530717959
0

0101000
+87 36 -87 36 *
Wi

0101100
-86 90 *
Ve
1.50000003552714e-07
119.25 10 18
0 0

0101101
*
Ed
 1.50000003552714e-07 1 1 0
1  21 0 0 6.28318530717959
2  31 15 41 0 6.28318530717959
2  32 15 43 0 6.28318530717959
0

0101000
+84 43 -84 43 *
Wi

0101100
-83 91 *
Ve
1.50000003552714e-07
129.25 10 18
0 0

0101101
*
Ed
 1.50000003552714e-07 1 1 0
1  22 0 0 6.28318530717959
2  33 16 48 0 6.28318530717959
2  34 16 50 0 6.28318530717959
0

0101000
+81 50 -81 50 *
Wi

0101100
-80 92 *
Ve
1.50000000305311e-07
22.25 52 18
0 0

0101101
*
Ed
 1.50000000305311e-07 1 1 0
1  23 0 0 6.28318530717959
2  35 17 55 0 6.28318530717959
2  36 17 57 0 6.28318530717959
0

0101000
+78 57 -78 57 *
Wi

0101100
-77 93 *
Ve
1.50000000305311e-07
77.25 52 18
0 0

0101101
*
Ed
 1.50000000305311e-07 1 1 0
1  24 0 0 6.28318530717959
2  37 18 62 0 6.28318530717959
2  38 18 64 0 6.28318530717959
0

0101000
+75 64 -75 64 *
Wi

0101100
-74 94 *
Ve
1.50000000305311e-07
109.25 50 18
0 0

0101101
*
Ed
 1.50000000305311e-07 1 1 0
1  25 0 0 6.28318530717959
2  39 19 69 0 6.28318530717959
2  40 19 71 0 6.28318530717959
0

0101000
+72 71 -72 71 *
Wi

0101100
-71 95 *
Ve
1.50000000305311e-07
119.25 50 18
0 0

0101101
*
Ed
 1.50000000305311e-07 1 1 0
1  26 0 0 6.28318530717959
2  41 20 76 0 6.28318530717959
2  42 20 78 0 6.28318530717959
0

0101000
+69 78 -69 78 *
Wi

0101100
-68 96 *
Ve
1.50000000305311e-07
129.25 50 18
0 0

0101101
*
Ed
 1.50000000305311e-07 1 1 0
1  27 0 0 6.28318530717959
2  43 21 83 0 6.28318530717959
2  44 21 85 0 6.28318530717959
0

0101000
+66 85 -66 85 *
Wi

0101100
-65 97 *
Fa
0  1.5e-07 7 6

0101000
+94 0 +91 0 +88 0 +85 0 +82 0 +79 0 +76 0 +73 0 +70 0 +67 0 
+64 0 *
Ed
 1.5e-07 1 1 0
1  34 0 0 18
2  55 8 0 0 18
2  56 9 0 0 18
0

0101000
+173 0 -97 0 *
Wi

0101100
+62 0 -176 0 -172 13 +96 86 *
Fa
0  1.5e-07 8 0

0101000
+61 0 *
Wi

0101100
+62 0 -101 0 -168 13 +95 86 *
Fa
0  1.5e-07 9 0

0101000
+59 0 *
Ed
 1.50000025257574e-07 1 1 0
1  35 0 0 6.00000000000001
2  57 10 0 0 6.00000000000001
4 G1 10 0 22 0
0

0101000
+167 0 -110 3 *
Wi

0101100
+57 0 -122 0 -166 0 +108 3 *
Fa
0  1.50000025257574e-07 22 0

0101000
+56 0 *
Ed
 1.50000012721305e-07 1 1 0
1  36 0 0 6.00000000000001
2  58 10 0 0 6.00000000000001
4 G1 25 0 10 0
0

0101000
+164 0 -112 3 *
Wi

0101100
+54 0 -57 0 -163 0 +109 3 *
Fa
0  1.5e-07 10 0

0101000
+53 0 *
Ed
 1.50000012721305e-07 1 1 0
1  37 0 0 6.00000000000001
2  59 11 0 0 6.00000000000001
4 G1 11 0 25 0
0

0101000
+162 0 -114 3 *
Wi

0101100
+54 0 -51 0 -161 0 +111 3 *
Fa
0  1.50000012721305e-07 25 0

0101000
+50 0 *
Ed
 1.50000025257574e-07 1 1 0
1  38 0 0 6.00000000000001
2  60 11 0 0 6.00000000000001
4 G1 24 0 11 0
0

0101000
+158 0 -116 3 *
Wi

0101100
+48 0 -51 0 -157 0 +113 3 *
Fa
0  1.5e-07 11 0

0101000
+47 0 *
Wi

0101100
+48 0 -105 0 -156 0 +115 3 *
Fa
0  1.50000025257574e-07 24 0

0101000
+45 0 *
Ed
 1.50000003552714e-07 1 1 0
1  39 0 0 18
3  61 62CN 12 0 0 18
0

0101000
+154 0 -93 0 *
Wi

0101100
+43 0 -43 0 -153 19 +92 88 *
Fa
0  1.50000003552714e-07 12 0

0101000
+42 0 *
Ed
 1.50000005329071e-07 1 1 0
1  40 0 0 18
3  63 64CN 13 0 0 18
0

0101000
+151 0 -90 0 *
Wi

0101100
+40 0 -40 0 -150 26 +89 89 *
Fa
0  1.50000005329071e-07 13 0

0101000
+39 0 *
Ed
 1.50000003552714e-07 1 1 0
1  41 0 0 18
3  65 66CN 14 0 0 18
0

0101000
+148 0 -87 0 *
Wi

0101100
+37 0 -37 0 -147 33 +86 90 *
Fa
0  1.50000003552714e-07 14 0

0101000
+36 0 *
Ed
 1.50000003552714e-07 1 1 0
1  42 0 0 18
3  67 68CN 15 0 0 18
0

0101000
+145 0 -84 0 *
Wi

0101100
+34 0 -34 0 -144 40 +83 91 *
Fa
0  1.50000003552714e-07 15 0

0101000
+33 0 *
Ed
 1.50000003552714e-07 1 1 0
1  43 0 0 18
3  69 70CN 16 0 0 18
0

0101000
+142 0 -81 0 *
Wi

0101100
+31 0 -31 0 -141 47 +80 92 *
Fa
0  1.50000003552714e-07 16 0

0101000
+30 0 *
Ed
 1.50000000305311e-07 1 1 0
1  44 0 0 18
3  71 72CN 17 0 0 18
0

0101000
+139 0 -78 0 *
Wi

0101100
+28 0 -28 0 -138 54 +77 93 *
Fa
0  1.50000000305311e-07 17 0

0101000
+27 0 *
Ed
 1.50000000305311e-07 1 1 0
1  45 0 0 18
3  73 74CN 18 0 0 18
0

0101000
+136 0 -75 0 *
Wi

0101100
+25 0 -25 0 -135 61 +74 94 *
Fa
0  1.50000000305311e-07 18 0

0101000
+24 0 *
Ed
 1.50000000305311e-07 1 1 0
1  46 0 0 18
3  75 76CN 19 0 0 18
0

0101000
+133 0 -72 0 *
Wi

0101100
+22 0 -22 0 -132 68 +71 95 *
Fa
0  1.50000000305311e-07 19 0

0101000
+21 0 *
Ed
 1.50000000305311e-07 1 1 0
1  47 0 0 18
3  77 78CN 20 0 0 18
0

0101000
+130 0 -69 0 *
Wi

0101100
+19 0 -19 0 -129 75 +68 96 *
Fa
0  1.50000000305311e-07 20 0

0101000
+18 0 *
Ed
 1.50000000305311e-07 1 1 0
1  48 0 0 18
3  79 80CN 21 0 0 18
0

0101000
+127 0 -66 0 *
Wi

0101100
+16 0 -16 0 -126 82 +65 97 *
Fa
0  1.50000000305311e-07 21 0

0101000
+15 0 *
Sh

0101100
+174 0 -124 0 -119 0 -106 0 -103 0 -98 0 +63 0 +60 0 -58 0 -55 0 
-52 0 +49 0 -46 0 +44 0 +41 0 +38 0 +35 0 +32 0 +29 0 +26 0 
+23 0 +20 0 +17 0 +14 0 *
So

0100000
+13 0 *
Co

0100000
+12 0 *
Co

0100000
+11 0 *
Co

0100000
+10 0 *
Co

0100000
+9 0 *
Co

0100000
+8 0 *
Co

0100000
+7 0 *
Co

0100000
+6 0 *
Co

0100000
+5 0 *
Co

0100000
+4 0 *
Co

0100000
+3 0 *
Co

1100000
+2 0 *

+1 0 