DBRep_DrawableShape

CASCADE Topology V1, (c) Matra-Datavision
Locations 5
1
              1               0               0               0 
              0               1               0               0 
              0               0               1               0 
1
1.11022302462516e-16               0               1               0 
              0               1               0               0 
             -1               0 1.11022302462516e-16               0 
1
              1               0               0 -343.480107762267 
              0               1               0            -950 
              0               0               1              36 
2  1 1 2 1 3 1 0
2  1 -1 0
Curve2ds 108
1 0 0 1 0 
1 0 0 1 0 
1 145 0 0 -1 
1 0 0 0 1 
1 0 0 0 -1 
1 0 0 0 1 
1 0 -60 1 0 
1 0 0 1 0 
2 13 -50 1 0 -0 1 2.75
1 0 1 1 0 
2 23 -50 1 0 -0 1 2.75
1 0 1 1 0 
2 33 -50 1 0 -0 1 2.75
1 0 1 1 0 
2 65 -52 1 0 -0 1 2.75
1 0 1 1 0 
2 120 -52 1 0 -0 1 2.75
1 0 1 1 0 
2 13 -10 1 0 -0 1 2.75
1 0 1 1 0 
2 23 -10 1 0 -0 1 2.75
1 0 1 1 0 
2 33 -10 1 0 -0 1 2.75
1 0 1 1 0 
2 65 -8 1 0 -0 1 2.75
1 0 1 1 0 
2 120 -8 1 0 -0 1 2.75
1 0 1 1 0 
1 0 0 0 1 
1 0 0 1 0 
1 0 18 1 0 
1 0 0 1 0 
1 145 0 0 1 
1 0 0 1 0 
1 0 60 1 0 
1 145 0 0 1 
1 18 0 0 1 
1 145 0 0 -1 
8 -12 -6
1 6 39.199999999999932 -1 0 
8 -12 -6
1 125 -6 0 -1 
8 10.399999999999977 28.799999999999955
1 12 10.399999999999977 0 1 
8 10.399999999999977 28.799999999999955
1 125 10.399999999999977 0 -1 
8 -12 -6
1 6 20.799999999999955 -1 0 
8 -12 -6
1 125 -6 0 -1 
1 18 0 0 1 
1 145 0 0 -1 
1 0 60 1 0 
1 0 0 0 1 
1 18 0 0 1 
1 0 0 0 -1 
1 0 18 1 0 
1 0 -60 1 0 
1 0 19 1 0 
2 13 -50 1 0 -0 1 2.75
1 6.2831853071795862 -0 0 1 
1 0 -0 0 1 
1 0 19 1 0 
2 23 -50 1 0 -0 1 2.75
1 6.2831853071795862 -0 0 1 
1 0 -0 0 1 
1 0 19 1 0 
2 33 -50 1 0 -0 1 2.75
1 6.2831853071795862 -0 0 1 
1 0 -0 0 1 
1 0 19 1 0 
2 65 -52 1 0 -0 1 2.75
1 6.2831853071795862 -0 0 1 
1 0 -0 0 1 
1 0 19 1 0 
2 120 -52 1 0 -0 1 2.75
1 6.2831853071795862 -0 0 1 
1 0 -0 0 1 
1 0 19 1 0 
2 13 -10 1 0 -0 1 2.75
1 6.2831853071795862 -0 0 1 
1 0 -0 0 1 
1 0 19 1 0 
2 23 -10 1 0 -0 1 2.75
1 6.2831853071795862 -0 0 1 
1 0 -0 0 1 
1 0 19 1 0 
2 33 -10 1 0 -0 1 2.75
1 6.2831853071795862 -0 0 1 
1 0 -0 0 1 
1 0 19 1 0 
2 65 -8 1 0 -0 1 2.75
1 6.2831853071795862 -0 0 1 
1 0 -0 0 1 
1 0 19 1 0 
2 120 -8 1 0 -0 1 2.75
1 6.2831853071795862 -0 0 1 
1 0 -0 0 1 
1 20 -20.799999999999955 1 0 
1 0 6 1 0 
1 20 -20.799999999999955 0 -1 
1 6 0 0 1 
1 20 -39.199999999999932 1 0 
1 0 6 1 0 
1 0 0 0 1 
1 0 18.399999999999977 1 0 
1 0 0 1 0 
1 0 -18.399999999999977 1 0 
1 0 0 1 0 
1 0 0 1 0 
1 0 0 0 -1 
1 0 0 0 1 
1 0 0 0 1 
1 0 0 1 0 
Curves 54
1 18 950 343.48010776226721 0 0 1 
1 18 950 488.48010776226721 -0 1 0 
1 18 950 343.48010776226721 -0 1 0 
1 18 1010 343.48010776226721 0 0 1 
2 18 1000 356.48010776226721 1 0 0 -0 0 1 0 -1 0 2.75
2 18 1000 366.48010776226721 1 0 0 -0 0 1 0 -1 0 2.75
2 18 1000 376.48010776226721 1 0 0 -0 0 1 0 -1 0 2.75
2 18 1002 408.48010776226721 1 0 0 -0 0 1 0 -1 0 2.75
2 18 1002 463.48010776226721 1 0 0 -0 0 1 0 -1 0 2.75
2 18 960 356.48010776226721 1 0 0 -0 0 1 0 -1 0 2.75
2 18 960 366.48010776226721 1 0 0 -0 0 1 0 -1 0 2.75
2 18 960 376.48010776226721 1 0 0 -0 0 1 0 -1 0 2.75
2 18 958 408.48010776226721 1 0 0 -0 0 1 0 -1 0 2.75
2 18 958 463.48010776226721 1 0 0 -0 0 1 0 -1 0 2.75
1 18 950 343.48010776226721 1 0 -0 
1 36 950 343.48010776226721 0 0 1 
1 18 950 488.48010776226721 1 0 -0 
1 18 1010 488.48010776226721 1 0 -0 
1 36 950 488.48010776226721 -0 1 0 
1 24 989.19999999999993 488.48010776226721 -1 -0 0 
1 30 960.39999999999998 488.48010776226721 -0 1 0 
1 24 970.79999999999995 488.48010776226721 -1 -0 0 
1 36 950 488.48010776226721 -0 1 0 
1 18 1010 343.48010776226721 1 0 -0 
1 36 950 343.48010776226721 -0 1 0 
1 36 1010 343.48010776226721 0 0 1 
2 36 1000 356.48010776226721 1 0 0 -0 0 1 0 -1 0 2.75
1 17 1000 359.23010776226721 1 0 0 
2 36 1000 366.48010776226721 1 0 0 -0 0 1 0 -1 0 2.75
1 17 1000 369.23010776226721 1 0 0 
2 36 1000 376.48010776226721 1 0 0 -0 0 1 0 -1 0 2.75
1 17 1000 379.23010776226721 1 0 0 
2 36 1002 408.48010776226721 1 0 0 -0 0 1 0 -1 0 2.75
1 17 1002 411.23010776226721 1 0 0 
2 36 1002 463.48010776226721 1 0 0 -0 0 1 0 -1 0 2.75
1 17 1002 466.23010776226721 1 0 0 
2 36 960 356.48010776226721 1 0 0 -0 0 1 0 -1 0 2.75
1 17 960 359.23010776226721 1 0 0 
2 36 960 366.48010776226721 1 0 0 -0 0 1 0 -1 0 2.75
1 17 960 369.23010776226721 1 0 0 
2 36 960 376.48010776226721 1 0 0 -0 0 1 0 -1 0 2.75
1 17 960 379.23010776226721 1 0 0 
2 36 958 408.48010776226721 1 0 0 -0 0 1 0 -1 0 2.75
1 17 958 411.23010776226721 1 0 0 
2 36 958 463.48010776226721 1 0 0 -0 0 1 0 -1 0 2.75
1 17 958 466.23010776226721 1 0 0 
1 36 970.79999999999995 363.48010776226721 0 0 1 
1 36 970.79999999999995 363.48010776226721 -0 1 0 
1 36 989.19999999999993 363.48010776226721 0 0 1 
1 30 989.19999999999993 363.48010776226721 1 0 -0 
1 30 989.19999999999993 363.48010776226721 0 0 1 
1 30 970.79999999999995 363.48010776226721 0 0 1 
1 30 970.79999999999995 363.48010776226721 -0 1 0 
1 30 970.79999999999995 363.48010776226721 1 0 -0 
Polygon3D 0
PolygonOnTriangulations 0
Surfaces 20
1 18 950 343.48010776226721 1 0 -0 0 0 1 0 -1 0 
1 18 950 343.48010776226721 -0 1 0 0 0 1 1 0 -0 
1 18 950 488.48010776226721 0 0 1 1 0 -0 -0 1 0 
1 18 950 343.48010776226721 0 0 1 1 0 -0 -0 1 0 
1 18 1010 343.48010776226721 -0 1 0 0 0 1 1 0 -0 
2 17 1000 356.48010776226721 1 0 0 -0 0 1 0 -1 0 2.75
2 17 1000 366.48010776226721 1 0 0 -0 0 1 0 -1 0 2.75
2 17 1000 376.48010776226721 1 0 0 -0 0 1 0 -1 0 2.75
2 17 1002 408.48010776226721 1 0 0 -0 0 1 0 -1 0 2.75
2 17 1002 463.48010776226721 1 0 0 -0 0 1 0 -1 0 2.75
2 17 960 356.48010776226721 1 0 0 -0 0 1 0 -1 0 2.75
2 17 960 366.48010776226721 1 0 0 -0 0 1 0 -1 0 2.75
2 17 960 376.48010776226721 1 0 0 -0 0 1 0 -1 0 2.75
2 17 958 408.48010776226721 1 0 0 -0 0 1 0 -1 0 2.75
2 17 958 463.48010776226721 1 0 0 -0 0 1 0 -1 0 2.75
1 36 950 343.48010776226721 1 0 -0 0 0 1 0 -1 0 
1 30 989.19999999999993 363.48010776226721 -0 1 0 0 0 1 1 0 -0 
1 30 970.79999999999995 363.48010776226721 1 0 -0 0 0 1 0 -1 0 
1 30 970.79999999999995 363.48010776226721 -0 1 0 0 0 1 1 0 -0 
1 30 970.79999999999995 363.48010776226721 0 0 1 1 0 -0 -0 1 0 
Triangulations 0

TShapes 163
Ve
1e-07
18 950 488.480107762267
0 0

0101101
*
Ve
1e-07
18 950 343.480107762267
0 0

0101101
*
Ed
 1e-07 1 1 0
1  1 0 0 145
2  1 1 0 0 145
2  2 2 0 0 145
0

0101000
-163 5 +162 5 *
Ve
1e-07
18 1010 488.480107762267
0 0

0101101
*
Ed
 1e-07 1 1 0
1  2 0 0 60
2  3 1 0 0 60
2  4 3 0 0 60
0

0101000
-160 5 +163 5 *
Ve
1e-07
18 1010 343.480107762267
0 0

0101101
*
Ed
 1e-07 1 1 0
1  3 0 0 60
2  5 1 0 0 60
2  6 4 0 0 60
0

0101000
-158 5 +162 5 *
Ed
 1e-07 1 1 0
1  4 0 0 145
2  7 1 0 0 145
2  8 5 0 0 145
0

0101000
-160 5 +158 5 *
Wi

0101100
-161 0 -159 0 +157 0 +156 0 *
Ve
1e-07
18 1000 359.230107762267
0 0

0101101
*
Ed
 1e-07 1 1 0
1  5 0 0 6.28318530717959
2  9 1 0 0 6.28318530717959
2  10 6 0 0 6.28318530717959
0

0101100
+154 5 -154 5 *
Wi

0101100
-153 0 *
Ve
1e-07
18 1000 369.230107762267
0 0

0101101
*
Ed
 1e-07 1 1 0
1  6 0 0 6.28318530717959
2  11 1 0 0 6.28318530717959
2  12 7 0 0 6.28318530717959
0

0101100
+151 5 -151 5 *
Wi

0101100
-150 0 *
Ve
1e-07
18 1000 379.230107762267
0 0

0101101
*
Ed
 1e-07 1 1 0
1  7 0 0 6.28318530717959
2  13 1 0 0 6.28318530717959
2  14 8 0 0 6.28318530717959
0

0101100
+148 5 -148 5 *
Wi

0101100
-147 0 *
Ve
1e-07
18 1002 411.230107762267
0 0

0101101
*
Ed
 1e-07 1 1 0
1  8 0 0 6.28318530717959
2  15 1 0 0 6.28318530717959
2  16 9 0 0 6.28318530717959
0

0101100
+145 5 -145 5 *
Wi

0101100
-144 0 *
Ve
1e-07
18 1002 466.230107762267
0 0

0101101
*
Ed
 1e-07 1 1 0
1  9 0 0 6.28318530717959
2  17 1 0 0 6.28318530717959
2  18 10 0 0 6.28318530717959
0

0101100
+142 5 -142 5 *
Wi

0101100
-141 0 *
Ve
1e-07
18 960 359.230107762267
0 0

0101101
*
Ed
 1e-07 1 1 0
1  10 0 0 6.28318530717959
2  19 1 0 0 6.28318530717959
2  20 11 0 0 6.28318530717959
0

0101100
+139 5 -139 5 *
Wi

0101100
-138 0 *
Ve
1e-07
18 960 369.230107762267
0 0

0101101
*
Ed
 1e-07 1 1 0
1  11 0 0 6.28318530717959
2  21 1 0 0 6.28318530717959
2  22 12 0 0 6.28318530717959
0

0101100
+136 5 -136 5 *
Wi

0101100
-135 0 *
Ve
1e-07
18 960 379.230107762267
0 0

0101101
*
Ed
 1e-07 1 1 0
1  12 0 0 6.28318530717959
2  23 1 0 0 6.28318530717959
2  24 13 0 0 6.28318530717959
0

0101100
+133 5 -133 5 *
Wi

0101100
-132 0 *
Ve
1e-07
18 958 411.230107762267
0 0

0101101
*
Ed
 1e-07 1 1 0
1  13 0 0 6.28318530717959
2  25 1 0 0 6.28318530717959
2  26 14 0 0 6.28318530717959
0

0101100
+130 5 -130 5 *
Wi

0101100
-129 0 *
Ve
1e-07
18 958 466.230107762267
0 0

0101101
*
Ed
 1e-07 1 1 0
1  14 0 0 6.28318530717959
2  27 1 0 0 6.28318530717959
2  28 15 0 0 6.28318530717959
0

0101100
+127 5 -127 5 *
Wi

0101100
-126 0 *
Fa
0  1e-07 1 0

0111000
+155 0 +152 0 +149 0 +146 0 +143 0 +140 0 +137 0 +134 0 +131 0 +128 0 
+125 0 *
Ve
1e-07
36 950 343.480107762267
0 0

0101101
*
Ed
 1e-07 1 1 0
1  15 0 0 18
2  29 2 0 0 18
2  30 4 0 0 18
0

0101000
-123 5 +162 5 *
Ve
1e-07
36 950 488.480107762267
0 0

0101101
*
Ed
 1e-07 1 1 0
1  16 0 0 145
2  31 2 0 0 145
2  32 16 0 0 145
0

0101000
-121 5 +123 5 *
Ed
 1e-07 1 1 0
1  17 0 0 18
2  33 2 0 0 18
2  34 3 0 0 18
0

0101000
-121 5 +163 5 *
Wi

0101100
-122 0 -120 0 +119 0 +161 0 *
Fa
0  1e-07 2 0

0111000
+118 0 *
Ve
1e-07
36 1010 488.480107762267
0 0

0101101
*
Ed
 1e-07 1 1 0
1  18 0 0 18
2  35 3 0 0 18
2  36 5 0 0 18
0

0101000
-116 5 +160 5 *
Ve
1.5e-07
36 989.2 488.480107762267
0 0

0101101
*
Ed
 1e-07 1 1 0
1  19 0 39.1999999999999 60
2  37 3 0 39.1999999999999 60
2  38 16 0 39.1999999999999 60
0

0101000
+114 5 -116 5 *
Ve
1.5e-07
30 989.2 488.480107762267
0 0

0101101
*
Ed
 1.5e-07 1 1 0
1  20 0 -12 -6
2  39 3 0 -12 -6
2  40 17 0 -12 -6
0

0101000
+114 5 -112 5 *
Ve
1.5e-07
30 970.8 488.480107762267
0 0

0101101
*
Ed
 1.5e-07 1 1 0
1  21 0 10.4 28.8
2  41 3 0 10.4 28.8
2  42 18 0 10.4 28.8
0

0101000
+110 5 -112 5 *
Ve
1.5e-07
36 970.8 488.480107762267
0 0

0101101
*
Ed
 1.5e-07 1 1 0
1  22 0 -12 -6
2  43 3 0 -12 -6
2  44 19 0 -12 -6
0

0101000
+108 5 -110 5 *
Ed
 1e-07 1 1 0
1  23 0 0 20.8
2  45 3 0 0 20.8
2  46 16 0 0 20.8
0

0101000
+121 5 -108 5 *
Wi

0101100
-115 0 +113 0 -111 0 +109 0 +107 0 +106 0 +119 0 -159 0 *
Fa
0  1e-07 3 0

0111000
+105 0 *
Ve
1e-07
36 1010 343.480107762267
0 0

0101101
*
Ed
 1e-07 1 1 0
1  24 0 0 18
2  47 4 0 0 18
2  48 5 0 0 18
0

0101000
-103 5 +158 5 *
Ed
 1e-07 1 1 0
1  25 0 0 60
2  49 4 0 0 60
2  50 16 0 0 60
0

0101000
-103 5 +123 5 *
Wi

0101100
-157 0 -102 0 +101 0 +122 0 *
Fa
0  1e-07 4 0

0111000
+100 0 *
Ed
 1e-07 1 1 0
1  26 0 0 145
2  51 5 0 0 145
2  52 16 0 0 145
0

0101000
-116 5 +103 5 *
Wi

0101100
-102 0 -98 0 +115 0 +156 0 *
Fa
0  1e-07 5 0

0111000
+97 0 *
Ve
1e-07
36 1000 359.230107762267
0 0

0101101
*
Ed
 1e-07 1 1 0
1  27 0 0 6.28318530717959
2  53 6 0 0 6.28318530717959
2  54 16 0 0 6.28318530717959
0

0101100
+95 5 -95 5 *
Ed
 1e-07 1 1 0
1  28 0 1 19
3  55 56CN 6 0 1 19
0

0101000
+154 5 -95 5 *
Wi

0101100
-94 0 +93 0 +153 0 -93 0 *
Fa
0  1e-07 6 0

0111000
+92 0 *
Ve
1e-07
36 1000 369.230107762267
0 0

0101101
*
Ed
 1e-07 1 1 0
1  29 0 0 6.28318530717959
2  57 7 0 0 6.28318530717959
2  58 16 0 0 6.28318530717959
0

0101100
+90 5 -90 5 *
Ed
 1e-07 1 1 0
1  30 0 1 19
3  59 60CN 7 0 1 19
0

0101000
+151 5 -90 5 *
Wi

0101100
-89 0 +88 0 +150 0 -88 0 *
Fa
0  1e-07 7 0

0111000
+87 0 *
Ve
1e-07
36 1000 379.230107762267
0 0

0101101
*
Ed
 1e-07 1 1 0
1  31 0 0 6.28318530717959
2  61 8 0 0 6.28318530717959
2  62 16 0 0 6.28318530717959
0

0101100
+85 5 -85 5 *
Ed
 1e-07 1 1 0
1  32 0 1 19
3  63 64CN 8 0 1 19
0

0101000
+148 5 -85 5 *
Wi

0101100
-84 0 +83 0 +147 0 -83 0 *
Fa
0  1e-07 8 0

0111000
+82 0 *
Ve
1e-07
36 1002 411.230107762267
0 0

0101101
*
Ed
 1e-07 1 1 0
1  33 0 0 6.28318530717959
2  65 9 0 0 6.28318530717959
2  66 16 0 0 6.28318530717959
0

0101100
+80 5 -80 5 *
Ed
 1e-07 1 1 0
1  34 0 1 19
3  67 68CN 9 0 1 19
0

0101000
+145 5 -80 5 *
Wi

0101100
-79 0 +78 0 +144 0 -78 0 *
Fa
0  1e-07 9 0

0111000
+77 0 *
Ve
1e-07
36 1002 466.230107762267
0 0

0101101
*
Ed
 1e-07 1 1 0
1  35 0 0 6.28318530717959
2  69 10 0 0 6.28318530717959
2  70 16 0 0 6.28318530717959
0

0101100
+75 5 -75 5 *
Ed
 1e-07 1 1 0
1  36 0 1 19
3  71 72CN 10 0 1 19
0

0101000
+142 5 -75 5 *
Wi

0101100
-74 0 +73 0 +141 0 -73 0 *
Fa
0  1e-07 10 0

0111000
+72 0 *
Ve
1e-07
36 960 359.230107762267
0 0

0101101
*
Ed
 1e-07 1 1 0
1  37 0 0 6.28318530717959
2  73 11 0 0 6.28318530717959
2  74 16 0 0 6.28318530717959
0

0101100
+70 5 -70 5 *
Ed
 1e-07 1 1 0
1  38 0 1 19
3  75 76CN 11 0 1 19
0

0101000
+139 5 -70 5 *
Wi

0101100
-69 0 +68 0 +138 0 -68 0 *
Fa
0  1e-07 11 0

0111000
+67 0 *
Ve
1e-07
36 960 369.230107762267
0 0

0101101
*
Ed
 1e-07 1 1 0
1  39 0 0 6.28318530717959
2  77 12 0 0 6.28318530717959
2  78 16 0 0 6.28318530717959
0

0101100
+65 5 -65 5 *
Ed
 1e-07 1 1 0
1  40 0 1 19
3  79 80CN 12 0 1 19
0

0101000
+136 5 -65 5 *
Wi

0101100
-64 0 +63 0 +135 0 -63 0 *
Fa
0  1e-07 12 0

0111000
+62 0 *
Ve
1e-07
36 960 379.230107762267
0 0

0101101
*
Ed
 1e-07 1 1 0
1  41 0 0 6.28318530717959
2  81 13 0 0 6.28318530717959
2  82 16 0 0 6.28318530717959
0

0101100
+60 5 -60 5 *
Ed
 1e-07 1 1 0
1  42 0 1 19
3  83 84CN 13 0 1 19
0

0101000
+133 5 -60 5 *
Wi

0101100
-59 0 +58 0 +132 0 -58 0 *
Fa
0  1e-07 13 0

0111000
+57 0 *
Ve
1e-07
36 958 411.230107762267
0 0

0101101
*
Ed
 1e-07 1 1 0
1  43 0 0 6.28318530717959
2  85 14 0 0 6.28318530717959
2  86 16 0 0 6.28318530717959
0

0101100
+55 5 -55 5 *
Ed
 1e-07 1 1 0
1  44 0 1 19
3  87 88CN 14 0 1 19
0

0101000
+130 5 -55 5 *
Wi

0101100
-54 0 +53 0 +129 0 -53 0 *
Fa
0  1e-07 14 0

0111000
+52 0 *
Ve
1e-07
36 958 466.230107762267
0 0

0101101
*
Ed
 1e-07 1 1 0
1  45 0 0 6.28318530717959
2  89 15 0 0 6.28318530717959
2  90 16 0 0 6.28318530717959
0

0101100
+50 5 -50 5 *
Ed
 1e-07 1 1 0
1  46 0 1 19
3  91 92CN 15 0 1 19
0

0101000
+127 5 -50 5 *
Wi

0101100
-49 0 +48 0 +126 0 -48 0 *
Fa
0  1e-07 15 0

0111000
+47 0 *
Ve
1e-07
36 970.8 363.480107762267
0 0

0101101
*
Ed
 1e-07 1 1 0
1  47 0 0 125
2  93 16 0 0 125
2  94 19 0 0 125
0

0101000
+45 5 -108 5 *
Ve
1e-07
36 989.2 363.480107762267
0 0

0101101
*
Ed
 1e-07 1 1 0
1  48 0 0 18.4
2  95 16 0 0 18.4
2  96 20 0 0 18.4
0

0101000
+45 5 -43 5 *
Ed
 1e-07 1 1 0
1  49 0 0 125
2  97 16 0 0 125
2  98 17 0 0 125
0

0101000
+43 5 -114 5 *
Wi

0101100
-106 0 -120 0 +44 0 +101 0 -42 0 +98 0 -41 0 -113 0 *
Wi

0101100
-94 0 *
Wi

0101100
-89 0 *
Wi

0101100
-84 0 *
Wi

0101100
-79 0 *
Wi

0101100
-74 0 *
Wi

0101100
-69 0 *
Wi

0101100
-64 0 *
Wi

0101100
-59 0 *
Wi

0101100
-54 0 *
Wi

0101100
-49 0 *
Fa
0  1e-07 16 0

0111000
+40 0 +39 0 +38 0 +37 0 +36 0 +35 0 +34 0 +33 0 +32 0 +31 0 
+30 0 *
Ve
1.5e-07
30 989.2 363.480107762267
0 0

0101101
*
Ed
 1e-07 1 1 0
1  50 0 0 6
2  99 17 0 0 6
2  100 20 0 0 6
0

0101000
+28 5 -43 5 *
Ed
 1.5e-07 1 1 0
1  51 0 0 125
2  101 17 0 0 125
2  102 18 0 0 125
0

0101000
+28 5 -112 5 *
Wi

0101100
-27 0 -41 0 -111 0 +26 0 *
Fa
0  1e-07 17 0

0111000
+25 0 *
Ve
1.5e-07
30 970.8 363.480107762267
0 0

0101101
*
Ed
 1.5e-07 1 1 0
1  52 0 0 125
2  103 18 0 0 125
2  104 19 0 0 125
0

0101000
+23 5 -110 5 *
Ed
 1.5e-07 1 1 0
1  53 0 0 18.4
2  105 18 0 0 18.4
2  106 20 0 0 18.4
0

0101000
-28 5 +23 5 *
Wi

0101100
-22 0 -109 0 +26 0 +21 0 *
Fa
0  1e-07 18 0

0111000
+20 0 *
Ed
 1e-07 1 1 0
1  54 0 0 6
2  107 19 0 0 6
2  108 20 0 0 6
0

0101000
+23 5 -45 5 *
Wi

0101100
-18 0 -44 0 -107 0 +22 0 *
Fa
0  1e-07 19 0

0111000
+17 0 *
Wi

0101100
-21 0 -27 0 +42 0 +18 0 *
Fa
0  1e-07 20 0

0111000
+15 0 *
Sh

0101100
-124 0 -117 0 +104 0 -99 0 +96 0 -91 0 -86 0 -81 0 -76 0 -71 0 
-66 0 -61 0 -56 0 -51 0 -46 0 +29 0 -24 0 +19 0 +16 0 +14 0 
*
So

0100000
+13 0 *
Co

0100000
+12 0 *
Co

0100000
+11 0 *
Co

0100000
+10 0 *
Co

0100000
+9 0 *
Co

0100000
+8 0 *
Co

0100000
+7 0 *
Co

0100000
+6 0 *
Co

0100000
+5 0 *
Co

0100000
+4 0 *
Co

0100000
+3 0 *
Co

1100000
+2 0 *

+1 4 