DBRep_DrawableShape

CASCADE Topology V1, (c) Matra-Datavision
Locations 8
1
              1               0               0               0 
              0               1               0               0 
              0               0               1              -1 
1
              1               0               0               0 
              0               1               0               0 
              0               0               1               0 
1
1.11022302462516e-16               0              -1               0 
              0               1               0               0 
              1               0 1.11022302462516e-16               0 
1
              1               0               0 488.480107762267 
              0               1               0            -950 
              0               0               1            -564 
1
              1               0               0               0 
              0               1               0               0 
              0               0               1              -0 
1
              1               0               0               0 
              0               1               0               0 
              0               0               1               1 
2  2 1 3 1 4 1 5 1 6 1 0
2  6 -1 5 -1 4 -1 3 -1 2 -1 0
Curve2ds 4
1 -72.5 -30 0 1 
1 72.5 -30 -1 0 
1 72.5 -30 0 1 
1 72.5 30 -1 0 
Curves 4
1 0 0 1 0 1 0 
1 564 950 343.48010776226721 0 0 1 
1 564 950 343.48010776226721 -0 1 0 
1 564 1010 343.48010776226721 0 0 1 
Polygon3D 0
PolygonOnTriangulations 0
Surfaces 1
1 72.5 30 1 0 0 1 1 0 -0 -0 1 0 
Triangulations 0

TShapes 9
Ve
1.5e-07
0 0 1
0 0

0101101
*
Ve
1.5e-07
0 60 1
0 0

0101101
*
Ed
 1.5e-07 1 1 0
1  1 0 0 60
2  1 1 0 0 60
0

0101000
+9 0 -8 0 *
Ve
1.5e-07
145 0 1
0 0

0101101
*
Ed
 1.5e-07 1 1 0
1  2 0 0 145
2  2 1 8 0 145
0

0101000
+6 8 -9 8 *
Ve
1.5e-07
145 60 1
0 0

0101101
*
Ed
 1.5e-07 1 1 0
1  3 0 0 60
2  3 1 8 0 60
0

0101000
+6 8 -4 8 *
Ed
 1.5e-07 1 1 0
1  4 0 0 145
2  4 1 8 0 145
0

0101000
+4 8 -8 8 *
Wi

0101100
-7 0 -5 7 +3 7 +2 7 *

+1 1 