DBRep_DrawableShape

CASCADE Topology V1, (c) Matra-Datavision
Locations 8
1
              1               0               0               0 
              0               1               0               0 
              0               0               1              -1 
2  1 -1 0
1
              1               0               0               0 
              0               1               0               0 
              0               0               1               0 
1
1.11022302462516e-16               0              -1               0 
              0               1               0               0 
              1               0 1.11022302462516e-16               0 
1
              1               0               0 488.480107762267 
              0               1               0            -950 
              0               0               1            -564 
2  3 1 4 1 5 1 0
2  5 -1 4 -1 3 -1 0
2  3 -1 0
Curve2ds 23
1 -72.5 -30 0 1 
8 -6 0
1 0 39.199999999999932 -1 0 
8 -6 0
1 125 0 0 -1 
8 10.399999999999977 28.799999999999955
1 6 10.399999999999977 0 1 
8 10.399999999999977 28.799999999999955
1 125 10.399999999999977 0 -1 
8 -6 0
1 0 20.799999999999955 -1 0 
8 -6 0
1 125 0 0 -1 
1 20 -39.199999999999932 1 0 
1 0 0 1 0 
1 20 -20.799999999999955 0 -1 
1 0 0 0 1 
1 20 -20.799999999999955 1 0 
1 0 0 1 0 
1 0 18.399999999999977 1 0 
1 0 0 0 1 
1 0 6 1 0 
1 0 -18.399999999999977 1 0 
1 0 6 1 0 
1 0 0 1 0 
1 6 0 0 1 
1 0 0 0 -1 
1 0 0 0 1 
1 0 0 1 0 
Curves 12
1 0 0 1 0 1 0 
1 564 989.19999999999993 488.48010776226721 -1 -0 0 
1 570 960.39999999999998 488.48010776226721 -0 1 0 
1 564 970.79999999999995 488.48010776226721 -1 -0 0 
1 564 989.19999999999993 363.48010776226721 0 0 1 
1 564 970.79999999999995 363.48010776226721 -0 1 0 
1 564 970.79999999999995 363.48010776226721 0 0 1 
1 564 989.19999999999993 363.48010776226721 1 0 -0 
1 570 989.19999999999993 363.48010776226721 0 0 1 
1 570 970.79999999999995 363.48010776226721 0 0 1 
1 570 970.79999999999995 363.48010776226721 -0 1 0 
1 564 970.79999999999995 363.48010776226721 1 0 -0 
Polygon3D 0
PolygonOnTriangulations 0
Surfaces 8
1 0 0 0 -1 0 0 0 1 0 0 0 -1 
1 72.5 30 1 0 0 1 1 0 -0 -0 1 0 
1 564 950 488.48010776226721 0 0 1 1 0 -0 -0 1 0 
1 564 989.19999999999993 363.48010776226721 -0 1 0 0 0 1 1 0 -0 
1 570 970.79999999999995 363.48010776226721 1 0 -0 0 0 1 0 -1 0 
1 564 970.79999999999995 363.48010776226721 -0 1 0 0 0 1 1 0 -0 
1 564 950 343.48010776226721 1 0 -0 0 0 1 0 -1 0 
1 564 970.79999999999995 363.48010776226721 0 0 1 1 0 -0 -0 1 0 
Triangulations 0

TShapes 34
Ve
1.50000012721305e-07
0 20.8 0
0 0

0101101
*
Ve
1.50000012721305e-07
0 39.1999999999999 0
0 0

0101101
*
Ed
 1.5e-07 1 1 0
1  1 0 20.8 39.1999999999999
2  1 2 0 20.8 39.1999999999999
0

0101000
+34 2 -33 2 *
Ve
1.5e-07
0 39.1999999999999 6
0 0

0101101
*
Ed
 1.5e-07 1 1 0
1  2 0 -6 0
2  2 3 0 -6 0
2  3 4 0 -6 0
0

0101000
+31 7 -33 7 *
Ve
1.5e-07
0 20.8 6
0 0

0101101
*
Ed
 1.5e-07 1 1 0
1  3 0 10.4 28.8
2  4 3 0 10.4 28.8
2  5 5 0 10.4 28.8
0

0101000
+29 7 -31 7 *
Ed
 1.5e-07 1 1 0
1  4 0 -6 0
2  6 3 0 -6 0
2  7 6 0 -6 0
0

0101000
+29 7 -34 7 *
Wi

0101100
-32 1 +30 6 +28 6 -27 6 *
Fa
0  1e-07 1 0

0101000
+26 0 *
Ve
1.50000012721305e-07
125 39.1999999999999 0
0 0

0101101
*
Ed
 1.50000012721305e-07 1 1 0
1  5 0 0 125
2  8 7 0 0 125
2  9 4 0 0 125
0

0101000
+24 7 -33 7 *
Ve
1.50000012721305e-07
125 20.8 0
0 0

0101101
*
Ed
 1.5e-07 1 1 0
1  6 0 0 18.4
2  10 7 0 0 18.4
2  11 8 0 0 18.4
0

0101000
+22 7 -24 7 *
Ed
 1.50000012721305e-07 1 1 0
1  7 0 0 125
2  12 7 0 0 125
2  13 6 0 0 125
0

0101000
+22 7 -34 7 *
Wi

0101100
-32 1 +23 6 +21 6 -20 6 *
Fa
0  1.5e-07 2 1

0101000
+19 0 *
Ve
1.5e-07
570 989.2 363.480107762267
0 0

0101101
*
Ed
 1e-07 1 1 0
1  8 0 0 6
2  14 8 0 0 6
2  15 4 0 0 6
0

0101000
+24 7 -17 8 *
Ed
 1.5e-07 1 1 0
1  9 0 0 125
2  16 4 0 0 125
2  17 5 0 0 125
0

0101000
+17 8 -31 7 *
Wi

0101100
-16 6 -15 6 -30 6 +23 6 *
Fa
0  1e-07 4 6

0101000
+14 0 *
Ve
1.5e-07
570 970.8 363.480107762267
0 0

0101101
*
Ed
 1.5e-07 1 1 0
1  10 0 0 125
2  18 6 0 0 125
2  19 5 0 0 125
0

0101000
+12 8 -29 7 *
Ed
 1.5e-07 1 1 0
1  11 0 0 18.4
2  20 8 0 0 18.4
2  21 5 0 0 18.4
0

0101000
-17 8 +12 8 *
Wi

0101100
-11 6 -28 6 +15 6 +10 6 *
Fa
0  1e-07 5 6

0101000
+9 0 *
Ed
 1e-07 1 1 0
1  12 0 0 6
2  22 6 0 0 6
2  23 8 0 0 6
0

0101000
+22 7 -12 8 *
Wi

0101100
-7 6 -11 6 -27 6 +20 6 *
Fa
0  1e-07 6 6

0101000
+6 0 *
Wi

0101100
-21 6 -16 6 +10 6 +7 6 *
Fa
0  1e-07 8 6

0101000
+4 0 *
Sh

0101100
+25 0 -18 0 +13 0 +8 0 -5 0 -3 0 *
So

0100000
+2 0 *

+1 0 