DBRep_DrawableShape

CASCADE Topology V1, (c) Matra-Datavision
Locations 7
1
              1               0               0               0 
              0               1               0               0 
              0               0               1               0 
1
             -1               0 -1.22464679914735e-16               0 
              0               1               0               0 
1.22464679914735e-16               0              -1               0 
1
              1               0               0           442.5 
              0               1               0            -830 
              0               0               1              54 
2  1 1 2 1 3 1 0
1
              1               0               0               0 
              0               1               0               0 
              0               0               1               0 
2  1 -1 5 -1 0
2  1 -1 0
Curve2ds 64
1 0 0 1 0 
1 0 0 1 0 
1 18 0 0 -1 
1 0 0 0 1 
1 0 -460 1 0 
1 0 0 1 0 
1 0 0 0 -1 
1 0 0 0 1 
1 0 0 0 1 
1 0 0 1 0 
1 0 285 1 0 
1 0 0 1 0 
1 18 0 0 1 
1 0 0 1 0 
1 0 460 1 0 
1 18 0 0 1 
1 285 0 0 1 
1 18 0 0 -1 
2 22.5 20 1 0 -0 1 5.25
1 0 3.5355339059327378 1 0 
2 262.5 20 1 0 -0 1 5.25
1 0 3.5355339059327378 1 0 
2 22.5 440 1 0 -0 1 5.25
1 0 3.5355339059327378 1 0 
2 262.5 440 1 0 -0 1 5.25
1 0 3.5355339059327378 1 0 
1 0 0 0 1 
1 0 460 1 0 
1 0 285 1 0 
1 0 -460 1 0 
1 285 0 0 1 
1 0 0 0 -1 
2 22.5 20 1 0 -0 1 2.75
1 0 19 1 0 
2 262.5 20 1 0 -0 1 2.75
1 0 19 1 0 
2 22.5 440 1 0 -0 1 2.75
1 0 19 1 0 
2 262.5 440 1 0 -0 1 2.75
1 0 19 1 0 
1 6.2831853071795862 -0 0 1 
1 0 -0 0 1 
1 0 0 1 0 
1 0 34.5 1 0 
1 6.2831853071795862 -0 0 1 
1 0 -0 0 1 
1 0 0 1 0 
1 0 34.5 1 0 
1 6.2831853071795862 -0 0 1 
1 0 -0 0 1 
1 0 0 1 0 
1 0 34.5 1 0 
1 6.2831853071795862 -0 0 1 
1 0 -0 0 1 
1 0 0 1 0 
1 0 34.5 1 0 
1 6.2831853071795862 -0 0 1 
1 0 -0 0 1 
1 6.2831853071795862 -0 0 1 
1 0 -0 0 1 
1 6.2831853071795862 -0 0 1 
1 0 -0 0 1 
1 6.2831853071795862 -0 0 1 
1 0 -0 0 1 
Curves 32
1 157.5 830 36 0 0 1 
1 157.5 830 54 -0 1 0 
1 157.5 1290 36 0 0 1 
1 157.5 830 36 -0 1 0 
1 157.5 830 36 1 0 -0 
1 442.5 830 36 0 0 1 
1 157.5 830 54 1 0 -0 
1 157.5 1290 54 1 0 -0 
1 442.5 830 54 -0 1 0 
2 180 850 54 0 0 1 1 0 -0 -0 1 0 5.25
2 420 850 54 0 0 1 1 0 -0 -0 1 0 5.25
2 180 1270 54 0 0 1 1 0 -0 -0 1 0 5.25
2 420 1270 54 0 0 1 1 0 -0 -0 1 0 5.25
1 157.5 1290 36 1 0 -0 
1 442.5 1290 36 0 0 1 
1 442.5 830 36 -0 1 0 
2 180 850 36 0 0 1 1 0 -0 -0 1 0 2.75
2 420 850 36 0 0 1 1 0 -0 -0 1 0 2.75
2 180 1270 36 0 0 1 1 0 -0 -0 1 0 2.75
2 420 1270 36 0 0 1 1 0 -0 -0 1 0 2.75
1 182.75 850 51.5 0.70710678118654746 -1.7e-16 0.70710678118654757 
2 180 850 51.5 0 0 1 1 0 -0 -0 1 0 2.75
1 422.75 850 51.5 0.70710678118654746 -1.7e-16 0.70710678118654757 
2 420 850 51.5 0 0 1 1 0 -0 -0 1 0 2.75
1 182.75 1270 51.5 0.70710678118654746 -1.7e-16 0.70710678118654757 
2 180 1270 51.5 0 0 1 1 0 -0 -0 1 0 2.75
1 422.75 1270 51.5 0.70710678118654746 -1.7e-16 0.70710678118654757 
2 420 1270 51.5 0 0 1 1 0 -0 -0 1 0 2.75
1 182.75 850 17 0 0 1 
1 422.75 850 17 0 0 1 
1 182.75 1270 17 0 0 1 
1 422.75 1270 17 0 0 1 
Polygon3D 0
PolygonOnTriangulations 0
Surfaces 14
1 157.5 830 36 1 0 -0 0 0 1 0 -1 0 
1 157.5 830 36 -0 1 0 0 0 1 1 0 -0 
1 157.5 830 54 0 0 1 1 0 -0 -0 1 0 
1 157.5 1290 36 -0 1 0 0 0 1 1 0 -0 
1 157.5 830 36 0 0 1 1 0 -0 -0 1 0 
1 442.5 830 36 1 0 -0 0 0 1 0 -1 0 
3 180 850 51.5 0 0 1 1 0 -0 -0 1 0 2.75
0.78539816339744828
3 420 850 51.5 0 0 1 1 0 -0 -0 1 0 2.75
0.78539816339744828
3 180 1270 51.5 0 0 1 1 0 -0 -0 1 0 2.75
0.78539816339744828
3 420 1270 51.5 0 0 1 1 0 -0 -0 1 0 2.75
0.78539816339744828
2 180 850 17 0 0 1 1 0 -0 -0 1 0 2.75
2 420 850 17 0 0 1 1 0 -0 -0 1 0 2.75
2 180 1270 17 0 0 1 1 0 -0 -0 1 0 2.75
2 420 1270 17 0 0 1 1 0 -0 -0 1 0 2.75
Triangulations 0

TShapes 98
Ve
1e-07
157.5 830 54
0 0

0101101
*
Ve
1e-07
157.5 830 36
0 0

0101101
*
Ed
 1e-07 1 1 0
1  1 0 0 18
2  1 1 0 0 18
2  2 2 0 0 18
0

0101000
-98 6 +97 6 *
Ve
1e-07
157.5 1290 54
0 0

0101101
*
Ed
 1e-07 1 1 0
1  2 0 0 460
2  3 1 0 0 460
2  4 3 0 0 460
0

0101000
-95 6 +98 6 *
Ve
1e-07
157.5 1290 36
0 0

0101101
*
Ed
 1e-07 1 1 0
1  3 0 0 18
2  5 1 0 0 18
2  6 4 0 0 18
0

0101000
-95 6 +93 6 *
Ed
 1e-07 1 1 0
1  4 0 0 460
2  7 1 0 0 460
2  8 5 0 0 460
0

0101000
-93 6 +97 6 *
Wi

0101100
-96 0 -94 0 +92 0 +91 0 *
Fa
0  1e-07 1 0

0111000
+90 0 *
Ve
1e-07
442.5 830 36
0 0

0101101
*
Ed
 1e-07 1 1 0
1  5 0 0 285
2  9 2 0 0 285
2  10 5 0 0 285
0

0101000
-88 6 +97 6 *
Ve
1e-07
442.5 830 54
0 0

0101101
*
Ed
 1e-07 1 1 0
1  6 0 0 18
2  11 2 0 0 18
2  12 6 0 0 18
0

0101000
-86 6 +88 6 *
Ed
 1e-07 1 1 0
1  7 0 0 285
2  13 2 0 0 285
2  14 3 0 0 285
0

0101000
-86 6 +98 6 *
Wi

0101100
-87 0 -85 0 +84 0 +96 0 *
Fa
0  1e-07 2 0

0111000
+83 0 *
Ve
1e-07
442.5 1290 54
0 0

0101101
*
Ed
 1e-07 1 1 0
1  8 0 0 285
2  15 3 0 0 285
2  16 4 0 0 285
0

0101000
-81 6 +95 6 *
Ed
 1e-07 1 1 0
1  9 0 0 460
2  17 3 0 0 460
2  18 6 0 0 460
0

0101000
-81 6 +86 6 *
Wi

0101100
-94 5 -80 5 +84 5 +79 5 *
Ve
1e-07
185.25 850 54
0 0

0101101
*
Ed
 1e-07 1 1 0
1  10 0 0 6.28318530717959
2  19 3 5 0 6.28318530717959
2  20 7 0 0 6.28318530717959
0

0101000
+77 7 -77 7 *
Wi

0101100
-76 0 *
Ve
1e-07
425.25 850 54
0 0

0101101
*
Ed
 1e-07 1 1 0
1  11 0 0 6.28318530717959
2  21 3 5 0 6.28318530717959
2  22 8 0 0 6.28318530717959
0

0101000
+74 7 -74 7 *
Wi

0101100
-73 0 *
Ve
1e-07
185.25 1270 54
0 0

0101101
*
Ed
 1e-07 1 1 0
1  12 0 0 6.28318530717959
2  23 3 5 0 6.28318530717959
2  24 9 0 0 6.28318530717959
0

0101000
+71 7 -71 7 *
Wi

0101100
-70 0 *
Ve
1e-07
425.25 1270 54
0 0

0101101
*
Ed
 1e-07 1 1 0
1  13 0 0 6.28318530717959
2  25 3 5 0 6.28318530717959
2  26 10 0 0 6.28318530717959
0

0101000
+68 7 -68 7 *
Wi

0101100
-67 0 *
Fa
0  1e-07 3 5

0111000
+78 0 +75 0 +72 0 +69 0 +66 0 *
Ve
1e-07
442.5 1290 36
0 0

0101101
*
Ed
 1e-07 1 1 0
1  14 0 0 285
2  27 4 0 0 285
2  28 5 0 0 285
0

0101000
-64 6 +93 6 *
Ed
 1e-07 1 1 0
1  15 0 0 18
2  29 4 0 0 18
2  30 6 0 0 18
0

0101000
-81 6 +64 6 *
Wi

0101100
-63 0 -62 0 +80 0 +92 0 *
Fa
0  1e-07 4 0

0111000
+61 0 *
Ed
 1e-07 1 1 0
1  16 0 0 460
2  31 5 0 0 460
2  32 6 0 0 460
0

0101000
-64 6 +88 6 *
Wi

0101100
-91 5 -63 5 +87 5 +59 5 *
Ve
1e-07
182.75 850 36
0 0

0101101
*
Ed
 1e-07 1 1 0
1  17 0 0 6.28318530717959
2  33 5 5 0 6.28318530717959
2  34 11 0 0 6.28318530717959
0

0101100
+57 7 -57 7 *
Wi

0101100
-56 0 *
Ve
1e-07
422.75 850 36
0 0

0101101
*
Ed
 1e-07 1 1 0
1  18 0 0 6.28318530717959
2  35 5 5 0 6.28318530717959
2  36 12 0 0 6.28318530717959
0

0101100
+54 7 -54 7 *
Wi

0101100
-53 0 *
Ve
1e-07
182.75 1270 36
0 0

0101101
*
Ed
 1e-07 1 1 0
1  19 0 0 6.28318530717959
2  37 5 5 0 6.28318530717959
2  38 13 0 0 6.28318530717959
0

0101100
+51 7 -51 7 *
Wi

0101100
-50 0 *
Ve
1e-07
422.75 1270 36
0 0

0101101
*
Ed
 1e-07 1 1 0
1  20 0 0 6.28318530717959
2  39 5 5 0 6.28318530717959
2  40 14 0 0 6.28318530717959
0

0101100
+48 7 -48 7 *
Wi

0101100
-47 0 *
Fa
0  1e-07 5 5

0111000
+58 0 +55 0 +52 0 +49 0 +46 0 *
Wi

0101100
-85 0 -79 0 +62 0 +59 0 *
Fa
0  1e-07 6 0

0111000
+44 0 *
Ve
1.00000028e-07
182.75 850 51.5
0 0

0101101
*
Ed
 1e-07 1 1 0
1  21 0 0 3.53553390593274
3  41 42CN 7 0 0 3.53553390593274
0

0101000
+42 7 -77 7 *
Ed
 1.00000028e-07 1 1 0
1  22 0 0 6.28318530717959
2  43 7 0 0 6.28318530717959
2  44 11 0 0 6.28318530717959
0

0101000
+42 7 -42 7 *
Wi

0101100
-76 0 +41 0 +40 0 -41 0 *
Fa
0  1e-07 7 0

0111000
+39 0 *
Ve
1e-07
422.75 850 51.5
0 0

0101101
*
Ed
 1e-07 1 1 0
1  23 0 0 3.53553390593274
3  45 46CN 8 0 0 3.53553390593274
0

0101000
+37 7 -74 7 *
Ed
 1e-07 1 1 0
1  24 0 0 6.28318530717959
2  47 8 0 0 6.28318530717959
2  48 12 0 0 6.28318530717959
0

0101000
+37 7 -37 7 *
Wi

0101100
-73 0 +36 0 +35 0 -36 0 *
Fa
0  1e-07 8 0

0111000
+34 0 *
Ve
1.00000028e-07
182.75 1270 51.5
0 0

0101101
*
Ed
 1e-07 1 1 0
1  25 0 0 3.53553390593274
3  49 50CN 9 0 0 3.53553390593274
0

0101000
+32 7 -71 7 *
Ed
 1.00000028e-07 1 1 0
1  26 0 0 6.28318530717959
2  51 9 0 0 6.28318530717959
2  52 13 0 0 6.28318530717959
0

0101000
+32 7 -32 7 *
Wi

0101100
-70 0 +31 0 +30 0 -31 0 *
Fa
0  1e-07 9 0

0111000
+29 0 *
Ve
1.00000057e-07
422.75 1270 51.5
0 0

0101101
*
Ed
 1e-07 1 1 0
1  27 0 0 3.53553390593274
3  53 54CN 10 0 0 3.53553390593274
0

0101000
+27 7 -68 7 *
Ed
 1.00000057e-07 1 1 0
1  28 0 0 6.28318530717959
2  55 10 0 0 6.28318530717959
2  56 14 0 0 6.28318530717959
0

0101000
+27 7 -27 7 *
Wi

0101100
-67 0 +26 0 +25 0 -26 0 *
Fa
0  1e-07 10 0

0111000
+24 0 *
Ed
 1e-07 1 1 0
1  29 0 19 34.5
3  57 58CN 11 0 19 34.5
0

0101000
+57 7 -42 7 *
Wi

0101100
-40 0 +22 0 +56 0 -22 0 *
Fa
0  1e-07 11 0

0111000
+21 0 *
Ed
 1e-07 1 1 0
1  30 0 19 34.5
3  59 60CN 12 0 19 34.5
0

0101000
+54 7 -37 7 *
Wi

0101100
-35 0 +19 0 +53 0 -19 0 *
Fa
0  1e-07 12 0

0111000
+18 0 *
Ed
 1e-07 1 1 0
1  31 0 19 34.5
3  61 62CN 13 0 19 34.5
0

0101000
+51 7 -32 7 *
Wi

0101100
-30 0 +16 0 +50 0 -16 0 *
Fa
0  1e-07 13 0

0111000
+15 0 *
Ed
 1e-07 1 1 0
1  32 0 19 34.5
3  63 64CN 14 0 19 34.5
0

0101000
+48 7 -27 7 *
Wi

0101100
-25 0 +13 0 +47 0 -13 0 *
Fa
0  1e-07 14 0

0111000
+12 0 *
Sh

0101100
-89 5 -82 5 +65 0 +60 5 -45 0 +43 5 -38 0 -33 0 -28 0 -23 0 
-20 0 -17 0 -14 0 -11 0 *
So

0100000
+10 0 *
Co

0100000
+9 0 *
Co

0100000
+8 0 *
Co

0100000
+7 0 *
Co

0100000
+6 0 *
Co

0100000
+5 0 *
Co

0100000
+4 0 *
Co

0100000
+3 0 *
Co

1100000
+2 0 *

+1 4 