DBRep_DrawableShape

CASCADE Topology V1, (c) Matra-Datavision
Locations 13
1
              1               0               0               0 
              0               1               0               0 
              0               0               1               0 
1
              1               0               0               0 
              0               1               0               0 
              0               0               1               0 
1
             -1               0 -1.22464679914735e-16               0 
              0               1               0               0 
1.22464679914735e-16               0              -1               0 
1
              1               0               0           442.5 
              0               1               0            -830 
              0               0               1              54 
1
              1               0               0               0 
              0               1               0               0 
              0               0               1              -0 
1
              1               0               0               0 
              0               1               0               0 
              0               0               1               1 
1
              1               0               0               0 
              0               1               0               0 
              0               0               1              -1 
2  1 1 2 1 3 1 4 1 5 1 6 1 7 1 0
2  2 1 3 1 4 1 0
2  4 -1 3 -1 2 -1 0
2  2 -1 0
1
              1               0               0               0 
              0               1               0               0 
              0               0               1              18 
2  1 1 2 1 3 1 4 1 5 1 6 1 7 1 12 1 0
Curve2ds 10
2 22.5 440 1 0 -0 1 5.25
1 0 3.5355339059327378 1 0 
1 6.2831853071795862 -0 0 1 
1 0 -0 0 1 
1 0 0 1 0 
1 0 34.5 1 0 
1 6.2831853071795862 -0 0 1 
1 0 -0 0 1 
2 22.5 440 1 0 -0 1 2.75
1 0 19 1 0 
Curves 5
2 180 1270 54 0 0 1 1 0 -0 -0 1 0 5.25
1 182.75 1270 51.5 0.70710678118654746 -1.7e-16 0.70710678118654757 
2 180 1270 51.5 0 0 1 1 0 -0 -0 1 0 2.75
1 182.75 1270 17 0 0 1 
2 180 1270 36 0 0 1 1 0 -0 -0 1 0 2.75
Polygon3D 0
PolygonOnTriangulations 0
Surfaces 5
1 157.5 830 54 0 0 1 1 0 -0 -0 1 0 
1 157.5 830 54 0 0 1 1 0 -0 -0 1 0 
3 180 1270 51.5 0 0 1 1 0 -0 -0 1 0 2.75
0.78539816339744828
2 180 1270 17 0 0 1 1 0 -0 -0 1 0 2.75
1 157.5 830 36 0 0 1 1 0 -0 -0 1 0 
Triangulations 0

TShapes 18
Ve
1.00000003398395e-07
257.25 440 -1.4210854715202e-14
0 0

0101101
*
Ed
 1.00000002755455e-07 1 1 0
1  1 0 0 6.28318530717959
2  1 2 1 0 6.28318530717959
2  2 3 0 0 6.28318530717959
0

0101000
+18 10 -18 10 *
Wi

0101100
+17 9 *
Fa
0  1e-07 1 8

0101000
+16 0 *
Ve
1.00000028e-07
182.75 1270 51.5
0 0

0101101
*
Ed
 1e-07 1 1 0
1  2 0 0 3.53553390593274
3  3 4CN 3 0 0 3.53553390593274
0

0101000
+14 11 -18 10 *
Ed
 1.00000028e-07 1 1 0
1  3 0 0 6.28318530717959
2  5 3 0 0 6.28318530717959
2  6 4 0 0 6.28318530717959
0

0101000
+14 11 -14 11 *
Wi

0101100
-17 9 +13 9 +12 9 -13 9 *
Fa
0  1e-07 3 9

0101000
+11 0 *
Ve
1.00000010658141e-07
259.75 440 18
0 0

0101101
*
Ed
 1e-07 1 1 0
1  4 0 19 34.5
3  7 8CN 4 0 19 34.5
0

0101000
+9 10 -14 11 *
Ed
 1.00000010658141e-07 1 1 0
1  5 0 0 6.28318530717959
2  9 5 1 0 6.28318530717959
2  10 4 0 0 6.28318530717959
0

0101000
+9 10 -9 10 *
Wi

0101100
-12 9 +8 9 +7 9 -8 9 *
Fa
0  1e-07 4 9

0101000
+6 0 *
Wi

0101100
+7 9 *
Fa
0  1e-07 1 13

0101000
+4 0 *
Sh

0101100
+15 0 +10 0 +5 0 -3 0 *
So

0100000
+2 0 *

+1 0 