DBRep_DrawableShape

CASCADE Topology V1, (c) Matra-Datavision
Locations 14
1
              1               0               0               0 
              0               1               0               0 
              0               0               1               0 
1
              1               0               0               0 
              0               1               0               0 
              0               0               1               0 
1
             -1               0 -1.22464679914735e-16               0 
              0               1               0               0 
1.22464679914735e-16               0              -1               0 
1
              1               0               0           442.5 
              0               1               0            -830 
              0               0               1              54 
1
              1               0               0               0 
              0               1               0               0 
              0               0               1              -0 
1
              1               0               0               0 
              0               1               0               0 
              0               0               1               1 
1
              1               0               0               0 
              0               1               0               0 
              0               0               1              -1 
2  1 1 2 1 3 1 4 1 5 1 6 1 7 1 0
2  7 -1 6 -1 5 -1 4 -1 3 -1 2 -1 1 -1 0
1
              1               0               0               0 
              0               1               0               0 
              0               0               1              18 
2  1 1 2 1 3 1 4 1 5 1 6 1 7 1 10 1 0
2  10 -1 7 -1 6 -1 5 -1 4 -1 3 -1 2 -1 1 -1 0
2  1 1 2 1 3 1 4 1 5 1 6 1 0
2  7 1 10 1 0
Curve2ds 24
1 0 0 0 -1 
1 0 -0 1.2246467991473532e-16 -1 
1 460 0 0 -1 
1 0 -0 1.2246467991473532e-16 -1 
1 0 0 1 0 
1 0 0 0 1 
1 0 -18.000000000000007 1 0 
1 0 0 0 1 
1 285 -6.2470301230544158e-16 1.2246467991473532e-16 -1 
1 460 0 0 -1 
1 0 -0 1 0 
1 0 460 1 0 
1 2.2043642384652366e-15 -18.000000000000007 1 0 
1 0 460 1 0 
1 285 -6.2470301230544158e-16 1.2246467991473532e-16 -1 
1 0 0 0 -1 
1 0 -0 1 0 
1 0 0 1 0 
1 2.2043642384652366e-15 -18.000000000000007 1 0 
1 0 0 1 0 
1 0 0 1 0 
1 285 0 0 1 
1 0 -18.000000000000007 1 0 
1 285 0 0 1 
Curves 12
1 285 0 -1.4210854715202004e-14 0 0 1 
1 285 460 -1.4210854715202004e-14 0 0 1 
1 157.5 830 54 -0 1 0 
1 157.5 830 54 -0 1 0 
1 0 460 2.1316282072803006e-14 0 0 1 
1 157.5 1290 54 1 0 -0 
1 157.5 1290 54 1 0 -0 
1 0 0 2.1316282072803006e-14 0 0 1 
1 157.5 830 54 1 0 -0 
1 157.5 830 54 1 0 -0 
1 442.5 830 54 -0 1 0 
1 442.5 830 54 -0 1 0 
Polygon3D 0
PolygonOnTriangulations 0
Surfaces 6
1 285 0 -1.4210854715202004e-14 -1 0 0 0 1 0 0 0 -1 
1 285 0 -1.4210854715202004e-14 0 -1 0 -1 0 1.2246467991473532e-16 -1.2246467991473532e-16 -0 -1 
1 285 460 -1.4210854715202004e-14 0 -1 0 -1 0 1.2246467991473532e-16 -1.2246467991473532e-16 -0 -1 
1 157.5 830 54 0 0 1 1 0 -0 -0 1 0 
1 157.5 830 54 0 0 1 1 0 -0 -0 1 0 
1 0 0 2.1316282072803006e-14 -1 0 0 0 1 0 0 0 -1 
Triangulations 0

TShapes 34
Ve
1e-07
285 0 -1.4210854715202e-14
0 0

0101101
*
Ve
1e-07
285 0 18
0 0

0101101
*
Ed
 1e-07 1 1 0
1  1 0 0 18
2  1 1 0 0 18
2  2 2 0 0 18
0

0101000
+34 0 -33 0 *
Ve
1e-07
285 460 -1.4210854715202e-14
0 0

0101101
*
Ve
1e-07
285 460 18
0 0

0101101
*
Ed
 1e-07 1 1 0
1  2 0 0 18
2  3 1 0 0 18
2  4 3 0 0 18
0

0101000
+31 0 -30 0 *
Ed
 1e-07 1 1 0
1  3 0 0 460
2  5 1 9 0 460
2  6 4 0 0 460
0

0101000
+34 9 -31 9 *
Ed
 1e-07 1 1 0
1  4 0 0 460
2  7 1 12 0 460
2  8 5 0 0 460
0

0101000
+33 12 -30 12 *
Wi

0101100
+32 0 -29 0 -28 8 +27 11 *
Fa
0  1e-07 1 0

0101000
+26 0 *
Ve
1e-07
0 460 2.1316282072803e-14
0 0

0101101
*
Ve
1e-07
0 460 18
0 0

0101101
*
Ed
 1e-07 1 1 0
1  5 0 0 18
2  9 3 0 0 18
2  10 6 0 0 18
0

0101000
+24 0 -23 0 *
Ed
 1e-07 1 1 0
1  6 0 0 285
2  11 3 9 0 285
2  12 4 0 0 285
0

0101000
+31 9 -24 9 *
Ed
 1e-07 1 1 0
1  7 0 0 285
2  13 3 12 0 285
2  14 5 0 0 285
0

0101000
+30 12 -23 12 *
Wi

0101100
+29 0 -22 0 -21 8 +20 11 *
Fa
0  1e-07 3 0

0101000
+19 0 *
Ve
1e-07
0 0 2.1316282072803e-14
0 0

0101101
*
Ve
1e-07
0 0 18
0 0

0101101
*
Ed
 1e-07 1 1 0
1  8 0 0 18
2  15 2 0 0 18
2  16 6 0 0 18
0

0101000
+17 0 -16 0 *
Ed
 1e-07 1 1 0
1  9 0 0 285
2  17 2 9 0 285
2  18 4 0 0 285
0

0101000
+34 9 -17 9 *
Ed
 1e-07 1 1 0
1  10 0 0 285
2  19 2 12 0 285
2  20 5 0 0 285
0

0101000
+33 12 -16 12 *
Wi

0101100
+32 0 -15 0 -14 8 +13 11 *
Fa
0  1e-07 2 0

0101000
+12 0 *
Ed
 1e-07 1 1 0
1  11 0 0 460
2  21 6 9 0 460
2  22 4 0 0 460
0

0101000
+17 9 -24 9 *
Ed
 1e-07 1 1 0
1  12 0 0 460
2  23 6 12 0 460
2  24 5 0 0 460
0

0101000
+16 12 -23 12 *
Wi

0101100
+15 0 -22 0 -10 8 +9 11 *
Fa
0  1e-07 6 0

0101000
+8 0 *
Wi

0101100
-28 13 -21 13 +14 13 +10 13 *
Fa
0  1e-07 4 13

0101000
+6 0 *
Wi

0101100
-27 13 -20 13 +13 13 +9 13 *
Fa
0  1e-07 5 13

0101000
+4 0 *
Sh

0101100
-25 0 -18 0 +11 0 +7 0 +5 7 -3 14 *
So

1100000
+2 0 *

+1 0 