DBRep_DrawableShape

CASCADE Topology V1, (c) Matra-Datavision
Locations 18
1
              1               0               0               0 
              0               1               0               0 
              0               0               1               0 
1
              1               0               0               0 
              0               1               0               0 
              0               0               1               0 
1
              1               0               0               0 
              0               1               0               0 
              0               0               1               0 
1
              1               0               0               0 
              0               1               0               0 
              0               0               1               0 
1
             -1               0 -1.22464679914735e-16               0 
              0               1               0               0 
1.22464679914735e-16               0              -1               0 
1
              1               0               0             582 
              0               1               0       -1127.125 
              0               0               1           596.9 
1
              1               0               0               0 
              0               1               0               0 
              0               0               1              -0 
1
              1               0               0               0 
              0               1               0               0 
              0               0               1               1 
1
              1               0               0               0 
              0               1               0               0 
              0               0               1              -1 
1
              1               0               0               0 
              0               1               0               0 
              0               0               1              18 
2  1 1 2 1 3 1 4 1 5 1 6 1 7 1 8 1 9 1 10 1 0
2  2 1 3 1 4 1 5 1 6 1 0
2  6 -1 5 -1 4 -1 3 -1 2 -1 0
1
              1               0               0               0 
              0               1               0               0 
              0               0               1              -6 
2  14 -1 6 -1 5 -1 4 -1 3 -1 2 -1 0
1
              1               0               0               0 
              0               1               0               0 
              0               0               1               1 
2  16 -1 14 -1 6 -1 5 -1 4 -1 3 -1 2 -1 0
2  4 -1 3 -1 2 -1 0
Curve2ds 8
2 27 12.875 1 0 -0 1 1.5
1 0 0 1 0 
1 0 12 1 0 
2 0 0 1 0 -0 1 1.5
1 0 0 1 0 
1 0 -1 1 0 
1 6.2831853071795862 -0 0 1 
1 0 -0 0 1 
Curves 3
2 45 1140 578.89999999999998 0 0 1 1 0 -0 -0 1 0 1.5
2 45 1140 590.89999999999998 0 0 1 1 0 -0 -0 1 0 1.5
1 46.5 1140 578.89999999999998 0 0 1 
Polygon3D 0
PolygonOnTriangulations 0
Surfaces 5
1 18 1127.125 596.89999999999998 0 0 1 1 0 -0 -0 1 0 
1 18 1127.125 578.89999999999998 0 0 1 1 0 -0 -0 1 0 
2 45 1140 578.89999999999998 0 0 1 1 0 -0 -0 1 0 1.5
1 45 1140 590.89999999999998 0 0 1 1 0 -0 -0 1 0 
2 537 12.875 0 -1.2246467991473532e-16 0 -1 -1 0 1.2246467991473532e-16 0 1 0 1.5
Triangulations 0

TShapes 13
Ve
1.00000003552714e-07
535.5 12.875 18
0 0

0101101
*
Ed
 1.00000003552714e-07 1 1 0
1  1 0 0 6.28318530717959
2  1 2 1 0 6.28318530717959
2  2 3 0 0 6.28318530717959
0

0101000
+13 13 -13 13 *
Wi

0101100
+12 12 *
Fa
0  1e-07 1 11

0101000
+11 0 *
Ve
1e-07
46.5 1140 590.9
0 0

0101101
*
Ed
 1e-07 1 1 0
1  2 0 0 6.28318530717959
2  3 3 0 0 6.28318530717959
2  4 4 0 0 6.28318530717959
2  5 5 15 0 6.28318530717959
2  6 5 17 0 6.28318530717959
0

0101000
+9 18 -9 18 *
Ed
 1e-07 1 1 0
1  3 0 0 12
3  7 8CN 3 0 0 12
0

0101000
+13 13 -9 18 *
Wi

0101100
-8 12 +7 12 +12 12 -7 12 *
Fa
0  1e-07 3 12

0101000
+6 0 *
Wi

0101100
+8 0 *
Fa
0  1e-07 4 0

0111000
+4 0 *
Sh

0101100
-10 0 +5 0 +3 12 *
So

0100000
+2 0 *

+1 0 