DBRep_DrawableShape

CASCADE Topology V1, (c) Matra-Datavision
Locations 30
1
              1               0               0               0 
              0               1               0               0 
              0               0               1               0 
1
             -1               0 -1.22464679914735e-16               0 
              0               1               0               0 
1.22464679914735e-16               0              -1               0 
1
              1               0               0             582 
              0               1               0       -1127.125 
              0               0               1           596.9 
2  1 1 2 1 3 1 0
1
              1               0               0               0 
              0               1               0               0 
              0               0               1               0 
1
              1               0               0               0 
              0               1               0               0 
              0               0               1               0 
1
              1               0               0               0 
              0               1               0               0 
              0               0               1               0 
2  5 1 6 1 7 1 0
2  1 -1 7 -1 6 -1 5 -1 0
2  5 1 6 1 0
2  1 -1 7 -1 0
2  1 -1 0
2  6 1 7 1 0
2  1 -1 7 -1 6 -1 0
1
              1               0               0               0 
              0               1               0               0 
              0               0               1              -6 
2  15 -1 3 -1 2 -1 1 -1 7 -1 6 -1 0
1
              1               0               0               0 
              0               1               0               0 
              0               0               1               1 
2  17 -1 15 -1 3 -1 2 -1 1 -1 7 -1 6 -1 0
1
              1               0               0               0 
              0               1               0               0 
              0               0               1              -6 
2  19 -1 3 -1 2 -1 1 -1 7 -1 6 -1 0
1
              1               0               0               0 
              0               1               0               0 
              0               0               1               1 
2  21 -1 19 -1 3 -1 2 -1 1 -1 7 -1 6 -1 0
1
              1               0               0               0 
              0               1               0               0 
              0               0               1 -6.00000000000011 
2  23 -1 3 -1 2 -1 1 -1 7 -1 6 -1 0
1
              1               0               0               0 
              0               1               0               0 
              0               0               1               1 
2  25 -1 23 -1 3 -1 2 -1 1 -1 7 -1 6 -1 0
1
              1               0               0               0 
              0               1               0               0 
              0               0               1 -6.00000000000011 
2  27 -1 3 -1 2 -1 1 -1 7 -1 6 -1 0
1
              1               0               0               0 
              0               1               0               0 
              0               0               1               1 
2  29 -1 27 -1 3 -1 2 -1 1 -1 7 -1 6 -1 0
Curve2ds 92
1 0 0 1 0 
1 0 0 1 0 
1 18 0 0 -1 
1 0 0 0 1 
1 0 -162.97499999999991 1 0 
1 0 0 1 0 
1 0 0 0 -1 
1 0 0 0 1 
1 0 0 0 1 
1 0 0 1 0 
1 0 564 1 0 
1 0 0 1 0 
1 18 0 0 1 
1 0 0 1 0 
1 0 162.97499999999991 1 0 
1 18 0 0 1 
1 564 0 0 1 
1 18 0 0 -1 
8 -336 -76
1 76 60.875 -1 0 
8 -336 -76
1 26.899999999999977 -76 0 -1 
8 30.4375 90.4375
1 412 30.4375 0 1 
8 30.4375 90.4375
1 26.899999999999977 30.4375 0 -1 
8 30.4375 90.4375
1 152 30.4375 0 1 
8 30.4375 90.4375
1 26.899999999999977 30.4375 0 -1 
8 -336 -76
1 76 120.875 -1 0 
8 -336 -76
1 26.899999999999977 -76 0 -1 
2 112 132.875 1 0 -0 1 6
1 0 18.899999999999977 1 0 
2 452 132.875 1 0 -0 1 6
1 0 18.899999999999977 1 0 
1 0 0 0 1 
1 0 162.97499999999991 1 0 
1 0 564 1 0 
1 0 -162.97499999999991 1 0 
1 564 0 0 1 
1 0 0 0 -1 
2 27 12.875 1 0 -0 1 1.5
1 0 0 1 0 
2 27 52.875 1 0 -0 1 1.5
1 0 0 1 0 
2 537 12.875 1 0 -0 1 1.5
1 0 0 1 0 
2 537 52.875 1 0 -0 1 1.5
1 0 0 1 0 
2 112 132.875 1 0 -0 1 6
1 0 0.89999999999997726 1 0 
8 -336 -76
1 76 60.875 -1 0 
8 -336 -76
1 8.8999999999999773 -76 0 -1 
8 30.4375 90.4375
1 412 30.4375 0 1 
8 30.4375 90.4375
1 8.8999999999999773 30.4375 0 -1 
8 30.4375 90.4375
1 152 30.4375 0 1 
8 30.4375 90.4375
1 8.8999999999999773 30.4375 0 -1 
8 -336 -76
1 76 120.875 -1 0 
8 -336 -76
1 8.8999999999999773 -76 0 -1 
2 452 132.875 1 0 -0 1 6
1 0 0.89999999999997726 1 0 
1 0 260 1 0 
1 0 0 1 0 
1 0 0 1 0 
1 0 0 1 0 
1 0 -60 1 0 
1 0 260 1 0 
1 0 -60 1 0 
1 0 0 1 0 
1 6.2831853071795862 -0 0 1 
1 0 -0 0 1 
1 6.2831853071795862 -0 0 1 
1 0 -0 0 1 
1 0 12 1 0 
2 0 0 1 0 -0 1 1.5
1 0 0 1 0 
1 0 -1 1 0 
1 6.2831853071795862 -0 0 1 
1 0 -0 0 1 
1 0 12 1 0 
2 0 0 1 0 -0 1 1.5
1 0 0 1 0 
1 0 -1 1 0 
1 6.2831853071795862 -0 0 1 
1 0 -0 0 1 
1 0 12 1 0 
2 0 0 1 0 -0 1 1.5
1 0 0 1 0 
1 0 -1 1 0 
1 6.2831853071795862 -0 0 1 
1 0 -0 0 1 
1 0 12 1 0 
2 0 0 1 0 -0 1 1.5
1 0 0 1 0 
1 0 -1 1 0 
1 6.2831853071795862 -0 0 1 
1 0 -0 0 1 
Curves 42
1 18 1127.125 578.89999999999998 0 0 1 
1 18 1127.125 596.89999999999998 -0 1 0 
1 18 1290.0999999999999 578.89999999999998 0 0 1 
1 18 1127.125 578.89999999999998 -0 1 0 
1 18 1127.125 578.89999999999998 1 0 -0 
1 582 1127.125 578.89999999999998 0 0 1 
1 18 1127.125 596.89999999999998 1 0 -0 
1 18 1290.0999999999999 596.89999999999998 1 0 -0 
1 582 1127.125 596.89999999999998 -0 1 0 
1 94 1188 596.89999999999998 -1 -0 0 
1 430 1157.5625 596.89999999999998 -0 1 0 
1 170 1157.5625 596.89999999999998 -0 1 0 
1 94 1248 596.89999999999998 -1 -0 0 
2 130 1260 596.89999999999998 0 0 1 1 0 -0 -0 1 0 6
2 470 1260 596.89999999999998 0 0 1 1 0 -0 -0 1 0 6
1 18 1290.0999999999999 578.89999999999998 1 0 -0 
1 582 1290.0999999999999 578.89999999999998 0 0 1 
1 582 1127.125 578.89999999999998 -0 1 0 
2 45 1140 578.89999999999998 0 0 1 1 0 -0 -0 1 0 1.5
2 45 1180 578.89999999999998 0 0 1 1 0 -0 -0 1 0 1.5
2 555 1140 578.89999999999998 0 0 1 1 0 -0 -0 1 0 1.5
2 555 1180 578.89999999999998 0 0 1 1 0 -0 -0 1 0 1.5
2 130 1260 578.89999999999998 0 0 1 1 0 -0 -0 1 0 6
1 94 1188 578.89999999999998 -1 -0 0 
1 430 1157.5625 578.89999999999998 -0 1 0 
1 170 1157.5625 578.89999999999998 -0 1 0 
1 94 1248 578.89999999999998 -1 -0 0 
2 470 1260 578.89999999999998 0 0 1 1 0 -0 -0 1 0 6
1 430 1188 570 0 0 1 
1 170 1188 570 0 0 1 
1 430 1248 570 0 0 1 
1 170 1248 570 0 0 1 
1 136 1260 578 0 0 1 
1 476 1260 578 0 0 1 
2 45 1140 590.89999999999998 0 0 1 1 0 -0 -0 1 0 1.5
1 46.5 1140 578.89999999999998 0 0 1 
2 45 1180 590.89999999999998 0 0 1 1 0 -0 -0 1 0 1.5
1 46.5 1180 578.89999999999998 0 0 1 
2 555 1140 590.89999999999998 0 0 1 1 0 -0 -0 1 0 1.5
1 556.5 1140 578.89999999999998 0 0 1 
2 555 1180 590.89999999999998 0 0 1 1 0 -0 -0 1 0 1.5
1 556.5 1180 578.89999999999998 0 0 1 
Polygon3D 0
PolygonOnTriangulations 0
Surfaces 24
1 18 1127.125 578.89999999999998 1 0 -0 0 0 1 0 -1 0 
1 18 1127.125 578.89999999999998 -0 1 0 0 0 1 1 0 -0 
1 18 1127.125 596.89999999999998 0 0 1 1 0 -0 -0 1 0 
1 18 1290.0999999999999 578.89999999999998 -0 1 0 0 0 1 1 0 -0 
1 18 1127.125 578.89999999999998 0 0 1 1 0 -0 -0 1 0 
1 582 1127.125 578.89999999999998 1 0 -0 0 0 1 0 -1 0 
1 170 1188 570 -0 1 0 0 0 1 1 0 -0 
1 430 1188 570 1 0 -0 0 0 1 0 -1 0 
1 170 1188 570 1 0 -0 0 0 1 0 -1 0 
1 170 1248 570 -0 1 0 0 0 1 1 0 -0 
2 130 1260 578 0 0 1 1 0 -0 -0 1 0 6
2 470 1260 578 0 0 1 1 0 -0 -0 1 0 6
2 45 1140 578.89999999999998 0 0 1 1 0 -0 -0 1 0 1.5
2 45 1180 578.89999999999998 0 0 1 1 0 -0 -0 1 0 1.5
2 555 1140 578.89999999999998 0 0 1 1 0 -0 -0 1 0 1.5
2 555 1180 578.89999999999998 0 0 1 1 0 -0 -0 1 0 1.5
1 45 1140 590.89999999999998 0 0 1 1 0 -0 -0 1 0 
2 537 12.875 0 -1.2246467991473532e-16 0 -1 -1 0 1.2246467991473532e-16 0 1 0 1.5
1 45 1180 590.89999999999998 0 0 1 1 0 -0 -0 1 0 
2 537 52.875 0 -1.2246467991473532e-16 0 -1 -1 0 1.2246467991473532e-16 0 1 0 1.5
1 555 1140 590.89999999999998 0 0 1 1 0 -0 -0 1 0 
2 27 12.875 0 -1.2246467991473532e-16 0 -1 -1 0 1.2246467991473532e-16 0 1 0 1.5
1 555 1180 590.89999999999998 0 0 1 1 0 -0 -0 1 0 
2 27 52.875 0 -1.2246467991473532e-16 0 -1 -1 0 1.2246467991473532e-16 0 1 0 1.5
Triangulations 0

TShapes 123
Ve
1e-07
18 1127.125 596.9
0 0

0101101
*
Ve
1e-07
18 1127.125 578.9
0 0

0101101
*
Ed
 1e-07 1 1 0
1  1 0 0 18
2  1 1 0 0 18
2  2 2 0 0 18
0

0101000
-123 9 +122 9 *
Ve
1e-07
18 1290.1 596.9
0 0

0101101
*
Ed
 1e-07 1 1 0
1  2 0 0 162.975
2  3 1 0 0 162.975
2  4 3 0 0 162.975
0

0101000
-120 9 +123 9 *
Ve
1e-07
18 1290.1 578.9
0 0

0101101
*
Ed
 1e-07 1 1 0
1  3 0 0 18
2  5 1 0 0 18
2  6 4 0 0 18
0

0101000
-120 9 +118 9 *
Ed
 1e-07 1 1 0
1  4 0 0 162.975
2  7 1 0 0 162.975
2  8 5 0 0 162.975
0

0101000
-118 9 +122 9 *
Wi

0101100
-121 0 -119 0 +117 0 +116 0 *
Fa
0  1e-07 1 0

0111000
+115 0 *
Ve
1e-07
582 1127.125 578.9
0 0

0101101
*
Ed
 1e-07 1 1 0
1  5 0 0 564
2  9 2 0 0 564
2  10 5 0 0 564
0

0101000
-113 9 +122 9 *
Ve
1e-07
582 1127.125 596.9
0 0

0101101
*
Ed
 1e-07 1 1 0
1  6 0 0 18
2  11 2 0 0 18
2  12 6 0 0 18
0

0101000
-111 9 +113 9 *
Ed
 1e-07 1 1 0
1  7 0 0 564
2  13 2 0 0 564
2  14 3 0 0 564
0

0101000
-111 9 +123 9 *
Wi

0101100
-112 0 -110 0 +109 0 +121 0 *
Fa
0  1e-07 2 0

0111000
+108 0 *
Ve
1e-07
582 1290.1 596.9
0 0

0101101
*
Ed
 1e-07 1 1 0
1  8 0 0 564
2  15 3 0 0 564
2  16 4 0 0 564
0

0101000
-106 9 +120 9 *
Ed
 1e-07 1 1 0
1  9 0 0 162.975
2  17 3 0 0 162.975
2  18 6 0 0 162.975
0

0101000
-106 9 +111 9 *
Wi

0101100
-119 8 -105 8 +109 8 +104 8 *
Ve
1.5e-07
430 1188 596.9
0 0

0101101
*
Ve
1.5e-07
170 1188 596.9
0 0

0101101
*
Ed
 1.5e-07 1 1 0
1  10 0 -336 -76
2  19 3 10 -336 -76
2  20 7 0 -336 -76
0

0101000
+102 11 -101 11 *
Ve
1.5e-07
430 1248 596.9
0 0

0101101
*
Ed
 1.5e-07 1 1 0
1  11 0 30.4375 90.4375
2  21 3 10 30.4375 90.4375
2  22 8 0 30.4375 90.4375
0

0101000
+102 11 -99 11 *
Ve
1.5e-07
170 1248 596.9
0 0

0101101
*
Ed
 1.5e-07 1 1 0
1  12 0 30.4375 90.4375
2  23 3 10 30.4375 90.4375
2  24 9 0 30.4375 90.4375
0

0101000
+101 11 -97 11 *
Ed
 1.5e-07 1 1 0
1  13 0 -336 -76
2  25 3 10 -336 -76
2  26 10 0 -336 -76
0

0101000
+99 11 -97 11 *
Wi

0101100
+100 7 -98 7 +96 7 -95 7 *
Ve
1e-07
136 1260 596.9
0 0

0101101
*
Ed
 1e-07 1 1 0
1  14 0 0 6.28318530717959
2  27 3 8 0 6.28318530717959
2  28 11 0 0 6.28318530717959
0

0101100
+93 12 -93 12 *
Wi

0101100
-92 0 *
Ve
1e-07
476 1260 596.9
0 0

0101101
*
Ed
 1e-07 1 1 0
1  15 0 0 6.28318530717959
2  29 3 8 0 6.28318530717959
2  30 12 0 0 6.28318530717959
0

0101100
+90 12 -90 12 *
Wi

0101100
-89 0 *
Fa
0  1e-07 3 8

0111000
+103 0 +94 0 +91 0 +88 0 *
Ve
1e-07
582 1290.1 578.9
0 0

0101101
*
Ed
 1e-07 1 1 0
1  16 0 0 564
2  31 4 0 0 564
2  32 5 0 0 564
0

0101000
-86 9 +118 9 *
Ed
 1e-07 1 1 0
1  17 0 0 18
2  33 4 0 0 18
2  34 6 0 0 18
0

0101000
-106 9 +86 9 *
Wi

0101100
-85 0 -84 0 +105 0 +117 0 *
Fa
0  1e-07 4 0

0111000
+83 0 *
Ed
 1e-07 1 1 0
1  18 0 0 162.975
2  35 5 0 0 162.975
2  36 6 0 0 162.975
0

0101000
-86 9 +113 9 *
Wi

0101100
-116 8 -85 8 +112 8 +81 8 *
Ve
1e-07
46.5 1140 578.9
0 0

0101101
*
Ed
 1e-07 1 1 0
1  19 0 0 6.28318530717959
2  37 5 5 0 6.28318530717959
2  38 13 0 0 6.28318530717959
0

0101000
+79 14 -79 14 *
Wi

0101100
-78 13 *
Ve
1e-07
46.5 1180 578.9
0 0

0101101
*
Ed
 1e-07 1 1 0
1  20 0 0 6.28318530717959
2  39 5 5 0 6.28318530717959
2  40 14 0 0 6.28318530717959
0

0101000
+76 14 -76 14 *
Wi

0101100
-75 13 *
Ve
1e-07
556.5 1140 578.9
0 0

0101101
*
Ed
 1e-07 1 1 0
1  21 0 0 6.28318530717959
2  41 5 5 0 6.28318530717959
2  42 15 0 0 6.28318530717959
0

0101000
+73 14 -73 14 *
Wi

0101100
-72 13 *
Ve
1e-07
556.5 1180 578.9
0 0

0101101
*
Ed
 1e-07 1 1 0
1  22 0 0 6.28318530717959
2  43 5 5 0 6.28318530717959
2  44 16 0 0 6.28318530717959
0

0101000
+70 14 -70 14 *
Wi

0101100
-69 13 *
Ve
1e-07
136 1260 578.9
0 0

0101101
*
Ed
 1e-07 1 1 0
1  23 0 0 6.28318530717959
2  45 5 8 0 6.28318530717959
2  46 11 0 0 6.28318530717959
0

0101100
+67 12 -67 12 *
Wi

0101100
-66 0 *
Ve
1.5e-07
430 1188 578.9
0 0

0101101
*
Ve
1.5e-07
170 1188 578.9
0 0

0101101
*
Ed
 1.5e-07 1 1 0
1  24 0 -336 -76
2  47 5 10 -336 -76
2  48 7 0 -336 -76
0

0101000
+64 11 -63 11 *
Ve
1.5e-07
430 1248 578.9
0 0

0101101
*
Ed
 1.5e-07 1 1 0
1  25 0 30.4375 90.4375
2  49 5 10 30.4375 90.4375
2  50 8 0 30.4375 90.4375
0

0101000
+64 11 -61 11 *
Ve
1.5e-07
170 1248 578.9
0 0

0101101
*
Ed
 1.5e-07 1 1 0
1  26 0 30.4375 90.4375
2  51 5 10 30.4375 90.4375
2  52 9 0 30.4375 90.4375
0

0101000
+63 11 -59 11 *
Ed
 1.5e-07 1 1 0
1  27 0 -336 -76
2  53 5 10 -336 -76
2  54 10 0 -336 -76
0

0101000
+61 11 -59 11 *
Wi

0101100
+62 7 -60 7 +58 7 -57 7 *
Ve
1e-07
476 1260 578.9
0 0

0101101
*
Ed
 1e-07 1 1 0
1  28 0 0 6.28318530717959
2  55 5 8 0 6.28318530717959
2  56 12 0 0 6.28318530717959
0

0101100
+55 12 -55 12 *
Wi

0101100
-54 0 *
Fa
0  1e-07 5 8

0111000
+80 0 +77 0 +74 0 +71 0 +68 0 +65 0 +56 0 +53 0 *
Wi

0101100
-110 0 -104 0 +84 0 +81 0 *
Fa
0  1e-07 6 0

0111000
+51 0 *
Ed
 1e-07 1 1 0
1  29 0 8.89999999999998 26.9
2  57 7 0 8.89999999999998 26.9
2  58 8 0 8.89999999999998 26.9
0

0101000
+64 11 -102 11 *
Ed
 1e-07 1 1 0
1  30 0 8.89999999999998 26.9
2  59 7 0 8.89999999999998 26.9
2  60 9 0 8.89999999999998 26.9
0

0101000
+63 11 -101 11 *
Wi

0101100
-49 0 -100 0 +48 0 +62 0 *
Fa
0  1e-07 7 0

0111000
+47 0 *
Ed
 1e-07 1 1 0
1  31 0 8.89999999999998 26.9
2  61 8 0 8.89999999999998 26.9
2  62 10 0 8.89999999999998 26.9
0

0101000
+61 11 -99 11 *
Wi

0101100
-49 0 -98 0 +45 0 +60 0 *
Fa
0  1e-07 8 0

0111000
+44 0 *
Ed
 1e-07 1 1 0
1  32 0 8.89999999999998 26.9
2  63 9 0 8.89999999999998 26.9
2  64 10 0 8.89999999999998 26.9
0

0101000
+59 11 -97 11 *
Wi

0101100
-48 0 -96 0 +42 0 +58 0 *
Fa
0  1e-07 9 0

0111000
+41 0 *
Wi

0101100
-45 0 -95 0 +42 0 +57 0 *
Fa
0  1e-07 10 0

0111000
+39 0 *
Ed
 1e-07 1 1 0
1  33 0 0.899999999999977 18.9
3  65 66CN 11 0 0.899999999999977 18.9
0

0101000
+67 12 -93 12 *
Wi

0101100
-92 0 +37 0 +66 0 -37 0 *
Fa
0  1e-07 11 0

0111000
+36 0 *
Ed
 1e-07 1 1 0
1  34 0 0.899999999999977 18.9
3  67 68CN 12 0 0.899999999999977 18.9
0

0101000
+55 12 -90 12 *
Wi

0101100
-89 0 +34 0 +54 0 -34 0 *
Fa
0  1e-07 12 0

0111000
+33 0 *
Ve
1e-07
46.5 1140 590.9
0 0

0101101
*
Ed
 1e-07 1 1 0
1  35 0 0 6.28318530717959
2  69 13 0 0 6.28318530717959
2  70 17 0 0 6.28318530717959
2  71 18 16 0 6.28318530717959
2  72 18 18 0 6.28318530717959
0

0101000
+31 14 -31 14 *
Ed
 1e-07 1 1 0
1  36 0 0 12
3  73 74CN 13 0 0 12
0

0101000
+79 14 -31 14 *
Wi

0101100
-30 0 +29 0 +78 0 -29 0 *
Fa
0  1e-07 13 0

0111000
+28 0 *
Ve
1e-07
46.5 1180 590.9
0 0

0101101
*
Ed
 1e-07 1 1 0
1  37 0 0 6.28318530717959
2  75 14 0 0 6.28318530717959
2  76 19 0 0 6.28318530717959
2  77 20 20 0 6.28318530717959
2  78 20 22 0 6.28318530717959
0

0101000
+26 14 -26 14 *
Ed
 1e-07 1 1 0
1  38 0 0 12
3  79 80CN 14 0 0 12
0

0101000
+76 14 -26 14 *
Wi

0101100
-25 0 +24 0 +75 0 -24 0 *
Fa
0  1e-07 14 0

0111000
+23 0 *
Ve
1e-07
556.5 1140 590.9
0 0

0101101
*
Ed
 1e-07 1 1 0
1  39 0 0 6.28318530717959
2  81 15 0 0 6.28318530717959
2  82 21 0 0 6.28318530717959
2  83 22 24 0 6.28318530717959
2  84 22 26 0 6.28318530717959
0

0101000
+21 14 -21 14 *
Ed
 1e-07 1 1 0
1  40 0 0 12
3  85 86CN 15 0 0 12
0

0101000
+73 14 -21 14 *
Wi

0101100
-20 0 +19 0 +72 0 -19 0 *
Fa
0  1e-07 15 0

0111000
+18 0 *
Ve
1e-07
556.5 1180 590.9
0 0

0101101
*
Ed
 1e-07 1 1 0
1  41 0 0 6.28318530717959
2  87 16 0 0 6.28318530717959
2  88 23 0 0 6.28318530717959
2  89 24 28 0 6.28318530717959
2  90 24 30 0 6.28318530717959
0

0101000
+16 14 -16 14 *
Ed
 1e-07 1 1 0
1  42 0 0 12
3  91 92CN 16 0 0 12
0

0101000
+70 14 -16 14 *
Wi

0101100
-15 0 +14 0 +69 0 -14 0 *
Fa
0  1e-07 16 0

0111000
+13 0 *
Wi

0101100
+30 0 *
Fa
0  1e-07 17 0

0111000
+11 0 *
Wi

0101100
+25 0 *
Fa
0  1e-07 19 0

0111000
+9 0 *
Wi

0101100
+20 0 *
Fa
0  1e-07 21 0

0111000
+7 0 *
Wi

0101100
+15 0 *
Fa
0  1e-07 23 0

0111000
+5 0 *
Sh

0101100
-114 8 -107 8 +87 0 +82 8 -52 0 +50 8 +46 7 -43 7 +40 7 -38 7 
-35 0 -32 0 -27 13 -22 13 -17 13 -12 13 -10 13 -8 13 -6 13 -4 13 
*
So

0100000
+3 0 *
Co

1100000
+2 0 *

+1 4 