DBRep_DrawableShape

CASCADE Topology V1, (c) Matra-Datavision
Locations 15
1
              1               0               0               0 
              0               1               0               0 
              0               0               1               0 
1
              1               0               0               0 
              0               1               0               0 
              0               0               1               0 
1
              1               0               0               0 
              0               1               0               0 
              0               0               1               0 
1
              1               0               0               0 
              0               1               0               0 
              0               0               1               0 
1
             -1               0 -1.22464679914735e-16               0 
              0               1               0               0 
1.22464679914735e-16               0              -1               0 
1
              1               0               0             582 
              0               1               0       -1127.125 
              0               0               1           596.9 
1
              1               0               0               0 
              0               1               0               0 
              0               0               1              -0 
1
              1               0               0               0 
              0               1               0               0 
              0               0               1               1 
1
              1               0               0               0 
              0               1               0               0 
              0               0               1              -1 
2  1 1 2 1 3 1 4 1 5 1 6 1 7 1 8 1 9 1 0
2  4 1 5 1 6 1 0
2  1 1 2 1 3 1 0
2  6 -1 5 -1 4 -1 0
1
              1               0               0               0 
              0               1               0               0 
              0               0               1              18 
2  1 1 2 1 3 1 4 1 5 1 6 1 7 1 8 1 9 1 14 1 0
Curve2ds 6
2 112 132.875 1 0 -0 1 6
1 0 18.899999999999977 1 0 
1 6.2831853071795862 -0 0 1 
1 0 -0 0 1 
2 112 132.875 1 0 -0 1 6
1 0 0.89999999999997726 1 0 
Curves 3
2 130 1260 596.89999999999998 0 0 1 1 0 -0 -0 1 0 6
1 136 1260 578 0 0 1 
2 130 1260 578.89999999999998 0 0 1 1 0 -0 -0 1 0 6
Polygon3D 0
PolygonOnTriangulations 0
Surfaces 4
1 18 1127.125 596.89999999999998 0 0 1 1 0 -0 -0 1 0 
1 18 1127.125 596.89999999999998 0 0 1 1 0 -0 -0 1 0 
2 130 1260 578 0 0 1 1 0 -0 -0 1 0 6
1 18 1127.125 578.89999999999998 0 0 1 1 0 -0 -0 1 0 
Triangulations 0

TShapes 13
Ve
1.00000014450832e-07
446 132.875 0
0 0

0101101
*
Ed
 1.00000013716044e-07 1 1 0
1  1 0 0 6.28318530717959
2  1 2 12 0 6.28318530717959
2  2 3 0 0 6.28318530717959
0

0101000
+13 13 -13 13 *
Wi

0101100
+12 11 *
Fa
0  1e-07 1 10

0101000
+11 0 *
Ve
1.00000014210855e-07
446 132.875 18
0 0

0101101
*
Ed
 1e-07 1 1 0
1  2 0 0.899999999999977 18.9
3  3 4CN 3 0 0.899999999999977 18.9
0

0101000
+9 13 -13 13 *
Ed
 1.00000014210855e-07 1 1 0
1  3 0 0 6.28318530717959
2  5 4 12 0 6.28318530717959
2  6 3 0 0 6.28318530717959
0

0101000
+9 13 -9 13 *
Wi

0101100
-12 11 +8 11 +7 11 -8 11 *
Fa
0  1e-07 3 11

0101000
+6 0 *
Wi

0101100
+7 11 *
Fa
0  1e-07 1 15

0101000
+4 0 *
Sh

0101100
+10 0 +5 0 -3 0 *
So

0100000
+2 0 *

+1 0 