DBRep_DrawableShape

CASCADE Topology V1, (c) Matra-Datavision
Locations 32
1
              1               0               0               0 
              0               1               0               0 
              0               0               1               0 
1
              1               0               0               0 
              0               1               0               0 
              0               0               1               0 
1
              1               0               0               0 
              0               1               0               0 
              0               0               1               0 
1
              1               0               0               0 
              0               1               0               0 
              0               0               1               0 
1
             -1               0 -1.22464679914735e-16               0 
              0               1               0               0 
1.22464679914735e-16               0              -1               0 
1
              1               0               0             582 
              0               1               0       -1127.125 
              0               0               1           596.9 
1
              1               0               0               0 
              0               1               0               0 
              0               0               1              -0 
1
              1               0               0               0 
              0               1               0               0 
              0               0               1               1 
1
              1               0               0               0 
              0               1               0               0 
              0               0               1              -1 
2  1 1 2 1 3 1 4 1 5 1 6 1 7 1 8 1 9 1 0
2  9 -1 8 -1 7 -1 6 -1 5 -1 4 -1 3 -1 2 -1 1 -1 0
1
              1               0               0               0 
              0               1               0               0 
              0               0               1              18 
2  1 1 2 1 3 1 4 1 5 1 6 1 7 1 8 1 9 1 12 1 0
2  12 -1 9 -1 8 -1 7 -1 6 -1 5 -1 4 -1 3 -1 2 -1 1 -1 0
1
              1               0               0               0 
              0               1               0               0 
              0               0               1              18 
2  15 -1 0
1
              1               0               0               0 
              0               1               0               0 
              0               0               1              -0 
1
              1               0               0               0 
              0               1               0               0 
              0               0               1               1 
1
              1               0               0               0 
              0               1               0               0 
              0               0               1              -1 
2  4 1 5 1 6 1 17 1 18 1 19 1 0
2  19 -1 18 -1 17 -1 6 -1 5 -1 4 -1 0
1
              1               0               0               0 
              0               1               0               0 
              0               0               1              18 
2  22 -1 19 -1 18 -1 17 -1 6 -1 5 -1 4 -1 0
1
              1               0               0               0 
              0               1               0               0 
              0               0               1 -1.15173417829099e-13 
1
              1               0               0               0 
              0               1               0               0 
              0               0               1               1 
1
              1               0               0               0 
              0               1               0               0 
              0               0               1              -1 
2  4 1 5 1 6 1 24 1 25 1 26 1 0
2  26 -1 25 -1 24 -1 6 -1 5 -1 4 -1 0
1
              1               0               0               0 
              0               1               0               0 
              0               0               1              18 
2  29 -1 26 -1 25 -1 24 -1 6 -1 5 -1 4 -1 0
2  4 1 5 1 6 1 17 1 18 1 19 1 22 1 0
2  4 1 5 1 6 1 24 1 25 1 26 1 29 1 0
Curve2ds 48
1 0 0 0 -1 
1 0 -0 1.2246467991473532e-16 -1 
1 162.97499999999991 0 0 -1 
1 0 -0 1.2246467991473532e-16 -1 
1 0 0 1 0 
1 0 0 0 1 
1 0 -18 1 0 
1 0 0 0 1 
1 0 0 0 -1 
1 564 -4.4616758249705305e-14 1.2246467991473532e-16 -1 
1 0 -0 1 0 
1 0 0 1 0 
1 2.2043642384652358e-15 -18 1 0 
1 0 0 1 0 
1 564 -4.4616758249705305e-14 1.2246467991473532e-16 -1 
1 162.97499999999991 0 0 -1 
1 0 -0 1 0 
1 0 162.97499999999991 1 0 
1 2.2043642384652358e-15 -18 1 0 
1 0 162.97499999999991 1 0 
1 0 0 1 0 
1 564 0 0 1 
1 0 0 1 0 
1 0 -18 1 0 
1 0 0 1 0 
1 0 -18 1 0 
1 0 0 1 0 
1 0 -18 1 0 
1 0 0 1 0 
1 0 -18 1 0 
1 0 0 1 0 
1 0 -18 1 0 
1 0 0 1 0 
1 0 -18 1 0 
1 0 -18 1 0 
1 564 0 0 1 
1 1.5707963267948966 0 0 -1 
1 3.1415926535897967 0 0 -1 
1 3.1415926535897647 0 0 -1 
1 1.5707963267948895 0 0 -1 
1 1.570796326794925 0 0 -1 
1 3.1415926535897931 0 0 -1 
1 3.141592653589786 0 0 -1 
1 1.5707963267948966 0 0 -1 
1 0 0 0 -1 
1 6.2831853071795862 0 0 -1 
1 0 0 0 -1 
1 6.2831853071795862 0 0 -1 
Curves 32
1 564 0 0 0 0 1 
1 564 162.97499999999991 0 0 0 1 
1 18 1127.125 596.89999999999998 -0 1 0 
1 18 1127.125 596.89999999999998 -0 1 0 
1 0 0 1.1368683772161603e-13 0 0 1 
1 18 1127.125 596.89999999999998 1 0 -0 
1 18 1127.125 596.89999999999998 1 0 -0 
1 0 162.97499999999991 1.1368683772161603e-13 0 0 1 
1 18 1290.0999999999999 596.89999999999998 1 0 -0 
1 18 1290.0999999999999 596.89999999999998 1 0 -0 
1 582 1127.125 596.89999999999998 -0 1 0 
2 154.00000000000006 62.875 3.453503973595535e-14 0 0 -1 1 0 0 0 -1 0 2
1 488.00000000000006 60.875 3.453503973595535e-14 1 0 0 
1 152.00000000000006 30.4375 3.453503973595535e-14 0 1 0 
2 410 62.875000000000057 3.453503973595535e-14 -0 0 -1 0 1 0 1 0 -0 2
2 154.00000000000006 118.87500000000001 3.453503973595535e-14 -0 -0 -1 0 -1 0 -1 0 0 2
1 412 30.4375 3.453503973595535e-14 0 1 0 
1 488.00000000000006 120.875 3.453503973595535e-14 1 0 0 
2 410 118.875 3.453503973595535e-14 -0 0 -1 -1 -0 0 0 1 0 2
2 130 1260 596.89999999999998 0 -0 1 1 0 0 -0 1 0 6
2 470 1260 596.89999999999998 0 -0 1 1 0 0 -0 1 0 6
1 582 1127.125 596.89999999999998 -0 1 0 
1 154.00000000000006 60.875 3.453503973595535e-14 0 0 1 
1 152.00000000000006 62.875000000000007 3.453503973595535e-14 0 0 1 
1 410.00000000000006 60.875 3.453503973595535e-14 0 0 1 
1 152.00000000000006 118.875 3.453503973595535e-14 0 0 1 
1 412 62.875 3.453503973595535e-14 0 0 1 
1 154.00000000000006 120.875 3.453503973595535e-14 0 0 1 
1 412 118.87500000000001 3.453503973595535e-14 0 0 1 
1 410 120.875 3.453503973595535e-14 0 0 1 
1 446 132.875 0 0 0 1 
1 106.00000000000006 132.875 0 0 0 1 
Polygon3D 0
PolygonOnTriangulations 0
Surfaces 16
1 564 0 0 -1 0 0 0 1 0 0 0 -1 
1 564 0 0 0 -1 0 -1 0 1.2246467991473532e-16 -1.2246467991473532e-16 -0 -1 
1 564 162.97499999999991 0 0 -1 0 -1 0 1.2246467991473532e-16 -1.2246467991473532e-16 -0 -1 
1 18 1127.125 596.89999999999998 0 0 1 1 0 -0 -0 1 0 
1 18 1127.125 596.89999999999998 0 0 1 1 0 -0 -0 1 0 
1 0 0 1.1368683772161603e-13 -1 0 0 0 1 0 0 0 -1 
2 154.00000000000006 62.875 3.453503973595535e-14 0 0 -1 1 0 0 0 -1 0 2
2 410 62.875000000000057 3.453503973595535e-14 -0 0 -1 0 1 0 1 0 -0 2
2 154.00000000000006 118.87500000000001 3.453503973595535e-14 -0 -0 -1 0 -1 0 -1 0 0 2
2 410 118.875 3.453503973595535e-14 -0 0 -1 -1 -0 0 0 1 0 2
2 452 132.875 0 -1.2246467991473532e-16 0 -1 -1 0 1.2246467991473532e-16 0 1 0 6
2 112.00000000000006 132.875 0 -1.2246467991473532e-16 0 -1 -1 0 1.2246467991473532e-16 0 1 0 6
1 154.00000000000006 60.875 3.453503973595535e-14 0 1 0 1 0 0 0 0 -1 
1 152.00000000000006 62.875000000000007 3.453503973595535e-14 -1 0 0 0 1 0 0 0 -1 
1 412 62.875 3.453503973595535e-14 -1 0 0 0 1 0 0 0 -1 
1 154.00000000000006 120.875 3.453503973595535e-14 0 1 0 1 0 0 0 0 -1 
Triangulations 0

TShapes 113
Ve
1e-07
564 0 0
0 0

0101101
*
Ve
1e-07
564 0 18
0 0

0101101
*
Ed
 1e-07 1 1 0
1  1 0 0 18
2  1 1 0 0 18
2  2 2 0 0 18
0

0101000
+113 0 -112 0 *
Ve
1e-07
564 162.975 0
0 0

0101101
*
Ve
1e-07
564 162.975 18
0 0

0101101
*
Ed
 1e-07 1 1 0
1  2 0 0 18
2  3 1 0 0 18
2  4 3 0 0 18
0

0101000
+110 0 -109 0 *
Ed
 1e-07 1 1 0
1  3 0 0 162.975
2  5 1 11 0 162.975
2  6 4 0 0 162.975
0

0101000
+113 11 -110 11 *
Ed
 1e-07 1 1 0
1  4 0 0 162.975
2  7 1 14 0 162.975
2  8 5 0 0 162.975
0

0101000
+112 14 -109 14 *
Wi

0101100
+111 0 -108 0 -107 10 +106 13 *
Fa
0  1e-07 1 0

0101000
+105 0 *
Ve
1e-07
0 0 1.13686837721616e-13
0 0

0101101
*
Ve
1e-07
0 0 18.0000000000001
0 0

0101101
*
Ed
 1e-07 1 1 0
1  5 0 0 18
2  9 6 0 0 18
2  10 2 0 0 18
0

0101000
+103 0 -102 0 *
Ed
 1e-07 1 1 0
1  6 0 0 564
2  11 2 11 0 564
2  12 4 0 0 564
0

0101000
+113 11 -103 11 *
Ed
 1e-07 1 1 0
1  7 0 0 564
2  13 2 14 0 564
2  14 5 0 0 564
0

0101000
+112 14 -102 14 *
Wi

0101100
+111 0 -101 0 -100 10 +99 13 *
Fa
0  1e-07 2 0

0101000
+98 0 *
Ve
1e-07
0 162.975 1.13686837721616e-13
0 0

0101101
*
Ve
1e-07
0 162.975 18.0000000000001
0 0

0101101
*
Ed
 1e-07 1 1 0
1  8 0 0 18
2  15 3 0 0 18
2  16 6 0 0 18
0

0101000
+96 0 -95 0 *
Ed
 1e-07 1 1 0
1  9 0 0 564
2  17 3 11 0 564
2  18 4 0 0 564
0

0101000
+110 11 -96 11 *
Ed
 1e-07 1 1 0
1  10 0 0 564
2  19 3 14 0 564
2  20 5 0 0 564
0

0101000
+109 14 -95 14 *
Wi

0101100
+108 0 -94 0 -93 10 +92 13 *
Fa
0  1e-07 3 0

0101000
+91 0 *
Ed
 1e-07 1 1 0
1  11 0 0 162.975
2  21 6 11 0 162.975
2  22 4 0 0 162.975
0

0101000
+103 11 -96 11 *
Wi

0101100
-107 10 +100 10 -93 10 +89 10 *
Ve
1.50000079213634e-07
154 60.875 3.45350397359553e-14
0 0

0101101
*
Ve
1.50000091378459e-07
152 62.875 3.45350397359553e-14
0 0

0101101
*
Ed
 1.00000015918313e-07 1 1 0
1  12 0 1.5707963267949 3.1415926535898
2  23 7 0 1.5707963267949 3.1415926535898
2  24 7 16 1.5707963267949 3.1415926535898
0

0101000
+87 0 -86 0 *
Ve
1.50000081826214e-07
410 60.875 3.45350397359553e-14
0 0

0101101
*
Ed
 1.50000079213634e-07 1 1 0
1  13 0 -334 -78
0

0101000
+87 0 -84 0 *
Ve
1.50000091378459e-07
152 118.875 3.45350397359553e-14
0 0

0101101
*
Ed
 1.50000091378459e-07 1 1 0
1  14 0 32.4375 88.4375
0

0101000
+86 0 -82 0 *
Ve
1.50000091378459e-07
412 62.875 3.45350397359553e-14
0 0

0101101
*
Ed
 1.00000015918313e-07 1 1 0
1  15 0 1.57079632679492 3.14159265358976
2  25 8 0 1.57079632679492 3.14159265358976
2  26 8 16 1.57079632679492 3.14159265358976
0

0101000
+80 0 -84 0 *
Ve
1.50000079213634e-07
154 120.875 3.45350397359553e-14
0 0

0101101
*
Ed
 1.00000015918313e-07 1 1 0
1  16 0 1.57079632679489 3.14159265358979
2  27 9 0 1.57079632679489 3.14159265358979
2  28 9 16 1.57079632679489 3.14159265358979
0

0101000
+82 0 -78 0 *
Ve
1.50000091378459e-07
412 118.875 3.45350397359553e-14
0 0

0101101
*
Ed
 1.50000091378459e-07 1 1 0
1  17 0 32.4375 88.4375
0

0101000
+80 0 -76 0 *
Ve
1.50000081826214e-07
410 120.875 3.45350397359553e-14
0 0

0101101
*
Ed
 1.50000079213634e-07 1 1 0
1  18 0 -334 -78.0000000000001
0

0101000
+78 0 -74 0 *
Ed
 1.00000015918313e-07 1 1 0
1  19 0 1.5707963267949 3.14159265358979
2  29 10 0 1.5707963267949 3.14159265358979
2  30 10 16 1.5707963267949 3.14159265358979
0

0101000
+74 0 -76 0 *
Wi

0101100
-85 0 +83 0 -81 0 -79 0 -77 0 +75 0 -73 0 -72 0 *
Ve
1.00000077763729e-07
446 132.875 0
0 0

0101101
*
Ed
 1.00000077763729e-07 1 1 0
1  20 0 0 6.28318530717959
2  31 11 21 0 6.28318530717959
2  32 11 23 0 6.28318530717959
0

0101000
+70 21 -70 21 *
Wi

0101100
-69 20 *
Ve
1.00000060396133e-07
106 132.875 0
0 0

0101101
*
Ed
 1.00000060396133e-07 1 1 0
1  21 0 0 6.28318530717959
2  33 12 28 0 6.28318530717959
2  34 12 30 0 6.28318530717959
0

0101000
+67 28 -67 28 *
Wi

0101100
-66 27 *
Fa
0  1e-07 4 10

0101000
+88 0 +71 0 +68 0 +65 0 *
Ed
 1e-07 1 1 0
1  22 0 0 162.975
2  35 6 14 0 162.975
2  36 5 0 0 162.975
0

0101000
+102 14 -95 14 *
Wi

0101100
-106 13 +99 13 -92 13 +63 13 *
Ve
1.50000079213634e-07
154 60.875 18
0 0

0101101
*
Ve
1.50000091378459e-07
152 62.875 18
0 0

0101101
*
Ed
 1.00000015918313e-07 1 1 0
1  12 0 1.5707963267949 3.1415926535898
2  23 7 0 1.5707963267949 3.1415926535898
2  24 7 16 1.5707963267949 3.1415926535898
0

0101000
+61 16 -60 16 *
Ve
1.50000081826214e-07
410 60.875 18
0 0

0101101
*
Ed
 1.50000079213634e-07 1 1 0
1  13 0 -334 -78
0

0101000
+61 16 -58 16 *
Ve
1.50000091378459e-07
152 118.875 18
0 0

0101101
*
Ed
 1.50000091378459e-07 1 1 0
1  14 0 32.4375 88.4375
0

0101000
+60 16 -56 16 *
Ve
1.50000091378459e-07
412 62.875 18
0 0

0101101
*
Ed
 1.00000017763568e-07 1 1 0
1  15 0 1.57079632679492 3.14159265358976
2  25 8 0 1.57079632679492 3.14159265358976
2  26 8 16 1.57079632679492 3.14159265358976
0

0101000
+54 16 -58 16 *
Ve
1.50000079213634e-07
154 120.875 18
0 0

0101101
*
Ed
 1.00000015918313e-07 1 1 0
1  16 0 1.57079632679489 3.14159265358979
2  27 9 0 1.57079632679489 3.14159265358979
2  28 9 16 1.57079632679489 3.14159265358979
0

0101000
+56 16 -52 16 *
Ve
1.50000091378459e-07
412 118.875 18
0 0

0101101
*
Ed
 1.50000091378459e-07 1 1 0
1  17 0 32.4375 88.4375
0

0101000
+54 16 -50 16 *
Ve
1.50000081826214e-07
410 120.875 18
0 0

0101101
*
Ed
 1.50000079213634e-07 1 1 0
1  18 0 -334 -78.0000000000001
0

0101000
+52 16 -48 16 *
Ed
 1.00000017763568e-07 1 1 0
1  19 0 1.5707963267949 3.14159265358979
2  29 10 0 1.5707963267949 3.14159265358979
2  30 10 16 1.5707963267949 3.14159265358979
0

0101000
+48 16 -50 16 *
Wi

0101100
-59 15 +57 15 -55 15 -53 15 -51 15 +49 15 -47 15 -46 15 *
Ve
1.00000077763729e-07
446 132.875 18
0 0

0101101
*
Ed
 1.00000077763729e-07 1 1 0
1  20 0 0 6.28318530717959
2  31 11 21 0 6.28318530717959
2  32 11 23 0 6.28318530717959
0

0101000
+44 23 -44 23 *
Wi

0101100
-43 31 *
Ve
1.00000060396133e-07
106 132.875 18
0 0

0101101
*
Ed
 1.00000060396133e-07 1 1 0
1  21 0 0 6.28318530717959
2  33 12 28 0 6.28318530717959
2  34 12 30 0 6.28318530717959
0

0101000
+41 30 -41 30 *
Wi

0101100
-40 32 *
Fa
0  1e-07 5 13

0101000
+62 0 +45 0 +42 0 +39 0 *
Wi

0101100
+101 0 -94 0 -89 10 +63 13 *
Fa
0  1e-07 6 0

0101000
+37 0 *
Ed
 1.50000079213634e-07 1 1 0
1  23 0 0 18
2  37 7 0 0 18
4 G1 13 0 7 0
0

0101000
+87 0 -61 0 *
Ed
 1.50000091378459e-07 1 1 0
1  24 0 0 18
2  38 7 0 0 18
4 G1 14 0 7 0
0

0101000
+86 0 -60 0 *
Wi

0101100
+35 0 -34 0 -85 0 +59 15 *
Fa
0  1.00000015918313e-07 7 0

0101000
+33 0 *
Ed
 1.50000081826214e-07 1 1 0
1  25 0 0 18
2  39 8 0 0 18
4 G1 13 0 8 0
0

0101000
+84 0 -58 0 *
Wi

0101100
+35 0 -31 0 -83 0 +57 15 *
Fa
0  1.50000079213634e-07 13 0

0101000
+30 0 *
Ed
 1.50000091378459e-07 1 1 0
1  26 0 0 18
2  40 9 0 0 18
4 G1 9 0 14 0
0

0101000
+82 0 -56 0 *
Wi

0101100
+34 0 -28 0 -81 0 +55 15 *
Fa
0  1.50000091378459e-07 14 0

0101000
+27 0 *
Ed
 1.50000091378459e-07 1 1 0
1  27 0 0 18
2  41 8 0 0 18
4 G1 8 0 15 0
0

0101000
+80 0 -54 0 *
Wi

0101100
+25 0 -31 0 -79 0 +53 15 *
Fa
0  1.00000015918313e-07 8 0

0101000
+24 0 *
Ed
 1.50000079213634e-07 1 1 0
1  28 0 0 18
2  42 9 0 0 18
4 G1 16 0 9 0
0

0101000
+78 0 -52 0 *
Wi

0101100
+28 0 -22 0 -77 0 +51 15 *
Fa
0  1.00000015918313e-07 9 0

0101000
+21 0 *
Ed
 1.50000091378459e-07 1 1 0
1  29 0 0 18
2  43 10 0 0 18
4 G1 15 0 10 0
0

0101000
+76 0 -50 0 *
Wi

0101100
+25 0 -19 0 -75 0 +49 15 *
Fa
0  1.50000091378459e-07 15 0

0101000
+18 0 *
Ed
 1.50000081826214e-07 1 1 0
1  30 0 0 18
2  44 10 0 0 18
4 G1 10 0 16 0
0

0101000
+74 0 -48 0 *
Wi

0101100
+22 0 -16 0 -73 0 +47 15 *
Fa
0  1.50000079213634e-07 16 0

0101000
+15 0 *
Wi

0101100
+16 0 -19 0 -72 0 +46 15 *
Fa
0  1.00000015918313e-07 10 0

0101000
+13 0 *
Ed
 1.00000077763729e-07 1 1 0
1  31 0 0 18
3  45 46CN 11 0 0 18
0

0101000
+70 0 -44 0 *
Wi

0101100
+11 0 -11 0 -69 20 +43 31 *
Fa
0  1.00000077763729e-07 11 0

0101000
+10 0 *
Ed
 1.00000060396133e-07 1 1 0
1  32 0 0 18
3  47 48CN 12 0 0 18
0

0101000
+67 0 -41 0 *
Wi

0101100
+8 0 -8 0 -66 27 +40 32 *
Fa
0  1.00000060396133e-07 12 0

0101000
+7 0 *
Sh

0101100
-104 0 +97 0 -90 0 +64 0 -38 0 +36 0 -32 0 +29 0 -26 0 -23 0 
-20 0 +17 0 -14 0 -12 0 -9 0 -6 0 *
So

0100000
+5 0 *
Co

0100000
+4 0 *
Co

0100000
+3 0 *
Co

1100000
+2 0 *

+1 0 