DBRep_DrawableShape

CASCADE Topology V1, (c) Matra-Datavision
Locations 0
Curve2ds 0
Curves 8
1 488.00000000000006 60.875 3.453503973595535e-14 1 0 0 
2 410 62.875000000000057 3.453503973595535e-14 -0 0 -1 0 1 0 1 0 -0 2
1 412 30.4375 3.453503973595535e-14 0 1 0 
2 410 118.875 3.453503973595535e-14 -0 0 -1 -1 -0 0 0 1 0 2
1 488.00000000000006 120.875 3.453503973595535e-14 1 0 0 
2 154.00000000000006 118.87500000000001 3.453503973595535e-14 -0 -0 -1 0 -1 0 -1 0 0 2
1 152.00000000000006 30.4375 3.453503973595535e-14 0 1 0 
2 154.00000000000006 62.875 3.453503973595535e-14 0 0 -1 1 0 0 0 -1 0 2
Polygon3D 0
PolygonOnTriangulations 0
Surfaces 1
1 281.99999999999994 90.874999999999972 3.453503973595535e-14 0 0 1 1 0 -0 -0 1 0 
Triangulations 0

TShapes 19
Ve
1.50000079213634e-07
154 60.875 3.45350397359553e-14
0 0

0101101
*
Ve
1.50000081826214e-07
410 60.875 3.45350397359553e-14
0 0

0101101
*
Ed
 1.50000079213634e-07 1 1 0
1  1 0 -334 -78
0

0101000
+19 0 -18 0 *
Ve
1.50000091378459e-07
412 62.875 3.45350397359553e-14
0 0

0101101
*
Ed
 1.00000015918313e-07 1 1 0
1  2 0 1.57079632679492 3.14159265358976
0

0101000
+16 0 -18 0 *
Ve
1.50000091378459e-07
412 118.875 3.45350397359553e-14
0 0

0101101
*
Ed
 1.50000091378459e-07 1 1 0
1  3 0 32.4375 88.4375
0

0101000
+16 0 -14 0 *
Ve
1.50000081826214e-07
410 120.875 3.45350397359553e-14
0 0

0101101
*
Ed
 1.00000015918313e-07 1 1 0
1  4 0 1.5707963267949 3.14159265358979
0

0101000
+12 0 -14 0 *
Ve
1.50000079213634e-07
154 120.875 3.45350397359553e-14
0 0

0101101
*
Ed
 1.50000079213634e-07 1 1 0
1  5 0 -334 -78.0000000000001
0

0101000
+10 0 -12 0 *
Ve
1.50000091378459e-07
152 118.875 3.45350397359553e-14
0 0

0101101
*
Ed
 1.00000015918313e-07 1 1 0
1  6 0 1.57079632679489 3.14159265358979
0

0101000
+8 0 -10 0 *
Ve
1.50000091378459e-07
152 62.875 3.45350397359553e-14
0 0

0101101
*
Ed
 1.50000091378459e-07 1 1 0
1  7 0 32.4375 88.4375
0

0101000
+6 0 -8 0 *
Ed
 1.00000015918313e-07 1 1 0
1  8 0 1.5707963267949 3.1415926535898
0

0101000
+19 0 -6 0 *
Wi

0101100
-17 0 +15 0 -13 0 +11 0 +9 0 +7 0 +5 0 +4 0 *
Fa
0  1e-07 1 0

0101000
-3 0 *
Sh

1101000
+2 0 *

+1 0 