DBRep_DrawableShape

CASCADE Topology V1, (c) Matra-Datavision
Locations 11
1
              1               0               0               0 
              0               1               0               0 
              0               0               1              -1 
1
              1               0               0               0 
              0               1               0               0 
              0               0               1               0 
1
              1               0               0               0 
              0               1               0               0 
              0               0               1               0 
1
              1               0               0               0 
              0               1               0               0 
              0               0               1               0 
1
              1               0               0               0 
              0               1               0               0 
              0               0               1               0 
1
             -1               0 -1.22464679914735e-16               0 
              0               1               0               0 
1.22464679914735e-16               0              -1               0 
1
              1               0               0             582 
              0               1               0       -1127.125 
              0               0               1           596.9 
1
              1               0               0               0 
              0               1               0               0 
              0               0               1              -0 
1
              1               0               0               0 
              0               1               0               0 
              0               0               1               1 
2  2 1 3 1 4 1 5 1 6 1 7 1 8 1 9 1 0
2  9 -1 8 -1 7 -1 6 -1 5 -1 4 -1 3 -1 2 -1 0
Curve2ds 4
1 0 0 0 1 
1 0 162.97499999999991 1 0 
1 564 0 0 1 
1 0 0 1 0 
Curves 4
1 18 1127.125 596.89999999999998 -0 1 0 
1 18 1290.0999999999999 596.89999999999998 1 0 -0 
1 582 1127.125 596.89999999999998 -0 1 0 
1 18 1127.125 596.89999999999998 1 0 -0 
Polygon3D 0
PolygonOnTriangulations 0
Surfaces 1
1 18 1127.125 596.89999999999998 0 0 1 1 0 -0 -0 1 0 
Triangulations 0

TShapes 9
Ve
1e-07
564 0 1
0 0

0101101
*
Ve
1e-07
564 162.975 1
0 0

0101101
*
Ed
 1e-07 1 1 0
1  1 0 0 162.975
2  1 1 0 0 162.975
0

0101000
+9 11 -8 11 *
Ve
1e-07
0 162.975 1.00000000000011
0 0

0101101
*
Ed
 1e-07 1 1 0
1  2 0 0 564
2  2 1 0 0 564
0

0101000
+8 11 -6 11 *
Ve
1e-07
0 0 1.00000000000011
0 0

0101101
*
Ed
 1e-07 1 1 0
1  3 0 0 162.975
2  3 1 0 0 162.975
0

0101000
+4 11 -6 11 *
Ed
 1e-07 1 1 0
1  4 0 0 564
2  4 1 0 0 564
0

0101000
+9 11 -4 11 *
Wi

0101100
+7 10 +5 10 -3 10 -2 10 *

+1 1 