DBRep_DrawableShape

CASCADE Topology V1, (c) Matra-Datavision
Locations 7
1
              1               0               0               0 
              0               1               0               0 
              0               0               1              -1 
1
             -1               0 -1.22464679914735e-16               0 
              0               1               0               0 
1.22464679914735e-16               0              -1               0 
1
              1               0               0              72 
              0               1               0             -18 
              0               0               1             126 
1
              1               0               0               0 
              0               1               0               0 
              0               0               1              -0 
1
              1               0               0               0 
              0               1               0               0 
              0               0               1               1 
2  2 1 3 1 4 1 5 1 0
2  5 -1 4 -1 3 -1 2 -1 0
Curve2ds 3
8 -33.944543650008093 20.055456349991907
1 13.889087300016183 33.944543650008086 0 -1 
8 -19.091883092036785 57.275649276110357
1 54.389087300016186 27.38908730001619 -0.70710678118654757 0.70710678118654757 
8 6.9445436500080886 60.944543650008093
1 6.9445436500080913 13.889087300016183 1 0 
Curves 3
1 18 38.055456349991907 126 0 -1 0 
1 58.500000000000007 31.500000000000007 126 -0.70710678118654757 0.70710678118654757 0 
1 11.055456349991909 18 126 1 0 0 
Polygon3D 0
PolygonOnTriangulations 0
Surfaces 1
1 4.1109126999838175 4.1109126999838175 126 0 0 1 1 0 -0 -0 1 0 
Triangulations 0

TShapes 7
Ve
1.50000014210855e-07
54 54 1
0 0

0101101
*
Ve
1.50000003552714e-07
54 0 1
0 0

0101101
*
Ed
 1.50000002512148e-07 1 1 0
1  1 0 -33.9445436500081 20.0554563499919
2  1 1 0 -33.9445436500081 20.0554563499919
0

0101000
+7 7 -6 7 *
Ve
1.50000015888219e-07
1.4210854715202e-14 0 1.00000000000001
0 0

0101101
*
Ed
 1.50000002512148e-07 1 1 0
1  2 0 -19.0918830920368 57.2756492761104
2  2 1 0 -19.0918830920368 57.2756492761104
0

0101000
+4 7 -7 7 *
Ed
 1.50000002512148e-07 1 1 0
1  3 0 6.94454365000809 60.9445436500081
2  3 1 0 6.94454365000809 60.9445436500081
0

0101000
+6 7 -4 7 *
Wi

0101100
+5 6 +3 6 +2 6 *

-1 1 