DBRep_DrawableShape

CASCADE Topology V1, (c) Matra-Datavision
Locations 9
1
              1               0               0               0 
              0               1               0               0 
              0               0               1              -1 
1
              1               0               0               0 
              0               1               0               0 
              0               0               1             126 
1
              1               0               0               0 
              0               1               0               0 
              0               0               1               0 
1
             -1               0 -1.22464679914735e-16               0 
              0               1               0               0 
1.22464679914735e-16               0              -1               0 
1
              1               0               0              72 
              0               1               0             -18 
              0               0               1             180 
1
              1               0               0               0 
              0               1               0               0 
              0               0               1              -0 
1
              1               0               0               0 
              0               1               0               0 
              0               0               1               1 
2  2 1 3 1 4 1 5 1 6 1 7 1 0
2  7 -1 6 -1 5 -1 4 -1 3 -1 2 -1 0
Curve2ds 3
1 -19.091883092036788 -19.091883092036788 1 0 
1 34.908116907963212 -19.091883092036788 -0.70710678118654757 0.70710678118654757 
1 -19.091883092036788 34.908116907963212 0 -1 
Curves 3
1 18 18 54 1 0 0 
1 72 18 54 -0.70710678118654757 0.70710678118654757 0 
1 18 72 54 0 -1 0 
Polygon3D 0
PolygonOnTriangulations 0
Surfaces 1
1 37.091883092036788 37.091883092036788 54.000000000000007 0 0 1 1 0 -0 -0 1 0 
Triangulations 0

TShapes 7
Ve
1.50000037969627e-07
54 0 1.00000000000001
0 0

0101101
*
Ve
1.50000048162908e-07
9.473903143468e-15 0 1.00000000000001
0 0

0101101
*
Ed
 1.5000003750451e-07 1 1 0
1  1 0 0 54
2  1 1 0 0 54
0

0101000
+7 9 -6 9 *
Ve
1.50000047052428e-07
54 54 1.00000000000001
0 0

0101101
*
Ed
 1.5000003750451e-07 1 1 0
1  2 0 0 76.3675323681471
2  2 1 0 0 76.3675323681471
0

0101000
+6 9 -4 9 *
Ed
 1.5000003750451e-07 1 1 0
1  3 0 0 54
2  3 1 0 0 54
0

0101000
+4 9 -7 9 *
Wi

0101100
+5 8 +3 8 +2 8 *

-1 1 