DBRep_DrawableShape

CASCADE Topology V1, (c) Matra-Datavision
Locations 0
Curve2ds 0
Curves 3
1 54.000000000000007 23.944543650007574 4.0472034845454806e-15 0 -1 -0 
1 60.9445436500081 3.8890873000156709 4.0472034845454806e-15 -1 0 0 
1 13.500000000000004 17.389087300015678 4.0472034845454806e-15 0.70710678118654757 0.70710678118654757 0 
Polygon3D 0
PolygonOnTriangulations 0
Surfaces 0
Triangulations 0

TShapes 7
Ve
1e-07
54 57.8890873000157 4.04720348454548e-15
0 0

0101101
*
Ve
1e-07
54 3.88908730001567 4.04720348454548e-15
0 0

0101101
*
Ed
 1e-07 1 1 0
1  1 0 -33.9445436500081 20.0554563499919
0

0101000
+7 0 -6 0 *
Ve
1e-07
0 3.88908730001567 4.04720348454548e-15
0 0

0101101
*
Ed
 1e-07 1 1 0
1  2 0 6.94454365000809 60.9445436500081
0

0101000
+6 0 -4 0 *
Ed
 1e-07 1 1 0
1  3 0 -19.0918830920368 57.2756492761103
0

0101000
+4 0 -7 0 *
Wi

0101100
-5 0 -3 0 -2 0 *

+1 0 