DBRep_DrawableShape

CASCADE Topology V1, (c) Matra-Datavision
Locations 12
1
             -1               0 -1.22464679914735e-16               0 
              0               1               0               0 
1.22464679914735e-16               0              -1               0 
1
              1               0               0              72 
              0               1               0             -18 
              0               0               1              90 
1
              1               0               0               0 
              0               1               0               0 
              0               0               1             -18 
1
              1               0               0               0 
              0               1               0               0 
              0               0               1               1 
1
              1               0               0               0 
              0               1               0               0 
              0               0               1              -1 
2  1 1 2 1 3 1 4 1 5 1 0
2  5 -1 4 -1 3 -1 2 -1 1 -1 0
1
              1               0               0               0 
              0               1               0               0 
              0               0               1              18 
2  1 1 2 1 3 1 4 1 5 1 8 1 0
2  8 -1 5 -1 4 -1 3 -1 2 -1 1 -1 0
2  1 1 2 1 3 1 4 1 0
2  5 1 8 1 0
Curve2ds 18
1 0 0 0 -1 
1 76.367532368147138 9.2510351786552255e-15 -8.6595605623549329e-17 -1 
1 54 0 0 -1 
1 7.1054273576010019e-15 8.5046131525214921e-16 1.2246467991473532e-16 -1 
1 33.944543650008093 0 1 0 
8 -33.944543650008093 20.055456349991907
1 13.889087300016183 33.944543650008086 0 -1 
1 33.944543650008093 -18 1 0 
8 -33.944543650008093 20.055456349991907
1 13.889087300016183 33.944543650008086 0 -1 
1 -2.5121479338940403e-15 1.6532731788489279e-15 -8.6595605623549329e-17 -1 
1 54.000000000000014 -6.7473006845541458e-15 1.2246467991473532e-16 -1 
1 19.091883092036788 9.8607613152626476e-31 1 2.4651903288156613e-32 
8 -19.091883092036785 57.275649276110357
1 54.389087300016186 27.38908730001619 -0.70710678118654757 0.70710678118654757 
1 19.091883092036788 -18 1 2.4651903288156613e-32 
8 -19.091883092036785 57.275649276110357
1 54.389087300016186 27.38908730001619 -0.70710678118654757 0.70710678118654757 
1 -6.9445436500080859 3.944304526105059e-31 1 0 
8 6.9445436500080886 60.944543650008093
1 6.9445436500080913 13.889087300016183 1 0 
1 -6.9445436500080842 -18 1 0 
8 6.9445436500080886 60.944543650008093
1 6.9445436500080913 13.889087300016183 1 0 
Curves 9
1 54.000000000000021 54 0 0 0 1 
1 54.000000000000021 0 0 0 0 1 
1 18 38.055456349991907 72 0 -1 0 
1 18 38.055456349991907 72 0 -1 0 
1 1.4210854715202004e-14 0 1.4210854715202004e-14 0 0 1 
1 58.500000000000007 31.500000000000007 72 -0.70710678118654757 0.70710678118654757 0 
1 58.500000000000007 31.500000000000007 72 -0.70710678118654757 0.70710678118654757 0 
1 11.055456349991909 18 72 1 0 0 
1 11.055456349991909 18 72 1 0 0 
Polygon3D 0
PolygonOnTriangulations 0
Surfaces 5
1 54.000000000000021 54 0 1 -0 0 -0 -1 0 0 -0 -1 
1 1.2434497875801753e-14 5.3290705182007514e-15 1.5864127894050931e-14 -0.70710678118654757 0.70710678118654757 0 0.70710678118654757 0.70710678118654757 -8.6595605623549329e-17 -6.1232339957367648e-17 -6.1232339957367648e-17 -1 
1 54.000000000000028 0 8.5046131525214832e-16 0 -1 0 -1 0 1.2246467991473532e-16 -1.2246467991473532e-16 -0 -1 
1 4.1109126999838175 4.1109126999838175 72 0 0 1 1 0 -0 -0 1 0 
1 4.1109126999838175 4.1109126999838175 72 0 0 1 1 0 -0 -0 1 0 
Triangulations 0

TShapes 27
Ve
1.50000028421709e-07
54 54 0
0 0

0101101
*
Ve
1.50000028421709e-07
54 54 18
0 0

0101101
*
Ed
 1.50000028421709e-07 1 1 0
1  1 0 0 18
2  1 1 0 0 18
2  2 2 0 0 18
0

0101000
+27 0 -26 0 *
Ve
1.50000017763568e-07
54 0 0
0 0

0101101
*
Ve
1.50000017763568e-07
54 0 18
0 0

0101101
*
Ed
 1.50000017763568e-07 1 1 0
1  2 0 0 18
2  3 1 0 0 18
2  4 3 0 0 18
0

0101000
+24 0 -23 0 *
Ed
 1.50000007105427e-07 1 1 0
1  3 0 -33.9445436500081 20.0554563499919
2  5 1 7 -33.9445436500081 20.0554563499919
2  6 4 0 -33.9445436500081 20.0554563499919
0

0101000
+27 7 -24 7 *
Ed
 1.50000007105427e-07 1 1 0
1  4 0 -33.9445436500081 20.0554563499919
2  7 1 10 -33.9445436500081 20.0554563499919
2  8 5 0 -33.9445436500081 20.0554563499919
0

0101000
+26 10 -23 10 *
Wi

0101100
+25 0 -22 0 -21 6 +20 9 *
Fa
0  1.50000007105427e-07 1 0

0101000
+19 0 *
Ve
1.50000015888219e-07
1.4210854715202e-14 0 1.4210854715202e-14
0 0

0101101
*
Ve
1.50000015888219e-07
1.4210854715202e-14 0 18
0 0

0101101
*
Ed
 1.50000015888219e-07 1 1 0
1  5 0 0 18
2  9 2 0 0 18
2  10 3 0 0 18
0

0101000
+17 0 -16 0 *
Ed
 1.50000010048592e-07 1 1 0
1  6 0 -19.0918830920368 57.2756492761104
2  11 2 7 -19.0918830920368 57.2756492761104
2  12 4 0 -19.0918830920368 57.2756492761104
0

0101000
+17 7 -27 7 *
Ed
 1.50000010048592e-07 1 1 0
1  7 0 -19.0918830920368 57.2756492761104
2  13 2 10 -19.0918830920368 57.2756492761104
2  14 5 0 -19.0918830920368 57.2756492761104
0

0101000
+16 10 -26 10 *
Wi

0101100
+15 0 -25 0 -14 6 +13 9 *
Fa
0  1.50000010048592e-07 2 0

0101000
+12 0 *
Ed
 1.5e-07 1 1 0
1  8 0 6.94454365000809 60.9445436500081
2  15 3 7 6.94454365000809 60.9445436500081
2  16 4 0 6.94454365000809 60.9445436500081
0

0101000
+24 7 -17 7 *
Ed
 1.5e-07 1 1 0
1  9 0 6.94454365000809 60.9445436500081
2  17 3 10 6.94454365000809 60.9445436500081
2  18 5 0 6.94454365000809 60.9445436500081
0

0101000
+23 10 -16 10 *
Wi

0101100
+22 0 -15 0 -10 6 +9 9 *
Fa
0  1.5e-07 3 0

0101000
+8 0 *
Wi

0101100
+21 11 +14 11 +10 11 *
Fa
0  1.5e-07 4 11

0101000
+6 0 *
Wi

0101100
+20 11 +13 11 +9 11 *
Fa
0  1.5e-07 5 11

0101000
+4 0 *
Sh

0101100
+18 0 +11 0 +7 0 +5 5 -3 12 *
So

1100000
+2 0 *

+1 0 