DBRep_DrawableShape

CASCADE Topology V1, (c) Matra-Datavision
Locations 5
1
              1               0               0               0 
              0               1               0               0 
              0               0               1               0 
1
             -1               0 -1.22464679914735e-16               0 
              0               1               0               0 
1.22464679914735e-16               0              -1               0 
1
              1               0               0              72 
              0               1               0 -14.1109126999843 
              0               0               1             162 
2  1 1 2 1 3 1 0
2  3 -1 2 -1 1 -1 0
Curve2ds 10
3 54 -100 -1 0 -0 -1 7.7781745930520225 5.5
7 0 0  8 23 4  0.80341859332329435 31.637467504308237  0.94955447208995036 32.215951507229384  1.0956903508565241 32.887628873467762  1.2418262296229656 33.633673690924411  1.3879621083900702 34.431018031204076  1.5340979871570468 35.253625942588542  1.6802338659232845 36.074287346765615  1.826369744689887 36.866536651071613  2.1917094416065273 38.715947243405658  2.4109132597527605 39.707502347351692  2.6301170779115637 40.499715412195656  2.8493208960499032 41.023457801522454  3.0685247142027947 41.234140816377476  3.2877285323547767 41.121332209586399  3.5069323505064327 40.707930776585449  3.9453399868064007 39.377362235685716  4.1645438049558834 38.460194430237607  4.3837476230764878 37.339863130298909  4.6029514412439312 36.090864641679218  4.8221552593749948 34.806159808998927  5.0413590775578996 33.582605232018977  5.2605628957063066 32.505193508689956  5.4797667138562911 31.637467504308244 
 3.9450112469130882 9 5.1140982770463346 7 6.8677288222462094 7 8.6213593674460842 9
3 0 -100 1 0 -0 1 7.7781745930520225 5.5
7 0 0  7 14 3  3.9450112469130869 31.637467504308241  4.1120236797892655 32.298592079075263  4.2790361126648904 33.083974471597685  4.4460485455429293 33.963493222527177  4.6130609784161365 34.898542839880974  4.7800734112946301 35.845431113757513  4.9470858441701582 36.760856045795379  5.2811107099225145 38.45174573021508  5.4481231427986856 39.227209802986181  5.6151355756746497 39.894180319555744  5.7821480085509833 40.418904150574235  5.9491604414272317 40.776862443479331  6.1161728743034081 40.95584412271571  6.2831853071795862 40.95584412271571 
 3.9450112469130878 8 5.1140982770463372 6 6.2831853071795862 8
3 0 -100 1 0 -0 1 7.7781745930520225 5.5
7 0 0  7 14 3  0 40.95584412271571  0.16701243287617845 40.95584412271571  0.33402486575241142 40.776862443475693  0.50103729862843238 40.418904150606977  0.66804973150487967 39.894180319533916  0.8350621643808438 39.227209802995276  1.0020745972570713 38.45174573021508  1.3360994630094281 36.760856045795379  1.5031118958851835 35.845431113749328  1.6701243287623129 34.898542839891888  1.8371367616371117 33.963493222508987  2.0041491945145253 33.083974471603142  2.1711616273903203 32.298592079075263  2.3381740602664989 31.637467504308241 
 0 8 1.1690870301332492 6 2.3381740602664984 8
1 6.2831853071795862 -0 0 1 
1 0 -0 0 1 
2 38.183766184073569 -100 -1 -0 -0 1 5.5
1 0 73.63961030678928 1 0 
Curves 6
1 54.000000000000021 3.8890873000156709 0 0 0 1 
3 18 18 154 1 0 -0 0 1 0 0 -0 1 7.7781745930520225 5.5
3 18 18 154 0 1 0 1 -0 0 0 0 -1 7.7781745930520225 5.5
3 18 18 154 0 1 0 1 -0 0 0 0 -1 7.7781745930520225 5.5
1 -3.1819805153394629 -10.960155108391486 154 0.70710678118654757 0.70710678118654757 0 
2 44.999999999999993 44.999999999999993 154 0.70710678118654757 0.70710678118654757 0 0.70710678118654757 -0.70710678118654757 0 0 0 -1 5.5
Polygon3D 0
PolygonOnTriangulations 0
Surfaces 7
1 54.000000000000007 57.889087300015674 0 1 -0 0 -0 -1 0 0 -0 -1 
1 18 72 54 1 0 -0 0 -1 0 0 -0 -1 
2 -7.0710678118654746 -7.0710678118654746 154 0.70710678118654757 0.70710678118654757 0 0.70710678118654757 -0.70710678118654757 0 0 0 -1 5.5
1 54.000000000000014 3.8890873000156709 8.5046131525214832e-16 0 -1 0 -1 0 1.2246467991473532e-16 -1.2246467991473532e-16 -0 -1 
1 18 18 54 0 1 0 1 0 0 0 0 -1 
1 72 18 54 -0.70710678118654757 -0.70710678118654757 0 -0.70710678118654757 0.70710678118654757 0 -0 0 -1 
1 -1.7763568394002505e-15 3.8890873000156763 1.6532731788489271e-15 -0.70710678118654757 0.70710678118654757 0 0.70710678118654757 0.70710678118654757 -8.6595605623549329e-17 -6.1232339957367648e-17 -6.1232339957367648e-17 -1 
Triangulations 0

TShapes 20
Ve
1.50000024868996e-07
54 3.88908730001567 2.5
0 0

0101101
*
Ve
1.50000024868996e-07
54 3.88908730001567 13.5
0 0

0101101
*
Ed
 1.50000017763568e-07 1 1 0
1  1 0 2.5 13.5
0

0101000
+20 0 -19 0 *
Ed
 1.50000014210855e-07 1 1 0
1  2 0 4.71238898038469 7.85398163397448
2  1 2 0 4.71238898038469 7.85398163397448
2  2 3 0 4.71238898038469 7.85398163397448
0

0101000
+19 5 -20 5 *
Wi

0101100
-18 0 -17 4 *
Fa
0  1.50000007105427e-07 1 0

0101000
+16 0 *
Ve
1.50000003552714e-07
46.221825406948 3.88908730001567 8
0 0

0101101
*
Ed
 1.5e-07 1 1 0
1  3 0 4.71238898038469 6.28318530717959
2  3 5 0 4.71238898038469 6.28318530717959
2  4 3 0 4.71238898038469 6.28318530717959
0

0101000
+20 5 -14 5 *
Ed
 1.5e-07 1 1 0
1  4 0 0 1.5707963267949
2  5 5 0 0 1.5707963267949
2  6 3 0 0 1.5707963267949
0

0101000
+14 5 -19 5 *
Wi

0101100
-13 4 -12 4 +18 0 *
Fa
0  1.5e-07 4 0

0101000
+11 0 *
Ve
1.50000028041293e-07
23.110912703474 27.0000000034897 8
0 0

0101101
*
Ed
 1e-07 1 1 0
1  5 0 40.9558441227157 73.6396103067893
3  7 8CN 3 0 40.9558441227157 73.6396103067893
0

0101000
+14 5 -9 5 *
Ed
 1.50000028041293e-07 1 1 0
1  6 0 0 6.28318530717959
2  9 6 0 0 6.28318530717959
2  10 3 0 0 6.28318530717959
0

0101000
+9 5 -9 5 *
Wi

0101100
+8 4 +13 4 +17 4 +12 4 -8 4 -7 4 *
Fa
0  1e-07 3 4

0101000
+6 0 *
Wi

0101100
+7 4 *
Fa
0  1.50000007944109e-07 7 0

0101000
+4 0 *
Sh

0101100
+15 0 +10 0 +5 0 +3 0 *
So

0100000
+2 0 *

+1 0 