DBRep_DrawableShape

CASCADE Topology V1, (c) Matra-Datavision
Locations 5
1
             -1               0 -1.22464679914735e-16               0 
              0               1               0               0 
1.22464679914735e-16               0              -1               0 
1
              1               0               0              72 
              0               1               0             -18 
              0               0               1             144 
2  1 1 2 1 0
1
              1               0               0               0 
              0               1               0               0 
              0               0               1               0 
2  4 -1 0
Curve2ds 18
1 54 0 0 -1 
1 0 0 0 -1 
8 6.9445436500080886 60.944543650008093
1 -6.9445436500080913 -90 1 0 
8 6.9445436500080886 60.944543650008093
1 6.9445436500080913 13.889087300016183 1 0 
1 0 0 0 -1 
1 54 0 0 -1 
8 6.9445436500080886 60.944543650008093
1 -6.9445436500080913 -72 1 0 
8 6.9445436500080886 60.944543650008093
1 6.9445436500080913 13.889087300016183 1 0 
8 -19.091883092036785 57.275649276110357
1 19.091883092036785 -72 1 0 
8 -19.091883092036785 57.275649276110357
1 54.389087300016186 27.38908730001619 -0.70710678118654757 0.70710678118654757 
1 76.367532368147138 0 0 -1 
1 0 0 0 -1 
8 -19.091883092036785 57.275649276110357
1 19.091883092036785 -90 1 0 
8 -19.091883092036785 57.275649276110357
1 54.389087300016186 27.38908730001619 -0.70710678118654757 0.70710678118654757 
8 -33.944543650008093 20.055456349991907
1 13.889087300016183 33.944543650008086 0 -1 
8 -33.944543650008093 20.055456349991907
1 33.944543650008093 -90 1 0 
8 -33.944543650008093 20.055456349991907
1 33.944543650008093 -72 1 0 
8 -33.944543650008093 20.055456349991907
1 13.889087300016183 33.944543650008086 0 -1 
Curves 9
1 72 18 54 0 0 1 
1 11.055456349991909 18 144 1 0 0 
1 18 18 54 0 0 1 
1 11.055456349991909 18 126 1 0 0 
1 58.500000000000007 31.500000000000007 126 -0.70710678118654757 0.70710678118654757 0 
1 18 72 54 0 0 1 
1 58.500000000000007 31.500000000000007 144 -0.70710678118654757 0.70710678118654757 0 
1 18 38.055456349991907 144 0 -1 0 
1 18 38.055456349991907 126 0 -1 0 
Polygon3D 0
PolygonOnTriangulations 0
Surfaces 5
1 18 18 54 0 1 0 1 0 0 0 0 -1 
1 72 18 54 -0.70710678118654757 -0.70710678118654757 0 -0.70710678118654757 0.70710678118654757 0 -0 0 -1 
1 4.1109126999838175 4.1109126999838175 144 0 0 1 1 0 -0 -0 1 0 
1 18 72 54 1 0 -0 0 -1 0 0 -0 -1 
1 4.1109126999838175 4.1109126999838175 126 0 0 1 1 0 -0 -0 1 0 
Triangulations 0

TShapes 28
Ve
1.50000015888219e-07
72 18 126
0 0

0101101
*
Ve
1.50000015888219e-07
72 18 144
0 0

0101101
*
Ed
 1e-07 1 1 0
1  1 0 72 90
2  1 1 0 72 90
2  2 2 0 72 90
0

0101000
+28 5 -27 5 *
Ve
1.50000003552714e-07
18 18 144
0 0

0101101
*
Ed
 1.5e-07 1 1 0
1  2 0 6.94454365000809 60.9445436500081
2  3 1 4 6.94454365000809 60.9445436500081
2  4 3 0 6.94454365000809 60.9445436500081
0

0101000
+25 0 -27 0 *
Ve
1.50000003552714e-07
18 18 126
0 0

0101101
*
Ed
 1e-07 1 1 0
1  3 0 72 90
2  5 1 0 72 90
2  6 4 0 72 90
0

0101000
+23 5 -25 5 *
Ed
 1.5e-07 1 1 0
1  4 0 6.94454365000809 60.9445436500081
2  7 1 4 6.94454365000809 60.9445436500081
2  8 5 0 6.94454365000809 60.9445436500081
0

0101000
+23 0 -28 0 *
Wi

0101100
-26 4 +24 0 +22 4 -21 0 *
Fa
0  1e-07 1 4

0101000
+20 0 *
Ve
1.50000014210855e-07
18 72 126
0 0

0101101
*
Ed
 1.5e-07 1 1 0
1  5 0 -19.0918830920368 57.2756492761104
2  9 2 4 -19.0918830920368 57.2756492761104
2  10 5 0 -19.0918830920368 57.2756492761104
0

0101000
+28 0 -18 0 *
Ve
1.50000014210855e-07
18 72 144
0 0

0101101
*
Ed
 1e-07 1 1 0
1  6 0 72 90
2  11 2 0 72 90
2  12 4 0 72 90
0

0101000
+18 5 -16 5 *
Ed
 1.5e-07 1 1 0
1  7 0 -19.0918830920368 57.2756492761104
2  13 2 4 -19.0918830920368 57.2756492761104
2  14 3 0 -19.0918830920368 57.2756492761104
0

0101000
+27 0 -16 0 *
Wi

0101100
-17 0 -15 4 +14 0 +26 4 *
Fa
0  1e-07 2 4

0101000
+13 0 *
Ed
 1.5e-07 1 1 0
1  8 0 -33.9445436500081 20.0554563499919
2  15 3 0 -33.9445436500081 20.0554563499919
2  16 4 4 -33.9445436500081 20.0554563499919
0

0101000
+16 0 -25 0 *
Wi

0101100
+11 0 +14 0 +24 0 *
Fa
0  1e-07 3 0

0101000
+10 0 *
Ed
 1.5e-07 1 1 0
1  9 0 -33.9445436500081 20.0554563499919
2  17 4 4 -33.9445436500081 20.0554563499919
2  18 5 0 -33.9445436500081 20.0554563499919
0

0101000
+18 0 -23 0 *
Wi

0101100
-8 0 -22 4 +11 0 +15 4 *
Fa
0  1e-07 4 4

0101000
+7 0 *
Wi

0101100
+8 0 +17 0 +21 0 *
Fa
0  1e-07 5 0

0101000
+5 0 *
Sh

0101100
-19 0 -12 0 +9 0 -6 0 -4 0 *
So

0100000
+3 0 *
Co

1100000
+2 0 *

+1 3 