DBRep_DrawableShape

CASCADE Topology V1, (c) Matra-Datavision
Locations 5
1
             -1               0 -1.22464679914735e-16               0 
              0               1               0               0 
1.22464679914735e-16               0              -1               0 
1
              1               0               0              72 
              0               1               0             -18 
              0               0               1              90 
2  1 1 2 1 0
1
              1               0               0               0 
              0               1               0               0 
              0               0               1               0 
2  4 -1 0
Curve2ds 18
8 6.9445436500080886 60.944543650008093
1 -6.9445436500080913 -18 1 0 
8 6.9445436500080886 60.944543650008093
1 6.9445436500080913 13.889087300016183 1 0 
1 54 0 0 -1 
1 0 0 0 -1 
8 6.9445436500080886 60.944543650008093
1 -6.9445436500080913 -36 1 0 
8 6.9445436500080886 60.944543650008093
1 6.9445436500080913 13.889087300016183 1 0 
1 0 0 0 -1 
1 54 0 0 -1 
8 -33.944543650008093 20.055456349991907
1 13.889087300016183 33.944543650008086 0 -1 
8 -33.944543650008093 20.055456349991907
1 33.944543650008093 -18 1 0 
8 -19.091883092036785 57.275649276110357
1 54.389087300016186 27.38908730001619 -0.70710678118654757 0.70710678118654757 
8 -19.091883092036785 57.275649276110357
1 19.091883092036785 -18 1 0 
1 76.367532368147138 0 0 -1 
1 0 0 0 -1 
8 -19.091883092036785 57.275649276110357
1 19.091883092036785 -36 1 0 
8 -19.091883092036785 57.275649276110357
1 54.389087300016186 27.38908730001619 -0.70710678118654757 0.70710678118654757 
8 -33.944543650008093 20.055456349991907
1 13.889087300016183 33.944543650008086 0 -1 
8 -33.944543650008093 20.055456349991907
1 33.944543650008093 -36 1 0 
Curves 9
1 11.055456349991909 18 72 1 0 0 
1 72 18 54 0 0 1 
1 11.055456349991909 18 90 1 0 0 
1 18 18 54 0 0 1 
1 18 38.055456349991907 72 0 -1 0 
1 58.500000000000007 31.500000000000007 72 -0.70710678118654757 0.70710678118654757 0 
1 18 72 54 0 0 1 
1 58.500000000000007 31.500000000000007 90 -0.70710678118654757 0.70710678118654757 0 
1 18 38.055456349991907 90 0 -1 0 
Polygon3D 0
PolygonOnTriangulations 0
Surfaces 5
1 18 18 54 0 1 0 1 0 0 0 0 -1 
1 4.1109126999838175 4.1109126999838175 72 0 0 1 1 0 -0 -0 1 0 
1 72 18 54 -0.70710678118654757 -0.70710678118654757 0 -0.70710678118654757 0.70710678118654757 0 -0 0 -1 
1 4.1109126999838175 4.1109126999838175 90 0 0 1 1 0 -0 -0 1 0 
1 18 72 54 1 0 -0 0 -1 0 0 -0 -1 
Triangulations 0

TShapes 28
Ve
1.50000003552714e-07
18 18 72
0 0

0101101
*
Ve
1.50000015888219e-07
72 18 72
0 0

0101101
*
Ed
 1.5e-07 1 1 0
1  1 0 6.94454365000809 60.9445436500081
2  1 1 4 6.94454365000809 60.9445436500081
2  2 2 0 6.94454365000809 60.9445436500081
0

0101000
+28 0 -27 0 *
Ve
1.50000015888219e-07
72 18 90
0 0

0101101
*
Ed
 1e-07 1 1 0
1  2 0 18 36
2  3 1 0 18 36
2  4 3 0 18 36
0

0101000
+27 5 -25 5 *
Ve
1.50000003552714e-07
18 18 90
0 0

0101101
*
Ed
 1.5e-07 1 1 0
1  3 0 6.94454365000809 60.9445436500081
2  5 1 4 6.94454365000809 60.9445436500081
2  6 4 0 6.94454365000809 60.9445436500081
0

0101000
+23 0 -25 0 *
Ed
 1e-07 1 1 0
1  4 0 18 36
2  7 1 0 18 36
2  8 5 0 18 36
0

0101000
+28 5 -23 5 *
Wi

0101100
-26 0 -24 4 +22 0 +21 4 *
Fa
0  1e-07 1 4

0101000
+20 0 *
Ve
1.50000014210855e-07
18 72 72
0 0

0101101
*
Ed
 1.5e-07 1 1 0
1  5 0 -33.9445436500081 20.0554563499919
2  9 2 0 -33.9445436500081 20.0554563499919
2  10 5 4 -33.9445436500081 20.0554563499919
0

0101000
+18 0 -28 0 *
Ed
 1.5e-07 1 1 0
1  6 0 -19.0918830920368 57.2756492761104
2  11 2 0 -19.0918830920368 57.2756492761104
2  12 3 4 -19.0918830920368 57.2756492761104
0

0101000
+27 0 -18 0 *
Wi

0101100
+17 0 +16 0 +26 0 *
Fa
0  1e-07 2 0

0101000
+15 0 *
Ve
1.50000014210855e-07
18 72 90
0 0

0101101
*
Ed
 1e-07 1 1 0
1  7 0 18 36
2  13 3 0 18 36
2  14 5 0 18 36
0

0101000
+18 5 -13 5 *
Ed
 1.5e-07 1 1 0
1  8 0 -19.0918830920368 57.2756492761104
2  15 3 4 -19.0918830920368 57.2756492761104
2  16 4 0 -19.0918830920368 57.2756492761104
0

0101000
+25 0 -13 0 *
Wi

0101100
-16 0 -12 4 +11 0 +24 4 *
Fa
0  1e-07 3 4

0101000
+10 0 *
Ed
 1.5e-07 1 1 0
1  9 0 -33.9445436500081 20.0554563499919
2  17 4 0 -33.9445436500081 20.0554563499919
2  18 5 4 -33.9445436500081 20.0554563499919
0

0101000
+13 0 -23 0 *
Wi

0101100
+8 0 +11 0 +22 0 *
Fa
0  1e-07 4 0

0101000
+7 0 *
Wi

0101100
-17 0 -21 4 +8 0 +12 4 *
Fa
0  1e-07 5 4

0101000
+5 0 *
Sh

0101100
-19 0 -14 0 -9 0 +6 0 -4 0 *
So

0100000
+3 0 *
Co

1100000
+2 0 *

+1 3 