DBRep_DrawableShape

CASCADE Topology V1, (c) Matra-Datavision
Locations 5
1
             -1               0 -1.22464679914735e-16               0 
              0               1               0               0 
1.22464679914735e-16               0              -1               0 
1
              1               0               0              72 
              0               1               0 -14.1109126999843 
              0               0               1             162 
2  1 1 2 1 0
1
              1               0               0               0 
              0               1               0               0 
              0               0               1               0 
2  4 -1 0
Curve2ds 30
1 54 0 0 -1 
1 0 0 0 -1 
8 6.9445436500080886 60.944543650008093
1 -6.9445436500080913 -108 1 0 
8 6.9445436500080886 60.944543650008093
1 6.9445436500080913 13.889087300016183 1 0 
1 0 0 0 -1 
1 54 0 0 -1 
3 0 -100 1 0 -0 1 7.7781745930520225 5.5
7 0 0  7 14 3  3.9450112469130869 31.637467504308241  4.1120236797892655 32.298592079075263  4.2790361126648904 33.083974471597685  4.4460485455429293 33.963493222527177  4.6130609784161365 34.898542839880974  4.7800734112946301 35.845431113757513  4.9470858441701582 36.760856045795379  5.2811107099225145 38.45174573021508  5.4481231427986856 39.227209802986181  5.6151355756746497 39.894180319555744  5.7821480085509833 40.418904150574235  5.9491604414272317 40.776862443479331  6.1161728743034081 40.95584412271571  6.2831853071795862 40.95584412271571 
 3.9450112469130878 8 5.1140982770463372 6 6.2831853071795862 8
3 0 -100 1 0 -0 1 7.7781745930520225 5.5
7 0 0  7 14 3  0 40.95584412271571  0.16701243287617845 40.95584412271571  0.33402486575241142 40.776862443475693  0.50103729862843238 40.418904150606977  0.66804973150487967 39.894180319533916  0.8350621643808438 39.227209802995276  1.0020745972570713 38.45174573021508  1.3360994630094281 36.760856045795379  1.5031118958851835 35.845431113749328  1.6701243287623129 34.898542839891888  1.8371367616371117 33.963493222508987  2.0041491945145253 33.083974471603142  2.1711616273903203 32.298592079075263  2.3381740602664989 31.637467504308241 
 0 8 1.1690870301332492 6 2.3381740602664984 8
1 0 0 0 -1 
1 54 0 0 -1 
8 6.9445436500080886 60.944543650008093
1 -6.9445436500080913 -90 1 0 
8 6.9445436500080886 60.944543650008093
1 6.9445436500080913 13.889087300016183 1 0 
8 -19.091883092036785 57.275649276110357
1 19.091883092036785 -90 1 0 
8 -19.091883092036785 57.275649276110357
1 54.389087300016186 27.38908730001619 -0.70710678118654757 0.70710678118654757 
1 76.367532368147138 0 0 -1 
1 0 0 0 -1 
8 -19.091883092036785 57.275649276110357
1 19.091883092036785 -108 1 0 
8 -19.091883092036785 57.275649276110357
1 54.389087300016186 27.38908730001619 -0.70710678118654757 0.70710678118654757 
2 38.183766184073569 -100 -1 -0 -0 1 5.5
1 0 73.63961030678928 1 0 
8 -33.944543650008093 20.055456349991907
1 13.889087300016183 33.944543650008086 0 -1 
8 -33.944543650008093 20.055456349991907
1 33.944543650008093 -108 1 0 
8 -33.944543650008093 20.055456349991907
1 33.944543650008093 -90 1 0 
8 -33.944543650008093 20.055456349991907
1 13.889087300016183 33.944543650008086 0 -1 
3 54 -100 -1 0 -0 -1 7.7781745930520225 5.5
7 0 0  8 23 4  0.80341859332329435 31.637467504308237  0.94955447208995036 32.215951507229384  1.0956903508565241 32.887628873467762  1.2418262296229656 33.633673690924411  1.3879621083900702 34.431018031204076  1.5340979871570468 35.253625942588542  1.6802338659232845 36.074287346765615  1.826369744689887 36.866536651071613  2.1917094416065273 38.715947243405658  2.4109132597527605 39.707502347351692  2.6301170779115637 40.499715412195656  2.8493208960499032 41.023457801522454  3.0685247142027947 41.234140816377476  3.2877285323547767 41.121332209586399  3.5069323505064327 40.707930776585449  3.9453399868064007 39.377362235685716  4.1645438049558834 38.460194430237607  4.3837476230764878 37.339863130298909  4.6029514412439312 36.090864641679218  4.8221552593749948 34.806159808998927  5.0413590775578996 33.582605232018977  5.2605628957063066 32.505193508689956  5.4797667138562911 31.637467504308244 
 3.9450112469130882 9 5.1140982770463346 7 6.8677288222462094 7 8.6213593674460842 9
1 6.2831853071795862 -0 0 1 
1 0 -0 0 1 
Curves 15
1 72 18 54 0 0 1 
1 11.055456349991909 18 162 1 0 0 
1 18 18 54 0 0 1 
3 18 18 154 0 1 0 1 -0 0 0 0 -1 7.7781745930520225 5.5
3 18 18 154 0 1 0 1 -0 0 0 0 -1 7.7781745930520225 5.5
1 18 18 54 0 0 1 
1 11.055456349991909 18 144 1 0 0 
1 58.500000000000007 31.500000000000007 144 -0.70710678118654757 0.70710678118654757 0 
1 18 72 54 0 0 1 
1 58.500000000000007 31.500000000000007 162 -0.70710678118654757 0.70710678118654757 0 
2 44.999999999999993 44.999999999999993 154 0.70710678118654757 0.70710678118654757 0 0.70710678118654757 -0.70710678118654757 0 0 0 -1 5.5
1 18 38.055456349991907 162 0 -1 0 
1 18 38.055456349991907 144 0 -1 0 
3 18 18 154 1 0 -0 0 1 0 0 -0 1 7.7781745930520225 5.5
1 -3.1819805153394629 -10.960155108391486 154 0.70710678118654757 0.70710678118654757 0 
Polygon3D 0
PolygonOnTriangulations 0
Surfaces 6
1 18 18 54 0 1 0 1 0 0 0 0 -1 
1 72 18 54 -0.70710678118654757 -0.70710678118654757 0 -0.70710678118654757 0.70710678118654757 0 -0 0 -1 
1 4.1109126999838175 4.1109126999838175 162 0 0 1 1 0 -0 -0 1 0 
1 18 72 54 1 0 -0 0 -1 0 0 -0 -1 
2 -7.0710678118654746 -7.0710678118654746 154 0.70710678118654757 0.70710678118654757 0 0.70710678118654757 -0.70710678118654757 0 0 0 -1 5.5
1 4.1109126999838175 4.1109126999838175 144 0 0 1 1 0 -0 -0 1 0 
Triangulations 0

TShapes 41
Ve
1.50000015888219e-07
72 18 144
0 0

0101101
*
Ve
1.50000015888219e-07
72 18 162
0 0

0101101
*
Ed
 1e-07 1 1 0
1  1 0 90 108
2  1 1 0 90 108
2  2 2 0 90 108
0

0101000
+41 5 -40 5 *
Ve
1.50000003552714e-07
18 18 162
0 0

0101101
*
Ed
 1.5e-07 1 1 0
1  2 0 6.94454365000809 60.9445436500081
2  3 1 4 6.94454365000809 60.9445436500081
2  4 3 0 6.94454365000809 60.9445436500081
0

0101000
+38 0 -40 0 *
Ve
1.00000004e-07
18 18 159.5
0 0

0101101
*
Ed
 1e-07 1 1 0
1  3 0 105.5 108
2  5 1 0 105.5 108
2  6 4 0 105.5 108
0

0101000
+36 5 -38 5 *
Ve
1.00000008e-07
25.778174593052 18 154
0 0

0101101
*
Ed
 1e-07 1 1 0
1  4 0 4.71238898038469 6.28318530717959
2  7 1 0 4.71238898038469 6.28318530717959
2  8 5 0 4.71238898038469 6.28318530717959
0

0101000
+36 5 -34 5 *
Ve
1e-07
18 18 148.5
0 0

0101101
*
Ed
 1e-07 1 1 0
1  5 0 0 1.5707963267949
2  9 1 0 0 1.5707963267949
2  10 5 0 0 1.5707963267949
0

0101000
+34 5 -32 5 *
Ve
1.50000003552714e-07
18 18 144
0 0

0101101
*
Ed
 1e-07 1 1 0
1  6 0 90 94.5
2  11 1 0 90 94.5
2  12 4 0 90 94.5
0

0101000
+30 5 -32 5 *
Ed
 1.5e-07 1 1 0
1  7 0 6.94454365000809 60.9445436500081
2  13 1 4 6.94454365000809 60.9445436500081
2  14 6 0 6.94454365000809 60.9445436500081
0

0101000
+30 0 -41 0 *
Wi

0101100
-39 4 +37 0 +35 4 -33 4 -31 4 +29 4 -28 0 *
Fa
0  1e-07 1 4

0101000
+27 0 *
Ve
1.50000014210855e-07
18 72 144
0 0

0101101
*
Ed
 1.5e-07 1 1 0
1  8 0 -19.0918830920368 57.2756492761104
2  15 2 4 -19.0918830920368 57.2756492761104
2  16 6 0 -19.0918830920368 57.2756492761104
0

0101000
+41 0 -25 0 *
Ve
1.50000014210855e-07
18 72 162
0 0

0101101
*
Ed
 1e-07 1 1 0
1  9 0 90 108
2  17 2 0 90 108
2  18 4 0 90 108
0

0101000
+25 5 -23 5 *
Ed
 1.5e-07 1 1 0
1  10 0 -19.0918830920368 57.2756492761104
2  19 2 4 -19.0918830920368 57.2756492761104
2  20 3 0 -19.0918830920368 57.2756492761104
0

0101000
+40 0 -23 0 *
Wi

0101100
-24 0 -22 4 +21 0 +39 4 *
Ve
1.0000002e-07
48.889087296526 41.110912703474 154
0 0

0101101
*
Ed
 1e-07 1 1 0
1  11 0 0 6.28318530717959
2  21 2 0 0 6.28318530717959
2  22 5 0 0 6.28318530717959
0

0101100
+19 5 -19 5 *
Wi

0101100
+18 4 *
Fa
0  1e-07 2 4

0101000
+20 0 +17 0 *
Ed
 1.5e-07 1 1 0
1  12 0 -33.9445436500081 20.0554563499919
2  23 3 0 -33.9445436500081 20.0554563499919
2  24 4 4 -33.9445436500081 20.0554563499919
0

0101000
+23 0 -38 0 *
Wi

0101100
+15 0 +21 0 +37 0 *
Fa
0  1e-07 3 0

0101000
+14 0 *
Ed
 1.5e-07 1 1 0
1  13 0 -33.9445436500081 20.0554563499919
2  25 4 4 -33.9445436500081 20.0554563499919
2  26 6 0 -33.9445436500081 20.0554563499919
0

0101000
+25 0 -30 0 *
Ed
 1e-07 1 1 0
1  14 0 4.71238898038469 7.85398163397448
2  27 4 0 4.71238898038469 7.85398163397448
2  28 5 0 4.71238898038469 7.85398163397448
0

0101000
+32 5 -36 5 *
Wi

0101100
-12 0 -29 4 -11 4 -35 4 +15 0 +22 4 *
Fa
0  1e-07 4 4

0101000
+10 0 *
Ed
 1e-07 1 1 0
1  15 0 40.9558441227157 73.6396103067893
3  29 30CN 5 0 40.9558441227157 73.6396103067893
0

0101000
+34 5 -19 5 *
Wi

0101100
-18 0 +8 0 +33 0 +11 0 +31 0 -8 0 *
Fa
0  1e-07 5 0

0111000
+7 0 *
Wi

0101100
+12 0 +24 0 +28 0 *
Fa
0  1e-07 6 0

0101000
+5 0 *
Sh

0101100
-26 0 -16 0 +13 0 -9 0 -6 4 -4 0 *
So

0100000
+3 0 *
Co

1100000
+2 0 *

+1 3 