DBRep_DrawableShape

CASCADE Topology V1, (c) Matra-Datavision
Locations 12
1
             -1               0 -1.22464679914735e-16               0 
              0               1               0               0 
1.22464679914735e-16               0              -1               0 
1
              1               0               0 585.889087300018 
              0               1               0 -14.1109126999824 
              0               0               1             108 
1
              1               0               0               0 
              0               1               0               0 
              0               0               1             -18 
1
              1               0               0               0 
              0               1               0               0 
              0               0               1               1 
1
              1               0               0               0 
              0               1               0               0 
              0               0               1              -1 
2  1 1 2 1 3 1 4 1 5 1 0
2  5 -1 4 -1 3 -1 2 -1 1 -1 0
1
              1               0               0               0 
              0               1               0               0 
              0               0               1              18 
2  1 1 2 1 3 1 4 1 5 1 8 1 0
2  8 -1 5 -1 4 -1 3 -1 2 -1 1 -1 0
2  1 1 2 1 3 1 4 1 0
2  5 1 8 1 0
Curve2ds 18
1 4.7992313045179443e-31 3.9188697572715303e-15 -1.2246467991473532e-16 -1 
1 54 0 0 -1 
1 54 -2.6942229581241772e-15 -1.2246467991473532e-16 -1 
1 -2.5121479338940391e-15 -1.3479462357789042e-14 8.6595605623549329e-17 -1 
1 32 0 1 0 
8 -32 22
1 32 13.88908730001771 -1 0 
1 31.999999999999996 -18 1 0 
8 -32 22
1 32 13.88908730001771 -1 0 
1 76.367532368147124 -6.8663696423933366e-15 8.6595605623549329e-17 -1 
1 0 0 0 -1 
1 -8.4460678130999955 4.9303806576313238e-31 1 -2.4651903288156613e-32 
8 8.4460678130999902 84.813600181247125
1 4.0277281749955591 7.91681547501328 0.70710678118654757 0.70710678118654757 
1 -8.4460678130999938 -18 1 -2.4651903288156613e-32 
8 8.4460678130999902 84.813600181247125
1 4.0277281749955591 7.91681547501328 0.70710678118654757 0.70710678118654757 
1 33.944543650008853 0 1 0 
8 -33.944543650008853 20.055456349991204
1 64 33.944543650008853 0 -1 
1 33.944543650008853 -18 1 0 
8 -33.944543650008853 20.055456349991204
1 64 33.944543650008853 0 -1 
Curves 9
1 3.8890873000175361 3.8890873000176143 0 0 0 1 
1 57.889087300017536 3.8890873000176143 0 0 0 1 
1 550 18 90 -1 0 0 
1 550 18 90 -1 0 0 
1 3.8890873000175361 57.889087300017614 0 0 0 1 
1 522.02772817499556 12.02772817499557 90 0.70710678118654757 0.70710678118654757 -0 
1 522.02772817499556 12.02772817499557 90 0.70710678118654757 0.70710678118654757 -0 
1 582 38.055456349991147 90 0 -1 0 
1 582 38.055456349991147 90 0 -1 0 
Polygon3D 0
PolygonOnTriangulations 0
Surfaces 5
1 3.8890873000175361 3.8890873000176143 3.9188697572715303e-15 -0 1 0 1 0 -1.2246467991473532e-16 -1.2246467991473532e-16 0 -1 
1 3.8890873000175361 57.889087300017614 0 1 -0 0 -0 -1 0 0 -0 -1 
1 57.889087300017536 3.8890873000176214 -1.3479462357789042e-14 -0.70710678118654757 -0.70710678118654757 0 -0.70710678118654757 0.70710678118654757 8.6595605623549329e-17 -6.1232339957367648e-17 6.1232339957367648e-17 -1 
1 518 4.1109126999822898 90 0 0 1 1 0 -0 -0 1 0 
1 518 4.1109126999822898 90 0 0 1 1 0 -0 -0 1 0 
Triangulations 0

TShapes 27
Ve
1.50000056843419e-07
3.88908730001754 3.88908730001761 0
0 0

0101101
*
Ve
1.50000056843419e-07
3.88908730001754 3.88908730001761 18
0 0

0101101
*
Ed
 1.50000056843419e-07 1 1 0
1  1 0 0 18
2  1 1 0 0 18
2  2 2 0 0 18
0

0101000
+27 0 -26 0 *
Ve
1.50000020097183e-07
57.8890873000175 3.88908730001761 0
0 0

0101101
*
Ve
1.50000020097183e-07
57.8890873000175 3.88908730001761 18
0 0

0101101
*
Ed
 1.50000020097183e-07 1 1 0
1  2 0 0 18
2  3 1 0 0 18
2  4 3 0 0 18
0

0101000
+24 0 -23 0 *
Ed
 1.5e-07 1 1 0
1  3 0 -32 22
2  5 1 7 -32 22
2  6 4 0 -32 22
0

0101000
+27 7 -24 7 *
Ed
 1.5e-07 1 1 0
1  4 0 -32 22
2  7 1 10 -32 22
2  8 5 0 -32 22
0

0101000
+26 10 -23 10 *
Wi

0101100
+25 0 -22 0 -21 6 +20 9 *
Fa
0  1.5e-07 1 0

0101000
+19 0 *
Ve
1.50000020097183e-07
3.88908730001754 57.8890873000176 0
0 0

0101101
*
Ve
1.50000020097183e-07
3.88908730001754 57.8890873000176 18
0 0

0101101
*
Ed
 1.50000020097183e-07 1 1 0
1  5 0 0 18
2  9 3 0 0 18
2  10 2 0 0 18
0

0101000
+17 0 -16 0 *
Ed
 1.50000020097183e-07 1 1 0
1  6 0 8.44606781309999 84.8136001812471
2  11 3 7 8.44606781309999 84.8136001812471
2  12 4 0 8.44606781309999 84.8136001812471
0

0101000
+24 7 -17 7 *
Ed
 1.50000020097183e-07 1 1 0
1  7 0 8.44606781309999 84.8136001812471
2  13 3 10 8.44606781309999 84.8136001812471
2  14 5 0 8.44606781309999 84.8136001812471
0

0101000
+23 10 -16 10 *
Wi

0101100
+22 0 -15 0 -14 6 +13 9 *
Fa
0  1.50000020097183e-07 3 0

0101000
+12 0 *
Ed
 1.5e-07 1 1 0
1  8 0 -33.9445436500089 20.0554563499912
2  15 2 7 -33.9445436500089 20.0554563499912
2  16 4 0 -33.9445436500089 20.0554563499912
0

0101000
+17 7 -27 7 *
Ed
 1.5e-07 1 1 0
1  9 0 -33.9445436500089 20.0554563499912
2  17 2 10 -33.9445436500089 20.0554563499912
2  18 5 0 -33.9445436500089 20.0554563499912
0

0101000
+16 10 -26 10 *
Wi

0101100
+15 0 -25 0 -10 6 +9 9 *
Fa
0  1.5e-07 2 0

0101000
+8 0 *
Wi

0101100
-21 11 -14 11 -10 11 *
Fa
0  1.5e-07 4 11

0101000
+6 0 *
Wi

0101100
-20 11 -13 11 -9 11 *
Fa
0  1.5e-07 5 11

0101000
+4 0 *
Sh

0101100
-18 0 -11 0 -7 0 +5 5 -3 12 *
So

1100000
+2 0 *

+1 0 