DBRep_DrawableShape

CASCADE Topology V1, (c) Matra-Datavision
Locations 5
1
              1               0               0               0 
              0               1               0               0 
              0               0               1               0 
1
             -1               0 -1.22464679914735e-16               0 
              0               1               0               0 
1.22464679914735e-16               0              -1               0 
1
              1               0               0 585.889087300018 
              0               1               0 -14.1109126999823 
              0               0               1             162 
2  1 1 2 1 3 1 0
2  3 -1 2 -1 1 -1 0
Curve2ds 10
3 0 -100 1 0 -0 1 7.7781745930520225 5.5
7 0 0  8 23 4  5.4797667138555886 31.637467504311019  5.3336308350889761 32.215951507232376  5.1874949563219017 32.887628873471243  5.0413590775565353 33.633673690928049  4.8952231987893811 34.431018031200438  4.749087320021971 35.253625942583767  4.6029514412562289 36.074287346770234  4.4568155624893073 36.866536651073666  4.0914758655727761 38.715947243406887  3.8722720474197558 39.707502347293484  3.6530682292777783 40.499715412312071  3.433864411090326 41.023457801522454  3.2146605929865473 41.234140816290164  2.9954567748186491 41.121332209557295  2.7762529566732597 40.707930776585556  2.3378453203734222 39.377362235686576  2.1186415022207257 38.460194430153933  1.8994376840801124 37.339863130677259  1.6802338659244924 36.09086464138818  1.4610300477761484 34.806159809435485  1.2418262296221201 33.582605231946218  1.0226224114739169 32.505193508693061  0.80341859332399823 31.637467504311019 
 3.9450112469137859 9 5.1140982770466881 7 6.8677288222460362 7 8.6213593674453861 9
1 6.2831853071795862 -0 0 1 
1 0 -0 0 1 
3 54.000000000000057 -100 -1 0 -0 -1 7.7781745930520225 5.5
7 0 0  7 14 3  6.2831853071795862 40.955844122715632  6.1161728743034578 40.955844122715632  5.9491604414271464 40.776862443475693  5.7821480085517791 40.418904150606977  5.6151355756744792 39.89418031954483  5.4481231427991119 39.227209802991638  5.281110709922813 38.45174573021643  4.9470858441705561 36.760856045797482  4.7800734112940617 35.845431113752056  4.613060978418865 34.898542839895526  4.4460485455413377 33.963493222508987  4.2790361126664251 33.083974471604961  4.1120236797899121 32.298592079078226  3.9450112469137837 31.637467504310962 
 0 8 1.1690870301329013 6 2.3381740602658025 8
3 54.000000000000057 -100 -1 0 -0 -1 7.7781745930520225 5.5
7 0 0  7 14 3  2.3381740602658025 31.637467504310962  2.1711616273896741 32.298592079078226  2.0041491945133885 33.083974471593137  1.8371367616380212 33.963493222541729  1.6701243287609486 34.898542839855509  1.5031118958854677 35.845431113764789  1.3360994630090308 36.760856045797482  1.0020745972567733 38.45174573021643  0.83506216438067327 39.227209802991638  0.66804973150459546 39.89418031956302  0.50103729862837554 40.418904150592425  0.33402486575224088 40.776862443475693  0.16701243287612882 40.955844122715632  0 40.955844122715632 
 3.9450112469137837 8 5.1140982770466845 6 6.2831853071795862 8
2 38.183766184073562 -100 1 0 -0 1 5.5
1 0 73.639610306789251 1 0 
Curves 6
3 582 18 154 0 -1 0 -1 0 0 -0 -0 -1 7.7781745930520225 5.5
1 3.8890873000176498 3.8890873000177102 2.8421709430404007e-14 0 0 1 
1 610.9601551083914 -3.1819805153394629 154 -0.70710678118654757 0.70710678118654757 0 
3 582 17.99999999999994 154 1 0 -0 0 1 0 0 -0 1 7.7781745930520225 5.5
3 582 17.99999999999994 154 1 0 -0 0 1 0 0 -0 1 7.7781745930520225 5.5
2 555 44.999999999999993 154 -0.70710678118654757 0.70710678118654757 0 0.70710678118654757 0.70710678118654757 0 0 0 -1 5.5
Polygon3D 0
PolygonOnTriangulations 0
Surfaces 7
1 3.8890873000176498 3.8890873000177102 3.9188697572715303e-15 -0 1 0 1 0 -1.2246467991473532e-16 -1.2246467991473532e-16 0 -1 
1 582 18 54 0 -1 0 -1 0 0 -0 -0 -1 
2 607.07106781186542 -7.0710678118654746 154 -0.70710678118654757 0.70710678118654757 0 0.70710678118654757 0.70710678118654757 0 0 0 -1 5.5
1 582 72 54 1 0 -0 0 -1 0 0 -0 -1 
1 528 18 54 -0.70710678118654757 0.70710678118654757 0 0.70710678118654757 0.70710678118654757 0 0 0 -1 
1 3.8890873000176498 57.889087300017707 2.8421709430404007e-14 1 -0 0 -0 -1 0 0 -0 -1 
1 57.88908730001765 3.8890873000177173 7.3139235741296065e-16 -0.70710678118654757 -0.70710678118654757 0 -0.70710678118654757 0.70710678118654757 8.6595605623549329e-17 -6.1232339957367648e-17 6.1232339957367648e-17 -1 
Triangulations 0

TShapes 20
Ve
1.50000056843419e-07
3.88908730001765 3.88908730001771 2.49999999999474
0 0

0101101
*
Ve
1.50000056843419e-07
3.88908730001765 3.88908730001771 13.5000000000053
0 0

0101101
*
Ed
 1.5e-07 1 1 0
1  1 0 4.71238898038469 7.85398163397448
2  1 2 0 4.71238898038469 7.85398163397448
2  2 3 0 4.71238898038469 7.85398163397448
0

0101000
+20 5 -19 5 *
Ed
 1.50000056843419e-07 1 1 0
1  2 0 2.49999999999471 13.5000000000053
0

0101000
+20 0 -19 0 *
Wi

0101100
-18 4 +17 0 *
Fa
0  1.5e-07 1 0

0101000
+16 0 *
Ve
1.50000000888178e-07
3.88908730001765 11.6672618930696 8.00000000000003
0 0

0101101
*
Ve
1.50000040194367e-07
27.0000000034917 34.7781745965437 8
0 0

0101101
*
Ed
 1e-07 1 1 0
1  3 0 40.9558441227156 73.6396103067892
3  3 4CN 3 0 40.9558441227156 73.6396103067892
0

0101000
+14 5 -13 5 *
Ed
 1.50000000888178e-07 1 1 0
1  4 0 0 1.5707963267949
2  5 4 0 0 1.5707963267949
2  6 3 0 0 1.5707963267949
0

0101000
+14 5 -20 5 *
Ed
 1.50000000888178e-07 1 1 0
1  5 0 4.71238898038469 6.28318530717959
2  7 4 0 4.71238898038469 6.28318530717959
2  8 3 0 4.71238898038469 6.28318530717959
0

0101000
+19 5 -14 5 *
Ed
 1.50000030145775e-07 1 1 0
1  6 0 0 6.28318530717959
2  9 5 0 0 6.28318530717959
2  10 3 0 0 6.28318530717959
0

0101000
+13 5 -13 5 *
Wi

0101100
+12 4 -11 4 -18 4 -10 4 -12 4 -9 4 *
Fa
0  1e-07 3 4

0101000
+8 0 *
Wi

0101100
-17 0 -10 4 -11 4 *
Fa
0  1.5e-07 6 0

0101000
+6 0 *
Wi

0101100
-9 4 *
Fa
0  1.50000020097183e-07 7 0

0101000
+4 0 *
Sh

0101100
-15 0 +7 0 -5 0 -3 0 *
So

0100000
+2 0 *

+1 0 