DBRep_DrawableShape

CASCADE Topology V1, (c) Matra-Datavision
Locations 7
1
              1               0               0               0 
              0               1               0               0 
              0               0               1              -1 
1
             -1               0 -1.22464679914735e-16               0 
              0               1               0               0 
1.22464679914735e-16               0              -1               0 
1
              1               0               0             582 
              0               1               0 -17.9999999999999 
              0               0               1             144 
1
              1               0               0               0 
              0               1               0               0 
              0               0               1              -0 
1
              1               0               0               0 
              0               1               0               0 
              0               0               1               1 
2  2 1 3 1 4 1 5 1 0
2  5 -1 4 -1 3 -1 2 -1 0
Curve2ds 3
8 -32 22
1 32 13.88908730001771 -1 0 
8 8.4460678130999902 84.813600181247125
1 4.0277281749955591 7.91681547501328 0.70710678118654757 0.70710678118654757 
8 -33.944543650008853 20.055456349991204
1 64 33.944543650008853 0 -1 
Curves 3
1 550 18 144 -1 0 0 
1 522.02772817499556 12.02772817499557 144 0.70710678118654757 0.70710678118654757 -0 
1 582 38.055456349991147 144 0 -1 0 
Polygon3D 0
PolygonOnTriangulations 0
Surfaces 1
1 518 4.1109126999822898 144 0 0 1 1 0 -0 -0 1 0 
Triangulations 0

TShapes 7
Ve
1.50000071054274e-07
0 5.6843418860808e-14 1.00000000000001
0 0

0101101
*
Ve
1.50000028421709e-07
54 5.6843418860808e-14 1
0 0

0101101
*
Ed
 1.50000028421709e-07 1 1 0
1  1 0 -32 22
2  1 1 0 -32 22
0

0101000
+7 7 -6 7 *
Ve
1.50000028421709e-07
0 54.0000000000001 1.00000000000001
0 0

0101101
*
Ed
 1.50000028421709e-07 1 1 0
1  2 0 8.44606781309999 84.8136001812471
2  2 1 0 8.44606781309999 84.8136001812471
0

0101000
+6 7 -4 7 *
Ed
 1.50000028421709e-07 1 1 0
1  3 0 -33.9445436500089 20.0554563499912
2  3 1 0 -33.9445436500089 20.0554563499912
0

0101000
+4 7 -7 7 *
Wi

0101100
-5 6 -3 6 -2 6 *

-1 1 