DBRep_DrawableShape

CASCADE Topology V1, (c) Matra-Datavision
Locations 0
Curve2ds 0
Curves 3
1 35.889087300017536 3.8890873000176143 -8.7193960547001244e-15 1 0 0 
1 63.861359125021977 -2.0831845249868159 -8.7193960547001244e-15 -0.70710678118654757 0.70710678118654757 0 
1 3.8890873000175361 23.944543650008757 -8.7193960547001244e-15 0 -1 -0 
Polygon3D 0
PolygonOnTriangulations 0
Surfaces 0
Triangulations 0

TShapes 7
Ve
1e-07
3.8890873000176 3.88908730001761 -8.71939605470012e-15
0 0

0101101
*
Ve
1e-07
57.8890873000175 3.88908730001761 -8.71939605470012e-15
0 0

0101101
*
Ed
 1e-07 1 1 0
1  1 0 -31.9999999999999 22
0

0101000
+7 0 -6 0 *
Ve
1e-07
3.88908730001752 57.8890873000176 -8.71939605470012e-15
0 0

0101101
*
Ed
 1e-07 1 1 0
1  2 0 8.44606781309999 84.8136001812471
0

0101000
+6 0 -4 0 *
Ed
 1e-07 1 1 0
1  3 0 -33.9445436500089 20.0554563499912
0

0101000
+4 0 -7 0 *
Wi

0101100
+5 0 +3 0 +2 0 *

+1 0 