DBRep_DrawableShape

CASCADE Topology V1, (c) Matra-Datavision
Locations 0
Curve2ds 0
Curves 3
1 32 5.6843418860808015e-14 5.4914586605018778e-15 1 0 0 
1 59.972271825004441 -5.9722718250043734 5.4914586605018778e-15 -0.70710678118654757 0.70710678118654757 0 
1 0 20.0554563499912 5.4914586605018778e-15 0 -1 -0 
Polygon3D 0
PolygonOnTriangulations 0
Surfaces 0
Triangulations 0

TShapes 7
Ve
1e-07
6.03961325396085e-14 5.6843418860808e-14 5.49145866050188e-15
0 0

0101101
*
Ve
1e-07
54 5.6843418860808e-14 5.49145866050188e-15
0 0

0101101
*
Ed
 1e-07 1 1 0
1  1 0 -31.9999999999999 22
0

0101000
+7 0 -6 0 *
Ve
1e-07
-1.4210854715202e-14 54.0000000000001 5.49145866050188e-15
0 0

0101101
*
Ed
 1e-07 1 1 0
1  2 0 8.44606781309999 84.8136001812471
0

0101000
+6 0 -4 0 *
Ed
 1e-07 1 1 0
1  3 0 -33.9445436500089 20.0554563499912
0

0101000
+4 0 -7 0 *
Wi

0101100
+5 0 +3 0 +2 0 *

+1 0 