DBRep_DrawableShape

CASCADE Topology V1, (c) Matra-Datavision
Locations 15
1
              1               0               0               0 
              0               1               0               0 
              0               0               1               0 
1
             -1               0 -1.22464679914735e-16               0 
              0               1               0               0 
1.22464679914735e-16               0              -1               0 
1
              1               0               0 72.0000000000001 
              0               1               0         -1236.1 
              0               0               1             144 
2  1 1 2 1 3 1 0
2  3 -1 2 -1 1 -1 0
1
              1               0               0               0 
              0               1               0               0 
              0               0               1              -1 
1
              1               0               0               0 
              0               1               0               0 
              0               0               1              18 
2  6 1 7 1 0
1
              1               0               0               0 
              0               1               0               0 
              0               0               1              -0 
1
              1               0               0               0 
              0               1               0               0 
              0               0               1               1 
2  2 1 3 1 9 1 10 1 0
2  7 -1 6 -1 0
2  2 1 3 1 0
2  3 -1 2 -1 0
2  2 1 3 1 9 1 10 1 6 1 7 1 0
Curve2ds 13
3 5.6840000000000001e-14 -86 1 0 -0 1 7.7781745930520225 5.5
7 0 0  8 23 4  5.4797667138574599 31.6374675043038  5.333630835090732 32.215951507224574  5.1874949563247243 32.887628873463136  5.0413590775560237 33.633673690915884  4.8952231987909727 34.431018031194981  4.7490873200256658 35.253625942581948  4.6029514412564954 36.07428734676067  4.4568155624903572 36.866536651068287  4.0914758655735346 38.715947243403726  3.872272047426577 39.707502347417176  3.6530682292614074 40.499715411759098  3.4338644111358008 41.023457802075427  3.2146605929574434 41.234140815737192  2.9954567748259251 41.121332209651882  2.7762529566729626 40.7079307765853  2.337845320372776 39.37736223568433  2.1186415022236815 38.460194430153933  1.8994376840601035 37.339863130633603  1.6802338659363159 36.090864641242661  1.461030047764325 34.806159809333622  1.2418262296239391 33.582605231931666  1.02262241147222 32.505193508684968  0.80341859332212684 31.6374675043038 
 3.9450112469119238 9 5.1140982770457599 7 6.8677288222465034 7 8.6213593674472477 9
1 6.9445436500088693 64 1 0 
2 38.183766184073548 -86 1 0 -0 1 5.5
1 0 73.639610306789351 1 0 
8 35.455843517777687 73.639610906789358
1 5.4688453650530677 5.2180482157382357e-14 0 1 
8 35.455843517777687 73.639610906789358
1 -13.851250074855564 86.401798248857631 0.70710678118654757 -0.70710678118654757 
3 54 -86 -1 0 -0 -1 7.7781745930520225 5.5
7 0 0  7 14 3  6.2831853071795862 40.955844122715689  6.1161728743035892 40.955844122715689  5.9491604414277433 40.776862443482969  5.782148008551097 40.418904150596063  5.615135575676014 39.894180319559382  5.4481231427994246 39.227209802991638  5.2811107099236301 38.45174573022026  4.9470858441716361 36.760856045803315  4.7800734112957102 35.845431113760242  4.6130609784195471 34.898542839902802  4.4460485455431566 33.963493222505349  4.2790361126676757 33.083974471612237  4.112023679791637 32.298592079086276  3.9450112469156404 31.637467504318352 
 0 8 1.1690870301319769 6 2.3381740602639538 8
8 35.45584351777768 73.639610906789358
1 3.9559325957163112 -5.2180482157382357e-14 0 1 
8 35.45584351777768 73.639610906789358
1 -8.5127109488399082 91.740337374873434 0.70710678118654757 -0.70710678118654757 
1 34.91681547501328 31.027728174995445 -0.70710678118654757 -0.70710678118654757 
1 13.889087300017739 5 0 1 
Curves 9
3 18.000000000000057 1290.0999999999999 122 0 1 0 1 -0 0 0 0 -1 7.7781745930520225 5.5
1 60.94454365000891 54 1 -1 0 1.2246467991473532e-16 
1 54.000000000000043 54 0 0 0 1 
2 45.000000000000036 1263.0999999999999 122 0.70710678118654757 -0.70710678118654757 0 -0.70710678118654757 -0.70710678118654757 0 0 -0 -1 5.5
1 -9.7403373748733024 1312.5017982488575 126 0.70710678118654757 -0.70710678118654757 0 
3 18 1290.0999999999999 122 -1 0 0 0 -1 0 0 0 1 7.7781745930520225 5.5
1 -4.4017982488576468 1317.8403373748733 126 0.70710678118654757 -0.70710678118654757 0 
1 32.972271825004505 21.027728174995445 1 0.70710678118654757 -0.70710678118654757 -8.6595605623549341e-17 
1 54.000000000000043 -5 1 0 1 0 
Polygon3D 0
PolygonOnTriangulations 0
Surfaces 10
1 54.000000000000043 54 8.5046131525224368e-16 0 -1 0 -1 0 1.2246467991473532e-16 -1.2246467991473532e-16 -0 -1 
1 18 1290.0999999999999 36 0 1 0 1 0 0 0 0 -1 
2 -7.0710678118654746 1315.1710678118654 122 0.70710678118654757 -0.70710678118654757 0 -0.70710678118654757 -0.70710678118654757 0 0 -0 -1 5.5
1 4.1109126999822614 1226.0999999999999 144 0 0 1 1 0 -0 -0 1 0 
1 72 1290.0999999999999 36 0.70710678118654757 -0.70710678118654757 0 -0.70710678118654757 -0.70710678118654757 0 0 -0 -1 
1 4.1109126999822614 1226.0999999999999 126 0 0 1 1 0 -0 -0 1 0 
1 18 1236.0999999999999 36 -1 0 0 0 1 0 0 0 -1 
1 4.1109126999822614 1226.0999999999999 126 0 0 1 1 0 -0 -0 1 0 
1 54.000000000000043 0 0 -1 0 0 0 1 0 0 0 -1 
1 -7.1054273576010019e-15 53.999999999999957 4.0379387151108236e-15 0.70710678118654757 0.70710678118654757 -0 0.70710678118654757 -0.70710678118654757 -8.6595605623549329e-17 -6.1232339957367648e-17 6.1232339957367648e-17 -1 
Triangulations 0

TShapes 27
Ve
1.95374462004734e-07
54 54 16.5
0 0

0101101
*
Ve
1.50000060396133e-07
48.6614608739843 54 18
0 0

0101101
*
Ed
 1e-07 1 1 0
1  1 0 4.71238898038469 5.46884536505306
2  1 2 0 4.71238898038469 5.46884536505306
2  2 3 0 4.71238898038469 5.46884536505306
0

0101000
+27 5 -26 5 *
Ve
1.50000056843419e-07
54 54 1
0 0

0101101
*
Ed
 1.50000056843419e-07 1 1 0
1  2 0 6.94454365000887 12.2830827760246
2  3 4 11 6.94454365000887 12.2830827760246
0

0101000
+24 0 -26 12 *
Ed
 1.50000056843419e-07 1 1 0
1  3 0 16.5 18
0

0101000
+27 0 -24 8 *
Wi

0101100
-25 4 +23 8 +22 0 *
Fa
0  1e-07 1 0

0101000
+21 0 *
Ve
1.50000063948846e-07
24.3307304369922 29.6692695630079 18
0 0

0101101
*
Ve
1.50000060396133e-07
29.6692695630078 24.3307304369921 18
0 0

0101101
*
Ed
 1.00000040194367e-07 1 1 0
1  4 0 3.95593259571631 5.46884536505307
2  4 5 0 3.95593259571631 5.46884536505307
2  5 3 0 3.95593259571631 5.46884536505307
0

0101000
+19 5 -18 5 *
Ve
1.50000060396133e-07
54 48.6614608739844 18
0 0

0101101
*
Ed
 1.50000060396133e-07 1 1 0
1  5 0 39.230761340351 73.6396103067894
2  6 3 1 39.230761340351 73.6396103067894
2  7 6 0 39.230761340351 73.6396103067894
0

0101000
+16 14 -18 14 *
Ed
 1e-07 1 1 0
1  6 0 0.814339942126535 1.5707963267949
2  8 7 0 0.814339942126535 1.5707963267949
2  9 3 0 0.814339942126535 1.5707963267949
0

0101000
+16 5 -27 5 *
Ed
 1.50000060396133e-07 1 1 0
1  7 0 39.2307613403512 73.6396103067894
2  10 3 1 39.2307613403512 73.6396103067894
2  11 8 0 39.2307613403512 73.6396103067894
0

0101000
+26 14 -19 14 *
Wi

0101100
-17 4 +15 13 -14 4 -25 4 -13 13 *
Fa
0  1e-07 3 4

0101000
+12 0 *
Ed
 1.50000056843419e-07 1 1 0
1  8 0 -12.2209850307355 -4.67115059546469
2  12 4 11 -12.2209850307355 -4.67115059546469
0

0101000
+19 12 -18 12 *
Ed
 1.50000056843419e-07 1 1 0
1  9 0 53.6614608739844 59
2  13 4 11 53.6614608739844 59
0

0101000
+16 12 -24 0 *
Wi

0101100
-23 8 -13 13 -10 8 +15 13 -9 8 *
Fa
0  1.50000056843419e-07 4 15

0101000
+8 0 *
Wi

0101100
-14 4 -22 0 +9 8 *
Fa
0  1e-07 9 0

0101000
+6 0 *
Wi

0101100
-17 4 +10 8 *
Fa
0  1e-07 10 0

0101000
+4 0 *
Sh

0101100
-20 0 +11 0 -7 0 -5 0 -3 0 *
So

0100000
+2 0 *

+1 0 