DBRep_DrawableShape

CASCADE Topology V1, (c) Matra-Datavision
Locations 5
1
             -1               0 -1.22464679914735e-16               0 
              0               1               0               0 
1.22464679914735e-16               0              -1               0 
1
              1               0               0 72.0000000000001 
              0               1               0         -1236.1 
              0               0               1              54 
2  1 1 2 1 0
1
              1               0               0               0 
              0               1               0               0 
              0               0               1               0 
2  4 -1 0
Curve2ds 18
1 0 0 1 0 
1 19.091883092036788 19.091883092036369 -1 0 
1 54 0 0 -1 
1 0 0 0 -1 
8 6.9445436500088693 60.944543650008868
1 -6.9445436500088693 -18 1 0 
8 6.9445436500088693 60.944543650008868
1 6.9445436500088693 64 1 0 
1 0 0 0 -1 
1 54 0 0 -1 
1 -34.908116907963212 19.091883092036369 0.70710678118654757 -0.70710678118654757 
1 0 0 1 0 
1 19.091883092036788 -34.908116907963631 0 1 
1 0 0 1 0 
1 76.367532368147138 0 0 -1 
1 0 0 0 -1 
8 -46.629833997173662 29.737698370973476
1 46.629833997173662 -18 1 -0 
8 -46.629833997173662 29.737698370973476
1 34.91681547501328 31.027728174995445 -0.70710678118654757 -0.70710678118654757 
8 5 59
1 13.889087300017739 5 0 1 
8 5 59
1 -5 -18 1 0 
Curves 9
1 18 1290.0999999999999 36 1 0 0 
1 72 1290.0999999999999 36 0 0 1 
1 11.055456349991131 1290.0999999999999 54 1 0 0 
1 18 1290.0999999999999 36 0 0 1 
1 72 1290.0999999999999 36 -0.70710678118654757 -0.70710678118654757 0 
1 18 1236.0999999999999 36 0 1 0 
1 18 1236.0999999999999 36 0 0 1 
1 39.027728174995538 1257.1277281749954 54 -0.70710678118654757 -0.70710678118654757 0 
1 18 1231.0999999999999 54 0 1 -0 
Polygon3D 0
PolygonOnTriangulations 0
Surfaces 5
1 18 1290.0999999999999 36 0 1 0 1 0 0 0 0 -1 
1 37.091883092036788 1271.0081169079635 36.000000000000007 -0 -0 -1 -1 0 0 0 1 -0 
1 72 1290.0999999999999 36 0.70710678118654757 -0.70710678118654757 0 -0.70710678118654757 -0.70710678118654757 0 0 -0 -1 
1 4.1109126999822614 1226.0999999999999 54 0 0 1 1 0 -0 -0 1 0 
1 18 1236.0999999999999 36 -1 0 0 0 1 0 0 0 -1 
Triangulations 0

TShapes 28
Ve
1e-07
18 1290.1 36
0 0

0101101
*
Ve
1e-07
72 1290.1 36
0 0

0101101
*
Ed
 1e-07 1 1 0
1  1 0 0 54
2  1 1 0 0 54
2  2 2 0 0 54
0

0101000
+28 5 -27 5 *
Ve
1.50000056843419e-07
72 1290.1 54
0 0

0101101
*
Ed
 1e-07 1 1 0
1  2 0 0 18
2  3 1 0 0 18
2  4 3 0 0 18
0

0101000
+27 5 -25 5 *
Ve
1.5e-07
18 1290.1 54
0 0

0101101
*
Ed
 1.5e-07 1 1 0
1  3 0 6.94454365000887 60.9445436500089
2  5 1 4 6.94454365000887 60.9445436500089
2  6 4 0 6.94454365000887 60.9445436500089
0

0101000
+23 0 -25 0 *
Ed
 1e-07 1 1 0
1  4 0 0 18
2  7 1 0 0 18
2  8 5 0 0 18
0

0101000
+28 5 -23 5 *
Wi

0101100
-26 4 -24 4 +22 0 +21 4 *
Fa
0  1e-07 1 4

0101000
+20 0 *
Ve
1e-07
18 1236.1 36
0 0

0101101
*
Ed
 1e-07 1 1 0
1  5 0 0 76.3675323681471
2  9 2 0 0 76.3675323681471
2  10 3 0 0 76.3675323681471
0

0101000
+27 5 -18 5 *
Ed
 1e-07 1 1 0
1  6 0 0 54
2  11 2 0 0 54
2  12 5 0 0 54
0

0101000
+18 5 -28 5 *
Wi

0101100
+26 4 +17 4 +16 4 *
Fa
0  1e-07 2 4

0101000
+15 0 *
Ve
1.50000042632564e-07
18 1236.1 54
0 0

0101101
*
Ed
 1e-07 1 1 0
1  7 0 0 18
2  13 3 0 0 18
2  14 5 0 0 18
0

0101000
+18 5 -13 5 *
Ed
 1.5e-07 1 1 0
1  8 0 -46.6298339971737 29.7376983709735
2  15 3 4 -46.6298339971737 29.7376983709735
2  16 4 0 -46.6298339971737 29.7376983709735
0

0101000
+25 0 -13 0 *
Wi

0101100
-17 4 -12 4 +11 0 +24 4 *
Fa
0  1e-07 3 4

0101000
+10 0 *
Ed
 1.5e-07 1 1 0
1  9 0 5 59
2  17 4 0 5 59
2  18 5 4 5 59
0

0101000
+13 0 -23 0 *
Wi

0101100
-22 0 -11 0 -8 0 *
Fa
0  1e-07 4 0

0101000
+7 0 *
Wi

0101100
-16 4 -21 4 +8 0 +12 4 *
Fa
0  1e-07 5 4

0101000
+5 0 *
Sh

0101100
+19 0 +14 0 +9 0 +6 0 +4 0 *
So

0100000
+3 0 *
Co

1100000
+2 0 *

+1 3 