DBRep_DrawableShape

CASCADE Topology V1, (c) Matra-Datavision
Locations 10
1
              1               0               0               0 
              0               1               0               0 
              0               0               1              -1 
2  1 -1 0
1
              1               0               0               0 
              0               1               0               0 
              0               0               1               0 
1
             -1               0 -1.22464679914735e-16               0 
              0               1               0               0 
1.22464679914735e-16               0              -1               0 
1
              1               0               0 72.0000000000001 
              0               1               0         -1236.1 
              0               0               1             126 
2  3 1 4 1 5 1 0
2  3 -1 0
2  5 -1 4 -1 3 -1 0
2  4 1 5 1 0
2  5 -1 4 -1 0
Curve2ds 17
1 26.03642674204567 19.091883092036781 -1 0 
3 5.6840000000000001e-14 -86 1 0 -0 1 7.7781745930520225 5.5
7 0 0  3 25 23  3.9559325957163236 39.230761340351251  3.9197941673993344 39.375364054938331  3.8475173107653533 39.649594894278486  3.739102025814375 40.011833089253123  3.6306867408634007 40.320536622817031  3.5222714559124233 40.572126957540547  3.4138561709614521 40.763637402263505  3.3054408860104774 40.892822500690009  3.1970256010595048 40.958164422041378  3.0886103161085305 40.958896136620055  2.9801950311575496 40.895008988313812  2.8717797462065811 40.767253180549893  2.7633644612556032 40.577128864132462  2.6549491763046316 40.326868549606679  2.5465338913536617 40.019410884572096  2.4381186064026865 39.658366150247197  2.3297033214517091 39.247973863001683  2.2212880365007321 38.793053010066906  2.1128727515497689 38.298945397801447  2.0044574665987702 37.771453170281283  1.8960421816478286 37.216769767688419  1.7876268966968154 36.641410599494712  1.6792116117458762 36.052123853555663  1.6069347551118858 35.65461368181515  1.5707963267948759 35.455844122715803 
 5.4688453650530606 4 5.5772606500040345 1 5.6856759349550083 1 5.7940912199059822 1 5.9025065048569552 1 6.010921789807929 1 6.1193370747589029 1 6.2277523597098767 1 6.3361676446608506 1 6.4445829296118244 1 6.5529982145627983 1 6.6614134995137722 1 6.7698287844647451 1 6.878244069415719 1 6.9866593543666928 1 7.0950746393176667 1 7.2034899242686405 1 7.3119052092196135 1 7.4203204941705874 1 7.5287357791215612 1 7.6371510640725351 1 7.7455663490235089 1 7.8539816339744828 4
1 19.091883092036802 -39.908116907963219 0 1 
8 35.455843517777687 73.639610906789358
1 -13.851250074855564 86.401798248857631 0.70710678118654757 -0.70710678118654757 
1 -0.81433994212653271 1.1368683772161603e-13 4.3881250284278375e-16 1 
1 -1.9358450829587355 -13.880388732967774 0.70710678118654757 -0.70710678118654757 
8 35.45584351777768 73.639610906789358
1 -8.5127109488399082 91.740337374873434 0.70710678118654757 -0.70710678118654757 
1 3.9559325957163409 2.8421709430404007e-14 -4.3881250284278666e-16 1 
3 54 -86 -1 0 -0 -1 7.7781745930520225 5.5
7 0 0  3 25 23  0 40.955844122715732  -0.01233848397161541 40.95584498215991  -0.037015451914842679 40.953331506943663  -0.074030903829685357 40.942032199185242  -0.11104635574452448 40.923216242616625  -0.14806180765936983 40.896910227757708  -0.18507725957420984 40.863149975698043  -0.22209271148904897 40.821981795915832  -0.25910816340389875 40.773462072653352  -0.29612361531873432 40.717657281503968  -0.33313906723358411 40.654643873195937  -0.3701545191484108 40.584508175597222  -0.40716997106326147 40.507346273636216  -0.44418542297809172 40.423263878161229  -0.48120087489294772 40.332376180959564  -0.51821632680779395 40.234807697077365  -0.55523177872262774 40.13069209387637  -0.59224723063747042 40.020172009212558  -0.62926268255231577 39.90339885117853  -0.66627813446715045 39.780532608759913  -0.70329358638200201 39.651741565162268  -0.74030903829683847 39.517202319142179  -0.77732449021168026 39.377098603053575  -0.80200145815490842 39.280115893897808  -0.81433994212652117 39.230761340351137 
 0 4 0.037015451914842505 1 0.07403090382968501 1 0.11104635574452751 1 0.14806180765937002 1 0.18507725957421253 1 0.22209271148905502 1 0.25910816340389753 1 0.29612361531874004 1 0.33313906723358255 1 0.37015451914842507 1 0.40716997106326758 1 0.44418542297811003 1 0.48120087489295255 1 0.51821632680779506 1 0.55523177872263763 1 0.59224723063748008 1 0.62926268255232254 1 0.66627813446716511 1 0.70329358638200756 1 0.74030903829685013 1 0.77732449021169259 1 0.81433994212653504 4
3 54 -86 -1 0 -0 -1 7.7781745930520225 5.5
7 0 0  3 25 23  1.5707963267948761 35.455844122715803  1.5469963824494997 35.586744835342422  1.4993964937587503 35.848542666111392  1.4279966607226324 36.239241197465716  1.3565968276864764 36.625946943338484  1.2851969946503647 37.006690320723308  1.2137971616142167 37.379530885829972  1.1423973285780837 37.742568799021853  1.0709974955419597 38.09395408343979  0.99959766250582405 38.431896165275639  0.92819782946970442 38.754672967787151  0.85679799643358034 39.060639694744658  0.78539816339742963 39.348237209722953  0.71399833036132598 39.615999981814255  0.64259849732515661 39.862563553004769  0.57119866428906274 40.086671492965557  0.49979883125290758 40.287181794856103  0.42839899821677996 40.463072719624215  0.35699916518064523 40.613447909641259  0.28559933214452737 40.737541303097949  0.21419949910839353 40.834719743539821  0.14279966607225791 40.904491036085638  0.071399833036132065 40.946488430483186  0.023799944345378243 40.955855983770839  0 40.955844122715732 
 4.7123889803846897 4 4.7837888134208217 1 4.8551886464569529 1 4.926588479493085 1 4.9979883125292162 1 5.0693881455653482 1 5.1407879786014794 1 5.2121878116376115 1 5.2835876446737426 1 5.3549874777098747 1 5.4263873107460068 1 5.497787143782138 1 5.5691869768182691 1 5.6405868098544012 1 5.7119866428905333 1 5.7833864759266644 1 5.8547863089627965 1 5.9261861419989277 1 5.9975859750350597 1 6.0689858080711918 1 6.140385641107323 1 6.2117854741434542 1 6.2831853071795862 4
2 38.183766184073548 -86 1 0 -0 1 5.5
1 0 73.639610306789336 1 0 
2 38.183766184073548 -86 1 0 -0 1 5.5
1 -6.2831853071795667 73.639610306790217 1 -1.396061175935252e-13 
Curves 11
1 60.94454365000891 54 1 -1 0 1.2246467991473532e-16 
3 18.000000000000057 1290.0999999999999 122 0 1 0 1 -0 0 0 0 -1 7.7781745930520225 5.5
1 54.000000000000043 54 0 0 0 1 
1 54.000000000000043 -5 1 0 1 0 
1 -9.7403373748733024 1312.5017982488575 126 0.70710678118654757 -0.70710678118654757 0 
1 32.972271825004505 21.027728174995445 1 0.70710678118654757 -0.70710678118654757 -8.6595605623549341e-17 
1 -4.4017982488576468 1317.8403373748733 126 0.70710678118654757 -0.70710678118654757 0 
3 18 1290.0999999999999 122 -1 0 0 0 -1 0 0 0 1 7.7781745930520225 5.5
3 18 1290.0999999999999 122 -1 0 0 0 -1 0 0 0 1 7.7781745930520225 5.5
2 45.000000000000036 1263.0999999999999 122 0.70710678118654757 -0.70710678118654757 0 -0.70710678118654757 -0.70710678118654757 0 0 -0 -1 5.5
2 45.000000000000036 1263.0999999999999 122 0.70710678118654757 -0.70710678118654757 0 -0.70710678118654757 -0.70710678118654757 0 0 -0 -1 5.5
Polygon3D 0
PolygonOnTriangulations 0
Surfaces 10
1 54.000000000000043 54 8.5046131525224368e-16 0 -1 0 -1 0 1.2246467991473532e-16 -1.2246467991473532e-16 -0 -1 
1 34.90811690796324 34.908116907963219 1.0000000000000033 2.2604341140055519e-16 0 1 1 0 -2.2604341140055519e-16 -0 1 0 
1 18 1290.0999999999999 36 0 1 0 1 0 0 0 0 -1 
2 -7.0710678118654746 1315.1710678118654 122 0.70710678118654757 -0.70710678118654757 0 -0.70710678118654757 -0.70710678118654757 0 0 0 -1 5.5
1 4.1109126999822614 1226.0999999999999 126 0 0 1 1 0 -0 -0 1 0 
1 4.1109126999822614 1226.0999999999999 126 0 0 1 1 0 -0 -0 1 0 
1 18 1236.0999999999999 36 -1 0 0 0 1 0 0 0 -1 
1 72 1290.0999999999999 36 0.70710678118654757 -0.70710678118654757 0 -0.70710678118654757 -0.70710678118654757 0 0 -0 -1 
1 54.000000000000043 0 0 -1 0 0 0 1 0 0 0 -1 
1 -7.1054273576010019e-15 53.999999999999957 4.0379387151108236e-15 0.70710678118654757 0.70710678118654757 -0 0.70710678118654757 -0.70710678118654757 -8.6595605623549329e-17 -6.1232339957367648e-17 6.1232339957367648e-17 -1 
Triangulations 0

TShapes 31
Ve
1.50000056843419e-07
54 54 1
0 0

0101101
*
Ve
1.50000059808802e-07
48.6614608739843 54 0
0 0

0101101
*
Ed
 1.50000056843419e-07 1 1 0
1  1 0 6.94454365000887 12.2830827760246
2  1 2 0 6.94454365000887 12.2830827760246
0

0101000
+31 0 -30 2 *
Ve
2.30093907707116e-05
54 54 9.5
0 0

0101101
*
Ed
 1e-07 1 1 0
1  2 0 5.46884536505306 7.85398163397448
2  2 3 0 5.46884536505306 7.85398163397448
2  3 4 7 5.46884536505306 7.85398163397448
0

0101000
+30 8 -28 8 *
Ed
 1.50000056843419e-07 1 1 0
1  3 0 0 9.5
0

0101000
+31 1 -28 0 *
Wi

0101100
-29 1 -27 6 +26 0 *
Fa
0  1e-07 1 0

0101000
+25 0 *
Ve
1.50000061015544e-07
54 48.6614608739844 0
0 0

0101101
*
Ed
 1.50000056843419e-07 1 1 0
1  4 0 53.6614608739844 59
2  4 2 0 53.6614608739844 59
0

0101000
+23 2 -31 0 *
Ve
1.50000061015544e-07
29.6692695630078 24.3307304369921 0
0 0

0101101
*
Ed
 1.50000061015544e-07 1 1 0
1  5 0 39.230761340351 73.6396103067894
2  5 5 0 39.230761340351 73.6396103067894
2  6 4 0 39.230761340351 73.6396103067894
0

0101000
+23 10 -21 10 *
Ve
1.50000063948846e-07
24.3307304369922 29.6692695630079 0
0 0

0101101
*
Ed
 1.50000056843419e-07 1 1 0
1  6 0 -12.2209850307355 -4.67115059546469
2  7 2 0 -12.2209850307355 -4.67115059546469
0

0101000
+19 2 -21 2 *
Ed
 1.50000059808802e-07 1 1 0
1  7 0 39.2307613403512 73.6396103067894
2  8 6 0 39.2307613403512 73.6396103067894
2  9 4 0 39.2307613403512 73.6396103067894
0

0101000
+30 10 -19 10 *
Wi

0101100
+22 1 -20 9 +18 1 +17 9 +29 1 *
Fa
0  1.50000056843419e-07 2 1

0101000
+16 0 *
Ve
5.53059252986575e-06
54 46.221825406948 4
0 0

0101101
*
Ed
 1e-07 1 1 0
1  8 0 0 0.814339942126535
2  10 7 0 0 0.814339942126535
2  11 4 7 0 0.814339942126535
0

0101000
+14 8 -23 8 *
Ed
 5.53059252986575e-06 1 1 0
1  9 0 4.71238898038469 6.28318530717959
2  12 7 0 4.71238898038469 6.28318530717959
2  13 4 7 4.71238898038469 6.28318530717959
0

0101000
+28 8 -14 8 *
Ve
1.00000055267255e-07
30.889087296526 23.110912703474 4
0 0

0101101
*
Ed
 1.00000040194367e-07 1 1 0
1  10 0 0 3.95593259571631
2  14 8 0 0 3.95593259571631
2  15 4 7 0 3.95593259571631
0

0101000
+11 8 -19 8 *
Ed
 1.00000040194367e-07 1 1 0
1  11 0 5.46884536505307 6.28318530717959
2  16 8 0 5.46884536505307 6.28318530717959
2  17 4 7 5.46884536505307 6.28318530717959
0

0101000
+21 8 -11 8 *
Wi

0101100
-20 9 -13 6 -12 6 -27 6 +17 9 -10 6 -9 6 *
Fa
0  1e-07 4 9

0101000
+8 0 *
Wi

0101100
-22 1 -26 0 -12 6 -13 6 *
Fa
0  1e-07 9 0

0101000
+6 0 *
Wi

0101100
-18 1 -9 6 -10 6 *
Fa
0  1e-07 10 0

0101000
+4 0 *
Sh

0101100
-24 0 -15 0 +7 0 -5 0 -3 0 *
So

0100000
+2 0 *

+1 0 