DBRep_DrawableShape

CASCADE Topology V1, (c) Matra-Datavision
Locations 10
1
              1               0               0               0 
              0               1               0               0 
              0               0               1              -1 
2  1 -1 0
1
             -1               0 -1.22464679914735e-16               0 
              0               1               0               0 
1.22464679914735e-16               0              -1               0 
1
              1               0               0 72.0000000000001 
              0               1               0         -1236.1 
              0               0               1             144 
1
              1               0               0               0 
              0               1               0               0 
              0               0               1              -0 
1
              1               0               0               0 
              0               1               0               0 
              0               0               1               1 
2  3 1 4 1 5 1 6 1 0
1
              1               0               0               0 
              0               1               0               0 
              0               0               1              18 
2  1 1 8 1 0
2  8 -1 1 -1 0
Curve2ds 18
1 -1.0415147275223082e-31 8.5046131525224368e-16 1.2246467991473532e-16 -1 
1 54 0 0 -1 
1 54 3.5812667304694919e-16 1.2246467991473532e-16 -1 
1 2.5121479338940442e-15 -3.0674886424901786e-15 -8.6595605623549329e-17 -1 
1 -6.9445436500088675 0 1 0 
1 6.9445436500088693 64 1 0 
1 -6.9445436500088658 -18.000000000000014 1 0 
1 6.9445436500088693 64 1 0 
1 76.367532368147153 4.5302733573161188e-15 -8.6595605623549329e-17 -1 
1 0 7.1054273576010019e-15 0 -1 
1 46.62983399717367 7.8886090522101181e-31 1 2.4651903288156613e-32 
1 34.91681547501328 31.027728174995445 -0.70710678118654757 -0.70710678118654757 
1 46.62983399717367 -18.000000000000014 1 2.4651903288156613e-32 
1 34.91681547501328 31.027728174995445 -0.70710678118654757 -0.70710678118654757 
1 -5 0 1 0 
1 13.889087300017739 5 0 1 
1 -5 -18.000000000000014 1 0 
1 13.889087300017739 5 0 1 
Curves 9
1 54.000000000000043 54 0 0 0 1 
1 4.2632564145606011e-14 54 7.1054273576010019e-15 0 0 1 
1 60.94454365000891 54 1 -1 0 1.2246467991473532e-16 
1 60.94454365000891 54 1 -1 0 1.2246467991473532e-16 
1 54.000000000000043 0 -7.1054273576010019e-15 0 0 1 
1 32.972271825004505 21.027728174995445 1 0.70710678118654757 -0.70710678118654757 -8.6595605623549341e-17 
1 32.972271825004505 21.027728174995445 1 0.70710678118654757 -0.70710678118654757 -8.6595605623549341e-17 
1 54.000000000000043 -5 1 0 1 0 
1 54.000000000000043 -5 1 0 1 0 
Polygon3D 0
PolygonOnTriangulations 0
Surfaces 5
1 54.000000000000043 54 8.5046131525224368e-16 0 -1 0 -1 0 1.2246467991473532e-16 -1.2246467991473532e-16 -0 -1 
1 54.000000000000043 0 0 -1 0 0 0 1 0 0 0 -1 
1 -7.1054273576010019e-15 53.999999999999957 4.0379387151108236e-15 0.70710678118654757 0.70710678118654757 -0 0.70710678118654757 -0.70710678118654757 -8.6595605623549329e-17 -6.1232339957367648e-17 6.1232339957367648e-17 -1 
1 4.1109126999822614 1226.0999999999999 144 0 0 1 1 0 -0 -0 1 0 
1 4.1109126999822614 1226.0999999999999 144 0 0 1 1 0 -0 -0 1 0 
Triangulations 0

TShapes 27
Ve
1.50000056843419e-07
54 54 0
0 0

0101101
*
Ve
1.50000056843419e-07
54 54 18
0 0

0101101
*
Ed
 1.50000056843419e-07 1 1 0
1  1 0 0 18
2  1 1 0 0 18
2  2 2 0 0 18
0

0101000
+27 0 -26 0 *
Ve
1.50000063948846e-07
4.2632564145606e-14 54 7.105427357601e-15
0 0

0101101
*
Ve
1.50000063948846e-07
4.2632564145606e-14 54 18
0 0

0101101
*
Ed
 1.50000063948846e-07 1 1 0
1  2 0 0 18
2  3 1 0 0 18
2  4 3 0 0 18
0

0101000
+24 0 -23 0 *
Ed
 1e-07 1 1 0
1  3 0 6.94454365000887 60.9445436500089
2  5 1 2 6.94454365000887 60.9445436500089
2  6 4 7 6.94454365000887 60.9445436500089
0

0101000
+27 2 -24 2 *
Ed
 1e-07 1 1 0
1  4 0 6.94454365000887 60.9445436500089
2  7 1 10 6.94454365000887 60.9445436500089
2  8 5 7 6.94454365000887 60.9445436500089
0

0101000
+26 10 -23 10 *
Wi

0101100
+25 0 -22 0 -21 1 +20 9 *
Fa
0  1e-07 1 0

0101000
+19 0 *
Ve
1.50000056843419e-07
54 0 -7.105427357601e-15
0 0

0101101
*
Ve
1.50000056843419e-07
54 0 18
0 0

0101101
*
Ed
 1.50000056843419e-07 1 1 0
1  5 0 0 18
2  9 3 0 0 18
2  10 2 0 0 18
0

0101000
+17 0 -16 0 *
Ed
 1e-07 1 1 0
1  6 0 -46.6298339971737 29.7376983709735
2  11 3 2 -46.6298339971737 29.7376983709735
2  12 4 7 -46.6298339971737 29.7376983709735
0

0101000
+24 2 -17 2 *
Ed
 1e-07 1 1 0
1  7 0 -46.6298339971737 29.7376983709735
2  13 3 10 -46.6298339971737 29.7376983709735
2  14 5 7 -46.6298339971737 29.7376983709735
0

0101000
+23 10 -16 10 *
Wi

0101100
+22 0 -15 0 -14 1 +13 9 *
Fa
0  1e-07 3 0

0101000
+12 0 *
Ed
 1e-07 1 1 0
1  8 0 5 59
2  15 2 2 5 59
2  16 4 7 5 59
0

0101000
+17 2 -27 2 *
Ed
 1e-07 1 1 0
1  9 0 5 59
2  17 2 10 5 59
2  18 5 7 5 59
0

0101000
+16 10 -26 10 *
Wi

0101100
+15 0 -25 0 -10 1 +9 9 *
Fa
0  1e-07 2 0

0101000
+8 0 *
Wi

0101100
+21 0 +14 0 +10 0 *
Fa
0  1.50000056843419e-07 4 7

0111000
-6 0 *
Wi

0101100
+20 0 +13 0 +9 0 *
Fa
0  1.50000056843419e-07 5 7

0111000
-4 0 *
Sh

0101100
-18 0 -11 0 -7 0 +5 1 -3 9 *
So

1100000
+2 0 *

+1 0 