DBRep_DrawableShape

CASCADE Topology V1, (c) Matra-Datavision
Locations 0
Curve2ds 0
Curves 3
1 60.94454365000891 54 -2.5546936475771761e-15 -1 0 2.2604341140055514e-16 
1 32.972271825004505 21.027728174995445 3.7682541003704519e-15 0.70710678118654757 -0.70710678118654757 -1.598368290438731e-16 
1 54.000000000000043 -5 -9.849253103091089e-16 0 1 0 
Polygon3D 0
PolygonOnTriangulations 0
Surfaces 0
Triangulations 0

TShapes 7
Ve
1e-07
54 54 -9.84925310309109e-16
0 0

0101101
*
Ve
1e-07
-7.105427357601e-15 54 1.12214189053209e-14
0 0

0101101
*
Ed
 1e-07 1 1 0
1  1 0 6.94454365000887 60.9445436500089
0

0101000
+7 0 -6 0 *
Ve
1e-07
54 -4.9737991503207e-14 -9.84925310309099e-16
0 0

0101101
*
Ed
 1e-07 1 1 0
1  2 0 -46.6298339971737 29.7376983709735
0

0101000
+6 0 -4 0 *
Ed
 1e-07 1 1 0
1  3 0 5 59
0

0101000
+4 0 -7 0 *
Wi

0101100
+5 0 +3 0 +2 0 *

+1 0 