DBRep_DrawableShape

CASCADE Topology V1, (c) Matra-Datavision
Locations 8
1
              1               0               0               0 
              0               1               0               0 
              0               0               1              -1 
1
              1               0               0               0 
              0               1               0               0 
              0               0               1               0 
1
             -1               0 -1.22464679914735e-16               0 
              0               1               0               0 
1.22464679914735e-16               0              -1               0 
1
              1               0               0 72.0000000000001 
              0               1               0         -1236.1 
              0               0               1              54 
1
              1               0               0               0 
              0               1               0               0 
              0               0               1             -18 
1
              1               0               0               0 
              0               1               0               0 
              0               0               1               1 
2  2 1 3 1 4 1 5 1 6 1 0
2  6 -1 5 -1 4 -1 3 -1 2 -1 0
Curve2ds 3
1 19.091883092036788 19.091883092036369 -1 0 
1 -34.908116907963212 19.091883092036369 0.70710678118654757 -0.70710678118654757 
1 19.091883092036788 -34.908116907963631 0 1 
Curves 3
1 18 1290.0999999999999 36 1 0 0 
1 72 1290.0999999999999 36 -0.70710678118654757 -0.70710678118654757 0 
1 18 1236.0999999999999 36 0 1 0 
Polygon3D 0
PolygonOnTriangulations 0
Surfaces 1
1 37.091883092036788 1271.0081169079635 36.000000000000007 -0 -0 -1 -1 0 0 0 1 -0 
Triangulations 0

TShapes 7
Ve
1.50000072961844e-07
54.0000000000001 54 1
0 0

0101101
*
Ve
1.50000075404334e-07
5.6843418860808e-14 54 1.00000000000001
0 0

0101101
*
Ed
 1.50000072961843e-07 1 1 0
1  1 0 0 54
2  1 1 0 0 54
0

0101000
+7 8 -6 8 *
Ve
1.50000080475355e-07
54.0000000000001 0 1
0 0

0101101
*
Ed
 1.50000072961843e-07 1 1 0
1  2 0 0 76.3675323681471
2  2 1 0 0 76.3675323681471
0

0101000
+6 8 -4 8 *
Ed
 1.50000072961843e-07 1 1 0
1  3 0 0 54
2  3 1 0 0 54
0

0101000
+4 8 -7 8 *
Wi

0101100
+5 7 +3 7 +2 7 *

+1 1 