DBRep_DrawableShape

CASCADE Topology V1, (c) Matra-Datavision
Locations 6
1
              1               0               0               0 
              0               1               0               0 
              0               0               1              -1 
1
             -1               0 -1.22464679914735e-16               0 
              0               1               0               0 
1.22464679914735e-16               0              -1               0 
1
              1               0               0 72.0000000000001 
              0               1               0         -1236.1 
              0               0               1             144 
1
              1               0               0               0 
              0               1               0               0 
              0               0               1              -0 
1
              1               0               0               0 
              0               1               0               0 
              0               0               1               1 
2  2 1 3 1 4 1 5 1 0
Curve2ds 3
1 6.9445436500088693 64 1 0 
1 34.91681547501328 31.027728174995445 -0.70710678118654757 -0.70710678118654757 
1 13.889087300017739 5 0 1 
Curves 3
1 60.94454365000891 54 1 -1 0 1.2246467991473532e-16 
1 32.972271825004505 21.027728174995445 1 0.70710678118654757 -0.70710678118654757 -8.6595605623549341e-17 
1 54.000000000000043 -5 1 0 1 0 
Polygon3D 0
PolygonOnTriangulations 0
Surfaces 1
1 4.1109126999822614 1226.0999999999999 144 0 0 1 1 0 -0 -0 1 0 
Triangulations 0

TShapes 7
Ve
1.50000056843419e-07
54 54 1
0 0

0101101
*
Ve
1.50000063948846e-07
4.2632564145606e-14 54 1.00000000000001
0 0

0101101
*
Ed
 1e-07 1 1 0
1  1 0 6.94454365000887 60.9445436500089
2  1 1 6 6.94454365000887 60.9445436500089
0

0101000
+7 0 -6 0 *
Ve
1.50000056843419e-07
54 0 0.999999999999993
0 0

0101101
*
Ed
 1e-07 1 1 0
1  2 0 -46.6298339971737 29.7376983709735
2  2 1 6 -46.6298339971737 29.7376983709735
0

0101000
+6 0 -4 0 *
Ed
 1e-07 1 1 0
1  3 0 5 59
2  3 1 6 5 59
0

0101000
+4 0 -7 0 *
Wi

0101100
+5 0 +3 0 +2 0 *

+1 1 