DBRep_DrawableShape

CASCADE Topology V1, (c) Matra-Datavision
Locations 0
Curve2ds 0
Curves 3
1 60.944543650008917 54 4.0472034845456707e-15 -1 0 0 
1 32.972271825004512 21.027728174995445 4.0472034845456707e-15 0.70710678118654757 -0.70710678118654757 -0 
1 54.00000000000005 -5 4.0472034845456707e-15 0 1 0 
Polygon3D 0
PolygonOnTriangulations 0
Surfaces 0
Triangulations 0

TShapes 7
Ve
1e-07
54 54 4.04720348454567e-15
0 0

0101101
*
Ve
1e-07
5.6843418860808e-14 54 4.04720348454567e-15
0 0

0101101
*
Ed
 1e-07 1 1 0
1  1 0 6.94454365000887 60.9445436500089
0

0101000
+7 0 -6 0 *
Ve
1e-07
54 -4.9737991503207e-14 4.04720348454567e-15
0 0

0101101
*
Ed
 1e-07 1 1 0
1  2 0 -46.6298339971737 29.7376983709735
0

0101000
+6 0 -4 0 *
Ed
 1e-07 1 1 0
1  3 0 4.99999999999995 59
0

0101000
+4 0 -7 0 *
Wi

0101100
+5 0 +3 0 +2 0 *

+1 0 