DBRep_DrawableShape

CASCADE Topology V1, (c) Matra-Datavision
Locations 5
1
              1               0               0               0 
              0               1               0               0 
              0               0               1               0 
1
             -1               0 -1.22464679914735e-16               0 
              0               1               0               0 
1.22464679914735e-16               0              -1               0 
1
              1               0               0 72.0000000000001 
              0               1               0         -1236.1 
              0               0               1              72 
2  1 1 2 1 3 1 0
2  3 -1 2 -1 1 -1 0
Curve2ds 10
3 5.6840000000000001e-14 -28 1 0 -0 1 7.7781745930520225 5.5
7 0 0  8 23 4  5.4797667138574599 31.6374675043038  5.333630835090732 32.215951507224574  5.1874949563247243 32.887628873463136  5.0413590775560237 33.633673690915884  4.8952231987909727 34.431018031194981  4.7490873200256658 35.253625942581948  4.6029514412564954 36.07428734676067  4.4568155624903572 36.866536651068287  4.0914758655735346 38.715947243403726  3.8722720474274865 39.707502347417176  3.6530682292577694 40.499715411759098  3.4338644111394387 41.023457802075427  3.2146605929538055 41.234140815737192  2.9954567748268346 41.121332209651882  2.7762529566729626 40.7079307765853  2.337845320372776 39.37736223568433  2.1186415022218625 38.460194430153933  1.8994376840710174 37.339863130633603  1.680233865918126 36.090864641242661  1.4610300477716009 34.806159809333622  1.2418262296221201 33.582605231931666  1.02262241147222 32.505193508684968  0.80341859332212684 31.6374675043038 
 3.9450112469119238 9 5.1140982770457599 7 6.8677288222465034 7 8.6213593674472477 9
1 6.2831853071795862 -0 0 1 
1 0 -0 0 1 
3 54 -28 -1 0 -0 -1 7.7781745930520225 5.5
7 0 0  7 14 3  6.2831853071795862 40.955844122715689  6.1161728743035892 40.955844122715689  5.9491604414277433 40.776862443482969  5.782148008551097 40.418904150596063  5.615135575676014 39.894180319559382  5.4481231427994246 39.227209802991638  5.2811107099236301 38.45174573022026  4.9470858441716361 36.760856045803315  4.7800734112957102 35.845431113760242  4.6130609784195471 34.898542839902802  4.4460485455431566 33.963493222505349  4.2790361126676757 33.083974471612237  4.112023679791637 32.298592079086276  3.9450112469156404 31.637467504318352 
 0 8 1.1690870301319769 6 2.3381740602639538 8
3 54 -28 -1 0 -0 -1 7.7781745930520225 5.5
7 0 0  7 14 3  2.3381740602639458 31.637467504318352  2.1711616273879493 32.298592079086276  2.0041491945119105 33.083974471607689  1.8371367616364296 33.963493222527177  1.6701243287598118 34.898542839880974  1.5031118958841603 35.845431113764789  1.3360994630079501 36.760856045803315  1.0020745972559566 38.45174573022026  0.83506216438021852 39.227209802997095  0.66804973150317437 39.894180319537554  0.50103729862843238 40.418904150617891  0.33402486575178614 40.776862443472055  0.16701243287599674 40.955844122715689  0 40.955844122715689 
 3.9450112469156324 8 5.1140982770476091 6 6.2831853071795862 8
2 38.183766184073548 -28 1 0 -0 1 5.5
1 0 73.639610306789351 1 0 
Curves 6
3 18.000000000000057 1290.0999999999999 64 0 1 0 1 -0 0 0 0 -1 7.7781745930520225 5.5
1 54.00000000000005 54 0 0 0 1 
1 -10.960155108391486 1311.2819805153395 64 0.70710678118654757 -0.70710678118654757 0 
3 18 1290.0999999999999 64 -1 0 0 0 -1 0 0 0 1 7.7781745930520225 5.5
3 18 1290.0999999999999 64 -1 0 0 0 -1 0 0 0 1 7.7781745930520225 5.5
2 45.000000000000036 1263.0999999999999 64 0.70710678118654757 -0.70710678118654757 0 -0.70710678118654757 -0.70710678118654757 0 0 -0 -1 5.5
Polygon3D 0
PolygonOnTriangulations 0
Surfaces 7
1 54.00000000000005 54 8.5046131525224387e-16 0 -1 0 -1 0 1.2246467991473532e-16 -1.2246467991473532e-16 -0 -1 
1 18 1290.0999999999999 36 0 1 0 1 0 0 0 0 -1 
2 -7.0710678118654746 1315.1710678118654 64 0.70710678118654757 -0.70710678118654757 0 -0.70710678118654757 -0.70710678118654757 0 0 -0 -1 5.5
1 18 1236.0999999999999 36 -1 0 0 0 1 0 0 0 -1 
1 72 1290.0999999999999 36 0.70710678118654757 -0.70710678118654757 0 -0.70710678118654757 -0.70710678118654757 0 0 -0 -1 
1 54.00000000000005 0 0 -1 0 0 0 1 0 0 0 -1 
1 0 53.999999999999957 1.1143366072711825e-14 0.70710678118654757 0.70710678118654757 -0 0.70710678118654757 -0.70710678118654757 -8.6595605623549329e-17 -6.1232339957367648e-17 6.1232339957367648e-17 -1 
Triangulations 0

TShapes 20
Ve
1.5e-07
54 54 2.5
0 0

0101101
*
Ve
1.5e-07
54 54 13.5
0 0

0101101
*
Ed
 1.5e-07 1 1 0
1  1 0 4.71238898038469 7.85398163397448
2  1 2 0 4.71238898038469 7.85398163397448
2  2 3 0 4.71238898038469 7.85398163397448
0

0101000
+20 5 -19 5 *
Ed
 1.5e-07 1 1 0
1  2 0 2.5 13.5
0

0101000
+20 0 -19 0 *
Wi

0101100
-18 4 +17 0 *
Fa
0  1.5e-07 1 0

0101000
+16 0 *
Ve
1.50000007105427e-07
54 46.221825406948 8
0 0

0101101
*
Ve
1.50000067574216e-07
30.889087296526 23.110912703474 8.00000000000001
0 0

0101101
*
Ed
 1e-07 1 1 0
1  3 0 40.9558441227157 73.6396103067894
3  3 4CN 3 0 40.9558441227157 73.6396103067894
0

0101000
+14 5 -13 5 *
Ed
 1.5e-07 1 1 0
1  4 0 0 1.5707963267949
2  5 4 0 0 1.5707963267949
2  6 3 0 0 1.5707963267949
0

0101000
+14 5 -20 5 *
Ed
 1.5e-07 1 1 0
1  5 0 4.71238898038469 6.28318530717959
2  7 4 0 4.71238898038469 6.28318530717959
2  8 3 0 4.71238898038469 6.28318530717959
0

0101000
+19 5 -14 5 *
Ed
 1.50000052501328e-07 1 1 0
1  6 0 0 6.28318530717959
2  9 5 0 0 6.28318530717959
2  10 3 0 0 6.28318530717959
0

0101000
+13 5 -13 5 *
Wi

0101100
+12 4 -11 4 -18 4 -10 4 -12 4 -9 4 *
Fa
0  1e-07 3 4

0101000
+8 0 *
Wi

0101100
-17 0 -10 4 -11 4 *
Fa
0  1.5e-07 6 0

0101000
+6 0 *
Wi

0101100
-9 4 *
Fa
0  1.50000012306961e-07 7 0

0101000
+4 0 *
Sh

0101100
-15 0 +7 0 -5 0 -3 0 *
So

0100000
+2 0 *

+1 0 