DBRep_DrawableShape

CASCADE Topology V1, (c) Matra-Datavision
Locations 5
1
             -1               0 -1.22464679914735e-16               0 
              0               1               0               0 
1.22464679914735e-16               0              -1               0 
1
              1               0               0 72.0000000000001 
              0               1               0         -1236.1 
              0               0               1             144 
2  1 1 2 1 0
1
              1               0               0               0 
              0               1               0               0 
              0               0               1               0 
2  4 -1 0
Curve2ds 30
1 54 0 0 -1 
1 0 0 0 -1 
8 6.9445436500088693 60.944543650008868
1 -6.9445436500088693 -108 1 0 
8 6.9445436500088693 60.944543650008868
1 6.9445436500088693 64 1 0 
1 0 0 0 -1 
1 54 0 0 -1 
3 5.6840000000000001e-14 -86 1 0 -0 1 7.7781745930520225 5.5
7 0 0  8 23 4  5.4797667138574599 31.6374675043038  5.333630835090732 32.215951507224574  5.1874949563247243 32.887628873463136  5.0413590775560237 33.633673690915884  4.8952231987909727 34.431018031194981  4.7490873200256658 35.253625942581948  4.6029514412564954 36.07428734676067  4.4568155624903572 36.866536651068287  4.0914758655735346 38.715947243403726  3.872272047426577 39.707502347417176  3.6530682292614074 40.499715411759098  3.4338644111358008 41.023457802075427  3.2146605929574434 41.234140815737192  2.9954567748259251 41.121332209651882  2.7762529566729626 40.7079307765853  2.337845320372776 39.37736223568433  2.1186415022236815 38.460194430153933  1.8994376840601035 37.339863130633603  1.6802338659363159 36.090864641242661  1.461030047764325 34.806159809333622  1.2418262296239391 33.582605231931666  1.02262241147222 32.505193508684968  0.80341859332212684 31.6374675043038 
 3.9450112469119238 9 5.1140982770457599 7 6.8677288222465034 7 8.6213593674472477 9
8 6.9445436500088693 60.944543650008868
1 -6.9445436500088693 -90 1 0 
8 6.9445436500088693 60.944543650008868
1 6.9445436500088693 64 1 0 
8 -46.629833997173662 29.737698370973476
1 46.629833997173662 -90 1 -0 
8 -46.629833997173662 29.737698370973476
1 34.91681547501328 31.027728174995445 -0.70710678118654757 -0.70710678118654757 
2 38.183766184073548 -86 1 0 -0 1 5.5
1 0 73.639610306789351 1 0 
8 -46.629833997173662 29.737698370973476
1 46.629833997173662 -90 1 -0 
8 -46.629833997173662 29.737698370973476
1 34.91681547501328 31.027728174995445 -0.70710678118654757 -0.70710678118654757 
1 76.367532368147138 0 0 -1 
1 0 0 0 -1 
8 -46.629833997173662 29.737698370973476
1 46.629833997173662 -108 1 -0 
8 -46.629833997173662 29.737698370973476
1 34.91681547501328 31.027728174995445 -0.70710678118654757 -0.70710678118654757 
8 5 59
1 13.889087300017739 5 0 1 
8 5 59
1 -5 -108 1 0 
8 5 59
1 -5 -90 1 0 
8 5 59
1 13.889087300017739 5 0 1 
3 54 -86 -1 0 -0 -1 7.7781745930520225 5.5
7 0 0  7 14 3  6.2831853071795862 40.955844122715689  6.1161728743035892 40.955844122715689  5.9491604414277433 40.776862443482969  5.782148008551097 40.418904150596063  5.615135575676014 39.894180319559382  5.4481231427994246 39.227209802991638  5.2811107099236301 38.45174573022026  4.9470858441716361 36.760856045803315  4.7800734112957102 35.845431113760242  4.6130609784195471 34.898542839902802  4.4460485455431566 33.963493222505349  4.2790361126676757 33.083974471612237  4.112023679791637 32.298592079086276  3.9450112469156404 31.637467504318352 
 0 8 1.1690870301319769 6 2.3381740602639538 8
8 35.455843517777687 73.639610906789358
1 5.4688453650530677 5.2180482157382357e-14 0 1 
8 35.455843517777687 73.639610906789358
1 -13.851250074855564 86.401798248857631 0.70710678118654757 -0.70710678118654757 
8 35.45584351777768 73.639610906789358
1 3.9559325957163112 -5.2180482157382357e-14 0 1 
8 35.45584351777768 73.639610906789358
1 -8.5127109488399082 91.740337374873434 0.70710678118654757 -0.70710678118654757 
Curves 15
1 72 1290.0999999999999 36 0 0 1 
1 11.055456349991131 1290.0999999999999 144 1 0 0 
1 18 1290.0999999999999 36 0 0 1 
3 18.000000000000057 1290.0999999999999 122 0 1 0 1 -0 0 0 0 -1 7.7781745930520225 5.5
1 11.055456349991131 1290.0999999999999 126 1 0 0 
1 39.027728174995538 1257.1277281749954 126 -0.70710678118654757 -0.70710678118654757 0 
2 45.000000000000036 1263.0999999999999 122 0.70710678118654757 -0.70710678118654757 0 -0.70710678118654757 -0.70710678118654757 0 0 -0 -1 5.5
1 39.027728174995538 1257.1277281749954 126 -0.70710678118654757 -0.70710678118654757 0 
1 18 1236.0999999999999 36 0 0 1 
1 39.027728174995538 1257.1277281749954 144 -0.70710678118654757 -0.70710678118654757 0 
1 18 1231.0999999999999 144 0 1 -0 
1 18 1231.0999999999999 126 0 1 -0 
3 18 1290.0999999999999 122 -1 0 0 0 -1 0 0 0 1 7.7781745930520225 5.5
1 -9.7403373748733024 1312.5017982488575 126 0.70710678118654757 -0.70710678118654757 0 
1 -4.4017982488576468 1317.8403373748733 126 0.70710678118654757 -0.70710678118654757 0 
Polygon3D 0
PolygonOnTriangulations 0
Surfaces 7
1 18 1290.0999999999999 36 0 1 0 1 0 0 0 0 -1 
1 72 1290.0999999999999 36 0.70710678118654757 -0.70710678118654757 0 -0.70710678118654757 -0.70710678118654757 0 0 -0 -1 
1 4.1109126999822614 1226.0999999999999 144 0 0 1 1 0 -0 -0 1 0 
1 18 1236.0999999999999 36 -1 0 0 0 1 0 0 0 -1 
2 -7.0710678118654746 1315.1710678118654 122 0.70710678118654757 -0.70710678118654757 0 -0.70710678118654757 -0.70710678118654757 0 0 -0 -1 5.5
1 4.1109126999822614 1226.0999999999999 126 0 0 1 1 0 -0 -0 1 0 
1 4.1109126999822614 1226.0999999999999 126 0 0 1 1 0 -0 -0 1 0 
Triangulations 0

TShapes 42
Ve
1.50000056843419e-07
72 1290.1 126
0 0

0101101
*
Ve
1.50000056843419e-07
72 1290.1 144
0 0

0101101
*
Ed
 1e-07 1 1 0
1  1 0 90 108
2  1 1 0 90 108
2  2 2 0 90 108
0

0101000
+42 5 -41 5 *
Ve
1.50000056843419e-07
18 1290.1 144
0 0

0101101
*
Ed
 1.5e-07 1 1 0
1  2 0 6.94454365000887 60.9445436500089
2  3 1 4 6.94454365000887 60.9445436500089
2  4 3 0 6.94454365000887 60.9445436500089
0

0101000
+39 0 -41 0 *
Ve
1.95374462004734e-07
18 1290.1 127.5
0 0

0101101
*
Ed
 1e-07 1 1 0
1  3 0 91.5 108
2  5 1 0 91.5 108
2  6 4 0 91.5 108
0

0101000
+37 5 -39 5 *
Ve
1.5e-07
23.3385391260157 1290.1 126
0 0

0101101
*
Ed
 1e-07 1 1 0
1  4 0 4.71238898038469 5.46884536505306
2  7 1 0 4.71238898038469 5.46884536505306
2  8 5 0 4.71238898038469 5.46884536505306
0

0101000
+37 5 -35 5 *
Ed
 1.5e-07 1 1 0
1  5 0 12.2830827760246 60.9445436500089
2  9 1 4 12.2830827760246 60.9445436500089
2  10 6 0 12.2830827760246 60.9445436500089
0

0101000
+35 0 -42 0 *
Wi

0101100
-40 4 +38 0 +36 4 -34 4 -33 0 *
Fa
0  1e-07 1 4

0101000
+32 0 *
Ve
1.50000063948846e-07
47.6692695630079 1265.76926956301 126
0 0

0101101
*
Ed
 1.5e-07 1 1 0
1  6 0 -46.6298339971737 -12.2209850307355
2  11 2 4 -46.6298339971737 -12.2209850307355
2  12 6 0 -46.6298339971737 -12.2209850307355
0

0101000
+42 0 -30 0 *
Ve
1.50000007105427e-07
42.3307304369922 1260.43073043699 126
0 0

0101101
*
Ed
 1e-07 1 1 0
1  7 0 3.95593259571631 5.46884536505307
2  13 2 0 3.95593259571631 5.46884536505307
2  14 5 0 3.95593259571631 5.46884536505307
0

0101000
+30 5 -28 5 *
Ve
1.50000042632564e-07
18 1236.1 126
0 0

0101101
*
Ed
 1.5e-07 1 1 0
1  8 0 -4.67115059546469 29.7376983709735
2  15 2 4 -4.67115059546469 29.7376983709735
2  16 7 0 -4.67115059546469 29.7376983709735
0

0101000
+28 0 -26 0 *
Ve
1.50000042632564e-07
18 1236.1 144
0 0

0101101
*
Ed
 1e-07 1 1 0
1  9 0 90 108
2  17 2 0 90 108
2  18 4 0 90 108
0

0101000
+26 5 -24 5 *
Ed
 1.5e-07 1 1 0
1  10 0 -46.6298339971737 29.7376983709735
2  19 2 4 -46.6298339971737 29.7376983709735
2  20 3 0 -46.6298339971737 29.7376983709735
0

0101000
+41 0 -24 0 *
Wi

0101100
-29 0 -27 4 -25 0 -23 4 +22 0 +40 4 *
Fa
0  1e-07 2 4

0101000
+21 0 *
Ed
 1.5e-07 1 1 0
1  11 0 5 59
2  21 3 0 5 59
2  22 4 4 5 59
0

0101000
+24 0 -39 0 *
Wi

0101100
-38 0 -22 0 -19 0 *
Fa
0  1e-07 3 0

0101000
+18 0 *
Ve
1.5e-07
18 1284.76146087398 126
0 0

0101101
*
Ed
 1.5e-07 1 1 0
1  12 0 5 53.6614608739844
2  23 4 4 5 53.6614608739844
2  24 7 0 5 53.6614608739844
0

0101000
+26 0 -16 0 *
Ed
 1e-07 1 1 0
1  13 0 0.814339942126535 1.5707963267949
2  25 4 0 0.814339942126535 1.5707963267949
2  26 5 0 0.814339942126535 1.5707963267949
0

0101000
+16 5 -37 5 *
Wi

0101100
-15 0 -14 4 -36 4 +19 0 +23 4 *
Fa
0  1e-07 4 4

0101000
+13 0 *
Ed
 1.5e-07 1 1 0
1  14 0 39.230761340351 73.6396103067894
2  27 5 4 39.230761340351 73.6396103067894
2  28 7 0 39.230761340351 73.6396103067894
0

0101000
+16 0 -28 0 *
Ed
 1.5e-07 1 1 0
1  15 0 39.2307613403512 73.6396103067894
2  29 5 4 39.2307613403512 73.6396103067894
2  30 6 0 39.2307613403512 73.6396103067894
0

0101000
+35 0 -30 0 *
Wi

0101100
-27 4 +11 0 -14 4 -34 4 -10 0 *
Fa
0  1e-07 5 4

0101000
+9 0 *
Wi

0101100
-33 0 -29 0 +10 0 *
Fa
0  1e-07 6 0

0101000
+7 0 *
Wi

0101100
-25 0 -15 0 -11 0 *
Fa
0  1e-07 7 0

0101000
+5 0 *
Sh

0101100
+31 0 +20 0 +17 0 +12 0 -8 0 -6 0 -4 0 *
So

0100000
+3 0 *
Co

1100000
+2 0 *

+1 3 