DBRep_DrawableShape

CASCADE Topology V1, (c) Matra-Datavision
Locations 5
1
              1               0               0               0 
              0               1               0               0 
              0               0               1              -1 
2  1 -1 0
1
              1               0               0               0 
              0               1               0               0 
              0               0               1              18 
2  1 1 3 1 0
2  3 -1 1 -1 0
Curve2ds 18
1 -1.0415147275223082e-31 8.5046131525224368e-16 1.2246467991473532e-16 -1 
1 54 0 0 -1 
1 54 -6.7473006845540527e-15 1.2246467991473532e-16 -1 
1 2.5121479338940438e-15 -1.0172916000091181e-14 -8.6595605623549329e-17 -1 
1 -6.9445436500088675 0 1 0 
1 26.03642674204567 19.091883092036781 -1 0 
1 -6.9445436500088658 -18 1 0 
1 26.03642674204567 19.091883092036781 -1 0 
1 76.367532368147153 4.5302733573161188e-15 -8.6595605623549329e-17 -1 
1 0 7.1054273576010019e-15 0 -1 
1 46.62983399717367 7.8886090522101181e-31 1 2.4651903288156613e-32 
1 -1.9358450829587355 -13.880388732967774 0.70710678118654757 -0.70710678118654757 
1 46.62983399717367 -18 1 2.4651903288156613e-32 
1 -1.9358450829587355 -13.880388732967774 0.70710678118654757 -0.70710678118654757 
1 -5 0 1 0 
1 19.091883092036802 -39.908116907963219 0 1 
1 -5 -18 1 0 
1 19.091883092036802 -39.908116907963219 0 1 
Curves 9
1 54.000000000000043 54 0 0 0 1 
1 4.2632564145606011e-14 54 1.4210854715202004e-14 0 0 1 
1 60.94454365000891 54 1 -1 0 1.2246467991473532e-16 
1 60.94454365000891 54 1 -1 0 1.2246467991473532e-16 
1 54.000000000000043 0 -7.1054273576010019e-15 0 0 1 
1 32.972271825004505 21.027728174995445 1 0.70710678118654757 -0.70710678118654757 -8.6595605623549341e-17 
1 32.972271825004505 21.027728174995445 1 0.70710678118654757 -0.70710678118654757 -8.6595605623549341e-17 
1 54.000000000000043 -5 1 0 1 0 
1 54.000000000000043 -5 1 0 1 0 
Polygon3D 0
PolygonOnTriangulations 0
Surfaces 5
1 54.000000000000043 54 8.5046131525224368e-16 0 -1 0 -1 0 1.2246467991473532e-16 -1.2246467991473532e-16 -0 -1 
1 54.000000000000043 0 0 -1 0 0 0 1 0 0 0 -1 
1 -7.1054273576010019e-15 53.999999999999957 4.0379387151108236e-15 0.70710678118654757 0.70710678118654757 -0 0.70710678118654757 -0.70710678118654757 -8.6595605623549329e-17 -6.1232339957367648e-17 6.1232339957367648e-17 -1 
1 34.90811690796324 34.908116907963219 1.0000000000000033 2.2604341140055519e-16 0 1 1 0 -2.2604341140055519e-16 -0 1 0 
1 34.90811690796324 34.908116907963219 1.0000000000000033 2.2604341140055519e-16 0 1 1 0 -2.2604341140055519e-16 -0 1 0 
Triangulations 0

TShapes 27
Ve
1.50000056843419e-07
54 54 0
0 0

0101101
*
Ve
1.50000056843419e-07
54 54 18
0 0

0101101
*
Ed
 1.50000056843419e-07 1 1 0
1  1 0 0 18
2  1 1 0 0 18
2  2 2 0 0 18
0

0101000
+27 0 -26 0 *
Ve
1.50000056843419e-07
4.2632564145606e-14 54 1.4210854715202e-14
0 0

0101101
*
Ve
1.50000056843419e-07
4.2632564145606e-14 54 18
0 0

0101101
*
Ed
 1.50000056843419e-07 1 1 0
1  2 0 0 18
2  3 1 0 0 18
2  4 3 0 0 18
0

0101000
+24 0 -23 0 *
Ed
 1e-07 1 1 0
1  3 0 6.94454365000887 60.9445436500089
2  5 1 2 6.94454365000887 60.9445436500089
2  6 4 0 6.94454365000887 60.9445436500089
0

0101000
+27 2 -24 2 *
Ed
 1e-07 1 1 0
1  4 0 6.94454365000887 60.9445436500089
2  7 1 5 6.94454365000887 60.9445436500089
2  8 5 0 6.94454365000887 60.9445436500089
0

0101000
+26 5 -23 5 *
Wi

0101100
+25 0 -22 0 -21 1 +20 4 *
Fa
0  1e-07 1 0

0101000
+19 0 *
Ve
1.50000056843419e-07
54 0 -7.105427357601e-15
0 0

0101101
*
Ve
1.50000056843419e-07
54 0 18
0 0

0101101
*
Ed
 1.50000056843419e-07 1 1 0
1  5 0 0 18
2  9 3 0 0 18
2  10 2 0 0 18
0

0101000
+17 0 -16 0 *
Ed
 1e-07 1 1 0
1  6 0 -46.6298339971737 29.7376983709735
2  11 3 2 -46.6298339971737 29.7376983709735
2  12 4 0 -46.6298339971737 29.7376983709735
0

0101000
+24 2 -17 2 *
Ed
 1e-07 1 1 0
1  7 0 -46.6298339971737 29.7376983709735
2  13 3 5 -46.6298339971737 29.7376983709735
2  14 5 0 -46.6298339971737 29.7376983709735
0

0101000
+23 5 -16 5 *
Wi

0101100
+22 0 -15 0 -14 1 +13 4 *
Fa
0  1e-07 3 0

0101000
+12 0 *
Ed
 1e-07 1 1 0
1  8 0 5 59
2  15 2 2 5 59
2  16 4 0 5 59
0

0101000
+17 2 -27 2 *
Ed
 1e-07 1 1 0
1  9 0 5 59
2  17 2 5 5 59
2  18 5 0 5 59
0

0101000
+16 5 -26 5 *
Wi

0101100
+15 0 -25 0 -10 1 +9 4 *
Fa
0  1e-07 2 0

0101000
+8 0 *
Wi

0101100
+21 0 +14 0 +10 0 *
Fa
0  1.50000056843419e-07 4 0

0111000
+6 0 *
Wi

0101100
+20 0 +13 0 +9 0 *
Fa
0  1.50000056843419e-07 5 0

0111000
+4 0 *
Sh

0101100
+18 0 +11 0 +7 0 +5 1 -3 4 *
So

1100000
-2 0 *

+1 0 