DBRep_DrawableShape

CASCADE Topology V1, (c) Matra-Datavision
Locations 7
1
              1               0               0               0 
              0               1               0               0 
              0               0               1              -1 
1
             -1               0 -1.22464679914735e-16               0 
              0               1               0               0 
1.22464679914735e-16               0              -1               0 
1
              1               0               0 72.0000000000001 
              0               1               0         -1236.1 
              0               0               1              72 
1
              1               0               0               0 
              0               1               0               0 
              0               0               1             -18 
1
              1               0               0               0 
              0               1               0               0 
              0               0               1               1 
2  2 1 3 1 4 1 5 1 0
2  5 -1 4 -1 3 -1 2 -1 0
Curve2ds 3
8 6.9445436500088693 60.944543650008868
1 6.9445436500088693 64 1 0 
8 -46.629833997173662 29.737698370973476
1 34.91681547501328 31.027728174995445 -0.70710678118654757 -0.70710678118654757 
8 5 59
1 13.889087300017739 5 0 1 
Curves 3
1 11.055456349991131 1290.0999999999999 54 1 0 0 
1 39.027728174995538 1257.1277281749954 54 -0.70710678118654757 -0.70710678118654757 0 
1 18 1231.0999999999999 54 0 1 -0 
Polygon3D 0
PolygonOnTriangulations 0
Surfaces 1
1 4.1109126999822614 1226.0999999999999 54 0 0 1 1 0 -0 -0 1 0 
Triangulations 0

TShapes 7
Ve
1.50000012306961e-07
54 54 1
0 0

0101101
*
Ve
1.50000071054274e-07
4.9737991503207e-14 54 1.00000000000001
0 0

0101101
*
Ed
 1.50000012306961e-07 1 1 0
1  1 0 6.94454365000887 60.9445436500089
2  1 1 0 6.94454365000887 60.9445436500089
0

0101000
+7 7 -6 7 *
Ve
1.50000042632564e-07
54 0 1
0 0

0101101
*
Ed
 1.50000012306961e-07 1 1 0
1  2 0 -46.6298339971737 29.7376983709735
2  2 1 0 -46.6298339971737 29.7376983709735
0

0101000
+6 7 -4 7 *
Ed
 1.50000012306961e-07 1 1 0
1  3 0 5 59
2  3 1 0 5 59
0

0101000
+4 7 -7 7 *
Wi

0101100
-5 6 -3 6 -2 6 *

-1 1 