DBRep_DrawableShape

CASCADE Topology V1, (c) Matra-Datavision
Locations 14
1
              1               0               0               0 
              0               1               0               0 
              0               0               1             126 
1
              1               0               0               0 
              0               1               0               0 
              0               0               1               0 
1
             -1               0 -1.22464679914735e-16               0 
              0               1               0               0 
1.22464679914735e-16               0              -1               0 
1
              1               0               0             582 
              0               1               0         -1236.1 
              0               0               1             162 
1
              1               0               0               0 
              0               1               0               0 
              0               0               1              -0 
1
              1               0               0               0 
              0               1               0               0 
              0               0               1               1 
1
              1               0               0               0 
              0               1               0               0 
              0               0               1              -1 
2  1 1 2 1 3 1 4 1 5 1 6 1 7 1 0
2  7 -1 6 -1 5 -1 4 -1 3 -1 2 -1 1 -1 0
1
              1               0               0               0 
              0               1               0               0 
              0               0               1              18 
2  1 1 2 1 3 1 4 1 5 1 6 1 7 1 10 1 0
2  10 -1 7 -1 6 -1 5 -1 4 -1 3 -1 2 -1 1 -1 0
2  1 1 2 1 3 1 4 1 5 1 6 1 0
2  7 1 10 1 0
Curve2ds 18
1 -1.7403277740120206e-30 -1.4210854715202004e-14 -1.2246467991473532e-16 -1 
1 54 -1.4210854715202004e-14 0 -1 
1 54 7.5977619998062963e-15 -1.2246467991473532e-16 -1 
1 -6.1529878524559456e-31 7.1054273576010019e-15 8.6595605623549329e-17 -1 
1 0 0 1 0 
1 19.09188309203671 19.091883092036369 -1 0 
1 -2.2043642384652358e-15 -18 1 0 
1 19.09188309203671 19.091883092036369 -1 0 
1 76.367532368147138 -1.4703189357407301e-14 8.6595605623549329e-17 -1 
1 0 -1.4210854715202004e-14 0 -1 
1 0 -0 1 -2.4651903288156613e-32 
1 -34.90811690796329 19.091883092036369 0.70710678118654757 -0.70710678118654757 
1 1.558720901223888e-15 -18 1 -2.4651903288156613e-32 
1 -34.90811690796329 19.091883092036369 0.70710678118654757 -0.70710678118654757 
1 0 0 1 0 
1 19.09188309203671 -34.908116907963631 0 1 
1 0 -18 1 0 
1 19.09188309203671 -34.908116907963631 0 1 
Curves 9
1 0 54 2.8421709430404007e-14 0 0 1 
1 54 54 0 0 0 1 
1 582 1290.0999999999999 36 -1 0 0 
1 582 1290.0999999999999 36 -1 0 0 
1 0 0 2.8421709430404007e-14 0 0 1 
1 528 1290.0999999999999 36 0.70710678118654757 -0.70710678118654757 0 
1 528 1290.0999999999999 36 0.70710678118654757 -0.70710678118654757 0 
1 582 1236.0999999999999 36 0 1 0 
1 582 1236.0999999999999 36 0 1 0 
Polygon3D 0
PolygonOnTriangulations 0
Surfaces 5
1 0 54 1.4210854715202004e-14 -0 1 0 1 0 -1.2246467991473532e-16 -1.2246467991473532e-16 0 -1 
1 0 0 1.4210854715202004e-14 -1 0 0 0 1 0 0 0 -1 
1 54 54 7.1054273576010019e-15 0.70710678118654757 -0.70710678118654757 0 -0.70710678118654757 -0.70710678118654757 8.6595605623549329e-17 -6.1232339957367648e-17 -6.1232339957367648e-17 -1 
1 562.90811690796329 1271.0081169079635 36.000000000000007 0 0 1 1 0 -0 -0 1 0 
1 562.90811690796329 1271.0081169079635 36.000000000000007 0 0 1 1 0 -0 -0 1 0 
Triangulations 0

TShapes 27
Ve
1.50000014210855e-07
0 54 2.8421709430404e-14
0 0

0101101
*
Ve
1.50000014210855e-07
0 54 18
0 0

0101101
*
Ed
 1.50000014210855e-07 1 1 0
1  1 0 0 18
2  1 1 0 0 18
2  2 2 0 0 18
0

0101000
+27 0 -26 0 *
Ve
1.50000010436096e-07
54 54 0
0 0

0101101
*
Ve
1.50000010436096e-07
54 54 18
0 0

0101101
*
Ed
 1.50000010436096e-07 1 1 0
1  2 0 0 18
2  3 1 0 0 18
2  4 3 0 0 18
0

0101000
+24 0 -23 0 *
Ed
 1.50000010436096e-07 1 1 0
1  3 0 0 54
2  5 1 9 0 54
2  6 4 0 0 54
0

0101000
+27 9 -24 9 *
Ed
 1.50000010436096e-07 1 1 0
1  4 0 0 54
2  7 1 12 0 54
2  8 5 0 0 54
0

0101000
+26 12 -23 12 *
Wi

0101100
+25 0 -22 0 -21 8 +20 11 *
Fa
0  1.50000010436096e-07 1 0

0101000
+19 0 *
Ve
1.50000014210855e-07
0 0 2.8421709430404e-14
0 0

0101101
*
Ve
1.50000014210855e-07
0 0 18
0 0

0101101
*
Ed
 1.50000014210855e-07 1 1 0
1  5 0 0 18
2  9 3 0 0 18
2  10 2 0 0 18
0

0101000
+17 0 -16 0 *
Ed
 1.50000010204393e-07 1 1 0
1  6 0 0 76.3675323681471
2  11 3 9 0 76.3675323681471
2  12 4 0 0 76.3675323681471
0

0101000
+24 9 -17 9 *
Ed
 1.50000010204393e-07 1 1 0
1  7 0 0 76.3675323681471
2  13 3 12 0 76.3675323681471
2  14 5 0 0 76.3675323681471
0

0101000
+23 12 -16 12 *
Wi

0101100
+22 0 -15 0 -14 8 +13 11 *
Fa
0  1.50000010204393e-07 3 0

0101000
+12 0 *
Ed
 1.50000014210855e-07 1 1 0
1  8 0 0 54
2  15 2 9 0 54
2  16 4 0 0 54
0

0101000
+17 9 -27 9 *
Ed
 1.50000014210855e-07 1 1 0
1  9 0 0 54
2  17 2 12 0 54
2  18 5 0 0 54
0

0101000
+16 12 -26 12 *
Wi

0101100
+15 0 -25 0 -10 8 +9 11 *
Fa
0  1.50000014210855e-07 2 0

0101000
+8 0 *
Wi

0101100
+21 13 +14 13 +10 13 *
Fa
0  1e-07 4 13

0101000
+6 0 *
Wi

0101100
+20 13 +13 13 +9 13 *
Fa
0  1e-07 5 13

0101000
+4 0 *
Sh

0101100
+18 0 +11 0 +7 0 +5 7 -3 14 *
So

1100000
+2 0 *

+1 0 