DBRep_DrawableShape

CASCADE Topology V1, (c) Matra-Datavision
Locations 10
1
              1               0               0               0 
              0               1               0               0 
              0               0               1              -1 
2  1 -1 0
1
              1               0               0               0 
              0               1               0               0 
              0               0               1               0 
1
             -1               0 -1.22464679914735e-16               0 
              0               1               0               0 
1.22464679914735e-16               0              -1               0 
1
              1               0               0 585.889087296526 
              0               1               0         -1236.1 
              0               0               1             126 
2  3 1 4 1 5 1 0
2  3 -1 0
2  5 -1 4 -1 3 -1 0
2  4 1 5 1 0
2  5 -1 4 -1 0
Curve2ds 17
1 21.408116907963219 5.5918830920367739 -0.70710678118654757 -0.70710678118654757 
2 38.183766184073491 -86 -1 -0 -0 1 5.5
1 0 73.639610306789564 1 0 
2 38.183766184073491 -86 -1 -0 -0 1 5.5
1 -6.2831853071795782 73.639610306787816 1 2.7921223518704403e-13 
8 35.455843517780679 73.639610906789329
1 91.740337374873206 86.401798248857631 -0.70710678118654757 -0.70710678118654757 
1 3.9559325957162925 3.4106051316484809e-13 2.1940625142139116e-16 1 
1 -19.091883092036781 -39.908116907963226 0 1 
1 12.908116907963219 19.091883092036774 1 0 
8 35.455843517780927 73.639610906789414
1 86.401798248857631 91.740337374873434 -0.70710678118654757 -0.70710678118654757 
1 -0.81433994212653105 9.2370555648813024e-14 2.0650000133778264e-16 1 
3 54.000000000000227 -86 -1 0 -0 -1 7.7781745930520225 5.5
7 0 0  3 25 23  1.5707963267949172 35.455844122715916  1.6069347551119024 35.654613681815178  1.6792116117458851 36.052123853555599  1.7876268966968836 36.641410599494847  1.8960421816477961 37.216769767687936  2.0044574665988448 37.771453170281674  2.1128727515497552 38.298945397801063  2.2212880365007446 38.793053010066679  2.3297033214517207 39.247973863001633  2.4381186064026981 39.658366150246927  2.5465338913536759 40.019410884571897  2.6549491763046409 40.326868549606395  2.7633644612556312 40.577128864132384  2.8717797462065948 40.767253180549837  2.98019503115757 40.8950089883134  3.0886103161085408 40.958896136619693  3.1970256010595235 40.958164422041158  3.3054408860104862 40.892822500689839  3.4138561709614756 40.763637402263079  3.522271455912426 40.572126957540434  3.6306867408634265 40.320536622816526  3.7391020258143719 40.011833089253216  3.8475173107653768 39.649594894277925  3.9197941673993619 39.375364054937776  3.955932595716344 39.230761340350909 
 4.712388980384719 4 4.820804265335692 1 4.9292195502866649 1 5.0376348352376379 1 5.14605012018861 1 5.2544654051395829 1 5.3628806900905559 1 5.4712959750415289 1 5.5797112599925018 1 5.6881265449434748 1 5.7965418298944478 1 5.9049571148454199 1 6.0133723997963928 1 6.1217876847473658 1 6.2302029696983388 1 6.3386182546493117 1 6.4470335396002847 1 6.5554488245512577 1 6.6638641095022297 1 6.7722793944532036 1 6.8806946794041757 1 6.9891099643551486 1 7.0975252493061216 4
3 1.1368999999999999e-13 -86 1 0 -0 1 7.7781745930520225 5.5
7 0 0  3 25 23  -0.81433994212652117 39.230761340351364  -0.8020014581549082 39.280115893898028  -0.77732449021168037 39.377098603053781  -0.74030903829683736 39.51720231914247  -0.70329358638200079 39.651741565162283  -0.66627813446716111 39.780532608760232  -0.62926268255230999 39.903398851178544  -0.59224723063747031 40.020172009212835  -0.55523177872262741 40.130692093876604  -0.51821632680779173 40.234807697077471  -0.48120087489294772 40.332376180959564  -0.44418542297810837 40.42326387816113  -0.4071699710632592 40.507346273636578  -0.37015451914842346 40.584508175597215  -0.33313906723358061 40.654643873196285  -0.29612361531873721 40.717657281503911  -0.25910816340389198 40.773462072653885  -0.2220927114890536 40.821981795915839  -0.18507725957421028 40.863149975698114  -0.14806180765936977 40.89691022775807  -0.11104635574452419 40.923216242616476  -0.074030903829685579 40.942032199185469  -0.037015451914840264 40.953331506943613  -0.012338483971612597 40.955844982159867  0 40.95584412271576 
 5.4688453650530651 4 5.5058608169679069 1 5.5428762688827486 1 5.5798917207975904 1 5.6169071727124322 1 5.653922624627274 1 5.6909380765421167 1 5.7279535284569585 1 5.7649689803718003 1 5.8019844322866421 1 5.8389998842014839 1 5.8760153361163256 1 5.9130307880311674 1 5.9500462399460092 1 5.987061691860851 1 6.0240771437756928 1 6.0610925956905355 1 6.0981080476053773 1 6.1351234995202191 1 6.1721389514350609 1 6.2091544033499027 1 6.2461698552647444 1 6.2831853071795862 4
3 1.1368999999999999e-13 -86 1 0 -0 1 7.7781745930520225 5.5
7 0 0  3 25 23  0 40.95584412271576  0.023799944345378243 40.955855983770931  0.071399833036133842 40.946488430483306  0.14279966607226324 40.904491036085709  0.21419949910839708 40.834719743540099  0.28559933214453004 40.737541303098105  0.35699916518066388 40.61344790964106  0.42839899821679062 40.463072719624165  0.49979883125292091 40.287181794856437  0.57119866428905919 40.086671492965678  0.64259849732518859 39.862563553004641  0.71399833036131177 39.615999981814632  0.7853981633974545 39.348237209722953  0.85679799643358123 39.060639694744978  0.92819782946972218 38.754672967787251  0.99959766250585158 38.431896165275596  1.070997495541989 38.093954083439826  1.1423973285780997 37.742568799021782  1.2137971616142362 37.379530885830199  1.2851969946503861 37.006690320723173  1.356596827686495 36.625946943338796  1.4279966607226546 36.239241197465958  1.4993964937587689 35.848542666111506  1.5469963824495236 35.586744835342493  1.5707963267949072 35.455844122715916 
 0 4 0.071399833036131677 1 0.14279966607226335 1 0.21419949910839503 1 0.28559933214452671 1 0.35699916518065838 1 0.42839899821679006 1 0.49979883125292174 1 0.57119866428905341 1 0.64259849732518504 1 0.71399833036131677 1 0.7853981633974485 1 0.85679799643358012 1 0.92819782946971174 1 0.99959766250584348 1 1.0709974955419752 1 1.1423973285781068 1 1.2137971616142385 1 1.2851969946503701 1 1.3565968276865019 1 1.4279966607226335 1 1.4993964937587652 1 1.570796326794897 4
Curves 11
1 44.389087296525759 40.5 0.99999999999998579 -0.70710678118654757 -0.70710678118654757 8.6595605623549341e-17 
2 554.99999999999989 1263.0999999999999 122 -0.70710678118654757 -0.70710678118654757 0 -0.70710678118654757 0.70710678118654757 0 -0 0 -1 5.5
2 554.99999999999989 1263.0999999999999 122 -0.70710678118654757 -0.70710678118654757 0 -0.70710678118654757 0.70710678118654757 0 -0 0 -1 5.5
1 609.74033737487321 1312.5017982488575 126 -0.70710678118654757 -0.70710678118654757 0 
1 3.8890872965257586 -5 1 0 1 0 
1 35.889087296525759 54 1 1 0 -1.2246467991473532e-16 
1 604.40179824885763 1317.8403373748733 126 -0.70710678118654757 -0.70710678118654757 0 
3 582 1290.1000000000001 122 -1 0 0 0 -1 0 0 0 1 7.7781745930520225 5.5
3 581.99999999999989 1290.0999999999999 122 0 -1 0 -1 0 0 -0 -0 -1 7.7781745930520225 5.5
3 581.99999999999989 1290.0999999999999 122 0 -1 0 -1 0 0 -0 -0 -1 7.7781745930520225 5.5
1 3.8890872965257586 54 0 0 0 1 
Polygon3D 0
PolygonOnTriangulations 0
Surfaces 10
1 57.889087296525759 54 -1.5864127894050931e-14 0.70710678118654757 -0.70710678118654757 0 -0.70710678118654757 -0.70710678118654757 8.6595605623549329e-17 -6.1232339957367648e-17 -6.1232339957367648e-17 -1 
1 22.98097038856254 34.908116907963226 0.99999999999999356 0 0 1 1 0 -0 -0 1 0 
1 528 1290.0999999999999 36 0.70710678118654757 0.70710678118654757 -0 0.70710678118654757 -0.70710678118654757 0 0 -0 -1 
2 607.07106781186542 1315.1710678118654 122 -0.70710678118654757 -0.70710678118654757 0 -0.70710678118654757 0.70710678118654757 0 0 0 -1 5.5
1 518 1226.0999999999999 126 0 0 1 1 0 -0 -0 1 0 
1 518 1226.0999999999999 126 0 0 1 1 0 -0 -0 1 0 
1 582 1236.0999999999999 36 -1 0 0 0 1 0 0 0 -1 
1 582 1290.0999999999999 36 0 -1 0 -1 0 0 -0 -0 -1 
1 3.8890872965257586 0 0 -1 0 0 0 1 0 0 0 -1 
1 3.8890872965257586 54 3.9188697572715303e-15 -0 1 0 1 0 -1.2246467991473532e-16 -1.2246467991473532e-16 0 -1 
Triangulations 0

TShapes 31
Ve
1.50000017441991e-07
33.5583568595337 29.6692695630079 0
0 0

0101101
*
Ve
1.50000254211497e-07
28.2198177335181 24.3307304369921 0
0 0

0101101
*
Ed
 1.50000014648214e-07 1 1 0
1  1 0 15.3169658744013 22.8668003096721
2  1 2 0 15.3169658744013 22.8668003096721
0

0101000
+31 2 -30 2 *
Ve
1.00000114e-07
34.7781745930517 30.889087296526 4
0 0

0101101
*
Ed
 1.0000008541303e-07 1 1 0
1  2 0 0 3.95593259571632
2  2 3 0 0 3.95593259571632
2  3 4 7 0 3.95593259571632
0

0101000
+28 8 -30 8 *
Ed
 1.00000080388734e-07 1 1 0
1  3 0 5.46884536505306 6.28318530717959
2  4 3 0 5.46884536505306 6.28318530717959
2  5 4 7 5.46884536505306 6.28318530717959
0

0101000
+31 8 -28 8 *
Wi

0101100
-29 1 +27 6 +26 6 *
Fa
0  1e-07 1 0

0101000
+25 0 *
Ve
1.50000017441991e-07
3.88908729652576 48.6614608739847 0
0 0

0101101
*
Ed
 1.50000017441991e-07 1 1 0
1  4 0 39.2307613403508 73.6396103067894
2  6 5 0 39.2307613403508 73.6396103067894
2  7 4 0 39.2307613403508 73.6396103067894
0

0101000
+23 10 -30 10 *
Ve
1.50000014648214e-07
3.88908729652576 54 1
0 0

0101101
*
Ed
 1.50000014648214e-07 1 1 0
1  5 0 53.6614608739847 59
2  8 2 0 53.6614608739847 59
0

0101000
+23 2 -21 0 *
Ve
1.50000017441991e-07
9.22762642254156 54 0
0 0

0101101
*
Ed
 1.50000014648214e-07 1 1 0
1  6 0 -32 -26.6614608739842
2  9 2 0 -32 -26.6614608739842
0

0101000
+21 0 -19 2 *
Ed
 1.50000017441991e-07 1 1 0
1  7 0 39.2307613403513 73.6396103067894
2  10 6 0 39.2307613403513 73.6396103067894
2  11 4 0 39.2307613403513 73.6396103067894
0

0101000
+19 10 -31 10 *
Wi

0101100
-29 1 +22 9 -20 1 -18 1 -17 9 *
Fa
0  1.50000014648214e-07 2 1

0101000
+16 0 *
Ve
2.30093905254004e-05
3.88908729652576 54 9.5
0 0

0101101
*
Ed
 1.00000000444089e-07 1 1 0
1  8 0 4.71238898038472 7.09752524930612
2  12 7 0 4.71238898038472 7.09752524930612
2  13 4 7 4.71238898038472 7.09752524930612
0

0101000
+14 8 -23 8 *
Ve
5.53059249029942e-06
11.667261889578 54 4
0 0

0101101
*
Ed
 1e-07 1 1 0
1  9 0 5.46884536505307 6.28318530717959
2  14 8 0 5.46884536505307 6.28318530717959
2  15 4 7 5.46884536505307 6.28318530717959
0

0101000
+19 8 -12 8 *
Ed
 5.53059249029942e-06 1 1 0
1  10 0 0 1.5707963267949
2  16 8 0 0 1.5707963267949
2  17 4 7 0 1.5707963267949
0

0101000
+12 8 -14 8 *
Wi

0101100
+13 6 +22 9 -27 6 -26 6 -17 9 +11 6 +10 6 *
Fa
0  1e-07 4 9

0101000
+9 0 *
Ed
 1.50000014648214e-07 1 1 0
1  11 0 0 9.5
0

0101000
+21 1 -14 0 *
Wi

0101100
-20 1 -7 0 -13 6 *
Fa
0  1e-07 9 0

0101000
+6 0 *
Wi

0101100
-18 1 -11 6 -10 6 +7 0 *
Fa
0  1e-07 10 0

0101000
+4 0 *
Sh

0101100
+24 0 -15 0 +8 0 +5 0 +3 0 *
So

0100000
+2 0 *

+1 0 