DBRep_DrawableShape

CASCADE Topology V1, (c) Matra-Datavision
Locations 5
1
              1               0               0               0 
              0               1               0               0 
              0               0               1               0 
1
             -1               0 -1.22464679914735e-16               0 
              0               1               0               0 
1.22464679914735e-16               0              -1               0 
1
              1               0               0 585.889087300015 
              0               1               0         -1236.1 
              0               0               1 71.9999999999999 
2  1 1 2 1 3 1 0
2  3 -1 2 -1 1 -1 0
Curve2ds 10
3 54.000000000000227 -28 -1 0 -0 -1 7.7781745930520225 5.5
7 0 0  8 23 4  0.80341859332213506 31.637467504303459  0.94955447208886257 32.21595150722424  1.0956903508557005 32.887628873466461  1.2418262296224754 33.633673690913042  1.3879621083891038 34.4310180311968  1.5340979871557963 35.253625942587405  1.6802338659226068 36.07428734675792  1.8263697446892322 36.866536651068188  2.1917094416060516 38.715947243403598  2.410913259750032 39.70750234737352  2.6301170779170207 40.499715412035584  2.8493208960353513 41.023457801842596  3.0685247142064327 41.234140815970022  3.2877285323511387 41.121332209600951  3.5069323505066232 40.707930776585066  3.9453399868068062 39.37736223568411  4.1645438049599761 38.460194430204865  4.3837476230946777 37.339863130531739  4.602951441273035 36.090864641271764  4.8221552593913657 34.806159809289966  5.0413590775578996 33.582605231975322  5.2605628957073582 32.505193508684641  5.4797667138574502 31.637467504303459 
 3.945011246911942 9 5.1140982770457644 7 6.8677288222464972 7 8.62135936744723 9
3 1.1368999999999999e-13 -28 1 0 -0 1 7.7781745930520225 5.5
7 0 0  7 14 3  3.9450112469156329 31.637467504318465  4.1120236797916299 32.29859207908639  4.2790361126674483 33.083974471617694  4.4460485455442935 33.963493222494435  4.6130609784190924 34.898542839920992  4.7800734112958239 35.845431113759332  4.9470858441715979 36.760856045803429  5.2811107099235919 38.451745730220374  5.4481231427997798 39.227209802998914  5.6151355756752181 39.894180319537554  5.7821480085519497 40.418904150606977  5.9491604414275159 40.776862443475693  6.1161728743035892 40.955844122715916  6.2831853071795862 40.955844122715916 
 3.9450112469156324 8 5.1140982770476091 6 6.2831853071795862 8
3 1.1368999999999999e-13 -28 1 0 -0 1 7.7781745930520225 5.5
7 0 0  7 14 3  0 40.955844122715916  0.16701243287599671 40.955844122715916  0.33402486575201351 40.776862443466598  0.50103729862786395 40.418904150628805  0.66804973150414071 39.894180319519364  0.83506216437990588 39.22720980300619  1.0020745972559946 38.451745730220374  1.3360994630079881 36.760856045803429  1.5031118958837624 35.845431113769337  1.6701243287604939 34.898542839880974  1.8371367616359748 33.963493222541729  2.0041491945123084 33.083974471603142  2.1711616273879568 32.29859207908639  2.3381740602639534 31.637467504318465 
 0 8 1.1690870301319769 6 2.3381740602639538 8
1 6.2831853071795862 -0 0 1 
1 0 -0 0 1 
2 38.183766184073491 -28 -1 -0 -0 1 5.5
1 0 73.639610306789365 1 0 
Curves 6
1 3.8890873000153761 54 0 0 0 1 
3 582 1290.1000000000001 64 -1 0 0 0 -1 0 0 0 1 7.7781745930520225 5.5
3 581.99999999999989 1290.0999999999999 64 0 -1 0 -1 0 0 -0 -0 -1 7.7781745930520225 5.5
3 581.99999999999989 1290.0999999999999 64 0 -1 0 -1 0 0 -0 -0 -1 7.7781745930520225 5.5
1 603.18198051533943 1319.0601551083914 64 -0.70710678118654757 -0.70710678118654757 0 
2 554.99999999999989 1263.0999999999999 64 -0.70710678118654757 -0.70710678118654757 0 -0.70710678118654757 0.70710678118654757 0 -0 0 -1 5.5
Polygon3D 0
PolygonOnTriangulations 0
Surfaces 7
1 3.8890873000153761 0 0 -1 0 0 0 1 0 0 0 -1 
1 582 1236.0999999999999 36 -1 0 0 0 1 0 0 0 -1 
2 607.07106781186542 1315.1710678118654 64 -0.70710678118654757 -0.70710678118654757 0 -0.70710678118654757 0.70710678118654757 0 -0 0 -1 5.5
1 3.8890873000153761 54 -3.1865576003294716e-15 -0 1 0 1 0 -1.2246467991473532e-16 -1.2246467991473532e-16 0 -1 
1 582 1290.0999999999999 36 0 -1 0 -1 0 0 -0 -0 -1 
1 528 1290.0999999999999 36 0.70710678118654757 0.70710678118654757 -0 0.70710678118654757 -0.70710678118654757 0 0 -0 -1 
1 57.889087300015376 54 -8.7587005364499295e-15 0.70710678118654757 -0.70710678118654757 0 -0.70710678118654757 -0.70710678118654757 8.6595605623549329e-17 -6.1232339957367648e-17 -6.1232339957367648e-17 -1 
Triangulations 0

TShapes 20
Ve
1.5000000721645e-07
3.88908730001538 54 2.5
0 0

0101101
*
Ve
1.5000000721645e-07
3.88908730001538 54 13.5
0 0

0101101
*
Ed
 1.5000000721645e-07 1 1 0
1  1 0 2.5 13.5
0

0101000
+20 0 -19 0 *
Ed
 1.50000000444089e-07 1 1 0
1  2 0 4.71238898038472 7.85398163397445
2  1 2 0 4.71238898038472 7.85398163397445
2  2 3 0 4.71238898038472 7.85398163397445
0

0101000
+19 5 -20 5 *
Wi

0101100
-18 0 -17 4 *
Fa
0  1.5e-07 1 0

0101000
+16 0 *
Ve
1.5000000721645e-07
11.6672618930676 54 8
0 0

0101101
*
Ed
 1.5000000721645e-07 1 1 0
1  3 0 4.71238898038469 6.28318530717959
2  3 5 0 4.71238898038469 6.28318530717959
2  4 3 0 4.71238898038469 6.28318530717959
0

0101000
+20 5 -14 5 *
Ed
 1.5000000721645e-07 1 1 0
1  4 0 0 1.5707963267949
2  5 5 0 0 1.5707963267949
2  6 3 0 0 1.5707963267949
0

0101000
+14 5 -19 5 *
Wi

0101100
-13 4 -12 4 +18 0 *
Fa
0  1.5000000721645e-07 4 0

0101000
+11 0 *
Ve
1.50000089000659e-07
34.7781745965414 30.889087296526 7.99999999999999
0 0

0101101
*
Ed
 1e-07 1 1 0
1  5 0 40.9558441227158 73.6396103067893
3  7 8CN 3 0 40.9558441227158 73.6396103067893
0

0101000
+14 5 -9 5 *
Ed
 1.50000089000659e-07 1 1 0
1  6 0 0 6.28318530717959
2  9 6 0 0 6.28318530717959
2  10 3 0 0 6.28318530717959
0

0101000
+9 5 -9 5 *
Wi

0101100
+8 4 +13 4 +17 4 +12 4 -8 4 -7 4 *
Fa
0  1e-07 3 4

0101000
+6 0 *
Wi

0101100
+7 4 *
Fa
0  1.50000008611925e-07 7 0

0101000
+4 0 *
Sh

0101100
+15 0 +10 0 +5 0 +3 0 *
So

0100000
+2 0 *

+1 0 