DBRep_DrawableShape

CASCADE Topology V1, (c) Matra-Datavision
Locations 5
1
             -1               0 -1.22464679914735e-16               0 
              0               1               0               0 
1.22464679914735e-16               0              -1               0 
1
              1               0               0 584.669269566496 
              0               1               0         -1236.1 
              0               0               1             144 
2  1 1 2 1 0
1
              1               0               0               0 
              0               1               0               0 
              0               0               1               0 
2  4 -1 0
Curve2ds 30
1 54 0 0 -1 
1 0 0 0 -1 
8 -32 22
1 32 -108 1 0 
8 -32 22
1 32 64 -1 0 
1 0 -0 0 -1 
1 54 0 0 -1 
3 1.1368999999999999e-13 -86 1 0 -0 1 7.7781745930520225 5.5
7 0 0  7 14 3  3.9450112469156329 31.637467504318465  4.1120236797916299 32.29859207908639  4.2790361126674483 33.083974471617694  4.4460485455442935 33.963493222494435  4.6130609784190924 34.898542839920992  4.7800734112958239 35.845431113759332  4.9470858441715979 36.760856045803429  5.2811107099235919 38.451745730220374  5.4481231427997798 39.227209802998914  5.6151355756752181 39.894180319537554  5.7821480085519497 40.418904150606977  5.9491604414275159 40.776862443475693  6.1161728743035892 40.955844122715916  6.2831853071795862 40.955844122715916 
 3.9450112469156324 8 5.1140982770476091 6 6.2831853071795862 8
8 -32 22
1 32 -90 1 0 
8 -32 22
1 32 64 -1 0 
8 -19.091883092036785 57.275649276110357
1 19.091883092036785 -90 1 0 
8 -19.091883092036785 57.275649276110357
1 23.5 50.5 0.70710678118654757 -0.70710678118654757 
2 38.183766184073491 -86 -1 -0 -0 1 5.5
1 0 73.639610306789365 1 0 
8 -19.091883092036785 57.275649276110357
1 19.091883092036785 -90 1 0 
8 -19.091883092036785 57.275649276110357
1 23.5 50.5 0.70710678118654757 -0.70710678118654757 
1 76.367532368147138 0 0 -1 
1 0 0 0 -1 
8 -19.091883092036785 57.275649276110357
1 19.091883092036785 -108 1 0 
8 -19.091883092036785 57.275649276110357
1 23.5 50.5 0.70710678118654757 -0.70710678118654757 
8 5 59
1 64 5 0 1 
8 5 59
1 -5 -108 1 0 
8 5 59
1 -5 -90 1 0 
8 5 59
1 64 5 0 1 
3 54.000000000000227 -86 -1 0 -0 -1 7.7781745930520225 5.5
7 0 0  8 23 4  0.80341859332213417 31.637467504303459  0.94955447208886168 32.21595150722424  1.0956903508555724 32.887628873466461  1.2418262296222693 33.633673690913042  1.3879621083888765 34.4310180311968  1.5340979871556755 35.253625942587405  1.6802338659226494 36.07428734675792  1.8263697446892322 36.866536651068188  2.1917094416060516 38.715947243403598  2.4109132597532152 39.70750234737352  2.6301170779079257 40.499715412035584  2.8493208960462653 41.023457801842596  3.0685247142046137 41.234140815970022  3.287728532352503 41.121332209600951  3.5069323505066232 40.707930776585066  3.9453399868068062 39.37736223568411  4.1645438049599761 38.460194430204865  4.3837476230946777 37.339863130531739  4.602951441273035 36.090864641271764  4.8221552593913657 34.806159809289966  5.0413590775578996 33.582605231975322  5.2605628957073582 32.505193508684641  5.4797667138574502 31.637467504303459 
 3.945011246911942 9 5.1140982770457644 7 6.8677288222464972 7 8.62135936744723 9
8 35.455843517780927 73.639610906789414
1 5.4688453650530642 -8.0380146982861334e-14 0 1 
8 35.455843517780927 73.639610906789414
1 86.401798248857631 91.740337374873434 -0.70710678118654757 -0.70710678118654757 
8 35.455843517780679 73.639610906789329
1 3.9559325957163152 8.0380146982861334e-14 0 1 
8 35.455843517780679 73.639610906789329
1 91.740337374873206 86.401798248857631 -0.70710678118654757 -0.70710678118654757 
Curves 15
1 528 1290.0999999999999 36 0 0 1 
1 550 1290.0999999999999 144 -1 0 0 
1 582 1290.0999999999999 36 0 0 1 
3 581.99999999999989 1290.0999999999999 122 0 -1 0 -1 0 0 -0 -0 -1 7.7781745930520225 5.5
1 550 1290.0999999999999 126 -1 0 0 
1 541.5 1276.5999999999999 126 0.70710678118654757 -0.70710678118654757 0 
2 554.99999999999989 1263.0999999999999 122 -0.70710678118654757 -0.70710678118654757 0 -0.70710678118654757 0.70710678118654757 0 -0 0 -1 5.5
1 541.5 1276.5999999999999 126 0.70710678118654757 -0.70710678118654757 0 
1 582 1236.0999999999999 36 0 0 1 
1 541.5 1276.5999999999999 144 0.70710678118654757 -0.70710678118654757 0 
1 582 1231.0999999999999 144 0 1 -0 
1 582 1231.0999999999999 126 0 1 -0 
3 582 1290.1000000000001 122 -1 0 0 0 -1 0 0 0 1 7.7781745930520225 5.5
1 604.40179824885763 1317.8403373748733 126 -0.70710678118654757 -0.70710678118654757 0 
1 609.74033737487321 1312.5017982488575 126 -0.70710678118654757 -0.70710678118654757 0 
Polygon3D 0
PolygonOnTriangulations 0
Surfaces 7
1 582 1290.0999999999999 36 0 -1 0 -1 0 0 -0 -0 -1 
1 528 1290.0999999999999 36 0.70710678118654757 0.70710678118654757 -0 0.70710678118654757 -0.70710678118654757 0 0 -0 -1 
1 518 1226.0999999999999 144 0 0 1 1 0 -0 -0 1 0 
1 582 1236.0999999999999 36 -1 0 0 0 1 0 0 0 -1 
2 607.07106781186542 1315.1710678118654 122 -0.70710678118654757 -0.70710678118654757 0 -0.70710678118654757 0.70710678118654757 0 -0 0 -1 5.5
1 518 1226.0999999999999 126 0 0 1 1 0 -0 -0 1 0 
1 518 1226.0999999999999 126 0 0 1 1 0 -0 -0 1 0 
Triangulations 0

TShapes 42
Ve
1.5e-07
528 1290.1 126
0 0

0101101
*
Ve
1.5e-07
528 1290.1 144
0 0

0101101
*
Ed
 1e-07 1 1 0
1  1 0 90 108
2  1 1 0 90 108
2  2 2 0 90 108
0

0101000
+42 5 -41 5 *
Ve
1.50000028421709e-07
582 1290.1 144
0 0

0101101
*
Ed
 1.5e-07 1 1 0
1  2 0 -32 22
2  3 1 4 -32 22
2  4 3 0 -32 22
0

0101000
+39 0 -41 0 *
Ve
2.7823840344797e-06
582 1290.1 127.5
0 0

0101101
*
Ed
 1e-07 1 1 0
1  3 0 91.5 108
2  5 1 0 91.5 108
2  6 4 0 91.5 108
0

0101000
+37 5 -39 5 *
Ve
1.5e-07
576.661460873984 1290.1 126
0 0

0101101
*
Ed
 1e-07 1 1 0
1  4 0 4.71238898038469 5.46884536505307
2  7 1 0 4.71238898038469 5.46884536505307
2  8 5 0 4.71238898038469 5.46884536505307
0

0101000
+37 5 -35 5 *
Ed
 1.5e-07 1 1 0
1  5 0 -26.6614608739842 22
2  9 1 4 -26.6614608739842 22
2  10 6 0 -26.6614608739842 22
0

0101000
+35 0 -42 0 *
Wi

0101100
-40 4 +38 0 +36 4 -34 4 -33 0 *
Fa
0  1e-07 1 4

0101000
+32 0 *
Ve
1.5e-07
552.330730436992 1265.76926956301 126
0 0

0101101
*
Ed
 1.5e-07 1 1 0
1  6 0 -19.0918830920368 15.3169658744013
2  11 2 4 -19.0918830920368 15.3169658744013
2  12 6 0 -19.0918830920368 15.3169658744013
0

0101000
+42 0 -30 0 *
Ve
1.50000254211497e-07
557.669269563008 1260.43073043699 126
0 0

0101101
*
Ed
 1e-07 1 1 0
1  7 0 3.95593259571632 5.46884536505306
2  13 2 0 3.95593259571632 5.46884536505306
2  14 5 0 3.95593259571632 5.46884536505306
0

0101000
+28 5 -30 5 *
Ve
1.5e-07
582 1236.1 126
0 0

0101101
*
Ed
 1.5e-07 1 1 0
1  8 0 22.8668003096721 57.2756492761104
2  15 2 4 22.8668003096721 57.2756492761104
2  16 7 0 22.8668003096721 57.2756492761104
0

0101000
+28 0 -26 0 *
Ve
1.5e-07
582 1236.1 144
0 0

0101101
*
Ed
 1e-07 1 1 0
1  9 0 90 108
2  17 2 0 90 108
2  18 4 0 90 108
0

0101000
+26 5 -24 5 *
Ed
 1.5e-07 1 1 0
1  10 0 -19.0918830920368 57.2756492761104
2  19 2 4 -19.0918830920368 57.2756492761104
2  20 3 0 -19.0918830920368 57.2756492761104
0

0101000
+41 0 -24 0 *
Wi

0101100
-29 0 +27 4 -25 0 -23 4 +22 0 +40 4 *
Fa
0  1e-07 2 4

0101000
+21 0 *
Ed
 1.5e-07 1 1 0
1  11 0 5 59
2  21 3 0 5 59
2  22 4 4 5 59
0

0101000
+24 0 -39 0 *
Wi

0101100
+19 0 +22 0 +38 0 *
Fa
0  1e-07 3 0

0101000
+18 0 *
Ve
1.5e-07
582 1284.76146087398 126
0 0

0101101
*
Ed
 1.5e-07 1 1 0
1  12 0 5 53.6614608739847
2  23 4 4 5 53.6614608739847
2  24 7 0 5 53.6614608739847
0

0101000
+26 0 -16 0 *
Ed
 1e-07 1 1 0
1  13 0 7.09752524930612 7.85398163397445
2  25 4 0 7.09752524930612 7.85398163397445
2  26 5 0 7.09752524930612 7.85398163397445
0

0101000
+16 5 -37 5 *
Wi

0101100
-15 0 -14 4 -36 4 +19 0 +23 4 *
Fa
0  1e-07 4 4

0101000
+13 0 *
Ed
 1.5e-07 1 1 0
1  14 0 39.2307613403513 73.6396103067894
2  27 5 4 39.2307613403513 73.6396103067894
2  28 6 0 39.2307613403513 73.6396103067894
0

0101000
+35 0 -30 0 *
Ed
 1.5e-07 1 1 0
1  15 0 39.2307613403508 73.6396103067894
2  29 5 4 39.2307613403508 73.6396103067894
2  30 7 0 39.2307613403508 73.6396103067894
0

0101000
+16 0 -28 0 *
Wi

0101100
-27 4 +11 0 +34 4 +14 4 -10 0 *
Fa
0  1e-07 5 4

0101000
+9 0 *
Wi

0101100
-11 0 +29 0 +33 0 *
Fa
0  1e-07 6 0

0101000
+7 0 *
Wi

0101100
+10 0 +15 0 +25 0 *
Fa
0  1e-07 7 0

0101000
+5 0 *
Sh

0101100
-31 0 -20 0 +17 0 -12 0 -8 0 -6 0 -4 0 *
So

0100000
+3 0 *
Co

1100000
+2 0 *

+1 3 