DBRep_DrawableShape

CASCADE Topology V1, (c) Matra-Datavision
Locations 12
1
             -1               0 -1.22464679914735e-16               0 
              0               1               0               0 
1.22464679914735e-16               0              -1               0 
1
              1               0               0             582 
              0               1               0         -1236.1 
              0               0               1 89.9999999999999 
1
              1               0               0               0 
              0               1               0               0 
              0               0               1              -0 
1
              1               0               0               0 
              0               1               0               0 
              0               0               1               1 
1
              1               0               0               0 
              0               1               0               0 
              0               0               1              -1 
2  1 1 2 1 3 1 4 1 5 1 0
2  5 -1 4 -1 3 -1 2 -1 1 -1 0
1
              1               0               0               0 
              0               1               0               0 
              0               0               1              18 
2  1 1 2 1 3 1 4 1 5 1 8 1 0
2  8 -1 5 -1 4 -1 3 -1 2 -1 1 -1 0
2  1 1 2 1 3 1 4 1 0
2  5 1 8 1 0
Curve2ds 18
1 0 0 0 -1 
1 76.367532368147138 4.959819536546779e-15 8.6595605623549329e-17 -1 
1 54 0 0 -1 
1 4.7992313045179443e-31 3.9188697572715303e-15 -1.2246467991473532e-16 -1 
1 -5 0 1 0 
8 5 59
1 64 5 0 1 
1 -5 -18 1 0 
8 5 59
1 64 5 0 1 
1 1.4316619218359343e-31 -1.6532731788489271e-15 8.6595605623549329e-17 -1 
1 54 -2.6942229581241772e-15 -1.2246467991473532e-16 -1 
1 19.091883092036785 -5.9164567891575885e-31 1 -2.4651903288156613e-32 
8 -19.091883092036785 57.275649276110357
1 23.5 50.5 0.70710678118654757 -0.70710678118654757 
1 19.091883092036785 -18 1 -2.4651903288156613e-32 
8 -19.091883092036785 57.275649276110357
1 23.5 50.5 0.70710678118654757 -0.70710678118654757 
1 32 0 1 0 
8 -32 22
1 32 64 -1 0 
1 31.999999999999996 -18 1 0 
8 -32 22
1 32 64 -1 0 
Curves 9
1 0 0 0 0 0 1 
1 0 54 0 0 0 1 
1 582 1231.0999999999999 90 0 1 -0 
1 582 1231.0999999999999 90 0 1 -0 
1 54 54 0 0 0 1 
1 541.5 1276.5999999999999 90 0.70710678118654757 -0.70710678118654757 0 
1 541.5 1276.5999999999999 90 0.70710678118654757 -0.70710678118654757 0 
1 550 1290.0999999999999 90 -1 0 0 
1 550 1290.0999999999999 90 -1 0 0 
Polygon3D 0
PolygonOnTriangulations 0
Surfaces 5
1 0 0 0 -1 0 0 0 1 0 0 0 -1 
1 54 54 -1.6532731788489271e-15 0.70710678118654757 -0.70710678118654757 0 -0.70710678118654757 -0.70710678118654757 8.6595605623549329e-17 -6.1232339957367648e-17 -6.1232339957367648e-17 -1 
1 0 54 3.9188697572715303e-15 -0 1 0 1 0 -1.2246467991473532e-16 -1.2246467991473532e-16 0 -1 
1 518 1226.0999999999999 90 0 0 1 1 0 -0 -0 1 0 
1 518 1226.0999999999999 90 0 0 1 1 0 -0 -0 1 0 
Triangulations 0

TShapes 27
Ve
1.50000005024296e-07
0 0 0
0 0

0101101
*
Ve
1.50000005024296e-07
0 0 18
0 0

0101101
*
Ed
 1.50000005024296e-07 1 1 0
1  1 0 0 18
2  1 1 0 0 18
2  2 2 0 0 18
0

0101000
+27 0 -26 0 *
Ve
1.5e-07
0 54 0
0 0

0101101
*
Ve
1.5e-07
0 54 18
0 0

0101101
*
Ed
 1.5e-07 1 1 0
1  2 0 0 18
2  3 1 0 0 18
2  4 3 0 0 18
0

0101000
+24 0 -23 0 *
Ed
 1.5e-07 1 1 0
1  3 0 5 59
2  5 1 7 5 59
2  6 4 0 5 59
0

0101000
+27 7 -24 7 *
Ed
 1.5e-07 1 1 0
1  4 0 5 59
2  7 1 10 5 59
2  8 5 0 5 59
0

0101000
+26 10 -23 10 *
Wi

0101100
+25 0 -22 0 -21 6 +20 9 *
Fa
0  1.5e-07 1 0

0101000
+19 0 *
Ve
1.50000005024296e-07
54 54 0
0 0

0101101
*
Ve
1.50000005024296e-07
54 54 18
0 0

0101101
*
Ed
 1.50000005024296e-07 1 1 0
1  5 0 0 18
2  9 2 0 0 18
2  10 3 0 0 18
0

0101000
+17 0 -16 0 *
Ed
 1.50000005024296e-07 1 1 0
1  6 0 -19.0918830920368 57.2756492761104
2  11 2 7 -19.0918830920368 57.2756492761104
2  12 4 0 -19.0918830920368 57.2756492761104
0

0101000
+17 7 -27 7 *
Ed
 1.50000005024296e-07 1 1 0
1  7 0 -19.0918830920368 57.2756492761104
2  13 2 10 -19.0918830920368 57.2756492761104
2  14 5 0 -19.0918830920368 57.2756492761104
0

0101000
+16 10 -26 10 *
Wi

0101100
+15 0 -25 0 -14 6 +13 9 *
Fa
0  1.50000005024296e-07 2 0

0101000
+12 0 *
Ed
 1.5e-07 1 1 0
1  8 0 -32 22
2  15 3 7 -32 22
2  16 4 0 -32 22
0

0101000
+24 7 -17 7 *
Ed
 1.5e-07 1 1 0
1  9 0 -32 22
2  17 3 10 -32 22
2  18 5 0 -32 22
0

0101000
+23 10 -16 10 *
Wi

0101100
+22 0 -15 0 -10 6 +9 9 *
Fa
0  1.5e-07 3 0

0101000
+8 0 *
Wi

0101100
+21 11 +14 11 +10 11 *
Fa
0  1.5e-07 4 11

0101000
+6 0 *
Wi

0101100
+20 11 +13 11 +9 11 *
Fa
0  1.5e-07 5 11

0101000
+4 0 *
Sh

0101100
+18 0 +11 0 +7 0 +5 5 -3 12 *
So

1100000
+2 0 *

+1 0 