DBRep_DrawableShape

CASCADE Topology V1, (c) Matra-Datavision
Locations 9
1
             -1               0 -1.22464679914735e-16               0 
              0               1               0               0 
1.22464679914735e-16               0              -1               0 
1
              1               0               0             582 
              0               1               0         -1236.1 
              0               0               1             162 
2  1 1 2 1 0
1
              1               0               0               0 
              0               1               0               0 
              0               0               1               0 
2  4 -1 0
1
              1               0               0               0 
              0               1               0               0 
              0               0               1             126 
2  6 1 4 1 0
2  6 -1 0
2  4 -1 6 -1 0
Curve2ds 18
1 54 0 0 -1 
1 0 0 0 -1 
1 0 -126 1 0 
1 19.09188309203671 19.091883092036369 -1 0 
1 0 -0 0 -1 
1 54 0 0 -1 
8 -32 22
1 32 -108 1 0 
8 -32 22
1 32 64 -1 0 
8 -19.091883092036785 57.275649276110357
1 19.091883092036785 -108 1 0 
8 -19.091883092036785 57.275649276110357
1 23.5 50.5 0.70710678118654757 -0.70710678118654757 
1 76.367532368147138 0 0 -1 
1 0 0 0 -1 
1 0 -126 1 0 
1 -34.90811690796329 19.091883092036369 0.70710678118654757 -0.70710678118654757 
1 19.09188309203671 -34.908116907963631 0 1 
1 0 -126 1 0 
8 5 59
1 -5 -108 1 0 
8 5 59
1 64 5 0 1 
Curves 9
1 528 1290.0999999999999 36 0 0 1 
1 582 1290.0999999999999 36 -1 0 0 
1 582 1290.0999999999999 36 0 0 1 
1 550 1290.0999999999999 144 -1 0 0 
1 541.5 1276.5999999999999 144 0.70710678118654757 -0.70710678118654757 0 
1 582 1236.0999999999999 36 0 0 1 
1 528 1290.0999999999999 36 0.70710678118654757 -0.70710678118654757 0 
1 582 1236.0999999999999 36 0 1 0 
1 582 1231.0999999999999 144 0 1 -0 
Polygon3D 0
PolygonOnTriangulations 0
Surfaces 5
1 582 1290.0999999999999 36 0 -1 0 -1 0 0 -0 -0 -1 
1 528 1290.0999999999999 36 0.70710678118654757 0.70710678118654757 -0 0.70710678118654757 -0.70710678118654757 0 0 -0 -1 
1 562.90811690796329 1271.0081169079635 36.000000000000007 0 0 1 1 0 -0 -0 1 0 
1 582 1236.0999999999999 36 -1 0 0 0 1 0 0 0 -1 
1 518 1226.0999999999999 144 0 0 1 1 0 -0 -0 1 0 
Triangulations 0

TShapes 28
Ve
1.5e-07
528 1290.1 144
0 0

0101101
*
Ve
1e-07
528 1290.1 162
0 0

0101101
*
Ed
 1e-07 1 1 0
1  1 0 108 126
2  1 1 0 108 126
2  2 2 0 108 126
0

0101000
+28 5 -27 5 *
Ve
1e-07
582 1290.1 162
0 0

0101101
*
Ed
 1e-07 1 1 0
1  2 0 0 54
2  3 1 8 0 54
2  4 3 0 0 54
0

0101000
+25 9 -27 9 *
Ve
1.5e-07
582 1290.1 144
0 0

0101101
*
Ed
 1e-07 1 1 0
1  3 0 108 126
2  5 1 0 108 126
2  6 4 0 108 126
0

0101000
+23 5 -25 5 *
Ed
 1.5e-07 1 1 0
1  4 0 -32 22
2  7 1 4 -32 22
2  8 5 0 -32 22
0

0101000
+23 0 -28 0 *
Wi

0101100
-26 4 +24 7 +22 4 -21 0 *
Fa
0  1e-07 1 4

0101000
+20 0 *
Ve
1.5e-07
582 1236.1 144
0 0

0101101
*
Ed
 1.5e-07 1 1 0
1  5 0 -19.0918830920368 57.2756492761104
2  9 2 4 -19.0918830920368 57.2756492761104
2  10 5 0 -19.0918830920368 57.2756492761104
0

0101000
+28 0 -18 0 *
Ve
1e-07
582 1236.1 162
0 0

0101101
*
Ed
 1e-07 1 1 0
1  6 0 108 126
2  11 2 0 108 126
2  12 4 0 108 126
0

0101000
+18 5 -16 5 *
Ed
 1e-07 1 1 0
1  7 0 0 76.3675323681471
2  13 2 8 0 76.3675323681471
2  14 3 0 0 76.3675323681471
0

0101000
+27 9 -16 9 *
Wi

0101100
-17 0 -15 4 +14 7 +26 4 *
Fa
0  1e-07 2 4

0101000
+13 0 *
Ed
 1e-07 1 1 0
1  8 0 0 54
2  15 3 0 0 54
2  16 4 8 0 54
0

0101000
+16 9 -25 9 *
Wi

0101100
+24 7 +14 7 +11 7 *
Fa
0  1e-07 3 7

0101000
+10 0 *
Ed
 1.5e-07 1 1 0
1  9 0 5 59
2  17 4 4 5 59
2  18 5 0 5 59
0

0101000
+18 0 -23 0 *
Wi

0101100
-8 0 -22 4 +11 7 +15 4 *
Fa
0  1e-07 4 4

0101000
+7 0 *
Wi

0101100
+8 0 +17 0 +21 0 *
Fa
0  1e-07 5 0

0101000
+5 0 *
Sh

0101100
-19 0 -12 0 +9 0 -6 0 -4 0 *
So

0100000
+3 0 *
Co

1100000
+2 0 *

+1 3 