DBRep_DrawableShape

CASCADE Topology V1, (c) Matra-Datavision
Locations 10
1
              1               0               0               0 
              0               1               0               0 
              0               0               1              -1 
2  1 -1 0
1
             -1               0 -1.22464679914735e-16               0 
              0               1               0               0 
1.22464679914735e-16               0              -1               0 
1
              1               0               0 584.669269566496 
              0               1               0         -1236.1 
              0               0               1             144 
1
              1               0               0               0 
              0               1               0               0 
              0               0               1              -0 
1
              1               0               0               0 
              0               1               0               0 
              0               0               1               1 
2  3 1 4 1 5 1 6 1 0
1
              1               0               0               0 
              0               1               0               0 
              0               0               1              18 
2  1 1 8 1 0
2  8 -1 1 -1 0
Curve2ds 18
1 0 1.4210854715202004e-14 0 -1 
1 76.367532368147138 -9.2510351786552255e-15 8.6595605623549329e-17 -1 
1 54 0 0 -1 
1 -3.0007324175722467e-30 -2.4502839673132476e-14 -1.2246467991473532e-16 -1 
1 -5 0 1 0 
1 64 5 0 1 
1 -5 -18.000000000000028 1 0 
1 64 5 0 1 
1 -4.7213259306200122e-31 5.4521541787520758e-15 8.6595605623549329e-17 -1 
1 54 4.4112043994768254e-15 -1.2246467991473532e-16 -1 
1 19.091883092036785 0 1 -2.4651903288156613e-32 
1 23.5 50.5 0.70710678118654757 -0.70710678118654757 
1 19.091883092036785 -18.000000000000028 1 -2.4651903288156613e-32 
1 23.5 50.5 0.70710678118654757 -0.70710678118654757 
1 32 0 1 0 
1 32 64 -1 0 
1 31.999999999999996 -18.000000000000028 1 0 
1 32 64 -1 0 
Curves 9
1 2.6692695664960411 0 1.4210854715202004e-14 0 0 1 
1 2.6692695664960411 54 2.8421709430404007e-14 0 0 1 
1 2.6692695664960411 -5 1.0000000000000284 0 1 0 
1 2.6692695664960411 -5 1.0000000000000284 0 1 0 
1 56.669269566496041 54 -7.1054273576010019e-15 0 0 1 
1 43.169269566496041 40.5 1 -0.70710678118654757 -0.70710678118654757 8.6595605623549341e-17 
1 43.169269566496041 40.5 1 -0.70710678118654757 -0.70710678118654757 8.6595605623549341e-17 
1 34.669269566496041 54 1 1 0 -1.2246467991473532e-16 
1 34.669269566496041 54 1 1 0 -1.2246467991473532e-16 
Polygon3D 0
PolygonOnTriangulations 0
Surfaces 5
1 2.6692695664960411 0 2.8421709430404007e-14 -1 0 0 0 1 0 0 0 -1 
1 56.669269566496041 54 -1.6532731788489265e-15 0.70710678118654757 -0.70710678118654757 0 -0.70710678118654757 -0.70710678118654757 8.6595605623549329e-17 -6.1232339957367648e-17 -6.1232339957367648e-17 -1 
1 2.6692695664960411 54 3.9188697572715303e-15 -0 1 0 1 0 -1.2246467991473532e-16 -1.2246467991473532e-16 0 -1 
1 518 1226.0999999999999 144 0 0 1 1 0 -0 -0 1 0 
1 518 1226.0999999999999 144 0 0 1 1 0 -0 -0 1 0 
Triangulations 0

TShapes 27
Ve
1.50000028421709e-07
2.66926956649604 0 1.4210854715202e-14
0 0

0101101
*
Ve
1.50000028421709e-07
2.66926956649604 0 18
0 0

0101101
*
Ed
 1.50000028421709e-07 1 1 0
1  1 0 0 18
2  1 1 0 0 18
2  2 2 0 0 18
0

0101000
+27 0 -26 0 *
Ve
1.50000028421709e-07
2.66926956649604 54 2.8421709430404e-14
0 0

0101101
*
Ve
1.50000028421709e-07
2.66926956649604 54 18.0000000000001
0 0

0101101
*
Ed
 1.50000028421709e-07 1 1 0
1  2 0 0 18
2  3 1 0 0 18
2  4 3 0 0 18
0

0101000
+24 0 -23 0 *
Ed
 1e-07 1 1 0
1  3 0 5 59
2  5 1 2 5 59
2  6 4 7 5 59
0

0101000
+27 2 -24 2 *
Ed
 1e-07 1 1 0
1  4 0 5 59
2  7 1 10 5 59
2  8 5 7 5 59
0

0101000
+26 10 -23 10 *
Wi

0101100
+25 0 -22 0 -21 1 +20 9 *
Fa
0  1e-07 1 0

0101000
+19 0 *
Ve
1.50000028421709e-07
56.669269566496 54 -7.105427357601e-15
0 0

0101101
*
Ve
1.50000028421709e-07
56.669269566496 54 18
0 0

0101101
*
Ed
 1.50000028421709e-07 1 1 0
1  5 0 0 18
2  9 2 0 0 18
2  10 3 0 0 18
0

0101000
+17 0 -16 0 *
Ed
 1e-07 1 1 0
1  6 0 -19.0918830920368 57.2756492761104
2  11 2 2 -19.0918830920368 57.2756492761104
2  12 4 7 -19.0918830920368 57.2756492761104
0

0101000
+17 2 -27 2 *
Ed
 1e-07 1 1 0
1  7 0 -19.0918830920368 57.2756492761104
2  13 2 10 -19.0918830920368 57.2756492761104
2  14 5 7 -19.0918830920368 57.2756492761104
0

0101000
+16 10 -26 10 *
Wi

0101100
+15 0 -25 0 -14 1 +13 9 *
Fa
0  1e-07 2 0

0101000
+12 0 *
Ed
 1e-07 1 1 0
1  8 0 -32 22
2  15 3 2 -32 22
2  16 4 7 -32 22
0

0101000
+24 2 -17 2 *
Ed
 1e-07 1 1 0
1  9 0 -32 22
2  17 3 10 -32 22
2  18 5 7 -32 22
0

0101000
+23 10 -16 10 *
Wi

0101100
+22 0 -15 0 -10 1 +9 9 *
Fa
0  1e-07 3 0

0101000
+8 0 *
Wi

0101100
-21 0 -14 0 -10 0 *
Fa
0  1.50000028421709e-07 4 7

0111000
-6 0 *
Wi

0101100
-20 0 -13 0 -9 0 *
Fa
0  1.50000028421709e-07 5 7

0111000
-4 0 *
Sh

0101100
+18 0 +11 0 +7 0 +5 1 -3 9 *
So

1100000
+2 0 *

+1 0 