DBRep_DrawableShape

CASCADE Topology V1, (c) Matra-Datavision
Locations 5
1
              1               0               0               0 
              0               1               0               0 
              0               0               1              -1 
2  1 -1 0
1
              1               0               0               0 
              0               1               0               0 
              0               0               1              18 
2  1 1 3 1 0
2  3 -1 1 -1 0
Curve2ds 18
1 7.5846497742918808e-31 -8.7587005364499295e-15 8.6595605623549329e-17 -1 
1 54 4.4112043994768254e-15 -1.2246467991473532e-16 -1 
1 76.367532368147138 -9.2510351786552255e-15 8.6595605623549329e-17 -1 
1 0 0 0 -1 
1 19.091883092036785 -1.1832913578315177e-30 1 -2.4651903288156613e-32 
1 21.408116907963219 5.5918830920367739 -0.70710678118654757 -0.70710678118654757 
1 19.091883092036785 -18 1 -2.4651903288156613e-32 
1 21.408116907963219 5.5918830920367739 -0.70710678118654757 -0.70710678118654757 
1 4.7992313045179443e-31 3.9188697572715303e-15 -1.2246467991473532e-16 -1 
1 54 0 0 -1 
1 32 0 1 0 
1 12.908116907963219 19.091883092036774 1 0 
1 31.999999999999996 -18 1 0 
1 12.908116907963219 19.091883092036774 1 0 
1 -5 0 1 0 
1 -19.091883092036781 -39.908116907963226 0 1 
1 -5 -18 1 0 
1 -19.091883092036781 -39.908116907963226 0 1 
Curves 9
1 57.889087296525759 54 -7.1054273576010019e-15 0 0 1 
1 3.8890872965257586 0 0 0 0 1 
1 44.389087296525759 40.5 0.99999999999998579 -0.70710678118654757 -0.70710678118654757 8.6595605623549341e-17 
1 44.389087296525759 40.5 0.99999999999998579 -0.70710678118654757 -0.70710678118654757 8.6595605623549341e-17 
1 3.8890872965257586 54 0 0 0 1 
1 35.889087296525759 54 1 1 0 -1.2246467991473532e-16 
1 35.889087296525759 54 1 1 0 -1.2246467991473532e-16 
1 3.8890872965257586 -5 1 0 1 0 
1 3.8890872965257586 -5 1 0 1 0 
Polygon3D 0
PolygonOnTriangulations 0
Surfaces 5
1 57.889087296525759 54 -1.5864127894050931e-14 0.70710678118654757 -0.70710678118654757 0 -0.70710678118654757 -0.70710678118654757 8.6595605623549329e-17 -6.1232339957367648e-17 -6.1232339957367648e-17 -1 
1 3.8890872965257586 54 3.9188697572715303e-15 -0 1 0 1 0 -1.2246467991473532e-16 -1.2246467991473532e-16 0 -1 
1 3.8890872965257586 0 0 -1 0 0 0 1 0 0 0 -1 
1 22.98097038856254 34.908116907963226 0.99999999999999356 0 0 1 1 0 -0 -0 1 0 
1 22.98097038856254 34.908116907963226 0.99999999999999356 0 0 1 1 0 -0 -0 1 0 
Triangulations 0

TShapes 27
Ve
1.50000014648214e-07
57.8890872965258 54 -7.105427357601e-15
0 0

0101101
*
Ve
1.50000014648214e-07
57.8890872965258 54 18
0 0

0101101
*
Ed
 1.50000014648214e-07 1 1 0
1  1 0 0 18
2  1 1 0 0 18
2  2 2 0 0 18
0

0101000
+27 0 -26 0 *
Ve
1.50000014648214e-07
3.88908729652576 0 0
0 0

0101101
*
Ve
1.50000014648214e-07
3.88908729652576 0 18
0 0

0101101
*
Ed
 1.50000014648214e-07 1 1 0
1  2 0 0 18
2  3 1 0 0 18
2  4 3 0 0 18
0

0101000
+24 0 -23 0 *
Ed
 1e-07 1 1 0
1  3 0 -19.0918830920368 57.2756492761104
2  5 1 2 -19.0918830920368 57.2756492761104
2  6 4 0 -19.0918830920368 57.2756492761104
0

0101000
+27 2 -24 2 *
Ed
 1e-07 1 1 0
1  4 0 -19.0918830920368 57.2756492761104
2  7 1 5 -19.0918830920368 57.2756492761104
2  8 5 0 -19.0918830920368 57.2756492761104
0

0101000
+26 5 -23 5 *
Wi

0101100
+25 0 -22 0 -21 1 +20 4 *
Fa
0  1e-07 1 0

0101000
+19 0 *
Ve
1.50000014648214e-07
3.88908729652576 54 0
0 0

0101101
*
Ve
1.50000014648214e-07
3.88908729652576 54 18
0 0

0101101
*
Ed
 1.50000014648214e-07 1 1 0
1  5 0 0 18
2  9 2 0 0 18
2  10 3 0 0 18
0

0101000
+17 0 -16 0 *
Ed
 1e-07 1 1 0
1  6 0 -32 22
2  11 2 2 -32 22
2  12 4 0 -32 22
0

0101000
+17 2 -27 2 *
Ed
 1e-07 1 1 0
1  7 0 -32 22
2  13 2 5 -32 22
2  14 5 0 -32 22
0

0101000
+16 5 -26 5 *
Wi

0101100
+15 0 -25 0 -14 1 +13 4 *
Fa
0  1e-07 2 0

0101000
+12 0 *
Ed
 1e-07 1 1 0
1  8 0 5 59
2  15 3 2 5 59
2  16 4 0 5 59
0

0101000
+24 2 -17 2 *
Ed
 1e-07 1 1 0
1  9 0 5 59
2  17 3 5 5 59
2  18 5 0 5 59
0

0101000
+23 5 -16 5 *
Wi

0101100
+22 0 -15 0 -10 1 +9 4 *
Fa
0  1e-07 3 0

0101000
+8 0 *
Wi

0101100
-21 0 -14 0 -10 0 *
Fa
0  1.50000014648214e-07 4 0

0111000
+6 0 *
Wi

0101100
-20 0 -13 0 -9 0 *
Fa
0  1.50000014648214e-07 5 0

0111000
+4 0 *
Sh

0101100
-18 0 -11 0 -7 0 +5 1 -3 4 *
So

1100000
-2 0 *

+1 0 