DBRep_DrawableShape

CASCADE Topology V1, (c) Matra-Datavision
Locations 15
1
              1               0               0               0 
              0               1               0               0 
              0               0               1               0 
1
             -1               0 -1.22464679914735e-16               0 
              0               1               0               0 
1.22464679914735e-16               0              -1               0 
1
              1               0               0 584.669269566496 
              0               1               0         -1236.1 
              0               0               1             144 
2  1 1 2 1 3 1 0
2  3 -1 2 -1 1 -1 0
1
              1               0               0               0 
              0               1               0               0 
              0               0               1              -1 
1
              1               0               0               0 
              0               1               0               0 
              0               0               1              18 
2  6 1 7 1 0
1
              1               0               0               0 
              0               1               0               0 
              0               0               1              -0 
1
              1               0               0               0 
              0               1               0               0 
              0               0               1               1 
2  2 1 3 1 9 1 10 1 0
2  7 -1 6 -1 0
2  2 1 3 1 0
2  3 -1 2 -1 0
2  2 1 3 1 9 1 10 1 6 1 7 1 0
Curve2ds 13
3 54.000000000000227 -86 -1 0 -0 -1 7.7781745930520225 5.5
7 0 0  8 23 4  0.80341859332213417 31.637467504303459  0.94955447208886168 32.21595150722424  1.0956903508555724 32.887628873466461  1.2418262296222693 33.633673690913042  1.3879621083888765 34.4310180311968  1.5340979871556755 35.253625942587405  1.6802338659226494 36.07428734675792  1.8263697446892322 36.866536651068188  2.1917094416060516 38.715947243403598  2.4109132597532152 39.70750234737352  2.6301170779079257 40.499715412035584  2.8493208960462653 41.023457801842596  3.0685247142046137 41.234140815970022  3.287728532352503 41.121332209600951  3.5069323505066232 40.707930776585066  3.9453399868068062 39.37736223568411  4.1645438049599761 38.460194430204865  4.3837476230946777 37.339863130531739  4.602951441273035 36.090864641271764  4.8221552593913657 34.806159809289966  5.0413590775578996 33.582605231975322  5.2605628957073582 32.505193508684641  5.4797667138574502 31.637467504303459 
 3.945011246911942 9 5.1140982770457644 7 6.8677288222464972 7 8.62135936744723 9
1 64 5 0 1 
2 38.183766184073491 -86 -1 -0 -0 1 5.5
1 0 73.639610306789365 1 0 
8 35.455843517780927 73.639610906789414
1 5.4688453650530642 -8.0380146982861334e-14 0 1 
8 35.455843517780927 73.639610906789414
1 86.401798248857631 91.740337374873434 -0.70710678118654757 -0.70710678118654757 
3 1.1368999999999999e-13 -86 1 0 -0 1 7.7781745930520225 5.5
7 0 0  7 14 3  3.9450112469156329 31.637467504318465  4.1120236797916299 32.29859207908639  4.2790361126674483 33.083974471617694  4.4460485455442935 33.963493222494435  4.6130609784190924 34.898542839920992  4.7800734112958239 35.845431113759332  4.9470858441715979 36.760856045803429  5.2811107099235919 38.451745730220374  5.4481231427997798 39.227209802998914  5.6151355756752181 39.894180319537554  5.7821480085519497 40.418904150606977  5.9491604414275159 40.776862443475693  6.1161728743035892 40.955844122715916  6.2831853071795862 40.955844122715916 
 3.9450112469156324 8 5.1140982770476091 6 6.2831853071795862 8
8 35.455843517780679 73.639610906789329
1 3.9559325957163152 8.0380146982861334e-14 0 1 
8 35.455843517780679 73.639610906789329
1 91.740337374873206 86.401798248857631 -0.70710678118654757 -0.70710678118654757 
1 32 64 -1 0 
1 23.5 50.5 0.70710678118654757 -0.70710678118654757 
Curves 9
3 582 1290.1000000000001 122 -1 0 0 0 -1 0 0 0 1 7.7781745930520225 5.5
1 2.6692695664960411 54 2.8421709430404007e-14 0 0 1 
1 2.6692695664960411 -5 1.0000000000000284 0 1 0 
2 554.99999999999989 1263.0999999999999 122 -0.70710678118654757 -0.70710678118654757 0 -0.70710678118654757 0.70710678118654757 0 -0 0 -1 5.5
1 604.40179824885763 1317.8403373748733 126 -0.70710678118654757 -0.70710678118654757 0 
3 581.99999999999989 1290.0999999999999 122 0 -1 0 -1 0 0 -0 -0 -1 7.7781745930520225 5.5
1 609.74033737487321 1312.5017982488575 126 -0.70710678118654757 -0.70710678118654757 0 
1 34.669269566496041 54 1 1 0 -1.2246467991473532e-16 
1 43.169269566496041 40.5 1 -0.70710678118654757 -0.70710678118654757 8.6595605623549341e-17 
Polygon3D 0
PolygonOnTriangulations 0
Surfaces 10
1 2.6692695664960411 0 2.8421709430404007e-14 -1 0 0 0 1 0 0 0 -1 
1 582 1236.0999999999999 36 -1 0 0 0 1 0 0 0 -1 
2 607.07106781186542 1315.1710678118654 122 -0.70710678118654757 -0.70710678118654757 0 -0.70710678118654757 0.70710678118654757 0 -0 0 -1 5.5
1 518 1226.0999999999999 144 0 0 1 1 0 -0 -0 1 0 
1 528 1290.0999999999999 36 0.70710678118654757 0.70710678118654757 -0 0.70710678118654757 -0.70710678118654757 0 0 -0 -1 
1 518 1226.0999999999999 126 0 0 1 1 0 -0 -0 1 0 
1 582 1290.0999999999999 36 0 -1 0 -1 0 0 -0 -0 -1 
1 518 1226.0999999999999 126 0 0 1 1 0 -0 -0 1 0 
1 2.6692695664960411 54 3.9188697572715303e-15 -0 1 0 1 0 -1.2246467991473532e-16 -1.2246467991473532e-16 0 -1 
1 56.669269566496041 54 -1.6532731788489265e-15 0.70710678118654757 -0.70710678118654757 0 -0.70710678118654757 -0.70710678118654757 8.6595605623549329e-17 -6.1232339957367648e-17 -6.1232339957367648e-17 -1 
Triangulations 0

TShapes 27
Ve
1.50000056843419e-07
2.66926956649604 48.6614608739847 18
0 0

0101101
*
Ve
2.7823840344797e-06
2.66926956649604 54 16.5
0 0

0101101
*
Ed
 1.00000000888178e-07 1 1 0
1  1 0 7.09752524930612 7.85398163397445
2  1 2 0 7.09752524930612 7.85398163397445
2  2 3 0 7.09752524930612 7.85398163397445
0

0101000
+27 5 -26 5 *
Ve
1.50000028421709e-07
2.66926956649604 54 1.00000000000003
0 0

0101101
*
Ed
 1.50000028421709e-07 1 1 0
1  2 0 16.5 18
0

0101000
+26 0 -24 8 *
Ed
 1.50000028421709e-07 1 1 0
1  3 0 53.6614608739847 59
2  3 4 11 53.6614608739847 59
0

0101000
+27 12 -24 0 *
Wi

0101100
-25 4 -23 0 +22 8 *
Fa
0  1e-07 1 0

0101000
+21 0 *
Ve
1.50000254211497e-07
27.0000000034884 24.3307304369921 18
0 0

0101101
*
Ve
1.50000053290705e-07
32.3385391295039 29.6692695630079 18
0 0

0101101
*
Ed
 1.00000080388734e-07 1 1 0
1  4 0 3.95593259571632 5.46884536505306
2  4 5 0 3.95593259571632 5.46884536505306
2  5 3 0 3.95593259571632 5.46884536505306
0

0101000
+19 5 -18 5 *
Ve
1.50000053290705e-07
8.00780869251184 54 18
0 0

0101101
*
Ed
 1.50000053290705e-07 1 1 0
1  5 0 39.2307613403513 73.6396103067894
2  6 3 1 39.2307613403513 73.6396103067894
2  7 6 0 39.2307613403513 73.6396103067894
0

0101000
+16 14 -18 14 *
Ed
 1e-07 1 1 0
1  6 0 4.71238898038469 5.46884536505307
2  8 7 0 4.71238898038469 5.46884536505307
2  9 3 0 4.71238898038469 5.46884536505307
0

0101000
+26 5 -16 5 *
Ed
 1.50000056843419e-07 1 1 0
1  7 0 39.2307613403508 73.6396103067894
2  10 3 1 39.2307613403508 73.6396103067894
2  11 8 0 39.2307613403508 73.6396103067894
0

0101000
+27 14 -19 14 *
Wi

0101100
-17 4 +15 13 +14 4 +25 4 -13 13 *
Fa
0  1e-07 3 4

0101000
+12 0 *
Ed
 1.50000028421709e-07 1 1 0
1  8 0 -32 -26.6614608739842
2  12 4 11 -32 -26.6614608739842
0

0101000
+24 0 -16 12 *
Wi

0101100
-14 4 +10 8 +23 0 *
Fa
0  1e-07 9 0

0101000
+9 0 *
Ed
 1.50000028421709e-07 1 1 0
1  9 0 15.3169658744013 22.8668003096721
2  13 4 11 15.3169658744013 22.8668003096721
0

0101000
+18 12 -19 12 *
Wi

0101100
-13 13 +7 8 +15 13 +10 8 +22 8 *
Fa
0  1.50000028421709e-07 4 15

0101000
+6 0 *
Wi

0101100
+17 4 +7 8 *
Fa
0  1e-07 10 0

0101000
+4 0 *
Sh

0101100
+20 0 +11 0 +8 0 -5 0 +3 0 *
So

0100000
+2 0 *

+1 0 