DBRep_DrawableShape

CASCADE Topology V1, (c) Matra-Datavision
Locations 0
Curve2ds 0
Curves 3
1 3.8890873000153761 -5 -1.6139686970991231e-15 0 1 0 
1 35.889087300015376 54 -1.6139686970991231e-15 1 0 0 
1 44.389087300015376 40.5 -1.6139686970991231e-15 -0.70710678118654757 -0.70710678118654757 0 
Polygon3D 0
PolygonOnTriangulations 0
Surfaces 0
Triangulations 0

TShapes 7
Ve
1e-07
3.88908730001538 0 -1.61396869709912e-15
0 0

0101101
*
Ve
1e-07
3.88908730001538 54 -1.61396869709912e-15
0 0

0101101
*
Ed
 1e-07 1 1 0
1  1 0 5 59
0

0101000
+7 0 -6 0 *
Ve
1e-07
57.8890873000154 54 -1.61396869709912e-15
0 0

0101101
*
Ed
 1e-07 1 1 0
1  2 0 -32 22
0

0101000
+6 0 -4 0 *
Ed
 1e-07 1 1 0
1  3 0 -19.0918830920368 57.2756492761104
0

0101000
+4 0 -7 0 *
Wi

0101100
-5 0 -3 0 -2 0 *

+1 0 