DBRep_DrawableShape

CASCADE Topology V1, (c) Matra-Datavision
Locations 5
1
              1               0               0               0 
              0               1               0               0 
              0               0               1               0 
1
             -1               0 -1.22464679914735e-16               0 
              0               1               0               0 
1.22464679914735e-16               0              -1               0 
1
              1               0               0             390 
              0               1               0            -170 
              0               0               1              48 
2  1 1 2 1 3 1 0
2  1 -1 0
Curve2ds 48
1 0 0 1 0 
1 0 0 1 0 
1 12 0 0 -1 
1 0 0 0 1 
1 0 -180 1 0 
1 0 0 1 0 
1 0 0 0 -1 
1 0 0 0 1 
1 0 0 0 1 
1 0 0 1 0 
1 0 180 1 0 
1 0 0 1 0 
1 12 0 0 1 
1 0 0 1 0 
1 0 180 1 0 
1 12 0 0 1 
1 180 0 0 1 
1 12 0 0 -1 
2 10 10 1 0 -0 1 2.75
1 0 31 1 0 
2 170 10 1 0 -0 1 2.75
1 0 31 1 0 
2 10 170 1 0 -0 1 2.75
1 0 31 1 0 
2 170 170 1 0 -0 1 2.75
1 0 31 1 0 
1 0 0 0 1 
1 0 180 1 0 
1 0 180 1 0 
1 0 -180 1 0 
1 180 0 0 1 
1 0 0 0 -1 
2 10 10 1 0 -0 1 2.75
1 0 19 1 0 
2 170 10 1 0 -0 1 2.75
1 0 19 1 0 
2 10 170 1 0 -0 1 2.75
1 0 19 1 0 
2 170 170 1 0 -0 1 2.75
1 0 19 1 0 
1 6.2831853071795862 -0 0 1 
1 0 -0 0 1 
1 6.2831853071795862 -0 0 1 
1 0 -0 0 1 
1 6.2831853071795862 -0 0 1 
1 0 -0 0 1 
1 6.2831853071795862 -0 0 1 
1 0 -0 0 1 
Curves 24
1 210 170 36 0 0 1 
1 210 170 48 -0 1 0 
1 210 350 36 0 0 1 
1 210 170 36 -0 1 0 
1 210 170 36 1 0 -0 
1 390 170 36 0 0 1 
1 210 170 48 1 0 -0 
1 210 350 48 1 0 -0 
1 390 170 48 -0 1 0 
2 220 180 48 0 0 1 1 0 -0 -0 1 0 2.75
2 380 180 48 0 0 1 1 0 -0 -0 1 0 2.75
2 220 340 48 0 0 1 1 0 -0 -0 1 0 2.75
2 380 340 48 0 0 1 1 0 -0 -0 1 0 2.75
1 210 350 36 1 0 -0 
1 390 350 36 0 0 1 
1 390 170 36 -0 1 0 
2 220 180 36 0 0 1 1 0 -0 -0 1 0 2.75
2 380 180 36 0 0 1 1 0 -0 -0 1 0 2.75
2 220 340 36 0 0 1 1 0 -0 -0 1 0 2.75
2 380 340 36 0 0 1 1 0 -0 -0 1 0 2.75
1 222.75 180 17 0 0 1 
1 382.75 180 17 0 0 1 
1 222.75 340 17 0 0 1 
1 382.75 340 17 0 0 1 
Polygon3D 0
PolygonOnTriangulations 0
Surfaces 10
1 210 170 36 1 0 -0 0 0 1 0 -1 0 
1 210 170 36 -0 1 0 0 0 1 1 0 -0 
1 210 170 48 0 0 1 1 0 -0 -0 1 0 
1 210 350 36 -0 1 0 0 0 1 1 0 -0 
1 210 170 36 0 0 1 1 0 -0 -0 1 0 
1 390 170 36 1 0 -0 0 0 1 0 -1 0 
2 220 180 17 0 0 1 1 0 -0 -0 1 0 2.75
2 380 180 17 0 0 1 1 0 -0 -0 1 0 2.75
2 220 340 17 0 0 1 1 0 -0 -0 1 0 2.75
2 380 340 17 0 0 1 1 0 -0 -0 1 0 2.75
Triangulations 0

TShapes 74
Ve
1e-07
210 170 48
0 0

0101101
*
Ve
1e-07
210 170 36
0 0

0101101
*
Ed
 1e-07 1 1 0
1  1 0 0 12
2  1 1 0 0 12
2  2 2 0 0 12
0

0101000
-74 5 +73 5 *
Ve
1e-07
210 350 48
0 0

0101101
*
Ed
 1e-07 1 1 0
1  2 0 0 180
2  3 1 0 0 180
2  4 3 0 0 180
0

0101000
-71 5 +74 5 *
Ve
1e-07
210 350 36
0 0

0101101
*
Ed
 1e-07 1 1 0
1  3 0 0 12
2  5 1 0 0 12
2  6 4 0 0 12
0

0101000
-71 5 +69 5 *
Ed
 1e-07 1 1 0
1  4 0 0 180
2  7 1 0 0 180
2  8 5 0 0 180
0

0101000
-69 5 +73 5 *
Wi

0101100
-72 0 -70 0 +68 0 +67 0 *
Fa
0  1e-07 1 0

0111000
+66 0 *
Ve
1e-07
390 170 36
0 0

0101101
*
Ed
 1e-07 1 1 0
1  5 0 0 180
2  9 2 0 0 180
2  10 5 0 0 180
0

0101000
-64 5 +73 5 *
Ve
1e-07
390 170 48
0 0

0101101
*
Ed
 1e-07 1 1 0
1  6 0 0 12
2  11 2 0 0 12
2  12 6 0 0 12
0

0101000
-62 5 +64 5 *
Ed
 1e-07 1 1 0
1  7 0 0 180
2  13 2 0 0 180
2  14 3 0 0 180
0

0101000
-62 5 +74 5 *
Wi

0101100
-63 0 -61 0 +60 0 +72 0 *
Fa
0  1e-07 2 0

0111000
+59 0 *
Ve
1e-07
390 350 48
0 0

0101101
*
Ed
 1e-07 1 1 0
1  8 0 0 180
2  15 3 0 0 180
2  16 4 0 0 180
0

0101000
-57 5 +71 5 *
Ed
 1e-07 1 1 0
1  9 0 0 180
2  17 3 0 0 180
2  18 6 0 0 180
0

0101000
-57 5 +62 5 *
Wi

0101100
-70 0 -56 0 +60 0 +55 0 *
Ve
1e-07
222.75 180 48
0 0

0101101
*
Ed
 1e-07 1 1 0
1  10 0 0 6.28318530717959
2  19 3 0 0 6.28318530717959
2  20 7 0 0 6.28318530717959
0

0101100
+53 5 -53 5 *
Wi

0101100
-52 0 *
Ve
1e-07
382.75 180 48
0 0

0101101
*
Ed
 1e-07 1 1 0
1  11 0 0 6.28318530717959
2  21 3 0 0 6.28318530717959
2  22 8 0 0 6.28318530717959
0

0101100
+50 5 -50 5 *
Wi

0101100
-49 0 *
Ve
1e-07
222.75 340 48
0 0

0101101
*
Ed
 1e-07 1 1 0
1  12 0 0 6.28318530717959
2  23 3 0 0 6.28318530717959
2  24 9 0 0 6.28318530717959
0

0101100
+47 5 -47 5 *
Wi

0101100
-46 0 *
Ve
1e-07
382.75 340 48
0 0

0101101
*
Ed
 1e-07 1 1 0
1  13 0 0 6.28318530717959
2  25 3 0 0 6.28318530717959
2  26 10 0 0 6.28318530717959
0

0101100
+44 5 -44 5 *
Wi

0101100
-43 0 *
Fa
0  1e-07 3 0

0111000
+54 0 +51 0 +48 0 +45 0 +42 0 *
Ve
1e-07
390 350 36
0 0

0101101
*
Ed
 1e-07 1 1 0
1  14 0 0 180
2  27 4 0 0 180
2  28 5 0 0 180
0

0101000
-40 5 +69 5 *
Ed
 1e-07 1 1 0
1  15 0 0 12
2  29 4 0 0 12
2  30 6 0 0 12
0

0101000
-57 5 +40 5 *
Wi

0101100
-39 0 -38 0 +56 0 +68 0 *
Fa
0  1e-07 4 0

0111000
+37 0 *
Ed
 1e-07 1 1 0
1  16 0 0 180
2  31 5 0 0 180
2  32 6 0 0 180
0

0101000
-40 5 +64 5 *
Wi

0101100
-67 0 -39 0 +63 0 +35 0 *
Ve
1e-07
222.75 180 36
0 0

0101101
*
Ed
 1e-07 1 1 0
1  17 0 0 6.28318530717959
2  33 5 0 0 6.28318530717959
2  34 7 0 0 6.28318530717959
0

0101100
+33 5 -33 5 *
Wi

0101100
-32 0 *
Ve
1e-07
382.75 180 36
0 0

0101101
*
Ed
 1e-07 1 1 0
1  18 0 0 6.28318530717959
2  35 5 0 0 6.28318530717959
2  36 8 0 0 6.28318530717959
0

0101100
+30 5 -30 5 *
Wi

0101100
-29 0 *
Ve
1e-07
222.75 340 36
0 0

0101101
*
Ed
 1e-07 1 1 0
1  19 0 0 6.28318530717959
2  37 5 0 0 6.28318530717959
2  38 9 0 0 6.28318530717959
0

0101100
+27 5 -27 5 *
Wi

0101100
-26 0 *
Ve
1e-07
382.75 340 36
0 0

0101101
*
Ed
 1e-07 1 1 0
1  20 0 0 6.28318530717959
2  39 5 0 0 6.28318530717959
2  40 10 0 0 6.28318530717959
0

0101100
+24 5 -24 5 *
Wi

0101100
-23 0 *
Fa
0  1e-07 5 0

0111000
+34 0 +31 0 +28 0 +25 0 +22 0 *
Wi

0101100
-61 0 -55 0 +38 0 +35 0 *
Fa
0  1e-07 6 0

0111000
+20 0 *
Ed
 1e-07 1 1 0
1  21 0 19 31
3  41 42CN 7 0 19 31
0

0101000
+33 5 -53 5 *
Wi

0101100
-52 0 +18 0 +32 0 -18 0 *
Fa
0  1e-07 7 0

0111000
+17 0 *
Ed
 1e-07 1 1 0
1  22 0 19 31
3  43 44CN 8 0 19 31
0

0101000
+30 5 -50 5 *
Wi

0101100
-49 0 +15 0 +29 0 -15 0 *
Fa
0  1e-07 8 0

0111000
+14 0 *
Ed
 1e-07 1 1 0
1  23 0 19 31
3  45 46CN 9 0 19 31
0

0101000
+27 5 -47 5 *
Wi

0101100
-46 0 +12 0 +26 0 -12 0 *
Fa
0  1e-07 9 0

0111000
+11 0 *
Ed
 1e-07 1 1 0
1  24 0 19 31
3  47 48CN 10 0 19 31
0

0101000
+24 5 -44 5 *
Wi

0101100
-43 0 +9 0 +23 0 -9 0 *
Fa
0  1e-07 10 0

0111000
+8 0 *
Sh

0101100
-65 0 -58 0 +41 0 +36 0 -21 0 +19 0 -16 0 -13 0 -10 0 -7 0 
*
So

0100000
+6 0 *
Co

0100000
+5 0 *
Co

0100000
+4 0 *
Co

0100000
+3 0 *
Co

1100000
+2 0 *

+1 4 