DBRep_DrawableShape

CASCADE Topology V1, (c) Matra-Datavision
Locations 0
Curve2ds 0
Curves 18
2 8 0 1.7763568394002505e-15 0 0 -1 -1 0 0 0 1 0 7.9999999999999964
1 4 8 1.7763568394002505e-15 -1 0 0 
2 14 16 1.7763568394002505e-15 -0 0 -1 1.7800000000000001e-15 -1 -0 -1 -1.7800000000000001e-15 0 8.0000000000000089
1 22.000000000000028 8 1.7763568394002505e-15 0 -1 -0 
2 14.000000000000028 86.961305592029021 1.7763568394002505e-15 -0 0 -1 1 -1.7772398545466662e-15 -0 -1.7772398545466662e-15 -1 0 7.9999999999999929
1 7.0000000000000284 94.961305592029021 1.7763568394002505e-15 1 0 0 
2 8 102.96130559202896 1.7763568394002505e-15 -0 0 -1 8.9000000000000007e-16 -1 -0 -1 -8.9000000000000007e-16 0 7.9999999999999858
1 0 0 1.7763568394002505e-15 0 1 0 
1 0 1019.9999999999998 1.7763568394002505e-15 1 0 0 
1 499.99999999999989 0 1.7763568394002505e-15 0 1 0 
2 492 102.96130559202896 1.7763568394002505e-15 -0 0 -1 -8.9000000000000007e-16 -1 0 -1 8.9000000000000007e-16 0 7.9999999999999858
1 243 94.961305592029021 1.7763568394002505e-15 -1 0 0 
2 486 86.961305592029021 1.7763568394002505e-15 -0 0 -1 -1 -1.7772398545466662e-15 0 -1.7772398545466662e-15 1 0 8
1 478 8 1.7763568394002505e-15 0 -1 -0 
2 486 16 1.7763568394002505e-15 -0 0 -1 -1.7800000000000001e-15 -1 0 -1 1.7800000000000001e-15 0 8.0000000000000089
1 246 8 1.7763568394002505e-15 1 0 0 
2 492 0 1.7763568394002505e-15 0 0 -1 1 0 0 0 -1 0 8
1 0 0 1.7763568394002505e-15 1 0 0 
Polygon3D 0
PolygonOnTriangulations 0
Surfaces 0
Triangulations 0

TShapes 37
Ve
1e-07
3.5527136788005e-15 -1.95943487863576e-15 1.77635683940025e-15
0 0

0101101
*
Ve
1e-07
8 8 1.77635683940025e-15
0 0

0101101
*
Ed
 1e-07 1 1 0
1  1 0 6.28318530717959 7.85398163397448
0

0101000
+37 0 -36 0 *
Ve
1e-07
14 8 1.77635683940025e-15
0 0

0101101
*
Ed
 1e-07 1 1 0
1  2 0 -10 -4
0

0101000
+34 0 -36 0 *
Ve
1e-07
22 16 1.77635683940025e-15
0 0

0101101
*
Ed
 1e-07 1 1 0
1  3 0 4.71238898038469 6.28318530717959
0

0101000
+32 0 -34 0 *
Ve
1e-07
22 86.961305592029 1.77635683940025e-15
0 0

0101101
*
Ed
 1e-07 1 1 0
1  4 0 -78.961305592029 -8
0

0101000
+30 0 -32 0 *
Ve
1e-07
14 94.961305592029 1.77635683940025e-15
0 0

0101101
*
Ed
 1e-07 1 1 0
1  5 0 4.71238898038469 6.28318530717958
0

0101000
+28 0 -30 0 *
Ve
1e-07
8 94.961305592029 1.77635683940025e-15
0 0

0101101
*
Ed
 1e-07 1 1 0
1  6 0 0.999999999999972 7
0

0101000
+26 0 -28 0 *
Ve
1e-07
1.4210854715202e-14 102.961305592029 1.77635683940025e-15
0 0

0101101
*
Ed
 1e-07 1 1 0
1  7 0 6.28318530717959 7.85398163397448
0

0101000
+26 0 -24 0 *
Ve
1e-07
0 1020 1.77635683940025e-15
0 0

0101101
*
Ed
 1e-07 1 1 0
1  8 0 102.961305592029 1020
0

0101000
+24 0 -22 0 *
Ve
1e-07
500 1020 1.77635683940025e-15
0 0

0101101
*
Ed
 1e-07 1 1 0
1  9 0 2.27373675443232e-13 500
0

0101000
+22 0 -20 0 *
Ve
1e-07
500 102.961305592029 1.77635683940025e-15
0 0

0101101
*
Ed
 1e-07 1 1 0
1  10 0 102.961305592029 1020
0

0101000
+18 0 -20 0 *
Ve
1e-07
492 94.961305592029 1.77635683940025e-15
0 0

0101101
*
Ed
 1e-07 1 1 0
1  11 0 4.71238898038469 6.28318530717959
0

0101000
+18 0 -16 0 *
Ve
1e-07
486 94.961305592029 1.77635683940025e-15
0 0

0101101
*
Ed
 1e-07 1 1 0
1  12 0 -249 -243
0

0101000
+16 0 -14 0 *
Ve
1e-07
478 86.961305592029 1.77635683940025e-15
0 0

0101101
*
Ed
 1e-07 1 1 0
1  13 0 6.28318530717959 7.85398163397448
0

0101000
+12 0 -14 0 *
Ve
1e-07
478 16 1.77635683940025e-15
0 0

0101101
*
Ed
 1e-07 1 1 0
1  14 0 -78.961305592029 -8
0

0101000
+12 0 -10 0 *
Ve
1e-07
486 7.99999999999999 1.77635683940025e-15
0 0

0101101
*
Ed
 1e-07 1 1 0
1  15 0 6.28318530717958 7.85398163397448
0

0101000
+8 0 -10 0 *
Ve
1e-07
492 8 1.77635683940025e-15
0 0

0101101
*
Ed
 1e-07 1 1 0
1  16 0 240 246
0

0101000
+8 0 -6 0 *
Ve
1e-07
500 1.95943487863577e-15 1.77635683940025e-15
0 0

0101101
*
Ed
 1e-07 1 1 0
1  17 0 4.71238898038469 6.28318530717959
0

0101000
+6 0 -4 0 *
Ed
 1e-07 1 1 0
1  18 0 0 500
0

0101000
+37 0 -4 0 *
Wi

0101100
-35 0 +33 0 +31 0 +29 0 +27 0 +25 0 -23 0 -21 0 -19 0 +17 0 
-15 0 -13 0 +11 0 -9 0 +7 0 -5 0 -3 0 +2 0 *

+1 0 