DBRep_DrawableShape

CASCADE Topology V1, (c) Matra-Datavision
Locations 23
1
              1               0               0               0 
              0               1               0               0 
              0               0               1               0 
1
1.11022302462516e-16               0               1               0 
              0               1               0               0 
             -1               0 1.11022302462516e-16               0 
1
              1               0               0             -36 
              0               1               0 -995.25061984718 
              0               0               1              36 
2  1 1 2 1 3 1 0
1
              1               0               0               0 
              0               1               0               0 
              0               0               1               0 
2  1 -1 5 -1 0
1
              1               0               0              18 
              0               1               0               0 
              0               0               1               0 
2  7 -1 0
2  1 -1 5 -1 7 -1 0
2  1 -1 0
2  7 1 5 1 0
1
              1               0               0               0 
              0               1               0               0 
              0               0               1             -18 
2  12 -1 3 -1 2 -1 1 -1 5 -1 0
1
              1               0               0               0 
              0               1               0               0 
              0               0               1               1 
2  14 -1 12 -1 3 -1 2 -1 1 -1 5 -1 0
2  12 -1 3 -1 2 -1 1 -1 0
2  14 -1 12 -1 3 -1 2 -1 1 -1 0
1
              1               0               0               0 
              0               1               0               0 
              0               0               1 -7.105427357601e-15 
2  18 -1 3 -1 2 -1 1 -1 5 -1 0
1
              1               0               0               0 
              0               1               0               0 
              0               0               1               1 
2  20 -1 18 -1 3 -1 2 -1 1 -1 5 -1 0
2  18 -1 3 -1 2 -1 1 -1 0
2  20 -1 18 -1 3 -1 2 -1 1 -1 0
Curve2ds 116
1 0 0 0 -1 
1 417.22033011490652 0 0 -1 
1 58.250619847179905 0 0 -1 
1 0 0 0 -1 
1 0 0 1 0 
1 -247.7333037908399 26.873758580566346 0 -1 
1 0 -18 1 0 
1 -247.7333037908399 26.873758580566346 0 -1 
1 0 0 0 -1 
1 6.5 0 0 -1 
1 0 0 1 0 
1 169.48702632406662 26.873758580566346 -1 0 
1 0 -18 1 0 
1 169.48702632406662 26.873758580566346 -1 0 
1 0 0 1 0 
1 -247.7333037908399 -31.37686126661356 1 0 
8 -18.5 -0.5
1 458 0.5 0 1 
8 -18.5 -0.5
1 0.5 40 -1 0 
1 0 -18 1 0 
1 -247.7333037908399 -31.37686126661356 1 0 
1 169.48702632406662 33.373758580566346 0 -1 
1 0 0 1 0 
1 205.74680397142731 33.373758580566346 -1 0 
1 0 0 1 0 
1 205.74680397142731 48.62313873338644 0 -1 
1 0 0 1 0 
1 230.48702632406668 48.62313873338644 -1 0 
1 0 0 1 0 
1 230.48702632406668 -31.37686126661356 0 1 
1 0 -0 1 0 
8 100.49351316203331 129.99351316203337
1 100.49351316203331 25.12313873338644 1 0 
8 100.49351316203331 129.99351316203337
1 -100.49351316203331 0.99999999999999289 1 0 
2 200.98702632406662 8.6231387333864404 1 0 -0 1 16.5
1 0 0.99999999999999289 1 0 
1 0 0 1 0 
1 0 -1 1 0 
8 100.49351316203331 129.99351316203337
1 100.49351316203331 -7.8768612666135596 1 0 
8 100.49351316203331 129.99351316203337
1 -100.49351316203331 0.99999999999999289 1 0 
2 207.2666962091601 -10.87686126661356 1 0 -0 1 3
1 0 0.99999999999999289 1 0 
1 0 0 1 0 
1 0 -1 1 0 
8 -35.68843063330678 -15.18843063330678
1 210.2666962091601 4.3115693666932202 0 1 
8 -35.68843063330678 -15.18843063330678
1 0.99999999999999289 4.3115693666932202 0 -1 
2 164.48702632406662 -11.37686126661356 1 0 -0 1 2.5
1 0 0.99999999999999289 1 0 
2 -91.733303790839898 6.8737585805663457 1 0 -0 1 2.5
1 0 0.99999999999999289 1 0 
2 36.376861266613389 1.3737585805663457 1 0 -0 1 2.5
1 0 0.99999999999999289 1 0 
1 169.48702632406662 33.373758580566346 0 -1 
1 0 -18 1 0 
1 205.74680397142731 33.373758580566346 -1 0 
1 0 -18 1 0 
1 205.74680397142731 48.62313873338644 0 -1 
1 0 -18 1 0 
1 230.48702632406668 48.62313873338644 -1 0 
1 0 -18 1 0 
1 230.48702632406668 -31.37686126661356 0 1 
1 0 -18 1 0 
8 100.49351316203331 129.99351316203337
1 100.49351316203331 25.12313873338644 1 0 
8 100.49351316203331 129.99351316203337
1 -100.49351316203331 18.999999999999993 1 0 
2 200.98702632406662 8.6231387333864404 1 0 -0 1 16.5
1 0 18.999999999999993 1 0 
1 0 0 1 0 
1 0 -1 1 0 
8 100.49351316203331 129.99351316203337
1 100.49351316203331 -7.8768612666135596 1 0 
8 100.49351316203331 129.99351316203337
1 -100.49351316203331 18.999999999999993 1 0 
2 207.2666962091601 -10.87686126661356 1 0 -0 1 3
1 0 18.999999999999993 1 0 
1 0 0 1 0 
1 0 -1 1 0 
8 -35.68843063330678 -15.18843063330678
1 210.2666962091601 4.3115693666932202 0 1 
8 -35.68843063330678 -15.18843063330678
1 18.999999999999993 4.3115693666932202 0 -1 
2 164.48702632406662 -11.37686126661356 1 0 -0 1 4.5
1 0 2.8284271247461903 1 0 
2 -91.733303790839898 6.8737585805663457 1 0 -0 1 4.5
1 0 2.8284271247461903 1 0 
2 36.376861266613389 1.3737585805663457 1 0 -0 1 4.5
1 0 2.8284271247461903 1 0 
1 0 0 0 -1 
1 36.259777647360693 0 0 -1 
1 0 19.5 1 0 
8 0 20
1 0 0 0 1 
1 0 0 0 -1 
1 15.249380152820095 0 0 -1 
1 0 0 0 -1 
1 24.740222352639364 0 0 -1 
1 0 0 0 -1 
1 80 0 0 -1 
8 0.5 18.5
1 56.5 0.5 0 -1 
8 0.5 18.5
1 29.500000000000057 0.5 0 1 
1 0 0 0 1 
1 1.5707963267948966 0 0 1 
1 4.7123889803846897 0 0 1 
1 0 0 0 1 
1 6.2796698850934831 0 0 1 
1 1.5707963267948966 0 0 1 
1 0 17 1 0 
1 0 0 1 0 
1 6.2831853071795862 -0 0 1 
1 0 -0 0 1 
1 0 17 1 0 
1 0 0 1 0 
1 6.2831853071795862 -0 0 1 
1 0 -0 0 1 
1 0 17 1 0 
1 0 0 1 0 
1 6.2831853071795862 -0 0 1 
1 0 -0 0 1 
1 6.2831853071795862 -0 0 1 
1 0 -0 0 1 
1 6.2831853071795862 -0 0 1 
1 0 -0 0 1 
1 6.2831853071795862 -0 0 1 
1 0 -0 0 1 
Curves 54
1 18 1017 36 1 0 0 
1 18 1075.2506198471799 36 1 0 0 
1 18 1017 36 0 1 0 
1 18 1017 36 0 1 0 
1 18 1017 453.22033011490652 1 0 0 
1 18 1017 453.22033011490652 0 0 -1 
1 18 1017 453.22033011490652 0 0 -1 
1 18 1075.2506198471799 36 0 0 1 
1 17.5 1075.2506198471799 494 -1 0 0 
1 18 1075.2506198471799 36 0 0 1 
1 18 1010.5 453.22033011490652 0 1 0 
1 18 1010.5 489.48010776226721 0 0 -1 
1 18 995.25061984717991 489.48010776226721 0 1 0 
1 18 995.25061984717991 514.22033011490657 0 0 -1 
1 18 1075.2506198471799 514.22033011490657 0 -1 0 
1 17.999999999999993 1018.7506198471799 384.22681695287321 0 -0 1 
2 17.999999999999993 1035.2506198471799 484.72033011490652 1 0 0 -0 0 1 0 -1 0 16.5
1 17.999999999999993 1051.7506198471799 384.22681695287321 0 -0 1 
2 17.999999999999993 1054.7506198471799 491 1 0 0 -0 0 1 0 -1 0 3
1 17.999999999999993 1039.5621892138731 494 0 -1 0 
2 17.999999999999993 1055.2506198471799 448.22033011490652 1 0 0 -0 0 1 0 -1 0 2.5
2 17.999999999999993 1037 192 1 0 0 -0 0 1 0 -1 0 2.5
2 17.999999999999993 1042.5 320.11016505745329 1 0 0 -0 0 1 0 -1 0 2.5
1 18 1010.5 453.22033011490652 0 1 0 
1 18 1010.5 489.48010776226721 0 0 -1 
1 18 995.25061984717991 489.48010776226721 0 1 0 
1 18 995.25061984717991 514.22033011490657 0 0 -1 
1 18 1075.2506198471799 514.22033011490657 0 -1 0 
1 35.999999999999993 1018.7506198471799 384.22681695287321 0 -0 1 
2 35.999999999999993 1035.2506198471799 484.72033011490652 1 0 0 -0 0 1 0 -1 0 16.5
1 35.999999999999993 1051.7506198471799 384.22681695287321 0 -0 1 
2 35.999999999999993 1054.7506198471799 491 1 0 0 -0 0 1 0 -1 0 3
1 35.999999999999993 1039.5621892138731 494 0 -1 0 
2 36 1055.2506198471799 448.22033011490652 1 0 0 -0 0 1 0 -1 0 4.5
2 36 1037 192 1 0 0 -0 0 1 0 -1 0 4.5
2 36 1042.5 320.11016505745329 1 0 0 -0 0 1 0 -1 0 4.5
1 18 1010.5 453.22033011490652 1 0 0 
1 17 1054.7506198471799 494 1 0 -0 
1 18 1010.5 489.48010776226721 1 0 0 
1 18 995.25061984717991 489.48010776226721 1 0 0 
1 18 995.25061984717991 514.22033011490657 1 0 0 
1 17.5 1018.7506198471799 514.22033011490657 1 0 0 
1 17 1018.7506198471799 484.72033011490652 1 0 -0 
1 17 1051.7506198471799 484.72033011490652 1 0 -0 
1 17 1051.7506198471799 491 1 0 -0 
2 34 1055.2506198471799 448.22033011490652 1 0 0 -0 0 1 0 -1 0 2.5
1 17 1055.2506198471799 450.72033011490652 1 0 0 
2 34 1037 192 1 0 0 -0 0 1 0 -1 0 2.5
1 17 1037 194.5 1 0 0 
2 34 1042.5 320.11016505745329 1 0 0 -0 0 1 0 -1 0 2.5
1 17 1042.5 322.61016505745329 1 0 0 
1 34 1055.2506198471799 450.72033011490652 0.70710678118654757 1.7e-16 0.70710678118654746 
1 34 1037 194.5 0.70710678118654757 1.7e-16 0.70710678118654746 
1 34 1042.5 322.61016505745329 0.70710678118654757 1.7e-16 0.70710678118654746 
Polygon3D 0
PolygonOnTriangulations 0
Surfaces 25
1 18 1017 36 0 0 1 0 1 0 -1 0 0 
1 18 1017 453.22033011490652 -0 1 0 0 0 -1 -1 0 -0 
1 18 1075.2506198471799 36 0 -1 0 0 0 1 -1 0 0 
1 17.999999999999993 1043.8737585805663 283.7333037908399 1 0 0 -0 0 1 0 -1 0 
1 17.999999999999993 1043.8737585805663 283.7333037908399 1 0 0 -0 0 1 0 -1 0 
1 18 1010.5 453.22033011490652 0 0 1 0 1 0 -1 0 0 
1 17 1035.2506198471799 494 0 0 1 1 0 -0 -0 1 0 
1 18 1010.5 489.48010776226721 -0 1 0 0 0 -1 -1 0 -0 
1 18 995.25061984717991 489.48010776226721 0 0 1 0 1 0 -1 0 0 
1 18 995.25061984717991 514.22033011490657 -0 1 0 0 0 -1 -1 0 -0 
1 18 1075.2506198471799 514.22033011490657 0 0 -1 0 -1 0 -1 -0 -0 
1 17 1018.7506198471799 484.72033011490652 -0 1 0 0 0 1 1 0 -0 
2 17 1035.2506198471799 484.72033011490652 1 0 0 -0 0 1 0 -1 0 16.5
2 448.72033011490652 40 2.4868995751603507e-14 1.1102230246251565e-16 0 -1 1 0 1.1102230246251565e-16 0 -1 0 16.5
1 17 1051.7506198471799 484.72033011490652 -0 1 0 0 0 1 1 0 -0 
2 17 1054.7506198471799 491 1 0 0 -0 0 1 0 -1 0 3
2 455 59.5 2.4868995751603507e-14 1.1102230246251565e-16 0 -1 1 0 1.1102230246251565e-16 0 -1 0 3
2 17 1055.2506198471799 448.22033011490652 1 0 0 -0 0 1 0 -1 0 2.5
2 17 1037 192 1 0 0 -0 0 1 0 -1 0 2.5
2 17 1042.5 320.11016505745329 1 0 0 -0 0 1 0 -1 0 2.5
2 448.72033011490652 40 2.1316282072803006e-14 1.1102230246251565e-16 0 -1 1 0 1.1102230246251565e-16 0 -1 0 16.5
2 455 59.5 2.1316282072803006e-14 1.1102230246251565e-16 0 -1 1 0 1.1102230246251565e-16 0 -1 0 3
3 34 1055.2506198471799 448.22033011490652 1 0 0 -0 0 1 0 -1 0 2.5
0.78539816339744817
3 34 1037 192 1 0 0 -0 0 1 0 -1 0 2.5
0.78539816339744817
3 34 1042.5 320.11016505745329 1 0 0 -0 0 1 0 -1 0 2.5
0.78539816339744817
Triangulations 0

TShapes 140
Ve
1.5e-07
18 1017 36
0 0

0101101
*
Ve
1.5e-07
36 1017 36
0 0

0101101
*
Ed
 1e-07 1 1 0
1  1 0 0 18
2  1 1 0 0 18
2  2 2 0 0 18
0

0101000
+140 6 -139 6 *
Ve
1.5e-07
18 1075.25061984718 36
0 0

0101101
*
Ve
1.5e-07
36 1075.25061984718 36
0 0

0101101
*
Ed
 1e-07 1 1 0
1  2 0 0 18
2  3 1 0 0 18
2  4 3 0 0 18
0

0101000
+137 6 -136 6 *
Ed
 1.5e-07 1 1 0
1  3 0 0 58.2506198471799
2  5 1 0 0 58.2506198471799
2  6 4 0 0 58.2506198471799
0

0101000
+140 6 -137 6 *
Ed
 1.5e-07 1 1 0
1  4 0 0 58.2506198471799
2  7 1 8 0 58.2506198471799
2  8 5 0 0 58.2506198471799
0

0101000
+139 9 -136 9 *
Wi

0101100
+138 0 -135 0 -134 0 +133 7 *
Fa
0  1e-07 1 0

0111000
+132 0 *
Ve
1.5e-07
18 1017 453.220330114907
0 0

0101101
*
Ve
1.5e-07
36 1017 453.220330114907
0 0

0101101
*
Ed
 1e-07 1 1 0
1  5 0 0 18
2  9 2 0 0 18
2  10 6 0 0 18
0

0101000
+130 6 -129 6 *
Ed
 1.5e-07 1 1 0
1  6 0 0 417.220330114907
2  11 2 0 0 417.220330114907
2  12 4 0 0 417.220330114907
0

0101000
+130 6 -140 6 *
Ed
 1.5e-07 1 1 0
1  7 0 0 417.220330114907
2  13 2 8 0 417.220330114907
2  14 5 0 0 417.220330114907
0

0101000
+129 9 -139 9 *
Wi

0101100
+128 0 -138 0 -127 0 +126 7 *
Fa
0  1e-07 2 0

0111000
+125 0 *
Ve
1.50000007e-07
18 1075.25061984718 494
0 0

0101101
*
Ed
 1.5e-07 1 1 0
1  8 0 0 458
2  15 3 0 0 458
2  16 4 0 0 458
0

0101000
+137 6 -123 6 *
Ve
1.50000007e-07
36 1075.25061984718 494
0 0

0101101
*
Ed
 1.5e-07 1 1 0
1  9 0 -18.5 -0.5
2  17 3 5 -18.5 -0.5
2  18 7 0 -18.5 -0.5
0

0101000
+121 10 -123 10 *
Ed
 1.5e-07 1 1 0
1  10 0 0 458
2  19 3 8 0 458
2  20 5 0 0 458
0

0101000
+136 9 -121 9 *
Wi

0101100
-122 5 +120 0 +119 11 +135 5 *
Fa
0  1e-07 3 5

0111000
+118 0 *
Ve
1.5e-07
18 1010.5 453.220330114907
0 0

0101101
*
Ed
 1.5e-07 1 1 0
1  11 0 0 6.5
2  21 4 0 0 6.5
2  22 6 0 0 6.5
0

0101000
+116 6 -130 6 *
Ve
1.5e-07
18 1010.5 489.480107762267
0 0

0101101
*
Ed
 1.5e-07 1 1 0
1  12 0 0 36.2597776473607
2  23 4 0 0 36.2597776473607
2  24 8 0 0 36.2597776473607
0

0101000
+114 6 -116 6 *
Ve
1.5e-07
18 995.25061984718 489.480107762267
0 0

0101101
*
Ed
 1.5e-07 1 1 0
1  13 0 0 15.2493801528201
2  25 4 0 0 15.2493801528201
2  26 9 0 0 15.2493801528201
0

0101000
+112 6 -114 6 *
Ve
1.5e-07
18 995.25061984718 514.220330114907
0 0

0101101
*
Ed
 1.5e-07 1 1 0
1  14 0 0 24.7402223526394
2  27 4 0 0 24.7402223526394
2  28 10 0 0 24.7402223526394
0

0101000
+110 6 -112 6 *
Ve
1.50000007e-07
18 1018.75061984718 514.220330114907
0 0

0101101
*
Ed
 1.5e-07 1 1 0
1  15 0 56.5 80
2  29 4 0 56.5 80
2  30 11 0 56.5 80
0

0101000
+108 6 -110 6 *
Ve
1.50000284e-07
18 1018.75061984718 484.720330114906
0 0

0101101
*
Ed
 1.5e-07 1 1 0
1  16 0 100.493513162033 129.993513162033
2  31 4 0 100.493513162033 129.993513162033
2  32 12 0 100.493513162033 129.993513162033
0

0101000
+106 6 -108 6 *
Ve
1.50000227e-07
18 1051.75061984718 484.720330114906
0 0

0101101
*
Ed
 1.5e-07 1 1 0
1  17 0 1.57079632679491 4.71238898038467
2  33 4 0 1.57079632679491 4.71238898038467
2  34 13 0 1.57079632679491 4.71238898038467
2  35 14 13 1.57079632679491 4.71238898038467
2  36 14 15 1.57079632679491 4.71238898038467
0

0101000
+106 6 -104 6 *
Ve
1.50001e-07
18 1051.75061984718 491
0 0

0101101
*
Ed
 1.5e-07 1 1 0
1  18 0 100.493513162033 106.773183047127
2  37 4 0 100.493513162033 106.773183047127
2  38 15 0 100.493513162033 106.773183047127
0

0101000
+104 6 -102 6 *
Ve
1.5e-07
18 1054.75061984718 494
0 0

0101101
*
Ed
 1.5e-07 1 1 0
1  19 0 0 1.5707963267949
2  39 4 5 0 1.5707963267949
2  40 16 0 0 1.5707963267949
2  41 17 16 0 1.5707963267949
2  42 17 17 0 1.5707963267949
0

0101000
+100 10 -102 10 *
Ed
 1.5e-07 1 1 0
1  20 0 -35.6884306333068 -15.1884306333068
2  43 4 5 -35.6884306333068 -15.1884306333068
2  44 7 0 -35.6884306333068 -15.1884306333068
0

0101000
+123 10 -100 10 *
Wi

0101100
+115 5 +113 5 +111 5 +109 5 +107 5 +105 5 -103 5 -101 5 +99 0 +98 0 
+122 5 +134 5 +127 5 *
Ve
1e-07
18 1055.25061984718 450.720330114907
0 0

0101101
*
Ed
 1e-07 1 1 0
1  21 0 0 6.28318530717959
2  45 4 0 0 6.28318530717959
2  46 18 0 0 6.28318530717959
0

0101100
+96 6 -96 6 *
Wi

0101100
-95 5 *
Ve
1e-07
18 1037 194.5
0 0

0101101
*
Ed
 1e-07 1 1 0
1  22 0 0 6.28318530717959
2  47 4 0 0 6.28318530717959
2  48 19 0 0 6.28318530717959
0

0101100
+93 6 -93 6 *
Wi

0101100
-92 5 *
Ve
1e-07
18 1042.5 322.610165057453
0 0

0101101
*
Ed
 1e-07 1 1 0
1  23 0 0 6.28318530717959
2  49 4 0 0 6.28318530717959
2  50 20 0 0 6.28318530717959
0

0101100
+90 6 -90 6 *
Wi

0101100
-89 5 *
Fa
0  1e-07 4 5

0111000
+97 0 +94 0 +91 0 +88 0 *
Ve
1.5e-07
36 1010.5 453.220330114907
0 0

0101101
*
Ed
 1.5e-07 1 1 0
1  24 0 0 6.5
2  51 5 0 0 6.5
2  52 6 8 0 6.5
0

0101000
+86 9 -129 9 *
Ve
1.5e-07
36 1010.5 489.480107762267
0 0

0101101
*
Ed
 1.5e-07 1 1 0
1  25 0 0 36.2597776473607
2  53 5 0 0 36.2597776473607
2  54 8 8 0 36.2597776473607
0

0101000
+84 9 -86 9 *
Ve
1.5e-07
36 995.25061984718 489.480107762267
0 0

0101101
*
Ed
 1.5e-07 1 1 0
1  26 0 0 15.2493801528201
2  55 5 0 0 15.2493801528201
2  56 9 8 0 15.2493801528201
0

0101000
+82 9 -84 9 *
Ve
1.5e-07
36 995.25061984718 514.220330114907
0 0

0101101
*
Ed
 1.5e-07 1 1 0
1  27 0 0 24.7402223526394
2  57 5 0 0 24.7402223526394
2  58 10 8 0 24.7402223526394
0

0101000
+80 9 -82 9 *
Ve
1.50000007e-07
36 1018.75061984718 514.220330114907
0 0

0101101
*
Ed
 1.5e-07 1 1 0
1  28 0 56.5 80
2  59 5 0 56.5 80
2  60 11 8 56.5 80
0

0101000
+78 9 -80 9 *
Ve
1.50000284e-07
36 1018.75061984718 484.720330114906
0 0

0101101
*
Ed
 1.5e-07 1 1 0
1  29 0 100.493513162033 129.993513162033
2  61 5 7 100.493513162033 129.993513162033
2  62 12 0 100.493513162033 129.993513162033
0

0101000
+76 6 -78 6 *
Ve
1.50000227e-07
36 1051.75061984718 484.720330114906
0 0

0101101
*
Ed
 1.5e-07 1 1 0
1  30 0 1.57079632679491 4.71238898038467
2  63 5 7 1.57079632679491 4.71238898038467
2  64 13 0 1.57079632679491 4.71238898038467
2  65 21 19 1.57079632679491 4.71238898038467
2  66 21 21 1.57079632679491 4.71238898038467
0

0101000
+76 6 -74 6 *
Ve
1.50001e-07
36 1051.75061984718 491
0 0

0101101
*
Ed
 1.5e-07 1 1 0
1  31 0 100.493513162033 106.773183047127
2  67 5 7 100.493513162033 106.773183047127
2  68 15 0 100.493513162033 106.773183047127
0

0101000
+74 6 -72 6 *
Ve
1.5e-07
36 1054.75061984718 494
0 0

0101101
*
Ed
 1.5e-07 1 1 0
1  32 0 0 1.5707963267949
2  69 5 11 0 1.5707963267949
2  70 16 0 0 1.5707963267949
2  71 22 22 0 1.5707963267949
2  72 22 23 0 1.5707963267949
0

0101000
+70 10 -72 10 *
Ed
 1.5e-07 1 1 0
1  33 0 -35.6884306333068 -15.1884306333068
2  73 5 11 -35.6884306333068 -15.1884306333068
2  74 7 0 -35.6884306333068 -15.1884306333068
0

0101000
+121 10 -70 10 *
Wi

0101100
+85 11 +83 11 +81 11 +79 11 +77 11 +75 5 -73 5 -71 5 +69 0 +68 0 
+119 11 +133 11 +126 11 *
Ve
1.00000007e-07
36 1055.25061984718 452.720330114907
0 0

0101101
*
Ed
 1.00000007e-07 1 1 0
1  34 0 0 6.28318530717959
2  75 5 7 0 6.28318530717959
2  76 23 0 0 6.28318530717959
0

0101000
+66 6 -66 6 *
Wi

0101100
-65 5 *
Ve
1.00000007e-07
36 1037 196.5
0 0

0101101
*
Ed
 1.00000007e-07 1 1 0
1  35 0 0 6.28318530717959
2  77 5 7 0 6.28318530717959
2  78 24 0 0 6.28318530717959
0

0101000
+63 6 -63 6 *
Wi

0101100
-62 5 *
Ve
1.00000007e-07
36 1042.5 324.610165057453
0 0

0101101
*
Ed
 1.00000007e-07 1 1 0
1  36 0 0 6.28318530717959
2  79 5 7 0 6.28318530717959
2  80 25 0 0 6.28318530717959
0

0101000
+60 6 -60 6 *
Wi

0101100
-59 5 *
Fa
0  1e-07 5 11

0111000
+67 0 +64 0 +61 0 +58 0 *
Ed
 1e-07 1 1 0
1  37 0 0 18
2  81 6 0 0 18
2  82 8 0 0 18
0

0101000
+116 6 -86 6 *
Wi

0101100
+56 0 -128 0 -115 0 +85 7 *
Fa
0  1e-07 6 0

0111000
+55 0 *
Ed
 1e-07 1 1 0
1  38 0 0.999999999999993 19
2  83 7 0 0.999999999999993 19
2  84 16 0 0.999999999999993 19
0

0101000
+100 10 -70 10 *
Wi

0101100
+98 0 +120 0 -68 0 +53 0 *
Fa
0  1e-07 7 0

0111000
+52 0 *
Ed
 1e-07 1 1 0
1  39 0 0 18
2  85 8 0 0 18
2  86 9 0 0 18
0

0101000
+114 6 -84 6 *
Wi

0101100
+50 0 -56 0 -113 0 +83 7 *
Fa
0  1e-07 8 0

0111000
+49 0 *
Ed
 1e-07 1 1 0
1  40 0 0 18
2  87 9 0 0 18
2  88 10 0 0 18
0

0101000
+112 6 -82 6 *
Wi

0101100
+47 0 -50 0 -111 0 +81 7 *
Fa
0  1e-07 9 0

0111000
+46 0 *
Ed
 1e-07 1 1 0
1  41 0 0 18
2  89 10 0 0 18
2  90 11 0 0 18
0

0101000
+110 6 -80 6 *
Wi

0101100
+44 0 -47 0 -109 0 +79 7 *
Fa
0  1e-07 10 0

0111000
+43 0 *
Ed
 1.5e-07 1 1 0
1  42 0 0.5 18.5
2  91 11 0 0.5 18.5
2  92 12 0 0.5 18.5
0

0101000
+108 6 -78 6 *
Wi

0101100
-107 0 -44 0 +77 7 +41 0 *
Fa
0  1e-07 11 0

0111000
+40 0 *
Ed
 1e-07 1 1 0
1  43 0 0.999999999999993 19
2  93 12 0 0.999999999999993 19
2  94 13 0 0.999999999999993 19
0

0101000
+106 6 -76 6 *
Wi

0101100
-38 0 -75 0 +41 0 +105 0 *
Fa
0  1e-07 12 0

0111000
+37 0 *
Ed
 1e-07 1 1 0
1  44 0 0.999999999999993 19
2  95 13 0 0.999999999999993 19
2  96 15 0 0.999999999999993 19
0

0101000
+104 6 -74 6 *
Wi

0101100
-73 0 +35 0 +103 0 -38 0 *
Fa
0  1e-07 13 0

0111000
+34 0 *
Ed
 1e-07 1 1 0
1  45 0 0.999999999999993 19
2  97 15 5 0.999999999999993 19
2  98 16 0 0.999999999999993 19
0

0101000
+102 10 -72 10 *
Wi

0101100
-35 5 -71 5 +32 0 +101 5 *
Fa
0  1e-07 15 5

0111000
+31 0 *
Wi

0101100
-69 0 +32 0 +99 0 -53 0 *
Fa
0  1e-07 16 0

0111000
+29 0 *
Ve
1e-07
34 1055.25061984718 450.720330114907
0 0

0101101
*
Ed
 1e-07 1 1 0
1  46 0 0 6.28318530717959
2  99 18 0 0 6.28318530717959
2  100 23 0 0 6.28318530717959
0

0101000
+27 6 -27 6 *
Ed
 1e-07 1 1 0
1  47 0 0.999999999999993 17
3  101 102CN 18 0 0.999999999999993 17
0

0101000
+96 6 -27 6 *
Wi

0101100
-26 0 +25 0 +95 0 -25 0 *
Fa
0  1e-07 18 0

0111000
+24 0 *
Ve
1e-07
34 1037 194.5
0 0

0101101
*
Ed
 1e-07 1 1 0
1  48 0 0 6.28318530717959
2  103 19 0 0 6.28318530717959
2  104 24 0 0 6.28318530717959
0

0101000
+22 6 -22 6 *
Ed
 1e-07 1 1 0
1  49 0 0.999999999999993 17
3  105 106CN 19 0 0.999999999999993 17
0

0101000
+93 6 -22 6 *
Wi

0101100
-21 0 +20 0 +92 0 -20 0 *
Fa
0  1e-07 19 0

0111000
+19 0 *
Ve
1e-07
34 1042.5 322.610165057453
0 0

0101101
*
Ed
 1e-07 1 1 0
1  50 0 0 6.28318530717959
2  107 20 0 0 6.28318530717959
2  108 25 0 0 6.28318530717959
0

0101000
+17 6 -17 6 *
Ed
 1e-07 1 1 0
1  51 0 0.999999999999993 17
3  109 110CN 20 0 0.999999999999993 17
0

0101000
+90 6 -17 6 *
Wi

0101100
-16 0 +15 0 +89 0 -15 0 *
Fa
0  1e-07 20 0

0111000
+14 0 *
Ed
 1e-07 1 1 0
1  52 0 0 2.82842712474619
3  111 112CN 23 0 0 2.82842712474619
0

0101000
+27 6 -66 6 *
Wi

0101100
-65 0 +12 0 +26 0 -12 0 *
Fa
0  1e-07 23 0

0111000
+11 0 *
Ed
 1e-07 1 1 0
1  53 0 0 2.82842712474619
3  113 114CN 24 0 0 2.82842712474619
0

0101000
+22 6 -63 6 *
Wi

0101100
-62 0 +9 0 +21 0 -9 0 *
Fa
0  1e-07 24 0

0111000
+8 0 *
Ed
 1e-07 1 1 0
1  54 0 0 2.82842712474619
3  115 116CN 25 0 0 2.82842712474619
0

0101000
+17 6 -60 6 *
Wi

0101100
-59 0 +6 0 +16 0 -6 0 *
Fa
0  1e-07 25 0

0111000
+5 0 *
Sh

0101100
-131 5 -124 5 -117 0 -87 0 +57 0 -54 5 +51 0 -48 5 -45 5 -42 5 
-39 5 +36 5 -33 5 -30 0 +28 0 -23 5 -18 5 -13 5 -10 5 -7 5 
-4 5 *
So

0100000
+3 0 *
Co

1100000
+2 0 *

+1 4 