DBRep_DrawableShape

CASCADE Topology V1, (c) Matra-Datavision
Locations 2
1
              1               0               0               0 
              0               1               0               0 
              0               0               1              18 
2  1 -1 0
Curve2ds 8
1 0 0 1 0 
1 0 -18 1 0 
1 0 0 1 0 
1 0 -18 1 0 
1 0 0 1 0 
1 0 -18 1 0 
1 0 0 1 0 
1 0 -18 1 0 
Curves 15
1 417.22033011490652 15.249380152820095 3.9961069145976856e-15 0 1 0 
2 415.22033011490652 19.749380152820095 3.9961069145976856e-15 0 0 -1 -1 0 0 0 1 0 2
1 417.22033011490652 21.749380152820095 3.9961069145976856e-15 -1 0 0 
1 0 21.749380152820095 3.9961069145976856e-15 0 1 0 
1 0 80 3.9961069145976856e-15 1 0 0 
1 458 44.31156936669322 3.9961069145976856e-15 0 -1 -0 
2 455 59.5 3.9961069145976856e-15 0 0 -1 1 0 0 0 -1 0 3
1 348.22681695287321 56.5 3.9961069145976856e-15 1 0 0 
2 448.72033011490652 40 3.9961069145976856e-15 0 0 -1 1 0 0 0 -1 0 16.5
1 348.22681695287321 23.5 3.9961069145976856e-15 1 0 0 
1 478.22033011490657 80 3.9961069145976856e-15 0 -1 -0 
1 478.22033011490657 0 3.9961069145976856e-15 -1 0 0 
1 453.48010776226721 0 3.9961069145976856e-15 0 1 0 
2 451.48010776226721 13.249380152820095 3.9961069145976856e-15 0 0 -1 -1 0 0 0 1 0 2
1 453.48010776226721 15.249380152820095 3.9961069145976856e-15 -1 0 0 
Polygon3D 0
PolygonOnTriangulations 0
Surfaces 4
2 415.22033011490652 19.749380152820095 3.9961069145976856e-15 0 0 -1 -1 0 0 0 1 0 2
2 455 59.5 3.9961069145976856e-15 0 0 -1 1 0 0 0 -1 0 3
2 448.72033011490652 40 3.9961069145976856e-15 0 0 -1 1 0 0 0 -1 0 16.5
2 451.48010776226721 13.249380152820095 3.9961069145976856e-15 0 0 -1 -1 0 0 0 1 0 2
Triangulations 0

TShapes 31
Ve
1e-07
417.220330114907 15.2493801528201 3.99610691459769e-15
0 0

0101101
*
Ve
1e-07
417.220330114907 19.7493801528201 3.99610691459769e-15
0 0

0101101
*
Ed
 1e-07 1 1 0
1  1 0 0 4.5
0

0101000
+31 0 -30 0 *
Ve
1e-07
415.220330114907 21.7493801528201 3.99610691459769e-15
0 0

0101101
*
Ed
 1e-07 1 1 0
1  2 0 1.5707963267949 3.14159265358979
2  1 1 0 1.5707963267949 3.14159265358979
2  2 1 2 1.5707963267949 3.14159265358979
0

0101000
+28 0 -30 0 *
Ve
1e-07
0 21.7493801528201 3.99610691459769e-15
0 0

0101101
*
Ed
 1e-07 1 1 0
1  3 0 2 417.220330114907
0

0101000
+28 0 -26 0 *
Ve
1e-07
0 80 3.99610691459769e-15
0 0

0101101
*
Ed
 1e-07 1 1 0
1  4 0 0 58.2506198471799
0

0101000
+26 0 -24 0 *
Ve
1e-07
458 80 3.99610691459769e-15
0 0

0101101
*
Ed
 1e-07 1 1 0
1  5 0 0 458
0

0101000
+24 0 -22 0 *
Ve
1e-07
458 59.5 3.99610691459769e-15
0 0

0101101
*
Ed
 1e-07 1 1 0
1  6 0 -35.6884306333068 -15.1884306333068
0

0101000
+22 0 -20 0 *
Ve
1e-07
455 56.5 3.99610691459769e-15
0 0

0101101
*
Ed
 1e-07 1 1 0
1  7 0 6.28318530717959 7.85398163397448
2  3 2 0 6.28318530717959 7.85398163397448
2  4 2 2 6.28318530717959 7.85398163397448
0

0101000
+20 0 -18 0 *
Ve
1e-07
448.720330114907 56.5 3.99610691459769e-15
0 0

0101101
*
Ed
 1e-07 1 1 0
1  8 0 100.493513162033 106.773183047127
0

0101000
+16 0 -18 0 *
Ve
1e-07
448.720330114907 23.5 3.99610691459769e-15
0 0

0101101
*
Ed
 1e-07 1 1 0
1  9 0 1.5707963267949 4.71238898038469
2  5 3 0 1.5707963267949 4.71238898038469
2  6 3 2 1.5707963267949 4.71238898038469
0

0101000
+14 0 -16 0 *
Ve
1e-07
478.220330114907 23.5 3.99610691459769e-15
0 0

0101101
*
Ed
 1e-07 1 1 0
1  10 0 100.493513162033 129.993513162033
0

0101000
+14 0 -12 0 *
Ve
1e-07
478.220330114907 0 3.99610691459769e-15
0 0

0101101
*
Ed
 1e-07 1 1 0
1  11 0 56.5 80
0

0101000
+12 0 -10 0 *
Ve
1e-07
453.480107762267 0 3.99610691459769e-15
0 0

0101101
*
Ed
 1e-07 1 1 0
1  12 0 -0 24.7402223526394
0

0101000
+10 0 -8 0 *
Ve
1e-07
453.480107762267 13.2493801528201 3.99610691459769e-15
0 0

0101101
*
Ed
 1e-07 1 1 0
1  13 0 0 13.2493801528201
0

0101000
+8 0 -6 0 *
Ve
1e-07
451.480107762267 15.2493801528201 3.99610691459769e-15
0 0

0101101
*
Ed
 1e-07 1 1 0
1  14 0 1.5707963267949 3.14159265358979
2  7 4 0 1.5707963267949 3.14159265358979
2  8 4 2 1.5707963267949 3.14159265358979
0

0101000
+4 0 -6 0 *
Ed
 1e-07 1 1 0
1  15 0 2 36.2597776473607
0

0101000
+4 0 -31 0 *
Wi

0101100
-29 0 +27 0 -25 0 -23 0 -21 0 -19 0 -17 0 +15 0 +13 0 -11 0 
-9 0 -7 0 -5 0 +3 0 -2 0 *

+1 0 