DBRep_DrawableShape

CASCADE Topology V1, (c) Matra-Datavision
Locations 14
1
              1               0               0               0 
              0               1               0               0 
              0               0               1               0 
1
              1               0               0               0 
              0               1               0               0 
              0               0               1               0 
1
1.11022302462516e-16               0               1               0 
              0               1               0               0 
             -1               0 1.11022302462516e-16               0 
1
              1               0               0             -36 
              0               1               0 -995.25061984718 
              0               0               1              36 
1
              1               0               0               0 
              0               1               0               0 
              0               0               1             -18 
1
              1               0               0               0 
              0               1               0               0 
              0               0               1               1 
1
              1               0               0               0 
              0               1               0               0 
              0               0               1              -1 
2  1 1 2 1 3 1 4 1 5 1 6 1 7 1 0
2  1 1 2 1 3 1 4 1 0
1
              1               0               0              18 
              0               1               0               0 
              0               0               1               0 
2  4 -1 3 -1 2 -1 1 -1 0
2  2 -1 1 -1 0
1
              1               0               0               0 
              0               1               0               0 
              0               0               1              18 
2  1 1 2 1 3 1 4 1 5 1 6 1 7 1 13 1 0
Curve2ds 10
2 -91.733303790839898 6.8737585805663457 1 0 -0 1 4.5
1 0 2.8284271247461903 1 0 
1 6.2831853071795862 -0 0 1 
1 0 -0 0 1 
1 0 17 1 0 
1 0 0 1 0 
1 6.2831853071795862 -0 0 1 
1 0 -0 0 1 
2 -91.733303790839898 6.8737585805663457 1 0 -0 1 2.5
1 0 0.99999999999999289 1 0 
Curves 5
2 36 1037 192 1 0 0 -0 0 1 0 -1 0 4.5
1 34 1037 194.5 0.70710678118654757 1.7e-16 0.70710678118654746 
2 34 1037 192 1 0 0 -0 0 1 0 -1 0 2.5
1 17 1037 194.5 1 0 0 
2 17.999999999999993 1037 192 1 0 0 -0 0 1 0 -1 0 2.5
Polygon3D 0
PolygonOnTriangulations 0
Surfaces 5
1 17.999999999999993 1043.8737585805663 283.7333037908399 1 0 0 -0 0 1 0 -1 0 
1 17.999999999999993 1043.8737585805663 283.7333037908399 1 0 0 -0 0 1 0 -1 0 
3 34 1037 192 1 0 0 -0 0 1 0 -1 0 2.5
0.78539816339744817
2 17 1037 192 1 0 0 -0 0 1 0 -1 0 2.5
1 17.999999999999993 1043.8737585805663 283.7333037908399 1 0 0 -0 0 1 0 -1 0 
Triangulations 0

TShapes 18
Ve
1.50000008078726e-07
160.5 41.7493801528201 -1.4210854715202e-14
0 0

0101101
*
Ed
 1.50000007579126e-07 1 1 0
1  1 0 0 6.28318530717959
2  1 2 10 0 6.28318530717959
2  2 3 0 0 6.28318530717959
0

0101000
+18 11 -18 11 *
Wi

0101100
+17 9 *
Fa
0  1.5e-07 1 8

0101000
+16 0 *
Ve
1e-07
34 1037 194.5
0 0

0101101
*
Ed
 1e-07 1 1 0
1  2 0 0 2.82842712474619
3  3 4CN 3 0 0 2.82842712474619
0

0101000
+14 12 -18 11 *
Ed
 1e-07 1 1 0
1  3 0 0 6.28318530717959
2  5 4 0 0 6.28318530717959
2  6 3 0 0 6.28318530717959
0

0101000
+14 12 -14 12 *
Wi

0101100
-17 9 +13 9 +12 9 -13 9 *
Fa
0  1e-07 3 9

0101000
+11 0 *
Ve
1.5e-07
158.5 41.7493801528201 18
0 0

0101101
*
Ed
 1e-07 1 1 0
1  4 0 0.999999999999993 17
3  7 8CN 4 0 0.999999999999993 17
0

0101000
+9 11 -14 12 *
Ed
 1.5e-07 1 1 0
1  5 0 0 6.28318530717959
2  9 5 0 0 6.28318530717959
2  10 4 0 0 6.28318530717959
0

0101000
+9 11 -9 11 *
Wi

0101100
-12 9 +8 9 +7 9 -8 9 *
Fa
0  1e-07 4 9

0101000
+6 0 *
Wi

0101100
+7 9 *
Fa
0  1.5e-07 1 14

0101000
+4 0 *
Sh

0101100
+15 0 +10 0 +5 0 -3 0 *
So

0100000
+2 0 *

+1 0 