DBRep_DrawableShape

CASCADE Topology V1, (c) Matra-Datavision
Locations 16
1
              1               0               0               0 
              0               1               0               0 
              0               0               1              -1 
1
              1               0               0               0 
              0               1               0               0 
              0               0               1               0 
1
              1               0               0               0 
              0               1               0               0 
              0               0               1               0 
1
1.11022302462516e-16               0              -1               0 
              0               1               0               0 
              1               0 1.11022302462516e-16               0 
1
              1               0               0 514.220330114907 
              0               1               0 -995.25061984718 
              0               0               1            -564 
1
              1               0               0               0 
              0               1               0               0 
              0               0               1             -18 
1
              1               0               0               0 
              0               1               0               0 
              0               0               1               1 
2  2 1 3 1 4 1 5 1 6 1 7 1 0
2  7 -1 6 -1 5 -1 4 -1 3 -1 2 -1 0
2  1 -1 7 -1 6 -1 5 -1 4 -1 3 -1 2 -1 0
1
              1               0               0               0 
              0               1               0               0 
              0               0               1              18 
2  11 -1 1 -1 7 -1 6 -1 5 -1 4 -1 3 -1 2 -1 0
2  3 1 4 1 5 1 6 1 7 1 0
2  1 -1 7 -1 6 -1 5 -1 4 -1 3 -1 0
2  11 -1 1 -1 7 -1 6 -1 5 -1 4 -1 3 -1 0
2  7 -1 6 -1 5 -1 4 -1 3 -1 0
Curve2ds 17
1 169.48702632406662 33.373758580566346 0 -1 
1 205.74680397142731 33.373758580566346 -1 -0 
1 205.74680397142731 48.62313873338644 0 -1 
1 230.48702632406668 48.62313873338644 -1 -0 
1 230.48702632406668 -31.37686126661356 0 1 
1 100.49351316203331 25.12313873338644 1 0 
2 200.98702632406662 8.6231387333864404 1 0 -0 1 16.5
1 0 0 1 0 
1 0 -18 1 0 
1 100.49351316203331 -7.8768612666135596 1 0 
2 207.2666962091601 -10.87686126661356 1 0 -0 1 3
1 0 0 1 0 
1 0 -18 1 0 
1 210.2666962091601 4.3115693666932202 0 1 
1 -247.7333037908399 -31.37686126661356 1 0 
1 -247.7333037908399 26.873758580566346 0 -1 
1 169.48702632406662 26.873758580566346 -1 -0 
Curves 13
1 582 1010.5 453.22033011490652 -0 1 -0 
1 582 1010.5 489.48010776226721 -0 -0 -1 
1 582 995.25061984717991 489.48010776226721 -0 1 -0 
1 582 995.25061984717991 514.22033011490657 -0 -0 -1 
1 582 1075.2506198471799 514.22033011490657 -0 -1 -0 
1 582 1018.7506198471799 384.22681695287321 -0 -0 1 
2 582 1035.2506198471799 484.72033011490652 1 -0 0 -0 0 1 -0 -1 0 16.5
1 582 1051.7506198471799 384.22681695287321 -0 -0 1 
2 582 1054.7506198471799 491 1 -0 -0 0 -0 1 -0 -1 0 3
1 582 1039.5621892138731 494 -0 -1 0 
1 582 1075.2506198471799 36 -0 -0 1 
1 582 1017 36 -0 1 -0 
1 582 1017 453.22033011490652 -0 -0 -1 
Polygon3D 0
PolygonOnTriangulations 0
Surfaces 3
1 582 1043.8737585805663 283.7333037908399 -1 -0 -0 -0 0 1 -0 -1 0 
2 29.500000000000114 40 0 -1.1102230246251565e-16 -0 -1 -1 0 1.1102230246251565e-16 -0 -1 0 16.5
2 23.220330114906631 59.5 0 -1.1102230246251565e-16 -0 -1 -1 0 1.1102230246251565e-16 -0 -1 0 3
Triangulations 0

TShapes 27
Ve
1.50000007105427e-07
61.0000000000001 15.2493801528201 1
0 0

0101101
*
Ve
1.50000007105427e-07
61.0000000000001 21.7493801528201 1
0 0

0101101
*
Ed
 1.50000007105427e-07 1 1 0
1  1 0 0 6.5
2  1 1 0 0 6.5
0

0101000
+27 9 -26 9 *
Ve
1.50000007105427e-07
24.7402223526394 15.2493801528201 1
0 0

0101101
*
Ed
 1.50000007105427e-07 1 1 0
1  2 0 0 36.2597776473607
2  2 1 0 0 36.2597776473607
0

0101000
+24 9 -27 9 *
Ve
1.50000007105427e-07
24.7402223526394 0 1
0 0

0101101
*
Ed
 1.50000007105427e-07 1 1 0
1  3 0 0 15.2493801528201
2  3 1 0 0 15.2493801528201
0

0101000
+22 9 -24 9 *
Ve
1.50000007105427e-07
1.13686837721616e-13 0 1.00000000000011
0 0

0101101
*
Ed
 1.50000007105427e-07 1 1 0
1  4 0 0 24.7402223526394
2  4 1 0 0 24.7402223526394
0

0101000
+20 9 -22 9 *
Ve
1.50000007105427e-07
1.13686837721616e-13 23.5 1.00000000000011
0 0

0101101
*
Ed
 1.50000007105427e-07 1 1 0
1  5 0 56.5 80
2  5 1 0 56.5 80
0

0101000
+18 9 -20 9 *
Ve
1.50000284e-07
29.5000000000004 23.5 1
0 0

0101101
*
Ed
 1.50000007105427e-07 1 1 0
1  6 0 100.493513162033 129.993513162033
2  6 1 0 100.493513162033 129.993513162033
0

0101000
+16 9 -18 9 *
Ve
1.50000227e-07
29.5000000000003 56.5 1
0 0

0101101
*
Ed
 1.50000007105427e-07 1 1 0
1  7 0 1.57079632679491 4.71238898038467
2  7 1 0 1.57079632679491 4.71238898038467
2  8 2 10 1.57079632679491 4.71238898038467
2  9 2 12 1.57079632679491 4.71238898038467
0

0101000
+16 9 -14 9 *
Ve
1.50001e-07
23.2203301149066 56.5 1
0 0

0101101
*
Ed
 1.50000007105427e-07 1 1 0
1  8 0 100.493513162033 106.773183047127
2  10 1 0 100.493513162033 106.773183047127
0

0101000
+14 9 -12 9 *
Ve
1.50000007105427e-07
20.2203301149066 59.5 1
0 0

0101101
*
Ed
 1.50000007105427e-07 1 1 0
1  9 0 0 1.5707963267949
2  11 1 2 0 1.5707963267949
2  12 3 14 0 1.5707963267949
2  13 3 15 0 1.5707963267949
0

0101000
+10 16 -12 16 *
Ve
1.50000007105427e-07
20.2203301149066 80 1
0 0

0101101
*
Ed
 1.50000007105427e-07 1 1 0
1  10 0 -35.6884306333068 -15.1884306333068
2  14 1 2 -35.6884306333068 -15.1884306333068
0

0101000
+8 16 -10 16 *
Ve
1.50000007105427e-07
478.220330114907 80 1
0 0

0101101
*
Ed
 1.50000007105427e-07 1 1 0
1  11 0 0 458
2  15 1 0 0 458
0

0101000
+6 9 -8 9 *
Ve
1.50000007105427e-07
478.220330114907 21.7493801528201 1
0 0

0101101
*
Ed
 1.50000007105427e-07 1 1 0
1  12 0 0 58.2506198471799
2  16 1 0 0 58.2506198471799
0

0101000
+4 9 -6 9 *
Ed
 1.50000007105427e-07 1 1 0
1  13 0 0 417.220330114907
2  17 1 0 0 417.220330114907
0

0101000
+26 9 -4 9 *
Wi

0101100
+25 8 +23 8 +21 8 +19 8 +17 8 +15 8 -13 8 -11 8 +9 13 +7 13 
+5 8 +3 8 +2 8 *

+1 1 