DBRep_DrawableShape

CASCADE Topology V1, (c) Matra-Datavision
Locations 2
1
              1               0               0               0 
              0               1               0               0 
              0               0               1              18 
2  1 -1 0
Curve2ds 16
1 1.5707963267948966 0 0 -1 
1 3.1415926535897931 0 0 -1 
1 0 0 1 0 
1 0 -18 1 0 
1 6.2831853071795862 0 0 -1 
1 7.8539816339744828 0 0 -1 
1 0 0 1 0 
1 0 -18 1 0 
1 4.7123889803846897 0 0 -1 
1 1.5707963267948966 0 0 -1 
1 0 0 1 0 
1 0 -18 1 0 
1 1.5707963267948966 0 0 -1 
1 3.1415926535897931 0 0 -1 
1 0 0 1 0 
1 0 -18 1 0 
Curves 30
1 61.000000000000114 15.249380152820095 4.4339323579718369e-16 0 0 1 
1 61.000000000000114 19.749380152820095 4.4339323579718369e-16 0 0 1 
1 61.000000000000114 15.249380152820095 4.4339323579718369e-16 0 1 0 
1 63.000000000000114 21.749380152820095 4.4339323579718369e-16 0 0 1 
2 63.000000000000114 19.749380152820095 4.4339323579718369e-16 -0 -0 -1 0 -1 0 -1 0 0 2
1 478.22033011490663 21.749380152820095 4.4339323579718369e-16 0 0 1 
1 61.000000000000114 21.749380152820095 4.4339323579718369e-16 1 0 0 
1 478.22033011490663 80 4.4339323579718369e-16 0 0 1 
1 478.22033011490663 21.749380152820095 4.4339323579718369e-16 0 1 0 
1 20.220330114906631 80 4.4339323579718369e-16 0 0 1 
1 478.22033011490663 80 4.4339323579718369e-16 -1 0 0 
1 20.220330114906631 59.5 4.4339323579718369e-16 0 0 1 
1 20.220330114906631 44.31156936669322 4.4339323579718369e-16 0 -1 -0 
1 23.220330114906631 56.5 4.4339323579718369e-16 0 0 1 
2 23.220330114906631 59.5 4.4339323579718369e-16 0 0 1 -1 0 0 0 -1 0 3
1 29.500000000000114 56.5 4.4339323579718369e-16 0 0 1 
1 129.99351316203342 56.5 4.4339323579718369e-16 -1 0 0 
1 29.500000000000114 23.5 4.4339323579718369e-16 0 0 1 
2 29.500000000000114 40 4.4339323579718369e-16 0 0 1 -1 0 0 0 -1 0 16.5
1 1.1368683772161603e-13 23.5 4.4339323579718369e-16 0 0 1 
1 129.99351316203342 23.5 4.4339323579718369e-16 -1 0 0 
1 1.1368683772161603e-13 0 4.4339323579718369e-16 0 0 1 
1 1.1368683772161603e-13 80 4.4339323579718369e-16 0 -1 -0 
1 24.740222352639421 0 4.4339323579718369e-16 0 0 1 
1 1.1368683772161603e-13 0 4.4339323579718369e-16 1 0 0 
1 24.740222352639421 13.249380152820095 4.4339323579718369e-16 0 0 1 
1 24.740222352639421 0 4.4339323579718369e-16 0 1 0 
1 26.740222352639421 15.249380152820095 4.4339323579718369e-16 0 0 1 
2 26.740222352639421 13.249380152820095 4.4339323579718369e-16 -0 -0 -1 0 -1 0 -1 0 0 2
1 24.740222352639421 15.249380152820095 4.4339323579718369e-16 1 0 0 
Polygon3D 0
PolygonOnTriangulations 0
Surfaces 16
1 61.000000000000114 15.249380152820095 4.4339323579718369e-16 -1 0 0 0 1 0 0 0 -1 
2 63.000000000000114 19.749380152820095 4.4339323579718369e-16 -0 -0 -1 0 -1 0 -1 0 0 2
1 63.000000000000114 21.749380152820095 4.4339323579718369e-16 0 1 0 1 0 0 0 0 -1 
1 478.22033011490663 21.749380152820095 4.4339323579718369e-16 -1 0 0 0 1 0 0 0 -1 
1 478.22033011490663 80 4.4339323579718369e-16 0 -1 0 -1 0 0 -0 -0 -1 
1 20.220330114906631 80 4.4339323579718369e-16 1 0 -0 0 -1 0 0 -0 -1 
2 23.220330114906631 59.5 4.4339323579718369e-16 -0 -0 -1 -1 0 0 0 -1 0 3
1 29.500000000000114 56.5 4.4339323579718369e-16 0 -1 0 -1 0 0 -0 -0 -1 
2 29.500000000000114 40 4.4339323579718369e-16 -0 -0 -1 -1 0 0 0 -1 0 16.5
1 29.500000000000114 23.5 4.4339323579718369e-16 0 -1 0 -1 0 0 -0 -0 -1 
1 1.1368683772161603e-13 23.5 4.4339323579718369e-16 1 0 -0 0 -1 0 0 -0 -1 
1 1.1368683772161603e-13 0 4.4339323579718369e-16 0 1 0 1 0 0 0 0 -1 
1 24.740222352639421 0 4.4339323579718369e-16 -1 0 0 0 1 0 0 0 -1 
2 26.740222352639421 13.249380152820095 4.4339323579718369e-16 -0 -0 -1 0 -1 0 -1 0 0 2
1 26.740222352639421 15.249380152820095 4.4339323579718369e-16 0 1 0 1 0 0 0 0 -1 
1 226.49329510103689 47.329747013671152 4.4339323579718369e-16 0 0 1 1 0 -0 -0 1 0 
Triangulations 0

TShapes 79
Ve
1e-07
61.0000000000001 15.2493801528201 4.43393235797184e-16
0 0

0101101
*
Ed
 1e-07 1 1 0
1  1 0 0 18
0

0101000
+79 0 -79 1 *
Ve
1e-07
61.0000000000001 19.7493801528201 4.43393235797184e-16
0 0

0101101
*
Ed
 1e-07 1 1 0
1  2 0 0 18
2  1 2 0 0 18
4 G1 1 0 2 0
0

0101000
+77 0 -77 1 *
Ed
 1e-07 1 1 0
1  3 0 0 4.5
0

0101000
+79 0 -77 0 *
Wi

0101100
+78 0 -76 0 -75 0 +75 1 *
Fa
0  1e-07 1 0

0101000
+74 0 *
Ve
1e-07
63.0000000000001 21.7493801528201 4.43393235797184e-16
0 0

0101101
*
Ed
 1e-07 1 1 0
1  4 0 0 18
2  2 2 0 0 18
4 G1 2 0 3 0
0

0101000
+72 0 -72 1 *
Ed
 1e-07 1 1 0
1  5 0 1.5707963267949 3.14159265358979
2  3 2 0 1.5707963267949 3.14159265358979
2  4 2 2 1.5707963267949 3.14159265358979
0

0101000
+77 0 -72 0 *
Wi

0101100
+76 0 -71 0 -70 0 +70 1 *
Fa
0  1e-07 2 0

0101000
+69 0 *
Ve
1e-07
478.220330114907 21.7493801528201 4.43393235797184e-16
0 0

0101101
*
Ed
 1e-07 1 1 0
1  6 0 0 18
0

0101000
+67 0 -67 1 *
Ed
 1e-07 1 1 0
1  7 0 2 417.220330114907
0

0101000
+72 0 -67 0 *
Wi

0101100
+71 0 -66 0 -65 0 +65 1 *
Fa
0  1e-07 3 0

0101000
+64 0 *
Ve
1e-07
478.220330114907 80 4.43393235797184e-16
0 0

0101101
*
Ed
 1e-07 1 1 0
1  8 0 0 18
0

0101000
+62 0 -62 1 *
Ed
 1e-07 1 1 0
1  9 0 0 58.2506198471799
0

0101000
+67 0 -62 0 *
Wi

0101100
+66 0 -61 0 -60 0 +60 1 *
Fa
0  1e-07 4 0

0101000
+59 0 *
Ve
1e-07
20.2203301149066 80 4.43393235797184e-16
0 0

0101101
*
Ed
 1e-07 1 1 0
1  10 0 0 18
0

0101000
+57 0 -57 1 *
Ed
 1e-07 1 1 0
1  11 0 -0 458
0

0101000
+62 0 -57 0 *
Wi

0101100
+61 0 -56 0 -55 0 +55 1 *
Fa
0  1e-07 5 0

0101000
+54 0 *
Ve
1e-07
20.2203301149066 59.5 4.43393235797184e-16
0 0

0101101
*
Ed
 1e-07 1 1 0
1  12 0 0 18
2  5 7 0 0 18
4 G1 6 0 7 0
0

0101000
+52 0 -52 1 *
Ed
 1e-07 1 1 0
1  13 0 -35.6884306333068 -15.1884306333068
0

0101000
+57 0 -52 0 *
Wi

0101100
+56 0 -51 0 -50 0 +50 1 *
Fa
0  1e-07 6 0

0101000
+49 0 *
Ve
1e-07
23.2203301149066 56.5 4.43393235797184e-16
0 0

0101101
*
Ed
 1e-07 1 1 0
1  14 0 0 18
2  6 7 0 0 18
4 G1 7 0 8 0
0

0101000
+47 0 -47 1 *
Ed
 1e-07 1 1 0
1  15 0 6.28318530717959 7.85398163397448
2  7 7 0 6.28318530717959 7.85398163397448
2  8 7 2 6.28318530717959 7.85398163397448
0

0101000
+52 0 -47 0 *
Wi

0101100
+51 0 -46 0 -45 0 +45 1 *
Fa
0  1e-07 7 0

0101000
+44 0 *
Ve
1e-07
29.5000000000001 56.5 4.43393235797184e-16
0 0

0101101
*
Ed
 1e-07 1 1 0
1  16 0 0 18
2  9 9 0 0 18
4 G1 8 0 9 0
0

0101000
+42 0 -42 1 *
Ed
 1e-07 1 1 0
1  17 0 100.493513162033 106.773183047127
0

0101000
+42 0 -47 0 *
Wi

0101100
+41 0 -46 0 -40 0 +40 1 *
Fa
0  1e-07 8 0

0101000
+39 0 *
Ve
1e-07
29.5000000000001 23.5 4.43393235797184e-16
0 0

0101101
*
Ed
 1e-07 1 1 0
1  18 0 0 18
2  10 9 0 0 18
4 G1 9 0 10 0
0

0101000
+37 0 -37 1 *
Ed
 1e-07 1 1 0
1  19 0 1.5707963267949 4.71238898038469
2  11 9 0 1.5707963267949 4.71238898038469
2  12 9 2 1.5707963267949 4.71238898038469
0

0101000
+37 0 -42 0 *
Wi

0101100
+36 0 -41 0 -35 0 +35 1 *
Fa
0  1e-07 9 0

0101000
+34 0 *
Ve
1e-07
1.13686837721616e-13 23.5 4.43393235797184e-16
0 0

0101101
*
Ed
 1e-07 1 1 0
1  20 0 0 18
0

0101000
+32 0 -32 1 *
Ed
 1e-07 1 1 0
1  21 0 100.493513162033 129.993513162033
0

0101000
+37 0 -32 0 *
Wi

0101100
+36 0 -31 0 -30 0 +30 1 *
Fa
0  1e-07 10 0

0101000
+29 0 *
Ve
1e-07
1.13686837721616e-13 0 4.43393235797184e-16
0 0

0101101
*
Ed
 1e-07 1 1 0
1  22 0 0 18
0

0101000
+27 0 -27 1 *
Ed
 1e-07 1 1 0
1  23 0 56.5 80
0

0101000
+32 0 -27 0 *
Wi

0101100
+31 0 -26 0 -25 0 +25 1 *
Fa
0  1e-07 11 0

0101000
+24 0 *
Ve
1e-07
24.7402223526394 0 4.43393235797184e-16
0 0

0101101
*
Ed
 1e-07 1 1 0
1  24 0 0 18
0

0101000
+22 0 -22 1 *
Ed
 1e-07 1 1 0
1  25 0 -0 24.7402223526393
0

0101000
+27 0 -22 0 *
Wi

0101100
+26 0 -21 0 -20 0 +20 1 *
Fa
0  1e-07 12 0

0101000
+19 0 *
Ve
1e-07
24.7402223526394 13.2493801528201 4.43393235797184e-16
0 0

0101101
*
Ed
 1e-07 1 1 0
1  26 0 0 18
2  13 14 0 0 18
4 G1 13 0 14 0
0

0101000
+17 0 -17 1 *
Ed
 1e-07 1 1 0
1  27 0 0 13.2493801528201
0

0101000
+22 0 -17 0 *
Wi

0101100
+21 0 -16 0 -15 0 +15 1 *
Fa
0  1e-07 13 0

0101000
+14 0 *
Ve
1e-07
26.7402223526394 15.2493801528201 4.43393235797184e-16
0 0

0101101
*
Ed
 1e-07 1 1 0
1  28 0 0 18
2  14 14 0 0 18
4 G1 14 0 15 0
0

0101000
+12 0 -12 1 *
Ed
 1e-07 1 1 0
1  29 0 1.5707963267949 3.14159265358979
2  15 14 0 1.5707963267949 3.14159265358979
2  16 14 2 1.5707963267949 3.14159265358979
0

0101000
+17 0 -12 0 *
Wi

0101100
+16 0 -11 0 -10 0 +10 1 *
Fa
0  1e-07 14 0

0101000
+9 0 *
Ed
 1e-07 1 1 0
1  30 0 2 36.2597776473607
0

0101000
+12 0 -79 0 *
Wi

0101100
+11 0 -78 0 -7 0 +7 1 *
Fa
0  1e-07 15 0

0101000
+6 0 *
Wi

0101100
+75 0 +70 0 +65 0 +60 0 +55 0 +50 0 +45 0 -40 0 -35 0 +30 0 
+25 0 +20 0 +15 0 +10 0 +7 0 *
Fa
0  1e-07 16 0

0101000
+4 0 *
Sh

0101100
+73 0 +68 0 +63 0 +58 0 +53 0 +48 0 +43 0 -38 0 -33 0 +28 0 
+23 0 +18 0 +13 0 +8 0 +5 0 +3 0 -3 1 *
So

1100000
-2 0 *

+1 0 