DBRep_DrawableShape

CASCADE Topology V1, (c) Matra-Datavision
Locations 8
1
              1               0               0               0 
              0               1               0               0 
              0               0               1               0 
1
             -1               0 -1.22464679914735e-16               0 
              0               1               0               0 
1.22464679914735e-16               0              -1               0 
1
              1               0               0             235 
              0               1               0            -625 
              0               0               1              18 
1
              1               0               0               0 
              0               1               0               0 
              0               0               1 -7.105427357601e-15 
1
              1               0               0               0 
              0               1               0               0 
              0               0               1               1 
1
              1               0               0               0 
              0               1               0               0 
              0               0               1              -1 
2  1 1 2 1 3 1 4 1 5 1 6 1 0
2  6 -1 5 -1 4 -1 3 -1 2 -1 1 -1 0
Curve2ds 0
Curves 1
2 202.5 762.5 17.999999999999996 0 -0 1 1 0 0 -0 1 0 6
Polygon3D 0
PolygonOnTriangulations 0
Surfaces 1
1 32.5 137.49999999999997 0 0 0 1 1 0 -0 -0 1 0 
Triangulations 0

TShapes 5
Ve
1.00000012607198e-07
26.5 137.5 -1.40628249785853e-15
0 0

0101101
*
Ed
 1.00000011904057e-07 1 1 0
1  1 0 0 6.28318530717959
0

0101000
+5 8 -5 8 *
Wi

0101100
-4 7 *
Fa
0  1e-07 1 0

0101000
+3 0 *
Sh

1101000
+2 0 *

+1 0 