DBRep_DrawableShape

CASCADE Topology V1, (c) Matra-Datavision
Locations 5
1
              1               0               0               0 
              0               1               0               0 
              0               0               1               0 
1
             -1               0 -1.22464679914735e-16               0 
              0               1               0               0 
1.22464679914735e-16               0              -1               0 
1
              1               0               0             235 
              0               1               0            -625 
              0               0               1              18 
2  1 1 2 1 3 1 0
2  1 -1 0
Curve2ds 78
1 0 0 1 0 
1 0 0 1 0 
1 8 0 0 -1 
1 0 0 0 1 
1 0 -170 1 0 
1 0 0 1 0 
1 0 0 0 -1 
1 0 0 0 1 
1 0 0 0 1 
1 0 0 1 0 
1 0 170 1 0 
1 0 0 1 0 
1 8 0 0 1 
1 0 0 1 0 
1 0 170 1 0 
1 8 0 0 1 
1 170 0 0 1 
1 8 0 0 -1 
2 15 15 1 0 -0 1 2.25
1 0 9 1 0 
2 32.5 32.5 1 0 -0 1 6
1 0 9 1 0 
2 155 15 1 0 -0 1 2.25
1 0 9 1 0 
2 137.5 32.5 1 0 -0 1 6
1 0 9 1 0 
2 32.5 137.5 1 0 -0 1 6
1 0 9 1 0 
2 15 155 1 0 -0 1 2.25
1 0 9 1 0 
2 85 85 1 0 -0 1 58
1 0 9 1 0 
2 137.5 137.5 1 0 -0 1 6
1 0 9 1 0 
2 155 155 1 0 -0 1 2.25
1 0 9 1 0 
1 0 0 0 1 
1 0 170 1 0 
1 0 170 1 0 
1 0 -170 1 0 
1 170 0 0 1 
1 0 0 0 -1 
2 15 15 1 0 -0 1 2.25
1 0 1 1 0 
2 32.5 32.5 1 0 -0 1 6
1 0 1 1 0 
2 155 15 1 0 -0 1 2.25
1 0 1 1 0 
2 137.5 32.5 1 0 -0 1 6
1 0 1 1 0 
2 32.5 137.5 1 0 -0 1 6
1 0 1 1 0 
2 15 155 1 0 -0 1 2.25
1 0 1 1 0 
2 85 85 1 0 -0 1 58
1 0 1 1 0 
2 137.5 137.5 1 0 -0 1 6
1 0 1 1 0 
2 155 155 1 0 -0 1 2.25
1 0 1 1 0 
1 6.2831853071795862 -0 0 1 
1 0 -0 0 1 
1 6.2831853071795862 -0 0 1 
1 0 -0 0 1 
1 6.2831853071795862 -0 0 1 
1 0 -0 0 1 
1 6.2831853071795862 -0 0 1 
1 0 -0 0 1 
1 6.2831853071795862 -0 0 1 
1 0 -0 0 1 
1 6.2831853071795862 -0 0 1 
1 0 -0 0 1 
1 6.2831853071795862 -0 0 1 
1 0 -0 0 1 
1 6.2831853071795862 -0 0 1 
1 0 -0 0 1 
1 6.2831853071795862 -0 0 1 
1 0 -0 0 1 
Curves 39
1 65 625 10 0 0 1 
1 65 625 18 -0 1 0 
1 65 795 10 0 0 1 
1 65 625 10 -0 1 0 
1 65 625 10 1 0 -0 
1 235 625 10 0 0 1 
1 65 625 18 1 0 -0 
1 65 795 18 1 0 -0 
1 235 625 18 -0 1 0 
2 80 640 18 0 0 1 1 0 -0 -0 1 0 2.25
2 97.5 657.5 18 0 0 1 1 0 -0 -0 1 0 6
2 220 640 18 0 0 1 1 0 -0 -0 1 0 2.25
2 202.5 657.5 18 0 0 1 1 0 -0 -0 1 0 6
2 97.5 762.5 18 0 0 1 1 0 -0 -0 1 0 6
2 80 780 18 0 0 1 1 0 -0 -0 1 0 2.25
2 150 710 18 0 0 1 1 0 -0 -0 1 0 58
2 202.5 762.5 18 0 0 1 1 0 -0 -0 1 0 6
2 220 780 18 0 0 1 1 0 -0 -0 1 0 2.25
1 65 795 10 1 0 -0 
1 235 795 10 0 0 1 
1 235 625 10 -0 1 0 
2 80 640 10 0 0 1 1 0 -0 -0 1 0 2.25
2 97.5 657.5 10 0 0 1 1 0 -0 -0 1 0 6
2 220 640 10 0 0 1 1 0 -0 -0 1 0 2.25
2 202.5 657.5 10 0 0 1 1 0 -0 -0 1 0 6
2 97.5 762.5 10 0 0 1 1 0 -0 -0 1 0 6
2 80 780 10 0 0 1 1 0 -0 -0 1 0 2.25
2 150 710 10 0 0 1 1 0 -0 -0 1 0 58
2 202.5 762.5 10 0 0 1 1 0 -0 -0 1 0 6
2 220 780 10 0 0 1 1 0 -0 -0 1 0 2.25
1 82.25 640 9 0 0 1 
1 103.5 657.5 9 0 0 1 
1 222.25 640 9 0 0 1 
1 208.5 657.5 9 0 0 1 
1 103.5 762.5 9 0 0 1 
1 82.25 780 9 0 0 1 
1 208 710 9 0 0 1 
1 208.5 762.5 9 0 0 1 
1 222.25 780 9 0 0 1 
Polygon3D 0
PolygonOnTriangulations 0
Surfaces 15
1 65 625 10 1 0 -0 0 0 1 0 -1 0 
1 65 625 10 -0 1 0 0 0 1 1 0 -0 
1 65 625 18 0 0 1 1 0 -0 -0 1 0 
1 65 795 10 -0 1 0 0 0 1 1 0 -0 
1 65 625 10 0 0 1 1 0 -0 -0 1 0 
1 235 625 10 1 0 -0 0 0 1 0 -1 0 
2 80 640 9 0 0 1 1 0 -0 -0 1 0 2.25
2 97.5 657.5 9 0 0 1 1 0 -0 -0 1 0 6
2 220 640 9 0 0 1 1 0 -0 -0 1 0 2.25
2 202.5 657.5 9 0 0 1 1 0 -0 -0 1 0 6
2 97.5 762.5 9 0 0 1 1 0 -0 -0 1 0 6
2 80 780 9 0 0 1 1 0 -0 -0 1 0 2.25
2 150 710 9 0 0 1 1 0 -0 -0 1 0 58
2 202.5 762.5 9 0 0 1 1 0 -0 -0 1 0 6
2 220 780 9 0 0 1 1 0 -0 -0 1 0 2.25
Triangulations 0

TShapes 116
Ve
1e-07
65 625 18
0 0

0101101
*
Ve
1e-07
65 625 10
0 0

0101101
*
Ed
 1e-07 1 1 0
1  1 0 0 8
2  1 1 0 0 8
2  2 2 0 0 8
0

0101000
-116 5 +115 5 *
Ve
1e-07
65 795 18
0 0

0101101
*
Ed
 1e-07 1 1 0
1  2 0 0 170
2  3 1 0 0 170
2  4 3 0 0 170
0

0101000
-113 5 +116 5 *
Ve
1e-07
65 795 10
0 0

0101101
*
Ed
 1e-07 1 1 0
1  3 0 0 8
2  5 1 0 0 8
2  6 4 0 0 8
0

0101000
-113 5 +111 5 *
Ed
 1e-07 1 1 0
1  4 0 0 170
2  7 1 0 0 170
2  8 5 0 0 170
0

0101000
-111 5 +115 5 *
Wi

0101100
-114 0 -112 0 +110 0 +109 0 *
Fa
0  1e-07 1 0

0111000
+108 0 *
Ve
1e-07
235 625 10
0 0

0101101
*
Ed
 1e-07 1 1 0
1  5 0 0 170
2  9 2 0 0 170
2  10 5 0 0 170
0

0101000
-106 5 +115 5 *
Ve
1e-07
235 625 18
0 0

0101101
*
Ed
 1e-07 1 1 0
1  6 0 0 8
2  11 2 0 0 8
2  12 6 0 0 8
0

0101000
-104 5 +106 5 *
Ed
 1e-07 1 1 0
1  7 0 0 170
2  13 2 0 0 170
2  14 3 0 0 170
0

0101000
-104 5 +116 5 *
Wi

0101100
-105 0 -103 0 +102 0 +114 0 *
Fa
0  1e-07 2 0

0111000
+101 0 *
Ve
1e-07
235 795 18
0 0

0101101
*
Ed
 1e-07 1 1 0
1  8 0 0 170
2  15 3 0 0 170
2  16 4 0 0 170
0

0101000
-99 5 +113 5 *
Ed
 1e-07 1 1 0
1  9 0 0 170
2  17 3 0 0 170
2  18 6 0 0 170
0

0101000
-99 5 +104 5 *
Wi

0101100
-112 0 -98 0 +102 0 +97 0 *
Ve
1e-07
82.25 640 18
0 0

0101101
*
Ed
 1e-07 1 1 0
1  10 0 0 6.28318530717959
2  19 3 0 0 6.28318530717959
2  20 7 0 0 6.28318530717959
0

0101100
+95 5 -95 5 *
Wi

0101100
-94 0 *
Ve
1e-07
103.5 657.5 18
0 0

0101101
*
Ed
 1e-07 1 1 0
1  11 0 0 6.28318530717959
2  21 3 0 0 6.28318530717959
2  22 8 0 0 6.28318530717959
0

0101100
+92 5 -92 5 *
Wi

0101100
-91 0 *
Ve
1e-07
222.25 640 18
0 0

0101101
*
Ed
 1e-07 1 1 0
1  12 0 0 6.28318530717959
2  23 3 0 0 6.28318530717959
2  24 9 0 0 6.28318530717959
0

0101100
+89 5 -89 5 *
Wi

0101100
-88 0 *
Ve
1e-07
208.5 657.5 18
0 0

0101101
*
Ed
 1e-07 1 1 0
1  13 0 0 6.28318530717959
2  25 3 0 0 6.28318530717959
2  26 10 0 0 6.28318530717959
0

0101100
+86 5 -86 5 *
Wi

0101100
-85 0 *
Ve
1e-07
103.5 762.5 18
0 0

0101101
*
Ed
 1e-07 1 1 0
1  14 0 0 6.28318530717959
2  27 3 0 0 6.28318530717959
2  28 11 0 0 6.28318530717959
0

0101100
+83 5 -83 5 *
Wi

0101100
-82 0 *
Ve
1e-07
82.25 780 18
0 0

0101101
*
Ed
 1e-07 1 1 0
1  15 0 0 6.28318530717959
2  29 3 0 0 6.28318530717959
2  30 12 0 0 6.28318530717959
0

0101100
+80 5 -80 5 *
Wi

0101100
-79 0 *
Ve
1e-07
208 710 18
0 0

0101101
*
Ed
 1e-07 1 1 0
1  16 0 0 6.28318530717959
2  31 3 0 0 6.28318530717959
2  32 13 0 0 6.28318530717959
0

0101100
+77 5 -77 5 *
Wi

0101100
-76 0 *
Ve
1e-07
208.5 762.5 18
0 0

0101101
*
Ed
 1e-07 1 1 0
1  17 0 0 6.28318530717959
2  33 3 0 0 6.28318530717959
2  34 14 0 0 6.28318530717959
0

0101100
+74 5 -74 5 *
Wi

0101100
-73 0 *
Ve
1e-07
222.25 780 18
0 0

0101101
*
Ed
 1e-07 1 1 0
1  18 0 0 6.28318530717959
2  35 3 0 0 6.28318530717959
2  36 15 0 0 6.28318530717959
0

0101100
+71 5 -71 5 *
Wi

0101100
-70 0 *
Fa
0  1e-07 3 0

0111000
+96 0 +93 0 +90 0 +87 0 +84 0 +81 0 +78 0 +75 0 +72 0 +69 0 
*
Ve
1e-07
235 795 10
0 0

0101101
*
Ed
 1e-07 1 1 0
1  19 0 0 170
2  37 4 0 0 170
2  38 5 0 0 170
0

0101000
-67 5 +111 5 *
Ed
 1e-07 1 1 0
1  20 0 0 8
2  39 4 0 0 8
2  40 6 0 0 8
0

0101000
-99 5 +67 5 *
Wi

0101100
-66 0 -65 0 +98 0 +110 0 *
Fa
0  1e-07 4 0

0111000
+64 0 *
Ed
 1e-07 1 1 0
1  21 0 0 170
2  41 5 0 0 170
2  42 6 0 0 170
0

0101000
-67 5 +106 5 *
Wi

0101100
-109 0 -66 0 +105 0 +62 0 *
Ve
1e-07
82.25 640 10
0 0

0101101
*
Ed
 1e-07 1 1 0
1  22 0 0 6.28318530717959
2  43 5 0 0 6.28318530717959
2  44 7 0 0 6.28318530717959
0

0101100
+60 5 -60 5 *
Wi

0101100
-59 0 *
Ve
1e-07
103.5 657.5 10
0 0

0101101
*
Ed
 1e-07 1 1 0
1  23 0 0 6.28318530717959
2  45 5 0 0 6.28318530717959
2  46 8 0 0 6.28318530717959
0

0101100
+57 5 -57 5 *
Wi

0101100
-56 0 *
Ve
1e-07
222.25 640 10
0 0

0101101
*
Ed
 1e-07 1 1 0
1  24 0 0 6.28318530717959
2  47 5 0 0 6.28318530717959
2  48 9 0 0 6.28318530717959
0

0101100
+54 5 -54 5 *
Wi

0101100
-53 0 *
Ve
1e-07
208.5 657.5 10
0 0

0101101
*
Ed
 1e-07 1 1 0
1  25 0 0 6.28318530717959
2  49 5 0 0 6.28318530717959
2  50 10 0 0 6.28318530717959
0

0101100
+51 5 -51 5 *
Wi

0101100
-50 0 *
Ve
1e-07
103.5 762.5 10
0 0

0101101
*
Ed
 1e-07 1 1 0
1  26 0 0 6.28318530717959
2  51 5 0 0 6.28318530717959
2  52 11 0 0 6.28318530717959
0

0101100
+48 5 -48 5 *
Wi

0101100
-47 0 *
Ve
1e-07
82.25 780 10
0 0

0101101
*
Ed
 1e-07 1 1 0
1  27 0 0 6.28318530717959
2  53 5 0 0 6.28318530717959
2  54 12 0 0 6.28318530717959
0

0101100
+45 5 -45 5 *
Wi

0101100
-44 0 *
Ve
1e-07
208 710 10
0 0

0101101
*
Ed
 1e-07 1 1 0
1  28 0 0 6.28318530717959
2  55 5 0 0 6.28318530717959
2  56 13 0 0 6.28318530717959
0

0101100
+42 5 -42 5 *
Wi

0101100
-41 0 *
Ve
1e-07
208.5 762.5 10
0 0

0101101
*
Ed
 1e-07 1 1 0
1  29 0 0 6.28318530717959
2  57 5 0 0 6.28318530717959
2  58 14 0 0 6.28318530717959
0

0101100
+39 5 -39 5 *
Wi

0101100
-38 0 *
Ve
1e-07
222.25 780 10
0 0

0101101
*
Ed
 1e-07 1 1 0
1  30 0 0 6.28318530717959
2  59 5 0 0 6.28318530717959
2  60 15 0 0 6.28318530717959
0

0101100
+36 5 -36 5 *
Wi

0101100
-35 0 *
Fa
0  1e-07 5 0

0111000
+61 0 +58 0 +55 0 +52 0 +49 0 +46 0 +43 0 +40 0 +37 0 +34 0 
*
Wi

0101100
-103 0 -97 0 +65 0 +62 0 *
Fa
0  1e-07 6 0

0111000
+32 0 *
Ed
 1e-07 1 1 0
1  31 0 1 9
3  61 62CN 7 0 1 9
0

0101000
+60 5 -95 5 *
Wi

0101100
-94 0 +30 0 +59 0 -30 0 *
Fa
0  1e-07 7 0

0111000
+29 0 *
Ed
 1e-07 1 1 0
1  32 0 1 9
3  63 64CN 8 0 1 9
0

0101000
+57 5 -92 5 *
Wi

0101100
-91 0 +27 0 +56 0 -27 0 *
Fa
0  1e-07 8 0

0111000
+26 0 *
Ed
 1e-07 1 1 0
1  33 0 1 9
3  65 66CN 9 0 1 9
0

0101000
+54 5 -89 5 *
Wi

0101100
-88 0 +24 0 +53 0 -24 0 *
Fa
0  1e-07 9 0

0111000
+23 0 *
Ed
 1e-07 1 1 0
1  34 0 1 9
3  67 68CN 10 0 1 9
0

0101000
+51 5 -86 5 *
Wi

0101100
-85 0 +21 0 +50 0 -21 0 *
Fa
0  1e-07 10 0

0111000
+20 0 *
Ed
 1e-07 1 1 0
1  35 0 1 9
3  69 70CN 11 0 1 9
0

0101000
+48 5 -83 5 *
Wi

0101100
-82 0 +18 0 +47 0 -18 0 *
Fa
0  1e-07 11 0

0111000
+17 0 *
Ed
 1e-07 1 1 0
1  36 0 1 9
3  71 72CN 12 0 1 9
0

0101000
+45 5 -80 5 *
Wi

0101100
-79 0 +15 0 +44 0 -15 0 *
Fa
0  1e-07 12 0

0111000
+14 0 *
Ed
 1e-07 1 1 0
1  37 0 1 9
3  73 74CN 13 0 1 9
0

0101000
+42 5 -77 5 *
Wi

0101100
-76 0 +12 0 +41 0 -12 0 *
Fa
0  1e-07 13 0

0111000
+11 0 *
Ed
 1e-07 1 1 0
1  38 0 1 9
3  75 76CN 14 0 1 9
0

0101000
+39 5 -74 5 *
Wi

0101100
-73 0 +9 0 +38 0 -9 0 *
Fa
0  1e-07 14 0

0111000
+8 0 *
Ed
 1e-07 1 1 0
1  39 0 1 9
3  77 78CN 15 0 1 9
0

0101000
+36 5 -71 5 *
Wi

0101100
-70 0 +6 0 +35 0 -6 0 *
Fa
0  1e-07 15 0

0111000
+5 0 *
Sh

0101100
-107 0 -100 0 +68 0 +63 0 -33 0 +31 0 -28 0 -25 0 -22 0 -19 0 
-16 0 -13 0 -10 0 -7 0 -4 0 *
So

0100000
+3 0 *
Co

1100000
+2 0 *

+1 4 