DBRep_DrawableShape

CASCADE Topology V1, (c) Matra-Datavision
Locations 8
1
              1               0               0               0 
              0               1               0               0 
              0               0               1               0 
1
             -1               0 -1.22464679914735e-16               0 
              0               1               0               0 
1.22464679914735e-16               0              -1               0 
1
              1               0               0             535 
              0               1               0            -625 
              0               0               1 17.9999999999999 
1
              1               0               0               0 
              0               1               0               0 
              0               0               1 1.94695388848409e-15 
1
              1               0               0               0 
              0               1               0               0 
              0               0               1               1 
1
              1               0               0               0 
              0               1               0               0 
              0               0               1              -1 
2  1 1 2 1 3 1 4 1 5 1 6 1 0
2  6 -1 5 -1 4 -1 3 -1 2 -1 1 -1 0
Curve2ds 0
Curves 1
2 450 710 18.000000000000004 0 -0 1 1 0 0 -0 1 0 58
Polygon3D 0
PolygonOnTriangulations 0
Surfaces 1
1 84.999999999999986 84.999999999999986 2.3684757858670013e-15 0 0 1 1 0 -0 -0 1 0 
Triangulations 0

TShapes 5
Ve
1.0000009774018e-07
27 85 1.13982897194849e-14
0 0

0101101
*
Ed
 1.00000097370105e-07 1 1 0
1  1 0 0 6.28318530717959
0

0101000
+5 8 -5 8 *
Wi

0101100
-4 7 *
Fa
0  1e-07 1 0

0101000
+3 0 *
Sh

1101000
+2 0 *

+1 0 