DBRep_DrawableShape

CASCADE Topology V1, (c) Matra-Datavision
Locations 11
1
              1               0               0               0 
              0               1               0               0 
              0               0               1               0 
1
             -1               0 -1.22464679914735e-16               0 
              0               1               0               0 
1.22464679914735e-16               0              -1               0 
1
              1               0               0             535 
              0               1               0            -625 
              0               0               1 17.9999999999999 
1
              1               0               0               0 
              0               1               0               0 
              0               0               1 -3.5527136788005e-15 
1
              1               0               0               0 
              0               1               0               0 
              0               0               1               1 
1
              1               0               0               0 
              0               1               0               0 
              0               0               1              -1 
2  1 1 2 1 3 1 4 1 5 1 6 1 0
2  1 1 2 1 3 1 0
2  3 -1 2 -1 1 -1 0
1
              1               0               0               0 
              0               1               0               0 
              0               0               1               8 
2  1 1 2 1 3 1 4 1 5 1 6 1 10 1 0
Curve2ds 6
2 15 15 1 0 -0 1 2.25
1 0 9 1 0 
1 6.2831853071795862 -0 0 1 
1 0 -0 0 1 
2 15 15 1 0 -0 1 2.25
1 0 1 1 0 
Curves 3
2 380 640 18 0 0 1 1 0 -0 -0 1 0 2.25
1 382.25 640 9 0 0 1 
2 380 640 10 0 0 1 1 0 -0 -0 1 0 2.25
Polygon3D 0
PolygonOnTriangulations 0
Surfaces 4
1 365 625 18 0 0 1 1 0 -0 -0 1 0 
1 365 625 18 0 0 1 1 0 -0 -0 1 0 
2 380 640 9 0 0 1 1 0 -0 -0 1 0 2.25
1 365 625 10 0 0 1 1 0 -0 -0 1 0 
Triangulations 0

TShapes 13
Ve
1.00000001715743e-07
152.75 15 -7.105427357601e-15
0 0

0101101
*
Ed
 1.00000001715743e-07 1 1 0
1  1 0 0 6.28318530717959
2  1 2 0 0 6.28318530717959
2  2 3 0 0 6.28318530717959
0

0101000
+13 9 -13 9 *
Wi

0101100
+12 8 *
Fa
0  1e-07 1 7

0101000
+11 0 *
Ve
1.00000001776357e-07
152.75 15 7.99999999999999
0 0

0101101
*
Ed
 1e-07 1 1 0
1  2 0 1 9
3  3 4CN 3 0 1 9
0

0101000
+9 9 -13 9 *
Ed
 1.00000001776357e-07 1 1 0
1  3 0 0 6.28318530717959
2  5 4 0 0 6.28318530717959
2  6 3 0 0 6.28318530717959
0

0101000
+9 9 -9 9 *
Wi

0101100
-12 8 +8 8 +7 8 -8 8 *
Fa
0  1e-07 3 8

0101000
+6 0 *
Wi

0101100
+7 8 *
Fa
0  1e-07 1 11

0101000
+4 0 *
Sh

0101100
+10 0 +5 0 -3 0 *
So

0100000
+2 0 *

+1 0 