DBRep_DrawableShape

CASCADE Topology V1, (c) Matra-Datavision
Locations 21
1
              1               0               0               0 
              0               1               0               0 
              0               0               1               0 
1
1.11022302462516e-16               0              -1               0 
              0               1               0               0 
              1               0 1.11022302462516e-16               0 
1
              1               0               0           578.9 
              0               1               0           -1075 
              0               0               1 -36.0000000000001 
2  1 1 2 1 3 1 0
2  1 -1 0
1
              1               0               0              18 
              0               1               0               0 
              0               0               1               0 
2  6 -1 0
2  1 -1 6 -1 0
1
              1               0               0               0 
              0 0.90630778703665 -0.422618261740699               0 
              0 0.422618261740699 0.90630778703665               0 
1
              1               0               0               0 
              0               1               0 1033.61447567049 
              0               0               1 546.327383033049 
2  9 1 10 1 0
2  10 -1 9 -1 0
2  1 -1 10 -1 9 -1 0
1
              1               0               0               0 
              0               1               0               0 
              0               0               1              -0 
2  14 -1 3 -1 2 -1 1 -1 0
1
              1               0               0               0 
              0               1               0               0 
              0               0               1               1 
2  16 -1 14 -1 3 -1 2 -1 1 -1 0
1
              1               0               0               0 
              0               1               0               0 
              0               0               1             -18 
2  18 -1 3 -1 2 -1 1 -1 0
1
              1               0               0               0 
              0               1               0               0 
              0               0               1               1 
2  20 -1 18 -1 3 -1 2 -1 1 -1 0
Curve2ds 118
1 0 0 1 0 
1 -21.721301949834128 8.6196135227153263 1 0 
1 15.899999999999977 0 0 -1 
1 0 0 0 1 
1 0 0 0 -1 
1 62.875 0 0 -1 
1 0 -18 1 0 
1 21.721301949834356 8.6196135227146442 -1 0 
1 -21.721301949834128 -54.255386477284674 0 1 
1 0 -0 1 0 
1 17.178698050165849 -54.255386477284674 -1 0 
1 0 0 1 0 
1 17.178698050165849 60.744613522715326 0 -1 
1 0 0 1 0 
1 4.7934631130566459 60.744613522715326 1 0 
1 0 0 1 0 
1 -14.79145852945328 18.744613522715326 0.42261826174069916 0.90630778703665005 
1 0 0 1 0 
1 -12.927689001180738 22.741480174330491 -0.90630778703665027 0.42261826174069911 
1 0 0 1 0 
1 -14.740304575253958 23.58671669781188 -0.42261826174069911 -0.90630778703665027 
1 0 0 0 1 
1 -14.618162048143517 19.116249026183823 -0.90630778703665027 0.42261826174069911 
1 0 0 1 0 
1 -14.79145852945328 18.744613522715326 0.42261826174069916 0.90630778703665005 
1 0 0 1 0 
1 -2.8213019498341509 18.744613522715326 -1 0 
1 0 0 1 0 
2 -5.8213019498341509 15.744613522715326 -1 0 -0 -1 3
1 -3.1415926535897931 7.1100000000000008e-15 1 0 
1 0 0 1 0 
1 0 -1 1 0 
1 -2.8213019498341509 8.6196135227153263 0 1 
1 0 -0 1 0 
2 -5.8213019498341509 11.619613522715326 -1 0 -0 -1 3
1 -1.5707963267948966 7.1100000000000008e-15 1 0 
1 0 0 1 0 
1 0 -1 1 0 
1 1.5707963267948966 0 0 1 
1 3 0 0 -1 
1 -1.5707963267948966 18.000000000000007 1 0 
2 5.8213019498343783 11.619613522714644 1 0 0 -1 3
1 0 0 1 0 
1 0 -1 1 0 
1 0 -0 0 -1 
1 38.899999999999977 0 0 -1 
1 0 -18 1 0 
1 21.721301949834356 -54.255386477285356 0 1 
2 10 -9 0 -1 -1 -0 2.25
1 0 39.899999999999977 1 0 
2 50 -9 0 -1 -1 -0 2.25
1 0 39.899999999999977 1 0 
1 2.8213019498343783 8.6196135227146442 0 1 
1 0 -18 1 0 
2 5.8213019498343783 15.744613522714644 1 0 0 -1 3
1 -3.1415926535897931 18.000000000000007 1 0 
1 0 0 1 0 
1 0 -1 1 0 
1 2.8213019498343783 18.744613522714644 1 0 
1 0 -18 1 0 
1 14.791458529453507 18.744613522714644 -0.42261826174069916 0.90630778703665005 
1 0 -18 1 0 
1 14.618162048143745 19.116249026183141 0.90630778703665027 0.42261826174069911 
1 0 18 1 0 
1 14.740304575254186 23.586716697811198 0.42261826174069911 -0.90630778703665027 
1 18 0 0 1 
1 12.927689001180966 22.741480174329809 0.90630778703665027 0.42261826174069911 
1 0 18 1 0 
1 14.791458529453507 18.744613522714644 -0.42261826174069916 0.90630778703665005 
1 0 -18 1 0 
1 -4.7934631130564185 60.744613522714644 -1 0 
1 0 -18 1 0 
1 -17.178698050165622 60.744613522714644 0 -1 
1 0 -18 1 0 
1 -17.178698050165622 -54.255386477285356 1 0 
1 0 -18 1 0 
1 0 0 0 -1 
1 115 0 0 -1 
1 0 0 0 -1 
1 12.385234937109203 0 0 -1 
2 65 -9 0 -1 1 0 4
1 0 0 1 0 
2 105 -9 0 -1 1 0 4
1 0 0 1 0 
1 0 0 0 -1 
1 46.341872596424643 0 0 -1 
1 4.4100544084297493 7.1100000000000008e-15 0 -1 
1 0 0 0 1 
2 31.410054408429698 -9 1 0 -0 1 3.0499999999999998
1 0 0.049999999999878739 1 0 
1 2 0 0 1 
1 0 0 1 0 
1 0 4 1 0 
1 2 0 0 1 
1 0 0 0 1 
1 0.41005440842964769 7.1100000000000008e-15 0 -1 
1 0 0 0 -1 
1 11.970156579619129 0 0 -1 
1 3 0 0 -1 
1 1.5707963267948966 0 0 1 
1 0 0 0 1 
1 7.125 0 0 -1 
1 0 3.625 1 0 
1 0 3.1548573660309907 1 0 
1 6.2831853071795862 -0 0 1 
1 0 -0 0 1 
1 0 3.625 1 0 
1 0 3.1548573660309907 1 0 
1 6.2831853071795862 -0 0 1 
1 0 -0 0 1 
1 6.2831853071795862 -0 0 1 
1 0 -0 0 1 
1 6.2831853071795862 -0 0 1 
1 0 -0 0 1 
1 6.2831853071795862 -0 0 1 
1 0 -0 0 1 
1 0 8.0999999999999996 1 0 
2 0 0 1 0 -0 1 3.0499999999999998
Curves 55
1 36 1127.125 578.89999999999998 0 0 -1 
1 36 1127.125 563 1 0 0 
1 36 1127.125 578.89999999999998 1 0 0 
1 36 1127.125 578.89999999999998 0 0 -1 
1 36 1190 578.89999999999998 0 -1 0 
1 36 1190 540 0 0 1 
1 36 1075 540 0 1 0 
1 36 1075 552.3852349371092 0 0 -1 
1 36 1117 571.97015657961913 0 -0.90630778703665005 -0.42261826174069916 
1 36 82 -12 0 0 1 
1 36 82 -10 -0 1 0 
1 36 86 -12 0 0 1 
1 36 1117 571.97015657961913 0 -0.90630778703665005 -0.42261826174069916 
1 36 1117 560 0 0 1 
8 3.1415926535897931 4.7123889803846897
2 36.000000000000007 1120 563 -1 -0 -0 -0 0 1 0 1 -0 3
1 36 1127.125 560 0 -1 0 
8 1.5707963267948966 3.1415926535897931
2 36.000000000000007 1124.125 563 -1 -0 -0 -0 0 1 0 1 -0 3
1 36 1124.125 560 1 0 0 
8 1.5707963267948966 3.1415926535897931
2 54.000000000000007 1124.125 563 -1 -0 -0 -0 0 1 0 1 -0 3
1 36 1190 578.89999999999998 1 0 0 
1 36 1190 578.89999999999998 0 -1 0 
2 45 1180 578.89999999999998 0 0 1 1 0 -0 -0 1 0 2.25
2 45 1140 578.89999999999998 0 0 1 1 0 -0 -0 1 0 2.25
1 36 1127.125 560 0 -1 0 
8 3.1415926535897931 4.7123889803846897
2 54.000000000000007 1120 563 -1 -0 -0 -0 0 1 0 1 -0 3
1 36 1117 560 0 0 1 
1 36 1117 571.97015657961913 0 -0.90630778703665005 -0.42261826174069916 
1 54 86 -12 0 0 1 
1 54 82 -10 -0 1 0 
1 54 82 -12 0 0 1 
1 36 1117 571.97015657961913 0 -0.90630778703665005 -0.42261826174069916 
1 36 1075 552.3852349371092 0 0 -1 
1 36 1075 540 0 1 0 
1 36 1190 540 0 0 1 
1 36 1190 540 1 0 0 
1 36 1075 540 1 0 0 
2 45 1140 540 0 0 1 1 0 -0 -0 1 0 4
2 45 1180 540 0 0 1 1 0 -0 -0 1 0 4
1 36 1075 552.3852349371092 1 0 0 
1 36 82 -12 1 0 -0 
2 45 1088.5328230983953 558.69569398434783 -0 0.42261826174069944 -0.90630778703664994 0 -0.90630778703664994 -0.42261826174069944 -1 -0 0 3.0499999999999998
1 36 82 -10 1 0 -0 
1 36 86 -10 1 0 -0 
1 36 86 -12 1 0 -0 
1 36 1117 571.97015657961913 1 0 0 
1 36 1117 563 1 0 0 
1 36 1120 560 1 0 0 
2 45 1180 542.625 0 0 1 1 0 -0 -0 1 0 2.25
1 47.25 1180 539 0 0 1 
2 45 1140 542.625 0 0 1 1 0 -0 -0 1 0 2.25
1 47.25 1140 539 0 0 1 
1 49 1140 540 -0.55470019622522904 1.4000000000000001e-16 0.83205029433784372 
1 49 1180 540 -0.55470019622522904 1.4000000000000001e-16 0.83205029433784372 
1 45 1085.7474534348464 557.45202367539036 -0 0.42261826174069944 -0.90630778703664994 
2 45 1091.9349001054079 551.39991629870269 -0 0.42261826174069944 -0.90630778703664994 0 -0.90630778703664994 -0.42261826174069944 -1 -0 0 3.0499999999999998
Polygon3D 0
PolygonOnTriangulations 0
Surfaces 26
1 36 1127.125 578.89999999999998 -0 1 0 0 0 -1 -1 0 -0 
1 36.000000000000014 1135.7446135227153 557.17869805016585 -1 -0 -0 0 0 -1 0 -1 0 
2 36 1124.125 563 1 0 0 -0 1 0 -0 0 -1 3
1 36 1190 578.89999999999998 0 0 -1 0 -1 0 -1 -0 -0 
1 54 1135.7446135227146 557.17869805016562 1 0 0 -0 0 1 0 -1 0 
1 36 1190 540 0 -1 0 0 0 1 -1 0 0 
1 36 1075 540 0 0 1 0 1 0 -1 0 0 
1 36 1075 552.3852349371092 -0 1 0 0 0 -1 -1 0 -0 
1 36 1117 571.97015657961913 0 0.42261826174069916 -0.90630778703665005 0 -0.90630778703665005 -0.42261826174069916 -1 0 -0 
1 36 82 -12 -0 1 0 0 0 1 1 0 -0 
1 36 82 -10 0 0 1 1 0 -0 -0 1 0 
1 36 86 -12 -0 1 0 0 0 1 1 0 -0 
1 36 1117 571.97015657961913 0 0.42261826174069916 -0.90630778703665005 0 -0.90630778703665005 -0.42261826174069916 -1 0 -0 
1 36 1117 560 0 -1 0 0 0 1 -1 0 0 
2 36 1120 563 1 0 0 0 0 -1 0 -1 -0 3
2 15.899999999999977 45 -7.1054273576010019e-15 -1.1102230246251565e-16 0 -1 -1 0 1.1102230246251565e-16 0 1 0 3
1 36 1127.125 560 0 0 -1 0 -1 0 -1 -0 -0 
2 15.899999999999977 49.125 -7.1054273576010019e-15 -1.1102230246251565e-16 0 -1 -1 0 1.1102230246251565e-16 0 1 0 3
2 15.899999999999977 49.125 7.1054273576010019e-15 -1.1102230246251565e-16 0 -1 -1 0 1.1102230246251565e-16 0 1 0 3
2 45 1180 539 0 0 1 1 0 -0 -0 1 0 2.25
2 45 1140 539 0 0 1 1 0 -0 -0 1 0 2.25
2 15.899999999999977 45 7.1054273576010019e-15 -1.1102230246251565e-16 0 -1 -1 0 1.1102230246251565e-16 0 1 0 3
3 45 1140 540 0 0 1 1 0 -0 -0 1 0 4
-0.5880026035475675
3 45 1180 540 0 0 1 1 0 -0 -0 1 0 4
-0.5880026035475675
2 45 1088.5116921853082 558.74100937369951 -0 0.42261826174069944 -0.90630778703664994 0 -0.90630778703664994 -0.42261826174069944 -1 -0 0 3.0499999999999998
1 45 1091.9349001054079 551.39991629870269 -0 0.42261826174069944 -0.90630778703664994 0 -0.90630778703664994 -0.42261826174069944 -1 -0 0 
Triangulations 0

TShapes 143
Ve
1e-07
36 1127.125 563
0 0

0101101
*
Ve
1e-07
36 1127.125 578.9
0 0

0101101
*
Ed
 1e-07 1 1 0
1  1 0 0 15.9
2  1 1 0 0 15.9
2  2 2 0 0 15.9
0

0101000
-143 5 +142 5 *
Ve
1e-07
54 1127.125 563
0 0

0101101
*
Ed
 1e-07 1 1 0
1  2 0 7e-15 18
2  3 1 0 7e-15 18
2  4 3 0 7e-15 18
4 G1 1 0 3 0
0

0101000
+143 5 -140 5 *
Ve
1e-07
54 1127.125 578.9
0 0

0101101
*
Ed
 1e-07 1 1 0
1  3 0 0 18
2  5 1 0 0 18
2  6 4 0 0 18
0

0101000
+142 5 -138 5 *
Ed
 1e-07 1 1 0
1  4 0 0 15.9
2  7 1 7 0 15.9
2  8 5 7 0 15.9
0

0101000
-140 8 +138 8 *
Wi

0101100
-141 0 -139 0 +137 0 +136 6 *
Fa
0  1e-07 1 0

0111000
+135 0 *
Ve
1e-07
36 1190 578.9
0 0

0101101
*
Ed
 1e-07 1 1 0
1  5 0 0 62.875
2  9 2 0 0 62.875
2  10 4 0 0 62.875
0

0101000
+133 5 -142 5 *
Ve
1e-07
36 1190 540
0 0

0101101
*
Ed
 1e-07 1 1 0
1  6 0 0 38.9
2  11 2 0 0 38.9
2  12 6 0 0 38.9
0

0101000
+131 5 -133 5 *
Ve
1e-07
36 1075 540
0 0

0101101
*
Ed
 1e-07 1 1 0
1  7 0 0 115
2  13 2 0 0 115
2  14 7 0 0 115
0

0101000
+129 5 -131 5 *
Ve
1e-07
36 1075 552.385234937109
0 0

0101101
*
Ed
 1e-07 1 1 0
1  8 0 0 12.3852349371092
2  15 2 0 0 12.3852349371092
2  16 8 0 0 12.3852349371092
0

0101000
+127 5 -129 5 *
Ve
1.00000114e-07
36 1113.00313334838 570.106387051347
0 0

0101101
*
Ed
 1e-07 1 1 0
1  9 0 4.41005440842975 46.3418725964247
2  17 2 0 4.41005440842975 46.3418725964247
2  18 9 0 4.41005440842975 46.3418725964247
0

0101000
+125 5 -127 5 *
Ve
1e-07
36 1112.1578968249 571.91900262542
0 0

0101101
*
Ed
 1e-07 1 1 0
1  10 0 0 2
2  19 2 12 0 2
2  20 10 0 0 2
0

0101000
+125 13 -123 13 *
Ve
1e-07
36 1115.78312797305 573.609475672383
0 0

0101101
*
Ed
 1e-07 1 1 0
1  11 0 0 4
2  21 2 12 0 4
2  22 11 0 0 4
0

0101000
-121 13 +123 13 *
Ve
1.00000114e-07
36 1116.62836449653 571.796860098309
0 0

0101101
*
Ed
 1e-07 1 1 0
1  12 0 0 2
2  23 2 12 0 2
2  24 12 0 0 2
0

0101000
+119 13 -121 13 *
Ve
1e-07
36 1117 571.970156579619
0 0

0101101
*
Ed
 1e-07 1 1 0
1  13 0 0 0.410054408429696
2  25 2 0 0 0.410054408429696
2  26 13 0 0 0.410054408429696
0

0101000
+117 5 -119 5 *
Ve
1e-07
36 1117 563
0 0

0101101
*
Ed
 1e-07 1 1 0
1  14 0 3 11.9701565796191
2  27 2 0 3 11.9701565796191
2  28 14 0 3 11.9701565796191
0

0101000
+115 5 -117 5 *
Ve
1e-07
36 1120 560
0 0

0101101
*
Ed
 1e-07 1 1 0
1  15 0 3.14159265358979 4.71238898038469
2  29 2 0 3.14159265358979 4.71238898038469
2  30 15 0 3.14159265358979 4.71238898038469
2  31 16 15 3.14159265358979 4.71238898038469
2  32 16 17 3.14159265358979 4.71238898038469
0

0101000
+113 5 -115 5 *
Ve
1e-07
36 1124.125 560
0 0

0101101
*
Ed
 1e-07 1 1 0
1  16 0 3 7.125
2  33 2 0 3 7.125
2  34 17 0 3 7.125
0

0101000
+111 5 -113 5 *
Ed
 1e-07 1 1 0
1  17 0 1.5707963267949 3.14159265358979
2  35 2 0 1.5707963267949 3.14159265358979
2  36 3 0 1.5707963267949 3.14159265358979
2  37 18 15 1.5707963267949 3.14159265358979
2  38 18 17 1.5707963267949 3.14159265358979
0

0101000
+143 5 -111 5 *
Wi

0101100
-141 0 -132 0 -130 0 -128 0 -126 0 -124 0 +122 11 +120 11 -118 11 -116 0 
-114 0 -112 0 -110 0 -109 0 *
Fa
0  1e-07 2 0

0111000
+108 0 *
Ve
1e-07
54 1124.125 560
0 0

0101101
*
Ed
 1e-07 1 1 0
1  18 0 7e-15 18
2  39 3 0 7e-15 18
2  40 17 0 7e-15 18
4 G1 3 0 17 0
0

0101000
+111 5 -106 5 *
Ed
 1e-07 1 1 0
1  19 0 1.5707963267949 3.14159265358979
2  41 3 0 1.5707963267949 3.14159265358979
2  42 5 0 1.5707963267949 3.14159265358979
2  43 19 19 1.5707963267949 3.14159265358979
2  44 19 21 1.5707963267949 3.14159265358979
0

0101000
+140 5 -106 5 *
Wi

0101100
+109 0 -139 0 +105 0 -104 0 *
Fa
0  1e-07 3 0

0111000
+103 0 *
Ve
1e-07
54 1190 578.9
0 0

0101101
*
Ed
 1e-07 1 1 0
1  20 0 0 18
2  45 4 0 0 18
2  46 6 0 0 18
0

0101000
+133 5 -101 5 *
Ed
 1e-07 1 1 0
1  21 0 0 62.875
2  47 4 7 0 62.875
2  48 5 7 0 62.875
0

0101000
+101 8 -138 8 *
Wi

0101100
+100 0 -132 0 +99 6 -137 0 *
Ve
1e-07
47.25 1180 578.9
0 0

0101101
*
Ed
 1e-07 1 1 0
1  22 0 0 6.28318530717959
2  49 4 0 0 6.28318530717959
2  50 20 0 0 6.28318530717959
0

0101000
+97 5 -97 5 *
Wi

0101100
+96 0 *
Ve
1e-07
47.25 1140 578.9
0 0

0101101
*
Ed
 1e-07 1 1 0
1  23 0 0 6.28318530717959
2  51 4 0 0 6.28318530717959
2  52 21 0 0 6.28318530717959
0

0101000
+94 5 -94 5 *
Wi

0101100
+93 0 *
Fa
0  1e-07 4 0

0111000
+98 0 +95 0 +92 0 *
Ve
1e-07
54 1120 560
0 0

0101101
*
Ed
 1e-07 1 1 0
1  24 0 3 7.125
2  53 5 7 3 7.125
2  54 17 7 3 7.125
0

0101000
+106 8 -90 8 *
Ve
1e-07
54 1117 563
0 0

0101101
*
Ed
 1e-07 1 1 0
1  25 0 3.14159265358979 4.71238898038469
2  55 5 0 3.14159265358979 4.71238898038469
2  56 15 0 3.14159265358979 4.71238898038469
2  57 22 19 3.14159265358979 4.71238898038469
2  58 22 21 3.14159265358979 4.71238898038469
0

0101000
+90 5 -88 5 *
Ve
1e-07
54 1117 571.970156579619
0 0

0101101
*
Ed
 1e-07 1 1 0
1  26 0 3 11.9701565796191
2  59 5 7 3 11.9701565796191
2  60 14 7 3 11.9701565796191
0

0101000
+88 8 -86 8 *
Ve
1.00000114e-07
54 1116.62836449653 571.796860098309
0 0

0101101
*
Ed
 1e-07 1 1 0
1  27 0 0 0.410054408429696
2  61 5 7 0 0.410054408429696
2  62 13 7 0 0.410054408429696
0

0101000
+86 8 -84 8 *
Ve
1e-07
54 1115.78312797305 573.609475672383
0 0

0101101
*
Ed
 1e-07 1 1 0
1  28 0 0 2
2  63 5 12 0 2
2  64 12 0 0 2
0

0101000
+84 13 -82 13 *
Ve
1e-07
54 1112.1578968249 571.91900262542
0 0

0101101
*
Ed
 1e-07 1 1 0
1  29 0 0 4
2  65 5 12 0 4
2  66 11 0 0 4
0

0101000
-82 13 +80 13 *
Ve
1.00000114e-07
54 1113.00313334838 570.106387051347
0 0

0101101
*
Ed
 1e-07 1 1 0
1  30 0 0 2
2  67 5 12 0 2
2  68 10 0 0 2
0

0101000
+78 13 -80 13 *
Ve
1e-07
54 1075 552.385234937109
0 0

0101101
*
Ed
 1e-07 1 1 0
1  31 0 4.41005440842975 46.3418725964247
2  69 5 7 4.41005440842975 46.3418725964247
2  70 9 7 4.41005440842975 46.3418725964247
0

0101000
+78 8 -76 8 *
Ve
1e-07
54 1075 540
0 0

0101101
*
Ed
 1e-07 1 1 0
1  32 0 0 12.3852349371092
2  71 5 7 0 12.3852349371092
2  72 8 7 0 12.3852349371092
0

0101000
+76 8 -74 8 *
Ve
1e-07
54 1190 540
0 0

0101101
*
Ed
 1e-07 1 1 0
1  33 0 0 115
2  73 5 7 0 115
2  74 7 7 0 115
0

0101000
+74 8 -72 8 *
Ed
 1e-07 1 1 0
1  34 0 0 38.9
2  75 5 7 0 38.9
2  76 6 7 0 38.9
0

0101000
+72 8 -101 8 *
Wi

0101100
+136 6 +104 0 +89 6 +87 0 +85 6 +83 6 +81 11 -79 11 -77 11 +75 6 
+73 6 +71 6 +70 6 +99 6 *
Fa
0  1e-07 5 0

0111000
+69 0 *
Ed
 1e-07 1 1 0
1  35 0 0 18
2  77 6 0 0 18
2  78 7 0 0 18
0

0101000
+131 5 -72 5 *
Wi

0101100
+67 0 -100 0 -130 0 +70 6 *
Fa
0  1e-07 6 0

0111000
+66 0 *
Ed
 1e-07 1 1 0
1  36 0 0 18
2  79 7 0 0 18
2  80 8 0 0 18
0

0101000
+129 5 -74 5 *
Wi

0101100
+64 0 -128 0 +71 6 -67 0 *
Ve
1e-07
49 1140 540
0 0

0101101
*
Ed
 1e-07 1 1 0
1  37 0 0 6.28318530717959
2  81 7 0 0 6.28318530717959
2  82 23 0 0 6.28318530717959
0

0101000
+62 5 -62 5 *
Wi

0101100
-61 0 *
Ve
1e-07
49 1180 540
0 0

0101101
*
Ed
 1e-07 1 1 0
1  38 0 0 6.28318530717959
2  83 7 0 0 6.28318530717959
2  84 24 0 0 6.28318530717959
0

0101000
+59 5 -59 5 *
Wi

0101100
-58 0 *
Fa
0  1e-07 7 0

0111000
+63 0 +60 0 +57 0 *
Ed
 1e-07 1 1 0
1  39 0 0 18
2  85 8 0 0 18
2  86 9 0 0 18
0

0101000
+127 5 -76 5 *
Wi

0101100
+55 0 -64 0 -126 0 +73 6 *
Fa
0  1e-07 8 0

0111000
+54 0 *
Ed
 1e-07 1 1 0
1  40 0 0 18
2  87 9 12 0 18
2  88 10 0 0 18
0

0101000
+125 13 -78 13 *
Wi

0101100
-124 0 +52 11 -55 0 +75 6 *
Ve
1.00000114e-07
45 1085.76858434793 557.406708286039
0 0

0101101
*
Ed
 1e-07 1 1 0
1  41 0 0 6.28318530717959
2  89 9 0 0 6.28318530717959
2  90 25 0 0 6.28318530717959
0

0101100
+50 5 -50 5 *
Wi

0101100
-49 0 *
Fa
0  1e-07 9 0

0111000
+51 0 +48 0 *
Ed
 1e-07 1 1 0
1  42 0 0 18
2  91 10 0 0 18
2  92 11 0 0 18
0

0101000
-80 13 +123 13 *
Wi

0101100
-52 11 -77 11 +46 11 +122 11 *
Fa
0  1e-07 10 11

0111000
+45 0 *
Ed
 1e-07 1 1 0
1  43 0 0 18
2  93 11 0 0 18
2  94 12 0 0 18
0

0101000
-82 13 +121 13 *
Wi

0101100
-120 0 -43 0 +79 0 +46 0 *
Fa
0  1e-07 11 0

0111000
+42 0 *
Ed
 1.00000114e-07 1 1 0
1  44 0 0 18
2  95 12 0 0 18
2  96 13 12 0 18
0

0101000
+119 13 -84 13 *
Wi

0101100
-40 11 -81 11 +43 11 +118 11 *
Fa
0  1e-07 12 11

0111000
+39 0 *
Ed
 1e-07 1 1 0
1  45 0 0 18
2  97 13 0 0 18
2  98 14 0 0 18
0

0101000
+117 5 -86 5 *
Wi

0101100
-116 0 -40 11 +83 6 +37 0 *
Fa
0  1e-07 13 0

0111000
+36 0 *
Ed
 1e-07 1 1 0
1  46 0 7e-15 18
2  99 14 0 7e-15 18
2  100 15 0 7e-15 18
4 G1 14 0 15 0
0

0101000
+115 5 -88 5 *
Wi

0101100
-114 0 +34 0 -37 0 +85 6 *
Fa
0  1e-07 14 0

0111000
+33 0 *
Ed
 1e-07 1 1 0
1  47 0 7e-15 18
2  101 15 0 7e-15 18
2  102 17 0 7e-15 18
4 G1 15 0 17 0
0

0101000
+113 5 -90 5 *
Wi

0101100
+112 0 -31 0 +34 0 -87 0 *
Fa
0  1e-07 15 0

0111000
+30 0 *
Wi

0101100
-110 0 +105 0 -31 0 +89 6 *
Fa
0  1e-07 17 0

0111000
+28 0 *
Ve
1.00000043e-07
47.25 1180 542.625
0 0

0101101
*
Ed
 1.00000043e-07 1 1 0
1  48 0 0 6.28318530717959
2  103 20 0 0 6.28318530717959
2  104 24 0 0 6.28318530717959
0

0101000
+26 5 -26 5 *
Ed
 1e-07 1 1 0
1  49 0 3.625 39.9
3  105 106CN 20 0 3.625 39.9
0

0101000
+26 5 -97 5 *
Wi

0101100
+25 0 -24 0 -96 0 +24 0 *
Fa
0  1e-07 20 0

0111000
+23 0 *
Ve
1.00000043e-07
47.25 1140 542.625
0 0

0101101
*
Ed
 1.00000043e-07 1 1 0
1  50 0 0 6.28318530717959
2  107 21 0 0 6.28318530717959
2  108 23 0 0 6.28318530717959
0

0101000
+21 5 -21 5 *
Ed
 1e-07 1 1 0
1  51 0 3.625 39.9
3  109 110CN 21 0 3.625 39.9
0

0101000
+21 5 -94 5 *
Wi

0101100
+20 0 -19 0 -93 0 +19 0 *
Fa
0  1e-07 21 0

0111000
+18 0 *
Ed
 1e-07 1 1 0
1  52 0 0 3.15485736603099
3  111 112CN 23 0 0 3.15485736603099
0

0101000
+62 5 -21 5 *
Wi

0101100
-20 0 +16 0 +61 0 -16 0 *
Fa
0  1e-07 23 0

0111000
+15 0 *
Ed
 1e-07 1 1 0
1  53 0 0 3.15485736603099
3  113 114CN 24 0 0 3.15485736603099
0

0101000
+59 5 -26 5 *
Wi

0101100
-25 0 +13 0 +58 0 -13 0 *
Fa
0  1e-07 24 0

0111000
+12 0 *
Ve
1e-07
45 1089.17066135495 550.110930600394
0 0

0101101
*
Ed
 1e-07 1 1 0
1  54 0 0.049999999999982 8.1
3  115 116CN 25 0 0.049999999999982 8.1
0

0101000
+50 5 -10 5 *
Ed
 1e-07 1 1 0
1  55 0 0 6.28318530717959
2  117 25 0 0 6.28318530717959
2  118 26 0 0 6.28318530717959
0

0101000
+10 5 -10 5 *
Wi

0101100
+9 0 +49 0 -9 0 -8 0 *
Fa
0  1e-07 25 0

0111000
+7 0 *
Wi

0101100
+8 0 *
Fa
0  1e-07 26 0

0111000
+5 0 *
Sh

0101100
-134 0 +107 0 +102 0 -91 0 +68 0 -65 0 -56 0 -53 0 -47 0 -44 0 
+41 11 +38 0 -35 0 -32 0 +29 0 -27 0 -22 0 -17 0 -14 0 -11 0 
-6 0 -4 0 *
So

0100000
+3 0 *
Co

1100000
+2 0 *

+1 4 