DBRep_DrawableShape

CASCADE Topology V1, (c) Matra-Datavision
Locations 6
1
              1               0               0               0 
              0               1               0               0 
              0               0               1               0 
1
1.11022302462516e-16               0              -1               0 
              0               1               0               0 
              1               0 1.11022302462516e-16               0 
1
              1               0               0           578.9 
              0               1               0           -1075 
              0               0               1 -36.0000000000001 
2  1 1 2 1 3 1 0
2  3 -1 2 -1 1 -1 0
2  1 -1 0
Curve2ds 10
2 10 -9 0 -1 -1 -0 2.25
1 0 39.899999999999977 1 0 
1 6.2831853071795862 -0 0 1 
1 0 -0 0 1 
1 0 3.625 1 0 
1 0 3.1548573660309907 1 0 
1 6.2831853071795862 -0 0 1 
1 0 -0 0 1 
2 105 -9 0 -1 1 0 4
1 0 0 1 0 
Curves 5
2 45 1180 578.89999999999998 0 0 1 1 0 -0 -0 1 0 2.25
1 47.25 1180 539 0 0 1 
2 45 1180 542.625 0 0 1 1 0 -0 -0 1 0 2.25
1 49 1180 540 -0.55470019622522904 1.4000000000000001e-16 0.83205029433784372 
2 45 1180 540 0 0 1 1 0 -0 -0 1 0 4
Polygon3D 0
PolygonOnTriangulations 0
Surfaces 6
1 0 115 -1.4210854715202004e-14 1 0 -0 0 -1 0 0 -0 -1 
1 36 1190 578.89999999999998 0 0 -1 0 -1 0 -1 -0 -0 
2 45 1180 539 0 0 1 1 0 -0 -0 1 0 2.25
3 45 1180 540 0 0 1 1 0 -0 -0 1 0 4
-0.5880026035475675
1 36 1075 540 0 0 1 0 1 0 -1 0 0 
1 38.899999999999977 0 -2.1316282072803006e-14 -1 0 0 0 1 0 0 0 -1 
Triangulations 0

TShapes 18
Ve
1.00000014460655e-07
0 105 11.25
0 0

0101101
*
Ed
 1.00000014460655e-07 1 1 0
1  1 0 0 6.28318530717959
2  1 2 0 0 6.28318530717959
2  2 3 0 0 6.28318530717959
0

0101000
+18 5 -18 5 *
Wi

0101100
-17 4 *
Fa
0  1.00000014210855e-07 1 0

0101000
+16 0 *
Ve
1.00000043e-07
47.25 1180 542.625
0 0

0101101
*
Ed
 1e-07 1 1 0
1  2 0 3.625 39.9
3  3 4CN 3 0 3.625 39.9
0

0101000
+14 6 -18 5 *
Ed
 1.00000043e-07 1 1 0
1  3 0 0 6.28318530717959
2  5 3 0 0 6.28318530717959
2  6 4 0 0 6.28318530717959
0

0101000
+14 6 -14 6 *
Wi

0101100
-13 4 -17 4 +13 4 +12 4 *
Fa
0  1e-07 3 4

0101000
+11 0 *
Ve
1.00000014210855e-07
38.9 105 13
0 0

0101101
*
Ed
 1e-07 1 1 0
1  4 0 0 3.15485736603099
3  7 8CN 4 0 0 3.15485736603099
0

0101000
+9 5 -14 6 *
Ed
 1.00000014210855e-07 1 1 0
1  5 0 0 6.28318530717959
2  9 5 0 0 6.28318530717959
2  10 4 0 0 6.28318530717959
0

0101000
+9 5 -9 5 *
Wi

0101100
-12 4 +8 4 +7 4 -8 4 *
Fa
0  1e-07 4 4

0101000
+6 0 *
Wi

0101100
+7 4 *
Fa
0  1.00000014210855e-07 6 0

0101000
+4 0 *
Sh

0101100
-15 0 +10 0 +5 0 -3 0 *
So

0100000
+2 0 *

+1 0 