DBRep_DrawableShape

CASCADE Topology V1, (c) Matra-Datavision
Locations 2
1
              1               0               0               0 
              0               1               0               0 
              0               0               1 17.9999999999999 
2  1 -1 0
Curve2ds 16
1 1.5707963267948966 0 0 -1 
1 3.1415926535897931 0 0 -1 
1 0 0 1 0 
1 0 -17.999999999999886 1 0 
1 3.1415926535897931 0 0 -1 
1 4.7123889803846897 0 0 -1 
1 0 0 1 0 
1 0 -17.999999999999886 1 0 
1 1.5707963267948994 0 0 -1 
1 2.222629919113718 0 0 -1 
1 0 0 1 0 
1 0 -17.999999999999886 1 0 
1 1.5707963267948908 0 0 -1 
1 3.1415926535897905 0 0 -1 
1 0 0 1 0 
1 0 -17.999999999999886 1 0 
Curves 28
1 0 52.125 1.4877853719691288e-17 0 0 1 
1 15.899999999999977 52.125 1.4877853719691288e-17 0 0 1 
1 0 52.125 1.4877853719691288e-17 1 0 0 
1 18.899999999999977 49.125 1.4877853719691288e-17 0 0 1 
2 15.899999999999977 49.125 1.4877853719691288e-17 0 0 -1 -1 0 0 0 1 0 3
1 18.899999999999977 45 1.4877853719691288e-17 0 0 1 
1 18.899999999999977 52.125 1.4877853719691288e-17 0 -1 -0 
1 15.899999999999977 42 1.4877853719691288e-17 0 0 1 
2 15.899999999999977 45 1.4877853719691288e-17 0 0 -1 -1 0 0 0 1 0 3
1 6.9298434203808483 42 1.4877853719691288e-17 0 0 1 
1 18.899999999999977 42 1.4877853719691288e-17 -1 0 0 
1 6.0035255804428367 41.115605917516753 1.4877853719691288e-17 0 0 1 
2 5.1582890569614399 42.928221491590051 1.4877853719691288e-17 0 0 -1 0.46411074579502559 0.88577718170970354 0 0.88577718170970354 -0.46411074579502559 0 2
1 5.2905243276172618 40.783127973050078 1.4877853719691288e-17 0 0 1 
1 7.1031399016905645 41.628364496531475 1.4877853719691288e-17 -0.90630778703665027 -0.42261826174069911 0 
1 6.9809973745800571 37.157896824903482 1.4877853719691288e-17 0 0 1 
1 6.9809973745800615 37.157896824903474 1.4877853719691288e-17 -0.42261826174069911 0.90630778703665027 0 
1 9.638849472134762 36.19051777431158 1.4877853719691288e-17 0 0 1 
2 7.8262338980614654 35.345281250830176 1.4877853719691288e-17 -0 0 -1 -0.90630778703664927 -0.42261826174070094 0 -0.42261826174070094 0.90630778703664927 0 2
1 26.514765062890774 0 1.4877853719691288e-17 0 0 1 
1 6.9298434203808501 42 1.4877853719691288e-17 0.42261826174069916 -0.90630778703665005 -0 
1 38.899999999999977 0 1.4877853719691288e-17 0 0 1 
1 26.514765062890774 0 1.4877853719691288e-17 1 0 0 
1 38.899999999999977 115 1.4877853719691288e-17 0 0 1 
1 38.899999999999977 0 1.4877853719691288e-17 0 1 0 
1 0 115 1.4877853719691288e-17 0 0 1 
1 38.899999999999977 115 1.4877853719691288e-17 -1 0 0 
1 0 115 1.4877853719691288e-17 0 -1 -0 
Polygon3D 0
PolygonOnTriangulations 0
Surfaces 15
1 0 52.125 1.4877853719691288e-17 0 1 0 1 0 0 0 0 -1 
2 15.899999999999977 49.125 1.4877853719691288e-17 0 0 -1 -1 0 0 0 1 0 3
1 18.899999999999977 49.125 1.4877853719691288e-17 1 0 -0 0 -1 0 0 -0 -1 
2 15.899999999999977 45 1.4877853719691288e-17 0 0 -1 -1 0 0 0 1 0 3
1 15.899999999999977 42 1.4877853719691288e-17 0 -1 0 -1 0 0 -0 -0 -1 
2 5.1582890569614399 42.928221491590051 1.4877853719691288e-17 0 0 -1 0.46411074579502559 0.88577718170970354 0 0.88577718170970354 -0.46411074579502559 0 2
1 6.0035255804428385 41.115605917516753 1.4877853719691288e-17 0.42261826174069911 -0.90630778703665027 0 -0.90630778703665005 -0.42261826174069905 0 0 -0 -1 
1 6.9809973745800571 37.157896824903482 1.4877853719691288e-17 -0.90630778703665027 -0.42261826174069911 0 -0.42261826174069905 0.90630778703665005 0 -0 0 -1 
2 7.8262338980614654 35.345281250830176 1.4877853719691288e-17 -0 0 -1 -0.90630778703664927 -0.42261826174070094 0 -0.42261826174070094 0.90630778703664927 0 2
1 9.6388494721347122 36.190517774311559 1.4877853719691288e-17 0.90630778703665005 0.42261826174069916 -0 0.42261826174069916 -0.90630778703665005 0 0 -0 -1 
1 26.514765071953853 0 1.4877853719691288e-17 0 1 0 1 0 0 0 0 -1 
1 38.899999999999977 0 1.4877853719691288e-17 -1 0 0 0 1 0 0 0 -1 
1 38.899999999999977 115 1.4877853719691288e-17 0 -1 0 -1 0 0 -0 -0 -1 
1 0 115 1.4877853719691288e-17 1 0 -0 0 -1 0 0 -0 -1 
1 21.587294156897972 60.801609863633118 1.4877853719691288e-17 0 0 1 1 0 -0 -0 1 0 
Triangulations 0

TShapes 74
Ve
1e-07
0 52.125 1.48778537196913e-17
0 0

0101101
*
Ed
 1e-07 1 1 0
1  1 0 0 17.9999999999999
0

0101000
+74 0 -74 1 *
Ve
1e-07
15.9 52.125 1.48778537196913e-17
0 0

0101101
*
Ed
 1e-07 1 1 0
1  2 0 0 17.9999999999999
2  1 2 0 0 17.9999999999999
4 G1 1 0 2 0
0

0101000
+72 0 -72 1 *
Ed
 1e-07 1 1 0
1  3 0 -0 15.9
0

0101000
+74 0 -72 0 *
Wi

0101100
+73 0 -71 0 -70 0 +70 1 *
Fa
0  1e-07 1 0

0101000
+69 0 *
Ve
1e-07
18.9 49.125 1.48778537196913e-17
0 0

0101101
*
Ed
 1e-07 1 1 0
1  4 0 0 17.9999999999999
2  2 2 0 0 17.9999999999999
4 G1 2 0 3 0
0

0101000
+67 0 -67 1 *
Ed
 1e-07 1 1 0
1  5 0 1.5707963267949 3.14159265358979
2  3 2 0 1.5707963267949 3.14159265358979
2  4 2 2 1.5707963267949 3.14159265358979
0

0101000
+72 0 -67 0 *
Wi

0101100
+71 0 -66 0 -65 0 +65 1 *
Fa
0  1e-07 2 0

0101000
+64 0 *
Ve
1e-07
18.9 45 1.48778537196913e-17
0 0

0101101
*
Ed
 1e-07 1 1 0
1  6 0 0 17.9999999999999
2  5 4 0 0 17.9999999999999
4 G1 3 0 4 0
0

0101000
+62 0 -62 1 *
Ed
 1e-07 1 1 0
1  7 0 3 7.125
0

0101000
+67 0 -62 0 *
Wi

0101100
+66 0 -61 0 -60 0 +60 1 *
Fa
0  1e-07 3 0

0101000
+59 0 *
Ve
1e-07
15.9 42 1.48778537196913e-17
0 0

0101101
*
Ed
 1e-07 1 1 0
1  8 0 0 17.9999999999999
2  6 4 0 0 17.9999999999999
4 G1 4 0 5 0
0

0101000
+57 0 -57 1 *
Ed
 1e-07 1 1 0
1  9 0 3.14159265358979 4.71238898038469
2  7 4 0 3.14159265358979 4.71238898038469
2  8 4 2 3.14159265358979 4.71238898038469
0

0101000
+62 0 -57 0 *
Wi

0101100
+61 0 -56 0 -55 0 +55 1 *
Fa
0  1e-07 4 0

0101000
+54 0 *
Ve
1e-07
6.92984342038085 42 1.48778537196913e-17
0 0

0101101
*
Ed
 1e-07 1 1 0
1  10 0 0 17.9999999999999
2  9 6 0 0 17.9999999999999
0

0101000
+52 0 -52 1 *
Ed
 1e-07 1 1 0
1  11 0 3 11.9701565796191
0

0101000
+57 0 -52 0 *
Wi

0101100
+56 0 -51 0 -50 0 +50 1 *
Fa
0  1e-07 5 0

0101000
+49 0 *
Ve
1e-07
6.00352558044284 41.1156059175168 1.48778537196913e-17
0 0

0101101
*
Ed
 1e-07 1 1 0
1  12 0 0 17.9999999999999
2  10 6 0 0 17.9999999999999
4 G1 6 0 7 0
0

0101000
+47 0 -47 1 *
Ed
 1e-07 1 1 0
1  13 0 1.5707963267949 2.22262991911372
2  11 6 0 1.5707963267949 2.22262991911372
2  12 6 2 1.5707963267949 2.22262991911372
0

0101000
+52 0 -47 0 *
Wi

0101100
+51 0 -46 0 -45 0 +45 1 *
Fa
0  1e-07 6 0

0101000
+44 0 *
Ve
1e-07
5.29052432761726 40.7831279730501 1.48778537196913e-17
0 0

0101101
*
Ed
 1e-07 1 1 0
1  14 0 0 17.9999999999999
0

0101000
+42 0 -42 1 *
Ed
 1e-07 1 1 0
1  15 0 1.21329016143967 2
0

0101000
+47 0 -42 0 *
Wi

0101100
+46 0 -41 0 -40 0 +40 1 *
Fa
0  1e-07 7 0

0101000
+39 0 *
Ve
1e-07
6.98099737458006 37.1578968249035 1.48778537196913e-17
0 0

0101101
*
Ed
 1e-07 1 1 0
1  16 0 0 17.9999999999999
2  13 9 0 0 17.9999999999999
0

0101000
+37 0 -37 1 *
Ed
 1e-07 1 1 0
1  17 0 1.11609978960226e-14 4
0

0101000
+37 0 -42 0 *
Wi

0101100
+36 0 -41 0 -35 0 +35 1 *
Fa
0  1e-07 8 0

0101000
+34 0 *
Ve
1e-07
9.63884947213476 36.1905177743116 1.48778537196913e-17
0 0

0101101
*
Ed
 1e-07 1 1 0
1  18 0 0 17.9999999999999
2  14 9 0 0 17.9999999999999
4 G1 9 0 10 0
0

0101000
+32 0 -32 1 *
Ed
 1e-07 1 1 0
1  19 0 1.57079632679489 3.14159265358979
2  15 9 0 1.57079632679489 3.14159265358979
2  16 9 2 1.57079632679489 3.14159265358979
0

0101000
+37 0 -32 0 *
Wi

0101100
+36 0 -31 0 -30 0 +30 1 *
Fa
0  1e-07 9 0

0101000
+29 0 *
Ve
1e-07
26.5147650628908 0 1.48778537196913e-17
0 0

0101101
*
Ed
 1e-07 1 1 0
1  20 0 0 17.9999999999999
0

0101000
+27 0 -27 1 *
Ed
 1e-07 1 1 0
1  21 0 6.41005440842969 46.3418725964247
0

0101000
+32 0 -27 0 *
Wi

0101100
+31 0 -26 0 -25 0 +25 1 *
Fa
0  1e-07 10 0

0101000
+24 0 *
Ve
1e-07
38.9 0 1.48778537196913e-17
0 0

0101101
*
Ed
 1e-07 1 1 0
1  22 0 0 17.9999999999999
0

0101000
+22 0 -22 1 *
Ed
 1e-07 1 1 0
1  23 0 9.06307828785202e-09 12.3852349371092
0

0101000
+27 0 -22 0 *
Wi

0101100
+26 0 -21 0 -20 0 +20 1 *
Fa
0  1e-07 11 0

0101000
+19 0 *
Ve
1e-07
38.9 115 1.48778537196913e-17
0 0

0101101
*
Ed
 1e-07 1 1 0
1  24 0 0 17.9999999999999
0

0101000
+17 0 -17 1 *
Ed
 1e-07 1 1 0
1  25 0 0 115
0

0101000
+22 0 -17 0 *
Wi

0101100
+21 0 -16 0 -15 0 +15 1 *
Fa
0  1e-07 12 0

0101000
+14 0 *
Ve
1e-07
0 115 1.48778537196913e-17
0 0

0101101
*
Ed
 1e-07 1 1 0
1  26 0 0 17.9999999999999
0

0101000
+12 0 -12 1 *
Ed
 1e-07 1 1 0
1  27 0 -0 38.9
0

0101000
+17 0 -12 0 *
Wi

0101100
+16 0 -11 0 -10 0 +10 1 *
Fa
0  1e-07 13 0

0101000
+9 0 *
Ed
 1e-07 1 1 0
1  28 0 -0 62.875
0

0101000
+12 0 -74 0 *
Wi

0101100
+11 0 -73 0 -7 0 +7 1 *
Fa
0  1e-07 14 0

0101000
+6 0 *
Wi

0101100
+70 0 +65 0 +60 0 +55 0 +50 0 +45 0 +40 0 -35 0 +30 0 +25 0 
+20 0 +15 0 +10 0 +7 0 *
Fa
0  1e-07 15 0

0101000
+4 0 *
Sh

0101100
+68 0 +63 0 +58 0 +53 0 +48 0 +43 0 +38 0 -33 0 +28 0 +23 0 
+18 0 +13 0 +8 0 +5 0 +3 0 -3 1 *
So

1100000
-2 0 *

+1 0 