DBRep_DrawableShape

CASCADE Topology V1, (c) Matra-Datavision
Locations 10
1
              1               0               0               0 
              0               1               0               0 
              0               0               1              -1 
1
              1               0               0               0 
              0 0.90630778703665 -0.422618261740699 1033.61447567049 
              0 0.422618261740699 0.90630778703665 546.577383033049 
1
              1               0               0               0 
              0               1               0               0 
              0               0               1           -0.25 
1
              1               0               0               0 
              0               1               0               0 
              0               0               1               0 
1
              1               0               0               0 
              0 -0.90630778703665 -0.422618261740699               0 
              0 0.422618261740699 -0.90630778703665               0 
1
              1               0               0             -30 
              0               1               0 1263.03577705274 
              0               0               1 58.3164084963198 
1
              1               0               0               0 
              0               1               0               0 
              0               0               1              -0 
1
              1               0               0               0 
              0               1               0               0 
              0               0               1               1 
2  2 1 3 1 4 1 5 1 6 1 7 1 8 1 0
2  8 -1 7 -1 6 -1 5 -1 4 -1 3 -1 2 -1 0
Curve2ds 4
1 0 0 0 1 
1 0 95.375 1 0 
1 540 0 0 1 
1 0 0 1 0 
Curves 4
1 30 0 0 -0 1 0 
1 0 0 1.0000000000000036 1 0 0 
1 570 0 0 -0 1 0 
1 30 0 0 1 0 -0 
Polygon3D 0
PolygonOnTriangulations 0
Surfaces 1
1 30 0 0 0 0 1 1 0 -0 -0 1 0 
Triangulations 0

TShapes 9
Ve
1.5000023718189e-07
0 95.375 0.999999999999962
0 0

0101101
*
Ve
1.5000023718189e-07
0 0 0.999999999999924
0 0

0101101
*
Ed
 1.5000023718189e-07 1 1 0
1  1 0 0 95.375
2  1 1 0 0 95.375
0

0101000
+9 10 -8 10 *
Ve
1.5000023718189e-07
540 0 0.999999999999924
0 0

0101101
*
Ed
 1.5000023718189e-07 1 1 0
1  2 0 1.13686837721616e-13 540
2  2 1 9 1.13686837721616e-13 540
0

0101000
+8 0 -6 0 *
Ve
1.5000023718189e-07
540 95.375 0.999999999999962
0 0

0101101
*
Ed
 1.5000023718189e-07 1 1 0
1  3 0 0 95.375
2  3 1 0 0 95.375
0

0101000
+4 10 -6 10 *
Ed
 1.5000023718189e-07 1 1 0
1  4 0 0 540
2  4 1 0 0 540
0

0101000
+9 10 -4 10 *
Wi

0101100
+7 9 +5 0 -3 9 -2 9 *

+1 1 