DBRep_DrawableShape

CASCADE Topology V1, (c) Matra-Datavision
Locations 14
1
              1               0               0               0 
              0 0.90630778703665 -0.422618261740699 1033.61447567049 
              0 0.422618261740699 0.90630778703665 546.577383033049 
1
              1               0               0               0 
              0               1               0               0 
              0               0               1           -0.25 
1
              1               0               0               0 
              0               1               0               0 
              0               0               1               0 
1
              1               0               0               0 
              0 -0.90630778703665 -0.422618261740699               0 
              0 0.422618261740699 -0.90630778703665               0 
1
              1               0               0             -30 
              0               1               0 1263.03577705274 
              0               0               1 58.3164084963198 
1
              1               0               0               0 
              0               1               0               0 
              0               0               1              -0 
1
              1               0               0               0 
              0               1               0               0 
              0               0               1               1 
1
              1               0               0               0 
              0               1               0               0 
              0               0               1              -1 
2  1 1 2 1 3 1 4 1 5 1 6 1 7 1 8 1 0
2  3 1 4 1 5 1 0
2  1 1 2 1 0
2  5 -1 4 -1 3 -1 0
1
              1               0               0               0 
              0               1               0               0 
              0               0               1              12 
2  1 1 2 1 3 1 4 1 5 1 6 1 7 1 8 1 13 1 0
Curve2ds 6
2 525 54.999999999999964 0 -1 -1 -0 2.25
1 0 1.0000000000001645 1 0 
2 525 55.000000000000014 0 -1 -1 -0 2.25
1 0 13.000000000000016 1 0 
1 6.2831853071795862 -0 0 1 
1 0 -0 0 1 
Curves 3
2 555 1083.4614039575069 569.57138742878738 -0 0.42261826174069944 -0.90630778703664994 0 -0.90630778703664994 -0.42261826174069944 -1 -0 0 2.25
2 555 1088.5328230983953 558.69569398434771 -0 0.42261826174069944 -0.90630778703664994 0 -0.90630778703664994 -0.42261826174069944 -1 -0 0 2.25
1 555 1080.9995931749336 569.52680412690756 -0 0.42261826174069944 -0.90630778703664994 
Polygon3D 0
PolygonOnTriangulations 0
Surfaces 4
1 30 0 0 0 0 1 1 0 -0 -0 1 0 
1 30 0 0 0 0 1 1 0 -0 -0 1 0 
2 555 1083.0387856957661 570.47769521582416 -0 0.42261826174069944 -0.90630778703664994 0 -0.90630778703664994 -0.42261826174069944 -1 -0 0 2.25
1 30 0 -12 0 0 1 1 0 -0 -0 1 0 
Triangulations 0

TShapes 13
Ve
1.50000295889843e-07
525 42.6250000000002 -5.6843418860808e-14
0 0

0101101
*
Ed
 1.50000295889843e-07 1 1 0
1  1 0 0 6.28318530717959
2  1 2 11 0 6.28318530717959
2  2 3 0 0 6.28318530717959
0

0101000
+13 12 -13 12 *
Wi

0101100
-12 10 *
Fa
0  1.5000023718189e-07 1 9

0101000
+11 0 *
Ve
1.50000356197798e-07
525 42.6250000000002 11.9999999999999
0 0

0101101
*
Ed
 1.50000301130736e-07 1 1 0
1  2 0 0 6.28318530717959
2  3 4 11 0 6.28318530717959
2  4 3 0 0 6.28318530717959
0

0101000
+9 12 -9 12 *
Ed
 1e-07 1 1 0
1  3 0 1.00000000000006 13
3  5 6CN 3 0 1.00000000000006 13
0

0101000
+13 12 -9 12 *
Wi

0101100
-8 10 +7 10 +12 10 -7 10 *
Fa
0  1e-07 3 10

0101000
+6 0 *
Wi

0101100
-8 10 *
Fa
0  1.5000023718189e-07 1 14

0101000
+4 0 *
Sh

0101100
+10 0 +5 0 -3 0 *
So

0100000
+2 0 *

+1 0 