DBRep_DrawableShape

CASCADE Topology V1, (c) Matra-Datavision
Locations 33
1
              1               0               0               0 
              0 0.90630778703665 -0.422618261740699 1033.61447567049 
              0 0.422618261740699 0.90630778703665 546.577383033049 
1
              1               0               0               0 
              0               1               0               0 
              0               0               1           -0.25 
1
              1               0               0               0 
              0               1               0               0 
              0               0               1               0 
1
              1               0               0               0 
              0 -0.90630778703665 -0.422618261740699               0 
              0 0.422618261740699 -0.90630778703665               0 
1
              1               0               0             -30 
              0               1               0 1263.03577705274 
              0               0               1 58.3164084963198 
1
              1               0               0               0 
              0               1               0               0 
              0               0               1              -0 
1
              1               0               0               0 
              0               1               0               0 
              0               0               1               1 
1
              1               0               0               0 
              0               1               0               0 
              0               0               1              -1 
2  1 1 2 1 3 1 4 1 5 1 6 1 7 1 8 1 0
2  8 -1 7 -1 6 -1 5 -1 4 -1 3 -1 2 -1 1 -1 0
1
              1               0               0               0 
              0               1               0               0 
              0               0               1              12 
2  1 1 2 1 3 1 4 1 5 1 6 1 7 1 8 1 11 1 0
2  11 -1 8 -1 7 -1 6 -1 5 -1 4 -1 3 -1 2 -1 1 -1 0
2  8 -1 0
2  1 1 2 1 3 1 4 1 5 1 6 1 7 1 0
2  8 1 11 1 0
2  11 -1 8 -1 0
1
              1               0               0               0 
              0               1               0               0 
              0               0               1 9.99200722162647e-16 
1
              1               0               0               0 
              0               1               0               0 
              0               0               1               1 
1
              1               0               0               0 
              0               1               0               0 
              0               0               1              -1 
2  3 1 4 1 5 1 18 1 19 1 20 1 0
2  20 -1 19 -1 18 -1 5 -1 4 -1 3 -1 0
1
              1               0               0               0 
              0               1               0               0 
              0               0               1              12 
2  23 -1 20 -1 19 -1 18 -1 5 -1 4 -1 3 -1 0
1
              1               0               0               0 
              0               1               0               0 
              0               0               1 9.99200722162635e-16 
1
              1               0               0               0 
              0               1               0               0 
              0               0               1               1 
1
              1               0               0               0 
              0               1               0               0 
              0               0               1              -1 
2  3 1 4 1 5 1 25 1 26 1 27 1 0
2  27 -1 26 -1 25 -1 5 -1 4 -1 3 -1 0
1
              1               0               0               0 
              0               1               0               0 
              0               0               1              12 
2  30 -1 27 -1 26 -1 25 -1 5 -1 4 -1 3 -1 0
2  3 1 4 1 5 1 18 1 19 1 20 1 23 1 0
2  3 1 4 1 5 1 25 1 26 1 27 1 30 1 0
Curve2ds 32
1 -3.414288605409691e-30 3.0753177782116836e-14 1.1102230246251563e-16 -1 
1 0 3.0753177782116836e-14 0 -1 
1 95.375 7.931155732165962e-14 1.1102230246251563e-16 -1 
1 -1.1368683772161603e-13 7.9380946260698693e-14 0 -1 
1 0 0 1 0 
1 0 0 0 1 
1 1.3322676295501882e-15 -12.000000000000007 1 0 
1 0 0 0 1 
1 -3.414288605409691e-30 3.0753177782116836e-14 1.1102230246251563e-16 -1 
1 539.99999999999989 3.0753177782116836e-14 0 -1 
1 0 0 1 0 
1 0 0 1 0 
1 0 -12.000000000000007 1 0 
1 0 0 1 0 
1 539.99999999999977 7.9380946260698693e-14 0 -1 
1 95.375 7.931155732165962e-14 1.1102230246251563e-16 -1 
1 -1.1368683772161603e-13 0 1 0 
1 0 95.375 1 0 
1 -1.1368683772161603e-13 -12 1 0 
1 0 95.375 1 0 
1 0 0 1 0 
1 540 0 0 1 
1 0 0 1 0 
1 0 -11.999999999999959 1 0 
1 0 0 1 0 
1 0 -11.999999999999959 1 0 
1 1.3322676295501882e-15 -12.000000000000007 1 0 
1 540 0 0 1 
1 0 0 0 -1 
1 6.2831853071795862 0 0 -1 
1 0 0 0 -1 
1 6.2831853071795862 0 0 -1 
Curves 16
1 0 95.375 -3.7858605139717838e-14 0 0 1 
1 0 0 -7.5828232581898192e-14 0 0 1 
1 30 0 0 -0 1 0 
1 30 0 0 -0 1 0 
1 539.99999999999989 95.375 -3.7858605139717838e-14 0 0 1 
1 30 0 0 1 0 -0 
1 30 0 0 1 0 -0 
1 539.99999999999989 0 -7.5828232581898192e-14 0 0 1 
1 0 0 1.0000000000000036 1 0 0 
1 0 0 1.0000000000000036 1 0 0 
1 570 0 0 -0 1 0 
2 45 1083.4614039575069 569.5713874287876 0 0.42261826174070377 -0.90630778703664805 0 -0.90630778703664805 -0.42261826174070377 -1 0 -0 2.2500000000001688
2 555 1083.4614039575069 569.57138742878749 0 0.42261826174070377 -0.90630778703664805 0 -0.90630778703664805 -0.42261826174070377 -1 0 -0 2.2500000000001208
1 570 0 0 -0 1 0 
1 15.000000000000005 42.625000000000227 -8.3858845793353495e-14 0 0 1 
1 525 42.625000000000227 -8.4006875529970174e-14 0 0 1 
Polygon3D 0
PolygonOnTriangulations 0
Surfaces 8
1 0 95.375 -7.1054273576010019e-15 1 0 -0 0 -1 1.1102230246251563e-16 0 -1.1102230246251563e-16 -1 
1 0 95.375 -7.1054273576010019e-15 0 1 0 1 0 0 0 0 -1 
1 1.1368683772161603e-13 0 3.5527136788005009e-15 0 1 0 1 0 0 0 0 -1 
1 30 0 0 0 0 1 1 0 -0 -0 1 0 
1 30 0 0 0 0 1 1 0 -0 -0 1 0 
1 539.99999999999989 95.375 -7.1054273576010019e-15 1 0 -0 0 -1 1.1102230246251563e-16 0 -1.1102230246251563e-16 -1 
2 15.000000000000004 40.375 -5.6843418860808015e-14 -0 5.1070259132757201e-15 -1 0 1 5.1070259132757201e-15 -1 0 0 2.2500000000001688
2 525 40.375 -5.6843418860808015e-14 -0 5.1070259132757201e-15 -1 0 1 5.1070259132757201e-15 -1 0 0 2.2500000000001208
Triangulations 0

TShapes 54
Ve
1.5000023718189e-07
0 95.375 -3.78586051397178e-14
0 0

0101101
*
Ve
1.5000023718189e-07
0 95.375 12
0 0

0101101
*
Ed
 1.5000023718189e-07 1 1 0
1  1 0 0 12
2  1 1 0 0 12
2  2 2 0 0 12
0

0101000
+54 0 -53 0 *
Ve
1.5000023718189e-07
0 0 -7.58282325818982e-14
0 0

0101101
*
Ve
1.5000023718189e-07
0 0 11.9999999999999
0 0

0101101
*
Ed
 1.5000023718189e-07 1 1 0
1  2 0 0 12
2  3 1 0 0 12
2  4 3 0 0 12
0

0101000
+51 0 -50 0 *
Ed
 1.5000023718189e-07 1 1 0
1  3 0 0 95.375
2  5 1 10 0 95.375
2  6 4 0 0 95.375
0

0101000
+54 10 -51 10 *
Ed
 1.5000023718189e-07 1 1 0
1  4 0 0 95.375
2  7 1 13 0 95.375
2  8 5 0 0 95.375
0

0101000
+53 13 -50 13 *
Wi

0101100
+52 0 -49 0 -48 9 +47 12 *
Fa
0  1.5000023718189e-07 1 0

0101000
+46 0 *
Ve
1.5000023718189e-07
540 95.375 -3.78586051397178e-14
0 0

0101101
*
Ve
1.5000023718189e-07
540 95.375 12
0 0

0101101
*
Ed
 1.5000023718189e-07 1 1 0
1  5 0 0 12
2  9 6 0 0 12
2  10 2 0 0 12
0

0101000
+44 0 -43 0 *
Ed
 1.5000023718189e-07 1 1 0
1  6 0 0 540
2  11 2 10 0 540
2  12 4 0 0 540
0

0101000
+54 10 -44 10 *
Ed
 1.5000023718189e-07 1 1 0
1  7 0 0 540
2  13 2 13 0 540
2  14 5 0 0 540
0

0101000
+53 13 -43 13 *
Wi

0101100
+52 0 -42 0 -41 9 +40 12 *
Fa
0  1.5000023718189e-07 2 0

0101000
+39 0 *
Ve
1.5000023718189e-07
540 0 -7.58282325818982e-14
0 0

0101101
*
Ve
1.5000023718189e-07
540 0 11.9999999999999
0 0

0101101
*
Ed
 1.5000023718189e-07 1 1 0
1  8 0 0 12
2  15 3 0 0 12
2  16 6 0 0 12
0

0101000
+37 0 -36 0 *
Ed
 1e-07 1 1 0
1  9 0 1.13686837721616e-13 540
2  17 3 14 1.13686837721616e-13 540
2  18 4 15 1.13686837721616e-13 540
0

0101000
+51 14 -37 14 *
Ed
 1e-07 1 1 0
1  10 0 1.13686837721616e-13 540
2  19 3 17 1.13686837721616e-13 540
2  20 5 15 1.13686837721616e-13 540
0

0101000
+50 17 -36 17 *
Wi

0101100
+49 0 -35 0 -34 8 +33 16 *
Fa
0  1e-07 3 0

0101000
+32 0 *
Ed
 1.5000023718189e-07 1 1 0
1  11 0 0 95.375
2  21 6 10 0 95.375
2  22 4 0 0 95.375
0

0101000
+44 10 -37 10 *
Wi

0101100
-48 9 +41 9 -34 8 +30 9 *
Ve
1.50000989073233e-07
15 42.6250000000002 -8.38588457933535e-14
0 0

0101101
*
Ed
 1.5000097556552e-07 1 1 0
1  12 0 0 6.28318530717959
2  23 7 22 0 6.28318530717959
2  24 7 24 0 6.28318530717959
0

0101000
+28 22 -28 22 *
Wi

0101100
+27 21 *
Ve
1.500009670541e-07
525 42.6250000000002 -8.40068755299702e-14
0 0

0101101
*
Ed
 1.50000953472372e-07 1 1 0
1  13 0 0 6.28318530717959
2  25 8 29 0 6.28318530717959
2  26 8 31 0 6.28318530717959
0

0101000
+25 29 -25 29 *
Wi

0101100
+24 28 *
Fa
0  1.5000023718189e-07 4 9

0101000
+29 0 +26 0 +23 0 *
Ed
 1.5000023718189e-07 1 1 0
1  14 0 0 95.375
2  27 6 13 0 95.375
2  28 5 0 0 95.375
0

0101000
+43 13 -36 13 *
Wi

0101100
-47 12 +40 12 -33 16 +21 12 *
Ve
1.50000989073233e-07
15 42.6250000000002 11.9999999999999
0 0

0101101
*
Ed
 1.5000097556552e-07 1 1 0
1  12 0 0 6.28318530717959
2  23 7 22 0 6.28318530717959
2  24 7 24 0 6.28318530717959
0

0101000
+19 24 -19 24 *
Wi

0101100
+18 32 *
Ve
1.500009670541e-07
525 42.6250000000002 11.9999999999999
0 0

0101101
*
Ed
 1.50000953472372e-07 1 1 0
1  13 0 0 6.28318530717959
2  25 8 29 0 6.28318530717959
2  26 8 31 0 6.28318530717959
0

0101000
+16 31 -16 31 *
Wi

0101100
+15 33 *
Fa
0  1.5000023718189e-07 5 12

0101000
+20 0 +17 0 +14 0 *
Wi

0101100
+42 0 -35 0 -30 9 +21 12 *
Fa
0  1.5000023718189e-07 6 0

0101000
+12 0 *
Ed
 1.50000989073233e-07 1 1 0
1  15 0 0 12
3  29 30CN 7 0 0 12
0

0101000
+28 0 -19 0 *
Wi

0101100
+10 0 -10 0 -27 21 +18 32 *
Fa
0  1.5000097556552e-07 7 0

0101000
+9 0 *
Ed
 1.500009670541e-07 1 1 0
1  16 0 0 12
3  31 32CN 8 0 0 12
0

0101000
+25 0 -16 0 *
Wi

0101100
+7 0 -7 0 -24 28 +15 33 *
Fa
0  1.50000953472372e-07 8 0

0101000
+6 0 *
Sh

0101100
-45 0 +38 0 -31 0 +22 0 -13 0 +11 0 +8 0 +5 0 *
So

0100000
+4 0 *
Co

0100000
+3 0 *
Co

1100000
+2 0 *

+1 0 