DBRep_DrawableShape

CASCADE Topology V1, (c) Matra-Datavision
Locations 14
1
              1               0               0               0 
              0               1               0               0 
              0               0               1               0 
1
              1               0               0               0 
              0               1               0               0 
              0               0               1               0 
1
1.11022302462516e-16               0               1               0 
              0               1               0               0 
             -1               0 1.11022302462516e-16               0 
1
              1               0               0          -596.9 
              0               1               0         -1054.1 
              0               0               1 -72.0000000000001 
1
              1               0               0               0 
              0               1               0               0 
              0               0               1             -18 
1
              1               0               0               0 
              0               1               0               0 
              0               0               1               1 
1
              1               0               0               0 
              0               1               0               0 
              0               0               1              -1 
2  1 1 2 1 3 1 4 1 5 1 6 1 7 1 0
2  1 1 2 1 3 1 4 1 0
1
              1               0               0              18 
              0               1               0               0 
              0               0               1               0 
2  4 -1 3 -1 2 -1 1 -1 0
2  1 1 2 1 3 1 4 1 5 1 6 1 0
2  7 -1 0
2  2 -1 1 -1 0
Curve2ds 20
8 -185.13722376826706 -167.13722376826706
1 185.13722376826706 18.000000000000028 1 0 
8 -185.13722376826706 -167.13722376826706
1 -185.13722376826718 45.766007876056847 1 0 
8 -139.21699606197149 22.883003938028423
1 -352.27444753653424 22.883003938028423 0 1 
8 -139.21699606197149 22.883003938028423
1 18.000000000000028 22.883003938028423 0 -1 
1 -370.77444753653424 -110.33399212394306 1 0 
1 -370.27444753653424 93.666007876056938 0 -1 
1 47.900000000000091 0 0 -1 
1 0 0 0 1 
1 18 0 0 1 
1 0 0 1 0 
8 -18.5 -0.5
1 0.5 -1 -1 -0 
8 -18.5 -0.5
1 -0.5 12 -1 0 
8 -1.3203181676857696 4.6796818323142588
1 343.95000000000005 -13.320318167685784 0 1 
8 -1.3203181676857696 4.6796818323142588
1 13.32031816768577 156.09999999999945 1 0 
8 0.5 162.59999999999991
1 19 -0.5 0 -1 
8 0.5 162.59999999999991
1 12 -0.5 0 1 
8 162.47500000000002 180.47500000000002
1 181.47500000000002 -14.640636335371553 1 -0 
8 162.47500000000002 180.47500000000002
1 181.47500000000002 -157.09999999999945 -1 -0 
1 47.400000000000091 -12 1 0 
8 0.5 162.59999999999991
1 1 -0.5 0 -1 
Curves 12
1 -71.999999999999972 1146 782.03722376826704 0 -0 1 
1 -71.999999999999972 1168.8830039380284 614.89999999999998 0 -1 0 
1 -0.5 248 0.99999999999998579 1 0 1.1102230246251565e-16 
1 0 44 0.99999999999998579 0 1 0 
1 -90 1146 596.89999999999998 1 0 -0 
1 -90 1146 614.89999999999998 1 0 -0 
1 -78 1146 596.39999999999998 -0 0 -1 
1 -76.67968183231423 1302.0999999999995 614.89999999999998 1 0 0 
1 -78 1145.5 614.89999999999998 -0 1 0 
1 -78 1302.0999999999995 777.375 -0 0 -1 
1 0 248 0 0 0 1 
1 -78 1145.5 596.89999999999998 -0 1 0 
Polygon3D 0
PolygonOnTriangulations 0
Surfaces 9
1 -89.999999999999972 1191.7660078760568 967.17444753653422 1 0 0 -0 0 1 0 -1 0 
1 -90 1146 596.89999999999998 -0 1 0 0 0 1 1 0 -0 
1 -89.999999999999972 1191.7660078760568 967.17444753653422 1 0 0 -0 0 1 0 -1 0 
1 -90 1146 614.89999999999998 0 0 1 1 0 -0 -0 1 0 
1 -90 1098.0999999999999 596.89999999999998 0 0 1 0 1 0 -1 0 0 
1 -78 1145 595.89999999999998 1 0 -0 0 0 1 0 -1 0 
1 -63.359363664628447 1302.0999999999995 958.85000000000002 -0 -1 -0 0 0 -1 1 -0 0 
1 0 248 -1.4155343563970746e-14 0 1 0 1 -0 1.1102230246251565e-16 1.1102230246251565e-16 0 -1 
1 0 44 -1.4210854715202004e-14 -1 0 0 0 1 0 0 0 -1 
Triangulations 0

TShapes 34
Ve
2.0000046366089e-07
0 91.9000000000001 -1.4210854715202e-14
0 0

0101101
*
Ve
2.0000046366089e-07
18 91.9000000000001 -4.2632564145606e-14
0 0

0101101
*
Ed
 2.0000046366089e-07 1 1 0
1  1 0 -185.137223768267 -167.137223768267
2  1 2 0 -185.137223768267 -167.137223768267
2  2 3 10 -185.137223768267 -167.137223768267
0

0101000
+34 11 -33 11 *
Ve
2.00000459315785e-07
18 248 -4.2632564145606e-14
0 0

0101101
*
Ed
 2.00000459315785e-07 1 1 0
1  2 0 -133.216996061971 22.8830039380284
2  3 3 10 -133.216996061971 22.8830039380284
2  4 4 0 -133.216996061971 22.8830039380284
0

0101000
+31 11 -33 11 *
Ve
2.00000455793541e-07
0 248 1
0 0

0101101
*
Ed
 2.00000455793541e-07 1 1 0
1  3 0 0.5 18.5
2  5 1 12 0.5 18.5
0

0101000
+29 0 -31 13 *
Ed
 2.00000455793541e-07 1 1 0
1  4 0 47.9000000000001 204
2  6 1 12 47.9000000000001 204
0

0101000
+34 13 -29 0 *
Wi

0101100
-32 9 +30 9 +28 7 +27 7 *
Fa
0  2.00000455793541e-07 1 8

0101000
+26 0 *
Ve
2e-07
0 91.9000000000001 5.99999999999999
0 0

0101101
*
Ed
 1.0000000194289e-07 1 1 0
1  5 0 12 18
2  7 5 0 12 18
2  8 2 0 12 18
0

0101000
+24 11 -34 11 *
Ve
2e-07
-78 1146 614.9
0 0

0101101
*
Ed
 1e-07 1 1 0
1  6 0 12 18
2  9 2 0 12 18
2  10 4 0 12 18
0

0101000
+22 14 -33 11 *
Ed
 2e-07 1 1 0
1  7 0 -18.5 -0.5
2  11 6 0 -18.5 -0.5
2  12 2 0 -18.5 -0.5
0

0101000
+22 14 -24 11 *
Wi

0101100
-23 9 -32 9 +21 9 -20 9 *
Fa
0  1e-07 2 9

0101000
+19 0 *
Ve
2e-07
18 248 5.99999999999999
0 0

0101101
*
Ed
 2e-07 1 1 0
1  8 0 -1.32031816768577 4.67968183231426
2  13 7 0 -1.32031816768577 4.67968183231426
2  14 4 0 -1.32031816768577 4.67968183231426
0

0101000
+17 11 -31 11 *
Ed
 2e-07 1 1 0
1  9 0 0.5 156.599999999999
2  15 6 0 0.5 156.599999999999
2  16 4 0 0.5 156.599999999999
0

0101000
+22 14 -17 11 *
Wi

0101100
-16 9 -30 9 +21 9 -15 9 *
Fa
0  1e-07 4 9

0101000
+14 0 *
Ve
2.00000455793541e-07
0 248 5.99999999999999
0 0

0101101
*
Ed
 2e-07 1 1 0
1  10 0 162.475 180.475
2  17 7 0 162.475 180.475
2  18 6 0 162.475 180.475
0

0101000
+17 11 -12 11 *
Ed
 2.00000455793541e-07 1 1 0
1  11 0 0 5.99999999999999
0

0101000
+29 7 -12 0 *
Wi

0101100
-28 7 +16 9 -11 9 +10 0 *
Fa
0  1e-07 8 0

0101000
+9 0 *
Ed
 2e-07 1 1 0
1  12 0 0.5 156.6
2  19 5 0 0.5 156.6
2  20 6 0 0.5 156.6
0

0101000
+24 11 -12 11 *
Wi

0101100
-27 7 -10 0 +7 9 -23 9 *
Fa
0  1e-07 9 0

0101000
+6 0 *
Wi

0101100
-15 9 -11 9 +7 9 +20 9 *
Fa
0  1e-07 6 9

0101000
+4 0 *
Sh

0101100
+25 0 -18 0 +13 0 +8 0 +5 0 -3 0 *
So

0100000
+2 0 *

+1 0 