DBRep_DrawableShape

CASCADE Topology V1, (c) Matra-Datavision
Locations 19
1
              1               0               0               0 
              0               1               0               0 
              0               0               1               0 
1
              1               0               0               0 
              0               1               0               0 
              0               0               1               0 
1
1.11022302462516e-16               0               1               0 
              0               1               0               0 
             -1               0 1.11022302462516e-16               0 
1
              1               0               0          -596.9 
              0               1               0         -1054.1 
              0               0               1 -72.0000000000001 
2  1 1 2 1 3 1 4 1 0
2  4 -1 3 -1 2 -1 1 -1 0
1
              1               0               0              18 
              0               1               0               0 
              0               0               1               0 
2  1 -1 0
2  2 1 3 1 4 1 0
2  4 -1 3 -1 2 -1 0
2  2 -1 0
2  2 -1 1 -1 0
1
              1               0               0               0 
              0               1               0               0 
              0               0               1             -18 
1
              1               0               0               0 
              0               1               0               0 
              0               0               1               1 
1
              1               0               0               0 
              0               1               0               0 
              0               0               1              -1 
2  1 1 2 1 3 1 4 1 13 1 14 1 15 1 0
2  1 1 2 1 3 1 4 1 13 1 14 1 0
2  15 -1 0
2  7 1 1 1 0
Curve2ds 45
1 18.033219274656567 0 0 -1 
1 0 0 1 0 
1 0 0 0 1 
8 167.81277623173287 185.81277623173287
1 167.81277623173287 136.57193410896207 1 0 
8 167.81277623173287 185.81277623173287
1 -167.81277623173287 18.000000000000028 1 0 
1 252.90592623290513 0 0 -1 
1 18 0 0 1 
8 -18.5 -0.5
1 -0.5 12 -1 0 
1 145.93135753411366 83.61125285336152 -1 0 
8 -12 -6
1 6 56.805926232905222 -1 0 
8 -12 -6
1 462.79999999999995 -6 0 -1 
8 -184.6199591784241 68.285967054481034
1 335.62555246346574 68.285967054481034 0 1 
8 -184.6199591784241 68.285967054481034
1 18.000000000000028 68.285967054481034 0 -1 
8 0.5 253.40592623290513
1 12 -0.5 0 1 
1 146.43135753411366 84.11125285336152 0 -1 
1 353.62555246346574 -116.33399212394306 0 1 
1 -370.77444753653424 -110.33399212394306 1 0 
8 -184.6199591784241 68.285967054481034
1 335.62555246346574 68.285967054481034 0 1 
8 -184.6199591784241 68.285967054481034
1 18.000000000000028 68.285967054481034 0 -1 
1 -127.17444753653422 71.766007876056847 1 0 
1 0 6 1 0 
1 -127.17444753653422 79.766007876056847 0 -1 
1 6 0 0 1 
1 -127.17444753653422 79.766007876056847 1 0 
1 0 6 1 0 
1 253.40592623290513 -12 -1 0 
1 164.43135753411366 84.11125285336152 0 -1 
1 0 0 1 0 
1 -316.3686424658863 26.805326620456299 1 0 
1 0 0 0 1 
1 -316.3686424658863 26.805326620456299 0 -1 
1 0 0 1 0 
1 -316.3686424658863 18.805326620456299 1 0 
8 0.5 253.40592623290513
1 12 -0.5 0 1 
1 146.43135753411366 84.11125285336152 0 -1 
8 -190.47499999999991 -172.47499999999991
1 -171.47500000000002 -14.640636335371553 1 -0 
1 -26.043642465886251 -163.29467337954316 -1 0 
1 0 0 0 1 
1 0 0 1 0 
8 -1.3203181676857696 4.6796818323142588
1 -343.94999999999993 -13.320318167685784 0 1 
8 -1.3203181676857696 4.6796818323142588
1 13.32031816768577 246.90592623290468 1 0 
8 -12 -6
1 6 64.805926232905222 -1 0 
8 -12 -6
1 462.79999999999995 -6 0 -1 
1 0 8 1 0 
1 0 0 0 1 
Curves 24
1 -90 1055.1940737670948 1302.8 1 0 -0 
1 -71.999999999999972 1055.1940737670948 1134.9872237682671 0 -0 1 
1 -90 1055.1940737670948 1320.8 1 0 -0 
1 -78 1055.1940737670948 1302.3 -0 0 -1 
1 -84 1112 1302.8 -1 -0 0 
1 -71.999999999999972 1123.4800408215758 1302.8 0 -1 0 
1 -78 1054.6940737670948 1302.8 -0 1 0 
1 723.89999999999998 254 1.0000000000000568 0 -1 0 
1 -0.5 248 0.99999999999998579 1 0 1.1102230246251565e-16 
1 -71.999999999999972 1123.4800408215758 1302.8 0 -1 0 
1 -72 1120 840 0 0 1 
1 -72 1112 840 -0 1 0 
1 -72 1112 840 0 0 1 
1 -78 1054.6940737670948 1320.8 0 1 0 
1 723.89999999999998 248 3.7969627442180354e-14 0 0 1 
1 -78 1112 840 0 0 1 
1 -78 1112 840 -0 1 0 
1 -78 1120 840 0 0 1 
1 -78 1054.6940737670948 1302.8 -0 1 0 
1 -78 1302.0999999999995 1130.325 -0 0 -1 
1 -78 1112 840 1 0 -0 
1 -76.67968183231423 1302.0999999999995 1302.8 1 0 0 
1 -84 1120 1302.8 -1 -0 0 
1 -78 1120 840 1 0 -0 
Polygon3D 0
PolygonOnTriangulations 0
Surfaces 15
1 -90 1055.1940737670948 1302.8 -0 1 0 0 0 1 1 0 -0 
1 -90 1054.0999999999999 1320.8 -0 0.9981578843937613 0.060669908707453382 0 0.060669908707453382 -0.9981578843937613 -1 0 -0 
1 -90 1055.1940737670948 1302.8 0 0 1 1 0 -0 -0 1 0 
1 -89.999999999999972 1191.7660078760568 967.17444753653422 1 0 0 -0 0 1 0 -1 0 
1 -90 1308.0999999999999 1320.8 0 0 -1 0 -1 0 -1 -0 -0 
1 -78 1138.8053266204563 1156.3686424658863 1 0 0 -0 0 1 0 -1 0 
1 -78 1112 840 -0 1 0 0 0 1 1 0 -0 
1 -89.999999999999972 1191.7660078760568 967.17444753653422 1 0 0 -0 0 1 0 -1 0 
1 -89.999999999999972 1191.7660078760568 967.17444753653422 1 0 0 -0 0 1 0 -1 0 
1 -90 1055.1940737670948 1302.8 0 0 1 1 0 -0 -0 1 0 
1 -78 1120 840 -0 1 0 0 0 1 1 0 -0 
1 -78 1112 840 0 0 1 1 0 -0 -0 1 0 
1 723.89999999999998 248 5.6843418860808015e-14 1 0 -0 0 -1 0 0 -0 -1 
1 -63.359363664628447 1302.0999999999995 958.85000000000002 -0 -1 -0 0 0 -1 1 -0 0 
1 0 248 -1.4155343563970746e-14 0 1 0 1 -0 1.1102230246251565e-16 1.1102230246251565e-16 0 -1 
Triangulations 0

TShapes 62
Ve
2e-07
705.9 1.09407376709487 6.00000000000006
0 0

0101101
*
Ve
2.00000464633753e-07
705.9 1.09407376709487 5.6843418860808e-14
0 0

0101101
*
Ed
 1.00000033528735e-07 1 1 0
1  1 0 12 18
2  1 2 0 12 18
2  2 3 0 12 18
2  3 1 0 12 18
0

0101000
+62 6 -61 6 *
Ve
2.00000460213647e-07
723.9 1.09407376709487 5.6843418860808e-14
0 0

0101101
*
Ed
 2.00000460213647e-07 1 1 0
1  2 0 167.812776231733 185.812776231733
2  4 4 7 167.812776231733 185.812776231733
2  5 1 0 167.812776231733 185.812776231733
0

0101000
+61 6 -59 6 *
Ve
2e-07
723.9 1.09407376709487 6.00000000000006
0 0

0101101
*
Ed
 1e-07 1 1 0
1  3 0 12 18
2  6 5 0 12 18
2  7 1 0 12 18
0

0101000
+57 6 -59 6 *
Ed
 2e-07 1 1 0
1  4 0 -18.5 -0.5
2  8 1 0 -18.5 -0.5
2  9 6 8 -18.5 -0.5
0

0101000
+57 6 -62 6 *
Wi

0101100
-60 5 -58 5 +56 5 -55 5 *
Fa
0  1e-07 1 5

0101000
+54 0 *
Ve
2.00000484123596e-07
705.9 57.9000000000001 4.2632564145606e-14
0 0

0101101
*
Ve
2e-07
-78 1112 1302.8
0 0

0101101
*
Ed
 1.5e-07 1 1 0
1  5 0 -12 -6
2  10 3 1 -12 -6
2  11 7 0 -12 -6
0

0101000
+52 10 -51 11 *
Ed
 2.00000464633753e-07 1 1 0
1  6 0 11.4800408215758 68.285967054481
2  12 8 7 11.4800408215758 68.285967054481
2  13 3 0 11.4800408215758 68.285967054481
0

0101000
+52 6 -61 6 *
Ed
 2e-07 1 1 0
1  7 0 0.5 57.3059262329052
2  14 3 0 0.5 57.3059262329052
2  15 6 8 0.5 57.3059262329052
0

0101000
+62 6 -51 12 *
Wi

0101100
+50 9 -49 5 +60 5 -48 5 *
Fa
0  1e-07 3 5

0101000
+47 0 *
Ve
2.00000465341459e-07
723.9 248 1.00000000000004
0 0

0101101
*
Ed
 2.00000455793541e-07 1 1 0
1  8 0 6 252.905926232905
2  16 9 17 6 252.905926232905
0

0101000
+45 0 -59 18 *
Ve
2.00000464633753e-07
705.9 248 2.8421709430404e-14
0 0

0101101
*
Ed
 2.00000455793541e-07 1 1 0
1  9 0 706.4 724.4
2  17 9 17 706.4 724.4
0

0101000
+43 18 -45 0 *
Ve
2.00000484123596e-07
705.9 65.9000000000001 4.2632564145606e-14
0 0

0101101
*
Ed
 2.00000464633753e-07 1 1 0
1  10 0 -178.619959178424 3.48004082157581
2  18 8 7 -178.619959178424 3.48004082157581
2  19 10 0 -178.619959178424 3.48004082157581
0

0101000
+43 6 -41 6 *
Ve
2.00000484123596e-07
243.1 65.9000000000001 1.4210854715202e-14
0 0

0101101
*
Ed
 2.00000484123596e-07 1 1 0
1  11 0 0 462.8
2  20 8 19 0 462.8
2  21 11 0 0 462.8
0

0101000
+39 10 -41 10 *
Ve
2.00000484123596e-07
243.1 57.9000000000001 1.4210854715202e-14
0 0

0101101
*
Ed
 2.00000484123596e-07 1 1 0
1  12 0 0 8
2  22 8 19 0 8
2  23 12 0 0 8
0

0101000
+37 10 -39 10 *
Ed
 2.00000484123596e-07 1 1 0
1  13 0 0 462.8
2  24 8 19 0 462.8
2  25 7 0 0 462.8
0

0101000
+37 10 -52 10 *
Wi

0101100
-58 5 +44 15 +42 15 -40 5 +38 9 +36 9 -35 9 -49 5 *
Fa
0  2.00000455793541e-07 9 16

0101000
+34 0 *
Ve
2.00000465341459e-07
723.9 248 6.00000000000006
0 0

0101101
*
Ed
 2e-07 1 1 0
1  14 0 0.5 247.405926232905
2  26 5 1 0.5 247.405926232905
2  27 6 0 0.5 247.405926232905
0

0101000
+57 10 -32 10 *
Ed
 2.00000465341459e-07 1 1 0
1  15 0 0 6.00000000000002
0

0101000
+45 15 -32 0 *
Wi

0101100
-44 15 +56 5 -31 9 +30 0 *
Fa
0  1e-07 13 0

0101000
+29 0 *
Ve
2e-07
-78 1112 840
0 0

0101101
*
Ed
 2e-07 1 1 0
1  16 0 0 462.8
2  28 7 0 0 462.8
2  29 6 0 0 462.8
0

0101000
+27 11 -51 11 *
Ve
2e-07
-78 1120 840
0 0

0101101
*
Ed
 2e-07 1 1 0
1  17 0 0 8
2  30 12 0 0 8
2  31 6 0 0 8
0

0101000
-25 11 +27 11 *
Ve
2e-07
-78 1120 1302.8
0 0

0101101
*
Ed
 2e-07 1 1 0
1  18 0 0 462.8
2  32 11 0 0 462.8
2  33 6 0 0 462.8
0

0101000
+25 11 -23 11 *
Ve
2e-07
705.9 248 6.00000000000006
0 0

0101101
*
Ed
 2e-07 1 1 0
1  19 0 65.3059262329052 247.405926232905
2  34 10 0 65.3059262329052 247.405926232905
2  35 6 8 65.3059262329052 247.405926232905
0

0101000
+23 12 -21 6 *
Ed
 2e-07 1 1 0
1  20 0 -190.475 -172.475
2  36 14 0 -190.475 -172.475
2  37 6 8 -190.475 -172.475
0

0101000
+32 6 -21 6 *
Wi

0101100
-31 9 +55 5 +48 5 -26 9 +24 9 +22 9 +20 5 -19 5 *
Fa
0  2e-07 6 9

0101000
+18 0 *
Ed
 1e-07 1 1 0
1  21 0 0 6
2  38 7 0 0 6
2  39 12 0 0 6
0

0101000
+27 11 -37 10 *
Wi

0101100
-16 9 -35 9 -50 9 +26 9 *
Fa
0  1e-07 7 9

0101000
+15 0 *
Ed
 2e-07 1 1 0
1  22 0 -1.32031816768577 4.67968183231426
2  40 14 0 -1.32031816768577 4.67968183231426
2  41 10 0 -1.32031816768577 4.67968183231426
0

0101000
+21 6 -43 6 *
Wi

0101100
-42 15 -30 0 -19 5 -13 5 *
Fa
0  1e-07 15 0

0101000
+12 0 *
Ed
 1.5e-07 1 1 0
1  23 0 -12 -6
2  42 10 1 -12 -6
2  43 11 0 -12 -6
0

0101000
+41 10 -23 11 *
Wi

0101100
-13 5 -40 5 -10 9 -20 5 *
Fa
0  1e-07 10 5

0101000
+9 0 *
Ed
 1e-07 1 1 0
1  24 0 0 6
2  44 12 0 0 6
2  45 11 0 0 6
0

0101000
+25 11 -39 10 *
Wi

0101100
-7 9 -38 9 -10 9 +22 9 *
Fa
0  1e-07 11 9

0101000
+6 0 *
Wi

0101100
-24 9 -7 9 +36 9 +16 9 *
Fa
0  1e-07 12 9

0101000
+4 0 *
Sh

0101100
-53 0 -46 0 +33 0 +28 0 -17 0 -14 0 +11 0 -8 0 +5 0 -3 0 
*
So

0100000
+2 0 *

+1 0 