DBRep_DrawableShape

CASCADE Topology V1, (c) Matra-Datavision
Locations 0
Curve2ds 0
Curves 4
1 723.90000000000009 0 4.7200260613426567e-18 -0.9981578843937613 0.060669908707453382 0 
1 0 44 4.7200260613426567e-18 0 1 0 
1 -0.5 248 4.7200260613426567e-18 1 0 0 
1 723.89999999999998 254 4.7200260613426567e-18 0 -1 -0 
Polygon3D 0
PolygonOnTriangulations 0
Surfaces 0
Triangulations 0

TShapes 9
Ve
1e-07
723.9 3.66466717961509e-15 4.72002606134266e-18
0 0

0101101
*
Ve
1e-07
-1.13686837721616e-13 44 4.72002606134266e-18
0 0

0101101
*
Ed
 1e-07 1 1 0
1  1 0 6.04033738914276e-14 725.235968495772
0

0101000
+9 0 -8 0 *
Ve
1e-07
0 248 4.72002606134266e-18
0 0

0101101
*
Ed
 1e-07 1 1 0
1  2 0 0 204
0

0101000
+8 0 -6 0 *
Ve
1e-07
723.9 248 4.72002606134266e-18
0 0

0101101
*
Ed
 1e-07 1 1 0
1  3 0 0.5 724.4
0

0101000
+6 0 -4 0 *
Ed
 1e-07 1 1 0
1  4 0 6 254
0

0101000
+4 0 -9 0 *
Wi

0101100
-7 0 -5 0 -3 0 -2 0 *

+1 0 