DBRep_DrawableShape

CASCADE Topology V1, (c) Matra-Datavision
Locations 0
Curve2ds 0
Curves 14
1 538.08722376826711 1.0940737670948693 2.1078090372968675e-14 1 0 0 
2 721.89999999999998 3.094073767094855 2.1078090372968675e-14 0 0 -1 0 1 0 1 -0 0 2
1 723.89999999999998 254 2.1078090372968675e-14 0 -1 -0 
2 721.89999999999986 246 2.1078090372968675e-14 -0 0 -1 -1 -0 0 0 1 0 2
1 -0.5 248 2.1078090372968675e-14 1 0 0 
2 707.89999999999998 246 2.1078090372968675e-14 -0 0 -1 0 -1 -0 -1 -0 0 2
1 705.89999999999998 69.380040821575903 2.1078090372968675e-14 0 -1 -0 
1 243.10000000000002 65.900000000000091 2.1078090372968675e-14 1 0 0 
2 245.10000000000002 63.900000000000091 2.1078090372968675e-14 -0 -0 -1 0 -1 0 -1 0 0 2
1 243.10000000000002 57.900000000000091 2.1078090372968675e-14 0 1 0 
2 245.10000000000002 59.900000000000091 2.1078090372968675e-14 0 0 -1 1 0 0 0 -1 0 2
1 243.10000000000002 57.900000000000091 2.1078090372968675e-14 1 0 0 
1 705.89999999999998 69.380040821575903 2.1078090372968675e-14 0 -1 -0 
2 707.89999999999998 3.0940737670948693 2.1078090372968675e-14 0 0 -1 1 0 0 0 -1 0 2
Polygon3D 0
PolygonOnTriangulations 0
Surfaces 1
1 560.12900743530088 84.290278024003541 2.1078090372968675e-14 0 0 1 1 0 -0 -0 1 0 
Triangulations 0

TShapes 31
Ve
2.00000497534152e-07
707.9 1.09407376709487 2.10780903729687e-14
0 0

0101101
*
Ve
2.00000497663678e-07
721.9 1.09407376709487 2.10780903729687e-14
0 0

0101101
*
Ed
 2.00000497534152e-07 1 1 0
1  1 0 169.812776231733 183.812776231733
0

0101000
+31 0 -30 0 *
Ve
2.00000515003943e-07
723.9 3.09407376709487 2.10780903729687e-14
0 0

0101101
*
Ed
 2.00000473973874e-07 1 1 0
1  2 0 1.57079632679489 3.14159265358979
0

0101000
+28 0 -30 0 *
Ve
2.00000515003943e-07
723.9 246 2.10780903729687e-14
0 0

0101101
*
Ed
 2.00000515003943e-07 1 1 0
1  3 0 8 250.905926232905
0

0101000
+26 0 -28 0 *
Ve
2.00000524152181e-07
721.9 248 2.10780903729687e-14
0 0

0101101
*
Ed
 2.00000473973874e-07 1 1 0
1  4 0 1.57079632679495 3.14159265358979
0

0101000
+24 0 -26 0 *
Ve
2.00000524022655e-07
707.9 248 2.10780903729687e-14
0 0

0101101
*
Ed
 2.00000524022655e-07 1 1 0
1  5 0 708.4 722.4
0

0101000
+22 0 -24 0 *
Ve
2.00000491467215e-07
705.9 246 2.10780903729687e-14
0 0

0101101
*
Ed
 2.00000472170434e-07 1 1 0
1  6 0 1.5707963267949 3.14159265358979
0

0101000
+20 0 -22 0 *
Ve
2.00000529930723e-07
705.9 65.9000000000001 3.21910853491598e-14
0 0

0101101
*
Ed
 2.00000491467215e-07 1 1 0
1  7 0 -176.619959178424 3.48004082157581
0

0101000
+20 0 -18 0 *
Ve
2.00000524374225e-07
245.1 65.9000000000001 2.10780903729687e-14
0 0

0101101
*
Ed
 2.00000524374225e-07 1 1 0
1  8 0 2 462.8
0

0101000
+16 0 -18 0 *
Ve
2.00000490990831e-07
243.1 63.9000000000001 2.10780903729687e-14
0 0

0101101
*
Ed
 2.00000490988932e-07 1 1 0
1  9 0 1.5707963267949 3.14159265358979
0

0101000
+14 0 -16 0 *
Ve
2.00000490990831e-07
243.1 59.9000000000001 2.10780903729687e-14
0 0

0101101
*
Ed
 2.00000490990831e-07 1 1 0
1  10 0 2 6
0

0101000
+12 0 -14 0 *
Ve
2.00000524374225e-07
245.1 57.9000000000001 2.10780903729687e-14
0 0

0101101
*
Ed
 2.00000490988932e-07 1 1 0
1  11 0 1.5707963267949 3.14159265358979
0

0101000
+10 0 -12 0 *
Ve
2.00000529930723e-07
705.9 57.9000000000001 3.21910853491598e-14
0 0

0101101
*
Ed
 2.00000524374225e-07 1 1 0
1  12 0 2 462.8
0

0101000
+10 0 -8 0 *
Ve
2.00000491467215e-07
705.9 3.09407376709487 2.10780903729687e-14
0 0

0101101
*
Ed
 2.00000491467215e-07 1 1 0
1  13 0 11.4800408215758 66.285967054481
0

0101000
+8 0 -6 0 *
Ed
 2.00000472170434e-07 1 1 0
1  14 0 1.5707963267949 3.14159265358979
0

0101000
+31 0 -6 0 *
Wi

0101100
-29 0 +27 0 +25 0 +23 0 +21 0 +19 0 -17 0 +15 0 +13 0 +11 0 
+9 0 -7 0 -5 0 +4 0 *
Fa
0  1e-07 1 0

0101000
-3 0 *
Sh

1101000
+2 0 *

+1 0 