DBRep_DrawableShape

CASCADE Topology V1, (c) Matra-Datavision
Locations 12
1
              1               0               0               0 
              0               1               0               0 
              0               0               1               0 
1
1.11022302462516e-16               0               1               0 
              0               1               0               0 
             -1               0 1.11022302462516e-16               0 
1
              1               0               0          -596.9 
              0               1               0         -1054.1 
              0               0               1 -72.0000000000001 
2  1 1 2 1 3 1 0
1
              1               0               0               0 
              0               1               0               0 
              0               0               1               0 
2  1 -1 5 -1 0
1
              1               0               0              18 
              0               1               0               0 
              0               0               1               0 
2  7 -1 0
2  1 -1 5 -1 7 -1 0
2  5 -1 0
2  7 1 5 1 0
2  1 -1 0
Curve2ds 87
1 0 0 1 0 
1 -370.27444753653424 93.666007876056938 0 -1 
1 204 -5.5 0 1 
1 361.95000000000005 -21.140636335371553 0 -1 
1 47.400000000000091 -12 1 0 
8 0.5 162.59999999999991
1 1 -0.5 0 -1 
1 47.900000000000091 0 0 -1 
1 0 0 0 1 
1 0 -18 1 0 
1 -370.27444753653424 93.666007876056938 0 -1 
1 0 0 0 -1 
1 725.23596849577177 0 0 -1 
1 353.62555246346574 137.66600787605694 -0.9981578843937613 -0.060669908707453382 
1 0 0 1 0 
1 353.62555246346574 -116.33399212394306 0 1 
1 0 -0 1 0 
1 -370.77444753653424 -110.33399212394306 1 0 
1 362.45000000000005 -26.640636335371553 -1 0 
1 -361.94999999999993 -27.140636335371553 0 -1 
1 6 0.5 0 1 
8 -190.47499999999991 -172.47499999999991
1 -171.47500000000002 -14.640636335371553 1 -0 
1 -26.043642465886251 -163.29467337954316 -1 0 
8 -1.3203181676857696 4.6796818323142588
1 -343.94999999999993 -13.320318167685784 0 1 
8 -1.3203181676857696 4.6796818323142588
1 13.32031816768577 246.90592623290468 1 0 
8 -339.78777623173278 366.1122237682672
1 -4.1622237682671539 -8.640636335371525 1 0 
8 -339.78777623173278 366.1122237682672
1 -4.1622237682670402 -110.33399212394261 -1 0 
8 -1.3203181676857696 4.6796818323142588
1 343.95000000000005 -13.320318167685784 0 1 
8 -1.3203181676857696 4.6796818323142588
1 13.32031816768577 156.09999999999945 1 0 
8 162.47500000000002 180.47500000000002
1 181.47500000000002 -14.640636335371553 1 -0 
8 162.47500000000002 180.47500000000002
1 181.47500000000002 -157.09999999999945 -1 -0 
8 0.5 162.59999999999991
1 19 -0.5 0 -1 
8 0.5 162.59999999999991
1 12 -0.5 0 1 
8 -18.5 -0.5
1 0.5 -1 -1 -0 
8 -18.5 -0.5
1 -0.5 12 -1 0 
8 -185.13722376826706 -167.13722376826706
1 185.13722376826706 18.000000000000028 1 0 
8 -185.13722376826706 -167.13722376826706
1 -185.13722376826718 45.766007876056847 1 0 
1 18 0 0 1 
1 0 0 1 0 
8 -139.21699606197149 22.883003938028423
1 -352.27444753653424 22.883003938028423 0 1 
8 -139.21699606197149 22.883003938028423
1 18.000000000000028 22.883003938028423 0 -1 
1 353.62555246346574 137.66600787605694 -0.9981578843937613 -0.060669908707453382 
1 0 -18 1 0 
8 -184.6199591784241 68.285967054481034
1 335.62555246346574 68.285967054481034 0 1 
8 -184.6199591784241 68.285967054481034
1 18.000000000000028 68.285967054481034 0 -1 
1 -127.17444753653422 79.766007876056847 1 0 
1 0 6 1 0 
1 -127.17444753653422 79.766007876056847 0 -1 
1 6 0 0 1 
1 -127.17444753653422 71.766007876056847 1 0 
1 0 6 1 0 
8 -184.6199591784241 68.285967054481034
1 335.62555246346574 68.285967054481034 0 1 
8 -184.6199591784241 68.285967054481034
1 18.000000000000028 68.285967054481034 0 -1 
1 0 0 0 -1 
1 254 0 0 -1 
1 0 -18 1 0 
1 353.62555246346574 137.66600787605694 -0.9981578843937613 -0.060669908707453382 
1 18.033219274656567 0 0 -1 
1 0 0 1 0 
1 0 0 0 1 
1 0 -18 1 0 
1 353.62555246346574 -116.33399212394306 0 1 
1 252.90592623290513 0 0 -1 
1 18 0 0 1 
1 253.40592623290513 -12 -1 0 
1 164.43135753411366 84.11125285336152 0 -1 
8 -12 -6
1 6 64.805926232905222 -1 0 
8 -12 -6
1 462.79999999999995 -6 0 -1 
8 0.5 253.40592623290513
1 12 -0.5 0 1 
1 146.43135753411366 84.11125285336152 0 -1 
8 -12 -6
1 6 56.805926232905222 -1 0 
8 -12 -6
1 462.79999999999995 -6 0 -1 
8 0.5 253.40592623290513
1 12 -0.5 0 1 
1 146.43135753411366 84.11125285336152 0 -1 
1 0 0 0 1 
1 0 0 1 0 
1 0 0 1 0 
1 -316.3686424658863 26.805326620456299 1 0 
1 0 0 0 1 
1 -316.3686424658863 26.805326620456299 0 -1 
1 0 8 1 0 
1 0 0 0 1 
1 0 0 1 0 
1 -316.3686424658863 18.805326620456299 1 0 
8 167.81277623173287 185.81277623173287
1 167.81277623173287 136.57193410896207 1 0 
8 167.81277623173287 185.81277623173287
1 -167.81277623173287 18.000000000000028 1 0 
8 -18.5 -0.5
1 -0.5 12 -1 0 
1 145.93135753411366 83.61125285336152 -1 0 
Curves 43
1 -90 1098.0999999999999 596.89999999999998 0 1 0 
1 -84.5 1302.0999999999999 596.89999999999998 -1 -0 0 
1 -78 1145.5 596.89999999999998 -0 1 0 
1 -90 1146 596.89999999999998 1 0 -0 
1 -90 1098.0999999999999 596.89999999999998 0 1 0 
1 -90 1098.0999999999999 596.89999999999998 1 0 0 
1 -90 1054.0999999999999 1320.8 0 0.060669908707453382 -0.9981578843937613 
1 -90 1308.0999999999999 1320.8 0 -1 0 
1 -90 1302.0999999999999 596.39999999999998 0 0 1 
1 -90.5 1302.0999999999999 1320.8 -1 -0 0 
1 -78 1302.0999999999995 1130.325 -0 0 -1 
1 -76.67968183231423 1302.0999999999995 1302.8 1 0 0 
1 -71.999999999999972 1302.0999999999995 963.01222376826718 0 0 -1 
1 -76.67968183231423 1302.0999999999995 614.89999999999998 1 0 0 
1 -78 1302.0999999999995 777.375 -0 0 -1 
1 -78 1145.5 614.89999999999998 -0 1 0 
1 -78 1146 596.39999999999998 -0 0 -1 
1 -71.999999999999972 1146 782.03722376826704 0 -0 1 
1 -90 1146 614.89999999999998 1 0 -0 
1 -71.999999999999972 1168.8830039380284 614.89999999999998 0 -1 0 
1 -90 1054.0999999999999 1320.8 0 0.060669908707453382 -0.9981578843937613 
1 -71.999999999999972 1123.4800408215758 1302.8 0 -1 0 
1 -72 1112 840 0 0 1 
1 -72 1112 840 -0 1 0 
1 -72 1120 840 0 0 1 
1 -71.999999999999972 1123.4800408215758 1302.8 0 -1 0 
1 -90 1054.0999999999999 1320.8 1 0 0 
1 -90 1054.0999999999999 1320.8 0 0.060669908707453382 -0.9981578843937613 
1 -90 1055.1940737670948 1302.8 1 0 -0 
1 -90 1308.0999999999999 1320.8 0 -1 0 
1 -90 1055.1940737670948 1320.8 1 0 -0 
1 -78 1054.6940737670948 1320.8 0 1 0 
1 -84 1120 1302.8 -1 -0 0 
1 -78 1054.6940737670948 1302.8 -0 1 0 
1 -84 1112 1302.8 -1 -0 0 
1 -78 1054.6940737670948 1302.8 -0 1 0 
1 -78 1112 840 1 0 -0 
1 -78 1112 840 0 0 1 
1 -78 1112 840 -0 1 0 
1 -78 1120 840 1 0 -0 
1 -78 1120 840 0 0 1 
1 -71.999999999999972 1055.1940737670948 1134.9872237682671 0 -0 1 
1 -78 1055.1940737670948 1302.3 -0 0 -1 
Polygon3D 0
PolygonOnTriangulations 0
Surfaces 17
1 -90 1098.0999999999999 596.89999999999998 0 0 1 0 1 0 -1 0 0 
1 -89.999999999999972 1191.7660078760568 967.17444753653422 1 0 0 -0 0 1 0 -1 0 
1 -63.359363664628447 1302.0999999999995 958.85000000000002 -0 -1 -0 0 0 -1 1 -0 0 
1 -78 1145 595.89999999999998 1 0 -0 0 0 1 0 -1 0 
1 -90 1146 596.89999999999998 -0 1 0 0 0 1 1 0 -0 
1 -89.999999999999972 1191.7660078760568 967.17444753653422 1 0 0 -0 0 1 0 -1 0 
1 -90 1054.0999999999999 1320.8 -0 0.9981578843937613 0.060669908707453382 0 0.060669908707453382 -0.9981578843937613 -1 0 -0 
1 -90 1308.0999999999999 1320.8 0 0 -1 0 -1 0 -1 -0 -0 
1 -78 1138.8053266204563 1156.3686424658863 1 0 0 -0 0 1 0 -1 0 
1 -90 1055.1940737670948 1302.8 0 0 1 1 0 -0 -0 1 0 
1 -90 1146 614.89999999999998 0 0 1 1 0 -0 -0 1 0 
1 -90 1055.1940737670948 1302.8 0 0 1 1 0 -0 -0 1 0 
1 -78 1112 840 -0 1 0 0 0 1 1 0 -0 
1 -78 1112 840 0 0 1 1 0 -0 -0 1 0 
1 -78 1120 840 -0 1 0 0 0 1 1 0 -0 
1 -89.999999999999972 1191.7660078760568 967.17444753653422 1 0 0 -0 0 1 0 -1 0 
1 -90 1055.1940737670948 1302.8 -0 1 0 0 0 1 1 0 -0 
Triangulations 0

TShapes 109
Ve
1.5e-07
-90 1098.1 596.9
0 0

0101101
*
Ve
1.5e-07
-90 1302.1 596.9
0 0

0101101
*
Ed
 1.5e-07 1 1 0
1  1 0 0 204
2  1 1 0 0 204
2  2 2 0 0 204
0

0101000
+109 6 -108 6 *
Ve
2.00000455e-07
-78 1302.1 596.9
0 0

0101101
*
Ed
 1.5e-07 1 1 0
1  2 0 -6.5 5.5
2  3 1 0 -6.5 5.5
2  4 3 0 -6.5 5.5
0

0101000
+106 6 -108 6 *
Ve
2e-07
-78 1146 596.9
0 0

0101101
*
Ed
 2e-07 1 1 0
1  3 0 0.5 156.6
2  5 1 0 0.5 156.6
2  6 4 0 0.5 156.6
0

0101000
+104 6 -106 6 *
Ve
2e-07
-72 1146 596.9
0 0

0101101
*
Ed
 1e-07 1 1 0
1  4 0 12 18
2  7 1 0 12 18
2  8 5 0 12 18
0

0101000
+104 6 -102 6 *
Ve
2e-07
-72 1098.1 596.9
0 0

0101101
*
Ed
 2e-07 1 1 0
1  5 0 0 47.9000000000001
2  9 1 8 0 47.9000000000001
2  10 6 0 0 47.9000000000001
0

0101000
+100 9 -102 9 *
Ed
 1e-07 1 1 0
1  6 0 0 18
2  11 1 0 0 18
2  12 7 0 0 18
0

0101000
+109 6 -100 6 *
Wi

0101100
-107 0 +105 0 +103 0 -101 0 +99 7 +98 0 *
Fa
0  1e-07 1 0

0111000
+97 0 *
Ve
1.5e-07
-90 1054.1 1320.8
0 0

0101101
*
Ed
 1.5e-07 1 1 0
1  7 0 0 725.235968495772
2  13 2 0 0 725.235968495772
2  14 7 0 0 725.235968495772
0

0101000
+95 6 -109 6 *
Ve
1.5e-07
-90 1302.1 1320.8
0 0

0101101
*
Ed
 1.5e-07 1 1 0
1  8 0 6 254
2  15 2 0 6 254
2  16 8 0 6 254
0

0101000
+93 6 -95 6 *
Ed
 1.5e-07 1 1 0
1  9 0 0.5 724.4
2  17 2 0 0.5 724.4
2  18 3 0 0.5 724.4
0

0101000
+108 6 -93 6 *
Wi

0101100
+94 0 +92 0 +91 0 +107 0 *
Fa
0  1e-07 2 0

0111000
+90 0 *
Ve
2.00000455e-07
-78 1302.1 1320.8
0 0

0101101
*
Ed
 1.5e-07 1 1 0
1  10 0 -12.5 -0.5
2  19 3 0 -12.5 -0.5
2  20 8 0 -12.5 -0.5
0

0101000
+88 6 -93 6 *
Ve
2e-07
-78 1302.1 1302.8
0 0

0101101
*
Ed
 2e-07 1 1 0
1  11 0 -190.475 -172.475
2  21 3 0 -190.475 -172.475
2  22 9 10 -190.475 -172.475
0

0101000
+88 6 -86 6 *
Ve
2e-07
-72 1302.1 1302.8
0 0

0101101
*
Ed
 2e-07 1 1 0
1  12 0 -1.32031816768577 4.67968183231426
2  23 3 0 -1.32031816768577 4.67968183231426
2  24 10 0 -1.32031816768577 4.67968183231426
0

0101000
+86 6 -84 6 *
Ve
2e-07
-72 1302.1 614.9
0 0

0101101
*
Ed
 2e-07 1 1 0
1  13 0 -339.787776231733 348.112223768267
2  25 3 0 -339.787776231733 348.112223768267
2  26 6 7 -339.787776231733 348.112223768267
0

0101000
+84 6 -82 6 *
Ve
2e-07
-78 1302.1 614.9
0 0

0101101
*
Ed
 2e-07 1 1 0
1  14 0 -1.32031816768577 4.67968183231426
2  27 3 0 -1.32031816768577 4.67968183231426
2  28 11 0 -1.32031816768577 4.67968183231426
0

0101000
+80 6 -82 6 *
Ed
 2e-07 1 1 0
1  15 0 162.475 180.475
2  29 3 0 162.475 180.475
2  30 4 0 162.475 180.475
0

0101000
+80 6 -106 6 *
Wi

0101100
-105 0 -91 0 +87 0 -85 0 -83 0 -81 0 +79 0 -78 0 *
Fa
0  1.5e-07 3 0

0111000
+77 0 *
Ve
2e-07
-78 1146 614.9
0 0

0101101
*
Ed
 2e-07 1 1 0
1  16 0 0.5 156.599999999999
2  31 4 0 0.5 156.599999999999
2  32 11 0 0.5 156.599999999999
0

0101000
+75 6 -80 6 *
Ed
 2e-07 1 1 0
1  17 0 -18.5 -0.5
2  33 4 0 -18.5 -0.5
2  34 5 0 -18.5 -0.5
0

0101000
+75 6 -104 6 *
Wi

0101100
-74 0 -78 0 +103 0 +73 0 *
Fa
0  1e-07 4 0

0111000
+72 0 *
Ve
2e-07
-72 1146 614.9
0 0

0101101
*
Ed
 2e-07 1 1 0
1  18 0 -185.137223768267 -167.137223768267
2  35 5 0 -185.137223768267 -167.137223768267
2  36 6 7 -185.137223768267 -167.137223768267
0

0101000
+102 6 -70 6 *
Ed
 1e-07 1 1 0
1  19 0 12 18
2  37 5 0 12 18
2  38 11 0 12 18
0

0101000
+75 6 -70 6 *
Wi

0101100
-101 0 -69 0 +68 0 -73 0 *
Fa
0  1e-07 5 0

0111000
+67 0 *
Ed
 2e-07 1 1 0
1  20 0 -133.216996061971 22.8830039380284
2  39 6 7 -133.216996061971 22.8830039380284
2  40 11 0 -133.216996061971 22.8830039380284
0

0101000
+82 6 -70 6 *
Ve
2e-07
-72 1055.19407376709 1302.8
0 0

0101101
*
Ed
 2e-07 1 1 0
1  21 0 18.0332192746566 725.235968495772
2  41 6 0 18.0332192746566 725.235968495772
2  42 7 8 18.0332192746566 725.235968495772
0

0101000
+64 9 -100 9 *
Ve
2e-07
-72 1112 1302.8
0 0

0101101
*
Ed
 2e-07 1 1 0
1  22 0 11.4800408215758 68.285967054481
2  43 6 7 11.4800408215758 68.285967054481
2  44 12 0 11.4800408215758 68.285967054481
0

0101000
+62 6 -64 6 *
Ve
2e-07
-72 1112 840
0 0

0101101
*
Ed
 2e-07 1 1 0
1  23 0 0 462.8
2  45 6 11 0 462.8
2  46 13 0 0 462.8
0

0101000
+60 12 -62 12 *
Ve
2e-07
-72 1120 840
0 0

0101101
*
Ed
 2e-07 1 1 0
1  24 0 0 8
2  47 6 11 0 8
2  48 14 0 0 8
0

0101000
+60 12 -58 12 *
Ve
2e-07
-72 1120 1302.8
0 0

0101101
*
Ed
 2e-07 1 1 0
1  25 0 0 462.8
2  49 6 11 0 462.8
2  50 15 0 0 462.8
0

0101000
+58 12 -56 12 *
Ed
 2e-07 1 1 0
1  26 0 -178.619959178424 3.48004082157581
2  51 6 7 -178.619959178424 3.48004082157581
2  52 10 0 -178.619959178424 3.48004082157581
0

0101000
+84 6 -56 6 *
Wi

0101100
-81 5 -65 5 +69 5 +99 11 +63 11 +61 5 +59 0 -57 0 -55 0 +54 5 
*
Fa
0  1e-07 6 11

0111000
+53 0 *
Ve
1.5e-07
-72 1054.1 1320.8
0 0

0101101
*
Ed
 1e-07 1 1 0
1  27 0 0 18
2  53 7 0 0 18
2  54 8 0 0 18
0

0101000
+95 6 -51 6 *
Ed
 1.5e-07 1 1 0
1  28 0 0 18.0332192746566
2  55 7 8 0 18.0332192746566
2  56 16 0 0 18.0332192746566
0

0101000
+51 9 -64 9 *
Wi

0101100
+50 0 -94 0 +49 7 -98 0 +63 7 *
Ve
2e-07
-78 1055.19407376709 1302.8
0 0

0101101
*
Ed
 1e-07 1 1 0
1  29 0 12 18
2  57 7 0 12 18
2  58 12 0 12 18
2  59 17 0 12 18
0

0101000
+47 6 -64 6 *
Wi

0101000
i46 0 *
Fa
0  1e-07 7 0

0111000
+48 0 +45 0 *
Ve
1.50000028e-07
-72 1055.19407376709 1320.8
0 0

0101101
*
Ed
 1.5e-07 1 1 0
1  30 0 252.905926232905 254
2  60 8 8 252.905926232905 254
2  61 16 0 252.905926232905 254
0

0101000
+43 9 -51 9 *
Ve
2e-07
-78 1055.19407376709 1320.8
0 0

0101101
*
Ed
 1e-07 1 1 0
1  31 0 12 18
2  62 8 0 12 18
2  63 17 0 12 18
0

0101000
+41 6 -43 6 *
Ed
 2e-07 1 1 0
1  32 0 0.5 247.405926232905
2  64 8 5 0.5 247.405926232905
2  65 9 0 0.5 247.405926232905
0

0101000
+41 12 -88 12 *
Wi

0101000
-92 5 -50 5 +42 11 +40 5 -39 0 -87 5 *
Fa
0  1e-07 8 5

0111000
+38 0 *
Ve
2e-07
-78 1120 1302.8
0 0

0101101
*
Ed
 1.5e-07 1 1 0
1  33 0 -12 -6
2  66 10 5 -12 -6
2  67 15 0 -12 -6
0

0101000
+56 12 -36 12 *
Ed
 2e-07 1 1 0
1  34 0 65.3059262329052 247.405926232905
2  68 10 0 65.3059262329052 247.405926232905
2  69 9 10 65.3059262329052 247.405926232905
0

0101000
+36 6 -86 6 *
Wi

0101100
-83 5 -54 5 -35 0 -34 5 *
Fa
0  1e-07 10 5

0111000
+33 0 *
Wi

0101100
-79 0 -65 0 +68 0 -74 0 *
Fa
0  1e-07 11 0

0111000
+31 0 *
Ve
2e-07
-78 1112 1302.8
0 0

0101101
*
Ed
 1.5e-07 1 1 0
1  35 0 -12 -6
2  70 12 5 -12 -6
2  71 13 0 -12 -6
0

0101000
+62 12 -29 12 *
Ed
 2e-07 1 1 0
1  36 0 0.5 57.3059262329052
2  72 12 0 0.5 57.3059262329052
2  73 9 10 0.5 57.3059262329052
0

0101000
+47 6 -29 6 *
Wi

0101100
+28 0 -61 5 +46 5 -27 5 *
Fa
0  1e-07 12 5

0111000
+26 0 *
Ve
2e-07
-78 1112 840
0 0

0101101
*
Ed
 1e-07 1 1 0
1  37 0 0 6
2  74 13 0 0 6
2  75 14 0 0 6
0

0101000
+24 12 -60 12 *
Ed
 2e-07 1 1 0
1  38 0 0 462.8
2  76 13 0 0 462.8
2  77 9 0 0 462.8
0

0101000
+24 12 -29 12 *
Wi

0101100
-23 0 -59 0 -28 0 +22 0 *
Fa
0  1e-07 13 0

0111000
+21 0 *
Ve
2e-07
-78 1120 840
0 0

0101101
*
Ed
 2e-07 1 1 0
1  39 0 0 8
2  78 14 0 0 8
2  79 9 0 0 8
0

0101000
-19 12 +24 12 *
Ed
 1e-07 1 1 0
1  40 0 0 6
2  80 14 0 0 6
2  81 15 0 0 6
0

0101000
+19 12 -58 12 *
Wi

0101100
-18 0 -17 0 +57 0 +23 0 *
Fa
0  1e-07 14 0

0111000
+16 0 *
Ed
 2e-07 1 1 0
1  41 0 0 462.8
2  82 15 0 0 462.8
2  83 9 0 0 462.8
0

0101000
+19 12 -36 12 *
Wi

0101100
-17 0 -55 0 -35 0 +14 0 *
Fa
0  1e-07 15 0

0111000
+13 0 *
Ed
 1.5e-07 1 1 0
1  42 0 167.812776231733 185.812776231733
2  84 16 7 167.812776231733 185.812776231733
2  85 17 0 167.812776231733 185.812776231733
0

0101000
+64 6 -43 6 *
Wi

0101100
+42 7 +11 0 +49 7 *
Fa
0  1e-07 16 7

0111000
+10 0 *
Ed
 2e-07 1 1 0
1  43 0 -18.5 -0.5
2  86 17 0 -18.5 -0.5
2  87 9 10 -18.5 -0.5
0

0101000
+41 6 -47 6 *
Wi

0101100
-46 0 -11 0 +40 0 -8 0 *
Fa
0  1e-07 17 0

0111000
+7 0 *
Wi

0101100
-39 0 +8 5 +27 5 -22 0 +18 0 +14 0 +34 5 -85 5 *
Fa
0  2e-07 9 0

0111000
+5 0 *
Sh

0101000
-96 5 -89 5 -76 5 +71 5 +66 5 +52 0 -44 5 -37 0 +32 0 -30 5 
+25 0 +20 0 +15 0 -12 0 +9 5 +6 5 +4 0 *
So

0100000
+3 0 *
Co

1100000
+2 0 *

+1 4 