DBRep_DrawableShape

CASCADE Topology V1, (c) Matra-Datavision
Locations 8
1
              1               0               0               0 
              0               1               0               0 
              0               0               1              -1 
1
              1               0               0               0 
              0               1               0               0 
              0               0               1               0 
1
              1               0               0               0 
              0               1               0               0 
              0               0               1               0 
1
1.11022302462516e-16               0               1               0 
              0               1               0               0 
             -1               0 1.11022302462516e-16               0 
1
              1               0               0          -596.9 
              0               1               0         -1054.1 
              0               0               1 -72.0000000000001 
1
              1               0               0               0 
              0               1               0               0 
              0               0               1             -18 
1
              1               0               0               0 
              0               1               0               0 
              0               0               1               1 
2  2 1 3 1 4 1 5 1 6 1 7 1 0
Curve2ds 4
1 353.62555246346574 137.66600787605694 -0.9981578843937613 -0.060669908707453382 
1 353.62555246346574 -116.33399212394306 0 1 
1 -370.77444753653424 -110.33399212394306 1 0 
1 -370.27444753653424 93.666007876056938 0 -1 
Curves 4
1 723.89999999999998 0 1.0000000000000568 -0.9981578843937613 0.060669908707453382 -1.108177865465089e-16 
1 723.89999999999998 254 1.0000000000000568 0 -1 0 
1 -0.5 248 0.99999999999998579 1 0 1.1102230246251565e-16 
1 0 44 0.99999999999998579 0 1 0 
Polygon3D 0
PolygonOnTriangulations 0
Surfaces 1
1 -89.999999999999972 1191.7660078760568 967.17444753653422 1 0 0 -0 0 1 0 -1 0 
Triangulations 0

TShapes 9
Ve
2.00000455793541e-07
723.9 0 1.00000000000004
0 0

0101101
*
Ve
2.00000455793541e-07
0 44 0.999999999999986
0 0

0101101
*
Ed
 1e-07 1 1 0
1  1 0 0 725.235968495772
2  1 1 8 0 725.235968495772
0

0101000
+9 0 -8 0 *
Ve
2.00000465341459e-07
723.9 248 1.00000000000004
0 0

0101101
*
Ed
 1e-07 1 1 0
1  2 0 6 254
2  2 1 8 6 254
0

0101000
+6 0 -9 0 *
Ve
2.00000455793541e-07
0 248 1
0 0

0101101
*
Ed
 1e-07 1 1 0
1  3 0 0.5 724.4
2  3 1 8 0.5 724.4
0

0101000
+4 0 -6 0 *
Ed
 1e-07 1 1 0
1  4 0 0 204
2  4 1 8 0 204
0

0101000
+8 0 -4 0 *
Wi

0101100
-7 0 -5 0 -3 0 -2 0 *

+1 1 