DBRep_DrawableShape

CASCADE Topology V1, (c) Matra-Datavision
Locations 0
Curve2ds 0
Curves 14
1 18 69.380040821575903 0 0 -1 -0 
1 480.80000000000007 65.900000000000091 0 -1 0 0 
2 478.80000000000007 63.900000000000091 0 0 0 -1 -1 0 0 0 1 0 2
1 480.80000000000007 57.900000000000091 0 0 1 0 
2 478.80000000000007 59.900000000000091 0 -0 0 -1 0 1 0 1 0 -0 2
1 480.80000000000007 57.900000000000091 0 -1 0 0 
1 18 69.380040821575903 0 0 -1 -0 
2 16 3.0940737670948693 0 0 0 -1 0 1 0 1 -0 0 2
1 185.81277623173287 1.0940737670948693 0 -1 0 0 
2 2 3.0940737670948693 0 0 -0 -1 1 0 0 0 -1 0 2
1 0 254 0 0 -1 -0 
2 2 246 0 -0 0 -1 0 -1 -0 -1 -0 0 2
1 724.40000000000009 248 0 -1 0 0 
2 16 246 0 0 0 -1 -1 0 0 0 1 0 2
Polygon3D 0
PolygonOnTriangulations 0
Surfaces 1
1 163.77099256469899 84.29027802400357 0 0 0 1 1 0 -0 -0 1 0 
Triangulations 0

TShapes 31
Ve
2.00000533672218e-07
18 246 0
0 0

0101101
*
Ve
2.00000580790083e-07
18 65.9000000000001 0
0 0

0101101
*
Ed
 2.00000533672218e-07 1 1 0
1  1 0 -176.619959178424 3.48004082157581
0

0101000
+31 0 -30 0 *
Ve
2.00000580790083e-07
478.8 65.9000000000001 0
0 0

0101101
*
Ed
 2.00000580790083e-07 1 1 0
1  2 0 2 462.8
0

0101000
+28 0 -30 0 *
Ve
2.00000533672218e-07
480.8 63.9000000000001 0
0 0

0101101
*
Ed
 2.00000486572856e-07 1 1 0
1  3 0 1.5707963267949 3.14159265358979
0

0101000
+28 0 -26 0 *
Ve
2.00000533672218e-07
480.8 59.9000000000001 0
0 0

0101101
*
Ed
 2.00000533672218e-07 1 1 0
1  4 0 2 6
0

0101000
+24 0 -26 0 *
Ve
2.00000580790083e-07
478.8 57.9000000000001 0
0 0

0101101
*
Ed
 2.00000486572856e-07 1 1 0
1  5 0 1.5707963267949 3.14159265358979
0

0101000
+24 0 -22 0 *
Ve
2.00000580790083e-07
18 57.9000000000001 0
0 0

0101101
*
Ed
 2.00000580790083e-07 1 1 0
1  6 0 2 462.8
0

0101000
+22 0 -20 0 *
Ve
2.00000533672218e-07
18 3.09407376709487 0
0 0

0101101
*
Ed
 2.00000533672218e-07 1 1 0
1  7 0 11.4800408215758 66.285967054481
0

0101000
+20 0 -18 0 *
Ve
2.00000553950009e-07
16 1.09407376709487 0
0 0

0101101
*
Ed
 2.00000486572856e-07 1 1 0
1  8 0 1.5707963267949 3.14159265358979
0

0101000
+18 0 -16 0 *
Ve
2.00000554079535e-07
2 1.09407376709487 0
0 0

0101101
*
Ed
 2.00000553950009e-07 1 1 0
1  9 0 169.812776231733 183.812776231733
0

0101000
+16 0 -14 0 *
Ve
2.00000547438983e-07
0 3.09407376709488 0
0 0

0101101
*
Ed
 2.00000486572856e-07 1 1 0
1  10 0 1.5707963267949 3.1415926535898
0

0101000
+14 0 -12 0 *
Ve
2.00000533672218e-07
0 246 0
0 0

0101101
*
Ed
 2.00000533672218e-07 1 1 0
1  11 0 8 250.905926232905
0

0101000
+10 0 -12 0 *
Ve
2.00000613875036e-07
2 248 0
0 0

0101101
*
Ed
 2.00000486572856e-07 1 1 0
1  12 0 1.5707963267949 3.14159265358979
0

0101000
+10 0 -8 0 *
Ve
2.00000613745203e-07
16 248 0
0 0

0101101
*
Ed
 2.00000613745203e-07 1 1 0
1  13 0 708.4 722.4
0

0101000
+6 0 -8 0 *
Ed
 2.00000486572856e-07 1 1 0
1  14 0 1.5707963267949 3.14159265358979
0

0101000
+6 0 -31 0 *
Wi

0101100
+29 0 -27 0 +25 0 -23 0 +21 0 +19 0 +17 0 +15 0 +13 0 +11 0 
-9 0 +7 0 -5 0 +4 0 *
Fa
0  1e-07 1 0

0101000
-3 0 *
Sh

1101000
+2 0 *

+1 0 