DBRep_DrawableShape

CASCADE Topology V1, (c) Matra-Datavision
Locations 1
1
              1               0               0               0 
              0               1               0               0 
              0               0               1              -1 
Curve2ds 4
1 370.82699157972434 113.33399212394315 -1 0 
1 -353.57300842027576 119.33399212394315 0 -1 
1 -353.57300842027576 -134.66600787605685 0.9981578843937613 0.060669908707453382 
1 370.32699157972434 -90.666007876056852 0 1 
Curves 4
1 724.40000000000009 248 1 -1 0 1.1102230246251565e-16 
1 0 254 1 0 -1 0 
1 0 0 1 0.9981578843937613 0.060669908707453382 -1.108177865465089e-16 
1 723.90000000000009 44 1 0 1 0 
Polygon3D 0
PolygonOnTriangulations 0
Surfaces 1
1 353.57300842027576 134.66600787605685 1 0 0 1 1 0 -0 -0 1 0 
Triangulations 0

TShapes 9
Ve
2.00000486572856e-07
723.9 248 1
0 0

0101101
*
Ve
2.00000524431461e-07
0 248 0.999999999999924
0 0

0101101
*
Ed
 1e-07 1 1 0
1  1 0 0.5 724.4
2  1 1 0 0.5 724.4
0

0101000
+9 0 -8 0 *
Ve
2.00000486572856e-07
0 0 1
0 0

0101101
*
Ed
 1e-07 1 1 0
1  2 0 6 254
2  2 1 0 6 254
0

0101000
+8 0 -6 0 *
Ve
2.00000486572856e-07
723.9 44 1
0 0

0101101
*
Ed
 1e-07 1 1 0
1  3 0 0 725.235968495772
2  3 1 0 0 725.235968495772
0

0101000
+6 0 -4 0 *
Ed
 1e-07 1 1 0
1  4 0 0 204
2  4 1 0 0 204
0

0101000
+4 0 -9 0 *
Wi

0101100
+7 0 +5 0 +3 0 +2 0 *

+1 1 