DBRep_DrawableShape

CASCADE Topology V1, (c) Matra-Datavision
Locations 0
Curve2ds 0
Curves 4
1 724.40000000000009 248 0 -1 0 0 
1 0 254 0 0 -1 -0 
1 0 0 0 0.9981578843937613 0.060669908707453382 0 
1 723.90000000000009 44 0 0 1 0 
Polygon3D 0
PolygonOnTriangulations 0
Surfaces 0
Triangulations 0

TShapes 9
Ve
1e-07
723.9 248 0
0 0

0101101
*
Ve
1e-07
0 248 0
0 0

0101101
*
Ed
 1e-07 1 1 0
1  1 0 0.5 724.4
0

0101000
+9 0 -8 0 *
Ve
1e-07
0 0 0
0 0

0101101
*
Ed
 1e-07 1 1 0
1  2 0 6 254
0

0101000
+8 0 -6 0 *
Ve
1e-07
723.9 44 0
0 0

0101101
*
Ed
 1e-07 1 1 0
1  3 0 -0 725.235968495772
0

0101000
+6 0 -4 0 *
Ed
 1e-07 1 1 0
1  4 0 0 204
0

0101000
+4 0 -9 0 *
Wi

0101100
+7 0 +5 0 +3 0 +2 0 *

+1 0 