DBRep_DrawableShape

CASCADE Topology V1, (c) Matra-Datavision
Locations 12
1
              1               0               0               0 
              0               1               0               0 
              0               0               1               0 
1
1.11022302462516e-16               0              -1               0 
              0               1               0               0 
              1               0 1.11022302462516e-16               0 
1
              1               0               0          1320.8 
              0               1               0         -1054.1 
              0               0               1            -672 
2  1 1 2 1 3 1 0
1
              1               0               0               0 
              0               1               0               0 
              0               0               1               0 
2  1 -1 5 -1 0
1
              1               0               0              18 
              0               1               0               0 
              0               0               1               0 
2  7 -1 0
2  1 -1 5 -1 7 -1 0
2  1 -1 0
2  5 -1 0
2  7 1 5 1 0
Curve2ds 87
1 0 0 1 0 
1 -370.27444753653424 93.666007876056938 0 -1 
1 47.900000000000091 762 0 -1 
1 0 0 0 1 
1 47.400000000000091 -6 1 0 
8 0.5 162.59999999999991
1 1 -0.5 0 -1 
1 204 56.5 0 1 
1 361.9499999999997 -47.859363664628404 0 -1 
1 0 -18 1 0 
1 -370.27444753653424 93.666007876056938 0 -1 
1 0 0 0 -1 
1 725.23596849577177 0 0 -1 
8 -339.78777623173301 366.11222376826697
1 -4.1622237682672676 -110.33399212394261 -1 0 
8 -339.78777623173301 366.11222376826697
1 -4.1622237682672676 8.640636335371596 1 0 
8 -139.21699606197149 22.883003938028423
1 -352.27444753653424 22.883003938028423 0 1 
8 -139.21699606197149 22.883003938028423
1 762 22.883003938028423 0 -1 
8 -185.13722376826706 -167.13722376826706
1 -185.13722376826718 45.766007876056847 1 0 
8 -185.13722376826706 -167.13722376826706
1 185.13722376826706 762 1 0 
1 353.62555246346574 137.66600787605694 -0.9981578843937613 -0.060669908707453382 
1 0 0 1 0 
8 -184.6199591784241 68.285967054481034
1 335.62555246346574 68.285967054481034 0 1 
8 -184.6199591784241 68.285967054481034
1 762 68.285967054481034 0 -1 
1 -127.17444753653422 79.766007876056847 1 0 
1 0 0 1 0 
1 -127.17444753653422 79.766007876056847 0 -1 
1 0 0 0 1 
1 -127.17444753653422 71.766007876056847 1 0 
1 0 0 1 0 
8 -184.6199591784241 68.285967054481034
1 335.62555246346574 68.285967054481034 0 1 
8 -184.6199591784241 68.285967054481034
1 762 68.285967054481034 0 -1 
8 -18.5 -0.5
1 -0.5 768 -1 0 
8 -18.5 -0.5
1 0.5 -1 -1 -0 
1 18 0 0 1 
1 0 0 1 0 
8 0.5 162.59999999999991
1 19 -0.5 0 -1 
8 0.5 162.59999999999991
1 768 -0.5 0 1 
8 162.4749999999998 180.4749999999998
1 181.4749999999998 -157.09999999999945 -1 -0 
8 162.4749999999998 180.4749999999998
1 181.47499999999991 14.640636335371596 1 -0 
1 -361.95000000000027 -103.8593636646284 0 -1 
1 6 112.5 0 1 
1 362.4499999999997 26.640636335371596 -1 0 
1 -370.77444753653424 -110.33399212394306 1 0 
8 385.3203181676858 391.3203181676858
1 343.9499999999997 -376.6796818323142 0 1 
8 385.3203181676858 391.3203181676858
1 376.6796818323142 156.09999999999945 1 0 
8 385.3203181676858 391.3203181676858
1 -343.95000000000027 -376.6796818323142 0 1 
8 385.3203181676858 391.3203181676858
1 376.6796818323142 246.90592623290468 1 0 
8 -190.47500000000014 -172.47500000000014
1 -171.47500000000014 14.640636335371596 1 -0 
1 26.043642465886705 -163.29467337954316 1 0 
1 353.62555246346574 137.66600787605694 -0.9981578843937613 -0.060669908707453382 
1 0 -18 1 0 
1 353.62555246346574 -116.33399212394306 0 1 
1 0 -18 1 0 
1 0 0 0 -1 
1 254 0 0 -1 
1 0 0 1 0 
1 353.62555246346574 137.66600787605694 -0.9981578843937613 -0.060669908707453382 
1 18.033219274656567 762 0 -1 
1 0 0 1 0 
1 0 0 0 1 
8 -387 -381
1 381 56.805926232905222 -1 0 
8 -387 -381
1 462.79999999999995 -381 0 -1 
8 0.5 253.40592623290513
1 768 -0.5 0 1 
1 -146.43135753411343 84.11125285336152 0 -1 
1 0 0 0 1 
1 0 0 1 0 
1 0 6 1 0 
1 316.36864246588652 26.805326620456299 -1 0 
1 0 8 1 0 
1 0 0 0 1 
1 6 0 0 1 
1 316.36864246588652 26.805326620456299 0 -1 
1 0 6 1 0 
1 316.36864246588652 18.805326620456299 -1 0 
8 -387 -381
1 462.79999999999995 -381 0 -1 
8 -387 -381
1 381 64.805926232905222 -1 0 
8 0.5 253.40592623290513
1 768 -0.5 0 1 
1 -146.43135753411343 84.11125285336152 0 -1 
1 252.90592623290513 762 0 -1 
1 18 0 0 1 
1 0 -0 1 0 
1 353.62555246346574 -116.33399212394306 0 1 
1 253.40592623290513 -6 -1 0 
1 -164.43135753411343 84.11125285336152 0 -1 
8 167.81277623173287 185.81277623173287
1 167.81277623173287 136.57193410896207 1 0 
8 167.81277623173287 185.81277623173287
1 -167.81277623173287 762 1 0 
8 -18.5 -0.5
1 -0.5 768 -1 0 
1 -145.93135753411343 83.61125285336152 1 0 
Curves 43
1 672 1098.0999999999999 596.89999999999998 0 1 0 
1 -90 1146 596.89999999999998 1 0 -0 
1 678 1145.5 596.89999999999998 -0 1 0 
1 615.5 1302.0999999999999 596.89999999999998 -1 -0 0 
1 672 1098.0999999999999 596.89999999999998 0 1 0 
1 672 1098.0999999999999 596.89999999999998 1 0 0 
1 672 1302.0999999999995 963.01222376826695 0 0 -1 
1 672 1168.8830039380284 614.89999999999998 0 -1 0 
1 672 1146 782.03722376826704 0 -0 1 
1 672 1054.0999999999999 1320.8 0 0.060669908707453382 -0.9981578843937613 
1 672 1123.4800408215758 1302.8 0 -1 0 
1 672 1112 840 0 0 1 
1 672 1112 840 -0 1 0 
1 672 1120 840 0 0 1 
1 672 1123.4800408215758 1302.8 0 -1 0 
1 678 1146 596.39999999999998 -0 0 -1 
1 -90 1146 614.89999999999998 1 0 -0 
1 678 1145.5 614.89999999999998 -0 1 0 
1 678 1302.0999999999995 777.37499999999977 -0 0 -1 
1 559.5 1302.0999999999999 1320.8 -1 -0 0 
1 690 1302.0999999999999 596.39999999999998 0 0 1 
1 286.6796818323142 1302.0999999999995 614.89999999999998 1 0 0 
1 286.6796818323142 1302.0999999999995 1302.8 1 0 0 
1 678 1302.0999999999995 1130.3249999999998 -0 0 -1 
1 672 1054.0999999999999 1320.8 0 0.060669908707453382 -0.9981578843937613 
1 672 1308.0999999999999 1320.8 0 -1 0 
1 672 1054.0999999999999 1320.8 1 0 0 
1 672 1054.0999999999999 1320.8 0 0.060669908707453382 -0.9981578843937613 
1 -90 1055.1940737670948 1302.8 1 0 -0 
1 291 1112 1302.8 -1 -0 0 
1 678 1054.6940737670948 1302.8 -0 1 0 
1 672 1112 840 1 0 -0 
1 678 1112 840 0 0 1 
1 672 1120 840 1 0 -0 
1 678 1112 840 -0 1 0 
1 678 1120 840 0 0 1 
1 291 1120 1302.8 -1 -0 0 
1 678 1054.6940737670948 1302.8 -0 1 0 
1 -90 1055.1940737670948 1320.8 1 0 -0 
1 672 1308.0999999999999 1320.8 0 -1 0 
1 678 1054.6940737670948 1320.8 0 1 0 
1 672 1055.1940737670948 1134.9872237682671 0 -0 1 
1 678 1055.1940737670948 1302.3 -0 0 -1 
Polygon3D 0
PolygonOnTriangulations 0
Surfaces 17
1 672 1098.0999999999999 596.89999999999998 0 0 1 0 1 0 -1 0 0 
1 672 1191.7660078760568 967.17444753653422 1 0 0 -0 0 1 0 -1 0 
1 -90 1146 596.89999999999998 -0 1 0 0 0 1 1 0 -0 
1 678 1145 595.89999999999998 1 0 -0 0 0 1 0 -1 0 
1 663.3593636646284 1302.0999999999995 958.84999999999968 -0 -1 -0 0 0 -1 1 -0 0 
1 672 1191.7660078760568 967.17444753653422 1 0 0 -0 0 1 0 -1 0 
1 672 1054.0999999999999 1320.8 -0 0.9981578843937613 0.060669908707453382 0 0.060669908707453382 -0.9981578843937613 -1 0 -0 
1 -90 1146 614.89999999999998 0 0 1 1 0 -0 -0 1 0 
1 -90 1055.1940737670948 1302.8 0 0 1 1 0 -0 -0 1 0 
1 672 1112 840 -0 1 0 0 0 1 1 0 -0 
1 672 1112 840 0 0 1 1 0 -0 -0 1 0 
1 672 1120 840 -0 1 0 0 0 1 1 0 -0 
1 -90 1055.1940737670948 1302.8 0 0 1 1 0 -0 -0 1 0 
1 672 1308.0999999999999 1320.8 0 0 -1 0 -1 0 -1 -0 -0 
1 678.00000000000011 1138.8053266204563 1156.3686424658865 -1 -0 -0 0 0 -1 0 -1 0 
1 672 1191.7660078760568 967.17444753653422 1 0 0 -0 0 1 0 -1 0 
1 -90 1055.1940737670948 1302.8 -0 1 0 0 0 1 1 0 -0 
Triangulations 0

TShapes 109
Ve
2e-07
672 1098.1 596.9
0 0

0101101
*
Ve
2e-07
672 1146 596.9
0 0

0101101
*
Ed
 2e-07 1 1 0
1  1 0 0 47.9000000000001
2  1 1 0 0 47.9000000000001
2  2 2 0 0 47.9000000000001
0

0101000
+109 6 -108 6 *
Ve
2e-07
678 1146 596.9
0 0

0101101
*
Ed
 1e-07 1 1 0
1  2 0 762 768
2  3 1 0 762 768
2  4 3 0 762 768
0

0101000
+108 6 -106 6 *
Ve
2.00000455e-07
678 1302.1 596.9
0 0

0101101
*
Ed
 2e-07 1 1 0
1  3 0 0.5 156.6
2  5 1 0 0.5 156.6
2  6 4 0 0.5 156.6
0

0101000
+106 6 -104 6 *
Ve
1.5e-07
690 1302.1 596.9
0 0

0101101
*
Ed
 1.5e-07 1 1 0
1  4 0 -74.5 -62.5
2  7 1 0 -74.5 -62.5
2  8 5 0 -74.5 -62.5
0

0101000
+102 6 -104 6 *
Ve
1.5e-07
690 1098.1 596.9
0 0

0101101
*
Ed
 1.5e-07 1 1 0
1  5 0 0 204
2  9 1 8 0 204
2  10 6 0 0 204
0

0101000
+100 9 -102 9 *
Ed
 1e-07 1 1 0
1  6 0 0 18
2  11 1 0 0 18
2  12 7 0 0 18
0

0101000
+109 6 -100 6 *
Wi

0101100
-107 0 -105 0 -103 0 +101 0 +99 7 +98 0 *
Fa
0  1e-07 1 0

0111000
+97 0 *
Ve
2e-07
672 1302.1 1302.8
0 0

0101101
*
Ve
2e-07
672 1302.1 614.9
0 0

0101101
*
Ed
 2e-07 1 1 0
1  7 0 -339.787776231733 348.112223768267
2  13 2 0 -339.787776231733 348.112223768267
2  14 5 0 -339.787776231733 348.112223768267
0

0101000
+95 6 -94 6 *
Ve
2e-07
672 1146 614.9
0 0

0101101
*
Ed
 2e-07 1 1 0
1  8 0 -133.216996061971 22.8830039380284
2  15 2 0 -133.216996061971 22.8830039380284
2  16 8 0 -133.216996061971 22.8830039380284
0

0101000
+94 6 -92 6 *
Ed
 2e-07 1 1 0
1  9 0 -185.137223768267 -167.137223768267
2  17 2 0 -185.137223768267 -167.137223768267
2  18 3 0 -185.137223768267 -167.137223768267
0

0101000
+108 6 -92 6 *
Ve
2e-07
672 1055.19407376709 1302.8
0 0

0101101
*
Ed
 2e-07 1 1 0
1  10 0 18.0332192746566 725.235968495772
2  19 2 0 18.0332192746566 725.235968495772
2  20 7 0 18.0332192746566 725.235968495772
0

0101000
+89 6 -109 6 *
Ve
2e-07
672 1112 1302.8
0 0

0101101
*
Ed
 2e-07 1 1 0
1  11 0 11.4800408215758 68.285967054481
2  21 2 0 11.4800408215758 68.285967054481
2  22 9 0 11.4800408215758 68.285967054481
0

0101000
+87 6 -89 6 *
Ve
2e-07
672 1112 840
0 0

0101101
*
Ed
 2e-07 1 1 0
1  12 0 0 462.8
2  23 2 5 0 462.8
2  24 10 0 0 462.8
0

0101000
+85 10 -87 10 *
Ve
2e-07
672 1120 840
0 0

0101101
*
Ed
 2e-07 1 1 0
1  13 0 0 8
2  25 2 5 0 8
2  26 11 0 0 8
0

0101000
+85 10 -83 10 *
Ve
2e-07
672 1120 1302.8
0 0

0101101
*
Ed
 2e-07 1 1 0
1  14 0 0 462.8
2  27 2 5 0 462.8
2  28 12 0 0 462.8
0

0101000
+83 10 -81 10 *
Ed
 2e-07 1 1 0
1  15 0 -178.619959178424 3.48004082157581
2  29 2 0 -178.619959178424 3.48004082157581
2  30 13 0 -178.619959178424 3.48004082157581
0

0101000
+95 6 -81 6 *
Wi

0101100
-93 5 -91 5 +90 5 +107 5 +88 5 +86 5 +84 0 -82 0 -80 0 +79 5 
*
Fa
0  1e-07 2 5

0111000
+78 0 *
Ve
2e-07
678 1146 614.9
0 0

0101101
*
Ed
 2e-07 1 1 0
1  16 0 -18.5 -0.5
2  31 3 0 -18.5 -0.5
2  32 4 0 -18.5 -0.5
0

0101000
+76 6 -106 6 *
Ed
 1e-07 1 1 0
1  17 0 762 768
2  33 3 0 762 768
2  34 8 0 762 768
0

0101000
+92 6 -76 6 *
Wi

0101100
-105 0 +75 0 +74 0 +90 0 *
Fa
0  1e-07 3 0

0111000
+73 0 *
Ve
2e-07
678 1302.1 614.9
0 0

0101101
*
Ed
 2e-07 1 1 0
1  18 0 0.5 156.599999999999
2  35 4 0 0.5 156.599999999999
2  36 8 0 0.5 156.599999999999
0

0101000
+76 6 -71 6 *
Ed
 2e-07 1 1 0
1  19 0 162.475 180.475
2  37 4 0 162.475 180.475
2  38 5 0 162.475 180.475
0

0101000
+71 6 -104 6 *
Wi

0101100
-70 0 -69 0 +103 0 +75 0 *
Fa
0  1e-07 4 0

0111000
+68 0 *
Ve
1.5e-07
690 1302.1 1320.8
0 0

0101101
*
Ve
2.00000455e-07
678 1302.1 1320.8
0 0

0101101
*
Ed
 1.5e-07 1 1 0
1  20 0 -130.5 -118.5
2  39 5 0 -130.5 -118.5
2  40 14 0 -130.5 -118.5
0

0101000
+66 6 -65 6 *
Ed
 1.5e-07 1 1 0
1  21 0 0.5 724.4
2  41 5 0 0.5 724.4
2  42 6 7 0.5 724.4
0

0101000
+102 6 -66 6 *
Ed
 2e-07 1 1 0
1  22 0 385.320318167686 391.320318167686
2  43 5 0 385.320318167686 391.320318167686
2  44 8 0 385.320318167686 391.320318167686
0

0101000
+94 6 -71 6 *
Ve
2e-07
678 1302.1 1302.8
0 0

0101101
*
Ed
 2e-07 1 1 0
1  23 0 385.320318167686 391.320318167686
2  45 5 0 385.320318167686 391.320318167686
2  46 13 0 385.320318167686 391.320318167686
0

0101000
+95 6 -61 6 *
Ed
 2e-07 1 1 0
1  24 0 -190.475 -172.475
2  47 5 0 -190.475 -172.475
2  48 15 11 -190.475 -172.475
0

0101000
+65 6 -61 6 *
Wi

0101100
+64 0 +63 0 -101 0 +69 0 +62 0 +93 0 -60 0 +59 0 *
Fa
0  1.5e-07 5 0

0111000
+58 0 *
Ve
1.5e-07
690 1054.1 1320.8
0 0

0101101
*
Ed
 1.5e-07 1 1 0
1  25 0 0 725.235968495772
2  49 6 0 0 725.235968495772
2  50 7 8 0 725.235968495772
0

0101000
+56 9 -100 9 *
Ed
 1.5e-07 1 1 0
1  26 0 6 254
2  51 6 0 6 254
2  52 14 8 6 254
0

0101000
+66 9 -56 9 *
Wi

0101100
+55 7 +54 7 +63 0 +99 7 *
Fa
0  1e-07 6 7

0111000
+53 0 *
Ve
1.5e-07
672 1054.1 1320.8
0 0

0101101
*
Ed
 1e-07 1 1 0
1  27 0 0 18
2  53 7 0 0 18
2  54 14 0 0 18
0

0101000
+51 6 -56 6 *
Ed
 1.5e-07 1 1 0
1  28 0 0 18.0332192746566
2  55 7 0 0 18.0332192746566
2  56 16 0 0 18.0332192746566
0

0101000
+51 6 -89 6 *
Wi

0101100
+50 0 -49 0 +55 7 -88 0 -98 0 *
Ve
2e-07
678 1055.19407376709 1302.8
0 0

0101101
*
Ed
 1e-07 1 1 0
1  29 0 762 768
2  57 7 0 762 768
2  58 9 0 762 768
2  59 17 0 762 768
0

0101000
+89 6 -47 6 *
Wi

0101000
i46 0 *
Fa
0  1e-07 7 0

0111000
+48 0 +45 0 *
Wi

0101100
-62 0 +70 0 +74 0 +91 0 *
Fa
0  1e-07 8 0

0111000
+43 0 *
Ve
2e-07
678 1112 1302.8
0 0

0101101
*
Ed
 1.5e-07 1 1 0
1  30 0 -387 -381
2  60 9 5 -387 -381
2  61 10 0 -387 -381
0

0101000
+41 10 -87 10 *
Ed
 2e-07 1 1 0
1  31 0 0.5 57.3059262329052
2  62 9 0 0.5 57.3059262329052
2  63 15 11 0.5 57.3059262329052
0

0101000
+47 6 -41 6 *
Wi

0101100
+40 0 +39 5 +46 5 +86 5 *
Fa
0  1e-07 9 5

0111000
+38 0 *
Ve
2e-07
678 1112 840
0 0

0101101
*
Ed
 1e-07 1 1 0
1  32 0 0 6
2  64 10 0 0 6
2  65 11 0 0 6
0

0101000
+85 10 -36 10 *
Ed
 2e-07 1 1 0
1  33 0 0 462.8
2  66 10 0 0 462.8
2  67 15 0 0 462.8
0

0101000
+36 10 -41 10 *
Wi

0101100
-35 0 -34 0 -40 0 +84 0 *
Fa
0  1e-07 10 0

0111000
+33 0 *
Ve
2e-07
678 1120 840
0 0

0101101
*
Ed
 1e-07 1 1 0
1  34 0 0 6
2  68 11 0 0 6
2  69 12 0 0 6
0

0101000
+83 10 -31 10 *
Ed
 2e-07 1 1 0
1  35 0 0 8
2  70 11 0 0 8
2  71 15 0 0 8
0

0101000
-31 10 +36 10 *
Wi

0101100
-82 0 -30 0 +29 0 +35 0 *
Fa
0  1e-07 11 0

0111000
+28 0 *
Ve
2e-07
678 1120 1302.8
0 0

0101101
*
Ed
 2e-07 1 1 0
1  36 0 0 462.8
2  72 12 0 0 462.8
2  73 15 0 0 462.8
0

0101000
+31 10 -26 10 *
Ed
 1.5e-07 1 1 0
1  37 0 -387 -381
2  74 12 0 -387 -381
2  75 13 5 -387 -381
0

0101000
+26 10 -81 10 *
Wi

0101100
-30 0 -25 0 -24 0 +80 0 *
Fa
0  1e-07 12 0

0111000
+23 0 *
Ed
 2e-07 1 1 0
1  38 0 65.3059262329052 247.405926232905
2  76 13 0 65.3059262329052 247.405926232905
2  77 15 11 65.3059262329052 247.405926232905
0

0101000
+26 6 -61 6 *
Wi

0101100
-60 5 +21 5 -24 0 +79 5 *
Fa
0  1e-07 13 5

0111000
+20 0 *
Ve
1.5e-07
672 1055.19407376709 1320.8
0 0

0101101
*
Ve
2e-07
678 1055.19407376709 1320.8
0 0

0101101
*
Ed
 1e-07 1 1 0
1  39 0 762 768
2  78 14 0 762 768
2  79 17 0 762 768
0

0101000
+18 6 -17 6 *
Ed
 1.5e-07 1 1 0
1  40 0 252.905926232905 254
2  80 14 0 252.905926232905 254
2  81 16 0 252.905926232905 254
0

0101000
+18 6 -51 6 *
Ed
 2e-07 1 1 0
1  41 0 0.5 247.405926232905
2  82 14 5 0.5 247.405926232905
2  83 15 0 0.5 247.405926232905
0

0101000
+17 10 -65 10 *
Wi

0101000
+16 5 -15 5 -50 5 +54 12 -64 5 +14 0 *
Fa
0  1e-07 14 5

0111000
+13 0 *
Ed
 1.5e-07 1 1 0
1  42 0 167.812776231733 185.812776231733
2  84 16 0 167.812776231733 185.812776231733
2  85 17 0 167.812776231733 185.812776231733
0

0101000
+89 6 -18 6 *
Wi

0101100
+15 0 +11 0 +49 0 *
Fa
0  1e-07 16 0

0111000
+10 0 *
Ed
 2e-07 1 1 0
1  43 0 -18.5 -0.5
2  86 17 0 -18.5 -0.5
2  87 15 11 -18.5 -0.5
0

0101000
+17 6 -47 6 *
Wi

0101100
-46 0 +8 0 +16 0 +11 0 *
Fa
0  1e-07 17 0

0111000
+7 0 *
Wi

0101100
+14 0 +59 5 -21 5 -25 0 -29 0 +34 0 -39 5 -8 5 *
Fa
0  2e-07 15 0

0111000
+5 0 *
Sh

0101000
-96 5 -77 0 +72 5 -67 5 -57 5 +52 5 -44 5 -42 5 +37 0 +32 0 
+27 0 -22 0 +19 0 -12 0 -9 5 +6 5 +4 0 *
So

0100000
+3 0 *
Co

1100000
+2 0 *

+1 4 