DBRep_DrawableShape

CASCADE Topology V1, (c) Matra-Datavision
Locations 9
1
              1               0               0               0 
              0               1               0               0 
              0               0               1              -1 
2  1 -1 0
1
              1               0               0               0 
              0               1               0               0 
              0               0               1               6 
2  3 -1 0
1
              1               0               0               0 
              0               1               0               0 
              0               0               1 6.00000000000006 
2  5 -1 0
1
              1               0               0               0 
              0               1               0               0 
              0               0               1              18 
2  1 1 7 1 0
2  7 -1 1 -1 0
Curve2ds 64
1 -0.5 0 1 0 
1 370.82699157972434 113.33399212394315 -1 0 
1 1.5707963267948966 0 0 -1 
1 3.1415926535895657 0 0 -1 
1 1.5707963267948966 0 0 -1 
1 3.1415926535897931 0 0 -1 
1 723.90000000000009 1.5625278848574454e-13 1.1102230246251565e-16 -1 
1 0 7.5828232581898192e-14 0 -1 
1 -0.499999999999998 -18 1 0 
1 370.82699157972434 113.33399212394315 -1 0 
1 -6.1629758220391547e-33 5.5511151231257827e-17 1.1102230246251565e-16 -1 
1 204 0 0 -1 
1 0 0 1 0 
1 370.32699157972434 -90.666007876056852 0 1 
1 0 0 1 0 
1 0 -6.0000000000000018 1 0 
1 3.1415926535897931 0 0 -1 
1 0 0 1 0 
1 0 -6.0000000000000018 1 0 
1 0 0 1 0 
1 0 -6.0000000000000018 1 0 
1 0 0 1 0 
1 0 -6.0000000000000018 1 0 
1 1.5707963267951239 0 0 -1 
1 0 -0 1 -2.4651903288156619e-32 
1 -353.57300842027576 -134.66600787605685 0.9981578843937613 0.060669908707453382 
1 -6 0 1 0 
1 -353.57300842027576 119.33399212394315 0 -1 
1 0 0 1 0 
1 0 -6.0000000000000568 1 0 
1 0 0 1 0 
1 0 -6.0000000000000568 1 0 
1 0 0 1 0 
1 0 -6.0000000000000568 1 0 
1 0 0 1 0 
1 0 -6.0000000000000568 1 0 
1 0 0 1 0 
1 0 -6.0000000000000568 1 0 
1 3.1415926535897931 0 0 -1 
1 0 0 1 0 
1 0 -6.0000000000000568 1 0 
1 1.5707963267948966 0 0 -1 
1 3.1415926535898002 0 0 -1 
1 248 0 0 -1 
1 0 -0 -1.1081778654650891e-16 -1 
1 -6 -18 1 0 
1 -353.57300842027576 119.33399212394315 0 -1 
1 -1.9947201578371605e-15 -18 1 -2.4651903288156619e-32 
1 -353.57300842027576 -134.66600787605685 0.9981578843937613 0.060669908707453382 
1 0 -18 1 0 
1 370.32699157972434 -90.666007876056852 0 1 
1 1.5707963267948966 0 0 -1 
1 725.23596849577189 -8.0369044752615105e-14 -1.1081778654650891e-16 -1 
1 0 0 0 -1 
1 3.1415926535897931 0 0 -1 
1 1.5707963267948966 0 0 -1 
1 3.1415926535898073 0 0 -1 
1 1.5707963267948966 0 0 -1 
1 3.1415926535897931 0 0 -1 
1 1.5707963267948966 0 0 -1 
1 3.1415926535897931 0 0 -1 
1 1.5707963267948966 0 0 -1 
1 3.1415926535897931 0 0 -1 
1 1.5707963267948966 0 0 -1 
Curves 56
1 724.40000000000009 248 1 -1 0 1.1102230246251565e-16 
1 721.90000000000009 248 0 0 0 1 
1 724.40000000000009 248 0 -1 0 0 
1 707.89999999999964 248 0 0 0 1 
1 16 248 0 0 0 1 
1 724.40000000000009 248 0 -1 0 0 
1 1.9999999999999998 248 0 0 0 1 
1 0 248 -7.5828232581898192e-14 0 0 1 
1 724.40000000000009 248 1 -1 0 1.1102230246251565e-16 
1 723.90000000000009 248 0 0 0 1 
1 723.90000000000009 44 1 0 1 0 
2 721.90000000000009 246 0 0 0 -1 -1 0 0 0 1 0 2
1 723.90000000000009 246 0 0 0 1 
1 723.90000000000009 44 0 0 1 0 
2 707.90000000000009 245.99999999999955 0 -0 0 -1 0 -1 -0 -1 -0 0 2
1 705.90000000000009 114.78300393802851 0 0 -1 -0 
2 707.90000000000009 93.900000000000091 0 0 -0 -1 1 0 0 0 -1 0 2
1 538.76277623173303 91.900000000000091 0 -1 0 0 
2 721.90000000000009 93.900000000000091 0 -0 0 -1 0 1 0 1 0 -0 2
1 705.90000000000009 246 0 0 0 1 
1 0 0 1 0.9981578843937613 0.060669908707453382 -1.108177865465089e-16 
1 0 254 1 0 -1 0 
2 2 3.0940737670948693 0 0 -0 -1 1 0 0 0 -1 0 2
1 185.81277623173287 1.0940737670948693 0 -1 0 0 
2 16 3.0940737670948693 0 0 0 -1 0 1 0 1 -0 0 2
1 18 69.380040821575903 0 0 -1 -0 
1 480.80000000000007 57.900000000000091 0 -1 0 0 
2 478.80000000000007 59.900000000000091 0 -0 0 -1 0 1 0 1 0 -0 2
1 480.80000000000007 57.900000000000091 0 0 1 0 
2 478.80000000000007 63.900000000000091 0 0 0 -1 -1 0 0 0 1 0 2
1 480.80000000000007 65.900000000000091 0 -1 0 0 
1 18 69.380040821575903 0 0 -1 -0 
2 16 246 0 0 0 -1 -1 0 0 0 1 0 2
1 18 246 0 0 0 1 
1 0 254 0 0 -1 -0 
2 2 246 0 -0 0 -1 0 -1 -0 -1 -0 0 2
1 0 246 0 0 0 1 
1 0 3.094073767094883 0 0 0 1 
1 0 0 0 0 0 1 
1 0 254 1 0 -1 0 
1 0 0 1 0.9981578843937613 0.060669908707453382 -1.108177865465089e-16 
1 723.90000000000009 44 1 0 1 0 
1 723.90000000000009 93.900000000000091 0 0 0 1 
1 723.90000000000009 44 0 0 0 1 
1 705.90000000000009 93.900000000000091 0 0 0 1 
1 707.90000000000009 91.900000000000091 0 0 0 1 
1 721.90000000000009 91.900000000000091 0 0 0 1 
1 2 1.0940737670948693 0 0 0 1 
1 16 1.0940737670948693 0 0 0 1 
1 18 3.0940737670948693 0 0 0 1 
1 18 57.900000000000091 0 0 0 1 
1 478.80000000000007 57.900000000000091 0 0 0 1 
1 480.80000000000007 59.900000000000091 0 0 0 1 
1 480.80000000000007 63.900000000000091 0 0 0 1 
1 478.80000000000007 65.900000000000091 0 0 0 1 
1 18 65.900000000000091 0 0 0 1 
Polygon3D 0
PolygonOnTriangulations 0
Surfaces 30
1 723.90000000000009 248 5.5511151231257827e-17 0 -1 0 -1 0 1.1102230246251565e-16 -1.1102230246251565e-16 -0 -1 
1 353.57300842027576 134.66600787605685 1 0 0 1 1 0 -0 -0 1 0 
2 721.90000000000009 246 0 0 0 -1 -1 0 0 0 1 0 2
1 721.90000000000009 248 0 0 -1 0 -1 0 0 -0 -0 -1 
2 707.90000000000009 245.99999999999955 0 -0 0 -1 0 -1 -0 -1 -0 0 2
2 16 246 0 0 0 -1 -1 0 0 0 1 0 2
1 16 248 0 0 -1 0 -1 0 0 -0 -0 -1 
2 2 246 0 -0 0 -1 0 -1 -0 -1 -0 0 2
1 0 248 0 1 0 -0 0 -1 0 0 -0 -1 
1 353.57300842027576 134.66600787605685 1 0 0 1 1 0 -0 -0 1 0 
1 723.90000000000009 44 0 -1 0 0 0 1 0 0 0 -1 
1 723.90000000000009 93.900000000000091 0 -1 0 0 0 1 0 0 0 -1 
1 714.90000000000009 169.95000000000002 0 0 0 1 1 0 -0 -0 1 0 
2 707.90000000000009 93.900000000000091 0 0 0 -1 1 0 0 0 -1 0 2
2 721.90000000000009 93.900000000000091 0 -0 0 -1 0 1 0 1 0 -0 2
1 705.90000000000009 246 0 1 0 -0 0 -1 0 0 -0 -1 
1 0 0 0 -0.060669908707453382 0.9981578843937613 0 0.9981578843937613 0.060669908707453382 -1.1081778654650891e-16 -1.1061364737246276e-16 -6.7233049929387513e-18 -1 
2 2 3.0940737670948693 0 0 0 -1 1 0 0 0 -1 0 2
2 16 3.0940737670948693 0 0 0 -1 0 1 0 1 -0 0 2
2 478.80000000000007 59.900000000000091 0 -0 0 -1 0 1 0 1 0 -0 2
2 478.80000000000007 63.900000000000091 0 0 0 -1 -1 0 0 0 1 0 2
1 18 246 0 1 0 -0 0 -1 0 0 -0 -1 
1 163.77099256469899 84.29027802400357 0 0 0 1 1 0 -0 -0 1 0 
1 0 246 0 1 0 -0 0 -1 0 0 -0 -1 
1 721.90000000000009 91.900000000000091 0 0 -1 0 -1 0 0 -0 -0 -1 
1 16 1.0940737670948693 0 0 -1 0 -1 0 0 -0 -0 -1 
1 18 57.900000000000091 0 1 0 -0 0 -1 0 0 -0 -1 
1 478.80000000000007 57.900000000000091 0 0 -1 0 -1 0 0 -0 -0 -1 
1 480.80000000000007 59.900000000000091 0 -1 0 0 0 1 0 0 0 -1 
1 478.80000000000007 65.900000000000091 0 0 -1 0 -1 0 0 -0 -0 -1 
Triangulations 0

TShapes 190
Ve
2.00000486572856e-07
723.9 248 0
0 0

0101101
*
Ve
2.00000510365368e-07
721.9 248 0
0 0

0101101
*
Ed
 2.00000486572856e-07 1 1 0
1  1 0 0.5 2.5
2  1 1 2 0.5 2.5
2  2 2 0 0.5 2.5
0

0101000
+190 2 -189 2 *
Ve
2.00000508663026e-07
721.9 248 6
0 0

0101101
*
Ed
 2.00000508663026e-07 1 1 0
1  2 0 0 6
2  3 3 0 0 6
4 G1 3 0 4 0
0

0101000
+189 0 -187 0 *
Ve
2.00000508792552e-07
707.9 248 6
0 0

0101101
*
Ed
 2.00000508663026e-07 1 1 0
1  3 0 2.5 16.5000000000005
0

0101000
+187 4 -185 4 *
Ve
2.00000510365368e-07
707.9 248 0
0 0

0101101
*
Ed
 2.00000508792552e-07 1 1 0
1  4 0 0 6
2  4 5 0 0 6
4 G1 4 0 5 0
0

0101000
+183 0 -185 0 *
Ve
2.00000693818188e-07
16 248 0
0 0

0101101
*
Ed
 2.00000486572856e-07 1 1 0
1  1 0 16.5000000000005 708.4
2  1 1 2 16.5000000000005 708.4
2  2 2 0 16.5000000000005 708.4
0

0101000
+183 2 -181 2 *
Ve
2.00000613745203e-07
16 248 6.00000000000006
0 0

0101101
*
Ed
 2.00000613745203e-07 1 1 0
1  5 0 0 6.00000000000006
2  5 6 0 0 6.00000000000006
4 G1 7 0 6 0
0

0101000
+181 0 -179 0 *
Ve
2.00000613875036e-07
2 248 6.00000000000006
0 0

0101101
*
Ed
 2.00000613745203e-07 1 1 0
1  6 0 708.4 722.4
0

0101000
+179 6 -177 6 *
Ve
2.00000693818188e-07
2 248 0
0 0

0101101
*
Ed
 2.00000613875036e-07 1 1 0
1  7 0 0 6.00000000000006
2  6 8 0 0 6.00000000000006
4 G1 8 0 7 0
0

0101000
+175 0 -177 0 *
Ve
2.00000524431461e-07
0 248 -7.58282325818982e-14
0 0

0101101
*
Ed
 2.00000486572856e-07 1 1 0
1  1 0 722.4 724.4
2  1 1 2 722.4 724.4
2  2 2 0 722.4 724.4
0

0101000
+175 2 -173 2 *
Ve
2.00000524431461e-07
0 248 17.9999999999999
0 0

0101101
*
Ed
 2.00000524431461e-07 1 1 0
1  8 0 0 18
2  7 1 0 0 18
2  8 9 0 0 18
0

0101000
+173 0 -171 0 *
Ve
2.00000486572856e-07
723.9 248 18
0 0

0101101
*
Ed
 1e-07 1 1 0
1  9 0 0.5 724.4
2  9 1 9 0.5 724.4
2  10 10 0 0.5 724.4
0

0101000
+169 9 -171 9 *
Ed
 2.00000486572856e-07 1 1 0
1  10 0 0 18
2  11 1 0 0 18
2  12 11 0 0 18
0

0101000
+190 0 -169 0 *
Wi

0101100
-188 1 -186 0 -184 3 +182 0 -180 1 -178 0 -176 5 +174 0 -172 1 -170 0 
+168 8 +167 0 *
Fa
0  1e-07 1 0

0101000
+166 0 *
Ve
2.00000506960684e-07
723.9 246 0
0 0

0101101
*
Ed
 2.00000486572856e-07 1 1 0
1  11 0 202 204
2  13 11 2 202 204
2  14 2 0 202 204
0

0101000
+164 2 -190 2 *
Ed
 2.00000486572856e-07 1 1 0
1  12 0 1.5707963267949 3.14159265358979
2  15 3 0 1.5707963267949 3.14159265358979
2  16 3 4 1.5707963267949 3.14159265358979
0

0101000
+189 0 -164 0 *
Wi

0101100
+163 1 +162 0 +188 1 *
Fa
0  2.00000486572856e-07 2 1

0101000
+161 0 *
Ve
2.00000506960684e-07
723.9 246 6
0 0

0101101
*
Ed
 2.00000506960684e-07 1 1 0
1  13 0 0 6
2  17 3 0 0 6
4 G1 12 0 3 0
0

0101000
+164 0 -159 0 *
Ed
 2.00000486572856e-07 1 1 0
1  12 0 1.5707963267949 3.14159265358979
2  15 3 0 1.5707963267949 3.14159265358979
2  16 3 4 1.5707963267949 3.14159265358979
0

0101000
+187 4 -159 4 *
Wi

0101100
+186 0 -158 0 -162 0 +157 3 *
Fa
0  2.00000486572856e-07 3 0

0101000
+156 0 *
Ve
2.00000506960684e-07
723.9 93.9000000000001 6
0 0

0101101
*
Ed
 2.00000506960684e-07 1 1 0
1  14 0 49.9000000000001 202
0

0101000
+154 4 -159 4 *
Ve
2.00000506960684e-07
705.9 246 0
0 0

0101101
*
Ed
 2.00000486572856e-07 1 1 0
1  15 0 1.57079632679512 3.14159265358957
2  18 5 0 1.57079632679512 3.14159265358957
2  19 5 4 1.57079632679512 3.14159265358957
0

0101000
+152 0 -185 4 *
Ve
2.00000506960684e-07
705.9 93.9000000000001 0
0 0

0101101
*
Ed
 2.00000506960684e-07 1 1 0
1  16 0 -131.216996061971 20.8830039380284
0

0101000
+152 0 -150 0 *
Ve
2.00000527163474e-07
707.9 91.9000000000001 0
0 0

0101101
*
Ed
 2.00000486572856e-07 1 1 0
1  17 0 1.5707963267949 3.14159265358979
2  20 14 0 1.5707963267949 3.14159265358979
2  21 14 4 1.5707963267949 3.14159265358979
0

0101000
+148 0 -150 0 *
Ve
2.00000527293e-07
721.9 91.9000000000001 0
0 0

0101101
*
Ed
 2.00000527163474e-07 1 1 0
1  18 0 -183.137223768267 -169.137223768267
0

0101000
+146 0 -148 0 *
Ed
 2.00000486572856e-07 1 1 0
1  19 0 1.5707963267949 3.14159265358981
2  22 15 0 1.5707963267949 3.14159265358981
2  23 15 4 1.5707963267949 3.14159265358981
0

0101000
+154 4 -146 0 *
Wi

0101100
-153 3 +157 3 -184 3 +151 3 -149 3 +147 3 +145 3 +144 3 *
Fa
0  1e-07 13 3

0101000
-143 0 *
Ve
2.00000506960684e-07
705.9 246 0
0 0

0101101
*
Ed
 2.00000506960684e-07 1 1 0
1  20 0 0 6
2  24 5 0 0 6
4 G1 5 0 16 0
0

0101000
+141 0 -152 3 *
Ed
 2.00000486572856e-07 1 1 0
1  15 0 1.57079632679512 3.14159265358957
2  18 5 0 1.57079632679512 3.14159265358957
2  19 5 4 1.57079632679512 3.14159265358957
0

0101000
+141 0 -183 0 *
Wi

0101100
+140 0 -182 0 -139 0 +151 3 *
Fa
0  2.00000486572856e-07 5 0

0101000
+138 0 *
Ve
2.00000506960684e-07
705.9 93.9000000000001 0
0 0

0101101
*
Ed
 2.00000506960684e-07 1 1 0
1  16 0 -131.216996061971 20.8830039380284
0

0101000
+141 0 -136 0 *
Ve
2.00000527163474e-07
707.9 91.9000000000001 0
0 0

0101101
*
Ed
 2.00000486572856e-07 1 1 0
1  17 0 1.5707963267949 3.14159265358979
2  20 14 0 1.5707963267949 3.14159265358979
2  21 14 4 1.5707963267949 3.14159265358979
0

0101000
+134 0 -136 0 *
Ve
2.00000527293e-07
721.9 91.9000000000001 0
0 0

0101101
*
Ed
 2.00000527163474e-07 1 1 0
1  18 0 -183.137223768267 -169.137223768267
0

0101000
+132 0 -134 0 *
Ve
2.00000506960684e-07
723.9 93.9000000000001 0
0 0

0101101
*
Ed
 2.00000486572856e-07 1 1 0
1  19 0 1.5707963267949 3.14159265358981
2  22 15 0 1.5707963267949 3.14159265358981
2  23 15 4 1.5707963267949 3.14159265358981
0

0101000
+130 0 -132 0 *
Ve
2.00000486572856e-07
723.9 44 0
0 0

0101101
*
Ed
 2.00000486572856e-07 1 1 0
1  11 0 0 49.9000000000001
2  13 11 2 0 49.9000000000001
2  14 2 0 0 49.9000000000001
0

0101000
+128 2 -130 2 *
Ve
2.00000486572856e-07
0 0 0
0 0

0101101
*
Ed
 1e-07 1 1 0
1  21 0 0 725.235968495772
2  25 17 2 0 725.235968495772
2  26 2 0 0 725.235968495772
0

0101000
+126 2 -128 2 *
Ve
2.00000547438983e-07
0 3.09407376709488 0
0 0

0101101
*
Ed
 2.00000486572856e-07 1 1 0
1  22 0 250.905926232905 254
2  27 9 2 250.905926232905 254
2  28 2 0 250.905926232905 254
0

0101000
+124 2 -126 2 *
Ve
2.00000554079535e-07
2 1.09407376709487 0
0 0

0101101
*
Ed
 2.00000486572856e-07 1 1 0
1  23 0 1.5707963267949 3.1415926535898
2  29 18 0 1.5707963267949 3.1415926535898
2  30 18 6 1.5707963267949 3.1415926535898
0

0101000
+122 0 -124 0 *
Ve
2.00000553950009e-07
16 1.09407376709487 0
0 0

0101101
*
Ed
 2.00000553950009e-07 1 1 0
1  24 0 169.812776231733 183.812776231733
0

0101000
+120 0 -122 0 *
Ve
2.00000533672218e-07
18 3.09407376709487 0
0 0

0101101
*
Ed
 2.00000486572856e-07 1 1 0
1  25 0 1.5707963267949 3.14159265358979
2  31 19 0 1.5707963267949 3.14159265358979
2  32 19 6 1.5707963267949 3.14159265358979
0

0101000
+118 0 -120 0 *
Ve
2.00000580790083e-07
18 57.9000000000001 0
0 0

0101101
*
Ed
 2.00000533672218e-07 1 1 0
1  26 0 11.4800408215758 66.285967054481
0

0101000
+116 0 -118 0 *
Ve
2.00000580790083e-07
478.8 57.9000000000001 0
0 0

0101101
*
Ed
 2.00000580790083e-07 1 1 0
1  27 0 2 462.8
0

0101000
+114 0 -116 0 *
Ve
2.00000533672218e-07
480.8 59.9000000000001 0
0 0

0101101
*
Ed
 2.00000486572856e-07 1 1 0
1  28 0 1.5707963267949 3.14159265358979
2  33 20 0 1.5707963267949 3.14159265358979
2  34 20 6 1.5707963267949 3.14159265358979
0

0101000
+112 0 -114 0 *
Ve
2.00000533672218e-07
480.8 63.9000000000001 0
0 0

0101101
*
Ed
 2.00000533672218e-07 1 1 0
1  29 0 2 6
0

0101000
+112 0 -110 0 *
Ve
2.00000580790083e-07
478.8 65.9000000000001 0
0 0

0101101
*
Ed
 2.00000486572856e-07 1 1 0
1  30 0 1.5707963267949 3.14159265358979
2  35 21 0 1.5707963267949 3.14159265358979
2  36 21 6 1.5707963267949 3.14159265358979
0

0101000
+108 0 -110 0 *
Ve
2.00000580790083e-07
18 65.9000000000001 0
0 0

0101101
*
Ed
 2.00000580790083e-07 1 1 0
1  31 0 2 462.8
0

0101000
+108 0 -106 0 *
Ve
2.00000533672218e-07
18 246 0
0 0

0101101
*
Ed
 2.00000533672218e-07 1 1 0
1  32 0 -176.619959178424 3.48004082157581
0

0101000
+104 0 -106 0 *
Ed
 2.00000486572856e-07 1 1 0
1  33 0 1.5707963267949 3.14159265358979
2  37 6 0 1.5707963267949 3.14159265358979
2  38 6 6 1.5707963267949 3.14159265358979
0

0101000
+181 0 -104 0 *
Wi

0101100
-135 0 +133 0 +131 0 +129 0 +127 1 +125 1 +123 1 +121 0 +119 0 +117 0 
+115 0 +113 0 +111 0 -109 0 +107 0 -105 0 +103 0 +102 0 +180 1 +139 0 
*
Fa
0  2.00000486572856e-07 2 1

0101000
+101 0 *
Ve
2.00000533672218e-07
18 246 0
0 0

0101101
*
Ed
 2.00000533672218e-07 1 1 0
1  34 0 0 6.00000000000006
2  39 6 0 0 6.00000000000006
4 G1 22 0 6 0
0

0101000
+104 0 -99 5 *
Ed
 2.00000486572856e-07 1 1 0
1  33 0 1.5707963267949 3.14159265358979
2  37 6 0 1.5707963267949 3.14159265358979
2  38 6 6 1.5707963267949 3.14159265358979
0

0101000
+179 6 -99 0 *
Wi

0101100
+178 0 -98 0 -102 0 +97 5 *
Fa
0  2.00000486572856e-07 6 0

0101000
+96 0 *
Ve
2.00000580790083e-07
18 65.9000000000001 0
0 0

0101101
*
Ed
 2.00000533672218e-07 1 1 0
1  32 0 -176.619959178424 3.48004082157581
0

0101000
+99 0 -94 0 *
Ve
2.00000580790083e-07
478.8 65.9000000000001 0
0 0

0101101
*
Ed
 2.00000580790083e-07 1 1 0
1  31 0 2 462.8
0

0101000
+92 0 -94 0 *
Ve
2.00000533672218e-07
480.8 63.9000000000001 0
0 0

0101101
*
Ed
 2.00000486572856e-07 1 1 0
1  30 0 1.5707963267949 3.14159265358979
2  35 21 0 1.5707963267949 3.14159265358979
2  36 21 6 1.5707963267949 3.14159265358979
0

0101000
+92 0 -90 0 *
Ve
2.00000533672218e-07
480.8 59.9000000000001 0
0 0

0101101
*
Ed
 2.00000533672218e-07 1 1 0
1  29 0 2 6
0

0101000
+88 0 -90 0 *
Ve
2.00000580790083e-07
478.8 57.9000000000001 0
0 0

0101101
*
Ed
 2.00000486572856e-07 1 1 0
1  28 0 1.5707963267949 3.14159265358979
2  33 20 0 1.5707963267949 3.14159265358979
2  34 20 6 1.5707963267949 3.14159265358979
0

0101000
+88 0 -86 0 *
Ve
2.00000580790083e-07
18 57.9000000000001 0
0 0

0101101
*
Ed
 2.00000580790083e-07 1 1 0
1  27 0 2 462.8
0

0101000
+86 0 -84 0 *
Ve
2.00000533672218e-07
18 3.09407376709487 0
0 0

0101101
*
Ed
 2.00000533672218e-07 1 1 0
1  26 0 11.4800408215758 66.285967054481
0

0101000
+84 0 -82 0 *
Ve
2.00000553950009e-07
16 1.09407376709487 0
0 0

0101101
*
Ed
 2.00000486572856e-07 1 1 0
1  25 0 1.5707963267949 3.14159265358979
2  31 19 0 1.5707963267949 3.14159265358979
2  32 19 6 1.5707963267949 3.14159265358979
0

0101000
+82 0 -80 0 *
Ve
2.00000554079535e-07
2 1.09407376709487 0
0 0

0101101
*
Ed
 2.00000553950009e-07 1 1 0
1  24 0 169.812776231733 183.812776231733
0

0101000
+80 0 -78 0 *
Ve
2.00000547438983e-07
0 3.09407376709488 6.00000000000006
0 0

0101101
*
Ed
 2.00000486572856e-07 1 1 0
1  23 0 1.5707963267949 3.1415926535898
2  29 18 0 1.5707963267949 3.1415926535898
2  30 18 6 1.5707963267949 3.1415926535898
0

0101000
+78 0 -76 6 *
Ve
2.00000533672218e-07
0 246 6.00000000000006
0 0

0101101
*
Ed
 2.00000533672218e-07 1 1 0
1  35 0 8 250.905926232905
0

0101000
+74 6 -76 6 *
Ed
 2.00000486572856e-07 1 1 0
1  36 0 1.5707963267949 3.14159265358979
2  40 8 0 1.5707963267949 3.14159265358979
2  41 8 6 1.5707963267949 3.14159265358979
0

0101000
+74 6 -177 6 *
Wi

0101100
+93 5 -91 5 +89 5 -87 5 +85 5 +83 5 +81 5 +79 5 +77 5 +75 5 
-73 5 +72 5 -176 5 +97 5 *
Fa
0  1e-07 23 5

0101000
-71 0 *
Ve
2.00000533672218e-07
0 246 0
0 0

0101101
*
Ed
 2.00000533672218e-07 1 1 0
1  37 0 0 6.00000000000006
2  42 8 0 0 6.00000000000006
4 G1 24 0 8 0
0

0101000
+69 0 -74 0 *
Ed
 2.00000486572856e-07 1 1 0
1  36 0 1.5707963267949 3.14159265358979
2  40 8 0 1.5707963267949 3.14159265358979
2  41 8 6 1.5707963267949 3.14159265358979
0

0101000
+69 0 -175 0 *
Wi

0101100
+68 0 -174 0 -67 0 +72 5 *
Fa
0  2.00000486572856e-07 8 0

0101000
+66 0 *
Ed
 2.00000486572856e-07 1 1 0
1  22 0 6 8
2  27 9 2 6 8
2  28 2 0 6 8
0

0101000
+173 2 -69 2 *
Wi

0101100
+67 0 +64 1 +172 1 *
Fa
0  2.00000486572856e-07 2 1

0101000
+63 0 *
Ed
 2.00000547438983e-07 1 1 0
1  38 0 0 6.00000000000006
2  43 18 0 0 6.00000000000006
4 G1 18 0 24 0
0

0101000
+124 0 -76 0 *
Ve
2.00000486572856e-07
0 0 18
0 0

0101101
*
Ed
 2.00000486572856e-07 1 1 0
1  39 0 0 18
2  44 9 0 0 18
2  45 17 0 0 18
0

0101000
+126 0 -60 0 *
Ed
 1e-07 1 1 0
1  40 0 6 254
2  46 9 9 6 254
2  47 10 0 6 254
0

0101000
+171 9 -60 9 *
Wi

0101100
-64 1 -68 0 -73 5 +61 0 -123 1 -59 0 +58 8 +170 0 *
Fa
0  1e-07 9 0

0101000
+57 0 *
Ve
2.00000486572856e-07
723.9 44 18
0 0

0101101
*
Ed
 1e-07 1 1 0
1  41 0 0 725.235968495772
2  48 17 9 0 725.235968495772
2  49 10 0 0 725.235968495772
0

0101000
+60 9 -55 9 *
Ed
 1e-07 1 1 0
1  42 0 0 204
2  50 11 9 0 204
2  51 10 0 0 204
0

0101000
+55 9 -169 9 *
Wi

0101100
+168 0 +58 0 +54 0 +53 0 *
Fa
0  2.00000486572856e-07 10 0

0111000
+52 0 *
Ed
 2.00000506960684e-07 1 1 0
1  43 0 0 6
2  52 15 0 0 6
4 G1 12 0 15 0
0

0101000
+130 0 -154 0 *
Ed
 2.00000486572856e-07 1 1 0
1  44 0 0 18
2  53 17 0 0 18
2  54 11 0 0 18
0

0101000
+128 0 -55 0 *
Wi

0101100
-127 1 -50 0 -153 3 +158 0 -163 1 -167 0 +53 8 +49 0 *
Fa
0  1e-07 11 0

0101000
+48 0 *
Ed
 2.00000506960684e-07 1 1 0
1  45 0 0 6
2  55 14 0 0 6
4 G1 16 0 14 0
0

0101000
+136 0 -150 3 *
Wi

0101100
+140 0 -46 0 -135 0 +149 3 *
Fa
0  2.00000506960684e-07 16 0

0101000
+45 0 *
Ed
 2.00000527163474e-07 1 1 0
1  46 0 0 6
2  56 14 0 0 6
4 G1 14 0 25 0
0

0101000
+134 0 -148 3 *
Wi

0101100
+43 0 -46 0 -133 0 +147 3 *
Fa
0  2.00000486572856e-07 14 0

0101000
+42 0 *
Ed
 2.00000527293e-07 1 1 0
1  47 0 0 6
2  57 15 0 0 6
4 G1 25 0 15 0
0

0101000
+132 0 -146 3 *
Wi

0101100
+40 0 -43 0 -131 0 +145 3 *
Fa
0  2.00000527163474e-07 25 0

0101000
+39 0 *
Wi

0101100
+50 0 -40 0 -129 0 +144 3 *
Fa
0  2.00000486572856e-07 15 0

0101000
+37 0 *
Wi

0101100
+59 0 -49 0 -125 1 +54 8 *
Fa
0  1e-07 17 0

0101000
+35 0 *
Ed
 2.00000554079535e-07 1 1 0
1  48 0 0 6.00000000000006
2  58 18 0 0 6.00000000000006
4 G1 26 0 18 0
0

0101000
+122 0 -78 5 *
Wi

0101100
+33 0 -61 0 -121 0 +75 5 *
Fa
0  2.00000486572856e-07 18 0

0101000
+32 0 *
Ed
 2.00000553950009e-07 1 1 0
1  49 0 0 6.00000000000006
2  59 19 0 0 6.00000000000006
4 G1 19 0 26 0
0

0101000
+120 0 -80 5 *
Wi

0101100
+30 0 -33 0 -119 0 +77 5 *
Fa
0  2.00000553950009e-07 26 0

0101000
+29 0 *
Ed
 2.00000533672218e-07 1 1 0
1  50 0 0 6.00000000000006
2  60 19 0 0 6.00000000000006
4 G1 27 0 19 0
0

0101000
+118 0 -82 5 *
Wi

0101100
+27 0 -30 0 -117 0 +79 5 *
Fa
0  2.00000486572856e-07 19 0

0101000
+26 0 *
Ed
 2.00000580790083e-07 1 1 0
1  51 0 0 6.00000000000006
0

0101000
+116 0 -84 5 *
Wi

0101100
+24 0 -27 0 -115 0 +81 5 *
Fa
0  2.00000533672218e-07 27 0

0101000
+23 0 *
Ed
 2.00000580790083e-07 1 1 0
1  52 0 0 6.00000000000006
2  61 20 0 0 6.00000000000006
4 G1 20 0 28 0
0

0101000
+114 0 -86 5 *
Wi

0101100
+21 0 -24 0 -113 0 +83 5 *
Fa
0  2.00000580790083e-07 28 0

0101000
+20 0 *
Ed
 2.00000533672218e-07 1 1 0
1  53 0 0 6.00000000000006
2  62 20 0 0 6.00000000000006
4 G1 29 0 20 0
0

0101000
+112 0 -88 5 *
Wi

0101100
+18 0 -21 0 -111 0 +85 5 *
Fa
0  2.00000486572856e-07 20 0

0101000
+17 0 *
Ed
 2.00000533672218e-07 1 1 0
1  54 0 0 6.00000000000006
2  63 21 0 0 6.00000000000006
4 G1 21 0 29 0
0

0101000
+110 0 -90 5 *
Wi

0101100
+18 0 -15 0 -109 0 +87 5 *
Fa
0  2.00000533672218e-07 29 0

0101000
+14 0 *
Ed
 2.00000580790083e-07 1 1 0
1  55 0 0 6.00000000000006
2  64 21 0 0 6.00000000000006
4 G1 30 0 21 0
0

0101000
+108 0 -92 5 *
Wi

0101100
+12 0 -15 0 -107 0 +89 5 *
Fa
0  2.00000486572856e-07 21 0

0101000
+11 0 *
Ed
 2.00000580790083e-07 1 1 0
1  56 0 0 6.00000000000006
0

0101000
+106 0 -94 5 *
Wi

0101100
+12 0 -9 0 -105 0 +91 5 *
Fa
0  2.00000580790083e-07 30 0

0101000
+8 0 *
Wi

0101100
+98 0 -9 0 -103 0 +93 5 *
Fa
0  2.00000533672218e-07 22 0

0101000
+6 0 *
Sh

0101100
-165 0 -160 0 -155 0 -142 0 -137 0 -100 0 -95 0 -70 0 -65 0 -62 0 
-56 0 +51 8 -47 0 +44 0 -41 0 -38 0 -36 0 -34 0 -31 0 -28 0 
-25 0 -22 0 -19 0 -16 0 +13 0 -10 0 +7 0 -5 0 *
So

0100000
+4 0 *
Co

0100000
+3 0 *
Co

1100000
+2 0 *

+1 0 