DBRep_DrawableShape

CASCADE Topology V1, (c) Matra-Datavision
Locations 15
1
              1               0               0               0 
              0               1               0               0 
              0               0               1               0 
1
              1               0               0               0 
              0               1               0               0 
              0               0               1               0 
1
             -1               0 -1.22464679914735e-16               0 
              0               1               0               0 
1.22464679914735e-16               0              -1               0 
1
              1               0               0             678 
              0               1               0           -1146 
              0               0               1           614.9 
1
              1               0               0               0 
              0               1               0               0 
              0               0               1             -18 
1
              1               0               0               0 
              0               1               0               0 
              0               0               1               1 
1
              1               0               0               0 
              0               1               0               0 
              0               0               1              -1 
2  1 1 2 1 3 1 4 1 5 1 6 1 7 1 0
2  2 1 3 1 4 1 0
2  4 -1 3 -1 2 -1 0
2  2 -1 0
1
              1               0               0               0 
              0               1               0               0 
              0               0               1              -3 
2  12 -1 4 -1 3 -1 2 -1 0
1
              1               0               0               0 
              0               1               0               0 
              0               0               1               1 
2  14 -1 12 -1 4 -1 3 -1 2 -1 0
Curve2ds 8
2 505 122 1 0 -0 1 4.5
1 0 3 1 0 
1 6.2831853071795862 -0 0 1 
1 0 -0 0 1 
1 0 0 1 0 
2 0 0 1 0 -0 1 4.5
1 0 0 1 0 
1 0 -1 1 0 
Curves 3
2 415 1268 614.89999999999998 0 0 1 1 0 -0 -0 1 0 4.5
1 419.5 1268 611.89999999999998 0 0 1 
2 415 1268 611.89999999999998 0 0 1 1 0 -0 -0 1 0 4.5
Polygon3D 0
PolygonOnTriangulations 0
Surfaces 5
1 -90 1146 596.89999999999998 0 0 1 1 0 -0 -0 1 0 
1 -90 1146 614.89999999999998 0 0 1 1 0 -0 -0 1 0 
2 415 1268 611.89999999999998 0 0 1 1 0 -0 -0 1 0 4.5
1 415 1268 611.89999999999998 0 0 1 1 0 -0 -0 1 0 
2 263.00000000000006 122 0 -1.2246467991473532e-16 0 -1 -1 0 1.2246467991473532e-16 0 1 0 4.5
Triangulations 0

TShapes 13
Ve
1.50000101586627e-07
258.5 122 0
0 0

0101101
*
Ed
 1.50000101035536e-07 1 1 0
1  1 0 0 6.28318530717959
2  1 2 1 0 6.28318530717959
2  2 3 0 0 6.28318530717959
0

0101000
+13 10 -13 10 *
Wi

0101100
+12 9 *
Fa
0  1.50000039190873e-07 1 8

0101000
+11 0 *
Ve
1e-07
419.5 1268 611.9
0 0

0101101
*
Ed
 1e-07 1 1 0
1  2 0 0 3
3  3 4CN 3 0 0 3
0

0101000
+9 11 -13 10 *
Ed
 1e-07 1 1 0
1  3 0 0 6.28318530717959
2  5 3 0 0 6.28318530717959
2  6 4 0 0 6.28318530717959
2  7 5 13 0 6.28318530717959
2  8 5 15 0 6.28318530717959
0

0101000
+9 11 -9 11 *
Wi

0101100
-12 9 +8 9 +7 9 -8 9 *
Fa
0  1e-07 3 9

0101000
+6 0 *
Wi

0101100
-7 0 *
Fa
0  1e-07 4 0

0111000
-4 0 *
Sh

0101100
+10 0 +5 0 -3 9 *
So

0100000
+2 0 *

+1 0 