DBRep_DrawableShape

CASCADE Topology V1, (c) Matra-Datavision
Locations 8
1
              1               0               0               0 
              0               1               0               0 
              0               0               1               0 
1
             -1               0 -1.22464679914735e-16               0 
              0               1               0               0 
1.22464679914735e-16               0              -1               0 
1
              1               0               0             678 
              0               1               0           -1146 
              0               0               1           614.9 
1
              1               0               0               0 
              0               1               0               0 
              0               0               1              -0 
1
              1               0               0               0 
              0               1               0               0 
              0               0               1               1 
1
              1               0               0               0 
              0               1               0               0 
              0               0               1              -1 
2  1 1 2 1 3 1 4 1 5 1 6 1 0
2  6 -1 5 -1 4 -1 3 -1 2 -1 1 -1 0
Curve2ds 0
Curves 1
2 185 1268 614.89999999999986 0 -0 1 1 0 0 -0 1 0 4.5
Polygon3D 0
PolygonOnTriangulations 0
Surfaces 1
1 492.99999999999994 122 0 0 0 1 1 0 -0 -0 1 0 
Triangulations 0

TShapes 5
Ve
1.50000225335846e-07
488.5 122 3.7895612573872e-14
0 0

0101101
*
Ed
 1.50000187440233e-07 1 1 0
1  1 0 0 6.28318530717959
0

0101000
+5 8 -5 8 *
Wi

0101100
-4 7 *
Fa
0  1e-07 1 0

0101000
+3 0 *
Sh

1101000
+2 0 *

+1 0 