DBRep_DrawableShape

CASCADE Topology V1, (c) Matra-Datavision
Locations 15
1
              1               0               0               0 
              0               1               0               0 
              0               0               1               0 
1
             -1               0 -1.22464679914735e-16               0 
              0               1               0               0 
1.22464679914735e-16               0              -1               0 
1
              1               0               0             678 
              0               1               0           -1146 
              0               0               1           614.9 
2  1 1 2 1 3 1 0
1
              1               0               0               0 
              0               1               0               0 
              0               0               1               0 
2  1 -1 5 -1 0
2  1 -1 0
1
              1               0               0               0 
              0               1               0               0 
              0               0               1              -3 
2  8 -1 3 -1 2 -1 1 -1 0
1
              1               0               0               0 
              0               1               0               0 
              0               0               1               1 
2  10 -1 8 -1 3 -1 2 -1 1 -1 0
1
              1               0               0               0 
              0               1               0               0 
              0               0               1              -3 
2  12 -1 3 -1 2 -1 1 -1 0
1
              1               0               0               0 
              0               1               0               0 
              0               0               1               1 
2  14 -1 12 -1 3 -1 2 -1 1 -1 0
Curve2ds 76
1 0 0 0 1 
1 0 0 1 0 
8 -18.5 -0.5
1 -0.5 768 -1 0 
8 -18.5 -0.5
1 0.5 -1 -1 -0 
1 18 0 0 1 
1 0 0 1 0 
8 -18.5 -0.5
1 -0.5 12 -1 0 
8 -18.5 -0.5
1 0.5 -1 -1 -0 
8 0.5 162.59999999999991
1 768 -0.5 0 1 
8 0.5 162.59999999999991
1 1 -0.5 0 -1 
1 5.5 156.09999999999991 -1 0 
1 -8.9999999999998863 -384.5 0 -1 
8 0.5 162.59999999999991
1 12 -0.5 0 1 
8 0.5 162.59999999999991
1 1 -0.5 0 -1 
8 -390 -130
1 130 42 -1 0 
8 -390 -130
1 26.899999999999977 -130 0 -1 
8 21 81
1 520 21 0 1 
8 21 81
1 26.899999999999977 21 0 -1 
8 21 81
1 260 21 0 1 
8 21 81
1 26.899999999999977 21 0 -1 
8 -390 -130
1 130 102 -1 0 
8 -390 -130
1 26.899999999999977 -130 0 -1 
2 220 114 1 0 -0 1 4.5
1 0 0.89999999999997726 1 0 
2 560 114 1 0 -0 1 4.5
1 0 0.89999999999997726 1 0 
8 0.5 162.59999999999991
1 19 -0.5 0 -1 
8 0.5 162.59999999999991
1 768 -0.5 0 1 
8 1 19
1 0 -157.09999999999991 1 0 
1 -9.9999999999998863 378 1 0 
1 324.5 156.09999999999991 -1 0 
1 9.0000000000001137 -65.5 0 -1 
8 0.5 162.59999999999991
1 12 -0.5 0 1 
8 0.5 162.59999999999991
1 19 -0.5 0 -1 
8 -390 -130
1 130 42 -1 0 
8 -390 -130
1 44.899999999999977 -130 0 -1 
8 21 81
1 520 21 0 1 
8 21 81
1 44.899999999999977 21 0 -1 
8 21 81
1 260 21 0 1 
8 21 81
1 44.899999999999977 21 0 -1 
8 -390 -130
1 130 102 -1 0 
8 -390 -130
1 44.899999999999977 -130 0 -1 
2 220 114 1 0 -0 1 4.5
1 0 18.899999999999977 1 0 
2 275 122 1 0 -0 1 4.5
1 0 3 1 0 
2 560 114 1 0 -0 1 4.5
1 0 18.899999999999977 1 0 
2 505 122 1 0 -0 1 4.5
1 0 3 1 0 
8 1 19
1 0 -157.09999999999991 1 0 
1 -9.9999999999998863 -378 1 0 
1 0 260 1 0 
1 0 0 1 0 
1 0 0 1 0 
1 0 0 1 0 
1 0 -60 1 0 
1 0 260 1 0 
1 0 -60 1 0 
1 0 0 1 0 
1 6.2831853071795862 -0 0 1 
1 0 -0 0 1 
1 6.2831853071795862 -0 0 1 
1 0 -0 0 1 
1 6.2831853071795862 -0 0 1 
1 0 -0 0 1 
1 0 0 1 0 
2 0 0 1 0 -0 1 4.5
1 0 0 1 0 
1 0 -1 1 0 
1 6.2831853071795862 -0 0 1 
1 0 -0 0 1 
1 0 0 1 0 
2 0 0 1 0 -0 1 4.5
1 0 0 1 0 
1 0 -1 1 0 
Curves 36
1 -90 1146 596.89999999999998 1 0 -0 
1 678 1146 596.39999999999998 -0 0 -1 
1 -90 1146 614.89999999999998 1 0 -0 
1 -78 1146 596.39999999999998 -0 0 -1 
1 678 1145.5 596.89999999999998 -0 1 0 
1 -84.5 1302.0999999999999 596.89999999999998 -1 -0 0 
1 -78 1145.5 596.89999999999998 -0 1 0 
1 40 1188 596.89999999999998 -1 -0 0 
1 430 1167 596.89999999999998 -0 1 0 
1 170 1167 596.89999999999998 -0 1 0 
1 40 1248 596.89999999999998 -1 -0 0 
2 130 1260 596.89999999999998 0 0 1 1 0 -0 -0 1 0 4.5
2 470 1260 596.89999999999998 0 0 1 1 0 -0 -0 1 0 4.5
1 678 1145.5 614.89999999999998 -0 1 0 
1 678 1302.0999999999999 595.89999999999998 0 0 1 
1 234.5 1302.0999999999999 614.89999999999998 -1 -0 0 
1 -78 1145.5 614.89999999999998 -0 1 0 
1 40 1188 614.89999999999998 -1 -0 0 
1 430 1167 614.89999999999998 -0 1 0 
1 170 1167 614.89999999999998 -0 1 0 
1 40 1248 614.89999999999998 -1 -0 0 
2 130 1260 614.89999999999998 0 0 1 1 0 -0 -0 1 0 4.5
2 185 1268 614.89999999999998 0 0 1 1 0 -0 -0 1 0 4.5
2 470 1260 614.89999999999998 0 0 1 1 0 -0 -0 1 0 4.5
2 415 1268 614.89999999999998 0 0 1 1 0 -0 -0 1 0 4.5
1 -78 1302.0999999999999 595.89999999999998 0 0 1 
1 430 1188 570 0 0 1 
1 170 1188 570 0 0 1 
1 430 1248 570 0 0 1 
1 170 1248 570 0 0 1 
1 134.5 1260 596 0 0 1 
1 474.5 1260 596 0 0 1 
1 189.5 1268 611.89999999999998 0 0 1 
2 185 1268 611.89999999999998 0 0 1 1 0 -0 -0 1 0 4.5
1 419.5 1268 611.89999999999998 0 0 1 
2 415 1268 611.89999999999998 0 0 1 1 0 -0 -0 1 0 4.5
Polygon3D 0
PolygonOnTriangulations 0
Surfaces 18
1 -90 1146 596.89999999999998 -0 1 0 0 0 1 1 0 -0 
1 -90 1146 596.89999999999998 0 0 1 1 0 -0 -0 1 0 
1 678 1145 595.89999999999998 1 0 -0 0 0 1 0 -1 0 
1 -90 1146 614.89999999999998 0 0 1 1 0 -0 -0 1 0 
1 -78 1145 595.89999999999998 1 0 -0 0 0 1 0 -1 0 
1 300 1302.0999999999997 605.89999999999986 0 1 0 0 -0 1 1 0 -0 
1 170 1188 570 -0 1 0 0 0 1 1 0 -0 
1 430 1188 570 1 0 -0 0 0 1 0 -1 0 
1 170 1188 570 1 0 -0 0 0 1 0 -1 0 
1 170 1248 570 -0 1 0 0 0 1 1 0 -0 
2 130 1260 596 0 0 1 1 0 -0 -0 1 0 4.5
2 470 1260 596 0 0 1 1 0 -0 -0 1 0 4.5
2 185 1268 611.89999999999998 0 0 1 1 0 -0 -0 1 0 4.5
2 415 1268 611.89999999999998 0 0 1 1 0 -0 -0 1 0 4.5
1 185 1268 611.89999999999998 0 0 1 1 0 -0 -0 1 0 
2 493 122 0 -1.2246467991473532e-16 0 -1 -1 0 1.2246467991473532e-16 0 1 0 4.5
1 415 1268 611.89999999999998 0 0 1 1 0 -0 -0 1 0 
2 263.00000000000006 122 0 -1.2246467991473532e-16 0 -1 -1 0 1.2246467991473532e-16 0 1 0 4.5
Triangulations 0

TShapes 103
Ve
1.5e-07
-78 1146 596.9
0 0

0101101
*
Ve
1.5e-07
678 1146 596.9
0 0

0101101
*
Ed
 1.5e-07 1 1 0
1  1 0 12 768
2  1 1 0 12 768
2  2 2 0 12 768
0

0101000
+103 6 -102 6 *
Ve
1.5e-07
678 1146 614.9
0 0

0101101
*
Ed
 1.5e-07 1 1 0
1  2 0 -18.5 -0.5
2  3 1 0 -18.5 -0.5
2  4 3 0 -18.5 -0.5
0

0101000
+100 6 -102 6 *
Ve
1.5e-07
-78 1146 614.9
0 0

0101101
*
Ed
 1.5e-07 1 1 0
1  3 0 12 768
2  5 1 0 12 768
2  6 4 0 12 768
0

0101000
+98 6 -100 6 *
Ed
 1.5e-07 1 1 0
1  4 0 -18.5 -0.5
2  7 1 0 -18.5 -0.5
2  8 5 0 -18.5 -0.5
0

0101000
+98 6 -103 6 *
Wi

0101100
-101 0 +99 0 +97 0 -96 0 *
Fa
0  1e-07 1 0

0111000
+95 0 *
Ve
1.5e-07
678 1302.1 596.9
0 0

0101101
*
Ed
 1.5e-07 1 1 0
1  5 0 0.5 156.6
2  9 2 0 0.5 156.6
2  10 3 0 0.5 156.6
0

0101000
+102 6 -93 6 *
Ve
1.5e-07
-78 1302.1 596.9
0 0

0101101
*
Ed
 1.5e-07 1 1 0
1  6 0 -762.5 -6.5
2  11 2 0 -762.5 -6.5
2  12 6 0 -762.5 -6.5
0

0101000
+93 6 -91 6 *
Ed
 1.5e-07 1 1 0
1  7 0 0.5 156.6
2  13 2 0 0.5 156.6
2  14 5 0 0.5 156.6
0

0101000
+103 6 -91 6 *
Wi

0101100
+92 5 +101 5 +90 5 -89 5 *
Ve
1.5e-07
430 1188 596.9
0 0

0101101
*
Ve
1.5e-07
170 1188 596.9
0 0

0101101
*
Ed
 1.5e-07 1 1 0
1  8 0 -390 -130
2  15 2 0 -390 -130
2  16 7 0 -390 -130
0

0101000
+87 6 -86 6 *
Ve
1.5e-07
430 1248 596.9
0 0

0101101
*
Ed
 1.5e-07 1 1 0
1  9 0 21 81
2  17 2 0 21 81
2  18 8 0 21 81
0

0101000
+87 6 -84 6 *
Ve
1.5e-07
170 1248 596.9
0 0

0101101
*
Ed
 1.5e-07 1 1 0
1  10 0 21 81
2  19 2 0 21 81
2  20 9 0 21 81
0

0101000
+86 6 -82 6 *
Ed
 1.5e-07 1 1 0
1  11 0 -390 -130
2  21 2 0 -390 -130
2  22 10 0 -390 -130
0

0101000
+84 6 -82 6 *
Wi

0101100
+85 5 -83 5 +81 5 -80 5 *
Ve
1e-07
134.5 1260 596.9
0 0

0101101
*
Ed
 1e-07 1 1 0
1  12 0 0 6.28318530717959
2  23 2 5 0 6.28318530717959
2  24 11 0 0 6.28318530717959
0

0101100
+78 7 -78 7 *
Wi

0101100
-77 0 *
Ve
1e-07
474.5 1260 596.9
0 0

0101101
*
Ed
 1e-07 1 1 0
1  13 0 0 6.28318530717959
2  25 2 5 0 6.28318530717959
2  26 12 0 0 6.28318530717959
0

0101100
+75 7 -75 7 *
Wi

0101100
-74 0 *
Fa
0  1e-07 2 5

0111000
+88 0 +79 0 +76 0 +73 0 *
Ve
1.5e-07
678 1302.1 614.9
0 0

0101101
*
Ed
 1.5e-07 1 1 0
1  14 0 0.5 156.6
2  27 3 0 0.5 156.6
2  28 4 0 0.5 156.6
0

0101000
+100 6 -71 6 *
Ed
 1.5e-07 1 1 0
1  15 0 1 19
2  29 3 0 1 19
2  30 6 0 1 19
0

0101000
+93 6 -71 6 *
Wi

0101100
-70 0 +69 0 +92 0 +99 0 *
Fa
0  1e-07 3 0

0111000
+68 0 *
Ve
1.5e-07
-78 1302.1 614.9
0 0

0101101
*
Ed
 1.5e-07 1 1 0
1  16 0 -443.5 312.5
2  31 4 0 -443.5 312.5
2  32 6 0 -443.5 312.5
0

0101000
+71 6 -66 6 *
Ed
 1.5e-07 1 1 0
1  17 0 0.5 156.6
2  33 4 0 0.5 156.6
2  34 5 0 0.5 156.6
0

0101000
+98 6 -66 6 *
Wi

0101100
+65 5 +70 5 -64 5 +97 5 *
Ve
1.5e-07
430 1188 614.9
0 0

0101101
*
Ve
1.5e-07
170 1188 614.9
0 0

0101101
*
Ed
 1.5e-07 1 1 0
1  18 0 -390 -130
2  35 4 0 -390 -130
2  36 7 0 -390 -130
0

0101000
+62 6 -61 6 *
Ve
1.5e-07
430 1248 614.9
0 0

0101101
*
Ed
 1.5e-07 1 1 0
1  19 0 21 81
2  37 4 0 21 81
2  38 8 0 21 81
0

0101000
+62 6 -59 6 *
Ve
1.5e-07
170 1248 614.9
0 0

0101101
*
Ed
 1.5e-07 1 1 0
1  20 0 21 81
2  39 4 0 21 81
2  40 9 0 21 81
0

0101000
+61 6 -57 6 *
Ed
 1.5e-07 1 1 0
1  21 0 -390 -130
2  41 4 0 -390 -130
2  42 10 0 -390 -130
0

0101000
+59 6 -57 6 *
Wi

0101100
+60 5 -58 5 +56 5 -55 5 *
Ve
1e-07
134.5 1260 614.9
0 0

0101101
*
Ed
 1e-07 1 1 0
1  22 0 0 6.28318530717959
2  43 4 5 0 6.28318530717959
2  44 11 0 0 6.28318530717959
0

0101100
+53 7 -53 7 *
Wi

0101100
-52 0 *
Ve
1e-07
189.5 1268 614.9
0 0

0101101
*
Ed
 1e-07 1 1 0
1  23 0 0 6.28318530717959
2  45 4 5 0 6.28318530717959
2  46 13 0 0 6.28318530717959
0

0101100
+50 7 -50 7 *
Wi

0101100
-49 0 *
Ve
1e-07
474.5 1260 614.9
0 0

0101101
*
Ed
 1e-07 1 1 0
1  24 0 0 6.28318530717959
2  47 4 5 0 6.28318530717959
2  48 12 0 0 6.28318530717959
0

0101100
+47 7 -47 7 *
Wi

0101100
-46 0 *
Ve
1e-07
419.5 1268 614.9
0 0

0101101
*
Ed
 1e-07 1 1 0
1  25 0 0 6.28318530717959
2  49 4 5 0 6.28318530717959
2  50 14 0 0 6.28318530717959
0

0101100
+44 7 -44 7 *
Wi

0101100
-43 0 *
Fa
0  1e-07 4 5

0111000
+63 0 +54 0 +51 0 +48 0 +45 0 +42 0 *
Ed
 1.5e-07 1 1 0
1  26 0 1 19
2  51 5 0 1 19
2  52 6 0 1 19
0

0101000
+91 6 -66 6 *
Wi

0101100
-64 0 +40 0 +89 0 +96 0 *
Fa
0  1e-07 5 0

0111000
+39 0 *
Wi

0101000
+90 0 +40 0 -65 0 -69 0 *
Fa
0  1.5e-07 6 0

0111000
+37 0 *
Ed
 1e-07 1 1 0
1  27 0 26.9 44.9
2  53 7 0 26.9 44.9
2  54 8 0 26.9 44.9
0

0101000
+87 6 -62 6 *
Ed
 1e-07 1 1 0
1  28 0 26.9 44.9
2  55 7 0 26.9 44.9
2  56 9 0 26.9 44.9
0

0101000
+86 6 -61 6 *
Wi

0101100
-35 0 -60 0 +34 0 +85 0 *
Fa
0  1e-07 7 0

0111000
+33 0 *
Ed
 1e-07 1 1 0
1  29 0 26.9 44.9
2  57 8 0 26.9 44.9
2  58 10 0 26.9 44.9
0

0101000
+84 6 -59 6 *
Wi

0101100
-35 0 -58 0 +31 0 +83 0 *
Fa
0  1e-07 8 0

0111000
+30 0 *
Ed
 1e-07 1 1 0
1  30 0 26.9 44.9
2  59 9 0 26.9 44.9
2  60 10 0 26.9 44.9
0

0101000
+82 6 -57 6 *
Wi

0101100
-34 0 -56 0 +28 0 +81 0 *
Fa
0  1e-07 9 0

0111000
+27 0 *
Wi

0101100
-31 0 -55 0 +28 0 +80 0 *
Fa
0  1e-07 10 0

0111000
+25 0 *
Ed
 1e-07 1 1 0
1  31 0 0.899999999999977 18.9
3  61 62CN 11 0 0.899999999999977 18.9
0

0101000
+78 7 -53 7 *
Wi

0101100
-52 0 +23 0 +77 0 -23 0 *
Fa
0  1e-07 11 0

0111000
+22 0 *
Ed
 1e-07 1 1 0
1  32 0 0.899999999999977 18.9
3  63 64CN 12 0 0.899999999999977 18.9
0

0101000
+75 7 -47 7 *
Wi

0101100
-46 0 +20 0 +74 0 -20 0 *
Fa
0  1e-07 12 0

0111000
+19 0 *
Ve
1e-07
189.5 1268 611.9
0 0

0101101
*
Ed
 1e-07 1 1 0
1  33 0 0 3
3  65 66CN 13 0 0 3
0

0101000
+17 7 -50 7 *
Ed
 1e-07 1 1 0
1  34 0 0 6.28318530717959
2  67 13 0 0 6.28318530717959
2  68 15 0 0 6.28318530717959
2  69 16 9 0 6.28318530717959
2  70 16 11 0 6.28318530717959
0

0101000
+17 7 -17 7 *
Wi

0101100
-49 0 +16 0 +15 0 -16 0 *
Fa
0  1e-07 13 0

0111000
+14 0 *
Ve
1e-07
419.5 1268 611.9
0 0

0101101
*
Ed
 1e-07 1 1 0
1  35 0 0 3
3  71 72CN 14 0 0 3
0

0101000
+12 7 -44 7 *
Ed
 1e-07 1 1 0
1  36 0 0 6.28318530717959
2  73 14 0 0 6.28318530717959
2  74 17 0 0 6.28318530717959
2  75 18 13 0 6.28318530717959
2  76 18 15 0 6.28318530717959
0

0101000
+12 7 -12 7 *
Wi

0101100
-43 0 +11 0 +10 0 -11 0 *
Fa
0  1e-07 14 0

0111000
+9 0 *
Wi

0101100
-15 0 *
Fa
0  1e-07 15 0

0111000
-7 0 *
Wi

0101100
-10 0 *
Fa
0  1e-07 17 0

0111000
-5 0 *
Sh

0101100
-94 5 -72 0 +67 5 +41 0 -38 5 +36 5 +32 5 -29 5 +26 5 -24 5 
-21 0 -18 0 -13 0 -8 0 +6 0 +4 0 *
So

0100000
+3 0 *
Co

1100000
+2 0 *

+1 4 