DBRep_DrawableShape

CASCADE Topology V1, (c) Matra-Datavision
Locations 12
1
              1               0               0               0 
              0               1               0               0 
              0               0               1               0 
1
              1               0               0               0 
              0               1               0               0 
              0               0               1               0 
1
             -1               0 -1.22464679914735e-16               0 
              0               1               0               0 
1.22464679914735e-16               0              -1               0 
1
              1               0               0             678 
              0               1               0           -1146 
              0               0               1           614.9 
1
              1               0               0               0 
              0               1               0               0 
              0               0               1             -18 
1
              1               0               0               0 
              0               1               0               0 
              0               0               1               1 
1
              1               0               0               0 
              0               1               0               0 
              0               0               1              -1 
2  1 1 2 1 3 1 4 1 5 1 6 1 7 1 0
2  1 1 2 1 3 1 4 1 0
2  4 -1 3 -1 2 -1 1 -1 0
1
              1               0               0               0 
              0               1               0               0 
              0               0               1              18 
2  1 1 2 1 3 1 4 1 5 1 6 1 7 1 11 1 0
Curve2ds 24
8 -390 -130
1 130 42 -1 0 
8 -390 -130
1 44.899999999999977 -130 0 -1 
8 21 81
1 260 21 0 1 
8 21 81
1 44.899999999999977 21 0 -1 
8 -390 -130
1 130 102 -1 0 
8 -390 -130
1 44.899999999999977 -130 0 -1 
8 21 81
1 520 21 0 1 
8 21 81
1 44.899999999999977 21 0 -1 
1 0 260 1 0 
1 0 0 1 0 
1 0 0 1 0 
1 0 0 1 0 
8 -390 -130
1 130 42 -1 0 
8 -390 -130
1 26.899999999999977 -130 0 -1 
1 0 -60 1 0 
1 0 0 1 0 
8 21 81
1 260 21 0 1 
8 21 81
1 26.899999999999977 21 0 -1 
1 0 -60 1 0 
1 0 260 1 0 
8 -390 -130
1 130 102 -1 0 
8 -390 -130
1 26.899999999999977 -130 0 -1 
8 21 81
1 520 21 0 1 
8 21 81
1 26.899999999999977 21 0 -1 
Curves 12
1 40 1188 614.89999999999998 -1 -0 0 
1 170 1167 614.89999999999998 -0 1 0 
1 40 1248 614.89999999999998 -1 -0 0 
1 430 1167 614.89999999999998 -0 1 0 
1 430 1188 570 0 0 1 
1 170 1188 570 0 0 1 
1 40 1188 596.89999999999998 -1 -0 0 
1 170 1248 570 0 0 1 
1 170 1167 596.89999999999998 -0 1 0 
1 430 1248 570 0 0 1 
1 40 1248 596.89999999999998 -1 -0 0 
1 430 1167 596.89999999999998 -0 1 0 
Polygon3D 0
PolygonOnTriangulations 0
Surfaces 7
1 -90 1146 596.89999999999998 0 0 1 1 0 -0 -0 1 0 
1 -90 1146 614.89999999999998 0 0 1 1 0 -0 -0 1 0 
1 170 1188 570 -0 1 0 0 0 1 1 0 -0 
1 170 1188 570 1 0 -0 0 0 1 0 -1 0 
1 170 1248 570 -0 1 0 0 0 1 1 0 -0 
1 430 1188 570 1 0 -0 0 0 1 0 -1 0 
1 -90 1146 596.89999999999998 0 0 1 1 0 -0 -0 1 0 
Triangulations 0

TShapes 34
Ve
1.50000102872506e-07
248 42 0
0 0

0101101
*
Ve
1.5000007103169e-07
508 42 0
0 0

0101101
*
Ed
 1.50000055111281e-07 1 1 0
1  1 0 -390 -130
2  1 2 0 -390 -130
2  2 3 0 -390 -130
0

0101000
+34 10 -33 10 *
Ve
1.5000007103169e-07
508 102 0
0 0

0101101
*
Ed
 1.5000007103169e-07 1 1 0
1  2 0 21 81
2  3 2 0 21 81
2  4 4 0 21 81
0

0101000
+33 10 -31 10 *
Ve
1.50000102872506e-07
248 102 0
0 0

0101101
*
Ed
 1.50000055111281e-07 1 1 0
1  3 0 -390 -130
2  5 2 0 -390 -130
2  6 5 0 -390 -130
0

0101000
+29 10 -31 10 *
Ed
 1.50000102872506e-07 1 1 0
1  4 0 21 81
2  7 2 0 21 81
2  8 6 0 21 81
0

0101000
+34 10 -29 10 *
Wi

0101100
-32 9 -30 9 +28 9 +27 9 *
Fa
0  1.50000039190873e-07 1 8

0101000
+26 0 *
Ve
1.50000103139719e-07
248 42 18
0 0

0101101
*
Ed
 1e-07 1 1 0
1  5 0 26.9 44.9
2  9 3 0 26.9 44.9
2  10 6 0 26.9 44.9
0

0101000
+24 10 -34 10 *
Ve
1.50000071165296e-07
508 42 18
0 0

0101101
*
Ed
 1e-07 1 1 0
1  6 0 26.9 44.9
2  11 3 0 26.9 44.9
2  12 4 0 26.9 44.9
0

0101000
+22 10 -33 10 *
Ed
 1.50000056954441e-07 1 1 0
1  7 0 -390 -130
2  13 7 0 -390 -130
2  14 3 0 -390 -130
0

0101000
+24 10 -22 10 *
Wi

0101100
-23 9 -32 9 +21 9 +20 9 *
Fa
0  1e-07 3 9

0101000
+19 0 *
Ve
1.50000071165296e-07
508 102 18
0 0

0101101
*
Ed
 1e-07 1 1 0
1  8 0 26.9 44.9
2  15 4 0 26.9 44.9
2  16 5 0 26.9 44.9
0

0101000
+17 10 -31 10 *
Ed
 1.50000071165296e-07 1 1 0
1  9 0 21 81
2  17 7 0 21 81
2  18 4 0 21 81
0

0101000
+22 10 -17 10 *
Wi

0101100
-21 9 -30 9 +16 9 +15 9 *
Fa
0  1e-07 4 9

0101000
+14 0 *
Ve
1.50000103139719e-07
248 102 18
0 0

0101101
*
Ed
 1e-07 1 1 0
1  10 0 26.9 44.9
2  19 6 0 26.9 44.9
2  20 5 0 26.9 44.9
0

0101000
+12 10 -29 10 *
Ed
 1.50000056954441e-07 1 1 0
1  11 0 -390 -130
2  21 7 0 -390 -130
2  22 5 0 -390 -130
0

0101000
+12 10 -17 10 *
Wi

0101100
-11 9 -28 9 +16 9 +10 9 *
Fa
0  1e-07 5 9

0101000
+9 0 *
Ed
 1.50000103139719e-07 1 1 0
1  12 0 21 81
2  23 7 0 21 81
2  24 6 0 21 81
0

0101000
+24 10 -12 10 *
Wi

0101100
-23 9 -27 9 +11 9 +7 9 *
Fa
0  1e-07 6 9

0101000
+6 0 *
Wi

0101100
-20 9 -15 9 +10 9 +7 9 *
Fa
0  1.50000039190873e-07 1 12

0101000
+4 0 *
Sh

0101100
+25 0 -18 0 -13 0 +8 0 +5 0 -3 0 *
So

0100000
+2 0 *

+1 0 