DBRep_DrawableShape

CASCADE Topology V1, (c) Matra-Datavision
Locations 19
1
              1               0               0               0 
              0               1               0               0 
              0               0               1               0 
1
              1               0               0               0 
              0               1               0               0 
              0               0               1               0 
1
              1               0               0              78 
              0               1               0           -1120 
              0               0               1         -1302.8 
1
              1               0               0               0 
              0               1               0               0 
              0               0               1              -0 
1
              1               0               0               0 
              0               1               0               0 
              0               0               1               1 
1
              1               0               0               0 
              0               1               0               0 
              0               0               1              -1 
2  1 1 2 1 3 1 4 1 5 1 6 1 0
2  6 -1 5 -1 4 -1 3 -1 2 -1 1 -1 0
1
              1               0               0               0 
              0               1               0               0 
              0               0               1               0 
1
              1               0               0               0 
              0               1               0               0 
              0               0               1              18 
2  1 1 2 1 3 1 4 1 5 1 6 1 10 1 0
2  10 -1 6 -1 5 -1 4 -1 3 -1 2 -1 1 -1 0
2  9 1 1 1 2 1 3 1 4 1 5 1 6 1 0
2  6 -1 5 -1 4 -1 3 -1 2 -1 1 -1 9 -1 0
2  9 1 1 1 2 1 3 1 4 1 5 1 6 1 10 1 0
2  10 -1 6 -1 5 -1 4 -1 3 -1 2 -1 1 -1 9 -1 0
2  9 1 1 1 2 1 3 1 4 1 5 1 0
2  1 1 2 1 3 1 4 1 5 1 0
2  6 1 10 1 0
Curve2ds 24
1 0 0 0 -1 
1 0 0 0 -1 
1 756 0 0 -1 
1 0 0 0 -1 
1 0 0 1 0 
1 12 64.805926232905222 1 0 
1 0 -18 1 0 
1 12 64.805926232905222 1 0 
1 182.09999999999991 0 0 -1 
1 756 0 0 -1 
1 -65.305926232905222 0 1 0 
8 0.5 253.40592623290513
1 12 -0.5 0 1 
1 -65.305926232905222 -18 1 0 
8 0.5 253.40592623290513
1 12 -0.5 0 1 
1 0 -0 0 -1 
1 182.09999999999991 0 0 -1 
1 762.5 0 1 0 
1 5.5 246.90592623290513 -1 0 
1 762.5 -18 1 0 
1 5.5 246.90592623290513 -1 0 
1 -65.305926232905222 0 1 0 
8 0.5 253.40592623290513
1 768 -0.5 0 1 
1 -65.305926232905222 -18 1 0 
8 0.5 253.40592623290513
1 768 -0.5 0 1 
Curves 12
1 0 0 0 0 0 1 
1 756 0 0 0 0 1 
1 -78 1120 1302.8 1 0 -0 
1 -78 1120 1302.8 1 0 -0 
1 0 182.09999999999991 0 0 0 1 
1 -78 1054.6940737670948 1302.8 -0 1 0 
1 -78 1054.6940737670948 1302.8 -0 1 0 
1 756 182.09999999999991 0 0 0 1 
1 -84.5 1302.0999999999999 1302.8 -1 -0 0 
1 -84.5 1302.0999999999999 1302.8 -1 -0 0 
1 678 1054.6940737670948 1302.8 -0 1 0 
1 678 1054.6940737670948 1302.8 -0 1 0 
Polygon3D 0
PolygonOnTriangulations 0
Surfaces 6
1 0 0 0 0 1 0 1 0 0 0 0 -1 
1 0 0 0 -1 0 0 0 1 0 0 0 -1 
1 756 0 0 -1 0 0 0 1 0 0 0 -1 
1 -90 1055.1940737670948 1302.8 0 0 1 1 0 -0 -0 1 0 
1 -90 1055.1940737670948 1302.8 0 0 1 1 0 -0 -0 1 0 
1 756 182.09999999999991 0 0 -1 0 -1 0 0 -0 -0 -1 
Triangulations 0

TShapes 34
Ve
1.5e-07
0 0 0
0 0

0101101
*
Ve
1.5e-07
0 0 18
0 0

0101101
*
Ed
 1.5e-07 1 1 0
1  1 0 0 18
2  1 1 0 0 18
2  2 2 0 0 18
0

0101000
+34 0 -33 0 *
Ve
1.5e-07
756 0 0
0 0

0101101
*
Ve
1.5e-07
756 0 18
0 0

0101101
*
Ed
 1.5e-07 1 1 0
1  2 0 0 18
2  3 1 0 0 18
2  4 3 0 0 18
0

0101000
+31 0 -30 0 *
Ed
 1.5e-07 1 1 0
1  3 0 0 756
2  5 1 8 0 756
2  6 4 9 0 756
0

0101000
+34 8 -31 8 *
Ed
 1.5e-07 1 1 0
1  4 0 0 756
2  7 1 12 0 756
2  8 5 9 0 756
0

0101000
+33 12 -30 12 *
Wi

0101100
+32 0 -29 0 -28 7 +27 11 *
Fa
0  1.5e-07 1 0

0101000
+26 0 *
Ve
1.5e-07
0 182.1 0
0 0

0101101
*
Ve
1.5e-07
0 182.1 18
0 0

0101101
*
Ed
 1.5e-07 1 1 0
1  5 0 0 18
2  9 2 0 0 18
2  10 6 0 0 18
0

0101000
+24 0 -23 0 *
Ed
 1.5e-07 1 1 0
1  6 0 65.3059262329052 247.405926232905
2  11 2 14 65.3059262329052 247.405926232905
2  12 4 0 65.3059262329052 247.405926232905
0

0101000
+34 14 -24 14 *
Ed
 1.5e-07 1 1 0
1  7 0 65.3059262329052 247.405926232905
2  13 2 16 65.3059262329052 247.405926232905
2  14 5 0 65.3059262329052 247.405926232905
0

0101000
+33 16 -23 16 *
Wi

0101100
+32 0 -22 0 -21 13 +20 15 *
Fa
0  1.5e-07 2 0

0101000
+19 0 *
Ve
1.5e-07
756 182.1 0
0 0

0101101
*
Ve
1.5e-07
756 182.1 18
0 0

0101101
*
Ed
 1.5e-07 1 1 0
1  8 0 0 18
2  15 6 0 0 18
2  16 3 0 0 18
0

0101000
+17 0 -16 0 *
Ed
 1.5e-07 1 1 0
1  9 0 -762.5 -6.5
2  17 6 14 -762.5 -6.5
2  18 4 0 -762.5 -6.5
0

0101000
+17 14 -24 14 *
Ed
 1.5e-07 1 1 0
1  10 0 -762.5 -6.5
2  19 6 16 -762.5 -6.5
2  20 5 0 -762.5 -6.5
0

0101000
+16 16 -23 16 *
Wi

0101100
+15 0 -22 0 -14 13 +13 15 *
Fa
0  1.5e-07 6 0

0101000
+12 0 *
Ed
 1.5e-07 1 1 0
1  11 0 65.3059262329052 247.405926232905
2  21 3 14 65.3059262329052 247.405926232905
2  22 4 0 65.3059262329052 247.405926232905
0

0101000
+31 14 -17 14 *
Ed
 1.5e-07 1 1 0
1  12 0 65.3059262329052 247.405926232905
2  23 3 16 65.3059262329052 247.405926232905
2  24 5 0 65.3059262329052 247.405926232905
0

0101000
+30 16 -16 16 *
Wi

0101100
+29 0 -15 0 -10 13 +9 15 *
Fa
0  1.5e-07 3 0

0101000
+8 0 *
Wi

0101100
+28 18 -21 17 +14 17 +10 17 *
Fa
0  1.5e-07 4 17

0101000
+6 0 *
Wi

0101100
+27 18 -20 17 +13 17 +9 17 *
Fa
0  1.5e-07 5 17

0101000
+4 0 *
Sh

0101100
+25 0 -18 0 +11 0 +7 0 +5 6 -3 19 *
So

1100000
-2 0 *

+1 0 