DBRep_DrawableShape

CASCADE Topology V1, (c) Matra-Datavision
Locations 11
1
              1               0               0               0 
              0               1               0               0 
              0               0               1              -1 
1
              1               0               0               0 
              0               1               0               0 
              0               0               1               0 
1
              1               0               0               0 
              0               1               0               0 
              0               0               1               0 
1
              1               0               0              78 
              0               1               0           -1120 
              0               0               1         -1302.8 
1
              1               0               0               0 
              0               1               0               0 
              0               0               1              -0 
1
              1               0               0               0 
              0               1               0               0 
              0               0               1               1 
2  2 1 3 1 4 1 5 1 6 1 0
1
              1               0               0               0 
              0               1               0               0 
              0               0               1               0 
2  6 -1 5 -1 4 -1 3 -1 2 -1 0
2  8 1 2 1 3 1 4 1 5 1 6 1 0
2  6 -1 5 -1 4 -1 3 -1 2 -1 8 -1 0
Curve2ds 4
1 12 64.805926232905222 1 0 
8 0.5 253.40592623290513
1 12 -0.5 0 1 
1 5.5 246.90592623290513 -1 0 
8 0.5 253.40592623290513
1 768 -0.5 0 1 
Curves 4
1 -78 1120 1302.8 1 0 -0 
1 -78 1054.6940737670948 1302.8 -0 1 0 
1 -84.5 1302.0999999999999 1302.8 -1 -0 0 
1 678 1054.6940737670948 1302.8 -0 1 0 
Polygon3D 0
PolygonOnTriangulations 0
Surfaces 1
1 -90 1055.1940737670948 1302.8 0 0 1 1 0 -0 -0 1 0 
Triangulations 0

TShapes 9
Ve
1.5e-07
0 0 1
0 0

0101101
*
Ve
1.5e-07
756 0 1
0 0

0101101
*
Ed
 1.5e-07 1 1 0
1  1 0 0 756
2  1 1 8 0 756
0

0101000
+9 9 -8 9 *
Ve
1.5e-07
0 182.1 1
0 0

0101101
*
Ed
 1.5e-07 1 1 0
1  2 0 65.3059262329052 247.405926232905
2  2 1 0 65.3059262329052 247.405926232905
0

0101000
+9 11 -6 11 *
Ve
1.5e-07
756 182.1 1
0 0

0101101
*
Ed
 1.5e-07 1 1 0
1  3 0 -762.5 -6.5
2  3 1 0 -762.5 -6.5
0

0101000
+4 11 -6 11 *
Ed
 1.5e-07 1 1 0
1  4 0 65.3059262329052 247.405926232905
2  4 1 0 65.3059262329052 247.405926232905
0

0101000
+8 11 -4 11 *
Wi

0101100
+7 7 -5 10 +3 10 +2 10 *

+1 1 