DBRep_DrawableShape

CASCADE Topology V1, (c) Matra-Datavision
Locations 0
Curve2ds 0
Curves 4
1 0 0 0 1 0 0 
1 756 -65.305926232905207 0 0 1 0 
1 -6.5 182.09999999999991 0 -1 0 0 
1 0 -65.305926232905207 0 0 1 0 
Polygon3D 0
PolygonOnTriangulations 0
Surfaces 0
Triangulations 0

TShapes 9
Ve
1e-07
0 0 0
0 0

0101101
*
Ve
1e-07
756 0 0
0 0

0101101
*
Ed
 1e-07 1 1 0
1  1 0 -0 756
0

0101000
+9 0 -8 0 *
Ve
1e-07
756 182.1 0
0 0

0101101
*
Ed
 1e-07 1 1 0
1  2 0 65.3059262329052 247.405926232905
0

0101000
+8 0 -6 0 *
Ve
1e-07
0 182.1 0
0 0

0101101
*
Ed
 1e-07 1 1 0
1  3 0 -762.5 -6.5
0

0101000
+6 0 -4 0 *
Ed
 1e-07 1 1 0
1  4 0 65.3059262329052 247.405926232905
0

0101000
+9 0 -4 0 *
Wi

0101100
+7 0 +5 0 +3 0 -2 0 *

+1 0 