DBRep_DrawableShape

CASCADE Topology V1, (c) Matra-Datavision
Locations 39
1
              1               0               0               0 
              0               1               0               0 
              0               0               1               0 
1
              1               0               0               0 
              0 1.11022302462516e-16              -1               0 
              0               1 1.11022302462516e-16               0 
1
              1               0               0              90 
              0               1               0          1320.8 
              0               0               1         -1290.1 
1
              1               0               0               0 
              0               1               0               0 
              0               0               1 -12.0000000000005 
1
              1               0               0               0 
              0               1               0               0 
              0               0               1               1 
1
              1               0               0               0 
              0               1               0               0 
              0               0               1              -1 
2  1 1 2 1 3 1 4 1 5 1 6 1 0
2  5 -1 4 -1 3 -1 2 -1 1 -1 0
2  1 1 2 1 3 1 0
2  3 -1 2 -1 1 -1 0
1
              1               0               0               0 
              0               1               0               0 
              0               0               1               0 
2  11 1 1 1 2 1 3 1 4 1 5 1 6 1 0
2  11 -1 0
2  5 -1 4 -1 3 -1 2 -1 1 -1 11 -1 0
1
              1               0               0               0 
              0               1               0               0 
              0               0               1               0 
2  15 1 1 1 2 1 3 1 4 1 5 1 6 1 0
2  15 -1 0
2  5 -1 4 -1 3 -1 2 -1 1 -1 15 -1 0
1
              1               0               0              18 
              0               1               0               0 
              0               0               1               0 
2  19 1 15 1 0
1
              1               0               0               0 
              0               1               0               0 
              0               0               1               0 
1
              1               0               0               0 
              0               1               0               0 
              0               0               1               0 
2  15 1 1 1 2 1 3 1 0
2  3 -1 2 -1 1 -1 15 -1 0
2  11 1 1 1 2 1 3 1 0
2  3 -1 2 -1 1 -1 11 -1 0
2  1 -1 15 -1 0
2  22 1 1 1 2 1 3 1 0
2  22 -1 0
2  1 -1 22 -1 0
2  1 -1 11 -1 0
2  21 1 1 1 2 1 3 1 0
2  21 -1 0
2  1 -1 21 -1 0
2  19 1 15 1 1 1 2 1 3 1 0
2  21 1 15 -1 0
2  22 1 15 -1 0
2  21 1 11 -1 0
2  22 1 11 -1 0
Curve2ds 36
1 361.95000000000005 315.5 0 -1 
1 705.5 12 -1 0 
1 361.95000000000005 315.5 0 -1 
1 362.45000000000005 390 -1 0 
1 362.45000000000005 -390 -1 0 
1 -361.94999999999993 -390.5 0 -1 
8 -520.76277623173291 185.13722376826706
1 -185.13722376826718 -98.333992123943062 -1 0 
8 -520.76277623173291 185.13722376826706
1 185.13722376826706 18.000000000000028 -1 0 
8 12 768
1 0 144.09999999999991 1 0 
8 12 768
1 18 0 0 1 
8 -520.76277623173291 185.13722376826706
1 -185.13722376826718 -98.333992123943062 -1 0 
8 -520.76277623173291 185.13722376826706
1 185.13722376826706 762 -1 0 
8 12 768
1 0 234.90592623290513 1 0 
8 12 768
1 705.89999999999998 0 0 1 
1 -0.5 -12 1 0 
1 362.45000000000005 -390 -1 0 
1 -0.5 -12 1 0 
1 362.45000000000005 390 -1 0 
1 -0.5 12 -1 0 
1 -361.94999999999993 -390.5 0 -1 
1 -4.1622237682671539 -372 1 0 
8 -339.78777623173278 366.1122237682672
1 -4.1622237682670402 -110.33399212394261 -1 0 
1 -343.94999999999993 -384.5 0 -1 
1 5.5 246.90592623290513 -1 0 
1 -4.1622237682669265 372 1 0 
8 -339.78777623173301 366.11222376826697
1 -4.1622237682672676 -110.33399212394261 -1 0 
1 343.95000000000005 -65.5 0 -1 
1 324.5 156.09999999999991 -1 0 
8 -139.21699606197149 22.883003938028423
1 -352.27444753653424 22.883003938028423 0 1 
1 18.000000000000028 22.883003938028423 0 -1 
8 -184.6199591784241 68.285967054481034
1 335.62555246346574 68.285967054481034 0 1 
1 18.000000000000028 68.285967054481034 0 -1 
1 762 22.883003938028423 0 -1 
8 -139.21699606197149 22.883003938028423
1 -352.27444753653424 22.883003938028423 0 1 
1 762 68.285967054481034 0 -1 
8 -184.6199591784241 68.285967054481034
1 335.62555246346574 68.285967054481034 0 1 
Curves 24
1 615.5 1302.0999999999999 596.89999999999998 -1 0 0 
1 0 723.89999999999986 -4.5474735088646412e-13 0 0 1 
1 615.5 1302.0999999999999 596.89999999999998 -1 0 0 
1 780 723.89999999999986 -4.5474735088646412e-13 0 0 1 
1 690 1302.0999999999999 596.39999999999998 0 0 1 
1 -90 1302.0999999999999 596.39999999999998 0 0 1 
1 -90.5 1302.0999999999999 1320.8 -1 0 0 
1 -71.999999999999972 1290.0999999999999 782.03722376826704 0 0 -1 
1 -90 1290.0999999999999 614.89999999999998 1 0 -0 
1 672 1290.0999999999999 782.03722376826704 0 0 -1 
1 -90 1290.0999999999999 1302.8 1 0 -0 
1 0 0 -2.2737367544323206e-13 0 0 1 
1 -90 1302.0999999999999 596.39999999999998 0 0 1 
1 690 1302.0999999999999 596.39999999999998 0 0 1 
1 -90.5 1302.0999999999999 1320.8 -1 0 0 
1 -71.999999999999972 1302.0999999999995 963.01222376826718 0 0 -1 
1 -84.5 1302.0999999999999 1302.8 -1 -0 0 
1 672 1302.0999999999995 963.01222376826695 0 0 -1 
1 234.5 1302.0999999999999 614.89999999999998 -1 -0 0 
1 780 0 -2.2737367544323206e-13 0 0 1 
1 -71.999999999999972 1168.8830039380284 614.89999999999998 0 -1 0 
1 -71.999999999999972 1123.4800408215758 1302.8 0 -1 0 
1 672 1168.8830039380284 614.89999999999998 0 -1 0 
1 672 1123.4800408215758 1302.8 0 -1 0 
Polygon3D 0
PolygonOnTriangulations 0
Surfaces 15
1 780 723.89999999999986 -4.5474735088646412e-13 0 -1 0 -1 0 0 -0 -0 -1 
1 300 1302.1000000000001 958.85000000000002 -0 -1 -0 0 0 -1 1 -0 0 
1 -90 1290.0999999999999 596.89999999999998 0 0 1 1 0 -0 -0 1 0 
1 300 1302.1000000000001 958.85000000000002 -0 -1 -0 0 0 -1 1 -0 0 
1 -89.999999999999972 1191.7660078760568 967.17444753653422 1 0 0 -0 0 1 0 -1 0 
1 -90 1290.0999999999999 596.89999999999998 -0 1 0 0 0 1 1 0 -0 
1 -90 1146 614.89999999999998 0 0 1 1 0 -0 -0 1 0 
1 672 1191.7660078760568 967.17444753653422 1 0 0 -0 0 1 0 -1 0 
1 -90 1055.1940737670948 1302.8 0 0 1 1 0 -0 -0 1 0 
1 0 723.89999999999986 -4.5469183973523286e-13 1 0 -0 0 -1 1.1102230246251565e-16 0 -1.1102230246251565e-16 -1 
1 -90 1290.0999999999999 596.89999999999998 1 0 -0 0 0 1 0 -1 0 
1 690 1290.0999999999999 596.89999999999998 1 0 -0 0 0 1 0 -1 0 
1 -90 1290.0999999999999 1320.8 0 0 1 1 0 -0 -0 1 0 
1 780 723.89999999999986 -4.5469183973523286e-13 1 0 -0 0 -1 1.1102230246251565e-16 0 -1.1102230246251565e-16 -1 
1 780 0 -2.2737367544323206e-13 0 -1 0 -1 0 0 -0 -0 -1 
Triangulations 0

TShapes 64
Ve
1.5e-07
780 723.9 0.999999999999545
0 0

0101101
*
Ve
1.5e-07
0 723.9 0.999999999999545
0 0

0101101
*
Ed
 1.5e-07 1 1 0
1  1 0 -74.5 705.5
2  1 2 0 -74.5 705.5
0

0101000
+64 8 -63 8 *
Ve
1.5e-07
0 723.9 12
0 0

0101101
*
Ed
 1.5e-07 1 1 0
1  2 0 0 12.0000000000005
0

0101000
+63 6 -61 0 *
Ve
1.5e-07
780 723.9 12
0 0

0101101
*
Ed
 1.5e-07 1 1 0
1  3 0 -74.5 705.5
2  2 3 0 -74.5 705.5
2  3 4 0 -74.5 705.5
0

0101000
+59 10 -61 10 *
Ed
 1.5e-07 1 1 0
1  4 0 0 12.0000000000005
0

0101000
+64 6 -59 0 *
Wi

0101100
-62 7 -60 0 +58 9 +57 0 *
Fa
0  1.5e-07 1 0

0101000
+56 0 *
Ve
1.5e-07
780 0 0.999999999999773
0 0

0101101
*
Ed
 1.5e-07 1 1 0
1  5 0 0.5 724.4
2  4 2 13 0.5 724.4
0

0101000
+64 14 -54 14 *
Ve
1.5e-07
0 0 0.999999999999773
0 0

0101101
*
Ed
 1.5e-07 1 1 0
1  6 0 0.5 724.4
2  5 2 17 0.5 724.4
0

0101000
+63 18 -52 18 *
Ed
 1.5e-07 1 1 0
1  7 0 -780.5 -0.5
2  6 2 0 -780.5 -0.5
0

0101000
+54 8 -52 8 *
Wi

0101100
-62 7 +53 12 -51 16 +50 7 *
Ve
1.5000041656123e-07
18 18 2.27373675443232e-13
0 0

0101101
*
Ve
1.50000265559796e-07
18 705.9 0
0 0

0101101
*
Ed
 1.50000247003837e-07 1 1 0
1  8 0 -520.762776231733 167.137223768267
2  7 5 20 -520.762776231733 167.137223768267
2  8 6 0 -520.762776231733 167.137223768267
0

0101000
+48 10 -47 10 *
Ve
1.50000265559796e-07
762 705.9 0
0 0

0101101
*
Ed
 1.50000265559796e-07 1 1 0
1  9 0 18 762
2  9 7 21 18 762
2  10 6 0 18 762
0

0101000
+47 10 -45 10 *
Ve
1.5000041656123e-07
762 18 2.27373675443232e-13
0 0

0101101
*
Ed
 1.50000247003837e-07 1 1 0
1  10 0 -520.762776231733 167.137223768267
2  11 8 11 -520.762776231733 167.137223768267
2  12 6 0 -520.762776231733 167.137223768267
0

0101000
+43 10 -45 10 *
Ed
 1.5000041656123e-07 1 1 0
1  11 0 18 762
2  13 9 22 18 762
2  14 6 0 18 762
0

0101000
+48 10 -43 10 *
Wi

0101100
-46 9 -44 9 +42 9 +41 9 *
Fa
0  1.5e-07 2 7

0101000
+49 0 +40 0 *
Ve
1.5e-07
0 0 12.0000000000002
0 0

0101101
*
Ed
 1.5e-07 1 1 0
1  12 0 0 12.0000000000005
0

0101000
+52 6 -38 0 *
Ed
 1.5e-07 1 1 0
1  13 0 0.5 724.4
2  15 11 17 0.5 724.4
2  16 4 17 0.5 724.4
0

0101000
+61 24 -38 24 *
Wi

0101100
-51 16 -37 0 +36 23 +60 0 *
Fa
0  1.5e-07 10 0

0101000
+35 0 *
Ve
1.5e-07
780 0 12.0000000000002
0 0

0101101
*
Ed
 1.5e-07 1 1 0
1  14 0 0.5 724.4
2  17 12 13 0.5 724.4
2  18 4 13 0.5 724.4
0

0101000
+59 26 -33 26 *
Ed
 1.5e-07 1 1 0
1  15 0 -780.5 -0.5
2  19 13 0 -780.5 -0.5
2  20 4 0 -780.5 -0.5
0

0101000
+33 10 -38 10 *
Wi

0101100
-58 9 +32 25 +31 9 -36 23 *
Ve
2e-07
-72 1302.1 1302.8
0 0

0101101
*
Ve
2e-07
-72 1302.1 614.9
0 0

0101101
*
Ed
 2e-07 1 1 0
1  16 0 -339.787776231733 348.112223768267
2  21 4 17 -339.787776231733 348.112223768267
2  22 5 19 -339.787776231733 348.112223768267
0

0101000
+29 27 -28 27 *
Ve
2e-07
672 1302.1 1302.8
0 0

0101101
*
Ed
 1.5e-07 1 1 0
1  17 0 -756.5 -12.5
2  23 4 29 -756.5 -12.5
2  24 9 0 -756.5 -12.5
0

0101000
+26 30 -29 30 *
Ve
2e-07
672 1302.1 614.9
0 0

0101101
*
Ed
 2e-07 1 1 0
1  18 0 -339.787776231733 348.112223768267
2  25 4 13 -339.787776231733 348.112223768267
2  26 8 0 -339.787776231733 348.112223768267
0

0101000
+26 31 -24 31 *
Ed
 1.5e-07 1 1 0
1  19 0 -437.5 306.5
2  27 4 33 -437.5 306.5
2  28 7 0 -437.5 306.5
0

0101000
+24 34 -28 34 *
Wi

0101100
-27 23 -25 28 +23 25 +22 32 *
Fa
0  1.5e-07 4 9

0101000
+30 0 +21 0 *
Ed
 1.5e-07 1 1 0
1  20 0 0 12.0000000000005
0

0101000
+54 6 -33 0 *
Wi

0101100
-53 12 -19 0 +32 25 +57 0 *
Fa
0  1.5e-07 14 0

0101000
+18 0 *
Wi

0101100
-50 7 -37 0 +31 9 +19 0 *
Fa
0  1.5e-07 15 0

0101000
+16 0 *
Ed
 1.5e-07 1 1 0
1  21 0 -133.216996061971 -121.216996061971
2  29 5 19 -133.216996061971 -121.216996061971
2  30 7 36 -133.216996061971 -121.216996061971
0

0101000
+28 27 -47 24 *
Ed
 1.5e-07 1 1 0
1  22 0 -178.619959178424 -166.619959178424
2  31 5 19 -178.619959178424 -166.619959178424
2  32 9 37 -178.619959178424 -166.619959178424
0

0101000
+29 27 -48 24 *
Wi

0101100
-27 23 -14 23 +46 9 +13 23 *
Fa
0  1e-07 5 35

0101000
+12 0 *
Ed
 1.5e-07 1 1 0
1  23 0 -133.216996061971 -121.216996061971
2  33 7 38 -133.216996061971 -121.216996061971
2  34 8 0 -133.216996061971 -121.216996061971
0

0101000
+24 31 -45 26 *
Wi

0101100
-10 25 +44 9 +14 23 +22 32 *
Fa
0  1e-07 7 32

0101000
+9 0 *
Ed
 1.5e-07 1 1 0
1  24 0 -178.619959178424 -166.619959178424
2  35 9 39 -178.619959178424 -166.619959178424
2  36 8 0 -178.619959178424 -166.619959178424
0

0101000
+26 31 -43 26 *
Wi

0101100
-23 25 -10 25 +42 9 +7 25 *
Fa
0  1e-07 8 25

0101000
+6 0 *
Wi

0101100
+41 9 +13 23 +25 28 -7 25 *
Fa
0  1e-07 9 28

0101000
+4 0 *
Sh

0101100
-55 0 +39 0 -34 0 -20 0 +17 0 +15 0 +11 0 +8 0 -5 0 -3 0 
*
So

0100000
+2 0 *

+1 0 