DBRep_DrawableShape

CASCADE Topology V1, (c) Matra-Datavision
Locations 0
Curve2ds 0
Curves 4
1 705.5 723.89999999999986 -2.2737367544323211e-13 -1 0 0 
1 0 724.39999999999986 -2.2737367544323211e-13 0 -1 -0 
1 -0.5 0 -2.2737367544323211e-13 -1 0 0 
1 780 724.39999999999986 -2.2737367544323211e-13 0 -1 -0 
Polygon3D 0
PolygonOnTriangulations 0
Surfaces 0
Triangulations 0

TShapes 9
Ve
1e-07
780 723.9 -2.27373675443232e-13
0 0

0101101
*
Ve
1e-07
0 723.9 -2.27373675443232e-13
0 0

0101101
*
Ed
 1e-07 1 1 0
1  1 0 -74.5 705.5
0

0101000
+9 0 -8 0 *
Ve
1e-07
0 -1.13686837721616e-13 -2.27373675443232e-13
0 0

0101101
*
Ed
 1e-07 1 1 0
1  2 0 0.5 724.4
0

0101000
+8 0 -6 0 *
Ve
1e-07
780 0 -2.27373675443232e-13
0 0

0101101
*
Ed
 1e-07 1 1 0
1  3 0 -780.5 -0.5
0

0101000
+4 0 -6 0 *
Ed
 1e-07 1 1 0
1  4 0 0.5 724.4
0

0101000
+9 0 -4 0 *
Wi

0101100
+7 0 +5 0 -3 0 -2 0 *

+1 0 