DBRep_DrawableShape

CASCADE Topology V1, (c) Matra-Datavision
Locations 15
1
              1               0               0               0 
              0               1               0               0 
              0               0               1               0 
1
              1               0               0               0 
              0 1.11022302462516e-16              -1               0 
              0               1 1.11022302462516e-16               0 
1
              1               0               0              90 
              0               1               0          1320.8 
              0               0               1         -1290.1 
1
              1               0               0               0 
              0               1               0               0 
              0               0               1 -12.0000000000005 
1
              1               0               0               0 
              0               1               0               0 
              0               0               1               1 
1
              1               0               0               0 
              0               1               0               0 
              0               0               1              -1 
2  1 1 2 1 3 1 4 1 5 1 6 1 0
2  1 1 2 1 3 1 0
2  3 -1 2 -1 1 -1 0
1
              1               0               0               0 
              0               1               0               0 
              0               0               1               0 
2  10 1 1 1 2 1 3 1 0
2  10 -1 0
2  3 -1 2 -1 1 -1 10 -1 0
1
              1               0               0               0 
              0               1               0               0 
              0               0               1 18.0000000000002 
2  1 1 2 1 3 1 4 1 5 1 6 1 14 1 0
Curve2ds 72
8 24 708
1 -24 1 1 0 
8 24 708
1 665.10000000000002 24 0 1 
8 -636.54999999999995 -28.549999999999955
1 -28.549999999999955 -1 -1 -0 
8 -636.54999999999995 -28.549999999999955
1 28.550000000000068 732 -1 0 
1 0 0 1 0 
1 419.10000000000002 732 0 -1 
1 0 -0 1 0 
1 389.10000000000002 702 1 0 
1 0 0 1 0 
1 389.10000000000002 732 0 -1 
8 -636.54999999999995 -28.549999999999955
1 -28.549999999999955 -1 -1 -0 
8 -636.54999999999995 -28.549999999999955
1 28.550000000000068 732 -1 0 
8 24 708
1 -24 1 1 0 
8 24 708
1 57.100000000000023 24 0 1 
8 -636.54999999999995 -28.549999999999955
1 -28.549999999999955 -1 -1 -0 
8 -636.54999999999995 -28.549999999999955
1 28.550000000000068 48 -1 0 
1 0 0 1 0 
1 389.10000000000002 48 0 1 
1 0 0 1 0 
1 389.10000000000002 78 1 0 
1 0 0 1 0 
1 419.10000000000002 48 0 1 
8 -636.54999999999995 -28.549999999999955
1 -28.549999999999955 -1 -1 -0 
8 -636.54999999999995 -28.549999999999955
1 28.550000000000068 48 -1 0 
1 0 0 0 1 
1 608 0 0 -1 
8 24 708
1 665.10000000000002 24 0 1 
8 24 708
1 -24 19 1 0 
1 684 0 0 1 
1 608 0 0 -1 
8 -636.54999999999995 -28.549999999999955
1 28.550000000000068 732 -1 0 
8 -636.54999999999995 -28.549999999999955
1 -28.549999999999955 -19 -1 -0 
1 362 -1 0 -1 
1 0 0 0 1 
1 419.10000000000002 732 0 -1 
1 0 18 1 0 
1 30 0 0 1 
1 30 -0 0 -1 
1 389.10000000000002 702 1 0 
1 0 -18 1 0 
1 0 -0 0 -1 
1 30 0 0 1 
1 332 -1 0 -1 
1 0 0 0 1 
1 389.10000000000002 732 0 -1 
1 0 18 1 0 
8 -636.54999999999995 -28.549999999999955
1 28.550000000000068 732 -1 0 
8 -636.54999999999995 -28.549999999999955
1 -28.549999999999955 -19 -1 -0 
1 0 0 0 -1 
1 684 0 0 1 
1 0 0 0 1 
1 0 0 0 -1 
8 24 708
1 57.100000000000023 24 0 1 
8 24 708
1 -24 19 1 0 
1 332 -1 0 -1 
1 0 0 0 1 
8 -636.54999999999995 -28.549999999999955
1 28.550000000000068 48 -1 0 
8 -636.54999999999995 -28.549999999999955
1 -28.549999999999955 -19 -1 -0 
1 389.10000000000002 48 0 1 
1 0 18 1 0 
1 30 0 0 1 
1 0 0 0 -1 
1 30 0 0 1 
1 30 0 0 -1 
1 389.10000000000002 78 1 0 
1 0 -18 1 0 
1 362 -1 0 -1 
1 0 0 0 1 
1 419.10000000000002 48 0 1 
1 0 18 1 0 
8 -636.54999999999995 -28.549999999999955
1 28.550000000000068 48 -1 0 
8 -636.54999999999995 -28.549999999999955
1 -28.549999999999955 -19 -1 -0 
Curves 36
1 -66 1290.0999999999999 1262 1 0 -0 
1 642 1290.0999999999999 625.45000000000005 -0 0 -1 
1 642 1290.0999999999999 1016 -1 0 -0 
1 612 1290.0999999999999 986 -0 -0 1 
1 642 1290.0999999999999 986 -1 0 -0 
1 642 1290.0999999999999 625.45000000000005 -0 0 -1 
1 -66 1290.0999999999999 654 1 0 -0 
1 -42 1290.0999999999999 625.45000000000005 -0 0 -1 
1 -42 1290.0999999999999 986 1 0 -0 
1 -12 1290.0999999999999 986 0 0 1 
1 -42 1290.0999999999999 1016 1 0 -0 
1 -42 1290.0999999999999 625.45000000000005 -0 0 -1 
1 -42 1289.0999999999999 1262 -0 1 0 
1 -66 1308.0999999999999 1262 1 0 -0 
1 642 1289.0999999999999 1262 -0 1 0 
1 642 1308.0999999999999 625.45000000000005 -0 0 -1 
1 642 1290.0999999999999 1016 0 1 -0 
1 642 1308.0999999999999 1016 -1 0 -0 
1 612 1290.0999999999999 1016 0 1 -0 
1 612 1308.0999999999999 986 -0 -0 1 
1 612 1290.0999999999999 986 0 1 -0 
1 642 1290.0999999999999 986 0 1 -0 
1 642 1308.0999999999999 986 -1 0 -0 
1 642 1308.0999999999999 625.45000000000005 -0 0 -1 
1 642 1289.0999999999999 654 -0 1 0 
1 -42 1289.0999999999999 654 -0 1 0 
1 -66 1308.0999999999999 654 1 0 -0 
1 -42 1290.0999999999999 986 -0 1 0 
1 -42 1308.0999999999999 625.45000000000005 -0 0 -1 
1 -42 1308.0999999999999 986 1 0 -0 
1 -12 1290.0999999999999 986 -0 1 0 
1 -12 1290.0999999999999 1016 -0 1 0 
1 -12 1308.0999999999999 986 0 0 1 
1 -42 1290.0999999999999 1016 -0 1 0 
1 -42 1308.0999999999999 1016 1 0 -0 
1 -42 1308.0999999999999 625.45000000000005 -0 0 -1 
Polygon3D 0
PolygonOnTriangulations 0
Surfaces 15
1 300 1302.1000000000001 958.85000000000002 -0 -1 -0 0 0 -1 1 -0 0 
1 -42 1289.0999999999999 1262 0 0 1 1 0 -0 -0 1 0 
1 -90 1290.0999999999999 596.89999999999998 -0 1 0 0 0 1 1 0 -0 
1 642 1289.0999999999999 654 1 0 -0 0 0 1 0 -1 0 
1 642 1290.0999999999999 1016 -0 -0 1 -1 0 0 0 1 0 
1 612 1290.0999999999999 986 -1 0 -0 -0 -0 1 -0 -1 -0 
1 642 1290.0999999999999 986 -0 -0 1 -1 0 0 0 1 0 
1 642 1289.0999999999999 654 1 0 -0 0 0 1 0 -1 0 
1 -42 1289.0999999999999 654 0 0 1 1 0 -0 -0 1 0 
1 -42 1289.0999999999999 654 1 0 -0 0 0 1 0 -1 0 
1 -42 1290.0999999999999 986 0 0 1 1 0 -0 -0 1 0 
1 -12 1290.0999999999999 986 1 0 -0 0 0 1 0 -1 0 
1 -42 1290.0999999999999 1016 0 0 1 1 0 -0 -0 1 0 
1 -42 1289.0999999999999 654 1 0 -0 0 0 1 0 -1 0 
1 -90 1308.0999999999999 596.89999999999998 -0 1 0 0 0 1 1 0 -0 
Triangulations 0

TShapes 90
Ve
1.5000042109094e-07
48 58.8 2.27373675443232e-13
0 0

0101101
*
Ve
1.5000042109094e-07
732 58.8 2.27373675443232e-13
0 0

0101101
*
Ed
 1.5000042109094e-07 1 1 0
1  1 0 24 708
2  1 2 0 24 708
2  2 3 0 24 708
0

0101000
+90 9 -89 9 *
Ve
1.50000264388511e-07
732 304.8 0
0 0

0101101
*
Ed
 1.50000264388511e-07 1 1 0
1  2 0 -636.55 -390.55
2  3 4 0 -636.55 -390.55
2  4 3 0 -636.55 -390.55
0

0101000
+89 9 -87 9 *
Ve
1.5000022435942e-07
702 304.8 0
0 0

0101101
*
Ed
 1.50000221028751e-07 1 1 0
1  3 0 0 30
2  5 5 0 0 30
2  6 3 12 0 30
0

0101000
+87 13 -85 13 *
Ve
1.5000022435942e-07
702 334.8 0
0 0

0101101
*
Ed
 1.5000022435942e-07 1 1 0
1  4 0 0 30
2  7 6 0 0 30
2  8 3 12 0 30
0

0101000
+83 13 -85 13 *
Ve
1.50000264388511e-07
732 334.8 0
0 0

0101101
*
Ed
 1.5000022435942e-07 1 1 0
1  5 0 0 30
2  9 7 0 0 30
2  10 3 12 0 30
0

0101000
+81 13 -83 13 *
Ve
1.50000264388511e-07
732 666.8 0
0 0

0101101
*
Ed
 1.50000264388511e-07 1 1 0
1  6 0 -360.55 -28.55
2  11 8 0 -360.55 -28.55
2  12 3 0 -360.55 -28.55
0

0101000
+81 9 -79 9 *
Ve
1.50000264388511e-07
48 666.8 0
0 0

0101101
*
Ed
 1.50000261218824e-07 1 1 0
1  7 0 24 708
2  13 9 0 24 708
2  14 3 0 24 708
0

0101000
+77 9 -79 9 *
Ve
1.50000264388511e-07
48 334.8 0
0 0

0101101
*
Ed
 1.50000264388511e-07 1 1 0
1  8 0 -360.55 -28.55
2  15 10 0 -360.55 -28.55
2  16 3 0 -360.55 -28.55
0

0101000
+75 9 -77 9 *
Ve
1.5000022435942e-07
78 334.8 0
0 0

0101101
*
Ed
 1.5000022435942e-07 1 1 0
1  9 0 0 30
2  17 11 0 0 30
2  18 3 0 0 30
0

0101000
+75 9 -73 9 *
Ve
1.5000022435942e-07
78 304.8 0
0 0

0101101
*
Ed
 1.5000022435942e-07 1 1 0
1  10 0 0 30
2  19 12 0 0 30
2  20 3 0 0 30
0

0101000
+73 9 -71 9 *
Ve
1.50000264388511e-07
48 304.8 0
0 0

0101101
*
Ed
 1.50000221028751e-07 1 1 0
1  11 0 0 30
2  21 13 0 0 30
2  22 3 0 0 30
0

0101000
+69 9 -71 9 *
Ed
 1.50000264388511e-07 1 1 0
1  12 0 -636.55 -390.55
2  23 14 0 -636.55 -390.55
2  24 3 0 -636.55 -390.55
0

0101000
+90 9 -69 9 *
Wi

0101100
-88 8 -86 8 -84 11 +82 11 +80 11 -78 8 +76 8 +74 8 -72 8 -70 8 
+68 8 +67 8 *
Fa
0  1.5e-07 1 7

0101000
+66 0 *
Ve
1.50000195399252e-07
48 58.8 18.0000000000002
0 0

0101101
*
Ed
 1e-07 1 1 0
1  13 0 1 19
2  25 2 0 1 19
2  26 14 0 1 19
0

0101000
+90 9 -64 9 *
Ve
1.50000195399252e-07
732 58.8 18.0000000000002
0 0

0101101
*
Ed
 1.50000195399252e-07 1 1 0
1  14 0 24 708
2  27 15 0 24 708
2  28 2 0 24 708
0

0101000
+64 9 -62 9 *
Ed
 1e-07 1 1 0
1  15 0 1 19
2  29 2 0 1 19
2  30 4 0 1 19
0

0101000
+89 9 -62 9 *
Wi

0101100
-63 8 -61 8 +60 8 +88 8 *
Fa
0  1e-07 2 8

0101000
+59 0 *
Ve
1.5000003907985e-07
732 304.8 18
0 0

0101101
*
Ed
 1.5000003907985e-07 1 1 0
1  16 0 -636.55 -390.55
2  31 15 0 -636.55 -390.55
2  32 4 0 -636.55 -390.55
0

0101000
+62 9 -57 9 *
Ed
 1e-07 1 1 0
1  17 0 0 18
2  33 4 12 0 18
2  34 5 0 0 18
0

0101000
+87 13 -57 13 *
Wi

0101100
-60 8 -56 8 +55 11 +86 8 *
Fa
0  1e-07 4 8

0101000
+54 0 *
Ve
1.50000007105427e-07
702 304.8 18
0 0

0101101
*
Ed
 1.50000007105427e-07 1 1 0
1  18 0 0 30
2  35 15 12 0 30
2  36 5 0 0 30
0

0101000
+57 13 -52 13 *
Ed
 1e-07 1 1 0
1  19 0 0 18
2  37 5 0 0 18
2  38 6 0 0 18
0

0101000
+85 13 -52 13 *
Wi

0101100
-55 11 -51 11 +50 11 +84 11 *
Fa
0  1e-07 5 11

0101000
+49 0 *
Ve
1.50000003552714e-07
702 334.8 18
0 0

0101101
*
Ed
 1.50000003552714e-07 1 1 0
1  20 0 0 30
2  39 15 12 0 30
2  40 6 0 0 30
0

0101000
+47 13 -52 13 *
Ed
 1e-07 1 1 0
1  21 0 0 18
2  41 6 0 0 18
2  42 7 0 0 18
0

0101000
+83 13 -47 13 *
Wi

0101100
-82 11 -50 11 +46 11 +45 11 *
Fa
0  1e-07 6 11

0101000
+44 0 *
Ve
1.5000003907985e-07
732 334.8 18
0 0

0101101
*
Ed
 1e-07 1 1 0
1  22 0 0 18
2  43 8 12 0 18
2  44 7 0 0 18
0

0101000
+81 13 -42 13 *
Ed
 1.50000003552714e-07 1 1 0
1  23 0 0 30
2  45 15 12 0 30
2  46 7 0 0 30
0

0101000
+42 13 -47 13 *
Wi

0101100
-41 11 -40 11 +45 11 +80 11 *
Fa
0  1e-07 7 11

0101000
+39 0 *
Ve
1.5000003907985e-07
732 666.8 18
0 0

0101101
*
Ed
 1.5000003907985e-07 1 1 0
1  24 0 -360.55 -28.55
2  47 15 0 -360.55 -28.55
2  48 8 0 -360.55 -28.55
0

0101000
+42 9 -37 9 *
Ed
 1e-07 1 1 0
1  25 0 1 19
2  49 8 0 1 19
2  50 9 0 1 19
0

0101000
+79 9 -37 9 *
Wi

0101100
-41 11 -36 8 +35 8 +78 8 *
Fa
0  1e-07 8 8

0101000
+34 0 *
Ve
1.5000003907985e-07
48 666.8 18
0 0

0101101
*
Ed
 1e-07 1 1 0
1  26 0 1 19
2  51 9 0 1 19
2  52 10 0 1 19
0

0101000
+77 9 -32 9 *
Ed
 1.50000035527137e-07 1 1 0
1  27 0 24 708
2  53 15 0 24 708
2  54 9 0 24 708
0

0101000
+32 9 -37 9 *
Wi

0101100
-31 8 -30 8 +35 8 +76 8 *
Fa
0  1e-07 9 8

0101000
+29 0 *
Ve
1.5000003907985e-07
48 334.8 18
0 0

0101101
*
Ed
 1e-07 1 1 0
1  28 0 0 18
2  55 10 0 0 18
2  56 11 0 0 18
0

0101000
+75 9 -27 9 *
Ed
 1.5000003907985e-07 1 1 0
1  29 0 -360.55 -28.55
2  57 15 0 -360.55 -28.55
2  58 10 0 -360.55 -28.55
0

0101000
+27 9 -32 9 *
Wi

0101100
-26 8 -25 8 +31 8 +74 8 *
Fa
0  1e-07 10 8

0101000
+24 0 *
Ve
1.50000003552714e-07
78 334.8 18
0 0

0101101
*
Ed
 1.50000003552714e-07 1 1 0
1  30 0 0 30
2  59 15 0 0 30
2  60 11 0 0 30
0

0101000
+27 9 -22 9 *
Ed
 1e-07 1 1 0
1  31 0 0 18
2  61 11 0 0 18
2  62 12 0 0 18
0

0101000
+73 9 -22 9 *
Wi

0101100
-26 8 -21 8 +20 8 +72 8 *
Fa
0  1e-07 11 8

0101000
+19 0 *
Ve
1.50000007105427e-07
78 304.8 18
0 0

0101101
*
Ed
 1e-07 1 1 0
1  32 0 0 18
2  63 13 0 0 18
2  64 12 0 0 18
0

0101000
+71 9 -17 9 *
Ed
 1.50000003552714e-07 1 1 0
1  33 0 0 30
2  65 15 0 0 30
2  66 12 0 0 30
0

0101000
+22 9 -17 9 *
Wi

0101100
-70 8 -16 8 +15 8 +20 8 *
Fa
0  1e-07 12 8

0101000
+14 0 *
Ve
1.5000003907985e-07
48 304.8 18
0 0

0101101
*
Ed
 1e-07 1 1 0
1  34 0 0 18
2  67 14 0 0 18
2  68 13 0 0 18
0

0101000
+69 9 -12 9 *
Ed
 1.50000007105427e-07 1 1 0
1  35 0 0 30
2  69 15 0 0 30
2  70 13 0 0 30
0

0101000
+12 9 -17 9 *
Wi

0101100
-11 8 -10 8 +16 8 +68 8 *
Fa
0  1e-07 13 8

0101000
+9 0 *
Ed
 1.5000003907985e-07 1 1 0
1  36 0 -636.55 -390.55
2  71 15 0 -636.55 -390.55
2  72 14 0 -636.55 -390.55
0

0101000
+64 9 -12 9 *
Wi

0101100
-63 8 -7 8 +11 8 +67 8 *
Fa
0  1e-07 14 8

0101000
+6 0 *
Wi

0101100
-61 8 -56 8 -51 11 +46 11 +40 11 -36 8 +30 8 +25 8 -21 8 -15 8 
+10 8 +7 8 *
Fa
0  1.5e-07 1 15

0101000
+4 0 *
Sh

0101100
+65 0 +58 0 +53 0 +48 0 +43 0 -38 0 +33 0 -28 0 -23 0 +18 0 
-13 0 -8 0 -5 0 -3 0 *
So

0100000
+2 0 *

+1 0 