DBRep_DrawableShape

CASCADE Topology V1, (c) Matra-Datavision
Locations 0
Curve2ds 0
Curves 20
1 24 58.799999999999955 1.1267742274574899e-16 1 0 0 
2 730 60.799999999999955 1.1267742274574899e-16 -0 0 -1 0 1 0 1 0 -0 2
1 732 695.3499999999998 1.1267742274574899e-16 0 1 0 
2 730 302.79999999999984 1.1267742274574899e-16 0 0 -1 -1 0 0 0 1 0 2
1 732 304.79999999999984 1.1267742274574899e-16 -1 0 0 
1 702 334.79999999999984 1.1267742274574899e-16 0 -1 -0 
1 732 334.79999999999984 1.1267742274574899e-16 -1 0 0 
2 730 336.79999999999984 1.1267742274574899e-16 -0 0 -1 0 1 0 1 0 -0 2
1 732 695.3499999999998 1.1267742274574899e-16 0 1 0 
2 730 664.79999999999984 1.1267742274574899e-16 -0 0 -1 -1 -0 0 0 1 0 2
1 24 666.79999999999984 1.1267742274574899e-16 1 0 0 
2 50 664.79999999999984 1.1267742274574899e-16 -0 -0 -1 0 -1 0 -1 0 0 2
1 48 695.3499999999998 1.1267742274574899e-16 0 1 0 
2 50 336.79999999999984 1.1267742274574899e-16 0 0 -1 1 0 0 0 -1 0 2
1 48 334.79999999999984 1.1267742274574899e-16 1 0 0 
1 78 334.79999999999984 1.1267742274574899e-16 0 -1 -0 
1 48 304.79999999999984 1.1267742274574899e-16 1 0 0 
2 50 302.79999999999984 1.1267742274574899e-16 -0 -0 -1 0 -1 0 -1 0 0 2
1 48 695.3499999999998 1.1267742274574899e-16 0 1 0 
2 50.000000000000114 60.799999999999955 1.1267742274574899e-16 0 0 -1 1 0 0 0 -1 0 2
Polygon3D 0
PolygonOnTriangulations 0
Surfaces 1
1 390.00000000000006 360.93509200181808 1.1267742274574899e-16 0 0 1 1 0 -0 -0 1 0 
Triangulations 0

TShapes 43
Ve
1.50000877407601e-07
50 58.8 1.12677422745749e-16
0 0

0101101
*
Ve
1.50000877407601e-07
730 58.8 1.12677422745749e-16
0 0

0101101
*
Ed
 1.50000877407601e-07 1 1 0
1  1 0 26 706
0

0101000
+43 0 -42 0 *
Ve
1.50000720483128e-07
732 60.8 1.12677422745749e-16
0 0

0101101
*
Ed
 1.50000033541834e-07 1 1 0
1  2 0 1.5707963267949 3.14159265358979
0

0101000
+40 0 -42 0 *
Ve
1.50000718244178e-07
732 302.8 1.12677422745749e-16
0 0

0101101
*
Ed
 1.50000718244178e-07 1 1 0
1  3 0 -634.55 -392.55
0

0101000
+40 0 -38 0 *
Ve
1.50000650033926e-07
730 304.8 1.12677422745749e-16
0 0

0101101
*
Ed
 1.50000006425309e-07 1 1 0
1  4 0 1.5707963267949 3.14159265358979
0

0101000
+36 0 -38 0 *
Ve
1.5000067843658e-07
702 304.8 5.08117588004391e-14
0 0

0101101
*
Ed
 1.50000650033926e-07 1 1 0
1  5 0 2 30
0

0101000
+36 0 -34 0 *
Ve
1.5000067858461e-07
702 334.8 5.11078182736724e-14
0 0

0101101
*
Ed
 1.50000653087039e-07 1 1 0
1  6 0 -0 30
0

0101000
+32 0 -34 0 *
Ve
1.50000650033926e-07
730 334.8 1.12677422745749e-16
0 0

0101101
*
Ed
 1.50000650033926e-07 1 1 0
1  7 0 2 30
0

0101000
+30 0 -32 0 *
Ve
1.50000689840972e-07
732 336.8 1.12677422745749e-16
0 0

0101101
*
Ed
 1.50000002899678e-07 1 1 0
1  8 0 1.5707963267949 3.14159265358979
0

0101000
+28 0 -30 0 *
Ve
1.50000686806363e-07
732 664.8 1.12677422745749e-16
0 0

0101101
*
Ed
 1.50000686806363e-07 1 1 0
1  9 0 -358.55 -30.55
0

0101000
+28 0 -26 0 *
Ve
1.50000650033926e-07
730 666.8 1.12677422745749e-16
0 0

0101101
*
Ed
 1.50000033955927e-07 1 1 0
1  10 0 1.5707963267949 3.14159265358979
0

0101000
+24 0 -26 0 *
Ve
1.50000650033926e-07
50 666.8 1.12677422745749e-16
0 0

0101101
*
Ed
 1.50000650033926e-07 1 1 0
1  11 0 26 706
0

0101000
+22 0 -24 0 *
Ve
1.50000686806363e-07
48 664.8 1.12677422745749e-16
0 0

0101101
*
Ed
 1.50000033955927e-07 1 1 0
1  12 0 1.5707963267949 3.14159265358979
0

0101000
+20 0 -22 0 *
Ve
1.50000689840972e-07
48 336.8 1.12677422745749e-16
0 0

0101101
*
Ed
 1.50000686806363e-07 1 1 0
1  13 0 -358.55 -30.55
0

0101000
+18 0 -20 0 *
Ve
1.50000650033926e-07
50 334.8 1.12677422745749e-16
0 0

0101101
*
Ed
 1.50000002899678e-07 1 1 0
1  14 0 1.5707963267949 3.14159265358979
0

0101000
+16 0 -18 0 *
Ve
1.5000067858461e-07
78 334.8 5.11078182736724e-14
0 0

0101101
*
Ed
 1.50000650033926e-07 1 1 0
1  15 0 2 30
0

0101000
+16 0 -14 0 *
Ve
1.5000067843658e-07
78 304.8 5.08117588004391e-14
0 0

0101101
*
Ed
 1.50000653087039e-07 1 1 0
1  16 0 0 30
0

0101000
+14 0 -12 0 *
Ve
1.50000650033926e-07
50 304.8 1.12677422745749e-16
0 0

0101101
*
Ed
 1.50000650033926e-07 1 1 0
1  17 0 2 30
0

0101000
+10 0 -12 0 *
Ve
1.50000718244178e-07
48 302.8 1.12677422745749e-16
0 0

0101101
*
Ed
 1.50000006425309e-07 1 1 0
1  18 0 1.5707963267949 3.14159265358979
0

0101000
+8 0 -10 0 *
Ve
1.50000720483128e-07
48 60.7999999999998 1.12677422745749e-16
0 0

0101101
*
Ed
 1.50000718244178e-07 1 1 0
1  19 0 -634.55 -392.55
0

0101000
+6 0 -8 0 *
Ed
 1.50000033541834e-07 1 1 0
1  20 0 1.57079632679495 3.14159265358974
0

0101000
+43 0 -6 0 *
Wi

0101100
-41 0 +39 0 -37 0 +35 0 -33 0 +31 0 +29 0 +27 0 -25 0 +23 0 
+21 0 +19 0 +17 0 +15 0 -13 0 -11 0 +9 0 +7 0 +5 0 +4 0 
*
Fa
0  1e-07 1 0

0101000
-3 0 *
Sh

1101000
+2 0 *

+1 0 