DBRep_DrawableShape

CASCADE Topology V1, (c) Matra-Datavision
Locations 16
1
              1               0               0               0 
              0               1               0               0 
              0               0               1              -1 
1
              1               0               0               0 
              0               1               0               0 
              0               0               1               0 
1
              1               0               0               0 
              0 1.11022302462516e-16              -1               0 
              0               1 1.11022302462516e-16               0 
1
              1               0               0              90 
              0               1               0          1320.8 
              0               0               1         -1290.1 
1
              1               0               0               0 
              0               1               0               0 
              0               0               1 -12.0000000000005 
1
              1               0               0               0 
              0               1               0               0 
              0               0               1               1 
2  2 1 3 1 4 1 5 1 6 1 0
2  6 -1 5 -1 4 -1 3 -1 2 -1 0
1
              1               0               0               0 
              0               1               0               0 
              0               0               1               0 
2  9 1 2 1 3 1 4 1 5 1 6 1 0
2  9 -1 0
2  6 -1 5 -1 4 -1 3 -1 2 -1 9 -1 0
1
              1               0               0               0 
              0               1               0               0 
              0               0               1               0 
2  13 1 2 1 3 1 4 1 5 1 6 1 0
2  13 -1 0
2  6 -1 5 -1 4 -1 3 -1 2 -1 13 -1 0
Curve2ds 4
1 361.95000000000005 315.5 0 -1 
1 362.45000000000005 -390 -1 0 
1 -361.94999999999993 -390.5 0 -1 
1 362.45000000000005 390 -1 0 
Curves 4
1 615.5 1302.0999999999999 596.89999999999998 -1 0 0 
1 -90 1302.0999999999999 596.39999999999998 0 0 1 
1 -90.5 1302.0999999999999 1320.8 -1 0 0 
1 690 1302.0999999999999 596.39999999999998 0 0 1 
Polygon3D 0
PolygonOnTriangulations 0
Surfaces 1
1 300 1302.1000000000001 958.85000000000002 -0 -1 -0 0 0 -1 1 -0 0 
Triangulations 0

TShapes 9
Ve
1.5e-07
780 723.9 0.999999999999545
0 0

0101101
*
Ve
1.5e-07
0 723.9 0.999999999999545
0 0

0101101
*
Ed
 1.5e-07 1 1 0
1  1 0 -74.5 705.5
2  1 1 0 -74.5 705.5
0

0101000
+9 8 -8 8 *
Ve
1.5e-07
0 0 0.999999999999773
0 0

0101101
*
Ed
 1.5e-07 1 1 0
1  2 0 0.5 724.4
2  2 1 11 0.5 724.4
0

0101000
+8 12 -6 12 *
Ve
1.5e-07
780 0 0.999999999999773
0 0

0101101
*
Ed
 1.5e-07 1 1 0
1  3 0 -780.5 -0.5
2  3 1 0 -780.5 -0.5
0

0101000
+4 8 -6 8 *
Ed
 1.5e-07 1 1 0
1  4 0 0.5 724.4
2  4 1 15 0.5 724.4
0

0101000
+9 16 -4 16 *
Wi

0101100
+7 7 +5 10 -3 7 -2 14 *

+1 1 