DBRep_DrawableShape

CASCADE Topology V1, (c) Matra-Datavision
Locations 26
1
              1               0               0               0 
              0               1               0               0 
              0               0               1               0 
1
              1               0               0               0 
              0 1.11022302462516e-16              -1               0 
              0               1 1.11022302462516e-16               0 
1
              1               0               0              90 
              0               1               0          1320.8 
              0               0               1         -1290.1 
2  1 1 2 1 3 1 0
1
              1               0               0               0 
              0               1               0               0 
              0               0               1               0 
2  5 -1 0
2  1 -1 5 -1 0
2  1 -1 0
1
              1               0               0               0 
              0               1               0               0 
              0               0               1               0 
2  9 -1 0
2  1 -1 9 -1 0
1
              1               0               0              18 
              0               1               0               0 
              0               0               1               0 
1
              1               0               0               0 
              0               1               0               0 
              0               0               1               0 
2  13 -1 0
2  1 -1 13 -1 0
1
              1               0               0               0 
              0               1               0               0 
              0               0               1               0 
2  16 -1 0
2  1 -1 16 -1 0
2  12 1 5 1 0
2  16 1 5 -1 0
2  13 1 5 -1 0
2  13 1 9 -1 0
2  16 1 9 -1 0
1
              1               0               0               0 
              0               1               0               0 
              0               0               1               0 
2  24 -1 0
2  1 -1 24 -1 0
Curve2ds 120
1 -0.5 -12 1 0 
1 362.45000000000005 -390 -1 0 
1 723.89999999999998 0 0 -1 
1 0 0 0 1 
1 0 -18 1 0 
1 0 0 1 0 
1 0 0 0 -1 
1 0 0 0 1 
1 0 18 1 0 
1 723.89999999999998 0 0 1 
1 780 0 0 1 
1 723.89999999999998 0 0 -1 
1 -0.5 12 -1 0 
1 -361.94999999999993 -390.5 0 -1 
1 0 18 1 0 
1 0 0 0 1 
1 780 0 0 1 
1 0 0 0 -1 
1 705.5 12 -1 0 
1 361.95000000000005 315.5 0 -1 
1 -0.5 -12 1 0 
1 362.45000000000005 390 -1 0 
1 0 -18 1 0 
1 0 780 1 0 
1 -4.1622237682671539 -372 1 0 
8 -339.78777623173278 366.1122237682672
1 -4.1622237682670402 -110.33399212394261 -1 0 
1 -343.94999999999993 -384.5 0 -1 
1 5.5 246.90592623290513 -1 0 
1 -4.1622237682669265 372 1 0 
8 -339.78777623173301 366.11222376826697
1 -4.1622237682672676 -110.33399212394261 -1 0 
1 343.95000000000005 -65.5 0 -1 
1 324.5 156.09999999999991 -1 0 
8 -139.21699606197149 22.883003938028423
1 -352.27444753653424 22.883003938028423 0 1 
1 18.000000000000028 22.883003938028423 0 -1 
8 -520.76277623173291 185.13722376826706
1 -185.13722376826718 -98.333992123943062 -1 0 
8 -520.76277623173291 185.13722376826706
1 185.13722376826706 18.000000000000028 -1 0 
8 -184.6199591784241 68.285967054481034
1 335.62555246346574 68.285967054481034 0 1 
1 18.000000000000028 68.285967054481034 0 -1 
8 12 768
1 0 234.90592623290513 1 0 
8 12 768
1 705.89999999999998 0 0 1 
1 762 68.285967054481034 0 -1 
8 -184.6199591784241 68.285967054481034
1 335.62555246346574 68.285967054481034 0 1 
1 762 22.883003938028423 0 -1 
8 -139.21699606197149 22.883003938028423
1 -352.27444753653424 22.883003938028423 0 1 
8 12 768
1 0 144.09999999999991 1 0 
8 12 768
1 18 0 0 1 
8 -520.76277623173291 185.13722376826706
1 -185.13722376826718 -98.333992123943062 -1 0 
8 -520.76277623173291 185.13722376826706
1 185.13722376826706 762 -1 0 
8 24 708
1 665.10000000000002 24 0 1 
8 24 708
1 -24 19 1 0 
8 -636.54999999999995 -28.549999999999955
1 28.550000000000068 48 -1 0 
8 -636.54999999999995 -28.549999999999955
1 -28.549999999999955 -19 -1 -0 
1 419.10000000000002 48 0 1 
1 0 18 1 0 
1 389.10000000000002 78 1 0 
1 0 -18 1 0 
1 389.10000000000002 48 0 1 
1 0 18 1 0 
8 -636.54999999999995 -28.549999999999955
1 28.550000000000068 48 -1 0 
8 -636.54999999999995 -28.549999999999955
1 -28.549999999999955 -19 -1 -0 
8 24 708
1 57.100000000000023 24 0 1 
8 24 708
1 -24 19 1 0 
8 -636.54999999999995 -28.549999999999955
1 28.550000000000068 732 -1 0 
8 -636.54999999999995 -28.549999999999955
1 -28.549999999999955 -19 -1 -0 
1 389.10000000000002 732 0 -1 
1 0 18 1 0 
1 389.10000000000002 702 1 0 
1 0 -18 1 0 
1 419.10000000000002 732 0 -1 
1 0 18 1 0 
8 -636.54999999999995 -28.549999999999955
1 28.550000000000068 732 -1 0 
8 -636.54999999999995 -28.549999999999955
1 -28.549999999999955 -19 -1 -0 
1 0 0 0 1 
1 608 0 0 -1 
1 684 0 0 1 
1 608 0 0 -1 
8 24 708
1 -24 1 1 0 
8 24 708
1 665.10000000000002 24 0 1 
1 362 -1 0 -1 
1 0 0 0 1 
8 -636.54999999999995 -28.549999999999955
1 -28.549999999999955 -1 -1 -0 
8 -636.54999999999995 -28.549999999999955
1 28.550000000000068 732 -1 0 
1 362 -1 0 -1 
1 0 0 0 1 
8 -636.54999999999995 -28.549999999999955
1 -28.549999999999955 -1 -1 -0 
8 -636.54999999999995 -28.549999999999955
1 28.550000000000068 48 -1 0 
1 30 0 0 1 
1 30 -0 0 -1 
1 0 0 1 0 
1 419.10000000000002 732 0 -1 
1 0 -0 1 0 
1 389.10000000000002 702 1 0 
1 0 -0 0 -1 
1 30 0 0 1 
1 332 -1 0 -1 
1 0 0 0 1 
1 0 0 0 -1 
1 684 0 0 1 
8 -636.54999999999995 -28.549999999999955
1 -28.549999999999955 -1 -1 -0 
8 -636.54999999999995 -28.549999999999955
1 28.550000000000068 732 -1 0 
1 0 0 0 1 
1 0 0 0 -1 
8 24 708
1 -24 1 1 0 
8 24 708
1 57.100000000000023 24 0 1 
1 332 -1 0 -1 
1 0 0 0 1 
8 -636.54999999999995 -28.549999999999955
1 -28.549999999999955 -1 -1 -0 
8 -636.54999999999995 -28.549999999999955
1 28.550000000000068 48 -1 0 
1 0 0 1 0 
1 389.10000000000002 732 0 -1 
1 30 0 0 1 
1 30 0 0 -1 
1 0 0 1 0 
1 419.10000000000002 48 0 1 
1 30 0 0 1 
1 0 0 0 -1 
1 0 0 1 0 
1 389.10000000000002 48 0 1 
1 0 0 1 0 
1 389.10000000000002 78 1 0 
Curves 60
1 -90 1302.0999999999999 596.39999999999998 0 0 1 
1 -90 1290.0999999999999 1320.8 -0 1 0 
1 -90 1308.0999999999999 596.89999999999998 0 0 1 
1 -90 1290.0999999999999 596.89999999999998 -0 1 0 
1 -90 1308.0999999999999 1320.8 1 0 -0 
1 690 1290.0999999999999 1320.8 -0 1 0 
1 -90.5 1302.0999999999999 1320.8 -1 0 0 
1 -90 1308.0999999999999 596.89999999999998 1 0 -0 
1 690 1290.0999999999999 596.89999999999998 -0 1 0 
1 615.5 1302.0999999999999 596.89999999999998 -1 0 0 
1 690 1302.0999999999999 596.39999999999998 0 0 1 
1 690 1308.0999999999999 596.89999999999998 0 0 1 
1 -71.999999999999972 1302.0999999999995 963.01222376826718 0 0 -1 
1 -84.5 1302.0999999999999 1302.8 -1 -0 0 
1 672 1302.0999999999995 963.01222376826695 0 0 -1 
1 234.5 1302.0999999999999 614.89999999999998 -1 -0 0 
1 -71.999999999999972 1168.8830039380284 614.89999999999998 0 -1 0 
1 -71.999999999999972 1290.0999999999999 782.03722376826704 0 0 -1 
1 -71.999999999999972 1123.4800408215758 1302.8 0 -1 0 
1 -90 1290.0999999999999 1302.8 1 0 -0 
1 672 1123.4800408215758 1302.8 0 -1 0 
1 672 1168.8830039380284 614.89999999999998 0 -1 0 
1 -90 1290.0999999999999 614.89999999999998 1 0 -0 
1 672 1290.0999999999999 782.03722376826704 0 0 -1 
1 -66 1308.0999999999999 1262 1 0 -0 
1 -42 1308.0999999999999 625.45000000000005 -0 0 -1 
1 -42 1308.0999999999999 1016 1 0 -0 
1 -12 1308.0999999999999 986 0 0 1 
1 -42 1308.0999999999999 986 1 0 -0 
1 -42 1308.0999999999999 625.45000000000005 -0 0 -1 
1 -66 1308.0999999999999 654 1 0 -0 
1 642 1308.0999999999999 625.45000000000005 -0 0 -1 
1 642 1308.0999999999999 986 -1 0 -0 
1 612 1308.0999999999999 986 -0 -0 1 
1 642 1308.0999999999999 1016 -1 0 -0 
1 642 1308.0999999999999 625.45000000000005 -0 0 -1 
1 -42 1289.0999999999999 1262 -0 1 0 
1 642 1289.0999999999999 1262 -0 1 0 
1 -66 1290.0999999999999 1262 1 0 -0 
1 642 1290.0999999999999 1016 0 1 -0 
1 642 1290.0999999999999 625.45000000000005 -0 0 -1 
1 -42 1290.0999999999999 1016 -0 1 0 
1 -42 1290.0999999999999 625.45000000000005 -0 0 -1 
1 612 1290.0999999999999 1016 0 1 -0 
1 642 1290.0999999999999 1016 -1 0 -0 
1 612 1290.0999999999999 986 -0 -0 1 
1 612 1290.0999999999999 986 0 1 -0 
1 642 1290.0999999999999 986 0 1 -0 
1 642 1289.0999999999999 654 -0 1 0 
1 642 1290.0999999999999 625.45000000000005 -0 0 -1 
1 -42 1289.0999999999999 654 -0 1 0 
1 -66 1290.0999999999999 654 1 0 -0 
1 -42 1290.0999999999999 986 -0 1 0 
1 -42 1290.0999999999999 625.45000000000005 -0 0 -1 
1 642 1290.0999999999999 986 -1 0 -0 
1 -12 1290.0999999999999 1016 -0 1 0 
1 -42 1290.0999999999999 1016 1 0 -0 
1 -12 1290.0999999999999 986 -0 1 0 
1 -42 1290.0999999999999 986 1 0 -0 
1 -12 1290.0999999999999 986 0 0 1 
Polygon3D 0
PolygonOnTriangulations 0
Surfaces 23
1 -90 1290.0999999999999 596.89999999999998 1 0 -0 0 0 1 0 -1 0 
1 300 1302.1000000000001 958.85000000000002 -0 -1 -0 0 0 -1 1 -0 0 
1 -90 1290.0999999999999 1320.8 0 0 1 1 0 -0 -0 1 0 
1 -90 1308.0999999999999 596.89999999999998 -0 1 0 0 0 1 1 0 -0 
1 -90 1290.0999999999999 596.89999999999998 0 0 1 1 0 -0 -0 1 0 
1 690 1290.0999999999999 596.89999999999998 1 0 -0 0 0 1 0 -1 0 
1 -89.999999999999972 1191.7660078760568 967.17444753653422 1 0 0 -0 0 1 0 -1 0 
1 -90 1055.1940737670948 1302.8 0 0 1 1 0 -0 -0 1 0 
1 672 1191.7660078760568 967.17444753653422 1 0 0 -0 0 1 0 -1 0 
1 -90 1146 614.89999999999998 0 0 1 1 0 -0 -0 1 0 
1 -90 1290.0999999999999 596.89999999999998 -0 1 0 0 0 1 1 0 -0 
1 -42 1289.0999999999999 1262 0 0 1 1 0 -0 -0 1 0 
1 -42 1289.0999999999999 654 1 0 -0 0 0 1 0 -1 0 
1 -42 1290.0999999999999 1016 0 0 1 1 0 -0 -0 1 0 
1 -12 1290.0999999999999 986 1 0 -0 0 0 1 0 -1 0 
1 -42 1290.0999999999999 986 0 0 1 1 0 -0 -0 1 0 
1 -42 1289.0999999999999 654 1 0 -0 0 0 1 0 -1 0 
1 -42 1289.0999999999999 654 0 0 1 1 0 -0 -0 1 0 
1 642 1289.0999999999999 654 1 0 -0 0 0 1 0 -1 0 
1 642 1290.0999999999999 986 -0 -0 1 -1 0 0 0 1 0 
1 612 1290.0999999999999 986 -1 0 -0 -0 -0 1 -0 -1 -0 
1 642 1290.0999999999999 1016 -0 -0 1 -1 0 0 0 1 0 
1 642 1289.0999999999999 654 1 0 -0 0 0 1 0 -1 0 
Triangulations 0

TShapes 152
Ve
1.5e-07
-90 1302.1 596.9
0 0

0101101
*
Ve
1.5e-07
-90 1302.1 1320.8
0 0

0101101
*
Ed
 1.5e-07 1 1 0
1  1 0 0.5 724.4
2  1 1 6 0.5 724.4
2  2 2 6 0.5 724.4
0

0101000
+152 7 -151 7 *
Ve
1e-07
-90 1308.1 1320.8
0 0

0101101
*
Ed
 1e-07 1 1 0
1  2 0 12 18
2  3 1 0 12 18
2  4 3 0 12 18
0

0101000
+151 8 -149 8 *
Ve
1e-07
-90 1308.1 596.9
0 0

0101101
*
Ed
 1e-07 1 1 0
1  3 0 0 723.9
2  5 1 0 0 723.9
2  6 4 0 0 723.9
0

0101000
-149 8 +147 8 *
Ed
 1e-07 1 1 0
1  4 0 12 18
2  7 1 0 12 18
2  8 5 0 12 18
0

0101000
+152 8 -147 8 *
Wi

0101100
-150 5 -148 0 +146 0 +145 0 *
Fa
0  1e-07 1 0

0111000
+144 0 *
Ve
1e-07
690 1308.1 1320.8
0 0

0101101
*
Ed
 1e-07 1 1 0
1  5 0 0 780
2  9 3 0 0 780
2  10 4 0 0 780
0

0101000
-142 8 +149 8 *
Ve
1.5e-07
690 1302.1 1320.8
0 0

0101101
*
Ed
 1e-07 1 1 0
1  6 0 12 18
2  11 3 0 12 18
2  12 6 0 12 18
0

0101000
+140 8 -142 8 *
Ed
 1.5e-07 1 1 0
1  7 0 -780.5 -0.5
2  13 3 0 -780.5 -0.5
2  14 2 0 -780.5 -0.5
0

0101000
+140 8 -151 8 *
Wi

0101000
-148 0 -141 0 +139 0 -138 0 *
Fa
0  1e-07 3 0

0111000
+137 0 *
Ve
1e-07
690 1308.1 596.9
0 0

0101101
*
Ed
 1e-07 1 1 0
1  8 0 0 780
2  15 5 0 0 780
2  16 4 0 0 780
0

0101000
-135 8 +147 8 *
Ve
1.5e-07
690 1302.1 596.9
0 0

0101101
*
Ed
 1e-07 1 1 0
1  9 0 12 18
2  17 5 0 12 18
2  18 6 0 12 18
0

0101000
+133 8 -135 8 *
Ed
 1.5e-07 1 1 0
1  10 0 -74.5 705.5
2  19 5 0 -74.5 705.5
2  20 2 0 -74.5 705.5
0

0101000
+133 8 -152 8 *
Wi

0101000
-145 0 -134 0 +132 0 -131 0 *
Fa
0  1e-07 5 0

0111000
+130 0 *
Ed
 1.5e-07 1 1 0
1  11 0 0.5 724.4
2  21 6 10 0.5 724.4
2  22 2 10 0.5 724.4
0

0101000
+133 11 -140 11 *
Ed
 1e-07 1 1 0
1  12 0 0 723.9
2  23 6 0 0 723.9
2  24 4 0 0 723.9
0

0101000
-142 8 +135 8 *
Wi

0101100
-128 9 -139 0 +127 0 +132 0 *
Fa
0  1e-07 6 0

0111000
+126 0 *
Wi

0101100
-131 0 +128 9 +138 0 -150 5 *
Ve
2e-07
-72 1302.1 1302.8
0 0

0101101
*
Ve
2e-07
-72 1302.1 614.9
0 0

0101101
*
Ed
 2e-07 1 1 0
1  13 0 -339.787776231733 348.112223768267
2  25 2 6 -339.787776231733 348.112223768267
2  26 7 12 -339.787776231733 348.112223768267
0

0101000
+123 7 -122 7 *
Ve
2e-07
672 1302.1 1302.8
0 0

0101101
*
Ed
 1.5e-07 1 1 0
1  14 0 -756.5 -12.5
2  27 2 14 -756.5 -12.5
2  28 8 0 -756.5 -12.5
0

0101000
+120 15 -123 15 *
Ve
2e-07
672 1302.1 614.9
0 0

0101101
*
Ed
 2e-07 1 1 0
1  15 0 -339.787776231733 348.112223768267
2  29 2 10 -339.787776231733 348.112223768267
2  30 9 0 -339.787776231733 348.112223768267
0

0101000
+120 11 -118 11 *
Ed
 1.5e-07 1 1 0
1  16 0 -437.5 306.5
2  31 2 17 -437.5 306.5
2  32 10 0 -437.5 306.5
0

0101000
+118 18 -122 18 *
Wi

0101100
-121 5 -119 13 +117 9 +116 16 *
Fa
0  1.5e-07 2 0

0111000
+124 0 +115 0 *
Ve
1.5e-07
-72 1290.1 614.9
0 0

0101101
*
Ed
 1.5e-07 1 1 0
1  17 0 -133.216996061971 -121.216996061971
2  33 7 12 -133.216996061971 -121.216996061971
2  34 10 20 -133.216996061971 -121.216996061971
0

0101000
+122 7 -113 7 *
Ve
1.5e-07
-72 1290.1 1302.8
0 0

0101101
*
Ed
 1.5e-07 1 1 0
1  18 0 -520.762776231733 167.137223768267
2  35 7 19 -520.762776231733 167.137223768267
2  36 11 0 -520.762776231733 167.137223768267
0

0101000
+111 8 -113 8 *
Ed
 1.5e-07 1 1 0
1  19 0 -178.619959178424 -166.619959178424
2  37 7 12 -178.619959178424 -166.619959178424
2  38 8 21 -178.619959178424 -166.619959178424
0

0101000
+123 7 -111 7 *
Wi

0101100
-121 5 -112 5 +110 0 +109 5 *
Fa
0  1e-07 7 19

0111000
+108 0 *
Ve
1.5e-07
672 1290.1 1302.8
0 0

0101101
*
Ed
 1.5e-07 1 1 0
1  20 0 18 762
2  39 8 13 18 762
2  40 11 0 18 762
0

0101000
+111 8 -106 8 *
Ed
 1.5e-07 1 1 0
1  21 0 -178.619959178424 -166.619959178424
2  41 8 22 -178.619959178424 -166.619959178424
2  42 9 0 -178.619959178424 -166.619959178424
0

0101000
+120 11 -106 11 *
Wi

0101100
+105 0 +109 5 +119 13 -104 9 *
Fa
0  1e-07 8 13

0111000
+103 0 *
Ve
1.5e-07
672 1290.1 614.9
0 0

0101101
*
Ed
 1.5e-07 1 1 0
1  22 0 -133.216996061971 -121.216996061971
2  43 10 23 -133.216996061971 -121.216996061971
2  44 9 0 -133.216996061971 -121.216996061971
0

0101000
+118 11 -101 11 *
Ed
 1.5e-07 1 1 0
1  23 0 18 762
2  45 10 16 18 762
2  46 11 0 18 762
0

0101000
+113 8 -101 8 *
Wi

0101100
-100 9 +99 0 +112 5 +116 16 *
Fa
0  1e-07 10 16

0111000
+98 0 *
Ed
 1.5e-07 1 1 0
1  24 0 -520.762776231733 167.137223768267
2  47 9 9 -520.762776231733 167.137223768267
2  48 11 0 -520.762776231733 167.137223768267
0

0101000
+106 8 -101 8 *
Wi

0101100
-117 9 -100 9 +96 0 +104 9 *
Fa
0  1e-07 9 9

0111000
+95 0 *
Wi

0101100
-134 0 +146 0 +141 0 -127 0 *
Ve
1.5e-07
-42 1308.1 1262
0 0

0101101
*
Ve
1.5e-07
642 1308.1 1262
0 0

0101101
*
Ed
 1.5e-07 1 1 0
1  25 0 24 708
2  49 4 0 24 708
2  50 12 0 24 708
0

0101000
+92 8 -91 8 *
Ve
1.5e-07
-42 1308.1 1016
0 0

0101101
*
Ed
 1.5e-07 1 1 0
1  26 0 -636.55 -390.55
2  51 4 0 -636.55 -390.55
2  52 13 0 -636.55 -390.55
0

0101000
+92 8 -89 8 *
Ve
1e-07
-12 1308.1 1016
0 0

0101101
*
Ed
 1e-07 1 1 0
1  27 0 0 30
2  53 4 0 0 30
2  54 14 0 0 30
0

0101000
+89 8 -87 8 *
Ve
1e-07
-12 1308.1 986
0 0

0101101
*
Ed
 1e-07 1 1 0
1  28 0 0 30
2  55 4 0 0 30
2  56 15 0 0 30
0

0101000
-87 8 +85 8 *
Ve
1.5e-07
-42 1308.1 986
0 0

0101101
*
Ed
 1e-07 1 1 0
1  29 0 0 30
2  57 4 0 0 30
2  58 16 0 0 30
0

0101000
+83 8 -85 8 *
Ve
1.5e-07
-42 1308.1 654
0 0

0101101
*
Ed
 1.5e-07 1 1 0
1  30 0 -360.55 -28.55
2  59 4 0 -360.55 -28.55
2  60 17 0 -360.55 -28.55
0

0101000
+83 8 -81 8 *
Ve
1.5e-07
642 1308.1 654
0 0

0101101
*
Ed
 1.5e-07 1 1 0
1  31 0 24 708
2  61 4 0 24 708
2  62 18 0 24 708
0

0101000
+81 8 -79 8 *
Ve
1.5e-07
642 1308.1 986
0 0

0101101
*
Ed
 1.5e-07 1 1 0
1  32 0 -360.55 -28.55
2  63 4 0 -360.55 -28.55
2  64 19 0 -360.55 -28.55
0

0101000
+77 8 -79 8 *
Ve
1e-07
612 1308.1 986
0 0

0101101
*
Ed
 1e-07 1 1 0
1  33 0 0 30
2  65 4 25 0 30
2  66 20 0 0 30
0

0101000
+77 26 -75 26 *
Ve
1e-07
612 1308.1 1016
0 0

0101101
*
Ed
 1e-07 1 1 0
1  34 0 0 30
2  67 4 25 0 30
2  68 21 0 0 30
0

0101000
-73 26 +75 26 *
Ve
1.5e-07
642 1308.1 1016
0 0

0101101
*
Ed
 1e-07 1 1 0
1  35 0 0 30
2  69 4 25 0 30
2  70 22 0 0 30
0

0101000
+71 26 -73 26 *
Ed
 1.5e-07 1 1 0
1  36 0 -636.55 -390.55
2  71 4 0 -636.55 -390.55
2  72 23 0 -636.55 -390.55
0

0101000
+91 8 -71 8 *
Wi

0101100
-90 0 +88 0 +86 0 -84 0 -82 0 +80 0 +78 0 -76 0 +74 24 +72 24 
-70 24 -69 0 *
Fa
0  1e-07 4 0

0111000
+93 0 +68 0 *
Ve
1.5e-07
-42 1290.1 1262
0 0

0101101
*
Ed
 1e-07 1 1 0
1  37 0 1 19
2  73 12 0 1 19
2  74 13 0 1 19
0

0101000
+66 8 -92 8 *
Ve
1.5e-07
642 1290.1 1262
0 0

0101101
*
Ed
 1e-07 1 1 0
1  38 0 1 19
2  75 12 0 1 19
2  76 23 0 1 19
0

0101000
+64 8 -91 8 *
Ed
 1.5e-07 1 1 0
1  39 0 24 708
2  77 12 0 24 708
2  78 11 0 24 708
0

0101000
+66 8 -64 8 *
Wi

0101100
-65 0 -90 0 +63 0 +62 0 *
Fa
0  1e-07 12 0

0111000
+61 0 *
Ve
1.5e-07
642 1290.1 1016
0 0

0101101
*
Ed
 1e-07 1 1 0
1  40 0 0 18
2  79 23 25 0 18
2  80 22 0 0 18
0

0101000
+59 26 -71 26 *
Ed
 1.5e-07 1 1 0
1  41 0 -636.55 -390.55
2  81 23 0 -636.55 -390.55
2  82 11 0 -636.55 -390.55
0

0101000
+64 8 -59 8 *
Wi

0101100
-63 0 -69 0 +58 24 +57 0 *
Fa
0  1e-07 23 0

0111000
+56 0 *
Ve
1.5e-07
-42 1290.1 1016
0 0

0101101
*
Ed
 1e-07 1 1 0
1  42 0 0 18
2  83 13 0 0 18
2  84 14 0 0 18
0

0101000
+54 8 -89 8 *
Ed
 1.5e-07 1 1 0
1  43 0 -636.55 -390.55
2  85 13 0 -636.55 -390.55
2  86 11 0 -636.55 -390.55
0

0101000
+66 8 -54 8 *
Wi

0101100
-65 0 -88 0 +53 0 +52 0 *
Fa
0  1e-07 13 0

0111000
+51 0 *
Ve
1e-07
612 1290.1 1016
0 0

0101101
*
Ed
 1e-07 1 1 0
1  44 0 0 18
2  87 22 0 0 18
2  88 21 0 0 18
0

0101000
-73 26 +49 26 *
Ed
 1e-07 1 1 0
1  45 0 0 30
2  89 22 0 0 30
2  90 11 25 0 30
0

0101000
+59 26 -49 26 *
Wi

0101100
-58 24 -70 24 +48 24 +47 24 *
Fa
0  1e-07 22 24

0111000
+46 0 *
Ve
1e-07
612 1290.1 986
0 0

0101101
*
Ed
 1e-07 1 1 0
1  46 0 0 30
2  91 21 0 0 30
2  92 11 25 0 30
0

0101000
-49 26 +44 26 *
Ed
 1e-07 1 1 0
1  47 0 0 18
2  93 21 0 0 18
2  94 20 0 0 18
0

0101000
-75 26 +44 26 *
Wi

0101100
-43 0 -48 0 +72 0 +42 0 *
Fa
0  1e-07 21 0

0111000
+41 0 *
Ve
1.5e-07
642 1290.1 986
0 0

0101101
*
Ed
 1e-07 1 1 0
1  48 0 0 18
2  95 19 25 0 18
2  96 20 0 0 18
0

0101000
+39 26 -77 26 *
Ve
1.5e-07
642 1290.1 654
0 0

0101101
*
Ed
 1e-07 1 1 0
1  49 0 1 19
2  97 19 0 1 19
2  98 18 0 1 19
0

0101000
+37 8 -79 8 *
Ed
 1.5e-07 1 1 0
1  50 0 -360.55 -28.55
2  99 19 0 -360.55 -28.55
2  100 11 0 -360.55 -28.55
0

0101000
+39 8 -37 8 *
Wi

0101100
-38 24 -76 0 +36 0 +35 0 *
Fa
0  1e-07 19 0

0111000
+34 0 *
Ve
1.5e-07
-42 1290.1 654
0 0

0101101
*
Ed
 1e-07 1 1 0
1  51 0 1 19
2  101 18 0 1 19
2  102 17 0 1 19
0

0101000
+32 8 -81 8 *
Ed
 1.5e-07 1 1 0
1  52 0 24 708
2  103 18 0 24 708
2  104 11 0 24 708
0

0101000
+32 8 -37 8 *
Wi

0101100
-31 0 -78 0 +36 0 +30 0 *
Fa
0  1e-07 18 0

0111000
+29 0 *
Ve
1.5e-07
-42 1290.1 986
0 0

0101101
*
Ed
 1e-07 1 1 0
1  53 0 0 18
2  105 17 0 0 18
2  106 16 0 0 18
0

0101000
+27 8 -83 8 *
Ed
 1.5e-07 1 1 0
1  54 0 -360.55 -28.55
2  107 17 0 -360.55 -28.55
2  108 11 0 -360.55 -28.55
0

0101000
+27 8 -32 8 *
Wi

0101100
-26 0 -80 0 +31 0 +25 0 *
Fa
0  1e-07 17 0

0111000
+24 0 *
Ed
 1e-07 1 1 0
1  55 0 0 30
2  109 20 0 0 30
2  110 11 25 0 30
0

0101000
+39 26 -44 26 *
Wi

0101100
-38 24 -74 24 +42 24 +22 24 *
Fa
0  1e-07 20 24

0111000
+21 0 *
Ve
1e-07
-12 1290.1 1016
0 0

0101101
*
Ed
 1e-07 1 1 0
1  56 0 0 18
2  111 14 0 0 18
2  112 15 0 0 18
0

0101000
-87 8 +19 8 *
Ed
 1e-07 1 1 0
1  57 0 0 30
2  113 14 0 0 30
2  114 11 0 0 30
0

0101000
+54 8 -19 8 *
Wi

0101100
-53 0 -86 0 +18 0 +17 0 *
Fa
0  1e-07 14 0

0111000
+16 0 *
Ve
1e-07
-12 1290.1 986
0 0

0101101
*
Ed
 1e-07 1 1 0
1  58 0 0 18
2  115 16 0 0 18
2  116 15 0 0 18
0

0101000
-85 8 +14 8 *
Ed
 1e-07 1 1 0
1  59 0 0 30
2  117 16 0 0 30
2  118 11 0 0 30
0

0101000
+27 8 -14 8 *
Wi

0101100
-26 0 -82 0 +13 0 +12 0 *
Fa
0  1e-07 16 0

0111000
+11 0 *
Ed
 1e-07 1 1 0
1  60 0 0 30
2  119 15 0 0 30
2  120 11 0 0 30
0

0101000
-19 8 +14 8 *
Wi

0101100
-9 0 -18 0 +84 0 +13 0 *
Fa
0  1e-07 15 0

0111000
+8 0 *
Wi

0101100
+99 0 -96 0 -105 0 +110 0 *
Wi

0101100
+52 0 +17 0 -9 0 -12 0 +25 0 +30 0 -35 0 +22 24 +43 24 -47 24 
-57 0 -62 0 *
Fa
0  1.5e-07 11 0

0111000
-6 0 +5 0 *
Sh

0101000
-143 0 +136 0 -129 0 +125 0 +114 0 -107 0 +102 0 -97 0 +94 0 +67 0 
-60 0 -55 0 +50 0 -45 0 -40 24 -33 0 +28 0 +23 0 +20 0 +15 0 
-10 0 +7 0 -4 0 *
So

0100000
+3 0 *
Co

1100000
+2 0 *

+1 4 