DBRep_DrawableShape

CASCADE Topology V1, (c) Matra-Datavision
Locations 27
1
              1               0               0               0 
              0               1               0               0 
              0               0               1               0 
1
              1               0               0               0 
              0 1.11022302462516e-16              -1               0 
              0               1 1.11022302462516e-16               0 
1
              1               0               0              90 
              0               1               0          1320.8 
              0               0               1         -1290.1 
1
              1               0               0               0 
              0               1               0               0 
              0               0               1 -12.0000000000005 
1
              1               0               0               0 
              0               1               0               0 
              0               0               1               1 
1
              1               0               0               0 
              0               1               0               0 
              0               0               1              -1 
2  1 1 2 1 3 1 4 1 5 1 6 1 0
2  6 -1 5 -1 4 -1 3 -1 2 -1 1 -1 0
1
              1               0               0               0 
              0               1               0               0 
              0               0               1 12.0000000000002 
2  9 -1 0
1
              1               0               0               0 
              0               1               0               0 
              0               0               1 18.0000000000002 
2  1 1 2 1 3 1 4 1 5 1 6 1 11 1 0
2  11 -1 6 -1 5 -1 4 -1 3 -1 2 -1 1 -1 0
1
              1               0               0               0 
              0               1               0               0 
              0               0               1               0 
2  14 1 1 1 2 1 3 1 4 1 5 1 6 1 0
2  6 -1 5 -1 4 -1 3 -1 2 -1 1 -1 14 -1 0
2  14 -1 0
1
              1               0               0               0 
              0               1               0               0 
              0               0               1               0 
2  18 1 1 1 2 1 3 1 4 1 5 1 6 1 0
2  6 -1 5 -1 4 -1 3 -1 2 -1 1 -1 18 -1 0
2  18 -1 0
2  18 1 1 1 2 1 3 1 4 1 5 1 6 1 11 1 0
2  11 -1 6 -1 5 -1 4 -1 3 -1 2 -1 1 -1 18 -1 0
2  14 1 1 1 2 1 3 1 4 1 5 1 6 1 11 1 0
2  11 -1 6 -1 5 -1 4 -1 3 -1 2 -1 1 -1 14 -1 0
1
              1               0               0               0 
              0               1               0               0 
              0               0               1 18.0000000000002 
2  26 -1 0
Curve2ds 72
1 74.5 0 1 0 
1 361.95000000000005 315.5 0 -1 
1 1.5707963267948966 0 0 -1 
1 3.1415926535897931 0 0 -1 
1 780 0 0 -1 
1 -6.1629758220391547e-33 5.5511151231257827e-17 1.1102230246251565e-16 -1 
1 74.5 -18.000000000000227 1 0 
1 361.95000000000005 315.5 0 -1 
1 0 -0 0 -1 
1 -6.1629758220391547e-33 5.5511151231257827e-17 1.1102230246251565e-16 -1 
1 0 0 1 0 
1 0 -12.000000000000227 1 0 
1 -0.5 0 1 0 
1 362.45000000000005 390 -1 0 
1 3.1415926535897931 0 0 -1 
1 0 0 1 0 
1 0 -12.000000000000227 1 0 
1 0 0 1 0 
1 0 -12.000000000000227 1 0 
1 0 0 1 0 
1 0 -12.000000000000227 1 0 
1 1.5707963267948966 0 0 -1 
1 -0.5 0 1 0 
1 362.45000000000005 -390 -1 0 
1 3.1415926535897931 0 0 -1 
1 723.89999999999986 -1.4694911953938573e-13 1.1102230246251565e-16 -1 
1 780 0 0 -1 
1 -0.499999999999998 -18.000000000000227 1 0 
1 362.45000000000005 -390 -1 0 
1 -0.499999999999998 -18.000000000000227 1 0 
1 362.45000000000005 390 -1 0 
1 780.5 -18.000000000000227 1 0 
1 -361.94999999999993 -390.5 0 -1 
1 0 0 1 0 
1 0 -18.000000000000227 1 0 
1 0 0 1 0 
1 0 -18.000000000000227 1 0 
1 0 0 1 0 
1 0 -18.000000000000227 1 0 
1 0 0 1 0 
1 0 -18.000000000000227 1 0 
1 0 0 1 0 
1 0 -18.000000000000227 1 0 
1 0 0 1 0 
1 0 -18.000000000000227 1 0 
1 0 0 1 0 
1 0 -18.000000000000227 1 0 
1 0 0 1 0 
1 0 -18.000000000000227 1 0 
1 1.5707963267948966 0 0 -1 
1 0 -0 0 -1 
1 723.89999999999986 -1.4694911953938573e-13 1.1102230246251565e-16 -1 
1 1.5707963267949534 0 0 -1 
1 780.5 0 1 0 
1 -361.94999999999993 -390.5 0 -1 
1 3.1415926535897931 0 0 -1 
1 1.5707963267949534 0 0 -1 
1 3.1415926535897363 0 0 -1 
1 1.5707963267948966 0 0 -1 
1 3.1415926535897931 0 0 -1 
1 1.5707963267948966 0 0 -1 
1 3.1415926535897931 0 0 -1 
1 1.5707963267948966 0 0 -1 
1 3.1415926535897931 0 0 -1 
1 1.5707963267948966 0 0 -1 
1 3.1415926535897931 0 0 -1 
1 1.5707963267948966 0 0 -1 
1 3.1415926535897931 0 0 -1 
1 1.5707963267948966 0 0 -1 
1 3.1415926535897931 0 0 -1 
1 1.5707963267948966 0 0 -1 
1 3.1415926535897931 0 0 -1 
Curves 76
1 615.5 1302.0999999999999 596.89999999999998 -1 0 0 
1 778 723.89999999999986 -2.2737367544323211e-13 0 0 1 
1 705.5 723.89999999999986 -2.2737367544323211e-13 -1 0 0 
1 2 723.89999999999986 -2.2737367544323211e-13 0 0 1 
1 0 723.89999999999986 -4.5474735088646412e-13 0 0 1 
1 615.5 1302.0999999999999 596.89999999999998 -1 0 0 
1 780 723.89999999999986 -4.5474735088646412e-13 0 0 1 
2 778 721.89999999999986 -2.2737367544323211e-13 0 0 -1 -1 0 0 0 1 0 2
1 690 1302.0999999999999 596.39999999999998 0 0 1 
1 780 721.89999999999986 -2.2737367544323211e-13 0 0 1 
2 2 721.89999999999986 -2.2737367544323211e-13 -0 0 -1 0 -1 -0 -1 -0 0 2
1 0 724.39999999999986 -2.2737367544323211e-13 0 -1 -0 
2 2.0000000000001137 2 -2.2737367544323211e-13 0 -0 -1 1 0 0 0 -1 0 2
1 -0.5 0 -2.2737367544323211e-13 -1 0 0 
2 778 2 -2.2737367544323211e-13 0 0 -1 0 1 0 1 -0 0 2
1 780 724.39999999999986 -2.2737367544323211e-13 0 -1 -0 
1 762 538.7627762317328 -2.2737367544323211e-13 0 1 0 
1 0 705.89999999999986 -2.2737367544323211e-13 1 0 0 
1 18 538.7627762317328 -2.2737367544323211e-13 0 1 0 
1 0 18 -2.2737367544323211e-13 1 0 0 
1 0 721.89999999999986 -2.2737367544323211e-13 0 0 1 
1 -90 1302.0999999999999 596.39999999999998 0 0 1 
1 0 2 -2.2737367544323211e-13 0 0 1 
1 0 0 -2.2737367544323206e-13 0 0 1 
1 -90 1302.0999999999999 596.39999999999998 0 0 1 
1 690 1302.0999999999999 596.39999999999998 0 0 1 
1 -90.5 1302.0999999999999 1320.8 -1 0 0 
2 50.000000000000114 60.799999999999955 1.1267742274574899e-16 0 0 -1 1 0 0 0 -1 0 2
1 48 695.3499999999998 1.1267742274574899e-16 0 1 0 
2 50 302.79999999999984 1.1267742274574899e-16 -0 -0 -1 0 -1 0 -1 0 0 2
1 48 304.79999999999984 1.1267742274574899e-16 1 0 0 
1 78 334.79999999999984 1.1267742274574899e-16 0 -1 -0 
1 48 334.79999999999984 1.1267742274574899e-16 1 0 0 
2 50 336.79999999999984 1.1267742274574899e-16 0 0 -1 1 0 0 0 -1 0 2
1 48 695.3499999999998 1.1267742274574899e-16 0 1 0 
2 50 664.79999999999984 1.1267742274574899e-16 -0 -0 -1 0 -1 0 -1 0 0 2
1 24 666.79999999999984 1.1267742274574899e-16 1 0 0 
2 730 664.79999999999984 1.1267742274574899e-16 -0 0 -1 -1 -0 0 0 1 0 2
1 732 695.3499999999998 1.1267742274574899e-16 0 1 0 
2 730 336.79999999999984 1.1267742274574899e-16 -0 0 -1 0 1 0 1 0 -0 2
1 732 334.79999999999984 1.1267742274574899e-16 -1 0 0 
1 702 334.79999999999984 1.1267742274574899e-16 0 -1 -0 
1 732 304.79999999999984 1.1267742274574899e-16 -1 0 0 
2 730 302.79999999999984 1.1267742274574899e-16 0 0 -1 -1 0 0 0 1 0 2
1 732 695.3499999999998 1.1267742274574899e-16 0 1 0 
2 730 60.799999999999955 1.1267742274574899e-16 -0 0 -1 0 1 0 1 0 -0 2
1 24 58.799999999999955 1.1267742274574899e-16 1 0 0 
1 780 2 -2.2737367544323211e-13 0 0 1 
1 780 0 -2.2737367544323206e-13 0 0 1 
1 2 0 -2.2737367544323211e-13 0 0 1 
1 -90.5 1302.0999999999999 1320.8 -1 0 0 
1 778 0 -2.2737367544323211e-13 0 0 1 
1 762 18 -2.9387603461827894e-13 0 0 1 
1 762 705.89999999999998 -5.21249710061511e-13 0 0 1 
1 18.000000000000028 705.89999999999998 -5.21249710061511e-13 0 0 1 
1 18.000000000000028 18 -2.9387603461827894e-13 0 0 1 
1 50 58.799999999999955 1.1267742274574899e-16 0 0 1 
1 48 60.799999999999841 1.1267742274574899e-16 0 0 1 
1 48 302.79999999999984 1.1267742274574899e-16 0 0 1 
1 50 304.79999999999984 1.1267742274574899e-16 0 0 1 
1 78 304.79999999999984 5.0811758800439073e-14 0 0 1 
1 78 334.79999999999984 5.110781827367245e-14 0 0 1 
1 50 334.79999999999984 1.1267742274574899e-16 0 0 1 
1 48 336.79999999999984 1.1267742274574899e-16 0 0 1 
1 48 664.79999999999984 1.1267742274574899e-16 0 0 1 
1 50 666.79999999999984 1.1267742274574899e-16 0 0 1 
1 730 666.79999999999984 1.1267742274574899e-16 0 0 1 
1 732 664.79999999999984 1.1267742274574899e-16 0 0 1 
1 732 336.79999999999984 1.1267742274574899e-16 0 0 1 
1 730 334.79999999999984 1.1267742274574899e-16 0 0 1 
1 702 334.79999999999984 5.110781827367245e-14 0 0 1 
1 702 304.79999999999984 5.0811758800439073e-14 0 0 1 
1 730 304.79999999999984 1.1267742274574899e-16 0 0 1 
1 732 302.79999999999984 1.1267742274574899e-16 0 0 1 
1 732 60.799999999999955 1.1267742274574899e-16 0 0 1 
1 730 58.799999999999955 1.1267742274574899e-16 0 0 1 
Polygon3D 0
PolygonOnTriangulations 0
Surfaces 39
1 780 723.89999999999986 -4.5474735088646412e-13 0 -1 0 -1 0 0 -0 -0 -1 
1 300 1302.1000000000001 958.85000000000002 -0 -1 -0 0 0 -1 1 -0 0 
2 778 721.89999999999986 -2.2737367544323211e-13 0 0 -1 -1 0 0 0 1 0 2
1 778 723.89999999999986 -2.2737367544323211e-13 0 -1 0 -1 0 0 -0 -0 -1 
2 2 721.89999999999986 -2.2737367544323211e-13 -0 0 -1 0 -1 -0 -1 -0 0 2
1 0 723.89999999999986 -4.5469183973523286e-13 1 0 -0 0 -1 1.1102230246251565e-16 0 -1.1102230246251565e-16 -1 
1 300 1302.1000000000001 958.85000000000002 -0 -1 -0 0 0 -1 1 -0 0 
1 780 723.89999999999986 -4.5469183973523286e-13 1 0 -0 0 -1 1.1102230246251565e-16 0 -1.1102230246251565e-16 -1 
1 780 721.89999999999986 -2.2737367544323211e-13 1 0 -0 0 -1 0 0 -0 -1 
1 390.00000000000023 361.95000000000022 -2.2737367544323221e-13 0 0 1 1 0 -0 -0 1 0 
2 2.0000000000001137 2 -2.2737367544323211e-13 0 0 -1 1 0 0 0 -1 0 2
2 778 2 -2.2737367544323211e-13 0 0 -1 0 1 0 1 -0 0 2
1 0 721.89999999999986 -2.2737367544323211e-13 1 0 -0 0 -1 0 0 -0 -1 
1 780 0 -2.2737367544323206e-13 0 -1 0 -1 0 0 -0 -0 -1 
2 50.000000000000114 60.799999999999955 1.1267742274574899e-16 0 0 -1 1 0 0 0 -1 0 2
2 50 302.79999999999984 1.1267742274574899e-16 -0 -0 -1 0 -1 0 -1 0 0 2
2 50 336.79999999999984 1.1267742274574899e-16 0 0 -1 1 0 0 0 -1 0 2
2 50 664.79999999999984 1.1267742274574899e-16 -0 -0 -1 0 -1 0 -1 0 0 2
2 730 664.79999999999984 1.1267742274574899e-16 -0 0 -1 -1 -0 0 0 1 0 2
2 730 336.79999999999984 1.1267742274574899e-16 -0 0 -1 0 1 0 1 0 -0 2
2 730 302.79999999999984 1.1267742274574899e-16 0 0 -1 -1 0 0 0 1 0 2
2 730 60.799999999999955 1.1267742274574899e-16 -0 0 -1 0 1 0 1 0 -0 2
1 778 0 -2.2737367544323211e-13 0 -1 0 -1 0 0 -0 -0 -1 
1 762 18 -2.2737367544323211e-13 -1 0 0 0 1 0 0 0 -1 
1 18 705.89999999999986 -2.2737367544323211e-13 0 1 0 1 0 0 0 0 -1 
1 18 17.999999999999886 -2.2737367544323211e-13 -1 0 0 0 1 0 0 0 -1 
1 18.000000000000114 18 -2.2737367544323211e-13 0 1 0 1 0 0 0 0 -1 
1 50 58.799999999999955 1.1267742274574899e-16 0 1 0 1 0 0 0 0 -1 
1 48 60.799999999999841 1.1267742274574899e-16 -1 0 0 0 1 0 0 0 -1 
1 50 304.79999999999984 1.1267742274574899e-16 0 1 0 1 0 0 0 0 -1 
1 78 334.79999999999984 1.1267742274574899e-16 1 0 -0 0 -1 0 0 -0 -1 
1 50 334.79999999999984 1.1267742274574899e-16 0 1 0 1 0 0 0 0 -1 
1 48 336.79999999999984 1.1267742274574899e-16 -1 0 0 0 1 0 0 0 -1 
1 50 666.79999999999984 1.1267742274574899e-16 0 1 0 1 0 0 0 0 -1 
1 732 336.79999999999984 1.1267742274574899e-16 -1 0 0 0 1 0 0 0 -1 
1 730 334.79999999999984 1.1267742274574899e-16 0 -1 0 -1 0 0 -0 -0 -1 
1 702 334.79999999999984 1.1267742274574899e-16 1 0 -0 0 -1 0 0 -0 -1 
1 730 304.79999999999984 1.1267742274574899e-16 0 -1 0 -1 0 0 -0 -0 -1 
1 732 60.799999999999955 1.1267742274574899e-16 -1 0 0 0 1 0 0 0 -1 
Triangulations 0

TShapes 265
Ve
1.5e-07
780 723.9 -4.54747350886464e-13
0 0

0101101
*
Ve
1.50000454747351e-07
778 723.9 -2.27373675443232e-13
0 0

0101101
*
Ed
 1.5e-07 1 1 0
1  1 0 -74.5 -72.5
2  1 1 8 -74.5 -72.5
2  2 2 0 -74.5 -72.5
0

0101000
+265 8 -264 8 *
Ve
1.50000227373675e-07
778 723.9 12
0 0

0101101
*
Ed
 1.50000227373675e-07 1 1 0
1  2 0 0 12.0000000000002
2  3 3 0 0 12.0000000000002
4 G1 4 0 3 0
0

0101000
+264 0 -262 0 *
Ve
1.50000227373675e-07
2 723.9 12
0 0

0101101
*
Ed
 1.50000227373675e-07 1 1 0
1  3 0 -72.5 703.5
0

0101000
+262 10 -260 10 *
Ve
1.50000454747351e-07
2 723.9 -2.27373675443232e-13
0 0

0101101
*
Ed
 1.50000227373675e-07 1 1 0
1  4 0 0 12.0000000000002
2  4 5 0 0 12.0000000000002
4 G1 4 0 5 0
0

0101000
+258 0 -260 0 *
Ve
1.5e-07
0 723.9 -4.54747350886464e-13
0 0

0101101
*
Ed
 1.5e-07 1 1 0
1  1 0 703.5 705.5
2  1 1 8 703.5 705.5
2  2 2 0 703.5 705.5
0

0101000
+258 8 -256 8 *
Ve
1.5e-07
0 723.9 17.9999999999998
0 0

0101101
*
Ed
 1.5e-07 1 1 0
1  5 0 0 18.0000000000002
2  5 1 0 0 18.0000000000002
2  6 6 0 0 18.0000000000002
0

0101000
+256 0 -254 0 *
Ve
1.5e-07
780 723.9 17.9999999999998
0 0

0101101
*
Ed
 1.5e-07 1 1 0
1  6 0 -74.5 705.5
2  7 1 13 -74.5 705.5
2  8 7 0 -74.5 705.5
0

0101000
+252 13 -254 13 *
Ed
 1.5e-07 1 1 0
1  7 0 0 18.0000000000002
2  9 1 0 0 18.0000000000002
2  10 8 0 0 18.0000000000002
0

0101000
+265 0 -252 0 *
Wi

0101100
-263 7 -261 0 -259 9 +257 0 -255 7 -253 0 +251 12 +250 0 *
Fa
0  1.5e-07 1 0

0101000
+249 0 *
Ve
1.50000440871413e-07
780 721.9 -2.27373675443232e-13
0 0

0101101
*
Ed
 1.50000040182623e-07 1 1 0
1  8 0 1.5707963267949 3.14159265358979
2  11 3 0 1.5707963267949 3.14159265358979
2  12 3 10 1.5707963267949 3.14159265358979
0

0101000
+264 0 -247 0 *
Ed
 1.5e-07 1 1 0
1  9 0 0.5 2.5
2  13 8 16 0.5 2.5
2  14 2 17 0.5 2.5
0

0101000
+265 16 -247 16 *
Wi

0101100
-263 7 -246 0 +245 15 *
Fa
0  1.5e-07 2 7

0101000
+244 0 *
Ve
1.5000022709612e-07
780 721.9 12
0 0

0101101
*
Ed
 1.5000022709612e-07 1 1 0
1  10 0 0 12.0000000000002
2  15 3 0 0 12.0000000000002
4 G1 9 0 3 0
0

0101000
+247 0 -242 0 *
Ed
 1.50000040182623e-07 1 1 0
1  8 0 1.5707963267949 3.14159265358979
2  11 3 0 1.5707963267949 3.14159265358979
2  12 3 10 1.5707963267949 3.14159265358979
0

0101000
+262 10 -242 10 *
Wi

0101100
+261 0 -241 0 -246 0 +240 9 *
Fa
0  1.50000040182623e-07 3 0

0101000
+239 0 *
Ve
1.5000022709612e-07
0 721.9 12
0 0

0101101
*
Ed
 1.50000040182623e-07 1 1 0
1  11 0 1.5707963267949 3.14159265358979
2  16 5 0 1.5707963267949 3.14159265358979
2  17 5 10 1.5707963267949 3.14159265358979
0

0101000
+237 10 -260 10 *
Ve
1.50000220435707e-07
0 2 12
0 0

0101101
*
Ed
 1.50000220435707e-07 1 1 0
1  12 0 2.5 722.4
0

0101000
+237 10 -235 10 *
Ve
1.50000040182623e-07
2 0 12
0 0

0101101
*
Ed
 1.50000040182623e-07 1 1 0
1  13 0 1.57079632679495 3.14159265358979
2  18 11 0 1.57079632679495 3.14159265358979
2  19 11 10 1.57079632679495 3.14159265358979
0

0101000
+233 10 -235 10 *
Ve
1.50000040182623e-07
778 0 12
0 0

0101101
*
Ed
 1.5e-07 1 1 0
1  14 0 -778.5 -2.5
0

0101000
+231 10 -233 10 *
Ve
1.50000220435707e-07
780 2 12
0 0

0101101
*
Ed
 1.50000040182623e-07 1 1 0
1  15 0 1.5707963267949 3.14159265358979
2  20 12 0 1.5707963267949 3.14159265358979
2  21 12 10 1.5707963267949 3.14159265358979
0

0101000
+229 10 -231 10 *
Ed
 1.50000220435707e-07 1 1 0
1  16 0 2.5 722.4
0

0101000
+242 10 -229 10 *
Wi

0101100
-259 9 +236 9 -234 9 +232 9 +230 9 +228 9 +227 9 +240 9 *
Ve
2.00001232680624e-07
762 18 -2.93876034618279e-13
0 0

0101101
*
Ve
2.00001253307767e-07
762 705.9 -5.21249710061511e-13
0 0

0101101
*
Ed
 2.00001208526365e-07 1 1 0
1  17 0 -520.762776231733 167.137223768267
0

0101000
+225 0 -224 0 *
Ve
2.00001253307767e-07
18 705.9 -5.21249710061511e-13
0 0

0101101
*
Ed
 1.50000682121026e-07 1 1 0
1  18 0 18 762
0

0101000
+222 0 -224 0 *
Ve
2.00001232680624e-07
18 18 -2.93876034618279e-13
0 0

0101101
*
Ed
 2.00001209971186e-07 1 1 0
1  19 0 -520.762776231733 167.137223768267
0

0101000
+220 0 -222 0 *
Ed
 1.50000909494702e-07 1 1 0
1  20 0 18.0000000000001 762
0

0101000
+220 0 -225 0 *
Wi

0101100
+223 9 -221 9 -219 9 +218 9 *
Fa
0  1e-07 10 9

0101000
-226 0 -217 0 *
Ve
1.50000440871413e-07
0 721.9 -2.27373675443232e-13
0 0

0101101
*
Ed
 1.5000022709612e-07 1 1 0
1  21 0 0 12.0000000000002
2  22 5 0 0 12.0000000000002
4 G1 5 0 13 0
0

0101000
+215 0 -237 0 *
Ed
 1.50000040182623e-07 1 1 0
1  11 0 1.5707963267949 3.14159265358979
2  16 5 0 1.5707963267949 3.14159265358979
2  17 5 10 1.5707963267949 3.14159265358979
0

0101000
+215 0 -258 0 *
Wi

0101100
+214 0 -257 0 -213 0 +236 9 *
Fa
0  1.50000040182623e-07 5 0

0101000
+212 0 *
Ed
 1.5e-07 1 1 0
1  22 0 0.5 2.5
2  23 6 20 0.5 2.5
2  24 2 21 0.5 2.5
0

0101000
+256 20 -215 20 *
Wi

0101100
-255 7 -210 19 -213 0 *
Fa
0  1.5e-07 2 7

0101000
+209 0 *
Ve
1.50000440871413e-07
0 2 -2.27373675443232e-13
0 0

0101101
*
Ed
 1.50000220435707e-07 1 1 0
1  23 0 0 12.0000000000002
2  25 11 0 0 12.0000000000002
4 G1 13 0 11 0
0

0101000
+207 0 -235 0 *
Ve
1.5e-07
0 0 -2.27373675443232e-13
0 0

0101101
*
Ed
 1.5e-07 1 1 0
1  22 0 722.4 724.4
2  23 6 20 722.4 724.4
2  24 2 21 722.4 724.4
0

0101000
+207 20 -205 20 *
Ve
1.5e-07
0 0 18
0 0

0101101
*
Ed
 1.5e-07 1 1 0
1  24 0 0 18.0000000000002
2  26 6 0 0 18.0000000000002
2  27 14 0 0 18.0000000000002
0

0101000
+205 0 -203 0 *
Ed
 1.5e-07 1 1 0
1  25 0 0.5 724.4
2  28 6 23 0.5 724.4
2  29 7 21 0.5 724.4
0

0101000
+254 23 -203 23 *
Wi

0101100
-210 19 -214 0 -234 9 +206 0 -204 19 -202 0 +201 22 +253 0 *
Fa
0  1.5e-07 6 0

0101000
+200 0 *
Ve
1.5e-07
780 0 18
0 0

0101101
*
Ed
 1.5e-07 1 1 0
1  26 0 0.5 724.4
2  30 8 25 0.5 724.4
2  31 7 17 0.5 724.4
0

0101000
+252 25 -198 25 *
Ed
 1.5e-07 1 1 0
1  27 0 -780.5 -0.5
2  32 14 13 -780.5 -0.5
2  33 7 0 -780.5 -0.5
0

0101000
+198 13 -203 13 *
Wi

0101100
-251 12 +197 24 -201 22 +196 12 *
Ve
1.50000877407601e-07
50 58.8 18.0000000000002
0 0

0101101
*
Ve
1.50000720483128e-07
48 60.7999999999998 18.0000000000002
0 0

0101101
*
Ed
 1.50000195399252e-07 1 1 0
1  28 0 1.57079632679495 3.14159265358974
2  34 15 0 1.57079632679495 3.14159265358974
2  35 15 27 1.57079632679495 3.14159265358974
0

0101000
+194 27 -193 27 *
Ve
1.50000718244178e-07
48 302.8 18.0000000000002
0 0

0101101
*
Ed
 1.50000718244178e-07 1 1 0
1  29 0 -634.55 -392.55
0

0101000
+193 27 -191 27 *
Ve
1.50000650033926e-07
50 304.8 18.0000000000002
0 0

0101101
*
Ed
 1.50000220268248e-07 1 1 0
1  30 0 1.5707963267949 3.14159265358979
2  36 16 0 1.5707963267949 3.14159265358979
2  37 16 27 1.5707963267949 3.14159265358979
0

0101000
+191 27 -189 27 *
Ve
1.5000067843658e-07
78 304.8 18.0000000000003
0 0

0101101
*
Ed
 1.50000650033926e-07 1 1 0
1  31 0 2 30
0

0101000
+189 27 -187 27 *
Ve
1.5000067858461e-07
78 334.8 18.0000000000003
0 0

0101101
*
Ed
 1.50000653087039e-07 1 1 0
1  32 0 0 30
0

0101000
+185 27 -187 27 *
Ve
1.50000650033926e-07
50 334.8 18.0000000000002
0 0

0101101
*
Ed
 1.50000650033926e-07 1 1 0
1  33 0 2 30
0

0101000
+183 27 -185 27 *
Ve
1.50000689840972e-07
48 336.8 18.0000000000002
0 0

0101101
*
Ed
 1.50000223820962e-07 1 1 0
1  34 0 1.5707963267949 3.14159265358979
2  38 17 0 1.5707963267949 3.14159265358979
2  39 17 27 1.5707963267949 3.14159265358979
0

0101000
+183 27 -181 27 *
Ve
1.50000686806363e-07
48 664.8 18.0000000000002
0 0

0101101
*
Ed
 1.50000686806363e-07 1 1 0
1  35 0 -358.55 -30.55
0

0101000
+181 27 -179 27 *
Ve
1.50000650033926e-07
50 666.8 18.0000000000002
0 0

0101101
*
Ed
 1.50000262900812e-07 1 1 0
1  36 0 1.5707963267949 3.14159265358979
2  40 18 0 1.5707963267949 3.14159265358979
2  41 18 27 1.5707963267949 3.14159265358979
0

0101000
+179 27 -177 27 *
Ve
1.50000650033926e-07
730 666.8 18.0000000000002
0 0

0101101
*
Ed
 1.50000650033926e-07 1 1 0
1  37 0 26 706
0

0101000
+177 27 -175 27 *
Ve
1.50000686806363e-07
732 664.8 18.0000000000002
0 0

0101101
*
Ed
 1.50000262900812e-07 1 1 0
1  38 0 1.5707963267949 3.14159265358979
2  42 19 0 1.5707963267949 3.14159265358979
2  43 19 27 1.5707963267949 3.14159265358979
0

0101000
+175 27 -173 27 *
Ve
1.50000689840972e-07
732 336.8 18.0000000000002
0 0

0101101
*
Ed
 1.50000686806363e-07 1 1 0
1  39 0 -358.55 -30.55
0

0101000
+171 27 -173 27 *
Ve
1.50000650033926e-07
730 334.8 18.0000000000002
0 0

0101101
*
Ed
 1.50000223820962e-07 1 1 0
1  40 0 1.5707963267949 3.14159265358979
2  44 20 0 1.5707963267949 3.14159265358979
2  45 20 27 1.5707963267949 3.14159265358979
0

0101000
+171 27 -169 27 *
Ve
1.5000067858461e-07
702 334.8 18.0000000000003
0 0

0101101
*
Ed
 1.50000650033926e-07 1 1 0
1  41 0 2 30
0

0101000
+169 27 -167 27 *
Ve
1.5000067843658e-07
702 304.8 18.0000000000003
0 0

0101101
*
Ed
 1.50000653087039e-07 1 1 0
1  42 0 -0 30
0

0101000
+167 27 -165 27 *
Ve
1.50000650033926e-07
730 304.8 18.0000000000002
0 0

0101101
*
Ed
 1.50000650033926e-07 1 1 0
1  43 0 2 30
0

0101000
+163 27 -165 27 *
Ve
1.50000718244178e-07
732 302.8 18.0000000000002
0 0

0101101
*
Ed
 1.50000220268248e-07 1 1 0
1  44 0 1.5707963267949 3.14159265358979
2  46 21 0 1.5707963267949 3.14159265358979
2  47 21 27 1.5707963267949 3.14159265358979
0

0101000
+163 27 -161 27 *
Ve
1.50000720483128e-07
732 60.8 18.0000000000002
0 0

0101101
*
Ed
 1.50000718244178e-07 1 1 0
1  45 0 -634.55 -392.55
0

0101000
+159 27 -161 27 *
Ve
1.50000877407601e-07
730 58.8 18.0000000000002
0 0

0101101
*
Ed
 1.50000195399252e-07 1 1 0
1  46 0 1.5707963267949 3.14159265358979
2  48 22 0 1.5707963267949 3.14159265358979
2  49 22 27 1.5707963267949 3.14159265358979
0

0101000
+159 27 -157 27 *
Ed
 1.50000877407601e-07 1 1 0
1  47 0 26 706
0

0101000
+194 27 -157 27 *
Wi

0101100
-192 26 -190 26 -188 26 -186 26 +184 26 +182 26 -180 26 -178 26 -176 26 -174 26 
-172 26 +170 26 -168 26 -166 26 -164 26 +162 26 -160 26 +158 26 -156 26 +155 26 
*
Fa
0  1.5e-07 7 12

0101000
+195 0 +154 0 *
Ve
1.50000440871413e-07
780 2 -2.27373675443232e-13
0 0

0101101
*
Ed
 1.50000220435707e-07 1 1 0
1  48 0 0 12.0000000000002
2  50 12 0 0 12.0000000000002
4 G1 12 0 9 0
0

0101000
+152 0 -229 0 *
Ve
1.5e-07
780 0 -2.27373675443232e-13
0 0

0101101
*
Ed
 1.5e-07 1 1 0
1  9 0 722.4 724.4
2  13 8 16 722.4 724.4
2  14 2 17 722.4 724.4
0

0101000
+152 16 -150 16 *
Ed
 1.5e-07 1 1 0
1  49 0 0 18.0000000000002
2  51 14 0 0 18.0000000000002
2  52 8 0 0 18.0000000000002
0

0101000
+150 0 -198 0 *
Wi

0101100
-245 15 -241 0 -227 9 +151 0 -149 15 -148 0 +197 24 +250 0 *
Fa
0  1.5e-07 8 0

0101000
+147 0 *
Ve
1.50000040388676e-07
2 0 -2.27373675443232e-13
0 0

0101101
*
Ed
 1.50000040182623e-07 1 1 0
1  50 0 0 12.0000000000002
2  53 11 0 0 12.0000000000002
4 G1 11 0 23 0
0

0101000
+145 0 -233 0 *
Ed
 1.50000040182623e-07 1 1 0
1  13 0 1.57079632679495 3.14159265358979
2  18 11 0 1.57079632679495 3.14159265358979
2  19 11 10 1.57079632679495 3.14159265358979
0

0101000
+145 0 -207 0 *
Wi

0101100
+144 0 -206 0 -143 0 +232 9 *
Fa
0  1.50000040182623e-07 11 0

0101000
+142 0 *
Ve
1.50000040182623e-07
778 0 -2.27373675443232e-13
0 0

0101101
*
Ed
 1.5e-07 1 1 0
1  51 0 -780.5 -778.5
2  54 14 8 -780.5 -778.5
2  55 2 0 -780.5 -778.5
0

0101000
+150 8 -140 8 *
Ed
 1.50000040182623e-07 1 1 0
1  52 0 0 12.0000000000002
2  56 12 0 0 12.0000000000002
4 G1 23 0 12 0
0

0101000
+140 0 -231 0 *
Ed
 1.5e-07 1 1 0
1  51 0 -2.5 -0.5
2  54 14 8 -2.5 -0.5
2  55 2 0 -2.5 -0.5
0

0101000
+145 8 -205 8 *
Wi

0101100
-139 7 -138 0 -230 9 +144 0 -137 7 -202 0 +196 12 +148 0 *
Fa
0  1.5e-07 14 0

0101000
+136 0 *
Ed
 1.50000040182623e-07 1 1 0
1  15 0 1.5707963267949 3.14159265358979
2  20 12 0 1.5707963267949 3.14159265358979
2  21 12 10 1.5707963267949 3.14159265358979
0

0101000
+152 0 -140 0 *
Wi

0101100
+151 0 -138 0 -134 0 +228 9 *
Fa
0  1.50000040182623e-07 12 0

0101000
+133 0 *
Ve
2.00001232680624e-07
762 18 -2.93876034618279e-13
0 0

0101101
*
Ed
 2.00001232680624e-07 1 1 0
1  53 0 0 12.0000000000002
0

0101000
+131 0 -225 9 *
Ve
2.00001253307767e-07
762 705.9 -5.21249710061511e-13
0 0

0101101
*
Ed
 2.00001253307767e-07 1 1 0
1  54 0 0 12.0000000000002
0

0101000
+129 0 -224 9 *
Ed
 2.00001208526365e-07 1 1 0
1  17 0 -520.762776231733 167.137223768267
0

0101000
+131 0 -129 0 *
Wi

0101100
+130 0 -128 0 -127 0 +223 9 *
Fa
0  2.00001208526365e-07 24 0

0101000
+126 0 *
Ve
2.00001253307767e-07
18 705.9 -5.21249710061511e-13
0 0

0101101
*
Ed
 2.00001253307767e-07 1 1 0
1  55 0 0 12.0000000000002
0

0101000
+124 0 -222 9 *
Ed
 1.50000682121026e-07 1 1 0
1  18 0 18 762
0

0101000
+124 0 -129 0 *
Wi

0101100
+123 0 -128 0 -122 0 +221 9 *
Fa
0  1.50000682121026e-07 25 0

0101000
+121 0 *
Ve
2.00001232680624e-07
18 18 -2.93876034618279e-13
0 0

0101101
*
Ed
 2.00001232680624e-07 1 1 0
1  56 0 0 12.0000000000002
0

0101000
+119 0 -220 9 *
Ed
 2.00001209971186e-07 1 1 0
1  19 0 -520.762776231733 167.137223768267
0

0101000
+119 0 -124 0 *
Wi

0101100
+118 0 -123 0 -117 0 +219 9 *
Fa
0  2.00001209971186e-07 26 0

0101000
+116 0 *
Ed
 1.50000909494702e-07 1 1 0
1  20 0 18.0000000000001 762
0

0101000
+119 0 -131 0 *
Wi

0101100
+118 0 -130 0 -114 0 +218 9 *
Fa
0  1.50000909494702e-07 27 0

0101000
+113 0 *
Wi

0101100
-204 19 +137 7 -143 0 *
Fa
0  1.5e-07 2 7

0101000
+111 0 *
Ve
1.50000877407601e-07
50 58.8 1.12677422745749e-16
0 0

0101101
*
Ed
 1.50000877407601e-07 1 1 0
1  57 0 0 18.0000000000002
2  57 15 0 0 18.0000000000002
4 G1 28 0 15 0
0

0101000
+109 0 -194 0 *
Ve
1.50000720483128e-07
48 60.7999999999998 1.12677422745749e-16
0 0

0101101
*
Ed
 1.50000720483128e-07 1 1 0
1  58 0 0 18.0000000000002
2  58 15 0 0 18.0000000000002
4 G1 29 0 15 0
0

0101000
+107 0 -193 0 *
Ed
 1.50000194023004e-07 1 1 0
1  28 0 1.57079632679495 3.14159265358974
2  34 15 0 1.57079632679495 3.14159265358974
2  35 15 27 1.57079632679495 3.14159265358974
0

0101000
+109 0 -107 0 *
Wi

0101100
+108 0 -106 0 -105 0 +192 26 *
Fa
0  1.50000033541834e-07 15 0

0101000
+104 0 *
Ve
1.50000718244178e-07
48 302.8 1.12677422745749e-16
0 0

0101101
*
Ed
 1.50000718244178e-07 1 1 0
1  59 0 0 18.0000000000002
2  59 16 0 0 18.0000000000002
4 G1 16 0 29 0
0

0101000
+102 0 -191 0 *
Ed
 1.50000718244178e-07 1 1 0
1  29 0 -634.55 -392.55
0

0101000
+107 0 -102 0 *
Wi

0101100
+106 0 -101 0 -100 0 +190 26 *
Fa
0  1.50000718244178e-07 29 0

0101000
+99 0 *
Ve
1.50000650033926e-07
50 304.8 1.12677422745749e-16
0 0

0101101
*
Ed
 1.50000650033926e-07 1 1 0
1  60 0 0 18.0000000000002
2  60 16 0 0 18.0000000000002
4 G1 30 0 16 0
0

0101000
+97 0 -189 0 *
Ed
 1.50000221139529e-07 1 1 0
1  30 0 1.5707963267949 3.14159265358979
2  36 16 0 1.5707963267949 3.14159265358979
2  37 16 27 1.5707963267949 3.14159265358979
0

0101000
+102 0 -97 0 *
Wi

0101100
+101 0 -96 0 -95 0 +188 26 *
Fa
0  1.50000006425309e-07 16 0

0101000
+94 0 *
Ve
1.5000067843658e-07
78 304.8 5.08117588004391e-14
0 0

0101101
*
Ed
 1.5000067843658e-07 1 1 0
1  61 0 0 18.0000000000002
0

0101000
+92 0 -187 0 *
Ed
 1.50000650033926e-07 1 1 0
1  31 0 2 30
0

0101000
+97 0 -92 0 *
Wi

0101100
+96 0 -91 0 -90 0 +186 26 *
Fa
0  1.50000650033926e-07 30 0

0101000
+89 0 *
Ve
1.5000067858461e-07
78 334.8 5.11078182736724e-14
0 0

0101101
*
Ed
 1.5000067858461e-07 1 1 0
1  62 0 0 18.0000000000002
0

0101000
+87 0 -185 0 *
Ed
 1.50000653087039e-07 1 1 0
1  32 0 0 30
0

0101000
+87 0 -92 0 *
Wi

0101100
+86 0 -91 0 -85 0 +184 26 *
Fa
0  1.50000653087039e-07 31 0

0101000
+84 0 *
Ve
1.50000650033926e-07
50 334.8 1.12677422745749e-16
0 0

0101101
*
Ed
 1.50000650033926e-07 1 1 0
1  63 0 0 18.0000000000002
2  61 17 0 0 18.0000000000002
4 G1 17 0 32 0
0

0101000
+82 0 -183 0 *
Ed
 1.50000650033926e-07 1 1 0
1  33 0 2 30
0

0101000
+82 0 -87 0 *
Wi

0101100
+81 0 -86 0 -80 0 +182 26 *
Fa
0  1.50000650033926e-07 32 0

0101000
+79 0 *
Ve
1.50000689840972e-07
48 336.8 1.12677422745749e-16
0 0

0101101
*
Ed
 1.50000689840972e-07 1 1 0
1  64 0 0 18.0000000000002
2  62 17 0 0 18.0000000000002
4 G1 33 0 17 0
0

0101000
+77 0 -181 0 *
Ed
 1.50000224665159e-07 1 1 0
1  34 0 1.5707963267949 3.14159265358979
2  38 17 0 1.5707963267949 3.14159265358979
2  39 17 27 1.5707963267949 3.14159265358979
0

0101000
+82 0 -77 0 *
Wi

0101100
+81 0 -76 0 -75 0 +180 26 *
Fa
0  1.50000002899678e-07 17 0

0101000
+74 0 *
Ve
1.50000686806363e-07
48 664.8 1.12677422745749e-16
0 0

0101101
*
Ed
 1.50000686806363e-07 1 1 0
1  65 0 0 18.0000000000002
2  63 18 0 0 18.0000000000002
4 G1 18 0 33 0
0

0101000
+72 0 -179 0 *
Ed
 1.50000686806363e-07 1 1 0
1  35 0 -358.55 -30.55
0

0101000
+77 0 -72 0 *
Wi

0101100
+76 0 -71 0 -70 0 +178 26 *
Fa
0  1.50000686806363e-07 33 0

0101000
+69 0 *
Ve
1.50000650033926e-07
50 666.8 1.12677422745749e-16
0 0

0101101
*
Ed
 1.50000650033926e-07 1 1 0
1  66 0 0 18.0000000000002
2  64 18 0 0 18.0000000000002
4 G1 34 0 18 0
0

0101000
+67 0 -177 0 *
Ed
 1.50000261329602e-07 1 1 0
1  36 0 1.5707963267949 3.14159265358979
2  40 18 0 1.5707963267949 3.14159265358979
2  41 18 27 1.5707963267949 3.14159265358979
0

0101000
+72 0 -67 0 *
Wi

0101100
+71 0 -66 0 -65 0 +176 26 *
Fa
0  1.50000033955927e-07 18 0

0101000
+64 0 *
Ve
1.50000650033926e-07
730 666.8 1.12677422745749e-16
0 0

0101101
*
Ed
 1.50000650033926e-07 1 1 0
1  67 0 0 18.0000000000002
2  65 19 0 0 18.0000000000002
4 G1 19 0 34 0
0

0101000
+62 0 -175 0 *
Ed
 1.50000650033926e-07 1 1 0
1  37 0 26 706
0

0101000
+67 0 -62 0 *
Wi

0101100
+66 0 -61 0 -60 0 +174 26 *
Fa
0  1.50000650033926e-07 34 0

0101000
+59 0 *
Ve
1.50000686806363e-07
732 664.8 1.12677422745749e-16
0 0

0101101
*
Ed
 1.50000686806363e-07 1 1 0
1  68 0 0 18.0000000000002
2  66 19 0 0 18.0000000000002
4 G1 35 0 19 0
0

0101000
+57 0 -173 0 *
Ed
 1.50000261329602e-07 1 1 0
1  38 0 1.5707963267949 3.14159265358979
2  42 19 0 1.5707963267949 3.14159265358979
2  43 19 27 1.5707963267949 3.14159265358979
0

0101000
+62 0 -57 0 *
Wi

0101100
+61 0 -56 0 -55 0 +172 26 *
Fa
0  1.50000033955927e-07 19 0

0101000
+54 0 *
Ve
1.50000689840972e-07
732 336.8 1.12677422745749e-16
0 0

0101101
*
Ed
 1.50000689840972e-07 1 1 0
1  69 0 0 18.0000000000002
2  67 20 0 0 18.0000000000002
4 G1 20 0 35 0
0

0101000
+52 0 -171 0 *
Ed
 1.50000686806363e-07 1 1 0
1  39 0 -358.55 -30.55
0

0101000
+52 0 -57 0 *
Wi

0101100
+51 0 -56 0 -50 0 +170 26 *
Fa
0  1.50000686806363e-07 35 0

0101000
+49 0 *
Ve
1.50000650033926e-07
730 334.8 1.12677422745749e-16
0 0

0101101
*
Ed
 1.50000650033926e-07 1 1 0
1  70 0 0 18.0000000000002
2  68 20 0 0 18.0000000000002
4 G1 36 0 20 0
0

0101000
+47 0 -169 0 *
Ed
 1.50000224665159e-07 1 1 0
1  40 0 1.5707963267949 3.14159265358979
2  44 20 0 1.5707963267949 3.14159265358979
2  45 20 27 1.5707963267949 3.14159265358979
0

0101000
+52 0 -47 0 *
Wi

0101100
+51 0 -46 0 -45 0 +168 26 *
Fa
0  1.50000002899678e-07 20 0

0101000
+44 0 *
Ve
1.5000067858461e-07
702 334.8 5.11078182736724e-14
0 0

0101101
*
Ed
 1.5000067858461e-07 1 1 0
1  71 0 0 18.0000000000002
0

0101000
+42 0 -167 0 *
Ed
 1.50000650033926e-07 1 1 0
1  41 0 2 30
0

0101000
+47 0 -42 0 *
Wi

0101100
+46 0 -41 0 -40 0 +166 26 *
Fa
0  1.50000650033926e-07 36 0

0101000
+39 0 *
Ve
1.5000067843658e-07
702 304.8 5.08117588004391e-14
0 0

0101101
*
Ed
 1.5000067843658e-07 1 1 0
1  72 0 0 18.0000000000002
0

0101000
+37 0 -165 0 *
Ed
 1.50000653087039e-07 1 1 0
1  42 0 -0 30
0

0101000
+42 0 -37 0 *
Wi

0101100
+41 0 -36 0 -35 0 +164 26 *
Fa
0  1.50000653087039e-07 37 0

0101000
+34 0 *
Ve
1.50000650033926e-07
730 304.8 1.12677422745749e-16
0 0

0101101
*
Ed
 1.50000650033926e-07 1 1 0
1  73 0 0 18.0000000000002
2  69 21 0 0 18.0000000000002
4 G1 21 0 38 0
0

0101000
+32 0 -163 0 *
Ed
 1.50000650033926e-07 1 1 0
1  43 0 2 30
0

0101000
+32 0 -37 0 *
Wi

0101100
+31 0 -36 0 -30 0 +162 26 *
Fa
0  1.50000650033926e-07 38 0

0101000
+29 0 *
Ve
1.50000718244178e-07
732 302.8 1.12677422745749e-16
0 0

0101101
*
Ed
 1.50000718244178e-07 1 1 0
1  74 0 0 18.0000000000002
2  70 21 0 0 18.0000000000002
4 G1 39 0 21 0
0

0101000
+27 0 -161 0 *
Ed
 1.50000221139529e-07 1 1 0
1  44 0 1.5707963267949 3.14159265358979
2  46 21 0 1.5707963267949 3.14159265358979
2  47 21 27 1.5707963267949 3.14159265358979
0

0101000
+32 0 -27 0 *
Wi

0101100
+31 0 -26 0 -25 0 +160 26 *
Fa
0  1.50000006425309e-07 21 0

0101000
+24 0 *
Ve
1.50000720483128e-07
732 60.8 1.12677422745749e-16
0 0

0101101
*
Ed
 1.50000720483128e-07 1 1 0
1  75 0 0 18.0000000000002
2  71 22 0 0 18.0000000000002
4 G1 22 0 39 0
0

0101000
+22 0 -159 0 *
Ed
 1.50000718244178e-07 1 1 0
1  45 0 -634.55 -392.55
0

0101000
+22 0 -27 0 *
Wi

0101100
+21 0 -26 0 -20 0 +158 26 *
Fa
0  1.50000718244178e-07 39 0

0101000
+19 0 *
Ve
1.50000877407601e-07
730 58.8 1.12677422745749e-16
0 0

0101101
*
Ed
 1.50000877407601e-07 1 1 0
1  76 0 0 18.0000000000002
2  72 22 0 0 18.0000000000002
4 G1 28 0 22 0
0

0101000
+17 0 -157 0 *
Ed
 1.50000194023004e-07 1 1 0
1  46 0 1.5707963267949 3.14159265358979
2  48 22 0 1.5707963267949 3.14159265358979
2  49 22 27 1.5707963267949 3.14159265358979
0

0101000
+22 0 -17 0 *
Wi

0101100
+21 0 -16 0 -15 0 +156 26 *
Fa
0  1.50000033541834e-07 22 0

0101000
+14 0 *
Ed
 1.50000877407601e-07 1 1 0
1  47 0 26 706
0

0101000
+109 0 -17 0 *
Wi

0101100
+108 0 -16 0 -12 0 +155 26 *
Fa
0  1.50000877407601e-07 28 0

0101000
+11 0 *
Wi

0101100
-134 0 +139 7 +149 15 *
Fa
0  1.5e-07 2 7

0101000
+9 0 *
Wi

0101100
-127 0 -114 0 +122 0 +117 0 *
Wi

0101100
-105 0 -100 0 -95 0 -90 0 +85 0 +80 0 -75 0 -70 0 -65 0 -60 0 
-55 0 +50 0 -45 0 -40 0 -35 0 +30 0 -25 0 +20 0 -15 0 +12 0 
*
Fa
0  1.5e-07 2 7

0101000
+7 0 +6 0 *
Sh

0101100
-248 0 +243 0 -238 0 -216 0 -211 0 +208 0 -199 0 -153 0 +146 0 -141 0 
+135 0 -132 0 -125 0 +120 0 +115 0 -112 0 +110 0 -103 0 -98 0 -93 0 
-88 0 +83 0 +78 0 -73 0 -68 0 -63 0 -58 0 -53 0 +48 0 -43 0 
-38 0 -33 0 +28 0 -23 0 +18 0 -13 0 +10 0 +8 0 +5 0 *
So

0100000
+4 0 *
Co

0100000
+3 0 *
Co

1100000
+2 0 *

+1 0 