DBRep_DrawableShape

CASCADE Topology V1, (c) Matra-Datavision
Locations 7
1
              1               0               0               0 
              0               1               0               0 
              0               0               1               0 
1
              1               0               0               0 
              0               1               0               0 
              0               0               1               0 
1
              1               0               0              78 
              0               1               0 -1055.19407376709 
              0               0               1         -1302.8 
2  1 1 2 1 3 1 0
1
              1               0               0               0 
              0               1               0               0 
              0               0               1               0 
2  1 -1 5 -1 0
2  1 -1 0
Curve2ds 24
1 0 0 0 1 
1 0 0 1 0 
8 -18.5 -0.5
1 -0.5 768 -1 0 
8 -18.5 -0.5
1 0.5 -1 -1 -0 
1 18 0 0 1 
1 0 0 1 0 
8 -18.5 -0.5
1 -0.5 12 -1 0 
8 -18.5 -0.5
1 0.5 -1 -1 -0 
8 0.5 253.40592623290513
1 12 -0.5 0 1 
8 0.5 253.40592623290513
1 1 -0.5 0 -1 
1 12 56.805926232905222 1 0 
1 0 0 0 1 
8 0.5 253.40592623290513
1 768 -0.5 0 1 
8 0.5 253.40592623290513
1 1 -0.5 0 -1 
8 0.5 253.40592623290513
1 19 -0.5 0 -1 
8 0.5 253.40592623290513
1 768 -0.5 0 1 
1 1 -57.805926232905222 1 0 
1 0 756 1 0 
8 0.5 253.40592623290513
1 12 -0.5 0 1 
8 0.5 253.40592623290513
1 19 -0.5 0 -1 
8 -762 -6
1 6 56.805926232905222 -1 0 
8 -762 -6
1 18 -6 0 -1 
1 1 -57.805926232905222 1 0 
1 0 0 1 0 
Curves 12
1 -90 1055.1940737670948 1302.8 1 0 -0 
1 678 1055.1940737670948 1302.3 -0 0 -1 
1 -90 1055.1940737670948 1320.8 1 0 -0 
1 -78 1055.1940737670948 1302.3 -0 0 -1 
1 -78 1054.6940737670948 1302.8 -0 1 0 
1 -78 1112 1302.8 1 0 -0 
1 678 1054.6940737670948 1302.8 -0 1 0 
1 678 1054.6940737670948 1320.8 -0 1 0 
1 678 1112 1302.8 0 0 1 
1 -78 1054.6940737670948 1320.8 -0 1 0 
1 -84 1112 1320.8 -1 -0 0 
1 -78 1112 1302.8 0 0 1 
Polygon3D 0
PolygonOnTriangulations 0
Surfaces 6
1 -90 1055.1940737670948 1302.8 -0 1 0 0 0 1 1 0 -0 
1 -90 1055.1940737670948 1302.8 0 0 1 1 0 -0 -0 1 0 
1 678 1054.1940737670948 1301.8 1 0 -0 0 0 1 0 -1 0 
1 -90 1055.1940737670948 1320.8 0 0 1 1 0 -0 -0 1 0 
1 -78 1054.1940737670948 1301.8 1 0 -0 0 0 1 0 -1 0 
1 -78 1112 1302.8 -0 1 0 0 0 1 1 0 -0 
Triangulations 0

TShapes 34
Ve
1.5e-07
-78 1055.19407376709 1302.8
0 0

0101101
*
Ve
1.5e-07
678 1055.19407376709 1302.8
0 0

0101101
*
Ed
 1.5e-07 1 1 0
1  1 0 12 768
2  1 1 0 12 768
2  2 2 0 12 768
0

0101000
+34 6 -33 6 *
Ve
1.5e-07
678 1055.19407376709 1320.8
0 0

0101101
*
Ed
 1.5e-07 1 1 0
1  2 0 -18.5 -0.5
2  3 1 0 -18.5 -0.5
2  4 3 0 -18.5 -0.5
0

0101000
+31 6 -33 6 *
Ve
1.5e-07
-78 1055.19407376709 1320.8
0 0

0101101
*
Ed
 1.5e-07 1 1 0
1  3 0 12 768
2  5 1 0 12 768
2  6 4 0 12 768
0

0101000
+29 6 -31 6 *
Ed
 1.5e-07 1 1 0
1  4 0 -18.5 -0.5
2  7 1 0 -18.5 -0.5
2  8 5 0 -18.5 -0.5
0

0101000
+29 6 -34 6 *
Wi

0101100
-32 0 +30 0 +28 0 -27 0 *
Fa
0  1e-07 1 0

0111000
+26 0 *
Ve
1.5e-07
-78 1112 1302.8
0 0

0101101
*
Ed
 1.5e-07 1 1 0
1  5 0 0.5 57.3059262329052
2  9 2 0 0.5 57.3059262329052
2  10 5 0 0.5 57.3059262329052
0

0101000
+34 6 -24 6 *
Ve
1.5e-07
678 1112 1302.8
0 0

0101101
*
Ed
 1.5e-07 1 1 0
1  6 0 0 756
2  11 2 5 0 756
2  12 6 0 0 756
0

0101000
+24 7 -22 7 *
Ed
 1.5e-07 1 1 0
1  7 0 0.5 57.3059262329052
2  13 2 0 0.5 57.3059262329052
2  14 3 0 0.5 57.3059262329052
0

0101000
+33 6 -22 6 *
Wi

0101100
+32 5 -23 5 -21 0 +20 5 *
Fa
0  1e-07 2 5

0111000
+19 0 *
Ve
1.5e-07
678 1112 1320.8
0 0

0101101
*
Ed
 1.5e-07 1 1 0
1  8 0 0.5 57.3059262329052
2  15 3 0 0.5 57.3059262329052
2  16 4 0 0.5 57.3059262329052
0

0101000
+31 6 -17 6 *
Ed
 1e-07 1 1 0
1  9 0 0 18
2  17 3 5 0 18
2  18 6 0 0 18
0

0101000
+22 7 -17 7 *
Wi

0101100
-16 5 +15 0 +20 5 +30 5 *
Fa
0  1e-07 3 5

0111000
+14 0 *
Ve
1.5e-07
-78 1112 1320.8
0 0

0101101
*
Ed
 1.5e-07 1 1 0
1  10 0 0.5 57.3059262329052
2  19 4 0 0.5 57.3059262329052
2  20 5 0 0.5 57.3059262329052
0

0101000
+29 6 -12 6 *
Ed
 1.5e-07 1 1 0
1  11 0 -762 -6
2  21 4 5 -762 -6
2  22 6 0 -762 -6
0

0101000
+17 7 -12 7 *
Wi

0101100
+16 5 +28 5 -11 5 +10 0 *
Fa
0  1e-07 4 5

0111000
+9 0 *
Ed
 1e-07 1 1 0
1  12 0 0 18
2  23 5 5 0 18
2  24 6 0 0 18
0

0101000
+24 7 -12 7 *
Wi

0101100
-11 5 +7 0 +23 5 +27 5 *
Fa
0  1e-07 5 5

0111000
+6 0 *
Wi

0101100
-21 0 -15 0 -10 0 +7 0 *
Fa
0  1e-07 6 0

0111000
+4 0 *
Sh

0101100
-25 5 -18 0 +13 0 +8 0 -5 0 +3 0 *
So

1100000
+2 0 *

+1 4 