DBRep_DrawableShape

CASCADE Topology V1, (c) Matra-Datavision
Locations 26
1
              1               0               0               0 
              0               1               0               0 
              0               0               1              -1 
2  1 -1 0
1
              1               0               0               0 
              0               1               0               0 
              0               0               1 2.00000000000011 
2  3 -1 0
1
              1               0               0               0 
              0               1               0               0 
              0               0               1              18 
2  1 1 5 1 0
2  5 -1 1 -1 0
1
              1               0               0               0 
              0               1               0               0 
              0               0               1               0 
1
             -1               0 -1.22464679914735e-16               0 
              0               1               0               0 
1.22464679914735e-16               0              -1               0 
1
              1               0               0             672 
              0               1               0           -1108 
              0               0               1             840 
1
              1               0               0               0 
              0               1               0               0 
              0               0               1              -0 
1
              1               0               0               0 
              0               1               0               0 
              0               0               1               1 
2  8 1 9 1 10 1 11 1 12 1 1 1 0
2  1 -1 12 -1 11 -1 10 -1 9 -1 8 -1 0
2  12 -1 11 -1 10 -1 9 -1 8 -1 0
1
              1               0               0               0 
              0               1               0               0 
              0               0               1              -0 
1
              1               0               0               0 
              0               1               0               0 
              0               0               1               1 
2  8 1 9 1 10 1 16 1 17 1 1 1 0
2  1 -1 17 -1 16 -1 10 -1 9 -1 8 -1 0
2  17 -1 16 -1 10 -1 9 -1 8 -1 0
2  8 1 9 1 10 1 16 1 17 1 1 1 5 1 0
2  5 -1 1 -1 17 -1 16 -1 10 -1 9 -1 8 -1 0
2  8 1 9 1 10 1 16 1 17 1 0
2  8 1 9 1 10 1 11 1 12 1 0
2  5 -1 1 -1 12 -1 11 -1 10 -1 9 -1 8 -1 0
2  8 1 9 1 10 1 11 1 12 1 1 1 5 1 0
Curve2ds 40
1 0 0 1 0 
1 372 -9 0 1 
1 1.5707963267948966 0 0 -1 
1 3.1415926535897931 0 0 -1 
1 18 0 0 -1 
1 0 -0 1.2246467991473532e-16 -1 
1 0 -18 1 0 
1 372 -9 0 1 
1 0 0 0 -1 
1 0 -0 1.2246467991473532e-16 -1 
1 0 -0 1 0 
1 372 -9 -1 0 
1 0 0 1 0 
1 -372 -9 0 1 
1 0 0 1 0 
1 0 -2.0000000000001137 1 0 
1 0 0 1 0 
1 0 -2.0000000000001137 1 0 
1 3.1415926535897931 0 0 -1 
1 0 0 1 0 
1 0 -2.0000000000001137 1 0 
1 0 0 1 0 
1 0 -2.0000000000001137 1 0 
1 1.5707963267948966 0 0 -1 
1 0 -0 1 0 
1 372 9 -1 0 
1 744 -2.2573115865052953e-14 1.2246467991473532e-16 -1 
1 18 0 0 -1 
1 2.2043642384652358e-15 -18 1 0 
1 372 9 -1 0 
1 0 -18 1 0 
1 -372 -9 0 1 
1 2.2043642384652358e-15 -18 1 0 
1 372 -9 -1 0 
1 0 0 0 -1 
1 744 -2.2573115865052953e-14 1.2246467991473532e-16 -1 
1 3.1415926535897931 0 0 -1 
1 1.5707963267948966 0 0 -1 
1 1.5707963267948966 0 0 -1 
1 3.1415926535897931 0 0 -1 
Curves 28
1 744 0 1 0 1 0 
1 744 6 0 0 0 1 
1 744 0 0 0 1 0 
1 744 10 0 0 0 1 
1 744 18 0 0 0 1 
1 744 0 1 0 1 0 
1 744 0 0 0 0 1 
1 -72 1108 840 1 0 -0 
1 0 0 1.0000000000001137 0 1 0 
2 2 6 0 0 0 -1 1 0 0 0 -1 0 2
1 746 4 0 1 0 0 
2 742 6 0 -0 0 -1 0 1 0 1 0 -0 2
1 742 4 0 0 0 1 
2 742 10 0 -0 0 -1 -1 -0 0 0 1 0 2
1 746 12 0 1 0 0 
2 2 10 0 -0 -0 -1 0 -1 0 -1 0 0 2
1 0 0 0 0 1 0 
1 742 12 0 0 0 1 
1 -72 1126 840 1 0 -0 
1 0 18 1.1368683772161603e-13 0 0 1 
1 -72 1126 840 1 0 -0 
1 0 0 1.0000000000001137 0 1 0 
1 -72 1108 840 1 0 -0 
1 0 0 1.1368683772161603e-13 0 0 1 
1 0 6 0 0 0 1 
1 0 10 0 0 0 1 
1 2 4 0 0 0 1 
1 2 12 0 0 0 1 
Polygon3D 0
PolygonOnTriangulations 0
Surfaces 15
1 744 0 0 -1 0 0 0 1 0 0 0 -1 
1 372 9 1.0000000000000568 0 0 1 1 0 -0 -0 1 0 
2 742 6 0 -0 0 -1 0 1 0 1 0 -0 2
1 744 6 0 -1 0 0 0 1 0 0 0 -1 
2 742 10 0 -0 0 -1 -1 -0 0 0 1 0 2
1 744 18 0 0 -1 0 -1 0 1.2246467991473532e-16 -1.2246467991473532e-16 -0 -1 
1 372 9 1.0000000000000568 0 0 1 1 0 -0 -0 1 0 
1 744 0 0 0 -1 0 -1 0 1.2246467991473532e-16 -1.2246467991473532e-16 -0 -1 
1 0 0 1.1368683772161603e-13 -1 0 0 0 1 0 0 0 -1 
2 2 6 0 0 0 -1 1 0 0 0 -1 0 2
1 2 4 0 0 1 0 1 0 0 0 0 -1 
1 372 8 0 0 0 1 1 0 -0 -0 1 0 
2 2 10 0 -0 -0 -1 0 -1 0 -1 0 0 2
1 2 12 0 0 1 0 1 0 0 0 0 -1 
1 0 6 0 -1 0 0 0 1 0 0 0 -1 
Triangulations 0

TShapes 91
Ve
1.5e-07
744 0 0
0 0

0101101
*
Ve
1.50000113686838e-07
744 6 0
0 0

0101101
*
Ed
 1.5e-07 1 1 0
1  1 0 0 6
2  1 1 2 0 6
2  2 2 0 0 6
0

0101000
+91 2 -90 2 *
Ve
1.50000113686838e-07
744 6 2.00000000000011
0 0

0101101
*
Ed
 1.50000113686838e-07 1 1 0
1  2 0 0 2.00000000000011
2  3 3 0 0 2.00000000000011
4 G1 3 0 4 0
0

0101000
+90 0 -88 0 *
Ve
1.50000113686838e-07
744 10 2.00000000000011
0 0

0101101
*
Ed
 1.50000113686838e-07 1 1 0
1  3 0 6 10
0

0101000
+88 4 -86 4 *
Ve
1.50000113686838e-07
744 10 0
0 0

0101101
*
Ed
 1.50000113686838e-07 1 1 0
1  4 0 0 2.00000000000011
2  4 5 0 0 2.00000000000011
4 G1 4 0 5 0
0

0101000
+84 0 -86 0 *
Ve
1.5e-07
744 18 0
0 0

0101101
*
Ed
 1.5e-07 1 1 0
1  1 0 10 18
2  1 1 2 10 18
2  2 2 0 10 18
0

0101000
+84 2 -82 2 *
Ve
1.5e-07
744 18 18
0 0

0101101
*
Ed
 1.5e-07 1 1 0
1  5 0 0 18
2  5 1 0 0 18
2  6 6 0 0 18
0

0101000
+82 0 -80 0 *
Ve
1.5e-07
744 0 18
0 0

0101101
*
Ed
 1e-07 1 1 0
1  6 0 0 18
2  7 1 7 0 18
2  8 7 0 0 18
0

0101000
+78 7 -80 7 *
Ed
 1.5e-07 1 1 0
1  7 0 0 18
2  9 1 0 0 18
2  10 8 0 0 18
0

0101000
+91 0 -78 0 *
Wi

0101100
-89 1 -87 0 -85 3 +83 0 -81 1 -79 0 +77 6 +76 0 *
Fa
0  1e-07 1 0

0101000
+75 0 *
Ve
1.5e-07
0 0 1.13686837721616e-13
0 0

0101101
*
Ed
 1.5e-07 1 1 0
1  8 0 0 744
2  11 8 14 0 744
2  12 2 15 0 744
0

0101000
+91 14 -73 14 *
Ve
1.50000227373675e-07
0 6 0
0 0

0101101
*
Ed
 1.5e-07 1 1 0
1  9 0 0 6
2  13 9 2 0 6
2  14 2 0 0 6
0

0101000
+73 2 -71 2 *
Ve
1.50000147957141e-07
2 4 0
0 0

0101101
*
Ed
 1.50000056843419e-07 1 1 0
1  10 0 1.5707963267949 3.14159265358979
2  15 10 0 1.5707963267949 3.14159265358979
2  16 10 4 1.5707963267949 3.14159265358979
0

0101000
+69 0 -71 0 *
Ve
1.50000140405152e-07
742 4 0
0 0

0101101
*
Ed
 1.50000140405152e-07 1 1 0
1  11 0 -744 -4
0

0101000
+69 0 -67 0 *
Ed
 1.50000056843419e-07 1 1 0
1  12 0 1.5707963267949 3.14159265358979
2  17 3 0 1.5707963267949 3.14159265358979
2  18 3 4 1.5707963267949 3.14159265358979
0

0101000
+90 0 -67 0 *
Wi

0101100
-72 13 -70 1 +68 0 -66 0 +65 0 +89 1 *
Fa
0  1.5e-07 2 1

0101000
+64 0 *
Ve
1.50000140405152e-07
742 4 0
0 0

0101101
*
Ed
 1.50000140405152e-07 1 1 0
1  13 0 0 2.00000000000011
2  19 3 0 0 2.00000000000011
4 G1 11 0 3 0
0

0101000
+67 0 -62 3 *
Ed
 1.5e-07 1 1 0
1  12 0 1.5707963267949 3.14159265358979
2  17 3 0 1.5707963267949 3.14159265358979
2  18 3 4 1.5707963267949 3.14159265358979
0

0101000
+88 4 -62 0 *
Wi

0101100
+87 0 -61 0 -65 0 +60 3 *
Fa
0  1.5e-07 3 0

0101000
+59 0 *
Ve
1.50000147957141e-07
2 4 0
0 0

0101101
*
Ed
 1.50000140405152e-07 1 1 0
1  11 0 -744 -4
0

0101000
+57 0 -62 0 *
Ve
1.50000140405152e-07
742 12 0
0 0

0101101
*
Ed
 1.5e-07 1 1 0
1  14 0 1.5707963267949 3.14159265358979
2  20 5 0 1.5707963267949 3.14159265358979
2  21 5 4 1.5707963267949 3.14159265358979
0

0101000
+55 0 -86 4 *
Ve
1.50000147957141e-07
2 12 0
0 0

0101101
*
Ed
 1.50000140405152e-07 1 1 0
1  15 0 -744 -4
0

0101000
+53 0 -55 0 *
Ve
1.50000113686838e-07
0 10 2.00000000000011
0 0

0101101
*
Ed
 1.5e-07 1 1 0
1  16 0 1.5707963267949 3.14159265358979
2  22 13 0 1.5707963267949 3.14159265358979
2  23 13 4 1.5707963267949 3.14159265358979
0

0101000
+51 4 -53 0 *
Ve
1.50000113686838e-07
0 6 2.00000000000011
0 0

0101101
*
Ed
 1.50000113686838e-07 1 1 0
1  17 0 6 10
0

0101000
+49 4 -51 4 *
Ed
 1.5e-07 1 1 0
1  10 0 1.5707963267949 3.14159265358979
2  15 10 0 1.5707963267949 3.14159265358979
2  16 10 4 1.5707963267949 3.14159265358979
0

0101000
+57 0 -49 4 *
Wi

0101100
-56 3 +60 3 -85 3 +54 3 +52 3 +50 3 +48 3 +47 3 *
Fa
0  1e-07 12 3

0101000
-46 0 *
Ve
1.50000140405152e-07
742 12 0
0 0

0101101
*
Ed
 1.50000140405152e-07 1 1 0
1  18 0 0 2.00000000000011
2  24 5 0 0 2.00000000000011
4 G1 5 0 14 0
0

0101000
+44 0 -55 3 *
Ed
 1.50000056843419e-07 1 1 0
1  14 0 1.5707963267949 3.14159265358979
2  20 5 0 1.5707963267949 3.14159265358979
2  21 5 4 1.5707963267949 3.14159265358979
0

0101000
+44 0 -84 0 *
Wi

0101100
+43 0 -83 0 -42 0 +54 3 *
Fa
0  1.5e-07 5 0

0101000
+41 0 *
Ve
1.50000147957141e-07
2 12 0
0 0

0101101
*
Ed
 1.50000140405152e-07 1 1 0
1  15 0 -744 -4
0

0101000
+39 0 -44 0 *
Ve
1.50000227373675e-07
0 10 0
0 0

0101101
*
Ed
 1.50000056843419e-07 1 1 0
1  16 0 1.5707963267949 3.14159265358979
2  22 13 0 1.5707963267949 3.14159265358979
2  23 13 4 1.5707963267949 3.14159265358979
0

0101000
+37 0 -39 0 *
Ve
1.5e-07
0 18 1.13686837721616e-13
0 0

0101101
*
Ed
 1.5e-07 1 1 0
1  9 0 10 18
2  13 9 2 10 18
2  14 2 0 10 18
0

0101000
+37 2 -35 2 *
Ed
 1.5e-07 1 1 0
1  19 0 0 744
2  25 6 19 0 744
2  26 2 20 0 744
0

0101000
+82 19 -35 19 *
Wi

0101100
+42 0 +38 0 +36 0 -34 1 +33 18 +81 1 *
Fa
0  1.5e-07 2 1

0101000
+32 0 *
Ve
1.5e-07
0 18 18.0000000000001
0 0

0101101
*
Ed
 1.5e-07 1 1 0
1  20 0 0 18
2  27 6 0 0 18
2  28 9 0 0 18
0

0101000
+35 0 -30 0 *
Ed
 1.5e-07 1 1 0
1  21 0 0 744
2  29 6 22 0 744
2  30 7 20 0 744
0

0101000
+80 22 -30 22 *
Wi

0101100
+79 0 -29 0 -33 18 +28 21 *
Fa
0  1.5e-07 6 0

0101000
+27 0 *
Ve
1.5e-07
0 0 18.0000000000001
0 0

0101101
*
Ed
 1e-07 1 1 0
1  22 0 0 18
2  31 9 7 0 18
2  32 7 0 0 18
0

0101000
+25 7 -30 7 *
Ed
 1.5e-07 1 1 0
1  23 0 0 744
2  33 8 25 0 744
2  34 7 15 0 744
0

0101000
+78 25 -25 25 *
Wi

0101100
+77 0 +28 23 -24 0 -23 24 *
Fa
0  1.5e-07 7 0

0111000
+22 0 *
Ed
 1.5e-07 1 1 0
1  24 0 0 18
2  35 9 0 0 18
2  36 8 0 0 18
0

0101000
+73 0 -25 0 *
Wi

0101100
+76 0 -20 0 -72 13 +23 26 *
Fa
0  1.5e-07 8 0

0101000
+19 0 *
Ed
 1.50000113686838e-07 1 1 0
1  25 0 0 2.00000000000011
2  37 10 0 0 2.00000000000011
4 G1 15 0 10 0
0

0101000
+71 0 -49 0 *
Ed
 1.50000113686838e-07 1 1 0
1  26 0 0 2.00000000000011
2  38 13 0 0 2.00000000000011
4 G1 13 0 15 0
0

0101000
+37 0 -51 0 *
Wi

0101100
-70 1 -17 0 -48 3 +16 0 -34 1 -29 0 +24 6 +20 0 *
Fa
0  1e-07 9 0

0101000
+15 0 *
Ed
 1.50000147957141e-07 1 1 0
1  27 0 0 2.00000000000011
2  39 10 0 0 2.00000000000011
4 G1 11 0 10 0
0

0101000
+69 0 -57 3 *
Wi

0101100
+13 0 -17 0 -68 0 +47 3 *
Fa
0  1.5e-07 10 0

0101000
+12 0 *
Wi

0101100
+13 0 -61 0 -66 0 +56 3 *
Fa
0  1.50000140405152e-07 11 0

0101000
+10 0 *
Ed
 1.50000147957141e-07 1 1 0
1  28 0 0 2.00000000000011
2  40 13 0 0 2.00000000000011
4 G1 14 0 13 0
0

0101000
+39 0 -53 3 *
Wi

0101100
+8 0 -43 0 -38 0 +52 3 *
Fa
0  1.50000140405152e-07 14 0

0101000
+7 0 *
Wi

0101100
+16 0 -8 0 -36 0 +50 3 *
Fa
0  1.5e-07 13 0

0101000
+5 0 *
Sh

0101100
-74 0 -63 0 -58 0 -45 0 -40 0 -31 0 -26 0 +21 6 +18 0 +14 0 
-11 0 +9 0 -6 0 -4 0 *
So

0100000
+3 0 *
Co

1100000
+2 0 *

+1 0 