DBRep_DrawableShape

CASCADE Topology V1, (c) Matra-Datavision
Locations 12
1
              1               0               0               0 
              0               1               0               0 
              0               0               1              -1 
1
              1               0               0               0 
              0               1               0               0 
              0               0               1               0 
1
             -1               0 -1.22464679914735e-16               0 
              0               1               0               0 
1.22464679914735e-16               0              -1               0 
1
              1               0               0             672 
              0               1               0           -1108 
              0               0               1             840 
1
              1               0               0               0 
              0               1               0               0 
              0               0               1              -0 
1
              1               0               0               0 
              0               1               0               0 
              0               0               1               1 
2  2 1 3 1 4 1 5 1 6 1 0
2  6 -1 5 -1 4 -1 3 -1 2 -1 0
1
              1               0               0               0 
              0               1               0               0 
              0               0               1              -0 
1
              1               0               0               0 
              0               1               0               0 
              0               0               1               1 
2  2 1 3 1 4 1 9 1 10 1 0
2  10 -1 9 -1 4 -1 3 -1 2 -1 0
Curve2ds 4
1 372 -9 0 1 
1 372 9 -1 0 
1 -372 -9 0 1 
1 372 -9 -1 0 
Curves 4
1 744 0 1 0 1 0 
1 -72 1126 840 1 0 -0 
1 0 0 1.0000000000001137 0 1 0 
1 -72 1108 840 1 0 -0 
Polygon3D 0
PolygonOnTriangulations 0
Surfaces 1
1 372 9 1.0000000000000568 0 0 1 1 0 -0 -0 1 0 
Triangulations 0

TShapes 9
Ve
1.5e-07
744 0 1
0 0

0101101
*
Ve
1.5e-07
744 18 1
0 0

0101101
*
Ed
 1.5e-07 1 1 0
1  1 0 0 18
2  1 1 0 0 18
0

0101000
+9 0 -8 0 *
Ve
1.5e-07
0 18 1.00000000000011
0 0

0101101
*
Ed
 1.5e-07 1 1 0
1  2 0 0 744
2  2 1 8 0 744
0

0101000
+8 8 -6 8 *
Ve
1.5e-07
0 0 1.00000000000011
0 0

0101101
*
Ed
 1.5e-07 1 1 0
1  3 0 0 18
2  3 1 0 0 18
0

0101000
+4 0 -6 0 *
Ed
 1.5e-07 1 1 0
1  4 0 0 744
2  4 1 12 0 744
0

0101000
+9 12 -4 12 *
Wi

0101100
+7 0 +5 7 -3 0 -2 11 *

+1 1 