DBRep_DrawableShape

CASCADE Topology V1, (c) Matra-Datavision
Locations 0
Curve2ds 0
Curves 8
1 746 4 0 1 0 0 
2 742 6 0 -0 0 -1 0 1 0 1 0 -0 2
1 744 0 0 0 1 0 
2 742 10 0 -0 0 -1 -1 -0 0 0 1 0 2
1 746 12 0 1 0 0 
2 2 10 0 -0 -0 -1 0 -1 0 -1 0 0 2
1 0 0 0 0 1 0 
2 2 6 0 0 0 -1 1 0 0 0 -1 0 2
Polygon3D 0
PolygonOnTriangulations 0
Surfaces 1
1 372 8 0 0 0 1 1 0 -0 -0 1 0 
Triangulations 0

TShapes 19
Ve
1.50000147957141e-07
2 4 0
0 0

0101101
*
Ve
1.50000140405152e-07
742 4 0
0 0

0101101
*
Ed
 1.50000140405152e-07 1 1 0
1  1 0 -744 -4
0

0101000
+19 0 -18 0 *
Ve
1.50000113686838e-07
744 6 0
0 0

0101101
*
Ed
 1.5e-07 1 1 0
1  2 0 1.5707963267949 3.14159265358979
0

0101000
+16 0 -18 0 *
Ve
1.50000113686838e-07
744 10 0
0 0

0101101
*
Ed
 1.50000113686838e-07 1 1 0
1  3 0 6 10
0

0101000
+16 0 -14 0 *
Ve
1.50000140405152e-07
742 12 0
0 0

0101101
*
Ed
 1.5e-07 1 1 0
1  4 0 1.5707963267949 3.14159265358979
0

0101000
+12 0 -14 0 *
Ve
1.50000147957141e-07
2 12 0
0 0

0101101
*
Ed
 1.50000140405152e-07 1 1 0
1  5 0 -744 -4
0

0101000
+10 0 -12 0 *
Ve
1.50000113686838e-07
0 10 0
0 0

0101101
*
Ed
 1.5e-07 1 1 0
1  6 0 1.5707963267949 3.14159265358979
0

0101000
+8 0 -10 0 *
Ve
1.50000113686838e-07
0 6 0
0 0

0101101
*
Ed
 1.50000113686838e-07 1 1 0
1  7 0 6 10
0

0101000
+6 0 -8 0 *
Ed
 1.5e-07 1 1 0
1  8 0 1.5707963267949 3.14159265358979
0

0101000
+19 0 -6 0 *
Wi

0101100
-17 0 +15 0 -13 0 +11 0 +9 0 +7 0 +5 0 +4 0 *
Fa
0  1e-07 1 0

0101000
-3 0 *
Sh

1101000
+2 0 *

+1 0 