DBRep_DrawableShape

CASCADE Topology V1, (c) Matra-Datavision
Locations 5
1
              1               0               0               0 
              0               1               0               0 
              0               0               1               0 
1
             -1               0 -1.22464679914735e-16               0 
              0               1               0               0 
1.22464679914735e-16               0              -1               0 
1
              1               0               0             672 
              0               1               0           -1108 
              0               0               1             840 
2  1 1 2 1 3 1 0
2  1 -1 0
Curve2ds 48
1 18 0 0 -1 
1 0 0 0 1 
8 8 10
1 8 -4 1 0 
8 8 10
1 -8 4 1 0 
8 -10 -2
1 16 -2 0 1 
8 -10 -2
1 4 -2 0 -1 
8 8 10
1 8 -12 1 0 
8 8 10
1 -8 4 1 0 
1 18 0 0 -1 
1 0 0 0 1 
1 0 -18 1 0 
1 0 0 1 0 
1 0 0 0 -1 
1 0 0 0 1 
1 0 0 1 0 
1 0 0 1 0 
8 -746 -2
1 -2 4 -1 0 
8 -746 -2
1 2 2 0 -1 
1 744 0 0 1 
1 18 0 0 -1 
1 0 0 1 0 
1 18 0 0 1 
1 0 0 0 1 
1 0 0 1 0 
8 8 10
1 -8 748 1 0 
8 8 10
1 8 -4 1 0 
1 0 8 1 0 
1 0 0 0 1 
8 -10 -2
1 748 -2 0 -1 
8 -10 -2
1 16 -2 0 1 
8 8 10
1 -8 748 1 0 
8 8 10
1 8 -12 1 0 
8 -746 -2
1 2 2 0 -1 
8 -746 -2
1 -2 12 -1 0 
1 0 18 1 0 
1 18 0 0 1 
1 744 0 0 1 
1 18 0 0 -1 
1 0 0 0 1 
1 0 18 1 0 
1 0 744 1 0 
1 0 -18 1 0 
1 744 0 0 1 
1 0 0 0 -1 
1 0 0 1 0 
1 0 0 0 1 
1 0 744 1 0 
1 0 0 1 0 
Curves 24
1 -72 1108 840 -0 1 0 
1 -72 1112 830 0 0 1 
1 -72 1110 838 0 -1 0 
1 -72 1120 830 0 0 1 
1 -72 1108 840 -0 1 0 
1 -72 1126 822 0 0 1 
1 -72 1108 822 -0 1 0 
1 -72 1108 822 0 0 1 
1 -74 1112 840 -1 -0 0 
1 672 1108 840 -0 1 0 
1 -72 1108 840 1 0 -0 
1 -76 1112 838 1 0 -0 
1 672 1112 830 0 0 1 
1 -76 1120 838 1 0 -0 
1 672 1110 838 0 -1 0 
1 672 1120 830 0 0 1 
1 -74 1120 840 -1 -0 0 
1 -72 1126 840 1 0 -0 
1 672 1108 840 -0 1 0 
1 -72 1126 822 1 0 -0 
1 672 1126 822 0 0 1 
1 672 1108 822 -0 1 0 
1 -72 1108 822 1 0 -0 
1 672 1108 822 0 0 1 
Polygon3D 0
PolygonOnTriangulations 0
Surfaces 10
1 -72 1108 822 1 0 -0 0 0 1 0 -1 0 
1 -72 1108 840 0 0 1 1 0 -0 -0 1 0 
1 -76 1112 838 -0 1 0 0 0 1 1 0 -0 
1 -76 1112 838 0 0 1 1 0 -0 -0 1 0 
1 -76 1120 838 -0 1 0 0 0 1 1 0 -0 
1 -72 1108 840 0 0 1 1 0 -0 -0 1 0 
1 -72 1126 822 -0 1 0 0 0 1 1 0 -0 
1 -72 1108 822 0 0 1 1 0 -0 -0 1 0 
1 -72 1108 822 -0 1 0 0 0 1 1 0 -0 
1 672 1108 822 1 0 -0 0 0 1 0 -1 0 
Triangulations 0

TShapes 63
Ve
1.5e-07
-72 1108 840
0 0

0101101
*
Ve
1.5e-07
-72 1112 840
0 0

0101101
*
Ed
 1.5e-07 1 1 0
1  1 0 0 4
2  1 1 0 0 4
2  2 2 0 0 4
0

0101000
+63 5 -62 5 *
Ve
1.5e-07
-72 1112 838
0 0

0101101
*
Ed
 1.5e-07 1 1 0
1  2 0 8 10
2  3 1 0 8 10
2  4 3 0 8 10
0

0101000
+60 5 -62 5 *
Ve
1.5e-07
-72 1120 838
0 0

0101101
*
Ed
 1.5e-07 1 1 0
1  3 0 -10 -2
2  5 1 0 -10 -2
2  6 4 0 -10 -2
0

0101000
+58 5 -60 5 *
Ve
1.5e-07
-72 1120 840
0 0

0101101
*
Ed
 1.5e-07 1 1 0
1  4 0 8 10
2  7 1 0 8 10
2  8 5 0 8 10
0

0101000
+58 5 -56 5 *
Ve
1.5e-07
-72 1126 840
0 0

0101101
*
Ed
 1.5e-07 1 1 0
1  5 0 12 18
2  9 1 0 12 18
2  10 6 0 12 18
0

0101000
+56 5 -54 5 *
Ve
1e-07
-72 1126 822
0 0

0101101
*
Ed
 1e-07 1 1 0
1  6 0 0 18
2  11 1 0 0 18
2  12 7 0 0 18
0

0101000
-54 5 +52 5 *
Ve
1e-07
-72 1108 822
0 0

0101101
*
Ed
 1e-07 1 1 0
1  7 0 0 18
2  13 1 0 0 18
2  14 8 0 0 18
0

0101000
-52 5 +50 5 *
Ed
 1e-07 1 1 0
1  8 0 0 18
2  15 1 0 0 18
2  16 9 0 0 18
0

0101000
-63 5 +50 5 *
Wi

0101100
-61 0 +59 0 +57 0 -55 0 -53 0 +51 0 +49 0 -48 0 *
Fa
0  1e-07 1 0

0111000
+47 0 *
Ve
1.5e-07
672 1112 840
0 0

0101101
*
Ed
 1.5e-07 1 1 0
1  9 0 -746 -2
2  17 2 0 -746 -2
2  18 3 0 -746 -2
0

0101000
+45 5 -62 5 *
Ve
1.5e-07
672 1108 840
0 0

0101101
*
Ed
 1.5e-07 1 1 0
1  10 0 0 4
2  19 2 0 0 4
2  20 10 0 0 4
0

0101000
+43 5 -45 5 *
Ed
 1.5e-07 1 1 0
1  11 0 0 744
2  21 2 0 0 744
2  22 9 0 0 744
0

0101000
-43 5 +63 5 *
Wi

0101100
-61 0 +44 0 +42 0 +41 0 *
Fa
0  1e-07 2 0

0111000
+40 0 *
Ve
1.5e-07
672 1112 838
0 0

0101101
*
Ed
 1.5e-07 1 1 0
1  12 0 4 748
2  23 3 0 4 748
2  24 4 0 4 748
0

0101000
+60 5 -38 5 *
Ed
 1.5e-07 1 1 0
1  13 0 8 10
2  25 3 0 8 10
2  26 10 0 8 10
0

0101000
+38 5 -45 5 *
Wi

0101100
-37 0 -36 0 -44 0 +59 0 *
Fa
0  1e-07 3 0

0111000
+35 0 *
Ve
1.5e-07
672 1120 838
0 0

0101101
*
Ed
 1.5e-07 1 1 0
1  14 0 4 748
2  27 4 0 4 748
2  28 5 0 4 748
0

0101000
+58 5 -33 5 *
Ed
 1.5e-07 1 1 0
1  15 0 -10 -2
2  29 4 0 -10 -2
2  30 10 0 -10 -2
0

0101000
+33 5 -38 5 *
Wi

0101100
-32 0 -31 0 +37 0 +57 0 *
Fa
0  1e-07 4 0

0111000
+30 0 *
Ve
1.5e-07
672 1120 840
0 0

0101101
*
Ed
 1.5e-07 1 1 0
1  16 0 8 10
2  31 5 0 8 10
2  32 10 0 8 10
0

0101000
+33 5 -28 5 *
Ed
 1.5e-07 1 1 0
1  17 0 -746 -2
2  33 5 0 -746 -2
2  34 6 0 -746 -2
0

0101000
+28 5 -56 5 *
Wi

0101100
-32 0 -27 0 -26 0 +55 0 *
Fa
0  1e-07 5 0

0111000
+25 0 *
Ve
1.5e-07
672 1126 840
0 0

0101101
*
Ed
 1.5e-07 1 1 0
1  18 0 0 744
2  35 6 0 0 744
2  36 7 0 0 744
0

0101000
-23 5 +54 5 *
Ed
 1.5e-07 1 1 0
1  19 0 12 18
2  37 6 0 12 18
2  38 10 0 12 18
0

0101000
+28 5 -23 5 *
Wi

0101100
-53 0 -22 0 +21 0 -26 0 *
Fa
0  1e-07 6 0

0111000
+20 0 *
Ve
1e-07
672 1126 822
0 0

0101101
*
Ed
 1e-07 1 1 0
1  20 0 0 744
2  39 7 0 0 744
2  40 8 0 0 744
0

0101000
-18 5 +52 5 *
Ed
 1e-07 1 1 0
1  21 0 0 18
2  41 7 0 0 18
2  42 10 0 0 18
0

0101000
-23 5 +18 5 *
Wi

0101100
-17 0 -16 0 +22 0 +51 0 *
Fa
0  1e-07 7 0

0111000
+15 0 *
Ve
1e-07
672 1108 822
0 0

0101101
*
Ed
 1e-07 1 1 0
1  22 0 0 18
2  43 8 0 0 18
2  44 10 0 0 18
0

0101000
-18 5 +13 5 *
Ed
 1e-07 1 1 0
1  23 0 0 744
2  45 8 0 0 744
2  46 9 0 0 744
0

0101000
-13 5 +50 5 *
Wi

0101100
-49 0 -17 0 +12 0 +11 0 *
Fa
0  1e-07 8 0

0111000
+10 0 *
Ed
 1e-07 1 1 0
1  24 0 0 18
2  47 9 0 0 18
2  48 10 0 0 18
0

0101000
-43 5 +13 5 *
Wi

0101100
-11 0 -8 0 +41 0 +48 0 *
Fa
0  1e-07 9 0

0111000
+7 0 *
Wi

0101100
-42 0 +36 0 +31 0 -27 0 -21 0 +16 0 +12 0 -8 0 *
Fa
0  1e-07 10 0

0111000
+5 0 *
Sh

0101100
-46 0 +39 0 +34 0 +29 0 -24 0 +19 0 +14 0 -9 0 -6 0 +4 0 
*
So

0100000
+3 0 *
Co

1100000
+2 0 *

+1 4 