DBRep_DrawableShape

CASCADE Topology V1, (c) Matra-Datavision
Locations 5
1
              1               0               0               0 
              0               1               0               0 
              0               0               1               0 
1
              1               0               0              72 
              0               1               0           -1112 
              0               0               1           -1307 
2  1 1 2 1 0
1
              1               0               0               0 
              0               1               0               0 
              0               0               1               0 
2  4 -1 0
Curve2ds 24
1 0 0 0 1 
1 0 0 1 0 
1 0 744 1 0 
1 0 0 1 0 
1 13.799999999999955 0 0 1 
1 16 18 1 0 
1 0 0 1 0 
1 0 0 1 0 
1 0 0 0 1 
1 0 0 0 -1 
1 0 8 1 0 
1 0 0 0 1 
1 744 0 0 1 
1 0 0 0 -1 
1 13.799999999999955 0 0 -1 
1 760 18 0 1 
1 0 -8 1 0 
1 0 744 1 0 
1 16 18 0 1 
1 13.799999999999955 0 0 -1 
1 16 26 1 0 
1 13.799999999999955 0 0 1 
1 0 -8 1 0 
1 0 0 1 0 
Curves 12
1 -72 1112 1307 1 0 -0 
1 672 1112 1307 0 0 1 
1 -72 1112 1320.8 1 0 -0 
1 -72 1112 1307 0 0 1 
1 -72 1112 1307 -0 1 0 
1 -72 1120 1307 1 0 -0 
1 672 1112 1307 -0 1 0 
1 672 1112 1320.8 -0 1 0 
1 672 1120 1307 0 0 1 
1 -72 1112 1320.8 -0 1 0 
1 -72 1120 1320.8 1 0 -0 
1 -72 1120 1307 0 0 1 
Polygon3D 0
PolygonOnTriangulations 0
Surfaces 6
1 -72 1112 1307 -0 1 0 0 0 1 1 0 -0 
1 -72 1112 1307 0 0 1 1 0 -0 -0 1 0 
1 672 1112 1307 1 0 -0 0 0 1 0 -1 0 
1 -88 1094 1320.8 0 0 1 1 0 -0 -0 1 0 
1 -72 1112 1307 1 0 -0 0 0 1 0 -1 0 
1 -72 1120 1307 -0 1 0 0 0 1 1 0 -0 
Triangulations 0

TShapes 35
Ve
1e-07
-72 1112 1307
0 0

0101101
*
Ve
1e-07
672 1112 1307
0 0

0101101
*
Ed
 1e-07 1 1 0
1  1 0 0 744
2  1 1 0 0 744
2  2 2 0 0 744
0

0101000
+35 5 -34 5 *
Ve
1e-07
672 1112 1320.8
0 0

0101101
*
Ed
 1e-07 1 1 0
1  2 0 0 13.8
2  3 1 0 0 13.8
2  4 3 0 0 13.8
0

0101000
+34 5 -32 5 *
Ve
1e-07
-72 1112 1320.8
0 0

0101101
*
Ed
 1e-07 1 1 0
1  3 0 0 744
2  5 1 0 0 744
2  6 4 5 0 744
0

0101000
+30 5 -32 5 *
Ed
 1e-07 1 1 0
1  4 0 0 13.8
2  7 1 0 0 13.8
2  8 5 0 0 13.8
0

0101000
+35 5 -30 5 *
Wi

0101100
-33 4 -31 4 +29 4 +28 4 *
Fa
0  1e-07 1 4

0101000
+27 0 *
Ve
1e-07
-72 1120 1307
0 0

0101101
*
Ed
 1e-07 1 1 0
1  5 0 0 8
2  9 2 0 0 8
2  10 5 0 0 8
0

0101000
+35 5 -25 5 *
Ve
1e-07
672 1120 1307
0 0

0101101
*
Ed
 1e-07 1 1 0
1  6 0 0 744
2  11 2 0 0 744
2  12 6 0 0 744
0

0101000
+25 5 -23 5 *
Ed
 1e-07 1 1 0
1  7 0 0 8
2  13 2 0 0 8
2  14 3 0 0 8
0

0101000
+34 5 -23 5 *
Wi

0101100
-24 4 -22 4 +21 4 +33 4 *
Fa
0  1e-07 2 4

0101000
+20 0 *
Ve
1e-07
672 1120 1320.8
0 0

0101101
*
Ed
 1e-07 1 1 0
1  8 0 0 8
2  15 3 0 0 8
2  16 4 5 0 8
0

0101000
+32 5 -18 5 *
Ed
 1e-07 1 1 0
1  9 0 0 13.8
2  17 3 0 0 13.8
2  18 6 0 0 13.8
0

0101000
+23 5 -18 5 *
Wi

0101100
-31 4 -17 4 +16 4 +21 4 *
Fa
0  1e-07 3 4

0101000
+15 0 *
Ve
1e-07
-72 1120 1320.8
0 0

0101101
*
Ed
 1e-07 1 1 0
1  10 0 0 8
2  19 4 5 0 8
2  20 5 0 0 8
0

0101000
+30 5 -13 5 *
Ed
 1e-07 1 1 0
1  11 0 0 744
2  21 4 5 0 744
2  22 6 0 0 744
0

0101000
+13 5 -18 5 *
Wi

0101100
-12 4 -11 4 +17 4 +29 4 *
Fa
0  1e-07 4 0

0101000
+10 0 *
Ed
 1e-07 1 1 0
1  12 0 0 13.8
2  23 5 0 0 13.8
2  24 6 0 0 13.8
0

0101000
+25 5 -13 5 *
Wi

0101100
-28 4 -12 4 +8 4 +24 4 *
Fa
0  1e-07 5 4

0101000
+7 0 *
Wi

0101100
-22 4 -16 4 +11 4 +8 4 *
Fa
0  1e-07 6 4

0101000
+5 0 *
Sh

0101100
-26 0 -19 0 +14 0 +9 0 -6 0 +4 0 *
So

0100000
+3 0 *
Co

1100000
+2 0 *

+1 3 