DBRep_DrawableShape

CASCADE Topology V1, (c) Matra-Datavision
Locations 5
1
              1               0               0               0 
              0               1               0               0 
              0               0               1               0 
1
              1               0               0               0 
              0 1.11022302462516e-16              -1               0 
              0               1 1.11022302462516e-16               0 
1
              1               0               0              72 
              0               1               0             858 
              0               0               1           -1268 
2  1 1 2 1 3 1 0
2  1 -1 0
Curve2ds 36
1 0 0 1 0 
1 0 0 1 0 
1 42 0 0 -1 
1 0 0 0 1 
1 0 -18 1 0 
1 0 0 1 0 
1 0 0 0 -1 
1 0 0 0 1 
1 0 0 0 1 
1 0 0 1 0 
1 0 744 1 0 
1 0 0 1 0 
1 42 0 0 1 
1 0 0 1 0 
1 0 18 1 0 
1 42 0 0 1 
1 744 0 0 1 
1 42 0 0 -1 
2 232 9 1 0 -0 1 3.25
1 0 43 1 0 
2 512 9 1 0 -0 1 3.25
1 0 43 1 0 
1 0 0 0 1 
1 0 18 1 0 
1 0 744 1 0 
1 0 -18 1 0 
1 744 0 0 1 
1 0 0 0 -1 
2 232 9 1 0 -0 1 3.25
1 0 1 1 0 
2 512 9 1 0 -0 1 3.25
1 0 1 1 0 
1 6.2831853071795862 -0 0 1 
1 0 -0 0 1 
1 6.2831853071795862 -0 0 1 
1 0 -0 0 1 
Curves 18
1 -72 1268 816 0 0 1 
1 -72 1268 858 -0 1 0 
1 -72 1286 816 0 0 1 
1 -72 1268 816 -0 1 0 
1 -72 1268 816 1 0 -0 
1 672 1268 816 0 0 1 
1 -72 1268 858 1 0 -0 
1 -72 1286 858 1 0 -0 
1 672 1268 858 -0 1 0 
2 160 1277 858 0 0 1 1 0 -0 -0 1 0 3.25
2 440 1277 858 0 0 1 1 0 -0 -0 1 0 3.25
1 -72 1286 816 1 0 -0 
1 672 1286 816 0 0 1 
1 672 1268 816 -0 1 0 
2 160 1277 816 0 0 1 1 0 -0 -0 1 0 3.25
2 440 1277 816 0 0 1 1 0 -0 -0 1 0 3.25
1 163.25 1277 815 0 0 1 
1 443.25 1277 815 0 0 1 
Polygon3D 0
PolygonOnTriangulations 0
Surfaces 8
1 -72 1268 816 1 0 -0 0 0 1 0 -1 0 
1 -72 1268 816 -0 1 0 0 0 1 1 0 -0 
1 -72 1268 858 0 0 1 1 0 -0 -0 1 0 
1 -72 1286 816 -0 1 0 0 0 1 1 0 -0 
1 -72 1268 816 0 0 1 1 0 -0 -0 1 0 
1 672 1268 816 1 0 -0 0 0 1 0 -1 0 
2 160 1277 815 0 0 1 1 0 -0 -0 1 0 3.25
2 440 1277 815 0 0 1 1 0 -0 -0 1 0 3.25
Triangulations 0

TShapes 53
Ve
1e-07
-72 1268 858
0 0

0101101
*
Ve
1e-07
-72 1268 816
0 0

0101101
*
Ed
 1e-07 1 1 0
1  1 0 0 42
2  1 1 0 0 42
2  2 2 0 0 42
0

0101000
-53 5 +52 5 *
Ve
1e-07
-72 1286 858
0 0

0101101
*
Ed
 1e-07 1 1 0
1  2 0 0 18
2  3 1 0 0 18
2  4 3 0 0 18
0

0101000
-50 5 +53 5 *
Ve
1e-07
-72 1286 816
0 0

0101101
*
Ed
 1e-07 1 1 0
1  3 0 0 42
2  5 1 0 0 42
2  6 4 0 0 42
0

0101000
-50 5 +48 5 *
Ed
 1e-07 1 1 0
1  4 0 0 18
2  7 1 0 0 18
2  8 5 0 0 18
0

0101000
-48 5 +52 5 *
Wi

0101100
-51 0 -49 0 +47 0 +46 0 *
Fa
0  1e-07 1 0

0111000
+45 0 *
Ve
1e-07
672 1268 816
0 0

0101101
*
Ed
 1e-07 1 1 0
1  5 0 0 744
2  9 2 0 0 744
2  10 5 0 0 744
0

0101000
-43 5 +52 5 *
Ve
1e-07
672 1268 858
0 0

0101101
*
Ed
 1e-07 1 1 0
1  6 0 0 42
2  11 2 0 0 42
2  12 6 0 0 42
0

0101000
-41 5 +43 5 *
Ed
 1e-07 1 1 0
1  7 0 0 744
2  13 2 0 0 744
2  14 3 0 0 744
0

0101000
-41 5 +53 5 *
Wi

0101100
-42 0 -40 0 +39 0 +51 0 *
Fa
0  1e-07 2 0

0111000
+38 0 *
Ve
1e-07
672 1286 858
0 0

0101101
*
Ed
 1e-07 1 1 0
1  8 0 0 744
2  15 3 0 0 744
2  16 4 0 0 744
0

0101000
-36 5 +50 5 *
Ed
 1e-07 1 1 0
1  9 0 0 18
2  17 3 0 0 18
2  18 6 0 0 18
0

0101000
-36 5 +41 5 *
Wi

0101100
-49 0 -35 0 +39 0 +34 0 *
Ve
1e-07
163.25 1277 858
0 0

0101101
*
Ed
 1e-07 1 1 0
1  10 0 0 6.28318530717959
2  19 3 0 0 6.28318530717959
2  20 7 0 0 6.28318530717959
0

0101100
+32 5 -32 5 *
Wi

0101100
-31 0 *
Ve
1e-07
443.25 1277 858
0 0

0101101
*
Ed
 1e-07 1 1 0
1  11 0 0 6.28318530717959
2  21 3 0 0 6.28318530717959
2  22 8 0 0 6.28318530717959
0

0101100
+29 5 -29 5 *
Wi

0101100
-28 0 *
Fa
0  1e-07 3 0

0111000
+33 0 +30 0 +27 0 *
Ve
1e-07
672 1286 816
0 0

0101101
*
Ed
 1e-07 1 1 0
1  12 0 0 744
2  23 4 0 0 744
2  24 5 0 0 744
0

0101000
-25 5 +48 5 *
Ed
 1e-07 1 1 0
1  13 0 0 42
2  25 4 0 0 42
2  26 6 0 0 42
0

0101000
-36 5 +25 5 *
Wi

0101100
-24 0 -23 0 +35 0 +47 0 *
Fa
0  1e-07 4 0

0111000
+22 0 *
Ed
 1e-07 1 1 0
1  14 0 0 18
2  27 5 0 0 18
2  28 6 0 0 18
0

0101000
-25 5 +43 5 *
Wi

0101100
-46 0 -24 0 +42 0 +20 0 *
Ve
1e-07
163.25 1277 816
0 0

0101101
*
Ed
 1e-07 1 1 0
1  15 0 0 6.28318530717959
2  29 5 0 0 6.28318530717959
2  30 7 0 0 6.28318530717959
0

0101100
+18 5 -18 5 *
Wi

0101100
-17 0 *
Ve
1e-07
443.25 1277 816
0 0

0101101
*
Ed
 1e-07 1 1 0
1  16 0 0 6.28318530717959
2  31 5 0 0 6.28318530717959
2  32 8 0 0 6.28318530717959
0

0101100
+15 5 -15 5 *
Wi

0101100
-14 0 *
Fa
0  1e-07 5 0

0111000
+19 0 +16 0 +13 0 *
Wi

0101100
-40 0 -34 0 +23 0 +20 0 *
Fa
0  1e-07 6 0

0111000
+11 0 *
Ed
 1e-07 1 1 0
1  17 0 1 43
3  33 34CN 7 0 1 43
0

0101000
+18 5 -32 5 *
Wi

0101100
-31 0 +9 0 +17 0 -9 0 *
Fa
0  1e-07 7 0

0111000
+8 0 *
Ed
 1e-07 1 1 0
1  18 0 1 43
3  35 36CN 8 0 1 43
0

0101000
+15 5 -29 5 *
Wi

0101100
-28 0 +6 0 +14 0 -6 0 *
Fa
0  1e-07 8 0

0111000
+5 0 *
Sh

0101100
-44 0 -37 0 +26 0 +21 0 -12 0 +10 0 -7 0 -4 0 *
So

0100000
+3 0 *
Co

1100000
+2 0 *

+1 4 