DBRep_DrawableShape

CASCADE Topology V1, (c) Matra-Datavision
Locations 5
1
              1               0               0               0 
              0               1               0               0 
              0               0               1               0 
1
1.11022302462516e-16               0              -1               0 
              0               1               0               0 
              1               0 1.11022302462516e-16               0 
1
              1               0               0             816 
              0               1               0           -1248 
              0               0               1 71.9999999999999 
2  1 1 2 1 3 1 0
2  1 -1 0
Curve2ds 24
1 0 0 1 0 
1 0 0 1 0 
1 30 0 0 -1 
1 0 0 0 1 
1 0 -38 1 0 
1 0 0 1 0 
1 0 0 0 -1 
1 0 0 0 1 
1 0 0 1 0 
1 0 18 1 0 
1 30 0 0 -1 
1 18 0 0 1 
1 0 -38 1 0 
1 0 18 1 0 
1 0 0 0 -1 
1 18 0 0 1 
1 0 0 0 1 
1 0 0 1 0 
1 30 0 0 1 
1 0 0 1 0 
1 0 0 0 1 
1 0 38 1 0 
1 30 0 0 1 
1 0 38 1 0 
Curves 12
1 -72 1248 786 0 0 1 
1 -72 1248 816 -0 1 0 
1 -72 1286 786 0 0 1 
1 -72 1248 786 -0 1 0 
1 -54 1248 786 0 0 1 
1 -54 1248 816 -0 1 0 
1 -54 1286 786 0 0 1 
1 -54 1248 786 -0 1 0 
1 -72 1248 786 1 0 -0 
1 -72 1248 816 1 0 -0 
1 -72 1286 786 1 0 -0 
1 -72 1286 816 1 0 -0 
Polygon3D 0
PolygonOnTriangulations 0
Surfaces 6
1 -72 1248 786 1 0 -0 0 0 1 0 -1 0 
1 -72 1248 786 -0 1 0 0 0 1 1 0 -0 
1 -72 1248 816 0 0 1 1 0 -0 -0 1 0 
1 -72 1286 786 -0 1 0 0 0 1 1 0 -0 
1 -72 1248 786 0 0 1 1 0 -0 -0 1 0 
1 -54 1248 786 1 0 -0 0 0 1 0 -1 0 
Triangulations 0

TShapes 34
Ve
1e-07
-72 1248 816
0 0

0101101
*
Ve
1e-07
-72 1248 786
0 0

0101101
*
Ed
 1e-07 1 1 0
1  1 0 0 30
2  1 1 0 0 30
2  2 2 0 0 30
0

0101000
-34 5 +33 5 *
Ve
1e-07
-72 1286 816
0 0

0101101
*
Ed
 1e-07 1 1 0
1  2 0 0 38
2  3 1 0 0 38
2  4 3 0 0 38
0

0101000
-31 5 +34 5 *
Ve
1e-07
-72 1286 786
0 0

0101101
*
Ed
 1e-07 1 1 0
1  3 0 0 30
2  5 1 0 0 30
2  6 4 0 0 30
0

0101000
-31 5 +29 5 *
Ed
 1e-07 1 1 0
1  4 0 0 38
2  7 1 0 0 38
2  8 5 0 0 38
0

0101000
-29 5 +33 5 *
Wi

0101100
-32 0 -30 0 +28 0 +27 0 *
Fa
0  1e-07 1 0

0111000
+26 0 *
Ve
1e-07
-54 1248 816
0 0

0101101
*
Ve
1e-07
-54 1248 786
0 0

0101101
*
Ed
 1e-07 1 1 0
1  5 0 0 30
2  9 6 0 0 30
2  10 2 0 0 30
0

0101000
-24 5 +23 5 *
Ve
1e-07
-54 1286 816
0 0

0101101
*
Ed
 1e-07 1 1 0
1  6 0 0 38
2  11 6 0 0 38
2  12 3 0 0 38
0

0101000
-21 5 +24 5 *
Ve
1e-07
-54 1286 786
0 0

0101101
*
Ed
 1e-07 1 1 0
1  7 0 0 30
2  13 6 0 0 30
2  14 4 0 0 30
0

0101000
-21 5 +19 5 *
Ed
 1e-07 1 1 0
1  8 0 0 38
2  15 6 0 0 38
2  16 5 0 0 38
0

0101000
-19 5 +23 5 *
Wi

0101100
-22 0 -20 0 +18 0 +17 0 *
Fa
0  1e-07 6 0

0111000
+16 0 *
Ed
 1e-07 1 1 0
1  9 0 0 18
2  17 2 0 0 18
2  18 5 0 0 18
0

0101000
-23 5 +33 5 *
Ed
 1e-07 1 1 0
1  10 0 0 18
2  19 2 0 0 18
2  20 3 0 0 18
0

0101000
-24 5 +34 5 *
Wi

0101100
-14 0 -22 0 +13 0 +32 0 *
Fa
0  1e-07 2 0

0111000
+12 0 *
Ed
 1e-07 1 1 0
1  11 0 0 18
2  21 4 0 0 18
2  22 5 0 0 18
0

0101000
-19 5 +29 5 *
Ed
 1e-07 1 1 0
1  12 0 0 18
2  23 4 0 0 18
2  24 3 0 0 18
0

0101000
-21 5 +31 5 *
Wi

0101100
-10 0 -18 0 +9 0 +28 0 *
Fa
0  1e-07 4 0

0111000
+8 0 *
Wi

0101100
-27 0 -10 0 +17 0 +14 0 *
Fa
0  1e-07 5 0

0111000
+6 0 *
Wi

0101100
-30 0 -9 0 +20 0 +13 0 *
Fa
0  1e-07 3 0

0111000
+4 0 *
Sh

0101100
-25 0 +15 0 -11 0 +7 0 -5 0 +3 0 *
So

1100000
+2 0 *

+1 4 