DBRep_DrawableShape

CASCADE Topology V1, (c) Matra-Datavision
Locations 5
1
              1               0               0               0 
              0               1               0               0 
              0               0               1               0 
1
              1               0               0               0 
              0 1.11022302462516e-16              -1               0 
              0               1 1.11022302462516e-16               0 
1
              1               0               0              72 
              0               1               0            1290 
              0               0               1           -1268 
2  1 1 2 1 3 1 0
2  3 -1 2 -1 1 -1 0
Curve2ds 6
2 512 9 1 0 -0 1 3.25
1 0 1 1 0 
2 512 9 1 0 -0 1 3.25
1 0 43 1 0 
1 6.2831853071795862 -0 0 1 
1 0 -0 0 1 
Curves 3
2 440 1277 1248 0 0 1 1 0 -0 -0 1 0 3.25
2 440 1277 1290 0 0 1 1 0 -0 -0 1 0 3.25
1 443.25 1277 1247 0 0 1 
Polygon3D 0
PolygonOnTriangulations 0
Surfaces 5
1 0 42 0 0 1 0 1 0 0 0 0 -1 
1 -72 1268 1248 0 0 1 1 0 -0 -0 1 0 
2 440 1277 1247 0 0 1 1 0 -0 -0 1 0 3.25
1 -72 1268 1290 0 0 1 1 0 -0 -0 1 0 
1 0 0 0 0 1 0 1 0 0 0 0 -1 
Triangulations 0

TShapes 13
Ve
1e-07
515.25 42 9
0 0

0101101
*
Ed
 1e-07 1 1 0
1  1 0 0 6.28318530717959
2  1 2 0 0 6.28318530717959
2  2 3 0 0 6.28318530717959
0

0101000
+13 5 -13 5 *
Wi

0101100
-12 4 *
Fa
0  1e-07 1 0

0101000
+11 0 *
Ve
1.00000000360822e-07
515.25 0 9
0 0

0101101
*
Ed
 1.00000000360822e-07 1 1 0
1  2 0 0 6.28318530717959
2  3 4 0 0 6.28318530717959
2  4 3 0 0 6.28318530717959
0

0101000
+9 5 -9 5 *
Ed
 1e-07 1 1 0
1  3 0 1 43
3  5 6CN 3 0 1 43
0

0101000
+13 5 -9 5 *
Wi

0101100
-8 4 +7 4 +12 4 -7 4 *
Fa
0  1e-07 3 4

0101000
+6 0 *
Wi

0101100
-8 4 *
Fa
0  1e-07 5 0

0101000
+4 0 *
Sh

0101100
+10 0 +5 0 -3 0 *
So

0100000
+2 0 *

+1 0 