DBRep_DrawableShape

CASCADE Topology V1, (c) Matra-Datavision
Locations 15
1
              1               0               0               0 
              0               1               0              10 
              0               0               1               0 
1
              1               0               0               0 
              0 1.11022302462516e-16              -1               0 
              0               1 1.11022302462516e-16               0 
1
              1               0               0            -135 
              0               1               0            1236 
              0               0               1           -1240 
1
              1               0               0               0 
              0               1               0               0 
              0               0               1              -0 
1
              1               0               0               0 
              0               1               0               0 
              0               0               1               1 
1
              1               0               0               0 
              0               1               0               0 
              0               0               1              -1 
2  1 1 2 1 3 1 4 1 5 1 6 1 0
2  6 -1 5 -1 4 -1 3 -1 2 -1 1 -1 0
1
              1               0               0               0 
              0               1               0               0 
              0               0               1              18 
2  1 1 2 1 3 1 4 1 5 1 6 1 9 1 0
2  9 -1 6 -1 5 -1 4 -1 3 -1 2 -1 1 -1 0
1
              1               0               0               0 
              0               1               0               0 
              0               0               1              18 
2  12 -1 0
1
              1               0               0               0 
              0               1               0               0 
              0               0               1              18 
2  14 -1 0
Curve2ds 40
1 0 0 0 -1 
1 0 0 1.1102230246251565e-16 -1 
1 50 0 0 -1 
1 0 0 1.1102230246251565e-16 -1 
1 0 0 1 0 
1 0 0 0 1 
1 0 -18 1 0 
1 0 0 0 1 
1 365.99999999999989 -1.8673951274195133e-13 1.1102230246251565e-16 -1 
1 0 0 0 -1 
1 0 0 1 0 
1 0 0 1 0 
1 1.9984014443252818e-15 -18 1 0 
1 0 0 1 0 
1 365.99999999999989 -1.8673951274195133e-13 1.1102230246251565e-16 -1 
1 50 0 0 -1 
1 0 0 1 0 
1 0 50 1 0 
1 1.9984014443252818e-15 -18 1 0 
1 0 50 1 0 
1 0 0 1 0 
1 366 0 0 1 
1 0 0 1 0 
1 0 -18 1 0 
1 0 0 1 0 
1 0 -18 1 0 
1 0 0 1 0 
1 0 -18 1 0 
1 0 0 1 0 
1 0 -18 1 0 
1 0 -18 1 0 
1 366 0 0 1 
1 4.7123889803846897 0 0 -1 
1 7.8539816339744828 0 0 -1 
1 4.7123889803846897 0 0 -1 
1 1.5707963267948966 0 0 -1 
1 4.7123889803846897 0 0 -1 
1 7.8539816339744828 0 0 -1 
1 1.5707963267948966 0 0 -1 
1 4.7123889803846897 0 0 -1 
Curves 28
1 0 366.00000000000011 0 0 0 1 
1 50 366.00000000000011 0 0 0 1 
1 135 1230 870 1 0 -0 
1 135 1230 870 1 0 -0 
1 0 2.2737367544323206e-13 2.2737367544323206e-13 0 0 1 
1 135 1230 870 0 0 1 
1 135 1230 870 0 0 1 
1 50 2.2737367544323206e-13 2.2737367544323206e-13 0 0 1 
1 185 1230 870 0 0 1 
1 185 1230 870 0 0 1 
1 135 1230 1236 1 0 -0 
2 25 237.00000000000011 1.376676550535194e-14 0 -0 1 0 -1 -0 1 0 0 3.25
1 21.75 306.50000000000011 1.376676550535194e-14 0 1 0 
1 28.25 306.50000000000011 1.376676550535194e-14 0 1 0 
2 25 247.00000000000011 1.376676550535194e-14 0 -0 1 0 -1 -0 1 0 0 3.25
2 25 97.000000000000227 -1.9806378759312783e-13 0 -0 1 0 -1 -0 1 0 0 3.25
1 28.25 236.50000000000011 -1.9806378759312783e-13 0 1 0 
2 25 107.00000000000023 -1.9806378759312783e-13 0 -0 1 0 -1 -0 1 0 0 3.25
1 21.75 236.50000000000011 -1.9806378759312783e-13 0 1 0 
1 135 1230 1236 1 0 -0 
1 21.75 237.00000000000011 4.5889218351173132e-15 0 0 1 
1 28.25 237.00000000000011 4.5889218351173132e-15 0 0 1 
1 21.75 247.00000000000011 4.5889218351173132e-15 0 0 1 
1 28.25 247.00000000000011 4.5889218351173132e-15 0 0 1 
1 21.75 97.000000000000227 -6.6021262531042613e-14 0 0 1 
1 28.25 97.000000000000227 -6.6021262531042613e-14 0 0 1 
1 28.25 107.00000000000023 -6.6021262531042613e-14 0 0 1 
1 21.75 107.00000000000023 -6.6021262531042613e-14 0 0 1 
Polygon3D 0
PolygonOnTriangulations 0
Surfaces 14
1 0 366.00000000000011 0 0 1 0 1 0 0 0 0 -1 
1 0 366.00000000000011 0 1 0 -0 0 -1 1.1102230246251565e-16 0 -1.1102230246251565e-16 -1 
1 50 366.00000000000011 0 1 0 -0 0 -1 1.1102230246251565e-16 0 -1.1102230246251565e-16 -1 
1 135 1230 870 -0 1 0 0 0 1 1 0 -0 
1 135 1230 870 -0 1 0 0 0 1 1 0 -0 
1 0 2.2737367544323206e-13 2.2737367544323206e-13 0 1 0 1 0 0 0 0 -1 
2 25 237.00000000000011 1.376676550535194e-14 -0 0 -1 0 -1 -0 1 0 0 3.25
2 25 247.00000000000011 1.376676550535194e-14 -0 0 -1 0 -1 -0 1 0 0 3.25
2 25 97.000000000000227 -1.9806378759312783e-13 -0 0 -1 0 -1 -0 1 0 0 3.25
2 25 107.00000000000023 -1.9806378759312783e-13 -0 0 -1 0 -1 -0 1 0 0 3.25
1 21.75 237.00000000000011 1.376676550535194e-14 -1 0 0 0 1 0 0 0 -1 
1 28.25 237.00000000000011 1.376676550535194e-14 -1 0 0 0 1 0 0 0 -1 
1 21.75 97.000000000000227 -1.9806378759312783e-13 -1 0 0 0 1 0 0 0 -1 
1 28.25 97.000000000000227 -1.9806378759312783e-13 -1 0 0 0 1 0 0 0 -1 
Triangulations 0

TShapes 96
Ve
1e-07
0 366 0
0 0

0101101
*
Ve
1e-07
0 366 18
0 0

0101101
*
Ed
 1e-07 1 1 0
1  1 0 0 18
2  1 1 0 0 18
2  2 2 0 0 18
0

0101000
+96 0 -95 0 *
Ve
1e-07
50 366 0
0 0

0101101
*
Ve
1e-07
50 366 18
0 0

0101101
*
Ed
 1e-07 1 1 0
1  2 0 0 18
2  3 1 0 0 18
2  4 3 0 0 18
0

0101000
+93 0 -92 0 *
Ed
 1e-07 1 1 0
1  3 0 0 50
2  5 1 8 0 50
2  6 4 0 0 50
0

0101000
+96 8 -93 8 *
Ed
 1e-07 1 1 0
1  4 0 0 50
2  7 1 11 0 50
2  8 5 0 0 50
0

0101000
+95 11 -92 11 *
Wi

0101100
+94 0 -91 0 -90 7 +89 10 *
Fa
0  1e-07 1 0

0101000
+88 0 *
Ve
1e-07
0 2.27373675443232e-13 2.27373675443232e-13
0 0

0101101
*
Ve
1e-07
0 2.27373675443232e-13 18.0000000000002
0 0

0101101
*
Ed
 1e-07 1 1 0
1  5 0 0 18
2  9 2 0 0 18
2  10 6 0 0 18
0

0101000
+86 0 -85 0 *
Ed
 1e-07 1 1 0
1  6 0 0 366
2  11 2 8 0 366
2  12 4 0 0 366
0

0101000
+96 8 -86 8 *
Ed
 1e-07 1 1 0
1  7 0 0 366
2  13 2 11 0 366
2  14 5 0 0 366
0

0101000
+95 11 -85 11 *
Wi

0101100
+94 0 -84 0 -83 7 +82 10 *
Fa
0  1e-07 2 0

0101000
+81 0 *
Ve
1e-07
50 2.27373675443232e-13 2.27373675443232e-13
0 0

0101101
*
Ve
1e-07
50 2.27373675443232e-13 18.0000000000002
0 0

0101101
*
Ed
 1e-07 1 1 0
1  8 0 0 18
2  15 3 0 0 18
2  16 6 0 0 18
0

0101000
+79 0 -78 0 *
Ed
 1e-07 1 1 0
1  9 0 0 366
2  17 3 8 0 366
2  18 4 0 0 366
0

0101000
+93 8 -79 8 *
Ed
 1e-07 1 1 0
1  10 0 0 366
2  19 3 11 0 366
2  20 5 0 0 366
0

0101000
+92 11 -78 11 *
Wi

0101100
+91 0 -77 0 -76 7 +75 10 *
Fa
0  1e-07 3 0

0101000
+74 0 *
Ed
 1e-07 1 1 0
1  11 0 0 50
2  21 6 8 0 50
2  22 4 0 0 50
0

0101000
+86 8 -79 8 *
Wi

0101100
-90 7 +83 7 -76 7 +72 7 *
Ve
1.50000019854934e-07
21.75 237 4.58892183511731e-15
0 0

0101101
*
Ve
1.50000019854934e-07
28.25 237 4.58892183511731e-15
0 0

0101101
*
Ed
 1.50000015266012e-07 1 1 0
1  12 0 4.71238898038469 7.85398163397448
2  23 7 0 4.71238898038469 7.85398163397448
2  24 7 13 4.71238898038469 7.85398163397448
0

0101000
+70 0 -69 0 *
Ve
1.50000019109492e-07
21.75 247 4.58892183511731e-15
0 0

0101101
*
Ed
 1.5000000706842e-07 1 1 0
1  13 0 -69.5 -59.5
0

0101000
+70 0 -67 0 *
Ve
1.50000019109492e-07
28.25 247 4.58892183511731e-15
0 0

0101101
*
Ed
 1.5000000706842e-07 1 1 0
1  14 0 -69.5 -59.5
0

0101000
+69 0 -65 0 *
Ed
 1.50000014520571e-07 1 1 0
1  15 0 1.5707963267949 4.71238898038469
2  25 8 0 1.5707963267949 4.71238898038469
2  26 8 13 1.5707963267949 4.71238898038469
0

0101000
+65 0 -67 0 *
Wi

0101100
-68 0 +66 0 -64 0 -63 0 *
Ve
1.50000264445873e-07
21.75 97.0000000000002 -6.60212625310426e-14
0 0

0101101
*
Ve
1.50000264445873e-07
28.25 97.0000000000002 -6.60212625310426e-14
0 0

0101101
*
Ed
 1.5000019842461e-07 1 1 0
1  16 0 4.71238898038469 7.85398163397448
2  27 9 0 4.71238898038469 7.85398163397448
2  28 9 15 4.71238898038469 7.85398163397448
0

0101000
+61 0 -60 0 *
Ve
1.50000263991662e-07
28.25 107 -6.60212625310426e-14
0 0

0101101
*
Ed
 1.50000014839981e-07 1 1 0
1  17 0 -139.5 -129.5
0

0101000
+60 0 -58 0 *
Ve
1.50000263991662e-07
21.75 107 -6.60212625310426e-14
0 0

0101101
*
Ed
 1.500001979704e-07 1 1 0
1  18 0 1.5707963267949 4.71238898038469
2  29 10 0 1.5707963267949 4.71238898038469
2  30 10 15 1.5707963267949 4.71238898038469
0

0101000
+58 0 -56 0 *
Ed
 1.50000014839981e-07 1 1 0
1  19 0 -139.5 -129.5
0

0101000
+61 0 -56 0 *
Wi

0101100
-59 0 -57 0 -55 0 +54 0 *
Fa
0  1e-07 4 7

0101000
+71 0 +62 0 +53 0 *
Ed
 1e-07 1 1 0
1  20 0 0 50
2  31 6 11 0 50
2  32 5 0 0 50
0

0101000
+85 11 -78 11 *
Wi

0101100
-89 10 +82 10 -75 10 +51 10 *
Ve
1.50000019854934e-07
21.75 237 18
0 0

0101101
*
Ve
1.50000019854934e-07
28.25 237 18
0 0

0101101
*
Ed
 1.50000015266012e-07 1 1 0
1  12 0 4.71238898038469 7.85398163397448
2  23 7 0 4.71238898038469 7.85398163397448
2  24 7 13 4.71238898038469 7.85398163397448
0

0101000
+49 13 -48 13 *
Ve
1.50000019109492e-07
21.75 247 18
0 0

0101101
*
Ed
 1.5000000706842e-07 1 1 0
1  13 0 -69.5 -59.5
0

0101000
+49 13 -46 13 *
Ve
1.50000019109492e-07
28.25 247 18
0 0

0101101
*
Ed
 1.5000000706842e-07 1 1 0
1  14 0 -69.5 -59.5
0

0101000
+48 13 -44 13 *
Ed
 1.50000014520571e-07 1 1 0
1  15 0 1.5707963267949 4.71238898038469
2  25 8 0 1.5707963267949 4.71238898038469
2  26 8 13 1.5707963267949 4.71238898038469
0

0101000
+44 13 -46 13 *
Wi

0101100
-47 12 +45 12 -43 12 -42 12 *
Ve
1.50000264445873e-07
21.75 97.0000000000002 17.9999999999999
0 0

0101101
*
Ve
1.50000264445873e-07
28.25 97.0000000000002 17.9999999999999
0 0

0101101
*
Ed
 1.5000019842461e-07 1 1 0
1  16 0 4.71238898038469 7.85398163397448
2  27 9 0 4.71238898038469 7.85398163397448
2  28 9 15 4.71238898038469 7.85398163397448
0

0101000
+40 15 -39 15 *
Ve
1.50000263991662e-07
28.25 107 17.9999999999999
0 0

0101101
*
Ed
 1.50000014839981e-07 1 1 0
1  17 0 -139.5 -129.5
0

0101000
+39 15 -37 15 *
Ve
1.50000263991662e-07
21.75 107 17.9999999999999
0 0

0101101
*
Ed
 1.500001979704e-07 1 1 0
1  18 0 1.5707963267949 4.71238898038469
2  29 10 0 1.5707963267949 4.71238898038469
2  30 10 15 1.5707963267949 4.71238898038469
0

0101000
+37 15 -35 15 *
Ed
 1.50000014839981e-07 1 1 0
1  19 0 -139.5 -129.5
0

0101000
+40 15 -35 15 *
Wi

0101100
-38 14 -36 14 -34 14 +33 14 *
Fa
0  1e-07 5 10

0101000
+50 0 +41 0 +32 0 *
Wi

0101100
+84 0 -77 0 -72 7 +51 10 *
Fa
0  1e-07 6 0

0101000
+30 0 *
Ed
 1.50000019854934e-07 1 1 0
1  21 0 0 18
2  33 7 0 0 18
4 G1 11 0 7 0
0

0101000
+70 0 -49 0 *
Ed
 1.50000019854934e-07 1 1 0
1  22 0 0 18
2  34 7 0 0 18
4 G1 12 0 7 0
0

0101000
+69 0 -48 0 *
Wi

0101100
+28 0 -27 0 -68 0 +47 12 *
Fa
0  1.50000015266012e-07 7 0

0101000
+26 0 *
Ed
 1.50000019109492e-07 1 1 0
1  23 0 0 18
2  35 8 0 0 18
4 G1 11 0 8 0
0

0101000
+67 0 -46 0 *
Wi

0101100
+28 0 -24 0 -66 0 +45 12 *
Fa
0  1.5000000706842e-07 11 0

0101000
+23 0 *
Ed
 1.50000019109492e-07 1 1 0
1  24 0 0 18
2  36 8 0 0 18
4 G1 8 0 12 0
0

0101000
+65 0 -44 0 *
Wi

0101100
+27 0 -21 0 -64 0 +43 12 *
Fa
0  1.5000000706842e-07 12 0

0101000
+20 0 *
Wi

0101100
+21 0 -24 0 -63 0 +42 12 *
Fa
0  1.50000014520571e-07 8 0

0101000
+18 0 *
Ed
 1.50000264445873e-07 1 1 0
1  25 0 0 18
2  37 9 0 0 18
4 G1 13 0 9 0
0

0101000
+61 0 -40 0 *
Ed
 1.50000264445873e-07 1 1 0
1  26 0 0 18
2  38 9 0 0 18
4 G1 14 0 9 0
0

0101000
+60 0 -39 0 *
Wi

0101100
+16 0 -15 0 -59 0 +38 14 *
Fa
0  1.5000019842461e-07 9 0

0101000
+14 0 *
Ed
 1.50000263991662e-07 1 1 0
1  27 0 0 18
2  39 10 0 0 18
4 G1 10 0 14 0
0

0101000
+58 0 -37 0 *
Wi

0101100
+15 0 -12 0 -57 0 +36 14 *
Fa
0  1.50000014839981e-07 14 0

0101000
+11 0 *
Ed
 1.50000263991662e-07 1 1 0
1  28 0 0 18
2  40 10 0 0 18
4 G1 13 0 10 0
0

0101000
+56 0 -35 0 *
Wi

0101100
+12 0 -9 0 -55 0 +34 14 *
Fa
0  1.500001979704e-07 10 0

0101000
+8 0 *
Wi

0101100
+16 0 -9 0 -54 0 +33 14 *
Fa
0  1.50000014839981e-07 13 0

0101000
+6 0 *
Sh

0101100
+87 0 -80 0 +73 0 -52 0 +31 0 -29 0 +25 0 -22 0 +19 0 +17 0 
+13 0 +10 0 +7 0 -5 0 *
So

0100000
+4 0 *
Co

0100000
+3 0 *
Co

1100000
+2 0 *

+1 0 