DBRep_DrawableShape

CASCADE Topology V1, (c) Matra-Datavision
Locations 12
1
              1               0               0               0 
              0               1               0               0 
              0               0               1              -1 
1
              1               0               0               0 
              0               1               0              10 
              0               0               1               0 
1
             -1               0 -1.22464679914735e-16               0 
              0               1               0               0 
1.22464679914735e-16               0              -1               0 
1
              1               0               0             185 
              0               1               0           -1240 
              0               0               1             876 
1
              1               0               0               0 
              0               1               0               0 
              0               0               1              -0 
1
              1               0               0               0 
              0               1               0               0 
              0               0               1               1 
2  2 1 3 1 4 1 5 1 6 1 0
2  6 -1 5 -1 4 -1 3 -1 2 -1 0
1
              1               0               0               0 
              0               1               0               0 
              0               0               1 -5.99999999999989 
1
              1               0               0               0 
              0               1               0               0 
              0               0               1               1 
2  2 1 3 1 4 1 9 1 10 1 0
2  10 -1 9 -1 4 -1 3 -1 2 -1 0
Curve2ds 4
1 -25 -25 1 0 
1 25 -25 -2.6426931520548438e-31 1 
1 -25 25 1 0 
1 -25 -25 -2.6426931520548438e-31 1 
Curves 4
1 50 0 0.99999999999988631 0 1 0 
1 135 1280 876 1 0 -0 
1 0 0 0.99999999999988631 0 1 0 
1 135 1230 870 1 0 -0 
Polygon3D 0
PolygonOnTriangulations 0
Surfaces 1
1 25 25 0.99999999999993516 0 2.1579227201628991e-15 1 0 1 -2.1579227201628991e-15 -1 0 0 
Triangulations 0

TShapes 9
Ve
1.5e-07
50 0 1
0 0

0101101
*
Ve
1.5e-07
50 50 0.999999999999886
0 0

0101101
*
Ed
 1.5e-07 1 1 0
1  1 0 0 50
2  1 1 0 0 50
0

0101000
+9 0 -8 0 *
Ve
1.5e-07
0 50 0.999999999999886
0 0

0101101
*
Ed
 1.5e-07 1 1 0
1  2 0 0 50
2  2 1 8 0 50
0

0101000
+8 8 -6 8 *
Ve
1.5e-07
0 0 1
0 0

0101101
*
Ed
 1.5e-07 1 1 0
1  3 0 0 50
2  3 1 0 0 50
0

0101000
+4 0 -6 0 *
Ed
 1.5e-07 1 1 0
1  4 0 0 50
2  4 1 12 0 50
0

0101000
+9 12 -4 12 *
Wi

0101100
+7 0 +5 7 -3 0 -2 11 *

+1 1 