DBRep_DrawableShape

CASCADE Topology V1, (c) Matra-Datavision
Locations 5
1
              1               0               0               0 
              0               1               0              10 
              0               0               1               0 
1
              1               0               0               0 
              0 1.11022302462516e-16              -1               0 
              0               1 1.11022302462516e-16               0 
1
              1               0               0            -415 
              0               1               0            1236 
              0               0               1           -1240 
2  1 1 2 1 3 1 0
2  1 -1 0
Curve2ds 72
1 0 0 1 0 
1 0 0 1 0 
1 366 0 0 -1 
1 0 0 0 1 
1 0 -18 1 0 
1 0 0 1 0 
1 0 0 0 -1 
1 0 0 0 1 
1 0 0 0 1 
1 0 0 1 0 
1 0 50 1 0 
1 0 0 1 0 
1 366 0 0 1 
1 0 0 1 0 
2 129 25 1 0 -0 1 3.25
1 0 1 1 0 
8 -69.5 -59.5
1 59.5 21.75 -1 0 
8 -69.5 -59.5
1 -59.5 -1 -1 -0 
8 -69.5 -59.5
1 59.5 28.25 -1 0 
8 -69.5 -59.5
1 -59.5 -1 -1 -0 
2 119 25 1 0 -0 1 3.25
1 0 1 1 0 
2 269 25 1 0 -0 1 3.25
1 0 1 1 0 
8 -139.5 -129.5
1 129.5 28.25 -1 0 
8 -139.5 -129.5
1 -129.5 -1 -1 -0 
2 259 25 1 0 -0 1 3.25
1 0 1 1 0 
8 -139.5 -129.5
1 129.5 21.75 -1 0 
8 -139.5 -129.5
1 -129.5 -1 -1 -0 
1 0 18 1 0 
1 366 0 0 1 
1 50 0 0 1 
1 366 0 0 -1 
1 0 0 0 1 
1 0 18 1 0 
1 0 50 1 0 
1 0 -18 1 0 
2 129 25 1 0 -0 1 3.25
1 0 19 1 0 
8 -69.5 -59.5
1 59.5 21.75 -1 0 
8 -69.5 -59.5
1 -59.5 -19 -1 -0 
8 -69.5 -59.5
1 59.5 28.25 -1 0 
8 -69.5 -59.5
1 -59.5 -19 -1 -0 
2 119 25 1 0 -0 1 3.25
1 0 19 1 0 
2 269 25 1 0 -0 1 3.25
1 0 19 1 0 
8 -139.5 -129.5
1 129.5 28.25 -1 0 
8 -139.5 -129.5
1 -129.5 -19 -1 -0 
2 259 25 1 0 -0 1 3.25
1 0 19 1 0 
8 -139.5 -129.5
1 129.5 21.75 -1 0 
8 -139.5 -129.5
1 -129.5 -19 -1 -0 
1 50 0 0 1 
1 0 0 0 -1 
1 7.8539816339744828 0 0 1 
1 10 0 0 -1 
1 4.7123889803846897 0 0 1 
1 10 0 0 -1 
1 0 0 0 -1 
1 4.7123889803846897 0 0 1 
1 0 0 0 -1 
1 1.5707963267948966 0 0 1 
1 7.8539816339744828 0 0 1 
1 10 0 0 -1 
1 4.7123889803846897 0 0 1 
1 10 0 0 -1 
1 0 0 0 -1 
1 1.5707963267948966 0 0 1 
1 4.7123889803846897 0 0 1 
1 0 0 0 -1 
Curves 36
1 415 1230 870 0 0 1 
1 415 1230 1236 -0 1 0 
1 415 1248 870 0 0 1 
1 415 1230 870 -0 1 0 
1 415 1230 870 1 0 -0 
1 465 1230 870 0 0 1 
1 415 1230 1236 1 0 -0 
2 440 1230 999 0 1 0 0 -0 1 1 0 -0 3.25
1 436.75 1230 929.5 -0 0 -1 
1 443.25 1230 929.5 -0 0 -1 
2 440 1230 989 0 1 0 0 -0 1 1 0 -0 3.25
2 440 1230 1139 0 1 0 0 -0 1 1 0 -0 3.25
1 443.25 1230 999.5 -0 0 -1 
2 440 1230 1129 0 1 0 0 -0 1 1 0 -0 3.25
1 436.75 1230 999.5 -0 0 -1 
1 415 1248 1236 1 0 -0 
1 465 1230 1236 -0 1 0 
1 415 1248 870 1 0 -0 
1 465 1248 870 0 0 1 
2 440 1248 999 0 1 0 0 -0 1 1 0 -0 3.25
1 436.75 1248 929.5 -0 0 -1 
1 443.25 1248 929.5 -0 0 -1 
2 440 1248 989 0 1 0 0 -0 1 1 0 -0 3.25
2 440 1248 1139 0 1 0 0 -0 1 1 0 -0 3.25
1 443.25 1248 999.5 -0 0 -1 
2 440 1248 1129 0 1 0 0 -0 1 1 0 -0 3.25
1 436.75 1248 999.5 -0 0 -1 
1 465 1230 870 -0 1 0 
1 443.25 1229 999 -0 1 0 
1 436.75 1229 999 -0 1 0 
1 436.75 1229 989 -0 1 0 
1 443.25 1229 989 -0 1 0 
1 443.25 1229 1139 -0 1 0 
1 436.75 1229 1139 -0 1 0 
1 443.25 1229 1129 -0 1 0 
1 436.75 1229 1129 -0 1 0 
Polygon3D 0
PolygonOnTriangulations 0
Surfaces 14
1 415 1230 870 1 0 -0 0 0 1 0 -1 0 
1 415 1230 870 -0 1 0 0 0 1 1 0 -0 
1 415 1230 1236 0 0 1 1 0 -0 -0 1 0 
1 415 1248 870 -0 1 0 0 0 1 1 0 -0 
1 415 1230 870 0 0 1 1 0 -0 -0 1 0 
1 465 1230 870 1 0 -0 0 0 1 0 -1 0 
2 440 1229 999 0 1 0 0 -0 1 1 0 -0 3.25
1 436.75 1229 989 1 0 -0 0 0 1 0 -1 0 
1 443.25 1229 989 1 0 -0 0 0 1 0 -1 0 
2 440 1229 989 0 1 0 0 -0 1 1 0 -0 3.25
2 440 1229 1139 0 1 0 0 -0 1 1 0 -0 3.25
1 443.25 1229 1129 1 0 -0 0 0 1 0 -1 0 
2 440 1229 1129 0 1 0 0 -0 1 1 0 -0 3.25
1 436.75 1229 1129 1 0 -0 0 0 1 0 -1 0 
Triangulations 0

TShapes 95
Ve
1e-07
415 1240 1236
0 0

0101101
*
Ve
1e-07
415 1240 870
0 0

0101101
*
Ed
 1e-07 1 1 0
1  1 0 0 366
2  1 1 0 0 366
2  2 2 0 0 366
0

0101000
-95 5 +94 5 *
Ve
1e-07
415 1258 1236
0 0

0101101
*
Ed
 1e-07 1 1 0
1  2 0 0 18
2  3 1 0 0 18
2  4 3 0 0 18
0

0101000
-92 5 +95 5 *
Ve
1e-07
415 1258 870
0 0

0101101
*
Ed
 1e-07 1 1 0
1  3 0 0 366
2  5 1 0 0 366
2  6 4 0 0 366
0

0101000
-92 5 +90 5 *
Ed
 1e-07 1 1 0
1  4 0 0 18
2  7 1 0 0 18
2  8 5 0 0 18
0

0101000
-90 5 +94 5 *
Wi

0101100
-93 0 -91 0 +89 0 +88 0 *
Fa
0  1e-07 1 0

0111000
+87 0 *
Ve
1e-07
465 1240 870
0 0

0101101
*
Ed
 1e-07 1 1 0
1  5 0 0 50
2  9 2 0 0 50
2  10 5 0 0 50
0

0101000
-85 5 +94 5 *
Ve
1e-07
465 1240 1236
0 0

0101101
*
Ed
 1e-07 1 1 0
1  6 0 0 366
2  11 2 0 0 366
2  12 6 0 0 366
0

0101000
-83 5 +85 5 *
Ed
 1e-07 1 1 0
1  7 0 0 50
2  13 2 0 0 50
2  14 3 0 0 50
0

0101000
-83 5 +95 5 *
Wi

0101100
-84 0 -82 0 +93 0 +81 0 *
Ve
1.5e-07
436.75 1240 999
0 0

0101101
*
Ve
1.5e-07
443.25 1240 999
0 0

0101101
*
Ed
 1e-07 1 1 0
1  8 0 4.71238898038469 7.85398163397448
2  15 2 0 4.71238898038469 7.85398163397448
2  16 7 0 4.71238898038469 7.85398163397448
0

0101000
+79 5 -78 5 *
Ve
1.5e-07
436.75 1240 989
0 0

0101101
*
Ed
 1.5e-07 1 1 0
1  9 0 -69.5 -59.5
2  17 2 0 -69.5 -59.5
2  18 8 0 -69.5 -59.5
0

0101000
+79 5 -76 5 *
Ve
1.5e-07
443.25 1240 989
0 0

0101101
*
Ed
 1.5e-07 1 1 0
1  10 0 -69.5 -59.5
2  19 2 0 -69.5 -59.5
2  20 9 0 -69.5 -59.5
0

0101000
+78 5 -74 5 *
Ed
 1e-07 1 1 0
1  11 0 1.5707963267949 4.71238898038469
2  21 2 0 1.5707963267949 4.71238898038469
2  22 10 0 1.5707963267949 4.71238898038469
0

0101000
+74 5 -76 5 *
Wi

0101100
-77 0 +75 0 -73 0 -72 0 *
Ve
1.5e-07
436.75 1240 1139
0 0

0101101
*
Ve
1.5e-07
443.25 1240 1139
0 0

0101101
*
Ed
 1e-07 1 1 0
1  12 0 4.71238898038469 7.85398163397448
2  23 2 0 4.71238898038469 7.85398163397448
2  24 11 0 4.71238898038469 7.85398163397448
0

0101000
+70 5 -69 5 *
Ve
1.5e-07
443.25 1240 1129
0 0

0101101
*
Ed
 1.5e-07 1 1 0
1  13 0 -139.5 -129.5
2  25 2 0 -139.5 -129.5
2  26 12 0 -139.5 -129.5
0

0101000
+69 5 -67 5 *
Ve
1.5e-07
436.75 1240 1129
0 0

0101101
*
Ed
 1e-07 1 1 0
1  14 0 1.5707963267949 4.71238898038469
2  27 2 0 1.5707963267949 4.71238898038469
2  28 13 0 1.5707963267949 4.71238898038469
0

0101000
+67 5 -65 5 *
Ed
 1.5e-07 1 1 0
1  15 0 -139.5 -129.5
2  29 2 0 -139.5 -129.5
2  30 14 0 -139.5 -129.5
0

0101000
+70 5 -65 5 *
Wi

0101100
-68 0 -66 0 -64 0 +63 0 *
Fa
0  1e-07 2 0

0111000
+80 0 +71 0 +62 0 *
Ve
1e-07
465 1258 1236
0 0

0101101
*
Ed
 1e-07 1 1 0
1  16 0 0 50
2  31 3 0 0 50
2  32 4 0 0 50
0

0101000
-60 5 +92 5 *
Ed
 1e-07 1 1 0
1  17 0 0 18
2  33 3 0 0 18
2  34 6 0 0 18
0

0101000
-60 5 +83 5 *
Wi

0101100
-91 0 -59 0 +58 0 +81 0 *
Fa
0  1e-07 3 0

0111000
+57 0 *
Ve
1e-07
465 1258 870
0 0

0101101
*
Ed
 1e-07 1 1 0
1  18 0 0 50
2  35 4 0 0 50
2  36 5 0 0 50
0

0101000
-55 5 +90 5 *
Ed
 1e-07 1 1 0
1  19 0 0 366
2  37 4 0 0 366
2  38 6 0 0 366
0

0101000
-60 5 +55 5 *
Wi

0101100
-54 0 -53 0 +89 0 +59 0 *
Ve
1.5e-07
436.75 1258 999
0 0

0101101
*
Ve
1.5e-07
443.25 1258 999
0 0

0101101
*
Ed
 1e-07 1 1 0
1  20 0 4.71238898038469 7.85398163397448
2  39 4 0 4.71238898038469 7.85398163397448
2  40 7 0 4.71238898038469 7.85398163397448
0

0101000
+51 5 -50 5 *
Ve
1.5e-07
436.75 1258 989
0 0

0101101
*
Ed
 1.5e-07 1 1 0
1  21 0 -69.5 -59.5
2  41 4 0 -69.5 -59.5
2  42 8 0 -69.5 -59.5
0

0101000
+51 5 -48 5 *
Ve
1.5e-07
443.25 1258 989
0 0

0101101
*
Ed
 1.5e-07 1 1 0
1  22 0 -69.5 -59.5
2  43 4 0 -69.5 -59.5
2  44 9 0 -69.5 -59.5
0

0101000
+50 5 -46 5 *
Ed
 1e-07 1 1 0
1  23 0 1.5707963267949 4.71238898038469
2  45 4 0 1.5707963267949 4.71238898038469
2  46 10 0 1.5707963267949 4.71238898038469
0

0101000
+46 5 -48 5 *
Wi

0101100
-49 0 +47 0 -45 0 -44 0 *
Ve
1.5e-07
436.75 1258 1139
0 0

0101101
*
Ve
1.5e-07
443.25 1258 1139
0 0

0101101
*
Ed
 1e-07 1 1 0
1  24 0 4.71238898038469 7.85398163397448
2  47 4 0 4.71238898038469 7.85398163397448
2  48 11 0 4.71238898038469 7.85398163397448
0

0101000
+42 5 -41 5 *
Ve
1.5e-07
443.25 1258 1129
0 0

0101101
*
Ed
 1.5e-07 1 1 0
1  25 0 -139.5 -129.5
2  49 4 0 -139.5 -129.5
2  50 12 0 -139.5 -129.5
0

0101000
+41 5 -39 5 *
Ve
1.5e-07
436.75 1258 1129
0 0

0101101
*
Ed
 1e-07 1 1 0
1  26 0 1.5707963267949 4.71238898038469
2  51 4 0 1.5707963267949 4.71238898038469
2  52 13 0 1.5707963267949 4.71238898038469
0

0101000
+39 5 -37 5 *
Ed
 1.5e-07 1 1 0
1  27 0 -139.5 -129.5
2  53 4 0 -139.5 -129.5
2  54 14 0 -139.5 -129.5
0

0101000
+42 5 -37 5 *
Wi

0101100
-40 0 -38 0 -36 0 +35 0 *
Fa
0  1e-07 4 0

0111000
+52 0 +43 0 +34 0 *
Ed
 1e-07 1 1 0
1  28 0 0 18
2  55 5 0 0 18
2  56 6 0 0 18
0

0101000
-55 5 +85 5 *
Wi

0101100
-88 0 -54 0 +32 0 +84 0 *
Fa
0  1e-07 5 0

0111000
+31 0 *
Wi

0101100
-82 0 -58 0 +53 0 +32 0 *
Fa
0  1e-07 6 0

0111000
+29 0 *
Ed
 1e-07 1 1 0
1  29 0 1 19
2  57 7 0 1 19
2  58 9 0 1 19
0

0101000
+78 5 -50 5 *
Ed
 1e-07 1 1 0
1  30 0 1 19
2  59 7 0 1 19
2  60 8 0 1 19
0

0101000
+79 5 -51 5 *
Wi

0101100
-49 0 +27 0 +77 0 -26 0 *
Fa
0  1e-07 7 0

0111000
+25 0 *
Ed
 1e-07 1 1 0
1  31 0 1 19
2  61 8 0 1 19
2  62 10 0 1 19
0

0101000
+76 5 -48 5 *
Wi

0101100
+75 0 -26 0 -47 0 +23 0 *
Fa
0  1e-07 8 0

0111000
+22 0 *
Ed
 1e-07 1 1 0
1  32 0 1 19
2  63 9 0 1 19
2  64 10 0 1 19
0

0101000
+74 5 -46 5 *
Wi

0101100
+73 0 -27 0 -45 0 +20 0 *
Fa
0  1e-07 9 0

0111000
+19 0 *
Wi

0101100
-44 0 +23 0 +72 0 -20 0 *
Fa
0  1e-07 10 0

0111000
+17 0 *
Ed
 1e-07 1 1 0
1  33 0 1 19
2  65 11 0 1 19
2  66 12 0 1 19
0

0101000
+69 5 -41 5 *
Ed
 1e-07 1 1 0
1  34 0 1 19
2  67 11 0 1 19
2  68 14 0 1 19
0

0101000
+70 5 -42 5 *
Wi

0101100
-40 0 +15 0 +68 0 -14 0 *
Fa
0  1e-07 11 0

0111000
+13 0 *
Ed
 1e-07 1 1 0
1  35 0 1 19
2  69 12 0 1 19
2  70 13 0 1 19
0

0101000
+67 5 -39 5 *
Wi

0101100
+66 0 -15 0 -38 0 +11 0 *
Fa
0  1e-07 12 0

0111000
+10 0 *
Ed
 1e-07 1 1 0
1  36 0 1 19
2  71 13 0 1 19
2  72 14 0 1 19
0

0101000
+65 5 -37 5 *
Wi

0101100
-36 0 +8 0 +64 0 -11 0 *
Fa
0  1e-07 13 0

0111000
+7 0 *
Wi

0101100
+63 0 -14 0 -35 0 +8 0 *
Fa
0  1e-07 14 0

0111000
+5 0 *
Sh

0101100
-86 0 -61 0 +56 0 +33 0 -30 0 +28 0 -24 0 +21 0 -18 0 -16 0 
-12 0 -9 0 -6 0 +4 0 *
So

0100000
+3 0 *
Co

1100000
+2 0 *

+1 4 