DBRep_DrawableShape

CASCADE Topology V1, (c) Matra-Datavision
Locations 0
Curve2ds 0
Curves 4
1 50 0 -1.0888956634036644e-14 -4.9065482020589526e-30 1 -2.1579227201628983e-15 
1 50 50 -1.1878509264218156e-13 -1 4.6422788868534708e-30 2.2737367544323202e-15 
1 0 0 1.0279788108757936e-13 -4.9065482020589526e-30 1 -2.1579227201628983e-15 
1 50 0 -1.0888956634036644e-14 -1 4.6422788868534708e-30 2.2737367544323202e-15 
Polygon3D 0
PolygonOnTriangulations 0
Surfaces 0
Triangulations 0

TShapes 9
Ve
1e-07
50 0 -1.08889566340366e-14
0 0

0101101
*
Ve
1e-07
50 50 -1.18785092642182e-13
0 0

0101101
*
Ed
 1e-07 1 1 0
1  1 0 0 50
0

0101000
+9 0 -8 0 *
Ve
1e-07
0 50 -5.09825492056555e-15
0 0

0101101
*
Ed
 1e-07 1 1 0
1  2 0 -0 50
0

0101000
+8 0 -6 0 *
Ve
1e-07
0 0 1.02797881087579e-13
0 0

0101101
*
Ed
 1e-07 1 1 0
1  3 0 0 50
0

0101000
+4 0 -6 0 *
Ed
 1e-07 1 1 0
1  4 0 -0 50
0

0101000
+9 0 -4 0 *
Wi

0101100
+7 0 +5 0 -3 0 -2 0 *

+1 0 