DBRep_DrawableShape

CASCADE Topology V1, (c) Matra-Datavision
Locations 32
1
              1               0               0               0 
              0               1               0               0 
              0               0               1              -1 
2  1 -1 0
1
              1               0               0               0 
              0               1               0               0 
              0               0               1 17.9999999999999 
2  1 1 3 1 0
2  3 -1 1 -1 0
1
              1               0               0               0 
              0               1               0              10 
              0               0               1               0 
1
             -1               0 -1.22464679914735e-16               0 
              0               1               0               0 
1.22464679914735e-16               0              -1               0 
1
              1               0               0             465 
              0               1               0           -1240 
              0               0               1             876 
1
              1               0               0               0 
              0               1               0               0 
              0               0               1 -5.99999999999989 
1
              1               0               0               0 
              0               1               0               0 
              0               0               1               1 
2  6 1 7 1 8 1 9 1 10 1 1 1 0
2  1 -1 10 -1 9 -1 8 -1 7 -1 6 -1 0
2  10 -1 9 -1 8 -1 7 -1 6 -1 0
2  6 1 7 1 8 1 9 1 10 1 1 1 3 1 0
2  3 -1 1 -1 10 -1 9 -1 8 -1 7 -1 6 -1 0
1
              1               0               0               0 
              0               1               0               0 
              0               0               1              -0 
1
              1               0               0               0 
              0               1               0               0 
              0               0               1               1 
2  6 1 7 1 8 1 16 1 17 1 1 1 0
2  1 -1 17 -1 16 -1 8 -1 7 -1 6 -1 0
2  17 -1 16 -1 8 -1 7 -1 6 -1 0
2  6 1 7 1 8 1 16 1 17 1 1 1 3 1 0
2  3 -1 1 -1 17 -1 16 -1 8 -1 7 -1 6 -1 0
1
              1               0               0               0 
              0               1               0               0 
              0               0               1 17.9999999999999 
2  23 -1 0
1
              1               0               0               0 
              0               1               0               0 
              0               0               1 3.38929533623662e-14 
1
              1               0               0               0 
              0               1               0               0 
              0               0               1               1 
1
              1               0               0               0 
              0               1               0               0 
              0               0               1              -1 
2  6 1 7 1 8 1 25 1 26 1 27 1 0
2  27 -1 26 -1 25 -1 8 -1 7 -1 6 -1 0
1
              1               0               0               0 
              0               1               0               0 
              0               0               1 17.9999999999999 
2  30 -1 27 -1 26 -1 25 -1 8 -1 7 -1 6 -1 0
2  6 1 7 1 8 1 25 1 26 1 27 1 30 1 0
Curve2ds 40
1 0 -1.1368683772161603e-13 0 -1 
1 0 -0 1.2246467991473532e-16 -1 
1 50 0 0 -1 
1 0 -0 1.2246467991473532e-16 -1 
1 0 0 1 0 
1 25 -25 0 1 
1 0 -17.999999999999886 1 0 
1 25 -25 0 1 
1 0 -1.1368683772161603e-13 0 -1 
1 50 -1.0756360372587926e-13 1.2246467991473532e-16 -1 
1 0 -0 1 0 
1 25 -25 -1 4.6422788868534715e-30 
1 2.204364238465222e-15 -17.999999999999886 1 0 
1 25 -25 -1 4.6422788868534715e-30 
1 50 -1.0756360372587926e-13 1.2246467991473532e-16 -1 
1 50 0 0 -1 
1 0 -0 1 0 
1 25 25 -1 4.6422788868534715e-30 
1 2.204364238465222e-15 -17.999999999999886 1 0 
1 25 25 -1 4.6422788868534715e-30 
1 0 0 1 0 
1 -25 -25 0 1 
1 0 0 1 0 
1 0 -17.999999999999886 1 0 
1 0 0 1 0 
1 0 -17.999999999999886 1 0 
1 0 0 1 0 
1 0 -17.999999999999886 1 0 
1 0 0 1 0 
1 0 -17.999999999999886 1 0 
1 0 -17.999999999999886 1 0 
1 -25 -25 0 1 
1 5.1071801000844514 0 0 -1 
1 5.1071801000844514 0 0 -1 
1 6.2831853071795862 0 0 -1 
1 6.2831853071795862 0 0 -1 
1 10.600783167864513 0 0 -1 
1 4.317597860684927 0 0 -1 
1 0 0 0 -1 
1 6.2831853071795862 0 0 -1 
Curves 20
1 50 0 0 0 0 1 
1 50 50 -1.1368683772161603e-13 0 0 1 
1 50 0 0.99999999999988631 0 1 0 
1 50 0 0.99999999999988631 0 1 0 
1 0 0 1.1368683772161603e-13 0 0 1 
1 415 1230 870 1 0 -0 
1 415 1230 870 1 0 -0 
1 0 50 0 0 0 1 
1 415 1280 876 1 0 -0 
1 415 1280 876 1 0 -0 
1 0 0 1 0 1 0 
2 25 21 6.3808510335047358e-16 -2.2737367544323206e-15 -2.1579227201628998e-15 -1 -1 4.6422788868534722e-30 2.2737367544323206e-15 -2.6426931520548465e-31 1 -2.1579227201628998e-15 3.25
2 25 21 6.3808510335047358e-16 -2.2737367544323206e-15 -2.1579227201628998e-15 -1 -1 4.6422788868534722e-30 2.2737367544323206e-15 -2.6426931520548465e-31 1 -2.1579227201628998e-15 3.25
2 25 21 6.3808510335047358e-16 -2.2737367544323206e-15 -2.1579227201628998e-15 -1 -1 4.6422788868534722e-30 2.2737367544323206e-15 -2.6426931520548465e-31 1 -2.1579227201628998e-15 3.25
2 440 1267 876 0 0 1 1 4.6422788868534708e-30 -0 -4.6422788868534708e-30 1 0 3.25
1 0 0 1 0 1 0 
1 23.75 18 -1.1368683772161603e-13 0 0 1 
1 21.75 21 0 0 0 1 
1 26.25 18 -1.1368683772161603e-13 0 0 1 
1 21.75 37 -2.9864999362416711e-14 0 0 1 
Polygon3D 0
PolygonOnTriangulations 0
Surfaces 10
1 50 0 -1.1368683772161603e-13 -1 0 0 0 1 0 0 0 -1 
1 50 0 0 0 -1 0 -1 0 1.2246467991473532e-16 -1.2246467991473532e-16 -0 -1 
1 50 50 -1.1368683772161603e-13 0 -1 0 -1 0 1.2246467991473532e-16 -1.2246467991473532e-16 -0 -1 
1 25 25 0.99999999999999201 2.2737367544323206e-15 2.1579227201628991e-15 1 1 0 -2.2737367544323206e-15 -4.9065482020589547e-30 1 -2.1579227201628991e-15 
1 25 25 0.99999999999999201 2.2737367544323206e-15 2.1579227201628991e-15 1 1 0 -2.2737367544323206e-15 -4.9065482020589547e-30 1 -2.1579227201628991e-15 
1 0 0 0 -1 0 0 0 1 0 0 0 -1 
2 25 21 6.3808510335047358e-16 -2.2737367544323206e-15 -2.1579227201628998e-15 -1 -1 4.6422788868534722e-30 2.2737367544323206e-15 -2.6426931520548465e-31 1 -2.1579227201628998e-15 3.25
2 25 21 6.3808510335047358e-16 -2.2737367544323206e-15 -2.1579227201628998e-15 -1 -1 4.6422788868534722e-30 2.2737367544323206e-15 -2.6426931520548465e-31 1 -2.1579227201628998e-15 3.25
2 25 21 6.3808510335047358e-16 -2.2737367544323206e-15 -2.1579227201628998e-15 -1 -1 4.6422788868534722e-30 2.2737367544323206e-15 -2.6426931520548465e-31 1 -2.1579227201628998e-15 3.25
2 25 37 -1.1368683772161603e-13 -1.2246467991473532e-16 0 -1 -1 4.6422788868534708e-30 1.2246467991473532e-16 4.6422788868534708e-30 1 -5.6851519795344407e-46 3.25
Triangulations 0

TShapes 68
Ve
1.5e-07
50 0 0
0 0

0101101
*
Ve
1.5e-07
50 0 17.9999999999999
0 0

0101101
*
Ed
 1.5e-07 1 1 0
1  1 0 0 17.9999999999999
2  1 1 0 0 17.9999999999999
2  2 2 0 0 17.9999999999999
0

0101000
+68 0 -67 0 *
Ve
1.5e-07
50 50 -1.13686837721616e-13
0 0

0101101
*
Ve
1.5e-07
50 50 17.9999999999998
0 0

0101101
*
Ed
 1.5e-07 1 1 0
1  2 0 0 17.9999999999999
2  3 1 0 0 17.9999999999999
2  4 3 0 0 17.9999999999999
0

0101000
+65 0 -64 0 *
Ed
 1e-07 1 1 0
1  3 0 0 50
2  5 1 2 0 50
2  6 4 0 0 50
0

0101000
+68 2 -65 2 *
Ed
 1e-07 1 1 0
1  4 0 0 50
2  7 1 5 0 50
2  8 5 0 0 50
0

0101000
+67 5 -64 5 *
Wi

0101100
+66 0 -63 0 -62 1 +61 4 *
Fa
0  1e-07 1 0

0101000
+60 0 *
Ve
1.5e-07
0 0 1.13686837721616e-13
0 0

0101101
*
Ve
1.5e-07
0 0 18
0 0

0101101
*
Ed
 1.5e-07 1 1 0
1  5 0 0 17.9999999999999
2  9 6 0 0 17.9999999999999
2  10 2 0 0 17.9999999999999
0

0101000
+58 0 -57 0 *
Ed
 1.5e-07 1 1 0
1  6 0 0 50
2  11 2 12 0 50
2  12 4 13 0 50
0

0101000
+68 12 -58 12 *
Ed
 1.5e-07 1 1 0
1  7 0 0 50
2  13 2 15 0 50
2  14 5 13 0 50
0

0101000
+67 15 -57 15 *
Wi

0101100
+66 0 -56 0 -55 11 +54 14 *
Fa
0  1.5e-07 2 0

0101000
+53 0 *
Ve
1.5e-07
0 50 0
0 0

0101101
*
Ve
1.5e-07
0 50 17.9999999999999
0 0

0101101
*
Ed
 1.5e-07 1 1 0
1  8 0 0 17.9999999999999
2  15 3 0 0 17.9999999999999
2  16 6 0 0 17.9999999999999
0

0101000
+51 0 -50 0 *
Ed
 1.5e-07 1 1 0
1  9 0 0 50
2  17 3 19 0 50
2  18 4 20 0 50
0

0101000
+65 19 -51 19 *
Ed
 1.5e-07 1 1 0
1  10 0 0 50
2  19 3 22 0 50
2  20 5 20 0 50
0

0101000
+64 22 -50 22 *
Wi

0101100
+63 0 -49 0 -48 18 +47 21 *
Fa
0  1.5e-07 3 0

0101000
+46 0 *
Ed
 1e-07 1 1 0
1  11 0 0 50
2  21 6 2 0 50
2  22 4 0 0 50
0

0101000
+58 2 -51 2 *
Wi

0101100
+62 1 -55 11 +48 18 -44 1 *
Ve
1.50000124567023e-07
23.75 18 -1.13686837721616e-13
0 0

0101101
*
Ve
1e-05
21.75 21 0
0 0

0101101
*
Ed
 1.5e-07 1 1 0
1  12 0 5.10718010008445 6.28318530717959
2  23 7 0 5.10718010008445 6.28318530717959
2  24 7 24 5.10718010008445 6.28318530717959
0

0101000
+42 0 -41 0 *
Ve
1.50000124233957e-07
26.25 18 -1.13686837721616e-13
0 0

0101101
*
Ed
 1.5e-07 1 1 0
1  13 0 4.31759786068493 5.10718010008445
2  25 8 0 4.31759786068493 5.10718010008445
2  26 8 24 4.31759786068493 5.10718010008445
0

0101000
+39 0 -42 0 *
Ed
 1.5e-07 1 1 0
1  14 0 6.28318530717959 10.6007831678645
2  27 9 0 6.28318530717959 10.6007831678645
2  28 9 24 6.28318530717959 10.6007831678645
0

0101000
+41 0 -39 0 *
Wi

0101100
+40 0 +38 0 +37 0 *
Ve
1.50000171973547e-07
21.75 37 -2.98649993624167e-14
0 0

0101101
*
Ed
 1.50000159983138e-07 1 1 0
1  15 0 0 6.28318530717959
2  29 10 29 0 6.28318530717959
2  30 10 31 0 6.28318530717959
0

0101000
+35 29 -35 29 *
Wi

0101100
+34 28 *
Fa
0  1.5e-07 4 1

0101000
+43 0 +36 0 +33 0 *
Ed
 1e-07 1 1 0
1  16 0 0 50
2  31 6 5 0 50
2  32 5 0 0 50
0

0101000
+57 5 -50 5 *
Wi

0101100
+61 4 -54 14 +47 21 -31 4 *
Ve
1.50000124567023e-07
23.75 18 17.9999999999998
0 0

0101101
*
Ve
1e-05
21.75 21 17.9999999999999
0 0

0101101
*
Ed
 1.50000003552714e-07 1 1 0
1  12 0 5.10718010008445 6.28318530717959
2  23 7 0 5.10718010008445 6.28318530717959
2  24 7 24 5.10718010008445 6.28318530717959
0

0101000
+29 24 -28 24 *
Ve
1.50000124233957e-07
26.25 18 17.9999999999998
0 0

0101101
*
Ed
 1.50000003552714e-07 1 1 0
1  13 0 4.31759786068493 5.10718010008445
2  25 8 0 4.31759786068493 5.10718010008445
2  26 8 24 4.31759786068493 5.10718010008445
0

0101000
+26 24 -29 24 *
Ed
 1.50000003552714e-07 1 1 0
1  14 0 6.28318530717959 10.6007831678645
2  27 9 0 6.28318530717959 10.6007831678645
2  28 9 24 6.28318530717959 10.6007831678645
0

0101000
+28 24 -26 24 *
Wi

0101100
+27 23 +25 23 +24 23 *
Ve
1.50000171973547e-07
21.75 37 17.9999999999999
0 0

0101101
*
Ed
 1.50000159983138e-07 1 1 0
1  15 0 0 6.28318530717959
2  29 10 29 0 6.28318530717959
2  30 10 31 0 6.28318530717959
0

0101000
+22 31 -22 31 *
Wi

0101100
+21 32 *
Fa
0  1.5e-07 5 4

0101000
+30 0 +23 0 +20 0 *
Wi

0101100
+56 0 -49 0 -44 1 +31 4 *
Fa
0  1e-07 6 0

0101000
+18 0 *
Ed
 1.50000124567023e-07 1 1 0
1  17 0 0 17.9999999999999
2  33 8 0 0 17.9999999999999
2  34 7 0 0 17.9999999999999
4 C2 8 0 7 0
0

0101000
+42 0 -29 0 *
Ed
 1e-05 1 1 0
1  18 0 0 17.9999999999999
2  35 9 0 0 17.9999999999999
2  36 7 0 0 17.9999999999999
4 C2 9 0 7 0
0

0101000
+41 0 -28 0 *
Wi

0101100
+16 0 -15 0 -40 0 +27 23 *
Fa
0  1.00000011123601e-07 7 0

0101000
+14 0 *
Ed
 1.50000124233957e-07 1 1 0
1  19 0 0 17.9999999999999
2  37 9 0 0 17.9999999999999
2  38 8 0 0 17.9999999999999
4 C2 9 0 8 0
0

0101000
+39 0 -26 0 *
Wi

0101100
+12 0 -16 0 -38 0 +25 23 *
Fa
0  1.00000010174545e-07 8 0

0101000
+11 0 *
Wi

0101100
+15 0 -12 0 -37 0 +24 23 *
Fa
0  1.00000009132082e-07 9 0

0101000
+9 0 *
Ed
 1.50000171973547e-07 1 1 0
1  20 0 0 17.9999999999999
3  39 40CN 10 0 0 17.9999999999999
0

0101000
+35 0 -22 0 *
Wi

0101100
+7 0 -7 0 -34 28 +21 32 *
Fa
0  1.50000159983138e-07 10 0

0101000
+6 0 *
Sh

0101100
-59 0 +52 0 -45 0 -32 0 +19 0 +17 0 -13 0 -10 0 -8 0 -5 0 
*
So

0100000
+4 0 *
Co

0100000
+3 0 *
Co

1100000
+2 0 *

+1 0 