DBRep_DrawableShape

CASCADE Topology V1, (c) Matra-Datavision
Locations 8
1
              1               0               0               0 
              0               1               0               0 
              0               0               1              -1 
1
              1               0               0               0 
              0               1               0              10 
              0               0               1               0 
1
             -1               0 -1.22464679914735e-16               0 
              0               1               0               0 
1.22464679914735e-16               0              -1               0 
1
              1               0               0             465 
              0               1               0           -1240 
              0               0               1             876 
2  2 1 3 1 4 1 0
2  4 -1 3 -1 2 -1 0
1
              1               0               0               0 
              0               1               0               0 
              0               0               1 17.9999999999999 
2  1 1 7 1 0
Curve2ds 6
2 25 37 1 0 -0 1 3.25
1 0 19 1 0 
1 6.2831853071795862 -0 0 1 
1 0 -0 0 1 
2 25 37 1 0 -0 1 3.25
1 0 1 1 0 
Curves 3
2 440 1267 876 0 0 1 1 0 -0 -0 1 0 3.25
1 443.25 1267 857 0 0 1 
2 440 1267 858 0 0 1 1 0 -0 -0 1 0 3.25
Polygon3D 0
PolygonOnTriangulations 0
Surfaces 4
1 25 25 0.99999999999999201 2.2737367544323206e-15 2.1579227201628991e-15 1 1 0 -2.2737367544323206e-15 -4.9065482020589547e-30 1 -2.1579227201628991e-15 
1 415 1230 876 0 0 1 1 0 -0 -0 1 0 
2 440 1267 857 0 0 1 1 0 -0 -0 1 0 3.25
1 415 1230 858 0 0 1 1 0 -0 -0 1 0 
Triangulations 0

TShapes 13
Ve
1.50000089367628e-07
21.75 37 -1.13686837721616e-13
0 0

0101101
*
Ed
 1.50000089367628e-07 1 1 0
1  1 0 0 6.28318530717959
2  1 2 0 0 6.28318530717959
2  2 3 0 0 6.28318530717959
0

0101000
+13 6 -13 6 *
Wi

0101100
-12 5 *
Fa
0  1.5e-07 1 1

0101000
+11 0 *
Ve
1.50000042632564e-07
21.75 37 17.9999999999999
0 0

0101101
*
Ed
 1e-07 1 1 0
1  2 0 1 19
3  3 4CN 3 0 1 19
0

0101000
+9 6 -13 6 *
Ed
 1.50000042632564e-07 1 1 0
1  3 0 0 6.28318530717959
2  5 4 0 0 6.28318530717959
2  6 3 0 0 6.28318530717959
0

0101000
+9 6 -9 6 *
Wi

0101100
-12 5 +8 5 +7 5 -8 5 *
Fa
0  1e-07 3 5

0101000
+6 0 *
Wi

0101100
-7 5 *
Fa
0  1.5e-07 1 8

0101000
+4 0 *
Sh

0101100
-10 0 +5 0 +3 0 *
So

0100000
+2 0 *

+1 0 