DBRep_DrawableShape

CASCADE Topology V1, (c) Matra-Datavision
Locations 16
1
              1               0               0               0 
              0               1               0               0 
              0               0               1              -1 
2  1 -1 0
1
              1               0               0               0 
              0               1               0              10 
              0               0               1               0 
1
             -1               0 -1.22464679914735e-16               0 
              0               1               0               0 
1.22464679914735e-16               0              -1               0 
1
              1               0               0             465 
              0               1               0           -1240 
              0               0               1             876 
2  3 1 4 1 5 1 0
2  5 -1 4 -1 3 -1 0
1
              1               0               0               0 
              0               1               0               0 
              0               0               1 -5.99999999999989 
1
              1               0               0               0 
              0               1               0               0 
              0               0               1               1 
2  3 1 4 1 5 1 8 1 9 1 1 1 0
2  9 -1 8 -1 5 -1 4 -1 3 -1 0
2  1 -1 9 -1 8 -1 5 -1 4 -1 3 -1 0
1
              1               0               0               0 
              0               1               0               0 
              0               0               1              -0 
2  13 -1 5 -1 4 -1 3 -1 0
1
              1               0               0               0 
              0               1               0               0 
              0               0               1               1 
2  15 -1 13 -1 5 -1 4 -1 3 -1 0
Curve2ds 41
1 25 -25 0 1 
1 12 -18 1 0 
1 0 0 1 0 
1 12 0 0 -1 
1 0 0 0 1 
1 25 -25 -1 4.6422788868534715e-30 
1 -25 -25 0 1 
8 -50 0
1 0 18 -1 0 
8 -50 0
1 6 0 0 -1 
2 25 21 1 0 -0 1 3.25
1 0 19 1 0 
1 0 0 1 0 
1 0 -1 1 0 
1 -6.283185307179588 19 1 0 
2 25 21 1 0 -0 1 3.25
1 0 19 1 0 
1 0 0 1 0 
1 0 -1 1 0 
1 0 19 1 0 
8 -50 0
1 6 0 0 -1 
8 -50 0
1 0 18 -1 0 
1 0 18 1 0 
1 0 0 0 1 
8 12.399999999999977 19.600000000000023
1 -13 23.75 1 0 
8 12.399999999999977 19.600000000000023
1 4.3175978606849279 0 0 1 
1 4.317597860684927 0 0 1 
1 12 0 0 1 
1 0 0 1 0 
1 12 -18 1 0 
1 0 50 1 0 
1 50 0 0 1 
1 12 0 0 -1 
1 0 18 1 0 
1 0 0 0 1 
8 12.399999999999977 19.600000000000023
1 5.1071801000844514 0 0 1 
8 12.399999999999977 19.600000000000023
1 -13 26.25 1 0 
1 -1.1760052070951375 0 1.4802973661668753e-16 1 
1 0 12.999999999999886 1 0 
2 35 31 -1 0 0 1 3.25
1 0 12.999999999999886 1 0 
1 -6.2831853071795871 12.999999999999886 1 0 
Curves 19
1 50 0 0.99999999999988631 0 1 0 
1 415 1248 870 0 0 1 
1 415 1230 870 -0 1 0 
1 50 0 0 0 0 1 
1 415 1230 870 1 0 -0 
1 0 0 1 0 1 0 
1 415 1248 876 -1 -0 0 
2 440 1251 876 0 0 1 1 0 -0 -0 1 0 3.25
2 440 1251 876 0 0 1 1 0 -0 -0 1 0 3.25
1 415 1248 876 -1 -0 0 
1 415 1248 870 1 0 -0 
1 438.75 1248 857 0 0 1 
1 0 0 1.1368683772161603e-13 0 0 1 
1 415 1230 870 1 0 -0 
1 465 1248 870 0 0 1 
1 465 1230 870 -0 1 0 
1 415 1248 870 1 0 -0 
1 441.25 1248 857 0 0 1 
2 25 21 6 -1.2246467991473532e-16 0 -1 -1 0 1.2246467991473532e-16 0 1 0 3.25
Polygon3D 0
PolygonOnTriangulations 0
Surfaces 17
1 50 0 -1.1368683772161603e-13 -1 0 0 0 1 0 0 0 -1 
1 25 25 0.99999999999999201 2.2737367544323206e-15 2.1579227201628991e-15 1 1 0 -2.2737367544323206e-15 -4.9065482020589547e-30 1 -2.1579227201628991e-15 
1 415 1230 858 1 0 -0 0 0 1 0 -1 0 
1 415 1248 870 -0 1 0 0 0 1 1 0 -0 
1 415 1230 870 0 0 1 1 0 -0 -0 1 0 
1 415 1230 876 0 0 1 1 0 -0 -0 1 0 
1 415 1248 870 -0 1 0 0 0 1 1 0 -0 
2 440 1251 857 0 0 1 1 0 -0 -0 1 0 3.25
2 25 21 -1.1368683772161603e-13 -1.2246467991473532e-16 0 -1 -1 0 1.2246467991473532e-16 0 1 0 3.25
2 25 21 18.999999999999886 -1.2246467991473532e-16 0 -1 -1 0 1.2246467991473532e-16 0 1 0 3.25
2 25 21 -1.1368683772161603e-13 -1.2246467991473532e-16 0 -1 -1 0 1.2246467991473532e-16 0 1 0 3.25
1 50 0 0 0 -1 0 -1 0 1.2246467991473532e-16 -1.2246467991473532e-16 -0 -1 
1 415 1230 858 -0 1 0 0 0 1 1 0 -0 
1 0 0 0 -1 0 0 0 1 0 0 0 -1 
1 465 1230 858 1 0 -0 0 0 1 0 -1 0 
1 24.985143895635115 10.211591660515053 5.9999999999999396 2.2713090622908556e-15 0 1 1 0 -2.2713090622908556e-15 -0 1 0 
1 -10 -10 6 0 0 1 1 0 -0 -0 1 0 
Triangulations 0

TShapes 52
Ve
1.5e-07
50 0 0
0 0

0101101
*
Ve
1.50000110790258e-07
50 18 -1.13686837721616e-13
0 0

0101101
*
Ed
 1.5e-07 1 1 0
1  1 0 0 18
2  1 2 0 0 18
0

0101000
+52 2 -51 2 *
Ve
1.5e-07
50 18 5.99999999999989
0 0

0101101
*
Ed
 1e-07 1 1 0
1  2 0 0 6
2  2 3 0 0 6
2  3 4 0 0 6
0

0101000
+49 7 -51 7 *
Ve
1.5e-07
50 0 5.99999999999989
0 0

0101101
*
Ed
 1.5e-07 1 1 0
1  3 0 0 18
2  4 3 0 0 18
2  5 5 0 0 18
0

0101000
+47 7 -49 7 *
Ed
 1.5e-07 1 1 0
1  4 0 0 5.99999999999989
0

0101000
+52 0 -47 0 *
Wi

0101100
-50 1 +48 6 +46 6 +45 0 *
Fa
0  1e-07 1 0

0101000
+44 0 *
Ve
1.5e-07
0 0 1.13686837721616e-13
0 0

0101101
*
Ed
 1.5e-07 1 1 0
1  5 0 0 50
2  6 2 11 0 50
0

0101000
+52 12 -42 12 *
Ve
1.5000016726115e-07
0 18 0
0 0

0101101
*
Ed
 1.5e-07 1 1 0
1  6 0 0 18
2  7 2 0 0 18
0

0101000
+42 2 -40 2 *
Ve
1.5000016726115e-07
23.75 18 -1.13686837721616e-13
0 0

0101101
*
Ed
 1.5000016726115e-07 1 1 0
1  7 0 -50 -26.25
2  8 6 0 -50 -26.25
2  9 7 0 -50 -26.25
0

0101000
+40 7 -38 7 *
Ve
1.5000012422784e-07
21.75 21 -1.13686837721616e-13
0 0

0101101
*
Ed
 1.5000012422784e-07 1 1 0
1  8 0 5.10718010008445 6.28318530717959
2  10 6 0 5.10718010008445 6.28318530717959
2  11 8 0 5.10718010008445 6.28318530717959
2  12 9 14 5.10718010008445 6.28318530717959
2  13 9 16 5.10718010008445 6.28318530717959
2  14 10 7 5.10718010008445 6.28318530717959
0

0101000
+38 7 -36 7 *
Ve
1.50000118399591e-07
26.25 18 -1.13686837721616e-13
0 0

0101101
*
Ed
 1.50000118399591e-07 1 1 0
1  9 0 0 4.31759786068493
2  15 6 0 0 4.31759786068493
2  16 8 0 0 4.31759786068493
2  17 11 14 0 4.31759786068493
2  18 11 16 0 4.31759786068493
2  19 10 7 0 4.31759786068493
0

0101000
+36 7 -34 7 *
Ed
 1.50000110790258e-07 1 1 0
1  10 0 -23.75 0
2  20 4 0 -23.75 0
2  21 6 0 -23.75 0
0

0101000
+34 7 -51 7 *
Wi

0101100
-41 10 -39 1 -37 6 -35 6 -33 6 -32 6 +50 1 *
Fa
0  1.5e-07 2 1

0101000
+31 0 *
Ve
1.5e-07
26.25 18 5.99999999999989
0 0

0101101
*
Ed
 1.5e-07 1 1 0
1  11 0 0 23.75
2  22 5 0 0 23.75
2  23 4 0 0 23.75
0

0101000
+49 7 -29 7 *
Ed
 1e-07 1 1 0
1  12 0 13 19
2  24 4 0 13 19
2  25 8 0 13 19
2  26 10 7 13 19
0

0101000
+29 7 -34 7 *
Wi

0101100
-28 6 -27 6 -32 6 +48 6 *
Fa
0  1e-07 4 6

0101000
+26 0 *
Ve
1.5e-07
0 0 6
0 0

0101101
*
Ed
 1.5e-07 1 1 0
1  13 0 0 5.99999999999989
0

0101000
+42 0 -24 0 *
Ed
 1.5e-07 1 1 0
1  14 0 0 50
2  27 13 0 0 50
2  28 5 0 0 50
0

0101000
+47 7 -24 7 *
Wi

0101100
-41 10 -23 0 +22 6 +45 0 *
Fa
0  1.5e-07 12 0

0101000
+21 0 *
Ve
1.5e-07
0 18 6
0 0

0101101
*
Ed
 1.00000000673556e-07 1 1 0
1  15 0 0 6
2  29 15 0 0 6
2  30 7 0 0 6
0

0101000
+19 7 -40 7 *
Ed
 1.5e-07 1 1 0
1  16 0 0 18
2  31 5 0 0 18
2  32 15 0 0 18
0

0101000
+24 7 -19 7 *
Wi

0101100
-39 1 +18 6 +17 6 +23 0 *
Fa
0  1e-07 14 0

0101000
+16 0 *
Ve
1.5e-07
23.75 18 5.99999999999989
0 0

0101101
*
Ed
 1.5e-07 1 1 0
1  17 0 26.25 50
2  33 5 0 26.25 50
2  34 7 0 26.25 50
0

0101000
+14 7 -19 7 *
Ed
 1e-07 1 1 0
1  18 0 13 19
2  35 8 0 13 19
2  36 7 0 13 19
2  37 10 7 13 19
0

0101000
+14 7 -38 7 *
Wi

0101100
-13 6 -18 6 -37 6 +12 6 *
Fa
0  1e-07 7 6

0101000
+11 0 *
Ve
1.5e-07
21.75 21 6
0 0

0101101
*
Ed
 1.5e-07 1 1 0
1  19 0 0 4.31759786068493
2  38 8 6 0 4.31759786068493
2  39 17 0 0 4.31759786068493
2  40 10 0 0 4.31759786068493
0

0101000
+9 0 -29 0 *
Ed
 1.5e-07 1 1 0
1  19 0 5.10718010008445 6.28318530717959
2  38 8 6 5.10718010008445 6.28318530717959
2  39 17 0 5.10718010008445 6.28318530717959
2  41 10 0 5.10718010008445 6.28318530717959
0

0101000
+14 0 -9 0 *
Wi

0101100
+46 6 +28 6 -8 0 -7 0 +13 6 -17 6 -22 6 *
Fa
0  1.5e-07 16 0

0101000
+6 0 *
Wi

0101100
+8 0 +27 6 -33 6 -35 6 -12 6 +7 0 *
Fa
0  1e-07 10 0

0111000
+4 0 *
Sh

0101100
-43 0 -30 0 +25 0 +20 0 +15 0 +10 0 +5 0 +3 0 *
So

0100000
+2 0 *

+1 0 