DBRep_DrawableShape

CASCADE Topology V1, (c) Matra-Datavision
Locations 14
1
              1               0               0               0 
              0               1               0              10 
              0               0               1               0 
1
              1               0               0               0 
              0               1               0               0 
              0               0               1               0 
1
              1               0               0            -415 
              0               1               0           -1240 
              0               0               1           -1230 
2  1 1 2 1 3 1 0
1
              1               0               0               0 
              0               1               0               0 
              0               0               1              -6 
2  5 -1 3 -1 2 -1 1 -1 0
1
              1               0               0               0 
              0               1               0               0 
              0               0               1               1 
2  7 -1 5 -1 3 -1 2 -1 1 -1 0
2  3 -1 2 -1 1 -1 0
1
              1               0               0               0 
              0               1               0               0 
              0               0               1             -18 
1
              1               0               0               0 
              0               1               0               0 
              0               0               1               1 
1
              1               0               0               0 
              0               1               0               0 
              0               0               1              -1 
1
              1               0               0               0 
              0               1               0               0 
              0               0               1              18 
2  1 1 2 1 3 1 10 1 11 1 12 1 13 1 0
Curve2ds 10
1 0 7 1 0 
2 35 31 1 0 -0 1 3.25
2 25 21 1 0 -0 1 3.25
1 0 7 1 0 
1 0 0 1 0 
1 0 -1 1 0 
1 6.2831853071795862 -0 0 1 
1 0 -0 0 1 
2 25 21 1 0 -0 1 3.25
1 0 19 1 0 
Curves 4
2 25 21 6 0 0 1 1 0 -0 -0 1 0 3.25
2 440 1251 1236 0 0 1 1 0 -0 -0 1 0 3.25
1 443.25 1251 1229 0 0 1 
2 440 1251 1248 0 0 1 1 0 -0 -0 1 0 3.25
Polygon3D 0
PolygonOnTriangulations 0
Surfaces 6
2 440 1251 1229 0 0 1 1 0 -0 -0 1 0 3.25
1 -10 -10 6 0 0 1 1 0 -0 -0 1 0 
1 415 1230 1236 0 0 1 1 0 -0 -0 1 0 
2 25 21 0 -0 -0 -1 1 0 0 0 1 0 3.25
1 415 1230 1248 0 0 1 1 0 -0 -0 1 0 
1 415 1230 1248 0 0 1 1 0 -0 -0 1 0 
Triangulations 0

TShapes 17
Ve
1e-07
26.25 18 6
0 0

0101101
*
Ve
1e-07
28.25 21 6
0 0

0101101
*
Ed
 1e-07 1 1 0
1  1 0 5.10718010008445 6.28318530717959
2  1 1 4 5.10718010008445 6.28318530717959
2  2 2 0 5.10718010008445 6.28318530717959
0

0101000
+17 0 -16 0 *
Ve
1e-07
23.75 18 6
0 0

0101101
*
Ed
 1e-07 1 1 0
1  2 0 4.31759786068493 5.10718010008445
2  3 3 0 4.31759786068493 5.10718010008445
2  4 1 0 4.31759786068493 5.10718010008445
2  5 4 6 4.31759786068493 5.10718010008445
2  6 4 8 4.31759786068493 5.10718010008445
0

0101000
+14 9 -17 9 *
Ed
 1e-07 1 1 0
1  1 0 0 4.31759786068493
2  1 1 4 0 4.31759786068493
2  2 2 0 0 4.31759786068493
0

0101000
+16 0 -14 0 *
Ve
1.5e-07
28.25 21 18
0 0

0101101
*
Ed
 1e-07 1 1 0
1  3 0 7 19
3  7 8CN 1 0 7 19
0

0101000
+16 9 -11 9 *
Ed
 1.5e-07 1 1 0
1  4 0 0 6.28318530717959
2  9 5 0 0 6.28318530717959
2  10 1 0 0 6.28318530717959
0

0101000
+11 9 -11 9 *
Wi

0101100
+15 0 +13 4 +12 0 -10 4 -9 4 +10 4 *
Fa
0  1e-07 1 4

0101000
+8 0 *
Wi

0101100
+12 0 +15 0 +13 4 *
Fa
0  1e-07 2 0

0101000
+6 0 *
Wi

0101100
+9 4 *
Fa
0  1.5e-07 6 14

0101000
+4 0 *
Sh

0101100
+7 0 -5 0 +3 0 *
So

0100000
+2 0 *

+1 0 