DBRep_DrawableShape

CASCADE Topology V1, (c) Matra-Datavision
Locations 8
1
              1               0               0               0 
              0               1               0               0 
              0               0               1              -1 
1
              1               0               0               0 
              0               1               0              10 
              0               0               1               0 
1
              1               0               0               0 
              0               1               0               0 
              0               0               1               0 
1
              1               0               0            -415 
              0               1               0           -1240 
              0               0               1           -1230 
1
              1               0               0               0 
              0               1               0               0 
              0               0               1             -18 
1
              1               0               0               0 
              0               1               0               0 
              0               0               1               1 
2  2 1 3 1 4 1 5 1 6 1 0
2  6 -1 5 -1 4 -1 3 -1 2 -1 0
Curve2ds 4
1 0 0 0 1 
1 0 0 1 0 
1 50 0 0 1 
1 0 50 1 0 
Curves 4
1 0 0 1 0 1 0 
1 415 1230 1248 1 0 -0 
1 50 0 1 0 1 0 
1 415 1280 1248 1 0 -0 
Polygon3D 0
PolygonOnTriangulations 0
Surfaces 1
1 415 1230 1248 0 0 1 1 0 -0 -0 1 0 
Triangulations 0

TShapes 9
Ve
1.5e-07
0 0 1
0 0

0101101
*
Ve
1.5e-07
0 50 1
0 0

0101101
*
Ed
 1.5e-07 1 1 0
1  1 0 0 50
2  1 1 7 0 50
0

0101000
+9 0 -8 0 *
Ve
1.5e-07
50 0 1
0 0

0101101
*
Ed
 1.5e-07 1 1 0
1  2 0 0 50
2  2 1 0 0 50
0

0101000
+9 8 -6 8 *
Ve
1.5e-07
50 50 1
0 0

0101101
*
Ed
 1.5e-07 1 1 0
1  3 0 0 50
2  3 1 7 0 50
0

0101000
+6 0 -4 0 *
Ed
 1.5e-07 1 1 0
1  4 0 0 50
2  4 1 0 0 50
0

0101000
+8 8 -4 8 *
Wi

0101100
-7 0 +5 7 +3 0 -2 7 *

+1 1 