DBRep_DrawableShape

CASCADE Topology V1, (c) Matra-Datavision
Locations 25
1
              1               0               0               0 
              0               1               0               0 
              0               0               1              -1 
2  1 -1 0
1
              1               0               0               0 
              0               1               0              10 
              0               0               1               0 
1
              1               0               0               0 
              0               1               0               0 
              0               0               1               0 
1
              1               0               0            -415 
              0               1               0           -1240 
              0               0               1           -1230 
1
              1               0               0               0 
              0               1               0               0 
              0               0               1             -18 
1
              1               0               0               0 
              0               1               0               0 
              0               0               1               1 
2  3 1 4 1 5 1 6 1 7 1 0
1
              1               0               0               0 
              0               1               0               0 
              0               0               1              18 
2  1 1 9 1 0
2  9 -1 1 -1 0
2  3 1 4 1 5 1 6 1 7 1 1 1 0
2  1 -1 7 -1 6 -1 5 -1 4 -1 3 -1 0
2  3 1 4 1 5 1 6 1 7 1 1 1 9 1 0
2  9 -1 1 -1 7 -1 6 -1 5 -1 4 -1 3 -1 0
1
              1               0               0               0 
              0               1               0               0 
              0               0               1              18 
2  16 -1 0
1
              1               0               0               0 
              0               1               0               0 
              0               0               1              -0 
1
              1               0               0               0 
              0               1               0               0 
              0               0               1               1 
1
              1               0               0               0 
              0               1               0               0 
              0               0               1              -1 
2  3 1 4 1 5 1 18 1 19 1 20 1 0
2  20 -1 19 -1 18 -1 5 -1 4 -1 3 -1 0
1
              1               0               0               0 
              0               1               0               0 
              0               0               1              18 
2  23 -1 20 -1 19 -1 18 -1 5 -1 4 -1 3 -1 0
2  3 1 4 1 5 1 18 1 19 1 20 1 23 1 0
Curve2ds 40
1 0 0 0 -1 
1 0 0 0 -1 
1 50 0 0 -1 
1 0 0 0 -1 
1 0 0 1 0 
1 0 0 0 1 
1 0 -18 1 0 
1 0 0 0 1 
1 50 0 0 -1 
1 0 0 0 -1 
1 0 0 1 0 
1 0 0 1 0 
1 0 -18 1 0 
1 0 0 1 0 
1 50 0 0 -1 
1 50 0 0 -1 
1 0 0 1 0 
1 0 50 1 0 
1 0 -18 1 0 
1 0 50 1 0 
1 0 0 1 0 
1 50 0 0 1 
1 0 0 1 0 
1 0 -18 1 0 
1 0 0 1 0 
1 0 -18 1 0 
1 0 0 1 0 
1 0 -18 1 0 
1 0 0 1 0 
1 0 -18 1 0 
1 0 -18 1 0 
1 50 0 0 1 
1 6.2831853071795862 0 0 -1 
1 6.2831853071795862 0 0 -1 
1 10.600783167864513 0 0 -1 
1 4.317597860684927 0 0 -1 
1 5.1071801000844514 0 0 -1 
1 5.1071801000844514 0 0 -1 
1 0 0 0 -1 
1 6.2831853071795862 0 0 -1 
Curves 20
1 0 0 0 0 0 1 
1 0 50 0 0 0 1 
1 0 0 1 0 1 0 
1 0 0 1 0 1 0 
1 50 0 0 0 0 1 
1 415 1230 1248 1 0 -0 
1 415 1230 1248 1 0 -0 
1 50 50 0 0 0 1 
1 415 1280 1248 1 0 -0 
1 415 1280 1248 1 0 -0 
1 50 0 1 0 1 0 
2 25 21 0 0 -0 1 1 0 0 -0 1 0 3.25
2 25 21 0 0 -0 1 1 0 0 -0 1 0 3.25
2 25 21 0 0 -0 1 1 0 0 -0 1 0 3.25
2 440 1267 1230 0 -0 1 1 0 0 -0 1 0 3.25
1 50 0 1 0 1 0 
1 28.25 21 0 0 0 1 
1 23.75 18 0 0 0 1 
1 26.25 18 0 0 0 1 
1 28.25 37 0 0 0 1 
Polygon3D 0
PolygonOnTriangulations 0
Surfaces 10
1 0 0 0 -1 0 0 0 1 0 0 0 -1 
1 0 0 0 0 1 0 1 0 0 0 0 -1 
1 0 50 0 0 1 0 1 0 0 0 0 -1 
1 415 1230 1248 0 0 1 1 0 -0 -0 1 0 
1 415 1230 1248 0 0 1 1 0 -0 -0 1 0 
1 50 0 0 -1 0 0 0 1 0 0 0 -1 
2 25 21 0 -0 0 -1 1 0 0 -0 1 0 3.25
2 25 21 0 -0 0 -1 1 0 0 -0 1 0 3.25
2 25 21 0 -0 0 -1 1 0 0 -0 1 0 3.25
2 25 37 0 -0 -0 -1 1 0 0 0 1 0 3.25
Triangulations 0

TShapes 68
Ve
1.5e-07
0 0 0
0 0

0101101
*
Ve
1.5e-07
0 0 18
0 0

0101101
*
Ed
 1.5e-07 1 1 0
1  1 0 0 18
2  1 1 0 0 18
2  2 2 0 0 18
0

0101000
+68 0 -67 0 *
Ve
1.5e-07
0 50 0
0 0

0101101
*
Ve
1.5e-07
0 50 18
0 0

0101101
*
Ed
 1.5e-07 1 1 0
1  2 0 0 18
2  3 1 0 0 18
2  4 3 0 0 18
0

0101000
+65 0 -64 0 *
Ed
 1e-07 1 1 0
1  3 0 0 50
2  5 1 2 0 50
2  6 4 8 0 50
0

0101000
+68 2 -65 2 *
Ed
 1e-07 1 1 0
1  4 0 0 50
2  7 1 11 0 50
2  8 5 8 0 50
0

0101000
+67 11 -64 11 *
Wi

0101100
+66 0 -63 0 -62 1 +61 10 *
Fa
0  1e-07 1 0

0101000
+60 0 *
Ve
1.5e-07
50 0 0
0 0

0101101
*
Ve
1.5e-07
50 0 18
0 0

0101101
*
Ed
 1.5e-07 1 1 0
1  5 0 0 18
2  9 2 0 0 18
2  10 6 0 0 18
0

0101000
+58 0 -57 0 *
Ed
 1.5e-07 1 1 0
1  6 0 0 50
2  11 2 13 0 50
2  12 4 0 0 50
0

0101000
+68 13 -58 13 *
Ed
 1.5e-07 1 1 0
1  7 0 0 50
2  13 2 15 0 50
2  14 5 0 0 50
0

0101000
+67 15 -57 15 *
Wi

0101100
+66 0 -56 0 -55 12 +54 14 *
Fa
0  1.5e-07 2 0

0101000
+53 0 *
Ve
1.5e-07
50 50 0
0 0

0101101
*
Ve
1.5e-07
50 50 18
0 0

0101101
*
Ed
 1.5e-07 1 1 0
1  8 0 0 18
2  15 6 0 0 18
2  16 3 0 0 18
0

0101000
+51 0 -50 0 *
Ed
 1.5e-07 1 1 0
1  9 0 0 50
2  17 3 13 0 50
2  18 4 0 0 50
0

0101000
+65 13 -51 13 *
Ed
 1.5e-07 1 1 0
1  10 0 0 50
2  19 3 15 0 50
2  20 5 0 0 50
0

0101000
+64 15 -50 15 *
Wi

0101100
+63 0 -49 0 -48 12 +47 14 *
Fa
0  1.5e-07 3 0

0101000
+46 0 *
Ed
 1e-07 1 1 0
1  11 0 0 50
2  21 6 2 0 50
2  22 4 8 0 50
0

0101000
+58 2 -51 2 *
Wi

0101100
-62 1 +55 12 -48 12 +44 1 *
Ve
1e-05
28.25 21 0
0 0

0101101
*
Ve
1.5e-07
23.75 18 0
0 0

0101101
*
Ed
 1.5e-07 1 1 0
1  12 0 6.28318530717959 10.6007831678645
2  23 7 0 6.28318530717959 10.6007831678645
2  24 7 17 6.28318530717959 10.6007831678645
0

0101000
+42 0 -41 0 *
Ve
1.5e-07
26.25 18 0
0 0

0101101
*
Ed
 1.5e-07 1 1 0
1  13 0 5.10718010008445 6.28318530717959
2  25 8 0 5.10718010008445 6.28318530717959
2  26 8 17 5.10718010008445 6.28318530717959
0

0101000
+39 0 -42 0 *
Ed
 1.5e-07 1 1 0
1  14 0 4.31759786068493 5.10718010008445
2  27 9 0 4.31759786068493 5.10718010008445
2  28 9 17 4.31759786068493 5.10718010008445
0

0101000
+41 0 -39 0 *
Wi

0101100
-40 0 -38 0 -37 0 *
Ve
1.50000007105427e-07
28.25 37 0
0 0

0101101
*
Ed
 1.50000007105427e-07 1 1 0
1  15 0 0 6.28318530717959
2  29 10 22 0 6.28318530717959
2  30 10 24 0 6.28318530717959
0

0101000
+35 22 -35 22 *
Wi

0101100
-34 21 *
Fa
0  1.5e-07 4 12

0101000
+43 0 +36 0 +33 0 *
Ed
 1e-07 1 1 0
1  16 0 0 50
2  31 6 11 0 50
2  32 5 8 0 50
0

0101000
+57 11 -50 11 *
Wi

0101100
-61 10 +54 14 -47 14 +31 10 *
Ve
1e-05
28.25 21 18
0 0

0101101
*
Ve
1.5e-07
23.75 18 18
0 0

0101101
*
Ed
 1.5e-07 1 1 0
1  12 0 6.28318530717959 10.6007831678645
2  23 7 0 6.28318530717959 10.6007831678645
2  24 7 17 6.28318530717959 10.6007831678645
0

0101000
+29 17 -28 17 *
Ve
1.5e-07
26.25 18 18
0 0

0101101
*
Ed
 1.5e-07 1 1 0
1  13 0 5.10718010008445 6.28318530717959
2  25 8 0 5.10718010008445 6.28318530717959
2  26 8 17 5.10718010008445 6.28318530717959
0

0101000
+26 17 -29 17 *
Ed
 1.5e-07 1 1 0
1  14 0 4.31759786068493 5.10718010008445
2  27 9 0 4.31759786068493 5.10718010008445
2  28 9 17 4.31759786068493 5.10718010008445
0

0101000
+28 17 -26 17 *
Wi

0101100
-27 16 -25 16 -24 16 *
Ve
1.50000007105427e-07
28.25 37 18
0 0

0101101
*
Ed
 1.50000007105427e-07 1 1 0
1  15 0 0 6.28318530717959
2  29 10 22 0 6.28318530717959
2  30 10 24 0 6.28318530717959
0

0101000
+22 24 -22 24 *
Wi

0101100
-21 25 *
Fa
0  1.5e-07 5 14

0101000
+30 0 +23 0 +20 0 *
Wi

0101100
+56 0 -49 0 -44 1 +31 10 *
Fa
0  1e-07 6 0

0101000
+18 0 *
Ed
 1e-05 1 1 0
1  17 0 0 18
2  33 7 0 0 18
2  34 8 0 0 18
4 C2 7 0 8 0
0

0101000
+42 0 -29 0 *
Ed
 1.5e-07 1 1 0
1  18 0 0 18
2  35 7 0 0 18
2  36 9 0 0 18
4 C2 7 0 9 0
0

0101000
+41 0 -28 0 *
Wi

0101100
+16 0 -15 0 -40 0 +27 16 *
Fa
0  1e-07 7 0

0101000
+14 0 *
Ed
 1.5e-07 1 1 0
1  19 0 0 18
2  37 9 0 0 18
2  38 8 0 0 18
4 C2 9 0 8 0
0

0101000
+39 0 -26 0 *
Wi

0101100
+12 0 -16 0 -38 0 +25 16 *
Fa
0  1.00000003552714e-07 8 0

0101000
+11 0 *
Wi

0101100
+15 0 -12 0 -37 0 +24 16 *
Fa
0  1.00000005024296e-07 9 0

0101000
+9 0 *
Ed
 1.50000007105427e-07 1 1 0
1  20 0 0 18
3  39 40CN 10 0 0 18
0

0101000
+35 0 -22 0 *
Wi

0101100
+7 0 -7 0 -34 21 +21 25 *
Fa
0  1.50000007105427e-07 10 0

0101000
+6 0 *
Sh

0101100
+59 0 -52 0 +45 0 -32 0 +19 0 -17 0 +13 0 +10 0 +8 0 +5 0 
*
So

0100000
+4 0 *
Co

0100000
+3 0 *
Co

1100000
+2 0 *

+1 0 