DBRep_DrawableShape

CASCADE Topology V1, (c) Matra-Datavision
Locations 16
1
              1               0               0               0 
              0               1               0               0 
              0               0               1              -1 
1
              1               0               0               0 
              0               1               0              10 
              0               0               1               0 
1
              1               0               0               0 
              0               1               0               0 
              0               0               1               0 
1
              1               0               0            -415 
              0               1               0           -1240 
              0               0               1           -1230 
1
              1               0               0               0 
              0               1               0               0 
              0               0               1             -18 
1
              1               0               0               0 
              0               1               0               0 
              0               0               1               1 
2  2 1 3 1 4 1 5 1 6 1 0
2  1 -1 0
2  2 1 3 1 4 1 0
2  4 -1 3 -1 2 -1 0
2  2 1 3 1 4 1 5 1 6 1 1 1 0
1
              1               0               0               0 
              0               1               0               0 
              0               0               1              -0 
2  12 -1 4 -1 3 -1 2 -1 0
1
              1               0               0               0 
              0               1               0               0 
              0               0               1               1 
2  14 -1 12 -1 4 -1 3 -1 2 -1 0
2  1 -1 6 -1 5 -1 4 -1 3 -1 2 -1 0
Curve2ds 41
1 0 0 0 1 
1 -360 -18 1 0 
1 0 0 1 0 
1 6 0 0 -1 
1 0 0 0 1 
8 -50 0
1 0 18 -1 0 
8 -50 0
1 360 0 0 -1 
2 25 21 1 0 -0 1 3.25
1 0 1 1 0 
1 0 0 1 0 
1 0 -1 1 0 
1 0 1 1 0 
2 25 21 1 0 -0 1 3.25
1 0 1 1 0 
1 0 0 1 0 
1 0 -1 1 0 
1 -6.2831853071795862 1 1 0 
8 -50 0
1 0 18 -1 0 
8 -50 0
1 360 0 0 -1 
1 50 0 0 1 
1 0 0 1 0 
8 0.40000000000009095 7.5999999999999091
1 359 23.75 1 0 
8 0.40000000000009095 7.5999999999999091
1 4.3175978606849279 0 0 1 
1 4.3175978606849279 0 0 1 
1 366 0 0 1 
1 0 18 1 0 
1 6 0 0 1 
1 0 0 1 0 
1 -360 -18 1 0 
1 0 50 1 0 
1 0 18 1 0 
1 366 0 0 1 
8 0.40000000000009095 7.5999999999999091
1 5.1071801000844514 0 0 1 
8 0.40000000000009095 7.5999999999999091
1 359 26.25 1 0 
1 -1.1760052070951348 0 0 1 
1 50 0 0 1 
1 6 0 0 -1 
1 0 7 1 0 
2 35 31 1 0 -0 1 3.25
1 -6.2831853071795862 7 1 0 
1 0 7 1 0 
Curves 19
1 0 0 1 0 1 0 
1 415 1248 870 0 0 1 
1 415 1230 1236 -0 1 0 
1 0 0 0 0 0 1 
1 415 1248 1230 -1 -0 0 
2 440 1251 1230 0 0 1 1 0 -0 -0 1 0 3.25
2 440 1251 1230 0 0 1 1 0 -0 -0 1 0 3.25
1 415 1248 1230 -1 -0 0 
1 50 0 1 0 1 0 
1 415 1230 1248 1 0 -0 
1 438.75 1248 1229 0 0 1 
1 415 1248 1236 1 0 -0 
1 50 0 0 0 0 1 
1 415 1230 1236 1 0 -0 
1 465 1248 870 0 0 1 
1 415 1248 1236 1 0 -0 
1 441.25 1248 1229 0 0 1 
1 465 1230 1236 -0 1 0 
2 25 21 6 0 0 1 1 0 -0 -0 1 0 3.25
Polygon3D 0
PolygonOnTriangulations 0
Surfaces 17
1 0 0 0 -1 0 0 0 1 0 0 0 -1 
1 415 1230 1248 0 0 1 1 0 -0 -0 1 0 
1 415 1230 1230 1 0 -0 0 0 1 0 -1 0 
1 415 1248 870 -0 1 0 0 0 1 1 0 -0 
1 415 1230 1236 0 0 1 1 0 -0 -0 1 0 
1 415 1230 1230 0 0 1 1 0 -0 -0 1 0 
2 440 1251 1229 0 0 1 1 0 -0 -0 1 0 3.25
2 25 21 0 -0 -0 -1 1 0 0 0 1 0 3.25
2 25 21 -1 0 0 1 1 0 0 0 1 0 3.25
2 25 21 0 -0 -0 -1 1 0 0 0 1 0 3.25
1 415 1248 870 -0 1 0 0 0 1 1 0 -0 
1 0 0 0 0 1 0 1 0 0 0 0 -1 
1 415 1230 1230 -0 1 0 0 0 1 1 0 -0 
1 465 1230 1230 1 0 -0 0 0 1 0 -1 0 
1 50 0 0 -1 0 0 0 1 0 0 0 -1 
1 25.014856104364881 10.211591660515055 6.0000000000000018 0 0 1 1 0 -0 -0 1 0 
1 -10 -10 6 0 0 1 1 0 -0 -0 1 0 
Triangulations 0

TShapes 52
Ve
1.5e-07
0 0 0
0 0

0101101
*
Ve
1.5e-07
0 18 0
0 0

0101101
*
Ed
 1.5e-07 1 1 0
1  1 0 0 18
2  1 2 7 0 18
0

0101000
+52 8 -51 8 *
Ve
1.5e-07
0 18 6
0 0

0101101
*
Ed
 1e-07 1 1 0
1  2 0 360 366
2  2 3 0 360 366
2  3 4 0 360 366
0

0101000
+51 10 -49 10 *
Ve
1.5e-07
0 0 6
0 0

0101101
*
Ed
 1.5e-07 1 1 0
1  3 0 0 18
2  4 3 0 0 18
2  5 5 0 0 18
0

0101000
+47 10 -49 10 *
Ed
 1.5e-07 1 1 0
1  4 0 0 6
0

0101000
+52 0 -47 0 *
Wi

0101100
-50 1 -48 9 +46 9 +45 0 *
Fa
0  1e-07 1 0

0101000
+44 0 *
Ve
1.5e-07
23.75 18 0
0 0

0101101
*
Ed
 1.5e-07 1 1 0
1  5 0 -23.75 0
2  6 6 0 -23.75 0
2  7 4 0 -23.75 0
0

0101000
+42 10 -51 10 *
Ve
1.5e-07
28.25 21 0
0 0

0101101
*
Ed
 1.5e-07 1 1 0
1  6 0 0 4.31759786068493
2  8 6 0 0 4.31759786068493
2  9 7 0 0 4.31759786068493
2  10 8 13 0 4.31759786068493
2  11 8 15 0 4.31759786068493
2  12 9 10 0 4.31759786068493
0

0101000
+40 10 -42 10 *
Ve
1.5e-07
26.25 18 0
0 0

0101101
*
Ed
 1.5e-07 1 1 0
1  7 0 5.10718010008445 6.28318530717959
2  13 6 0 5.10718010008445 6.28318530717959
2  14 7 0 5.10718010008445 6.28318530717959
2  15 10 13 5.10718010008445 6.28318530717959
2  16 10 15 5.10718010008445 6.28318530717959
2  17 9 10 5.10718010008445 6.28318530717959
0

0101000
+38 10 -40 10 *
Ve
1.5e-07
50 18 0
0 0

0101101
*
Ed
 1.5e-07 1 1 0
1  8 0 -50 -26.25
2  18 6 0 -50 -26.25
2  19 11 0 -50 -26.25
0

0101000
+36 10 -38 10 *
Ve
1.5e-07
50 0 0
0 0

0101101
*
Ed
 1.5e-07 1 1 0
1  9 0 0 18
2  20 2 7 0 18
0

0101000
+34 8 -36 8 *
Ed
 1.5e-07 1 1 0
1  10 0 0 50
2  21 2 0 0 50
0

0101000
+52 16 -34 16 *
Wi

0101100
-50 1 +41 9 +39 9 +37 9 +35 9 +33 1 +32 11 *
Fa
0  1.5e-07 2 11

0101000
+31 0 *
Ve
1.5e-07
23.75 18 6
0 0

0101101
*
Ed
 1e-07 1 1 0
1  11 0 1 7
2  22 4 0 1 7
2  23 7 0 1 7
2  24 9 10 1 7
0

0101000
+42 10 -29 10 *
Ed
 1.5e-07 1 1 0
1  12 0 0 23.75
2  25 4 0 0 23.75
2  26 5 0 0 23.75
0

0101000
+49 10 -29 10 *
Wi

0101100
-28 9 +27 9 +48 9 +41 9 *
Fa
0  1e-07 4 9

0101000
+26 0 *
Ve
1.5e-07
50 0 6
0 0

0101101
*
Ed
 1.5e-07 1 1 0
1  13 0 0 6
0

0101000
+34 0 -24 0 *
Ed
 1.5e-07 1 1 0
1  14 0 0 50
2  27 13 0 0 50
2  28 5 0 0 50
0

0101000
+47 10 -24 10 *
Wi

0101100
-32 11 -23 0 +22 9 +45 0 *
Fa
0  1.5e-07 12 0

0101000
+21 0 *
Ve
1.5e-07
50 18 6
0 0

0101101
*
Ed
 1e-07 1 1 0
1  15 0 360 366
2  29 14 0 360 366
2  30 11 0 360 366
0

0101000
+36 10 -19 10 *
Ve
1.5e-07
26.25 18 6
0 0

0101101
*
Ed
 1.5e-07 1 1 0
1  16 0 26.25 50
2  31 5 0 26.25 50
2  32 11 0 26.25 50
0

0101000
+17 10 -19 10 *
Ed
 1e-07 1 1 0
1  17 0 1 7
2  33 7 0 1 7
2  34 11 0 1 7
2  35 9 10 1 7
0

0101000
+38 10 -17 10 *
Wi

0101100
-18 9 +16 9 +15 9 +35 9 *
Fa
0  1e-07 11 9

0101000
+14 0 *
Ed
 1.5e-07 1 1 0
1  18 0 0 18
2  36 5 0 0 18
2  37 14 0 0 18
0

0101000
+24 10 -19 10 *
Wi

0101100
-33 1 -18 9 +12 9 +23 0 *
Fa
0  1e-07 15 0

0101000
+11 0 *
Ve
1.5e-07
28.25 21 6
0 0

0101101
*
Ed
 1.5e-07 1 1 0
1  19 0 5.10718010008445 6.28318530717959
2  38 7 9 5.10718010008445 6.28318530717959
2  39 17 0 5.10718010008445 6.28318530717959
2  40 9 0 5.10718010008445 6.28318530717959
0

0101000
+17 0 -9 0 *
Ed
 1.5e-07 1 1 0
1  19 0 0 4.31759786068493
2  38 7 9 0 4.31759786068493
2  39 17 0 0 4.31759786068493
2  41 9 0 0 4.31759786068493
0

0101000
+9 0 -29 0 *
Wi

0101100
-46 9 +22 9 +12 9 -16 9 +8 0 +7 0 -27 9 *
Fa
0  1.5e-07 16 0

0101000
+6 0 *
Wi

0101100
-8 0 -15 9 +37 9 +39 9 +28 9 -7 0 *
Fa
0  1e-07 9 0

0111000
+4 0 *
Sh

0101100
+43 0 -30 0 +25 0 -20 0 +13 0 -10 0 +5 0 +3 0 *
So

0100000
+2 0 *

+1 0 