DBRep_DrawableShape

CASCADE Topology V1, (c) Matra-Datavision
Locations 0
Curve2ds 0
Curves 3
2 25 21 0 0 -0 1 1 0 0 -0 1 0 3.25
2 25 21 0 0 -0 1 1 0 0 -0 1 0 3.25
2 25 21 0 0 -0 1 1 0 0 -0 1 0 3.25
Polygon3D 0
PolygonOnTriangulations 0
Surfaces 1
1 25.044664601241912 20.931294809193279 0 0 0 1 1 0 -0 -0 1 0 
Triangulations 0

TShapes 9
Ve
1e-05
28.25 21 0
0 0

0101101
*
Ve
1.5e-07
23.75 18 0
0 0

0101101
*
Ed
 1e-07 1 1 0
1  1 0 6.28318530717959 10.6007831678645
0

0101000
+9 0 -8 0 *
Ve
1.5e-07
26.25 18 0
0 0

0101101
*
Ed
 1.00000005024296e-07 1 1 0
1  2 0 4.31759786068493 5.10718010008445
0

0101000
+8 0 -6 0 *
Ed
 1.00000003552714e-07 1 1 0
1  3 0 5.10718010008445 6.28318530717959
0

0101000
+6 0 -9 0 *
Wi

0101100
-7 0 -5 0 -4 0 *
Fa
0  1e-07 1 0

0101000
-3 0 *
Sh

1101000
+2 0 *

+1 0 