DBRep_DrawableShape

CASCADE Topology V1, (c) Matra-Datavision
Locations 0
Curve2ds 0
Curves 4
1 12.5 41.750000000000227 -2.0683454948766666e-13 -1 1.1e-16 0 
2 25 45.000000000000227 -2.0683454948766666e-13 0 -0 1 1 -1.1e-16 -0 1.1e-16 1 0 3.25
1 12.5 48.250000000000227 -2.0683454948766666e-13 -1 1.1e-16 0 
2 55 45.000000000000227 -2.0683454948766666e-13 0 -0 1 1 -1.1e-16 -0 1.1e-16 1 0 3.25
Polygon3D 0
PolygonOnTriangulations 0
Surfaces 1
1 39.999999999999993 45.000000000000227 -2.0683454948766666e-13 0 0 1 1 0 -0 -0 1 0 
Triangulations 0

TShapes 11
Ve
1.50000027734029e-07
55 41.7500000000002 -2.2052730012471e-13
0 0

0101101
*
Ve
1.5000002794195e-07
25 41.7500000000002 -2.2052730012471e-13
0 0

0101101
*
Ed
 1.50000020539126e-07 1 1 0
1  1 0 -42.5 -12.5
0

0101000
+11 0 -10 0 *
Ve
1.5000002794195e-07
25 48.2500000000002 -2.2052730012471e-13
0 0

0101101
*
Ed
 1.50000021095575e-07 1 1 0
1  2 0 1.5707963267949 4.71238898038469
0

0101000
+8 0 -10 0 *
Ve
1.50000027734029e-07
55 48.2500000000002 -2.2052730012471e-13
0 0

0101101
*
Ed
 1.50000020539126e-07 1 1 0
1  3 0 -42.5 -12.5
0

0101000
+6 0 -8 0 *
Ed
 1.50000020887654e-07 1 1 0
1  4 0 4.71238898038469 7.85398163397448
0

0101000
+11 0 -6 0 *
Wi

0101100
+9 0 -7 0 -5 0 -4 0 *
Fa
0  1e-07 1 0

0101000
-3 0 *
Sh

1101000
+2 0 *

+1 0 