DBRep_DrawableShape

CASCADE Topology V1, (c) Matra-Datavision
Locations 13
1
              1               0               0               0 
              0               1               0              10 
              0               0               1               0 
1
              1               0               0               0 
              0 1.11022302462516e-16              -1               0 
              0               1 1.11022302462516e-16               0 
1
              1               0               0            -120 
              0               1               0            1179 
              0               0               1           -1228 
2  1 1 2 1 3 1 0
2  1 -1 0
1
              0               0               1            -834 
              0               1               0               0 
             -1               0               0            1154 
1
              0               0               1            -974 
              0               1               0               0 
             -1               0               0            1294 
1
              0               0               1            -554 
              0               1               0               0 
             -1               0               0            1434 
1
              0               0               1            -694 
              0               1               0               0 
             -1               0               0            1574 
2  1 -1 6 -1 0
2  1 -1 7 -1 0
2  1 -1 8 -1 0
2  1 -1 9 -1 0
Curve2ds 120
1 0 0 1 0 
1 0 0 1 0 
1 230 0 0 -1 
1 0 0 0 1 
1 0 -12 1 0 
1 0 0 1 0 
1 0 0 0 -1 
1 0 0 0 1 
1 0 0 0 1 
1 0 0 1 0 
1 0 360 1 0 
1 0 0 1 0 
1 230 0 0 1 
1 0 0 1 0 
2 45.000000000000114 55 1.1e-16 1 -1 1.1e-16 3.25
1 0 1 1 0 
8 -42.5 -12.5
1 48.250000000000114 12.5 -1.1e-16 -1 
8 -42.5 -12.5
1 -12.5 -1 -1 -0 
8 -42.5 -12.5
1 41.750000000000114 12.5 -1.1e-16 -1 
8 -42.5 -12.5
1 -12.5 -1 -1 -0 
2 45.000000000000114 25 1.1e-16 1 -1 1.1e-16 3.25
1 0 1 1 0 
2 185 55 1.1e-16 1 -1 1.1e-16 3.25
1 0 1 1 0 
8 -42.5 -12.5
1 188.25 12.5 -1.1e-16 -1 
8 -42.5 -12.5
1 -12.5 -1 -1 -0 
8 -42.5 -12.5
1 181.75 12.5 -1.1e-16 -1 
8 -42.5 -12.5
1 -12.5 -1 -1 -0 
2 185 25 1.1e-16 1 -1 1.1e-16 3.25
1 0 1 1 0 
2 45.000000000000114 335 1.1e-16 1 -1 1.1e-16 3.25
1 0 1 1 0 
8 -182.5 -152.5
1 48.250000000000114 152.5 -1.1e-16 -1 
8 -182.5 -152.5
1 -152.5 -1 -1 -0 
8 -182.5 -152.5
1 41.750000000000114 152.5 -1.1e-16 -1 
8 -182.5 -152.5
1 -152.5 -1 -1 -0 
2 45.000000000000114 305 1.1e-16 1 -1 1.1e-16 3.25
1 0 1 1 0 
2 185 335 1.1e-16 1 -1 1.1e-16 3.25
1 0 1 1 0 
8 -182.5 -152.5
1 181.75 152.5 -1.1e-16 -1 
8 -182.5 -152.5
1 -152.5 -1 -1 -0 
2 185 305 1.1e-16 1 -1 1.1e-16 3.25
1 0 1 1 0 
8 -182.5 -152.5
1 188.25 152.5 -1.1e-16 -1 
8 -182.5 -152.5
1 -152.5 -1 -1 -0 
1 0 12 1 0 
1 230 0 0 1 
1 360 0 0 1 
1 230 0 0 -1 
1 0 0 0 1 
1 0 12 1 0 
1 0 360 1 0 
1 0 -12 1 0 
2 45.000000000000114 55 1.1e-16 1 -1 1.1e-16 3.25
1 0 13 1 0 
8 -42.5 -12.5
1 48.250000000000114 12.5 -1.1e-16 -1 
8 -42.5 -12.5
1 -12.5 -13 -1 -0 
8 -42.5 -12.5
1 41.750000000000114 12.5 -1.1e-16 -1 
8 -42.5 -12.5
1 -12.5 -13 -1 -0 
2 45.000000000000114 25 1.1e-16 1 -1 1.1e-16 3.25
1 0 13 1 0 
2 185 55 1.1e-16 1 -1 1.1e-16 3.25
1 0 13 1 0 
8 -42.5 -12.5
1 188.25 12.5 -1.1e-16 -1 
8 -42.5 -12.5
1 -12.5 -13 -1 -0 
8 -42.5 -12.5
1 181.75 12.5 -1.1e-16 -1 
8 -42.5 -12.5
1 -12.5 -13 -1 -0 
2 185 25 1.1e-16 1 -1 1.1e-16 3.25
1 0 13 1 0 
2 45.000000000000114 335 1.1e-16 1 -1 1.1e-16 3.25
1 0 13 1 0 
8 -182.5 -152.5
1 48.250000000000114 152.5 -1.1e-16 -1 
8 -182.5 -152.5
1 -152.5 -13 -1 -0 
8 -182.5 -152.5
1 41.750000000000114 152.5 -1.1e-16 -1 
8 -182.5 -152.5
1 -152.5 -13 -1 -0 
2 45.000000000000114 305 1.1e-16 1 -1 1.1e-16 3.25
1 0 13 1 0 
2 185 335 1.1e-16 1 -1 1.1e-16 3.25
1 0 13 1 0 
8 -182.5 -152.5
1 181.75 152.5 -1.1e-16 -1 
8 -182.5 -152.5
1 -152.5 -13 -1 -0 
2 185 305 1.1e-16 1 -1 1.1e-16 3.25
1 0 13 1 0 
8 -182.5 -152.5
1 188.25 152.5 -1.1e-16 -1 
8 -182.5 -152.5
1 -152.5 -13 -1 -0 
1 360 0 0 1 
1 0 0 0 -1 
1 7.8539816339744828 0 0 1 
1 30 0 0 -1 
1 4.7123889803846897 0 0 1 
1 30 0 0 -1 
1 0 0 0 -1 
1 4.7123889803846897 0 0 1 
1 0 0 0 -1 
1 1.5707963267948966 0 0 1 
1 7.8539816339744828 0 0 1 
1 30 0 0 -1 
1 4.7123889803846897 0 0 1 
1 30 0 0 -1 
1 0 0 0 -1 
1 4.7123889803846897 0 0 1 
1 0 0 0 -1 
1 1.5707963267948966 0 0 1 
1 7.8539816339744828 0 0 1 
1 30 0 0 -1 
1 4.7123889803846897 0 0 1 
1 30 0 0 -1 
1 0 0 0 -1 
1 4.7123889803846897 0 0 1 
1 0 0 0 -1 
1 1.5707963267948966 0 0 1 
1 7.8539816339744828 0 0 1 
1 30 0 0 -1 
1 4.7123889803846897 0 0 1 
1 30 0 0 -1 
1 0 0 0 -1 
1 1.5707963267948966 0 0 1 
1 4.7123889803846897 0 0 1 
1 0 0 0 -1 
Curves 60
1 120 1218 949 0 0 1 
1 120 1218 1179 -0 1 0 
1 120 1230 949 0 0 1 
1 120 1218 949 -0 1 0 
1 120 1218 949 1 0 -0 
1 480 1218 949 0 0 1 
1 120 1218 1179 1 0 -0 
2 175 1218 994.00000000000011 0 1 0 1 -0 1.1e-16 1.1e-16 0 -1 3.25
1 132.5 1218 997.25000000000011 -1 0 -1.1e-16 
1 132.5 1218 990.75000000000011 -1 0 -1.1e-16 
2 145 1218 994.00000000000011 0 1 0 1 -0 1.1e-16 1.1e-16 0 -1 3.25
2 175 1218 1134 0 1 0 1 -0 1.1e-16 1.1e-16 0 -1 3.25
1 132.5 1218 1137.25 -1 0 -1.1e-16 
1 132.5 1218 1130.75 -1 0 -1.1e-16 
2 145 1218 1134 0 1 0 1 -0 1.1e-16 1.1e-16 0 -1 3.25
2 455 1218 994.00000000000011 0 1 0 1 -0 1.1e-16 1.1e-16 0 -1 3.25
1 272.5 1218 997.25000000000011 -1 0 -1.1e-16 
1 272.5 1218 990.75000000000011 -1 0 -1.1e-16 
2 425 1218 994.00000000000011 0 1 0 1 -0 1.1e-16 1.1e-16 0 -1 3.25
2 455 1218 1134 0 1 0 1 -0 1.1e-16 1.1e-16 0 -1 3.25
1 272.5 1218 1130.75 -1 0 -1.1e-16 
2 425 1218 1134 0 1 0 1 -0 1.1e-16 1.1e-16 0 -1 3.25
1 272.5 1218 1137.25 -1 0 -1.1e-16 
1 120 1230 1179 1 0 -0 
1 480 1218 1179 -0 1 0 
1 120 1230 949 1 0 -0 
1 480 1230 949 0 0 1 
2 175 1230 994.00000000000011 0 1 0 1 -0 1.1e-16 1.1e-16 0 -1 3.25
1 132.5 1230 997.25000000000011 -1 0 -1.1e-16 
1 132.5 1230 990.75000000000011 -1 0 -1.1e-16 
2 145 1230 994.00000000000011 0 1 0 1 -0 1.1e-16 1.1e-16 0 -1 3.25
2 175 1230 1134 0 1 0 1 -0 1.1e-16 1.1e-16 0 -1 3.25
1 132.5 1230 1137.25 -1 0 -1.1e-16 
1 132.5 1230 1130.75 -1 0 -1.1e-16 
2 145 1230 1134 0 1 0 1 -0 1.1e-16 1.1e-16 0 -1 3.25
2 455 1230 994.00000000000011 0 1 0 1 -0 1.1e-16 1.1e-16 0 -1 3.25
1 272.5 1230 997.25000000000011 -1 0 -1.1e-16 
1 272.5 1230 990.75000000000011 -1 0 -1.1e-16 
2 425 1230 994.00000000000011 0 1 0 1 -0 1.1e-16 1.1e-16 0 -1 3.25
2 455 1230 1134 0 1 0 1 -0 1.1e-16 1.1e-16 0 -1 3.25
1 272.5 1230 1130.75 -1 0 -1.1e-16 
2 425 1230 1134 0 1 0 1 -0 1.1e-16 1.1e-16 0 -1 3.25
1 272.5 1230 1137.25 -1 0 -1.1e-16 
1 480 1218 949 -0 1 0 
1 163.25 1217 1009 -0 1 0 
1 156.75 1217 1009 -0 1 0 
1 156.75 1217 979 -0 1 0 
1 163.25 1217 979 -0 1 0 
1 163.25 1217 1149 -0 1 0 
1 156.75 1217 1149 -0 1 0 
1 156.75 1217 1119 -0 1 0 
1 163.25 1217 1119 -0 1 0 
1 443.25 1217 1009 -0 1 0 
1 436.75 1217 1009 -0 1 0 
1 436.75 1217 979 -0 1 0 
1 443.25 1217 979 -0 1 0 
1 443.25 1217 1149 -0 1 0 
1 436.75 1217 1149 -0 1 0 
1 443.25 1217 1119 -0 1 0 
1 436.75 1217 1119 -0 1 0 
Polygon3D 0
PolygonOnTriangulations 0
Surfaces 22
1 120 1218 949 1 0 -0 0 0 1 0 -1 0 
1 120 1218 949 -0 1 0 0 0 1 1 0 -0 
1 120 1218 1179 0 0 1 1 0 -0 -0 1 0 
1 120 1230 949 -0 1 0 0 0 1 1 0 -0 
1 120 1218 949 0 0 1 1 0 -0 -0 1 0 
1 480 1218 949 1 0 -0 0 0 1 0 -1 0 
2 160 1217 1009 0 1 0 0 -0 1 1 0 -0 3.25
1 156.75 1217 979 1 0 -0 0 0 1 0 -1 0 
1 163.25 1217 979 1 0 -0 0 0 1 0 -1 0 
2 160 1217 979 0 1 0 0 -0 1 1 0 -0 3.25
2 160 1217 1149 0 1 0 0 -0 1 1 0 -0 3.25
1 156.75 1217 1119 1 0 -0 0 0 1 0 -1 0 
1 163.25 1217 1119 1 0 -0 0 0 1 0 -1 0 
2 160 1217 1119 0 1 0 0 -0 1 1 0 -0 3.25
2 440 1217 1009 0 1 0 0 -0 1 1 0 -0 3.25
1 436.75 1217 979 1 0 -0 0 0 1 0 -1 0 
1 443.25 1217 979 1 0 -0 0 0 1 0 -1 0 
2 440 1217 979 0 1 0 0 -0 1 1 0 -0 3.25
2 440 1217 1149 0 1 0 0 -0 1 1 0 -0 3.25
1 443.25 1217 1119 1 0 -0 0 0 1 0 -1 0 
2 440 1217 1119 0 1 0 0 -0 1 1 0 -0 3.25
1 436.75 1217 1119 1 0 -0 0 0 1 0 -1 0 
Triangulations 0

TShapes 155
Ve
1e-07
120 1228 1179
0 0

0101101
*
Ve
1e-07
120 1228 949
0 0

0101101
*
Ed
 1e-07 1 1 0
1  1 0 0 230
2  1 1 0 0 230
2  2 2 0 0 230
0

0101000
-155 5 +154 5 *
Ve
1e-07
120 1240 1179
0 0

0101101
*
Ed
 1e-07 1 1 0
1  2 0 0 12
2  3 1 0 0 12
2  4 3 0 0 12
0

0101000
-152 5 +155 5 *
Ve
1e-07
120 1240 949
0 0

0101101
*
Ed
 1e-07 1 1 0
1  3 0 0 230
2  5 1 0 0 230
2  6 4 0 0 230
0

0101000
-152 5 +150 5 *
Ed
 1e-07 1 1 0
1  4 0 0 12
2  7 1 0 0 12
2  8 5 0 0 12
0

0101000
-150 5 +154 5 *
Wi

0101100
-153 0 -151 0 +149 0 +148 0 *
Fa
0  1e-07 1 0

0111000
+147 0 *
Ve
1e-07
480 1228 949
0 0

0101101
*
Ed
 1e-07 1 1 0
1  5 0 0 360
2  9 2 0 0 360
2  10 5 0 0 360
0

0101000
-145 5 +154 5 *
Ve
1e-07
480 1228 1179
0 0

0101101
*
Ed
 1e-07 1 1 0
1  6 0 0 230
2  11 2 0 0 230
2  12 6 0 0 230
0

0101000
-143 5 +145 5 *
Ed
 1e-07 1 1 0
1  7 0 0 360
2  13 2 0 0 360
2  14 3 0 0 360
0

0101000
-143 5 +155 5 *
Wi

0101100
-144 0 -142 0 +153 0 +141 0 *
Ve
1.5e-07
175 1228 997.25
0 0

0101101
*
Ve
1.5e-07
175 1228 990.75
0 0

0101101
*
Ed
 1e-07 1 1 0
1  8 0 4.71238898038469 7.85398163397448
2  15 2 0 4.71238898038469 7.85398163397448
2  16 7 6 4.71238898038469 7.85398163397448
0

0101000
+139 5 -138 5 *
Ve
1.5e-07
145 1228 997.25
0 0

0101101
*
Ed
 1.5e-07 1 1 0
1  9 0 -42.5 -12.5
2  17 2 0 -42.5 -12.5
2  18 8 6 -42.5 -12.5
0

0101000
+139 5 -136 5 *
Ve
1.5e-07
145 1228 990.75
0 0

0101101
*
Ed
 1.5e-07 1 1 0
1  10 0 -42.5 -12.5
2  19 2 0 -42.5 -12.5
2  20 9 6 -42.5 -12.5
0

0101000
+138 5 -134 5 *
Ed
 1e-07 1 1 0
1  11 0 1.5707963267949 4.71238898038469
2  21 2 0 1.5707963267949 4.71238898038469
2  22 10 6 1.5707963267949 4.71238898038469
0

0101000
+134 5 -136 5 *
Wi

0101100
-137 0 +135 0 -133 0 -132 0 *
Ve
1.5e-07
175 1228 1137.25
0 0

0101101
*
Ve
1.5e-07
175 1228 1130.75
0 0

0101101
*
Ed
 1e-07 1 1 0
1  12 0 4.71238898038469 7.85398163397448
2  23 2 0 4.71238898038469 7.85398163397448
2  24 11 7 4.71238898038469 7.85398163397448
0

0101000
+130 5 -129 5 *
Ve
1.5e-07
145 1228 1137.25
0 0

0101101
*
Ed
 1.5e-07 1 1 0
1  13 0 -42.5 -12.5
2  25 2 0 -42.5 -12.5
2  26 12 7 -42.5 -12.5
0

0101000
+130 5 -127 5 *
Ve
1.5e-07
145 1228 1130.75
0 0

0101101
*
Ed
 1.5e-07 1 1 0
1  14 0 -42.5 -12.5
2  27 2 0 -42.5 -12.5
2  28 13 7 -42.5 -12.5
0

0101000
+129 5 -125 5 *
Ed
 1e-07 1 1 0
1  15 0 1.5707963267949 4.71238898038469
2  29 2 0 1.5707963267949 4.71238898038469
2  30 14 7 1.5707963267949 4.71238898038469
0

0101000
+125 5 -127 5 *
Wi

0101100
-128 0 +126 0 -124 0 -123 0 *
Ve
1.5e-07
455 1228 997.25
0 0

0101101
*
Ve
1.5e-07
455 1228 990.75
0 0

0101101
*
Ed
 1e-07 1 1 0
1  16 0 4.71238898038469 7.85398163397448
2  31 2 0 4.71238898038469 7.85398163397448
2  32 15 8 4.71238898038469 7.85398163397448
0

0101000
+121 5 -120 5 *
Ve
1.5e-07
425 1228 997.25
0 0

0101101
*
Ed
 1.5e-07 1 1 0
1  17 0 -182.5 -152.5
2  33 2 0 -182.5 -152.5
2  34 16 8 -182.5 -152.5
0

0101000
+121 5 -118 5 *
Ve
1.5e-07
425 1228 990.75
0 0

0101101
*
Ed
 1.5e-07 1 1 0
1  18 0 -182.5 -152.5
2  35 2 0 -182.5 -152.5
2  36 17 8 -182.5 -152.5
0

0101000
+120 5 -116 5 *
Ed
 1e-07 1 1 0
1  19 0 1.5707963267949 4.71238898038469
2  37 2 0 1.5707963267949 4.71238898038469
2  38 18 8 1.5707963267949 4.71238898038469
0

0101000
+116 5 -118 5 *
Wi

0101100
-119 0 +117 0 -115 0 -114 0 *
Ve
1.5e-07
455 1228 1137.25
0 0

0101101
*
Ve
1.5e-07
455 1228 1130.75
0 0

0101101
*
Ed
 1e-07 1 1 0
1  20 0 4.71238898038469 7.85398163397448
2  39 2 0 4.71238898038469 7.85398163397448
2  40 19 9 4.71238898038469 7.85398163397448
0

0101000
+112 5 -111 5 *
Ve
1.5e-07
425 1228 1130.75
0 0

0101101
*
Ed
 1.5e-07 1 1 0
1  21 0 -182.5 -152.5
2  41 2 0 -182.5 -152.5
2  42 20 9 -182.5 -152.5
0

0101000
+111 5 -109 5 *
Ve
1.5e-07
425 1228 1137.25
0 0

0101101
*
Ed
 1e-07 1 1 0
1  22 0 1.5707963267949 4.71238898038469
2  43 2 0 1.5707963267949 4.71238898038469
2  44 21 9 1.5707963267949 4.71238898038469
0

0101000
+109 5 -107 5 *
Ed
 1.5e-07 1 1 0
1  23 0 -182.5 -152.5
2  45 2 0 -182.5 -152.5
2  46 22 9 -182.5 -152.5
0

0101000
+112 5 -107 5 *
Wi

0101100
-110 0 -108 0 -106 0 +105 0 *
Fa
0  1e-07 2 0

0111000
+140 0 +131 0 +122 0 +113 0 +104 0 *
Ve
1e-07
480 1240 1179
0 0

0101101
*
Ed
 1e-07 1 1 0
1  24 0 0 360
2  47 3 0 0 360
2  48 4 0 0 360
0

0101000
-102 5 +152 5 *
Ed
 1e-07 1 1 0
1  25 0 0 12
2  49 3 0 0 12
2  50 6 0 0 12
0

0101000
-102 5 +143 5 *
Wi

0101100
-151 0 -101 0 +100 0 +141 0 *
Fa
0  1e-07 3 0

0111000
+99 0 *
Ve
1e-07
480 1240 949
0 0

0101101
*
Ed
 1e-07 1 1 0
1  26 0 0 360
2  51 4 0 0 360
2  52 5 0 0 360
0

0101000
-97 5 +150 5 *
Ed
 1e-07 1 1 0
1  27 0 0 230
2  53 4 0 0 230
2  54 6 0 0 230
0

0101000
-102 5 +97 5 *
Wi

0101100
-96 0 -95 0 +149 0 +101 0 *
Ve
1.5e-07
175 1240 997.25
0 0

0101101
*
Ve
1.5e-07
175 1240 990.75
0 0

0101101
*
Ed
 1e-07 1 1 0
1  28 0 4.71238898038469 7.85398163397448
2  55 4 0 4.71238898038469 7.85398163397448
2  56 7 6 4.71238898038469 7.85398163397448
0

0101000
+93 5 -92 5 *
Ve
1.5e-07
145 1240 997.25
0 0

0101101
*
Ed
 1.5e-07 1 1 0
1  29 0 -42.5 -12.5
2  57 4 0 -42.5 -12.5
2  58 8 6 -42.5 -12.5
0

0101000
+93 5 -90 5 *
Ve
1.5e-07
145 1240 990.75
0 0

0101101
*
Ed
 1.5e-07 1 1 0
1  30 0 -42.5 -12.5
2  59 4 0 -42.5 -12.5
2  60 9 6 -42.5 -12.5
0

0101000
+92 5 -88 5 *
Ed
 1e-07 1 1 0
1  31 0 1.5707963267949 4.71238898038469
2  61 4 0 1.5707963267949 4.71238898038469
2  62 10 6 1.5707963267949 4.71238898038469
0

0101000
+88 5 -90 5 *
Wi

0101100
-91 0 +89 0 -87 0 -86 0 *
Ve
1.5e-07
175 1240 1137.25
0 0

0101101
*
Ve
1.5e-07
175 1240 1130.75
0 0

0101101
*
Ed
 1e-07 1 1 0
1  32 0 4.71238898038469 7.85398163397448
2  63 4 0 4.71238898038469 7.85398163397448
2  64 11 7 4.71238898038469 7.85398163397448
0

0101000
+84 5 -83 5 *
Ve
1.5e-07
145 1240 1137.25
0 0

0101101
*
Ed
 1.5e-07 1 1 0
1  33 0 -42.5 -12.5
2  65 4 0 -42.5 -12.5
2  66 12 7 -42.5 -12.5
0

0101000
+84 5 -81 5 *
Ve
1.5e-07
145 1240 1130.75
0 0

0101101
*
Ed
 1.5e-07 1 1 0
1  34 0 -42.5 -12.5
2  67 4 0 -42.5 -12.5
2  68 13 7 -42.5 -12.5
0

0101000
+83 5 -79 5 *
Ed
 1e-07 1 1 0
1  35 0 1.5707963267949 4.71238898038469
2  69 4 0 1.5707963267949 4.71238898038469
2  70 14 7 1.5707963267949 4.71238898038469
0

0101000
+79 5 -81 5 *
Wi

0101100
-82 0 +80 0 -78 0 -77 0 *
Ve
1.5e-07
455 1240 997.25
0 0

0101101
*
Ve
1.5e-07
455 1240 990.75
0 0

0101101
*
Ed
 1e-07 1 1 0
1  36 0 4.71238898038469 7.85398163397448
2  71 4 0 4.71238898038469 7.85398163397448
2  72 15 8 4.71238898038469 7.85398163397448
0

0101000
+75 5 -74 5 *
Ve
1.5e-07
425 1240 997.25
0 0

0101101
*
Ed
 1.5e-07 1 1 0
1  37 0 -182.5 -152.5
2  73 4 0 -182.5 -152.5
2  74 16 8 -182.5 -152.5
0

0101000
+75 5 -72 5 *
Ve
1.5e-07
425 1240 990.75
0 0

0101101
*
Ed
 1.5e-07 1 1 0
1  38 0 -182.5 -152.5
2  75 4 0 -182.5 -152.5
2  76 17 8 -182.5 -152.5
0

0101000
+74 5 -70 5 *
Ed
 1e-07 1 1 0
1  39 0 1.5707963267949 4.71238898038469
2  77 4 0 1.5707963267949 4.71238898038469
2  78 18 8 1.5707963267949 4.71238898038469
0

0101000
+70 5 -72 5 *
Wi

0101100
-73 0 +71 0 -69 0 -68 0 *
Ve
1.5e-07
455 1240 1137.25
0 0

0101101
*
Ve
1.5e-07
455 1240 1130.75
0 0

0101101
*
Ed
 1e-07 1 1 0
1  40 0 4.71238898038469 7.85398163397448
2  79 4 0 4.71238898038469 7.85398163397448
2  80 19 9 4.71238898038469 7.85398163397448
0

0101000
+66 5 -65 5 *
Ve
1.5e-07
425 1240 1130.75
0 0

0101101
*
Ed
 1.5e-07 1 1 0
1  41 0 -182.5 -152.5
2  81 4 0 -182.5 -152.5
2  82 20 9 -182.5 -152.5
0

0101000
+65 5 -63 5 *
Ve
1.5e-07
425 1240 1137.25
0 0

0101101
*
Ed
 1e-07 1 1 0
1  42 0 1.5707963267949 4.71238898038469
2  83 4 0 1.5707963267949 4.71238898038469
2  84 21 9 1.5707963267949 4.71238898038469
0

0101000
+63 5 -61 5 *
Ed
 1.5e-07 1 1 0
1  43 0 -182.5 -152.5
2  85 4 0 -182.5 -152.5
2  86 22 9 -182.5 -152.5
0

0101000
+66 5 -61 5 *
Wi

0101100
-64 0 -62 0 -60 0 +59 0 *
Fa
0  1e-07 4 0

0111000
+94 0 +85 0 +76 0 +67 0 +58 0 *
Ed
 1e-07 1 1 0
1  44 0 0 12
2  87 5 0 0 12
2  88 6 0 0 12
0

0101000
-97 5 +145 5 *
Wi

0101100
-148 0 -96 0 +56 0 +144 0 *
Fa
0  1e-07 5 0

0111000
+55 0 *
Wi

0101100
-142 0 -100 0 +95 0 +56 0 *
Fa
0  1e-07 6 0

0111000
+53 0 *
Ed
 1e-07 1 1 0
1  45 0 1 13
2  89 7 0 1 13
2  90 9 0 1 13
0

0101000
+138 10 -92 10 *
Ed
 1e-07 1 1 0
1  46 0 1 13
2  91 7 0 1 13
2  92 8 0 1 13
0

0101000
+139 10 -93 10 *
Wi

0101100
-91 0 +51 6 +137 0 -50 6 *
Fa
0  1e-07 7 6

0111000
+49 0 *
Ed
 1e-07 1 1 0
1  47 0 1 13
2  93 8 0 1 13
2  94 10 0 1 13
0

0101000
+136 10 -90 10 *
Wi

0101100
+135 0 -50 6 -89 0 +47 6 *
Fa
0  1e-07 8 6

0111000
+46 0 *
Ed
 1e-07 1 1 0
1  48 0 1 13
2  95 9 0 1 13
2  96 10 0 1 13
0

0101000
+134 10 -88 10 *
Wi

0101100
+133 0 -51 6 -87 0 +44 6 *
Fa
0  1e-07 9 6

0111000
+43 0 *
Wi

0101100
-86 0 +47 6 +132 0 -44 6 *
Fa
0  1e-07 10 6

0111000
+41 0 *
Ed
 1e-07 1 1 0
1  49 0 1 13
2  97 11 0 1 13
2  98 13 0 1 13
0

0101000
+129 11 -83 11 *
Ed
 1e-07 1 1 0
1  50 0 1 13
2  99 11 0 1 13
2  100 12 0 1 13
0

0101000
+130 11 -84 11 *
Wi

0101100
-82 0 +39 7 +128 0 -38 7 *
Fa
0  1e-07 11 7

0111000
+37 0 *
Ed
 1e-07 1 1 0
1  51 0 1 13
2  101 12 0 1 13
2  102 14 0 1 13
0

0101000
+127 11 -81 11 *
Wi

0101100
+126 0 -38 7 -80 0 +35 7 *
Fa
0  1e-07 12 7

0111000
+34 0 *
Ed
 1e-07 1 1 0
1  52 0 1 13
2  103 13 0 1 13
2  104 14 0 1 13
0

0101000
+125 11 -79 11 *
Wi

0101100
+124 0 -39 7 -78 0 +32 7 *
Fa
0  1e-07 13 7

0111000
+31 0 *
Wi

0101100
-77 0 +35 7 +123 0 -32 7 *
Fa
0  1e-07 14 7

0111000
+29 0 *
Ed
 1e-07 1 1 0
1  53 0 1 13
2  105 15 0 1 13
2  106 17 0 1 13
0

0101000
+120 12 -74 12 *
Ed
 1e-07 1 1 0
1  54 0 1 13
2  107 15 0 1 13
2  108 16 0 1 13
0

0101000
+121 12 -75 12 *
Wi

0101100
-73 0 +27 8 +119 0 -26 8 *
Fa
0  1e-07 15 8

0111000
+25 0 *
Ed
 1e-07 1 1 0
1  55 0 1 13
2  109 16 0 1 13
2  110 18 0 1 13
0

0101000
+118 12 -72 12 *
Wi

0101100
+117 0 -26 8 -71 0 +23 8 *
Fa
0  1e-07 16 8

0111000
+22 0 *
Ed
 1e-07 1 1 0
1  56 0 1 13
2  111 17 0 1 13
2  112 18 0 1 13
0

0101000
+116 12 -70 12 *
Wi

0101100
+115 0 -27 8 -69 0 +20 8 *
Fa
0  1e-07 17 8

0111000
+19 0 *
Wi

0101100
-68 0 +23 8 +114 0 -20 8 *
Fa
0  1e-07 18 8

0111000
+17 0 *
Ed
 1e-07 1 1 0
1  57 0 1 13
2  113 19 0 1 13
2  114 20 0 1 13
0

0101000
+111 13 -65 13 *
Ed
 1e-07 1 1 0
1  58 0 1 13
2  115 19 0 1 13
2  116 22 0 1 13
0

0101000
+112 13 -66 13 *
Wi

0101100
-64 0 +15 9 +110 0 -14 9 *
Fa
0  1e-07 19 9

0111000
+13 0 *
Ed
 1e-07 1 1 0
1  59 0 1 13
2  117 20 0 1 13
2  118 21 0 1 13
0

0101000
+109 13 -63 13 *
Wi

0101100
+108 0 -15 9 -62 0 +11 9 *
Fa
0  1e-07 20 9

0111000
+10 0 *
Ed
 1e-07 1 1 0
1  60 0 1 13
2  119 21 0 1 13
2  120 22 0 1 13
0

0101000
+107 13 -61 13 *
Wi

0101100
-60 0 +8 9 +106 0 -11 9 *
Fa
0  1e-07 21 9

0111000
+7 0 *
Wi

0101100
+105 0 -14 9 -59 0 +8 9 *
Fa
0  1e-07 22 9

0111000
+5 0 *
Sh

0101100
-146 0 -103 0 +98 0 +57 0 -54 0 +52 0 -48 0 +45 0 -42 0 -40 0 
-36 0 +33 0 -30 0 -28 0 -24 0 +21 0 -18 0 -16 0 -12 0 -9 0 
-6 0 +4 0 *
So

0100000
+3 0 *
Co

1100000
+2 0 *

+1 4 