DBRep_DrawableShape

CASCADE Topology V1, (c) Matra-Datavision
Locations 0
Curve2ds 0
Curves 4
1 152.5 181.75 4.9960036108132202e-15 -1 1.1e-16 0 
2 305 185 4.9960036108132202e-15 0 -0 1 1 -1.1e-16 -0 1.1e-16 1 0 3.25
1 152.5 188.25 4.9960036108132202e-15 -1 1.1e-16 0 
2 335 185 4.9960036108132202e-15 0 -0 1 1 -1.1e-16 -0 1.1e-16 1 0 3.25
Polygon3D 0
PolygonOnTriangulations 0
Surfaces 1
1 319.99999999999994 184.99999999999994 4.9960036108132202e-15 0 0 1 1 0 -0 -0 1 0 
Triangulations 0

TShapes 11
Ve
1.50000310174766e-07
335 181.75 -1.4991711575855e-13
0 0

0101101
*
Ve
1.50000316768598e-07
305 181.75 -1.4991711575855e-13
0 0

0101101
*
Ed
 1.50000232369679e-07 1 1 0
1  1 0 -182.5 -152.5
0

0101000
+11 0 -10 0 *
Ve
1.50000316768598e-07
305 188.25 -1.4991711575855e-13
0 0

0101101
*
Ed
 1.50000239312038e-07 1 1 0
1  2 0 1.5707963267949 4.71238898038469
0

0101000
+8 0 -10 0 *
Ve
1.50000310174766e-07
335 188.25 -1.4991711575855e-13
0 0

0101101
*
Ed
 1.50000232369679e-07 1 1 0
1  3 0 -182.5 -152.5
0

0101000
+6 0 -8 0 *
Ed
 1.50000232718207e-07 1 1 0
1  4 0 4.71238898038469 7.85398163397448
0

0101000
+11 0 -6 0 *
Wi

0101100
+9 0 -7 0 -5 0 -4 0 *
Fa
0  1e-07 1 0

0101000
-3 0 *
Sh

1101000
+2 0 *

+1 0 