DBRep_DrawableShape

CASCADE Topology V1, (c) Matra-Datavision
Locations 19
1
              1               0               0               0 
              0               1               0              10 
              0               0               1               0 
1
              1               0               0               0 
              0 1.11022302462516e-16              -1               0 
              0               1 1.11022302462516e-16               0 
1
              1               0               0            -120 
              0               1               0            1179 
              0               0               1           -1228 
1
              1               0               0               0 
              0               1               0               0 
              0               0               1 2.27373675443232e-13 
1
              1               0               0               0 
              0               1               0               0 
              0               0               1               1 
1
              1               0               0               0 
              0               1               0               0 
              0               0               1              -1 
2  1 1 2 1 3 1 4 1 5 1 6 1 0
2  6 -1 5 -1 4 -1 3 -1 2 -1 1 -1 0
1
              1               0               0               0 
              0               1               0               0 
              0               0               1              12 
2  1 1 2 1 3 1 4 1 5 1 6 1 9 1 0
2  9 -1 6 -1 5 -1 4 -1 3 -1 2 -1 1 -1 0
1
              1               0               0               0 
              0               1               0               0 
              0               0               1              12 
2  12 -1 0
1
              1               0               0               0 
              0               1               0               0 
              0               0               1              12 
2  14 -1 0
1
              1               0               0               0 
              0               1               0               0 
              0               0               1              12 
2  16 -1 0
1
              1               0               0               0 
              0               1               0               0 
              0               0               1              12 
2  18 -1 0
Curve2ds 56
1 0 0 0 -1 
1 0 0 1.1102230246251565e-16 -1 
1 360 0 0 -1 
1 0 0 1.1102230246251565e-16 -1 
1 0 0 1 0 
1 0 0 0 1 
1 0 -12 1 0 
1 0 0 0 1 
1 229.99999999999989 -2.0183854587685346e-13 1.1102230246251565e-16 -1 
1 0 0 0 -1 
1 0 0 1 0 
1 0 0 1 0 
1 1.3322676295501878e-15 -12 1 0 
1 0 0 1 0 
1 229.99999999999989 -2.0183854587685346e-13 1.1102230246251565e-16 -1 
1 360 0 0 -1 
1 0 0 1 0 
1 0 360 1 0 
1 1.3322676295501878e-15 -12 1 0 
1 0 360 1 0 
1 0 0 1 0 
1 230 0 0 1 
1 0 0 1 0 
1 0 -12 1 0 
1 0 0 1 0 
1 0 -12 1 0 
1 0 0 1 0 
1 0 -12 1 0 
1 0 0 1 0 
1 0 -12 1 0 
1 0 0 1 0 
1 0 -12 1 0 
1 0 0 1 0 
1 0 -12 1 0 
1 0 0 1 0 
1 0 -12 1 0 
1 0 0 1 0 
1 0 -12 1 0 
1 0 -12 1 0 
1 230 0 0 1 
1 4.7123889803846897 0 0 -1 
1 7.8539816339744828 0 0 -1 
1 4.7123889803846897 0 0 -1 
1 1.5707963267948966 0 0 -1 
1 4.7123889803846897 0 0 -1 
1 7.8539816339744828 0 0 -1 
1 4.7123889803846897 0 0 -1 
1 1.5707963267948966 0 0 -1 
1 4.7123889803846897 0 0 -1 
1 7.8539816339744828 0 0 -1 
1 4.7123889803846897 0 0 -1 
1 1.5707963267948966 0 0 -1 
1 4.7123889803846897 0 0 -1 
1 7.8539816339744828 0 0 -1 
1 1.5707963267948966 0 0 -1 
1 4.7123889803846897 0 0 -1 
Curves 44
1 0 230.00000000000011 0 0 0 1 
1 360 230.00000000000011 0 0 0 1 
1 120 1218 949 1 0 -0 
1 120 1218 949 1 0 -0 
1 0 2.2737367544323206e-13 2.2737367544323206e-13 0 0 1 
1 120 1218 949 0 0 1 
1 120 1218 949 0 0 1 
1 360 2.2737367544323206e-13 2.2737367544323206e-13 0 0 1 
1 480 1218 949 0 0 1 
1 480 1218 949 0 0 1 
1 120 1218 1179 1 0 -0 
2 55 185 4.9960036108132171e-15 0 -0 1 1 -1.1e-16 -0 1.1e-16 1 0 3.25
1 12.5 181.75 4.9960036108132171e-15 -1 1.1e-16 0 
1 12.5 188.25 4.9960036108132171e-15 -1 1.1e-16 0 
2 25 185 4.9960036108132171e-15 0 -0 1 1 -1.1e-16 -0 1.1e-16 1 0 3.25
2 55 45.000000000000227 -2.0683454948766666e-13 0 -0 1 1 -1.1e-16 -0 1.1e-16 1 0 3.25
1 12.5 41.750000000000227 -2.0683454948766666e-13 -1 1.1e-16 0 
1 12.5 48.250000000000227 -2.0683454948766666e-13 -1 1.1e-16 0 
2 25 45.000000000000227 -2.0683454948766666e-13 0 -0 1 1 -1.1e-16 -0 1.1e-16 1 0 3.25
2 335 185 4.9960036108132202e-15 0 -0 1 1 -1.1e-16 -0 1.1e-16 1 0 3.25
1 152.5 181.75 4.9960036108132202e-15 -1 1.1e-16 0 
1 152.5 188.25 4.9960036108132202e-15 -1 1.1e-16 0 
2 305 185 4.9960036108132202e-15 0 -0 1 1 -1.1e-16 -0 1.1e-16 1 0 3.25
2 335 45.000000000000227 -2.0683454948766661e-13 0 -0 1 1 -1.1e-16 -0 1.1e-16 1 0 3.25
1 152.5 48.250000000000227 -2.0683454948766661e-13 -1 1.1e-16 0 
2 305 45.000000000000227 -2.0683454948766661e-13 0 -0 1 1 -1.1e-16 -0 1.1e-16 1 0 3.25
1 152.5 41.750000000000227 -2.0683454948766661e-13 -1 1.1e-16 0 
1 120 1218 1179 1 0 -0 
1 55 181.75 -1.499171157585503e-13 0 0 1 
1 55 188.25 -1.499171157585503e-13 0 0 1 
1 25 181.75 -1.499171157585503e-13 0 0 1 
1 25 188.25 -1.499171157585503e-13 0 0 1 
1 55 41.750000000000227 -2.2052730012471025e-13 0 0 1 
1 55 48.250000000000227 -2.2052730012471025e-13 0 0 1 
1 25 41.750000000000227 -2.2052730012471025e-13 0 0 1 
1 25 48.250000000000227 -2.2052730012471025e-13 0 0 1 
1 335 181.75 -1.499171157585503e-13 0 0 1 
1 335 188.25 -1.499171157585503e-13 0 0 1 
1 305 181.75 -1.499171157585503e-13 0 0 1 
1 305 188.25 -1.499171157585503e-13 0 0 1 
1 335 41.75000000000022 -2.2052730012471025e-13 0 0 1 
1 335 48.25000000000022 -2.2052730012471025e-13 0 0 1 
1 305 48.250000000000227 -2.2052730012471025e-13 0 0 1 
1 305 41.75000000000022 -2.2052730012471025e-13 0 0 1 
Polygon3D 0
PolygonOnTriangulations 0
Surfaces 22
1 0 230.00000000000011 0 0 1 0 1 0 0 0 0 -1 
1 0 230.00000000000011 0 1 0 -0 0 -1 1.1102230246251565e-16 0 -1.1102230246251565e-16 -1 
1 360 230.00000000000011 0 1 0 -0 0 -1 1.1102230246251565e-16 0 -1.1102230246251565e-16 -1 
1 120 1218 949 -0 1 0 0 0 1 1 0 -0 
1 120 1218 949 -0 1 0 0 0 1 1 0 -0 
1 0 2.2737367544323206e-13 2.2737367544323206e-13 0 1 0 1 0 0 0 0 -1 
2 55 185 4.9960036108132171e-15 -0 0 -1 1 -1.1e-16 -0 1.1e-16 1 0 3.25
2 25 185 4.9960036108132171e-15 -0 0 -1 1 -1.1e-16 -0 1.1e-16 1 0 3.25
2 55 45.000000000000227 -2.0683454948766666e-13 -0 0 -1 1 -1.1e-16 -0 1.1e-16 1 0 3.25
2 25 45.000000000000227 -2.0683454948766666e-13 -0 0 -1 1 -1.1e-16 -0 1.1e-16 1 0 3.25
2 335 185 4.9960036108132202e-15 -0 0 -1 1 -1.1e-16 -0 1.1e-16 1 0 3.25
2 305 185 4.9960036108132202e-15 -0 0 -1 1 -1.1e-16 -0 1.1e-16 1 0 3.25
2 335 45.000000000000227 -2.0683454948766661e-13 -0 0 -1 1 -1.1e-16 -0 1.1e-16 1 0 3.25
2 305 45.000000000000227 -2.0683454948766661e-13 -0 0 -1 1 -1.1e-16 -0 1.1e-16 1 0 3.25
1 55 181.75 4.9960036108132171e-15 -1.1e-16 -1 0 -1 1.1e-16 0 -0 0 -1 
1 55 188.25 4.9960036108132171e-15 -1.1e-16 -1 0 -1 1.1e-16 0 -0 0 -1 
1 55 41.75000000000022 -2.0683454948766666e-13 -1.1e-16 -1 0 -1 1.1e-16 0 -0 0 -1 
1 55 48.25000000000022 -2.0683454948766666e-13 -1.1e-16 -1 0 -1 1.1e-16 0 -0 0 -1 
1 335 181.74999999999997 4.9960036108132202e-15 -1.1e-16 -1 0 -1 1.1e-16 0 -0 0 -1 
1 335 188.24999999999997 4.9960036108132202e-15 -1.1e-16 -1 0 -1 1.1e-16 0 -0 0 -1 
1 335 41.750000000000206 -2.0683454948766661e-13 -1.1e-16 -1 0 -1 1.1e-16 0 -0 0 -1 
1 335 48.250000000000206 -2.0683454948766661e-13 -1.1e-16 -1 0 -1 1.1e-16 0 -0 0 -1 
Triangulations 0

TShapes 158
Ve
1e-07
0 230 0
0 0

0101101
*
Ve
1e-07
0 230 12
0 0

0101101
*
Ed
 1e-07 1 1 0
1  1 0 0 12
2  1 1 0 0 12
2  2 2 0 0 12
0

0101000
+158 0 -157 0 *
Ve
1e-07
360 230 0
0 0

0101101
*
Ve
1e-07
360 230 12
0 0

0101101
*
Ed
 1e-07 1 1 0
1  2 0 0 12
2  3 1 0 0 12
2  4 3 0 0 12
0

0101000
+155 0 -154 0 *
Ed
 1e-07 1 1 0
1  3 0 0 360
2  5 1 8 0 360
2  6 4 0 0 360
0

0101000
+158 8 -155 8 *
Ed
 1e-07 1 1 0
1  4 0 0 360
2  7 1 11 0 360
2  8 5 0 0 360
0

0101000
+157 11 -154 11 *
Wi

0101100
+156 0 -153 0 -152 7 +151 10 *
Fa
0  1e-07 1 0

0101000
+150 0 *
Ve
1e-07
0 2.27373675443232e-13 2.27373675443232e-13
0 0

0101101
*
Ve
1e-07
0 2.27373675443232e-13 12.0000000000002
0 0

0101101
*
Ed
 1e-07 1 1 0
1  5 0 0 12
2  9 2 0 0 12
2  10 6 0 0 12
0

0101000
+148 0 -147 0 *
Ed
 1e-07 1 1 0
1  6 0 0 230
2  11 2 8 0 230
2  12 4 0 0 230
0

0101000
+158 8 -148 8 *
Ed
 1e-07 1 1 0
1  7 0 0 230
2  13 2 11 0 230
2  14 5 0 0 230
0

0101000
+157 11 -147 11 *
Wi

0101100
+156 0 -146 0 -145 7 +144 10 *
Fa
0  1e-07 2 0

0101000
+143 0 *
Ve
1e-07
360 2.27373675443232e-13 2.27373675443232e-13
0 0

0101101
*
Ve
1e-07
360 2.27373675443232e-13 12.0000000000002
0 0

0101101
*
Ed
 1e-07 1 1 0
1  8 0 0 12
2  15 3 0 0 12
2  16 6 0 0 12
0

0101000
+141 0 -140 0 *
Ed
 1e-07 1 1 0
1  9 0 0 230
2  17 3 8 0 230
2  18 4 0 0 230
0

0101000
+155 8 -141 8 *
Ed
 1e-07 1 1 0
1  10 0 0 230
2  19 3 11 0 230
2  20 5 0 0 230
0

0101000
+154 11 -140 11 *
Wi

0101100
+153 0 -139 0 -138 7 +137 10 *
Fa
0  1e-07 3 0

0101000
+136 0 *
Ed
 1e-07 1 1 0
1  11 0 0 360
2  21 6 8 0 360
2  22 4 0 0 360
0

0101000
+148 8 -141 8 *
Wi

0101100
-152 7 +145 7 -138 7 +134 7 *
Ve
1.50000310174766e-07
55 181.75 -1.4991711575855e-13
0 0

0101101
*
Ve
1.50000310174766e-07
55 188.25 -1.4991711575855e-13
0 0

0101101
*
Ed
 1.50000232718207e-07 1 1 0
1  12 0 4.71238898038469 7.85398163397448
2  23 7 0 4.71238898038469 7.85398163397448
2  24 7 13 4.71238898038469 7.85398163397448
0

0101000
+132 0 -131 0 *
Ve
1.50000310174766e-07
25 181.75 -1.4991711575855e-13
0 0

0101101
*
Ed
 1.50000232369679e-07 1 1 0
1  13 0 -42.5 -12.5
0

0101000
+132 0 -129 0 *
Ve
1.50000310174766e-07
25 188.25 -1.4991711575855e-13
0 0

0101101
*
Ed
 1.50000232369679e-07 1 1 0
1  14 0 -42.5 -12.5
0

0101000
+131 0 -127 0 *
Ed
 1.50000232718207e-07 1 1 0
1  15 0 1.5707963267949 4.71238898038469
2  25 8 0 1.5707963267949 4.71238898038469
2  26 8 13 1.5707963267949 4.71238898038469
0

0101000
+127 0 -129 0 *
Wi

0101100
-130 0 +128 0 -126 0 -125 0 *
Ve
1.50000027734029e-07
55 41.7500000000002 -2.2052730012471e-13
0 0

0101101
*
Ve
1.50000027734029e-07
55 48.2500000000002 -2.2052730012471e-13
0 0

0101101
*
Ed
 1.50000020887654e-07 1 1 0
1  16 0 4.71238898038469 7.85398163397448
2  27 9 0 4.71238898038469 7.85398163397448
2  28 9 15 4.71238898038469 7.85398163397448
0

0101000
+123 0 -122 0 *
Ve
1.5000002794195e-07
25 41.7500000000002 -2.2052730012471e-13
0 0

0101101
*
Ed
 1.50000020539126e-07 1 1 0
1  17 0 -42.5 -12.5
0

0101000
+123 0 -120 0 *
Ve
1.5000002794195e-07
25 48.2500000000002 -2.2052730012471e-13
0 0

0101101
*
Ed
 1.50000020539126e-07 1 1 0
1  18 0 -42.5 -12.5
0

0101000
+122 0 -118 0 *
Ed
 1.50000021095575e-07 1 1 0
1  19 0 1.5707963267949 4.71238898038469
2  29 10 0 1.5707963267949 4.71238898038469
2  30 10 15 1.5707963267949 4.71238898038469
0

0101000
+118 0 -120 0 *
Wi

0101100
-121 0 +119 0 -117 0 -116 0 *
Ve
1.50000310174766e-07
335 181.75 -1.4991711575855e-13
0 0

0101101
*
Ve
1.50000310174766e-07
335 188.25 -1.4991711575855e-13
0 0

0101101
*
Ed
 1.50000232718207e-07 1 1 0
1  20 0 4.71238898038469 7.85398163397448
2  31 11 0 4.71238898038469 7.85398163397448
2  32 11 17 4.71238898038469 7.85398163397448
0

0101000
+114 0 -113 0 *
Ve
1.50000316768598e-07
305 181.75 -1.4991711575855e-13
0 0

0101101
*
Ed
 1.50000232369679e-07 1 1 0
1  21 0 -182.5 -152.5
0

0101000
+114 0 -111 0 *
Ve
1.50000316768598e-07
305 188.25 -1.4991711575855e-13
0 0

0101101
*
Ed
 1.50000232369679e-07 1 1 0
1  22 0 -182.5 -152.5
0

0101000
+113 0 -109 0 *
Ed
 1.50000239312038e-07 1 1 0
1  23 0 1.5707963267949 4.71238898038469
2  33 12 0 1.5707963267949 4.71238898038469
2  34 12 17 1.5707963267949 4.71238898038469
0

0101000
+109 0 -111 0 *
Wi

0101100
-112 0 +110 0 -108 0 -107 0 *
Ve
1.50000031930233e-07
335 41.7500000000002 -2.2052730012471e-13
0 0

0101101
*
Ve
1.50000031930233e-07
335 48.2500000000002 -2.2052730012471e-13
0 0

0101101
*
Ed
 1.50000022063118e-07 1 1 0
1  24 0 4.71238898038469 7.85398163397448
2  35 13 0 4.71238898038469 7.85398163397448
2  36 13 19 4.71238898038469 7.85398163397448
0

0101000
+105 0 -104 0 *
Ve
1.50000031674296e-07
305 48.2500000000002 -2.2052730012471e-13
0 0

0101101
*
Ed
 1.50000020539126e-07 1 1 0
1  25 0 -182.5 -152.5
0

0101000
+104 0 -102 0 *
Ve
1.50000034695036e-07
305 41.7500000000002 -2.2052730012471e-13
0 0

0101101
*
Ed
 1.50000024827921e-07 1 1 0
1  26 0 1.5707963267949 4.71238898038469
2  37 14 0 1.5707963267949 4.71238898038469
2  38 14 19 1.5707963267949 4.71238898038469
0

0101000
+102 0 -100 0 *
Ed
 1.50000020539126e-07 1 1 0
1  27 0 -182.5 -152.5
0

0101000
+105 0 -100 0 *
Wi

0101100
-103 0 -101 0 -99 0 +98 0 *
Fa
0  1e-07 4 7

0101000
+133 0 +124 0 +115 0 +106 0 +97 0 *
Ed
 1e-07 1 1 0
1  28 0 0 360
2  39 6 11 0 360
2  40 5 0 0 360
0

0101000
+147 11 -140 11 *
Wi

0101100
-151 10 +144 10 -137 10 +95 10 *
Ve
1.50000310174766e-07
55 181.75 11.9999999999999
0 0

0101101
*
Ve
1.50000310174766e-07
55 188.25 11.9999999999999
0 0

0101101
*
Ed
 1.50000232718207e-07 1 1 0
1  12 0 4.71238898038469 7.85398163397448
2  23 7 0 4.71238898038469 7.85398163397448
2  24 7 13 4.71238898038469 7.85398163397448
0

0101000
+93 13 -92 13 *
Ve
1.50000310174766e-07
25 181.75 11.9999999999999
0 0

0101101
*
Ed
 1.50000232369679e-07 1 1 0
1  13 0 -42.5 -12.5
0

0101000
+93 13 -90 13 *
Ve
1.50000310174766e-07
25 188.25 11.9999999999999
0 0

0101101
*
Ed
 1.50000232369679e-07 1 1 0
1  14 0 -42.5 -12.5
0

0101000
+92 13 -88 13 *
Ed
 1.50000232718207e-07 1 1 0
1  15 0 1.5707963267949 4.71238898038469
2  25 8 0 1.5707963267949 4.71238898038469
2  26 8 13 1.5707963267949 4.71238898038469
0

0101000
+88 13 -90 13 *
Wi

0101100
-91 12 +89 12 -87 12 -86 12 *
Ve
1.50000027734029e-07
55 41.7500000000002 11.9999999999998
0 0

0101101
*
Ve
1.50000027734029e-07
55 48.2500000000002 11.9999999999998
0 0

0101101
*
Ed
 1.50000020887654e-07 1 1 0
1  16 0 4.71238898038469 7.85398163397448
2  27 9 0 4.71238898038469 7.85398163397448
2  28 9 15 4.71238898038469 7.85398163397448
0

0101000
+84 15 -83 15 *
Ve
1.5000002794195e-07
25 41.7500000000002 11.9999999999998
0 0

0101101
*
Ed
 1.50000020539126e-07 1 1 0
1  17 0 -42.5 -12.5
0

0101000
+84 15 -81 15 *
Ve
1.5000002794195e-07
25 48.2500000000002 11.9999999999998
0 0

0101101
*
Ed
 1.50000020539126e-07 1 1 0
1  18 0 -42.5 -12.5
0

0101000
+83 15 -79 15 *
Ed
 1.50000021095575e-07 1 1 0
1  19 0 1.5707963267949 4.71238898038469
2  29 10 0 1.5707963267949 4.71238898038469
2  30 10 15 1.5707963267949 4.71238898038469
0

0101000
+79 15 -81 15 *
Wi

0101100
-82 14 +80 14 -78 14 -77 14 *
Ve
1.50000310174766e-07
335 181.75 11.9999999999999
0 0

0101101
*
Ve
1.50000310174766e-07
335 188.25 11.9999999999999
0 0

0101101
*
Ed
 1.50000232718207e-07 1 1 0
1  20 0 4.71238898038469 7.85398163397448
2  31 11 0 4.71238898038469 7.85398163397448
2  32 11 17 4.71238898038469 7.85398163397448
0

0101000
+75 17 -74 17 *
Ve
1.50000316768598e-07
305 181.75 11.9999999999999
0 0

0101101
*
Ed
 1.50000232369679e-07 1 1 0
1  21 0 -182.5 -152.5
0

0101000
+75 17 -72 17 *
Ve
1.50000316768598e-07
305 188.25 11.9999999999999
0 0

0101101
*
Ed
 1.50000232369679e-07 1 1 0
1  22 0 -182.5 -152.5
0

0101000
+74 17 -70 17 *
Ed
 1.50000239312038e-07 1 1 0
1  23 0 1.5707963267949 4.71238898038469
2  33 12 0 1.5707963267949 4.71238898038469
2  34 12 17 1.5707963267949 4.71238898038469
0

0101000
+70 17 -72 17 *
Wi

0101100
-73 16 +71 16 -69 16 -68 16 *
Ve
1.50000031930233e-07
335 41.7500000000002 11.9999999999998
0 0

0101101
*
Ve
1.50000031930233e-07
335 48.2500000000002 11.9999999999998
0 0

0101101
*
Ed
 1.50000022063118e-07 1 1 0
1  24 0 4.71238898038469 7.85398163397448
2  35 13 0 4.71238898038469 7.85398163397448
2  36 13 19 4.71238898038469 7.85398163397448
0

0101000
+66 19 -65 19 *
Ve
1.50000031674296e-07
305 48.2500000000002 11.9999999999998
0 0

0101101
*
Ed
 1.50000020539126e-07 1 1 0
1  25 0 -182.5 -152.5
0

0101000
+65 19 -63 19 *
Ve
1.50000034695036e-07
305 41.7500000000002 11.9999999999998
0 0

0101101
*
Ed
 1.50000024827921e-07 1 1 0
1  26 0 1.5707963267949 4.71238898038469
2  37 14 0 1.5707963267949 4.71238898038469
2  38 14 19 1.5707963267949 4.71238898038469
0

0101000
+63 19 -61 19 *
Ed
 1.50000020539126e-07 1 1 0
1  27 0 -182.5 -152.5
0

0101000
+66 19 -61 19 *
Wi

0101100
-64 18 -62 18 -60 18 +59 18 *
Fa
0  1e-07 5 10

0101000
+94 0 +85 0 +76 0 +67 0 +58 0 *
Wi

0101100
+146 0 -139 0 -134 7 +95 10 *
Fa
0  1e-07 6 0

0101000
+56 0 *
Ed
 1.50000310174766e-07 1 1 0
1  29 0 0 12
2  41 7 0 0 12
4 G1 15 0 7 0
0

0101000
+132 0 -93 0 *
Ed
 1.50000310174766e-07 1 1 0
1  30 0 0 12
2  42 7 0 0 12
4 G1 16 0 7 0
0

0101000
+131 0 -92 0 *
Wi

0101100
+54 0 -53 0 -130 0 +91 12 *
Fa
0  1.50000232718207e-07 7 0

0101000
+52 0 *
Ed
 1.50000310174766e-07 1 1 0
1  31 0 0 12
2  43 8 0 0 12
4 G1 15 0 8 0
0

0101000
+129 0 -90 0 *
Wi

0101100
+54 0 -50 0 -128 0 +89 12 *
Fa
0  1.50000232369679e-07 15 0

0101000
+49 0 *
Ed
 1.50000310174766e-07 1 1 0
1  32 0 0 12
2  44 8 0 0 12
4 G1 8 0 16 0
0

0101000
+127 0 -88 0 *
Wi

0101100
+53 0 -47 0 -126 0 +87 12 *
Fa
0  1.50000232369679e-07 16 0

0101000
+46 0 *
Wi

0101100
+47 0 -50 0 -125 0 +86 12 *
Fa
0  1.50000232718207e-07 8 0

0101000
+44 0 *
Ed
 1.50000027734029e-07 1 1 0
1  33 0 0 12
2  45 9 0 0 12
4 G1 17 0 9 0
0

0101000
+123 0 -84 0 *
Ed
 1.50000027734029e-07 1 1 0
1  34 0 0 12
2  46 9 0 0 12
4 G1 18 0 9 0
0

0101000
+122 0 -83 0 *
Wi

0101100
+42 0 -41 0 -121 0 +82 14 *
Fa
0  1.50000020887654e-07 9 0

0101000
+40 0 *
Ed
 1.5000002794195e-07 1 1 0
1  35 0 0 12
2  47 10 0 0 12
4 G1 17 0 10 0
0

0101000
+120 0 -81 0 *
Wi

0101100
+42 0 -38 0 -119 0 +80 14 *
Fa
0  1.50000020539126e-07 17 0

0101000
+37 0 *
Ed
 1.5000002794195e-07 1 1 0
1  36 0 0 12
2  48 10 0 0 12
4 G1 10 0 18 0
0

0101000
+118 0 -79 0 *
Wi

0101100
+41 0 -35 0 -117 0 +78 14 *
Fa
0  1.50000020539126e-07 18 0

0101000
+34 0 *
Wi

0101100
+35 0 -38 0 -116 0 +77 14 *
Fa
0  1.50000021095575e-07 10 0

0101000
+32 0 *
Ed
 1.50000310174766e-07 1 1 0
1  37 0 0 12
2  49 11 0 0 12
4 G1 19 0 11 0
0

0101000
+114 0 -75 0 *
Ed
 1.50000310174766e-07 1 1 0
1  38 0 0 12
2  50 11 0 0 12
4 G1 20 0 11 0
0

0101000
+113 0 -74 0 *
Wi

0101100
+30 0 -29 0 -112 0 +73 16 *
Fa
0  1.50000232718207e-07 11 0

0101000
+28 0 *
Ed
 1.50000316768598e-07 1 1 0
1  39 0 0 12
2  51 12 0 0 12
4 G1 19 0 12 0
0

0101000
+111 0 -72 0 *
Wi

0101100
+30 0 -26 0 -110 0 +71 16 *
Fa
0  1.50000232369679e-07 19 0

0101000
+25 0 *
Ed
 1.50000316768598e-07 1 1 0
1  40 0 0 12
2  52 12 0 0 12
4 G1 12 0 20 0
0

0101000
+109 0 -70 0 *
Wi

0101100
+29 0 -23 0 -108 0 +69 16 *
Fa
0  1.50000232369679e-07 20 0

0101000
+22 0 *
Wi

0101100
+23 0 -26 0 -107 0 +68 16 *
Fa
0  1.50000239312038e-07 12 0

0101000
+20 0 *
Ed
 1.50000031930233e-07 1 1 0
1  41 0 0 12
2  53 13 0 0 12
4 G1 21 0 13 0
0

0101000
+105 0 -66 0 *
Ed
 1.50000031930233e-07 1 1 0
1  42 0 0 12
2  54 13 0 0 12
4 G1 22 0 13 0
0

0101000
+104 0 -65 0 *
Wi

0101100
+18 0 -17 0 -103 0 +64 18 *
Fa
0  1.50000022063118e-07 13 0

0101000
+16 0 *
Ed
 1.50000031674296e-07 1 1 0
1  43 0 0 12
2  55 14 0 0 12
4 G1 14 0 22 0
0

0101000
+102 0 -63 0 *
Wi

0101100
+17 0 -14 0 -101 0 +62 18 *
Fa
0  1.50000020539126e-07 22 0

0101000
+13 0 *
Ed
 1.50000034695036e-07 1 1 0
1  44 0 0 12
2  56 14 0 0 12
4 G1 21 0 14 0
0

0101000
+100 0 -61 0 *
Wi

0101100
+14 0 -11 0 -99 0 +60 18 *
Fa
0  1.50000024827921e-07 14 0

0101000
+10 0 *
Wi

0101100
+18 0 -11 0 -98 0 +59 18 *
Fa
0  1.50000020539126e-07 21 0

0101000
+8 0 *
Sh

0101100
+149 0 -142 0 +135 0 -96 0 +57 0 -55 0 +51 0 -48 0 +45 0 +43 0 
+39 0 -36 0 +33 0 +31 0 +27 0 -24 0 +21 0 +19 0 +15 0 +12 0 
+9 0 -7 0 *
So

0100000
+6 0 *
Co

0100000
+5 0 *
Co

0100000
+4 0 *
Co

0100000
+3 0 *
Co

1100000
+2 0 *

+1 0 