DBRep_DrawableShape

CASCADE Topology V1, (c) Matra-Datavision
Locations 2
1
              1               0               0               0 
              0               1               0               0 
              0               0               1              18 
2  1 -1 0
Curve2ds 4
1 1.5707963267948966 0 0 -1 
1 3.1415926535897931 0 0 -1 
1 0 0 1 0 
1 0 -18 1 0 
Curves 14
1 18 0 -1.3844890784054046e-17 0 0 1 
1 18 8 -1.3844890784054046e-17 0 0 1 
1 18 0 -1.3844890784054046e-17 0 1 0 
1 20 10 -1.3844890784054046e-17 0 0 1 
2 20 8 -1.3844890784054046e-17 -0 -0 -1 0 -1 0 -1 0 0 2
1 38 10 -1.3844890784054046e-17 0 0 1 
1 38 10 -1.3844890784054046e-17 -1 0 0 
1 38 28 -1.3844890784054046e-17 0 0 1 
1 38 10 -1.3844890784054046e-17 0 1 0 
1 0 28 -1.3844890784054046e-17 0 0 1 
1 18 28 -1.3844890784054046e-17 -1 0 0 
1 0 0 -1.3844890784054046e-17 0 0 1 
1 0 0 -1.3844890784054046e-17 0 1 0 
1 18 1.7763568394002505e-15 -1.3844890784054046e-17 -1 0 0 
Polygon3D 0
PolygonOnTriangulations 0
Surfaces 8
1 18 0 -1.3844890784054046e-17 -1 0 0 0 1 0 0 0 -1 
2 20 8 -1.3844890784054046e-17 -0 -0 -1 0 -1 0 -1 0 0 2
1 38 10 -1.3844890784054046e-17 0 -1 0 -1 0 0 -0 -0 -1 
1 38 10 -1.3844890784054046e-17 -1 0 0 0 1 0 0 0 -1 
1 38 28 -1.3844890784054046e-17 0 -1 0 -1 0 0 -0 -0 -1 
1 0 0 -1.3844890784054046e-17 -1 0 0 0 1 0 0 0 -1 
1 18 1.7763568394002505e-15 -1.3844890784054046e-17 0 -1 0 -1 0 0 -0 -0 -1 
1 17.597900597455116 15.43324887650922 -1.3844890784054046e-17 0 0 1 1 0 -0 -0 1 0 
Triangulations 0

TShapes 39
Ve
1e-07
18 0 -1.3844890784054e-17
0 0

0101101
*
Ed
 1e-07 1 1 0
1  1 0 0 18
0

0101000
+39 0 -39 1 *
Ve
1e-07
18 8 -1.3844890784054e-17
0 0

0101101
*
Ed
 1e-07 1 1 0
1  2 0 0 18
2  1 2 0 0 18
4 G1 1 0 2 0
0

0101000
+37 0 -37 1 *
Ed
 1e-07 1 1 0
1  3 0 0 8
0

0101000
+39 0 -37 0 *
Wi

0101100
+38 0 -36 0 -35 0 +35 1 *
Fa
0  1e-07 1 0

0101000
+34 0 *
Ve
1e-07
20 10 -1.3844890784054e-17
0 0

0101101
*
Ed
 1e-07 1 1 0
1  4 0 0 18
2  2 2 0 0 18
4 G1 2 0 3 0
0

0101000
+32 0 -32 1 *
Ed
 1e-07 1 1 0
1  5 0 1.5707963267949 3.14159265358979
2  3 2 0 1.5707963267949 3.14159265358979
2  4 2 2 1.5707963267949 3.14159265358979
0

0101000
+37 0 -32 0 *
Wi

0101100
+36 0 -31 0 -30 0 +30 1 *
Fa
0  1e-07 2 0

0101000
+29 0 *
Ve
1e-07
38 10 -1.3844890784054e-17
0 0

0101101
*
Ed
 1e-07 1 1 0
1  6 0 0 18
0

0101000
+27 0 -27 1 *
Ed
 1e-07 1 1 0
1  7 0 -0 18
0

0101000
+27 0 -32 0 *
Wi

0101100
+26 0 -31 0 -25 0 +25 1 *
Fa
0  1e-07 3 0

0101000
+24 0 *
Ve
1e-07
38 28 -1.3844890784054e-17
0 0

0101101
*
Ed
 1e-07 1 1 0
1  8 0 0 18
0

0101000
+22 0 -22 1 *
Ed
 1e-07 1 1 0
1  9 0 0 18
0

0101000
+27 0 -22 0 *
Wi

0101100
+26 0 -21 0 -20 0 +20 1 *
Fa
0  1e-07 4 0

0101000
+19 0 *
Ve
1e-07
0 28 -1.3844890784054e-17
0 0

0101101
*
Ed
 1e-07 1 1 0
1  10 0 0 18
0

0101000
+17 0 -17 1 *
Ed
 1e-07 1 1 0
1  11 0 -20 18
0

0101000
+22 0 -17 0 *
Wi

0101100
+21 0 -16 0 -15 0 +15 1 *
Fa
0  1e-07 5 0

0101000
+14 0 *
Ve
1e-07
0 0 -1.3844890784054e-17
0 0

0101101
*
Ed
 1e-07 1 1 0
1  12 0 0 18
0

0101000
+12 0 -12 1 *
Ed
 1e-07 1 1 0
1  13 0 0 28
0

0101000
+12 0 -17 0 *
Wi

0101100
+11 0 -16 0 -10 0 +10 1 *
Fa
0  1e-07 6 0

0101000
+9 0 *
Ed
 1e-07 1 1 0
1  14 0 1.77635683940025e-15 18
0

0101000
+39 0 -12 0 *
Wi

0101100
+38 0 -11 0 -7 0 +7 1 *
Fa
0  1e-07 7 0

0101000
+6 0 *
Wi

0101100
+35 0 +30 0 -25 0 +20 0 +15 0 -10 0 -7 0 *
Fa
0  1e-07 8 0

0101000
+4 0 *
Sh

0101100
+33 0 +28 0 -23 0 +18 0 +13 0 -8 0 -5 0 +3 0 -3 1 *
So

1100000
-2 0 *

+1 0 