DBRep_DrawableShape

CASCADE Topology V1, (c) Matra-Datavision
Locations 5
1
             -1               0 -1.22464679914735e-16               0 
              0               1               0               0 
1.22464679914735e-16               0              -1               0 
1
              1               0               0             223 
              0               1               0           -1230 
              0               0               1             929 
2  1 1 2 1 0
1
              1               0               0               0 
              0               1               0              10 
              0               0               1               0 
2  4 -1 0
Curve2ds 26
1 30 0 0 -1 
1 0 0 0 1 
1 0 -28 1 0 
1 -13.235294117647072 -0.7647058823529278 1 0 
8 -23 -5
1 18 -5 0 1 
1 30 15 0 -1 
8 -33 -5
1 18 5 0 1 
8 -33 -5
1 30 5 0 -1 
1 0 0 1 0 
1 0 0 1 0 
1 0 28 1 0 
1 16.764705882352928 -0.7647058823529278 0 1 
1 18 0 0 1 
1 30 0 0 -1 
1 0 0 1 0 
1 30 0 0 1 
1 -13.235294117647072 17.235294117647072 1 0 
1 0 -28 1 0 
8 -5.3823529411764639 32.617647058823536
1 4.7647058823529278 -15.382352941176464 0 1 
8 -5.3823529411764639 32.617647058823536
1 15.382352941176464 38 1 0 
8 -33 -5
1 48 5 0 -1 
8 -33 -5
1 18 5 0 1 
8 15 33
1 15 10 1 0 
8 15 33
1 18 -15 0 1 
1 0 18 1 0 
1 0 0 1 0 
Curves 13
1 205 1220 929 -0 1 0 
1 205 1248 899 0 0 1 
1 205 1225 917 0 -1 0 
1 205 1225 917 0 -1 0 
1 205 1220 899 0 0 1 
1 205 1248 929 1 0 -0 
1 223 1220 929 -0 1 0 
1 205 1220 929 1 0 -0 
1 223 1248 899 0 0 1 
1 190.38235294117646 1258 917 1 0 0 
1 223 1225 917 0 -1 0 
1 190 1230 917 1 0 0 
1 223 1220 899 0 0 1 
Polygon3D 0
PolygonOnTriangulations 0
Surfaces 6
1 205 1220 899 1 0 -0 0 0 1 0 -1 0 
1 205 1220 929 0 0 1 1 0 -0 -0 1 0 
1 205.76470588235293 1248 912.23529411764707 0 1 0 0 -0 1 1 0 -0 
1 175 1220 917 0 0 1 1 0 -0 -0 1 0 
1 205 1220 899 -0 1 0 0 0 1 1 0 -0 
1 223 1220 899 1 0 -0 0 0 1 0 -1 0 
Triangulations 0

TShapes 37
Ve
1.5e-07
205 1230 929
0 0

0101101
*
Ve
1.5e-07
205 1258 929
0 0

0101101
*
Ed
 1.5e-07 1 1 0
1  1 0 0 28
2  1 1 0 0 28
2  2 2 0 0 28
0

0101000
+37 5 -36 5 *
Ve
1.5e-07
205 1258 917
0 0

0101101
*
Ed
 1e-07 1 1 0
1  2 0 18 30
2  3 1 0 18 30
2  4 3 0 18 30
0

0101000
+34 5 -36 5 *
Ve
1.5e-07
205 1240 917
0 0

0101101
*
Ed
 1.5e-07 1 1 0
1  3 0 -23 -5
2  5 1 0 -23 -5
2  6 4 5 -23 -5
0

0101000
+34 5 -32 5 *
Ve
1.5e-07
205 1230 917
0 0

0101101
*
Ed
 1.5e-07 1 1 0
1  4 0 -15 -5
2  7 1 4 -15 -5
2  8 4 0 -15 -5
0

0101000
+32 0 -30 0 *
Ed
 1e-07 1 1 0
1  5 0 18 30
2  9 1 0 18 30
2  10 5 0 18 30
0

0101000
+30 5 -37 5 *
Wi

0101100
-35 4 +33 4 -31 4 -29 0 -28 4 *
Fa
0  1e-07 1 4

0101000
+27 0 *
Ve
1.5e-07
223 1258 929
0 0

0101101
*
Ed
 1.5e-07 1 1 0
1  6 0 0 18
2  11 2 0 0 18
2  12 3 0 0 18
0

0101000
+36 5 -25 5 *
Ve
1.5e-07
223 1230 929
0 0

0101101
*
Ed
 1.5e-07 1 1 0
1  7 0 0 28
2  13 2 0 0 28
2  14 6 0 0 28
0

0101000
+23 5 -25 5 *
Ed
 1.5e-07 1 1 0
1  8 0 0 18
2  15 2 0 0 18
2  16 5 0 0 18
0

0101000
+37 5 -23 5 *
Wi

0101100
-35 4 -24 4 +22 4 +21 4 *
Fa
0  1e-07 2 4

0101000
+20 0 *
Ve
1.5e-07
223 1258 917
0 0

0101101
*
Ed
 1e-07 1 1 0
1  9 0 18 30
2  17 3 0 18 30
2  18 6 0 18 30
0

0101000
+18 5 -25 5 *
Ed
 1.5e-07 1 1 0
1  10 0 14.6176470588235 32.6176470588235
2  19 3 4 14.6176470588235 32.6176470588235
2  20 4 0 14.6176470588235 32.6176470588235
0

0101000
+34 0 -18 0 *
Wi

0101100
-17 4 +24 4 +33 4 -16 0 *
Fa
0  1e-07 3 4

0101000
+15 0 *
Ve
1.5e-07
223 1230 917
0 0

0101101
*
Ed
 1.5e-07 1 1 0
1  11 0 -33 -5
2  21 4 0 -33 -5
2  22 6 4 -33 -5
0

0101000
+18 0 -13 0 *
Ed
 1.5e-07 1 1 0
1  12 0 15 33
2  23 4 0 15 33
2  24 5 4 15 33
0

0101000
+30 0 -13 0 *
Wi

0101100
-16 0 -12 0 +11 0 +29 0 +31 4 *
Fa
0  1e-07 4 0

0101000
+10 0 *
Ed
 1e-07 1 1 0
1  13 0 18 30
2  25 5 0 18 30
2  26 6 0 18 30
0

0101000
+13 5 -23 5 *
Wi

0101100
-8 4 +21 4 +28 4 -11 0 *
Fa
0  1e-07 5 4

0101000
+7 0 *
Wi

0101100
-22 4 +17 4 -12 0 -8 4 *
Fa
0  1e-07 6 4

0101000
+5 0 *
Sh

0101100
-26 0 +19 0 +14 0 -9 0 -6 0 +4 0 *
So

0100000
+3 0 *
Co

1100000
+2 0 *

+1 3 