DBRep_DrawableShape

CASCADE Topology V1, (c) Matra-Datavision
Locations 2
1
              1               0               0               0 
              0               1               0               0 
              0               0               1              18 
2  1 -1 0
Curve2ds 2
1 0 0 1 0 
1 0 -18 1 0 
Curves 7
1 18 0 -1.3844890784054046e-17 0 1 0 
2 20 8 -1.3844890784054046e-17 -0 -0 -1 0 -1 0 -1 0 0 2
1 38 10 -1.3844890784054046e-17 -1 0 0 
1 38 10 -1.3844890784054046e-17 0 1 0 
1 18 28 -1.3844890784054046e-17 -1 0 0 
1 0 0 -1.3844890784054046e-17 0 1 0 
1 18 1.7763568394002505e-15 -1.3844890784054046e-17 -1 0 0 
Polygon3D 0
PolygonOnTriangulations 0
Surfaces 1
2 20 8 -1.3844890784054046e-17 -0 -0 -1 0 -1 0 -1 0 0 2
Triangulations 0

TShapes 15
Ve
1e-07
18 0 -1.3844890784054e-17
0 0

0101101
*
Ve
1e-07
18 8 -1.3844890784054e-17
0 0

0101101
*
Ed
 1e-07 1 1 0
1  1 0 0 8
0

0101000
+15 0 -14 0 *
Ve
1e-07
20 10 -1.3844890784054e-17
0 0

0101101
*
Ed
 1e-07 1 1 0
1  2 0 1.5707963267949 3.14159265358979
2  1 1 0 1.5707963267949 3.14159265358979
2  2 1 2 1.5707963267949 3.14159265358979
0

0101000
+14 0 -12 0 *
Ve
1e-07
38 10 -1.3844890784054e-17
0 0

0101101
*
Ed
 1e-07 1 1 0
1  3 0 -0 18
0

0101000
+10 0 -12 0 *
Ve
1e-07
38 28 -1.3844890784054e-17
0 0

0101101
*
Ed
 1e-07 1 1 0
1  4 0 0 18
0

0101000
+10 0 -8 0 *
Ve
1e-07
0 28 -1.3844890784054e-17
0 0

0101101
*
Ed
 1e-07 1 1 0
1  5 0 -20 18
0

0101000
+8 0 -6 0 *
Ve
1e-07
0 0 -1.3844890784054e-17
0 0

0101101
*
Ed
 1e-07 1 1 0
1  6 0 0 28
0

0101000
+4 0 -6 0 *
Ed
 1e-07 1 1 0
1  7 0 1.77635683940025e-15 18
0

0101000
+15 0 -4 0 *
Wi

0101100
+13 0 +11 0 -9 0 +7 0 +5 0 -3 0 -2 0 *

+1 0 