DBRep_DrawableShape

CASCADE Topology V1, (c) Matra-Datavision
Locations 5
1
             -1               0 -1.22464679914735e-16               0 
              0               1               0               0 
1.22464679914735e-16               0              -1               0 
1
              1               0               0             395 
              0               1               0           -1230 
              0               0               1             929 
2  1 1 2 1 0
1
              1               0               0               0 
              0               1               0              10 
              0               0               1               0 
2  4 -1 0
Curve2ds 26
1 0 0 0 1 
1 30 0 0 -1 
1 0 28 1 0 
1 16.764705882352928 -17.235294117647072 0 1 
1 18 0 0 1 
1 30 0 0 -1 
1 0 0 1 0 
1 30 0 0 1 
1 0 -28 1 0 
1 -13.235294117647072 -17.235294117647072 1 0 
8 -33 -5
1 18 5 0 1 
8 -33 -5
1 10 5 0 -1 
1 0 0 1 0 
1 0 0 1 0 
1 -13.235294117647072 0.7647058823529278 1 0 
1 0 -28 1 0 
8 -3.6176470588235361 34.382352941176464
1 4.7647058823529278 -13.617647058823536 0 1 
8 -3.6176470588235361 34.382352941176464
1 13.617647058823536 38 1 0 
8 -23 -5
1 18 -5 0 1 
1 28 15 0 -1 
8 -33 -5
1 18 5 0 1 
8 -33 -5
1 28 5 0 -1 
1 0 0 1 0 
1 0 18 1 0 
8 5 23
1 18 -5 0 1 
8 5 23
1 5 10 1 0 
Curves 13
1 377 1220 929 -0 1 0 
1 377 1248 929 1 0 -0 
1 395 1220 929 -0 1 0 
1 377 1220 929 1 0 -0 
1 377 1248 899 0 0 1 
1 377 1225 917 0 -1 0 
1 377 1220 899 0 0 1 
1 395 1248 899 0 0 1 
1 380.61764705882354 1258 917 1 0 0 
1 395 1225 917 0 -1 0 
1 395 1225 917 0 -1 0 
1 395 1220 899 0 0 1 
1 372 1230 917 1 0 0 
Polygon3D 0
PolygonOnTriangulations 0
Surfaces 6
1 377 1220 929 0 0 1 1 0 -0 -0 1 0 
1 377 1220 899 1 0 -0 0 0 1 0 -1 0 
1 394.23529411764707 1248 912.23529411764707 0 1 0 0 -0 1 1 0 -0 
1 395 1220 899 1 0 -0 0 0 1 0 -1 0 
1 377 1220 899 -0 1 0 0 0 1 1 0 -0 
1 367 1220 917 0 0 1 1 0 -0 -0 1 0 
Triangulations 0

TShapes 37
Ve
1.5e-07
377 1230 929
0 0

0101101
*
Ve
1.5e-07
377 1258 929
0 0

0101101
*
Ed
 1.5e-07 1 1 0
1  1 0 0 28
2  1 1 0 0 28
2  2 2 0 0 28
0

0101000
+37 5 -36 5 *
Ve
1.5e-07
395 1258 929
0 0

0101101
*
Ed
 1.5e-07 1 1 0
1  2 0 0 18
2  3 1 0 0 18
2  4 3 0 0 18
0

0101000
+36 5 -34 5 *
Ve
1.5e-07
395 1230 929
0 0

0101101
*
Ed
 1.5e-07 1 1 0
1  3 0 0 28
2  5 1 0 0 28
2  6 4 0 0 28
0

0101000
+32 5 -34 5 *
Ed
 1.5e-07 1 1 0
1  4 0 0 18
2  7 1 0 0 18
2  8 5 0 0 18
0

0101000
+37 5 -32 5 *
Wi

0101100
-35 4 -33 4 +31 4 +30 4 *
Fa
0  1e-07 1 4

0101000
+29 0 *
Ve
1.5e-07
377 1258 917
0 0

0101101
*
Ed
 1e-07 1 1 0
1  5 0 18 30
2  9 2 0 18 30
2  10 3 0 18 30
0

0101000
+27 5 -36 5 *
Ve
1.5e-07
377 1230 917
0 0

0101101
*
Ed
 1.5e-07 1 1 0
1  6 0 -33 -5
2  11 2 4 -33 -5
2  12 6 0 -33 -5
0

0101000
+27 0 -25 0 *
Ed
 1e-07 1 1 0
1  7 0 18 30
2  13 2 0 18 30
2  14 5 0 18 30
0

0101000
+25 5 -37 5 *
Wi

0101100
-35 4 +26 4 -24 0 -23 4 *
Fa
0  1e-07 2 4

0101000
+22 0 *
Ve
1.5e-07
395 1258 917
0 0

0101101
*
Ed
 1e-07 1 1 0
1  8 0 18 30
2  15 3 0 18 30
2  16 4 0 18 30
0

0101000
+20 5 -34 5 *
Ed
 1.5e-07 1 1 0
1  9 0 -3.61764705882354 14.3823529411765
2  17 3 4 -3.61764705882354 14.3823529411765
2  18 6 0 -3.61764705882354 14.3823529411765
0

0101000
+27 0 -20 0 *
Wi

0101100
-19 4 +33 4 +26 4 -18 0 *
Fa
0  1e-07 3 4

0101000
+17 0 *
Ve
1.5e-07
395 1240 917
0 0

0101101
*
Ed
 1.5e-07 1 1 0
1  10 0 -23 -5
2  19 4 0 -23 -5
2  20 6 5 -23 -5
0

0101000
+20 5 -15 5 *
Ve
1.5e-07
395 1230 917
0 0

0101101
*
Ed
 1.5e-07 1 1 0
1  11 0 -15 -5
2  21 4 4 -15 -5
2  22 6 0 -15 -5
0

0101000
+15 0 -13 0 *
Ed
 1e-07 1 1 0
1  12 0 18 30
2  23 4 0 18 30
2  24 5 0 18 30
0

0101000
+13 5 -32 5 *
Wi

0101100
-31 4 +19 4 -14 4 -12 0 -11 4 *
Fa
0  1e-07 4 4

0101000
+10 0 *
Ed
 1.5e-07 1 1 0
1  13 0 5 23
2  25 5 4 5 23
2  26 6 0 5 23
0

0101000
+25 0 -13 0 *
Wi

0101100
-11 4 +30 4 +23 4 -8 0 *
Fa
0  1e-07 5 4

0101000
+7 0 *
Wi

0101100
-14 4 -12 0 +8 0 +24 0 -18 0 *
Fa
0  1e-07 6 0

0101000
+5 0 *
Sh

0101100
+28 0 -21 0 +16 0 +9 0 -6 0 -4 0 *
So

0100000
+3 0 *
Co

1100000
+2 0 *

+1 3 