DBRep_DrawableShape

CASCADE Topology V1, (c) Matra-Datavision
Locations 8
1
              1               0               0               0 
              0               1               0               0 
              0               0               1              -1 
1
              1               0               0               0 
              0               1               0              10 
              0               0               1               0 
1
             -1               0 -1.22464679914735e-16               0 
              0               1               0               0 
1.22464679914735e-16               0              -1               0 
1
              1               0               0             415 
              0               1               0           -1230 
              0               0               1             917 
1
              1               0               0               0 
              0               1               0               0 
              0               0               1             -18 
1
              1               0               0               0 
              0               1               0               0 
              0               0               1               1 
2  2 1 3 1 4 1 5 1 6 1 0
2  6 -1 5 -1 4 -1 3 -1 2 -1 0
Curve2ds 6
1 17.484848484848499 -15.515151515151501 0 1 
1 17.484848484848499 12.484848484848499 -1 0 
1 -20.515151515151501 -5.5151515151515014 0 1 
1 17.484848484848499 -5.5151515151515014 -1 0 
1 -0.51515151515150137 -15.515151515151501 0 1 
1 17.484848484848499 -15.515151515151501 -1 0 
Curves 6
1 377 1220 899 -0 1 0 
1 377 1248 899 1 0 -0 
1 415 1230 899 -0 1 0 
1 377 1230 899 1 0 -0 
1 395 1220 899 -0 1 0 
1 377 1220 899 1 0 -0 
Polygon3D 0
PolygonOnTriangulations 0
Surfaces 1
1 394.4848484848485 1235.5151515151515 899 -0 -0 -1 -1 0 0 0 1 -0 
Triangulations 0

TShapes 13
Ve
1.50000001776357e-07
38 0 1
0 0

0101101
*
Ve
1.50000001776357e-07
38 28 1
0 0

0101101
*
Ed
 1.50000001776357e-07 1 1 0
1  1 0 0 28
2  1 1 0 0 28
0

0101000
+13 8 -12 8 *
Ve
1.50000001776357e-07
0 28 1
0 0

0101101
*
Ed
 1.50000001776357e-07 1 1 0
1  2 0 0 38
2  2 1 0 0 38
0

0101000
+12 8 -10 8 *
Ve
1.50000001776357e-07
0 10 1
0 0

0101101
*
Ed
 1.50000001776357e-07 1 1 0
1  3 0 0 18
2  3 1 0 0 18
0

0101000
+8 8 -10 8 *
Ve
1.50000001776357e-07
20 10 1
0 0

0101101
*
Ed
 1.50000001776357e-07 1 1 0
1  4 0 18 38
2  4 1 0 18 38
0

0101000
+6 8 -8 8 *
Ve
1.50000001776357e-07
20 0 1
0 0

0101101
*
Ed
 1.50000001776357e-07 1 1 0
1  5 0 0 10
2  5 1 0 0 10
0

0101000
+4 8 -6 8 *
Ed
 1.50000001776357e-07 1 1 0
1  6 0 0 18
2  6 1 0 0 18
0

0101000
+13 8 -4 8 *
Wi

0101100
+11 7 +9 7 -7 7 -5 7 -3 7 -2 7 *

+1 1 