DBRep_DrawableShape

CASCADE Topology V1, (c) Matra-Datavision
Locations 8
1
              1               0               0               0 
              0               1               0               0 
              0               0               1              -1 
1
              1               0               0               0 
              0               1               0              10 
              0               0               1               0 
1
              1               0               0               0 
              0               1               0               0 
              0               0               1               0 
1
              1               0               0            -205 
              0               1               0           -1228 
              0               0               1            -945 
1
              1               0               0               0 
              0               1               0               0 
              0               0               1              -0 
1
              1               0               0               0 
              0               1               0               0 
              0               0               1               1 
2  2 1 3 1 4 1 5 1 6 1 0
2  6 -1 5 -1 4 -1 3 -1 2 -1 0
Curve2ds 4
1 0 0 0 1 
1 0 12 1 0 
1 18 0 0 1 
1 0 0 1 0 
Curves 4
1 205 1218 945 -0 1 0 
1 205 1230 945 1 0 -0 
1 223 1218 945 -0 1 0 
1 205 1218 945 1 0 -0 
Polygon3D 0
PolygonOnTriangulations 0
Surfaces 1
1 205 1218 945 0 0 1 1 0 -0 -0 1 0 
Triangulations 0

TShapes 9
Ve
1e-07
0 0 1
0 0

0101101
*
Ve
1e-07
0 12 1
0 0

0101101
*
Ed
 1e-07 1 1 0
1  1 0 0 12
2  1 1 0 0 12
0

0101000
+9 8 -8 8 *
Ve
1e-07
18 12 1
0 0

0101101
*
Ed
 1e-07 1 1 0
1  2 0 0 18
2  2 1 0 0 18
0

0101000
+8 8 -6 8 *
Ve
1e-07
18 0 1
0 0

0101101
*
Ed
 1e-07 1 1 0
1  3 0 0 12
2  3 1 0 0 12
0

0101000
+4 8 -6 8 *
Ed
 1e-07 1 1 0
1  4 0 0 18
2  4 1 0 0 18
0

0101000
+9 8 -4 8 *
Wi

0101100
-7 7 -5 7 +3 7 +2 7 *

+1 1 