DBRep_DrawableShape

CASCADE Topology V1, (c) Matra-Datavision
Locations 11
1
              1               0               0               0 
              0               1               0              52 
              0               0               1               0 
1
              1               0               0               0 
              0 1.11022302462516e-16              -1               0 
              0               1 1.11022302462516e-16               0 
1
              1               0               0              70 
              0               1               0             820 
              0               0               1           -1156 
1
              1               0               0               0 
              0               1               0               0 
              0               0               1              -0 
1
              1               0               0               0 
              0               1               0               0 
              0               0               1               1 
1
              1               0               0               0 
              0               1               0               0 
              0               0               1              -1 
2  1 1 2 1 3 1 4 1 5 1 6 1 0
2  1 1 2 1 3 1 0
2  3 -1 2 -1 1 -1 0
1
              1               0               0               0 
              0               1               0               0 
              0               0               1              18 
2  1 1 2 1 3 1 4 1 5 1 6 1 10 1 0
Curve2ds 24
8 -155 -15
1 15 589 -1 0 
8 -155 -15
1 -15 -1 -1 -0 
8 294.5 430.5
1 30 294.5 0 1 
8 294.5 430.5
1 -294.5 1 1 0 
8 -155 -15
1 15 725 -1 0 
8 -155 -15
1 -15 -1 -1 -0 
8 294.5 430.5
1 170 294.5 0 1 
8 294.5 430.5
1 -294.5 1 1 0 
1 0 0 0 1 
1 140 0 0 -1 
8 -155 -15
1 15 589 -1 0 
8 -155 -15
1 -15 -19 -1 -0 
1 0 0 0 1 
1 0 0 0 -1 
8 294.5 430.5
1 30 294.5 0 1 
8 294.5 430.5
1 -294.5 19 1 0 
1 0 0 0 -1 
1 136 0 0 1 
1 136 0 0 1 
1 140 0 0 -1 
8 -155 -15
1 15 725 -1 0 
8 -155 -15
1 -15 -19 -1 -0 
8 294.5 430.5
1 170 294.5 0 1 
8 294.5 430.5
1 -294.5 19 1 0 
Curves 12
1 519 1104 635 -0 0 -1 
1 224.5 1104 650 1 0 -0 
1 655 1104 635 -0 0 -1 
1 224.5 1104 790 1 0 -0 
1 519 1103 790 -0 1 0 
1 519 1122 635 -0 0 -1 
1 519 1103 650 -0 1 0 
1 224.5 1122 650 1 0 -0 
1 655 1103 650 -0 1 0 
1 655 1103 790 -0 1 0 
1 655 1122 635 -0 0 -1 
1 224.5 1122 790 1 0 -0 
Polygon3D 0
PolygonOnTriangulations 0
Surfaces 7
1 -70 1104 620 -0 1 0 0 0 1 1 0 -0 
1 -70 1104 620 -0 1 0 0 0 1 1 0 -0 
1 519 1103 650 1 0 -0 0 0 1 0 -1 0 
1 519 1103 650 0 0 1 1 0 -0 -0 1 0 
1 655 1103 650 1 0 -0 0 0 1 0 -1 0 
1 519 1103 790 0 0 1 1 0 -0 -0 1 0 
1 -70 1122 620 -0 1 0 0 0 1 1 0 -0 
Triangulations 0

TShapes 34
Ve
1.5e-07
589 30 0
0 0

0101101
*
Ve
1.5e-07
589 170 0
0 0

0101101
*
Ed
 1.5e-07 1 1 0
1  1 0 -155 -15
2  1 2 0 -155 -15
2  2 3 0 -155 -15
0

0101000
+34 9 -33 9 *
Ve
1.5e-07
725 170 0
0 0

0101101
*
Ed
 1.5e-07 1 1 0
1  2 0 294.5 430.5
2  3 2 0 294.5 430.5
2  4 4 0 294.5 430.5
0

0101000
+33 9 -31 9 *
Ve
1.5e-07
725 30 0
0 0

0101101
*
Ed
 1.5e-07 1 1 0
1  3 0 -155 -15
2  5 2 0 -155 -15
2  6 5 0 -155 -15
0

0101000
+29 9 -31 9 *
Ed
 1.5e-07 1 1 0
1  4 0 294.5 430.5
2  7 2 0 294.5 430.5
2  8 6 0 294.5 430.5
0

0101000
+34 9 -29 9 *
Wi

0101100
-32 8 -30 8 +28 8 +27 8 *
Fa
0  1e-07 1 7

0101000
+26 0 *
Ve
1.5e-07
589 30 18
0 0

0101101
*
Ed
 1e-07 1 1 0
1  5 0 1 19
2  9 6 0 1 19
2  10 3 0 1 19
0

0101000
+34 9 -24 9 *
Ve
1.5e-07
589 170 18
0 0

0101101
*
Ed
 1.5e-07 1 1 0
1  6 0 -155 -15
2  11 7 0 -155 -15
2  12 3 0 -155 -15
0

0101000
+24 9 -22 9 *
Ed
 1e-07 1 1 0
1  7 0 1 19
2  13 4 0 1 19
2  14 3 0 1 19
0

0101000
+33 9 -22 9 *
Wi

0101100
-23 8 -21 8 +20 8 +32 8 *
Fa
0  1e-07 3 8

0101000
+19 0 *
Ve
1.5e-07
725 170 18
0 0

0101101
*
Ed
 1.5e-07 1 1 0
1  8 0 294.5 430.5
2  15 7 0 294.5 430.5
2  16 4 0 294.5 430.5
0

0101000
+22 9 -17 9 *
Ed
 1e-07 1 1 0
1  9 0 1 19
2  17 5 0 1 19
2  18 4 0 1 19
0

0101000
+31 9 -17 9 *
Wi

0101100
-20 8 -16 8 +15 8 +30 8 *
Fa
0  1e-07 4 8

0101000
+14 0 *
Ve
1.5e-07
725 30 18
0 0

0101101
*
Ed
 1e-07 1 1 0
1  10 0 1 19
2  19 6 0 1 19
2  20 5 0 1 19
0

0101000
+29 9 -12 9 *
Ed
 1.5e-07 1 1 0
1  11 0 -155 -15
2  21 7 0 -155 -15
2  22 5 0 -155 -15
0

0101000
+12 9 -17 9 *
Wi

0101100
-11 8 -10 8 +15 8 +28 8 *
Fa
0  1e-07 5 8

0101000
+9 0 *
Ed
 1.5e-07 1 1 0
1  12 0 294.5 430.5
2  23 7 0 294.5 430.5
2  24 6 0 294.5 430.5
0

0101000
+24 9 -12 9 *
Wi

0101100
-23 8 -7 8 +11 8 +27 8 *
Fa
0  1e-07 6 8

0101000
+6 0 *
Wi

0101100
-21 8 -16 8 +10 8 +7 8 *
Fa
0  1e-07 1 11

0101000
+4 0 *
Sh

0101100
-25 0 -18 0 -13 0 +8 0 +5 0 +3 0 *
So

0100000
+2 0 *

+1 0 