DBRep_DrawableShape

CASCADE Topology V1, (c) Matra-Datavision
Locations 5
1
              1               0               0               0 
              0               1               0              52 
              0               0               1               0 
1
              1               0               0               0 
              0 1.11022302462516e-16              -1               0 
              0               1 1.11022302462516e-16               0 
1
              1               0               0              70 
              0               1               0             820 
              0               0               1           -1156 
2  1 1 2 1 3 1 0
2  1 -1 0
Curve2ds 96
1 0 0 1 0 
1 0 0 1 0 
1 200 0 0 -1 
1 0 0 0 1 
1 0 -18 1 0 
1 0 0 1 0 
1 0 0 0 -1 
1 0 0 0 1 
1 0 0 0 1 
1 0 0 1 0 
1 0 740 1 0 
1 0 0 1 0 
1 200 0 0 1 
1 0 0 1 0 
8 7.5 143.5
1 170 7.5 0 1 
8 7.5 143.5
1 -7.5 1 1 0 
8 -155 -15
1 15 15 -1 0 
8 -155 -15
1 -15 -1 -1 -0 
8 -155 -15
1 15 151 -1 0 
8 -155 -15
1 -15 -1 -1 -0 
8 7.5 143.5
1 30 7.5 0 1 
8 7.5 143.5
1 -7.5 1 1 0 
8 85 485
1 180 85 0 1 
8 85 485
1 -85 1 1 0 
8 -170 -10
1 10 170 -1 0 
8 -170 -10
1 -10 -1 -1 -0 
8 -170 -10
1 10 570 -1 0 
8 -170 -10
1 -10 -1 -1 -0 
8 85 485
1 20 85 0 1 
8 85 485
1 -85 1 1 0 
8 294.5 430.5
1 170 294.5 0 1 
8 294.5 430.5
1 -294.5 1 1 0 
8 -155 -15
1 15 725 -1 0 
8 -155 -15
1 -15 -1 -1 -0 
8 294.5 430.5
1 30 294.5 0 1 
8 294.5 430.5
1 -294.5 1 1 0 
8 -155 -15
1 15 589 -1 0 
8 -155 -15
1 -15 -1 -1 -0 
1 0 18 1 0 
1 200 0 0 1 
1 740 0 0 1 
1 200 0 0 -1 
1 0 0 0 1 
1 0 18 1 0 
1 0 740 1 0 
1 0 -18 1 0 
8 7.5 143.5
1 170 7.5 0 1 
8 7.5 143.5
1 -7.5 19 1 0 
8 -155 -15
1 15 15 -1 0 
8 -155 -15
1 -15 -19 -1 -0 
8 -155 -15
1 15 151 -1 0 
8 -155 -15
1 -15 -19 -1 -0 
8 7.5 143.5
1 30 7.5 0 1 
8 7.5 143.5
1 -7.5 19 1 0 
8 85 485
1 180 85 0 1 
8 85 485
1 -85 19 1 0 
8 -170 -10
1 10 170 -1 0 
8 -170 -10
1 -10 -19 -1 -0 
8 -170 -10
1 10 570 -1 0 
8 -170 -10
1 -10 -19 -1 -0 
8 85 485
1 20 85 0 1 
8 85 485
1 -85 19 1 0 
8 294.5 430.5
1 170 294.5 0 1 
8 294.5 430.5
1 -294.5 19 1 0 
8 -155 -15
1 15 725 -1 0 
8 -155 -15
1 -15 -19 -1 -0 
8 294.5 430.5
1 30 294.5 0 1 
8 294.5 430.5
1 -294.5 19 1 0 
8 -155 -15
1 15 589 -1 0 
8 -155 -15
1 -15 -19 -1 -0 
1 740 0 0 1 
1 0 0 0 -1 
1 0 0 0 1 
1 140 0 0 -1 
1 136 0 0 1 
1 140 0 0 -1 
1 0 0 0 -1 
1 0 0 0 1 
1 0 0 0 -1 
1 136 0 0 1 
1 0 0 0 1 
1 160 0 0 -1 
1 400 0 0 1 
1 160 0 0 -1 
1 0 0 0 -1 
1 0 0 0 1 
1 0 0 0 -1 
1 400 0 0 1 
1 0 0 0 1 
1 140 0 0 -1 
1 136 0 0 1 
1 140 0 0 -1 
1 0 0 0 -1 
1 136 0 0 1 
1 0 0 0 1 
1 0 0 0 -1 
Curves 48
1 -70 1104 620 0 0 1 
1 -70 1104 820 -0 1 0 
1 -70 1122 620 0 0 1 
1 -70 1104 620 -0 1 0 
1 -70 1104 620 1 0 -0 
1 670 1104 620 0 0 1 
1 -70 1104 820 1 0 -0 
1 -62.5 1104 790 1 0 -0 
1 -55 1104 635 -0 0 -1 
1 81 1104 635 -0 0 -1 
1 -62.5 1104 650 1 0 -0 
1 15 1104 800 1 0 -0 
1 100 1104 630 -0 0 -1 
1 500 1104 630 -0 0 -1 
1 15 1104 640 1 0 -0 
1 224.5 1104 790 1 0 -0 
1 655 1104 635 -0 0 -1 
1 224.5 1104 650 1 0 -0 
1 519 1104 635 -0 0 -1 
1 -70 1122 820 1 0 -0 
1 670 1104 820 -0 1 0 
1 -70 1122 620 1 0 -0 
1 670 1122 620 0 0 1 
1 -62.5 1122 790 1 0 -0 
1 -55 1122 635 -0 0 -1 
1 81 1122 635 -0 0 -1 
1 -62.5 1122 650 1 0 -0 
1 15 1122 800 1 0 -0 
1 100 1122 630 -0 0 -1 
1 500 1122 630 -0 0 -1 
1 15 1122 640 1 0 -0 
1 224.5 1122 790 1 0 -0 
1 655 1122 635 -0 0 -1 
1 224.5 1122 650 1 0 -0 
1 519 1122 635 -0 0 -1 
1 670 1104 620 -0 1 0 
1 -55 1103 790 -0 1 0 
1 81 1103 790 -0 1 0 
1 -55 1103 650 -0 1 0 
1 81 1103 650 -0 1 0 
1 100 1103 800 -0 1 0 
1 500 1103 800 -0 1 0 
1 100 1103 640 -0 1 0 
1 500 1103 640 -0 1 0 
1 519 1103 790 -0 1 0 
1 655 1103 790 -0 1 0 
1 655 1103 650 -0 1 0 
1 519 1103 650 -0 1 0 
Polygon3D 0
PolygonOnTriangulations 0
Surfaces 18
1 -70 1104 620 1 0 -0 0 0 1 0 -1 0 
1 -70 1104 620 -0 1 0 0 0 1 1 0 -0 
1 -70 1104 820 0 0 1 1 0 -0 -0 1 0 
1 -70 1122 620 -0 1 0 0 0 1 1 0 -0 
1 -70 1104 620 0 0 1 1 0 -0 -0 1 0 
1 670 1104 620 1 0 -0 0 0 1 0 -1 0 
1 -55 1103 790 0 0 1 1 0 -0 -0 1 0 
1 -55 1103 650 1 0 -0 0 0 1 0 -1 0 
1 81 1103 650 1 0 -0 0 0 1 0 -1 0 
1 -55 1103 650 0 0 1 1 0 -0 -0 1 0 
1 100 1103 800 0 0 1 1 0 -0 -0 1 0 
1 100 1103 640 1 0 -0 0 0 1 0 -1 0 
1 500 1103 640 1 0 -0 0 0 1 0 -1 0 
1 100 1103 640 0 0 1 1 0 -0 -0 1 0 
1 519 1103 790 0 0 1 1 0 -0 -0 1 0 
1 655 1103 650 1 0 -0 0 0 1 0 -1 0 
1 519 1103 650 0 0 1 1 0 -0 -0 1 0 
1 519 1103 650 1 0 -0 0 0 1 0 -1 0 
Triangulations 0

TShapes 125
Ve
1e-07
-70 1156 820
0 0

0101101
*
Ve
1e-07
-70 1156 620
0 0

0101101
*
Ed
 1e-07 1 1 0
1  1 0 0 200
2  1 1 0 0 200
2  2 2 0 0 200
0

0101000
-125 5 +124 5 *
Ve
1e-07
-70 1174 820
0 0

0101101
*
Ed
 1e-07 1 1 0
1  2 0 0 18
2  3 1 0 0 18
2  4 3 0 0 18
0

0101000
-122 5 +125 5 *
Ve
1e-07
-70 1174 620
0 0

0101101
*
Ed
 1e-07 1 1 0
1  3 0 0 200
2  5 1 0 0 200
2  6 4 0 0 200
0

0101000
-122 5 +120 5 *
Ed
 1e-07 1 1 0
1  4 0 0 18
2  7 1 0 0 18
2  8 5 0 0 18
0

0101000
-120 5 +124 5 *
Wi

0101100
-123 0 -121 0 +119 0 +118 0 *
Fa
0  1e-07 1 0

0111000
+117 0 *
Ve
1e-07
670 1156 620
0 0

0101101
*
Ed
 1e-07 1 1 0
1  5 0 0 740
2  9 2 0 0 740
2  10 5 0 0 740
0

0101000
-115 5 +124 5 *
Ve
1e-07
670 1156 820
0 0

0101101
*
Ed
 1e-07 1 1 0
1  6 0 0 200
2  11 2 0 0 200
2  12 6 0 0 200
0

0101000
-113 5 +115 5 *
Ed
 1e-07 1 1 0
1  7 0 0 740
2  13 2 0 0 740
2  14 3 0 0 740
0

0101000
-113 5 +125 5 *
Wi

0101100
-114 0 -112 0 +123 0 +111 0 *
Ve
1.5e-07
-55 1156 790
0 0

0101101
*
Ve
1.5e-07
81 1156 790
0 0

0101101
*
Ed
 1.5e-07 1 1 0
1  8 0 7.5 143.5
2  15 2 0 7.5 143.5
2  16 7 0 7.5 143.5
0

0101000
+109 5 -108 5 *
Ve
1.5e-07
-55 1156 650
0 0

0101101
*
Ed
 1.5e-07 1 1 0
1  9 0 -155 -15
2  17 2 0 -155 -15
2  18 8 0 -155 -15
0

0101000
+109 5 -106 5 *
Ve
1.5e-07
81 1156 650
0 0

0101101
*
Ed
 1.5e-07 1 1 0
1  10 0 -155 -15
2  19 2 0 -155 -15
2  20 9 0 -155 -15
0

0101000
+108 5 -104 5 *
Ed
 1.5e-07 1 1 0
1  11 0 7.5 143.5
2  21 2 0 7.5 143.5
2  22 10 0 7.5 143.5
0

0101000
+106 5 -104 5 *
Wi

0101100
-107 0 +105 0 -103 0 +102 0 *
Ve
1.5e-07
100 1156 800
0 0

0101101
*
Ve
1.5e-07
500 1156 800
0 0

0101101
*
Ed
 1.5e-07 1 1 0
1  12 0 85 485
2  23 2 0 85 485
2  24 11 0 85 485
0

0101000
+100 5 -99 5 *
Ve
1.5e-07
100 1156 640
0 0

0101101
*
Ed
 1.5e-07 1 1 0
1  13 0 -170 -10
2  25 2 0 -170 -10
2  26 12 0 -170 -10
0

0101000
+100 5 -97 5 *
Ve
1.5e-07
500 1156 640
0 0

0101101
*
Ed
 1.5e-07 1 1 0
1  14 0 -170 -10
2  27 2 0 -170 -10
2  28 13 0 -170 -10
0

0101000
+99 5 -95 5 *
Ed
 1.5e-07 1 1 0
1  15 0 85 485
2  29 2 0 85 485
2  30 14 0 85 485
0

0101000
+97 5 -95 5 *
Wi

0101100
-98 0 +96 0 -94 0 +93 0 *
Ve
1.5e-07
519 1156 790
0 0

0101101
*
Ve
1.5e-07
655 1156 790
0 0

0101101
*
Ed
 1.5e-07 1 1 0
1  16 0 294.5 430.5
2  31 2 0 294.5 430.5
2  32 15 0 294.5 430.5
0

0101000
+91 5 -90 5 *
Ve
1.5e-07
655 1156 650
0 0

0101101
*
Ed
 1.5e-07 1 1 0
1  17 0 -155 -15
2  33 2 0 -155 -15
2  34 16 0 -155 -15
0

0101000
+90 5 -88 5 *
Ve
1.5e-07
519 1156 650
0 0

0101101
*
Ed
 1.5e-07 1 1 0
1  18 0 294.5 430.5
2  35 2 0 294.5 430.5
2  36 17 0 294.5 430.5
0

0101000
+86 5 -88 5 *
Ed
 1.5e-07 1 1 0
1  19 0 -155 -15
2  37 2 0 -155 -15
2  38 18 0 -155 -15
0

0101000
+91 5 -86 5 *
Wi

0101100
-89 0 -87 0 +85 0 +84 0 *
Fa
0  1e-07 2 0

0111000
+110 0 +101 0 +92 0 +83 0 *
Ve
1e-07
670 1174 820
0 0

0101101
*
Ed
 1e-07 1 1 0
1  20 0 0 740
2  39 3 0 0 740
2  40 4 0 0 740
0

0101000
-81 5 +122 5 *
Ed
 1e-07 1 1 0
1  21 0 0 18
2  41 3 0 0 18
2  42 6 0 0 18
0

0101000
-81 5 +113 5 *
Wi

0101100
-121 0 -80 0 +79 0 +111 0 *
Fa
0  1e-07 3 0

0111000
+78 0 *
Ve
1e-07
670 1174 620
0 0

0101101
*
Ed
 1e-07 1 1 0
1  22 0 0 740
2  43 4 0 0 740
2  44 5 0 0 740
0

0101000
-76 5 +120 5 *
Ed
 1e-07 1 1 0
1  23 0 0 200
2  45 4 0 0 200
2  46 6 0 0 200
0

0101000
-81 5 +76 5 *
Wi

0101100
-75 0 -74 0 +119 0 +80 0 *
Ve
1.5e-07
-55 1174 790
0 0

0101101
*
Ve
1.5e-07
81 1174 790
0 0

0101101
*
Ed
 1.5e-07 1 1 0
1  24 0 7.5 143.5
2  47 4 0 7.5 143.5
2  48 7 0 7.5 143.5
0

0101000
+72 5 -71 5 *
Ve
1.5e-07
-55 1174 650
0 0

0101101
*
Ed
 1.5e-07 1 1 0
1  25 0 -155 -15
2  49 4 0 -155 -15
2  50 8 0 -155 -15
0

0101000
+72 5 -69 5 *
Ve
1.5e-07
81 1174 650
0 0

0101101
*
Ed
 1.5e-07 1 1 0
1  26 0 -155 -15
2  51 4 0 -155 -15
2  52 9 0 -155 -15
0

0101000
+71 5 -67 5 *
Ed
 1.5e-07 1 1 0
1  27 0 7.5 143.5
2  53 4 0 7.5 143.5
2  54 10 0 7.5 143.5
0

0101000
+69 5 -67 5 *
Wi

0101100
-70 0 +68 0 -66 0 +65 0 *
Ve
1.5e-07
100 1174 800
0 0

0101101
*
Ve
1.5e-07
500 1174 800
0 0

0101101
*
Ed
 1.5e-07 1 1 0
1  28 0 85 485
2  55 4 0 85 485
2  56 11 0 85 485
0

0101000
+63 5 -62 5 *
Ve
1.5e-07
100 1174 640
0 0

0101101
*
Ed
 1.5e-07 1 1 0
1  29 0 -170 -10
2  57 4 0 -170 -10
2  58 12 0 -170 -10
0

0101000
+63 5 -60 5 *
Ve
1.5e-07
500 1174 640
0 0

0101101
*
Ed
 1.5e-07 1 1 0
1  30 0 -170 -10
2  59 4 0 -170 -10
2  60 13 0 -170 -10
0

0101000
+62 5 -58 5 *
Ed
 1.5e-07 1 1 0
1  31 0 85 485
2  61 4 0 85 485
2  62 14 0 85 485
0

0101000
+60 5 -58 5 *
Wi

0101100
-61 0 +59 0 -57 0 +56 0 *
Ve
1.5e-07
519 1174 790
0 0

0101101
*
Ve
1.5e-07
655 1174 790
0 0

0101101
*
Ed
 1.5e-07 1 1 0
1  32 0 294.5 430.5
2  63 4 0 294.5 430.5
2  64 15 0 294.5 430.5
0

0101000
+54 5 -53 5 *
Ve
1.5e-07
655 1174 650
0 0

0101101
*
Ed
 1.5e-07 1 1 0
1  33 0 -155 -15
2  65 4 0 -155 -15
2  66 16 0 -155 -15
0

0101000
+53 5 -51 5 *
Ve
1.5e-07
519 1174 650
0 0

0101101
*
Ed
 1.5e-07 1 1 0
1  34 0 294.5 430.5
2  67 4 0 294.5 430.5
2  68 17 0 294.5 430.5
0

0101000
+49 5 -51 5 *
Ed
 1.5e-07 1 1 0
1  35 0 -155 -15
2  69 4 0 -155 -15
2  70 18 0 -155 -15
0

0101000
+54 5 -49 5 *
Wi

0101100
-52 0 -50 0 +48 0 +47 0 *
Fa
0  1e-07 4 0

0111000
+73 0 +64 0 +55 0 +46 0 *
Ed
 1e-07 1 1 0
1  36 0 0 18
2  71 5 0 0 18
2  72 6 0 0 18
0

0101000
-76 5 +115 5 *
Wi

0101100
-118 0 -75 0 +44 0 +114 0 *
Fa
0  1e-07 5 0

0111000
+43 0 *
Wi

0101100
-112 0 -79 0 +74 0 +44 0 *
Fa
0  1e-07 6 0

0111000
+41 0 *
Ed
 1e-07 1 1 0
1  37 0 1 19
2  73 7 0 1 19
2  74 8 0 1 19
0

0101000
+109 5 -72 5 *
Ed
 1e-07 1 1 0
1  38 0 1 19
2  75 7 0 1 19
2  76 9 0 1 19
0

0101000
+108 5 -71 5 *
Wi

0101100
-39 0 -70 0 +38 0 +107 0 *
Fa
0  1e-07 7 0

0111000
+37 0 *
Ed
 1e-07 1 1 0
1  39 0 1 19
2  77 8 0 1 19
2  78 10 0 1 19
0

0101000
+106 5 -69 5 *
Wi

0101100
-39 0 -68 0 +35 0 +105 0 *
Fa
0  1e-07 8 0

0111000
+34 0 *
Ed
 1e-07 1 1 0
1  40 0 1 19
2  79 9 0 1 19
2  80 10 0 1 19
0

0101000
+104 5 -67 5 *
Wi

0101100
-38 0 -66 0 +32 0 +103 0 *
Fa
0  1e-07 9 0

0111000
+31 0 *
Wi

0101100
-35 0 -65 0 +32 0 +102 0 *
Fa
0  1e-07 10 0

0111000
+29 0 *
Ed
 1e-07 1 1 0
1  41 0 1 19
2  81 11 0 1 19
2  82 12 0 1 19
0

0101000
+100 5 -63 5 *
Ed
 1e-07 1 1 0
1  42 0 1 19
2  83 11 0 1 19
2  84 13 0 1 19
0

0101000
+99 5 -62 5 *
Wi

0101100
-27 0 -61 0 +26 0 +98 0 *
Fa
0  1e-07 11 0

0111000
+25 0 *
Ed
 1e-07 1 1 0
1  43 0 1 19
2  85 12 0 1 19
2  86 14 0 1 19
0

0101000
+97 5 -60 5 *
Wi

0101100
-27 0 -59 0 +23 0 +96 0 *
Fa
0  1e-07 12 0

0111000
+22 0 *
Ed
 1e-07 1 1 0
1  44 0 1 19
2  87 13 0 1 19
2  88 14 0 1 19
0

0101000
+95 5 -58 5 *
Wi

0101100
-26 0 -57 0 +20 0 +94 0 *
Fa
0  1e-07 13 0

0111000
+19 0 *
Wi

0101100
-23 0 -56 0 +20 0 +93 0 *
Fa
0  1e-07 14 0

0111000
+17 0 *
Ed
 1e-07 1 1 0
1  45 0 1 19
2  89 15 0 1 19
2  90 18 0 1 19
0

0101000
+91 5 -54 5 *
Ed
 1e-07 1 1 0
1  46 0 1 19
2  91 15 0 1 19
2  92 16 0 1 19
0

0101000
+90 5 -53 5 *
Wi

0101100
-15 0 -52 0 +14 0 +89 0 *
Fa
0  1e-07 15 0

0111000
+13 0 *
Ed
 1e-07 1 1 0
1  47 0 1 19
2  93 16 0 1 19
2  94 17 0 1 19
0

0101000
+88 5 -51 5 *
Wi

0101100
-14 0 -50 0 +11 0 +87 0 *
Fa
0  1e-07 16 0

0111000
+10 0 *
Ed
 1e-07 1 1 0
1  48 0 1 19
2  95 17 0 1 19
2  96 18 0 1 19
0

0101000
+86 5 -49 5 *
Wi

0101100
-8 0 -48 0 +11 0 +85 0 *
Fa
0  1e-07 17 0

0111000
+7 0 *
Wi

0101100
-15 0 -47 0 +8 0 +84 0 *
Fa
0  1e-07 18 0

0111000
+5 0 *
Sh

0101100
-116 0 -82 0 +77 0 +45 0 -42 0 +40 0 -36 0 +33 0 -30 0 +28 0 
-24 0 +21 0 -18 0 +16 0 -12 0 -9 0 +6 0 +4 0 *
So

0100000
+3 0 *
Co

1100000
+2 0 *

+1 4 