DBRep_DrawableShape

CASCADE Topology V1, (c) Matra-Datavision
Locations 11
1
              1               0               0               0 
              0               1               0              52 
              0               0               1               0 
1
              1               0               0               0 
              0 1.11022302462516e-16              -1               0 
              0               1 1.11022302462516e-16               0 
1
              1               0               0             -90 
              0               1               0             806 
              0               0               1           -1144 
1
              1               0               0               0 
              0               1               0               0 
              0               0               1              -0 
1
              1               0               0               0 
              0               1               0               0 
              0               0               1               1 
1
              1               0               0               0 
              0               1               0               0 
              0               0               1              -1 
2  1 1 2 1 3 1 4 1 5 1 6 1 0
2  1 1 2 1 3 1 0
2  3 -1 2 -1 1 -1 0
1
              1               0               0               0 
              0               1               0               0 
              0               0               1              12 
2  1 1 2 1 3 1 4 1 5 1 6 1 10 1 0
Curve2ds 24
8 -156 -8
1 8 16 -1 0 
8 -156 -8
1 -8 -1 -1 -0 
8 8 396
1 16 8 0 1 
8 8 396
1 -8 1 1 0 
8 -156 -8
1 8 404 -1 0 
8 -156 -8
1 -8 -1 -1 -0 
8 8 396
1 164 8 0 1 
8 8 396
1 -8 1 1 0 
1 0 0 0 1 
1 148 0 0 -1 
8 -156 -8
1 8 16 -1 0 
8 -156 -8
1 -8 -13 -1 -0 
1 0 0 0 1 
1 0 0 0 -1 
8 8 396
1 16 8 0 1 
8 8 396
1 -8 13 1 0 
1 0 0 0 -1 
1 388 0 0 1 
1 388 0 0 1 
1 148 0 0 -1 
8 -156 -8
1 8 404 -1 0 
8 -156 -8
1 -8 -13 -1 -0 
8 8 396
1 164 8 0 1 
8 8 396
1 -8 13 1 0 
Curves 12
1 106 1092 634 -0 0 -1 
1 98 1092 642 1 0 -0 
1 494 1092 634 -0 0 -1 
1 98 1092 790 1 0 -0 
1 106 1091 790 -0 1 0 
1 106 1104 634 -0 0 -1 
1 106 1091 642 -0 1 0 
1 98 1104 642 1 0 -0 
1 494 1091 642 -0 1 0 
1 494 1091 790 -0 1 0 
1 494 1104 634 -0 0 -1 
1 98 1104 790 1 0 -0 
Polygon3D 0
PolygonOnTriangulations 0
Surfaces 7
1 90 1092 626 -0 1 0 0 0 1 1 0 -0 
1 90 1092 626 -0 1 0 0 0 1 1 0 -0 
1 106 1091 642 1 0 -0 0 0 1 0 -1 0 
1 106 1091 642 0 0 1 1 0 -0 -0 1 0 
1 494 1091 642 1 0 -0 0 0 1 0 -1 0 
1 106 1091 790 0 0 1 1 0 -0 -0 1 0 
1 90 1104 626 -0 1 0 0 0 1 1 0 -0 
Triangulations 0

TShapes 34
Ve
1.5e-07
16 16 0
0 0

0101101
*
Ve
1.5e-07
16 164 0
0 0

0101101
*
Ed
 1.5e-07 1 1 0
1  1 0 -156 -8
2  1 2 0 -156 -8
2  2 3 0 -156 -8
0

0101000
+34 9 -33 9 *
Ve
1.5e-07
404 164 0
0 0

0101101
*
Ed
 1.5e-07 1 1 0
1  2 0 8 396
2  3 2 0 8 396
2  4 4 0 8 396
0

0101000
+33 9 -31 9 *
Ve
1.5e-07
404 16 0
0 0

0101101
*
Ed
 1.5e-07 1 1 0
1  3 0 -156 -8
2  5 2 0 -156 -8
2  6 5 0 -156 -8
0

0101000
+29 9 -31 9 *
Ed
 1.5e-07 1 1 0
1  4 0 8 396
2  7 2 0 8 396
2  8 6 0 8 396
0

0101000
+34 9 -29 9 *
Wi

0101100
-32 8 -30 8 +28 8 +27 8 *
Fa
0  1e-07 1 7

0101000
+26 0 *
Ve
1.5e-07
16 16 12
0 0

0101101
*
Ed
 1e-07 1 1 0
1  5 0 1 13
2  9 6 0 1 13
2  10 3 0 1 13
0

0101000
+34 9 -24 9 *
Ve
1.5e-07
16 164 12
0 0

0101101
*
Ed
 1.5e-07 1 1 0
1  6 0 -156 -8
2  11 7 0 -156 -8
2  12 3 0 -156 -8
0

0101000
+24 9 -22 9 *
Ed
 1e-07 1 1 0
1  7 0 1 13
2  13 4 0 1 13
2  14 3 0 1 13
0

0101000
+33 9 -22 9 *
Wi

0101100
-23 8 -21 8 +20 8 +32 8 *
Fa
0  1e-07 3 8

0101000
+19 0 *
Ve
1.5e-07
404 164 12
0 0

0101101
*
Ed
 1.5e-07 1 1 0
1  8 0 8 396
2  15 7 0 8 396
2  16 4 0 8 396
0

0101000
+22 9 -17 9 *
Ed
 1e-07 1 1 0
1  9 0 1 13
2  17 5 0 1 13
2  18 4 0 1 13
0

0101000
+31 9 -17 9 *
Wi

0101100
-20 8 -16 8 +15 8 +30 8 *
Fa
0  1e-07 4 8

0101000
+14 0 *
Ve
1.5e-07
404 16 12
0 0

0101101
*
Ed
 1e-07 1 1 0
1  10 0 1 13
2  19 6 0 1 13
2  20 5 0 1 13
0

0101000
+29 9 -12 9 *
Ed
 1.5e-07 1 1 0
1  11 0 -156 -8
2  21 7 0 -156 -8
2  22 5 0 -156 -8
0

0101000
+12 9 -17 9 *
Wi

0101100
-11 8 -10 8 +15 8 +28 8 *
Fa
0  1e-07 5 8

0101000
+9 0 *
Ed
 1.5e-07 1 1 0
1  12 0 8 396
2  23 7 0 8 396
2  24 6 0 8 396
0

0101000
+24 9 -12 9 *
Wi

0101100
-23 8 -7 8 +11 8 +27 8 *
Fa
0  1e-07 6 8

0101000
+6 0 *
Wi

0101100
-21 8 -16 8 +10 8 +7 8 *
Fa
0  1e-07 1 11

0101000
+4 0 *
Sh

0101100
-25 0 -18 0 -13 0 +8 0 +5 0 +3 0 *
So

0100000
+2 0 *

+1 0 