DBRep_DrawableShape

CASCADE Topology V1, (c) Matra-Datavision
Locations 0
Curve2ds 0
Curves 8
1 16 172 9.9920072216264089e-15 0 1 0 
2 18 162 9.9920072216264089e-15 -0 -0 -1 0 -1 0 -1 0 0 2
1 8 164 9.9920072216264089e-15 1 0 0 
2 402 162 9.9920072216264089e-15 -0 0 -1 -1 -0 0 0 1 0 2
1 404 172 9.9920072216264089e-15 0 1 0 
2 402 18 9.9920072216264089e-15 -0 0 -1 0 1 0 1 0 -0 2
1 8 16 9.9920072216264089e-15 1 0 0 
2 18 18 9.9920072216264089e-15 0 0 -1 1 0 0 0 -1 0 2
Polygon3D 0
PolygonOnTriangulations 0
Surfaces 1
1 210 90 9.9920072216264089e-15 0 0 1 1 0 -0 -0 1 0 
Triangulations 0

TShapes 19
Ve
1.50000007549517e-07
16 18 9.99200722162641e-15
0 0

0101101
*
Ve
1.50000008881784e-07
16 162 9.99200722162641e-15
0 0

0101101
*
Ed
 1.50000007549517e-07 1 1 0
1  1 0 -154 -10
0

0101000
+19 0 -18 0 *
Ve
1.50000009992007e-07
18 164 9.99200722162641e-15
0 0

0101101
*
Ed
 1.00000008213751e-07 1 1 0
1  2 0 1.5707963267949 3.14159265358979
0

0101000
+18 0 -16 0 *
Ve
1.50000009992007e-07
402 164 9.99200722162641e-15
0 0

0101101
*
Ed
 1.50000009992007e-07 1 1 0
1  3 0 10 394
0

0101000
+16 0 -14 0 *
Ve
1.50000008881784e-07
404 162 9.99200722162641e-15
0 0

0101101
*
Ed
 1.00000008213751e-07 1 1 0
1  4 0 1.5707963267949 3.14159265358979
0

0101000
+14 0 -12 0 *
Ve
1.50000007549517e-07
404 18 9.99200722162641e-15
0 0

0101101
*
Ed
 1.50000007549517e-07 1 1 0
1  5 0 -154 -10
0

0101000
+10 0 -12 0 *
Ve
1.50000009992007e-07
402 16 9.99200722162641e-15
0 0

0101101
*
Ed
 1.00000008213751e-07 1 1 0
1  6 0 1.5707963267949 3.14159265358979
0

0101000
+10 0 -8 0 *
Ve
1.50000009992007e-07
18 16 9.99200722162641e-15
0 0

0101101
*
Ed
 1.50000009992007e-07 1 1 0
1  7 0 10 394
0

0101000
+6 0 -8 0 *
Ed
 1.00000008213751e-07 1 1 0
1  8 0 1.5707963267949 3.14159265358979
0

0101000
+6 0 -19 0 *
Wi

0101100
+17 0 +15 0 +13 0 +11 0 -9 0 +7 0 -5 0 +4 0 *
Fa
0  1e-07 1 0

0101000
-3 0 *
Sh

1101000
+2 0 *

+1 0 