DBRep_DrawableShape

CASCADE Topology V1, (c) Matra-Datavision
Locations 5
1
              1               0               0               0 
              0               1               0              52 
              0               0               1               0 
1
              1               0               0               0 
              0 1.11022302462516e-16              -1               0 
              0               1 1.11022302462516e-16               0 
1
              1               0               0             -90 
              0               1               0             806 
              0               0               1           -1144 
2  1 1 2 1 3 1 0
2  1 -1 0
Curve2ds 48
1 0 0 1 0 
1 0 0 1 0 
1 180 0 0 -1 
1 0 0 0 1 
1 0 -12 1 0 
1 0 0 1 0 
1 0 0 0 -1 
1 0 0 0 1 
1 0 0 0 1 
1 0 0 1 0 
1 0 420 1 0 
1 0 0 1 0 
1 180 0 0 1 
1 0 0 1 0 
8 8 396
1 164 8 0 1 
8 8 396
1 -8 1 1 0 
8 -156 -8
1 8 404 -1 0 
8 -156 -8
1 -8 -1 -1 -0 
8 8 396
1 16 8 0 1 
8 8 396
1 -8 1 1 0 
8 -156 -8
1 8 16 -1 0 
8 -156 -8
1 -8 -1 -1 -0 
1 0 12 1 0 
1 180 0 0 1 
1 420 0 0 1 
1 180 0 0 -1 
1 0 0 0 1 
1 0 12 1 0 
1 0 420 1 0 
1 0 -12 1 0 
8 8 396
1 164 8 0 1 
8 8 396
1 -8 13 1 0 
8 -156 -8
1 8 404 -1 0 
8 -156 -8
1 -8 -13 -1 -0 
8 8 396
1 16 8 0 1 
8 8 396
1 -8 13 1 0 
8 -156 -8
1 8 16 -1 0 
8 -156 -8
1 -8 -13 -1 -0 
1 420 0 0 1 
1 0 0 0 -1 
1 0 0 0 1 
1 148 0 0 -1 
1 388 0 0 1 
1 148 0 0 -1 
1 0 0 0 -1 
1 388 0 0 1 
1 0 0 0 1 
1 0 0 0 -1 
Curves 24
1 90 1092 626 0 0 1 
1 90 1092 806 -0 1 0 
1 90 1104 626 0 0 1 
1 90 1092 626 -0 1 0 
1 90 1092 626 1 0 -0 
1 510 1092 626 0 0 1 
1 90 1092 806 1 0 -0 
1 98 1092 790 1 0 -0 
1 494 1092 634 -0 0 -1 
1 98 1092 642 1 0 -0 
1 106 1092 634 -0 0 -1 
1 90 1104 806 1 0 -0 
1 510 1092 806 -0 1 0 
1 90 1104 626 1 0 -0 
1 510 1104 626 0 0 1 
1 98 1104 790 1 0 -0 
1 494 1104 634 -0 0 -1 
1 98 1104 642 1 0 -0 
1 106 1104 634 -0 0 -1 
1 510 1092 626 -0 1 0 
1 106 1091 790 -0 1 0 
1 494 1091 790 -0 1 0 
1 494 1091 642 -0 1 0 
1 106 1091 642 -0 1 0 
Polygon3D 0
PolygonOnTriangulations 0
Surfaces 10
1 90 1092 626 1 0 -0 0 0 1 0 -1 0 
1 90 1092 626 -0 1 0 0 0 1 1 0 -0 
1 90 1092 806 0 0 1 1 0 -0 -0 1 0 
1 90 1104 626 -0 1 0 0 0 1 1 0 -0 
1 90 1092 626 0 0 1 1 0 -0 -0 1 0 
1 510 1092 626 1 0 -0 0 0 1 0 -1 0 
1 106 1091 790 0 0 1 1 0 -0 -0 1 0 
1 494 1091 642 1 0 -0 0 0 1 0 -1 0 
1 106 1091 642 0 0 1 1 0 -0 -0 1 0 
1 106 1091 642 1 0 -0 0 0 1 0 -1 0 
Triangulations 0

TShapes 65
Ve
1e-07
90 1144 806
0 0

0101101
*
Ve
1e-07
90 1144 626
0 0

0101101
*
Ed
 1e-07 1 1 0
1  1 0 0 180
2  1 1 0 0 180
2  2 2 0 0 180
0

0101000
-65 5 +64 5 *
Ve
1e-07
90 1156 806
0 0

0101101
*
Ed
 1e-07 1 1 0
1  2 0 0 12
2  3 1 0 0 12
2  4 3 0 0 12
0

0101000
-62 5 +65 5 *
Ve
1e-07
90 1156 626
0 0

0101101
*
Ed
 1e-07 1 1 0
1  3 0 0 180
2  5 1 0 0 180
2  6 4 0 0 180
0

0101000
-62 5 +60 5 *
Ed
 1e-07 1 1 0
1  4 0 0 12
2  7 1 0 0 12
2  8 5 0 0 12
0

0101000
-60 5 +64 5 *
Wi

0101100
-63 0 -61 0 +59 0 +58 0 *
Fa
0  1e-07 1 0

0111000
+57 0 *
Ve
1e-07
510 1144 626
0 0

0101101
*
Ed
 1e-07 1 1 0
1  5 0 0 420
2  9 2 0 0 420
2  10 5 0 0 420
0

0101000
-55 5 +64 5 *
Ve
1e-07
510 1144 806
0 0

0101101
*
Ed
 1e-07 1 1 0
1  6 0 0 180
2  11 2 0 0 180
2  12 6 0 0 180
0

0101000
-53 5 +55 5 *
Ed
 1e-07 1 1 0
1  7 0 0 420
2  13 2 0 0 420
2  14 3 0 0 420
0

0101000
-53 5 +65 5 *
Wi

0101100
-54 0 -52 0 +63 0 +51 0 *
Ve
1.5e-07
106 1144 790
0 0

0101101
*
Ve
1.5e-07
494 1144 790
0 0

0101101
*
Ed
 1.5e-07 1 1 0
1  8 0 8 396
2  15 2 0 8 396
2  16 7 0 8 396
0

0101000
+49 5 -48 5 *
Ve
1.5e-07
494 1144 642
0 0

0101101
*
Ed
 1.5e-07 1 1 0
1  9 0 -156 -8
2  17 2 0 -156 -8
2  18 8 0 -156 -8
0

0101000
+48 5 -46 5 *
Ve
1.5e-07
106 1144 642
0 0

0101101
*
Ed
 1.5e-07 1 1 0
1  10 0 8 396
2  19 2 0 8 396
2  20 9 0 8 396
0

0101000
+44 5 -46 5 *
Ed
 1.5e-07 1 1 0
1  11 0 -156 -8
2  21 2 0 -156 -8
2  22 10 0 -156 -8
0

0101000
+49 5 -44 5 *
Wi

0101100
-47 0 -45 0 +43 0 +42 0 *
Fa
0  1e-07 2 0

0111000
+50 0 +41 0 *
Ve
1e-07
510 1156 806
0 0

0101101
*
Ed
 1e-07 1 1 0
1  12 0 0 420
2  23 3 0 0 420
2  24 4 0 0 420
0

0101000
-39 5 +62 5 *
Ed
 1e-07 1 1 0
1  13 0 0 12
2  25 3 0 0 12
2  26 6 0 0 12
0

0101000
-39 5 +53 5 *
Wi

0101100
-61 0 -38 0 +37 0 +51 0 *
Fa
0  1e-07 3 0

0111000
+36 0 *
Ve
1e-07
510 1156 626
0 0

0101101
*
Ed
 1e-07 1 1 0
1  14 0 0 420
2  27 4 0 0 420
2  28 5 0 0 420
0

0101000
-34 5 +60 5 *
Ed
 1e-07 1 1 0
1  15 0 0 180
2  29 4 0 0 180
2  30 6 0 0 180
0

0101000
-39 5 +34 5 *
Wi

0101100
-33 0 -32 0 +59 0 +38 0 *
Ve
1.5e-07
106 1156 790
0 0

0101101
*
Ve
1.5e-07
494 1156 790
0 0

0101101
*
Ed
 1.5e-07 1 1 0
1  16 0 8 396
2  31 4 0 8 396
2  32 7 0 8 396
0

0101000
+30 5 -29 5 *
Ve
1.5e-07
494 1156 642
0 0

0101101
*
Ed
 1.5e-07 1 1 0
1  17 0 -156 -8
2  33 4 0 -156 -8
2  34 8 0 -156 -8
0

0101000
+29 5 -27 5 *
Ve
1.5e-07
106 1156 642
0 0

0101101
*
Ed
 1.5e-07 1 1 0
1  18 0 8 396
2  35 4 0 8 396
2  36 9 0 8 396
0

0101000
+25 5 -27 5 *
Ed
 1.5e-07 1 1 0
1  19 0 -156 -8
2  37 4 0 -156 -8
2  38 10 0 -156 -8
0

0101000
+30 5 -25 5 *
Wi

0101100
-28 0 -26 0 +24 0 +23 0 *
Fa
0  1e-07 4 0

0111000
+31 0 +22 0 *
Ed
 1e-07 1 1 0
1  20 0 0 12
2  39 5 0 0 12
2  40 6 0 0 12
0

0101000
-34 5 +55 5 *
Wi

0101100
-58 0 -33 0 +20 0 +54 0 *
Fa
0  1e-07 5 0

0111000
+19 0 *
Wi

0101100
-52 0 -37 0 +32 0 +20 0 *
Fa
0  1e-07 6 0

0111000
+17 0 *
Ed
 1e-07 1 1 0
1  21 0 1 13
2  41 7 0 1 13
2  42 10 0 1 13
0

0101000
+49 5 -30 5 *
Ed
 1e-07 1 1 0
1  22 0 1 13
2  43 7 0 1 13
2  44 8 0 1 13
0

0101000
+48 5 -29 5 *
Wi

0101100
-15 0 -28 0 +14 0 +47 0 *
Fa
0  1e-07 7 0

0111000
+13 0 *
Ed
 1e-07 1 1 0
1  23 0 1 13
2  45 8 0 1 13
2  46 9 0 1 13
0

0101000
+46 5 -27 5 *
Wi

0101100
-14 0 -26 0 +11 0 +45 0 *
Fa
0  1e-07 8 0

0111000
+10 0 *
Ed
 1e-07 1 1 0
1  24 0 1 13
2  47 9 0 1 13
2  48 10 0 1 13
0

0101000
+44 5 -25 5 *
Wi

0101100
-8 0 -24 0 +11 0 +43 0 *
Fa
0  1e-07 9 0

0111000
+7 0 *
Wi

0101100
-15 0 -23 0 +8 0 +42 0 *
Fa
0  1e-07 10 0

0111000
+5 0 *
Sh

0101100
-56 0 -40 0 +35 0 +21 0 -18 0 +16 0 -12 0 -9 0 +6 0 +4 0 
*
So

0100000
+3 0 *
Co

1100000
+2 0 *

+1 4 