DBRep_DrawableShape

CASCADE Topology V1, (c) Matra-Datavision
Locations 8
1
              1               0               0               0 
              0               1               0               0 
              0               0               1              -1 
1
              1               0               0               0 
              0               1               0              52 
              0               0               1               0 
1
              1               0               0               0 
              0 1.11022302462516e-16              -1               0 
              0               1 1.11022302462516e-16               0 
1
              1               0               0             -80 
              0               1               0             800 
              0               0               1           -1219 
1
              1               0               0               0 
              0               1               0               0 
              0               0               1              -0 
1
              1               0               0               0 
              0               1               0               0 
              0               0               1               1 
2  2 1 3 1 4 1 5 1 6 1 0
2  6 -1 5 -1 4 -1 3 -1 2 -1 0
Curve2ds 4
1 0 0 0 1 
1 0 440 1 0 
1 96 0 0 1 
1 0 0 1 0 
Curves 4
1 80 1167 704 1 0 -0 
1 520 1167 704 0 0 1 
1 80 1167 800 1 0 -0 
1 80 1167 704 0 0 1 
Polygon3D 0
PolygonOnTriangulations 0
Surfaces 1
1 80 1167 704 -0 1 0 0 0 1 1 0 -0 
Triangulations 0

TShapes 9
Ve
1e-07
0 96 1
0 0

0101101
*
Ve
1e-07
440 96 1
0 0

0101101
*
Ed
 1e-07 1 1 0
1  1 0 0 440
2  1 1 0 0 440
0

0101000
+9 8 -8 8 *
Ve
1e-07
440 0 1
0 0

0101101
*
Ed
 1e-07 1 1 0
1  2 0 0 96
2  2 1 0 0 96
0

0101000
+8 8 -6 8 *
Ve
1e-07
0 0 1
0 0

0101101
*
Ed
 1e-07 1 1 0
1  3 0 0 440
2  3 1 0 0 440
0

0101000
+4 8 -6 8 *
Ed
 1e-07 1 1 0
1  4 0 0 96
2  4 1 0 0 96
0

0101000
+9 8 -4 8 *
Wi

0101100
-7 7 -5 7 +3 7 +2 7 *

+1 1 