DBRep_DrawableShape

CASCADE Topology V1, (c) Matra-Datavision
Locations 8
1
              1               0               0               0 
              0               1               0               0 
              0               0               1              -1 
1
              1               0               0               0 
              0               1               0              52 
              0               0               1               0 
1
1.11022302462516e-16               0              -1               0 
              0               1               0               0 
              1               0 1.11022302462516e-16               0 
1
              1               0               0             780 
              0               1               0           -1174 
              0               0               1            -502 
1
              1               0               0               0 
              0               1               0               0 
              0               0               1 -1.13686837721616e-13 
1
              1               0               0               0 
              0               1               0               0 
              0               0               1               1 
2  2 1 3 1 4 1 5 1 6 1 0
2  6 -1 5 -1 4 -1 3 -1 2 -1 0
Curve2ds 4
1 0 0 1 0 
1 70 0 0 -1 
1 0 -45 1 0 
1 0 0 0 -1 
Curves 4
1 502 1122 710 0 0 1 
1 502 1122 780 -0 1 0 
1 502 1167 710 0 0 1 
1 502 1122 710 -0 1 0 
Polygon3D 0
PolygonOnTriangulations 0
Surfaces 1
1 502 1122 710 1 0 -0 0 0 1 0 -1 0 
Triangulations 0

TShapes 9
Ve
1.00000160777468e-07
70.0000000000001 0 0.999999999999943
0 0

0101101
*
Ve
1.00000160777468e-07
5.6843418860808e-14 0 0.999999999999972
0 0

0101101
*
Ed
 1.00000160777468e-07 1 1 0
1  1 0 0 70
2  1 1 0 0 70
0

0101000
+9 8 -8 8 *
Ve
1.00000160777468e-07
5.6843418860808e-14 45 0.999999999999972
0 0

0101101
*
Ed
 1.00000160777468e-07 1 1 0
1  2 0 0 45
2  2 1 0 0 45
0

0101000
+8 8 -6 8 *
Ve
1.00000160777468e-07
70.0000000000001 45 0.999999999999943
0 0

0101101
*
Ed
 1.00000160777468e-07 1 1 0
1  3 0 0 70
2  3 1 0 0 70
0

0101000
+4 8 -6 8 *
Ed
 1.00000160777468e-07 1 1 0
1  4 0 0 45
2  4 1 0 0 45
0

0101000
+9 8 -4 8 *
Wi

0101100
-7 7 -5 7 +3 7 +2 7 *

+1 1 