DBRep_DrawableShape

CASCADE Topology V1, (c) Matra-Datavision
Locations 12
1
             -1               0 -1.22464679914735e-16               0 
              0               1               0               0 
1.22464679914735e-16               0              -1               0 
1
              1               0               0 -49.9999999999999 
              0               1               0           -1174 
              0               0               1             801 
1
              1               0               0               0 
              0               1               0               0 
              0               0               1              -0 
1
              1               0               0               0 
              0               1               0               0 
              0               0               1               1 
1
              1               0               0               0 
              0               1               0               0 
              0               0               1              -1 
2  1 1 2 1 3 1 4 1 5 1 0
2  5 -1 4 -1 3 -1 2 -1 1 -1 0
1
              1               0               0               0 
              0               1               0               0 
              0               0               1              12 
2  1 1 2 1 3 1 4 1 5 1 8 1 0
2  8 -1 5 -1 4 -1 3 -1 2 -1 1 -1 0
2  1 1 2 1 3 1 4 1 0
2  5 1 8 1 0
Curve2ds 24
1 -7.4987989133092891e-32 6.1232339957367663e-16 1.2246467991473532e-16 -1 
1 0 0 0 -1 
1 22 3.3065463576978537e-15 1.2246467991473532e-16 -1 
1 0 0 0 -1 
1 -5 0 1 0 
8 5 27
1 5 42 1 0 
1 -4.9999999999999982 -12 1 0 
8 5 27
1 5 42 1 0 
1 32 0 0 -1 
1 22 3.3065463576978537e-15 1.2246467991473532e-16 -1 
1 37 0 1 0 
8 -37 -5
1 32 5 0 -1 
1 37 -12 1 0 
8 -37 -5
1 32 5 0 -1 
1 -7.4987989133092891e-32 6.1232339957367663e-16 1.2246467991473532e-16 -1 
1 32 0 0 -1 
1 -5 0 1 0 
8 5 27
1 5 10 1 0 
1 -4.9999999999999982 -12 1 0 
8 5 27
1 5 10 1 0 
1 37 0 1 0 
8 -37 -5
1 10 5 0 -1 
1 37 -12 1 0 
8 -37 -5
1 10 5 0 -1 
Curves 12
1 22 32 0 0 0 1 
1 0 32 0 0 0 1 
1 -77 1206 801 1 0 0 
1 -77 1206 801 1 0 0 
1 0 0 0 0 0 1 
1 -50 1169 801 0 -1 0 
1 -50 1169 801 0 -1 0 
1 22 0 0 0 0 1 
1 -77 1174 801 1 0 0 
1 -77 1174 801 1 0 0 
1 -72 1169 801 0 -1 0 
1 -72 1169 801 0 -1 0 
Polygon3D 0
PolygonOnTriangulations 0
Surfaces 6
1 22 32 6.1232339957367663e-16 0 -1 0 -1 0 1.2246467991473532e-16 -1.2246467991473532e-16 -0 -1 
1 22 32 0 1 -0 0 -0 -1 0 0 -0 -1 
1 0 32 0 1 -0 0 -0 -1 0 0 -0 -1 
1 -82 1164 801 0 0 1 1 0 -0 -0 1 0 
1 -82 1164 801 0 0 1 1 0 -0 -0 1 0 
1 22 0 6.1232339957367663e-16 0 -1 0 -1 0 1.2246467991473532e-16 -1.2246467991473532e-16 -0 -1 
Triangulations 0

TShapes 34
Ve
1.5e-07
22 32 0
0 0

0101101
*
Ve
1.5e-07
22 32 12
0 0

0101101
*
Ed
 1.5e-07 1 1 0
1  1 0 0 12
2  1 1 0 0 12
2  2 2 0 0 12
0

0101000
+34 0 -33 0 *
Ve
1.5e-07
0 32 0
0 0

0101101
*
Ve
1.5e-07
0 32 12
0 0

0101101
*
Ed
 1.5e-07 1 1 0
1  2 0 0 12
2  3 1 0 0 12
2  4 3 0 0 12
0

0101000
+31 0 -30 0 *
Ed
 1.5e-07 1 1 0
1  3 0 5 27
2  5 1 7 5 27
2  6 4 0 5 27
0

0101000
+34 7 -31 7 *
Ed
 1.5e-07 1 1 0
1  4 0 5 27
2  7 1 10 5 27
2  8 5 0 5 27
0

0101000
+33 10 -30 10 *
Wi

0101100
+32 0 -29 0 -28 6 +27 9 *
Fa
0  1.5e-07 1 0

0101000
+26 0 *
Ve
1.5e-07
0 0 0
0 0

0101101
*
Ve
1.5e-07
0 0 12
0 0

0101101
*
Ed
 1.5e-07 1 1 0
1  5 0 0 12
2  9 3 0 0 12
2  10 6 0 0 12
0

0101000
+24 0 -23 0 *
Ed
 1.5e-07 1 1 0
1  6 0 -37 -5
2  11 3 7 -37 -5
2  12 4 0 -37 -5
0

0101000
+31 7 -24 7 *
Ed
 1.5e-07 1 1 0
1  7 0 -37 -5
2  13 3 10 -37 -5
2  14 5 0 -37 -5
0

0101000
+30 10 -23 10 *
Wi

0101100
+29 0 -22 0 -21 6 +20 9 *
Fa
0  1.5e-07 3 0

0101000
+19 0 *
Ve
1.5e-07
22 0 0
0 0

0101101
*
Ve
1.5e-07
22 0 12
0 0

0101101
*
Ed
 1.5e-07 1 1 0
1  8 0 0 12
2  15 6 0 0 12
2  16 2 0 0 12
0

0101000
+17 0 -16 0 *
Ed
 1.5e-07 1 1 0
1  9 0 5 27
2  17 6 7 5 27
2  18 4 0 5 27
0

0101000
+17 7 -24 7 *
Ed
 1.5e-07 1 1 0
1  10 0 5 27
2  19 6 10 5 27
2  20 5 0 5 27
0

0101000
+16 10 -23 10 *
Wi

0101100
+15 0 -22 0 -14 6 +13 9 *
Fa
0  1.5e-07 6 0

0101000
+12 0 *
Ed
 1.5e-07 1 1 0
1  11 0 -37 -5
2  21 2 7 -37 -5
2  22 4 0 -37 -5
0

0101000
+34 7 -17 7 *
Ed
 1.5e-07 1 1 0
1  12 0 -37 -5
2  23 2 10 -37 -5
2  24 5 0 -37 -5
0

0101000
+33 10 -16 10 *
Wi

0101100
+32 0 -15 0 -10 6 +9 9 *
Fa
0  1.5e-07 2 0

0101000
+8 0 *
Wi

0101100
-28 11 -21 11 +14 11 +10 11 *
Fa
0  1.5e-07 4 11

0101000
+6 0 *
Wi

0101100
-27 11 -20 11 +13 11 +9 11 *
Fa
0  1.5e-07 5 11

0101000
+4 0 *
Sh

0101100
-25 0 -18 0 +11 0 +7 0 +5 5 -3 12 *
So

1100000
+2 0 *

+1 0 