DBRep_DrawableShape

CASCADE Topology V1, (c) Matra-Datavision
Locations 8
1
              1               0               0               0 
              0               1               0               0 
              0               0               1               0 
1
              1               0               0               0 
              0 1.11022302462516e-16              -1               0 
              0               1 1.11022302462516e-16               0 
1
              1               0               0              52 
              0               1               0            1272 
              0               0               1         -1310.1 
1
              1               0               0               0 
              0               1               0               0 
              0               0               1 -2.52435489670724e-29 
1
              1               0               0               0 
              0               1               0               0 
              0               0               1               1 
1
              1               0               0               0 
              0               1               0               0 
              0               0               1              -1 
2  1 1 2 1 3 1 4 1 5 1 6 1 0
2  6 -1 5 -1 4 -1 3 -1 2 -1 1 -1 0
Curve2ds 0
Curves 1
2 102.5 1310.0999999999997 1212.5 -0 1 0 0 0 1 1 0 -0 2.25
Polygon3D 0
PolygonOnTriangulations 0
Surfaces 1
1 154.50000000000003 59.500000000000227 0 0 0 1 1 0 -0 -0 1 0 
Triangulations 0

TShapes 5
Ve
1.00000702956185e-07
154.5 57.2500000000002 1.51582450295488e-13
0 0

0101101
*
Ed
 1.0000062716496e-07 1 1 0
1  1 0 0 6.28318530717959
0

0101000
+5 8 -5 8 *
Wi

0101100
-4 7 *
Fa
0  1e-07 1 0

0101000
-3 0 *
Sh

1101000
+2 0 *

+1 0 