DBRep_DrawableShape

CASCADE Topology V1, (c) Matra-Datavision
Locations 0
Curve2ds 0
Curves 8
1 67 601.00000000000011 1.0436096431476471e-14 0 1 0 
2 69 572.00000000000011 1.0436096431476471e-14 -0 -0 -1 0 -1 0 -1 0 0 2
1 33.5 574.00000000000011 1.0436096431476471e-14 1 0 0 
2 285 572.00000000000011 1.0436096431476471e-14 -0 0 -1 -1 -0 0 0 1 0 2
1 287 601.00000000000011 1.0436096431476471e-14 0 1 0 
2 285 496.00000000000011 1.0436096431476471e-14 -0 0 -1 0 1 0 1 0 -0 2
1 33.5 494.00000000000011 1.0436096431476471e-14 1 0 0 
2 69 496.00000000000011 1.0436096431476471e-14 0 0 -1 1 0 0 0 -1 0 2
Polygon3D 0
PolygonOnTriangulations 0
Surfaces 1
1 177 534.00000000000011 1.0436096431476471e-14 0 0 1 1 0 -0 -0 1 0 
Triangulations 0

TShapes 19
Ve
1.50000228816965e-07
67 496 1.04360964314765e-14
0 0

0101101
*
Ve
1.50000228113824e-07
67 572 1.04360964314765e-14
0 0

0101101
*
Ed
 1.50000228113824e-07 1 1 0
1  1 0 -105 -29
0

0101000
+19 0 -18 0 *
Ve
1.50000217159624e-07
69 574 1.04360964314765e-14
0 0

0101101
*
Ed
 1.00000004438992e-07 1 1 0
1  2 0 1.5707963267949 3.14159265358979
0

0101000
+18 0 -16 0 *
Ve
1.50000217159624e-07
285 574 1.04360964314765e-14
0 0

0101101
*
Ed
 1.50000217159624e-07 1 1 0
1  3 0 35.5 251.5
0

0101000
+16 0 -14 0 *
Ve
1.50000228113824e-07
287 572 1.04360964314765e-14
0 0

0101101
*
Ed
 1.00000004438992e-07 1 1 0
1  4 0 1.5707963267949 3.14159265358979
0

0101000
+14 0 -12 0 *
Ve
1.50000228816965e-07
287 496 1.04360964314765e-14
0 0

0101101
*
Ed
 1.50000228113824e-07 1 1 0
1  5 0 -105 -29
0

0101000
+10 0 -12 0 *
Ve
1.50000217159624e-07
285 494 1.04360964314765e-14
0 0

0101101
*
Ed
 1.00000004438992e-07 1 1 0
1  6 0 1.57079632679489 3.14159265358979
0

0101000
+10 0 -8 0 *
Ve
1.50000217159624e-07
69 494 1.04360964314765e-14
0 0

0101101
*
Ed
 1.50000217159624e-07 1 1 0
1  7 0 35.5 251.5
0

0101000
+6 0 -8 0 *
Ed
 1.00000004438992e-07 1 1 0
1  8 0 1.5707963267949 3.14159265358979
0

0101000
+6 0 -19 0 *
Wi

0101100
+17 0 +15 0 +13 0 +11 0 -9 0 +7 0 -5 0 +4 0 *
Fa
0  1e-07 1 0

0101000
-3 0 *
Sh

1101000
+2 0 *

+1 0 