DBRep_DrawableShape

CASCADE Topology V1, (c) Matra-Datavision
Locations 53
1
              1               0               0               0 
              0               1               0               0 
              0               0               1               0 
1
              1               0               0               0 
              0 1.11022302462516e-16              -1               0 
              0               1 1.11022302462516e-16               0 
1
              1               0               0              52 
              0               1               0            1272 
              0               0               1         -1310.1 
1
              1               0               0               0 
              0               1               0               0 
              0               0               1 -2.27373675443232e-13 
1
              1               0               0               0 
              0               1               0               0 
              0               0               1               1 
1
              1               0               0               0 
              0               1               0               0 
              0               0               1              -1 
2  1 1 2 1 3 1 4 1 5 1 6 1 0
2  6 -1 5 -1 4 -1 3 -1 2 -1 1 -1 0
1
              1               0               0               0 
              0               1               0               0 
              0               0               1              12 
2  1 1 2 1 3 1 4 1 5 1 6 1 9 1 0
2  9 -1 6 -1 5 -1 4 -1 3 -1 2 -1 1 -1 0
1
              1               0               0               0 
              0               1               0               0 
              0               0               1              -0 
1
              1               0               0               0 
              0               1               0               0 
              0               0               1               1 
1
              1               0               0               0 
              0               1               0               0 
              0               0               1              -1 
2  1 1 2 1 3 1 12 1 13 1 14 1 0
2  14 -1 13 -1 12 -1 3 -1 2 -1 1 -1 0
1
              1               0               0               0 
              0               1               0               0 
              0               0               1              12 
2  17 -1 14 -1 13 -1 12 -1 3 -1 2 -1 1 -1 0
1
              1               0               0               0 
              0               1               0               0 
              0               0               1 -2.52435489670724e-29 
1
              1               0               0               0 
              0               1               0               0 
              0               0               1               1 
1
              1               0               0               0 
              0               1               0               0 
              0               0               1              -1 
2  1 1 2 1 3 1 19 1 20 1 21 1 0
2  21 -1 20 -1 19 -1 3 -1 2 -1 1 -1 0
1
              1               0               0               0 
              0               1               0               0 
              0               0               1              12 
2  24 -1 21 -1 20 -1 19 -1 3 -1 2 -1 1 -1 0
1
              1               0               0               0 
              0               1               0               0 
              0               0               1              12 
2  26 -1 0
1
              1               0               0               0 
              0               1               0               0 
              0               0               1              -0 
1
              1               0               0               0 
              0               1               0               0 
              0               0               1               1 
1
              1               0               0               0 
              0               1               0               0 
              0               0               1              -1 
2  1 1 2 1 3 1 28 1 29 1 30 1 0
2  30 -1 29 -1 28 -1 3 -1 2 -1 1 -1 0
1
              1               0               0               0 
              0               1               0               0 
              0               0               1              12 
2  33 -1 30 -1 29 -1 28 -1 3 -1 2 -1 1 -1 0
1
              1               0               0               0 
              0               1               0               0 
              0               0               1              -0 
1
              1               0               0               0 
              0               1               0               0 
              0               0               1               1 
1
              1               0               0               0 
              0               1               0               0 
              0               0               1              -1 
2  1 1 2 1 3 1 35 1 36 1 37 1 0
2  37 -1 36 -1 35 -1 3 -1 2 -1 1 -1 0
1
              1               0               0               0 
              0               1               0               0 
              0               0               1              12 
2  40 -1 37 -1 36 -1 35 -1 3 -1 2 -1 1 -1 0
1
              1               0               0               0 
              0               1               0               0 
              0               0               1 -2.52435489670724e-29 
1
              1               0               0               0 
              0               1               0               0 
              0               0               1               1 
1
              1               0               0               0 
              0               1               0               0 
              0               0               1              -1 
2  1 1 2 1 3 1 42 1 43 1 44 1 0
2  44 -1 43 -1 42 -1 3 -1 2 -1 1 -1 0
1
              1               0               0               0 
              0               1               0               0 
              0               0               1              12 
2  47 -1 44 -1 43 -1 42 -1 3 -1 2 -1 1 -1 0
2  1 1 2 1 3 1 12 1 13 1 14 1 17 1 0
2  1 1 2 1 3 1 19 1 20 1 21 1 24 1 0
2  1 1 2 1 3 1 28 1 29 1 30 1 33 1 0
2  1 1 2 1 3 1 35 1 36 1 37 1 40 1 0
2  1 1 2 1 3 1 42 1 43 1 44 1 47 1 0
Curve2ds 60
1 0 0 0 -1 
1 0 0 1.1102230246251565e-16 -1 
1 351 0 0 -1 
1 0 0 1.1102230246251565e-16 -1 
1 0 0 1 0 
1 0 0 0 1 
1 0 -12 1 0 
1 0 0 0 1 
1 627.99999999999989 -1.5765166949677223e-13 1.1102230246251565e-16 -1 
1 0 0 0 -1 
1 0 0 1 0 
1 0 0 1 0 
1 1.3322676295501878e-15 -12 1 0 
1 0 0 1 0 
1 627.99999999999989 -1.5765166949677223e-13 1.1102230246251565e-16 -1 
1 351 0 0 -1 
1 0 0 1 0 
1 0 351 1 0 
1 1.3322676295501878e-15 -12 1 0 
1 0 351 1 0 
1 0 0 1 0 
1 628 0 0 1 
1 0 0 1 0 
1 0 -12 1 0 
1 0 0 1 0 
1 0 -12 1 0 
1 0 0 1 0 
1 0 -12 1 0 
1 0 0 1 0 
1 0 -12 1 0 
1 0 0 1 0 
1 0 -12 1 0 
1 0 0 1 0 
1 0 -12 1 0 
1 0 0 1 0 
1 0 -12 1 0 
1 0 0 1 0 
1 0 -12 1 0 
1 0 0 1 0 
1 0 -12 1 0 
1 0 -12 1 0 
1 628 0 0 1 
1 0 0 0 -1 
1 6.2831853071795862 0 0 -1 
1 0 0 0 -1 
1 6.2831853071795862 0 0 -1 
1 1.5707963267948966 0 0 -1 
1 3.141592653589786 0 0 -1 
1 3.1415926535897931 0 0 -1 
1 1.5707963267948966 0 0 -1 
1 1.5707963267948895 0 0 -1 
1 3.1415926535897931 0 0 -1 
1 3.1415926535897931 0 0 -1 
1 1.5707963267948966 0 0 -1 
1 0 0 0 -1 
1 6.2831853071795862 0 0 -1 
1 0 0 0 -1 
1 6.2831853071795862 0 0 -1 
1 0 0 0 -1 
1 6.2831853071795862 0 0 -1 
Curves 38
1 0 628.00000000000011 -2.2737367544323206e-13 0 0 1 
1 351 628.00000000000011 -2.2737367544323206e-13 0 0 1 
1 -52 1310.0999999999999 644 1 0 -0 
1 -52 1310.0999999999999 644 1 0 -0 
1 0 2.2737367544323206e-13 0 0 0 1 
1 -52 1310.0999999999999 644 0 0 1 
1 -52 1310.0999999999999 644 0 0 1 
1 351 2.2737367544323206e-13 0 0 0 1 
1 299 1310.0999999999999 644 0 0 1 
1 299 1310.0999999999999 644 0 0 1 
1 -52 1310.0999999999999 1272 1 0 -0 
2 102.5 1310.0999999999997 1107.5 -0 1 0 0 0 1 1 0 -0 2.25
2 102.5 1310.0999999999997 1212.5 -0 1 0 0 0 1 1 0 -0 2.25
2 69 496.00000000000011 1.0436096431476471e-14 0 0 -1 1 0 0 0 -1 0 2
1 33.5 494.00000000000011 1.0436096431476471e-14 1 0 0 
1 67 601.00000000000011 1.0436096431476471e-14 0 1 0 
2 285 496.00000000000011 1.0436096431476471e-14 -0 0 -1 0 1 0 1 0 -0 2
2 69 572.00000000000011 1.0436096431476471e-14 -0 -0 -1 0 -1 0 -1 0 0 2
1 287 601.00000000000011 1.0436096431476471e-14 0 1 0 
1 33.5 574.00000000000011 1.0436096431476471e-14 1 0 0 
2 285 572.00000000000011 1.0436096431476471e-14 -0 0 -1 -1 -0 0 0 1 0 2
2 155 1310.0999999999999 1160 -0 1 0 0 0 1 1 0 -0 58
2 207.5 1310.0999999999997 1107.5 -0 1 0 0 0 1 1 0 -0 2.25
2 207.5 1310.0999999999997 1212.5 -0 1 0 0 0 1 1 0 -0 2.25
1 -52 1310.0999999999999 1272 1 0 -0 
1 154.5 162.25000000000023 1.521745692419548e-13 0 0 1 
1 154.5 57.250000000000227 1.5158245029548803e-13 0 0 1 
1 69 494.00000000000011 1.0436096431476471e-14 0 0 1 
1 67 496.00000000000011 1.0436096431476471e-14 0 0 1 
1 285 494.00000000000011 1.0436096431476471e-14 0 0 1 
1 67 572.00000000000011 1.0436096431476471e-14 0 0 1 
1 287 496.00000000000011 1.0436096431476471e-14 0 0 1 
1 69 574.00000000000011 1.0436096431476471e-14 0 0 1 
1 287 572.00000000000011 1.0436096431476471e-14 0 0 1 
1 285 574.00000000000011 1.0436096431476471e-14 0 0 1 
1 207 54.000000000000227 2.2737367544323206e-13 0 0 1 
1 259.5 162.25000000000023 1.521745692419548e-13 0 0 1 
1 259.5 57.250000000000227 1.5158245029548803e-13 0 0 1 
Polygon3D 0
PolygonOnTriangulations 0
Surfaces 19
1 0 628.00000000000011 -2.2737367544323206e-13 0 1 0 1 0 0 0 0 -1 
1 0 628.00000000000011 -2.2737367544323206e-13 1 0 -0 0 -1 1.1102230246251565e-16 0 -1.1102230246251565e-16 -1 
1 351 628.00000000000011 -2.2737367544323206e-13 1 0 -0 0 -1 1.1102230246251565e-16 0 -1.1102230246251565e-16 -1 
1 -52 1310.0999999999999 644 -0 1 0 0 0 1 1 0 -0 
1 -52 1310.0999999999999 644 -0 1 0 0 0 1 1 0 -0 
1 0 2.2737367544323206e-13 0 0 1 0 1 0 0 0 0 -1 
2 154.5 164.50000000000023 0 0 -1.1102230246251565e-16 -1 0 -1 1.1102230246251565e-16 1 0 0 2.25
2 154.5 59.500000000000227 0 0 -1.1102230246251565e-16 -1 0 -1 1.1102230246251565e-16 1 0 0 2.25
2 69 496.00000000000011 1.0436096431476471e-14 0 0 -1 1 0 0 0 -1 0 2
2 285 496.00000000000011 1.0436096431476471e-14 -0 0 -1 0 1 0 1 0 -0 2
2 69 572.00000000000011 1.0436096431476471e-14 -0 -0 -1 0 -1 0 -1 0 0 2
2 285 572.00000000000011 1.0436096431476471e-14 -0 0 -1 -1 -0 0 0 1 0 2
2 207 112.00000000000023 2.2737367544323206e-13 0 -1.1102230246251565e-16 -1 0 -1 1.1102230246251565e-16 1 0 0 58
2 259.5 164.50000000000023 0 0 -1.1102230246251565e-16 -1 0 -1 1.1102230246251565e-16 1 0 0 2.25
2 259.5 59.500000000000227 0 0 -1.1102230246251565e-16 -1 0 -1 1.1102230246251565e-16 1 0 0 2.25
1 69 494.00000000000011 1.0436096431476471e-14 0 1 0 1 0 0 0 0 -1 
1 67 496.00000000000011 1.0436096431476471e-14 -1 0 0 0 1 0 0 0 -1 
1 287 496.00000000000011 1.0436096431476471e-14 -1 0 0 0 1 0 0 0 -1 
1 69 574.00000000000011 1.0436096431476471e-14 0 1 0 1 0 0 0 0 -1 
Triangulations 0

TShapes 143
Ve
1e-07
0 628 -2.27373675443232e-13
0 0

0101101
*
Ve
1e-07
0 628 11.9999999999998
0 0

0101101
*
Ed
 1e-07 1 1 0
1  1 0 0 12
2  1 1 0 0 12
2  2 2 0 0 12
0

0101000
+143 0 -142 0 *
Ve
1e-07
351 628 -2.27373675443232e-13
0 0

0101101
*
Ve
1e-07
351 628 11.9999999999998
0 0

0101101
*
Ed
 1e-07 1 1 0
1  2 0 0 12
2  3 1 0 0 12
2  4 3 0 0 12
0

0101000
+140 0 -139 0 *
Ed
 1e-07 1 1 0
1  3 0 0 351
2  5 1 8 0 351
2  6 4 0 0 351
0

0101000
+143 8 -140 8 *
Ed
 1e-07 1 1 0
1  4 0 0 351
2  7 1 11 0 351
2  8 5 0 0 351
0

0101000
+142 11 -139 11 *
Wi

0101100
+141 0 -138 0 -137 7 +136 10 *
Fa
0  1e-07 1 0

0101000
+135 0 *
Ve
1e-07
0 2.27373675443232e-13 0
0 0

0101101
*
Ve
1e-07
0 2.27373675443232e-13 12
0 0

0101101
*
Ed
 1e-07 1 1 0
1  5 0 0 12
2  9 2 0 0 12
2  10 6 0 0 12
0

0101000
+133 0 -132 0 *
Ed
 1e-07 1 1 0
1  6 0 0 628
2  11 2 8 0 628
2  12 4 0 0 628
0

0101000
+143 8 -133 8 *
Ed
 1e-07 1 1 0
1  7 0 0 628
2  13 2 11 0 628
2  14 5 0 0 628
0

0101000
+142 11 -132 11 *
Wi

0101100
+141 0 -131 0 -130 7 +129 10 *
Fa
0  1e-07 2 0

0101000
+128 0 *
Ve
1e-07
351 2.27373675443232e-13 0
0 0

0101101
*
Ve
1e-07
351 2.27373675443232e-13 12
0 0

0101101
*
Ed
 1e-07 1 1 0
1  8 0 0 12
2  15 3 0 0 12
2  16 6 0 0 12
0

0101000
+126 0 -125 0 *
Ed
 1e-07 1 1 0
1  9 0 0 628
2  17 3 8 0 628
2  18 4 0 0 628
0

0101000
+140 8 -126 8 *
Ed
 1e-07 1 1 0
1  10 0 0 628
2  19 3 11 0 628
2  20 5 0 0 628
0

0101000
+139 11 -125 11 *
Wi

0101100
+138 0 -124 0 -123 7 +122 10 *
Fa
0  1e-07 3 0

0101000
+121 0 *
Ed
 1e-07 1 1 0
1  11 0 0 351
2  21 6 8 0 351
2  22 4 0 0 351
0

0101000
+133 8 -126 8 *
Wi

0101100
-137 7 +130 7 -123 7 +119 7 *
Ve
1.00000706749474e-07
154.5 162.25 1.52174569241955e-13
0 0

0101101
*
Ed
 1.00000630662189e-07 1 1 0
1  12 0 0 6.28318530717959
2  23 7 16 0 6.28318530717959
2  24 7 18 0 6.28318530717959
0

0101000
+117 16 -117 16 *
Wi

0101100
-116 15 *
Ve
1.00000702956185e-07
154.5 57.2500000000002 1.51582450295488e-13
0 0

0101101
*
Ed
 1.0000062716496e-07 1 1 0
1  13 0 0 6.28318530717959
2  25 8 23 0 6.28318530717959
2  26 8 25 0 6.28318530717959
0

0101000
+114 23 -114 23 *
Wi

0101100
-113 22 *
Ve
1.50000217159624e-07
69 494 1.04360964314765e-14
0 0

0101101
*
Ve
1.50000228816965e-07
67 496 1.04360964314765e-14
0 0

0101101
*
Ed
 1.00000223125845e-07 1 1 0
1  14 0 1.5707963267949 3.14159265358979
2  27 9 0 1.5707963267949 3.14159265358979
2  28 9 27 1.5707963267949 3.14159265358979
0

0101000
+111 0 -110 0 *
Ve
1.50000217159624e-07
285 494 1.04360964314765e-14
0 0

0101101
*
Ed
 1.50000217159624e-07 1 1 0
1  15 0 35.5 251.5
0

0101000
+111 0 -108 0 *
Ve
1.50000228113824e-07
67 572 1.04360964314765e-14
0 0

0101101
*
Ed
 1.50000228113824e-07 1 1 0
1  16 0 -105 -29
0

0101000
+110 0 -106 0 *
Ve
1.50000228816965e-07
287 496 1.04360964314765e-14
0 0

0101101
*
Ed
 1.00000223125845e-07 1 1 0
1  17 0 1.57079632679489 3.14159265358979
2  29 10 0 1.57079632679489 3.14159265358979
2  30 10 27 1.57079632679489 3.14159265358979
0

0101000
+104 0 -108 0 *
Ve
1.50000217159624e-07
69 574 1.04360964314765e-14
0 0

0101101
*
Ed
 1.00000231812668e-07 1 1 0
1  18 0 1.5707963267949 3.14159265358979
2  31 11 0 1.5707963267949 3.14159265358979
2  32 11 27 1.5707963267949 3.14159265358979
0

0101000
+106 0 -102 0 *
Ve
1.50000228113824e-07
287 572 1.04360964314765e-14
0 0

0101101
*
Ed
 1.50000228113824e-07 1 1 0
1  19 0 -105 -29
0

0101000
+104 0 -100 0 *
Ve
1.50000217159624e-07
285 574 1.04360964314765e-14
0 0

0101101
*
Ed
 1.50000217159624e-07 1 1 0
1  20 0 35.5 251.5
0

0101000
+102 0 -98 0 *
Ed
 1.00000231812668e-07 1 1 0
1  21 0 1.5707963267949 3.14159265358979
2  33 12 0 1.5707963267949 3.14159265358979
2  34 12 27 1.5707963267949 3.14159265358979
0

0101000
+98 0 -100 0 *
Wi

0101100
+109 0 -107 0 +105 0 +103 0 +101 0 -99 0 +97 0 +96 0 *
Ve
1.00000478292666e-07
207 54.0000000000002 2.27373675443232e-13
0 0

0101101
*
Ed
 1.00000478292666e-07 1 1 0
1  22 0 0 6.28318530717959
2  35 13 32 0 6.28318530717959
2  36 13 34 0 6.28318530717959
0

0101000
+94 32 -94 32 *
Wi

0101100
-93 31 *
Ve
1.00000706749474e-07
259.5 162.25 1.52174569241955e-13
0 0

0101101
*
Ed
 1.00000630662189e-07 1 1 0
1  23 0 0 6.28318530717959
2  37 14 39 0 6.28318530717959
2  38 14 41 0 6.28318530717959
0

0101000
+91 39 -91 39 *
Wi

0101100
-90 38 *
Ve
1.00000702956185e-07
259.5 57.2500000000002 1.51582450295488e-13
0 0

0101101
*
Ed
 1.0000062716496e-07 1 1 0
1  24 0 0 6.28318530717959
2  39 15 46 0 6.28318530717959
2  40 15 48 0 6.28318530717959
0

0101000
+88 46 -88 46 *
Wi

0101100
-87 45 *
Fa
0  1e-07 4 7

0101000
+118 0 +115 0 +112 0 +95 0 +92 0 +89 0 +86 0 *
Ed
 1e-07 1 1 0
1  25 0 0 351
2  41 6 11 0 351
2  42 5 0 0 351
0

0101000
+132 11 -125 11 *
Wi

0101100
-136 10 +129 10 -122 10 +84 10 *
Ve
1.00000706749474e-07
154.5 162.25 12.0000000000002
0 0

0101101
*
Ed
 1.00000630662189e-07 1 1 0
1  12 0 0 6.28318530717959
2  23 7 16 0 6.28318530717959
2  24 7 18 0 6.28318530717959
0

0101000
+82 18 -82 18 *
Wi

0101100
-81 49 *
Ve
1.00000702956185e-07
154.5 57.2500000000002 12.0000000000002
0 0

0101101
*
Ed
 1.0000062716496e-07 1 1 0
1  13 0 0 6.28318530717959
2  25 8 23 0 6.28318530717959
2  26 8 25 0 6.28318530717959
0

0101000
+79 25 -79 25 *
Wi

0101100
-78 50 *
Ve
1.50000217159624e-07
69 494 12
0 0

0101101
*
Ve
1.50000228816965e-07
67 496 12
0 0

0101101
*
Ed
 1.00000223820962e-07 1 1 0
1  14 0 1.5707963267949 3.14159265358979
2  27 9 0 1.5707963267949 3.14159265358979
2  28 9 27 1.5707963267949 3.14159265358979
0

0101000
+76 27 -75 27 *
Ve
1.50000217159624e-07
285 494 12
0 0

0101101
*
Ed
 1.50000217159624e-07 1 1 0
1  15 0 35.5 251.5
0

0101000
+76 27 -73 27 *
Ve
1.50000228113824e-07
67 572 12
0 0

0101101
*
Ed
 1.50000228113824e-07 1 1 0
1  16 0 -105 -29
0

0101000
+75 27 -71 27 *
Ve
1.50000228816965e-07
287 496 12
0 0

0101101
*
Ed
 1.00000223820962e-07 1 1 0
1  17 0 1.57079632679489 3.14159265358979
2  29 10 0 1.57079632679489 3.14159265358979
2  30 10 27 1.57079632679489 3.14159265358979
0

0101000
+69 27 -73 27 *
Ve
1.50000217159624e-07
69 574 12
0 0

0101101
*
Ed
 1.00000232702746e-07 1 1 0
1  18 0 1.5707963267949 3.14159265358979
2  31 11 0 1.5707963267949 3.14159265358979
2  32 11 27 1.5707963267949 3.14159265358979
0

0101000
+71 27 -67 27 *
Ve
1.50000228113824e-07
287 572 12
0 0

0101101
*
Ed
 1.50000228113824e-07 1 1 0
1  19 0 -105 -29
0

0101000
+69 27 -65 27 *
Ve
1.50000217159624e-07
285 574 12
0 0

0101101
*
Ed
 1.50000217159624e-07 1 1 0
1  20 0 35.5 251.5
0

0101000
+67 27 -63 27 *
Ed
 1.00000232702746e-07 1 1 0
1  21 0 1.5707963267949 3.14159265358979
2  33 12 0 1.5707963267949 3.14159265358979
2  34 12 27 1.5707963267949 3.14159265358979
0

0101000
+63 27 -65 27 *
Wi

0101100
+74 26 -72 26 +70 26 +68 26 +66 26 -64 26 +62 26 +61 26 *
Ve
1.00000478292666e-07
207 54.0000000000002 12.0000000000002
0 0

0101101
*
Ed
 1.00000478292666e-07 1 1 0
1  22 0 0 6.28318530717959
2  35 13 32 0 6.28318530717959
2  36 13 34 0 6.28318530717959
0

0101000
+59 34 -59 34 *
Wi

0101100
-58 51 *
Ve
1.00000706749474e-07
259.5 162.25 12.0000000000002
0 0

0101101
*
Ed
 1.00000630662189e-07 1 1 0
1  23 0 0 6.28318530717959
2  37 14 39 0 6.28318530717959
2  38 14 41 0 6.28318530717959
0

0101000
+56 41 -56 41 *
Wi

0101100
-55 52 *
Ve
1.00000702956185e-07
259.5 57.2500000000002 12.0000000000002
0 0

0101101
*
Ed
 1.0000062716496e-07 1 1 0
1  24 0 0 6.28318530717959
2  39 15 46 0 6.28318530717959
2  40 15 48 0 6.28318530717959
0

0101000
+53 48 -53 48 *
Wi

0101100
-52 53 *
Fa
0  1e-07 5 10

0101000
+83 0 +80 0 +77 0 +60 0 +57 0 +54 0 +51 0 *
Wi

0101100
+131 0 -124 0 -119 7 +84 10 *
Fa
0  1e-07 6 0

0101000
+49 0 *
Ed
 1.00000706749474e-07 1 1 0
1  26 0 0 12
3  43 44CN 7 0 0 12
0

0101000
+117 0 -82 0 *
Wi

0101100
+47 0 -47 0 -116 15 +81 49 *
Fa
0  1.00000630662189e-07 7 0

0101000
+46 0 *
Ed
 1.00000702956185e-07 1 1 0
1  27 0 0 12
3  45 46CN 8 0 0 12
0

0101000
+114 0 -79 0 *
Wi

0101100
+44 0 -44 0 -113 22 +78 50 *
Fa
0  1.0000062716496e-07 8 0

0101000
+43 0 *
Ed
 1.50000217159624e-07 1 1 0
1  28 0 0 12
2  47 9 0 0 12
4 G1 16 0 9 0
0

0101000
+111 0 -76 0 *
Ed
 1.50000228816965e-07 1 1 0
1  29 0 0 12
2  48 9 0 0 12
4 G1 17 0 9 0
0

0101000
+110 0 -75 0 *
Wi

0101100
+41 0 -40 0 -109 0 +74 26 *
Fa
0  1.00000004438992e-07 9 0

0101000
+39 0 *
Ed
 1.50000217159624e-07 1 1 0
1  30 0 0 12
2  49 10 0 0 12
4 G1 10 0 16 0
0

0101000
+108 0 -73 0 *
Wi

0101100
+41 0 -37 0 -107 0 +72 26 *
Fa
0  1.50000217159624e-07 16 0

0101000
+36 0 *
Ed
 1.50000228113824e-07 1 1 0
1  31 0 0 12
2  50 11 0 0 12
4 G1 17 0 11 0
0

0101000
+106 0 -71 0 *
Wi

0101100
+40 0 -34 0 -105 0 +70 26 *
Fa
0  1.50000228113824e-07 17 0

0101000
+33 0 *
Ed
 1.50000228816965e-07 1 1 0
1  32 0 0 12
2  51 10 0 0 12
4 G1 18 0 10 0
0

0101000
+104 0 -69 0 *
Wi

0101100
+31 0 -37 0 -103 0 +68 26 *
Fa
0  1.00000004438992e-07 10 0

0101000
+30 0 *
Ed
 1.50000217159624e-07 1 1 0
1  33 0 0 12
2  52 11 0 0 12
4 G1 11 0 19 0
0

0101000
+102 0 -67 0 *
Wi

0101100
+34 0 -28 0 -101 0 +66 26 *
Fa
0  1.00000004438992e-07 11 0

0101000
+27 0 *
Ed
 1.50000228113824e-07 1 1 0
1  34 0 0 12
2  53 12 0 0 12
4 G1 12 0 18 0
0

0101000
+100 0 -65 0 *
Wi

0101100
+31 0 -25 0 -99 0 +64 26 *
Fa
0  1.50000228113824e-07 18 0

0101000
+24 0 *
Ed
 1.50000217159624e-07 1 1 0
1  35 0 0 12
2  54 12 0 0 12
4 G1 19 0 12 0
0

0101000
+98 0 -63 0 *
Wi

0101100
+28 0 -22 0 -97 0 +62 26 *
Fa
0  1.50000217159624e-07 19 0

0101000
+21 0 *
Wi

0101100
+22 0 -25 0 -96 0 +61 26 *
Fa
0  1.00000004438992e-07 12 0

0101000
+19 0 *
Ed
 1.00000478292666e-07 1 1 0
1  36 0 0 12
3  55 56CN 13 0 0 12
0

0101000
+94 0 -59 0 *
Wi

0101100
+17 0 -17 0 -93 31 +58 51 *
Fa
0  1.00000478292666e-07 13 0

0101000
+16 0 *
Ed
 1.00000706749474e-07 1 1 0
1  37 0 0 12
3  57 58CN 14 0 0 12
0

0101000
+91 0 -56 0 *
Wi

0101100
+14 0 -14 0 -90 38 +55 52 *
Fa
0  1.00000630662189e-07 14 0

0101000
+13 0 *
Ed
 1.00000702956185e-07 1 1 0
1  38 0 0 12
3  59 60CN 15 0 0 12
0

0101000
+88 0 -53 0 *
Wi

0101100
+11 0 -11 0 -87 45 +52 53 *
Fa
0  1.0000062716496e-07 15 0

0101000
+10 0 *
Sh

0101100
+134 0 -127 0 +120 0 -85 0 +50 0 -48 0 +45 0 +42 0 -38 0 +35 0 
-32 0 -29 0 -26 0 +23 0 -20 0 -18 0 +15 0 +12 0 +9 0 *
So

0100000
+8 0 *
Co

0100000
+7 0 *
Co

0100000
+6 0 *
Co

0100000
+5 0 *
Co

0100000
+4 0 *
Co

0100000
+3 0 *
Co

1100000
+2 0 *

+1 0 