DBRep_DrawableShape

CASCADE Topology V1, (c) Matra-Datavision
Locations 11
1
              1               0               0               0 
              0               1               0               0 
              0               0               1               0 
1
              1               0               0               0 
              0 1.11022302462516e-16              -1               0 
              0               1 1.11022302462516e-16               0 
1
              1               0               0              52 
              0               1               0            1272 
              0               0               1         -1310.1 
1
              1               0               0               0 
              0               1               0               0 
              0               0               1 -2.27373675443232e-13 
1
              1               0               0               0 
              0               1               0               0 
              0               0               1               1 
1
              1               0               0               0 
              0               1               0               0 
              0               0               1              -1 
2  1 1 2 1 3 1 4 1 5 1 6 1 0
2  1 1 2 1 3 1 0
2  3 -1 2 -1 1 -1 0
1
              1               0               0               0 
              0               1               0               0 
              0               0               1              12 
2  1 1 2 1 3 1 4 1 5 1 6 1 10 1 0
Curve2ds 6
2 568.5 259.5 1 0 -0 1 2.25
1 0 310.09999999999991 1 0 
2 568.5 259.5 1 0 -0 1 2.25
1 0 322.09999999999991 1 0 
1 6.2831853071795862 -0 0 1 
1 0 -0 0 1 
Curves 3
2 207.5 1310.0999999999999 1212.5 0 1 0 0 -0 1 1 0 -0 2.25
2 207.5 1322.0999999999999 1212.5 0 1 0 0 -0 1 1 0 -0 2.25
1 207.5 1000 1214.75 0 1 0 
Polygon3D 0
PolygonOnTriangulations 0
Surfaces 4
1 -52 1310.0999999999999 644 -0 1 0 0 0 1 1 0 -0 
1 -52 1310.0999999999999 644 -0 1 0 0 0 1 1 0 -0 
2 207.5 1000 1212.5 0 1 0 0 -0 1 1 0 -0 2.25
1 -52 1322.0999999999999 644 -0 1 0 0 0 1 1 0 -0 
Triangulations 0

TShapes 13
Ve
1.00000391631172e-07
259.5 57.2500000000002 2.27373675443232e-13
0 0

0101101
*
Ed
 1.00000391631172e-07 1 1 0
1  1 0 0 6.28318530717959
2  1 2 0 0 6.28318530717959
2  2 3 0 0 6.28318530717959
0

0101000
+13 9 -13 9 *
Wi

0101100
+12 8 *
Fa
0  1e-07 1 7

0101000
+11 0 *
Ve
1.00000392574862e-07
259.5 57.2500000000002 12.0000000000002
0 0

0101101
*
Ed
 1.00000392574862e-07 1 1 0
1  2 0 0 6.28318530717959
2  3 4 0 0 6.28318530717959
2  4 3 0 0 6.28318530717959
0

0101000
+9 9 -9 9 *
Ed
 1e-07 1 1 0
1  3 0 310.1 322.1
3  5 6CN 3 0 310.1 322.1
0

0101000
+13 9 -9 9 *
Wi

0101100
-8 8 +7 8 +12 8 -7 8 *
Fa
0  1e-07 3 8

0101000
+6 0 *
Wi

0101100
+8 8 *
Fa
0  1e-07 1 11

0101000
+4 0 *
Sh

0101100
-10 0 +5 0 +3 0 *
So

0100000
+2 0 *

+1 0 