DBRep_DrawableShape

CASCADE Topology V1, (c) Matra-Datavision
Locations 5
1
              1               0               0               0 
              0               1               0               0 
              0               0               1               0 
1
              1               0               0               0 
              0 1.11022302462516e-16              -1               0 
              0               1 1.11022302462516e-16               0 
1
              1               0               0            -301 
              0               1               0            1272 
              0               0               1         -1310.1 
2  1 1 2 1 3 1 0
2  1 -1 0
Curve2ds 78
1 0 0 1 0 
1 0 0 1 0 
1 628 0 0 -1 
1 0 0 0 1 
1 0 -12 1 0 
1 0 0 1 0 
1 0 0 0 -1 
1 0 0 0 1 
1 0 0 0 1 
1 0 0 1 0 
1 0 351 1 0 
1 0 0 1 0 
1 628 0 0 1 
1 0 0 1 0 
2 463.5 91.5 1 0 -0 1 2.25
1 0 310.09999999999991 1 0 
2 568.5 91.5 1 0 -0 1 2.25
1 0 310.09999999999991 1 0 
2 516 144 1 0 -0 1 58
1 0 1 1 0 
8 32 252
1 134 32 0 1 
8 32 252
1 -32 1 1 0 
8 -107 -27
1 27 284 -1 0 
8 -107 -27
1 -27 -1 -1 -0 
8 32 252
1 54 32 0 1 
8 32 252
1 -32 1 1 0 
8 -107 -27
1 27 64 -1 0 
8 -107 -27
1 -27 -1 -1 -0 
2 463.5 196.5 1 0 -0 1 2.25
1 0 310.09999999999991 1 0 
2 568.5 196.5 1 0 -0 1 2.25
1 0 310.09999999999991 1 0 
1 0 12 1 0 
1 628 0 0 1 
1 351 0 0 1 
1 628 0 0 -1 
1 0 0 0 1 
1 0 12 1 0 
1 0 351 1 0 
1 0 -12 1 0 
2 463.5 91.5 1 0 -0 1 2.25
1 0 322.09999999999991 1 0 
2 568.5 91.5 1 0 -0 1 2.25
1 0 322.09999999999991 1 0 
2 516 144 1 0 -0 1 58
1 0 13 1 0 
8 32 252
1 134 32 0 1 
8 32 252
1 -32 13 1 0 
8 -107 -27
1 27 284 -1 0 
8 -107 -27
1 -27 -13 -1 -0 
8 32 252
1 54 32 0 1 
8 32 252
1 -32 13 1 0 
8 -107 -27
1 27 64 -1 0 
8 -107 -27
1 -27 -13 -1 -0 
2 463.5 196.5 1 0 -0 1 2.25
1 0 322.09999999999991 1 0 
2 568.5 196.5 1 0 -0 1 2.25
1 0 322.09999999999991 1 0 
1 351 0 0 1 
1 0 0 0 -1 
1 6.2831853071795862 -0 0 1 
1 0 -0 0 1 
1 6.2831853071795862 -0 0 1 
1 0 -0 0 1 
1 6.2831853071795862 -0 0 1 
1 0 -0 0 1 
1 0 0 0 1 
1 80 0 0 -1 
1 220 0 0 1 
1 80 0 0 -1 
1 0 0 0 -1 
1 220 0 0 1 
1 0 0 0 1 
1 0 0 0 -1 
1 6.2831853071795862 -0 0 1 
1 0 -0 0 1 
1 6.2831853071795862 -0 0 1 
1 0 -0 0 1 
Curves 39
1 301 1310.0999999999999 644 0 0 1 
1 301 1310.0999999999999 1272 -0 1 0 
1 301 1322.0999999999999 644 0 0 1 
1 301 1310.0999999999999 644 -0 1 0 
1 301 1310.0999999999999 644 1 0 -0 
1 652 1310.0999999999999 644 0 0 1 
1 301 1310.0999999999999 1272 1 0 -0 
2 392.5 1310.0999999999999 1107.5 0 1 0 0 -0 1 1 0 -0 2.25
2 392.5 1310.0999999999999 1212.5 0 1 0 0 -0 1 1 0 -0 2.25
2 445 1310.0999999999999 1160 0 1 0 0 -0 1 1 0 -0 58
1 333 1310.0999999999999 778 1 0 -0 
1 585 1310.0999999999999 671 -0 0 -1 
1 333 1310.0999999999999 698 1 0 -0 
1 365 1310.0999999999999 671 -0 0 -1 
2 497.5 1310.0999999999999 1107.5 0 1 0 0 -0 1 1 0 -0 2.25
2 497.5 1310.0999999999999 1212.5 0 1 0 0 -0 1 1 0 -0 2.25
1 301 1322.0999999999999 1272 1 0 -0 
1 652 1310.0999999999999 1272 -0 1 0 
1 301 1322.0999999999999 644 1 0 -0 
1 652 1322.0999999999999 644 0 0 1 
2 392.5 1322.0999999999999 1107.5 0 1 0 0 -0 1 1 0 -0 2.25
2 392.5 1322.0999999999999 1212.5 0 1 0 0 -0 1 1 0 -0 2.25
2 445 1322.0999999999999 1160 0 1 0 0 -0 1 1 0 -0 58
1 333 1322.0999999999999 778 1 0 -0 
1 585 1322.0999999999999 671 -0 0 -1 
1 333 1322.0999999999999 698 1 0 -0 
1 365 1322.0999999999999 671 -0 0 -1 
2 497.5 1322.0999999999999 1107.5 0 1 0 0 -0 1 1 0 -0 2.25
2 497.5 1322.0999999999999 1212.5 0 1 0 0 -0 1 1 0 -0 2.25
1 652 1310.0999999999999 644 -0 1 0 
1 392.5 1000 1109.75 0 1 0 
1 392.5 1000 1214.75 0 1 0 
1 445 1309.0999999999999 1218 0 1 0 
1 365 1309.0999999999999 778 -0 1 0 
1 585 1309.0999999999999 778 -0 1 0 
1 585 1309.0999999999999 698 -0 1 0 
1 365 1309.0999999999999 698 -0 1 0 
1 497.5 1000 1109.75 0 1 0 
1 497.5 1000 1214.75 0 1 0 
Polygon3D 0
PolygonOnTriangulations 0
Surfaces 15
1 301 1310.0999999999999 644 1 0 -0 0 0 1 0 -1 0 
1 301 1310.0999999999999 644 -0 1 0 0 0 1 1 0 -0 
1 301 1310.0999999999999 1272 0 0 1 1 0 -0 -0 1 0 
1 301 1322.0999999999999 644 -0 1 0 0 0 1 1 0 -0 
1 301 1310.0999999999999 644 0 0 1 1 0 -0 -0 1 0 
1 652 1310.0999999999999 644 1 0 -0 0 0 1 0 -1 0 
2 392.5 1000 1107.5 0 1 0 0 -0 1 1 0 -0 2.25
2 392.5 1000 1212.5 0 1 0 0 -0 1 1 0 -0 2.25
2 445 1309.0999999999999 1160 0 1 0 0 -0 1 1 0 -0 58
1 365 1309.0999999999999 778 0 0 1 1 0 -0 -0 1 0 
1 585 1309.0999999999999 698 1 0 -0 0 0 1 0 -1 0 
1 365 1309.0999999999999 698 0 0 1 1 0 -0 -0 1 0 
1 365 1309.0999999999999 698 1 0 -0 0 0 1 0 -1 0 
2 497.5 1000 1107.5 0 1 0 0 -0 1 1 0 -0 2.25
2 497.5 1000 1212.5 0 1 0 0 -0 1 1 0 -0 2.25
Triangulations 0

TShapes 110
Ve
1e-07
301 1310.1 1272
0 0

0101101
*
Ve
1e-07
301 1310.1 644
0 0

0101101
*
Ed
 1e-07 1 1 0
1  1 0 0 628
2  1 1 0 0 628
2  2 2 0 0 628
0

0101000
-110 5 +109 5 *
Ve
1e-07
301 1322.1 1272
0 0

0101101
*
Ed
 1e-07 1 1 0
1  2 0 0 12
2  3 1 0 0 12
2  4 3 0 0 12
0

0101000
-107 5 +110 5 *
Ve
1e-07
301 1322.1 644
0 0

0101101
*
Ed
 1e-07 1 1 0
1  3 0 0 628
2  5 1 0 0 628
2  6 4 0 0 628
0

0101000
-107 5 +105 5 *
Ed
 1e-07 1 1 0
1  4 0 0 12
2  7 1 0 0 12
2  8 5 0 0 12
0

0101000
-105 5 +109 5 *
Wi

0101100
-108 0 -106 0 +104 0 +103 0 *
Fa
0  1e-07 1 0

0111000
+102 0 *
Ve
1e-07
652 1310.1 644
0 0

0101101
*
Ed
 1e-07 1 1 0
1  5 0 0 351
2  9 2 0 0 351
2  10 5 0 0 351
0

0101000
-100 5 +109 5 *
Ve
1e-07
652 1310.1 1272
0 0

0101101
*
Ed
 1e-07 1 1 0
1  6 0 0 628
2  11 2 0 0 628
2  12 6 0 0 628
0

0101000
-98 5 +100 5 *
Ed
 1e-07 1 1 0
1  7 0 0 351
2  13 2 0 0 351
2  14 3 0 0 351
0

0101000
-98 5 +110 5 *
Wi

0101100
-99 0 -97 0 +108 0 +96 0 *
Ve
1e-07
392.5 1310.1 1109.75
0 0

0101101
*
Ed
 1e-07 1 1 0
1  8 0 0 6.28318530717959
2  15 2 0 0 6.28318530717959
2  16 7 0 0 6.28318530717959
0

0101100
+94 5 -94 5 *
Wi

0101100
-93 0 *
Ve
1e-07
392.5 1310.1 1214.75
0 0

0101101
*
Ed
 1e-07 1 1 0
1  9 0 0 6.28318530717959
2  17 2 0 0 6.28318530717959
2  18 8 0 0 6.28318530717959
0

0101100
+91 5 -91 5 *
Wi

0101100
-90 0 *
Ve
1e-07
445 1310.1 1218
0 0

0101101
*
Ed
 1e-07 1 1 0
1  10 0 0 6.28318530717959
2  19 2 0 0 6.28318530717959
2  20 9 0 0 6.28318530717959
0

0101100
+88 5 -88 5 *
Wi

0101100
-87 0 *
Ve
1.5e-07
365 1310.1 778
0 0

0101101
*
Ve
1.5e-07
585 1310.1 778
0 0

0101101
*
Ed
 1.5e-07 1 1 0
1  11 0 32 252
2  21 2 0 32 252
2  22 10 0 32 252
0

0101000
+85 5 -84 5 *
Ve
1.5e-07
585 1310.1 698
0 0

0101101
*
Ed
 1.5e-07 1 1 0
1  12 0 -107 -27
2  23 2 0 -107 -27
2  24 11 0 -107 -27
0

0101000
+84 5 -82 5 *
Ve
1.5e-07
365 1310.1 698
0 0

0101101
*
Ed
 1.5e-07 1 1 0
1  13 0 32 252
2  25 2 0 32 252
2  26 12 0 32 252
0

0101000
+80 5 -82 5 *
Ed
 1.5e-07 1 1 0
1  14 0 -107 -27
2  27 2 0 -107 -27
2  28 13 0 -107 -27
0

0101000
+85 5 -80 5 *
Wi

0101100
-83 0 -81 0 +79 0 +78 0 *
Ve
1e-07
497.5 1310.1 1109.75
0 0

0101101
*
Ed
 1e-07 1 1 0
1  15 0 0 6.28318530717959
2  29 2 0 0 6.28318530717959
2  30 14 0 0 6.28318530717959
0

0101100
+76 5 -76 5 *
Wi

0101100
-75 0 *
Ve
1e-07
497.5 1310.1 1214.75
0 0

0101101
*
Ed
 1e-07 1 1 0
1  16 0 0 6.28318530717959
2  31 2 0 0 6.28318530717959
2  32 15 0 0 6.28318530717959
0

0101100
+73 5 -73 5 *
Wi

0101100
-72 0 *
Fa
0  1e-07 2 0

0111000
+95 0 +92 0 +89 0 +86 0 +77 0 +74 0 +71 0 *
Ve
1e-07
652 1322.1 1272
0 0

0101101
*
Ed
 1e-07 1 1 0
1  17 0 0 351
2  33 3 0 0 351
2  34 4 0 0 351
0

0101000
-69 5 +107 5 *
Ed
 1e-07 1 1 0
1  18 0 0 12
2  35 3 0 0 12
2  36 6 0 0 12
0

0101000
-69 5 +98 5 *
Wi

0101100
-106 0 -68 0 +67 0 +96 0 *
Fa
0  1e-07 3 0

0111000
+66 0 *
Ve
1e-07
652 1322.1 644
0 0

0101101
*
Ed
 1e-07 1 1 0
1  19 0 0 351
2  37 4 0 0 351
2  38 5 0 0 351
0

0101000
-64 5 +105 5 *
Ed
 1e-07 1 1 0
1  20 0 0 628
2  39 4 0 0 628
2  40 6 0 0 628
0

0101000
-69 5 +64 5 *
Wi

0101100
-63 0 -62 0 +104 0 +68 0 *
Ve
1e-07
392.5 1322.1 1109.75
0 0

0101101
*
Ed
 1e-07 1 1 0
1  21 0 0 6.28318530717959
2  41 4 0 0 6.28318530717959
2  42 7 0 0 6.28318530717959
0

0101100
+60 5 -60 5 *
Wi

0101100
-59 0 *
Ve
1e-07
392.5 1322.1 1214.75
0 0

0101101
*
Ed
 1e-07 1 1 0
1  22 0 0 6.28318530717959
2  43 4 0 0 6.28318530717959
2  44 8 0 0 6.28318530717959
0

0101100
+57 5 -57 5 *
Wi

0101100
-56 0 *
Ve
1e-07
445 1322.1 1218
0 0

0101101
*
Ed
 1e-07 1 1 0
1  23 0 0 6.28318530717959
2  45 4 0 0 6.28318530717959
2  46 9 0 0 6.28318530717959
0

0101100
+54 5 -54 5 *
Wi

0101100
-53 0 *
Ve
1.5e-07
365 1322.1 778
0 0

0101101
*
Ve
1.5e-07
585 1322.1 778
0 0

0101101
*
Ed
 1.5e-07 1 1 0
1  24 0 32 252
2  47 4 0 32 252
2  48 10 0 32 252
0

0101000
+51 5 -50 5 *
Ve
1.5e-07
585 1322.1 698
0 0

0101101
*
Ed
 1.5e-07 1 1 0
1  25 0 -107 -27
2  49 4 0 -107 -27
2  50 11 0 -107 -27
0

0101000
+50 5 -48 5 *
Ve
1.5e-07
365 1322.1 698
0 0

0101101
*
Ed
 1.5e-07 1 1 0
1  26 0 32 252
2  51 4 0 32 252
2  52 12 0 32 252
0

0101000
+46 5 -48 5 *
Ed
 1.5e-07 1 1 0
1  27 0 -107 -27
2  53 4 0 -107 -27
2  54 13 0 -107 -27
0

0101000
+51 5 -46 5 *
Wi

0101100
-49 0 -47 0 +45 0 +44 0 *
Ve
1e-07
497.5 1322.1 1109.75
0 0

0101101
*
Ed
 1e-07 1 1 0
1  28 0 0 6.28318530717959
2  55 4 0 0 6.28318530717959
2  56 14 0 0 6.28318530717959
0

0101100
+42 5 -42 5 *
Wi

0101100
-41 0 *
Ve
1e-07
497.5 1322.1 1214.75
0 0

0101101
*
Ed
 1e-07 1 1 0
1  29 0 0 6.28318530717959
2  57 4 0 0 6.28318530717959
2  58 15 0 0 6.28318530717959
0

0101100
+39 5 -39 5 *
Wi

0101100
-38 0 *
Fa
0  1e-07 4 0

0111000
+61 0 +58 0 +55 0 +52 0 +43 0 +40 0 +37 0 *
Ed
 1e-07 1 1 0
1  30 0 0 12
2  59 5 0 0 12
2  60 6 0 0 12
0

0101000
-64 5 +100 5 *
Wi

0101100
-103 0 -63 0 +35 0 +99 0 *
Fa
0  1e-07 5 0

0111000
+34 0 *
Wi

0101100
-97 0 -67 0 +62 0 +35 0 *
Fa
0  1e-07 6 0

0111000
+32 0 *
Ed
 1e-07 1 1 0
1  31 0 310.1 322.1
3  61 62CN 7 0 310.1 322.1
0

0101000
+94 5 -60 5 *
Wi

0101100
-59 0 +30 0 +93 0 -30 0 *
Fa
0  1e-07 7 0

0111000
+29 0 *
Ed
 1e-07 1 1 0
1  32 0 310.1 322.1
3  63 64CN 8 0 310.1 322.1
0

0101000
+91 5 -57 5 *
Wi

0101100
-56 0 +27 0 +90 0 -27 0 *
Fa
0  1e-07 8 0

0111000
+26 0 *
Ed
 1e-07 1 1 0
1  33 0 1 13
3  65 66CN 9 0 1 13
0

0101000
+88 5 -54 5 *
Wi

0101100
-53 0 +24 0 +87 0 -24 0 *
Fa
0  1e-07 9 0

0111000
+23 0 *
Ed
 1e-07 1 1 0
1  34 0 1 13
2  67 10 0 1 13
2  68 13 0 1 13
0

0101000
+85 5 -51 5 *
Ed
 1e-07 1 1 0
1  35 0 1 13
2  69 10 0 1 13
2  70 11 0 1 13
0

0101000
+84 5 -50 5 *
Wi

0101100
-21 0 -49 0 +20 0 +83 0 *
Fa
0  1e-07 10 0

0111000
+19 0 *
Ed
 1e-07 1 1 0
1  36 0 1 13
2  71 11 0 1 13
2  72 12 0 1 13
0

0101000
+82 5 -48 5 *
Wi

0101100
-20 0 -47 0 +17 0 +81 0 *
Fa
0  1e-07 11 0

0111000
+16 0 *
Ed
 1e-07 1 1 0
1  37 0 1 13
2  73 12 0 1 13
2  74 13 0 1 13
0

0101000
+80 5 -46 5 *
Wi

0101100
-14 0 -45 0 +17 0 +79 0 *
Fa
0  1e-07 12 0

0111000
+13 0 *
Wi

0101100
-21 0 -44 0 +14 0 +78 0 *
Fa
0  1e-07 13 0

0111000
+11 0 *
Ed
 1e-07 1 1 0
1  38 0 310.1 322.1
3  75 76CN 14 0 310.1 322.1
0

0101000
+76 5 -42 5 *
Wi

0101100
-41 0 +9 0 +75 0 -9 0 *
Fa
0  1e-07 14 0

0111000
+8 0 *
Ed
 1e-07 1 1 0
1  39 0 310.1 322.1
3  77 78CN 15 0 310.1 322.1
0

0101000
+73 5 -39 5 *
Wi

0101100
-38 0 +6 0 +72 0 -6 0 *
Fa
0  1e-07 15 0

0111000
+5 0 *
Sh

0101100
-101 0 -70 0 +65 0 +36 0 -33 0 +31 0 -28 0 -25 0 -22 0 -18 0 
-15 0 +12 0 +10 0 -7 0 -4 0 *
So

0100000
+3 0 *
Co

1100000
+2 0 *

+1 4 