DBRep_DrawableShape

CASCADE Topology V1, (c) Matra-Datavision
Locations 53
1
              1               0               0               0 
              0               1               0               0 
              0               0               1               0 
1
              1               0               0               0 
              0 1.11022302462516e-16              -1               0 
              0               1 1.11022302462516e-16               0 
1
              1               0               0            -301 
              0               1               0            1272 
              0               0               1         -1310.1 
1
              1               0               0               0 
              0               1               0               0 
              0               0               1 -2.27373675443232e-13 
1
              1               0               0               0 
              0               1               0               0 
              0               0               1               1 
1
              1               0               0               0 
              0               1               0               0 
              0               0               1              -1 
2  1 1 2 1 3 1 4 1 5 1 6 1 0
2  6 -1 5 -1 4 -1 3 -1 2 -1 1 -1 0
1
              1               0               0               0 
              0               1               0               0 
              0               0               1              12 
2  1 1 2 1 3 1 4 1 5 1 6 1 9 1 0
2  9 -1 6 -1 5 -1 4 -1 3 -1 2 -1 1 -1 0
1
              1               0               0               0 
              0               1               0               0 
              0               0               1              -0 
1
              1               0               0               0 
              0               1               0               0 
              0               0               1               1 
1
              1               0               0               0 
              0               1               0               0 
              0               0               1              -1 
2  1 1 2 1 3 1 12 1 13 1 14 1 0
2  14 -1 13 -1 12 -1 3 -1 2 -1 1 -1 0
1
              1               0               0               0 
              0               1               0               0 
              0               0               1              12 
2  17 -1 14 -1 13 -1 12 -1 3 -1 2 -1 1 -1 0
1
              1               0               0               0 
              0               1               0               0 
              0               0               1 -2.52435489670724e-29 
1
              1               0               0               0 
              0               1               0               0 
              0               0               1               1 
1
              1               0               0               0 
              0               1               0               0 
              0               0               1              -1 
2  1 1 2 1 3 1 19 1 20 1 21 1 0
2  21 -1 20 -1 19 -1 3 -1 2 -1 1 -1 0
1
              1               0               0               0 
              0               1               0               0 
              0               0               1              12 
2  24 -1 21 -1 20 -1 19 -1 3 -1 2 -1 1 -1 0
1
              1               0               0               0 
              0               1               0               0 
              0               0               1              -0 
1
              1               0               0               0 
              0               1               0               0 
              0               0               1               1 
1
              1               0               0               0 
              0               1               0               0 
              0               0               1              -1 
2  1 1 2 1 3 1 26 1 27 1 28 1 0
2  28 -1 27 -1 26 -1 3 -1 2 -1 1 -1 0
1
              1               0               0               0 
              0               1               0               0 
              0               0               1              12 
2  31 -1 28 -1 27 -1 26 -1 3 -1 2 -1 1 -1 0
1
              1               0               0               0 
              0               1               0               0 
              0               0               1              12 
2  33 -1 0
1
              1               0               0               0 
              0               1               0               0 
              0               0               1              -0 
1
              1               0               0               0 
              0               1               0               0 
              0               0               1               1 
1
              1               0               0               0 
              0               1               0               0 
              0               0               1              -1 
2  1 1 2 1 3 1 35 1 36 1 37 1 0
2  37 -1 36 -1 35 -1 3 -1 2 -1 1 -1 0
1
              1               0               0               0 
              0               1               0               0 
              0               0               1              12 
2  40 -1 37 -1 36 -1 35 -1 3 -1 2 -1 1 -1 0
1
              1               0               0               0 
              0               1               0               0 
              0               0               1 -2.52435489670724e-29 
1
              1               0               0               0 
              0               1               0               0 
              0               0               1               1 
1
              1               0               0               0 
              0               1               0               0 
              0               0               1              -1 
2  1 1 2 1 3 1 42 1 43 1 44 1 0
2  44 -1 43 -1 42 -1 3 -1 2 -1 1 -1 0
1
              1               0               0               0 
              0               1               0               0 
              0               0               1              12 
2  47 -1 44 -1 43 -1 42 -1 3 -1 2 -1 1 -1 0
2  1 1 2 1 3 1 12 1 13 1 14 1 17 1 0
2  1 1 2 1 3 1 19 1 20 1 21 1 24 1 0
2  1 1 2 1 3 1 26 1 27 1 28 1 31 1 0
2  1 1 2 1 3 1 35 1 36 1 37 1 40 1 0
2  1 1 2 1 3 1 42 1 43 1 44 1 47 1 0
Curve2ds 60
1 0 0 0 -1 
1 0 0 1.1102230246251565e-16 -1 
1 351 0 0 -1 
1 0 0 1.1102230246251565e-16 -1 
1 0 0 1 0 
1 0 0 0 1 
1 0 -12 1 0 
1 0 0 0 1 
1 627.99999999999989 -1.5765166949677223e-13 1.1102230246251565e-16 -1 
1 0 0 0 -1 
1 0 0 1 0 
1 0 0 1 0 
1 1.3322676295501878e-15 -12 1 0 
1 0 0 1 0 
1 627.99999999999989 -1.5765166949677223e-13 1.1102230246251565e-16 -1 
1 351 0 0 -1 
1 0 0 1 0 
1 0 351 1 0 
1 1.3322676295501878e-15 -12 1 0 
1 0 351 1 0 
1 0 0 1 0 
1 628 0 0 1 
1 0 0 1 0 
1 0 -12 1 0 
1 0 0 1 0 
1 0 -12 1 0 
1 0 0 1 0 
1 0 -12 1 0 
1 0 0 1 0 
1 0 -12 1 0 
1 0 0 1 0 
1 0 -12 1 0 
1 0 0 1 0 
1 0 -12 1 0 
1 0 0 1 0 
1 0 -12 1 0 
1 0 0 1 0 
1 0 -12 1 0 
1 0 0 1 0 
1 0 -12 1 0 
1 0 -12 1 0 
1 628 0 0 1 
1 0 0 0 -1 
1 6.2831853071795862 0 0 -1 
1 0 0 0 -1 
1 6.2831853071795862 0 0 -1 
1 0 0 0 -1 
1 6.2831853071795862 0 0 -1 
1 1.5707963267948966 0 0 -1 
1 3.141592653589786 0 0 -1 
1 3.1415926535897931 0 0 -1 
1 1.5707963267948966 0 0 -1 
1 1.5707963267948895 0 0 -1 
1 3.1415926535897931 0 0 -1 
1 3.1415926535897931 0 0 -1 
1 1.5707963267948966 0 0 -1 
1 0 0 0 -1 
1 6.2831853071795862 0 0 -1 
1 0 0 0 -1 
1 6.2831853071795862 0 0 -1 
Curves 38
1 0 628.00000000000011 -2.2737367544323206e-13 0 0 1 
1 351 628.00000000000011 -2.2737367544323206e-13 0 0 1 
1 301 1310.0999999999999 644 1 0 -0 
1 301 1310.0999999999999 644 1 0 -0 
1 0 2.2737367544323206e-13 0 0 0 1 
1 301 1310.0999999999999 644 0 0 1 
1 301 1310.0999999999999 644 0 0 1 
1 351 2.2737367544323206e-13 0 0 0 1 
1 652 1310.0999999999999 644 0 0 1 
1 652 1310.0999999999999 644 0 0 1 
1 301 1310.0999999999999 1272 1 0 -0 
2 392.5 1310.0999999999999 1107.5 -0 1 0 0 0 1 1 0 -0 2.25
2 392.5 1310.0999999999999 1212.5 -0 1 0 0 0 1 1 0 -0 2.25
2 445 1310.0999999999995 1160 -0 1 0 0 0 1 1 0 -0 58
2 66 496.00000000000011 1.0436096431476471e-14 0 0 -1 1 0 0 0 -1 0 2
1 32 494.00000000000011 1.0436096431476471e-14 1 0 0 
1 64 601.00000000000011 1.0436096431476471e-14 0 1 0 
2 282 496.00000000000011 1.0436096431476471e-14 -0 0 -1 0 1 0 1 0 -0 2
2 66 572.00000000000011 1.0436096431476471e-14 -0 -0 -1 0 -1 0 -1 0 0 2
1 284 601.00000000000011 1.0436096431476471e-14 0 1 0 
1 32 574.00000000000011 1.0436096431476471e-14 1 0 0 
2 282 572.00000000000011 1.0436096431476471e-14 -0 0 -1 -1 -0 0 0 1 0 2
2 497.5 1310.0999999999999 1107.5 -0 1 0 0 0 1 1 0 -0 2.25
2 497.5 1310.0999999999999 1212.5 -0 1 0 0 0 1 1 0 -0 2.25
1 301 1310.0999999999999 1272 1 0 -0 
1 91.5 162.25000000000023 2.2826185386293218e-13 0 0 1 
1 91.5 57.250000000000227 2.2737367544323206e-13 0 0 1 
1 144 54.000000000000227 7.3016383161379625e-14 0 0 1 
1 66 494.00000000000011 1.0436096431476471e-14 0 0 1 
1 64 496.00000000000011 1.0436096431476471e-14 0 0 1 
1 282 494.00000000000011 1.0436096431476471e-14 0 0 1 
1 64 572.00000000000011 1.0436096431476471e-14 0 0 1 
1 284 496.00000000000011 1.0436096431476471e-14 0 0 1 
1 66 574.00000000000011 1.0436096431476471e-14 0 0 1 
1 284 572.00000000000011 1.0436096431476471e-14 0 0 1 
1 282 574.00000000000011 1.0436096431476471e-14 0 0 1 
1 196.5 162.25000000000023 2.2826185386293218e-13 0 0 1 
1 196.5 57.250000000000227 2.2737367544323206e-13 0 0 1 
Polygon3D 0
PolygonOnTriangulations 0
Surfaces 19
1 0 628.00000000000011 -2.2737367544323206e-13 0 1 0 1 0 0 0 0 -1 
1 0 628.00000000000011 -2.2737367544323206e-13 1 0 -0 0 -1 1.1102230246251565e-16 0 -1.1102230246251565e-16 -1 
1 351 628.00000000000011 -2.2737367544323206e-13 1 0 -0 0 -1 1.1102230246251565e-16 0 -1.1102230246251565e-16 -1 
1 301 1310.0999999999999 644 -0 1 0 0 0 1 1 0 -0 
1 301 1310.0999999999999 644 -0 1 0 0 0 1 1 0 -0 
1 0 2.2737367544323206e-13 0 0 1 0 1 0 0 0 0 -1 
2 91.5 164.50000000000023 2.2737367544323206e-13 0 -1.1102230246251565e-16 -1 0 -1 1.1102230246251565e-16 1 0 0 2.25
2 91.5 59.500000000000227 2.2737367544323206e-13 0 -1.1102230246251565e-16 -1 0 -1 1.1102230246251565e-16 1 0 0 2.25
2 144 112.00000000000023 -2.2737367544323206e-13 0 -1.1102230246251565e-16 -1 0 -1 1.1102230246251565e-16 1 0 0 58
2 66 496.00000000000011 1.0436096431476471e-14 0 0 -1 1 0 0 0 -1 0 2
2 282 496.00000000000011 1.0436096431476471e-14 -0 0 -1 0 1 0 1 0 -0 2
2 66 572.00000000000011 1.0436096431476471e-14 -0 -0 -1 0 -1 0 -1 0 0 2
2 282 572.00000000000011 1.0436096431476471e-14 -0 0 -1 -1 -0 0 0 1 0 2
2 196.5 164.50000000000023 2.2737367544323206e-13 0 -1.1102230246251565e-16 -1 0 -1 1.1102230246251565e-16 1 0 0 2.25
2 196.5 59.500000000000227 2.2737367544323206e-13 0 -1.1102230246251565e-16 -1 0 -1 1.1102230246251565e-16 1 0 0 2.25
1 66 494.00000000000011 1.0436096431476471e-14 0 1 0 1 0 0 0 0 -1 
1 64 496.00000000000011 1.0436096431476471e-14 -1 0 0 0 1 0 0 0 -1 
1 284 496.00000000000011 1.0436096431476471e-14 -1 0 0 0 1 0 0 0 -1 
1 66 574.00000000000011 1.0436096431476471e-14 0 1 0 1 0 0 0 0 -1 
Triangulations 0

TShapes 143
Ve
1e-07
0 628 -2.27373675443232e-13
0 0

0101101
*
Ve
1e-07
0 628 11.9999999999998
0 0

0101101
*
Ed
 1e-07 1 1 0
1  1 0 0 12
2  1 1 0 0 12
2  2 2 0 0 12
0

0101000
+143 0 -142 0 *
Ve
1e-07
351 628 -2.27373675443232e-13
0 0

0101101
*
Ve
1e-07
351 628 11.9999999999998
0 0

0101101
*
Ed
 1e-07 1 1 0
1  2 0 0 12
2  3 1 0 0 12
2  4 3 0 0 12
0

0101000
+140 0 -139 0 *
Ed
 1e-07 1 1 0
1  3 0 0 351
2  5 1 8 0 351
2  6 4 0 0 351
0

0101000
+143 8 -140 8 *
Ed
 1e-07 1 1 0
1  4 0 0 351
2  7 1 11 0 351
2  8 5 0 0 351
0

0101000
+142 11 -139 11 *
Wi

0101100
+141 0 -138 0 -137 7 +136 10 *
Fa
0  1e-07 1 0

0101000
+135 0 *
Ve
1e-07
0 2.27373675443232e-13 0
0 0

0101101
*
Ve
1e-07
0 2.27373675443232e-13 12
0 0

0101101
*
Ed
 1e-07 1 1 0
1  5 0 0 12
2  9 2 0 0 12
2  10 6 0 0 12
0

0101000
+133 0 -132 0 *
Ed
 1e-07 1 1 0
1  6 0 0 628
2  11 2 8 0 628
2  12 4 0 0 628
0

0101000
+143 8 -133 8 *
Ed
 1e-07 1 1 0
1  7 0 0 628
2  13 2 11 0 628
2  14 5 0 0 628
0

0101000
+142 11 -132 11 *
Wi

0101100
+141 0 -131 0 -130 7 +129 10 *
Fa
0  1e-07 2 0

0101000
+128 0 *
Ve
1e-07
351 2.27373675443232e-13 0
0 0

0101101
*
Ve
1e-07
351 2.27373675443232e-13 12
0 0

0101101
*
Ed
 1e-07 1 1 0
1  8 0 0 12
2  15 3 0 0 12
2  16 6 0 0 12
0

0101000
+126 0 -125 0 *
Ed
 1e-07 1 1 0
1  9 0 0 628
2  17 3 8 0 628
2  18 4 0 0 628
0

0101000
+140 8 -126 8 *
Ed
 1e-07 1 1 0
1  10 0 0 628
2  19 3 11 0 628
2  20 5 0 0 628
0

0101000
+139 11 -125 11 *
Wi

0101100
+138 0 -124 0 -123 7 +122 10 *
Fa
0  1e-07 3 0

0101000
+121 0 *
Ed
 1e-07 1 1 0
1  11 0 0 351
2  21 6 8 0 351
2  22 4 0 0 351
0

0101000
+133 8 -126 8 *
Wi

0101100
-137 7 +130 7 -123 7 +119 7 *
Ve
1.00000404148937e-07
91.5 162.25 2.28261853862932e-13
0 0

0101101
*
Ed
 1.00000403288514e-07 1 1 0
1  12 0 0 6.28318530717959
2  23 7 16 0 6.28318530717959
2  24 7 18 0 6.28318530717959
0

0101000
+117 16 -117 16 *
Wi

0101100
-116 15 *
Ve
1.00000392574862e-07
91.5 57.2500000000002 2.27373675443232e-13
0 0

0101101
*
Ed
 1.00000392574862e-07 1 1 0
1  13 0 0 6.28318530717959
2  25 8 23 0 6.28318530717959
2  26 8 25 0 6.28318530717959
0

0101000
+114 23 -114 23 *
Wi

0101100
-113 22 *
Ve
1.00001040651317e-07
144 54.0000000000002 7.30163831613796e-14
0 0

0101101
*
Ed
 1.00000894618551e-07 1 1 0
1  14 0 0 6.28318530717959
2  27 9 30 0 6.28318530717959
2  28 9 32 0 6.28318530717959
0

0101000
+111 30 -111 30 *
Wi

0101100
-110 29 *
Ve
1.50000217159624e-07
66 494 1.04360964314765e-14
0 0

0101101
*
Ve
1.50000228816965e-07
64 496 1.04360964314765e-14
0 0

0101101
*
Ed
 1.00000223125845e-07 1 1 0
1  15 0 1.5707963267949 3.14159265358979
2  29 10 0 1.5707963267949 3.14159265358979
2  30 10 34 1.5707963267949 3.14159265358979
0

0101000
+108 0 -107 0 *
Ve
1.50000217159624e-07
282 494 1.04360964314765e-14
0 0

0101101
*
Ed
 1.50000217159624e-07 1 1 0
1  16 0 34 250
0

0101000
+108 0 -105 0 *
Ve
1.50000228113824e-07
64 572 1.04360964314765e-14
0 0

0101101
*
Ed
 1.50000228113824e-07 1 1 0
1  17 0 -105 -29
0

0101000
+107 0 -103 0 *
Ve
1.50000228816965e-07
284 496 1.04360964314765e-14
0 0

0101101
*
Ed
 1.00000223125845e-07 1 1 0
1  18 0 1.57079632679489 3.14159265358979
2  31 11 0 1.57079632679489 3.14159265358979
2  32 11 34 1.57079632679489 3.14159265358979
0

0101000
+101 0 -105 0 *
Ve
1.50000217159624e-07
66 574 1.04360964314765e-14
0 0

0101101
*
Ed
 1.00000231812668e-07 1 1 0
1  19 0 1.5707963267949 3.14159265358979
2  33 12 0 1.5707963267949 3.14159265358979
2  34 12 34 1.5707963267949 3.14159265358979
0

0101000
+103 0 -99 0 *
Ve
1.50000228113824e-07
284 572 1.04360964314765e-14
0 0

0101101
*
Ed
 1.50000228113824e-07 1 1 0
1  20 0 -105 -29
0

0101000
+101 0 -97 0 *
Ve
1.50000217159624e-07
282 574 1.04360964314765e-14
0 0

0101101
*
Ed
 1.50000217159624e-07 1 1 0
1  21 0 34 250
0

0101000
+99 0 -95 0 *
Ed
 1.00000231812668e-07 1 1 0
1  22 0 1.5707963267949 3.14159265358979
2  35 13 0 1.5707963267949 3.14159265358979
2  36 13 34 1.5707963267949 3.14159265358979
0

0101000
+95 0 -97 0 *
Wi

0101100
+106 0 -104 0 +102 0 +100 0 +98 0 -96 0 +94 0 +93 0 *
Ve
1.00000404148937e-07
196.5 162.25 2.28261853862932e-13
0 0

0101101
*
Ed
 1.00000403288514e-07 1 1 0
1  23 0 0 6.28318530717959
2  37 14 39 0 6.28318530717959
2  38 14 41 0 6.28318530717959
0

0101000
+91 39 -91 39 *
Wi

0101100
-90 38 *
Ve
1.00000406785716e-07
196.5 57.2500000000002 2.27373675443232e-13
0 0

0101101
*
Ed
 1.00000406785716e-07 1 1 0
1  24 0 0 6.28318530717959
2  39 15 46 0 6.28318530717959
2  40 15 48 0 6.28318530717959
0

0101000
+88 46 -88 46 *
Wi

0101100
-87 45 *
Fa
0  1e-07 4 7

0101000
+118 0 +115 0 +112 0 +109 0 +92 0 +89 0 +86 0 *
Ed
 1e-07 1 1 0
1  25 0 0 351
2  41 6 11 0 351
2  42 5 0 0 351
0

0101000
+132 11 -125 11 *
Wi

0101100
-136 10 +129 10 -122 10 +84 10 *
Ve
1.00000404148937e-07
91.5 162.25 12.0000000000002
0 0

0101101
*
Ed
 1.00000403288514e-07 1 1 0
1  12 0 0 6.28318530717959
2  23 7 16 0 6.28318530717959
2  24 7 18 0 6.28318530717959
0

0101000
+82 18 -82 18 *
Wi

0101100
-81 49 *
Ve
1.00000392574862e-07
91.5 57.2500000000002 12.0000000000002
0 0

0101101
*
Ed
 1.00000392574862e-07 1 1 0
1  13 0 0 6.28318530717959
2  25 8 23 0 6.28318530717959
2  26 8 25 0 6.28318530717959
0

0101000
+79 25 -79 25 *
Wi

0101100
-78 50 *
Ve
1.00001040651317e-07
144 54.0000000000002 12.0000000000001
0 0

0101101
*
Ed
 1.00000894618551e-07 1 1 0
1  14 0 0 6.28318530717959
2  27 9 30 0 6.28318530717959
2  28 9 32 0 6.28318530717959
0

0101000
+76 32 -76 32 *
Wi

0101100
-75 51 *
Ve
1.50000217159624e-07
66 494 12
0 0

0101101
*
Ve
1.50000228816965e-07
64 496 12
0 0

0101101
*
Ed
 1.00000223820962e-07 1 1 0
1  15 0 1.5707963267949 3.14159265358979
2  29 10 0 1.5707963267949 3.14159265358979
2  30 10 34 1.5707963267949 3.14159265358979
0

0101000
+73 34 -72 34 *
Ve
1.50000217159624e-07
282 494 12
0 0

0101101
*
Ed
 1.50000217159624e-07 1 1 0
1  16 0 34 250
0

0101000
+73 34 -70 34 *
Ve
1.50000228113824e-07
64 572 12
0 0

0101101
*
Ed
 1.50000228113824e-07 1 1 0
1  17 0 -105 -29
0

0101000
+72 34 -68 34 *
Ve
1.50000228816965e-07
284 496 12
0 0

0101101
*
Ed
 1.00000223820962e-07 1 1 0
1  18 0 1.57079632679489 3.14159265358979
2  31 11 0 1.57079632679489 3.14159265358979
2  32 11 34 1.57079632679489 3.14159265358979
0

0101000
+66 34 -70 34 *
Ve
1.50000217159624e-07
66 574 12
0 0

0101101
*
Ed
 1.00000232702746e-07 1 1 0
1  19 0 1.5707963267949 3.14159265358979
2  33 12 0 1.5707963267949 3.14159265358979
2  34 12 34 1.5707963267949 3.14159265358979
0

0101000
+68 34 -64 34 *
Ve
1.50000228113824e-07
284 572 12
0 0

0101101
*
Ed
 1.50000228113824e-07 1 1 0
1  20 0 -105 -29
0

0101000
+66 34 -62 34 *
Ve
1.50000217159624e-07
282 574 12
0 0

0101101
*
Ed
 1.50000217159624e-07 1 1 0
1  21 0 34 250
0

0101000
+64 34 -60 34 *
Ed
 1.00000232702746e-07 1 1 0
1  22 0 1.5707963267949 3.14159265358979
2  35 13 0 1.5707963267949 3.14159265358979
2  36 13 34 1.5707963267949 3.14159265358979
0

0101000
+60 34 -62 34 *
Wi

0101100
+71 33 -69 33 +67 33 +65 33 +63 33 -61 33 +59 33 +58 33 *
Ve
1.00000404148937e-07
196.5 162.25 12.0000000000002
0 0

0101101
*
Ed
 1.00000403288514e-07 1 1 0
1  23 0 0 6.28318530717959
2  37 14 39 0 6.28318530717959
2  38 14 41 0 6.28318530717959
0

0101000
+56 41 -56 41 *
Wi

0101100
-55 52 *
Ve
1.00000406785716e-07
196.5 57.2500000000002 12.0000000000002
0 0

0101101
*
Ed
 1.00000406785716e-07 1 1 0
1  24 0 0 6.28318530717959
2  39 15 46 0 6.28318530717959
2  40 15 48 0 6.28318530717959
0

0101000
+53 48 -53 48 *
Wi

0101100
-52 53 *
Fa
0  1e-07 5 10

0101000
+83 0 +80 0 +77 0 +74 0 +57 0 +54 0 +51 0 *
Wi

0101100
+131 0 -124 0 -119 7 +84 10 *
Fa
0  1e-07 6 0

0101000
+49 0 *
Ed
 1.00000404148937e-07 1 1 0
1  26 0 0 12
3  43 44CN 7 0 0 12
0

0101000
+117 0 -82 0 *
Wi

0101100
+47 0 -47 0 -116 15 +81 49 *
Fa
0  1.00000403288514e-07 7 0

0101000
+46 0 *
Ed
 1.00000392574862e-07 1 1 0
1  27 0 0 12
3  45 46CN 8 0 0 12
0

0101000
+114 0 -79 0 *
Wi

0101100
+44 0 -44 0 -113 22 +78 50 *
Fa
0  1.00000392574862e-07 8 0

0101000
+43 0 *
Ed
 1.00001040651317e-07 1 1 0
1  28 0 0 12
3  47 48CN 9 0 0 12
0

0101000
+111 0 -76 0 *
Wi

0101100
+41 0 -41 0 -110 29 +75 51 *
Fa
0  1.00000894618551e-07 9 0

0101000
+40 0 *
Ed
 1.50000217159624e-07 1 1 0
1  29 0 0 12
2  49 10 0 0 12
4 G1 16 0 10 0
0

0101000
+108 0 -73 0 *
Ed
 1.50000228816965e-07 1 1 0
1  30 0 0 12
2  50 10 0 0 12
4 G1 17 0 10 0
0

0101000
+107 0 -72 0 *
Wi

0101100
+38 0 -37 0 -106 0 +71 33 *
Fa
0  1.00000004438992e-07 10 0

0101000
+36 0 *
Ed
 1.50000217159624e-07 1 1 0
1  31 0 0 12
2  51 11 0 0 12
4 G1 11 0 16 0
0

0101000
+105 0 -70 0 *
Wi

0101100
+38 0 -34 0 -104 0 +69 33 *
Fa
0  1.50000217159624e-07 16 0

0101000
+33 0 *
Ed
 1.50000228113824e-07 1 1 0
1  32 0 0 12
2  52 12 0 0 12
4 G1 17 0 12 0
0

0101000
+103 0 -68 0 *
Wi

0101100
+37 0 -31 0 -102 0 +67 33 *
Fa
0  1.50000228113824e-07 17 0

0101000
+30 0 *
Ed
 1.50000228816965e-07 1 1 0
1  33 0 0 12
2  53 11 0 0 12
4 G1 18 0 11 0
0

0101000
+101 0 -66 0 *
Wi

0101100
+28 0 -34 0 -100 0 +65 33 *
Fa
0  1.00000004438992e-07 11 0

0101000
+27 0 *
Ed
 1.50000217159624e-07 1 1 0
1  34 0 0 12
2  54 12 0 0 12
4 G1 12 0 19 0
0

0101000
+99 0 -64 0 *
Wi

0101100
+31 0 -25 0 -98 0 +63 33 *
Fa
0  1.00000004438992e-07 12 0

0101000
+24 0 *
Ed
 1.50000228113824e-07 1 1 0
1  35 0 0 12
2  55 13 0 0 12
4 G1 13 0 18 0
0

0101000
+97 0 -62 0 *
Wi

0101100
+28 0 -22 0 -96 0 +61 33 *
Fa
0  1.50000228113824e-07 18 0

0101000
+21 0 *
Ed
 1.50000217159624e-07 1 1 0
1  36 0 0 12
2  56 13 0 0 12
4 G1 19 0 13 0
0

0101000
+95 0 -60 0 *
Wi

0101100
+25 0 -19 0 -94 0 +59 33 *
Fa
0  1.50000217159624e-07 19 0

0101000
+18 0 *
Wi

0101100
+19 0 -22 0 -93 0 +58 33 *
Fa
0  1.00000004438992e-07 13 0

0101000
+16 0 *
Ed
 1.00000404148937e-07 1 1 0
1  37 0 0 12
3  57 58CN 14 0 0 12
0

0101000
+91 0 -56 0 *
Wi

0101100
+14 0 -14 0 -90 38 +55 52 *
Fa
0  1.00000403288514e-07 14 0

0101000
+13 0 *
Ed
 1.00000406785716e-07 1 1 0
1  38 0 0 12
3  59 60CN 15 0 0 12
0

0101000
+88 0 -53 0 *
Wi

0101100
+11 0 -11 0 -87 45 +52 53 *
Fa
0  1.00000406785716e-07 15 0

0101000
+10 0 *
Sh

0101100
+134 0 -127 0 +120 0 -85 0 +50 0 -48 0 +45 0 +42 0 +39 0 -35 0 
+32 0 -29 0 -26 0 -23 0 +20 0 -17 0 -15 0 +12 0 +9 0 *
So

0100000
+8 0 *
Co

0100000
+7 0 *
Co

0100000
+6 0 *
Co

0100000
+5 0 *
Co

0100000
+4 0 *
Co

0100000
+3 0 *
Co

1100000
+2 0 *

+1 0 