DBRep_DrawableShape

CASCADE Topology V1, (c) Matra-Datavision
Locations 10
1
              1               0               0               0 
              0               1               0               0 
              0               0               1              -1 
1
              1               0               0               0 
              0               1               0               0 
              0               0               1               0 
1
             -1               0 -1.22464679914735e-16               0 
              0               1               0               0 
1.22464679914735e-16               0              -1               0 
1
              1               0               0             241 
              0               1               0         -1274.1 
              0               0               1             790 
1
              1               0               0               0 
              0               1               0               0 
              0               0               1              -0 
1
              1               0               0               0 
              0               1               0               0 
              0               0               1               1 
2  2 1 3 1 4 1 5 1 6 1 0
2  6 -1 5 -1 4 -1 3 -1 2 -1 0
2  3 1 4 1 5 1 6 1 0
2  6 -1 5 -1 4 -1 3 -1 0
Curve2ds 4
1 0 0 0 1 
1 0 42 1 0 
1 232 0 0 1 
8 -237 -5
1 -5 6 -1 0 
Curves 4
1 9 1268.0999999999999 790 -0 1 0 
1 9 1310.0999999999999 790 1 0 -0 
1 241 1268.0999999999999 790 -0 1 0 
1 4 1274.0999999999999 790 -1 -0 0 
Polygon3D 0
PolygonOnTriangulations 0
Surfaces 1
1 9 1268.0999999999999 790 0 0 1 1 0 -0 -0 1 0 
Triangulations 0

TShapes 9
Ve
2.00000454796137e-07
232 2.27373675443232e-13 1
0 0

0101101
*
Ve
2.00000454796137e-07
232 36.0000000000002 1
0 0

0101101
*
Ed
 2.00000454796137e-07 1 1 0
1  1 0 6 42
2  1 1 0 6 42
0

0101000
+9 8 -8 8 *
Ve
2.00000454796137e-07
2.8421709430404e-14 36.0000000000002 1
0 0

0101101
*
Ed
 2.00000454796137e-07 1 1 0
1  2 0 0 232
2  2 1 0 0 232
0

0101000
+8 8 -6 8 *
Ve
2.00000454796137e-07
2.8421709430404e-14 2.27373675443232e-13 1
0 0

0101101
*
Ed
 2.00000454796137e-07 1 1 0
1  3 0 6 42
2  3 1 0 6 42
0

0101000
+4 8 -6 8 *
Ed
 2.00000454796137e-07 1 1 0
1  4 0 -237 -5
2  4 1 2 -237 -5
0

0101000
+4 10 -9 10 *
Wi

0101100
-7 7 -5 7 +3 7 -2 9 *

-1 1 