DBRep_DrawableShape

CASCADE Topology V1, (c) Matra-Datavision
Locations 18
1
              1               0               0               0 
              0               1               0               0 
              0               0               1               0 
1
1.11022302462516e-16               0               1               0 
              0               1               0               0 
             -1               0 1.11022302462516e-16               0 
1
              1               0               0            -686 
              0               1               0         -1274.1 
              0               0               1 14.9999999999999 
1
              1               0               0               0 
              0               1               0               0 
              0               0               1              -6 
1
              1               0               0               0 
              0               1               0               0 
              0               0               1               1 
1
              1               0               0               0 
              0               1               0               0 
              0               0               1              -1 
2  1 1 2 1 3 1 4 1 5 1 6 1 0
2  6 -1 5 -1 4 -1 3 -1 2 -1 1 -1 0
1
              1               0               0               0 
              0               1               0               0 
              0               0               1               6 
2  1 1 2 1 3 1 4 1 5 1 6 1 9 1 0
2  9 -1 6 -1 5 -1 4 -1 3 -1 2 -1 1 -1 0
2  2 1 3 1 4 1 5 1 6 1 0
2  6 -1 5 -1 4 -1 3 -1 2 -1 0
2  2 1 3 1 4 1 5 1 6 1 9 1 0
2  9 -1 6 -1 5 -1 4 -1 3 -1 2 -1 0
2  1 1 2 1 3 1 4 1 5 1 0
2  2 1 3 1 4 1 5 1 0
2  6 1 9 1 0
Curve2ds 24
1 0 8.8817841970012523e-16 0 -1 
1 98 3.3306690738754696e-16 -1.1102230246251565e-16 -1 
1 36 8.8817841970012523e-16 0 -1 
1 -7.3955709864469857e-32 6.6613381477509392e-16 1.1102230246251565e-16 -1 
1 -6 0 1 0 
1 52 21 0 -1 
1 -6 -6 1 0 
1 52 21 0 -1 
1 98 8.8817841970012523e-16 1.1102230246251565e-16 -1 
1 36 8.8817841970012523e-16 0 -1 
1 98 0 1 0 
1 -46 -21 -1 0 
1 98 -6 1 0 
1 -46 -21 -1 0 
1 0 0 0 -1 
1 -3.6977854932234928e-32 -3.3306690738754696e-16 -1.1102230246251565e-16 -1 
1 2.5 0 1 0 
8 -2.5 33.5
1 -46 12.5 0 -1 
1 2.5 -6 1 0 
8 -2.5 33.5
1 -46 12.5 0 -1 
1 77 0 1 0 
8 -83 21
1 31 15 1 0 
1 77 -6 1 0 
8 -83 21
1 31 15 1 0 
Curves 12
1 0 2.2737367544323206e-13 -4.4408920985006262e-15 0 0 1 
1 0 36.000000000000227 -4.4408920985006262e-15 0 0 1 
1 9 1268.0999999999999 686 -0 1 0 
1 9 1268.0999999999999 686 -0 1 0 
1 98 36.000000000000227 6.2172489379008766e-15 0 0 1 
1 9 1310.0999999999999 784 0 0 1 
1 9 1310.0999999999999 784 0 0 1 
1 98 2.2737367544323206e-13 7.1054273576010019e-15 0 0 1 
1 9 1276.5999999999999 784 0 1 0 
1 9 1276.5999999999999 784 0 1 0 
1 9 1274.0999999999999 707 0 0 -1 
1 9 1274.0999999999999 707 0 0 -1 
Polygon3D 0
PolygonOnTriangulations 0
Surfaces 6
1 0 2.2737367544323206e-13 -3.5527136788005009e-15 -1 0 0 0 1 0 0 0 -1 
1 98 2.2737367544323206e-13 6.7723604502134549e-15 -0 -1 0 -1 0 -1.1102230246251565e-16 1.1102230246251565e-16 -0 -1 
1 0 36.000000000000227 -3.7747582837255322e-15 0 1 0 1 -0 1.1102230246251565e-16 1.1102230246251565e-16 0 -1 
1 9 1289.0999999999999 738 -1 -0 -0 0 0 -1 0 -1 0 
1 9 1289.0999999999999 738 -1 -0 -0 0 0 -1 0 -1 0 
1 98 2.2737367544323206e-13 7.1054273576010019e-15 -1 0 0 0 1 0 0 0 -1 
Triangulations 0

TShapes 34
Ve
2.00000001776357e-07
0 2.27373675443232e-13 -4.44089209850063e-15
0 0

0101101
*
Ve
2.00000001776357e-07
0 2.27373675443232e-13 6
0 0

0101101
*
Ed
 2.00000001776357e-07 1 1 0
1  1 0 0 6
2  1 1 0 0 6
2  2 2 0 0 6
0

0101000
+34 0 -33 0 *
Ve
2.00000001776357e-07
0 36.0000000000002 -4.44089209850063e-15
0 0

0101101
*
Ve
2.00000001776357e-07
0 36.0000000000002 6
0 0

0101101
*
Ed
 2.00000001776357e-07 1 1 0
1  2 0 0 6
2  3 1 0 0 6
2  4 3 0 0 6
0

0101000
+31 0 -30 0 *
Ed
 2.00000001776357e-07 1 1 0
1  3 0 6 42
2  5 1 8 6 42
2  6 4 0 6 42
0

0101000
+34 8 -31 8 *
Ed
 2.00000001776357e-07 1 1 0
1  4 0 6 42
2  7 1 11 6 42
2  8 5 0 6 42
0

0101000
+33 11 -30 11 *
Wi

0101100
+32 0 -29 0 -28 7 +27 10 *
Fa
0  2.00000001776357e-07 1 0

0101000
+26 0 *
Ve
2.00000001776357e-07
98 36.0000000000002 6.21724893790088e-15
0 0

0101101
*
Ve
2.00000001776357e-07
98 36.0000000000002 6.00000000000001
0 0

0101101
*
Ed
 2.00000001776357e-07 1 1 0
1  5 0 0 6
2  9 3 0 0 6
2  10 6 0 0 6
0

0101000
+24 0 -23 0 *
Ed
 2.00000001554312e-07 1 1 0
1  6 0 -98 0
2  11 3 8 -98 0
2  12 4 0 -98 0
0

0101000
+31 8 -24 8 *
Ed
 2.00000001554312e-07 1 1 0
1  7 0 -98 0
2  13 3 11 -98 0
2  14 5 0 -98 0
0

0101000
+30 11 -23 11 *
Wi

0101100
+29 0 -22 0 -21 7 +20 10 *
Fa
0  2.00000001554312e-07 3 0

0101000
+19 0 *
Ve
2.00000227373675e-07
98 2.27373675443232e-13 7.105427357601e-15
0 0

0101101
*
Ve
2.00000227373675e-07
98 2.27373675443232e-13 6.00000000000001
0 0

0101101
*
Ed
 2.00000227373675e-07 1 1 0
1  8 0 0 6
2  15 6 0 0 6
2  16 2 0 0 6
0

0101000
+17 0 -16 0 *
Ed
 2.00000001776357e-07 1 1 0
1  9 0 -2.5 33.5
2  17 6 13 -2.5 33.5
2  18 4 1 -2.5 33.5
0

0101000
+17 13 -24 13 *
Ed
 2.00000001776357e-07 1 1 0
1  10 0 -2.5 33.5
2  19 6 15 -2.5 33.5
2  20 5 1 -2.5 33.5
0

0101000
+16 15 -23 15 *
Wi

0101100
+15 0 -22 0 -14 12 +13 14 *
Fa
0  2.00000001776357e-07 6 0

0101000
+12 0 *
Ed
 2.00000001221245e-07 1 1 0
1  11 0 -77 21
2  21 2 13 -77 21
2  22 4 1 -77 21
0

0101000
+17 13 -34 13 *
Ed
 2.00000001221245e-07 1 1 0
1  12 0 -77 21
2  23 2 15 -77 21
2  24 5 1 -77 21
0

0101000
+16 15 -33 15 *
Wi

0101100
+15 0 -32 0 -10 12 +9 14 *
Fa
0  2.00000001221245e-07 2 0

0101000
+8 0 *
Wi

0101100
-28 16 -21 16 +14 17 -10 17 *
Fa
0  2e-07 4 16

0101000
+6 0 *
Wi

0101100
-27 16 -20 16 +13 17 -9 17 *
Fa
0  2e-07 5 16

0101000
+4 0 *
Sh

0101100
-25 0 -18 0 +11 0 -7 0 +5 6 -3 18 *
So

1100000
-2 0 *

+1 0 