DBRep_DrawableShape

CASCADE Topology V1, (c) Matra-Datavision
Locations 5
1
1.11022302462516e-16               0               1               0 
              0               1               0               0 
             -1               0 1.11022302462516e-16               0 
1
              1               0               0            -686 
              0               1               0         -1274.1 
              0               0               1 14.9999999999999 
2  1 1 2 1 0
1
              1               0               0               0 
              0               1               0               0 
              0               0               1               0 
2  4 -1 0
Curve2ds 24
1 52 21 0 -1 
1 116 -8.5741935483872567 0 1 
1 -46 -21 -1 0 
1 21.838709677419388 -116 1 0 
8 -2.5 33.5
1 -46 12.5 0 -1 
1 116 -15.499999999999773 0 1 
8 -83 21
1 31 15 1 0 
1 -31 -116 -1 0 
1 63 -2.5741935483872567 -1 0 
1 -52 -63 0 1 
1 110 -8.5741935483872567 0 1 
1 0 0 0 -1 
1 116 33.425806451612743 -1 0 
1 -76.161290322580612 -116 0 1 
1 21.838709677419388 -63 0 1 
1 63 18.000000000000682 -1 0 
1 -76.161290322580612 -110 1 0 
1 0 -42 1 0 
1 63 -18 -1 0 
1 46 -63 0 1 
1 110 -23.999999999999773 0 1 
1 98 0 0 -1 
1 -52 -110 -1 0 
8 -98 0
1 0 -6 -1 -0 
Curves 12
1 9 1268.0999999999999 686 -0 1 0 
1 9 1310.0999999999999 784 0 0 1 
1 9 1276.5999999999999 784 0 1 0 
1 9 1274.0999999999999 707 0 0 -1 
1 62 1274.0999999999999 686 1 0 -0 
1 15 1268.0999999999999 686 -0 1 0 
1 9 1310.0999999999999 686 1 0 -0 
1 62 1310.1000000000004 784 1 0 0 
1 15 1310.0999999999999 686 0 0 1 
1 62 1274.0999999999997 784 1 0 0 
1 15 1268.0999999999999 784 -0 1 0 
1 15 1274.0999999999999 686 -0 0 -1 
Polygon3D 0
PolygonOnTriangulations 0
Surfaces 6
1 9 1289.0999999999999 738 -1 -0 -0 0 0 -1 0 -1 0 
1 125 1276.6741935483872 686 -0 -0 -1 -1 0 0 0 1 -0 
1 125 1310.1000000000004 762.16129032258061 0 1 0 0 -0 1 1 0 -0 
1 125 1292.0999999999997 784 -0 -0 -1 -1 0 0 0 1 -0 
1 125 1274.0999999999997 738 0 1 0 0 -0 1 1 0 -0 
1 15 1268.0999999999999 686 1 0 -0 0 0 1 0 -1 0 
Triangulations 0

TShapes 34
Ve
2e-07
9 1274.1 686
0 0

0101101
*
Ve
2e-07
9 1310.1 686
0 0

0101101
*
Ed
 2e-07 1 1 0
1  1 0 6 42
2  1 1 0 6 42
2  2 2 0 6 42
0

0101000
+34 5 -33 5 *
Ve
2e-07
9 1310.1 784
0 0

0101101
*
Ed
 2e-07 1 1 0
1  2 0 -98 0
2  3 1 0 -98 0
2  4 3 0 -98 0
0

0101000
+33 5 -31 5 *
Ve
2.00000227373675e-07
9 1274.1 784
0 0

0101101
*
Ed
 2e-07 1 1 0
1  3 0 -2.5 33.5
2  5 1 4 -2.5 33.5
2  6 4 0 -2.5 33.5
0

0101000
+29 0 -31 0 *
Ed
 2e-07 1 1 0
1  4 0 -77 21
2  7 1 4 -77 21
2  8 5 0 -77 21
0

0101000
+29 0 -34 0 *
Wi

0101100
-32 4 -30 4 +28 0 -27 0 *
Fa
0  1e-07 1 4

0101000
+26 0 *
Ve
2e-07
15 1274.1 686
0 0

0101101
*
Ed
 1.5e-07 1 1 0
1  5 0 -53 -47
2  9 2 4 -53 -47
2  10 5 0 -53 -47
0

0101000
+34 0 -24 0 *
Ve
2e-07
15 1310.1 686
0 0

0101101
*
Ed
 2e-07 1 1 0
1  6 0 6 42
2  11 2 0 6 42
2  12 6 0 6 42
0

0101000
+24 5 -22 5 *
Ed
 2e-07 1 1 0
1  7 0 0 6
2  13 2 0 0 6
2  14 3 0 0 6
0

0101000
-22 5 +33 5 *
Wi

0101100
-23 0 -21 4 +20 4 +32 4 *
Fa
0  1e-07 2 4

0101000
+19 0 *
Ve
2e-07
15 1310.1 784
0 0

0101101
*
Ed
 2e-07 1 1 0
1  8 0 -53 -47
2  15 3 4 -53 -47
2  16 4 0 -53 -47
0

0101000
+31 0 -17 0 *
Ed
 2e-07 1 1 0
1  9 0 0 98
2  17 3 0 0 98
2  18 6 0 0 98
0

0101000
+22 5 -17 5 *
Wi

0101100
+16 0 +30 4 -20 4 -15 4 *
Fa
0  1e-07 3 4

0101000
+14 0 *
Ve
2e-07
15 1274.1 784
0 0

0101101
*
Ed
 2e-07 1 1 0
1  10 0 -53 -47
2  19 4 0 -53 -47
2  20 5 0 -53 -47
0

0101000
+29 0 -12 0 *
Ed
 2e-07 1 1 0
1  11 0 6 42
2  21 4 5 6 42
2  22 6 0 6 42
0

0101000
+12 5 -17 5 *
Wi

0101100
-11 0 -10 4 +16 0 +28 0 *
Fa
0  2e-07 4 0

0101000
+9 0 *
Ed
 2e-07 1 1 0
1  12 0 -98 0
2  23 5 5 -98 0
2  24 6 0 -98 0
0

0101000
+12 5 -24 5 *
Wi

0101100
-23 0 +7 4 +11 0 -27 0 *
Fa
0  1.5e-07 5 0

0101000
+6 0 *
Wi

0101100
+7 4 -10 4 +15 4 +21 4 *
Fa
0  1e-07 6 4

0101000
+4 0 *
Sh

0101100
+25 0 +18 0 +13 0 -8 0 -5 0 +3 0 *
So

1100000
+2 0 *

+1 3 