DBRep_DrawableShape

CASCADE Topology V1, (c) Matra-Datavision
Locations 13
1
              1               0               0               0 
              0               1               0               0 
              0               0               1               0 
1
1.11022302462516e-16               0               1               0 
              0               1               0               0 
             -1               0 1.11022302462516e-16               0 
1
              1               0               0            -686 
              0               1               0         -1274.1 
              0               0               1             241 
1
              1               0               0               0 
              0               1               0               0 
              0               0               1              -6 
1
              1               0               0               0 
              0               1               0               0 
              0               0               1               1 
1
              1               0               0               0 
              0               1               0               0 
              0               0               1              -1 
2  1 1 2 1 3 1 4 1 5 1 6 1 0
2  6 -1 5 -1 4 -1 3 -1 2 -1 1 -1 0
1
              1               0               0               0 
              0               1               0               0 
              0               0               1               6 
2  1 1 2 1 3 1 4 1 5 1 6 1 9 1 0
2  9 -1 6 -1 5 -1 4 -1 3 -1 2 -1 1 -1 0
2  1 1 2 1 3 1 4 1 5 1 0
2  6 1 9 1 0
Curve2ds 24
1 1.2079432611196743e-30 1.0880185641326534e-14 -1.1102230246251565e-16 -1 
1 0 0 0 -1 
1 98 0 -1.1102230246251565e-16 -1 
1 0 0 0 -1 
1 98 0 1 0 
8 -98 0
1 0 -6 -1 -0 
1 98 -6 1 0 
8 -98 0
1 0 -6 -1 -0 
1 36 0 0 -1 
1 98 1.0880185641326534e-14 1.1102230246251565e-16 -1 
1 -6 0 1 0 
1 98 0 0 -1 
1 -6 -6 1 0 
1 98 0 0 -1 
1 0 0 1.1102230246251565e-16 -1 
1 36 0 0 -1 
1 0 0 1 0 
1 0 -42 1 0 
1 6.6613381477509392e-16 -6 1 0 
1 0 -42 1 0 
1 -6 0 1 0 
1 0 0 0 -1 
1 -6 -6 1 0 
1 0 0 0 -1 
Curves 12
1 98 2.2737367544323206e-13 0 0 0 1 
1 0 2.2737367544323206e-13 0 0 0 1 
1 235 1274.0999999999999 686 -0 0 -1 
1 235 1274.0999999999999 686 -0 0 -1 
1 98 36.000000000000227 0 0 0 1 
1 235 1268.0999999999999 784 -0 1 0 
1 235 1268.0999999999999 784 -0 1 0 
1 0 36.000000000000227 0 0 0 1 
1 235 1310.0999999999999 686 0 0 1 
1 235 1310.0999999999999 686 0 0 1 
1 235 1268.0999999999999 686 -0 1 0 
1 235 1268.0999999999999 686 -0 1 0 
Polygon3D 0
PolygonOnTriangulations 0
Surfaces 6
1 98 2.2737367544323206e-13 1.0880185641326534e-14 -0 -1 0 -1 0 -1.1102230246251565e-16 1.1102230246251565e-16 -0 -1 
1 98 2.2737367544323206e-13 0 -1 0 0 0 1 0 0 0 -1 
1 0 2.2737367544323206e-13 0 -1 0 0 0 1 0 0 0 -1 
1 235 1268.0999999999999 686 1 0 -0 0 0 1 0 -1 0 
1 235 1268.0999999999999 686 1 0 -0 0 0 1 0 -1 0 
1 0 36.000000000000227 0 0 1 0 1 -0 1.1102230246251565e-16 1.1102230246251565e-16 0 -1 
Triangulations 0

TShapes 34
Ve
2.00000227373675e-07
98 2.27373675443232e-13 0
0 0

0101101
*
Ve
2.00000227373675e-07
98 2.27373675443232e-13 6
0 0

0101101
*
Ed
 2.00000227373675e-07 1 1 0
1  1 0 0 6
2  1 1 0 0 6
2  2 2 0 0 6
0

0101000
+34 0 -33 0 *
Ve
2.00000002442491e-07
0 2.27373675443232e-13 0
0 0

0101101
*
Ve
2.00000002442491e-07
0 2.27373675443232e-13 6
0 0

0101101
*
Ed
 2.00000002442491e-07 1 1 0
1  2 0 0 6
2  3 1 0 0 6
2  4 3 0 0 6
0

0101000
+31 0 -30 0 *
Ed
 2.00000002442491e-07 1 1 0
1  3 0 -98 0
2  5 1 8 -98 0
2  6 4 0 -98 0
0

0101000
+34 8 -31 8 *
Ed
 2.00000002442491e-07 1 1 0
1  4 0 -98 0
2  7 1 11 -98 0
2  8 5 0 -98 0
0

0101000
+33 11 -30 11 *
Wi

0101100
+32 0 -29 0 -28 7 +27 10 *
Fa
0  2.00000002442491e-07 1 0

0101000
+26 0 *
Ve
2.00000012902014e-07
98 36.0000000000002 0
0 0

0101101
*
Ve
2.00000012902014e-07
98 36.0000000000002 6
0 0

0101101
*
Ed
 2.00000012902014e-07 1 1 0
1  5 0 0 6
2  9 2 0 0 6
2  10 6 0 0 6
0

0101000
+24 0 -23 0 *
Ed
 2e-07 1 1 0
1  6 0 6 42
2  11 2 8 6 42
2  12 4 0 6 42
0

0101000
+34 8 -24 8 *
Ed
 2e-07 1 1 0
1  7 0 6 42
2  13 2 11 6 42
2  14 5 0 6 42
0

0101000
+33 11 -23 11 *
Wi

0101100
+32 0 -22 0 -21 7 +20 10 *
Fa
0  2e-07 2 0

0101000
+19 0 *
Ve
2.00000012902014e-07
0 36.0000000000002 0
0 0

0101101
*
Ve
2.00000012902014e-07
0 36.0000000000002 6
0 0

0101101
*
Ed
 2.00000012902014e-07 1 1 0
1  8 0 0 6
2  15 6 0 0 6
2  16 3 0 0 6
0

0101000
+17 0 -16 0 *
Ed
 2.00000012902014e-07 1 1 0
1  9 0 0 98
2  17 6 8 0 98
2  18 4 0 0 98
0

0101000
+17 8 -24 8 *
Ed
 2.00000012902014e-07 1 1 0
1  10 0 0 98
2  19 6 11 0 98
2  20 5 0 0 98
0

0101000
+16 11 -23 11 *
Wi

0101100
+15 0 -22 0 -14 7 +13 10 *
Fa
0  2.00000012902014e-07 6 0

0101000
+12 0 *
Ed
 2e-07 1 1 0
1  11 0 6 42
2  21 3 8 6 42
2  22 4 0 6 42
0

0101000
+31 8 -17 8 *
Ed
 2e-07 1 1 0
1  12 0 6 42
2  23 3 11 6 42
2  24 5 0 6 42
0

0101000
+30 11 -16 11 *
Wi

0101100
+29 0 -15 0 -10 7 +9 10 *
Fa
0  2e-07 3 0

0101000
+8 0 *
Wi

0101100
+28 12 -21 12 +14 12 +10 12 *
Fa
0  2e-07 4 12

0101000
+6 0 *
Wi

0101100
+27 12 -20 12 +13 12 +9 12 *
Fa
0  2e-07 5 12

0101000
+4 0 *
Sh

0101100
+25 0 -18 0 +11 0 +7 0 +5 6 -3 13 *
So

1100000
+2 0 *

+1 0 