DBRep_DrawableShape

CASCADE Topology V1, (c) Matra-Datavision
Locations 5
1
              1               0               0               0 
              0 1.11022302462516e-16              -1               0 
              0               1 1.11022302462516e-16               0 
1
              1               0               0            -359 
              0               1               0             790 
              0               0               1         -1268.1 
2  1 1 2 1 0
1
              1               0               0               0 
              0               1               0               0 
              0               0               1               0 
2  4 -1 0
Curve2ds 24
1 0 0 0 1 
1 -52 21 0 -1 
8 -237 -5
1 -5 6 -1 0 
1 52 -121 0 -1 
1 232 0 0 1 
1 52 20.999999999999545 0 -1 
1 0 0 1 0 
1 -52 -116 0 1 
1 52 21 0 -1 
1 116 -8.5741935483872567 0 1 
8 -83 21
1 31 15 1 0 
1 -31 -116 -1 0 
1 52 21 -1 0 
1 52 -116 -1 0 
1 -52 20.999999999999545 1 0 
1 52 116 -1 0 
8 -21 83
1 -31 14.999999999999545 1 0 
1 -31 116 1 0 
1 -52 20.999999999999545 0 -1 
1 -116 -8.5741935483872567 0 1 
1 52 -116 0 1 
1 116 -8.5741935483872567 -1 0 
1 63 -2.5741935483872567 -1 0 
1 -52 -63 0 1 
Curves 12
1 359 1268.0999999999999 790 -0 1 0 
1 354 1274.0999999999999 790 -1 -0 0 
1 591 1268.0999999999999 790 -0 1 0 
1 359 1268.0999999999999 790 1 0 -0 
1 359 1268.0999999999999 686 -0 1 0 
1 359 1274.0999999999999 707 0 0 -1 
1 359 1268.0999999999999 686 0 0 1 
1 591 1268.0999999999999 686 0 0 1 
1 591 1274.0999999999999 707 0 -0 1 
1 591 1268.0999999999999 686 -0 1 0 
1 359 1268.0999999999999 686 1 0 -0 
1 412 1274.0999999999999 686 1 0 -0 
Polygon3D 0
PolygonOnTriangulations 0
Surfaces 6
1 359 1268.0999999999999 790 0 0 1 1 0 -0 -0 1 0 
1 359 1289.0999999999999 738 -1 -0 -0 0 0 -1 0 -1 0 
1 475 1274.0999999999997 738 0 1 0 0 -0 1 1 0 -0 
1 591 1289.0999999999995 738 1 0 0 -0 0 1 0 -1 0 
1 475 1268.1000000000001 738 -0 -1 -0 0 0 -1 1 -0 0 
1 475 1276.6741935483872 686 -0 -0 -1 -1 0 0 0 1 -0 
Triangulations 0

TShapes 35
Ve
1.5e-07
359 1268.1 790
0 0

0101101
*
Ve
1.5e-07
359 1274.1 790
0 0

0101101
*
Ed
 1e-07 1 1 0
1  1 0 0 6
2  1 1 0 0 6
2  2 2 0 0 6
0

0101000
+35 5 -34 5 *
Ve
1.5e-07
591 1274.1 790
0 0

0101101
*
Ed
 1.5e-07 1 1 0
1  2 0 -237 -5
2  3 1 4 -237 -5
2  4 3 0 -237 -5
0

0101000
+32 0 -34 0 *
Ve
1.5e-07
591 1268.1 790
0 0

0101101
*
Ed
 1e-07 1 1 0
1  3 0 0 6
2  5 1 0 0 6
2  6 4 0 0 6
0

0101000
+30 5 -32 5 *
Ed
 1.5e-07 1 1 0
1  4 0 0 232
2  7 1 0 0 232
2  8 5 0 0 232
0

0101000
+35 5 -30 5 *
Wi

0101100
-33 4 +31 0 +29 4 +28 4 *
Fa
0  1e-07 1 4

0101000
+27 0 *
Ve
1.5e-07
359 1268.1 686
0 0

0101101
*
Ve
1.5e-07
359 1274.1 686
0 0

0101101
*
Ed
 1e-07 1 1 0
1  5 0 0 6
2  9 2 0 0 6
2  10 6 0 0 6
0

0101000
+25 5 -24 5 *
Ed
 1.5e-07 1 1 0
1  6 0 -83 21
2  11 2 4 -83 21
2  12 3 0 -83 21
0

0101000
+34 0 -24 0 *
Ed
 1.5e-07 1 1 0
1  7 0 0 104
2  13 2 0 0 104
2  14 5 0 0 104
0

0101000
+25 5 -35 5 *
Wi

0101100
-23 4 +22 0 +33 4 +21 4 *
Fa
0  1e-07 2 4

0101000
+20 0 *
Ve
1.5e-07
591 1268.1 686
0 0

0101101
*
Ed
 1.5e-07 1 1 0
1  8 0 0 104
2  15 4 0 0 104
2  16 5 0 0 104
0

0101000
+18 5 -30 5 *
Ve
1.5e-07
591 1274.1 686
0 0

0101101
*
Ed
 1.5e-07 1 1 0
1  9 0 -21 83
2  17 4 4 -21 83
2  18 3 0 -21 83
0

0101000
+16 0 -32 0 *
Ed
 1e-07 1 1 0
1  10 0 0 6
2  19 4 0 0 6
2  20 6 0 0 6
0

0101000
+18 5 -16 5 *
Wi

0101100
-17 4 -29 4 +15 0 +14 4 *
Fa
0  1e-07 4 4

0101000
+13 0 *
Ed
 1.5e-07 1 1 0
1  11 0 0 232
2  21 5 0 0 232
2  22 6 0 0 232
0

0101000
+25 5 -18 5 *
Wi

0101100
+11 4 +17 4 -28 4 -21 4 *
Fa
0  1e-07 5 4

0101000
+10 0 *
Ed
 1.5e-07 1 1 0
1  12 0 -53 179
2  23 6 4 -53 179
2  24 3 0 -53 179
0

0101000
+24 0 -16 0 *
Wi

0101000
-11 4 -14 4 +8 0 +23 4 *
Fa
0  1e-07 6 4

0101000
+7 0 *
Wi

0101100
-8 0 -22 0 -31 0 -15 0 *
Fa
0  1.5e-07 3 0

0111000
+5 0 *
Sh

0101000
+26 0 +19 0 +12 0 +9 0 +6 0 +4 0 *
So

0100000
+3 0 *
Co

1100000
+2 0 *

+1 3 