DBRep_DrawableShape

CASCADE Topology V1, (c) Matra-Datavision
Locations 8
1
              1               0               0               0 
              0               1               0               0 
              0               0               1               0 
1
             -1               0 -1.22464679914735e-16               0 
              0               1               0               0 
1.22464679914735e-16               0              -1               0 
1
              1               0               0             210 
              0               1               0           -1252 
              0               0               1           632.9 
1
              1               0               0               0 
              0               1               0               0 
              0               0               1              -0 
1
              1               0               0               0 
              0               1               0               0 
              0               0               1               1 
1
              1               0               0               0 
              0               1               0               0 
              0               0               1              -1 
2  1 1 2 1 3 1 4 1 5 1 6 1 0
2  6 -1 5 -1 4 -1 3 -1 2 -1 1 -1 0
Curve2ds 0
Curves 1
2 185 1268 632.89999999999986 0 -0 1 1 0 0 -0 1 0 6
Polygon3D 0
PolygonOnTriangulations 0
Surfaces 1
1 24.999999999999989 16 0 0 0 1 1 0 -0 -0 1 0 
Triangulations 0

TShapes 5
Ve
1.0000012378923e-07
19 16 5.55892908059122e-14
0 0

0101101
*
Ed
 1.00000121280974e-07 1 1 0
1  1 0 0 6.28318530717959
0

0101000
+5 8 -5 8 *
Wi

0101100
-4 7 *
Fa
0  1e-07 1 0

0101000
+3 0 *
Sh

1101000
+2 0 *

+1 0 