DBRep_DrawableShape

CASCADE Topology V1, (c) Matra-Datavision
Locations 5
1
              1               0               0               0 
              0               1               0               0 
              0               0               1               0 
1
             -1               0 -1.22464679914735e-16               0 
              0               1               0               0 
1.22464679914735e-16               0              -1               0 
1
              1               0               0             210 
              0               1               0           -1252 
              0               0               1           632.9 
2  1 1 2 1 3 1 0
2  1 -1 0
Curve2ds 42
1 0 0 1 0 
1 0 0 1 0 
1 18 0 0 -1 
1 0 0 0 1 
1 0 -32 1 0 
1 0 0 1 0 
1 0 0 0 -1 
1 0 0 0 1 
1 0 0 0 1 
1 0 0 1 0 
1 0 50 1 0 
1 0 0 1 0 
1 18 0 0 1 
1 0 0 1 0 
1 0 32 1 0 
1 18 0 0 1 
1 50 0 0 1 
1 18 0 0 -1 
2 8 16 1 0 -0 1 2.25
1 0 19 1 0 
2 25 16 1 0 -0 1 6
1 0 21 1 0 
2 42 16 1 0 -0 1 2.25
1 0 19 1 0 
1 0 0 0 1 
1 0 32 1 0 
1 0 50 1 0 
1 0 -32 1 0 
1 50 0 0 1 
1 0 0 0 -1 
2 8 16 1 0 -0 1 2.25
1 0 1 1 0 
2 25 16 1 0 -0 1 6
1 0 3 1 0 
2 42 16 1 0 -0 1 2.25
1 0 1 1 0 
1 6.2831853071795862 -0 0 1 
1 0 -0 0 1 
1 6.2831853071795862 -0 0 1 
1 0 -0 0 1 
1 6.2831853071795862 -0 0 1 
1 0 -0 0 1 
Curves 21
1 160 1252 614.89999999999998 0 0 1 
1 160 1252 632.89999999999998 -0 1 0 
1 160 1284 614.89999999999998 0 0 1 
1 160 1252 614.89999999999998 -0 1 0 
1 160 1252 614.89999999999998 1 0 -0 
1 210 1252 614.89999999999998 0 0 1 
1 160 1252 632.89999999999998 1 0 -0 
1 160 1284 632.89999999999998 1 0 -0 
1 210 1252 632.89999999999998 -0 1 0 
2 168 1268 632.89999999999998 0 0 1 1 0 -0 -0 1 0 2.25
2 185 1268 632.89999999999998 0 0 1 1 0 -0 -0 1 0 6
2 202 1268 632.89999999999998 0 0 1 1 0 -0 -0 1 0 2.25
1 160 1284 614.89999999999998 1 0 -0 
1 210 1284 614.89999999999998 0 0 1 
1 210 1252 614.89999999999998 -0 1 0 
2 168 1268 614.89999999999998 0 0 1 1 0 -0 -0 1 0 2.25
2 185 1268 614.89999999999998 0 0 1 1 0 -0 -0 1 0 6
2 202 1268 614.89999999999998 0 0 1 1 0 -0 -0 1 0 2.25
1 170.25 1268 613.89999999999998 0 0 1 
1 191 1268 611.89999999999998 0 0 1 
1 204.25 1268 613.89999999999998 0 0 1 
Polygon3D 0
PolygonOnTriangulations 0
Surfaces 9
1 160 1252 614.89999999999998 1 0 -0 0 0 1 0 -1 0 
1 160 1252 614.89999999999998 -0 1 0 0 0 1 1 0 -0 
1 160 1252 632.89999999999998 0 0 1 1 0 -0 -0 1 0 
1 160 1284 614.89999999999998 -0 1 0 0 0 1 1 0 -0 
1 160 1252 614.89999999999998 0 0 1 1 0 -0 -0 1 0 
1 210 1252 614.89999999999998 1 0 -0 0 0 1 0 -1 0 
2 168 1268 613.89999999999998 0 0 1 1 0 -0 -0 1 0 2.25
2 185 1268 611.89999999999998 0 0 1 1 0 -0 -0 1 0 6
2 202 1268 613.89999999999998 0 0 1 1 0 -0 -0 1 0 2.25
Triangulations 0

TShapes 62
Ve
1e-07
160 1252 632.9
0 0

0101101
*
Ve
1e-07
160 1252 614.9
0 0

0101101
*
Ed
 1e-07 1 1 0
1  1 0 0 18
2  1 1 0 0 18
2  2 2 0 0 18
0

0101000
-62 5 +61 5 *
Ve
1e-07
160 1284 632.9
0 0

0101101
*
Ed
 1e-07 1 1 0
1  2 0 0 32
2  3 1 0 0 32
2  4 3 0 0 32
0

0101000
-59 5 +62 5 *
Ve
1e-07
160 1284 614.9
0 0

0101101
*
Ed
 1e-07 1 1 0
1  3 0 0 18
2  5 1 0 0 18
2  6 4 0 0 18
0

0101000
-59 5 +57 5 *
Ed
 1e-07 1 1 0
1  4 0 0 32
2  7 1 0 0 32
2  8 5 0 0 32
0

0101000
-57 5 +61 5 *
Wi

0101100
-60 0 -58 0 +56 0 +55 0 *
Fa
0  1e-07 1 0

0111000
+54 0 *
Ve
1e-07
210 1252 614.9
0 0

0101101
*
Ed
 1e-07 1 1 0
1  5 0 0 50
2  9 2 0 0 50
2  10 5 0 0 50
0

0101000
-52 5 +61 5 *
Ve
1e-07
210 1252 632.9
0 0

0101101
*
Ed
 1e-07 1 1 0
1  6 0 0 18
2  11 2 0 0 18
2  12 6 0 0 18
0

0101000
-50 5 +52 5 *
Ed
 1e-07 1 1 0
1  7 0 0 50
2  13 2 0 0 50
2  14 3 0 0 50
0

0101000
-50 5 +62 5 *
Wi

0101100
-51 0 -49 0 +48 0 +60 0 *
Fa
0  1e-07 2 0

0111000
+47 0 *
Ve
1e-07
210 1284 632.9
0 0

0101101
*
Ed
 1e-07 1 1 0
1  8 0 0 50
2  15 3 0 0 50
2  16 4 0 0 50
0

0101000
-45 5 +59 5 *
Ed
 1e-07 1 1 0
1  9 0 0 32
2  17 3 0 0 32
2  18 6 0 0 32
0

0101000
-45 5 +50 5 *
Wi

0101100
-58 0 -44 0 +48 0 +43 0 *
Ve
1e-07
170.25 1268 632.9
0 0

0101101
*
Ed
 1e-07 1 1 0
1  10 0 0 6.28318530717959
2  19 3 0 0 6.28318530717959
2  20 7 0 0 6.28318530717959
0

0101100
+41 5 -41 5 *
Wi

0101100
-40 0 *
Ve
1e-07
191 1268 632.9
0 0

0101101
*
Ed
 1e-07 1 1 0
1  11 0 0 6.28318530717959
2  21 3 0 0 6.28318530717959
2  22 8 0 0 6.28318530717959
0

0101100
+38 5 -38 5 *
Wi

0101100
-37 0 *
Ve
1e-07
204.25 1268 632.9
0 0

0101101
*
Ed
 1e-07 1 1 0
1  12 0 0 6.28318530717959
2  23 3 0 0 6.28318530717959
2  24 9 0 0 6.28318530717959
0

0101100
+35 5 -35 5 *
Wi

0101100
-34 0 *
Fa
0  1e-07 3 0

0111000
+42 0 +39 0 +36 0 +33 0 *
Ve
1e-07
210 1284 614.9
0 0

0101101
*
Ed
 1e-07 1 1 0
1  13 0 0 50
2  25 4 0 0 50
2  26 5 0 0 50
0

0101000
-31 5 +57 5 *
Ed
 1e-07 1 1 0
1  14 0 0 18
2  27 4 0 0 18
2  28 6 0 0 18
0

0101000
-45 5 +31 5 *
Wi

0101100
-30 0 -29 0 +44 0 +56 0 *
Fa
0  1e-07 4 0

0111000
+28 0 *
Ed
 1e-07 1 1 0
1  15 0 0 32
2  29 5 0 0 32
2  30 6 0 0 32
0

0101000
-31 5 +52 5 *
Wi

0101100
-55 0 -30 0 +51 0 +26 0 *
Ve
1e-07
170.25 1268 614.9
0 0

0101101
*
Ed
 1e-07 1 1 0
1  16 0 0 6.28318530717959
2  31 5 0 0 6.28318530717959
2  32 7 0 0 6.28318530717959
0

0101100
+24 5 -24 5 *
Wi

0101100
-23 0 *
Ve
1e-07
191 1268 614.9
0 0

0101101
*
Ed
 1e-07 1 1 0
1  17 0 0 6.28318530717959
2  33 5 0 0 6.28318530717959
2  34 8 0 0 6.28318530717959
0

0101100
+21 5 -21 5 *
Wi

0101100
-20 0 *
Ve
1e-07
204.25 1268 614.9
0 0

0101101
*
Ed
 1e-07 1 1 0
1  18 0 0 6.28318530717959
2  35 5 0 0 6.28318530717959
2  36 9 0 0 6.28318530717959
0

0101100
+18 5 -18 5 *
Wi

0101100
-17 0 *
Fa
0  1e-07 5 0

0111000
+25 0 +22 0 +19 0 +16 0 *
Wi

0101100
-49 0 -43 0 +29 0 +26 0 *
Fa
0  1e-07 6 0

0111000
+14 0 *
Ed
 1e-07 1 1 0
1  19 0 1 19
3  37 38CN 7 0 1 19
0

0101000
+24 5 -41 5 *
Wi

0101100
-40 0 +12 0 +23 0 -12 0 *
Fa
0  1e-07 7 0

0111000
+11 0 *
Ed
 1e-07 1 1 0
1  20 0 3 21
3  39 40CN 8 0 3 21
0

0101000
+21 5 -38 5 *
Wi

0101100
-37 0 +9 0 +20 0 -9 0 *
Fa
0  1e-07 8 0

0111000
+8 0 *
Ed
 1e-07 1 1 0
1  21 0 1 19
3  41 42CN 9 0 1 19
0

0101000
+18 5 -35 5 *
Wi

0101100
-34 0 +6 0 +17 0 -6 0 *
Fa
0  1e-07 9 0

0111000
+5 0 *
Sh

0101100
-53 0 -46 0 +32 0 +27 0 -15 0 +13 0 -10 0 -7 0 -4 0 *
So

0100000
+3 0 *
Co

1100000
+2 0 *

+1 4 