DBRep_DrawableShape

CASCADE Topology V1, (c) Matra-Datavision
Locations 35
1
              1               0               0               0 
              0               1               0               0 
              0               0               1               0 
1
             -1               0 -1.22464679914735e-16               0 
              0               1               0               0 
1.22464679914735e-16               0              -1               0 
1
              1               0               0             210 
              0               1               0           -1252 
              0               0               1           632.9 
1
              1               0               0               0 
              0               1               0               0 
              0               0               1              -0 
1
              1               0               0               0 
              0               1               0               0 
              0               0               1               1 
1
              1               0               0               0 
              0               1               0               0 
              0               0               1              -1 
2  1 1 2 1 3 1 4 1 5 1 6 1 0
2  6 -1 5 -1 4 -1 3 -1 2 -1 1 -1 0
1
              1               0               0               0 
              0               1               0               0 
              0               0               1              18 
2  1 1 2 1 3 1 4 1 5 1 6 1 9 1 0
2  9 -1 6 -1 5 -1 4 -1 3 -1 2 -1 1 -1 0
1
              1               0               0               0 
              0               1               0               0 
              0               0               1              -0 
1
              1               0               0               0 
              0               1               0               0 
              0               0               1               1 
1
              1               0               0               0 
              0               1               0               0 
              0               0               1              -1 
2  1 1 2 1 3 1 12 1 13 1 14 1 0
2  14 -1 13 -1 12 -1 3 -1 2 -1 1 -1 0
1
              1               0               0               0 
              0               1               0               0 
              0               0               1              18 
2  17 -1 14 -1 13 -1 12 -1 3 -1 2 -1 1 -1 0
1
              1               0               0               0 
              0               1               0               0 
              0               0               1              -0 
1
              1               0               0               0 
              0               1               0               0 
              0               0               1               1 
1
              1               0               0               0 
              0               1               0               0 
              0               0               1              -1 
2  1 1 2 1 3 1 19 1 20 1 21 1 0
2  21 -1 20 -1 19 -1 3 -1 2 -1 1 -1 0
1
              1               0               0               0 
              0               1               0               0 
              0               0               1              18 
2  24 -1 21 -1 20 -1 19 -1 3 -1 2 -1 1 -1 0
1
              1               0               0               0 
              0               1               0               0 
              0               0               1              -0 
1
              1               0               0               0 
              0               1               0               0 
              0               0               1               1 
1
              1               0               0               0 
              0               1               0               0 
              0               0               1              -1 
2  1 1 2 1 3 1 26 1 27 1 28 1 0
2  28 -1 27 -1 26 -1 3 -1 2 -1 1 -1 0
1
              1               0               0               0 
              0               1               0               0 
              0               0               1              18 
2  31 -1 28 -1 27 -1 26 -1 3 -1 2 -1 1 -1 0
2  1 1 2 1 3 1 12 1 13 1 14 1 17 1 0
2  1 1 2 1 3 1 19 1 20 1 21 1 24 1 0
2  1 1 2 1 3 1 26 1 27 1 28 1 31 1 0
Curve2ds 36
1 0 0 0 -1 
1 0 -0 1.2246467991473532e-16 -1 
1 32 0 0 -1 
1 0 -0 1.2246467991473532e-16 -1 
1 0 0 1 0 
1 0 0 0 1 
1 0 -18 1 0 
1 0 0 0 1 
1 50 6.1232339957367661e-15 1.2246467991473532e-16 -1 
1 0 0 0 -1 
1 0 -0 1 0 
1 0 0 1 0 
1 2.2043642384652358e-15 -18 1 0 
1 0 0 1 0 
1 50 6.1232339957367661e-15 1.2246467991473532e-16 -1 
1 32 0 0 -1 
1 0 -0 1 0 
1 0 32 1 0 
1 2.2043642384652358e-15 -18 1 0 
1 0 32 1 0 
1 0 0 1 0 
1 50 0 0 1 
1 0 0 1 0 
1 0 -18 1 0 
1 0 0 1 0 
1 0 -18 1 0 
1 0 0 1 0 
1 0 -18 1 0 
1 0 -18 1 0 
1 50 0 0 1 
1 0 0 0 -1 
1 6.2831853071795862 0 0 -1 
1 0 0 0 -1 
1 6.2831853071795862 0 0 -1 
1 0 0 0 -1 
1 6.2831853071795862 0 0 -1 
Curves 18
1 50 0 0 0 0 1 
1 50 32 0 0 0 1 
1 160 1252 632.89999999999998 -0 1 0 
1 160 1252 632.89999999999998 -0 1 0 
1 0 0 0 0 0 1 
1 160 1252 632.89999999999998 1 0 -0 
1 160 1252 632.89999999999998 1 0 -0 
1 0 32 0 0 0 1 
1 160 1284 632.89999999999998 1 0 -0 
1 160 1284 632.89999999999998 1 0 -0 
1 210 1252 632.89999999999998 -0 1 0 
2 168 1268 632.89999999999986 0 -0 1 1 0 0 -0 1 0 2.25
2 185 1268 632.89999999999986 0 -0 1 1 0 0 -0 1 0 6
2 202 1268 632.89999999999986 0 -0 1 1 0 0 -0 1 0 2.25
1 210 1252 632.89999999999998 -0 1 0 
1 39.75 16 5.6634208371162515e-14 0 0 1 
1 19 16 5.5589290805912167e-14 0 0 1 
1 5.75 16 5.5363121494641142e-14 0 0 1 
Polygon3D 0
PolygonOnTriangulations 0
Surfaces 9
1 50 0 0 -1 0 0 0 1 0 0 0 -1 
1 50 0 0 0 -1 0 -1 0 1.2246467991473532e-16 -1.2246467991473532e-16 -0 -1 
1 50 32 0 0 -1 0 -1 0 1.2246467991473532e-16 -1.2246467991473532e-16 -0 -1 
1 160 1252 632.89999999999998 0 0 1 1 0 -0 -0 1 0 
1 160 1252 632.89999999999998 0 0 1 1 0 -0 -0 1 0 
1 0 0 0 -1 0 0 0 1 0 0 0 -1 
2 42 16 1.1368683772161603e-13 -1.2246467991473532e-16 0 -1 -1 0 1.2246467991473532e-16 0 1 0 2.25
2 25 16 1.1368683772161603e-13 -1.2246467991473532e-16 0 -1 -1 0 1.2246467991473532e-16 0 1 0 6
2 8 16 1.1368683772161603e-13 -1.2246467991473532e-16 0 -1 -1 0 1.2246467991473532e-16 0 1 0 2.25
Triangulations 0

TShapes 64
Ve
1e-07
50 0 0
0 0

0101101
*
Ve
1e-07
50 0 18
0 0

0101101
*
Ed
 1e-07 1 1 0
1  1 0 0 18
2  1 1 0 0 18
2  2 2 0 0 18
0

0101000
+64 0 -63 0 *
Ve
1e-07
50 32 0
0 0

0101101
*
Ve
1e-07
50 32 18
0 0

0101101
*
Ed
 1e-07 1 1 0
1  2 0 0 18
2  3 1 0 0 18
2  4 3 0 0 18
0

0101000
+61 0 -60 0 *
Ed
 1e-07 1 1 0
1  3 0 0 32
2  5 1 8 0 32
2  6 4 0 0 32
0

0101000
+64 8 -61 8 *
Ed
 1e-07 1 1 0
1  4 0 0 32
2  7 1 11 0 32
2  8 5 0 0 32
0

0101000
+63 11 -60 11 *
Wi

0101100
+62 0 -59 0 -58 7 +57 10 *
Fa
0  1e-07 1 0

0101000
+56 0 *
Ve
1e-07
0 0 0
0 0

0101101
*
Ve
1e-07
0 0 18
0 0

0101101
*
Ed
 1e-07 1 1 0
1  5 0 0 18
2  9 2 0 0 18
2  10 6 0 0 18
0

0101000
+54 0 -53 0 *
Ed
 1e-07 1 1 0
1  6 0 0 50
2  11 2 8 0 50
2  12 4 0 0 50
0

0101000
+64 8 -54 8 *
Ed
 1e-07 1 1 0
1  7 0 0 50
2  13 2 11 0 50
2  14 5 0 0 50
0

0101000
+63 11 -53 11 *
Wi

0101100
+62 0 -52 0 -51 7 +50 10 *
Fa
0  1e-07 2 0

0101000
+49 0 *
Ve
1e-07
0 32 0
0 0

0101101
*
Ve
1e-07
0 32 18
0 0

0101101
*
Ed
 1e-07 1 1 0
1  8 0 0 18
2  15 3 0 0 18
2  16 6 0 0 18
0

0101000
+47 0 -46 0 *
Ed
 1e-07 1 1 0
1  9 0 0 50
2  17 3 8 0 50
2  18 4 0 0 50
0

0101000
+61 8 -47 8 *
Ed
 1e-07 1 1 0
1  10 0 0 50
2  19 3 11 0 50
2  20 5 0 0 50
0

0101000
+60 11 -46 11 *
Wi

0101100
+59 0 -45 0 -44 7 +43 10 *
Fa
0  1e-07 3 0

0101000
+42 0 *
Ed
 1e-07 1 1 0
1  11 0 0 32
2  21 6 8 0 32
2  22 4 0 0 32
0

0101000
+54 8 -47 8 *
Wi

0101100
-58 7 +51 7 -44 7 +40 7 *
Ve
1.00000115084976e-07
39.75 16 5.66342083711625e-14
0 0

0101101
*
Ed
 1.00000114666555e-07 1 1 0
1  12 0 0 6.28318530717959
2  23 7 16 0 6.28318530717959
2  24 7 18 0 6.28318530717959
0

0101000
+38 16 -38 16 *
Wi

0101100
-37 15 *
Ve
1.0000012378923e-07
19 16 5.55892908059122e-14
0 0

0101101
*
Ed
 1.00000121280974e-07 1 1 0
1  13 0 0 6.28318530717959
2  25 8 23 0 6.28318530717959
2  26 8 25 0 6.28318530717959
0

0101000
+35 23 -35 23 *
Wi

0101100
-34 22 *
Ve
1.00000125543094e-07
5.75 16 5.53631214946411e-14
0 0

0101101
*
Ed
 1.00000122582499e-07 1 1 0
1  14 0 0 6.28318530717959
2  27 9 30 0 6.28318530717959
2  28 9 32 0 6.28318530717959
0

0101000
+32 30 -32 30 *
Wi

0101100
-31 29 *
Fa
0  1e-07 4 7

0101000
+39 0 +36 0 +33 0 +30 0 *
Ed
 1e-07 1 1 0
1  15 0 0 32
2  29 6 11 0 32
2  30 5 0 0 32
0

0101000
+53 11 -46 11 *
Wi

0101100
-57 10 +50 10 -43 10 +28 10 *
Ve
1.00000115084976e-07
39.75 16 18.0000000000001
0 0

0101101
*
Ed
 1.00000114666555e-07 1 1 0
1  12 0 0 6.28318530717959
2  23 7 16 0 6.28318530717959
2  24 7 18 0 6.28318530717959
0

0101000
+26 18 -26 18 *
Wi

0101100
-25 33 *
Ve
1.0000012378923e-07
19 16 18.0000000000001
0 0

0101101
*
Ed
 1.00000121280974e-07 1 1 0
1  13 0 0 6.28318530717959
2  25 8 23 0 6.28318530717959
2  26 8 25 0 6.28318530717959
0

0101000
+23 25 -23 25 *
Wi

0101100
-22 34 *
Ve
1.00000125543094e-07
5.75 16 18.0000000000001
0 0

0101101
*
Ed
 1.00000122582499e-07 1 1 0
1  14 0 0 6.28318530717959
2  27 9 30 0 6.28318530717959
2  28 9 32 0 6.28318530717959
0

0101000
+20 32 -20 32 *
Wi

0101100
-19 35 *
Fa
0  1e-07 5 10

0101000
+27 0 +24 0 +21 0 +18 0 *
Wi

0101100
+52 0 -45 0 -40 7 +28 10 *
Fa
0  1e-07 6 0

0101000
+16 0 *
Ed
 1.00000115084976e-07 1 1 0
1  16 0 0 18
3  31 32CN 7 0 0 18
0

0101000
+38 0 -26 0 *
Wi

0101100
+14 0 -14 0 -37 15 +25 33 *
Fa
0  1.00000114666555e-07 7 0

0101000
+13 0 *
Ed
 1.0000012378923e-07 1 1 0
1  17 0 0 18
3  33 34CN 8 0 0 18
0

0101000
+35 0 -23 0 *
Wi

0101100
+11 0 -11 0 -34 22 +22 34 *
Fa
0  1.00000121280974e-07 8 0

0101000
+10 0 *
Ed
 1.00000125543094e-07 1 1 0
1  18 0 0 18
3  35 36CN 9 0 0 18
0

0101000
+32 0 -20 0 *
Wi

0101100
+8 0 -8 0 -31 29 +19 35 *
Fa
0  1.00000122582499e-07 9 0

0101000
+7 0 *
Sh

0101100
-55 0 +48 0 -41 0 +29 0 -17 0 +15 0 -12 0 -9 0 -6 0 *
So

0100000
+5 0 *
Co

0100000
+4 0 *
Co

0100000
+3 0 *
Co

1100000
+2 0 *

+1 0 