DBRep_DrawableShape

CASCADE Topology V1, (c) Matra-Datavision
Locations 5
1
              1               0               0               0 
              0               1               0               0 
              0               0               1               0 
1
             -1               0 -1.22464679914735e-16               0 
              0               1               0               0 
1.22464679914735e-16               0              -1               0 
1
              1               0               0             210 
              0               1               0           -1252 
              0               0               1           650.9 
2  1 1 2 1 3 1 0
2  1 -1 0
Curve2ds 50
1 0 0 1 0 
1 0 0 1 0 
1 18 0 0 -1 
1 0 0 0 1 
1 0 -32 1 0 
1 0 0 1 0 
1 0 0 0 -1 
1 0 0 0 1 
1 0 0 0 1 
1 0 0 1 0 
1 0 50 1 0 
1 0 0 1 0 
1 18 0 0 1 
1 0 0 1 0 
1 0 32 1 0 
1 18 0 0 1 
1 50 0 0 1 
1 18 0 0 -1 
2 8 16 1 0 -0 1 4.75
1 0 3.5355339059327378 1 0 
2 25 16 1 0 -0 1 6
1 0 39 1 0 
2 42 16 1 0 -0 1 4.75
1 0 3.5355339059327378 1 0 
1 0 0 0 1 
1 0 32 1 0 
1 0 50 1 0 
1 0 -32 1 0 
1 50 0 0 1 
1 0 0 0 -1 
2 8 16 1 0 -0 1 2.25
1 0 19 1 0 
2 25 16 1 0 -0 1 6
1 0 21 1 0 
2 42 16 1 0 -0 1 2.25
1 0 19 1 0 
1 6.2831853071795862 -0 0 1 
1 0 -0 0 1 
1 0 0 1 0 
1 0 34.5 1 0 
1 6.2831853071795862 -0 0 1 
1 0 -0 0 1 
1 6.2831853071795862 -0 0 1 
1 0 -0 0 1 
1 0 0 1 0 
1 0 34.5 1 0 
1 6.2831853071795862 -0 0 1 
1 0 -0 0 1 
1 6.2831853071795862 -0 0 1 
1 0 -0 0 1 
Curves 25
1 160 1252 632.89999999999998 0 0 1 
1 160 1252 650.89999999999998 -0 1 0 
1 160 1284 632.89999999999998 0 0 1 
1 160 1252 632.89999999999998 -0 1 0 
1 160 1252 632.89999999999998 1 0 -0 
1 210 1252 632.89999999999998 0 0 1 
1 160 1252 650.89999999999998 1 0 -0 
1 160 1284 650.89999999999998 1 0 -0 
1 210 1252 650.89999999999998 -0 1 0 
2 168 1268 650.89999999999998 0 0 1 1 0 -0 -0 1 0 4.75
2 185 1268 650.89999999999998 0 0 1 1 0 -0 -0 1 0 6
2 202 1268 650.89999999999998 0 0 1 1 0 -0 -0 1 0 4.75
1 160 1284 632.89999999999998 1 0 -0 
1 210 1284 632.89999999999998 0 0 1 
1 210 1252 632.89999999999998 -0 1 0 
2 168 1268 632.89999999999998 0 0 1 1 0 -0 -0 1 0 2.25
2 185 1268 632.89999999999998 0 0 1 1 0 -0 -0 1 0 6
2 202 1268 632.89999999999998 0 0 1 1 0 -0 -0 1 0 2.25
1 170.25 1268 648.39999999999998 0.70710678118654746 -1.7e-16 0.70710678118654757 
2 168 1268 648.39999999999998 0 0 1 1 0 -0 -0 1 0 2.25
1 191 1268 611.89999999999998 0 0 1 
1 204.25 1268 648.39999999999998 0.70710678118654746 -1.7e-16 0.70710678118654757 
2 202 1268 648.39999999999998 0 0 1 1 0 -0 -0 1 0 2.25
1 170.25 1268 613.89999999999998 0 0 1 
1 204.25 1268 613.89999999999998 0 0 1 
Polygon3D 0
PolygonOnTriangulations 0
Surfaces 11
1 160 1252 632.89999999999998 1 0 -0 0 0 1 0 -1 0 
1 160 1252 632.89999999999998 -0 1 0 0 0 1 1 0 -0 
1 160 1252 650.89999999999998 0 0 1 1 0 -0 -0 1 0 
1 160 1284 632.89999999999998 -0 1 0 0 0 1 1 0 -0 
1 160 1252 632.89999999999998 0 0 1 1 0 -0 -0 1 0 
1 210 1252 632.89999999999998 1 0 -0 0 0 1 0 -1 0 
3 168 1268 648.39999999999998 0 0 1 1 0 -0 -0 1 0 2.25
0.78539816339744828
2 185 1268 611.89999999999998 0 0 1 1 0 -0 -0 1 0 6
3 202 1268 648.39999999999998 0 0 1 1 0 -0 -0 1 0 2.25
0.78539816339744828
2 168 1268 613.89999999999998 0 0 1 1 0 -0 -0 1 0 2.25
2 202 1268 613.89999999999998 0 0 1 1 0 -0 -0 1 0 2.25
Triangulations 0

TShapes 72
Ve
1e-07
160 1252 650.9
0 0

0101101
*
Ve
1e-07
160 1252 632.9
0 0

0101101
*
Ed
 1e-07 1 1 0
1  1 0 0 18
2  1 1 0 0 18
2  2 2 0 0 18
0

0101000
-72 5 +71 5 *
Ve
1e-07
160 1284 650.9
0 0

0101101
*
Ed
 1e-07 1 1 0
1  2 0 0 32
2  3 1 0 0 32
2  4 3 0 0 32
0

0101000
-69 5 +72 5 *
Ve
1e-07
160 1284 632.9
0 0

0101101
*
Ed
 1e-07 1 1 0
1  3 0 0 18
2  5 1 0 0 18
2  6 4 0 0 18
0

0101000
-69 5 +67 5 *
Ed
 1e-07 1 1 0
1  4 0 0 32
2  7 1 0 0 32
2  8 5 0 0 32
0

0101000
-67 5 +71 5 *
Wi

0101100
-70 0 -68 0 +66 0 +65 0 *
Fa
0  1e-07 1 0

0111000
+64 0 *
Ve
1e-07
210 1252 632.9
0 0

0101101
*
Ed
 1e-07 1 1 0
1  5 0 0 50
2  9 2 0 0 50
2  10 5 0 0 50
0

0101000
-62 5 +71 5 *
Ve
1e-07
210 1252 650.9
0 0

0101101
*
Ed
 1e-07 1 1 0
1  6 0 0 18
2  11 2 0 0 18
2  12 6 0 0 18
0

0101000
-60 5 +62 5 *
Ed
 1e-07 1 1 0
1  7 0 0 50
2  13 2 0 0 50
2  14 3 0 0 50
0

0101000
-60 5 +72 5 *
Wi

0101100
-61 0 -59 0 +58 0 +70 0 *
Fa
0  1e-07 2 0

0111000
+57 0 *
Ve
1e-07
210 1284 650.9
0 0

0101101
*
Ed
 1e-07 1 1 0
1  8 0 0 50
2  15 3 0 0 50
2  16 4 0 0 50
0

0101000
-55 5 +69 5 *
Ed
 1e-07 1 1 0
1  9 0 0 32
2  17 3 0 0 32
2  18 6 0 0 32
0

0101000
-55 5 +60 5 *
Wi

0101100
-68 0 -54 0 +58 0 +53 0 *
Ve
1e-07
172.75 1268 650.9
0 0

0101101
*
Ed
 1e-07 1 1 0
1  10 0 0 6.28318530717959
2  19 3 0 0 6.28318530717959
2  20 7 0 0 6.28318530717959
0

0101000
+51 5 -51 5 *
Wi

0101100
-50 0 *
Ve
1e-07
191 1268 650.9
0 0

0101101
*
Ed
 1e-07 1 1 0
1  11 0 0 6.28318530717959
2  21 3 0 0 6.28318530717959
2  22 8 0 0 6.28318530717959
0

0101100
+48 5 -48 5 *
Wi

0101100
-47 0 *
Ve
1e-07
206.75 1268 650.9
0 0

0101101
*
Ed
 1e-07 1 1 0
1  12 0 0 6.28318530717959
2  23 3 0 0 6.28318530717959
2  24 9 0 0 6.28318530717959
0

0101000
+45 5 -45 5 *
Wi

0101100
-44 0 *
Fa
0  1e-07 3 0

0111000
+52 0 +49 0 +46 0 +43 0 *
Ve
1e-07
210 1284 632.9
0 0

0101101
*
Ed
 1e-07 1 1 0
1  13 0 0 50
2  25 4 0 0 50
2  26 5 0 0 50
0

0101000
-41 5 +67 5 *
Ed
 1e-07 1 1 0
1  14 0 0 18
2  27 4 0 0 18
2  28 6 0 0 18
0

0101000
-55 5 +41 5 *
Wi

0101100
-40 0 -39 0 +54 0 +66 0 *
Fa
0  1e-07 4 0

0111000
+38 0 *
Ed
 1e-07 1 1 0
1  15 0 0 32
2  29 5 0 0 32
2  30 6 0 0 32
0

0101000
-41 5 +62 5 *
Wi

0101100
-65 0 -40 0 +61 0 +36 0 *
Ve
1e-07
170.25 1268 632.9
0 0

0101101
*
Ed
 1e-07 1 1 0
1  16 0 0 6.28318530717959
2  31 5 0 0 6.28318530717959
2  32 10 0 0 6.28318530717959
0

0101100
+34 5 -34 5 *
Wi

0101100
-33 0 *
Ve
1e-07
191 1268 632.9
0 0

0101101
*
Ed
 1e-07 1 1 0
1  17 0 0 6.28318530717959
2  33 5 0 0 6.28318530717959
2  34 8 0 0 6.28318530717959
0

0101100
+31 5 -31 5 *
Wi

0101100
-30 0 *
Ve
1e-07
204.25 1268 632.9
0 0

0101101
*
Ed
 1e-07 1 1 0
1  18 0 0 6.28318530717959
2  35 5 0 0 6.28318530717959
2  36 11 0 0 6.28318530717959
0

0101100
+28 5 -28 5 *
Wi

0101100
-27 0 *
Fa
0  1e-07 5 0

0111000
+35 0 +32 0 +29 0 +26 0 *
Wi

0101100
-59 0 -53 0 +39 0 +36 0 *
Fa
0  1e-07 6 0

0111000
+24 0 *
Ve
1.00000057e-07
170.25 1268 648.4
0 0

0101101
*
Ed
 1e-07 1 1 0
1  19 0 0 3.53553390593274
3  37 38CN 7 0 0 3.53553390593274
0

0101000
+22 5 -51 5 *
Ed
 1.00000057e-07 1 1 0
1  20 0 0 6.28318530717959
2  39 7 0 0 6.28318530717959
2  40 10 0 0 6.28318530717959
0

0101000
+22 5 -22 5 *
Wi

0101100
-50 0 +21 0 +20 0 -21 0 *
Fa
0  1e-07 7 0

0111000
+19 0 *
Ed
 1e-07 1 1 0
1  21 0 21 39
3  41 42CN 8 0 21 39
0

0101000
+31 5 -48 5 *
Wi

0101100
-47 0 +17 0 +30 0 -17 0 *
Fa
0  1e-07 8 0

0111000
+16 0 *
Ve
1.00000057e-07
204.25 1268 648.4
0 0

0101101
*
Ed
 1e-07 1 1 0
1  22 0 0 3.53553390593274
3  43 44CN 9 0 0 3.53553390593274
0

0101000
+14 5 -45 5 *
Ed
 1.00000057e-07 1 1 0
1  23 0 0 6.28318530717959
2  45 9 0 0 6.28318530717959
2  46 11 0 0 6.28318530717959
0

0101000
+14 5 -14 5 *
Wi

0101100
-44 0 +13 0 +12 0 -13 0 *
Fa
0  1e-07 9 0

0111000
+11 0 *
Ed
 1e-07 1 1 0
1  24 0 19 34.5
3  47 48CN 10 0 19 34.5
0

0101000
+34 5 -22 5 *
Wi

0101100
-20 0 +9 0 +33 0 -9 0 *
Fa
0  1e-07 10 0

0111000
+8 0 *
Ed
 1e-07 1 1 0
1  25 0 19 34.5
3  49 50CN 11 0 19 34.5
0

0101000
+28 5 -14 5 *
Wi

0101100
-12 0 +6 0 +27 0 -6 0 *
Fa
0  1e-07 11 0

0111000
+5 0 *
Sh

0101100
-63 0 -56 0 +42 0 +37 0 -25 0 +23 0 -18 0 -15 0 -10 0 -7 0 
-4 0 *
So

0100000
+3 0 *
Co

1100000
+2 0 *

+1 4 