DBRep_DrawableShape

CASCADE Topology V1, (c) Matra-Datavision
Locations 43
1
              1               0               0               0 
              0               1               0               0 
              0               0               1               0 
1
              1               0               0               0 
              0 1.11022302462516e-16              -1               0 
              0               1 1.11022302462516e-16               0 
1
              1               0               0             -91 
              0               1               0            1224 
              0               0               1         -1322.1 
1
              1               0               0               0 
              0               1               0               0 
              0               0               1              -0 
1
              1               0               0               0 
              0               1               0               0 
              0               0               1               1 
1
              1               0               0               0 
              0               1               0               0 
              0               0               1              -1 
2  1 1 2 1 3 1 4 1 5 1 6 1 0
2  6 -1 5 -1 4 -1 3 -1 2 -1 1 -1 0
1
              1               0               0               0 
              0               1               0               0 
              0               0               1               6 
2  1 1 2 1 3 1 4 1 5 1 6 1 9 1 0
2  9 -1 6 -1 5 -1 4 -1 3 -1 2 -1 1 -1 0
1
              1               0               0               0 
              0               1               0               0 
              0               0               1              -0 
1
              1               0               0               0 
              0               1               0               0 
              0               0               1               1 
1
              1               0               0               0 
              0               1               0               0 
              0               0               1              -1 
2  1 1 2 1 3 1 12 1 13 1 14 1 0
2  14 -1 13 -1 12 -1 3 -1 2 -1 1 -1 0
1
              1               0               0               0 
              0               1               0               0 
              0               0               1               6 
2  17 -1 14 -1 13 -1 12 -1 3 -1 2 -1 1 -1 0
1
              1               0               0               0 
              0               1               0               0 
              0               0               1              -0 
1
              1               0               0               0 
              0               1               0               0 
              0               0               1               1 
1
              1               0               0               0 
              0               1               0               0 
              0               0               1              -1 
2  1 1 2 1 3 1 19 1 20 1 21 1 0
2  21 -1 20 -1 19 -1 3 -1 2 -1 1 -1 0
1
              1               0               0               0 
              0               1               0               0 
              0               0               1               6 
2  24 -1 21 -1 20 -1 19 -1 3 -1 2 -1 1 -1 0
1
              1               0               0               0 
              0               1               0               0 
              0               0               1              -0 
1
              1               0               0               0 
              0               1               0               0 
              0               0               1               1 
1
              1               0               0               0 
              0               1               0               0 
              0               0               1              -1 
2  1 1 2 1 3 1 26 1 27 1 28 1 0
2  28 -1 27 -1 26 -1 3 -1 2 -1 1 -1 0
1
              1               0               0               0 
              0               1               0               0 
              0               0               1               6 
2  31 -1 28 -1 27 -1 26 -1 3 -1 2 -1 1 -1 0
1
              1               0               0               0 
              0               1               0               0 
              0               0               1              -0 
1
              1               0               0               0 
              0               1               0               0 
              0               0               1               1 
1
              1               0               0               0 
              0               1               0               0 
              0               0               1              -1 
2  1 1 2 1 3 1 33 1 34 1 35 1 0
2  35 -1 34 -1 33 -1 3 -1 2 -1 1 -1 0
1
              1               0               0               0 
              0               1               0               0 
              0               0               1               6 
2  38 -1 35 -1 34 -1 33 -1 3 -1 2 -1 1 -1 0
2  1 1 2 1 3 1 12 1 13 1 14 1 17 1 0
2  1 1 2 1 3 1 19 1 20 1 21 1 24 1 0
2  1 1 2 1 3 1 26 1 27 1 28 1 31 1 0
2  1 1 2 1 3 1 33 1 34 1 35 1 38 1 0
Curve2ds 40
1 0 0 0 -1 
1 0 0 1.1102230246251565e-16 -1 
1 128 0 0 -1 
1 0 0 1.1102230246251565e-16 -1 
1 0 0 1 0 
1 0 0 0 1 
1 0 -6 1 0 
1 0 0 0 1 
1 128 1.4210854715202004e-14 1.1102230246251565e-16 -1 
1 0 0 0 -1 
1 0 0 1 0 
1 0 0 1 0 
1 6.6613381477509392e-16 -6 1 0 
1 0 0 1 0 
1 128 1.4210854715202004e-14 1.1102230246251565e-16 -1 
1 128 0 0 -1 
1 0 0 1 0 
1 0 128 1 0 
1 6.6613381477509392e-16 -6 1 0 
1 0 128 1 0 
1 0 0 1 0 
1 128 0 0 1 
1 0 0 1 0 
1 0 -6 1 0 
1 0 0 1 0 
1 0 -6 1 0 
1 0 0 1 0 
1 0 -6 1 0 
1 0 0 1 0 
1 0 -6 1 0 
1 0 -6 1 0 
1 128 0 0 1 
1 0 0 0 -1 
1 6.2831853071795862 0 0 -1 
1 0 0 0 -1 
1 6.2831853071795862 0 0 -1 
1 0 0 0 -1 
1 6.2831853071795862 0 0 -1 
1 0 0 0 -1 
1 6.2831853071795862 0 0 -1 
Curves 20
1 0 128 0 0 0 1 
1 128 128 0 0 0 1 
1 91 1322.0999999999999 1096 1 0 -0 
1 91 1322.0999999999999 1096 1 0 -0 
1 0 0 0 0 0 1 
1 91 1322.0999999999999 1096 0 0 1 
1 91 1322.0999999999999 1096 0 0 1 
1 128 0 0 0 0 1 
1 219 1322.0999999999999 1096 0 0 1 
1 219 1322.0999999999999 1096 0 0 1 
1 91 1322.0999999999999 1224 1 0 -0 
2 102.5 1322.0999999999997 1107.5 -0 1 0 0 0 1 1 0 -0 2.25
2 102.5 1322.0999999999997 1212.5 -0 1 0 0 0 1 1 0 -0 2.25
2 207.5 1322.0999999999997 1107.5 -0 1 0 0 0 1 1 0 -0 2.25
2 207.5 1322.0999999999997 1212.5 -0 1 0 0 0 1 1 0 -0 2.25
1 91 1322.0999999999999 1224 1 0 -0 
1 11.5 114.25 -1.1276165186776173e-13 0 0 1 
1 11.5 9.25 -1.1117033219913235e-13 0 0 1 
1 116.5 114.25 -1.1300451315881012e-13 0 0 1 
1 116.5 9.25 -1.1117033219913235e-13 0 0 1 
Polygon3D 0
PolygonOnTriangulations 0
Surfaces 10
1 0 128 0 0 1 0 1 0 0 0 0 -1 
1 0 128 0 1 0 -0 0 -1 1.1102230246251565e-16 0 -1.1102230246251565e-16 -1 
1 128 128 0 1 0 -0 0 -1 1.1102230246251565e-16 0 -1.1102230246251565e-16 -1 
1 91 1322.0999999999999 1096 -0 1 0 0 0 1 1 0 -0 
1 91 1322.0999999999999 1096 -0 1 0 0 0 1 1 0 -0 
1 0 0 0 0 1 0 1 0 0 0 0 -1 
2 11.5 116.5 -2.2737367544323206e-13 0 -1.1102230246251565e-16 -1 0 -1 1.1102230246251565e-16 1 0 0 2.25
2 11.5 11.5 -2.2737367544323206e-13 0 -1.1102230246251565e-16 -1 0 -1 1.1102230246251565e-16 1 0 0 2.25
2 116.5 116.5 -2.2737367544323206e-13 0 -1.1102230246251565e-16 -1 0 -1 1.1102230246251565e-16 1 0 0 2.25
2 116.5 11.5 -2.2737367544323206e-13 0 -1.1102230246251565e-16 -1 0 -1 1.1102230246251565e-16 1 0 0 2.25
Triangulations 0

TShapes 74
Ve
1e-07
0 128 0
0 0

0101101
*
Ve
1e-07
0 128 6
0 0

0101101
*
Ed
 1e-07 1 1 0
1  1 0 0 6
2  1 1 0 0 6
2  2 2 0 0 6
0

0101000
+74 0 -73 0 *
Ve
1e-07
128 128 0
0 0

0101101
*
Ve
1e-07
128 128 6
0 0

0101101
*
Ed
 1e-07 1 1 0
1  2 0 0 6
2  3 1 0 0 6
2  4 3 0 0 6
0

0101000
+71 0 -70 0 *
Ed
 1e-07 1 1 0
1  3 0 0 128
2  5 1 8 0 128
2  6 4 0 0 128
0

0101000
+74 8 -71 8 *
Ed
 1e-07 1 1 0
1  4 0 0 128
2  7 1 11 0 128
2  8 5 0 0 128
0

0101000
+73 11 -70 11 *
Wi

0101100
+72 0 -69 0 -68 7 +67 10 *
Fa
0  1e-07 1 0

0101000
+66 0 *
Ve
1e-07
0 0 0
0 0

0101101
*
Ve
1e-07
0 0 6
0 0

0101101
*
Ed
 1e-07 1 1 0
1  5 0 0 6
2  9 2 0 0 6
2  10 6 0 0 6
0

0101000
+64 0 -63 0 *
Ed
 1e-07 1 1 0
1  6 0 0 128
2  11 2 8 0 128
2  12 4 0 0 128
0

0101000
+74 8 -64 8 *
Ed
 1e-07 1 1 0
1  7 0 0 128
2  13 2 11 0 128
2  14 5 0 0 128
0

0101000
+73 11 -63 11 *
Wi

0101100
+72 0 -62 0 -61 7 +60 10 *
Fa
0  1e-07 2 0

0101000
+59 0 *
Ve
1e-07
128 0 0
0 0

0101101
*
Ve
1e-07
128 0 6
0 0

0101101
*
Ed
 1e-07 1 1 0
1  8 0 0 6
2  15 3 0 0 6
2  16 6 0 0 6
0

0101000
+57 0 -56 0 *
Ed
 1e-07 1 1 0
1  9 0 0 128
2  17 3 8 0 128
2  18 4 0 0 128
0

0101000
+71 8 -57 8 *
Ed
 1e-07 1 1 0
1  10 0 0 128
2  19 3 11 0 128
2  20 5 0 0 128
0

0101000
+70 11 -56 11 *
Wi

0101100
+69 0 -55 0 -54 7 +53 10 *
Fa
0  1e-07 3 0

0101000
+52 0 *
Ed
 1e-07 1 1 0
1  11 0 0 128
2  21 6 8 0 128
2  22 4 0 0 128
0

0101000
+64 8 -57 8 *
Wi

0101100
-68 7 +61 7 -54 7 +50 7 *
Ve
1.00000232117566e-07
11.5 114.25 -1.12761651867762e-13
0 0

0101101
*
Ed
 1.00000230933328e-07 1 1 0
1  12 0 0 6.28318530717959
2  23 7 16 0 6.28318530717959
2  24 7 18 0 6.28318530717959
0

0101000
+48 16 -48 16 *
Wi

0101100
-47 15 *
Ve
1.00000247512658e-07
11.5 9.25 -1.11170332199132e-13
0 0

0101101
*
Ed
 1.00000242479647e-07 1 1 0
1  13 0 0 6.28318530717959
2  25 8 23 0 6.28318530717959
2  26 8 25 0 6.28318530717959
0

0101000
+45 23 -45 23 *
Wi

0101100
-44 22 *
Ve
1.00000229848548e-07
116.5 114.25 -1.1300451315881e-13
0 0

0101101
*
Ed
 1.00000229150032e-07 1 1 0
1  14 0 0 6.28318530717959
2  27 9 30 0 6.28318530717959
2  28 9 32 0 6.28318530717959
0

0101000
+42 30 -42 30 *
Wi

0101100
-41 29 *
Ve
1.00000247512658e-07
116.5 9.25 -1.11170332199132e-13
0 0

0101101
*
Ed
 1.00000242479647e-07 1 1 0
1  15 0 0 6.28318530717959
2  29 10 37 0 6.28318530717959
2  30 10 39 0 6.28318530717959
0

0101000
+39 37 -39 37 *
Wi

0101100
-38 36 *
Fa
0  1e-07 4 7

0101000
+49 0 +46 0 +43 0 +40 0 +37 0 *
Ed
 1e-07 1 1 0
1  16 0 0 128
2  31 6 11 0 128
2  32 5 0 0 128
0

0101000
+63 11 -56 11 *
Wi

0101100
-67 10 +60 10 -53 10 +35 10 *
Ve
1.00000232117566e-07
11.5 114.25 5.99999999999989
0 0

0101101
*
Ed
 1.00000230933328e-07 1 1 0
1  12 0 0 6.28318530717959
2  23 7 16 0 6.28318530717959
2  24 7 18 0 6.28318530717959
0

0101000
+33 18 -33 18 *
Wi

0101100
-32 40 *
Ve
1.00000247512658e-07
11.5 9.25 5.99999999999989
0 0

0101101
*
Ed
 1.00000242479647e-07 1 1 0
1  13 0 0 6.28318530717959
2  25 8 23 0 6.28318530717959
2  26 8 25 0 6.28318530717959
0

0101000
+30 25 -30 25 *
Wi

0101100
-29 41 *
Ve
1.00000229848548e-07
116.5 114.25 5.99999999999989
0 0

0101101
*
Ed
 1.00000229150032e-07 1 1 0
1  14 0 0 6.28318530717959
2  27 9 30 0 6.28318530717959
2  28 9 32 0 6.28318530717959
0

0101000
+27 32 -27 32 *
Wi

0101100
-26 42 *
Ve
1.00000247512658e-07
116.5 9.25 5.99999999999989
0 0

0101101
*
Ed
 1.00000242479647e-07 1 1 0
1  15 0 0 6.28318530717959
2  29 10 37 0 6.28318530717959
2  30 10 39 0 6.28318530717959
0

0101000
+24 39 -24 39 *
Wi

0101100
-23 43 *
Fa
0  1e-07 5 10

0101000
+34 0 +31 0 +28 0 +25 0 +22 0 *
Wi

0101100
+62 0 -55 0 -50 7 +35 10 *
Fa
0  1e-07 6 0

0101000
+20 0 *
Ed
 1.00000232117566e-07 1 1 0
1  17 0 0 6
3  33 34CN 7 0 0 6
0

0101000
+48 0 -33 0 *
Wi

0101100
+18 0 -18 0 -47 15 +32 40 *
Fa
0  1.00000230933328e-07 7 0

0101000
+17 0 *
Ed
 1.00000247512658e-07 1 1 0
1  18 0 0 6
3  35 36CN 8 0 0 6
0

0101000
+45 0 -30 0 *
Wi

0101100
+15 0 -15 0 -44 22 +29 41 *
Fa
0  1.00000242479647e-07 8 0

0101000
+14 0 *
Ed
 1.00000229848548e-07 1 1 0
1  19 0 0 6
3  37 38CN 9 0 0 6
0

0101000
+42 0 -27 0 *
Wi

0101100
+12 0 -12 0 -41 29 +26 42 *
Fa
0  1.00000229150032e-07 9 0

0101000
+11 0 *
Ed
 1.00000247512658e-07 1 1 0
1  20 0 0 6
3  39 40CN 10 0 0 6
0

0101000
+39 0 -24 0 *
Wi

0101100
+9 0 -9 0 -38 36 +23 43 *
Fa
0  1.00000242479647e-07 10 0

0101000
+8 0 *
Sh

0101100
+65 0 -58 0 +51 0 -36 0 +21 0 -19 0 +16 0 +13 0 +10 0 +7 0 
*
So

0100000
+6 0 *
Co

0100000
+5 0 *
Co

0100000
+4 0 *
Co

0100000
+3 0 *
Co

1100000
+2 0 *

+1 0 