DBRep_DrawableShape

CASCADE Topology V1, (c) Matra-Datavision
Locations 4
1
              1               0               0               0 
              0               1               0               0 
              0               0               1               0 
2  1 -1 0
1
              1               0               0               0 
              0               1               0               0 
              0               0               1               0 
2  3 -1 0
Curve2ds 102
2 0 0 1 0 -0 1 2.25
1 0 0 1 0 
1 6.2831853071795862 0 0 1 
1 0 0 0 1 
1 0 0 1 0 
1 0 48 1 0 
1 0 -0 0 -1 
1 0 0 0 1 
1 0 70 1 0 
1 0 0 0 1 
1 0 0 0 1 
1 0 0 1 0 
1 68 0 0 1 
1 0 -0 0 -1 
2 54 20 1 0 -0 1 4.5
1 0 1 1 0 
2 54 50 1 0 -0 1 3.5
1 0 1 1 0 
1 18 -0 0 -1 
1 0 0 0 1 
2 9 -61 1 -0 0 1 2.5
1 0 1 1 0 
2 9 -9 1 -0 0 1 2.5
1 0 1 1 0 
2 9 -61 1 -0 0 1 2.5
1 0 1 1 0 
2 9 -9 1 -0 0 1 2.5
1 0 1 1 0 
1 0 70 1 0 
1 18 0 0 1 
1 18 0 0 1 
1 0 0 1 0 
1 68 0 0 1 
1 18 -0 0 -1 
2 54 20 1 0 -0 1 6
1 0 16 1 0 
2 20 35 1 0 -0 1 4.5
1 0 3.0103986446980739 1 0 
2 52 35 1 0 -0 1 4.5
1 0 3.0103986446980739 1 0 
2 54 50 1 0 -0 1 3.5
1 0 55 1 0 
1 6.2831853071795862 -0 0 1 
1 0 -0 0 1 
1 0 0 1 0 
2 0 0 1 0 -0 1 6
1 6.2831853071795862 -0 0 1 
1 0 -0 0 1 
1 0 0 1 0 
1 0 48 1 0 
1 6.2831853071795862 -0 0 1 
1 0 -0 0 1 
2 0 0 1 0 -0 1 4.5
1 0 39 1 0 
1 0 67.222222222222229 1 0 
1 3.1415926535897931 2.6759099063982785 -1 0 
1 0 67.222222222222229 1 0 
1 9.4247779607693793 2.6759099063982785 -1 0 
1 6.2831853071795862 -0 0 1 
1 0 -0 0 1 
1 6.2831853071795862 -0 0 1 
1 0 -0 0 1 
2 9 -61 -1 0 0 1 4.5
1 0 0 1 0 
1 0 67.222222222222229 1 0 
1 3.1415926535897931 2.6759099063982785 -1 0 
1 0 67.222222222222229 1 0 
1 9.4247779607693793 2.6759099063982785 -1 0 
1 6.2831853071795862 -0 0 1 
1 0 -0 0 1 
1 6.2831853071795862 -0 0 1 
1 0 -0 0 1 
2 9 -9 -1 0 0 1 4.5
1 0 0 1 0 
1 0 67.222222222222229 1 0 
1 3.1415926535897931 2.6759099063982785 -1 0 
1 0 67.222222222222229 1 0 
1 9.4247779607693793 2.6759099063982785 -1 0 
1 6.2831853071795862 -0 0 1 
1 0 -0 0 1 
1 6.2831853071795862 -0 0 1 
1 0 -0 0 1 
2 9 -61 -1 0 0 1 4.5
1 0 0 1 0 
1 0 67.222222222222229 1 0 
1 3.1415926535897931 2.6759099063982785 -1 0 
1 0 67.222222222222229 1 0 
1 9.4247779607693793 2.6759099063982785 -1 0 
1 6.2831853071795862 -0 0 1 
1 0 -0 0 1 
1 6.2831853071795862 -0 0 1 
1 0 -0 0 1 
2 9 -9 -1 0 0 1 4.5
1 0 0 1 0 
1 6.2831853071795862 0 0 1 
1 0 0 0 1 
1 6.2831853071795862 0 0 1 
1 0 0 0 1 
1 6.2831853071795862 0 0 1 
1 0 0 0 1 
2 0 0 1 0 -0 1 2.25
1 0 0 1 0 
Curves 55
2 530 260 290.44691109680201 0 0 -1 -1 0 0 0 1 0 2.25
7 0 0  1 2 2  527.75 260 290.44691109680201  527.75 260 338.44691109680201 
 0 2 48 2
2 530 260 338.44691109680201 0 0 -1 -1 0 0 0 1 0 2.25
1 582 225 286.44691109680201 0 1 -0 
1 582 295 286.44691109680201 -1 0 -0 
1 582 225 286.44691109680201 -1 0 -0 
1 514 225 286.44691109680201 0 1 -0 
2 528 245 286.44691109680201 0 0 -1 -1 0 0 0 1 0 4.5
2 528 275 286.44691109680201 0 0 -1 -1 0 0 0 1 0 3.5
1 582 295 286.44691109680201 0 0 1 
1 582 225 340.44691109680201 0 1 -0 
1 582 225 322.44691109680201 0 0 1 
2 582 286 295.44691109680201 1 -0 -0 0 -0 1 -0 -1 0 2.5
2 582 234 295.44691109680201 1 -0 -0 0 -0 1 -0 -1 0 2.5
2 582 286 331.44691109680201 1 -0 -0 0 -0 1 -0 -1 0 2.5
2 582 234 331.44691109680201 1 -0 -0 0 -0 1 -0 -1 0 2.5
1 582 295 340.44691109680201 -1 0 -0 
1 582 225 340.44691109680201 -1 0 -0 
1 514 225 340.44691109680201 0 1 -0 
2 528 245 340.44691109680201 0 -0 -1 -1 0 -0 0 1 0 6
2 562 260 340.44691109680201 0 -0 -1 -1 0 -0 0 1 0 4.5
2 530 260 340.44691109680201 0 -0 -1 -1 0 -0 0 1 0 4.5
2 528 275 340.44691109680201 0 0 -1 -1 0 0 0 1 0 3.5
1 522 245 324.44691109680201 -0 -0 1 
2 528 245 324.44691109680201 0 -0 -1 -1 0 -0 0 1 0 6
1 559.75 260 338.44691109680201 -0.74740931868365978 -1.7999999999999999e-16 0.66436383882991967 
2 562 260 338.44691109680201 0 0 -1 -1 0 0 0 1 0 2.25
1 527.75 260 338.44691109680201 -0.74740931868365978 -1.7999999999999999e-16 0.66436383882991967 
2 528 245 324.44691109680201 0 0 -1 -1 0 0 0 1 0 4.5
2 515.77777777777783 286 295.44691109680201 1 -0 -0 0 -0 1 -0 -1 0 2.5
2 515.77777777777783 286 295.44691109680201 1 -0 -0 0 -0 1 -0 -1 0 2.5
1 583 286 297.94691109680201 -1 -0 -0 
1 514 286 290.94691109680201 0.66436383882991967 -1.7999999999999999e-16 0.74740931868365978 
2 514 286 295.44691109680201 -1 0 0 0 0 -1 -0 -1 -0 4.5
2 515.77777777777783 234 295.44691109680201 1 -0 -0 0 -0 1 -0 -1 0 2.5
2 515.77777777777783 234 295.44691109680201 1 -0 -0 0 -0 1 -0 -1 0 2.5
1 583 234 297.94691109680201 -1 -0 -0 
1 514 234 290.94691109680201 0.66436383882991967 -1.7999999999999999e-16 0.74740931868365978 
2 514 234 295.44691109680201 -1 0 0 0 0 -1 -0 -1 -0 4.5
2 515.77777777777783 286 331.44691109680201 1 -0 -0 0 -0 1 -0 -1 0 2.5
2 515.77777777777783 286 331.44691109680201 1 -0 -0 0 -0 1 -0 -1 0 2.5
1 583 286 333.94691109680201 -1 -0 -0 
1 514 286 326.94691109680201 0.66436383882991967 -1.7999999999999999e-16 0.74740931868365978 
2 514 286 331.44691109680201 -1 0 0 0 0 -1 -0 -1 -0 4.5
2 515.77777777777783 234 331.44691109680201 1 -0 -0 0 -0 1 -0 -1 0 2.5
2 515.77777777777783 234 331.44691109680201 1 -0 -0 0 -0 1 -0 -1 0 2.5
1 583 234 333.94691109680201 -1 -0 -0 
1 514 234 326.94691109680201 0.66436383882991967 -1.7999999999999999e-16 0.74740931868365978 
2 514 234 331.44691109680201 -1 0 0 0 0 -1 -0 -1 -0 4.5
1 514 225 322.44691109680201 0 0 1 
1 514 295 286.44691109680201 0 0 1 
7 0 0  1 2 2  523.5 245 286.44691109680201  523.5 245 324.44691109680201 
 1 2 39 2
7 0 0  1 2 2  524.5 275 286.44691109680201  524.5 275 340.44691109680201 
 1 2 55 2
7 0 0  1 2 2  559.75 260 290.44691109680201  559.75 260 338.44691109680201 
 0 2 48 2
2 562 260 290.44691109680201 0 0 -1 -1 0 0 0 1 0 2.25
Polygon3D 0
PolygonOnTriangulations 0
Surfaces 32
1 530 260 290.44691109680201 -0 -0 1 -1 0 0 0 1 0 
10 0 6.2831853071795862 0 48
2 530 260 290.44691109680201 0 0 1 -1 0 0 0 1 0 2.25
3 530 260 338.44691109680201 -0 -0 1 -1 0 0 0 1 0 2.25
0.84415398611317105
1 582 225 286.44691109680201 -0 -0 1 -1 0 0 0 1 0 
1 582 225 286.44691109680201 -1 0 -0 -0 -0 1 -0 -1 -0 
1 582 295 286.44691109680201 0 1 -0 0 0 1 -1 0 -0 
1 582 225 286.44691109680201 0 1 -0 0 0 1 -1 0 -0 
1 514 225 286.44691109680201 -1 0 -0 -0 -0 1 -0 -1 -0 
10 0 6.2831853071795862 1 39
2 528 245 285.44691109680201 0 0 1 -1 0 0 0 1 0 4.5
10 0 6.2831853071795862 1 55
2 528 275 285.44691109680201 0 0 1 -1 0 0 0 1 0 3.5
1 582 260 313.44691109680201 1 0 0 -0 0 1 0 -1 0 
1 582 225 322.44691109680201 -1 0 -0 -0 -0 1 -0 -1 -0 
1 582 225 340.44691109680201 -0 -0 1 -1 0 0 0 1 0 
2 583 286 295.44691109680201 -1 -0 -0 0 -0 1 0 -1 -0 2.5
2 583 234 295.44691109680201 -1 -0 -0 0 -0 1 0 -1 -0 2.5
2 583 286 331.44691109680201 -1 -0 -0 0 -0 1 0 -1 -0 2.5
2 583 234 331.44691109680201 -1 -0 -0 0 -0 1 0 -1 -0 2.5
1 582 295 322.44691109680201 0 1 -0 0 0 1 -1 0 -0 
1 582 225 322.44691109680201 0 1 -0 0 0 1 -1 0 -0 
1 514 225 322.44691109680201 -1 0 -0 -0 -0 1 -0 -1 -0 
2 528 245 324.44691109680201 -0 -0 1 -1 0 0 0 1 0 6
3 562 260 338.44691109680201 -0 -0 1 -1 0 0 0 1 0 2.25
0.84415398611317105
1 528 245 324.44691109680201 -0 -0 1 -1 0 0 0 1 0 
10 0 6.2831853071795862 0 48
2 562 260 290.44691109680201 0 0 1 -1 0 0 0 1 0 2.25
3 514 286 295.44691109680201 1 -0 -0 -0 0 -1 -0 -1 -0 4.5
-0.84415398611317105
3 514 234 295.44691109680201 1 -0 -0 -0 0 -1 -0 -1 -0 4.5
-0.84415398611317105
3 514 286 331.44691109680201 1 -0 -0 -0 0 -1 -0 -1 -0 4.5
-0.84415398611317105
3 514 234 331.44691109680201 1 -0 -0 -0 0 -1 -0 -1 -0 4.5
-0.84415398611317105
1 548 225 313.44691109680207 -0 -1 -0 0 0 -1 1 -0 0 
1 548 295 313.44691109680207 0 1 0 0 -0 1 1 0 -0 
1 514 260 313.44691109680195 -1 -0 -0 0 0 -1 0 -1 0 
1 562 260 290.44691109680201 -0 -0 1 -1 0 0 0 1 0 
Triangulations 0

TShapes 157
Ve
1e-05
527.75 260 290.446911096802
0 0

0101101
*
Ed
 1e-07 1 1 0
1  1 0 0 6.28318530717959
2  1 1 1 0 6.28318530717959
2  2 2 0 0 6.28318530717959
4 C0 1 1 2 0
0

0101000
+157 0 -157 0 *
Wi

0101100
-156 2 *
Fa
0  1e-07 1 0

0101000
-155 0 *
Ve
1e-05
527.75 260 338.446911096802
0 0

0101101
*
Ed
 1e-05 1 1 0
1  2 0 0 48
3  3 4C0 2 0 0 48
0

0101000
+157 0 -153 0 *
Ed
 1e-07 1 1 0
1  3 0 0 6.28318530717959
2  5 3 3 0 6.28318530717959
2  6 2 0 0 6.28318530717959
4 C0 2 0 3 3
0

0101000
+153 0 -153 0 *
Wi

0101100
+156 0 +152 0 -151 0 -152 0 *
Fa
0  1e-07 2 0

0101000
+150 0 *
Ve
1e-07
582 295 286.446911096802
0 0

0101101
*
Ve
1e-07
582 225 286.446911096802
0 0

0101101
*
Ed
 1e-07 1 1 0
1  4 0 0 70
2  7 5 0 0 70
2  8 4 0 0 70
0

0101000
-148 2 +147 2 *
Ve
1e-07
514 295 286.446911096802
0 0

0101101
*
Ed
 1e-07 1 1 0
1  5 0 0 68
2  9 4 0 0 68
2  10 6 0 0 68
0

0101000
-145 2 +148 2 *
Ve
1e-07
514 225 286.446911096802
0 0

0101101
*
Ed
 1e-07 1 1 0
1  6 0 0 68
2  11 7 0 0 68
2  12 4 0 0 68
0

0101000
-143 2 +147 2 *
Ed
 1e-07 1 1 0
1  7 0 0 70
2  13 4 0 0 70
2  14 8 0 0 70
0

0101000
-145 2 +143 2 *
Wi

0101100
-146 0 -144 0 +142 0 +141 0 *
Ve
1e-05
523.5 245 286.446911096802
0 0

0101101
*
Ed
 1e-07 1 1 0
1  8 0 0 6.28318530717959
2  15 4 1 0 6.28318530717959
2  16 9 0 0 6.28318530717959
4 C0 4 1 9 0
0

0101000
+139 0 -139 0 *
Wi

0101100
-138 2 *
Ve
1e-05
524.5 275 286.446911096802
0 0

0101101
*
Ed
 1e-07 1 1 0
1  9 0 0 6.28318530717959
2  17 4 1 0 6.28318530717959
2  18 10 0 0 6.28318530717959
4 C0 4 1 10 0
0

0101000
+136 0 -136 0 *
Wi

0101100
-135 2 *
Fa
0  1e-07 4 0

0101000
+140 0 +137 0 +134 0 *
Ve
1e-07
582 295 340.446911096802
0 0

0101101
*
Ed
 1e-07 1 1 0
1  10 0 0 54
0

0101000
+148 0 -132 0 *
Ve
1e-07
582 225 340.446911096802
0 0

0101101
*
Ed
 1e-07 1 1 0
1  11 0 0 70
2  19 12 0 0 70
2  20 13 0 0 70
0

0101000
-132 4 +130 4 *
Ed
 1e-07 1 1 0
1  12 0 -36 18
0

0101000
+147 0 -130 0 *
Wi

0101000
+146 1 +131 0 -129 3 -128 0 *
Ve
1e-07
582 286 297.946911096802
0 0

0101101
*
Ed
 1e-07 1 1 0
1  13 0 0 6.28318530717959
2  21 5 0 0 6.28318530717959
2  22 14 0 0 6.28318530717959
0

0101100
+126 2 -126 2 *
Wi

0101100
-125 1 *
Ve
1e-07
582 234 297.946911096802
0 0

0101101
*
Ed
 1e-07 1 1 0
1  14 0 0 6.28318530717959
2  23 5 0 0 6.28318530717959
2  24 15 0 0 6.28318530717959
0

0101100
+123 2 -123 2 *
Wi

0101100
-122 1 *
Ve
1e-07
582 286 333.946911096802
0 0

0101101
*
Ed
 1e-07 1 1 0
1  15 0 0 6.28318530717959
2  25 12 0 0 6.28318530717959
2  26 16 0 0 6.28318530717959
0

0101100
+120 4 -120 4 *
Wi

0101100
-119 3 *
Ve
1e-07
582 234 333.946911096802
0 0

0101101
*
Ed
 1e-07 1 1 0
1  16 0 0 6.28318530717959
2  27 12 0 0 6.28318530717959
2  28 17 0 0 6.28318530717959
0

0101100
+117 4 -117 4 *
Wi

0101100
-116 3 *
Fa
0  1e-07 11 0

0111000
+127 0 +124 0 +121 0 +118 0 +115 0 *
Ve
1e-07
514 295 340.446911096802
0 0

0101101
*
Ed
 1e-07 1 1 0
1  17 0 0 68
2  29 13 0 0 68
2  30 18 0 0 68
0

0101000
-113 4 +132 4 *
Ve
1e-07
514 225 340.446911096802
0 0

0101101
*
Ed
 1e-07 1 1 0
1  18 0 0 68
2  31 19 0 0 68
2  32 13 0 0 68
0

0101000
-111 4 +130 4 *
Ed
 1e-07 1 1 0
1  19 0 0 70
2  33 13 0 0 70
2  34 20 0 0 70
0

0101000
-113 4 +111 4 *
Wi

0101100
-129 0 -112 0 +110 0 +109 0 *
Ve
1e-07
522 245 340.446911096802
0 0

0101101
*
Ed
 1e-07 1 1 0
1  20 0 0 6.28318530717959
2  35 13 0 0 6.28318530717959
2  36 21 0 0 6.28318530717959
0

0101100
+107 4 -107 4 *
Wi

0101100
-106 0 *
Ve
1e-07
557.5 260 340.446911096802
0 0

0101101
*
Ed
 1e-07 1 1 0
1  21 0 0 6.28318530717959
2  37 13 0 0 6.28318530717959
2  38 22 0 0 6.28318530717959
0

0101000
+104 4 -104 4 *
Wi

0101100
-103 0 *
Ve
1e-07
525.5 260 340.446911096802
0 0

0101101
*
Ed
 1e-07 1 1 0
1  22 0 0 6.28318530717959
2  39 13 0 0 6.28318530717959
2  40 3 0 0 6.28318530717959
0

0101000
+101 4 -101 4 *
Wi

0101100
-100 0 *
Ve
1e-05
524.5 275 340.446911096802
0 0

0101101
*
Ed
 1e-07 1 1 0
1  23 0 0 6.28318530717959
2  41 13 3 0 6.28318530717959
2  42 10 0 0 6.28318530717959
4 C0 13 3 10 0
0

0101000
+98 0 -98 0 *
Wi

0101100
-97 4 *
Fa
0  1e-07 13 0

0101000
+108 0 +105 0 +102 0 +99 0 +96 0 *
Ve
1e-07
522 245 324.446911096802
0 0

0101101
*
Ed
 1e-07 1 1 0
1  24 0 0 16
3  43 44CN 21 0 0 16
0

0101000
+94 4 -107 4 *
Ed
 1e-07 1 1 0
1  25 0 0 6.28318530717959
2  45 21 0 0 6.28318530717959
2  46 23 0 0 6.28318530717959
0

0101000
+94 4 -94 4 *
Wi

0101100
-106 0 +93 0 +92 0 -93 0 *
Fa
0  1e-07 21 0

0111000
+91 0 *
Ve
1e-05
559.75 260 338.446911096802
0 0

0101101
*
Ed
 1e-07 1 1 0
1  26 0 0 3.01039864469807
3  47 48CN 22 0 0 3.01039864469807
0

0101000
+89 4 -104 4 *
Ed
 1e-07 1 1 0
1  27 0 0 6.28318530717959
2  49 22 3 0 6.28318530717959
2  50 24 0 0 6.28318530717959
4 C0 22 3 24 0
0

0101000
+89 0 -89 0 *
Wi

0101100
-103 0 +88 0 +87 4 -88 0 *
Fa
0  1e-07 22 0

0101000
+86 0 *
Ed
 1e-07 1 1 0
1  28 0 0 3.01039864469807
3  51 52CN 3 0 0 3.01039864469807
0

0101000
+153 4 -101 4 *
Wi

0101100
-100 0 +84 0 +151 4 -84 0 *
Fa
0  1e-07 3 0

0101000
+83 0 *
Wi

0101100
+92 0 *
Ve
1e-05
523.5 245 324.446911096802
0 0

0101101
*
Ed
 1e-07 1 1 0
1  29 0 0 6.28318530717959
2  53 23 3 0 6.28318530717959
2  54 9 0 0 6.28318530717959
4 C0 23 3 9 0
0

0101000
+80 0 -80 0 *
Wi

0101100
-79 4 *
Fa
0  1e-07 23 0

0101000
+81 0 +78 0 *
Ve
1.00000014e-07
515.777777777778 286 297.946911096802
0 0

0101101
*
Ve
1e-07
515.777777777778 286 292.946911096802
0 0

0101101
*
Ed
 1e-07 1 1 0
1  30 0 0 3.14159265358979
2  55 14 0 0 3.14159265358979
2  56 25 0 0 3.14159265358979
0

0101000
+76 2 -75 2 *
Ed
 1e-07 1 1 0
1  31 0 3.14159265358979 6.28318530717959
2  57 14 0 3.14159265358979 6.28318530717959
2  58 25 0 3.14159265358979 6.28318530717959
0

0101000
+75 2 -76 2 *
Ed
 1e-07 1 1 0
1  32 0 1 67.2222222222222
3  59 60CN 14 0 1 67.2222222222222
0

0101000
+126 2 -76 2 *
Wi

0101100
-74 0 -73 0 +72 0 +125 0 -72 0 *
Fa
0  1e-07 14 0

0111000
+71 0 *
Ve
1e-07
514 286 290.946911096802
0 0

0101101
*
Ed
 1e-07 1 1 0
1  33 0 0 2.67590990639828
3  61 62CN 25 0 0 2.67590990639828
0

0101000
+69 2 -75 2 *
Ed
 1e-07 1 1 0
1  34 0 0 6.28318530717959
2  63 8 0 0 6.28318530717959
2  64 25 0 0 6.28318530717959
0

0101000
+69 2 -69 2 *
Wi

0101100
+74 0 +73 0 +68 0 +67 0 -68 0 *
Fa
0  1e-07 25 0

0111000
+66 0 *
Ve
1.00000014e-07
515.777777777778 234 297.946911096802
0 0

0101101
*
Ve
1e-07
515.777777777778 234 292.946911096802
0 0

0101101
*
Ed
 1e-07 1 1 0
1  35 0 0 3.14159265358979
2  65 15 0 0 3.14159265358979
2  66 26 0 0 3.14159265358979
0

0101000
+64 2 -63 2 *
Ed
 1e-07 1 1 0
1  36 0 3.14159265358979 6.28318530717959
2  67 15 0 3.14159265358979 6.28318530717959
2  68 26 0 3.14159265358979 6.28318530717959
0

0101000
+63 2 -64 2 *
Ed
 1e-07 1 1 0
1  37 0 1 67.2222222222222
3  69 70CN 15 0 1 67.2222222222222
0

0101000
+123 2 -64 2 *
Wi

0101100
-62 0 -61 0 +60 0 +122 0 -60 0 *
Fa
0  1e-07 15 0

0111000
+59 0 *
Ve
1e-07
514 234 290.946911096802
0 0

0101101
*
Ed
 1e-07 1 1 0
1  38 0 0 2.67590990639828
3  71 72CN 26 0 0 2.67590990639828
0

0101000
+57 2 -63 2 *
Ed
 1e-07 1 1 0
1  39 0 0 6.28318530717959
2  73 8 0 0 6.28318530717959
2  74 26 0 0 6.28318530717959
0

0101000
+57 2 -57 2 *
Wi

0101100
+62 0 +61 0 +56 0 +55 0 -56 0 *
Fa
0  1e-07 26 0

0111000
+54 0 *
Ve
1.00000014e-07
515.777777777778 286 333.946911096802
0 0

0101101
*
Ve
1e-07
515.777777777778 286 328.946911096802
0 0

0101101
*
Ed
 1e-07 1 1 0
1  40 0 0 3.14159265358979
2  75 16 0 0 3.14159265358979
2  76 27 0 0 3.14159265358979
0

0101000
+52 4 -51 4 *
Ed
 1e-07 1 1 0
1  41 0 3.14159265358979 6.28318530717959
2  77 16 0 3.14159265358979 6.28318530717959
2  78 27 0 3.14159265358979 6.28318530717959
0

0101000
+51 4 -52 4 *
Ed
 1e-07 1 1 0
1  42 0 1 67.2222222222222
3  79 80CN 16 0 1 67.2222222222222
0

0101000
+120 4 -52 4 *
Wi

0101100
-50 0 -49 0 +48 0 +119 0 -48 0 *
Fa
0  1e-07 16 0

0111000
+47 0 *
Ve
1e-07
514 286 326.946911096802
0 0

0101101
*
Ed
 1e-07 1 1 0
1  43 0 0 2.67590990639828
3  81 82CN 27 0 0 2.67590990639828
0

0101000
+45 4 -51 4 *
Ed
 1e-07 1 1 0
1  44 0 0 6.28318530717959
2  83 20 0 0 6.28318530717959
2  84 27 0 0 6.28318530717959
0

0101000
+45 4 -45 4 *
Wi

0101100
+50 0 +49 0 +44 0 +43 0 -44 0 *
Fa
0  1e-07 27 0

0111000
+42 0 *
Ve
1.00000014e-07
515.777777777778 234 333.946911096802
0 0

0101101
*
Ve
1e-07
515.777777777778 234 328.946911096802
0 0

0101101
*
Ed
 1e-07 1 1 0
1  45 0 0 3.14159265358979
2  85 17 0 0 3.14159265358979
2  86 28 0 0 3.14159265358979
0

0101000
+40 4 -39 4 *
Ed
 1e-07 1 1 0
1  46 0 3.14159265358979 6.28318530717959
2  87 17 0 3.14159265358979 6.28318530717959
2  88 28 0 3.14159265358979 6.28318530717959
0

0101000
+39 4 -40 4 *
Ed
 1e-07 1 1 0
1  47 0 1 67.2222222222222
3  89 90CN 17 0 1 67.2222222222222
0

0101000
+117 4 -40 4 *
Wi

0101100
-38 0 -37 0 +36 0 +116 0 -36 0 *
Fa
0  1e-07 17 0

0111000
+35 0 *
Ve
1e-07
514 234 326.946911096802
0 0

0101101
*
Ed
 1e-07 1 1 0
1  48 0 0 2.67590990639828
3  91 92CN 28 0 0 2.67590990639828
0

0101000
+33 4 -39 4 *
Ed
 1e-07 1 1 0
1  49 0 0 6.28318530717959
2  93 20 0 0 6.28318530717959
2  94 28 0 0 6.28318530717959
0

0101000
+33 4 -33 4 *
Wi

0101100
+38 0 +37 0 +32 0 +31 0 -32 0 *
Fa
0  1e-07 28 0

0111000
+30 0 *
Ed
 1e-07 1 1 0
1  50 0 -36 18
0

0101000
+143 0 -111 0 *
Wi

0101000
-142 1 +128 0 +110 3 -28 0 *
Fa
0  1e-07 29 0

0111000
+27 0 *
Ed
 1e-07 1 1 0
1  51 0 0 54
0

0101000
+145 0 -113 0 *
Wi

0101000
+144 1 +25 0 -112 3 -131 0 *
Fa
0  1e-07 30 0

0111000
+24 0 *
Wi

0101000
+28 0 +109 3 -25 0 -141 1 *
Wi

0101100
-67 1 *
Wi

0101100
-55 1 *
Wi

0101100
-43 3 *
Wi

0101100
-31 3 *
Fa
0  1e-07 31 0

0111000
+22 0 +21 0 +20 0 +19 0 +18 0 *
Ed
 1e-05 1 1 0
1  52 0 1 39
3  95 96C0 9 0 1 39
0

0101000
-80 0 +139 0 *
Wi

0101100
-79 0 -16 0 +138 0 +16 0 *
Fa
0  1e-07 9 0

0101000
+15 0 *
Ed
 1e-05 1 1 0
1  53 0 1 55
3  97 98C0 10 0 1 55
0

0101000
-98 0 +136 0 *
Wi

0101100
-97 0 -13 0 +135 0 +13 0 *
Fa
0  1e-07 10 0

0101000
+12 0 *
Ve
1e-05
559.75 260 290.446911096802
0 0

0101101
*
Ed
 1e-05 1 1 0
1  54 0 0 48
3  99 100C0 24 0 0 48
0

0101000
-89 0 +10 0 *
Ed
 1e-07 1 1 0
1  55 0 0 6.28318530717959
2  101 32 1 0 6.28318530717959
2  102 24 0 0 6.28318530717959
4 C0 24 0 32 1
0

0101000
+10 0 -10 0 *
Wi

0101100
-87 0 -9 0 +8 0 +9 0 *
Fa
0  1e-07 24 0

0101000
+7 0 *
Wi

0101100
-8 2 *
Fa
0  1e-07 32 0

0101000
-5 0 *
Sh

0101000
-154 1 +149 0 +133 1 +114 0 -95 3 +90 3 +85 3 +82 3 -77 3 +70 1 
+65 1 +58 1 +53 1 +46 3 +41 3 +34 3 +29 3 +26 0 +23 0 +17 0 
+14 0 +11 0 +6 0 -4 1 *
So

0100000
+3 0 *
Co

1100000
+2 0 *

+1 0 