DBRep_DrawableShape

CASCADE Topology V1, (c) Matra-Datavision
Locations 4
1
              1               0               0               0 
              0               1               0             183 
              0               0               1 -87.2302816901408 
1
              1               0               0               0 
              0               1               0            -183 
              0               0               1 87.2302816901408 
2  1 1 2 1 0
2  1 -1 0
Curve2ds 48
1 0 0 1 0 
1 1.0500000000000682 9.7531172069825445 -1 0 
1 0.60000000000002274 0 0 -1 
1 20 0 0 1 
1 0 -14 1 0 
1 -1.0500000000000682 9.7531172069825374 1 0 
1 0 0 0 -1 
1 20 0 0 1 
8 0 14
1 2 0 0 1 
8 0 14
1 0.60000000000002274 0 0 -1 
1 0 14 1 0 
1 -0.45000000000004547 -10.246882793017463 0 1 
1 0 0 1 0 
1 0.45000000000004547 -10.246882793017456 0 1 
1 0 0 1 0 
1 1.0500000000000682 -8.2468827930174555 -1 0 
8 0 14
1 1.5 0 0 -1 
8 0 14
1 2 0 0 1 
1 0 -14 1 0 
1 -1.0500000000000682 -8.2468827930174626 1 0 
1 0 14 1 0 
1 0.44999999999993179 -10.246882793017463 0 1 
1 20 0 0 1 
1 0 0 0 -1 
1 0 0 1 0 
1 -0.44999999999993179 -10.246882793017456 0 1 
1 0 0 1 0 
1 -0.44999999999993179 9.7531172069825445 -1 0 
1 0.60000000000002274 0 0 -1 
1 20 0 0 1 
1 0 -14 1 0 
1 0.44999999999993179 9.7531172069825374 1 0 
1 1.0500000000000682 -10.246882793017456 0 1 
1 0 0 1 0 
1 -1.0499999999999545 -10.246882793017456 0 1 
1 0 0 1 0 
1 -0.44999999999993179 -10.246882793017456 -1 0 
1 -0.45000000000004547 7 -1 0 
1 -1.0500000000000682 7 0 -1 
1 0 0 0 1 
1 -0.45000000000004547 -7 -1 0 
1 0.44999999999993179 -10.246882793017463 1 0 
1 1.0499999999999545 7 0 -1 
1 0 0 0 1 
1 1.0499999999999545 -10.246882793017463 0 1 
1 0 14 1 0 
1 -1.0500000000000682 -10.246882793017463 0 1 
1 0 14 1 0 
Curves 24
1 41 120 342.23028169014083 0 0 1 
1 41 120 342.83028169014085 -0 1 0 
1 41 134 342.23028169014083 0 0 1 
1 41 120 342.23028169014083 -0 1 0 
1 23 120 342.83028169014085 -0 1 0 
1 21 134 342.83028169014085 1 0 -0 
1 21 120 342.83028169014085 1 0 -0 
1 23 120 342.23028169014083 0 0 1 
1 23 120 343.73028169014083 -0 1 0 
1 23 134 342.23028169014083 0 0 1 
1 21 134 343.73028169014083 1 0 -0 
1 41 120 343.73028169014083 -0 1 0 
1 21 120 343.73028169014083 1 0 -0 
1 41 120 343.73028169014083 0 0 1 
1 41 120 344.33028169014085 -0 1 0 
1 41 134 343.73028169014083 0 0 1 
1 21 120 342.23028169014083 1 0 -0 
1 21 120 344.33028169014085 1 0 -0 
1 21 120 343.73028169014083 0 0 1 
1 21 120 344.33028169014085 -0 1 0 
1 21 134 343.73028169014083 0 0 1 
1 21 120 342.23028169014083 -0 1 0 
1 21 134 344.33028169014085 1 0 -0 
1 21 134 342.23028169014083 1 0 -0 
Polygon3D 0
PolygonOnTriangulations 0
Surfaces 10
1 41 120 342.23028169014083 1 0 -0 0 0 1 0 -1 0 
1 31.246882793017456 120.00000000000003 343.2802816901409 -0 -1 -0 0 0 -1 1 -0 0 
1 21 120 342.83028169014085 0 0 1 1 0 -0 -0 1 0 
1 31.246882793017463 133.99999999999997 343.2802816901409 0 1 0 0 -0 1 1 0 -0 
1 21 120 342.23028169014083 0 0 1 1 0 -0 -0 1 0 
1 23 120 342.23028169014083 1 0 -0 0 0 1 0 -1 0 
1 21 120 343.73028169014083 0 0 1 1 0 -0 -0 1 0 
1 41 120 343.73028169014083 1 0 -0 0 0 1 0 -1 0 
1 21 120 344.33028169014085 0 0 1 1 0 -0 -0 1 0 
1 21 127 343.28028169014078 -1 -0 -0 0 0 -1 0 -1 0 
Triangulations 0

TShapes 63
Ve
1e-07
41 303 255.6
0 0

0101101
*
Ve
1e-07
41 303 255
0 0

0101101
*
Ed
 1e-07 1 1 0
1  1 0 0 0.600000000000023
2  1 1 0 0 0.600000000000023
2  2 2 0 0 0.600000000000023
0

0101000
-63 4 +62 4 *
Ve
1e-07
41 317 255.6
0 0

0101101
*
Ed
 1e-07 1 1 0
1  2 0 0 14
2  3 1 0 0 14
2  4 3 0 0 14
0

0101000
-60 4 +63 4 *
Ve
1e-07
41 317 255
0 0

0101101
*
Ed
 1e-07 1 1 0
1  3 0 0 0.600000000000023
2  5 1 0 0 0.600000000000023
2  6 4 0 0 0.600000000000023
0

0101000
-60 4 +58 4 *
Ed
 1e-07 1 1 0
1  4 0 0 14
2  7 1 0 0 14
2  8 5 0 0 14
0

0101000
-58 4 +62 4 *
Wi

0101100
-61 0 -59 0 +57 0 +56 0 *
Fa
0  1e-07 1 0

0111000
+55 0 *
Ve
1.5e-07
23 303 255.6
0 0

0101101
*
Ve
1.5e-07
23 317 255.6
0 0

0101101
*
Ed
 1.5e-07 1 1 0
1  5 0 0 14
2  9 3 0 0 14
2  10 6 0 0 14
0

0101000
+53 4 -52 4 *
Ed
 1e-07 1 1 0
1  6 0 2 20
2  11 3 0 2 20
2  12 4 0 2 20
0

0101000
+52 4 -60 4 *
Ed
 1e-07 1 1 0
1  7 0 2 20
2  13 3 0 2 20
2  14 2 0 2 20
0

0101000
+53 4 -63 4 *
Wi

0101100
-51 0 -50 0 +59 0 +49 0 *
Fa
0  1e-07 3 0

0111000
+48 0 *
Ve
1.5e-07
23 303 256.5
0 0

0101101
*
Ed
 1e-07 1 1 0
1  8 0 0.600000000000023 1.5
2  15 6 0 0.600000000000023 1.5
2  16 2 0 0.600000000000023 1.5
0

0101000
+53 4 -46 4 *
Ve
1.5e-07
23 317 256.5
0 0

0101101
*
Ed
 1.5e-07 1 1 0
1  9 0 0 14
2  17 6 0 0 14
2  18 7 0 0 14
0

0101000
+46 4 -44 4 *
Ed
 1e-07 1 1 0
1  10 0 0.600000000000023 1.5
2  19 6 0 0.600000000000023 1.5
2  20 4 0 0.600000000000023 1.5
0

0101000
+52 4 -44 4 *
Wi

0101100
-45 0 -43 0 +42 0 +51 0 *
Fa
0  1e-07 6 0

0111000
+41 0 *
Ve
1e-07
41 317 256.5
0 0

0101101
*
Ed
 1e-07 1 1 0
1  11 0 2 20
2  21 7 0 2 20
2  22 4 0 2 20
0

0101000
+44 4 -39 4 *
Ve
1e-07
41 303 256.5
0 0

0101101
*
Ed
 1e-07 1 1 0
1  12 0 0 14
2  23 7 0 0 14
2  24 8 0 0 14
0

0101000
-39 4 +37 4 *
Ed
 1e-07 1 1 0
1  13 0 2 20
2  25 7 0 2 20
2  26 2 0 2 20
0

0101000
+46 4 -37 4 *
Wi

0101100
-43 0 -38 0 +36 0 +35 0 *
Fa
0  1e-07 7 0

0111000
+34 0 *
Ve
1e-07
41 303 257.1
0 0

0101101
*
Ed
 1e-07 1 1 0
1  14 0 0 0.600000000000023
2  27 8 0 0 0.600000000000023
2  28 2 0 0 0.600000000000023
0

0101000
-32 4 +37 4 *
Ve
1e-07
41 317 257.1
0 0

0101101
*
Ed
 1e-07 1 1 0
1  15 0 0 14
2  29 8 0 0 14
2  30 9 0 0 14
0

0101000
-30 4 +32 4 *
Ed
 1e-07 1 1 0
1  16 0 0 0.600000000000023
2  31 8 0 0 0.600000000000023
2  32 4 0 0 0.600000000000023
0

0101000
-30 4 +39 4 *
Wi

0101100
-31 0 -29 0 +28 0 +36 0 *
Fa
0  1e-07 8 0

0111000
+27 0 *
Ve
1e-07
21 303 255
0 0

0101101
*
Ed
 1e-07 1 1 0
1  17 0 0 20
2  33 2 0 0 20
2  34 5 0 0 20
0

0101000
+25 4 -62 4 *
Ve
1e-07
21 303 257.1
0 0

0101101
*
Ed
 1e-07 1 1 0
1  18 0 0 20
2  35 2 0 0 20
2  36 9 0 0 20
0

0101000
+23 4 -32 4 *
Ed
 1e-07 1 1 0
1  19 0 -1.5 0.600000000000023
2  37 2 0 -1.5 0.600000000000023
2  38 10 0 -1.5 0.600000000000023
0

0101000
+25 4 -23 4 *
Wi

0101000
+24 0 +61 0 -49 0 +45 0 +35 0 +31 0 -22 0 -21 0 *
Fa
0  1e-07 2 0

0111000
+20 0 *
Ve
1e-07
21 317 257.1
0 0

0101101
*
Ed
 1e-07 1 1 0
1  20 0 0 14
2  39 10 0 0 14
2  40 9 0 0 14
0

0101000
+23 4 -18 4 *
Ve
1e-07
21 317 255
0 0

0101101
*
Ed
 1e-07 1 1 0
1  21 0 -1.5 0.600000000000023
2  41 10 0 -1.5 0.600000000000023
2  42 4 0 -1.5 0.600000000000023
0

0101000
+16 4 -18 4 *
Ed
 1e-07 1 1 0
1  22 0 0 14
2  43 10 0 0 14
2  44 5 0 0 14
0

0101000
+25 4 -16 4 *
Wi

0101000
+21 0 +17 0 -15 0 -14 0 *
Fa
0  1e-07 10 0

0111000
+13 0 *
Ed
 1e-07 1 1 0
1  23 0 0 20
2  45 4 0 0 20
2  46 9 0 0 20
0

0101000
+18 4 -30 4 *
Ed
 1e-07 1 1 0
1  24 0 0 20
2  47 4 0 0 20
2  48 5 0 0 20
0

0101000
+16 4 -58 4 *
Wi

0101000
+15 0 +11 0 -28 0 -38 0 -42 0 +50 0 -57 0 -10 0 *
Fa
0  1e-07 4 0

0111000
+9 0 *
Wi

0101000
+14 0 +10 0 -56 0 -24 0 *
Fa
0  1e-07 5 0

0111000
-7 0 *
Wi

0101000
-17 0 +22 0 +29 0 -11 0 *
Fa
0  1e-07 9 0

0111000
+5 0 *
Sh

0101000
+54 0 +47 0 +40 0 -33 0 +26 0 +19 0 +12 0 +8 0 -6 0 +4 0 
*
So

0100000
+3 0 *
Co

1100000
+2 0 *

+1 3 