DBRep_DrawableShape

CASCADE Topology V1, (c) Matra-Datavision
Locations 0
Curve2ds 0
Curves 5
1 0 1311.9890873012275 4.4408920985006262e-16 1 0 0 
1 596.89999999999998 1311.9890873012275 4.4408920985006262e-16 0 -1 -0 
1 596.90000000000009 1131.0140873012278 4.4408920985006262e-16 -0.17204376626835494 -0.98508930685912921 0 
1 400.05000000000001 3.8890873012275051 4.4408920985006262e-16 -1 0 0 
1 0 3.8890873012275051 4.4408920985006262e-16 0 1 0 
Polygon3D 0
PolygonOnTriangulations 0
Surfaces 0
Triangulations 0

TShapes 11
Ve
1e-07
0 1311.98908730123 4.44089209850063e-16
0 0

0101101
*
Ve
1e-07
596.9 1311.98908730123 4.44089209850063e-16
0 0

0101101
*
Ed
 1e-07 1 1 0
1  1 0 0 596.9
0

0101000
+11 0 -10 0 *
Ve
1e-07
596.9 1131.01408730295 4.44089209850063e-16
0 0

0101101
*
Ed
 1e-07 1 1 0
1  2 0 0 180.974999998279
0

0101000
+10 0 -8 0 *
Ve
1e-07
400.05 3.88908730122785 4.44089209850063e-16
0 0

0101101
*
Ed
 1e-07 1 1 0
1  3 0 1.38806599421867e-13 1144.18560038352
0

0101000
+8 0 -6 0 *
Ve
1e-07
0 3.88908730122751 4.44089209850063e-16
0 0

0101101
*
Ed
 1e-07 1 1 0
1  4 0 0 400.05
0

0101000
+6 0 -4 0 *
Ed
 1e-07 1 1 0
1  5 0 0 1308.1
0

0101000
+4 0 -11 0 *
Wi

0101100
-9 0 -7 0 -5 0 -3 0 -2 0 *

+1 0 