DBRep_DrawableShape

CASCADE Topology V1, (c) Matra-Datavision
Locations 8
1
              1               0               0               0 
              0               1               0               0 
              0               0               1               0 
1
1.11022302462516e-16               0               1               0 
              0               1               0               0 
             -1               0 1.11022302462516e-16               0 
1
              1               0               0              -0 
              0               1               0 3.88908730122752 
              0               0               1              18 
1
              1               0               0               0 
              0               1               0               0 
              0               0               1 -4.44089209850063e-16 
1
              1               0               0               0 
              0               1               0               0 
              0               0               1               1 
1
              1               0               0               0 
              0               1               0               0 
              0               0               1              -1 
2  1 1 2 1 3 1 4 1 5 1 6 1 0
2  6 -1 5 -1 4 -1 3 -1 2 -1 1 -1 0
Curve2ds 0
Curves 1
2 18.000000000000043 127 357.23028169014083 1 0 0 0 -0 1 0 -1 -0 12.5
Polygon3D 0
PolygonOnTriangulations 0
Surfaces 1
1 357.23028169014083 130.88908730122753 1.1842378929335e-15 0 0 1 1 0 -0 -0 1 0 
Triangulations 0

TShapes 5
Ve
8.42596118677367e-05
369.730281690141 130.889087301228 2.81256499571706e-14
0 0

0101101
*
Ed
 8.42596118536738e-05 1 1 0
1  1 0 0 6.28318530717959
0

0101000
+5 8 -5 8 *
Wi

0101100
+4 7 *
Fa
0  1e-07 1 0

0101000
-3 0 *
Sh

1101000
+2 0 *

+1 0 