DBRep_DrawableShape

CASCADE Topology V1, (c) Matra-Datavision
Locations 49
1
              1               0               0               0 
              0               1               0               0 
              0               0               1              -1 
1
              1               0               0               0 
              0               1               0               0 
              0               0               1               0 
1
              1               0               0               0 
              0               1               0               0 
              0               0               1               0 
1
              1               0               0               0 
              0               1               0               0 
              0               0               1               0 
1
1.11022302462516e-16               0              -1               0 
              0               1               0               0 
              1               0 1.11022302462516e-16               0 
1
              1               0               0           596.9 
              0               1               0 3.88908730122752 
              0               0               1            -582 
2  2 1 3 1 4 1 5 1 6 1 0
1
              1               0               0               0 
              0               1               0               0 
              0               0               1               0 
1
              1               0               0               0 
              0               1               0               0 
              0               0               1               0 
1
              1               0               0               0 
              0               1               0               0 
              0               0               1               0 
1
              1               0               0               0 
              0               1               0               0 
              0               0               1               0 
1
              1               0               0               0 
              0               1               0               0 
              0               0               1               0 
2  8 1 9 1 10 1 11 1 12 1 0
2  6 -1 5 -1 4 -1 3 -1 2 -1 0
2  1 -1 0
1
              1               0               0              18 
              0               1               0               0 
              0               0               1               0 
2  16 1 8 1 9 1 10 1 11 1 12 1 0
2  9 1 10 1 11 1 12 1 2 1 3 1 4 1 5 1 6 1 0
2  16 1 8 1 0
1
              1               0               0               0 
              0               1               0               0 
              0               0               1              -0 
2  20 -1 6 -1 5 -1 4 -1 3 -1 2 -1 12 -1 11 -1 10 -1 9 -1 0
1
              1               0               0               0 
              0               1               0               0 
              0               0               1               1 
2  22 -1 20 -1 6 -1 5 -1 4 -1 3 -1 2 -1 12 -1 11 -1 10 -1 9 -1 0
2  6 -1 5 -1 4 -1 3 -1 2 -1 12 -1 11 -1 10 -1 9 -1 0
1
              1               0               0               0 
              0               1               0               0 
              0               0               1             -18 
1
              1               0               0               0 
              0               1               0               0 
              0               0               1               1 
2  8 1 9 1 10 1 11 1 12 1 2 1 3 1 4 1 5 1 6 1 25 1 26 1 1 1 0
2  26 -1 25 -1 6 -1 5 -1 4 -1 3 -1 2 -1 12 -1 11 -1 10 -1 9 -1 8 -1 0
2  1 -1 26 -1 25 -1 6 -1 5 -1 4 -1 3 -1 2 -1 12 -1 11 -1 10 -1 9 -1 8 -1 0
1
              1               0               0               0 
              0               1               0               0 
              0               0               1              -4 
1
              1               0               0               0 
              0               1               0               0 
              0               0               1               1 
2  2 1 3 1 4 1 5 1 6 1 30 1 31 1 1 1 0
2  31 -1 30 -1 6 -1 5 -1 4 -1 3 -1 2 -1 0
2  1 -1 31 -1 30 -1 6 -1 5 -1 4 -1 3 -1 2 -1 0
1
              1               0               0               0 
              0               1               0               0 
              0               0               1              18 
2  35 -1 1 -1 31 -1 30 -1 6 -1 5 -1 4 -1 3 -1 2 -1 0
2  9 1 10 1 11 1 12 1 2 1 3 1 4 1 5 1 6 1 25 1 26 1 1 1 0
2  26 -1 25 -1 6 -1 5 -1 4 -1 3 -1 2 -1 12 -1 11 -1 10 -1 9 -1 0
2  1 -1 26 -1 25 -1 6 -1 5 -1 4 -1 3 -1 2 -1 12 -1 11 -1 10 -1 9 -1 0
2  35 -1 1 -1 26 -1 25 -1 6 -1 5 -1 4 -1 3 -1 2 -1 12 -1 11 -1 10 -1 9 -1 0
2  4 -1 3 -1 2 -1 0
2  9 1 10 1 11 1 12 1 0
2  30 -1 6 -1 5 -1 4 -1 3 -1 2 -1 0
2  25 -1 6 -1 5 -1 4 -1 3 -1 2 -1 12 -1 11 -1 10 -1 9 -1 0
2  9 1 10 1 11 1 12 1 2 1 3 1 4 1 5 1 6 1 25 1 26 1 1 1 35 1 0
2  9 1 10 1 11 1 12 1 2 1 3 1 4 1 5 1 6 1 35 -1 1 -1 26 -1 25 -1 6 -1 5 -1 4 -1 3 -1 2 -1 12 -1 11 -1 10 -1 9 -1 0
2  1 1 35 1 0
2  35 -1 1 -1 0
2  2 1 3 1 4 1 5 1 6 1 30 1 31 1 1 1 35 1 0
Curve2ds 264
1 257.9841237867119 619.00906562298189 -1 0 
1 0 -14 1 0 
1 -161.18553117841208 -567.65438756838728 1 0 
1 257.9841237867119 -689.09093437701813 0 1 
1 0 4 1 0 
1 -257.98412378671179 -601.00906562298144 1 0 
1 -239.98412378671179 671.09093437701847 0 -1 
1 4 0 0 1 
1 -257.98412378671179 671.09093437701847 1 0 
1 0 4 1 0 
1 -142.06587621328816 -689.09093437701813 1 0 
1 4 0 0 1 
1 142.06587621328822 689.09093437701847 0 -1 
1 0 4 1 0 
1 -257.98412378671179 671.09093437701847 1 0 
7 0 0  8 30 5  0 29.955844122715714  0.19634954084936207 29.955844122715714  0.39269908169967493 30.198178390597604  0.58904862254621548 30.682844867769745  0.78539816339889512 31.389920994464774  0.98174770424247981 32.279521185992053  1.17809724509641 33.295998916928511  1.3744467859455345 34.375921648044226  1.7180584824319183 36.265785978719329  1.8653206380687126 37.075727538303731  2.0125827937057608 37.858905788907123  2.1598449493428689 38.588550275502712  2.3071071049800622 39.239761326872895  2.454369260617252 39.791341859212395  2.6016314162540466 40.227230222056164  2.9697868053466006 41.002108545735211  3.1906800388010197 41.183677561741206  3.4115732722548273 41.047323746272014  3.6324665056999947 40.587959675234742  3.853359739174266 39.83544231185806  4.0742529726194334 38.85214357705263  4.2951462060797949 37.720409469330654  4.7369326729908598 35.337272318278188  4.9578259064437589 34.085867955946014  5.1787191399052972 32.863231245864881  5.3996123733231798 31.764154431351926  5.6205056068283739 30.875951861220528  5.8413988402635368 30.262548866703582  6.0622920737240431 29.955844122715714  6.2831853071795756 29.955844122715714 
 3.1415926535897931 9 4.7123889803847163 7 5.890486225480899 7 7.6576320931251391 7 9.4247779607693793 9
3 -103.98412378671179 671.09093437701847 0 -1 1 0 7.7781745930520216 5.5
1 0 0 1 0 
1 0 -1 1 0 
1 0 4 1 0 
1 -257.98412378671179 671.09093437701847 1 0 
7 0 0  8 30 5  0 29.955844122715714  0.19634954084936207 29.955844122715714  0.3926990816974012 30.198178390597604  0.58904862254667023 30.682844867769745  0.78539816339616664 31.389920994464774  0.98174770424611779 32.279521185992053  1.1780972450951595 33.295998916928511  1.3744467859455345 34.375921648044226  1.7180584824319183 36.265785978719329  1.8653206380690537 37.075727538303731  2.0125827937062155 37.858905788907123  2.1598449493433236 38.588550275502712  2.3071071049802612 39.239761326872895  2.4543692606170815 39.791341859212395  2.6016314162540466 40.227230222056164  2.9697868053466006 41.002108545735211  3.1906800388010197 41.183677561741206  3.4115732722548273 41.047323746272014  3.6324665057145467 40.587959675234742  3.85335973916699 39.83544231185806  4.0742529726212524 38.85214357705263  4.2951462060797949 37.720409469330654  4.7369326729908598 35.337272318278188  4.9578259064464874 34.085867955946014  5.1787191398980212 32.863231245864881  5.3996123733522836 31.764154431351926  5.6205056068174599 30.875951861220528  5.8413988402699033 30.262548866703582  6.0622920737240431 29.955844122715714  6.2831853071795756 29.955844122715714 
 3.1415926535897931 9 4.7123889803847163 7 5.890486225480899 7 7.6576320931251391 7 9.4247779607693793 9
3 -161.98412378671179 671.09093437701847 0 -1 1 0 7.7781745930520216 5.5
1 0 0 1 0 
1 0 -1 1 0 
1 0 4 1 0 
1 -257.98412378671179 671.09093437701847 1 0 
1 4 0 0 1 
1 -221.98412378671179 671.09093437701847 0 -1 
1 0 4 1 0 
1 -257.98412378671179 -601.00906562298144 1 0 
7 0 0  8 30 5  0 40.955844122715689  0.19634954084936207 40.955844122715689  0.39269908169796963 40.71350985475874  0.58904862254894397 40.228843377597514  0.78539816339525714 39.521767250815174  0.98174770424611779 38.632167059433414  1.1780972450956142 37.615689328420558  1.3744467859455138 36.535766597387294  1.7180584824318974 34.645902266712191  1.8653206380691763 33.835960707121203  2.0125827937052847 33.052782456544605  2.1598449493427552 32.323137969939125  2.3071071049803322 31.671926918550525  2.4543692606166534 31.120346386224135  2.6016314162540382 30.68445802337537  2.9697868053465921 29.90957969969633  3.1906800388023839 29.728010683626053  3.4115732722584653 29.864364499066141  3.6324665056999947 30.323728570016101  3.853359739176085 31.07624593359651  4.0742529726226167 32.059544668289163  4.2951462060798171 33.191278776100873  4.7369326729908821 35.574415927153339  4.9578259064446684 36.825820289450348  5.1787191399089352 38.048456999531481  5.3996123733704735 39.147533813986229  5.620505606806546 40.035736384132179  5.8413988402689938 40.649139378685504  6.0622920737240431 40.955844122715689  6.2831853071795756 40.955844122715689 
 0 9 1.5707963267949068 7 2.7488935718910765 7 4.5160394395353318 7 6.2831853071795862 9
3 -193.98412378671179 -601.00906562298144 0 1 -1 0 7.7781745930519719 5.5
1 0 0 1 0 
1 0 -1 1 0 
7 0 0  8 30 5  0 40.955844122715689  0.19634954084936207 40.955844122715689  0.39269908169796963 40.71350985475874  0.58904862254894397 40.228843377597514  0.78539816339525714 39.521767250815174  0.98174770424611779 38.632167059433414  1.1780972450956142 37.615689328420558  1.3744467859455138 36.535766597387294  1.7180584824318974 34.645902266712191  1.8653206380691763 33.835960707121203  2.0125827937052847 33.052782456544605  2.1598449493427552 32.323137969939125  2.3071071049803322 31.671926918550525  2.4543692606166534 31.120346386224135  2.6016314162540382 30.68445802337537  2.9697868053465921 29.90957969969633  3.1906800388023839 29.728010683626053  3.4115732722584653 29.864364499066141  3.6324665056999947 30.323728570016101  3.853359739176085 31.07624593359651  4.0742529726226167 32.059544668289163  4.2951462060798171 33.191278776100873  4.7369326729908821 35.574415927153339  4.9578259064446684 36.825820289450348  5.1787191399089352 38.048456999531481  5.3996123733704735 39.147533813986229  5.620505606806546 40.035736384132179  5.8413988402689938 40.649139378685504  6.0622920737240431 40.955844122715689  6.2831853071795756 40.955844122715689 
 0 9 1.5707963267949068 7 2.7488935718910765 7 4.5160394395353318 7 6.2831853071795862 9
3 -193.98412378671179 -601.00906562298144 0 1 -1 0 7.7781745930519719 5.5
1 0 0 1 0 
1 0 -1 1 0 
1 0 4 1 0 
1 -257.98412378671179 -601.00906562298144 1 0 
7 0 0  8 30 5  0 40.955844122715689  0.19634954084936207 40.955844122715689  0.39269908169865175 40.71350985475874  0.58904862254621548 40.228843377597514  0.78539816339798563 39.521767250815174  0.9817477042452083 38.632167059433414  1.1780972450962963 37.615689328420558  1.3744467859455138 36.535766597387294  1.7180584824318974 34.645902266712191  1.8653206380690057 33.835960707121203  2.0125827937057679 33.052782456544605  2.1598449493432099 32.323137969939125  2.3071071049803749 31.671926918550525  2.4543692606167387 31.120346386224135  2.6016314162540373 30.68445802337537  2.9697868053465908 29.90957969969633  3.1906800388042029 29.728010683626053  3.4115732722584653 29.864364499066141  3.6324665057072707 30.323728570016101  3.853359739176085 31.07624593359651  4.0742529726226167 32.059544668289163  4.2951462060798171 33.191278776100873  4.7369326729908821 35.574415927153339  4.9578259064446684 36.825820289450348  5.1787191399089352 38.048456999531481  5.3996123733704735 39.147533813986229  5.620505606806546 40.035736384132179  5.8413988402689938 40.649139378685504  6.0622920737240431 40.955844122715689  6.2831853071795756 40.955844122715689 
 0 9 1.5707963267949059 7 2.7488935718910752 7 4.51603943953533 7 6.2831853071795862 9
3 -135.98412378671179 -601.00906562298144 0 1 -1 0 7.7781745930519719 5.5
1 0 0 1 0 
1 0 -1 1 0 
7 0 0  8 30 5  0 40.955844122715689  0.19634954084936207 40.955844122715689  0.39269908169865175 40.71350985475874  0.58904862254621548 40.228843377597514  0.78539816339798563 39.521767250815174  0.9817477042452083 38.632167059433414  1.1780972450962963 37.615689328420558  1.3744467859455138 36.535766597387294  1.7180584824318974 34.645902266712191  1.8653206380690057 33.835960707121203  2.0125827937057679 33.052782456544605  2.1598449493432099 32.323137969939125  2.3071071049803749 31.671926918550525  2.4543692606167387 31.120346386224135  2.6016314162540373 30.68445802337537  2.9697868053465908 29.90957969969633  3.1906800388042029 29.728010683626053  3.4115732722584653 29.864364499066141  3.6324665057072707 30.323728570016101  3.853359739176085 31.07624593359651  4.0742529726226167 32.059544668289163  4.2951462060798171 33.191278776100873  4.7369326729908821 35.574415927153339  4.9578259064446684 36.825820289450348  5.1787191399089352 38.048456999531481  5.3996123733704735 39.147533813986229  5.620505606806546 40.035736384132179  5.8413988402689938 40.649139378685504  6.0622920737240431 40.955844122715689  6.2831853071795756 40.955844122715689 
 0 9 1.5707963267949059 7 2.7488935718910752 7 4.51603943953533 7 6.2831853071795862 9
3 -135.98412378671179 -601.00906562298144 0 1 -1 0 7.7781745930519719 5.5
1 0 0 1 0 
1 0 -1 1 0 
1 0 4 1 0 
1 -257.98412378671179 -601.00906562298144 1 0 
1 4 0 0 1 
1 320.91587621328819 -438.03406562298153 0 -1 
1 0 4 1 0 
1 320.91587621328819 -438.03406562298153 1 0 
1 -338.91587621328807 619.00906562298189 0 -1 
3 103.98412378671185 -675.09093437701813 0 1 -1 0 7.7781745930520216 5.5
1 0 0 1 0 
1 0 -18 1 0 
3 103.98412378671185 -689.09093437701813 0 1 -1 0 7.7781745930520225 5.5
1 0 0 1 0 
1 0 -18 1 0 
3 103.98412378671185 -675.09093437701813 0 1 -1 0 7.7781745930520216 5.5
1 0 0 1 0 
1 0 -18 1 0 
3 161.98412378671185 -675.09093437701813 0 1 -1 0 7.7781745930520216 5.5
1 0 0 1 0 
1 0 -18 1 0 
3 161.98412378671185 -689.09093437701813 0 1 -1 0 7.7781745930520225 5.5
1 0 0 1 0 
1 0 -18 1 0 
3 161.98412378671185 -675.09093437701813 0 1 -1 0 7.7781745930520216 5.5
1 0 0 1 0 
1 0 -18 1 0 
3 135.98412378671185 619.00906562298189 0 -1 1 0 7.7781745930519719 5.5
1 0 0 1 0 
1 0 -18 1 0 
3 135.98412378671185 605.00906562298189 0 -1 1 0 7.7781745930519719 5.5
1 0 0 1 0 
1 0 -18 1 0 
3 135.98412378671185 619.00906562298189 0 -1 1 0 7.7781745930519719 5.5
1 0 0 1 0 
1 0 -18 1 0 
3 193.9841237867119 619.00906562298189 0 -1 1 0 7.7781745930519719 5.5
1 0 0 1 0 
1 0 -18 1 0 
3 193.9841237867119 605.00906562298189 0 -1 1 0 7.7781745930519719 5.5
1 0 0 1 0 
1 0 -18 1 0 
3 193.9841237867119 619.00906562298189 0 -1 1 0 7.7781745930519719 5.5
1 0 0 1 0 
1 0 -18 1 0 
1 435.7144688215879 -386.67938756838737 0 -1 
1 180.97499999999991 -14 -1 0 
1 -161.18553117841208 -549.65438756838728 1 0 
1 0 -0 1 0 
1 1290.0999999999999 -14 1 0 
1 -161.18553117841208 -549.65438756838728 0 -1 
1 417.7144688215879 -386.67938756838737 1 0 
1 0 -0 1 0 
1 417.7144688215879 -386.67938756838737 0 -1 
1 0 0 0 1 
1 -161.18553117841208 -549.65438756838728 1 0 
1 0 -0 1 0 
3 -39.185531178412077 -553.65438756838728 0 1 -1 0 7.7781745930519719 5.5
7 0 0  8 23 4  1.030652349118671 32.62741699796959  1.1625861181481147 32.00508665411715  1.2945198871774604 31.326489930143531  1.4264536562073289 30.608133760460305  1.5583874252366741 29.86861392488936  1.6903211942658274 29.127697762877915  1.8222549632953928 28.405205335128542  1.9541887323247886 27.71988596315262  2.284023154898398 26.141388748410488  2.4819238084423887 25.315611383244686  2.6798244619858451 24.667678423473262  2.8777251155188424 24.243970640090993  3.0756257690700295 24.073669613164384  3.2735264226180334 24.163708895241143  3.4714270761634025 24.499144567424061  3.8672283832517338 25.595386817735765  4.0651290367909496 26.356193671541405  4.2630296903571434 27.296971475385362  4.4609303438774077 28.367252113239374  4.6588309974504227 29.502845219903975  4.8567316509670491 30.633826276131003  5.0546323045167494 31.693921482190923  5.2525329580609155 32.62741699796959 
 1.0306523491186923 9 2.086122501354251 7 3.6693277297075721 7 5.2525329580608942 9
1 0 0 1 0 
1 0 -1 1 0 
7 0 0  1 2 2  2.6904605173475868 -4  3.5927247898320012 -4 
 2.6904605173475873 2 3.5927247898319989 2
1 -161.18553117841208 -549.65438756838728 1 0 
1 0 -0 1 0 
3 -97.185531178412077 -553.65438756838728 0 1 -1 0 7.7781745930519719 5.5
7 0 0  8 23 4  1.030652349118671 32.62741699796959  1.1625861181481147 32.00508665411715  1.2945198871778441 31.326489930143531  1.4264536562070944 30.608133760460305  1.5583874252369014 29.86861392488936  1.6903211942664313 29.127697762877915  1.8222549632951797 28.405205335128542  1.9541887323247888 27.71988596315262  2.2840231548983985 26.141388748410488  2.481923808438296 25.315611383244686  2.6798244619931211 24.667678423473262  2.8777251155242993 24.243970640090993  3.0756257690827624 24.073669613164384  3.2735264226162144 24.163708895241143  3.4714270761634025 24.499144567424061  3.8672283832517338 25.595386817735765  4.0651290367909496 26.356193671541405  4.2630296903571434 27.296971475385362  4.4609303438774077 28.367252113239374  4.6588309974504227 29.502845219903975  4.8567316509670491 30.633826276131003  5.0546323045167494 31.693921482190923  5.2525329580609155 32.62741699796959 
 1.0306523491186923 9 2.086122501354251 7 3.6693277297075721 7 5.2525329580608942 9
1 0 0 1 0 
1 0 -1 1 0 
7 0 0  1 2 2  2.6904605173475424 -4  3.5927247898320074 -4 
 2.6904605173475584 2 3.5927247898320065 2
1 -161.18553117841208 -549.65438756838728 1 0 
1 0 -0 1 0 
1 -125.18553117841208 722.44561243161263 0 -1 
1 0 0 0 1 
1 -161.18553117841208 722.44561243161263 1 0 
1 0 -0 1 0 
3 -65.185531178412077 726.44561243161263 0 -1 1 0 7.7781745930520216 5.5
7 0 0  7 14 3  0 24.298989873223331  0.1507814503193643 24.298989873223331  0.30156290063870017 24.444873364136583  0.45234435095841263 24.736638041802507  0.60312580127725823 25.166167235609464  0.75390725159687122 25.717183864155231  0.90468870191618511 26.366888350516504  1.2062516025549139 27.810085803995023  1.3570330528742716 28.603578512161221  1.5078145031930035 29.442169313333579  1.6585959535136681 30.295058536437864  1.8093774038322863 31.129925800443743  1.9601588541517365 31.916182319281013  2.110940304471101 32.627416997969519 
 3.1415926535897931 8 4.1970628058253432 6 5.2525329580608942 8
1 0 0 1 0 
1 0 -1 1 0 
7 0 0  1 2 2  3.1415926535897931 -4  3.5927247898320145 -4 
 3.1415926535897931 2 3.5927247898320163 2
3 -65.185531178412077 726.44561243161263 0 -1 1 0 7.7781745930520216 5.5
7 0 0  7 14 3  4.1722450027084852 32.627416997969519  4.3230264530278495 31.916182319281013  4.4738079033474136 31.129925800436467  4.6245893536663729 30.295058536459692  4.7753708039863554 29.442169313322665  4.9261522543050873 28.603578512165768  5.0769337046246701 27.81008580399503  5.3784966052633987 26.366888350516511  5.5292780555828003 25.71718386415796  5.6800595059019869 25.16616723559855  5.8308409562215715 24.736638041817059  5.9816224065407866 24.444873364125669  6.1324038568602219 24.298989873223331  6.2831853071795862 24.298989873223331 
 1.0306523491186923 8 2.086122501354243 6 3.1415926535897931 8
1 0 0 1 0 
1 0 -1 1 0 
7 0 0  1 2 2  2.6904605173475984 -4  3.1415926535897905 -4 
 2.6904605173476006 2 3.1415926535897931 2
1 -161.18553117841208 722.44561243161263 1 0 
1 0 -0 1 0 
3 -7.1855311784120772 726.44561243161263 0 -1 1 0 7.7781745930520216 5.5
7 0 0  7 14 3  0 24.298989873223331  0.1507814503193643 24.298989873223331  0.3015629006388707 24.444873364136583  0.4523443509578442 24.736638041802507  0.60312580127788351 25.166167235609464  0.75390725159675753 25.717183864155231  0.90468870191618511 26.366888350516504  1.2062516025549139 27.810085803995023  1.3570330528742147 28.603578512161221  1.5078145031934582 29.442169313333579  1.6585959535132133 30.295058536437864  1.8093774038324568 31.129925800443743  1.9601588541517365 31.916182319281013  2.110940304471101 32.627416997969519 
 3.1415926535897931 8 4.1970628058253432 6 5.2525329580608942 8
1 0 0 1 0 
1 0 -1 1 0 
7 0 0  1 2 2  3.1415926535897931 -4  3.592724789831987 -4 
 3.1415926535897931 2 3.5927247898319856 2
3 -7.1855311784120772 726.44561243161263 0 -1 1 0 7.7781745930520216 5.5
7 0 0  7 14 3  4.1722450027084852 32.627416997969519  4.3230264530278495 31.916182319281013  4.4738079033471294 31.129925800436467  4.6245893536661455 30.295058536459692  4.7753708039856733 29.442169313322665  4.9261522543052578 28.603578512165768  5.0769337046246719 27.81008580399503  5.3784966052634005 26.366888350516511  5.5292780555826582 25.71718386415796  5.6800595059022712 25.16616723559855  5.8308409562210599 24.736638041817059  5.9816224065409287 24.444873364125669  6.1324038568602219 24.298989873223331  6.2831853071795862 24.298989873223331 
 1.0306523491186923 8 2.086122501354243 6 3.1415926535897931 8
1 0 0 1 0 
1 0 -1 1 0 
7 0 0  1 2 2  2.6904605173475713 -4  3.1415926535897944 -4 
 2.6904605173475695 2 3.1415926535897931 2
1 -161.18553117841208 722.44561243161263 1 0 
1 0 -0 1 0 
1 238.86446882158793 740.44561243161263 0 -1 
1 0 0 0 1 
1 -161.18553117841208 740.44561243161263 1 0 
1 400.05000000000001 -14 -1 0 
1 0 -14 1 0 
1 -161.18553117841208 740.44561243161263 0 -1 
1 -161.18553117841208 722.44561243161263 1 0 
1 0 -0 1 0 
1 -143.18553117841208 722.44561243161263 0 -1 
1 0 0 0 1 
1 1290.0999999999999 -14 0 -1 
1 0 -0 0 1 
1 18 -0 0 1 
1 0 1272.0999999999999 1 0 
1 18 -0 0 1 
1 0 0 1 0 
1 18 -14 0 -1 
1 0 -0 0 1 
1 400.05000000000001 -0 0 1 
1 0 18 1 0 
7 0 0  5 6 2  4.1722450027084843 32.627416997969519  4.2802737982437256 33.136987807368648  4.3883025937789739 33.6878178529509  4.4963313893142072 34.267526389421448  4.6043601848494484 34.861685747271892  4.7123889803846897 35.455844122715718 
 4.1722450027084852 6 4.7123889803846897 6
3 154 4 0 1 -1 0 7.7781745930519719 5.5
1 6.2831853071795862 -0 0 1 
1 0 -0 0 1 
3 246.05000000000001 0 -0 -1 1 -0 7.7781745930519719 5.5
7 0 0  8 9 2  4.4788552528189136 8.7272077938646202  4.7043965096139981 9.9340115970295528  4.9299377664094877 11.214811221796481  5.1554790232042009 12.476052954465558  5.381020279995731 13.616201535405708  5.606561536792718 14.540763941113255  5.8321027935899323 15.180251997151572  6.0576440503845017 15.5  6.2831853071795862 15.5 
 4.4788552528189136 9 6.2831853071795862 9
3 -103.98412378671179 689.09093437701847 0 -1 1 0 7.7781745930520225 5.5
7 0 0  8 30 5  0 4.5  0.19634954084936207 4.5  0.39269908169819701 4.742334267921251  0.58904862254894397 5.2270007451297715  0.78539816339161916 5.9340768718138861  0.98174770425021052 6.8236770633375272  1.1780972450959553 7.8401547942430625  1.3744467859455343 8.920077525328507  1.7180584824319181 10.809941856003615  1.8653206380687977 11.619883415588889  2.0125827937063718 12.403061666176654  2.1598449493434373 13.132706152780884  2.3071071049801617 13.783917204162947  2.4543692606171668 14.335497736493124  2.6016314162540466 14.771386099340463  2.9697868053466006 15.546264423019501  3.1906800388010197 15.727833439043025  3.4115732722548273 15.591479623566556  3.6324665057145467 15.132115552638425  3.85335973916699 14.379598189108947  4.0742529726212524 13.39629945438719  4.2951462060797949 12.26456534661494  4.7369326729908598 9.8814281955624743  4.9578259064473968 8.6300238332496519  5.1787191398907453 7.4073871230866644  5.3996123733522836 6.308310308635555  5.62050560679927 5.4201077384677774  5.8413988402708128 4.8067047440017632  6.0622920737240431 4.5000000000000009  6.2831853071795756 4.5 
 3.1415926535897931 9 4.7123889803846879 7 5.8904862254808563 7 7.6576320931251178 7 9.4247779607693793 9
1 0 0 1 0 
1 0 -1 1 0 
8 5.8320531709374075 6.7343174434218041
7 0 0  8 30 5  0 4.5  0.19634954084936207 4.5  0.39269908169819701 4.742334267921251  0.58904862254894397 5.2270007451297715  0.78539816339161916 5.9340768718138861  0.98174770425021052 6.8236770633375272  1.1780972450959553 7.8401547942430625  1.3744467859455343 8.920077525328507  1.7180584824319181 10.809941856003615  1.8653206380687977 11.619883415588889  2.0125827937063718 12.403061666176654  2.1598449493434373 13.132706152780884  2.3071071049801617 13.783917204162947  2.4543692606171668 14.335497736493124  2.6016314162540466 14.771386099340463  2.9697868053466006 15.546264423019501  3.1906800388010197 15.727833439043025  3.4115732722548273 15.591479623566556  3.6324665057145467 15.132115552638425  3.85335973916699 14.379598189108947  4.0742529726212524 13.39629945438719  4.2951462060797949 12.26456534661494  4.7369326729908598 9.8814281955624743  4.9578259064473968 8.6300238332496519  5.1787191398907453 7.4073871230866644  5.3996123733522836 6.308310308635555  5.62050560679927 5.4201077384677774  5.8413988402708128 4.8067047440017632  6.0622920737240431 4.5000000000000009  6.2831853071795756 4.5 
 3.1415926535897931 9 4.7123889803846879 7 5.8904862254808563 7 7.6576320931251178 7 9.4247779607693793 9
3 246.05000000000001 0 -0 -1 1 -0 7.7781745930519719 5.5
7 0 0  8 9 2  0 15.5  0.22554125679508411 15.5  0.45108251358954021 15.180251997160667  0.67662377038459454 14.540763941091427  0.90216502717612457 13.616201535442087  1.1277062839758401 12.47605295444373  1.3532475407698712 11.2148112217983  1.5787887975655888 9.9340115970295528  1.8043300543606728 8.7272077938646202 
 0 9 1.8043300543606728 9
7 0 0  5 6 2  1.5707963267948966 35.455844122715718  1.6788251223301374 34.861685747271892  1.7868539178653755 34.267526389421391  1.8948827134006265 33.687817852950957  2.0029115089358602 33.136987807368648  2.110940304471101 32.627416997969519 
 1.5707963267948966 6 2.110940304471101 6
3 154 4 0 1 -1 0 7.7781745930519719 5.5
7 0 0  5 6 2  4.1722450027084843 32.627416997969519  4.2802737982437256 33.136987807368648  4.3883025937789739 33.6878178529509  4.4963313893142072 34.267526389421448  4.6043601848494484 34.861685747271892  4.7123889803846897 35.455844122715718 
 4.1722450027084852 6 4.7123889803846897 6
3 96 4 0 1 -1 0 7.7781745930519719 5.5
1 6.2831853071795862 -0 0 1 
1 0 -0 0 1 
3 304.05000000000001 0 -0 -1 1 -0 7.7781745930519719 5.5
7 0 0  8 9 2  4.4788552528189118 8.7272077938646095  4.7043965096139964 9.9340115970295439  4.9299377664096014 11.214811221794662  5.1554790232037462 12.47605295444373  5.3810202800043712 13.616201535391156  5.6065615367940822 14.540763941120531  5.8321027935899323 15.180251997142477  6.0576440503845017 15.5  6.2831853071795862 15.5 
 4.4788552528189118 9 6.2831853071795862 9
3 -161.98412378671179 689.09093437701847 0 -1 1 0 7.7781745930520225 5.5
7 0 0  8 30 5  0 4.5  0.19634954084936207 4.5  0.3926990816974012 4.742334267921251  0.58904862255030821 5.2270007451297715  0.78539816339161916 5.9340768718138861  0.98174770424930102 6.8236770633375272  1.1780972450948184 7.8401547942430625  1.3744467859455343 8.920077525328507  1.7180584824319181 10.809941856003615  1.8653206380690535 11.619883415588889  2.0125827937062155 12.403061666176654  2.1598449493433236 13.132706152780884  2.3071071049802612 13.783917204162947  2.4543692606170815 14.335497736493124  2.6016314162540466 14.771386099340463  2.9697868053466006 15.546264423019501  3.1906800388010197 15.727833439043025  3.4115732722566463 15.591479623566556  3.6324665057254606 15.132115552638425  3.8533597391615331 14.379598189108947  4.0742529726226167 13.39629945438719  4.2951462060797949 12.26456534661494  4.7369326729908598 9.8814281955624743  4.9578259064464874 8.6300238332496519  5.1787191398980212 7.4073871230866644  5.3996123733377317 6.308310308635555  5.6205056068174599 5.4201077384677774  5.8413988402662653 4.8067047440017632  6.0622920737240431 4.5000000000000009  6.2831853071795756 4.5 
 3.1415926535897931 9 4.7123889803846879 7 5.8904862254808563 7 7.6576320931251178 7 9.4247779607693793 9
1 0 0 1 0 
1 0 -1 1 0 
8 5.8320531709373684 6.734317443421765
7 0 0  8 30 5  0 4.5  0.19634954084936207 4.5  0.3926990816974012 4.742334267921251  0.58904862255030821 5.2270007451297715  0.78539816339161916 5.9340768718138861  0.98174770424930102 6.8236770633375272  1.1780972450948184 7.8401547942430625  1.3744467859455343 8.920077525328507  1.7180584824319181 10.809941856003615  1.8653206380690535 11.619883415588889  2.0125827937062155 12.403061666176654  2.1598449493433236 13.132706152780884  2.3071071049802612 13.783917204162947  2.4543692606170815 14.335497736493124  2.6016314162540466 14.771386099340463  2.9697868053466006 15.546264423019501  3.1906800388010197 15.727833439043025  3.4115732722566463 15.591479623566556  3.6324665057254606 15.132115552638425  3.8533597391615331 14.379598189108947  4.0742529726226167 13.39629945438719  4.2951462060797949 12.26456534661494  4.7369326729908598 9.8814281955624743  4.9578259064464874 8.6300238332496519  5.1787191398980212 7.4073871230866644  5.3996123733377317 6.308310308635555  5.6205056068174599 5.4201077384677774  5.8413988402662653 4.8067047440017632  6.0622920737240431 4.5000000000000009  6.2831853071795756 4.5 
 3.1415926535897931 9 4.7123889803846879 7 5.8904862254808563 7 7.6576320931251178 7 9.4247779607693793 9
3 304.05000000000001 0 -0 -1 1 -0 7.7781745930519719 5.5
7 0 0  8 9 2  0 15.5  0.22554125679508424 15.5  0.45108251358988127 15.180251997144296  0.67662377038686827 14.540763941156911  0.90216502717703406 13.616201535369328  1.1277062839762948 12.47605295448011  1.3532475407698712 11.214811221781929  1.5787887975655894 9.9340115970295493  1.8043300543606737 8.7272077938646149 
 0 9 1.804330054360674 9
7 0 0  5 6 2  1.5707963267948966 35.455844122715718  1.6788251223301374 34.861685747271892  1.7868539178653755 34.267526389421391  1.8948827134006265 33.687817852950957  2.0029115089358602 33.136987807368648  2.110940304471101 32.627416997969519 
 1.5707963267948966 6 2.110940304471101 6
3 96 4 0 1 -1 0 7.7781745930519719 5.5
1 0 0 1 0 
1 36 -0 0 1 
1 36 -0 0 1 
1 0 1272.0999999999999 1 0 
7 0 0  5 6 2  1.5707963267948759 35.455844122715803  1.4627675312596335 34.86168574727197  1.3547387357244087 34.267526389421676  1.2467099401891648 33.687817852951014  1.1386811446539113 33.136987807368726  1.030652349118669 32.62741699796959 
 1.5707963267948966 6 2.1109403044711081 6
3 64 4 0 1 -1 0 7.7781745930519719 5.5
8 5.832053170937388 6.2831853071795862
7 0 0  8 30 5  0 15.5  0.19634954084936207 15.5  0.39269908169762857 15.257665732073292  0.58904862254848922 14.772999254826573  0.78539816339616664 14.065923128160648  0.9817477042452083 13.176322936604265  1.1780972450957279 12.159845205751481  1.3744467859455138 11.079922474671605  1.7180584824318974 9.1900581439964952  1.8653206380684941 8.3801165844099454  2.0125827937066489 7.5969383338267278  2.1598449493428689 6.8672938472222995  2.3071071049791527 6.216082795837309  2.4543692606174208 5.6645022635074227  2.6016314162540382 5.2286139006596812  2.9697868053465921 4.453735576980641  3.1906800388010197 4.2721665609587944  3.4115732722548273 4.4085203763715981  3.6324665056963568 4.8678844473615754  3.85335973916699 5.6204018108437594  4.0742529726226167 6.6037005456237239  4.2951462060798171 7.7354346533851848  4.7369326729908821 10.11857180443765  4.9578259064437589 11.369976166730339  5.1787191398980212 12.592612876942439  5.3996123733522836 13.691689691317151  5.620505606810184 14.579892261543137  5.8413988402644463 15.193295255981866  6.0622920737240431 15.5  6.2831853071795756 15.5 
 0 9 1.5707963267948961 7 2.7488935718910681 7 4.5160394395353265 7 6.2831853071795862 9
3 -193.98412378671179 -619.00906562298144 0 1 -1 0 7.7781745930519719 5.5
7 0 0  8 30 5  0 15.5  0.19634954084936207 15.5  0.39269908169762857 15.257665732073292  0.58904862254848922 14.772999254826573  0.78539816339616664 14.065923128160648  0.9817477042452083 13.176322936604265  1.1780972450957279 12.159845205751481  1.3744467859455138 11.079922474671605  1.7180584824318974 9.1900581439964952  1.8653206380684941 8.3801165844099454  2.0125827937066489 7.5969383338267278  2.1598449493428689 6.8672938472222995  2.3071071049791527 6.216082795837309  2.4543692606174208 5.6645022635074227  2.6016314162540382 5.2286139006596812  2.9697868053465921 4.453735576980641  3.1906800388010197 4.2721665609587944  3.4115732722548273 4.4085203763715981  3.6324665056963568 4.8678844473615754  3.85335973916699 5.6204018108437594  4.0742529726226167 6.6037005456237239  4.2951462060798171 7.7354346533851848  4.7369326729908821 10.11857180443765  4.9578259064437589 11.369976166730339  5.1787191398980212 12.592612876942439  5.3996123733522836 13.691689691317151  5.620505606810184 14.579892261543137  5.8413988402644463 15.193295255981866  6.0622920737240431 15.5  6.2831853071795756 15.5 
 0 9 1.5707963267948961 7 2.7488935718910681 7 4.5160394395353265 7 6.2831853071795862 9
1 0 0 1 0 
1 0 -1 1 0 
3 64 -1.1368683772161603e-13 0 -1 1 0 7.7781745930519719 5.5
7 0 0  8 16 3  1.3372625992285925 8.7272077938620214  1.5628038560237418 9.9340115970271547  1.7883451128188881 11.214811221796481  2.0138863696101907 12.476052954421903  2.2394276264058135 13.616201535507571  2.4649688832014363 14.540763941113255  2.690510140000697 15.180251997151572  2.9160513967946438 15.500000000000114  3.3671339103849425 15.500000000000114  3.5926751671763668 15.180251997151572  3.8182164239788108 14.540763941171463  4.0437576807416917 13.616201535442087  4.2692989375755133 12.476052954523766  4.4948401943565841 11.214811221796481  4.720381451155844 9.9340115970271547  4.9459227079509933 8.7272077938620214 
 4.4788552528183905 9 6.2831853071795862 7 8.0875153615407811 9
3 -193.98412378671179 -619.00906562298144 0 1 -1 0 7.7781745930519719 5.5
7 0 0  8 30 5  0 15.5  0.19634954084936207 15.5  0.39269908169762857 15.257665732073292  0.58904862254848922 14.772999254826573  0.78539816339616664 14.065923128160648  0.9817477042452083 13.176322936604265  1.1780972450957279 12.159845205751481  1.3744467859455138 11.079922474671605  1.7180584824318974 9.1900581439964952  1.8653206380684941 8.3801165844099454  2.0125827937066489 7.5969383338267278  2.1598449493428689 6.8672938472222995  2.3071071049791527 6.216082795837309  2.4543692606174208 5.6645022635074227  2.6016314162540382 5.2286139006596812  2.9697868053465921 4.453735576980641  3.1906800388010197 4.2721665609587944  3.4115732722548273 4.4085203763715981  3.6324665056963568 4.8678844473615754  3.85335973916699 5.6204018108437594  4.0742529726226167 6.6037005456237239  4.2951462060798171 7.7354346533851848  4.7369326729908821 10.11857180443765  4.9578259064437589 11.369976166730339  5.1787191398980212 12.592612876942439  5.3996123733522836 13.691689691317151  5.620505606810184 14.579892261543137  5.8413988402644463 15.193295255981866  6.0622920737240431 15.5  6.2831853071795756 15.5 
 0 9 1.5707963267948961 7 2.7488935718910681 7 4.5160394395353265 7 6.2831853071795862 9
1 0 0 1 0 
1 0 -1 1 0 
8 0 0.45113213624219795
7 0 0  8 30 5  0 15.5  0.19634954084936207 15.5  0.39269908169762857 15.257665732073292  0.58904862254848922 14.772999254826573  0.78539816339616664 14.065923128160648  0.9817477042452083 13.176322936604265  1.1780972450957279 12.159845205751481  1.3744467859455138 11.079922474671605  1.7180584824318974 9.1900581439964952  1.8653206380684941 8.3801165844099454  2.0125827937066489 7.5969383338267278  2.1598449493428689 6.8672938472222995  2.3071071049791527 6.216082795837309  2.4543692606174208 5.6645022635074227  2.6016314162540382 5.2286139006596812  2.9697868053465921 4.453735576980641  3.1906800388010197 4.2721665609587944  3.4115732722548273 4.4085203763715981  3.6324665056963568 4.8678844473615754  3.85335973916699 5.6204018108437594  4.0742529726226167 6.6037005456237239  4.2951462060798171 7.7354346533851848  4.7369326729908821 10.11857180443765  4.9578259064437589 11.369976166730339  5.1787191398980212 12.592612876942439  5.3996123733522836 13.691689691317151  5.620505606810184 14.579892261543137  5.8413988402644463 15.193295255981866  6.0622920737240431 15.5  6.2831853071795756 15.5 
 0 9 1.5707963267948961 7 2.7488935718910681 7 4.5160394395353265 7 6.2831853071795862 9
1 6.2831853071795862 -0 0 1 
1 0 -0 0 1 
7 0 0  5 6 2  5.2525329580609164 32.62741699796959  5.1445041625256742 33.136987807368726  5.0364753669904303 33.687817852951014  4.9284465714551899 34.267526389421676  4.8204177759199522 34.86168574727197  4.7123889803847101 35.455844122715803 
 4.1722450027084781 6 4.7123889803846897 6
3 64 4 0 1 -1 0 7.7781745930519719 5.5
7 0 0  5 6 2  1.5707963267948759 35.455844122715803  1.4627675312596335 34.86168574727197  1.3547387357244087 34.267526389421676  1.2467099401891613 33.687817852951014  1.138681144653912 33.136987807368726  1.0306523491186697 32.62741699796959 
 1.5707963267948966 6 2.1109403044711081 6
3 122 4 0 1 -1 0 7.7781745930519719 5.5
8 5.832053170937388 6.2831853071795862
7 0 0  8 30 5  0 15.5  0.19634954084936207 15.5  0.39269908169887913 15.257665732073292  0.58904862254803447 14.772999254826573  0.78539816339707613 14.065923128160648  0.98174770424566304 13.176322936604265  1.1780972450965237 12.159845205751481  1.3744467859455138 11.079922474671605  1.7180584824318974 9.1900581439964952  1.8653206380690484 8.3801165844099454  2.0125827937060734 7.5969383338267278  2.1598449493433236 6.8672938472222995  2.3071071049802327 6.216082795837309  2.4543692606167387 5.6645022635074227  2.6016314162540373 5.2286139006596812  2.9697868053465908 4.453735576980641  3.1906800388010197 4.2721665609587944  3.4115732722548273 4.4085203763715981  3.6324665056963568 4.8678844473615754  3.85335973916699 5.6204018108437594  4.0742529726226167 6.6037005456237239  4.2951462060798171 7.7354346533851848  4.7369326729908821 10.11857180443765  4.9578259064437589 11.369976166730339  5.1787191398980212 12.592612876942439  5.3996123733522836 13.691689691317151  5.620505606810184 14.579892261543137  5.8413988402644463 15.193295255981866  6.0622920737240431 15.5  6.2831853071795756 15.5 
 0 9 1.5707963267948954 7 2.7488935718910672 7 4.5160394395353265 7 6.2831853071795862 9
3 -135.98412378671179 -619.00906562298144 0 1 -1 0 7.7781745930519719 5.5
7 0 0  8 30 5  0 15.5  0.19634954084936207 15.5  0.39269908169887913 15.257665732073292  0.58904862254803447 14.772999254826573  0.78539816339707613 14.065923128160648  0.98174770424566304 13.176322936604265  1.1780972450965237 12.159845205751481  1.3744467859455138 11.079922474671605  1.7180584824318974 9.1900581439964952  1.8653206380690484 8.3801165844099454  2.0125827937060734 7.5969383338267278  2.1598449493433236 6.8672938472222995  2.3071071049802327 6.216082795837309  2.4543692606167387 5.6645022635074227  2.6016314162540373 5.2286139006596812  2.9697868053465908 4.453735576980641  3.1906800388010197 4.2721665609587944  3.4115732722548273 4.4085203763715981  3.6324665056963568 4.8678844473615754  3.85335973916699 5.6204018108437594  4.0742529726226167 6.6037005456237239  4.2951462060798171 7.7354346533851848  4.7369326729908821 10.11857180443765  4.9578259064437589 11.369976166730339  5.1787191398980212 12.592612876942439  5.3996123733522836 13.691689691317151  5.620505606810184 14.579892261543137  5.8413988402644463 15.193295255981866  6.0622920737240431 15.5  6.2831853071795756 15.5 
 0 9 1.5707963267948954 7 2.7488935718910672 7 4.5160394395353265 7 6.2831853071795862 9
1 0 0 1 0 
1 0 -1 1 0 
3 122 -1.1368683772161603e-13 0 -1 1 0 7.7781745930519719 5.5
7 0 0  8 16 3  1.3372625992285925 8.7272077938620214  1.5628038560237418 9.9340115970271547  1.7883451128184333 11.214811221796481  2.0138863696056433 12.476052954421903  2.2394276264149084 13.616201535507571  2.4649688831959793 14.540763941113255  2.6905101399993328 15.180251997151572  2.9160513967946438 15.500000000000114  3.3671339103849425 15.500000000000114  3.5926751671763668 15.180251997151572  3.8182164239788108 14.540763941171463  4.0437576807416917 13.616201535442087  4.2692989375755133 12.476052954523766  4.4948401943565841 11.214811221796481  4.720381451155844 9.9340115970271547  4.9459227079509933 8.7272077938620214 
 4.4788552528183905 9 6.2831853071795862 7 8.0875153615407811 9
3 -135.98412378671179 -619.00906562298144 0 1 -1 0 7.7781745930519719 5.5
7 0 0  8 30 5  0 15.5  0.19634954084936207 15.5  0.39269908169887913 15.257665732073292  0.58904862254803447 14.772999254826573  0.78539816339707613 14.065923128160648  0.98174770424566304 13.176322936604265  1.1780972450965237 12.159845205751481  1.3744467859455138 11.079922474671605  1.7180584824318974 9.1900581439964952  1.8653206380690484 8.3801165844099454  2.0125827937060734 7.5969383338267278  2.1598449493433236 6.8672938472222995  2.3071071049802327 6.216082795837309  2.4543692606167387 5.6645022635074227  2.6016314162540373 5.2286139006596812  2.9697868053465908 4.453735576980641  3.1906800388010197 4.2721665609587944  3.4115732722548273 4.4085203763715981  3.6324665056963568 4.8678844473615754  3.85335973916699 5.6204018108437594  4.0742529726226167 6.6037005456237239  4.2951462060798171 7.7354346533851848  4.7369326729908821 10.11857180443765  4.9578259064437589 11.369976166730339  5.1787191398980212 12.592612876942439  5.3996123733522836 13.691689691317151  5.620505606810184 14.579892261543137  5.8413988402644463 15.193295255981866  6.0622920737240431 15.5  6.2831853071795756 15.5 
 0 9 1.5707963267948954 7 2.7488935718910672 7 4.5160394395353265 7 6.2831853071795862 9
1 0 0 1 0 
1 0 -1 1 0 
8 0 0.45113213624219795
7 0 0  8 30 5  0 15.5  0.19634954084936207 15.5  0.39269908169887913 15.257665732073292  0.58904862254803447 14.772999254826573  0.78539816339707613 14.065923128160648  0.98174770424566304 13.176322936604265  1.1780972450965237 12.159845205751481  1.3744467859455138 11.079922474671605  1.7180584824318974 9.1900581439964952  1.8653206380690484 8.3801165844099454  2.0125827937060734 7.5969383338267278  2.1598449493433236 6.8672938472222995  2.3071071049802327 6.216082795837309  2.4543692606167387 5.6645022635074227  2.6016314162540373 5.2286139006596812  2.9697868053465908 4.453735576980641  3.1906800388010197 4.2721665609587944  3.4115732722548273 4.4085203763715981  3.6324665056963568 4.8678844473615754  3.85335973916699 5.6204018108437594  4.0742529726226167 6.6037005456237239  4.2951462060798171 7.7354346533851848  4.7369326729908821 10.11857180443765  4.9578259064437589 11.369976166730339  5.1787191398980212 12.592612876942439  5.3996123733522836 13.691689691317151  5.620505606810184 14.579892261543137  5.8413988402644463 15.193295255981866  6.0622920737240431 15.5  6.2831853071795756 15.5 
 0 9 1.5707963267948954 7 2.7488935718910672 7 4.5160394395353265 7 6.2831853071795862 9
1 6.2831853071795862 -0 0 1 
1 0 -0 0 1 
7 0 0  5 6 2  5.2525329580609164 32.62741699796959  5.1445041625256742 33.136987807368726  5.0364753669904303 33.687817852951014  4.9284465714551899 34.267526389421676  4.8204177759199522 34.86168574727197  4.7123889803847101 35.455844122715803 
 4.1722450027084781 6 4.7123889803846897 6
3 122 4 0 1 -1 0 7.7781745930519719 5.5
1 0 162.97499999999991 1 0 
1 578.89999999999998 -0 0 1 
1 0 -0 0 1 
1 0 0 1 0 
1 3.1415926535897931 0 0 -1 
1 3.1415926535897931 0 0 -1 
1 2.6904605173475837 0 0 -1 
1 6.7343174434218041 0 0 -1 
1 5.8320531709374075 0 0 -1 
1 3.5927247898319785 0 0 -1 
1 3.1415926535897931 0 0 -1 
1 3.1415926535897931 0 0 -1 
1 2.6904605173476077 0 0 -1 
1 6.734317443421765 0 0 -1 
1 5.8320531709373684 0 0 -1 
1 3.5927247898320025 0 0 -1 
1 5.832053170937388 0 0 -1 
1 3.592724789831991 0 0 -1 
1 6.2831853071795862 0 0 -1 
1 0 0 0 -1 
1 2.6904605173475953 0 0 -1 
1 0.45113213624219795 0 0 -1 
1 5.832053170937388 0 0 -1 
1 3.592724789831991 0 0 -1 
1 6.2831853071795862 0 0 -1 
1 0 0 0 -1 
1 2.6904605173475953 0 0 -1 
1 0.45113213624219795 0 0 -1 
Curves 109
1 596.89999999999998 1311.9890873012275 1 -1 0 1.1102230246251565e-16 
1 0 1311.9890873012275 1.1368683772161603e-13 0 0 1 
1 586 1308.0999999999999 0 -0 -0 1 
1 596.89999999999998 1311.9890873012275 0 0 0 1 
1 596.89999999999998 3.8890873012275202 1 0 1 0 
1 582 1290.0999999999999 0 -0 -0 1 
1 582 18 18 -0 1 -0 
1 582 18 0 -0 -0 1 
1 196.84999999999991 3.8890873012275202 1 1 -0 -1.1102230246251565e-16 
1 582 0 400.05000000000001 -0 1 -0 
1 582 18 0 -0 -0 1 
3 582 18 154 1 0 0 -0 1 0 0 -0 1 7.7781745930520225 5.5
1 582 18 0 -0 -0 1 
3 582 18 96 1 0 0 -0 1 0 0 -0 1 7.7781745930520225 5.5
1 582 18 0 -0 -0 1 
1 582 18 36 -0 1 -0 
1 582 1290.0999999999999 0 -0 -0 1 
3 582 1290.0999999999999 64 1 0 0 0 -1 0 0 0 -1 7.7781745930520225 5.5
3 582 1290.0999999999999 64 1 0 0 0 -1 0 0 0 -1 7.7781745930520225 5.5
1 582 1290.0999999999999 0 -0 -0 1 
3 582 1290.0999999999999 122 1 0 0 0 -1 0 0 0 -1 7.7781745930520225 5.5
3 582 1290.0999999999999 122 1 0 0 0 -1 0 0 0 -1 7.7781745930520225 5.5
1 582 1290.0999999999999 0 -0 -0 1 
1 582 1127.125 578.89999999999998 -0 1 -0 
1 582 1127.125 578.89999999999998 -0 -0 1 
1 600 1308.0999999999999 596.89999999999998 -0 -1 -0 
3 586 14 154 1 0 0 -0 1 0 0 -0 1 7.7781745930520225 5.5
3 600 0 154 1 0 0 -0 1 0 0 -0 1 7.7781745930520225 5.5
3 586 14 154 1 0 0 -0 1 0 0 -0 1 7.7781745930520225 5.5
3 586 14 96 1 0 0 -0 1 0 0 -0 1 7.7781745930520225 5.5
3 600 0 96 1 0 0 -0 1 0 0 -0 1 7.7781745930520225 5.5
3 586 14 96 1 0 0 -0 1 0 0 -0 1 7.7781745930520225 5.5
3 600 1308.0999999999999 122 1 0 0 0 -1 0 0 0 -1 7.7781745930520225 5.5
3 586 1294.0999999999999 122 1 0 0 0 -1 0 0 0 -1 7.7781745930520225 5.5
3 600 1308.0999999999999 122 1 0 0 0 -1 0 0 0 -1 7.7781745930520225 5.5
3 600 1308.0999999999999 64 1 0 0 0 -1 0 0 0 -1 7.7781745930520225 5.5
3 586 1294.0999999999999 64 1 0 0 0 -1 0 0 0 -1 7.7781745930520225 5.5
3 600 1308.0999999999999 64 1 0 0 0 -1 0 0 0 -1 7.7781745930520225 5.5
1 0 1131.0140873012276 1.1368683772161603e-13 0 0 1 
1 586 1127.125 596.89999999999998 -0 1 -0 
1 586 1290.0999999999999 0 -0 -0 1 
1 586 1290.0999999999999 0 -0 1 -0 
1 586 1127.125 578.89999999999998 -0 -0 1 
1 586 1127.125 578.89999999999998 -0 1 -0 
1 586 1290.0999999999999 0 -0 -0 1 
3 586 1294.0999999999999 122 1 0 0 0 -1 0 0 0 -1 7.7781745930520225 5.5
1 586 1290.0999999999999 0 -0 -0 1 
3 586 1294.0999999999999 64 1 0 0 0 -1 0 0 0 -1 7.7781745930520225 5.5
1 586 1290.0999999999999 0 -0 -0 1 
1 586 18 36 -0 1 -0 
1 586 18 0 -0 -0 1 
3 586 14 96 1 0 0 -0 1 0 0 -0 1 7.7781745930520225 5.5
3 586 14 96 1 0 0 -0 1 0 0 -0 1 7.7781745930520225 5.5
1 586 18 0 -0 -0 1 
3 586 14 154 1 0 0 -0 1 0 0 -0 1 7.7781745930520225 5.5
3 586 14 154 1 0 0 -0 1 0 0 -0 1 7.7781745930520225 5.5
1 586 18 0 -0 -0 1 
1 586 0 400.05000000000001 -0 1 -0 
1 586 0 0 -0 -0 1 
1 586 0 0 -0 1 -0 
1 586 18 0 -0 -0 1 
1 586 18 18 -0 1 -0 
1 586 1290.0999999999999 0 -1 -0 -0 
1 586 1290.0999999999999 18 -1 -0 -0 
1 586 18 18 -1 -0 -0 
1 586 18 0 -1 -0 -0 
1 596.89999999999998 3.8890873012275207 0 0 0 1 
1 196.84999999999991 3.8890873012275207 0 0 0 1 
1 586 18 400.05000000000001 -1 -0 -0 
3 582 18 154 0 -1 0 -1 -0 0 0 -0 -1 7.7781745930520225 5.5
1 603.18198051533943 -10.960155108391486 154 -0.70710678118654757 0.70710678118654757 -0 
3 600 0 154 0 -1 0 -1 -0 0 0 -0 -1 7.7781745930520225 5.5
3 600 0 154 1 0 0 -0 1 0 0 -0 1 7.7781745930520225 5.5
3 600 0 154 0 -1 0 -1 -0 0 0 -0 -1 7.7781745930520225 5.5
3 582 18 154 0 -1 0 -1 -0 0 0 -0 -1 7.7781745930520225 5.5
3 582 18 96 0 -1 0 -1 -0 0 0 -0 -1 7.7781745930520225 5.5
1 603.18198051533943 -10.960155108391486 96 -0.70710678118654757 0.70710678118654757 -0 
3 600 0 96 0 -1 0 -1 -0 0 0 -0 -1 7.7781745930520225 5.5
3 600 0 96 1 0 0 -0 1 0 0 -0 1 7.7781745930520225 5.5
3 600 0 96 0 -1 0 -1 -0 0 0 -0 -1 7.7781745930520225 5.5
3 582 18 96 0 -1 0 -1 -0 0 0 -0 -1 7.7781745930520225 5.5
1 586 18 36 -1 -0 -0 
1 586 1290.0999999999999 36 -1 -0 -0 
3 582 1290.0999999999999 64 0 -1 0 -1 -0 0 0 -0 -1 7.7781745930520225 5.5
3 600 1308.0999999999999 64 1 0 0 0 -1 0 0 0 -1 7.7781745930520225 5.5
3 599.99999999999989 1308.0999999999999 64 -0 1 0 -1 0 -0 -0 -0 1 7.7781745930520225 5.5
3 600 1308.0999999999999 64 1 0 0 0 -1 0 0 0 -1 7.7781745930520225 5.5
1 610.96015510839152 1311.2819805153395 64 -0.70710678118654757 -0.70710678118654757 -0 
3 582 1290.0999999999999 64 0 -1 0 -1 -0 0 0 -0 -1 7.7781745930520225 5.5
3 582 1290.0999999999999 122 0 -1 0 -1 -0 0 0 -0 -1 7.7781745930520225 5.5
3 600 1308.0999999999999 122 1 0 0 0 -1 0 0 0 -1 7.7781745930520225 5.5
3 599.99999999999989 1308.0999999999999 122 -0 1 0 -1 0 -0 -0 -0 1 7.7781745930520225 5.5
3 600 1308.0999999999999 122 1 0 0 0 -1 0 0 0 -1 7.7781745930520225 5.5
1 610.96015510839152 1311.2819805153395 122 -0.70710678118654757 -0.70710678118654757 -0 
3 582 1290.0999999999999 122 0 -1 0 -1 -0 0 0 -0 -1 7.7781745930520225 5.5
1 586 1290.0999999999999 578.89999999999998 -1 -0 -0 
1 586 1127.125 578.89999999999998 -1 -0 -0 
1 442.89999999999992 10.110912708175494 0 0 0 1 
1 440.50208423834346 10.889087301227475 2.2204460492503131e-16 0 0 1 
1 445.29791576165616 10.889087301227555 -2.2204460492503131e-16 0 0 1 
1 500.89999999999992 10.110912708175494 0 0 0 1 
1 498.50208423834368 10.889087301227555 2.2204460492503131e-16 0 0 1 
1 503.29791576165638 10.889087301227473 -2.2204460492503131e-16 0 0 1 
1 472.50208423834357 1304.9890873012275 2.2204460492503131e-16 0 0 1 
1 474.89999999999992 1304.2109127081756 0 0 0 1 
1 477.29791576165627 1304.9890873012275 -2.2204460492503131e-16 0 0 1 
1 530.50208423834363 1304.9890873012275 2.2204460492503131e-16 0 0 1 
1 532.89999999999998 1304.2109127081756 0 0 0 1 
1 535.29791576165633 1304.9890873012275 -2.2204460492503131e-16 0 0 1 
Polygon3D 0
PolygonOnTriangulations 0
Surfaces 60
1 596.89999999999998 1311.9890873012275 0 0 -1 0 -1 0 1.1102230246251565e-16 -1.1102230246251565e-16 -0 -1 
1 338.91587621328807 692.98002167824563 1.0000000000000309 0 0 1 1 0 -0 -0 1 0 
1 600 1308.0999999999999 0 -0 -1 -0 -0 0 1 1 -0 0 
1 586 740.44561243161263 161.18553117841208 -1 -0 -0 -0 0 1 -0 -1 0 
1 586 1290.0999999999999 0 -0 1 -0 -0 0 1 -1 -0 -0 
1 564 689.09093437701847 257.98412378671179 -1 -0 -0 -0 0 1 -0 -1 0 
1 586 18 18 -0 -0 1 -1 0 -0 -0 1 0 
1 586 18 0 -0 1 -0 -0 0 1 -1 -0 -0 
1 586 0 400.05000000000001 -0 -0 1 -1 0 -0 -0 1 0 
1 564 689.09093437701847 257.98412378671179 -1 -0 -0 -0 0 1 -0 -1 0 
1 586 18 0 -0 1 -0 -0 0 1 -1 -0 -0 
2 607.07106781186542 -7.0710678118654746 154 -0.70710678118654757 0.70710678118654757 -0 -0.70710678118654757 -0.70710678118654757 -0 0 -0 -1 5.5
6 -0 -0 -1 
3 442.89999999999992 21.889087301227519 0 1.1102230246251565e-16 -0 1 0 1 0 -1 0 1.1102230246251565e-16 7.7781745930520225 5.5
1 586 18 0 -0 1 -0 -0 0 1 -1 -0 -0 
2 607.07106781186542 -7.0710678118654746 96 -0.70710678118654757 0.70710678118654757 -0 -0.70710678118654757 -0.70710678118654757 -0 0 -0 -1 5.5
6 -0 -0 -1 
3 500.89999999999992 21.889087301227519 0 1.1102230246251565e-16 -0 1 0 1 0 -1 0 1.1102230246251565e-16 7.7781745930520225 5.5
1 586 18 0 -0 1 -0 -0 0 1 -1 -0 -0 
1 586 18 36 -0 -0 1 -1 0 -0 -0 1 0 
1 586 1290.0999999999999 0 -0 1 -0 -0 0 1 -1 -0 -0 
2 607.07106781186542 1315.1710678118654 64 -0.70710678118654757 -0.70710678118654757 -0 0.70710678118654757 -0.70710678118654757 0 0 -0 -1 5.5
6 -0 -0 -1 
3 532.89999999999998 1293.9890873012275 0 1.1102230246251565e-16 0 1 0 -1 0 1 0 -1.1102230246251565e-16 7.7781745930520225 5.5
6 -0 -0 -1 
3 532.89999999999998 1293.9890873012275 0 1.1102230246251565e-16 0 1 0 -1 0 1 0 -1.1102230246251565e-16 7.7781745930520225 5.5
1 586 1290.0999999999999 0 -0 1 -0 -0 0 1 -1 -0 -0 
2 607.07106781186542 1315.1710678118654 122 -0.70710678118654757 -0.70710678118654757 -0 0.70710678118654757 -0.70710678118654757 0 0 -0 -1 5.5
6 -0 -0 -1 
3 474.89999999999992 1293.9890873012275 0 1.1102230246251565e-16 0 1 0 -1 0 1 0 -1.1102230246251565e-16 7.7781745930520225 5.5
6 -0 -0 -1 
3 474.89999999999992 1293.9890873012275 0 1.1102230246251565e-16 0 1 0 -1 0 1 0 -1.1102230246251565e-16 7.7781745930520225 5.5
1 586 1290.0999999999999 0 -0 1 -0 -0 0 1 -1 -0 -0 
1 586 1127.125 578.89999999999998 -0 -0 1 -1 0 -0 -0 1 0 
1 586 1127.125 578.89999999999998 -0 1 -0 -0 0 1 -1 -0 -0 
6 -0 -0 -1 
3 442.89999999999992 17.889087301227519 0 1.1102230246251565e-16 -0 1 0 1 0 -1 0 1.1102230246251565e-16 7.7781745930520225 5.5
6 -0 -0 -1 
3 442.89999999999992 3.8890873012275202 0 1.1102230246251565e-16 -0 1 0 1 0 -1 0 1.1102230246251565e-16 7.7781745930520225 5.5
6 -0 -0 -1 
3 442.89999999999992 17.889087301227519 0 1.1102230246251565e-16 -0 1 0 1 0 -1 0 1.1102230246251565e-16 7.7781745930520225 5.5
6 -0 -0 -1 
3 500.89999999999992 17.889087301227519 0 1.1102230246251565e-16 -0 1 0 1 0 -1 0 1.1102230246251565e-16 7.7781745930520225 5.5
6 -0 -0 -1 
3 500.89999999999992 3.8890873012275202 0 1.1102230246251565e-16 -0 1 0 1 0 -1 0 1.1102230246251565e-16 7.7781745930520225 5.5
6 -0 -0 -1 
3 500.89999999999992 17.889087301227519 0 1.1102230246251565e-16 -0 1 0 1 0 -1 0 1.1102230246251565e-16 7.7781745930520225 5.5
6 -0 -0 -1 
3 474.89999999999992 1311.9890873012275 0 1.1102230246251565e-16 0 1 0 -1 0 1 0 -1.1102230246251565e-16 7.7781745930520225 5.5
6 -0 -0 -1 
3 474.89999999999992 1297.9890873012275 0 1.1102230246251565e-16 0 1 0 -1 0 1 0 -1.1102230246251565e-16 7.7781745930520225 5.5
6 -0 -0 -1 
3 474.89999999999992 1311.9890873012275 0 1.1102230246251565e-16 0 1 0 -1 0 1 0 -1.1102230246251565e-16 7.7781745930520225 5.5
6 -0 -0 -1 
3 532.89999999999998 1311.9890873012275 0 1.1102230246251565e-16 0 1 0 -1 0 1 0 -1.1102230246251565e-16 7.7781745930520225 5.5
6 -0 -0 -1 
3 532.89999999999998 1297.9890873012275 0 1.1102230246251565e-16 0 1 0 -1 0 1 0 -1.1102230246251565e-16 7.7781745930520225 5.5
6 -0 -0 -1 
3 532.89999999999998 1311.9890873012275 0 1.1102230246251565e-16 0 1 0 -1 0 1 0 -1.1102230246251565e-16 7.7781745930520225 5.5
1 0 1311.9890873012275 1.1368683772161603e-13 1 0 -0 0 -1 0 0 -0 -1 
1 600 1308.0999999999999 596.89999999999998 -0 -0 -1 0 -1 0 1 -0 -0 
1 600 0 0 -0 -0 1 -0 1 0 1 -0 0 
6 -0 -0 -1 
3 474.89999999999992 1297.9890873012275 0 1.1102230246251565e-16 0 1 0 -1 0 1 0 -1.1102230246251565e-16 7.7781745930520225 5.5
6 -0 -0 -1 
3 532.89999999999998 1297.9890873012275 0 1.1102230246251565e-16 0 1 0 -1 0 1 0 -1.1102230246251565e-16 7.7781745930520225 5.5
6 -0 -0 -1 
3 500.89999999999992 17.889087301227519 0 1.1102230246251565e-16 -0 1 0 1 0 -1 0 1.1102230246251565e-16 7.7781745930520225 5.5
6 -0 -0 -1 
3 500.89999999999992 17.889087301227519 0 1.1102230246251565e-16 -0 1 0 1 0 -1 0 1.1102230246251565e-16 7.7781745930520225 5.5
6 -0 -0 -1 
3 442.89999999999992 17.889087301227519 0 1.1102230246251565e-16 -0 1 0 1 0 -1 0 1.1102230246251565e-16 7.7781745930520225 5.5
6 -0 -0 -1 
3 442.89999999999992 17.889087301227519 0 1.1102230246251565e-16 -0 1 0 1 0 -1 0 1.1102230246251565e-16 7.7781745930520225 5.5
1 600 0 400.05000000000001 -0 1 -0 0 -0 -1 1 0 -0 
1 596.89999999999998 3.8890873012275207 0 -1 0 0 0 1 0 0 0 -1 
1 196.84999999999991 3.8890873012275202 0 0 1 -0 1 -0 -1.1102230246251565e-16 -1.1102230246251565e-16 0 -1 
1 600 689.09093437701847 257.98412378671179 -1 -0 -0 -0 0 1 -0 -1 0 
6 -0 -0 -1 
3 442.89999999999992 3.8890873012275202 0 1.1102230246251565e-16 -0 1 0 1 0 -1 0 1.1102230246251565e-16 7.7781745930520225 5.5
6 -0 -0 -1 
3 500.89999999999992 3.8890873012275202 0 1.1102230246251565e-16 -0 1 0 1 0 -1 0 1.1102230246251565e-16 7.7781745930520225 5.5
6 -0 -0 -1 
3 532.89999999999998 1311.9890873012275 0 1.1102230246251565e-16 0 1 0 -1 0 1 0 -1.1102230246251565e-16 7.7781745930520225 5.5
6 -0 -0 -1 
3 532.89999999999998 1311.9890873012275 0 1.1102230246251565e-16 0 1 0 -1 0 1 0 -1.1102230246251565e-16 7.7781745930520225 5.5
6 -0 -0 -1 
3 474.89999999999992 1311.9890873012275 0 1.1102230246251565e-16 0 1 0 -1 0 1 0 -1.1102230246251565e-16 7.7781745930520225 5.5
6 -0 -0 -1 
3 474.89999999999992 1311.9890873012275 0 1.1102230246251565e-16 0 1 0 -1 0 1 0 -1.1102230246251565e-16 7.7781745930520225 5.5
Triangulations 0

TShapes 340
Ve
8.42596118007299e-05
596.9 1311.98908730123 1
0 0

0101101
*
Ve
8.42596118007299e-05
0 1311.98908730123 1.00000000000011
0 0

0101101
*
Ed
 8.42596118007299e-05 1 1 0
1  1 0 0 596.9
2  1 2 0 0 596.9
0

0101000
+340 0 -339 0 *
Ve
8.42596118007299e-05
0 1311.98908730123 4.00000000000011
0 0

0101101
*
Ed
 8.42596118007299e-05 1 1 0
1  2 0 0 4
0

0101000
+339 1 -337 0 *
Ve
8.42596118007299e-05
596.9 1311.98908730123 4
0 0

0101101
*
Ed
 8.4259611748e-05 1 1 0
1  3 0 0 596.9
2  2 3 13 0 596.9
2  3 4 0 0 596.9
0

0101000
+335 14 -337 14 *
Ed
 8.42596118007299e-05 1 1 0
1  4 0 0 4
0

0101000
+340 1 -335 0 *
Wi

0101100
-338 1 -336 0 +334 7 +333 0 *
Fa
0  1e-07 1 0

0101000
+332 0 *
Ve
8.42596118314275e-05
596.9 1293.98908730123 0
0 0

0101101
*
Ed
 8.42596118007299e-05 1 1 0
1  5 0 1290.1 1308.1
2  4 2 0 1290.1 1308.1
0

0101000
+330 15 -340 0 *
Ve
8.42596118315941e-05
578.9 1293.98908730123 0
0 0

0101101
*
Ed
 8.42596118314275e-05 1 1 0
1  6 0 0 18
2  5 5 0 0 18
2  6 6 17 0 18
0

0101000
+330 14 -328 14 *
Ve
8.42596118315941e-05
578.9 21.8890873012275 0
0 0

0101101
*
Ed
 8.42596118315941e-05 1 1 0
1  7 0 0 1272.1
2  7 6 17 0 1272.1
2  8 7 0 0 1272.1
0

0101000
+326 14 -328 14 *
Ve
8.42596118314275e-05
596.9 21.8890873012275 0
0 0

0101101
*
Ed
 8.42596118314275e-05 1 1 0
1  8 0 0 18
2  9 6 17 0 18
2  10 8 0 0 18
0

0101000
+324 14 -326 14 *
Ve
8.42596118007299e-05
596.9 3.88908730122752 1
0 0

0101101
*
Ed
 8.42596118007299e-05 1 1 0
1  5 0 4.44089209850063e-16 18
2  4 2 0 4.44089209850063e-16 18
0

0101000
+322 0 -324 15 *
Ve
8.42596118315941e-05
196.85 3.88908730122752 0
0 0

0101101
*
Ed
 8.42596118007299e-05 1 1 0
1  9 0 0 400.05
2  11 2 0 0 400.05
0

0101000
+320 15 -322 0 *
Ve
8.42596118315941e-05
196.85 21.8890873012275 0
0 0

0101101
*
Ed
 8.42596118315941e-05 1 1 0
1  10 0 0 18
2  12 9 0 0 18
2  13 10 17 0 18
0

0101000
+320 14 -318 14 *
Ve
8.42596118321839e-05
437.4 21.8890873012276 0
0 0

0101101
*
Ed
 8.42596118120546e-05 1 1 0
1  11 0 159.5 400.05
2  14 11 0 159.5 400.05
2  15 10 17 159.5 400.05
0

0101000
+316 14 -318 14 *
Ve
8.42596118321839e-05
448.4 21.8890873012276 0
0 0

0101101
*
Ed
 8.42596118321839e-05 1 1 0
1  12 0 4.71238898038469 7.85398163397448
2  16 12 0 4.71238898038469 7.85398163397448
2  17 10 19 4.71238898038469 7.85398163397448
2  18 13 21 4.71238898038469 7.85398163397448
2  19 13 23 4.71238898038469 7.85398163397448
0

0101000
+314 24 -316 24 *
Ve
8.42596118321839e-05
495.4 21.8890873012276 0
0 0

0101101
*
Ed
 8.42596118198905e-05 1 1 0
1  13 0 101.5 148.5
2  20 14 0 101.5 148.5
2  21 10 17 101.5 148.5
0

0101000
+312 14 -314 14 *
Ve
8.42596118321839e-05
506.4 21.8890873012276 0
0 0

0101101
*
Ed
 8.42596118321839e-05 1 1 0
1  14 0 4.71238898038469 7.85398163397448
2  22 15 0 4.71238898038469 7.85398163397448
2  23 10 19 4.71238898038469 7.85398163397448
2  24 16 21 4.71238898038469 7.85398163397448
2  25 16 23 4.71238898038469 7.85398163397448
0

0101000
+310 24 -312 24 *
Ve
8.42596118315941e-05
560.9 21.8890873012275 0
0 0

0101101
*
Ed
 8.4259611827093e-05 1 1 0
1  15 0 36 90.5
2  26 17 0 36 90.5
2  27 10 17 36 90.5
0

0101000
+308 14 -310 14 *
Ve
8.42596118315941e-05
560.9 1293.98908730123 0
0 0

0101101
*
Ed
 8.42596118315941e-05 1 1 0
1  16 0 0 1272.1
2  28 18 0 0 1272.1
2  29 10 17 0 1272.1
0

0101000
+308 14 -306 14 *
Ve
8.42596118321995e-05
538.4 1293.98908730123 0
0 0

0101101
*
Ed
 8.42596118273891e-05 1 1 0
1  17 0 36 58.5
2  30 19 0 36 58.5
2  31 10 17 36 58.5
0

0101000
+306 14 -304 14 *
Ve
8.42596118321995e-05
532.9 1286.21091270818 0
0 0

0101101
*
Ed
 8.42596118321995e-05 1 1 0
1  18 0 0 1.5707963267949
2  32 20 0 0 1.5707963267949
2  33 10 19 0 1.5707963267949
2  34 21 21 0 1.5707963267949
2  35 21 23 0 1.5707963267949
0

0101000
+302 24 -304 24 *
Ve
8.42596118315941e-05
527.4 1293.98908730123 0
0 0

0101101
*
Ed
 8.42596118315144e-05 1 1 0
1  19 0 4.71238898038469 6.28318530717959
2  36 20 0 4.71238898038469 6.28318530717959
2  37 10 19 4.71238898038469 6.28318530717959
2  38 22 21 4.71238898038469 6.28318530717959
2  39 22 23 4.71238898038469 6.28318530717959
0

0101000
+300 24 -302 24 *
Ve
8.42596118321995e-05
480.4 1293.98908730123 0
0 0

0101101
*
Ed
 8.42596118234432e-05 1 1 0
1  20 0 69.5 116.5
2  40 23 0 69.5 116.5
2  41 10 17 69.5 116.5
0

0101000
+300 14 -298 14 *
Ve
8.42596118321995e-05
474.9 1286.21091270818 0
0 0

0101101
*
Ed
 8.42596118321995e-05 1 1 0
1  21 0 0 1.5707963267949
2  42 24 0 0 1.5707963267949
2  43 10 19 0 1.5707963267949
2  44 25 21 0 1.5707963267949
2  45 25 23 0 1.5707963267949
0

0101000
+296 24 -298 24 *
Ve
8.42596118315941e-05
469.4 1293.98908730123 0
0 0

0101101
*
Ed
 8.42596118315144e-05 1 1 0
1  22 0 4.71238898038469 6.28318530717959
2  46 24 0 4.71238898038469 6.28318530717959
2  47 10 19 4.71238898038469 6.28318530717959
2  48 26 21 4.71238898038469 6.28318530717959
2  49 26 23 4.71238898038469 6.28318530717959
0

0101000
+294 24 -296 24 *
Ve
8.42596118835525e-05
18 1293.98908730123 1.13686837721616e-13
0 0

0101101
*
Ed
 8.42596118299602e-05 1 1 0
1  23 0 127.5 578.9
2  50 27 0 127.5 578.9
2  51 10 17 127.5 578.9
0

0101000
+294 14 -292 14 *
Ve
8.42596118853844e-05
18 1131.01408730123 1.13686837721616e-13
0 0

0101101
*
Ed
 8.42596118835525e-05 1 1 0
1  24 0 0 162.975
2  52 28 0 0 162.975
2  53 10 17 0 162.975
0

0101000
+290 14 -292 14 *
Ve
8.42596118853844e-05
0 1131.01408730123 1.13686837721616e-13
0 0

0101101
*
Ed
 8.42596118853844e-05 1 1 0
1  25 0 0 18
2  54 29 0 0 18
2  55 10 17 0 18
0

0101000
+290 14 -288 14 *
Ed
 8.42596118007299e-05 1 1 0
1  26 0 0 180.975
2  56 2 28 0 180.975
0

0101000
+339 28 -288 29 *
Wi

0101100
+329 1 -327 7 +325 7 +323 7 +321 1 +319 1 -317 7 +315 7 +313 18 +311 7 
+309 18 +307 7 -305 7 -303 7 +301 18 +299 18 -297 7 +295 18 +293 18 -291 7 
+289 7 -287 7 +286 27 +338 1 *
Ve
8.4309612748e-05
440.502084238343 10.8890873012275 1
0 0

0101101
*
Ve
8.4259611748e-05
442.9 10.1109127081755 1
0 0

0101101
*
Ed
 8.4259611748e-05 1 1 0
1  27 0 2.69046051734758 3.14159265358979
2  57 2 33 2.69046051734758 3.14159265358979
2  58 30 34 2.69046051734758 3.14159265358979
2  59 30 36 2.69046051734758 3.14159265358979
0

0101000
+284 33 -283 33 *
Ve
8.4309612748e-05
445.297915761656 10.8890873012276 1
0 0

0101101
*
Ed
 1e-07 1 1 0
1  28 0 5.83205317093741 6.7343174434218
2  60 2 38 5.83205317093741 6.7343174434218
2  61 31 39 5.83205317093741 6.7343174434218
2  62 31 40 5.83205317093741 6.7343174434218
0

0101000
+281 38 -284 38 *
Ed
 8.4259611748e-05 1 1 0
1  29 0 3.14159265358979 3.59272478983198
2  63 2 33 3.14159265358979 3.59272478983198
2  64 32 34 3.14159265358979 3.59272478983198
2  65 32 36 3.14159265358979 3.59272478983198
0

0101000
+283 33 -281 33 *
Wi

0101100
-282 32 -280 37 -279 32 *
Ve
8.4309612748e-05
498.502084238344 10.8890873012276 1
0 0

0101101
*
Ve
8.4259611748e-05
500.9 10.1109127081755 1
0 0

0101101
*
Ed
 8.4259611748e-05 1 1 0
1  30 0 2.69046051734761 3.14159265358979
2  66 2 33 2.69046051734761 3.14159265358979
2  67 33 34 2.69046051734761 3.14159265358979
2  68 33 36 2.69046051734761 3.14159265358979
0

0101000
+277 33 -276 33 *
Ve
8.4309612748e-05
503.297915761656 10.8890873012275 1
0 0

0101101
*
Ed
 1e-07 1 1 0
1  31 0 5.83205317093737 6.73431744342176
2  69 2 38 5.83205317093737 6.73431744342176
2  70 34 39 5.83205317093737 6.73431744342176
2  71 34 40 5.83205317093737 6.73431744342176
0

0101000
+274 38 -277 38 *
Ed
 8.4259611748e-05 1 1 0
1  32 0 3.14159265358979 3.592724789832
2  72 2 33 3.14159265358979 3.592724789832
2  73 35 34 3.14159265358979 3.592724789832
2  74 35 36 3.14159265358979 3.592724789832
0

0101000
+276 33 -274 33 *
Wi

0101100
-275 32 -273 37 -272 32 *
Ve
8.4309612748e-05
472.502084238344 1304.98908730123 1
0 0

0101101
*
Ve
1.00000018e-07
474.9 1304.21091270818 1
0 0

0101101
*
Ed
 1e-07 1 1 0
1  33 0 5.83205317093739 6.28318530717959
2  75 2 38 5.83205317093739 6.28318530717959
2  76 36 39 5.83205317093739 6.28318530717959
2  77 36 40 5.83205317093739 6.28318530717959
0

0101000
+270 38 -269 38 *
Ve
8.4309612748e-05
477.297915761656 1304.98908730123 1
0 0

0101101
*
Ed
 8.4259611748e-05 1 1 0
1  34 0 2.6904605173476 3.59272478983199
2  78 2 33 2.6904605173476 3.59272478983199
2  79 37 34 2.6904605173476 3.59272478983199
2  80 37 36 2.6904605173476 3.59272478983199
0

0101000
+267 33 -270 33 *
Ed
 1e-07 1 1 0
1  35 0 0 0.451132136242198
2  81 2 38 0 0.451132136242198
2  82 38 39 0 0.451132136242198
2  83 38 40 0 0.451132136242198
0

0101000
+269 38 -267 38 *
Wi

0101100
-268 37 -266 32 -265 37 *
Ve
8.4309612748e-05
530.502084238344 1304.98908730123 1
0 0

0101101
*
Ve
1.00000018e-07
532.9 1304.21091270818 1
0 0

0101101
*
Ed
 1e-07 1 1 0
1  36 0 5.83205317093739 6.28318530717959
2  84 2 38 5.83205317093739 6.28318530717959
2  85 39 39 5.83205317093739 6.28318530717959
2  86 39 40 5.83205317093739 6.28318530717959
0

0101000
+263 38 -262 38 *
Ve
8.4309612748e-05
535.297915761656 1304.98908730123 1
0 0

0101101
*
Ed
 8.4259611748e-05 1 1 0
1  37 0 2.6904605173476 3.59272478983199
2  87 2 33 2.6904605173476 3.59272478983199
2  88 40 34 2.6904605173476 3.59272478983199
2  89 40 36 2.6904605173476 3.59272478983199
0

0101000
+260 33 -263 33 *
Ed
 1e-07 1 1 0
1  38 0 0 0.451132136242198
2  90 2 38 0 0.451132136242198
2  91 41 39 0 0.451132136242198
2  92 41 40 0 0.451132136242198
0

0101000
+262 38 -260 38 *
Wi

0101100
-261 37 -259 32 -258 37 *
Fa
0  8.42596118007299e-05 2 1

0101000
+285 0 +278 0 +271 0 +264 0 +257 0 *
Ve
8.42596118007299e-05
0 1131.01408730123 4.00000000000011
0 0

0101101
*
Ed
 8.42596118007299e-05 1 1 0
1  39 0 0 4
0

0101000
+288 0 -255 0 *
Ed
 8.42596118007299e-05 1 1 0
1  40 0 0 180.975
2  93 4 0 0 180.975
2  94 43 13 0 180.975
0

0101000
+255 14 -337 14 *
Wi

0101100
-286 27 -254 0 -253 7 +336 0 *
Fa
0  8.42596118007299e-05 42 0

0101000
+252 0 *
Ve
8.4259611748e-05
596.9 1293.98908730123 4
0 0

0101101
*
Ve
8.4259611748e-05
586 1290.1 18
0 0

0101101
*
Ed
 8.4259611748e-05 1 1 0
1  41 0 0 18
2  95 4 0 0 18
2  96 5 0 0 18
0

0101000
+250 14 -249 41 *
Ed
 8.4259611748e-05 1 1 0
1  42 0 0 18
2  97 44 13 0 18
2  98 4 0 0 18
0

0101000
+250 14 -335 14 *
Ve
8.4259611748e-05
586 1127.125 578.9
0 0

0101101
*
Ed
 8.4259611748e-05 1 1 0
1  43 0 0 18
2  99 4 0 0 18
2  100 29 0 0 18
0

0101000
+246 41 -255 14 *
Ve
8.4259611748e-05
586 1290.1 578.9
0 0

0101101
*
Ed
 8.4259611748e-05 1 1 0
1  44 0 0 162.975
2  101 4 0 0 162.975
2  102 28 0 0 162.975
0

0101000
+246 41 -244 41 *
Ve
8.4259611748e-05
586 1290.1 126.716990566028
0 0

0101101
*
Ed
 8.4259611748e-05 1 1 0
1  45 0 126.716990566028 578.9
2  103 4 0 126.716990566028 578.9
2  104 27 0 126.716990566028 578.9
0

0101000
+242 41 -244 41 *
Ve
8.4259611748e-05
586 1290.1 117.283009433972
0 0

0101101
*
Ve
8.43096128048439e-05
477.297915761656 1304.98908730123 4
0 0

0101101
*
Ed
 8.4259611748e-05 1 1 0
1  46 0 1.03065234911869 2.69046051734759
2  105 4 0 1.03065234911869 2.69046051734759
2  106 24 42 1.03065234911869 2.69046051734759
2  107 45 43 1.03065234911869 2.69046051734759
2  108 45 33 1.03065234911869 2.69046051734759
0

0101000
+240 41 -239 14 *
Ve
8.43096128332651e-05
472.502084238344 1304.98908730123 4
0 0

0101101
*
Ed
 8.42596118048438e-05 1 1 0
1  46 0 2.69046051734759 3.592724789832
2  105 4 0 2.69046051734759 3.592724789832
2  106 24 42 2.69046051734759 3.592724789832
2  107 45 43 2.69046051734759 3.592724789832
2  108 45 33 2.69046051734759 3.592724789832
2  109 37 14 2.69046051734759 3.592724789832
0

0101000
+239 14 -237 14 *
Ed
 8.4259611748e-05 1 1 0
1  46 0 3.592724789832 5.25253295806089
2  105 4 0 3.592724789832 5.25253295806089
2  106 24 42 3.592724789832 5.25253295806089
2  107 45 43 3.592724789832 5.25253295806089
2  108 45 33 3.592724789832 5.25253295806089
0

0101000
+237 14 -242 41 *
Ve
8.4259611748e-05
586 1290.1 68.7169905660283
0 0

0101101
*
Ed
 8.4259611748e-05 1 1 0
1  47 0 68.7169905660283 117.283009433972
2  110 4 0 68.7169905660283 117.283009433972
2  111 23 0 68.7169905660283 117.283009433972
0

0101000
+234 41 -240 41 *
Ve
8.4259611748e-05
586 1290.1 59.2830094339717
0 0

0101101
*
Ve
8.43096130022115e-05
535.297915761656 1304.98908730123 4
0 0

0101101
*
Ed
 8.4259611748e-05 1 1 0
1  48 0 1.03065234911869 2.69046051734756
2  112 4 0 1.03065234911869 2.69046051734756
2  113 20 42 1.03065234911869 2.69046051734756
2  114 46 43 1.03065234911869 2.69046051734756
2  115 46 33 1.03065234911869 2.69046051734756
0

0101000
+232 41 -231 14 *
Ve
8.43096128616868e-05
530.502084238344 1304.98908730123 4
0 0

0101101
*
Ed
 8.42596117482199e-05 1 1 0
1  48 0 2.69046051734756 3.59272478983201
2  112 4 0 2.69046051734756 3.59272478983201
2  113 20 42 2.69046051734756 3.59272478983201
2  114 46 43 2.69046051734756 3.59272478983201
2  115 46 33 2.69046051734756 3.59272478983201
2  116 40 14 2.69046051734756 3.59272478983201
0

0101000
+231 14 -229 14 *
Ed
 8.4259611748e-05 1 1 0
1  48 0 3.59272478983201 5.25253295806089
2  112 4 0 3.59272478983201 5.25253295806089
2  113 20 42 3.59272478983201 5.25253295806089
2  114 46 43 3.59272478983201 5.25253295806089
2  115 46 33 3.59272478983201 5.25253295806089
0

0101000
+229 14 -234 41 *
Ve
8.4259611748e-05
586 1290.1 36
0 0

0101101
*
Ed
 8.4259611748e-05 1 1 0
1  49 0 36 59.2830094339717
2  117 4 0 36 59.2830094339717
2  118 19 0 36 59.2830094339717
0

0101000
+226 41 -232 41 *
Ve
8.4259611748e-05
586 18 36
0 0

0101101
*
Ed
 8.4259611748e-05 1 1 0
1  50 0 0 1272.1
2  119 4 0 0 1272.1
2  120 18 0 0 1272.1
0

0101000
+224 41 -226 41 *
Ve
8.4259611748e-05
586 18 91.2830094339717
0 0

0101101
*
Ed
 8.4259611748e-05 1 1 0
1  51 0 36 91.2830094339717
2  121 4 0 36 91.2830094339717
2  122 17 0 36 91.2830094339717
0

0101000
+224 41 -222 41 *
Ve
8.42596117604364e-05
500.9 10.1109127081755 4
0 0

0101101
*
Ve
8.43096128376136e-05
503.297915761656 10.8890873012275 4
0 0

0101101
*
Ed
 8.42596117568841e-05 1 1 0
1  52 0 3.14159265358979 3.59272478983202
2  123 4 0 3.14159265358979 3.59272478983202
2  124 15 42 3.14159265358979 3.59272478983202
2  125 47 43 3.14159265358979 3.59272478983202
2  126 47 33 3.14159265358979 3.59272478983202
2  127 35 14 3.14159265358979 3.59272478983202
0

0101000
+220 14 -219 14 *
Ed
 8.4259611748e-05 1 1 0
1  52 0 3.59272478983202 5.25253295806089
2  123 4 0 3.59272478983202 5.25253295806089
2  124 15 42 3.59272478983202 5.25253295806089
2  125 47 43 3.59272478983202 5.25253295806089
2  126 47 33 3.59272478983202 5.25253295806089
0

0101000
+219 14 -222 41 *
Ve
8.4259611748e-05
586 18 100.716990566028
0 0

0101101
*
Ve
8.4309612833823e-05
498.502084238344 10.8890873012275 4
0 0

0101101
*
Ed
 8.4259611748e-05 1 1 0
1  53 0 1.03065234911869 2.6904605173476
2  128 4 0 1.03065234911869 2.6904605173476
2  129 15 42 1.03065234911869 2.6904605173476
2  130 48 43 1.03065234911869 2.6904605173476
2  131 48 33 1.03065234911869 2.6904605173476
0

0101000
+216 41 -215 14 *
Ed
 8.42596117604364e-05 1 1 0
1  53 0 2.6904605173476 3.14159265358979
2  128 4 0 2.6904605173476 3.14159265358979
2  129 15 42 2.6904605173476 3.14159265358979
2  130 48 43 2.6904605173476 3.14159265358979
2  131 48 33 2.6904605173476 3.14159265358979
2  132 33 14 2.6904605173476 3.14159265358979
0

0101000
+215 14 -220 14 *
Ve
8.4259611748e-05
586 18 149.283009433972
0 0

0101101
*
Ed
 8.4259611748e-05 1 1 0
1  54 0 100.716990566028 149.283009433972
2  133 4 0 100.716990566028 149.283009433972
2  134 14 0 100.716990566028 149.283009433972
0

0101000
+216 41 -212 41 *
Ve
8.42596117586601e-05
442.9 10.1109127081755 4
0 0

0101101
*
Ve
8.43096128338233e-05
445.297915761656 10.8890873012275 4
0 0

0101101
*
Ed
 8.42596117551088e-05 1 1 0
1  55 0 3.14159265358979 3.59272478983199
2  135 4 0 3.14159265358979 3.59272478983199
2  136 12 42 3.14159265358979 3.59272478983199
2  137 49 43 3.14159265358979 3.59272478983199
2  138 49 33 3.14159265358979 3.59272478983199
2  139 32 14 3.14159265358979 3.59272478983199
0

0101000
+210 14 -209 14 *
Ed
 8.4259611748e-05 1 1 0
1  55 0 3.59272478983199 5.25253295806089
2  135 4 0 3.59272478983199 5.25253295806089
2  136 12 42 3.59272478983199 5.25253295806089
2  137 49 43 3.59272478983199 5.25253295806089
2  138 49 33 3.59272478983199 5.25253295806089
0

0101000
+209 14 -212 41 *
Ve
8.4259611748e-05
586 18 158.716990566028
0 0

0101101
*
Ve
8.43096128376136e-05
440.502084238343 10.8890873012275 4
0 0

0101101
*
Ed
 8.4259611748e-05 1 1 0
1  56 0 1.03065234911869 2.69046051734757
2  140 4 0 1.03065234911869 2.69046051734757
2  141 12 42 1.03065234911869 2.69046051734757
2  142 50 43 1.03065234911869 2.69046051734757
2  143 50 33 1.03065234911869 2.69046051734757
0

0101000
+206 41 -205 14 *
Ed
 8.42596117586601e-05 1 1 0
1  56 0 2.69046051734757 3.14159265358979
2  140 4 0 2.69046051734757 3.14159265358979
2  141 12 42 2.69046051734757 3.14159265358979
2  142 50 43 2.69046051734757 3.14159265358979
2  143 50 33 2.69046051734757 3.14159265358979
2  144 30 14 2.69046051734757 3.14159265358979
0

0101000
+205 14 -210 14 *
Ve
8.4259611748e-05
586 18 400.05
0 0

0101101
*
Ed
 8.4259611748e-05 1 1 0
1  57 0 158.716990566028 400.05
2  145 4 0 158.716990566028 400.05
2  146 11 0 158.716990566028 400.05
0

0101000
+206 41 -202 41 *
Ve
8.42596118016134e-05
196.85 3.88908730122752 4
0 0

0101101
*
Ed
 8.4259611748e-05 1 1 0
1  58 0 0 18
2  147 4 0 0 18
2  148 9 0 0 18
0

0101000
+200 14 -202 41 *
Ve
8.4259611801174e-05
596.9 3.88908730122752 4
0 0

0101101
*
Ed
 8.4259611748e-05 1 1 0
1  59 0 0 400.05
2  149 4 0 0 400.05
2  150 51 13 0 400.05
0

0101000
+198 14 -200 14 *
Ve
8.4259611748e-05
596.9 21.8890873012275 4
0 0

0101101
*
Ed
 8.4259611748e-05 1 1 0
1  60 0 0 18
2  151 44 13 0 18
2  152 4 0 0 18
0

0101000
+198 14 -196 14 *
Ve
8.4259611748e-05
586 18 18
0 0

0101101
*
Ed
 8.4259611748e-05 1 1 0
1  61 0 0 18
2  153 4 0 0 18
2  154 8 0 0 18
0

0101000
+196 14 -194 41 *
Ed
 8.4259611748e-05 1 1 0
1  62 0 0 1272.1
2  155 4 0 0 1272.1
2  156 7 0 0 1272.1
0

0101000
+194 41 -249 41 *
Wi

0101100
-248 7 +247 7 +334 7 -253 7 -245 7 +243 7 -241 7 -238 7 -236 7 -235 7 
-233 7 -230 7 -228 7 -227 7 -225 7 -223 7 +221 7 -218 7 -217 7 -214 7 
-213 7 +211 7 -208 7 -207 7 -204 7 -203 7 +201 7 -199 7 -197 7 +195 7 
+193 7 +192 7 *
Fa
0  8.4259611748e-05 4 7

0101000
+191 0 *
Ed
 1e-07 1 1 0
1  63 0 0 4
2  157 44 13 0 4
2  158 5 0 0 4
0

0101000
+250 14 -330 14 *
Wi

0101100
-329 1 -333 0 +247 7 -189 7 *
Fa
0  1e-07 52 0

0101000
+188 0 *
Ed
 1e-07 1 1 0
1  64 0 0 4
2  159 5 0 0 4
2  160 7 0 0 4
0

0101000
+249 41 -328 14 *
Wi

0101100
-189 7 -327 7 +186 7 +248 7 *
Fa
0  1e-07 5 7

0101000
+185 0 *
Ed
 1e-07 1 1 0
1  65 0 0 4
2  161 8 0 0 4
2  162 7 0 0 4
0

0101000
+194 41 -326 14 *
Wi

0101100
-192 7 -186 7 +325 7 +183 7 *
Fa
0  1e-07 7 7

0101000
+182 0 *
Ed
 1e-07 1 1 0
1  66 0 0 4
2  163 44 13 0 4
2  164 8 0 0 4
0

0101000
+196 14 -324 14 *
Wi

0101100
-180 7 -323 7 +183 7 +193 7 *
Fa
0  1e-07 8 7

0101000
+179 0 *
Ed
 8.42596118007299e-05 1 1 0
1  67 0 0 4
0

0101000
+322 1 -198 0 *
Wi

0101100
-321 1 +180 7 +195 7 +177 0 *
Fa
0  1e-07 52 0

0101000
+176 0 *
Ed
 8.42596118011693e-05 1 1 0
1  68 0 0 4
0

0101000
+320 0 -200 0 *
Wi

0101100
-319 1 -177 0 -197 7 +174 0 *
Fa
0  1e-07 53 0

0101000
+173 0 *
Ed
 1e-07 1 1 0
1  69 0 0 4
2  165 11 0 0 4
2  166 9 0 0 4
0

0101000
+202 41 -318 14 *
Wi

0101100
-199 7 -171 7 +317 7 -174 0 *
Fa
0  1e-07 9 7

0101000
+170 0 *
Ed
 1.00000011e-07 1 1 0
1  70 0 4.17224500270849 4.71238898038469
2  167 12 42 4.17224500270849 4.71238898038469
2  168 11 0 4.17224500270849 4.71238898038469
0

0101000
+206 41 -316 14 *
Wi

0101100
-168 7 -315 7 +171 7 +201 7 *
Fa
0  1e-07 11 7

0101000
+167 0 *
Ve
1.00000003e-07
442.9 3.88908730122752 10.221825406948
0 0

0101101
*
Ed
 1e-07 1 1 0
1  71 0 15.5 24.2989898732233
3  169 170CN 12 0 15.5 24.2989898732233
0

0101000
+165 24 -210 24 *
Ve
8.42596118327043e-05
437.399999999999 3.88908730122752 18
0 0

0101101
*
Ed
 1e-07 1 1 0
1  72 0 4.71238898038469 6.28318530717959
2  171 51 8 4.71238898038469 6.28318530717959
2  172 12 0 4.71238898038469 6.28318530717959
0

0101000
+163 24 -165 24 *
Ve
8.4309612748e-05
440.502084238343 10.8890873012275 18
0 0

0101101
*
Ed
 8.42596118327043e-05 1 1 0
1  73 0 6.7343174434218 7.85398163397448
2  173 54 8 6.7343174434218 7.85398163397448
2  174 12 0 6.7343174434218 7.85398163397448
2  175 55 44 6.7343174434218 7.85398163397448
2  176 55 38 6.7343174434218 7.85398163397448
0

0101000
+161 24 -163 24 *
Ve
8.4309612748e-05
445.297915761656 10.8890873012276 18
0 0

0101101
*
Ed
 1.00000113686838e-07 1 1 0
1  28 0 5.83205317093741 6.7343174434218
2  60 2 38 5.83205317093741 6.7343174434218
2  61 31 39 5.83205317093741 6.7343174434218
2  62 31 40 5.83205317093741 6.7343174434218
2  177 12 46 5.83205317093741 6.7343174434218
0

0101000
+159 40 -161 40 *
Ve
8.42596118327043e-05
448.400000000001 3.88908730122752 18
0 0

0101101
*
Ed
 8.42596118327043e-05 1 1 0
1  73 0 4.71238898038469 5.83205317093741
2  173 54 8 4.71238898038469 5.83205317093741
2  174 12 0 4.71238898038469 5.83205317093741
2  175 55 44 4.71238898038469 5.83205317093741
2  176 55 38 4.71238898038469 5.83205317093741
0

0101000
+157 24 -159 24 *
Ed
 1e-07 1 1 0
1  74 0 0 1.5707963267949
2  178 51 8 0 1.5707963267949
2  179 12 0 0 1.5707963267949
0

0101000
+165 24 -157 24 *
Ed
 1.00000008e-07 1 1 0
1  75 0 1.5707963267949 2.1109403044711
2  180 12 42 1.5707963267949 2.1109403044711
2  181 14 0 1.5707963267949 2.1109403044711
0

0101000
+314 14 -212 41 *
Wi

0101100
-313 18 +168 7 -204 7 -203 7 +164 18 +162 18 +160 18 +158 45 +156 18 +155 18 
-164 18 -208 7 -207 7 +154 7 *
Fa
0  1e-07 12 18

0101000
+153 0 *
Ed
 1.00000011e-07 1 1 0
1  76 0 4.17224500270849 4.71238898038469
2  182 15 42 4.17224500270849 4.71238898038469
2  183 14 0 4.17224500270849 4.71238898038469
0

0101000
+216 41 -312 14 *
Wi

0101100
-151 7 -311 7 -154 7 +211 7 *
Fa
0  1e-07 14 7

0101000
+150 0 *
Ve
1.00000003e-07
500.9 3.88908730122752 10.221825406948
0 0

0101101
*
Ed
 1e-07 1 1 0
1  77 0 15.5 24.2989898732233
3  184 185CN 15 0 15.5 24.2989898732233
0

0101000
+148 24 -220 24 *
Ve
8.42596118327043e-05
495.399999999999 3.88908730122752 18
0 0

0101101
*
Ed
 1e-07 1 1 0
1  78 0 4.71238898038469 6.28318530717959
2  186 51 8 4.71238898038469 6.28318530717959
2  187 15 0 4.71238898038469 6.28318530717959
0

0101000
+146 24 -148 24 *
Ve
8.4309612748e-05
498.502084238344 10.8890873012276 18
0 0

0101101
*
Ed
 8.42596118327043e-05 1 1 0
1  79 0 6.73431744342176 7.85398163397448
2  188 54 8 6.73431744342176 7.85398163397448
2  189 15 0 6.73431744342176 7.85398163397448
2  190 56 44 6.73431744342176 7.85398163397448
2  191 56 38 6.73431744342176 7.85398163397448
0

0101000
+144 24 -146 24 *
Ve
8.4309612748e-05
503.297915761656 10.8890873012275 18
0 0

0101101
*
Ed
 1.00000113686838e-07 1 1 0
1  31 0 5.83205317093737 6.73431744342176
2  69 2 38 5.83205317093737 6.73431744342176
2  70 34 39 5.83205317093737 6.73431744342176
2  71 34 40 5.83205317093737 6.73431744342176
2  192 15 46 5.83205317093737 6.73431744342176
0

0101000
+142 40 -144 40 *
Ve
8.42596118327043e-05
506.400000000001 3.88908730122752 18
0 0

0101101
*
Ed
 8.42596118327043e-05 1 1 0
1  79 0 4.71238898038469 5.83205317093737
2  188 54 8 4.71238898038469 5.83205317093737
2  189 15 0 4.71238898038469 5.83205317093737
2  190 56 44 4.71238898038469 5.83205317093737
2  191 56 38 4.71238898038469 5.83205317093737
0

0101000
+140 24 -142 24 *
Ed
 1e-07 1 1 0
1  80 0 0 1.5707963267949
2  193 51 8 0 1.5707963267949
2  194 15 0 0 1.5707963267949
0

0101000
+148 24 -140 24 *
Ed
 1.00000008e-07 1 1 0
1  81 0 1.5707963267949 2.1109403044711
2  195 15 42 1.5707963267949 2.1109403044711
2  196 17 0 1.5707963267949 2.1109403044711
0

0101000
+310 14 -222 41 *
Wi

0101100
-309 18 +151 7 -214 7 -213 7 +147 18 +145 18 +143 18 +141 45 +139 18 +138 18 
-147 18 -218 7 -217 7 +137 7 *
Fa
0  1e-07 15 18

0101000
+136 0 *
Ed
 1e-07 1 1 0
1  82 0 0 4
2  197 18 0 0 4
2  198 17 0 0 4
0

0101000
+224 41 -308 14 *
Wi

0101100
-134 7 -307 7 -137 7 +221 7 *
Fa
0  1e-07 17 7

0101000
+133 0 *
Ed
 1e-07 1 1 0
1  83 0 0 4
2  199 19 0 0 4
2  200 18 0 0 4
0

0101000
+226 41 -306 14 *
Wi

0101100
-223 7 -131 7 +305 7 +134 7 *
Fa
0  1e-07 18 7

0101000
+130 0 *
Ed
 1.0000005e-07 1 1 0
1  84 0 1.5707963267949 2.11094030447111
2  201 20 42 1.5707963267949 2.11094030447111
2  202 19 0 1.5707963267949 2.11094030447111
0

0101000
+304 14 -232 41 *
Wi

0101100
-131 7 -303 7 -128 7 +225 7 *
Fa
0  1e-07 19 7

0101000
+127 0 *
Ve
8.4309612748e-05
530.502084238344 1304.98908730123 18
0 0

0101101
*
Ve
1.00000018e-07
532.9 1304.21091270818 18
0 0

0101101
*
Ed
 1e-07 1 1 0
1  36 0 5.83205317093739 6.28318530717959
2  84 2 38 5.83205317093739 6.28318530717959
2  85 39 39 5.83205317093739 6.28318530717959
2  86 39 40 5.83205317093739 6.28318530717959
2  203 20 46 5.83205317093739 6.28318530717959
0

0101000
+125 40 -124 40 *
Ve
8.42596118327043e-05
527.400000000021 1311.98908730123 18
0 0

0101101
*
Ed
 8.42596118327043e-05 1 1 0
1  85 0 4.71238898038469 5.83205317093739
2  204 54 8 4.71238898038469 5.83205317093739
2  205 20 0 4.71238898038469 5.83205317093739
2  206 57 44 4.71238898038469 5.83205317093739
2  207 57 38 4.71238898038469 5.83205317093739
0

0101000
+122 24 -125 24 *
Ve
8.42596118327043e-05
538.399999999979 1311.98908730123 18
0 0

0101101
*
Ed
 1e-07 1 1 0
1  86 0 4.71238898038469 7.85398163397448
2  208 3 8 4.71238898038469 7.85398163397448
2  209 20 0 4.71238898038469 7.85398163397448
0

0101000
+120 24 -122 24 *
Ve
8.4309612748e-05
535.297915761656 1304.98908730123 18
0 0

0101101
*
Ed
 8.42596118327043e-05 1 1 0
1  87 0 0.451132136242198 1.5707963267949
2  210 54 8 0.451132136242198 1.5707963267949
2  211 20 0 0.451132136242198 1.5707963267949
2  212 58 44 0.451132136242198 1.5707963267949
2  213 58 38 0.451132136242198 1.5707963267949
0

0101000
+118 24 -120 24 *
Ed
 1e-07 1 1 0
1  38 0 0 0.451132136242198
2  90 2 38 0 0.451132136242198
2  91 41 39 0 0.451132136242198
2  92 41 40 0 0.451132136242198
2  214 20 46 0 0.451132136242198
0

0101000
+124 40 -118 40 *
Ed
 1e-07 1 1 0
1  88 0 15.5 40.9558441227157
3  215 216CN 20 0 15.5 40.9558441227157
0

0101000
+124 24 -302 24 *
Ed
 1.00000052e-07 1 1 0
1  89 0 4.17224500270848 4.71238898038469
2  217 20 42 4.17224500270848 4.71238898038469
2  218 23 0 4.17224500270848 4.71238898038469
0

0101000
+234 41 -300 14 *
Wi

0101100
+123 45 +121 18 +119 18 +117 18 +116 45 -115 18 -301 18 -128 7 -230 7 -228 7 
-227 7 -114 7 -299 18 +115 18 *
Fa
0  1e-07 20 18

0101000
+113 0 *
Ed
 1.00000052e-07 1 1 0
1  90 0 1.5707963267949 2.11094030447111
2  219 24 42 1.5707963267949 2.11094030447111
2  220 23 0 1.5707963267949 2.11094030447111
0

0101000
+298 14 -240 41 *
Wi

0101100
-114 7 -297 7 -111 7 +233 7 *
Fa
0  1e-07 23 7

0101000
+110 0 *
Ve
8.4309612748e-05
472.502084238344 1304.98908730123 18
0 0

0101101
*
Ve
1.00000056843419e-07
474.9 1304.21091270818 18
0 0

0101101
*
Ed
 1.00000056843419e-07 1 1 0
1  33 0 5.83205317093739 6.28318530717959
2  75 2 38 5.83205317093739 6.28318530717959
2  76 36 39 5.83205317093739 6.28318530717959
2  77 36 40 5.83205317093739 6.28318530717959
2  221 24 46 5.83205317093739 6.28318530717959
0

0101000
+108 40 -107 40 *
Ve
8.42596118327043e-05
469.400000000021 1311.98908730123 18
0 0

0101101
*
Ed
 8.42596118327043e-05 1 1 0
1  91 0 4.71238898038469 5.83205317093739
2  222 54 8 4.71238898038469 5.83205317093739
2  223 24 0 4.71238898038469 5.83205317093739
2  224 59 44 4.71238898038469 5.83205317093739
2  225 59 38 4.71238898038469 5.83205317093739
0

0101000
+105 24 -108 24 *
Ve
8.42596118327043e-05
480.399999999979 1311.98908730123 18
0 0

0101101
*
Ed
 1e-07 1 1 0
1  92 0 4.71238898038469 7.85398163397448
2  226 3 8 4.71238898038469 7.85398163397448
2  227 24 0 4.71238898038469 7.85398163397448
0

0101000
+103 24 -105 24 *
Ve
8.4309612748e-05
477.297915761656 1304.98908730123 18
0 0

0101101
*
Ed
 8.42596118327043e-05 1 1 0
1  93 0 0.451132136242198 1.5707963267949
2  228 54 8 0.451132136242198 1.5707963267949
2  229 24 0 0.451132136242198 1.5707963267949
2  230 60 44 0.451132136242198 1.5707963267949
2  231 60 38 0.451132136242198 1.5707963267949
0

0101000
+101 24 -103 24 *
Ed
 1.00000056843419e-07 1 1 0
1  35 0 0 0.451132136242198
2  81 2 38 0 0.451132136242198
2  82 38 39 0 0.451132136242198
2  83 38 40 0 0.451132136242198
2  232 24 46 0 0.451132136242198
0

0101000
+107 40 -101 40 *
Ed
 1e-07 1 1 0
1  94 0 15.5 40.9558441227157
3  233 234CN 24 0 15.5 40.9558441227157
0

0101000
+107 24 -296 24 *
Ed
 1.00000052e-07 1 1 0
1  95 0 4.17224500270848 4.71238898038469
2  235 24 42 4.17224500270848 4.71238898038469
2  236 27 0 4.17224500270848 4.71238898038469
0

0101000
+242 41 -294 14 *
Wi

0101100
+106 45 +104 18 +102 18 +100 18 +99 45 -98 18 -295 18 -111 7 -238 7 -236 7 
-235 7 -97 7 -293 18 +98 18 *
Fa
0  1e-07 24 18

0101000
+96 0 *
Ed
 1e-07 1 1 0
1  96 0 0 4
2  237 28 0 0 4
2  238 27 0 0 4
0

0101000
+244 41 -292 14 *
Wi

0101100
-97 7 -291 7 +94 7 +241 7 *
Fa
0  1e-07 27 7

0101000
+93 0 *
Ed
 1e-07 1 1 0
1  97 0 0 4
2  239 29 0 0 4
2  240 28 0 0 4
0

0101000
+246 41 -290 14 *
Wi

0101100
-243 7 -94 7 +289 7 +91 7 *
Fa
0  1e-07 28 7

0101000
+90 0 *
Wi

0101100
-91 7 -287 7 -254 0 +245 7 *
Fa
0  1e-07 29 7

0101000
+88 0 *
Ed
 8.4259611748e-05 1 1 0
1  98 0 0 4
2  241 30 0 0 4
2  242 32 0 0 4
4 C2 30 0 32 0
0

0101000
+283 1 -210 0 *
Ed
 8.4309612748e-05 1 1 0
1  99 0 0 4
2  243 30 0 0 4
2  244 31 0 0 4
0

0101000
+284 1 -205 0 *
Wi

0101100
-282 32 -86 0 +203 7 +85 0 *
Fa
0  8.4259611748e-05 30 0

0101000
+84 0 *
Ed
 8.4309612748e-05 1 1 0
1  100 0 0 4
2  245 31 0 0 4
2  246 32 0 0 4
0

0101000
+281 1 -209 0 *
Ed
 8.4309612748e-05 1 1 0
1  100 0 4 18
2  245 31 0 4 18
2  246 32 0 4 18
0

0101000
+209 0 -159 0 *
Ed
 8.4309612748e-05 1 1 0
1  99 0 4 18
2  243 30 0 4 18
2  244 31 0 4 18
0

0101000
+205 0 -161 0 *
Wi

0101100
+82 0 +81 0 -85 0 -80 0 -280 37 +158 45 *
Fa
0  1e-07 31 0

0101000
+79 0 *
Wi

0101100
-279 32 -82 0 +208 7 +86 0 *
Fa
0  8.4259611748e-05 32 0

0101000
+77 0 *
Ed
 8.4259611748e-05 1 1 0
1  101 0 0 4
2  247 33 0 0 4
2  248 35 0 0 4
4 C2 33 0 35 0
0

0101000
+276 1 -220 0 *
Ed
 8.4309612748e-05 1 1 0
1  102 0 0 4
2  249 33 0 0 4
2  250 34 0 0 4
0

0101000
+277 1 -215 0 *
Wi

0101100
-275 32 -75 0 +213 7 +74 0 *
Fa
0  8.4259611748e-05 33 0

0101000
+73 0 *
Ed
 8.4309612748e-05 1 1 0
1  103 0 0 4
2  251 34 0 0 4
2  252 35 0 0 4
0

0101000
+274 1 -219 0 *
Ed
 8.4309612748e-05 1 1 0
1  103 0 4 18
2  251 34 0 4 18
2  252 35 0 4 18
0

0101000
+219 0 -142 0 *
Ed
 8.4309612748e-05 1 1 0
1  102 0 4 18
2  249 33 0 4 18
2  250 34 0 4 18
0

0101000
+215 0 -144 0 *
Wi

0101100
+71 0 +70 0 -74 0 -69 0 -273 37 +141 45 *
Fa
0  1e-07 34 0

0101000
+68 0 *
Wi

0101100
-272 32 -71 0 +218 7 +75 0 *
Fa
0  8.4259611748e-05 35 0

0101000
+66 0 *
Ed
 8.4309612748e-05 1 1 0
1  104 0 0 4
2  253 36 0 0 4
2  254 37 0 0 4
0

0101000
+270 1 -237 0 *
Ed
 8.4309612748e-05 1 1 0
1  104 0 4 18
2  253 36 0 4 18
2  254 37 0 4 18
0

0101000
+237 0 -108 0 *
Ed
 1.00000018e-07 1 1 0
1  105 0 0 18
2  255 36 0 0 18
2  256 38 0 0 18
4 C2 36 0 38 0
0

0101000
+269 1 -107 0 *
Wi

0101100
+64 0 +63 0 -62 0 -268 37 +106 45 *
Fa
0  1e-07 36 0

0101000
+61 0 *
Ed
 8.4309612748e-05 1 1 0
1  106 0 0 4
2  257 37 0 0 4
2  258 38 0 0 4
0

0101000
+267 1 -239 0 *
Wi

0101100
-266 32 -64 0 +236 7 +59 0 *
Fa
0  8.4259611748e-05 37 0

0101000
+58 0 *
Ed
 8.4309612748e-05 1 1 0
1  106 0 4 18
2  257 37 0 4 18
2  258 38 0 4 18
0

0101000
+239 0 -101 0 *
Wi

0101100
+62 0 -59 0 -56 0 -265 37 +99 45 *
Fa
0  1e-07 38 0

0101000
+55 0 *
Ed
 8.4309612748e-05 1 1 0
1  107 0 0 4
2  259 39 0 0 4
2  260 40 0 0 4
0

0101000
+263 1 -229 0 *
Ed
 8.4309612748e-05 1 1 0
1  107 0 4 18
2  259 39 0 4 18
2  260 40 0 4 18
0

0101000
+229 0 -125 0 *
Ed
 1.00000018e-07 1 1 0
1  108 0 0 18
2  261 39 0 0 18
2  262 41 0 0 18
4 C2 39 0 41 0
0

0101000
+262 1 -124 0 *
Wi

0101100
+53 0 +52 0 -51 0 -261 37 +123 45 *
Fa
0  1e-07 39 0

0101000
+50 0 *
Ed
 8.4309612748e-05 1 1 0
1  109 0 0 4
2  263 40 0 0 4
2  264 41 0 0 4
0

0101000
+260 1 -231 0 *
Wi

0101100
-259 32 -53 0 +228 7 +48 0 *
Fa
0  8.4259611748e-05 40 0

0101000
+47 0 *
Ed
 8.4309612748e-05 1 1 0
1  109 0 4 18
2  263 40 0 4 18
2  264 41 0 4 18
0

0101000
+231 0 -118 0 *
Wi

0101100
+51 0 -48 0 -45 0 -258 37 +116 45 *
Fa
0  1e-07 41 0

0101000
+44 0 *
Ed
 8.42596118007299e-05 1 1 0
1  9 0 240.549999999999 251.550000000001
2  11 2 0 240.549999999999 251.550000000001
0

0101000
+163 48 -157 48 *
Wi

0101100
-162 18 -155 18 +42 47 *
Fa
0  1e-07 53 0

0101000
+41 0 *
Ed
 8.42596118007299e-05 1 1 0
1  27 0 2.69046051734758 3.14159265358979
2  57 2 33 2.69046051734758 3.14159265358979
2  58 30 34 2.69046051734758 3.14159265358979
2  59 30 36 2.69046051734758 3.14159265358979
0

0101000
+161 36 -283 33 *
Ed
 8.42596118007299e-05 1 1 0
1  29 0 3.14159265358979 3.59272478983198
2  63 2 33 3.14159265358979 3.59272478983198
2  64 32 34 3.14159265358979 3.59272478983198
2  65 32 36 3.14159265358979 3.59272478983198
0

0101000
+283 33 -159 36 *
Wi

0101100
+42 47 +160 18 -39 49 -38 49 +156 18 *
Fa
0  8.42596118007299e-05 2 47

0101000
+37 0 *
Ed
 8.42596118007299e-05 1 1 0
1  9 0 298.549999999999 309.550000000001
2  11 2 0 298.549999999999 309.550000000001
0

0101000
+146 48 -140 48 *
Wi

0101100
+35 47 -145 18 -138 18 *
Fa
0  1e-07 53 0

0101000
+34 0 *
Ed
 8.42596118007299e-05 1 1 0
1  30 0 2.69046051734761 3.14159265358979
2  66 2 33 2.69046051734761 3.14159265358979
2  67 33 34 2.69046051734761 3.14159265358979
2  68 33 36 2.69046051734761 3.14159265358979
0

0101000
+144 36 -276 33 *
Ed
 8.42596118007299e-05 1 1 0
1  32 0 3.14159265358979 3.592724789832
2  72 2 33 3.14159265358979 3.592724789832
2  73 35 34 3.14159265358979 3.592724789832
2  74 35 36 3.14159265358979 3.592724789832
0

0101000
+276 33 -142 36 *
Wi

0101100
+35 47 +143 18 -32 49 -31 49 +139 18 *
Fa
0  8.42596118007299e-05 2 47

0101000
+30 0 *
Ed
 8.42596118007299e-05 1 1 0
1  37 0 2.6904605173476 3.59272478983199
2  87 2 33 2.6904605173476 3.59272478983199
2  88 40 34 2.6904605173476 3.59272478983199
2  89 40 36 2.6904605173476 3.59272478983199
0

0101000
+118 36 -125 36 *
Ed
 8.42596118007299e-05 1 1 0
1  1 0 58.5000000000213 69.4999999999789
2  1 2 0 58.5000000000213 69.4999999999789
0

0101000
+120 48 -122 48 *
Wi

0101100
+117 18 -28 49 +121 18 +27 47 *
Fa
0  8.42596118007299e-05 2 47

0101000
+26 0 *
Wi

0101100
-119 18 +27 47 *
Fa
0  1e-07 1 0

0101000
+24 0 *
Ed
 8.42596118007299e-05 1 1 0
1  34 0 2.6904605173476 3.59272478983199
2  78 2 33 2.6904605173476 3.59272478983199
2  79 37 34 2.6904605173476 3.59272478983199
2  80 37 36 2.6904605173476 3.59272478983199
0

0101000
+101 36 -108 36 *
Ed
 8.42596118007299e-05 1 1 0
1  1 0 116.500000000021 127.499999999979
2  1 2 0 116.500000000021 127.499999999979
0

0101000
+103 48 -105 48 *
Wi

0101100
+100 18 -22 49 +104 18 +21 47 *
Fa
0  8.42596118007299e-05 2 47

0101000
+20 0 *
Wi

0101100
+21 47 -102 18 *
Fa
0  1e-07 1 0

0101000
+18 0 *
Ed
 8.4259611748e-05 1 1 0
1  98 0 4 18
2  241 30 0 4 18
2  242 32 0 4 18
4 C2 30 0 32 0
0

0101000
+210 0 -283 47 *
Wi

0101100
-208 7 -81 0 +38 49 +16 0 *
Fa
0  8.4259611748e-05 32 0

0101000
+15 0 *
Wi

0101100
-203 7 -16 0 +39 49 +80 0 *
Fa
0  8.4259611748e-05 30 0

0101000
+13 0 *
Ed
 8.4259611748e-05 1 1 0
1  101 0 4 18
2  247 33 0 4 18
2  248 35 0 4 18
4 C2 33 0 35 0
0

0101000
+220 0 -276 47 *
Wi

0101100
-218 7 -70 0 +31 49 +11 0 *
Fa
0  8.4259611748e-05 35 0

0101000
+10 0 *
Wi

0101100
-213 7 -11 0 +32 49 +69 0 *
Fa
0  8.4259611748e-05 33 0

0101000
+8 0 *
Wi

0101100
-236 7 -63 0 +22 49 +56 0 *
Fa
0  8.4259611748e-05 37 0

0101000
+6 0 *
Wi

0101100
-228 7 -52 0 +28 49 +45 0 *
Fa
0  8.4259611748e-05 40 0

0101000
+4 0 *
Sh

0101100
-331 0 -256 0 -251 0 +190 0 -187 0 +184 0 +181 0 -178 0 -175 0 -172 0 
-169 0 -166 0 -152 0 -149 0 -135 0 -132 0 -129 0 +126 0 -112 0 +109 0 
-95 0 +92 0 +89 0 +87 0 +83 0 +78 0 +76 0 +72 0 +67 0 +65 0 
+60 0 +57 0 +54 0 +49 0 +46 0 +43 0 -40 0 +36 0 -33 0 +29 0 
+25 0 -23 0 +19 0 -17 0 +14 0 +12 0 +9 0 +7 0 +5 0 +3 0 
*
So

0100000
+2 0 *

+1 0 