DBRep_DrawableShape

CASCADE Topology V1, (c) Matra-Datavision
Locations 0
Curve2ds 0
Curves 4
1 264 424.49999999999989 -4.4408920985006262e-16 0 1 0 
2 267 865.00000000000011 -4.4408920985006262e-16 0 -0 1 1 0 0 -0 1 0 3
1 270 424.49999999999989 -4.4408920985006262e-16 0 1 0 
2 267 848.99999999999989 -4.4408920985006262e-16 0 -0 1 1 0 0 -0 1 0 3
Polygon3D 0
PolygonOnTriangulations 0
Surfaces 1
1 267 856.99999999999966 -4.4408920985006262e-16 0 0 1 1 0 -0 -0 1 0 
Triangulations 0

TShapes 11
Ve
1.50000457358414e-07
264 849 6.32086975353256e-14
0 0

0101101
*
Ve
1.50000431310398e-07
264 865 3.7895612573872e-14
0 0

0101101
*
Ed
 1.50000412140547e-07 1 1 0
1  1 0 424.5 440.5
0

0101000
+11 0 -10 0 *
Ve
1.50000431310398e-07
270 865 3.7895612573872e-14
0 0

0101101
*
Ed
 1.5000035485461e-07 1 1 0
1  2 0 6.28318530717959 9.42477796076938
0

0101000
+8 0 -10 0 *
Ve
1.50000457358414e-07
270 849 6.32086975353256e-14
0 0

0101101
*
Ed
 1.50000412140547e-07 1 1 0
1  3 0 424.5 440.5
0

0101000
+6 0 -8 0 *
Ed
 1.5000042553202e-07 1 1 0
1  4 0 3.14159265358979 6.28318530717959
0

0101000
+11 0 -6 0 *
Wi

0101100
+9 0 -7 0 -5 0 -4 0 *
Fa
0  1e-07 1 0

0101000
-3 0 *
Sh

1101000
+2 0 *

+1 0 