DBRep_DrawableShape

CASCADE Topology V1, (c) Matra-Datavision
Locations 37
1
              1               0               0               0 
              0               1               0               0 
              0               0               1               0 
1
              1               0               0               0 
              0 0.985089306859129 0.172043766268355               0 
              0 -0.172043766268355 0.985089306859129               0 
1
              1               0               0             -50 
              0               1               0 -123.121404827417 
              0               0               1 -314.891853689834 
2  1 1 2 1 3 1 0
1
              1               0               0               0 
              0 0.985089306859129 -0.172043766268355              45 
              0 0.172043766268355 0.985089306859129 341.729243052325 
1
              1               0               0               0 
              0               1               0               0 
              0               0               1               0 
2  5 1 6 1 0
2  1 -1 6 -1 5 -1 0
1
              1               0               0               0 
              0 0.985089306859129 -0.172043766268355               0 
              0 0.172043766268355 0.985089306859129               0 
1
              1               0               0               0 
              0               1               0              45 
              0               0               1 341.729243052325 
2  9 1 10 1 0
2  1 -1 0
1
              1               0               0               0 
              0               1               0               0 
              0               0               1               0 
2  9 1 10 1 13 1 0
1
              1               0               0               0 
              0               1               0               0 
              0               0               1 -18.0000000000001 
2  15 -1 3 -1 2 -1 1 -1 0
1
              1               0               0               0 
              0               1               0               0 
              0               0               1               1 
2  17 -1 15 -1 3 -1 2 -1 1 -1 0
1
              1               0               0               0 
              0 0.985089306859129 -0.172043766268355               0 
              0 0.172043766268355 0.985089306859129               0 
1
              1               0               0               0 
              0               1               0              45 
              0               0               1 341.729243052325 
2  19 1 20 1 0
2  1 -1 6 -1 0
1
              1               0               0               0 
              0 0.985089306859129 -0.172043766268355               0 
              0 0.172043766268355 0.985089306859129               0 
1
              1               0               0               0 
              0               1               0              45 
              0               0               1 341.729243052325 
2  23 1 24 1 0
1
              1               0               0               0 
              0 0.985089306859129 -0.172043766268355               0 
              0 0.172043766268355 0.985089306859129               0 
1
              1               0               0               0 
              0               1               0              45 
              0               0               1 341.729243052325 
2  26 1 27 1 0
1
              1               0               0               0 
              0               1               0               0 
              0               0               1              -0 
2  29 -1 3 -1 2 -1 1 -1 0
1
              1               0               0               0 
              0               1               0               0 
              0               0               1               1 
2  31 -1 29 -1 3 -1 2 -1 1 -1 0
2  1 -1 10 -1 9 -1 0
2  1 -1 13 -1 10 -1 9 -1 0
2  1 -1 6 -1 20 -1 19 -1 0
2  1 -1 6 -1 24 -1 23 -1 0
2  1 -1 6 -1 27 -1 26 -1 0
Curve2ds 164
1 18 0 0 -1 
1 0 0 0 1 
1 0 -1020 1 0 
1 0 0 1 0 
1 0 0 0 -1 
1 0 0 0 1 
8 -18.500000000000057 -0.50000000000005684
1 -0.50000000000005684 -87 -1 3.0000000000000001e-17 
8 -18.500000000000057 -0.50000000000005684
1 14.000000000000007 -0.49999999999998351 0 1 
1 0 1020 1 0 
1 18 0 0 1 
1 500 0 0 1 
1 18 0 0 -1 
8 -257 -243
1 243 87.000000000000014 -1 0 
8 -257 -243
1 -243 -18.999999999999972 -1 0 
2 486 79.000000000000028 -1 0 0 1 8.0000000000000018
1 0 -19.000000000000028 1 0 
1 0 0 1 0 
1 0 -1 1 0 
8 -79.500000000000014 -0.49999999999999539
1 478 -0.49999999999999539 0 -1 
8 -79.500000000000014 -0.49999999999999539
1 0.49999999999999245 -19.000000000000007 -1 3.0000000000000001e-17 
1 0 0 1 0 
1 18 0 0 1 
8 -79.500000000000014 -0.49999999999999539
1 22.000000000000007 -0.49999999999999539 -0 -1 
8 -79.500000000000014 -0.49999999999999539
1 0.49999999999999245 -19.000000000000007 -1 3.0000000000000001e-17 
2 14.000000000000007 79.000000000000028 1 0 0 -1 8.0000000000000018
1 6.2831853071795862 -19.000000000000028 -1 0 
1 0 0 1 0 
1 0 -1 1 0 
8 -7.0000000000000071 7
1 7.0000000000000071 87.000000000000014 1 0 
8 -7.0000000000000071 7
1 7 -18.999999999999972 -1 0 
2 168 718 1 0 -0 1 8
1 0 19.000000000000032 1 0 
8 359.00000000000006 453.00000000000006
1 160 359 0 1 
8 359.00000000000006 453.00000000000006
1 19 359.00000000000006 3.0000000000000001e-17 -1 
8 -248 -84
1 84 710 -1 0 
8 -248 -84
1 18.999999999999975 -84 0 -1 
2 168 812 1 0 -0 1 8
1 0 19.000000000000032 1 0 
2 332 718 1 0 -0 1 8
1 0 19.000000000000032 1 0 
8 -248 -84
1 84 819.99999999999989 -1 0 
8 -248 -84
1 19.000000000000053 -84 0 -1 
8 359.00000000000006 453.00000000000006
1 340 359 0 1 
8 359.00000000000006 453.00000000000006
1 19 359.00000000000006 3.0000000000000001e-17 -1 
2 332 812 1 0 -0 1 8
1 0 19.000000000000032 1 0 
2 233 849 1 0 -0 1 3
1 0 19.000000000000032 1 0 
8 424.5 440.5
1 230 424.5 0 1 
8 424.5 440.5
1 19.000000000000014 424.5 3.0000000000000001e-17 -1 
8 424.5 440.5
1 236 424.5 0 1 
8 424.5 440.5
1 19.000000000000014 424.5 3.0000000000000001e-17 -1 
2 233 865 1 0 -0 1 3
1 0 18.999999999999922 1 0 
2 267 849 1 0 -0 1 3
1 0 19.000000000000032 1 0 
8 424.5 440.5
1 264 424.5 0 1 
8 424.5 440.5
1 19.000000000000014 424.5 3.0000000000000001e-17 -1 
8 424.5 440.5
1 270 424.5 0 1 
8 424.5 440.5
1 19.000000000000014 424.5 3.0000000000000001e-17 -1 
2 267 865 1 0 -0 1 3
1 0 18.999999999999922 1 0 
1 0 0 0 1 
1 0 1020 1 0 
1 0 500 1 0 
1 0 -1020 1 0 
1 500 0 0 1 
1 0 0 0 -1 
8 -257 -243
1 243 86.999999999999972 -1 0 
8 -257 -243
1 -243 -1.0000000000000278 -1 0 
2 486 79.000000000000028 -1 0 0 1 8.0000000000000018
1 0 -1.0000000000000788 1 0 
1 0 0 1 0 
1 0 -1 1 0 
8 -79.500000000000014 -0.50000000000000233
1 478 -0.50000000000000233 0 -1 
8 -79.500000000000014 -0.50000000000000233
1 0.49999999999999212 -0.99999999999999756 -1 3.0000000000000001e-17 
1 0 0 1 0 
1 0 0 0 1 
8 -79.500000000000014 -0.50000000000000233
1 22.000000000000007 -0.50000000000000233 -0 -1 
8 -79.500000000000014 -0.50000000000000233
1 0.49999999999999212 -0.99999999999999756 -1 3.0000000000000001e-17 
2 14.000000000000007 79.000000000000028 1 0 0 -1 8.0000000000000018
1 6.2831853071795862 -1.0000000000000788 -1 0 
1 0 0 1 0 
1 0 -1 1 0 
8 -7.0000000000000071 7
1 7.0000000000000071 86.999999999999972 1 0 
8 -7.0000000000000071 7
1 7 -1.0000000000000278 -1 0 
2 168 717.99999999999989 1 0 -0 1 8
1 0 1.0000000000000886 1 0 
8 359.00000000000006 453.00000000000006
1 160 359 0 1 
8 359.00000000000006 453.00000000000006
1 1.0000000000000426 359.00000000000006 3.0000000000000001e-17 -1 
8 -248 -84
1 84 710 -1 0 
8 -248 -84
1 1.0000000000000326 -84 0 -1 
2 168 811.99999999999989 1 0 -0 1 8
1 0 1.0000000000000886 1 0 
2 332 717.99999999999989 1 0 -0 1 8
1 0 1.0000000000000886 1 0 
8 -248 -84
1 84 819.99999999999989 -1 0 
8 -248 -84
1 1.0000000000001084 -84 0 -1 
8 359.00000000000006 453.00000000000006
1 340 359 0 1 
8 359.00000000000006 453.00000000000006
1 1.0000000000000426 359.00000000000006 3.0000000000000001e-17 -1 
2 332 811.99999999999989 1 0 -0 1 8
1 0 1.0000000000000886 1 0 
2 233 848.99999999999989 1 0 -0 1 3
1 0 1.0000000000000886 1 0 
8 424.5 440.5
1 230 424.5 0 1 
8 424.5 440.5
1 1.0000000000000568 424.5 3.0000000000000001e-17 -1 
8 424.5 440.5
1 236 424.5 0 1 
8 424.5 440.5
1 1.0000000000000568 424.5 3.0000000000000001e-17 -1 
2 233 865 1 0 -0 1 3
1 0 0.99999999999995726 1 0 
2 267 848.99999999999989 1 0 -0 1 3
1 0 1.0000000000000886 1 0 
8 424.5 440.5
1 264 424.5 0 1 
8 424.5 440.5
1 1.0000000000000568 424.5 3.0000000000000001e-17 -1 
8 424.5 440.5
1 270 424.5 0 1 
8 424.5 440.5
1 1.0000000000000568 424.5 3.0000000000000001e-17 -1 
2 267 865 1 0 -0 1 3
1 0 0.99999999999995726 1 0 
1 0 -0 0 -1 
1 1.5707963267948966 0 0 -1 
8 0.50000000000005684 18.500000000000057
1 -0.50000000000005684 -87 1 -3.0000000000000001e-17 
8 0.50000000000005684 18.500000000000057
1 13.999999999999886 -0.49999999999998351 0 -1 
1 0 0 0 -1 
1 1.5707963267948966 0 0 -1 
1 0 0 0 -1 
1 80 -0 0 -1 
8 0.50000000000003941 18.500000000000039
1 0.99999999999998979 -0.49999999999998879 -3.0000000000000001e-17 -1 
8 0.50000000000003941 18.500000000000039
1 -0.50000000000003941 478 1 0 
8 0.50000000000003941 18.500000000000039
1 -0.50000000000003941 22.000000000000007 1 0 
8 0.50000000000003941 18.500000000000039
1 0.99999999999998979 -0.49999999999998879 -3.0000000000000001e-17 -1 
1 80 0 0 -1 
1 0 0 0 -1 
1 4.7123889803846897 0 0 1 
1 0 0 1 0 
1 3.1415926535897931 0 0 1 
1 0 0 1 0 
1 0 -94 1 0 
1 3.1415926535897931 0 0 1 
1 0 164 1 0 
1 4.7123889803846897 0 0 1 
1 1.5707963267948966 0 0 1 
1 0 0 1 0 
8 0 20
1 6.2831853071795862 -0 0 1 
1 0 0 1 0 
1 0 164 1 0 
1 1.5707963267948966 0 0 1 
1 0 -94 1 0 
8 0 20
1 0 0 0 1 
1 3.1415926535897931 0 0 1 
1 0 0 1 0 
8 0 20
1 6.2831853071795862 -0 0 1 
1 0 0 1 0 
1 0 -16 1 0 
1 3.1415926535897931 0 0 1 
1 0 -16 1 0 
8 0 20
1 0 0 0 1 
1 3.1415926535897931 0 0 1 
1 0 0 1 0 
8 0 20
1 6.2831853071795862 -0 0 1 
1 0 0 1 0 
1 0 -16 1 0 
1 3.1415926535897931 0 0 1 
1 0 -16 1 0 
8 0 20
1 0 0 0 1 
Curves 78
1 50 20 4 -0 1 0 
1 50 1040 -14 0 0 1 
1 50 20 -14 -0 1 0 
1 49.999999999999993 152.89919044481798 345.85413109358194 0 0.17204376626835499 -0.98508930685912921 
1 50 1040 4 1 0 -0 
1 550 20 4 -0 1 0 
1 293 149.71638076885341 364.07828327047582 -1 0 0 
2 536 141.8356663139804 362.701933140329 0 0.17204376626835499 -0.98508930685912921 -1 0 -0 0 0.98508930685912921 0.17204376626835499 8.0000000000000018
1 528 63.521066418679602 349.0244537219948 0 -0.98508930685912921 -0.17204376626835502 
1 50 20 4 1 0 -0 
1 72 63.521066418679602 349.0244537219948 -0 -0.98508930685912921 -0.17204376626835502 
2 64 141.8356663139804 362.701933140329 0 0.17204376626835499 -0.98508930685912921 1 0 0 0 -0.98508930685912921 -0.17204376626835499 8.0000000000000018
1 57 149.71638076885341 364.07828327047582 1 0 0 
2 218 771.30773339696395 472.63789978580792 0 -0.17204376626835499 0.98508930685912921 1 0 0 -0 0.98508930685912921 0.17204376626835499 8
1 210 417.66067223453655 410.87418769546844 -0 0.98508930685912921 0.17204376626835502 
1 134 763.42701894209085 471.26154965566104 -1 0 0 
2 218 863.90612824172206 488.8100138150333 0 -0.17204376626835499 0.98508930685912921 1 0 0 -0 0.98508930685912921 0.17204376626835499 8
2 382 771.30773339696395 472.63789978580792 0 -0.17204376626835499 0.98508930685912921 1 0 0 -0 0.98508930685912921 0.17204376626835499 8
1 134 871.78684269659493 490.18636394518012 -1 0 0 
1 390 417.66067223453655 410.87418769546844 -0 0.98508930685912921 0.17204376626835502 
2 382 863.90612824172206 488.8100138150333 0 -0.17204376626835499 0.98508930685912921 1 0 0 -0 0.98508930685912921 0.17204376626835499 8
2 283 900.35443259550982 495.17563316696243 0 -0.17204376626835499 0.98508930685912921 1 0 0 -0 0.98508930685912921 0.17204376626835499 3
1 280 482.18402183380948 422.14305438604572 -0 0.98508930685912921 0.17204376626835502 
1 286 482.18402183380948 422.14305438604572 -0 0.98508930685912921 0.17204376626835502 
2 283 916.11586150525591 497.92833342725601 0 -0.17204376626835499 0.98508930685912921 1 0 0 -0 0.98508930685912921 0.17204376626835499 3
2 317 900.35443259550982 495.17563316696243 0 -0.17204376626835499 0.98508930685912921 1 0 0 -0 0.98508930685912921 0.17204376626835499 3
1 314 482.18402183380948 422.14305438604572 -0 0.98508930685912921 0.17204376626835502 
1 320 482.18402183380948 422.14305438604572 -0 0.98508930685912921 0.17204376626835502 
2 317 916.11586150525591 497.92833342725601 0 -0.17204376626835499 0.98508930685912921 1 0 0 -0 0.98508930685912921 0.17204376626835499 3
1 50 1040 -14 1 0 -0 
1 550 1040 -14 0 0 1 
1 550 20 -14 -0 1 0 
1 293 152.81316856168377 346.34667574701155 -1 0 0 
2 536 144.93245410681078 344.97032561686473 0 0.17204376626835499 -0.98508930685912921 -1 0 -0 0 0.98508930685912921 0.17204376626835499 8.0000000000000018
1 528 66.617854211509993 331.29284619853047 0 -0.98508930685912921 -0.17204376626835502 
1 50 20 -14 1 0 -0 
1 72 66.617854211509993 331.29284619853047 -0 -0.98508930685912921 -0.17204376626835502 
2 64 144.93245410681078 344.97032561686473 0 0.17204376626835499 -0.98508930685912921 1 0 0 0 -0.98508930685912921 -0.17204376626835499 8.0000000000000018
1 57 152.81316856168377 346.34667574701155 1 0 0 
2 218 774.40452118979431 454.90629226234364 0 -0.17204376626835499 0.98508930685912921 1 0 0 -0 0.98508930685912921 0.17204376626835499 8
1 210 420.75746002736696 393.14258017200416 -0 0.98508930685912921 0.17204376626835502 
1 134 766.52380673492121 453.52994213219677 -1 0 0 
2 218 867.00291603455241 471.07840629156902 0 -0.17204376626835499 0.98508930685912921 1 0 0 -0 0.98508930685912921 0.17204376626835499 8
2 382 774.40452118979431 454.90629226234364 0 -0.17204376626835499 0.98508930685912921 1 0 0 -0 0.98508930685912921 0.17204376626835499 8
1 134 874.88363048942529 472.45475642171584 -1 0 0 
1 390 420.75746002736696 393.14258017200416 -0 0.98508930685912921 0.17204376626835502 
2 382 867.00291603455241 471.07840629156902 0 -0.17204376626835499 0.98508930685912921 1 0 0 -0 0.98508930685912921 0.17204376626835499 8
2 283 903.45122038834018 477.44402564349815 0 -0.17204376626835499 0.98508930685912921 1 0 0 -0 0.98508930685912921 0.17204376626835499 3
1 280 485.28080962663989 404.41144686258144 -0 0.98508930685912921 0.17204376626835502 
1 286 485.28080962663989 404.41144686258144 -0 0.98508930685912921 0.17204376626835502 
2 283 919.21264929808638 480.19672590379173 0 -0.17204376626835499 0.98508930685912921 1 0 0 -0 0.98508930685912921 0.17204376626835499 3
2 317 903.45122038834018 477.44402564349815 0 -0.17204376626835499 0.98508930685912921 1 0 0 -0 0.98508930685912921 0.17204376626835499 3
1 314 485.28080962663989 404.41144686258144 -0 0.98508930685912921 0.17204376626835502 
1 320 485.28080962663989 404.41144686258144 -0 0.98508930685912921 0.17204376626835502 
2 317 919.21264929808638 480.19672590379173 0 -0.17204376626835499 0.98508930685912921 1 0 0 -0 0.98508930685912921 0.17204376626835499 3
1 64 107 -15.000000000000057 0 0 1 
1 549.99999999999989 152.89919044481798 345.85413109358194 0 -0.17204376626835499 0.98508930685912921 
1 536 107 -15.000000000000057 -0 -0 1 
1 528 99 -15.000000000000057 -0 -0 1 
1 528 67.196420748073734 330.88632342823507 0 -0.17204376626835502 0.98508930685912921 
1 72 67.196420748073734 330.88632342823507 0 -0.17204376626835502 0.98508930685912921 
1 72 99 -15.000000000000057 0 0 1 
1 218 730 -15 0 0 1 
1 210 738 -15 0 0 1 
1 210 832 -15 0 0 1 
1 382 730 -15 0 0 1 
1 218 840 -15 0 0 1 
1 390 738 -15 0 0 1 
1 382 840 -15 0 0 1 
1 390 832 -15 0 0 1 
1 280 869 -15 0 0 1 
1 286 869 -15 0 0 1 
1 280 885 -15 0 0 1 
1 286 885 -15 0 0 1 
1 314 869 -15 0 0 1 
1 320 869 -15 0 0 1 
1 314 885 -15 0 0 1 
1 320 885 -15 0 0 1 
Polygon3D 0
PolygonOnTriangulations 0
Surfaces 32
1 50 20 -14 1 0 -0 0 0 1 0 -1 0 
1 50 20 4 0 0 1 1 0 -0 -0 1 0 
1 50 1040 -14 -0 1 0 0 0 1 1 0 -0 
1 50 20 -14 0 0 1 1 0 -0 -0 1 0 
1 64 107 -15.000000000000057 0 -1 0 -1 0 0 -0 -0 -1 
1 550 20 -14 1 0 -0 0 0 1 0 -1 0 
1 536 107 -15.000000000000057 -0 -1 -0 1 -0 0 0 -0 -1 
2 536 99 -15.000000000000057 0 -0 -1 -1 -0 0 -0 1 -0 8.0000000000000018
2 486 79.000000000000028 -1.1368683772161603e-13 0 -2.7755575615628914e-17 -1 -1 0 -0 0 1 -2.7755575615628914e-17 8.0000000000000018
1 528 18.999999999999996 -15.000000000000057 1 -0 -0 0 1 -0 -0 -0 -1 
1 50 20 -14 -0 1 0 0 0 1 1 0 -0 
1 72 18.999999999999996 -15.000000000000057 -1 0 0 0 1 0 0 0 -1 
2 64 99 -15.000000000000057 -0 -0 -1 1 0 -0 -0 1 -0 8.0000000000000018
2 14.000000000000007 79.000000000000028 -1.1368683772161603e-13 0 -2.7755575615628914e-17 -1 1 0 0 0 -1 2.7755575615628914e-17 8.0000000000000018
2 218 738 -15 0 0 1 1 0 -0 -0 1 0 8
1 210 738 -15 1 0 -0 0 0 1 0 -1 0 
1 218 730 -15 -0 1 0 0 0 1 1 0 -0 
2 218 832 -15 0 0 1 1 0 -0 -0 1 0 8
2 382 738 -15 0 0 1 1 0 -0 -0 1 0 8
1 218 840 -15 -0 1 0 0 0 1 1 0 -0 
1 390 738 -15 1 0 -0 0 0 1 0 -1 0 
2 382 832 -15 0 0 1 1 0 -0 -0 1 0 8
2 283 869 -15 0 0 1 1 0 -0 -0 1 0 3
1 280 869 -15 1 0 -0 0 0 1 0 -1 0 
1 286 869 -15 1 0 -0 0 0 1 0 -1 0 
2 283 885 -15 0 0 1 1 0 -0 -0 1 0 3
2 317 869 -15 0 0 1 1 0 -0 -0 1 0 3
1 314 869 -15 1 0 -0 0 0 1 0 -1 0 
1 320 869 -15 1 0 -0 0 0 1 0 -1 0 
2 317 885 -15 0 0 1 1 0 -0 -0 1 0 3
2 486 79.000000000000028 0 0 -2.7755575615628914e-17 -1 -1 0 -0 0 1 -2.7755575615628914e-17 8.0000000000000018
2 14.000000000000007 79.000000000000028 0 0 -2.7755575615628914e-17 -1 1 0 0 0 -1 2.7755575615628914e-17 8.0000000000000018
Triangulations 0

TShapes 195
Ve
1.50000064e-07
50 149.716380768853 364.078283270476
0 0

0101101
*
Ve
1.5e-07
50 1068.80470406842 524.595117198851
0 0

0101101
*
Ed
 1.5e-07 1 1 0
1  1 0 87 1020
2  1 1 0 87 1020
2  2 2 0 87 1020
0

0101000
+195 8 -194 8 *
Ve
1.5e-07
50 1071.90149186125 506.863509675387
0 0

0101101
*
Ed
 1e-07 1 1 0
1  2 0 0 18
2  3 1 0 0 18
2  4 3 0 0 18
0

0101000
-194 8 +192 8 *
Ve
1.50000028e-07
50 152.813168561684 346.346675747012
0 0

0101101
*
Ed
 1.5e-07 1 1 0
1  3 0 87 1020
2  5 1 0 87 1020
2  6 4 0 87 1020
0

0101000
+190 8 -192 8 *
Ed
 1.5e-07 1 1 0
1  4 0 -18.5000000000001 -0.500000000000057
2  7 1 7 -18.5000000000001 -0.500000000000057
2  8 5 11 -18.5000000000001 -0.500000000000057
0

0101000
+195 12 -190 12 *
Wi

0101100
-193 7 +191 7 +189 7 +188 0 *
Fa
0  1e-07 1 7

0111000
+187 0 *
Ve
1.5e-07
550 1068.80470406842 524.595117198851
0 0

0101101
*
Ed
 1.5e-07 1 1 0
1  5 0 0 500
2  9 2 0 0 500
2  10 3 0 0 500
0

0101000
-185 8 +194 8 *
Ve
1.5000013e-07
550 149.716380768853 364.078283270476
0 0

0101101
*
Ed
 1.5e-07 1 1 0
1  6 0 87 1020
2  11 2 0 87 1020
2  12 6 0 87 1020
0

0101000
+183 8 -185 8 *
Ve
1.50000057e-07
536 149.716380768853 364.078283270476
0 0

0101101
*
Ed
 1.5e-07 1 1 0
1  7 0 -257 -243
2  13 2 7 -257 -243
2  14 7 14 -257 -243
0

0101000
+183 12 -181 12 *
Ve
1.50000064e-07
528 141.83566631398 362.701933140329
0 0

0101101
*
Ed
 1.5e-07 1 1 0
1  8 0 0 1.5707963267949
2  15 2 7 0 1.5707963267949
2  16 8 14 0 1.5707963267949
2  17 9 16 0 1.5707963267949
2  18 9 18 0 1.5707963267949
0

0101000
+179 12 -181 12 *
Ve
1.50000057e-07
528 64.0136110721092 349.110475605129
0 0

0101101
*
Ed
 1.5e-07 1 1 0
1  9 0 -79.5 -0.499999999999995
2  19 2 7 -79.5 -0.499999999999995
2  20 10 14 -79.5 -0.499999999999995
0

0101000
+179 12 -177 12 *
Ve
1.50000057e-07
72 64.0136110721092 349.110475605129
0 0

0101101
*
Ed
 1.5e-07 1 1 0
1  10 0 22 478
2  21 2 0 22 478
2  22 11 0 22 478
0

0101000
+175 8 -177 8 *
Ve
1.50000064e-07
72 141.83566631398 362.701933140329
0 0

0101101
*
Ed
 1.5e-07 1 1 0
1  11 0 -79.5 -0.499999999999995
2  23 2 7 -79.5 -0.499999999999995
2  24 12 11 -79.5 -0.499999999999995
0

0101000
+173 12 -175 12 *
Ve
1.50000057e-07
64 149.716380768853 364.078283270476
0 0

0101101
*
Ed
 1.5e-07 1 1 0
1  12 0 4.71238898038469 6.28318530717959
2  25 2 7 4.71238898038469 6.28318530717959
2  26 13 11 4.71238898038469 6.28318530717959
2  27 14 16 4.71238898038469 6.28318530717959
2  28 14 18 4.71238898038469 6.28318530717959
0

0101000
+171 12 -173 12 *
Ed
 1.5e-07 1 1 0
1  13 0 -7.00000000000001 7
2  29 2 7 -7.00000000000001 7
2  30 5 11 -7.00000000000001 7
0

0101000
+195 12 -171 12 *
Wi

0101100
-193 7 -184 7 +182 7 -180 0 +178 0 -176 0 +174 7 +172 0 +170 0 +169 0 
*
Ve
1.50000114e-07
210 771.307733396964 472.637899785808
0 0

0101101
*
Ve
1.5e-07
218 763.427018942091 471.261549655661
0 0

0101101
*
Ed
 1e-07 1 1 0
1  14 0 3.14159265358979 4.71238898038469
2  31 2 5 3.14159265358979 4.71238898038469
2  32 15 21 3.14159265358979 4.71238898038469
0

0101000
+167 22 -166 22 *
Ve
1.50000127e-07
210 863.906128241722 488.810013815033
0 0

0101101
*
Ed
 1.5e-07 1 1 0
1  15 0 359 453
2  33 2 5 359 453
2  34 16 21 359 453
0

0101000
+167 22 -164 22 *
Ve
1.5e-07
382 763.427018942091 471.261549655661
0 0

0101101
*
Ed
 1.5e-07 1 1 0
1  16 0 -248 -84
2  35 2 5 -248 -84
2  36 17 21 -248 -84
0

0101000
+162 22 -166 22 *
Ve
1.50000114e-07
218 871.786842696595 490.18636394518
0 0

0101101
*
Ed
 1e-07 1 1 0
1  17 0 1.5707963267949 3.14159265358979
2  37 2 5 1.5707963267949 3.14159265358979
2  38 18 21 1.5707963267949 3.14159265358979
0

0101000
+160 22 -164 22 *
Ve
1.50000114e-07
390 771.307733396964 472.637899785808
0 0

0101101
*
Ed
 1e-07 1 1 0
1  18 0 4.71238898038469 6.28318530717959
2  39 2 5 4.71238898038469 6.28318530717959
2  40 19 21 4.71238898038469 6.28318530717959
0

0101000
+162 22 -158 22 *
Ve
1.50000114e-07
382 871.786842696595 490.18636394518
0 0

0101101
*
Ed
 1.5e-07 1 1 0
1  19 0 -248 -84
2  41 2 5 -248 -84
2  42 20 21 -248 -84
0

0101000
+156 22 -160 22 *
Ve
1.50000127e-07
390 863.906128241722 488.810013815033
0 0

0101101
*
Ed
 1.5e-07 1 1 0
1  20 0 359 453
2  43 2 5 359 453
2  44 21 21 359 453
0

0101000
+158 22 -154 22 *
Ed
 1e-07 1 1 0
1  21 0 0 1.5707963267949
2  45 2 5 0 1.5707963267949
2  46 22 21 0 1.5707963267949
0

0101000
+154 22 -156 22 *
Wi

0101100
-165 6 +163 6 +161 6 -159 6 -157 6 -155 6 -153 6 -152 6 *
Ve
1.5e-07
280 900.35443259551 495.175633166962
0 0

0101101
*
Ve
1.5e-07
286 900.35443259551 495.175633166962
0 0

0101101
*
Ed
 1e-07 1 1 0
1  22 0 3.14159265358979 6.28318530717959
2  47 2 5 3.14159265358979 6.28318530717959
2  48 23 25 3.14159265358979 6.28318530717959
0

0101000
+150 22 -149 22 *
Ve
1.5e-07
280 916.115861505256 497.928333427256
0 0

0101101
*
Ed
 1.5e-07 1 1 0
1  23 0 424.5 440.5
2  49 2 5 424.5 440.5
2  50 24 25 424.5 440.5
0

0101000
+150 22 -147 22 *
Ve
1.5e-07
286 916.115861505256 497.928333427256
0 0

0101101
*
Ed
 1.5e-07 1 1 0
1  24 0 424.5 440.5
2  51 2 5 424.5 440.5
2  52 25 25 424.5 440.5
0

0101000
+149 22 -145 22 *
Ed
 1e-07 1 1 0
1  25 0 0 3.14159265358979
2  53 2 5 0 3.14159265358979
2  54 26 25 0 3.14159265358979
0

0101000
+145 22 -147 22 *
Wi

0101100
-148 6 +146 6 -144 6 -143 6 *
Ve
1.5e-07
314 900.35443259551 495.175633166962
0 0

0101101
*
Ve
1.5e-07
320 900.35443259551 495.175633166962
0 0

0101101
*
Ed
 1e-07 1 1 0
1  26 0 3.14159265358979 6.28318530717959
2  55 2 5 3.14159265358979 6.28318530717959
2  56 27 28 3.14159265358979 6.28318530717959
0

0101000
+141 22 -140 22 *
Ve
1.5e-07
314 916.115861505256 497.928333427256
0 0

0101101
*
Ed
 1.5e-07 1 1 0
1  27 0 424.5 440.5
2  57 2 5 424.5 440.5
2  58 28 28 424.5 440.5
0

0101000
+141 22 -138 22 *
Ve
1.5e-07
320 916.115861505256 497.928333427256
0 0

0101101
*
Ed
 1.5e-07 1 1 0
1  28 0 424.5 440.5
2  59 2 5 424.5 440.5
2  60 29 28 424.5 440.5
0

0101000
+140 22 -136 22 *
Ed
 1e-07 1 1 0
1  29 0 0 3.14159265358979
2  61 2 5 0 3.14159265358979
2  62 30 28 0 3.14159265358979
0

0101000
+136 22 -138 22 *
Wi

0101100
-139 6 +137 6 -135 6 -134 6 *
Fa
0  1e-07 2 7

0111000
+168 0 +151 0 +142 0 +133 0 *
Ve
1.5e-07
550 1071.90149186125 506.863509675387
0 0

0101101
*
Ed
 1.5e-07 1 1 0
1  30 0 0 500
2  63 3 0 0 500
2  64 4 0 0 500
0

0101000
-131 8 +192 8 *
Ed
 1e-07 1 1 0
1  31 0 0 18
2  65 3 0 0 18
2  66 6 0 0 18
0

0101000
-185 8 +131 8 *
Wi

0101100
-130 0 -129 0 +184 0 +191 0 *
Fa
0  1e-07 3 0

0111000
+128 0 *
Ve
1.50000114e-07
550 152.813168561684 346.346675747012
0 0

0101101
*
Ed
 1.5e-07 1 1 0
1  32 0 87 1020
2  67 4 0 87 1020
2  68 6 0 87 1020
0

0101000
+126 8 -131 8 *
Ve
1.50000028e-07
536 152.813168561684 346.346675747012
0 0

0101101
*
Ed
 1.5e-07 1 1 0
1  33 0 -257 -243
2  69 4 7 -257 -243
2  70 7 14 -257 -243
0

0101000
+126 12 -124 12 *
Ve
1.50000057e-07
528 144.932454106811 344.970325616865
0 0

0101101
*
Ed
 1.5e-07 1 1 0
1  34 0 0 1.5707963267949
2  71 4 7 0 1.5707963267949
2  72 8 14 0 1.5707963267949
2  73 31 30 0 1.5707963267949
2  74 31 32 0 1.5707963267949
0

0101000
+122 12 -124 12 *
Ve
1.50000057e-07
528 67.1103988649396 331.378868081665
0 0

0101101
*
Ed
 1.5e-07 1 1 0
1  35 0 -79.5 -0.500000000000002
2  75 4 7 -79.5 -0.500000000000002
2  76 10 14 -79.5 -0.500000000000002
0

0101000
+122 12 -120 12 *
Ve
1.50000057e-07
72 67.1103988649396 331.378868081665
0 0

0101101
*
Ed
 1.5e-07 1 1 0
1  36 0 22 478
2  77 4 0 22 478
2  78 11 0 22 478
0

0101000
+118 8 -120 8 *
Ve
1.50000057e-07
72 144.932454106811 344.970325616865
0 0

0101101
*
Ed
 1.5e-07 1 1 0
1  37 0 -79.5 -0.500000000000002
2  79 4 7 -79.5 -0.500000000000002
2  80 12 11 -79.5 -0.500000000000002
0

0101000
+116 12 -118 12 *
Ve
1.50000028e-07
64 152.813168561684 346.346675747012
0 0

0101101
*
Ed
 1.5e-07 1 1 0
1  38 0 4.71238898038469 6.28318530717959
2  81 4 7 4.71238898038469 6.28318530717959
2  82 13 11 4.71238898038469 6.28318530717959
2  83 32 30 4.71238898038469 6.28318530717959
2  84 32 32 4.71238898038469 6.28318530717959
0

0101000
+114 12 -116 12 *
Ed
 1.5e-07 1 1 0
1  39 0 -7.00000000000001 7
2  85 4 7 -7.00000000000001 7
2  86 5 11 -7.00000000000001 7
0

0101000
+190 12 -114 12 *
Wi

0101100
-189 7 -130 7 +125 7 -123 0 +121 0 -119 0 +117 7 +115 0 +113 0 +112 0 
*
Ve
1.50000114e-07
210 774.404521189794 454.906292262344
0 0

0101101
*
Ve
1.50000114e-07
218 766.523806734921 453.529942132197
0 0

0101101
*
Ed
 1e-07 1 1 0
1  40 0 3.14159265358979 4.71238898038469
2  87 4 5 3.14159265358979 4.71238898038469
2  88 15 21 3.14159265358979 4.71238898038469
0

0101000
+110 22 -109 22 *
Ve
1.50000127e-07
210 867.002916034552 471.078406291569
0 0

0101101
*
Ed
 1.5e-07 1 1 0
1  41 0 359 453
2  89 4 5 359 453
2  90 16 21 359 453
0

0101000
+110 22 -107 22 *
Ve
1.50000114e-07
382 766.523806734921 453.529942132197
0 0

0101101
*
Ed
 1.5e-07 1 1 0
1  42 0 -248 -84
2  91 4 5 -248 -84
2  92 17 21 -248 -84
0

0101000
+105 22 -109 22 *
Ve
1.50000114e-07
218 874.883630489425 472.454756421716
0 0

0101101
*
Ed
 1e-07 1 1 0
1  43 0 1.5707963267949 3.14159265358979
2  93 4 5 1.5707963267949 3.14159265358979
2  94 18 21 1.5707963267949 3.14159265358979
0

0101000
+103 22 -107 22 *
Ve
1.50000114e-07
390 774.404521189794 454.906292262344
0 0

0101101
*
Ed
 1e-07 1 1 0
1  44 0 4.71238898038469 6.28318530717959
2  95 4 5 4.71238898038469 6.28318530717959
2  96 19 21 4.71238898038469 6.28318530717959
0

0101000
+105 22 -101 22 *
Ve
1.50000114e-07
382 874.883630489425 472.454756421716
0 0

0101101
*
Ed
 1.5e-07 1 1 0
1  45 0 -248 -84
2  97 4 5 -248 -84
2  98 20 21 -248 -84
0

0101000
+99 22 -103 22 *
Ve
1.50000127e-07
390 867.002916034552 471.078406291569
0 0

0101101
*
Ed
 1.5e-07 1 1 0
1  46 0 359 453
2  99 4 5 359 453
2  100 21 21 359 453
0

0101000
+101 22 -97 22 *
Ed
 1e-07 1 1 0
1  47 0 0 1.5707963267949
2  101 4 5 0 1.5707963267949
2  102 22 21 0 1.5707963267949
0

0101000
+97 22 -99 22 *
Wi

0101100
-108 6 +106 6 +104 6 -102 6 -100 6 -98 6 -96 6 -95 6 *
Ve
1.50000114e-07
280 903.45122038834 477.444025643498
0 0

0101101
*
Ve
1.50000114e-07
286 903.45122038834 477.444025643498
0 0

0101101
*
Ed
 1e-07 1 1 0
1  48 0 3.14159265358979 6.28318530717959
2  103 4 5 3.14159265358979 6.28318530717959
2  104 23 25 3.14159265358979 6.28318530717959
0

0101000
+93 22 -92 22 *
Ve
1.50000127e-07
280 919.212649298086 480.196725903792
0 0

0101101
*
Ed
 1.5e-07 1 1 0
1  49 0 424.5 440.5
2  105 4 5 424.5 440.5
2  106 24 25 424.5 440.5
0

0101000
+93 22 -90 22 *
Ve
1.50000127e-07
286 919.212649298086 480.196725903792
0 0

0101101
*
Ed
 1.5e-07 1 1 0
1  50 0 424.5 440.5
2  107 4 5 424.5 440.5
2  108 25 25 424.5 440.5
0

0101000
+92 22 -88 22 *
Ed
 1e-07 1 1 0
1  51 0 0 3.14159265358979
2  109 4 5 0 3.14159265358979
2  110 26 25 0 3.14159265358979
0

0101000
+88 22 -90 22 *
Wi

0101100
-91 6 +89 6 -87 6 -86 6 *
Ve
1.50000114e-07
314 903.45122038834 477.444025643498
0 0

0101101
*
Ve
1.50000114e-07
320 903.45122038834 477.444025643498
0 0

0101101
*
Ed
 1e-07 1 1 0
1  52 0 3.14159265358979 6.28318530717959
2  111 4 5 3.14159265358979 6.28318530717959
2  112 27 28 3.14159265358979 6.28318530717959
0

0101000
+84 22 -83 22 *
Ve
1.50000127e-07
314 919.212649298086 480.196725903792
0 0

0101101
*
Ed
 1.5e-07 1 1 0
1  53 0 424.5 440.5
2  113 4 5 424.5 440.5
2  114 28 28 424.5 440.5
0

0101000
+84 22 -81 22 *
Ve
1.50000127e-07
320 919.212649298086 480.196725903792
0 0

0101101
*
Ed
 1.5e-07 1 1 0
1  54 0 424.5 440.5
2  115 4 5 424.5 440.5
2  116 29 28 424.5 440.5
0

0101000
+83 22 -79 22 *
Ed
 1e-07 1 1 0
1  55 0 0 3.14159265358979
2  117 4 5 0 3.14159265358979
2  118 30 28 0 3.14159265358979
0

0101000
+79 22 -81 22 *
Wi

0101100
-82 6 +80 6 -78 6 -77 6 *
Fa
0  1e-07 4 7

0111000
+111 0 +94 0 +85 0 +76 0 *
Ed
 1e-07 1 1 0
1  56 0 1.00000000000002 19
2  119 5 0 1.00000000000002 19
2  120 13 0 1.00000000000002 19
4 G1 5 0 13 0
0

0101000
+114 33 -171 33 *
Wi

0101100
+112 0 +188 0 -169 0 +74 11 *
Fa
0  1e-07 5 11

0111000
+73 0 *
Ed
 1.5e-07 1 1 0
1  57 0 0.500000000000057 18.5000000000001
2  121 6 7 0.500000000000057 18.5000000000001
2  122 7 14 0.500000000000057 18.5000000000001
0

0101000
+126 12 -183 12 *
Wi

0101100
-182 7 +129 7 +125 7 -71 0 *
Fa
0  1e-07 6 7

0111000
+70 0 *
Ed
 1e-07 1 1 0
1  58 0 1.00000000000002 19
2  123 7 0 1.00000000000002 19
2  124 8 0 1.00000000000002 19
4 G1 7 0 8 0
0

0101000
+124 34 -181 34 *
Wi

0101100
+123 0 -71 0 -180 0 +68 14 *
Fa
0  1e-07 7 14

0111000
+67 0 *
Ed
 1e-07 1 1 0
1  59 0 1.00000000000008 19.0000000000001
2  125 8 0 1.00000000000008 19.0000000000001
2  126 10 0 1.00000000000008 19.0000000000001
4 G1 8 0 10 0
0

0101000
+122 34 -179 34 *
Wi

0101100
-121 0 -68 14 +178 0 +65 14 *
Fa
0  1e-07 8 14

0111000
+64 0 *
Ed
 1.5e-07 1 1 0
1  60 0 0.500000000000039 18.5
2  127 10 14 0.500000000000039 18.5
2  128 11 7 0.500000000000039 18.5
0

0101000
+120 12 -177 12 *
Wi

0101100
-65 14 -176 0 +62 0 +119 0 *
Fa
0  1e-07 10 14

0111000
+61 0 *
Ed
 1.5e-07 1 1 0
1  61 0 0.500000000000039 18.5
2  129 11 7 0.500000000000039 18.5
2  130 12 11 0.500000000000039 18.5
0

0101000
+118 12 -175 12 *
Wi

0101100
-117 7 -62 0 +174 7 +59 0 *
Fa
0  1e-07 11 7

0111000
+58 0 *
Ed
 1e-07 1 1 0
1  62 0 1.00000000000008 19.0000000000001
2  131 12 0 1.00000000000008 19.0000000000001
2  132 13 0 1.00000000000008 19.0000000000001
4 G1 12 0 13 0
0

0101000
+116 33 -173 33 *
Wi

0101100
-56 11 -172 0 +59 0 +115 0 *
Fa
0  1e-07 12 11

0111000
+55 0 *
Wi

0101100
+113 0 -74 11 -170 0 +56 11 *
Fa
0  1e-07 13 11

0111000
+53 0 *
Ed
 1e-07 1 1 0
1  63 0 1.00000000000001 19
2  133 15 0 1.00000000000001 19
2  134 17 0 1.00000000000001 19
0

0101000
+109 35 -166 35 *
Ed
 1e-07 1 1 0
1  64 0 1.00000000000009 19
2  135 15 0 1.00000000000009 19
2  136 16 0 1.00000000000009 19
0

0101000
+110 35 -167 35 *
Wi

0101100
-165 0 +51 21 +108 0 -50 21 *
Fa
0  1e-07 15 21

0111000
+49 0 *
Ed
 1e-07 1 1 0
1  65 0 1.00000000000009 19
2  137 16 0 1.00000000000009 19
2  138 18 0 1.00000000000009 19
0

0101000
+107 35 -164 35 *
Wi

0101100
-50 21 -163 0 +47 21 +106 0 *
Fa
0  1e-07 16 21

0111000
+46 0 *
Ed
 1e-07 1 1 0
1  66 0 1.00000000000001 19
2  139 17 0 1.00000000000001 19
2  140 19 0 1.00000000000001 19
0

0101000
+105 35 -162 35 *
Wi

0101100
+104 0 -44 21 -161 0 +51 21 *
Fa
0  1e-07 17 21

0111000
+43 0 *
Ed
 1e-07 1 1 0
1  67 0 1.00000000000009 19
2  141 18 0 1.00000000000009 19
2  142 20 0 1.00000000000009 19
0

0101000
+103 35 -160 35 *
Wi

0101100
-159 0 +47 21 +102 0 -41 21 *
Fa
0  1e-07 18 21

0111000
+40 0 *
Ed
 1e-07 1 1 0
1  68 0 1.00000000000009 19
2  143 19 0 1.00000000000009 19
2  144 21 0 1.00000000000009 19
0

0101000
+101 35 -158 35 *
Wi

0101100
-157 0 +38 21 +100 0 -44 21 *
Fa
0  1e-07 19 21

0111000
+37 0 *
Ed
 1e-07 1 1 0
1  69 0 1.00000000000009 19
2  145 20 0 1.00000000000009 19
2  146 22 0 1.00000000000009 19
0

0101000
+99 35 -156 35 *
Wi

0101100
+98 0 -35 21 -155 0 +41 21 *
Fa
0  1e-07 20 21

0111000
+34 0 *
Ed
 1e-07 1 1 0
1  70 0 1.00000000000009 19
2  147 21 0 1.00000000000009 19
2  148 22 0 1.00000000000009 19
0

0101000
+97 35 -154 35 *
Wi

0101100
-38 21 -153 0 +32 21 +96 0 *
Fa
0  1e-07 21 21

0111000
+31 0 *
Wi

0101100
-152 0 +35 21 +95 0 -32 21 *
Fa
0  1e-07 22 21

0111000
+29 0 *
Ed
 1e-07 1 1 0
1  71 0 1.00000000000009 19
2  149 23 0 1.00000000000009 19
2  150 24 0 1.00000000000009 19
0

0101000
+93 36 -150 36 *
Ed
 1e-07 1 1 0
1  72 0 1.00000000000009 19
2  151 23 0 1.00000000000009 19
2  152 25 0 1.00000000000009 19
0

0101000
+92 36 -149 36 *
Wi

0101100
+91 0 -27 25 -148 0 +26 25 *
Fa
0  1e-07 23 25

0111000
+25 0 *
Ed
 1e-07 1 1 0
1  73 0 1.00000000000001 19
2  153 24 0 1.00000000000001 19
2  154 26 0 1.00000000000001 19
0

0101000
+90 36 -147 36 *
Wi

0101100
-27 25 -146 0 +23 25 +89 0 *
Fa
0  1e-07 24 25

0111000
+22 0 *
Ed
 1e-07 1 1 0
1  74 0 1.00000000000001 19
2  155 25 0 1.00000000000001 19
2  156 26 0 1.00000000000001 19
0

0101000
+88 36 -145 36 *
Wi

0101100
-26 25 -144 0 +20 25 +87 0 *
Fa
0  1e-07 25 25

0111000
+19 0 *
Wi

0101100
-143 0 +23 25 +86 0 -20 25 *
Fa
0  1e-07 26 25

0111000
+17 0 *
Ed
 1e-07 1 1 0
1  75 0 1.00000000000009 19
2  157 27 0 1.00000000000009 19
2  158 28 0 1.00000000000009 19
0

0101000
+84 37 -141 37 *
Ed
 1e-07 1 1 0
1  76 0 1.00000000000009 19
2  159 27 0 1.00000000000009 19
2  160 29 0 1.00000000000009 19
0

0101000
+83 37 -140 37 *
Wi

0101100
+82 0 -15 28 -139 0 +14 28 *
Fa
0  1e-07 27 28

0111000
+13 0 *
Ed
 1e-07 1 1 0
1  77 0 1.00000000000001 19
2  161 28 0 1.00000000000001 19
2  162 30 0 1.00000000000001 19
0

0101000
+81 37 -138 37 *
Wi

0101100
-15 28 -137 0 +11 28 +80 0 *
Fa
0  1e-07 28 28

0111000
+10 0 *
Ed
 1e-07 1 1 0
1  78 0 1.00000000000001 19
2  163 29 0 1.00000000000001 19
2  164 30 0 1.00000000000001 19
0

0101000
+79 37 -136 37 *
Wi

0101100
-14 28 -135 0 +8 28 +78 0 *
Fa
0  1e-07 29 28

0111000
+7 0 *
Wi

0101100
-134 0 +11 28 +77 0 -8 28 *
Fa
0  1e-07 30 28

0111000
+5 0 *
Sh

0101100
-186 0 +132 0 +127 7 -75 0 +72 0 +69 0 -66 0 -63 0 -60 0 -57 0 
+54 0 +52 0 -48 6 +45 6 +42 6 -39 6 -36 6 -33 6 -30 6 -28 6 
-24 6 +21 6 -18 6 -16 6 -12 6 +9 6 -6 6 -4 6 *
So

0100000
+3 0 *
Co

1100000
+2 0 *

+1 4 