DBRep_DrawableShape

CASCADE Topology V1, (c) Matra-Datavision
Locations 24
1
              1               0               0               0 
              0 0.985089306859129 -0.172043766268355              45 
              0 0.172043766268355 0.985089306859129 341.729243052325 
1
              1               0               0               0 
              0               1               0               0 
              0               0               1               0 
2  1 1 2 1 0
2  2 -1 1 -1 0
1
              1               0               0               0 
              0 0.985089306859129 -0.172043766268355               0 
              0 0.172043766268355 0.985089306859129               0 
1
              1               0               0               0 
              0               1               0              45 
              0               0               1 341.729243052325 
2  5 1 6 1 0
1
              1               0               0               0 
              0               1               0               0 
              0               0               1               0 
2  5 1 6 1 8 1 0
1
              1               0               0               0 
              0 0.985089306859129 -0.172043766268355               0 
              0 0.172043766268355 0.985089306859129               0 
1
              1               0               0               0 
              0               1               0              45 
              0               0               1 341.729243052325 
2  10 1 11 1 0
2  2 -1 0
1
              1               0               0               0 
              0 0.985089306859129 -0.172043766268355               0 
              0 0.172043766268355 0.985089306859129               0 
1
              1               0               0               0 
              0               1               0              45 
              0               0               1 341.729243052325 
2  14 1 15 1 0
1
              1               0               0               0 
              0 0.985089306859129 -0.172043766268355               0 
              0 0.172043766268355 0.985089306859129               0 
1
              1               0               0               0 
              0               1               0              45 
              0               0               1 341.729243052325 
2  17 1 18 1 0
2  6 -1 5 -1 0
2  8 -1 6 -1 5 -1 0
2  2 -1 11 -1 10 -1 0
2  2 -1 15 -1 14 -1 0
2  2 -1 18 -1 17 -1 0
Curve2ds 154
1 18 0 0 -1 
1 0 0 0 1 
1 0 -1020 1 0 
1 0 0 1 0 
1 0 0 0 -1 
1 0 0 0 1 
8 -18.500000000000057 -0.50000000000005684
1 -0.50000000000005684 -87 -1 2.7755575615628914e-17 
8 -18.500000000000057 -0.50000000000005684
1 14.000000000000007 -0.49999999999998351 0 1 
1 0 1020 1 0 
1 18 0 0 1 
1 500 0 0 1 
1 18 0 0 -1 
8 -257 -243
1 243 87.000000000000014 -1 0 
8 -257 -243
1 -243 -18.999999999999972 -1 0 
2 486 79.000000000000028 -1 0 0 1 8.0000000000000018
1 0 -19.000000000000028 1 0 
8 -79.500000000000014 -0.49999999999999539
1 478 -0.49999999999999539 0 -1 
8 -79.500000000000014 -0.49999999999999539
1 0.49999999999999245 -19.000000000000007 -1 2.7755575615628914e-17 
1 18 0 0 1 
1 0 0 1 0 
8 -79.500000000000014 -0.49999999999999539
1 22.000000000000007 -0.49999999999999539 -0 -1 
8 -79.500000000000014 -0.49999999999999539
1 0.49999999999999245 -19.000000000000007 -1 2.7755575615628914e-17 
2 14.000000000000007 79.000000000000028 1 0 0 -1 8.0000000000000018
1 6.2831853071795862 -19.000000000000028 -1 0 
8 -7.0000000000000071 7
1 7.0000000000000071 87.000000000000014 1 0 
8 -7.0000000000000071 7
1 7 -18.999999999999972 -1 0 
2 168 718 1 0 -0 1 8
1 0 19.000000000000032 1 0 
8 359.00000000000006 453.00000000000006
1 160 359 0 1 
8 359.00000000000006 453.00000000000006
1 19 359.00000000000006 3.0000000000000001e-17 -1 
8 -248 -84
1 84 710 -1 0 
8 -248 -84
1 18.999999999999975 -84 0 -1 
2 168 812 1 0 -0 1 8
1 0 19.000000000000032 1 0 
2 332 718 1 0 -0 1 8
1 0 19.000000000000032 1 0 
8 -248 -84
1 84 819.99999999999989 -1 0 
8 -248 -84
1 19.000000000000053 -84 0 -1 
8 359.00000000000006 453.00000000000006
1 340 359 0 1 
8 359.00000000000006 453.00000000000006
1 19 359.00000000000006 3.0000000000000001e-17 -1 
2 332 812 1 0 -0 1 8
1 0 19.000000000000032 1 0 
2 233 849 1 0 -0 1 3
1 0 19.000000000000032 1 0 
8 424.5 440.5
1 230 424.5 0 1 
8 424.5 440.5
1 19.000000000000014 424.5 3.0000000000000001e-17 -1 
8 424.5 440.5
1 236 424.5 0 1 
8 424.5 440.5
1 19.000000000000014 424.5 3.0000000000000001e-17 -1 
2 233 865 1 0 -0 1 3
1 0 18.999999999999922 1 0 
2 267 849 1 0 -0 1 3
1 0 19.000000000000032 1 0 
8 424.5 440.5
1 264 424.5 0 1 
8 424.5 440.5
1 19.000000000000014 424.5 3.0000000000000001e-17 -1 
8 424.5 440.5
1 270 424.5 0 1 
8 424.5 440.5
1 19.000000000000014 424.5 3.0000000000000001e-17 -1 
2 267 865 1 0 -0 1 3
1 0 18.999999999999922 1 0 
1 0 0 0 1 
1 0 1020 1 0 
1 0 500 1 0 
1 0 -1020 1 0 
1 500 0 0 1 
1 0 0 0 -1 
8 -257 -243
1 243 86.999999999999972 -1 0 
8 -257 -243
1 -243 -1.0000000000000278 -1 0 
2 486 79.000000000000028 -1 0 0 1 8.0000000000000018
1 0 -1.0000000000000788 1 0 
8 -79.500000000000014 -0.50000000000000233
1 478 -0.50000000000000233 0 -1 
8 -79.500000000000014 -0.50000000000000233
1 0.49999999999999212 -0.99999999999999756 -1 2.7755575615628914e-17 
1 0 0 0 1 
1 0 0 1 0 
8 -79.500000000000014 -0.50000000000000233
1 22.000000000000007 -0.50000000000000233 -0 -1 
8 -79.500000000000014 -0.50000000000000233
1 0.49999999999999212 -0.99999999999999756 -1 2.7755575615628914e-17 
2 14.000000000000007 79.000000000000028 1 0 0 -1 8.0000000000000018
1 6.2831853071795862 -1.0000000000000788 -1 0 
8 -7.0000000000000071 7
1 7.0000000000000071 86.999999999999972 1 0 
8 -7.0000000000000071 7
1 7 -1.0000000000000278 -1 0 
2 168 717.99999999999989 1 0 -0 1 8
1 0 1.0000000000000886 1 0 
8 359.00000000000006 453.00000000000006
1 160 359 0 1 
8 359.00000000000006 453.00000000000006
1 1.0000000000000426 359.00000000000006 3.0000000000000001e-17 -1 
8 -248 -84
1 84 710 -1 0 
8 -248 -84
1 1.0000000000000326 -84 0 -1 
2 168 811.99999999999989 1 0 -0 1 8
1 0 1.0000000000000886 1 0 
2 332 717.99999999999989 1 0 -0 1 8
1 0 1.0000000000000886 1 0 
8 -248 -84
1 84 819.99999999999989 -1 0 
8 -248 -84
1 1.0000000000001084 -84 0 -1 
8 359.00000000000006 453.00000000000006
1 340 359 0 1 
8 359.00000000000006 453.00000000000006
1 1.0000000000000426 359.00000000000006 3.0000000000000001e-17 -1 
2 332 811.99999999999989 1 0 -0 1 8
1 0 1.0000000000000886 1 0 
2 233 848.99999999999989 1 0 -0 1 3
1 0 1.0000000000000886 1 0 
8 424.5 440.5
1 230 424.5 0 1 
8 424.5 440.5
1 1.0000000000000568 424.5 3.0000000000000001e-17 -1 
8 424.5 440.5
1 236 424.5 0 1 
8 424.5 440.5
1 1.0000000000000568 424.5 3.0000000000000001e-17 -1 
2 233 865 1 0 -0 1 3
1 0 0.99999999999995726 1 0 
2 267 848.99999999999989 1 0 -0 1 3
1 0 1.0000000000000886 1 0 
8 424.5 440.5
1 264 424.5 0 1 
8 424.5 440.5
1 1.0000000000000568 424.5 3.0000000000000001e-17 -1 
8 424.5 440.5
1 270 424.5 0 1 
8 424.5 440.5
1 1.0000000000000568 424.5 3.0000000000000001e-17 -1 
2 267 865 1 0 -0 1 3
1 0 0.99999999999995726 1 0 
1 1.5707963267948966 0 0 -1 
1 0 -0 0 -1 
8 0.50000000000005684 18.500000000000057
1 -0.50000000000005684 -87 1 -2.7755575615628914e-17 
8 0.50000000000005684 18.500000000000057
1 13.999999999999886 -0.49999999999998351 0 -1 
1 1.5707963267948966 0 0 -1 
1 0 0 0 -1 
8 0.50000000000003941 18.500000000000039
1 -0.50000000000003941 478 1 0 
8 0.50000000000003941 18.500000000000039
1 0.99999999999998979 -0.49999999999998879 -2.7755575615628914e-17 -1 
8 0.50000000000003941 18.500000000000039
1 -0.50000000000003941 22.000000000000007 1 0 
8 0.50000000000003941 18.500000000000039
1 0.99999999999998979 -0.49999999999998879 -2.7755575615628914e-17 -1 
1 80 0 0 -1 
1 0 0 0 -1 
1 4.7123889803846897 0 0 1 
1 0 0 1 0 
1 3.1415926535897931 0 0 1 
1 0 0 1 0 
1 0 -94 1 0 
1 3.1415926535897931 0 0 1 
1 0 164 1 0 
1 4.7123889803846897 0 0 1 
1 1.5707963267948966 0 0 1 
1 0 0 1 0 
8 0 20
1 6.2831853071795862 -0 0 1 
1 0 0 1 0 
1 0 164 1 0 
1 1.5707963267948966 0 0 1 
1 0 -94 1 0 
8 0 20
1 0 0 0 1 
1 3.1415926535897931 0 0 1 
1 0 0 1 0 
8 0 20
1 6.2831853071795862 -0 0 1 
1 0 0 1 0 
1 0 -16 1 0 
1 3.1415926535897931 0 0 1 
1 0 -16 1 0 
8 0 20
1 0 0 0 1 
1 3.1415926535897931 0 0 1 
1 0 0 1 0 
8 0 20
1 6.2831853071795862 -0 0 1 
1 0 0 1 0 
1 3.1415926535897931 0 0 1 
1 0 -16 1 0 
1 0 -16 1 0 
8 0 20
1 0 0 0 1 
Curves 78
1 50 20 4 -0 1 0 
1 50 1040 -14 0 0 1 
1 50 20 -14 -0 1 0 
1 49.999999999999993 152.89919044481798 345.85413109358194 0 0.17204376626835499 -0.98508930685912921 
1 50 1040 4 1 0 -0 
1 550 20 4 -0 1 0 
1 293 149.71638076885341 364.07828327047582 -1 0 0 
2 536 141.8356663139804 362.701933140329 0 0.17204376626835499 -0.98508930685912921 -1 0 -0 0 0.98508930685912921 0.17204376626835499 8.0000000000000018
1 528 63.521066418679602 349.0244537219948 0 -0.98508930685912921 -0.17204376626835502 
1 50 20 4 1 0 -0 
1 72 63.521066418679602 349.0244537219948 -0 -0.98508930685912921 -0.17204376626835502 
2 64 141.8356663139804 362.701933140329 0 0.17204376626835499 -0.98508930685912921 1 0 0 0 -0.98508930685912921 -0.17204376626835499 8.0000000000000018
1 57 149.71638076885341 364.07828327047582 1 0 0 
2 218 771.30773339696395 472.63789978580792 0 -0.17204376626835499 0.98508930685912921 1 0 0 -0 0.98508930685912921 0.17204376626835499 8
1 210 417.66067223453655 410.87418769546844 -0 0.98508930685912921 0.17204376626835502 
1 134 763.42701894209085 471.26154965566104 -1 0 0 
2 218 863.90612824172206 488.8100138150333 0 -0.17204376626835499 0.98508930685912921 1 0 0 -0 0.98508930685912921 0.17204376626835499 8
2 382 771.30773339696395 472.63789978580792 0 -0.17204376626835499 0.98508930685912921 1 0 0 -0 0.98508930685912921 0.17204376626835499 8
1 134 871.78684269659493 490.18636394518012 -1 0 0 
1 390 417.66067223453655 410.87418769546844 -0 0.98508930685912921 0.17204376626835502 
2 382 863.90612824172206 488.8100138150333 0 -0.17204376626835499 0.98508930685912921 1 0 0 -0 0.98508930685912921 0.17204376626835499 8
2 283 900.35443259550982 495.17563316696243 0 -0.17204376626835499 0.98508930685912921 1 0 0 -0 0.98508930685912921 0.17204376626835499 3
1 280 482.18402183380948 422.14305438604572 -0 0.98508930685912921 0.17204376626835502 
1 286 482.18402183380948 422.14305438604572 -0 0.98508930685912921 0.17204376626835502 
2 283 916.11586150525591 497.92833342725601 0 -0.17204376626835499 0.98508930685912921 1 0 0 -0 0.98508930685912921 0.17204376626835499 3
2 317 900.35443259550982 495.17563316696243 0 -0.17204376626835499 0.98508930685912921 1 0 0 -0 0.98508930685912921 0.17204376626835499 3
1 314 482.18402183380948 422.14305438604572 -0 0.98508930685912921 0.17204376626835502 
1 320 482.18402183380948 422.14305438604572 -0 0.98508930685912921 0.17204376626835502 
2 317 916.11586150525591 497.92833342725601 0 -0.17204376626835499 0.98508930685912921 1 0 0 -0 0.98508930685912921 0.17204376626835499 3
1 50 1040 -14 1 0 -0 
1 550 1040 -14 0 0 1 
1 550 20 -14 -0 1 0 
1 293 152.81316856168377 346.34667574701155 -1 0 0 
2 536 144.93245410681078 344.97032561686473 0 0.17204376626835499 -0.98508930685912921 -1 0 -0 0 0.98508930685912921 0.17204376626835499 8.0000000000000018
1 528 66.617854211509993 331.29284619853047 0 -0.98508930685912921 -0.17204376626835502 
1 50 20 -14 1 0 -0 
1 72 66.617854211509993 331.29284619853047 -0 -0.98508930685912921 -0.17204376626835502 
2 64 144.93245410681078 344.97032561686473 0 0.17204376626835499 -0.98508930685912921 1 0 0 0 -0.98508930685912921 -0.17204376626835499 8.0000000000000018
1 57 152.81316856168377 346.34667574701155 1 0 0 
2 218 774.40452118979431 454.90629226234364 0 -0.17204376626835499 0.98508930685912921 1 0 0 -0 0.98508930685912921 0.17204376626835499 8
1 210 420.75746002736696 393.14258017200416 -0 0.98508930685912921 0.17204376626835502 
1 134 766.52380673492121 453.52994213219677 -1 0 0 
2 218 867.00291603455241 471.07840629156902 0 -0.17204376626835499 0.98508930685912921 1 0 0 -0 0.98508930685912921 0.17204376626835499 8
2 382 774.40452118979431 454.90629226234364 0 -0.17204376626835499 0.98508930685912921 1 0 0 -0 0.98508930685912921 0.17204376626835499 8
1 134 874.88363048942529 472.45475642171584 -1 0 0 
1 390 420.75746002736696 393.14258017200416 -0 0.98508930685912921 0.17204376626835502 
2 382 867.00291603455241 471.07840629156902 0 -0.17204376626835499 0.98508930685912921 1 0 0 -0 0.98508930685912921 0.17204376626835499 8
2 283 903.45122038834018 477.44402564349815 0 -0.17204376626835499 0.98508930685912921 1 0 0 -0 0.98508930685912921 0.17204376626835499 3
1 280 485.28080962663989 404.41144686258144 -0 0.98508930685912921 0.17204376626835502 
1 286 485.28080962663989 404.41144686258144 -0 0.98508930685912921 0.17204376626835502 
2 283 919.21264929808638 480.19672590379173 0 -0.17204376626835499 0.98508930685912921 1 0 0 -0 0.98508930685912921 0.17204376626835499 3
2 317 903.45122038834018 477.44402564349815 0 -0.17204376626835499 0.98508930685912921 1 0 0 -0 0.98508930685912921 0.17204376626835499 3
1 314 485.28080962663989 404.41144686258144 -0 0.98508930685912921 0.17204376626835502 
1 320 485.28080962663989 404.41144686258144 -0 0.98508930685912921 0.17204376626835502 
2 317 919.21264929808638 480.19672590379173 0 -0.17204376626835499 0.98508930685912921 1 0 0 -0 0.98508930685912921 0.17204376626835499 3
1 64 107 -15.000000000000057 0 0 1 
1 549.99999999999989 152.89919044481798 345.85413109358194 0 -0.17204376626835499 0.98508930685912921 
1 536 107 -15.000000000000057 -0 -0 1 
1 528 99 -15.000000000000057 -0 -0 1 
1 528 67.196420748073734 330.88632342823507 0 -0.17204376626835502 0.98508930685912921 
1 72 67.196420748073734 330.88632342823507 0 -0.17204376626835502 0.98508930685912921 
1 72 99 -15.000000000000057 0 0 1 
1 218 730 -15 0 0 1 
1 210 738 -15 0 0 1 
1 210 832 -15 0 0 1 
1 382 730 -15 0 0 1 
1 218 840 -15 0 0 1 
1 390 738 -15 0 0 1 
1 382 840 -15 0 0 1 
1 390 832 -15 0 0 1 
1 280 869 -15 0 0 1 
1 286 869 -15 0 0 1 
1 280 885 -15 0 0 1 
1 286 885 -15 0 0 1 
1 314 869 -15 0 0 1 
1 320 869 -15 0 0 1 
1 314 885 -15 0 0 1 
1 320 885 -15 0 0 1 
Polygon3D 0
PolygonOnTriangulations 0
Surfaces 28
1 50 20 -14 1 0 -0 0 0 1 0 -1 0 
1 50 20 4 0 0 1 1 0 -0 -0 1 0 
1 50 1040 -14 -0 1 0 0 0 1 1 0 -0 
1 50 20 -14 0 0 1 1 0 -0 -0 1 0 
1 64 107 -15.000000000000057 0 -1 0 -1 0 0 -0 -0 -1 
1 550 20 -14 1 0 -0 0 0 1 0 -1 0 
1 536 107 -15.000000000000057 -0 -1 -0 1 -0 -0 0 -0 -1 
2 536 99 -15.000000000000057 0 -0 -1 -1 -0 -0 -0 1 -0 8.0000000000000018
1 528 18.999999999999996 -15.000000000000057 1 -0 -0 -0 1 -0 -0 -0 -1 
1 50 20 -14 -0 1 0 0 0 1 1 0 -0 
1 72 18.999999999999996 -15.000000000000057 -1 0 0 0 1 0 0 0 -1 
2 64 99 -15.000000000000057 -0 -0 -1 1 0 -0 -0 1 0 8.0000000000000018
2 218 738 -15 0 0 1 1 0 -0 -0 1 0 8
1 210 738 -15 1 0 -0 0 0 1 0 -1 0 
1 218 730 -15 -0 1 0 0 0 1 1 0 -0 
2 218 832 -15 0 0 1 1 0 -0 -0 1 0 8
2 382 738 -15 0 0 1 1 0 -0 -0 1 0 8
1 218 840 -15 -0 1 0 0 0 1 1 0 -0 
1 390 738 -15 1 0 -0 0 0 1 0 -1 0 
2 382 832 -15 0 0 1 1 0 -0 -0 1 0 8
2 283 869 -15 0 0 1 1 0 -0 -0 1 0 3
1 280 869 -15 1 0 -0 0 0 1 0 -1 0 
1 286 869 -15 1 0 -0 0 0 1 0 -1 0 
2 283 885 -15 0 0 1 1 0 -0 -0 1 0 3
2 317 869 -15 0 0 1 1 0 -0 -0 1 0 3
1 314 869 -15 1 0 -0 0 0 1 0 -1 0 
1 320 869 -15 1 0 -0 0 0 1 0 -1 0 
2 317 885 -15 0 0 1 1 0 -0 -0 1 0 3
Triangulations 0

TShapes 195
Ve
1.50000063552874e-07
50 149.716380768853 364.078283270476
0 0

0101101
*
Ve
1e-07
50 1068.80470406842 524.595117198851
0 0

0101101
*
Ed
 1e-07 1 1 0
1  1 0 87 1020
2  1 1 0 87 1020
2  2 2 0 87 1020
0

0101000
+195 4 -194 4 *
Ve
1e-07
50 1071.90149186125 506.863509675387
0 0

0101101
*
Ed
 1e-07 1 1 0
1  2 0 0 18
2  3 1 0 0 18
2  4 3 0 0 18
0

0101000
-194 4 +192 4 *
Ve
1.50000028421709e-07
50 152.813168561684 346.346675747012
0 0

0101101
*
Ed
 1e-07 1 1 0
1  3 0 87 1020
2  5 1 0 87 1020
2  6 4 0 87 1020
0

0101000
+190 4 -192 4 *
Ed
 1.5e-07 1 1 0
1  4 0 -18.5000000000001 -0.500000000000057
2  7 1 3 -18.5000000000001 -0.500000000000057
2  8 5 7 -18.5000000000001 -0.500000000000057
0

0101000
+195 0 -190 0 *
Wi

0101100
-193 3 +191 3 +189 3 +188 0 *
Fa
0  1e-07 1 3

0101000
+187 0 *
Ve
1e-07
550 1068.80470406842 524.595117198851
0 0

0101101
*
Ed
 1e-07 1 1 0
1  5 0 0 500
2  9 2 0 0 500
2  10 3 0 0 500
0

0101000
-185 4 +194 4 *
Ve
1.50000130244635e-07
550 149.716380768853 364.078283270476
0 0

0101101
*
Ed
 1e-07 1 1 0
1  6 0 87 1020
2  11 2 0 87 1020
2  12 6 0 87 1020
0

0101000
+183 4 -185 4 *
Ve
1.50000056843419e-07
536 149.716380768853 364.078283270476
0 0

0101101
*
Ed
 1.5e-07 1 1 0
1  7 0 -257 -243
2  13 2 3 -257 -243
2  14 7 9 -257 -243
0

0101000
+183 0 -181 0 *
Ve
1.50000063552874e-07
528 141.83566631398 362.701933140329
0 0

0101101
*
Ed
 1e-07 1 1 0
1  8 0 0 1.5707963267949
2  15 2 3 0 1.5707963267949
2  16 8 9 0 1.5707963267949
0

0101000
+179 0 -181 0 *
Ve
1.50000056843419e-07
528 64.0136110721092 349.110475605129
0 0

0101101
*
Ed
 1.5e-07 1 1 0
1  9 0 -79.5 -0.499999999999995
2  17 2 3 -79.5 -0.499999999999995
2  18 9 9 -79.5 -0.499999999999995
0

0101000
+179 0 -177 0 *
Ve
1.50000056843419e-07
72 64.0136110721092 349.110475605129
0 0

0101101
*
Ed
 1e-07 1 1 0
1  10 0 22 478
2  19 10 0 22 478
2  20 2 0 22 478
0

0101000
+175 4 -177 4 *
Ve
1.50000063552874e-07
72 141.83566631398 362.701933140329
0 0

0101101
*
Ed
 1.5e-07 1 1 0
1  11 0 -79.5 -0.499999999999995
2  21 2 3 -79.5 -0.499999999999995
2  22 11 7 -79.5 -0.499999999999995
0

0101000
+173 0 -175 0 *
Ve
1.50000056843419e-07
64 149.716380768853 364.078283270476
0 0

0101101
*
Ed
 1e-07 1 1 0
1  12 0 4.71238898038469 6.28318530717959
2  23 2 3 4.71238898038469 6.28318530717959
2  24 12 7 4.71238898038469 6.28318530717959
0

0101000
+171 0 -173 0 *
Ed
 1.5e-07 1 1 0
1  13 0 -7.00000000000001 7
2  25 2 3 -7.00000000000001 7
2  26 5 7 -7.00000000000001 7
0

0101000
+195 0 -171 0 *
Wi

0101100
-193 3 -184 3 +182 3 -180 0 +178 0 -176 0 +174 3 +172 0 +170 0 +169 0 
*
Ve
1.50000114e-07
210 771.307733396964 472.637899785808
0 0

0101101
*
Ve
1.5e-07
218 763.427018942091 471.261549655661
0 0

0101101
*
Ed
 1e-07 1 1 0
1  14 0 3.14159265358979 4.71238898038469
2  27 2 1 3.14159265358979 4.71238898038469
2  28 13 12 3.14159265358979 4.71238898038469
0

0101000
+167 13 -166 13 *
Ve
1.50000127e-07
210 863.906128241722 488.810013815033
0 0

0101101
*
Ed
 1.5e-07 1 1 0
1  15 0 359 453
2  29 2 1 359 453
2  30 14 12 359 453
0

0101000
+167 13 -164 13 *
Ve
1.5e-07
382 763.427018942091 471.261549655661
0 0

0101101
*
Ed
 1.5e-07 1 1 0
1  16 0 -248 -84
2  31 2 1 -248 -84
2  32 15 12 -248 -84
0

0101000
+162 13 -166 13 *
Ve
1.50000114e-07
218 871.786842696595 490.18636394518
0 0

0101101
*
Ed
 1e-07 1 1 0
1  17 0 1.5707963267949 3.14159265358979
2  33 2 1 1.5707963267949 3.14159265358979
2  34 16 12 1.5707963267949 3.14159265358979
0

0101000
+160 13 -164 13 *
Ve
1.50000114e-07
390 771.307733396964 472.637899785808
0 0

0101101
*
Ed
 1e-07 1 1 0
1  18 0 4.71238898038469 6.28318530717959
2  35 2 1 4.71238898038469 6.28318530717959
2  36 17 12 4.71238898038469 6.28318530717959
0

0101000
+162 13 -158 13 *
Ve
1.50000114e-07
382 871.786842696595 490.18636394518
0 0

0101101
*
Ed
 1.5e-07 1 1 0
1  19 0 -248 -84
2  37 2 1 -248 -84
2  38 18 12 -248 -84
0

0101000
+156 13 -160 13 *
Ve
1.50000127e-07
390 863.906128241722 488.810013815033
0 0

0101101
*
Ed
 1.5e-07 1 1 0
1  20 0 359 453
2  39 2 1 359 453
2  40 19 12 359 453
0

0101000
+158 13 -154 13 *
Ed
 1e-07 1 1 0
1  21 0 0 1.5707963267949
2  41 2 1 0 1.5707963267949
2  42 20 12 0 1.5707963267949
0

0101000
+154 13 -156 13 *
Wi

0101100
-165 2 +163 2 +161 2 -159 2 -157 2 -155 2 -153 2 -152 2 *
Ve
1.5e-07
280 900.35443259551 495.175633166962
0 0

0101101
*
Ve
1.5e-07
286 900.35443259551 495.175633166962
0 0

0101101
*
Ed
 1e-07 1 1 0
1  22 0 3.14159265358979 6.28318530717959
2  43 2 1 3.14159265358979 6.28318530717959
2  44 21 16 3.14159265358979 6.28318530717959
0

0101000
+150 13 -149 13 *
Ve
1.5e-07
280 916.115861505256 497.928333427256
0 0

0101101
*
Ed
 1.5e-07 1 1 0
1  23 0 424.5 440.5
2  45 2 1 424.5 440.5
2  46 22 16 424.5 440.5
0

0101000
+150 13 -147 13 *
Ve
1.5e-07
286 916.115861505256 497.928333427256
0 0

0101101
*
Ed
 1.5e-07 1 1 0
1  24 0 424.5 440.5
2  47 2 1 424.5 440.5
2  48 23 16 424.5 440.5
0

0101000
+149 13 -145 13 *
Ed
 1e-07 1 1 0
1  25 0 0 3.14159265358979
2  49 2 1 0 3.14159265358979
2  50 24 16 0 3.14159265358979
0

0101000
+145 13 -147 13 *
Wi

0101100
-148 2 +146 2 -144 2 -143 2 *
Ve
1.5e-07
314 900.35443259551 495.175633166962
0 0

0101101
*
Ve
1.5e-07
320 900.35443259551 495.175633166962
0 0

0101101
*
Ed
 1e-07 1 1 0
1  26 0 3.14159265358979 6.28318530717959
2  51 2 1 3.14159265358979 6.28318530717959
2  52 25 19 3.14159265358979 6.28318530717959
0

0101000
+141 13 -140 13 *
Ve
1.5e-07
314 916.115861505256 497.928333427256
0 0

0101101
*
Ed
 1.5e-07 1 1 0
1  27 0 424.5 440.5
2  53 2 1 424.5 440.5
2  54 26 19 424.5 440.5
0

0101000
+141 13 -138 13 *
Ve
1.5e-07
320 916.115861505256 497.928333427256
0 0

0101101
*
Ed
 1.5e-07 1 1 0
1  28 0 424.5 440.5
2  55 2 1 424.5 440.5
2  56 27 19 424.5 440.5
0

0101000
+140 13 -136 13 *
Ed
 1e-07 1 1 0
1  29 0 0 3.14159265358979
2  57 2 1 0 3.14159265358979
2  58 28 19 0 3.14159265358979
0

0101000
+136 13 -138 13 *
Wi

0101100
-139 2 +137 2 -135 2 -134 2 *
Fa
0  1e-07 2 3

0101000
+168 0 +151 0 +142 0 +133 0 *
Ve
1e-07
550 1071.90149186125 506.863509675387
0 0

0101101
*
Ed
 1e-07 1 1 0
1  30 0 0 500
2  59 3 0 0 500
2  60 4 0 0 500
0

0101000
-131 4 +192 4 *
Ed
 1e-07 1 1 0
1  31 0 0 18
2  61 3 0 0 18
2  62 6 0 0 18
0

0101000
-185 4 +131 4 *
Wi

0101100
-130 0 -129 0 +184 0 +191 0 *
Fa
0  1e-07 3 0

0111000
+128 0 *
Ve
1.50000113686838e-07
550 152.813168561684 346.346675747012
0 0

0101101
*
Ed
 1e-07 1 1 0
1  32 0 87 1020
2  63 4 0 87 1020
2  64 6 0 87 1020
0

0101000
+126 4 -131 4 *
Ve
1.50000028421709e-07
536 152.813168561684 346.346675747012
0 0

0101101
*
Ed
 1.5e-07 1 1 0
1  33 0 -257 -243
2  65 4 3 -257 -243
2  66 7 9 -257 -243
0

0101000
+126 0 -124 0 *
Ve
1.50000056843419e-07
528 144.932454106811 344.970325616865
0 0

0101101
*
Ed
 1e-07 1 1 0
1  34 0 0 1.5707963267949
2  67 4 3 0 1.5707963267949
2  68 8 9 0 1.5707963267949
0

0101000
+122 0 -124 0 *
Ve
1.50000056843419e-07
528 67.1103988649396 331.378868081665
0 0

0101101
*
Ed
 1.5e-07 1 1 0
1  35 0 -79.5 -0.500000000000002
2  69 4 3 -79.5 -0.500000000000002
2  70 9 9 -79.5 -0.500000000000002
0

0101000
+122 0 -120 0 *
Ve
1.50000056843419e-07
72 67.1103988649396 331.378868081665
0 0

0101101
*
Ed
 1e-07 1 1 0
1  36 0 22 478
2  71 10 0 22 478
2  72 4 0 22 478
0

0101000
+118 4 -120 4 *
Ve
1.50000056843419e-07
72 144.932454106811 344.970325616865
0 0

0101101
*
Ed
 1.5e-07 1 1 0
1  37 0 -79.5 -0.500000000000002
2  73 4 3 -79.5 -0.500000000000002
2  74 11 7 -79.5 -0.500000000000002
0

0101000
+116 0 -118 0 *
Ve
1.50000028421709e-07
64 152.813168561684 346.346675747012
0 0

0101101
*
Ed
 1e-07 1 1 0
1  38 0 4.71238898038469 6.28318530717959
2  75 4 3 4.71238898038469 6.28318530717959
2  76 12 7 4.71238898038469 6.28318530717959
0

0101000
+114 0 -116 0 *
Ed
 1.5e-07 1 1 0
1  39 0 -7.00000000000001 7
2  77 4 3 -7.00000000000001 7
2  78 5 7 -7.00000000000001 7
0

0101000
+190 0 -114 0 *
Wi

0101100
-189 3 -130 3 +125 3 -123 0 +121 0 -119 0 +117 3 +115 0 +113 0 +112 0 
*
Ve
1.50000114e-07
210 774.404521189794 454.906292262344
0 0

0101101
*
Ve
1.50000114e-07
218 766.523806734921 453.529942132197
0 0

0101101
*
Ed
 1e-07 1 1 0
1  40 0 3.14159265358979 4.71238898038469
2  79 4 1 3.14159265358979 4.71238898038469
2  80 13 12 3.14159265358979 4.71238898038469
0

0101000
+110 13 -109 13 *
Ve
1.50000127e-07
210 867.002916034552 471.078406291569
0 0

0101101
*
Ed
 1.5e-07 1 1 0
1  41 0 359 453
2  81 4 1 359 453
2  82 14 12 359 453
0

0101000
+110 13 -107 13 *
Ve
1.50000114e-07
382 766.523806734921 453.529942132197
0 0

0101101
*
Ed
 1.5e-07 1 1 0
1  42 0 -248 -84
2  83 4 1 -248 -84
2  84 15 12 -248 -84
0

0101000
+105 13 -109 13 *
Ve
1.50000114e-07
218 874.883630489425 472.454756421716
0 0

0101101
*
Ed
 1e-07 1 1 0
1  43 0 1.5707963267949 3.14159265358979
2  85 4 1 1.5707963267949 3.14159265358979
2  86 16 12 1.5707963267949 3.14159265358979
0

0101000
+103 13 -107 13 *
Ve
1.50000114e-07
390 774.404521189794 454.906292262344
0 0

0101101
*
Ed
 1e-07 1 1 0
1  44 0 4.71238898038469 6.28318530717959
2  87 4 1 4.71238898038469 6.28318530717959
2  88 17 12 4.71238898038469 6.28318530717959
0

0101000
+105 13 -101 13 *
Ve
1.50000114e-07
382 874.883630489425 472.454756421716
0 0

0101101
*
Ed
 1.5e-07 1 1 0
1  45 0 -248 -84
2  89 4 1 -248 -84
2  90 18 12 -248 -84
0

0101000
+99 13 -103 13 *
Ve
1.50000127e-07
390 867.002916034552 471.078406291569
0 0

0101101
*
Ed
 1.5e-07 1 1 0
1  46 0 359 453
2  91 4 1 359 453
2  92 19 12 359 453
0

0101000
+101 13 -97 13 *
Ed
 1e-07 1 1 0
1  47 0 0 1.5707963267949
2  93 4 1 0 1.5707963267949
2  94 20 12 0 1.5707963267949
0

0101000
+97 13 -99 13 *
Wi

0101100
-108 2 +106 2 +104 2 -102 2 -100 2 -98 2 -96 2 -95 2 *
Ve
1.50000114e-07
280 903.45122038834 477.444025643498
0 0

0101101
*
Ve
1.50000114e-07
286 903.45122038834 477.444025643498
0 0

0101101
*
Ed
 1e-07 1 1 0
1  48 0 3.14159265358979 6.28318530717959
2  95 4 1 3.14159265358979 6.28318530717959
2  96 21 16 3.14159265358979 6.28318530717959
0

0101000
+93 13 -92 13 *
Ve
1.50000127e-07
280 919.212649298086 480.196725903792
0 0

0101101
*
Ed
 1.5e-07 1 1 0
1  49 0 424.5 440.5
2  97 4 1 424.5 440.5
2  98 22 16 424.5 440.5
0

0101000
+93 13 -90 13 *
Ve
1.50000127e-07
286 919.212649298086 480.196725903792
0 0

0101101
*
Ed
 1.5e-07 1 1 0
1  50 0 424.5 440.5
2  99 4 1 424.5 440.5
2  100 23 16 424.5 440.5
0

0101000
+92 13 -88 13 *
Ed
 1e-07 1 1 0
1  51 0 0 3.14159265358979
2  101 4 1 0 3.14159265358979
2  102 24 16 0 3.14159265358979
0

0101000
+88 13 -90 13 *
Wi

0101100
-91 2 +89 2 -87 2 -86 2 *
Ve
1.50000114e-07
314 903.45122038834 477.444025643498
0 0

0101101
*
Ve
1.50000114e-07
320 903.45122038834 477.444025643498
0 0

0101101
*
Ed
 1e-07 1 1 0
1  52 0 3.14159265358979 6.28318530717959
2  103 4 1 3.14159265358979 6.28318530717959
2  104 25 19 3.14159265358979 6.28318530717959
0

0101000
+84 13 -83 13 *
Ve
1.50000127e-07
314 919.212649298086 480.196725903792
0 0

0101101
*
Ed
 1.5e-07 1 1 0
1  53 0 424.5 440.5
2  105 4 1 424.5 440.5
2  106 26 19 424.5 440.5
0

0101000
+84 13 -81 13 *
Ve
1.50000127e-07
320 919.212649298086 480.196725903792
0 0

0101101
*
Ed
 1.5e-07 1 1 0
1  54 0 424.5 440.5
2  107 4 1 424.5 440.5
2  108 27 19 424.5 440.5
0

0101000
+83 13 -79 13 *
Ed
 1e-07 1 1 0
1  55 0 0 3.14159265358979
2  109 4 1 0 3.14159265358979
2  110 28 19 0 3.14159265358979
0

0101000
+79 13 -81 13 *
Wi

0101100
-82 2 +80 2 -78 2 -77 2 *
Fa
0  1e-07 4 3

0101000
+111 0 +94 0 +85 0 +76 0 *
Ed
 1e-07 1 1 0
1  56 0 1.00000000000002 19
2  111 12 0 1.00000000000002 19
2  112 5 0 1.00000000000002 19
4 G1 12 0 5 0
0

0101000
+114 20 -171 20 *
Wi

0101100
+112 0 +188 0 -169 0 +74 7 *
Fa
0  1e-07 5 7

0101000
+73 0 *
Ed
 1.5e-07 1 1 0
1  57 0 0.500000000000057 18.5000000000001
2  113 6 3 0.500000000000057 18.5000000000001
2  114 7 9 0.500000000000057 18.5000000000001
0

0101000
+126 0 -183 0 *
Wi

0101100
-182 3 +129 3 +125 3 -71 0 *
Fa
0  1e-07 6 3

0101000
+70 0 *
Ed
 1e-07 1 1 0
1  58 0 1.00000000000002 19
2  115 8 0 1.00000000000002 19
4 G1 8 0 7 0
0

0101000
+124 21 -181 21 *
Wi

0101100
+123 0 -71 0 -180 0 +68 9 *
Fa
0  1e-07 7 9

0101000
+67 0 *
Ed
 1e-07 1 1 0
1  59 0 1.00000000000008 19.0000000000001
2  116 8 0 1.00000000000008 19.0000000000001
4 G1 9 0 8 0
0

0101000
+122 21 -179 21 *
Wi

0101100
-121 0 -68 9 +178 0 +65 9 *
Fa
0  1e-07 8 9

0101000
+64 0 *
Ed
 1.5e-07 1 1 0
1  60 0 0.500000000000039 18.5
2  117 10 3 0.500000000000039 18.5
2  118 9 9 0.500000000000039 18.5
0

0101000
+120 0 -177 0 *
Wi

0101100
-65 9 -176 0 +62 0 +119 0 *
Fa
0  1e-07 9 9

0101000
+61 0 *
Ed
 1.5e-07 1 1 0
1  61 0 0.500000000000039 18.5
2  119 10 3 0.500000000000039 18.5
2  120 11 7 0.500000000000039 18.5
0

0101000
+118 0 -175 0 *
Wi

0101100
-117 3 -62 0 +174 3 +59 0 *
Fa
0  1e-07 10 3

0101000
+58 0 *
Ed
 1e-07 1 1 0
1  62 0 1.00000000000008 19.0000000000001
2  121 11 0 1.00000000000008 19.0000000000001
2  122 12 0 1.00000000000008 19.0000000000001
4 G1 11 0 12 0
0

0101000
+116 20 -173 20 *
Wi

0101100
-56 7 -172 0 +59 0 +115 0 *
Fa
0  1e-07 11 7

0101000
+55 0 *
Wi

0101100
+113 0 -74 7 -170 0 +56 7 *
Fa
0  1e-07 12 7

0101000
+53 0 *
Ed
 1e-07 1 1 0
1  63 0 1.00000000000001 19
2  123 13 0 1.00000000000001 19
2  124 15 0 1.00000000000001 19
0

0101000
+109 22 -166 22 *
Ed
 1e-07 1 1 0
1  64 0 1.00000000000009 19
2  125 13 0 1.00000000000009 19
2  126 14 0 1.00000000000009 19
0

0101000
+110 22 -167 22 *
Wi

0101100
-165 0 +51 12 +108 0 -50 12 *
Fa
0  1e-07 13 12

0111000
+49 0 *
Ed
 1e-07 1 1 0
1  65 0 1.00000000000009 19
2  127 14 0 1.00000000000009 19
2  128 16 0 1.00000000000009 19
0

0101000
+107 22 -164 22 *
Wi

0101100
-50 12 -163 0 +47 12 +106 0 *
Fa
0  1e-07 14 12

0111000
+46 0 *
Ed
 1e-07 1 1 0
1  66 0 1.00000000000001 19
2  129 15 0 1.00000000000001 19
2  130 17 0 1.00000000000001 19
0

0101000
+105 22 -162 22 *
Wi

0101100
+104 0 -44 12 -161 0 +51 12 *
Fa
0  1e-07 15 12

0111000
+43 0 *
Ed
 1e-07 1 1 0
1  67 0 1.00000000000009 19
2  131 16 0 1.00000000000009 19
2  132 18 0 1.00000000000009 19
0

0101000
+103 22 -160 22 *
Wi

0101100
-159 0 +47 12 +102 0 -41 12 *
Fa
0  1e-07 16 12

0111000
+40 0 *
Ed
 1e-07 1 1 0
1  68 0 1.00000000000009 19
2  133 17 0 1.00000000000009 19
2  134 19 0 1.00000000000009 19
0

0101000
+101 22 -158 22 *
Wi

0101100
-157 0 +38 12 +100 0 -44 12 *
Fa
0  1e-07 17 12

0111000
+37 0 *
Ed
 1e-07 1 1 0
1  69 0 1.00000000000009 19
2  135 18 0 1.00000000000009 19
2  136 20 0 1.00000000000009 19
0

0101000
+99 22 -156 22 *
Wi

0101100
+98 0 -35 12 -155 0 +41 12 *
Fa
0  1e-07 18 12

0111000
+34 0 *
Ed
 1e-07 1 1 0
1  70 0 1.00000000000009 19
2  137 19 0 1.00000000000009 19
2  138 20 0 1.00000000000009 19
0

0101000
+97 22 -154 22 *
Wi

0101100
-38 12 -153 0 +32 12 +96 0 *
Fa
0  1e-07 19 12

0111000
+31 0 *
Wi

0101100
-152 0 +35 12 +95 0 -32 12 *
Fa
0  1e-07 20 12

0111000
+29 0 *
Ed
 1e-07 1 1 0
1  71 0 1.00000000000009 19
2  139 21 0 1.00000000000009 19
2  140 22 0 1.00000000000009 19
0

0101000
+93 23 -150 23 *
Ed
 1e-07 1 1 0
1  72 0 1.00000000000009 19
2  141 21 0 1.00000000000009 19
2  142 23 0 1.00000000000009 19
0

0101000
+92 23 -149 23 *
Wi

0101100
+91 0 -27 16 -148 0 +26 16 *
Fa
0  1e-07 21 16

0111000
+25 0 *
Ed
 1e-07 1 1 0
1  73 0 1.00000000000001 19
2  143 22 0 1.00000000000001 19
2  144 24 0 1.00000000000001 19
0

0101000
+90 23 -147 23 *
Wi

0101100
-27 16 -146 0 +23 16 +89 0 *
Fa
0  1e-07 22 16

0111000
+22 0 *
Ed
 1e-07 1 1 0
1  74 0 1.00000000000001 19
2  145 23 0 1.00000000000001 19
2  146 24 0 1.00000000000001 19
0

0101000
+88 23 -145 23 *
Wi

0101100
-26 16 -144 0 +20 16 +87 0 *
Fa
0  1e-07 23 16

0111000
+19 0 *
Wi

0101100
-143 0 +23 16 +86 0 -20 16 *
Fa
0  1e-07 24 16

0111000
+17 0 *
Ed
 1e-07 1 1 0
1  75 0 1.00000000000009 19
2  147 25 0 1.00000000000009 19
2  148 26 0 1.00000000000009 19
0

0101000
+84 24 -141 24 *
Ed
 1e-07 1 1 0
1  76 0 1.00000000000009 19
2  149 25 0 1.00000000000009 19
2  150 27 0 1.00000000000009 19
0

0101000
+83 24 -140 24 *
Wi

0101100
+82 0 -15 19 -139 0 +14 19 *
Fa
0  1e-07 25 19

0111000
+13 0 *
Ed
 1e-07 1 1 0
1  77 0 1.00000000000001 19
2  151 28 0 1.00000000000001 19
2  152 26 0 1.00000000000001 19
0

0101000
+81 24 -138 24 *
Wi

0101100
-15 19 -137 0 +11 19 +80 0 *
Fa
0  1e-07 26 19

0111000
+10 0 *
Ed
 1e-07 1 1 0
1  78 0 1.00000000000001 19
2  153 27 0 1.00000000000001 19
2  154 28 0 1.00000000000001 19
0

0101000
+79 24 -136 24 *
Wi

0101100
-14 19 -135 0 +8 19 +78 0 *
Fa
0  1e-07 27 19

0111000
+7 0 *
Wi

0101100
-134 0 +11 19 +77 0 -8 19 *
Fa
0  1e-07 28 19

0111000
+5 0 *
Sh

0101100
-186 0 +132 0 +127 3 -75 0 +72 0 +69 0 -66 0 -63 0 -60 0 -57 0 
+54 0 +52 0 -48 2 +45 2 +42 2 -39 2 -36 2 -33 2 -30 2 -28 2 
-24 2 +21 2 -18 2 -16 2 -12 2 +9 2 -6 2 -4 2 *
So

0100000
+3 0 *
Co

0100000
+2 0 *

+1 0 