DBRep_DrawableShape

CASCADE Topology V1, (c) Matra-Datavision
Locations 35
1
              1               0               0               0 
              0               1               0               0 
              0               0               1               0 
1
              1               0               0               0 
              0               1               0               0 
              0               0               1               0 
2  1 1 2 1 0
1
              1               0               0               0 
              0               1               0               0 
              0               0               1               0 
1
              1               0               0               0 
              0               1               0               0 
              0               0               1               0 
1
              1               0               0               0 
              0               1               0               0 
              0               0               1               0 
1
              1               0               0           28.65 
              0               1               0               0 
              0               0               1               0 
2  4 1 5 1 6 1 7 1 0
1
              1               0               0               0 
              0               1               0               0 
              0               0               1               0 
1
              1               0               0               0 
              0               1               0               0 
              0               0               1               0 
1
              1               0               0               0 
              0               1               0               0 
              0               0               1               0 
1
              1               0               0               0 
              0               1               0               0 
              0               0               1               0 
1
              1               0               0               0 
              0               1               0               0 
              0               0               1               0 
2  9 1 10 1 11 1 12 1 13 1 0
2  1 -1 7 -1 6 -1 5 -1 4 -1 13 -1 12 -1 11 -1 10 -1 9 -1 0
2  1 -1 7 -1 6 -1 5 -1 4 -1 0
1
              1               0               0              18 
              0               1               0               0 
              0               0               1               0 
2  17 1 9 1 10 1 11 1 12 1 13 1 0
2  1 -1 7 -1 6 -1 5 -1 4 -1 13 -1 12 -1 11 -1 10 -1 9 -1 17 -1 0
2  6 1 7 1 0
2  9 1 10 1 11 1 12 1 13 1 4 1 5 1 0
2  10 1 11 1 12 1 13 1 4 1 5 1 0
2  1 -1 7 -1 6 -1 5 -1 4 -1 13 -1 12 -1 11 -1 10 -1 0
2  1 -1 7 -1 6 -1 0
2  10 1 11 1 12 1 13 1 0
2  9 1 10 1 11 1 12 1 13 1 4 1 5 1 6 1 7 1 0
2  17 1 9 1 10 1 11 1 12 1 13 1 4 1 5 1 6 1 7 1 0
2  1 -1 0
2  10 1 11 1 12 1 13 1 4 1 5 1 6 1 7 1 0
1
              1               0               0               0 
              0 0.985089306859129 -0.172043766268355               0 
              0 0.172043766268355 0.985089306859129               0 
1
              1               0               0               0 
              0               1               0 34.9999999999999 
              0               0               1 406.162676056336 
2  30 1 31 1 0
2  1 -1 31 -1 30 -1 0
2  12 1 13 1 4 1 5 1 6 1 7 1 0
2  1 -1 7 -1 6 -1 5 -1 4 -1 13 -1 12 -1 0
Curve2ds 92
7 0 0  8 30 5  0 4.5  0.19634954084936207 4.5  0.3926990816974012 4.742334267921251  0.58904862255030821 5.2270007451297715  0.78539816339161916 5.9340768718138861  0.98174770424930102 6.8236770633375272  1.1780972450948184 7.8401547942430625  1.3744467859455343 8.920077525328507  1.7180584824319181 10.809941856003615  1.8653206380690535 11.619883415588889  2.0125827937062155 12.403061666176654  2.1598449493433236 13.132706152780884  2.3071071049802612 13.783917204162947  2.4543692606170815 14.335497736493124  2.6016314162540466 14.771386099340463  2.9697868053466006 15.546264423019501  3.1906800388010197 15.727833439043025  3.4115732722566463 15.591479623566556  3.6324665057254606 15.132115552638425  3.8533597391615331 14.379598189108947  4.0742529726226167 13.39629945438719  4.2951462060797949 12.26456534661494  4.7369326729908598 9.8814281955624743  4.9578259064464874 8.6300238332496519  5.1787191398980212 7.4073871230866644  5.3996123733377317 6.308310308635555  5.6205056068174599 5.4201077384677774  5.8413988402662653 4.8067047440017632  6.0622920737240431 4.5000000000000009  6.2831853071795756 4.5 
 3.1415926535897931 9 4.7123889803846879 7 5.8904862254808563 7 7.6576320931251178 7 9.4247779607693793 9
7 0 0  8 30 5  0 4.5  0.19634954084936207 4.5  0.39269908169819701 4.742334267921251  0.58904862254894397 5.2270007451297715  0.78539816339161916 5.9340768718138861  0.98174770425021052 6.8236770633375272  1.1780972450959553 7.8401547942430625  1.3744467859455343 8.920077525328507  1.7180584824319181 10.809941856003615  1.8653206380687977 11.619883415588889  2.0125827937063718 12.403061666176654  2.1598449493434373 13.132706152780884  2.3071071049801617 13.783917204162947  2.4543692606171668 14.335497736493124  2.6016314162540466 14.771386099340463  2.9697868053466006 15.546264423019501  3.1906800388010197 15.727833439043025  3.4115732722548273 15.591479623566556  3.6324665057145467 15.132115552638425  3.85335973916699 14.379598189108947  4.0742529726212524 13.39629945438719  4.2951462060797949 12.26456534661494  4.7369326729908598 9.8814281955624743  4.9578259064473968 8.6300238332496519  5.1787191398907453 7.4073871230866644  5.3996123733522836 6.308310308635555  5.62050560679927 5.4201077384677774  5.8413988402708128 4.8067047440017632  6.0622920737240431 4.5000000000000009  6.2831853071795756 4.5 
 3.1415926535897931 9 4.7123889803846879 7 5.8904862254808563 7 7.6576320931251178 7 9.4247779607693793 9
7 0 0  8 30 5  0 15.5  0.19634954084936207 15.5  0.39269908169762857 15.257665732073292  0.58904862254848922 14.772999254826573  0.78539816339616664 14.065923128160648  0.9817477042452083 13.176322936604265  1.1780972450957279 12.159845205751481  1.3744467859455138 11.079922474671605  1.7180584824318974 9.1900581439964952  1.8653206380684941 8.3801165844099454  2.0125827937066489 7.5969383338267278  2.1598449493428689 6.8672938472222995  2.3071071049791527 6.216082795837309  2.4543692606174208 5.6645022635074227  2.6016314162540382 5.2286139006596812  2.9697868053465921 4.453735576980641  3.1906800388010197 4.2721665609587944  3.4115732722548273 4.4085203763715981  3.6324665056963568 4.8678844473615754  3.85335973916699 5.6204018108437594  4.0742529726226167 6.6037005456237239  4.2951462060798171 7.7354346533851848  4.7369326729908821 10.11857180443765  4.9578259064437589 11.369976166730339  5.1787191398980212 12.592612876942439  5.3996123733522836 13.691689691317151  5.620505606810184 14.579892261543137  5.8413988402644463 15.193295255981866  6.0622920737240431 15.5  6.2831853071795756 15.5 
 0 9 1.5707963267948961 7 2.7488935718910681 7 4.5160394395353265 7 6.2831853071795862 9
7 0 0  8 30 5  0 15.5  0.19634954084936207 15.5  0.39269908169762857 15.257665732073292  0.58904862254848922 14.772999254826573  0.78539816339616664 14.065923128160648  0.9817477042452083 13.176322936604265  1.1780972450957279 12.159845205751481  1.3744467859455138 11.079922474671605  1.7180584824318974 9.1900581439964952  1.8653206380684941 8.3801165844099454  2.0125827937066489 7.5969383338267278  2.1598449493428689 6.8672938472222995  2.3071071049791527 6.216082795837309  2.4543692606174208 5.6645022635074227  2.6016314162540382 5.2286139006596812  2.9697868053465921 4.453735576980641  3.1906800388010197 4.2721665609587944  3.4115732722548273 4.4085203763715981  3.6324665056963568 4.8678844473615754  3.85335973916699 5.6204018108437594  4.0742529726226167 6.6037005456237239  4.2951462060798171 7.7354346533851848  4.7369326729908821 10.11857180443765  4.9578259064437589 11.369976166730339  5.1787191398980212 12.592612876942439  5.3996123733522836 13.691689691317151  5.620505606810184 14.579892261543137  5.8413988402644463 15.193295255981866  6.0622920737240431 15.5  6.2831853071795756 15.5 
 0 9 1.5707963267948961 7 2.7488935718910681 7 4.5160394395353265 7 6.2831853071795862 9
7 0 0  8 30 5  0 15.5  0.19634954084936207 15.5  0.39269908169887913 15.257665732073292  0.58904862254803447 14.772999254826573  0.78539816339707613 14.065923128160648  0.98174770424566304 13.176322936604265  1.1780972450965237 12.159845205751481  1.3744467859455138 11.079922474671605  1.7180584824318974 9.1900581439964952  1.8653206380690484 8.3801165844099454  2.0125827937060734 7.5969383338267278  2.1598449493433236 6.8672938472222995  2.3071071049802327 6.216082795837309  2.4543692606167387 5.6645022635074227  2.6016314162540373 5.2286139006596812  2.9697868053465908 4.453735576980641  3.1906800388010197 4.2721665609587944  3.4115732722548273 4.4085203763715981  3.6324665056963568 4.8678844473615754  3.85335973916699 5.6204018108437594  4.0742529726226167 6.6037005456237239  4.2951462060798171 7.7354346533851848  4.7369326729908821 10.11857180443765  4.9578259064437589 11.369976166730339  5.1787191398980212 12.592612876942439  5.3996123733522836 13.691689691317151  5.620505606810184 14.579892261543137  5.8413988402644463 15.193295255981866  6.0622920737240431 15.5  6.2831853071795756 15.5 
 0 9 1.5707963267948954 7 2.7488935718910672 7 4.5160394395353265 7 6.2831853071795862 9
7 0 0  8 30 5  0 15.5  0.19634954084936207 15.5  0.39269908169887913 15.257665732073292  0.58904862254803447 14.772999254826573  0.78539816339707613 14.065923128160648  0.98174770424566304 13.176322936604265  1.1780972450965237 12.159845205751481  1.3744467859455138 11.079922474671605  1.7180584824318974 9.1900581439964952  1.8653206380690484 8.3801165844099454  2.0125827937060734 7.5969383338267278  2.1598449493433236 6.8672938472222995  2.3071071049802327 6.216082795837309  2.4543692606167387 5.6645022635074227  2.6016314162540373 5.2286139006596812  2.9697868053465908 4.453735576980641  3.1906800388010197 4.2721665609587944  3.4115732722548273 4.4085203763715981  3.6324665056963568 4.8678844473615754  3.85335973916699 5.6204018108437594  4.0742529726226167 6.6037005456237239  4.2951462060798171 7.7354346533851848  4.7369326729908821 10.11857180443765  4.9578259064437589 11.369976166730339  5.1787191398980212 12.592612876942439  5.3996123733522836 13.691689691317151  5.620505606810184 14.579892261543137  5.8413988402644463 15.193295255981866  6.0622920737240431 15.5  6.2831853071795756 15.5 
 0 9 1.5707963267948954 7 2.7488935718910672 7 4.5160394395353265 7 6.2831853071795862 9
1 0 1 1 0 
1 0 1 1 0 
7 0 0  8 16 3  1.3372625992285925 8.7272077938620214  1.5628038560237418 9.9340115970271547  1.7883451128188881 11.214811221796481  2.0138863696101907 12.476052954421903  2.2394276264058135 13.616201535507571  2.4649688832014363 14.540763941113255  2.690510140000697 15.180251997151572  2.9160513967946438 15.500000000000114  3.3671339103849425 15.500000000000114  3.5926751671763668 15.180251997151572  3.8182164239788108 14.540763941171463  4.0437576807416917 13.616201535442087  4.2692989375755133 12.476052954523766  4.4948401943565841 11.214811221796481  4.720381451155844 9.9340115970271547  4.9459227079509933 8.7272077938620214 
 4.4788552528183905 9 6.2831853071795862 7 8.0875153615407811 9
7 0 0  8 16 3  1.3372625992285925 8.7272077938620214  1.5628038560237418 9.9340115970271547  1.7883451128184333 11.214811221796481  2.0138863696056433 12.476052954421903  2.2394276264149084 13.616201535507571  2.4649688831959793 14.540763941113255  2.6905101399993328 15.180251997151572  2.9160513967946438 15.500000000000114  3.3671339103849425 15.500000000000114  3.5926751671763668 15.180251997151572  3.8182164239788108 14.540763941171463  4.0437576807416917 13.616201535442087  4.2692989375755133 12.476052954523766  4.4948401943565841 11.214811221796481  4.720381451155844 9.9340115970271547  4.9459227079509933 8.7272077938620214 
 4.4788552528183905 9 6.2831853071795862 7 8.0875153615407811 9
7 0 0  8 23 4  1.030652349118671 32.62741699796959  1.1625861181481147 32.00508665411715  1.2945198871774604 31.326489930143531  1.4264536562073289 30.608133760460305  1.5583874252366741 29.86861392488936  1.6903211942658274 29.127697762877915  1.8222549632953928 28.405205335128542  1.9541887323247886 27.71988596315262  2.284023154898398 26.141388748410488  2.4819238084423887 25.315611383244686  2.6798244619858451 24.667678423473262  2.8777251155188424 24.243970640090993  3.0756257690700295 24.073669613164384  3.2735264226180334 24.163708895241143  3.4714270761634025 24.499144567424061  3.8672283832517338 25.595386817735765  4.0651290367909496 26.356193671541405  4.2630296903571434 27.296971475385362  4.4609303438774077 28.367252113239374  4.6588309974504227 29.502845219903975  4.8567316509670491 30.633826276131003  5.0546323045167494 31.693921482190923  5.2525329580609155 32.62741699796959 
 1.0306523491186923 9 2.086122501354251 7 3.6693277297075721 7 5.2525329580608942 9
7 0 0  8 23 4  1.030652349118671 32.62741699796959  1.1625861181481147 32.00508665411715  1.2945198871778441 31.326489930143531  1.4264536562070944 30.608133760460305  1.5583874252369014 29.86861392488936  1.6903211942664313 29.127697762877915  1.8222549632951797 28.405205335128542  1.9541887323247888 27.71988596315262  2.2840231548983985 26.141388748410488  2.481923808438296 25.315611383244686  2.6798244619931211 24.667678423473262  2.8777251155242993 24.243970640090993  3.0756257690827624 24.073669613164384  3.2735264226162144 24.163708895241143  3.4714270761634025 24.499144567424061  3.8672283832517338 25.595386817735765  4.0651290367909496 26.356193671541405  4.2630296903571434 27.296971475385362  4.4609303438774077 28.367252113239374  4.6588309974504227 29.502845219903975  4.8567316509670491 30.633826276131003  5.0546323045167494 31.693921482190923  5.2525329580609155 32.62741699796959 
 1.0306523491186923 9 2.086122501354251 7 3.6693277297075721 7 5.2525329580608942 9
7 0 0  7 14 3  0 24.298989873223331  0.1507814503193643 24.298989873223331  0.30156290063870017 24.444873364136583  0.45234435095841263 24.736638041802507  0.60312580127725823 25.166167235609464  0.75390725159687122 25.717183864155231  0.90468870191618511 26.366888350516504  1.2062516025549139 27.810085803995023  1.3570330528742716 28.603578512161221  1.5078145031930035 29.442169313333579  1.6585959535136681 30.295058536437864  1.8093774038322863 31.129925800443743  1.9601588541517365 31.916182319281013  2.110940304471101 32.627416997969519 
 3.1415926535897931 8 4.1970628058253432 6 5.2525329580608942 8
7 0 0  7 14 3  4.1722450027084852 32.627416997969519  4.3230264530278495 31.916182319281013  4.4738079033474136 31.129925800436467  4.6245893536663729 30.295058536459692  4.7753708039863554 29.442169313322665  4.9261522543050873 28.603578512165768  5.0769337046246701 27.81008580399503  5.3784966052633987 26.366888350516511  5.5292780555828003 25.71718386415796  5.6800595059019869 25.16616723559855  5.8308409562215715 24.736638041817059  5.9816224065407866 24.444873364125669  6.1324038568602219 24.298989873223331  6.2831853071795862 24.298989873223331 
 1.0306523491186923 8 2.086122501354243 6 3.1415926535897931 8
7 0 0  7 14 3  0 24.298989873223331  0.1507814503193643 24.298989873223331  0.3015629006388707 24.444873364136583  0.4523443509578442 24.736638041802507  0.60312580127788351 25.166167235609464  0.75390725159675753 25.717183864155231  0.90468870191618511 26.366888350516504  1.2062516025549139 27.810085803995023  1.3570330528742147 28.603578512161221  1.5078145031934582 29.442169313333579  1.6585959535132133 30.295058536437864  1.8093774038324568 31.129925800443743  1.9601588541517365 31.916182319281013  2.110940304471101 32.627416997969519 
 3.1415926535897931 8 4.1970628058253432 6 5.2525329580608942 8
7 0 0  7 14 3  4.1722450027084852 32.627416997969519  4.3230264530278495 31.916182319281013  4.4738079033471294 31.129925800436467  4.6245893536661455 30.295058536459692  4.7753708039856733 29.442169313322665  4.9261522543052578 28.603578512165768  5.0769337046246719 27.81008580399503  5.3784966052634005 26.366888350516511  5.5292780555826582 25.71718386415796  5.6800595059022712 25.16616723559855  5.8308409562210599 24.736638041817059  5.9816224065409287 24.444873364125669  6.1324038568602219 24.298989873223331  6.2831853071795862 24.298989873223331 
 1.0306523491186923 8 2.086122501354243 6 3.1415926535897931 8
7 0 0  8 9 2  4.4788552528189136 8.7272077938646202  4.7043965096139981 9.9340115970295528  4.9299377664094877 11.214811221796481  5.1554790232042009 12.476052954465558  5.381020279995731 13.616201535405708  5.606561536792718 14.540763941113255  5.8321027935899323 15.180251997151572  6.0576440503845017 15.5  6.2831853071795862 15.5 
 4.4788552528189136 9 6.2831853071795862 9
7 0 0  8 9 2  0 15.5  0.22554125679508411 15.5  0.45108251358954021 15.180251997160667  0.67662377038459454 14.540763941091427  0.90216502717612457 13.616201535442087  1.1277062839758401 12.47605295444373  1.3532475407698712 11.2148112217983  1.5787887975655888 9.9340115970295528  1.8043300543606728 8.7272077938646202 
 0 9 1.8043300543606728 9
7 0 0  8 9 2  4.4788552528189118 8.7272077938646095  4.7043965096139964 9.9340115970295439  4.9299377664096014 11.214811221794662  5.1554790232037462 12.47605295444373  5.3810202800043712 13.616201535391156  5.6065615367940822 14.540763941120531  5.8321027935899323 15.180251997142477  6.0576440503845017 15.5  6.2831853071795862 15.5 
 4.4788552528189118 9 6.2831853071795862 9
7 0 0  8 9 2  0 15.5  0.22554125679508424 15.5  0.45108251358988127 15.180251997144296  0.67662377038686827 14.540763941156911  0.90216502717703406 13.616201535369328  1.1277062839762948 12.47605295448011  1.3532475407698712 11.214811221781929  1.5787887975655894 9.9340115970295493  1.8043300543606737 8.7272077938646149 
 0 9 1.804330054360674 9
7 0 0  8 30 5  0 29.955844122715714  0.19634954084936207 29.955844122715714  0.3926990816974012 30.198178390597604  0.58904862254667023 30.682844867769745  0.78539816339616664 31.389920994464774  0.98174770424611779 32.279521185992053  1.1780972450951595 33.295998916928511  1.3744467859455345 34.375921648044226  1.7180584824319183 36.265785978719329  1.8653206380690537 37.075727538303731  2.0125827937062155 37.858905788907123  2.1598449493433236 38.588550275502712  2.3071071049802612 39.239761326872895  2.4543692606170815 39.791341859212395  2.6016314162540466 40.227230222056164  2.9697868053466006 41.002108545735211  3.1906800388010197 41.183677561741206  3.4115732722548273 41.047323746272014  3.6324665057145467 40.587959675234742  3.85335973916699 39.83544231185806  4.0742529726212524 38.85214357705263  4.2951462060797949 37.720409469330654  4.7369326729908598 35.337272318278188  4.9578259064464874 34.085867955946014  5.1787191398980212 32.863231245864881  5.3996123733522836 31.764154431351926  5.6205056068174599 30.875951861220528  5.8413988402699033 30.262548866703582  6.0622920737240431 29.955844122715714  6.2831853071795756 29.955844122715714 
 3.1415926535897931 9 4.7123889803847163 7 5.890486225480899 7 7.6576320931251391 7 9.4247779607693793 9
7 0 0  5 6 2  4.1722450027084843 32.627416997969519  4.2802737982437256 33.136987807368648  4.3883025937789739 33.6878178529509  4.4963313893142072 34.267526389421448  4.6043601848494484 34.861685747271892  4.7123889803846897 35.455844122715718 
 4.1722450027084852 6 4.7123889803846897 6
1 6.2831853071795862 -0 0 1 
1 0 -0 0 1 
7 0 0  5 6 2  1.5707963267948966 35.455844122715718  1.6788251223301374 34.861685747271892  1.7868539178653755 34.267526389421391  1.8948827134006265 33.687817852950957  2.0029115089358602 33.136987807368648  2.110940304471101 32.627416997969519 
 1.5707963267948966 6 2.110940304471101 6
7 0 0  8 30 5  0 29.955844122715714  0.19634954084936207 29.955844122715714  0.39269908169967493 30.198178390597604  0.58904862254621548 30.682844867769745  0.78539816339889512 31.389920994464774  0.98174770424247981 32.279521185992053  1.17809724509641 33.295998916928511  1.3744467859455345 34.375921648044226  1.7180584824319183 36.265785978719329  1.8653206380687126 37.075727538303731  2.0125827937057608 37.858905788907123  2.1598449493428689 38.588550275502712  2.3071071049800622 39.239761326872895  2.454369260617252 39.791341859212395  2.6016314162540466 40.227230222056164  2.9697868053466006 41.002108545735211  3.1906800388010197 41.183677561741206  3.4115732722548273 41.047323746272014  3.6324665056999947 40.587959675234742  3.853359739174266 39.83544231185806  4.0742529726194334 38.85214357705263  4.2951462060797949 37.720409469330654  4.7369326729908598 35.337272318278188  4.9578259064437589 34.085867955946014  5.1787191399052972 32.863231245864881  5.3996123733231798 31.764154431351926  5.6205056068283739 30.875951861220528  5.8413988402635368 30.262548866703582  6.0622920737240431 29.955844122715714  6.2831853071795756 29.955844122715714 
 3.1415926535897931 9 4.7123889803847163 7 5.890486225480899 7 7.6576320931251391 7 9.4247779607693793 9
7 0 0  5 6 2  4.1722450027084843 32.627416997969519  4.2802737982437256 33.136987807368648  4.3883025937789739 33.6878178529509  4.4963313893142072 34.267526389421448  4.6043601848494484 34.861685747271892  4.7123889803846897 35.455844122715718 
 4.1722450027084852 6 4.7123889803846897 6
1 6.2831853071795862 -0 0 1 
1 0 -0 0 1 
7 0 0  5 6 2  1.5707963267948966 35.455844122715718  1.6788251223301374 34.861685747271892  1.7868539178653755 34.267526389421391  1.8948827134006265 33.687817852950957  2.0029115089358602 33.136987807368648  2.110940304471101 32.627416997969519 
 1.5707963267948966 6 2.110940304471101 6
1 6.2831853071795862 -0 0 1 
1 0 -0 0 1 
7 0 0  8 30 5  0 40.955844122715689  0.19634954084936207 40.955844122715689  0.39269908169796963 40.71350985475874  0.58904862254894397 40.228843377597514  0.78539816339525714 39.521767250815174  0.98174770424611779 38.632167059433414  1.1780972450956142 37.615689328420558  1.3744467859455138 36.535766597387294  1.7180584824318974 34.645902266712191  1.8653206380691763 33.835960707121203  2.0125827937052847 33.052782456544605  2.1598449493427552 32.323137969939125  2.3071071049803322 31.671926918550525  2.4543692606166534 31.120346386224135  2.6016314162540382 30.68445802337537  2.9697868053465921 29.90957969969633  3.1906800388023839 29.728010683626053  3.4115732722584653 29.864364499066141  3.6324665056999947 30.323728570016101  3.853359739176085 31.07624593359651  4.0742529726226167 32.059544668289163  4.2951462060798171 33.191278776100873  4.7369326729908821 35.574415927153339  4.9578259064446684 36.825820289450348  5.1787191399089352 38.048456999531481  5.3996123733704735 39.147533813986229  5.620505606806546 40.035736384132179  5.8413988402689938 40.649139378685504  6.0622920737240431 40.955844122715689  6.2831853071795756 40.955844122715689 
 0 9 1.5707963267949068 7 2.7488935718910765 7 4.5160394395353318 7 6.2831853071795862 9
7 0 0  5 6 2  1.5707963267948759 35.455844122715803  1.4627675312596335 34.86168574727197  1.3547387357244087 34.267526389421676  1.2467099401891648 33.687817852951014  1.1386811446539113 33.136987807368726  1.030652349118669 32.62741699796959 
 1.5707963267948966 6 2.1109403044711081 6
7 0 0  5 6 2  5.2525329580609164 32.62741699796959  5.1445041625256742 33.136987807368726  5.0364753669904303 33.687817852951014  4.9284465714551899 34.267526389421676  4.8204177759199522 34.86168574727197  4.7123889803847101 35.455844122715803 
 4.1722450027084781 6 4.7123889803846897 6
7 0 0  8 30 5  0 40.955844122715689  0.19634954084936207 40.955844122715689  0.39269908169796963 40.71350985475874  0.58904862254894397 40.228843377597514  0.78539816339525714 39.521767250815174  0.98174770424611779 38.632167059433414  1.1780972450956142 37.615689328420558  1.3744467859455138 36.535766597387294  1.7180584824318974 34.645902266712191  1.8653206380691763 33.835960707121203  2.0125827937052847 33.052782456544605  2.1598449493427552 32.323137969939125  2.3071071049803322 31.671926918550525  2.4543692606166534 31.120346386224135  2.6016314162540382 30.68445802337537  2.9697868053465921 29.90957969969633  3.1906800388023839 29.728010683626053  3.4115732722584653 29.864364499066141  3.6324665056999947 30.323728570016101  3.853359739176085 31.07624593359651  4.0742529726226167 32.059544668289163  4.2951462060798171 33.191278776100873  4.7369326729908821 35.574415927153339  4.9578259064446684 36.825820289450348  5.1787191399089352 38.048456999531481  5.3996123733704735 39.147533813986229  5.620505606806546 40.035736384132179  5.8413988402689938 40.649139378685504  6.0622920737240431 40.955844122715689  6.2831853071795756 40.955844122715689 
 0 9 1.5707963267949068 7 2.7488935718910765 7 4.5160394395353318 7 6.2831853071795862 9
1 6.2831853071795862 -0 0 1 
1 0 -0 0 1 
7 0 0  8 30 5  0 40.955844122715689  0.19634954084936207 40.955844122715689  0.39269908169865175 40.71350985475874  0.58904862254621548 40.228843377597514  0.78539816339798563 39.521767250815174  0.9817477042452083 38.632167059433414  1.1780972450962963 37.615689328420558  1.3744467859455138 36.535766597387294  1.7180584824318974 34.645902266712191  1.8653206380690057 33.835960707121203  2.0125827937057679 33.052782456544605  2.1598449493432099 32.323137969939125  2.3071071049803749 31.671926918550525  2.4543692606167387 31.120346386224135  2.6016314162540373 30.68445802337537  2.9697868053465908 29.90957969969633  3.1906800388042029 29.728010683626053  3.4115732722584653 29.864364499066141  3.6324665057072707 30.323728570016101  3.853359739176085 31.07624593359651  4.0742529726226167 32.059544668289163  4.2951462060798171 33.191278776100873  4.7369326729908821 35.574415927153339  4.9578259064446684 36.825820289450348  5.1787191399089352 38.048456999531481  5.3996123733704735 39.147533813986229  5.620505606806546 40.035736384132179  5.8413988402689938 40.649139378685504  6.0622920737240431 40.955844122715689  6.2831853071795756 40.955844122715689 
 0 9 1.5707963267949059 7 2.7488935718910752 7 4.51603943953533 7 6.2831853071795862 9
7 0 0  5 6 2  1.5707963267948759 35.455844122715803  1.4627675312596335 34.86168574727197  1.3547387357244087 34.267526389421676  1.2467099401891613 33.687817852951014  1.138681144653912 33.136987807368726  1.0306523491186697 32.62741699796959 
 1.5707963267948966 6 2.1109403044711081 6
7 0 0  5 6 2  5.2525329580609164 32.62741699796959  5.1445041625256742 33.136987807368726  5.0364753669904303 33.687817852951014  4.9284465714551899 34.267526389421676  4.8204177759199522 34.86168574727197  4.7123889803847101 35.455844122715803 
 4.1722450027084781 6 4.7123889803846897 6
7 0 0  8 30 5  0 40.955844122715689  0.19634954084936207 40.955844122715689  0.39269908169865175 40.71350985475874  0.58904862254621548 40.228843377597514  0.78539816339798563 39.521767250815174  0.9817477042452083 38.632167059433414  1.1780972450962963 37.615689328420558  1.3744467859455138 36.535766597387294  1.7180584824318974 34.645902266712191  1.8653206380690057 33.835960707121203  2.0125827937057679 33.052782456544605  2.1598449493432099 32.323137969939125  2.3071071049803749 31.671926918550525  2.4543692606167387 31.120346386224135  2.6016314162540373 30.68445802337537  2.9697868053465908 29.90957969969633  3.1906800388042029 29.728010683626053  3.4115732722584653 29.864364499066141  3.6324665057072707 30.323728570016101  3.853359739176085 31.07624593359651  4.0742529726226167 32.059544668289163  4.2951462060798171 33.191278776100873  4.7369326729908821 35.574415927153339  4.9578259064446684 36.825820289450348  5.1787191399089352 38.048456999531481  5.3996123733704735 39.147533813986229  5.620505606806546 40.035736384132179  5.8413988402689938 40.649139378685504  6.0622920737240431 40.955844122715689  6.2831853071795756 40.955844122715689 
 0 9 1.5707963267949059 7 2.7488935718910752 7 4.51603943953533 7 6.2831853071795862 9
1 0 16 1 0 
1 6.2831853071795862 -0 0 1 
1 0 -0 0 1 
1 0 16 1 0 
1 6.2831853071795862 -0 0 1 
1 0 -0 0 1 
1 0 1 1 0 
1 0 1 1 0 
1 0 1 1 0 
1 0 1 1 0 
1 0 1 1 0 
1 0 1 1 0 
1 0 1 1 0 
1 0 1 1 0 
1 0 1 1 0 
1 0 3 1 0 
1 0 3 1 0 
1 0 0 1 0 
1 0 0 1 0 
1 6.2831853071795862 -0 0 1 
1 0 -0 0 1 
1 0 0 1 0 
1 6.2831853071795862 -0 0 1 
1 0 -0 0 1 
1 0 14 1 0 
1 6.2831853071795862 -0 0 1 
1 0 -0 0 1 
1 0 14 1 0 
1 6.2831853071795862 -0 0 1 
1 0 -0 0 1 
1 0 14 1 0 
1 6.2831853071795862 -0 0 1 
1 0 -0 0 1 
1 0 14 1 0 
1 6.2831853071795862 -0 0 1 
1 0 -0 0 1 
1 0 0 1 0 
1 6.2831853071795862 -0 0 1 
1 0 -0 0 1 
1 0 0 1 0 
1 6.2831853071795862 -0 0 1 
1 0 -0 0 1 
1 0 14 1 0 
1 6.2831853071795862 -0 0 1 
1 0 -0 0 1 
1 0 14 1 0 
1 6.2831853071795862 -0 0 1 
1 0 -0 0 1 
1 6.2831853071795862 -0 0 1 
1 0 -0 0 1 
Curves 145
1 568.25 3.8890873012275202 18 0 1 0 
1 568.25 1311.9890873012275 18 -2.2204460492503131e-16 -0 -1 
1 568.25 1293.9890873012275 4 0 1 0 
1 568.25 1293.9890873012275 4 -2.2204460492503131e-16 -0 -1 
1 550.25 3.8890873012275202 0 0 1 0 
1 568.25 21.889087301227519 4 -2.2204460492503131e-16 -0 -1 
1 568.25 3.8890873012275202 4 0 1 0 
1 568.25 3.8890873012275202 18 -2.2204460492503131e-16 -0 -1 
3 472.25 3.8890873012275202 18 2.2204460492503131e-16 -0 1 0 1 0 -1 0 2.2204460492503131e-16 7.7781745930520225 5.5
1 168.19999999999999 3.8890873012275202 18.000000000000114 1 -0 -2.2204460492503131e-16 
1 168.19999999999999 3.8890873012275202 18.000000000000114 1 -0 -2.2204460492503131e-16 
3 414.25 3.8890873012275202 18 2.2204460492503131e-16 -0 1 0 1 0 -1 0 2.2204460492503131e-16 7.7781745930520225 5.5
1 568.25 1311.9890873012275 18 -1 0 2.2204460492503131e-16 
1 168.19999999999999 3.8890873012275202 18.000000000000114 1 -0 -2.2204460492503131e-16 
3 504.25 1311.9890873012275 18 2.2204460492503131e-16 0 1 0 -1 0 1 0 -2.2204460492503131e-16 7.7781745930520225 5.5
1 -28.649999999999977 1131.0140873012276 18.000000000000114 0.17204376626835494 -0.98508930685912921 -3.82013901108713e-17 
3 504.25 1311.9890873012275 18 2.2204460492503131e-16 0 1 0 -1 0 1 0 -2.2204460492503131e-16 7.7781745930520225 5.5
1 -28.649999999999977 1311.9890873012275 18.000000000000114 0 -1 -0 
1 568.25 1311.9890873012275 18 -1 0 2.2204460492503131e-16 
1 568.25 1311.9890873012275 18 -1 0 2.2204460492503131e-16 
3 446.25 1311.9890873012275 18 2.2204460492503131e-16 0 1 0 -1 0 1 0 -2.2204460492503131e-16 7.7781745930520225 5.5
3 446.25 1311.9890873012275 18 2.2204460492503131e-16 0 1 0 -1 0 1 0 -2.2204460492503131e-16 7.7781745930520225 5.5
2 211.01971830985917 130.88908730122753 18.000000000000114 2.2204460492503131e-16 0 1 -1 0 2.2204460492503131e-16 -0 -1 0 7.9375
2 217.65633802816899 92.889087301227519 18.000000000000114 2.2204460492503131e-16 0 1 -1 0 2.2204460492503131e-16 -0 -1 0 7.9375
3 504.25 1311.9890873012275 17.999999999999886 0 1 0 -2.2204460492503131e-16 0 -1 -1 0 2.2204460492503131e-16 7.7781745930520225 5.5
3 446.25 1311.9890873012275 17.999999999999886 0 1 0 -2.2204460492503131e-16 0 -1 -1 0 2.2204460492503131e-16 7.7781745930520225 5.5
1 -28.649999999999977 1311.9890873012275 18.000000000000114 -2.2204460492503131e-16 -0 -1 
1 568.25 1311.9890873012275 4 -1 0 2.2204460492503131e-16 
1 568.25 1293.9890873012275 4 -1 0 2.2204460492503131e-16 
1 -28.649999999999977 1131.0140873012276 4.0000000000001137 0 1 0 
1 -10.649999999999977 1131.0140873012276 4.0000000000001137 -1 0 2.2204460492503131e-16 
1 -10.649999999999977 1131.0140873012276 4.0000000000001137 0 1 0 
1 568.25 1293.9890873012275 4 -1 0 2.2204460492503131e-16 
3 446.25 1297.9890873012275 4 2.2204460492503131e-16 0 1 0 -1 0 1 0 -2.2204460492503131e-16 7.7781745930520225 5.5
1 568.25 1293.9890873012275 4 -1 0 2.2204460492503131e-16 
3 504.25 1297.9890873012275 4 2.2204460492503131e-16 0 1 0 -1 0 1 0 -2.2204460492503131e-16 7.7781745930520225 5.5
1 568.25 1293.9890873012275 4 -1 0 2.2204460492503131e-16 
1 532.25 21.889087301227519 4 0 1 0 
1 568.25 21.889087301227519 4 -1 0 2.2204460492503131e-16 
3 472.25 17.889087301227519 4 2.2204460492503131e-16 -0 1 0 1 0 -1 0 2.2204460492503131e-16 7.7781745930520225 5.5
3 472.25 17.889087301227519 4 2.2204460492503131e-16 -0 1 0 1 0 -1 0 2.2204460492503131e-16 7.7781745930520225 5.5
1 568.25 21.889087301227519 4 -1 0 2.2204460492503131e-16 
3 414.25 17.889087301227519 4 2.2204460492503131e-16 -0 1 0 1 0 -1 0 2.2204460492503131e-16 7.7781745930520225 5.5
3 414.25 17.889087301227519 4 2.2204460492503131e-16 -0 1 0 1 0 -1 0 2.2204460492503131e-16 7.7781745930520225 5.5
1 568.25 21.889087301227519 4 -1 0 2.2204460492503131e-16 
1 168.19999999999999 3.8890873012275202 4.0000000000001137 0 1 0 
1 568.25 3.8890873012275202 4 -1 0 2.2204460492503131e-16 
1 568.25 21.889087301227519 4 -1 0 2.2204460492503131e-16 
1 550.25 21.889087301227519 4 0 1 0 
1 568.25 1293.9890873012275 0 -1 0 2.2204460492503131e-16 
1 550.25 1293.9890873012275 4 -2.2204460492503131e-16 -0 -1 
1 568.25 21.889087301227519 0 -1 0 2.2204460492503131e-16 
1 550.25 21.889087301227519 0 0 1 0 
1 550.25 21.889087301227519 4 -2.2204460492503131e-16 -0 -1 
3 414.25 3.8890873012275202 18 -0 -1 0 -2.2204460492503131e-16 0 -1 1 -0 -2.2204460492503131e-16 7.7781745930520225 5.5
3 414.25 3.8890873012275202 18 -0 -1 0 -2.2204460492503131e-16 0 -1 1 -0 -2.2204460492503131e-16 7.7781745930520225 5.5
3 472.25 3.8890873012275202 18 -0 -1 0 -2.2204460492503131e-16 0 -1 1 -0 -2.2204460492503131e-16 7.7781745930520225 5.5
3 472.25 3.8890873012275202 18 -0 -1 0 -2.2204460492503131e-16 0 -1 1 -0 -2.2204460492503131e-16 7.7781745930520225 5.5
1 168.19999999999999 3.8890873012275202 18.000000000000114 -2.2204460492503131e-16 -0 -1 
3 472.25 21.889087301227519 0 2.2204460492503131e-16 -0 1 0 1 0 -1 0 2.2204460492503131e-16 7.7781745930520225 5.5
3 472.25 21.889087301227519 0 -0 -1 0 -2.2204460492503131e-16 0 -1 1 -0 -2.2204460492503131e-16 7.7781745930520225 5.5
1 472.25 -7.0710678071639661 21.181980515339433 -1.5700924586837752e-16 0.70710678118654757 -0.70710678118654757 
3 472.25 21.889087301227519 0 -0 -1 0 -2.2204460492503131e-16 0 -1 1 -0 -2.2204460492503131e-16 7.7781745930520225 5.5
3 414.25 21.889087301227519 0 2.2204460492503131e-16 -0 1 0 1 0 -1 0 2.2204460492503131e-16 7.7781745930520225 5.5
3 414.25 21.889087301227519 0 -0 -1 0 -2.2204460492503131e-16 0 -1 1 -0 -2.2204460492503131e-16 7.7781745930520225 5.5
1 414.25 -7.0710678071639661 21.181980515339433 -1.5700924586837752e-16 0.70710678118654757 -0.70710678118654757 
3 414.25 21.889087301227519 0 -0 -1 0 -2.2204460492503131e-16 0 -1 1 -0 -2.2204460492503131e-16 7.7781745930520225 5.5
1 504.25 1315.1710678165671 28.960155108391518 -1.5700924586837752e-16 -0.70710678118654757 -0.70710678118654757 
3 504.25 1293.9890873012275 0 2.2204460492503131e-16 0 1 0 -1 0 1 0 -2.2204460492503131e-16 7.7781745930520225 5.5
3 504.25 1293.9890873012275 0 -0 -1 0 -2.2204460492503131e-16 0 -1 1 -0 -2.2204460492503131e-16 7.7781745930520225 5.5
3 504.25 1293.9890873012275 0 -0 -1 0 -2.2204460492503131e-16 0 -1 1 -0 -2.2204460492503131e-16 7.7781745930520225 5.5
3 504.25 1293.9890873012275 0 2.2204460492503131e-16 0 1 0 -1 0 1 0 -2.2204460492503131e-16 7.7781745930520225 5.5
1 168.19999999999999 3.8890873012275202 18.000000000000114 -2.2204460492503131e-16 -0 -1 
1 -46.649999999999977 1131.0140873012276 1.1368683772161603e-13 0.17204376626835494 -0.98508930685912921 -3.82013901108713e-17 
1 187.2964486182949 58.590873438409766 9.0000000000001137 -2.2204460492503131e-16 0 -1 
1 93.648224309147508 594.80248036981857 7.0500000000000682 -0.17204376626835494 0.98508930685912921 3.82013901108713e-17 
1 2.1214418895077642 1118.8671216435621 9.0000000000001137 -2.2204460492503131e-16 0 -1 
1 -46.649999999999977 1131.0140873012276 1.1368683772161603e-13 0.17204376626835494 -0.98508930685912921 -3.82013901108713e-17 
1 -28.649999999999977 1131.0140873012276 18.000000000000114 -2.2204460492503131e-16 -0 -1 
1 -28.649999999999977 1131.0140873012276 18.000000000000114 -2.2204460492503131e-16 -0 -1 
1 446.25 1315.1710678165671 28.960155108391518 -1.5700924586837752e-16 -0.70710678118654757 -0.70710678118654757 
3 446.25 1293.9890873012275 0 2.2204460492503131e-16 0 1 0 -1 0 1 0 -2.2204460492503131e-16 7.7781745930520225 5.5
3 446.25 1293.9890873012275 0 -0 -1 0 -2.2204460492503131e-16 0 -1 1 -0 -2.2204460492503131e-16 7.7781745930520225 5.5
3 446.25 1293.9890873012275 0 -0 -1 0 -2.2204460492503131e-16 0 -1 1 -0 -2.2204460492503131e-16 7.7781745930520225 5.5
3 446.25 1293.9890873012275 0 2.2204460492503131e-16 0 1 0 -1 0 1 0 -2.2204460492503131e-16 7.7781745930520225 5.5
2 211.01971830985917 130.88908730122753 3.0000000000001137 2.2204460492503131e-16 0 1 -1 0 2.2204460492503131e-16 -0 -1 0 7.9375
1 203.08221830985917 130.88908730122753 19.000000000000114 -2.2204460492503131e-16 -0 -1 
2 217.65633802816899 92.889087301227519 3.0000000000001137 2.2204460492503131e-16 0 1 -1 0 2.2204460492503131e-16 -0 -1 0 7.9375
1 209.71883802816899 92.889087301227519 19.000000000000114 -2.2204460492503131e-16 -0 -1 
1 -10.649999999999977 1131.0140873012276 4.0000000000001137 -2.2204460492503131e-16 -0 -1 
1 -10.649999999999977 1131.0140873012276 1.1368683772161603e-13 -1 0 2.2204460492503131e-16 
1 -10.649999999999977 1293.9890873012275 4.0000000000001137 -2.2204460492503131e-16 -0 -1 
1 -10.649999999999977 1131.0140873012276 1.1368683772161603e-13 0 1 0 
1 568.25 1293.9890873012275 0 -1 0 2.2204460492503131e-16 
1 568.25 1293.9890873012275 0 -1 0 2.2204460492503131e-16 
1 532.25 1293.9890873012275 4 -2.2204460492503131e-16 -0 -1 
1 568.25 1293.9890873012275 0 -1 0 2.2204460492503131e-16 
1 532.25 21.889087301227519 0 0 1 0 
1 532.25 21.889087301227519 4 -2.2204460492503131e-16 -0 -1 
1 568.25 21.889087301227519 0 -1 0 2.2204460492503131e-16 
1 568.25 21.889087301227519 0 -1 0 2.2204460492503131e-16 
1 568.25 21.889087301227519 0 -1 0 2.2204460492503131e-16 
1 168.19999999999999 21.889087301227519 4.0000000000001137 -2.2204460492503131e-16 -0 -1 
1 168.19999999999999 3.8890873012275202 1.1368683772161603e-13 0 1 0 
1 192.46816747930725 -45.748877351791748 -404.32056679622633 -0.98508930685912921 -0.16947847446272785 0.029599057511800586 
1 192.46816747930725 -45.748877351791748 -404.32056679622633 -0.17204376626835502 0.97040094248819964 -0.16947847446272785 
1 7.2931607505200304 998.71791707182001 -586.73448582232197 -0.98508930685912921 -0.16947847446272785 0.029599057511800586 
2 376.25 1040.8890873012276 0 2.2204460492503131e-16 0 1 -1 0 2.2204460492503131e-16 -0 -1 0 1.5
2 337.25 993.88908730122751 0 -2.2204460492503131e-16 -0 -1 1 0 -2.2204460492503131e-16 0 -1 0 1.25
2 337.25 923.88908730122751 0 -2.2204460492503131e-16 -0 -1 1 0 -2.2204460492503131e-16 0 -1 0 1.25
2 397.25 693.88908730122751 0 -2.2204460492503131e-16 -0 -1 1 0 -2.2204460492503131e-16 0 -1 0 1.25
2 397.25 623.88908730122751 0 -2.2204460492503131e-16 -0 -1 1 0 -2.2204460492503131e-16 0 -1 0 1.25
2 248.13983494254671 1046.3890873012276 1.1368683772161603e-13 2.2204460492503131e-16 0 1 -1 0 2.2204460492503131e-16 -0 -1 0 1.5
2 120.02966988509348 1059.1397071484075 1.1368683772161603e-13 2.2204460492503131e-16 0 1 -1 0 2.2204460492503131e-16 -0 -1 0 1.5
2 417.25 248.88908730122753 0 -2.2204460492503131e-16 -0 -1 1 0 -2.2204460492503131e-16 0 -1 0 1.25
2 417.25 178.88908730122753 0 -2.2204460492503131e-16 -0 -1 1 0 -2.2204460492503131e-16 0 -1 0 1.25
2 217.65633802816899 92.889087301227519 1.1368683772161603e-13 2.2204460492503131e-16 0 1 -1 0 2.2204460492503131e-16 -0 -1 0 12.5
2 211.01971830985917 130.88908730122753 1.1368683772161603e-13 2.2204460492503131e-16 0 1 -1 0 2.2204460492503131e-16 -0 -1 0 12.5
1 192.46816747930725 -45.748877351791748 -404.32056679622633 2.2204460492503131e-16 0.17204376626835502 0.98508930685912921 
1 192.46816747930725 -44.535968799599843 -397.37568718286957 -0.98508930685912921 -0.16947847446272785 0.029599057511800586 
1 7.2931607505200304 999.93082562401173 -579.78960620896521 -0.98508930685912921 -0.16947847446272785 0.029599057511800586 
1 192.46816747930725 -44.535968799599843 -397.37568718286957 -0.17204376626835502 0.97040094248819964 -0.16947847446272785 
1 7.2931607505200304 998.71791707182001 -586.73448582232197 2.2204460492503131e-16 0.17204376626835502 0.98508930685912921 
2 211.01971830985917 130.88908730122753 3.0000000000001137 2.2204460492503131e-16 0 1 -1 0 2.2204460492503131e-16 -0 -1 0 12.5
2 217.65633802816899 92.889087301227519 3.0000000000001137 2.2204460492503131e-16 0 1 -1 0 2.2204460492503131e-16 -0 -1 0 12.5
1 374.75 1040.8890873012276 1 -2.2204460492503131e-16 -0 -1 
2 376.25 1040.8890873012276 1 2.2204460492503131e-16 0 1 -1 0 2.2204460492503131e-16 -0 -1 0 1.5
1 338.5 993.88908730122751 -1 2.2204460492503131e-16 0 1 
2 337.25 993.88908730122751 13 -2.2204460492503131e-16 -0 -1 1 0 -2.2204460492503131e-16 0 -1 0 1.25
1 338.5 923.88908730122751 -1 2.2204460492503131e-16 0 1 
2 337.25 923.88908730122751 13 -2.2204460492503131e-16 -0 -1 1 0 -2.2204460492503131e-16 0 -1 0 1.25
1 398.5 693.88908730122751 -1 2.2204460492503131e-16 0 1 
2 397.25 693.88908730122751 13 -2.2204460492503131e-16 -0 -1 1 0 -2.2204460492503131e-16 0 -1 0 1.25
1 398.5 623.88908730122751 -1 2.2204460492503131e-16 0 1 
2 397.25 623.88908730122751 13 -2.2204460492503131e-16 -0 -1 1 0 -2.2204460492503131e-16 0 -1 0 1.25
1 246.63983494254671 1046.3890873012276 1.0000000000001137 -2.2204460492503131e-16 -0 -1 
2 248.13983494254671 1046.3890873012276 1.0000000000001137 2.2204460492503131e-16 0 1 -1 0 2.2204460492503131e-16 -0 -1 0 1.5
1 118.52966988509348 1059.1397071484075 1.0000000000001137 -2.2204460492503131e-16 -0 -1 
2 120.02966988509348 1059.1397071484075 1.0000000000001137 2.2204460492503131e-16 0 1 -1 0 2.2204460492503131e-16 -0 -1 0 1.5
1 418.5 248.88908730122753 -1 2.2204460492503131e-16 0 1 
2 417.25 248.88908730122753 13 -2.2204460492503131e-16 -0 -1 1 0 -2.2204460492503131e-16 0 -1 0 1.25
1 418.5 178.88908730122753 -1 2.2204460492503131e-16 0 1 
2 417.25 178.88908730122753 13 -2.2204460492503131e-16 -0 -1 1 0 -2.2204460492503131e-16 0 -1 0 1.25
1 205.15633802816899 92.889087301227519 3.0000000000001137 -2.2204460492503131e-16 -0 -1 
1 198.51971830985917 130.88908730122753 3.0000000000001137 -2.2204460492503131e-16 -0 -1 
Polygon3D 0
PolygonOnTriangulations 0
Surfaces 54
1 568.25 3.8890873012275202 18 -1 0 2.2204460492503131e-16 0 1 0 2.2204460492503131e-16 0 1 
1 310.26587621328821 692.98002167824598 18.000000000000114 -2.2204460492503131e-16 -0 -1 -1 0 2.2204460492503131e-16 -0 -1 0 
2 472.25 -3.1819805106379544 25.071067811865419 -1.5700924586837752e-16 0.70710678118654757 -0.70710678118654757 -1.5700924586837752e-16 -0.70710678118654757 -0.70710678118654757 1 0 -2.2204460492503131e-16 5.5
2 414.25 -3.1819805106379544 25.071067811865419 -1.5700924586837752e-16 0.70710678118654757 -0.70710678118654757 -1.5700924586837752e-16 -0.70710678118654757 -0.70710678118654757 1 0 -2.2204460492503131e-16 5.5
2 504.25 1319.0601551130931 25.071067811865419 -1.5700924586837752e-16 -0.70710678118654757 -0.70710678118654757 1.5700924586837752e-16 -0.70710678118654757 0.70710678118654757 1 0 -2.2204460492503131e-16 5.5
2 446.25 1319.0601551130931 25.071067811865419 -1.5700924586837752e-16 -0.70710678118654757 -0.70710678118654757 1.5700924586837752e-16 -0.70710678118654757 0.70710678118654757 1 0 -2.2204460492503131e-16 5.5
2 211.01971830985917 130.88908730122753 19.000000000000114 -2.2204460492503131e-16 -0 -1 -1 0 2.2204460492503131e-16 0 -1 0 7.9375
2 217.65633802816899 92.889087301227519 19.000000000000114 -2.2204460492503131e-16 -0 -1 -1 0 2.2204460492503131e-16 0 -1 0 7.9375
1 568.25 1311.9890873012275 18 0 -1 -0 -1 0 2.2204460492503131e-16 2.2204460492503131e-16 0 1 
1 407.06446882158798 744.33469973284014 4 -2.2204460492503131e-16 -0 -1 -1 0 2.2204460492503131e-16 -0 -1 0 
1 568.25 1293.9890873012275 4 0 1 0 -1 0 2.2204460492503131e-16 -2.2204460492503131e-16 0 -1 
1 292.26587621328821 692.98002167824598 1.1368683772161603e-13 -2.2204460492503131e-16 -0 -1 -1 0 2.2204460492503131e-16 -0 -1 0 
1 568.25 21.889087301227519 4 0 1 0 -1 0 2.2204460492503131e-16 -2.2204460492503131e-16 0 -1 
1 168.19999999999999 3.8890873012275202 18.000000000000114 0 1 0 1 0 -2.2204460492503131e-16 2.2204460492503131e-16 0 1 
1 -28.649999999999977 1131.0140873012276 18.000000000000114 0.98508930685912921 0.17204376626835494 -2.1873376595740828e-16 0.17204376626835494 -0.98508930685912921 -3.82013901108713e-17 2.2204460492503131e-16 0 1 
1 -28.649999999999977 1311.9890873012275 18.000000000000114 1 -0 -2.2204460492503131e-16 0 -1 0 2.2204460492503131e-16 0 1 
1 -10.649999999999977 1131.0140873012276 4.0000000000001137 0 1 0 -1 0 2.2204460492503131e-16 -2.2204460492503131e-16 0 -1 
1 -10.649999999999977 1131.0140873012276 4.0000000000001137 -1 0 2.2204460492503131e-16 -2.2204460492503131e-16 0 -1 0 1 0 
1 568.25 1293.9890873012275 4 0 1 0 -1 0 2.2204460492503131e-16 -2.2204460492503131e-16 0 -1 
1 568.25 1293.9890873012275 4 0 1 0 -1 0 2.2204460492503131e-16 -2.2204460492503131e-16 0 -1 
1 568.25 1293.9890873012275 4 0 1 0 -1 0 2.2204460492503131e-16 -2.2204460492503131e-16 0 -1 
1 532.25 21.889087301227519 4 -1 0 2.2204460492503131e-16 -2.2204460492503131e-16 0 -1 0 1 0 
1 568.25 21.889087301227519 4 0 1 0 -1 0 2.2204460492503131e-16 -2.2204460492503131e-16 0 -1 
1 568.25 21.889087301227519 4 0 1 0 -1 0 2.2204460492503131e-16 -2.2204460492503131e-16 0 -1 
1 568.25 21.889087301227519 4 0 1 0 -1 0 2.2204460492503131e-16 -2.2204460492503131e-16 0 -1 
1 168.19999999999999 3.8890873012275202 4.0000000000001137 -1 0 2.2204460492503131e-16 -2.2204460492503131e-16 0 -1 0 1 0 
1 550.25 21.889087301227519 4 -1 0 2.2204460492503131e-16 -2.2204460492503131e-16 0 -1 0 1 0 
1 292.26587621328821 692.98002167824598 1.1368683772161603e-13 -2.2204460492503131e-16 -0 -1 -1 0 2.2204460492503131e-16 -0 -1 0 
2 376.25 1040.8890873012276 1 -2.2204460492503131e-16 -0 -1 -1 0 2.2204460492503131e-16 -0 -1 0 1.5
2 337.25 993.88908730122751 -1 2.2204460492503131e-16 0 1 1 -0 -2.2204460492503131e-16 -0 -1 0 1.25
2 337.25 923.88908730122751 -1 2.2204460492503131e-16 0 1 1 -0 -2.2204460492503131e-16 -0 -1 0 1.25
2 397.25 693.88908730122751 -1 2.2204460492503131e-16 0 1 1 -0 -2.2204460492503131e-16 -0 -1 0 1.25
2 397.25 623.88908730122751 -1 2.2204460492503131e-16 0 1 1 -0 -2.2204460492503131e-16 -0 -1 0 1.25
2 248.13983494254671 1046.3890873012276 1.0000000000001137 -2.2204460492503131e-16 -0 -1 -1 0 2.2204460492503131e-16 -0 -1 0 1.5
2 120.02966988509348 1059.1397071484075 1.0000000000001137 -2.2204460492503131e-16 -0 -1 -1 0 2.2204460492503131e-16 -0 -1 0 1.5
2 417.25 248.88908730122753 -1 2.2204460492503131e-16 0 1 1 -0 -2.2204460492503131e-16 -0 -1 0 1.25
2 417.25 178.88908730122753 -1 2.2204460492503131e-16 0 1 1 -0 -2.2204460492503131e-16 -0 -1 0 1.25
2 217.65633802816899 92.889087301227519 3.0000000000001137 -2.2204460492503131e-16 -0 -1 -1 0 2.2204460492503131e-16 0 -1 0 12.5
2 211.01971830985917 130.88908730122753 3.0000000000001137 -2.2204460492503131e-16 -0 -1 -1 0 2.2204460492503131e-16 0 -1 0 12.5
1 192.46816747930725 -45.748877351791748 -404.32056679622633 -0.17204376626835502 0.97040094248819964 -0.16947847446272785 -0.98508930685912921 -0.16947847446272785 0.029599057511800586 2.2204460492503131e-16 0.17204376626835502 0.98508930685912921 
1 192.46816747930725 -44.535968799599843 -397.37568718286957 2.2204460492503131e-16 0.17204376626835502 0.98508930685912921 -0.98508930685912921 -0.16947847446272785 0.029599057511800586 0.17204376626835502 -0.97040094248819964 0.16947847446272785 
1 7.2931607505200304 998.71791707182001 -586.73448582232197 -0.17204376626835502 0.97040094248819964 -0.16947847446272785 -0.98508930685912921 -0.16947847446272785 0.029599057511800586 2.2204460492503131e-16 0.17204376626835502 0.98508930685912921 
1 211.01971830985917 130.88908730122753 3.0000000000001137 -2.2204460492503131e-16 -0 -1 -1 0 2.2204460492503131e-16 0 -1 0 
1 217.65633802816899 92.889087301227519 3.0000000000001137 -2.2204460492503131e-16 -0 -1 -1 0 2.2204460492503131e-16 0 -1 0 
1 192.46816747930725 -45.748877351791748 -404.32056679622633 -0.98508930685912921 -0.16947847446272785 0.029599057511800586 2.2204460492503131e-16 0.17204376626835502 0.98508930685912921 -0.17204376626835502 0.97040094248819964 -0.16947847446272785 
1 376.25 1040.8890873012276 1 -2.2204460492503131e-16 -0 -1 -1 0 2.2204460492503131e-16 -0 -1 0 
1 337.25 993.88908730122751 13 2.2204460492503131e-16 0 1 1 -0 -2.2204460492503131e-16 -0 -1 0 
1 337.25 923.88908730122751 13 2.2204460492503131e-16 0 1 1 -0 -2.2204460492503131e-16 -0 -1 0 
1 397.25 693.88908730122751 13 2.2204460492503131e-16 0 1 1 -0 -2.2204460492503131e-16 -0 -1 0 
1 397.25 623.88908730122751 13 2.2204460492503131e-16 0 1 1 -0 -2.2204460492503131e-16 -0 -1 0 
1 248.13983494254671 1046.3890873012276 1.0000000000001137 -2.2204460492503131e-16 -0 -1 -1 0 2.2204460492503131e-16 -0 -1 0 
1 120.02966988509348 1059.1397071484075 1.0000000000001137 -2.2204460492503131e-16 -0 -1 -1 0 2.2204460492503131e-16 -0 -1 0 
1 417.25 248.88908730122753 13 2.2204460492503131e-16 0 1 1 -0 -2.2204460492503131e-16 -0 -1 0 
1 417.25 178.88908730122753 13 2.2204460492503131e-16 0 1 1 -0 -2.2204460492503131e-16 -0 -1 0 
Triangulations 0

TShapes 367
Ve
1e-07
596.9 3.88908730122752 18
0 0

0101101
*
Ve
1e-07
596.9 1311.98908730123 18
0 0

0101101
*
Ed
 1e-07 1 1 0
1  1 0 0 1308.1
0

0101000
+367 15 -366 15 *
Ve
8.4259611748e-05
596.9 1311.98908730123 4
0 0

0101101
*
Ed
 1e-07 1 1 0
1  2 0 0 14
0

0101000
+366 15 -364 15 *
Ve
8.4259611748e-05
596.9 1293.98908730123 4
0 0

0101101
*
Ed
 8.4259611748e-05 1 1 0
1  3 0 0 18
0

0101000
+362 16 -364 16 *
Ve
1e-07
596.9 1293.98908730123 0
0 0

0101101
*
Ed
 1e-07 1 1 0
1  4 0 0 4
0

0101000
+362 16 -360 16 *
Ve
1e-07
596.9 21.8890873012275 0
0 0

0101101
*
Ed
 1e-07 1 1 0
1  5 0 18 1290.1
0

0101000
+358 19 -360 19 *
Ve
8.4259611748e-05
596.9 21.8890873012275 4
0 0

0101101
*
Ed
 1e-07 1 1 0
1  6 0 0 4
0

0101000
+356 16 -358 16 *
Ve
8.4259611748e-05
596.9 3.88908730122752 4
0 0

0101101
*
Ed
 8.4259611748e-05 1 1 0
1  7 0 0 18
0

0101000
+354 16 -356 16 *
Ed
 1e-07 1 1 0
1  8 0 0 14
0

0101000
+367 15 -354 15 *
Wi

0101100
-365 14 -363 14 +361 0 -359 0 +357 18 +355 0 +353 0 +352 14 *
Fa
0  1e-07 1 14

0111000
+351 0 *
Ve
1.00001307e-07
506.400000000001 3.88908730122752 18
0 0

0101101
*
Ve
1.00001307e-07
495.399999999999 3.88908730122752 18
0 0

0101101
*
Ed
 1e-07 1 1 0
1  9 0 4.71238898038469 7.85398163397448
2  1 3 0 4.71238898038469 7.85398163397448
0

0101000
+349 23 -348 23 *
Ed
 1e-07 1 1 0
1  10 0 309.550000000001 400.05
0

0101000
+349 15 -367 15 *
Ve
1.00001336e-07
448.400000000001 3.88908730122752 18
0 0

0101101
*
Ed
 1e-07 1 1 0
1  11 0 251.550000000001 298.549999999999
0

0101000
+345 15 -348 15 *
Ve
1.00001336e-07
437.399999999999 3.88908730122752 18
0 0

0101101
*
Ed
 1e-07 1 1 0
1  12 0 4.71238898038469 7.85398163397448
2  2 4 0 4.71238898038469 7.85398163397448
0

0101000
+345 23 -343 23 *
Ve
1.0002116e-07
538.399999999979 1311.98908730123 18
0 0

0101101
*
Ed
 1e-07 1 1 0
1  13 0 0 58.5000000000212
0

0101000
+366 15 -341 15 *
Ve
1e-07
196.85 3.88908730122752 18.0000000000001
0 0

0101101
*
Ed
 1e-07 1 1 0
1  14 0 0 240.549999999999
0

0101000
+339 15 -343 15 *
Ve
1.00000018e-07
532.9 1304.21091270818 18
0 0

0101101
*
Ed
 1e-07 1 1 0
1  15 0 0 1.5707963267949
2  3 5 0 0 1.5707963267949
0

0101000
+337 23 -341 23 *
Ve
1e-07
0 1131.01408730123 18.0000000000001
0 0

0101101
*
Ed
 1e-07 1 1 0
1  16 0 0 1144.18560038352
0

0101000
+335 15 -339 15 *
Ve
1.0002116e-07
527.400000000021 1311.98908730123 18
0 0

0101101
*
Ed
 1e-07 1 1 0
1  17 0 4.71238898038469 6.28318530717959
2  4 5 0 4.71238898038469 6.28318530717959
0

0101000
+333 23 -337 23 *
Ve
1e-07
0 1311.98908730123 18.0000000000001
0 0

0101101
*
Ed
 1e-07 1 1 0
1  18 0 0 180.975
0

0101000
+331 15 -335 15 *
Ve
1.0002116e-07
480.399999999979 1311.98908730123 18
0 0

0101101
*
Ed
 1e-07 1 1 0
1  19 0 69.4999999999788 116.500000000021
0

0101000
+333 15 -329 15 *
Ve
1.0002116e-07
469.400000000021 1311.98908730123 18
0 0

0101101
*
Ed
 1e-07 1 1 0
1  20 0 127.499999999979 596.9
0

0101000
+327 15 -331 15 *
Ve
1.00000018e-07
474.9 1304.21091270818 18
0 0

0101101
*
Ed
 1e-07 1 1 0
1  21 0 0 1.5707963267949
2  5 6 0 0 1.5707963267949
0

0101000
+325 23 -329 23 *
Ed
 1e-07 1 1 0
1  22 0 4.71238898038469 6.28318530717959
2  6 6 0 4.71238898038469 6.28318530717959
0

0101000
+327 23 -325 23 *
Wi

0101100
-347 22 +346 21 +344 21 +365 21 -342 22 +340 21 +338 21 -336 22 +334 21 -332 22 
+330 21 +328 21 +326 21 -324 22 -323 22 *
Ve
1e-07
231.732218309859 130.889087301228 18.0000000000001
0 0

0101101
*
Ed
 1e-07 1 1 0
1  23 0 0 6.28318530717959
2  7 7 0 0 6.28318530717959
0

0101100
+321 24 -321 24 *
Wi

0101100
-320 0 *
Ve
1e-07
238.368838028169 92.8890873012275 18.0000000000001
0 0

0101101
*
Ed
 1e-07 1 1 0
1  24 0 0 6.28318530717959
2  8 8 0 0 6.28318530717959
0

0101100
+318 24 -318 24 *
Wi

0101100
-317 0 *
Fa
0  1e-07 2 21

0111000
+322 0 +319 0 +316 0 *
Ed
 1e-07 1 1 0
1  25 0 4.71238898038469 7.85398163397448
2  9 5 0 4.71238898038469 7.85398163397448
0

0101000
+341 23 -333 23 *
Ed
 1e-07 1 1 0
1  26 0 4.71238898038469 7.85398163397448
2  10 6 0 4.71238898038469 7.85398163397448
0

0101000
+329 23 -327 23 *
Ve
8.4259611748e-05
0 1311.98908730123 4.00000000000011
0 0

0101101
*
Ed
 1e-07 1 1 0
1  27 0 0 14
0

0101000
+331 15 -312 15 *
Ed
 8.4259611748e-05 1 1 0
1  28 0 0 596.9
0

0101000
+364 16 -312 16 *
Wi

0101100
-340 14 -314 25 -328 14 -313 25 -326 14 -311 14 +310 0 +363 14 *
Fa
0  1e-07 9 14

0111000
+309 0 *
Ve
8.4259611748e-05
578.9 1293.98908730123 4
0 0

0101101
*
Ed
 8.4259611748e-05 1 1 0
1  29 0 0 18
0

0101000
+362 16 -307 16 *
Ve
8.4259611748e-05
0 1131.01408730123 4.00000000000011
0 0

0101101
*
Ed
 1e-07 1 1 0
1  30 0 0 180.975
0

0101000
+305 16 -312 16 *
Ve
8.4259611748e-05
18 1131.01408730123 4.00000000000011
0 0

0101101
*
Ed
 8.4259611748e-05 1 1 0
1  31 0 0 18
0

0101000
+303 16 -305 16 *
Ve
8.4259611748e-05
18 1293.98908730123 4.00000000000011
0 0

0101101
*
Ed
 8.4259611748e-05 1 1 0
1  32 0 0 162.975
0

0101000
+303 16 -301 16 *
Ve
8.4259611748e-05
470.183009433972 1293.98908730123 4
0 0

0101101
*
Ed
 8.4259611748e-05 1 1 0
1  33 0 126.716990566028 578.9
0

0101000
+299 16 -301 16 *
Ve
8.4259611748e-05
479.616990566028 1293.98908730123 4
0 0

0101101
*
Ed
 8.4259611748e-05 1 1 0
1  34 0 1.03065234911869 5.25253295806089
2  11 6 25 1.03065234911869 5.25253295806089
0

0101000
+297 16 -299 16 *
Ve
8.4259611748e-05
528.183009433972 1293.98908730123 4
0 0

0101101
*
Ed
 8.4259611748e-05 1 1 0
1  35 0 68.7169905660283 117.283009433972
0

0101000
+295 16 -297 16 *
Ve
8.4259611748e-05
537.616990566028 1293.98908730123 4
0 0

0101101
*
Ed
 8.4259611748e-05 1 1 0
1  36 0 1.03065234911869 5.25253295806089
2  12 5 25 1.03065234911869 5.25253295806089
0

0101000
+293 16 -295 16 *
Ve
8.4259611748e-05
560.9 1293.98908730123 4
0 0

0101101
*
Ed
 8.4259611748e-05 1 1 0
1  37 0 36 59.2830094339717
0

0101000
+291 16 -293 16 *
Ve
8.4259611748e-05
560.9 21.8890873012275 4
0 0

0101101
*
Ed
 8.4259611748e-05 1 1 0
1  38 0 0 1272.1
0

0101000
+289 16 -291 16 *
Ve
8.4259611748e-05
505.616990566028 21.8890873012275 4
0 0

0101101
*
Ed
 8.4259611748e-05 1 1 0
1  39 0 36 91.2830094339717
0

0101000
+289 16 -287 16 *
Ve
8.4259611748e-05
500.9 10.1109127081755 4
0 0

0101101
*
Ed
 8.4259611748e-05 1 1 0
1  40 0 3.14159265358979 5.25253295806089
2  13 3 25 3.14159265358979 5.25253295806089
0

0101000
+285 16 -287 16 *
Ve
8.4259611748e-05
496.183009433972 21.8890873012275 4
0 0

0101101
*
Ed
 8.4259611748e-05 1 1 0
1  41 0 1.03065234911869 3.14159265358979
2  14 3 25 1.03065234911869 3.14159265358979
0

0101000
+283 16 -285 16 *
Ve
8.4259611748e-05
447.616990566028 21.8890873012275 4
0 0

0101101
*
Ed
 8.4259611748e-05 1 1 0
1  42 0 100.716990566028 149.283009433972
0

0101000
+283 16 -281 16 *
Ve
8.4259611748e-05
442.9 10.1109127081755 4
0 0

0101101
*
Ed
 8.4259611748e-05 1 1 0
1  43 0 3.14159265358979 5.25253295806089
2  15 4 25 3.14159265358979 5.25253295806089
0

0101000
+279 16 -281 16 *
Ve
8.4259611748e-05
438.183009433972 21.8890873012275 4
0 0

0101101
*
Ed
 8.4259611748e-05 1 1 0
1  44 0 1.03065234911869 3.14159265358979
2  16 4 25 1.03065234911869 3.14159265358979
0

0101000
+277 16 -279 16 *
Ve
8.4259611748e-05
196.85 21.8890873012275 4.00000000000011
0 0

0101101
*
Ed
 8.4259611748e-05 1 1 0
1  45 0 158.716990566028 400.05
0

0101000
+277 16 -275 16 *
Ve
8.4259611748e-05
196.85 3.88908730122752 4.00000000000011
0 0

0101101
*
Ed
 8.4259611748e-05 1 1 0
1  46 0 0 18
0

0101000
+273 16 -275 16 *
Ed
 8.4259611748e-05 1 1 0
1  47 0 0 400.05
0

0101000
+354 16 -273 16 *
Ve
8.4259611748e-05
578.9 21.8890873012275 4
0 0

0101101
*
Ed
 8.4259611748e-05 1 1 0
1  48 0 0 18
0

0101000
+356 16 -270 16 *
Ed
 8.4259611748e-05 1 1 0
1  49 0 0 1272.1
0

0101000
+270 16 -307 16 *
Wi

0101000
-306 0 +361 0 +310 0 -304 0 -302 0 +300 0 -298 0 -296 0 -294 0 -292 0 
-290 0 -288 0 +286 0 -284 0 -282 0 +280 0 -278 0 -276 0 +274 0 -272 0 
-271 0 +353 0 +269 0 +268 0 *
Fa
0  8.4259611748e-05 10 0

0111000
+267 0 *
Ve
1e-07
578.9 1293.98908730123 0
0 0

0101101
*
Ed
 1e-07 1 1 0
1  50 0 0 18
0

0101000
+360 16 -265 16 *
Ed
 1e-07 1 1 0
1  51 0 0 4
0

0101000
+307 16 -265 16 *
Wi

0101100
-359 0 -264 0 +263 0 +306 0 *
Fa
0  1e-07 11 0

0111000
+262 0 *
Ve
1e-07
578.9 21.8890873012275 0
0 0

0101101
*
Ed
 1e-07 1 1 0
1  52 0 0 18
0

0101000
+358 16 -260 16 *
Ed
 1e-07 1 1 0
1  53 0 0 1272.1
0

0101000
+260 16 -265 16 *
Wi

0101100
-259 0 -258 0 +264 0 +357 18 *
Fa
0  1e-07 12 18

0111000
+257 0 *
Ed
 1e-07 1 1 0
1  54 0 0 4
0

0101000
+270 16 -260 16 *
Wi

0101100
-355 0 -259 0 +255 0 +269 0 *
Fa
0  1e-07 13 0

0111000
+254 0 *
Ve
1.00000003e-07
442.9 3.88908730122752 10.221825406948
0 0

0101101
*
Ed
 1e-07 1 1 0
1  55 0 4.71238898038469 6.28318530717959
2  17 4 0 4.71238898038469 6.28318530717959
0

0101000
+343 23 -252 23 *
Ed
 1e-07 1 1 0
1  56 0 0 1.5707963267949
2  18 4 0 0 1.5707963267949
0

0101000
+252 23 -345 23 *
Ve
1.00000003e-07
500.9 3.88908730122752 10.221825406948
0 0

0101101
*
Ed
 1e-07 1 1 0
1  57 0 4.71238898038469 6.28318530717959
2  19 3 0 4.71238898038469 6.28318530717959
0

0101000
+348 23 -249 23 *
Ed
 1e-07 1 1 0
1  58 0 0 1.5707963267949
2  20 3 0 0 1.5707963267949
0

0101000
+249 23 -349 23 *
Ed
 1e-07 1 1 0
1  59 0 0 14
0

0101000
+339 15 -273 15 *
Wi

0101100
-338 14 -251 25 -250 25 -344 14 -248 25 -247 25 -346 14 -352 14 -271 0 +246 14 
*
Fa
0  1e-07 14 14

0111000
+245 0 *
Ve
5.530592518e-06
506.4 21.8890873012276 0
0 0

0101101
*
Ve
5.530592523e-06
495.4 21.8890873012276 0
0 0

0101101
*
Ed
 1e-07 1 1 0
1  60 0 4.71238898038469 7.85398163397448
2  21 3 0 4.71238898038469 7.85398163397448
0

0101000
+243 23 -242 23 *
Ed
 1.00000011e-07 1 1 0
1  61 0 4.17224500270849 4.71238898038469
2  22 3 25 4.17224500270849 4.71238898038469
0

0101000
+283 16 -242 16 *
Ed
 1e-07 1 1 0
1  62 0 15.5 24.2989898732233
3  23 24CN 3 0 15.5 24.2989898732233
0

0101000
+249 23 -285 23 *
Ed
 1.00000008e-07 1 1 0
1  63 0 1.5707963267949 2.1109403044711
2  25 3 25 1.5707963267949 2.1109403044711
0

0101000
+243 16 -287 16 *
Wi

0101100
-241 25 +240 0 -282 0 +239 25 +248 25 +347 25 +247 25 -239 25 -284 0 +238 0 
*
Fa
0  1e-07 3 25

0111000
+237 0 *
Ve
5.530592518e-06
448.4 21.8890873012276 0
0 0

0101101
*
Ve
5.530592523e-06
437.4 21.8890873012276 0
0 0

0101101
*
Ed
 1e-07 1 1 0
1  64 0 4.71238898038469 7.85398163397448
2  26 4 0 4.71238898038469 7.85398163397448
0

0101000
+235 23 -234 23 *
Ed
 1.00000011e-07 1 1 0
1  65 0 4.17224500270849 4.71238898038469
2  27 4 25 4.17224500270849 4.71238898038469
0

0101000
+277 16 -234 16 *
Ed
 1e-07 1 1 0
1  66 0 15.5 24.2989898732233
3  28 29CN 4 0 15.5 24.2989898732233
0

0101000
+252 23 -279 23 *
Ed
 1.00000008e-07 1 1 0
1  67 0 1.5707963267949 2.1109403044711
2  30 4 25 1.5707963267949 2.1109403044711
0

0101000
+235 16 -281 16 *
Wi

0101100
-233 25 +232 0 -276 0 +231 25 +251 25 +342 25 +250 25 -231 25 -278 0 +230 0 
*
Fa
0  1e-07 4 25

0111000
+229 0 *
Ve
1.00000018e-07
532.9 1286.21091270818 0
0 0

0101101
*
Ed
 1e-07 1 1 0
1  68 0 15.5 40.9558441227157
3  31 32CN 5 0 15.5 40.9558441227157
0

0101000
+337 23 -227 23 *
Ve
1.00000057e-07
538.4 1293.98908730123 0
0 0

0101101
*
Ed
 1e-07 1 1 0
1  69 0 0 1.5707963267949
2  33 5 0 0 1.5707963267949
0

0101000
+227 23 -225 23 *
Ed
 1.0000005e-07 1 1 0
1  70 0 1.5707963267949 2.11094030447111
2  34 5 25 1.5707963267949 2.11094030447111
0

0101000
+225 16 -293 16 *
Ve
1.00000057e-07
527.4 1293.98908730123 0
0 0

0101101
*
Ed
 1.00000052e-07 1 1 0
1  71 0 4.17224500270848 4.71238898038469
2  35 5 25 4.17224500270848 4.71238898038469
0

0101000
+295 16 -222 16 *
Ed
 1e-07 1 1 0
1  72 0 4.71238898038469 6.28318530717959
2  36 5 0 4.71238898038469 6.28318530717959
0

0101000
+222 23 -227 23 *
Wi

0101100
+226 25 +332 25 +314 25 +336 25 -226 25 -224 25 -223 0 -292 0 -221 0 -220 25 
*
Fa
0  1e-07 5 25

0111000
+219 0 *
Ve
1e-07
196.85 3.88908730122752 1.13686837721616e-13
0 0

0101101
*
Ed
 1e-07 1 1 0
1  73 0 14 18
0

0101000
+273 15 -217 15 *
Ve
1.50000007e-07
187.296448618295 58.5908734384098 1.13686837721616e-13
0 0

0101101
*
Ed
 1e-07 1 1 0
1  74 0 1088.65582683274 1144.18560038352
0

0101000
+215 19 -217 19 *
Ve
1.50000121e-07
187.296448618295 58.5908734384097 7.05000000000007
0 0

0101101
*
Ed
 1.5e-07 1 1 0
1  75 0 1.95000000000005 9
0

0101000
+213 28 -215 28 *
Ve
1.50000114e-07
2.12144188950788 1118.86712164356 7.05000000000007
0 0

0101101
*
Ed
 1.5e-07 1 1 0
1  76 0 -544.327913416371 531.997086583629
0

0101000
+213 28 -211 28 *
Ve
1.50000227e-07
2.12144188950776 1118.86712164356 1.13686837721616e-13
0 0

0101101
*
Ed
 1.5e-07 1 1 0
1  77 0 1.95000000000005 9
0

0101000
+211 28 -209 28 *
Ve
1e-07
0 1131.01408730123 1.13686837721616e-13
0 0

0101101
*
Ed
 1e-07 1 1 0
1  78 0 0 12.330826832742
0

0101000
+207 19 -209 19 *
Ed
 1e-07 1 1 0
1  79 0 14 18
0

0101000
+305 15 -207 15 *
Ed
 1e-07 1 1 0
1  80 0 0 14
0

0101000
+335 15 -305 15 *
Wi

0101100
-334 26 -246 26 -216 26 +214 27 +212 0 -210 0 -208 0 +206 27 +205 26 +204 26 
*
Fa
0  1e-07 15 26

0111000
+203 0 *
Wi

0101000
-330 14 -204 14 -304 0 +311 14 *
Fa
0  1e-07 16 14

0111000
+201 0 *
Ve
1.00000018e-07
474.9 1286.21091270818 0
0 0

0101101
*
Ed
 1e-07 1 1 0
1  81 0 15.5 40.9558441227157
3  37 38CN 6 0 15.5 40.9558441227157
0

0101000
+325 23 -199 23 *
Ve
1.00000057e-07
480.4 1293.98908730123 0
0 0

0101101
*
Ed
 1e-07 1 1 0
1  82 0 0 1.5707963267949
2  39 6 0 0 1.5707963267949
0

0101000
+199 23 -197 23 *
Ed
 1.00000052e-07 1 1 0
1  83 0 1.5707963267949 2.11094030447111
2  40 6 25 1.5707963267949 2.11094030447111
0

0101000
+197 16 -297 16 *
Ve
1.00000057e-07
469.4 1293.98908730123 0
0 0

0101101
*
Ed
 1.00000052e-07 1 1 0
1  84 0 4.17224500270848 4.71238898038469
2  41 6 25 4.17224500270848 4.71238898038469
0

0101000
+299 16 -194 16 *
Ed
 1e-07 1 1 0
1  85 0 4.71238898038469 6.28318530717959
2  42 6 0 4.71238898038469 6.28318530717959
0

0101000
+194 23 -199 23 *
Wi

0101100
+198 25 +323 25 +313 25 +324 25 -198 25 -196 25 -195 0 -296 0 -193 0 -192 25 
*
Fa
0  1e-07 6 25

0111000
+191 0 *
Ve
1e-07
231.732218309859 130.889087301228 3.00000000000011
0 0

0101101
*
Ed
 1e-07 1 1 0
1  86 0 0 6.28318530717959
2  43 7 0 0 6.28318530717959
0

0101100
+189 24 -189 24 *
Ed
 1e-07 1 1 0
1  87 0 1 16
3  44 45CN 7 0 1 16
0

0101000
+321 24 -189 24 *
Wi

0101100
-188 0 +187 0 +320 0 -187 0 *
Fa
0  1e-07 7 0

0111000
+186 0 *
Ve
1e-07
238.368838028169 92.8890873012275 3.00000000000011
0 0

0101101
*
Ed
 1e-07 1 1 0
1  88 0 0 6.28318530717959
2  46 8 0 0 6.28318530717959
0

0101100
+184 24 -184 24 *
Ed
 1e-07 1 1 0
1  89 0 1 16
3  47 48CN 8 0 1 16
0

0101000
+318 24 -184 24 *
Wi

0101100
-183 0 +182 0 +317 0 -182 0 *
Fa
0  1e-07 8 0

0111000
+181 0 *
Ve
1e-07
18 1131.01408730123 1.13686837721616e-13
0 0

0101101
*
Ed
 1e-07 1 1 0
1  90 0 0 4
0

0101000
+303 16 -179 16 *
Ed
 1e-07 1 1 0
1  91 0 0 18
0

0101000
+179 16 -207 16 *
Wi

0101100
-178 0 -177 0 +205 14 +302 0 *
Fa
0  1e-07 17 0

0111000
+176 0 *
Ve
1e-07
18 1293.98908730123 1.13686837721616e-13
0 0

0101101
*
Ed
 1e-07 1 1 0
1  92 0 0 4
0

0101000
+301 16 -174 16 *
Ed
 1e-07 1 1 0
1  93 0 0 162.975
0

0101000
+179 16 -174 16 *
Wi

0101100
-300 0 -173 0 +172 0 +178 0 *
Fa
0  1e-07 18 0

0111000
+171 0 *
Ed
 1e-07 1 1 0
1  94 0 127.5 578.9
0

0101000
+194 16 -174 16 *
Wi

0101100
-193 0 -169 0 +173 0 +298 0 *
Fa
0  1e-07 19 0

0111000
+168 0 *
Ed
 1e-07 1 1 0
1  95 0 69.5 116.5
0

0101000
+222 16 -197 16 *
Wi

0101100
-221 0 -166 0 -195 0 +294 0 *
Fa
0  1e-07 20 0

0111000
+165 0 *
Ve
1e-07
560.9 1293.98908730123 0
0 0

0101101
*
Ed
 1e-07 1 1 0
1  96 0 0 4
0

0101000
+291 16 -163 16 *
Ed
 1e-07 1 1 0
1  97 0 36 58.5
0

0101000
+163 16 -225 16 *
Wi

0101100
-162 0 -161 0 -223 0 +290 0 *
Fa
0  1e-07 21 0

0111000
+160 0 *
Ve
1e-07
560.9 21.8890873012275 0
0 0

0101101
*
Ed
 1e-07 1 1 0
1  98 0 0 1272.1
0

0101000
+158 16 -163 16 *
Ed
 1e-07 1 1 0
1  99 0 0 4
0

0101000
+289 16 -158 16 *
Wi

0101100
-288 0 -162 0 +157 0 +156 0 *
Fa
0  1e-07 22 0

0111000
+155 0 *
Ed
 1e-07 1 1 0
1  100 0 36 90.5
0

0101000
+158 16 -243 16 *
Wi

0101100
-156 0 -153 0 -238 0 +286 0 *
Fa
0  1e-07 23 0

0111000
+152 0 *
Ed
 1e-07 1 1 0
1  101 0 101.5 148.5
0

0101000
+242 16 -235 16 *
Wi

0101100
-240 0 -150 0 -230 0 +280 0 *
Fa
0  1e-07 24 0

0111000
+149 0 *
Ve
1e-07
196.85 21.8890873012275 1.13686837721616e-13
0 0

0101101
*
Ed
 1e-07 1 1 0
1  102 0 159.5 400.05
0

0101000
+234 16 -147 16 *
Ed
 1e-07 1 1 0
1  103 0 0 4
0

0101000
+275 16 -147 16 *
Wi

0101100
-232 0 -146 0 +145 0 +274 0 *
Fa
0  1e-07 25 0

0111000
+144 0 *
Ed
 1e-07 1 1 0
1  104 0 0 18
0

0101000
+217 16 -147 16 *
Wi

0101100
-272 0 -145 0 +142 0 +216 14 *
Fa
0  1e-07 26 0

0111000
+141 0 *
Wi

0101100
-268 0 -263 0 +258 0 +255 0 *
Fa
0  1e-07 27 0

0111000
+139 0 *
Ve
1e-07
192.468167479307 59.4941032113188 1.13686837721616e-13
0 0

0101101
*
Ed
 1e-07 1 1 0
1  105 0 0 5.25000000000191
0

0101000
+137 33 -215 33 *
Ve
1e-07
7.29316075052009 1119.77035141647 1.13686837721616e-13
0 0

0101101
*
Ed
 1e-07 1 1 0
1  106 0 0 1076.325
0

0101000
+137 33 -135 33 *
Ed
 1e-07 1 1 0
1  107 0 0 5.25000000000194
0

0101000
+135 33 -209 33 *
Wi

0101100
-153 8 -241 29 -150 8 -233 29 -146 8 +142 8 +214 27 +136 32 -134 32 -133 32 
+206 27 +177 8 -172 8 +169 8 -192 29 -196 29 +166 8 -220 29 -224 29 +161 8 
+157 8 *
Ve
1e-07
403.4 1040.88908730123 0
0 0

0101101
*
Ed
 1e-07 1 1 0
1  108 0 0 6.28318530717959
2  49 29 0 0 6.28318530717959
0

0101000
+131 35 -131 35 *
Wi

0101100
-130 34 *
Ve
1e-07
367.15 993.889087301228 0
0 0

0101101
*
Ed
 1e-07 1 1 0
1  109 0 0 6.28318530717959
2  50 30 0 0 6.28318530717959
0

0101100
+128 23 -128 23 *
Wi

0101100
+127 29 *
Ve
1e-07
367.15 923.889087301228 0
0 0

0101101
*
Ed
 1e-07 1 1 0
1  110 0 0 6.28318530717959
2  51 31 0 0 6.28318530717959
0

0101100
+125 23 -125 23 *
Wi

0101100
+124 29 *
Ve
1e-07
427.15 693.889087301228 0
0 0

0101101
*
Ed
 1e-07 1 1 0
1  111 0 0 6.28318530717959
2  52 32 0 0 6.28318530717959
0

0101100
+122 23 -122 23 *
Wi

0101100
+121 29 *
Ve
1e-07
427.15 623.889087301228 0
0 0

0101101
*
Ed
 1e-07 1 1 0
1  112 0 0 6.28318530717959
2  53 33 0 0 6.28318530717959
0

0101100
+119 23 -119 23 *
Wi

0101100
+118 29 *
Ve
1e-07
275.289834942547 1046.38908730123 1.13686837721616e-13
0 0

0101101
*
Ed
 1e-07 1 1 0
1  113 0 0 6.28318530717959
2  54 34 0 0 6.28318530717959
0

0101000
+116 35 -116 35 *
Wi

0101100
-115 34 *
Ve
1e-07
147.179669885093 1059.13970714841 1.13686837721616e-13
0 0

0101101
*
Ed
 1e-07 1 1 0
1  114 0 0 6.28318530717959
2  55 35 0 0 6.28318530717959
0

0101000
+113 35 -113 35 *
Wi

0101100
-112 34 *
Ve
1e-07
447.15 248.889087301228 0
0 0

0101101
*
Ed
 1e-07 1 1 0
1  115 0 0 6.28318530717959
2  56 36 0 0 6.28318530717959
0

0101100
+110 23 -110 23 *
Wi

0101100
+109 29 *
Ve
1e-07
447.15 178.889087301228 0
0 0

0101101
*
Ed
 1e-07 1 1 0
1  116 0 0 6.28318530717959
2  57 37 0 0 6.28318530717959
0

0101100
+107 23 -107 23 *
Wi

0101100
+106 29 *
Ve
1e-07
233.806338028169 92.8890873012275 1.13686837721616e-13
0 0

0101101
*
Ed
 1e-07 1 1 0
1  117 0 0 6.28318530717959
2  58 38 0 0 6.28318530717959
0

0101100
+104 24 -104 24 *
Wi

0101100
-103 20 *
Ve
1e-07
227.169718309859 130.889087301228 1.13686837721616e-13
0 0

0101101
*
Ed
 1e-07 1 1 0
1  118 0 0 6.28318530717959
2  59 39 0 0 6.28318530717959
0

0101100
+101 24 -101 24 *
Wi

0101100
-100 20 *
Fa
0  1e-07 28 27

0111000
+132 0 +129 0 +126 0 +123 0 +120 0 +117 0 +114 0 +111 0 +108 0 +105 0 
+102 0 +99 0 *
Ve
1e-07
192.468167479307 59.4941032113188 7.04999999999995
0 0

0101101
*
Ed
 1e-07 1 1 0
1  119 0 0 7.04999999999996
0

0101000
+137 33 -97 33 *
Ed
 1e-07 1 1 0
1  120 0 0 5.25000000000192
0

0101000
+97 33 -213 33 *
Wi

0101100
-96 32 -95 32 -212 0 +136 32 *
Fa
0  1e-07 40 32

0111000
+94 0 *
Ve
1e-07
7.29316075052009 1119.77035141647 7.04999999999995
0 0

0101101
*
Ed
 1e-07 1 1 0
1  121 0 0 5.25000000000179
0

0101000
+92 33 -211 33 *
Ed
 1e-07 1 1 0
1  122 0 0 1076.325
0

0101000
-92 33 +97 33 *
Wi

0101100
-95 32 -210 0 +91 32 +90 32 *
Fa
0  1e-07 41 32

0111000
+89 0 *
Ed
 1e-07 1 1 0
1  123 0 0 7.04999999999996
0

0101000
+135 33 -92 33 *
Wi

0101100
-87 32 -91 32 -208 0 +133 32 *
Fa
0  1e-07 42 32

0111000
+86 0 *
Ve
1e-07
227.169718309859 130.889087301228 3.00000000000011
0 0

0101101
*
Ed
 1e-07 1 1 0
1  124 0 0 6.28318530717959
2  60 39 0 0 6.28318530717959
0

0101000
+84 24 -84 24 *
Wi

0101100
+83 0 *
Wi

0101100
-188 0 *
Fa
0  1e-07 43 0

0111000
+82 0 +81 0 *
Ve
1e-07
233.806338028169 92.8890873012275 3.00000000000011
0 0

0101101
*
Ed
 1e-07 1 1 0
1  125 0 0 6.28318530717959
2  61 38 0 0 6.28318530717959
0

0101000
+79 24 -79 24 *
Wi

0101100
+78 0 *
Wi

0101100
-183 0 *
Fa
0  1e-07 44 0

0111000
+77 0 +76 0 *
Wi

0101100
-134 32 -87 32 +90 32 +96 32 *
Fa
0  1e-07 45 32

0111000
+74 0 *
Ve
1e-07
403.4 1040.88908730123 1
0 0

0101101
*
Ed
 1e-07 1 1 0
1  126 0 0 1
3  62 63CN 29 0 0 1
0

0101000
+72 35 -131 35 *
Ed
 1e-07 1 1 0
1  127 0 0 6.28318530717959
2  64 29 0 0 6.28318530717959
0

0101000
+72 35 -72 35 *
Wi

0101100
-130 0 +71 0 +70 0 -71 0 *
Fa
0  1e-07 29 0

0111000
+69 0 *
Ve
1e-07
367.15 993.889087301228 13
0 0

0101101
*
Ed
 1e-07 1 1 0
1  128 0 1 14
3  65 66CN 30 0 1 14
0

0101000
+128 23 -67 23 *
Ed
 1e-07 1 1 0
1  129 0 0 6.28318530717959
2  67 30 0 0 6.28318530717959
0

0101000
+67 23 -67 23 *
Wi

0101100
+66 0 +127 0 -66 0 -65 0 *
Fa
0  1e-07 30 0

0111000
+64 0 *
Ve
1e-07
367.15 923.889087301228 13
0 0

0101101
*
Ed
 1e-07 1 1 0
1  130 0 1 14
3  68 69CN 31 0 1 14
0

0101000
+125 23 -62 23 *
Ed
 1e-07 1 1 0
1  131 0 0 6.28318530717959
2  70 31 0 0 6.28318530717959
0

0101000
+62 23 -62 23 *
Wi

0101100
+61 0 +124 0 -61 0 -60 0 *
Fa
0  1e-07 31 0

0111000
+59 0 *
Ve
1e-07
427.15 693.889087301228 13
0 0

0101101
*
Ed
 1e-07 1 1 0
1  132 0 1 14
3  71 72CN 32 0 1 14
0

0101000
+122 23 -57 23 *
Ed
 1e-07 1 1 0
1  133 0 0 6.28318530717959
2  73 32 0 0 6.28318530717959
0

0101000
+57 23 -57 23 *
Wi

0101100
+56 0 +121 0 -56 0 -55 0 *
Fa
0  1e-07 32 0

0111000
+54 0 *
Ve
1e-07
427.15 623.889087301228 13
0 0

0101101
*
Ed
 1e-07 1 1 0
1  134 0 1 14
3  74 75CN 33 0 1 14
0

0101000
+119 23 -52 23 *
Ed
 1e-07 1 1 0
1  135 0 0 6.28318530717959
2  76 33 0 0 6.28318530717959
0

0101000
+52 23 -52 23 *
Wi

0101100
+51 0 +118 0 -51 0 -50 0 *
Fa
0  1e-07 33 0

0111000
+49 0 *
Ve
1e-07
275.289834942547 1046.38908730123 1.00000000000011
0 0

0101101
*
Ed
 1e-07 1 1 0
1  136 0 0 1
3  77 78CN 34 0 0 1
0

0101000
+47 35 -116 35 *
Ed
 1e-07 1 1 0
1  137 0 0 6.28318530717959
2  79 34 0 0 6.28318530717959
0

0101000
+47 35 -47 35 *
Wi

0101100
-115 0 +46 0 +45 0 -46 0 *
Fa
0  1e-07 34 0

0111000
+44 0 *
Ve
1e-07
147.179669885093 1059.13970714841 1.00000000000011
0 0

0101101
*
Ed
 1e-07 1 1 0
1  138 0 0 1
3  80 81CN 35 0 0 1
0

0101000
+42 35 -113 35 *
Ed
 1e-07 1 1 0
1  139 0 0 6.28318530717959
2  82 35 0 0 6.28318530717959
0

0101000
+42 35 -42 35 *
Wi

0101100
-112 0 +41 0 +40 0 -41 0 *
Fa
0  1e-07 35 0

0111000
+39 0 *
Ve
1e-07
447.15 248.889087301228 13
0 0

0101101
*
Ed
 1e-07 1 1 0
1  140 0 1 14
3  83 84CN 36 0 1 14
0

0101000
+110 23 -37 23 *
Ed
 1e-07 1 1 0
1  141 0 0 6.28318530717959
2  85 36 0 0 6.28318530717959
0

0101000
+37 23 -37 23 *
Wi

0101100
+36 0 +109 0 -36 0 -35 0 *
Fa
0  1e-07 36 0

0111000
+34 0 *
Ve
1e-07
447.15 178.889087301228 13
0 0

0101101
*
Ed
 1e-07 1 1 0
1  142 0 1 14
3  86 87CN 37 0 1 14
0

0101000
+107 23 -32 23 *
Ed
 1e-07 1 1 0
1  143 0 0 6.28318530717959
2  88 37 0 0 6.28318530717959
0

0101000
+32 23 -32 23 *
Wi

0101100
+31 0 +106 0 -31 0 -30 0 *
Fa
0  1e-07 37 0

0111000
+29 0 *
Ed
 1e-07 1 1 0
1  144 0 0 3
3  89 90CN 38 0 0 3
0

0101000
+79 24 -104 24 *
Wi

0101100
-103 0 +27 0 +78 0 -27 0 *
Fa
0  1e-07 38 0

0111000
+26 0 *
Ed
 1e-07 1 1 0
1  145 0 0 3
3  91 92CN 39 0 0 3
0

0101000
+84 24 -101 24 *
Wi

0101100
-100 0 +24 0 +83 0 -24 0 *
Fa
0  1e-07 39 0

0111000
+23 0 *
Wi

0101100
-70 0 *
Fa
0  1e-07 46 0

0111000
-21 0 *
Wi

0101100
+65 0 *
Fa
0  1e-07 47 0

0111000
+19 0 *
Wi

0101100
+60 0 *
Fa
0  1e-07 48 0

0111000
+17 0 *
Wi

0101100
+55 0 *
Fa
0  1e-07 49 0

0111000
+15 0 *
Wi

0101100
+50 0 *
Fa
0  1e-07 50 0

0111000
+13 0 *
Wi

0101100
-45 0 *
Fa
0  1e-07 51 0

0111000
-11 0 *
Wi

0101100
-40 0 *
Fa
0  1e-07 52 0

0111000
-9 0 *
Wi

0101100
+35 0 *
Fa
0  1e-07 53 0

0111000
+7 0 *
Wi

0101100
+30 0 *
Fa
0  1e-07 54 0

0111000
+5 0 *
Sh

0101100
+350 8 +315 20 +308 8 -266 8 -261 8 -256 8 +253 8 +244 8 +236 8 +228 8 
+218 8 +202 0 +200 8 +190 8 +185 20 +180 20 -175 8 -170 8 -167 8 -164 8 
-159 8 +154 8 +151 8 +148 8 +143 8 +140 8 -138 8 -98 0 +93 0 -88 0 
-85 0 -80 20 -75 20 +73 0 +68 34 +63 29 +58 29 +53 29 +48 29 +43 34 
+38 34 +33 29 +28 29 +25 20 +22 20 -20 34 +18 29 +16 29 +14 29 +12 29 
-10 34 -8 34 +6 29 +4 29 *
So

0100000
+3 0 *
Co

1100000
+2 0 *

+1 3 