DBRep_DrawableShape

CASCADE Topology V1, (c) Matra-Datavision
Locations 25
1
              1               0               0               0 
              0               1               0               0 
              0               0               1               0 
1
              1               0               0               0 
              0               1               0               0 
              0               0               1               0 
2  1 1 2 1 0
1
              1               0               0               0 
              0               1               0               0 
              0               0               1               0 
1
              1               0               0          14.325 
              0               1               0               0 
              0               0               1               0 
1
              1               0               0          14.325 
              0               1               0               0 
              0               0               1               0 
2  4 1 5 1 6 1 0
2  1 -1 6 -1 5 -1 4 -1 0
1
              1               0               0               0 
              0               1               0               0 
              0               0               1               0 
1
              1               0               0               0 
              0               1               0               0 
              0               0               1               0 
2  9 1 10 1 0
2  10 -1 9 -1 0
2  1 -1 6 -1 5 -1 4 -1 10 -1 9 -1 0
2  1 -1 0
2  1 -1 4 -1 0
1
              1               0               0               0 
              0               1               0               0 
              0               0               1               0 
2  16 1 9 1 10 1 4 1 5 1 0
2  1 -1 5 -1 4 -1 10 -1 9 -1 16 -1 0
2  16 1 9 1 10 1 4 1 5 1 6 1 0
2  1 -1 6 -1 5 -1 4 -1 10 -1 9 -1 16 -1 0
2  16 1 9 1 10 1 4 1 0
2  1 -1 4 -1 10 -1 9 -1 16 -1 0
2  1 -1 4 -1 10 -1 9 -1 0
2  9 1 10 1 4 1 5 1 6 1 0
2  9 1 10 1 4 1 0
Curve2ds 54
7 0 0  3 25 23  5.2525329580605735 32.627416997967941  5.2205490140534385 32.476565038112454  5.1565811260391676 32.166119058485101  5.0606292940177653 31.678717522394113  4.9646774619963798 31.17401120130932  4.8687256299749668 30.656658286937407  4.7727737979535743 30.131414234732073  4.6768219659321817 29.603112208933172  4.5808701339107714 29.076612136242069  4.4849183018893877 28.556757733022774  4.3889664698679685 28.048331479170749  4.2930146378465786 27.556010745453097  4.1970628058251798 27.084324729829142  4.1011109738037801 26.637612798759786  4.0051591417823849 26.219984565526431  3.9092073097609785 25.835282077888955  3.8132554777395913 25.487044493924419  3.7173036457181778 25.178475442038337  3.6213518136967937 24.912413850359354  3.5253999816753869 24.691306703134941  3.4294481496539913 24.517190732787718  3.3334963176325876 24.391657994708147  3.2375444856111897 24.315899768855061  3.1735765975969259 24.298951320391385  3.1415926535897931 24.298989873223263 
 1.0306523491190176 4 1.1266041811404164 1 1.2225560131618154 1 1.3185078451832142 1 1.4144596772046132 1 1.510411509226012 1 1.6063633412474108 1 1.7023151732688098 1 1.7982670052902088 1 1.8942188373116076 1 1.9901706693330063 1 2.0861225013544056 1 2.1820743333758044 1 2.2780261653972032 1 2.3739779974186019 1 2.4699298294400007 1 2.5658816614613995 1 2.6618334934827983 1 2.7577853255041975 1 2.8537371575255963 1 2.9496889895469955 1 3.0456408215683943 1 3.1415926535897931 4
7 0 0  3 25 23  3.1415926535897931 24.298989873223263  3.1096087095826608 24.298951320391385  3.0456408215683957 24.315899768855061  2.9496889895469995 24.39165799470814  2.8537371575255954 24.517190732787725  2.7577853255041993 24.691306703134941  2.6618334934827943 24.91241385035935  2.5658816614614071 25.178475442038341  2.4699298294399963 25.487044493924419  2.3739779974186064 25.835282077888966  2.2780261653972018 26.219984565526431  2.1820743333758053 26.637612798759779  2.086122501354406 27.084324729829145  1.9901706693330075 27.556010745453086  1.8942188373116176 28.048331479170763  1.7982670052901994 28.556757733022774  1.7023151732688151 29.076612136242076  1.6063633412474043 29.603112208933176  1.5104115092260122 30.131414234732059  1.4144596772046163 30.656658286937422  1.3185078451832224 31.174011201309217  1.2225560131618169 31.67871752239413  1.126604181140417 32.166119058485116  1.0626362931261526 32.476565038112433  1.030652349119022 32.627416997967885 
 3.1415926535897931 4 3.2375444856111919 1 3.3334963176325907 1 3.4294481496539895 1 3.5253999816753887 1 3.6213518136967875 1 3.7173036457181863 1 3.8132554777395851 1 3.9092073097609843 1 4.0051591417823831 1 4.1011109738037819 1 4.1970628058251807 1 4.2930146378465794 1 4.3889664698679782 1 4.484918301889377 1 4.5808701339107767 1 4.6768219659321755 1 4.7727737979535743 1 4.868725629974973 1 4.9646774619963718 1 5.0606292940177706 1 5.1565811260391694 1 5.2525329580605682 4
7 0 0  3 25 23  5.2525329580605717 32.627416997967941  5.2205490140534385 32.476565038112454  5.1565811260391676 32.166119058485101  5.0606292940177644 31.678717522394113  4.9646774619963807 31.17401120130932  4.8687256299749651 30.656658286937407  4.772773797953576 30.131414234732073  4.6768219659321808 29.603112208933172  4.5808701339107722 29.076612136242069  4.4849183018893877 28.556757733022774  4.3889664698679685 28.048331479170749  4.2930146378465786 27.556010745453097  4.1970628058251807 27.084324729829142  4.1011109738037783 26.637612798759786  4.0051591417823866 26.219984565526431  3.9092073097609785 25.835282077888955  3.8132554777395895 25.487044493924419  3.7173036457181818 25.178475442038337  3.6213518136967915 24.912413850359354  3.5253999816753883 24.691306703134941  3.4294481496539904 24.517190732787718  3.3334963176325902 24.391657994708147  3.2375444856111932 24.315899768855061  3.1735765975969272 24.298951320391385  3.1415926535897931 24.298989873223263 
 1.0306523491190176 4 1.1266041811404164 1 1.2225560131618154 1 1.3185078451832142 1 1.4144596772046132 1 1.510411509226012 1 1.6063633412474108 1 1.7023151732688098 1 1.7982670052902088 1 1.8942188373116076 1 1.9901706693330063 1 2.0861225013544056 1 2.1820743333758044 1 2.2780261653972032 1 2.3739779974186019 1 2.4699298294400007 1 2.5658816614613995 1 2.6618334934827983 1 2.7577853255041975 1 2.8537371575255963 1 2.9496889895469955 1 3.0456408215683943 1 3.1415926535897931 4
7 0 0  3 25 23  3.1415926535897931 24.298989873223263  3.1096087095826594 24.298951320391385  3.045640821568393 24.315899768855061  2.949688989546996 24.39165799470814  2.8537371575255959 24.517190732787725  2.7577853255041993 24.691306703134941  2.6618334934827943 24.91241385035935  2.5658816614614071 25.178475442038341  2.4699298294399963 25.487044493924419  2.3739779974186068 25.835282077888966  2.2780261653971996 26.219984565526431  2.182074333375807 26.637612798759779  2.0861225013544078 27.084324729829145  1.9901706693330072 27.556010745453086  1.8942188373116176 28.048331479170763  1.7982670052901999 28.556757733022774  1.7023151732688144 29.076612136242076  1.6063633412474045 29.603112208933176  1.510411509226012 30.131414234732059  1.4144596772046165 30.656658286937422  1.3185078451832211 31.174011201309217  1.2225560131618174 31.67871752239413  1.1266041811404164 32.166119058485116  1.062636293126153 32.476565038112433  1.0306523491190234 32.627416997967885 
 3.1415926535897931 4 3.2375444856111919 1 3.3334963176325907 1 3.4294481496539895 1 3.5253999816753887 1 3.6213518136967875 1 3.7173036457181863 1 3.8132554777395851 1 3.9092073097609843 1 4.0051591417823831 1 4.1011109738037819 1 4.1970628058251807 1 4.2930146378465794 1 4.3889664698679782 1 4.484918301889377 1 4.5808701339107767 1 4.6768219659321755 1 4.7727737979535743 1 4.868725629974973 1 4.9646774619963718 1 5.0606292940177706 1 5.1565811260391694 1 5.2525329580605682 4
7 0 0  3 25 23  4.7123889803846897 35.455844122715689  4.720572980046442 35.410832119670332  4.7369409793699493 35.32080813088831  4.7614929783552169 35.185853529498381  4.7860449773404836 35.051061674167066  4.8105969763257539 34.916513808704828  4.8351489753110304 34.782291035845283  4.8597009742962927 34.648474260760267  4.8842529732815558 34.515144144328126  4.9088049722668226 34.382381053968679  4.9333569712520831 34.250265015346159  4.9579089702373507 34.118875664092684  4.9824609692226431 33.988292197817231  5.0070129682078939 33.858593328364236  5.0315649671931562 33.729857234371622  5.0561169661784255 33.60216151413524  5.0806689651636887 33.475583138880694  5.1052209641489599 33.350198406196327  5.129772963134231 33.226082894680808  5.1543249621194915 33.103311416007777  5.1788769611047609 32.981957978710057  5.2034289600900383 32.862095710432669  5.2279809590753024 32.7437969375245  5.2443489583988026 32.666020765771513  5.2525329580605522 32.627416997971125 
 1.5707963267948966 4 1.5953483257801635 1 1.6199003247654304 1 1.6444523237506972 1 1.6690043227359641 1 1.6935563217212311 1 1.718108320706498 1 1.7426603196917649 1 1.7672123186770317 1 1.7917643176622986 1 1.8163163166475655 1 1.8408683156328325 1 1.8654203146180994 1 1.8899723136033661 1 1.9145243125886333 1 1.9390763115739 1 1.963628310559167 1 1.9881803095444339 1 2.0127323085297006 1 2.0372843075149678 1 2.0618363065002345 1 2.0863883054855012 1 2.1109403044707684 4
7 0 0  3 25 23  1.5707963267948966 35.455844122715689  1.6183962154856475 35.71767593207263  1.7135959928671556 36.241225139068376  1.8563956589394237 37.010652514464148  1.9991953250116936 37.748403915136379  2.1419949910839442 38.439491990346845  2.2847946571562217 39.06983983580502  2.42759432322848 39.62661762292182  2.5703939893007286 40.098490362492491  2.7131936553730154 40.475852246830947  2.8559933214452622 40.751021233177241  2.9987929875175277 40.918395686032625  3.1415926535897931 40.974568341057122  3.2843923196620577 40.918395686032618  3.4271919857343232 40.751021233177255  3.5699916518065713 40.475852246830939  3.7127913178788563 40.098490362492491  3.8555909839511071 39.62661762292182  3.9983906500233646 39.069839835805006  4.1411903160956411 38.439491990346866  4.2839899821678937 37.748403915136365  4.4267896482401623 37.010652514464148  4.56958931431243 36.241225139068376  4.6647890916939385 35.71767593207263  4.7123889803846897 35.455844122715689 
 4.7123889803846897 4 4.8551886464569529 1 4.9979883125292162 1 5.1407879786014794 1 5.2835876446737426 1 5.4263873107460068 1 5.5691869768182691 1 5.7119866428905333 1 5.8547863089627965 1 5.9975859750350597 1 6.140385641107323 1 6.2831853071795862 1 6.4259849732518495 1 6.5687846393241127 1 6.711584305396376 1 6.8543839714686392 1 6.9971836375409033 1 7.1399833036131657 1 7.2827829696854298 1 7.4255826357576931 1 7.5683823018299563 1 7.7111819679022195 1 7.8539816339744828 4
7 0 0  3 25 23  1.0306523491190336 32.627416997971125  1.038836348780783 32.666020765771506  1.0552043481042861 32.743796937524493  1.0797563470895493 32.862095710432669  1.1043083460748233 32.981957978710057  1.128860345060096 33.10331141600777  1.1534123440453541 33.226082894680808  1.1779643430306277 33.350198406196313  1.202516342015896 33.475583138880694  1.227068341001162 33.60216151413524  1.2516203399864296 33.729857234371607  1.2761723389716919 33.858593328364236  1.3007243379569433 33.988292197817223  1.3252763369422353 34.118875664092684  1.3498283359275036 34.250265015346159  1.3743803349127628 34.382381053968679  1.3989323338980293 34.515144144328126  1.423484332883294 34.64847426076026  1.4480363318685534 34.782291035845283  1.4725883308538343 34.916513808704828  1.4971403298391017 35.051061674167066  1.5216923288243689 35.185853529498374  1.5462443278096378 35.320808130888317  1.5626123271331447 35.410832119670324  1.5707963267948966 35.455844122715689 
 4.1722450027088183 4 4.196797001694085 1 4.2213490006793517 1 4.2459009996646193 1 4.270452998649886 1 4.2950049976351528 1 4.3195569966204195 1 4.3441089956056862 1 4.3686609945909529 1 4.3932129935762205 1 4.4177649925614872 1 4.442316991546754 1 4.4668689905320207 1 4.4914209895172874 1 4.515972988502555 1 4.5405249874878217 1 4.5650769864730885 1 4.5896289854583552 1 4.6141809844436219 1 4.6387329834288895 1 4.6632849824141562 1 4.687836981399423 1 4.7123889803846897 4
7 0 0  3 25 23  4.7123889803846897 35.455844122715689  4.720572980046442 35.410832119670332  4.7369409793699493 35.32080813088831  4.7614929783552169 35.185853529498381  4.7860449773404836 35.051061674167066  4.8105969763257539 34.916513808704828  4.8351489753110313 34.782291035845283  4.8597009742962918 34.648474260760267  4.8842529732815576 34.515144144328126  4.9088049722668226 34.382381053968679  4.9333569712520831 34.250265015346159  4.9579089702373507 34.118875664092684  4.9824609692226414 33.988292197817231  5.0070129682078948 33.858593328364236  5.0315649671931562 33.729857234371622  5.0561169661784255 33.60216151413524  5.0806689651636896 33.475583138880694  5.105220964148959 33.350198406196327  5.1297729631342346 33.226082894680808  5.1543249621194924 33.103311416007777  5.1788769611047574 32.981957978710057  5.2034289600900392 32.862095710432669  5.2279809590753006 32.7437969375245  5.2443489583988017 32.666020765771513  5.2525329580605522 32.627416997971125 
 1.5707963267948966 4 1.5953483257801635 1 1.6199003247654304 1 1.6444523237506972 1 1.6690043227359641 1 1.6935563217212311 1 1.718108320706498 1 1.7426603196917649 1 1.7672123186770317 1 1.7917643176622986 1 1.8163163166475655 1 1.8408683156328325 1 1.8654203146180994 1 1.8899723136033661 1 1.9145243125886333 1 1.9390763115739 1 1.963628310559167 1 1.9881803095444339 1 2.0127323085297006 1 2.0372843075149678 1 2.0618363065002345 1 2.0863883054855012 1 2.1109403044707684 4
7 0 0  3 25 23  1.5707963267948966 35.455844122715689  1.6183962154856475 35.71767593207263  1.7135959928671554 36.241225139068376  1.8563956589394244 37.010652514464148  1.9991953250116914 37.748403915136379  2.1419949910839451 38.439491990346845  2.2847946571562194 39.06983983580502  2.4275943232284805 39.62661762292182  2.5703939893007295 40.098490362492491  2.7131936553730118 40.475852246830947  2.8559933214452622 40.751021233177241  2.9987929875175321 40.918395686032625  3.1415926535897922 40.974568341057122  3.284392319662055 40.918395686032618  3.4271919857343183 40.751021233177255  3.5699916518065757 40.475852246830939  3.7127913178788554 40.098490362492491  3.8555909839511067 39.62661762292182  3.9983906500233668 39.069839835805006  4.1411903160956411 38.439491990346866  4.2839899821678964 37.748403915136365  4.4267896482401605 37.010652514464148  4.5695893143124309 36.241225139068376  4.6647890916939385 35.71767593207263  4.7123889803846897 35.455844122715689 
 4.7123889803846897 4 4.8551886464569529 1 4.9979883125292162 1 5.1407879786014794 1 5.2835876446737426 1 5.4263873107460068 1 5.5691869768182691 1 5.7119866428905333 1 5.8547863089627965 1 5.9975859750350597 1 6.140385641107323 1 6.2831853071795862 1 6.4259849732518495 1 6.5687846393241127 1 6.711584305396376 1 6.8543839714686392 1 6.9971836375409033 1 7.1399833036131657 1 7.2827829696854298 1 7.4255826357576931 1 7.5683823018299563 1 7.7111819679022195 1 7.8539816339744828 4
7 0 0  3 25 23  1.0306523491190336 32.627416997971125  1.0388363487807846 32.666020765771506  1.0552043481042879 32.743796937524493  1.0797563470895482 32.862095710432669  1.1043083460748258 32.981957978710057  1.1288603450600958 33.10331141600777  1.1534123440453523 33.226082894680808  1.1779643430306281 33.350198406196313  1.202516342015896 33.475583138880694  1.2270683410011618 33.60216151413524  1.2516203399864303 33.729857234371607  1.2761723389716901 33.858593328364236  1.3007243379569453 33.988292197817223  1.3252763369422338 34.118875664092684  1.3498283359275041 34.250265015346159  1.374380334912763 34.382381053968679  1.3989323338980282 34.515144144328126  1.4234843328832953 34.64847426076026  1.448036331868553 34.782291035845283  1.4725883308538343 34.916513808704828  1.4971403298391019 35.051061674167066  1.5216923288243693 35.185853529498374  1.5462443278096378 35.320808130888317  1.5626123271331447 35.410832119670324  1.5707963267948966 35.455844122715689 
 4.1722450027088183 4 4.196797001694085 1 4.2213490006793517 1 4.2459009996646193 1 4.270452998649886 1 4.2950049976351528 1 4.3195569966204195 1 4.3441089956056862 1 4.3686609945909529 1 4.3932129935762205 1 4.4177649925614872 1 4.442316991546754 1 4.4668689905320207 1 4.4914209895172874 1 4.515972988502555 1 4.5405249874878217 1 4.5650769864730885 1 4.5896289854583552 1 4.6141809844436219 1 4.6387329834288895 1 4.6632849824141562 1 4.687836981399423 1 4.7123889803846897 4
1 0 1 1 0 
1 0 1 1 0 
1 0 1 1 0 
1 0 1 1 0 
1 0 1 1 0 
1 0 1 1 0 
1 0 1 1 0 
1 0 1 1 0 
7 0 0  3 25 23  -2.110940304471101 32.627416997969519  -2.0789563604639634 32.476565038114053  -2.014988472449688 32.166119058486728  -1.9190366404282724 31.678717522395743  -1.8230848084068612 31.174011201310833  -1.7271329763854446 30.656658286938963  -1.6311811443640352 30.131414234733523  -1.5352293123426177 29.603112208934498  -1.4392774803212047 29.076612136243384  -1.3433256482997917 28.556757733023908  -1.2473738162783761 28.048331479171878  -1.151421984256964 27.556010745454071  -1.0554701522355501 27.084324729829998  -0.95951832021413797 26.637612798760532  -0.8635664881927223 26.219984565527042  -0.76761465617130487 25.835282077889524  -0.67166282414989986 25.487044493924781  -0.57571099212848242 25.178475442038728  -0.47975916010707031 24.912413850359588  -0.38380732808565643 24.691306703135137  -0.28785549606424166 24.517190732787853  -0.19190366404282866 24.391657994708282  -0.095951832021410333 24.315899768855125  -0.031983944007137673 24.298951320391435  0 24.298989873223331 
 1.0306523491186923 4 1.126604181140106 1 1.2225560131615196 1 1.3185078451829333 1 1.414459677204347 1 1.5104115092257606 1 1.6063633412471745 1 1.7023151732685879 1 1.7982670052900018 1 1.8942188373114153 1 1.9901706693328292 1 2.086122501354243 1 2.1820743333756565 1 2.2780261653970699 1 2.3739779974184838 1 2.4699298294398977 1 2.5658816614613111 1 2.6618334934827246 1 2.7577853255041385 1 2.8537371575255523 1 2.9496889895469658 1 3.0456408215683792 1 3.1415926535897931 4
7 0 0  3 25 23  0 24.298989873223331  0.031983944007136687 24.298951320391435  0.09595183202141197 24.315899768855129  0.1919036640428286 24.391657994708279  0.28785549606423866 24.517190732787856  0.38380732808565993 24.691306703135133  0.47975916010706271 24.912413850359577  0.57571099212848575 25.178475442038735  0.67166282414989731 25.487044493924781  0.76761465617130653 25.835282077889531  0.86356648819272319 26.219984565527021  0.95951832021413708 26.637612798760539  1.0554701522355492 27.084324729830001  1.1514219842569646 27.556010745454063  1.2473738162783781 28.048331479171878  1.343325648299792 28.5567577330239  1.4392774803212056 29.07661213624338  1.5352293123426184 29.603112208934498  1.6311811443640327 30.131414234733519  1.7271329763854457 30.656658286938963  1.8230848084068603 31.174011201310822  1.9190366404282708 31.678717522395743  2.0149884724496889 32.166119058486728  2.0789563604639634 32.476565038114039  2.110940304471101 32.627416997969519 
 3.1415926535897931 4 3.237544485611207 1 3.3334963176326204 1 3.4294481496540343 1 3.5253999816754478 1 3.6213518136968617 1 3.7173036457182751 1 3.813255477739689 1 3.9092073097611024 1 4.0051591417825163 1 4.1011109738039302 1 4.1970628058253432 1 4.2930146378467571 1 4.388966469868171 1 4.4849183018895848 1 4.5808701339109987 1 4.6768219659324117 1 4.7727737979538256 1 4.8687256299752395 1 4.9646774619966525 1 5.0606292940180664 1 5.1565811260394803 1 5.2525329580608942 4
7 0 0  3 25 23  -2.110940304471101 32.627416997969519  -2.0789563604639634 32.476565038114053  -2.0149884724496872 32.166119058486728  -1.9190366404282742 31.678717522395743  -1.8230848084068603 31.174011201310833  -1.7271329763854455 30.656658286938963  -1.6311811443640343 30.131414234733523  -1.5352293123426186 29.603112208934498  -1.4392774803212047 29.076612136243384  -1.3433256482997917 28.556757733023908  -1.2473738162783761 28.048331479171878  -1.151421984256964 27.556010745454071  -1.0554701522355501 27.084324729829998  -0.95951832021413797 26.637612798760532  -0.8635664881927223 26.219984565527042  -0.76761465617130842 25.835282077889524  -0.67166282414989631 25.487044493924781  -0.57571099212848065 25.178475442038728  -0.47975916010706765 24.912413850359588  -0.38380732808565465 24.691306703135137  -0.28785549606424166 24.517190732787853  -0.19190366404282777 24.391657994708282  -0.095951832021413885 24.315899768855125  -0.03198394400714033 24.298951320391435  -8.9000000000000007e-16 24.298989873223331 
 1.0306523491186923 4 1.126604181140106 1 1.2225560131615196 1 1.3185078451829333 1 1.414459677204347 1 1.5104115092257606 1 1.6063633412471745 1 1.7023151732685879 1 1.7982670052900018 1 1.8942188373114153 1 1.9901706693328292 1 2.086122501354243 1 2.1820743333756565 1 2.2780261653970699 1 2.3739779974184838 1 2.4699298294398977 1 2.5658816614613111 1 2.6618334934827246 1 2.7577853255041385 1 2.8537371575255523 1 2.9496889895469658 1 3.0456408215683792 1 3.1415926535897931 4
7 0 0  3 25 23  0 24.298989873223331  0.031983944007136687 24.298951320391435  0.095951832021412081 24.315899768855129  0.19190366404282819 24.391657994708279  0.2878554960642401 24.517190732787856  0.38380732808565454 24.691306703135133  0.47975916010706843 24.912413850359577  0.57571099212848187 25.178475442038735  0.67166282414989431 25.487044493924781  0.76761465617131042 25.835282077889531  0.86356648819272197 26.219984565527021  0.95951832021413752 26.637612798760539  1.055470152235549 27.084324729830001  1.1514219842569646 27.556010745454063  1.2473738162783781 28.048331479171878  1.343325648299792 28.5567577330239  1.4392774803212056 29.07661213624338  1.5352293123426184 29.603112208934498  1.6311811443640327 30.131414234733519  1.7271329763854457 30.656658286938963  1.8230848084068603 31.174011201310822  1.9190366404282722 31.678717522395743  2.0149884724496885 32.166119058486728  2.0789563604639629 32.476565038114039  2.110940304471101 32.627416997969519 
 3.1415926535897931 4 3.237544485611207 1 3.3334963176326204 1 3.4294481496540343 1 3.5253999816754478 1 3.6213518136968617 1 3.7173036457182751 1 3.813255477739689 1 3.9092073097611024 1 4.0051591417825163 1 4.1011109738039302 1 4.1970628058253432 1 4.2930146378467571 1 4.388966469868171 1 4.4849183018895848 1 4.5808701339109987 1 4.6768219659324117 1 4.7727737979538256 1 4.8687256299752395 1 4.9646774619966525 1 5.0606292940180664 1 5.1565811260394803 1 5.2525329580608942 4
7 0 0  3 25 23  1.5707963267948966 35.455844122715718  1.5789803264566571 35.410832119670303  1.595348325780179 35.320808130888196  1.6199003247654609 35.185853529498203  1.6444523237507427 35.051061674166817  1.6690043227360249 34.916513808704487  1.6935563217213077 34.782291035844949  1.7181083207065879 34.648474260759805  1.7426603196918713 34.515144144327571  1.7672123186771531 34.382381053968061  1.791764317662434 34.250265015345398  1.8163163166477181 34.118875664091853  1.8408683156329977 33.988292197816456  1.8654203146182819 33.858593328363312  1.8899723136035631 33.729857234370591  1.9145243125888454 33.60216151413416  1.9390763115741267 33.475583138879543  1.9636283105594097 33.350198406195112  1.9881803095446915 33.226082894679571  2.0127323085299746 33.10331141600642  2.0372843075152551 32.981957978708678  2.0618363065005387 32.862095710431298  2.0863883054858201 32.743796937523015  2.1027563048093407 32.666020765769957  2.110940304471101 32.627416997969519 
 1.5707963267948966 4 1.5953483257801786 1 1.6199003247654606 1 1.6444523237507427 1 1.6690043227360247 1 1.6935563217213065 1 1.7181083207065888 1 1.7426603196918706 1 1.7672123186771527 1 1.7917643176624347 1 1.8163163166477168 1 1.8408683156329988 1 1.8654203146182808 1 1.8899723136035629 1 1.9145243125888449 1 1.939076311574127 1 1.9636283105594088 1 1.988180309544691 1 2.0127323085299729 1 2.0372843075152551 1 2.061836306500537 1 2.0863883054858192 1 2.110940304471101 4
7 0 0  3 25 23  0 40.95584412271571  0.023799944345374718 40.955855983770803  0.071399833036128971 40.946488430483122  0.14279966607226754 40.904491036085538  0.21419949910839065 40.834719743539765  0.28559933214452926 40.737541303097956  0.35699916518065855 40.613447909641103  0.42839899821678618 40.463072719624058  0.4997988312529229 40.287181794856004  0.57119866428905164 40.086671492965671  0.64259849732518459 39.862563553004527  0.71399833036131732 39.615999981814355  0.78539816339744917 39.348237209722825  0.85679799643357712 39.060639694744687  0.92819782946971208 38.754672967787123  0.9995976625058437 38.431896165275532  1.0709974955419743 38.093954083439712  1.1423973285781057 37.742568799021733  1.2137971616142376 37.379530885829872  1.2851969946503714 37.006690320723301  1.356596827686501 36.625946943338356  1.4279966607226342 36.239241197465752  1.4993964937587658 35.848542666111342  1.5469963824495199 35.58674483534233  1.5707963267948972 35.45584412271571 
 0 4 0.071399833036131677 1 0.14279966607226335 1 0.21419949910839503 1 0.28559933214452671 1 0.35699916518065838 1 0.42839899821679006 1 0.49979883125292174 1 0.57119866428905341 1 0.64259849732518504 1 0.71399833036131677 1 0.7853981633974485 1 0.85679799643358012 1 0.92819782946971174 1 0.99959766250584348 1 1.0709974955419752 1 1.1423973285781068 1 1.2137971616142385 1 1.2851969946503701 1 1.3565968276865019 1 1.4279966607226335 1 1.4993964937587652 1 1.570796326794897 4
7 0 0  3 25 23  -1.5707963267948966 35.455844122715718  -1.5469963824495183 35.586744835342337  -1.4993964937587645 35.848542666111349  -1.4279966607226342 36.239241197465738  -1.3565968276865012 36.62594694333837  -1.2851969946503701 37.006690320723301  -1.2137971616142389 37.379530885829872  -1.1423973285781051 37.74256879902174  -1.0709974955419757 38.093954083439712  -0.99959766250584536 38.431896165275532  -0.92819782946971152 38.754672967787123  -0.85679799643357857 39.06063969474468  -0.78539816339744828 39.348237209722818  -0.7139983303613171 39.615999981814369  -0.64259849732518504 39.862563553004534  -0.57119866428905119 40.086671492965678  -0.49979883125292357 40.287181794855989  -0.42839899821678618 40.463072719624073  -0.35699916518066033 40.613447909641096  -0.28559933214452826 40.737541303097949  -0.21419949910839087 40.834719743539772  -0.14279966607226768 40.904491036085538  -0.071399833036128513 40.946488430483114  -0.023799944345374691 40.95585598377081  0 40.95584412271571 
 4.7123889803846897 4 4.7837888134208217 1 4.8551886464569529 1 4.926588479493085 1 4.9979883125292162 1 5.0693881455653482 1 5.1407879786014794 1 5.2121878116376115 1 5.2835876446737426 1 5.3549874777098747 1 5.4263873107460068 1 5.497787143782138 1 5.5691869768182691 1 5.6405868098544012 1 5.7119866428905333 1 5.7833864759266644 1 5.8547863089627965 1 5.9261861419989277 1 5.9975859750350597 1 6.0689858080711918 1 6.140385641107323 1 6.2117854741434542 1 6.2831853071795862 4
7 0 0  3 25 23  -2.1109403044711019 32.627416997969519  -2.1027563048093416 32.666020765769957  -2.0863883054858201 32.743796937523022  -2.0618363065005392 32.862095710431284  -2.0372843075152565 32.981957978708671  -2.0127323085299738 33.103311416006427  -1.9881803095446937 33.226082894679564  -1.9636283105594083 33.350198406195098  -1.9390763115741274 33.475583138879536  -1.9145243125888456 33.60216151413416  -1.8899723136035629 33.729857234370584  -1.8654203146182828 33.858593328363327  -1.8408683156329992 33.988292197816456  -1.8163163166477183 34.11887566409186  -1.7917643176624356 34.250265015345398  -1.7672123186771529 34.382381053968047  -1.7426603196918737 34.515144144327557  -1.7181083207065884 34.648474260759812  -1.6935563217213065 34.782291035844935  -1.6690043227360256 34.916513808704487  -1.6444523237507456 35.051061674166796  -1.6199003247654593 35.185853529498196  -1.5953483257801802 35.320808130888203  -1.5789803264566586 35.410832119670296  -1.5707963267948966 35.455844122715718 
 4.1722450027084852 4 4.196797001693767 1 4.2213490006790488 1 4.2459009996643315 1 4.2704529986496134 1 4.2950049976348952 1 4.319556996620177 1 4.3441089956054597 1 4.3686609945907415 1 4.3932129935760234 1 4.4177649925613052 1 4.442316991546587 1 4.4668689905318697 1 4.4914209895171515 1 4.5159729885024333 1 4.5405249874877152 1 4.5650769864729979 1 4.5896289854582797 1 4.6141809844435615 1 4.6387329834288433 1 4.663284982414126 1 4.6878369813994079 1 4.7123889803846897 4
7 0 0  3 25 23  1.5707963267948966 35.455844122715718  1.5789803264566571 35.410832119670303  1.595348325780179 35.320808130888196  1.6199003247654609 35.185853529498203  1.6444523237507425 35.051061674166817  1.6690043227360256 34.916513808704487  1.693556321721307 34.782291035844949  1.7181083207065888 34.648474260759805  1.7426603196918713 34.515144144327571  1.7672123186771518 34.382381053968061  1.7917643176624352 34.250265015345398  1.8163163166477165 34.118875664091853  1.8408683156329984 33.988292197816456  1.8654203146182808 33.858593328363312  1.8899723136035631 33.729857234370591  1.9145243125888454 33.60216151413416  1.9390763115741267 33.475583138879543  1.9636283105594099 33.350198406195112  1.9881803095446902 33.226082894679571  2.0127323085299738 33.10331141600642  2.0372843075152538 32.981957978708678  2.0618363065005374 32.862095710431298  2.0863883054858201 32.743796937523015  2.1027563048093412 32.666020765769957  2.110940304471101 32.627416997969519 
 1.5707963267948966 4 1.5953483257801786 1 1.6199003247654606 1 1.6444523237507427 1 1.6690043227360247 1 1.6935563217213065 1 1.7181083207065888 1 1.7426603196918706 1 1.7672123186771527 1 1.7917643176624347 1 1.8163163166477168 1 1.8408683156329988 1 1.8654203146182808 1 1.8899723136035629 1 1.9145243125888449 1 1.939076311574127 1 1.9636283105594088 1 1.988180309544691 1 2.0127323085299729 1 2.0372843075152551 1 2.061836306500537 1 2.0863883054858192 1 2.110940304471101 4
7 0 0  3 25 23  0 40.95584412271571  0.023799944345378861 40.955855983770803  0.071399833036133467 40.946488430483122  0.14279966607226116 40.904491036085538  0.21419949910839636 40.834719743539765  0.28559933214452798 40.737541303097956  0.35699916518065777 40.613447909641103  0.42839899821679023 40.463072719624058  0.49979883125292179 40.287181794856004  0.57119866428905197 40.086671492965671  0.64259849732518459 39.862563553004527  0.71399833036131743 39.615999981814355  0.78539816339744839 39.348237209722825  0.8567979964335799 39.060639694744687  0.9281978294697113 38.754672967787123  0.99959766250584314 38.431896165275532  1.0709974955419763 38.093954083439712  1.1423973285781064 37.742568799021733  1.2137971616142389 37.379530885829872  1.2851969946503707 37.006690320723301  1.3565968276865019 36.625946943338356  1.427996660722634 36.239241197465752  1.4993964937587658 35.848542666111342  1.5469963824495199 35.58674483534233  1.5707963267948972 35.45584412271571 
 0 4 0.071399833036131677 1 0.14279966607226335 1 0.21419949910839503 1 0.28559933214452671 1 0.35699916518065838 1 0.42839899821679006 1 0.49979883125292174 1 0.57119866428905341 1 0.64259849732518504 1 0.71399833036131677 1 0.7853981633974485 1 0.85679799643358012 1 0.92819782946971174 1 0.99959766250584348 1 1.0709974955419752 1 1.1423973285781068 1 1.2137971616142385 1 1.2851969946503701 1 1.3565968276865019 1 1.4279966607226335 1 1.4993964937587652 1 1.570796326794897 4
7 0 0  3 25 23  -1.5707963267948966 35.455844122715718  -1.5469963824495183 35.586744835342337  -1.4993964937587645 35.848542666111349  -1.4279966607226342 36.239241197465738  -1.3565968276865021 36.62594694333837  -1.285196994650371 37.006690320723301  -1.213797161614238 37.379530885829872  -1.1423973285781077 37.74256879902174  -1.0709974955419757 38.093954083439712  -0.99959766250584536 38.431896165275532  -0.92819782946971152 38.754672967787123  -0.85679799643357857 39.06063969474468  -0.78539816339744828 39.348237209722818  -0.7139983303613171 39.615999981814369  -0.64259849732518415 39.862563553004534  -0.57119866428905208 40.086671492965678  -0.49979883125292268 40.287181794855989  -0.42839899821679062 40.463072719624073  -0.35699916518065855 40.613447909641096  -0.28559933214452826 40.737541303097949  -0.21419949910839797 40.834719743539772  -0.14279966607226147 40.904491036085538  -0.071399833036132065 40.946488430483114  -0.023799944345379132 40.95585598377081  8.9000000000000007e-16 40.95584412271571 
 4.7123889803846897 4 4.7837888134208217 1 4.8551886464569529 1 4.926588479493085 1 4.9979883125292162 1 5.0693881455653482 1 5.1407879786014794 1 5.2121878116376115 1 5.2835876446737426 1 5.3549874777098747 1 5.4263873107460068 1 5.497787143782138 1 5.5691869768182691 1 5.6405868098544012 1 5.7119866428905333 1 5.7833864759266644 1 5.8547863089627965 1 5.9261861419989277 1 5.9975859750350597 1 6.0689858080711918 1 6.140385641107323 1 6.2117854741434542 1 6.2831853071795862 4
7 0 0  3 25 23  -2.1109403044711019 32.627416997969519  -2.1027563048093416 32.666020765769957  -2.086388305485821 32.743796937523022  -2.0618363065005374 32.862095710431284  -2.0372843075152538 32.981957978708671  -2.0127323085299738 33.103311416006427  -1.988180309544691 33.226082894679564  -1.9636283105594101 33.350198406195098  -1.9390763115741274 33.475583138879536  -1.9145243125888456 33.60216151413416  -1.8899723136035638 33.729857234370584  -1.8654203146182811 33.858593328363327  -1.8408683156330001 33.988292197816456  -1.8163163166477165 34.11887566409186  -1.7917643176624365 34.250265015345398  -1.7672123186771511 34.382381053968047  -1.7426603196918737 34.515144144327557  -1.7181083207065884 34.648474260759812  -1.6935563217213057 34.782291035844935  -1.6690043227360265 34.916513808704487  -1.6444523237507447 35.051061674166796  -1.6199003247654593 35.185853529498196  -1.5953483257801802 35.320808130888203  -1.5789803264566586 35.410832119670296  -1.5707963267948966 35.455844122715718 
 4.1722450027084852 4 4.196797001693767 1 4.2213490006790488 1 4.2459009996643315 1 4.2704529986496134 1 4.2950049976348952 1 4.319556996620177 1 4.3441089956054597 1 4.3686609945907415 1 4.3932129935760234 1 4.4177649925613052 1 4.442316991546587 1 4.4668689905318697 1 4.4914209895171515 1 4.5159729885024333 1 4.5405249874877152 1 4.5650769864729979 1 4.5896289854582797 1 4.6141809844435615 1 4.6387329834288433 1 4.663284982414126 1 4.6878369813994079 1 4.7123889803846897 4
1 0 19 1 0 
1 6.2831853071795862 -0 0 1 
1 0 -0 0 1 
1 0 19 1 0 
1 6.2831853071795862 -0 0 1 
1 0 -0 0 1 
1 0 19 1 0 
1 6.2831853071795862 -0 0 1 
1 0 -0 0 1 
1 0 19 1 0 
1 6.2831853071795862 -0 0 1 
1 0 -0 0 1 
1 0 19 1 0 
1 6.2831853071795862 -0 0 1 
1 0 -0 0 1 
1 0 19 1 0 
1 6.2831853071795862 -0 0 1 
1 0 -0 0 1 
1 0 19 1 0 
1 6.2831853071795862 -0 0 1 
1 0 -0 0 1 
1 0 19 1 0 
1 6.2831853071795862 -0 0 1 
1 0 -0 0 1 
Curves 74
1 577.88911455749485 0 17.999999999999986 0 1 2.2204460492503131e-16 
1 577.88911455749485 400.05000000000001 18.000000000000075 0 2.2204460492503131e-16 -1 
1 577.88911455749485 3.9968028886505635e-15 -1.4210854715202004e-14 0 1 2.2204460492503131e-16 
3 577.88911455749485 154 4.0000000000000764 1 -0 0 0 2.2204460492503131e-16 -1 0 1 2.2204460492503131e-16 7.7781745930520225 5.5
3 577.88911455749485 154 4.0000000000000764 1 -0 0 0 2.2204460492503131e-16 -1 0 1 2.2204460492503131e-16 7.7781745930520225 5.5
1 577.88911455749485 3.9968028886505635e-15 -1.4210854715202004e-14 0 1 2.2204460492503131e-16 
3 577.88911455749485 96 4.0000000000000639 1 -0 0 0 2.2204460492503131e-16 -1 0 1 2.2204460492503131e-16 7.7781745930520225 5.5
3 577.88911455749485 96 4.0000000000000639 1 -0 0 0 2.2204460492503131e-16 -1 0 1 2.2204460492503131e-16 7.7781745930520225 5.5
1 577.88911455749485 3.9968028886505635e-15 -1.4210854715202004e-14 0 1 2.2204460492503131e-16 
1 577.88911455749485 0 17.999999999999986 0 2.2204460492503131e-16 -1 
3 573.88911455749485 154 2.1316282072803006e-14 0 2.2204460492503131e-16 -1 -1 0 0 0 1 2.2204460492503131e-16 7.7781745930520225 5.5
3 573.88911455749485 154 2.1316282072803006e-14 0 2.2204460492503131e-16 -1 -1 0 0 0 1 2.2204460492503131e-16 7.7781745930520225 5.5
3 573.88911455749485 154 2.1316282072803006e-14 0 2.2204460492503131e-16 -1 -1 0 0 0 1 2.2204460492503131e-16 7.7781745930520225 5.5
3 573.88911455749485 96 7.1054273576010019e-15 0 2.2204460492503131e-16 -1 -1 0 0 0 1 2.2204460492503131e-16 7.7781745930520225 5.5
3 573.88911455749485 96 7.1054273576010019e-15 0 2.2204460492503131e-16 -1 -1 0 0 0 1 2.2204460492503131e-16 7.7781745930520225 5.5
3 573.88911455749485 96 7.1054273576010019e-15 0 2.2204460492503131e-16 -1 -1 0 0 0 1 2.2204460492503131e-16 7.7781745930520225 5.5
1 591.88911455749485 0 17.999999999999986 -1 -0 0 
1 20.539114557494862 400.05000000000001 18.000000000000075 1 0 0 
1 5.8891145574948833 0 17.999999999999986 0 1 2.2204460492503131e-16 
1 73.101614557494884 357.15937500000001 18.000000000000064 1 0 0 
1 447.4641145574949 46.420312500000001 17.999999999999996 0 -1 -2.2204460492503131e-16 
1 73.101614557494884 92.840625000000003 18.000000000000007 1 0 0 
1 136.31411455749489 46.420312500000001 17.999999999999996 0 -1 -2.2204460492503131e-16 
2 511.88911455749491 210 18.000000000000032 0 2.2204460492503131e-16 -1 0 1 2.2204460492503131e-16 1 0 0 12.699999999999999
2 81.889114557494878 310 18.000000000000053 0 2.2204460492503131e-16 -1 0 1 2.2204460492503131e-16 1 0 0 12.699999999999999
2 81.889114557494878 260 18.000000000000043 0 2.2204460492503131e-16 -1 0 1 2.2204460492503131e-16 1 0 0 12.699999999999999
2 81.889114557494878 210 18.000000000000032 0 2.2204460492503131e-16 -1 0 1 2.2204460492503131e-16 1 0 0 12.699999999999999
2 128.37661455749489 225 18.000000000000036 0 2.2204460492503131e-16 -1 0 1 2.2204460492503131e-16 1 0 0 3.5718749999999999
2 291.88911455749491 84.903125000000003 18.000000000000004 0 2.2204460492503131e-16 -1 0 1 2.2204460492503131e-16 1 0 0 3.5718749999999999
2 455.4016145574949 225 18.000000000000036 0 2.2204460492503131e-16 -1 0 1 2.2204460492503131e-16 1 0 0 3.5718749999999999
2 291.88911455749491 365.09687500000001 18.000000000000068 0 2.2204460492503131e-16 -1 0 1 2.2204460492503131e-16 1 0 0 3.5718749999999999
1 5.8891145574948833 400.05000000000001 18.000000000000075 0 2.2204460492503131e-16 -1 
1 5.8891145574948833 3.9968028886505635e-15 -1.4210854715202004e-14 0 1 2.2204460492503131e-16 
3 5.8891145574948833 154 4.0000000000000195 1 -0 0 0 2.2204460492503131e-16 -1 0 1 2.2204460492503131e-16 7.7781745930520225 5.5
3 5.8891145574948833 154 4.0000000000000195 1 -0 0 0 2.2204460492503131e-16 -1 0 1 2.2204460492503131e-16 7.7781745930520225 5.5
1 5.8891145574948833 3.9968028886505635e-15 -1.4210854715202004e-14 0 1 2.2204460492503131e-16 
3 5.8891145574948833 96 4.0000000000000071 1 -0 0 0 2.2204460492503131e-16 -1 0 1 2.2204460492503131e-16 7.7781745930520225 5.5
3 5.8891145574948833 96 4.0000000000000071 1 -0 0 0 2.2204460492503131e-16 -1 0 1 2.2204460492503131e-16 7.7781745930520225 5.5
1 5.8891145574948833 3.9968028886505635e-15 -1.4210854715202004e-14 0 1 2.2204460492503131e-16 
1 5.8891145574948833 0 17.999999999999986 0 2.2204460492503131e-16 -1 
3 9.8891145574948833 154 2.1316282072803006e-14 0 2.2204460492503131e-16 -1 1 0 0 0 -1 -2.2204460492503131e-16 7.7781745930520225 5.5
3 9.8891145574948833 154 2.1316282072803006e-14 0 2.2204460492503131e-16 -1 1 0 0 0 -1 -2.2204460492503131e-16 7.7781745930520225 5.5
3 9.8891145574948833 154 2.1316282072803006e-14 0 2.2204460492503131e-16 -1 1 0 0 0 -1 -2.2204460492503131e-16 7.7781745930520225 5.5
3 9.8891145574948833 154 2.1316282072803006e-14 0 2.2204460492503131e-16 -1 1 0 0 0 -1 -2.2204460492503131e-16 7.7781745930520225 5.5
3 9.8891145574948833 96 7.1054273576010019e-15 0 2.2204460492503131e-16 -1 1 0 0 0 -1 -2.2204460492503131e-16 7.7781745930520225 5.5
3 9.8891145574948833 96 7.1054273576010019e-15 0 2.2204460492503131e-16 -1 1 0 0 0 -1 -2.2204460492503131e-16 7.7781745930520225 5.5
3 9.8891145574948833 96 7.1054273576010019e-15 0 2.2204460492503131e-16 -1 1 0 0 0 -1 -2.2204460492503131e-16 7.7781745930520225 5.5
3 9.8891145574948833 96 7.1054273576010019e-15 0 2.2204460492503131e-16 -1 1 0 0 0 -1 -2.2204460492503131e-16 7.7781745930520225 5.5
1 136.31411455749489 357.15937500000001 19.000000000000064 0 2.2204460492503131e-16 -1 
1 73.101614557494884 357.15937500000001 6.3948846218409017e-14 1 0 0 
1 447.4641145574949 357.15937500000001 19.000000000000064 0 2.2204460492503131e-16 -1 
1 136.31411455749489 46.420312500000009 -3.5527136788005009e-15 0 -1 -2.2204460492503131e-16 
1 136.31411455749489 92.840625000000003 19.000000000000007 0 2.2204460492503131e-16 -1 
1 447.4641145574949 46.420312500000009 -3.5527136788005009e-15 0 -1 -2.2204460492503131e-16 
1 447.4641145574949 92.840625000000003 19.000000000000007 0 2.2204460492503131e-16 -1 
1 73.101614557494884 92.840625000000003 7.1054273576010019e-15 1 0 0 
2 511.88911455749491 210 3.1974423109204508e-14 0 2.2204460492503131e-16 -1 0 1 2.2204460492503131e-16 1 0 0 12.699999999999999
1 511.88911455749491 222.69999999999999 19.000000000000036 0 2.2204460492503131e-16 -1 
2 81.889114557494878 310 5.3290705182007514e-14 0 2.2204460492503131e-16 -1 0 1 2.2204460492503131e-16 1 0 0 12.699999999999999
1 81.889114557494864 322.69999999999999 19.000000000000057 0 2.2204460492503131e-16 -1 
2 81.889114557494878 260 4.2632564145606011e-14 0 2.2204460492503131e-16 -1 0 1 2.2204460492503131e-16 1 0 0 12.699999999999999
1 81.889114557494864 272.69999999999999 19.000000000000046 0 2.2204460492503131e-16 -1 
2 81.889114557494878 210 3.1974423109204508e-14 0 2.2204460492503131e-16 -1 0 1 2.2204460492503131e-16 1 0 0 12.699999999999999
1 81.889114557494878 222.69999999999999 19.000000000000036 0 2.2204460492503131e-16 -1 
2 128.37661455749489 225 3.5527136788005009e-14 0 2.2204460492503131e-16 -1 0 1 2.2204460492503131e-16 1 0 0 3.5718749999999999
1 128.37661455749489 228.57187500000001 19.000000000000036 0 2.2204460492503131e-16 -1 
2 291.88911455749491 84.903125000000003 3.5527136788005009e-15 0 2.2204460492503131e-16 -1 0 1 2.2204460492503131e-16 1 0 0 3.5718749999999999
1 291.88911455749491 88.475000000000009 19.000000000000007 0 2.2204460492503131e-16 -1 
2 455.4016145574949 225 3.5527136788005009e-14 0 2.2204460492503131e-16 -1 0 1 2.2204460492503131e-16 1 0 0 3.5718749999999999
1 455.4016145574949 228.57187500000001 19.000000000000036 0 2.2204460492503131e-16 -1 
2 291.88911455749491 365.09687500000001 6.7501559897209518e-14 0 2.2204460492503131e-16 -1 0 1 2.2204460492503131e-16 1 0 0 3.5718749999999999
1 291.88911455749491 368.66874999999999 19.000000000000068 0 2.2204460492503131e-16 -1 
1 573.88911455749485 3.9968028886505635e-15 -1.4210854715202004e-14 1 0 0 
1 34.539114557494862 400.05000000000001 7.460698725481052e-14 1 0 0 
Polygon3D 0
PolygonOnTriangulations 0
Surfaces 22
1 577.88911455749485 0 17.999999999999986 1 0 0 0 1 2.2204460492503131e-16 0 -2.2204460492503131e-16 1 
2 598.96018236936027 154 25.071067811865497 -0.70710678118654757 1.5700924586837752e-16 -0.70710678118654757 0.70710678118654757 1.5700924586837752e-16 -0.70710678118654757 0 -1 -2.2204460492503131e-16 5.5
2 598.96018236936027 96 25.071067811865483 -0.70710678118654757 1.5700924586837752e-16 -0.70710678118654757 0.70710678118654757 1.5700924586837752e-16 -0.70710678118654757 0 -1 -2.2204460492503131e-16 5.5
1 306.2141145574949 200.02500000000001 18.000000000000032 -0 -2.2204460492503131e-16 1 0 -1 -2.2204460492503131e-16 1 0 0 
2 511.88911455749491 210 19.000000000000032 0 2.2204460492503131e-16 -1 0 1 2.2204460492503131e-16 1 0 0 12.699999999999999
2 81.889114557494878 310 19.000000000000053 0 2.2204460492503131e-16 -1 0 1 2.2204460492503131e-16 1 0 0 12.699999999999999
2 81.889114557494878 260 19.000000000000043 0 2.2204460492503131e-16 -1 0 1 2.2204460492503131e-16 1 0 0 12.699999999999999
2 81.889114557494878 210 19.000000000000032 0 2.2204460492503131e-16 -1 0 1 2.2204460492503131e-16 1 0 0 12.699999999999999
2 128.37661455749489 225 19.000000000000036 0 2.2204460492503131e-16 -1 0 1 2.2204460492503131e-16 1 0 0 3.5718749999999999
2 291.88911455749491 84.903125000000003 19.000000000000004 0 2.2204460492503131e-16 -1 0 1 2.2204460492503131e-16 1 0 0 3.5718749999999999
2 455.4016145574949 225 19.000000000000036 0 2.2204460492503131e-16 -1 0 1 2.2204460492503131e-16 1 0 0 3.5718749999999999
2 291.88911455749491 365.09687500000001 19.000000000000068 0 2.2204460492503131e-16 -1 0 1 2.2204460492503131e-16 1 0 0 3.5718749999999999
1 5.8891145574948833 0 17.999999999999986 1 0 0 0 1 2.2204460492503131e-16 0 -2.2204460492503131e-16 1 
2 -15.18195325437059 154 25.071067811865497 0.70710678118654757 1.5700924586837752e-16 -0.70710678118654757 0.70710678118654757 -1.5700924586837752e-16 0.70710678118654757 0 -1 -2.2204460492503131e-16 5.5
2 -15.18195325437059 96 25.071067811865483 0.70710678118654757 1.5700924586837752e-16 -0.70710678118654757 0.70710678118654757 -1.5700924586837752e-16 0.70710678118654757 0 -1 -2.2204460492503131e-16 5.5
1 136.31411455749489 357.15937500000001 19.000000000000064 0 1 2.2204460492503131e-16 1 0 0 0 2.2204460492503131e-16 -1 
1 136.31411455749489 92.840625000000003 19.000000000000007 1 0 0 0 1 2.2204460492503131e-16 0 -2.2204460492503131e-16 1 
1 447.4641145574949 92.840625000000003 19.000000000000007 1 0 0 0 1 2.2204460492503131e-16 0 -2.2204460492503131e-16 1 
1 136.31411455749489 92.840625000000003 19.000000000000007 0 1 2.2204460492503131e-16 1 0 0 0 2.2204460492503131e-16 -1 
1 306.21411455749495 1.9984014443252826e-15 8.9999999999999822 -0 -1 -2.2204460492503131e-16 -1 0 0 0 2.2204460492503131e-16 -1 
1 306.21411455749495 400.05000000000001 9.0000000000000746 0 1 2.2204460492503131e-16 1 0 0 0 2.2204460492503131e-16 -1 
1 306.01742512374773 197.25556526281514 6.7501559897209518e-14 0 2.2204460492503131e-16 -1 0 1 2.2204460492503131e-16 1 0 0 
Triangulations 0

TShapes 193
Ve
1.6140898903e-05
606.539114557495 0 18
0 0

0101101
*
Ve
1.6140898903e-05
606.539114557495 400.05 18.0000000000001
0 0

0101101
*
Ed
 1.6140898903e-05 1 1 0
1  1 0 0 400.05
0

0101000
+193 8 -192 8 *
Ve
8.4259611861e-05
606.539114557495 400.05 7.46069872548105e-14
0 0

0101101
*
Ed
 1.6140898903e-05 1 1 0
1  2 0 0 18
0

0101000
+192 8 -190 8 *
Ve
1.6140898903e-05
606.539114557495 158.716990566034 2.1316282072803e-14
0 0

0101101
*
Ed
 1.6140898903e-05 1 1 0
1  3 0 158.716990566034 400.05
0

0101000
+188 8 -190 8 *
Ve
1.00000021e-07
606.539114557495 154 11.7781745930521
0 0

0101101
*
Ed
 1e-07 1 1 0
1  4 0 1.03065234911902 3.14159265358979
2  1 2 0 1.03065234911902 3.14159265358979
0

0101000
+188 8 -186 8 *
Ve
1.6140898903e-05
606.539114557495 149.283009433966 1.77635683940025e-14
0 0

0101101
*
Ed
 1e-07 1 1 0
1  5 0 3.14159265358979 5.25253295806057
2  2 2 0 3.14159265358979 5.25253295806057
0

0101000
+186 8 -184 8 *
Ve
1.6140898903e-05
606.539114557495 100.716990566034 7.105427357601e-15
0 0

0101101
*
Ed
 1.6140898903e-05 1 1 0
1  6 0 100.716990566034 149.283009433966
0

0101000
+182 8 -184 8 *
Ve
1.00000021e-07
606.539114557495 96 11.7781745930521
0 0

0101101
*
Ed
 1e-07 1 1 0
1  7 0 1.03065234911902 3.14159265358979
2  3 3 0 1.03065234911902 3.14159265358979
0

0101000
+182 8 -180 8 *
Ve
1.6140898903e-05
606.539114557495 91.2830094339655 7.105427357601e-15
0 0

0101101
*
Ed
 1e-07 1 1 0
1  8 0 3.14159265358979 5.25253295806057
2  4 3 0 3.14159265358979 5.25253295806057
0

0101000
+180 8 -178 8 *
Ve
1.6140898903e-05
606.539114557495 3.99680288865056e-15 -1.4210854715202e-14
0 0

0101101
*
Ed
 1.6140898903e-05 1 1 0
1  9 0 0 91.2830094339655
0

0101000
+176 8 -178 8 *
Ed
 1.6140898903e-05 1 1 0
1  10 0 0 18
0

0101000
+193 8 -176 8 *
Wi

0101100
-191 0 -189 0 +187 0 -185 0 -183 0 +181 0 -179 0 -177 0 +175 0 +174 0 
*
Fa
0  1e-07 1 0

0111000
+173 0 *
Ve
1.6140898903e-05
602.539114557495 159.500000000005 2.1316282072803e-14
0 0

0101101
*
Ed
 1.6140898903e-05 1 1 0
1  11 0 1.5707963267949 2.11094030447077
2  5 2 0 1.5707963267949 2.11094030447077
0

0101000
+171 8 -188 8 *
Ve
1.6140898903e-05
602.539114557495 148.499999999995 1.77635683940025e-14
0 0

0101101
*
Ed
 1.6140898903e-05 1 1 0
1  12 0 4.71238898038469 7.85398163397448
2  6 2 12 4.71238898038469 7.85398163397448
0

0101000
+169 13 -171 13 *
Ed
 1.6140898903e-05 1 1 0
1  13 0 4.17224500270882 4.71238898038469
2  7 2 0 4.17224500270882 4.71238898038469
0

0101000
+184 8 -169 8 *
Wi

0101100
-170 0 -168 11 -167 0 -183 0 -185 0 *
Fa
0  1e-07 2 0

0111000
+166 0 *
Ve
1.6140898903e-05
602.539114557495 101.500000000005 7.105427357601e-15
0 0

0101101
*
Ed
 1.6140898903e-05 1 1 0
1  14 0 1.5707963267949 2.11094030447077
2  8 3 0 1.5707963267949 2.11094030447077
0

0101000
+164 8 -182 8 *
Ve
1.6140898903e-05
602.539114557495 90.4999999999948 7.105427357601e-15
0 0

0101101
*
Ed
 1.6140898903e-05 1 1 0
1  15 0 4.71238898038469 7.85398163397448
2  9 3 12 4.71238898038469 7.85398163397448
0

0101000
+162 13 -164 13 *
Ed
 1.6140898903e-05 1 1 0
1  16 0 4.17224500270882 4.71238898038469
2  10 3 0 4.17224500270882 4.71238898038469
0

0101000
+178 8 -162 8 *
Wi

0101100
-163 0 -161 11 -160 0 -177 0 -179 0 *
Fa
0  1e-07 3 0

0111000
+159 0 *
Ve
1.6140898903e-05
5.88911455749488 0 18
0 0

0101101
*
Ed
 1e-07 1 1 0
1  17 0 -14.6500000000001 586
0

0101000
+193 14 -157 14 *
Ve
1.6140898903e-05
5.88911455749488 400.05 18.0000000000001
0 0

0101101
*
Ed
 1e-07 1 1 0
1  18 0 -14.65 586
0

0101000
+155 14 -192 14 *
Ed
 1.6140898903e-05 1 1 0
1  19 0 0 400.05
0

0101000
+157 15 -155 15 *
Wi

0101000
-156 0 +191 7 -154 0 -153 4 *
Ve
1.50000057e-07
150.639114557495 357.159375 18.0000000000001
0 0

0101101
*
Ve
1.50000057e-07
461.789114557495 357.159375 18.0000000000001
0 0

0101101
*
Ed
 1.5e-07 1 1 0
1  20 0 63.2125 374.3625
0

0101000
+151 18 -150 18 *
Ve
1.50000057e-07
461.789114557495 92.840625 18
0 0

0101101
*
Ed
 1.5e-07 1 1 0
1  21 0 -310.7390625 -46.4203125
0

0101000
+150 18 -148 18 *
Ve
1.5e-07
150.639114557495 92.840625 18
0 0

0101101
*
Ed
 1.5e-07 1 1 0
1  22 0 63.2125 374.3625
0

0101000
+146 18 -148 18 *
Ed
 1.5e-07 1 1 0
1  23 0 -310.7390625 -46.4203125
0

0101000
+151 18 -146 18 *
Wi

0101100
+149 17 +147 17 -145 17 -144 17 *
Ve
1e-07
540.539114557495 222.7 18
0 0

0101101
*
Ed
 1e-07 1 1 0
1  24 0 0 6.28318530717959
2  11 5 0 0 6.28318530717959
0

0101100
+142 20 -142 20 *
Wi

0101100
+141 19 *
Ve
1.00000014e-07
81.8891145574949 322.7 18.0000000000001
0 0

0101101
*
Ed
 1e-07 1 1 0
1  25 0 0 6.28318530717959
2  12 6 0 0 6.28318530717959
0

0101100
+139 22 -139 22 *
Wi

0101100
+138 21 *
Ve
1.00000014e-07
81.8891145574949 272.7 18
0 0

0101101
*
Ed
 1e-07 1 1 0
1  26 0 0 6.28318530717959
2  13 7 0 0 6.28318530717959
0

0101100
+136 22 -136 22 *
Wi

0101100
+135 21 *
Ve
1e-07
81.8891145574949 222.7 18
0 0

0101101
*
Ed
 1e-07 1 1 0
1  27 0 0 6.28318530717959
2  14 8 0 0 6.28318530717959
0

0101100
+133 22 -133 22 *
Wi

0101100
+132 21 *
Ve
1e-07
142.701614557495 228.571875 18
0 0

0101101
*
Ed
 1e-07 1 1 0
1  28 0 0 6.28318530717959
2  15 9 0 0 6.28318530717959
0

0101100
+130 18 -130 18 *
Wi

0101100
+129 17 *
Ve
1e-07
306.214114557495 88.475 18
0 0

0101101
*
Ed
 1e-07 1 1 0
1  29 0 0 6.28318530717959
2  16 10 0 0 6.28318530717959
0

0101100
+127 18 -127 18 *
Wi

0101100
+126 17 *
Ve
1e-07
469.726614557495 228.571875 18
0 0

0101101
*
Ed
 1e-07 1 1 0
1  30 0 0 6.28318530717959
2  17 11 0 0 6.28318530717959
0

0101100
+124 18 -124 18 *
Wi

0101100
+123 17 *
Ve
1e-07
306.214114557495 368.66875 18.0000000000001
0 0

0101101
*
Ed
 1e-07 1 1 0
1  31 0 0 6.28318530717959
2  18 12 0 0 6.28318530717959
0

0101100
+121 18 -121 18 *
Wi

0101100
+120 17 *
Fa
0  1.6140898903e-05 4 0

0111000
+152 0 +143 0 +140 0 +137 0 +134 0 +131 0 +128 0 +125 0 +122 0 +119 0 
*
Ve
8.4259611748e-05
5.88911455749488 400.05 7.46069872548105e-14
0 0

0101101
*
Ed
 1.6140898903e-05 1 1 0
1  32 0 0 18
0

0101000
+155 15 -117 15 *
Ve
1.6140898903e-05
5.88911455749488 158.716990566028 2.1316282072803e-14
0 0

0101101
*
Ed
 1.6140898903e-05 1 1 0
1  33 0 158.716990566028 400.05
0

0101000
+115 15 -117 15 *
Ve
1.00000003e-07
5.88911455749488 154 11.778174593052
0 0

0101101
*
Ed
 1e-07 1 1 0
1  34 0 1.03065234911869 3.14159265358979
2  19 14 0 1.03065234911869 3.14159265358979
0

0101000
+115 15 -113 15 *
Ve
1.6140898903e-05
5.88911455749488 149.283009433972 1.77635683940025e-14
0 0

0101101
*
Ed
 1e-07 1 1 0
1  35 0 3.14159265358979 5.25253295806089
2  20 14 0 3.14159265358979 5.25253295806089
0

0101000
+113 15 -111 15 *
Ve
1.6140898903e-05
5.88911455749488 100.716990566028 7.105427357601e-15
0 0

0101101
*
Ed
 1.6140898903e-05 1 1 0
1  36 0 100.716990566028 149.283009433972
0

0101000
+109 15 -111 15 *
Ve
1.00000003e-07
5.88911455749488 96 11.778174593052
0 0

0101101
*
Ed
 1e-07 1 1 0
1  37 0 1.03065234911869 3.14159265358979
2  21 15 0 1.03065234911869 3.14159265358979
0

0101000
+109 15 -107 15 *
Ve
1.6140898903e-05
5.88911455749488 91.2830094339717 7.105427357601e-15
0 0

0101101
*
Ed
 1e-07 1 1 0
1  38 0 3.14159265358979 5.25253295806089
2  22 15 0 3.14159265358979 5.25253295806089
0

0101000
+107 15 -105 15 *
Ve
1.6140898903e-05
5.88911455749488 3.99680288865056e-15 -1.4210854715202e-14
0 0

0101101
*
Ed
 1.6140898903e-05 1 1 0
1  39 0 0 91.2830094339717
0

0101000
+103 15 -105 15 *
Ed
 1.6140898903e-05 1 1 0
1  40 0 0 18
0

0101000
+157 15 -103 15 *
Wi

0101100
-153 0 -116 0 +114 0 -112 0 -110 0 +108 0 -106 0 -104 0 +102 0 +101 0 
*
Fa
0  1e-07 13 0

0111000
+100 0 *
Ve
1.6140898903e-05
9.88911455749488 148.5 -7.105427357601e-14
0 0

0101101
*
Ed
 1.6140898903e-05 1 1 0
1  41 0 1.5707963267949 2.1109403044711
2  23 14 0 1.5707963267949 2.1109403044711
0

0101000
+98 15 -111 15 *
Ve
1.6140898903e-05
17.6672891505469 154 1.77635683940025e-14
0 0

0101101
*
Ed
 1.6140898903e-05 1 1 0
1  42 0 0 1.5707963267949
2  24 14 12 0 1.5707963267949
0

0101000
+96 23 -98 23 *
Ve
1.6140898903e-05
9.88911455749488 159.5 -7.105427357601e-14
0 0

0101101
*
Ed
 1.6140898903e-05 1 1 0
1  43 0 4.71238898038469 6.28318530717959
2  25 14 12 4.71238898038469 6.28318530717959
0

0101000
+94 23 -96 23 *
Ed
 1.6140898903e-05 1 1 0
1  44 0 4.17224500270849 4.71238898038469
2  26 14 0 4.17224500270849 4.71238898038469
0

0101000
+115 15 -94 15 *
Wi

0101100
-97 0 -95 11 -93 11 -92 0 +112 0 +110 0 *
Fa
0  1e-07 14 0

0111000
+91 0 *
Ve
1.6140898903e-05
9.88911455749488 90.5 -8.17124146124115e-14
0 0

0101101
*
Ed
 1.6140898903e-05 1 1 0
1  45 0 1.5707963267949 2.1109403044711
2  27 15 0 1.5707963267949 2.1109403044711
0

0101000
+89 15 -105 15 *
Ve
1.6140898903e-05
17.6672891505469 96 3.5527136788005e-15
0 0

0101101
*
Ed
 1.6140898903e-05 1 1 0
1  46 0 0 1.5707963267949
2  28 15 12 0 1.5707963267949
0

0101000
+87 23 -89 23 *
Ve
1.6140898903e-05
9.88911455749488 101.5 -8.5265128291212e-14
0 0

0101101
*
Ed
 1.6140898903e-05 1 1 0
1  47 0 4.71238898038469 6.28318530717959
2  29 15 12 4.71238898038469 6.28318530717959
0

0101000
+85 23 -87 23 *
Ed
 1.6140898903e-05 1 1 0
1  48 0 4.17224500270849 4.71238898038469
2  30 15 0 4.17224500270849 4.71238898038469
0

0101000
+109 15 -85 15 *
Wi

0101100
-88 0 -86 11 -84 11 -83 0 +106 0 +104 0 *
Fa
0  1e-07 15 0

0111000
+82 0 *
Ve
1.50000057e-07
150.639114557495 357.159375 6.3948846218409e-14
0 0

0101101
*
Ed
 1e-07 1 1 0
1  49 0 1 19
0

0101000
+151 18 -80 18 *
Ve
1.50000057e-07
461.789114557495 357.159375 6.3948846218409e-14
0 0

0101101
*
Ed
 1.5e-07 1 1 0
1  50 0 63.2125 374.3625
0

0101000
+80 18 -78 18 *
Ed
 1e-07 1 1 0
1  51 0 1 19
0

0101000
+150 18 -78 18 *
Wi

0101100
-79 0 -77 0 +76 0 +149 0 *
Fa
0  1e-07 16 0

0111000
+75 0 *
Ve
1.5e-07
150.639114557495 92.840625 7.105427357601e-15
0 0

0101101
*
Ed
 1.5e-07 1 1 0
1  52 0 -310.7390625 -46.4203125
0

0101000
+80 18 -73 18 *
Ed
 1e-07 1 1 0
1  53 0 1 19
0

0101000
+146 18 -73 18 *
Wi

0101100
-79 0 -72 0 +71 0 +144 0 *
Fa
0  1e-07 17 0

0111000
+70 0 *
Ve
1.50000057e-07
461.789114557495 92.840625 7.105427357601e-15
0 0

0101101
*
Ed
 1.5e-07 1 1 0
1  54 0 -310.7390625 -46.4203125
0

0101000
+78 18 -68 18 *
Ed
 1e-07 1 1 0
1  55 0 1 19
0

0101000
+148 18 -68 18 *
Wi

0101100
-76 0 -67 0 +66 0 +147 0 *
Fa
0  1e-07 18 0

0111000
+65 0 *
Ed
 1.5e-07 1 1 0
1  56 0 63.2125 374.3625
0

0101000
+73 18 -68 18 *
Wi

0101100
-71 0 -63 0 +66 0 +145 0 *
Fa
0  1e-07 19 0

0111000
+62 0 *
Ve
1e-07
540.539114557495 222.7 3.5527136788005e-14
0 0

0101101
*
Ed
 1e-07 1 1 0
1  57 0 0 6.28318530717959
2  31 5 0 0 6.28318530717959
0

0101100
+60 20 -60 20 *
Ed
 1e-07 1 1 0
1  58 0 1 19
3  32 33CN 5 0 1 19
0

0101000
+142 20 -60 20 *
Wi

0101100
-59 0 +58 0 +141 0 -58 0 *
Fa
0  1e-07 5 0

0111000
+57 0 *
Ve
1.00000014e-07
81.8891145574949 322.7 5.6843418860808e-14
0 0

0101101
*
Ed
 1e-07 1 1 0
1  59 0 0 6.28318530717959
2  34 6 0 0 6.28318530717959
0

0101100
+55 22 -55 22 *
Ed
 1e-07 1 1 0
1  60 0 1 19
3  35 36CN 6 0 1 19
0

0101000
+139 22 -55 22 *
Wi

0101100
-54 0 +53 0 +138 0 -53 0 *
Fa
0  1e-07 6 0

0111000
+52 0 *
Ve
1.00000014e-07
81.8891145574949 272.7 4.61852778244065e-14
0 0

0101101
*
Ed
 1e-07 1 1 0
1  61 0 0 6.28318530717959
2  37 7 0 0 6.28318530717959
0

0101100
+50 22 -50 22 *
Ed
 1e-07 1 1 0
1  62 0 1 19
3  38 39CN 7 0 1 19
0

0101000
+136 22 -50 22 *
Wi

0101100
-49 0 +48 0 +135 0 -48 0 *
Fa
0  1e-07 7 0

0111000
+47 0 *
Ve
1e-07
81.8891145574949 222.7 3.5527136788005e-14
0 0

0101101
*
Ed
 1e-07 1 1 0
1  63 0 0 6.28318530717959
2  40 8 0 0 6.28318530717959
0

0101100
+45 22 -45 22 *
Ed
 1e-07 1 1 0
1  64 0 1 19
3  41 42CN 8 0 1 19
0

0101000
+133 22 -45 22 *
Wi

0101100
-44 0 +43 0 +132 0 -43 0 *
Fa
0  1e-07 8 0

0111000
+42 0 *
Ve
1e-07
142.701614557495 228.571875 3.5527136788005e-14
0 0

0101101
*
Ed
 1e-07 1 1 0
1  65 0 0 6.28318530717959
2  43 9 0 0 6.28318530717959
0

0101100
+40 18 -40 18 *
Ed
 1e-07 1 1 0
1  66 0 1 19
3  44 45CN 9 0 1 19
0

0101000
+130 18 -40 18 *
Wi

0101100
-39 0 +38 0 +129 0 -38 0 *
Fa
0  1e-07 9 0

0111000
+37 0 *
Ve
1e-07
306.214114557495 88.475 7.105427357601e-15
0 0

0101101
*
Ed
 1e-07 1 1 0
1  67 0 0 6.28318530717959
2  46 10 0 0 6.28318530717959
0

0101100
+35 18 -35 18 *
Ed
 1e-07 1 1 0
1  68 0 1 19
3  47 48CN 10 0 1 19
0

0101000
+127 18 -35 18 *
Wi

0101100
-34 0 +33 0 +126 0 -33 0 *
Fa
0  1e-07 10 0

0111000
+32 0 *
Ve
1e-07
469.726614557495 228.571875 3.5527136788005e-14
0 0

0101101
*
Ed
 1e-07 1 1 0
1  69 0 0 6.28318530717959
2  49 11 0 0 6.28318530717959
0

0101100
+30 18 -30 18 *
Ed
 1e-07 1 1 0
1  70 0 1 19
3  50 51CN 11 0 1 19
0

0101000
+124 18 -30 18 *
Wi

0101100
-29 0 +28 0 +123 0 -28 0 *
Fa
0  1e-07 11 0

0111000
+27 0 *
Ve
1e-07
306.214114557495 368.66875 6.75015598972095e-14
0 0

0101101
*
Ed
 1e-07 1 1 0
1  71 0 0 6.28318530717959
2  52 12 0 0 6.28318530717959
0

0101100
+25 18 -25 18 *
Ed
 1e-07 1 1 0
1  72 0 1 19
3  53 54CN 12 0 1 19
0

0101000
+121 18 -25 18 *
Wi

0101100
-24 0 +23 0 +120 0 -23 0 *
Fa
0  1e-07 12 0

0111000
+22 0 *
Ed
 1e-07 1 1 0
1  73 0 -568 32.6500000000001
0

0101000
+103 14 -176 14 *
Wi

0101000
+156 0 +101 4 +20 0 -174 7 *
Fa
0  1.6140898903e-05 20 0

0111000
+19 0 *
Ed
 1e-07 1 1 0
1  74 0 -28.65 572
0

0101000
+117 14 -190 14 *
Wi

0101000
-116 4 +154 0 +189 7 -17 0 *
Fa
0  1.6140898903e-05 21 0

0111000
+16 0 *
Wi

0101000
+114 4 +17 0 -187 7 -170 7 -168 24 -167 7 -181 7 -163 7 -161 24 -160 7 
-175 7 -20 0 +102 4 -88 4 -86 25 -84 25 -83 4 +108 4 -97 4 -95 25 
-93 25 -92 4 *
Wi

0101100
-77 17 +72 17 +63 17 -67 17 *
Wi

0101100
-59 19 *
Wi

0101100
-44 21 *
Wi

0101100
-49 21 *
Wi

0101100
-54 21 *
Wi

0101100
-39 17 *
Wi

0101100
-34 17 *
Wi

0101100
-29 17 *
Wi

0101100
-24 17 *
Fa
0  1.6140898903e-05 22 0

0111000
+14 0 +13 0 +12 0 +11 0 +10 0 +9 0 +8 0 +7 0 +6 0 +5 0 
*
Sh

0101000
+172 7 -165 7 -158 7 +118 0 -99 4 -90 4 -81 4 -74 17 +69 17 -64 17 
+61 17 -56 19 -51 21 -46 21 -41 21 -36 17 -31 17 -26 17 -21 17 +18 0 
+15 0 +4 0 *
So

0100000
+3 0 *
Co

1100000
+2 0 *

+1 3 