DBRep_DrawableShape

CASCADE Topology V1, (c) Matra-Datavision
Locations 54
1
              1               0               0               0 
              0               1               0               0 
              0               0               1               0 
1
              1               0               0               0 
              0               1               0               0 
              0               0               1               0 
2  1 1 2 1 0
1
              1               0               0               0 
              0               1               0               0 
              0               0               1               0 
2  1 -1 4 -1 0
1
              1               0               0               0 
              0               1               0               0 
              0               0               1               0 
1
              1               0               0               0 
              0               1               0               0 
              0               0               1               0 
1
              1               0               0               0 
              0               1               0               0 
              0               0               1               0 
2  6 1 7 1 8 1 0
2  8 -1 7 -1 6 -1 0
2  1 -1 4 -1 8 -1 7 -1 6 -1 0
2  6 1 7 1 8 1 4 1 0
2  1 -1 0
1
              1               0               0          14.325 
              0               1               0               0 
              0               0               1               0 
1
              1               0               0          14.325 
              0               1               0               0 
              0               0               1               0 
2  4 1 14 1 15 1 0
2  1 -1 15 -1 14 -1 4 -1 0
2  6 1 7 1 8 1 4 1 14 1 15 1 0
2  1 -1 15 -1 14 -1 4 -1 8 -1 7 -1 6 -1 0
2  1 -1 15 -1 0
2  7 1 8 1 4 1 14 1 0
2  1 -1 14 -1 4 -1 8 -1 7 -1 0
2  7 1 8 1 4 1 0
2  1 -1 4 -1 8 -1 7 -1 0
2  7 1 8 1 4 1 14 1 15 1 0
2  1 -1 15 -1 14 -1 4 -1 8 -1 7 -1 0
2  8 1 4 1 14 1 15 1 0
2  1 -1 15 -1 14 -1 4 -1 8 -1 0
2  14 -1 4 -1 8 -1 0
2  8 1 4 1 0
2  1 -1 4 -1 8 -1 0
2  4 -1 8 -1 0
1
              1               0               0               0 
              0               1               0               0 
              0               0               1               0 
1
              1               0               0               0 
              0               1               0             -12 
              0               0               1               0 
1
              1               0               0               0 
              0               0               1           897.1 
              0              -1               0          1657.1 
1
              1               0               0               0 
              0               1               0               9 
              0               0               1               6 
1
              1               0               0          14.325 
              0               1               0               0 
              0               0               1               0 
2  33 1 34 1 35 1 36 1 8 1 4 1 14 1 37 1 0
2  33 1 34 1 35 1 36 1 8 1 4 1 14 1 15 1 0
2  1 -1 15 -1 14 -1 4 -1 8 -1 36 -1 35 -1 34 -1 33 -1 0
2  33 1 34 1 35 1 36 1 0
2  15 -1 14 -1 4 -1 8 -1 0
2  8 1 4 1 14 1 0
2  1 -1 14 -1 4 -1 8 -1 0
1
              1               0               0               0 
              0               1               0               0 
              0               0               1               0 
1
              1               0               0               0 
              0               1               0             -12 
              0               0               1               0 
2  45 1 46 1 0
1
              1               0               0               0 
              0               1               0               0 
              0               0               1               0 
1
              1               0               0               0 
              0               1               0             -12 
              0               0               1               0 
2  48 1 49 1 0
2  1 -1 14 -1 4 -1 8 -1 46 -1 45 -1 0
2  45 1 46 1 8 1 4 1 14 1 0
2  1 -1 14 -1 4 -1 8 -1 49 -1 48 -1 0
2  48 1 49 1 8 1 4 1 14 1 0
Curve2ds 86
7 0 0  3 25 23  1.030652349118671 32.62741699796959  1.0946202371329463 32.3258698459519  1.2225560131614928 31.687301996025425  1.4144596772043128 30.660638594364244  1.606363341247143 29.602202210318502  1.7982670052900074 28.551027771077141  1.9901706693327883 27.545661252883654  2.1820743333756445 26.623026408206968  2.3739779974184647 25.81699360468793  2.5658816614613191 25.157156544051432  2.7577853255041265 24.667740331545179  2.9496889895469631 24.366713525456046  3.1415926535897927 24.265128047107037  3.3334963176326236 24.366713525456039  3.5253999816754602 24.66774033154519  3.7173036457182649 25.157156544051425  3.9092073097611224 25.816993604687934  4.1011109738039435 26.623026408206982  4.2930146378467899 27.545661252883612  4.4849183018896133 28.55102777107734  4.6768219659324348 29.602202210318445  4.868725629975275 30.660638594364251  5.0606292940180939 31.687301996025425  5.188565070046641 32.3258698459519  5.2525329580609155 32.62741699796959 
 1.0306523491186923 4 1.2225560131615196 1 1.414459677204347 1 1.6063633412471745 1 1.7982670052900018 1 1.9901706693328292 1 2.1820743333756565 1 2.3739779974184838 1 2.5658816614613111 1 2.7577853255041385 1 2.9496889895469658 1 3.1415926535897931 1 3.3334963176326209 1 3.5253999816754478 1 3.7173036457182755 1 3.9092073097611024 1 4.1011109738039302 1 4.2930146378467571 1 4.4849183018895848 1 4.6768219659324117 1 4.8687256299752395 1 5.0606292940180664 1 5.2525329580608942 4
7 0 0  3 25 23  1.030652349118671 32.62741699796959  1.0946202371329459 32.3258698459519  1.2225560131614921 31.687301996025425  1.4144596772043128 30.660638594364244  1.606363341247143 29.602202210318502  1.7982670052900074 28.551027771077141  1.9901706693327876 27.545661252883654  2.1820743333756445 26.623026408206968  2.3739779974184638 25.81699360468793  2.5658816614613205 25.157156544051432  2.7577853255041265 24.667740331545179  2.9496889895469631 24.366713525456046  3.1415926535897927 24.265128047107037  3.3334963176326236 24.366713525456039  3.5253999816754602 24.66774033154519  3.7173036457182649 25.157156544051425  3.9092073097611224 25.816993604687934  4.1011109738039435 26.623026408206982  4.2930146378467899 27.545661252883612  4.4849183018896133 28.55102777107734  4.6768219659324348 29.602202210318445  4.868725629975275 30.660638594364251  5.0606292940180939 31.687301996025425  5.188565070046641 32.3258698459519  5.2525329580609155 32.62741699796959 
 1.0306523491186923 4 1.2225560131615196 1 1.414459677204347 1 1.6063633412471745 1 1.7982670052900018 1 1.9901706693328292 1 2.1820743333756565 1 2.3739779974184838 1 2.5658816614613111 1 2.7577853255041385 1 2.9496889895469658 1 3.1415926535897931 1 3.3334963176326209 1 3.5253999816754478 1 3.7173036457182755 1 3.9092073097611024 1 4.1011109738039302 1 4.2930146378467571 1 4.4849183018895848 1 4.6768219659324117 1 4.8687256299752395 1 5.0606292940180664 1 5.2525329580608942 4
7 0 0  3 25 23  5.2525329580609164 32.62741699796959  5.2443489583991596 32.66602076577  5.2279809590756416 32.743796937523072  5.2034289600903447 32.862095710431404  5.1788769611050771 32.981957978708714  5.1543249621197695 33.103311416006598  5.1297729631345002 33.226082894679692  5.105220964149229 33.350198406195133  5.0806689651639276 33.475583138879699  5.0561169661786591 33.602161514134245  5.0315649671933595 33.729857234370769  5.0070129682080786 33.858593328363504  4.9824609692228083 33.988292197816563  4.9579089702375247 34.118875664091988  4.933356971252242 34.250265015345519  4.9088049722669576 34.382381053968167  4.8842529732816695 34.515144144327735  4.8597009742963939 34.648474260759926  4.8351489753111299 34.782291035844978  4.8105969763258214 34.916513808704678  4.7860449773405467 35.051061674166952  4.7614929783552675 35.185853529498317  4.736940979369991 35.320808130888302  4.7205729800464704 35.410832119670388  4.7123889803847101 35.455844122715803 
 4.1722450027084781 4 4.1967970016937608 1 4.2213490006790426 1 4.2459009996643253 1 4.2704529986496071 1 4.2950049976348899 1 4.3195569966201726 1 4.3441089956054544 1 4.3686609945907371 1 4.3932129935760189 1 4.4177649925613016 1 4.4423169915465834 1 4.4668689905318661 1 4.4914209895171489 1 4.5159729885024307 1 4.5405249874877134 1 4.5650769864729952 1 4.5896289854582779 1 4.6141809844435606 1 4.6387329834288424 1 4.6632849824141251 1 4.687836981399407 1 4.7123889803846897 4
7 0 0  3 25 23  4.7123889803847101 35.455844122715803  4.6647890916939536 35.717675932072765  4.5695893143124398 36.241225139068554  4.4267896482401685 37.01065251446434  4.2839899821679186 37.748403915136464  4.1411903160956554 38.439491990346973  3.9983906500233841 39.069839835805141  3.8555909839511218 39.626617622921898  3.7127913178788572 40.098490362492726  3.5699916518065868 40.47585224683101  3.427191985734324 40.751021233177418  3.2843923196620533 40.918395686032888  3.1415926535897922 40.974568341057257  2.9987929875175321 40.918395686032888  2.8559933214452631 40.751021233177418  2.7131936553729998 40.47585224683101  2.5703939893007255 40.098490362492711  2.4275943232284676 39.626617622921913  2.284794657156195 39.069839835805084  2.1419949910839593 38.439491990347172  1.9991953250116612 37.748403915136414  1.8563956589394193 37.010652514464347  1.7135959928671458 36.241225139068561  1.6183962154856324 35.717675932072765  1.5707963267948759 35.455844122715803 
 4.7123889803846897 4 4.8551886464569529 1 4.9979883125292162 1 5.1407879786014794 1 5.2835876446737426 1 5.4263873107460068 1 5.5691869768182691 1 5.7119866428905333 1 5.8547863089627965 1 5.9975859750350597 1 6.140385641107323 1 6.2831853071795862 1 6.4259849732518495 1 6.5687846393241127 1 6.711584305396376 1 6.8543839714686392 1 6.9971836375409033 1 7.1399833036131657 1 7.2827829696854298 1 7.4255826357576931 1 7.5683823018299563 1 7.7111819679022195 1 7.8539816339744828 4
7 0 0  3 25 23  1.5707963267948759 35.455844122715803  1.5626123271331145 35.410832119670388  1.5462443278095943 35.32080813088831  1.5216923288243187 35.185853529498331  1.4971403298390396 35.051061674166952  1.4725883308537644 34.916513808704671  1.4480363318684573 34.782291035844985  1.423484332883191 34.648474260759933  1.3989323338979158 34.515144144327742  1.3743803349126267 34.382381053968174  1.3498283359273435 34.250265015345519  1.3252763369420626 34.118875664091995  1.3007243379567763 33.988292197816556  1.2761723389715087 33.858593328363519  1.2516203399862251 33.729857234370769  1.2270683410009287 33.602161514134245  1.2025163420156582 33.475583138879706  1.177964343030357 33.350198406195148  1.1534123440450859 33.226082894679685  1.1288603450598147 33.103311416006584  1.10430834607451 32.981957978708721  1.0797563470892397 32.862095710431397  1.055204348103947 32.743796937523072  1.0388363487804264 32.66602076577  1.030652349118669 32.62741699796959 
 1.5707963267948966 4 1.5953483257801788 1 1.6199003247654613 1 1.6444523237507436 1 1.6690043227360258 1 1.6935563217213083 1 1.7181083207065906 1 1.7426603196918729 1 1.7672123186771553 1 1.7917643176624376 1 1.8163163166477201 1 1.8408683156330024 1 1.8654203146182846 1 1.8899723136035671 1 1.9145243125888494 1 1.9390763115741319 1 1.9636283105594141 1 1.9881803095446964 1 2.0127323085299786 1 2.0372843075152609 1 2.0618363065005436 1 2.0863883054858259 1 2.1109403044711081 4
7 0 0  3 25 23  5.2525329580609164 32.62741699796959  5.2443489583991596 32.66602076577  5.2279809590756416 32.743796937523072  5.2034289600903447 32.862095710431404  5.1788769611050771 32.981957978708714  5.1543249621197695 33.103311416006598  5.1297729631345002 33.226082894679692  5.105220964149229 33.350198406195133  5.0806689651639276 33.475583138879699  5.0561169661786591 33.602161514134245  5.0315649671933595 33.729857234370769  5.0070129682080786 33.858593328363504  4.9824609692228083 33.988292197816563  4.9579089702375247 34.118875664091988  4.933356971252242 34.250265015345519  4.9088049722669576 34.382381053968167  4.8842529732816695 34.515144144327735  4.8597009742963939 34.648474260759926  4.8351489753111299 34.782291035844978  4.8105969763258214 34.916513808704678  4.7860449773405467 35.051061674166952  4.7614929783552675 35.185853529498317  4.736940979369991 35.320808130888302  4.7205729800464704 35.410832119670388  4.7123889803847101 35.455844122715803 
 4.1722450027084781 4 4.1967970016937608 1 4.2213490006790426 1 4.2459009996643253 1 4.2704529986496071 1 4.2950049976348899 1 4.3195569966201726 1 4.3441089956054544 1 4.3686609945907371 1 4.3932129935760189 1 4.4177649925613016 1 4.4423169915465834 1 4.4668689905318661 1 4.4914209895171489 1 4.5159729885024307 1 4.5405249874877134 1 4.5650769864729952 1 4.5896289854582779 1 4.6141809844435606 1 4.6387329834288424 1 4.6632849824141251 1 4.687836981399407 1 4.7123889803846897 4
7 0 0  3 25 23  4.7123889803847101 35.455844122715803  4.6647890916939536 35.717675932072765  4.5695893143124398 36.241225139068554  4.4267896482401685 37.01065251446434  4.2839899821679186 37.748403915136464  4.1411903160956554 38.439491990346973  3.9983906500233841 39.069839835805141  3.8555909839511218 39.626617622921898  3.7127913178788572 40.098490362492726  3.5699916518065868 40.47585224683101  3.427191985734324 40.751021233177418  3.2843923196620533 40.918395686032888  3.1415926535897927 40.974568341057257  2.9987929875175316 40.918395686032888  2.8559933214452644 40.751021233177418  2.7131936553729994 40.47585224683101  2.5703939893007268 40.098490362492711  2.4275943232284676 39.626617622921913  2.284794657156195 39.069839835805084  2.1419949910839593 38.439491990347172  1.9991953250116612 37.748403915136414  1.8563956589394193 37.010652514464347  1.7135959928671458 36.241225139068561  1.6183962154856324 35.717675932072765  1.5707963267948759 35.455844122715803 
 4.7123889803846897 4 4.8551886464569529 1 4.9979883125292162 1 5.1407879786014794 1 5.2835876446737426 1 5.4263873107460068 1 5.5691869768182691 1 5.7119866428905333 1 5.8547863089627965 1 5.9975859750350597 1 6.140385641107323 1 6.2831853071795862 1 6.4259849732518495 1 6.5687846393241127 1 6.711584305396376 1 6.8543839714686392 1 6.9971836375409033 1 7.1399833036131657 1 7.2827829696854298 1 7.4255826357576931 1 7.5683823018299563 1 7.7111819679022195 1 7.8539816339744828 4
7 0 0  3 25 23  1.5707963267948759 35.455844122715803  1.5626123271331145 35.410832119670388  1.5462443278095943 35.32080813088831  1.5216923288243187 35.185853529498331  1.4971403298390396 35.051061674166952  1.4725883308537644 34.916513808704671  1.4480363318684568 34.782291035844985  1.423484332883191 34.648474260759933  1.398932333897916 34.515144144327742  1.3743803349126262 34.382381053968174  1.3498283359273435 34.250265015345519  1.325276336942063 34.118875664091995  1.3007243379567763 33.988292197816556  1.2761723389715078 33.858593328363519  1.2516203399862262 33.729857234370769  1.2270683410009275 33.602161514134245  1.2025163420156582 33.475583138879706  1.1779643430303577 33.350198406195148  1.1534123440450859 33.226082894679685  1.1288603450598147 33.103311416006584  1.1043083460745104 32.981957978708721  1.0797563470892404 32.862095710431397  1.055204348103947 32.743796937523072  1.0388363487804264 32.66602076577  1.0306523491186697 32.62741699796959 
 1.5707963267948966 4 1.5953483257801788 1 1.6199003247654613 1 1.6444523237507436 1 1.6690043227360258 1 1.6935563217213083 1 1.7181083207065906 1 1.7426603196918729 1 1.7672123186771553 1 1.7917643176624376 1 1.8163163166477201 1 1.8408683156330024 1 1.8654203146182846 1 1.8899723136035671 1 1.9145243125888494 1 1.9390763115741319 1 1.9636283105594141 1 1.9881803095446964 1 2.0127323085299786 1 2.0372843075152609 1 2.0618363065005436 1 2.0863883054858259 1 2.1109403044711081 4
7 0 0  3 25 23  2.1109403044711263 32.627416997969704  2.102756304809358 32.66602076577005  2.0863883054858339 32.743796937523051  2.0618363065005636 32.862095710431397  2.0372843075152631 32.981957978708749  2.0127323085299995 33.10331141600647  1.9881803095447068 33.226082894679486  1.963628310559421 33.350198406195418  1.9390763115741407 33.475583138879479  1.9145243125888598 33.602161514134181  1.8899723136035858 33.729857234370584  1.8654203146182811 33.858593328363611  1.8408683156330183 33.988292197816342  1.816316316647729 34.118875664092087  1.7917643176624549 34.250265015345313  1.7672123186771451 34.382381053968224  1.7426603196918966 34.515144144327728  1.7181083207066075 34.648474260759926  1.6935563217212961 34.782291035844992  1.6690043227360596 34.916513808704622  1.6444523237507314 35.051061674167165  1.6199003247654711 35.185853529498189  1.5953483257801737 35.320808130888615  1.5789803264566578 35.410832119670665  1.570796326794907 35.455844122715916 
 4.172245002708471 4 4.1967970016937537 1 4.2213490006790364 1 4.2459009996643191 1 4.2704529986496018 1 4.2950049976348845 1 4.3195569966201672 1 4.3441089956054499 1 4.3686609945907326 1 4.3932129935760154 1 4.4177649925612981 1 4.4423169915465799 1 4.4668689905318626 1 4.4914209895171453 1 4.515972988502428 1 4.5405249874877107 1 4.5650769864729934 1 4.5896289854582761 1 4.6141809844435588 1 4.6387329834288415 1 4.6632849824141243 1 4.687836981399407 1 4.7123889803846897 4
7 0 0  3 25 23  1.570796326794907 35.455844122715916  1.5469963824495236 35.586744835342493  1.4993964937587692 35.848542666111506  1.427996660722654 36.239241197465951  1.3565968276864953 36.625946943338803  1.2851969946503854 37.006690320723173  1.2137971616142369 37.379530885830192  1.1423973285780995 37.74256879902179  1.0709974955419881 38.093954083439812  0.99959766250585125 38.431896165275603  0.92819782946972262 38.754672967787258  0.85679799643358157 39.060639694744964  0.78539816339745461 39.348237209722953  0.71399833036131133 39.615999981814632  0.64259849732518981 39.862563553004648  0.57119866428906119 40.086671492965678  0.49979883125292002 40.287181794856423  0.42839899821679106 40.463072719624179  0.35699916518066355 40.61344790964106  0.28559933214452876 40.737541303098105  0.21419949910839586 40.834719743540099  0.14279966607226574 40.904491036085709  0.071399833036132829 40.946488430483313  0.023799944345377581 40.955855983770931  0 40.95584412271576 
 4.7123889803846897 4 4.7837888134208217 1 4.8551886464569529 1 4.926588479493085 1 4.9979883125292162 1 5.0693881455653482 1 5.1407879786014794 1 5.2121878116376115 1 5.2835876446737426 1 5.3549874777098747 1 5.4263873107460068 1 5.497787143782138 1 5.5691869768182691 1 5.6405868098544012 1 5.7119866428905333 1 5.7833864759266644 1 5.8547863089627965 1 5.9261861419989277 1 5.9975859750350597 1 6.0689858080711918 1 6.140385641107323 1 6.2117854741434542 1 6.2831853071795862 4
7 0 0  3 25 23  0 40.95584412271576  -0.023799944345379132 40.955855983770931  -0.071399833036132065 40.946488430483306  -0.14279966607226413 40.904491036085709  -0.21419949910839708 40.834719743540099  -0.28559933214452915 40.737541303098105  -0.35699916518066477 40.61344790964106  -0.42839899821679239 40.463072719624165  -0.49979883125292002 40.287181794856437  -0.57119866428906096 40.086671492965678  -0.64259849732518859 39.862563553004641  -0.71399833036131266 39.615999981814632  -0.7853981633974545 39.348237209722953  -0.85679799643358123 39.060639694744978  -0.92819782946972307 38.754672967787251  -0.99959766250585247 38.431896165275596  -1.070997495541989 38.093954083439826  -1.1423973285780997 37.742568799021782  -1.2137971616142353 37.379530885830199  -1.2851969946503852 37.006690320723173  -1.356596827686495 36.625946943338796  -1.4279966607226537 36.239241197465958  -1.499396493758768 35.848542666111506  -1.5469963824495236 35.586744835342493  -1.5707963267949072 35.455844122715916 
 0 4 0.071399833036131677 1 0.14279966607226335 1 0.21419949910839503 1 0.28559933214452671 1 0.35699916518065838 1 0.42839899821679006 1 0.49979883125292174 1 0.57119866428905341 1 0.64259849732518504 1 0.71399833036131677 1 0.7853981633974485 1 0.85679799643358012 1 0.92819782946971174 1 0.99959766250584348 1 1.0709974955419752 1 1.1423973285781068 1 1.2137971616142385 1 1.2851969946503701 1 1.3565968276865019 1 1.4279966607226335 1 1.4993964937587652 1 1.570796326794897 4
7 0 0  3 25 23  -1.5707963267949072 35.455844122715916  -1.5789803264566586 35.410832119670665  -1.595348325780173 35.320808130888615  -1.6199003247654726 35.185853529498189  -1.6444523237507314 35.051061674167165  -1.6690043227360594 34.916513808704615  -1.6935563217212977 34.782291035844999  -1.718108320706607 34.648474260759926  -1.7426603196918959 34.515144144327728  -1.7672123186771458 34.382381053968224  -1.7917643176624543 34.250265015345313  -1.8163163166477307 34.118875664092094  -1.8408683156330197 33.988292197816335  -1.8654203146182811 33.858593328363597  -1.889972313603586 33.729857234370598  -1.9145243125888598 33.602161514134174  -1.9390763115741416 33.475583138879479  -1.9636283105594217 33.350198406195425  -1.988180309544707 33.226082894679479  -2.0127323085299995 33.103311416006463  -2.0372843075152636 32.981957978708756  -2.0618363065005623 32.862095710431397  -2.0863883054858334 32.743796937523051  -2.1027563048093603 32.66602076577005  -2.1109403044711268 32.627416997969704 
 1.5707963267948966 4 1.5953483257801793 1 1.619900324765462 1 1.6444523237507445 1 1.6690043227360272 1 1.6935563217213099 1 1.7181083207065926 1 1.7426603196918753 1 1.7672123186771578 1 1.7917643176624405 1 1.8163163166477232 1 1.8408683156330059 1 1.8654203146182886 1 1.8899723136035713 1 1.914524312588854 1 1.9390763115741365 1 1.9636283105594192 1 1.9881803095447019 1 2.0127323085299844 1 2.0372843075152671 1 2.0618363065005498 1 2.0863883054858325 1 2.1109403044711152 4
7 0 0  3 25 23  2.1109403044711263 32.627416997969704  2.102756304809358 32.66602076577005  2.0863883054858339 32.743796937523051  2.061836306500564 32.862095710431397  2.0372843075152649 32.981957978708749  2.0127323085299991 33.10331141600647  1.9881803095447068 33.226082894679486  1.9636283105594214 33.350198406195418  1.9390763115741401 33.475583138879479  1.9145243125888598 33.602161514134181  1.8899723136035858 33.729857234370584  1.8654203146182811 33.858593328363611  1.8408683156330183 33.988292197816342  1.8163163166477292 34.118875664092087  1.7917643176624549 34.250265015345313  1.7672123186771451 34.382381053968224  1.7426603196918966 34.515144144327728  1.7181083207066075 34.648474260759926  1.6935563217212968 34.782291035844992  1.6690043227360589 34.916513808704622  1.6444523237507318 35.051061674167165  1.6199003247654711 35.185853529498189  1.5953483257801737 35.320808130888615  1.5789803264566578 35.410832119670665  1.570796326794907 35.455844122715916 
 4.172245002708471 4 4.1967970016937537 1 4.2213490006790364 1 4.2459009996643191 1 4.2704529986496018 1 4.2950049976348845 1 4.3195569966201672 1 4.3441089956054499 1 4.3686609945907326 1 4.3932129935760154 1 4.4177649925612981 1 4.4423169915465799 1 4.4668689905318626 1 4.4914209895171453 1 4.515972988502428 1 4.5405249874877107 1 4.5650769864729934 1 4.5896289854582761 1 4.6141809844435588 1 4.6387329834288415 1 4.6632849824141243 1 4.687836981399407 1 4.7123889803846897 4
7 0 0  3 25 23  1.570796326794907 35.455844122715916  1.5469963824495239 35.586744835342493  1.4993964937587689 35.848542666111506  1.4279966607226535 36.239241197465951  1.3565968276864961 36.625946943338803  1.2851969946503849 37.006690320723173  1.2137971616142369 37.379530885830192  1.1423973285780993 37.74256879902179  1.0709974955419894 38.093954083439812  0.99959766250585091 38.431896165275603  0.92819782946972262 38.754672967787258  0.85679799643358157 39.060639694744964  0.78539816339745461 39.348237209722953  0.71399833036131177 39.615999981814632  0.64259849732518826 39.862563553004648  0.57119866428906008 40.086671492965678  0.49979883125292024 40.287181794856423  0.42839899821679117 40.463072719624179  0.35699916518066316 40.61344790964106  0.28559933214453015 40.737541303098105  0.21419949910839794 40.834719743540099  0.14279966607226324 40.904491036085709  0.071399833036133217 40.946488430483313  0.023799944345378361 40.955855983770931  0 40.95584412271576 
 4.7123889803846897 4 4.7837888134208217 1 4.8551886464569529 1 4.926588479493085 1 4.9979883125292162 1 5.0693881455653482 1 5.1407879786014794 1 5.2121878116376115 1 5.2835876446737426 1 5.3549874777098747 1 5.4263873107460068 1 5.497787143782138 1 5.5691869768182691 1 5.6405868098544012 1 5.7119866428905333 1 5.7833864759266644 1 5.8547863089627965 1 5.9261861419989277 1 5.9975859750350597 1 6.0689858080711918 1 6.140385641107323 1 6.2117854741434542 1 6.2831853071795862 4
7 0 0  3 25 23  0 40.95584412271576  -0.023799944345379132 40.955855983770931  -0.071399833036132065 40.946488430483306  -0.14279966607226413 40.904491036085709  -0.21419949910839708 40.834719743540099  -0.28559933214452915 40.737541303098105  -0.35699916518066477 40.61344790964106  -0.42839899821679239 40.463072719624165  -0.49979883125292002 40.287181794856437  -0.57119866428906096 40.086671492965678  -0.64259849732518859 39.862563553004641  -0.71399833036131266 39.615999981814632  -0.7853981633974545 39.348237209722953  -0.85679799643358123 39.060639694744978  -0.92819782946972307 38.754672967787251  -0.99959766250585247 38.431896165275596  -1.070997495541989 38.093954083439826  -1.1423973285780997 37.742568799021782  -1.2137971616142353 37.379530885830199  -1.2851969946503852 37.006690320723173  -1.356596827686495 36.625946943338796  -1.4279966607226537 36.239241197465958  -1.499396493758768 35.848542666111506  -1.5469963824495236 35.586744835342493  -1.5707963267949072 35.455844122715916 
 0 4 0.071399833036131677 1 0.14279966607226335 1 0.21419949910839503 1 0.28559933214452671 1 0.35699916518065838 1 0.42839899821679006 1 0.49979883125292174 1 0.57119866428905341 1 0.64259849732518504 1 0.71399833036131677 1 0.7853981633974485 1 0.85679799643358012 1 0.92819782946971174 1 0.99959766250584348 1 1.0709974955419752 1 1.1423973285781068 1 1.2137971616142385 1 1.2851969946503701 1 1.3565968276865019 1 1.4279966607226335 1 1.4993964937587652 1 1.570796326794897 4
7 0 0  3 25 23  -1.5707963267949072 35.455844122715916  -1.5789803264566586 35.410832119670665  -1.595348325780173 35.320808130888615  -1.6199003247654726 35.185853529498189  -1.6444523237507314 35.051061674167165  -1.6690043227360594 34.916513808704615  -1.6935563217212977 34.782291035844999  -1.718108320706607 34.648474260759926  -1.7426603196918959 34.515144144327728  -1.7672123186771458 34.382381053968224  -1.7917643176624543 34.250265015345313  -1.8163163166477307 34.118875664092094  -1.8408683156330197 33.988292197816335  -1.8654203146182811 33.858593328363597  -1.889972313603586 33.729857234370598  -1.9145243125888598 33.602161514134174  -1.9390763115741416 33.475583138879479  -1.9636283105594217 33.350198406195425  -1.988180309544707 33.226082894679479  -2.0127323085299995 33.103311416006463  -2.0372843075152636 32.981957978708756  -2.0618363065005623 32.862095710431397  -2.0863883054858334 32.743796937523051  -2.1027563048093603 32.66602076577005  -2.1109403044711268 32.627416997969704 
 1.5707963267948966 4 1.5953483257801793 1 1.619900324765462 1 1.6444523237507445 1 1.6690043227360272 1 1.6935563217213099 1 1.7181083207065926 1 1.7426603196918753 1 1.7672123186771578 1 1.7917643176624405 1 1.8163163166477232 1 1.8408683156330059 1 1.8654203146182886 1 1.8899723136035713 1 1.914524312588854 1 1.9390763115741365 1 1.9636283105594192 1 1.9881803095447019 1 2.0127323085299844 1 2.0372843075152671 1 2.0618363065005498 1 2.0863883054858325 1 2.1109403044711152 4
1 0 1 1 0 
1 0 1 1 0 
1 0 1 1 0 
1 0 1 1 0 
1 0 1 1 0 
1 0 1 1 0 
1 0 1 1 0 
1 0 1 1 0 
1 0 1 1 0 
1 0 1 1 0 
1 0 1 1 0 
7 0 0  3 25 23  2.1109403044711224 32.627416997969704  2.046972416456847 32.32586984595207  1.9190366404283006 31.687301996025571  1.7271329763854808 30.660638594364165  1.5352293123426506 29.602202210318655  1.3433256482997855 28.55102777107728  1.1514219842570048 27.545661252883654  0.95951832021414818 26.623026408206833  0.76761465617132807 25.816993604687777  0.57571099212847432 25.157156544051485  0.38380732808566603 24.667740331545126  0.1919036640428306 24.366713525456198  -4.5999999999999998e-16 24.265128047107133  -0.19190366404282955 24.366713525456206  -0.38380732808566781 24.667740331545129  -0.57571099212847143 25.157156544051478  -0.76761465617132885 25.816993604687784  -0.9595183202141504 26.62302640820684  -1.1514219842569977 27.545661252883665  -1.3433256482998204 28.551027771077266  -1.5352293123426413 29.602202210318662  -1.727132976385483 30.660638594364158  -1.919036640428301 31.687301996025582  -2.046972416456847 32.32586984595207  -2.1109403044711224 32.627416997969704 
 1.0306523491186923 4 1.2225560131615196 1 1.414459677204347 1 1.6063633412471745 1 1.7982670052900018 1 1.9901706693328292 1 2.1820743333756565 1 2.3739779974184838 1 2.5658816614613111 1 2.7577853255041385 1 2.9496889895469658 1 3.1415926535897931 1 3.3334963176326209 1 3.5253999816754478 1 3.7173036457182755 1 3.9092073097611024 1 4.1011109738039302 1 4.2930146378467571 1 4.4849183018895848 1 4.6768219659324117 1 4.8687256299752395 1 5.0606292940180664 1 5.2525329580608942 4
7 0 0  3 25 23  2.1109403044711224 32.627416997969704  2.0469724164568475 32.32586984595207  1.9190366404283017 31.687301996025571  1.7271329763854804 30.660638594364165  1.5352293123426508 29.602202210318655  1.343325648299786 28.55102777107728  1.1514219842570057 27.545661252883654  0.95951832021414762 26.623026408206833  0.76761465617132874 25.816993604687777  0.57571099212847254 25.157156544051485  0.38380732808566648 24.667740331545126  0.19190366404283049 24.366713525456198  -4.2000000000000002e-16 24.265128047107133  -0.19190366404282955 24.366713525456206  -0.38380732808566781 24.667740331545129  -0.57571099212847143 25.157156544051478  -0.76761465617132885 25.816993604687784  -0.9595183202141504 26.62302640820684  -1.1514219842569977 27.545661252883665  -1.3433256482998204 28.551027771077266  -1.5352293123426413 29.602202210318662  -1.727132976385483 30.660638594364158  -1.919036640428301 31.687301996025582  -2.046972416456847 32.32586984595207  -2.1109403044711224 32.627416997969704 
 1.0306523491186923 4 1.2225560131615196 1 1.414459677204347 1 1.6063633412471745 1 1.7982670052900018 1 1.9901706693328292 1 2.1820743333756565 1 2.3739779974184838 1 2.5658816614613111 1 2.7577853255041385 1 2.9496889895469658 1 3.1415926535897931 1 3.3334963176326209 1 3.5253999816754478 1 3.7173036457182755 1 3.9092073097611024 1 4.1011109738039302 1 4.2930146378467571 1 4.4849183018895848 1 4.6768219659324117 1 4.8687256299752395 1 5.0606292940180664 1 5.2525329580608942 4
1 0 19 1 0 
1 6.2831853071795862 -0 0 1 
1 0 -0 0 1 
1 0 19 1 0 
1 6.2831853071795862 -0 0 1 
1 0 -0 0 1 
1 6.2831853071795862 -0 0 1 
1 0 0 0 1 
1 0 19 1 0 
1 4.7123889803846897 0 0 1 
1 0 19 1 0 
1 1.5707963267948966 0 0 1 
1 4.7123889803846897 0 0 1 
1 1.5707963267948966 0 0 1 
1 0 19 1 0 
1 3.1415926535897931 0 0 1 
1 0 19 1 0 
1 3.1415926535897931 0 0 1 
1 0 19 1 0 
1 6.2831853071795862 -0 0 1 
1 0 -0 0 1 
1 0 19 1 0 
1 6.2831853071795862 -0 0 1 
1 0 -0 0 1 
1 0 19 1 0 
1 6.2831853071795862 -0 0 1 
1 0 -0 0 1 
1 0 19 1 0 
1 6.2831853071795862 -0 0 1 
1 0 -0 0 1 
1 0 19 1 0 
1 6.2831853071795862 -0 0 1 
1 0 -0 0 1 
1 2.0466785764553124 0 0 1 
1 2.0466785764553124 0 0 1 
1 2.0313503184762149 0 0 1 
1 0 16 1 0 
1 0 0 1 0 
1 0 3 1 0 
1 0 3 1 0 
1 0 1 1 0 
1 0 1 1 0 
1 6.2831853071795862 -0 0 1 
1 0 -0 0 1 
1 6.2831853071795862 -0 0 1 
1 0 -0 0 1 
1 2.0313503184762149 0 0 1 
1 0 16 1 0 
1 0 0 1 0 
1 0 3 1 0 
1 0 3 1 0 
1 0 1 1 0 
1 0 1 1 0 
1 6.2831853071795862 -0 0 1 
1 0 -0 0 1 
1 6.2831853071795862 -0 0 1 
1 0 -0 0 1 
Curves 181
1 5.9130312233962812 596.90000000000032 -2.2737367544323206e-13 0 -1 1.6653345369377348e-16 
3 5.9130312233962812 532.90000000000032 3.9999999999997726 1 0 0 0 -1.6653345369377348e-16 -1 0 1 -1.6653345369377348e-16 7.7781745930520225 5.5
1 5.9130312233962812 596.90000000000032 -2.2737367544323206e-13 0 -1 1.6653345369377348e-16 
3 5.9130312233962812 474.90000000000032 3.9999999999997726 1 0 0 0 -1.6653345369377348e-16 -1 0 1 -1.6653345369377348e-16 7.7781745930520225 5.5
1 5.9130312233962812 596.90000000000032 -2.2737367544323206e-13 0 -1 1.6653345369377348e-16 
1 5.9130312233962812 3.4106051316484809e-13 -2.2737367544323206e-13 0 1.6653345369377348e-16 1 
1 5.9130312233962812 596.90000000000032 17.999999999999773 0 -1 1.6653345369377348e-16 
1 5.9130312233962812 596.90000000000032 -2.2737367544323206e-13 0 1.6653345369377348e-16 1 
3 9.913031223396338 532.90000000000032 -2.2737367544323206e-13 -0 1.6653345369377348e-16 1 1 0 0 0 1 -1.6653345369377348e-16 7.7781745930520225 5.5
3 9.913031223396338 532.90000000000032 -2.2737367544323206e-13 -0 1.6653345369377348e-16 1 1 0 0 0 1 -1.6653345369377348e-16 7.7781745930520225 5.5
3 9.913031223396338 532.90000000000032 -2.2737367544323206e-13 -0 1.6653345369377348e-16 1 1 0 0 0 1 -1.6653345369377348e-16 7.7781745930520225 5.5
3 9.913031223396338 474.90000000000032 -2.2737367544323206e-13 -0 1.6653345369377348e-16 1 1 0 0 0 1 -1.6653345369377348e-16 7.7781745930520225 5.5
3 9.913031223396338 474.90000000000032 -2.2737367544323206e-13 -0 1.6653345369377348e-16 1 1 0 0 0 1 -1.6653345369377348e-16 7.7781745930520225 5.5
3 9.913031223396338 474.90000000000032 -2.2737367544323206e-13 -0 1.6653345369377348e-16 1 1 0 0 0 1 -1.6653345369377348e-16 7.7781745930520225 5.5
1 5.9130312233962812 596.90000000000032 -2.2737367544323206e-13 1 0 0 
1 577.91303122339627 596.90000000000032 -2.2737367544323206e-13 0 -1 1.6653345369377348e-16 
3 573.91303122339616 532.90000000000032 -2.2737367544323206e-13 0 1.6653345369377348e-16 1 -1 -0 0 0 -1 1.6653345369377348e-16 7.7781745930520225 5.5
3 573.91303122339616 532.90000000000032 -2.2737367544323206e-13 0 1.6653345369377348e-16 1 -1 0 0 0 -1 1.6653345369377348e-16 7.7781745930520225 5.5
3 573.91303122339616 532.90000000000032 -2.2737367544323206e-13 0 1.6653345369377348e-16 1 -1 0 0 0 -1 1.6653345369377348e-16 7.7781745930520225 5.5
3 573.91303122339616 532.90000000000032 -2.2737367544323206e-13 0 1.6653345369377348e-16 1 -1 -0 0 0 -1 1.6653345369377348e-16 7.7781745930520225 5.5
1 577.91303122339627 596.90000000000032 -2.2737367544323206e-13 0 -1 1.6653345369377348e-16 
3 573.91303122339616 474.90000000000032 -2.2737367544323206e-13 0 1.6653345369377348e-16 1 -1 -0 0 0 -1 1.6653345369377348e-16 7.7781745930520225 5.5
3 573.91303122339616 474.90000000000032 -2.2737367544323206e-13 0 1.6653345369377348e-16 1 -1 0 0 0 -1 1.6653345369377348e-16 7.7781745930520225 5.5
3 573.91303122339616 474.90000000000032 -2.2737367544323206e-13 0 1.6653345369377348e-16 1 -1 0 0 0 -1 1.6653345369377348e-16 7.7781745930520225 5.5
3 573.91303122339616 474.90000000000032 -2.2737367544323206e-13 0 1.6653345369377348e-16 1 -1 -0 0 0 -1 1.6653345369377348e-16 7.7781745930520225 5.5
1 577.91303122339627 596.90000000000032 -2.2737367544323206e-13 0 -1 1.6653345369377348e-16 
1 602.56303122339637 3.4106051316484809e-13 -2.2737367544323206e-13 1 0 0 
1 51.413031223396281 212.90000000000032 -2.2737367544323206e-13 1 0 0 
1 505.23803122339632 570.40000000000032 -2.2737367544323206e-13 0 1 -1.6653345369377348e-16 
1 80.063031223396251 543.90000000000032 -2.2737367544323206e-13 1 0 0 
1 92.913031223396274 570.40000000000032 -2.2737367544323206e-13 0 1 -1.6653345369377348e-16 
2 221.91303122339627 96.900000000000318 -2.2737367544323206e-13 -0 1.6653345369377348e-16 1 0 -1 1.6653345369377348e-16 1 0 0 58
2 361.91303122339627 96.900000000000318 -2.2737367544323206e-13 -0 1.6653345369377348e-16 1 0 -1 1.6653345369377348e-16 1 0 0 58
1 42.913031223396281 142.90000000000032 -2.2737367544323206e-13 1 0 0 
2 97.913031223396274 145.90000000000032 -2.2737367544323206e-13 -0 1.6653345369377348e-16 1 0 -1 1.6653345369377348e-16 1 0 0 3
1 100.91303122339627 392.40000000000032 -2.2737367544323206e-13 0 1 -1.6653345369377348e-16 
2 97.913031223396274 187.90000000000032 -2.2737367544323206e-13 -0 1.6653345369377348e-16 1 0 -1 1.6653345369377348e-16 1 0 0 3
1 42.913031223396281 190.90000000000032 -2.2737367544323206e-13 1 0 0 
2 75.913031223396274 187.90000000000032 -2.2737367544323206e-13 -0 1.6653345369377348e-16 1 0 -1 1.6653345369377348e-16 1 0 0 3
1 72.913031223396274 392.40000000000032 -2.2737367544323206e-13 0 1 -1.6653345369377348e-16 
2 75.913031223396274 145.90000000000032 -2.2737367544323206e-13 -0 1.6653345369377348e-16 1 0 -1 1.6653345369377348e-16 1 0 0 3
2 521.91303122339627 166.90000000000032 -2.2737367544323206e-13 -0 1.6653345369377348e-16 1 0 -1 1.6653345369377348e-16 1 0 0 12
1 460.56303122339625 403.40000000000032 -2.2737367544323206e-13 0 1 -1.6653345369377348e-16 
1 249.56303122339625 209.90000000000032 -2.2737367544323206e-13 -1 0 0 
1 480.56303122339625 403.40000000000032 -2.2737367544323206e-13 0 1 -1.6653345369377348e-16 
1 249.56303122339625 211.90000000000032 -2.2737367544323206e-13 -1 0 0 
2 66.913031223396274 166.90000000000032 -2.2737367544323206e-13 -0 1.6653345369377348e-16 1 0 -1 1.6653345369377348e-16 1 0 0 2.25
2 106.91303122339627 166.90000000000032 -2.2737367544323206e-13 -0 1.6653345369377348e-16 1 0 -1 1.6653345369377348e-16 1 0 0 2.25
2 531.41303122339627 154.90000000000032 -2.2737367544323206e-13 -0 1.6653345369377348e-16 1 0 -1 1.6653345369377348e-16 1 0 0 1.6000000000000001
2 512.41303122339627 178.90000000000032 -2.2737367544323206e-13 -0 1.6653345369377348e-16 1 0 -1 1.6653345369377348e-16 1 0 0 1.6000000000000001
3 577.91303122339627 532.90000000000032 3.9999999999997726 1 0 0 0 -1.6653345369377348e-16 -1 0 1 -1.6653345369377348e-16 7.7781745930520225 5.5
3 577.91303122339627 474.90000000000032 3.9999999999997726 1 0 0 0 -1.6653345369377348e-16 -1 0 1 -1.6653345369377348e-16 7.7781745930520225 5.5
1 577.91303122339627 3.4106051316484809e-13 -2.2737367544323206e-13 0 1.6653345369377348e-16 1 
1 577.91303122339627 596.90000000000032 17.999999999999773 0 -1 1.6653345369377348e-16 
1 577.91303122339627 596.90000000000032 -2.2737367544323206e-13 0 1.6653345369377348e-16 1 
1 490.91303122339627 212.90000000000032 -5.0501898662237181 0 1.6653345369377348e-16 1 
1 505.23803122339632 570.40000000000032 17.999999999999773 0 1 -1.6653345369377348e-16 
1 490.91303122339627 543.90000000000032 -5.0501898662237181 0 1.6653345369377348e-16 1 
1 92.913031223396274 212.90000000000032 -5.0501898662237181 0 1.6653345369377348e-16 1 
1 92.913031223396274 570.40000000000032 17.999999999999773 0 1 -1.6653345369377348e-16 
1 92.913031223396274 543.90000000000032 -5.0501898662237181 0 1.6653345369377348e-16 1 
2 221.91303122339627 96.900000000000318 17.999999999999773 -0 1.6653345369377348e-16 1 0 -1 1.6653345369377348e-16 1 0 0 58
1 221.91303122339625 38.900000000000318 -1.0000000000002274 0 1.6653345369377348e-16 1 
2 361.91303122339627 96.900000000000318 17.999999999999773 -0 1.6653345369377348e-16 1 0 -1 1.6653345369377348e-16 1 0 0 58
1 361.91303122339627 38.900000000000318 -1.0000000000002274 0 1.6653345369377348e-16 1 
1 75.913031223396274 142.90000000000032 -1.0000000000002274 0 1.6653345369377348e-16 1 
1 42.913031223396281 142.90000000000032 17.999999999999773 1 0 0 
1 97.913031223396274 142.90000000000032 -1.0000000000002274 0 1.6653345369377348e-16 1 
2 75.913031223396274 145.90000000000032 17.999999999999773 -0 1.6653345369377348e-16 1 0 -1 1.6653345369377348e-16 1 0 0 3
1 72.913031223396274 145.90000000000032 -1.0000000000002274 0 1.6653345369377348e-16 1 
2 97.913031223396274 145.90000000000032 17.999999999999773 -0 1.6653345369377348e-16 1 0 -1 1.6653345369377348e-16 1 0 0 3
1 100.91303122339627 145.90000000000032 -1.0000000000002274 0 1.6653345369377348e-16 1 
1 72.913031223396274 392.40000000000032 17.999999999999773 0 1 -1.6653345369377348e-16 
1 72.913031223396274 187.90000000000032 -1.0000000000002274 0 1.6653345369377348e-16 1 
1 100.91303122339627 392.40000000000032 17.999999999999773 0 1 -1.6653345369377348e-16 
1 100.91303122339627 187.90000000000032 -1.0000000000002274 0 1.6653345369377348e-16 1 
2 75.913031223396274 187.90000000000032 17.999999999999773 -0 1.6653345369377348e-16 1 0 -1 1.6653345369377348e-16 1 0 0 3
1 75.913031223396274 190.90000000000032 -1.0000000000002274 0 1.6653345369377348e-16 1 
2 97.913031223396274 187.90000000000032 17.999999999999773 -0 1.6653345369377348e-16 1 0 -1 1.6653345369377348e-16 1 0 0 3
1 97.913031223396274 190.90000000000032 -1.0000000000002274 0 1.6653345369377348e-16 1 
1 42.913031223396281 190.90000000000032 17.999999999999773 1 0 0 
2 521.91303122339627 166.90000000000032 17.999999999999773 -0 1.6653345369377348e-16 1 0 -1 1.6653345369377348e-16 1 0 0 12
1 521.91303122339627 154.90000000000032 -1.0000000000002274 0 1.6653345369377348e-16 1 
1 431.91303122339627 1691.1000000000001 -696.19999999999936 0 -1 1.6653345369377348e-16 
1 431.91303122339627 1667.1000000000001 -696.19999999999936 0 1.6653345369377348e-16 1 
1 431.91303122339627 1691.1000000000001 -694.19999999999936 0 -1 1.6653345369377348e-16 
1 451.91303122339627 1691.1000000000001 -694.19999999999936 0 -1 1.6653345369377348e-16 
1 431.91303122339627 1667.1000000000001 -694.19999999999936 1 0 0 
1 451.91303122339627 1691.1000000000001 -696.19999999999936 0 -1 1.6653345369377348e-16 
1 451.91303122339627 1667.1000000000001 -696.19999999999936 0 1.6653345369377348e-16 1 
1 431.91303122339627 1667.1000000000001 -696.19999999999936 1 0 0 
2 66.913031223396274 166.90000000000032 17.999999999999773 -0 1.6653345369377348e-16 1 0 -1 1.6653345369377348e-16 1 0 0 2.25
1 66.913031223396274 164.65000000000032 -1.0000000000002274 0 1.6653345369377348e-16 1 
2 106.91303122339627 166.90000000000032 17.999999999999773 -0 1.6653345369377348e-16 1 0 -1 1.6653345369377348e-16 1 0 0 2.25
1 106.91303122339627 164.65000000000032 -1.0000000000002274 0 1.6653345369377348e-16 1 
2 531.41303122339627 154.90000000000032 17.999999999999773 -0 1.6653345369377348e-16 1 0 -1 1.6653345369377348e-16 1 0 0 1.6000000000000001
1 531.41303122339627 153.3000000000003 -1.0000000000002274 0 1.6653345369377348e-16 1 
2 512.41303122339627 178.90000000000032 17.999999999999773 -0 1.6653345369377348e-16 1 0 -1 1.6653345369377348e-16 1 0 0 1.6000000000000001
1 512.41303122339627 177.3000000000003 -1.0000000000002274 0 1.6653345369377348e-16 1 
1 620.56303122339637 3.4106051316484809e-13 17.999999999999773 -1 0 -0 
1 620.56303122339637 596.90000000000032 17.999999999999773 -1 0 -0 
1 51.413031223396281 543.90000000000032 17.999999999999773 1 0 0 
1 80.063031223396251 212.90000000000032 17.999999999999773 1 0 0 
1 219.91303122339625 575.01001679712272 17.999999999999773 0 1 -1.6653345369377348e-16 
1 90.913031223396274 544.90000000000032 17.999999999999773 1 0 0 
1 203.91303122339625 570.0537296850664 17.999999999999773 0 -1 1.6653345369377348e-16 
1 187.91303122339627 544.96155281280915 17.999999999999773 1 0 0 
1 187.91303122339625 570.0537296850664 17.999999999999773 0 1 -1.6653345369377348e-16 
1 90.913031223396274 544.90000000000032 17.999999999999773 1 0 0 
1 171.91303122339633 575.01001679712272 17.999999999999773 0 -1 1.6653345369377348e-16 
1 90.913031223396274 548.90000000000032 17.999999999999773 1 0 0 
1 411.91303122339627 575.01001679712272 17.999999999999773 0 1 -1.6653345369377348e-16 
1 186.91303122339627 544.90000000000032 17.999999999999773 1 0 0 
1 395.91303122339622 570.0537296850664 17.999999999999773 0 -1 1.6653345369377348e-16 
1 379.91303122339627 544.96155281280915 17.999999999999773 1 0 0 
1 379.91303122339622 570.0537296850664 17.999999999999773 0 1 -1.6653345369377348e-16 
1 186.91303122339627 544.90000000000032 17.999999999999773 1 0 0 
1 363.91303122339633 575.01001679712272 17.999999999999773 0 -1 1.6653345369377348e-16 
1 186.91303122339627 548.90000000000032 17.999999999999773 1 0 0 
1 219.91303122339627 558.90000000000032 5.9999999999997726 0 1.6653345369377348e-16 1 
1 219.91303122339627 560.90000000000032 7.9999999999997726 0 -1 1.6653345369377348e-16 
1 219.91303122339627 556.90000000000032 7.9999999999997726 0 1.6653345369377348e-16 1 
1 219.91303122339627 560.90000000000032 7.9999999999997726 0 1.6653345369377348e-16 1 
1 219.91303122339627 584.90000000000032 7.9999999999997726 0 -1 1.6653345369377348e-16 
1 219.91303122339627 584.90000000000032 5.9999999999997726 0 1.6653345369377348e-16 1 
1 219.91303122339627 584.90000000000032 5.9999999999997726 0 -1 1.6653345369377348e-16 
1 171.91303122339627 556.90000000000032 7.9999999999997726 0 1.6653345369377348e-16 1 
1 187.91303122339627 556.90000000000032 14.999999999999773 0 1.6653345369377348e-16 1 
1 187.91303122339627 556.90000000000032 17.968871125850455 1 0 0 
1 203.91303122339627 556.90000000000032 14.999999999999773 0 1.6653345369377348e-16 1 
1 171.91303122339627 556.90000000000032 7.9999999999997726 1 0 0 
1 171.91303122339627 560.90000000000032 7.9999999999997726 0 1.6653345369377348e-16 1 
1 171.91303122339627 560.90000000000032 7.9999999999997726 1 0 0 
2 203.91303122339627 554.90000000000032 21.999999999999773 1 0 0 0 -1 1.6653345369377348e-16 0 -1.6653345369377348e-16 -1 4.5
1 171.91303122339627 584.90000000000032 5.9999999999997726 0 -1 1.6653345369377348e-16 
1 171.91303122339627 584.90000000000032 5.9999999999997726 0 1.6653345369377348e-16 1 
1 171.91303122339627 584.90000000000032 7.9999999999997726 0 -1 1.6653345369377348e-16 
1 171.91303122339627 560.90000000000032 7.9999999999997726 0 -1 1.6653345369377348e-16 
1 171.91303122339627 558.90000000000032 5.9999999999997726 0 1.6653345369377348e-16 1 
2 187.91303122339627 554.90000000000032 21.999999999999773 1 0 0 0 -1 1.6653345369377348e-16 0 -1.6653345369377348e-16 -1 4.5
1 171.91303122339627 558.90000000000032 7.9999999999997726 1 0 0 
1 171.91303122339627 558.90000000000032 5.9999999999997726 1 0 0 
1 171.91303122339627 584.90000000000032 7.9999999999997726 1 0 0 
2 181.91303122339627 572.90000000000032 7.9999999999997726 -0 1.6653345369377348e-16 1 0 -1 1.6653345369377348e-16 1 0 0 2.25
2 209.91303122339627 572.90000000000032 7.9999999999997726 -0 1.6653345369377348e-16 1 0 -1 1.6653345369377348e-16 1 0 0 2.25
1 171.91303122339627 584.90000000000032 5.9999999999997726 1 0 0 
2 181.91303122339627 572.90000000000032 5.9999999999997726 -0 1.6653345369377348e-16 1 0 -1 1.6653345369377348e-16 1 0 0 2.25
2 209.91303122339627 572.90000000000032 5.9999999999997726 -0 1.6653345369377348e-16 1 0 -1 1.6653345369377348e-16 1 0 0 2.25
1 181.91303122339627 570.65000000000032 4.9999999999997726 0 1.6653345369377348e-16 1 
1 209.91303122339627 570.65000000000032 4.9999999999997726 0 1.6653345369377348e-16 1 
1 411.91303122339627 558.90000000000032 5.9999999999997726 0 1.6653345369377348e-16 1 
1 411.91303122339627 560.90000000000032 7.9999999999997726 0 -1 1.6653345369377348e-16 
1 411.91303122339627 556.90000000000032 7.9999999999997726 0 1.6653345369377348e-16 1 
1 411.91303122339627 560.90000000000032 7.9999999999997726 0 1.6653345369377348e-16 1 
1 411.91303122339627 584.90000000000032 7.9999999999997726 0 -1 1.6653345369377348e-16 
1 411.91303122339627 584.90000000000032 5.9999999999997726 0 1.6653345369377348e-16 1 
1 411.91303122339627 584.90000000000032 5.9999999999997726 0 -1 1.6653345369377348e-16 
1 363.91303122339627 556.90000000000032 7.9999999999997726 0 1.6653345369377348e-16 1 
1 379.91303122339627 556.90000000000032 14.999999999999773 0 1.6653345369377348e-16 1 
1 379.91303122339627 556.90000000000032 17.968871125850455 1 0 0 
1 395.91303122339627 556.90000000000032 14.999999999999773 0 1.6653345369377348e-16 1 
1 363.91303122339627 556.90000000000032 7.9999999999997726 1 0 0 
1 363.91303122339627 560.90000000000032 7.9999999999997726 0 1.6653345369377348e-16 1 
1 363.91303122339627 560.90000000000032 7.9999999999997726 1 0 0 
2 395.91303122339627 554.90000000000032 21.999999999999773 1 0 0 0 -1 1.6653345369377348e-16 0 -1.6653345369377348e-16 -1 4.5
1 363.91303122339627 584.90000000000032 5.9999999999997726 0 -1 1.6653345369377348e-16 
1 363.91303122339627 584.90000000000032 5.9999999999997726 0 1.6653345369377348e-16 1 
1 363.91303122339627 584.90000000000032 7.9999999999997726 0 -1 1.6653345369377348e-16 
1 363.91303122339627 560.90000000000032 7.9999999999997726 0 -1 1.6653345369377348e-16 
1 363.91303122339627 558.90000000000032 5.9999999999997726 0 1.6653345369377348e-16 1 
2 379.91303122339627 554.90000000000032 21.999999999999773 1 0 0 0 -1 1.6653345369377348e-16 0 -1.6653345369377348e-16 -1 4.5
1 363.91303122339627 558.90000000000032 7.9999999999997726 1 0 0 
1 363.91303122339627 558.90000000000032 5.9999999999997726 1 0 0 
1 363.91303122339627 584.90000000000032 7.9999999999997726 1 0 0 
2 373.91303122339627 572.90000000000032 7.9999999999997726 -0 1.6653345369377348e-16 1 0 -1 1.6653345369377348e-16 1 0 0 2.25
2 401.91303122339627 572.90000000000032 7.9999999999997726 -0 1.6653345369377348e-16 1 0 -1 1.6653345369377348e-16 1 0 0 2.25
1 363.91303122339627 584.90000000000032 5.9999999999997726 1 0 0 
2 373.91303122339627 572.90000000000032 5.9999999999997726 -0 1.6653345369377348e-16 1 0 -1 1.6653345369377348e-16 1 0 0 2.25
2 401.91303122339627 572.90000000000032 5.9999999999997726 -0 1.6653345369377348e-16 1 0 -1 1.6653345369377348e-16 1 0 0 2.25
1 373.91303122339627 570.65000000000032 4.9999999999997726 0 1.6653345369377348e-16 1 
1 401.91303122339627 570.65000000000032 4.9999999999997726 0 1.6653345369377348e-16 1 
Polygon3D 0
PolygonOnTriangulations 0
Surfaces 62
1 5.9130312233962812 596.90000000000032 -2.2737367544323206e-13 1 0 0 0 -1 1.6653345369377348e-16 0 -1.6653345369377348e-16 -1 
2 -15.158036588469194 532.90000000000032 25.071067811865305 0.70710678118654757 -1.1775693440128314e-16 -0.70710678118654757 -0.70710678118654757 -1.1775693440128314e-16 -0.70710678118654757 0 1 -1.6653345369377348e-16 5.5
2 -15.158036588469194 474.90000000000032 25.071067811865305 0.70710678118654757 -1.1775693440128314e-16 -0.70710678118654757 -0.70710678118654757 -1.1775693440128314e-16 -0.70710678118654757 0 1 -1.6653345369377348e-16 5.5
1 306.40339275555692 304.82594752897234 4.5474735088646412e-13 -0 -1.6653345369377348e-16 -1 0 1 -1.6653345369377348e-16 1 0 0 
2 598.98409903526169 532.90000000000032 25.071067811865305 -0.70710678118654757 -1.1775693440128314e-16 -0.70710678118654757 -0.70710678118654757 1.1775693440128314e-16 0.70710678118654757 0 1 -1.6653345369377348e-16 5.5
2 598.98409903526169 474.90000000000032 25.071067811865305 -0.70710678118654757 -1.1775693440128314e-16 -0.70710678118654757 -0.70710678118654757 1.1775693440128314e-16 0.70710678118654757 0 1 -1.6653345369377348e-16 5.5
2 221.91303122339627 96.900000000000318 -1.0000000000002274 0 1.6653345369377348e-16 1 0 -1 1.6653345369377348e-16 1 0 0 58
2 361.91303122339627 96.900000000000318 -1.0000000000002274 0 1.6653345369377348e-16 1 0 -1 1.6653345369377348e-16 1 0 0 58
2 97.913031223396274 145.90000000000032 -1.0000000000002274 0 1.6653345369377348e-16 1 0 -1 1.6653345369377348e-16 1 0 0 3
2 97.913031223396274 187.90000000000032 -1.0000000000002274 0 1.6653345369377348e-16 1 0 -1 1.6653345369377348e-16 1 0 0 3
2 75.913031223396274 187.90000000000032 -1.0000000000002274 0 1.6653345369377348e-16 1 0 -1 1.6653345369377348e-16 1 0 0 3
2 75.913031223396274 145.90000000000032 -1.0000000000002274 0 1.6653345369377348e-16 1 0 -1 1.6653345369377348e-16 1 0 0 3
2 521.91303122339627 166.90000000000032 -1.0000000000002274 0 1.6653345369377348e-16 1 0 -1 1.6653345369377348e-16 1 0 0 12
2 66.913031223396274 166.90000000000032 -1.0000000000002274 0 1.6653345369377348e-16 1 0 -1 1.6653345369377348e-16 1 0 0 2.25
2 106.91303122339627 166.90000000000032 -1.0000000000002274 0 1.6653345369377348e-16 1 0 -1 1.6653345369377348e-16 1 0 0 2.25
2 531.41303122339627 154.90000000000032 -1.0000000000002274 0 1.6653345369377348e-16 1 0 -1 1.6653345369377348e-16 1 0 0 1.6000000000000001
2 512.41303122339627 178.90000000000032 -1.0000000000002274 0 1.6653345369377348e-16 1 0 -1 1.6653345369377348e-16 1 0 0 1.6000000000000001
1 577.91303122339627 596.90000000000032 -2.2737367544323206e-13 1 0 0 0 -1 1.6653345369377348e-16 0 -1.6653345369377348e-16 -1 
1 490.91303122339627 543.90000000000032 -5.0501898662237181 1 0 0 0 -1 1.6653345369377348e-16 0 -1.6653345369377348e-16 -1 
1 92.913031223396274 543.90000000000032 -5.0501898662237181 1 0 0 0 -1 1.6653345369377348e-16 0 -1.6653345369377348e-16 -1 
1 75.913031223396274 142.90000000000032 -1.0000000000002274 0 -1 1.6653345369377348e-16 1 0 0 0 1.6653345369377348e-16 1 
1 72.913031223396274 187.90000000000032 -1.0000000000002274 1 0 0 0 -1 1.6653345369377348e-16 0 -1.6653345369377348e-16 -1 
1 100.91303122339627 187.90000000000032 -1.0000000000002274 1 0 0 0 -1 1.6653345369377348e-16 0 -1.6653345369377348e-16 -1 
1 75.913031223396274 190.90000000000032 -1.0000000000002274 0 -1 1.6653345369377348e-16 1 0 0 0 1.6653345369377348e-16 1 
1 431.91303122339627 1691.1000000000001 -696.19999999999936 1 0 0 0 -1 1.6653345369377348e-16 0 -1.6653345369377348e-16 -1 
1 431.91303122339627 1691.1000000000001 -694.19999999999936 0 1.6653345369377348e-16 1 0 -1 1.6653345369377348e-16 1 0 0 
1 451.91303122339627 1691.1000000000001 -696.19999999999936 1 0 0 0 -1 1.6653345369377348e-16 0 -1.6653345369377348e-16 -1 
1 431.91303122339627 1691.1000000000001 -696.19999999999936 0 1.6653345369377348e-16 1 0 -1 1.6653345369377348e-16 1 0 0 
1 431.91303122339627 1667.1000000000001 -696.19999999999936 0 -1 1.6653345369377348e-16 1 0 0 0 1.6653345369377348e-16 1 
1 306.23803122339638 3.4106051316484809e-13 9 0 -1 1.6653345369377348e-16 1 0 0 0 1.6653345369377348e-16 1 
1 306.23803122339632 298.45000000000027 18 0 1.6653345369377348e-16 1 0 -1 1.6653345369377348e-16 1 0 0 
2 187.91303122339627 554.90000000000032 21.999999999999773 1 0 0 0 -1 1.6653345369377348e-16 0 -1.6653345369377348e-16 -1 4.5
2 379.91303122339627 554.90000000000032 21.999999999999773 1 0 0 0 -1 1.6653345369377348e-16 0 -1.6653345369377348e-16 -1 4.5
1 219.91303122339625 565.12003359424523 12.025344531961309 1 0 0 0 -1 1.6653345369377348e-16 0 -1.6653345369377348e-16 -1 
1 171.91303122339627 556.90000000000032 7.9999999999997726 0 -1 1.6653345369377348e-16 1 0 0 0 1.6653345369377348e-16 1 
1 171.91303122339627 560.90000000000032 7.9999999999997726 0 -1 1.6653345369377348e-16 1 0 0 0 1.6653345369377348e-16 1 
1 203.91303122339625 555.20745937013248 21.694291174273758 -1 0 -0 0 1 -1.6653345369377348e-16 0 -1.6653345369377348e-16 -1 
1 171.91303122339633 565.12003359424523 12.025344531961764 -1 0 -0 0 1 -1.6653345369377348e-16 0 -1.6653345369377348e-16 -1 
1 187.91303122339625 555.20745937013248 21.694291174273758 1 0 0 0 -1 1.6653345369377348e-16 0 -1.6653345369377348e-16 -1 
1 171.91303122339627 558.90000000000032 5.9999999999997726 0 -1 1.6653345369377348e-16 1 0 0 0 1.6653345369377348e-16 1 
1 171.91303122339627 560.90000000000032 7.9999999999997726 0 1.6653345369377348e-16 1 0 -1 1.6653345369377348e-16 1 0 0 
1 171.91303122339627 584.90000000000032 7.9999999999997726 0 1.6653345369377348e-16 1 0 -1 1.6653345369377348e-16 1 0 0 
2 181.91303122339627 572.90000000000032 4.9999999999997726 0 1.6653345369377348e-16 1 0 -1 1.6653345369377348e-16 1 0 0 2.25
2 209.91303122339627 572.90000000000032 4.9999999999997726 0 1.6653345369377348e-16 1 0 -1 1.6653345369377348e-16 1 0 0 2.25
1 171.91303122339627 584.90000000000032 5.9999999999997726 0 -1 1.6653345369377348e-16 1 0 0 0 1.6653345369377348e-16 1 
1 171.91303122339627 584.90000000000032 5.9999999999997726 0 1.6653345369377348e-16 1 0 -1 1.6653345369377348e-16 1 0 0 
1 411.91303122339627 565.12003359424523 12.025344531961309 1 0 0 0 -1 1.6653345369377348e-16 0 -1.6653345369377348e-16 -1 
1 363.91303122339627 556.90000000000032 7.9999999999997726 0 -1 1.6653345369377348e-16 1 0 0 0 1.6653345369377348e-16 1 
1 363.91303122339627 560.90000000000032 7.9999999999997726 0 -1 1.6653345369377348e-16 1 0 0 0 1.6653345369377348e-16 1 
1 395.91303122339622 555.20745937013248 21.694291174273758 -1 0 -0 0 1 -1.6653345369377348e-16 0 -1.6653345369377348e-16 -1 
1 363.91303122339633 565.12003359424523 12.025344531961764 -1 0 -0 0 1 -1.6653345369377348e-16 0 -1.6653345369377348e-16 -1 
1 379.91303122339622 555.20745937013248 21.694291174273758 1 0 0 0 -1 1.6653345369377348e-16 0 -1.6653345369377348e-16 -1 
1 363.91303122339627 558.90000000000032 5.9999999999997726 0 -1 1.6653345369377348e-16 1 0 0 0 1.6653345369377348e-16 1 
1 363.91303122339627 560.90000000000032 7.9999999999997726 0 1.6653345369377348e-16 1 0 -1 1.6653345369377348e-16 1 0 0 
1 363.91303122339627 584.90000000000032 7.9999999999997726 0 1.6653345369377348e-16 1 0 -1 1.6653345369377348e-16 1 0 0 
2 373.91303122339627 572.90000000000032 4.9999999999997726 0 1.6653345369377348e-16 1 0 -1 1.6653345369377348e-16 1 0 0 2.25
2 401.91303122339627 572.90000000000032 4.9999999999997726 0 1.6653345369377348e-16 1 0 -1 1.6653345369377348e-16 1 0 0 2.25
1 363.91303122339627 584.90000000000032 5.9999999999997726 0 -1 1.6653345369377348e-16 1 0 0 0 1.6653345369377348e-16 1 
1 363.91303122339627 584.90000000000032 5.9999999999997726 0 1.6653345369377348e-16 1 0 -1 1.6653345369377348e-16 1 0 0 
1 306.23803122339626 596.90000000000032 9.0000000000002274 -0 1 -1.6653345369377348e-16 -1 0 0 0 1.6653345369377348e-16 1 
1 306.23803122339626 212.90000000000026 9.0000000000002274 -0 1 -1.6653345369377348e-16 -1 0 0 0 1.6653345369377348e-16 1 
1 306.23803122339626 543.90000000000032 8.9999999999997726 0 -1 1.6653345369377348e-16 1 0 0 0 1.6653345369377348e-16 1 
Triangulations 0

TShapes 461
Ve
1.6140899586e-05
5.91303122339628 596.9 -2.27373675443232e-13
0 0

0101101
*
Ve
1.6140899586e-05
5.91303122339628 537.616990566029 -2.27373675443232e-13
0 0

0101101
*
Ed
 1.6140899586e-05 1 1 0
1  1 0 0 59.2830094339717
0

0101000
+461 5 -460 5 *
Ve
1.6140899586e-05
5.91303122339628 528.183009433972 -2.27373675443232e-13
0 0

0101101
*
Ed
 1e-07 1 1 0
1  2 0 1.03065234911869 5.25253295806089
2  1 2 0 1.03065234911869 5.25253295806089
0

0101000
+460 5 -458 5 *
Ve
1.6140899586e-05
5.91303122339628 479.616990566029 -2.27373675443232e-13
0 0

0101101
*
Ed
 1.6140899586e-05 1 1 0
1  3 0 68.7169905660283 117.283009433972
0

0101000
+458 5 -456 5 *
Ve
1.6140899586e-05
5.91303122339628 470.183009433972 -2.27373675443232e-13
0 0

0101101
*
Ed
 1e-07 1 1 0
1  4 0 1.03065234911869 5.25253295806089
2  2 3 0 1.03065234911869 5.25253295806089
0

0101000
+456 5 -454 5 *
Ve
1.6140899586e-05
5.91303122339628 3.41060513164848e-13 -2.27373675443232e-13
0 0

0101101
*
Ed
 1.6140899586e-05 1 1 0
1  5 0 126.716990566028 596.9
0

0101000
+454 5 -452 5 *
Ve
1.6140899586e-05
5.91303122339628 3.41060513164848e-13 17.9999999999998
0 0

0101101
*
Ed
 1.6140899586e-05 1 1 0
1  6 0 0 18
0

0101000
+452 5 -450 5 *
Ve
1.6140899586e-05
5.91303122339628 596.9 17.9999999999998
0 0

0101101
*
Ed
 1.6140899586e-05 1 1 0
1  7 0 0 596.9
0

0101000
+448 5 -450 5 *
Ed
 1.6140899586e-05 1 1 0
1  8 0 0 18
0

0101000
+461 5 -448 5 *
Wi

0101100
-459 0 -457 0 -455 0 -453 0 -451 0 -449 0 +447 0 +446 0 *
Fa
0  1e-07 1 0

0111000
+445 0 *
Ve
1.6140899586e-05
9.91303122339628 527.4 -2.27373675443232e-13
0 0

0101101
*
Ed
 1.6140899586e-05 1 1 0
1  9 0 4.17224500270848 4.71238898038469
2  3 2 0 4.17224500270848 4.71238898038469
0

0101000
+458 5 -443 5 *
Ve
1.6140899586e-05
9.91303122339628 538.4 -2.27373675443232e-13
0 0

0101101
*
Ed
 1.6140899586e-05 1 1 0
1  10 0 4.71238898038469 7.85398163397448
2  4 2 10 4.71238898038469 7.85398163397448
0

0101000
+443 11 -441 11 *
Ed
 1.6140899586e-05 1 1 0
1  11 0 1.5707963267949 2.11094030447111
2  5 2 0 1.5707963267949 2.11094030447111
0

0101000
+441 5 -460 5 *
Wi

0101100
+457 0 +442 0 +440 9 +439 0 *
Fa
0  1e-07 2 0

0111000
+438 0 *
Ve
1.6140899586e-05
9.91303122339628 469.4 -2.27373675443232e-13
0 0

0101101
*
Ed
 1.6140899586e-05 1 1 0
1  12 0 4.17224500270848 4.71238898038469
2  6 3 0 4.17224500270848 4.71238898038469
0

0101000
+454 5 -436 5 *
Ve
1.6140899586e-05
9.91303122339628 480.4 -2.27373675443232e-13
0 0

0101101
*
Ed
 1.6140899586e-05 1 1 0
1  13 0 4.71238898038469 7.85398163397448
2  7 3 10 4.71238898038469 7.85398163397448
0

0101000
+436 11 -434 11 *
Ed
 1.6140899586e-05 1 1 0
1  14 0 1.5707963267949 2.11094030447111
2  8 3 0 1.5707963267949 2.11094030447111
0

0101000
+434 5 -456 5 *
Wi

0101100
+453 0 +435 0 +433 9 +432 0 *
Fa
0  1e-07 3 0

0111000
+431 0 *
Ve
1.6140899586e-05
606.563031223396 596.9 -2.27373675443232e-13
0 0

0101101
*
Ed
 1e-07 1 1 0
1  15 0 0 600.65
0

0101000
+461 13 -429 13 *
Ve
1.6140899586e-05
606.563031223396 537.616990566029 -2.27373675443232e-13
0 0

0101101
*
Ed
 1.6140899586e-05 1 1 0
1  16 0 0 59.2830094339717
0

0101000
+429 17 -427 17 *
Ve
1.6140899586e-05
602.563031223396 538.4 -2.27373675443232e-13
0 0

0101101
*
Ed
 1.6140899586e-05 1 1 0
1  17 0 4.17224500270847 4.71238898038469
2  9 5 0 4.17224500270847 4.71238898038469
0

0101000
+427 17 -425 17 *
Ve
1.6140899586e-05
594.784856630344 532.9 -2.27373675443232e-13
0 0

0101101
*
Ed
 1.6140899586e-05 1 1 0
1  18 0 4.71238898038469 6.28318530717959
2  10 5 10 4.71238898038469 6.28318530717959
0

0101000
+425 19 -423 19 *
Ve
1.6140899586e-05
602.563031223396 527.4 -2.27373675443232e-13
0 0

0101101
*
Ed
 1.6140899586e-05 1 1 0
1  19 0 0 1.5707963267949
2  11 5 10 0 1.5707963267949
0

0101000
+423 19 -421 19 *
Ve
1.6140899586e-05
606.563031223396 528.183009433972 -2.27373675443232e-13
0 0

0101101
*
Ed
 1.6140899586e-05 1 1 0
1  20 0 1.5707963267949 2.11094030447111
2  12 5 0 1.5707963267949 2.11094030447111
0

0101000
+421 17 -419 17 *
Ve
1.6140899586e-05
606.563031223396 479.616990566029 -2.27373675443232e-13
0 0

0101101
*
Ed
 1.6140899586e-05 1 1 0
1  21 0 68.7169905660283 117.283009433972
0

0101000
+419 17 -417 17 *
Ve
1.6140899586e-05
602.563031223396 480.4 -2.27373675443232e-13
0 0

0101101
*
Ed
 1.6140899586e-05 1 1 0
1  22 0 4.17224500270847 4.71238898038469
2  13 6 0 4.17224500270847 4.71238898038469
0

0101000
+417 17 -415 17 *
Ve
1.6140899586e-05
594.784856630344 474.9 -2.27373675443232e-13
0 0

0101101
*
Ed
 1.6140899586e-05 1 1 0
1  23 0 4.71238898038469 6.28318530717959
2  14 6 10 4.71238898038469 6.28318530717959
0

0101000
+415 19 -413 19 *
Ve
1.6140899586e-05
602.563031223396 469.4 -2.27373675443232e-13
0 0

0101101
*
Ed
 1.6140899586e-05 1 1 0
1  24 0 0 1.5707963267949
2  15 6 10 0 1.5707963267949
0

0101000
+413 19 -411 19 *
Ve
1.6140899586e-05
606.563031223396 470.183009433972 -2.27373675443232e-13
0 0

0101101
*
Ed
 1.6140899586e-05 1 1 0
1  25 0 1.5707963267949 2.11094030447111
2  16 6 0 1.5707963267949 2.11094030447111
0

0101000
+411 17 -409 17 *
Ve
1.6140899586e-05
606.563031223396 3.41060513164848e-13 -2.27373675443232e-13
0 0

0101101
*
Ed
 1.6140899586e-05 1 1 0
1  26 0 126.716990566028 596.9
0

0101000
+409 17 -407 17 *
Ed
 1e-07 1 1 0
1  27 0 -596.65 4
0

0101000
+452 13 -407 13 *
Wi

0101000
-451 4 +435 4 +433 12 +432 4 -455 4 +442 4 +440 12 +439 4 -459 4 +428 0 
+426 16 +424 16 +422 18 +420 18 +418 16 +416 16 +414 16 +412 18 +410 18 +408 16 
+406 16 -405 0 *
Ve
1.6140899586e-05
92.9130312233963 212.9 -2.27373675443232e-13
0 0

0101101
*
Ve
1.6140899586e-05
519.563031223396 212.9 -2.27373675443232e-13
0 0

0101101
*
Ed
 1e-07 1 1 0
1  28 0 41.5 468.15
0

0101000
+403 13 -402 13 *
Ve
1.6140899586e-05
519.563031223396 543.9 -2.27373675443232e-13
0 0

0101101
*
Ed
 1e-07 1 1 0
1  29 0 -357.5 -26.5
0

0101000
+402 20 -400 20 *
Ve
1.6140899586e-05
92.9130312233963 543.9 -2.27373675443232e-13
0 0

0101101
*
Ed
 1e-07 1 1 0
1  30 0 12.85 439.5
0

0101000
+398 13 -400 13 *
Ed
 1e-07 1 1 0
1  31 0 -357.5 -26.5
0

0101000
+403 13 -398 13 *
Wi

0101000
+401 0 +399 15 -397 0 -396 0 *
Ve
1.00000028e-07
236.238031223396 38.9000000000003 -2.27373675443232e-13
0 0

0101101
*
Ed
 1e-07 1 1 0
1  32 0 0 6.28318530717959
2  17 7 0 0 6.28318530717959
0

0101100
+394 22 -394 22 *
Wi

0101100
+393 21 *
Ve
1e-07
376.238031223396 38.9000000000003 -2.27373675443232e-13
0 0

0101101
*
Ed
 1e-07 1 1 0
1  33 0 0 6.28318530717959
2  18 8 0 0 6.28318530717959
0

0101100
+391 22 -391 22 *
Wi

0101100
+390 21 *
Ve
1.5e-07
75.9130312233963 142.9 -2.27373675443232e-13
0 0

0101101
*
Ve
1.5e-07
97.9130312233963 142.9 -2.27373675443232e-13
0 0

0101101
*
Ed
 1.5e-07 1 1 0
1  34 0 33 55
0

0101000
+388 24 -387 24 *
Ve
1.5e-07
100.913031223396 145.9 -2.27373675443232e-13
0 0

0101101
*
Ed
 1e-07 1 1 0
1  35 0 0 1.5707963267949
2  19 9 0 0 1.5707963267949
0

0101000
+387 24 -385 24 *
Ve
1.5e-07
100.913031223396 187.9 -2.27373675443232e-13
0 0

0101101
*
Ed
 1.5e-07 1 1 0
1  36 0 -246.5 -204.5
0

0101000
+385 24 -383 24 *
Ve
1.5e-07
97.9130312233963 190.9 -2.27373675443232e-13
0 0

0101101
*
Ed
 1e-07 1 1 0
1  37 0 1.5707963267949 3.14159265358979
2  20 10 0 1.5707963267949 3.14159265358979
0

0101000
+383 24 -381 24 *
Ve
1.5e-07
75.9130312233963 190.9 -2.27373675443232e-13
0 0

0101101
*
Ed
 1.5e-07 1 1 0
1  38 0 33 55
0

0101000
+379 24 -381 24 *
Ve
1.5e-07
72.9130312233963 187.9 -2.27373675443232e-13
0 0

0101101
*
Ed
 1e-07 1 1 0
1  39 0 3.14159265358979 4.71238898038469
2  21 11 0 3.14159265358979 4.71238898038469
0

0101000
+379 24 -377 24 *
Ve
1.5e-07
72.9130312233963 145.9 -2.27373675443232e-13
0 0

0101101
*
Ed
 1.5e-07 1 1 0
1  40 0 -246.5 -204.5
0

0101000
+375 24 -377 24 *
Ed
 1e-07 1 1 0
1  41 0 4.71238898038469 6.28318530717959
2  22 12 0 4.71238898038469 6.28318530717959
0

0101000
+375 24 -388 24 *
Wi

0101100
+386 23 +384 23 +382 23 +380 23 -378 23 +376 23 -374 23 +373 23 *
Ve
1e-07
550.563031223396 154.9 -2.27373675443232e-13
0 0

0101101
*
Ed
 1e-07 1 1 0
1  42 0 0 6.28318530717959
2  23 13 0 0 6.28318530717959
0

0101100
+371 26 -371 26 *
Wi

0101100
+370 25 *
Ve
1.6140899657e-05
460.563031223396 209.9 -2.27373675443232e-13
0 0

0101101
*
Ve
1.6140899657e-05
460.563031223396 211.9 -2.27373675443232e-13
0 0

0101101
*
Ed
 1e-07 1 1 0
1  43 0 -193.5 -191.5
0

0101000
+368 13 -367 13 *
Ve
1.6090899131e-05
480.563031223396 209.9 -2.27373675443232e-13
0 0

0101101
*
Ed
 1e-07 1 1 0
1  44 0 -231 -211
0

0101000
+365 13 -368 13 *
Ve
1.6090899131e-05
480.563031223396 211.9 -2.27373675443232e-13
0 0

0101101
*
Ed
 1e-07 1 1 0
1  45 0 -193.5 -191.5
0

0101000
+365 13 -363 13 *
Ed
 1e-07 1 1 0
1  46 0 -231 -211
0

0101000
+363 13 -367 13 *
Wi

0101100
-366 0 -364 0 +362 0 +361 0 *
Ve
1e-07
66.9130312233963 164.65 -2.27373675443232e-13
0 0

0101101
*
Ed
 1e-07 1 1 0
1  47 0 0 6.28318530717959
2  24 14 0 0 6.28318530717959
0

0101100
+359 24 -359 24 *
Wi

0101100
+358 23 *
Ve
1e-07
106.913031223396 164.65 -2.27373675443232e-13
0 0

0101101
*
Ed
 1e-07 1 1 0
1  48 0 0 6.28318530717959
2  25 15 0 0 6.28318530717959
0

0101100
+356 24 -356 24 *
Wi

0101100
+355 23 *
Ve
1e-07
560.063031223396 153.3 -2.27373675443232e-13
0 0

0101101
*
Ed
 1e-07 1 1 0
1  49 0 0 6.28318530717959
2  26 16 0 0 6.28318530717959
0

0101100
+353 26 -353 26 *
Wi

0101100
+352 25 *
Ve
1e-07
541.063031223396 177.3 -2.27373675443232e-13
0 0

0101101
*
Ed
 1e-07 1 1 0
1  50 0 0 6.28318530717959
2  27 17 0 0 6.28318530717959
0

0101100
+350 26 -350 26 *
Wi

0101100
+349 25 *
Fa
0  1.6140899586e-05 4 0

0111000
+404 0 +395 0 +392 0 +389 0 +372 0 +369 0 +360 0 +357 0 +354 0 +351 0 
+348 0 *
Ed
 1e-07 1 1 0
1  51 0 1.03065234911869 5.25253295806089
2  28 5 0 1.03065234911869 5.25253295806089
0

0101000
+427 17 -419 17 *
Ed
 1e-07 1 1 0
1  52 0 1.03065234911869 5.25253295806089
2  29 6 0 1.03065234911869 5.25253295806089
0

0101000
+417 17 -409 17 *
Ve
1.6140899586e-05
606.563031223396 3.41060513164848e-13 17.9999999999998
0 0

0101101
*
Ed
 1.6140899586e-05 1 1 0
1  53 0 0 18
0

0101000
+407 17 -344 17 *
Ve
1.6140899586e-05
606.563031223396 596.9 17.9999999999998
0 0

0101101
*
Ed
 1.6140899586e-05 1 1 0
1  54 0 0 596.9
0

0101000
+342 17 -344 17 *
Ed
 1.6140899586e-05 1 1 0
1  55 0 0 18
0

0101000
+429 17 -342 17 *
Wi

0101100
-426 0 -346 0 -416 0 -345 0 -406 0 -343 0 +341 0 +340 0 *
Fa
0  1e-07 18 0

0111000
+339 0 *
Wi

0101100
+412 9 +410 9 +408 0 -345 0 +414 0 *
Fa
0  1e-07 6 0

0111000
+337 0 *
Wi

0101100
+422 9 +420 9 +418 0 -346 0 +424 0 *
Fa
0  1e-07 5 0

0111000
+335 0 *
Ve
1.6140899586e-05
519.563031223396 212.9 17.9999999999998
0 0

0101101
*
Ed
 1.6140899586e-05 1 1 0
1  56 0 5.05018986622349 23.0501898662235
0

0101000
+402 28 -333 28 *
Ve
1.6140899586e-05
519.563031223396 543.9 17.9999999999998
0 0

0101101
*
Ed
 1e-07 1 1 0
1  57 0 -357.5 -26.5
0

0101000
+333 20 -331 20 *
Ed
 1.6140899586e-05 1 1 0
1  58 0 5.05018986622349 23.0501898662235
0

0101000
+400 28 -331 28 *
Wi

0101100
-332 0 -330 29 +329 0 +399 29 *
Fa
0  1e-07 19 0

0111000
+328 0 *
Ve
1.6140899586e-05
92.9130312233963 212.9 17.9999999999998
0 0

0101101
*
Ed
 1.6140899586e-05 1 1 0
1  59 0 5.05018986622349 23.0501898662235
0

0101000
+403 31 -326 31 *
Ve
1.6140899586e-05
92.9130312233963 543.9 17.9999999999998
0 0

0101101
*
Ed
 1e-07 1 1 0
1  60 0 -357.5 -26.5
0

0101000
+326 13 -324 13 *
Ed
 1.6140899586e-05 1 1 0
1  61 0 5.05018986622349 23.0501898662235
0

0101000
+398 31 -324 31 *
Wi

0101100
-325 0 -323 32 +322 0 +396 32 *
Fa
0  1e-07 20 0

0111000
+321 0 *
Ve
1.00000028e-07
236.238031223396 38.9000000000003 17.9999999999998
0 0

0101101
*
Ed
 1e-07 1 1 0
1  62 0 0 6.28318530717959
2  30 7 0 0 6.28318530717959
0

0101100
+319 22 -319 22 *
Ed
 1e-07 1 1 0
1  63 0 1 19
3  31 32CN 7 0 1 19
0

0101000
+394 22 -319 22 *
Wi

0101100
-318 0 +317 0 +393 0 -317 0 *
Fa
0  1e-07 7 0

0111000
+316 0 *
Ve
1e-07
376.238031223396 38.9000000000003 17.9999999999998
0 0

0101101
*
Ed
 1e-07 1 1 0
1  64 0 0 6.28318530717959
2  33 8 0 0 6.28318530717959
0

0101100
+314 22 -314 22 *
Ed
 1e-07 1 1 0
1  65 0 1 19
3  34 35CN 8 0 1 19
0

0101000
+391 22 -314 22 *
Wi

0101100
-313 0 +312 0 +390 0 -312 0 *
Fa
0  1e-07 8 0

0111000
+311 0 *
Ve
1.5e-07
75.9130312233963 142.9 17.9999999999998
0 0

0101101
*
Ed
 1e-07 1 1 0
1  66 0 1 19
2  36 12 0 1 19
0

0101000
+388 24 -309 24 *
Ve
1.5e-07
97.9130312233963 142.9 17.9999999999998
0 0

0101101
*
Ed
 1.5e-07 1 1 0
1  67 0 33 55
0

0101000
+309 24 -307 24 *
Ed
 1e-07 1 1 0
1  68 0 1 19
2  37 9 0 1 19
0

0101000
+387 24 -307 24 *
Wi

0101100
-308 0 -306 0 +305 0 +386 0 *
Fa
0  1e-07 21 0

0111000
+304 0 *
Ve
1.5e-07
72.9130312233963 145.9 17.9999999999998
0 0

0101101
*
Ed
 1e-07 1 1 0
1  69 0 4.71238898038469 6.28318530717959
2  38 12 0 4.71238898038469 6.28318530717959
0

0101000
+302 24 -309 24 *
Ed
 1e-07 1 1 0
1  70 0 1 19
2  39 12 0 1 19
0

0101000
+375 24 -302 24 *
Wi

0101100
-301 0 +308 0 +373 0 -300 0 *
Fa
0  1e-07 12 0

0111000
+299 0 *
Ve
1.5e-07
100.913031223396 145.9 17.9999999999998
0 0

0101101
*
Ed
 1e-07 1 1 0
1  71 0 0 1.5707963267949
2  40 9 0 0 1.5707963267949
0

0101000
+307 24 -297 24 *
Ed
 1e-07 1 1 0
1  72 0 1 19
2  41 9 0 1 19
0

0101000
+385 24 -297 24 *
Wi

0101100
-296 0 +295 0 +384 0 -305 0 *
Fa
0  1e-07 9 0

0111000
+294 0 *
Ve
1.5e-07
72.9130312233963 187.9 17.9999999999998
0 0

0101101
*
Ed
 1.5e-07 1 1 0
1  73 0 -246.5 -204.5
0

0101000
+302 24 -292 24 *
Ed
 1e-07 1 1 0
1  74 0 1 19
2  42 11 0 1 19
0

0101000
+377 24 -292 24 *
Wi

0101100
+374 0 -300 0 -291 0 +290 0 *
Fa
0  1e-07 22 0

0111000
+289 0 *
Ve
1.5e-07
100.913031223396 187.9 17.9999999999998
0 0

0101101
*
Ed
 1.5e-07 1 1 0
1  75 0 -246.5 -204.5
0

0101000
+297 24 -287 24 *
Ed
 1e-07 1 1 0
1  76 0 1 19
2  43 10 0 1 19
0

0101000
+383 24 -287 24 *
Wi

0101100
+382 0 -295 0 -286 0 +285 0 *
Fa
0  1e-07 23 0

0111000
+284 0 *
Ve
1.5e-07
75.9130312233963 190.9 17.9999999999998
0 0

0101101
*
Ed
 1e-07 1 1 0
1  77 0 3.14159265358979 4.71238898038469
2  44 11 0 3.14159265358979 4.71238898038469
0

0101000
+282 24 -292 24 *
Ed
 1e-07 1 1 0
1  78 0 1 19
2  45 11 0 1 19
0

0101000
+379 24 -282 24 *
Wi

0101100
-281 0 +290 0 +376 0 -280 0 *
Fa
0  1e-07 11 0

0111000
+279 0 *
Ve
1.5e-07
97.9130312233963 190.9 17.9999999999998
0 0

0101101
*
Ed
 1e-07 1 1 0
1  79 0 1.5707963267949 3.14159265358979
2  46 10 0 1.5707963267949 3.14159265358979
0

0101000
+287 24 -277 24 *
Ed
 1e-07 1 1 0
1  80 0 1 19
2  47 10 0 1 19
0

0101000
+381 24 -277 24 *
Wi

0101100
-276 0 +275 0 +380 0 -285 0 *
Fa
0  1e-07 10 0

0111000
+274 0 *
Ed
 1.5e-07 1 1 0
1  81 0 33 55
0

0101000
+282 24 -277 24 *
Wi

0101100
-280 0 -272 0 +275 0 +378 0 *
Fa
0  1e-07 24 0

0111000
+271 0 *
Ve
1e-07
550.563031223396 154.9 17.9999999999998
0 0

0101101
*
Ed
 1e-07 1 1 0
1  82 0 0 6.28318530717959
2  48 13 0 0 6.28318530717959
0

0101100
+269 26 -269 26 *
Ed
 1e-07 1 1 0
1  83 0 1 19
3  49 50CN 13 0 1 19
0

0101000
+371 26 -269 26 *
Wi

0101100
-268 0 +267 0 +370 0 -267 0 *
Fa
0  1e-07 13 0

0111000
+266 0 *
Ve
1.00000057e-07
460.563031223396 209.9 7.99999999999977
0 0

0101101
*
Ed
 1e-07 1 1 0
1  84 0 16 24
0

0101000
+368 40 -264 40 *
Ve
1.00000057e-07
460.563031223396 211.9 7.99999999999977
0 0

0101101
*
Ed
 1e-07 1 1 0
1  85 0 0 2
0

0101000
+264 40 -262 40 *
Ed
 1e-07 1 1 0
1  86 0 16 24
0

0101000
+367 40 -262 40 *
Wi

0101100
-263 39 -261 39 +260 39 +366 0 *
Fa
0  1e-07 25 38

0111000
+259 0 *
Ve
1e-07
480.563031223396 211.9 7.99999999999977
0 0

0101101
*
Ed
 1e-07 1 1 0
1  87 0 16 24
0

0101000
+363 40 -257 40 *
Ed
 1e-07 1 1 0
1  88 0 0 20
0

0101000
+262 40 -257 40 *
Wi

0101100
-256 39 +255 39 +260 39 +361 0 *
Fa
0  1e-07 26 39

0111000
+254 0 *
Ve
1e-07
480.563031223396 209.9 7.99999999999977
0 0

0101101
*
Ed
 1e-07 1 1 0
1  89 0 16 24
0

0101000
+365 40 -252 40 *
Ed
 1e-07 1 1 0
1  90 0 0 2
0

0101000
-257 40 +252 40 *
Wi

0101100
-251 41 -250 41 +256 41 +362 42 *
Fa
0  1e-07 27 41

0111000
+249 0 *
Ed
 1e-07 1 1 0
1  91 0 0 20
0

0101000
+264 40 -252 40 *
Wi

0101100
-251 39 +247 39 +263 39 +364 0 *
Fa
0  1e-07 28 39

0111000
+246 0 *
Wi

0101100
-261 39 -255 39 +250 39 +247 39 *
Fa
0  1e-07 29 39

0111000
+244 0 *
Ve
1e-07
66.9130312233963 164.65 17.9999999999998
0 0

0101101
*
Ed
 1e-07 1 1 0
1  92 0 0 6.28318530717959
2  51 14 0 0 6.28318530717959
0

0101100
+242 24 -242 24 *
Ed
 1e-07 1 1 0
1  93 0 1 19
3  52 53CN 14 0 1 19
0

0101000
+359 24 -242 24 *
Wi

0101100
-241 0 +240 0 +358 0 -240 0 *
Fa
0  1e-07 14 0

0111000
+239 0 *
Ve
1e-07
106.913031223396 164.65 17.9999999999998
0 0

0101101
*
Ed
 1e-07 1 1 0
1  94 0 0 6.28318530717959
2  54 15 0 0 6.28318530717959
0

0101100
+237 24 -237 24 *
Ed
 1e-07 1 1 0
1  95 0 1 19
3  55 56CN 15 0 1 19
0

0101000
+356 24 -237 24 *
Wi

0101100
-236 0 +235 0 +355 0 -235 0 *
Fa
0  1e-07 15 0

0111000
+234 0 *
Ve
1e-07
560.063031223396 153.3 17.9999999999998
0 0

0101101
*
Ed
 1e-07 1 1 0
1  96 0 0 6.28318530717959
2  57 16 0 0 6.28318530717959
0

0101100
+232 26 -232 26 *
Ed
 1e-07 1 1 0
1  97 0 1 19
3  58 59CN 16 0 1 19
0

0101000
+353 26 -232 26 *
Wi

0101100
-231 0 +230 0 +352 0 -230 0 *
Fa
0  1e-07 16 0

0111000
+229 0 *
Ve
1e-07
541.063031223396 177.3 17.9999999999998
0 0

0101101
*
Ed
 1e-07 1 1 0
1  98 0 0 6.28318530717959
2  60 17 0 0 6.28318530717959
0

0101100
+227 26 -227 26 *
Ed
 1e-07 1 1 0
1  99 0 1 19
3  61 62CN 17 0 1 19
0

0101000
+350 26 -227 26 *
Wi

0101100
-226 0 +225 0 +349 0 -225 0 *
Fa
0  1e-07 17 0

0111000
+224 0 *
Ed
 1e-07 1 1 0
1  100 0 14 614.65
0

0101000
+344 13 -450 13 *
Wi

0101000
-449 4 +405 0 +343 16 +222 0 *
Fa
0  1.6140899586e-05 30 0

0111000
+221 0 *
Ed
 1e-07 1 1 0
1  101 0 14 614.65
0

0101000
+342 13 -448 13 *
Wi

0101000
+447 4 -222 0 -341 16 +219 0 *
Ed
 1e-07 1 1 0
1  102 0 41.5 468.15
0

0101000
+324 13 -331 13 *
Ed
 1e-07 1 1 0
1  103 0 12.85 439.5
0

0101000
+326 13 -333 13 *
Wi

0101000
+217 0 -330 15 -216 0 +323 0 *
Wi

0101100
-318 21 *
Wi

0101100
-313 21 *
Wi

0101100
-306 23 -301 23 +291 23 -281 23 +272 23 -276 23 -286 23 -296 23 *
Ve
1.50000028e-07
234.238031223396 544.9 17.9999999999998
0 0

0101101
*
Ve
1.50000028e-07
234.238031223396 548.9 17.9999999999998
0 0

0101101
*
Ed
 1.5e-07 1 1 0
1  104 0 -30.1100167971225 -26.1100167971225
0

0101000
+211 44 -210 44 *
Ve
2.00000028e-07
218.238031223396 544.9 17.9999999999998
0 0

0101101
*
Ed
 1.5e-07 1 1 0
1  105 0 113 129
0

0101000
+208 44 -211 44 *
Ve
2.00000028e-07
218.238031223396 544.961552812809 17.9999999999998
0 0

0101101
*
Ed
 2e-07 1 1 0
1  106 0 25.0921768722573 25.1537296850661
0

0101000
+206 44 -208 44 *
Ve
2.00000028e-07
202.238031223396 544.961552812809 17.9999999999998
0 0

0101101
*
Ed
 1e-07 1 1 0
1  107 0 0 16
2  63 32 47 0 16
0

0101000
+204 44 -206 44 *
Ve
2.00000028e-07
202.238031223396 544.9 17.9999999999998
0 0

0101101
*
Ed
 2e-07 1 1 0
1  108 0 -25.1537296850661 -25.0921768722573
0

0101000
+202 44 -204 44 *
Ve
1.50000057e-07
186.238031223396 544.9 17.9999999999998
0 0

0101101
*
Ed
 1.5e-07 1 1 0
1  109 0 81 97
0

0101000
+200 44 -202 44 *
Ve
1.50000057e-07
186.238031223396 548.9 17.9999999999998
0 0

0101101
*
Ed
 1.5e-07 1 1 0
1  110 0 26.1100167971225 30.1100167971225
0

0101000
+198 44 -200 44 *
Ed
 1.5e-07 1 1 0
1  111 0 81 129
0

0101000
+198 44 -210 44 *
Wi

0101100
-209 43 -207 43 -205 43 -203 43 -201 43 -199 43 -197 43 +196 43 *
Ve
1.5e-07
426.238031223396 544.9 17.9999999999998
0 0

0101101
*
Ve
1.5e-07
426.238031223396 548.9 17.9999999999998
0 0

0101101
*
Ed
 1.5e-07 1 1 0
1  112 0 -30.1100167971225 -26.1100167971225
0

0101000
+194 44 -193 44 *
Ve
2.00000057e-07
410.238031223396 544.9 17.9999999999998
0 0

0101101
*
Ed
 1.5e-07 1 1 0
1  113 0 209 225
0

0101000
+191 44 -194 44 *
Ve
2.00000057e-07
410.238031223396 544.961552812809 17.9999999999998
0 0

0101101
*
Ed
 2e-07 1 1 0
1  114 0 25.0921768722573 25.1537296850661
0

0101000
+189 44 -191 44 *
Ve
2.00000057e-07
394.238031223396 544.961552812809 17.9999999999998
0 0

0101101
*
Ed
 1e-07 1 1 0
1  115 0 0 16
2  64 33 50 0 16
0

0101000
+187 44 -189 44 *
Ve
2.00000057e-07
394.238031223396 544.9 17.9999999999998
0 0

0101101
*
Ed
 2e-07 1 1 0
1  116 0 -25.1537296850661 -25.0921768722573
0

0101000
+185 44 -187 44 *
Ve
1.50000057e-07
378.238031223396 544.9 17.9999999999998
0 0

0101101
*
Ed
 1.5e-07 1 1 0
1  117 0 177 193
0

0101000
+183 44 -185 44 *
Ve
1.50000057e-07
378.238031223396 548.9 17.9999999999998
0 0

0101101
*
Ed
 1.5e-07 1 1 0
1  118 0 26.1100167971225 30.1100167971225
0

0101000
+181 44 -183 44 *
Ed
 1.5e-07 1 1 0
1  119 0 177 225
0

0101000
+181 44 -193 44 *
Wi

0101100
-192 43 -190 43 -188 43 -186 43 -184 43 -182 43 -180 43 +179 43 *
Wi

0101100
-268 25 *
Wi

0101100
-241 23 *
Wi

0101100
-236 23 *
Wi

0101100
-226 25 *
Wi

0101100
-231 25 *
Fa
0  1.6140899586e-05 31 0

0111000
+218 0 +215 0 +214 0 +213 0 +212 0 +195 0 +178 0 +177 0 +176 0 +175 0 
+174 0 +173 0 *
Ve
1e-07
234.238031223396 546.9 5.99999999999977
0 0

0101101
*
Ve
1e-07
234.238031223396 546.9 7.99999999999977
0 0

0101101
*
Ed
 1e-07 1 1 0
1  120 0 0 2
0

0101000
+171 51 -170 51 *
Ve
1e-07
234.238031223396 544.9 7.99999999999977
0 0

0101101
*
Ed
 1e-07 1 1 0
1  121 0 2 4
0

0101000
+170 51 -168 51 *
Ed
 1e-07 1 1 0
1  122 0 0 10
0

0101000
+168 51 -211 51 *
Ve
1e-07
234.238031223396 548.9 7.99999999999977
0 0

0101101
*
Ed
 1e-07 1 1 0
1  123 0 0 10
0

0101000
+165 51 -210 51 *
Ve
1e-07
234.238031223396 572.9 7.99999999999977
0 0

0101101
*
Ed
 1e-07 1 1 0
1  124 0 0 24
0

0101000
+163 51 -165 51 *
Ve
1e-07
234.238031223396 572.9 5.99999999999977
0 0

0101101
*
Ed
 1e-07 1 1 0
1  125 0 0 2
0

0101000
-163 51 +161 51 *
Ed
 1e-07 1 1 0
1  126 0 0 26
0

0101000
-171 51 +161 51 *
Wi

0101100
-169 47 -167 47 -166 47 -209 0 +164 47 +162 47 +160 47 -159 47 *
Fa
0  1e-07 34 47

0111000
+158 0 *
Ve
1e-07
186.238031223396 544.9 7.99999999999977
0 0

0101101
*
Ed
 1e-07 1 1 0
1  127 0 0 10
0

0101000
+156 51 -200 51 *
Ve
1.5e-07
202.238031223396 544.9 17.9688711258505
0 0

0101101
*
Ed
 1.5e-07 1 1 0
1  128 0 2.96887112585068 3
0

0101000
+154 51 -202 51 *
Ve
1.5e-07
218.238031223396 544.9 17.9688711258505
0 0

0101101
*
Ed
 1e-07 1 1 0
1  129 0 0 16
2  65 32 0 0 16
0

0101000
+154 51 -152 51 *
Ed
 1.5e-07 1 1 0
1  130 0 2.96887112585068 3
0

0101000
+152 51 -208 51 *
Ed
 1e-07 1 1 0
1  131 0 0 48
0

0101000
-168 51 +156 51 *
Wi

0101100
-155 47 -199 0 +153 47 -151 47 -150 47 -207 0 +166 47 +149 47 *
Fa
0  1e-07 35 47

0111000
+148 0 *
Ve
1e-07
186.238031223396 548.9 7.99999999999977
0 0

0101101
*
Ed
 1e-07 1 1 0
1  132 0 0 10
0

0101000
+146 51 -198 51 *
Ed
 1e-07 1 1 0
1  133 0 0 48
0

0101000
+146 51 -165 51 *
Wi

0101100
-145 47 -196 0 +164 47 +144 47 *
Fa
0  1e-07 36 47

0111000
+143 0 *
Ed
 1.5e-07 1 1 0
1  134 0 2.03135031847621 2.04667857645531
2  66 32 0 2.03135031847621 2.04667857645531
0

0101000
+152 51 -206 51 *
Wi

0101100
-141 47 -205 0 +150 47 *
Fa
0  1.5e-07 37 47

0111000
+140 0 *
Ve
1e-07
186.238031223396 546.9 5.99999999999977
0 0

0101101
*
Ve
1e-07
186.238031223396 572.9 5.99999999999977
0 0

0101101
*
Ed
 1e-07 1 1 0
1  135 0 0 26
0

0101000
-138 51 +137 51 *
Ve
1e-07
186.238031223396 572.9 7.99999999999977
0 0

0101101
*
Ed
 1e-07 1 1 0
1  136 0 0 2
0

0101000
-135 51 +137 51 *
Ed
 1e-07 1 1 0
1  137 0 0 24
0

0101000
+135 51 -146 51 *
Ve
1e-07
186.238031223396 546.9 7.99999999999977
0 0

0101101
*
Ed
 1e-07 1 1 0
1  138 0 2 4
0

0101000
+132 51 -156 51 *
Ed
 1e-07 1 1 0
1  139 0 0 2
0

0101000
+138 51 -132 51 *
Wi

0101100
+136 47 -134 47 -133 47 -145 47 -197 0 +155 47 +131 47 +130 47 *
Fa
0  1e-07 38 47

0111000
+129 0 *
Ed
 1.5e-07 1 1 0
1  140 0 2.03135031847621 2.04667857645531
2  67 32 0 2.03135031847621 2.04667857645531
0

0101000
+154 51 -204 51 *
Wi

0101100
-141 47 +203 0 +127 47 -151 47 *
Fa
0  1e-07 32 47

0111000
+126 0 *
Wi

0101100
-153 47 -201 0 +127 47 *
Fa
0  1.5e-07 39 47

0111000
+124 0 *
Ed
 1e-07 1 1 0
1  141 0 0 48
0

0101000
+132 51 -170 51 *
Ed
 1e-07 1 1 0
1  142 0 0 48
0

0101000
-171 51 +138 51 *
Wi

0101100
-130 0 -122 0 +169 0 +121 0 *
Fa
0  1e-07 40 0

0111000
+120 0 *
Wi

0101100
-122 0 -167 0 +149 0 +131 0 *
Fa
0  1e-07 41 0

0111000
+118 0 *
Ed
 1e-07 1 1 0
1  143 0 0 48
0

0101000
-163 51 +135 51 *
Wi

0101100
-162 0 -116 0 +144 0 +133 0 *
Ve
1e-07
196.238031223396 558.65 7.99999999999977
0 0

0101101
*
Ed
 1e-07 1 1 0
1  144 0 0 6.28318530717959
2  68 43 0 0 6.28318530717959
0

0101100
+114 51 -114 51 *
Wi

0101100
-113 0 *
Ve
1e-07
224.238031223396 558.65 7.99999999999977
0 0

0101101
*
Ed
 1e-07 1 1 0
1  145 0 0 6.28318530717959
2  69 44 0 0 6.28318530717959
0

0101100
+111 51 -111 51 *
Wi

0101100
-110 0 *
Fa
0  1e-07 42 0

0111000
+115 0 +112 0 +109 0 *
Ed
 1e-07 1 1 0
1  146 0 0 48
0

0101000
-161 51 +137 51 *
Wi

0101100
-134 0 -116 0 +160 0 +107 0 *
Fa
0  1e-07 45 0

0111000
+106 0 *
Wi

0101100
-107 0 -159 0 +136 0 +121 0 *
Ve
1e-07
196.238031223396 558.65 5.99999999999977
0 0

0101101
*
Ed
 1e-07 1 1 0
1  147 0 0 6.28318530717959
2  70 43 0 0 6.28318530717959
0

0101100
+103 51 -103 51 *
Wi

0101100
-102 0 *
Ve
1e-07
224.238031223396 558.65 5.99999999999977
0 0

0101101
*
Ed
 1e-07 1 1 0
1  148 0 0 6.28318530717959
2  71 44 0 0 6.28318530717959
0

0101100
+100 51 -100 51 *
Wi

0101100
-99 0 *
Fa
0  1e-07 46 0

0111000
+104 0 +101 0 +98 0 *
Ed
 1e-07 1 1 0
1  149 0 1 3
3  72 73CN 43 0 1 3
0

0101000
+103 51 -114 51 *
Wi

0101100
-113 0 +96 0 +102 0 -96 0 *
Fa
0  1e-07 43 0

0111000
+95 0 *
Ed
 1e-07 1 1 0
1  150 0 1 3
3  74 75CN 44 0 1 3
0

0101000
+100 51 -111 51 *
Wi

0101100
-110 0 +93 0 +99 0 -93 0 *
Fa
0  1e-07 44 0

0111000
+92 0 *
Ve
1e-07
426.238031223396 546.9 5.99999999999977
0 0

0101101
*
Ve
1e-07
426.238031223396 546.9 7.99999999999977
0 0

0101101
*
Ed
 1e-07 1 1 0
1  151 0 0 2
0

0101000
+90 53 -89 53 *
Ve
1e-07
426.238031223396 544.9 7.99999999999977
0 0

0101101
*
Ed
 1e-07 1 1 0
1  152 0 2 4
0

0101000
+89 53 -87 53 *
Ed
 1e-07 1 1 0
1  153 0 0 10
0

0101000
+87 53 -194 53 *
Ve
1e-07
426.238031223396 548.9 7.99999999999977
0 0

0101101
*
Ed
 1e-07 1 1 0
1  154 0 0 10
0

0101000
+84 53 -193 53 *
Ve
1e-07
426.238031223396 572.9 7.99999999999977
0 0

0101101
*
Ed
 1e-07 1 1 0
1  155 0 0 24
0

0101000
+82 53 -84 53 *
Ve
1e-07
426.238031223396 572.9 5.99999999999977
0 0

0101101
*
Ed
 1e-07 1 1 0
1  156 0 0 2
0

0101000
-82 53 +80 53 *
Ed
 1e-07 1 1 0
1  157 0 0 26
0

0101000
-90 53 +80 53 *
Wi

0101100
-88 50 -86 50 -85 50 -192 0 +83 50 +81 50 +79 50 -78 50 *
Fa
0  1e-07 47 50

0111000
+77 0 *
Ve
1e-07
378.238031223396 544.9 7.99999999999977
0 0

0101101
*
Ed
 1e-07 1 1 0
1  158 0 0 10
0

0101000
+75 53 -183 53 *
Ve
1.5e-07
394.238031223396 544.9 17.9688711258505
0 0

0101101
*
Ed
 1.5e-07 1 1 0
1  159 0 2.96887112585068 3
0

0101000
+73 53 -185 53 *
Ve
1.5e-07
410.238031223396 544.9 17.9688711258505
0 0

0101101
*
Ed
 1e-07 1 1 0
1  160 0 0 16
2  76 33 0 0 16
0

0101000
+73 53 -71 53 *
Ed
 1.5e-07 1 1 0
1  161 0 2.96887112585068 3
0

0101000
+71 53 -191 53 *
Ed
 1e-07 1 1 0
1  162 0 0 48
0

0101000
-87 53 +75 53 *
Wi

0101100
-74 50 -182 0 +72 50 -70 50 -69 50 -190 0 +85 50 +68 50 *
Fa
0  1e-07 48 50

0111000
+67 0 *
Ve
1e-07
378.238031223396 548.9 7.99999999999977
0 0

0101101
*
Ed
 1e-07 1 1 0
1  163 0 0 10
0

0101000
+65 53 -181 53 *
Ed
 1e-07 1 1 0
1  164 0 0 48
0

0101000
+65 53 -84 53 *
Wi

0101100
-64 50 -179 0 +83 50 +63 50 *
Fa
0  1e-07 49 50

0111000
+62 0 *
Ed
 1.5e-07 1 1 0
1  165 0 2.03135031847621 2.04667857645531
2  77 33 0 2.03135031847621 2.04667857645531
0

0101000
+71 53 -189 53 *
Wi

0101100
-60 50 -188 0 +69 50 *
Fa
0  1.5e-07 50 50

0111000
+59 0 *
Ve
1e-07
378.238031223396 546.9 5.99999999999977
0 0

0101101
*
Ve
1e-07
378.238031223396 572.9 5.99999999999977
0 0

0101101
*
Ed
 1e-07 1 1 0
1  166 0 0 26
0

0101000
-57 53 +56 53 *
Ve
1e-07
378.238031223396 572.9 7.99999999999977
0 0

0101101
*
Ed
 1e-07 1 1 0
1  167 0 0 2
0

0101000
-54 53 +56 53 *
Ed
 1e-07 1 1 0
1  168 0 0 24
0

0101000
+54 53 -65 53 *
Ve
1e-07
378.238031223396 546.9 7.99999999999977
0 0

0101101
*
Ed
 1e-07 1 1 0
1  169 0 2 4
0

0101000
+51 53 -75 53 *
Ed
 1e-07 1 1 0
1  170 0 0 2
0

0101000
+57 53 -51 53 *
Wi

0101100
+55 50 -53 50 -52 50 -64 50 -180 0 +74 50 +50 50 +49 50 *
Fa
0  1e-07 51 50

0111000
+48 0 *
Ed
 1.5e-07 1 1 0
1  171 0 2.03135031847621 2.04667857645531
2  78 33 0 2.03135031847621 2.04667857645531
0

0101000
+73 53 -187 53 *
Wi

0101100
-60 50 +186 0 +46 50 -70 50 *
Fa
0  1e-07 33 50

0111000
+45 0 *
Wi

0101100
-72 50 -184 0 +46 50 *
Fa
0  1.5e-07 52 50

0111000
+43 0 *
Ed
 1e-07 1 1 0
1  172 0 0 48
0

0101000
+51 53 -89 53 *
Ed
 1e-07 1 1 0
1  173 0 0 48
0

0101000
-90 53 +57 53 *
Wi

0101100
-49 0 -41 0 +88 0 +40 0 *
Fa
0  1e-07 53 0

0111000
+39 0 *
Wi

0101100
-41 0 -86 0 +68 0 +50 0 *
Fa
0  1e-07 54 0

0111000
+37 0 *
Ed
 1e-07 1 1 0
1  174 0 0 48
0

0101000
-82 53 +54 53 *
Wi

0101100
-81 0 -35 0 +63 0 +52 0 *
Ve
1e-07
388.238031223396 558.65 7.99999999999977
0 0

0101101
*
Ed
 1e-07 1 1 0
1  175 0 0 6.28318530717959
2  79 56 0 0 6.28318530717959
0

0101100
+33 53 -33 53 *
Wi

0101100
-32 0 *
Ve
1e-07
416.238031223396 558.65 7.99999999999977
0 0

0101101
*
Ed
 1e-07 1 1 0
1  176 0 0 6.28318530717959
2  80 57 0 0 6.28318530717959
0

0101100
+30 53 -30 53 *
Wi

0101100
-29 0 *
Fa
0  1e-07 55 0

0111000
+34 0 +31 0 +28 0 *
Ed
 1e-07 1 1 0
1  177 0 0 48
0

0101000
-80 53 +56 53 *
Wi

0101100
-53 0 -35 0 +79 0 +26 0 *
Fa
0  1e-07 58 0

0111000
+25 0 *
Wi

0101100
-26 0 -78 0 +55 0 +40 0 *
Ve
1e-07
388.238031223396 558.65 5.99999999999977
0 0

0101101
*
Ed
 1e-07 1 1 0
1  178 0 0 6.28318530717959
2  81 56 0 0 6.28318530717959
0

0101100
+22 53 -22 53 *
Wi

0101100
-21 0 *
Ve
1e-07
416.238031223396 558.65 5.99999999999977
0 0

0101101
*
Ed
 1e-07 1 1 0
1  179 0 0 6.28318530717959
2  82 57 0 0 6.28318530717959
0

0101100
+19 53 -19 53 *
Wi

0101100
-18 0 *
Fa
0  1e-07 59 0

0111000
+23 0 +20 0 +17 0 *
Ed
 1e-07 1 1 0
1  180 0 1 3
3  83 84CN 56 0 1 3
0

0101000
+22 53 -33 53 *
Wi

0101100
-32 0 +15 0 +21 0 -15 0 *
Fa
0  1e-07 56 0

0111000
+14 0 *
Ed
 1e-07 1 1 0
1  181 0 1 3
3  85 86CN 57 0 1 3
0

0101000
+19 53 -30 53 *
Wi

0101100
-29 0 +12 0 +18 0 -12 0 *
Fa
0  1e-07 57 0

0111000
+11 0 *
Wi

0101000
-428 0 +446 4 -219 0 -340 16 *
Fa
0  1.6140899586e-05 60 0

0111000
+9 0 *
Wi

0101000
-401 0 +325 30 +216 0 -332 27 *
Fa
0  1.6140899586e-05 61 0

0111000
+7 0 *
Wi

0101000
-322 30 +397 0 +329 27 -217 0 *
Fa
0  1.6140899586e-05 62 0

0111000
+5 0 *
Sh

0101000
-444 4 -437 4 -430 4 +347 0 +338 16 -336 16 -334 16 -327 27 +320 30 -315 21 
-310 21 -303 23 -298 23 -293 23 +288 23 -283 23 -278 23 -273 23 +270 23 -265 25 
+258 0 -253 0 -248 27 +245 0 -243 0 -238 23 -233 23 -228 25 -223 25 +220 0 
+172 0 -157 43 -147 43 +142 43 -139 43 -128 43 +125 43 -123 43 -119 52 +117 52 
-108 52 +105 52 +97 52 +94 52 +91 52 -76 43 -66 43 +61 43 -58 43 -47 43 
+44 43 -42 43 -38 54 +36 54 -27 54 +24 54 +16 54 +13 54 +10 54 +8 0 
+6 0 +4 0 *
So

0100000
+3 0 *
Co

1100000
+2 0 *

+1 3 