DBRep_DrawableShape

CASCADE Topology V1, (c) Matra-Datavision
Locations 4
1
              1               0               0          14.325 
              0               1               0             -12 
              0               0               1               0 
1
              1               0               0               0 
              0               1               0               0 
              0               0               1               0 
2  1 1 2 1 0
2  1 -1 0
Curve2ds 24
1 0 1 1 0 
1 0 1 1 0 
1 0 1 1 0 
1 0 1 1 0 
1 0 1 1 0 
1 0 1 1 0 
1 0 13 1 0 
1 0 13 1 0 
1 0 13 1 0 
1 0 13 1 0 
1 0 13 1 0 
1 0 13 1 0 
1 6.2831853071795862 -0 0 1 
1 0 -0 0 1 
1 6.2831853071795862 -0 0 1 
1 0 -0 0 1 
1 5.1753437083250446 0 0 1 
1 6.2831853071795862 -0 0 1 
1 0 -0 0 1 
1 1.107841598854542 0 0 1 
1 2.0337510547352511 0 0 1 
1 3.1415926535897931 0 0 1 
1 3.1415926535897931 0 0 1 
1 4.2494342524443347 0 0 1 
Curves 36
1 -14.324999999999989 341.00000000000011 0 0 -1 2.2204460492503136e-16 
1 -14.324999999999989 12.000000000000114 0 0 2.2204460492503136e-16 1 
1 -14.324999999999989 341.00000000000011 12 0 -1 2.2204460492503136e-16 
1 -14.324999999999989 341.00000000000011 0 0 2.2204460492503136e-16 1 
1 -14.324999999999989 341.00000000000011 0 1 0 0 
1 381.67500000000001 341.00000000000011 0 0 -1 2.2204460492503136e-16 
1 -14.324999999999989 12.000000000000114 0 1 0 0 
2 151.67500000000001 205.00000000000011 0 -0 2.2204460492503136e-16 1 0 -1 2.2204460492503136e-16 1 0 0 2.25
2 215.67500000000001 205.00000000000011 0 -0 2.2204460492503136e-16 1 0 -1 2.2204460492503136e-16 1 0 0 2.25
2 333.67500000000001 45.000000000000114 0 -0 2.2204460492503136e-16 1 0 -1 2.2204460492503136e-16 1 0 0 9.5
2 333.67500000000001 45.000000000000114 0 -0 2.2204460492503136e-16 1 0 -1 2.2204460492503136e-16 1 0 0 9.5
1 342.17500000000001 197.75000000000011 0 0 1 -2.2204460492503136e-16 
2 333.67500000000001 45.000000000000114 0 -0 2.2204460492503136e-16 1 0 -1 2.2204460492503136e-16 1 0 0 9.5
2 333.67500000000001 45.000000000000114 0 -0 2.2204460492503136e-16 1 0 -1 2.2204460492503136e-16 1 0 0 9.5
1 325.17500000000001 197.75000000000011 0 0 1 -2.2204460492503136e-16 
1 -14.324999999999989 12.000000000000114 12 1 0 0 
1 381.67500000000001 12.000000000000114 0 0 2.2204460492503136e-16 1 
1 -14.324999999999989 341.00000000000011 12 1 0 0 
1 381.67500000000001 341.00000000000011 12 0 -1 2.2204460492503136e-16 
2 151.67500000000001 205.00000000000011 12 -0 2.2204460492503136e-16 1 0 -1 2.2204460492503136e-16 1 0 0 2.25
2 215.67500000000001 205.00000000000011 12 -0 2.2204460492503136e-16 1 0 -1 2.2204460492503136e-16 1 0 0 2.25
2 333.67500000000001 45.000000000000114 12 -0 2.2204460492503136e-16 1 0 -1 2.2204460492503136e-16 1 0 0 9.5
2 333.67500000000001 45.000000000000114 12 -0 2.2204460492503136e-16 1 0 -1 2.2204460492503136e-16 1 0 0 9.5
1 342.17500000000001 197.75000000000011 12 0 1 -2.2204460492503136e-16 
2 333.67500000000001 45.000000000000114 12 -0 2.2204460492503136e-16 1 0 -1 2.2204460492503136e-16 1 0 0 9.5
2 333.67500000000001 45.000000000000114 12 -0 2.2204460492503136e-16 1 0 -1 2.2204460492503136e-16 1 0 0 9.5
1 325.17500000000001 197.75000000000011 12 0 1 -2.2204460492503136e-16 
1 381.67500000000001 341.00000000000011 0 0 2.2204460492503136e-16 1 
1 151.67500000000001 202.75000000000011 -1 0 2.2204460492503136e-16 1 
1 215.67500000000001 202.75000000000011 -1 0 2.2204460492503136e-16 1 
1 325.17500000000001 40.757359312880851 -1 0 2.2204460492503136e-16 1 
1 333.67500000000001 35.500000000000114 -1 0 2.2204460492503136e-16 1 
1 342.17500000000001 40.757359312880851 -1 0 2.2204460492503136e-16 1 
1 342.17500000000001 49.242640687119376 -1 0 2.2204460492503136e-16 1 
1 333.67500000000001 54.500000000000114 -1 0 2.2204460492503136e-16 1 
1 325.17500000000001 49.242640687119376 -1 0 2.2204460492503136e-16 1 
Polygon3D 0
PolygonOnTriangulations 0
Surfaces 14
1 -14.324999999999989 341.00000000000011 0 1 0 0 0 -1 2.2204460492503136e-16 0 -2.2204460492503136e-16 -1 
1 -14.324999999999989 341.00000000000011 0 0 2.2204460492503136e-16 1 0 -1 2.2204460492503136e-16 1 0 0 
2 151.67500000000001 205.00000000000011 -1 0 2.2204460492503136e-16 1 0 -1 2.2204460492503136e-16 1 0 0 2.25
2 215.67500000000001 205.00000000000011 -1 0 2.2204460492503136e-16 1 0 -1 2.2204460492503136e-16 1 0 0 2.25
2 333.67500000000001 45.000000000000114 -1 0 2.2204460492503136e-16 1 0 -1 2.2204460492503136e-16 1 0 0 9.5
2 333.67500000000001 45.000000000000114 -1 0 2.2204460492503136e-16 1 0 -1 2.2204460492503136e-16 1 0 0 9.5
2 333.67500000000001 45.000000000000114 -1 0 2.2204460492503136e-16 1 0 -1 2.2204460492503136e-16 1 0 0 9.5
2 333.67500000000001 45.000000000000114 -1 0 2.2204460492503136e-16 1 0 -1 2.2204460492503136e-16 1 0 0 9.5
1 -14.324999999999989 12.000000000000114 0 0 -1 2.2204460492503136e-16 1 0 0 0 2.2204460492503136e-16 1 
1 -14.324999999999989 341.00000000000011 12 0 2.2204460492503136e-16 1 0 -1 2.2204460492503136e-16 1 0 0 
1 -14.324999999999989 341.00000000000011 0 0 -1 2.2204460492503136e-16 1 0 0 0 2.2204460492503136e-16 1 
1 381.67500000000001 341.00000000000011 0 1 0 0 0 -1 2.2204460492503136e-16 0 -2.2204460492503136e-16 -1 
1 342.17500000000001 54.500000000000114 -1 1 0 0 0 -1 2.2204460492503136e-16 0 -2.2204460492503136e-16 -1 
1 325.17500000000001 54.500000000000114 -1 1 0 0 0 -1 2.2204460492503136e-16 0 -2.2204460492503136e-16 -1 
Triangulations 0

TShapes 99
Ve
1e-07
0 1.13686837721616e-13 0
0 0

0101101
*
Ve
1e-07
0 329 0
0 0

0101101
*
Ed
 1e-07 1 1 0
1  1 0 0 329
0

0101000
-99 4 +98 4 *
Ve
1e-07
0 1.13686837721616e-13 12
0 0

0101101
*
Ed
 1e-07 1 1 0
1  2 0 0 12
0

0101000
-96 4 +99 4 *
Ve
1e-07
0 329 12
0 0

0101101
*
Ed
 1e-07 1 1 0
1  3 0 0 329
0

0101000
-96 4 +94 4 *
Ed
 1e-07 1 1 0
1  4 0 0 12
0

0101000
-94 4 +98 4 *
Wi

0101100
-97 0 -95 0 +93 0 +92 0 *
Fa
0  1e-07 1 0

0111000
+91 0 *
Ve
1e-07
396 329 0
0 0

0101101
*
Ed
 1e-07 1 1 0
1  5 0 0 396
0

0101000
-89 4 +98 4 *
Ve
1e-07
396 1.13686837721616e-13 0
0 0

0101101
*
Ed
 1e-07 1 1 0
1  6 0 0 329
0

0101000
-87 4 +89 4 *
Ed
 1e-07 1 1 0
1  7 0 0 396
0

0101000
-87 4 +99 4 *
Wi

0101100
-88 0 -86 0 +97 0 +85 0 *
Ve
1e-07
166 190.75 0
0 0

0101101
*
Ed
 1e-07 1 1 0
1  8 0 0 6.28318530717959
2  1 3 0 0 6.28318530717959
0

0101100
+83 4 -83 4 *
Wi

0101100
-82 0 *
Ve
1e-07
230 190.75 0
0 0

0101101
*
Ed
 1e-07 1 1 0
1  9 0 0 6.28318530717959
2  2 4 0 0 6.28318530717959
0

0101100
+80 4 -80 4 *
Wi

0101100
-79 0 *
Ve
1.50000114e-07
339.5 28.7573593128809 0
0 0

0101101
*
Ve
1e-07
348 23.5000000000001 0
0 0

0101101
*
Ed
 1e-07 1 1 0
1  10 0 5.17534370832504 6.28318530717959
2  3 5 0 5.17534370832504 6.28318530717959
0

0101000
+77 4 -76 4 *
Ve
1.50000057e-07
356.5 28.7573593128809 0
0 0

0101101
*
Ed
 1e-07 1 1 0
1  11 0 0 1.10784159885454
2  4 6 0 0 1.10784159885454
0

0101000
+76 4 -74 4 *
Ve
1.50000341e-07
356.5 37.2426406871194 0
0 0

0101101
*
Ed
 1.5e-07 1 1 0
1  12 0 -156.992640687119 -148.50735931288
0

0101000
+74 4 -72 4 *
Ve
1e-07
348 42.5000000000001 0
0 0

0101101
*
Ed
 1e-07 1 1 0
1  13 0 2.03375105473525 3.14159265358979
2  5 7 0 2.03375105473525 3.14159265358979
0

0101000
+72 4 -70 4 *
Ve
1.50000341e-07
339.5 37.2426406871194 0
0 0

0101101
*
Ed
 1e-07 1 1 0
1  14 0 3.14159265358979 4.24943425244433
2  6 8 0 3.14159265358979 4.24943425244433
0

0101000
+70 4 -68 4 *
Ed
 1.5e-07 1 1 0
1  15 0 -156.992640687119 -148.50735931288
0

0101000
+77 4 -68 4 *
Wi

0101100
-75 0 -73 0 -71 0 -69 0 -67 0 +66 0 *
Fa
0  1e-07 2 0

0111000
+84 0 +81 0 +78 0 +65 0 *
Ve
1e-07
396 1.13686837721616e-13 12
0 0

0101101
*
Ed
 1e-07 1 1 0
1  16 0 0 396
0

0101000
-63 4 +96 4 *
Ed
 1e-07 1 1 0
1  17 0 0 12
0

0101000
-63 4 +87 4 *
Wi

0101100
-95 0 -62 0 +61 0 +85 0 *
Fa
0  1e-07 9 0

0111000
+60 0 *
Ve
1e-07
396 329 12
0 0

0101101
*
Ed
 1e-07 1 1 0
1  18 0 0 396
0

0101000
-58 4 +94 4 *
Ed
 1e-07 1 1 0
1  19 0 0 329
0

0101000
-63 4 +58 4 *
Wi

0101100
-57 0 -56 0 +93 0 +62 0 *
Ve
1e-07
166 190.75 12
0 0

0101101
*
Ed
 1e-07 1 1 0
1  20 0 0 6.28318530717959
2  7 3 0 0 6.28318530717959
0

0101100
+54 4 -54 4 *
Wi

0101100
-53 0 *
Ve
1e-07
230 190.75 12
0 0

0101101
*
Ed
 1e-07 1 1 0
1  21 0 0 6.28318530717959
2  8 4 0 0 6.28318530717959
0

0101100
+51 4 -51 4 *
Wi

0101100
-50 0 *
Ve
1.50000114e-07
339.5 28.7573593128809 12
0 0

0101101
*
Ve
1e-07
348 23.5000000000001 12
0 0

0101101
*
Ed
 1e-07 1 1 0
1  22 0 5.17534370832504 6.28318530717959
2  9 5 0 5.17534370832504 6.28318530717959
0

0101000
+48 4 -47 4 *
Ve
1.50000057e-07
356.5 28.7573593128809 12
0 0

0101101
*
Ed
 1e-07 1 1 0
1  23 0 0 1.10784159885454
2  10 6 0 0 1.10784159885454
0

0101000
+47 4 -45 4 *
Ve
1.50000341e-07
356.5 37.2426406871194 12
0 0

0101101
*
Ed
 1.5e-07 1 1 0
1  24 0 -156.992640687119 -148.50735931288
0

0101000
+45 4 -43 4 *
Ve
1e-07
348 42.5000000000001 12
0 0

0101101
*
Ed
 1e-07 1 1 0
1  25 0 2.03375105473525 3.14159265358979
2  11 7 0 2.03375105473525 3.14159265358979
0

0101000
+43 4 -41 4 *
Ve
1.50000341e-07
339.5 37.2426406871194 12
0 0

0101101
*
Ed
 1e-07 1 1 0
1  26 0 3.14159265358979 4.24943425244433
2  12 8 0 3.14159265358979 4.24943425244433
0

0101000
+41 4 -39 4 *
Ed
 1.5e-07 1 1 0
1  27 0 -156.992640687119 -148.50735931288
0

0101000
+48 4 -39 4 *
Wi

0101100
-46 0 -44 0 -42 0 -40 0 -38 0 +37 0 *
Fa
0  1e-07 10 0

0111000
+55 0 +52 0 +49 0 +36 0 *
Ed
 1e-07 1 1 0
1  28 0 0 12
0

0101000
-58 4 +89 4 *
Wi

0101100
-92 0 -57 0 +34 0 +88 0 *
Fa
0  1e-07 11 0

0111000
+33 0 *
Wi

0101100
-86 0 -61 0 +56 0 +34 0 *
Fa
0  1e-07 12 0

0111000
+31 0 *
Ed
 1e-07 1 1 0
1  29 0 1 13
3  13 14CN 3 0 1 13
0

0101000
+83 4 -54 4 *
Wi

0101100
-53 0 +29 0 +82 0 -29 0 *
Fa
0  1e-07 3 0

0111000
+28 0 *
Ed
 1e-07 1 1 0
1  30 0 1 13
3  15 16CN 4 0 1 13
0

0101000
+80 4 -51 4 *
Wi

0101100
-50 0 +26 0 +79 0 -26 0 *
Fa
0  1e-07 4 0

0111000
+25 0 *
Ed
 1e-07 1 1 0
1  31 0 1 13
2  17 5 0 1 13
0

0101000
+77 4 -48 4 *
Ed
 1e-07 1 1 0
1  32 0 1 13
2  18 5 0 1 13
2  19 6 0 1 13
4 CN 5 0 6 0
0

0101000
+76 4 -47 4 *
Wi

0101100
+75 0 -23 0 -46 0 +22 0 *
Fa
0  1e-07 5 0

0111000
+21 0 *
Ed
 1e-07 1 1 0
1  33 0 1 13
2  20 6 0 1 13
0

0101000
+74 4 -45 4 *
Wi

0101100
-44 0 +19 0 +73 0 -22 0 *
Fa
0  1e-07 6 0

0111000
+18 0 *
Ed
 1e-07 1 1 0
1  34 0 1 13
2  21 7 0 1 13
0

0101000
+72 4 -43 4 *
Wi

0101100
+71 0 -19 0 -42 0 +16 0 *
Fa
0  1e-07 13 0

0111000
+15 0 *
Ed
 1e-07 1 1 0
1  35 0 1 13
2  22 7 0 1 13
2  23 8 0 1 13
0

0101000
+70 4 -41 4 *
Wi

0101100
-40 0 +13 0 +69 0 -16 0 *
Fa
0  1e-07 7 0

0111000
+12 0 *
Ed
 1e-07 1 1 0
1  36 0 1 13
2  24 8 0 1 13
0

0101000
+68 4 -39 4 *
Wi

0101100
+67 0 -13 0 -38 0 +10 0 *
Fa
0  1e-07 8 0

0111000
+9 0 *
Wi

0101100
+66 0 -23 0 -37 0 +10 0 *
Fa
0  1e-07 14 0

0111000
+7 0 *
Sh

0101100
-90 0 -64 0 +59 0 +35 0 -32 0 +30 0 -27 0 -24 0 -20 0 -17 0 
-14 0 -11 0 -8 0 +6 0 *
So

0100000
+5 0 *
Co

0100000
+4 0 *
Co

0100000
+3 0 *
Co

1100000
+2 0 *

+1 3 