DBRep_DrawableShape

CASCADE Topology V1, (c) Matra-Datavision
Locations 16
1
              1               0               0               0 
              0               1               0               0 
              0               0               1               0 
1
              1               0               0               0 
              0               1               0               0 
              0               0               1               0 
2  1 1 2 1 0
1
              1               0               0               0 
              0               1               0               0 
              0               0               1               0 
1
              1               0               0               0 
              0               1               0             -35 
              0               0               1               0 
1
              1               0               0               0 
              0               1               0               0 
              0               0               1               0 
2  4 1 5 1 6 1 0
2  1 -1 6 -1 5 -1 4 -1 0
2  1 -1 0
1
              1               0               0          14.325 
              0               1               0               0 
              0               0               1               0 
1
              1               0               0          14.325 
              0               1               0               0 
              0               0               1               0 
2  4 1 5 1 6 1 10 1 11 1 0
2  1 -1 11 -1 10 -1 6 -1 5 -1 4 -1 0
2  1 -1 6 -1 0
2  6 1 10 1 11 1 0
2  1 -1 11 -1 10 -1 6 -1 0
Curve2ds 16
1 0 13 1 0 
1 0 13 1 0 
1 0 13 1 0 
1 0 13 1 0 
1 6.2831853071795862 -0 0 1 
1 0 -0 0 1 
1 0 1 1 0 
1 6.2831853071795862 -0 0 1 
1 0 -0 0 1 
1 0 1 1 0 
1 6.2831853071795862 -0 0 1 
1 0 -0 0 1 
1 0 1 1 0 
1 6.2831853071795862 -0 0 1 
1 0 -0 0 1 
1 0 1 1 0 
Curves 24
1 560 35 11.999999999999972 0 0 -1 
1 560 35 -2.8421709430404007e-14 0 1 0 
1 560 185 11.999999999999972 0 0 -1 
1 560 35 11.999999999999972 0 1 0 
1 560 0 11.999999999999972 -1 0 0 
1 -57.299999999999955 35 11.999999999999972 0 0 -1 
1 531.35000000000002 0 -2.8421709430404007e-14 -1 0 0 
1 -57.299999999999955 35 -2.8421709430404007e-14 0 1 0 
1 -57.299999999999955 185 11.999999999999972 0 0 -1 
1 -57.299999999999955 35 11.999999999999972 0 1 0 
1 531.35000000000002 150 -2.8421709430404007e-14 -1 0 0 
2 532 25 -2.8421709430404007e-14 0 0 -1 -1 0 0 0 1 0 2.75
2 532 100 -2.8421709430404007e-14 0 0 -1 -1 0 0 0 1 0 2.75
2 -29.299999999999955 25 -2.8421709430404007e-14 0 0 -1 -1 0 0 0 1 0 2.75
2 -29.299999999999955 100 -2.8421709430404007e-14 0 0 -1 -1 0 0 0 1 0 2.75
1 529.25 25 12.999999999999972 0 0 -1 
2 532 25 11.999999999999972 0 0 -1 -1 0 0 0 1 0 2.75
1 529.25 100 12.999999999999972 0 0 -1 
2 532 100 11.999999999999972 0 0 -1 -1 0 0 0 1 0 2.75
1 -32.049999999999955 25 12.999999999999972 0 0 -1 
2 -29.299999999999955 25 11.999999999999972 0 0 -1 -1 0 0 0 1 0 2.75
1 -32.049999999999955 100 12.999999999999972 0 0 -1 
2 -29.299999999999955 100 11.999999999999972 0 0 -1 -1 0 0 0 1 0 2.75
1 545.67499999999995 150 11.999999999999972 -1 0 0 
Polygon3D 0
PolygonOnTriangulations 0
Surfaces 10
1 560 35 11.999999999999972 -1 0 0 0 0 -1 0 -1 0 
1 265.67500000000007 -1.1368683772161603e-13 5.9999999999999716 0 -1 0 0 0 1 -1 0 0 
1 -57.299999999999955 35 11.999999999999972 -1 0 0 0 0 -1 0 -1 0 
1 265.6749999999999 75.000000000000114 -1.1368683772161603e-13 0 0 -1 -1 0 0 0 1 0 
2 532 25 12.999999999999972 0 0 -1 -1 0 0 0 1 0 2.75
2 532 100 12.999999999999972 0 0 -1 -1 0 0 0 1 0 2.75
2 -29.299999999999955 25 12.999999999999972 0 0 -1 -1 0 0 0 1 0 2.75
2 -29.299999999999955 100 12.999999999999972 0 0 -1 -1 0 0 0 1 0 2.75
1 265.67500000000007 75 11.999999999999972 0 -0 1 1 0 0 0 1 0 
1 265.67500000000007 150 5.9999999999999432 0 1 0 0 0 -1 -1 0 0 
Triangulations 0

TShapes 71
Ve
2.00000114e-07
560 0 -2.8421709430404e-14
0 0

0101101
*
Ve
2.00000114e-07
560 0 12
0 0

0101101
*
Ed
 2.00000114e-07 1 1 0
1  1 0 0 12
0

0101000
-71 8 +70 8 *
Ve
2.00000114e-07
560 150 -2.8421709430404e-14
0 0

0101101
*
Ed
 2.00000114e-07 1 1 0
1  2 0 0 150
0

0101000
-68 8 +71 8 *
Ve
2.00000114e-07
560 150 12
0 0

0101101
*
Ed
 2.00000114e-07 1 1 0
1  3 0 0 12
0

0101000
-68 8 +66 8 *
Ed
 2.00000114e-07 1 1 0
1  4 0 0 150
0

0101000
-66 8 +70 8 *
Wi

0101100
-69 0 -67 0 +65 0 +64 0 *
Fa
0  1e-07 1 0

0111000
+63 0 *
Ve
2.00000114e-07
-28.6500000000001 0 12
0 0

0101101
*
Ed
 1e-07 1 1 0
1  5 0 0 588.65
0

0101000
+70 9 -61 9 *
Ve
2.00000114e-07
-28.6500000000001 0 -2.8421709430404e-14
0 0

0101101
*
Ed
 2.00000114e-07 1 1 0
1  6 0 0 12
0

0101000
-59 13 +61 13 *
Ed
 1e-07 1 1 0
1  7 0 -28.65 560
0

0101000
+71 9 -59 9 *
Wi

0101000
-69 7 +60 0 +58 12 -57 0 *
Fa
0  2.00000114e-07 2 0

0111000
+56 0 *
Ve
2.00000114e-07
-28.6500000000001 150 -2.8421709430404e-14
0 0

0101101
*
Ed
 2.00000114e-07 1 1 0
1  8 0 0 150
0

0101000
-54 13 +59 13 *
Ve
2.00000114e-07
-28.6500000000001 150 12
0 0

0101101
*
Ed
 2.00000114e-07 1 1 0
1  9 0 0 12
0

0101000
-54 13 +52 13 *
Ed
 2.00000114e-07 1 1 0
1  10 0 0 150
0

0101000
-52 13 +61 13 *
Wi

0101100
-58 0 -53 0 +51 0 +50 0 *
Fa
0  1e-07 3 0

0111000
+49 0 *
Ed
 1e-07 1 1 0
1  11 0 -28.65 560
0

0101000
+68 9 -54 9 *
Wi

0101000
-67 7 +57 0 +53 12 -47 0 *
Ve
1e-07
529.25 25 -2.8421709430404e-14
0 0

0101101
*
Ed
 1e-07 1 1 0
1  12 0 0 6.28318530717959
2  1 5 0 0 6.28318530717959
0

0101100
+45 14 -45 14 *
Wi

0101100
-44 6 *
Ve
1e-07
529.25 100 -2.8421709430404e-14
0 0

0101101
*
Ed
 1e-07 1 1 0
1  13 0 0 6.28318530717959
2  2 6 0 0 6.28318530717959
0

0101100
+42 14 -42 14 *
Wi

0101100
-41 6 *
Ve
1e-07
-3.40000000000009 25 -2.8421709430404e-14
0 0

0101101
*
Ed
 1e-07 1 1 0
1  14 0 0 6.28318530717959
2  3 7 0 0 6.28318530717959
0

0101100
+39 16 -39 16 *
Wi

0101100
-38 15 *
Ve
1e-07
-3.40000000000009 100 -2.8421709430404e-14
0 0

0101101
*
Ed
 1e-07 1 1 0
1  15 0 0 6.28318530717959
2  4 8 0 0 6.28318530717959
0

0101100
+36 16 -36 16 *
Wi

0101100
-35 15 *
Fa
0  2.00000114e-07 4 0

0111000
+46 0 +43 0 +40 0 +37 0 +34 0 *
Ve
1e-07
529.25 25 12
0 0

0101101
*
Ed
 1e-07 1 1 0
1  16 0 1 13
3  5 6CN 5 0 1 13
0

0101000
+32 14 -45 14 *
Ed
 1e-07 1 1 0
1  17 0 0 6.28318530717959
2  7 5 0 0 6.28318530717959
0

0101100
+32 14 -32 14 *
Wi

0101100
-44 0 +31 0 +30 0 -31 0 *
Fa
0  1e-07 5 0

0111000
+29 0 *
Ve
1e-07
529.25 100 12
0 0

0101101
*
Ed
 1e-07 1 1 0
1  18 0 1 13
3  8 9CN 6 0 1 13
0

0101000
+27 14 -42 14 *
Ed
 1e-07 1 1 0
1  19 0 0 6.28318530717959
2  10 6 0 0 6.28318530717959
0

0101100
+27 14 -27 14 *
Wi

0101100
-41 0 +26 0 +25 0 -26 0 *
Fa
0  1e-07 6 0

0111000
+24 0 *
Ve
1e-07
-3.40000000000009 25 12
0 0

0101101
*
Ed
 1e-07 1 1 0
1  20 0 1 13
3  11 12CN 7 0 1 13
0

0101000
+22 16 -39 16 *
Ed
 1e-07 1 1 0
1  21 0 0 6.28318530717959
2  13 7 0 0 6.28318530717959
0

0101100
+22 16 -22 16 *
Wi

0101100
-38 0 +21 0 +20 0 -21 0 *
Fa
0  1e-07 7 0

0111000
+19 0 *
Ve
1e-07
-3.40000000000009 100 12
0 0

0101101
*
Ed
 1e-07 1 1 0
1  22 0 1 13
3  14 15CN 8 0 1 13
0

0101000
+17 16 -36 16 *
Ed
 1e-07 1 1 0
1  23 0 0 6.28318530717959
2  16 8 0 0 6.28318530717959
0

0101100
+17 16 -17 16 *
Wi

0101100
-35 0 +16 0 +15 0 -16 0 *
Fa
0  1e-07 8 0

0111000
+14 0 *
Ed
 1e-07 1 1 0
1  24 0 -14.325 574.325
0

0101000
+66 9 -52 9 *
Wi

0101000
+64 7 +12 0 -50 12 -60 0 *
Wi

0101100
+30 6 *
Wi

0101100
+25 6 *
Wi

0101100
+20 15 *
Wi

0101100
+15 15 *
Fa
0  2.00000114e-07 9 0

0111000
+11 0 +10 0 +9 0 +8 0 +7 0 *
Wi

0101000
+65 7 +47 0 -51 12 -12 0 *
Fa
0  2.00000114e-07 10 0

0111000
+5 0 *
Sh

0101000
-62 7 +55 0 +48 12 +33 0 -28 6 -23 6 -18 15 -13 15 +6 0 +4 0 
*
So

0100000
+3 0 *
Co

1100000
+2 0 *

+1 3 