DBRep_DrawableShape

CASCADE Topology V1, (c) Matra-Datavision
Locations 11
1
              1               0               0               0 
              0               1               0               0 
              0               0               1               0 
1
              1               0               0               0 
              0               1               0               0 
              0               0               1               0 
2  1 1 2 1 0
1
              1               0               0               0 
              0               1               0               0 
              0               0               1               0 
2  1 -1 4 -1 0
2  1 -1 0
1
              1               0               0           539.6 
              0               1               0               0 
              0               0               1               0 
1
              1               0               0          14.325 
              0               1               0               0 
              0               0               1               0 
1
              1               0               0          14.325 
              0               1               0               0 
              0               0               1               0 
2  7 1 4 1 8 1 9 1 0
2  1 -1 9 -1 8 -1 4 -1 7 -1 0
Curve2ds 0
Curves 12
1 0 81.571830985915426 0 0 2.2204460492503131e-16 1 
1 0 81.571830985915483 18 0 -1 2.2204460492503131e-16 
1 0 0 18 0 0.17204376626835369 -0.98508930685912943 
1 0 3.1436619718309089 0 0 1 -2.2204460492503131e-16 
1 0 81.571830985915483 18 1 0 0 
1 -4.6185277824406512e-14 81.571830985915426 0 0 2.2204460492503131e-16 1 
1 28.649999999999981 81.571830985915426 0 1 0 0 
1 -4.6185277824406512e-14 81.571830985915483 18 0 -1 2.2204460492503131e-16 
1 -4.6185277824406512e-14 0 18 0 0.17204376626835369 -0.98508930685912943 
1 -4.6185277824406512e-14 3.1436619718309089 0 0 1 -2.2204460492503131e-16 
1 0 0 18 1 0 0 
1 14.324999999999992 3.1436619718309089 0 1 0 0 
Polygon3D 0
PolygonOnTriangulations 0
Surfaces 6
1 3.5527136788005009e-15 41.50371724367227 9.1441514437211708 1 0 0 0 -1 2.2204460492503131e-16 0 -2.2204460492503131e-16 -1 
1 284.125 81.571830985915426 9.0000000000000568 -0 1 -2.2204460492503131e-16 -1 0 0 0 2.2204460492503131e-16 1 
1 -4.2632564145606011e-14 41.50371724367227 9.1441514437211708 1 0 0 0 -1 2.2204460492503131e-16 0 -2.2204460492503131e-16 -1 
1 284.125 40.785915492957656 18.000000000000114 0 2.2204460492503131e-16 1 0 -1 2.2204460492503131e-16 1 0 0 
1 284.125 1.5718309859154829 9 0 -0.98508930685912943 -0.17204376626835371 0 -0.17204376626835371 0.98508930685912943 -1 0 0 
1 284.12499999999994 42.35774647887331 -5.6843418860808015e-14 -0 -2.2204460492503131e-16 -1 0 1 -2.2204460492503131e-16 1 0 0 
Triangulations 0

TShapes 35
Ve
2.00000057e-07
0 81.5718309859154 0
0 0

0101101
*
Ve
2.00000057e-07
0 81.5718309859155 18
0 0

0101101
*
Ed
 2.00000057e-07 1 1 0
1  1 0 0 18
0

0101000
+35 5 -34 5 *
Ve
2.00000057e-07
0 0 18
0 0

0101101
*
Ed
 2.00000057e-07 1 1 0
1  2 0 0 81.5718309859155
0

0101000
+34 5 -32 5 *
Ve
2.00000057e-07
0 3.14366197183091 0
0 0

0101101
*
Ed
 2.00000057e-07 1 1 0
1  3 0 0 18.2724549689727
0

0101000
+32 5 -30 5 *
Ed
 2.00000057e-07 1 1 0
1  4 0 0 78.4281690140845
0

0101000
+30 5 -35 5 *
Wi

0101100
+33 0 +31 0 +29 0 +28 0 *
Fa
0  1e-07 1 0

0111000
+27 0 *
Ve
2.00000057e-07
568.25 81.5718309859155 18
0 0

0101101
*
Ed
 1e-07 1 1 0
1  5 0 0 568.25
0

0101000
+34 6 -25 6 *
Ve
2.00000057e-07
568.25 81.5718309859154 0
0 0

0101101
*
Ed
 2.00000057e-07 1 1 0
1  6 0 0 18
0

0101000
+23 11 -25 11 *
Ed
 1e-07 1 1 0
1  7 0 -28.65 539.6
0

0101000
+35 6 -23 6 *
Wi

0101000
+33 4 +24 0 -22 10 -21 0 *
Fa
0  2.00000057e-07 2 0

0111000
+20 0 *
Ve
2.00000057e-07
568.25 0 18
0 0

0101101
*
Ed
 2.00000057e-07 1 1 0
1  8 0 0 81.5718309859155
0

0101000
+25 11 -18 11 *
Ve
2.00000057e-07
568.25 3.14366197183091 0
0 0

0101101
*
Ed
 2.00000057e-07 1 1 0
1  9 0 0 18.2724549689727
0

0101000
+18 11 -16 11 *
Ed
 2.00000057e-07 1 1 0
1  10 0 0 78.4281690140845
0

0101000
+16 11 -23 11 *
Wi

0101100
+22 0 +17 0 +15 0 +14 0 *
Fa
0  1e-07 3 0

0111000
+13 0 *
Ed
 1e-07 1 1 0
1  11 0 0 568.25
0

0101000
+32 6 -18 6 *
Wi

0101000
-24 0 +31 4 +11 0 -17 10 *
Fa
0  2.00000057e-07 4 0

0111000
+10 0 *
Ed
 1e-07 1 1 0
1  12 0 -14.325 553.925
0

0101000
+30 6 -16 6 *
Wi

0101000
-11 0 +29 4 +8 0 -15 10 *
Fa
0  2.00000057e-07 5 0

0111000
+7 0 *
Wi

0101000
-8 0 +28 4 +21 0 -14 10 *
Fa
0  2.00000057e-07 6 0

0111000
+5 0 *
Sh

0101000
-26 4 +19 0 +12 10 +9 0 +6 0 +4 0 *
So

0100000
+3 0 *
Co

1100000
+2 0 *

+1 3 