DBRep_DrawableShape

CASCADE Topology V1, (c) Matra-Datavision
Locations 4
1
              1               0               0           28.65 
              0               1               0               0 
              0               0               1               0 
1
              1               0               0               0 
              0               1               0               0 
              0               0               1               0 
2  1 1 2 1 0
2  1 -1 0
Curve2ds 40
1 0 1 1 0 
1 0 1 1 0 
1 0 1 1 0 
1 0 1 1 0 
1 0 1 1 0 
1 0 1 1 0 
1 0 1 1 0 
1 0 1 1 0 
1 0 1 1 0 
1 0 1 1 0 
1 0 19 1 0 
1 6.2831853071795862 -0 0 1 
1 0 -0 0 1 
1 0 19 1 0 
1 6.2831853071795862 -0 0 1 
1 0 -0 0 1 
1 0 19 1 0 
1 6.2831853071795862 -0 0 1 
1 0 -0 0 1 
1 0 19 1 0 
1 6.2831853071795862 -0 0 1 
1 0 -0 0 1 
1 0 19 1 0 
1 6.2831853071795862 -0 0 1 
1 0 -0 0 1 
1 0 19 1 0 
1 6.2831853071795862 -0 0 1 
1 0 -0 0 1 
1 0 19 1 0 
1 6.2831853071795862 -0 0 1 
1 0 -0 0 1 
1 0 19 1 0 
1 6.2831853071795862 -0 0 1 
1 0 -0 0 1 
1 0 19 1 0 
1 6.2831853071795862 -0 0 1 
1 0 -0 0 1 
1 0 19 1 0 
1 6.2831853071795862 -0 0 1 
1 0 -0 0 1 
Curves 54
1 -28.64999999999992 0 1.1368683772161603e-13 0 1 0 
1 116.35000000000008 0 1.1368683772161603e-13 -1 0 2.2204460492503131e-16 
1 96.35000000000008 20.799999999999955 1.1368683772161603e-13 -1 0 2.2204460492503131e-16 
1 116.35000000000008 0 1.1368683772161603e-13 0 1 0 
1 96.35000000000008 20.799999999999955 1.1368683772161603e-13 0 1 0 
1 116.35000000000008 60 1.1368683772161603e-13 -1 0 2.2204460492503131e-16 
1 96.35000000000008 39.199999999999932 1.1368683772161603e-13 -1 0 2.2204460492503131e-16 
1 -28.64999999999992 0 1.1368683772161603e-13 0 1 0 
2 103.35000000000008 50 1.1368683772161603e-13 2.2204460492503131e-16 0 1 -1 0 2.2204460492503131e-16 0 -1 0 2.75
2 93.35000000000008 50 1.1368683772161603e-13 2.2204460492503131e-16 0 1 -1 0 2.2204460492503131e-16 0 -1 0 2.75
2 83.35000000000008 50 1.1368683772161603e-13 2.2204460492503131e-16 0 1 -1 0 2.2204460492503131e-16 0 -1 0 2.75
2 51.35000000000008 52 1.1368683772161603e-13 2.2204460492503131e-16 0 1 -1 0 2.2204460492503131e-16 0 -1 0 2.75
2 -3.6499999999999204 52 1.1368683772161603e-13 2.2204460492503131e-16 0 1 -1 0 2.2204460492503131e-16 0 -1 0 2.75
2 103.35000000000008 10 1.1368683772161603e-13 2.2204460492503131e-16 0 1 -1 0 2.2204460492503131e-16 0 -1 0 2.75
2 93.35000000000008 10 1.1368683772161603e-13 2.2204460492503131e-16 0 1 -1 0 2.2204460492503131e-16 0 -1 0 2.75
2 83.35000000000008 10 1.1368683772161603e-13 2.2204460492503131e-16 0 1 -1 0 2.2204460492503131e-16 0 -1 0 2.75
2 51.35000000000008 8 1.1368683772161603e-13 2.2204460492503131e-16 0 1 -1 0 2.2204460492503131e-16 0 -1 0 2.75
2 -3.6499999999999204 8 1.1368683772161603e-13 2.2204460492503131e-16 0 1 -1 0 2.2204460492503131e-16 0 -1 0 2.75
1 -28.64999999999992 20.799999999999955 1.1368683772161603e-13 -2.2204460492503131e-16 0 -1 
1 -28.64999999999992 10.399999999999977 6.0000000000001137 0 1 0 
1 -28.64999999999992 39.199999999999932 1.1368683772161603e-13 -2.2204460492503131e-16 0 -1 
1 -28.64999999999992 60 1.1368683772161603e-13 2.2204460492503131e-16 0 1 
1 -28.64999999999992 0 18.000000000000114 0 1 0 
1 -28.64999999999992 0 1.1368683772161603e-13 2.2204460492503131e-16 0 1 
1 116.35000000000008 0 1.1368683772161603e-13 2.2204460492503131e-16 0 1 
1 116.35000000000008 0 18.000000000000114 -1 0 2.2204460492503131e-16 
1 96.35000000000008 20.799999999999955 1.1368683772161603e-13 2.2204460492503131e-16 0 1 
1 96.35000000000008 20.799999999999955 6.0000000000001137 -1 0 2.2204460492503131e-16 
1 116.35000000000008 60 1.1368683772161603e-13 2.2204460492503131e-16 0 1 
1 116.35000000000008 0 18.000000000000114 0 1 0 
1 96.35000000000008 39.199999999999932 1.1368683772161603e-13 2.2204460492503131e-16 0 1 
1 96.35000000000008 20.799999999999955 6.0000000000001137 0 1 0 
1 116.35000000000008 60 18.000000000000114 -1 0 2.2204460492503131e-16 
1 96.35000000000008 39.199999999999932 6.0000000000001137 -1 0 2.2204460492503131e-16 
2 103.35000000000008 50 18.000000000000114 2.2204460492503131e-16 0 1 -1 0 2.2204460492503131e-16 0 -1 0 2.75
1 100.60000000000008 50 -0.99999999999988631 2.2204460492503131e-16 0 1 
2 93.35000000000008 50 18.000000000000114 2.2204460492503131e-16 0 1 -1 0 2.2204460492503131e-16 0 -1 0 2.75
1 90.60000000000008 50 -0.99999999999988631 2.2204460492503131e-16 0 1 
2 83.35000000000008 50 18.000000000000114 2.2204460492503131e-16 0 1 -1 0 2.2204460492503131e-16 0 -1 0 2.75
1 80.60000000000008 50 -0.99999999999988631 2.2204460492503131e-16 0 1 
2 51.35000000000008 52 18.000000000000114 2.2204460492503131e-16 0 1 -1 0 2.2204460492503131e-16 0 -1 0 2.75
1 48.60000000000008 52 -0.99999999999988631 2.2204460492503131e-16 0 1 
2 -3.6499999999999204 52 18.000000000000114 2.2204460492503131e-16 0 1 -1 0 2.2204460492503131e-16 0 -1 0 2.75
1 -6.3999999999999204 52 -0.99999999999988631 2.2204460492503131e-16 0 1 
2 103.35000000000008 10 18.000000000000114 2.2204460492503131e-16 0 1 -1 0 2.2204460492503131e-16 0 -1 0 2.75
1 100.60000000000008 10 -0.99999999999988631 2.2204460492503131e-16 0 1 
2 93.35000000000008 10 18.000000000000114 2.2204460492503131e-16 0 1 -1 0 2.2204460492503131e-16 0 -1 0 2.75
1 90.60000000000008 10 -0.99999999999988631 2.2204460492503131e-16 0 1 
2 83.35000000000008 10 18.000000000000114 2.2204460492503131e-16 0 1 -1 0 2.2204460492503131e-16 0 -1 0 2.75
1 80.60000000000008 10 -0.99999999999988631 2.2204460492503131e-16 0 1 
2 51.35000000000008 8 18.000000000000114 2.2204460492503131e-16 0 1 -1 0 2.2204460492503131e-16 0 -1 0 2.75
1 48.60000000000008 8 -0.99999999999988631 2.2204460492503131e-16 0 1 
2 -3.6499999999999204 8 18.000000000000114 2.2204460492503131e-16 0 1 -1 0 2.2204460492503131e-16 0 -1 0 2.75
1 -6.3999999999999204 8 -0.99999999999988631 2.2204460492503131e-16 0 1 
Polygon3D 0
PolygonOnTriangulations 0
Surfaces 20
1 116.35000000000008 0 1.1368683772161603e-13 2.2204460492503131e-16 0 1 -1 0 2.2204460492503131e-16 0 -1 0 
2 103.35000000000008 50 -0.99999999999988631 2.2204460492503131e-16 0 1 -1 0 2.2204460492503131e-16 0 -1 0 2.75
2 93.35000000000008 50 -0.99999999999988631 2.2204460492503131e-16 0 1 -1 0 2.2204460492503131e-16 0 -1 0 2.75
2 83.35000000000008 50 -0.99999999999988631 2.2204460492503131e-16 0 1 -1 0 2.2204460492503131e-16 0 -1 0 2.75
2 51.35000000000008 52 -0.99999999999988631 2.2204460492503131e-16 0 1 -1 0 2.2204460492503131e-16 0 -1 0 2.75
2 -3.6499999999999204 52 -0.99999999999988631 2.2204460492503131e-16 0 1 -1 0 2.2204460492503131e-16 0 -1 0 2.75
2 103.35000000000008 10 -0.99999999999988631 2.2204460492503131e-16 0 1 -1 0 2.2204460492503131e-16 0 -1 0 2.75
2 93.35000000000008 10 -0.99999999999988631 2.2204460492503131e-16 0 1 -1 0 2.2204460492503131e-16 0 -1 0 2.75
2 83.35000000000008 10 -0.99999999999988631 2.2204460492503131e-16 0 1 -1 0 2.2204460492503131e-16 0 -1 0 2.75
2 51.35000000000008 8 -0.99999999999988631 2.2204460492503131e-16 0 1 -1 0 2.2204460492503131e-16 0 -1 0 2.75
2 -3.6499999999999204 8 -0.99999999999988631 2.2204460492503131e-16 0 1 -1 0 2.2204460492503131e-16 0 -1 0 2.75
1 -28.64999999999992 0 1.1368683772161603e-13 -1 0 2.2204460492503131e-16 2.2204460492503131e-16 0 1 0 1 0 
1 116.35000000000008 0 1.1368683772161603e-13 0 1 0 -1 0 2.2204460492503131e-16 2.2204460492503131e-16 0 1 
1 96.35000000000008 20.799999999999955 1.1368683772161603e-13 0 1 0 -1 0 2.2204460492503131e-16 2.2204460492503131e-16 0 1 
1 116.35000000000008 0 1.1368683772161603e-13 -1 0 2.2204460492503131e-16 2.2204460492503131e-16 0 1 0 1 0 
1 96.35000000000008 20.799999999999955 1.1368683772161603e-13 -1 0 2.2204460492503131e-16 2.2204460492503131e-16 0 1 0 1 0 
1 116.35000000000008 60 1.1368683772161603e-13 0 1 0 -1 0 2.2204460492503131e-16 2.2204460492503131e-16 0 1 
1 96.35000000000008 39.199999999999932 1.1368683772161603e-13 0 1 0 -1 0 2.2204460492503131e-16 2.2204460492503131e-16 0 1 
1 96.35000000000008 20.799999999999955 6.0000000000001137 2.2204460492503131e-16 0 1 -1 0 2.2204460492503131e-16 0 -1 0 
1 116.35000000000008 0 18.000000000000114 2.2204460492503131e-16 0 1 -1 0 2.2204460492503131e-16 0 -1 0 
Triangulations 0

TShapes 163
Ve
1e-07
5.6843418860808e-14 0 1.13686837721616e-13
0 0

0101101
*
Ve
1.5e-07
5.6843418860808e-14 20.8 1.13686837721616e-13
0 0

0101101
*
Ed
 1e-07 1 1 0
1  1 0 0 20.8
0

0101000
+163 4 -162 4 *
Ve
1e-07
145 0 1.13686837721616e-13
0 0

0101101
*
Ed
 1e-07 1 1 0
1  2 0 0 145
0

0101000
-163 4 +160 4 *
Ve
1e-07
125 20.8 1.13686837721616e-13
0 0

0101101
*
Ed
 1e-07 1 1 0
1  3 0 0 125
0

0101000
+158 4 -162 4 *
Ve
1e-07
145 60 1.13686837721616e-13
0 0

0101101
*
Ed
 1e-07 1 1 0
1  4 0 0 60
0

0101000
-156 4 +160 4 *
Ve
1e-07
125 39.1999999999999 1.13686837721616e-13
0 0

0101101
*
Ed
 1e-07 1 1 0
1  5 0 0 18.4
0

0101000
+158 4 -154 4 *
Ve
1e-07
5.6843418860808e-14 60 1.13686837721616e-13
0 0

0101101
*
Ed
 1e-07 1 1 0
1  6 0 0 145
0

0101000
-152 4 +156 4 *
Ve
1.5e-07
5.6843418860808e-14 39.1999999999999 1.13686837721616e-13
0 0

0101101
*
Ed
 1e-07 1 1 0
1  7 0 0 125
0

0101000
+154 4 -150 4 *
Ed
 1e-07 1 1 0
1  8 0 39.1999999999999 60
0

0101000
+150 4 -152 4 *
Wi

0101100
-161 0 -159 0 +157 0 +155 0 -153 0 +151 0 -149 0 -148 0 *
Ve
1e-07
129.25 50 1.13686837721616e-13
0 0

0101101
*
Ed
 1e-07 1 1 0
1  9 0 0 6.28318530717959
2  1 2 0 0 6.28318530717959
0

0101100
+146 4 -146 4 *
Wi

0101100
-145 0 *
Ve
1e-07
119.25 50 1.13686837721616e-13
0 0

0101101
*
Ed
 1e-07 1 1 0
1  10 0 0 6.28318530717959
2  2 3 0 0 6.28318530717959
0

0101100
+143 4 -143 4 *
Wi

0101100
-142 0 *
Ve
1e-07
109.25 50 1.13686837721616e-13
0 0

0101101
*
Ed
 1e-07 1 1 0
1  11 0 0 6.28318530717959
2  3 4 0 0 6.28318530717959
0

0101100
+140 4 -140 4 *
Wi

0101100
-139 0 *
Ve
1e-07
77.2500000000001 52 1.13686837721616e-13
0 0

0101101
*
Ed
 1e-07 1 1 0
1  12 0 0 6.28318530717959
2  4 5 0 0 6.28318530717959
0

0101100
+137 4 -137 4 *
Wi

0101100
-136 0 *
Ve
1e-07
22.2500000000001 52 1.13686837721616e-13
0 0

0101101
*
Ed
 1e-07 1 1 0
1  13 0 0 6.28318530717959
2  5 6 0 0 6.28318530717959
0

0101100
+134 4 -134 4 *
Wi

0101100
-133 0 *
Ve
1e-07
129.25 10 1.13686837721616e-13
0 0

0101101
*
Ed
 1e-07 1 1 0
1  14 0 0 6.28318530717959
2  6 7 0 0 6.28318530717959
0

0101100
+131 4 -131 4 *
Wi

0101100
-130 0 *
Ve
1e-07
119.25 10 1.13686837721616e-13
0 0

0101101
*
Ed
 1e-07 1 1 0
1  15 0 0 6.28318530717959
2  7 8 0 0 6.28318530717959
0

0101100
+128 4 -128 4 *
Wi

0101100
-127 0 *
Ve
1e-07
109.25 10 1.13686837721616e-13
0 0

0101101
*
Ed
 1e-07 1 1 0
1  16 0 0 6.28318530717959
2  8 9 0 0 6.28318530717959
0

0101100
+125 4 -125 4 *
Wi

0101100
-124 0 *
Ve
1e-07
77.2500000000001 8 1.13686837721616e-13
0 0

0101101
*
Ed
 1e-07 1 1 0
1  17 0 0 6.28318530717959
2  9 10 0 0 6.28318530717959
0

0101100
+122 4 -122 4 *
Wi

0101100
-121 0 *
Ve
1e-07
22.2500000000001 8 1.13686837721616e-13
0 0

0101101
*
Ed
 1e-07 1 1 0
1  18 0 0 6.28318530717959
2  10 11 0 0 6.28318530717959
0

0101100
+119 4 -119 4 *
Wi

0101100
-118 0 *
Fa
0  1e-07 1 0

0111000
+147 0 +144 0 +141 0 +138 0 +135 0 +132 0 +129 0 +126 0 +123 0 +120 0 
+117 0 *
Ve
1.5e-07
5.6843418860808e-14 20.8 6.00000000000011
0 0

0101101
*
Ed
 1.5e-07 1 1 0
1  19 0 -6 0
0

0101000
+115 4 -162 4 *
Ve
1.5e-07
5.6843418860808e-14 39.1999999999999 6.00000000000011
0 0

0101101
*
Ed
 1.5e-07 1 1 0
1  20 0 10.4 28.8
0

0101000
+115 4 -113 4 *
Ed
 1.5e-07 1 1 0
1  21 0 -6 0
0

0101000
+113 4 -150 4 *
Ve
1e-07
5.6843418860808e-14 60 18.0000000000001
0 0

0101101
*
Ed
 1e-07 1 1 0
1  22 0 0 18
0

0101000
-110 4 +152 4 *
Ve
1e-07
5.6843418860808e-14 0 18.0000000000001
0 0

0101101
*
Ed
 1e-07 1 1 0
1  23 0 0 60
0

0101000
-110 4 +108 4 *
Ed
 1e-07 1 1 0
1  24 0 0 18
0

0101000
-108 4 +163 4 *
Wi

0101100
-161 0 +114 0 -112 0 -111 0 -148 0 -109 0 +107 0 +106 0 *
Fa
0  1e-07 12 0

0111000
+105 0 *
Ve
1e-07
145 0 18.0000000000001
0 0

0101101
*
Ed
 1e-07 1 1 0
1  25 0 0 18
0

0101000
-103 4 +160 4 *
Ed
 1e-07 1 1 0
1  26 0 0 145
0

0101000
-108 4 +103 4 *
Wi

0101100
-102 0 -101 0 +106 0 +159 0 *
Fa
0  1e-07 13 0

0111000
+100 0 *
Ve
1e-07
125 20.8 6.00000000000011
0 0

0101101
*
Ed
 1e-07 1 1 0
1  27 0 0 6
0

0101000
+158 4 -98 4 *
Ed
 1e-07 1 1 0
1  28 0 0 125
0

0101000
+98 4 -115 4 *
Wi

0101100
-97 0 -96 0 -114 0 +157 0 *
Fa
0  1e-07 14 0

0111000
+95 0 *
Ve
1e-07
145 60 18.0000000000001
0 0

0101101
*
Ed
 1e-07 1 1 0
1  29 0 0 18
0

0101000
-93 4 +156 4 *
Ed
 1e-07 1 1 0
1  30 0 0 60
0

0101000
-93 4 +103 4 *
Wi

0101100
-155 0 -92 0 +91 0 +102 0 *
Fa
0  1e-07 15 0

0111000
+90 0 *
Ve
1e-07
125 39.1999999999999 6.00000000000011
0 0

0101101
*
Ed
 1e-07 1 1 0
1  31 0 0 6
0

0101000
+154 4 -88 4 *
Ed
 1e-07 1 1 0
1  32 0 0 18.4
0

0101000
-88 4 +98 4 *
Wi

0101100
-153 0 -87 0 +86 0 +97 0 *
Fa
0  1e-07 16 0

0111000
+85 0 *
Ed
 1e-07 1 1 0
1  33 0 0 145
0

0101000
-110 4 +93 4 *
Wi

0101100
-92 0 -83 0 +109 0 +151 0 *
Fa
0  1e-07 17 0

0111000
+82 0 *
Ed
 1e-07 1 1 0
1  34 0 0 125
0

0101000
+88 4 -113 4 *
Wi

0101100
-87 0 -80 0 -111 0 +149 0 *
Fa
0  1e-07 18 0

0111000
+79 0 *
Ve
1e-07
129.25 50 18.0000000000001
0 0

0101101
*
Ed
 1e-07 1 1 0
1  35 0 0 6.28318530717959
2  11 2 0 0 6.28318530717959
0

0101100
+77 4 -77 4 *
Ed
 1e-07 1 1 0
1  36 0 1 19
3  12 13CN 2 0 1 19
0

0101000
+146 4 -77 4 *
Wi

0101100
-76 0 +75 0 +145 0 -75 0 *
Fa
0  1e-07 2 0

0111000
+74 0 *
Ve
1e-07
119.25 50 18.0000000000001
0 0

0101101
*
Ed
 1e-07 1 1 0
1  37 0 0 6.28318530717959
2  14 3 0 0 6.28318530717959
0

0101100
+72 4 -72 4 *
Ed
 1e-07 1 1 0
1  38 0 1 19
3  15 16CN 3 0 1 19
0

0101000
+143 4 -72 4 *
Wi

0101100
-71 0 +70 0 +142 0 -70 0 *
Fa
0  1e-07 3 0

0111000
+69 0 *
Ve
1e-07
109.25 50 18.0000000000001
0 0

0101101
*
Ed
 1e-07 1 1 0
1  39 0 0 6.28318530717959
2  17 4 0 0 6.28318530717959
0

0101100
+67 4 -67 4 *
Ed
 1e-07 1 1 0
1  40 0 1 19
3  18 19CN 4 0 1 19
0

0101000
+140 4 -67 4 *
Wi

0101100
-66 0 +65 0 +139 0 -65 0 *
Fa
0  1e-07 4 0

0111000
+64 0 *
Ve
1e-07
77.2500000000001 52 18.0000000000001
0 0

0101101
*
Ed
 1e-07 1 1 0
1  41 0 0 6.28318530717959
2  20 5 0 0 6.28318530717959
0

0101100
+62 4 -62 4 *
Ed
 1e-07 1 1 0
1  42 0 1 19
3  21 22CN 5 0 1 19
0

0101000
+137 4 -62 4 *
Wi

0101100
-61 0 +60 0 +136 0 -60 0 *
Fa
0  1e-07 5 0

0111000
+59 0 *
Ve
1e-07
22.2500000000001 52 18.0000000000001
0 0

0101101
*
Ed
 1e-07 1 1 0
1  43 0 0 6.28318530717959
2  23 6 0 0 6.28318530717959
0

0101100
+57 4 -57 4 *
Ed
 1e-07 1 1 0
1  44 0 1 19
3  24 25CN 6 0 1 19
0

0101000
+134 4 -57 4 *
Wi

0101100
-56 0 +55 0 +133 0 -55 0 *
Fa
0  1e-07 6 0

0111000
+54 0 *
Ve
1e-07
129.25 10 18.0000000000001
0 0

0101101
*
Ed
 1e-07 1 1 0
1  45 0 0 6.28318530717959
2  26 7 0 0 6.28318530717959
0

0101100
+52 4 -52 4 *
Ed
 1e-07 1 1 0
1  46 0 1 19
3  27 28CN 7 0 1 19
0

0101000
+131 4 -52 4 *
Wi

0101100
-51 0 +50 0 +130 0 -50 0 *
Fa
0  1e-07 7 0

0111000
+49 0 *
Ve
1e-07
119.25 10 18.0000000000001
0 0

0101101
*
Ed
 1e-07 1 1 0
1  47 0 0 6.28318530717959
2  29 8 0 0 6.28318530717959
0

0101100
+47 4 -47 4 *
Ed
 1e-07 1 1 0
1  48 0 1 19
3  30 31CN 8 0 1 19
0

0101000
+128 4 -47 4 *
Wi

0101100
-46 0 +45 0 +127 0 -45 0 *
Fa
0  1e-07 8 0

0111000
+44 0 *
Ve
1e-07
109.25 10 18.0000000000001
0 0

0101101
*
Ed
 1e-07 1 1 0
1  49 0 0 6.28318530717959
2  32 9 0 0 6.28318530717959
0

0101100
+42 4 -42 4 *
Ed
 1e-07 1 1 0
1  50 0 1 19
3  33 34CN 9 0 1 19
0

0101000
+125 4 -42 4 *
Wi

0101100
-41 0 +40 0 +124 0 -40 0 *
Fa
0  1e-07 9 0

0111000
+39 0 *
Ve
1e-07
77.2500000000001 8 18.0000000000001
0 0

0101101
*
Ed
 1e-07 1 1 0
1  51 0 0 6.28318530717959
2  35 10 0 0 6.28318530717959
0

0101100
+37 4 -37 4 *
Ed
 1e-07 1 1 0
1  52 0 1 19
3  36 37CN 10 0 1 19
0

0101000
+122 4 -37 4 *
Wi

0101100
-36 0 +35 0 +121 0 -35 0 *
Fa
0  1e-07 10 0

0111000
+34 0 *
Ve
1e-07
22.2500000000001 8 18.0000000000001
0 0

0101101
*
Ed
 1e-07 1 1 0
1  53 0 0 6.28318530717959
2  38 11 0 0 6.28318530717959
0

0101100
+32 4 -32 4 *
Ed
 1e-07 1 1 0
1  54 0 1 19
3  39 40CN 11 0 1 19
0

0101000
+119 4 -32 4 *
Wi

0101100
-31 0 +30 0 +118 0 -30 0 *
Fa
0  1e-07 11 0

0111000
+29 0 *
Wi

0101100
-96 0 -112 0 +80 0 +86 0 *
Fa
0  1e-07 19 0

0111000
+27 0 *
Wi

0101100
-101 0 -107 0 +91 0 +83 0 *
Wi

0101100
-76 0 *
Wi

0101100
-71 0 *
Wi

0101100
-66 0 *
Wi

0101100
-61 0 *
Wi

0101100
-56 0 *
Wi

0101100
-51 0 *
Wi

0101100
-46 0 *
Wi

0101100
-41 0 *
Wi

0101100
-36 0 *
Wi

0101100
-31 0 *
Fa
0  1e-07 20 0

0111000
+25 0 +24 0 +23 0 +22 0 +21 0 +20 0 +19 0 +18 0 +17 0 +16 0 
+15 0 *
Sh

0101100
-116 0 +104 0 -99 0 +94 0 -89 0 +84 0 +81 0 -78 0 -73 0 -68 0 
-63 0 -58 0 -53 0 -48 0 -43 0 -38 0 -33 0 -28 0 -26 0 +14 0 
*
So

0100000
+13 0 *
Co

0100000
+12 0 *
Co

0100000
+11 0 *
Co

0100000
+10 0 *
Co

0100000
+9 0 *
Co

0100000
+8 0 *
Co

0100000
+7 0 *
Co

0100000
+6 0 *
Co

0100000
+5 0 *
Co

0100000
+4 0 *
Co

0100000
+3 0 *
Co

1100000
+2 0 *

+1 3 