DBRep_DrawableShape

CASCADE Topology V1, (c) Matra-Datavision
Locations 6
1
              1               0               0          14.325 
              0               1               0               0 
              0               0               1               0 
1
              1               0               0               0 
              0               1               0               0 
              0               0               1               0 
2  1 1 2 1 0
1
              1               0               0               0 
              0               1               0               0 
              0               0               1               0 
2  1 -1 4 -1 0
2  1 -1 0
Curve2ds 32
1 0 3.5355339059327378 1 0 
1 0 3.5355339059327378 1 0 
1 0 3.5355339059327378 1 0 
1 0 3.5355339059327378 1 0 
1 0 19 1 0 
1 0 19 1 0 
1 0 19 1 0 
1 0 19 1 0 
1 6.2831853071795862 -0 0 1 
1 0 -0 0 1 
1 0 0 1 0 
1 0 34.5 1 0 
1 6.2831853071795862 -0 0 1 
1 0 -0 0 1 
1 0 0 1 0 
1 0 34.5 1 0 
1 6.2831853071795862 -0 0 1 
1 0 -0 0 1 
1 0 0 1 0 
1 0 34.5 1 0 
1 6.2831853071795862 -0 0 1 
1 0 -0 0 1 
1 0 0 1 0 
1 0 34.5 1 0 
1 6.2831853071795862 -0 0 1 
1 0 -0 0 1 
1 6.2831853071795862 -0 0 1 
1 0 -0 0 1 
1 6.2831853071795862 -0 0 1 
1 0 -0 0 1 
1 6.2831853071795862 -0 0 1 
1 0 -0 0 1 
Curves 32
1 270.67499999999995 1.1368683772161603e-13 17.999999999999964 0 0 -1 
1 270.67499999999995 1.1368683772161603e-13 -3.5527136788005009e-14 0 1 0 
1 270.67499999999995 460.00000000000011 17.999999999999964 0 0 -1 
1 270.67499999999995 1.1368683772161603e-13 17.999999999999964 0 1 0 
1 270.67499999999995 1.1368683772161603e-13 17.999999999999964 -1 0 0 
1 -14.325000000000045 1.1368683772161603e-13 17.999999999999964 0 0 -1 
1 270.67499999999995 1.1368683772161603e-13 -3.5527136788005009e-14 -1 0 0 
1 270.67499999999995 460.00000000000011 -3.5527136788005009e-14 -1 0 0 
1 -14.325000000000045 1.1368683772161603e-13 -3.5527136788005009e-14 0 1 0 
2 248.17499999999995 20.000000000000114 -3.5527136788005009e-14 0 0 -1 -1 0 0 0 1 0 5.25
2 8.1749999999999545 20.000000000000114 -3.5527136788005009e-14 0 0 -1 -1 0 0 0 1 0 5.25
2 248.17499999999995 440.00000000000011 -3.5527136788005009e-14 0 0 -1 -1 0 0 0 1 0 5.25
2 8.1749999999999545 440.00000000000011 -3.5527136788005009e-14 0 0 -1 -1 0 0 0 1 0 5.25
1 270.67499999999995 460.00000000000011 17.999999999999964 -1 0 0 
1 -14.325000000000045 460.00000000000011 17.999999999999964 0 0 -1 
1 -14.325000000000045 1.1368683772161603e-13 17.999999999999964 0 1 0 
2 248.17499999999995 20.000000000000114 17.999999999999964 0 0 -1 -1 0 0 0 1 0 2.75
2 8.1749999999999545 20.000000000000114 17.999999999999964 0 0 -1 -1 0 0 0 1 0 2.75
2 248.17499999999995 440.00000000000011 17.999999999999964 0 0 -1 -1 0 0 0 1 0 2.75
2 8.1749999999999545 440.00000000000011 17.999999999999964 0 0 -1 -1 0 0 0 1 0 2.75
1 245.42499999999995 20.000000000000114 2.4999999999999645 -0.70710678118654746 -1.7e-16 -0.70710678118654757 
2 248.17499999999995 20.000000000000114 2.4999999999999645 0 0 -1 -1 0 0 0 1 0 2.75
1 5.4249999999999545 20.000000000000114 2.4999999999999645 -0.70710678118654746 -1.7e-16 -0.70710678118654757 
2 8.1749999999999545 20.000000000000114 2.4999999999999645 0 0 -1 -1 0 0 0 1 0 2.75
1 245.42499999999995 440.00000000000011 2.4999999999999645 -0.70710678118654746 -1.7e-16 -0.70710678118654757 
2 248.17499999999995 440.00000000000011 2.4999999999999645 0 0 -1 -1 0 0 0 1 0 2.75
1 5.4249999999999545 440.00000000000011 2.4999999999999645 -0.70710678118654746 -1.7e-16 -0.70710678118654757 
2 8.1749999999999545 440.00000000000011 2.4999999999999645 0 0 -1 -1 0 0 0 1 0 2.75
1 245.42499999999995 20.000000000000114 36.999999999999964 0 0 -1 
1 5.4249999999999545 20.000000000000114 36.999999999999964 0 0 -1 
1 245.42499999999995 440.00000000000011 36.999999999999964 0 0 -1 
1 5.4249999999999545 440.00000000000011 36.999999999999964 0 0 -1 
Polygon3D 0
PolygonOnTriangulations 0
Surfaces 14
1 270.67499999999995 1.1368683772161603e-13 17.999999999999964 -1 0 0 0 0 -1 0 -1 0 
1 270.67499999999995 1.1368683772161603e-13 17.999999999999964 0 1 0 0 0 -1 -1 0 0 
1 270.67499999999995 1.1368683772161603e-13 -3.5527136788005009e-14 0 0 -1 -1 0 0 0 1 0 
3 248.17499999999995 20.000000000000114 2.4999999999999645 0 0 -1 -1 0 0 0 1 0 2.75
0.78539816339744828
3 8.1749999999999545 20.000000000000114 2.4999999999999645 0 0 -1 -1 0 0 0 1 0 2.75
0.78539816339744828
3 248.17499999999995 440.00000000000011 2.4999999999999645 0 0 -1 -1 0 0 0 1 0 2.75
0.78539816339744828
3 8.1749999999999545 440.00000000000011 2.4999999999999645 0 0 -1 -1 0 0 0 1 0 2.75
0.78539816339744828
1 270.67499999999995 460.00000000000011 17.999999999999964 0 1 0 0 0 -1 -1 0 0 
1 270.67499999999995 1.1368683772161603e-13 17.999999999999964 0 0 -1 -1 0 0 0 1 0 
2 248.17499999999995 20.000000000000114 36.999999999999964 0 0 -1 -1 0 0 0 1 0 2.75
2 8.1749999999999545 20.000000000000114 36.999999999999964 0 0 -1 -1 0 0 0 1 0 2.75
2 248.17499999999995 440.00000000000011 36.999999999999964 0 0 -1 -1 0 0 0 1 0 2.75
2 8.1749999999999545 440.00000000000011 36.999999999999964 0 0 -1 -1 0 0 0 1 0 2.75
1 -14.325000000000045 1.1368683772161603e-13 17.999999999999964 -1 0 0 0 0 -1 0 -1 0 
Triangulations 0

TShapes 98
Ve
1e-07
285 1.13686837721616e-13 -3.5527136788005e-14
0 0

0101101
*
Ve
1e-07
285 1.13686837721616e-13 18
0 0

0101101
*
Ed
 1e-07 1 1 0
1  1 0 0 18
0

0101000
-98 5 +97 5 *
Ve
1e-07
285 460 -3.5527136788005e-14
0 0

0101101
*
Ed
 1e-07 1 1 0
1  2 0 0 460
0

0101000
-95 5 +98 5 *
Ve
1e-07
285 460 18
0 0

0101101
*
Ed
 1e-07 1 1 0
1  3 0 0 18
0

0101000
-95 5 +93 5 *
Ed
 1e-07 1 1 0
1  4 0 0 460
0

0101000
-93 5 +97 5 *
Wi

0101100
-96 0 -94 0 +92 0 +91 0 *
Fa
0  1e-07 1 0

0111000
+90 0 *
Ve
1e-07
-5.6843418860808e-14 1.13686837721616e-13 18
0 0

0101101
*
Ed
 1e-07 1 1 0
1  5 0 0 285
0

0101000
-88 5 +97 5 *
Ve
1e-07
-5.6843418860808e-14 1.13686837721616e-13 -3.5527136788005e-14
0 0

0101101
*
Ed
 1e-07 1 1 0
1  6 0 0 18
0

0101000
-86 5 +88 5 *
Ed
 1e-07 1 1 0
1  7 0 0 285
0

0101000
-86 5 +98 5 *
Wi

0101100
-87 0 -85 0 +84 0 +96 0 *
Fa
0  1e-07 2 0

0111000
+83 0 *
Ve
1e-07
-5.6843418860808e-14 460 -3.5527136788005e-14
0 0

0101101
*
Ed
 1e-07 1 1 0
1  8 0 0 285
0

0101000
-81 5 +95 5 *
Ed
 1e-07 1 1 0
1  9 0 0 460
0

0101000
-81 5 +86 5 *
Wi

0101100
-94 4 -80 4 +84 4 +79 4 *
Ve
1e-07
257.25 20.0000000000001 -3.5527136788005e-14
0 0

0101101
*
Ed
 1e-07 1 1 0
1  10 0 0 6.28318530717959
2  1 4 0 0 6.28318530717959
0

0101000
+77 6 -77 6 *
Wi

0101100
-76 0 *
Ve
1e-07
17.2499999999999 20.0000000000001 -3.5527136788005e-14
0 0

0101101
*
Ed
 1e-07 1 1 0
1  11 0 0 6.28318530717959
2  2 5 0 0 6.28318530717959
0

0101000
+74 6 -74 6 *
Wi

0101100
-73 0 *
Ve
1e-07
257.25 440 -3.5527136788005e-14
0 0

0101101
*
Ed
 1e-07 1 1 0
1  12 0 0 6.28318530717959
2  3 6 0 0 6.28318530717959
0

0101000
+71 6 -71 6 *
Wi

0101100
-70 0 *
Ve
1e-07
17.2499999999999 440 -3.5527136788005e-14
0 0

0101101
*
Ed
 1e-07 1 1 0
1  13 0 0 6.28318530717959
2  4 7 0 0 6.28318530717959
0

0101000
+68 6 -68 6 *
Wi

0101100
-67 0 *
Fa
0  1e-07 3 4

0111000
+78 0 +75 0 +72 0 +69 0 +66 0 *
Ve
1e-07
-5.6843418860808e-14 460 18
0 0

0101101
*
Ed
 1e-07 1 1 0
1  14 0 0 285
0

0101000
-64 5 +93 5 *
Ed
 1e-07 1 1 0
1  15 0 0 18
0

0101000
-81 5 +64 5 *
Wi

0101100
-63 0 -62 0 +80 0 +92 0 *
Fa
0  1e-07 8 0

0111000
+61 0 *
Ed
 1e-07 1 1 0
1  16 0 0 460
0

0101000
-64 5 +88 5 *
Wi

0101100
-91 4 -63 4 +87 4 +59 4 *
Ve
1e-07
259.75 20.0000000000001 18
0 0

0101101
*
Ed
 1e-07 1 1 0
1  17 0 0 6.28318530717959
2  5 10 0 0 6.28318530717959
0

0101100
+57 6 -57 6 *
Wi

0101100
-56 0 *
Ve
1e-07
19.7499999999999 20.0000000000001 18
0 0

0101101
*
Ed
 1e-07 1 1 0
1  18 0 0 6.28318530717959
2  6 11 0 0 6.28318530717959
0

0101100
+54 6 -54 6 *
Wi

0101100
-53 0 *
Ve
1e-07
259.75 440 18
0 0

0101101
*
Ed
 1e-07 1 1 0
1  19 0 0 6.28318530717959
2  7 12 0 0 6.28318530717959
0

0101100
+51 6 -51 6 *
Wi

0101100
-50 0 *
Ve
1e-07
19.7499999999999 440 18
0 0

0101101
*
Ed
 1e-07 1 1 0
1  20 0 0 6.28318530717959
2  8 13 0 0 6.28318530717959
0

0101100
+48 6 -48 6 *
Wi

0101100
-47 0 *
Fa
0  1e-07 9 4

0111000
+58 0 +55 0 +52 0 +49 0 +46 0 *
Wi

0101100
-85 0 -79 0 +62 0 +59 0 *
Fa
0  1e-07 14 0

0111000
+44 0 *
Ve
1.00000028e-07
259.75 20.0000000000001 2.49999999999996
0 0

0101101
*
Ed
 1e-07 1 1 0
1  21 0 0 3.53553390593274
3  9 10CN 4 0 0 3.53553390593274
0

0101000
+42 6 -77 6 *
Ed
 1.00000028e-07 1 1 0
1  22 0 0 6.28318530717959
2  11 4 0 0 6.28318530717959
2  12 10 0 0 6.28318530717959
0

0101000
+42 6 -42 6 *
Wi

0101100
-76 0 +41 0 +40 0 -41 0 *
Fa
0  1e-07 4 0

0111000
+39 0 *
Ve
1e-07
19.7499999999999 20.0000000000001 2.49999999999996
0 0

0101101
*
Ed
 1e-07 1 1 0
1  23 0 0 3.53553390593274
3  13 14CN 5 0 0 3.53553390593274
0

0101000
+37 6 -74 6 *
Ed
 1e-07 1 1 0
1  24 0 0 6.28318530717959
2  15 5 0 0 6.28318530717959
2  16 11 0 0 6.28318530717959
0

0101000
+37 6 -37 6 *
Wi

0101100
-73 0 +36 0 +35 0 -36 0 *
Fa
0  1e-07 5 0

0111000
+34 0 *
Ve
1.00000028e-07
259.75 440 2.49999999999996
0 0

0101101
*
Ed
 1e-07 1 1 0
1  25 0 0 3.53553390593274
3  17 18CN 6 0 0 3.53553390593274
0

0101000
+32 6 -71 6 *
Ed
 1.00000028e-07 1 1 0
1  26 0 0 6.28318530717959
2  19 6 0 0 6.28318530717959
2  20 12 0 0 6.28318530717959
0

0101000
+32 6 -32 6 *
Wi

0101100
-70 0 +31 0 +30 0 -31 0 *
Fa
0  1e-07 6 0

0111000
+29 0 *
Ve
1.00000057e-07
19.7499999999999 440 2.49999999999996
0 0

0101101
*
Ed
 1e-07 1 1 0
1  27 0 0 3.53553390593274
3  21 22CN 7 0 0 3.53553390593274
0

0101000
+27 6 -68 6 *
Ed
 1.00000057e-07 1 1 0
1  28 0 0 6.28318530717959
2  23 7 0 0 6.28318530717959
2  24 13 0 0 6.28318530717959
0

0101000
+27 6 -27 6 *
Wi

0101100
-67 0 +26 0 +25 0 -26 0 *
Fa
0  1e-07 7 0

0111000
+24 0 *
Ed
 1e-07 1 1 0
1  29 0 19 34.5
3  25 26CN 10 0 19 34.5
0

0101000
+57 6 -42 6 *
Wi

0101100
-40 0 +22 0 +56 0 -22 0 *
Fa
0  1e-07 10 0

0111000
+21 0 *
Ed
 1e-07 1 1 0
1  30 0 19 34.5
3  27 28CN 11 0 19 34.5
0

0101000
+54 6 -37 6 *
Wi

0101100
-35 0 +19 0 +53 0 -19 0 *
Fa
0  1e-07 11 0

0111000
+18 0 *
Ed
 1e-07 1 1 0
1  31 0 19 34.5
3  29 30CN 12 0 19 34.5
0

0101000
+51 6 -32 6 *
Wi

0101100
-30 0 +16 0 +50 0 -16 0 *
Fa
0  1e-07 12 0

0111000
+15 0 *
Ed
 1e-07 1 1 0
1  32 0 19 34.5
3  31 32CN 13 0 19 34.5
0

0101000
+48 6 -27 6 *
Wi

0101100
-25 0 +13 0 +47 0 -13 0 *
Fa
0  1e-07 13 0

0111000
+12 0 *
Sh

0101100
-89 4 -82 4 +65 0 +60 4 -45 0 +43 4 -38 0 -33 0 -28 0 -23 0 
-20 0 -17 0 -14 0 -11 0 *
So

0100000
+10 0 *
Co

0100000
+9 0 *
Co

0100000
+8 0 *
Co

0100000
+7 0 *
Co

0100000
+6 0 *
Co

0100000
+5 0 *
Co

0100000
+4 0 *
Co

0100000
+3 0 *
Co

1100000
+2 0 *

+1 3 