DBRep_DrawableShape

CASCADE Topology V1, (c) Matra-Datavision
Locations 33
1
              1               0               0               0 
              0               1               0               0 
              0               0               1               0 
1
              1               0               0               0 
              0               1               0               0 
              0               0               1               0 
2  1 1 2 1 0
2  1 -1 0
1
              1               0               0               0 
              0 0.985089306859129 -0.172043766268355               0 
              0 0.172043766268355 0.985089306859129               0 
1
              1               0               0               0 
              0               1               0 34.9999999999999 
              0               0               1 406.162676056336 
2  5 1 6 1 0
2  1 -1 6 -1 5 -1 0
1
              1               0               0               0 
              0               1               0               0 
              0               0               1               0 
2  1 -1 9 -1 0
1
              1               0               0          14.325 
              0               1               0               0 
              0               0               1               0 
1
              1               0               0          14.325 
              0               1               0               0 
              0               0               1               0 
2  9 1 11 1 12 1 0
2  1 -1 12 -1 11 -1 9 -1 0
1
              1               0               0               0 
              0               1               0               0 
              0               0               1               0 
1
              1               0               0               0 
              0               1               0               0 
              0               0               1               0 
2  15 1 16 1 9 1 11 1 0
2  1 -1 11 -1 9 -1 16 -1 15 -1 0
2  16 1 9 1 11 1 0
2  1 -1 11 -1 9 -1 16 -1 0
1
              1               0               0               0 
              0               1               0               0 
              0               0               1               0 
1
              1               0               0          14.325 
              0               1               0               0 
              0               0               1               0 
2  21 1 15 1 16 1 9 1 22 1 0
2  1 -1 22 -1 9 -1 16 -1 15 -1 21 -1 0
1
              1               0               0          14.325 
              0               1               0               0 
              0               0               1               0 
2  21 1 15 1 16 1 9 1 25 1 0
2  1 -1 25 -1 9 -1 16 -1 15 -1 21 -1 0
1
              1               0               0          14.325 
              0               1               0               0 
              0               0               1               0 
2  21 1 15 1 16 1 9 1 28 1 0
2  1 -1 28 -1 9 -1 16 -1 15 -1 21 -1 0
1
              1               0               0          14.325 
              0               1               0               0 
              0               0               1               0 
2  21 1 15 1 16 1 9 1 31 1 0
2  1 -1 31 -1 9 -1 16 -1 15 -1 21 -1 0
Curve2ds 60
1 0 0 0 1 
1 0 0 0 1 
7 0 0  5 6 2  1.1e-16 16.127999644602482  0.20726759539162523 16.200397339894234  0.4145351907943059 16.272800792958943  0.62180282495770722 16.338694860016993  0.82907038156647561 16.39170668168876  1.0363379769581 16.428584257729312 
 4.7123889803846897 6 5.748726957342817 6
7 0 0  5 6 2  0 14.381520771363057  0.31415926535897803 14.381520771363014  0.62831759080158389 14.424494381537233  0.94247818851749088 14.511248428308749  1.2566370614359179 14.621082042054585  1.5707963267948966 14.730816546010942 
 3.1415926535897931 6 4.7123889803846897 6
7 0 0  5 6 2  0.53445834983678253 16.428584257729312  0.74172594522840507 16.391706681688774  0.94899350183730002 16.338694860016673  1.1562611360005373 16.272800792959167  1.3635287314032749 16.200397339894202  1.5707963267948968 16.127999644602482 
 0.5344583498367802 6 1.5707963267948966 6
7 0 0  5 6 2  0 14.73081654601094  0.31415926535897787 14.621082042054523  0.62831813827737815 14.5112484283089  0.94247873599331655 14.424494381537102  1.2566370614359186 14.381520771363069  1.5707963267948966 14.381520771363055 
 1.5707963267948966 6 3.1415926535897931 6
7 0 0  5 6 2  -1.1e-16 14.730816546010942  0.31415926535900124 14.62108204205459  0.62831813827737282 14.511248428308761  0.94247873599337195 14.424494381537173  1.2566370614359639 14.381520771363055  1.5707963267949534 14.381520771363057 
 1.5707963267948966 6 3.14159265358985 6
7 0 0  5 6 2  0 16.477295419250368  0.31415926535897831 16.477295419250311  0.62831759080157812 16.434321809076366  0.9424781885175213 16.347567762304617  1.2566370614359179 16.237734148558882  1.5707963267948966 16.127999644602482 
 0 6 1.5707963267948966 6
7 0 0  5 6 2  1.1e-16 14.730816546010942  0.31415926535897565 14.621082042054544  0.62831813827741734 14.511248428308923  0.94247873599322318 14.424494381537029  1.2566370614358726 14.381520771363093  1.5707963267948397 14.381520771363057 
 1.5707963267948966 6 3.1415926535897363 6
7 0 0  5 6 2  -5.6840000000000001e-14 16.477295419250364  0.31415926535893296 16.477295419250332  0.62831759080153571 16.434321809076341  0.94247818851750476 16.347567762304649  1.2566370614359066 16.237734148558875  1.5707963267948966 16.127999644602479 
 -5.6840000000000001e-14 6 1.5707963267948966 6
1 -3.1415926535897931 1.1368999999999999e-13 1 0 
1 1.5707963267948966 0 0 1 
1 -3.1415926535897931 1.1368999999999999e-13 1 0 
1 1.5707963267948966 0 0 1 
1 -1.5707963267948966 1.1368999999999999e-13 1 0 
1 0 1.1368999999999999e-13 1 0 
1 -4.7123889803846897 1.1368999999999999e-13 1 0 
1 -3.1415926535897931 1.1368999999999999e-13 1 0 
1 -4.7123889803846897 1.1368999999999999e-13 1 0 
1 -4.7123889803846897 1.1368999999999999e-13 1 0 
1 0 0.89999999999997726 1 0 
1 0 0.89999999999997726 1 0 
1 0 0 1 0 
1 0 0 1 0 
1 0 0 1 0 
1 0 0 1 0 
1 1.0363379769792442 0 0 1 
1 0 0 0 1 
1 -1.5707963267948966 18 1 0 
1 1.5707963267948966 0 0 1 
1 1.5707963267948966 0 0 1 
1 0.53445834981567686 0 0 -1 
1 0 0 0 1 
1 -3.1415926535897931 18 1 0 
1 0 0 0 1 
1 1.5707963267948966 0 0 1 
1 1.5707963267948966 0 0 1 
1 0 0 0 1 
1 0 0 0 1 
1 1.5707963267948966 0 0 1 
1 1.5707963267948966 0 0 1 
1 0 0 0 1 
1 0 18.899999999999977 1 0 
1 6.2831853071795862 -0 0 1 
1 0 -0 0 1 
1 0 18.899999999999977 1 0 
1 6.2831853071795862 -0 0 1 
1 0 -0 0 1 
1 0 12 1 0 
1 6.2831853071795862 -0 0 1 
1 0 -0 0 1 
1 0 12 1 0 
1 6.2831853071795862 -0 0 1 
1 0 -0 0 1 
1 0 12 1 0 
1 6.2831853071795862 -0 0 1 
1 0 -0 0 1 
1 0 12 1 0 
1 6.2831853071795862 -0 0 1 
1 0 -0 0 1 
Curves 102
1 417.82812500000011 0 1.5227045807497461 1 0 0 
1 2.3500000000001364 0 18.000000000000114 0 0 -1 
1 541.00000000000011 0 18.000000000000114 0 0 -1 
1 572.00000000000011 0 18.000000000000114 -1 0 0 
1 563.98125000000027 -124.03312915101742 -385.40117278162722 0 0.94080188497639927 -0.33895694892545575 
8 4.7123889803846897 5.748726957342817
3 565.00000000000011 -2 1.8720003553976312 0 -0.17204376626835499 -0.98508930685912921 0 0.98508930685912921 -0.17204376626835499 1 0 0 2.0302727743303035 2
1 563.98125000000027 -95.809072601725347 -395.56988124939085 -1 0 0 
1 563.00000000000011 -17.657599067068531 4.6065669530264586 -0 -0.98508930685912921 0.17204376626835499 
1 -20.631249999999682 -124.03312915101742 -385.40117278162722 0 0.94080188497639927 -0.33895694892545575 
8 3.1415926535897931 4.7123889803846897
3 561.00000000000011 -10 3.2691834539891715 0 0.17204376626835499 0.98508930685912921 0 0.98508930685912921 -0.17204376626835499 -1 0 0 2.0302727743303035 2
8 0.5344583498367802 1.5707963267948966
3 -21.649999999999864 -2 1.8720003553976312 0 -0.17204376626835499 -0.98508930685912921 0 0.98508930685912921 -0.17204376626835499 1 0 0 2.0302727743303035 2
1 563.49062500000014 -12 3.6184792286370566 -1 0 0 
1 -19.64999999999975 -17.657599067068531 4.6065669530264586 -0 -0.98508930685912921 0.17204376626835499 
8 1.5707963267948966 3.1415926535897931
3 545.00000000000011 -10 3.2691834539891715 0 0.17204376626835499 0.98508930685912921 0 0.98508930685912921 -0.17204376626835499 -1 0 0 2.0302727743303035 2
8 1.5707963267948966 3.14159265358985
3 -17.649999999999864 -10 3.2691834539891715 0 0.17204376626835499 0.98508930685912921 0 0.98508930685912921 -0.17204376626835499 -1 0 0 2.0302727743303035 2
1 543.00000000000011 -17.657599067068531 4.6065669530264586 -0 -0.98508930685912921 0.17204376626835499 
1 282.16562500000009 -12 3.6184792286370566 -1 0 0 
8 0 1.5707963267948966
3 541.00000000000011 -2 1.8720003553976312 0 -0.17204376626835499 -0.98508930685912921 0 0.98508930685912921 -0.17204376626835499 1 0 0 2.0302727743303035 2
8 1.5707963267948966 3.1415926535897363
3 -1.6499999999998636 -10 3.2691834539891715 0 -0.17204376626835499 -0.98508930685912921 0 0.98508930685912921 -0.17204376626835499 1 0 0 2.0302727743303035 2
1 0.35000000000025011 -17.657599067068531 4.6065669530264586 -0 -0.98508930685912921 0.17204376626835499 
8 -5.6843418860808015e-14 1.5707963267948966
3 2.3500000000001364 -2 1.8720003553976312 0 0.17204376626835499 0.98508930685912921 0 0.98508930685912921 -0.17204376626835499 -1 0 0 2.0302727743303035 2
8 3.1415926535897931 4.7123889803846897
2 2.3500000000001364 -2 18 0 0 1 -0 -1 0 1 0 -0 2
1 0.35000000000013642 -2 18.000000000000114 0 0 -1 
8 3.1415926535897931 4.7123889803846897
2 541.00000000000011 -2 18 -0 0 -1 -0 -1 0 -1 0 0 2
1 543.00000000000011 -2 18.000000000000114 0 0 -1 
1 572.00000000000011 0 18.000000000000114 -1 0 0 
8 1.5707963267948966 3.1415926535897931
2 565.00000000000011 -2 18 -0 0 -1 -0 -1 0 -1 0 0 2
1 572.00000000000011 0 18.000000000000114 0 1 0 
1 563.00000000000011 -12 18.000000000000114 0 1 0 
1 543.35000000000014 162.97499999999991 18.000000000000114 -1 0 0 
8 0 1.5707963267948966
2 561.00000000000011 -10 18 -0 0 1 0 -1 0 1 0 0 2
1 -57.299999999999841 0 18.000000000000114 0 1 0 
1 563.00000000000011 -12 18.000000000000114 -1 0 0 
1 572.00000000000011 0 18.000000000000114 -1 0 0 
8 4.7123889803846897 6.2831853071795862
2 545.00000000000011 -10 18 -0 0 1 0 -1 0 1 0 0 2
8 3.1415926535897931 4.7123889803846897
2 -21.649999999999864 -2 18 -0 0 -1 -0 -1 0 -1 0 0 2
1 543.00000000000011 -12 18.000000000000114 0 1 0 
1 -19.649999999999864 -12 18.000000000000114 0 1 0 
8 4.7123889803846897 6.2831853071795862
2 -17.649999999999864 -10 18 -0 0 1 0 -1 0 1 0 0 2
1 0.35000000000013642 -12 18.000000000000114 -1 0 0 
8 4.7123889803846897 6.2831853071795862
2 -1.6499999999998636 -10 18 -0 -0 -1 0 -1 0 -1 0 0 2
1 0.35000000000013642 -12 18.000000000000114 0 1 0 
1 463.35000000000014 60.875 18.000000000000114 1 0 -0 
1 127.35000000000014 30.4375 18.000000000000114 0 1 0 
1 463.35000000000014 120.875 18.000000000000114 1 0 -0 
1 387.35000000000014 30.4375 18.000000000000114 0 1 0 
2 87.350000000000136 132.875 18.000000000000114 0 0 -1 -1 0 0 0 1 0 6
2 427.35000000000014 132.875 18.000000000000114 0 0 -1 -1 0 0 0 1 0 6
2 2.3500000000001364 12.875 18.000000000000114 0 0 -1 -1 0 0 0 1 0 1.5
2 2.3500000000001364 52.875 18.000000000000114 0 0 -1 -1 0 0 0 1 0 1.5
2 512.35000000000014 12.875 18.000000000000114 0 0 -1 -1 0 0 0 1 0 1.5
2 512.35000000000014 52.875 18.000000000000114 0 0 -1 -1 0 0 0 1 0 1.5
1 563.98125000000005 28.819541983807994 1.1368683772161603e-13 0 1 0 
8 16.42858425771874 18
1 563.98125000000005 -0.27891068288136012 18.000000000000114 0 0 -1 
1 563.98125000000027 -95.809072601725347 -395.56988124939085 0 -0.33895694892545575 -0.94080188497639927 
1 563.00000000000011 -2 18.000000000000114 0 0 -1 
8 2.60713430376091 3.1415926535897931
2 565.00000000000011 -2 1.1368683772161603e-13 -0 0 -1 -0 -1 0 -1 0 0 2
1 565.00000000000011 0 18.000000000000114 0 0 -1 
1 -20.631249999999682 -95.809072601725347 -395.56988124939085 0 -0.33895694892545575 -0.94080188497639927 
1 417.82812500000011 8.6735010803240584 1.1368683772161603e-13 1 0 0 
1 563.00000000000011 -10 18.000000000000114 0 0 -1 
1 -20.631249999999795 28.819541983807994 1.1368683772161603e-13 0 1 0 
8 -18 -16.42858425771874
1 -20.631249999999795 -0.27891068288136012 18.000000000000114 0 0 1 
1 561.00000000000011 -12 18.000000000000114 0 0 -1 
8 3.1415926535897931 3.6760510033842175
2 -21.649999999999864 -2 1.1368683772161603e-13 -0 0 -1 -0 -1 0 -1 0 0 2
1 -21.649999999999864 0 18.000000000000114 0 0 -1 
1 -19.649999999999864 -2 18.000000000000114 0 0 -1 
1 545.00000000000011 -12 18.000000000000114 0 0 -1 
1 -19.649999999999864 -10 18.000000000000114 0 0 -1 
1 543.00000000000011 -10 18.000000000000114 0 0 -1 
1 -17.649999999999864 -12 18.000000000000114 0 0 -1 
1 -1.6499999999998636 -12 18.000000000000114 0 0 -1 
1 0.35000000000013642 -10 18.000000000000114 0 0 -1 
1 -42.649999999999977 0 1.1368683772161603e-13 1 -0 0 
1 572.00000000000011 0 18.000000000000114 0 0 -1 
1 572.00000000000011 0 1.1368683772161603e-13 0 1 0 
1 572.00000000000011 162.97499999999991 18.000000000000114 0 0 -1 
1 -24.649999999999977 162.97499999999991 1.1368683772161603e-13 -1 0 0 
1 -57.299999999999841 162.97499999999991 18.000000000000114 0 0 -1 
1 -57.299999999999841 0 18.000000000000114 0 0 -1 
1 -57.299999999999841 0 1.1368683772161603e-13 0 1 0 
1 -42.649999999999977 0 1.1368683772161603e-13 1 -0 0 
1 127.35000000000014 60.875 26.900000000000091 0 0 -1 
1 463.35000000000014 60.875 1.1368683772161603e-13 1 0 -0 
1 387.35000000000014 60.875 26.900000000000091 0 0 -1 
1 127.35000000000014 30.4375 1.1368683772161603e-13 0 1 0 
1 127.35000000000014 120.875 26.900000000000091 0 0 -1 
1 463.35000000000014 120.875 1.1368683772161603e-13 1 0 -0 
1 387.35000000000014 120.875 26.900000000000091 0 0 -1 
1 387.35000000000014 30.4375 1.1368683772161603e-13 0 1 0 
2 87.350000000000136 132.875 1.1368683772161603e-13 0 0 -1 -1 0 0 0 1 0 6
1 81.350000000000136 132.875 18.900000000000091 0 0 -1 
2 427.35000000000014 132.875 1.1368683772161603e-13 0 0 -1 -1 0 0 0 1 0 6
1 421.35000000000014 132.875 18.900000000000091 0 0 -1 
2 2.3500000000001364 12.875 6.0000000000001137 0 0 -1 -1 0 0 0 1 0 1.5
1 0.85000000000013642 12.875 18.000000000000114 0 0 -1 
2 2.3500000000001364 52.875 6.0000000000001137 0 0 -1 -1 0 0 0 1 0 1.5
1 0.85000000000013642 52.875 18.000000000000114 0 0 -1 
2 512.35000000000014 12.875 6.0000000000001137 0 0 -1 -1 0 0 0 1 0 1.5
1 510.85000000000014 12.875 18.000000000000114 0 0 -1 
2 512.35000000000014 52.875 6.0000000000001137 0 0 -1 -1 0 0 0 1 0 1.5
1 510.85000000000014 52.875 18.000000000000114 0 0 -1 
Polygon3D 0
PolygonOnTriangulations 0
Surfaces 40
1 271.67500000000013 0 9 0 -1 0 0 0 1 -1 0 0 
2 2.3500000000001364 -2 18.000000000000114 0 0 -1 0 1 0 -1 0 0 2
2 541.00000000000011 -2 18.000000000000114 0 0 -1 0 1 0 1 0 -0 2
1 563.98125000000027 -124.03312915101742 -385.40117278162722 0 -0.33895694892545575 -0.94080188497639927 -1 0 0 0 0.94080188497639927 -0.33895694892545575 
2 565.00000000000011 -2 18.000000000000114 0 0 -1 -1 0 0 0 1 0 2
2 561.00000000000011 -10 18.000000000000114 0 0 -1 0 -1 0 1 0 -0 2
2 -21.649999999999864 -2 18.000000000000114 0 0 -1 0 1 0 1 0 -0 2
2 545.00000000000011 -10 18.000000000000114 0 0 -1 -1 0 0 -0 -1 0 2
2 -17.649999999999864 -10 18.000000000000114 0 0 -1 -1 0 0 -0 -1 0 2
2 -1.6499999999998636 -10 18.000000000000114 0 0 -1 1 0 -0 0 -1 0 2
1 0.35000000000013642 -12 18.000000000000114 -1 0 0 0 0 -1 0 -1 0 
1 543.00000000000011 -12 18.000000000000114 -1 0 0 0 0 -1 0 -1 0 
1 271.67500000000001 78.516923900968095 18 0 -0 1 1 0 0 0 1 0 
2 87.350000000000136 132.875 18.900000000000091 0 0 -1 -1 0 0 0 1 0 6
2 427.35000000000014 132.875 18.900000000000091 0 0 -1 -1 0 0 0 1 0 6
2 2.3500000000001364 12.875 18.000000000000114 0 0 -1 -1 0 0 0 1 0 1.5
2 2.3500000000001364 52.875 18.000000000000114 0 0 -1 -1 0 0 0 1 0 1.5
2 512.35000000000014 12.875 18.000000000000114 0 0 -1 -1 0 0 0 1 0 1.5
2 512.35000000000014 52.875 18.000000000000114 0 0 -1 -1 0 0 0 1 0 1.5
1 563.98125000000027 -124.03312915101742 -385.40117278162722 -1 0 0 0 -0.33895694892545575 -0.94080188497639927 0 -0.94080188497639927 0.33895694892545575 
1 563.00000000000011 -12 18.000000000000114 -1 0 0 0 0 -1 0 -1 0 
1 271.67500000000013 0 9 0 -1 0 0 0 1 -1 0 0 
1 563.98125000000027 -95.809072601725347 -395.56988124939085 0 0.94080188497639927 -0.33895694892545575 0 -0.33895694892545575 -0.94080188497639927 -1 0 0 
1 -20.631249999999682 -124.03312915101742 -385.40117278162722 -1 0 0 0 -0.33895694892545575 -0.94080188497639927 0 -0.94080188497639927 0.33895694892545575 
1 563.00000000000011 -12 18.000000000000114 0 1 0 0 0 -1 -1 0 0 
1 271.67500000000013 0 9 0 -1 0 0 0 1 -1 0 0 
1 -19.649999999999864 -12 18.000000000000114 -1 0 0 0 0 -1 0 -1 0 
1 0.35000000000013642 -12 18.000000000000114 0 1 0 0 0 -1 -1 0 0 
1 572.00000000000011 0 18.000000000000114 -1 0 0 0 0 -1 0 -1 0 
1 271.67500000000007 162.97500000000059 9.0000000000002274 0 1 0 0 0 -1 -1 0 0 
1 -57.299999999999841 0 18.000000000000114 -1 0 0 0 0 -1 0 -1 0 
1 387.35000000000014 60.875 26.900000000000091 0 1 0 0 0 -1 -1 0 0 
1 127.35000000000014 60.875 26.900000000000091 -1 0 0 0 0 -1 0 -1 0 
1 387.35000000000014 120.875 26.900000000000091 0 1 0 0 0 -1 -1 0 0 
1 387.35000000000014 60.875 26.900000000000091 -1 0 0 0 0 -1 0 -1 0 
1 271.67500000000007 78.516923900968095 1.1368683772161603e-13 0 0 -1 -1 0 0 0 1 0 
1 2.3500000000001364 12.875 6.0000000000001137 0 0 -1 -1 0 0 0 1 0 
1 2.3500000000001364 52.875 6.0000000000001137 0 0 -1 -1 0 0 0 1 0 
1 512.35000000000014 12.875 6.0000000000001137 0 0 -1 -1 0 0 0 1 0 
1 512.35000000000014 52.875 6.0000000000001137 0 0 -1 -1 0 0 0 1 0 
Triangulations 0

TShapes 263
Ve
1.4642799442e-05
2.35000000000014 0 1.52270458074975
0 0

0101101
*
Ve
1.4642799442e-05
541 0 1.52270458074975
0 0

0101101
*
Ed
 2.50000341e-07 1 1 0
1  1 0 -415.478125 123.171875
0

0101000
+263 4 -262 4 *
Ve
2.00000682e-07
2.35000000000014 0 18.0000000000001
0 0

0101101
*
Ed
 1e-07 1 1 0
1  2 0 1.14e-13 16.4772954192504
2  1 2 0 1.14e-13 16.4772954192504
4 G1 1 0 2 0
0

0101000
+260 4 -263 4 *
Ve
2.00000682e-07
541 0 18.0000000000001
0 0

0101101
*
Ed
 1e-07 1 1 0
1  3 0 1.14e-13 16.4772954192504
2  2 3 0 1.14e-13 16.4772954192504
4 G1 1 0 3 0
0

0101000
+258 4 -262 4 *
Ed
 2.00000682e-07 1 1 0
1  4 0 31 569.65
0

0101000
+258 4 -260 4 *
Wi

0101100
+261 0 +259 0 -257 0 +256 0 *
Fa
0  2.00000341e-07 1 0

0111000
+255 0 *
Ve
8.58067835e-07
563.981249999964 -0.278910682902961 1.5714157422708
0 0

0101101
*
Ve
1e-07
563.98125 8.67483927242142 0.00766222894651492
0 0

0101101
*
Ed
 1e-07 1 1 0
1  5 0 20.9107226187104 30
0

0101000
+253 8 -252 8 *
Ve
8.58067835e-07
563 -2 1.87200035539763
0 0

0101101
*
Ed
 5.97301047e-07 1 1 0
1  6 0 4.71238898038469 5.74872695734282
2  3 5 0 4.71238898038469 5.74872695734282
0

0101000
+250 4 -253 4 *
Ve
1e-07
-20.6312499999997 8.67483927242142 0.00766222894651492
0 0

0101101
*
Ed
 1e-07 1 1 0
1  7 0 0 584.6125
0

0101000
-248 8 +252 8 *
Ve
1.4642799442e-05
563 -10 3.26918345398917
0 0

0101101
*
Ed
 1.5e-07 1 1 0
1  8 0 -15.8945985486244 -7.77350745130319
0

0101000
+250 4 -246 4 *
Ve
8.58068006e-07
-20.6312499999998 -0.27891068288136 1.57141574228137
0 0

0101101
*
Ed
 1e-07 1 1 0
1  9 0 20.9107226187104 30
0

0101000
+244 8 -248 8 *
Ve
1.4642799442e-05
561 -12 3.61847922863706
0 0

0101101
*
Ed
 1.0216229356e-05 1 1 0
1  10 0 3.14159265358979 4.71238898038469
2  4 6 0 3.14159265358979 4.71238898038469
0

0101000
+242 4 -246 4 *
Ve
8.58068006e-07
-19.6499999999999 -2 1.87200035539763
0 0

0101101
*
Ed
 5.97301047e-07 1 1 0
1  11 0 0.53445834983678 1.5707963267949
2  5 7 0 0.53445834983678 1.5707963267949
0

0101000
+244 4 -240 4 *
Ve
1.4642799442e-05
545 -12 3.61847922863706
0 0

0101101
*
Ed
 1.5e-07 1 1 0
1  12 0 2.49062499999999 18.490625
0

0101000
+242 4 -238 4 *
Ve
1.4642799442e-05
-19.6499999999999 -10 3.26918345398917
0 0

0101101
*
Ed
 1.5e-07 1 1 0
1  13 0 -15.8945985486244 -7.77350745130319
0

0101000
+240 4 -236 4 *
Ve
1.4642799442e-05
543 -10 3.26918345398917
0 0

0101101
*
Ed
 1.0216229356e-05 1 1 0
1  14 0 1.5707963267949 3.14159265358979
2  6 8 0 1.5707963267949 3.14159265358979
0

0101000
+234 4 -238 4 *
Ve
1.4642799442e-05
-17.6499999999999 -12 3.61847922863706
0 0

0101101
*
Ed
 1.0216229359e-05 1 1 0
1  15 0 1.5707963267949 3.14159265358985
2  7 9 0 1.5707963267949 3.14159265358985
0

0101000
+236 4 -232 4 *
Ve
1.4642799442e-05
543 -2 1.87200035539763
0 0

0101101
*
Ed
 1.5e-07 1 1 0
1  16 0 -15.8945985486244 -7.77350745130319
0

0101000
+230 4 -234 4 *
Ve
1.4642799442e-05
-1.64999999999986 -12 3.61847922863706
0 0

0101101
*
Ed
 1.5e-07 1 1 0
1  17 0 283.815625 299.815625
0

0101000
+228 4 -232 4 *
Ed
 1.0216229356e-05 1 1 0
1  18 0 0 1.5707963267949
2  8 3 0 0 1.5707963267949
0

0101000
+262 4 -230 4 *
Ve
1.4642799442e-05
0.350000000000136 -10 3.26918345398917
0 0

0101101
*
Ed
 1.0216229356e-05 1 1 0
1  19 0 1.5707963267949 3.14159265358974
2  9 10 0 1.5707963267949 3.14159265358974
0

0101000
+225 4 -228 4 *
Ve
1.4642799442e-05
0.350000000000136 -2 1.87200035539763
0 0

0101101
*
Ed
 1.5e-07 1 1 0
1  20 0 -15.8945985486244 -7.77350745130319
0

0101000
+223 4 -225 4 *
Ed
 1.0216229359e-05 1 1 0
1  21 0 -5.7e-14 1.5707963267949
2  10 2 0 -5.7e-14 1.5707963267949
0

0101000
+263 4 -223 4 *
Wi

0101100
-251 7 -249 0 -247 7 +245 0 +243 7 -241 0 -239 0 +237 0 -235 0 -233 0 
-231 0 -229 0 +227 0 -226 0 +224 0 -261 0 +222 0 +221 0 *
Fa
0  1e-07 4 7

0111000
+220 0 *
Ve
2.00000682e-07
0.350000000000136 -2 18.0000000000001
0 0

0101101
*
Ed
 1e-07 1 1 0
1  22 0 3.14159265358979 4.71238898038469
2  11 2 0 3.14159265358979 4.71238898038469
0

0101000
+260 4 -218 4 *
Ed
 1e-07 1 1 0
1  23 0 1.14e-13 16.1279996446025
2  12 2 0 1.14e-13 16.1279996446025
4 G1 2 0 11 0
0

0101000
+218 4 -223 4 *
Wi

0101100
+217 0 -259 0 +216 0 -221 0 *
Fa
0  1e-07 2 0

0111000
+215 0 *
Ve
2.00000682e-07
543 -2 18.0000000000001
0 0

0101101
*
Ed
 1e-07 1 1 0
1  24 0 3.14159265358979 4.71238898038469
2  13 3 0 3.14159265358979 4.71238898038469
0

0101000
+258 4 -213 4 *
Ed
 1e-07 1 1 0
1  25 0 1.14e-13 16.1279996446025
2  14 3 0 1.14e-13 16.1279996446025
4 G1 3 0 12 0
0

0101000
+213 4 -230 4 *
Wi

0101100
+212 0 -257 0 +211 0 -226 0 *
Fa
0  1e-07 3 0

0111000
+210 0 *
Ve
2.00000682e-07
565 0 18.0000000000001
0 0

0101101
*
Ve
8.4259611748e-05
572 0 18.0000000000001
0 0

0101101
*
Ed
 2.00000682e-07 1 1 0
1  26 0 0 7
0

0101000
-208 4 +207 4 *
Ve
2.00000682e-07
563 -2 18.0000000000001
0 0

0101101
*
Ed
 1e-07 1 1 0
1  27 0 1.5707963267949 3.14159265358979
2  15 5 0 1.5707963267949 3.14159265358979
0

0101000
+205 4 -208 4 *
Ve
2.00000682e-07
572 162.975 18.0000000000001
0 0

0101101
*
Ed
 2.00000682e-07 1 1 0
1  28 0 0 162.975
0

0101000
-203 10 +207 10 *
Ve
2.00000682e-07
563 -10 18.0000000000001
0 0

0101101
*
Ed
 2.00000682e-07 1 1 0
1  29 0 2 10
0

0101000
+201 4 -205 4 *
Ve
2.00000682e-07
-28.65 162.975 18.0000000000001
0 0

0101101
*
Ed
 2.00000682e-07 1 1 0
1  30 0 -28.65 572
0

0101000
+203 4 -199 4 *
Ve
2.00000682e-07
561 -12 18.0000000000001
0 0

0101101
*
Ed
 1e-07 1 1 0
1  31 0 0 1.5707963267949
2  16 6 0 0 1.5707963267949
0

0101000
+197 4 -201 4 *
Ve
8.4259611861e-05
-28.65 0 18.0000000000001
0 0

0101101
*
Ed
 2.00000682e-07 1 1 0
1  32 0 0 162.975
0

0101000
-199 14 +195 14 *
Ve
2.00000682e-07
545 -12 18.0000000000001
0 0

0101101
*
Ed
 2.00000682e-07 1 1 0
1  33 0 2 18
0

0101000
+197 4 -193 4 *
Ve
2.00000682e-07
-21.6499999999999 0 18.0000000000001
0 0

0101101
*
Ed
 2.00000682e-07 1 1 0
1  34 0 593.65 600.65
0

0101000
+191 4 -195 4 *
Ve
2.00000682e-07
543 -10 18.0000000000001
0 0

0101101
*
Ed
 1e-07 1 1 0
1  35 0 4.71238898038469 6.28318530717959
2  17 8 0 4.71238898038469 6.28318530717959
0

0101000
+189 4 -193 4 *
Ve
2.00000682e-07
-19.6499999999999 -2 18.0000000000001
0 0

0101101
*
Ed
 1e-07 1 1 0
1  36 0 3.14159265358979 4.71238898038469
2  18 7 0 3.14159265358979 4.71238898038469
0

0101000
+191 4 -187 4 *
Ed
 2.00000682e-07 1 1 0
1  37 0 2 10
0

0101000
+189 4 -213 4 *
Ve
2.00000682e-07
-19.6499999999999 -10 18.0000000000001
0 0

0101101
*
Ed
 2.00000682e-07 1 1 0
1  38 0 2 10
0

0101000
+184 4 -187 4 *
Ve
2.00000682e-07
-17.6499999999999 -12 18.0000000000001
0 0

0101101
*
Ed
 1e-07 1 1 0
1  39 0 4.71238898038469 6.28318530717959
2  19 9 0 4.71238898038469 6.28318530717959
0

0101000
+184 4 -182 4 *
Ve
2.00000682e-07
-1.64999999999986 -12 18.0000000000001
0 0

0101101
*
Ed
 2.00000682e-07 1 1 0
1  40 0 2 18
0

0101000
+180 4 -182 4 *
Ve
2.00000682e-07
0.350000000000136 -10 18.0000000000001
0 0

0101101
*
Ed
 1e-07 1 1 0
1  41 0 4.71238898038469 6.28318530717959
2  20 10 0 4.71238898038469 6.28318530717959
0

0101000
+178 4 -180 4 *
Ed
 2.00000682e-07 1 1 0
1  42 0 2 10
0

0101000
+178 4 -218 4 *
Wi

0101100
-206 0 +204 0 +202 9 +200 0 +198 0 +196 0 -194 13 -192 0 -190 0 +188 0 
+186 0 -185 0 -183 0 +212 0 +181 0 -256 0 -179 0 -217 0 -177 0 +176 0 
*
Ve
1.5e-07
141.675 60.875 18.0000000000001
0 0

0101101
*
Ve
1.5e-07
401.675 60.875 18.0000000000001
0 0

0101101
*
Ed
 1.5e-07 1 1 0
1  43 0 -336 -76
0

0101000
+174 18 -173 18 *
Ve
1.5e-07
141.675 120.875 18.0000000000001
0 0

0101101
*
Ed
 1.5e-07 1 1 0
1  44 0 30.4375 90.4375
0

0101000
+174 18 -171 18 *
Ve
1.5e-07
401.675 120.875 18.0000000000001
0 0

0101101
*
Ed
 1.5e-07 1 1 0
1  45 0 -336 -76
0

0101000
+171 18 -169 18 *
Ed
 1.5e-07 1 1 0
1  46 0 30.4375 90.4375
0

0101000
+173 18 -169 18 *
Wi

0101100
-172 17 +170 17 +168 17 -167 17 *
Ve
1e-07
95.6750000000001 132.875 18.0000000000001
0 0

0101101
*
Ed
 1e-07 1 1 0
1  47 0 0 6.28318530717959
2  21 14 0 0 6.28318530717959
0

0101100
+165 20 -165 20 *
Wi

0101100
+164 19 *
Ve
1e-07
435.675 132.875 18.0000000000001
0 0

0101101
*
Ed
 1e-07 1 1 0
1  48 0 0 6.28318530717959
2  22 15 0 0 6.28318530717959
0

0101100
+162 20 -162 20 *
Wi

0101100
+161 19 *
Ve
2.00000682e-07
15.1750000000001 12.875 18.0000000000001
0 0

0101101
*
Ed
 2.00000682e-07 1 1 0
1  49 0 0 6.28318530717959
2  23 16 0 0 6.28318530717959
0

0101000
+159 24 -159 24 *
Wi

0101100
+158 23 *
Ve
2.00000682e-07
15.1750000000001 52.875 18.0000000000001
0 0

0101101
*
Ed
 2.00000682e-07 1 1 0
1  50 0 0 6.28318530717959
2  24 17 0 0 6.28318530717959
0

0101000
+156 27 -156 27 *
Wi

0101100
+155 26 *
Ve
2.00000682e-07
525.175 12.875 18.0000000000001
0 0

0101101
*
Ed
 2.00000682e-07 1 1 0
1  51 0 0 6.28318530717959
2  25 18 0 0 6.28318530717959
0

0101000
+153 30 -153 30 *
Wi

0101100
+152 29 *
Ve
2.00000682e-07
525.175 52.875 18.0000000000001
0 0

0101101
*
Ed
 2.00000682e-07 1 1 0
1  52 0 0 6.28318530717959
2  26 19 0 0 6.28318530717959
0

0101000
+150 33 -150 33 *
Wi

0101100
+149 32 *
Fa
0  2.00000682e-07 13 0

0111000
+175 0 +166 0 +163 0 +160 0 +157 0 +154 0 +151 0 +148 0 *
Ve
2.50000682e-07
563.98125 -0.27891068288136 1.13686837721616e-13
0 0

0101101
*
Ve
2.50000909e-07
563.98125 8.67350108032406 1.13686837721616e-13
0 0

0101101
*
Ed
 2.50000682e-07 1 1 0
1  53 0 -29.0984526667412 -20.1460409034841
0

0101000
+146 4 -145 4 *
Ed
 1e-07 1 1 0
1  54 0 16.4285842577187 18
2  27 5 0 16.4285842577187 18
0

0101000
+253 4 -146 4 *
Ed
 1e-07 1 1 0
1  55 0 0 0.007778207410267
0

0101000
+252 8 -145 8 *
Wi

0101100
-144 0 -143 0 +142 7 +251 7 *
Fa
0  1e-07 20 7

0111000
+141 0 *
Ed
 1e-07 1 1 0
1  56 0 1.14e-13 16.1279996446025
2  28 5 0 1.14e-13 16.1279996446025
4 G1 5 0 21 0
0

0101000
+205 4 -250 4 *
Ve
2.00000682e-07
565 0 1.13686837721616e-13
0 0

0101101
*
Ed
 1e-07 1 1 0
1  57 0 2.60713430376091 3.14159265358979
2  29 5 0 2.60713430376091 3.14159265358979
0

0101000
+146 4 -138 4 *
Ed
 1e-07 1 1 0
1  58 0 1.14e-13 18
2  30 5 0 1.14e-13 18
4 G1 5 0 22 0
0

0101000
+208 4 -138 4 *
Wi

0101100
-249 0 -139 0 -143 0 +204 0 -137 0 +136 0 *
Fa
0  1e-07 5 0

0111000
+135 0 *
Ve
2.50000909e-07
-20.6312499999998 8.67350108032406 1.13686837721616e-13
0 0

0101101
*
Ed
 1e-07 1 1 0
1  59 0 0 0.007778207410267
0

0101000
+248 8 -133 8 *
Ed
 2.50000682e-07 1 1 0
1  60 0 -438.459375 146.153125
0

0101000
+133 4 -145 4 *
Wi

0101100
-132 7 -131 0 +142 7 -247 7 *
Fa
0  1e-07 23 7

0111000
+130 0 *
Ed
 1e-07 1 1 0
1  61 0 1.14e-13 14.730816546011
2  31 6 0 1.14e-13 14.730816546011
4 G1 21 0 6 0
0

0101000
+201 4 -246 4 *
Wi

0101100
+245 0 +139 0 -128 0 +200 0 *
Fa
0  1e-07 21 0

0111000
+127 0 *
Ve
2.50000682e-07
-20.6312500000364 -0.27891068285976 1.13686837721616e-13
0 0

0101101
*
Ed
 2.50000682e-07 1 1 0
1  62 0 -29.0984526666059 -20.1460409034841
0

0101000
+125 4 -133 4 *
Ed
 1e-07 1 1 0
1  63 0 -18 -16.4285842577187
2  32 7 0 -18 -16.4285842577187
0

0101000
+125 4 -244 4 *
Wi

0101100
-124 0 +123 0 +132 7 +243 7 *
Fa
0  1e-07 24 7

0111000
+122 0 *
Ed
 1e-07 1 1 0
1  64 0 1.14e-13 14.3815207713631
2  33 6 0 1.14e-13 14.3815207713631
4 G1 6 0 25 0
0

0101000
+197 4 -242 4 *
Wi

0101100
+196 0 -120 0 +128 0 -241 0 *
Fa
0  1e-07 6 0

0111000
+119 0 *
Ve
2.00000682e-07
-21.6499999999999 0 1.13686837721616e-13
0 0

0101101
*
Ed
 1e-07 1 1 0
1  65 0 3.14159265358979 3.67605100338422
2  34 7 0 3.14159265358979 3.67605100338422
0

0101000
+117 4 -125 4 *
Ed
 1e-07 1 1 0
1  66 0 1.14e-13 18
2  35 7 0 1.14e-13 18
4 G1 7 0 26 0
0

0101000
+191 4 -117 4 *
Ed
 1e-07 1 1 0
1  67 0 1.14e-13 16.1279996446025
2  36 7 0 1.14e-13 16.1279996446025
4 G1 7 0 27 0
0

0101000
+187 4 -240 4 *
Wi

0101100
-116 0 -115 0 -123 0 +186 0 -239 0 +114 0 *
Fa
0  1e-07 7 0

0111000
+113 0 *
Ed
 1e-07 1 1 0
1  68 0 1.14e-13 14.3815207713631
2  37 8 0 1.14e-13 14.3815207713631
4 G1 25 0 8 0
0

0101000
+193 4 -238 4 *
Wi

0101100
+237 0 +120 0 -111 0 -192 0 *
Fa
0  1e-07 25 0

0111000
+110 0 *
Ed
 1e-07 1 1 0
1  69 0 1.14e-13 14.730816546011
2  38 9 0 1.14e-13 14.730816546011
4 G1 27 0 9 0
0

0101000
+184 4 -236 4 *
Wi

0101100
+235 0 +114 0 -108 0 +183 0 *
Fa
0  1e-07 27 0

0111000
+107 0 *
Ed
 1e-07 1 1 0
1  70 0 1.14e-13 14.730816546011
2  39 8 0 1.14e-13 14.730816546011
4 G1 8 0 12 0
0

0101000
+189 4 -234 4 *
Wi

0101100
+188 0 -105 0 +111 0 -233 0 *
Fa
0  1e-07 8 0

0111000
+104 0 *
Ed
 1e-07 1 1 0
1  71 0 1.14e-13 14.3815207713631
2  40 9 0 1.14e-13 14.3815207713631
4 G1 9 0 28 0
0

0101000
+182 4 -232 4 *
Wi

0101100
+181 0 -108 0 +102 0 -231 0 *
Fa
0  1e-07 9 0

0111000
+101 0 *
Wi

0101100
+229 0 +211 0 -105 0 +185 0 *
Fa
0  1e-07 12 0

0111000
+99 0 *
Ed
 1e-07 1 1 0
1  72 0 1.14e-13 14.3815207713631
2  41 10 0 1.14e-13 14.3815207713631
4 G1 28 0 10 0
0

0101000
+180 4 -228 4 *
Wi

0101100
+227 0 +97 0 -102 0 -179 0 *
Fa
0  1e-07 28 0

0111000
+96 0 *
Ed
 1e-07 1 1 0
1  73 0 1.14e-13 14.730816546011
2  42 10 0 1.14e-13 14.730816546011
4 G1 10 0 11 0
0

0101000
+178 4 -225 4 *
Wi

0101100
+177 0 -94 0 +97 0 -224 0 *
Fa
0  1e-07 10 0

0111000
+93 0 *
Wi

0101100
+222 0 +216 0 -94 0 +176 0 *
Fa
0  1e-07 11 0

0111000
+91 0 *
Ve
2.00000682e-07
572 0 1.13686837721616e-13
0 0

0101101
*
Ed
 2.00000682e-07 1 1 0
1  74 0 607.65 614.65
0

0101000
+138 4 -89 4 *
Ed
 2.00000341e-07 1 1 0
1  75 0 0 18
0

0101000
+207 10 -89 10 *
Wi

0101100
+88 0 +136 0 -87 9 +206 0 *
Fa
0  2.00000341e-07 22 0

0111000
+86 0 *
Ve
2.00000682e-07
572 162.975 1.13686837721616e-13
0 0

0101101
*
Ed
 2.00000682e-07 1 1 0
1  76 0 0 162.975
0

0101000
+89 10 -84 10 *
Ed
 2.00000682e-07 1 1 0
1  77 0 0 18
0

0101000
+203 10 -84 10 *
Wi

0101100
-87 0 -83 0 +82 0 +202 0 *
Fa
0  1e-07 29 0

0111000
+81 0 *
Ve
2.00000682e-07
-28.65 162.975 1.13686837721616e-13
0 0

0101101
*
Ed
 2.00000682e-07 1 1 0
1  78 0 -596.65 4
0

0101000
+84 4 -79 4 *
Ed
 2.00000682e-07 1 1 0
1  79 0 0 18
0

0101000
+199 14 -79 14 *
Wi

0101000
+82 9 +78 0 -77 13 -198 0 *
Fa
0  2.00000682e-07 30 0

0111000
+76 0 *
Ve
2.00000682e-07
-28.65 0 1.13686837721616e-13
0 0

0101101
*
Ed
 2.00000341e-07 1 1 0
1  80 0 0 18
0

0101000
+195 14 -74 14 *
Ed
 2.00000682e-07 1 1 0
1  81 0 0 162.975
0

0101000
+74 14 -79 14 *
Wi

0101100
-73 0 -72 0 +77 0 +194 0 *
Fa
0  1e-07 31 0

0111000
+71 0 *
Ed
 2.00000682e-07 1 1 0
1  82 0 14 21.0000000000001
0

0101000
-117 4 +74 4 *
Wi

0101100
+69 0 -115 0 +73 13 +190 0 *
Fa
0  2.00000341e-07 26 0

0111000
+68 0 *
Ve
1.5e-07
141.675 60.875 1.13686837721616e-13
0 0

0101101
*
Ed
 1e-07 1 1 0
1  83 0 8.89999999999998 26.9
0

0101000
+174 18 -66 18 *
Ve
1.5e-07
401.675 60.875 1.13686837721616e-13
0 0

0101101
*
Ed
 1.5e-07 1 1 0
1  84 0 -336 -76
0

0101000
+66 18 -64 18 *
Ed
 1e-07 1 1 0
1  85 0 8.89999999999998 26.9
0

0101000
+173 18 -64 18 *
Wi

0101100
-65 0 -63 0 +62 0 +172 0 *
Fa
0  1e-07 32 0

0111000
+61 0 *
Ve
1.5e-07
141.675 120.875 1.13686837721616e-13
0 0

0101101
*
Ed
 1.5e-07 1 1 0
1  86 0 30.4375 90.4375
0

0101000
+66 18 -59 18 *
Ed
 1e-07 1 1 0
1  87 0 8.89999999999998 26.9
0

0101000
+171 18 -59 18 *
Wi

0101100
-65 0 -58 0 +57 0 +170 0 *
Fa
0  1e-07 33 0

0111000
+56 0 *
Ve
1.5e-07
401.675 120.875 1.13686837721616e-13
0 0

0101101
*
Ed
 1.5e-07 1 1 0
1  88 0 -336 -76
0

0101000
+59 18 -54 18 *
Ed
 1e-07 1 1 0
1  89 0 8.89999999999998 26.9
0

0101000
+169 18 -54 18 *
Wi

0101100
-57 0 -53 0 +52 0 +168 0 *
Fa
0  1e-07 34 0

0111000
+51 0 *
Ed
 1.5e-07 1 1 0
1  90 0 30.4375 90.4375
0

0101000
+64 18 -54 18 *
Wi

0101100
-62 0 -49 0 +52 0 +167 0 *
Fa
0  1e-07 35 0

0111000
+48 0 *
Ve
1e-07
95.6750000000001 132.875 1.13686837721616e-13
0 0

0101101
*
Ed
 1e-07 1 1 0
1  91 0 0 6.28318530717959
2  43 14 0 0 6.28318530717959
0

0101100
+46 20 -46 20 *
Ed
 1e-07 1 1 0
1  92 0 0.899999999999977 18.9
3  44 45CN 14 0 0.899999999999977 18.9
0

0101000
+165 20 -46 20 *
Wi

0101100
-45 0 +44 0 +164 0 -44 0 *
Fa
0  1e-07 14 0

0111000
+43 0 *
Ve
1e-07
435.675 132.875 1.13686837721616e-13
0 0

0101101
*
Ed
 1e-07 1 1 0
1  93 0 0 6.28318530717959
2  46 15 0 0 6.28318530717959
0

0101100
+41 20 -41 20 *
Ed
 1e-07 1 1 0
1  94 0 0.899999999999977 18.9
3  47 48CN 15 0 0.899999999999977 18.9
0

0101000
+162 20 -41 20 *
Wi

0101100
-40 0 +39 0 +161 0 -39 0 *
Fa
0  1e-07 15 0

0111000
+38 0 *
Ve
1e-07
15.1750000000001 12.875 6.00000000000011
0 0

0101101
*
Ed
 1e-07 1 1 0
1  95 0 0 6.28318530717959
2  49 16 0 0 6.28318530717959
0

0101000
+36 24 -36 24 *
Ed
 1e-07 1 1 0
1  96 0 0 12
3  50 51CN 16 0 0 12
0

0101000
+159 24 -36 24 *
Wi

0101100
-35 23 +34 23 +158 23 -34 23 *
Fa
0  1e-07 16 23

0111000
+33 0 *
Ve
1e-07
15.1750000000001 52.875 6.00000000000011
0 0

0101101
*
Ed
 1e-07 1 1 0
1  97 0 0 6.28318530717959
2  52 17 0 0 6.28318530717959
0

0101000
+31 27 -31 27 *
Ed
 1e-07 1 1 0
1  98 0 0 12
3  53 54CN 17 0 0 12
0

0101000
+156 27 -31 27 *
Wi

0101100
-30 26 +29 26 +155 26 -29 26 *
Fa
0  1e-07 17 26

0111000
+28 0 *
Ve
1e-07
525.175 12.875 6.00000000000011
0 0

0101101
*
Ed
 1e-07 1 1 0
1  99 0 0 6.28318530717959
2  55 18 0 0 6.28318530717959
0

0101000
+26 30 -26 30 *
Ed
 1e-07 1 1 0
1  100 0 0 12
3  56 57CN 18 0 0 12
0

0101000
+153 30 -26 30 *
Wi

0101100
-25 29 +24 29 +152 29 -24 29 *
Fa
0  1e-07 18 29

0111000
+23 0 *
Ve
1e-07
525.175 52.875 6.00000000000011
0 0

0101101
*
Ed
 1e-07 1 1 0
1  101 0 0 6.28318530717959
2  58 19 0 0 6.28318530717959
0

0101000
+21 33 -21 33 *
Ed
 1e-07 1 1 0
1  102 0 0 12
3  59 60CN 19 0 0 12
0

0101000
+150 33 -21 33 *
Wi

0101100
-20 32 +19 32 +149 32 -19 32 *
Fa
0  1e-07 19 32

0111000
+18 0 *
Wi

0101100
-69 0 -116 0 +72 13 -124 0 -78 0 -131 0 -83 9 +144 0 -88 0 -137 0 
*
Wi

0101100
+63 17 -58 17 +49 17 -53 17 *
Wi

0101100
-40 19 *
Wi

0101100
-45 19 *
Fa
0  2.00000682e-07 36 0

0111000
+16 0 +15 0 +14 0 +13 0 *
Wi

0101100
+35 0 *
Fa
0  1e-07 37 0

0111000
+11 0 *
Wi

0101100
+30 0 *
Fa
0  1e-07 38 0

0111000
+9 0 *
Wi

0101100
+25 0 *
Fa
0  1e-07 39 0

0111000
+7 0 *
Wi

0101100
+20 0 *
Fa
0  1e-07 40 0

0111000
+5 0 *
Sh

0101100
+254 0 +219 0 +214 0 -209 0 +147 0 +140 0 -134 0 -129 0 -126 0 -121 0 
-118 0 -112 0 -109 0 +106 0 -103 0 -100 0 +98 0 -95 0 +92 0 -90 0 
+85 0 -80 9 +75 0 +70 13 +67 0 +60 17 -55 17 -50 17 +47 17 -42 19 
-37 19 -32 0 -27 0 -22 0 -17 0 +12 0 -10 23 -8 26 -6 29 -4 32 
*
So

0100000
+3 0 *
Co

1100000
+2 0 *

+1 3 