DBRep_DrawableShape

CASCADE Topology V1, (c) Matra-Datavision
Locations 6
1
              1               0               0               0 
              0               1               0               0 
              0               0               1               0 
1
              1               0               0               0 
              0               1               0               0 
              0               0               1               0 
2  1 1 2 1 0
2  1 -1 0
1
              1               0               0               0 
              0               1               0               0 
              0               0               1             126 
2  1 -1 5 -1 0
Curve2ds 12
7 0 0  8 23 4  5.4797667138574599 31.6374675043038  5.333630835090732 32.215951507224574  5.1874949563247243 32.887628873463136  5.0413590775560237 33.633673690915884  4.8952231987909727 34.431018031194981  4.7490873200256658 35.253625942581948  4.6029514412564954 36.07428734676067  4.4568155624903572 36.866536651068287  4.0914758655735346 38.715947243403726  3.872272047426577 39.707502347417176  3.6530682292614074 40.499715411759098  3.4338644111358008 41.023457802075427  3.2146605929574434 41.234140815737192  2.9954567748259251 41.121332209651882  2.7762529566729626 40.7079307765853  2.337845320372776 39.37736223568433  2.1186415022236815 38.460194430153933  1.8994376840601035 37.339863130633603  1.6802338659363159 36.090864641242661  1.461030047764325 34.806159809333622  1.2418262296239391 33.582605231931666  1.02262241147222 32.505193508684968  0.80341859332212684 31.6374675043038 
 3.9450112469119238 9 5.1140982770457599 7 6.8677288222465034 7 8.6213593674472477 9
7 0 0  8 23 4  5.4797667138574599 31.6374675043038  5.333630835090732 32.215951507224574  5.1874949563247243 32.887628873463136  5.0413590775560237 33.633673690915884  4.8952231987909727 34.431018031194981  4.7490873200256658 35.253625942581948  4.6029514412564954 36.07428734676067  4.4568155624903572 36.866536651068287  4.0914758655735346 38.715947243403726  3.8722720474274865 39.707502347417176  3.6530682292577694 40.499715411759098  3.4338644111394387 41.023457802075427  3.2146605929538055 41.234140815737192  2.9954567748268346 41.121332209651882  2.7762529566729626 40.7079307765853  2.337845320372776 39.37736223568433  2.1186415022218625 38.460194430153933  1.8994376840710174 37.339863130633603  1.680233865918126 36.090864641242661  1.4610300477716009 34.806159809333622  1.2418262296221201 33.582605231931666  1.02262241147222 32.505193508684968  0.80341859332212684 31.6374675043038 
 3.9450112469119238 9 5.1140982770457599 7 6.8677288222465034 7 8.6213593674472477 9
1 0 73.639610306789351 1 0 
1 0 73.639610306789351 1 0 
7 0 0  7 14 3  2.3381740602639458 31.637467504318352  2.1711616273879493 32.298592079086276  2.0041491945119105 33.083974471607689  1.8371367616364296 33.963493222527177  1.6701243287598118 34.898542839880974  1.5031118958841603 35.845431113764789  1.3360994630079501 36.760856045803315  1.0020745972559566 38.45174573022026  0.83506216438021852 39.227209802997095  0.66804973150317437 39.894180319537554  0.50103729862843238 40.418904150617891  0.33402486575178614 40.776862443472055  0.16701243287599674 40.955844122715689  0 40.955844122715689 
 3.9450112469156324 8 5.1140982770476091 6 6.2831853071795862 8
7 0 0  7 14 3  6.2831853071795862 40.955844122715689  6.1161728743035892 40.955844122715689  5.9491604414277433 40.776862443482969  5.782148008551097 40.418904150596063  5.615135575676014 39.894180319559382  5.4481231427994246 39.227209802991638  5.2811107099236301 38.45174573022026  4.9470858441716361 36.760856045803315  4.7800734112957102 35.845431113760242  4.6130609784195471 34.898542839902802  4.4460485455431566 33.963493222505349  4.2790361126676757 33.083974471612237  4.112023679791637 32.298592079086276  3.9450112469156404 31.637467504318352 
 0 8 1.1690870301319769 6 2.3381740602639538 8
7 0 0  7 14 3  2.3381740602639458 31.637467504318352  2.1711616273879493 32.298592079086276  2.0041491945117968 33.083974471607689  1.8371367616368843 33.963493222527177  1.670124328759357 34.898542839880974  1.5031118958843876 35.845431113764789  1.3360994630079501 36.760856045803315  1.0020745972559566 38.45174573022026  0.83506216438011904 39.227209802997095  0.66804973150385649 39.894180319537554  0.50103729862814816 40.418904150617891  0.33402486575198509 40.776862443472055  0.16701243287599674 40.955844122715689  0 40.955844122715689 
 3.9450112469156324 8 5.1140982770476091 6 6.2831853071795862 8
7 0 0  7 14 3  6.2831853071795862 40.955844122715689  6.1161728743035892 40.955844122715689  5.9491604414277433 40.776862443482969  5.782148008551097 40.418904150596063  5.615135575676014 39.894180319559382  5.4481231427994246 39.227209802991638  5.2811107099236301 38.45174573022026  4.9470858441716361 36.760856045803315  4.7800734112957102 35.845431113760242  4.6130609784195471 34.898542839902802  4.4460485455431566 33.963493222505349  4.2790361126676757 33.083974471612237  4.112023679791637 32.298592079086276  3.9450112469156404 31.637467504318352 
 0 8 1.1690870301319769 6 2.3381740602639538 8
1 6.2831853071795862 -0 0 1 
1 0 -0 0 1 
1 6.2831853071795862 -0 0 1 
1 0 -0 0 1 
Curves 21
1 0 0 0 1 -0 -0 
1 54 0 0 -0 -0 1 
1 0 0 0 1 -0 -0 
1 0 0 0 -0 -0 1 
3 5.6843418860808015e-14 0 86 0 1 -0 1 -0 -0 -0 -0 -1 7.7781745930520225 5.5
1 0 0 0 -0 -0 1 
3 5.6843418860808015e-14 0 28 0 1 -0 1 -0 -0 -0 -0 -1 7.7781745930520225 5.5
1 0 0 0 -0 -0 1 
1 54 0 0 -0.70710678118654757 0.70710678118654757 0 
1 0 54 0 -0 -1 -0 
1 54 0 0 -0.70710678118654757 0.70710678118654757 0 
1 0 54 0 -0 -0 1 
2 27.000000000000036 27 86 -0.70710678118654757 -0.70710678118654757 0 -0.70710678118654757 0.70710678118654757 0 0 -0 -1 5.5
2 27.000000000000036 27 28 -0.70710678118654757 -0.70710678118654757 0 -0.70710678118654757 0.70710678118654757 0 0 -0 -1 5.5
1 0 54 0 -0 -1 -0 
3 0 0 28 1 0 0 -0 1 -0 -0 -0 1 7.7781745930520225 5.5
3 0 0 28 1 0 0 -0 1 -0 -0 -0 1 7.7781745930520225 5.5
3 0 0 86 1 0 0 -0 1 -0 -0 -0 1 7.7781745930520225 5.5
3 0 0 86 1 0 0 -0 1 -0 -0 -0 1 7.7781745930520225 5.5
1 -28.960155108391486 -21.181980515339546 86 0.70710678118654757 0.70710678118654757 -0 
1 -28.960155108391486 -21.181980515339546 28 0.70710678118654757 0.70710678118654757 -0 
Polygon3D 0
PolygonOnTriangulations 0
Surfaces 7
1 0 0 0 -0 -1 -0 1 -0 -0 -0 -0 -1 
2 -25.071067811865476 -25.071067811865532 86 0.70710678118654757 0.70710678118654757 -0 -0.70710678118654757 0.70710678118654757 0 0 -0 -1 5.5
2 -25.071067811865476 -25.071067811865532 28 0.70710678118654757 0.70710678118654757 -0 -0.70710678118654757 0.70710678118654757 0 0 -0 -1 5.5
1 19.091883092036788 19.091883092036369 7.1054273576010019e-15 -0 0 -1 -1 -0 -0 -0 -1 -0 
1 54 0 0 0.70710678118654757 0.70710678118654757 -0 -0.70710678118654757 0.70710678118654757 0 0 -0 -1 
1 19.091883092036788 19.091883092036369 7.1054273576010019e-15 -0 0 -1 -1 -0 -0 -0 -1 -0 
1 0 54 0 -1 -0 -0 -0 -1 -0 -0 -0 -1 
Triangulations 0

TShapes 55
Ve
1e-07
0 0 0
0 0

0101101
*
Ve
1e-07
54 0 0
0 0

0101101
*
Ed
 1e-07 1 1 0
1  1 0 0 54
0

0101000
+55 4 -54 4 *
Ve
1e-07
54 0 126
0 0

0101101
*
Ed
 1e-07 1 1 0
1  2 0 0 126
0

0101000
+54 4 -52 4 *
Ve
1e-07
0 0 126
0 0

0101101
*
Ed
 1e-07 1 1 0
1  3 0 0 54
0

0101000
+50 6 -52 6 *
Ve
1.00000057e-07
0 0 91.5
0 0

0101101
*
Ed
 1e-07 1 1 0
1  4 0 91.5 126
0

0101000
+48 4 -50 4 *
Ve
1.0000006e-07
0 0 80.5
0 0

0101101
*
Ed
 1e-07 1 1 0
1  5 0 4.71238898038469 7.85398163397448
2  1 2 0 4.71238898038469 7.85398163397448
0

0101000
+48 4 -46 4 *
Ve
1.00000057e-07
0 0 33.5
0 0

0101101
*
Ed
 1e-07 1 1 0
1  6 0 33.5 80.5
0

0101000
+44 4 -46 4 *
Ve
1.0000006e-07
0 0 22.5
0 0

0101101
*
Ed
 1e-07 1 1 0
1  7 0 4.71238898038469 7.85398163397448
2  2 3 0 4.71238898038469 7.85398163397448
0

0101000
+44 4 -42 4 *
Ed
 1e-07 1 1 0
1  8 0 0 22.5
0

0101000
+55 4 -42 4 *
Wi

0101100
-53 0 -51 0 +49 5 +47 0 -45 0 +43 0 -41 0 +40 0 *
Fa
0  1e-07 1 0

0111000
+39 0 *
Ve
1e-07
0 54 0
0 0

0101101
*
Ed
 1e-07 1 1 0
1  9 0 0 76.3675323681471
0

0101000
+54 4 -37 4 *
Ed
 1e-07 1 1 0
1  10 0 0 54
0

0101000
+37 4 -55 4 *
Wi

0101100
+53 0 +36 0 +35 0 *
Fa
0  1e-07 4 0

0111000
+34 0 *
Ve
1e-07
0 54 126
0 0

0101101
*
Ed
 1e-07 1 1 0
1  11 0 0 76.3675323681471
0

0101000
+52 6 -32 6 *
Ed
 1e-07 1 1 0
1  12 0 0 126
0

0101000
+37 4 -32 4 *
Wi

0101100
+51 0 -36 0 +31 5 -30 0 *
Ve
1.00000014e-07
23.110912703474 30.889087296526 86
0 0

0101101
*
Ed
 1e-07 1 1 0
1  13 0 0 6.28318530717959
2  3 2 0 0 6.28318530717959
0

0101100
+28 4 -28 4 *
Wi

0101100
-27 0 *
Ve
1.00000014e-07
23.110912703474 30.889087296526 28
0 0

0101101
*
Ed
 1e-07 1 1 0
1  14 0 0 6.28318530717959
2  4 3 0 0 6.28318530717959
0

0101100
+25 4 -25 4 *
Wi

0101100
-24 0 *
Fa
0  1e-07 5 0

0111000
+29 0 +26 0 +23 0 *
Ed
 1e-07 1 1 0
1  15 0 0 54
0

0101000
+32 6 -50 6 *
Wi

0101100
+49 0 +31 0 +21 0 *
Fa
0  1e-07 6 0

0111000
+20 0 *
Ve
1.00000018e-07
3.5527136788005e-15 7.77817459305197 28
0 0

0101101
*
Ed
 1e-07 1 1 0
1  16 0 4.71238898038469 6.28318530717959
2  5 3 0 4.71238898038469 6.28318530717959
0

0101000
+42 4 -18 4 *
Ed
 1e-07 1 1 0
1  17 0 0 1.5707963267949
2  6 3 0 0 1.5707963267949
0

0101000
+18 4 -44 4 *
Ve
1.00000018e-07
3.5527136788005e-15 7.77817459305197 86
0 0

0101101
*
Ed
 1e-07 1 1 0
1  18 0 4.71238898038469 6.28318530717959
2  7 2 0 4.71238898038469 6.28318530717959
0

0101000
+46 4 -15 4 *
Ed
 1e-07 1 1 0
1  19 0 0 1.5707963267949
2  8 2 0 0 1.5707963267949
0

0101000
+15 4 -48 4 *
Wi

0101100
-35 0 -40 0 -17 0 -16 0 -43 0 -14 0 -13 0 -47 0 +21 5 +30 0 
*
Fa
0  1e-07 7 0

0111000
+12 0 *
Ed
 1e-07 1 1 0
1  20 0 40.9558441227157 73.6396103067894
3  9 10CN 2 0 40.9558441227157 73.6396103067894
0

0101000
+15 4 -28 4 *
Wi

0101100
-27 0 +10 0 -13 0 -45 0 -14 0 -10 0 *
Fa
0  1e-07 2 0

0111000
+9 0 *
Ed
 1e-07 1 1 0
1  21 0 40.9558441227157 73.6396103067894
3  11 12CN 3 0 40.9558441227157 73.6396103067894
0

0101000
+18 4 -25 4 *
Wi

0101100
-24 0 +7 0 -16 0 -41 0 -17 0 -7 0 *
Fa
0  1e-07 3 0

0111000
+6 0 *
Sh

0101100
-38 0 -33 0 -22 0 +19 5 -11 0 +8 0 +5 0 *
So

0100000
+4 0 *
Co

0100000
+3 0 *
Co

1100000
+2 0 *

+1 3 