DBRep_DrawableShape

CASCADE Topology V1, (c) Matra-Datavision
Locations 6
1
              1               0               0           28.65 
              0               1               0               0 
              0               0               1               0 
1
              1               0               0               0 
              0               1               0               0 
              0               0               1               0 
2  1 1 2 1 0
2  1 -1 0
1
              1               0               0               0 
              0               1               0               0 
              0               0               1             126 
2  1 -1 5 -1 0
Curve2ds 12
7 0 0  7 14 3  3.9450112469156329 31.637467504318465  4.1120236797916299 32.29859207908639  4.2790361126674483 33.083974471617694  4.4460485455442935 33.963493222494435  4.6130609784190924 34.898542839920992  4.7800734112958239 35.845431113759332  4.9470858441715979 36.760856045803429  5.2811107099235919 38.451745730220374  5.4481231427997798 39.227209802998914  5.6151355756752181 39.894180319537554  5.7821480085519497 40.418904150606977  5.9491604414275159 40.776862443475693  6.1161728743035892 40.955844122715916  6.2831853071795862 40.955844122715916 
 3.9450112469156324 8 5.1140982770476091 6 6.2831853071795862 8
7 0 0  7 14 3  0 40.955844122715916  0.16701243287599671 40.955844122715916  0.33402486575195667 40.776862443466598  0.50103729862809132 40.418904150628805  0.66804973150397018 39.894180319519364  0.8350621643799343 39.22720980300619  1.0020745972559946 38.451745730220374  1.3360994630079881 36.760856045803429  1.5031118958837624 35.845431113769337  1.6701243287609486 34.898542839880974  1.8371367616350653 33.963493222541729  2.0041491945124221 33.083974471603142  2.1711616273879568 32.29859207908639  2.3381740602639534 31.637467504318465 
 0 8 1.1690870301319769 6 2.3381740602639538 8
7 0 0  7 14 3  3.9450112469156329 31.637467504318465  4.1120236797916299 32.29859207908639  4.2790361126674483 33.083974471617694  4.4460485455442935 33.963493222494435  4.6130609784190924 34.898542839920992  4.7800734112958239 35.845431113759332  4.9470858441715979 36.760856045803429  5.2811107099235919 38.451745730220374  5.4481231427997798 39.227209802998914  5.6151355756752181 39.894180319537554  5.7821480085519497 40.418904150606977  5.9491604414275159 40.776862443475693  6.1161728743035892 40.955844122715916  6.2831853071795862 40.955844122715916 
 3.9450112469156324 8 5.1140982770476091 6 6.2831853071795862 8
7 0 0  7 14 3  0 40.955844122715916  0.16701243287599671 40.955844122715916  0.33402486575201351 40.776862443466598  0.50103729862786395 40.418904150628805  0.66804973150414071 39.894180319519364  0.83506216437990588 39.22720980300619  1.0020745972559946 38.451745730220374  1.3360994630079881 36.760856045803429  1.5031118958837624 35.845431113769337  1.6701243287604939 34.898542839880974  1.8371367616359748 33.963493222541729  2.0041491945123084 33.083974471603142  2.1711616273879568 32.29859207908639  2.3381740602639534 31.637467504318465 
 0 8 1.1690870301319769 6 2.3381740602639538 8
1 0 73.639610306789365 1 0 
1 0 73.639610306789365 1 0 
7 0 0  8 23 4  0.80341859332213506 31.637467504303459  0.94955447208886257 32.21595150722424  1.0956903508557005 32.887628873466461  1.2418262296224754 33.633673690913042  1.3879621083891038 34.4310180311968  1.5340979871557963 35.253625942587405  1.6802338659226068 36.07428734675792  1.8263697446892322 36.866536651068188  2.1917094416060516 38.715947243403598  2.410913259750032 39.70750234737352  2.6301170779170207 40.499715412035584  2.8493208960353513 41.023457801842596  3.0685247142064327 41.234140815970022  3.2877285323511387 41.121332209600951  3.5069323505066232 40.707930776585066  3.9453399868068062 39.37736223568411  4.1645438049599761 38.460194430204865  4.3837476230946777 37.339863130531739  4.602951441273035 36.090864641271764  4.8221552593913657 34.806159809289966  5.0413590775578996 33.582605231975322  5.2605628957073582 32.505193508684641  5.4797667138574502 31.637467504303459 
 3.945011246911942 9 5.1140982770457644 7 6.8677288222464972 7 8.62135936744723 9
7 0 0  8 23 4  0.80341859332213417 31.637467504303459  0.94955447208886168 32.21595150722424  1.0956903508555724 32.887628873466461  1.2418262296222693 33.633673690913042  1.3879621083888765 34.4310180311968  1.5340979871556755 35.253625942587405  1.6802338659226494 36.07428734675792  1.8263697446892322 36.866536651068188  2.1917094416060516 38.715947243403598  2.4109132597532152 39.70750234737352  2.6301170779079257 40.499715412035584  2.8493208960462653 41.023457801842596  3.0685247142046137 41.234140815970022  3.287728532352503 41.121332209600951  3.5069323505066232 40.707930776585066  3.9453399868068062 39.37736223568411  4.1645438049599761 38.460194430204865  4.3837476230946777 37.339863130531739  4.602951441273035 36.090864641271764  4.8221552593913657 34.806159809289966  5.0413590775578996 33.582605231975322  5.2605628957073582 32.505193508684641  5.4797667138574502 31.637467504303459 
 3.945011246911942 9 5.1140982770457644 7 6.8677288222464972 7 8.62135936744723 9
1 6.2831853071795862 -0 0 1 
1 0 -0 0 1 
1 6.2831853071795862 -0 0 1 
1 0 -0 0 1 
Curves 21
1 -28.649999999999977 0 0 1 0 0 
1 25.350000000000023 0 0 0 0 1 
1 -28.649999999999977 0 0 1 0 0 
1 -28.649999999999977 0 0 0 0 1 
3 -28.649999999999864 0 86 -0 1 0 1 0 0 0 0 -1 7.7781745930520225 5.5
3 -28.649999999999864 0 86 -0 1 0 1 0 0 0 0 -1 7.7781745930520225 5.5
1 -28.649999999999977 0 0 0 0 1 
3 -28.649999999999864 0 28 -0 1 0 1 0 0 0 0 -1 7.7781745930520225 5.5
3 -28.649999999999864 0 28 -0 1 0 1 0 0 0 0 -1 7.7781745930520225 5.5
1 -28.649999999999977 0 0 0 0 1 
1 25.350000000000023 0 0 -0.70710678118654757 0.70710678118654757 0 
1 -28.649999999999977 54 0 0 -1 0 
1 25.350000000000023 0 0 -0.70710678118654757 0.70710678118654757 0 
1 -28.649999999999977 54 0 0 0 1 
2 -1.6499999999998636 27 86 0.70710678118654757 0.70710678118654757 0 0.70710678118654757 -0.70710678118654757 0 0 -0 -1 5.5
2 -1.6499999999998636 27 28 0.70710678118654757 0.70710678118654757 0 0.70710678118654757 -0.70710678118654757 0 0 -0 -1 5.5
1 -28.649999999999977 54 0 0 -1 0 
3 -28.649999999999977 -2.2737367544323206e-13 28 1 0 0 0 1 0 0 0 1 7.7781745930520225 5.5
3 -28.649999999999977 -2.2737367544323206e-13 86 1 0 0 0 1 0 0 0 1 7.7781745930520225 5.5
1 -49.83198051533941 -28.960155108391518 86 0.70710678118654757 0.70710678118654757 0 
1 -49.83198051533941 -28.960155108391518 28 0.70710678118654757 0.70710678118654757 0 
Polygon3D 0
PolygonOnTriangulations 0
Surfaces 7
1 -28.649999999999977 0 0 0 1 0 1 0 0 0 0 -1 
2 -53.721067811865396 -25.071067811865532 86 0.70710678118654757 0.70710678118654757 0 0.70710678118654757 -0.70710678118654757 0 0 -0 -1 5.5
2 -53.721067811865396 -25.071067811865532 28 0.70710678118654757 0.70710678118654757 0 0.70710678118654757 -0.70710678118654757 0 0 -0 -1 5.5
1 -9.5581169079632673 19.091883092036369 7.1054273576010019e-15 0 0 1 -1 0 0 0 -1 0 
1 25.350000000000023 0 0 -0.70710678118654757 -0.70710678118654757 0 -0.70710678118654757 0.70710678118654757 0 -0 0 -1 
1 -9.5581169079632673 19.091883092036369 7.1054273576010019e-15 0 0 1 -1 0 0 0 -1 0 
1 -28.649999999999977 54 0 1 0 0 0 -1 0 0 0 -1 
Triangulations 0

TShapes 55
Ve
1e-07
0 0 0
0 0

0101101
*
Ve
1e-07
54 0 0
0 0

0101101
*
Ed
 1e-07 1 1 0
1  1 0 0 54
0

0101000
+55 4 -54 4 *
Ve
1e-07
54 0 126
0 0

0101101
*
Ed
 1e-07 1 1 0
1  2 0 0 126
0

0101000
+54 4 -52 4 *
Ve
1e-07
0 0 126
0 0

0101101
*
Ed
 1e-07 1 1 0
1  3 0 0 54
0

0101000
+50 6 -52 6 *
Ve
1.00000114e-07
0 0 91.5
0 0

0101101
*
Ed
 1e-07 1 1 0
1  4 0 91.5 126
0

0101000
+48 4 -50 4 *
Ve
1.00000114e-07
7.7781745930522 0 86
0 0

0101101
*
Ed
 1e-07 1 1 0
1  5 0 4.71238898038469 6.28318530717959
2  1 2 0 4.71238898038469 6.28318530717959
0

0101000
+48 4 -46 4 *
Ve
1.00000114e-07
0 0 80.5
0 0

0101101
*
Ed
 1e-07 1 1 0
1  6 0 0 1.5707963267949
2  2 2 0 0 1.5707963267949
0

0101000
+46 4 -44 4 *
Ve
1.00000114e-07
0 0 33.5
0 0

0101101
*
Ed
 1e-07 1 1 0
1  7 0 33.5 80.5
0

0101000
+42 4 -44 4 *
Ve
1.00000114e-07
7.7781745930522 0 28
0 0

0101101
*
Ed
 1e-07 1 1 0
1  8 0 4.71238898038469 6.28318530717959
2  3 3 0 4.71238898038469 6.28318530717959
0

0101000
+42 4 -40 4 *
Ve
1.00000114e-07
0 0 22.5
0 0

0101101
*
Ed
 1e-07 1 1 0
1  9 0 0 1.5707963267949
2  4 3 0 0 1.5707963267949
0

0101000
+40 4 -38 4 *
Ed
 1e-07 1 1 0
1  10 0 0 22.5
0

0101000
+55 4 -38 4 *
Wi

0101100
-53 0 -51 0 +49 5 +47 0 -45 0 -43 0 +41 0 -39 0 -37 0 +36 0 
*
Fa
0  1e-07 1 0

0111000
+35 0 *
Ve
1e-07
0 54 0
0 0

0101101
*
Ed
 1e-07 1 1 0
1  11 0 0 76.3675323681471
0

0101000
+54 4 -33 4 *
Ed
 1e-07 1 1 0
1  12 0 0 54
0

0101000
+33 4 -55 4 *
Wi

0101100
+53 0 +32 0 +31 0 *
Fa
0  1e-07 4 0

0111000
+30 0 *
Ve
1e-07
0 54 126
0 0

0101101
*
Ed
 1e-07 1 1 0
1  13 0 0 76.3675323681471
0

0101000
+52 6 -28 6 *
Ed
 1e-07 1 1 0
1  14 0 0 126
0

0101000
+33 4 -28 4 *
Wi

0101100
+51 0 -32 0 +27 5 -26 0 *
Ve
1.00000114e-07
30.889087296526 23.110912703474 86
0 0

0101101
*
Ed
 1e-07 1 1 0
1  15 0 0 6.28318530717959
2  5 2 0 0 6.28318530717959
0

0101100
+24 4 -24 4 *
Wi

0101100
+23 0 *
Ve
1.00000114e-07
30.889087296526 23.110912703474 28
0 0

0101101
*
Ed
 1e-07 1 1 0
1  16 0 0 6.28318530717959
2  6 3 0 0 6.28318530717959
0

0101100
+21 4 -21 4 *
Wi

0101100
+20 0 *
Fa
0  1e-07 5 0

0111000
+25 0 +22 0 +19 0 *
Ed
 1e-07 1 1 0
1  17 0 0 54
0

0101000
+28 6 -50 6 *
Wi

0101100
+49 0 +27 0 +17 0 *
Fa
0  1e-07 6 0

0111000
+16 0 *
Ed
 1e-07 1 1 0
1  18 0 4.71238898038472 7.85398163397445
2  7 3 0 4.71238898038472 7.85398163397445
0

0101000
+38 4 -42 4 *
Ed
 1e-07 1 1 0
1  19 0 4.71238898038472 7.85398163397445
2  8 2 0 4.71238898038472 7.85398163397445
0

0101000
+44 4 -48 4 *
Wi

0101100
-31 0 -36 0 -14 0 -41 0 -13 0 -47 0 +17 5 +26 0 *
Fa
0  1e-07 7 0

0111000
+12 0 *
Ed
 1e-07 1 1 0
1  20 0 40.9558441227158 73.6396103067893
3  9 10CN 2 0 40.9558441227158 73.6396103067893
0

0101000
+46 4 -24 4 *
Wi

0101100
-23 0 +10 0 +45 0 +13 0 +43 0 -10 0 *
Fa
0  1e-07 2 0

0111000
+9 0 *
Ed
 1e-07 1 1 0
1  21 0 40.9558441227158 73.6396103067893
3  11 12CN 3 0 40.9558441227158 73.6396103067893
0

0101000
+40 4 -21 4 *
Wi

0101100
-20 0 +7 0 +39 0 +14 0 +37 0 -7 0 *
Fa
0  1e-07 3 0

0111000
+6 0 *
Sh

0101100
-34 0 -29 0 -18 0 +15 5 -11 0 -8 0 -5 0 *
So

0100000
+4 0 *
Co

0100000
+3 0 *
Co

1100000
+2 0 *

+1 3 