DBRep_DrawableShape

CASCADE Topology V1, (c) Matra-Datavision
Locations 9
1
              1               0               0               0 
              0               1               0               0 
              0               0               1               0 
1
              1               0               0               0 
              0               1               0               0 
              0               0               1               0 
2  1 1 2 1 0
1
              1               0               0               0 
              0               1               0               0 
              0               0               1               0 
2  1 -1 4 -1 0
1
              1               0               0              18 
              0               1               0               0 
              0               0               1               0 
2  1 -1 4 -1 6 -1 0
2  1 -1 0
2  6 1 4 1 0
Curve2ds 32
1 0 0.99999999999999289 1 0 
1 0 0.99999999999999289 1 0 
1 0 0.99999999999999289 1 0 
1 0 0.99999999999999289 1 0 
1 0 0.99999999999999289 1 0 
1 0 18.999999999999993 1 0 
1 0 18.999999999999993 1 0 
1 0 2.8284271247461903 1 0 
1 0 2.8284271247461903 1 0 
1 0 2.8284271247461903 1 0 
1 0 0 0 1 
1 1.5707963267948966 0 0 1 
1 4.7123889803846897 0 0 1 
1 1.5707963267948966 0 0 1 
1 0 17 1 0 
1 0 0 1 0 
1 6.2831853071795862 -0 0 1 
1 0 -0 0 1 
1 0 17 1 0 
1 0 0 1 0 
1 6.2831853071795862 -0 0 1 
1 0 -0 0 1 
1 0 17 1 0 
1 0 0 1 0 
1 6.2831853071795862 -0 0 1 
1 0 -0 0 1 
1 6.2831853071795862 -0 0 1 
1 0 -0 0 1 
1 6.2831853071795862 -0 0 1 
1 0 -0 0 1 
1 6.2831853071795862 -0 0 1 
1 0 -0 0 1 
Curves 54
1 7.1054273576010019e-15 21.749380152820095 17.999999999999979 2.2204460492503131e-16 0 -1 
1 7.1054273576010019e-15 80 17.999999999999979 2.2204460492503131e-16 0 -1 
1 7.1054273576010019e-15 21.749380152820095 17.999999999999979 -1.5407439555097887e-33 1 -3.4211388289180104e-49 
1 -17.999999999999986 21.749380152820095 -2.1316282072803006e-14 -1.5407439555097887e-33 1 -3.4211388289180104e-49 
1 417.22033011490652 21.749380152820095 18.000000000000071 2.2204460492503131e-16 0 -1 
1 417.22033011490652 21.749380152820095 18.000000000000071 -1 -1.5407439555097887e-33 -2.2204460492503131e-16 
1 399.22033011490652 21.749380152820095 7.1054273576010019e-14 -1 -1.5407439555097887e-33 -2.2204460492503131e-16 
1 7.1054273576010019e-15 80 17.999999999999979 1 1.5407439555097887e-33 2.2204460492503131e-16 
1 458 80 18.500000000000082 -2.2204460492503131e-16 0 1 
1 -17.999999999999986 80 -2.1316282072803006e-14 1 1.5407439555097887e-33 2.2204460492503131e-16 
1 417.22033011490652 15.249380152820095 18.000000000000071 -1.5407439555097887e-33 1 -3.4211388289180104e-49 
1 453.48010776226721 15.249380152820095 18.000000000000082 -1 -1.5407439555097887e-33 -2.2204460492503131e-16 
1 453.48010776226721 0 18.000000000000082 -1.5407439555097887e-33 1 -3.4211388289180104e-49 
1 478.22033011490657 0 18.000000000000085 -1 -1.5407439555097887e-33 -2.2204460492503131e-16 
1 478.22033011490657 80 18.000000000000085 1.5407439555097887e-33 -1 3.4211388289180104e-49 
1 348.22681695287321 23.5 18.000000000000064 1 1.5407439555097887e-33 2.2204460492503131e-16 
2 448.72033011490652 40 18.000000000000085 2.2204460492503131e-16 0 -1 1 1.5407439555097887e-33 2.2204460492503131e-16 1.5407439555097887e-33 -1 3.4211388289180104e-49 16.5
1 348.22681695287321 56.5 18.000000000000064 1 1.5407439555097887e-33 2.2204460492503131e-16 
2 455 59.5 18.000000000000089 2.2204460492503131e-16 0 -1 1 1.5407439555097887e-33 2.2204460492503131e-16 1.5407439555097887e-33 -1 3.4211388289180104e-49 3
1 458 44.31156936669322 18.000000000000089 1.5407439555097887e-33 -1 3.4211388289180104e-49 
2 412.22033011490652 60 18.000000000000078 2.2204460492503131e-16 0 -1 1 1.5407439555097887e-33 2.2204460492503131e-16 1.5407439555097887e-33 -1 3.4211388289180104e-49 2.5
2 156 41.749380152820095 18.000000000000021 2.2204460492503131e-16 0 -1 1 1.5407439555097887e-33 2.2204460492503131e-16 1.5407439555097887e-33 -1 3.4211388289180104e-49 2.5
2 284.11016505745329 47.249380152820095 18.00000000000005 2.2204460492503131e-16 0 -1 1 1.5407439555097887e-33 2.2204460492503131e-16 1.5407439555097887e-33 -1 3.4211388289180104e-49 2.5
1 399.22033011490652 15.249380152820095 7.1054273576010019e-14 -1.5407439555097887e-33 1 -3.4211388289180104e-49 
1 435.48010776226721 15.249380152820095 8.1712414612411521e-14 -1 -1.5407439555097887e-33 -2.2204460492503131e-16 
1 435.48010776226721 0 8.1712414612411521e-14 -1.5407439555097887e-33 1 -3.4211388289180104e-49 
1 460.22033011490657 0 8.5265128291212022e-14 -1 -1.5407439555097887e-33 -2.2204460492503131e-16 
1 460.22033011490657 80 8.5265128291212022e-14 1.5407439555097887e-33 -1 3.4211388289180104e-49 
1 348.22681695287321 23.5 6.3948846218409017e-14 1 1.5407439555097887e-33 2.2204460492503131e-16 
2 448.72033011490652 40 8.5265128291212022e-14 2.2204460492503131e-16 0 -1 1 1.5407439555097887e-33 2.2204460492503131e-16 1.5407439555097887e-33 -1 3.4211388289180104e-49 16.5
1 348.22681695287321 56.5 6.3948846218409017e-14 1 1.5407439555097887e-33 2.2204460492503131e-16 
2 455 59.5 8.5265128291212022e-14 2.2204460492503131e-16 0 -1 1 1.5407439555097887e-33 2.2204460492503131e-16 1.5407439555097887e-33 -1 3.4211388289180104e-49 3
1 458 44.31156936669322 8.5265128291212022e-14 1.5407439555097887e-33 -1 3.4211388289180104e-49 
2 412.22033011490652 60 7.1054273576010019e-14 2.2204460492503131e-16 0 -1 1 1.5407439555097887e-33 2.2204460492503131e-16 1.5407439555097887e-33 -1 3.4211388289180104e-49 4.5
2 156 41.749380152820095 1.4210854715202004e-14 2.2204460492503131e-16 0 -1 1 1.5407439555097887e-33 2.2204460492503131e-16 1.5407439555097887e-33 -1 3.4211388289180104e-49 4.5
2 284.11016505745329 47.249380152820095 4.2632564145606011e-14 2.2204460492503131e-16 0 -1 1 1.5407439555097887e-33 2.2204460492503131e-16 1.5407439555097887e-33 -1 3.4211388289180104e-49 4.5
1 417.22033011490652 15.249380152820095 18.000000000000071 2.2204460492503131e-16 0 -1 
1 458 59.5 19.000000000000082 2.2204460492503131e-16 0 -1 
1 453.48010776226721 15.249380152820095 18.000000000000082 2.2204460492503131e-16 0 -1 
1 453.48010776226721 0 18.000000000000082 2.2204460492503131e-16 0 -1 
1 478.22033011490657 0 18.000000000000085 2.2204460492503131e-16 0 -1 
1 478.22033011490657 23.5 18.500000000000085 2.2204460492503131e-16 0 -1 
1 448.72033011490652 23.5 19.000000000000078 2.2204460492503131e-16 0 -1 
1 448.72033011490652 56.5 19.000000000000078 2.2204460492503131e-16 0 -1 
1 455 56.5 19.000000000000082 2.2204460492503131e-16 0 -1 
2 412.22033011490652 60 2.0000000000000711 2.2204460492503131e-16 0 -1 1 1.5407439555097887e-33 2.2204460492503131e-16 1.5407439555097887e-33 -1 3.4211388289180104e-49 2.5
1 414.72033011490652 60 19.000000000000071 2.2204460492503131e-16 0 -1 
2 156 41.749380152820095 2.0000000000000142 2.2204460492503131e-16 0 -1 1 1.5407439555097887e-33 2.2204460492503131e-16 1.5407439555097887e-33 -1 3.4211388289180104e-49 2.5
1 158.5 41.749380152820095 19.000000000000014 2.2204460492503131e-16 0 -1 
2 284.11016505745329 47.249380152820095 2.0000000000000426 2.2204460492503131e-16 0 -1 1 1.5407439555097887e-33 2.2204460492503131e-16 1.5407439555097887e-33 -1 3.4211388289180104e-49 2.5
1 286.61016505745329 47.249380152820095 19.000000000000043 2.2204460492503131e-16 0 -1 
1 414.72033011490652 60 2.0000000000000711 0.70710678118654757 1.7e-16 -0.70710678118654746 
1 158.5 41.749380152820095 2.0000000000000142 0.70710678118654757 1.7e-16 -0.70710678118654746 
1 286.61016505745329 47.249380152820095 2.0000000000000426 0.70710678118654757 1.7e-16 -0.70710678118654746 
Polygon3D 0
PolygonOnTriangulations 0
Surfaces 21
1 7.1054273576010019e-15 21.749380152820095 17.999999999999979 1 1.5407439555097887e-33 2.2204460492503131e-16 -1.5407439555097887e-33 1 -3.4211388289180104e-49 -2.2204460492503131e-16 0 1 
1 417.22033011490652 21.749380152820095 18.000000000000071 -1.5407439555097887e-33 1 -3.4211388289180104e-49 -1 -1.5407439555097887e-33 -2.2204460492503131e-16 -2.2204460492503131e-16 0 1 
1 7.1054273576010019e-15 80 17.999999999999979 1.5407439555097887e-33 -1 3.4211388289180104e-49 1 1.5407439555097887e-33 2.2204460492503131e-16 -2.2204460492503131e-16 0 1 
1 247.7333037908399 48.62313873338644 18.000000000000043 2.2204460492503131e-16 0 -1 1 1.5407439555097887e-33 2.2204460492503131e-16 1.5407439555097887e-33 -1 3.4211388289180104e-49 
2 448.72033011490652 40 19.000000000000078 2.2204460492503131e-16 0 -1 1 1.5407439555097887e-33 2.2204460492503131e-16 1.5407439555097887e-33 -1 3.4211388289180104e-49 16.5
2 455 59.5 19.000000000000082 2.2204460492503131e-16 0 -1 1 1.5407439555097887e-33 2.2204460492503131e-16 1.5407439555097887e-33 -1 3.4211388289180104e-49 3
2 412.22033011490652 60 19.000000000000071 2.2204460492503131e-16 0 -1 1 1.5407439555097887e-33 2.2204460492503131e-16 1.5407439555097887e-33 -1 3.4211388289180104e-49 2.5
2 156 41.749380152820095 19.000000000000014 2.2204460492503131e-16 0 -1 1 1.5407439555097887e-33 2.2204460492503131e-16 1.5407439555097887e-33 -1 3.4211388289180104e-49 2.5
2 284.11016505745329 47.249380152820095 19.000000000000043 2.2204460492503131e-16 0 -1 1 1.5407439555097887e-33 2.2204460492503131e-16 1.5407439555097887e-33 -1 3.4211388289180104e-49 2.5
1 229.7333037908399 48.62313873338644 4.2632564145606011e-14 2.2204460492503131e-16 0 -1 1 1.5407439555097887e-33 2.2204460492503131e-16 1.5407439555097887e-33 -1 3.4211388289180104e-49 
3 412.22033011490652 60 2.0000000000000711 2.2204460492503131e-16 0 -1 1 1.5407439555097887e-33 2.2204460492503131e-16 1.5407439555097887e-33 -1 3.4211388289180104e-49 2.5
0.78539816339744817
3 156 41.749380152820095 2.0000000000000142 2.2204460492503131e-16 0 -1 1 1.5407439555097887e-33 2.2204460492503131e-16 1.5407439555097887e-33 -1 3.4211388289180104e-49 2.5
0.78539816339744817
3 284.11016505745329 47.249380152820095 2.0000000000000426 2.2204460492503131e-16 0 -1 1 1.5407439555097887e-33 2.2204460492503131e-16 1.5407439555097887e-33 -1 3.4211388289180104e-49 2.5
0.78539816339744817
1 417.22033011490652 15.249380152820095 18.000000000000071 1 1.5407439555097887e-33 2.2204460492503131e-16 -1.5407439555097887e-33 1 -3.4211388289180104e-49 -2.2204460492503131e-16 0 1 
1 458 40 19.000000000000082 1 1.5407439555097887e-33 2.2204460492503131e-16 2.2204460492503131e-16 0 -1 -1.5407439555097887e-33 1 -3.4211388289180104e-49 
1 453.48010776226721 15.249380152820095 18.000000000000082 -1.5407439555097887e-33 1 -3.4211388289180104e-49 -1 -1.5407439555097887e-33 -2.2204460492503131e-16 -2.2204460492503131e-16 0 1 
1 453.48010776226721 0 18.000000000000082 1 1.5407439555097887e-33 2.2204460492503131e-16 -1.5407439555097887e-33 1 -3.4211388289180104e-49 -2.2204460492503131e-16 0 1 
1 478.22033011490657 0 18.000000000000085 -1.5407439555097887e-33 1 -3.4211388289180104e-49 -1 -1.5407439555097887e-33 -2.2204460492503131e-16 -2.2204460492503131e-16 0 1 
1 478.22033011490657 80 18.000000000000085 -1 -1.5407439555097887e-33 -2.2204460492503131e-16 1.5407439555097887e-33 -1 3.4211388289180104e-49 -2.2204460492503131e-16 -0 1 
1 448.72033011490652 23.5 19.000000000000078 -1.5407439555097887e-33 1 -3.4211388289180104e-49 1 1.5407439555097887e-33 2.2204460492503131e-16 2.2204460492503131e-16 0 -1 
1 448.72033011490652 56.5 19.000000000000078 -1.5407439555097887e-33 1 -3.4211388289180104e-49 1 1.5407439555097887e-33 2.2204460492503131e-16 2.2204460492503131e-16 0 -1 
Triangulations 0

TShapes 140
Ve
1e-07
7.105427357601e-15 21.7493801528201 18
0 0

0101101
*
Ve
1e-07
7.105427357601e-15 21.7493801528201 -2.1316282072803e-14
0 0

0101101
*
Ed
 1e-07 1 1 0
1  1 0 0 18
0

0101000
+140 5 -139 5 *
Ve
1e-07
7.105427357601e-15 80 18
0 0

0101101
*
Ve
1e-07
7.105427357601e-15 80 -2.1316282072803e-14
0 0

0101101
*
Ed
 1e-07 1 1 0
1  2 0 0 18
0

0101000
+137 5 -136 5 *
Ed
 1e-07 1 1 0
1  3 0 0 58.2506198471799
0

0101000
+140 5 -137 5 *
Ed
 1e-07 1 1 0
1  4 0 0 58.2506198471799
0

0101000
+139 7 -136 7 *
Wi

0101100
+138 0 -135 0 -134 0 +133 6 *
Fa
0  1e-07 1 0

0111000
+132 0 *
Ve
1e-07
417.220330114907 21.7493801528201 18.0000000000001
0 0

0101101
*
Ve
1e-07
417.220330114907 21.7493801528201 7.105427357601e-14
0 0

0101101
*
Ed
 1e-07 1 1 0
1  5 0 0 18
0

0101000
+130 5 -129 5 *
Ed
 1e-07 1 1 0
1  6 0 0 417.220330114907
0

0101000
+130 5 -140 5 *
Ed
 1e-07 1 1 0
1  7 0 0 417.220330114907
0

0101000
+129 7 -139 7 *
Wi

0101100
+128 0 -138 0 -127 0 +126 6 *
Fa
0  1e-07 2 0

0111000
+125 0 *
Ve
1.50000007e-07
458 80 18.0000000000001
0 0

0101101
*
Ed
 1e-07 1 1 0
1  8 0 0 458
0

0101000
+137 5 -123 5 *
Ve
1.50000007e-07
458 80 7.8159700933611e-14
0 0

0101101
*
Ed
 1.5e-07 1 1 0
1  9 0 -18.5 -0.5
0

0101000
+121 8 -123 8 *
Ed
 1e-07 1 1 0
1  10 0 0 458
0

0101000
+136 7 -121 7 *
Wi

0101100
-122 4 +120 0 +119 9 +135 4 *
Fa
0  1e-07 3 4

0111000
+118 0 *
Ve
1.5e-07
417.220330114907 15.2493801528201 18.0000000000001
0 0

0101101
*
Ed
 1e-07 1 1 0
1  11 0 0 6.5
0

0101000
+116 5 -130 5 *
Ve
1e-07
453.480107762267 15.2493801528201 18.0000000000001
0 0

0101101
*
Ed
 1e-07 1 1 0
1  12 0 0 36.2597776473607
0

0101000
+114 5 -116 5 *
Ve
1e-07
453.480107762267 0 18.0000000000001
0 0

0101101
*
Ed
 1e-07 1 1 0
1  13 0 0 15.2493801528201
0

0101000
+112 5 -114 5 *
Ve
1e-07
478.220330114907 0 18.0000000000001
0 0

0101101
*
Ed
 1e-07 1 1 0
1  14 0 0 24.7402223526394
0

0101000
+110 5 -112 5 *
Ve
1.50000007e-07
478.220330114907 23.5 18.0000000000001
0 0

0101101
*
Ed
 1e-07 1 1 0
1  15 0 56.5 80
0

0101000
+108 5 -110 5 *
Ve
1.50000284e-07
448.720330114906 23.5 18.0000000000001
0 0

0101101
*
Ed
 1.5e-07 1 1 0
1  16 0 100.493513162033 129.993513162033
0

0101000
+106 5 -108 5 *
Ve
1.50000227e-07
448.720330114906 56.5 18.0000000000001
0 0

0101101
*
Ed
 1e-07 1 1 0
1  17 0 1.57079632679491 4.71238898038467
2  1 5 0 1.57079632679491 4.71238898038467
0

0101000
+106 5 -104 5 *
Ve
1.50001e-07
455 56.5 18.0000000000001
0 0

0101101
*
Ed
 1.5e-07 1 1 0
1  18 0 100.493513162033 106.773183047127
0

0101000
+104 5 -102 5 *
Ve
1.5e-07
458 59.5 18.0000000000001
0 0

0101101
*
Ed
 1e-07 1 1 0
1  19 0 0 1.5707963267949
2  2 6 0 0 1.5707963267949
0

0101000
+100 8 -102 8 *
Ed
 1.5e-07 1 1 0
1  20 0 -35.6884306333068 -15.1884306333068
0

0101000
+123 8 -100 8 *
Wi

0101100
+115 4 +113 4 +111 4 +109 4 +107 4 +105 4 -103 4 -101 4 +99 0 +98 0 
+122 4 +134 4 +127 4 *
Ve
1e-07
414.720330114907 60 18.0000000000001
0 0

0101101
*
Ed
 1e-07 1 1 0
1  21 0 0 6.28318530717959
2  3 7 0 0 6.28318530717959
0

0101100
+96 5 -96 5 *
Wi

0101100
-95 4 *
Ve
1e-07
158.5 41.7493801528201 18
0 0

0101101
*
Ed
 1e-07 1 1 0
1  22 0 0 6.28318530717959
2  4 8 0 0 6.28318530717959
0

0101100
+93 5 -93 5 *
Wi

0101100
-92 4 *
Ve
1e-07
286.610165057453 47.2493801528201 18
0 0

0101101
*
Ed
 1e-07 1 1 0
1  23 0 0 6.28318530717959
2  5 9 0 0 6.28318530717959
0

0101100
+90 5 -90 5 *
Wi

0101100
-89 4 *
Fa
0  1e-07 4 4

0111000
+97 0 +94 0 +91 0 +88 0 *
Ve
1.5e-07
417.220330114907 15.2493801528201 7.105427357601e-14
0 0

0101101
*
Ed
 1e-07 1 1 0
1  24 0 0 6.5
0

0101000
+86 7 -129 7 *
Ve
1e-07
453.480107762267 15.2493801528201 7.8159700933611e-14
0 0

0101101
*
Ed
 1e-07 1 1 0
1  25 0 0 36.2597776473607
0

0101000
+84 7 -86 7 *
Ve
1e-07
453.480107762267 0 7.8159700933611e-14
0 0

0101101
*
Ed
 1e-07 1 1 0
1  26 0 0 15.2493801528201
0

0101000
+82 7 -84 7 *
Ve
1e-07
478.220330114907 0 8.5265128291212e-14
0 0

0101101
*
Ed
 1e-07 1 1 0
1  27 0 0 24.7402223526394
0

0101000
+80 7 -82 7 *
Ve
1.50000007e-07
478.220330114907 23.5 8.5265128291212e-14
0 0

0101101
*
Ed
 1e-07 1 1 0
1  28 0 56.5 80
0

0101000
+78 7 -80 7 *
Ve
1.50000284e-07
448.720330114906 23.5 8.5265128291212e-14
0 0

0101101
*
Ed
 1.5e-07 1 1 0
1  29 0 100.493513162033 129.993513162033
0

0101000
+76 5 -78 5 *
Ve
1.50000227e-07
448.720330114906 56.5 8.5265128291212e-14
0 0

0101101
*
Ed
 1e-07 1 1 0
1  30 0 1.57079632679491 4.71238898038467
2  6 5 0 1.57079632679491 4.71238898038467
0

0101000
+76 5 -74 5 *
Ve
1.50001e-07
455 56.5 8.5265128291212e-14
0 0

0101101
*
Ed
 1.5e-07 1 1 0
1  31 0 100.493513162033 106.773183047127
0

0101000
+74 5 -72 5 *
Ve
1.5e-07
458 59.5 8.5265128291212e-14
0 0

0101101
*
Ed
 1e-07 1 1 0
1  32 0 0 1.5707963267949
2  7 6 0 0 1.5707963267949
0

0101000
+70 8 -72 8 *
Ed
 1.5e-07 1 1 0
1  33 0 -35.6884306333068 -15.1884306333068
0

0101000
+121 8 -70 8 *
Wi

0101100
+85 9 +83 9 +81 9 +79 9 +77 9 +75 4 -73 4 -71 4 +69 0 +68 0 
+119 9 +133 9 +126 9 *
Ve
1.00000007e-07
416.720330114907 60 7.105427357601e-14
0 0

0101101
*
Ed
 1.00000007e-07 1 1 0
1  34 0 0 6.28318530717959
2  8 11 0 0 6.28318530717959
0

0101000
+66 5 -66 5 *
Wi

0101100
-65 4 *
Ve
1.00000007e-07
160.5 41.7493801528201 1.4210854715202e-14
0 0

0101101
*
Ed
 1.00000007e-07 1 1 0
1  35 0 0 6.28318530717959
2  9 12 0 0 6.28318530717959
0

0101000
+63 5 -63 5 *
Wi

0101100
-62 4 *
Ve
1.00000007e-07
288.610165057453 47.2493801528201 4.2632564145606e-14
0 0

0101101
*
Ed
 1.00000007e-07 1 1 0
1  36 0 0 6.28318530717959
2  10 13 0 0 6.28318530717959
0

0101000
+60 5 -60 5 *
Wi

0101100
-59 4 *
Fa
0  1e-07 10 9

0111000
+67 0 +64 0 +61 0 +58 0 *
Ed
 1.5e-07 1 1 0
1  37 0 0 18
0

0101000
+116 5 -86 5 *
Wi

0101100
+56 0 -128 0 -115 0 +85 6 *
Fa
0  1e-07 14 0

0111000
+55 0 *
Ed
 1e-07 1 1 0
1  38 0 0.999999999999993 19
2  11 6 0 0.999999999999993 19
0

0101000
+100 8 -70 8 *
Wi

0101100
+98 0 +120 0 -68 0 +53 0 *
Fa
0  1e-07 15 0

0111000
+52 0 *
Ed
 1e-07 1 1 0
1  39 0 0 18
0

0101000
+114 5 -84 5 *
Wi

0101100
+50 0 -56 0 -113 0 +83 6 *
Fa
0  1e-07 16 0

0111000
+49 0 *
Ed
 1e-07 1 1 0
1  40 0 0 18
0

0101000
+112 5 -82 5 *
Wi

0101100
+47 0 -50 0 -111 0 +81 6 *
Fa
0  1e-07 17 0

0111000
+46 0 *
Ed
 1e-07 1 1 0
1  41 0 0 18
0

0101000
+110 5 -80 5 *
Wi

0101100
+44 0 -47 0 -109 0 +79 6 *
Fa
0  1e-07 18 0

0111000
+43 0 *
Ed
 1.5e-07 1 1 0
1  42 0 0.5 18.5
0

0101000
+108 5 -78 5 *
Wi

0101100
-107 0 -44 0 +77 6 +41 0 *
Fa
0  1e-07 19 0

0111000
+40 0 *
Ed
 1e-07 1 1 0
1  43 0 0.999999999999993 19
2  12 5 0 0.999999999999993 19
0

0101000
+106 5 -76 5 *
Wi

0101100
-38 0 -75 0 +41 0 +105 0 *
Fa
0  1e-07 20 0

0111000
+37 0 *
Ed
 1e-07 1 1 0
1  44 0 0.999999999999993 19
2  13 5 0 0.999999999999993 19
0

0101000
+104 5 -74 5 *
Wi

0101100
-73 0 +35 0 +103 0 -38 0 *
Fa
0  1e-07 5 0

0111000
+34 0 *
Ed
 1e-07 1 1 0
1  45 0 0.999999999999993 19
2  14 6 0 0.999999999999993 19
0

0101000
+102 8 -72 8 *
Wi

0101100
-35 4 -71 4 +32 0 +101 4 *
Fa
0  1e-07 21 4

0111000
+31 0 *
Wi

0101100
-69 0 +32 0 +99 0 -53 0 *
Fa
0  1e-07 6 0

0111000
+29 0 *
Ve
1e-07
414.720330114907 60 2.00000000000007
0 0

0101101
*
Ed
 1e-07 1 1 0
1  46 0 0 6.28318530717959
2  15 7 0 0 6.28318530717959
2  16 11 0 0 6.28318530717959
0

0101000
+27 5 -27 5 *
Ed
 1e-07 1 1 0
1  47 0 0.999999999999993 17
3  17 18CN 7 0 0.999999999999993 17
0

0101000
+96 5 -27 5 *
Wi

0101100
-26 0 +25 0 +95 0 -25 0 *
Fa
0  1e-07 7 0

0111000
+24 0 *
Ve
1e-07
158.5 41.7493801528201 2.00000000000001
0 0

0101101
*
Ed
 1e-07 1 1 0
1  48 0 0 6.28318530717959
2  19 8 0 0 6.28318530717959
2  20 12 0 0 6.28318530717959
0

0101000
+22 5 -22 5 *
Ed
 1e-07 1 1 0
1  49 0 0.999999999999993 17
3  21 22CN 8 0 0.999999999999993 17
0

0101000
+93 5 -22 5 *
Wi

0101100
-21 0 +20 0 +92 0 -20 0 *
Fa
0  1e-07 8 0

0111000
+19 0 *
Ve
1e-07
286.610165057453 47.2493801528201 2.00000000000004
0 0

0101101
*
Ed
 1e-07 1 1 0
1  50 0 0 6.28318530717959
2  23 9 0 0 6.28318530717959
2  24 13 0 0 6.28318530717959
0

0101000
+17 5 -17 5 *
Ed
 1e-07 1 1 0
1  51 0 0.999999999999993 17
3  25 26CN 9 0 0.999999999999993 17
0

0101000
+90 5 -17 5 *
Wi

0101100
-16 0 +15 0 +89 0 -15 0 *
Fa
0  1e-07 9 0

0111000
+14 0 *
Ed
 1e-07 1 1 0
1  52 0 0 2.82842712474619
3  27 28CN 11 0 0 2.82842712474619
0

0101000
+27 5 -66 5 *
Wi

0101100
-65 0 +12 0 +26 0 -12 0 *
Fa
0  1e-07 11 0

0111000
+11 0 *
Ed
 1e-07 1 1 0
1  53 0 0 2.82842712474619
3  29 30CN 12 0 0 2.82842712474619
0

0101000
+22 5 -63 5 *
Wi

0101100
-62 0 +9 0 +21 0 -9 0 *
Fa
0  1e-07 12 0

0111000
+8 0 *
Ed
 1e-07 1 1 0
1  54 0 0 2.82842712474619
3  31 32CN 13 0 0 2.82842712474619
0

0101000
+17 5 -60 5 *
Wi

0101100
-59 0 +6 0 +16 0 -6 0 *
Fa
0  1e-07 13 0

0111000
+5 0 *
Sh

0101100
-131 4 -124 4 -117 0 -87 0 +57 0 -54 4 +51 0 -48 4 -45 4 -42 4 
-39 4 +36 4 -33 4 -30 0 +28 0 -23 4 -18 4 -13 4 -10 4 -7 4 
-4 4 *
So

0100000
+3 0 *
Co

1100000
+2 0 *

+1 3 