DBRep_DrawableShape

CASCADE Topology V1, (c) Matra-Datavision
Locations 10
1
              1               0               0          14.325 
              0               1               0               0 
              0               0               1               0 
1
              1               0               0               0 
              0               1               0               0 
              0               0               1               0 
2  1 1 2 1 0
2  1 -1 0
1
              1               0               0              18 
              0               1               0               0 
              0               0               1               0 
2  1 -1 5 -1 0
1
              1               0               0               0 
              0 0.90630778703665 -0.422618261740699               0 
              0 0.422618261740699 0.90630778703665               0 
1
              1               0               0               0 
              0               1               0 1033.61447567049 
              0               0               1 546.327383033049 
2  7 1 8 1 0
2  1 -1 8 -1 7 -1 0
Curve2ds 28
1 0 0 0 1 
1 -3.1415926535897931 1.1368999999999999e-13 1 0 
1 -1.5707963267948966 1.1368999999999999e-13 1 0 
1 1.5707963267948966 0 0 1 
1 -1.5707963267948966 18.000000000000114 1 0 
1 0 39.899999999999977 1 0 
1 0 39.899999999999977 1 0 
1 -3.1415926535897931 18.000000000000114 1 0 
1 0 0 1 0 
1 0 0 1 0 
1 0 0.049999999999878739 1 0 
1 1.5707963267948966 0 0 1 
1 0 0 0 1 
1 0 3.625 1 0 
1 0 3.1548573660309907 1 0 
1 6.2831853071795862 -0 0 1 
1 0 -0 0 1 
1 0 3.625 1 0 
1 0 3.1548573660309907 1 0 
1 6.2831853071795862 -0 0 1 
1 0 -0 0 1 
1 6.2831853071795862 -0 0 1 
1 0 -0 0 1 
1 6.2831853071795862 -0 0 1 
1 0 -0 0 1 
1 6.2831853071795862 -0 0 1 
1 0 -0 0 1 
1 0 8.0999999999999996 1 0 
Curves 55
1 -14.325000000000045 52.125 -1.1368683772161603e-13 1 0 -2.2204460492503131e-16 
1 1.5749999999999318 52.125 -1.1368683772161603e-13 2.2204460492503131e-16 0 1 
1 -14.325000000000045 52.125 -1.1368683772161603e-13 2.2204460492503131e-16 0 1 
1 -32.325000000000045 52.125 17.999999999999886 1 0 -2.2204460492503131e-16 
1 -14.325000000000045 115 -1.1368683772161603e-13 0 -1 0 
1 24.574999999999932 115 -1.1368683772161603e-13 -1 0 2.2204460492503131e-16 
1 24.574999999999932 0 -1.1368683772161603e-13 0 1 0 
1 12.189765062890729 0 -1.1368683772161603e-13 1 0 -2.2204460492503131e-16 
1 -7.3951565796191971 42 -1.1368683772161603e-13 0.42261826174069916 -0.90630778703665005 -9.384010496231702e-17 
1 -5.531387051346627 -1133.2182413673099 -74.377226652714512 -0.90630778703665027 -0.38302222155948873 0.17860619515673026 
1 -7.3440026254199289 -1133.9842858104289 -74.020014262401048 -0.422618261740699 0.82139380484326996 -0.38302222155948862 
1 -7.2218600983094277 -1129.9326661479367 -75.909315538952455 -0.90630778703665027 -0.38302222155948873 0.17860619515673026 
1 -7.3951565796191971 42 -1.1368683772161603e-13 0.42261826174069916 -0.90630778703665005 -9.384010496231702e-17 
1 4.5749999999999318 42 -1.1368683772161603e-13 -1 0 2.2204460492503131e-16 
8 3.1415926535897931 4.7123889803846897
2 1.5749999999999318 45 0 -2.2204460492503131e-16 0 -1 -1 0 2.2204460492503131e-16 0 1 0 3
1 4.5749999999999318 52.125 -1.1368683772161603e-13 0 -1 0 
8 1.5707963267948966 3.1415926535897931
2 1.5749999999999318 49.125 0 -2.2204460492503131e-16 0 -1 -1 0 2.2204460492503131e-16 0 1 0 3
1 4.5749999999999318 49.125 -1.1368683772161603e-13 2.2204460492503131e-16 0 1 
8 1.5707963267948966 3.1415926535897931
2 1.5749999999999318 49.125 18 -2.2204460492503131e-16 0 -1 -1 0 2.2204460492503131e-16 0 1 0 3
1 -14.325000000000045 115 -1.1368683772161603e-13 2.2204460492503131e-16 0 1 
1 -32.325000000000045 115 17.999999999999886 0 -1 0 
2 -14.325000000000045 105 8.9999999999998863 -1 0 2.2204460492503131e-16 2.2204460492503131e-16 0 1 0 1 0 2.25
2 -14.325000000000045 65 8.9999999999998863 -1 0 2.2204460492503131e-16 2.2204460492503131e-16 0 1 0 1 0 2.25
1 -13.425000000000068 52.125 17.999999999999886 0 -1 0 
8 3.1415926535897931 4.7123889803846897
2 1.5749999999999318 45 18 -2.2204460492503131e-16 0 -1 -1 0 2.2204460492503131e-16 0 1 0 3
1 -13.425000000000068 42 17.999999999999886 -1 0 2.2204460492503131e-16 
1 -25.395156579619197 42 17.999999999999886 0.42261826174069916 -0.90630778703665005 -9.384010496231702e-17 
1 -7.2218600983094206 -1122.3255374366042 -59.595775372292735 -0.90630778703665027 -0.38302222155948873 0.17860619515673026 
1 -7.3440026254199218 -1126.3771570990964 -57.706474095741328 -0.422618261740699 0.82139380484326996 -0.38302222155948862 
1 -5.5313870513466199 -1125.6111126559774 -58.063686486054792 -0.90630778703665027 -0.38302222155948873 0.17860619515673026 
1 -25.395156579619197 42 17.999999999999886 0.42261826174069916 -0.90630778703665005 -9.384010496231702e-17 
1 -5.8102349371092714 0 17.999999999999886 1 0 -2.2204460492503131e-16 
1 6.5749999999999318 0 17.999999999999886 0 1 0 
1 6.5749999999999318 115 17.999999999999886 -1 0 2.2204460492503131e-16 
1 24.574999999999932 115 -1.1368683772161603e-13 2.2204460492503131e-16 0 1 
1 24.574999999999932 0 -1.1368683772161603e-13 2.2204460492503131e-16 0 1 
2 24.574999999999932 65 8.9999999999998863 -1 0 2.2204460492503131e-16 2.2204460492503131e-16 0 1 0 1 0 4
2 24.574999999999932 105 8.9999999999998863 -1 0 2.2204460492503131e-16 2.2204460492503131e-16 0 1 0 1 0 4
1 12.189765062890729 0 -1.1368683772161603e-13 2.2204460492503131e-16 0 1 
1 -5.531387051346627 -1133.2182413673099 -74.377226652714512 2.2204460492503131e-16 0.42261826174069911 0.90630778703665027 
2 5.8793060156521051 13.532823098395284 8.9999999999998863 0.90630778703664994 0.42261826174069944 -2.0124075451303235e-16 0.42261826174069944 -0.90630778703664994 -9.3840104962317082e-17 -2.2204460492503131e-16 0 -1 3.0499999999999998
1 -7.3440026254199289 -1133.9842858104289 -74.020014262401048 2.2204460492503131e-16 0.42261826174069911 0.90630778703665027 
1 -9.0344756723827295 -1130.6987105910557 -75.552103148638992 2.2204460492503131e-16 0.42261826174069911 0.90630778703665027 
1 -7.2218600983094277 -1129.9326661479367 -75.909315538952455 2.2204460492503131e-16 0.42261826174069911 0.90630778703665027 
1 -7.3951565796191971 42 -1.1368683772161603e-13 2.2204460492503131e-16 0 1 
1 1.5749999999999318 42 -1.1368683772161603e-13 2.2204460492503131e-16 0 1 
1 4.5749999999999318 45 -1.1368683772161603e-13 2.2204460492503131e-16 0 1 
2 21.949999999999932 105 8.9999999999998863 -1 0 2.2204460492503131e-16 2.2204460492503131e-16 0 1 0 1 0 2.25
1 25.574999999999932 105 11.249999999999886 -1 0 2.2204460492503131e-16 
2 21.949999999999932 65 8.9999999999998863 -1 0 2.2204460492503131e-16 2.2204460492503131e-16 0 1 0 1 0 2.25
1 25.574999999999932 65 11.249999999999886 -1 0 2.2204460492503131e-16 
1 24.574999999999932 65 12.999999999999886 -0.83205029433784394 1.4000000000000003e-16 -0.55470019622522893 
1 24.574999999999932 105 12.999999999999886 -0.83205029433784394 1.4000000000000003e-16 -0.55470019622522893 
1 7.1229763246095672 10.74745343484642 8.9999999999998863 0.90630778703664994 0.42261826174069944 -2.0124075451303235e-16 
2 13.17508370129724 16.934900105407905 8.9999999999998863 0.90630778703664994 0.42261826174069944 -2.0124075451303235e-16 0.42261826174069944 -0.90630778703664994 -9.3840104962317082e-17 -2.2204460492503131e-16 0 -1 3.0499999999999998
Polygon3D 0
PolygonOnTriangulations 0
Surfaces 22
1 -14.325000000000045 52.125 -1.1368683772161603e-13 0 1 0 1 0 -2.2204460492503131e-16 -2.2204460492503131e-16 0 -1 
2 1.5749999999999318 49.125 -1.1368683772161603e-13 2.2204460492503131e-16 0 1 0 1 0 1 0 -2.2204460492503131e-16 3
1 7.3963019498340827 60.744613522715326 0 -2.2204460492503131e-16 -0 -1 1 0 -2.2204460492503131e-16 0 -1 0 
2 1.5749999999999318 45 -1.1368683772161603e-13 2.2204460492503131e-16 0 1 1 0 -2.2204460492503131e-16 0 -1 0 3
1 4.5749999999999318 52.125 -1.1368683772161603e-13 1 0 -2.2204460492503131e-16 0 -1 0 -2.2204460492503131e-16 -0 -1 
1 -14.325000000000045 115 -1.1368683772161603e-13 1 0 -2.2204460492503131e-16 0 -1 0 -2.2204460492503131e-16 -0 -1 
2 25.574999999999932 105 8.9999999999998863 -1 0 2.2204460492503131e-16 2.2204460492503131e-16 0 1 0 1 0 2.25
2 25.574999999999932 65 8.9999999999998863 -1 0 2.2204460492503131e-16 2.2204460492503131e-16 0 1 0 1 0 2.25
1 7.3963019498343101 60.744613522714644 17.999999999999886 2.2204460492503131e-16 0 1 -1 0 2.2204460492503131e-16 0 -1 0 
1 24.574999999999932 115 -1.1368683772161603e-13 0 -1 0 -1 0 2.2204460492503131e-16 -2.2204460492503131e-16 0 -1 
1 24.574999999999932 0 -1.1368683772161603e-13 -1 0 2.2204460492503131e-16 0 1 0 -2.2204460492503131e-16 0 -1 
3 24.574999999999932 65 8.9999999999998863 -1 0 2.2204460492503131e-16 2.2204460492503131e-16 0 1 0 1 0 4
-0.5880026035475675
3 24.574999999999932 105 8.9999999999998863 -1 0 2.2204460492503131e-16 2.2204460492503131e-16 0 1 0 1 0 4
-0.5880026035475675
1 12.189765062890729 0 -1.1368683772161603e-13 0 1 0 1 0 -2.2204460492503131e-16 -2.2204460492503131e-16 0 -1 
1 -7.3951565796191971 42 -1.1368683772161603e-13 0.90630778703665005 0.42261826174069916 -2.0124075451303237e-16 0.42261826174069916 -0.90630778703665005 -9.384010496231702e-17 -2.2204460492503131e-16 0 -1 
2 5.8339906263004195 13.51169218530822 8.9999999999998863 0.90630778703664994 0.42261826174069944 -2.0124075451303235e-16 0.42261826174069944 -0.90630778703664994 -9.3840104962317082e-17 -2.2204460492503131e-16 0 -1 3.0499999999999998
1 -5.531387051346627 -1133.2182413673099 -74.377226652714512 -0.422618261740699 0.82139380484326996 -0.38302222155948862 -0.90630778703665027 -0.38302222155948873 0.17860619515673026 2.2204460492503131e-16 0.42261826174069911 0.90630778703665027 
1 -7.3440026254199289 -1133.9842858104289 -74.020014262401048 -0.90630778703665027 -0.38302222155948873 0.17860619515673026 2.2204460492503131e-16 0.42261826174069911 0.90630778703665027 -0.422618261740699 0.82139380484326996 -0.38302222155948862 
1 -7.2218600983094277 -1129.9326661479367 -75.909315538952455 -0.422618261740699 0.82139380484326996 -0.38302222155948862 -0.90630778703665027 -0.38302222155948873 0.17860619515673026 2.2204460492503131e-16 0.42261826174069911 0.90630778703665027 
1 -7.3951565796191971 42 -1.1368683772161603e-13 0.90630778703665005 0.42261826174069916 -2.0124075451303237e-16 0.42261826174069916 -0.90630778703665005 -9.384010496231702e-17 -2.2204460492503131e-16 0 -1 
1 4.5749999999999318 42 -1.1368683772161603e-13 0 -1 0 -1 0 2.2204460492503131e-16 -2.2204460492503131e-16 0 -1 
1 13.17508370129724 16.934900105407905 8.9999999999998863 0.90630778703664994 0.42261826174069944 -2.0124075451303235e-16 0.42261826174069944 -0.90630778703664994 -9.3840104962317082e-17 -2.2204460492503131e-16 0 -1 
Triangulations 0

TShapes 143
Ve
1e-07
15.9 52.125 0
0 0

0101101
*
Ve
1e-07
0 52.125 0
0 0

0101101
*
Ed
 1e-07 1 1 0
1  1 0 0 15.9
0

0101000
-143 4 +142 4 *
Ve
1e-07
15.9 52.125 18
0 0

0101101
*
Ed
 1e-07 1 1 0
1  2 0 1.14e-13 18.0000000000001
2  1 2 0 1.14e-13 18.0000000000001
4 G1 1 0 2 0
0

0101000
+143 4 -140 4 *
Ve
1e-07
0 52.125 18
0 0

0101101
*
Ed
 1e-07 1 1 0
1  3 0 0 18
0

0101000
+142 4 -138 4 *
Ed
 1e-07 1 1 0
1  4 0 0 15.9
0

0101000
-140 6 +138 6 *
Wi

0101100
-141 0 -139 0 +137 0 +136 5 *
Fa
0  1e-07 1 0

0111000
+135 0 *
Ve
1e-07
0 115 0
0 0

0101101
*
Ed
 1e-07 1 1 0
1  5 0 0 62.875
0

0101000
+133 4 -142 4 *
Ve
1e-07
38.9 115 0
0 0

0101101
*
Ed
 1e-07 1 1 0
1  6 0 0 38.9
0

0101000
+131 4 -133 4 *
Ve
1e-07
38.9 0 0
0 0

0101101
*
Ed
 1e-07 1 1 0
1  7 0 0 115
0

0101000
+129 4 -131 4 *
Ve
1e-07
26.5147650628908 0 0
0 0

0101101
*
Ed
 1e-07 1 1 0
1  8 0 0 12.3852349371092
0

0101000
+127 4 -129 4 *
Ve
1.00000114e-07
8.79361294865339 38.0031333483848 0
0 0

0101101
*
Ed
 1e-07 1 1 0
1  9 0 4.41005440842975 46.3418725964247
0

0101000
+125 4 -127 4 *
Ve
1e-07
6.98099737458017 37.1578968249034 -2.27373675443232e-13
0 0

0101101
*
Ed
 1e-07 1 1 0
1  10 0 0 2
0

0101000
+125 10 -123 10 *
Ve
1e-07
5.29052432761728 40.7831279730501 -2.27373675443232e-13
0 0

0101101
*
Ed
 1e-07 1 1 0
1  11 0 0 4
0

0101000
-121 10 +123 10 *
Ve
1.00000114e-07
7.10313990169061 41.6283644965315 0
0 0

0101101
*
Ed
 1e-07 1 1 0
1  12 0 0 2
0

0101000
+119 10 -121 10 *
Ve
1e-07
6.92984342038085 42 0
0 0

0101101
*
Ed
 1e-07 1 1 0
1  13 0 0 0.410054408429696
0

0101000
+117 4 -119 4 *
Ve
1e-07
15.9 42 0
0 0

0101101
*
Ed
 1e-07 1 1 0
1  14 0 3 11.9701565796191
0

0101000
+115 4 -117 4 *
Ve
1e-07
18.9 45 0
0 0

0101101
*
Ed
 1e-07 1 1 0
1  15 0 3.14159265358979 4.71238898038469
2  2 4 0 3.14159265358979 4.71238898038469
0

0101000
+113 4 -115 4 *
Ve
1e-07
18.9 49.125 0
0 0

0101101
*
Ed
 1e-07 1 1 0
1  16 0 3 7.125
0

0101000
+111 4 -113 4 *
Ed
 1e-07 1 1 0
1  17 0 1.5707963267949 3.14159265358979
2  3 2 0 1.5707963267949 3.14159265358979
0

0101000
+143 4 -111 4 *
Wi

0101100
-141 0 -132 0 -130 0 -128 0 -126 0 -124 0 +122 9 +120 9 -118 9 -116 0 
-114 0 -112 0 -110 0 -109 0 *
Fa
0  1e-07 3 0

0111000
+108 0 *
Ve
1e-07
18.9 49.125 18
0 0

0101101
*
Ed
 1e-07 1 1 0
1  18 0 1.14e-13 18.0000000000001
2  4 2 0 1.14e-13 18.0000000000001
4 G1 2 0 5 0
0

0101000
+111 4 -106 4 *
Ed
 1e-07 1 1 0
1  19 0 1.5707963267949 3.14159265358979
2  5 2 0 1.5707963267949 3.14159265358979
0

0101000
+140 4 -106 4 *
Wi

0101100
+109 0 -139 0 +105 0 -104 0 *
Fa
0  1e-07 2 0

0111000
+103 0 *
Ve
1e-07
0 115 18
0 0

0101101
*
Ed
 1e-07 1 1 0
1  20 0 0 18
0

0101000
+133 4 -101 4 *
Ed
 1e-07 1 1 0
1  21 0 0 62.875
0

0101000
+101 6 -138 6 *
Wi

0101100
+100 0 -132 0 +99 5 -137 0 *
Ve
1e-07
0 105 11.25
0 0

0101101
*
Ed
 1e-07 1 1 0
1  22 0 0 6.28318530717959
2  6 7 0 0 6.28318530717959
0

0101000
+97 4 -97 4 *
Wi

0101100
+96 0 *
Ve
1e-07
0 65 11.25
0 0

0101101
*
Ed
 1e-07 1 1 0
1  23 0 0 6.28318530717959
2  7 8 0 0 6.28318530717959
0

0101000
+94 4 -94 4 *
Wi

0101100
+93 0 *
Fa
0  1e-07 6 0

0111000
+98 0 +95 0 +92 0 *
Ve
1e-07
18.9 45 18
0 0

0101101
*
Ed
 1e-07 1 1 0
1  24 0 3 7.125
0

0101000
+106 6 -90 6 *
Ve
1e-07
15.9 42 18
0 0

0101101
*
Ed
 1e-07 1 1 0
1  25 0 3.14159265358979 4.71238898038469
2  8 4 0 3.14159265358979 4.71238898038469
0

0101000
+90 4 -88 4 *
Ve
1e-07
6.92984342038085 42 18
0 0

0101101
*
Ed
 1e-07 1 1 0
1  26 0 3 11.9701565796191
0

0101000
+88 6 -86 6 *
Ve
1.00000114e-07
7.10313990169061 41.6283644965315 18
0 0

0101101
*
Ed
 1e-07 1 1 0
1  27 0 0 0.410054408429696
0

0101000
+86 6 -84 6 *
Ve
1e-07
5.29052432761728 40.7831279730501 17.9999999999998
0 0

0101101
*
Ed
 1e-07 1 1 0
1  28 0 0 2
0

0101000
+84 10 -82 10 *
Ve
1e-07
6.98099737458017 37.1578968249034 17.9999999999998
0 0

0101101
*
Ed
 1e-07 1 1 0
1  29 0 0 4
0

0101000
-82 10 +80 10 *
Ve
1.00000114e-07
8.79361294865339 38.0031333483848 18
0 0

0101101
*
Ed
 1e-07 1 1 0
1  30 0 0 2
0

0101000
+78 10 -80 10 *
Ve
1e-07
26.5147650628908 0 18
0 0

0101101
*
Ed
 1e-07 1 1 0
1  31 0 4.41005440842975 46.3418725964247
0

0101000
+78 6 -76 6 *
Ve
1e-07
38.9 0 18
0 0

0101101
*
Ed
 1e-07 1 1 0
1  32 0 0 12.3852349371092
0

0101000
+76 6 -74 6 *
Ve
1e-07
38.9 115 18
0 0

0101101
*
Ed
 1e-07 1 1 0
1  33 0 0 115
0

0101000
+74 6 -72 6 *
Ed
 1e-07 1 1 0
1  34 0 0 38.9
0

0101000
+72 6 -101 6 *
Wi

0101100
+136 5 +104 0 +89 5 +87 0 +85 5 +83 5 +81 9 -79 9 -77 9 +75 5 
+73 5 +71 5 +70 5 +99 5 *
Fa
0  1e-07 9 0

0111000
+69 0 *
Ed
 1e-07 1 1 0
1  35 0 0 18
0

0101000
+131 4 -72 4 *
Wi

0101100
+67 0 -100 0 -130 0 +70 5 *
Fa
0  1e-07 10 0

0111000
+66 0 *
Ed
 1e-07 1 1 0
1  36 0 0 18
0

0101000
+129 4 -74 4 *
Wi

0101100
+64 0 -128 0 +71 5 -67 0 *
Ve
1e-07
38.9 65 13
0 0

0101101
*
Ed
 1e-07 1 1 0
1  37 0 0 6.28318530717959
2  9 12 0 0 6.28318530717959
0

0101000
+62 4 -62 4 *
Wi

0101100
-61 0 *
Ve
1e-07
38.9 105 13
0 0

0101101
*
Ed
 1e-07 1 1 0
1  38 0 0 6.28318530717959
2  10 13 0 0 6.28318530717959
0

0101000
+59 4 -59 4 *
Wi

0101100
-58 0 *
Fa
0  1e-07 11 0

0111000
+63 0 +60 0 +57 0 *
Ed
 1e-07 1 1 0
1  39 0 0 18
0

0101000
+127 4 -76 4 *
Wi

0101100
+55 0 -64 0 -126 0 +73 5 *
Fa
0  1e-07 14 0

0111000
+54 0 *
Ed
 1e-07 1 1 0
1  40 0 0 18
0

0101000
+125 10 -78 10 *
Wi

0101100
-124 0 +52 9 -55 0 +75 5 *
Ve
1.00000114e-07
21.4932917139614 10.7685843479335 9
0 0

0101101
*
Ed
 1e-07 1 1 0
1  41 0 0 6.28318530717959
2  11 16 0 0 6.28318530717959
0

0101100
+50 4 -50 4 *
Wi

0101100
-49 0 *
Fa
0  1e-07 15 0

0111000
+51 0 +48 0 *
Ed
 1e-07 1 1 0
1  42 0 0 18
0

0101000
-80 10 +123 10 *
Wi

0101100
-52 9 -77 9 +46 9 +122 9 *
Fa
0  1e-07 17 9

0111000
+45 0 *
Ed
 1e-07 1 1 0
1  43 0 0 18
0

0101000
-82 10 +121 10 *
Wi

0101100
-120 0 -43 0 +79 0 +46 0 *
Fa
0  1e-07 18 0

0111000
+42 0 *
Ed
 1.00000114e-07 1 1 0
1  44 0 0 18
0

0101000
+119 10 -84 10 *
Wi

0101100
-40 9 -81 9 +43 9 +118 9 *
Fa
0  1e-07 19 9

0111000
+39 0 *
Ed
 1e-07 1 1 0
1  45 0 0 18
0

0101000
+117 4 -86 4 *
Wi

0101100
-116 0 -40 9 +83 5 +37 0 *
Fa
0  1e-07 20 0

0111000
+36 0 *
Ed
 1e-07 1 1 0
1  46 0 1.14e-13 18.0000000000001
2  12 4 0 1.14e-13 18.0000000000001
4 G1 21 0 4 0
0

0101000
+115 4 -88 4 *
Wi

0101100
-114 0 +34 0 -37 0 +85 5 *
Fa
0  1e-07 21 0

0111000
+33 0 *
Ed
 1e-07 1 1 0
1  47 0 1.14e-13 18.0000000000001
2  13 4 0 1.14e-13 18.0000000000001
4 G1 4 0 5 0
0

0101000
+113 4 -90 4 *
Wi

0101100
+112 0 -31 0 +34 0 -87 0 *
Fa
0  1e-07 4 0

0111000
+30 0 *
Wi

0101100
-110 0 +105 0 -31 0 +89 5 *
Fa
0  1e-07 5 0

0111000
+28 0 *
Ve
1e-07
36.275 105 11.25
0 0

0101101
*
Ed
 1e-07 1 1 0
1  48 0 0 6.28318530717959
2  14 7 0 0 6.28318530717959
2  15 13 0 0 6.28318530717959
0

0101000
+26 4 -26 4 *
Ed
 1e-07 1 1 0
1  49 0 3.625 39.9
3  16 17CN 7 0 3.625 39.9
0

0101000
+26 4 -97 4 *
Wi

0101100
+25 0 -24 0 -96 0 +24 0 *
Fa
0  1e-07 7 0

0111000
+23 0 *
Ve
1e-07
36.275 65 11.25
0 0

0101101
*
Ed
 1e-07 1 1 0
1  50 0 0 6.28318530717959
2  18 8 0 0 6.28318530717959
2  19 12 0 0 6.28318530717959
0

0101000
+21 4 -21 4 *
Ed
 1e-07 1 1 0
1  51 0 3.625 39.9
3  20 21CN 8 0 3.625 39.9
0

0101000
+21 4 -94 4 *
Wi

0101100
+20 0 -19 0 -93 0 +19 0 *
Fa
0  1e-07 8 0

0111000
+18 0 *
Ed
 1e-07 1 1 0
1  52 0 0 3.15485736603099
3  22 23CN 12 0 0 3.15485736603099
0

0101000
+62 4 -21 4 *
Wi

0101100
-20 0 +16 0 +61 0 -16 0 *
Fa
0  1e-07 12 0

0111000
+15 0 *
Ed
 1e-07 1 1 0
1  53 0 0 3.15485736603099
3  24 25CN 13 0 0 3.15485736603099
0

0101000
+59 4 -26 4 *
Wi

0101100
-25 0 +13 0 +58 0 -13 0 *
Fa
0  1e-07 13 0

0111000
+12 0 *
Ve
1e-07
28.7890693996064 14.1706613549461 9
0 0

0101101
*
Ed
 1e-07 1 1 0
1  54 0 0.049999999999982 8.1
3  26 27CN 16 0 0.049999999999982 8.1
0

0101000
+50 4 -10 4 *
Ed
 1e-07 1 1 0
1  55 0 0 6.28318530717959
2  28 16 0 0 6.28318530717959
0

0101000
+10 4 -10 4 *
Wi

0101100
+9 0 +49 0 -9 0 -8 0 *
Fa
0  1e-07 16 0

0111000
+7 0 *
Wi

0101100
+8 0 *
Fa
0  1e-07 22 0

0111000
+5 0 *
Sh

0101100
-134 0 +107 0 +102 0 -91 0 +68 0 -65 0 -56 0 -53 0 -47 0 -44 0 
+41 9 +38 0 -35 0 -32 0 +29 0 -27 0 -22 0 -17 0 -14 0 -11 0 
-6 0 -4 0 *
So

0100000
+3 0 *
Co

1100000
+2 0 *

+1 3 