DBRep_DrawableShape

CASCADE Topology V1, (c) Matra-Datavision
Locations 16
1
              1               0               0          14.325 
              0               1               0               0 
              0               0               1               0 
1
              1               0               0               0 
              0               1               0               0 
              0               0               1               0 
2  1 1 2 1 0
1
              1               0               0               0 
              0 0.90630778703665 -0.422618261740699 1033.61447567049 
              0 0.422618261740699 0.90630778703665 546.577383033049 
1
              1               0               0               0 
              0               1               0               0 
              0               0               1           -0.25 
2  4 1 5 1 0
2  1 -1 5 -1 4 -1 0
2  1 -1 0
1
              1               0               0               0 
              0 0.90630778703665 -0.422618261740699               0 
              0 0.422618261740699 0.90630778703665               0 
1
              1               0               0               0 
              0               1               0 1033.61447567049 
              0               0               1 546.327383033049 
2  9 1 10 1 0
1
              1               0               0               0 
              0 0.90630778703665 -0.422618261740699               0 
              0 0.422618261740699 0.90630778703665               0 
1
              1               0               0               0 
              0               1               0 1033.61447567049 
              0               0               1 546.327383033049 
2  12 1 13 1 0
2  1 -1 10 -1 9 -1 0
2  1 -1 13 -1 12 -1 0
Curve2ds 40
1 0 1.0000000000001645 1 0 
1 0 1.0000000000001645 1 0 
1 0.9135321735492502 -3.4860000000000002e-14 0 1 
1 0.9135321735492502 -3.4860000000000002e-14 0 1 
1 0.91353217354926142 -3.4860000000000002e-14 0 1 
1 0.91353217354926142 -3.4860000000000002e-14 0 1 
1 6.2831853071795862 0.010000000000098 -1 0 
1 0 0.0099999999999949695 1 0 
1 0 0.010000000000098 1 0 
1 6.2831853071795862 0.0099999999999949695 -1 0 
1 6.2831853071795862 0.0099999999999949695 -1 0 
1 0 0.010000000000098 1 0 
1 0 0.0099999999999949695 1 0 
1 6.2831853071795862 0.010000000000098 -1 0 
1 0 13.000000000000016 1 0 
1 0 13.000000000000016 1 0 
1 6.2831853071795862 -0 0 1 
1 0 -0 0 1 
1 6.2831853071795862 -0 0 1 
1 0 -0 0 1 
1 0 0 0 1 
1 -1.5707963267948966 2.5099999999999998 1 0 
1 -1.5707963267948966 2.5099999999999998 1 0 
1 -4.7123889803846897 2.5099999999999998 1 0 
1 -4.7123889803846897 2.5099999999999998 1 0 
1 0 0 0 1 
1 0 0 0 1 
1 -1.5707963267948966 2.5099999999999998 1 0 
1 -1.5707963267948966 2.5099999999999998 1 0 
1 -4.7123889803846897 2.5099999999999998 1 0 
1 -4.7123889803846897 2.5099999999999998 1 0 
1 0 0 0 1 
1 0 0 0 1 
1 1.5707963267948966 0 0 1 
1 1.5707963267948966 0 0 1 
1 0 0 0 1 
1 0 0 0 1 
1 1.5707963267948966 0 0 1 
1 1.5707963267948966 0 0 1 
1 0 0 0 1 
Curves 66
1 -14.325000000000003 -1076.1502527232342 -87.747931765399613 0 -0.42261826174069905 -0.90630778703665027 
1 -14.325000000000003 -1081.2216718641225 -98.623625209839417 0 -0.90630778703665027 0.42261826174069905 
1 -14.325000000000003 -1162.5893579118547 -47.440715051880431 0 -0.42261826174069905 -0.90630778703665027 
1 -14.325000000000003 -1076.1502527232342 -87.747931765399613 0 -0.90630778703665027 0.42261826174069905 
1 -14.325000000000003 -1076.1502527232342 -87.747931765399613 1 0 0 
1 525.67499999999995 -1076.1502527232342 -87.747931765399613 0 -0.42261826174069905 -0.90630778703665027 
1 -14.325000000000003 -1081.2216718641225 -98.623625209839417 1 0 0 
1 -14.325000000000003 -1167.660777052743 -58.316408496320236 1 0 0 
1 525.67499999999995 -1081.2216718641225 -98.623625209839417 0 -0.90630778703665027 0.42261826174069905 
2 0.67500000000001137 40.375 -5.6843418860808015e-14 -0 -3.8857805861880469e-16 1 0 1 3.8857805861880469e-16 -1 0 -0 2.25
2 510.67500000000001 40.375 -5.6843418860808015e-14 -0 -3.8857805861880469e-16 1 0 1 3.8857805861880469e-16 -1 0 -0 2.25
1 -14.325000000000003 -1162.5893579118547 -47.440715051880431 1 0 0 
1 -7.6578597873271832 2.2737367544323206e-13 12.00999999999982 0 3.8857805861880469e-16 -1 
1 -11.574999999999989 0 9.4999999999998295 1 0 0 
1 9.0078597873272059 2.2737367544323206e-13 12.00999999999982 0 3.8857805861880469e-16 -1 
1 -14.325000000000003 -1162.5893579118547 -47.440715051880431 1 0 0 
1 502.34214021267286 2.2737367544323206e-13 12.00999999999982 0 3.8857805861880469e-16 -1 
1 243.42500000000001 0 9.4999999999998295 1 0 0 
1 519.00785978732711 2.2737367544323206e-13 12.00999999999982 0 3.8857805861880469e-16 -1 
1 -14.325000000000003 -1162.5893579118547 -47.440715051880431 1 0 0 
1 525.67499999999995 -1162.5893579118547 -47.440715051880431 0 -0.42261826174069905 -0.90630778703665027 
2 -5.8249999999999886 2.375 11.999999999999773 -0 3.8857805861880469e-16 -1 -1 -0 0 -0 1 3.8857805861880469e-16 3
1 -8.8249999999999886 56.375 11.999999999999829 0 -1 5.5511151231257815e-17 
1 525.67499999999995 -1076.1502527232342 -87.747931765399613 0 -0.90630778703665027 0.42261826174069905 
2 -5.8249999999999886 14.375 11.999999999999829 -0 3.8857805861880469e-16 -1 -1 -0 0 -0 1 3.8857805861880469e-16 3
1 -11.574999999999989 17.375 11.999999999999829 -1 -0 0 
2 517.17499999999995 2.375 11.999999999999773 0 3.8857805861880469e-16 -1 1 0 0 0 -1 -3.8857805861880469e-16 3
2 7.1750000000000114 14.375 11.999999999999829 0 3.8857805861880469e-16 -1 1 0 0 0 -1 -3.8857805861880469e-16 3
1 520.17499999999995 56.375 11.999999999999829 0 -1 5.5511151231257815e-17 
1 10.175000000000011 56.375 11.999999999999829 0 -1 5.5511151231257815e-17 
2 517.17499999999995 14.375 11.999999999999829 0 3.8857805861880469e-16 -1 1 0 0 0 -1 -3.8857805861880469e-16 3
2 7.1750000000000114 2.375 11.999999999999773 0 3.8857805861880469e-16 -1 1 0 0 0 -1 -3.8857805861880469e-16 3
1 243.42500000000001 17.375 11.999999999999829 -1 -0 0 
2 504.17500000000001 14.375 11.999999999999829 -0 3.8857805861880469e-16 -1 -1 -0 0 -0 1 3.8857805861880469e-16 3
2 504.17500000000001 2.375 11.999999999999773 -0 3.8857805861880469e-16 -1 -1 -0 0 -0 1 3.8857805861880469e-16 3
1 501.17500000000001 56.375 11.999999999999829 0 -1 5.5511151231257815e-17 
2 0.67500000000001137 40.375 11.999999999999829 -0 -3.8857805861880469e-16 1 0 1 3.8857805861880469e-16 -1 0 -0 2.25
2 510.67500000000001 40.375 11.999999999999829 -0 -3.8857805861880469e-16 1 0 1 3.8857805861880469e-16 -1 0 -0 2.25
1 0.67500000000001137 42.625000000000227 -1.0000000000002274 0 -3.8857805861880469e-16 1 
1 510.67500000000001 42.625000000000227 -1.0000000000002274 0 -3.8857805861880469e-16 1 
1 -8.8250000000000028 -1160.4326507350252 -48.435370345644223 0 -0.42261826174069905 -0.90630778703665027 
8 1.5707963267948966 3.1415926535897931
2 -5.8250000000000028 -1161.4934225719944 -50.710202891106213 0 0.42261826174069905 0.90630778703665027 0 0.90630778703665027 -0.42261826174069905 -1 -0 0 3
1 -8.8250000000000028 -1147.8988057664446 -57.0494768172167 0 -0.90630778703665027 0.42261826174069905 
8 1.5707963267948966 3.1415926535897931
2 7.1749999999999972 -1161.4934225719944 -50.710202891106213 0 -0.42261826174069905 -0.90630778703665027 0 0.90630778703665027 -0.42261826174069905 1 0 0 3
1 10.174999999999997 -1147.8988057664446 -57.0494768172167 0 -0.90630778703665027 0.42261826174069905 
8 4.7123889803846897 6.2831853071795862
2 7.1749999999999972 -1150.6177291275546 -55.781622031994608 0 0.42261826174069905 0.90630778703665027 0 0.90630778703665027 -0.42261826174069905 -1 -0 0 3
1 -8.8250000000000028 -1147.8988057664446 -57.0494768172167 1 0 0 
8 4.7123889803846897 6.2831853071795862
2 -5.8250000000000028 -1150.6177291275546 -55.781622031994608 0 -0.42261826174069905 -0.90630778703665027 0 0.90630778703665027 -0.42261826174069905 1 0 0 3
1 10.174999999999997 -1160.4326507350252 -48.435370345644223 0 -0.42261826174069905 -0.90630778703665027 
1 501.17500000000001 -1160.4326507350252 -48.435370345644223 0 -0.42261826174069905 -0.90630778703665027 
8 1.5707963267948966 3.1415926535897931
2 504.17500000000001 -1161.4934225719944 -50.710202891106213 0 0.42261826174069905 0.90630778703665027 0 0.90630778703665027 -0.42261826174069905 -1 -0 0 3
1 501.17500000000001 -1147.8988057664446 -57.0494768172167 0 -0.90630778703665027 0.42261826174069905 
8 1.5707963267948966 3.1415926535897931
2 517.17499999999995 -1161.4934225719944 -50.710202891106213 0 -0.42261826174069905 -0.90630778703665027 0 0.90630778703665027 -0.42261826174069905 1 0 0 3
1 520.17499999999995 -1147.8988057664446 -57.0494768172167 0 -0.90630778703665027 0.42261826174069905 
8 4.7123889803846897 6.2831853071795862
2 517.17499999999995 -1150.6177291275546 -55.781622031994608 0 0.42261826174069905 0.90630778703665027 0 0.90630778703665027 -0.42261826174069905 -1 -0 0 3
1 501.17500000000001 -1147.8988057664446 -57.0494768172167 1 0 0 
8 4.7123889803846897 6.2831853071795862
2 504.17500000000001 -1150.6177291275546 -55.781622031994608 0 -0.42261826174069905 -0.90630778703665027 0 0.90630778703665027 -0.42261826174069905 1 0 0 3
1 520.17499999999995 -1160.4326507350252 -48.435370345644223 0 -0.42261826174069905 -0.90630778703665027 
1 -8.8250000000000028 -1149.5569572905854 -53.506789486532618 0 -0.42261826174069905 -0.90630778703665027 
1 -5.8250000000000028 -1146.8380339294754 -54.77464427175471 0 -0.42261826174069905 -0.90630778703665027 
1 7.1749999999999972 -1146.8380339294754 -54.77464427175471 0 -0.42261826174069905 -0.90630778703665027 
1 10.174999999999997 -1149.5569572905854 -53.506789486532618 0 -0.42261826174069905 -0.90630778703665027 
1 520.17499999999995 -1149.5569572905854 -53.506789486532618 0 -0.42261826174069905 -0.90630778703665027 
1 517.17499999999995 -1146.8380339294754 -54.77464427175471 0 -0.42261826174069905 -0.90630778703665027 
1 504.17500000000001 -1146.8380339294754 -54.77464427175471 0 -0.42261826174069905 -0.90630778703665027 
1 501.17500000000001 -1149.5569572905854 -53.506789486532618 0 -0.42261826174069905 -0.90630778703665027 
Polygon3D 0
PolygonOnTriangulations 0
Surfaces 24
1 -14.325000000000003 -1076.1502527232342 -87.747931765399613 1 0 0 0 -0.42261826174069905 -0.90630778703665027 0 0.90630778703665027 -0.42261826174069905 
1 -14.325000000000003 -1076.1502527232342 -87.747931765399613 0 -0.90630778703665027 0.42261826174069905 0 -0.42261826174069905 -0.90630778703665027 1 0 0 
1 -14.325000000000003 -1081.2216718641225 -98.623625209839417 0 -0.42261826174069905 -0.90630778703665027 1 0 0 0 -0.90630778703665027 0.42261826174069905 
2 0.67500000000001137 40.375 -1.0000000000002274 0 -3.8857805861880469e-16 1 0 1 3.8857805861880469e-16 -1 0 -0 2.25
2 510.67500000000001 40.375 -1.0000000000002274 0 -3.8857805861880469e-16 1 0 1 3.8857805861880469e-16 -1 0 -0 2.25
1 -14.325000000000003 -1162.5893579118547 -47.440715051880431 0 -0.90630778703665027 0.42261826174069905 0 -0.42261826174069905 -0.90630778703665027 1 0 0 
2 -5.8250000000000028 -1160.4326507350252 -48.435370345644223 0 -0.42261826174069905 -0.90630778703665027 -1 0 -0 0 -0.90630778703665027 0.42261826174069905 3
2 7.1749999999999972 -1160.4326507350252 -48.435370345644223 0 -0.42261826174069905 -0.90630778703665027 1 0 0 0 -0.90630778703665027 0.42261826174069905 3
2 504.17500000000001 -1160.4326507350252 -48.435370345644223 0 -0.42261826174069905 -0.90630778703665027 -1 0 -0 0 -0.90630778703665027 0.42261826174069905 3
2 517.17499999999995 -1160.4326507350252 -48.435370345644223 0 -0.42261826174069905 -0.90630778703665027 1 0 0 0 -0.90630778703665027 0.42261826174069905 3
1 -14.325000000000003 -1076.1502527232342 -87.747931765399613 0 -0.42261826174069905 -0.90630778703665027 1 0 0 0 -0.90630778703665027 0.42261826174069905 
2 -5.8250000000000028 -1149.5569572905854 -53.506789486532618 0 -0.42261826174069905 -0.90630778703665027 -1 0 -0 0 0.90630778703665027 -0.42261826174069905 3
2 7.1749999999999972 -1149.5569572905854 -53.506789486532618 0 -0.42261826174069905 -0.90630778703665027 1 0 0 0 0.90630778703665027 -0.42261826174069905 3
2 517.17499999999995 -1149.5569572905854 -53.506789486532618 0 -0.42261826174069905 -0.90630778703665027 1 0 0 0 0.90630778703665027 -0.42261826174069905 3
2 504.17500000000001 -1149.5569572905854 -53.506789486532618 0 -0.42261826174069905 -0.90630778703665027 -1 0 -0 0 0.90630778703665027 -0.42261826174069905 3
1 525.67499999999995 -1076.1502527232342 -87.747931765399613 1 0 0 0 -0.42261826174069905 -0.90630778703665027 0 0.90630778703665027 -0.42261826174069905 
1 -8.8250000000000028 -1146.8380339294754 -54.77464427175471 1 0 0 0 -0.42261826174069905 -0.90630778703665027 0 0.90630778703665027 -0.42261826174069905 
1 -8.8250000000000028 -1147.8988057664446 -57.0494768172167 0 -0.42261826174069905 -0.90630778703665027 1 0 0 0 -0.90630778703665027 0.42261826174069905 
1 10.174999999999997 -1146.8380339294754 -54.77464427175471 1 0 0 0 -0.42261826174069905 -0.90630778703665027 0 0.90630778703665027 -0.42261826174069905 
1 501.17500000000001 -1146.8380339294754 -54.77464427175471 1 0 0 0 -0.42261826174069905 -0.90630778703665027 0 0.90630778703665027 -0.42261826174069905 
1 501.17500000000001 -1147.8988057664446 -57.0494768172167 0 -0.42261826174069905 -0.90630778703665027 1 0 0 0 -0.90630778703665027 0.42261826174069905 
1 520.17499999999995 -1146.8380339294754 -54.77464427175471 1 0 0 0 -0.42261826174069905 -0.90630778703665027 0 0.90630778703665027 -0.42261826174069905 
1 -8.8250000000000028 -1146.8380339294754 -54.77464427175471 0 -0.90630778703665027 0.42261826174069905 0 -0.42261826174069905 -0.90630778703665027 1 0 0 
1 501.17500000000001 -1146.8380339294754 -54.77464427175471 0 -0.90630778703665027 0.42261826174069905 0 -0.42261826174069905 -0.90630778703665027 1 0 0 
Triangulations 0

TShapes 168
Ve
1e-07
0 95.375 -1.70530256582424e-13
0 0

0101101
*
Ve
1e-07
0 95.375 11.9999999999998
0 0

0101101
*
Ed
 1e-07 1 1 0
1  1 0 0 12
0

0101000
-168 7 +167 7 *
Ve
1e-07
0 0 -2.27373675443232e-13
0 0

0101101
*
Ed
 1e-07 1 1 0
1  2 0 0 95.375
0

0101000
-165 7 +168 7 *
Ve
1e-07
0 0 11.9999999999998
0 0

0101101
*
Ed
 1e-07 1 1 0
1  3 0 0 12
0

0101000
-165 7 +163 7 *
Ed
 1e-07 1 1 0
1  4 0 0 95.375
0

0101000
-163 7 +167 7 *
Wi

0101100
-166 0 -164 0 +162 0 +161 0 *
Fa
0  1e-07 1 0

0111000
+160 0 *
Ve
1e-07
540 95.375 11.9999999999998
0 0

0101101
*
Ed
 1e-07 1 1 0
1  5 0 0 540
0

0101000
-158 7 +167 7 *
Ve
1e-07
540 95.375 -1.70530256582424e-13
0 0

0101101
*
Ed
 1e-07 1 1 0
1  6 0 0 12
0

0101000
-156 7 +158 7 *
Ed
 1e-07 1 1 0
1  7 0 0 540
0

0101000
-156 7 +168 7 *
Wi

0101100
-157 0 -155 0 +154 0 +166 0 *
Fa
0  1e-07 2 0

0111000
+153 0 *
Ve
1e-07
540 0 -2.27373675443232e-13
0 0

0101101
*
Ed
 1e-07 1 1 0
1  8 0 0 540
0

0101000
-151 7 +165 7 *
Ed
 1e-07 1 1 0
1  9 0 0 95.375
0

0101000
-151 7 +156 7 *
Wi

0101100
-164 6 -150 6 +154 6 +149 6 *
Ve
1.00000114e-07
15 42.625 -1.70530256582424e-13
0 0

0101101
*
Ed
 1e-07 1 1 0
1  10 0 0 6.28318530717959
2  1 4 0 0 6.28318530717959
0

0101100
+147 8 -147 8 *
Wi

0101100
+146 0 *
Ve
1.00000114e-07
525 42.625 -1.70530256582424e-13
0 0

0101101
*
Ed
 1e-07 1 1 0
1  11 0 0 6.28318530717959
2  2 5 0 0 6.28318530717959
0

0101100
+144 8 -144 8 *
Wi

0101100
+143 0 *
Fa
0  1e-07 3 6

0111000
+148 0 +145 0 +142 0 *
Ve
1.00126747e-07
6.66714021254606 0 11.9999999999998
0 0

0101101
*
Ed
 1e-07 1 1 0
1  12 0 0 6.66714021254606
0

0101000
+163 7 -140 7 *
Ve
1.5e-07
6.6671402126731 0 9.49999999999983
0 0

0101101
*
Ed
 1e-07 1 1 0
1  13 0 0.010000000000002 2.51000000000006
2  3 7 11 0.010000000000002 2.51000000000006
0

0101000
+140 8 -138 8 *
Ve
1.5e-07
23.3328597873269 0 9.49999999999983
0 0

0101101
*
Ed
 1.5e-07 1 1 0
1  14 0 3.9171402126731 20.5828597873269
0

0101000
+138 8 -136 8 *
Ve
1.00126782e-07
23.332859787454 0 11.9999999999998
0 0

0101101
*
Ed
 1e-07 1 1 0
1  15 0 0.010000000000002 2.51000000000006
2  4 8 11 0.010000000000002 2.51000000000006
0

0101000
+134 8 -136 8 *
Ve
1.00000341e-07
516.667140212673 0 11.9999999999998
0 0

0101101
*
Ed
 1e-07 1 1 0
1  16 0 23.332859787454 516.667140212673
0

0101000
+134 7 -132 7 *
Ve
1.5e-07
516.667140212673 0 9.49999999999983
0 0

0101101
*
Ed
 1e-07 1 1 0
1  17 0 0.010000000000002 2.51000000000006
2  5 9 14 0.010000000000002 2.51000000000006
0

0101000
+132 8 -130 8 *
Ve
1.5e-07
533.332859787327 0 9.49999999999983
0 0

0101101
*
Ed
 1.5e-07 1 1 0
1  18 0 258.917140212673 275.582859787327
0

0101000
+130 8 -128 8 *
Ve
1.00000341e-07
533.332859787327 0 11.9999999999998
0 0

0101101
*
Ed
 1e-07 1 1 0
1  19 0 0.010000000000002 2.51000000000006
2  6 10 14 0.010000000000002 2.51000000000006
0

0101000
+126 8 -128 8 *
Ve
1e-07
540 0 11.9999999999998
0 0

0101101
*
Ed
 1e-07 1 1 0
1  20 0 533.332859787327 540
0

0101000
+126 7 -124 7 *
Ed
 1e-07 1 1 0
1  21 0 0 12
0

0101000
-151 7 +124 7 *
Wi

0101100
-139 6 -137 0 -135 0 +133 0 -131 6 -129 0 -127 0 +125 0 -123 6 -122 6 
+150 6 +162 6 *
Fa
0  1e-07 6 6

0111000
+121 0 *
Ve
1.5e-07
5.5 2.37500000000023 11.9999999999999
0 0

0101101
*
Ed
 1e-07 1 1 0
1  22 0 5.36965313366373 6.28318530717959
2  7 7 11 5.36965313366373 6.28318530717959
0

0101000
+140 8 -119 8 *
Ve
1.5e-07
5.5 14.375 11.9999999999998
0 0

0101101
*
Ed
 1.5e-07 1 1 0
1  23 0 42.0000000000001 54.0000000000001
0

0101000
+117 8 -119 8 *
Ed
 1e-07 1 1 0
1  24 0 0 95.375
0

0101000
-124 7 +158 7 *
Ve
1.5e-07
8.5 17.375 11.9999999999998
0 0

0101101
*
Ed
 1e-07 1 1 0
1  25 0 0 1.5707963267949
2  8 12 11 0 1.5707963267949
0

0101000
+117 8 -114 8 *
Ve
1.5e-07
21.5 17.375 11.9999999999998
0 0

0101101
*
Ed
 1.5e-07 1 1 0
1  26 0 -18.75 -5.75
0

0101000
+112 8 -114 8 *
Ve
1.5e-07
534.5 2.37500000000023 11.9999999999999
0 0

0101101
*
Ed
 1e-07 1 1 0
1  27 0 0 0.913532173549373
2  9 10 14 0 0.913532173549373
0

0101000
+110 8 -126 8 *
Ve
1.5e-07
24.5 14.375 11.9999999999998
0 0

0101101
*
Ed
 1e-07 1 1 0
1  28 0 4.71238898038469 6.28318530717959
2  10 13 11 4.71238898038469 6.28318530717959
0

0101000
+112 8 -108 8 *
Ve
1.5e-07
534.5 14.375 11.9999999999998
0 0

0101101
*
Ed
 1.5e-07 1 1 0
1  29 0 42.0000000000001 54.0000000000001
0

0101000
+106 8 -110 8 *
Ve
1.5e-07
24.5 2.37500000000023 11.9999999999999
0 0

0101101
*
Ed
 1.5e-07 1 1 0
1  30 0 42.0000000000001 54.0000000000001
0

0101000
+108 8 -104 8 *
Ve
1.5e-07
531.5 17.375 11.9999999999998
0 0

0101101
*
Ed
 1e-07 1 1 0
1  31 0 4.71238898038469 6.28318530717959
2  11 14 14 4.71238898038469 6.28318530717959
0

0101000
+102 8 -106 8 *
Ed
 1e-07 1 1 0
1  32 0 0 0.913532173515846
2  12 8 11 0 0.913532173515846
0

0101000
+104 8 -134 8 *
Ve
1.5e-07
518.5 17.375 11.9999999999998
0 0

0101101
*
Ed
 1.5e-07 1 1 0
1  33 0 -273.75 -260.75
0

0101000
+102 8 -99 8 *
Ve
1.5e-07
515.5 14.375 11.9999999999998
0 0

0101101
*
Ed
 1e-07 1 1 0
1  34 0 0 1.5707963267949
2  13 15 14 0 1.5707963267949
0

0101000
+97 8 -99 8 *
Ve
1.5e-07
515.5 2.37500000000023 11.9999999999999
0 0

0101101
*
Ed
 1e-07 1 1 0
1  35 0 5.36965313363021 6.28318530717959
2  14 9 14 5.36965313363021 6.28318530717959
0

0101000
+132 8 -95 8 *
Ed
 1.5e-07 1 1 0
1  36 0 42.0000000000001 54.0000000000001
0

0101000
+97 8 -95 8 *
Wi

0101100
-139 6 -161 6 -118 0 +157 6 +116 0 +115 6 -113 0 -123 6 +111 0 -109 0 
-107 0 -105 0 -103 0 -101 0 -100 0 +98 0 -131 6 -96 0 -94 0 +93 0 
*
Ve
1e-07
15 42.6250000000002 11.9999999999998
0 0

0101101
*
Ed
 1e-07 1 1 0
1  37 0 0 6.28318530717959
2  15 4 0 0 6.28318530717959
0

0101100
+91 8 -91 8 *
Wi

0101100
+90 0 *
Ve
1e-07
525 42.6250000000002 11.9999999999998
0 0

0101101
*
Ed
 1e-07 1 1 0
1  38 0 0 6.28318530717959
2  16 5 0 0 6.28318530717959
0

0101100
+88 8 -88 8 *
Wi

0101100
+87 0 *
Fa
0  1e-07 11 6

0111000
+92 0 +89 0 +86 0 *
Wi

0101100
-155 0 -149 0 +122 0 +115 0 *
Fa
0  1e-07 16 0

0111000
+84 0 *
Ed
 1e-07 1 1 0
1  39 0 1.00000000000006 13
3  17 18CN 4 0 1.00000000000006 13
0

0101000
+147 8 -91 8 *
Wi

0101100
-90 0 +82 0 +146 0 -82 0 *
Fa
0  1e-07 4 0

0111000
+81 0 *
Ed
 1e-07 1 1 0
1  40 0 1.00000000000006 13
3  19 20CN 5 0 1.00000000000006 13
0

0101000
+144 8 -88 8 *
Wi

0101100
-87 0 +79 0 +143 0 -79 0 *
Fa
0  1e-07 5 0

0111000
+78 0 *
Ve
1e-07
5.49999999999999 2.37499999999977 9.49999999999983
0 0

0101101
*
Ed
 1e-07 1 1 0
1  41 0 0.009999999999995 2.51
2  21 7 0 0.009999999999995 2.51
4 G1 7 0 17 0
0

0101000
+119 15 -76 15 *
Ed
 1e-07 1 1 0
1  42 0 1.5707963267949 2.48432850034428
2  22 7 0 1.5707963267949 2.48432850034428
0

0101000
+76 15 -138 15 *
Wi

0101100
-75 11 -74 11 +137 0 -118 0 *
Fa
0  1e-07 7 11

0111000
+73 0 *
Ve
1e-07
5.49999999999999 14.375 9.49999999999983
0 0

0101101
*
Ed
 1e-07 1 1 0
1  43 0 3 15
0

0101000
+71 15 -76 15 *
Ve
1e-07
24.5 2.37499999999977 9.49999999999983
0 0

0101101
*
Ed
 1e-07 1 1 0
1  44 0 1.5707963267949 2.48432850034428
2  23 8 0 1.5707963267949 2.48432850034428
0

0101000
+69 15 -136 15 *
Ve
1e-07
24.5 14.375 9.49999999999983
0 0

0101101
*
Ed
 1e-07 1 1 0
1  45 0 3 15
0

0101000
+67 15 -69 15 *
Ve
1e-07
21.5 17.375 9.49999999999989
0 0

0101101
*
Ed
 1e-07 1 1 0
1  46 0 4.71238898038469 6.28318530717959
2  24 13 0 4.71238898038469 6.28318530717959
0

0101000
+67 15 -65 15 *
Ve
1e-07
8.49999999999999 17.375 9.49999999999989
0 0

0101101
*
Ed
 1e-07 1 1 0
1  47 0 3 16
0

0101000
+63 15 -65 15 *
Ed
 1e-07 1 1 0
1  48 0 4.71238898038469 6.28318530717959
2  25 12 0 4.71238898038469 6.28318530717959
0

0101000
+71 15 -63 15 *
Wi

0101100
-70 11 -74 11 -135 0 +68 11 +66 11 -64 11 +62 11 +61 11 *
Fa
0  1e-07 18 11

0111000
+60 0 *
Ed
 1e-07 1 1 0
1  49 0 0.009999999999995 2.51
2  26 8 0 0.009999999999995 2.51
4 G1 8 0 19 0
0

0101000
+104 15 -69 15 *
Wi

0101100
-58 11 -68 11 +133 0 +100 0 *
Fa
0  1e-07 8 11

0111000
+57 0 *
Ve
1e-07
515.5 2.37499999999977 9.49999999999983
0 0

0101101
*
Ed
 1e-07 1 1 0
1  50 0 0.009999999999995 2.51
2  27 9 0 0.009999999999995 2.51
4 G1 9 0 20 0
0

0101000
+95 16 -55 16 *
Ed
 1e-07 1 1 0
1  51 0 1.5707963267949 2.48432850034427
2  28 9 0 1.5707963267949 2.48432850034427
0

0101000
+55 16 -130 16 *
Wi

0101100
-54 14 -53 14 +129 0 -94 0 *
Fa
0  1e-07 9 14

0111000
+52 0 *
Ve
1e-07
515.5 14.375 9.49999999999983
0 0

0101101
*
Ed
 1e-07 1 1 0
1  52 0 3 15
0

0101000
+50 16 -55 16 *
Ve
1e-07
534.5 2.37499999999977 9.49999999999983
0 0

0101101
*
Ed
 1e-07 1 1 0
1  53 0 1.5707963267949 2.48432850034427
2  29 10 0 1.5707963267949 2.48432850034427
0

0101000
+48 16 -128 16 *
Ve
1e-07
534.5 14.375 9.49999999999983
0 0

0101101
*
Ed
 1e-07 1 1 0
1  54 0 3 15
0

0101000
+46 16 -48 16 *
Ve
1e-07
531.5 17.375 9.49999999999989
0 0

0101101
*
Ed
 1e-07 1 1 0
1  55 0 4.71238898038469 6.28318530717959
2  30 14 0 4.71238898038469 6.28318530717959
0

0101000
+46 16 -44 16 *
Ve
1e-07
518.5 17.375 9.49999999999989
0 0

0101101
*
Ed
 1e-07 1 1 0
1  56 0 3 16
0

0101000
+42 16 -44 16 *
Ed
 1e-07 1 1 0
1  57 0 4.71238898038469 6.28318530717959
2  31 15 0 4.71238898038469 6.28318530717959
0

0101000
+50 16 -42 16 *
Wi

0101100
-49 14 -53 14 -127 0 +47 14 +45 14 -43 14 +41 14 +40 14 *
Fa
0  1e-07 21 14

0111000
+39 0 *
Ed
 1e-07 1 1 0
1  58 0 0.009999999999995 2.51
2  32 10 0 0.009999999999995 2.51
4 G1 10 0 22 0
0

0101000
+110 16 -48 16 *
Wi

0101100
-37 14 -47 14 +125 0 +109 0 *
Fa
0  1e-07 10 14

0111000
+36 0 *
Ed
 1e-07 1 1 0
1  59 0 0.009999999999995 2.51
2  33 12 0 0.009999999999995 2.51
4 G1 17 0 12 0
0

0101000
+117 15 -71 15 *
Wi

0101100
-70 11 +75 11 +116 0 -34 11 *
Fa
0  1e-07 17 11

0111000
+33 0 *
Ed
 1e-07 1 1 0
1  60 0 0.009999999999995 2.51
2  34 12 0 0.009999999999995 2.51
4 G1 12 0 23 0
0

0101000
+114 15 -63 15 *
Wi

0101100
-34 11 -61 11 +31 11 +113 0 *
Fa
0  1e-07 12 11

0111000
+30 0 *
Ed
 1e-07 1 1 0
1  61 0 0.009999999999995 2.51
2  35 13 0 0.009999999999995 2.51
4 G1 23 0 13 0
0

0101000
+112 15 -65 15 *
Wi

0101100
+111 0 -28 11 +62 11 +31 11 *
Fa
0  1e-07 23 11

0111000
+27 0 *
Ed
 1e-07 1 1 0
1  62 0 0.009999999999995 2.51
2  36 13 0 0.009999999999995 2.51
4 G1 13 0 19 0
0

0101000
+108 15 -67 15 *
Wi

0101100
-25 11 -64 11 +28 11 -107 0 *
Fa
0  1e-07 13 11

0111000
+24 0 *
Ed
 1e-07 1 1 0
1  63 0 0.009999999999995 2.51
2  37 14 0 0.009999999999995 2.51
4 G1 22 0 14 0
0

0101000
+106 16 -46 16 *
Wi

0101100
-45 14 +37 14 +105 0 -22 14 *
Fa
0  1e-07 22 14

0111000
+21 0 *
Wi

0101100
-66 11 +58 11 +103 0 -25 11 *
Fa
0  1e-07 19 11

0111000
+19 0 *
Ed
 1e-07 1 1 0
1  64 0 0.009999999999995 2.51
2  38 14 0 0.009999999999995 2.51
4 G1 14 0 24 0
0

0101000
+102 16 -44 16 *
Wi

0101100
-22 14 -43 14 +17 14 -101 0 *
Fa
0  1e-07 14 14

0111000
+16 0 *
Ed
 1e-07 1 1 0
1  65 0 0.009999999999995 2.51
2  39 15 0 0.009999999999995 2.51
4 G1 24 0 15 0
0

0101000
+99 16 -42 16 *
Wi

0101100
+98 0 -17 14 +41 14 +14 14 *
Fa
0  1e-07 24 14

0111000
+13 0 *
Ed
 1e-07 1 1 0
1  66 0 0.009999999999995 2.51
2  40 15 0 0.009999999999995 2.51
4 G1 15 0 20 0
0

0101000
+97 16 -50 16 *
Wi

0101100
-11 14 -40 14 +14 14 +96 0 *
Fa
0  1e-07 15 14

0111000
+10 0 *
Wi

0101100
-49 14 +54 14 +93 0 -11 14 *
Fa
0  1e-07 20 14

0111000
+8 0 *
Sh

0101100
-159 6 -152 6 +141 0 +120 0 -85 0 +83 6 -80 0 -77 0 +72 0 -59 0 
-56 0 +51 0 -38 0 -35 0 +32 0 -29 0 +26 0 +23 0 -20 0 -18 0 
+15 0 +12 0 -9 0 +7 0 *
So

0100000
+6 0 *
Co

0100000
+5 0 *
Co

0100000
+4 0 *
Co

0100000
+3 0 *
Co

1100000
+2 0 *

+1 3 