DBRep_DrawableShape

CASCADE Topology V1, (c) Matra-Datavision
Locations 26
1
              1               0               0          14.325 
              0               1               0               0 
              0               0               1               0 
1
              1               0               0               0 
              0               1               0               0 
              0               0               1               0 
2  1 1 2 1 0
1
              1               0               0               0 
              0               1               0               0 
              0               0               1               0 
1
              1               0               0               0 
              0               1               0               0 
              0               0               1               0 
1
              1               0               0               0 
              0               1               0               0 
              0               0               1               0 
2  4 1 5 1 6 1 0
2  1 -1 6 -1 5 -1 4 -1 0
1
              1               0               0              18 
              0               1               0               0 
              0               0               1               0 
2  1 -1 6 -1 5 -1 4 -1 9 -1 0
2  4 1 5 1 0
2  1 -1 6 -1 0
2  9 1 4 1 5 1 0
1
              0              -1               0               0 
              1               0               0               0 
              0               0               1               0 
2  1 -1 6 -1 14 -1 0
1
              0              -1               0               0 
              1               0               0               0 
              0               0               1               0 
2  1 -1 6 -1 16 -1 0
2  1 -1 6 -1 5 -1 0
2  16 1 5 -1 0
2  1 -1 0
1
              0              -1               0               0 
              1               0               0               0 
              0               0               1               0 
2  1 -1 21 -1 0
2  5 1 6 1 0
2  16 1 6 1 0
2  9 1 4 1 5 1 6 1 0
2  14 1 6 1 0
Curve2ds 20
1 0 6 1 0 
1 2.1531605646636578 1.9000000000000001e-16 0 1 
1 0 4 1 0 
1 0 4 1 0 
1 0 0 0 1 
1 3.1415926535897931 0 0 1 
1 0 0 1 0 
1 1.5707963267948966 6 -0 -1 
1 0 0 1 0 
1 1.5707963267948966 0 0 1 
1 1.5707963267948966 0 0 1 
1 0 0 1 0 
1 0 0 1 0 
1 0 0 1 0 
1 1.5707963267948966 0 0 1 
1 0 4 1 0 
1 0 4 1 0 
1 4.7123889803846897 0 0 1 
1 3.1415926535897931 0 0 1 
1 3.1415926535897931 0 0 1 
Curves 75
1 -14.324999999999932 44 18.000000000000043 0 1 0 
1 -14.324999999999932 248 12.500000000000043 -2.2204460492503131e-16 0 1 
1 -14.324999999999932 91.400000000000091 6.0000000000000426 0 1 0 
1 -14.324999999999932 91.900000000000091 18.000000000000043 2.2204460492503131e-16 0 -1 
1 -32.324999999999932 44 4.2632564145606011e-14 0 1 0 
1 -14.324999999999932 44 18.000000000000043 2.2204460492503131e-16 0 -1 
1 709.57500000000005 0 18.000000000000213 -0.9981578843937613 0.060669908707453382 -2.216355730930178e-16 
1 709.57500000000005 254 18.000000000000213 0 -1 0 
1 -14.824999999999932 248 18.000000000000043 1 0 2.2204460492503131e-16 
1 709.57500000000005 248 18.500000000000213 -2.2204460492503131e-16 0 1 
1 519.10000000000014 247.99999999999955 6.0000000000001705 -1 0 -2.2204460492503131e-16 
1 691.57500000000005 247.99999999999955 4.6796818323144294 2.2204460492503131e-16 0 -1 
1 351.78722376826727 247.99999999999955 9.9475983006414026e-14 -1 0 -2.2204460492503131e-16 
1 3.6750000000000682 247.99999999999955 4.6796818323142872 2.2204460492503131e-16 0 -1 
1 166.15000000000009 247.99999999999955 6.0000000000000853 -1 0 -2.2204460492503131e-16 
1 3.6750000000000682 91.400000000000091 6.0000000000000568 0 1 0 
1 -14.824999999999932 91.900000000000091 6.0000000000000426 -1 0 -2.2204460492503131e-16 
1 170.81222376826713 91.900000000000091 5.6843418860808015e-14 1 0 2.2204460492503131e-16 
1 2.7750000000000909 91.900000000000091 9 2.2204460492503131e-16 0 -1 
1 45.975000000000136 91.900000000000091 3.9999999999999432 1 0 2.2204460492503131e-16 
1 3.6750000000000682 91.900000000000091 18.000000000000057 2.2204460492503131e-16 0 -1 
1 691.57500000000005 0 2.1316282072803006e-13 -0.9981578843937613 0.060669908707453382 -2.216355730930178e-16 
1 -52.099999999999909 -2.7750000000000909 5.6843418860808015e-14 1 0 0 
1 2.7750000000000909 42.960629921259851 9 2.2204460492503131e-16 0 -1 
1 407.68790594236862 18.349263901831364 4.0000000000000284 0.9981578843937613 -0.060669908707453382 2.3163557309301782e-16 
1 209.77500000000009 30.3787815996684 9.0000000000000426 2.2204460492503131e-16 0 -1 
1 691.57500000000005 0 2.1316282072803006e-13 -0.9981578843937613 0.060669908707453382 -2.216355730930178e-16 
1 226.77500000000009 29.345489708523246 9.0000000000000426 2.2204460492503131e-16 0 -1 
1 589.1904465475136 7.3171989942109121 6.0000000000000568 0.9981578843937613 -0.060669908707453382 2.3163557309301782e-16 
1 709.57500000000005 0 18.000000000000213 2.2204460492503131e-16 0 -1 
1 709.57500000000005 129.94999999999982 6.0000000000000711 2.4424906541753444e-32 1 -1.1e-16 
1 -52.099999999999909 -226.77500000000009 6.0000000000000995 1 0 0 
2 63.900000000000091 -228.77500000000009 6.0000000000000995 -0 2.2204460492503131e-16 1 0 -1 2.2204460492503131e-16 1 0 0 2
1 228.77500000000009 65.900000000000091 6.0000000000000995 1 0 2.2204460492503131e-16 
1 691.57500000000005 0.59407376709486925 6.000000000000199 0 1 0 
1 3.6750000000000682 114.78300393802851 2.8421709430404007e-14 0 -1 0 
1 3.6750000000000682 142.77032930884911 -7.1054273576010019e-14 -2.2204460492503131e-16 1.1e-16 1 
1 3.6750000000000682 68.200000000000273 3.9999999999999432 -2.4424906541753444e-32 -1 1.1e-16 
1 -52.099999999999909 -2.7750000000000909 4.0000000000000568 1 0 0 
2 141.10000000000014 -4.7750000000000909 4.0000000000000568 -0 2.2204460492503131e-16 1 0 -1 2.2204460492503131e-16 1 0 0 2
1 143.10000000000014 -4.7750000000000909 4.0000000000000568 0 -1 2.2204460492503131e-16 
2 141.10000000000014 -207.77500000000009 4.0000000000000995 -0 2.2204460492503131e-16 1 0 -1 2.2204460492503131e-16 1 0 0 2
1 -52.099999999999909 -209.77500000000009 4.0000000000000995 1 0 0 
1 141.10000000000014 -209.77500000000009 9.9475983006414026e-14 0 2.2204460492503131e-16 1 
1 -52.099999999999909 -209.77500000000009 9.9475983006414026e-14 1 0 0 
1 63.900000000000091 -226.77500000000009 9.9475983006414026e-14 0 2.2204460492503131e-16 1 
1 -52.099999999999909 -226.77500000000009 9.9475983006414026e-14 1 0 0 
2 63.900000000000091 -228.77500000000009 9.9475983006414026e-14 -0 2.2204460492503131e-16 1 0 -1 2.2204460492503131e-16 1 0 0 2
1 228.77500000000009 65.900000000000091 6.0000000000000995 2.2204460492503131e-16 0 -1 
1 228.77500000000009 65.900000000000091 9.9475983006414026e-14 1 0 2.2204460492503131e-16 
1 691.57500000000005 65.900000000000091 12.000000000000199 -2.2204460492503131e-16 0 1 
2 141.10000000000014 -4.7750000000000909 5.6843418860808015e-14 -0 2.2204460492503131e-16 1 0 -1 2.2204460492503131e-16 1 0 0 2
1 143.10000000000014 -4.7750000000000909 5.6843418860808015e-14 0 2.2204460492503131e-16 1 
1 143.10000000000014 -4.7750000000000909 5.6843418860808015e-14 0 -1 2.2204460492503131e-16 
1 143.10000000000014 -207.77500000000009 9.9475983006414026e-14 0 2.2204460492503131e-16 1 
2 141.10000000000014 -207.77500000000009 9.9475983006414026e-14 -0 2.2204460492503131e-16 1 0 -1 2.2204460492503131e-16 1 0 0 2
1 691.57500000000005 69.380040821575903 1.7053025658242404e-13 0 -1 0 
1 173.10000000000014 -242.77500000000009 9.9475983006414026e-14 0 -1 2.2204460492503131e-16 
2 171.10000000000014 -242.77500000000009 9.9475983006414026e-14 -0 2.2204460492503131e-16 1 0 -1 2.2204460492503131e-16 1 0 0 2
1 156.70000000000005 -240.77500000000009 9.9475983006414026e-14 1 0 0 
2 156.70000000000005 -242.77500000000009 9.9475983006414026e-14 -0 2.2204460492503131e-16 1 0 -1 2.2204460492503131e-16 1 0 0 2
1 154.70000000000005 -242.77500000000009 9.9475983006414026e-14 0 -1 2.2204460492503131e-16 
1 691.57500000000005 69.380040821575903 1.7053025658242404e-13 0 -1 0 
1 691.57500000000005 173.10000000000014 9.0000000000001137 -2.2204460492503131e-16 1.1e-16 1 
1 173.10000000000014 -242.77500000000009 4.0000000000000995 0 -1 2.2204460492503131e-16 
1 173.10000000000014 -242.77500000000009 9.9475983006414026e-14 0 2.2204460492503131e-16 1 
1 156.70000000000005 -240.77500000000009 4.0000000000000995 1 0 0 
2 171.10000000000014 -242.77500000000009 4.0000000000000995 -0 2.2204460492503131e-16 1 0 -1 2.2204460492503131e-16 1 0 0 2
1 691.57500000000005 82.49703688354748 4.0000000000000995 -2.4424906541753444e-32 -1 1.1e-16 
1 154.70000000000005 -242.77500000000009 4.0000000000000995 0 -1 2.2204460492503131e-16 
2 156.70000000000005 -242.77500000000009 4.0000000000000995 -0 2.2204460492503131e-16 1 0 -1 2.2204460492503131e-16 1 0 0 2
1 691.57500000000005 154.70000000000005 9.0000000000001279 -2.2204460492503131e-16 1.1e-16 1 
1 154.70000000000005 -242.77500000000009 9.9475983006414026e-14 0 2.2204460492503131e-16 1 
1 156.70000000000005 -240.77500000000009 9.9475983006414026e-14 0 2.2204460492503131e-16 1 
1 171.10000000000014 -240.77500000000009 9.9475983006414026e-14 0 2.2204460492503131e-16 1 
Polygon3D 0
PolygonOnTriangulations 0
Surfaces 27
1 -14.324999999999932 44 18.000000000000043 1 0 2.2204460492503131e-16 0 1 0 -2.2204460492503131e-16 0 1 
1 355.94944753653431 137.66600787605694 18.000000000000099 2.2204460492503131e-16 0 -1 1 0 2.2204460492503131e-16 0 -1 0 
1 347.62500000000011 247.99999999999955 -8.6406363353714255 -0 -1 0 -1 0 -2.2204460492503131e-16 2.2204460492503131e-16 0 -1 
1 -15.324999999999932 90.900000000000091 6.0000000000000426 2.2204460492503131e-16 0 -1 1 0 2.2204460492503131e-16 0 -1 0 
1 -14.324999999999932 91.900000000000091 18.000000000000043 0 1 0 1 0 2.2204460492503131e-16 2.2204460492503131e-16 0 -1 
1 337.94944753653431 137.66600787605694 9.9475983006414026e-14 2.2204460492503131e-16 0 -1 1 0 2.2204460492503131e-16 0 -1 0 
1 709.57500000000005 0 18.000000000000213 0.060669908707453382 0.9981578843937613 1.3471425909784203e-17 -0.9981578843937613 0.060669908707453382 -2.216355730930178e-16 -2.2204460492503131e-16 0 1 
1 709.57500000000005 254 18.000000000000213 -1 0 -2.2204460492503131e-16 0 -1 0 -2.2204460492503131e-16 -0 1 
1 532.3678401243908 72.058261179202418 6.0000000000001279 2.2204460492503131e-16 4.2000000000000002e-16 -1 -9.3258734068513154e-32 1 4.2000000000000002e-16 1 0 2.2204460492503131e-16 
2 63.900000000000091 -228.77500000000009 9.9475983006414026e-14 0 2.2204460492503131e-16 1 0 -1 2.2204460492503131e-16 1 0 0 2
1 3.6750000000000682 91.900000000000091 18.000000000000057 1 0 2.2204460492503131e-16 2.2204460492503131e-16 0 -1 0 1 0 
2 141.10000000000014 -4.7750000000000909 5.6843418860808015e-14 0 2.2204460492503131e-16 1 0 -1 2.2204460492503131e-16 1 0 0 2
1 -52.099999999999909 -2.7750000000000909 5.6843418860808015e-14 0 -1 2.2204460492503131e-16 1 0 0 0 2.2204460492503131e-16 1 
1 44.500000000000227 -106.27500000000009 4.0000000000000853 0 2.2204460492503131e-16 1 0 -1 2.2204460492503131e-16 1 0 0 
2 141.10000000000014 -207.77500000000009 9.9475983006414026e-14 0 2.2204460492503131e-16 1 0 -1 2.2204460492503131e-16 1 0 0 2
1 -52.099999999999909 -209.77500000000009 9.9475983006414026e-14 0 -1 2.2204460492503131e-16 1 0 0 0 2.2204460492503131e-16 1 
1 -52.099999999999909 -226.77500000000009 9.9475983006414026e-14 0 -1 2.2204460492503131e-16 1 0 0 0 2.2204460492503131e-16 1 
1 228.77500000000009 65.900000000000091 6.0000000000000995 0 1 0 1 0 2.2204460492503131e-16 2.2204460492503131e-16 0 -1 
1 143.10000000000014 -4.7750000000000909 5.6843418860808015e-14 1 0 0 0 -1 2.2204460492503131e-16 0 -2.2204460492503131e-16 -1 
1 386.53656995379038 162.03166340693633 7.1054273576010019e-14 2.2204460492503131e-16 0 -1 1 0 2.2204460492503131e-16 0 -1 0 
2 171.10000000000014 -242.77500000000009 9.9475983006414026e-14 0 2.2204460492503131e-16 1 0 -1 2.2204460492503131e-16 1 0 0 2
2 156.70000000000005 -242.77500000000009 9.9475983006414026e-14 0 2.2204460492503131e-16 1 0 -1 2.2204460492503131e-16 1 0 0 2
1 173.10000000000014 -242.77500000000009 9.9475983006414026e-14 1 0 0 0 -1 2.2204460492503131e-16 0 -2.2204460492503131e-16 -1 
1 163.90000000000032 -475.77500000000009 4.0000000000001847 0 2.2204460492503131e-16 1 0 -1 2.2204460492503131e-16 1 0 0 
1 154.70000000000005 -242.77500000000009 9.9475983006414026e-14 1 0 0 0 -1 2.2204460492503131e-16 0 -2.2204460492503131e-16 -1 
1 156.70000000000005 -240.77500000000009 9.9475983006414026e-14 0 -1 2.2204460492503131e-16 1 0 0 0 2.2204460492503131e-16 1 
1 691.57500000000005 157.094716293597 3.1707444039564479 1 0 2.2204460492503131e-16 2.2204460492503131e-16 0 -1 0 1 0 
Triangulations 0

TShapes 182
Ve
1e-07
0 44 18
0 0

0101101
*
Ve
1.5e-07
0 248 18
0 0

0101101
*
Ed
 1e-07 1 1 0
1  1 0 0 204
0

0101000
+182 8 -181 8 *
Ve
2.00000455e-07
0 248 6.00000000000004
0 0

0101101
*
Ed
 1.5e-07 1 1 0
1  2 0 -6.5 5.5
0

0101000
+179 8 -181 8 *
Ve
1.5e-07
0 91.9000000000001 6.00000000000004
0 0

0101101
*
Ed
 1.5e-07 1 1 0
1  3 0 0.5 156.6
0

0101000
+177 8 -179 8 *
Ve
1.50000028e-07
0 91.9000000000001 4.2632564145606e-14
0 0

0101101
*
Ed
 1e-07 1 1 0
1  4 0 12 18
0

0101000
+177 8 -175 8 *
Ve
1e-07
0 44 4.2632564145606e-14
0 0

0101101
*
Ed
 1e-07 1 1 0
1  5 0 0 47.9000000000001
0

0101000
+173 10 -175 10 *
Ed
 1e-07 1 1 0
1  6 0 0 18
0

0101000
+182 8 -173 8 *
Wi

0101100
-180 0 +178 0 +176 0 -174 0 +172 9 +171 0 *
Fa
0  1e-07 1 0

0111000
+170 0 *
Ve
1e-07
723.9 0 18.0000000000002
0 0

0101101
*
Ed
 1e-07 1 1 0
1  7 0 0 725.235968495772
0

0101000
+168 8 -182 8 *
Ve
1.5e-07
723.9 248 18.0000000000002
0 0

0101101
*
Ed
 1e-07 1 1 0
1  8 0 6 254
0

0101000
+166 8 -168 8 *
Ed
 1.5e-07 1 1 0
1  9 0 0.5 724.4
0

0101000
+181 8 -166 8 *
Wi

0101100
+167 0 +165 0 +164 0 +180 0 *
Fa
0  1e-07 2 0

0111000
+163 0 *
Ve
2.00000455e-07
723.9 248 6.0000000000002
0 0

0101101
*
Ed
 1.5e-07 1 1 0
1  10 0 -12.5 -0.5
0

0101000
+161 8 -166 8 *
Ve
2e-07
705.9 248 6.0000000000002
0 0

0101101
*
Ed
 2e-07 1 1 0
1  11 0 -190.475 -172.475
0

0101000
+161 8 -159 8 *
Ve
2e-07
705.9 248 1.70530256582424e-13
0 0

0101101
*
Ed
 2e-07 1 1 0
1  12 0 -1.32031816768577 4.67968183231426
0

0101000
+159 8 -157 8 *
Ve
2e-07
18 248 1.4210854715202e-14
0 0

0101101
*
Ed
 2e-07 1 1 0
1  13 0 -339.787776231733 348.112223768267
0

0101000
+157 8 -155 8 *
Ve
2e-07
18 248 6.00000000000004
0 0

0101101
*
Ed
 2e-07 1 1 0
1  14 0 -1.32031816768577 4.67968183231426
0

0101000
+153 8 -155 8 *
Ed
 2e-07 1 1 0
1  15 0 162.475 180.475
0

0101000
+153 8 -179 8 *
Wi

0101100
-178 0 -164 0 +160 0 -158 0 -156 0 -154 0 +152 0 -151 0 *
Fa
0  1.5e-07 3 0

0111000
+150 0 *
Ve
1.5e-07
18 91.9000000000001 6.00000000000004
0 0

0101101
*
Ed
 1.5e-07 1 1 0
1  16 0 0.5 156.599999999999
0

0101000
+148 8 -153 8 *
Ed
 1.5e-07 1 1 0
1  17 0 -18.5 -0.5
0

0101000
+148 8 -177 8 *
Wi

0101100
-147 0 -151 0 +176 0 +146 0 *
Fa
0  1e-07 4 0

0111000
+145 0 *
Ve
1.50000057e-07
17.1 91.9000000000001 -4.2632564145606e-14
0 0

0101101
*
Ed
 1.5e-07 1 1 0
1  18 0 -185.137223768267 -168.037223768267
0

0101000
+175 8 -143 8 *
Ve
1.50000014e-07
17.1 91.9000000000001 3.99999999999991
0 0

0101101
*
Ed
 1.5e-07 1 1 0
1  19 0 5.00000000000007 8.99999999999997
0

0101000
+141 12 -143 12 *
Ve
1.5e-07
18 91.9000000000001 3.99999999999993
0 0

0101101
*
Ed
 1.5e-07 1 1 0
1  20 0 -43.2 -42.3000000000001
0

0101000
+141 12 -139 12 *
Ed
 1e-07 1 1 0
1  21 0 12 14.0000000000001
0

0101000
+148 8 -139 8 *
Wi

0101100
-174 11 -142 11 +140 0 -138 0 +137 11 -146 11 *
Fa
0  1e-07 5 11

0111000
+136 0 *
Ve
1.50000057e-07
17.1 42.9606299212599 -1.4210854715202e-14
0 0

0101101
*
Ed
 1e-07 1 1 0
1  22 0 708.104410184848 725.235968495772
0

0101000
+134 10 -173 10 *
Ed
 1.00000099e-07 1 1 0
1  23 0 95.0606299212598 144
0

0101000
+134 15 -143 15 *
Wi

0101100
+142 11 +172 13 +133 13 -132 14 *
Fa
0  1e-07 6 13

0111000
+131 0 *
Ve
1.50000014e-07
17.1 42.9606299212599 3.99999999999991
0 0

0101101
*
Ed
 1.5e-07 1 1 0
1  24 0 5.00000000000007 8.99999999999994
0

0101000
+129 12 -134 12 *
Ve
1.50000014e-07
224.1 30.3787815996684 3.99999999999996
0 0

0101101
*
Ed
 1.5e-07 1 1 0
1  25 0 -405.660178888729 -198.278157230178
0

0101000
+129 12 -127 12 *
Ve
2e-07
224.1 30.3787815996684 3.5527136788005e-14
0 0

0101101
*
Ed
 1.5e-07 1 1 0
1  26 0 5.00000000000007 8.99999999999994
0

0101000
+127 12 -125 12 *
Ve
2e-07
241.1 29.3454897085232 3.5527136788005e-14
0 0

0101101
*
Ed
 2e-07 1 1 0
1  27 0 483.6910147669 500.722388526297
0

0101000
+123 10 -125 10 *
Ve
2e-07
241.1 29.3454897085232 5.99999999999996
0 0

0101101
*
Ed
 1.5e-07 1 1 0
1  28 0 3.00000000000007 8.99999999999994
0

0101000
+121 12 -123 12 *
Ve
2e-07
723.9 0 6.00000000000007
0 0

0101101
*
Ed
 1e-07 1 1 0
1  29 0 -363.084289784105 120.606724982795
0

0101000
+121 12 -119 12 *
Ed
 1e-07 1 1 0
1  30 0 0 12.0000000000001
0

0101000
+168 8 -119 8 *
Wi

0101000
-167 11 -171 11 +133 13 +128 0 -126 0 -124 0 +122 13 +120 0 -118 0 +117 11 
*
Fa
0  1e-07 7 11

0111000
+116 0 *
Ed
 1e-07 1 1 0
1  31 0 -129.95 118.05
0

0101000
+119 12 -161 12 *
Wi

0101000
-165 11 -117 11 -114 0 -160 11 *
Fa
0  1e-07 8 11

0111000
+113 0 *
Ve
2e-07
241.1 63.9000000000001 6.00000000000009
0 0

0101101
*
Ed
 2e-07 1 1 0
1  32 0 81.4454897085232 116
0

0101000
+121 17 -111 17 *
Ve
2e-07
243.1 65.9000000000001 6.00000000000009
0 0

0101101
*
Ed
 2e-07 1 1 0
1  33 0 1.5707963267949 3.14159265358979
2  1 10 0 1.5707963267949 3.14159265358979
0

0101000
+109 17 -111 17 *
Ve
2.00000128e-07
705.9 65.9000000000001 6.0000000000002
0 0

0101101
*
Ed
 2e-07 1 1 0
1  34 0 0 462.8
0

0101000
+109 18 -107 18 *
Ed
 2e-07 1 1 0
1  35 0 65.3059262329052 247.405926232905
0

0101000
+107 8 -159 8 *
Wi

0101000
-114 0 -118 0 +110 16 -108 16 +106 5 +105 11 -158 11 *
Fa
0  2e-07 9 0

0111000
+104 0 *
Ve
2e-07
18.0000000000001 142.770329308849 -4.2632564145606e-14
0 0

0101101
*
Ed
 2e-07 1 1 0
1  36 0 -133.216996061971 -27.9873253708206
0

0101000
+155 8 -102 8 *
Ve
1.5e-07
18 142.770329308849 3.99999999999991
0 0

0101101
*
Ed
 1e-07 1 1 0
1  37 0 4.3e-14 4
2  2 12 14 4.3e-14 4
0

0101000
+102 12 -100 12 *
Ed
 1.5e-07 1 1 0
1  38 0 -74.5703293088488 -23.6999999999998
0

0101000
+100 12 -139 12 *
Wi

0101100
-152 11 -101 11 -99 0 -98 0 +137 11 -147 11 *
Fa
0  1e-07 11 11

0111000
+97 0 *
Ed
 1e-07 1 1 0
1  39 0 95.0606299212598 144
0

0101000
+129 15 -141 15 *
Wi

0101100
+128 0 -95 14 -140 0 +132 14 *
Fa
0  1e-07 13 14

0111000
+94 0 *
Ve
1e-07
19.1 143.1 4.00000000000004
0 0

0101101
*
Ed
 1e-07 1 1 0
1  40 0 1.5707963267949 2.15316056466366
2  3 12 0 1.5707963267949 2.15316056466366
0

0101000
+92 15 -100 15 *
Ve
1e-07
222.1 143.1 4.00000000000009
0 0

0101101
*
Ed
 1e-07 1 1 0
1  41 0 0 203
0

0101000
+92 15 -90 15 *
Ve
1.00000079e-07
224.1 141.1 4.00000000000009
0 0

0101101
*
Ed
 1e-07 1 1 0
1  42 0 0 1.5707963267949
2  4 15 0 0 1.5707963267949
0

0101000
+88 15 -90 15 *
Ed
 1e-07 1 1 0
1  43 0 82.4787815996683 193.2
0

0101000
+127 15 -88 15 *
Wi

0101100
-95 14 -138 0 +98 0 +91 14 -89 14 +87 14 +86 14 +126 0 *
Fa
0  1e-07 14 14

0111000
+85 0 *
Ve
2e-07
224.1 141.1 -3.5527136788005e-14
0 0

0101101
*
Ed
 1e-07 1 1 0
1  44 0 0 4
2  5 15 0 0 4
0

0101000
+83 15 -88 15 *
Ed
 2e-07 1 1 0
1  45 0 82.4787815996683 193.2
0

0101000
+125 15 -83 15 *
Wi

0101100
+124 0 -86 14 +82 14 +81 14 *
Fa
0  1e-07 16 14

0111000
+80 0 *
Ve
2e-07
241.1 63.9000000000001 -3.5527136788005e-14
0 0

0101101
*
Ed
 1e-07 1 1 0
1  46 0 0 6
2  6 10 0 0 6
0

0101000
+78 17 -111 17 *
Ed
 2e-07 1 1 0
1  47 0 81.4454897085232 116
0

0101000
+123 17 -78 17 *
Wi

0101100
+120 0 -110 16 +77 16 +76 16 *
Fa
0  1e-07 17 16

0111000
+75 0 *
Ve
2e-07
243.1 65.9000000000001 3.5527136788005e-14
0 0

0101101
*
Ed
 2e-07 1 1 0
1  48 0 1.5707963267949 3.14159265358979
2  7 10 0 1.5707963267949 3.14159265358979
0

0101000
+73 17 -78 17 *
Ed
 1e-07 1 1 0
1  49 0 0 6
2  8 10 19 0 6
0

0101000
+109 18 -73 18 *
Wi

0101100
-108 16 +77 16 +72 16 +71 5 *
Fa
0  1e-07 10 16

0111000
+70 0 *
Ve
2e-07
705.9 65.9000000000001 1.84741111297626e-13
0 0

0101101
*
Ed
 2e-07 1 1 0
1  50 0 0 462.8
0

0101000
+73 18 -68 18 *
Ed
 2e-07 1 1 0
1  51 0 -12 -6
0

0101000
+68 18 -107 18 *
Wi

0101100
-71 5 -67 5 -66 5 +106 5 *
Fa
0  1e-07 18 5

0111000
+65 0 *
Ve
2e-07
19.1 143.1 -8.5265128291212e-14
0 0

0101101
*
Ed
 2e-07 1 1 0
1  52 0 1.5707963267949 2.15316056466361
2  9 12 0 1.5707963267949 2.15316056466361
0

0101000
+63 15 -102 15 *
Ed
 1e-07 1 1 0
1  53 0 0 4
2  10 12 0 0 4
0

0101000
+63 15 -92 15 *
Wi

0101100
-91 14 +99 0 +62 14 -61 14 *
Fa
0  1e-07 12 14

0111000
+60 0 *
Ve
2e-07
222.1 143.1 -3.5527136788005e-14
0 0

0101101
*
Ed
 2e-07 1 1 0
1  54 0 0 203
0

0101000
+63 15 -58 15 *
Ed
 1e-07 1 1 0
1  55 0 0 4
2  11 15 0 0 4
0

0101000
+58 15 -90 15 *
Wi

0101100
-57 14 -56 14 +89 14 +61 14 *
Fa
0  1e-07 19 14

0111000
+55 0 *
Ed
 2e-07 1 1 0
1  56 0 0 1.5707963267949
2  12 15 0 0 1.5707963267949
0

0101000
+83 15 -58 15 *
Wi

0101100
-87 14 +56 14 +53 14 -82 14 *
Fa
0  1e-07 15 14

0111000
+52 0 *
Ve
2e-07
705.9 173.1 1.13686837721616e-13
0 0

0101101
*
Ed
 1e-07 1 1 0
1  57 0 -178.619959178424 -103.719959178424
0

0101000
+157 20 -50 20 *
Ve
2e-07
257.1 173.1 -4.2632564145606e-14
0 0

0101101
*
Ed
 2e-07 1 1 0
1  58 0 0 448.8
0

0101000
+48 22 -50 22 *
Ve
2e-07
255.1 171.1 -4.2632564145606e-14
0 0

0101101
*
Ed
 2e-07 1 1 0
1  59 0 1.5707963267949 3.14159265358979
2  13 21 0 1.5707963267949 3.14159265358979
0

0101000
+48 22 -46 22 *
Ve
2e-07
255.1 156.7 -2.8421709430404e-14
0 0

0101101
*
Ed
 2e-07 1 1 0
1  60 0 0 14.4000000000001
0

0101000
+44 22 -46 22 *
Ve
2e-07
257.1 154.7 -2.8421709430404e-14
0 0

0101101
*
Ed
 2e-07 1 1 0
1  61 0 3.14159265358979 4.71238898038469
2  14 22 0 3.14159265358979 4.71238898038469
0

0101000
+44 22 -42 22 *
Ve
2e-07
705.9 154.7 1.13686837721616e-13
0 0

0101101
*
Ed
 2e-07 1 1 0
1  62 0 0 448.8
0

0101000
+42 22 -40 22 *
Ed
 2e-07 1 1 0
1  63 0 -85.3199591784241 3.48004082157581
0

0101000
+40 8 -68 8 *
Wi

0101000
-154 7 +49 0 -47 21 +45 21 -43 21 +41 21 +39 21 +38 7 -67 23 +72 24 
-76 24 +122 25 +81 26 +53 26 -57 26 +62 26 -101 7 *
Fa
0  2e-07 20 0

0111000
+37 0 *
Ve
2e-07
705.9 173.1 4.00000000000006
0 0

0101101
*
Ed
 2e-07 1 1 0
1  64 0 -8.99999999999994 -5.00000000000006
0

0101000
+50 20 -35 20 *
Ve
1e-07
257.1 173.1 4.0000000000001
0 0

0101101
*
Ed
 1e-07 1 1 0
1  65 0 0 448.8
0

0101000
+33 22 -35 22 *
Ed
 1e-07 1 1 0
1  66 0 0 4
2  15 21 0 0 4
0

0101000
+48 22 -33 22 *
Wi

0101100
-47 21 -34 0 +32 21 +31 21 *
Fa
0  1e-07 23 21

0111000
+30 0 *
Ve
1.00000079e-07
255.1 156.7 4.0000000000001
0 0

0101101
*
Ve
1.00000079e-07
255.1 171.1 4.0000000000001
0 0

0101101
*
Ed
 1e-07 1 1 0
1  67 0 0 14.4000000000001
0

0101000
+28 22 -27 22 *
Ed
 1e-07 1 1 0
1  68 0 1.5707963267949 3.14159265358979
2  16 21 0 1.5707963267949 3.14159265358979
0

0101000
+33 22 -27 22 *
Ve
2e-07
705.9 154.7 4.00000000000007
0 0

0101101
*
Ed
 2e-07 1 1 0
1  69 0 -90.6029631164527 -72.2029631164526
0

0101000
+35 20 -24 20 *
Ve
1e-07
257.1 154.7 4.0000000000001
0 0

0101101
*
Ed
 1e-07 1 1 0
1  70 0 0 448.8
0

0101000
+22 22 -24 22 *
Ed
 1e-07 1 1 0
1  71 0 3.14159265358979 4.71238898038469
2  17 22 0 3.14159265358979 4.71238898038469
0

0101000
+28 22 -22 22 *
Wi

0101100
-26 21 +25 21 -32 21 -23 0 +21 21 +20 21 *
Fa
0  1e-07 24 21

0111000
+19 0 *
Ed
 2e-07 1 1 0
1  72 0 -8.99999999999996 -5.00000000000006
0

0101000
+40 20 -24 20 *
Ed
 1e-07 1 1 0
1  73 0 0 4
2  18 22 0 0 4
0

0101000
+42 22 -22 22 *
Wi

0101100
-39 21 -17 0 +21 21 +16 21 *
Fa
0  1e-07 25 21

0111000
+15 0 *
Ed
 1e-07 1 1 0
1  74 0 0 4
2  19 22 0 0 4
0

0101000
+44 22 -28 22 *
Wi

0101100
-20 21 +16 21 +41 21 -13 21 *
Fa
0  1e-07 22 21

0111000
+12 0 *
Ed
 1e-07 1 1 0
1  75 0 0 4
2  20 21 0 0 4
0

0101000
+46 22 -27 22 *
Wi

0101100
-13 21 -26 21 +10 21 +43 21 *
Fa
0  1e-07 26 21

0111000
+9 0 *
Wi

0101100
-25 21 +10 21 +45 21 -31 21 *
Fa
0  1e-07 21 21

0111000
+7 0 *
Wi

0101000
-156 7 -105 7 -66 23 -38 7 +17 0 -23 0 -34 0 -49 0 *
Fa
0  2e-07 27 0

0111000
+5 0 *
Sh

0101000
-169 7 -162 7 -149 7 +144 7 +135 6 +130 6 -115 6 -112 6 +103 6 -96 6 
+93 6 -84 6 -79 6 +74 6 -69 6 -64 6 -59 6 -54 6 -51 6 +36 0 
-29 0 -18 0 +14 0 -11 0 +8 0 -6 0 +4 0 *
So

0100000
+3 0 *
Co

1100000
+2 0 *

+1 3 