DBRep_DrawableShape

CASCADE Topology V1, (c) Matra-Datavision
Locations 25
1
              1               0               0          14.325 
              0               1               0               0 
              0               0               1               0 
1
              1               0               0               0 
              0               1               0               0 
              0               0               1               0 
2  1 1 2 1 0
1
              1               0               0               0 
              0               1               0               0 
              0               0               1               0 
1
              1               0               0               0 
              0               1               0               0 
              0               0               1               0 
1
              1               0               0               0 
              0               1               0               0 
              0               0               1               0 
2  4 1 5 1 6 1 0
2  1 -1 6 -1 5 -1 4 -1 0
1
              1               0               0              18 
              0               1               0               0 
              0               0               1               0 
2  1 -1 6 -1 5 -1 4 -1 9 -1 0
2  4 1 5 1 0
1
              0              -1               0               0 
              1               0               0               0 
              0               0               1               0 
2  1 -1 6 -1 12 -1 0
2  1 -1 6 -1 0
2  9 1 4 1 5 1 0
2  1 -1 6 -1 5 -1 0
1
              0              -1               0               0 
              1               0               0               0 
              0               0               1               0 
2  1 -1 6 -1 17 -1 0
2  17 1 5 -1 0
2  12 1 6 1 0
2  17 1 6 1 0
2  5 1 6 1 0
1
              0              -1               0               0 
              1               0               0               0 
              0               0               1               0 
2  1 -1 23 -1 0
2  1 -1 0
Curve2ds 20
1 2.1531605646636578 1.9000000000000001e-16 0 1 
1 0 0 1 0 
1 0 0 1 0 
1 0 0 1 0 
1 3.1415926535897931 0 0 1 
1 0 0 0 1 
1 0 4 1 0 
1 1.5707963267948966 0 0 1 
1 0 4 1 0 
1 1.5707963267948966 0 0 1 
1 0 6 1 0 
1 1.5707963267948966 6 -0 -1 
1 0 4 1 0 
1 0 4 1 0 
1 4.7123889803846897 0 0 1 
1 0 0 1 0 
1 3.1415926535897931 0 0 1 
1 3.1415926535897931 0 0 1 
1 0 0 1 0 
1 1.5707963267948966 0 0 1 
Curves 75
1 709.57500000000005 44 1.1368683772161603e-13 0 1 0 
1 709.57499999999993 91.900000000000091 -761.99999999999989 2.2204460492503136e-16 0 1 
1 709.57500000000005 91.400000000000091 6.0000000000001137 0 1 0 
1 709.57500000000005 248 -56.499999999999886 -2.2204460492503136e-16 0 -1 
1 691.57500000000005 44 18.000000000000114 0 1 0 
1 709.57500000000005 44 1.1368683772161603e-13 2.2204460492503136e-16 0 1 
1 524.43777623173298 91.900000000000091 2.2737367544323206e-13 -1 0 2.2204460492503136e-16 
1 -14.324999999999818 0 3.4106051316484809e-13 0.9981578843937613 0.060669908707453382 -2.2163557309301785e-16 
1 -52.099999999999909 -692.47500000000002 1.1368683772161603e-13 1 0 0 
1 710.07500000000005 91.900000000000091 6.0000000000001137 1 0 -2.2204460492503136e-16 
1 691.57499999999993 91.900000000000091 -761.99999999999989 2.2204460492503136e-16 0 1 
1 649.27499999999998 91.900000000000091 4.0000000000004547 1 0 -2.2204460492503136e-16 
1 692.47500000000002 91.900000000000091 -378.99999999999983 2.2204460492503136e-16 0 1 
1 691.57500000000005 91.400000000000091 6.0000000000001137 0 1 0 
1 529.10000000000025 247.99999999999955 6.0000000000002274 1 0 -2.2204460492503136e-16 
1 -14.324999999999818 248 -112.49999999999966 -2.2204460492503136e-16 0 -1 
1 710.07500000000005 248 18.000000000000114 -1 0 2.2204460492503136e-16 
1 691.57500000000005 247.99999999999955 -385.32031816768568 2.2204460492503136e-16 0 1 
1 343.46277623173307 247.99999999999955 2.2737367544323206e-13 1 0 -2.2204460492503136e-16 
1 3.6749999999999545 247.99999999999955 -385.32031816768551 2.2204460492503136e-16 0 1 
1 176.15000000000032 247.99999999999955 6.0000000000002274 1 0 -2.2204460492503136e-16 
1 -32.324999999999818 0 18.000000000000341 0.9981578843937613 0.060669908707453382 -2.2163557309301785e-16 
1 -32.324999999999818 254 18.000000000000341 0 -1 0 
1 106.05955345248663 7.3171989942109121 6 0.9981578843937613 0.060669908707453382 -2.1163557309301786e-16 
1 468.47500000000002 29.345489708523246 3.0000000000002274 2.2204460492503136e-16 0 1 
1 -14.324999999999818 0 3.4106051316484809e-13 0.9981578843937613 0.060669908707453382 -2.2163557309301785e-16 
1 485.47500000000002 30.3787815996684 2.0000000000002274 2.2204460492503136e-16 0 1 
1 287.5620940576315 18.349263901831364 4.0000000000005684 0.9981578843937613 0.060669908707453382 -2.1163557309301786e-16 
1 692.47500000000002 42.960629921259851 2.0000000000001137 2.2204460492503136e-16 0 1 
1 -14.324999999999818 0 3.4106051316484809e-13 2.2204460492503136e-16 0 1 
1 -52.099999999999909 -692.47500000000002 4.0000000000001137 1 0 0 
1 691.57500000000005 68.200000000000045 4.0000000000004547 2.4424906541753449e-32 1 1.1e-16 
1 691.57500000000005 142.77032930884911 4.0000000000002274 -2.2204460492503136e-16 1.1e-16 -1 
1 691.57500000000005 114.78300393802851 1.1368683772161603e-13 0 -1 0 
1 -52.099999999999909 -485.47500000000002 4.0000000000002274 1 0 0 
2 141.10000000000014 -487.47500000000002 4.0000000000002274 0 2.2204460492503136e-16 -1 0 1 2.2204460492503136e-16 1 0 0 2
1 143.10000000000014 -690.47500000000002 4.0000000000001137 0 1 2.2204460492503136e-16 
2 141.10000000000014 -690.47500000000002 4.0000000000001137 0 2.2204460492503136e-16 -1 0 1 2.2204460492503136e-16 1 0 0 2
1 -14.324999999999818 0.59407376709486925 6.0000000000003411 0 1 0 
1 3.6750000000001819 0.59407376709486925 6.0000000000003411 0 1 0 
1 466.47500000000002 65.900000000000091 6.0000000000002274 -1 0 2.2204460492503136e-16 
2 63.900000000000091 -466.47500000000002 6.0000000000002274 0 2.2204460492503136e-16 -1 0 1 2.2204460492503136e-16 1 0 0 2
1 -52.099999999999909 -468.47500000000002 6.0000000000002274 1 0 0 
1 -52.099999999999909 -468.47500000000002 2.2737367544323206e-13 1 0 0 
1 63.900000000000091 -468.47500000000002 6.0000000000002274 0 2.2204460492503136e-16 -1 
1 -52.099999999999909 -485.47500000000002 2.2737367544323206e-13 1 0 0 
1 141.10000000000014 -485.47500000000002 4.0000000000002274 0 2.2204460492503136e-16 -1 
2 141.10000000000014 -690.47500000000002 1.1368683772161603e-13 0 2.2204460492503136e-16 -1 0 1 2.2204460492503136e-16 1 0 0 2
1 143.10000000000014 -690.47500000000002 4.0000000000001137 0 2.2204460492503136e-16 -1 
2 141.10000000000014 -487.47500000000002 2.2737367544323206e-13 0 2.2204460492503136e-16 -1 0 1 2.2204460492503136e-16 1 0 0 2
1 143.10000000000014 -487.47500000000002 4.0000000000002274 0 2.2204460492503136e-16 -1 
1 143.10000000000014 -690.47500000000002 1.1368683772161603e-13 0 1 2.2204460492503136e-16 
2 63.900000000000091 -466.47500000000002 2.2737367544323206e-13 0 2.2204460492503136e-16 -1 0 1 2.2204460492503136e-16 1 0 0 2
1 466.47500000000002 65.900000000000091 2.2737367544323206e-13 2.2204460492503136e-16 0 1 
1 3.6749999999999545 65.900000000000091 -380.99999999999972 -2.2204460492503136e-16 0 -1 
1 466.47500000000002 65.900000000000091 2.2737367544323206e-13 -1 0 2.2204460492503136e-16 
1 3.6750000000001819 69.380040821575903 3.4106051316484809e-13 0 -1 0 
1 154.70000000000005 -452.47500000000002 2.2737367544323206e-13 0 1 2.2204460492503136e-16 
2 156.70000000000005 -452.47500000000002 2.2737367544323206e-13 0 2.2204460492503136e-16 -1 0 1 2.2204460492503136e-16 1 0 0 2
1 156.70000000000005 -454.47500000000002 2.2737367544323206e-13 1 0 0 
2 171.10000000000014 -452.47500000000002 2.2737367544323206e-13 0 2.2204460492503136e-16 -1 0 1 2.2204460492503136e-16 1 0 0 2
1 173.10000000000014 -452.47500000000002 2.2737367544323206e-13 0 1 2.2204460492503136e-16 
1 3.6750000000001819 69.380040821575903 3.4106051316484809e-13 0 -1 0 
1 154.70000000000005 -452.47500000000002 4.0000000000002274 0 1 2.2204460492503136e-16 
1 3.6749999999999545 154.70000000000005 -378.99999999999966 -2.2204460492503136e-16 1.1e-16 -1 
1 154.70000000000005 -452.47500000000002 4.0000000000002274 0 2.2204460492503136e-16 -1 
2 156.70000000000005 -452.47500000000002 4.0000000000002274 0 2.2204460492503136e-16 -1 0 1 2.2204460492503136e-16 1 0 0 2
1 156.70000000000005 -454.47500000000002 4.0000000000002274 0 2.2204460492503136e-16 -1 
1 171.10000000000014 -454.47500000000002 4.0000000000002274 0 2.2204460492503136e-16 -1 
1 156.70000000000005 -454.47500000000002 4.0000000000002274 1 0 0 
2 171.10000000000014 -452.47500000000002 4.0000000000002274 0 2.2204460492503136e-16 -1 0 1 2.2204460492503136e-16 1 0 0 2
1 173.10000000000014 -452.47500000000002 4.0000000000002274 0 2.2204460492503136e-16 -1 
1 173.10000000000014 -452.47500000000002 4.0000000000002274 0 1 2.2204460492503136e-16 
1 3.6749999999999545 173.10000000000014 -378.99999999999966 -2.2204460492503136e-16 1.1e-16 -1 
1 3.6750000000001819 82.497036883547253 4.0000000000005684 2.4424906541753449e-32 1 1.1e-16 
Polygon3D 0
PolygonOnTriangulations 0
Surfaces 27
1 709.57500000000005 44 1.1368683772161603e-13 -1 0 2.2204460492503136e-16 0 1 0 -2.2204460492503136e-16 0 -1 
1 339.30055246346581 137.66600787605694 2.2737367544323206e-13 2.2204460492503136e-16 0 1 -1 0 2.2204460492503136e-16 0 -1 0 
1 709.57499999999993 91.900000000000091 -761.99999999999989 0 1 0 -1 0 2.2204460492503136e-16 2.2204460492503136e-16 0 1 
1 710.57500000000005 90.900000000000091 6.0000000000001137 2.2204460492503136e-16 0 1 -1 0 2.2204460492503136e-16 0 -1 0 
1 347.62500000000034 247.99999999999955 -8.6406363353713687 0 -1 -0 1 0 -2.2204460492503136e-16 2.2204460492503136e-16 0 1 
1 321.30055246346581 137.66600787605694 18.000000000000227 2.2204460492503136e-16 0 1 -1 0 2.2204460492503136e-16 0 -1 0 
1 -14.324999999999818 0 3.4106051316484809e-13 -0.060669908707453382 0.9981578843937613 1.3471425909784206e-17 0.9981578843937613 0.060669908707453382 -2.2163557309301785e-16 -2.2204460492503136e-16 0 -1 
1 -52.099999999999909 -692.47500000000002 4.0000000000001137 0 1 2.2204460492503136e-16 1 0 0 0 2.2204460492503136e-16 -1 
1 691.57499999999993 91.900000000000091 -761.99999999999989 -1 0 2.2204460492503136e-16 2.2204460492503136e-16 0 1 0 1 0 
2 141.10000000000014 -690.47500000000002 4.0000000000001137 0 2.2204460492503136e-16 -1 0 1 2.2204460492503136e-16 1 0 0 2
1 44.5 -588.97500000000002 4.0000000000003411 -0 -2.2204460492503136e-16 1 0 -1 -2.2204460492503136e-16 1 0 0 
2 141.10000000000014 -487.47500000000002 4.0000000000002274 0 2.2204460492503136e-16 -1 0 1 2.2204460492503136e-16 1 0 0 2
1 -14.324999999999818 254 3.4106051316484809e-13 1 0 -2.2204460492503136e-16 0 -1 0 -2.2204460492503136e-16 -0 -1 
1 162.88215987560966 72.058261179202191 6 -2.2204460492503136e-16 7.4999999999999996e-16 -1 -1.6653345369377352e-31 -1 -7.4999999999999996e-16 -1 0 2.2204460492503136e-16 
2 63.900000000000091 -466.47500000000002 6.0000000000002274 0 2.2204460492503136e-16 -1 0 1 2.2204460492503136e-16 1 0 0 2
1 -52.099999999999909 -468.47500000000002 6.0000000000002274 0 1 2.2204460492503136e-16 1 0 0 0 2.2204460492503136e-16 -1 
1 -52.099999999999909 -485.47500000000002 4.0000000000002274 0 1 2.2204460492503136e-16 1 0 0 0 2.2204460492503136e-16 -1 
1 143.10000000000014 -690.47500000000002 4.0000000000001137 1 0 0 0 1 2.2204460492503136e-16 0 -2.2204460492503136e-16 1 
1 466.47500000000002 65.900000000000091 2.2737367544323206e-13 0 1 0 -1 0 2.2204460492503136e-16 2.2204460492503136e-16 0 1 
1 308.71343004621019 162.03166340693656 5.6843418860808015e-13 -2.2204460492503136e-16 -0 -1 1 0 -2.2204460492503136e-16 0 -1 0 
2 156.70000000000005 -452.47500000000002 4.0000000000002274 0 2.2204460492503136e-16 -1 0 1 2.2204460492503136e-16 1 0 0 2
2 171.10000000000014 -452.47500000000002 4.0000000000002274 0 2.2204460492503136e-16 -1 0 1 2.2204460492503136e-16 1 0 0 2
1 154.70000000000005 -452.47500000000002 4.0000000000002274 1 0 0 0 1 2.2204460492503136e-16 0 -2.2204460492503136e-16 1 
1 156.70000000000005 -454.47500000000002 4.0000000000002274 0 1 2.2204460492503136e-16 1 0 0 0 2.2204460492503136e-16 -1 
1 173.10000000000014 -452.47500000000002 4.0000000000002274 1 0 0 0 1 2.2204460492503136e-16 0 -2.2204460492503136e-16 1 
1 163.89999999999964 -219.47499999999991 4.0000000000003411 -0 -2.2204460492503136e-16 1 0 -1 -2.2204460492503136e-16 1 0 0 
1 3.6749999999999545 157.094716293597 3.1707444039566326 -1 0 2.2204460492503136e-16 2.2204460492503136e-16 0 1 0 1 0 
Triangulations 0

TShapes 182
Ve
1e-07
723.9 44 1.13686837721616e-13
0 0

0101101
*
Ve
1.5e-07
723.9 91.9000000000001 1.13686837721616e-13
0 0

0101101
*
Ed
 1e-07 1 1 0
1  1 0 0 47.9000000000001
0

0101000
+182 8 -181 8 *
Ve
1.5e-07
723.9 91.9000000000001 6.00000000000011
0 0

0101101
*
Ed
 1e-07 1 1 0
1  2 0 762 768
0

0101000
+181 8 -179 8 *
Ve
2.00000455e-07
723.9 248 6.00000000000011
0 0

0101101
*
Ed
 1.5e-07 1 1 0
1  3 0 0.5 156.6
0

0101000
+179 8 -177 8 *
Ve
1.5e-07
723.9 248 18.0000000000001
0 0

0101101
*
Ed
 1.5e-07 1 1 0
1  4 0 -74.5 -62.5
0

0101000
+175 8 -177 8 *
Ve
1e-07
723.9 44 18.0000000000001
0 0

0101101
*
Ed
 1e-07 1 1 0
1  5 0 0 204
0

0101000
+173 10 -175 10 *
Ed
 1e-07 1 1 0
1  6 0 0 18
0

0101000
+182 8 -173 8 *
Wi

0101100
-180 0 -178 0 -176 0 +174 0 +172 9 +171 0 *
Fa
0  1e-07 1 0

0111000
+170 0 *
Ve
1.50000114e-07
706.8 91.9000000000001 1.13686837721616e-13
0 0

0101101
*
Ed
 1.5e-07 1 1 0
1  7 0 -185.137223768267 -168.037223768267
0

0101000
+181 8 -168 8 *
Ve
1.50000114e-07
706.8 42.9606299212599 1.13686837721616e-13
0 0

0101101
*
Ed
 1e-07 1 1 0
1  8 0 708.104410184848 725.235968495772
0

0101000
+166 8 -182 8 *
Ed
 1.00000114e-07 1 1 0
1  9 0 95.0606299212599 144
0

0101000
+166 13 -168 13 *
Wi

0101100
+167 11 +180 11 +165 11 -164 12 *
Fa
0  1e-07 2 11

0111000
+163 0 *
Ve
1.5e-07
705.9 91.9000000000001 6.00000000000011
0 0

0101101
*
Ed
 1.5e-07 1 1 0
1  10 0 -18.5 -0.5
0

0101000
+161 8 -179 8 *
Ve
1.5e-07
705.9 91.9000000000001 4.00000000000034
0 0

0101101
*
Ed
 1e-07 1 1 0
1  11 0 766 768
0

0101000
+159 8 -161 8 *
Ve
1.50000227e-07
706.8 91.9000000000001 4.00000000000011
0 0

0101101
*
Ed
 1.5e-07 1 1 0
1  12 0 42.3000000000001 43.2
0

0101000
+159 14 -157 14 *
Ed
 1.5e-07 1 1 0
1  13 0 379 383
0

0101000
+168 14 -157 14 *
Wi

0101100
-178 11 +160 11 +158 11 -156 0 +155 0 +167 11 *
Fa
0  1e-07 3 11

0111000
+154 0 *
Ve
2e-07
705.9 248 6.00000000000011
0 0

0101101
*
Ed
 1.5e-07 1 1 0
1  14 0 0.5 156.599999999999
0

0101000
+161 8 -152 8 *
Ed
 2e-07 1 1 0
1  15 0 162.475 180.475
0

0101000
+152 8 -177 8 *
Wi

0101100
-151 0 -150 0 +176 0 +160 0 *
Fa
0  1e-07 4 0

0111000
+149 0 *
Ve
1.5e-07
2.27373675443232e-13 248 18.0000000000003
0 0

0101101
*
Ve
2.00000455e-07
2.27373675443232e-13 248 6.00000000000034
0 0

0101101
*
Ed
 1.5e-07 1 1 0
1  16 0 -130.5 -118.5
0

0101000
+147 8 -146 8 *
Ed
 1.5e-07 1 1 0
1  17 0 0.5 724.4
0

0101000
+175 8 -147 8 *
Ve
2e-07
705.9 248 1.13686837721616e-13
0 0

0101101
*
Ed
 2e-07 1 1 0
1  18 0 385.320318167686 391.320318167686
0

0101000
+143 8 -152 8 *
Ve
2e-07
18.0000000000002 248 3.41060513164848e-13
0 0

0101101
*
Ed
 2e-07 1 1 0
1  19 0 -339.787776231733 348.112223768267
0

0101000
+141 8 -143 8 *
Ve
2e-07
18.0000000000002 248 6.00000000000034
0 0

0101101
*
Ed
 2e-07 1 1 0
1  20 0 385.320318167686 391.320318167686
0

0101000
+141 8 -139 8 *
Ed
 2e-07 1 1 0
1  21 0 -190.475 -172.475
0

0101000
+146 8 -139 8 *
Wi

0101100
+145 0 +144 0 -174 0 +150 0 +142 0 +140 0 -138 0 +137 0 *
Fa
0  1.5e-07 5 0

0111000
+136 0 *
Ve
1e-07
2.27373675443232e-13 0 18.0000000000003
0 0

0101101
*
Ed
 1e-07 1 1 0
1  22 0 0 725.235968495772
0

0101000
+134 10 -173 10 *
Ed
 1e-07 1 1 0
1  23 0 6 254
0

0101000
+147 10 -134 10 *
Wi

0101100
+133 9 +132 9 +144 0 +172 9 *
Fa
0  1e-07 6 9

0111000
+131 0 *
Ve
2e-07
2.27373675443232e-13 0 6.00000000000011
0 0

0101101
*
Ve
2e-07
482.8 29.3454897085232 6.00000000000023
0 0

0101101
*
Ed
 1e-07 1 1 0
1  24 0 -120.606724982795 363.084289784105
0

0101000
+129 14 -128 14 *
Ve
2e-07
482.8 29.3454897085232 2.27373675443232e-13
0 0

0101101
*
Ed
 1.5e-07 1 1 0
1  25 0 -2.99999999999988 3.00000000000012
0

0101000
+126 14 -128 14 *
Ve
2e-07
499.8 30.3787815996684 2.27373675443232e-13
0 0

0101101
*
Ed
 2e-07 1 1 0
1  26 0 483.6910147669 500.722388526297
0

0101000
+126 8 -124 8 *
Ve
1.50000227e-07
499.8 30.3787815996684 4.00000000000023
0 0

0101101
*
Ed
 1.5e-07 1 1 0
1  27 0 -1.99999999999988 2.00000000000012
0

0101000
+124 14 -122 14 *
Ve
1.50000227e-07
706.8 42.9606299212599 4.00000000000011
0 0

0101101
*
Ed
 1.5e-07 1 1 0
1  28 0 198.278157230178 405.660178888729
0

0101000
+122 14 -120 14 *
Ed
 1.5e-07 1 1 0
1  29 0 -1.99999999999988 2.00000000000012
0

0101000
+166 14 -120 14 *
Ed
 1e-07 1 1 0
1  30 0 5.99999999999977 18
0

0101000
+129 8 -134 8 *
Wi

0101000
-127 0 +125 0 -123 11 -121 0 -119 0 +118 0 -165 11 -171 11 +133 15 +117 11 
*
Fa
0  1e-07 7 11

0111000
+116 0 *
Ed
 1e-07 1 1 0
1  31 0 95.0606299212599 144
0

0101000
+120 13 -157 13 *
Wi

0101100
+118 0 -164 12 -155 0 +114 12 *
Fa
0  1e-07 8 12

0111000
+113 0 *
Ve
1.50000227e-07
705.9 142.770329308849 4.00000000000011
0 0

0101101
*
Ed
 1.5e-07 1 1 0
1  32 0 23.7 74.5703293088491
0

0101000
+159 14 -111 14 *
Ve
2e-07
705.9 142.770329308849 1.13686837721616e-13
0 0

0101101
*
Ed
 1e-07 1 1 0
1  33 0 0 4.00000000000011
2  1 10 12 0 4.00000000000011
0

0101000
+111 14 -109 14 *
Ed
 2e-07 1 1 0
1  34 0 -133.216996061971 -27.9873253708206
0

0101000
+143 8 -109 8 *
Wi

0101100
-142 11 +151 11 +158 11 -110 0 -108 0 +107 11 *
Fa
0  1e-07 9 11

0111000
+106 0 *
Ve
1.00000079e-07
499.8 141.1 4.00000000000023
0 0

0101101
*
Ed
 1e-07 1 1 0
1  35 0 82.4787815996684 193.2
0

0101000
+122 13 -104 13 *
Ve
1e-07
501.8 143.1 4.00000000000023
0 0

0101101
*
Ed
 1e-07 1 1 0
1  36 0 0 1.5707963267949
2  2 12 0 0 1.5707963267949
0

0101000
+104 13 -102 13 *
Ve
1e-07
704.8 143.1 4.00000000000011
0 0

0101101
*
Ed
 1e-07 1 1 0
1  37 0 0 203
0

0101000
+100 13 -102 13 *
Ed
 1e-07 1 1 0
1  38 0 1.5707963267949 2.15316056466366
2  3 10 0 1.5707963267949 2.15316056466366
0

0101000
+100 13 -111 13 *
Wi

0101100
+119 0 -103 12 -101 12 +99 12 -98 12 +110 0 -156 0 +114 12 *
Fa
0  1e-07 11 12

0111000
+97 0 *
Ed
 1e-07 1 1 0
1  39 0 -0.594073767094869 247.405926232905
0

0101000
+129 14 -146 14 *
Wi

0101000
-117 11 +132 15 -145 11 +95 0 *
Fa
0  1e-07 13 11

0111000
+94 0 *
Ve
2e-07
18.0000000000002 65.9000000000001 6.00000000000034
0 0

0101101
*
Ed
 2e-07 1 1 0
1  40 0 65.3059262329052 247.405926232905
0

0101000
+92 8 -139 8 *
Ve
2e-07
480.8 65.9000000000001 6.00000000000023
0 0

0101101
*
Ed
 2e-07 1 1 0
1  41 0 0 462.8
0

0101000
+90 16 -92 16 *
Ve
2e-07
482.8 63.9000000000001 6.00000000000023
0 0

0101101
*
Ed
 2e-07 1 1 0
1  42 0 1.5707963267949 3.14159265358979
2  4 15 0 1.5707963267949 3.14159265358979
0

0101000
+90 18 -88 18 *
Ed
 2e-07 1 1 0
1  43 0 81.4454897085233 116
0

0101000
+128 18 -88 18 *
Wi

0101000
-91 11 -89 5 +87 17 -86 17 -127 0 +95 0 +137 11 *
Fa
0  2e-07 14 0

0111000
+85 0 *
Ve
2e-07
482.8 63.9000000000001 2.27373675443232e-13
0 0

0101101
*
Ed
 2e-07 1 1 0
1  44 0 81.4454897085233 116
0

0101000
+126 18 -83 18 *
Ed
 1e-07 1 1 0
1  45 0 0 6
2  5 15 0 0 6
0

0101000
+88 18 -83 18 *
Wi

0101100
+125 0 -82 17 +81 17 +86 17 *
Fa
0  1e-07 16 17

0111000
+80 0 *
Ve
2e-07
499.8 141.1 2.27373675443232e-13
0 0

0101101
*
Ed
 2e-07 1 1 0
1  46 0 82.4787815996684 193.2
0

0101000
+124 13 -78 13 *
Ed
 1e-07 1 1 0
1  47 0 0 4
2  6 12 0 0 4
0

0101000
+104 13 -78 13 *
Wi

0101100
+121 0 -77 12 +76 12 +103 12 *
Fa
0  1e-07 17 12

0111000
+75 0 *
Ve
2e-07
704.8 143.1 1.13686837721616e-13
0 0

0101101
*
Ed
 2e-07 1 1 0
1  48 0 1.5707963267949 2.15316056466361
2  7 10 0 1.5707963267949 2.15316056466361
0

0101000
+73 13 -109 13 *
Ed
 1e-07 1 1 0
1  49 0 0 4
2  8 10 0 0 4
0

0101000
+100 13 -73 13 *
Wi

0101100
-72 12 +108 0 +98 12 -71 12 *
Fa
0  1e-07 10 12

0111000
+70 0 *
Ve
2e-07
501.8 143.1 2.27373675443232e-13
0 0

0101101
*
Ed
 2e-07 1 1 0
1  50 0 0 1.5707963267949
2  9 12 0 0 1.5707963267949
0

0101000
+78 13 -68 13 *
Ed
 1e-07 1 1 0
1  51 0 0 4
2  10 12 0 0 4
0

0101000
+102 13 -68 13 *
Wi

0101100
-67 12 +66 12 +101 12 -76 12 *
Fa
0  1e-07 12 12

0111000
+65 0 *
Ed
 2e-07 1 1 0
1  52 0 0 203
0

0101000
+73 13 -68 13 *
Wi

0101100
-99 12 -66 12 +63 12 +71 12 *
Fa
0  1e-07 18 12

0111000
+62 0 *
Ve
2e-07
480.8 65.9000000000001 2.27373675443232e-13
0 0

0101101
*
Ed
 2e-07 1 1 0
1  53 0 1.5707963267949 3.14159265358979
2  11 15 0 1.5707963267949 3.14159265358979
0

0101000
+60 18 -83 18 *
Ed
 1e-07 1 1 0
1  54 0 0 6
2  12 15 19 0 6
0

0101000
+60 16 -90 16 *
Wi

0101100
-59 17 +81 17 +87 17 +58 5 *
Fa
0  1e-07 15 17

0111000
+57 0 *
Ve
2e-07
18.0000000000002 65.9000000000001 3.41060513164848e-13
0 0

0101101
*
Ed
 2e-07 1 1 0
1  55 0 -387 -381
0

0101000
+92 16 -55 16 *
Ed
 2e-07 1 1 0
1  56 0 0 462.8
0

0101000
+60 16 -55 16 *
Wi

0101100
-58 5 -89 5 -54 5 +53 5 *
Fa
0  1e-07 19 5

0111000
+52 0 *
Ve
2e-07
18.0000000000002 154.7 3.41060513164848e-13
0 0

0101101
*
Ed
 2e-07 1 1 0
1  57 0 -85.3199591784241 3.48004082157581
0

0101000
+50 8 -55 8 *
Ve
2e-07
466.8 154.7 2.27373675443232e-13
0 0

0101101
*
Ed
 2e-07 1 1 0
1  58 0 0 448.8
0

0101000
+48 24 -50 24 *
Ve
2e-07
468.8 156.7 2.27373675443232e-13
0 0

0101101
*
Ed
 2e-07 1 1 0
1  59 0 3.14159265358979 4.71238898038469
2  13 21 0 3.14159265358979 4.71238898038469
0

0101000
+46 24 -48 24 *
Ve
2e-07
468.8 171.1 2.27373675443232e-13
0 0

0101101
*
Ed
 2e-07 1 1 0
1  60 0 0 14.4000000000001
0

0101000
+46 24 -44 24 *
Ve
2e-07
466.8 173.1 2.27373675443232e-13
0 0

0101101
*
Ed
 2e-07 1 1 0
1  61 0 1.5707963267949 3.14159265358979
2  14 22 0 1.5707963267949 3.14159265358979
0

0101000
+42 24 -44 24 *
Ve
2e-07
18.0000000000002 173.1 3.41060513164848e-13
0 0

0101101
*
Ed
 2e-07 1 1 0
1  62 0 0 448.8
0

0101000
+42 24 -40 24 *
Ed
 1e-07 1 1 0
1  63 0 -178.619959178424 -103.719959178424
0

0101000
+141 25 -40 25 *
Wi

0101000
+140 7 +107 7 -72 20 +63 20 -67 20 -77 20 -123 7 +82 21 -59 21 +53 22 
-49 7 -47 23 -45 23 +43 23 -41 23 +39 23 -38 0 *
Fa
0  2e-07 20 0

0111000
+37 0 *
Ve
1e-07
466.8 154.7 4.00000000000023
0 0

0101101
*
Ve
2e-07
18.0000000000002 154.7 4.00000000000034
0 0

0101101
*
Ed
 1e-07 1 1 0
1  64 0 0 448.8
0

0101000
+35 24 -34 24 *
Ed
 2e-07 1 1 0
1  65 0 -383 -379
0

0101000
+34 25 -50 25 *
Ed
 1e-07 1 1 0
1  66 0 0 4
2  15 21 0 0 4
0

0101000
+35 24 -48 24 *
Wi

0101100
-33 23 -32 0 +47 23 +31 23 *
Fa
0  1e-07 23 23

0111000
+30 0 *
Ve
1.00000079e-07
468.8 156.7 4.00000000000023
0 0

0101101
*
Ed
 1e-07 1 1 0
1  67 0 3.14159265358979 4.71238898038469
2  16 21 0 3.14159265358979 4.71238898038469
0

0101000
+28 24 -35 24 *
Ed
 1e-07 1 1 0
1  68 0 0 4
2  17 21 0 0 4
0

0101000
+28 24 -46 24 *
Wi

0101100
-45 23 +31 23 +27 23 -26 23 *
Fa
0  1e-07 21 23

0111000
+25 0 *
Ve
1.00000079e-07
468.8 171.1 4.00000000000023
0 0

0101101
*
Ed
 1e-07 1 1 0
1  69 0 0 4
2  18 22 0 0 4
0

0101000
+23 24 -44 24 *
Ed
 1e-07 1 1 0
1  70 0 0 14.4000000000001
0

0101000
+28 24 -23 24 *
Wi

0101100
-26 23 -43 23 +22 23 +21 23 *
Fa
0  1e-07 24 23

0111000
+20 0 *
Ve
1e-07
466.8 173.1 4.00000000000023
0 0

0101101
*
Ed
 1e-07 1 1 0
1  71 0 1.5707963267949 3.14159265358979
2  19 22 0 1.5707963267949 3.14159265358979
0

0101000
+18 24 -23 24 *
Ed
 1e-07 1 1 0
1  72 0 0 4
2  20 22 0 0 4
0

0101000
+18 24 -42 24 *
Wi

0101100
-41 23 +22 23 +17 23 -16 23 *
Fa
0  1e-07 22 23

0111000
+15 0 *
Ve
2e-07
18.0000000000002 173.1 4.00000000000034
0 0

0101101
*
Ed
 1e-07 1 1 0
1  73 0 0 448.8
0

0101000
+18 24 -13 24 *
Ed
 2e-07 1 1 0
1  74 0 -383 -379
0

0101000
+13 25 -40 25 *
Wi

0101100
-12 23 -11 0 +39 23 +16 23 *
Fa
0  1e-07 25 23

0111000
+10 0 *
Ed
 2e-07 1 1 0
1  75 0 72.2029631164528 90.6029631164529
0

0101000
+34 25 -13 25 *
Wi

0101100
-27 23 -33 23 -8 0 +12 23 -17 23 +21 23 *
Fa
0  1e-07 26 23

0111000
+7 0 *
Wi

0101000
-138 7 +38 0 -11 0 -8 0 +32 0 +49 7 -54 22 +91 7 *
Fa
0  2e-07 27 0

0111000
+5 0 *
Sh

0101000
-169 7 -162 6 +153 6 -148 7 -135 7 +130 7 -115 6 +112 6 -105 6 -96 6 
-93 6 +84 6 +79 6 -74 6 -69 6 -64 6 -61 6 -56 6 -51 6 +36 0 
+29 0 -24 0 +19 0 -14 0 -9 0 -6 0 +4 0 *
So

0100000
+3 0 *
Co

1100000
+2 0 *

+1 3 