DBRep_DrawableShape

CASCADE Topology V1, (c) Matra-Datavision
Locations 16
1
              1               0               0          14.325 
              0               1               0               0 
              0               0               1               0 
1
              1               0               0               0 
              0               1               0               0 
              0               0               1               0 
2  1 1 2 1 0
1
              1               0               0               0 
              0               1               0               0 
              0               0               1               0 
2  1 -1 4 -1 0
2  1 -1 0
1
              1               0               0               0 
              0               1               0               0 
              0               0               1               0 
2  1 -1 7 -1 0
1
              1               0               0               0 
              0               1               0               0 
              0               0               1               0 
2  1 -1 9 -1 0
1
              1               0               0               0 
              0               1               0               0 
              0               0               1               0 
2  1 -1 11 -1 0
1
              1               0               0              18 
              0               1               0               0 
              0               0               1               0 
2  13 1 4 1 0
1
              1               0               0               0 
              0               1               0               0 
              0               0               1               0 
2  1 -1 15 -1 0
Curve2ds 0
Curves 60
1 -14.325000000000003 724.39999999999986 12.000000000000227 0 -1 2.2204460492503128e-16 
1 -14.325000000000003 -2.2737367544323206e-13 2.2737367544323206e-13 0 2.2204460492503128e-16 1 
1 -14.325000000000003 723.89999999999986 18.000000000000227 0 -1 2.2204460492503128e-16 
1 -14.325000000000003 723.89999999999986 2.2737367544323206e-13 0 2.2204460492503128e-16 1 
1 -14.325000000000003 -2.2737367544323206e-13 18.000000000000227 1 0 0 
1 765.67499999999995 -2.2737367544323206e-13 2.2737367544323206e-13 0 2.2204460492503128e-16 1 
1 -14.825000000000003 -2.2737367544323206e-13 12.000000000000227 -1 0 0 
1 -14.325000000000003 723.89999999999986 18.000000000000227 1 0 0 
1 765.67499999999995 723.89999999999986 2.2737367544323206e-13 0 2.2204460492503128e-16 1 
1 691.17499999999995 723.89999999999986 12.000000000000227 -1 0 0 
1 765.67499999999995 724.39999999999986 12.000000000000227 0 -1 2.2204460492503128e-16 
1 765.67499999999995 723.89999999999986 18.000000000000227 0 -1 2.2204460492503128e-16 
1 3.6750000000000256 357.78777623173266 11.999999999999773 0 1 -2.2204460492503128e-16 
1 -8.8250000000000028 17.999999999999773 12.000000000000227 -1 -0 0 
1 747.67499999999995 357.78777623173289 11.999999999999773 0 1 -2.2204460492503128e-16 
1 310.17500000000001 705.89999999999986 12.000000000000227 -1 -0 0 
1 3.6750000000000256 705.89999999999975 -121.21699606197126 0 -2.2204460492503128e-16 -1 
1 3.6750000000000256 538.7627762317328 2.2737367544323206e-13 0 1 -2.2204460492503128e-16 
1 3.6750000000000256 17.999999999999773 -166.61995917842387 0 -2.2204460492503128e-16 -1 
1 -14.325000000000003 17.999999999999773 2.2737367544323206e-13 1 0 0 
1 747.67499999999995 17.999999999999773 -166.61995917842387 0 -2.2204460492503128e-16 -1 
1 747.67499999999995 705.89999999999975 -121.21699606197126 0 -2.2204460492503128e-16 -1 
1 -14.325000000000003 705.89999999999986 2.2737367544323206e-13 1 0 0 
1 747.67499999999995 538.7627762317328 2.2737367544323206e-13 0 1 -2.2204460492503128e-16 
1 9.6749999999999972 58.799999999999727 18.000000000000227 1 0 0 
1 33.674999999999997 695.3499999999998 18.000000000000227 0 1 -2.2204460492503128e-16 
1 33.674999999999997 304.79999999999984 18.000000000000227 1 0 0 
1 63.674999999999997 334.79999999999984 18.000000000000227 0 -1 2.2204460492503128e-16 
1 33.674999999999997 334.79999999999984 18.000000000000227 1 0 0 
1 33.674999999999997 695.3499999999998 18.000000000000227 0 1 -2.2204460492503128e-16 
1 9.6749999999999972 666.79999999999984 18.000000000000227 1 0 0 
1 717.67499999999995 695.3499999999998 18.000000000000227 0 1 -2.2204460492503128e-16 
1 717.67499999999995 334.79999999999984 18.000000000000227 -1 0 0 
1 687.67499999999995 334.79999999999984 18.000000000000227 0 -1 2.2204460492503128e-16 
1 717.67499999999995 304.79999999999984 18.000000000000227 -1 0 0 
1 717.67499999999995 695.3499999999998 18.000000000000227 0 1 -2.2204460492503128e-16 
1 33.674999999999997 58.799999999999727 -0.99999999999977263 0 2.2204460492503128e-16 1 
1 717.67499999999995 58.799999999999727 -0.99999999999977263 0 2.2204460492503128e-16 1 
1 9.6749999999999972 58.799999999999727 2.2737367544323206e-13 1 0 0 
1 717.67499999999995 304.79999999999984 2.2737367544323206e-13 0 2.2204460492503128e-16 1 
1 717.67499999999995 695.3499999999998 2.2737367544323206e-13 0 1 -2.2204460492503128e-16 
1 33.674999999999997 304.79999999999984 2.2737367544323206e-13 0 2.2204460492503128e-16 1 
1 33.674999999999997 695.3499999999998 2.2737367544323206e-13 0 1 -2.2204460492503128e-16 
1 687.67499999999995 304.79999999999984 2.2737367544323206e-13 0 2.2204460492503128e-16 1 
1 717.67499999999995 304.79999999999984 2.2737367544323206e-13 -1 0 0 
1 687.67499999999995 334.79999999999984 2.2737367544323206e-13 0 -1 2.2204460492503128e-16 
1 687.67499999999995 334.79999999999984 2.2737367544323206e-13 0 2.2204460492503128e-16 1 
1 717.67499999999995 334.79999999999984 2.2737367544323206e-13 0 2.2204460492503128e-16 1 
1 717.67499999999995 666.79999999999984 -0.99999999999977263 0 2.2204460492503128e-16 1 
1 717.67499999999995 695.3499999999998 2.2737367544323206e-13 0 1 -2.2204460492503128e-16 
1 33.674999999999997 666.79999999999984 -0.99999999999977263 0 2.2204460492503128e-16 1 
1 9.6749999999999972 666.79999999999984 2.2737367544323206e-13 1 0 0 
1 33.674999999999997 334.79999999999984 2.2737367544323206e-13 0 2.2204460492503128e-16 1 
1 33.674999999999997 695.3499999999998 2.2737367544323206e-13 0 1 -2.2204460492503128e-16 
1 717.67499999999995 334.79999999999984 2.2737367544323206e-13 -1 0 0 
1 63.674999999999997 304.79999999999984 2.2737367544323206e-13 0 2.2204460492503128e-16 1 
1 33.674999999999997 304.79999999999984 2.2737367544323206e-13 1 0 0 
1 63.674999999999997 334.79999999999984 2.2737367544323206e-13 0 2.2204460492503128e-16 1 
1 33.674999999999997 334.79999999999984 2.2737367544323206e-13 1 0 0 
1 63.674999999999997 334.79999999999984 2.2737367544323206e-13 0 -1 2.2204460492503128e-16 
Polygon3D 0
PolygonOnTriangulations 0
Surfaces 23
1 -14.325000000000003 723.89999999999986 2.2737367544323206e-13 1 0 0 0 -1 2.2204460492503128e-16 0 -2.2204460492503128e-16 -1 
1 -14.325000000000003 -2.2737367544323206e-13 2.2737367544323206e-13 0 -1 2.2204460492503128e-16 1 0 0 0 2.2204460492503128e-16 1 
1 -14.325000000000003 723.89999999999986 2.2737367544323206e-13 0 -1 2.2204460492503128e-16 1 0 0 0 2.2204460492503128e-16 1 
1 765.67499999999995 723.89999999999986 2.2737367544323206e-13 1 0 0 0 -1 2.2204460492503128e-16 0 -2.2204460492503128e-16 -1 
1 375.67500000000001 361.94999999999982 12.000000000000455 -0 -2.2204460492503128e-16 -1 0 1 -2.2204460492503128e-16 1 0 0 
1 -14.324999999999974 353.62555246346551 -98.333992123942835 1 0 0 0 -1 2.2204460492503128e-16 0 -2.2204460492503128e-16 -1 
1 -14.325000000000003 17.999999999999773 -234.9059262329049 0 -1 2.2204460492503128e-16 1 0 0 0 2.2204460492503128e-16 1 
1 -14.325000000000003 705.89999999999975 -144.09999999999968 0 -1 2.2204460492503128e-16 1 0 0 0 2.2204460492503128e-16 1 
1 747.67499999999995 353.62555246346551 -98.333992123942835 1 0 0 0 -1 2.2204460492503128e-16 0 -2.2204460492503128e-16 -1 
1 -14.325000000000003 723.89999999999986 18.000000000000227 0 2.2204460492503128e-16 1 0 -1 2.2204460492503128e-16 1 0 0 
1 33.674999999999997 58.799999999999727 -0.99999999999977263 0 -1 2.2204460492503128e-16 1 0 0 0 2.2204460492503128e-16 1 
1 717.67499999999995 666.79999999999984 -0.99999999999977263 1 0 0 0 -1 2.2204460492503128e-16 0 -2.2204460492503128e-16 -1 
1 33.674999999999997 666.79999999999984 -0.99999999999977263 1 0 0 0 -1 2.2204460492503128e-16 0 -2.2204460492503128e-16 -1 
1 717.67499999999995 304.79999999999984 2.2737367544323206e-13 0 -1 2.2204460492503128e-16 -1 0 0 0 2.2204460492503128e-16 1 
1 687.67499999999995 334.79999999999984 2.2737367544323206e-13 -1 0 0 0 -1 2.2204460492503128e-16 -0 -2.2204460492503128e-16 -1 
1 717.67499999999995 666.79999999999984 -0.99999999999977263 1 0 0 0 -1 2.2204460492503128e-16 0 -2.2204460492503128e-16 -1 
1 33.674999999999997 666.79999999999984 -0.99999999999977263 0 -1 2.2204460492503128e-16 1 0 0 0 2.2204460492503128e-16 1 
1 33.674999999999997 666.79999999999984 -0.99999999999977263 1 0 0 0 -1 2.2204460492503128e-16 0 -2.2204460492503128e-16 -1 
1 717.67499999999995 334.79999999999984 2.2737367544323206e-13 0 -1 2.2204460492503128e-16 -1 0 0 0 2.2204460492503128e-16 1 
1 33.674999999999997 304.79999999999984 2.2737367544323206e-13 0 -1 2.2204460492503128e-16 1 0 0 0 2.2204460492503128e-16 1 
1 33.674999999999997 334.79999999999984 2.2737367544323206e-13 0 -1 2.2204460492503128e-16 1 0 0 0 2.2204460492503128e-16 1 
1 63.674999999999997 334.79999999999984 2.2737367544323206e-13 1 0 0 0 -1 2.2204460492503128e-16 0 -2.2204460492503128e-16 -1 
1 -14.325000000000003 723.89999999999986 2.2737367544323206e-13 0 2.2204460492503128e-16 1 0 -1 2.2204460492503128e-16 1 0 0 
Triangulations 0

TShapes 152
Ve
1.5e-07
-1.4210854715202e-14 723.9 12.0000000000002
0 0

0101101
*
Ve
1.5e-07
-1.4210854715202e-14 -2.27373675443232e-13 12.0000000000002
0 0

0101101
*
Ed
 1.5e-07 1 1 0
1  1 0 0.5 724.4
0

0101000
+152 5 -151 5 *
Ve
1e-07
-1.4210854715202e-14 -2.27373675443232e-13 18.0000000000002
0 0

0101101
*
Ed
 1e-07 1 1 0
1  2 0 12 18
0

0101000
+151 6 -149 6 *
Ve
1e-07
-1.4210854715202e-14 723.9 18.0000000000002
0 0

0101101
*
Ed
 1e-07 1 1 0
1  3 0 0 723.9
0

0101000
-149 6 +147 6 *
Ed
 1e-07 1 1 0
1  4 0 12 18
0

0101000
+152 6 -147 6 *
Wi

0101100
-150 4 -148 0 +146 0 +145 0 *
Fa
0  1e-07 1 0

0111000
+144 0 *
Ve
1e-07
780 -2.27373675443232e-13 18.0000000000002
0 0

0101101
*
Ed
 1e-07 1 1 0
1  5 0 0 780
0

0101000
-142 6 +149 6 *
Ve
1.5e-07
780 -2.27373675443232e-13 12.0000000000002
0 0

0101101
*
Ed
 1e-07 1 1 0
1  6 0 12 18
0

0101000
+140 6 -142 6 *
Ed
 1e-07 1 1 0
1  7 0 -780.5 -0.5
0

0101000
+140 6 -151 6 *
Wi

0101000
-148 0 -141 0 +139 0 -138 0 *
Fa
0  1e-07 2 0

0111000
+137 0 *
Ve
1e-07
780 723.9 18.0000000000002
0 0

0101101
*
Ed
 1e-07 1 1 0
1  8 0 0 780
0

0101000
-135 6 +147 6 *
Ve
1.5e-07
780 723.9 12.0000000000002
0 0

0101101
*
Ed
 1e-07 1 1 0
1  9 0 12 18
0

0101000
+133 6 -135 6 *
Ed
 1e-07 1 1 0
1  10 0 -74.5 705.5
0

0101000
+133 6 -152 6 *
Wi

0101000
-145 0 -134 0 +132 0 -131 0 *
Fa
0  1e-07 3 0

0111000
+130 0 *
Ed
 1.5e-07 1 1 0
1  11 0 0.5 724.4
0

0101000
+133 8 -140 8 *
Ed
 1e-07 1 1 0
1  12 0 0 723.9
0

0101000
-142 6 +135 6 *
Wi

0101100
-128 7 -139 0 +127 0 +132 0 *
Fa
0  1e-07 4 0

0111000
+126 0 *
Wi

0101000
-131 0 +128 7 +138 0 -150 4 *
Ve
2e-07
18 17.9999999999998 11.9999999999998
0 0

0101101
*
Ve
2e-07
18 705.9 11.9999999999998
0 0

0101101
*
Ed
 2e-07 1 1 0
1  13 0 -339.787776231733 348.112223768267
0

0101000
+123 5 -122 5 *
Ve
2e-07
762 17.9999999999998 11.9999999999998
0 0

0101101
*
Ed
 1.5e-07 1 1 0
1  14 0 -756.5 -12.5
0

0101000
+120 10 -123 10 *
Ve
2e-07
762 705.9 11.9999999999998
0 0

0101101
*
Ed
 2e-07 1 1 0
1  15 0 -339.787776231733 348.112223768267
0

0101000
+120 8 -118 8 *
Ed
 1.5e-07 1 1 0
1  16 0 -437.5 306.5
0

0101000
+118 12 -122 12 *
Wi

0101100
-121 4 -119 9 +117 7 +116 11 *
Fa
0  1.5e-07 5 0

0111000
+124 0 +115 0 *
Ve
1.5e-07
18 705.9 2.27373675443232e-13
0 0

0101101
*
Ed
 1.5e-07 1 1 0
1  17 0 -133.216996061971 -121.216996061971
0

0101000
+122 5 -113 5 *
Ve
1.5e-07
18 17.9999999999998 2.27373675443232e-13
0 0

0101101
*
Ed
 1.5e-07 1 1 0
1  18 0 -520.762776231733 167.137223768267
0

0101000
+111 6 -113 6 *
Ed
 1.5e-07 1 1 0
1  19 0 -178.619959178424 -166.619959178424
0

0101000
+123 5 -111 5 *
Wi

0101100
-121 4 -112 4 +110 0 +109 4 *
Fa
0  1e-07 6 14

0111000
+108 0 *
Ve
1.5e-07
762 17.9999999999998 2.27373675443232e-13
0 0

0101101
*
Ed
 1.5e-07 1 1 0
1  20 0 18 762
0

0101000
+111 6 -106 6 *
Ed
 1.5e-07 1 1 0
1  21 0 -178.619959178424 -166.619959178424
0

0101000
+120 8 -106 8 *
Wi

0101100
+105 0 +109 4 +119 9 -104 7 *
Fa
0  1e-07 7 9

0111000
+103 0 *
Ve
1.5e-07
762 705.9 2.27373675443232e-13
0 0

0101101
*
Ed
 1.5e-07 1 1 0
1  22 0 -133.216996061971 -121.216996061971
0

0101000
+118 8 -101 8 *
Ed
 1.5e-07 1 1 0
1  23 0 18 762
0

0101000
+113 6 -101 6 *
Wi

0101100
-100 7 +99 0 +112 4 +116 11 *
Fa
0  1e-07 8 11

0111000
+98 0 *
Ed
 1.5e-07 1 1 0
1  24 0 -520.762776231733 167.137223768267
0

0101000
+106 6 -101 6 *
Wi

0101100
-117 7 -100 7 +96 0 +104 7 *
Fa
0  1e-07 9 7

0111000
+95 0 *
Wi

0101100
-134 0 +146 0 +141 0 -127 0 *
Ve
1.5e-07
48 58.7999999999997 18.0000000000002
0 0

0101101
*
Ve
1.5e-07
732 58.7999999999997 18.0000000000002
0 0

0101101
*
Ed
 1.5e-07 1 1 0
1  25 0 24 708
0

0101000
+92 6 -91 6 *
Ve
1.5e-07
48 304.8 18.0000000000002
0 0

0101101
*
Ed
 1.5e-07 1 1 0
1  26 0 -636.55 -390.55
0

0101000
+92 6 -89 6 *
Ve
1e-07
78 304.8 18.0000000000002
0 0

0101101
*
Ed
 1e-07 1 1 0
1  27 0 0 30
0

0101000
+89 6 -87 6 *
Ve
1e-07
78 334.8 18.0000000000002
0 0

0101101
*
Ed
 1e-07 1 1 0
1  28 0 0 30
0

0101000
-87 6 +85 6 *
Ve
1.5e-07
48 334.8 18.0000000000002
0 0

0101101
*
Ed
 1e-07 1 1 0
1  29 0 0 30
0

0101000
+83 6 -85 6 *
Ve
1.5e-07
48 666.8 18.0000000000002
0 0

0101101
*
Ed
 1.5e-07 1 1 0
1  30 0 -360.55 -28.55
0

0101000
+83 6 -81 6 *
Ve
1.5e-07
732 666.8 18.0000000000002
0 0

0101101
*
Ed
 1.5e-07 1 1 0
1  31 0 24 708
0

0101000
+81 6 -79 6 *
Ve
1.5e-07
732 334.8 18.0000000000002
0 0

0101101
*
Ed
 1.5e-07 1 1 0
1  32 0 -360.55 -28.55
0

0101000
+77 6 -79 6 *
Ve
1e-07
702 334.8 18.0000000000002
0 0

0101101
*
Ed
 1e-07 1 1 0
1  33 0 0 30
0

0101000
+77 16 -75 16 *
Ve
1e-07
702 304.8 18.0000000000002
0 0

0101101
*
Ed
 1e-07 1 1 0
1  34 0 0 30
0

0101000
-73 16 +75 16 *
Ve
1.5e-07
732 304.8 18.0000000000002
0 0

0101101
*
Ed
 1e-07 1 1 0
1  35 0 0 30
0

0101000
+71 16 -73 16 *
Ed
 1.5e-07 1 1 0
1  36 0 -636.55 -390.55
0

0101000
+91 6 -71 6 *
Wi

0101100
-90 0 +88 0 +86 0 -84 0 -82 0 +80 0 +78 0 -76 0 +74 15 +72 15 
-70 15 -69 0 *
Fa
0  1e-07 10 0

0111000
+93 0 +68 0 *
Ve
1.5e-07
48 58.7999999999997 2.27373675443232e-13
0 0

0101101
*
Ed
 1e-07 1 1 0
1  37 0 1 19
0

0101000
+66 6 -92 6 *
Ve
1.5e-07
732 58.7999999999997 2.27373675443232e-13
0 0

0101101
*
Ed
 1e-07 1 1 0
1  38 0 1 19
0

0101000
+64 6 -91 6 *
Ed
 1.5e-07 1 1 0
1  39 0 24 708
0

0101000
+66 6 -64 6 *
Wi

0101100
-65 0 -90 0 +63 0 +62 0 *
Fa
0  1e-07 11 0

0111000
+61 0 *
Ve
1.5e-07
732 304.8 2.27373675443232e-13
0 0

0101101
*
Ed
 1e-07 1 1 0
1  40 0 0 18
0

0101000
+59 16 -71 16 *
Ed
 1.5e-07 1 1 0
1  41 0 -636.55 -390.55
0

0101000
+64 6 -59 6 *
Wi

0101100
-63 0 -69 0 +58 15 +57 0 *
Fa
0  1e-07 12 0

0111000
+56 0 *
Ve
1.5e-07
48 304.8 2.27373675443232e-13
0 0

0101101
*
Ed
 1e-07 1 1 0
1  42 0 0 18
0

0101000
+54 6 -89 6 *
Ed
 1.5e-07 1 1 0
1  43 0 -636.55 -390.55
0

0101000
+66 6 -54 6 *
Wi

0101100
-65 0 -88 0 +53 0 +52 0 *
Fa
0  1e-07 13 0

0111000
+51 0 *
Ve
1e-07
702 304.8 2.27373675443232e-13
0 0

0101101
*
Ed
 1e-07 1 1 0
1  44 0 0 18
0

0101000
-73 16 +49 16 *
Ed
 1e-07 1 1 0
1  45 0 0 30
0

0101000
+59 16 -49 16 *
Wi

0101100
-58 15 -70 15 +48 15 +47 15 *
Fa
0  1e-07 14 15

0111000
+46 0 *
Ve
1e-07
702 334.8 2.27373675443232e-13
0 0

0101101
*
Ed
 1e-07 1 1 0
1  46 0 0 30
0

0101000
-49 16 +44 16 *
Ed
 1e-07 1 1 0
1  47 0 0 18
0

0101000
-75 16 +44 16 *
Wi

0101100
-43 0 -48 0 +72 0 +42 0 *
Fa
0  1e-07 15 0

0111000
+41 0 *
Ve
1.5e-07
732 334.8 2.27373675443232e-13
0 0

0101101
*
Ed
 1e-07 1 1 0
1  48 0 0 18
0

0101000
+39 16 -77 16 *
Ve
1.5e-07
732 666.8 2.27373675443232e-13
0 0

0101101
*
Ed
 1e-07 1 1 0
1  49 0 1 19
0

0101000
+37 6 -79 6 *
Ed
 1.5e-07 1 1 0
1  50 0 -360.55 -28.55
0

0101000
+39 6 -37 6 *
Wi

0101100
-38 15 -76 0 +36 0 +35 0 *
Fa
0  1e-07 16 0

0111000
+34 0 *
Ve
1.5e-07
48 666.8 2.27373675443232e-13
0 0

0101101
*
Ed
 1e-07 1 1 0
1  51 0 1 19
0

0101000
+32 6 -81 6 *
Ed
 1.5e-07 1 1 0
1  52 0 24 708
0

0101000
+32 6 -37 6 *
Wi

0101100
-31 0 -78 0 +36 0 +30 0 *
Fa
0  1e-07 17 0

0111000
+29 0 *
Ve
1.5e-07
48 334.8 2.27373675443232e-13
0 0

0101101
*
Ed
 1e-07 1 1 0
1  53 0 0 18
0

0101000
+27 6 -83 6 *
Ed
 1.5e-07 1 1 0
1  54 0 -360.55 -28.55
0

0101000
+27 6 -32 6 *
Wi

0101100
-26 0 -80 0 +31 0 +25 0 *
Fa
0  1e-07 18 0

0111000
+24 0 *
Ed
 1e-07 1 1 0
1  55 0 0 30
0

0101000
+39 16 -44 16 *
Wi

0101100
-38 15 -74 15 +42 15 +22 15 *
Fa
0  1e-07 19 15

0111000
+21 0 *
Ve
1e-07
78 304.8 2.27373675443232e-13
0 0

0101101
*
Ed
 1e-07 1 1 0
1  56 0 0 18
0

0101000
-87 6 +19 6 *
Ed
 1e-07 1 1 0
1  57 0 0 30
0

0101000
+54 6 -19 6 *
Wi

0101100
-53 0 -86 0 +18 0 +17 0 *
Fa
0  1e-07 20 0

0111000
+16 0 *
Ve
1e-07
78 334.8 2.27373675443232e-13
0 0

0101101
*
Ed
 1e-07 1 1 0
1  58 0 0 18
0

0101000
-85 6 +14 6 *
Ed
 1e-07 1 1 0
1  59 0 0 30
0

0101000
+27 6 -14 6 *
Wi

0101100
-26 0 -82 0 +13 0 +12 0 *
Fa
0  1e-07 21 0

0111000
+11 0 *
Ed
 1e-07 1 1 0
1  60 0 0 30
0

0101000
-19 6 +14 6 *
Wi

0101100
-9 0 -18 0 +84 0 +13 0 *
Fa
0  1e-07 22 0

0111000
+8 0 *
Wi

0101100
+99 0 -96 0 -105 0 +110 0 *
Wi

0101100
+52 0 +17 0 -9 0 -12 0 +25 0 +30 0 -35 0 +22 15 +43 15 -47 15 
-57 0 -62 0 *
Fa
0  1.5e-07 23 0

0111000
-6 0 +5 0 *
Sh

0101000
-143 0 +136 0 -129 0 +125 0 +114 0 -107 0 +102 0 -97 0 +94 0 +67 0 
-60 0 -55 0 +50 0 -45 0 -40 15 -33 0 +28 0 +23 0 +20 0 +15 0 
-10 0 +7 0 -4 0 *
So

0100000
+3 0 *
Co

1100000
+2 0 *

+1 3 