DBRep_DrawableShape

CASCADE Topology V1, (c) Matra-Datavision
Locations 4
1
              1               0               0          14.325 
              0               1               0               0 
              0               0               1               0 
1
              1               0               0               0 
              0               1               0               0 
              0               0               1               0 
2  1 1 2 1 0
2  1 -1 0
Curve2ds 40
1 0 1.0999999999999091 1 0 
1 0 1.0999999999999091 1 0 
1 0 1.0999999999999091 1 0 
1 0 1.0999999999999091 1 0 
1 0 1.0999999999999091 1 0 
1 0 1.0999999999999091 1 0 
1 0 1.0999999999999091 1 0 
1 0 1.0999999999999091 1 0 
1 0 1.0999999999999091 1 0 
1 0 1.0999999999999091 1 0 
1 0 13.099999999999909 1 0 
1 0 13.099999999999909 1 0 
1 0 13.099999999999909 1 0 
1 0 13.099999999999909 1 0 
1 0 13.099999999999909 1 0 
1 0 13.099999999999909 1 0 
1 0 13.099999999999909 1 0 
1 0 13.099999999999909 1 0 
1 0 13.099999999999909 1 0 
1 0 13.099999999999909 1 0 
1 6.2831853071795862 -0 0 1 
1 0 -0 0 1 
1 6.2831853071795862 -0 0 1 
1 0 -0 0 1 
1 6.2831853071795862 -0 0 1 
1 0 -0 0 1 
1 6.2831853071795862 -0 0 1 
1 0 -0 0 1 
1 6.2831853071795862 -0 0 1 
1 0 -0 0 1 
1 6.2831853071795862 -0 0 1 
1 0 -0 0 1 
1 6.2831853071795862 -0 0 1 
1 0 -0 0 1 
1 6.2831853071795862 -0 0 1 
1 0 -0 0 1 
1 6.2831853071795862 -0 0 1 
1 0 -0 0 1 
1 6.2831853071795862 -0 0 1 
1 0 -0 0 1 
Curves 42
1 -14.325000000000045 628.00000000000034 0 0 -1 2.2204460492503131e-16 
1 -14.325000000000045 2.2737367544323206e-13 0 0 2.2204460492503131e-16 1 
1 -14.325000000000045 628.00000000000034 12 0 -1 2.2204460492503131e-16 
1 -14.325000000000045 628.00000000000034 0 0 2.2204460492503131e-16 1 
1 -14.325000000000045 628.00000000000034 0 1 0 0 
1 336.67499999999995 628.00000000000034 0 0 -1 2.2204460492503131e-16 
1 -14.325000000000045 2.2737367544323206e-13 0 1 0 0 
2 77.174999999999955 586.50000000000034 0 -0 2.2204460492503131e-16 1 0 -1 2.2204460492503131e-16 1 0 0 2.25
2 77.174999999999955 481.50000000000034 0 -0 2.2204460492503131e-16 1 0 -1 2.2204460492503131e-16 1 0 0 2.25
2 77.174999999999955 164.50000000000023 0 -0 2.2204460492503131e-16 1 0 -1 2.2204460492503131e-16 1 0 0 2.25
2 77.174999999999955 59.500000000000227 0 -0 2.2204460492503131e-16 1 0 -1 2.2204460492503131e-16 1 0 0 2.25
2 129.67499999999995 534.00000000000034 0 -0 2.2204460492503131e-16 1 0 -1 2.2204460492503131e-16 1 0 0 58
2 182.17499999999995 586.50000000000034 0 -0 2.2204460492503131e-16 1 0 -1 2.2204460492503131e-16 1 0 0 2.25
2 182.17499999999995 481.50000000000034 0 -0 2.2204460492503131e-16 1 0 -1 2.2204460492503131e-16 1 0 0 2.25
2 129.67499999999995 112.00000000000023 0 -0 2.2204460492503131e-16 1 0 -1 2.2204460492503131e-16 1 0 0 58
2 182.17499999999995 164.50000000000023 0 -0 2.2204460492503131e-16 1 0 -1 2.2204460492503131e-16 1 0 0 2.25
2 182.17499999999995 59.500000000000227 0 -0 2.2204460492503131e-16 1 0 -1 2.2204460492503131e-16 1 0 0 2.25
1 -14.325000000000045 2.2737367544323206e-13 12 1 0 0 
1 336.67499999999995 2.2737367544323206e-13 0 0 2.2204460492503131e-16 1 
1 -14.325000000000045 628.00000000000034 12 1 0 0 
1 336.67499999999995 628.00000000000034 12 0 -1 2.2204460492503131e-16 
2 77.174999999999955 586.50000000000034 12 -0 2.2204460492503131e-16 1 0 -1 2.2204460492503131e-16 1 0 0 2.25
2 77.174999999999955 481.50000000000034 12 -0 2.2204460492503131e-16 1 0 -1 2.2204460492503131e-16 1 0 0 2.25
2 77.174999999999955 164.50000000000023 12 -0 2.2204460492503131e-16 1 0 -1 2.2204460492503131e-16 1 0 0 2.25
2 77.174999999999955 59.500000000000227 12 -0 2.2204460492503131e-16 1 0 -1 2.2204460492503131e-16 1 0 0 2.25
2 129.67499999999995 534.00000000000034 12 -0 2.2204460492503131e-16 1 0 -1 2.2204460492503131e-16 1 0 0 58
2 182.17499999999995 586.50000000000034 12 -0 2.2204460492503131e-16 1 0 -1 2.2204460492503131e-16 1 0 0 2.25
2 182.17499999999995 481.50000000000034 12 -0 2.2204460492503131e-16 1 0 -1 2.2204460492503131e-16 1 0 0 2.25
2 129.67499999999995 112.00000000000023 12 -0 2.2204460492503131e-16 1 0 -1 2.2204460492503131e-16 1 0 0 58
2 182.17499999999995 164.50000000000023 12 -0 2.2204460492503131e-16 1 0 -1 2.2204460492503131e-16 1 0 0 2.25
2 182.17499999999995 59.500000000000227 12 -0 2.2204460492503131e-16 1 0 -1 2.2204460492503131e-16 1 0 0 2.25
1 336.67499999999995 628.00000000000034 0 0 2.2204460492503131e-16 1 
1 77.174999999999955 584.25000000000034 -1.0999999999999091 0 2.2204460492503131e-16 1 
1 77.174999999999955 479.25000000000034 -1.0999999999999091 0 2.2204460492503131e-16 1 
1 77.174999999999955 162.25000000000023 -1.0999999999999091 0 2.2204460492503131e-16 1 
1 77.174999999999955 57.250000000000227 -1.0999999999999091 0 2.2204460492503131e-16 1 
1 129.67499999999995 476.00000000000034 -1.0999999999999091 0 2.2204460492503131e-16 1 
1 182.17499999999995 584.25000000000034 -1.0999999999999091 0 2.2204460492503131e-16 1 
1 182.17499999999995 479.25000000000034 -1.0999999999999091 0 2.2204460492503131e-16 1 
1 129.67499999999995 54.000000000000227 -1.0999999999999091 0 2.2204460492503131e-16 1 
1 182.17499999999995 162.25000000000023 -1.0999999999999091 0 2.2204460492503131e-16 1 
1 182.17499999999995 57.250000000000227 -1.0999999999999091 0 2.2204460492503131e-16 1 
Polygon3D 0
PolygonOnTriangulations 0
Surfaces 16
1 -14.325000000000045 628.00000000000034 0 1 0 0 0 -1 2.2204460492503131e-16 0 -2.2204460492503131e-16 -1 
1 -14.325000000000045 628.00000000000034 0 0 2.2204460492503131e-16 1 0 -1 2.2204460492503131e-16 1 0 0 
2 77.174999999999955 586.50000000000034 -1.0999999999999091 0 2.2204460492503131e-16 1 0 -1 2.2204460492503131e-16 1 0 0 2.25
2 77.174999999999955 481.50000000000034 -1.0999999999999091 0 2.2204460492503131e-16 1 0 -1 2.2204460492503131e-16 1 0 0 2.25
2 77.174999999999955 164.50000000000023 -1.0999999999999091 0 2.2204460492503131e-16 1 0 -1 2.2204460492503131e-16 1 0 0 2.25
2 77.174999999999955 59.500000000000227 -1.0999999999999091 0 2.2204460492503131e-16 1 0 -1 2.2204460492503131e-16 1 0 0 2.25
2 129.67499999999995 534.00000000000034 -1.0999999999999091 0 2.2204460492503131e-16 1 0 -1 2.2204460492503131e-16 1 0 0 58
2 182.17499999999995 586.50000000000034 -1.0999999999999091 0 2.2204460492503131e-16 1 0 -1 2.2204460492503131e-16 1 0 0 2.25
2 182.17499999999995 481.50000000000034 -1.0999999999999091 0 2.2204460492503131e-16 1 0 -1 2.2204460492503131e-16 1 0 0 2.25
2 129.67499999999995 112.00000000000023 -1.0999999999999091 0 2.2204460492503131e-16 1 0 -1 2.2204460492503131e-16 1 0 0 58
2 182.17499999999995 164.50000000000023 -1.0999999999999091 0 2.2204460492503131e-16 1 0 -1 2.2204460492503131e-16 1 0 0 2.25
2 182.17499999999995 59.500000000000227 -1.0999999999999091 0 2.2204460492503131e-16 1 0 -1 2.2204460492503131e-16 1 0 0 2.25
1 -14.325000000000045 2.2737367544323206e-13 0 0 -1 2.2204460492503131e-16 1 0 0 0 2.2204460492503131e-16 1 
1 -14.325000000000045 628.00000000000034 12 0 2.2204460492503131e-16 1 0 -1 2.2204460492503131e-16 1 0 0 
1 -14.325000000000045 628.00000000000034 0 0 -1 2.2204460492503131e-16 1 0 0 0 2.2204460492503131e-16 1 
1 336.67499999999995 628.00000000000034 0 1 0 0 0 -1 2.2204460492503131e-16 0 -2.2204460492503131e-16 -1 
Triangulations 0

TShapes 125
Ve
1e-07
-5.6843418860808e-14 2.27373675443232e-13 0
0 0

0101101
*
Ve
1e-07
-5.6843418860808e-14 628 0
0 0

0101101
*
Ed
 1e-07 1 1 0
1  1 0 0 628
0

0101000
-125 4 +124 4 *
Ve
1e-07
-5.6843418860808e-14 2.27373675443232e-13 12
0 0

0101101
*
Ed
 1e-07 1 1 0
1  2 0 0 12
0

0101000
-122 4 +125 4 *
Ve
1e-07
-5.6843418860808e-14 628 12
0 0

0101101
*
Ed
 1e-07 1 1 0
1  3 0 0 628
0

0101000
-122 4 +120 4 *
Ed
 1e-07 1 1 0
1  4 0 0 12
0

0101000
-120 4 +124 4 *
Wi

0101100
-123 0 -121 0 +119 0 +118 0 *
Fa
0  1e-07 1 0

0111000
+117 0 *
Ve
1e-07
351 628 0
0 0

0101101
*
Ed
 1e-07 1 1 0
1  5 0 0 351
0

0101000
-115 4 +124 4 *
Ve
1e-07
351 2.27373675443232e-13 0
0 0

0101101
*
Ed
 1e-07 1 1 0
1  6 0 0 628
0

0101000
-113 4 +115 4 *
Ed
 1e-07 1 1 0
1  7 0 0 351
0

0101000
-113 4 +125 4 *
Wi

0101100
-114 0 -112 0 +123 0 +111 0 *
Ve
1e-07
91.4999999999999 584.25 0
0 0

0101101
*
Ed
 1e-07 1 1 0
1  8 0 0 6.28318530717959
2  1 3 0 0 6.28318530717959
0

0101100
+109 4 -109 4 *
Wi

0101100
-108 0 *
Ve
1e-07
91.4999999999999 479.25 0
0 0

0101101
*
Ed
 1e-07 1 1 0
1  9 0 0 6.28318530717959
2  2 4 0 0 6.28318530717959
0

0101100
+106 4 -106 4 *
Wi

0101100
-105 0 *
Ve
1e-07
91.4999999999999 162.25 0
0 0

0101101
*
Ed
 1e-07 1 1 0
1  10 0 0 6.28318530717959
2  3 5 0 0 6.28318530717959
0

0101100
+103 4 -103 4 *
Wi

0101100
-102 0 *
Ve
1e-07
91.4999999999999 57.2500000000002 0
0 0

0101101
*
Ed
 1e-07 1 1 0
1  11 0 0 6.28318530717959
2  4 6 0 0 6.28318530717959
0

0101100
+100 4 -100 4 *
Wi

0101100
-99 0 *
Ve
1e-07
144 476 0
0 0

0101101
*
Ed
 1e-07 1 1 0
1  12 0 0 6.28318530717959
2  5 7 0 0 6.28318530717959
0

0101100
+97 4 -97 4 *
Wi

0101100
-96 0 *
Ve
1e-07
196.5 584.25 0
0 0

0101101
*
Ed
 1e-07 1 1 0
1  13 0 0 6.28318530717959
2  6 8 0 0 6.28318530717959
0

0101100
+94 4 -94 4 *
Wi

0101100
-93 0 *
Ve
1e-07
196.5 479.25 0
0 0

0101101
*
Ed
 1e-07 1 1 0
1  14 0 0 6.28318530717959
2  7 9 0 0 6.28318530717959
0

0101100
+91 4 -91 4 *
Wi

0101100
-90 0 *
Ve
1e-07
144 54.0000000000002 0
0 0

0101101
*
Ed
 1e-07 1 1 0
1  15 0 0 6.28318530717959
2  8 10 0 0 6.28318530717959
0

0101100
+88 4 -88 4 *
Wi

0101100
-87 0 *
Ve
1e-07
196.5 162.25 0
0 0

0101101
*
Ed
 1e-07 1 1 0
1  16 0 0 6.28318530717959
2  9 11 0 0 6.28318530717959
0

0101100
+85 4 -85 4 *
Wi

0101100
-84 0 *
Ve
1e-07
196.5 57.2500000000002 0
0 0

0101101
*
Ed
 1e-07 1 1 0
1  17 0 0 6.28318530717959
2  10 12 0 0 6.28318530717959
0

0101100
+82 4 -82 4 *
Wi

0101100
-81 0 *
Fa
0  1e-07 2 0

0111000
+110 0 +107 0 +104 0 +101 0 +98 0 +95 0 +92 0 +89 0 +86 0 +83 0 
+80 0 *
Ve
1e-07
351 2.27373675443232e-13 12
0 0

0101101
*
Ed
 1e-07 1 1 0
1  18 0 0 351
0

0101000
-78 4 +122 4 *
Ed
 1e-07 1 1 0
1  19 0 0 12
0

0101000
-78 4 +113 4 *
Wi

0101100
-121 0 -77 0 +76 0 +111 0 *
Fa
0  1e-07 13 0

0111000
+75 0 *
Ve
1e-07
351 628 12
0 0

0101101
*
Ed
 1e-07 1 1 0
1  20 0 0 351
0

0101000
-73 4 +120 4 *
Ed
 1e-07 1 1 0
1  21 0 0 628
0

0101000
-78 4 +73 4 *
Wi

0101100
-72 0 -71 0 +119 0 +77 0 *
Ve
1e-07
91.4999999999999 584.25 12
0 0

0101101
*
Ed
 1e-07 1 1 0
1  22 0 0 6.28318530717959
2  11 3 0 0 6.28318530717959
0

0101100
+69 4 -69 4 *
Wi

0101100
-68 0 *
Ve
1e-07
91.4999999999999 479.25 12
0 0

0101101
*
Ed
 1e-07 1 1 0
1  23 0 0 6.28318530717959
2  12 4 0 0 6.28318530717959
0

0101100
+66 4 -66 4 *
Wi

0101100
-65 0 *
Ve
1e-07
91.4999999999999 162.25 12
0 0

0101101
*
Ed
 1e-07 1 1 0
1  24 0 0 6.28318530717959
2  13 5 0 0 6.28318530717959
0

0101100
+63 4 -63 4 *
Wi

0101100
-62 0 *
Ve
1e-07
91.4999999999999 57.2500000000002 12
0 0

0101101
*
Ed
 1e-07 1 1 0
1  25 0 0 6.28318530717959
2  14 6 0 0 6.28318530717959
0

0101100
+60 4 -60 4 *
Wi

0101100
-59 0 *
Ve
1e-07
144 476 12
0 0

0101101
*
Ed
 1e-07 1 1 0
1  26 0 0 6.28318530717959
2  15 7 0 0 6.28318530717959
0

0101100
+57 4 -57 4 *
Wi

0101100
-56 0 *
Ve
1e-07
196.5 584.25 12
0 0

0101101
*
Ed
 1e-07 1 1 0
1  27 0 0 6.28318530717959
2  16 8 0 0 6.28318530717959
0

0101100
+54 4 -54 4 *
Wi

0101100
-53 0 *
Ve
1e-07
196.5 479.25 12
0 0

0101101
*
Ed
 1e-07 1 1 0
1  28 0 0 6.28318530717959
2  17 9 0 0 6.28318530717959
0

0101100
+51 4 -51 4 *
Wi

0101100
-50 0 *
Ve
1e-07
144 54.0000000000002 12
0 0

0101101
*
Ed
 1e-07 1 1 0
1  29 0 0 6.28318530717959
2  18 10 0 0 6.28318530717959
0

0101100
+48 4 -48 4 *
Wi

0101100
-47 0 *
Ve
1e-07
196.5 162.25 12
0 0

0101101
*
Ed
 1e-07 1 1 0
1  30 0 0 6.28318530717959
2  19 11 0 0 6.28318530717959
0

0101100
+45 4 -45 4 *
Wi

0101100
-44 0 *
Ve
1e-07
196.5 57.2500000000002 12
0 0

0101101
*
Ed
 1e-07 1 1 0
1  31 0 0 6.28318530717959
2  20 12 0 0 6.28318530717959
0

0101100
+42 4 -42 4 *
Wi

0101100
-41 0 *
Fa
0  1e-07 14 0

0111000
+70 0 +67 0 +64 0 +61 0 +58 0 +55 0 +52 0 +49 0 +46 0 +43 0 
+40 0 *
Ed
 1e-07 1 1 0
1  32 0 0 12
0

0101000
-73 4 +115 4 *
Wi

0101100
-118 0 -72 0 +38 0 +114 0 *
Fa
0  1e-07 15 0

0111000
+37 0 *
Wi

0101100
-112 0 -76 0 +71 0 +38 0 *
Fa
0  1e-07 16 0

0111000
+35 0 *
Ed
 1e-07 1 1 0
1  33 0 1.09999999999991 13.0999999999999
3  21 22CN 3 0 1.09999999999991 13.0999999999999
0

0101000
+109 4 -69 4 *
Wi

0101100
-68 0 +33 0 +108 0 -33 0 *
Fa
0  1e-07 3 0

0111000
+32 0 *
Ed
 1e-07 1 1 0
1  34 0 1.09999999999991 13.0999999999999
3  23 24CN 4 0 1.09999999999991 13.0999999999999
0

0101000
+106 4 -66 4 *
Wi

0101100
-65 0 +30 0 +105 0 -30 0 *
Fa
0  1e-07 4 0

0111000
+29 0 *
Ed
 1e-07 1 1 0
1  35 0 1.09999999999991 13.0999999999999
3  25 26CN 5 0 1.09999999999991 13.0999999999999
0

0101000
+103 4 -63 4 *
Wi

0101100
-62 0 +27 0 +102 0 -27 0 *
Fa
0  1e-07 5 0

0111000
+26 0 *
Ed
 1e-07 1 1 0
1  36 0 1.09999999999991 13.0999999999999
3  27 28CN 6 0 1.09999999999991 13.0999999999999
0

0101000
+100 4 -60 4 *
Wi

0101100
-59 0 +24 0 +99 0 -24 0 *
Fa
0  1e-07 6 0

0111000
+23 0 *
Ed
 1e-07 1 1 0
1  37 0 1.09999999999991 13.0999999999999
3  29 30CN 7 0 1.09999999999991 13.0999999999999
0

0101000
+97 4 -57 4 *
Wi

0101100
-56 0 +21 0 +96 0 -21 0 *
Fa
0  1e-07 7 0

0111000
+20 0 *
Ed
 1e-07 1 1 0
1  38 0 1.09999999999991 13.0999999999999
3  31 32CN 8 0 1.09999999999991 13.0999999999999
0

0101000
+94 4 -54 4 *
Wi

0101100
-53 0 +18 0 +93 0 -18 0 *
Fa
0  1e-07 8 0

0111000
+17 0 *
Ed
 1e-07 1 1 0
1  39 0 1.09999999999991 13.0999999999999
3  33 34CN 9 0 1.09999999999991 13.0999999999999
0

0101000
+91 4 -51 4 *
Wi

0101100
-50 0 +15 0 +90 0 -15 0 *
Fa
0  1e-07 9 0

0111000
+14 0 *
Ed
 1e-07 1 1 0
1  40 0 1.09999999999991 13.0999999999999
3  35 36CN 10 0 1.09999999999991 13.0999999999999
0

0101000
+88 4 -48 4 *
Wi

0101100
-47 0 +12 0 +87 0 -12 0 *
Fa
0  1e-07 10 0

0111000
+11 0 *
Ed
 1e-07 1 1 0
1  41 0 1.09999999999991 13.0999999999999
3  37 38CN 11 0 1.09999999999991 13.0999999999999
0

0101000
+85 4 -45 4 *
Wi

0101100
-44 0 +9 0 +84 0 -9 0 *
Fa
0  1e-07 11 0

0111000
+8 0 *
Ed
 1e-07 1 1 0
1  42 0 1.09999999999991 13.0999999999999
3  39 40CN 12 0 1.09999999999991 13.0999999999999
0

0101000
+82 4 -42 4 *
Wi

0101100
-41 0 +6 0 +81 0 -6 0 *
Fa
0  1e-07 12 0

0111000
+5 0 *
Sh

0101100
-116 0 -79 0 +74 0 +39 0 -36 0 +34 0 -31 0 -28 0 -25 0 -22 0 
-19 0 -16 0 -13 0 -10 0 -7 0 -4 0 *
So

0100000
+3 0 *
Co

1100000
+2 0 *

+1 3 