DBRep_DrawableShape

CASCADE Topology V1, (c) Matra-Datavision
Locations 4
1
              1               0               0          14.325 
              0               1               0               0 
              0               0               1               0 
1
              1               0               0               0 
              0               1               0               0 
              0               0               1               0 
2  1 1 2 1 0
2  1 -1 0
Curve2ds 0
Curves 12
1 -14.325000000000045 628.00000000000034 2.2737367544323206e-13 0 -1 2.2204460492503131e-16 
1 -14.325000000000045 2.2737367544323206e-13 2.2737367544323206e-13 0 2.2204460492503131e-16 1 
1 -14.325000000000045 628.00000000000034 14.000000000000227 0 -1 2.2204460492503131e-16 
1 -14.325000000000045 628.00000000000034 2.2737367544323206e-13 0 2.2204460492503131e-16 1 
1 8.6749999999999545 628.00000000000034 2.2737367544323206e-13 0 -1 2.2204460492503131e-16 
1 8.6749999999999545 2.2737367544323206e-13 2.2737367544323206e-13 0 2.2204460492503131e-16 1 
1 8.6749999999999545 628.00000000000034 14.000000000000227 0 -1 2.2204460492503131e-16 
1 8.6749999999999545 628.00000000000034 2.2737367544323206e-13 0 2.2204460492503131e-16 1 
1 -14.325000000000045 628.00000000000034 2.2737367544323206e-13 1 0 0 
1 -14.325000000000045 2.2737367544323206e-13 2.2737367544323206e-13 1 0 0 
1 -14.325000000000045 628.00000000000034 14.000000000000227 1 0 0 
1 -14.325000000000045 2.2737367544323206e-13 14.000000000000227 1 0 0 
Polygon3D 0
PolygonOnTriangulations 0
Surfaces 6
1 -14.325000000000045 628.00000000000034 2.2737367544323206e-13 1 0 0 0 -1 2.2204460492503131e-16 0 -2.2204460492503131e-16 -1 
1 8.6749999999999545 628.00000000000034 2.2737367544323206e-13 1 0 0 0 -1 2.2204460492503131e-16 0 -2.2204460492503131e-16 -1 
1 -14.325000000000045 628.00000000000034 2.2737367544323206e-13 0 2.2204460492503131e-16 1 0 -1 2.2204460492503131e-16 1 0 0 
1 -14.325000000000045 628.00000000000034 14.000000000000227 0 2.2204460492503131e-16 1 0 -1 2.2204460492503131e-16 1 0 0 
1 -14.325000000000045 628.00000000000034 2.2737367544323206e-13 0 -1 2.2204460492503131e-16 1 0 0 0 2.2204460492503131e-16 1 
1 -14.325000000000045 2.2737367544323206e-13 2.2737367544323206e-13 0 -1 2.2204460492503131e-16 1 0 0 0 2.2204460492503131e-16 1 
Triangulations 0

TShapes 34
Ve
1e-07
0 2.27373675443232e-13 2.27373675443232e-13
0 0

0101101
*
Ve
1e-07
0 628 2.27373675443232e-13
0 0

0101101
*
Ed
 1e-07 1 1 0
1  1 0 0 628
0

0101000
-34 4 +33 4 *
Ve
1e-07
0 2.27373675443232e-13 14.0000000000002
0 0

0101101
*
Ed
 1e-07 1 1 0
1  2 0 0 14
0

0101000
-31 4 +34 4 *
Ve
1e-07
0 628 14.0000000000002
0 0

0101101
*
Ed
 1e-07 1 1 0
1  3 0 0 628
0

0101000
-31 4 +29 4 *
Ed
 1e-07 1 1 0
1  4 0 0 14
0

0101000
-29 4 +33 4 *
Wi

0101100
-32 0 -30 0 +28 0 +27 0 *
Fa
0  1e-07 1 0

0111000
+26 0 *
Ve
1e-07
23 2.27373675443232e-13 2.27373675443232e-13
0 0

0101101
*
Ve
1e-07
23 628 2.27373675443232e-13
0 0

0101101
*
Ed
 1e-07 1 1 0
1  5 0 0 628
0

0101000
-24 4 +23 4 *
Ve
1e-07
23 2.27373675443232e-13 14.0000000000002
0 0

0101101
*
Ed
 1e-07 1 1 0
1  6 0 0 14
0

0101000
-21 4 +24 4 *
Ve
1e-07
23 628 14.0000000000002
0 0

0101101
*
Ed
 1e-07 1 1 0
1  7 0 0 628
0

0101000
-21 4 +19 4 *
Ed
 1e-07 1 1 0
1  8 0 0 14
0

0101000
-19 4 +23 4 *
Wi

0101100
-22 0 -20 0 +18 0 +17 0 *
Fa
0  1e-07 2 0

0111000
+16 0 *
Ed
 1e-07 1 1 0
1  9 0 0 23
0

0101000
-23 4 +33 4 *
Ed
 1e-07 1 1 0
1  10 0 0 23
0

0101000
-24 4 +34 4 *
Wi

0101100
-14 0 -22 0 +13 0 +32 0 *
Fa
0  1e-07 3 0

0111000
+12 0 *
Ed
 1e-07 1 1 0
1  11 0 0 23
0

0101000
-19 4 +29 4 *
Ed
 1e-07 1 1 0
1  12 0 0 23
0

0101000
-21 4 +31 4 *
Wi

0101100
-10 0 -18 0 +9 0 +28 0 *
Fa
0  1e-07 4 0

0111000
+8 0 *
Wi

0101100
-27 0 -10 0 +17 0 +14 0 *
Fa
0  1e-07 5 0

0111000
+6 0 *
Wi

0101100
-30 0 -9 0 +20 0 +13 0 *
Fa
0  1e-07 6 0

0111000
+4 0 *
Sh

0101100
-25 0 +15 0 -11 0 +7 0 -5 0 +3 0 *
So

1100000
+2 0 *

+1 3 