DBRep_DrawableShape

CASCADE Topology V1, (c) Matra-Datavision
Locations 4
1
              1               0               0          14.325 
              0               1               0               0 
              0               0               1               0 
1
              1               0               0               0 
              0               1               0               0 
              0               0               1               0 
2  1 1 2 1 0
2  1 -1 0
Curve2ds 12
1 0 19 1 0 
1 0 21 1 0 
1 0 19 1 0 
1 0 1 1 0 
1 0 3 1 0 
1 0 1 1 0 
1 6.2831853071795862 -0 0 1 
1 0 -0 0 1 
1 6.2831853071795862 -0 0 1 
1 0 -0 0 1 
1 6.2831853071795862 -0 0 1 
1 0 -0 0 1 
Curves 21
1 35.675000000000068 0 17.999999999999886 0 0 -1 
1 35.675000000000068 0 -1.1368683772161603e-13 0 1 0 
1 35.675000000000068 32 17.999999999999886 0 0 -1 
1 35.675000000000068 0 17.999999999999886 0 1 0 
1 35.675000000000068 0 17.999999999999886 -1 0 0 
1 -14.324999999999932 0 17.999999999999886 0 0 -1 
1 35.675000000000068 0 -1.1368683772161603e-13 -1 0 0 
1 35.675000000000068 32 -1.1368683772161603e-13 -1 0 0 
1 -14.324999999999932 0 -1.1368683772161603e-13 0 1 0 
2 27.675000000000068 16 -1.1368683772161603e-13 0 0 -1 -1 0 0 0 1 0 2.25
2 10.675000000000068 16 -1.1368683772161603e-13 0 0 -1 -1 0 0 0 1 0 6
2 -6.3249999999999318 16 -1.1368683772161603e-13 0 0 -1 -1 0 0 0 1 0 2.25
1 35.675000000000068 32 17.999999999999886 -1 0 0 
1 -14.324999999999932 32 17.999999999999886 0 0 -1 
1 -14.324999999999932 0 17.999999999999886 0 1 0 
2 27.675000000000068 16 17.999999999999886 0 0 -1 -1 0 0 0 1 0 2.25
2 10.675000000000068 16 17.999999999999886 0 0 -1 -1 0 0 0 1 0 6
2 -6.3249999999999318 16 17.999999999999886 0 0 -1 -1 0 0 0 1 0 2.25
1 25.425000000000068 16 18.999999999999886 0 0 -1 
1 4.6750000000000682 16 20.999999999999886 0 0 -1 
1 -8.5749999999999318 16 18.999999999999886 0 0 -1 
Polygon3D 0
PolygonOnTriangulations 0
Surfaces 9
1 35.675000000000068 0 17.999999999999886 -1 0 0 0 0 -1 0 -1 0 
1 35.675000000000068 0 17.999999999999886 0 1 0 0 0 -1 -1 0 0 
1 35.675000000000068 0 -1.1368683772161603e-13 0 0 -1 -1 0 0 0 1 0 
2 27.675000000000068 16 18.999999999999886 0 0 -1 -1 0 0 0 1 0 2.25
2 10.675000000000068 16 20.999999999999886 0 0 -1 -1 0 0 0 1 0 6
2 -6.3249999999999318 16 18.999999999999886 0 0 -1 -1 0 0 0 1 0 2.25
1 35.675000000000068 32 17.999999999999886 0 1 0 0 0 -1 -1 0 0 
1 35.675000000000068 0 17.999999999999886 0 0 -1 -1 0 0 0 1 0 
1 -14.324999999999932 0 17.999999999999886 -1 0 0 0 0 -1 0 -1 0 
Triangulations 0

TShapes 62
Ve
1e-07
50.0000000000001 0 -1.13686837721616e-13
0 0

0101101
*
Ve
1e-07
50.0000000000001 0 17.9999999999999
0 0

0101101
*
Ed
 1e-07 1 1 0
1  1 0 0 18
0

0101000
-62 4 +61 4 *
Ve
1e-07
50.0000000000001 32 -1.13686837721616e-13
0 0

0101101
*
Ed
 1e-07 1 1 0
1  2 0 0 32
0

0101000
-59 4 +62 4 *
Ve
1e-07
50.0000000000001 32 17.9999999999999
0 0

0101101
*
Ed
 1e-07 1 1 0
1  3 0 0 18
0

0101000
-59 4 +57 4 *
Ed
 1e-07 1 1 0
1  4 0 0 32
0

0101000
-57 4 +61 4 *
Wi

0101100
-60 0 -58 0 +56 0 +55 0 *
Fa
0  1e-07 1 0

0111000
+54 0 *
Ve
1e-07
5.6843418860808e-14 0 17.9999999999999
0 0

0101101
*
Ed
 1e-07 1 1 0
1  5 0 0 50
0

0101000
-52 4 +61 4 *
Ve
1e-07
5.6843418860808e-14 0 -1.13686837721616e-13
0 0

0101101
*
Ed
 1e-07 1 1 0
1  6 0 0 18
0

0101000
-50 4 +52 4 *
Ed
 1e-07 1 1 0
1  7 0 0 50
0

0101000
-50 4 +62 4 *
Wi

0101100
-51 0 -49 0 +48 0 +60 0 *
Fa
0  1e-07 2 0

0111000
+47 0 *
Ve
1e-07
5.6843418860808e-14 32 -1.13686837721616e-13
0 0

0101101
*
Ed
 1e-07 1 1 0
1  8 0 0 50
0

0101000
-45 4 +59 4 *
Ed
 1e-07 1 1 0
1  9 0 0 32
0

0101000
-45 4 +50 4 *
Wi

0101100
-58 0 -44 0 +48 0 +43 0 *
Ve
1e-07
39.7500000000001 16 -1.13686837721616e-13
0 0

0101101
*
Ed
 1e-07 1 1 0
1  10 0 0 6.28318530717959
2  1 4 0 0 6.28318530717959
0

0101100
+41 4 -41 4 *
Wi

0101100
-40 0 *
Ve
1e-07
19.0000000000001 16 -1.13686837721616e-13
0 0

0101101
*
Ed
 1e-07 1 1 0
1  11 0 0 6.28318530717959
2  2 5 0 0 6.28318530717959
0

0101100
+38 4 -38 4 *
Wi

0101100
-37 0 *
Ve
1e-07
5.75000000000006 16 -1.13686837721616e-13
0 0

0101101
*
Ed
 1e-07 1 1 0
1  12 0 0 6.28318530717959
2  3 6 0 0 6.28318530717959
0

0101100
+35 4 -35 4 *
Wi

0101100
-34 0 *
Fa
0  1e-07 3 0

0111000
+42 0 +39 0 +36 0 +33 0 *
Ve
1e-07
5.6843418860808e-14 32 17.9999999999999
0 0

0101101
*
Ed
 1e-07 1 1 0
1  13 0 0 50
0

0101000
-31 4 +57 4 *
Ed
 1e-07 1 1 0
1  14 0 0 18
0

0101000
-45 4 +31 4 *
Wi

0101100
-30 0 -29 0 +44 0 +56 0 *
Fa
0  1e-07 7 0

0111000
+28 0 *
Ed
 1e-07 1 1 0
1  15 0 0 32
0

0101000
-31 4 +52 4 *
Wi

0101100
-55 0 -30 0 +51 0 +26 0 *
Ve
1e-07
39.7500000000001 16 17.9999999999999
0 0

0101101
*
Ed
 1e-07 1 1 0
1  16 0 0 6.28318530717959
2  4 4 0 0 6.28318530717959
0

0101100
+24 4 -24 4 *
Wi

0101100
-23 0 *
Ve
1e-07
19.0000000000001 16 17.9999999999999
0 0

0101101
*
Ed
 1e-07 1 1 0
1  17 0 0 6.28318530717959
2  5 5 0 0 6.28318530717959
0

0101100
+21 4 -21 4 *
Wi

0101100
-20 0 *
Ve
1e-07
5.75000000000006 16 17.9999999999999
0 0

0101101
*
Ed
 1e-07 1 1 0
1  18 0 0 6.28318530717959
2  6 6 0 0 6.28318530717959
0

0101100
+18 4 -18 4 *
Wi

0101100
-17 0 *
Fa
0  1e-07 8 0

0111000
+25 0 +22 0 +19 0 +16 0 *
Wi

0101100
-49 0 -43 0 +29 0 +26 0 *
Fa
0  1e-07 9 0

0111000
+14 0 *
Ed
 1e-07 1 1 0
1  19 0 1 19
3  7 8CN 4 0 1 19
0

0101000
+24 4 -41 4 *
Wi

0101100
-40 0 +12 0 +23 0 -12 0 *
Fa
0  1e-07 4 0

0111000
+11 0 *
Ed
 1e-07 1 1 0
1  20 0 3 21
3  9 10CN 5 0 3 21
0

0101000
+21 4 -38 4 *
Wi

0101100
-37 0 +9 0 +20 0 -9 0 *
Fa
0  1e-07 5 0

0111000
+8 0 *
Ed
 1e-07 1 1 0
1  21 0 1 19
3  11 12CN 6 0 1 19
0

0101000
+18 4 -35 4 *
Wi

0101100
-34 0 +6 0 +17 0 -6 0 *
Fa
0  1e-07 6 0

0111000
+5 0 *
Sh

0101100
-53 0 -46 0 +32 0 +27 0 -15 0 +13 0 -10 0 -7 0 -4 0 *
So

0100000
+3 0 *
Co

1100000
+2 0 *

+1 3 