DBRep_DrawableShape

CASCADE Topology V1, (c) Matra-Datavision
Locations 4
1
              1               0               0          14.325 
              0               1               0               0 
              0               0               1               0 
1
              1               0               0               0 
              0               1               0               0 
              0               0               1               0 
2  1 1 2 1 0
2  1 -1 0
Curve2ds 20
1 0 3.5355339059327378 1 0 
1 0 39 1 0 
1 0 3.5355339059327378 1 0 
1 0 19 1 0 
1 0 21 1 0 
1 0 19 1 0 
1 6.2831853071795862 -0 0 1 
1 0 -0 0 1 
1 0 0 1 0 
1 0 34.5 1 0 
1 6.2831853071795862 -0 0 1 
1 0 -0 0 1 
1 6.2831853071795862 -0 0 1 
1 0 -0 0 1 
1 0 0 1 0 
1 0 34.5 1 0 
1 6.2831853071795862 -0 0 1 
1 0 -0 0 1 
1 6.2831853071795862 -0 0 1 
1 0 -0 0 1 
Curves 25
1 35.675000000000068 0 18 0 1.1102230246251565e-16 -1 
1 35.675000000000068 0 0 0 1 1.1102230246251565e-16 
1 35.675000000000068 32 18 0 1.1102230246251565e-16 -1 
1 35.675000000000068 0 18 0 1 1.1102230246251565e-16 
1 35.675000000000068 0 18 -1 0 0 
1 -14.324999999999932 0 18 0 1.1102230246251565e-16 -1 
1 35.675000000000068 0 0 -1 0 0 
1 35.675000000000068 32 0 -1 0 0 
1 -14.324999999999932 0 0 0 1 1.1102230246251565e-16 
2 27.675000000000068 16 0 0 1.1102230246251565e-16 -1 -1 0 0 0 1 1.1102230246251565e-16 4.75
2 10.675000000000068 16 0 0 1.1102230246251565e-16 -1 -1 0 0 0 1 1.1102230246251565e-16 6
2 -6.3249999999999318 16 0 0 1.1102230246251565e-16 -1 -1 0 0 0 1 1.1102230246251565e-16 4.75
1 35.675000000000068 32 18 -1 0 0 
1 -14.324999999999932 32 18 0 1.1102230246251565e-16 -1 
1 -14.324999999999932 0 18 0 1 1.1102230246251565e-16 
2 27.675000000000068 16 18 0 1.1102230246251565e-16 -1 -1 0 0 0 1 1.1102230246251565e-16 2.25
2 10.675000000000068 16 18 0 1.1102230246251565e-16 -1 -1 0 0 0 1 1.1102230246251565e-16 6
2 -6.3249999999999318 16 18 0 1.1102230246251565e-16 -1 -1 0 0 0 1 1.1102230246251565e-16 2.25
1 25.425000000000068 16 2.5 -0.70710678118654746 -9.1495377065811243e-17 -0.70710678118654757 
2 27.675000000000068 16 2.5 0 1.1102230246251565e-16 -1 -1 0 0 0 1 1.1102230246251565e-16 2.25
1 4.6750000000000682 16 39 0 1.1102230246251565e-16 -1 
1 -8.5749999999999318 16 2.5 -0.70710678118654746 -9.1495377065811243e-17 -0.70710678118654757 
2 -6.3249999999999318 16 2.5 0 1.1102230246251565e-16 -1 -1 0 0 0 1 1.1102230246251565e-16 2.25
1 25.425000000000068 16 37 0 1.1102230246251565e-16 -1 
1 -8.5749999999999318 16 37 0 1.1102230246251565e-16 -1 
Polygon3D 0
PolygonOnTriangulations 0
Surfaces 11
1 35.675000000000068 0 18 -1 0 0 0 1.1102230246251565e-16 -1 0 -1 -1.1102230246251565e-16 
1 35.675000000000068 0 18 0 1 1.1102230246251565e-16 0 1.1102230246251565e-16 -1 -1 0 0 
1 35.675000000000068 0 0 0 1.1102230246251565e-16 -1 -1 0 0 0 1 1.1102230246251565e-16 
3 27.675000000000068 16 2.5 0 1.1102230246251565e-16 -1 -1 0 0 0 1 1.1102230246251565e-16 2.25
0.78539816339744828
2 10.675000000000068 16 39 0 1.1102230246251565e-16 -1 -1 0 0 0 1 1.1102230246251565e-16 6
3 -6.3249999999999318 16 2.5 0 1.1102230246251565e-16 -1 -1 0 0 0 1 1.1102230246251565e-16 2.25
0.78539816339744828
1 35.675000000000068 32 18 0 1 1.1102230246251565e-16 0 1.1102230246251565e-16 -1 -1 0 0 
1 35.675000000000068 0 18 0 1.1102230246251565e-16 -1 -1 0 0 0 1 1.1102230246251565e-16 
2 27.675000000000068 16 37 0 1.1102230246251565e-16 -1 -1 0 0 0 1 1.1102230246251565e-16 2.25
2 -6.3249999999999318 16 37 0 1.1102230246251565e-16 -1 -1 0 0 0 1 1.1102230246251565e-16 2.25
1 -14.324999999999932 0 18 -1 0 0 0 1.1102230246251565e-16 -1 0 -1 -1.1102230246251565e-16 
Triangulations 0

TShapes 72
Ve
1e-07
50.0000000000001 0 0
0 0

0101101
*
Ve
1e-07
50.0000000000001 0 18
0 0

0101101
*
Ed
 1e-07 1 1 0
1  1 0 0 18
0

0101000
-72 4 +71 4 *
Ve
1e-07
50.0000000000001 32 0
0 0

0101101
*
Ed
 1e-07 1 1 0
1  2 0 0 32
0

0101000
-69 4 +72 4 *
Ve
1e-07
50.0000000000001 32 18
0 0

0101101
*
Ed
 1e-07 1 1 0
1  3 0 0 18
0

0101000
-69 4 +67 4 *
Ed
 1e-07 1 1 0
1  4 0 0 32
0

0101000
-67 4 +71 4 *
Wi

0101100
-70 0 -68 0 +66 0 +65 0 *
Fa
0  1e-07 1 0

0111000
+64 0 *
Ve
1e-07
5.6843418860808e-14 0 18
0 0

0101101
*
Ed
 1e-07 1 1 0
1  5 0 0 50
0

0101000
-62 4 +71 4 *
Ve
1e-07
5.6843418860808e-14 0 0
0 0

0101101
*
Ed
 1e-07 1 1 0
1  6 0 0 18
0

0101000
-60 4 +62 4 *
Ed
 1e-07 1 1 0
1  7 0 0 50
0

0101000
-60 4 +72 4 *
Wi

0101100
-61 0 -59 0 +58 0 +70 0 *
Fa
0  1e-07 2 0

0111000
+57 0 *
Ve
1e-07
5.6843418860808e-14 32 0
0 0

0101101
*
Ed
 1e-07 1 1 0
1  8 0 0 50
0

0101000
-55 4 +69 4 *
Ed
 1e-07 1 1 0
1  9 0 0 32
0

0101000
-55 4 +60 4 *
Wi

0101100
-68 0 -54 0 +58 0 +53 0 *
Ve
1e-07
37.2500000000001 16 0
0 0

0101101
*
Ed
 1e-07 1 1 0
1  10 0 0 6.28318530717959
2  1 4 0 0 6.28318530717959
0

0101000
+51 4 -51 4 *
Wi

0101100
-50 0 *
Ve
1e-07
19.0000000000001 16 0
0 0

0101101
*
Ed
 1e-07 1 1 0
1  11 0 0 6.28318530717959
2  2 5 0 0 6.28318530717959
0

0101100
+48 4 -48 4 *
Wi

0101100
-47 0 *
Ve
1e-07
3.25000000000006 16 0
0 0

0101101
*
Ed
 1e-07 1 1 0
1  12 0 0 6.28318530717959
2  3 6 0 0 6.28318530717959
0

0101000
+45 4 -45 4 *
Wi

0101100
-44 0 *
Fa
0  1e-07 3 0

0111000
+52 0 +49 0 +46 0 +43 0 *
Ve
1e-07
5.6843418860808e-14 32 18
0 0

0101101
*
Ed
 1e-07 1 1 0
1  13 0 0 50
0

0101000
-41 4 +67 4 *
Ed
 1e-07 1 1 0
1  14 0 0 18
0

0101000
-55 4 +41 4 *
Wi

0101100
-40 0 -39 0 +54 0 +66 0 *
Fa
0  1e-07 7 0

0111000
+38 0 *
Ed
 1e-07 1 1 0
1  15 0 0 32
0

0101000
-41 4 +62 4 *
Wi

0101100
-65 0 -40 0 +61 0 +36 0 *
Ve
1e-07
39.7500000000001 16 18
0 0

0101101
*
Ed
 1e-07 1 1 0
1  16 0 0 6.28318530717959
2  4 9 0 0 6.28318530717959
0

0101100
+34 4 -34 4 *
Wi

0101100
-33 0 *
Ve
1e-07
19.0000000000001 16 18
0 0

0101101
*
Ed
 1e-07 1 1 0
1  17 0 0 6.28318530717959
2  5 5 0 0 6.28318530717959
0

0101100
+31 4 -31 4 *
Wi

0101100
-30 0 *
Ve
1e-07
5.75000000000006 16 18
0 0

0101101
*
Ed
 1e-07 1 1 0
1  18 0 0 6.28318530717959
2  6 10 0 0 6.28318530717959
0

0101100
+28 4 -28 4 *
Wi

0101100
-27 0 *
Fa
0  1e-07 8 0

0111000
+35 0 +32 0 +29 0 +26 0 *
Wi

0101100
-59 0 -53 0 +39 0 +36 0 *
Fa
0  1e-07 11 0

0111000
+24 0 *
Ve
1.00000057e-07
39.7500000000001 16 2.5
0 0

0101101
*
Ed
 1e-07 1 1 0
1  19 0 0 3.53553390593274
3  7 8CN 4 0 0 3.53553390593274
0

0101000
+22 4 -51 4 *
Ed
 1.00000057e-07 1 1 0
1  20 0 0 6.28318530717959
2  9 4 0 0 6.28318530717959
2  10 9 0 0 6.28318530717959
0

0101000
+22 4 -22 4 *
Wi

0101100
-50 0 +21 0 +20 0 -21 0 *
Fa
0  1e-07 4 0

0111000
+19 0 *
Ed
 1e-07 1 1 0
1  21 0 21 39
3  11 12CN 5 0 21 39
0

0101000
+31 4 -48 4 *
Wi

0101100
-47 0 +17 0 +30 0 -17 0 *
Fa
0  1e-07 5 0

0111000
+16 0 *
Ve
1.00000057e-07
5.75000000000006 16 2.5
0 0

0101101
*
Ed
 1e-07 1 1 0
1  22 0 0 3.53553390593274
3  13 14CN 6 0 0 3.53553390593274
0

0101000
+14 4 -45 4 *
Ed
 1.00000057e-07 1 1 0
1  23 0 0 6.28318530717959
2  15 6 0 0 6.28318530717959
2  16 10 0 0 6.28318530717959
0

0101000
+14 4 -14 4 *
Wi

0101100
-44 0 +13 0 +12 0 -13 0 *
Fa
0  1e-07 6 0

0111000
+11 0 *
Ed
 1e-07 1 1 0
1  24 0 19 34.5
3  17 18CN 9 0 19 34.5
0

0101000
+34 4 -22 4 *
Wi

0101100
-20 0 +9 0 +33 0 -9 0 *
Fa
0  1e-07 9 0

0111000
+8 0 *
Ed
 1e-07 1 1 0
1  25 0 19 34.5
3  19 20CN 10 0 19 34.5
0

0101000
+28 4 -14 4 *
Wi

0101100
-12 0 +6 0 +27 0 -6 0 *
Fa
0  1e-07 10 0

0111000
+5 0 *
Sh

0101100
-63 0 -56 0 +42 0 +37 0 -25 0 +23 0 -18 0 -15 0 -10 0 -7 0 
-4 0 *
So

0100000
+3 0 *
Co

1100000
+2 0 *

+1 3 