DBRep_DrawableShape

CASCADE Topology V1, (c) Matra-Datavision
Locations 15
1
              1               0               0               0 
              0 1.11022302462516e-16               1               0 
              0              -1 1.11022302462516e-16               0 
1
              1               0               0            -381 
              0               1               0           -1096 
              0               0               1          1334.1 
1
              1               0               0               0 
              0               1               0               0 
              0               0               1               0 
1
              1               0               0          14.325 
              0               1               0               0 
              0               0               1               0 
1
              1               0               0               0 
              0               1               0               0 
              0               0               1               0 
2  1 1 2 1 3 1 4 1 5 1 0
1
              1               0               0               0 
              0               1               0               6 
              0               0               1               0 
2  4 -1 3 -1 2 -1 1 -1 7 -1 0
1
              1               0               0               0 
              0               1               0               0 
              0               0               1               0 
2  4 -1 3 -1 2 -1 1 -1 7 -1 9 -1 0
1
              1               0               0               0 
              0               1               0             -12 
              0               0               1               0 
2  9 1 11 1 0
2  4 -1 3 -1 2 -1 1 -1 7 -1 11 -1 9 -1 0
2  9 -1 0
2  11 -1 9 -1 0
Curve2ds 16
1 0 0 0 -1 
1 6.2831853071795862 0 0 -1 
1 0 0 1 0 
1 0 -12 1 0 
1 0 0 0 -1 
1 6.2831853071795862 0 0 -1 
1 0 0 1 0 
1 0 -12 1 0 
1 0 0 0 -1 
1 6.2831853071795862 0 0 -1 
1 0 0 1 0 
1 0 -12 1 0 
1 0 0 0 -1 
1 6.2831853071795862 0 0 -1 
1 0 0 1 0 
1 0 -12 1 0 
Curves 24
1 494.67500000000001 1328.0999999999995 1095.9999999999995 0 -1 0 
1 366.67500000000001 1328.0999999999995 1095.9999999999995 0 -1 0 
1 366.67500000000001 1328.0999999999995 1095.9999999999995 1 0 0 
1 366.67500000000001 1328.0999999999995 1095.9999999999995 1 0 0 
1 494.67500000000001 1328.0999999999995 1223.9999999999995 0 -1 0 
1 494.67500000000001 1328.0999999999995 1095.9999999999995 0 0 1 
1 494.67500000000001 1328.0999999999995 1095.9999999999995 0 0 1 
1 366.67500000000001 1328.0999999999995 1223.9999999999995 0 -1 0 
1 366.67500000000001 1328.0999999999995 1095.9999999999995 0 0 1 
1 366.67500000000001 1328.0999999999995 1095.9999999999995 0 0 1 
1 366.67500000000001 1328.0999999999995 1223.9999999999995 1 0 0 
1 366.67500000000001 1328.0999999999995 1223.9999999999995 1 0 0 
1 378.17500000000001 1328.0999999999995 1109.7499999999995 0 -1 0 
2 378.17500000000001 1328.0999999999995 1107.4999999999995 0 1 0 0 0 1 1 0 0 2.25
2 378.17500000000001 1328.0999999999995 1107.4999999999995 0 1 0 0 0 1 1 0 0 2.25
1 378.17500000000001 1328.0999999999995 1214.7499999999995 0 -1 0 
2 378.17500000000001 1328.0999999999995 1212.4999999999995 0 1 0 0 0 1 1 0 0 2.25
2 378.17500000000001 1328.0999999999995 1212.4999999999995 0 1 0 0 0 1 1 0 0 2.25
1 483.17500000000001 1328.0999999999995 1109.7499999999995 0 -1 0 
2 483.17500000000001 1328.0999999999995 1107.4999999999995 0 1 0 0 0 1 1 0 0 2.25
2 483.17500000000001 1328.0999999999995 1107.4999999999995 0 1 0 0 0 1 1 0 0 2.25
1 483.17500000000001 1328.0999999999995 1214.7499999999995 0 -1 0 
2 483.17500000000001 1328.0999999999995 1212.4999999999995 0 1 0 0 0 1 1 0 0 2.25
2 483.17500000000001 1328.0999999999995 1212.4999999999995 0 1 0 0 0 1 1 0 0 2.25
Polygon3D 0
PolygonOnTriangulations 0
Surfaces 10
1 366.67500000000001 1328.0999999999995 1095.9999999999995 0 0 1 1 0 0 0 1 0 
1 494.67500000000001 1328.0999999999995 1095.9999999999995 -1 0 0 0 0 1 0 1 0 
1 366.67500000000001 1328.0999999999995 1095.9999999999995 -1 0 0 0 0 1 0 1 0 
1 366.67500000000001 1328.0999999999995 1223.9999999999995 0 0 1 1 0 0 0 1 0 
2 378.17500000000001 1328.0999999999995 1107.4999999999995 0 1 0 0 0 1 1 0 0 2.25
2 378.17500000000001 1328.0999999999995 1212.4999999999995 0 1 0 0 0 1 1 0 0 2.25
2 483.17500000000001 1328.0999999999995 1107.4999999999995 0 1 0 0 0 1 1 0 0 2.25
2 483.17500000000001 1328.0999999999995 1212.4999999999995 0 1 0 0 0 1 1 0 0 2.25
1 366.67500000000001 1328.0999999999995 1095.9999999999995 0 1 0 0 0 1 1 0 0 
1 366.67500000000001 1328.0999999999995 1095.9999999999995 0 1 0 0 0 1 1 0 0 
Triangulations 0

TShapes 70
Ve
1e-07
128 0 2.27373675443232e-13
0 0

0101101
*
Ve
1e-07
128 0 12.0000000000002
0 0

0101101
*
Ed
 1e-07 1 1 0
1  1 0 0 12
0

0101000
+70 8 -69 8 *
Ve
1e-07
0 0 2.27373675443232e-13
0 0

0101101
*
Ve
1e-07
0 0 12.0000000000002
0 0

0101101
*
Ed
 1e-07 1 1 0
1  2 0 0 12
0

0101000
+67 8 -66 8 *
Ed
 1e-07 1 1 0
1  3 0 0 128
0

0101000
-70 10 +67 10 *
Ed
 1e-07 1 1 0
1  4 0 0 128
0

0101000
-69 13 +66 13 *
Wi

0101100
-68 0 +65 0 -64 9 +63 12 *
Fa
0  1e-07 1 0

0111000
+62 0 *
Ve
1e-07
128 128 2.27373675443232e-13
0 0

0101101
*
Ve
1e-07
128 128 12.0000000000002
0 0

0101101
*
Ed
 1e-07 1 1 0
1  5 0 0 12
0

0101000
+60 8 -59 8 *
Ed
 1e-07 1 1 0
1  6 0 0 128
0

0101000
-60 10 +70 10 *
Ed
 1e-07 1 1 0
1  7 0 0 128
0

0101000
-59 13 +69 13 *
Wi

0101100
-58 0 +68 0 -57 9 +56 12 *
Fa
0  1e-07 2 0

0111000
+55 0 *
Ve
1e-07
0 128 2.27373675443232e-13
0 0

0101101
*
Ve
1e-07
0 128 12.0000000000002
0 0

0101101
*
Ed
 1e-07 1 1 0
1  8 0 0 12
0

0101000
+53 8 -52 8 *
Ed
 1e-07 1 1 0
1  9 0 0 128
0

0101000
-53 10 +67 10 *
Ed
 1e-07 1 1 0
1  10 0 0 128
0

0101000
-52 13 +66 13 *
Wi

0101100
-51 0 +65 0 -50 9 +49 12 *
Fa
0  1e-07 3 0

0111000
+48 0 *
Ed
 1e-07 1 1 0
1  11 0 0 128
0

0101000
-60 10 +53 10 *
Ed
 1e-07 1 1 0
1  12 0 0 128
0

0101000
-59 13 +52 13 *
Wi

0101100
-58 0 +51 0 -46 9 +45 12 *
Fa
0  1e-07 4 0

0111000
+44 0 *
Ve
1e-07
11.5 13.75 2.27373675443232e-13
0 0

0101101
*
Ve
1e-07
11.5 13.75 12.0000000000002
0 0

0101101
*
Ed
 1e-07 1 1 0
1  13 0 0 12
3  1 2CN 5 0 0 12
0

0101000
+42 8 -41 8 *
Ed
 1e-07 1 1 0
1  14 0 0 6.28318530717959
2  3 5 14 0 6.28318530717959
0

0101100
+42 10 -42 10 *
Ed
 1e-07 1 1 0
1  15 0 0 6.28318530717959
2  4 5 15 0 6.28318530717959
0

0101100
+41 13 -41 13 *
Wi

0101100
+40 0 -40 0 -39 9 +38 12 *
Fa
0  1e-07 5 0

0111000
+37 0 *
Ve
1e-07
11.5 118.75 2.27373675443232e-13
0 0

0101101
*
Ve
1e-07
11.5 118.75 12.0000000000002
0 0

0101101
*
Ed
 1e-07 1 1 0
1  16 0 0 12
3  5 6CN 6 0 0 12
0

0101000
+35 8 -34 8 *
Ed
 1e-07 1 1 0
1  17 0 0 6.28318530717959
2  7 6 14 0 6.28318530717959
0

0101100
+35 10 -35 10 *
Ed
 1e-07 1 1 0
1  18 0 0 6.28318530717959
2  8 6 15 0 6.28318530717959
0

0101100
+34 13 -34 13 *
Wi

0101100
+33 0 -33 0 -32 9 +31 12 *
Fa
0  1e-07 6 0

0111000
+30 0 *
Ve
1e-07
116.5 13.75 2.27373675443232e-13
0 0

0101101
*
Ve
1e-07
116.5 13.75 12.0000000000002
0 0

0101101
*
Ed
 1e-07 1 1 0
1  19 0 0 12
3  9 10CN 7 0 0 12
0

0101000
+28 8 -27 8 *
Ed
 1e-07 1 1 0
1  20 0 0 6.28318530717959
2  11 7 14 0 6.28318530717959
0

0101100
+28 10 -28 10 *
Ed
 1e-07 1 1 0
1  21 0 0 6.28318530717959
2  12 7 15 0 6.28318530717959
0

0101100
+27 13 -27 13 *
Wi

0101100
+26 0 -26 0 -25 9 +24 12 *
Fa
0  1e-07 7 0

0111000
+23 0 *
Ve
1e-07
116.5 118.75 2.27373675443232e-13
0 0

0101101
*
Ve
1e-07
116.5 118.75 12.0000000000002
0 0

0101101
*
Ed
 1e-07 1 1 0
1  22 0 0 12
3  13 14CN 8 0 0 12
0

0101000
+21 8 -20 8 *
Ed
 1e-07 1 1 0
1  23 0 0 6.28318530717959
2  15 8 14 0 6.28318530717959
0

0101100
+21 10 -21 10 *
Ed
 1e-07 1 1 0
1  24 0 0 6.28318530717959
2  16 8 15 0 6.28318530717959
0

0101100
+20 13 -20 13 *
Wi

0101100
+19 0 -19 0 -18 9 +17 12 *
Fa
0  1e-07 8 0

0111000
+16 0 *
Wi

0101100
-64 0 -57 0 +50 0 +46 0 *
Wi

0101100
-39 0 *
Wi

0101100
-32 0 *
Wi

0101100
-25 0 *
Wi

0101100
-18 0 *
Fa
0  1e-07 9 0

0111000
+14 0 +13 0 +12 0 +11 0 +10 0 *
Wi

0101100
-63 0 -56 0 +49 0 +45 0 *
Wi

0101100
-38 0 *
Wi

0101100
-31 0 *
Wi

0101100
-24 0 *
Wi

0101100
-17 0 *
Fa
0  1e-07 10 0

0111000
+8 0 +7 0 +6 0 +5 0 +4 0 *
Sh

0101100
-61 0 -54 0 +47 0 +43 0 -36 0 -29 0 -22 0 -15 0 +9 9 -3 12 
*
So

1100000
+2 7 *

+1 6 