DBRep_DrawableShape

CASCADE Topology V1, (c) Matra-Datavision
Locations 4
1
              1               0               0           28.65 
              0               1               0               0 
              0               0               1               0 
1
              1               0               0               0 
              0               1               0               0 
              0               0               1               0 
2  1 1 2 1 0
2  1 -1 0
Curve2ds 52
1 0 1 1 0 
1 0 1 1 0 
1 0 1 1 0 
1 0 1 1 0 
1 0 16 1 0 
1 0 55 1 0 
1 0 1 1 0 
1 0 1 1 0 
1 0 67.222222222222229 1 0 
1 3.1415926535897931 2.6759099063982785 -1 0 
1 0 67.222222222222229 1 0 
1 9.4247779607693793 2.6759099063982785 -1 0 
1 6.2831853071795862 -0 0 1 
1 0 -0 0 1 
1 0 67.222222222222229 1 0 
1 3.1415926535897931 2.6759099063982785 -1 0 
1 0 67.222222222222229 1 0 
1 9.4247779607693793 2.6759099063982785 -1 0 
1 6.2831853071795862 -0 0 1 
1 0 -0 0 1 
1 0 67.222222222222229 1 0 
1 3.1415926535897931 2.6759099063982785 -1 0 
1 0 67.222222222222229 1 0 
1 9.4247779607693793 2.6759099063982785 -1 0 
1 6.2831853071795862 -0 0 1 
1 0 -0 0 1 
1 0 67.222222222222229 1 0 
1 3.1415926535897931 2.6759099063982785 -1 0 
1 0 67.222222222222229 1 0 
1 9.4247779607693793 2.6759099063982785 -1 0 
1 6.2831853071795862 -0 0 1 
1 0 -0 0 1 
1 0 0 1 0 
1 0 0 1 0 
1 0 0 1 0 
1 0 0 1 0 
1 6.2831853071795862 -0 0 1 
1 0 -0 0 1 
1 0 0 1 0 
1 6.2831853071795862 -0 0 1 
1 0 -0 0 1 
1 0 39 1 0 
1 6.2831853071795862 -0 0 1 
1 0 -0 0 1 
1 6.2831853071795862 -0 0 1 
1 0 -0 0 1 
1 6.2831853071795862 -0 0 1 
1 0 -0 0 1 
1 6.2831853071795862 -0 0 1 
1 0 -0 0 1 
1 6.2831853071795862 -0 0 1 
1 0 -0 0 1 
Curves 45
1 -28.649999999999977 0 0 -0 -0 1 
1 -28.649999999999977 0 54 -0 1 -0 
1 -28.649999999999977 0 0 -0 1 -0 
1 -28.649999999999977 70 0 -0 -0 1 
2 -28.649999999999977 61 9 1 0 0 -0 -0 1 -0 -1 0 2.5
2 -28.649999999999977 61 45 1 0 0 -0 -0 1 -0 -1 0 2.5
2 -28.649999999999977 9 9 1 0 0 -0 -0 1 -0 -1 0 2.5
2 -28.649999999999977 9 45 1 0 0 -0 -0 1 -0 -1 0 2.5
1 -28.649999999999977 0 0 1 0 -0 
1 39.350000000000023 0 0 -0 -0 1 
1 -28.649999999999977 0 54 1 0 -0 
1 -28.649999999999977 70 54 1 0 -0 
1 39.350000000000023 0 54 -0 1 -0 
2 25.350000000000023 20 54 0 0 1 1 0 -0 -0 1 -0 6
2 25.350000000000023 50 54 0 0 1 1 0 -0 -0 1 -0 3.5
1 -28.649999999999977 70 0 1 0 -0 
1 39.350000000000023 0 0 -0 1 -0 
2 25.350000000000023 20 0 0 0 1 1 0 -0 -0 1 -0 4.5
2 25.350000000000023 50 0 0 0 1 1 0 -0 -0 1 -0 3.5
1 39.350000000000023 70 0 -0 -0 1 
2 37.572222222222194 61 9 1 0 0 -0 -0 1 -0 -1 0 2.5
2 37.572222222222194 61 9 1 0 0 -0 -0 1 -0 -1 0 2.5
1 -29.649999999999977 61 11.5 1 -0 -0 
2 37.572222222222194 61 45 1 0 0 -0 -0 1 -0 -1 0 2.5
2 37.572222222222194 61 45 1 0 0 -0 -0 1 -0 -1 0 2.5
1 -29.649999999999977 61 47.5 1 -0 -0 
2 37.572222222222194 9 9 1 0 0 -0 -0 1 -0 -1 0 2.5
2 37.572222222222194 9 9 1 0 0 -0 -0 1 -0 -1 0 2.5
1 -29.649999999999977 9 11.5 1 -0 -0 
2 37.572222222222194 9 45 1 0 0 -0 -0 1 -0 -1 0 2.5
2 37.572222222222194 9 45 1 0 0 -0 -0 1 -0 -1 0 2.5
1 -29.649999999999977 9 47.5 1 -0 -0 
2 39.350000000000023 61 9 -1 -0 0 -0 -0 -1 0 -1 -0 4.5
2 39.350000000000023 61 45 -1 -0 0 -0 -0 -1 0 -1 -0 4.5
2 39.350000000000023 9 9 -1 -0 0 -0 -0 -1 0 -1 -0 4.5
2 39.350000000000023 9 45 -1 -0 0 -0 -0 -1 0 -1 -0 4.5
1 31.350000000000023 20 38 -0 -0 1 
2 25.350000000000023 20 38 0 0 1 1 0 -0 -0 1 -0 6
1 28.850000000000023 50 -1 -0 -0 1 
2 25.350000000000023 20 38 0 0 1 1 0 -0 -0 1 -0 4.5
1 29.850000000000023 20 -1 -0 -0 1 
1 39.350000000000023 61 4.5 -0.66436383882991967 -1.7999999999999999e-16 0.74740931868365978 
1 39.350000000000023 61 40.5 -0.66436383882991967 -1.7999999999999999e-16 0.74740931868365978 
1 39.350000000000023 9 4.5 -0.66436383882991967 -1.7999999999999999e-16 0.74740931868365978 
1 39.350000000000023 9 40.5 -0.66436383882991967 -1.7999999999999999e-16 0.74740931868365978 
Polygon3D 0
PolygonOnTriangulations 0
Surfaces 18
1 -28.649999999999977 0 0 1 0 -0 -0 -0 1 0 -1 -0 
2 -29.649999999999977 61 9 1 -0 -0 -0 -0 1 -0 -1 -0 2.5
2 -29.649999999999977 61 45 1 -0 -0 -0 -0 1 -0 -1 -0 2.5
2 -29.649999999999977 9 9 1 -0 -0 -0 -0 1 -0 -1 -0 2.5
2 -29.649999999999977 9 45 1 -0 -0 -0 -0 1 -0 -1 -0 2.5
1 -28.649999999999977 0 0 -0 1 -0 -0 -0 1 1 0 -0 
1 -28.649999999999977 0 54 -0 -0 1 1 -0 -0 -0 1 -0 
2 25.350000000000023 20 38 -0 -0 1 1 -0 -0 -0 1 -0 6
2 25.350000000000023 50 -1 -0 -0 1 1 -0 -0 -0 1 -0 3.5
1 -28.649999999999977 0 0 -0 -0 1 1 -0 -0 -0 1 -0 
2 25.350000000000023 20 -1 -0 -0 1 1 -0 -0 -0 1 -0 4.5
1 -28.649999999999977 70 0 -0 1 -0 -0 -0 1 1 0 -0 
3 39.350000000000023 61 9 -1 -0 -0 -0 0 -1 0 -1 -0 4.5
-0.84415398611317105
3 39.350000000000023 61 45 -1 -0 -0 -0 0 -1 0 -1 -0 4.5
-0.84415398611317105
3 39.350000000000023 9 9 -1 -0 -0 -0 0 -1 0 -1 -0 4.5
-0.84415398611317105
3 39.350000000000023 9 45 -1 -0 -0 -0 0 -1 0 -1 -0 4.5
-0.84415398611317105
1 39.350000000000023 0 0 1 0 -0 -0 -0 1 0 -1 -0 
1 25.350000000000023 20 38 -0 -0 1 1 -0 -0 -0 1 -0 
Triangulations 0

TShapes 127
Ve
1e-07
0 0 54
0 0

0101101
*
Ve
1e-07
0 0 0
0 0

0101101
*
Ed
 1e-07 1 1 0
1  1 0 0 54
0

0101000
-127 4 +126 4 *
Ve
1e-07
0 70 54
0 0

0101101
*
Ed
 1e-07 1 1 0
1  2 0 0 70
0

0101000
-124 4 +127 4 *
Ve
1e-07
0 70 0
0 0

0101101
*
Ed
 1e-07 1 1 0
1  3 0 0 70
0

0101000
-122 4 +126 4 *
Ed
 1e-07 1 1 0
1  4 0 0 54
0

0101000
-124 4 +122 4 *
Wi

0101100
-125 0 -123 0 +121 0 +120 0 *
Ve
1e-07
0 61 11.5
0 0

0101101
*
Ed
 1e-07 1 1 0
1  5 0 0 6.28318530717959
2  1 2 0 0 6.28318530717959
0

0101100
+118 4 -118 4 *
Wi

0101100
-117 0 *
Ve
1e-07
0 61 47.5
0 0

0101101
*
Ed
 1e-07 1 1 0
1  6 0 0 6.28318530717959
2  2 3 0 0 6.28318530717959
0

0101100
+115 4 -115 4 *
Wi

0101100
-114 0 *
Ve
1e-07
0 9 11.5
0 0

0101101
*
Ed
 1e-07 1 1 0
1  7 0 0 6.28318530717959
2  3 4 0 0 6.28318530717959
0

0101100
+112 4 -112 4 *
Wi

0101100
-111 0 *
Ve
1e-07
0 9 47.5
0 0

0101101
*
Ed
 1e-07 1 1 0
1  8 0 0 6.28318530717959
2  4 5 0 0 6.28318530717959
0

0101100
+109 4 -109 4 *
Wi

0101100
-108 0 *
Fa
0  1e-07 1 0

0111000
+119 0 +116 0 +113 0 +110 0 +107 0 *
Ve
1e-07
68 0 0
0 0

0101101
*
Ed
 1e-07 1 1 0
1  9 0 0 68
0

0101000
-105 4 +126 4 *
Ve
1e-07
68 0 54
0 0

0101101
*
Ed
 1e-07 1 1 0
1  10 0 0 54
0

0101000
-103 4 +105 4 *
Ed
 1e-07 1 1 0
1  11 0 0 68
0

0101000
-103 4 +127 4 *
Wi

0101100
-104 0 -102 0 +101 0 +125 0 *
Fa
0  1e-07 6 0

0111000
+100 0 *
Ve
1e-07
68 70 54
0 0

0101101
*
Ed
 1e-07 1 1 0
1  12 0 0 68
0

0101000
-98 4 +124 4 *
Ed
 1e-07 1 1 0
1  13 0 0 70
0

0101000
-98 4 +103 4 *
Wi

0101100
-123 0 -97 0 +101 0 +96 0 *
Ve
1e-07
60 20 54
0 0

0101101
*
Ed
 1e-07 1 1 0
1  14 0 0 6.28318530717959
2  5 8 0 0 6.28318530717959
0

0101100
+94 4 -94 4 *
Wi

0101100
-93 0 *
Ve
1e-07
57.5 50 54
0 0

0101101
*
Ed
 1e-07 1 1 0
1  15 0 0 6.28318530717959
2  6 9 0 0 6.28318530717959
0

0101100
+91 4 -91 4 *
Wi

0101100
-90 0 *
Fa
0  1e-07 7 0

0111000
+95 0 +92 0 +89 0 *
Ve
1e-07
68 70 0
0 0

0101101
*
Ed
 1e-07 1 1 0
1  16 0 0 68
0

0101000
-87 4 +122 4 *
Ed
 1e-07 1 1 0
1  17 0 0 70
0

0101000
-87 4 +105 4 *
Wi

0101100
-121 0 -86 0 +104 0 +85 0 *
Ve
1e-07
58.5 20 0
0 0

0101101
*
Ed
 1e-07 1 1 0
1  18 0 0 6.28318530717959
2  7 11 0 0 6.28318530717959
0

0101100
+83 4 -83 4 *
Wi

0101100
-82 0 *
Ve
1e-07
57.5 50 0
0 0

0101101
*
Ed
 1e-07 1 1 0
1  19 0 0 6.28318530717959
2  8 9 0 0 6.28318530717959
0

0101100
+80 4 -80 4 *
Wi

0101100
-79 0 *
Fa
0  1e-07 10 0

0111000
+84 0 +81 0 +78 0 *
Ed
 1e-07 1 1 0
1  20 0 0 54
0

0101000
-98 4 +87 4 *
Wi

0101100
-86 0 -76 0 +97 0 +120 0 *
Fa
0  1e-07 12 0

0111000
+75 0 *
Ve
1.00000014e-07
66.2222222222223 61 11.5
0 0

0101101
*
Ve
1e-07
66.2222222222222 61 6.5
0 0

0101101
*
Ed
 1e-07 1 1 0
1  21 0 0 3.14159265358979
2  9 2 0 0 3.14159265358979
2  10 13 0 0 3.14159265358979
0

0101000
+73 4 -72 4 *
Ed
 1e-07 1 1 0
1  22 0 3.14159265358979 6.28318530717959
2  11 2 0 3.14159265358979 6.28318530717959
2  12 13 0 3.14159265358979 6.28318530717959
0

0101000
+72 4 -73 4 *
Ed
 1e-07 1 1 0
1  23 0 1 67.2222222222222
3  13 14CN 2 0 1 67.2222222222222
0

0101000
+118 4 -73 4 *
Wi

0101100
-71 0 -70 0 +69 0 +117 0 -69 0 *
Fa
0  1e-07 2 0

0111000
+68 0 *
Ve
1.00000014e-07
66.2222222222223 61 47.5
0 0

0101101
*
Ve
1e-07
66.2222222222222 61 42.5
0 0

0101101
*
Ed
 1e-07 1 1 0
1  24 0 0 3.14159265358979
2  15 3 0 0 3.14159265358979
2  16 14 0 0 3.14159265358979
0

0101000
+66 4 -65 4 *
Ed
 1e-07 1 1 0
1  25 0 3.14159265358979 6.28318530717959
2  17 3 0 3.14159265358979 6.28318530717959
2  18 14 0 3.14159265358979 6.28318530717959
0

0101000
+65 4 -66 4 *
Ed
 1e-07 1 1 0
1  26 0 1 67.2222222222222
3  19 20CN 3 0 1 67.2222222222222
0

0101000
+115 4 -66 4 *
Wi

0101100
-64 0 -63 0 +62 0 +114 0 -62 0 *
Fa
0  1e-07 3 0

0111000
+61 0 *
Ve
1.00000014e-07
66.2222222222223 9 11.5
0 0

0101101
*
Ve
1e-07
66.2222222222222 9 6.5
0 0

0101101
*
Ed
 1e-07 1 1 0
1  27 0 0 3.14159265358979
2  21 4 0 0 3.14159265358979
2  22 15 0 0 3.14159265358979
0

0101000
+59 4 -58 4 *
Ed
 1e-07 1 1 0
1  28 0 3.14159265358979 6.28318530717959
2  23 4 0 3.14159265358979 6.28318530717959
2  24 15 0 3.14159265358979 6.28318530717959
0

0101000
+58 4 -59 4 *
Ed
 1e-07 1 1 0
1  29 0 1 67.2222222222222
3  25 26CN 4 0 1 67.2222222222222
0

0101000
+112 4 -59 4 *
Wi

0101100
-57 0 -56 0 +55 0 +111 0 -55 0 *
Fa
0  1e-07 4 0

0111000
+54 0 *
Ve
1.00000014e-07
66.2222222222223 9 47.5
0 0

0101101
*
Ve
1e-07
66.2222222222222 9 42.5
0 0

0101101
*
Ed
 1e-07 1 1 0
1  30 0 0 3.14159265358979
2  27 5 0 0 3.14159265358979
2  28 16 0 0 3.14159265358979
0

0101000
+52 4 -51 4 *
Ed
 1e-07 1 1 0
1  31 0 3.14159265358979 6.28318530717959
2  29 5 0 3.14159265358979 6.28318530717959
2  30 16 0 3.14159265358979 6.28318530717959
0

0101000
+51 4 -52 4 *
Ed
 1e-07 1 1 0
1  32 0 1 67.2222222222222
3  31 32CN 5 0 1 67.2222222222222
0

0101000
+109 4 -52 4 *
Wi

0101100
-50 0 -49 0 +48 0 +108 0 -48 0 *
Fa
0  1e-07 5 0

0111000
+47 0 *
Wi

0101100
-102 0 -96 0 +85 0 +76 0 *
Ve
1e-07
68 61 4.5
0 0

0101101
*
Ed
 1e-07 1 1 0
1  33 0 0 6.28318530717959
2  33 13 0 0 6.28318530717959
0

0101000
+44 4 -44 4 *
Wi

0101100
+43 0 *
Ve
1e-07
68 61 40.5
0 0

0101101
*
Ed
 1e-07 1 1 0
1  34 0 0 6.28318530717959
2  34 14 0 0 6.28318530717959
0

0101000
+41 4 -41 4 *
Wi

0101100
+40 0 *
Ve
1e-07
68 9 4.5
0 0

0101101
*
Ed
 1e-07 1 1 0
1  35 0 0 6.28318530717959
2  35 15 0 0 6.28318530717959
0

0101000
+38 4 -38 4 *
Wi

0101100
+37 0 *
Ve
1e-07
68 9 40.5
0 0

0101101
*
Ed
 1e-07 1 1 0
1  36 0 0 6.28318530717959
2  36 16 0 0 6.28318530717959
0

0101000
+35 4 -35 4 *
Wi

0101100
+34 0 *
Fa
0  1e-07 17 0

0111000
+45 0 +42 0 +39 0 +36 0 +33 0 *
Ve
1e-07
60 20 38
0 0

0101101
*
Ed
 1e-07 1 1 0
1  37 0 0 16
3  37 38CN 8 0 0 16
0

0101000
+31 4 -94 4 *
Ed
 1e-07 1 1 0
1  38 0 0 6.28318530717959
2  39 8 0 0 6.28318530717959
0

0101000
+31 4 -31 4 *
Wi

0101100
-93 0 +30 0 +29 0 -30 0 *
Fa
0  1e-07 8 0

0111000
+28 0 *
Ed
 1e-07 1 1 0
1  39 0 1 55
3  40 41CN 9 0 1 55
0

0101000
+80 4 -91 4 *
Wi

0101100
-90 0 +26 0 +79 0 -26 0 *
Fa
0  1e-07 9 0

0111000
+25 0 *
Ve
1e-07
58.5 20 38
0 0

0101101
*
Ed
 1e-07 1 1 0
1  40 0 0 6.28318530717959
2  42 11 0 0 6.28318530717959
0

0101100
+23 4 -23 4 *
Ed
 1e-07 1 1 0
1  41 0 1 39
3  43 44CN 11 0 1 39
0

0101000
+83 4 -23 4 *
Wi

0101100
-22 0 +21 0 +82 0 -21 0 *
Fa
0  1e-07 11 0

0111000
+20 0 *
Ed
 1e-07 1 1 0
1  42 0 0 2.67590990639828
3  45 46CN 13 0 0 2.67590990639828
0

0101000
+44 4 -72 4 *
Wi

0101100
+71 0 +70 0 +18 0 +43 0 -18 0 *
Fa
0  1e-07 13 0

0111000
+17 0 *
Ed
 1e-07 1 1 0
1  43 0 0 2.67590990639828
3  47 48CN 14 0 0 2.67590990639828
0

0101000
+41 4 -65 4 *
Wi

0101100
+64 0 +63 0 +15 0 +40 0 -15 0 *
Fa
0  1e-07 14 0

0111000
+14 0 *
Ed
 1e-07 1 1 0
1  44 0 0 2.67590990639828
3  49 50CN 15 0 0 2.67590990639828
0

0101000
+38 4 -58 4 *
Wi

0101100
+57 0 +56 0 +12 0 +37 0 -12 0 *
Fa
0  1e-07 15 0

0111000
+11 0 *
Ed
 1e-07 1 1 0
1  45 0 0 2.67590990639828
3  51 52CN 16 0 0 2.67590990639828
0

0101000
+35 4 -51 4 *
Wi

0101100
+50 0 +49 0 +9 0 +34 0 -9 0 *
Fa
0  1e-07 16 0

0111000
+8 0 *
Wi

0101100
+29 0 *
Wi

0101100
-22 0 *
Fa
0  1e-07 18 0

0111000
+6 0 +5 0 *
Sh

0101100
-106 0 -99 0 +88 0 -77 0 +74 0 -67 0 -60 0 -53 0 -46 0 +32 0 
-27 0 -24 0 -19 0 -16 0 -13 0 -10 0 -7 0 +4 0 *
So

0100000
+3 0 *
Co

1100000
+2 0 *

+1 3 