DBRep_DrawableShape

CASCADE Topology V1, (c) Matra-Datavision
Locations 4
1
              1               0               0          14.325 
              0               1               0               0 
              0               0               1               0 
1
              1               0               0               0 
              0               1               0               0 
              0               0               1               0 
2  1 1 2 1 0
2  1 -1 0
Curve2ds 0
Curves 24
1 -14.324999999999989 0 1.1368683772161603e-13 0 -1 0 
1 -14.324999999999989 -4 13.000000000000114 0 0 -1 
1 -14.324999999999989 -2 8.0000000000001137 0 1 0 
1 -14.324999999999989 -12 13.000000000000114 0 0 -1 
1 -14.324999999999989 0 1.1368683772161603e-13 0 -1 0 
1 -14.324999999999989 -18 18.000000000000114 0 0 -1 
1 -14.324999999999989 0 18.000000000000114 0 -1 0 
1 -14.324999999999989 0 18.000000000000114 0 0 -1 
1 -14.824999999999989 -4 1.1368683772161603e-13 -1 0 -0 
1 729.67499999999995 0 1.1368683772161603e-13 0 -1 0 
1 -14.324999999999989 0 1.1368683772161603e-13 1 0 0 
1 -15.324999999999989 -4 8.0000000000001137 1 0 0 
1 729.67499999999995 -4 13.000000000000114 0 0 -1 
1 -15.324999999999989 -12 8.0000000000001137 1 0 0 
1 729.67499999999995 -2 8.0000000000001137 0 1 0 
1 729.67499999999995 -12 13.000000000000114 0 0 -1 
1 -14.824999999999989 -12 1.1368683772161603e-13 -1 0 -0 
1 -14.324999999999989 -18 1.1368683772161603e-13 1 0 0 
1 729.67499999999995 0 1.1368683772161603e-13 0 -1 0 
1 -14.324999999999989 -18 18.000000000000114 1 0 0 
1 729.67499999999995 -18 18.000000000000114 0 0 -1 
1 729.67499999999995 0 18.000000000000114 0 -1 0 
1 -14.324999999999989 0 18.000000000000114 1 0 0 
1 729.67499999999995 0 18.000000000000114 0 0 -1 
Polygon3D 0
PolygonOnTriangulations 0
Surfaces 10
1 -14.324999999999989 0 18.000000000000114 1 0 0 0 0 -1 0 1 0 
1 -14.324999999999989 0 1.1368683772161603e-13 0 0 -1 1 0 0 0 -1 0 
1 -15.324999999999989 -4 8.0000000000001137 0 -1 0 0 0 -1 1 0 0 
1 -15.324999999999989 -4 8.0000000000001137 0 0 -1 1 0 0 0 -1 0 
1 -15.324999999999989 -12 8.0000000000001137 0 -1 0 0 0 -1 1 0 0 
1 -14.324999999999989 0 1.1368683772161603e-13 0 0 -1 1 0 0 0 -1 0 
1 -14.324999999999989 -18 18.000000000000114 0 -1 0 0 0 -1 1 0 0 
1 -14.324999999999989 0 18.000000000000114 0 0 -1 1 0 0 0 -1 0 
1 -14.324999999999989 0 18.000000000000114 0 -1 0 0 0 -1 1 0 0 
1 729.67499999999995 0 18.000000000000114 1 0 0 0 0 -1 0 1 0 
Triangulations 0

TShapes 63
Ve
1e-07
0 0 1.13686837721616e-13
0 0

0101101
*
Ve
1.5e-07
0 -4 1.13686837721616e-13
0 0

0101101
*
Ed
 1e-07 1 1 0
1  1 0 0 4
0

0101000
+63 4 -62 4 *
Ve
1.5e-07
0 -4 8.00000000000011
0 0

0101101
*
Ed
 1.5e-07 1 1 0
1  2 0 5 13
0

0101000
+60 4 -62 4 *
Ve
1.5e-07
0 -12 8.00000000000011
0 0

0101101
*
Ed
 1.5e-07 1 1 0
1  3 0 -10 -2
0

0101000
+58 4 -60 4 *
Ve
1.5e-07
0 -12 1.13686837721616e-13
0 0

0101101
*
Ed
 1.5e-07 1 1 0
1  4 0 5 13
0

0101000
+58 4 -56 4 *
Ve
1e-07
0 -18 1.13686837721616e-13
0 0

0101101
*
Ed
 1e-07 1 1 0
1  5 0 12 18
0

0101000
+56 4 -54 4 *
Ve
1e-07
0 -18 18.0000000000001
0 0

0101101
*
Ed
 1e-07 1 1 0
1  6 0 0 18
0

0101000
-54 4 +52 4 *
Ve
1e-07
0 0 18.0000000000001
0 0

0101101
*
Ed
 1e-07 1 1 0
1  7 0 0 18
0

0101000
-52 4 +50 4 *
Ed
 1e-07 1 1 0
1  8 0 0 18
0

0101000
-63 4 +50 4 *
Wi

0101100
-61 0 +59 0 +57 0 -55 0 -53 0 +51 0 +49 0 -48 0 *
Fa
0  1e-07 1 0

0111000
+47 0 *
Ve
1.5e-07
744 -4 1.13686837721616e-13
0 0

0101101
*
Ed
 1.5e-07 1 1 0
1  9 0 -744.5 -0.5
0

0101000
+45 4 -62 4 *
Ve
1e-07
744 0 1.13686837721616e-13
0 0

0101101
*
Ed
 1e-07 1 1 0
1  10 0 0 4
0

0101000
+43 4 -45 4 *
Ed
 1e-07 1 1 0
1  11 0 0 744
0

0101000
-43 4 +63 4 *
Wi

0101100
-61 0 +44 0 +42 0 +41 0 *
Fa
0  1e-07 2 0

0111000
+40 0 *
Ve
1.5e-07
744 -4 8.00000000000011
0 0

0101101
*
Ed
 1e-07 1 1 0
1  12 0 1 745
0

0101000
+60 4 -38 4 *
Ed
 1.5e-07 1 1 0
1  13 0 5 13
0

0101000
+38 4 -45 4 *
Wi

0101100
-37 0 -36 0 -44 0 +59 0 *
Fa
0  1e-07 3 0

0111000
+35 0 *
Ve
1.5e-07
744 -12 8.00000000000011
0 0

0101101
*
Ed
 1e-07 1 1 0
1  14 0 1 745
0

0101000
+58 4 -33 4 *
Ed
 1.5e-07 1 1 0
1  15 0 -10 -2
0

0101000
+33 4 -38 4 *
Wi

0101100
-32 0 -31 0 +37 0 +57 0 *
Fa
0  1e-07 4 0

0111000
+30 0 *
Ve
1.5e-07
744 -12 1.13686837721616e-13
0 0

0101101
*
Ed
 1.5e-07 1 1 0
1  16 0 5 13
0

0101000
+33 4 -28 4 *
Ed
 1.5e-07 1 1 0
1  17 0 -744.5 -0.5
0

0101000
+28 4 -56 4 *
Wi

0101100
-32 0 -27 0 -26 0 +55 0 *
Fa
0  1e-07 5 0

0111000
+25 0 *
Ve
1e-07
744 -18 1.13686837721616e-13
0 0

0101101
*
Ed
 1e-07 1 1 0
1  18 0 0 744
0

0101000
-23 4 +54 4 *
Ed
 1e-07 1 1 0
1  19 0 12 18
0

0101000
+28 4 -23 4 *
Wi

0101100
-53 0 -22 0 +21 0 -26 0 *
Fa
0  1e-07 6 0

0111000
+20 0 *
Ve
1e-07
744 -18 18.0000000000001
0 0

0101101
*
Ed
 1e-07 1 1 0
1  20 0 0 744
0

0101000
-18 4 +52 4 *
Ed
 1e-07 1 1 0
1  21 0 0 18
0

0101000
-23 4 +18 4 *
Wi

0101100
-17 0 -16 0 +22 0 +51 0 *
Fa
0  1e-07 7 0

0111000
+15 0 *
Ve
1e-07
744 0 18.0000000000001
0 0

0101101
*
Ed
 1e-07 1 1 0
1  22 0 0 18
0

0101000
-18 4 +13 4 *
Ed
 1e-07 1 1 0
1  23 0 0 744
0

0101000
-13 4 +50 4 *
Wi

0101100
-49 0 -17 0 +12 0 +11 0 *
Fa
0  1e-07 8 0

0111000
+10 0 *
Ed
 1e-07 1 1 0
1  24 0 0 18
0

0101000
-43 4 +13 4 *
Wi

0101100
-11 0 -8 0 +41 0 +48 0 *
Fa
0  1e-07 9 0

0111000
+7 0 *
Wi

0101100
-42 0 +36 0 +31 0 -27 0 -21 0 +16 0 +12 0 -8 0 *
Fa
0  1e-07 10 0

0111000
+5 0 *
Sh

0101100
-46 0 +39 0 +34 0 +29 0 -24 0 +19 0 +14 0 -9 0 -6 0 +4 0 
*
So

0100000
+3 0 *
Co

1100000
+2 0 *

+1 3 