DBRep_DrawableShape

CASCADE Topology V1, (c) Matra-Datavision
Locations 4
1
              1               0               0          14.325 
              0               1               0               0 
              0               0               1               0 
1
              1               0               0               0 
              0               1               0               0 
              0               0               1               0 
2  1 1 2 1 0
2  1 -1 0
Curve2ds 48
1 0 1 1 0 
1 0 1 1 0 
1 0 1 1 0 
1 0 1 1 0 
1 0 1 1 0 
1 0 1 1 0 
1 0 1 1 0 
1 0 1 1 0 
1 0 1 1 0 
1 0 1 1 0 
1 0 1 1 0 
1 0 1 1 0 
1 0 19 1 0 
1 0 19 1 0 
1 0 19 1 0 
1 0 19 1 0 
1 0 19 1 0 
1 0 19 1 0 
1 0 19 1 0 
1 0 19 1 0 
1 0 19 1 0 
1 0 19 1 0 
1 0 19 1 0 
1 0 19 1 0 
1 7.8539816339744828 0 0 1 
1 4.7123889803846897 0 0 1 
1 4.7123889803846897 0 0 1 
1 1.5707963267948966 0 0 1 
1 7.8539816339744828 0 0 1 
1 4.7123889803846897 0 0 1 
1 4.7123889803846897 0 0 1 
1 1.5707963267948966 0 0 1 
1 6.2831853071795862 -0 0 1 
1 0 0 0 1 
1 4.7123889803846897 0 0 1 
1 1.5707963267948966 0 0 1 
1 4.7123889803846897 0 0 1 
1 1.5707963267948966 0 0 1 
1 3.1415926535897931 0 0 1 
1 3.1415926535897931 0 0 1 
1 7.8539816339744828 0 0 1 
1 4.7123889803846897 0 0 1 
1 4.7123889803846897 0 0 1 
1 1.5707963267948966 0 0 1 
1 7.8539816339744828 0 0 1 
1 4.7123889803846897 0 0 1 
1 1.5707963267948966 0 0 1 
1 4.7123889803846897 0 0 1 
Curves 84
1 -14.324999999999989 0 49 0 1 0 
1 -14.324999999999989 448.79999999999995 49 0 0 -1 
1 -14.324999999999989 0 31 0 1 0 
1 -14.324999999999989 0 49 0 0 -1 
1 -14.324999999999989 0 49 1 0 0 
1 737.67499999999995 0 49 0 1 0 
1 -14.324999999999989 448.79999999999995 49 1 0 0 
2 311.67500000000001 180 49 0 0 -1 0 1 0 1 0 0 2.5
1 309.17500000000001 75 49 0 -1 -0 
1 314.17500000000001 75 49 0 -1 -0 
2 311.67500000000001 150 49 0 0 -1 0 1 0 1 0 0 2.5
2 311.67500000000001 280 49 0 0 -1 0 1 0 1 0 0 2.5
1 309.17500000000001 125 49 0 -1 -0 
1 314.17500000000001 125 49 0 -1 -0 
2 311.67500000000001 250 49 0 0 -1 0 1 0 1 0 0 2.5
1 77.675000000000011 131 49 1 0 0 
2 169.67500000000001 123 49 0 0 -1 0 1 0 1 0 0 8
2 553.67499999999995 123 49 0 0 -1 0 1 0 1 0 0 8
1 161.67500000000001 19.5 49 0 -1 -0 
1 561.67499999999995 19.5 49 0 -1 -0 
2 169.67500000000001 39 49 0 0 -1 0 1 0 1 0 0 8
2 553.67499999999995 39 49 0 0 -1 0 1 0 1 0 0 8
1 77.675000000000011 31 49 1 0 0 
2 411.67500000000001 180 49 0 0 -1 0 1 0 1 0 0 2.5
1 409.17500000000001 75 49 0 -1 -0 
1 414.17500000000001 75 49 0 -1 -0 
2 411.67500000000001 150 49 0 0 -1 0 1 0 1 0 0 2.5
2 411.67500000000001 280 49 0 0 -1 0 1 0 1 0 0 2.5
1 414.17500000000001 125 49 0 -1 -0 
2 411.67500000000001 250 49 0 0 -1 0 1 0 1 0 0 2.5
1 409.17500000000001 125 49 0 -1 -0 
1 -14.324999999999989 448.79999999999995 31 1 0 0 
1 737.67499999999995 448.79999999999995 49 0 0 -1 
1 -14.324999999999989 0 31 1 0 0 
1 737.67499999999995 0 31 0 1 0 
2 311.67500000000001 180 31 0 0 -1 0 1 0 1 0 0 2.5
1 309.17500000000001 75 31 0 -1 -0 
1 314.17500000000001 75 31 0 -1 -0 
2 311.67500000000001 150 31 0 0 -1 0 1 0 1 0 0 2.5
2 311.67500000000001 280 31 0 0 -1 0 1 0 1 0 0 2.5
1 309.17500000000001 125 31 0 -1 -0 
1 314.17500000000001 125 31 0 -1 -0 
2 311.67500000000001 250 31 0 0 -1 0 1 0 1 0 0 2.5
1 77.675000000000011 131 31 1 0 0 
2 169.67500000000001 123 31 0 0 -1 0 1 0 1 0 0 8
2 553.67499999999995 123 31 0 0 -1 0 1 0 1 0 0 8
1 161.67500000000001 19.5 31 0 -1 -0 
1 561.67499999999995 19.5 31 0 -1 -0 
2 169.67500000000001 39 31 0 0 -1 0 1 0 1 0 0 8
2 553.67499999999995 39 31 0 0 -1 0 1 0 1 0 0 8
1 77.675000000000011 31 31 1 0 0 
2 411.67500000000001 180 31 0 0 -1 0 1 0 1 0 0 2.5
1 409.17500000000001 75 31 0 -1 -0 
1 414.17500000000001 75 31 0 -1 -0 
2 411.67500000000001 150 31 0 0 -1 0 1 0 1 0 0 2.5
2 411.67500000000001 280 31 0 0 -1 0 1 0 1 0 0 2.5
1 414.17500000000001 125 31 0 -1 -0 
2 411.67500000000001 250 31 0 0 -1 0 1 0 1 0 0 2.5
1 409.17500000000001 125 31 0 -1 -0 
1 737.67499999999995 0 49 0 0 -1 
1 314.17500000000001 180 50 0 0 -1 
1 309.17500000000001 180 50 0 0 -1 
1 309.17500000000001 150 50 0 0 -1 
1 314.17500000000001 150 50 0 0 -1 
1 314.17500000000001 280 50 0 0 -1 
1 309.17500000000001 280 50 0 0 -1 
1 309.17500000000001 250 50 0 0 -1 
1 314.17500000000001 250 50 0 0 -1 
1 169.67500000000001 131 50 0 0 -1 
1 553.67499999999995 131 50 0 0 -1 
1 161.67500000000001 123 50 0 0 -1 
1 561.67499999999995 123 50 0 0 -1 
1 161.67500000000001 39 50 0 0 -1 
1 561.67499999999995 39 50 0 0 -1 
1 169.67500000000001 31 50 0 0 -1 
1 553.67499999999995 31 50 0 0 -1 
1 414.17500000000001 180 50 0 0 -1 
1 409.17500000000001 180 50 0 0 -1 
1 409.17500000000001 150 50 0 0 -1 
1 414.17500000000001 150 50 0 0 -1 
1 414.17500000000001 280 50 0 0 -1 
1 409.17500000000001 280 50 0 0 -1 
1 414.17500000000001 250 50 0 0 -1 
1 409.17500000000001 250 50 0 0 -1 
Polygon3D 0
PolygonOnTriangulations 0
Surfaces 30
1 -14.324999999999989 0 49 1 0 0 0 1 0 0 0 1 
1 -14.324999999999989 0 49 0 0 -1 0 1 0 1 0 0 
2 311.67500000000001 180 50 0 0 -1 0 1 0 1 0 0 2.5
2 311.67500000000001 150 50 0 0 -1 0 1 0 1 0 0 2.5
2 311.67500000000001 280 50 0 0 -1 0 1 0 1 0 0 2.5
2 311.67500000000001 250 50 0 0 -1 0 1 0 1 0 0 2.5
2 169.67500000000001 123 50 0 0 -1 0 1 0 1 0 0 8
2 553.67499999999995 123 50 0 0 -1 0 1 0 1 0 0 8
2 169.67500000000001 39 50 0 0 -1 0 1 0 1 0 0 8
2 553.67499999999995 39 50 0 0 -1 0 1 0 1 0 0 8
2 411.67500000000001 180 50 0 0 -1 0 1 0 1 0 0 2.5
2 411.67500000000001 150 50 0 0 -1 0 1 0 1 0 0 2.5
2 411.67500000000001 280 50 0 0 -1 0 1 0 1 0 0 2.5
2 411.67500000000001 250 50 0 0 -1 0 1 0 1 0 0 2.5
1 -14.324999999999989 448.79999999999995 49 0 1 0 1 0 0 0 0 -1 
1 -14.324999999999989 0 31 0 0 -1 0 1 0 1 0 0 
1 -14.324999999999989 0 49 0 1 0 1 0 0 0 0 -1 
1 737.67499999999995 0 49 1 0 0 0 1 0 0 0 1 
1 309.17500000000001 150 50 1 0 0 0 1 0 0 0 1 
1 314.17500000000001 150 50 1 0 0 0 1 0 0 0 1 
1 309.17500000000001 250 50 1 0 0 0 1 0 0 0 1 
1 314.17500000000001 250 50 1 0 0 0 1 0 0 0 1 
1 169.67500000000001 131 50 0 1 0 1 0 0 0 0 -1 
1 161.67500000000001 39 50 1 0 0 0 1 0 0 0 1 
1 561.67499999999995 39 50 1 0 0 0 1 0 0 0 1 
1 169.67500000000001 31 50 0 1 0 1 0 0 0 0 -1 
1 409.17500000000001 150 50 1 0 0 0 1 0 0 0 1 
1 414.17500000000001 150 50 1 0 0 0 1 0 0 0 1 
1 414.17500000000001 250 50 1 0 0 0 1 0 0 0 1 
1 409.17500000000001 250 50 1 0 0 0 1 0 0 0 1 
Triangulations 0

TShapes 213
Ve
1e-07
0 448.8 49
0 0

0101101
*
Ve
1e-07
0 0 49
0 0

0101101
*
Ed
 1e-07 1 1 0
1  1 0 0 448.8
0

0101000
-213 4 +212 4 *
Ve
1e-07
0 448.8 31
0 0

0101101
*
Ed
 1e-07 1 1 0
1  2 0 0 18
0

0101000
-210 4 +213 4 *
Ve
1e-07
0 0 31
0 0

0101101
*
Ed
 1e-07 1 1 0
1  3 0 0 448.8
0

0101000
-210 4 +208 4 *
Ed
 1e-07 1 1 0
1  4 0 0 18
0

0101000
-208 4 +212 4 *
Wi

0101100
-211 0 -209 0 +207 0 +206 0 *
Fa
0  1e-07 1 0

0111000
+205 0 *
Ve
1e-07
752 0 49
0 0

0101101
*
Ed
 1e-07 1 1 0
1  5 0 0 752
0

0101000
-203 4 +212 4 *
Ve
1e-07
752 448.8 49
0 0

0101101
*
Ed
 1e-07 1 1 0
1  6 0 0 448.8
0

0101000
-201 4 +203 4 *
Ed
 1e-07 1 1 0
1  7 0 0 752
0

0101000
-201 4 +213 4 *
Wi

0101100
-202 0 -200 0 +211 0 +199 0 *
Ve
1.5e-07
323.5 180 49
0 0

0101101
*
Ve
1.5e-07
328.5 180 49
0 0

0101101
*
Ed
 1e-07 1 1 0
1  8 0 4.71238898038469 7.85398163397448
2  1 3 0 4.71238898038469 7.85398163397448
0

0101000
+197 4 -196 4 *
Ve
1.5e-07
323.5 150 49
0 0

0101101
*
Ed
 1.5e-07 1 1 0
1  9 0 -105 -75
0

0101000
+197 4 -194 4 *
Ve
1.5e-07
328.5 150 49
0 0

0101101
*
Ed
 1.5e-07 1 1 0
1  10 0 -105 -75
0

0101000
+196 4 -192 4 *
Ed
 1e-07 1 1 0
1  11 0 1.5707963267949 4.71238898038469
2  2 4 0 1.5707963267949 4.71238898038469
0

0101000
+192 4 -194 4 *
Wi

0101100
-195 0 +193 0 -191 0 -190 0 *
Ve
1.5e-07
323.5 280 49
0 0

0101101
*
Ve
1.5e-07
328.5 280 49
0 0

0101101
*
Ed
 1e-07 1 1 0
1  12 0 4.71238898038469 7.85398163397448
2  3 5 0 4.71238898038469 7.85398163397448
0

0101000
+188 4 -187 4 *
Ve
1.5e-07
323.5 250 49
0 0

0101101
*
Ed
 1.5e-07 1 1 0
1  13 0 -155 -125
0

0101000
+188 4 -185 4 *
Ve
1.5e-07
328.5 250 49
0 0

0101101
*
Ed
 1.5e-07 1 1 0
1  14 0 -155 -125
0

0101000
+187 4 -183 4 *
Ed
 1e-07 1 1 0
1  15 0 1.5707963267949 4.71238898038469
2  4 6 0 1.5707963267949 4.71238898038469
0

0101000
+183 4 -185 4 *
Wi

0101100
-186 0 +184 0 -182 0 -181 0 *
Ve
1.5e-07
184 131 49
0 0

0101101
*
Ve
1.5e-07
568 131 49
0 0

0101101
*
Ed
 1.5e-07 1 1 0
1  16 0 92 476
0

0101000
+179 4 -178 4 *
Ve
1.5e-07
176 123 49
0 0

0101101
*
Ed
 1e-07 1 1 0
1  17 0 4.71238898038469 6.28318530717959
2  5 7 0 4.71238898038469 6.28318530717959
0

0101000
+176 4 -179 4 *
Ve
1.5e-07
576 123 49
0 0

0101101
*
Ed
 1e-07 1 1 0
1  18 0 0 1.5707963267949
2  6 8 0 0 1.5707963267949
0

0101000
+178 4 -174 4 *
Ve
1.5e-07
176 39 49
0 0

0101101
*
Ed
 1.5e-07 1 1 0
1  19 0 -103.5 -19.5
0

0101000
+176 4 -172 4 *
Ve
1.5e-07
576 39 49
0 0

0101101
*
Ed
 1.5e-07 1 1 0
1  20 0 -103.5 -19.5
0

0101000
+174 4 -170 4 *
Ve
1.5e-07
184 31 49
0 0

0101101
*
Ed
 1e-07 1 1 0
1  21 0 3.14159265358979 4.71238898038469
2  7 9 0 3.14159265358979 4.71238898038469
0

0101000
+168 4 -172 4 *
Ve
1.5e-07
568 31 49
0 0

0101101
*
Ed
 1e-07 1 1 0
1  22 0 1.5707963267949 3.14159265358979
2  8 10 0 1.5707963267949 3.14159265358979
0

0101000
+170 4 -166 4 *
Ed
 1.5e-07 1 1 0
1  23 0 92 476
0

0101000
+168 4 -166 4 *
Wi

0101100
-177 0 -175 0 -173 0 +171 0 -169 0 -167 0 -165 0 +164 0 *
Ve
1.5e-07
423.5 180 49
0 0

0101101
*
Ve
1.5e-07
428.5 180 49
0 0

0101101
*
Ed
 1e-07 1 1 0
1  24 0 4.71238898038469 7.85398163397448
2  9 11 0 4.71238898038469 7.85398163397448
0

0101000
+162 4 -161 4 *
Ve
1.5e-07
423.5 150 49
0 0

0101101
*
Ed
 1.5e-07 1 1 0
1  25 0 -105 -75
0

0101000
+162 4 -159 4 *
Ve
1.5e-07
428.5 150 49
0 0

0101101
*
Ed
 1.5e-07 1 1 0
1  26 0 -105 -75
0

0101000
+161 4 -157 4 *
Ed
 1e-07 1 1 0
1  27 0 1.5707963267949 4.71238898038469
2  10 12 0 1.5707963267949 4.71238898038469
0

0101000
+157 4 -159 4 *
Wi

0101100
-160 0 +158 0 -156 0 -155 0 *
Ve
1.5e-07
423.5 280 49
0 0

0101101
*
Ve
1.5e-07
428.5 280 49
0 0

0101101
*
Ed
 1e-07 1 1 0
1  28 0 4.71238898038469 7.85398163397448
2  11 13 0 4.71238898038469 7.85398163397448
0

0101000
+153 4 -152 4 *
Ve
1.5e-07
428.5 250 49
0 0

0101101
*
Ed
 1.5e-07 1 1 0
1  29 0 -155 -125
0

0101000
+152 4 -150 4 *
Ve
1.5e-07
423.5 250 49
0 0

0101101
*
Ed
 1e-07 1 1 0
1  30 0 1.5707963267949 4.71238898038469
2  12 14 0 1.5707963267949 4.71238898038469
0

0101000
+150 4 -148 4 *
Ed
 1.5e-07 1 1 0
1  31 0 -155 -125
0

0101000
+153 4 -148 4 *
Wi

0101100
-151 0 -149 0 -147 0 +146 0 *
Fa
0  1e-07 2 0

0111000
+198 0 +189 0 +180 0 +163 0 +154 0 +145 0 *
Ve
1e-07
752 448.8 31
0 0

0101101
*
Ed
 1e-07 1 1 0
1  32 0 0 752
0

0101000
-143 4 +210 4 *
Ed
 1e-07 1 1 0
1  33 0 0 18
0

0101000
-143 4 +201 4 *
Wi

0101100
-209 0 -142 0 +141 0 +199 0 *
Fa
0  1e-07 15 0

0111000
+140 0 *
Ve
1e-07
752 0 31
0 0

0101101
*
Ed
 1e-07 1 1 0
1  34 0 0 752
0

0101000
-138 4 +208 4 *
Ed
 1e-07 1 1 0
1  35 0 0 448.8
0

0101000
-143 4 +138 4 *
Wi

0101100
-137 0 -136 0 +207 0 +142 0 *
Ve
1.5e-07
323.5 180 31
0 0

0101101
*
Ve
1.5e-07
328.5 180 31
0 0

0101101
*
Ed
 1e-07 1 1 0
1  36 0 4.71238898038469 7.85398163397448
2  13 3 0 4.71238898038469 7.85398163397448
0

0101000
+134 4 -133 4 *
Ve
1.5e-07
323.5 150 31
0 0

0101101
*
Ed
 1.5e-07 1 1 0
1  37 0 -105 -75
0

0101000
+134 4 -131 4 *
Ve
1.5e-07
328.5 150 31
0 0

0101101
*
Ed
 1.5e-07 1 1 0
1  38 0 -105 -75
0

0101000
+133 4 -129 4 *
Ed
 1e-07 1 1 0
1  39 0 1.5707963267949 4.71238898038469
2  14 4 0 1.5707963267949 4.71238898038469
0

0101000
+129 4 -131 4 *
Wi

0101100
-132 0 +130 0 -128 0 -127 0 *
Ve
1.5e-07
323.5 280 31
0 0

0101101
*
Ve
1.5e-07
328.5 280 31
0 0

0101101
*
Ed
 1e-07 1 1 0
1  40 0 4.71238898038469 7.85398163397448
2  15 5 0 4.71238898038469 7.85398163397448
0

0101000
+125 4 -124 4 *
Ve
1.5e-07
323.5 250 31
0 0

0101101
*
Ed
 1.5e-07 1 1 0
1  41 0 -155 -125
0

0101000
+125 4 -122 4 *
Ve
1.5e-07
328.5 250 31
0 0

0101101
*
Ed
 1.5e-07 1 1 0
1  42 0 -155 -125
0

0101000
+124 4 -120 4 *
Ed
 1e-07 1 1 0
1  43 0 1.5707963267949 4.71238898038469
2  16 6 0 1.5707963267949 4.71238898038469
0

0101000
+120 4 -122 4 *
Wi

0101100
-123 0 +121 0 -119 0 -118 0 *
Ve
1.5e-07
184 131 31
0 0

0101101
*
Ve
1.5e-07
568 131 31
0 0

0101101
*
Ed
 1.5e-07 1 1 0
1  44 0 92 476
0

0101000
+116 4 -115 4 *
Ve
1.5e-07
176 123 31
0 0

0101101
*
Ed
 1e-07 1 1 0
1  45 0 4.71238898038469 6.28318530717959
2  17 7 0 4.71238898038469 6.28318530717959
0

0101000
+113 4 -116 4 *
Ve
1.5e-07
576 123 31
0 0

0101101
*
Ed
 1e-07 1 1 0
1  46 0 0 1.5707963267949
2  18 8 0 0 1.5707963267949
0

0101000
+115 4 -111 4 *
Ve
1.5e-07
176 39 31
0 0

0101101
*
Ed
 1.5e-07 1 1 0
1  47 0 -103.5 -19.5
0

0101000
+113 4 -109 4 *
Ve
1.5e-07
576 39 31
0 0

0101101
*
Ed
 1.5e-07 1 1 0
1  48 0 -103.5 -19.5
0

0101000
+111 4 -107 4 *
Ve
1.5e-07
184 31 31
0 0

0101101
*
Ed
 1e-07 1 1 0
1  49 0 3.14159265358979 4.71238898038469
2  19 9 0 3.14159265358979 4.71238898038469
0

0101000
+105 4 -109 4 *
Ve
1.5e-07
568 31 31
0 0

0101101
*
Ed
 1e-07 1 1 0
1  50 0 1.5707963267949 3.14159265358979
2  20 10 0 1.5707963267949 3.14159265358979
0

0101000
+107 4 -103 4 *
Ed
 1.5e-07 1 1 0
1  51 0 92 476
0

0101000
+105 4 -103 4 *
Wi

0101100
-114 0 -112 0 -110 0 +108 0 -106 0 -104 0 -102 0 +101 0 *
Ve
1.5e-07
423.5 180 31
0 0

0101101
*
Ve
1.5e-07
428.5 180 31
0 0

0101101
*
Ed
 1e-07 1 1 0
1  52 0 4.71238898038469 7.85398163397448
2  21 11 0 4.71238898038469 7.85398163397448
0

0101000
+99 4 -98 4 *
Ve
1.5e-07
423.5 150 31
0 0

0101101
*
Ed
 1.5e-07 1 1 0
1  53 0 -105 -75
0

0101000
+99 4 -96 4 *
Ve
1.5e-07
428.5 150 31
0 0

0101101
*
Ed
 1.5e-07 1 1 0
1  54 0 -105 -75
0

0101000
+98 4 -94 4 *
Ed
 1e-07 1 1 0
1  55 0 1.5707963267949 4.71238898038469
2  22 12 0 1.5707963267949 4.71238898038469
0

0101000
+94 4 -96 4 *
Wi

0101100
-97 0 +95 0 -93 0 -92 0 *
Ve
1.5e-07
423.5 280 31
0 0

0101101
*
Ve
1.5e-07
428.5 280 31
0 0

0101101
*
Ed
 1e-07 1 1 0
1  56 0 4.71238898038469 7.85398163397448
2  23 13 0 4.71238898038469 7.85398163397448
0

0101000
+90 4 -89 4 *
Ve
1.5e-07
428.5 250 31
0 0

0101101
*
Ed
 1.5e-07 1 1 0
1  57 0 -155 -125
0

0101000
+89 4 -87 4 *
Ve
1.5e-07
423.5 250 31
0 0

0101101
*
Ed
 1e-07 1 1 0
1  58 0 1.5707963267949 4.71238898038469
2  24 14 0 1.5707963267949 4.71238898038469
0

0101000
+87 4 -85 4 *
Ed
 1.5e-07 1 1 0
1  59 0 -155 -125
0

0101000
+90 4 -85 4 *
Wi

0101100
-88 0 -86 0 -84 0 +83 0 *
Fa
0  1e-07 16 0

0111000
+135 0 +126 0 +117 0 +100 0 +91 0 +82 0 *
Ed
 1e-07 1 1 0
1  60 0 0 18
0

0101000
-138 4 +203 4 *
Wi

0101100
-206 0 -137 0 +80 0 +202 0 *
Fa
0  1e-07 17 0

0111000
+79 0 *
Wi

0101100
-200 0 -141 0 +136 0 +80 0 *
Fa
0  1e-07 18 0

0111000
+77 0 *
Ed
 1e-07 1 1 0
1  61 0 1 19
2  25 3 0 1 19
0

0101000
+196 4 -133 4 *
Ed
 1e-07 1 1 0
1  62 0 1 19
2  26 3 0 1 19
0

0101000
+197 4 -134 4 *
Wi

0101100
-132 0 +75 0 +195 0 -74 0 *
Fa
0  1e-07 3 0

0111000
+73 0 *
Ed
 1e-07 1 1 0
1  63 0 1 19
2  27 4 0 1 19
0

0101000
+194 4 -131 4 *
Wi

0101100
+193 0 -74 0 -130 0 +71 0 *
Fa
0  1e-07 19 0

0111000
+70 0 *
Ed
 1e-07 1 1 0
1  64 0 1 19
2  28 4 0 1 19
0

0101000
+192 4 -129 4 *
Wi

0101100
+191 0 -75 0 -128 0 +68 0 *
Fa
0  1e-07 20 0

0111000
+67 0 *
Wi

0101100
-127 0 +71 0 +190 0 -68 0 *
Fa
0  1e-07 4 0

0111000
+65 0 *
Ed
 1e-07 1 1 0
1  65 0 1 19
2  29 5 0 1 19
0

0101000
+187 4 -124 4 *
Ed
 1e-07 1 1 0
1  66 0 1 19
2  30 5 0 1 19
0

0101000
+188 4 -125 4 *
Wi

0101100
-123 0 +63 0 +186 0 -62 0 *
Fa
0  1e-07 5 0

0111000
+61 0 *
Ed
 1e-07 1 1 0
1  67 0 1 19
2  31 6 0 1 19
0

0101000
+185 4 -122 4 *
Wi

0101100
+184 0 -62 0 -121 0 +59 0 *
Fa
0  1e-07 21 0

0111000
+58 0 *
Ed
 1e-07 1 1 0
1  68 0 1 19
2  32 6 0 1 19
0

0101000
+183 4 -120 4 *
Wi

0101100
+182 0 -63 0 -119 0 +56 0 *
Fa
0  1e-07 22 0

0111000
+55 0 *
Wi

0101100
-118 0 +59 0 +181 0 -56 0 *
Fa
0  1e-07 6 0

0111000
+53 0 *
Ed
 1e-07 1 1 0
1  69 0 1 19
2  33 7 0 1 19
0

0101000
+179 4 -116 4 *
Ed
 1e-07 1 1 0
1  70 0 1 19
2  34 8 0 1 19
0

0101000
+178 4 -115 4 *
Wi

0101100
-51 0 -114 0 +50 0 +177 0 *
Fa
0  1e-07 23 0

0111000
+49 0 *
Ed
 1e-07 1 1 0
1  71 0 1 19
2  35 7 0 1 19
0

0101000
+176 4 -113 4 *
Wi

0101100
-112 0 +51 0 +175 0 -47 0 *
Fa
0  1e-07 7 0

0111000
+46 0 *
Ed
 1e-07 1 1 0
1  72 0 1 19
2  36 8 0 1 19
0

0101000
+174 4 -111 4 *
Wi

0101100
-110 0 +44 0 +173 0 -50 0 *
Fa
0  1e-07 8 0

0111000
+43 0 *
Ed
 1e-07 1 1 0
1  73 0 1 19
2  37 9 0 1 19
0

0101000
+172 4 -109 4 *
Wi

0101100
+171 0 -47 0 -108 0 +41 0 *
Fa
0  1e-07 24 0

0111000
+40 0 *
Ed
 1e-07 1 1 0
1  74 0 1 19
2  38 10 0 1 19
0

0101000
+170 4 -107 4 *
Wi

0101100
+169 0 -44 0 -106 0 +38 0 *
Fa
0  1e-07 25 0

0111000
+37 0 *
Ed
 1e-07 1 1 0
1  75 0 1 19
2  39 9 0 1 19
0

0101000
+168 4 -105 4 *
Wi

0101100
-104 0 +41 0 +167 0 -35 0 *
Fa
0  1e-07 9 0

0111000
+34 0 *
Ed
 1e-07 1 1 0
1  76 0 1 19
2  40 10 0 1 19
0

0101000
+166 4 -103 4 *
Wi

0101100
-102 0 +32 0 +165 0 -38 0 *
Fa
0  1e-07 10 0

0111000
+31 0 *
Wi

0101100
-35 0 -101 0 +32 0 +164 0 *
Fa
0  1e-07 26 0

0111000
+29 0 *
Ed
 1e-07 1 1 0
1  77 0 1 19
2  41 11 0 1 19
0

0101000
+161 4 -98 4 *
Ed
 1e-07 1 1 0
1  78 0 1 19
2  42 11 0 1 19
0

0101000
+162 4 -99 4 *
Wi

0101100
-97 0 +27 0 +160 0 -26 0 *
Fa
0  1e-07 11 0

0111000
+25 0 *
Ed
 1e-07 1 1 0
1  79 0 1 19
2  43 12 0 1 19
0

0101000
+159 4 -96 4 *
Wi

0101100
+158 0 -26 0 -95 0 +23 0 *
Fa
0  1e-07 27 0

0111000
+22 0 *
Ed
 1e-07 1 1 0
1  80 0 1 19
2  44 12 0 1 19
0

0101000
+157 4 -94 4 *
Wi

0101100
+156 0 -27 0 -93 0 +20 0 *
Fa
0  1e-07 28 0

0111000
+19 0 *
Wi

0101100
-92 0 +23 0 +155 0 -20 0 *
Fa
0  1e-07 12 0

0111000
+17 0 *
Ed
 1e-07 1 1 0
1  81 0 1 19
2  45 13 0 1 19
0

0101000
+152 4 -89 4 *
Ed
 1e-07 1 1 0
1  82 0 1 19
2  46 13 0 1 19
0

0101000
+153 4 -90 4 *
Wi

0101100
-88 0 +15 0 +151 0 -14 0 *
Fa
0  1e-07 13 0

0111000
+13 0 *
Ed
 1e-07 1 1 0
1  83 0 1 19
2  47 14 0 1 19
0

0101000
+150 4 -87 4 *
Wi

0101100
+149 0 -15 0 -86 0 +11 0 *
Fa
0  1e-07 29 0

0111000
+10 0 *
Ed
 1e-07 1 1 0
1  84 0 1 19
2  48 14 0 1 19
0

0101000
+148 4 -85 4 *
Wi

0101100
-84 0 +8 0 +147 0 -11 0 *
Fa
0  1e-07 14 0

0111000
+7 0 *
Wi

0101100
+146 0 -14 0 -83 0 +8 0 *
Fa
0  1e-07 30 0

0111000
+5 0 *
Sh

0101100
-204 0 -144 0 +139 0 +81 0 -78 0 +76 0 -72 0 +69 0 -66 0 -64 0 
-60 0 +57 0 -54 0 -52 0 -48 0 -45 0 -42 0 +39 0 -36 0 -33 0 
-30 0 +28 0 -24 0 +21 0 -18 0 -16 0 -12 0 -9 0 -6 0 +4 0 
*
So

0100000
+3 0 *
Co

1100000
+2 0 *

+1 3 